<?xml version="1.0" encoding="utf-8" standalone="no"?>
<!DOCTYPE svg PUBLIC "-//W3C//DTD SVG 1.1//EN"
  "http://www.w3.org/Graphics/SVG/1.1/DTD/svg11.dtd">
<!-- Created with matplotlib (http://matplotlib.org/) -->
<svg height="432pt" version="1.1" viewBox="0 0 576 432" width="576pt" xmlns="http://www.w3.org/2000/svg" xmlns:xlink="http://www.w3.org/1999/xlink">
 <defs>
  <style type="text/css">
*{stroke-linecap:butt;stroke-linejoin:round;}
  </style>
 </defs>
 <g id="figure_1">
  <g id="patch_1">
   <path d="M 0 432 
L 576 432 
L 576 0 
L 0 0 
z
" style="fill:#ffffff;"/>
  </g>
  <g id="axes_1">
   <g id="patch_2">
    <path d="M 72 384.48 
L 518.4 384.48 
L 518.4 51.84 
L 72 51.84 
z
" style="fill:#ffffff;"/>
   </g>
   <g id="matplotlib.axis_1">
    <g id="xtick_1">
     <g id="line2d_1">
      <path clip-path="url(#p5712a70a93)" d="M 92.290909 384.48 
L 92.290909 51.84 
" style="fill:none;stroke:#b0b0b0;stroke-dasharray:5.12,1.28,0.8,1.28;stroke-dashoffset:0;stroke-width:0.8;"/>
     </g>
     <g id="line2d_2">
      <defs>
       <path d="M 0 0 
L 0 3.5 
" id="mac877d0d52" style="stroke:#000000;stroke-width:0.8;"/>
      </defs>
      <g>
       <use style="stroke:#000000;stroke-width:0.8;" x="92.290909" xlink:href="#mac877d0d52" y="384.48"/>
      </g>
     </g>
     <g id="text_1">
      <!-- $0$ -->
      <defs>
       <path d="M 42 31.640625 
C 42 37.75 41.90625 48.125 37.703125 56.109375 
C 34 63.109375 28.09375 65.59375 22.90625 65.59375 
C 18.09375 65.59375 12 63.40625 8.203125 56.203125 
C 4.203125 48.71875 3.796875 39.4375 3.796875 31.640625 
C 3.796875 25.953125 3.90625 17.28125 7 9.671875 
C 11.296875 -0.609375 19 -2 22.90625 -2 
C 27.5 -2 34.5 -0.109375 38.59375 9.375 
C 41.59375 16.28125 42 24.359375 42 31.640625 
z
M 22.90625 -0.40625 
C 16.5 -0.40625 12.703125 5.078125 11.296875 12.6875 
C 10.203125 18.5625 10.203125 27.15625 10.203125 32.75 
C 10.203125 40.4375 10.203125 46.828125 11.5 52.921875 
C 13.40625 61.390625 19 64 22.90625 64 
C 27 64 32.296875 61.296875 34.203125 53.125 
C 35.5 47.4375 35.59375 40.734375 35.59375 32.75 
C 35.59375 26.25 35.59375 18.265625 34.40625 12.375 
C 32.296875 1.484375 26.40625 -0.40625 22.90625 -0.40625 
z
" id="CMR17-48"/>
      </defs>
      <g transform="translate(89.800241 398.398498)scale(0.1 -0.1)">
       <use transform="scale(0.996264)" xlink:href="#CMR17-48"/>
      </g>
     </g>
    </g>
    <g id="xtick_2">
     <g id="line2d_3">
      <path clip-path="url(#p5712a70a93)" d="M 190.64723 384.48 
L 190.64723 51.84 
" style="fill:none;stroke:#b0b0b0;stroke-dasharray:5.12,1.28,0.8,1.28;stroke-dashoffset:0;stroke-width:0.8;"/>
     </g>
     <g id="line2d_4">
      <g>
       <use style="stroke:#000000;stroke-width:0.8;" x="190.64723" xlink:href="#mac877d0d52" y="384.48"/>
      </g>
     </g>
     <g id="text_2">
      <!-- $1000$ -->
      <defs>
       <path d="M 26.59375 63.40625 
C 26.59375 65.5 26.5 65.5 25.09375 65.5 
C 21.203125 61.1875 15.296875 59.796875 9.703125 59.796875 
C 9.40625 59.796875 8.90625 59.796875 8.796875 59.5 
C 8.703125 59.296875 8.703125 59.09375 8.703125 57 
C 11.796875 57 17 57.59375 21 59.984375 
L 21 7.203125 
C 21 3.6875 20.796875 2.5 12.203125 2.5 
L 9.203125 2.5 
L 9.203125 0 
C 14 0 19 0 23.796875 0 
C 28.59375 0 33.59375 0 38.40625 0 
L 38.40625 2.5 
L 35.40625 2.5 
C 26.796875 2.5 26.59375 3.59375 26.59375 7.15625 
z
" id="CMR17-49"/>
      </defs>
      <g transform="translate(180.68456 398.398498)scale(0.1 -0.1)">
       <use transform="scale(0.996264)" xlink:href="#CMR17-49"/>
       <use transform="translate(45.690477 0)scale(0.996264)" xlink:href="#CMR17-48"/>
       <use transform="translate(91.380954 0)scale(0.996264)" xlink:href="#CMR17-48"/>
       <use transform="translate(137.071431 0)scale(0.996264)" xlink:href="#CMR17-48"/>
      </g>
     </g>
    </g>
    <g id="xtick_3">
     <g id="line2d_5">
      <path clip-path="url(#p5712a70a93)" d="M 289.003552 384.48 
L 289.003552 51.84 
" style="fill:none;stroke:#b0b0b0;stroke-dasharray:5.12,1.28,0.8,1.28;stroke-dashoffset:0;stroke-width:0.8;"/>
     </g>
     <g id="line2d_6">
      <g>
       <use style="stroke:#000000;stroke-width:0.8;" x="289.003552" xlink:href="#mac877d0d52" y="384.48"/>
      </g>
     </g>
     <g id="text_3">
      <!-- $2000$ -->
      <defs>
       <path d="M 41.703125 15.453125 
L 39.90625 15.453125 
C 38.90625 8.375 38.09375 7.171875 37.703125 6.5625 
C 37.203125 5.765625 30 5.765625 28.59375 5.765625 
L 9.40625 5.765625 
C 13 9.671875 20 16.75 28.5 24.953125 
C 34.59375 30.734375 41.703125 37.53125 41.703125 47.421875 
C 41.703125 59.21875 32.296875 66 21.796875 66 
C 10.796875 66 4.09375 56.3125 4.09375 47.34375 
C 4.09375 43.4375 7 42.9375 8.203125 42.9375 
C 9.203125 42.9375 12.203125 43.546875 12.203125 47.03125 
C 12.203125 50.109375 9.59375 51 8.203125 51 
C 7.59375 51 7 50.90625 6.59375 50.703125 
C 8.5 59.21875 14.296875 63.40625 20.40625 63.40625 
C 29.09375 63.40625 34.796875 56.515625 34.796875 47.421875 
C 34.796875 38.734375 29.703125 31.25 24 24.75 
L 4.09375 2.28125 
L 4.09375 0 
L 39.296875 0 
z
" id="CMR17-50"/>
      </defs>
      <g transform="translate(279.040881 398.398498)scale(0.1 -0.1)">
       <use transform="scale(0.996264)" xlink:href="#CMR17-50"/>
       <use transform="translate(45.690477 0)scale(0.996264)" xlink:href="#CMR17-48"/>
       <use transform="translate(91.380954 0)scale(0.996264)" xlink:href="#CMR17-48"/>
       <use transform="translate(137.071431 0)scale(0.996264)" xlink:href="#CMR17-48"/>
      </g>
     </g>
    </g>
    <g id="xtick_4">
     <g id="line2d_7">
      <path clip-path="url(#p5712a70a93)" d="M 387.359873 384.48 
L 387.359873 51.84 
" style="fill:none;stroke:#b0b0b0;stroke-dasharray:5.12,1.28,0.8,1.28;stroke-dashoffset:0;stroke-width:0.8;"/>
     </g>
     <g id="line2d_8">
      <g>
       <use style="stroke:#000000;stroke-width:0.8;" x="387.359873" xlink:href="#mac877d0d52" y="384.48"/>
      </g>
     </g>
     <g id="text_4">
      <!-- $3000$ -->
      <defs>
       <path d="M 22.09375 33.703125 
C 31 33.703125 34.90625 25.96875 34.90625 17.03125 
C 34.90625 5 28.5 0.390625 22.703125 0.390625 
C 17.40625 0.390625 8.796875 3.03125 6.09375 10.828125 
C 6.59375 10.625 7.09375 10.625 7.59375 10.625 
C 10 10.625 11.796875 12.21875 11.796875 14.8125 
C 11.796875 17.703125 9.59375 19 7.59375 19 
C 5.90625 19 3.296875 18.203125 3.296875 14.46875 
C 3.296875 5.234375 12.296875 -2 22.90625 -2 
C 34 -2 42.5 6.71875 42.5 16.953125 
C 42.5 26.671875 34.5 33.703125 25 34.796875 
C 32.59375 36.375 39.90625 43.0625 39.90625 52.015625 
C 39.90625 59.6875 32 65.296875 23 65.296875 
C 13.90625 65.296875 5.90625 59.828125 5.90625 52.015625 
C 5.90625 48.59375 8.5 48 9.796875 48 
C 11.90625 48 13.703125 49.296875 13.703125 51.890625 
C 13.703125 54.46875 11.90625 55.765625 9.796875 55.765625 
C 9.40625 55.765625 8.90625 55.765625 8.5 55.578125 
C 11.40625 61.859375 19.296875 63 22.796875 63 
C 26.296875 63 32.90625 61.328125 32.90625 51.875 
C 32.90625 49.109375 32.5 44.1875 29.09375 39.84375 
C 26.09375 36 22.703125 36 19.40625 35.6875 
C 18.90625 35.6875 16.59375 35.453125 16.203125 35.453125 
C 15.5 35.359375 15.09375 35.265625 15.09375 34.5 
C 15.09375 33.796875 15.203125 33.703125 17.203125 33.703125 
z
" id="CMR17-51"/>
      </defs>
      <g transform="translate(377.397203 398.398498)scale(0.1 -0.1)">
       <use transform="scale(0.996264)" xlink:href="#CMR17-51"/>
       <use transform="translate(45.690477 0)scale(0.996264)" xlink:href="#CMR17-48"/>
       <use transform="translate(91.380954 0)scale(0.996264)" xlink:href="#CMR17-48"/>
       <use transform="translate(137.071431 0)scale(0.996264)" xlink:href="#CMR17-48"/>
      </g>
     </g>
    </g>
    <g id="xtick_5">
     <g id="line2d_9">
      <path clip-path="url(#p5712a70a93)" d="M 485.716194 384.48 
L 485.716194 51.84 
" style="fill:none;stroke:#b0b0b0;stroke-dasharray:5.12,1.28,0.8,1.28;stroke-dashoffset:0;stroke-width:0.8;"/>
     </g>
     <g id="line2d_10">
      <g>
       <use style="stroke:#000000;stroke-width:0.8;" x="485.716194" xlink:href="#mac877d0d52" y="384.48"/>
      </g>
     </g>
     <g id="text_5">
      <!-- $4000$ -->
      <defs>
       <path d="M 33.59375 64.40625 
C 33.59375 66.5 33.5 66.5 31.703125 66.5 
L 2 19.59375 
L 2 17 
L 27.796875 17 
L 27.796875 7.140625 
C 27.796875 3.5 27.59375 2.5 20.59375 2.5 
L 18.703125 2.5 
L 18.703125 0 
C 21.90625 0 27.296875 0 30.703125 0 
C 34.09375 0 39.5 0 42.703125 0 
L 42.703125 2.5 
L 40.796875 2.5 
C 33.796875 2.5 33.59375 3.5 33.59375 7.140625 
L 33.59375 17 
L 43.796875 17 
L 43.796875 19.59375 
L 33.59375 19.59375 
z
M 28.09375 57.859375 
L 28.09375 19.59375 
L 4 19.59375 
z
" id="CMR17-52"/>
      </defs>
      <g transform="translate(475.753524 398.398498)scale(0.1 -0.1)">
       <use transform="scale(0.996264)" xlink:href="#CMR17-52"/>
       <use transform="translate(45.690477 0)scale(0.996264)" xlink:href="#CMR17-48"/>
       <use transform="translate(91.380954 0)scale(0.996264)" xlink:href="#CMR17-48"/>
       <use transform="translate(137.071431 0)scale(0.996264)" xlink:href="#CMR17-48"/>
      </g>
     </g>
    </g>
    <g id="text_6">
     <!-- Iteration -->
     <defs>
      <path d="M 17.09375 69 
L 8.703125 69 
L 8.703125 0 
L 17.09375 0 
z
" id="CMSS17-73"/>
      <path d="M 16.703125 37 
L 29.703125 37 
L 29.703125 42.765625 
L 16.703125 42.765625 
L 16.703125 55 
L 9.59375 55 
L 9.59375 42.765625 
L 1.703125 42.765625 
L 1.703125 37 
L 9.40625 37 
L 9.40625 11.703125 
C 9.40625 6 10.703125 -1 17.296875 -1 
C 22.296875 -1 26.90625 0.390625 31.296875 2.6875 
L 29.703125 8.5625 
C 27.296875 6.46875 24.40625 5.265625 21.296875 5.265625 
C 16.90625 5.265625 16.703125 10.875 16.703125 13.375 
z
" id="CMSS17-116"/>
      <path d="M 39.09375 21.515625 
C 39.09375 24.84375 38.90625 31.296875 35.703125 36.640625 
C 32.203125 42.390625 26.5 44 22.203125 44 
C 11.796875 44 3 34.1875 3 21.484375 
C 3 9.09375 12.09375 -1 23.59375 -1 
C 28.09375 -1 33.59375 0.296875 38.59375 3.875 
C 38.59375 4.28125 38.40625 6.46875 38.296875 6.5625 
C 38.296875 6.765625 38 9.84375 38 10.25 
C 33.203125 6.359375 27.703125 5.078125 23.703125 5.078125 
C 17.296875 5.078125 10.40625 10.421875 10.09375 21.515625 
z
M 10.90625 27 
C 12.203125 32.5625 16.59375 37.828125 22.203125 37.828125 
C 23.703125 37.828125 30.703125 37.828125 32.5 27 
z
" id="CMSS17-101"/>
      <path d="M 14.90625 21.296875 
C 14.90625 30.703125 21.796875 37 30.59375 37 
L 30.59375 43.578125 
C 24.203125 43.578125 18.203125 40.390625 14.59375 35.203125 
L 14.59375 43.09375 
L 7.5 43.09375 
L 7.5 0 
L 14.90625 0 
z
" id="CMSS17-114"/>
      <path d="M 37.59375 27.984375 
C 37.59375 37.375 30.90625 43.875 21.90625 43.875 
C 17.5 43.875 12.703125 43.078125 7.203125 39.890625 
L 7.796875 33.359375 
C 10.296875 35.125 14.59375 38 21.796875 38 
C 26.90625 38 30 34.0625 30 27.84375 
L 30 24 
C 14 24 4 19.34375 4 11.34375 
C 4 7.203125 6.5 -1 14.796875 -1 
C 16.296875 -1 24.40625 -1 30.203125 3.390625 
L 30.203125 -0.296875 
L 37.59375 -0.296875 
z
M 30 12.75 
C 30 10.953125 30 8.5625 27 6.78125 
C 24.40625 5.078125 21.09375 5.078125 19.703125 5.078125 
C 14.703125 5.078125 11.296875 7.984375 11.296875 11.625 
C 11.296875 18.921875 26.90625 18.921875 30 18.921875 
z
" id="CMSS17-97"/>
      <path d="M 15.296875 65.359375 
L 6.90625 65.359375 
L 6.90625 57 
L 15.296875 57 
z
M 14.796875 42.796875 
L 7.40625 42.796875 
L 7.40625 0 
L 14.796875 0 
z
" id="CMSS17-105"/>
      <path d="M 44.203125 21.1875 
C 44.203125 34 34.703125 44 23.5 44 
C 12 44 2.703125 33.703125 2.703125 21.1875 
C 2.703125 8.5 12.296875 -1 23.40625 -1 
C 34.796875 -1 44.203125 8.796875 44.203125 21.1875 
z
M 23.5 5.265625 
C 16.40625 5.265625 10.296875 11.078125 10.296875 22 
C 10.296875 33.609375 17.40625 37.921875 23.40625 37.921875 
C 29.90625 37.921875 36.59375 33.21875 36.59375 22 
C 36.59375 10.671875 30.09375 5.265625 23.5 5.265625 
z
" id="CMSS17-111"/>
      <path d="M 40.90625 29.328125 
C 40.90625 35.671875 39.40625 44 28.09375 44 
C 21.703125 44 17.5 40.71875 14.703125 37.328125 
L 14.703125 43.09375 
L 7.40625 43.09375 
L 7.40625 0 
L 15 0 
L 15 24.359375 
C 15 30.6875 17.40625 37.9375 24.203125 37.9375 
C 33 37.9375 33.296875 32 33.296875 28.578125 
L 33.296875 0 
L 40.90625 0 
z
" id="CMSS17-110"/>
     </defs>
     <g transform="translate(271.264003 414.021553)scale(0.14 -0.14)">
      <use transform="scale(0.996264)" xlink:href="#CMSS17-73"/>
      <use transform="translate(25.783926 0)scale(0.996264)" xlink:href="#CMSS17-116"/>
      <use transform="translate(59.615492 0)scale(0.996264)" xlink:href="#CMSS17-101"/>
      <use transform="translate(101.254314 0)scale(0.996264)" xlink:href="#CMSS17-114"/>
      <use transform="translate(133.164087 0)scale(0.996264)" xlink:href="#CMSS17-97"/>
      <use transform="translate(178.086007 0)scale(0.996264)" xlink:href="#CMSS17-116"/>
      <use transform="translate(211.917574 0)scale(0.996264)" xlink:href="#CMSS17-105"/>
      <use transform="translate(234.098297 0)scale(0.996264)" xlink:href="#CMSS17-111"/>
      <use transform="translate(280.941921 0)scale(0.996264)" xlink:href="#CMSS17-110"/>
     </g>
    </g>
   </g>
   <g id="matplotlib.axis_2">
    <g id="ytick_1">
     <g id="line2d_11">
      <path clip-path="url(#p5712a70a93)" d="M 72 364.647131 
L 518.4 364.647131 
" style="fill:none;stroke:#b0b0b0;stroke-dasharray:5.12,1.28,0.8,1.28;stroke-dashoffset:0;stroke-width:0.8;"/>
     </g>
     <g id="line2d_12">
      <defs>
       <path d="M 0 0 
L -3.5 0 
" id="mff1e21b738" style="stroke:#000000;stroke-width:0.8;"/>
      </defs>
      <g>
       <use style="stroke:#000000;stroke-width:0.8;" x="72" xlink:href="#mff1e21b738" y="364.647131"/>
      </g>
     </g>
     <g id="text_7">
      <!-- $-4000$ -->
      <defs>
       <path d="M 65.90625 23 
C 67.59375 23 69.40625 23 69.40625 25 
C 69.40625 27 67.59375 27 65.90625 27 
L 11.796875 27 
C 10.09375 27 8.296875 27 8.296875 25 
C 8.296875 23 10.09375 23 11.796875 23 
z
" id="CMSY10-0"/>
      </defs>
      <g transform="translate(37.325915 368.10638)scale(0.1 -0.1)">
       <use transform="scale(0.996264)" xlink:href="#CMSY10-0"/>
       <use transform="translate(77.487468 0)scale(0.996264)" xlink:href="#CMR17-52"/>
       <use transform="translate(123.177945 0)scale(0.996264)" xlink:href="#CMR17-48"/>
       <use transform="translate(168.868422 0)scale(0.996264)" xlink:href="#CMR17-48"/>
       <use transform="translate(214.558899 0)scale(0.996264)" xlink:href="#CMR17-48"/>
      </g>
     </g>
    </g>
    <g id="ytick_2">
     <g id="line2d_13">
      <path clip-path="url(#p5712a70a93)" d="M 72 304.56504 
L 518.4 304.56504 
" style="fill:none;stroke:#b0b0b0;stroke-dasharray:5.12,1.28,0.8,1.28;stroke-dashoffset:0;stroke-width:0.8;"/>
     </g>
     <g id="line2d_14">
      <g>
       <use style="stroke:#000000;stroke-width:0.8;" x="72" xlink:href="#mff1e21b738" y="304.56504"/>
      </g>
     </g>
     <g id="text_8">
      <!-- $-2000$ -->
      <g transform="translate(37.325915 308.024289)scale(0.1 -0.1)">
       <use transform="scale(0.996264)" xlink:href="#CMSY10-0"/>
       <use transform="translate(77.487468 0)scale(0.996264)" xlink:href="#CMR17-50"/>
       <use transform="translate(123.177945 0)scale(0.996264)" xlink:href="#CMR17-48"/>
       <use transform="translate(168.868422 0)scale(0.996264)" xlink:href="#CMR17-48"/>
       <use transform="translate(214.558899 0)scale(0.996264)" xlink:href="#CMR17-48"/>
      </g>
     </g>
    </g>
    <g id="ytick_3">
     <g id="line2d_15">
      <path clip-path="url(#p5712a70a93)" d="M 72 244.482949 
L 518.4 244.482949 
" style="fill:none;stroke:#b0b0b0;stroke-dasharray:5.12,1.28,0.8,1.28;stroke-dashoffset:0;stroke-width:0.8;"/>
     </g>
     <g id="line2d_16">
      <g>
       <use style="stroke:#000000;stroke-width:0.8;" x="72" xlink:href="#mff1e21b738" y="244.482949"/>
      </g>
     </g>
     <g id="text_9">
      <!-- $0$ -->
      <g transform="translate(60.018665 247.942198)scale(0.1 -0.1)">
       <use transform="scale(0.996264)" xlink:href="#CMR17-48"/>
      </g>
     </g>
    </g>
    <g id="ytick_4">
     <g id="line2d_17">
      <path clip-path="url(#p5712a70a93)" d="M 72 184.400859 
L 518.4 184.400859 
" style="fill:none;stroke:#b0b0b0;stroke-dasharray:5.12,1.28,0.8,1.28;stroke-dashoffset:0;stroke-width:0.8;"/>
     </g>
     <g id="line2d_18">
      <g>
       <use style="stroke:#000000;stroke-width:0.8;" x="72" xlink:href="#mff1e21b738" y="184.400859"/>
      </g>
     </g>
     <g id="text_10">
      <!-- $2000$ -->
      <g transform="translate(45.074659 187.860108)scale(0.1 -0.1)">
       <use transform="scale(0.996264)" xlink:href="#CMR17-50"/>
       <use transform="translate(45.690477 0)scale(0.996264)" xlink:href="#CMR17-48"/>
       <use transform="translate(91.380954 0)scale(0.996264)" xlink:href="#CMR17-48"/>
       <use transform="translate(137.071431 0)scale(0.996264)" xlink:href="#CMR17-48"/>
      </g>
     </g>
    </g>
    <g id="ytick_5">
     <g id="line2d_19">
      <path clip-path="url(#p5712a70a93)" d="M 72 124.318768 
L 518.4 124.318768 
" style="fill:none;stroke:#b0b0b0;stroke-dasharray:5.12,1.28,0.8,1.28;stroke-dashoffset:0;stroke-width:0.8;"/>
     </g>
     <g id="line2d_20">
      <g>
       <use style="stroke:#000000;stroke-width:0.8;" x="72" xlink:href="#mff1e21b738" y="124.318768"/>
      </g>
     </g>
     <g id="text_11">
      <!-- $4000$ -->
      <g transform="translate(45.074659 127.778017)scale(0.1 -0.1)">
       <use transform="scale(0.996264)" xlink:href="#CMR17-52"/>
       <use transform="translate(45.690477 0)scale(0.996264)" xlink:href="#CMR17-48"/>
       <use transform="translate(91.380954 0)scale(0.996264)" xlink:href="#CMR17-48"/>
       <use transform="translate(137.071431 0)scale(0.996264)" xlink:href="#CMR17-48"/>
      </g>
     </g>
    </g>
    <g id="ytick_6">
     <g id="line2d_21">
      <path clip-path="url(#p5712a70a93)" d="M 72 64.236677 
L 518.4 64.236677 
" style="fill:none;stroke:#b0b0b0;stroke-dasharray:5.12,1.28,0.8,1.28;stroke-dashoffset:0;stroke-width:0.8;"/>
     </g>
     <g id="line2d_22">
      <g>
       <use style="stroke:#000000;stroke-width:0.8;" x="72" xlink:href="#mff1e21b738" y="64.236677"/>
      </g>
     </g>
     <g id="text_12">
      <!-- $6000$ -->
      <defs>
       <path d="M 10.59375 34 
C 10.59375 57.65625 21.796875 63 28.296875 63 
C 30.40625 63 35.5 62.640625 37.5 59 
C 35.90625 59 32.90625 59 32.90625 55.515625 
C 32.90625 52.828125 35.09375 51.921875 36.5 51.921875 
C 37.40625 51.921875 40.09375 52.3125 40.09375 55.625 
C 40.09375 61.78125 35.09375 65.296875 28.203125 65.296875 
C 16.296875 65.296875 3.796875 52.96875 3.796875 31 
C 3.796875 3.953125 15.09375 -2 23.09375 -2 
C 32.796875 -2 42 6.671875 42 20.046875 
C 42 32.515625 33.90625 41.59375 23.703125 41.59375 
C 17.59375 41.59375 13.09375 37.609375 10.59375 30.625 
z
M 23.09375 0.390625 
C 10.796875 0.390625 10.796875 18.75 10.796875 22.4375 
C 10.796875 29.625 14.203125 40 23.5 40 
C 25.203125 40 30.09375 40 33.40625 33.125 
C 35.203125 29.21875 35.203125 25.140625 35.203125 20.140625 
C 35.203125 14.75 35.203125 10.78125 33.09375 6.78125 
C 30.90625 2.671875 27.703125 0.390625 23.09375 0.390625 
z
" id="CMR17-54"/>
      </defs>
      <g transform="translate(45.074659 67.695926)scale(0.1 -0.1)">
       <use transform="scale(0.996264)" xlink:href="#CMR17-54"/>
       <use transform="translate(45.690477 0)scale(0.996264)" xlink:href="#CMR17-48"/>
       <use transform="translate(91.380954 0)scale(0.996264)" xlink:href="#CMR17-48"/>
       <use transform="translate(137.071431 0)scale(0.996264)" xlink:href="#CMR17-48"/>
      </g>
     </g>
    </g>
    <g id="text_13">
     <!-- $\partial \mathcal{L}/ \partial u_{m}$ -->
     <defs>
      <path d="M 45.40625 33.515625 
C 44.796875 39.125 41.296875 45.859375 32.296875 45.859375 
C 18.203125 45.859375 3.796875 31.515625 3.796875 15.5625 
C 3.796875 9.4375 8 -2.09375 21.59375 -2.09375 
C 45.203125 -2.09375 55.296875 32.296875 55.296875 46 
C 55.296875 60.40625 47.203125 71.5 34.40625 71.5 
C 19.90625 71.5 15.59375 58.796875 15.59375 56.09375 
C 15.59375 55.203125 16.203125 53 19 53 
C 22.5 53 24 56.203125 24 57.90625 
C 24 61 20.90625 61 19.59375 61 
C 23.703125 68.40625 31.296875 69.09375 34 69.09375 
C 42.796875 69.09375 48.40625 62.109375 48.40625 50.96875 
C 48.40625 44.578125 46.5 37.1875 45.5 33.515625 
z
M 21.90625 0.59375 
C 12.5 0.59375 10.90625 8.03125 10.90625 12.25 
C 10.90625 16.65625 13.703125 27 15.203125 30.703125 
C 16.5 33.71875 22.203125 43.859375 32.59375 43.859375 
C 41.703125 43.859375 43.796875 35.921875 43.796875 30.515625 
C 43.796875 23.078125 37.296875 0.59375 21.90625 0.59375 
z
" id="CMMI12-64"/>
      <path d="M 18 9.53125 
C 23.40625 17.984375 25.09375 24.40625 26.40625 29.734375 
C 29.90625 43.59375 33.703125 55.65625 39.90625 62.578125 
C 41.09375 63.90625 41.90625 64.796875 45.09375 64.796875 
C 52 64.796875 52.203125 57.875 52.203125 56.453125 
C 52.203125 54.65625 51.703125 53.234375 51.703125 52.734375 
C 51.703125 52.03125 52.296875 52.03125 52.40625 52.03125 
C 54 52.03125 56.703125 53.140625 59.203125 54.953125 
C 61 56.359375 61.90625 57.359375 61.90625 61.46875 
C 61.90625 66.890625 59.09375 71 53.5 71 
C 50.296875 71 41.5 70.203125 31.703125 60.25 
C 23.703125 52.015625 19 33.9375 17.09375 26.40625 
C 15.296875 19.5 14.5 16.375 11.5 10.34375 
C 10.796875 9.15625 8.203125 4.734375 6.796875 3.421875 
C 4.09375 0.921875 3.09375 -0.890625 3.09375 -1.390625 
C 3.09375 -1.59375 3.296875 -2 4 -2 
C 4.40625 -2 6.5 -1.59375 9.09375 0.078125 
C 10.796875 1.0625 11 1.25 13.296875 3.609375 
C 18.296875 3.609375 21.796875 2.703125 28.09375 0.90625 
C 33.203125 -0.5 38.296875 -2 43.40625 -2 
C 51.5 -2 59.703125 4.125 62.90625 8.53125 
C 64.90625 11.234375 65.5 13.75 65.5 14.046875 
C 65.5 14.75 64.90625 14.75 64.796875 14.75 
C 63.203125 14.75 60.796875 13.65625 59.09375 12.4375 
C 56.40625 10.734375 56.203125 10.140625 55.59375 8.421875 
C 55.09375 6.8125 54.5 6.015625 54.09375 5.40625 
C 53.296875 4.203125 53.203125 4.203125 51.703125 4.203125 
C 46.90625 4.203125 41.90625 5.71875 35.296875 7.515625 
C 32.5 8.3125 27 9.9375 22 9.9375 
C 20.703125 9.9375 19.296875 9.828125 18 9.53125 
z
" id="CMSY10-76"/>
      <path d="M 42.90625 71.28125 
C 42.90625 71.390625 43.5 72.90625 43.5 73.09375 
C 43.5 74.296875 42.5 75 41.703125 75 
C 41.203125 75 40.296875 75 39.5 72.796875 
L 6 -21.296875 
C 6 -21.40625 5.40625 -22.890625 5.40625 -23.09375 
C 5.40625 -24.296875 6.40625 -25 7.203125 -25 
C 7.796875 -25 8.703125 -24.890625 9.40625 -22.796875 
z
" id="CMMI12-61"/>
      <path d="M 34.09375 5.78125 
C 35.40625 0.203125 40.203125 -1 42.59375 -1 
C 45.796875 -1 48.203125 1.09375 49.796875 4.484375 
C 51.5 8.078125 52.796875 13.96875 52.796875 14.265625 
C 52.796875 14.765625 52.40625 15.171875 51.796875 15.171875 
C 50.90625 15.171875 50.796875 14.671875 50.40625 13.171875 
C 48.59375 6.28125 46.796875 1 42.796875 1 
C 39.796875 1 39.796875 4.296875 39.796875 5.59375 
C 39.796875 7.890625 40.09375 8.875 41.09375 13.078125 
C 41.796875 15.765625 42.5 18.453125 43.09375 21.25 
L 47.203125 37.515625 
C 47.90625 40.015625 47.90625 40.21875 47.90625 40.515625 
C 47.90625 42.015625 46.703125 43.015625 45.203125 43.015625 
C 42.296875 43.015625 41.59375 40.515625 41 38.015625 
C 40 34.125 34.59375 12.671875 33.90625 9.1875 
C 33.796875 9.1875 29.90625 1 22.59375 1 
C 17.40625 1 16.40625 5.484375 16.40625 9.1875 
C 16.40625 14.875 19.203125 22.84375 21.796875 29.53125 
C 23 32.734375 23.5 34.03125 23.5 36.015625 
C 23.5 40.3125 20.40625 44 15.59375 44 
C 6.40625 44 2.703125 29.53125 2.703125 28.734375 
C 2.703125 28.34375 3.09375 27.84375 3.796875 27.84375 
C 4.703125 27.84375 4.796875 28.234375 5.203125 29.625 
C 7.59375 38.140625 11.5 41.90625 15.296875 41.90625 
C 16.296875 41.90625 17.90625 41.90625 17.90625 38.71875 
C 17.90625 36.125 16.796875 33.234375 15.296875 29.4375 
C 10.90625 17.5625 10.40625 13.765625 10.40625 10.78125 
C 10.40625 0.59375 18.09375 -1 22.203125 -1 
C 28.59375 -1 32.09375 3.390625 34.09375 5.78125 
z
" id="CMMI12-117"/>
      <path d="M 20.59375 29.234375 
C 20.796875 29.84375 23.296875 34.828125 27 38.015625 
C 29.59375 40.40625 33 42.015625 36.90625 42.015625 
C 40.90625 42.015625 42.296875 39.015625 42.296875 35.03125 
C 42.296875 34.421875 42.296875 32.4375 41.09375 27.734375 
L 38.59375 17.46875 
C 37.796875 14.46875 35.90625 7.078125 35.703125 5.984375 
C 35.296875 4.484375 34.703125 1.890625 34.703125 1.5 
C 34.703125 0.09375 35.796875 -1 37.296875 -1 
C 40.296875 -1 40.796875 1.296875 41.703125 4.890625 
L 47.703125 28.734375 
C 47.90625 29.53125 53.09375 42.015625 64.09375 42.015625 
C 68.09375 42.015625 69.5 39.015625 69.5 35.03125 
C 69.5 29.4375 65.59375 18.5625 63.40625 12.578125 
C 62.5 10.171875 62 8.875 62 7.078125 
C 62 2.59375 65.09375 -1 69.90625 -1 
C 79.203125 -1 82.703125 13.671875 82.703125 14.265625 
C 82.703125 14.765625 82.296875 15.171875 81.703125 15.171875 
C 80.796875 15.171875 80.703125 14.875 80.203125 13.171875 
C 77.90625 5.1875 74.203125 1 70.203125 1 
C 69.203125 1 67.59375 1 67.59375 4.203125 
C 67.59375 6.8125 68.796875 10 69.203125 11.09375 
C 71 15.90625 75.5 27.703125 75.5 33.515625 
C 75.5 39.5 72 44 64.40625 44 
C 57.703125 44 52.296875 40.21875 48.296875 34.328125 
C 48 39.71875 44.703125 44 37.203125 44 
C 28.296875 44 23.59375 37.734375 21.796875 35.234375 
C 21.5 40.90625 17.40625 44 13 44 
C 10.09375 44 7.796875 42.609375 5.90625 38.8125 
C 4.09375 35.21875 2.703125 29.140625 2.703125 28.734375 
C 2.703125 28.34375 3.09375 27.84375 3.796875 27.84375 
C 4.59375 27.84375 4.703125 27.9375 5.296875 30.234375 
C 6.796875 36.125 8.703125 42.015625 12.703125 42.015625 
C 15 42.015625 15.796875 40.40625 15.796875 37.421875 
C 15.796875 35.21875 14.796875 31.328125 14.09375 28.234375 
L 11.296875 17.46875 
C 10.90625 15.5625 9.796875 11.078125 9.296875 9.28125 
C 8.59375 6.6875 7.5 2 7.5 1.5 
C 7.5 0.09375 8.59375 -1 10.09375 -1 
C 11.296875 -1 12.703125 -0.40625 13.5 1.09375 
C 13.703125 1.59375 14.59375 5.09375 15.09375 7.078125 
L 17.296875 16.0625 
z
" id="CMMI12-109"/>
     </defs>
     <g transform="translate(30.613887 242.659086)rotate(-90)scale(0.14 -0.14)">
      <use transform="translate(0 14.943915)scale(0.996264)" xlink:href="#CMMI12-64"/>
      <use transform="translate(56.915564 14.943915)scale(0.996264)" xlink:href="#CMSY10-76"/>
      <use transform="translate(125.630372 14.943915)scale(0.996264)" xlink:href="#CMMI12-61"/>
      <use transform="translate(174.405291 14.943915)scale(0.996264)" xlink:href="#CMMI12-64"/>
      <use transform="translate(231.320856 14.943915)scale(0.996264)" xlink:href="#CMMI12-117"/>
      <use transform="translate(286.841185 0)scale(0.697382)" xlink:href="#CMMI12-109"/>
     </g>
    </g>
   </g>
   <g id="line2d_23">
    <path clip-path="url(#p5712a70a93)" d="M 92.290909 244.482949 
L 92.585978 244.482949 
L 92.881047 241.898918 
L 93.667898 235.174536 
L 94.651461 227.180695 
L 94.94653 231.308398 
L 95.044886 231.605023 
L 95.143242 231.524859 
L 95.339955 230.540044 
L 95.73338 226.814465 
L 96.8153 216.033998 
L 97.503794 211.516411 
L 98.192288 208.499554 
L 98.880783 206.465538 
L 99.569277 205.06625 
L 100.356127 203.973873 
L 101.142978 203.238871 
L 102.126541 202.644049 
L 103.306817 202.222754 
L 104.782162 201.945748 
L 107.044357 201.770504 
L 111.568748 201.69337 
L 111.667104 202.417921 
L 112.257242 225.286036 
L 112.650668 233.569278 
L 112.945737 236.192065 
L 113.044093 236.436636 
L 113.142449 236.385527 
L 113.339162 235.443989 
L 113.634231 232.114078 
L 114.027656 224.59438 
L 114.617794 208.162118 
L 115.207932 190.740516 
L 115.601357 184.35717 
L 115.994783 181.361633 
L 116.191495 180.837249 
L 116.388208 180.842818 
L 116.58492 181.308968 
L 116.879989 182.748448 
L 117.371771 186.754376 
L 118.060265 194.881164 
L 119.043828 209.832583 
L 120.715886 239.574669 
L 123.174794 282.819433 
L 124.453426 301.471675 
L 125.436989 312.980808 
L 126.322196 320.868267 
L 127.010691 325.253536 
L 127.600828 327.746597 
L 128.09261 328.918892 
L 128.387679 329.22675 
L 128.682748 329.239466 
L 128.977817 328.959462 
L 129.371242 328.136818 
L 129.863024 326.402119 
L 130.453162 323.321774 
L 131.141656 318.429163 
L 132.026863 310.270045 
L 133.108782 297.864265 
L 134.485771 279.188221 
L 139.797012 203.875456 
L 140.878932 192.846463 
L 141.764139 185.81696 
L 142.550989 181.22829 
L 143.141127 178.862533 
L 143.632909 177.610393 
L 144.026334 177.081944 
L 144.321403 176.960905 
L 144.616472 177.074145 
L 144.911541 177.419293 
L 145.304966 178.234661 
L 145.796748 179.810782 
L 146.386886 182.486769 
L 147.07538 186.624671 
L 147.960587 193.39732 
L 149.042506 203.548522 
L 150.517851 219.793722 
L 155.238955 273.715374 
L 156.419231 283.856092 
L 157.402794 290.429115 
L 158.189644 294.308519 
L 158.878139 296.637803 
L 159.36992 297.677731 
L 159.763346 298.132778 
L 160.156771 298.253741 
L 160.45184 298.126974 
L 160.845265 297.671789 
L 161.337047 296.652376 
L 161.927185 294.791234 
L 162.615679 291.788595 
L 163.402529 287.352386 
L 164.386093 280.496752 
L 165.664725 269.880694 
L 167.730208 250.475801 
L 170.189116 227.835268 
L 171.566104 217.215711 
L 172.648024 210.541471 
L 173.533231 206.379566 
L 174.221725 204.021774 
L 174.811863 202.638552 
L 175.303644 201.943012 
L 175.69707 201.686665 
L 176.090495 201.695609 
L 176.48392 201.966795 
L 176.975702 202.667364 
L 177.56584 204.021567 
L 178.254334 206.273239 
L 179.041185 209.662404 
L 180.024748 214.970551 
L 181.30338 223.281974 
L 183.17215 237.139695 
L 185.926127 257.47073 
L 187.303115 265.976461 
L 188.385035 271.340194 
L 189.270242 274.699233 
L 190.057092 276.835461 
L 190.64723 277.890256 
L 191.139012 278.404889 
L 191.532437 278.577694 
L 191.925863 278.5395 
L 192.319288 278.292929 
L 192.811069 277.697681 
L 193.401207 276.576243 
L 194.089702 274.736114 
L 194.876552 271.988612 
L 195.860115 267.710088 
L 197.138748 261.042412 
L 199.105874 249.375356 
L 201.761495 233.828196 
L 203.138483 227.110294 
L 204.220403 222.894607 
L 205.10561 220.270915 
L 205.89246 218.618138 
L 206.482598 217.815426 
L 206.97438 217.436867 
L 207.466161 217.322305 
L 207.957943 217.469122 
L 208.449725 217.872225 
L 209.039863 218.68357 
L 209.728357 220.059646 
L 210.515207 222.155357 
L 211.498771 225.464847 
L 212.679046 230.250866 
L 214.44946 238.481701 
L 217.596862 253.214737 
L 218.973851 258.51958 
L 220.055771 261.831986 
L 220.940977 263.880308 
L 221.727828 265.157831 
L 222.416322 265.839516 
L 223.00646 266.095625 
L 223.498242 266.078583 
L 223.990023 265.855245 
L 224.580161 265.322158 
L 225.268656 264.350574 
L 226.055506 262.810985 
L 227.039069 260.314012 
L 228.219345 256.629175 
L 229.891403 250.548843 
L 233.628943 236.684441 
L 234.907575 232.882032 
L 235.989495 230.341776 
L 236.874701 228.799511 
L 237.661552 227.865502 
L 238.350046 227.397165 
L 238.940184 227.257144 
L 239.530322 227.356303 
L 240.12046 227.689233 
L 240.808954 228.361585 
L 241.595805 229.481175 
L 242.481012 231.145218 
L 243.562931 233.672075 
L 245.038276 237.761301 
L 250.054449 252.306494 
L 251.234724 254.818177 
L 252.218288 256.421898 
L 253.103494 257.44101 
L 253.988701 258.035874 
L 254.677196 258.199892 
L 255.36569 258.104479 
L 256.054184 257.756525 
L 256.841035 257.064536 
L 257.726242 255.939886 
L 258.709805 254.312481 
L 259.988437 251.720309 
L 261.857207 247.327809 
L 265.004609 239.910732 
L 266.381598 237.261659 
L 267.463517 235.618561 
L 268.447081 234.519407 
L 269.233931 233.933135 
L 270.020782 233.616902 
L 270.709276 233.56317 
L 271.39777 233.714454 
L 272.184621 234.12942 
L 273.069828 234.885448 
L 274.053391 236.047706 
L 275.233667 237.816009 
L 276.807368 240.624171 
L 281.430115 249.172447 
L 282.708747 250.941756 
L 283.790667 252.070828 
L 284.77423 252.766578 
L 285.659437 253.107947 
L 286.446287 253.181379 
L 287.233138 253.041361 
L 288.118345 252.639105 
L 289.101908 251.910904 
L 290.183828 250.809969 
L 291.560816 249.048044 
L 293.527943 246.106439 
L 296.576988 241.558955 
L 298.052333 239.778071 
L 299.232609 238.687383 
L 300.314529 237.995483 
L 301.298092 237.642231 
L 302.183299 237.554439 
L 303.068506 237.681957 
L 304.052069 238.064587 
L 305.133988 238.752944 
L 306.314264 239.777107 
L 307.789609 241.360014 
L 310.051805 244.115791 
L 312.805782 247.279693 
L 314.18277 248.517167 
L 315.363046 249.305387 
L 316.444965 249.775082 
L 317.428529 249.979553 
L 318.412092 249.970009 
L 319.494011 249.720143 
L 320.575931 249.238321 
L 321.854563 248.410281 
L 323.428264 247.097001 
L 326.182241 244.428803 
L 328.444437 242.367705 
L 330.018138 241.234175 
L 331.29677 240.575964 
L 332.477046 240.209752 
L 333.657322 240.087992 
L 334.837597 240.209124 
L 336.017873 240.558423 
L 337.394862 241.21823 
L 338.968563 242.23103 
L 341.525827 244.18703 
L 344.181448 246.14132 
L 345.853505 247.098482 
L 347.230494 247.644075 
L 348.509126 247.923628 
L 349.787758 247.974121 
L 351.066391 247.800646 
L 352.443379 247.385596 
L 354.01708 246.672317 
L 356.180919 245.419911 
L 360.311885 242.982715 
L 361.983942 242.27033 
L 363.459287 241.866227 
L 364.836276 241.703143 
L 366.213264 241.751083 
L 367.688609 242.022969 
L 369.360666 242.565757 
L 371.524505 243.524622 
L 376.540678 245.8497 
L 378.311092 246.386221 
L 379.983149 246.658272 
L 381.55685 246.688404 
L 383.228908 246.48818 
L 385.097678 246.022114 
L 387.458229 245.185507 
L 392.474402 243.349426 
L 394.441528 242.905422 
L 396.211942 242.72571 
L 397.982356 242.766749 
L 399.851126 243.031555 
L 402.113321 243.587408 
L 409.686758 245.662682 
L 411.752241 245.873465 
L 413.719367 245.852352 
L 415.883206 245.597839 
L 418.538827 245.043987 
L 424.931988 243.616031 
L 427.29254 243.385204 
L 429.554735 243.395433 
L 432.013643 243.643672 
L 435.259402 244.221103 
L 440.37393 245.132389 
L 443.029551 245.355681 
L 445.488459 245.341913 
L 448.242436 245.097643 
L 452.570114 244.447342 
L 456.602723 243.922434 
L 459.455057 243.774245 
L 462.30739 243.852478 
L 465.749861 244.184993 
L 473.224942 244.982847 
L 476.372344 245.04341 
L 479.716459 244.879077 
L 491.912643 244.034046 
L 495.650183 244.177264 
L 498.109091 244.356906 
L 498.109091 244.356906 
" style="fill:none;stroke:#bf00bf;stroke-linecap:square;stroke-width:1.5;"/>
   </g>
   <g id="line2d_24">
    <path clip-path="url(#p5712a70a93)" d="M 92.290909 244.482949 
L 92.389265 244.482949 
L 92.487622 244.482949 
L 92.585978 245.797245 
L 92.684334 245.61014 
L 92.881047 241.097354 
L 93.274472 221.882089 
L 94.258036 171.203854 
L 94.651461 156.96433 
L 95.044886 121.200231 
L 95.438311 103.044553 
L 95.831737 93.6986 
L 96.323518 87.600695 
L 96.8153 84.101976 
L 97.503794 80.898841 
L 98.290645 78.376901 
L 99.077495 76.622408 
L 99.864346 75.419261 
L 100.651196 74.605852 
L 101.536403 74.00525 
L 102.618323 73.557581 
L 103.995311 73.248759 
L 105.962438 73.053628 
L 109.601622 72.95485 
L 111.568748 72.942584 
L 111.667104 72.579733 
L 111.962173 67.402661 
L 112.06053 66.96 
L 112.158886 67.246703 
L 112.355599 69.973628 
L 112.650668 79.049817 
L 113.044093 99.006925 
L 113.634231 141.228566 
L 115.503001 285.650864 
L 115.896426 293.911773 
L 116.191495 295.771383 
L 116.289851 295.774372 
L 116.486564 295.022141 
L 116.781633 292.311727 
L 117.273415 284.599455 
L 117.961909 269.239432 
L 119.043828 239.130921 
L 122.289587 145.180255 
L 123.371507 120.985332 
L 124.256714 105.645897 
L 125.043564 95.786849 
L 125.633702 90.855783 
L 126.125484 88.397572 
L 126.518909 87.517995 
L 126.715622 87.439729 
L 126.912334 87.601235 
L 127.207403 88.289881 
L 127.600828 90.030967 
L 128.09261 93.500489 
L 128.682748 99.490634 
L 129.371242 108.851442 
L 130.256449 124.291421 
L 131.338369 147.57763 
L 132.715357 182.405962 
L 137.829886 317.105921 
L 138.911805 338.001294 
L 139.797012 351.466334 
L 140.583863 360.395268 
L 141.272357 365.731676 
L 141.764139 368.093917 
L 142.157564 369.108418 
L 142.452633 369.36 
L 142.649346 369.286634 
L 142.944415 368.817966 
L 143.33784 367.532225 
L 143.829621 364.886843 
L 144.419759 360.245946 
L 145.108254 352.926647 
L 145.993461 340.779977 
L 147.07538 322.379332 
L 148.452369 294.76259 
L 153.665254 185.660513 
L 154.747173 169.215909 
L 155.63238 158.675771 
L 156.419231 151.739654 
L 157.009369 148.117617 
L 157.50115 146.157418 
L 157.894575 145.286282 
L 158.189644 145.038753 
L 158.386357 145.065931 
L 158.681426 145.392708 
L 159.074851 146.355722 
L 159.566633 148.388446 
L 160.156771 151.999599 
L 160.845265 157.736598 
L 161.730472 167.305121 
L 162.812391 181.855126 
L 164.18938 203.760492 
L 169.500621 292.10494 
L 170.582541 305.043945 
L 171.467748 313.291426 
L 172.254598 318.675731 
L 172.844736 321.45216 
L 173.336518 322.922107 
L 173.729943 323.542924 
L 174.025012 323.685616 
L 174.320081 323.553492 
L 174.61515 323.149335 
L 175.008575 322.193828 
L 175.500357 320.34616 
L 176.090495 317.208514 
L 176.778989 312.356158 
L 177.664196 304.41345 
L 178.746116 292.507697 
L 180.22146 273.453545 
L 184.942564 210.202064 
L 186.12284 198.305395 
L 187.106403 190.59364 
L 187.893253 186.041697 
L 188.581748 183.308164 
L 189.073529 182.087395 
L 189.466955 181.552871 
L 189.762024 181.409302 
L 190.057092 181.484843 
L 190.352161 181.777371 
L 190.745587 182.499915 
L 191.237368 183.924819 
L 191.827506 186.370422 
L 192.516001 190.177301 
L 193.401207 196.437584 
L 194.483127 205.855137 
L 195.958472 220.973915 
L 200.777932 272.298833 
L 201.958207 281.668587 
L 202.941771 287.708301 
L 203.728621 291.245366 
L 204.417115 293.342417 
L 204.908897 294.256816 
L 205.302322 294.636246 
L 205.695748 294.703887 
L 206.089173 294.462843 
L 206.482598 293.918082 
L 206.97438 292.820499 
L 207.564518 290.915374 
L 208.253012 287.929646 
L 209.138219 282.996336 
L 210.220138 275.547857 
L 211.597127 264.39948 
L 216.711656 221.245705 
L 217.793575 214.546462 
L 218.678782 210.227791 
L 219.465633 207.362458 
L 220.154127 205.648433 
L 220.744265 204.783155 
L 221.13769 204.5178 
L 221.531115 204.500478 
L 221.924541 204.728498 
L 222.416322 205.352045 
L 223.00646 206.581472 
L 223.694954 208.645947 
L 224.481805 211.7717 
L 225.465368 216.687661 
L 226.645644 223.774233 
L 228.416058 235.924856 
L 231.465104 256.976125 
L 232.842092 264.857021 
L 233.924012 269.80284 
L 234.809219 272.881191 
L 235.596069 274.820626 
L 236.186207 275.762773 
L 236.677989 276.207297 
L 237.16977 276.342151 
L 237.563196 276.229037 
L 238.054977 275.816174 
L 238.645115 274.933773 
L 239.333609 273.395689 
L 240.12046 271.01639 
L 241.104023 267.218646 
L 242.284299 261.681114 
L 243.956357 252.6407 
L 247.398828 233.759933 
L 248.67746 228.021177 
L 249.75938 224.135068 
L 250.644586 221.731775 
L 251.431437 220.232658 
L 252.021575 219.517242 
L 252.513357 219.192457 
L 252.906782 219.110168 
L 253.103494 219.127829 
L 253.791989 219.493744 
L 254.382127 220.173985 
L 255.070621 221.37417 
L 255.857471 223.243269 
L 256.841035 226.240158 
L 258.021311 230.624982 
L 259.693368 237.805573 
L 263.234196 253.24883 
L 264.512828 257.778855 
L 265.594747 260.831406 
L 266.479954 262.706725 
L 267.266805 263.864326 
L 267.955299 264.469071 
L 268.545437 264.680785 
L 269.037219 264.642179 
L 269.627356 264.342475 
L 270.217494 263.77481 
L 270.905989 262.7905 
L 271.692839 261.272307 
L 272.676402 258.853846 
L 273.856678 255.33282 
L 275.627092 249.239339 
L 278.872851 237.93277 
L 280.249839 233.996281 
L 281.331759 231.541967 
L 282.216966 230.027216 
L 283.003816 229.085357 
L 283.69231 228.58588 
L 284.282448 228.401936 
L 284.872586 228.442173 
L 285.462724 228.70225 
L 286.151218 229.273652 
L 286.938069 230.25959 
L 287.823276 231.754396 
L 288.905195 234.055369 
L 290.282184 237.553964 
L 292.937805 245.095033 
L 294.904931 250.326509 
L 296.183563 253.147517 
L 297.265483 255.029246 
L 298.15069 256.169273 
L 298.93754 256.85727 
L 299.626034 257.199573 
L 300.314529 257.297624 
L 301.003023 257.154394 
L 301.691517 256.77731 
L 302.478368 256.075122 
L 303.363575 254.968028 
L 304.445494 253.219844 
L 305.822483 250.508195 
L 307.986322 245.655535 
L 310.051805 241.090123 
L 312.018931 237.491887 
L 313.10085 236.015175 
L 314.084414 235.047258 
L 314.871264 234.549106 
L 315.658115 234.304022 
L 316.444965 234.312286 
L 317.231816 234.568013 
L 318.018667 235.059419 
L 318.903873 235.872278 
L 319.985793 237.193808 
L 321.264425 239.126898 
L 323.133195 242.397924 
L 326.280598 247.911573 
L 327.657586 249.877185 
L 328.837862 251.188868 
L 329.821425 251.971848 
L 330.706632 252.415528 
L 331.591839 252.604032 
L 332.378689 252.557718 
L 333.263896 252.272301 
L 334.149103 251.754514 
L 335.231023 250.838358 
L 336.509655 249.421733 
L 338.181712 247.190299 
L 342.607747 241.088014 
L 343.984735 239.662416 
L 345.165011 238.764555 
L 346.148574 238.27561 
L 347.132138 238.035573 
L 348.017345 238.034317 
L 349.000908 238.265153 
L 349.984471 238.725144 
L 351.164747 239.545538 
L 352.541735 240.802534 
L 354.410505 242.841359 
L 358.049689 246.868578 
L 359.525034 248.148212 
L 360.803666 248.966698 
L 361.885586 249.414352 
L 362.967505 249.622597 
L 364.049425 249.589266 
L 365.131344 249.323316 
L 366.31162 248.790835 
L 367.688609 247.899535 
L 369.360666 246.534227 
L 374.770264 241.901633 
L 376.147252 241.106408 
L 377.425885 240.617619 
L 378.60616 240.40023 
L 379.786436 240.411961 
L 380.966712 240.644506 
L 382.245344 241.122125 
L 383.720689 241.914383 
L 385.687816 243.240923 
L 390.015494 246.24227 
L 391.589195 247.037093 
L 392.966183 247.504646 
L 394.244816 247.723546 
L 395.523448 247.728316 
L 396.900436 247.502825 
L 398.375781 247.025239 
L 400.146195 246.200958 
L 402.998528 244.57833 
L 405.752505 243.100496 
L 407.522919 242.397398 
L 409.09662 242.011376 
L 410.571965 241.879737 
L 412.04731 241.973095 
L 413.621011 242.300912 
L 415.489781 242.937995 
L 418.145402 244.113586 
L 421.587873 245.605406 
L 423.554999 246.206719 
L 425.227057 246.492884 
L 426.899114 246.548935 
L 428.571172 246.379672 
L 430.439942 245.960098 
L 432.89885 245.154102 
L 438.013379 243.408922 
L 440.078861 242.986331 
L 441.947631 242.834318 
L 443.816402 242.911112 
L 445.881884 243.234458 
L 448.439149 243.880446 
L 454.242172 245.428377 
L 456.406011 245.729466 
L 458.471493 245.792859 
L 460.635332 245.627195 
L 463.094241 245.207623 
L 471.65124 243.53212 
L 474.011792 243.436472 
L 476.372344 243.567674 
L 479.224677 243.965219 
L 487.191539 245.222377 
L 489.748804 245.316612 
L 492.404424 245.190885 
L 495.748539 244.790464 
L 498.010735 244.455699 
L 498.010735 244.455699 
" style="fill:none;stroke:#00bfbf;stroke-linecap:square;stroke-width:1.5;"/>
   </g>
   <g id="line2d_25">
    <path clip-path="url(#p5712a70a93)" d="M 92.290909 244.482949 
L 92.585978 244.482949 
L 92.782691 240.784755 
L 93.569541 222.488536 
L 94.061323 215.979807 
L 94.553104 212.107315 
L 94.651461 211.578563 
L 95.044886 226.34918 
L 95.438311 232.352096 
L 95.831737 234.879176 
L 96.323518 236.397979 
L 97.208725 238.175673 
L 98.389001 240.127818 
L 99.372564 241.319498 
L 100.356127 242.135758 
L 101.438047 242.714505 
L 102.716679 243.118843 
L 104.388737 243.388707 
L 106.946001 243.54563 
L 111.765461 243.591851 
L 111.962173 242.950895 
L 112.257242 240.292881 
L 112.749024 232.517691 
L 114.71615 197.018119 
L 114.912863 196.721247 
L 115.011219 196.808805 
L 115.207932 197.557397 
L 115.503001 199.919963 
L 116.093139 207.354257 
L 117.568484 230.428694 
L 119.53561 259.967459 
L 120.912599 277.458948 
L 121.994518 288.678104 
L 122.978081 296.63485 
L 123.764932 301.330647 
L 124.453426 304.168546 
L 124.945208 305.457142 
L 125.338633 306.04394 
L 125.732058 306.238266 
L 126.027127 306.129028 
L 126.420553 305.648455 
L 126.813978 304.792742 
L 127.305759 303.211382 
L 127.994254 300.087329 
L 128.781104 295.314747 
L 129.764668 287.766316 
L 130.944943 276.842566 
L 132.715357 258.053637 
L 135.862759 224.43811 
L 137.141392 213.123387 
L 138.223311 205.405891 
L 139.108518 200.587289 
L 139.797012 197.85262 
L 140.38715 196.243781 
L 140.878932 195.430218 
L 141.272357 195.125482 
L 141.665782 195.126795 
L 142.059208 195.430693 
L 142.452633 196.031904 
L 142.944415 197.190617 
L 143.534553 199.154716 
L 144.321403 202.683653 
L 145.20661 207.769268 
L 146.28853 215.323305 
L 147.763874 227.316988 
L 152.189909 264.52276 
L 153.370185 272.203126 
L 154.353748 277.26892 
L 155.140598 280.330628 
L 155.829093 282.238487 
L 156.419231 283.283074 
L 156.911012 283.732608 
L 157.304437 283.817225 
L 157.697863 283.65972 
L 158.091288 283.263785 
L 158.58307 282.44151 
L 159.173208 280.992246 
L 159.861702 278.700349 
L 160.746909 274.889738 
L 161.828828 269.108964 
L 163.205817 260.422731 
L 168.418702 226.034224 
L 169.500621 220.838027 
L 170.385828 217.502816 
L 171.172679 215.30358 
L 171.861173 214.001782 
L 172.451311 213.359294 
L 172.943093 213.159142 
L 173.336518 213.216962 
L 173.828299 213.55749 
L 174.320081 214.188982 
L 174.910219 215.316396 
L 175.598713 217.112589 
L 176.48392 220.114161 
L 177.56584 224.68499 
L 178.942828 231.57461 
L 184.25407 259.420523 
L 185.335989 263.509292 
L 186.221196 266.119318 
L 187.008047 267.826851 
L 187.696541 268.82382 
L 188.286679 269.301016 
L 188.77846 269.431779 
L 189.270242 269.32209 
L 189.762024 268.97639 
L 190.352161 268.259499 
L 191.040656 267.026615 
L 191.827506 265.133867 
L 192.811069 262.128314 
L 193.991345 257.763212 
L 195.761759 250.226121 
L 199.007518 236.282726 
L 200.28615 231.754399 
L 201.368069 228.674928 
L 202.253276 226.759679 
L 203.040127 225.554447 
L 203.728621 224.899802 
L 204.318759 224.640061 
L 204.810541 224.635507 
L 205.400679 224.880326 
L 205.990817 225.390498 
L 206.679311 226.30556 
L 207.466161 227.743379 
L 208.449725 230.06243 
L 209.63 233.470635 
L 211.302058 239.074071 
L 214.941242 251.490158 
L 216.219874 255.011684 
L 217.301794 257.375034 
L 218.187 258.818924 
L 218.973851 259.702332 
L 219.662345 260.155258 
L 220.252483 260.303345 
L 220.842621 260.231439 
L 221.432759 259.944243 
L 222.121253 259.347352 
L 222.908104 258.340799 
L 223.793311 256.833998 
L 224.87523 254.534518 
L 226.350575 250.797655 
L 231.56346 236.98502 
L 232.743736 234.745472 
L 233.727299 233.337265 
L 234.612506 232.463891 
L 235.399357 232.016129 
L 236.087851 231.88165 
L 236.776345 231.98518 
L 237.464839 232.320105 
L 238.25169 232.97217 
L 239.136897 234.021909 
L 240.218816 235.701135 
L 241.497449 238.129238 
L 243.464575 242.417429 
L 246.316908 248.581632 
L 247.693897 251.034039 
L 248.775816 252.562128 
L 249.75938 253.590896 
L 250.644586 254.197605 
L 251.431437 254.473336 
L 252.218288 254.499619 
L 253.005138 254.281416 
L 253.890345 253.757359 
L 254.775552 252.961274 
L 255.857471 251.665129 
L 257.136104 249.767229 
L 259.004874 246.552843 
L 262.152276 241.128575 
L 263.529265 239.192547 
L 264.70954 237.899271 
L 265.693104 237.126108 
L 266.57831 236.686751 
L 267.463517 236.498265 
L 268.348724 236.560113 
L 269.233931 236.864084 
L 270.217494 237.466767 
L 271.299414 238.415878 
L 272.578046 239.853089 
L 274.34846 242.219188 
L 278.184356 247.463351 
L 279.561345 248.943561 
L 280.741621 249.907875 
L 281.82354 250.505218 
L 282.807104 250.793425 
L 283.790667 250.834437 
L 284.77423 250.633616 
L 285.757793 250.205342 
L 286.839713 249.498713 
L 288.118345 248.399382 
L 289.888759 246.550608 
L 294.314793 241.781559 
L 295.691782 240.675145 
L 296.872057 239.98223 
L 297.953977 239.581828 
L 299.035897 239.417993 
L 300.117816 239.490951 
L 301.199736 239.790081 
L 302.380011 240.349863 
L 303.757 241.259803 
L 305.527414 242.713961 
L 310.051805 246.605268 
L 312.117287 247.843824 
L 313.395919 248.307243 
L 314.576195 248.504316 
L 315.756471 248.476281 
L 316.936747 248.232198 
L 318.215379 247.747993 
L 319.78908 246.89602 
L 321.952919 245.431159 
L 325.69046 242.873545 
L 327.362517 242.017481 
L 328.837862 241.514479 
L 330.21485 241.289469 
L 331.493483 241.299043 
L 332.870471 241.535016 
L 334.345816 242.017496 
L 336.11623 242.838857 
L 339.263632 244.606851 
L 341.820896 245.926172 
L 343.59131 246.590806 
L 345.165011 246.941833 
L 346.640356 247.043122 
L 348.115701 246.924307 
L 349.689402 246.576909 
L 351.558172 245.928711 
L 354.508862 244.625885 
L 357.557908 243.347866 
L 359.525034 242.767891 
L 361.197092 242.498035 
L 362.869149 242.45483 
L 364.541207 242.632256 
L 366.409977 243.054615 
L 368.868885 243.854205 
L 373.885057 245.5362 
L 375.95054 245.953026 
L 377.81931 246.103829 
L 379.68808 246.029607 
L 381.753563 245.712833 
L 384.310827 245.078471 
L 390.11385 243.555369 
L 392.277689 243.258176 
L 394.343172 243.194666 
L 396.507011 243.356455 
L 399.064275 243.788268 
L 407.424563 245.408024 
L 409.785114 245.512666 
L 412.145666 245.393397 
L 414.997999 245.010332 
L 423.161574 243.749212 
L 425.817195 243.664826 
L 428.571172 243.811763 
L 432.111999 244.249425 
L 438.111735 245.00959 
L 441.062425 245.135795 
L 444.013114 245.04073 
L 447.849011 244.673551 
L 454.340528 244.036807 
L 457.684643 243.967391 
L 461.22547 244.129513 
L 473.126585 244.896311 
L 477.060838 244.761027 
L 489.158666 244.155301 
L 493.683056 244.303397 
L 497.912378 244.545486 
L 497.912378 244.545486 
" style="fill:none;stroke:#ff0000;stroke-linecap:square;stroke-width:1.5;"/>
   </g>
   <g id="line2d_26">
    <path clip-path="url(#p5712a70a93)" d="M 92.290909 244.482949 
L 92.389265 244.482949 
L 92.487622 244.482949 
L 92.684334 247.858683 
L 93.766254 273.009743 
L 94.356392 280.955518 
L 95.536668 294.701916 
L 96.323518 304.187926 
L 97.012013 310.063777 
L 97.700507 314.264353 
L 98.389001 317.282676 
L 99.077495 319.45517 
L 99.864346 321.2005 
L 100.651196 322.394016 
L 101.438047 323.208432 
L 102.323254 323.818989 
L 103.405173 324.282363 
L 104.782162 324.608035 
L 106.749288 324.81746 
L 110.19176 324.922919 
L 111.962173 324.876289 
L 112.158886 324.657317 
L 112.453955 323.861903 
L 112.84738 321.728667 
L 113.339162 317.312083 
L 114.027656 308.536505 
L 114.519438 300.538915 
L 115.404645 280.052749 
L 116.093139 269.555725 
L 116.781633 262.525532 
L 117.470127 257.873965 
L 118.158622 254.838401 
L 118.847116 252.881146 
L 119.53561 251.629954 
L 120.224104 250.831295 
L 121.010955 250.255739 
L 122.092874 249.769257 
L 126.125484 248.211869 
L 127.895897 247.145736 
L 130.256449 245.426235 
L 133.69892 242.935884 
L 135.370978 242.009946 
L 136.846323 241.450555 
L 138.124955 241.191634 
L 139.403587 241.151992 
L 140.682219 241.32602 
L 142.059208 241.730414 
L 143.731265 242.468196 
L 145.993461 243.736853 
L 149.829357 245.894854 
L 151.599771 246.61428 
L 153.173472 247.009539 
L 154.648817 247.144691 
L 156.124162 247.049764 
L 157.697863 246.715068 
L 159.468277 246.103775 
L 162.025541 244.956039 
L 165.664725 243.336556 
L 167.533495 242.745483 
L 169.205552 242.438972 
L 170.779254 242.364863 
L 172.451311 242.511452 
L 174.320081 242.916543 
L 176.582276 243.651032 
L 182.483656 245.681653 
L 184.450782 246.052915 
L 186.319552 246.171605 
L 188.188322 246.057875 
L 190.253805 245.695682 
L 192.909426 244.984151 
L 198.023955 243.576178 
L 200.187794 243.236733 
L 202.253276 243.138751 
L 204.318759 243.265202 
L 206.679311 243.640061 
L 210.515207 244.521783 
L 214.056035 245.246031 
L 216.514943 245.514072 
L 218.777138 245.536864 
L 221.236046 245.329299 
L 224.383449 244.815945 
L 230.186472 243.833059 
L 232.842092 243.641286 
L 235.399357 243.680403 
L 238.350046 243.963179 
L 248.284035 245.144276 
L 251.136368 245.123884 
L 254.382127 244.870401 
L 264.021046 243.957294 
L 267.266805 243.986133 
L 271.102701 244.257557 
L 279.069563 244.882042 
L 282.708747 244.888948 
L 286.938069 244.658191 
L 295.298356 244.154622 
L 299.330965 244.182893 
L 304.937276 244.478221 
L 310.051805 244.722355 
L 315.26469 244.717768 
L 322.247988 244.414876 
L 328.051011 244.26565 
L 333.460609 244.365411 
L 344.869942 244.654192 
L 351.558172 244.50734 
L 360.311885 244.345466 
L 367.786965 244.474679 
L 376.934103 244.58931 
L 388.048367 244.41521 
L 396.310298 244.43212 
L 411.555528 244.528951 
L 429.16131 244.462542 
L 444.701608 244.500995 
L 462.209034 244.47932 
L 479.519746 244.478293 
L 498.109091 244.495786 
L 498.109091 244.495786 
" style="fill:none;stroke:#008000;stroke-linecap:square;stroke-width:1.5;"/>
   </g>
   <g id="line2d_27">
    <path clip-path="url(#p5712a70a93)" d="M 92.290909 244.482949 
L 92.585978 244.548664 
L 92.782691 245.214461 
L 93.07776 247.876689 
L 93.569541 255.6961 
L 95.143242 283.061717 
L 95.930093 293.045236 
L 96.618587 299.265418 
L 97.307081 303.496279 
L 97.995576 306.319422 
L 98.68407 308.208499 
L 99.372564 309.48567 
L 100.159415 310.458763 
L 100.946265 311.095966 
L 101.929829 311.597805 
L 103.110104 311.943649 
L 104.782162 312.184419 
L 107.536139 312.321788 
L 111.667104 312.350802 
L 111.863817 312.112498 
L 112.158886 311.278901 
L 112.552311 309.337649 
L 113.044093 305.654833 
L 113.732587 298.510817 
L 114.71615 285.595559 
L 115.896426 269.11621 
L 116.58492 262.979047 
L 117.175058 259.500219 
L 117.765196 257.169715 
L 118.355334 255.629607 
L 118.945472 254.625807 
L 119.633966 253.897374 
L 120.420817 253.415005 
L 121.601093 253.006943 
L 123.568219 252.340671 
L 124.748495 251.688402 
L 125.928771 250.782674 
L 127.305759 249.421388 
L 128.977817 247.430207 
L 133.895633 241.332635 
L 135.272622 240.085502 
L 136.452897 239.312246 
L 137.534817 238.873298 
L 138.51838 238.709054 
L 139.501943 238.768476 
L 140.485507 239.042967 
L 141.567426 239.573428 
L 142.846058 240.466032 
L 144.419759 241.863034 
L 147.567162 245.063228 
L 149.534288 246.885725 
L 151.009633 247.964538 
L 152.288265 248.627751 
L 153.468541 248.984966 
L 154.55046 249.087028 
L 155.63238 248.975284 
L 156.812656 248.623513 
L 158.091288 248.002952 
L 159.664989 246.968702 
L 162.025541 245.096505 
L 164.976231 242.796088 
L 166.648288 241.780274 
L 168.025277 241.195284 
L 169.303909 240.888827 
L 170.582541 240.822166 
L 171.861173 240.990855 
L 173.238162 241.413328 
L 174.811863 242.149697 
L 176.877345 243.390317 
L 181.30338 246.118047 
L 182.975437 246.845326 
L 184.450782 247.248567 
L 185.827771 247.399523 
L 187.204759 247.329858 
L 188.680104 247.026299 
L 190.352161 246.440892 
L 192.516001 245.424063 
L 197.33546 243.07948 
L 199.105874 242.507315 
L 200.679575 242.221504 
L 202.253276 242.164826 
L 203.826977 242.332536 
L 205.597391 242.756304 
L 207.76123 243.520098 
L 213.859322 245.816336 
L 215.728092 246.200789 
L 217.498506 246.334373 
L 219.26892 246.238151 
L 221.13769 245.913122 
L 223.498242 245.262364 
L 229.793046 243.388365 
L 231.858529 243.078888 
L 233.825655 243.013143 
L 235.792782 243.168584 
L 238.054977 243.573751 
L 241.694161 244.492382 
L 245.136632 245.280254 
L 247.497184 245.590578 
L 249.661023 245.652276 
L 251.923219 245.490604 
L 254.677196 245.05086 
L 262.348989 243.674938 
L 264.807897 243.547913 
L 267.266805 243.642779 
L 270.217494 243.994662 
L 278.676138 245.164484 
L 281.430115 245.22089 
L 284.380805 245.04581 
L 288.610126 244.533283 
L 293.429586 244.001968 
L 296.576988 243.889684 
L 299.724391 244.003801 
L 304.150425 244.417721 
L 309.560023 244.885067 
L 313.002494 244.950742 
L 316.740034 244.788211 
L 328.149368 244.106697 
L 332.181977 244.221974 
L 344.869942 244.776456 
L 349.787758 244.605406 
L 358.934896 244.246553 
L 363.951069 244.324618 
L 377.032459 244.663178 
L 384.114114 244.467532 
L 391.490839 244.331876 
L 398.474137 244.457108 
L 407.817988 244.601729 
L 416.670057 244.452776 
L 425.1287 244.39748 
L 447.06216 244.478894 
L 458.274781 244.439687 
L 477.55262 244.489555 
L 492.404424 244.471329 
L 497.912378 244.505372 
L 497.912378 244.505372 
" style="fill:none;stroke:#0000ff;stroke-linecap:square;stroke-width:1.5;"/>
   </g>
   <g id="line2d_28">
    <path clip-path="url(#p5712a70a93)" d="M 92.290909 244.482949 
L 92.585978 244.482949 
L 92.782691 249.746594 
L 93.372829 279.167691 
L 94.061323 307.805138 
L 94.553104 320.408399 
L 95.339955 334.244514 
L 95.635024 335.805645 
L 95.930093 336.29642 
L 96.126806 336.253708 
L 96.421875 335.861092 
L 97.012013 334.550891 
L 98.290645 331.717672 
L 99.175852 330.332693 
L 100.061058 329.371752 
L 100.946265 328.720732 
L 102.028185 328.210425 
L 103.306817 327.860804 
L 105.077231 327.622402 
L 107.929564 327.489722 
L 111.568748 327.452904 
L 111.667104 327.090056 
L 112.650668 302.484932 
L 114.224369 262.187567 
L 115.011219 247.491091 
L 115.306288 245.815546 
L 115.404645 245.727721 
L 115.601357 246.016866 
L 115.896426 247.162214 
L 117.765196 255.868307 
L 118.552047 258.073726 
L 119.240541 259.41842 
L 119.929035 260.329661 
L 120.61753 260.871397 
L 121.207668 261.070164 
L 121.797805 261.039498 
L 122.387943 260.790385 
L 123.076438 260.23693 
L 123.863288 259.278498 
L 124.748495 257.820236 
L 125.830415 255.564088 
L 127.207403 252.108223 
L 129.469599 245.68901 
L 131.731794 239.469123 
L 133.108782 236.294358 
L 134.190702 234.302877 
L 135.174265 232.949171 
L 135.961116 232.207376 
L 136.64961 231.817206 
L 137.338104 231.671447 
L 138.026599 231.767975 
L 138.715093 232.100187 
L 139.501943 232.754333 
L 140.38715 233.812773 
L 141.370713 235.340405 
L 142.649346 237.768986 
L 144.518116 241.87685 
L 147.567162 248.602769 
L 148.94415 251.105441 
L 150.02607 252.668119 
L 151.009633 253.723238 
L 151.89484 254.348765 
L 152.68169 254.636934 
L 153.468541 254.671391 
L 154.255392 254.456994 
L 155.042242 254.004552 
L 155.927449 253.231584 
L 157.009369 251.951589 
L 158.288001 250.055248 
L 160.058414 246.988988 
L 163.500886 240.955863 
L 164.877874 239.009657 
L 166.05815 237.718712 
L 167.041713 236.954958 
L 167.92692 236.529414 
L 168.812127 236.359229 
L 169.598978 236.421528 
L 170.484185 236.724086 
L 171.369391 237.257651 
L 172.451311 238.190573 
L 173.729943 239.622588 
L 175.402001 241.865701 
L 179.631322 247.72065 
L 181.008311 249.181429 
L 182.188587 250.115633 
L 183.17215 250.637587 
L 184.155713 250.911709 
L 185.04092 250.943465 
L 186.024483 250.745152 
L 187.008047 250.315085 
L 188.089966 249.601754 
L 189.368598 248.488739 
L 191.139012 246.612733 
L 195.565046 241.75826 
L 196.942035 240.62801 
L 198.122311 239.918113 
L 199.20423 239.505686 
L 200.28615 239.333683 
L 201.368069 239.402579 
L 202.449989 239.701818 
L 203.630265 240.26631 
L 205.007253 241.187242 
L 206.777667 242.66257 
L 211.597127 246.836782 
L 213.072472 247.743682 
L 214.351104 248.27832 
L 215.53138 248.540584 
L 216.711656 248.573584 
L 217.891931 248.383205 
L 219.170564 247.945823 
L 220.645908 247.18999 
L 222.514679 245.961245 
L 227.530851 242.521335 
L 229.104552 241.78545 
L 230.481541 241.37882 
L 231.760173 241.219906 
L 233.038805 241.274373 
L 234.415793 241.558544 
L 235.989495 242.130988 
L 237.858265 243.063591 
L 243.956357 246.312097 
L 245.530058 246.807198 
L 247.005403 247.049734 
L 248.480747 247.065722 
L 249.956092 246.863255 
L 251.62815 246.403422 
L 253.693632 245.587766 
L 259.791724 243.00849 
L 261.562138 242.585872 
L 263.234196 242.415726 
L 264.906253 242.476406 
L 266.676667 242.772514 
L 268.74215 243.355317 
L 272.578046 244.738157 
L 275.233667 245.573316 
L 277.29915 245.988255 
L 279.16792 246.13247 
L 281.03669 246.048166 
L 283.102172 245.718048 
L 285.659437 245.067305 
L 291.364103 243.544338 
L 293.527943 243.239611 
L 295.593425 243.172412 
L 297.757264 243.334444 
L 300.216172 243.751101 
L 308.871529 245.439243 
L 310.051805 245.513171 
L 313.10085 245.437431 
L 315.756471 245.104195 
L 325.198678 243.688186 
L 327.755942 243.666112 
L 330.509919 243.86727 
L 334.542529 244.417517 
L 339.165276 245.000007 
L 342.115965 245.145147 
L 345.066655 245.064448 
L 348.705839 244.725176 
L 355.787494 244.019951 
L 359.033253 243.959797 
L 362.57408 244.129093 
L 374.278482 244.903845 
L 378.114379 244.77864 
L 390.802344 244.153561 
L 395.425091 244.325802 
L 404.965655 244.747875 
L 409.686758 244.669832 
L 423.161574 244.283047 
L 429.849804 244.49061 
L 437.128172 244.652408 
L 443.422976 244.543164 
L 453.75039 244.349702 
L 461.717252 244.495197 
L 470.274252 244.58541 
L 495.945252 244.526124 
L 498.010735 244.544089 
L 498.010735 244.544089 
" style="fill:none;stroke:#000000;stroke-linecap:square;stroke-width:1.5;"/>
   </g>
   <g id="patch_3">
    <path d="M 72 384.48 
L 72 51.84 
" style="fill:none;stroke:#000000;stroke-linecap:square;stroke-linejoin:miter;stroke-width:0.8;"/>
   </g>
   <g id="patch_4">
    <path d="M 518.4 384.48 
L 518.4 51.84 
" style="fill:none;stroke:#000000;stroke-linecap:square;stroke-linejoin:miter;stroke-width:0.8;"/>
   </g>
   <g id="patch_5">
    <path d="M 72 384.48 
L 518.4 384.48 
" style="fill:none;stroke:#000000;stroke-linecap:square;stroke-linejoin:miter;stroke-width:0.8;"/>
   </g>
   <g id="patch_6">
    <path d="M 72 51.84 
L 518.4 51.84 
" style="fill:none;stroke:#000000;stroke-linecap:square;stroke-linejoin:miter;stroke-width:0.8;"/>
   </g>
   <g id="legend_1">
    <g id="patch_7">
     <path d="M 446.187419 149.615841 
L 511.4 149.615841 
Q 513.4 149.615841 513.4 147.615841 
L 513.4 58.84 
Q 513.4 56.84 511.4 56.84 
L 446.187419 56.84 
Q 444.187419 56.84 444.187419 58.84 
L 444.187419 147.615841 
Q 444.187419 149.615841 446.187419 149.615841 
z
" style="fill:#ffffff;opacity:0.8;stroke:#cccccc;stroke-linejoin:miter;"/>
    </g>
    <g id="line2d_29">
     <path d="M 448.187419 65.365462 
L 468.187419 65.365462 
" style="fill:none;stroke:#bf00bf;stroke-linecap:square;stroke-width:1.5;"/>
    </g>
    <g id="line2d_30"/>
    <g id="text_14">
     <!-- $\partial \mathcal{L}/ \partial u_{1}$ -->
     <g transform="translate(476.187419 68.865462)scale(0.1 -0.1)">
      <use transform="translate(0 14.943915)scale(0.996264)" xlink:href="#CMMI12-64"/>
      <use transform="translate(56.915564 14.943915)scale(0.996264)" xlink:href="#CMSY10-76"/>
      <use transform="translate(125.630372 14.943915)scale(0.996264)" xlink:href="#CMMI12-61"/>
      <use transform="translate(174.405291 14.943915)scale(0.996264)" xlink:href="#CMMI12-64"/>
      <use transform="translate(231.320856 14.943915)scale(0.996264)" xlink:href="#CMMI12-117"/>
      <use transform="translate(286.841185 0)scale(0.697382)" xlink:href="#CMR17-49"/>
     </g>
    </g>
    <g id="line2d_31">
     <path d="M 448.187419 80.328102 
L 468.187419 80.328102 
" style="fill:none;stroke:#00bfbf;stroke-linecap:square;stroke-width:1.5;"/>
    </g>
    <g id="line2d_32"/>
    <g id="text_15">
     <!-- $\partial \mathcal{L}/ \partial u_{2}$ -->
     <g transform="translate(476.187419 83.828102)scale(0.1 -0.1)">
      <use transform="translate(0 14.943915)scale(0.996264)" xlink:href="#CMMI12-64"/>
      <use transform="translate(56.915564 14.943915)scale(0.996264)" xlink:href="#CMSY10-76"/>
      <use transform="translate(125.630372 14.943915)scale(0.996264)" xlink:href="#CMMI12-61"/>
      <use transform="translate(174.405291 14.943915)scale(0.996264)" xlink:href="#CMMI12-64"/>
      <use transform="translate(231.320856 14.943915)scale(0.996264)" xlink:href="#CMMI12-117"/>
      <use transform="translate(286.841185 0)scale(0.697382)" xlink:href="#CMR17-50"/>
     </g>
    </g>
    <g id="line2d_33">
     <path d="M 448.187419 95.290742 
L 468.187419 95.290742 
" style="fill:none;stroke:#ff0000;stroke-linecap:square;stroke-width:1.5;"/>
    </g>
    <g id="line2d_34"/>
    <g id="text_16">
     <!-- $\partial \mathcal{L}/ \partial u_{3}$ -->
     <g transform="translate(476.187419 98.790742)scale(0.1 -0.1)">
      <use transform="translate(0 14.943915)scale(0.996264)" xlink:href="#CMMI12-64"/>
      <use transform="translate(56.915564 14.943915)scale(0.996264)" xlink:href="#CMSY10-76"/>
      <use transform="translate(125.630372 14.943915)scale(0.996264)" xlink:href="#CMMI12-61"/>
      <use transform="translate(174.405291 14.943915)scale(0.996264)" xlink:href="#CMMI12-64"/>
      <use transform="translate(231.320856 14.943915)scale(0.996264)" xlink:href="#CMMI12-117"/>
      <use transform="translate(286.841185 0)scale(0.697382)" xlink:href="#CMR17-51"/>
     </g>
    </g>
    <g id="line2d_35">
     <path d="M 448.187419 110.253382 
L 468.187419 110.253382 
" style="fill:none;stroke:#008000;stroke-linecap:square;stroke-width:1.5;"/>
    </g>
    <g id="line2d_36"/>
    <g id="text_17">
     <!-- $\partial \mathcal{L}/ \partial u_{4}$ -->
     <g transform="translate(476.187419 113.753382)scale(0.1 -0.1)">
      <use transform="translate(0 14.943915)scale(0.996264)" xlink:href="#CMMI12-64"/>
      <use transform="translate(56.915564 14.943915)scale(0.996264)" xlink:href="#CMSY10-76"/>
      <use transform="translate(125.630372 14.943915)scale(0.996264)" xlink:href="#CMMI12-61"/>
      <use transform="translate(174.405291 14.943915)scale(0.996264)" xlink:href="#CMMI12-64"/>
      <use transform="translate(231.320856 14.943915)scale(0.996264)" xlink:href="#CMMI12-117"/>
      <use transform="translate(286.841185 0)scale(0.697382)" xlink:href="#CMR17-52"/>
     </g>
    </g>
    <g id="line2d_37">
     <path d="M 448.187419 125.216022 
L 468.187419 125.216022 
" style="fill:none;stroke:#0000ff;stroke-linecap:square;stroke-width:1.5;"/>
    </g>
    <g id="line2d_38"/>
    <g id="text_18">
     <!-- $\partial \mathcal{L}/ \partial u_{5}$ -->
     <defs>
      <path d="M 11.40625 57.6875 
C 12.40625 57.28125 16.5 56 20.703125 56 
C 30 56 35.09375 61.109375 38 64.0625 
C 38 64.953125 38 65.5 37.40625 65.5 
C 37.296875 65.5 37.09375 65.5 36.296875 65.046875 
C 32.796875 63.40625 28.703125 62.078125 23.703125 62.078125 
C 20.703125 62.078125 16.203125 62.484375 11.296875 64.671875 
C 10.203125 65.171875 10 65.171875 9.90625 65.171875 
C 9.40625 65.171875 9.296875 65.0625 9.296875 63.078125 
L 9.296875 34.421875 
C 9.296875 32.640625 9.296875 32.140625 10.296875 32.140625 
C 10.796875 32.140625 11 32.34375 11.5 33.03125 
C 14.703125 37.515625 19.09375 39.40625 24.09375 39.40625 
C 27.59375 39.40625 35.09375 37.21875 35.09375 20.140625 
C 35.09375 16.953125 35.09375 11.171875 32.09375 6.578125 
C 29.59375 2.484375 25.703125 0.390625 21.40625 0.390625 
C 14.796875 0.390625 8.09375 5 6.296875 12.71875 
C 6.703125 12.609375 7.5 12.421875 7.90625 12.421875 
C 9.203125 12.421875 11.703125 13.125 11.703125 16.21875 
C 11.703125 18.90625 9.796875 20 7.90625 20 
C 5.59375 20 4.09375 18.59375 4.09375 15.796875 
C 4.09375 7.09375 11 -2 21.59375 -2 
C 31.90625 -2 41.703125 6.875 41.703125 19.75 
C 41.703125 31.71875 33.90625 41 24.203125 41 
C 19.09375 41 14.796875 39.109375 11.40625 35.53125 
z
" id="CMR17-53"/>
     </defs>
     <g transform="translate(476.187419 128.716022)scale(0.1 -0.1)">
      <use transform="translate(0 14.943915)scale(0.996264)" xlink:href="#CMMI12-64"/>
      <use transform="translate(56.915564 14.943915)scale(0.996264)" xlink:href="#CMSY10-76"/>
      <use transform="translate(125.630372 14.943915)scale(0.996264)" xlink:href="#CMMI12-61"/>
      <use transform="translate(174.405291 14.943915)scale(0.996264)" xlink:href="#CMMI12-64"/>
      <use transform="translate(231.320856 14.943915)scale(0.996264)" xlink:href="#CMMI12-117"/>
      <use transform="translate(286.841185 0)scale(0.697382)" xlink:href="#CMR17-53"/>
     </g>
    </g>
    <g id="line2d_39">
     <path d="M 448.187419 140.178662 
L 468.187419 140.178662 
" style="fill:none;stroke:#000000;stroke-linecap:square;stroke-width:1.5;"/>
    </g>
    <g id="line2d_40"/>
    <g id="text_19">
     <!-- $\partial \mathcal{L}/ \partial u_{6}$ -->
     <g transform="translate(476.187419 143.678662)scale(0.1 -0.1)">
      <use transform="translate(0 14.943915)scale(0.996264)" xlink:href="#CMMI12-64"/>
      <use transform="translate(56.915564 14.943915)scale(0.996264)" xlink:href="#CMSY10-76"/>
      <use transform="translate(125.630372 14.943915)scale(0.996264)" xlink:href="#CMMI12-61"/>
      <use transform="translate(174.405291 14.943915)scale(0.996264)" xlink:href="#CMMI12-64"/>
      <use transform="translate(231.320856 14.943915)scale(0.996264)" xlink:href="#CMMI12-117"/>
      <use transform="translate(286.841185 0)scale(0.697382)" xlink:href="#CMR17-54"/>
     </g>
    </g>
   </g>
  </g>
 </g>
 <defs>
  <clipPath id="p5712a70a93">
   <rect height="332.64" width="446.4" x="72" y="51.84"/>
  </clipPath>
 </defs>
</svg>
