<?xml version="1.0" encoding="utf-8" standalone="no"?>
<!DOCTYPE svg PUBLIC "-//W3C//DTD SVG 1.1//EN"
  "http://www.w3.org/Graphics/SVG/1.1/DTD/svg11.dtd">
<!-- Created with matplotlib (http://matplotlib.org/) -->
<svg height="432pt" version="1.1" viewBox="0 0 576 432" width="576pt" xmlns="http://www.w3.org/2000/svg" xmlns:xlink="http://www.w3.org/1999/xlink">
 <defs>
  <style type="text/css">
*{stroke-linecap:butt;stroke-linejoin:round;}
  </style>
 </defs>
 <g id="figure_1">
  <g id="patch_1">
   <path d="M 0 432 
L 576 432 
L 576 0 
L 0 0 
z
" style="fill:#ffffff;"/>
  </g>
  <g id="axes_1">
   <g id="patch_2">
    <path d="M 72 384.48 
L 518.4 384.48 
L 518.4 51.84 
L 72 51.84 
z
" style="fill:#ffffff;"/>
   </g>
   <g id="matplotlib.axis_1">
    <g id="xtick_1">
     <g id="line2d_1">
      <path clip-path="url(#pd12203a353)" d="M 92.290909 384.48 
L 92.290909 51.84 
" style="fill:none;stroke:#b0b0b0;stroke-dasharray:5.12,1.28,0.8,1.28;stroke-dashoffset:0;stroke-width:0.8;"/>
     </g>
     <g id="line2d_2">
      <defs>
       <path d="M 0 0 
L 0 3.5 
" id="m79509bc1da" style="stroke:#000000;stroke-width:0.8;"/>
      </defs>
      <g>
       <use style="stroke:#000000;stroke-width:0.8;" x="92.290909" xlink:href="#m79509bc1da" y="384.48"/>
      </g>
     </g>
     <g id="text_1">
      <!-- $0$ -->
      <defs>
       <path d="M 42 31.640625 
C 42 37.75 41.90625 48.125 37.703125 56.109375 
C 34 63.109375 28.09375 65.59375 22.90625 65.59375 
C 18.09375 65.59375 12 63.40625 8.203125 56.203125 
C 4.203125 48.71875 3.796875 39.4375 3.796875 31.640625 
C 3.796875 25.953125 3.90625 17.28125 7 9.671875 
C 11.296875 -0.609375 19 -2 22.90625 -2 
C 27.5 -2 34.5 -0.109375 38.59375 9.375 
C 41.59375 16.28125 42 24.359375 42 31.640625 
z
M 22.90625 -0.40625 
C 16.5 -0.40625 12.703125 5.078125 11.296875 12.6875 
C 10.203125 18.5625 10.203125 27.15625 10.203125 32.75 
C 10.203125 40.4375 10.203125 46.828125 11.5 52.921875 
C 13.40625 61.390625 19 64 22.90625 64 
C 27 64 32.296875 61.296875 34.203125 53.125 
C 35.5 47.4375 35.59375 40.734375 35.59375 32.75 
C 35.59375 26.25 35.59375 18.265625 34.40625 12.375 
C 32.296875 1.484375 26.40625 -0.40625 22.90625 -0.40625 
z
" id="CMR17-48"/>
      </defs>
      <g transform="translate(89.800241 398.398498)scale(0.1 -0.1)">
       <use transform="scale(0.996264)" xlink:href="#CMR17-48"/>
      </g>
     </g>
    </g>
    <g id="xtick_2">
     <g id="line2d_3">
      <path clip-path="url(#pd12203a353)" d="M 168.716179 384.48 
L 168.716179 51.84 
" style="fill:none;stroke:#b0b0b0;stroke-dasharray:5.12,1.28,0.8,1.28;stroke-dashoffset:0;stroke-width:0.8;"/>
     </g>
     <g id="line2d_4">
      <g>
       <use style="stroke:#000000;stroke-width:0.8;" x="168.716179" xlink:href="#m79509bc1da" y="384.48"/>
      </g>
     </g>
     <g id="text_2">
      <!-- $500$ -->
      <defs>
       <path d="M 11.40625 57.6875 
C 12.40625 57.28125 16.5 56 20.703125 56 
C 30 56 35.09375 61.109375 38 64.0625 
C 38 64.953125 38 65.5 37.40625 65.5 
C 37.296875 65.5 37.09375 65.5 36.296875 65.046875 
C 32.796875 63.40625 28.703125 62.078125 23.703125 62.078125 
C 20.703125 62.078125 16.203125 62.484375 11.296875 64.671875 
C 10.203125 65.171875 10 65.171875 9.90625 65.171875 
C 9.40625 65.171875 9.296875 65.0625 9.296875 63.078125 
L 9.296875 34.421875 
C 9.296875 32.640625 9.296875 32.140625 10.296875 32.140625 
C 10.796875 32.140625 11 32.34375 11.5 33.03125 
C 14.703125 37.515625 19.09375 39.40625 24.09375 39.40625 
C 27.59375 39.40625 35.09375 37.21875 35.09375 20.140625 
C 35.09375 16.953125 35.09375 11.171875 32.09375 6.578125 
C 29.59375 2.484375 25.703125 0.390625 21.40625 0.390625 
C 14.796875 0.390625 8.09375 5 6.296875 12.71875 
C 6.703125 12.609375 7.5 12.421875 7.90625 12.421875 
C 9.203125 12.421875 11.703125 13.125 11.703125 16.21875 
C 11.703125 18.90625 9.796875 20 7.90625 20 
C 5.59375 20 4.09375 18.59375 4.09375 15.796875 
C 4.09375 7.09375 11 -2 21.59375 -2 
C 31.90625 -2 41.703125 6.875 41.703125 19.75 
C 41.703125 31.71875 33.90625 41 24.203125 41 
C 19.09375 41 14.796875 39.109375 11.40625 35.53125 
z
" id="CMR17-53"/>
      </defs>
      <g transform="translate(161.244176 398.398498)scale(0.1 -0.1)">
       <use transform="scale(0.996264)" xlink:href="#CMR17-53"/>
       <use transform="translate(45.690477 0)scale(0.996264)" xlink:href="#CMR17-48"/>
       <use transform="translate(91.380954 0)scale(0.996264)" xlink:href="#CMR17-48"/>
      </g>
     </g>
    </g>
    <g id="xtick_3">
     <g id="line2d_5">
      <path clip-path="url(#pd12203a353)" d="M 245.141448 384.48 
L 245.141448 51.84 
" style="fill:none;stroke:#b0b0b0;stroke-dasharray:5.12,1.28,0.8,1.28;stroke-dashoffset:0;stroke-width:0.8;"/>
     </g>
     <g id="line2d_6">
      <g>
       <use style="stroke:#000000;stroke-width:0.8;" x="245.141448" xlink:href="#m79509bc1da" y="384.48"/>
      </g>
     </g>
     <g id="text_3">
      <!-- $1000$ -->
      <defs>
       <path d="M 26.59375 63.40625 
C 26.59375 65.5 26.5 65.5 25.09375 65.5 
C 21.203125 61.1875 15.296875 59.796875 9.703125 59.796875 
C 9.40625 59.796875 8.90625 59.796875 8.796875 59.5 
C 8.703125 59.296875 8.703125 59.09375 8.703125 57 
C 11.796875 57 17 57.59375 21 59.984375 
L 21 7.203125 
C 21 3.6875 20.796875 2.5 12.203125 2.5 
L 9.203125 2.5 
L 9.203125 0 
C 14 0 19 0 23.796875 0 
C 28.59375 0 33.59375 0 38.40625 0 
L 38.40625 2.5 
L 35.40625 2.5 
C 26.796875 2.5 26.59375 3.59375 26.59375 7.15625 
z
" id="CMR17-49"/>
      </defs>
      <g transform="translate(235.178778 398.398498)scale(0.1 -0.1)">
       <use transform="scale(0.996264)" xlink:href="#CMR17-49"/>
       <use transform="translate(45.690477 0)scale(0.996264)" xlink:href="#CMR17-48"/>
       <use transform="translate(91.380954 0)scale(0.996264)" xlink:href="#CMR17-48"/>
       <use transform="translate(137.071431 0)scale(0.996264)" xlink:href="#CMR17-48"/>
      </g>
     </g>
    </g>
    <g id="xtick_4">
     <g id="line2d_7">
      <path clip-path="url(#pd12203a353)" d="M 321.566718 384.48 
L 321.566718 51.84 
" style="fill:none;stroke:#b0b0b0;stroke-dasharray:5.12,1.28,0.8,1.28;stroke-dashoffset:0;stroke-width:0.8;"/>
     </g>
     <g id="line2d_8">
      <g>
       <use style="stroke:#000000;stroke-width:0.8;" x="321.566718" xlink:href="#m79509bc1da" y="384.48"/>
      </g>
     </g>
     <g id="text_4">
      <!-- $1500$ -->
      <g transform="translate(311.604048 398.398498)scale(0.1 -0.1)">
       <use transform="scale(0.996264)" xlink:href="#CMR17-49"/>
       <use transform="translate(45.690477 0)scale(0.996264)" xlink:href="#CMR17-53"/>
       <use transform="translate(91.380954 0)scale(0.996264)" xlink:href="#CMR17-48"/>
       <use transform="translate(137.071431 0)scale(0.996264)" xlink:href="#CMR17-48"/>
      </g>
     </g>
    </g>
    <g id="xtick_5">
     <g id="line2d_9">
      <path clip-path="url(#pd12203a353)" d="M 397.991988 384.48 
L 397.991988 51.84 
" style="fill:none;stroke:#b0b0b0;stroke-dasharray:5.12,1.28,0.8,1.28;stroke-dashoffset:0;stroke-width:0.8;"/>
     </g>
     <g id="line2d_10">
      <g>
       <use style="stroke:#000000;stroke-width:0.8;" x="397.991988" xlink:href="#m79509bc1da" y="384.48"/>
      </g>
     </g>
     <g id="text_5">
      <!-- $2000$ -->
      <defs>
       <path d="M 41.703125 15.453125 
L 39.90625 15.453125 
C 38.90625 8.375 38.09375 7.171875 37.703125 6.5625 
C 37.203125 5.765625 30 5.765625 28.59375 5.765625 
L 9.40625 5.765625 
C 13 9.671875 20 16.75 28.5 24.953125 
C 34.59375 30.734375 41.703125 37.53125 41.703125 47.421875 
C 41.703125 59.21875 32.296875 66 21.796875 66 
C 10.796875 66 4.09375 56.3125 4.09375 47.34375 
C 4.09375 43.4375 7 42.9375 8.203125 42.9375 
C 9.203125 42.9375 12.203125 43.546875 12.203125 47.03125 
C 12.203125 50.109375 9.59375 51 8.203125 51 
C 7.59375 51 7 50.90625 6.59375 50.703125 
C 8.5 59.21875 14.296875 63.40625 20.40625 63.40625 
C 29.09375 63.40625 34.796875 56.515625 34.796875 47.421875 
C 34.796875 38.734375 29.703125 31.25 24 24.75 
L 4.09375 2.28125 
L 4.09375 0 
L 39.296875 0 
z
" id="CMR17-50"/>
      </defs>
      <g transform="translate(388.029317 398.398498)scale(0.1 -0.1)">
       <use transform="scale(0.996264)" xlink:href="#CMR17-50"/>
       <use transform="translate(45.690477 0)scale(0.996264)" xlink:href="#CMR17-48"/>
       <use transform="translate(91.380954 0)scale(0.996264)" xlink:href="#CMR17-48"/>
       <use transform="translate(137.071431 0)scale(0.996264)" xlink:href="#CMR17-48"/>
      </g>
     </g>
    </g>
    <g id="xtick_6">
     <g id="line2d_11">
      <path clip-path="url(#pd12203a353)" d="M 474.417257 384.48 
L 474.417257 51.84 
" style="fill:none;stroke:#b0b0b0;stroke-dasharray:5.12,1.28,0.8,1.28;stroke-dashoffset:0;stroke-width:0.8;"/>
     </g>
     <g id="line2d_12">
      <g>
       <use style="stroke:#000000;stroke-width:0.8;" x="474.417257" xlink:href="#m79509bc1da" y="384.48"/>
      </g>
     </g>
     <g id="text_6">
      <!-- $2500$ -->
      <g transform="translate(464.454587 398.398498)scale(0.1 -0.1)">
       <use transform="scale(0.996264)" xlink:href="#CMR17-50"/>
       <use transform="translate(45.690477 0)scale(0.996264)" xlink:href="#CMR17-53"/>
       <use transform="translate(91.380954 0)scale(0.996264)" xlink:href="#CMR17-48"/>
       <use transform="translate(137.071431 0)scale(0.996264)" xlink:href="#CMR17-48"/>
      </g>
     </g>
    </g>
    <g id="text_7">
     <!-- Iteration -->
     <defs>
      <path d="M 17.09375 69 
L 8.703125 69 
L 8.703125 0 
L 17.09375 0 
z
" id="CMSS17-73"/>
      <path d="M 16.703125 37 
L 29.703125 37 
L 29.703125 42.765625 
L 16.703125 42.765625 
L 16.703125 55 
L 9.59375 55 
L 9.59375 42.765625 
L 1.703125 42.765625 
L 1.703125 37 
L 9.40625 37 
L 9.40625 11.703125 
C 9.40625 6 10.703125 -1 17.296875 -1 
C 22.296875 -1 26.90625 0.390625 31.296875 2.6875 
L 29.703125 8.5625 
C 27.296875 6.46875 24.40625 5.265625 21.296875 5.265625 
C 16.90625 5.265625 16.703125 10.875 16.703125 13.375 
z
" id="CMSS17-116"/>
      <path d="M 39.09375 21.515625 
C 39.09375 24.84375 38.90625 31.296875 35.703125 36.640625 
C 32.203125 42.390625 26.5 44 22.203125 44 
C 11.796875 44 3 34.1875 3 21.484375 
C 3 9.09375 12.09375 -1 23.59375 -1 
C 28.09375 -1 33.59375 0.296875 38.59375 3.875 
C 38.59375 4.28125 38.40625 6.46875 38.296875 6.5625 
C 38.296875 6.765625 38 9.84375 38 10.25 
C 33.203125 6.359375 27.703125 5.078125 23.703125 5.078125 
C 17.296875 5.078125 10.40625 10.421875 10.09375 21.515625 
z
M 10.90625 27 
C 12.203125 32.5625 16.59375 37.828125 22.203125 37.828125 
C 23.703125 37.828125 30.703125 37.828125 32.5 27 
z
" id="CMSS17-101"/>
      <path d="M 14.90625 21.296875 
C 14.90625 30.703125 21.796875 37 30.59375 37 
L 30.59375 43.578125 
C 24.203125 43.578125 18.203125 40.390625 14.59375 35.203125 
L 14.59375 43.09375 
L 7.5 43.09375 
L 7.5 0 
L 14.90625 0 
z
" id="CMSS17-114"/>
      <path d="M 37.59375 27.984375 
C 37.59375 37.375 30.90625 43.875 21.90625 43.875 
C 17.5 43.875 12.703125 43.078125 7.203125 39.890625 
L 7.796875 33.359375 
C 10.296875 35.125 14.59375 38 21.796875 38 
C 26.90625 38 30 34.0625 30 27.84375 
L 30 24 
C 14 24 4 19.34375 4 11.34375 
C 4 7.203125 6.5 -1 14.796875 -1 
C 16.296875 -1 24.40625 -1 30.203125 3.390625 
L 30.203125 -0.296875 
L 37.59375 -0.296875 
z
M 30 12.75 
C 30 10.953125 30 8.5625 27 6.78125 
C 24.40625 5.078125 21.09375 5.078125 19.703125 5.078125 
C 14.703125 5.078125 11.296875 7.984375 11.296875 11.625 
C 11.296875 18.921875 26.90625 18.921875 30 18.921875 
z
" id="CMSS17-97"/>
      <path d="M 15.296875 65.359375 
L 6.90625 65.359375 
L 6.90625 57 
L 15.296875 57 
z
M 14.796875 42.796875 
L 7.40625 42.796875 
L 7.40625 0 
L 14.796875 0 
z
" id="CMSS17-105"/>
      <path d="M 44.203125 21.1875 
C 44.203125 34 34.703125 44 23.5 44 
C 12 44 2.703125 33.703125 2.703125 21.1875 
C 2.703125 8.5 12.296875 -1 23.40625 -1 
C 34.796875 -1 44.203125 8.796875 44.203125 21.1875 
z
M 23.5 5.265625 
C 16.40625 5.265625 10.296875 11.078125 10.296875 22 
C 10.296875 33.609375 17.40625 37.921875 23.40625 37.921875 
C 29.90625 37.921875 36.59375 33.21875 36.59375 22 
C 36.59375 10.671875 30.09375 5.265625 23.5 5.265625 
z
" id="CMSS17-111"/>
      <path d="M 40.90625 29.328125 
C 40.90625 35.671875 39.40625 44 28.09375 44 
C 21.703125 44 17.5 40.71875 14.703125 37.328125 
L 14.703125 43.09375 
L 7.40625 43.09375 
L 7.40625 0 
L 15 0 
L 15 24.359375 
C 15 30.6875 17.40625 37.9375 24.203125 37.9375 
C 33 37.9375 33.296875 32 33.296875 28.578125 
L 33.296875 0 
L 40.90625 0 
z
" id="CMSS17-110"/>
     </defs>
     <g transform="translate(271.264003 414.021553)scale(0.14 -0.14)">
      <use transform="scale(0.996264)" xlink:href="#CMSS17-73"/>
      <use transform="translate(25.783926 0)scale(0.996264)" xlink:href="#CMSS17-116"/>
      <use transform="translate(59.615492 0)scale(0.996264)" xlink:href="#CMSS17-101"/>
      <use transform="translate(101.254314 0)scale(0.996264)" xlink:href="#CMSS17-114"/>
      <use transform="translate(133.164087 0)scale(0.996264)" xlink:href="#CMSS17-97"/>
      <use transform="translate(178.086007 0)scale(0.996264)" xlink:href="#CMSS17-116"/>
      <use transform="translate(211.917574 0)scale(0.996264)" xlink:href="#CMSS17-105"/>
      <use transform="translate(234.098297 0)scale(0.996264)" xlink:href="#CMSS17-111"/>
      <use transform="translate(280.941921 0)scale(0.996264)" xlink:href="#CMSS17-110"/>
     </g>
    </g>
   </g>
   <g id="matplotlib.axis_2">
    <g id="ytick_1">
     <g id="line2d_13">
      <path clip-path="url(#pd12203a353)" d="M 72 369.36 
L 518.4 369.36 
" style="fill:none;stroke:#b0b0b0;stroke-dasharray:5.12,1.28,0.8,1.28;stroke-dashoffset:0;stroke-width:0.8;"/>
     </g>
     <g id="line2d_14">
      <defs>
       <path d="M 0 0 
L -3.5 0 
" id="mbe20d137b4" style="stroke:#000000;stroke-width:0.8;"/>
      </defs>
      <g>
       <use style="stroke:#000000;stroke-width:0.8;" x="72" xlink:href="#mbe20d137b4" y="369.36"/>
      </g>
     </g>
     <g id="text_8">
      <!-- $0$ -->
      <g transform="translate(60.018665 372.819249)scale(0.1 -0.1)">
       <use transform="scale(0.996264)" xlink:href="#CMR17-48"/>
      </g>
     </g>
    </g>
    <g id="ytick_2">
     <g id="line2d_15">
      <path clip-path="url(#pd12203a353)" d="M 72 302.087495 
L 518.4 302.087495 
" style="fill:none;stroke:#b0b0b0;stroke-dasharray:5.12,1.28,0.8,1.28;stroke-dashoffset:0;stroke-width:0.8;"/>
     </g>
     <g id="line2d_16">
      <g>
       <use style="stroke:#000000;stroke-width:0.8;" x="72" xlink:href="#mbe20d137b4" y="302.087495"/>
      </g>
     </g>
     <g id="text_9">
      <!-- $2$ -->
      <g transform="translate(60.018665 305.546744)scale(0.1 -0.1)">
       <use transform="scale(0.996264)" xlink:href="#CMR17-50"/>
      </g>
     </g>
    </g>
    <g id="ytick_3">
     <g id="line2d_17">
      <path clip-path="url(#pd12203a353)" d="M 72 234.81499 
L 518.4 234.81499 
" style="fill:none;stroke:#b0b0b0;stroke-dasharray:5.12,1.28,0.8,1.28;stroke-dashoffset:0;stroke-width:0.8;"/>
     </g>
     <g id="line2d_18">
      <g>
       <use style="stroke:#000000;stroke-width:0.8;" x="72" xlink:href="#mbe20d137b4" y="234.81499"/>
      </g>
     </g>
     <g id="text_10">
      <!-- $4$ -->
      <defs>
       <path d="M 33.59375 64.40625 
C 33.59375 66.5 33.5 66.5 31.703125 66.5 
L 2 19.59375 
L 2 17 
L 27.796875 17 
L 27.796875 7.140625 
C 27.796875 3.5 27.59375 2.5 20.59375 2.5 
L 18.703125 2.5 
L 18.703125 0 
C 21.90625 0 27.296875 0 30.703125 0 
C 34.09375 0 39.5 0 42.703125 0 
L 42.703125 2.5 
L 40.796875 2.5 
C 33.796875 2.5 33.59375 3.5 33.59375 7.140625 
L 33.59375 17 
L 43.796875 17 
L 43.796875 19.59375 
L 33.59375 19.59375 
z
M 28.09375 57.859375 
L 28.09375 19.59375 
L 4 19.59375 
z
" id="CMR17-52"/>
      </defs>
      <g transform="translate(60.018665 238.27424)scale(0.1 -0.1)">
       <use transform="scale(0.996264)" xlink:href="#CMR17-52"/>
      </g>
     </g>
    </g>
    <g id="ytick_4">
     <g id="line2d_19">
      <path clip-path="url(#pd12203a353)" d="M 72 167.542486 
L 518.4 167.542486 
" style="fill:none;stroke:#b0b0b0;stroke-dasharray:5.12,1.28,0.8,1.28;stroke-dashoffset:0;stroke-width:0.8;"/>
     </g>
     <g id="line2d_20">
      <g>
       <use style="stroke:#000000;stroke-width:0.8;" x="72" xlink:href="#mbe20d137b4" y="167.542486"/>
      </g>
     </g>
     <g id="text_11">
      <!-- $6$ -->
      <defs>
       <path d="M 10.59375 34 
C 10.59375 57.65625 21.796875 63 28.296875 63 
C 30.40625 63 35.5 62.640625 37.5 59 
C 35.90625 59 32.90625 59 32.90625 55.515625 
C 32.90625 52.828125 35.09375 51.921875 36.5 51.921875 
C 37.40625 51.921875 40.09375 52.3125 40.09375 55.625 
C 40.09375 61.78125 35.09375 65.296875 28.203125 65.296875 
C 16.296875 65.296875 3.796875 52.96875 3.796875 31 
C 3.796875 3.953125 15.09375 -2 23.09375 -2 
C 32.796875 -2 42 6.671875 42 20.046875 
C 42 32.515625 33.90625 41.59375 23.703125 41.59375 
C 17.59375 41.59375 13.09375 37.609375 10.59375 30.625 
z
M 23.09375 0.390625 
C 10.796875 0.390625 10.796875 18.75 10.796875 22.4375 
C 10.796875 29.625 14.203125 40 23.5 40 
C 25.203125 40 30.09375 40 33.40625 33.125 
C 35.203125 29.21875 35.203125 25.140625 35.203125 20.140625 
C 35.203125 14.75 35.203125 10.78125 33.09375 6.78125 
C 30.90625 2.671875 27.703125 0.390625 23.09375 0.390625 
z
" id="CMR17-54"/>
      </defs>
      <g transform="translate(60.018665 171.001735)scale(0.1 -0.1)">
       <use transform="scale(0.996264)" xlink:href="#CMR17-54"/>
      </g>
     </g>
    </g>
    <g id="ytick_5">
     <g id="line2d_21">
      <path clip-path="url(#pd12203a353)" d="M 72 100.269981 
L 518.4 100.269981 
" style="fill:none;stroke:#b0b0b0;stroke-dasharray:5.12,1.28,0.8,1.28;stroke-dashoffset:0;stroke-width:0.8;"/>
     </g>
     <g id="line2d_22">
      <g>
       <use style="stroke:#000000;stroke-width:0.8;" x="72" xlink:href="#mbe20d137b4" y="100.269981"/>
      </g>
     </g>
     <g id="text_12">
      <!-- $8$ -->
      <defs>
       <path d="M 27.203125 35.375 
C 33.5 38.546875 39.90625 43.328125 39.90625 50.984375 
C 39.90625 60.015625 31.09375 65.296875 23 65.296875 
C 13.90625 65.296875 5.90625 58.734375 5.90625 49.6875 
C 5.90625 47.203125 6.5 42.921875 10.40625 39.140625 
C 11.40625 38.15625 15.59375 35.171875 18.296875 33.28125 
C 13.796875 30.984375 3.296875 25.53125 3.296875 14.59375 
C 3.296875 4.359375 13.09375 -2 22.796875 -2 
C 33.5 -2 42.5 5.65625 42.5 15.78125 
C 42.5 24.84375 36.40625 29.015625 32.40625 31.703125 
z
M 14.09375 44.09375 
C 13.296875 44.59375 9.296875 47.671875 9.296875 52.359375 
C 9.296875 58.421875 15.59375 63 22.796875 63 
C 30.703125 63 36.5 57.4375 36.5 50.96875 
C 36.5 41.703125 26.09375 36.421875 25.59375 36.421875 
C 25.5 36.421875 25.40625 36.421875 24.59375 37.03125 
z
M 32.5 23.734375 
C 34 22.640625 38.796875 19.375 38.796875 13.296875 
C 38.796875 5.953125 31.40625 0.390625 23 0.390625 
C 13.90625 0.390625 7 6.84375 7 14.6875 
C 7 22.546875 13.09375 29.09375 20 32.1875 
z
" id="CMR17-56"/>
      </defs>
      <g transform="translate(60.018665 103.72923)scale(0.1 -0.1)">
       <use transform="scale(0.996264)" xlink:href="#CMR17-56"/>
      </g>
     </g>
    </g>
    <g id="text_13">
     <!-- $\mu^{\underline{P}}_{m}$ -->
     <defs>
      <path d="M 14.40625 2.1875 
C 16.90625 -0.09375 20.59375 -1 24 -1 
C 30.40625 -1 34.796875 3.25 37.09375 6.328125 
C 38.09375 1.078125 42.296875 -1 45.796875 -1 
C 48.796875 -1 51.203125 0.78125 53 4.328125 
C 54.59375 7.703125 56 13.734375 56 14.109375 
C 56 14.609375 55.59375 15 55 15 
C 54.09375 15 54 14.5 53.59375 13.03125 
C 52.09375 7.203125 50.203125 1 46.09375 1 
C 43.203125 1 43 3.578125 43 5.59375 
C 43 7.875 43.90625 11.484375 44.59375 14.46875 
L 47.40625 25.234375 
C 47.796875 27.140625 48.90625 31.609375 49.40625 33.421875 
C 50 35.8125 51.09375 40.109375 51.09375 40.5 
C 51.09375 42 49.90625 43 48.40625 43 
C 47.5 43 45.40625 42.59375 44.59375 39.609375 
L 37.59375 11.875 
C 37.09375 9.875 37.09375 9.671875 35.796875 8.078125 
C 34.59375 6.390625 30.703125 1 24.40625 1 
C 18.796875 1 17 5.09375 17 9.765625 
C 17 12.671875 17.90625 16.15625 18.296875 17.859375 
L 22.796875 35.828125 
C 23.296875 37.71875 24.09375 40.90625 24.09375 41.515625 
C 24.09375 43.109375 22.796875 44 21.5 44 
C 20.59375 44 18.40625 43.703125 17.59375 40.5 
L 3.09375 -17.296875 
C 3 -17.796875 2.796875 -18.390625 2.796875 -19 
C 2.796875 -20.5 4 -21.5 5.5 -21.5 
C 8.40625 -21.5 9 -19.1875 9.703125 -16.40625 
z
" id="CMMI12-22"/>
      <path d="M 29.59375 31.609375 
L 46.40625 31.609375 
C 60.203125 31.609375 74 41.765625 74 53.140625 
C 74 60.90625 67.40625 68 54.796875 68 
L 23.90625 68 
C 22 68 21.09375 68 21.09375 66.109375 
C 21.09375 65.109375 22 65.109375 23.5 65.109375 
C 29.59375 65.109375 29.59375 64.3125 29.59375 63.21875 
C 29.59375 63.03125 29.59375 62.421875 29.203125 60.921875 
L 15.703125 7.375 
C 14.796875 3.890625 14.59375 2.890625 7.59375 2.890625 
C 5.703125 2.890625 4.703125 2.890625 4.703125 1.09375 
C 4.703125 0 5.59375 0 6.203125 0 
C 8.09375 0 10.09375 0 12 0 
L 23.703125 0 
C 25.59375 0 27.703125 0 29.59375 0 
C 30.40625 0 31.5 0 31.5 1.890625 
C 31.5 2.890625 30.59375 2.890625 29.09375 2.890625 
C 23.09375 2.890625 23 3.59375 23 4.578125 
C 23 5.078125 23.09375 5.765625 23.203125 6.265625 
z
M 36.796875 61.40625 
C 37.703125 65.109375 38.09375 65.109375 42 65.109375 
L 51.90625 65.109375 
C 59.40625 65.109375 65.59375 62.703125 65.59375 55.234375 
C 65.59375 52.640625 64.296875 44.171875 59.703125 39.59375 
C 58 37.796875 53.203125 34 44.09375 34 
L 30 34 
z
" id="CMMI12-80"/>
      <path d="M 20.59375 29.234375 
C 20.796875 29.84375 23.296875 34.828125 27 38.015625 
C 29.59375 40.40625 33 42.015625 36.90625 42.015625 
C 40.90625 42.015625 42.296875 39.015625 42.296875 35.03125 
C 42.296875 34.421875 42.296875 32.4375 41.09375 27.734375 
L 38.59375 17.46875 
C 37.796875 14.46875 35.90625 7.078125 35.703125 5.984375 
C 35.296875 4.484375 34.703125 1.890625 34.703125 1.5 
C 34.703125 0.09375 35.796875 -1 37.296875 -1 
C 40.296875 -1 40.796875 1.296875 41.703125 4.890625 
L 47.703125 28.734375 
C 47.90625 29.53125 53.09375 42.015625 64.09375 42.015625 
C 68.09375 42.015625 69.5 39.015625 69.5 35.03125 
C 69.5 29.4375 65.59375 18.5625 63.40625 12.578125 
C 62.5 10.171875 62 8.875 62 7.078125 
C 62 2.59375 65.09375 -1 69.90625 -1 
C 79.203125 -1 82.703125 13.671875 82.703125 14.265625 
C 82.703125 14.765625 82.296875 15.171875 81.703125 15.171875 
C 80.796875 15.171875 80.703125 14.875 80.203125 13.171875 
C 77.90625 5.1875 74.203125 1 70.203125 1 
C 69.203125 1 67.59375 1 67.59375 4.203125 
C 67.59375 6.8125 68.796875 10 69.203125 11.09375 
C 71 15.90625 75.5 27.703125 75.5 33.515625 
C 75.5 39.5 72 44 64.40625 44 
C 57.703125 44 52.296875 40.21875 48.296875 34.328125 
C 48 39.71875 44.703125 44 37.203125 44 
C 28.296875 44 23.59375 37.734375 21.796875 35.234375 
C 21.5 40.90625 17.40625 44 13 44 
C 10.09375 44 7.796875 42.609375 5.90625 38.8125 
C 4.09375 35.21875 2.703125 29.140625 2.703125 28.734375 
C 2.703125 28.34375 3.09375 27.84375 3.796875 27.84375 
C 4.59375 27.84375 4.703125 27.9375 5.296875 30.234375 
C 6.796875 36.125 8.703125 42.015625 12.703125 42.015625 
C 15 42.015625 15.796875 40.40625 15.796875 37.421875 
C 15.796875 35.21875 14.796875 31.328125 14.09375 28.234375 
L 11.296875 17.46875 
C 10.90625 15.5625 9.796875 11.078125 9.296875 9.28125 
C 8.59375 6.6875 7.5 2 7.5 1.5 
C 7.5 0.09375 8.59375 -1 10.09375 -1 
C 11.296875 -1 12.703125 -0.40625 13.5 1.09375 
C 13.703125 1.59375 14.59375 5.09375 15.09375 7.078125 
L 17.296875 16.0625 
z
" id="CMMI12-109"/>
     </defs>
     <g transform="translate(53.306636 226.688618)rotate(-90)scale(0.14 -0.14)">
      <use transform="translate(0 24.62935)scale(0.996264)" xlink:href="#CMMI12-22"/>
      <use transform="translate(58.691421 60.782989)scale(0.697382)" xlink:href="#CMMI12-80"/>
      <use transform="translate(58.691421 0)scale(0.697382)" xlink:href="#CMMI12-109"/>
      <path d="M 58.691421 49.625185 
L 112.687377 49.625185 
L 112.687377 52.414636 
L 58.691421 52.414636 
L 58.691421 49.625185 
z
"/>
     </g>
    </g>
   </g>
   <g id="line2d_23">
    <path clip-path="url(#pd12203a353)" d="M 92.290909 369.36 
L 92.44376 282.410288 
L 92.59661 238.935431 
L 92.902311 206.46972 
L 93.208012 199.09329 
L 93.360863 198.336475 
L 93.513713 198.370111 
L 93.819414 199.554107 
L 94.430817 203.476094 
L 94.736518 205.716268 
L 101.461941 256.392646 
L 105.130354 280.778929 
L 112.620031 328.845134 
L 119.039753 369.36 
L 498.109091 369.36 
L 498.109091 369.36 
" style="fill:none;stroke:#bf00bf;stroke-linecap:square;stroke-width:1.5;"/>
   </g>
   <g id="line2d_24">
    <path clip-path="url(#pd12203a353)" d="M 92.290909 369.36 
L 120.87396 369.306182 
L 121.332512 368.865547 
L 121.943914 367.822823 
L 122.708166 365.925739 
L 123.77812 362.52175 
L 126.070878 354.099232 
L 127.905085 347.839526 
L 129.127889 344.378355 
L 130.197843 341.933 
L 131.267797 340.04937 
L 132.1849 338.868737 
L 133.102003 338.058104 
L 134.019106 337.580469 
L 134.93621 337.392106 
L 135.853313 337.44256 
L 136.923267 337.741923 
L 138.298921 338.387739 
L 140.59168 339.770189 
L 143.342989 341.347729 
L 145.177196 342.131454 
L 146.858552 342.609088 
L 148.387057 342.851269 
L 150.526965 342.928633 
L 152.819723 342.770542 
L 155.571032 342.424089 
L 160.156549 341.828727 
L 164.130663 341.502456 
L 168.410478 341.330911 
L 185.682589 340.839822 
L 202.648998 340.204096 
L 210.750077 339.914825 
L 225.576579 339.373281 
L 233.371957 339.090736 
L 248.045609 338.55592 
L 255.840986 338.273376 
L 270.514638 337.738559 
L 278.462866 337.452651 
L 293.289368 336.911107 
L 298.027735 336.870744 
L 298.486287 337.311379 
L 299.097689 338.310375 
L 300.014792 340.348732 
L 301.543297 344.445628 
L 308.421572 363.645201 
L 310.408629 368.243276 
L 311.020031 369.36 
L 325.235131 369.262455 
L 326.610786 368.949638 
L 328.139291 368.371094 
L 329.667797 367.584006 
L 331.654854 366.292374 
L 333.947612 364.499562 
L 336.698921 362.054206 
L 343.271495 355.6835 
L 347.245609 351.980148 
L 349.996918 349.645792 
L 352.595378 347.671344 
L 355.346687 345.85835 
L 357.486595 344.654173 
L 360.237904 343.379359 
L 362.989214 342.407271 
L 365.281972 341.815273 
L 367.727581 341.384729 
L 370.478891 341.12573 
L 373.841602 341.08873 
L 377.968567 341.378002 
L 380.872727 341.73791 
L 388.515254 343.026178 
L 394.323575 344.065538 
L 399.979045 344.950172 
L 406.551618 345.706987 
L 412.359938 346.107259 
L 418.932512 346.288894 
L 428.714946 346.181258 
L 437.885978 345.888623 
L 468.914638 345.316807 
L 491.842219 345.427806 
L 497.95624 345.461443 
L 497.95624 345.461443 
" style="fill:none;stroke:#00bfbf;stroke-linecap:square;stroke-width:1.5;"/>
   </g>
   <g id="line2d_25">
    <path clip-path="url(#pd12203a353)" d="M 92.290909 369.36 
L 92.44376 215.978689 
L 92.59661 139.288034 
L 92.902311 81.978587 
L 93.208012 68.729267 
L 93.360863 67.181999 
L 93.513713 66.96 
L 93.666564 67.430908 
L 94.125116 70.411079 
L 94.889368 76.344514 
L 107.117411 163.348045 
L 121.02681 262.73308 
L 121.943914 267.088975 
L 122.708166 269.598239 
L 123.319569 270.893235 
L 123.77812 271.471778 
L 124.236672 271.747596 
L 124.695223 271.737505 
L 125.153775 271.478506 
L 125.765177 270.792326 
L 126.52943 269.483876 
L 127.599384 267.041884 
L 129.28074 262.470717 
L 131.420647 256.745827 
L 132.643451 254.021291 
L 133.713405 252.120842 
L 134.630508 250.883028 
L 135.547612 250.015213 
L 136.311864 249.571214 
L 137.076117 249.366033 
L 137.84037 249.379488 
L 138.604622 249.59476 
L 139.521726 250.082485 
L 140.59168 250.920028 
L 141.814484 252.144388 
L 143.64869 254.320653 
L 149.457011 261.434721 
L 151.596918 263.600895 
L 153.889676 265.588798 
L 156.488136 267.519519 
L 161.226502 270.620781 
L 166.881972 274.357769 
L 171.467488 277.617122 
L 184.306934 287.075636 
L 190.879507 291.855347 
L 297.263482 369.20191 
L 297.569183 369.36 
L 497.95624 369.36 
L 497.95624 369.36 
" style="fill:none;stroke:#ff0000;stroke-linecap:square;stroke-width:1.5;"/>
   </g>
   <g id="line2d_26">
    <path clip-path="url(#pd12203a353)" d="M 92.290909 369.36 
L 128.057935 369.286 
L 128.975039 368.926092 
L 130.044992 368.236549 
L 131.726348 366.810372 
L 134.783359 364.119472 
L 136.464715 362.992657 
L 137.84037 362.353569 
L 139.063174 362.017206 
L 140.438829 361.882661 
L 141.814484 361.976843 
L 143.49584 362.343478 
L 145.482897 363.019566 
L 149.762712 364.83256 
L 153.736826 366.379828 
L 157.86379 367.63446 
L 162.907858 368.852093 
L 165.353467 369.36 
L 333.183359 369.252364 
L 336.851772 368.899183 
L 340.214484 368.421549 
L 345.869954 367.43937 
L 358.709399 365.290013 
L 364.51772 364.630743 
L 370.32604 364.227108 
L 377.051464 364.038745 
L 386.833898 364.149745 
L 397.991988 364.506289 
L 406.245917 364.758561 
L 422.142373 364.997378 
L 452.253929 364.886378 
L 458.673652 364.856106 
L 497.95624 364.846015 
L 497.95624 364.846015 
" style="fill:none;stroke:#008000;stroke-linecap:square;stroke-width:1.5;"/>
   </g>
   <g id="line2d_27">
    <path clip-path="url(#pd12203a353)" d="M 92.290909 369.36 
L 128.363636 369.272546 
L 129.28074 368.936183 
L 130.350693 368.313913 
L 132.032049 367.039099 
L 135.241911 364.492834 
L 136.923267 363.460201 
L 138.451772 362.797567 
L 139.827427 362.441023 
L 141.203082 362.293023 
L 142.884438 362.353569 
L 144.718644 362.652931 
L 147.469954 363.359293 
L 152.20832 364.704743 
L 156.640986 365.666739 
L 161.073652 366.336101 
L 182.778428 369.312909 
L 183.695532 369.36 
L 331.960555 369.252364 
L 334.864715 368.885729 
L 338.685978 368.102004 
L 343.118644 366.921372 
L 356.569492 363.184384 
L 360.237904 362.404023 
L 363.906317 361.781752 
L 369.561787 361.142664 
L 373.535901 360.903846 
L 378.121418 360.813028 
L 384.235439 360.924028 
L 418.779661 362.33675 
L 447.209861 362.225751 
L 455.616641 362.151751 
L 498.109091 362.124842 
L 498.109091 362.124842 
" style="fill:none;stroke:#0000ff;stroke-linecap:square;stroke-width:1.5;"/>
   </g>
   <g id="line2d_28">
    <path clip-path="url(#pd12203a353)" d="M 92.290909 369.36 
L 124.848074 369.289364 
L 125.765177 368.919365 
L 126.835131 368.202913 
L 128.363636 366.857463 
L 132.1849 363.288656 
L 133.866256 362.094569 
L 135.394761 361.310845 
L 136.923267 360.819756 
L 138.298921 360.597756 
L 139.827427 360.560756 
L 141.508783 360.698665 
L 144.412943 361.193118 
L 149.609861 362.114751 
L 153.278274 362.491477 
L 157.558089 362.663022 
L 178.804314 363.241566 
L 194.70077 363.8302 
L 202.648998 364.116108 
L 217.475501 364.657652 
L 225.270878 364.940196 
L 239.94453 365.475013 
L 247.892758 365.760921 
L 262.71926 366.302465 
L 270.514638 366.585009 
L 285.18829 367.119826 
L 292.983667 367.40237 
L 299.097689 367.748824 
L 300.014792 368.115459 
L 301.084746 368.801638 
L 302.001849 369.36 
L 329.209245 369.252364 
L 331.654854 368.875638 
L 334.100462 368.280276 
L 337.310324 367.247643 
L 341.131587 365.784466 
L 354.276733 360.688574 
L 357.792296 359.642487 
L 361.613559 358.741035 
L 365.587673 358.064946 
L 369.714638 357.631039 
L 374.453005 357.425858 
L 378.427119 357.446039 
L 383.776888 357.674766 
L 412.359938 359.45076 
L 417.556857 359.568487 
L 440.178737 359.457487 
L 452.712481 359.29267 
L 497.95624 359.25567 
L 497.95624 359.25567 
" style="fill:none;stroke:#000000;stroke-linecap:square;stroke-width:1.5;"/>
   </g>
   <g id="patch_3">
    <path d="M 72 384.48 
L 72 51.84 
" style="fill:none;stroke:#000000;stroke-linecap:square;stroke-linejoin:miter;stroke-width:0.8;"/>
   </g>
   <g id="patch_4">
    <path d="M 518.4 384.48 
L 518.4 51.84 
" style="fill:none;stroke:#000000;stroke-linecap:square;stroke-linejoin:miter;stroke-width:0.8;"/>
   </g>
   <g id="patch_5">
    <path d="M 72 384.48 
L 518.4 384.48 
" style="fill:none;stroke:#000000;stroke-linecap:square;stroke-linejoin:miter;stroke-width:0.8;"/>
   </g>
   <g id="patch_6">
    <path d="M 72 51.84 
L 518.4 51.84 
" style="fill:none;stroke:#000000;stroke-linecap:square;stroke-linejoin:miter;stroke-width:0.8;"/>
   </g>
   <g id="legend_1">
    <g id="patch_7">
     <path d="M 466.75423 163.330098 
L 511.4 163.330098 
Q 513.4 163.330098 513.4 161.330098 
L 513.4 58.84 
Q 513.4 56.84 511.4 56.84 
L 466.75423 56.84 
Q 464.75423 56.84 464.75423 58.84 
L 464.75423 161.330098 
Q 464.75423 163.330098 466.75423 163.330098 
z
" style="fill:#ffffff;opacity:0.8;stroke:#cccccc;stroke-linejoin:miter;"/>
    </g>
    <g id="line2d_29">
     <path d="M 468.75423 67.651171 
L 488.75423 67.651171 
" style="fill:none;stroke:#bf00bf;stroke-linecap:square;stroke-width:1.5;"/>
    </g>
    <g id="line2d_30"/>
    <g id="text_14">
     <!-- $\mu^{\underline{P}}_{1}$ -->
     <g transform="translate(496.75423 71.151171)scale(0.1 -0.1)">
      <use transform="translate(0 26.578082)scale(0.996264)" xlink:href="#CMMI12-22"/>
      <use transform="translate(58.691421 74.841065)scale(0.697382)" xlink:href="#CMMI12-80"/>
      <use transform="translate(58.691421 0)scale(0.697382)" xlink:href="#CMR17-49"/>
      <path d="M 58.691421 63.683261 
L 112.687377 63.683261 
L 112.687377 66.472712 
L 58.691421 66.472712 
L 58.691421 63.683261 
z
"/>
     </g>
    </g>
    <g id="line2d_31">
     <path d="M 468.75423 84.899521 
L 488.75423 84.899521 
" style="fill:none;stroke:#00bfbf;stroke-linecap:square;stroke-width:1.5;"/>
    </g>
    <g id="line2d_32"/>
    <g id="text_15">
     <!-- $\mu^{\underline{P}}_{2}$ -->
     <g transform="translate(496.75423 88.399521)scale(0.1 -0.1)">
      <use transform="translate(0 26.578082)scale(0.996264)" xlink:href="#CMMI12-22"/>
      <use transform="translate(58.691421 74.841065)scale(0.697382)" xlink:href="#CMMI12-80"/>
      <use transform="translate(58.691421 0)scale(0.697382)" xlink:href="#CMR17-50"/>
      <path d="M 58.691421 63.683261 
L 112.687377 63.683261 
L 112.687377 66.472712 
L 58.691421 66.472712 
L 58.691421 63.683261 
z
"/>
     </g>
    </g>
    <g id="line2d_33">
     <path d="M 468.75423 102.147871 
L 488.75423 102.147871 
" style="fill:none;stroke:#ff0000;stroke-linecap:square;stroke-width:1.5;"/>
    </g>
    <g id="line2d_34"/>
    <g id="text_16">
     <!-- $\mu^{\underline{P}}_{3}$ -->
     <defs>
      <path d="M 22.09375 33.703125 
C 31 33.703125 34.90625 25.96875 34.90625 17.03125 
C 34.90625 5 28.5 0.390625 22.703125 0.390625 
C 17.40625 0.390625 8.796875 3.03125 6.09375 10.828125 
C 6.59375 10.625 7.09375 10.625 7.59375 10.625 
C 10 10.625 11.796875 12.21875 11.796875 14.8125 
C 11.796875 17.703125 9.59375 19 7.59375 19 
C 5.90625 19 3.296875 18.203125 3.296875 14.46875 
C 3.296875 5.234375 12.296875 -2 22.90625 -2 
C 34 -2 42.5 6.71875 42.5 16.953125 
C 42.5 26.671875 34.5 33.703125 25 34.796875 
C 32.59375 36.375 39.90625 43.0625 39.90625 52.015625 
C 39.90625 59.6875 32 65.296875 23 65.296875 
C 13.90625 65.296875 5.90625 59.828125 5.90625 52.015625 
C 5.90625 48.59375 8.5 48 9.796875 48 
C 11.90625 48 13.703125 49.296875 13.703125 51.890625 
C 13.703125 54.46875 11.90625 55.765625 9.796875 55.765625 
C 9.40625 55.765625 8.90625 55.765625 8.5 55.578125 
C 11.40625 61.859375 19.296875 63 22.796875 63 
C 26.296875 63 32.90625 61.328125 32.90625 51.875 
C 32.90625 49.109375 32.5 44.1875 29.09375 39.84375 
C 26.09375 36 22.703125 36 19.40625 35.6875 
C 18.90625 35.6875 16.59375 35.453125 16.203125 35.453125 
C 15.5 35.359375 15.09375 35.265625 15.09375 34.5 
C 15.09375 33.796875 15.203125 33.703125 17.203125 33.703125 
z
" id="CMR17-51"/>
     </defs>
     <g transform="translate(496.75423 105.647871)scale(0.1 -0.1)">
      <use transform="translate(0 26.578082)scale(0.996264)" xlink:href="#CMMI12-22"/>
      <use transform="translate(58.691421 74.841065)scale(0.697382)" xlink:href="#CMMI12-80"/>
      <use transform="translate(58.691421 0)scale(0.697382)" xlink:href="#CMR17-51"/>
      <path d="M 58.691421 63.683261 
L 112.687377 63.683261 
L 112.687377 66.472712 
L 58.691421 66.472712 
L 58.691421 63.683261 
z
"/>
     </g>
    </g>
    <g id="line2d_35">
     <path d="M 468.75423 119.39622 
L 488.75423 119.39622 
" style="fill:none;stroke:#008000;stroke-linecap:square;stroke-width:1.5;"/>
    </g>
    <g id="line2d_36"/>
    <g id="text_17">
     <!-- $\mu^{\underline{P}}_{4}$ -->
     <g transform="translate(496.75423 122.89622)scale(0.1 -0.1)">
      <use transform="translate(0 26.578082)scale(0.996264)" xlink:href="#CMMI12-22"/>
      <use transform="translate(58.691421 74.841065)scale(0.697382)" xlink:href="#CMMI12-80"/>
      <use transform="translate(58.691421 0)scale(0.697382)" xlink:href="#CMR17-52"/>
      <path d="M 58.691421 63.683261 
L 112.687377 63.683261 
L 112.687377 66.472712 
L 58.691421 66.472712 
L 58.691421 63.683261 
z
"/>
     </g>
    </g>
    <g id="line2d_37">
     <path d="M 468.75423 136.64457 
L 488.75423 136.64457 
" style="fill:none;stroke:#0000ff;stroke-linecap:square;stroke-width:1.5;"/>
    </g>
    <g id="line2d_38"/>
    <g id="text_18">
     <!-- $\mu^{\underline{P}}_{5}$ -->
     <g transform="translate(496.75423 140.14457)scale(0.1 -0.1)">
      <use transform="translate(0 26.578082)scale(0.996264)" xlink:href="#CMMI12-22"/>
      <use transform="translate(58.691421 74.841065)scale(0.697382)" xlink:href="#CMMI12-80"/>
      <use transform="translate(58.691421 0)scale(0.697382)" xlink:href="#CMR17-53"/>
      <path d="M 58.691421 63.683261 
L 112.687377 63.683261 
L 112.687377 66.472712 
L 58.691421 66.472712 
L 58.691421 63.683261 
z
"/>
     </g>
    </g>
    <g id="line2d_39">
     <path d="M 468.75423 153.89292 
L 488.75423 153.89292 
" style="fill:none;stroke:#000000;stroke-linecap:square;stroke-width:1.5;"/>
    </g>
    <g id="line2d_40"/>
    <g id="text_19">
     <!-- $\mu^{\underline{P}}_{6}$ -->
     <g transform="translate(496.75423 157.39292)scale(0.1 -0.1)">
      <use transform="translate(0 26.578082)scale(0.996264)" xlink:href="#CMMI12-22"/>
      <use transform="translate(58.691421 74.841065)scale(0.697382)" xlink:href="#CMMI12-80"/>
      <use transform="translate(58.691421 0)scale(0.697382)" xlink:href="#CMR17-54"/>
      <path d="M 58.691421 63.683261 
L 112.687377 63.683261 
L 112.687377 66.472712 
L 58.691421 66.472712 
L 58.691421 63.683261 
z
"/>
     </g>
    </g>
   </g>
  </g>
 </g>
 <defs>
  <clipPath id="pd12203a353">
   <rect height="332.64" width="446.4" x="72" y="51.84"/>
  </clipPath>
 </defs>
</svg>
