<?xml version="1.0" encoding="utf-8" standalone="no"?>
<!DOCTYPE svg PUBLIC "-//W3C//DTD SVG 1.1//EN"
  "http://www.w3.org/Graphics/SVG/1.1/DTD/svg11.dtd">
<!-- Created with matplotlib (http://matplotlib.org/) -->
<svg height="432pt" version="1.1" viewBox="0 0 576 432" width="576pt" xmlns="http://www.w3.org/2000/svg" xmlns:xlink="http://www.w3.org/1999/xlink">
 <defs>
  <style type="text/css">
*{stroke-linecap:butt;stroke-linejoin:round;}
  </style>
 </defs>
 <g id="figure_1">
  <g id="patch_1">
   <path d="M 0 432 
L 576 432 
L 576 0 
L 0 0 
z
" style="fill:#ffffff;"/>
  </g>
  <g id="axes_1">
   <g id="patch_2">
    <path d="M 72 384.48 
L 518.4 384.48 
L 518.4 51.84 
L 72 51.84 
z
" style="fill:#ffffff;"/>
   </g>
   <g id="matplotlib.axis_1">
    <g id="xtick_1">
     <g id="line2d_1">
      <path clip-path="url(#pddefd9976e)" d="M 92.290909 384.48 
L 92.290909 51.84 
" style="fill:none;stroke:#b0b0b0;stroke-dasharray:5.12,1.28,0.8,1.28;stroke-dashoffset:0;stroke-width:0.8;"/>
     </g>
     <g id="line2d_2">
      <defs>
       <path d="M 0 0 
L 0 3.5 
" id="m65f53ac76f" style="stroke:#000000;stroke-width:0.8;"/>
      </defs>
      <g>
       <use style="stroke:#000000;stroke-width:0.8;" x="92.290909" xlink:href="#m65f53ac76f" y="384.48"/>
      </g>
     </g>
     <g id="text_1">
      <!-- $0$ -->
      <defs>
       <path d="M 42 31.640625 
C 42 37.75 41.90625 48.125 37.703125 56.109375 
C 34 63.109375 28.09375 65.59375 22.90625 65.59375 
C 18.09375 65.59375 12 63.40625 8.203125 56.203125 
C 4.203125 48.71875 3.796875 39.4375 3.796875 31.640625 
C 3.796875 25.953125 3.90625 17.28125 7 9.671875 
C 11.296875 -0.609375 19 -2 22.90625 -2 
C 27.5 -2 34.5 -0.109375 38.59375 9.375 
C 41.59375 16.28125 42 24.359375 42 31.640625 
z
M 22.90625 -0.40625 
C 16.5 -0.40625 12.703125 5.078125 11.296875 12.6875 
C 10.203125 18.5625 10.203125 27.15625 10.203125 32.75 
C 10.203125 40.4375 10.203125 46.828125 11.5 52.921875 
C 13.40625 61.390625 19 64 22.90625 64 
C 27 64 32.296875 61.296875 34.203125 53.125 
C 35.5 47.4375 35.59375 40.734375 35.59375 32.75 
C 35.59375 26.25 35.59375 18.265625 34.40625 12.375 
C 32.296875 1.484375 26.40625 -0.40625 22.90625 -0.40625 
z
" id="CMR17-48"/>
      </defs>
      <g transform="translate(89.800241 398.398498)scale(0.1 -0.1)">
       <use transform="scale(0.996264)" xlink:href="#CMR17-48"/>
      </g>
     </g>
    </g>
    <g id="xtick_2">
     <g id="line2d_3">
      <path clip-path="url(#pddefd9976e)" d="M 190.64723 384.48 
L 190.64723 51.84 
" style="fill:none;stroke:#b0b0b0;stroke-dasharray:5.12,1.28,0.8,1.28;stroke-dashoffset:0;stroke-width:0.8;"/>
     </g>
     <g id="line2d_4">
      <g>
       <use style="stroke:#000000;stroke-width:0.8;" x="190.64723" xlink:href="#m65f53ac76f" y="384.48"/>
      </g>
     </g>
     <g id="text_2">
      <!-- $1000$ -->
      <defs>
       <path d="M 26.59375 63.40625 
C 26.59375 65.5 26.5 65.5 25.09375 65.5 
C 21.203125 61.1875 15.296875 59.796875 9.703125 59.796875 
C 9.40625 59.796875 8.90625 59.796875 8.796875 59.5 
C 8.703125 59.296875 8.703125 59.09375 8.703125 57 
C 11.796875 57 17 57.59375 21 59.984375 
L 21 7.203125 
C 21 3.6875 20.796875 2.5 12.203125 2.5 
L 9.203125 2.5 
L 9.203125 0 
C 14 0 19 0 23.796875 0 
C 28.59375 0 33.59375 0 38.40625 0 
L 38.40625 2.5 
L 35.40625 2.5 
C 26.796875 2.5 26.59375 3.59375 26.59375 7.15625 
z
" id="CMR17-49"/>
      </defs>
      <g transform="translate(180.68456 398.398498)scale(0.1 -0.1)">
       <use transform="scale(0.996264)" xlink:href="#CMR17-49"/>
       <use transform="translate(45.690477 0)scale(0.996264)" xlink:href="#CMR17-48"/>
       <use transform="translate(91.380954 0)scale(0.996264)" xlink:href="#CMR17-48"/>
       <use transform="translate(137.071431 0)scale(0.996264)" xlink:href="#CMR17-48"/>
      </g>
     </g>
    </g>
    <g id="xtick_3">
     <g id="line2d_5">
      <path clip-path="url(#pddefd9976e)" d="M 289.003552 384.48 
L 289.003552 51.84 
" style="fill:none;stroke:#b0b0b0;stroke-dasharray:5.12,1.28,0.8,1.28;stroke-dashoffset:0;stroke-width:0.8;"/>
     </g>
     <g id="line2d_6">
      <g>
       <use style="stroke:#000000;stroke-width:0.8;" x="289.003552" xlink:href="#m65f53ac76f" y="384.48"/>
      </g>
     </g>
     <g id="text_3">
      <!-- $2000$ -->
      <defs>
       <path d="M 41.703125 15.453125 
L 39.90625 15.453125 
C 38.90625 8.375 38.09375 7.171875 37.703125 6.5625 
C 37.203125 5.765625 30 5.765625 28.59375 5.765625 
L 9.40625 5.765625 
C 13 9.671875 20 16.75 28.5 24.953125 
C 34.59375 30.734375 41.703125 37.53125 41.703125 47.421875 
C 41.703125 59.21875 32.296875 66 21.796875 66 
C 10.796875 66 4.09375 56.3125 4.09375 47.34375 
C 4.09375 43.4375 7 42.9375 8.203125 42.9375 
C 9.203125 42.9375 12.203125 43.546875 12.203125 47.03125 
C 12.203125 50.109375 9.59375 51 8.203125 51 
C 7.59375 51 7 50.90625 6.59375 50.703125 
C 8.5 59.21875 14.296875 63.40625 20.40625 63.40625 
C 29.09375 63.40625 34.796875 56.515625 34.796875 47.421875 
C 34.796875 38.734375 29.703125 31.25 24 24.75 
L 4.09375 2.28125 
L 4.09375 0 
L 39.296875 0 
z
" id="CMR17-50"/>
      </defs>
      <g transform="translate(279.040881 398.398498)scale(0.1 -0.1)">
       <use transform="scale(0.996264)" xlink:href="#CMR17-50"/>
       <use transform="translate(45.690477 0)scale(0.996264)" xlink:href="#CMR17-48"/>
       <use transform="translate(91.380954 0)scale(0.996264)" xlink:href="#CMR17-48"/>
       <use transform="translate(137.071431 0)scale(0.996264)" xlink:href="#CMR17-48"/>
      </g>
     </g>
    </g>
    <g id="xtick_4">
     <g id="line2d_7">
      <path clip-path="url(#pddefd9976e)" d="M 387.359873 384.48 
L 387.359873 51.84 
" style="fill:none;stroke:#b0b0b0;stroke-dasharray:5.12,1.28,0.8,1.28;stroke-dashoffset:0;stroke-width:0.8;"/>
     </g>
     <g id="line2d_8">
      <g>
       <use style="stroke:#000000;stroke-width:0.8;" x="387.359873" xlink:href="#m65f53ac76f" y="384.48"/>
      </g>
     </g>
     <g id="text_4">
      <!-- $3000$ -->
      <defs>
       <path d="M 22.09375 33.703125 
C 31 33.703125 34.90625 25.96875 34.90625 17.03125 
C 34.90625 5 28.5 0.390625 22.703125 0.390625 
C 17.40625 0.390625 8.796875 3.03125 6.09375 10.828125 
C 6.59375 10.625 7.09375 10.625 7.59375 10.625 
C 10 10.625 11.796875 12.21875 11.796875 14.8125 
C 11.796875 17.703125 9.59375 19 7.59375 19 
C 5.90625 19 3.296875 18.203125 3.296875 14.46875 
C 3.296875 5.234375 12.296875 -2 22.90625 -2 
C 34 -2 42.5 6.71875 42.5 16.953125 
C 42.5 26.671875 34.5 33.703125 25 34.796875 
C 32.59375 36.375 39.90625 43.0625 39.90625 52.015625 
C 39.90625 59.6875 32 65.296875 23 65.296875 
C 13.90625 65.296875 5.90625 59.828125 5.90625 52.015625 
C 5.90625 48.59375 8.5 48 9.796875 48 
C 11.90625 48 13.703125 49.296875 13.703125 51.890625 
C 13.703125 54.46875 11.90625 55.765625 9.796875 55.765625 
C 9.40625 55.765625 8.90625 55.765625 8.5 55.578125 
C 11.40625 61.859375 19.296875 63 22.796875 63 
C 26.296875 63 32.90625 61.328125 32.90625 51.875 
C 32.90625 49.109375 32.5 44.1875 29.09375 39.84375 
C 26.09375 36 22.703125 36 19.40625 35.6875 
C 18.90625 35.6875 16.59375 35.453125 16.203125 35.453125 
C 15.5 35.359375 15.09375 35.265625 15.09375 34.5 
C 15.09375 33.796875 15.203125 33.703125 17.203125 33.703125 
z
" id="CMR17-51"/>
      </defs>
      <g transform="translate(377.397203 398.398498)scale(0.1 -0.1)">
       <use transform="scale(0.996264)" xlink:href="#CMR17-51"/>
       <use transform="translate(45.690477 0)scale(0.996264)" xlink:href="#CMR17-48"/>
       <use transform="translate(91.380954 0)scale(0.996264)" xlink:href="#CMR17-48"/>
       <use transform="translate(137.071431 0)scale(0.996264)" xlink:href="#CMR17-48"/>
      </g>
     </g>
    </g>
    <g id="xtick_5">
     <g id="line2d_9">
      <path clip-path="url(#pddefd9976e)" d="M 485.716194 384.48 
L 485.716194 51.84 
" style="fill:none;stroke:#b0b0b0;stroke-dasharray:5.12,1.28,0.8,1.28;stroke-dashoffset:0;stroke-width:0.8;"/>
     </g>
     <g id="line2d_10">
      <g>
       <use style="stroke:#000000;stroke-width:0.8;" x="485.716194" xlink:href="#m65f53ac76f" y="384.48"/>
      </g>
     </g>
     <g id="text_5">
      <!-- $4000$ -->
      <defs>
       <path d="M 33.59375 64.40625 
C 33.59375 66.5 33.5 66.5 31.703125 66.5 
L 2 19.59375 
L 2 17 
L 27.796875 17 
L 27.796875 7.140625 
C 27.796875 3.5 27.59375 2.5 20.59375 2.5 
L 18.703125 2.5 
L 18.703125 0 
C 21.90625 0 27.296875 0 30.703125 0 
C 34.09375 0 39.5 0 42.703125 0 
L 42.703125 2.5 
L 40.796875 2.5 
C 33.796875 2.5 33.59375 3.5 33.59375 7.140625 
L 33.59375 17 
L 43.796875 17 
L 43.796875 19.59375 
L 33.59375 19.59375 
z
M 28.09375 57.859375 
L 28.09375 19.59375 
L 4 19.59375 
z
" id="CMR17-52"/>
      </defs>
      <g transform="translate(475.753524 398.398498)scale(0.1 -0.1)">
       <use transform="scale(0.996264)" xlink:href="#CMR17-52"/>
       <use transform="translate(45.690477 0)scale(0.996264)" xlink:href="#CMR17-48"/>
       <use transform="translate(91.380954 0)scale(0.996264)" xlink:href="#CMR17-48"/>
       <use transform="translate(137.071431 0)scale(0.996264)" xlink:href="#CMR17-48"/>
      </g>
     </g>
    </g>
    <g id="text_6">
     <!-- Iteration -->
     <defs>
      <path d="M 17.09375 69 
L 8.703125 69 
L 8.703125 0 
L 17.09375 0 
z
" id="CMSS17-73"/>
      <path d="M 16.703125 37 
L 29.703125 37 
L 29.703125 42.765625 
L 16.703125 42.765625 
L 16.703125 55 
L 9.59375 55 
L 9.59375 42.765625 
L 1.703125 42.765625 
L 1.703125 37 
L 9.40625 37 
L 9.40625 11.703125 
C 9.40625 6 10.703125 -1 17.296875 -1 
C 22.296875 -1 26.90625 0.390625 31.296875 2.6875 
L 29.703125 8.5625 
C 27.296875 6.46875 24.40625 5.265625 21.296875 5.265625 
C 16.90625 5.265625 16.703125 10.875 16.703125 13.375 
z
" id="CMSS17-116"/>
      <path d="M 39.09375 21.515625 
C 39.09375 24.84375 38.90625 31.296875 35.703125 36.640625 
C 32.203125 42.390625 26.5 44 22.203125 44 
C 11.796875 44 3 34.1875 3 21.484375 
C 3 9.09375 12.09375 -1 23.59375 -1 
C 28.09375 -1 33.59375 0.296875 38.59375 3.875 
C 38.59375 4.28125 38.40625 6.46875 38.296875 6.5625 
C 38.296875 6.765625 38 9.84375 38 10.25 
C 33.203125 6.359375 27.703125 5.078125 23.703125 5.078125 
C 17.296875 5.078125 10.40625 10.421875 10.09375 21.515625 
z
M 10.90625 27 
C 12.203125 32.5625 16.59375 37.828125 22.203125 37.828125 
C 23.703125 37.828125 30.703125 37.828125 32.5 27 
z
" id="CMSS17-101"/>
      <path d="M 14.90625 21.296875 
C 14.90625 30.703125 21.796875 37 30.59375 37 
L 30.59375 43.578125 
C 24.203125 43.578125 18.203125 40.390625 14.59375 35.203125 
L 14.59375 43.09375 
L 7.5 43.09375 
L 7.5 0 
L 14.90625 0 
z
" id="CMSS17-114"/>
      <path d="M 37.59375 27.984375 
C 37.59375 37.375 30.90625 43.875 21.90625 43.875 
C 17.5 43.875 12.703125 43.078125 7.203125 39.890625 
L 7.796875 33.359375 
C 10.296875 35.125 14.59375 38 21.796875 38 
C 26.90625 38 30 34.0625 30 27.84375 
L 30 24 
C 14 24 4 19.34375 4 11.34375 
C 4 7.203125 6.5 -1 14.796875 -1 
C 16.296875 -1 24.40625 -1 30.203125 3.390625 
L 30.203125 -0.296875 
L 37.59375 -0.296875 
z
M 30 12.75 
C 30 10.953125 30 8.5625 27 6.78125 
C 24.40625 5.078125 21.09375 5.078125 19.703125 5.078125 
C 14.703125 5.078125 11.296875 7.984375 11.296875 11.625 
C 11.296875 18.921875 26.90625 18.921875 30 18.921875 
z
" id="CMSS17-97"/>
      <path d="M 15.296875 65.359375 
L 6.90625 65.359375 
L 6.90625 57 
L 15.296875 57 
z
M 14.796875 42.796875 
L 7.40625 42.796875 
L 7.40625 0 
L 14.796875 0 
z
" id="CMSS17-105"/>
      <path d="M 44.203125 21.1875 
C 44.203125 34 34.703125 44 23.5 44 
C 12 44 2.703125 33.703125 2.703125 21.1875 
C 2.703125 8.5 12.296875 -1 23.40625 -1 
C 34.796875 -1 44.203125 8.796875 44.203125 21.1875 
z
M 23.5 5.265625 
C 16.40625 5.265625 10.296875 11.078125 10.296875 22 
C 10.296875 33.609375 17.40625 37.921875 23.40625 37.921875 
C 29.90625 37.921875 36.59375 33.21875 36.59375 22 
C 36.59375 10.671875 30.09375 5.265625 23.5 5.265625 
z
" id="CMSS17-111"/>
      <path d="M 40.90625 29.328125 
C 40.90625 35.671875 39.40625 44 28.09375 44 
C 21.703125 44 17.5 40.71875 14.703125 37.328125 
L 14.703125 43.09375 
L 7.40625 43.09375 
L 7.40625 0 
L 15 0 
L 15 24.359375 
C 15 30.6875 17.40625 37.9375 24.203125 37.9375 
C 33 37.9375 33.296875 32 33.296875 28.578125 
L 33.296875 0 
L 40.90625 0 
z
" id="CMSS17-110"/>
     </defs>
     <g transform="translate(271.264003 414.021553)scale(0.14 -0.14)">
      <use transform="scale(0.996264)" xlink:href="#CMSS17-73"/>
      <use transform="translate(25.783926 0)scale(0.996264)" xlink:href="#CMSS17-116"/>
      <use transform="translate(59.615492 0)scale(0.996264)" xlink:href="#CMSS17-101"/>
      <use transform="translate(101.254314 0)scale(0.996264)" xlink:href="#CMSS17-114"/>
      <use transform="translate(133.164087 0)scale(0.996264)" xlink:href="#CMSS17-97"/>
      <use transform="translate(178.086007 0)scale(0.996264)" xlink:href="#CMSS17-116"/>
      <use transform="translate(211.917574 0)scale(0.996264)" xlink:href="#CMSS17-105"/>
      <use transform="translate(234.098297 0)scale(0.996264)" xlink:href="#CMSS17-111"/>
      <use transform="translate(280.941921 0)scale(0.996264)" xlink:href="#CMSS17-110"/>
     </g>
    </g>
   </g>
   <g id="matplotlib.axis_2">
    <g id="ytick_1">
     <g id="line2d_11">
      <path clip-path="url(#pddefd9976e)" d="M 72 364.610246 
L 518.4 364.610246 
" style="fill:none;stroke:#b0b0b0;stroke-dasharray:5.12,1.28,0.8,1.28;stroke-dashoffset:0;stroke-width:0.8;"/>
     </g>
     <g id="line2d_12">
      <defs>
       <path d="M 0 0 
L -3.5 0 
" id="mdfc48d97df" style="stroke:#000000;stroke-width:0.8;"/>
      </defs>
      <g>
       <use style="stroke:#000000;stroke-width:0.8;" x="72" xlink:href="#mdfc48d97df" y="364.610246"/>
      </g>
     </g>
     <g id="text_7">
      <!-- $310$ -->
      <g transform="translate(50.055994 368.069495)scale(0.1 -0.1)">
       <use transform="scale(0.996264)" xlink:href="#CMR17-51"/>
       <use transform="translate(45.690477 0)scale(0.996264)" xlink:href="#CMR17-49"/>
       <use transform="translate(91.380954 0)scale(0.996264)" xlink:href="#CMR17-48"/>
      </g>
     </g>
    </g>
    <g id="ytick_2">
     <g id="line2d_13">
      <path clip-path="url(#pddefd9976e)" d="M 72 327.403965 
L 518.4 327.403965 
" style="fill:none;stroke:#b0b0b0;stroke-dasharray:5.12,1.28,0.8,1.28;stroke-dashoffset:0;stroke-width:0.8;"/>
     </g>
     <g id="line2d_14">
      <g>
       <use style="stroke:#000000;stroke-width:0.8;" x="72" xlink:href="#mdfc48d97df" y="327.403965"/>
      </g>
     </g>
     <g id="text_8">
      <!-- $315$ -->
      <defs>
       <path d="M 11.40625 57.6875 
C 12.40625 57.28125 16.5 56 20.703125 56 
C 30 56 35.09375 61.109375 38 64.0625 
C 38 64.953125 38 65.5 37.40625 65.5 
C 37.296875 65.5 37.09375 65.5 36.296875 65.046875 
C 32.796875 63.40625 28.703125 62.078125 23.703125 62.078125 
C 20.703125 62.078125 16.203125 62.484375 11.296875 64.671875 
C 10.203125 65.171875 10 65.171875 9.90625 65.171875 
C 9.40625 65.171875 9.296875 65.0625 9.296875 63.078125 
L 9.296875 34.421875 
C 9.296875 32.640625 9.296875 32.140625 10.296875 32.140625 
C 10.796875 32.140625 11 32.34375 11.5 33.03125 
C 14.703125 37.515625 19.09375 39.40625 24.09375 39.40625 
C 27.59375 39.40625 35.09375 37.21875 35.09375 20.140625 
C 35.09375 16.953125 35.09375 11.171875 32.09375 6.578125 
C 29.59375 2.484375 25.703125 0.390625 21.40625 0.390625 
C 14.796875 0.390625 8.09375 5 6.296875 12.71875 
C 6.703125 12.609375 7.5 12.421875 7.90625 12.421875 
C 9.203125 12.421875 11.703125 13.125 11.703125 16.21875 
C 11.703125 18.90625 9.796875 20 7.90625 20 
C 5.59375 20 4.09375 18.59375 4.09375 15.796875 
C 4.09375 7.09375 11 -2 21.59375 -2 
C 31.90625 -2 41.703125 6.875 41.703125 19.75 
C 41.703125 31.71875 33.90625 41 24.203125 41 
C 19.09375 41 14.796875 39.109375 11.40625 35.53125 
z
" id="CMR17-53"/>
      </defs>
      <g transform="translate(50.055994 330.863215)scale(0.1 -0.1)">
       <use transform="scale(0.996264)" xlink:href="#CMR17-51"/>
       <use transform="translate(45.690477 0)scale(0.996264)" xlink:href="#CMR17-49"/>
       <use transform="translate(91.380954 0)scale(0.996264)" xlink:href="#CMR17-53"/>
      </g>
     </g>
    </g>
    <g id="ytick_3">
     <g id="line2d_15">
      <path clip-path="url(#pddefd9976e)" d="M 72 290.197685 
L 518.4 290.197685 
" style="fill:none;stroke:#b0b0b0;stroke-dasharray:5.12,1.28,0.8,1.28;stroke-dashoffset:0;stroke-width:0.8;"/>
     </g>
     <g id="line2d_16">
      <g>
       <use style="stroke:#000000;stroke-width:0.8;" x="72" xlink:href="#mdfc48d97df" y="290.197685"/>
      </g>
     </g>
     <g id="text_9">
      <!-- $320$ -->
      <g transform="translate(50.055994 293.656934)scale(0.1 -0.1)">
       <use transform="scale(0.996264)" xlink:href="#CMR17-51"/>
       <use transform="translate(45.690477 0)scale(0.996264)" xlink:href="#CMR17-50"/>
       <use transform="translate(91.380954 0)scale(0.996264)" xlink:href="#CMR17-48"/>
      </g>
     </g>
    </g>
    <g id="ytick_4">
     <g id="line2d_17">
      <path clip-path="url(#pddefd9976e)" d="M 72 252.991404 
L 518.4 252.991404 
" style="fill:none;stroke:#b0b0b0;stroke-dasharray:5.12,1.28,0.8,1.28;stroke-dashoffset:0;stroke-width:0.8;"/>
     </g>
     <g id="line2d_18">
      <g>
       <use style="stroke:#000000;stroke-width:0.8;" x="72" xlink:href="#mdfc48d97df" y="252.991404"/>
      </g>
     </g>
     <g id="text_10">
      <!-- $325$ -->
      <g transform="translate(50.055994 256.450653)scale(0.1 -0.1)">
       <use transform="scale(0.996264)" xlink:href="#CMR17-51"/>
       <use transform="translate(45.690477 0)scale(0.996264)" xlink:href="#CMR17-50"/>
       <use transform="translate(91.380954 0)scale(0.996264)" xlink:href="#CMR17-53"/>
      </g>
     </g>
    </g>
    <g id="ytick_5">
     <g id="line2d_19">
      <path clip-path="url(#pddefd9976e)" d="M 72 215.785123 
L 518.4 215.785123 
" style="fill:none;stroke:#b0b0b0;stroke-dasharray:5.12,1.28,0.8,1.28;stroke-dashoffset:0;stroke-width:0.8;"/>
     </g>
     <g id="line2d_20">
      <g>
       <use style="stroke:#000000;stroke-width:0.8;" x="72" xlink:href="#mdfc48d97df" y="215.785123"/>
      </g>
     </g>
     <g id="text_11">
      <!-- $330$ -->
      <g transform="translate(50.055994 219.244372)scale(0.1 -0.1)">
       <use transform="scale(0.996264)" xlink:href="#CMR17-51"/>
       <use transform="translate(45.690477 0)scale(0.996264)" xlink:href="#CMR17-51"/>
       <use transform="translate(91.380954 0)scale(0.996264)" xlink:href="#CMR17-48"/>
      </g>
     </g>
    </g>
    <g id="ytick_6">
     <g id="line2d_21">
      <path clip-path="url(#pddefd9976e)" d="M 72 178.578842 
L 518.4 178.578842 
" style="fill:none;stroke:#b0b0b0;stroke-dasharray:5.12,1.28,0.8,1.28;stroke-dashoffset:0;stroke-width:0.8;"/>
     </g>
     <g id="line2d_22">
      <g>
       <use style="stroke:#000000;stroke-width:0.8;" x="72" xlink:href="#mdfc48d97df" y="178.578842"/>
      </g>
     </g>
     <g id="text_12">
      <!-- $335$ -->
      <g transform="translate(50.055994 182.038092)scale(0.1 -0.1)">
       <use transform="scale(0.996264)" xlink:href="#CMR17-51"/>
       <use transform="translate(45.690477 0)scale(0.996264)" xlink:href="#CMR17-51"/>
       <use transform="translate(91.380954 0)scale(0.996264)" xlink:href="#CMR17-53"/>
      </g>
     </g>
    </g>
    <g id="ytick_7">
     <g id="line2d_23">
      <path clip-path="url(#pddefd9976e)" d="M 72 141.372562 
L 518.4 141.372562 
" style="fill:none;stroke:#b0b0b0;stroke-dasharray:5.12,1.28,0.8,1.28;stroke-dashoffset:0;stroke-width:0.8;"/>
     </g>
     <g id="line2d_24">
      <g>
       <use style="stroke:#000000;stroke-width:0.8;" x="72" xlink:href="#mdfc48d97df" y="141.372562"/>
      </g>
     </g>
     <g id="text_13">
      <!-- $340$ -->
      <g transform="translate(50.055994 144.831811)scale(0.1 -0.1)">
       <use transform="scale(0.996264)" xlink:href="#CMR17-51"/>
       <use transform="translate(45.690477 0)scale(0.996264)" xlink:href="#CMR17-52"/>
       <use transform="translate(91.380954 0)scale(0.996264)" xlink:href="#CMR17-48"/>
      </g>
     </g>
    </g>
    <g id="ytick_8">
     <g id="line2d_25">
      <path clip-path="url(#pddefd9976e)" d="M 72 104.166281 
L 518.4 104.166281 
" style="fill:none;stroke:#b0b0b0;stroke-dasharray:5.12,1.28,0.8,1.28;stroke-dashoffset:0;stroke-width:0.8;"/>
     </g>
     <g id="line2d_26">
      <g>
       <use style="stroke:#000000;stroke-width:0.8;" x="72" xlink:href="#mdfc48d97df" y="104.166281"/>
      </g>
     </g>
     <g id="text_14">
      <!-- $345$ -->
      <g transform="translate(50.055994 107.62553)scale(0.1 -0.1)">
       <use transform="scale(0.996264)" xlink:href="#CMR17-51"/>
       <use transform="translate(45.690477 0)scale(0.996264)" xlink:href="#CMR17-52"/>
       <use transform="translate(91.380954 0)scale(0.996264)" xlink:href="#CMR17-53"/>
      </g>
     </g>
    </g>
    <g id="ytick_9">
     <g id="line2d_27">
      <path clip-path="url(#pddefd9976e)" d="M 72 66.96 
L 518.4 66.96 
" style="fill:none;stroke:#b0b0b0;stroke-dasharray:5.12,1.28,0.8,1.28;stroke-dashoffset:0;stroke-width:0.8;"/>
     </g>
     <g id="line2d_28">
      <g>
       <use style="stroke:#000000;stroke-width:0.8;" x="72" xlink:href="#mdfc48d97df" y="66.96"/>
      </g>
     </g>
     <g id="text_15">
      <!-- $350$ -->
      <g transform="translate(50.055994 70.419249)scale(0.1 -0.1)">
       <use transform="scale(0.996264)" xlink:href="#CMR17-51"/>
       <use transform="translate(45.690477 0)scale(0.996264)" xlink:href="#CMR17-53"/>
       <use transform="translate(91.380954 0)scale(0.996264)" xlink:href="#CMR17-48"/>
      </g>
     </g>
    </g>
    <g id="text_16">
     <!-- $u_{m}$ -->
     <defs>
      <path d="M 34.09375 5.78125 
C 35.40625 0.203125 40.203125 -1 42.59375 -1 
C 45.796875 -1 48.203125 1.09375 49.796875 4.484375 
C 51.5 8.078125 52.796875 13.96875 52.796875 14.265625 
C 52.796875 14.765625 52.40625 15.171875 51.796875 15.171875 
C 50.90625 15.171875 50.796875 14.671875 50.40625 13.171875 
C 48.59375 6.28125 46.796875 1 42.796875 1 
C 39.796875 1 39.796875 4.296875 39.796875 5.59375 
C 39.796875 7.890625 40.09375 8.875 41.09375 13.078125 
C 41.796875 15.765625 42.5 18.453125 43.09375 21.25 
L 47.203125 37.515625 
C 47.90625 40.015625 47.90625 40.21875 47.90625 40.515625 
C 47.90625 42.015625 46.703125 43.015625 45.203125 43.015625 
C 42.296875 43.015625 41.59375 40.515625 41 38.015625 
C 40 34.125 34.59375 12.671875 33.90625 9.1875 
C 33.796875 9.1875 29.90625 1 22.59375 1 
C 17.40625 1 16.40625 5.484375 16.40625 9.1875 
C 16.40625 14.875 19.203125 22.84375 21.796875 29.53125 
C 23 32.734375 23.5 34.03125 23.5 36.015625 
C 23.5 40.3125 20.40625 44 15.59375 44 
C 6.40625 44 2.703125 29.53125 2.703125 28.734375 
C 2.703125 28.34375 3.09375 27.84375 3.796875 27.84375 
C 4.703125 27.84375 4.796875 28.234375 5.203125 29.625 
C 7.59375 38.140625 11.5 41.90625 15.296875 41.90625 
C 16.296875 41.90625 17.90625 41.90625 17.90625 38.71875 
C 17.90625 36.125 16.796875 33.234375 15.296875 29.4375 
C 10.90625 17.5625 10.40625 13.765625 10.40625 10.78125 
C 10.40625 0.59375 18.09375 -1 22.203125 -1 
C 28.59375 -1 32.09375 3.390625 34.09375 5.78125 
z
" id="CMMI12-117"/>
      <path d="M 20.59375 29.234375 
C 20.796875 29.84375 23.296875 34.828125 27 38.015625 
C 29.59375 40.40625 33 42.015625 36.90625 42.015625 
C 40.90625 42.015625 42.296875 39.015625 42.296875 35.03125 
C 42.296875 34.421875 42.296875 32.4375 41.09375 27.734375 
L 38.59375 17.46875 
C 37.796875 14.46875 35.90625 7.078125 35.703125 5.984375 
C 35.296875 4.484375 34.703125 1.890625 34.703125 1.5 
C 34.703125 0.09375 35.796875 -1 37.296875 -1 
C 40.296875 -1 40.796875 1.296875 41.703125 4.890625 
L 47.703125 28.734375 
C 47.90625 29.53125 53.09375 42.015625 64.09375 42.015625 
C 68.09375 42.015625 69.5 39.015625 69.5 35.03125 
C 69.5 29.4375 65.59375 18.5625 63.40625 12.578125 
C 62.5 10.171875 62 8.875 62 7.078125 
C 62 2.59375 65.09375 -1 69.90625 -1 
C 79.203125 -1 82.703125 13.671875 82.703125 14.265625 
C 82.703125 14.765625 82.296875 15.171875 81.703125 15.171875 
C 80.796875 15.171875 80.703125 14.875 80.203125 13.171875 
C 77.90625 5.1875 74.203125 1 70.203125 1 
C 69.203125 1 67.59375 1 67.59375 4.203125 
C 67.59375 6.8125 68.796875 10 69.203125 11.09375 
C 71 15.90625 75.5 27.703125 75.5 33.515625 
C 75.5 39.5 72 44 64.40625 44 
C 57.703125 44 52.296875 40.21875 48.296875 34.328125 
C 48 39.71875 44.703125 44 37.203125 44 
C 28.296875 44 23.59375 37.734375 21.796875 35.234375 
C 21.5 40.90625 17.40625 44 13 44 
C 10.09375 44 7.796875 42.609375 5.90625 38.8125 
C 4.09375 35.21875 2.703125 29.140625 2.703125 28.734375 
C 2.703125 28.34375 3.09375 27.84375 3.796875 27.84375 
C 4.59375 27.84375 4.703125 27.9375 5.296875 30.234375 
C 6.796875 36.125 8.703125 42.015625 12.703125 42.015625 
C 15 42.015625 15.796875 40.40625 15.796875 37.421875 
C 15.796875 35.21875 14.796875 31.328125 14.09375 28.234375 
L 11.296875 17.46875 
C 10.90625 15.5625 9.796875 11.078125 9.296875 9.28125 
C 8.59375 6.6875 7.5 2 7.5 1.5 
C 7.5 0.09375 8.59375 -1 10.09375 -1 
C 11.296875 -1 12.703125 -0.40625 13.5 1.09375 
C 13.703125 1.59375 14.59375 5.09375 15.09375 7.078125 
L 17.296875 16.0625 
z
" id="CMMI12-109"/>
     </defs>
     <g transform="translate(43.343966 226.466642)rotate(-90)scale(0.14 -0.14)">
      <use transform="translate(0 14.943915)scale(0.996264)" xlink:href="#CMMI12-117"/>
      <use transform="translate(55.52033 0)scale(0.697382)" xlink:href="#CMMI12-109"/>
     </g>
    </g>
   </g>
   <g id="line2d_29">
    <path clip-path="url(#pddefd9976e)" d="M 92.290909 66.96 
L 92.389265 66.96 
L 92.487622 66.96 
L 92.684334 67.566462 
L 93.07776 70.162717 
L 93.766254 76.807758 
L 95.930093 101.389948 
L 105.667369 218.817435 
L 111.863817 292.549866 
L 112.749024 298.237962 
L 115.109576 311.418659 
L 116.191495 315.964522 
L 117.273415 319.660594 
L 118.158622 322.008311 
L 118.945472 323.546418 
L 119.633966 324.454251 
L 120.224104 324.904447 
L 120.715886 325.048808 
L 121.207668 324.987045 
L 121.699449 324.722881 
L 122.289587 324.14916 
L 122.978081 323.142358 
L 123.764932 321.582671 
L 124.748495 319.092826 
L 125.928771 315.465214 
L 127.699185 309.192235 
L 130.944943 297.580899 
L 132.321932 293.552203 
L 133.403851 291.04822 
L 134.289058 289.509368 
L 135.075909 288.55912 
L 135.764403 288.062044 
L 136.354541 287.887175 
L 136.944679 287.942984 
L 137.534817 288.225008 
L 138.223311 288.828494 
L 139.010162 289.859852 
L 139.895369 291.415818 
L 140.977288 293.800741 
L 142.354277 297.417191 
L 145.108254 305.470863 
L 146.977024 310.554729 
L 148.255656 313.441936 
L 149.337575 315.361781 
L 150.222782 316.518896 
L 151.009633 317.212421 
L 151.698127 317.550998 
L 152.386621 317.638805 
L 153.075116 317.478074 
L 153.76361 317.077734 
L 154.55046 316.34105 
L 155.435667 315.187655 
L 156.517587 313.374221 
L 157.894575 310.570356 
L 160.156771 305.336176 
L 162.418966 300.259751 
L 163.795955 297.673171 
L 164.877874 296.053953 
L 165.861437 294.957856 
L 166.746644 294.30377 
L 167.533495 293.997934 
L 168.320345 293.954031 
L 169.107196 294.166107 
L 169.894047 294.624488 
L 170.779254 295.411773 
L 171.762817 296.588235 
L 173.041449 298.504359 
L 174.713506 301.45184 
L 178.451047 308.194363 
L 179.828035 310.175225 
L 181.008311 311.480421 
L 181.991874 312.243894 
L 182.877081 312.660605 
L 183.663932 312.810918 
L 184.450782 312.75362 
L 185.335989 312.449273 
L 186.221196 311.906805 
L 187.303115 310.95358 
L 188.581748 309.485421 
L 190.253805 307.180864 
L 194.67984 300.908629 
L 195.958472 299.54167 
L 197.138748 298.600351 
L 198.122311 298.080951 
L 199.105874 297.817531 
L 199.991081 297.801904 
L 200.974644 298.024398 
L 201.958207 298.483523 
L 203.040127 299.234346 
L 204.318759 300.395182 
L 205.990817 302.223499 
L 210.416851 307.227743 
L 211.79384 308.397509 
L 212.974115 309.134193 
L 214.056035 309.565042 
L 215.137954 309.748097 
L 216.121518 309.698985 
L 217.203437 309.417705 
L 218.383713 308.861843 
L 219.760702 307.936895 
L 221.432759 306.526033 
L 226.645644 301.901292 
L 228.120989 301.002389 
L 229.399621 300.485965 
L 230.579897 300.250078 
L 231.760173 300.250078 
L 232.940449 300.47778 
L 234.219081 300.958485 
L 235.694426 301.764373 
L 237.661552 303.123147 
L 242.087586 306.280472 
L 243.661288 307.093057 
L 245.038276 307.567809 
L 246.316908 307.786582 
L 247.59554 307.785838 
L 248.972529 307.546973 
L 250.447874 307.049897 
L 252.218288 306.196385 
L 255.168977 304.464805 
L 257.824598 303.006319 
L 259.595012 302.288238 
L 261.070356 301.913942 
L 262.545701 301.768094 
L 264.021046 301.855157 
L 265.496391 302.156527 
L 267.365161 302.792011 
L 270.020782 303.990797 
L 273.758322 305.653918 
L 275.725448 306.254427 
L 277.397506 306.530498 
L 278.971207 306.572913 
L 280.643264 306.393579 
L 282.512035 305.957521 
L 284.77423 305.197769 
L 290.183828 303.305457 
L 292.24931 302.887259 
L 294.11808 302.748107 
L 295.986851 302.843355 
L 298.15069 303.213186 
L 300.80631 303.925314 
L 305.822483 305.327247 
L 308.084678 305.696333 
L 310.051805 305.801255 
L 312.904138 305.594388 
L 315.461402 305.121868 
L 322.838126 303.561437 
L 325.297034 303.375405 
L 327.55923 303.431215 
L 330.21485 303.740771 
L 334.739241 304.571215 
L 338.476781 305.138983 
L 341.230758 305.304179 
L 343.886379 305.220837 
L 347.033781 304.872586 
L 354.902287 303.847925 
L 357.656264 303.764583 
L 360.606954 303.896293 
L 364.344494 304.289191 
L 370.344229 304.906072 
L 373.491632 304.990902 
L 376.835747 304.856959 
L 381.851919 304.406019 
L 386.37631 304.070418 
L 390.310563 304.029492 
L 394.343172 304.23115 
L 402.900172 304.769897 
L 407.031137 304.757246 
L 412.342379 304.486385 
L 419.128965 304.182781 
L 423.653356 304.223708 
L 431.81693 304.581633 
L 436.931459 304.664975 
L 442.931195 304.509453 
L 452.078333 304.272821 
L 458.176424 304.381463 
L 468.503838 304.585353 
L 477.946045 304.403787 
L 485.421125 304.344257 
L 498.109091 304.532521 
L 498.109091 304.532521 
" style="fill:none;stroke:#bf00bf;stroke-linecap:square;stroke-width:1.5;"/>
   </g>
   <g id="line2d_30">
    <path clip-path="url(#pddefd9976e)" d="M 92.290909 66.96 
L 92.389265 66.96 
L 92.487622 66.96 
L 92.684334 67.464517 
L 92.979403 69.18568 
L 93.569541 74.624494 
L 95.831737 99.977598 
L 114.126012 320.259615 
L 114.814507 326.970884 
L 115.503001 330.383444 
L 116.289851 333.249816 
L 117.076702 335.351227 
L 117.765196 336.640053 
L 118.453691 337.466776 
L 119.043828 337.836607 
L 119.53561 337.921437 
L 120.027392 337.815027 
L 120.61753 337.448173 
L 121.306024 336.715209 
L 122.092874 335.512702 
L 123.076438 333.533328 
L 124.256714 330.600729 
L 125.928771 325.769121 
L 129.469599 315.372942 
L 130.748231 312.335422 
L 131.83015 310.296518 
L 132.715357 309.051595 
L 133.502208 308.290355 
L 134.190702 307.901177 
L 134.879196 307.772443 
L 135.56769 307.901921 
L 136.256185 308.281425 
L 137.043035 309.006948 
L 137.928242 310.164063 
L 138.911805 311.820487 
L 140.190438 314.438321 
L 142.059208 318.840568 
L 145.009897 325.791445 
L 146.386886 328.475506 
L 147.468805 330.155742 
L 148.452369 331.29351 
L 149.337575 331.972897 
L 150.124426 332.291382 
L 150.81292 332.347192 
L 151.501415 332.198367 
L 152.288265 331.786865 
L 153.173472 331.035298 
L 154.157035 329.878183 
L 155.337311 328.117582 
L 156.911012 325.318925 
L 161.435403 316.943792 
L 162.714035 315.143752 
L 163.795955 313.982916 
L 164.779518 313.253673 
L 165.664725 312.880866 
L 166.451575 312.778176 
L 167.238426 312.889795 
L 168.123633 313.261114 
L 169.00884 313.875018 
L 170.090759 314.917538 
L 171.369391 316.489131 
L 173.139805 319.066038 
L 176.877345 324.62168 
L 178.254334 326.243129 
L 179.43461 327.305741 
L 180.418173 327.922621 
L 181.401736 328.276825 
L 182.286943 328.36612 
L 183.17215 328.240363 
L 184.155713 327.860859 
L 185.237633 327.176263 
L 186.516265 326.060819 
L 188.089966 324.350818 
L 193.59792 318.018309 
L 194.876552 317.010763 
L 196.056828 316.363374 
L 197.138748 316.031494 
L 198.122311 315.954105 
L 199.20423 316.112603 
L 200.28615 316.509966 
L 201.466426 317.187121 
L 202.843414 318.237826 
L 204.712184 319.958245 
L 208.744794 323.717567 
L 210.220138 324.751158 
L 211.498771 325.388873 
L 212.679046 325.735636 
L 213.859322 325.838325 
L 214.941242 325.720009 
L 216.121518 325.373247 
L 217.498506 324.716184 
L 219.072207 323.707149 
L 221.629472 321.756796 
L 224.383449 319.743192 
L 226.055506 318.804106 
L 227.432495 318.276521 
L 228.711127 318.013844 
L 229.989759 317.979615 
L 231.268391 318.167878 
L 232.64538 318.595751 
L 234.317437 319.371874 
L 236.677989 320.761156 
L 240.12046 322.799316 
L 241.890874 323.589578 
L 243.464575 324.044238 
L 244.841563 324.223573 
L 246.316908 324.181157 
L 247.792253 323.91104 
L 249.464311 323.370805 
L 251.529793 322.462971 
L 256.742678 320.06019 
L 258.513092 319.537069 
L 260.18515 319.278858 
L 261.758851 319.261743 
L 263.430908 319.473075 
L 265.299678 319.949315 
L 267.66023 320.790921 
L 272.676402 322.611796 
L 274.545173 323.027763 
L 276.21723 323.20412 
L 277.987644 323.175844 
L 279.856414 322.923585 
L 282.020253 322.407162 
L 290.282184 320.209015 
L 292.347667 320.054237 
L 294.314793 320.127905 
L 296.478632 320.428532 
L 299.626034 321.136195 
L 304.445494 322.226339 
L 306.806046 322.51506 
L 308.969885 322.567893 
L 311.428793 322.384838 
L 314.281126 321.929433 
L 321.264425 320.718741 
L 323.920046 320.566939 
L 326.47731 320.654002 
L 329.428 320.986626 
L 337.985 322.108768 
L 340.837333 322.154903 
L 343.788023 321.977057 
L 348.017345 321.482958 
L 353.23023 320.963558 
L 356.180919 320.89361 
L 359.328322 321.024577 
L 363.951069 321.450216 
L 369.163954 321.855021 
L 372.508069 321.897436 
L 376.147252 321.735961 
L 387.064804 321.098245 
L 391.392482 321.206143 
L 405.064011 321.71959 
L 409.686758 321.540256 
L 417.456907 321.238141 
L 422.178011 321.275347 
L 430.341586 321.571509 
L 435.947896 321.631039 
L 442.439413 321.471052 
L 449.521068 321.314041 
L 457.389574 321.423428 
L 468.307126 321.561091 
L 492.404424 321.488911 
L 498.010735 321.529094 
L 498.010735 321.529094 
" style="fill:none;stroke:#00bfbf;stroke-linecap:square;stroke-width:1.5;"/>
   </g>
   <g id="line2d_31">
    <path clip-path="url(#pddefd9976e)" d="M 92.290909 66.96 
L 92.389265 66.96 
L 92.487622 66.96 
L 92.684334 67.864113 
L 93.07776 71.552743 
L 94.159679 85.040764 
L 96.126806 108.866922 
L 114.126012 325.574905 
L 114.814507 332.286174 
L 115.503001 335.698734 
L 116.289851 338.564361 
L 117.076702 340.666516 
L 117.765196 341.955342 
L 118.453691 342.782065 
L 119.043828 343.151896 
L 119.53561 343.236726 
L 120.027392 343.130316 
L 120.61753 342.763462 
L 121.306024 342.030499 
L 122.092874 340.827247 
L 122.978081 339.068134 
L 124.158357 336.179439 
L 125.732058 331.677479 
L 129.666311 320.182226 
L 130.944943 317.239954 
L 132.026863 315.300762 
L 132.91207 314.145135 
L 133.69892 313.467981 
L 134.387415 313.153216 
L 135.075909 313.09815 
L 135.764403 313.300553 
L 136.452897 313.74926 
L 137.239748 314.549195 
L 138.124955 315.781467 
L 139.206874 317.698335 
L 140.583863 320.638375 
L 143.042771 326.561615 
L 145.20661 331.521957 
L 146.583598 334.126396 
L 147.665518 335.729243 
L 148.649081 336.788878 
L 149.435932 337.342507 
L 150.222782 337.626763 
L 150.911277 337.653552 
L 151.599771 337.475706 
L 152.386621 337.032951 
L 153.271828 336.249387 
L 154.255392 335.061018 
L 155.435667 333.270652 
L 157.107725 330.260664 
L 161.23869 322.57087 
L 162.615679 320.581822 
L 163.697598 319.388244 
L 164.681162 318.627004 
L 165.566368 318.223688 
L 166.353219 318.094954 
L 167.14007 318.179784 
L 167.92692 318.472226 
L 168.812127 319.03404 
L 169.79569 319.918806 
L 170.975966 321.287253 
L 172.549667 323.487632 
L 177.467483 330.67663 
L 178.746116 332.041356 
L 179.828035 332.897845 
L 180.811598 333.411292 
L 181.795162 333.658341 
L 182.680368 333.651644 
L 183.565575 333.433615 
L 184.549139 332.957375 
L 185.631058 332.180508 
L 186.90969 330.977257 
L 188.581748 329.081225 
L 193.007782 323.891693 
L 194.384771 322.678024 
L 195.565046 321.913063 
L 196.646966 321.465843 
L 197.630529 321.2813 
L 198.614092 321.310321 
L 199.696012 321.579694 
L 200.876288 322.134812 
L 202.15492 322.997254 
L 203.728621 324.337424 
L 209.63 329.687687 
L 211.006989 330.489854 
L 212.187265 330.935586 
L 213.269184 331.132779 
L 214.351104 331.124593 
L 215.53138 330.888706 
L 216.810012 330.390886 
L 218.285357 329.555233 
L 220.154127 328.222504 
L 224.87523 324.752646 
L 226.448931 323.943781 
L 227.82592 323.486144 
L 229.104552 323.29416 
L 230.284828 323.318716 
L 231.661816 323.58288 
L 233.038805 324.071027 
L 234.710862 324.900727 
L 237.464839 326.567568 
L 240.12046 328.114605 
L 241.890874 328.904867 
L 243.464575 329.359528 
L 244.841563 329.538862 
L 246.316908 329.496447 
L 247.792253 329.226329 
L 249.464311 328.686094 
L 251.529793 327.778261 
L 256.742678 325.375479 
L 258.513092 324.852359 
L 260.086793 324.602332 
L 261.660494 324.571079 
L 263.430908 324.788364 
L 265.299678 325.26386 
L 267.955299 326.22155 
L 272.282977 327.813979 
L 274.34846 328.309566 
L 276.118874 328.514201 
L 277.889287 328.498574 
L 279.856414 328.238874 
L 282.020253 327.722451 
L 289.790402 325.59574 
L 291.954241 325.380688 
L 293.921368 325.411941 
L 295.986851 325.658247 
L 298.642471 326.209644 
L 304.937276 327.619762 
L 307.199471 327.85565 
L 309.461667 327.866067 
L 311.822218 327.650271 
L 314.969621 327.111524 
L 320.674287 326.100257 
L 323.231552 325.897855 
L 325.592103 325.914226 
L 328.444437 326.169461 
L 333.460609 326.926237 
L 337.001437 327.354853 
L 339.755414 327.479866 
L 342.509391 327.394292 
L 346.050218 327.045297 
L 353.328586 326.272894 
L 356.475988 326.211876 
L 360.213528 326.406837 
L 371.327793 327.220911 
L 375.163689 327.112268 
L 388.343436 326.420231 
L 392.769471 326.595845 
L 402.113321 327.05125 
L 406.932781 326.979814 
L 420.899379 326.562359 
L 426.899114 326.762529 
L 434.76762 326.952281 
L 440.668999 326.842895 
L 451.291482 326.629331 
L 460.143551 326.807177 
L 466.339999 326.886054 
L 474.208505 326.775923 
L 486.011263 326.70672 
L 497.912378 326.844383 
L 497.912378 326.844383 
" style="fill:none;stroke:#ff0000;stroke-linecap:square;stroke-width:1.5;"/>
   </g>
   <g id="line2d_32">
    <path clip-path="url(#pddefd9976e)" d="M 92.290909 66.96 
L 92.389265 66.96 
L 92.979403 80.301428 
L 93.86461 94.748627 
L 95.143242 111.743712 
L 101.339691 186.616887 
L 114.322725 341.988083 
L 115.207932 350.456233 
L 115.994783 355.665112 
L 116.781633 359.466106 
L 117.568484 362.259553 
L 118.355334 364.264972 
L 119.043828 365.474176 
L 119.633966 366.149098 
L 120.224104 366.515208 
L 120.715886 366.600038 
L 121.306024 366.451957 
L 121.896162 366.048641 
L 122.584656 365.279215 
L 123.371507 364.042478 
L 124.35507 362.033339 
L 125.535346 359.07916 
L 127.207403 354.244576 
L 130.649874 344.180277 
L 131.928507 341.143501 
L 133.010426 339.100132 
L 133.895633 337.848513 
L 134.682484 337.078343 
L 135.370978 336.680235 
L 136.059472 336.541084 
L 136.747966 336.6594 
L 137.436461 337.026998 
L 138.223311 337.737638 
L 139.108518 338.878382 
L 140.190438 340.698514 
L 141.46907 343.327509 
L 143.436196 347.964156 
L 146.190173 354.411261 
L 147.567162 357.093089 
L 148.747438 358.908012 
L 149.731001 360.013038 
L 150.616208 360.66266 
L 151.403058 360.955101 
L 152.091552 360.990075 
L 152.780047 360.821903 
L 153.566897 360.39031 
L 154.452104 359.619396 
L 155.435667 358.446654 
L 156.615943 356.672658 
L 158.189644 353.871025 
L 162.615679 345.712432 
L 163.894311 343.912392 
L 164.976231 342.747091 
L 165.959794 342.01264 
L 166.845001 341.632391 
L 167.631851 341.523005 
L 168.418702 341.625694 
L 169.303909 341.986595 
L 170.287472 342.671191 
L 171.369391 343.727849 
L 172.648024 345.309116 
L 174.418437 347.886023 
L 177.959265 353.141782 
L 179.336253 354.789276 
L 180.516529 355.881653 
L 181.598449 356.578154 
L 182.582012 356.939055 
L 183.467219 357.035047 
L 184.352426 356.916731 
L 185.335989 356.546157 
L 186.417909 355.871979 
L 187.696541 354.768441 
L 189.270242 353.071834 
L 194.974909 346.588268 
L 196.253541 345.625369 
L 197.433817 345.021883 
L 198.515736 344.731675 
L 199.499299 344.691492 
L 200.482863 344.85892 
L 201.564782 345.269677 
L 202.745058 345.956505 
L 204.122046 347.013908 
L 206.089173 348.830318 
L 209.728357 352.227996 
L 211.302058 353.359811 
L 212.58069 354.020595 
L 213.760966 354.391169 
L 214.941242 354.519903 
L 216.121518 354.406796 
L 217.301794 354.06673 
L 218.678782 353.418597 
L 220.350839 352.349288 
L 223.00646 350.326755 
L 225.662081 348.409143 
L 227.334138 347.487172 
L 228.711127 346.973725 
L 229.989759 346.724443 
L 231.268391 346.702863 
L 232.547023 346.902289 
L 233.924012 347.339091 
L 235.497713 348.069078 
L 237.759908 349.387668 
L 241.497449 351.579863 
L 243.267862 352.341103 
L 244.743207 352.74814 
L 246.218552 352.919289 
L 247.59554 352.861991 
L 249.070885 352.583688 
L 250.742943 352.036756 
L 252.906782 351.079066 
L 257.824598 348.814692 
L 259.595012 348.277433 
L 261.267069 348.002107 
L 262.939127 347.972342 
L 264.611184 348.179953 
L 266.381598 348.619731 
L 268.74215 349.447199 
L 273.758322 351.272539 
L 275.725448 351.717526 
L 277.495862 351.900581 
L 279.266276 351.864119 
L 281.135046 351.605163 
L 283.298885 351.085019 
L 291.364103 348.934496 
L 293.33123 348.768556 
L 295.298356 348.817668 
L 297.363839 349.078856 
L 299.921103 349.616115 
L 306.019195 350.983074 
L 308.281391 351.230124 
L 310.051805 351.26733 
L 313.199207 351.009862 
L 316.248253 350.483021 
L 321.854563 349.493334 
L 324.706896 349.280514 
L 327.264161 349.330371 
L 330.313207 349.64588 
L 339.85377 350.838713 
L 342.607747 350.836481 
L 346.050218 350.570828 
L 355.295712 349.627277 
L 358.344758 349.616859 
L 361.885586 349.834888 
L 372.409712 350.605058 
L 376.343965 350.498648 
L 381.655206 350.106494 
L 386.868091 349.821494 
L 390.310563 349.823726 
L 394.834954 350.035058 
L 403.293597 350.436141 
L 407.424563 350.390006 
L 414.506218 350.064823 
L 419.817459 349.932368 
L 425.423769 350.043243 
L 436.144608 350.337917 
L 441.947631 350.227042 
L 452.471758 350.016455 
L 461.323827 350.193557 
L 469.290689 350.264248 
L 493.5847 350.19058 
L 498.109091 350.229275 
L 498.109091 350.229275 
" style="fill:none;stroke:#008000;stroke-linecap:square;stroke-width:1.5;"/>
   </g>
   <g id="line2d_33">
    <path clip-path="url(#pddefd9976e)" d="M 92.290909 66.96 
L 92.389265 66.96 
L 92.979403 82.391677 
L 93.667898 94.189789 
L 94.848173 110.121518 
L 99.077495 161.176721 
L 113.437518 333.164986 
L 115.207932 350.808948 
L 115.994783 356.476209 
L 116.781633 360.652986 
L 117.568484 363.782034 
L 118.355334 366.105195 
L 119.142185 367.753433 
L 119.830679 368.702193 
L 120.420817 369.176945 
L 121.010955 369.357768 
L 121.601093 369.260287 
L 122.191231 368.90013 
L 122.879725 368.171631 
L 123.666576 366.965404 
L 124.551782 365.190664 
L 125.732058 362.259553 
L 127.305759 357.665322 
L 131.338369 345.54426 
L 132.617001 342.517901 
L 133.69892 340.521412 
L 134.584127 339.330811 
L 135.370978 338.631333 
L 136.059472 338.304662 
L 136.64961 338.23769 
L 137.239748 338.364192 
L 137.928242 338.751137 
L 138.715093 339.492286 
L 139.6003 340.676934 
L 140.583863 342.374285 
L 141.862495 345.05909 
L 143.731265 349.577421 
L 146.681955 356.716562 
L 148.058943 359.475779 
L 149.140863 361.204383 
L 150.124426 362.376381 
L 150.911277 363.016329 
L 151.698127 363.380951 
L 152.386621 363.47099 
L 153.075116 363.350442 
L 153.76361 363.026003 
L 154.55046 362.418052 
L 155.435667 361.455898 
L 156.517587 359.934905 
L 157.894575 357.572306 
L 160.255127 352.944589 
L 162.615679 348.482812 
L 163.992667 346.336753 
L 165.172943 344.908032 
L 166.156506 344.057497 
L 167.041713 343.579024 
L 167.828564 343.388528 
L 168.615414 343.419037 
L 169.402265 343.664598 
L 170.287472 344.184742 
L 171.271035 345.03751 
L 172.451311 346.388098 
L 173.926656 348.452303 
L 177.074058 353.39032 
L 178.942828 356.037175 
L 180.22146 357.495661 
L 181.401736 358.501719 
L 182.385299 359.057581 
L 183.270506 359.325466 
L 184.155713 359.369369 
L 185.04092 359.195244 
L 186.024483 358.757698 
L 187.106403 358.008364 
L 188.286679 356.920452 
L 189.86038 355.147945 
L 195.073265 348.947146 
L 196.450253 347.794496 
L 197.532173 347.149339 
L 198.614092 346.758673 
L 199.597656 346.63366 
L 200.581219 346.726675 
L 201.663138 347.068229 
L 202.745058 347.637485 
L 204.02369 348.559457 
L 205.695748 350.059614 
L 211.006989 355.059394 
L 212.383977 355.946392 
L 213.564253 356.465791 
L 214.744529 356.740374 
L 215.924805 356.763442 
L 217.006725 356.570713 
L 218.285357 356.098193 
L 219.662345 355.339185 
L 221.432759 354.086822 
L 226.842357 350.039523 
L 228.416058 349.262655 
L 229.69469 348.867525 
L 230.973322 348.704561 
L 232.251954 348.775253 
L 233.530587 349.066206 
L 235.005931 349.641415 
L 236.776345 350.587943 
L 240.022104 352.629824 
L 242.284299 353.910464 
L 243.956357 354.612919 
L 245.431701 354.997631 
L 246.80869 355.136039 
L 248.185678 355.059394 
L 249.661023 354.754302 
L 251.333081 354.174629 
L 253.49692 353.175268 
L 258.31638 350.890802 
L 260.086793 350.339405 
L 261.660494 350.067799 
L 263.234196 350.020175 
L 264.906253 350.209927 
L 266.676667 350.643008 
L 268.938862 351.441455 
L 274.446816 353.49673 
L 276.413943 353.928323 
L 278.184356 354.089798 
L 279.95477 354.025059 
L 281.921897 353.712527 
L 284.282448 353.088205 
L 291.069035 351.146781 
L 293.134517 350.884105 
L 295.101644 350.859549 
L 297.167126 351.061951 
L 299.429322 351.495776 
L 307.986322 353.328558 
L 309.953448 353.431991 
L 312.805782 353.273492 
L 315.461402 352.865712 
L 323.329908 351.489079 
L 325.788816 351.370019 
L 328.34608 351.475685 
L 331.29677 351.829889 
L 339.263632 352.928218 
L 342.017609 353.010816 
L 345.066655 352.855294 
L 348.607482 352.45421 
L 353.820368 351.854445 
L 356.869413 351.707852 
L 360.213528 351.788962 
L 364.44285 352.155072 
L 371.13108 352.705725 
L 374.573551 352.729537 
L 378.999586 352.485463 
L 386.671379 351.955646 
L 390.802344 351.940019 
L 395.130022 352.146142 
L 403.982091 352.57327 
L 408.604838 352.498114 
L 422.768149 352.073218 
L 428.472815 352.270411 
L 435.161045 352.464628 
L 440.964068 352.399145 
L 453.160252 352.139445 
L 461.422183 352.311338 
L 468.012057 352.402121 
L 475.782206 352.291247 
L 484.929344 352.193022 
L 497.912378 352.355241 
L 497.912378 352.355241 
" style="fill:none;stroke:#0000ff;stroke-linecap:square;stroke-width:1.5;"/>
   </g>
   <g id="line2d_34">
    <path clip-path="url(#pddefd9976e)" d="M 92.290909 66.96 
L 92.389265 66.96 
L 92.979403 75.753332 
L 95.044886 100.564713 
L 98.389001 140.586765 
L 112.650668 311.529534 
L 114.519438 329.281394 
L 115.306288 335.627298 
L 116.093139 340.221529 
L 116.978346 344.092471 
L 117.863553 346.964051 
L 118.650403 348.81618 
L 119.338897 349.947995 
L 120.027392 350.651938 
L 120.61753 350.930985 
L 121.109311 350.945123 
L 121.699449 350.712212 
L 122.289587 350.218857 
L 122.978081 349.337812 
L 123.764932 347.961924 
L 124.748495 345.762288 
L 126.027127 342.271595 
L 127.895897 336.398212 
L 130.748231 327.437451 
L 132.125219 323.837371 
L 133.207139 321.577462 
L 134.190702 320.040842 
L 134.977553 319.197748 
L 135.666047 318.754249 
L 136.354541 318.587565 
L 136.944679 318.664954 
L 137.633173 319.003531 
L 138.321667 319.60032 
L 139.108518 320.576613 
L 140.092081 322.19211 
L 141.272357 324.611262 
L 142.846058 328.404814 
L 147.07538 338.904427 
L 148.354012 341.366738 
L 149.435932 342.976282 
L 150.321139 343.923554 
L 151.107989 344.468254 
L 151.796483 344.708607 
L 152.484978 344.727954 
L 153.173472 344.530761 
L 153.960323 344.0508 
L 154.845529 343.207705 
L 155.829093 341.934506 
L 157.009369 340.019871 
L 158.58307 337.009139 
L 162.910748 328.468065 
L 164.18938 326.527385 
L 165.2713 325.266093 
L 166.156506 324.529408 
L 167.041713 324.076236 
L 167.828564 323.917737 
L 168.615414 323.987685 
L 169.402265 324.279382 
L 170.287472 324.856079 
L 171.271035 325.778795 
L 172.451311 327.215702 
L 173.926656 329.385572 
L 179.336253 337.70564 
L 180.516529 338.972142 
L 181.598449 339.818213 
L 182.582012 340.301151 
L 183.467219 340.492391 
L 184.352426 340.452952 
L 185.237633 340.189532 
L 186.221196 339.652273 
L 187.303115 338.79504 
L 188.680104 337.375249 
L 190.450518 335.193472 
L 194.286414 330.373027 
L 195.761759 328.933888 
L 196.942035 328.078143 
L 198.023955 327.559488 
L 199.007518 327.324344 
L 199.991081 327.316159 
L 200.974644 327.529723 
L 202.056564 328.002242 
L 203.23684 328.768692 
L 204.712184 330.018823 
L 206.876023 332.198367 
L 210.023426 335.325183 
L 211.498771 336.479321 
L 212.777403 337.216006 
L 213.957679 337.643134 
L 215.039598 337.807586 
L 216.121518 337.754009 
L 217.301794 337.457847 
L 218.580426 336.88487 
L 220.055771 335.957689 
L 222.022897 334.430744 
L 226.055506 331.242165 
L 227.629207 330.314241 
L 229.006196 329.756891 
L 230.284828 329.482308 
L 231.465104 329.445102 
L 232.743736 329.632622 
L 234.120724 330.076121 
L 235.694426 330.835873 
L 237.858265 332.167113 
L 241.890874 334.700117 
L 243.661288 335.505261 
L 245.136632 335.930901 
L 246.513621 336.100561 
L 247.890609 336.046984 
L 249.267598 335.782076 
L 250.939655 335.217284 
L 253.005138 334.258106 
L 258.218023 331.691617 
L 259.988437 331.124593 
L 261.562138 330.848523 
L 263.135839 330.804619 
L 264.70954 330.98693 
L 266.479954 331.428197 
L 268.643793 332.211017 
L 274.643529 334.498459 
L 276.413943 334.874987 
L 278.184356 335.023812 
L 279.95477 334.939726 
L 281.82354 334.621984 
L 284.184092 333.972362 
L 290.675609 332.021265 
L 292.741092 331.718406 
L 294.708218 331.662596 
L 296.773701 331.844163 
L 299.134253 332.294359 
L 302.67508 333.209633 
L 306.215908 334.00808 
L 308.379747 334.278942 
L 310.051805 334.339216 
L 313.10085 334.121931 
L 315.953184 333.627832 
L 322.444701 332.407466 
L 324.903609 332.215482 
L 327.362517 332.249711 
L 330.116494 332.525782 
L 334.542529 333.239398 
L 338.575138 333.772937 
L 341.230758 333.903159 
L 343.984735 333.817584 
L 347.230494 333.488681 
L 354.803931 332.623262 
L 358.148046 332.557035 
L 361.098735 332.706605 
L 373.393275 333.627088 
L 377.032459 333.492401 
L 389.228643 332.769111 
L 393.457965 332.911239 
L 404.178804 333.452218 
L 409.09662 333.345064 
L 421.096091 332.909751 
L 426.604045 333.060808 
L 435.062689 333.336879 
L 440.767356 333.270652 
L 453.258608 333.001278 
L 461.028758 333.170939 
L 468.012057 333.271396 
L 475.487137 333.160521 
L 484.929344 333.056344 
L 492.79785 333.166474 
L 498.010735 333.224516 
L 498.010735 333.224516 
" style="fill:none;stroke:#000000;stroke-linecap:square;stroke-width:1.5;"/>
   </g>
   <g id="patch_3">
    <path d="M 72 384.48 
L 72 51.84 
" style="fill:none;stroke:#000000;stroke-linecap:square;stroke-linejoin:miter;stroke-width:0.8;"/>
   </g>
   <g id="patch_4">
    <path d="M 518.4 384.48 
L 518.4 51.84 
" style="fill:none;stroke:#000000;stroke-linecap:square;stroke-linejoin:miter;stroke-width:0.8;"/>
   </g>
   <g id="patch_5">
    <path d="M 72 384.48 
L 518.4 384.48 
" style="fill:none;stroke:#000000;stroke-linecap:square;stroke-linejoin:miter;stroke-width:0.8;"/>
   </g>
   <g id="patch_6">
    <path d="M 72 51.84 
L 518.4 51.84 
" style="fill:none;stroke:#000000;stroke-linecap:square;stroke-linejoin:miter;stroke-width:0.8;"/>
   </g>
   <g id="legend_1">
    <g id="patch_7">
     <path d="M 469.72557 143.46307 
L 511.4 143.46307 
Q 513.4 143.46307 513.4 141.46307 
L 513.4 58.84 
Q 513.4 56.84 511.4 56.84 
L 469.72557 56.84 
Q 467.72557 56.84 467.72557 58.84 
L 467.72557 141.46307 
Q 467.72557 143.46307 469.72557 143.46307 
z
" style="fill:#ffffff;opacity:0.8;stroke:#cccccc;stroke-linejoin:miter;"/>
    </g>
    <g id="line2d_35">
     <path d="M 471.72557 64.34 
L 491.72557 64.34 
" style="fill:none;stroke:#bf00bf;stroke-linecap:square;stroke-width:1.5;"/>
    </g>
    <g id="line2d_36"/>
    <g id="text_17">
     <!-- $u_{1}$ -->
     <g transform="translate(499.72557 67.84)scale(0.1 -0.1)">
      <use transform="translate(0 14.943915)scale(0.996264)" xlink:href="#CMMI12-117"/>
      <use transform="translate(55.52033 0)scale(0.697382)" xlink:href="#CMR17-49"/>
     </g>
    </g>
    <g id="line2d_37">
     <path d="M 471.72557 78.277178 
L 491.72557 78.277178 
" style="fill:none;stroke:#00bfbf;stroke-linecap:square;stroke-width:1.5;"/>
    </g>
    <g id="line2d_38"/>
    <g id="text_18">
     <!-- $u_{2}$ -->
     <g transform="translate(499.72557 81.777178)scale(0.1 -0.1)">
      <use transform="translate(0 14.943915)scale(0.996264)" xlink:href="#CMMI12-117"/>
      <use transform="translate(55.52033 0)scale(0.697382)" xlink:href="#CMR17-50"/>
     </g>
    </g>
    <g id="line2d_39">
     <path d="M 471.72557 92.214357 
L 491.72557 92.214357 
" style="fill:none;stroke:#ff0000;stroke-linecap:square;stroke-width:1.5;"/>
    </g>
    <g id="line2d_40"/>
    <g id="text_19">
     <!-- $u_{3}$ -->
     <g transform="translate(499.72557 95.714357)scale(0.1 -0.1)">
      <use transform="translate(0 14.943915)scale(0.996264)" xlink:href="#CMMI12-117"/>
      <use transform="translate(55.52033 0)scale(0.697382)" xlink:href="#CMR17-51"/>
     </g>
    </g>
    <g id="line2d_41">
     <path d="M 471.72557 106.151535 
L 491.72557 106.151535 
" style="fill:none;stroke:#008000;stroke-linecap:square;stroke-width:1.5;"/>
    </g>
    <g id="line2d_42"/>
    <g id="text_20">
     <!-- $u_{4}$ -->
     <g transform="translate(499.72557 109.651535)scale(0.1 -0.1)">
      <use transform="translate(0 14.943915)scale(0.996264)" xlink:href="#CMMI12-117"/>
      <use transform="translate(55.52033 0)scale(0.697382)" xlink:href="#CMR17-52"/>
     </g>
    </g>
    <g id="line2d_43">
     <path d="M 471.72557 120.088713 
L 491.72557 120.088713 
" style="fill:none;stroke:#0000ff;stroke-linecap:square;stroke-width:1.5;"/>
    </g>
    <g id="line2d_44"/>
    <g id="text_21">
     <!-- $u_{5}$ -->
     <g transform="translate(499.72557 123.588713)scale(0.1 -0.1)">
      <use transform="translate(0 14.943915)scale(0.996264)" xlink:href="#CMMI12-117"/>
      <use transform="translate(55.52033 0)scale(0.697382)" xlink:href="#CMR17-53"/>
     </g>
    </g>
    <g id="line2d_45">
     <path d="M 471.72557 134.025892 
L 491.72557 134.025892 
" style="fill:none;stroke:#000000;stroke-linecap:square;stroke-width:1.5;"/>
    </g>
    <g id="line2d_46"/>
    <g id="text_22">
     <!-- $u_{6}$ -->
     <defs>
      <path d="M 10.59375 34 
C 10.59375 57.65625 21.796875 63 28.296875 63 
C 30.40625 63 35.5 62.640625 37.5 59 
C 35.90625 59 32.90625 59 32.90625 55.515625 
C 32.90625 52.828125 35.09375 51.921875 36.5 51.921875 
C 37.40625 51.921875 40.09375 52.3125 40.09375 55.625 
C 40.09375 61.78125 35.09375 65.296875 28.203125 65.296875 
C 16.296875 65.296875 3.796875 52.96875 3.796875 31 
C 3.796875 3.953125 15.09375 -2 23.09375 -2 
C 32.796875 -2 42 6.671875 42 20.046875 
C 42 32.515625 33.90625 41.59375 23.703125 41.59375 
C 17.59375 41.59375 13.09375 37.609375 10.59375 30.625 
z
M 23.09375 0.390625 
C 10.796875 0.390625 10.796875 18.75 10.796875 22.4375 
C 10.796875 29.625 14.203125 40 23.5 40 
C 25.203125 40 30.09375 40 33.40625 33.125 
C 35.203125 29.21875 35.203125 25.140625 35.203125 20.140625 
C 35.203125 14.75 35.203125 10.78125 33.09375 6.78125 
C 30.90625 2.671875 27.703125 0.390625 23.09375 0.390625 
z
" id="CMR17-54"/>
     </defs>
     <g transform="translate(499.72557 137.525892)scale(0.1 -0.1)">
      <use transform="translate(0 14.943915)scale(0.996264)" xlink:href="#CMMI12-117"/>
      <use transform="translate(55.52033 0)scale(0.697382)" xlink:href="#CMR17-54"/>
     </g>
    </g>
   </g>
  </g>
 </g>
 <defs>
  <clipPath id="pddefd9976e">
   <rect height="332.64" width="446.4" x="72" y="51.84"/>
  </clipPath>
 </defs>
</svg>
