<?xml version="1.0" encoding="utf-8" standalone="no"?>
<!DOCTYPE svg PUBLIC "-//W3C//DTD SVG 1.1//EN"
  "http://www.w3.org/Graphics/SVG/1.1/DTD/svg11.dtd">
<!-- Created with matplotlib (http://matplotlib.org/) -->
<svg height="432pt" version="1.1" viewBox="0 0 576 432" width="576pt" xmlns="http://www.w3.org/2000/svg" xmlns:xlink="http://www.w3.org/1999/xlink">
 <defs>
  <style type="text/css">
*{stroke-linecap:butt;stroke-linejoin:round;}
  </style>
 </defs>
 <g id="figure_1">
  <g id="patch_1">
   <path d="M 0 432 
L 576 432 
L 576 0 
L 0 0 
z
" style="fill:#ffffff;"/>
  </g>
  <g id="axes_1">
   <g id="patch_2">
    <path d="M 72 384.48 
L 518.4 384.48 
L 518.4 51.84 
L 72 51.84 
z
" style="fill:#ffffff;"/>
   </g>
   <g id="matplotlib.axis_1">
    <g id="xtick_1">
     <g id="line2d_1">
      <path clip-path="url(#p839f4c5b4f)" d="M 92.290909 384.48 
L 92.290909 51.84 
" style="fill:none;stroke:#b0b0b0;stroke-dasharray:5.12,1.28,0.8,1.28;stroke-dashoffset:0;stroke-width:0.8;"/>
     </g>
     <g id="line2d_2">
      <defs>
       <path d="M 0 0 
L 0 3.5 
" id="med6594359e" style="stroke:#000000;stroke-width:0.8;"/>
      </defs>
      <g>
       <use style="stroke:#000000;stroke-width:0.8;" x="92.290909" xlink:href="#med6594359e" y="384.48"/>
      </g>
     </g>
     <g id="text_1">
      <!-- $0$ -->
      <defs>
       <path d="M 42 31.640625 
C 42 37.75 41.90625 48.125 37.703125 56.109375 
C 34 63.109375 28.09375 65.59375 22.90625 65.59375 
C 18.09375 65.59375 12 63.40625 8.203125 56.203125 
C 4.203125 48.71875 3.796875 39.4375 3.796875 31.640625 
C 3.796875 25.953125 3.90625 17.28125 7 9.671875 
C 11.296875 -0.609375 19 -2 22.90625 -2 
C 27.5 -2 34.5 -0.109375 38.59375 9.375 
C 41.59375 16.28125 42 24.359375 42 31.640625 
z
M 22.90625 -0.40625 
C 16.5 -0.40625 12.703125 5.078125 11.296875 12.6875 
C 10.203125 18.5625 10.203125 27.15625 10.203125 32.75 
C 10.203125 40.4375 10.203125 46.828125 11.5 52.921875 
C 13.40625 61.390625 19 64 22.90625 64 
C 27 64 32.296875 61.296875 34.203125 53.125 
C 35.5 47.4375 35.59375 40.734375 35.59375 32.75 
C 35.59375 26.25 35.59375 18.265625 34.40625 12.375 
C 32.296875 1.484375 26.40625 -0.40625 22.90625 -0.40625 
z
" id="CMR17-48"/>
      </defs>
      <g transform="translate(89.800241 398.398498)scale(0.1 -0.1)">
       <use transform="scale(0.996264)" xlink:href="#CMR17-48"/>
      </g>
     </g>
    </g>
    <g id="xtick_2">
     <g id="line2d_3">
      <path clip-path="url(#p839f4c5b4f)" d="M 149.82113 384.48 
L 149.82113 51.84 
" style="fill:none;stroke:#b0b0b0;stroke-dasharray:5.12,1.28,0.8,1.28;stroke-dashoffset:0;stroke-width:0.8;"/>
     </g>
     <g id="line2d_4">
      <g>
       <use style="stroke:#000000;stroke-width:0.8;" x="149.82113" xlink:href="#med6594359e" y="384.48"/>
      </g>
     </g>
     <g id="text_2">
      <!-- $500$ -->
      <defs>
       <path d="M 11.40625 57.6875 
C 12.40625 57.28125 16.5 56 20.703125 56 
C 30 56 35.09375 61.109375 38 64.0625 
C 38 64.953125 38 65.5 37.40625 65.5 
C 37.296875 65.5 37.09375 65.5 36.296875 65.046875 
C 32.796875 63.40625 28.703125 62.078125 23.703125 62.078125 
C 20.703125 62.078125 16.203125 62.484375 11.296875 64.671875 
C 10.203125 65.171875 10 65.171875 9.90625 65.171875 
C 9.40625 65.171875 9.296875 65.0625 9.296875 63.078125 
L 9.296875 34.421875 
C 9.296875 32.640625 9.296875 32.140625 10.296875 32.140625 
C 10.796875 32.140625 11 32.34375 11.5 33.03125 
C 14.703125 37.515625 19.09375 39.40625 24.09375 39.40625 
C 27.59375 39.40625 35.09375 37.21875 35.09375 20.140625 
C 35.09375 16.953125 35.09375 11.171875 32.09375 6.578125 
C 29.59375 2.484375 25.703125 0.390625 21.40625 0.390625 
C 14.796875 0.390625 8.09375 5 6.296875 12.71875 
C 6.703125 12.609375 7.5 12.421875 7.90625 12.421875 
C 9.203125 12.421875 11.703125 13.125 11.703125 16.21875 
C 11.703125 18.90625 9.796875 20 7.90625 20 
C 5.59375 20 4.09375 18.59375 4.09375 15.796875 
C 4.09375 7.09375 11 -2 21.59375 -2 
C 31.90625 -2 41.703125 6.875 41.703125 19.75 
C 41.703125 31.71875 33.90625 41 24.203125 41 
C 19.09375 41 14.796875 39.109375 11.40625 35.53125 
z
" id="CMR17-53"/>
      </defs>
      <g transform="translate(142.349128 398.398498)scale(0.1 -0.1)">
       <use transform="scale(0.996264)" xlink:href="#CMR17-53"/>
       <use transform="translate(45.690477 0)scale(0.996264)" xlink:href="#CMR17-48"/>
       <use transform="translate(91.380954 0)scale(0.996264)" xlink:href="#CMR17-48"/>
      </g>
     </g>
    </g>
    <g id="xtick_3">
     <g id="line2d_5">
      <path clip-path="url(#p839f4c5b4f)" d="M 207.351352 384.48 
L 207.351352 51.84 
" style="fill:none;stroke:#b0b0b0;stroke-dasharray:5.12,1.28,0.8,1.28;stroke-dashoffset:0;stroke-width:0.8;"/>
     </g>
     <g id="line2d_6">
      <g>
       <use style="stroke:#000000;stroke-width:0.8;" x="207.351352" xlink:href="#med6594359e" y="384.48"/>
      </g>
     </g>
     <g id="text_3">
      <!-- $1000$ -->
      <defs>
       <path d="M 26.59375 63.40625 
C 26.59375 65.5 26.5 65.5 25.09375 65.5 
C 21.203125 61.1875 15.296875 59.796875 9.703125 59.796875 
C 9.40625 59.796875 8.90625 59.796875 8.796875 59.5 
C 8.703125 59.296875 8.703125 59.09375 8.703125 57 
C 11.796875 57 17 57.59375 21 59.984375 
L 21 7.203125 
C 21 3.6875 20.796875 2.5 12.203125 2.5 
L 9.203125 2.5 
L 9.203125 0 
C 14 0 19 0 23.796875 0 
C 28.59375 0 33.59375 0 38.40625 0 
L 38.40625 2.5 
L 35.40625 2.5 
C 26.796875 2.5 26.59375 3.59375 26.59375 7.15625 
z
" id="CMR17-49"/>
      </defs>
      <g transform="translate(197.388681 398.398498)scale(0.1 -0.1)">
       <use transform="scale(0.996264)" xlink:href="#CMR17-49"/>
       <use transform="translate(45.690477 0)scale(0.996264)" xlink:href="#CMR17-48"/>
       <use transform="translate(91.380954 0)scale(0.996264)" xlink:href="#CMR17-48"/>
       <use transform="translate(137.071431 0)scale(0.996264)" xlink:href="#CMR17-48"/>
      </g>
     </g>
    </g>
    <g id="xtick_4">
     <g id="line2d_7">
      <path clip-path="url(#p839f4c5b4f)" d="M 264.881573 384.48 
L 264.881573 51.84 
" style="fill:none;stroke:#b0b0b0;stroke-dasharray:5.12,1.28,0.8,1.28;stroke-dashoffset:0;stroke-width:0.8;"/>
     </g>
     <g id="line2d_8">
      <g>
       <use style="stroke:#000000;stroke-width:0.8;" x="264.881573" xlink:href="#med6594359e" y="384.48"/>
      </g>
     </g>
     <g id="text_4">
      <!-- $1500$ -->
      <g transform="translate(254.918903 398.398498)scale(0.1 -0.1)">
       <use transform="scale(0.996264)" xlink:href="#CMR17-49"/>
       <use transform="translate(45.690477 0)scale(0.996264)" xlink:href="#CMR17-53"/>
       <use transform="translate(91.380954 0)scale(0.996264)" xlink:href="#CMR17-48"/>
       <use transform="translate(137.071431 0)scale(0.996264)" xlink:href="#CMR17-48"/>
      </g>
     </g>
    </g>
    <g id="xtick_5">
     <g id="line2d_9">
      <path clip-path="url(#p839f4c5b4f)" d="M 322.411795 384.48 
L 322.411795 51.84 
" style="fill:none;stroke:#b0b0b0;stroke-dasharray:5.12,1.28,0.8,1.28;stroke-dashoffset:0;stroke-width:0.8;"/>
     </g>
     <g id="line2d_10">
      <g>
       <use style="stroke:#000000;stroke-width:0.8;" x="322.411795" xlink:href="#med6594359e" y="384.48"/>
      </g>
     </g>
     <g id="text_5">
      <!-- $2000$ -->
      <defs>
       <path d="M 41.703125 15.453125 
L 39.90625 15.453125 
C 38.90625 8.375 38.09375 7.171875 37.703125 6.5625 
C 37.203125 5.765625 30 5.765625 28.59375 5.765625 
L 9.40625 5.765625 
C 13 9.671875 20 16.75 28.5 24.953125 
C 34.59375 30.734375 41.703125 37.53125 41.703125 47.421875 
C 41.703125 59.21875 32.296875 66 21.796875 66 
C 10.796875 66 4.09375 56.3125 4.09375 47.34375 
C 4.09375 43.4375 7 42.9375 8.203125 42.9375 
C 9.203125 42.9375 12.203125 43.546875 12.203125 47.03125 
C 12.203125 50.109375 9.59375 51 8.203125 51 
C 7.59375 51 7 50.90625 6.59375 50.703125 
C 8.5 59.21875 14.296875 63.40625 20.40625 63.40625 
C 29.09375 63.40625 34.796875 56.515625 34.796875 47.421875 
C 34.796875 38.734375 29.703125 31.25 24 24.75 
L 4.09375 2.28125 
L 4.09375 0 
L 39.296875 0 
z
" id="CMR17-50"/>
      </defs>
      <g transform="translate(312.449124 398.398498)scale(0.1 -0.1)">
       <use transform="scale(0.996264)" xlink:href="#CMR17-50"/>
       <use transform="translate(45.690477 0)scale(0.996264)" xlink:href="#CMR17-48"/>
       <use transform="translate(91.380954 0)scale(0.996264)" xlink:href="#CMR17-48"/>
       <use transform="translate(137.071431 0)scale(0.996264)" xlink:href="#CMR17-48"/>
      </g>
     </g>
    </g>
    <g id="xtick_6">
     <g id="line2d_11">
      <path clip-path="url(#p839f4c5b4f)" d="M 379.942016 384.48 
L 379.942016 51.84 
" style="fill:none;stroke:#b0b0b0;stroke-dasharray:5.12,1.28,0.8,1.28;stroke-dashoffset:0;stroke-width:0.8;"/>
     </g>
     <g id="line2d_12">
      <g>
       <use style="stroke:#000000;stroke-width:0.8;" x="379.942016" xlink:href="#med6594359e" y="384.48"/>
      </g>
     </g>
     <g id="text_6">
      <!-- $2500$ -->
      <g transform="translate(369.979346 398.398498)scale(0.1 -0.1)">
       <use transform="scale(0.996264)" xlink:href="#CMR17-50"/>
       <use transform="translate(45.690477 0)scale(0.996264)" xlink:href="#CMR17-53"/>
       <use transform="translate(91.380954 0)scale(0.996264)" xlink:href="#CMR17-48"/>
       <use transform="translate(137.071431 0)scale(0.996264)" xlink:href="#CMR17-48"/>
      </g>
     </g>
    </g>
    <g id="xtick_7">
     <g id="line2d_13">
      <path clip-path="url(#p839f4c5b4f)" d="M 437.472238 384.48 
L 437.472238 51.84 
" style="fill:none;stroke:#b0b0b0;stroke-dasharray:5.12,1.28,0.8,1.28;stroke-dashoffset:0;stroke-width:0.8;"/>
     </g>
     <g id="line2d_14">
      <g>
       <use style="stroke:#000000;stroke-width:0.8;" x="437.472238" xlink:href="#med6594359e" y="384.48"/>
      </g>
     </g>
     <g id="text_7">
      <!-- $3000$ -->
      <defs>
       <path d="M 22.09375 33.703125 
C 31 33.703125 34.90625 25.96875 34.90625 17.03125 
C 34.90625 5 28.5 0.390625 22.703125 0.390625 
C 17.40625 0.390625 8.796875 3.03125 6.09375 10.828125 
C 6.59375 10.625 7.09375 10.625 7.59375 10.625 
C 10 10.625 11.796875 12.21875 11.796875 14.8125 
C 11.796875 17.703125 9.59375 19 7.59375 19 
C 5.90625 19 3.296875 18.203125 3.296875 14.46875 
C 3.296875 5.234375 12.296875 -2 22.90625 -2 
C 34 -2 42.5 6.71875 42.5 16.953125 
C 42.5 26.671875 34.5 33.703125 25 34.796875 
C 32.59375 36.375 39.90625 43.0625 39.90625 52.015625 
C 39.90625 59.6875 32 65.296875 23 65.296875 
C 13.90625 65.296875 5.90625 59.828125 5.90625 52.015625 
C 5.90625 48.59375 8.5 48 9.796875 48 
C 11.90625 48 13.703125 49.296875 13.703125 51.890625 
C 13.703125 54.46875 11.90625 55.765625 9.796875 55.765625 
C 9.40625 55.765625 8.90625 55.765625 8.5 55.578125 
C 11.40625 61.859375 19.296875 63 22.796875 63 
C 26.296875 63 32.90625 61.328125 32.90625 51.875 
C 32.90625 49.109375 32.5 44.1875 29.09375 39.84375 
C 26.09375 36 22.703125 36 19.40625 35.6875 
C 18.90625 35.6875 16.59375 35.453125 16.203125 35.453125 
C 15.5 35.359375 15.09375 35.265625 15.09375 34.5 
C 15.09375 33.796875 15.203125 33.703125 17.203125 33.703125 
z
" id="CMR17-51"/>
      </defs>
      <g transform="translate(427.509567 398.398498)scale(0.1 -0.1)">
       <use transform="scale(0.996264)" xlink:href="#CMR17-51"/>
       <use transform="translate(45.690477 0)scale(0.996264)" xlink:href="#CMR17-48"/>
       <use transform="translate(91.380954 0)scale(0.996264)" xlink:href="#CMR17-48"/>
       <use transform="translate(137.071431 0)scale(0.996264)" xlink:href="#CMR17-48"/>
      </g>
     </g>
    </g>
    <g id="xtick_8">
     <g id="line2d_15">
      <path clip-path="url(#p839f4c5b4f)" d="M 495.002459 384.48 
L 495.002459 51.84 
" style="fill:none;stroke:#b0b0b0;stroke-dasharray:5.12,1.28,0.8,1.28;stroke-dashoffset:0;stroke-width:0.8;"/>
     </g>
     <g id="line2d_16">
      <g>
       <use style="stroke:#000000;stroke-width:0.8;" x="495.002459" xlink:href="#med6594359e" y="384.48"/>
      </g>
     </g>
     <g id="text_8">
      <!-- $3500$ -->
      <g transform="translate(485.039788 398.398498)scale(0.1 -0.1)">
       <use transform="scale(0.996264)" xlink:href="#CMR17-51"/>
       <use transform="translate(45.690477 0)scale(0.996264)" xlink:href="#CMR17-53"/>
       <use transform="translate(91.380954 0)scale(0.996264)" xlink:href="#CMR17-48"/>
       <use transform="translate(137.071431 0)scale(0.996264)" xlink:href="#CMR17-48"/>
      </g>
     </g>
    </g>
    <g id="text_9">
     <!-- Iteration -->
     <defs>
      <path d="M 17.09375 69 
L 8.703125 69 
L 8.703125 0 
L 17.09375 0 
z
" id="CMSS17-73"/>
      <path d="M 16.703125 37 
L 29.703125 37 
L 29.703125 42.765625 
L 16.703125 42.765625 
L 16.703125 55 
L 9.59375 55 
L 9.59375 42.765625 
L 1.703125 42.765625 
L 1.703125 37 
L 9.40625 37 
L 9.40625 11.703125 
C 9.40625 6 10.703125 -1 17.296875 -1 
C 22.296875 -1 26.90625 0.390625 31.296875 2.6875 
L 29.703125 8.5625 
C 27.296875 6.46875 24.40625 5.265625 21.296875 5.265625 
C 16.90625 5.265625 16.703125 10.875 16.703125 13.375 
z
" id="CMSS17-116"/>
      <path d="M 39.09375 21.515625 
C 39.09375 24.84375 38.90625 31.296875 35.703125 36.640625 
C 32.203125 42.390625 26.5 44 22.203125 44 
C 11.796875 44 3 34.1875 3 21.484375 
C 3 9.09375 12.09375 -1 23.59375 -1 
C 28.09375 -1 33.59375 0.296875 38.59375 3.875 
C 38.59375 4.28125 38.40625 6.46875 38.296875 6.5625 
C 38.296875 6.765625 38 9.84375 38 10.25 
C 33.203125 6.359375 27.703125 5.078125 23.703125 5.078125 
C 17.296875 5.078125 10.40625 10.421875 10.09375 21.515625 
z
M 10.90625 27 
C 12.203125 32.5625 16.59375 37.828125 22.203125 37.828125 
C 23.703125 37.828125 30.703125 37.828125 32.5 27 
z
" id="CMSS17-101"/>
      <path d="M 14.90625 21.296875 
C 14.90625 30.703125 21.796875 37 30.59375 37 
L 30.59375 43.578125 
C 24.203125 43.578125 18.203125 40.390625 14.59375 35.203125 
L 14.59375 43.09375 
L 7.5 43.09375 
L 7.5 0 
L 14.90625 0 
z
" id="CMSS17-114"/>
      <path d="M 37.59375 27.984375 
C 37.59375 37.375 30.90625 43.875 21.90625 43.875 
C 17.5 43.875 12.703125 43.078125 7.203125 39.890625 
L 7.796875 33.359375 
C 10.296875 35.125 14.59375 38 21.796875 38 
C 26.90625 38 30 34.0625 30 27.84375 
L 30 24 
C 14 24 4 19.34375 4 11.34375 
C 4 7.203125 6.5 -1 14.796875 -1 
C 16.296875 -1 24.40625 -1 30.203125 3.390625 
L 30.203125 -0.296875 
L 37.59375 -0.296875 
z
M 30 12.75 
C 30 10.953125 30 8.5625 27 6.78125 
C 24.40625 5.078125 21.09375 5.078125 19.703125 5.078125 
C 14.703125 5.078125 11.296875 7.984375 11.296875 11.625 
C 11.296875 18.921875 26.90625 18.921875 30 18.921875 
z
" id="CMSS17-97"/>
      <path d="M 15.296875 65.359375 
L 6.90625 65.359375 
L 6.90625 57 
L 15.296875 57 
z
M 14.796875 42.796875 
L 7.40625 42.796875 
L 7.40625 0 
L 14.796875 0 
z
" id="CMSS17-105"/>
      <path d="M 44.203125 21.1875 
C 44.203125 34 34.703125 44 23.5 44 
C 12 44 2.703125 33.703125 2.703125 21.1875 
C 2.703125 8.5 12.296875 -1 23.40625 -1 
C 34.796875 -1 44.203125 8.796875 44.203125 21.1875 
z
M 23.5 5.265625 
C 16.40625 5.265625 10.296875 11.078125 10.296875 22 
C 10.296875 33.609375 17.40625 37.921875 23.40625 37.921875 
C 29.90625 37.921875 36.59375 33.21875 36.59375 22 
C 36.59375 10.671875 30.09375 5.265625 23.5 5.265625 
z
" id="CMSS17-111"/>
      <path d="M 40.90625 29.328125 
C 40.90625 35.671875 39.40625 44 28.09375 44 
C 21.703125 44 17.5 40.71875 14.703125 37.328125 
L 14.703125 43.09375 
L 7.40625 43.09375 
L 7.40625 0 
L 15 0 
L 15 24.359375 
C 15 30.6875 17.40625 37.9375 24.203125 37.9375 
C 33 37.9375 33.296875 32 33.296875 28.578125 
L 33.296875 0 
L 40.90625 0 
z
" id="CMSS17-110"/>
     </defs>
     <g transform="translate(271.264003 414.021553)scale(0.14 -0.14)">
      <use transform="scale(0.996264)" xlink:href="#CMSS17-73"/>
      <use transform="translate(25.783926 0)scale(0.996264)" xlink:href="#CMSS17-116"/>
      <use transform="translate(59.615492 0)scale(0.996264)" xlink:href="#CMSS17-101"/>
      <use transform="translate(101.254314 0)scale(0.996264)" xlink:href="#CMSS17-114"/>
      <use transform="translate(133.164087 0)scale(0.996264)" xlink:href="#CMSS17-97"/>
      <use transform="translate(178.086007 0)scale(0.996264)" xlink:href="#CMSS17-116"/>
      <use transform="translate(211.917574 0)scale(0.996264)" xlink:href="#CMSS17-105"/>
      <use transform="translate(234.098297 0)scale(0.996264)" xlink:href="#CMSS17-111"/>
      <use transform="translate(280.941921 0)scale(0.996264)" xlink:href="#CMSS17-110"/>
     </g>
    </g>
   </g>
   <g id="matplotlib.axis_2">
    <g id="ytick_1">
     <g id="line2d_17">
      <path clip-path="url(#p839f4c5b4f)" d="M 72 363.441488 
L 518.4 363.441488 
" style="fill:none;stroke:#b0b0b0;stroke-dasharray:5.12,1.28,0.8,1.28;stroke-dashoffset:0;stroke-width:0.8;"/>
     </g>
     <g id="line2d_18">
      <defs>
       <path d="M 0 0 
L -3.5 0 
" id="mc67131d6ae" style="stroke:#000000;stroke-width:0.8;"/>
      </defs>
      <g>
       <use style="stroke:#000000;stroke-width:0.8;" x="72" xlink:href="#mc67131d6ae" y="363.441488"/>
      </g>
     </g>
     <g id="text_10">
      <!-- $310$ -->
      <g transform="translate(50.055994 366.900737)scale(0.1 -0.1)">
       <use transform="scale(0.996264)" xlink:href="#CMR17-51"/>
       <use transform="translate(45.690477 0)scale(0.996264)" xlink:href="#CMR17-49"/>
       <use transform="translate(91.380954 0)scale(0.996264)" xlink:href="#CMR17-48"/>
      </g>
     </g>
    </g>
    <g id="ytick_2">
     <g id="line2d_19">
      <path clip-path="url(#p839f4c5b4f)" d="M 72 326.381302 
L 518.4 326.381302 
" style="fill:none;stroke:#b0b0b0;stroke-dasharray:5.12,1.28,0.8,1.28;stroke-dashoffset:0;stroke-width:0.8;"/>
     </g>
     <g id="line2d_20">
      <g>
       <use style="stroke:#000000;stroke-width:0.8;" x="72" xlink:href="#mc67131d6ae" y="326.381302"/>
      </g>
     </g>
     <g id="text_11">
      <!-- $315$ -->
      <g transform="translate(50.055994 329.840551)scale(0.1 -0.1)">
       <use transform="scale(0.996264)" xlink:href="#CMR17-51"/>
       <use transform="translate(45.690477 0)scale(0.996264)" xlink:href="#CMR17-49"/>
       <use transform="translate(91.380954 0)scale(0.996264)" xlink:href="#CMR17-53"/>
      </g>
     </g>
    </g>
    <g id="ytick_3">
     <g id="line2d_21">
      <path clip-path="url(#p839f4c5b4f)" d="M 72 289.321116 
L 518.4 289.321116 
" style="fill:none;stroke:#b0b0b0;stroke-dasharray:5.12,1.28,0.8,1.28;stroke-dashoffset:0;stroke-width:0.8;"/>
     </g>
     <g id="line2d_22">
      <g>
       <use style="stroke:#000000;stroke-width:0.8;" x="72" xlink:href="#mc67131d6ae" y="289.321116"/>
      </g>
     </g>
     <g id="text_12">
      <!-- $320$ -->
      <g transform="translate(50.055994 292.780365)scale(0.1 -0.1)">
       <use transform="scale(0.996264)" xlink:href="#CMR17-51"/>
       <use transform="translate(45.690477 0)scale(0.996264)" xlink:href="#CMR17-50"/>
       <use transform="translate(91.380954 0)scale(0.996264)" xlink:href="#CMR17-48"/>
      </g>
     </g>
    </g>
    <g id="ytick_4">
     <g id="line2d_23">
      <path clip-path="url(#p839f4c5b4f)" d="M 72 252.26093 
L 518.4 252.26093 
" style="fill:none;stroke:#b0b0b0;stroke-dasharray:5.12,1.28,0.8,1.28;stroke-dashoffset:0;stroke-width:0.8;"/>
     </g>
     <g id="line2d_24">
      <g>
       <use style="stroke:#000000;stroke-width:0.8;" x="72" xlink:href="#mc67131d6ae" y="252.26093"/>
      </g>
     </g>
     <g id="text_13">
      <!-- $325$ -->
      <g transform="translate(50.055994 255.720179)scale(0.1 -0.1)">
       <use transform="scale(0.996264)" xlink:href="#CMR17-51"/>
       <use transform="translate(45.690477 0)scale(0.996264)" xlink:href="#CMR17-50"/>
       <use transform="translate(91.380954 0)scale(0.996264)" xlink:href="#CMR17-53"/>
      </g>
     </g>
    </g>
    <g id="ytick_5">
     <g id="line2d_25">
      <path clip-path="url(#p839f4c5b4f)" d="M 72 215.200744 
L 518.4 215.200744 
" style="fill:none;stroke:#b0b0b0;stroke-dasharray:5.12,1.28,0.8,1.28;stroke-dashoffset:0;stroke-width:0.8;"/>
     </g>
     <g id="line2d_26">
      <g>
       <use style="stroke:#000000;stroke-width:0.8;" x="72" xlink:href="#mc67131d6ae" y="215.200744"/>
      </g>
     </g>
     <g id="text_14">
      <!-- $330$ -->
      <g transform="translate(50.055994 218.659993)scale(0.1 -0.1)">
       <use transform="scale(0.996264)" xlink:href="#CMR17-51"/>
       <use transform="translate(45.690477 0)scale(0.996264)" xlink:href="#CMR17-51"/>
       <use transform="translate(91.380954 0)scale(0.996264)" xlink:href="#CMR17-48"/>
      </g>
     </g>
    </g>
    <g id="ytick_6">
     <g id="line2d_27">
      <path clip-path="url(#p839f4c5b4f)" d="M 72 178.140558 
L 518.4 178.140558 
" style="fill:none;stroke:#b0b0b0;stroke-dasharray:5.12,1.28,0.8,1.28;stroke-dashoffset:0;stroke-width:0.8;"/>
     </g>
     <g id="line2d_28">
      <g>
       <use style="stroke:#000000;stroke-width:0.8;" x="72" xlink:href="#mc67131d6ae" y="178.140558"/>
      </g>
     </g>
     <g id="text_15">
      <!-- $335$ -->
      <g transform="translate(50.055994 181.599807)scale(0.1 -0.1)">
       <use transform="scale(0.996264)" xlink:href="#CMR17-51"/>
       <use transform="translate(45.690477 0)scale(0.996264)" xlink:href="#CMR17-51"/>
       <use transform="translate(91.380954 0)scale(0.996264)" xlink:href="#CMR17-53"/>
      </g>
     </g>
    </g>
    <g id="ytick_7">
     <g id="line2d_29">
      <path clip-path="url(#p839f4c5b4f)" d="M 72 141.080372 
L 518.4 141.080372 
" style="fill:none;stroke:#b0b0b0;stroke-dasharray:5.12,1.28,0.8,1.28;stroke-dashoffset:0;stroke-width:0.8;"/>
     </g>
     <g id="line2d_30">
      <g>
       <use style="stroke:#000000;stroke-width:0.8;" x="72" xlink:href="#mc67131d6ae" y="141.080372"/>
      </g>
     </g>
     <g id="text_16">
      <!-- $340$ -->
      <defs>
       <path d="M 33.59375 64.40625 
C 33.59375 66.5 33.5 66.5 31.703125 66.5 
L 2 19.59375 
L 2 17 
L 27.796875 17 
L 27.796875 7.140625 
C 27.796875 3.5 27.59375 2.5 20.59375 2.5 
L 18.703125 2.5 
L 18.703125 0 
C 21.90625 0 27.296875 0 30.703125 0 
C 34.09375 0 39.5 0 42.703125 0 
L 42.703125 2.5 
L 40.796875 2.5 
C 33.796875 2.5 33.59375 3.5 33.59375 7.140625 
L 33.59375 17 
L 43.796875 17 
L 43.796875 19.59375 
L 33.59375 19.59375 
z
M 28.09375 57.859375 
L 28.09375 19.59375 
L 4 19.59375 
z
" id="CMR17-52"/>
      </defs>
      <g transform="translate(50.055994 144.539621)scale(0.1 -0.1)">
       <use transform="scale(0.996264)" xlink:href="#CMR17-51"/>
       <use transform="translate(45.690477 0)scale(0.996264)" xlink:href="#CMR17-52"/>
       <use transform="translate(91.380954 0)scale(0.996264)" xlink:href="#CMR17-48"/>
      </g>
     </g>
    </g>
    <g id="ytick_8">
     <g id="line2d_31">
      <path clip-path="url(#p839f4c5b4f)" d="M 72 104.020186 
L 518.4 104.020186 
" style="fill:none;stroke:#b0b0b0;stroke-dasharray:5.12,1.28,0.8,1.28;stroke-dashoffset:0;stroke-width:0.8;"/>
     </g>
     <g id="line2d_32">
      <g>
       <use style="stroke:#000000;stroke-width:0.8;" x="72" xlink:href="#mc67131d6ae" y="104.020186"/>
      </g>
     </g>
     <g id="text_17">
      <!-- $345$ -->
      <g transform="translate(50.055994 107.479435)scale(0.1 -0.1)">
       <use transform="scale(0.996264)" xlink:href="#CMR17-51"/>
       <use transform="translate(45.690477 0)scale(0.996264)" xlink:href="#CMR17-52"/>
       <use transform="translate(91.380954 0)scale(0.996264)" xlink:href="#CMR17-53"/>
      </g>
     </g>
    </g>
    <g id="ytick_9">
     <g id="line2d_33">
      <path clip-path="url(#p839f4c5b4f)" d="M 72 66.96 
L 518.4 66.96 
" style="fill:none;stroke:#b0b0b0;stroke-dasharray:5.12,1.28,0.8,1.28;stroke-dashoffset:0;stroke-width:0.8;"/>
     </g>
     <g id="line2d_34">
      <g>
       <use style="stroke:#000000;stroke-width:0.8;" x="72" xlink:href="#mc67131d6ae" y="66.96"/>
      </g>
     </g>
     <g id="text_18">
      <!-- $350$ -->
      <g transform="translate(50.055994 70.419249)scale(0.1 -0.1)">
       <use transform="scale(0.996264)" xlink:href="#CMR17-51"/>
       <use transform="translate(45.690477 0)scale(0.996264)" xlink:href="#CMR17-53"/>
       <use transform="translate(91.380954 0)scale(0.996264)" xlink:href="#CMR17-48"/>
      </g>
     </g>
    </g>
    <g id="text_19">
     <!-- $u_{m}$ -->
     <defs>
      <path d="M 34.09375 5.78125 
C 35.40625 0.203125 40.203125 -1 42.59375 -1 
C 45.796875 -1 48.203125 1.09375 49.796875 4.484375 
C 51.5 8.078125 52.796875 13.96875 52.796875 14.265625 
C 52.796875 14.765625 52.40625 15.171875 51.796875 15.171875 
C 50.90625 15.171875 50.796875 14.671875 50.40625 13.171875 
C 48.59375 6.28125 46.796875 1 42.796875 1 
C 39.796875 1 39.796875 4.296875 39.796875 5.59375 
C 39.796875 7.890625 40.09375 8.875 41.09375 13.078125 
C 41.796875 15.765625 42.5 18.453125 43.09375 21.25 
L 47.203125 37.515625 
C 47.90625 40.015625 47.90625 40.21875 47.90625 40.515625 
C 47.90625 42.015625 46.703125 43.015625 45.203125 43.015625 
C 42.296875 43.015625 41.59375 40.515625 41 38.015625 
C 40 34.125 34.59375 12.671875 33.90625 9.1875 
C 33.796875 9.1875 29.90625 1 22.59375 1 
C 17.40625 1 16.40625 5.484375 16.40625 9.1875 
C 16.40625 14.875 19.203125 22.84375 21.796875 29.53125 
C 23 32.734375 23.5 34.03125 23.5 36.015625 
C 23.5 40.3125 20.40625 44 15.59375 44 
C 6.40625 44 2.703125 29.53125 2.703125 28.734375 
C 2.703125 28.34375 3.09375 27.84375 3.796875 27.84375 
C 4.703125 27.84375 4.796875 28.234375 5.203125 29.625 
C 7.59375 38.140625 11.5 41.90625 15.296875 41.90625 
C 16.296875 41.90625 17.90625 41.90625 17.90625 38.71875 
C 17.90625 36.125 16.796875 33.234375 15.296875 29.4375 
C 10.90625 17.5625 10.40625 13.765625 10.40625 10.78125 
C 10.40625 0.59375 18.09375 -1 22.203125 -1 
C 28.59375 -1 32.09375 3.390625 34.09375 5.78125 
z
" id="CMMI12-117"/>
      <path d="M 20.59375 29.234375 
C 20.796875 29.84375 23.296875 34.828125 27 38.015625 
C 29.59375 40.40625 33 42.015625 36.90625 42.015625 
C 40.90625 42.015625 42.296875 39.015625 42.296875 35.03125 
C 42.296875 34.421875 42.296875 32.4375 41.09375 27.734375 
L 38.59375 17.46875 
C 37.796875 14.46875 35.90625 7.078125 35.703125 5.984375 
C 35.296875 4.484375 34.703125 1.890625 34.703125 1.5 
C 34.703125 0.09375 35.796875 -1 37.296875 -1 
C 40.296875 -1 40.796875 1.296875 41.703125 4.890625 
L 47.703125 28.734375 
C 47.90625 29.53125 53.09375 42.015625 64.09375 42.015625 
C 68.09375 42.015625 69.5 39.015625 69.5 35.03125 
C 69.5 29.4375 65.59375 18.5625 63.40625 12.578125 
C 62.5 10.171875 62 8.875 62 7.078125 
C 62 2.59375 65.09375 -1 69.90625 -1 
C 79.203125 -1 82.703125 13.671875 82.703125 14.265625 
C 82.703125 14.765625 82.296875 15.171875 81.703125 15.171875 
C 80.796875 15.171875 80.703125 14.875 80.203125 13.171875 
C 77.90625 5.1875 74.203125 1 70.203125 1 
C 69.203125 1 67.59375 1 67.59375 4.203125 
C 67.59375 6.8125 68.796875 10 69.203125 11.09375 
C 71 15.90625 75.5 27.703125 75.5 33.515625 
C 75.5 39.5 72 44 64.40625 44 
C 57.703125 44 52.296875 40.21875 48.296875 34.328125 
C 48 39.71875 44.703125 44 37.203125 44 
C 28.296875 44 23.59375 37.734375 21.796875 35.234375 
C 21.5 40.90625 17.40625 44 13 44 
C 10.09375 44 7.796875 42.609375 5.90625 38.8125 
C 4.09375 35.21875 2.703125 29.140625 2.703125 28.734375 
C 2.703125 28.34375 3.09375 27.84375 3.796875 27.84375 
C 4.59375 27.84375 4.703125 27.9375 5.296875 30.234375 
C 6.796875 36.125 8.703125 42.015625 12.703125 42.015625 
C 15 42.015625 15.796875 40.40625 15.796875 37.421875 
C 15.796875 35.21875 14.796875 31.328125 14.09375 28.234375 
L 11.296875 17.46875 
C 10.90625 15.5625 9.796875 11.078125 9.296875 9.28125 
C 8.59375 6.6875 7.5 2 7.5 1.5 
C 7.5 0.09375 8.59375 -1 10.09375 -1 
C 11.296875 -1 12.703125 -0.40625 13.5 1.09375 
C 13.703125 1.59375 14.59375 5.09375 15.09375 7.078125 
L 17.296875 16.0625 
z
" id="CMMI12-109"/>
     </defs>
     <g transform="translate(43.343966 226.466642)rotate(-90)scale(0.14 -0.14)">
      <use transform="translate(0 14.943915)scale(0.996264)" xlink:href="#CMMI12-117"/>
      <use transform="translate(55.52033 0)scale(0.697382)" xlink:href="#CMMI12-109"/>
     </g>
    </g>
   </g>
   <g id="line2d_35">
    <path clip-path="url(#p839f4c5b4f)" d="M 92.290909 66.96 
L 92.40597 66.96 
L 92.52103 66.96 
L 92.751151 67.564081 
L 93.096332 69.377065 
L 93.786695 74.690755 
L 95.397541 89.863936 
L 97.353569 109.439126 
L 110.585519 246.188248 
L 114.612635 287.294665 
L 115.533119 292.325956 
L 118.754811 307.761524 
L 120.250597 313.493252 
L 121.631322 317.953075 
L 122.781926 320.923078 
L 123.70241 322.745698 
L 124.507833 323.913835 
L 125.198196 324.58833 
L 125.888558 324.959674 
L 126.463861 325.038982 
L 127.039163 324.912236 
L 127.614465 324.585366 
L 128.304828 323.937554 
L 129.110251 322.848725 
L 130.030734 321.202512 
L 131.181339 318.618676 
L 132.562064 314.90228 
L 134.518092 308.912613 
L 138.200026 297.553666 
L 139.695812 293.690512 
L 140.961476 291.024402 
L 141.99702 289.328528 
L 142.917504 288.22117 
L 143.722927 287.57484 
L 144.52835 287.235369 
L 145.218713 287.187191 
L 145.909075 287.359891 
L 146.599438 287.745317 
L 147.404861 288.451684 
L 148.325345 289.573867 
L 149.360889 291.192656 
L 150.626554 293.599344 
L 152.35246 297.42099 
L 157.645241 309.539671 
L 159.025966 311.98342 
L 160.17657 313.602209 
L 161.212114 314.69252 
L 162.132598 315.350708 
L 162.938021 315.680544 
L 163.743444 315.779124 
L 164.548867 315.650896 
L 165.35429 315.303271 
L 166.274774 314.653236 
L 167.310318 313.626669 
L 168.460922 312.167239 
L 169.956708 309.875437 
L 172.142856 306.041931 
L 175.479609 300.199763 
L 177.090455 297.838288 
L 178.35612 296.340315 
L 179.506725 295.304113 
L 180.542269 294.660007 
L 181.462752 294.327206 
L 182.383236 294.221955 
L 183.303719 294.339807 
L 184.224203 294.671866 
L 185.259747 295.284841 
L 186.410351 296.2321 
L 187.791077 297.675965 
L 189.516983 299.819526 
L 195.270005 307.244163 
L 196.765791 308.667275 
L 198.031456 309.573025 
L 199.18206 310.131152 
L 200.332665 310.423927 
L 201.368209 310.458764 
L 202.403753 310.283099 
L 203.554357 309.856165 
L 204.820022 309.131268 
L 206.315808 307.988332 
L 208.156775 306.276893 
L 214.139918 300.49328 
L 215.635704 299.457818 
L 217.016429 298.76331 
L 218.282094 298.371955 
L 219.547759 298.224455 
L 220.813424 298.317106 
L 222.079089 298.638047 
L 223.459814 299.219892 
L 225.07066 300.151585 
L 227.256809 301.711819 
L 232.204408 305.375589 
L 233.930314 306.350272 
L 235.4261 306.966212 
L 236.921886 307.338296 
L 238.302611 307.454665 
L 239.683336 307.356085 
L 241.179122 307.022543 
L 242.789968 306.43551 
L 244.745996 305.481581 
L 248.42793 303.365444 
L 251.07432 301.966793 
L 253.030348 301.17667 
L 254.641194 300.740101 
L 256.25204 300.521446 
L 257.862886 300.526634 
L 259.588793 300.767525 
L 261.42976 301.255979 
L 263.846029 302.162471 
L 270.979777 305.033153 
L 272.935804 305.496405 
L 274.776771 305.71506 
L 276.732799 305.706166 
L 278.688826 305.465274 
L 280.874975 304.967927 
L 283.866546 304.045869 
L 288.584025 302.576804 
L 291.000294 302.061667 
L 293.186442 301.820776 
L 295.372591 301.812623 
L 297.6738 302.040913 
L 300.32019 302.53752 
L 304.807547 303.632278 
L 308.374421 304.376446 
L 311.020811 304.694423 
L 313.552141 304.762613 
L 316.08347 304.604737 
L 319.305163 304.148897 
L 328.049756 302.704291 
L 330.926267 302.529367 
L 333.802779 302.581992 
L 337.139531 302.884403 
L 348.645576 304.184474 
L 351.982329 304.187439 
L 355.549202 303.964337 
L 367.97573 302.947405 
L 371.542604 302.986689 
L 376.260082 303.2765 
L 385.349857 303.86798 
L 389.261912 303.885769 
L 394.324571 303.680456 
L 404.680011 303.187555 
L 409.857731 303.226839 
L 427.80716 303.696762 
L 438.04754 303.388422 
L 445.066227 303.315042 
L 453.120458 303.475884 
L 462.900595 303.619677 
L 471.069887 303.509238 
L 482.806052 303.391386 
L 491.895827 303.501826 
L 497.99403 303.55964 
L 497.99403 303.55964 
" style="fill:none;stroke:#bf00bf;stroke-linecap:square;stroke-width:1.5;"/>
   </g>
   <g id="line2d_36">
    <path clip-path="url(#p839f4c5b4f)" d="M 92.290909 66.96 
L 92.40597 66.96 
L 92.52103 66.96 
L 92.751151 67.462536 
L 93.096332 69.169528 
L 93.671634 73.557454 
L 95.742722 92.708676 
L 112.886728 269.775574 
L 117.949388 321.655387 
L 118.40963 325.044912 
L 119.099992 328.162415 
L 120.020476 331.380721 
L 120.940959 333.889696 
L 121.861443 335.773836 
L 122.666866 336.950867 
L 123.357229 337.630551 
L 124.047591 338.018942 
L 124.737954 338.12864 
L 125.428317 337.972987 
L 126.118679 337.565325 
L 126.924102 336.79225 
L 127.844586 335.54851 
L 128.88013 333.745902 
L 130.145795 331.066451 
L 131.871701 326.821577 
L 136.8193 314.21889 
L 138.200026 311.423811 
L 139.35063 309.541895 
L 140.386174 308.246271 
L 141.306658 307.434653 
L 142.112081 306.997343 
L 142.917504 306.815006 
L 143.722927 306.886162 
L 144.52835 307.202656 
L 145.448834 307.850468 
L 146.369317 308.779937 
L 147.519922 310.291993 
L 148.900647 312.526722 
L 150.741614 315.990367 
L 155.228971 324.672828 
L 156.724757 327.017996 
L 157.990422 328.604913 
L 159.025966 329.589973 
L 160.06151 330.268175 
L 160.981993 330.605422 
L 161.902477 330.691402 
L 162.822961 330.530561 
L 163.743444 330.133275 
L 164.778988 329.423944 
L 165.929592 328.346233 
L 167.310318 326.719291 
L 169.151285 324.153985 
L 174.213944 316.824963 
L 175.70973 315.132795 
L 176.975395 314.013577 
L 178.125999 313.280526 
L 179.161543 312.868417 
L 180.197087 312.697199 
L 181.232631 312.763166 
L 182.268175 313.057424 
L 183.41878 313.632598 
L 184.684445 314.53242 
L 186.18023 315.88734 
L 188.251318 318.107986 
L 192.738676 323.01179 
L 194.349522 324.401547 
L 195.730247 325.31471 
L 196.995912 325.892108 
L 198.146516 326.186366 
L 199.297121 326.257521 
L 200.447725 326.110022 
L 201.71339 325.711254 
L 203.094116 325.025641 
L 204.704962 323.956825 
L 207.006171 322.102333 
L 211.378467 318.500824 
L 213.104374 317.38383 
L 214.60016 316.662639 
L 215.980885 316.232 
L 217.36161 316.042252 
L 218.742336 316.093395 
L 220.123061 316.372087 
L 221.618847 316.902789 
L 223.344753 317.755915 
L 225.645962 319.15086 
L 230.24838 321.991894 
L 232.204408 322.901351 
L 233.815254 323.41797 
L 235.31104 323.684062 
L 236.921886 323.730758 
L 238.532732 323.538045 
L 240.258639 323.094805 
L 242.214666 322.358048 
L 245.321298 320.89936 
L 249.003232 319.214603 
L 251.189381 318.474882 
L 253.030348 318.083527 
L 254.871315 317.933062 
L 256.597221 318.010889 
L 258.553249 318.333312 
L 260.739397 318.929981 
L 263.846029 320.022516 
L 268.103266 321.470086 
L 270.404475 322.0082 
L 272.475563 322.267622 
L 274.546651 322.295046 
L 276.617738 322.100851 
L 278.918947 321.671694 
L 282.2557 320.806709 
L 287.088239 319.577052 
L 289.734629 319.157531 
L 292.035838 319.012996 
L 294.452107 319.091564 
L 296.983437 319.393975 
L 300.32019 320.01881 
L 306.418393 321.167675 
L 309.294904 321.449333 
L 312.056355 321.484169 
L 314.932866 321.288491 
L 319.075042 320.724435 
L 324.943124 319.886875 
L 328.279877 319.647466 
L 331.386509 319.652655 
L 334.953383 319.900217 
L 347.725092 321.032776 
L 351.637147 320.951244 
L 356.469686 320.591019 
L 363.718494 320.045493 
L 367.745609 319.973596 
L 372.578148 320.144814 
L 385.234797 320.772614 
L 389.952275 320.694046 
L 406.060737 320.178168 
L 412.849303 320.373846 
L 422.169199 320.622891 
L 428.382463 320.555441 
L 443.110199 320.284902 
L 453.005397 320.458343 
L 462.555414 320.533205 
L 491.435585 320.457602 
L 498.109091 320.492439 
L 498.109091 320.492439 
" style="fill:none;stroke:#00bfbf;stroke-linecap:square;stroke-width:1.5;"/>
   </g>
   <g id="line2d_37">
    <path clip-path="url(#p839f4c5b4f)" d="M 92.290909 66.96 
L 92.40597 66.96 
L 92.52103 66.96 
L 92.751151 67.860563 
L 93.211393 71.519144 
L 94.361997 83.680815 
L 96.318025 103.92383 
L 118.294569 329.679659 
L 118.984932 332.994322 
L 119.905415 336.313432 
L 120.825899 338.906163 
L 121.746382 340.865164 
L 122.551806 342.102974 
L 123.357229 342.924228 
L 124.047591 343.312619 
L 124.737954 343.423058 
L 125.428317 343.267405 
L 126.118679 342.859743 
L 126.924102 342.085927 
L 127.844586 340.842928 
L 128.88013 339.040321 
L 130.145795 336.360869 
L 131.871701 332.115254 
L 136.934361 319.260558 
L 138.315086 316.509951 
L 139.465691 314.672507 
L 140.501235 313.421355 
L 141.421718 312.651245 
L 142.227141 312.249512 
L 143.032564 312.104236 
L 143.837987 312.21097 
L 144.643411 312.5623 
L 145.448834 313.144886 
L 146.369317 314.074356 
L 147.519922 315.586411 
L 148.900647 317.82114 
L 150.741614 321.284785 
L 155.344032 330.162924 
L 156.839818 332.472514 
L 158.105482 334.023113 
L 159.141026 334.974818 
L 160.17657 335.618183 
L 161.097054 335.9243 
L 162.017537 335.978408 
L 162.938021 335.787177 
L 163.858505 335.361727 
L 164.894049 334.623488 
L 166.044653 333.517612 
L 167.425378 331.864727 
L 169.266345 329.277926 
L 174.213944 322.119381 
L 175.70973 320.427213 
L 176.975395 319.307995 
L 178.125999 318.574945 
L 179.161543 318.162835 
L 180.197087 317.990876 
L 181.232631 318.056843 
L 182.268175 318.351842 
L 183.41878 318.927016 
L 184.684445 319.826838 
L 186.18023 321.181758 
L 188.251318 323.402405 
L 192.738676 328.306208 
L 194.349522 329.695965 
L 195.730247 330.609128 
L 196.995912 331.186526 
L 198.146516 331.480784 
L 199.297121 331.551939 
L 200.447725 331.40444 
L 201.71339 331.005672 
L 203.094116 330.320059 
L 204.704962 329.250502 
L 206.89111 327.49459 
L 211.493528 323.712228 
L 213.219434 322.613764 
L 214.71522 321.911844 
L 216.095946 321.501217 
L 217.476671 321.332223 
L 218.742336 321.387813 
L 220.123061 321.666505 
L 221.618847 322.197207 
L 223.344753 323.049592 
L 225.876083 324.593519 
L 230.24838 327.286312 
L 232.204408 328.195769 
L 233.815254 328.712388 
L 235.31104 328.977739 
L 236.806825 329.029623 
L 238.302611 328.87397 
L 240.028518 328.46112 
L 241.984545 327.748823 
L 244.745996 326.475435 
L 249.003232 324.509022 
L 251.189381 323.768559 
L 253.030348 323.377945 
L 254.871315 323.22748 
L 256.597221 323.305307 
L 258.553249 323.62773 
L 260.739397 324.224399 
L 263.846029 325.316934 
L 268.103266 326.764505 
L 270.404475 327.302618 
L 272.475563 327.561299 
L 274.43159 327.59317 
L 276.502678 327.411575 
L 278.918947 326.966112 
L 282.2557 326.101127 
L 287.088239 324.87147 
L 289.734629 324.451208 
L 292.150898 324.305932 
L 294.452107 324.385241 
L 297.213558 324.724712 
L 301.355734 325.529659 
L 305.958151 326.396126 
L 308.834662 326.714844 
L 311.596113 326.788964 
L 314.472624 326.628123 
L 318.039498 326.178212 
L 325.633487 325.112361 
L 328.85518 324.926319 
L 331.961811 324.971533 
L 335.758806 325.276168 
L 345.884125 326.274569 
L 349.335938 326.323488 
L 352.902812 326.171542 
L 358.655834 325.6905 
L 363.833554 325.334723 
L 367.745609 325.268014 
L 371.887785 325.401431 
L 386.845643 326.062585 
L 392.483604 325.880249 
L 404.104709 325.462951 
L 410.202913 325.571908 
L 424.240287 325.915826 
L 431.719215 325.758691 
L 440.69393 325.577837 
L 447.712617 325.64084 
L 462.900595 325.825399 
L 483.956656 325.664558 
L 497.99403 325.786116 
L 497.99403 325.786116 
" style="fill:none;stroke:#ff0000;stroke-linecap:square;stroke-width:1.5;"/>
   </g>
   <g id="line2d_38">
    <path clip-path="url(#p839f4c5b4f)" d="M 92.290909 66.96 
L 92.40597 66.96 
L 92.981272 78.304123 
L 93.901755 91.696192 
L 95.16742 106.630706 
L 97.928871 135.281194 
L 113.34697 294.831225 
L 117.143965 333.483516 
L 118.63975 346.801465 
L 119.445174 351.889087 
L 120.365657 356.282943 
L 121.286141 359.645043 
L 122.206624 362.228138 
L 123.127108 364.16268 
L 123.932531 365.380477 
L 124.737954 366.185424 
L 125.428317 366.563438 
L 126.118679 366.665724 
L 126.809042 366.505624 
L 127.499405 366.09648 
L 128.304828 365.323405 
L 129.225311 364.083371 
L 130.260855 362.288175 
L 131.52652 359.620583 
L 133.137366 355.691462 
L 138.430147 342.350536 
L 139.810872 339.657002 
L 140.961476 337.871442 
L 141.99702 336.667727 
L 142.917504 335.940607 
L 143.722927 335.575934 
L 144.52835 335.465495 
L 145.333773 335.605583 
L 146.139196 335.987302 
L 147.05968 336.702564 
L 148.095224 337.8329 
L 149.245828 339.440571 
L 150.741614 341.965852 
L 152.927762 346.191454 
L 156.264515 352.633997 
L 157.875361 355.238587 
L 159.141026 356.891471 
L 160.291631 358.03589 
L 161.327175 358.746704 
L 162.247658 359.115082 
L 163.168142 359.232934 
L 164.088625 359.104705 
L 165.009109 358.739292 
L 166.044653 358.064796 
L 167.195257 357.021923 
L 168.575983 355.4313 
L 170.301889 353.068342 
L 176.054911 344.881747 
L 177.435637 343.418611 
L 178.701302 342.389079 
L 179.851906 341.744232 
L 180.88745 341.412914 
L 181.922994 341.319522 
L 182.958538 341.461833 
L 183.994082 341.825764 
L 185.144686 342.470611 
L 186.410351 343.432694 
L 188.021198 344.958091 
L 190.437467 347.615306 
L 193.88928 351.362091 
L 195.615187 352.879335 
L 196.995912 353.812511 
L 198.261577 354.411403 
L 199.412181 354.727156 
L 200.562786 354.821289 
L 201.71339 354.696767 
L 202.979055 354.322459 
L 204.35978 353.661305 
L 205.970627 352.616208 
L 208.041715 350.97963 
L 212.989314 346.94007 
L 214.60016 345.926844 
L 216.095946 345.227889 
L 217.476671 344.818004 
L 218.857396 344.648268 
L 220.238122 344.717941 
L 221.618847 345.012199 
L 223.114633 345.556984 
L 224.9556 346.483488 
L 227.486929 348.038534 
L 231.283924 350.384444 
L 233.239952 351.337632 
L 234.965858 351.932077 
L 236.576704 352.243382 
L 238.07249 352.312314 
L 239.683336 352.154438 
L 241.409243 351.743811 
L 243.365271 351.035962 
L 246.011661 349.824835 
L 250.614078 347.722781 
L 252.570106 347.074969 
L 254.411073 346.685096 
L 256.25204 346.534631 
L 257.977947 346.611717 
L 259.818914 346.906716 
L 262.005062 347.489302 
L 264.996634 348.526987 
L 269.368931 350.020513 
L 271.670139 350.567521 
L 273.626167 350.829907 
L 275.697255 350.883274 
L 277.768343 350.714279 
L 280.184612 350.281416 
L 283.291244 349.490552 
L 288.814145 348.10376 
L 291.230415 347.741311 
L 293.531624 347.607894 
L 295.832832 347.686462 
L 298.594283 348.02371 
L 302.276217 348.728594 
L 307.684058 349.736631 
L 310.445509 350.019771 
L 313.206959 350.07462 
L 316.08347 349.896731 
L 319.305163 349.488328 
L 327.359394 348.380229 
L 330.235905 348.225317 
L 333.342537 348.269789 
L 337.139531 348.572942 
L 347.14979 349.561707 
L 350.716664 349.615815 
L 354.85884 349.425326 
L 368.551032 348.562565 
L 372.693208 348.669298 
L 379.136593 349.071031 
L 385.925159 349.35417 
L 390.642637 349.305251 
L 398.696868 348.936873 
L 403.989649 348.771584 
L 409.62761 348.809386 
L 428.152342 349.177764 
L 447.597557 348.909448 
L 468.538557 349.068807 
L 481.080145 348.93539 
L 492.70125 349.045088 
L 497.99403 349.079925 
L 497.99403 349.079925 
" style="fill:none;stroke:#008000;stroke-linecap:square;stroke-width:1.5;"/>
   </g>
   <g id="line2d_39">
    <path clip-path="url(#p839f4c5b4f)" d="M 92.290909 66.96 
L 92.40597 66.96 
L 93.096332 82.245103 
L 93.901755 94.039137 
L 95.16742 108.693475 
L 98.389113 141.863824 
L 111.275882 275.330896 
L 116.108421 324.889259 
L 118.294569 344.226523 
L 119.215053 350.98556 
L 120.135536 356.06577 
L 121.05602 359.971914 
L 121.976503 363.034567 
L 122.896987 365.417537 
L 123.81747 367.20458 
L 124.622894 368.31342 
L 125.313256 368.942702 
L 126.003619 369.28588 
L 126.693981 369.352588 
L 127.384344 369.153945 
L 128.074707 368.703294 
L 128.88013 367.877593 
L 129.800613 366.573074 
L 130.836157 364.699311 
L 132.101822 361.929433 
L 133.827729 357.560037 
L 138.775328 344.666798 
L 140.156053 341.822058 
L 141.306658 339.9142 
L 142.342202 338.605975 
L 143.262685 337.792875 
L 144.068108 337.360012 
L 144.873531 337.189535 
L 145.678955 337.278479 
L 146.484378 337.617209 
L 147.404861 338.296893 
L 148.325345 339.263423 
L 149.475949 340.827363 
L 150.856674 343.130283 
L 152.697642 346.689543 
L 157.184999 355.568422 
L 158.680785 357.954357 
L 159.946449 359.564252 
L 160.981993 360.558206 
L 161.902477 361.178593 
L 162.822961 361.542524 
L 163.743444 361.648516 
L 164.663928 361.501758 
L 165.584411 361.111885 
L 166.619955 360.403294 
L 167.77056 359.315948 
L 169.151285 357.665288 
L 170.877192 355.223763 
L 176.515153 346.95267 
L 177.895879 345.43172 
L 179.161543 344.356234 
L 180.312148 343.67655 
L 181.347692 343.320772 
L 182.383236 343.211074 
L 183.41878 343.343008 
L 184.454324 343.705457 
L 185.604928 344.355492 
L 186.870593 345.333881 
L 188.481439 346.892633 
L 190.897709 349.620263 
L 194.234461 353.370753 
L 195.960368 354.967306 
L 197.341093 355.964225 
L 198.606758 356.617226 
L 199.757363 356.977451 
L 200.907967 357.108644 
L 202.058572 357.014511 
L 203.209176 356.705429 
L 204.474841 356.140632 
L 205.970627 355.215609 
L 207.926654 353.696883 
L 214.254978 348.483997 
L 215.865825 347.563422 
L 217.24655 347.012708 
L 218.512215 346.719191 
L 219.77788 346.633953 
L 221.158605 346.774781 
L 222.53933 347.140195 
L 224.150177 347.813949 
L 226.106204 348.902777 
L 229.903199 351.37988 
L 232.319468 352.825227 
L 234.160435 353.687989 
L 235.886342 354.237962 
L 237.382127 354.486265 
L 238.877913 354.515172 
L 240.488759 354.3106 
L 242.099606 353.888114 
L 244.055633 353.140239 
L 246.932144 351.766047 
L 250.844199 349.919709 
L 252.915287 349.185917 
L 254.756254 348.76269 
L 256.482161 348.587025 
L 258.208068 348.630756 
L 260.049035 348.901295 
L 262.120123 349.434962 
L 264.996634 350.434104 
L 270.059293 352.216699 
L 272.360502 352.762225 
L 274.31653 353.014234 
L 276.387618 353.049812 
L 278.573766 352.841534 
L 280.874975 352.397553 
L 284.556909 351.410269 
L 289.044266 350.25325 
L 291.575596 349.841141 
L 293.761744 349.689194 
L 296.178014 349.752197 
L 298.594283 350.029407 
L 301.931036 350.652759 
L 308.1443 351.866851 
L 311.020811 352.170003 
L 313.782262 352.221888 
L 316.543712 352.046222 
L 319.305163 351.698598 
L 328.164817 350.454858 
L 331.156388 350.313288 
L 334.14796 350.380738 
L 337.484713 350.658689 
L 348.070273 351.712681 
L 351.637147 351.74307 
L 355.664263 351.533309 
L 368.205851 350.670548 
L 372.578148 350.747633 
L 379.021533 351.147142 
L 384.774555 351.44733 
L 389.722154 351.468825 
L 396.62578 351.181979 
L 404.564951 350.88105 
L 410.087852 350.919593 
L 428.842704 351.296865 
L 448.40298 351.02855 
L 464.971683 351.239051 
L 493.391613 351.165672 
L 497.99403 351.198285 
L 497.99403 351.198285 
" style="fill:none;stroke:#0000ff;stroke-linecap:square;stroke-width:1.5;"/>
   </g>
   <g id="line2d_40">
    <path clip-path="url(#p839f4c5b4f)" d="M 92.290909 66.96 
L 92.40597 66.96 
L 92.981272 74.416509 
L 94.937299 94.821848 
L 97.353569 119.005843 
L 108.16925 230.889803 
L 113.462031 286.49713 
L 115.302998 304.770025 
L 117.143965 320.011397 
L 118.754811 332.041134 
L 119.675294 336.981998 
L 120.710838 341.288391 
L 121.746382 344.663092 
L 122.781926 347.262493 
L 123.70241 348.977639 
L 124.507833 350.036819 
L 125.198196 350.626817 
L 125.888558 350.929969 
L 126.463861 350.969253 
L 127.154223 350.769128 
L 127.844586 350.309582 
L 128.650009 349.466092 
L 129.570493 348.128961 
L 130.606037 346.204796 
L 131.871701 343.354867 
L 133.597608 338.848349 
L 138.660268 325.22873 
L 140.040993 322.317282 
L 141.191597 320.372364 
L 142.227141 319.048574 
L 143.147625 318.233991 
L 143.953048 317.810022 
L 144.758471 317.656593 
L 145.448834 317.738126 
L 146.254257 318.074632 
L 147.05968 318.658701 
L 147.980163 319.607441 
L 149.015707 320.99794 
L 150.281372 323.084428 
L 151.892218 326.193037 
L 157.760301 337.971505 
L 159.141026 340.026122 
L 160.291631 341.354359 
L 161.327175 342.217861 
L 162.247658 342.707797 
L 163.168142 342.930158 
L 163.973565 342.907922 
L 164.778988 342.688525 
L 165.699472 342.206743 
L 166.735016 341.393642 
L 167.88562 340.192892 
L 169.266345 338.414745 
L 171.107312 335.654502 
L 175.824791 328.409236 
L 177.320576 326.588839 
L 178.586241 325.374748 
L 179.736846 324.5698 
L 180.77239 324.106548 
L 181.807934 323.896787 
L 182.843478 323.939777 
L 183.879022 324.226623 
L 184.914566 324.739536 
L 186.18023 325.643063 
L 187.560956 326.914969 
L 189.401923 328.94142 
L 194.924824 335.267594 
L 196.42061 336.554323 
L 197.686275 337.382989 
L 198.95194 337.943339 
L 200.102544 338.207208 
L 201.253148 338.234632 
L 202.403753 338.033025 
L 203.554357 337.617951 
L 204.935083 336.870076 
L 206.545929 335.718987 
L 208.847138 333.741455 
L 212.989314 330.120675 
L 214.71522 328.919925 
L 216.211006 328.136473 
L 217.591731 327.66062 
L 218.857396 327.447153 
L 220.238122 327.459754 
L 221.618847 327.716951 
L 222.999572 328.194287 
L 224.610418 328.98441 
L 226.681506 330.260763 
L 232.664649 334.106127 
L 234.505616 334.918487 
L 236.116463 335.376551 
L 237.612248 335.570746 
L 239.108034 335.538874 
L 240.71888 335.266111 
L 242.444787 334.735409 
L 244.515875 333.850412 
L 248.42793 331.863986 
L 251.07432 330.647671 
L 253.030348 329.973175 
L 254.871315 329.575149 
L 256.597221 329.433579 
L 258.323128 329.516594 
L 260.164095 329.831606 
L 262.350244 330.451993 
L 265.571936 331.646813 
L 269.599051 333.10995 
L 271.7852 333.680676 
L 273.971348 334.004583 
L 275.927376 334.063879 
L 277.883403 333.91045 
L 280.069552 333.523541 
L 282.831002 332.810503 
L 289.044266 331.125006 
L 291.575596 330.716603 
L 293.876805 330.575033 
L 296.293074 330.669907 
L 298.939464 331.019755 
L 302.621399 331.769853 
L 308.029239 332.842375 
L 310.79069 333.142563 
L 313.43708 333.2026 
L 316.313591 333.022488 
L 319.305163 332.62965 
L 327.704575 331.396287 
L 330.696147 331.230257 
L 333.687718 331.280659 
L 337.139531 331.565281 
L 348.415455 332.691911 
L 351.867268 332.692652 
L 355.434142 332.491045 
L 368.435972 331.591964 
L 372.923329 331.699439 
L 380.517318 332.201234 
L 385.695038 332.425077 
L 390.182396 332.405065 
L 396.050478 332.145644 
L 403.414346 331.829891 
L 408.937248 331.830632 
L 416.070995 332.078935 
L 422.744501 332.271648 
L 428.727644 332.242 
L 445.181287 331.926247 
L 454.156002 332.094501 
L 462.325293 332.194563 
L 471.530129 332.084124 
L 485.567503 332.013709 
L 497.99403 332.141196 
L 497.99403 332.141196 
" style="fill:none;stroke:#000000;stroke-linecap:square;stroke-width:1.5;"/>
   </g>
   <g id="patch_3">
    <path d="M 72 384.48 
L 72 51.84 
" style="fill:none;stroke:#000000;stroke-linecap:square;stroke-linejoin:miter;stroke-width:0.8;"/>
   </g>
   <g id="patch_4">
    <path d="M 518.4 384.48 
L 518.4 51.84 
" style="fill:none;stroke:#000000;stroke-linecap:square;stroke-linejoin:miter;stroke-width:0.8;"/>
   </g>
   <g id="patch_5">
    <path d="M 72 384.48 
L 518.4 384.48 
" style="fill:none;stroke:#000000;stroke-linecap:square;stroke-linejoin:miter;stroke-width:0.8;"/>
   </g>
   <g id="patch_6">
    <path d="M 72 51.84 
L 518.4 51.84 
" style="fill:none;stroke:#000000;stroke-linecap:square;stroke-linejoin:miter;stroke-width:0.8;"/>
   </g>
   <g id="legend_1">
    <g id="patch_7">
     <path d="M 469.72557 143.46307 
L 511.4 143.46307 
Q 513.4 143.46307 513.4 141.46307 
L 513.4 58.84 
Q 513.4 56.84 511.4 56.84 
L 469.72557 56.84 
Q 467.72557 56.84 467.72557 58.84 
L 467.72557 141.46307 
Q 467.72557 143.46307 469.72557 143.46307 
z
" style="fill:#ffffff;opacity:0.8;stroke:#cccccc;stroke-linejoin:miter;"/>
    </g>
    <g id="line2d_41">
     <path d="M 471.72557 64.34 
L 491.72557 64.34 
" style="fill:none;stroke:#bf00bf;stroke-linecap:square;stroke-width:1.5;"/>
    </g>
    <g id="line2d_42"/>
    <g id="text_20">
     <!-- $u_{1}$ -->
     <g transform="translate(499.72557 67.84)scale(0.1 -0.1)">
      <use transform="translate(0 14.943915)scale(0.996264)" xlink:href="#CMMI12-117"/>
      <use transform="translate(55.52033 0)scale(0.697382)" xlink:href="#CMR17-49"/>
     </g>
    </g>
    <g id="line2d_43">
     <path d="M 471.72557 78.277178 
L 491.72557 78.277178 
" style="fill:none;stroke:#00bfbf;stroke-linecap:square;stroke-width:1.5;"/>
    </g>
    <g id="line2d_44"/>
    <g id="text_21">
     <!-- $u_{2}$ -->
     <g transform="translate(499.72557 81.777178)scale(0.1 -0.1)">
      <use transform="translate(0 14.943915)scale(0.996264)" xlink:href="#CMMI12-117"/>
      <use transform="translate(55.52033 0)scale(0.697382)" xlink:href="#CMR17-50"/>
     </g>
    </g>
    <g id="line2d_45">
     <path d="M 471.72557 92.214357 
L 491.72557 92.214357 
" style="fill:none;stroke:#ff0000;stroke-linecap:square;stroke-width:1.5;"/>
    </g>
    <g id="line2d_46"/>
    <g id="text_22">
     <!-- $u_{3}$ -->
     <g transform="translate(499.72557 95.714357)scale(0.1 -0.1)">
      <use transform="translate(0 14.943915)scale(0.996264)" xlink:href="#CMMI12-117"/>
      <use transform="translate(55.52033 0)scale(0.697382)" xlink:href="#CMR17-51"/>
     </g>
    </g>
    <g id="line2d_47">
     <path d="M 471.72557 106.151535 
L 491.72557 106.151535 
" style="fill:none;stroke:#008000;stroke-linecap:square;stroke-width:1.5;"/>
    </g>
    <g id="line2d_48"/>
    <g id="text_23">
     <!-- $u_{4}$ -->
     <g transform="translate(499.72557 109.651535)scale(0.1 -0.1)">
      <use transform="translate(0 14.943915)scale(0.996264)" xlink:href="#CMMI12-117"/>
      <use transform="translate(55.52033 0)scale(0.697382)" xlink:href="#CMR17-52"/>
     </g>
    </g>
    <g id="line2d_49">
     <path d="M 471.72557 120.088713 
L 491.72557 120.088713 
" style="fill:none;stroke:#0000ff;stroke-linecap:square;stroke-width:1.5;"/>
    </g>
    <g id="line2d_50"/>
    <g id="text_24">
     <!-- $u_{5}$ -->
     <g transform="translate(499.72557 123.588713)scale(0.1 -0.1)">
      <use transform="translate(0 14.943915)scale(0.996264)" xlink:href="#CMMI12-117"/>
      <use transform="translate(55.52033 0)scale(0.697382)" xlink:href="#CMR17-53"/>
     </g>
    </g>
    <g id="line2d_51">
     <path d="M 471.72557 134.025892 
L 491.72557 134.025892 
" style="fill:none;stroke:#000000;stroke-linecap:square;stroke-width:1.5;"/>
    </g>
    <g id="line2d_52"/>
    <g id="text_25">
     <!-- $u_{6}$ -->
     <defs>
      <path d="M 10.59375 34 
C 10.59375 57.65625 21.796875 63 28.296875 63 
C 30.40625 63 35.5 62.640625 37.5 59 
C 35.90625 59 32.90625 59 32.90625 55.515625 
C 32.90625 52.828125 35.09375 51.921875 36.5 51.921875 
C 37.40625 51.921875 40.09375 52.3125 40.09375 55.625 
C 40.09375 61.78125 35.09375 65.296875 28.203125 65.296875 
C 16.296875 65.296875 3.796875 52.96875 3.796875 31 
C 3.796875 3.953125 15.09375 -2 23.09375 -2 
C 32.796875 -2 42 6.671875 42 20.046875 
C 42 32.515625 33.90625 41.59375 23.703125 41.59375 
C 17.59375 41.59375 13.09375 37.609375 10.59375 30.625 
z
M 23.09375 0.390625 
C 10.796875 0.390625 10.796875 18.75 10.796875 22.4375 
C 10.796875 29.625 14.203125 40 23.5 40 
C 25.203125 40 30.09375 40 33.40625 33.125 
C 35.203125 29.21875 35.203125 25.140625 35.203125 20.140625 
C 35.203125 14.75 35.203125 10.78125 33.09375 6.78125 
C 30.90625 2.671875 27.703125 0.390625 23.09375 0.390625 
z
" id="CMR17-54"/>
     </defs>
     <g transform="translate(499.72557 137.525892)scale(0.1 -0.1)">
      <use transform="translate(0 14.943915)scale(0.996264)" xlink:href="#CMMI12-117"/>
      <use transform="translate(55.52033 0)scale(0.697382)" xlink:href="#CMR17-54"/>
     </g>
    </g>
   </g>
  </g>
 </g>
 <defs>
  <clipPath id="p839f4c5b4f">
   <rect height="332.64" width="446.4" x="72" y="51.84"/>
  </clipPath>
 </defs>
</svg>
