<?xml version="1.0" encoding="utf-8" standalone="no"?>
<!DOCTYPE svg PUBLIC "-//W3C//DTD SVG 1.1//EN"
  "http://www.w3.org/Graphics/SVG/1.1/DTD/svg11.dtd">
<!-- Created with matplotlib (http://matplotlib.org/) -->
<svg height="432pt" version="1.1" viewBox="0 0 576 432" width="576pt" xmlns="http://www.w3.org/2000/svg" xmlns:xlink="http://www.w3.org/1999/xlink">
 <defs>
  <style type="text/css">
*{stroke-linecap:butt;stroke-linejoin:round;}
  </style>
 </defs>
 <g id="figure_1">
  <g id="patch_1">
   <path d="M 0 432 
L 576 432 
L 576 0 
L 0 0 
z
" style="fill:#ffffff;"/>
  </g>
  <g id="axes_1">
   <g id="patch_2">
    <path d="M 72 384.48 
L 518.4 384.48 
L 518.4 51.84 
L 72 51.84 
z
" style="fill:#ffffff;"/>
   </g>
   <g id="matplotlib.axis_1">
    <g id="xtick_1">
     <g id="line2d_1">
      <path clip-path="url(#p333c4001db)" d="M 92.290909 384.48 
L 92.290909 51.84 
" style="fill:none;stroke:#b0b0b0;stroke-dasharray:5.12,1.28,0.8,1.28;stroke-dashoffset:0;stroke-width:0.8;"/>
     </g>
     <g id="line2d_2">
      <defs>
       <path d="M 0 0 
L 0 3.5 
" id="m60546b87ad" style="stroke:#000000;stroke-width:0.8;"/>
      </defs>
      <g>
       <use style="stroke:#000000;stroke-width:0.8;" x="92.290909" xlink:href="#m60546b87ad" y="384.48"/>
      </g>
     </g>
     <g id="text_1">
      <!-- 0 -->
      <defs>
       <path d="M 31.78125 66.40625 
Q 24.171875 66.40625 20.328125 58.90625 
Q 16.5 51.421875 16.5 36.375 
Q 16.5 21.390625 20.328125 13.890625 
Q 24.171875 6.390625 31.78125 6.390625 
Q 39.453125 6.390625 43.28125 13.890625 
Q 47.125 21.390625 47.125 36.375 
Q 47.125 51.421875 43.28125 58.90625 
Q 39.453125 66.40625 31.78125 66.40625 
z
M 31.78125 74.21875 
Q 44.046875 74.21875 50.515625 64.515625 
Q 56.984375 54.828125 56.984375 36.375 
Q 56.984375 17.96875 50.515625 8.265625 
Q 44.046875 -1.421875 31.78125 -1.421875 
Q 19.53125 -1.421875 13.0625 8.265625 
Q 6.59375 17.96875 6.59375 36.375 
Q 6.59375 54.828125 13.0625 64.515625 
Q 19.53125 74.21875 31.78125 74.21875 
z
" id="DejaVuSans-30"/>
      </defs>
      <g transform="translate(89.109659 399.078438)scale(0.1 -0.1)">
       <use xlink:href="#DejaVuSans-30"/>
      </g>
     </g>
    </g>
    <g id="xtick_2">
     <g id="line2d_3">
      <path clip-path="url(#p333c4001db)" d="M 171.274596 384.48 
L 171.274596 51.84 
" style="fill:none;stroke:#b0b0b0;stroke-dasharray:5.12,1.28,0.8,1.28;stroke-dashoffset:0;stroke-width:0.8;"/>
     </g>
     <g id="line2d_4">
      <g>
       <use style="stroke:#000000;stroke-width:0.8;" x="171.274596" xlink:href="#m60546b87ad" y="384.48"/>
      </g>
     </g>
     <g id="text_2">
      <!-- 500 -->
      <defs>
       <path d="M 10.796875 72.90625 
L 49.515625 72.90625 
L 49.515625 64.59375 
L 19.828125 64.59375 
L 19.828125 46.734375 
Q 21.96875 47.46875 24.109375 47.828125 
Q 26.265625 48.1875 28.421875 48.1875 
Q 40.625 48.1875 47.75 41.5 
Q 54.890625 34.8125 54.890625 23.390625 
Q 54.890625 11.625 47.5625 5.09375 
Q 40.234375 -1.421875 26.90625 -1.421875 
Q 22.3125 -1.421875 17.546875 -0.640625 
Q 12.796875 0.140625 7.71875 1.703125 
L 7.71875 11.625 
Q 12.109375 9.234375 16.796875 8.0625 
Q 21.484375 6.890625 26.703125 6.890625 
Q 35.15625 6.890625 40.078125 11.328125 
Q 45.015625 15.765625 45.015625 23.390625 
Q 45.015625 31 40.078125 35.4375 
Q 35.15625 39.890625 26.703125 39.890625 
Q 22.75 39.890625 18.8125 39.015625 
Q 14.890625 38.140625 10.796875 36.28125 
z
" id="DejaVuSans-35"/>
      </defs>
      <g transform="translate(161.730846 399.078438)scale(0.1 -0.1)">
       <use xlink:href="#DejaVuSans-35"/>
       <use x="63.623047" xlink:href="#DejaVuSans-30"/>
       <use x="127.246094" xlink:href="#DejaVuSans-30"/>
      </g>
     </g>
    </g>
    <g id="xtick_3">
     <g id="line2d_5">
      <path clip-path="url(#p333c4001db)" d="M 250.258282 384.48 
L 250.258282 51.84 
" style="fill:none;stroke:#b0b0b0;stroke-dasharray:5.12,1.28,0.8,1.28;stroke-dashoffset:0;stroke-width:0.8;"/>
     </g>
     <g id="line2d_6">
      <g>
       <use style="stroke:#000000;stroke-width:0.8;" x="250.258282" xlink:href="#m60546b87ad" y="384.48"/>
      </g>
     </g>
     <g id="text_3">
      <!-- 1000 -->
      <defs>
       <path d="M 12.40625 8.296875 
L 28.515625 8.296875 
L 28.515625 63.921875 
L 10.984375 60.40625 
L 10.984375 69.390625 
L 28.421875 72.90625 
L 38.28125 72.90625 
L 38.28125 8.296875 
L 54.390625 8.296875 
L 54.390625 0 
L 12.40625 0 
z
" id="DejaVuSans-31"/>
      </defs>
      <g transform="translate(237.533282 399.078438)scale(0.1 -0.1)">
       <use xlink:href="#DejaVuSans-31"/>
       <use x="63.623047" xlink:href="#DejaVuSans-30"/>
       <use x="127.246094" xlink:href="#DejaVuSans-30"/>
       <use x="190.869141" xlink:href="#DejaVuSans-30"/>
      </g>
     </g>
    </g>
    <g id="xtick_4">
     <g id="line2d_7">
      <path clip-path="url(#p333c4001db)" d="M 329.241969 384.48 
L 329.241969 51.84 
" style="fill:none;stroke:#b0b0b0;stroke-dasharray:5.12,1.28,0.8,1.28;stroke-dashoffset:0;stroke-width:0.8;"/>
     </g>
     <g id="line2d_8">
      <g>
       <use style="stroke:#000000;stroke-width:0.8;" x="329.241969" xlink:href="#m60546b87ad" y="384.48"/>
      </g>
     </g>
     <g id="text_4">
      <!-- 1500 -->
      <g transform="translate(316.516969 399.078438)scale(0.1 -0.1)">
       <use xlink:href="#DejaVuSans-31"/>
       <use x="63.623047" xlink:href="#DejaVuSans-35"/>
       <use x="127.246094" xlink:href="#DejaVuSans-30"/>
       <use x="190.869141" xlink:href="#DejaVuSans-30"/>
      </g>
     </g>
    </g>
    <g id="xtick_5">
     <g id="line2d_9">
      <path clip-path="url(#p333c4001db)" d="M 408.225656 384.48 
L 408.225656 51.84 
" style="fill:none;stroke:#b0b0b0;stroke-dasharray:5.12,1.28,0.8,1.28;stroke-dashoffset:0;stroke-width:0.8;"/>
     </g>
     <g id="line2d_10">
      <g>
       <use style="stroke:#000000;stroke-width:0.8;" x="408.225656" xlink:href="#m60546b87ad" y="384.48"/>
      </g>
     </g>
     <g id="text_5">
      <!-- 2000 -->
      <defs>
       <path d="M 19.1875 8.296875 
L 53.609375 8.296875 
L 53.609375 0 
L 7.328125 0 
L 7.328125 8.296875 
Q 12.9375 14.109375 22.625 23.890625 
Q 32.328125 33.6875 34.8125 36.53125 
Q 39.546875 41.84375 41.421875 45.53125 
Q 43.3125 49.21875 43.3125 52.78125 
Q 43.3125 58.59375 39.234375 62.25 
Q 35.15625 65.921875 28.609375 65.921875 
Q 23.96875 65.921875 18.8125 64.3125 
Q 13.671875 62.703125 7.8125 59.421875 
L 7.8125 69.390625 
Q 13.765625 71.78125 18.9375 73 
Q 24.125 74.21875 28.421875 74.21875 
Q 39.75 74.21875 46.484375 68.546875 
Q 53.21875 62.890625 53.21875 53.421875 
Q 53.21875 48.921875 51.53125 44.890625 
Q 49.859375 40.875 45.40625 35.40625 
Q 44.1875 33.984375 37.640625 27.21875 
Q 31.109375 20.453125 19.1875 8.296875 
z
" id="DejaVuSans-32"/>
      </defs>
      <g transform="translate(395.500656 399.078438)scale(0.1 -0.1)">
       <use xlink:href="#DejaVuSans-32"/>
       <use x="63.623047" xlink:href="#DejaVuSans-30"/>
       <use x="127.246094" xlink:href="#DejaVuSans-30"/>
       <use x="190.869141" xlink:href="#DejaVuSans-30"/>
      </g>
     </g>
    </g>
    <g id="xtick_6">
     <g id="line2d_11">
      <path clip-path="url(#p333c4001db)" d="M 487.209342 384.48 
L 487.209342 51.84 
" style="fill:none;stroke:#b0b0b0;stroke-dasharray:5.12,1.28,0.8,1.28;stroke-dashoffset:0;stroke-width:0.8;"/>
     </g>
     <g id="line2d_12">
      <g>
       <use style="stroke:#000000;stroke-width:0.8;" x="487.209342" xlink:href="#m60546b87ad" y="384.48"/>
      </g>
     </g>
     <g id="text_6">
      <!-- 2500 -->
      <g transform="translate(474.484342 399.078438)scale(0.1 -0.1)">
       <use xlink:href="#DejaVuSans-32"/>
       <use x="63.623047" xlink:href="#DejaVuSans-35"/>
       <use x="127.246094" xlink:href="#DejaVuSans-30"/>
       <use x="190.869141" xlink:href="#DejaVuSans-30"/>
      </g>
     </g>
    </g>
    <g id="text_7">
     <!-- Iteration -->
     <defs>
      <path d="M 9.8125 72.90625 
L 19.671875 72.90625 
L 19.671875 0 
L 9.8125 0 
z
" id="DejaVuSans-49"/>
      <path d="M 18.3125 70.21875 
L 18.3125 54.6875 
L 36.8125 54.6875 
L 36.8125 47.703125 
L 18.3125 47.703125 
L 18.3125 18.015625 
Q 18.3125 11.328125 20.140625 9.421875 
Q 21.96875 7.515625 27.59375 7.515625 
L 36.8125 7.515625 
L 36.8125 0 
L 27.59375 0 
Q 17.1875 0 13.234375 3.875 
Q 9.28125 7.765625 9.28125 18.015625 
L 9.28125 47.703125 
L 2.6875 47.703125 
L 2.6875 54.6875 
L 9.28125 54.6875 
L 9.28125 70.21875 
z
" id="DejaVuSans-74"/>
      <path d="M 56.203125 29.59375 
L 56.203125 25.203125 
L 14.890625 25.203125 
Q 15.484375 15.921875 20.484375 11.0625 
Q 25.484375 6.203125 34.421875 6.203125 
Q 39.59375 6.203125 44.453125 7.46875 
Q 49.3125 8.734375 54.109375 11.28125 
L 54.109375 2.78125 
Q 49.265625 0.734375 44.1875 -0.34375 
Q 39.109375 -1.421875 33.890625 -1.421875 
Q 20.796875 -1.421875 13.15625 6.1875 
Q 5.515625 13.8125 5.515625 26.8125 
Q 5.515625 40.234375 12.765625 48.109375 
Q 20.015625 56 32.328125 56 
Q 43.359375 56 49.78125 48.890625 
Q 56.203125 41.796875 56.203125 29.59375 
z
M 47.21875 32.234375 
Q 47.125 39.59375 43.09375 43.984375 
Q 39.0625 48.390625 32.421875 48.390625 
Q 24.90625 48.390625 20.390625 44.140625 
Q 15.875 39.890625 15.1875 32.171875 
z
" id="DejaVuSans-65"/>
      <path d="M 41.109375 46.296875 
Q 39.59375 47.171875 37.8125 47.578125 
Q 36.03125 48 33.890625 48 
Q 26.265625 48 22.1875 43.046875 
Q 18.109375 38.09375 18.109375 28.8125 
L 18.109375 0 
L 9.078125 0 
L 9.078125 54.6875 
L 18.109375 54.6875 
L 18.109375 46.1875 
Q 20.953125 51.171875 25.484375 53.578125 
Q 30.03125 56 36.53125 56 
Q 37.453125 56 38.578125 55.875 
Q 39.703125 55.765625 41.0625 55.515625 
z
" id="DejaVuSans-72"/>
      <path d="M 34.28125 27.484375 
Q 23.390625 27.484375 19.1875 25 
Q 14.984375 22.515625 14.984375 16.5 
Q 14.984375 11.71875 18.140625 8.90625 
Q 21.296875 6.109375 26.703125 6.109375 
Q 34.1875 6.109375 38.703125 11.40625 
Q 43.21875 16.703125 43.21875 25.484375 
L 43.21875 27.484375 
z
M 52.203125 31.203125 
L 52.203125 0 
L 43.21875 0 
L 43.21875 8.296875 
Q 40.140625 3.328125 35.546875 0.953125 
Q 30.953125 -1.421875 24.3125 -1.421875 
Q 15.921875 -1.421875 10.953125 3.296875 
Q 6 8.015625 6 15.921875 
Q 6 25.140625 12.171875 29.828125 
Q 18.359375 34.515625 30.609375 34.515625 
L 43.21875 34.515625 
L 43.21875 35.40625 
Q 43.21875 41.609375 39.140625 45 
Q 35.0625 48.390625 27.6875 48.390625 
Q 23 48.390625 18.546875 47.265625 
Q 14.109375 46.140625 10.015625 43.890625 
L 10.015625 52.203125 
Q 14.9375 54.109375 19.578125 55.046875 
Q 24.21875 56 28.609375 56 
Q 40.484375 56 46.34375 49.84375 
Q 52.203125 43.703125 52.203125 31.203125 
z
" id="DejaVuSans-61"/>
      <path d="M 9.421875 54.6875 
L 18.40625 54.6875 
L 18.40625 0 
L 9.421875 0 
z
M 9.421875 75.984375 
L 18.40625 75.984375 
L 18.40625 64.59375 
L 9.421875 64.59375 
z
" id="DejaVuSans-69"/>
      <path d="M 30.609375 48.390625 
Q 23.390625 48.390625 19.1875 42.75 
Q 14.984375 37.109375 14.984375 27.296875 
Q 14.984375 17.484375 19.15625 11.84375 
Q 23.34375 6.203125 30.609375 6.203125 
Q 37.796875 6.203125 41.984375 11.859375 
Q 46.1875 17.53125 46.1875 27.296875 
Q 46.1875 37.015625 41.984375 42.703125 
Q 37.796875 48.390625 30.609375 48.390625 
z
M 30.609375 56 
Q 42.328125 56 49.015625 48.375 
Q 55.71875 40.765625 55.71875 27.296875 
Q 55.71875 13.875 49.015625 6.21875 
Q 42.328125 -1.421875 30.609375 -1.421875 
Q 18.84375 -1.421875 12.171875 6.21875 
Q 5.515625 13.875 5.515625 27.296875 
Q 5.515625 40.765625 12.171875 48.375 
Q 18.84375 56 30.609375 56 
z
" id="DejaVuSans-6f"/>
      <path d="M 54.890625 33.015625 
L 54.890625 0 
L 45.90625 0 
L 45.90625 32.71875 
Q 45.90625 40.484375 42.875 44.328125 
Q 39.84375 48.1875 33.796875 48.1875 
Q 26.515625 48.1875 22.3125 43.546875 
Q 18.109375 38.921875 18.109375 30.90625 
L 18.109375 0 
L 9.078125 0 
L 9.078125 54.6875 
L 18.109375 54.6875 
L 18.109375 46.1875 
Q 21.34375 51.125 25.703125 53.5625 
Q 30.078125 56 35.796875 56 
Q 45.21875 56 50.046875 50.171875 
Q 54.890625 44.34375 54.890625 33.015625 
z
" id="DejaVuSans-6e"/>
     </defs>
     <g transform="translate(265.507969 415.795938)scale(0.14 -0.14)">
      <use xlink:href="#DejaVuSans-49"/>
      <use x="29.492188" xlink:href="#DejaVuSans-74"/>
      <use x="68.701172" xlink:href="#DejaVuSans-65"/>
      <use x="130.224609" xlink:href="#DejaVuSans-72"/>
      <use x="171.337891" xlink:href="#DejaVuSans-61"/>
      <use x="232.617188" xlink:href="#DejaVuSans-74"/>
      <use x="271.826172" xlink:href="#DejaVuSans-69"/>
      <use x="299.609375" xlink:href="#DejaVuSans-6f"/>
      <use x="360.791016" xlink:href="#DejaVuSans-6e"/>
     </g>
    </g>
   </g>
   <g id="matplotlib.axis_2">
    <g id="ytick_1">
     <g id="line2d_13">
      <path clip-path="url(#p333c4001db)" d="M 72 358.934411 
L 518.4 358.934411 
" style="fill:none;stroke:#b0b0b0;stroke-dasharray:5.12,1.28,0.8,1.28;stroke-dashoffset:0;stroke-width:0.8;"/>
     </g>
     <g id="line2d_14">
      <defs>
       <path d="M 0 0 
L -3.5 0 
" id="m95635bb4aa" style="stroke:#000000;stroke-width:0.8;"/>
      </defs>
      <g>
       <use style="stroke:#000000;stroke-width:0.8;" x="72" xlink:href="#m95635bb4aa" y="358.934411"/>
      </g>
     </g>
     <g id="text_8">
      <!-- 0 -->
      <g transform="translate(58.6375 362.73363)scale(0.1 -0.1)">
       <use xlink:href="#DejaVuSans-30"/>
      </g>
     </g>
    </g>
    <g id="ytick_2">
     <g id="line2d_15">
      <path clip-path="url(#p333c4001db)" d="M 72 312.218505 
L 518.4 312.218505 
" style="fill:none;stroke:#b0b0b0;stroke-dasharray:5.12,1.28,0.8,1.28;stroke-dashoffset:0;stroke-width:0.8;"/>
     </g>
     <g id="line2d_16">
      <g>
       <use style="stroke:#000000;stroke-width:0.8;" x="72" xlink:href="#m95635bb4aa" y="312.218505"/>
      </g>
     </g>
     <g id="text_9">
      <!-- 20 -->
      <g transform="translate(52.275 316.017724)scale(0.1 -0.1)">
       <use xlink:href="#DejaVuSans-32"/>
       <use x="63.623047" xlink:href="#DejaVuSans-30"/>
      </g>
     </g>
    </g>
    <g id="ytick_3">
     <g id="line2d_17">
      <path clip-path="url(#p333c4001db)" d="M 72 265.5026 
L 518.4 265.5026 
" style="fill:none;stroke:#b0b0b0;stroke-dasharray:5.12,1.28,0.8,1.28;stroke-dashoffset:0;stroke-width:0.8;"/>
     </g>
     <g id="line2d_18">
      <g>
       <use style="stroke:#000000;stroke-width:0.8;" x="72" xlink:href="#m95635bb4aa" y="265.5026"/>
      </g>
     </g>
     <g id="text_10">
      <!-- 40 -->
      <defs>
       <path d="M 37.796875 64.3125 
L 12.890625 25.390625 
L 37.796875 25.390625 
z
M 35.203125 72.90625 
L 47.609375 72.90625 
L 47.609375 25.390625 
L 58.015625 25.390625 
L 58.015625 17.1875 
L 47.609375 17.1875 
L 47.609375 0 
L 37.796875 0 
L 37.796875 17.1875 
L 4.890625 17.1875 
L 4.890625 26.703125 
z
" id="DejaVuSans-34"/>
      </defs>
      <g transform="translate(52.275 269.301818)scale(0.1 -0.1)">
       <use xlink:href="#DejaVuSans-34"/>
       <use x="63.623047" xlink:href="#DejaVuSans-30"/>
      </g>
     </g>
    </g>
    <g id="ytick_4">
     <g id="line2d_19">
      <path clip-path="url(#p333c4001db)" d="M 72 218.786694 
L 518.4 218.786694 
" style="fill:none;stroke:#b0b0b0;stroke-dasharray:5.12,1.28,0.8,1.28;stroke-dashoffset:0;stroke-width:0.8;"/>
     </g>
     <g id="line2d_20">
      <g>
       <use style="stroke:#000000;stroke-width:0.8;" x="72" xlink:href="#m95635bb4aa" y="218.786694"/>
      </g>
     </g>
     <g id="text_11">
      <!-- 60 -->
      <defs>
       <path d="M 33.015625 40.375 
Q 26.375 40.375 22.484375 35.828125 
Q 18.609375 31.296875 18.609375 23.390625 
Q 18.609375 15.53125 22.484375 10.953125 
Q 26.375 6.390625 33.015625 6.390625 
Q 39.65625 6.390625 43.53125 10.953125 
Q 47.40625 15.53125 47.40625 23.390625 
Q 47.40625 31.296875 43.53125 35.828125 
Q 39.65625 40.375 33.015625 40.375 
z
M 52.59375 71.296875 
L 52.59375 62.3125 
Q 48.875 64.0625 45.09375 64.984375 
Q 41.3125 65.921875 37.59375 65.921875 
Q 27.828125 65.921875 22.671875 59.328125 
Q 17.53125 52.734375 16.796875 39.40625 
Q 19.671875 43.65625 24.015625 45.921875 
Q 28.375 48.1875 33.59375 48.1875 
Q 44.578125 48.1875 50.953125 41.515625 
Q 57.328125 34.859375 57.328125 23.390625 
Q 57.328125 12.15625 50.6875 5.359375 
Q 44.046875 -1.421875 33.015625 -1.421875 
Q 20.359375 -1.421875 13.671875 8.265625 
Q 6.984375 17.96875 6.984375 36.375 
Q 6.984375 53.65625 15.1875 63.9375 
Q 23.390625 74.21875 37.203125 74.21875 
Q 40.921875 74.21875 44.703125 73.484375 
Q 48.484375 72.75 52.59375 71.296875 
z
" id="DejaVuSans-36"/>
      </defs>
      <g transform="translate(52.275 222.585913)scale(0.1 -0.1)">
       <use xlink:href="#DejaVuSans-36"/>
       <use x="63.623047" xlink:href="#DejaVuSans-30"/>
      </g>
     </g>
    </g>
    <g id="ytick_5">
     <g id="line2d_21">
      <path clip-path="url(#p333c4001db)" d="M 72 172.070788 
L 518.4 172.070788 
" style="fill:none;stroke:#b0b0b0;stroke-dasharray:5.12,1.28,0.8,1.28;stroke-dashoffset:0;stroke-width:0.8;"/>
     </g>
     <g id="line2d_22">
      <g>
       <use style="stroke:#000000;stroke-width:0.8;" x="72" xlink:href="#m95635bb4aa" y="172.070788"/>
      </g>
     </g>
     <g id="text_12">
      <!-- 80 -->
      <defs>
       <path d="M 31.78125 34.625 
Q 24.75 34.625 20.71875 30.859375 
Q 16.703125 27.09375 16.703125 20.515625 
Q 16.703125 13.921875 20.71875 10.15625 
Q 24.75 6.390625 31.78125 6.390625 
Q 38.8125 6.390625 42.859375 10.171875 
Q 46.921875 13.96875 46.921875 20.515625 
Q 46.921875 27.09375 42.890625 30.859375 
Q 38.875 34.625 31.78125 34.625 
z
M 21.921875 38.8125 
Q 15.578125 40.375 12.03125 44.71875 
Q 8.5 49.078125 8.5 55.328125 
Q 8.5 64.0625 14.71875 69.140625 
Q 20.953125 74.21875 31.78125 74.21875 
Q 42.671875 74.21875 48.875 69.140625 
Q 55.078125 64.0625 55.078125 55.328125 
Q 55.078125 49.078125 51.53125 44.71875 
Q 48 40.375 41.703125 38.8125 
Q 48.828125 37.15625 52.796875 32.3125 
Q 56.78125 27.484375 56.78125 20.515625 
Q 56.78125 9.90625 50.3125 4.234375 
Q 43.84375 -1.421875 31.78125 -1.421875 
Q 19.734375 -1.421875 13.25 4.234375 
Q 6.78125 9.90625 6.78125 20.515625 
Q 6.78125 27.484375 10.78125 32.3125 
Q 14.796875 37.15625 21.921875 38.8125 
z
M 18.3125 54.390625 
Q 18.3125 48.734375 21.84375 45.5625 
Q 25.390625 42.390625 31.78125 42.390625 
Q 38.140625 42.390625 41.71875 45.5625 
Q 45.3125 48.734375 45.3125 54.390625 
Q 45.3125 60.0625 41.71875 63.234375 
Q 38.140625 66.40625 31.78125 66.40625 
Q 25.390625 66.40625 21.84375 63.234375 
Q 18.3125 60.0625 18.3125 54.390625 
z
" id="DejaVuSans-38"/>
      </defs>
      <g transform="translate(52.275 175.870007)scale(0.1 -0.1)">
       <use xlink:href="#DejaVuSans-38"/>
       <use x="63.623047" xlink:href="#DejaVuSans-30"/>
      </g>
     </g>
    </g>
    <g id="ytick_6">
     <g id="line2d_23">
      <path clip-path="url(#p333c4001db)" d="M 72 125.354882 
L 518.4 125.354882 
" style="fill:none;stroke:#b0b0b0;stroke-dasharray:5.12,1.28,0.8,1.28;stroke-dashoffset:0;stroke-width:0.8;"/>
     </g>
     <g id="line2d_24">
      <g>
       <use style="stroke:#000000;stroke-width:0.8;" x="72" xlink:href="#m95635bb4aa" y="125.354882"/>
      </g>
     </g>
     <g id="text_13">
      <!-- 100 -->
      <g transform="translate(45.9125 129.154101)scale(0.1 -0.1)">
       <use xlink:href="#DejaVuSans-31"/>
       <use x="63.623047" xlink:href="#DejaVuSans-30"/>
       <use x="127.246094" xlink:href="#DejaVuSans-30"/>
      </g>
     </g>
    </g>
    <g id="ytick_7">
     <g id="line2d_25">
      <path clip-path="url(#p333c4001db)" d="M 72 78.638976 
L 518.4 78.638976 
" style="fill:none;stroke:#b0b0b0;stroke-dasharray:5.12,1.28,0.8,1.28;stroke-dashoffset:0;stroke-width:0.8;"/>
     </g>
     <g id="line2d_26">
      <g>
       <use style="stroke:#000000;stroke-width:0.8;" x="72" xlink:href="#m95635bb4aa" y="78.638976"/>
      </g>
     </g>
     <g id="text_14">
      <!-- 120 -->
      <g transform="translate(45.9125 82.438195)scale(0.1 -0.1)">
       <use xlink:href="#DejaVuSans-31"/>
       <use x="63.623047" xlink:href="#DejaVuSans-32"/>
       <use x="127.246094" xlink:href="#DejaVuSans-30"/>
      </g>
     </g>
    </g>
    <g id="text_15">
     <!-- $\partial \mathcal{L}/ \partial \lambda_{m}[W]$ -->
     <defs>
      <path d="M 21.34375 -1.421875 
Q 14.453125 -1.421875 9.96875 2.734375 
Q 4.640625 7.671875 4.640625 16.609375 
Q 4.640625 25.875 9.328125 33.109375 
Q 14.15625 40.53125 22.859375 40.53125 
Q 28.5625 40.53125 33.0625 36.96875 
Q 35.6875 34.859375 37.5 31.34375 
Q 38.140625 35.296875 38.140625 39.796875 
Q 38.140625 46.390625 36.578125 50.203125 
Q 33.109375 58.640625 23.921875 58.640625 
Q 20.453125 58.640625 15.09375 56.5 
L 15.09375 64.703125 
Q 20.75 66.21875 25.828125 66.21875 
Q 38.921875 66.21875 44.484375 54.203125 
Q 47.078125 48.53125 47.078125 40.09375 
Q 47.078125 34.578125 45.84375 28.171875 
Q 42.78125 12.15625 34.8125 4.546875 
Q 28.5625 -1.421875 21.34375 -1.421875 
z
M 12.984375 15.140625 
Q 12.984375 10.25 15.140625 7.625 
Q 17.4375 4.828125 20.953125 4.828125 
Q 24.078125 4.828125 26.5625 7.03125 
Q 30.078125 10.0625 32.671875 14.984375 
Q 34.8125 19.046875 35.890625 23.390625 
Q 31.546875 33.890625 24.03125 33.890625 
Q 17.578125 33.890625 14.75 25.390625 
Q 12.984375 20.125 12.984375 15.140625 
z
" id="DejaVuSans-2202"/>
      <path d="M 63.59375 14.296875 
L 65.296875 12.5 
Q 52.296875 -0.703125 37.703125 -0.703125 
Q 33.703125 -0.703125 28.90625 0.40625 
Q 21.796875 1.90625 17.90625 1.90625 
Q 15.703125 1.90625 10.5 0.953125 
Q 5.296875 0 3 0 
L 3.59375 2.40625 
Q 9.09375 2.40625 11.40625 11.703125 
L 18.40625 40.09375 
Q 20.09375 47 23.6875 52.390625 
Q 27.296875 57.796875 31.640625 60.84375 
Q 36 63.90625 40.390625 65.453125 
Q 44.796875 67 48.796875 67 
Q 53.796875 67 56.140625 63.796875 
Q 58.5 60.59375 58.5 56 
Q 58.5 52.296875 56.140625 50 
Q 53.796875 47.703125 50.40625 47.703125 
Q 48.203125 47.703125 46.796875 49.203125 
Q 45.40625 50.703125 45.40625 52.796875 
Q 45.40625 54.40625 46.203125 55.5 
Q 47 56.59375 47.890625 56.9375 
Q 48.796875 57.296875 49.59375 57.890625 
Q 50.40625 58.5 50.40625 59.203125 
Q 50.40625 63 44.59375 63 
Q 39.40625 63 36.09375 59.140625 
Q 32.796875 55.296875 31.09375 48.9375 
Q 29.40625 42.59375 28.046875 35.6875 
Q 26.703125 28.796875 24.203125 21.296875 
Q 21.703125 13.796875 18.09375 9.203125 
L 18.09375 8.796875 
Q 21.296875 11 29.5 11 
Q 34.796875 11 38.4375 8.5 
Q 42.09375 6 46.296875 6 
Q 54.796875 6 63.59375 14.296875 
z
" id="STIXNonUnicode-Italic-e238"/>
      <path d="M 25.390625 72.90625 
L 33.6875 72.90625 
L 8.296875 -9.28125 
L 0 -9.28125 
z
" id="DejaVuSans-2f"/>
      <path d="M 36.71875 67.4375 
L 48.828125 0 
L 39.3125 0 
L 31.84375 40.4375 
L 5.125 0 
L -4.390625 0 
L 29.734375 52.4375 
L 28.03125 62.109375 
Q 26.953125 68.265625 21.734375 68.265625 
L 17.046875 68.265625 
L 18.5 75.984375 
L 24.21875 75.875 
Q 35.203125 75.734375 36.71875 67.4375 
z
" id="DejaVuSans-Oblique-3bb"/>
      <path d="M 89.796875 33.015625 
L 83.40625 0 
L 74.421875 0 
L 80.71875 32.71875 
Q 81.109375 34.8125 81.296875 36.328125 
Q 81.5 37.84375 81.5 38.921875 
Q 81.5 43.3125 79.046875 45.75 
Q 76.609375 48.1875 72.21875 48.1875 
Q 65.671875 48.1875 60.546875 43.28125 
Q 55.421875 38.375 53.90625 30.515625 
L 47.90625 0 
L 38.921875 0 
L 45.3125 32.71875 
Q 45.703125 34.515625 45.890625 36.046875 
Q 46.09375 37.59375 46.09375 38.8125 
Q 46.09375 43.265625 43.65625 45.71875 
Q 41.21875 48.1875 36.921875 48.1875 
Q 30.28125 48.1875 25.140625 43.28125 
Q 20.015625 38.375 18.5 30.515625 
L 12.5 0 
L 3.515625 0 
L 14.203125 54.6875 
L 23.1875 54.6875 
L 21.484375 46.1875 
Q 25.140625 50.984375 30.046875 53.484375 
Q 34.96875 56 40.578125 56 
Q 46.53125 56 50.359375 52.875 
Q 54.203125 49.75 54.984375 44.1875 
Q 59.078125 49.953125 64.46875 52.96875 
Q 69.875 56 75.875 56 
Q 82.90625 56 86.734375 51.953125 
Q 90.578125 47.90625 90.578125 40.484375 
Q 90.578125 38.875 90.375 36.9375 
Q 90.1875 35.015625 89.796875 33.015625 
z
" id="DejaVuSans-Oblique-6d"/>
      <path d="M 8.59375 75.984375 
L 29.296875 75.984375 
L 29.296875 69 
L 17.578125 69 
L 17.578125 -6.203125 
L 29.296875 -6.203125 
L 29.296875 -13.1875 
L 8.59375 -13.1875 
z
" id="DejaVuSans-5b"/>
      <path d="M 9.625 72.90625 
L 19.1875 72.90625 
L 22.703125 10.890625 
L 50.203125 72.90625 
L 61.1875 72.90625 
L 64.796875 10.890625 
L 92 72.90625 
L 102 72.90625 
L 69.578125 0 
L 57.171875 0 
L 53.8125 60.796875 
L 26.515625 0 
L 14.109375 0 
z
" id="DejaVuSans-Oblique-57"/>
      <path d="M 30.421875 75.984375 
L 30.421875 -13.1875 
L 9.71875 -13.1875 
L 9.71875 -6.203125 
L 21.390625 -6.203125 
L 21.390625 69 
L 9.71875 69 
L 9.71875 75.984375 
z
" id="DejaVuSans-5d"/>
     </defs>
     <g transform="translate(39.000937 254.14)rotate(-90)scale(0.14 -0.14)">
      <use transform="translate(0 0.015625)" xlink:href="#DejaVuSans-2202"/>
      <use transform="translate(51.708984 0.015625)" xlink:href="#STIXNonUnicode-Italic-e238"/>
      <use transform="translate(121.008972 0.015625)" xlink:href="#DejaVuSans-2f"/>
      <use transform="translate(154.700378 0.015625)" xlink:href="#DejaVuSans-2202"/>
      <use transform="translate(206.409363 0.015625)" xlink:href="#DejaVuSans-Oblique-3bb"/>
      <use transform="translate(265.58905 -16.390625)scale(0.7)" xlink:href="#DejaVuSans-Oblique-6d"/>
      <use transform="translate(336.511902 0.015625)" xlink:href="#DejaVuSans-5b"/>
      <use transform="translate(375.525574 0.015625)" xlink:href="#DejaVuSans-Oblique-57"/>
      <use transform="translate(474.402527 0.015625)" xlink:href="#DejaVuSans-5d"/>
     </g>
    </g>
   </g>
   <g id="line2d_27">
    <path clip-path="url(#p333c4001db)" d="M 92.290909 358.934411 
L 92.448876 358.934411 
L 92.606844 358.934411 
L 92.922779 351.845506 
L 93.554648 336.537872 
L 94.02855 329.278687 
L 94.502452 324.763128 
L 95.134322 321.116951 
L 95.766191 318.879493 
L 96.398061 317.390657 
L 97.187898 316.143809 
L 97.977735 315.322777 
L 98.925539 314.68931 
L 100.03131 314.248078 
L 101.453017 313.945593 
L 103.506593 313.758962 
L 107.455777 313.669969 
L 128.465438 313.655954 
L 148.053392 313.722057 
L 148.527294 313.935782 
L 149.159163 314.498942 
L 149.949 315.594197 
L 150.896805 317.328758 
L 153.898185 323.245328 
L 154.688022 324.09509 
L 155.635826 324.766865 
L 156.741597 325.238696 
L 158.163304 325.563138 
L 160.21688 325.763315 
L 164.008097 325.857448 
L 178.22516 325.873798 
L 215.821395 325.958821 
L 216.453264 326.248927 
L 217.243101 326.915797 
L 218.190906 328.055898 
L 219.454645 329.946257 
L 221.50822 333.483586 
L 227.353013 343.782808 
L 229.090654 346.412446 
L 230.038459 347.454678 
L 230.986263 348.145606 
L 232.092034 348.637759 
L 233.355773 348.950989 
L 235.251382 349.16775 
L 238.568697 349.278 
L 248.836576 349.303694 
L 461.618628 349.303694 
L 461.934562 353.082076 
L 462.250497 354.458327 
L 462.724399 355.503128 
L 463.514236 356.55844 
L 464.620008 357.58619 
L 465.883747 358.456741 
L 467.305453 359.179903 
L 468.885127 359.7461 
L 470.780735 360.178456 
L 472.992279 360.436561 
L 475.677724 360.512942 
L 479.310973 360.383072 
L 498.109091 359.252079 
L 498.109091 359.252079 
" style="fill:none;stroke:#bf00bf;stroke-linecap:square;stroke-width:1.5;"/>
   </g>
   <g id="line2d_28">
    <path clip-path="url(#p333c4001db)" d="M 92.290909 358.934411 
L 92.448876 358.934411 
L 92.606844 358.934411 
L 92.922779 328.209827 
L 93.238713 318.830908 
L 93.554648 316.245417 
L 93.870583 315.637643 
L 94.502452 315.408034 
L 95.450257 314.943444 
L 96.713996 314.34478 
L 97.977735 314.000717 
L 99.715376 313.785824 
L 102.874723 313.677443 
L 113.932439 313.655954 
L 147.895424 313.722758 
L 148.369327 313.941388 
L 149.001196 314.520899 
L 149.791033 315.649322 
L 150.738837 317.430833 
L 153.58225 323.222671 
L 154.372087 324.12312 
L 155.161924 324.725521 
L 156.109728 325.183804 
L 157.373467 325.524831 
L 159.111108 325.737388 
L 162.270455 325.849272 
L 173.644106 325.873798 
L 214.557656 325.874032 
L 214.873591 338.932062 
L 215.189525 343.776969 
L 215.663428 347.573337 
L 216.453264 351.726614 
L 217.401069 355.522982 
L 218.50684 359.050967 
L 219.612612 361.869805 
L 220.718384 364.111702 
L 221.824155 365.863314 
L 222.929927 367.192382 
L 224.035698 368.157065 
L 225.14147 368.808285 
L 226.247242 369.19229 
L 227.353013 369.350657 
L 227.668948 369.36 
L 228.300817 360.365086 
L 228.77472 356.971409 
L 229.248622 354.91334 
L 229.880491 353.161727 
L 230.512361 352.018589 
L 231.302198 351.077263 
L 232.092034 350.469022 
L 233.039839 350.009805 
L 234.303578 349.666209 
L 236.041219 349.448747 
L 239.042599 349.333592 
L 248.520641 349.303927 
L 463.356269 349.387782 
L 464.620008 349.718765 
L 466.515616 350.497752 
L 476.783496 355.099503 
L 479.942843 356.122581 
L 483.260158 356.961131 
L 486.893407 357.639446 
L 491.000559 358.164767 
L 495.73958 358.540596 
L 498.109091 358.662525 
L 498.109091 358.662525 
" style="fill:none;stroke:#00bfbf;stroke-linecap:square;stroke-width:1.5;"/>
   </g>
   <g id="line2d_29">
    <path clip-path="url(#p333c4001db)" d="M 92.290909 358.934411 
L 92.448876 358.934411 
L 92.606844 358.934411 
L 92.922779 324.925232 
L 93.238713 310.274189 
L 93.554648 304.15534 
L 93.870583 302.029533 
L 94.02855 301.764187 
L 94.186518 301.817676 
L 94.502452 302.499728 
L 95.450257 305.865843 
L 96.240093 308.297873 
L 97.02993 310.044347 
L 97.819767 311.238406 
L 98.609604 312.041452 
L 99.557408 312.662307 
L 100.66318 313.092093 
L 102.084886 313.383834 
L 104.296429 313.568128 
L 108.403581 313.645209 
L 135.731937 313.655954 
L 147.105588 313.655954 
L 147.421522 331.820032 
L 147.737457 338.649197 
L 148.211359 343.998869 
L 149.001196 349.928285 
L 150.106968 356.273707 
L 151.212739 361.348222 
L 151.370707 361.990566 
L 151.686641 353.10193 
L 152.160544 343.132055 
L 152.634446 337.894034 
L 153.108348 334.699601 
L 153.740217 331.973027 
L 154.372087 330.187779 
L 155.003956 328.956815 
L 155.793793 327.91178 
L 156.58363 327.224822 
L 157.531434 326.699736 
L 158.637206 326.339322 
L 160.21688 326.079115 
L 162.744358 325.92939 
L 168.431183 325.876835 
L 215.50546 325.896923 
L 216.13733 326.080983 
L 216.769199 326.501894 
L 217.559036 327.320123 
L 218.664808 328.843295 
L 220.244481 331.450743 
L 223.719764 337.766734 
L 226.879111 343.282481 
L 228.932687 346.460097 
L 229.880491 347.54484 
L 230.828295 348.252352 
L 231.7761 348.682839 
L 233.039839 348.998405 
L 234.77748 349.189473 
L 238.094795 349.286642 
L 252.469826 349.303694 
L 463.514236 349.413009 
L 464.777975 349.759875 
L 466.673584 350.538395 
L 476.941463 355.113751 
L 480.10081 356.132391 
L 483.418125 356.967905 
L 486.893407 357.618658 
L 491.000559 358.150986 
L 495.897548 358.541764 
L 498.109091 358.656218 
L 498.109091 358.656218 
" style="fill:none;stroke:#ff0000;stroke-linecap:square;stroke-width:1.5;"/>
   </g>
   <g id="line2d_30">
    <path clip-path="url(#p333c4001db)" d="M 92.290909 358.934411 
L 92.448876 358.934411 
L 92.764811 301.2391 
L 93.080746 275.85718 
L 93.554648 258.040201 
L 94.02855 249.02917 
L 94.66042 241.579618 
L 95.292289 236.494124 
L 95.924159 232.839539 
L 96.713996 229.644872 
L 97.503832 227.49851 
L 98.293669 226.055922 
L 99.083506 225.086334 
L 99.873343 224.434647 
L 100.821147 223.928013 
L 102.084886 223.537935 
L 103.822527 223.282165 
L 106.507973 223.146456 
L 112.984635 223.100674 
L 147.421522 223.129404 
L 147.737457 223.373495 
L 148.053392 223.919137 
L 148.527294 225.273898 
L 149.159163 227.877142 
L 150.106968 232.982256 
L 151.370707 241.22738 
L 152.634446 249.33586 
L 153.424283 252.731639 
L 154.214119 255.032164 
L 155.003956 256.579862 
L 155.793793 257.620225 
L 156.58363 258.319562 
L 157.531434 258.863102 
L 158.637206 259.242902 
L 160.21688 259.522497 
L 162.58639 259.682966 
L 167.641346 259.747434 
L 206.975222 259.75304 
L 215.189525 259.837595 
L 215.50546 260.119526 
L 215.979362 260.943594 
L 216.611232 262.659002 
L 217.401069 265.511709 
L 218.50684 270.371799 
L 220.244481 279.168871 
L 227.510981 317.272933 
L 228.77472 322.715336 
L 229.564556 325.094577 
L 230.354393 326.714918 
L 231.14423 327.805735 
L 231.934067 328.539174 
L 232.881871 329.109342 
L 233.987643 329.507361 
L 235.409349 329.78065 
L 237.620892 329.956301 
L 241.886012 330.032448 
L 269.0564 330.042492 
L 461.776595 330.042492 
L 462.250497 332.275512 
L 463.040334 335.718008 
L 463.830171 338.223382 
L 464.935943 340.932437 
L 466.199682 343.422628 
L 467.779355 346.010456 
L 469.516996 348.395537 
L 471.254637 350.398014 
L 472.992279 352.076049 
L 474.887887 353.588009 
L 476.783496 354.815703 
L 478.837071 355.875921 
L 481.048615 356.759552 
L 483.418125 357.468233 
L 486.103571 358.04097 
L 489.262918 358.484537 
L 493.212102 358.802205 
L 498.109091 358.978324 
L 498.109091 358.978324 
" style="fill:none;stroke:#008000;stroke-linecap:square;stroke-width:1.5;"/>
   </g>
   <g id="line2d_31">
    <path clip-path="url(#p333c4001db)" d="M 92.290909 358.934411 
L 92.448876 358.934411 
L 92.606844 66.96 
L 93.080746 181.540569 
L 93.554648 229.793662 
L 94.02855 250.185622 
L 94.502452 259.079863 
L 94.976354 263.158162 
L 95.450257 265.16134 
L 95.924159 266.233236 
L 96.556028 267.015961 
L 97.345865 267.543618 
L 98.293669 267.891418 
L 99.715376 268.154662 
L 101.926919 268.310459 
L 106.66594 268.372358 
L 145.841849 268.377497 
L 147.263555 268.377497 
L 147.421522 268.620419 
L 147.737457 269.852551 
L 148.369327 273.867783 
L 150.58087 288.624404 
L 151.844609 295.91956 
L 152.160544 296.716066 
L 152.476478 296.926287 
L 152.792413 296.780534 
L 153.424283 296.055269 
L 154.530054 294.751662 
L 155.477858 294.000704 
L 156.425663 293.53191 
L 157.689402 293.179438 
L 159.427043 292.958005 
L 162.428423 292.842383 
L 171.748498 292.813653 
L 215.663428 292.909654 
L 216.13733 293.221716 
L 216.611232 293.797723 
L 217.243101 294.940861 
L 218.032938 296.841031 
L 219.13871 300.096429 
L 220.876351 305.995013 
L 227.826915 330.414584 
L 229.248622 334.54427 
L 230.038459 336.207123 
L 230.828295 337.368714 
L 231.618132 338.150271 
L 232.565937 338.749636 
L 233.671708 339.1584 
L 235.093414 339.430521 
L 237.304958 339.597764 
L 241.886012 339.666436 
L 281.535822 339.672976 
L 462.09253 339.72413 
L 462.566432 340.158822 
L 466.831551 345.42604 
L 469.359029 347.956173 
L 471.886507 350.173777 
L 474.256018 351.958559 
L 476.625528 353.462577 
L 478.995039 354.704987 
L 481.522517 355.772679 
L 484.207962 356.657244 
L 487.051375 357.362655 
L 490.36869 357.948939 
L 494.159907 358.388536 
L 498.109091 358.666028 
L 498.109091 358.666028 
" style="fill:none;stroke:#0000ff;stroke-linecap:square;stroke-width:1.5;"/>
   </g>
   <g id="line2d_32">
    <path clip-path="url(#p333c4001db)" d="M 92.290909 358.934411 
L 92.448876 358.934411 
L 92.606844 112.216034 
L 92.922779 150.750817 
L 93.238713 167.856079 
L 93.712615 181.661797 
L 94.344485 193.343109 
L 94.976354 201.57889 
L 95.608224 207.534467 
L 96.240093 211.843776 
L 96.871963 214.95996 
L 97.6618 217.671352 
L 98.451637 219.479024 
L 99.241474 220.684294 
L 100.03131 221.488041 
L 100.979115 222.107728 
L 102.084886 222.536346 
L 103.506593 222.827153 
L 105.560168 223.003972 
L 109.825288 223.088294 
L 137.153643 223.099039 
L 147.105588 223.099039 
L 147.421522 229.887561 
L 148.211359 248.18151 
L 149.159163 264.239869 
L 150.264935 278.989015 
L 151.370707 291.498133 
L 151.528674 292.147717 
L 151.686641 291.480381 
L 152.160544 286.544378 
L 153.108348 276.559554 
L 153.898185 270.927484 
L 154.530054 267.80476 
L 155.161924 265.553987 
L 155.951761 263.603832 
L 156.741597 262.309568 
L 157.531434 261.450462 
L 158.479238 260.791768 
L 159.58501 260.338623 
L 161.006716 260.033569 
L 163.060292 259.849975 
L 167.009477 259.765653 
L 183.596051 259.75304 
L 215.189525 259.838296 
L 215.50546 260.127234 
L 215.979362 260.98377 
L 216.611232 262.779296 
L 217.401069 265.760471 
L 218.664808 271.575434 
L 220.560416 281.525221 
L 226.247242 312.01062 
L 228.300817 321.627323 
L 229.090654 324.508292 
L 229.880491 326.471061 
L 230.670328 327.747573 
L 231.460165 328.57024 
L 232.250002 329.099064 
L 233.197806 329.490544 
L 234.461545 329.773175 
L 236.357153 329.951396 
L 240.14837 330.032448 
L 260.526162 330.042492 
L 462.566432 330.149004 
L 463.198301 330.497505 
L 463.988138 331.195908 
L 465.251877 332.674933 
L 467.305453 335.519231 
L 472.834311 343.338773 
L 475.203822 346.251043 
L 477.415365 348.629817 
L 479.626908 350.673638 
L 481.838451 352.396754 
L 484.049995 353.826261 
L 486.261538 354.994392 
L 488.631049 355.995747 
L 491.158526 356.824487 
L 494.001939 357.517751 
L 497.161287 358.058955 
L 498.109091 358.18392 
L 498.109091 358.18392 
" style="fill:none;stroke:#000000;stroke-linecap:square;stroke-width:1.5;"/>
   </g>
   <g id="line2d_33">
    <path clip-path="url(#p333c4001db)" d="M 92.290909 358.934411 
L 92.448876 358.934411 
L 93.238713 266.412626 
L 93.554648 260.069306 
L 93.870583 258.467418 
L 94.02855 258.432147 
L 94.344485 259.021936 
L 96.398061 264.609158 
L 97.187898 265.833348 
L 97.977735 266.664891 
L 98.925539 267.313775 
L 100.03131 267.767387 
L 101.453017 268.078982 
L 103.506593 268.271218 
L 107.29781 268.361613 
L 124.358286 268.377497 
L 147.105588 268.377497 
L 147.263555 268.620419 
L 147.57949 269.852785 
L 148.211359 273.871053 
L 150.422902 288.710828 
L 151.686641 296.066247 
L 152.002576 296.875834 
L 152.318511 297.097735 
L 152.634446 296.961324 
L 153.266315 296.244235 
L 154.530054 294.771516 
L 155.477858 294.043682 
L 156.58363 293.521399 
L 157.847369 293.188781 
L 159.58501 292.969917 
L 162.58639 292.847989 
L 171.432563 292.813886 
L 214.715623 292.813419 
L 214.873591 292.990005 
L 215.189525 293.876206 
L 215.821395 296.753205 
L 218.032938 307.293481 
L 220.244481 316.552807 
L 222.613992 325.563138 
L 224.667568 332.553472 
L 226.563176 338.251645 
L 227.984883 341.97864 
L 228.300817 342.402587 
L 228.616752 342.503026 
L 229.090654 342.293505 
L 231.618132 340.539556 
L 232.881871 340.134062 
L 234.461545 339.881563 
L 236.989023 339.731605 
L 242.833816 339.676246 
L 320.079861 339.672976 
L 463.040334 339.772247 
L 463.830171 340.069594 
L 464.935943 340.771267 
L 466.515616 342.101736 
L 469.832931 345.289863 
L 473.308213 348.511392 
L 475.993659 350.696996 
L 478.521137 352.457952 
L 480.890647 353.845881 
L 483.418125 355.063298 
L 485.945603 356.038492 
L 488.789016 356.888021 
L 491.948363 357.581519 
L 495.423646 358.109642 
L 498.109091 358.391339 
L 498.109091 358.391339 
" style="fill:none;stroke:#bfbf00;stroke-linecap:square;stroke-width:1.5;"/>
   </g>
   <g id="line2d_34">
    <path clip-path="url(#p333c4001db)" d="M 92.290909 358.934411 
L 92.448876 358.934411 
L 92.606844 122.784807 
L 92.922779 193.641858 
L 93.238713 217.98902 
L 93.554648 225.872562 
L 93.870583 227.979216 
L 94.02855 228.178693 
L 94.186518 228.118897 
L 94.66042 227.343646 
L 95.608224 225.684064 
L 96.398061 224.764461 
L 97.187898 224.168366 
L 98.135702 223.7262 
L 99.399441 223.405963 
L 101.295049 223.203449 
L 104.770332 223.113054 
L 121.672841 223.099039 
L 147.263555 223.129404 
L 147.57949 223.376298 
L 147.895424 223.933385 
L 148.369327 225.326687 
L 149.001196 228.011684 
L 149.949 233.26372 
L 151.212739 241.690802 
L 152.318511 249.066309 
L 153.108348 252.7265 
L 153.740217 254.749532 
L 154.530054 256.483393 
L 155.319891 257.617188 
L 156.109728 258.358103 
L 157.057532 258.916591 
L 158.163304 259.292654 
L 159.742977 259.556833 
L 162.270455 259.703054 
L 168.58915 259.751405 
L 214.557656 259.75304 
L 215.031558 267.541983 
L 215.821395 279.863069 
L 216.769199 290.696721 
L 217.874971 300.701867 
L 219.296677 311.382758 
L 220.876351 321.444663 
L 222.456025 330.05277 
L 224.035698 337.393006 
L 225.457405 343.01036 
L 226.879111 347.768843 
L 227.668948 350.0689 
L 227.826915 349.889278 
L 228.14285 348.138599 
L 229.406589 339.813124 
L 230.038459 337.053148 
L 230.670328 335.067021 
L 231.460165 333.354883 
L 232.250002 332.226227 
L 233.039839 331.482276 
L 233.987643 330.915846 
L 235.093414 330.529973 
L 236.515121 330.272802 
L 238.884631 330.108595 
L 243.939587 330.04693 
L 321.97547 330.042492 
L 462.566432 330.15134 
L 463.198301 330.510586 
L 463.988138 331.231879 
L 465.251877 332.75108 
L 467.305453 335.641394 
L 472.360409 342.861103 
L 474.72992 345.834571 
L 476.941463 348.271739 
L 479.153006 350.371386 
L 481.206582 352.029333 
L 483.418125 353.524943 
L 485.629668 354.750768 
L 487.999179 355.804446 
L 490.526657 356.678967 
L 493.37007 357.413108 
L 496.529417 357.988181 
L 498.109091 358.201439 
L 498.109091 358.201439 
" style="fill:none;stroke:#bf00bf;stroke-linecap:square;stroke-width:1.5;"/>
   </g>
   <g id="line2d_35">
    <path clip-path="url(#p333c4001db)" d="M 92.290909 358.934411 
L 92.448876 358.934411 
L 92.606844 358.934411 
L 92.922779 321.120922 
L 93.238713 303.38663 
L 93.712615 290.624078 
L 94.186518 284.098567 
L 94.818387 279.042504 
L 95.450257 275.884743 
L 96.082126 273.743052 
L 96.713996 272.237398 
L 97.503832 270.944536 
L 98.293669 270.087532 
L 99.241474 269.428604 
L 100.347245 268.973591 
L 101.768951 268.665033 
L 103.822527 268.477936 
L 107.613744 268.391745 
L 128.781372 268.377497 
L 147.895424 268.475834 
L 148.369327 268.851663 
L 148.843229 269.590008 
L 149.475098 271.107574 
L 150.264935 273.687694 
L 151.370707 278.182464 
L 153.266315 286.131877 
L 154.056152 288.311407 
L 154.845989 289.809353 
L 155.635826 290.815847 
L 156.425663 291.486687 
L 157.373467 292.001964 
L 158.479238 292.35607 
L 160.058912 292.61184 
L 162.58639 292.758995 
L 168.58915 292.811083 
L 214.715623 292.813419 
L 214.873591 292.990005 
L 215.189525 293.869666 
L 215.821395 296.698781 
L 217.874971 306.306374 
L 220.244481 316.085648 
L 222.771959 325.582058 
L 224.825535 332.500683 
L 226.721144 338.156344 
L 227.984883 341.466166 
L 228.300817 341.899223 
L 228.616752 342.014845 
L 229.090654 341.839893 
L 231.460165 340.373948 
L 232.723904 340.02101 
L 234.461545 339.804014 
L 237.462925 339.696801 
L 248.836576 339.67321 
L 462.09253 339.72413 
L 462.566432 340.158822 
L 466.989518 345.627853 
L 469.516996 348.150512 
L 471.886507 350.222829 
L 474.256018 352.005742 
L 476.625528 353.505789 
L 478.995039 354.742827 
L 481.522517 355.804679 
L 484.207962 356.683172 
L 487.051375 357.382976 
L 490.36869 357.963888 
L 494.317874 358.412595 
L 498.109091 358.672335 
L 498.109091 358.672335 
" style="fill:none;stroke:#00bfbf;stroke-linecap:square;stroke-width:1.5;"/>
   </g>
   <g id="patch_3">
    <path d="M 72 384.48 
L 72 51.84 
" style="fill:none;stroke:#000000;stroke-linecap:square;stroke-linejoin:miter;stroke-width:0.8;"/>
   </g>
   <g id="patch_4">
    <path d="M 518.4 384.48 
L 518.4 51.84 
" style="fill:none;stroke:#000000;stroke-linecap:square;stroke-linejoin:miter;stroke-width:0.8;"/>
   </g>
   <g id="patch_5">
    <path d="M 72 384.48 
L 518.4 384.48 
" style="fill:none;stroke:#000000;stroke-linecap:square;stroke-linejoin:miter;stroke-width:0.8;"/>
   </g>
   <g id="patch_6">
    <path d="M 72 51.84 
L 518.4 51.84 
" style="fill:none;stroke:#000000;stroke-linecap:square;stroke-linejoin:miter;stroke-width:0.8;"/>
   </g>
   <g id="text_16">
    <!-- $\partial\mathcal{L} / \partial\lambda_{m}$ -->
    <g transform="translate(271.61 45.84)scale(0.14 -0.14)">
     <use transform="translate(0 0.015625)" xlink:href="#DejaVuSans-2202"/>
     <use transform="translate(51.708984 0.015625)" xlink:href="#STIXNonUnicode-Italic-e238"/>
     <use transform="translate(121.008972 0.015625)" xlink:href="#DejaVuSans-2f"/>
     <use transform="translate(154.700378 0.015625)" xlink:href="#DejaVuSans-2202"/>
     <use transform="translate(206.409363 0.015625)" xlink:href="#DejaVuSans-Oblique-3bb"/>
     <use transform="translate(265.58905 -16.390625)scale(0.7)" xlink:href="#DejaVuSans-Oblique-6d"/>
    </g>
   </g>
   <g id="legend_1">
    <g id="patch_7">
     <path d="M 448.1 191.943125 
L 511.4 191.943125 
Q 513.4 191.943125 513.4 189.943125 
L 513.4 58.84 
Q 513.4 56.84 511.4 56.84 
L 448.1 56.84 
Q 446.1 56.84 446.1 58.84 
L 446.1 189.943125 
Q 446.1 191.943125 448.1 191.943125 
z
" style="fill:#ffffff;opacity:0.8;stroke:#cccccc;stroke-linejoin:miter;"/>
    </g>
    <g id="line2d_36">
     <path d="M 450.1 64.938437 
L 470.1 64.938437 
" style="fill:none;stroke:#bf00bf;stroke-linecap:square;stroke-width:1.5;"/>
    </g>
    <g id="line2d_37"/>
    <g id="text_17">
     <!-- $\partial\mathcal{L} / \partial\lambda_{1}$ -->
     <g transform="translate(478.1 68.438437)scale(0.1 -0.1)">
      <use transform="translate(0 0.015625)" xlink:href="#DejaVuSans-2202"/>
      <use transform="translate(51.708984 0.015625)" xlink:href="#STIXNonUnicode-Italic-e238"/>
      <use transform="translate(121.008972 0.015625)" xlink:href="#DejaVuSans-2f"/>
      <use transform="translate(154.700378 0.015625)" xlink:href="#DejaVuSans-2202"/>
      <use transform="translate(206.409363 0.015625)" xlink:href="#DejaVuSans-Oblique-3bb"/>
      <use transform="translate(265.58905 -16.390625)scale(0.7)" xlink:href="#DejaVuSans-31"/>
     </g>
    </g>
    <g id="line2d_38">
     <path d="M 450.1 79.616562 
L 470.1 79.616562 
" style="fill:none;stroke:#00bfbf;stroke-linecap:square;stroke-width:1.5;"/>
    </g>
    <g id="line2d_39"/>
    <g id="text_18">
     <!-- $\partial\mathcal{L} / \partial\lambda_{2}$ -->
     <g transform="translate(478.1 83.116562)scale(0.1 -0.1)">
      <use transform="translate(0 0.015625)" xlink:href="#DejaVuSans-2202"/>
      <use transform="translate(51.708984 0.015625)" xlink:href="#STIXNonUnicode-Italic-e238"/>
      <use transform="translate(121.008972 0.015625)" xlink:href="#DejaVuSans-2f"/>
      <use transform="translate(154.700378 0.015625)" xlink:href="#DejaVuSans-2202"/>
      <use transform="translate(206.409363 0.015625)" xlink:href="#DejaVuSans-Oblique-3bb"/>
      <use transform="translate(265.58905 -16.390625)scale(0.7)" xlink:href="#DejaVuSans-32"/>
     </g>
    </g>
    <g id="line2d_40">
     <path d="M 450.1 94.294687 
L 470.1 94.294687 
" style="fill:none;stroke:#ff0000;stroke-linecap:square;stroke-width:1.5;"/>
    </g>
    <g id="line2d_41"/>
    <g id="text_19">
     <!-- $\partial\mathcal{L} / \partial\lambda_{3}$ -->
     <defs>
      <path d="M 40.578125 39.3125 
Q 47.65625 37.796875 51.625 33 
Q 55.609375 28.21875 55.609375 21.1875 
Q 55.609375 10.40625 48.1875 4.484375 
Q 40.765625 -1.421875 27.09375 -1.421875 
Q 22.515625 -1.421875 17.65625 -0.515625 
Q 12.796875 0.390625 7.625 2.203125 
L 7.625 11.71875 
Q 11.71875 9.328125 16.59375 8.109375 
Q 21.484375 6.890625 26.8125 6.890625 
Q 36.078125 6.890625 40.9375 10.546875 
Q 45.796875 14.203125 45.796875 21.1875 
Q 45.796875 27.640625 41.28125 31.265625 
Q 36.765625 34.90625 28.71875 34.90625 
L 20.21875 34.90625 
L 20.21875 43.015625 
L 29.109375 43.015625 
Q 36.375 43.015625 40.234375 45.921875 
Q 44.09375 48.828125 44.09375 54.296875 
Q 44.09375 59.90625 40.109375 62.90625 
Q 36.140625 65.921875 28.71875 65.921875 
Q 24.65625 65.921875 20.015625 65.03125 
Q 15.375 64.15625 9.8125 62.3125 
L 9.8125 71.09375 
Q 15.4375 72.65625 20.34375 73.4375 
Q 25.25 74.21875 29.59375 74.21875 
Q 40.828125 74.21875 47.359375 69.109375 
Q 53.90625 64.015625 53.90625 55.328125 
Q 53.90625 49.265625 50.4375 45.09375 
Q 46.96875 40.921875 40.578125 39.3125 
z
" id="DejaVuSans-33"/>
     </defs>
     <g transform="translate(478.1 97.794687)scale(0.1 -0.1)">
      <use transform="translate(0 0.015625)" xlink:href="#DejaVuSans-2202"/>
      <use transform="translate(51.708984 0.015625)" xlink:href="#STIXNonUnicode-Italic-e238"/>
      <use transform="translate(121.008972 0.015625)" xlink:href="#DejaVuSans-2f"/>
      <use transform="translate(154.700378 0.015625)" xlink:href="#DejaVuSans-2202"/>
      <use transform="translate(206.409363 0.015625)" xlink:href="#DejaVuSans-Oblique-3bb"/>
      <use transform="translate(265.58905 -16.390625)scale(0.7)" xlink:href="#DejaVuSans-33"/>
     </g>
    </g>
    <g id="line2d_42">
     <path d="M 450.1 108.972812 
L 470.1 108.972812 
" style="fill:none;stroke:#008000;stroke-linecap:square;stroke-width:1.5;"/>
    </g>
    <g id="line2d_43"/>
    <g id="text_20">
     <!-- $\partial\mathcal{L} / \partial\lambda_{4}$ -->
     <g transform="translate(478.1 112.472812)scale(0.1 -0.1)">
      <use transform="translate(0 0.015625)" xlink:href="#DejaVuSans-2202"/>
      <use transform="translate(51.708984 0.015625)" xlink:href="#STIXNonUnicode-Italic-e238"/>
      <use transform="translate(121.008972 0.015625)" xlink:href="#DejaVuSans-2f"/>
      <use transform="translate(154.700378 0.015625)" xlink:href="#DejaVuSans-2202"/>
      <use transform="translate(206.409363 0.015625)" xlink:href="#DejaVuSans-Oblique-3bb"/>
      <use transform="translate(265.58905 -16.390625)scale(0.7)" xlink:href="#DejaVuSans-34"/>
     </g>
    </g>
    <g id="line2d_44">
     <path d="M 450.1 123.650937 
L 470.1 123.650937 
" style="fill:none;stroke:#0000ff;stroke-linecap:square;stroke-width:1.5;"/>
    </g>
    <g id="line2d_45"/>
    <g id="text_21">
     <!-- $\partial\mathcal{L} / \partial\lambda_{5}$ -->
     <g transform="translate(478.1 127.150937)scale(0.1 -0.1)">
      <use transform="translate(0 0.015625)" xlink:href="#DejaVuSans-2202"/>
      <use transform="translate(51.708984 0.015625)" xlink:href="#STIXNonUnicode-Italic-e238"/>
      <use transform="translate(121.008972 0.015625)" xlink:href="#DejaVuSans-2f"/>
      <use transform="translate(154.700378 0.015625)" xlink:href="#DejaVuSans-2202"/>
      <use transform="translate(206.409363 0.015625)" xlink:href="#DejaVuSans-Oblique-3bb"/>
      <use transform="translate(265.58905 -16.390625)scale(0.7)" xlink:href="#DejaVuSans-35"/>
     </g>
    </g>
    <g id="line2d_46">
     <path d="M 450.1 138.329062 
L 470.1 138.329062 
" style="fill:none;stroke:#000000;stroke-linecap:square;stroke-width:1.5;"/>
    </g>
    <g id="line2d_47"/>
    <g id="text_22">
     <!-- $\partial\mathcal{L} / \partial\lambda_{6}$ -->
     <g transform="translate(478.1 141.829062)scale(0.1 -0.1)">
      <use transform="translate(0 0.015625)" xlink:href="#DejaVuSans-2202"/>
      <use transform="translate(51.708984 0.015625)" xlink:href="#STIXNonUnicode-Italic-e238"/>
      <use transform="translate(121.008972 0.015625)" xlink:href="#DejaVuSans-2f"/>
      <use transform="translate(154.700378 0.015625)" xlink:href="#DejaVuSans-2202"/>
      <use transform="translate(206.409363 0.015625)" xlink:href="#DejaVuSans-Oblique-3bb"/>
      <use transform="translate(265.58905 -16.390625)scale(0.7)" xlink:href="#DejaVuSans-36"/>
     </g>
    </g>
    <g id="line2d_48">
     <path d="M 450.1 153.007187 
L 470.1 153.007187 
" style="fill:none;stroke:#bfbf00;stroke-linecap:square;stroke-width:1.5;"/>
    </g>
    <g id="line2d_49"/>
    <g id="text_23">
     <!-- $\partial\mathcal{L} / \partial\lambda_{7}$ -->
     <defs>
      <path d="M 8.203125 72.90625 
L 55.078125 72.90625 
L 55.078125 68.703125 
L 28.609375 0 
L 18.3125 0 
L 43.21875 64.59375 
L 8.203125 64.59375 
z
" id="DejaVuSans-37"/>
     </defs>
     <g transform="translate(478.1 156.507187)scale(0.1 -0.1)">
      <use transform="translate(0 0.015625)" xlink:href="#DejaVuSans-2202"/>
      <use transform="translate(51.708984 0.015625)" xlink:href="#STIXNonUnicode-Italic-e238"/>
      <use transform="translate(121.008972 0.015625)" xlink:href="#DejaVuSans-2f"/>
      <use transform="translate(154.700378 0.015625)" xlink:href="#DejaVuSans-2202"/>
      <use transform="translate(206.409363 0.015625)" xlink:href="#DejaVuSans-Oblique-3bb"/>
      <use transform="translate(265.58905 -16.390625)scale(0.7)" xlink:href="#DejaVuSans-37"/>
     </g>
    </g>
    <g id="line2d_50">
     <path d="M 450.1 167.685312 
L 470.1 167.685312 
" style="fill:none;stroke:#bf00bf;stroke-linecap:square;stroke-width:1.5;"/>
    </g>
    <g id="line2d_51"/>
    <g id="text_24">
     <!-- $\partial\mathcal{L} / \partial\lambda_{8}$ -->
     <g transform="translate(478.1 171.185312)scale(0.1 -0.1)">
      <use transform="translate(0 0.015625)" xlink:href="#DejaVuSans-2202"/>
      <use transform="translate(51.708984 0.015625)" xlink:href="#STIXNonUnicode-Italic-e238"/>
      <use transform="translate(121.008972 0.015625)" xlink:href="#DejaVuSans-2f"/>
      <use transform="translate(154.700378 0.015625)" xlink:href="#DejaVuSans-2202"/>
      <use transform="translate(206.409363 0.015625)" xlink:href="#DejaVuSans-Oblique-3bb"/>
      <use transform="translate(265.58905 -16.390625)scale(0.7)" xlink:href="#DejaVuSans-38"/>
     </g>
    </g>
    <g id="line2d_52">
     <path d="M 450.1 182.363437 
L 470.1 182.363437 
" style="fill:none;stroke:#00bfbf;stroke-linecap:square;stroke-width:1.5;"/>
    </g>
    <g id="line2d_53"/>
    <g id="text_25">
     <!-- $\partial\mathcal{L} / \partial\lambda_{9}$ -->
     <defs>
      <path d="M 10.984375 1.515625 
L 10.984375 10.5 
Q 14.703125 8.734375 18.5 7.8125 
Q 22.3125 6.890625 25.984375 6.890625 
Q 35.75 6.890625 40.890625 13.453125 
Q 46.046875 20.015625 46.78125 33.40625 
Q 43.953125 29.203125 39.59375 26.953125 
Q 35.25 24.703125 29.984375 24.703125 
Q 19.046875 24.703125 12.671875 31.3125 
Q 6.296875 37.9375 6.296875 49.421875 
Q 6.296875 60.640625 12.9375 67.421875 
Q 19.578125 74.21875 30.609375 74.21875 
Q 43.265625 74.21875 49.921875 64.515625 
Q 56.59375 54.828125 56.59375 36.375 
Q 56.59375 19.140625 48.40625 8.859375 
Q 40.234375 -1.421875 26.421875 -1.421875 
Q 22.703125 -1.421875 18.890625 -0.6875 
Q 15.09375 0.046875 10.984375 1.515625 
z
M 30.609375 32.421875 
Q 37.25 32.421875 41.125 36.953125 
Q 45.015625 41.5 45.015625 49.421875 
Q 45.015625 57.28125 41.125 61.84375 
Q 37.25 66.40625 30.609375 66.40625 
Q 23.96875 66.40625 20.09375 61.84375 
Q 16.21875 57.28125 16.21875 49.421875 
Q 16.21875 41.5 20.09375 36.953125 
Q 23.96875 32.421875 30.609375 32.421875 
z
" id="DejaVuSans-39"/>
     </defs>
     <g transform="translate(478.1 185.863437)scale(0.1 -0.1)">
      <use transform="translate(0 0.015625)" xlink:href="#DejaVuSans-2202"/>
      <use transform="translate(51.708984 0.015625)" xlink:href="#STIXNonUnicode-Italic-e238"/>
      <use transform="translate(121.008972 0.015625)" xlink:href="#DejaVuSans-2f"/>
      <use transform="translate(154.700378 0.015625)" xlink:href="#DejaVuSans-2202"/>
      <use transform="translate(206.409363 0.015625)" xlink:href="#DejaVuSans-Oblique-3bb"/>
      <use transform="translate(265.58905 -16.390625)scale(0.7)" xlink:href="#DejaVuSans-39"/>
     </g>
    </g>
   </g>
  </g>
 </g>
 <defs>
  <clipPath id="p333c4001db">
   <rect height="332.64" width="446.4" x="72" y="51.84"/>
  </clipPath>
 </defs>
</svg>
