<?xml version="1.0" encoding="utf-8" standalone="no"?>
<!DOCTYPE svg PUBLIC "-//W3C//DTD SVG 1.1//EN"
  "http://www.w3.org/Graphics/SVG/1.1/DTD/svg11.dtd">
<!-- Created with matplotlib (http://matplotlib.org/) -->
<svg height="432pt" version="1.1" viewBox="0 0 576 432" width="576pt" xmlns="http://www.w3.org/2000/svg" xmlns:xlink="http://www.w3.org/1999/xlink">
 <defs>
  <style type="text/css">
*{stroke-linecap:butt;stroke-linejoin:round;}
  </style>
 </defs>
 <g id="figure_1">
  <g id="patch_1">
   <path d="M 0 432 
L 576 432 
L 576 0 
L 0 0 
z
" style="fill:#ffffff;"/>
  </g>
  <g id="axes_1">
   <g id="patch_2">
    <path d="M 72 384.48 
L 518.4 384.48 
L 518.4 51.84 
L 72 51.84 
z
" style="fill:#ffffff;"/>
   </g>
   <g id="matplotlib.axis_1">
    <g id="xtick_1">
     <g id="line2d_1">
      <path clip-path="url(#pb4a09e868c)" d="M 92.290909 384.48 
L 92.290909 51.84 
" style="fill:none;stroke:#b0b0b0;stroke-dasharray:5.12,1.28,0.8,1.28;stroke-dashoffset:0;stroke-width:0.8;"/>
     </g>
     <g id="line2d_2">
      <defs>
       <path d="M 0 0 
L 0 3.5 
" id="me409d38a2d" style="stroke:#000000;stroke-width:0.8;"/>
      </defs>
      <g>
       <use style="stroke:#000000;stroke-width:0.8;" x="92.290909" xlink:href="#me409d38a2d" y="384.48"/>
      </g>
     </g>
     <g id="text_1">
      <!-- 0 -->
      <defs>
       <path d="M 31.78125 66.40625 
Q 24.171875 66.40625 20.328125 58.90625 
Q 16.5 51.421875 16.5 36.375 
Q 16.5 21.390625 20.328125 13.890625 
Q 24.171875 6.390625 31.78125 6.390625 
Q 39.453125 6.390625 43.28125 13.890625 
Q 47.125 21.390625 47.125 36.375 
Q 47.125 51.421875 43.28125 58.90625 
Q 39.453125 66.40625 31.78125 66.40625 
z
M 31.78125 74.21875 
Q 44.046875 74.21875 50.515625 64.515625 
Q 56.984375 54.828125 56.984375 36.375 
Q 56.984375 17.96875 50.515625 8.265625 
Q 44.046875 -1.421875 31.78125 -1.421875 
Q 19.53125 -1.421875 13.0625 8.265625 
Q 6.59375 17.96875 6.59375 36.375 
Q 6.59375 54.828125 13.0625 64.515625 
Q 19.53125 74.21875 31.78125 74.21875 
z
" id="DejaVuSans-30"/>
      </defs>
      <g transform="translate(89.109659 399.078438)scale(0.1 -0.1)">
       <use xlink:href="#DejaVuSans-30"/>
      </g>
     </g>
    </g>
    <g id="xtick_2">
     <g id="line2d_3">
      <path clip-path="url(#pb4a09e868c)" d="M 152.716487 384.48 
L 152.716487 51.84 
" style="fill:none;stroke:#b0b0b0;stroke-dasharray:5.12,1.28,0.8,1.28;stroke-dashoffset:0;stroke-width:0.8;"/>
     </g>
     <g id="line2d_4">
      <g>
       <use style="stroke:#000000;stroke-width:0.8;" x="152.716487" xlink:href="#me409d38a2d" y="384.48"/>
      </g>
     </g>
     <g id="text_2">
      <!-- 250 -->
      <defs>
       <path d="M 19.1875 8.296875 
L 53.609375 8.296875 
L 53.609375 0 
L 7.328125 0 
L 7.328125 8.296875 
Q 12.9375 14.109375 22.625 23.890625 
Q 32.328125 33.6875 34.8125 36.53125 
Q 39.546875 41.84375 41.421875 45.53125 
Q 43.3125 49.21875 43.3125 52.78125 
Q 43.3125 58.59375 39.234375 62.25 
Q 35.15625 65.921875 28.609375 65.921875 
Q 23.96875 65.921875 18.8125 64.3125 
Q 13.671875 62.703125 7.8125 59.421875 
L 7.8125 69.390625 
Q 13.765625 71.78125 18.9375 73 
Q 24.125 74.21875 28.421875 74.21875 
Q 39.75 74.21875 46.484375 68.546875 
Q 53.21875 62.890625 53.21875 53.421875 
Q 53.21875 48.921875 51.53125 44.890625 
Q 49.859375 40.875 45.40625 35.40625 
Q 44.1875 33.984375 37.640625 27.21875 
Q 31.109375 20.453125 19.1875 8.296875 
z
" id="DejaVuSans-32"/>
       <path d="M 10.796875 72.90625 
L 49.515625 72.90625 
L 49.515625 64.59375 
L 19.828125 64.59375 
L 19.828125 46.734375 
Q 21.96875 47.46875 24.109375 47.828125 
Q 26.265625 48.1875 28.421875 48.1875 
Q 40.625 48.1875 47.75 41.5 
Q 54.890625 34.8125 54.890625 23.390625 
Q 54.890625 11.625 47.5625 5.09375 
Q 40.234375 -1.421875 26.90625 -1.421875 
Q 22.3125 -1.421875 17.546875 -0.640625 
Q 12.796875 0.140625 7.71875 1.703125 
L 7.71875 11.625 
Q 12.109375 9.234375 16.796875 8.0625 
Q 21.484375 6.890625 26.703125 6.890625 
Q 35.15625 6.890625 40.078125 11.328125 
Q 45.015625 15.765625 45.015625 23.390625 
Q 45.015625 31 40.078125 35.4375 
Q 35.15625 39.890625 26.703125 39.890625 
Q 22.75 39.890625 18.8125 39.015625 
Q 14.890625 38.140625 10.796875 36.28125 
z
" id="DejaVuSans-35"/>
      </defs>
      <g transform="translate(143.172737 399.078438)scale(0.1 -0.1)">
       <use xlink:href="#DejaVuSans-32"/>
       <use x="63.623047" xlink:href="#DejaVuSans-35"/>
       <use x="127.246094" xlink:href="#DejaVuSans-30"/>
      </g>
     </g>
    </g>
    <g id="xtick_3">
     <g id="line2d_5">
      <path clip-path="url(#pb4a09e868c)" d="M 213.142065 384.48 
L 213.142065 51.84 
" style="fill:none;stroke:#b0b0b0;stroke-dasharray:5.12,1.28,0.8,1.28;stroke-dashoffset:0;stroke-width:0.8;"/>
     </g>
     <g id="line2d_6">
      <g>
       <use style="stroke:#000000;stroke-width:0.8;" x="213.142065" xlink:href="#me409d38a2d" y="384.48"/>
      </g>
     </g>
     <g id="text_3">
      <!-- 500 -->
      <g transform="translate(203.598315 399.078438)scale(0.1 -0.1)">
       <use xlink:href="#DejaVuSans-35"/>
       <use x="63.623047" xlink:href="#DejaVuSans-30"/>
       <use x="127.246094" xlink:href="#DejaVuSans-30"/>
      </g>
     </g>
    </g>
    <g id="xtick_4">
     <g id="line2d_7">
      <path clip-path="url(#pb4a09e868c)" d="M 273.567643 384.48 
L 273.567643 51.84 
" style="fill:none;stroke:#b0b0b0;stroke-dasharray:5.12,1.28,0.8,1.28;stroke-dashoffset:0;stroke-width:0.8;"/>
     </g>
     <g id="line2d_8">
      <g>
       <use style="stroke:#000000;stroke-width:0.8;" x="273.567643" xlink:href="#me409d38a2d" y="384.48"/>
      </g>
     </g>
     <g id="text_4">
      <!-- 750 -->
      <defs>
       <path d="M 8.203125 72.90625 
L 55.078125 72.90625 
L 55.078125 68.703125 
L 28.609375 0 
L 18.3125 0 
L 43.21875 64.59375 
L 8.203125 64.59375 
z
" id="DejaVuSans-37"/>
      </defs>
      <g transform="translate(264.023893 399.078438)scale(0.1 -0.1)">
       <use xlink:href="#DejaVuSans-37"/>
       <use x="63.623047" xlink:href="#DejaVuSans-35"/>
       <use x="127.246094" xlink:href="#DejaVuSans-30"/>
      </g>
     </g>
    </g>
    <g id="xtick_5">
     <g id="line2d_9">
      <path clip-path="url(#pb4a09e868c)" d="M 333.993221 384.48 
L 333.993221 51.84 
" style="fill:none;stroke:#b0b0b0;stroke-dasharray:5.12,1.28,0.8,1.28;stroke-dashoffset:0;stroke-width:0.8;"/>
     </g>
     <g id="line2d_10">
      <g>
       <use style="stroke:#000000;stroke-width:0.8;" x="333.993221" xlink:href="#me409d38a2d" y="384.48"/>
      </g>
     </g>
     <g id="text_5">
      <!-- 1000 -->
      <defs>
       <path d="M 12.40625 8.296875 
L 28.515625 8.296875 
L 28.515625 63.921875 
L 10.984375 60.40625 
L 10.984375 69.390625 
L 28.421875 72.90625 
L 38.28125 72.90625 
L 38.28125 8.296875 
L 54.390625 8.296875 
L 54.390625 0 
L 12.40625 0 
z
" id="DejaVuSans-31"/>
      </defs>
      <g transform="translate(321.268221 399.078438)scale(0.1 -0.1)">
       <use xlink:href="#DejaVuSans-31"/>
       <use x="63.623047" xlink:href="#DejaVuSans-30"/>
       <use x="127.246094" xlink:href="#DejaVuSans-30"/>
       <use x="190.869141" xlink:href="#DejaVuSans-30"/>
      </g>
     </g>
    </g>
    <g id="xtick_6">
     <g id="line2d_11">
      <path clip-path="url(#pb4a09e868c)" d="M 394.418799 384.48 
L 394.418799 51.84 
" style="fill:none;stroke:#b0b0b0;stroke-dasharray:5.12,1.28,0.8,1.28;stroke-dashoffset:0;stroke-width:0.8;"/>
     </g>
     <g id="line2d_12">
      <g>
       <use style="stroke:#000000;stroke-width:0.8;" x="394.418799" xlink:href="#me409d38a2d" y="384.48"/>
      </g>
     </g>
     <g id="text_6">
      <!-- 1250 -->
      <g transform="translate(381.693799 399.078438)scale(0.1 -0.1)">
       <use xlink:href="#DejaVuSans-31"/>
       <use x="63.623047" xlink:href="#DejaVuSans-32"/>
       <use x="127.246094" xlink:href="#DejaVuSans-35"/>
       <use x="190.869141" xlink:href="#DejaVuSans-30"/>
      </g>
     </g>
    </g>
    <g id="xtick_7">
     <g id="line2d_13">
      <path clip-path="url(#pb4a09e868c)" d="M 454.844377 384.48 
L 454.844377 51.84 
" style="fill:none;stroke:#b0b0b0;stroke-dasharray:5.12,1.28,0.8,1.28;stroke-dashoffset:0;stroke-width:0.8;"/>
     </g>
     <g id="line2d_14">
      <g>
       <use style="stroke:#000000;stroke-width:0.8;" x="454.844377" xlink:href="#me409d38a2d" y="384.48"/>
      </g>
     </g>
     <g id="text_7">
      <!-- 1500 -->
      <g transform="translate(442.119377 399.078438)scale(0.1 -0.1)">
       <use xlink:href="#DejaVuSans-31"/>
       <use x="63.623047" xlink:href="#DejaVuSans-35"/>
       <use x="127.246094" xlink:href="#DejaVuSans-30"/>
       <use x="190.869141" xlink:href="#DejaVuSans-30"/>
      </g>
     </g>
    </g>
    <g id="xtick_8">
     <g id="line2d_15">
      <path clip-path="url(#pb4a09e868c)" d="M 515.269955 384.48 
L 515.269955 51.84 
" style="fill:none;stroke:#b0b0b0;stroke-dasharray:5.12,1.28,0.8,1.28;stroke-dashoffset:0;stroke-width:0.8;"/>
     </g>
     <g id="line2d_16">
      <g>
       <use style="stroke:#000000;stroke-width:0.8;" x="515.269955" xlink:href="#me409d38a2d" y="384.48"/>
      </g>
     </g>
     <g id="text_8">
      <!-- 1750 -->
      <g transform="translate(502.544955 399.078438)scale(0.1 -0.1)">
       <use xlink:href="#DejaVuSans-31"/>
       <use x="63.623047" xlink:href="#DejaVuSans-37"/>
       <use x="127.246094" xlink:href="#DejaVuSans-35"/>
       <use x="190.869141" xlink:href="#DejaVuSans-30"/>
      </g>
     </g>
    </g>
    <g id="text_9">
     <!-- Iteration -->
     <defs>
      <path d="M 9.8125 72.90625 
L 19.671875 72.90625 
L 19.671875 0 
L 9.8125 0 
z
" id="DejaVuSans-49"/>
      <path d="M 18.3125 70.21875 
L 18.3125 54.6875 
L 36.8125 54.6875 
L 36.8125 47.703125 
L 18.3125 47.703125 
L 18.3125 18.015625 
Q 18.3125 11.328125 20.140625 9.421875 
Q 21.96875 7.515625 27.59375 7.515625 
L 36.8125 7.515625 
L 36.8125 0 
L 27.59375 0 
Q 17.1875 0 13.234375 3.875 
Q 9.28125 7.765625 9.28125 18.015625 
L 9.28125 47.703125 
L 2.6875 47.703125 
L 2.6875 54.6875 
L 9.28125 54.6875 
L 9.28125 70.21875 
z
" id="DejaVuSans-74"/>
      <path d="M 56.203125 29.59375 
L 56.203125 25.203125 
L 14.890625 25.203125 
Q 15.484375 15.921875 20.484375 11.0625 
Q 25.484375 6.203125 34.421875 6.203125 
Q 39.59375 6.203125 44.453125 7.46875 
Q 49.3125 8.734375 54.109375 11.28125 
L 54.109375 2.78125 
Q 49.265625 0.734375 44.1875 -0.34375 
Q 39.109375 -1.421875 33.890625 -1.421875 
Q 20.796875 -1.421875 13.15625 6.1875 
Q 5.515625 13.8125 5.515625 26.8125 
Q 5.515625 40.234375 12.765625 48.109375 
Q 20.015625 56 32.328125 56 
Q 43.359375 56 49.78125 48.890625 
Q 56.203125 41.796875 56.203125 29.59375 
z
M 47.21875 32.234375 
Q 47.125 39.59375 43.09375 43.984375 
Q 39.0625 48.390625 32.421875 48.390625 
Q 24.90625 48.390625 20.390625 44.140625 
Q 15.875 39.890625 15.1875 32.171875 
z
" id="DejaVuSans-65"/>
      <path d="M 41.109375 46.296875 
Q 39.59375 47.171875 37.8125 47.578125 
Q 36.03125 48 33.890625 48 
Q 26.265625 48 22.1875 43.046875 
Q 18.109375 38.09375 18.109375 28.8125 
L 18.109375 0 
L 9.078125 0 
L 9.078125 54.6875 
L 18.109375 54.6875 
L 18.109375 46.1875 
Q 20.953125 51.171875 25.484375 53.578125 
Q 30.03125 56 36.53125 56 
Q 37.453125 56 38.578125 55.875 
Q 39.703125 55.765625 41.0625 55.515625 
z
" id="DejaVuSans-72"/>
      <path d="M 34.28125 27.484375 
Q 23.390625 27.484375 19.1875 25 
Q 14.984375 22.515625 14.984375 16.5 
Q 14.984375 11.71875 18.140625 8.90625 
Q 21.296875 6.109375 26.703125 6.109375 
Q 34.1875 6.109375 38.703125 11.40625 
Q 43.21875 16.703125 43.21875 25.484375 
L 43.21875 27.484375 
z
M 52.203125 31.203125 
L 52.203125 0 
L 43.21875 0 
L 43.21875 8.296875 
Q 40.140625 3.328125 35.546875 0.953125 
Q 30.953125 -1.421875 24.3125 -1.421875 
Q 15.921875 -1.421875 10.953125 3.296875 
Q 6 8.015625 6 15.921875 
Q 6 25.140625 12.171875 29.828125 
Q 18.359375 34.515625 30.609375 34.515625 
L 43.21875 34.515625 
L 43.21875 35.40625 
Q 43.21875 41.609375 39.140625 45 
Q 35.0625 48.390625 27.6875 48.390625 
Q 23 48.390625 18.546875 47.265625 
Q 14.109375 46.140625 10.015625 43.890625 
L 10.015625 52.203125 
Q 14.9375 54.109375 19.578125 55.046875 
Q 24.21875 56 28.609375 56 
Q 40.484375 56 46.34375 49.84375 
Q 52.203125 43.703125 52.203125 31.203125 
z
" id="DejaVuSans-61"/>
      <path d="M 9.421875 54.6875 
L 18.40625 54.6875 
L 18.40625 0 
L 9.421875 0 
z
M 9.421875 75.984375 
L 18.40625 75.984375 
L 18.40625 64.59375 
L 9.421875 64.59375 
z
" id="DejaVuSans-69"/>
      <path d="M 30.609375 48.390625 
Q 23.390625 48.390625 19.1875 42.75 
Q 14.984375 37.109375 14.984375 27.296875 
Q 14.984375 17.484375 19.15625 11.84375 
Q 23.34375 6.203125 30.609375 6.203125 
Q 37.796875 6.203125 41.984375 11.859375 
Q 46.1875 17.53125 46.1875 27.296875 
Q 46.1875 37.015625 41.984375 42.703125 
Q 37.796875 48.390625 30.609375 48.390625 
z
M 30.609375 56 
Q 42.328125 56 49.015625 48.375 
Q 55.71875 40.765625 55.71875 27.296875 
Q 55.71875 13.875 49.015625 6.21875 
Q 42.328125 -1.421875 30.609375 -1.421875 
Q 18.84375 -1.421875 12.171875 6.21875 
Q 5.515625 13.875 5.515625 27.296875 
Q 5.515625 40.765625 12.171875 48.375 
Q 18.84375 56 30.609375 56 
z
" id="DejaVuSans-6f"/>
      <path d="M 54.890625 33.015625 
L 54.890625 0 
L 45.90625 0 
L 45.90625 32.71875 
Q 45.90625 40.484375 42.875 44.328125 
Q 39.84375 48.1875 33.796875 48.1875 
Q 26.515625 48.1875 22.3125 43.546875 
Q 18.109375 38.921875 18.109375 30.90625 
L 18.109375 0 
L 9.078125 0 
L 9.078125 54.6875 
L 18.109375 54.6875 
L 18.109375 46.1875 
Q 21.34375 51.125 25.703125 53.5625 
Q 30.078125 56 35.796875 56 
Q 45.21875 56 50.046875 50.171875 
Q 54.890625 44.34375 54.890625 33.015625 
z
" id="DejaVuSans-6e"/>
     </defs>
     <g transform="translate(265.507969 415.795938)scale(0.14 -0.14)">
      <use xlink:href="#DejaVuSans-49"/>
      <use x="29.492188" xlink:href="#DejaVuSans-74"/>
      <use x="68.701172" xlink:href="#DejaVuSans-65"/>
      <use x="130.224609" xlink:href="#DejaVuSans-72"/>
      <use x="171.337891" xlink:href="#DejaVuSans-61"/>
      <use x="232.617188" xlink:href="#DejaVuSans-74"/>
      <use x="271.826172" xlink:href="#DejaVuSans-69"/>
      <use x="299.609375" xlink:href="#DejaVuSans-6f"/>
      <use x="360.791016" xlink:href="#DejaVuSans-6e"/>
     </g>
    </g>
   </g>
   <g id="matplotlib.axis_2">
    <g id="ytick_1">
     <g id="line2d_17">
      <path clip-path="url(#pb4a09e868c)" d="M 72 349.2 
L 518.4 349.2 
" style="fill:none;stroke:#b0b0b0;stroke-dasharray:5.12,1.28,0.8,1.28;stroke-dashoffset:0;stroke-width:0.8;"/>
     </g>
     <g id="line2d_18">
      <defs>
       <path d="M 0 0 
L -3.5 0 
" id="m698328bd33" style="stroke:#000000;stroke-width:0.8;"/>
      </defs>
      <g>
       <use style="stroke:#000000;stroke-width:0.8;" x="72" xlink:href="#m698328bd33" y="349.2"/>
      </g>
     </g>
     <g id="text_10">
      <!-- −1400 -->
      <defs>
       <path d="M 10.59375 35.5 
L 73.1875 35.5 
L 73.1875 27.203125 
L 10.59375 27.203125 
z
" id="DejaVuSans-2212"/>
       <path d="M 37.796875 64.3125 
L 12.890625 25.390625 
L 37.796875 25.390625 
z
M 35.203125 72.90625 
L 47.609375 72.90625 
L 47.609375 25.390625 
L 58.015625 25.390625 
L 58.015625 17.1875 
L 47.609375 17.1875 
L 47.609375 0 
L 37.796875 0 
L 37.796875 17.1875 
L 4.890625 17.1875 
L 4.890625 26.703125 
z
" id="DejaVuSans-34"/>
      </defs>
      <g transform="translate(31.170313 352.999219)scale(0.1 -0.1)">
       <use xlink:href="#DejaVuSans-2212"/>
       <use x="83.789062" xlink:href="#DejaVuSans-31"/>
       <use x="147.412109" xlink:href="#DejaVuSans-34"/>
       <use x="211.035156" xlink:href="#DejaVuSans-30"/>
       <use x="274.658203" xlink:href="#DejaVuSans-30"/>
      </g>
     </g>
    </g>
    <g id="ytick_2">
     <g id="line2d_19">
      <path clip-path="url(#pb4a09e868c)" d="M 72 308.88 
L 518.4 308.88 
" style="fill:none;stroke:#b0b0b0;stroke-dasharray:5.12,1.28,0.8,1.28;stroke-dashoffset:0;stroke-width:0.8;"/>
     </g>
     <g id="line2d_20">
      <g>
       <use style="stroke:#000000;stroke-width:0.8;" x="72" xlink:href="#m698328bd33" y="308.88"/>
      </g>
     </g>
     <g id="text_11">
      <!-- −1200 -->
      <g transform="translate(31.170313 312.679219)scale(0.1 -0.1)">
       <use xlink:href="#DejaVuSans-2212"/>
       <use x="83.789062" xlink:href="#DejaVuSans-31"/>
       <use x="147.412109" xlink:href="#DejaVuSans-32"/>
       <use x="211.035156" xlink:href="#DejaVuSans-30"/>
       <use x="274.658203" xlink:href="#DejaVuSans-30"/>
      </g>
     </g>
    </g>
    <g id="ytick_3">
     <g id="line2d_21">
      <path clip-path="url(#pb4a09e868c)" d="M 72 268.56 
L 518.4 268.56 
" style="fill:none;stroke:#b0b0b0;stroke-dasharray:5.12,1.28,0.8,1.28;stroke-dashoffset:0;stroke-width:0.8;"/>
     </g>
     <g id="line2d_22">
      <g>
       <use style="stroke:#000000;stroke-width:0.8;" x="72" xlink:href="#m698328bd33" y="268.56"/>
      </g>
     </g>
     <g id="text_12">
      <!-- −1000 -->
      <g transform="translate(31.170313 272.359219)scale(0.1 -0.1)">
       <use xlink:href="#DejaVuSans-2212"/>
       <use x="83.789062" xlink:href="#DejaVuSans-31"/>
       <use x="147.412109" xlink:href="#DejaVuSans-30"/>
       <use x="211.035156" xlink:href="#DejaVuSans-30"/>
       <use x="274.658203" xlink:href="#DejaVuSans-30"/>
      </g>
     </g>
    </g>
    <g id="ytick_4">
     <g id="line2d_23">
      <path clip-path="url(#pb4a09e868c)" d="M 72 228.24 
L 518.4 228.24 
" style="fill:none;stroke:#b0b0b0;stroke-dasharray:5.12,1.28,0.8,1.28;stroke-dashoffset:0;stroke-width:0.8;"/>
     </g>
     <g id="line2d_24">
      <g>
       <use style="stroke:#000000;stroke-width:0.8;" x="72" xlink:href="#m698328bd33" y="228.24"/>
      </g>
     </g>
     <g id="text_13">
      <!-- −800 -->
      <defs>
       <path d="M 31.78125 34.625 
Q 24.75 34.625 20.71875 30.859375 
Q 16.703125 27.09375 16.703125 20.515625 
Q 16.703125 13.921875 20.71875 10.15625 
Q 24.75 6.390625 31.78125 6.390625 
Q 38.8125 6.390625 42.859375 10.171875 
Q 46.921875 13.96875 46.921875 20.515625 
Q 46.921875 27.09375 42.890625 30.859375 
Q 38.875 34.625 31.78125 34.625 
z
M 21.921875 38.8125 
Q 15.578125 40.375 12.03125 44.71875 
Q 8.5 49.078125 8.5 55.328125 
Q 8.5 64.0625 14.71875 69.140625 
Q 20.953125 74.21875 31.78125 74.21875 
Q 42.671875 74.21875 48.875 69.140625 
Q 55.078125 64.0625 55.078125 55.328125 
Q 55.078125 49.078125 51.53125 44.71875 
Q 48 40.375 41.703125 38.8125 
Q 48.828125 37.15625 52.796875 32.3125 
Q 56.78125 27.484375 56.78125 20.515625 
Q 56.78125 9.90625 50.3125 4.234375 
Q 43.84375 -1.421875 31.78125 -1.421875 
Q 19.734375 -1.421875 13.25 4.234375 
Q 6.78125 9.90625 6.78125 20.515625 
Q 6.78125 27.484375 10.78125 32.3125 
Q 14.796875 37.15625 21.921875 38.8125 
z
M 18.3125 54.390625 
Q 18.3125 48.734375 21.84375 45.5625 
Q 25.390625 42.390625 31.78125 42.390625 
Q 38.140625 42.390625 41.71875 45.5625 
Q 45.3125 48.734375 45.3125 54.390625 
Q 45.3125 60.0625 41.71875 63.234375 
Q 38.140625 66.40625 31.78125 66.40625 
Q 25.390625 66.40625 21.84375 63.234375 
Q 18.3125 60.0625 18.3125 54.390625 
z
" id="DejaVuSans-38"/>
      </defs>
      <g transform="translate(37.532812 232.039219)scale(0.1 -0.1)">
       <use xlink:href="#DejaVuSans-2212"/>
       <use x="83.789062" xlink:href="#DejaVuSans-38"/>
       <use x="147.412109" xlink:href="#DejaVuSans-30"/>
       <use x="211.035156" xlink:href="#DejaVuSans-30"/>
      </g>
     </g>
    </g>
    <g id="ytick_5">
     <g id="line2d_25">
      <path clip-path="url(#pb4a09e868c)" d="M 72 187.92 
L 518.4 187.92 
" style="fill:none;stroke:#b0b0b0;stroke-dasharray:5.12,1.28,0.8,1.28;stroke-dashoffset:0;stroke-width:0.8;"/>
     </g>
     <g id="line2d_26">
      <g>
       <use style="stroke:#000000;stroke-width:0.8;" x="72" xlink:href="#m698328bd33" y="187.92"/>
      </g>
     </g>
     <g id="text_14">
      <!-- −600 -->
      <defs>
       <path d="M 33.015625 40.375 
Q 26.375 40.375 22.484375 35.828125 
Q 18.609375 31.296875 18.609375 23.390625 
Q 18.609375 15.53125 22.484375 10.953125 
Q 26.375 6.390625 33.015625 6.390625 
Q 39.65625 6.390625 43.53125 10.953125 
Q 47.40625 15.53125 47.40625 23.390625 
Q 47.40625 31.296875 43.53125 35.828125 
Q 39.65625 40.375 33.015625 40.375 
z
M 52.59375 71.296875 
L 52.59375 62.3125 
Q 48.875 64.0625 45.09375 64.984375 
Q 41.3125 65.921875 37.59375 65.921875 
Q 27.828125 65.921875 22.671875 59.328125 
Q 17.53125 52.734375 16.796875 39.40625 
Q 19.671875 43.65625 24.015625 45.921875 
Q 28.375 48.1875 33.59375 48.1875 
Q 44.578125 48.1875 50.953125 41.515625 
Q 57.328125 34.859375 57.328125 23.390625 
Q 57.328125 12.15625 50.6875 5.359375 
Q 44.046875 -1.421875 33.015625 -1.421875 
Q 20.359375 -1.421875 13.671875 8.265625 
Q 6.984375 17.96875 6.984375 36.375 
Q 6.984375 53.65625 15.1875 63.9375 
Q 23.390625 74.21875 37.203125 74.21875 
Q 40.921875 74.21875 44.703125 73.484375 
Q 48.484375 72.75 52.59375 71.296875 
z
" id="DejaVuSans-36"/>
      </defs>
      <g transform="translate(37.532812 191.719219)scale(0.1 -0.1)">
       <use xlink:href="#DejaVuSans-2212"/>
       <use x="83.789062" xlink:href="#DejaVuSans-36"/>
       <use x="147.412109" xlink:href="#DejaVuSans-30"/>
       <use x="211.035156" xlink:href="#DejaVuSans-30"/>
      </g>
     </g>
    </g>
    <g id="ytick_6">
     <g id="line2d_27">
      <path clip-path="url(#pb4a09e868c)" d="M 72 147.6 
L 518.4 147.6 
" style="fill:none;stroke:#b0b0b0;stroke-dasharray:5.12,1.28,0.8,1.28;stroke-dashoffset:0;stroke-width:0.8;"/>
     </g>
     <g id="line2d_28">
      <g>
       <use style="stroke:#000000;stroke-width:0.8;" x="72" xlink:href="#m698328bd33" y="147.6"/>
      </g>
     </g>
     <g id="text_15">
      <!-- −400 -->
      <g transform="translate(37.532812 151.399219)scale(0.1 -0.1)">
       <use xlink:href="#DejaVuSans-2212"/>
       <use x="83.789062" xlink:href="#DejaVuSans-34"/>
       <use x="147.412109" xlink:href="#DejaVuSans-30"/>
       <use x="211.035156" xlink:href="#DejaVuSans-30"/>
      </g>
     </g>
    </g>
    <g id="ytick_7">
     <g id="line2d_29">
      <path clip-path="url(#pb4a09e868c)" d="M 72 107.28 
L 518.4 107.28 
" style="fill:none;stroke:#b0b0b0;stroke-dasharray:5.12,1.28,0.8,1.28;stroke-dashoffset:0;stroke-width:0.8;"/>
     </g>
     <g id="line2d_30">
      <g>
       <use style="stroke:#000000;stroke-width:0.8;" x="72" xlink:href="#m698328bd33" y="107.28"/>
      </g>
     </g>
     <g id="text_16">
      <!-- −200 -->
      <g transform="translate(37.532812 111.079219)scale(0.1 -0.1)">
       <use xlink:href="#DejaVuSans-2212"/>
       <use x="83.789062" xlink:href="#DejaVuSans-32"/>
       <use x="147.412109" xlink:href="#DejaVuSans-30"/>
       <use x="211.035156" xlink:href="#DejaVuSans-30"/>
      </g>
     </g>
    </g>
    <g id="ytick_8">
     <g id="line2d_31">
      <path clip-path="url(#pb4a09e868c)" d="M 72 66.96 
L 518.4 66.96 
" style="fill:none;stroke:#b0b0b0;stroke-dasharray:5.12,1.28,0.8,1.28;stroke-dashoffset:0;stroke-width:0.8;"/>
     </g>
     <g id="line2d_32">
      <g>
       <use style="stroke:#000000;stroke-width:0.8;" x="72" xlink:href="#m698328bd33" y="66.96"/>
      </g>
     </g>
     <g id="text_17">
      <!-- 0 -->
      <g transform="translate(58.6375 70.759219)scale(0.1 -0.1)">
       <use xlink:href="#DejaVuSans-30"/>
      </g>
     </g>
    </g>
    <g id="text_18">
     <!-- $\partial \mathcal{L}/ \partial \mu_{mn}[A]$ -->
     <defs>
      <path d="M 21.34375 -1.421875 
Q 14.453125 -1.421875 9.96875 2.734375 
Q 4.640625 7.671875 4.640625 16.609375 
Q 4.640625 25.875 9.328125 33.109375 
Q 14.15625 40.53125 22.859375 40.53125 
Q 28.5625 40.53125 33.0625 36.96875 
Q 35.6875 34.859375 37.5 31.34375 
Q 38.140625 35.296875 38.140625 39.796875 
Q 38.140625 46.390625 36.578125 50.203125 
Q 33.109375 58.640625 23.921875 58.640625 
Q 20.453125 58.640625 15.09375 56.5 
L 15.09375 64.703125 
Q 20.75 66.21875 25.828125 66.21875 
Q 38.921875 66.21875 44.484375 54.203125 
Q 47.078125 48.53125 47.078125 40.09375 
Q 47.078125 34.578125 45.84375 28.171875 
Q 42.78125 12.15625 34.8125 4.546875 
Q 28.5625 -1.421875 21.34375 -1.421875 
z
M 12.984375 15.140625 
Q 12.984375 10.25 15.140625 7.625 
Q 17.4375 4.828125 20.953125 4.828125 
Q 24.078125 4.828125 26.5625 7.03125 
Q 30.078125 10.0625 32.671875 14.984375 
Q 34.8125 19.046875 35.890625 23.390625 
Q 31.546875 33.890625 24.03125 33.890625 
Q 17.578125 33.890625 14.75 25.390625 
Q 12.984375 20.125 12.984375 15.140625 
z
" id="DejaVuSans-2202"/>
      <path d="M 63.59375 14.296875 
L 65.296875 12.5 
Q 52.296875 -0.703125 37.703125 -0.703125 
Q 33.703125 -0.703125 28.90625 0.40625 
Q 21.796875 1.90625 17.90625 1.90625 
Q 15.703125 1.90625 10.5 0.953125 
Q 5.296875 0 3 0 
L 3.59375 2.40625 
Q 9.09375 2.40625 11.40625 11.703125 
L 18.40625 40.09375 
Q 20.09375 47 23.6875 52.390625 
Q 27.296875 57.796875 31.640625 60.84375 
Q 36 63.90625 40.390625 65.453125 
Q 44.796875 67 48.796875 67 
Q 53.796875 67 56.140625 63.796875 
Q 58.5 60.59375 58.5 56 
Q 58.5 52.296875 56.140625 50 
Q 53.796875 47.703125 50.40625 47.703125 
Q 48.203125 47.703125 46.796875 49.203125 
Q 45.40625 50.703125 45.40625 52.796875 
Q 45.40625 54.40625 46.203125 55.5 
Q 47 56.59375 47.890625 56.9375 
Q 48.796875 57.296875 49.59375 57.890625 
Q 50.40625 58.5 50.40625 59.203125 
Q 50.40625 63 44.59375 63 
Q 39.40625 63 36.09375 59.140625 
Q 32.796875 55.296875 31.09375 48.9375 
Q 29.40625 42.59375 28.046875 35.6875 
Q 26.703125 28.796875 24.203125 21.296875 
Q 21.703125 13.796875 18.09375 9.203125 
L 18.09375 8.796875 
Q 21.296875 11 29.5 11 
Q 34.796875 11 38.4375 8.5 
Q 42.09375 6 46.296875 6 
Q 54.796875 6 63.59375 14.296875 
z
" id="STIXNonUnicode-Italic-e238"/>
      <path d="M 25.390625 72.90625 
L 33.6875 72.90625 
L 8.296875 -9.28125 
L 0 -9.28125 
z
" id="DejaVuSans-2f"/>
      <path d="M -1.3125 -20.796875 
L 13.375 54.6875 
L 22.40625 54.6875 
L 15.765625 20.65625 
Q 15.578125 19.625 15.421875 18.359375 
Q 15.28125 17.09375 15.28125 15.828125 
Q 15.28125 11.28125 18.140625 8.828125 
Q 21 6.390625 26.3125 6.390625 
Q 33.546875 6.390625 37.984375 10.484375 
Q 42.4375 14.59375 44 22.796875 
L 50.203125 54.6875 
L 59.1875 54.6875 
L 51.03125 12.640625 
Q 50.828125 11.71875 50.75 11.03125 
Q 50.6875 10.359375 50.6875 9.8125 
Q 50.6875 8.296875 51.296875 7.59375 
Q 51.90625 6.890625 53.21875 6.890625 
Q 53.71875 6.890625 54.5625 7.125 
Q 55.421875 7.375 56.984375 8.015625 
L 55.609375 0.78125 
Q 53.46875 -0.296875 51.515625 -0.859375 
Q 49.5625 -1.421875 47.703125 -1.421875 
Q 44.484375 -1.421875 42.65625 0.625 
Q 40.828125 2.6875 40.828125 6.296875 
Q 38.09375 2.390625 34.296875 0.484375 
Q 30.515625 -1.421875 25.390625 -1.421875 
Q 20.84375 -1.421875 17.453125 0.671875 
Q 14.0625 2.78125 12.984375 6.203125 
L 7.71875 -20.796875 
z
" id="DejaVuSans-Oblique-3bc"/>
      <path d="M 89.796875 33.015625 
L 83.40625 0 
L 74.421875 0 
L 80.71875 32.71875 
Q 81.109375 34.8125 81.296875 36.328125 
Q 81.5 37.84375 81.5 38.921875 
Q 81.5 43.3125 79.046875 45.75 
Q 76.609375 48.1875 72.21875 48.1875 
Q 65.671875 48.1875 60.546875 43.28125 
Q 55.421875 38.375 53.90625 30.515625 
L 47.90625 0 
L 38.921875 0 
L 45.3125 32.71875 
Q 45.703125 34.515625 45.890625 36.046875 
Q 46.09375 37.59375 46.09375 38.8125 
Q 46.09375 43.265625 43.65625 45.71875 
Q 41.21875 48.1875 36.921875 48.1875 
Q 30.28125 48.1875 25.140625 43.28125 
Q 20.015625 38.375 18.5 30.515625 
L 12.5 0 
L 3.515625 0 
L 14.203125 54.6875 
L 23.1875 54.6875 
L 21.484375 46.1875 
Q 25.140625 50.984375 30.046875 53.484375 
Q 34.96875 56 40.578125 56 
Q 46.53125 56 50.359375 52.875 
Q 54.203125 49.75 54.984375 44.1875 
Q 59.078125 49.953125 64.46875 52.96875 
Q 69.875 56 75.875 56 
Q 82.90625 56 86.734375 51.953125 
Q 90.578125 47.90625 90.578125 40.484375 
Q 90.578125 38.875 90.375 36.9375 
Q 90.1875 35.015625 89.796875 33.015625 
z
" id="DejaVuSans-Oblique-6d"/>
      <path d="M 55.71875 33.015625 
L 49.3125 0 
L 40.28125 0 
L 46.6875 32.671875 
Q 47.125 34.96875 47.359375 36.71875 
Q 47.609375 38.484375 47.609375 39.5 
Q 47.609375 43.609375 45.015625 45.890625 
Q 42.4375 48.1875 37.796875 48.1875 
Q 30.5625 48.1875 25.34375 43.375 
Q 20.125 38.578125 18.5 30.328125 
L 12.5 0 
L 3.515625 0 
L 14.109375 54.6875 
L 23.09375 54.6875 
L 21.296875 46.09375 
Q 25.046875 50.828125 30.3125 53.40625 
Q 35.59375 56 41.40625 56 
Q 48.640625 56 52.609375 52.09375 
Q 56.59375 48.1875 56.59375 41.109375 
Q 56.59375 39.359375 56.375 37.359375 
Q 56.15625 35.359375 55.71875 33.015625 
z
" id="DejaVuSans-Oblique-6e"/>
      <path d="M 8.59375 75.984375 
L 29.296875 75.984375 
L 29.296875 69 
L 17.578125 69 
L 17.578125 -6.203125 
L 29.296875 -6.203125 
L 29.296875 -13.1875 
L 8.59375 -13.1875 
z
" id="DejaVuSans-5b"/>
      <path d="M 36.8125 72.90625 
L 48 72.90625 
L 61.53125 0 
L 51.21875 0 
L 48.1875 18.703125 
L 15.375 18.703125 
L 5.078125 0 
L -5.328125 0 
z
M 40.375 63.1875 
L 19.921875 26.90625 
L 46.6875 26.90625 
z
" id="DejaVuSans-Oblique-41"/>
      <path d="M 30.421875 75.984375 
L 30.421875 -13.1875 
L 9.71875 -13.1875 
L 9.71875 -6.203125 
L 21.390625 -6.203125 
L 21.390625 69 
L 9.71875 69 
L 9.71875 75.984375 
z
" id="DejaVuSans-5d"/>
     </defs>
     <g transform="translate(24.230312 255.4)rotate(-90)scale(0.14 -0.14)">
      <use transform="translate(0 0.015625)" xlink:href="#DejaVuSans-2202"/>
      <use transform="translate(51.708984 0.015625)" xlink:href="#STIXNonUnicode-Italic-e238"/>
      <use transform="translate(121.008972 0.015625)" xlink:href="#DejaVuSans-2f"/>
      <use transform="translate(154.700378 0.015625)" xlink:href="#DejaVuSans-2202"/>
      <use transform="translate(206.409363 0.015625)" xlink:href="#DejaVuSans-Oblique-3bc"/>
      <use transform="translate(270.03241 -16.390625)scale(0.7)" xlink:href="#DejaVuSans-Oblique-6d"/>
      <use transform="translate(338.220886 -16.390625)scale(0.7)" xlink:href="#DejaVuSans-Oblique-6e"/>
      <use transform="translate(385.320496 0.015625)" xlink:href="#DejaVuSans-5b"/>
      <use transform="translate(424.334167 0.015625)" xlink:href="#DejaVuSans-Oblique-41"/>
      <use transform="translate(492.742371 0.015625)" xlink:href="#DejaVuSans-5d"/>
     </g>
    </g>
   </g>
   <g id="line2d_33">
    <path clip-path="url(#pb4a09e868c)" d="M 92.290909 66.96 
L 92.532611 308.88 
L 92.774314 308.88 
L 93.257718 307.103219 
L 93.982825 304.539612 
L 94.46623 303.54016 
L 94.949635 302.971668 
L 95.433039 302.676708 
L 96.158146 302.513492 
L 97.366658 302.538591 
L 104.376025 303.038076 
L 110.418582 303.148653 
L 134.105409 303.178671 
L 144.982013 303.280701 
L 147.640739 303.634066 
L 151.749678 304.208626 
L 155.616915 304.479536 
L 161.659473 304.645211 
L 174.469695 304.711618 
L 207.582912 304.857616 
L 211.450149 305.300572 
L 227.402501 307.360823 
L 232.47825 307.555992 
L 241.90464 307.650321 
L 280.093606 307.667396 
L 432.12436 307.597743 
L 433.574574 306.870754 
L 436.958406 305.201627 
L 441.309048 303.311727 
L 445.901392 301.555005 
L 450.252033 300.132072 
L 454.602675 298.950555 
L 458.953316 297.997955 
L 463.54566 297.21363 
L 468.621409 296.569639 
L 474.422264 296.06074 
L 481.431631 295.681369 
L 490.374617 295.437856 
L 498.109091 295.351451 
L 498.109091 295.351451 
" style="fill:none;stroke:#bf00bf;stroke-linecap:square;stroke-width:1.5;"/>
   </g>
   <g id="line2d_34">
    <path clip-path="url(#pb4a09e868c)" d="M 92.290909 66.96 
L 92.532611 369.36 
L 92.774314 369.36 
L 93.016016 369.106165 
L 94.46623 365.436501 
L 94.949635 364.876557 
L 95.674741 364.451342 
L 96.641551 364.253028 
L 98.575169 364.198939 
L 116.46114 364.113864 
L 144.015204 364.155011 
L 146.190525 364.439488 
L 151.749678 365.327657 
L 155.13351 365.484804 
L 162.142877 365.533995 
L 203.715675 365.523693 
L 204.19908 364.969212 
L 205.649293 362.479473 
L 210.48334 354.150994 
L 214.350577 347.86565 
L 217.492707 343.189195 
L 220.151432 339.62142 
L 222.326753 337.04854 
L 223.05186 336.612156 
L 224.260371 336.217988 
L 226.19399 335.876861 
L 229.094418 335.618672 
L 233.686762 335.458722 
L 243.596556 335.389553 
L 314.898738 335.381671 
L 438.166918 335.490414 
L 465.720981 336.285585 
L 483.36525 336.455775 
L 498.109091 336.495813 
L 498.109091 336.495813 
" style="fill:none;stroke:#00bfbf;stroke-linecap:square;stroke-width:1.5;"/>
   </g>
   <g id="line2d_35">
    <path clip-path="url(#pb4a09e868c)" d="M 92.290909 66.96 
L 92.532611 131.472 
L 93.016016 131.472 
L 93.499421 130.369046 
L 94.224528 128.76677 
L 94.949635 127.830781 
L 95.674741 127.308416 
L 96.641551 126.912715 
L 98.091765 126.580196 
L 100.508788 126.280639 
L 104.376025 126.060814 
L 113.31901 125.868145 
L 141.839883 125.868266 
L 142.323288 124.995136 
L 144.015204 120.720934 
L 146.915632 113.58246 
L 147.399036 112.892141 
L 148.124143 112.290042 
L 149.090952 111.783946 
L 150.541166 111.286921 
L 152.474785 110.877048 
L 155.13351 110.568096 
L 159.000747 110.369923 
L 166.251817 110.26747 
L 192.597369 110.244447 
L 206.616103 110.352041 
L 209.758233 110.763789 
L 224.018669 112.876396 
L 227.160799 113.076242 
L 232.47825 113.153072 
L 269.458704 113.144121 
L 437.925215 113.251452 
L 466.446088 114.119139 
L 483.606952 114.290499 
L 498.109091 114.33227 
L 498.109091 114.33227 
" style="fill:none;stroke:#ff0000;stroke-linecap:square;stroke-width:1.5;"/>
   </g>
   <g id="line2d_36">
    <path clip-path="url(#pb4a09e868c)" d="M 92.290909 66.96 
L 92.532611 308.88 
L 93.016016 308.88 
L 93.499421 307.547404 
L 94.224528 305.624704 
L 94.707932 304.875115 
L 95.191337 304.448751 
L 95.916444 304.166209 
L 96.883253 304.09446 
L 99.541978 304.263138 
L 104.376025 304.491773 
L 111.627094 304.585476 
L 146.673929 304.807095 
L 154.408403 305.520679 
L 160.450961 305.68595 
L 173.261184 305.752297 
L 208.308019 305.895836 
L 213.383767 306.37254 
L 226.435692 307.678041 
L 231.753143 307.869238 
L 241.662938 307.95645 
L 287.102973 307.970542 
L 432.12436 307.8922 
L 433.574574 307.098622 
L 436.475001 305.575534 
L 440.342238 303.804518 
L 444.69288 302.045296 
L 449.043522 300.52993 
L 453.152461 299.329119 
L 457.503102 298.291908 
L 462.095446 297.43293 
L 467.171195 296.723399 
L 472.730348 296.178051 
L 479.256311 295.768077 
L 487.474189 295.48868 
L 498.109091 295.34766 
L 498.109091 295.34766 
" style="fill:none;stroke:#008000;stroke-linecap:square;stroke-width:1.5;"/>
   </g>
   <g id="line2d_37">
    <path clip-path="url(#pb4a09e868c)" d="M 92.290909 66.96 
L 92.532611 198 
L 92.774314 198 
L 93.257718 191.374718 
L 93.741123 188.462264 
L 94.224528 187.103137 
L 94.707932 186.447332 
L 95.191337 186.131969 
L 95.916444 185.955509 
L 97.124955 185.953634 
L 107.518155 186.515775 
L 116.46114 186.614297 
L 144.982013 186.601072 
L 151.99138 186.519162 
L 168.185435 186.786968 
L 199.848438 186.810676 
L 205.407591 186.893513 
L 206.857805 187.182729 
L 208.791423 187.799504 
L 211.933554 189.076559 
L 222.568455 193.597943 
L 224.743776 194.291467 
L 226.919097 194.732064 
L 229.819525 195.059845 
L 233.928464 195.270497 
L 241.179533 195.382869 
L 263.899551 195.413028 
L 433.332871 195.341622 
L 436.475001 194.906166 
L 453.152461 192.367699 
L 459.920126 191.663672 
L 467.171195 191.137536 
L 475.630776 190.757318 
L 486.265678 190.515842 
L 498.109091 190.415264 
L 498.109091 190.415264 
" style="fill:none;stroke:#0000ff;stroke-linecap:square;stroke-width:1.5;"/>
   </g>
   <g id="line2d_38">
    <path clip-path="url(#pb4a09e868c)" d="M 92.290909 66.96 
L 92.532611 139.536 
L 92.774314 139.536 
L 93.257718 134.790175 
L 93.741123 132.98908 
L 94.224528 132.316341 
L 94.707932 132.108471 
L 95.433039 132.137703 
L 97.366658 132.636946 
L 99.783681 133.150663 
L 102.684109 133.505217 
L 106.551345 133.734234 
L 110.418582 133.768365 
L 144.015204 133.964179 
L 145.223715 134.339599 
L 146.915632 135.113964 
L 149.816059 136.536293 
L 151.507976 137.083596 
L 153.683296 137.533285 
L 156.342022 137.846511 
L 160.209259 138.065247 
L 166.976923 138.189675 
L 185.588002 138.227354 
L 210.966744 138.123107 
L 218.942921 138.112563 
L 230.061227 138.329122 
L 240.696129 138.457178 
L 270.667215 138.482136 
L 433.574574 138.385791 
L 437.200108 137.871026 
L 451.460545 135.722514 
L 458.228209 134.9849 
L 465.479279 134.42421 
L 473.697157 134.021151 
L 483.848655 133.757156 
L 498.109091 133.622528 
L 498.109091 133.622528 
" style="fill:none;stroke:#000000;stroke-linecap:square;stroke-width:1.5;"/>
   </g>
   <g id="line2d_39">
    <path clip-path="url(#pb4a09e868c)" d="M 92.290909 66.96 
L 92.532611 198 
L 92.774314 198 
L 93.257718 192.124771 
L 93.741123 189.436072 
L 94.224528 188.135974 
L 94.707932 187.488092 
L 95.191337 187.165391 
L 95.916444 186.971734 
L 97.124955 186.942563 
L 111.868796 187.482246 
L 128.787958 187.521175 
L 145.948822 187.419468 
L 151.266273 187.230871 
L 160.209259 187.377898 
L 174.227993 187.455453 
L 205.649293 187.572421 
L 207.34121 187.941148 
L 209.51653 188.658804 
L 213.383767 190.21574 
L 221.118241 193.365115 
L 224.260371 194.426963 
L 226.435692 194.891772 
L 229.094418 195.216327 
L 232.961655 195.440244 
L 239.487617 195.563341 
L 257.61529 195.60217 
L 432.849467 195.545822 
L 435.749894 195.121596 
L 451.702247 192.557748 
L 458.228209 191.818601 
L 465.237576 191.252105 
L 473.213753 190.838765 
L 483.123548 190.562291 
L 497.142282 190.417078 
L 498.109091 190.412905 
L 498.109091 190.412905 
" style="fill:none;stroke:#bfbf00;stroke-linecap:square;stroke-width:1.5;"/>
   </g>
   <g id="line2d_40">
    <path clip-path="url(#pb4a09e868c)" d="M 92.290909 66.96 
L 92.532611 167.76 
L 92.774314 167.76 
L 93.257718 164.077232 
L 93.741123 162.295934 
L 94.224528 161.345431 
L 94.707932 160.788974 
L 95.433039 160.300256 
L 96.399848 159.926751 
L 98.091765 159.540183 
L 100.75049 159.172142 
L 104.617727 158.87821 
L 109.935178 158.71445 
L 122.020293 158.652135 
L 145.70712 158.527627 
L 149.090952 158.129487 
L 153.441594 157.664154 
L 158.27564 157.394272 
L 165.52671 157.245129 
L 181.962467 157.195293 
L 204.440782 157.1205 
L 205.649293 156.785964 
L 207.582912 155.969323 
L 210.48334 154.45942 
L 221.601646 148.414323 
L 223.535264 147.60508 
L 225.468883 147.095395 
L 227.885906 146.709392 
L 231.269738 146.421971 
L 236.345487 146.244139 
L 246.496984 146.161765 
L 298.946386 146.149891 
L 435.024787 146.256759 
L 438.892024 146.664778 
L 456.052889 148.693176 
L 463.787363 149.28713 
L 472.246944 149.70668 
L 482.640143 149.9865 
L 497.142282 150.134233 
L 498.109091 150.138507 
L 498.109091 150.138507 
" style="fill:none;stroke:#bf00bf;stroke-linecap:square;stroke-width:1.5;"/>
   </g>
   <g id="line2d_41">
    <path clip-path="url(#pb4a09e868c)" d="M 92.290909 66.96 
L 92.532611 139.536 
L 92.774314 139.536 
L 93.257718 135.540228 
L 93.741123 133.962909 
L 94.224528 133.349178 
L 94.707932 133.149231 
L 95.433039 133.165662 
L 97.366658 133.621056 
L 99.783681 134.097316 
L 102.684109 134.425158 
L 106.793048 134.643954 
L 110.901987 134.665687 
L 143.773502 134.7984 
L 144.982013 135.116605 
L 146.673929 135.819161 
L 150.299464 137.456819 
L 152.233082 137.973197 
L 154.650106 138.360108 
L 157.792236 138.62378 
L 162.867984 138.795443 
L 173.261184 138.870236 
L 207.099507 138.827295 
L 220.393134 138.469959 
L 228.127608 138.507114 
L 241.662938 138.653476 
L 280.335308 138.672003 
L 433.091169 138.588803 
L 436.475001 138.077343 
L 450.252033 135.890749 
L 457.019698 135.101566 
L 464.029065 134.514487 
L 472.005241 134.081309 
L 481.673334 133.792517 
L 494.966961 133.635228 
L 498.109091 133.620149 
L 498.109091 133.620149 
" style="fill:none;stroke:#00bfbf;stroke-linecap:square;stroke-width:1.5;"/>
   </g>
   <g id="line2d_42">
    <path clip-path="url(#pb4a09e868c)" d="M 92.290909 66.96 
L 92.532611 198 
L 92.774314 198 
L 93.257718 195.336441 
L 93.741123 194.031282 
L 94.224528 193.275504 
L 94.949635 192.581113 
L 95.916444 192.007077 
L 97.366658 191.455076 
L 99.300276 190.980691 
L 101.959002 190.585374 
L 105.584536 190.304343 
L 108.484964 190.263862 
L 128.546256 190.211386 
L 142.806692 190.103268 
L 143.773502 189.736315 
L 145.223715 188.913283 
L 149.332655 186.357923 
L 151.024571 185.785419 
L 153.199892 185.312244 
L 155.858617 184.972568 
L 159.725854 184.725588 
L 166.010114 184.582653 
L 180.995658 184.531467 
L 208.066317 184.407604 
L 212.416958 184.004101 
L 223.05186 182.686807 
L 227.402501 182.281026 
L 232.47825 182.04717 
L 240.696129 181.923307 
L 263.657848 181.890406 
L 434.783085 181.976066 
L 438.650322 182.359489 
L 457.019698 184.442037 
L 464.754172 184.992607 
L 473.455455 185.385807 
L 484.332059 185.642807 
L 498.109091 185.763223 
L 498.109091 185.763223 
" style="fill:none;stroke:#ff0000;stroke-linecap:square;stroke-width:1.5;"/>
   </g>
   <g id="line2d_43">
    <path clip-path="url(#pb4a09e868c)" d="M 92.290909 66.96 
L 92.532611 369.36 
L 92.774314 369.36 
L 93.016016 369.169629 
L 94.46623 366.417386 
L 95.191337 365.859176 
L 95.916444 365.621852 
L 97.124955 365.504884 
L 101.475597 365.49176 
L 144.982013 365.529983 
L 148.124143 365.953222 
L 151.024571 366.28687 
L 154.650106 366.44432 
L 162.38458 366.490486 
L 203.473973 366.482765 
L 203.957377 365.863006 
L 205.649293 362.715909 
L 209.274828 356.18415 
L 213.142065 349.624449 
L 216.284195 344.716275 
L 218.942921 340.951314 
L 221.601646 337.584635 
L 222.085051 337.07886 
L 222.810158 336.672636 
L 224.018669 336.334432 
L 225.952288 336.056628 
L 229.33612 335.828396 
L 235.136975 335.701953 
L 251.089328 335.662217 
L 437.441811 335.725358 
L 470.79673 336.391707 
L 494.725259 336.49295 
L 498.109091 336.49666 
L 498.109091 336.49666 
" style="fill:none;stroke:#008000;stroke-linecap:square;stroke-width:1.5;"/>
   </g>
   <g id="line2d_44">
    <path clip-path="url(#pb4a09e868c)" d="M 92.290909 66.96 
L 92.532611 167.76 
L 93.016016 163.796564 
L 93.499421 161.855519 
L 93.982825 160.855724 
L 94.46623 160.285236 
L 95.191337 159.793595 
L 96.158146 159.422328 
L 97.850062 159.038844 
L 100.75049 158.646491 
L 104.617727 158.363767 
L 110.17688 158.200612 
L 122.7454 158.141402 
L 145.948822 158.01891 
L 149.816059 157.607243 
L 154.408403 157.200918 
L 159.725854 156.96938 
L 168.185435 156.851162 
L 192.839071 156.821103 
L 204.440782 156.754212 
L 205.649293 156.440664 
L 207.582912 155.658456 
L 210.48334 154.193368 
L 222.085051 148.062309 
L 223.776967 147.413056 
L 225.710585 146.933107 
L 228.127608 146.568151 
L 231.511441 146.296898 
L 236.828892 146.125356 
L 247.705496 146.050543 
L 316.10725 146.04143 
L 434.783085 146.151887 
L 438.650322 146.571598 
L 455.811186 148.654751 
L 463.303958 149.248826 
L 471.521837 149.676077 
L 481.673334 149.968619 
L 495.692068 150.127701 
L 498.109091 150.139293 
L 498.109091 150.139293 
" style="fill:none;stroke:#0000ff;stroke-linecap:square;stroke-width:1.5;"/>
   </g>
   <g id="line2d_45">
    <path clip-path="url(#pb4a09e868c)" d="M 92.290909 66.96 
L 92.532611 198 
L 92.774314 198 
L 93.257718 193.514279 
L 93.741123 191.709012 
L 94.224528 190.986074 
L 94.707932 190.730627 
L 95.433039 190.70456 
L 97.124955 191.046191 
L 99.541978 191.472535 
L 102.442406 191.74155 
L 106.793048 191.90287 
L 143.048395 191.901015 
L 144.015204 192.168881 
L 145.223715 192.753481 
L 146.915632 193.86722 
L 149.090952 195.328699 
L 150.541166 196.002003 
L 152.233082 196.520458 
L 154.408403 196.914787 
L 157.308831 197.17979 
L 161.901175 197.337804 
L 172.052672 197.400563 
L 204.19908 197.33976 
L 205.165889 196.956982 
L 206.616103 196.073309 
L 209.274828 194.142162 
L 217.492707 188.034065 
L 220.876539 185.853197 
L 223.05186 184.671599 
L 224.502074 184.218483 
L 226.435692 183.881952 
L 229.33612 183.645274 
L 234.170166 183.52387 
L 248.1889 183.497319 
L 439.133727 183.406196 
L 466.68779 182.88504 
L 489.166105 182.764524 
L 498.109091 182.752347 
L 498.109091 182.752347 
" style="fill:none;stroke:#000000;stroke-linecap:square;stroke-width:1.5;"/>
   </g>
   <g id="line2d_46">
    <path clip-path="url(#pb4a09e868c)" d="M 92.290909 66.96 
L 92.532611 198 
L 92.774314 197.779651 
L 93.257718 194.370837 
L 93.741123 192.765053 
L 94.224528 192.10193 
L 94.707932 191.861925 
L 95.433039 191.836665 
L 97.124955 192.169466 
L 99.783681 192.622421 
L 102.925811 192.89073 
L 107.276452 193.025863 
L 119.361568 192.968487 
L 143.048395 193.034773 
L 144.015204 193.281492 
L 145.223715 193.824259 
L 146.915632 194.864556 
L 149.090952 196.239609 
L 150.541166 196.878923 
L 152.233082 197.374274 
L 154.408403 197.753826 
L 157.067129 197.996956 
L 166.010114 197.78705 
L 188.730132 197.761447 
L 203.957377 197.83866 
L 204.440782 197.979618 
L 205.649293 197.264483 
L 207.824614 195.643901 
L 217.976111 187.790432 
L 221.118241 185.741067 
L 222.810158 184.827113 
L 224.260371 184.387726 
L 226.19399 184.07452 
L 229.094418 183.860885 
L 234.170166 183.754843 
L 251.814435 183.739905 
L 437.441811 183.65995 
L 469.104813 182.894838 
L 489.891212 182.766681 
L 498.109091 182.752831 
L 498.109091 182.752831 
" style="fill:none;stroke:#bfbf00;stroke-linecap:square;stroke-width:1.5;"/>
   </g>
   <g id="line2d_47">
    <path clip-path="url(#pb4a09e868c)" d="M 92.290909 66.96 
L 92.532611 177.84 
L 92.774314 177.84 
L 93.257718 174.741549 
L 93.741123 173.212675 
L 94.224528 172.363234 
L 94.949635 171.658521 
L 95.916444 171.174177 
L 97.124955 170.854983 
L 99.058574 170.591432 
L 102.200704 170.40977 
L 106.793048 170.371446 
L 108.726666 170.455573 
L 117.42795 170.523351 
L 142.081585 170.502566 
L 142.806692 170.234015 
L 143.773502 169.563433 
L 145.223715 168.223196 
L 148.124143 165.380898 
L 149.332655 164.676226 
L 150.782869 164.125696 
L 152.474785 163.729129 
L 154.891808 163.422576 
L 158.27564 163.242225 
L 164.801603 163.159387 
L 199.123331 163.150073 
L 204.924186 163.224242 
L 206.132698 163.495011 
L 207.824614 164.137026 
L 210.241637 165.335639 
L 222.568455 171.815446 
L 224.502074 172.525804 
L 226.435692 172.969485 
L 228.852715 173.276804 
L 232.47825 173.480723 
L 239.004212 173.580535 
L 263.416146 173.602227 
L 439.858834 173.494371 
L 464.51247 173.066374 
L 487.715891 172.944749 
L 498.109091 172.931846 
L 498.109091 172.931846 
" style="fill:none;stroke:#bf00bf;stroke-linecap:square;stroke-width:1.5;"/>
   </g>
   <g id="line2d_48">
    <path clip-path="url(#pb4a09e868c)" d="M 92.290909 66.96 
L 92.532611 131.472 
L 93.016016 131.472 
L 93.499421 130.369046 
L 94.224528 128.76677 
L 94.949635 127.830781 
L 95.674741 127.308416 
L 96.641551 126.912715 
L 98.091765 126.580196 
L 100.508788 126.280639 
L 104.376025 126.060814 
L 113.31901 125.868145 
L 141.839883 125.868266 
L 142.323288 124.995136 
L 144.015204 120.720934 
L 146.915632 113.58246 
L 147.399036 112.892141 
L 148.124143 112.290042 
L 149.090952 111.783946 
L 150.541166 111.286921 
L 152.474785 110.877048 
L 155.13351 110.568096 
L 159.000747 110.369923 
L 166.251817 110.26747 
L 192.597369 110.244447 
L 206.616103 110.352041 
L 209.758233 110.763789 
L 224.018669 112.876396 
L 227.160799 113.076242 
L 232.47825 113.153072 
L 269.458704 113.144121 
L 437.925215 113.251452 
L 466.446088 114.119139 
L 483.606952 114.290499 
L 498.109091 114.33227 
L 498.109091 114.33227 
" style="fill:none;stroke:#00bfbf;stroke-linecap:square;stroke-width:1.5;"/>
   </g>
   <g id="line2d_49">
    <path clip-path="url(#pb4a09e868c)" d="M 92.290909 66.96 
L 92.532611 198 
L 92.774314 198 
L 93.257718 195.336441 
L 93.741123 194.031282 
L 94.224528 193.275504 
L 94.949635 192.581113 
L 95.916444 192.007077 
L 97.366658 191.455076 
L 99.300276 190.980691 
L 101.959002 190.585374 
L 105.584536 190.304343 
L 106.551345 190.258862 
L 106.793048 189.76595 
L 109.451773 189.77089 
L 130.721577 189.727989 
L 142.806692 189.628862 
L 143.773502 189.284872 
L 145.223715 188.498693 
L 149.574357 185.904343 
L 151.266273 185.363087 
L 153.441594 184.914809 
L 156.342022 184.572674 
L 160.450961 184.343052 
L 167.460328 184.21554 
L 186.554811 184.177094 
L 208.066317 184.073371 
L 212.65866 183.69527 
L 230.061227 182.021386 
L 236.828892 181.854703 
L 250.605923 181.792045 
L 376.77453 181.787328 
L 434.783085 181.893954 
L 438.650322 182.300037 
L 455.811186 184.321299 
L 463.54566 184.91362 
L 472.005241 185.332081 
L 482.398441 185.611277 
L 496.900579 185.758727 
L 498.109091 185.763989 
L 498.109091 185.763989 
" style="fill:none;stroke:#ff0000;stroke-linecap:square;stroke-width:1.5;"/>
   </g>
   <g id="line2d_50">
    <path clip-path="url(#pb4a09e868c)" d="M 92.290909 66.96 
L 92.532611 177.84 
L 92.774314 177.84 
L 93.257718 174.310629 
L 93.741123 172.650756 
L 94.224528 171.751438 
L 94.949635 171.008925 
L 95.674741 170.591613 
L 96.883253 170.195227 
L 98.575169 169.898452 
L 101.233895 169.674011 
L 105.826239 169.546458 
L 108.243262 169.628005 
L 115.252629 169.703565 
L 142.323288 169.691026 
L 143.048395 169.446807 
L 144.015204 168.825355 
L 145.465418 167.559912 
L 148.607548 164.657134 
L 149.816059 164.007256 
L 151.266273 163.49118 
L 153.199892 163.076207 
L 155.616915 162.804148 
L 159.484152 162.629824 
L 167.218626 162.560917 
L 204.440782 162.580211 
L 205.649293 162.782436 
L 207.099507 163.276799 
L 209.033126 164.19543 
L 212.416958 166.095409 
L 219.184623 169.918632 
L 222.810158 171.704465 
L 224.502074 172.331885 
L 226.435692 172.788327 
L 228.852715 173.102602 
L 232.236548 173.300976 
L 238.520808 173.405627 
L 260.515718 173.428972 
L 441.792452 173.320491 
L 466.929493 173.01547 
L 496.175472 172.932612 
L 498.109091 172.931484 
L 498.109091 172.931484 
" style="fill:none;stroke:#008000;stroke-linecap:square;stroke-width:1.5;"/>
   </g>
   <g id="patch_3">
    <path d="M 72 384.48 
L 72 51.84 
" style="fill:none;stroke:#000000;stroke-linecap:square;stroke-linejoin:miter;stroke-width:0.8;"/>
   </g>
   <g id="patch_4">
    <path d="M 518.4 384.48 
L 518.4 51.84 
" style="fill:none;stroke:#000000;stroke-linecap:square;stroke-linejoin:miter;stroke-width:0.8;"/>
   </g>
   <g id="patch_5">
    <path d="M 72 384.48 
L 518.4 384.48 
" style="fill:none;stroke:#000000;stroke-linecap:square;stroke-linejoin:miter;stroke-width:0.8;"/>
   </g>
   <g id="patch_6">
    <path d="M 72 51.84 
L 518.4 51.84 
" style="fill:none;stroke:#000000;stroke-linecap:square;stroke-linejoin:miter;stroke-width:0.8;"/>
   </g>
   <g id="text_19">
    <!-- $\partial \mathcal{L}/ \partial \mu_{mn}$ -->
    <g transform="translate(268.18 45.84)scale(0.14 -0.14)">
     <use transform="translate(0 0.09375)" xlink:href="#DejaVuSans-2202"/>
     <use transform="translate(51.708984 0.09375)" xlink:href="#STIXNonUnicode-Italic-e238"/>
     <use transform="translate(121.008972 0.09375)" xlink:href="#DejaVuSans-2f"/>
     <use transform="translate(154.700378 0.09375)" xlink:href="#DejaVuSans-2202"/>
     <use transform="translate(206.409363 0.09375)" xlink:href="#DejaVuSans-Oblique-3bc"/>
     <use transform="translate(270.03241 -16.3125)scale(0.7)" xlink:href="#DejaVuSans-Oblique-6d"/>
     <use transform="translate(338.220886 -16.3125)scale(0.7)" xlink:href="#DejaVuSans-Oblique-6e"/>
    </g>
   </g>
   <g id="legend_1">
    <g id="patch_7">
     <path d="M 79 351.945938 
L 147.2 351.945938 
Q 149.2 351.945938 149.2 349.945938 
L 149.2 86.374062 
Q 149.2 84.374062 147.2 84.374062 
L 79 84.374062 
Q 77 84.374062 77 86.374062 
L 77 349.945938 
Q 77 351.945938 79 351.945938 
z
" style="fill:#ffffff;opacity:0.8;stroke:#cccccc;stroke-linejoin:miter;"/>
    </g>
    <g id="line2d_51">
     <path d="M 81 92.4725 
L 101 92.4725 
" style="fill:none;stroke:#bf00bf;stroke-linecap:square;stroke-width:1.5;"/>
    </g>
    <g id="line2d_52"/>
    <g id="text_20">
     <!-- $\partial \mathcal{L}/ \partial \mu_{14}$ -->
     <g transform="translate(109 95.9725)scale(0.1 -0.1)">
      <use transform="translate(0 0.09375)" xlink:href="#DejaVuSans-2202"/>
      <use transform="translate(51.708984 0.09375)" xlink:href="#STIXNonUnicode-Italic-e238"/>
      <use transform="translate(121.008972 0.09375)" xlink:href="#DejaVuSans-2f"/>
      <use transform="translate(154.700378 0.09375)" xlink:href="#DejaVuSans-2202"/>
      <use transform="translate(206.409363 0.09375)" xlink:href="#DejaVuSans-Oblique-3bc"/>
      <use transform="translate(270.03241 -16.3125)scale(0.7)" xlink:href="#DejaVuSans-31"/>
      <use transform="translate(314.568542 -16.3125)scale(0.7)" xlink:href="#DejaVuSans-34"/>
     </g>
    </g>
    <g id="line2d_53">
     <path d="M 81 107.170937 
L 101 107.170937 
" style="fill:none;stroke:#00bfbf;stroke-linecap:square;stroke-width:1.5;"/>
    </g>
    <g id="line2d_54"/>
    <g id="text_21">
     <!-- $\partial \mathcal{L}/ \partial \mu_{27}$ -->
     <g transform="translate(109 110.670937)scale(0.1 -0.1)">
      <use transform="translate(0 0.09375)" xlink:href="#DejaVuSans-2202"/>
      <use transform="translate(51.708984 0.09375)" xlink:href="#STIXNonUnicode-Italic-e238"/>
      <use transform="translate(121.008972 0.09375)" xlink:href="#DejaVuSans-2f"/>
      <use transform="translate(154.700378 0.09375)" xlink:href="#DejaVuSans-2202"/>
      <use transform="translate(206.409363 0.09375)" xlink:href="#DejaVuSans-Oblique-3bc"/>
      <use transform="translate(270.03241 -16.3125)scale(0.7)" xlink:href="#DejaVuSans-32"/>
      <use transform="translate(314.568542 -16.3125)scale(0.7)" xlink:href="#DejaVuSans-37"/>
     </g>
    </g>
    <g id="line2d_55">
     <path d="M 81 121.869375 
L 101 121.869375 
" style="fill:none;stroke:#ff0000;stroke-linecap:square;stroke-width:1.5;"/>
    </g>
    <g id="line2d_56"/>
    <g id="text_22">
     <!-- $\partial \mathcal{L}/ \partial \mu_{39}$ -->
     <defs>
      <path d="M 40.578125 39.3125 
Q 47.65625 37.796875 51.625 33 
Q 55.609375 28.21875 55.609375 21.1875 
Q 55.609375 10.40625 48.1875 4.484375 
Q 40.765625 -1.421875 27.09375 -1.421875 
Q 22.515625 -1.421875 17.65625 -0.515625 
Q 12.796875 0.390625 7.625 2.203125 
L 7.625 11.71875 
Q 11.71875 9.328125 16.59375 8.109375 
Q 21.484375 6.890625 26.8125 6.890625 
Q 36.078125 6.890625 40.9375 10.546875 
Q 45.796875 14.203125 45.796875 21.1875 
Q 45.796875 27.640625 41.28125 31.265625 
Q 36.765625 34.90625 28.71875 34.90625 
L 20.21875 34.90625 
L 20.21875 43.015625 
L 29.109375 43.015625 
Q 36.375 43.015625 40.234375 45.921875 
Q 44.09375 48.828125 44.09375 54.296875 
Q 44.09375 59.90625 40.109375 62.90625 
Q 36.140625 65.921875 28.71875 65.921875 
Q 24.65625 65.921875 20.015625 65.03125 
Q 15.375 64.15625 9.8125 62.3125 
L 9.8125 71.09375 
Q 15.4375 72.65625 20.34375 73.4375 
Q 25.25 74.21875 29.59375 74.21875 
Q 40.828125 74.21875 47.359375 69.109375 
Q 53.90625 64.015625 53.90625 55.328125 
Q 53.90625 49.265625 50.4375 45.09375 
Q 46.96875 40.921875 40.578125 39.3125 
z
" id="DejaVuSans-33"/>
      <path d="M 10.984375 1.515625 
L 10.984375 10.5 
Q 14.703125 8.734375 18.5 7.8125 
Q 22.3125 6.890625 25.984375 6.890625 
Q 35.75 6.890625 40.890625 13.453125 
Q 46.046875 20.015625 46.78125 33.40625 
Q 43.953125 29.203125 39.59375 26.953125 
Q 35.25 24.703125 29.984375 24.703125 
Q 19.046875 24.703125 12.671875 31.3125 
Q 6.296875 37.9375 6.296875 49.421875 
Q 6.296875 60.640625 12.9375 67.421875 
Q 19.578125 74.21875 30.609375 74.21875 
Q 43.265625 74.21875 49.921875 64.515625 
Q 56.59375 54.828125 56.59375 36.375 
Q 56.59375 19.140625 48.40625 8.859375 
Q 40.234375 -1.421875 26.421875 -1.421875 
Q 22.703125 -1.421875 18.890625 -0.6875 
Q 15.09375 0.046875 10.984375 1.515625 
z
M 30.609375 32.421875 
Q 37.25 32.421875 41.125 36.953125 
Q 45.015625 41.5 45.015625 49.421875 
Q 45.015625 57.28125 41.125 61.84375 
Q 37.25 66.40625 30.609375 66.40625 
Q 23.96875 66.40625 20.09375 61.84375 
Q 16.21875 57.28125 16.21875 49.421875 
Q 16.21875 41.5 20.09375 36.953125 
Q 23.96875 32.421875 30.609375 32.421875 
z
" id="DejaVuSans-39"/>
     </defs>
     <g transform="translate(109 125.369375)scale(0.1 -0.1)">
      <use transform="translate(0 0.09375)" xlink:href="#DejaVuSans-2202"/>
      <use transform="translate(51.708984 0.09375)" xlink:href="#STIXNonUnicode-Italic-e238"/>
      <use transform="translate(121.008972 0.09375)" xlink:href="#DejaVuSans-2f"/>
      <use transform="translate(154.700378 0.09375)" xlink:href="#DejaVuSans-2202"/>
      <use transform="translate(206.409363 0.09375)" xlink:href="#DejaVuSans-Oblique-3bc"/>
      <use transform="translate(270.03241 -16.3125)scale(0.7)" xlink:href="#DejaVuSans-33"/>
      <use transform="translate(314.568542 -16.3125)scale(0.7)" xlink:href="#DejaVuSans-39"/>
     </g>
    </g>
    <g id="line2d_57">
     <path d="M 81 136.567812 
L 101 136.567812 
" style="fill:none;stroke:#008000;stroke-linecap:square;stroke-width:1.5;"/>
    </g>
    <g id="line2d_58"/>
    <g id="text_23">
     <!-- $\partial \mathcal{L}/ \partial \mu_{41}$ -->
     <g transform="translate(109 140.067812)scale(0.1 -0.1)">
      <use transform="translate(0 0.09375)" xlink:href="#DejaVuSans-2202"/>
      <use transform="translate(51.708984 0.09375)" xlink:href="#STIXNonUnicode-Italic-e238"/>
      <use transform="translate(121.008972 0.09375)" xlink:href="#DejaVuSans-2f"/>
      <use transform="translate(154.700378 0.09375)" xlink:href="#DejaVuSans-2202"/>
      <use transform="translate(206.409363 0.09375)" xlink:href="#DejaVuSans-Oblique-3bc"/>
      <use transform="translate(270.03241 -16.3125)scale(0.7)" xlink:href="#DejaVuSans-34"/>
      <use transform="translate(314.568542 -16.3125)scale(0.7)" xlink:href="#DejaVuSans-31"/>
     </g>
    </g>
    <g id="line2d_59">
     <path d="M 81 151.26625 
L 101 151.26625 
" style="fill:none;stroke:#0000ff;stroke-linecap:square;stroke-width:1.5;"/>
    </g>
    <g id="line2d_60"/>
    <g id="text_24">
     <!-- $\partial \mathcal{L}/ \partial \mu_{45}$ -->
     <g transform="translate(109 154.76625)scale(0.1 -0.1)">
      <use transform="translate(0 0.09375)" xlink:href="#DejaVuSans-2202"/>
      <use transform="translate(51.708984 0.09375)" xlink:href="#STIXNonUnicode-Italic-e238"/>
      <use transform="translate(121.008972 0.09375)" xlink:href="#DejaVuSans-2f"/>
      <use transform="translate(154.700378 0.09375)" xlink:href="#DejaVuSans-2202"/>
      <use transform="translate(206.409363 0.09375)" xlink:href="#DejaVuSans-Oblique-3bc"/>
      <use transform="translate(270.03241 -16.3125)scale(0.7)" xlink:href="#DejaVuSans-34"/>
      <use transform="translate(314.568542 -16.3125)scale(0.7)" xlink:href="#DejaVuSans-35"/>
     </g>
    </g>
    <g id="line2d_61">
     <path d="M 81 165.964687 
L 101 165.964687 
" style="fill:none;stroke:#000000;stroke-linecap:square;stroke-width:1.5;"/>
    </g>
    <g id="line2d_62"/>
    <g id="text_25">
     <!-- $\partial \mathcal{L}/ \partial \mu_{46}$ -->
     <g transform="translate(109 169.464687)scale(0.1 -0.1)">
      <use transform="translate(0 0.09375)" xlink:href="#DejaVuSans-2202"/>
      <use transform="translate(51.708984 0.09375)" xlink:href="#STIXNonUnicode-Italic-e238"/>
      <use transform="translate(121.008972 0.09375)" xlink:href="#DejaVuSans-2f"/>
      <use transform="translate(154.700378 0.09375)" xlink:href="#DejaVuSans-2202"/>
      <use transform="translate(206.409363 0.09375)" xlink:href="#DejaVuSans-Oblique-3bc"/>
      <use transform="translate(270.03241 -16.3125)scale(0.7)" xlink:href="#DejaVuSans-34"/>
      <use transform="translate(314.568542 -16.3125)scale(0.7)" xlink:href="#DejaVuSans-36"/>
     </g>
    </g>
    <g id="line2d_63">
     <path d="M 81 180.663125 
L 101 180.663125 
" style="fill:none;stroke:#bfbf00;stroke-linecap:square;stroke-width:1.5;"/>
    </g>
    <g id="line2d_64"/>
    <g id="text_26">
     <!-- $\partial \mathcal{L}/ \partial \mu_{54}$ -->
     <g transform="translate(109 184.163125)scale(0.1 -0.1)">
      <use transform="translate(0 0.09375)" xlink:href="#DejaVuSans-2202"/>
      <use transform="translate(51.708984 0.09375)" xlink:href="#STIXNonUnicode-Italic-e238"/>
      <use transform="translate(121.008972 0.09375)" xlink:href="#DejaVuSans-2f"/>
      <use transform="translate(154.700378 0.09375)" xlink:href="#DejaVuSans-2202"/>
      <use transform="translate(206.409363 0.09375)" xlink:href="#DejaVuSans-Oblique-3bc"/>
      <use transform="translate(270.03241 -16.3125)scale(0.7)" xlink:href="#DejaVuSans-35"/>
      <use transform="translate(314.568542 -16.3125)scale(0.7)" xlink:href="#DejaVuSans-34"/>
     </g>
    </g>
    <g id="line2d_65">
     <path d="M 81 195.361562 
L 101 195.361562 
" style="fill:none;stroke:#bf00bf;stroke-linecap:square;stroke-width:1.5;"/>
    </g>
    <g id="line2d_66"/>
    <g id="text_27">
     <!-- $\partial \mathcal{L}/ \partial \mu_{57}$ -->
     <g transform="translate(109 198.861562)scale(0.1 -0.1)">
      <use transform="translate(0 0.09375)" xlink:href="#DejaVuSans-2202"/>
      <use transform="translate(51.708984 0.09375)" xlink:href="#STIXNonUnicode-Italic-e238"/>
      <use transform="translate(121.008972 0.09375)" xlink:href="#DejaVuSans-2f"/>
      <use transform="translate(154.700378 0.09375)" xlink:href="#DejaVuSans-2202"/>
      <use transform="translate(206.409363 0.09375)" xlink:href="#DejaVuSans-Oblique-3bc"/>
      <use transform="translate(270.03241 -16.3125)scale(0.7)" xlink:href="#DejaVuSans-35"/>
      <use transform="translate(314.49198 -16.3125)scale(0.7)" xlink:href="#DejaVuSans-37"/>
     </g>
    </g>
    <g id="line2d_67">
     <path d="M 81 210.06 
L 101 210.06 
" style="fill:none;stroke:#00bfbf;stroke-linecap:square;stroke-width:1.5;"/>
    </g>
    <g id="line2d_68"/>
    <g id="text_28">
     <!-- $\partial \mathcal{L}/ \partial \mu_{64}$ -->
     <g transform="translate(109 213.56)scale(0.1 -0.1)">
      <use transform="translate(0 0.09375)" xlink:href="#DejaVuSans-2202"/>
      <use transform="translate(51.708984 0.09375)" xlink:href="#STIXNonUnicode-Italic-e238"/>
      <use transform="translate(121.008972 0.09375)" xlink:href="#DejaVuSans-2f"/>
      <use transform="translate(154.700378 0.09375)" xlink:href="#DejaVuSans-2202"/>
      <use transform="translate(206.409363 0.09375)" xlink:href="#DejaVuSans-Oblique-3bc"/>
      <use transform="translate(270.03241 -16.3125)scale(0.7)" xlink:href="#DejaVuSans-36"/>
      <use transform="translate(314.568542 -16.3125)scale(0.7)" xlink:href="#DejaVuSans-34"/>
     </g>
    </g>
    <g id="line2d_69">
     <path d="M 81 224.758437 
L 101 224.758437 
" style="fill:none;stroke:#ff0000;stroke-linecap:square;stroke-width:1.5;"/>
    </g>
    <g id="line2d_70"/>
    <g id="text_29">
     <!-- $\partial \mathcal{L}/ \partial \mu_{69}$ -->
     <g transform="translate(109 228.258437)scale(0.1 -0.1)">
      <use transform="translate(0 0.09375)" xlink:href="#DejaVuSans-2202"/>
      <use transform="translate(51.708984 0.09375)" xlink:href="#STIXNonUnicode-Italic-e238"/>
      <use transform="translate(121.008972 0.09375)" xlink:href="#DejaVuSans-2f"/>
      <use transform="translate(154.700378 0.09375)" xlink:href="#DejaVuSans-2202"/>
      <use transform="translate(206.409363 0.09375)" xlink:href="#DejaVuSans-Oblique-3bc"/>
      <use transform="translate(270.03241 -16.3125)scale(0.7)" xlink:href="#DejaVuSans-36"/>
      <use transform="translate(314.568542 -16.3125)scale(0.7)" xlink:href="#DejaVuSans-39"/>
     </g>
    </g>
    <g id="line2d_71">
     <path d="M 81 239.456875 
L 101 239.456875 
" style="fill:none;stroke:#008000;stroke-linecap:square;stroke-width:1.5;"/>
    </g>
    <g id="line2d_72"/>
    <g id="text_30">
     <!-- $\partial \mathcal{L}/ \partial \mu_{72}$ -->
     <g transform="translate(109 242.956875)scale(0.1 -0.1)">
      <use transform="translate(0 0.09375)" xlink:href="#DejaVuSans-2202"/>
      <use transform="translate(51.708984 0.09375)" xlink:href="#STIXNonUnicode-Italic-e238"/>
      <use transform="translate(121.008972 0.09375)" xlink:href="#DejaVuSans-2f"/>
      <use transform="translate(154.700378 0.09375)" xlink:href="#DejaVuSans-2202"/>
      <use transform="translate(206.409363 0.09375)" xlink:href="#DejaVuSans-Oblique-3bc"/>
      <use transform="translate(270.03241 -16.3125)scale(0.7)" xlink:href="#DejaVuSans-37"/>
      <use transform="translate(314.568542 -16.3125)scale(0.7)" xlink:href="#DejaVuSans-32"/>
     </g>
    </g>
    <g id="line2d_73">
     <path d="M 81 254.155312 
L 101 254.155312 
" style="fill:none;stroke:#0000ff;stroke-linecap:square;stroke-width:1.5;"/>
    </g>
    <g id="line2d_74"/>
    <g id="text_31">
     <!-- $\partial \mathcal{L}/ \partial \mu_{75}$ -->
     <g transform="translate(109 257.655312)scale(0.1 -0.1)">
      <use transform="translate(0 0.09375)" xlink:href="#DejaVuSans-2202"/>
      <use transform="translate(51.708984 0.09375)" xlink:href="#STIXNonUnicode-Italic-e238"/>
      <use transform="translate(121.008972 0.09375)" xlink:href="#DejaVuSans-2f"/>
      <use transform="translate(154.700378 0.09375)" xlink:href="#DejaVuSans-2202"/>
      <use transform="translate(206.409363 0.09375)" xlink:href="#DejaVuSans-Oblique-3bc"/>
      <use transform="translate(270.03241 -16.3125)scale(0.7)" xlink:href="#DejaVuSans-37"/>
      <use transform="translate(314.568542 -16.3125)scale(0.7)" xlink:href="#DejaVuSans-35"/>
     </g>
    </g>
    <g id="line2d_75">
     <path d="M 81 268.85375 
L 101 268.85375 
" style="fill:none;stroke:#000000;stroke-linecap:square;stroke-width:1.5;"/>
    </g>
    <g id="line2d_76"/>
    <g id="text_32">
     <!-- $\partial \mathcal{L}/ \partial \mu_{78}$ -->
     <g transform="translate(109 272.35375)scale(0.1 -0.1)">
      <use transform="translate(0 0.09375)" xlink:href="#DejaVuSans-2202"/>
      <use transform="translate(51.708984 0.09375)" xlink:href="#STIXNonUnicode-Italic-e238"/>
      <use transform="translate(121.008972 0.09375)" xlink:href="#DejaVuSans-2f"/>
      <use transform="translate(154.700378 0.09375)" xlink:href="#DejaVuSans-2202"/>
      <use transform="translate(206.409363 0.09375)" xlink:href="#DejaVuSans-Oblique-3bc"/>
      <use transform="translate(270.03241 -16.3125)scale(0.7)" xlink:href="#DejaVuSans-37"/>
      <use transform="translate(314.568542 -16.3125)scale(0.7)" xlink:href="#DejaVuSans-38"/>
     </g>
    </g>
    <g id="line2d_77">
     <path d="M 81 283.552187 
L 101 283.552187 
" style="fill:none;stroke:#bfbf00;stroke-linecap:square;stroke-width:1.5;"/>
    </g>
    <g id="line2d_78"/>
    <g id="text_33">
     <!-- $\partial \mathcal{L}/ \partial \mu_{87}$ -->
     <g transform="translate(109 287.052187)scale(0.1 -0.1)">
      <use transform="translate(0 0.09375)" xlink:href="#DejaVuSans-2202"/>
      <use transform="translate(51.708984 0.09375)" xlink:href="#STIXNonUnicode-Italic-e238"/>
      <use transform="translate(121.008972 0.09375)" xlink:href="#DejaVuSans-2f"/>
      <use transform="translate(154.700378 0.09375)" xlink:href="#DejaVuSans-2202"/>
      <use transform="translate(206.409363 0.09375)" xlink:href="#DejaVuSans-Oblique-3bc"/>
      <use transform="translate(270.03241 -16.3125)scale(0.7)" xlink:href="#DejaVuSans-38"/>
      <use transform="translate(314.568542 -16.3125)scale(0.7)" xlink:href="#DejaVuSans-37"/>
     </g>
    </g>
    <g id="line2d_79">
     <path d="M 81 298.250625 
L 101 298.250625 
" style="fill:none;stroke:#bf00bf;stroke-linecap:square;stroke-width:1.5;"/>
    </g>
    <g id="line2d_80"/>
    <g id="text_34">
     <!-- $\partial \mathcal{L}/ \partial \mu_{89}$ -->
     <g transform="translate(109 301.750625)scale(0.1 -0.1)">
      <use transform="translate(0 0.09375)" xlink:href="#DejaVuSans-2202"/>
      <use transform="translate(51.708984 0.09375)" xlink:href="#STIXNonUnicode-Italic-e238"/>
      <use transform="translate(121.008972 0.09375)" xlink:href="#DejaVuSans-2f"/>
      <use transform="translate(154.700378 0.09375)" xlink:href="#DejaVuSans-2202"/>
      <use transform="translate(206.409363 0.09375)" xlink:href="#DejaVuSans-Oblique-3bc"/>
      <use transform="translate(270.03241 -16.3125)scale(0.7)" xlink:href="#DejaVuSans-38"/>
      <use transform="translate(314.568542 -16.3125)scale(0.7)" xlink:href="#DejaVuSans-39"/>
     </g>
    </g>
    <g id="line2d_81">
     <path d="M 81 312.949062 
L 101 312.949062 
" style="fill:none;stroke:#00bfbf;stroke-linecap:square;stroke-width:1.5;"/>
    </g>
    <g id="line2d_82"/>
    <g id="text_35">
     <!-- $\partial \mathcal{L}/ \partial \mu_{93}$ -->
     <g transform="translate(109 316.449062)scale(0.1 -0.1)">
      <use transform="translate(0 0.09375)" xlink:href="#DejaVuSans-2202"/>
      <use transform="translate(51.708984 0.09375)" xlink:href="#STIXNonUnicode-Italic-e238"/>
      <use transform="translate(121.008972 0.09375)" xlink:href="#DejaVuSans-2f"/>
      <use transform="translate(154.700378 0.09375)" xlink:href="#DejaVuSans-2202"/>
      <use transform="translate(206.409363 0.09375)" xlink:href="#DejaVuSans-Oblique-3bc"/>
      <use transform="translate(270.03241 -16.3125)scale(0.7)" xlink:href="#DejaVuSans-39"/>
      <use transform="translate(314.568542 -16.3125)scale(0.7)" xlink:href="#DejaVuSans-33"/>
     </g>
    </g>
    <g id="line2d_83">
     <path d="M 81 327.6475 
L 101 327.6475 
" style="fill:none;stroke:#ff0000;stroke-linecap:square;stroke-width:1.5;"/>
    </g>
    <g id="line2d_84"/>
    <g id="text_36">
     <!-- $\partial \mathcal{L}/ \partial \mu_{96}$ -->
     <g transform="translate(109 331.1475)scale(0.1 -0.1)">
      <use transform="translate(0 0.09375)" xlink:href="#DejaVuSans-2202"/>
      <use transform="translate(51.708984 0.09375)" xlink:href="#STIXNonUnicode-Italic-e238"/>
      <use transform="translate(121.008972 0.09375)" xlink:href="#DejaVuSans-2f"/>
      <use transform="translate(154.700378 0.09375)" xlink:href="#DejaVuSans-2202"/>
      <use transform="translate(206.409363 0.09375)" xlink:href="#DejaVuSans-Oblique-3bc"/>
      <use transform="translate(270.03241 -16.3125)scale(0.7)" xlink:href="#DejaVuSans-39"/>
      <use transform="translate(314.568542 -16.3125)scale(0.7)" xlink:href="#DejaVuSans-36"/>
     </g>
    </g>
    <g id="line2d_85">
     <path d="M 81 342.345937 
L 101 342.345937 
" style="fill:none;stroke:#008000;stroke-linecap:square;stroke-width:1.5;"/>
    </g>
    <g id="line2d_86"/>
    <g id="text_37">
     <!-- $\partial \mathcal{L}/ \partial \mu_{98}$ -->
     <g transform="translate(109 345.845937)scale(0.1 -0.1)">
      <use transform="translate(0 0.09375)" xlink:href="#DejaVuSans-2202"/>
      <use transform="translate(51.708984 0.09375)" xlink:href="#STIXNonUnicode-Italic-e238"/>
      <use transform="translate(121.008972 0.09375)" xlink:href="#DejaVuSans-2f"/>
      <use transform="translate(154.700378 0.09375)" xlink:href="#DejaVuSans-2202"/>
      <use transform="translate(206.409363 0.09375)" xlink:href="#DejaVuSans-Oblique-3bc"/>
      <use transform="translate(270.03241 -16.3125)scale(0.7)" xlink:href="#DejaVuSans-39"/>
      <use transform="translate(314.568542 -16.3125)scale(0.7)" xlink:href="#DejaVuSans-38"/>
     </g>
    </g>
   </g>
  </g>
 </g>
 <defs>
  <clipPath id="pb4a09e868c">
   <rect height="332.64" width="446.4" x="72" y="51.84"/>
  </clipPath>
 </defs>
</svg>
