<?xml version="1.0" encoding="utf-8" standalone="no"?>
<!DOCTYPE svg PUBLIC "-//W3C//DTD SVG 1.1//EN"
  "http://www.w3.org/Graphics/SVG/1.1/DTD/svg11.dtd">
<!-- Created with matplotlib (http://matplotlib.org/) -->
<svg height="432pt" version="1.1" viewBox="0 0 576 432" width="576pt" xmlns="http://www.w3.org/2000/svg" xmlns:xlink="http://www.w3.org/1999/xlink">
 <defs>
  <style type="text/css">
*{stroke-linecap:butt;stroke-linejoin:round;}
  </style>
 </defs>
 <g id="figure_1">
  <g id="patch_1">
   <path d="
M0 432
L576 432
L576 0
L0 0
z
" style="fill:#ffffff;"/>
  </g>
  <g id="axes_1">
   <g id="patch_2">
    <path d="
M72 388.8
L518.4 388.8
L518.4 43.2
L72 43.2
z
" style="fill:#ffffff;"/>
   </g>
   <g id="line2d_1">
    <path clip-path="url(#p7ff5b81e1d)" d="
M72 216
L72 187.845
L72.028 192.166
L73.1705 192.551
L73.5375 193.241
L74.3475 193.544
L75.2686 194.801
L75.7927 195.086
L76.2821 195.166
L77.5122 194.986
L78.1364 194.659
L78.648 194.188
L79.048 193.589
L79.434 193.127
L79.6922 192.62
L80.7463 191.183
L81.3465 190.552
L82.0689 190.226
L83.868 186.313
L84.1522 185.561
L84.9168 183.661
L85.5146 183.28
L86.3103 181.76
L86.7815 181.006
L87.5379 180.631
L87.9717 179.887
L88.3891 179.152
L88.6532 178.426
L89.0016 202.161
L89.3068 209.047
L89.4617 210.174
L89.6238 210.486
L89.7733 210.416
L90.6173 208.327
L91.2204 204.633
L91.4298 203.856
L92.6231 203.075
L92.8248 202.292
L93.2408 201.512
L93.7773 199.971
L94.8751 199.219
L95.1125 198.485
L95.3239 197.081
L95.8829 195.186
L96.6294 192.276
L97.5047 191.899
L98.0636 190.61
L98.7487 190.328
L98.9269 190.055
L99.1311 191.107
L99.3659 197.348
L99.9923 201.792
L100.102 202.456
L100.427 202.962
L100.585 202.9
L101.21 202.338
L101.348 201.901
L101.71 201.397
L102.017 200.448
L102.53 198.909
L102.653 198.599
L103.341 198.316
L104.547 196.812
L105.532 196.246
L105.696 196.179
L106.673 196.01
L107.853 195.777
L116.237 195.392
L116.561 195.204
L117.059 194.422
L117.363 193.536
L117.81 192.987
L118.105 191.7
L118.801 190.97
L120.236 184.464
L121.294 183.743
L123.027 177.369
L123.886 175.168
L124.357 174.593
L125.001 174.331
L125.129 174.085
L125.721 173.854
L126.198 173.24
L126.622 172.731
L127.178 172.309
L128.79 171.96
L129.143 171.761
L129.385 171.671
L130.484 171.432
L130.59 171.361
L131.815 171.176
L133.102 170.821
L137.716 170.471
L140.122 169.649
L140.288 169.567
L141.122 169.397
L142.739 168.264
L143.531 168.064
L144.558 167.458
L144.7 167.356
L145.563 167.154
L146.759 166.45
L147.321 166.054
L148.852 165.762
L150.45 164.82
L151.342 164.639
L151.67 164.459
L152.455 164.282
L152.732 164.195
L153.94 164.022
L154.856 163.517
L155.734 163.354
L156.296 163.113
L157.262 162.879
L159.401 162.136
L160.472 161.924
L161.465 161.517
L164.229 161.193
L165.439 160.763
L166.351 160.586
L166.513 160.528
L167.615 160.357
L168.479 160.081
L169.606 159.922
L171.051 159.467
L172.441 159.323
L172.597 159.276
L173.886 159.091
L180.714 157.559
L183.842 157.053
L188.49 156.388
L199.158 155.405
L204.224 155.194
L209.734 155.022
L217.73 154.576
L218.401 154.415
L218.934 154.529
L219.767 154.931
L220.513 155.516
L221.039 156.386
L221.828 157.674
L222.005 157.864
L222.894 158.17
L223.542 158.49
L224.044 158.529
L224.705 159.647
L225.029 159.973
L225.687 160.29
L229.311 160.619
L233.315 160.395
L238.283 160.127
L258.133 160.038
L389.397 159.906
L512.82 159.902
L512.82 159.902" style="fill:none;stroke:#bf00bf;stroke-linecap:square;"/>
   </g>
   <g id="line2d_2">
    <path clip-path="url(#p7ff5b81e1d)" d="
M72 216
L72 244.155
L72 239.834
L72.8916 239.449
L73.3485 239.091
L73.5446 238.759
L74.3058 238.456
L75.3759 237.08
L75.9104 236.865
L76.5745 236.885
L77.5013 237.014
L78.0857 237.341
L78.6154 237.812
L79.556 239.121
L80.182 240.215
L80.3594 240.512
L80.9326 240.817
L81.2584 241.448
L82.0597 241.774
L83.4289 244.943
L84.018 246.062
L84.4017 247.196
L84.8756 248.339
L85.6492 248.72
L85.8413 249.481
L86.4486 250.617
L86.6384 250.994
L87.6124 251.369
L88.6815 253.574
L88.972 229.839
L89.2843 222.953
L89.5851 221.514
L89.7381 221.584
L90.6446 223.673
L91.1296 226.597
L91.4505 228.144
L92.5651 228.925
L92.9471 230.488
L93.4141 231.263
L93.7087 232.029
L94.936 232.781
L96.2559 238.416
L96.6632 239.724
L97.4865 240.101
L98.0782 241.39
L98.7854 241.672
L98.9837 241.945
L99.0959 240.893
L99.4221 234.652
L99.7448 231.222
L100.153 229.544
L100.27 229.172
L100.434 229.038
L100.558 229.1
L100.734 229.319
L101.272 229.662
L102.67 233.401
L103.333 233.684
L104.673 235.306
L105.505 235.754
L105.825 235.883
L106.969 236.081
L107.871 236.223
L116.369 236.674
L116.697 236.985
L117.19 237.985
L117.501 239.013
L117.996 239.626
L118.145 240.3
L118.79 241.03
L120.205 247.536
L120.942 248.257
L121.461 248.961
L122.217 252.132
L122.983 254.631
L124.248 257.407
L125.094 257.669
L125.187 257.915
L125.8 258.146
L126.263 258.76
L126.687 259.269
L127.253 259.691
L128.887 260.04
L129.25 260.239
L129.457 260.329
L130.546 260.568
L130.644 260.639
L131.869 260.824
L133.158 261.179
L137.66 261.49
L139.681 262.117
L141.6 262.871
L142.54 263.538
L142.798 263.736
L143.591 263.936
L144.125 264.238
L144.457 264.441
L144.761 264.644
L145.624 264.846
L146.836 265.55
L147.261 265.848
L147.397 265.946
L148.929 266.238
L150.571 267.18
L151.432 267.361
L151.75 267.541
L154.02 267.978
L154.916 268.483
L155.814 268.646
L156.356 268.887
L157.32 269.121
L159.473 269.864
L160.541 270.076
L161.521 270.483
L164.339 270.807
L165.149 271.117
L165.51 271.237
L166.404 271.414
L166.591 271.472
L167.687 271.643
L168.559 271.919
L169.686 272.078
L171.13 272.533
L172.514 272.677
L172.722 272.724
L173.993 272.909
L176.354 273.547
L178.749 274.071
L180.286 274.343
L185.577 275.212
L191.002 275.9
L195.836 276.35
L198.02 276.499
L200.864 276.673
L205.265 276.817
L211.435 277.036
L217.793 277.424
L218.465 277.585
L218.996 277.471
L219.888 277.069
L220.779 276.21
L222.065 274.136
L222.987 273.83
L223.492 273.557
L224.118 273.471
L224.768 272.353
L225.086 272.027
L225.758 271.71
L227.116 271.454
L227.965 271.379
L230.938 271.441
L233.914 271.655
L237.526 271.83
L240.531 271.904
L245.463 271.941
L267.848 271.996
L292.311 272.039
L485.756 272.098
L512.955 272.098
L512.955 272.098" style="fill:none;stroke:#00bfbf;stroke-linecap:square;"/>
   </g>
   <g id="line2d_3">
    <path clip-path="url(#p7ff5b81e1d)" d="
M72 216
L72 154.697
L72 164.737
L72.8916 165.33
L73.3485 165.878
L73.5446 166.383
L74.3058 166.842
L75.3759 168.791
L75.9104 168.969
L76.3101 168.883
L76.5745 168.644
L77.2961 168.469
L77.8902 167.738
L78.458 166.719
L79.0311 164.967
L79.556 163.397
L80.182 161.018
L80.3594 160.378
L80.9326 159.723
L81.2584 158.37
L82.0597 157.674
L83.2601 151.74
L83.6409 150.185
L83.8962 149.401
L84.7299 144.644
L84.8756 143.847
L85.6492 143.052
L85.8413 141.465
L86.4486 139.101
L86.6384 138.319
L87.6124 137.541
L88.6815 132.972
L89.1351 124.813
L89.8912 116.127
L90.2653 113.111
L90.6446 111.63
L91.1296 105.681
L91.4505 102.651
L92.5651 101.124
L92.9471 98.0713
L93.4141 96.5576
L93.7087 95.0612
L94.936 93.5906
L96.2559 82.5647
L96.5113 80.8056
L96.6632 80.0168
L97.4865 79.2832
L98.0782 76.7845
L98.7854 76.2376
L99.5601 74.2772
L100.734 73.1108
L101.885 72.8162
L102.67 73.1449
L104.099 73.3385
L105.315 73.4702
L108.887 73.5553
L116.847 73.6932
L117.996 74.0331
L118.145 74.129
L118.971 74.3446
L120.205 75.1615
L121.605 75.4622
L122.983 76.1733
L124.248 76.5694
L126.263 76.7625
L127.253 76.8951
L141.707 77.3621
L144.761 77.6015
L146.929 77.7453
L151.75 78.0149
L157.227 78.2292
L158.849 78.3259
L175.036 78.8244
L181.735 79.0258
L220.622 79.3139
L224.118 78.8698
L225.086 78.6547
L228.155 78.5622
L512.955 78.665
L512.955 78.665" style="fill:none;stroke:#ff0000;stroke-linecap:square;"/>
   </g>
   <g id="line2d_4">
    <path clip-path="url(#p7ff5b81e1d)" d="
M72 216
L72 270
L72 282.577
L72 282.577
L72 233.858
L72 240.503
L72.8208 242.914
L73.3666 245.389
L73.468 247.859
L74.3125 250.28
L74.7332 256.985
L75.6972 267.316
L76.2514 271.148
L76.561 273.331
L77.2184 274.33
L80.105 285.768
L81.3083 287.553
L81.9592 287.963
L83.3837 291.082
L83.7797 291.647
L84.8277 293.287
L85.4565 293.481
L86.3812 294.31
L86.7543 294.448
L87.7333 294.699
L88.4611 295.101
L89.0608 295.473
L89.2243 295.342
L89.6961 294.129
L90.0523 293.049
L90.4038 292.46
L91.183 288.289
L91.4026 287.495
L92.5947 286.681
L92.728 285.852
L93.2144 285.015
L93.7512 283.342
L94.846 282.521
L95.4812 279.489
L96.3205 276.16
L96.5897 275.398
L97.4155 275.07
L98.0355 274.003
L98.7152 273.771
L100.648 270.988
L101.183 270.792
L101.321 270.614
L101.684 270.458
L102.488 267.918
L102.615 267.76
L105.089 267.403
L111.533 267.241
L117.782 266.914
L118.068 266.714
L118.948 266.424
L120.174 264.532
L121.38 263.961
L121.684 263.367
L123.092 260.731
L124.179 259.055
L124.987 258.851
L125.108 258.655
L125.694 258.468
L126.29 257.802
L127.108 257.138
L128.712 256.815
L129.353 256.541
L130.272 256.382
L130.56 256.24
L131.784 256.055
L132.71 255.768
L133.064 255.693
L134.163 255.595
L135.171 257.996
L135.505 259.87
L136.713 265.255
L137.367 267.884
L138.221 271.623
L138.87 272.22
L140.194 277.279
L140.872 277.807
L142.705 284.145
L143.352 284.595
L144.473 287.615
L144.673 288.028
L145.436 288.437
L145.83 289.64
L146.825 291.94
L147.25 293.039
L148.607 293.754
L150.141 297.132
L150.402 297.452
L151.106 297.77
L151.638 298.705
L152.268 299.011
L152.698 299.614
L153.701 299.912
L154.005 300.498
L154.774 301.92
L155.503 302.196
L155.996 303.01
L156.192 303.277
L156.886 303.541
L157.211 304.063
L157.72 304.827
L158.372 305.815
L158.667 306.057
L159.178 306.296
L159.317 306.533
L160.088 306.769
L161.184 308.357
L161.438 308.576
L163.797 309.221
L164.649 310.259
L165.328 311.057
L165.912 311.252
L166.421 311.827
L167.185 312.015
L168.388 313.288
L169.157 313.464
L169.987 314.318
L170.963 315.296
L171.972 315.453
L172.503 315.919
L173.253 316.072
L173.364 316.223
L174.142 316.814
L175.206 317.801
L176.193 318.6
L177.102 319.234
L178.914 320.536
L179.498 320.76
L181.971 322.22
L183.096 322.793
L185.214 323.937
L190.491 326.132
L192.983 327.033
L194.027 327.2
L196.366 327.774
L200.296 328.689
L203.916 329.203
L206.377 329.387
L207.731 329.527
L209.6 329.762
L214.885 330.388
L216.553 330.547
L217.299 330.673
L218.833 330.817
L220.418 331.051
L221.739 331.595
L221.9 331.678
L222.81 331.863
L223.788 332.606
L224.609 333.432
L225.14 333.904
L227.991 335.35
L229.41 335.586
L230.192 335.865
L231.168 336.055
L231.836 336.286
L233.198 336.499
L238.198 337.447
L240.257 337.652
L240.484 337.692
L241.894 337.853
L244.012 338.358
L249.564 339.355
L256.297 340.325
L259.637 340.553
L261.661 340.768
L262.804 340.904
L264.594 341.056
L267.173 341.281
L270.805 341.491
L273.208 341.72
L276.394 341.962
L281.861 342.316
L285.779 342.49
L289.12 342.593
L298.65 343.021
L323.353 343.638
L332.705 343.792
L345.602 343.938
L373.523 344.12
L512.877 344.302
L512.877 344.302" style="fill:none;stroke:#008000;stroke-linecap:square;"/>
   </g>
   <g id="line2d_5">
    <path clip-path="url(#p7ff5b81e1d)" d="
M72 216
L72 277.395
L72 267.975
L72.8208 267.339
L73.3666 266.746
L73.468 266.196
L74.3125 265.691
L74.7332 264.448
L75.3226 263.425
L75.917 263.119
L76.2514 263.124
L76.561 263.288
L77.2184 263.426
L77.902 264.057
L78.9949 266.631
L80.105 270.441
L81.3083 273.031
L81.9592 273.716
L82.9161 278.064
L83.3837 280.356
L83.6515 281.132
L84.6397 286.665
L84.8277 287.463
L85.4565 288.26
L86.3812 292.227
L86.7543 293.013
L87.5095 293.796
L87.8898 295.351
L88.0327 296.121
L88.4611 297.647
L88.7683 299.151
L89.0608 305.018
L89.6961 312.834
L90.0523 316.021
L90.4038 317.544
L90.9315 323.49
L91.4026 327.996
L92.5947 329.518
L92.728 331.046
L93.2144 332.577
L93.7512 335.62
L94.846 337.119
L95.6331 344.081
L96.5897 351.395
L97.4155 352.185
L98.0355 354.85
L98.7152 355.422
L99.4829 357.705
L99.8723 358.121
L100.488 358.77
L100.648 358.935
L101.183 359.102
L101.321 359.268
L101.82 359.467
L102.615 359.112
L103.851 358.926
L105.599 358.731
L117.027 358.518
L117.279 358.412
L117.918 358.266
L118.068 358.178
L118.948 357.977
L119.543 357.559
L120.174 357.153
L121.596 356.845
L121.98 356.562
L123.259 355.974
L124.179 355.678
L126.166 355.472
L127.108 355.33
L141.452 354.87
L147.917 354.418
L150.141 354.268
L161.438 353.779
L168.021 353.588
L173.801 353.43
L182.625 353.165
L193.665 352.962
L209.6 352.843
L220.59 352.889
L223.788 353.219
L225.14 353.549
L227.991 353.642
L512.877 353.539
L512.877 353.539" style="fill:none;stroke:#0000ff;stroke-linecap:square;"/>
   </g>
   <g id="line2d_6">
    <path clip-path="url(#p7ff5b81e1d)" d="
M72 216
L72 104.559
L72 149.423
L72 149.423
L72 198.142
L72.0567 191.497
L72.8832 189.086
L73.4255 186.611
L73.5178 184.141
L74.3878 181.72
L75.0941 171.12
L75.582 166.137
L76.6252 158.669
L77.4119 157.67
L77.7164 155.83
L78.0983 154.171
L79.9991 146.718
L80.3528 145.764
L80.9195 145.31
L81.3546 144.447
L82.0363 144.037
L82.8469 142.182
L83.4409 140.918
L83.8243 140.353
L84.8957 138.713
L85.5985 138.519
L86.0624 137.994
L86.6722 137.552
L87.7968 137.301
L88.3606 136.988
L88.9645 136.831
L89.3 137.943
L89.902 140.612
L91.4609 144.637
L92.6637 145.088
L92.9572 146.095
L93.5295 146.658
L93.818 147.262
L94.9211 147.906
L95.2022 149.299
L95.4478 150.037
L96.2787 154.54
L96.6691 156.47
L97.4926 157.022
L97.9178 158.369
L98.103 158.716
L98.8021 159.017
L99.4143 159.798
L100.708 159.624
L101.429 159.809
L101.76 160.786
L101.878 162.003
L102.547 164.082
L102.678 164.24
L105.161 164.597
L112.5 164.804
L117.85 165.086
L118.154 165.286
L119.022 165.576
L120.243 167.468
L121.435 168.039
L121.887 168.935
L122.991 170.996
L124.262 172.945
L125.02 173.149
L125.164 173.345
L125.764 173.532
L126.222 174.043
L126.788 174.617
L127.201 174.862
L128.77 175.185
L129.314 175.459
L130.265 175.618
L130.629 175.76
L131.852 175.945
L132.716 176.232
L133.115 176.307
L134.123 176.405
L134.485 175.937
L134.83 175.09
L135.438 172.776
L136.049 170.125
L137.869 162.214
L138.306 160.377
L138.953 159.78
L139.765 156.346
L140.255 154.721
L140.94 154.193
L142.598 148.31
L142.782 147.855
L143.421 147.405
L144.022 145.652
L144.752 143.972
L145.429 143.563
L147.022 139.69
L147.314 138.961
L148.692 138.246
L149.419 136.517
L150.536 134.548
L151.172 134.23
L151.524 133.604
L151.71 133.295
L152.35 132.989
L152.654 132.686
L152.679 132.386
L153.769 132.088
L154.565 130.641
L154.829 130.08
L155.58 129.804
L155.866 129.258
L156.256 128.723
L156.955 128.459
L157.417 127.68
L158.42 126.185
L159.371 125.467
L160.155 125.231
L161.085 123.864
L161.497 123.424
L164.178 122.568
L164.211 122.358
L165.406 120.943
L165.99 120.748
L166.482 120.173
L167.253 119.985
L168.449 118.712
L169.226 118.536
L170.387 117.35
L171.02 116.704
L172.062 116.547
L172.764 115.928
L173.525 115.777
L175.082 114.337
L178.972 111.464
L179.552 111.24
L181.649 109.878
L182.525 109.585
L184.284 108.575
L188.679 106.607
L191.376 105.554
L193.045 104.967
L194.101 104.8
L195.738 104.276
L196.773 104.127
L198.918 103.525
L201.303 103.106
L207.793 102.473
L208.932 102.27
L211.158 102.078
L213.429 101.751
L214.978 101.612
L216.539 101.453
L218.717 101.198
L220.121 100.999
L221.003 100.768
L221.965 100.322
L222.858 100.137
L223.671 99.5401
L224.499 98.7349
L225.453 97.9508
L225.648 97.8126
L226.448 97.5555
L227.325 97.0091
L228.057 96.6501
L229.478 96.4142
L230.252 96.1347
L231.229 95.9455
L231.892 95.7139
L233.27 95.5009
L237.014 94.8054
L238.067 94.5942
L238.251 94.5527
L240.385 94.3479
L240.586 94.3078
L241.943 94.1475
L246.544 93.0891
L248.512 92.7444
L248.906 92.6778
L250.329 92.515
L253.045 92.0303
L255.42 91.835
L257.64 91.5715
L261.533 91.2557
L265.497 90.8401
L267.872 90.6604
L268.909 90.5463
L272.119 90.4012
L275.317 90.132
L279.849 89.7916
L283.484 89.608
L286.703 89.475
L290.502 89.3264
L296.203 89.0728
L300.836 88.9142
L322.275 88.3751
L364.639 87.9297
L405.095 87.7729
L512.753 87.6982
L512.753 87.6982" style="fill:none;stroke:#000000;stroke-linecap:square;"/>
   </g>
   <g id="patch_3">
    <path d="
M72 388.8
L72 43.2" style="fill:none;stroke:#000000;stroke-linecap:square;stroke-linejoin:miter;"/>
   </g>
   <g id="patch_4">
    <path d="
M518.4 388.8
L518.4 43.2" style="fill:none;stroke:#000000;stroke-linecap:square;stroke-linejoin:miter;"/>
   </g>
   <g id="patch_5">
    <path d="
M72 43.2
L518.4 43.2" style="fill:none;stroke:#000000;stroke-linecap:square;stroke-linejoin:miter;"/>
   </g>
   <g id="patch_6">
    <path d="
M72 388.8
L518.4 388.8" style="fill:none;stroke:#000000;stroke-linecap:square;stroke-linejoin:miter;"/>
   </g>
   <g id="matplotlib.axis_1">
    <g id="xtick_1">
     <g id="line2d_7">
      <path clip-path="url(#p7ff5b81e1d)" d="
M72 388.8
L72 43.2" style="fill:none;stroke:#000000;stroke-dasharray:3.000000,5.000000,1.000000,5.000000;stroke-dashoffset:0.0;stroke-width:0.5;"/>
     </g>
     <g id="line2d_8">
      <defs>
       <path d="
M0 0
L0 -4" id="mc7db9fdffb" style="stroke:#000000;stroke-width:0.5;"/>
      </defs>
      <g>
       <use style="stroke:#000000;stroke-width:0.5;" x="72.0" xlink:href="#mc7db9fdffb" y="388.8"/>
      </g>
     </g>
     <g id="line2d_9">
      <defs>
       <path d="
M0 0
L0 4" id="m5a7d422ac3" style="stroke:#000000;stroke-width:0.5;"/>
      </defs>
      <g>
       <use style="stroke:#000000;stroke-width:0.5;" x="72.0" xlink:href="#m5a7d422ac3" y="43.2"/>
      </g>
     </g>
     <g id="text_1">
      <!-- 0 -->
      <defs>
       <path d="
M31.7812 66.4062
Q24.1719 66.4062 20.3281 58.9062
Q16.5 51.4219 16.5 36.375
Q16.5 21.3906 20.3281 13.8906
Q24.1719 6.39062 31.7812 6.39062
Q39.4531 6.39062 43.2812 13.8906
Q47.125 21.3906 47.125 36.375
Q47.125 51.4219 43.2812 58.9062
Q39.4531 66.4062 31.7812 66.4062
M31.7812 74.2188
Q44.0469 74.2188 50.5156 64.5156
Q56.9844 54.8281 56.9844 36.375
Q56.9844 17.9688 50.5156 8.26562
Q44.0469 -1.42188 31.7812 -1.42188
Q19.5312 -1.42188 13.0625 8.26562
Q6.59375 17.9688 6.59375 36.375
Q6.59375 54.8281 13.0625 64.5156
Q19.5312 74.2188 31.7812 74.2188" id="DejaVuSans-30"/>
      </defs>
      <g transform="translate(68.9765625 401.918125)scale(0.12 -0.12)">
       <use xlink:href="#DejaVuSans-30"/>
      </g>
     </g>
    </g>
    <g id="xtick_2">
     <g id="line2d_10">
      <path clip-path="url(#p7ff5b81e1d)" d="
M183.6 388.8
L183.6 43.2" style="fill:none;stroke:#000000;stroke-dasharray:3.000000,5.000000,1.000000,5.000000;stroke-dashoffset:0.0;stroke-width:0.5;"/>
     </g>
     <g id="line2d_11">
      <g>
       <use style="stroke:#000000;stroke-width:0.5;" x="183.6" xlink:href="#mc7db9fdffb" y="388.8"/>
      </g>
     </g>
     <g id="line2d_12">
      <g>
       <use style="stroke:#000000;stroke-width:0.5;" x="183.6" xlink:href="#m5a7d422ac3" y="43.2"/>
      </g>
     </g>
     <g id="text_2">
      <!-- 50 -->
      <defs>
       <path d="
M10.7969 72.9062
L49.5156 72.9062
L49.5156 64.5938
L19.8281 64.5938
L19.8281 46.7344
Q21.9688 47.4688 24.1094 47.8281
Q26.2656 48.1875 28.4219 48.1875
Q40.625 48.1875 47.75 41.5
Q54.8906 34.8125 54.8906 23.3906
Q54.8906 11.625 47.5625 5.09375
Q40.2344 -1.42188 26.9062 -1.42188
Q22.3125 -1.42188 17.5469 -0.640625
Q12.7969 0.140625 7.71875 1.70312
L7.71875 11.625
Q12.1094 9.23438 16.7969 8.0625
Q21.4844 6.89062 26.7031 6.89062
Q35.1562 6.89062 40.0781 11.3281
Q45.0156 15.7656 45.0156 23.3906
Q45.0156 31 40.0781 35.4375
Q35.1562 39.8906 26.7031 39.8906
Q22.75 39.8906 18.8125 39.0156
Q14.8906 38.1406 10.7969 36.2812
z
" id="DejaVuSans-35"/>
      </defs>
      <g transform="translate(176.8265625 401.918125)scale(0.12 -0.12)">
       <use xlink:href="#DejaVuSans-35"/>
       <use x="63.623046875" xlink:href="#DejaVuSans-30"/>
      </g>
     </g>
    </g>
    <g id="xtick_3">
     <g id="line2d_13">
      <path clip-path="url(#p7ff5b81e1d)" d="
M295.2 388.8
L295.2 43.2" style="fill:none;stroke:#000000;stroke-dasharray:3.000000,5.000000,1.000000,5.000000;stroke-dashoffset:0.0;stroke-width:0.5;"/>
     </g>
     <g id="line2d_14">
      <g>
       <use style="stroke:#000000;stroke-width:0.5;" x="295.2" xlink:href="#mc7db9fdffb" y="388.8"/>
      </g>
     </g>
     <g id="line2d_15">
      <g>
       <use style="stroke:#000000;stroke-width:0.5;" x="295.2" xlink:href="#m5a7d422ac3" y="43.2"/>
      </g>
     </g>
     <g id="text_3">
      <!-- 100 -->
      <defs>
       <path d="
M12.4062 8.29688
L28.5156 8.29688
L28.5156 63.9219
L10.9844 60.4062
L10.9844 69.3906
L28.4219 72.9062
L38.2812 72.9062
L38.2812 8.29688
L54.3906 8.29688
L54.3906 0
L12.4062 0
z
" id="DejaVuSans-31"/>
      </defs>
      <g transform="translate(284.805 401.918125)scale(0.12 -0.12)">
       <use xlink:href="#DejaVuSans-31"/>
       <use x="63.623046875" xlink:href="#DejaVuSans-30"/>
       <use x="127.24609375" xlink:href="#DejaVuSans-30"/>
      </g>
     </g>
    </g>
    <g id="xtick_4">
     <g id="line2d_16">
      <path clip-path="url(#p7ff5b81e1d)" d="
M406.8 388.8
L406.8 43.2" style="fill:none;stroke:#000000;stroke-dasharray:3.000000,5.000000,1.000000,5.000000;stroke-dashoffset:0.0;stroke-width:0.5;"/>
     </g>
     <g id="line2d_17">
      <g>
       <use style="stroke:#000000;stroke-width:0.5;" x="406.8" xlink:href="#mc7db9fdffb" y="388.8"/>
      </g>
     </g>
     <g id="line2d_18">
      <g>
       <use style="stroke:#000000;stroke-width:0.5;" x="406.8" xlink:href="#m5a7d422ac3" y="43.2"/>
      </g>
     </g>
     <g id="text_4">
      <!-- 150 -->
      <g transform="translate(396.405 401.918125)scale(0.12 -0.12)">
       <use xlink:href="#DejaVuSans-31"/>
       <use x="63.623046875" xlink:href="#DejaVuSans-35"/>
       <use x="127.24609375" xlink:href="#DejaVuSans-30"/>
      </g>
     </g>
    </g>
    <g id="xtick_5">
     <g id="line2d_19">
      <path clip-path="url(#p7ff5b81e1d)" d="
M518.4 388.8
L518.4 43.2" style="fill:none;stroke:#000000;stroke-dasharray:3.000000,5.000000,1.000000,5.000000;stroke-dashoffset:0.0;stroke-width:0.5;"/>
     </g>
     <g id="line2d_20">
      <g>
       <use style="stroke:#000000;stroke-width:0.5;" x="518.4" xlink:href="#mc7db9fdffb" y="388.8"/>
      </g>
     </g>
     <g id="line2d_21">
      <g>
       <use style="stroke:#000000;stroke-width:0.5;" x="518.4" xlink:href="#m5a7d422ac3" y="43.2"/>
      </g>
     </g>
     <g id="text_5">
      <!-- 200 -->
      <defs>
       <path d="
M19.1875 8.29688
L53.6094 8.29688
L53.6094 0
L7.32812 0
L7.32812 8.29688
Q12.9375 14.1094 22.625 23.8906
Q32.3281 33.6875 34.8125 36.5312
Q39.5469 41.8438 41.4219 45.5312
Q43.3125 49.2188 43.3125 52.7812
Q43.3125 58.5938 39.2344 62.25
Q35.1562 65.9219 28.6094 65.9219
Q23.9688 65.9219 18.8125 64.3125
Q13.6719 62.7031 7.8125 59.4219
L7.8125 69.3906
Q13.7656 71.7812 18.9375 73
Q24.125 74.2188 28.4219 74.2188
Q39.75 74.2188 46.4844 68.5469
Q53.2188 62.8906 53.2188 53.4219
Q53.2188 48.9219 51.5312 44.8906
Q49.8594 40.875 45.4062 35.4062
Q44.1875 33.9844 37.6406 27.2188
Q31.1094 20.4531 19.1875 8.29688" id="DejaVuSans-32"/>
      </defs>
      <g transform="translate(507.785625 401.918125)scale(0.12 -0.12)">
       <use xlink:href="#DejaVuSans-32"/>
       <use x="63.623046875" xlink:href="#DejaVuSans-30"/>
       <use x="127.24609375" xlink:href="#DejaVuSans-30"/>
      </g>
     </g>
    </g>
    <g id="text_6">
     <!-- Time -->
     <defs>
      <path d="
M56.2031 29.5938
L56.2031 25.2031
L14.8906 25.2031
Q15.4844 15.9219 20.4844 11.0625
Q25.4844 6.20312 34.4219 6.20312
Q39.5938 6.20312 44.4531 7.46875
Q49.3125 8.73438 54.1094 11.2812
L54.1094 2.78125
Q49.2656 0.734375 44.1875 -0.34375
Q39.1094 -1.42188 33.8906 -1.42188
Q20.7969 -1.42188 13.1562 6.1875
Q5.51562 13.8125 5.51562 26.8125
Q5.51562 40.2344 12.7656 48.1094
Q20.0156 56 32.3281 56
Q43.3594 56 49.7812 48.8906
Q56.2031 41.7969 56.2031 29.5938
M47.2188 32.2344
Q47.125 39.5938 43.0938 43.9844
Q39.0625 48.3906 32.4219 48.3906
Q24.9062 48.3906 20.3906 44.1406
Q15.875 39.8906 15.1875 32.1719
z
" id="DejaVuSans-65"/>
      <path d="
M-0.296875 72.9062
L61.375 72.9062
L61.375 64.5938
L35.5 64.5938
L35.5 0
L25.5938 0
L25.5938 64.5938
L-0.296875 64.5938
z
" id="DejaVuSans-54"/>
      <path d="
M9.42188 54.6875
L18.4062 54.6875
L18.4062 0
L9.42188 0
z

M9.42188 75.9844
L18.4062 75.9844
L18.4062 64.5938
L9.42188 64.5938
z
" id="DejaVuSans-69"/>
      <path d="
M52 44.1875
Q55.375 50.25 60.0625 53.125
Q64.75 56 71.0938 56
Q79.6406 56 84.2812 50.0156
Q88.9219 44.0469 88.9219 33.0156
L88.9219 0
L79.8906 0
L79.8906 32.7188
Q79.8906 40.5781 77.0938 44.375
Q74.3125 48.1875 68.6094 48.1875
Q61.625 48.1875 57.5625 43.5469
Q53.5156 38.9219 53.5156 30.9062
L53.5156 0
L44.4844 0
L44.4844 32.7188
Q44.4844 40.625 41.7031 44.4062
Q38.9219 48.1875 33.1094 48.1875
Q26.2188 48.1875 22.1562 43.5312
Q18.1094 38.875 18.1094 30.9062
L18.1094 0
L9.07812 0
L9.07812 54.6875
L18.1094 54.6875
L18.1094 46.1875
Q21.1875 51.2188 25.4844 53.6094
Q29.7812 56 35.6875 56
Q41.6562 56 45.8281 52.9688
Q50 49.9531 52 44.1875" id="DejaVuSans-6d"/>
     </defs>
     <g transform="translate(278.42515625 420.0515625)scale(0.14 -0.14)">
      <use xlink:href="#DejaVuSans-54"/>
      <use x="57.958984375" xlink:href="#DejaVuSans-69"/>
      <use x="85.7421875" xlink:href="#DejaVuSans-6d"/>
      <use x="183.154296875" xlink:href="#DejaVuSans-65"/>
     </g>
    </g>
   </g>
   <g id="matplotlib.axis_2">
    <g id="ytick_1">
     <g id="line2d_22">
      <path clip-path="url(#p7ff5b81e1d)" d="
M72 388.8
L518.4 388.8" style="fill:none;stroke:#000000;stroke-dasharray:3.000000,5.000000,1.000000,5.000000;stroke-dashoffset:0.0;stroke-width:0.5;"/>
     </g>
     <g id="line2d_23">
      <defs>
       <path d="
M0 0
L4 0" id="md7965d1ba0" style="stroke:#000000;stroke-width:0.5;"/>
      </defs>
      <g>
       <use style="stroke:#000000;stroke-width:0.5;" x="72.0" xlink:href="#md7965d1ba0" y="388.8"/>
      </g>
     </g>
     <g id="line2d_24">
      <defs>
       <path d="
M0 0
L-4 0" id="md9a1c1a7cd" style="stroke:#000000;stroke-width:0.5;"/>
      </defs>
      <g>
       <use style="stroke:#000000;stroke-width:0.5;" x="518.4" xlink:href="#md9a1c1a7cd" y="388.8"/>
      </g>
     </g>
     <g id="text_7">
      <!-- −40 -->
      <defs>
       <path d="
M10.5938 35.5
L73.1875 35.5
L73.1875 27.2031
L10.5938 27.2031
z
" id="DejaVuSans-2212"/>
       <path d="
M37.7969 64.3125
L12.8906 25.3906
L37.7969 25.3906
z

M35.2031 72.9062
L47.6094 72.9062
L47.6094 25.3906
L58.0156 25.3906
L58.0156 17.1875
L47.6094 17.1875
L47.6094 0
L37.7969 0
L37.7969 17.1875
L4.89062 17.1875
L4.89062 26.7031
z
" id="DejaVuSans-34"/>
      </defs>
      <g transform="translate(44.7425 392.11125)scale(0.12 -0.12)">
       <use xlink:href="#DejaVuSans-2212"/>
       <use x="83.7890625" xlink:href="#DejaVuSans-34"/>
       <use x="147.412109375" xlink:href="#DejaVuSans-30"/>
      </g>
     </g>
    </g>
    <g id="ytick_2">
     <g id="line2d_25">
      <path clip-path="url(#p7ff5b81e1d)" d="
M72 345.6
L518.4 345.6" style="fill:none;stroke:#000000;stroke-dasharray:3.000000,5.000000,1.000000,5.000000;stroke-dashoffset:0.0;stroke-width:0.5;"/>
     </g>
     <g id="line2d_26">
      <g>
       <use style="stroke:#000000;stroke-width:0.5;" x="72.0" xlink:href="#md7965d1ba0" y="345.6"/>
      </g>
     </g>
     <g id="line2d_27">
      <g>
       <use style="stroke:#000000;stroke-width:0.5;" x="518.4" xlink:href="#md9a1c1a7cd" y="345.6"/>
      </g>
     </g>
     <g id="text_8">
      <!-- −30 -->
      <defs>
       <path d="
M40.5781 39.3125
Q47.6562 37.7969 51.625 33
Q55.6094 28.2188 55.6094 21.1875
Q55.6094 10.4062 48.1875 4.48438
Q40.7656 -1.42188 27.0938 -1.42188
Q22.5156 -1.42188 17.6562 -0.515625
Q12.7969 0.390625 7.625 2.20312
L7.625 11.7188
Q11.7188 9.32812 16.5938 8.10938
Q21.4844 6.89062 26.8125 6.89062
Q36.0781 6.89062 40.9375 10.5469
Q45.7969 14.2031 45.7969 21.1875
Q45.7969 27.6406 41.2812 31.2656
Q36.7656 34.9062 28.7188 34.9062
L20.2188 34.9062
L20.2188 43.0156
L29.1094 43.0156
Q36.375 43.0156 40.2344 45.9219
Q44.0938 48.8281 44.0938 54.2969
Q44.0938 59.9062 40.1094 62.9062
Q36.1406 65.9219 28.7188 65.9219
Q24.6562 65.9219 20.0156 65.0312
Q15.375 64.1562 9.8125 62.3125
L9.8125 71.0938
Q15.4375 72.6562 20.3438 73.4375
Q25.25 74.2188 29.5938 74.2188
Q40.8281 74.2188 47.3594 69.1094
Q53.9062 64.0156 53.9062 55.3281
Q53.9062 49.2656 50.4375 45.0938
Q46.9688 40.9219 40.5781 39.3125" id="DejaVuSans-33"/>
      </defs>
      <g transform="translate(44.7425 348.91125)scale(0.12 -0.12)">
       <use xlink:href="#DejaVuSans-2212"/>
       <use x="83.7890625" xlink:href="#DejaVuSans-33"/>
       <use x="147.412109375" xlink:href="#DejaVuSans-30"/>
      </g>
     </g>
    </g>
    <g id="ytick_3">
     <g id="line2d_28">
      <path clip-path="url(#p7ff5b81e1d)" d="
M72 302.4
L518.4 302.4" style="fill:none;stroke:#000000;stroke-dasharray:3.000000,5.000000,1.000000,5.000000;stroke-dashoffset:0.0;stroke-width:0.5;"/>
     </g>
     <g id="line2d_29">
      <g>
       <use style="stroke:#000000;stroke-width:0.5;" x="72.0" xlink:href="#md7965d1ba0" y="302.4"/>
      </g>
     </g>
     <g id="line2d_30">
      <g>
       <use style="stroke:#000000;stroke-width:0.5;" x="518.4" xlink:href="#md9a1c1a7cd" y="302.4"/>
      </g>
     </g>
     <g id="text_9">
      <!-- −20 -->
      <g transform="translate(44.7425 305.71125)scale(0.12 -0.12)">
       <use xlink:href="#DejaVuSans-2212"/>
       <use x="83.7890625" xlink:href="#DejaVuSans-32"/>
       <use x="147.412109375" xlink:href="#DejaVuSans-30"/>
      </g>
     </g>
    </g>
    <g id="ytick_4">
     <g id="line2d_31">
      <path clip-path="url(#p7ff5b81e1d)" d="
M72 259.2
L518.4 259.2" style="fill:none;stroke:#000000;stroke-dasharray:3.000000,5.000000,1.000000,5.000000;stroke-dashoffset:0.0;stroke-width:0.5;"/>
     </g>
     <g id="line2d_32">
      <g>
       <use style="stroke:#000000;stroke-width:0.5;" x="72.0" xlink:href="#md7965d1ba0" y="259.2"/>
      </g>
     </g>
     <g id="line2d_33">
      <g>
       <use style="stroke:#000000;stroke-width:0.5;" x="518.4" xlink:href="#md9a1c1a7cd" y="259.2"/>
      </g>
     </g>
     <g id="text_10">
      <!-- −10 -->
      <g transform="translate(44.7425 262.51125)scale(0.12 -0.12)">
       <use xlink:href="#DejaVuSans-2212"/>
       <use x="83.7890625" xlink:href="#DejaVuSans-31"/>
       <use x="147.412109375" xlink:href="#DejaVuSans-30"/>
      </g>
     </g>
    </g>
    <g id="ytick_5">
     <g id="line2d_34">
      <path clip-path="url(#p7ff5b81e1d)" d="
M72 216
L518.4 216" style="fill:none;stroke:#000000;stroke-dasharray:3.000000,5.000000,1.000000,5.000000;stroke-dashoffset:0.0;stroke-width:0.5;"/>
     </g>
     <g id="line2d_35">
      <g>
       <use style="stroke:#000000;stroke-width:0.5;" x="72.0" xlink:href="#md7965d1ba0" y="216.0"/>
      </g>
     </g>
     <g id="line2d_36">
      <g>
       <use style="stroke:#000000;stroke-width:0.5;" x="518.4" xlink:href="#md9a1c1a7cd" y="216.0"/>
      </g>
     </g>
     <g id="text_11">
      <!-- 0 -->
      <g transform="translate(61.953125 219.31125)scale(0.12 -0.12)">
       <use xlink:href="#DejaVuSans-30"/>
      </g>
     </g>
    </g>
    <g id="ytick_6">
     <g id="line2d_37">
      <path clip-path="url(#p7ff5b81e1d)" d="
M72 172.8
L518.4 172.8" style="fill:none;stroke:#000000;stroke-dasharray:3.000000,5.000000,1.000000,5.000000;stroke-dashoffset:0.0;stroke-width:0.5;"/>
     </g>
     <g id="line2d_38">
      <g>
       <use style="stroke:#000000;stroke-width:0.5;" x="72.0" xlink:href="#md7965d1ba0" y="172.8"/>
      </g>
     </g>
     <g id="line2d_39">
      <g>
       <use style="stroke:#000000;stroke-width:0.5;" x="518.4" xlink:href="#md9a1c1a7cd" y="172.8"/>
      </g>
     </g>
     <g id="text_12">
      <!-- 10 -->
      <g transform="translate(54.845 176.11125)scale(0.12 -0.12)">
       <use xlink:href="#DejaVuSans-31"/>
       <use x="63.623046875" xlink:href="#DejaVuSans-30"/>
      </g>
     </g>
    </g>
    <g id="ytick_7">
     <g id="line2d_40">
      <path clip-path="url(#p7ff5b81e1d)" d="
M72 129.6
L518.4 129.6" style="fill:none;stroke:#000000;stroke-dasharray:3.000000,5.000000,1.000000,5.000000;stroke-dashoffset:0.0;stroke-width:0.5;"/>
     </g>
     <g id="line2d_41">
      <g>
       <use style="stroke:#000000;stroke-width:0.5;" x="72.0" xlink:href="#md7965d1ba0" y="129.6"/>
      </g>
     </g>
     <g id="line2d_42">
      <g>
       <use style="stroke:#000000;stroke-width:0.5;" x="518.4" xlink:href="#md9a1c1a7cd" y="129.6"/>
      </g>
     </g>
     <g id="text_13">
      <!-- 20 -->
      <g transform="translate(54.40625 132.91125)scale(0.12 -0.12)">
       <use xlink:href="#DejaVuSans-32"/>
       <use x="63.623046875" xlink:href="#DejaVuSans-30"/>
      </g>
     </g>
    </g>
    <g id="ytick_8">
     <g id="line2d_43">
      <path clip-path="url(#p7ff5b81e1d)" d="
M72 86.4
L518.4 86.4" style="fill:none;stroke:#000000;stroke-dasharray:3.000000,5.000000,1.000000,5.000000;stroke-dashoffset:0.0;stroke-width:0.5;"/>
     </g>
     <g id="line2d_44">
      <g>
       <use style="stroke:#000000;stroke-width:0.5;" x="72.0" xlink:href="#md7965d1ba0" y="86.4"/>
      </g>
     </g>
     <g id="line2d_45">
      <g>
       <use style="stroke:#000000;stroke-width:0.5;" x="518.4" xlink:href="#md9a1c1a7cd" y="86.4"/>
      </g>
     </g>
     <g id="text_14">
      <!-- 30 -->
      <g transform="translate(54.441875 89.71125)scale(0.12 -0.12)">
       <use xlink:href="#DejaVuSans-33"/>
       <use x="63.623046875" xlink:href="#DejaVuSans-30"/>
      </g>
     </g>
    </g>
    <g id="ytick_9">
     <g id="line2d_46">
      <path clip-path="url(#p7ff5b81e1d)" d="
M72 43.2
L518.4 43.2" style="fill:none;stroke:#000000;stroke-dasharray:3.000000,5.000000,1.000000,5.000000;stroke-dashoffset:0.0;stroke-width:0.5;"/>
     </g>
     <g id="line2d_47">
      <g>
       <use style="stroke:#000000;stroke-width:0.5;" x="72.0" xlink:href="#md7965d1ba0" y="43.2"/>
      </g>
     </g>
     <g id="line2d_48">
      <g>
       <use style="stroke:#000000;stroke-width:0.5;" x="518.4" xlink:href="#md9a1c1a7cd" y="43.2"/>
      </g>
     </g>
     <g id="text_15">
      <!-- 40 -->
      <g transform="translate(54.11375 46.51125)scale(0.12 -0.12)">
       <use xlink:href="#DejaVuSans-34"/>
       <use x="63.623046875" xlink:href="#DejaVuSans-30"/>
      </g>
     </g>
    </g>
    <g id="text_16">
     <!-- current_flow -->
     <defs>
      <path d="
M41.1094 46.2969
Q39.5938 47.1719 37.8125 47.5781
Q36.0312 48 33.8906 48
Q26.2656 48 22.1875 43.0469
Q18.1094 38.0938 18.1094 28.8125
L18.1094 0
L9.07812 0
L9.07812 54.6875
L18.1094 54.6875
L18.1094 46.1875
Q20.9531 51.1719 25.4844 53.5781
Q30.0312 56 36.5312 56
Q37.4531 56 38.5781 55.875
Q39.7031 55.7656 41.0625 55.5156
z
" id="DejaVuSans-72"/>
      <path d="
M50.9844 -16.6094
L50.9844 -23.5781
L-0.984375 -23.5781
L-0.984375 -16.6094
z
" id="DejaVuSans-5f"/>
      <path d="
M54.8906 33.0156
L54.8906 0
L45.9062 0
L45.9062 32.7188
Q45.9062 40.4844 42.875 44.3281
Q39.8438 48.1875 33.7969 48.1875
Q26.5156 48.1875 22.3125 43.5469
Q18.1094 38.9219 18.1094 30.9062
L18.1094 0
L9.07812 0
L9.07812 54.6875
L18.1094 54.6875
L18.1094 46.1875
Q21.3438 51.125 25.7031 53.5625
Q30.0781 56 35.7969 56
Q45.2188 56 50.0469 50.1719
Q54.8906 44.3438 54.8906 33.0156" id="DejaVuSans-6e"/>
      <path d="
M18.3125 70.2188
L18.3125 54.6875
L36.8125 54.6875
L36.8125 47.7031
L18.3125 47.7031
L18.3125 18.0156
Q18.3125 11.3281 20.1406 9.42188
Q21.9688 7.51562 27.5938 7.51562
L36.8125 7.51562
L36.8125 0
L27.5938 0
Q17.1875 0 13.2344 3.875
Q9.28125 7.76562 9.28125 18.0156
L9.28125 47.7031
L2.6875 47.7031
L2.6875 54.6875
L9.28125 54.6875
L9.28125 70.2188
z
" id="DejaVuSans-74"/>
      <path d="
M9.42188 75.9844
L18.4062 75.9844
L18.4062 0
L9.42188 0
z
" id="DejaVuSans-6c"/>
      <path d="
M8.5 21.5781
L8.5 54.6875
L17.4844 54.6875
L17.4844 21.9219
Q17.4844 14.1562 20.5 10.2656
Q23.5312 6.39062 29.5938 6.39062
Q36.8594 6.39062 41.0781 11.0312
Q45.3125 15.6719 45.3125 23.6875
L45.3125 54.6875
L54.2969 54.6875
L54.2969 0
L45.3125 0
L45.3125 8.40625
Q42.0469 3.42188 37.7188 1
Q33.4062 -1.42188 27.6875 -1.42188
Q18.2656 -1.42188 13.375 4.4375
Q8.5 10.2969 8.5 21.5781
M31.1094 56
z
" id="DejaVuSans-75"/>
      <path d="
M48.7812 52.5938
L48.7812 44.1875
Q44.9688 46.2969 41.1406 47.3438
Q37.3125 48.3906 33.4062 48.3906
Q24.6562 48.3906 19.8125 42.8438
Q14.9844 37.3125 14.9844 27.2969
Q14.9844 17.2812 19.8125 11.7344
Q24.6562 6.20312 33.4062 6.20312
Q37.3125 6.20312 41.1406 7.25
Q44.9688 8.29688 48.7812 10.4062
L48.7812 2.09375
Q45.0156 0.34375 40.9844 -0.53125
Q36.9688 -1.42188 32.4219 -1.42188
Q20.0625 -1.42188 12.7812 6.34375
Q5.51562 14.1094 5.51562 27.2969
Q5.51562 40.6719 12.8594 48.3281
Q20.2188 56 33.0156 56
Q37.1562 56 41.1094 55.1406
Q45.0625 54.2969 48.7812 52.5938" id="DejaVuSans-63"/>
      <path d="
M30.6094 48.3906
Q23.3906 48.3906 19.1875 42.75
Q14.9844 37.1094 14.9844 27.2969
Q14.9844 17.4844 19.1562 11.8438
Q23.3438 6.20312 30.6094 6.20312
Q37.7969 6.20312 41.9844 11.8594
Q46.1875 17.5312 46.1875 27.2969
Q46.1875 37.0156 41.9844 42.7031
Q37.7969 48.3906 30.6094 48.3906
M30.6094 56
Q42.3281 56 49.0156 48.375
Q55.7188 40.7656 55.7188 27.2969
Q55.7188 13.875 49.0156 6.21875
Q42.3281 -1.42188 30.6094 -1.42188
Q18.8438 -1.42188 12.1719 6.21875
Q5.51562 13.875 5.51562 27.2969
Q5.51562 40.7656 12.1719 48.375
Q18.8438 56 30.6094 56" id="DejaVuSans-6f"/>
      <path d="
M37.1094 75.9844
L37.1094 68.5
L28.5156 68.5
Q23.6875 68.5 21.7969 66.5469
Q19.9219 64.5938 19.9219 59.5156
L19.9219 54.6875
L34.7188 54.6875
L34.7188 47.7031
L19.9219 47.7031
L19.9219 0
L10.8906 0
L10.8906 47.7031
L2.29688 47.7031
L2.29688 54.6875
L10.8906 54.6875
L10.8906 58.5
Q10.8906 67.625 15.1406 71.7969
Q19.3906 75.9844 28.6094 75.9844
z
" id="DejaVuSans-66"/>
      <path d="
M4.20312 54.6875
L13.1875 54.6875
L24.4219 12.0156
L35.5938 54.6875
L46.1875 54.6875
L57.4219 12.0156
L68.6094 54.6875
L77.5938 54.6875
L63.2812 0
L52.6875 0
L40.9219 44.8281
L29.1094 0
L18.5 0
z
" id="DejaVuSans-77"/>
     </defs>
     <g transform="translate(36.4415625 258.485625)rotate(-90.0)scale(0.14 -0.14)">
      <use xlink:href="#DejaVuSans-63"/>
      <use x="54.98046875" xlink:href="#DejaVuSans-75"/>
      <use x="118.359375" xlink:href="#DejaVuSans-72"/>
      <use x="157.72265625" xlink:href="#DejaVuSans-72"/>
      <use x="196.5859375" xlink:href="#DejaVuSans-65"/>
      <use x="258.109375" xlink:href="#DejaVuSans-6e"/>
      <use x="321.48828125" xlink:href="#DejaVuSans-74"/>
      <use x="360.697265625" xlink:href="#DejaVuSans-5f"/>
      <use x="410.697265625" xlink:href="#DejaVuSans-66"/>
      <use x="445.90234375" xlink:href="#DejaVuSans-6c"/>
      <use x="473.685546875" xlink:href="#DejaVuSans-6f"/>
      <use x="534.8671875" xlink:href="#DejaVuSans-77"/>
     </g>
    </g>
   </g>
   <g id="text_17">
    <!-- current_flow -->
    <g transform="translate(252.714375 38.2)scale(0.14 -0.14)">
     <use xlink:href="#DejaVuSans-63"/>
     <use x="54.98046875" xlink:href="#DejaVuSans-75"/>
     <use x="118.359375" xlink:href="#DejaVuSans-72"/>
     <use x="157.72265625" xlink:href="#DejaVuSans-72"/>
     <use x="196.5859375" xlink:href="#DejaVuSans-65"/>
     <use x="258.109375" xlink:href="#DejaVuSans-6e"/>
     <use x="321.48828125" xlink:href="#DejaVuSans-74"/>
     <use x="360.697265625" xlink:href="#DejaVuSans-5f"/>
     <use x="410.697265625" xlink:href="#DejaVuSans-66"/>
     <use x="445.90234375" xlink:href="#DejaVuSans-6c"/>
     <use x="473.685546875" xlink:href="#DejaVuSans-6f"/>
     <use x="534.8671875" xlink:href="#DejaVuSans-77"/>
    </g>
   </g>
   <g id="legend_1">
    <g id="patch_7">
     <path d="
M431.809 282.771
L511.2 282.771
L511.2 149.229
L431.809 149.229
z
" style="fill:#ffffff;stroke:#000000;stroke-linejoin:miter;"/>
    </g>
    <g id="line2d_49">
     <path d="
M441.889 160.891
L462.049 160.891" style="fill:none;stroke:#bf00bf;stroke-linecap:square;"/>
    </g>
    <g id="line2d_50"/>
    <g id="text_18">
     <!-- I_12 -->
     <defs>
      <path d="
M9.8125 72.9062
L19.6719 72.9062
L19.6719 0
L9.8125 0
z
" id="DejaVuSans-49"/>
     </defs>
     <g transform="translate(477.88875 165.93075)scale(0.144 -0.144)">
      <use xlink:href="#DejaVuSans-49"/>
      <use x="29.4921875" xlink:href="#DejaVuSans-5f"/>
      <use x="79.4921875" xlink:href="#DejaVuSans-31"/>
      <use x="143.115234375" xlink:href="#DejaVuSans-32"/>
     </g>
    </g>
    <g id="line2d_51">
     <path d="
M441.889 182.428
L462.049 182.428" style="fill:none;stroke:#00bfbf;stroke-linecap:square;"/>
    </g>
    <g id="line2d_52"/>
    <g id="text_19">
     <!-- I_21 -->
     <g transform="translate(477.88875 187.46775)scale(0.144 -0.144)">
      <use xlink:href="#DejaVuSans-49"/>
      <use x="29.4921875" xlink:href="#DejaVuSans-5f"/>
      <use x="79.4921875" xlink:href="#DejaVuSans-32"/>
      <use x="143.115234375" xlink:href="#DejaVuSans-31"/>
     </g>
    </g>
    <g id="line2d_53">
     <path d="
M441.889 203.965
L462.049 203.965" style="fill:none;stroke:#ff0000;stroke-linecap:square;"/>
    </g>
    <g id="line2d_54"/>
    <g id="text_20">
     <!-- I_23 -->
     <g transform="translate(477.88875 209.00475)scale(0.144 -0.144)">
      <use xlink:href="#DejaVuSans-49"/>
      <use x="29.4921875" xlink:href="#DejaVuSans-5f"/>
      <use x="79.4921875" xlink:href="#DejaVuSans-32"/>
      <use x="143.115234375" xlink:href="#DejaVuSans-33"/>
     </g>
    </g>
    <g id="line2d_55">
     <path d="
M441.889 225.502
L462.049 225.502" style="fill:none;stroke:#008000;stroke-linecap:square;"/>
    </g>
    <g id="line2d_56"/>
    <g id="text_21">
     <!-- I_34 -->
     <g transform="translate(477.88875 230.54175)scale(0.144 -0.144)">
      <use xlink:href="#DejaVuSans-49"/>
      <use x="29.4921875" xlink:href="#DejaVuSans-5f"/>
      <use x="79.4921875" xlink:href="#DejaVuSans-33"/>
      <use x="143.115234375" xlink:href="#DejaVuSans-34"/>
     </g>
    </g>
    <g id="line2d_57">
     <path d="
M441.889 247.039
L462.049 247.039" style="fill:none;stroke:#0000ff;stroke-linecap:square;"/>
    </g>
    <g id="line2d_58"/>
    <g id="text_22">
     <!-- I_32 -->
     <g transform="translate(477.88875 252.07875)scale(0.144 -0.144)">
      <use xlink:href="#DejaVuSans-49"/>
      <use x="29.4921875" xlink:href="#DejaVuSans-5f"/>
      <use x="79.4921875" xlink:href="#DejaVuSans-33"/>
      <use x="143.115234375" xlink:href="#DejaVuSans-32"/>
     </g>
    </g>
    <g id="line2d_59">
     <path d="
M441.889 268.576
L462.049 268.576" style="fill:none;stroke:#000000;stroke-linecap:square;"/>
    </g>
    <g id="line2d_60"/>
    <g id="text_23">
     <!-- I_43 -->
     <g transform="translate(477.88875 273.61575)scale(0.144 -0.144)">
      <use xlink:href="#DejaVuSans-49"/>
      <use x="29.4921875" xlink:href="#DejaVuSans-5f"/>
      <use x="79.4921875" xlink:href="#DejaVuSans-34"/>
      <use x="143.115234375" xlink:href="#DejaVuSans-33"/>
     </g>
    </g>
   </g>
  </g>
 </g>
 <defs>
  <clipPath id="p7ff5b81e1d">
   <rect height="345.6" width="446.4" x="72.0" y="43.2"/>
  </clipPath>
 </defs>
</svg>
