<?xml version="1.0" encoding="utf-8" standalone="no"?>
<!DOCTYPE svg PUBLIC "-//W3C//DTD SVG 1.1//EN"
  "http://www.w3.org/Graphics/SVG/1.1/DTD/svg11.dtd">
<!-- Created with matplotlib (http://matplotlib.org/) -->
<svg height="432pt" version="1.1" viewBox="0 0 576 432" width="576pt" xmlns="http://www.w3.org/2000/svg" xmlns:xlink="http://www.w3.org/1999/xlink">
 <defs>
  <style type="text/css">
*{stroke-linecap:butt;stroke-linejoin:round;}
  </style>
 </defs>
 <g id="figure_1">
  <g id="patch_1">
   <path d="
M0 432
L576 432
L576 0
L0 0
z
" style="fill:#ffffff;"/>
  </g>
  <g id="axes_1">
   <g id="patch_2">
    <path d="
M72 388.8
L518.4 388.8
L518.4 43.2
L72 43.2
z
" style="fill:#ffffff;"/>
   </g>
   <g id="line2d_1">
    <path clip-path="url(#p7ff5b81e1d)" d="
M72 81.6
L72.028 98.9644
L73.1705 101.84
L73.5375 108.034
L74.3475 111.308
L74.8323 121.615
L75.4397 135.926
L76.5952 160.736
L77.2473 164.158
L77.9271 174.156
L78.648 186.794
L78.912 192.79
L79.2735 198.562
L80.4205 216.958
L81.3465 223.978
L82.0689 226.204
L83.2934 242.004
L84.9168 257.046
L85.5146 258.286
L86.1134 261.735
L86.7815 264.797
L87.5379 265.736
L87.8221 266.635
L87.9717 267.495
L88.3891 269.103
L88.6532 270.564
L88.8471 293.159
L89.0016 275.409
L89.165 277.195
L89.3068 273.55
L89.7733 272.016
L90.0708 271.928
L90.6173 271.774
L90.8391 271.098
L91.1027 269.655
L91.4298 267.353
L92.6231 265.887
L92.8248 264.229
L93.2408 262.4
L93.7773 258.34
L94.8751 256.171
L95.1125 253.956
L95.3239 249.524
L95.8829 243.352
L96.495 235.759
L96.6294 234.716
L97.5047 233.819
L98.0636 231.373
L98.7487 230.943
L98.9269 230.542
L99.1311 233.261
L99.2752 239.07
L99.3659 233.796
L99.9923 224.86
L100.283 219.185
L100.8 211.266
L101.21 208.857
L101.348 206.605
L101.921 202.992
L102.272 199.885
L102.653 197.789
L103.341 197.251
L104.388 194.81
L105.177 193.872
L105.696 193.478
L106.502 193.265
L107.142 192.926
L113.606 192.051
L114.803 192.006
L116.038 191.937
L116.237 191.646
L116.561 189.54
L117.059 183.679
L117.363 178.446
L117.81 175.538
L118.105 169.292
L118.801 166.008
L119.185 159.237
L119.329 149.453
L119.477 147.596
L119.9 138.48
L120.236 133.87
L121.294 131.846
L122.524 120.321
L123.186 116.644
L123.886 113.258
L124.357 112.189
L125.001 111.705
L125.129 111.251
L125.721 110.826
L126.042 110.055
L126.622 108.78
L127.178 108.017
L128.58 107.583
L129.385 106.866
L130.298 106.569
L130.59 106.308
L131.706 106.078
L132.242 105.696
L132.736 105.467
L133.102 105.336
L134.859 105.244
L135.747 105.542
L136.348 105.456
L137.118 104.985
L138.275 103.579
L138.896 103.361
L139.205 102.904
L139.816 101.919
L140.288 101.132
L140.901 100.863
L141.255 100.315
L141.772 99.1927
L142.083 98.622
L142.471 97.7586
L142.739 97.1805
L143.378 96.8911
L144.7 94.5856
L145.458 94.3002
L145.759 93.7322
L147.321 90.9653
L148.636 90.4291
L149.165 89.6369
L149.473 89.117
L150.072 88.0978
L150.184 87.8474
L150.45 87.5987
L151.132 87.3518
L151.67 86.6216
L152.299 86.3819
L152.732 85.9076
L153.728 85.6732
L154.236 84.9806
L154.856 84.0821
L155.525 83.8618
L156.296 82.9985
L156.911 82.787
L157.822 81.7553
L158.532 80.9601
L159.401 80.381
L160.132 80.1912
L160.962 79.2659
L161.465 78.7293
L164.017 78.035
L164.9 77.2001
L165.439 76.7161
L166.186 76.4003
L166.513 76.09
L167.283 75.9368
L168.479 74.9011
L169.447 74.6167
L171.051 73.266
L172.284 73.0097
L172.597 72.7579
L173.554 72.5103
L175.638 71.0026
L178.005 69.5591
L184.316 66.6345
L189.349 64.8022
L195.768 63.1248
L196.953 62.9636
L199.158 62.4763
L203.108 61.9783
L207.658 61.6804
L208.96 61.4866
L211.358 61.3043
L214.319 60.9711
L216.888 60.7772
L217.385 60.7159
L217.559 62.9998
L217.73 62.523
L218.934 65.347
L220.289 69.1896
L221.364 74.0228
L222.005 77.5689
L222.732 78.4553
L223.389 81.5101
L223.88 82.916
L224.044 83.1577
L224.231 84.7158
L224.4 84.3608
L227.043 83.9535
L228.097 83.6773
L229.508 83.5095
L231.916 82.8588
L233.315 82.6458
L236.273 82.1202
L245.406 81.9487
L252.21 81.9653
L272.148 81.8071
L289.056 81.7329
L289.254 81.8466
L289.808 81.7891
L294.995 81.6967
L311.185 81.6734
L383.477 81.6108
L512.82 81.6004
L512.82 81.6004" style="fill:none;stroke:#bf00bf;stroke-linecap:square;"/>
   </g>
   <g id="line2d_2">
    <path clip-path="url(#p7ff5b81e1d)" d="
M72 81.6
L72 80.6948
L72 80.6948
L72 80.6948
L72 107.327
L72.8916 110.937
L73.3485 114.675
L73.5446 118.518
L74.3058 122.447
L74.6533 130.489
L75.9104 163.177
L76.4511 175.035
L76.5745 178.896
L77.2961 182.707
L78.759 211.124
L79.0311 217.609
L79.6801 229.803
L80.182 238.265
L80.3594 240.956
L80.9326 243.583
L81.2584 248.643
L82.0597 251.078
L82.5124 258.004
L83.6409 272.034
L83.8962 273.803
L84.573 281.818
L84.8756 284.65
L85.6492 285.989
L85.8413 288.518
L86.6384 293.003
L87.6124 294.01
L88.6815 299.162
L88.8296 274.161
L88.972 293.562
L89.1351 292.07
L89.2843 296.73
L90.0454 302.18
L90.2653 302.396
L90.6446 302.348
L90.8615 301.453
L91.1296 299.491
L91.4505 296.526
L92.5651 294.714
L92.8092 292.718
L92.9471 290.57
L93.4141 288.308
L93.7087 285.97
L94.936 283.594
L96.1369 267.353
L96.5113 263.837
L96.6632 262.992
L97.4865 262.284
L98.0782 260.375
L98.7854 260.004
L98.9837 259.627
L99.2558 248.926
L99.4221 251.52
L100.153 246.687
L100.734 238.73
L101.272 236.691
L101.572 233.306
L101.885 232.003
L102.67 225.724
L103.333 225.019
L104.505 221.345
L105.315 220.124
L105.825 219.61
L106.542 219.465
L106.835 219.208
L107.149 218.988
L110.145 218.375
L111.299 218.221
L112.356 217.964
L114.053 217.737
L115.946 217.687
L116.084 217.506
L116.369 215.56
L116.697 212.268
L117.351 202.195
L117.501 199.094
L117.996 195.812
L118.145 192.373
L118.79 188.803
L119.172 181.358
L119.311 184.161
L119.459 178.782
L119.765 173.025
L120.205 164.71
L120.942 162.184
L121.461 159.788
L122.217 149.603
L122.812 143.349
L123.916 135.491
L124.248 133.808
L125.094 133.042
L125.187 132.323
L125.8 131.648
L126.098 130.418
L126.925 127.945
L127.253 127.154
L128.675 126.457
L129.457 125.301
L130.176 125.055
L130.462 124.823
L130.644 124.402
L131.533 124.21
L132.06 123.703
L132.968 122.934
L133.158 122.831
L134.143 122.645
L134.355 122.572
L135.078 122.697
L135.925 122.802
L136.414 122.663
L137.197 122.09
L137.457 121.746
L137.81 121.341
L138.342 120.373
L138.967 120.102
L139.287 119.528
L139.681 118.599
L140.06 117.942
L140.346 117.259
L140.963 116.909
L141.326 116.194
L141.707 115.091
L142.798 112.039
L143.453 111.651
L143.942 110.485
L144.761 108.544
L145.532 108.157
L145.819 107.387
L146.836 105.106
L147.109 104.359
L147.397 103.618
L148.722 102.885
L149.243 101.801
L149.542 101.088
L150.571 99.0046
L151.225 98.6653
L151.75 97.6616
L152.37 97.3318
L152.672 97.0043
L152.813 96.6792
L153.798 96.3565
L154.18 95.7183
L154.573 94.7789
L154.916 94.1645
L155.59 93.8609
L156.356 92.6701
L156.972 92.3783
L157.227 92.0888
L157.32 91.8017
L158.053 90.676
L158.296 90.1269
L159.473 89.0555
L160.209 88.7932
L160.744 88.0193
L161.03 87.5141
L161.521 86.7722
L163.981 86.0488
L165.51 83.9867
L166.107 83.7672
L166.591 83.1201
L167.351 82.9081
L168.559 81.474
L169.348 81.2762
L171.13 79.2092
L172.186 79.031
L172.722 78.5053
L173.474 78.333
L174.571 77.1686
L175.167 76.5343
L175.605 76.2254
L175.883 75.9217
L177.426 74.619
L179.057 73.2863
L179.657 73.0334
L181.735 71.4926
L182.653 71.1611
L183.742 70.4204
L185.748 69.2509
L187.084 68.5363
L187.376 68.3653
L188.19 68.032
L189.299 67.5533
L192.971 65.9965
L193.167 65.9326
L194.203 65.7441
L195.836 65.1499
L196.882 64.9814
L198.526 64.4505
L199.758 64.1053
L201.088 63.9173
L202.146 63.7356
L203.187 63.5601
L207.42 63.2269
L209.036 62.8786
L211.274 62.661
L213.038 62.3879
L215.094 62.1331
L216.446 61.9826
L217.457 61.8104
L217.623 59.4969
L217.793 60.2892
L217.984 60.1399
L218.649 61.32
L220.36 65.9462
L220.622 66.4244
L221.596 71.5304
L222.065 74.764
L222.796 75.8604
L224.118 83.0292
L224.315 81.933
L224.617 82.9932
L225.086 83.76
L225.758 84.1861
L227.965 84.3825
L228.155 84.3448
L229.609 84.1997
L231.985 83.4866
L233.131 83.2908
L233.914 83.0488
L235.106 82.8862
L236.332 82.5436
L239.319 82.3132
L242.516 82.2017
L247.32 82.2268
L255.362 82.1545
L266.195 81.9977
L289.028 81.8223
L289.222 81.9842
L289.388 81.8475
L289.769 81.8738
L452.378 81.603
L512.955 81.6007
L512.955 81.6007" style="fill:none;stroke:#00bfbf;stroke-linecap:square;"/>
   </g>
   <g id="line2d_3">
    <path clip-path="url(#p7ff5b81e1d)" d="
M72 81.6
L72 209.724
L72.8208 218.559
L73.3666 226.795
L73.468 234.455
L74.3125 241.57
L74.7332 260.009
L75.6972 287.041
L76.2514 297.244
L76.561 303.213
L77.2184 305.993
L78.5649 322.557
L79.1227 330.301
L79.484 333.805
L79.9633 338.65
L80.105 340.162
L80.713 343.039
L81.3083 345.727
L81.9592 347.002
L83.2039 355.65
L84.6397 362.352
L84.8277 362.915
L85.4565 363.444
L86.1942 365.228
L86.3812 365.593
L86.7543 365.928
L87.5095 366.232
L88.6243 367.451
L88.7683 367.559
L88.9099 372.351
L89.0608 372.47
L89.2243 373.472
L89.3792 373.41
L89.5977 373.001
L90.4038 362.907
L91.4026 319.465
L92.5947 312.592
L92.728 306.021
L93.2144 299.89
L93.7512 289.398
L94.846 285.207
L95.1401 279.165
L95.4812 276.245
L95.6331 275.861
L95.7939 276.103
L95.9953 276.879
L96.5897 284.907
L97.4155 286.546
L97.8613 289.785
L98.0355 290.094
L98.7152 289.958
L98.8823 289.368
L99.1907 286.88
L99.4829 281.113
L100.648 259.027
L101.183 257.619
L101.321 256.907
L101.684 256.904
L101.82 257.33
L102.101 259.695
L102.488 262.364
L102.615 262.92
L103.269 263.359
L104.172 264.499
L104.6 264.582
L105.515 264.479
L105.599 264.442
L106.733 264.28
L109.262 263.979
L111.707 263.761
L113.824 263.547
L116.294 263.465
L116.618 263.147
L117.027 262.371
L117.279 261.081
L117.782 260.245
L118.068 258.216
L118.714 257.038
L118.948 255.763
L119.388 251.454
L119.875 248.262
L120.174 245.744
L120.894 244.479
L121.38 243.232
L121.596 242.014
L121.834 239.695
L122.287 236.563
L122.501 235.616
L122.746 233.868
L123.994 228.577
L124.179 228.077
L124.987 227.606
L125.108 227.163
L125.694 226.747
L126.29 225.317
L126.59 224.725
L126.72 224.456
L127.108 223.964
L128.545 223.531
L129.057 222.974
L129.353 222.81
L130.272 222.512
L130.56 222.249
L131.658 222.017
L132.477 221.472
L133.687 221.207
L134.163 221.098
L134.244 222.525
L134.608 224.317
L134.929 225.035
L135.252 225.018
L135.505 224.496
L136.31 221.859
L138.221 211.375
L138.87 210.481
L140.194 202.283
L140.872 201.367
L142.705 189.637
L143.352 188.758
L144.473 182.733
L144.673 181.892
L145.436 181.056
L145.83 178.58
L146.726 174.563
L147.094 172.22
L147.25 171.45
L148.607 169.928
L150.141 162.656
L150.402 161.96
L151.106 161.269
L151.638 159.231
L152.268 158.563
L152.426 157.9
L152.698 157.242
L153.701 156.59
L153.914 155.944
L154.156 154.666
L154.774 152.175
L155.503 151.565
L155.996 149.767
L156.192 149.177
L156.886 148.593
L157.211 147.438
L157.529 146.304
L158.667 143.015
L159.178 142.483
L159.317 141.956
L160.088 141.433
L160.431 140.401
L160.729 139.387
L161.438 137.411
L162.196 136.927
L163.162 136.448
L163.797 135.973
L164.298 134.572
L165.139 132.317
L165.328 131.878
L165.912 131.443
L166.421 130.159
L167.185 129.738
L168.388 126.896
L169.157 126.503
L169.845 124.969
L170.779 122.765
L170.963 122.409
L171.972 122.056
L172.503 121.015
L173.253 120.674
L173.364 120.336
L173.801 119.669
L176.193 115.02
L176.758 114.161
L178.914 110.688
L179.498 110.188
L181.6 107.141
L182.204 106.702
L182.778 106.058
L184.068 104.42
L186.443 101.814
L190.994 97.7403
L192.983 96.1487
L193.845 95.8992
L195.679 94.6015
L196.556 94.3785
L198.699 93.0199
L199.604 92.5368
L200.556 92.3493
L201.24 91.984
L202.125 91.7182
L202.562 91.5448
L203.916 91.2902
L205.902 91.0422
L206.377 90.8804
L207.41 90.7213
L208.869 90.1121
L210.037 89.8942
L211.092 89.682
L212.877 89.1421
L214.885 88.6385
L215.955 88.4584
L216.952 88.1119
L217.634 87.8908
L217.975 87.3105
L218.381 87.0549
L218.66 87.0312
L219.215 87.3392
L220.59 88.7426
L221.44 89.7903
L221.9 90.6688
L222.592 91.0513
L222.971 91.9659
L224.449 96.952
L224.782 97.2231
L225.14 97.295
L226.169 97.1956
L227.106 96.7781
L227.991 96.239
L229.062 96.0088
L229.879 95.6555
L230.192 95.4172
L230.926 95.1785
L231.677 94.704
L231.836 94.5869
L232.701 94.3551
L233.448 94.0153
L233.783 93.7951
L234.768 93.5804
L236.184 92.6919
L237.536 92.4252
L238.198 92.0916
L239.347 91.8572
L239.547 91.7818
L241.568 91.4936
L244.357 90.4487
L247.895 89.4244
L248.828 89.1852
L250.088 88.9974
L253.7 88.1907
L254.92 88.0206
L259.34 87.3785
L262.215 86.9033
L262.804 86.7994
L264.295 86.6312
L265.42 86.4051
L267.173 86.2198
L268.838 85.9558
L271.663 85.8159
L272.576 85.6539
L273.362 85.5238
L274.935 85.3732
L278.027 84.9769
L280.445 84.7841
L286.454 84.3398
L289.12 84.2173
L290.254 84.1456
L296.145 83.6987
L298.928 83.539
L301.491 83.4189
L305.032 83.2644
L308.076 83.1614
L311.276 83.0171
L316.235 82.8598
L332.131 82.397
L340.356 82.2726
L352.242 82.0636
L393.464 81.7653
L449.77 81.6386
L512.877 81.608
L512.877 81.608" style="fill:none;stroke:#ff0000;stroke-linecap:square;"/>
   </g>
   <g id="line2d_4">
    <path clip-path="url(#p7ff5b81e1d)" d="
M72 81.6
L72 70.1933
L72 72.751
L72 72.751
L72.0567 180.612
L72.8832 188.372
L73.4255 195.554
L73.5178 202.193
L74.3878 208.324
L74.9631 228.565
L75.3647 240.254
L76.6252 260.303
L77.4119 262.607
L77.7164 266.915
L78.0983 270.877
L80.1741 290.75
L80.3528 291.954
L80.9195 293.119
L81.3546 295.335
L82.0363 296.387
L82.6933 300.248
L83.4409 304.325
L83.7063 305.045
L84.1202 307.026
L84.8957 309.747
L85.5985 310.208
L86.0624 311.433
L86.6722 312.43
L87.6716 312.713
L87.9394 313.209
L88.5524 313.783
L88.8352 314.057
L89.3 321.097
L89.5914 322.908
L89.7566 322.673
L90.1084 319.775
L90.5794 313.703
L90.8684 304.923
L91.4609 282.682
L92.6637 276.914
L92.9572 266.054
L93.5295 261.19
L93.818 256.827
L94.9211 253.035
L95.2022 247.34
L95.6952 243.59
L95.8384 243.495
L96.0015 243.873
L96.2787 245.721
L96.6691 249.811
L97.4926 251.15
L97.7719 253.292
L98.103 254.314
L98.8021 254.305
L98.9671 253.925
L99.2451 252.077
L99.4143 250.291
L99.9501 241.101
L100.708 227.47
L101.263 226.012
L101.429 225.134
L101.76 228.255
L101.878 231.131
L102.172 230.853
L102.547 230.917
L102.678 230.964
L103.792 231.146
L104.664 231.249
L106.511 231.124
L107.863 230.93
L111.44 230.702
L113.887 230.449
L116.509 230.322
L116.853 230.072
L117.184 229.57
L117.321 229.211
L117.85 228.777
L118.154 227.678
L118.78 227.017
L119.022 226.284
L119.6 223.023
L120.243 219.555
L120.962 218.641
L121.435 217.724
L122.034 214.125
L122.801 210.058
L124.262 204.414
L125.02 203.918
L125.164 203.446
L125.764 202.997
L126.064 202.165
L126.993 200.139
L127.201 199.861
L128.629 199.35
L129.109 198.682
L129.314 198.484
L130.139 198.297
L130.629 197.796
L131.757 197.507
L132.119 197.132
L132.881 196.638
L133.115 196.555
L134.123 196.335
L134.983 192.799
L135.564 190.572
L138.306 179.953
L138.953 179.301
L139.947 174.624
L140.255 173.267
L140.94 172.586
L142.782 163.785
L143.421 163.12
L144.022 160.487
L144.752 157.904
L145.429 157.267
L146.719 152.309
L147.314 149.927
L148.692 148.761
L149.419 145.92
L150.536 142.653
L151.172 142.124
L151.524 141.077
L151.71 140.56
L152.35 140.048
L152.654 139.539
L152.679 139.035
L153.769 138.535
L154.344 136.576
L154.709 135.621
L154.829 135.15
L155.58 134.682
L155.866 133.759
L156.256 132.852
L156.955 132.404
L157.417 131.083
L158.42 128.543
L159.371 127.322
L160.155 126.922
L160.62 125.743
L160.949 124.975
L161.265 124.219
L161.497 123.846
L163.853 122.748
L164.178 122.388
L164.211 122.031
L165.406 119.622
L165.99 119.289
L166.482 118.31
L167.253 117.99
L168.449 115.823
L169.226 115.524
L170.046 114.07
L171.02 112.408
L172.062 112.139
L172.764 111.089
L173.525 110.832
L175.082 108.384
L178.972 103.512
L179.552 103.133
L181.649 100.827
L182.325 100.495
L183.141 99.69
L184.958 98.039
L186.652 96.6702
L188.463 95.416
L189.521 94.7146
L190.39 94.1574
L193.045 92.5296
L193.892 92.3417
L195.242 91.6218
L195.738 91.3645
L196.612 91.1967
L198.918 90.1002
L199.667 89.8108
L200.771 89.6001
L202.368 89.1295
L203.074 89.0002
L206.231 88.6256
L206.421 88.5651
L207.626 88.3865
L208.932 87.9875
L210.661 87.7702
L214.978 86.8803
L216.218 86.7007
L219.267 85.8452
L219.924 86.0313
L221.32 86.7929
L221.965 87.3967
L222.694 87.5965
L223.358 88.6386
L224.67 91.1653
L225.265 91.6572
L225.648 91.8715
L227.852 92.0797
L231.229 91.5084
L231.892 91.2228
L233.023 90.9989
L233.836 90.696
L234.824 90.5452
L236.236 89.8936
L237.581 89.6908
L238.251 89.4338
L239.434 89.2514
L239.618 89.1924
L241.638 88.9664
L244.564 88.1067
L248.664 87.2324
L258.093 85.9562
L260.655 85.7598
L263.826 85.3926
L268.909 84.818
L271.97 84.6738
L274.646 84.4235
L279.849 83.9669
L283.162 83.7883
L286.001 83.6364
L291.645 83.3872
L294.62 83.2541
L299.167 83.0233
L304.101 82.8593
L311.156 82.6525
L322.604 82.3639
L333.459 82.1693
L352.3 81.9421
L401.264 81.6977
L461.142 81.6204
L512.753 81.6059
L512.753 81.6059" style="fill:none;stroke:#008000;stroke-linecap:square;"/>
   </g>
   <g id="patch_3">
    <path d="
M72 388.8
L72 43.2" style="fill:none;stroke:#000000;stroke-linecap:square;stroke-linejoin:miter;"/>
   </g>
   <g id="patch_4">
    <path d="
M518.4 388.8
L518.4 43.2" style="fill:none;stroke:#000000;stroke-linecap:square;stroke-linejoin:miter;"/>
   </g>
   <g id="patch_5">
    <path d="
M72 43.2
L518.4 43.2" style="fill:none;stroke:#000000;stroke-linecap:square;stroke-linejoin:miter;"/>
   </g>
   <g id="patch_6">
    <path d="
M72 388.8
L518.4 388.8" style="fill:none;stroke:#000000;stroke-linecap:square;stroke-linejoin:miter;"/>
   </g>
   <g id="matplotlib.axis_1">
    <g id="xtick_1">
     <g id="line2d_5">
      <path clip-path="url(#p7ff5b81e1d)" d="
M72 388.8
L72 43.2" style="fill:none;stroke:#000000;stroke-dasharray:3.000000,5.000000,1.000000,5.000000;stroke-dashoffset:0.0;stroke-width:0.5;"/>
     </g>
     <g id="line2d_6">
      <defs>
       <path d="
M0 0
L0 -4" id="mc7db9fdffb" style="stroke:#000000;stroke-width:0.5;"/>
      </defs>
      <g>
       <use style="stroke:#000000;stroke-width:0.5;" x="72.0" xlink:href="#mc7db9fdffb" y="388.8"/>
      </g>
     </g>
     <g id="line2d_7">
      <defs>
       <path d="
M0 0
L0 4" id="m5a7d422ac3" style="stroke:#000000;stroke-width:0.5;"/>
      </defs>
      <g>
       <use style="stroke:#000000;stroke-width:0.5;" x="72.0" xlink:href="#m5a7d422ac3" y="43.2"/>
      </g>
     </g>
     <g id="text_1">
      <!-- 0 -->
      <defs>
       <path d="
M31.7812 66.4062
Q24.1719 66.4062 20.3281 58.9062
Q16.5 51.4219 16.5 36.375
Q16.5 21.3906 20.3281 13.8906
Q24.1719 6.39062 31.7812 6.39062
Q39.4531 6.39062 43.2812 13.8906
Q47.125 21.3906 47.125 36.375
Q47.125 51.4219 43.2812 58.9062
Q39.4531 66.4062 31.7812 66.4062
M31.7812 74.2188
Q44.0469 74.2188 50.5156 64.5156
Q56.9844 54.8281 56.9844 36.375
Q56.9844 17.9688 50.5156 8.26562
Q44.0469 -1.42188 31.7812 -1.42188
Q19.5312 -1.42188 13.0625 8.26562
Q6.59375 17.9688 6.59375 36.375
Q6.59375 54.8281 13.0625 64.5156
Q19.5312 74.2188 31.7812 74.2188" id="DejaVuSans-30"/>
      </defs>
      <g transform="translate(68.9765625 401.918125)scale(0.12 -0.12)">
       <use xlink:href="#DejaVuSans-30"/>
      </g>
     </g>
    </g>
    <g id="xtick_2">
     <g id="line2d_8">
      <path clip-path="url(#p7ff5b81e1d)" d="
M183.6 388.8
L183.6 43.2" style="fill:none;stroke:#000000;stroke-dasharray:3.000000,5.000000,1.000000,5.000000;stroke-dashoffset:0.0;stroke-width:0.5;"/>
     </g>
     <g id="line2d_9">
      <g>
       <use style="stroke:#000000;stroke-width:0.5;" x="183.6" xlink:href="#mc7db9fdffb" y="388.8"/>
      </g>
     </g>
     <g id="line2d_10">
      <g>
       <use style="stroke:#000000;stroke-width:0.5;" x="183.6" xlink:href="#m5a7d422ac3" y="43.2"/>
      </g>
     </g>
     <g id="text_2">
      <!-- 50 -->
      <defs>
       <path d="
M10.7969 72.9062
L49.5156 72.9062
L49.5156 64.5938
L19.8281 64.5938
L19.8281 46.7344
Q21.9688 47.4688 24.1094 47.8281
Q26.2656 48.1875 28.4219 48.1875
Q40.625 48.1875 47.75 41.5
Q54.8906 34.8125 54.8906 23.3906
Q54.8906 11.625 47.5625 5.09375
Q40.2344 -1.42188 26.9062 -1.42188
Q22.3125 -1.42188 17.5469 -0.640625
Q12.7969 0.140625 7.71875 1.70312
L7.71875 11.625
Q12.1094 9.23438 16.7969 8.0625
Q21.4844 6.89062 26.7031 6.89062
Q35.1562 6.89062 40.0781 11.3281
Q45.0156 15.7656 45.0156 23.3906
Q45.0156 31 40.0781 35.4375
Q35.1562 39.8906 26.7031 39.8906
Q22.75 39.8906 18.8125 39.0156
Q14.8906 38.1406 10.7969 36.2812
z
" id="DejaVuSans-35"/>
      </defs>
      <g transform="translate(176.8265625 401.918125)scale(0.12 -0.12)">
       <use xlink:href="#DejaVuSans-35"/>
       <use x="63.623046875" xlink:href="#DejaVuSans-30"/>
      </g>
     </g>
    </g>
    <g id="xtick_3">
     <g id="line2d_11">
      <path clip-path="url(#p7ff5b81e1d)" d="
M295.2 388.8
L295.2 43.2" style="fill:none;stroke:#000000;stroke-dasharray:3.000000,5.000000,1.000000,5.000000;stroke-dashoffset:0.0;stroke-width:0.5;"/>
     </g>
     <g id="line2d_12">
      <g>
       <use style="stroke:#000000;stroke-width:0.5;" x="295.2" xlink:href="#mc7db9fdffb" y="388.8"/>
      </g>
     </g>
     <g id="line2d_13">
      <g>
       <use style="stroke:#000000;stroke-width:0.5;" x="295.2" xlink:href="#m5a7d422ac3" y="43.2"/>
      </g>
     </g>
     <g id="text_3">
      <!-- 100 -->
      <defs>
       <path d="
M12.4062 8.29688
L28.5156 8.29688
L28.5156 63.9219
L10.9844 60.4062
L10.9844 69.3906
L28.4219 72.9062
L38.2812 72.9062
L38.2812 8.29688
L54.3906 8.29688
L54.3906 0
L12.4062 0
z
" id="DejaVuSans-31"/>
      </defs>
      <g transform="translate(284.805 401.918125)scale(0.12 -0.12)">
       <use xlink:href="#DejaVuSans-31"/>
       <use x="63.623046875" xlink:href="#DejaVuSans-30"/>
       <use x="127.24609375" xlink:href="#DejaVuSans-30"/>
      </g>
     </g>
    </g>
    <g id="xtick_4">
     <g id="line2d_14">
      <path clip-path="url(#p7ff5b81e1d)" d="
M406.8 388.8
L406.8 43.2" style="fill:none;stroke:#000000;stroke-dasharray:3.000000,5.000000,1.000000,5.000000;stroke-dashoffset:0.0;stroke-width:0.5;"/>
     </g>
     <g id="line2d_15">
      <g>
       <use style="stroke:#000000;stroke-width:0.5;" x="406.8" xlink:href="#mc7db9fdffb" y="388.8"/>
      </g>
     </g>
     <g id="line2d_16">
      <g>
       <use style="stroke:#000000;stroke-width:0.5;" x="406.8" xlink:href="#m5a7d422ac3" y="43.2"/>
      </g>
     </g>
     <g id="text_4">
      <!-- 150 -->
      <g transform="translate(396.405 401.918125)scale(0.12 -0.12)">
       <use xlink:href="#DejaVuSans-31"/>
       <use x="63.623046875" xlink:href="#DejaVuSans-35"/>
       <use x="127.24609375" xlink:href="#DejaVuSans-30"/>
      </g>
     </g>
    </g>
    <g id="xtick_5">
     <g id="line2d_17">
      <path clip-path="url(#p7ff5b81e1d)" d="
M518.4 388.8
L518.4 43.2" style="fill:none;stroke:#000000;stroke-dasharray:3.000000,5.000000,1.000000,5.000000;stroke-dashoffset:0.0;stroke-width:0.5;"/>
     </g>
     <g id="line2d_18">
      <g>
       <use style="stroke:#000000;stroke-width:0.5;" x="518.4" xlink:href="#mc7db9fdffb" y="388.8"/>
      </g>
     </g>
     <g id="line2d_19">
      <g>
       <use style="stroke:#000000;stroke-width:0.5;" x="518.4" xlink:href="#m5a7d422ac3" y="43.2"/>
      </g>
     </g>
     <g id="text_5">
      <!-- 200 -->
      <defs>
       <path d="
M19.1875 8.29688
L53.6094 8.29688
L53.6094 0
L7.32812 0
L7.32812 8.29688
Q12.9375 14.1094 22.625 23.8906
Q32.3281 33.6875 34.8125 36.5312
Q39.5469 41.8438 41.4219 45.5312
Q43.3125 49.2188 43.3125 52.7812
Q43.3125 58.5938 39.2344 62.25
Q35.1562 65.9219 28.6094 65.9219
Q23.9688 65.9219 18.8125 64.3125
Q13.6719 62.7031 7.8125 59.4219
L7.8125 69.3906
Q13.7656 71.7812 18.9375 73
Q24.125 74.2188 28.4219 74.2188
Q39.75 74.2188 46.4844 68.5469
Q53.2188 62.8906 53.2188 53.4219
Q53.2188 48.9219 51.5312 44.8906
Q49.8594 40.875 45.4062 35.4062
Q44.1875 33.9844 37.6406 27.2188
Q31.1094 20.4531 19.1875 8.29688" id="DejaVuSans-32"/>
      </defs>
      <g transform="translate(507.785625 401.918125)scale(0.12 -0.12)">
       <use xlink:href="#DejaVuSans-32"/>
       <use x="63.623046875" xlink:href="#DejaVuSans-30"/>
       <use x="127.24609375" xlink:href="#DejaVuSans-30"/>
      </g>
     </g>
    </g>
    <g id="text_6">
     <!-- Time -->
     <defs>
      <path d="
M56.2031 29.5938
L56.2031 25.2031
L14.8906 25.2031
Q15.4844 15.9219 20.4844 11.0625
Q25.4844 6.20312 34.4219 6.20312
Q39.5938 6.20312 44.4531 7.46875
Q49.3125 8.73438 54.1094 11.2812
L54.1094 2.78125
Q49.2656 0.734375 44.1875 -0.34375
Q39.1094 -1.42188 33.8906 -1.42188
Q20.7969 -1.42188 13.1562 6.1875
Q5.51562 13.8125 5.51562 26.8125
Q5.51562 40.2344 12.7656 48.1094
Q20.0156 56 32.3281 56
Q43.3594 56 49.7812 48.8906
Q56.2031 41.7969 56.2031 29.5938
M47.2188 32.2344
Q47.125 39.5938 43.0938 43.9844
Q39.0625 48.3906 32.4219 48.3906
Q24.9062 48.3906 20.3906 44.1406
Q15.875 39.8906 15.1875 32.1719
z
" id="DejaVuSans-65"/>
      <path d="
M-0.296875 72.9062
L61.375 72.9062
L61.375 64.5938
L35.5 64.5938
L35.5 0
L25.5938 0
L25.5938 64.5938
L-0.296875 64.5938
z
" id="DejaVuSans-54"/>
      <path d="
M9.42188 54.6875
L18.4062 54.6875
L18.4062 0
L9.42188 0
z

M9.42188 75.9844
L18.4062 75.9844
L18.4062 64.5938
L9.42188 64.5938
z
" id="DejaVuSans-69"/>
      <path d="
M52 44.1875
Q55.375 50.25 60.0625 53.125
Q64.75 56 71.0938 56
Q79.6406 56 84.2812 50.0156
Q88.9219 44.0469 88.9219 33.0156
L88.9219 0
L79.8906 0
L79.8906 32.7188
Q79.8906 40.5781 77.0938 44.375
Q74.3125 48.1875 68.6094 48.1875
Q61.625 48.1875 57.5625 43.5469
Q53.5156 38.9219 53.5156 30.9062
L53.5156 0
L44.4844 0
L44.4844 32.7188
Q44.4844 40.625 41.7031 44.4062
Q38.9219 48.1875 33.1094 48.1875
Q26.2188 48.1875 22.1562 43.5312
Q18.1094 38.875 18.1094 30.9062
L18.1094 0
L9.07812 0
L9.07812 54.6875
L18.1094 54.6875
L18.1094 46.1875
Q21.1875 51.2188 25.4844 53.6094
Q29.7812 56 35.6875 56
Q41.6562 56 45.8281 52.9688
Q50 49.9531 52 44.1875" id="DejaVuSans-6d"/>
     </defs>
     <g transform="translate(278.42515625 420.0515625)scale(0.14 -0.14)">
      <use xlink:href="#DejaVuSans-54"/>
      <use x="57.958984375" xlink:href="#DejaVuSans-69"/>
      <use x="85.7421875" xlink:href="#DejaVuSans-6d"/>
      <use x="183.154296875" xlink:href="#DejaVuSans-65"/>
     </g>
    </g>
   </g>
   <g id="matplotlib.axis_2">
    <g id="ytick_1">
     <g id="line2d_20">
      <path clip-path="url(#p7ff5b81e1d)" d="
M72 388.8
L518.4 388.8" style="fill:none;stroke:#000000;stroke-dasharray:3.000000,5.000000,1.000000,5.000000;stroke-dashoffset:0.0;stroke-width:0.5;"/>
     </g>
     <g id="line2d_21">
      <defs>
       <path d="
M0 0
L4 0" id="md7965d1ba0" style="stroke:#000000;stroke-width:0.5;"/>
      </defs>
      <g>
       <use style="stroke:#000000;stroke-width:0.5;" x="72.0" xlink:href="#md7965d1ba0" y="388.8"/>
      </g>
     </g>
     <g id="line2d_22">
      <defs>
       <path d="
M0 0
L-4 0" id="md9a1c1a7cd" style="stroke:#000000;stroke-width:0.5;"/>
      </defs>
      <g>
       <use style="stroke:#000000;stroke-width:0.5;" x="518.4" xlink:href="#md9a1c1a7cd" y="388.8"/>
      </g>
     </g>
     <g id="text_7">
      <!-- −400 -->
      <defs>
       <path d="
M10.5938 35.5
L73.1875 35.5
L73.1875 27.2031
L10.5938 27.2031
z
" id="DejaVuSans-2212"/>
       <path d="
M37.7969 64.3125
L12.8906 25.3906
L37.7969 25.3906
z

M35.2031 72.9062
L47.6094 72.9062
L47.6094 25.3906
L58.0156 25.3906
L58.0156 17.1875
L47.6094 17.1875
L47.6094 0
L37.7969 0
L37.7969 17.1875
L4.89062 17.1875
L4.89062 26.7031
z
" id="DejaVuSans-34"/>
      </defs>
      <g transform="translate(37.1075 392.11125)scale(0.12 -0.12)">
       <use xlink:href="#DejaVuSans-2212"/>
       <use x="83.7890625" xlink:href="#DejaVuSans-34"/>
       <use x="147.412109375" xlink:href="#DejaVuSans-30"/>
       <use x="211.03515625" xlink:href="#DejaVuSans-30"/>
      </g>
     </g>
    </g>
    <g id="ytick_2">
     <g id="line2d_23">
      <path clip-path="url(#p7ff5b81e1d)" d="
M72 350.4
L518.4 350.4" style="fill:none;stroke:#000000;stroke-dasharray:3.000000,5.000000,1.000000,5.000000;stroke-dashoffset:0.0;stroke-width:0.5;"/>
     </g>
     <g id="line2d_24">
      <g>
       <use style="stroke:#000000;stroke-width:0.5;" x="72.0" xlink:href="#md7965d1ba0" y="350.4"/>
      </g>
     </g>
     <g id="line2d_25">
      <g>
       <use style="stroke:#000000;stroke-width:0.5;" x="518.4" xlink:href="#md9a1c1a7cd" y="350.4"/>
      </g>
     </g>
     <g id="text_8">
      <!-- −350 -->
      <defs>
       <path d="
M40.5781 39.3125
Q47.6562 37.7969 51.625 33
Q55.6094 28.2188 55.6094 21.1875
Q55.6094 10.4062 48.1875 4.48438
Q40.7656 -1.42188 27.0938 -1.42188
Q22.5156 -1.42188 17.6562 -0.515625
Q12.7969 0.390625 7.625 2.20312
L7.625 11.7188
Q11.7188 9.32812 16.5938 8.10938
Q21.4844 6.89062 26.8125 6.89062
Q36.0781 6.89062 40.9375 10.5469
Q45.7969 14.2031 45.7969 21.1875
Q45.7969 27.6406 41.2812 31.2656
Q36.7656 34.9062 28.7188 34.9062
L20.2188 34.9062
L20.2188 43.0156
L29.1094 43.0156
Q36.375 43.0156 40.2344 45.9219
Q44.0938 48.8281 44.0938 54.2969
Q44.0938 59.9062 40.1094 62.9062
Q36.1406 65.9219 28.7188 65.9219
Q24.6562 65.9219 20.0156 65.0312
Q15.375 64.1562 9.8125 62.3125
L9.8125 71.0938
Q15.4375 72.6562 20.3438 73.4375
Q25.25 74.2188 29.5938 74.2188
Q40.8281 74.2188 47.3594 69.1094
Q53.9062 64.0156 53.9062 55.3281
Q53.9062 49.2656 50.4375 45.0938
Q46.9688 40.9219 40.5781 39.3125" id="DejaVuSans-33"/>
      </defs>
      <g transform="translate(37.1075 353.71125)scale(0.12 -0.12)">
       <use xlink:href="#DejaVuSans-2212"/>
       <use x="83.7890625" xlink:href="#DejaVuSans-33"/>
       <use x="147.412109375" xlink:href="#DejaVuSans-35"/>
       <use x="211.03515625" xlink:href="#DejaVuSans-30"/>
      </g>
     </g>
    </g>
    <g id="ytick_3">
     <g id="line2d_26">
      <path clip-path="url(#p7ff5b81e1d)" d="
M72 312
L518.4 312" style="fill:none;stroke:#000000;stroke-dasharray:3.000000,5.000000,1.000000,5.000000;stroke-dashoffset:0.0;stroke-width:0.5;"/>
     </g>
     <g id="line2d_27">
      <g>
       <use style="stroke:#000000;stroke-width:0.5;" x="72.0" xlink:href="#md7965d1ba0" y="312.0"/>
      </g>
     </g>
     <g id="line2d_28">
      <g>
       <use style="stroke:#000000;stroke-width:0.5;" x="518.4" xlink:href="#md9a1c1a7cd" y="312.0"/>
      </g>
     </g>
     <g id="text_9">
      <!-- −300 -->
      <g transform="translate(37.1075 315.31125)scale(0.12 -0.12)">
       <use xlink:href="#DejaVuSans-2212"/>
       <use x="83.7890625" xlink:href="#DejaVuSans-33"/>
       <use x="147.412109375" xlink:href="#DejaVuSans-30"/>
       <use x="211.03515625" xlink:href="#DejaVuSans-30"/>
      </g>
     </g>
    </g>
    <g id="ytick_4">
     <g id="line2d_29">
      <path clip-path="url(#p7ff5b81e1d)" d="
M72 273.6
L518.4 273.6" style="fill:none;stroke:#000000;stroke-dasharray:3.000000,5.000000,1.000000,5.000000;stroke-dashoffset:0.0;stroke-width:0.5;"/>
     </g>
     <g id="line2d_30">
      <g>
       <use style="stroke:#000000;stroke-width:0.5;" x="72.0" xlink:href="#md7965d1ba0" y="273.6"/>
      </g>
     </g>
     <g id="line2d_31">
      <g>
       <use style="stroke:#000000;stroke-width:0.5;" x="518.4" xlink:href="#md9a1c1a7cd" y="273.6"/>
      </g>
     </g>
     <g id="text_10">
      <!-- −250 -->
      <g transform="translate(37.1075 276.91125)scale(0.12 -0.12)">
       <use xlink:href="#DejaVuSans-2212"/>
       <use x="83.7890625" xlink:href="#DejaVuSans-32"/>
       <use x="147.412109375" xlink:href="#DejaVuSans-35"/>
       <use x="211.03515625" xlink:href="#DejaVuSans-30"/>
      </g>
     </g>
    </g>
    <g id="ytick_5">
     <g id="line2d_32">
      <path clip-path="url(#p7ff5b81e1d)" d="
M72 235.2
L518.4 235.2" style="fill:none;stroke:#000000;stroke-dasharray:3.000000,5.000000,1.000000,5.000000;stroke-dashoffset:0.0;stroke-width:0.5;"/>
     </g>
     <g id="line2d_33">
      <g>
       <use style="stroke:#000000;stroke-width:0.5;" x="72.0" xlink:href="#md7965d1ba0" y="235.2"/>
      </g>
     </g>
     <g id="line2d_34">
      <g>
       <use style="stroke:#000000;stroke-width:0.5;" x="518.4" xlink:href="#md9a1c1a7cd" y="235.2"/>
      </g>
     </g>
     <g id="text_11">
      <!-- −200 -->
      <g transform="translate(37.1075 238.51125)scale(0.12 -0.12)">
       <use xlink:href="#DejaVuSans-2212"/>
       <use x="83.7890625" xlink:href="#DejaVuSans-32"/>
       <use x="147.412109375" xlink:href="#DejaVuSans-30"/>
       <use x="211.03515625" xlink:href="#DejaVuSans-30"/>
      </g>
     </g>
    </g>
    <g id="ytick_6">
     <g id="line2d_35">
      <path clip-path="url(#p7ff5b81e1d)" d="
M72 196.8
L518.4 196.8" style="fill:none;stroke:#000000;stroke-dasharray:3.000000,5.000000,1.000000,5.000000;stroke-dashoffset:0.0;stroke-width:0.5;"/>
     </g>
     <g id="line2d_36">
      <g>
       <use style="stroke:#000000;stroke-width:0.5;" x="72.0" xlink:href="#md7965d1ba0" y="196.8"/>
      </g>
     </g>
     <g id="line2d_37">
      <g>
       <use style="stroke:#000000;stroke-width:0.5;" x="518.4" xlink:href="#md9a1c1a7cd" y="196.8"/>
      </g>
     </g>
     <g id="text_12">
      <!-- −150 -->
      <g transform="translate(37.1075 200.11125)scale(0.12 -0.12)">
       <use xlink:href="#DejaVuSans-2212"/>
       <use x="83.7890625" xlink:href="#DejaVuSans-31"/>
       <use x="147.412109375" xlink:href="#DejaVuSans-35"/>
       <use x="211.03515625" xlink:href="#DejaVuSans-30"/>
      </g>
     </g>
    </g>
    <g id="ytick_7">
     <g id="line2d_38">
      <path clip-path="url(#p7ff5b81e1d)" d="
M72 158.4
L518.4 158.4" style="fill:none;stroke:#000000;stroke-dasharray:3.000000,5.000000,1.000000,5.000000;stroke-dashoffset:0.0;stroke-width:0.5;"/>
     </g>
     <g id="line2d_39">
      <g>
       <use style="stroke:#000000;stroke-width:0.5;" x="72.0" xlink:href="#md7965d1ba0" y="158.4"/>
      </g>
     </g>
     <g id="line2d_40">
      <g>
       <use style="stroke:#000000;stroke-width:0.5;" x="518.4" xlink:href="#md9a1c1a7cd" y="158.4"/>
      </g>
     </g>
     <g id="text_13">
      <!-- −100 -->
      <g transform="translate(37.1075 161.71125)scale(0.12 -0.12)">
       <use xlink:href="#DejaVuSans-2212"/>
       <use x="83.7890625" xlink:href="#DejaVuSans-31"/>
       <use x="147.412109375" xlink:href="#DejaVuSans-30"/>
       <use x="211.03515625" xlink:href="#DejaVuSans-30"/>
      </g>
     </g>
    </g>
    <g id="ytick_8">
     <g id="line2d_41">
      <path clip-path="url(#p7ff5b81e1d)" d="
M72 120
L518.4 120" style="fill:none;stroke:#000000;stroke-dasharray:3.000000,5.000000,1.000000,5.000000;stroke-dashoffset:0.0;stroke-width:0.5;"/>
     </g>
     <g id="line2d_42">
      <g>
       <use style="stroke:#000000;stroke-width:0.5;" x="72.0" xlink:href="#md7965d1ba0" y="120.0"/>
      </g>
     </g>
     <g id="line2d_43">
      <g>
       <use style="stroke:#000000;stroke-width:0.5;" x="518.4" xlink:href="#md9a1c1a7cd" y="120.0"/>
      </g>
     </g>
     <g id="text_14">
      <!-- −50 -->
      <g transform="translate(44.7425 123.31125)scale(0.12 -0.12)">
       <use xlink:href="#DejaVuSans-2212"/>
       <use x="83.7890625" xlink:href="#DejaVuSans-35"/>
       <use x="147.412109375" xlink:href="#DejaVuSans-30"/>
      </g>
     </g>
    </g>
    <g id="ytick_9">
     <g id="line2d_44">
      <path clip-path="url(#p7ff5b81e1d)" d="
M72 81.6
L518.4 81.6" style="fill:none;stroke:#000000;stroke-dasharray:3.000000,5.000000,1.000000,5.000000;stroke-dashoffset:0.0;stroke-width:0.5;"/>
     </g>
     <g id="line2d_45">
      <g>
       <use style="stroke:#000000;stroke-width:0.5;" x="72.0" xlink:href="#md7965d1ba0" y="81.6"/>
      </g>
     </g>
     <g id="line2d_46">
      <g>
       <use style="stroke:#000000;stroke-width:0.5;" x="518.4" xlink:href="#md9a1c1a7cd" y="81.6"/>
      </g>
     </g>
     <g id="text_15">
      <!-- 0 -->
      <g transform="translate(61.953125 84.91125)scale(0.12 -0.12)">
       <use xlink:href="#DejaVuSans-30"/>
      </g>
     </g>
    </g>
    <g id="ytick_10">
     <g id="line2d_47">
      <path clip-path="url(#p7ff5b81e1d)" d="
M72 43.2
L518.4 43.2" style="fill:none;stroke:#000000;stroke-dasharray:3.000000,5.000000,1.000000,5.000000;stroke-dashoffset:0.0;stroke-width:0.5;"/>
     </g>
     <g id="line2d_48">
      <g>
       <use style="stroke:#000000;stroke-width:0.5;" x="72.0" xlink:href="#md7965d1ba0" y="43.2"/>
      </g>
     </g>
     <g id="line2d_49">
      <g>
       <use style="stroke:#000000;stroke-width:0.5;" x="518.4" xlink:href="#md9a1c1a7cd" y="43.2"/>
      </g>
     </g>
     <g id="text_16">
      <!-- 50 -->
      <g transform="translate(54.453125 46.51125)scale(0.12 -0.12)">
       <use xlink:href="#DejaVuSans-35"/>
       <use x="63.623046875" xlink:href="#DejaVuSans-30"/>
      </g>
     </g>
    </g>
    <g id="text_17">
     <!-- dif_voltage -->
     <defs>
      <path d="
M45.4062 46.3906
L45.4062 75.9844
L54.3906 75.9844
L54.3906 0
L45.4062 0
L45.4062 8.20312
Q42.5781 3.32812 38.25 0.953125
Q33.9375 -1.42188 27.875 -1.42188
Q17.9688 -1.42188 11.7344 6.48438
Q5.51562 14.4062 5.51562 27.2969
Q5.51562 40.1875 11.7344 48.0938
Q17.9688 56 27.875 56
Q33.9375 56 38.25 53.625
Q42.5781 51.2656 45.4062 46.3906
M14.7969 27.2969
Q14.7969 17.3906 18.875 11.75
Q22.9531 6.10938 30.0781 6.10938
Q37.2031 6.10938 41.2969 11.75
Q45.4062 17.3906 45.4062 27.2969
Q45.4062 37.2031 41.2969 42.8438
Q37.2031 48.4844 30.0781 48.4844
Q22.9531 48.4844 18.875 42.8438
Q14.7969 37.2031 14.7969 27.2969" id="DejaVuSans-64"/>
      <path d="
M18.3125 70.2188
L18.3125 54.6875
L36.8125 54.6875
L36.8125 47.7031
L18.3125 47.7031
L18.3125 18.0156
Q18.3125 11.3281 20.1406 9.42188
Q21.9688 7.51562 27.5938 7.51562
L36.8125 7.51562
L36.8125 0
L27.5938 0
Q17.1875 0 13.2344 3.875
Q9.28125 7.76562 9.28125 18.0156
L9.28125 47.7031
L2.6875 47.7031
L2.6875 54.6875
L9.28125 54.6875
L9.28125 70.2188
z
" id="DejaVuSans-74"/>
      <path d="
M9.42188 75.9844
L18.4062 75.9844
L18.4062 0
L9.42188 0
z
" id="DejaVuSans-6c"/>
      <path d="
M45.4062 27.9844
Q45.4062 37.75 41.375 43.1094
Q37.3594 48.4844 30.0781 48.4844
Q22.8594 48.4844 18.8281 43.1094
Q14.7969 37.75 14.7969 27.9844
Q14.7969 18.2656 18.8281 12.8906
Q22.8594 7.51562 30.0781 7.51562
Q37.3594 7.51562 41.375 12.8906
Q45.4062 18.2656 45.4062 27.9844
M54.3906 6.78125
Q54.3906 -7.17188 48.1875 -13.9844
Q42 -20.7969 29.2031 -20.7969
Q24.4688 -20.7969 20.2656 -20.0938
Q16.0625 -19.3906 12.1094 -17.9219
L12.1094 -9.1875
Q16.0625 -11.3281 19.9219 -12.3438
Q23.7812 -13.375 27.7812 -13.375
Q36.625 -13.375 41.0156 -8.76562
Q45.4062 -4.15625 45.4062 5.17188
L45.4062 9.625
Q42.625 4.78125 38.2812 2.39062
Q33.9375 0 27.875 0
Q17.8281 0 11.6719 7.65625
Q5.51562 15.3281 5.51562 27.9844
Q5.51562 40.6719 11.6719 48.3281
Q17.8281 56 27.875 56
Q33.9375 56 38.2812 53.6094
Q42.625 51.2188 45.4062 46.3906
L45.4062 54.6875
L54.3906 54.6875
z
" id="DejaVuSans-67"/>
      <path d="
M50.9844 -16.6094
L50.9844 -23.5781
L-0.984375 -23.5781
L-0.984375 -16.6094
z
" id="DejaVuSans-5f"/>
      <path d="
M30.6094 48.3906
Q23.3906 48.3906 19.1875 42.75
Q14.9844 37.1094 14.9844 27.2969
Q14.9844 17.4844 19.1562 11.8438
Q23.3438 6.20312 30.6094 6.20312
Q37.7969 6.20312 41.9844 11.8594
Q46.1875 17.5312 46.1875 27.2969
Q46.1875 37.0156 41.9844 42.7031
Q37.7969 48.3906 30.6094 48.3906
M30.6094 56
Q42.3281 56 49.0156 48.375
Q55.7188 40.7656 55.7188 27.2969
Q55.7188 13.875 49.0156 6.21875
Q42.3281 -1.42188 30.6094 -1.42188
Q18.8438 -1.42188 12.1719 6.21875
Q5.51562 13.875 5.51562 27.2969
Q5.51562 40.7656 12.1719 48.375
Q18.8438 56 30.6094 56" id="DejaVuSans-6f"/>
      <path d="
M2.98438 54.6875
L12.5 54.6875
L29.5938 8.79688
L46.6875 54.6875
L56.2031 54.6875
L35.6875 0
L23.4844 0
z
" id="DejaVuSans-76"/>
      <path d="
M37.1094 75.9844
L37.1094 68.5
L28.5156 68.5
Q23.6875 68.5 21.7969 66.5469
Q19.9219 64.5938 19.9219 59.5156
L19.9219 54.6875
L34.7188 54.6875
L34.7188 47.7031
L19.9219 47.7031
L19.9219 0
L10.8906 0
L10.8906 47.7031
L2.29688 47.7031
L2.29688 54.6875
L10.8906 54.6875
L10.8906 58.5
Q10.8906 67.625 15.1406 71.7969
Q19.3906 75.9844 28.6094 75.9844
z
" id="DejaVuSans-66"/>
      <path d="
M34.2812 27.4844
Q23.3906 27.4844 19.1875 25
Q14.9844 22.5156 14.9844 16.5
Q14.9844 11.7188 18.1406 8.90625
Q21.2969 6.10938 26.7031 6.10938
Q34.1875 6.10938 38.7031 11.4062
Q43.2188 16.7031 43.2188 25.4844
L43.2188 27.4844
z

M52.2031 31.2031
L52.2031 0
L43.2188 0
L43.2188 8.29688
Q40.1406 3.32812 35.5469 0.953125
Q30.9531 -1.42188 24.3125 -1.42188
Q15.9219 -1.42188 10.9531 3.29688
Q6 8.01562 6 15.9219
Q6 25.1406 12.1719 29.8281
Q18.3594 34.5156 30.6094 34.5156
L43.2188 34.5156
L43.2188 35.4062
Q43.2188 41.6094 39.1406 45
Q35.0625 48.3906 27.6875 48.3906
Q23 48.3906 18.5469 47.2656
Q14.1094 46.1406 10.0156 43.8906
L10.0156 52.2031
Q14.9375 54.1094 19.5781 55.0469
Q24.2188 56 28.6094 56
Q40.4844 56 46.3438 49.8438
Q52.2031 43.7031 52.2031 31.2031" id="DejaVuSans-61"/>
     </defs>
     <g transform="translate(28.8065625 253.7496875)rotate(-90.0)scale(0.14 -0.14)">
      <use xlink:href="#DejaVuSans-64"/>
      <use x="63.4765625" xlink:href="#DejaVuSans-69"/>
      <use x="91.259765625" xlink:href="#DejaVuSans-66"/>
      <use x="126.46484375" xlink:href="#DejaVuSans-5f"/>
      <use x="176.46484375" xlink:href="#DejaVuSans-76"/>
      <use x="235.64453125" xlink:href="#DejaVuSans-6f"/>
      <use x="296.826171875" xlink:href="#DejaVuSans-6c"/>
      <use x="324.609375" xlink:href="#DejaVuSans-74"/>
      <use x="363.818359375" xlink:href="#DejaVuSans-61"/>
      <use x="425.09765625" xlink:href="#DejaVuSans-67"/>
      <use x="488.57421875" xlink:href="#DejaVuSans-65"/>
     </g>
    </g>
   </g>
   <g id="text_18">
    <!-- dif_voltage -->
    <g transform="translate(257.4503125 38.2)scale(0.14 -0.14)">
     <use xlink:href="#DejaVuSans-64"/>
     <use x="63.4765625" xlink:href="#DejaVuSans-69"/>
     <use x="91.259765625" xlink:href="#DejaVuSans-66"/>
     <use x="126.46484375" xlink:href="#DejaVuSans-5f"/>
     <use x="176.46484375" xlink:href="#DejaVuSans-76"/>
     <use x="235.64453125" xlink:href="#DejaVuSans-6f"/>
     <use x="296.826171875" xlink:href="#DejaVuSans-6c"/>
     <use x="324.609375" xlink:href="#DejaVuSans-74"/>
     <use x="363.818359375" xlink:href="#DejaVuSans-61"/>
     <use x="425.09765625" xlink:href="#DejaVuSans-67"/>
     <use x="488.57421875" xlink:href="#DejaVuSans-65"/>
    </g>
   </g>
   <g id="legend_1">
    <g id="patch_7">
     <path d="
M372.582 381.6
L511.2 381.6
L511.2 291.132
L372.582 291.132
z
" style="fill:#ffffff;stroke:#000000;stroke-linejoin:miter;"/>
    </g>
    <g id="line2d_50">
     <path d="
M382.662 302.794
L402.822 302.794" style="fill:none;stroke:#bf00bf;stroke-linecap:square;"/>
    </g>
    <g id="line2d_51"/>
    <g id="text_19">
     <!-- dif_voltage1 -->
     <g transform="translate(418.662 307.83375)scale(0.144 -0.144)">
      <use xlink:href="#DejaVuSans-64"/>
      <use x="63.4765625" xlink:href="#DejaVuSans-69"/>
      <use x="91.259765625" xlink:href="#DejaVuSans-66"/>
      <use x="126.46484375" xlink:href="#DejaVuSans-5f"/>
      <use x="176.46484375" xlink:href="#DejaVuSans-76"/>
      <use x="235.64453125" xlink:href="#DejaVuSans-6f"/>
      <use x="296.826171875" xlink:href="#DejaVuSans-6c"/>
      <use x="324.609375" xlink:href="#DejaVuSans-74"/>
      <use x="363.818359375" xlink:href="#DejaVuSans-61"/>
      <use x="425.09765625" xlink:href="#DejaVuSans-67"/>
      <use x="488.57421875" xlink:href="#DejaVuSans-65"/>
      <use x="550.09765625" xlink:href="#DejaVuSans-31"/>
     </g>
    </g>
    <g id="line2d_52">
     <path d="
M382.662 324.331
L402.822 324.331" style="fill:none;stroke:#00bfbf;stroke-linecap:square;"/>
    </g>
    <g id="line2d_53"/>
    <g id="text_20">
     <!-- dif_voltage2 -->
     <g transform="translate(418.662 329.37075)scale(0.144 -0.144)">
      <use xlink:href="#DejaVuSans-64"/>
      <use x="63.4765625" xlink:href="#DejaVuSans-69"/>
      <use x="91.259765625" xlink:href="#DejaVuSans-66"/>
      <use x="126.46484375" xlink:href="#DejaVuSans-5f"/>
      <use x="176.46484375" xlink:href="#DejaVuSans-76"/>
      <use x="235.64453125" xlink:href="#DejaVuSans-6f"/>
      <use x="296.826171875" xlink:href="#DejaVuSans-6c"/>
      <use x="324.609375" xlink:href="#DejaVuSans-74"/>
      <use x="363.818359375" xlink:href="#DejaVuSans-61"/>
      <use x="425.09765625" xlink:href="#DejaVuSans-67"/>
      <use x="488.57421875" xlink:href="#DejaVuSans-65"/>
      <use x="550.09765625" xlink:href="#DejaVuSans-32"/>
     </g>
    </g>
    <g id="line2d_54">
     <path d="
M382.662 345.868
L402.822 345.868" style="fill:none;stroke:#ff0000;stroke-linecap:square;"/>
    </g>
    <g id="line2d_55"/>
    <g id="text_21">
     <!-- dif_voltage3 -->
     <g transform="translate(418.662 350.90775)scale(0.144 -0.144)">
      <use xlink:href="#DejaVuSans-64"/>
      <use x="63.4765625" xlink:href="#DejaVuSans-69"/>
      <use x="91.259765625" xlink:href="#DejaVuSans-66"/>
      <use x="126.46484375" xlink:href="#DejaVuSans-5f"/>
      <use x="176.46484375" xlink:href="#DejaVuSans-76"/>
      <use x="235.64453125" xlink:href="#DejaVuSans-6f"/>
      <use x="296.826171875" xlink:href="#DejaVuSans-6c"/>
      <use x="324.609375" xlink:href="#DejaVuSans-74"/>
      <use x="363.818359375" xlink:href="#DejaVuSans-61"/>
      <use x="425.09765625" xlink:href="#DejaVuSans-67"/>
      <use x="488.57421875" xlink:href="#DejaVuSans-65"/>
      <use x="550.09765625" xlink:href="#DejaVuSans-33"/>
     </g>
    </g>
    <g id="line2d_56">
     <path d="
M382.662 367.405
L402.822 367.405" style="fill:none;stroke:#008000;stroke-linecap:square;"/>
    </g>
    <g id="line2d_57"/>
    <g id="text_22">
     <!-- dif_voltage4 -->
     <g transform="translate(418.662 372.44475)scale(0.144 -0.144)">
      <use xlink:href="#DejaVuSans-64"/>
      <use x="63.4765625" xlink:href="#DejaVuSans-69"/>
      <use x="91.259765625" xlink:href="#DejaVuSans-66"/>
      <use x="126.46484375" xlink:href="#DejaVuSans-5f"/>
      <use x="176.46484375" xlink:href="#DejaVuSans-76"/>
      <use x="235.64453125" xlink:href="#DejaVuSans-6f"/>
      <use x="296.826171875" xlink:href="#DejaVuSans-6c"/>
      <use x="324.609375" xlink:href="#DejaVuSans-74"/>
      <use x="363.818359375" xlink:href="#DejaVuSans-61"/>
      <use x="425.09765625" xlink:href="#DejaVuSans-67"/>
      <use x="488.57421875" xlink:href="#DejaVuSans-65"/>
      <use x="550.09765625" xlink:href="#DejaVuSans-34"/>
     </g>
    </g>
   </g>
  </g>
 </g>
 <defs>
  <clipPath id="p7ff5b81e1d">
   <rect height="345.6" width="446.4" x="72.0" y="43.2"/>
  </clipPath>
 </defs>
</svg>
