<?xml version="1.0" encoding="utf-8" standalone="no"?>
<!DOCTYPE svg PUBLIC "-//W3C//DTD SVG 1.1//EN"
  "http://www.w3.org/Graphics/SVG/1.1/DTD/svg11.dtd">
<!-- Created with matplotlib (http://matplotlib.org/) -->
<svg height="432pt" version="1.1" viewBox="0 0 576 432" width="576pt" xmlns="http://www.w3.org/2000/svg" xmlns:xlink="http://www.w3.org/1999/xlink">
 <defs>
  <style type="text/css">
*{stroke-linecap:butt;stroke-linejoin:round;}
  </style>
 </defs>
 <g id="figure_1">
  <g id="patch_1">
   <path d="
M0 432
L576 432
L576 0
L0 0
z
" style="fill:#ffffff;"/>
  </g>
  <g id="axes_1">
   <g id="patch_2">
    <path d="
M72 388.8
L518.4 388.8
L518.4 43.2
L72 43.2
z
" style="fill:#ffffff;"/>
   </g>
   <g id="line2d_1">
    <path clip-path="url(#p7ff5b81e1d)" d="
M72 388.8
L119.185 388.717
L119.802 387.738
L120.09 387.23
L120.236 386.99
L121.294 386.759
L123.469 384.237
L124.357 383.538
L125.721 383.148
L126.198 382.776
L126.622 382.418
L127.178 382.072
L128.79 381.736
L129.143 381.516
L129.385 381.408
L130.298 381.192
L130.59 380.98
L131.706 380.769
L132.36 380.253
L133.102 379.847
L133.984 379.645
L135.305 378.843
L135.859 378.439
L136.348 378.135
L137.396 377.432
L137.983 377.042
L138.275 376.851
L139.097 376.664
L139.622 376.301
L140.288 375.954
L141.122 375.788
L142.739 374.886
L143.735 374.688
L144.7 374.324
L145.759 374.159
L147.321 373.686
L149.271 373.458
L151.67 373.143
L160.777 372.914
L167.777 373.316
L171.051 373.793
L173.279 373.973
L174.513 374.246
L178.005 375.208
L180.565 375.953
L182.091 376.411
L183.008 376.71
L190.774 379.723
L193.097 380.762
L193.951 380.915
L201.172 383.765
L202.045 384.011
L202.739 384.26
L204.224 384.509
L206.065 384.759
L206.448 384.927
L207.503 385.095
L208.96 385.771
L209.954 385.942
L210.132 386.027
L211.185 386.284
L211.92 386.542
L213.487 387.234
L214.319 387.583
L215.889 387.845
L217.045 388.461
L217.91 388.8
L512.82 388.8
L512.82 388.8" style="fill:none;stroke:#bf00bf;stroke-linecap:square;"/>
   </g>
   <g id="line2d_2">
    <path clip-path="url(#p7ff5b81e1d)" d="
M72 388.8
L88.6815 388.8
L88.8296 388.003
L88.972 388.033
L89.2843 387.021
L89.5851 385.513
L90.2653 382.177
L90.6446 381.328
L91.1296 377.945
L91.4505 376.275
L92.5651 375.449
L92.9471 373.821
L93.4141 373.019
L93.7087 372.226
L94.936 371.443
L96.6632 362.734
L97.4865 362.051
L98.0782 359.35
L98.7854 358.682
L99.0959 357.35
L99.9402 354.156
L100.27 352.913
L100.734 351.095
L101.272 350.503
L101.885 348.773
L102.317 347.093
L102.67 345.455
L103.333 344.916
L103.816 343.314
L104.099 342.258
L104.673 340.165
L105.825 336.544
L106.542 336.03
L106.835 335.004
L107.149 333.98
L107.579 333.468
L107.871 332.446
L108.549 331.935
L109.348 330.915
L109.916 330.406
L110.145 329.896
L110.993 329.388
L111.616 327.353
L112.838 323.292
L113.657 320.756
L114.053 319.236
L114.708 318.73
L115.639 318.223
L117.351 312.773
L117.501 312.314
L117.996 311.866
L118.145 311.429
L118.79 311.005
L120.205 307.669
L121.461 307.039
L122.494 305.105
L123.445 303.703
L124.248 302.659
L125.094 302.461
L125.187 302.266
L125.8 302.074
L126.263 301.514
L126.687 300.973
L127.253 300.449
L128.675 300.108
L129.457 299.439
L130.462 299.112
L130.644 298.788
L131.533 298.627
L132.06 298.15
L133.158 297.057
L134.143 296.749
L134.517 296.289
L135.361 295.523
L135.595 295.216
L136.173 294.754
L137.457 293.38
L137.942 292.931
L138.342 292.488
L139.176 292.198
L139.681 291.63
L140.346 291.08
L141.207 290.812
L141.838 290.167
L142.152 289.918
L142.425 289.675
L142.798 289.321
L143.591 289.092
L144.125 288.76
L144.457 288.546
L144.761 288.338
L145.624 288.135
L148.022 287.038
L148.929 286.876
L150.571 286.141
L151.624 285.945
L151.75 285.883
L154.18 285.534
L154.916 285.276
L156.207 285.09
L156.356 285.046
L157.697 284.845
L161.521 284.353
L172.348 284.166
L176.179 284.477
L180.129 285.079
L185.577 286.296
L191.174 287.911
L193.167 288.592
L194.203 288.768
L195.836 289.369
L196.882 289.553
L198.832 290.31
L201.252 290.962
L202.146 291.161
L202.829 291.362
L204.318 291.563
L206.145 291.767
L206.522 291.903
L207.563 292.04
L209.036 292.594
L210.244 292.804
L211.274 293.015
L212.008 293.228
L213.228 293.656
L214.387 294.089
L216.164 294.38
L218.282 295.358
L220.056 296.018
L221.461 296.41
L222.065 296.566
L226.438 296.635
L229.796 296.491
L238.35 296.284
L252.267 296.13
L269.004 296.008
L309.785 295.87
L335.626 295.832
L512.955 295.798
L512.955 295.798" style="fill:none;stroke:#00bfbf;stroke-linecap:square;"/>
   </g>
   <g id="line2d_3">
    <path clip-path="url(#p7ff5b81e1d)" d="
M72 388.8
L72 385.607
L72.8208 385.101
L73.3666 384.555
L73.468 383.971
L74.3125 383.352
L75.6972 376.546
L76.0676 374.806
L76.561 372.081
L77.2184 371.146
L77.902 368.266
L78.2014 366.291
L78.5649 364.275
L80.105 353.681
L81.3083 349.243
L81.9592 348.118
L83.0609 340.097
L83.3837 337.763
L83.6515 336.59
L84.6397 328.281
L84.8277 327.082
L85.4565 325.88
L86.3812 319.839
L86.7543 318.625
L87.5095 317.409
L87.8898 314.974
L88.0327 313.754
L88.4611 311.312
L90.0523 298.95
L90.4038 297.722
L90.9315 292.974
L91.4026 289.669
L92.5947 288.624
L92.728 287.609
L93.2144 286.623
L93.7512 284.732
L94.846 283.822
L95.6331 279.516
L96.2047 276.176
L96.5897 273.63
L97.4155 272.767
L98.0355 269.252
L98.7152 268.363
L100.648 258.186
L101.183 257.417
L101.321 256.655
L101.684 255.9
L102.615 250.581
L103.269 249.807
L103.503 249.031
L103.851 246.694
L105.599 238.084
L106.36 237.302
L106.733 234.954
L106.99 234.172
L107.055 233.389
L107.5 232.607
L107.791 231.045
L108.556 230.263
L109.013 229.482
L109.262 228.701
L109.929 227.92
L110.165 227.14
L110.922 226.359
L112.773 217
L113.031 216.221
L113.265 214.663
L113.824 211.546
L114.19 210.768
L114.778 209.989
L115.555 209.21
L116.778 202.981
L117.027 202.205
L117.279 200.657
L117.782 199.886
L118.068 198.354
L118.714 197.593
L119.073 196.088
L120.174 190.985
L120.894 190.278
L121.38 189.575
L121.596 188.878
L121.834 187.5
L122.925 182.822
L124.179 177.693
L124.987 177.062
L125.108 176.436
L125.694 175.81
L126.29 173.328
L126.5 172.711
L126.72 171.482
L127.003 170.869
L127.108 170.258
L128.545 169.038
L129.057 167.215
L129.353 166.608
L130.071 166.003
L130.56 164.191
L131.431 163.589
L131.784 162.385
L132.477 159.384
L133.064 157.588
L133.687 156.99
L134.608 153.992
L138.221 139.685
L138.87 139.125
L140.194 134.264
L140.872 133.744
L142.705 127.332
L143.352 126.865
L144.473 123.706
L144.673 123.27
L145.436 122.837
L145.83 121.559
L146.825 119.1
L147.25 117.915
L148.607 117.143
L150.141 113.473
L150.402 113.123
L151.106 112.775
L151.638 111.752
L152.268 111.417
L152.698 110.756
L153.701 110.428
L154.005 109.783
L154.774 108.22
L155.503 107.915
L155.996 107.016
L156.192 106.722
L156.886 106.43
L157.211 105.854
L157.72 105.008
L158.372 103.915
L158.667 103.647
L159.178 103.382
L159.317 103.119
L160.088 102.859
L161.184 101.096
L161.438 100.853
L163.797 100.136
L164.649 98.9821
L165.328 98.094
L165.912 97.8774
L166.421 97.2369
L167.185 97.0272
L168.388 95.6091
L169.157 95.4144
L169.987 94.4605
L170.963 93.3708
L171.972 93.1945
L172.503 92.6749
L173.253 92.5044
L173.364 92.3363
L173.964 91.8386
L178.729 87.6419
L178.914 87.5151
L179.498 87.2652
L181.971 85.6305
L183.096 84.9888
L185.057 83.7999
L186.758 82.9002
L192.983 80.2356
L194.027 80.049
L195.679 79.4592
L196.716 79.2922
L199.057 78.5676
L202.562 77.9259
L208.585 77.2439
L223.454 75.2003
L227.991 73.7499
L229.41 73.5621
L231.836 72.9112
L233.198 72.69
L238.198 71.6475
L240.257 71.424
L240.484 71.3802
L241.894 71.2097
L243.568 70.8019
L245.968 70.2363
L248.628 69.7536
L253.7 69.0486
L256.297 68.7191
L259.637 68.4887
L261.661 68.2721
L262.804 68.135
L264.594 67.9807
L267.173 67.7526
L271.383 67.5037
L276.394 67.066
L281.861 66.7089
L285.779 66.5326
L287.582 66.4854
L290.955 66.3172
L296.145 66.0902
L300.786 65.9278
L315.46 65.5396
L325.953 65.3288
L350.179 65.0246
L418.71 64.7539
L512.877 64.7009
L512.877 64.7009" style="fill:none;stroke:#ff0000;stroke-linecap:square;"/>
   </g>
   <g id="line2d_4">
    <path clip-path="url(#p7ff5b81e1d)" d="
M72 388.8
L512.753 388.8
L512.753 388.8" style="fill:none;stroke:#008000;stroke-linecap:square;"/>
   </g>
   <g id="patch_3">
    <path d="
M72 388.8
L72 43.2" style="fill:none;stroke:#000000;stroke-linecap:square;stroke-linejoin:miter;"/>
   </g>
   <g id="patch_4">
    <path d="
M518.4 388.8
L518.4 43.2" style="fill:none;stroke:#000000;stroke-linecap:square;stroke-linejoin:miter;"/>
   </g>
   <g id="patch_5">
    <path d="
M72 43.2
L518.4 43.2" style="fill:none;stroke:#000000;stroke-linecap:square;stroke-linejoin:miter;"/>
   </g>
   <g id="patch_6">
    <path d="
M72 388.8
L518.4 388.8" style="fill:none;stroke:#000000;stroke-linecap:square;stroke-linejoin:miter;"/>
   </g>
   <g id="matplotlib.axis_1">
    <g id="xtick_1">
     <g id="line2d_5">
      <path clip-path="url(#p7ff5b81e1d)" d="
M72 388.8
L72 43.2" style="fill:none;stroke:#000000;stroke-dasharray:3.000000,5.000000,1.000000,5.000000;stroke-dashoffset:0.0;stroke-width:0.5;"/>
     </g>
     <g id="line2d_6">
      <defs>
       <path d="
M0 0
L0 -4" id="mc7db9fdffb" style="stroke:#000000;stroke-width:0.5;"/>
      </defs>
      <g>
       <use style="stroke:#000000;stroke-width:0.5;" x="72.0" xlink:href="#mc7db9fdffb" y="388.8"/>
      </g>
     </g>
     <g id="line2d_7">
      <defs>
       <path d="
M0 0
L0 4" id="m5a7d422ac3" style="stroke:#000000;stroke-width:0.5;"/>
      </defs>
      <g>
       <use style="stroke:#000000;stroke-width:0.5;" x="72.0" xlink:href="#m5a7d422ac3" y="43.2"/>
      </g>
     </g>
     <g id="text_1">
      <!-- 0 -->
      <defs>
       <path d="
M31.7812 66.4062
Q24.1719 66.4062 20.3281 58.9062
Q16.5 51.4219 16.5 36.375
Q16.5 21.3906 20.3281 13.8906
Q24.1719 6.39062 31.7812 6.39062
Q39.4531 6.39062 43.2812 13.8906
Q47.125 21.3906 47.125 36.375
Q47.125 51.4219 43.2812 58.9062
Q39.4531 66.4062 31.7812 66.4062
M31.7812 74.2188
Q44.0469 74.2188 50.5156 64.5156
Q56.9844 54.8281 56.9844 36.375
Q56.9844 17.9688 50.5156 8.26562
Q44.0469 -1.42188 31.7812 -1.42188
Q19.5312 -1.42188 13.0625 8.26562
Q6.59375 17.9688 6.59375 36.375
Q6.59375 54.8281 13.0625 64.5156
Q19.5312 74.2188 31.7812 74.2188" id="DejaVuSans-30"/>
      </defs>
      <g transform="translate(68.9765625 401.918125)scale(0.12 -0.12)">
       <use xlink:href="#DejaVuSans-30"/>
      </g>
     </g>
    </g>
    <g id="xtick_2">
     <g id="line2d_8">
      <path clip-path="url(#p7ff5b81e1d)" d="
M183.6 388.8
L183.6 43.2" style="fill:none;stroke:#000000;stroke-dasharray:3.000000,5.000000,1.000000,5.000000;stroke-dashoffset:0.0;stroke-width:0.5;"/>
     </g>
     <g id="line2d_9">
      <g>
       <use style="stroke:#000000;stroke-width:0.5;" x="183.6" xlink:href="#mc7db9fdffb" y="388.8"/>
      </g>
     </g>
     <g id="line2d_10">
      <g>
       <use style="stroke:#000000;stroke-width:0.5;" x="183.6" xlink:href="#m5a7d422ac3" y="43.2"/>
      </g>
     </g>
     <g id="text_2">
      <!-- 50 -->
      <defs>
       <path d="
M10.7969 72.9062
L49.5156 72.9062
L49.5156 64.5938
L19.8281 64.5938
L19.8281 46.7344
Q21.9688 47.4688 24.1094 47.8281
Q26.2656 48.1875 28.4219 48.1875
Q40.625 48.1875 47.75 41.5
Q54.8906 34.8125 54.8906 23.3906
Q54.8906 11.625 47.5625 5.09375
Q40.2344 -1.42188 26.9062 -1.42188
Q22.3125 -1.42188 17.5469 -0.640625
Q12.7969 0.140625 7.71875 1.70312
L7.71875 11.625
Q12.1094 9.23438 16.7969 8.0625
Q21.4844 6.89062 26.7031 6.89062
Q35.1562 6.89062 40.0781 11.3281
Q45.0156 15.7656 45.0156 23.3906
Q45.0156 31 40.0781 35.4375
Q35.1562 39.8906 26.7031 39.8906
Q22.75 39.8906 18.8125 39.0156
Q14.8906 38.1406 10.7969 36.2812
z
" id="DejaVuSans-35"/>
      </defs>
      <g transform="translate(176.8265625 401.918125)scale(0.12 -0.12)">
       <use xlink:href="#DejaVuSans-35"/>
       <use x="63.623046875" xlink:href="#DejaVuSans-30"/>
      </g>
     </g>
    </g>
    <g id="xtick_3">
     <g id="line2d_11">
      <path clip-path="url(#p7ff5b81e1d)" d="
M295.2 388.8
L295.2 43.2" style="fill:none;stroke:#000000;stroke-dasharray:3.000000,5.000000,1.000000,5.000000;stroke-dashoffset:0.0;stroke-width:0.5;"/>
     </g>
     <g id="line2d_12">
      <g>
       <use style="stroke:#000000;stroke-width:0.5;" x="295.2" xlink:href="#mc7db9fdffb" y="388.8"/>
      </g>
     </g>
     <g id="line2d_13">
      <g>
       <use style="stroke:#000000;stroke-width:0.5;" x="295.2" xlink:href="#m5a7d422ac3" y="43.2"/>
      </g>
     </g>
     <g id="text_3">
      <!-- 100 -->
      <defs>
       <path d="
M12.4062 8.29688
L28.5156 8.29688
L28.5156 63.9219
L10.9844 60.4062
L10.9844 69.3906
L28.4219 72.9062
L38.2812 72.9062
L38.2812 8.29688
L54.3906 8.29688
L54.3906 0
L12.4062 0
z
" id="DejaVuSans-31"/>
      </defs>
      <g transform="translate(284.805 401.918125)scale(0.12 -0.12)">
       <use xlink:href="#DejaVuSans-31"/>
       <use x="63.623046875" xlink:href="#DejaVuSans-30"/>
       <use x="127.24609375" xlink:href="#DejaVuSans-30"/>
      </g>
     </g>
    </g>
    <g id="xtick_4">
     <g id="line2d_14">
      <path clip-path="url(#p7ff5b81e1d)" d="
M406.8 388.8
L406.8 43.2" style="fill:none;stroke:#000000;stroke-dasharray:3.000000,5.000000,1.000000,5.000000;stroke-dashoffset:0.0;stroke-width:0.5;"/>
     </g>
     <g id="line2d_15">
      <g>
       <use style="stroke:#000000;stroke-width:0.5;" x="406.8" xlink:href="#mc7db9fdffb" y="388.8"/>
      </g>
     </g>
     <g id="line2d_16">
      <g>
       <use style="stroke:#000000;stroke-width:0.5;" x="406.8" xlink:href="#m5a7d422ac3" y="43.2"/>
      </g>
     </g>
     <g id="text_4">
      <!-- 150 -->
      <g transform="translate(396.405 401.918125)scale(0.12 -0.12)">
       <use xlink:href="#DejaVuSans-31"/>
       <use x="63.623046875" xlink:href="#DejaVuSans-35"/>
       <use x="127.24609375" xlink:href="#DejaVuSans-30"/>
      </g>
     </g>
    </g>
    <g id="xtick_5">
     <g id="line2d_17">
      <path clip-path="url(#p7ff5b81e1d)" d="
M518.4 388.8
L518.4 43.2" style="fill:none;stroke:#000000;stroke-dasharray:3.000000,5.000000,1.000000,5.000000;stroke-dashoffset:0.0;stroke-width:0.5;"/>
     </g>
     <g id="line2d_18">
      <g>
       <use style="stroke:#000000;stroke-width:0.5;" x="518.4" xlink:href="#mc7db9fdffb" y="388.8"/>
      </g>
     </g>
     <g id="line2d_19">
      <g>
       <use style="stroke:#000000;stroke-width:0.5;" x="518.4" xlink:href="#m5a7d422ac3" y="43.2"/>
      </g>
     </g>
     <g id="text_5">
      <!-- 200 -->
      <defs>
       <path d="
M19.1875 8.29688
L53.6094 8.29688
L53.6094 0
L7.32812 0
L7.32812 8.29688
Q12.9375 14.1094 22.625 23.8906
Q32.3281 33.6875 34.8125 36.5312
Q39.5469 41.8438 41.4219 45.5312
Q43.3125 49.2188 43.3125 52.7812
Q43.3125 58.5938 39.2344 62.25
Q35.1562 65.9219 28.6094 65.9219
Q23.9688 65.9219 18.8125 64.3125
Q13.6719 62.7031 7.8125 59.4219
L7.8125 69.3906
Q13.7656 71.7812 18.9375 73
Q24.125 74.2188 28.4219 74.2188
Q39.75 74.2188 46.4844 68.5469
Q53.2188 62.8906 53.2188 53.4219
Q53.2188 48.9219 51.5312 44.8906
Q49.8594 40.875 45.4062 35.4062
Q44.1875 33.9844 37.6406 27.2188
Q31.1094 20.4531 19.1875 8.29688" id="DejaVuSans-32"/>
      </defs>
      <g transform="translate(507.785625 401.918125)scale(0.12 -0.12)">
       <use xlink:href="#DejaVuSans-32"/>
       <use x="63.623046875" xlink:href="#DejaVuSans-30"/>
       <use x="127.24609375" xlink:href="#DejaVuSans-30"/>
      </g>
     </g>
    </g>
    <g id="text_6">
     <!-- Time -->
     <defs>
      <path d="
M56.2031 29.5938
L56.2031 25.2031
L14.8906 25.2031
Q15.4844 15.9219 20.4844 11.0625
Q25.4844 6.20312 34.4219 6.20312
Q39.5938 6.20312 44.4531 7.46875
Q49.3125 8.73438 54.1094 11.2812
L54.1094 2.78125
Q49.2656 0.734375 44.1875 -0.34375
Q39.1094 -1.42188 33.8906 -1.42188
Q20.7969 -1.42188 13.1562 6.1875
Q5.51562 13.8125 5.51562 26.8125
Q5.51562 40.2344 12.7656 48.1094
Q20.0156 56 32.3281 56
Q43.3594 56 49.7812 48.8906
Q56.2031 41.7969 56.2031 29.5938
M47.2188 32.2344
Q47.125 39.5938 43.0938 43.9844
Q39.0625 48.3906 32.4219 48.3906
Q24.9062 48.3906 20.3906 44.1406
Q15.875 39.8906 15.1875 32.1719
z
" id="DejaVuSans-65"/>
      <path d="
M-0.296875 72.9062
L61.375 72.9062
L61.375 64.5938
L35.5 64.5938
L35.5 0
L25.5938 0
L25.5938 64.5938
L-0.296875 64.5938
z
" id="DejaVuSans-54"/>
      <path d="
M9.42188 54.6875
L18.4062 54.6875
L18.4062 0
L9.42188 0
z

M9.42188 75.9844
L18.4062 75.9844
L18.4062 64.5938
L9.42188 64.5938
z
" id="DejaVuSans-69"/>
      <path d="
M52 44.1875
Q55.375 50.25 60.0625 53.125
Q64.75 56 71.0938 56
Q79.6406 56 84.2812 50.0156
Q88.9219 44.0469 88.9219 33.0156
L88.9219 0
L79.8906 0
L79.8906 32.7188
Q79.8906 40.5781 77.0938 44.375
Q74.3125 48.1875 68.6094 48.1875
Q61.625 48.1875 57.5625 43.5469
Q53.5156 38.9219 53.5156 30.9062
L53.5156 0
L44.4844 0
L44.4844 32.7188
Q44.4844 40.625 41.7031 44.4062
Q38.9219 48.1875 33.1094 48.1875
Q26.2188 48.1875 22.1562 43.5312
Q18.1094 38.875 18.1094 30.9062
L18.1094 0
L9.07812 0
L9.07812 54.6875
L18.1094 54.6875
L18.1094 46.1875
Q21.1875 51.2188 25.4844 53.6094
Q29.7812 56 35.6875 56
Q41.6562 56 45.8281 52.9688
Q50 49.9531 52 44.1875" id="DejaVuSans-6d"/>
     </defs>
     <g transform="translate(278.42515625 420.0515625)scale(0.14 -0.14)">
      <use xlink:href="#DejaVuSans-54"/>
      <use x="57.958984375" xlink:href="#DejaVuSans-69"/>
      <use x="85.7421875" xlink:href="#DejaVuSans-6d"/>
      <use x="183.154296875" xlink:href="#DejaVuSans-65"/>
     </g>
    </g>
   </g>
   <g id="matplotlib.axis_2">
    <g id="ytick_1">
     <g id="line2d_20">
      <path clip-path="url(#p7ff5b81e1d)" d="
M72 388.8
L518.4 388.8" style="fill:none;stroke:#000000;stroke-dasharray:3.000000,5.000000,1.000000,5.000000;stroke-dashoffset:0.0;stroke-width:0.5;"/>
     </g>
     <g id="line2d_21">
      <defs>
       <path d="
M0 0
L4 0" id="md7965d1ba0" style="stroke:#000000;stroke-width:0.5;"/>
      </defs>
      <g>
       <use style="stroke:#000000;stroke-width:0.5;" x="72.0" xlink:href="#md7965d1ba0" y="388.8"/>
      </g>
     </g>
     <g id="line2d_22">
      <defs>
       <path d="
M0 0
L-4 0" id="md9a1c1a7cd" style="stroke:#000000;stroke-width:0.5;"/>
      </defs>
      <g>
       <use style="stroke:#000000;stroke-width:0.5;" x="518.4" xlink:href="#md9a1c1a7cd" y="388.8"/>
      </g>
     </g>
     <g id="text_7">
      <!-- 0 -->
      <g transform="translate(61.953125 392.11125)scale(0.12 -0.12)">
       <use xlink:href="#DejaVuSans-30"/>
      </g>
     </g>
    </g>
    <g id="ytick_2">
     <g id="line2d_23">
      <path clip-path="url(#p7ff5b81e1d)" d="
M72 331.2
L518.4 331.2" style="fill:none;stroke:#000000;stroke-dasharray:3.000000,5.000000,1.000000,5.000000;stroke-dashoffset:0.0;stroke-width:0.5;"/>
     </g>
     <g id="line2d_24">
      <g>
       <use style="stroke:#000000;stroke-width:0.5;" x="72.0" xlink:href="#md7965d1ba0" y="331.2"/>
      </g>
     </g>
     <g id="line2d_25">
      <g>
       <use style="stroke:#000000;stroke-width:0.5;" x="518.4" xlink:href="#md9a1c1a7cd" y="331.2"/>
      </g>
     </g>
     <g id="text_8">
      <!-- 5 -->
      <g transform="translate(62.339375 334.51125)scale(0.12 -0.12)">
       <use xlink:href="#DejaVuSans-35"/>
      </g>
     </g>
    </g>
    <g id="ytick_3">
     <g id="line2d_26">
      <path clip-path="url(#p7ff5b81e1d)" d="
M72 273.6
L518.4 273.6" style="fill:none;stroke:#000000;stroke-dasharray:3.000000,5.000000,1.000000,5.000000;stroke-dashoffset:0.0;stroke-width:0.5;"/>
     </g>
     <g id="line2d_27">
      <g>
       <use style="stroke:#000000;stroke-width:0.5;" x="72.0" xlink:href="#md7965d1ba0" y="273.6"/>
      </g>
     </g>
     <g id="line2d_28">
      <g>
       <use style="stroke:#000000;stroke-width:0.5;" x="518.4" xlink:href="#md9a1c1a7cd" y="273.6"/>
      </g>
     </g>
     <g id="text_9">
      <!-- 10 -->
      <g transform="translate(54.845 276.91125)scale(0.12 -0.12)">
       <use xlink:href="#DejaVuSans-31"/>
       <use x="63.623046875" xlink:href="#DejaVuSans-30"/>
      </g>
     </g>
    </g>
    <g id="ytick_4">
     <g id="line2d_29">
      <path clip-path="url(#p7ff5b81e1d)" d="
M72 216
L518.4 216" style="fill:none;stroke:#000000;stroke-dasharray:3.000000,5.000000,1.000000,5.000000;stroke-dashoffset:0.0;stroke-width:0.5;"/>
     </g>
     <g id="line2d_30">
      <g>
       <use style="stroke:#000000;stroke-width:0.5;" x="72.0" xlink:href="#md7965d1ba0" y="216.0"/>
      </g>
     </g>
     <g id="line2d_31">
      <g>
       <use style="stroke:#000000;stroke-width:0.5;" x="518.4" xlink:href="#md9a1c1a7cd" y="216.0"/>
      </g>
     </g>
     <g id="text_10">
      <!-- 15 -->
      <g transform="translate(55.09625 219.31125)scale(0.12 -0.12)">
       <use xlink:href="#DejaVuSans-31"/>
       <use x="63.623046875" xlink:href="#DejaVuSans-35"/>
      </g>
     </g>
    </g>
    <g id="ytick_5">
     <g id="line2d_32">
      <path clip-path="url(#p7ff5b81e1d)" d="
M72 158.4
L518.4 158.4" style="fill:none;stroke:#000000;stroke-dasharray:3.000000,5.000000,1.000000,5.000000;stroke-dashoffset:0.0;stroke-width:0.5;"/>
     </g>
     <g id="line2d_33">
      <g>
       <use style="stroke:#000000;stroke-width:0.5;" x="72.0" xlink:href="#md7965d1ba0" y="158.4"/>
      </g>
     </g>
     <g id="line2d_34">
      <g>
       <use style="stroke:#000000;stroke-width:0.5;" x="518.4" xlink:href="#md9a1c1a7cd" y="158.4"/>
      </g>
     </g>
     <g id="text_11">
      <!-- 20 -->
      <g transform="translate(54.40625 161.71125)scale(0.12 -0.12)">
       <use xlink:href="#DejaVuSans-32"/>
       <use x="63.623046875" xlink:href="#DejaVuSans-30"/>
      </g>
     </g>
    </g>
    <g id="ytick_6">
     <g id="line2d_35">
      <path clip-path="url(#p7ff5b81e1d)" d="
M72 100.8
L518.4 100.8" style="fill:none;stroke:#000000;stroke-dasharray:3.000000,5.000000,1.000000,5.000000;stroke-dashoffset:0.0;stroke-width:0.5;"/>
     </g>
     <g id="line2d_36">
      <g>
       <use style="stroke:#000000;stroke-width:0.5;" x="72.0" xlink:href="#md7965d1ba0" y="100.8"/>
      </g>
     </g>
     <g id="line2d_37">
      <g>
       <use style="stroke:#000000;stroke-width:0.5;" x="518.4" xlink:href="#md9a1c1a7cd" y="100.8"/>
      </g>
     </g>
     <g id="text_12">
      <!-- 25 -->
      <g transform="translate(54.6575 104.11125)scale(0.12 -0.12)">
       <use xlink:href="#DejaVuSans-32"/>
       <use x="63.623046875" xlink:href="#DejaVuSans-35"/>
      </g>
     </g>
    </g>
    <g id="ytick_7">
     <g id="line2d_38">
      <path clip-path="url(#p7ff5b81e1d)" d="
M72 43.2
L518.4 43.2" style="fill:none;stroke:#000000;stroke-dasharray:3.000000,5.000000,1.000000,5.000000;stroke-dashoffset:0.0;stroke-width:0.5;"/>
     </g>
     <g id="line2d_39">
      <g>
       <use style="stroke:#000000;stroke-width:0.5;" x="72.0" xlink:href="#md7965d1ba0" y="43.2"/>
      </g>
     </g>
     <g id="line2d_40">
      <g>
       <use style="stroke:#000000;stroke-width:0.5;" x="518.4" xlink:href="#md9a1c1a7cd" y="43.2"/>
      </g>
     </g>
     <g id="text_13">
      <!-- 30 -->
      <defs>
       <path d="
M40.5781 39.3125
Q47.6562 37.7969 51.625 33
Q55.6094 28.2188 55.6094 21.1875
Q55.6094 10.4062 48.1875 4.48438
Q40.7656 -1.42188 27.0938 -1.42188
Q22.5156 -1.42188 17.6562 -0.515625
Q12.7969 0.390625 7.625 2.20312
L7.625 11.7188
Q11.7188 9.32812 16.5938 8.10938
Q21.4844 6.89062 26.8125 6.89062
Q36.0781 6.89062 40.9375 10.5469
Q45.7969 14.2031 45.7969 21.1875
Q45.7969 27.6406 41.2812 31.2656
Q36.7656 34.9062 28.7188 34.9062
L20.2188 34.9062
L20.2188 43.0156
L29.1094 43.0156
Q36.375 43.0156 40.2344 45.9219
Q44.0938 48.8281 44.0938 54.2969
Q44.0938 59.9062 40.1094 62.9062
Q36.1406 65.9219 28.7188 65.9219
Q24.6562 65.9219 20.0156 65.0312
Q15.375 64.1562 9.8125 62.3125
L9.8125 71.0938
Q15.4375 72.6562 20.3438 73.4375
Q25.25 74.2188 29.5938 74.2188
Q40.8281 74.2188 47.3594 69.1094
Q53.9062 64.0156 53.9062 55.3281
Q53.9062 49.2656 50.4375 45.0938
Q46.9688 40.9219 40.5781 39.3125" id="DejaVuSans-33"/>
      </defs>
      <g transform="translate(54.441875 46.51125)scale(0.12 -0.12)">
       <use xlink:href="#DejaVuSans-33"/>
       <use x="63.623046875" xlink:href="#DejaVuSans-30"/>
      </g>
     </g>
    </g>
    <g id="text_14">
     <!-- myu_upper_p -->
     <defs>
      <path d="
M41.1094 46.2969
Q39.5938 47.1719 37.8125 47.5781
Q36.0312 48 33.8906 48
Q26.2656 48 22.1875 43.0469
Q18.1094 38.0938 18.1094 28.8125
L18.1094 0
L9.07812 0
L9.07812 54.6875
L18.1094 54.6875
L18.1094 46.1875
Q20.9531 51.1719 25.4844 53.5781
Q30.0312 56 36.5312 56
Q37.4531 56 38.5781 55.875
Q39.7031 55.7656 41.0625 55.5156
z
" id="DejaVuSans-72"/>
      <path d="
M50.9844 -16.6094
L50.9844 -23.5781
L-0.984375 -23.5781
L-0.984375 -16.6094
z
" id="DejaVuSans-5f"/>
      <path d="
M8.5 21.5781
L8.5 54.6875
L17.4844 54.6875
L17.4844 21.9219
Q17.4844 14.1562 20.5 10.2656
Q23.5312 6.39062 29.5938 6.39062
Q36.8594 6.39062 41.0781 11.0312
Q45.3125 15.6719 45.3125 23.6875
L45.3125 54.6875
L54.2969 54.6875
L54.2969 0
L45.3125 0
L45.3125 8.40625
Q42.0469 3.42188 37.7188 1
Q33.4062 -1.42188 27.6875 -1.42188
Q18.2656 -1.42188 13.375 4.4375
Q8.5 10.2969 8.5 21.5781
M31.1094 56
z
" id="DejaVuSans-75"/>
      <path d="
M32.1719 -5.07812
Q28.375 -14.8438 24.75 -17.8125
Q21.1406 -20.7969 15.0938 -20.7969
L7.90625 -20.7969
L7.90625 -13.2812
L13.1875 -13.2812
Q16.8906 -13.2812 18.9375 -11.5156
Q21 -9.76562 23.4844 -3.21875
L25.0938 0.875
L2.98438 54.6875
L12.5 54.6875
L29.5938 11.9219
L46.6875 54.6875
L56.2031 54.6875
z
" id="DejaVuSans-79"/>
      <path d="
M18.1094 8.20312
L18.1094 -20.7969
L9.07812 -20.7969
L9.07812 54.6875
L18.1094 54.6875
L18.1094 46.3906
Q20.9531 51.2656 25.2656 53.625
Q29.5938 56 35.5938 56
Q45.5625 56 51.7812 48.0938
Q58.0156 40.1875 58.0156 27.2969
Q58.0156 14.4062 51.7812 6.48438
Q45.5625 -1.42188 35.5938 -1.42188
Q29.5938 -1.42188 25.2656 0.953125
Q20.9531 3.32812 18.1094 8.20312
M48.6875 27.2969
Q48.6875 37.2031 44.6094 42.8438
Q40.5312 48.4844 33.4062 48.4844
Q26.2656 48.4844 22.1875 42.8438
Q18.1094 37.2031 18.1094 27.2969
Q18.1094 17.3906 22.1875 11.75
Q26.2656 6.10938 33.4062 6.10938
Q40.5312 6.10938 44.6094 11.75
Q48.6875 17.3906 48.6875 27.2969" id="DejaVuSans-70"/>
     </defs>
     <g transform="translate(46.1053125 262.33234375)rotate(-90.0)scale(0.14 -0.14)">
      <use xlink:href="#DejaVuSans-6d"/>
      <use x="97.412109375" xlink:href="#DejaVuSans-79"/>
      <use x="156.591796875" xlink:href="#DejaVuSans-75"/>
      <use x="219.970703125" xlink:href="#DejaVuSans-5f"/>
      <use x="269.970703125" xlink:href="#DejaVuSans-75"/>
      <use x="333.349609375" xlink:href="#DejaVuSans-70"/>
      <use x="396.826171875" xlink:href="#DejaVuSans-70"/>
      <use x="460.302734375" xlink:href="#DejaVuSans-65"/>
      <use x="521.826171875" xlink:href="#DejaVuSans-72"/>
      <use x="562.939453125" xlink:href="#DejaVuSans-5f"/>
      <use x="612.939453125" xlink:href="#DejaVuSans-70"/>
     </g>
    </g>
   </g>
   <g id="text_15">
    <!-- myu_upper_p -->
    <g transform="translate(248.86765625 38.2)scale(0.14 -0.14)">
     <use xlink:href="#DejaVuSans-6d"/>
     <use x="97.412109375" xlink:href="#DejaVuSans-79"/>
     <use x="156.591796875" xlink:href="#DejaVuSans-75"/>
     <use x="219.970703125" xlink:href="#DejaVuSans-5f"/>
     <use x="269.970703125" xlink:href="#DejaVuSans-75"/>
     <use x="333.349609375" xlink:href="#DejaVuSans-70"/>
     <use x="396.826171875" xlink:href="#DejaVuSans-70"/>
     <use x="460.302734375" xlink:href="#DejaVuSans-65"/>
     <use x="521.826171875" xlink:href="#DejaVuSans-72"/>
     <use x="562.939453125" xlink:href="#DejaVuSans-5f"/>
     <use x="612.939453125" xlink:href="#DejaVuSans-70"/>
    </g>
   </g>
   <g id="legend_1">
    <g id="patch_7">
     <path d="
M354.906 261.234
L511.2 261.234
L511.2 170.766
L354.906 170.766
z
" style="fill:#ffffff;stroke:#000000;stroke-linejoin:miter;"/>
    </g>
    <g id="line2d_41">
     <path d="
M364.986 182.428
L385.146 182.428" style="fill:none;stroke:#bf00bf;stroke-linecap:square;"/>
    </g>
    <g id="line2d_42"/>
    <g id="text_16">
     <!-- myu_upper_p1 -->
     <g transform="translate(400.986 187.46775)scale(0.144 -0.144)">
      <use xlink:href="#DejaVuSans-6d"/>
      <use x="97.412109375" xlink:href="#DejaVuSans-79"/>
      <use x="156.591796875" xlink:href="#DejaVuSans-75"/>
      <use x="219.970703125" xlink:href="#DejaVuSans-5f"/>
      <use x="269.970703125" xlink:href="#DejaVuSans-75"/>
      <use x="333.349609375" xlink:href="#DejaVuSans-70"/>
      <use x="396.826171875" xlink:href="#DejaVuSans-70"/>
      <use x="460.302734375" xlink:href="#DejaVuSans-65"/>
      <use x="521.826171875" xlink:href="#DejaVuSans-72"/>
      <use x="562.939453125" xlink:href="#DejaVuSans-5f"/>
      <use x="612.939453125" xlink:href="#DejaVuSans-70"/>
      <use x="676.416015625" xlink:href="#DejaVuSans-31"/>
     </g>
    </g>
    <g id="line2d_43">
     <path d="
M364.986 203.965
L385.146 203.965" style="fill:none;stroke:#00bfbf;stroke-linecap:square;"/>
    </g>
    <g id="line2d_44"/>
    <g id="text_17">
     <!-- myu_upper_p2 -->
     <g transform="translate(400.986 209.00475)scale(0.144 -0.144)">
      <use xlink:href="#DejaVuSans-6d"/>
      <use x="97.412109375" xlink:href="#DejaVuSans-79"/>
      <use x="156.591796875" xlink:href="#DejaVuSans-75"/>
      <use x="219.970703125" xlink:href="#DejaVuSans-5f"/>
      <use x="269.970703125" xlink:href="#DejaVuSans-75"/>
      <use x="333.349609375" xlink:href="#DejaVuSans-70"/>
      <use x="396.826171875" xlink:href="#DejaVuSans-70"/>
      <use x="460.302734375" xlink:href="#DejaVuSans-65"/>
      <use x="521.826171875" xlink:href="#DejaVuSans-72"/>
      <use x="562.939453125" xlink:href="#DejaVuSans-5f"/>
      <use x="612.939453125" xlink:href="#DejaVuSans-70"/>
      <use x="676.416015625" xlink:href="#DejaVuSans-32"/>
     </g>
    </g>
    <g id="line2d_45">
     <path d="
M364.986 225.502
L385.146 225.502" style="fill:none;stroke:#ff0000;stroke-linecap:square;"/>
    </g>
    <g id="line2d_46"/>
    <g id="text_18">
     <!-- myu_upper_p3 -->
     <g transform="translate(400.986 230.54175)scale(0.144 -0.144)">
      <use xlink:href="#DejaVuSans-6d"/>
      <use x="97.412109375" xlink:href="#DejaVuSans-79"/>
      <use x="156.591796875" xlink:href="#DejaVuSans-75"/>
      <use x="219.970703125" xlink:href="#DejaVuSans-5f"/>
      <use x="269.970703125" xlink:href="#DejaVuSans-75"/>
      <use x="333.349609375" xlink:href="#DejaVuSans-70"/>
      <use x="396.826171875" xlink:href="#DejaVuSans-70"/>
      <use x="460.302734375" xlink:href="#DejaVuSans-65"/>
      <use x="521.826171875" xlink:href="#DejaVuSans-72"/>
      <use x="562.939453125" xlink:href="#DejaVuSans-5f"/>
      <use x="612.939453125" xlink:href="#DejaVuSans-70"/>
      <use x="676.416015625" xlink:href="#DejaVuSans-33"/>
     </g>
    </g>
    <g id="line2d_47">
     <path d="
M364.986 247.039
L385.146 247.039" style="fill:none;stroke:#008000;stroke-linecap:square;"/>
    </g>
    <g id="line2d_48"/>
    <g id="text_19">
     <!-- myu_upper_p4 -->
     <defs>
      <path d="
M37.7969 64.3125
L12.8906 25.3906
L37.7969 25.3906
z

M35.2031 72.9062
L47.6094 72.9062
L47.6094 25.3906
L58.0156 25.3906
L58.0156 17.1875
L47.6094 17.1875
L47.6094 0
L37.7969 0
L37.7969 17.1875
L4.89062 17.1875
L4.89062 26.7031
z
" id="DejaVuSans-34"/>
     </defs>
     <g transform="translate(400.986 252.07875)scale(0.144 -0.144)">
      <use xlink:href="#DejaVuSans-6d"/>
      <use x="97.412109375" xlink:href="#DejaVuSans-79"/>
      <use x="156.591796875" xlink:href="#DejaVuSans-75"/>
      <use x="219.970703125" xlink:href="#DejaVuSans-5f"/>
      <use x="269.970703125" xlink:href="#DejaVuSans-75"/>
      <use x="333.349609375" xlink:href="#DejaVuSans-70"/>
      <use x="396.826171875" xlink:href="#DejaVuSans-70"/>
      <use x="460.302734375" xlink:href="#DejaVuSans-65"/>
      <use x="521.826171875" xlink:href="#DejaVuSans-72"/>
      <use x="562.939453125" xlink:href="#DejaVuSans-5f"/>
      <use x="612.939453125" xlink:href="#DejaVuSans-70"/>
      <use x="676.416015625" xlink:href="#DejaVuSans-34"/>
     </g>
    </g>
   </g>
  </g>
 </g>
 <defs>
  <clipPath id="p7ff5b81e1d">
   <rect height="345.6" width="446.4" x="72.0" y="43.2"/>
  </clipPath>
 </defs>
</svg>
