<?xml version="1.0" encoding="utf-8" standalone="no"?>
<!DOCTYPE svg PUBLIC "-//W3C//DTD SVG 1.1//EN"
  "http://www.w3.org/Graphics/SVG/1.1/DTD/svg11.dtd">
<!-- Created with matplotlib (http://matplotlib.org/) -->
<svg height="432pt" version="1.1" viewBox="0 0 576 432" width="576pt" xmlns="http://www.w3.org/2000/svg" xmlns:xlink="http://www.w3.org/1999/xlink">
 <defs>
  <style type="text/css">
*{stroke-linecap:butt;stroke-linejoin:round;}
  </style>
 </defs>
 <g id="figure_1">
  <g id="patch_1">
   <path d="M 0 432 
L 576 432 
L 576 0 
L 0 0 
z
" style="fill:#ffffff;"/>
  </g>
  <g id="axes_1">
   <g id="patch_2">
    <path d="M 72 384.48 
L 518.4 384.48 
L 518.4 51.84 
L 72 51.84 
z
" style="fill:#ffffff;"/>
   </g>
   <g id="matplotlib.axis_1">
    <g id="xtick_1">
     <g id="line2d_1">
      <path clip-path="url(#pacc9f0ef34)" d="M 92.290909 384.48 
L 92.290909 51.84 
" style="fill:none;stroke:#b0b0b0;stroke-dasharray:5.12,1.28,0.8,1.28;stroke-dashoffset:0;stroke-width:0.8;"/>
     </g>
     <g id="line2d_2">
      <defs>
       <path d="M 0 0 
L 0 3.5 
" id="md5bda0ed94" style="stroke:#000000;stroke-width:0.8;"/>
      </defs>
      <g>
       <use style="stroke:#000000;stroke-width:0.8;" x="92.290909" xlink:href="#md5bda0ed94" y="384.48"/>
      </g>
     </g>
     <g id="text_1">
      <!-- $0$ -->
      <defs>
       <path d="M 42 31.640625 
C 42 37.75 41.90625 48.125 37.703125 56.109375 
C 34 63.109375 28.09375 65.59375 22.90625 65.59375 
C 18.09375 65.59375 12 63.40625 8.203125 56.203125 
C 4.203125 48.71875 3.796875 39.4375 3.796875 31.640625 
C 3.796875 25.953125 3.90625 17.28125 7 9.671875 
C 11.296875 -0.609375 19 -2 22.90625 -2 
C 27.5 -2 34.5 -0.109375 38.59375 9.375 
C 41.59375 16.28125 42 24.359375 42 31.640625 
z
M 22.90625 -0.40625 
C 16.5 -0.40625 12.703125 5.078125 11.296875 12.6875 
C 10.203125 18.5625 10.203125 27.15625 10.203125 32.75 
C 10.203125 40.4375 10.203125 46.828125 11.5 52.921875 
C 13.40625 61.390625 19 64 22.90625 64 
C 27 64 32.296875 61.296875 34.203125 53.125 
C 35.5 47.4375 35.59375 40.734375 35.59375 32.75 
C 35.59375 26.25 35.59375 18.265625 34.40625 12.375 
C 32.296875 1.484375 26.40625 -0.40625 22.90625 -0.40625 
z
" id="CMR17-48"/>
      </defs>
      <g transform="translate(89.800241 398.398498)scale(0.1 -0.1)">
       <use transform="scale(0.996264)" xlink:href="#CMR17-48"/>
      </g>
     </g>
    </g>
    <g id="xtick_2">
     <g id="line2d_3">
      <path clip-path="url(#pacc9f0ef34)" d="M 190.838306 384.48 
L 190.838306 51.84 
" style="fill:none;stroke:#b0b0b0;stroke-dasharray:5.12,1.28,0.8,1.28;stroke-dashoffset:0;stroke-width:0.8;"/>
     </g>
     <g id="line2d_4">
      <g>
       <use style="stroke:#000000;stroke-width:0.8;" x="190.838306" xlink:href="#md5bda0ed94" y="384.48"/>
      </g>
     </g>
     <g id="text_2">
      <!-- $500$ -->
      <defs>
       <path d="M 11.40625 57.6875 
C 12.40625 57.28125 16.5 56 20.703125 56 
C 30 56 35.09375 61.109375 38 64.0625 
C 38 64.953125 38 65.5 37.40625 65.5 
C 37.296875 65.5 37.09375 65.5 36.296875 65.046875 
C 32.796875 63.40625 28.703125 62.078125 23.703125 62.078125 
C 20.703125 62.078125 16.203125 62.484375 11.296875 64.671875 
C 10.203125 65.171875 10 65.171875 9.90625 65.171875 
C 9.40625 65.171875 9.296875 65.0625 9.296875 63.078125 
L 9.296875 34.421875 
C 9.296875 32.640625 9.296875 32.140625 10.296875 32.140625 
C 10.796875 32.140625 11 32.34375 11.5 33.03125 
C 14.703125 37.515625 19.09375 39.40625 24.09375 39.40625 
C 27.59375 39.40625 35.09375 37.21875 35.09375 20.140625 
C 35.09375 16.953125 35.09375 11.171875 32.09375 6.578125 
C 29.59375 2.484375 25.703125 0.390625 21.40625 0.390625 
C 14.796875 0.390625 8.09375 5 6.296875 12.71875 
C 6.703125 12.609375 7.5 12.421875 7.90625 12.421875 
C 9.203125 12.421875 11.703125 13.125 11.703125 16.21875 
C 11.703125 18.90625 9.796875 20 7.90625 20 
C 5.59375 20 4.09375 18.59375 4.09375 15.796875 
C 4.09375 7.09375 11 -2 21.59375 -2 
C 31.90625 -2 41.703125 6.875 41.703125 19.75 
C 41.703125 31.71875 33.90625 41 24.203125 41 
C 19.09375 41 14.796875 39.109375 11.40625 35.53125 
z
" id="CMR17-53"/>
      </defs>
      <g transform="translate(183.366303 398.398498)scale(0.1 -0.1)">
       <use transform="scale(0.996264)" xlink:href="#CMR17-53"/>
       <use transform="translate(45.690477 0)scale(0.996264)" xlink:href="#CMR17-48"/>
       <use transform="translate(91.380954 0)scale(0.996264)" xlink:href="#CMR17-48"/>
      </g>
     </g>
    </g>
    <g id="xtick_3">
     <g id="line2d_5">
      <path clip-path="url(#pacc9f0ef34)" d="M 289.385704 384.48 
L 289.385704 51.84 
" style="fill:none;stroke:#b0b0b0;stroke-dasharray:5.12,1.28,0.8,1.28;stroke-dashoffset:0;stroke-width:0.8;"/>
     </g>
     <g id="line2d_6">
      <g>
       <use style="stroke:#000000;stroke-width:0.8;" x="289.385704" xlink:href="#md5bda0ed94" y="384.48"/>
      </g>
     </g>
     <g id="text_3">
      <!-- $1000$ -->
      <defs>
       <path d="M 26.59375 63.40625 
C 26.59375 65.5 26.5 65.5 25.09375 65.5 
C 21.203125 61.1875 15.296875 59.796875 9.703125 59.796875 
C 9.40625 59.796875 8.90625 59.796875 8.796875 59.5 
C 8.703125 59.296875 8.703125 59.09375 8.703125 57 
C 11.796875 57 17 57.59375 21 59.984375 
L 21 7.203125 
C 21 3.6875 20.796875 2.5 12.203125 2.5 
L 9.203125 2.5 
L 9.203125 0 
C 14 0 19 0 23.796875 0 
C 28.59375 0 33.59375 0 38.40625 0 
L 38.40625 2.5 
L 35.40625 2.5 
C 26.796875 2.5 26.59375 3.59375 26.59375 7.15625 
z
" id="CMR17-49"/>
      </defs>
      <g transform="translate(279.423033 398.398498)scale(0.1 -0.1)">
       <use transform="scale(0.996264)" xlink:href="#CMR17-49"/>
       <use transform="translate(45.690477 0)scale(0.996264)" xlink:href="#CMR17-48"/>
       <use transform="translate(91.380954 0)scale(0.996264)" xlink:href="#CMR17-48"/>
       <use transform="translate(137.071431 0)scale(0.996264)" xlink:href="#CMR17-48"/>
      </g>
     </g>
    </g>
    <g id="xtick_4">
     <g id="line2d_7">
      <path clip-path="url(#pacc9f0ef34)" d="M 387.933101 384.48 
L 387.933101 51.84 
" style="fill:none;stroke:#b0b0b0;stroke-dasharray:5.12,1.28,0.8,1.28;stroke-dashoffset:0;stroke-width:0.8;"/>
     </g>
     <g id="line2d_8">
      <g>
       <use style="stroke:#000000;stroke-width:0.8;" x="387.933101" xlink:href="#md5bda0ed94" y="384.48"/>
      </g>
     </g>
     <g id="text_4">
      <!-- $1500$ -->
      <g transform="translate(377.97043 398.398498)scale(0.1 -0.1)">
       <use transform="scale(0.996264)" xlink:href="#CMR17-49"/>
       <use transform="translate(45.690477 0)scale(0.996264)" xlink:href="#CMR17-53"/>
       <use transform="translate(91.380954 0)scale(0.996264)" xlink:href="#CMR17-48"/>
       <use transform="translate(137.071431 0)scale(0.996264)" xlink:href="#CMR17-48"/>
      </g>
     </g>
    </g>
    <g id="xtick_5">
     <g id="line2d_9">
      <path clip-path="url(#pacc9f0ef34)" d="M 486.480498 384.48 
L 486.480498 51.84 
" style="fill:none;stroke:#b0b0b0;stroke-dasharray:5.12,1.28,0.8,1.28;stroke-dashoffset:0;stroke-width:0.8;"/>
     </g>
     <g id="line2d_10">
      <g>
       <use style="stroke:#000000;stroke-width:0.8;" x="486.480498" xlink:href="#md5bda0ed94" y="384.48"/>
      </g>
     </g>
     <g id="text_5">
      <!-- $2000$ -->
      <defs>
       <path d="M 41.703125 15.453125 
L 39.90625 15.453125 
C 38.90625 8.375 38.09375 7.171875 37.703125 6.5625 
C 37.203125 5.765625 30 5.765625 28.59375 5.765625 
L 9.40625 5.765625 
C 13 9.671875 20 16.75 28.5 24.953125 
C 34.59375 30.734375 41.703125 37.53125 41.703125 47.421875 
C 41.703125 59.21875 32.296875 66 21.796875 66 
C 10.796875 66 4.09375 56.3125 4.09375 47.34375 
C 4.09375 43.4375 7 42.9375 8.203125 42.9375 
C 9.203125 42.9375 12.203125 43.546875 12.203125 47.03125 
C 12.203125 50.109375 9.59375 51 8.203125 51 
C 7.59375 51 7 50.90625 6.59375 50.703125 
C 8.5 59.21875 14.296875 63.40625 20.40625 63.40625 
C 29.09375 63.40625 34.796875 56.515625 34.796875 47.421875 
C 34.796875 38.734375 29.703125 31.25 24 24.75 
L 4.09375 2.28125 
L 4.09375 0 
L 39.296875 0 
z
" id="CMR17-50"/>
      </defs>
      <g transform="translate(476.517828 398.398498)scale(0.1 -0.1)">
       <use transform="scale(0.996264)" xlink:href="#CMR17-50"/>
       <use transform="translate(45.690477 0)scale(0.996264)" xlink:href="#CMR17-48"/>
       <use transform="translate(91.380954 0)scale(0.996264)" xlink:href="#CMR17-48"/>
       <use transform="translate(137.071431 0)scale(0.996264)" xlink:href="#CMR17-48"/>
      </g>
     </g>
    </g>
    <g id="text_6">
     <!-- Iteration -->
     <defs>
      <path d="M 17.09375 69 
L 8.703125 69 
L 8.703125 0 
L 17.09375 0 
z
" id="CMSS17-73"/>
      <path d="M 16.703125 37 
L 29.703125 37 
L 29.703125 42.765625 
L 16.703125 42.765625 
L 16.703125 55 
L 9.59375 55 
L 9.59375 42.765625 
L 1.703125 42.765625 
L 1.703125 37 
L 9.40625 37 
L 9.40625 11.703125 
C 9.40625 6 10.703125 -1 17.296875 -1 
C 22.296875 -1 26.90625 0.390625 31.296875 2.6875 
L 29.703125 8.5625 
C 27.296875 6.46875 24.40625 5.265625 21.296875 5.265625 
C 16.90625 5.265625 16.703125 10.875 16.703125 13.375 
z
" id="CMSS17-116"/>
      <path d="M 39.09375 21.515625 
C 39.09375 24.84375 38.90625 31.296875 35.703125 36.640625 
C 32.203125 42.390625 26.5 44 22.203125 44 
C 11.796875 44 3 34.1875 3 21.484375 
C 3 9.09375 12.09375 -1 23.59375 -1 
C 28.09375 -1 33.59375 0.296875 38.59375 3.875 
C 38.59375 4.28125 38.40625 6.46875 38.296875 6.5625 
C 38.296875 6.765625 38 9.84375 38 10.25 
C 33.203125 6.359375 27.703125 5.078125 23.703125 5.078125 
C 17.296875 5.078125 10.40625 10.421875 10.09375 21.515625 
z
M 10.90625 27 
C 12.203125 32.5625 16.59375 37.828125 22.203125 37.828125 
C 23.703125 37.828125 30.703125 37.828125 32.5 27 
z
" id="CMSS17-101"/>
      <path d="M 14.90625 21.296875 
C 14.90625 30.703125 21.796875 37 30.59375 37 
L 30.59375 43.578125 
C 24.203125 43.578125 18.203125 40.390625 14.59375 35.203125 
L 14.59375 43.09375 
L 7.5 43.09375 
L 7.5 0 
L 14.90625 0 
z
" id="CMSS17-114"/>
      <path d="M 37.59375 27.984375 
C 37.59375 37.375 30.90625 43.875 21.90625 43.875 
C 17.5 43.875 12.703125 43.078125 7.203125 39.890625 
L 7.796875 33.359375 
C 10.296875 35.125 14.59375 38 21.796875 38 
C 26.90625 38 30 34.0625 30 27.84375 
L 30 24 
C 14 24 4 19.34375 4 11.34375 
C 4 7.203125 6.5 -1 14.796875 -1 
C 16.296875 -1 24.40625 -1 30.203125 3.390625 
L 30.203125 -0.296875 
L 37.59375 -0.296875 
z
M 30 12.75 
C 30 10.953125 30 8.5625 27 6.78125 
C 24.40625 5.078125 21.09375 5.078125 19.703125 5.078125 
C 14.703125 5.078125 11.296875 7.984375 11.296875 11.625 
C 11.296875 18.921875 26.90625 18.921875 30 18.921875 
z
" id="CMSS17-97"/>
      <path d="M 15.296875 65.359375 
L 6.90625 65.359375 
L 6.90625 57 
L 15.296875 57 
z
M 14.796875 42.796875 
L 7.40625 42.796875 
L 7.40625 0 
L 14.796875 0 
z
" id="CMSS17-105"/>
      <path d="M 44.203125 21.1875 
C 44.203125 34 34.703125 44 23.5 44 
C 12 44 2.703125 33.703125 2.703125 21.1875 
C 2.703125 8.5 12.296875 -1 23.40625 -1 
C 34.796875 -1 44.203125 8.796875 44.203125 21.1875 
z
M 23.5 5.265625 
C 16.40625 5.265625 10.296875 11.078125 10.296875 22 
C 10.296875 33.609375 17.40625 37.921875 23.40625 37.921875 
C 29.90625 37.921875 36.59375 33.21875 36.59375 22 
C 36.59375 10.671875 30.09375 5.265625 23.5 5.265625 
z
" id="CMSS17-111"/>
      <path d="M 40.90625 29.328125 
C 40.90625 35.671875 39.40625 44 28.09375 44 
C 21.703125 44 17.5 40.71875 14.703125 37.328125 
L 14.703125 43.09375 
L 7.40625 43.09375 
L 7.40625 0 
L 15 0 
L 15 24.359375 
C 15 30.6875 17.40625 37.9375 24.203125 37.9375 
C 33 37.9375 33.296875 32 33.296875 28.578125 
L 33.296875 0 
L 40.90625 0 
z
" id="CMSS17-110"/>
     </defs>
     <g transform="translate(271.264003 414.021553)scale(0.14 -0.14)">
      <use transform="scale(0.996264)" xlink:href="#CMSS17-73"/>
      <use transform="translate(25.783926 0)scale(0.996264)" xlink:href="#CMSS17-116"/>
      <use transform="translate(59.615492 0)scale(0.996264)" xlink:href="#CMSS17-101"/>
      <use transform="translate(101.254314 0)scale(0.996264)" xlink:href="#CMSS17-114"/>
      <use transform="translate(133.164087 0)scale(0.996264)" xlink:href="#CMSS17-97"/>
      <use transform="translate(178.086007 0)scale(0.996264)" xlink:href="#CMSS17-116"/>
      <use transform="translate(211.917574 0)scale(0.996264)" xlink:href="#CMSS17-105"/>
      <use transform="translate(234.098297 0)scale(0.996264)" xlink:href="#CMSS17-111"/>
      <use transform="translate(280.941921 0)scale(0.996264)" xlink:href="#CMSS17-110"/>
     </g>
    </g>
   </g>
   <g id="matplotlib.axis_2">
    <g id="ytick_1">
     <g id="line2d_11">
      <path clip-path="url(#pacc9f0ef34)" d="M 72 383.354922 
L 518.4 383.354922 
" style="fill:none;stroke:#b0b0b0;stroke-dasharray:5.12,1.28,0.8,1.28;stroke-dashoffset:0;stroke-width:0.8;"/>
     </g>
     <g id="line2d_12">
      <defs>
       <path d="M 0 0 
L -3.5 0 
" id="m66a41c33f7" style="stroke:#000000;stroke-width:0.8;"/>
      </defs>
      <g>
       <use style="stroke:#000000;stroke-width:0.8;" x="72" xlink:href="#m66a41c33f7" y="383.354922"/>
      </g>
     </g>
     <g id="text_7">
      <!-- $-1200$ -->
      <defs>
       <path d="M 65.90625 23 
C 67.59375 23 69.40625 23 69.40625 25 
C 69.40625 27 67.59375 27 65.90625 27 
L 11.796875 27 
C 10.09375 27 8.296875 27 8.296875 25 
C 8.296875 23 10.09375 23 11.796875 23 
z
" id="CMSY10-0"/>
      </defs>
      <g transform="translate(37.325915 386.814171)scale(0.1 -0.1)">
       <use transform="scale(0.996264)" xlink:href="#CMSY10-0"/>
       <use transform="translate(77.487468 0)scale(0.996264)" xlink:href="#CMR17-49"/>
       <use transform="translate(123.177945 0)scale(0.996264)" xlink:href="#CMR17-50"/>
       <use transform="translate(168.868422 0)scale(0.996264)" xlink:href="#CMR17-48"/>
       <use transform="translate(214.558899 0)scale(0.996264)" xlink:href="#CMR17-48"/>
      </g>
     </g>
    </g>
    <g id="ytick_2">
     <g id="line2d_13">
      <path clip-path="url(#pacc9f0ef34)" d="M 72 337.175596 
L 518.4 337.175596 
" style="fill:none;stroke:#b0b0b0;stroke-dasharray:5.12,1.28,0.8,1.28;stroke-dashoffset:0;stroke-width:0.8;"/>
     </g>
     <g id="line2d_14">
      <g>
       <use style="stroke:#000000;stroke-width:0.8;" x="72" xlink:href="#m66a41c33f7" y="337.175596"/>
      </g>
     </g>
     <g id="text_8">
      <!-- $-1000$ -->
      <g transform="translate(37.325915 340.634846)scale(0.1 -0.1)">
       <use transform="scale(0.996264)" xlink:href="#CMSY10-0"/>
       <use transform="translate(77.487468 0)scale(0.996264)" xlink:href="#CMR17-49"/>
       <use transform="translate(123.177945 0)scale(0.996264)" xlink:href="#CMR17-48"/>
       <use transform="translate(168.868422 0)scale(0.996264)" xlink:href="#CMR17-48"/>
       <use transform="translate(214.558899 0)scale(0.996264)" xlink:href="#CMR17-48"/>
      </g>
     </g>
    </g>
    <g id="ytick_3">
     <g id="line2d_15">
      <path clip-path="url(#pacc9f0ef34)" d="M 72 290.996271 
L 518.4 290.996271 
" style="fill:none;stroke:#b0b0b0;stroke-dasharray:5.12,1.28,0.8,1.28;stroke-dashoffset:0;stroke-width:0.8;"/>
     </g>
     <g id="line2d_16">
      <g>
       <use style="stroke:#000000;stroke-width:0.8;" x="72" xlink:href="#m66a41c33f7" y="290.996271"/>
      </g>
     </g>
     <g id="text_9">
      <!-- $-800$ -->
      <defs>
       <path d="M 27.203125 35.375 
C 33.5 38.546875 39.90625 43.328125 39.90625 50.984375 
C 39.90625 60.015625 31.09375 65.296875 23 65.296875 
C 13.90625 65.296875 5.90625 58.734375 5.90625 49.6875 
C 5.90625 47.203125 6.5 42.921875 10.40625 39.140625 
C 11.40625 38.15625 15.59375 35.171875 18.296875 33.28125 
C 13.796875 30.984375 3.296875 25.53125 3.296875 14.59375 
C 3.296875 4.359375 13.09375 -2 22.796875 -2 
C 33.5 -2 42.5 5.65625 42.5 15.78125 
C 42.5 24.84375 36.40625 29.015625 32.40625 31.703125 
z
M 14.09375 44.09375 
C 13.296875 44.59375 9.296875 47.671875 9.296875 52.359375 
C 9.296875 58.421875 15.59375 63 22.796875 63 
C 30.703125 63 36.5 57.4375 36.5 50.96875 
C 36.5 41.703125 26.09375 36.421875 25.59375 36.421875 
C 25.5 36.421875 25.40625 36.421875 24.59375 37.03125 
z
M 32.5 23.734375 
C 34 22.640625 38.796875 19.375 38.796875 13.296875 
C 38.796875 5.953125 31.40625 0.390625 23 0.390625 
C 13.90625 0.390625 7 6.84375 7 14.6875 
C 7 22.546875 13.09375 29.09375 20 32.1875 
z
" id="CMR17-56"/>
      </defs>
      <g transform="translate(42.307251 294.45552)scale(0.1 -0.1)">
       <use transform="scale(0.996264)" xlink:href="#CMSY10-0"/>
       <use transform="translate(77.487468 0)scale(0.996264)" xlink:href="#CMR17-56"/>
       <use transform="translate(123.177945 0)scale(0.996264)" xlink:href="#CMR17-48"/>
       <use transform="translate(168.868422 0)scale(0.996264)" xlink:href="#CMR17-48"/>
      </g>
     </g>
    </g>
    <g id="ytick_4">
     <g id="line2d_17">
      <path clip-path="url(#pacc9f0ef34)" d="M 72 244.816946 
L 518.4 244.816946 
" style="fill:none;stroke:#b0b0b0;stroke-dasharray:5.12,1.28,0.8,1.28;stroke-dashoffset:0;stroke-width:0.8;"/>
     </g>
     <g id="line2d_18">
      <g>
       <use style="stroke:#000000;stroke-width:0.8;" x="72" xlink:href="#m66a41c33f7" y="244.816946"/>
      </g>
     </g>
     <g id="text_10">
      <!-- $-600$ -->
      <defs>
       <path d="M 10.59375 34 
C 10.59375 57.65625 21.796875 63 28.296875 63 
C 30.40625 63 35.5 62.640625 37.5 59 
C 35.90625 59 32.90625 59 32.90625 55.515625 
C 32.90625 52.828125 35.09375 51.921875 36.5 51.921875 
C 37.40625 51.921875 40.09375 52.3125 40.09375 55.625 
C 40.09375 61.78125 35.09375 65.296875 28.203125 65.296875 
C 16.296875 65.296875 3.796875 52.96875 3.796875 31 
C 3.796875 3.953125 15.09375 -2 23.09375 -2 
C 32.796875 -2 42 6.671875 42 20.046875 
C 42 32.515625 33.90625 41.59375 23.703125 41.59375 
C 17.59375 41.59375 13.09375 37.609375 10.59375 30.625 
z
M 23.09375 0.390625 
C 10.796875 0.390625 10.796875 18.75 10.796875 22.4375 
C 10.796875 29.625 14.203125 40 23.5 40 
C 25.203125 40 30.09375 40 33.40625 33.125 
C 35.203125 29.21875 35.203125 25.140625 35.203125 20.140625 
C 35.203125 14.75 35.203125 10.78125 33.09375 6.78125 
C 30.90625 2.671875 27.703125 0.390625 23.09375 0.390625 
z
" id="CMR17-54"/>
      </defs>
      <g transform="translate(42.307251 248.276195)scale(0.1 -0.1)">
       <use transform="scale(0.996264)" xlink:href="#CMSY10-0"/>
       <use transform="translate(77.487468 0)scale(0.996264)" xlink:href="#CMR17-54"/>
       <use transform="translate(123.177945 0)scale(0.996264)" xlink:href="#CMR17-48"/>
       <use transform="translate(168.868422 0)scale(0.996264)" xlink:href="#CMR17-48"/>
      </g>
     </g>
    </g>
    <g id="ytick_5">
     <g id="line2d_19">
      <path clip-path="url(#pacc9f0ef34)" d="M 72 198.637621 
L 518.4 198.637621 
" style="fill:none;stroke:#b0b0b0;stroke-dasharray:5.12,1.28,0.8,1.28;stroke-dashoffset:0;stroke-width:0.8;"/>
     </g>
     <g id="line2d_20">
      <g>
       <use style="stroke:#000000;stroke-width:0.8;" x="72" xlink:href="#m66a41c33f7" y="198.637621"/>
      </g>
     </g>
     <g id="text_11">
      <!-- $-400$ -->
      <defs>
       <path d="M 33.59375 64.40625 
C 33.59375 66.5 33.5 66.5 31.703125 66.5 
L 2 19.59375 
L 2 17 
L 27.796875 17 
L 27.796875 7.140625 
C 27.796875 3.5 27.59375 2.5 20.59375 2.5 
L 18.703125 2.5 
L 18.703125 0 
C 21.90625 0 27.296875 0 30.703125 0 
C 34.09375 0 39.5 0 42.703125 0 
L 42.703125 2.5 
L 40.796875 2.5 
C 33.796875 2.5 33.59375 3.5 33.59375 7.140625 
L 33.59375 17 
L 43.796875 17 
L 43.796875 19.59375 
L 33.59375 19.59375 
z
M 28.09375 57.859375 
L 28.09375 19.59375 
L 4 19.59375 
z
" id="CMR17-52"/>
      </defs>
      <g transform="translate(42.307251 202.09687)scale(0.1 -0.1)">
       <use transform="scale(0.996264)" xlink:href="#CMSY10-0"/>
       <use transform="translate(77.487468 0)scale(0.996264)" xlink:href="#CMR17-52"/>
       <use transform="translate(123.177945 0)scale(0.996264)" xlink:href="#CMR17-48"/>
       <use transform="translate(168.868422 0)scale(0.996264)" xlink:href="#CMR17-48"/>
      </g>
     </g>
    </g>
    <g id="ytick_6">
     <g id="line2d_21">
      <path clip-path="url(#pacc9f0ef34)" d="M 72 152.458296 
L 518.4 152.458296 
" style="fill:none;stroke:#b0b0b0;stroke-dasharray:5.12,1.28,0.8,1.28;stroke-dashoffset:0;stroke-width:0.8;"/>
     </g>
     <g id="line2d_22">
      <g>
       <use style="stroke:#000000;stroke-width:0.8;" x="72" xlink:href="#m66a41c33f7" y="152.458296"/>
      </g>
     </g>
     <g id="text_12">
      <!-- $-200$ -->
      <g transform="translate(42.307251 155.917545)scale(0.1 -0.1)">
       <use transform="scale(0.996264)" xlink:href="#CMSY10-0"/>
       <use transform="translate(77.487468 0)scale(0.996264)" xlink:href="#CMR17-50"/>
       <use transform="translate(123.177945 0)scale(0.996264)" xlink:href="#CMR17-48"/>
       <use transform="translate(168.868422 0)scale(0.996264)" xlink:href="#CMR17-48"/>
      </g>
     </g>
    </g>
    <g id="ytick_7">
     <g id="line2d_23">
      <path clip-path="url(#pacc9f0ef34)" d="M 72 106.278971 
L 518.4 106.278971 
" style="fill:none;stroke:#b0b0b0;stroke-dasharray:5.12,1.28,0.8,1.28;stroke-dashoffset:0;stroke-width:0.8;"/>
     </g>
     <g id="line2d_24">
      <g>
       <use style="stroke:#000000;stroke-width:0.8;" x="72" xlink:href="#m66a41c33f7" y="106.278971"/>
      </g>
     </g>
     <g id="text_13">
      <!-- $0$ -->
      <g transform="translate(60.018665 109.73822)scale(0.1 -0.1)">
       <use transform="scale(0.996264)" xlink:href="#CMR17-48"/>
      </g>
     </g>
    </g>
    <g id="ytick_8">
     <g id="line2d_25">
      <path clip-path="url(#pacc9f0ef34)" d="M 72 60.099646 
L 518.4 60.099646 
" style="fill:none;stroke:#b0b0b0;stroke-dasharray:5.12,1.28,0.8,1.28;stroke-dashoffset:0;stroke-width:0.8;"/>
     </g>
     <g id="line2d_26">
      <g>
       <use style="stroke:#000000;stroke-width:0.8;" x="72" xlink:href="#m66a41c33f7" y="60.099646"/>
      </g>
     </g>
     <g id="text_14">
      <!-- $200$ -->
      <g transform="translate(50.055994 63.558895)scale(0.1 -0.1)">
       <use transform="scale(0.996264)" xlink:href="#CMR17-50"/>
       <use transform="translate(45.690477 0)scale(0.996264)" xlink:href="#CMR17-48"/>
       <use transform="translate(91.380954 0)scale(0.996264)" xlink:href="#CMR17-48"/>
      </g>
     </g>
    </g>
    <g id="text_15">
     <!-- $\partial \mathcal{L}/ \partial u_{m}[m.u/V]$ -->
     <defs>
      <path d="M 45.40625 33.515625 
C 44.796875 39.125 41.296875 45.859375 32.296875 45.859375 
C 18.203125 45.859375 3.796875 31.515625 3.796875 15.5625 
C 3.796875 9.4375 8 -2.09375 21.59375 -2.09375 
C 45.203125 -2.09375 55.296875 32.296875 55.296875 46 
C 55.296875 60.40625 47.203125 71.5 34.40625 71.5 
C 19.90625 71.5 15.59375 58.796875 15.59375 56.09375 
C 15.59375 55.203125 16.203125 53 19 53 
C 22.5 53 24 56.203125 24 57.90625 
C 24 61 20.90625 61 19.59375 61 
C 23.703125 68.40625 31.296875 69.09375 34 69.09375 
C 42.796875 69.09375 48.40625 62.109375 48.40625 50.96875 
C 48.40625 44.578125 46.5 37.1875 45.5 33.515625 
z
M 21.90625 0.59375 
C 12.5 0.59375 10.90625 8.03125 10.90625 12.25 
C 10.90625 16.65625 13.703125 27 15.203125 30.703125 
C 16.5 33.71875 22.203125 43.859375 32.59375 43.859375 
C 41.703125 43.859375 43.796875 35.921875 43.796875 30.515625 
C 43.796875 23.078125 37.296875 0.59375 21.90625 0.59375 
z
" id="CMMI12-64"/>
      <path d="M 18 9.53125 
C 23.40625 17.984375 25.09375 24.40625 26.40625 29.734375 
C 29.90625 43.59375 33.703125 55.65625 39.90625 62.578125 
C 41.09375 63.90625 41.90625 64.796875 45.09375 64.796875 
C 52 64.796875 52.203125 57.875 52.203125 56.453125 
C 52.203125 54.65625 51.703125 53.234375 51.703125 52.734375 
C 51.703125 52.03125 52.296875 52.03125 52.40625 52.03125 
C 54 52.03125 56.703125 53.140625 59.203125 54.953125 
C 61 56.359375 61.90625 57.359375 61.90625 61.46875 
C 61.90625 66.890625 59.09375 71 53.5 71 
C 50.296875 71 41.5 70.203125 31.703125 60.25 
C 23.703125 52.015625 19 33.9375 17.09375 26.40625 
C 15.296875 19.5 14.5 16.375 11.5 10.34375 
C 10.796875 9.15625 8.203125 4.734375 6.796875 3.421875 
C 4.09375 0.921875 3.09375 -0.890625 3.09375 -1.390625 
C 3.09375 -1.59375 3.296875 -2 4 -2 
C 4.40625 -2 6.5 -1.59375 9.09375 0.078125 
C 10.796875 1.0625 11 1.25 13.296875 3.609375 
C 18.296875 3.609375 21.796875 2.703125 28.09375 0.90625 
C 33.203125 -0.5 38.296875 -2 43.40625 -2 
C 51.5 -2 59.703125 4.125 62.90625 8.53125 
C 64.90625 11.234375 65.5 13.75 65.5 14.046875 
C 65.5 14.75 64.90625 14.75 64.796875 14.75 
C 63.203125 14.75 60.796875 13.65625 59.09375 12.4375 
C 56.40625 10.734375 56.203125 10.140625 55.59375 8.421875 
C 55.09375 6.8125 54.5 6.015625 54.09375 5.40625 
C 53.296875 4.203125 53.203125 4.203125 51.703125 4.203125 
C 46.90625 4.203125 41.90625 5.71875 35.296875 7.515625 
C 32.5 8.3125 27 9.9375 22 9.9375 
C 20.703125 9.9375 19.296875 9.828125 18 9.53125 
z
" id="CMSY10-76"/>
      <path d="M 42.90625 71.28125 
C 42.90625 71.390625 43.5 72.90625 43.5 73.09375 
C 43.5 74.296875 42.5 75 41.703125 75 
C 41.203125 75 40.296875 75 39.5 72.796875 
L 6 -21.296875 
C 6 -21.40625 5.40625 -22.890625 5.40625 -23.09375 
C 5.40625 -24.296875 6.40625 -25 7.203125 -25 
C 7.796875 -25 8.703125 -24.890625 9.40625 -22.796875 
z
" id="CMMI12-61"/>
      <path d="M 34.09375 5.78125 
C 35.40625 0.203125 40.203125 -1 42.59375 -1 
C 45.796875 -1 48.203125 1.09375 49.796875 4.484375 
C 51.5 8.078125 52.796875 13.96875 52.796875 14.265625 
C 52.796875 14.765625 52.40625 15.171875 51.796875 15.171875 
C 50.90625 15.171875 50.796875 14.671875 50.40625 13.171875 
C 48.59375 6.28125 46.796875 1 42.796875 1 
C 39.796875 1 39.796875 4.296875 39.796875 5.59375 
C 39.796875 7.890625 40.09375 8.875 41.09375 13.078125 
C 41.796875 15.765625 42.5 18.453125 43.09375 21.25 
L 47.203125 37.515625 
C 47.90625 40.015625 47.90625 40.21875 47.90625 40.515625 
C 47.90625 42.015625 46.703125 43.015625 45.203125 43.015625 
C 42.296875 43.015625 41.59375 40.515625 41 38.015625 
C 40 34.125 34.59375 12.671875 33.90625 9.1875 
C 33.796875 9.1875 29.90625 1 22.59375 1 
C 17.40625 1 16.40625 5.484375 16.40625 9.1875 
C 16.40625 14.875 19.203125 22.84375 21.796875 29.53125 
C 23 32.734375 23.5 34.03125 23.5 36.015625 
C 23.5 40.3125 20.40625 44 15.59375 44 
C 6.40625 44 2.703125 29.53125 2.703125 28.734375 
C 2.703125 28.34375 3.09375 27.84375 3.796875 27.84375 
C 4.703125 27.84375 4.796875 28.234375 5.203125 29.625 
C 7.59375 38.140625 11.5 41.90625 15.296875 41.90625 
C 16.296875 41.90625 17.90625 41.90625 17.90625 38.71875 
C 17.90625 36.125 16.796875 33.234375 15.296875 29.4375 
C 10.90625 17.5625 10.40625 13.765625 10.40625 10.78125 
C 10.40625 0.59375 18.09375 -1 22.203125 -1 
C 28.59375 -1 32.09375 3.390625 34.09375 5.78125 
z
" id="CMMI12-117"/>
      <path d="M 20.59375 29.234375 
C 20.796875 29.84375 23.296875 34.828125 27 38.015625 
C 29.59375 40.40625 33 42.015625 36.90625 42.015625 
C 40.90625 42.015625 42.296875 39.015625 42.296875 35.03125 
C 42.296875 34.421875 42.296875 32.4375 41.09375 27.734375 
L 38.59375 17.46875 
C 37.796875 14.46875 35.90625 7.078125 35.703125 5.984375 
C 35.296875 4.484375 34.703125 1.890625 34.703125 1.5 
C 34.703125 0.09375 35.796875 -1 37.296875 -1 
C 40.296875 -1 40.796875 1.296875 41.703125 4.890625 
L 47.703125 28.734375 
C 47.90625 29.53125 53.09375 42.015625 64.09375 42.015625 
C 68.09375 42.015625 69.5 39.015625 69.5 35.03125 
C 69.5 29.4375 65.59375 18.5625 63.40625 12.578125 
C 62.5 10.171875 62 8.875 62 7.078125 
C 62 2.59375 65.09375 -1 69.90625 -1 
C 79.203125 -1 82.703125 13.671875 82.703125 14.265625 
C 82.703125 14.765625 82.296875 15.171875 81.703125 15.171875 
C 80.796875 15.171875 80.703125 14.875 80.203125 13.171875 
C 77.90625 5.1875 74.203125 1 70.203125 1 
C 69.203125 1 67.59375 1 67.59375 4.203125 
C 67.59375 6.8125 68.796875 10 69.203125 11.09375 
C 71 15.90625 75.5 27.703125 75.5 33.515625 
C 75.5 39.5 72 44 64.40625 44 
C 57.703125 44 52.296875 40.21875 48.296875 34.328125 
C 48 39.71875 44.703125 44 37.203125 44 
C 28.296875 44 23.59375 37.734375 21.796875 35.234375 
C 21.5 40.90625 17.40625 44 13 44 
C 10.09375 44 7.796875 42.609375 5.90625 38.8125 
C 4.09375 35.21875 2.703125 29.140625 2.703125 28.734375 
C 2.703125 28.34375 3.09375 27.84375 3.796875 27.84375 
C 4.59375 27.84375 4.703125 27.9375 5.296875 30.234375 
C 6.796875 36.125 8.703125 42.015625 12.703125 42.015625 
C 15 42.015625 15.796875 40.40625 15.796875 37.421875 
C 15.796875 35.21875 14.796875 31.328125 14.09375 28.234375 
L 11.296875 17.46875 
C 10.90625 15.5625 9.796875 11.078125 9.296875 9.28125 
C 8.59375 6.6875 7.5 2 7.5 1.5 
C 7.5 0.09375 8.59375 -1 10.09375 -1 
C 11.296875 -1 12.703125 -0.40625 13.5 1.09375 
C 13.703125 1.59375 14.59375 5.09375 15.09375 7.078125 
L 17.296875 16.0625 
z
" id="CMMI12-109"/>
      <path d="M 23.5 -25 
L 23.5 -21.515625 
L 14.09375 -21.515625 
L 14.09375 71 
L 23.5 71 
L 23.5 74.484375 
L 10.59375 74.484375 
L 10.59375 -25 
z
" id="CMR17-91"/>
      <path d="M 18.40625 4.796875 
C 18.40625 7.6875 16 9.671875 13.59375 9.671875 
C 10.703125 9.671875 8.703125 7.28125 8.703125 4.890625 
C 8.703125 2 11.09375 0 13.5 0 
C 16.40625 0 18.40625 2.390625 18.40625 4.796875 
z
" id="CMMI12-58"/>
      <path d="M 61.90625 56.875 
C 65.296875 62.25 68.40625 64.625 73.5 65.03125 
C 74.5 65.125 75.296875 65.125 75.296875 66.90625 
C 75.296875 67.3125 75.09375 67.90625 74.203125 67.90625 
C 72.40625 67.90625 68.09375 67.90625 66.296875 67.90625 
C 63.40625 67.90625 60.40625 67.90625 57.59375 67.90625 
C 56.796875 67.90625 55.796875 67.90625 55.796875 66.03125 
C 55.796875 65.125 56.703125 65.03125 57.09375 65.03125 
C 60.796875 64.734375 61.203125 62.953125 61.203125 61.75 
C 61.203125 60.265625 59.796875 57.96875 59.703125 57.875 
L 28.296875 8.4375 
L 21.296875 62.015625 
C 21.296875 65 26.5 65 27.59375 65 
C 29.09375 65 30 65 30 66.90625 
C 30 67.90625 28.90625 67.90625 28.59375 67.90625 
C 26.90625 67.90625 24.90625 67.90625 23.203125 67.90625 
L 17.59375 67.90625 
C 10.296875 67.90625 7.296875 67.90625 7.203125 67.90625 
C 6.59375 67.90625 5.40625 67.90625 5.40625 66.09375 
C 5.40625 65 6.09375 65 7.703125 65 
C 12.796875 65 13.09375 64.09375 13.40625 61.625 
L 21.40625 0.375 
C 21.703125 -1.703125 21.703125 -2 23.09375 -2 
C 24.296875 -2 24.796875 -1.703125 25.796875 -0.125 
z
" id="CMMI12-86"/>
      <path d="M 14.296875 74.484375 
L 1.40625 74.484375 
L 1.40625 71 
L 10.796875 71 
L 10.796875 -21.515625 
L 1.40625 -21.515625 
L 1.40625 -25 
L 14.296875 -25 
z
" id="CMR17-93"/>
     </defs>
     <g transform="translate(30.613887 267.370435)rotate(-90)scale(0.14 -0.14)">
      <use transform="translate(0 14.943915)scale(0.996264)" xlink:href="#CMMI12-64"/>
      <use transform="translate(56.915564 14.943915)scale(0.996264)" xlink:href="#CMSY10-76"/>
      <use transform="translate(125.630372 14.943915)scale(0.996264)" xlink:href="#CMMI12-61"/>
      <use transform="translate(174.405291 14.943915)scale(0.996264)" xlink:href="#CMMI12-64"/>
      <use transform="translate(231.320856 14.943915)scale(0.996264)" xlink:href="#CMMI12-117"/>
      <use transform="translate(286.841185 0)scale(0.697382)" xlink:href="#CMMI12-109"/>
      <use transform="translate(347.068108 14.943915)scale(0.996264)" xlink:href="#CMR17-91"/>
      <use transform="translate(371.939167 14.943915)scale(0.996264)" xlink:href="#CMMI12-109"/>
      <use transform="translate(457.266391 14.943915)scale(0.996264)" xlink:href="#CMMI12-58"/>
      <use transform="translate(484.363568 14.943915)scale(0.996264)" xlink:href="#CMMI12-117"/>
      <use transform="translate(539.883898 14.943915)scale(0.996264)" xlink:href="#CMMI12-61"/>
      <use transform="translate(588.658817 14.943915)scale(0.996264)" xlink:href="#CMMI12-86"/>
      <use transform="translate(667.206137 14.943915)scale(0.996264)" xlink:href="#CMR17-93"/>
     </g>
    </g>
   </g>
   <g id="line2d_27">
    <path clip-path="url(#pacc9f0ef34)" d="M 92.290909 106.278971 
L 92.488004 106.278971 
L 92.685099 106.278971 
L 93.079288 98.638902 
L 93.276383 97.55027 
L 93.670573 96.940033 
L 94.261857 96.881894 
L 97.415374 97.243016 
L 97.612469 97.872648 
L 98.992132 112.429064 
L 100.371796 123.261117 
L 102.145649 135.440591 
L 104.116597 147.451834 
L 106.087545 158.093305 
L 108.058493 167.527833 
L 110.029441 175.895966 
L 112.000389 183.321163 
L 113.971336 189.911945 
L 115.942284 195.763882 
L 116.927758 198.439489 
L 117.124853 150.679538 
L 117.519043 178.022131 
L 117.716138 178.595217 
L 118.110327 189.94053 
L 118.504517 195.782192 
L 118.701612 197.01892 
L 118.898706 197.311097 
L 119.095801 196.864774 
L 119.489991 194.042778 
L 119.88418 189.120408 
L 120.475465 178.652433 
L 121.263844 160.531204 
L 123.234792 110.254757 
L 123.431887 110.797618 
L 123.628981 110.02857 
L 123.826076 110.063297 
L 124.023171 109.825058 
L 125.994119 109.665508 
L 128.753446 109.730852 
L 128.950541 114.183001 
L 129.34473 112.395515 
L 129.73892 111.679504 
L 130.13311 111.465302 
L 130.527299 111.569944 
L 131.118584 112.077686 
L 132.104058 113.356229 
L 136.637238 119.706972 
L 138.805281 122.270756 
L 141.170418 124.718283 
L 143.535556 126.846619 
L 146.097788 128.840411 
L 148.66002 130.554334 
L 151.419347 132.132166 
L 154.375769 133.560654 
L 157.529286 134.833333 
L 160.879898 135.949695 
L 164.624699 136.962108 
L 168.763689 137.849189 
L 171.128827 138.387086 
L 172.705585 139.935617 
L 173.29687 139.912943 
L 173.691059 139.68902 
L 174.085249 139.263062 
L 174.676533 138.213821 
L 175.267818 136.622505 
L 176.056197 133.625213 
L 176.844576 129.639983 
L 177.83005 123.460843 
L 179.406808 112.467693 
L 179.603903 112.83087 
L 179.800998 112.178149 
L 179.998093 112.41932 
L 180.195187 112.00299 
L 180.392282 112.161778 
L 180.589377 111.894608 
L 180.786472 111.998373 
L 180.983567 111.826147 
L 181.180661 111.893684 
L 181.377756 111.782323 
L 181.574851 111.826285 
L 181.969041 111.7829 
L 182.560325 111.72506 
L 183.939989 111.71751 
L 188.078979 111.730417 
L 203.649468 111.692342 
L 219.219957 111.428543 
L 236.958488 110.896234 
L 252.923167 110.284381 
L 253.317356 118.780984 
L 253.711546 117.961901 
L 254.30283 114.381549 
L 256.076683 105.527564 
L 257.456347 100.027375 
L 258.83601 95.494528 
L 260.215674 91.798035 
L 261.398243 89.232727 
L 262.580812 87.184628 
L 263.76338 85.622774 
L 264.748854 84.672011 
L 265.734328 84.022614 
L 266.719802 83.657613 
L 267.705276 83.559412 
L 268.69075 83.709588 
L 268.887845 83.76775 
L 269.282035 84.409874 
L 271.055888 87.329516 
L 271.844267 89.227301 
L 272.632646 91.703783 
L 273.61812 95.575504 
L 274.997784 102.046936 
L 277.165826 112.405697 
L 277.362921 113.220301 
L 277.560016 113.433095 
L 277.757111 111.43697 
L 277.954205 111.388551 
L 278.1513 110.908956 
L 278.348395 110.95435 
L 278.54549 110.684802 
L 278.742585 110.699972 
L 278.939679 110.539383 
L 279.530964 110.435179 
L 280.122248 110.329267 
L 283.07867 110.220168 
L 283.47286 111.881423 
L 283.867049 111.712084 
L 285.640902 109.766226 
L 287.61185 107.944082 
L 289.779893 106.2623 
L 291.947936 104.87699 
L 293.918884 103.866517 
L 295.889832 103.091212 
L 297.86078 102.546735 
L 299.831728 102.223318 
L 301.99977 102.103806 
L 303.576529 102.185497 
L 304.956192 102.602819 
L 306.138761 103.061496 
L 307.32133 103.753931 
L 308.700993 104.839146 
L 312.445795 108.029329 
L 313.431268 108.519384 
L 314.219648 108.702877 
L 315.205122 108.844186 
L 315.402216 109.200621 
L 316.38769 108.873048 
L 320.329586 107.419323 
L 323.877293 106.365234 
L 327.227904 105.590714 
L 330.381421 105.079994 
L 333.534938 104.786824 
L 336.885549 104.698068 
L 338.856497 104.811184 
L 341.418729 105.203801 
L 343.389677 105.769567 
L 347.528668 107.052105 
L 348.908331 107.204243 
L 349.696711 107.182169 
L 349.893805 107.372474 
L 350.879279 107.278638 
L 357.186313 106.445863 
L 362.704967 105.954584 
L 367.829432 105.719416 
L 372.953896 105.701429 
L 377.092887 105.979983 
L 383.597015 106.63125 
L 387.933101 106.521043 
L 396.999461 106.163268 
L 405.474538 106.050983 
L 411.387381 106.153363 
L 420.256647 106.418802 
L 433.264904 106.219792 
L 445.87897 106.229859 
L 458.098848 106.306678 
L 480.370559 106.259783 
L 498.109091 106.277031 
L 498.109091 106.277031 
" style="fill:none;stroke:#bf00bf;stroke-linecap:square;stroke-width:1.5;"/>
   </g>
   <g id="line2d_28">
    <path clip-path="url(#pacc9f0ef34)" d="M 92.290909 106.278971 
L 92.488004 106.278971 
L 92.685099 106.278971 
L 93.079288 121.42602 
L 93.276383 123.576869 
L 93.473478 124.447741 
L 93.670573 124.782588 
L 94.064762 124.916438 
L 95.050236 124.74165 
L 97.415374 124.202991 
L 98.006658 120.93712 
L 98.203753 121.220568 
L 98.597943 124.089113 
L 99.189227 131.432895 
L 100.96308 158.620604 
L 103.131123 190.178723 
L 105.102071 215.639833 
L 107.073019 238.277977 
L 109.043967 258.398771 
L 111.014915 276.279151 
L 112.985863 292.166548 
L 114.95681 306.281605 
L 116.927758 318.820746 
L 117.124853 369.36 
L 117.321948 342.87431 
L 117.519043 337.049458 
L 117.716138 335.574698 
L 117.913232 326.220591 
L 118.504517 312.440795 
L 119.292896 290.01877 
L 120.081275 259.093031 
L 121.066749 209.945899 
L 122.840602 111.263267 
L 123.037697 108.636818 
L 123.234792 113.748938 
L 123.431887 112.598219 
L 123.628981 114.027076 
L 123.826076 113.906941 
L 124.023171 114.346037 
L 124.417361 114.540198 
L 125.994119 114.788666 
L 128.753446 114.987145 
L 128.950541 105.768366 
L 129.34473 109.583863 
L 130.13311 114.479565 
L 131.118584 118.889898 
L 132.498247 123.840045 
L 134.2721 129.334114 
L 136.243048 134.740212 
L 138.213996 139.545979 
L 140.382039 144.224938 
L 142.550082 148.342402 
L 144.718124 151.965678 
L 146.886167 155.153968 
L 149.05421 157.959339 
L 151.222253 160.427693 
L 153.58739 162.783346 
L 155.952528 164.831769 
L 158.51476 166.750381 
L 161.076992 168.399145 
L 163.836319 169.916228 
L 166.792741 171.288747 
L 169.946258 172.51049 
L 170.734637 172.78184 
L 171.523016 174.706848 
L 171.720111 174.870808 
L 171.917206 174.470295 
L 172.114301 174.512526 
L 172.311396 174.203286 
L 172.50849 174.120925 
L 173.29687 172.797587 
L 173.888154 171.001535 
L 174.479438 168.342783 
L 175.070723 164.646913 
L 175.859102 158.050705 
L 176.844576 147.232874 
L 178.027145 131.361133 
L 179.209713 115.383017 
L 179.406808 117.134506 
L 179.603903 116.134724 
L 179.800998 117.226403 
L 179.998093 116.555695 
L 180.195187 117.241342 
L 180.392282 116.794742 
L 180.589377 117.227742 
L 180.786472 116.931456 
L 180.983567 117.20583 
L 181.180661 117.00936 
L 181.377756 117.183318 
L 181.574851 117.052654 
L 181.771946 117.16263 
L 181.969041 117.075143 
L 182.166135 117.144112 
L 182.560325 117.127418 
L 183.151609 117.083178 
L 184.137083 117.069763 
L 187.881884 116.933742 
L 199.510477 116.37862 
L 212.715829 115.52301 
L 229.271791 114.21244 
L 252.923167 112.170067 
L 253.317356 104.883478 
L 253.514451 106.697425 
L 253.711546 105.822188 
L 253.908641 106.613679 
L 254.105735 106.194393 
L 254.30283 106.329514 
L 255.485399 103.793138 
L 256.470873 100.502607 
L 258.047631 94.3004 
L 261.004053 82.652866 
L 262.580812 77.430238 
L 263.76338 74.184386 
L 264.945949 71.572206 
L 265.931423 69.89562 
L 266.916897 68.675192 
L 267.705276 68.022517 
L 268.493655 67.650196 
L 268.887845 67.566358 
L 269.479129 67.045894 
L 269.873319 66.982051 
L 270.267508 67.147627 
L 270.661698 67.548302 
L 271.055888 68.198437 
L 271.647172 69.673058 
L 272.238456 71.785739 
L 273.026836 75.611235 
L 273.815215 80.545796 
L 274.800689 88.050606 
L 276.574542 103.715002 
L 277.757111 113.526631 
L 277.954205 112.990074 
L 278.1513 113.650045 
L 278.348395 113.342653 
L 278.54549 113.70493 
L 278.742585 113.528455 
L 278.939679 113.727119 
L 279.136774 113.625363 
L 279.333869 113.73363 
L 279.530964 113.674128 
L 279.925153 113.696363 
L 280.516438 113.717698 
L 282.881575 113.642611 
L 283.07867 113.635176 
L 283.47286 112.278104 
L 283.669955 112.444626 
L 283.867049 112.369562 
L 284.261239 112.362335 
L 284.852523 112.157091 
L 285.837997 111.495318 
L 287.217661 110.241365 
L 289.779893 107.522095 
L 292.736315 104.466594 
L 294.707263 102.723717 
L 296.481116 101.431735 
L 298.254969 100.428512 
L 299.831728 99.785534 
L 301.408486 99.372945 
L 302.985244 99.180262 
L 305.153287 99.16336 
L 305.941666 99.455398 
L 306.730045 99.954527 
L 307.715519 100.880585 
L 308.700993 102.120615 
L 310.080657 104.252668 
L 312.839984 108.645153 
L 313.825458 109.755235 
L 314.613837 110.308394 
L 315.008027 110.453605 
L 315.402216 109.964335 
L 315.599311 110.117373 
L 315.796406 110.037067 
L 316.190596 110.046557 
L 316.978975 109.928846 
L 318.358638 109.512539 
L 320.723776 108.527211 
L 327.424999 105.588867 
L 330.184326 104.684722 
L 332.746558 104.084091 
L 335.308791 103.721537 
L 337.871023 103.585446 
L 340.236161 103.644325 
L 341.615824 103.977416 
L 342.995488 104.555651 
L 344.769341 105.580162 
L 347.725763 107.326433 
L 348.908331 107.750036 
L 349.696711 107.875829 
L 349.893805 107.66973 
L 350.0909 107.74648 
L 350.682185 107.713047 
L 351.864753 107.638813 
L 354.624081 107.249683 
L 364.47882 105.705077 
L 368.420716 105.376003 
L 372.559707 105.255752 
L 375.121939 105.298422 
L 377.289982 105.571457 
L 380.049309 106.182548 
L 382.808636 106.756673 
L 384.1883 106.882927 
L 385.173774 106.828805 
L 389.904049 106.603011 
L 400.744262 105.997577 
L 407.445485 105.885915 
L 411.584476 105.991274 
L 420.847931 106.478142 
L 447.258634 106.199358 
L 455.73371 106.352973 
L 484.90374 106.288022 
L 494.36429 106.294187 
L 498.109091 106.280633 
L 498.109091 106.280633 
" style="fill:none;stroke:#00bfbf;stroke-linecap:square;stroke-width:1.5;"/>
   </g>
   <g id="line2d_29">
    <path clip-path="url(#pacc9f0ef34)" d="M 92.290909 106.278971 
L 92.488004 106.278971 
L 92.685099 106.278971 
L 93.079288 98.638902 
L 93.276383 97.55027 
L 93.670573 96.940033 
L 94.261857 96.881894 
L 97.415374 97.243016 
L 97.612469 97.872648 
L 98.992132 112.429064 
L 100.371796 123.261117 
L 102.145649 135.440591 
L 104.116597 147.451834 
L 106.087545 158.093305 
L 108.058493 167.527833 
L 110.029441 175.895966 
L 112.000389 183.321163 
L 113.971336 189.911945 
L 115.942284 195.763882 
L 117.124853 198.955843 
L 117.321948 211.80741 
L 117.519043 210.799362 
L 117.913232 215.286676 
L 118.504517 210.812431 
L 119.095801 203.775279 
L 119.88418 190.684525 
L 120.672559 173.540035 
L 121.855128 142.332371 
L 123.037697 109.39275 
L 123.234792 106.742842 
L 123.431887 107.308793 
L 123.628981 106.615572 
L 123.826076 106.695324 
L 124.023171 106.496175 
L 128.556351 106.535081 
L 128.753446 106.543463 
L 128.950541 111.156639 
L 129.147636 110.399621 
L 129.541825 110.093383 
L 129.936015 110.168401 
L 130.527299 110.673418 
L 131.512773 111.949353 
L 135.257574 117.062236 
L 137.425617 119.593832 
L 139.790755 122.008988 
L 142.155892 124.108716 
L 144.718124 126.075401 
L 147.280357 127.765911 
L 150.039684 129.322038 
L 152.996106 130.730831 
L 156.149622 131.985916 
L 159.697329 133.145086 
L 163.44213 134.132008 
L 167.581121 134.996762 
L 170.734637 135.527431 
L 171.720111 133.32193 
L 171.917206 133.379816 
L 172.114301 133.228186 
L 172.311396 133.256933 
L 172.90268 133.064642 
L 173.29687 132.905554 
L 173.691059 132.641755 
L 174.282344 131.983168 
L 174.873628 130.917696 
L 175.464912 129.402252 
L 176.253292 126.629276 
L 177.041671 123.030128 
L 178.224239 116.396422 
L 179.406808 109.499586 
L 179.603903 110.100887 
L 179.800998 109.632467 
L 179.998093 110.044941 
L 180.195187 109.761423 
L 180.392282 110.042424 
L 180.589377 109.871122 
L 180.786472 110.062651 
L 180.983567 109.960202 
L 181.180661 110.091536 
L 181.377756 110.031687 
L 181.574851 110.122799 
L 181.969041 110.153855 
L 182.560325 110.177637 
L 183.545799 110.266648 
L 188.078979 110.54317 
L 207.000079 111.541959 
L 226.709559 112.360488 
L 247.995797 113.019097 
L 253.120261 113.148076 
L 253.514451 108.731324 
L 253.711546 108.649194 
L 253.908641 107.775989 
L 254.105735 107.682407 
L 254.30283 107.235091 
L 254.69702 106.761753 
L 255.485399 105.789493 
L 256.667968 104.10972 
L 259.2302 99.968197 
L 261.398243 96.662704 
L 262.975001 94.644921 
L 264.354665 93.22022 
L 265.537233 92.272666 
L 266.719802 91.583186 
L 267.902371 91.149308 
L 269.479129 90.699544 
L 270.267508 90.335905 
L 270.858793 90.334982 
L 271.450077 90.60363 
L 272.041362 91.170573 
L 272.632646 92.04364 
L 273.421025 93.686007 
L 274.209404 95.844429 
L 275.391973 99.884358 
L 277.954205 109.71843 
L 278.1513 109.507113 
L 278.348395 109.747246 
L 278.54549 109.635769 
L 278.742585 109.783474 
L 278.939679 109.733623 
L 279.333869 109.808203 
L 279.925153 109.905087 
L 282.881575 110.071633 
L 283.275765 110.087772 
L 283.669955 109.237796 
L 285.049618 108.707172 
L 287.414756 107.863453 
L 295.298547 104.732425 
L 297.86078 104.066404 
L 300.423012 103.644302 
L 302.985244 103.460531 
L 306.335856 103.454043 
L 307.518425 103.802004 
L 308.700993 104.373127 
L 310.277752 105.409322 
L 313.431268 107.605911 
L 314.613837 108.111944 
L 315.205122 108.242493 
L 316.190596 107.881001 
L 318.555733 107.572777 
L 323.088913 106.769464 
L 328.607568 105.859686 
L 332.549464 105.433427 
L 336.491359 105.229476 
L 341.02454 105.2165 
L 342.995488 105.496785 
L 345.360625 106.08989 
L 348.514142 106.878933 
L 349.893805 107.030932 
L 350.287995 106.928598 
L 351.273469 106.862493 
L 356.200839 106.569739 
L 365.661389 106.008452 
L 371.968422 105.874024 
L 377.289982 105.960795 
L 381.626067 106.384283 
L 384.385394 106.56302 
L 386.553437 106.489271 
L 411.190287 106.141841 
L 424.789827 106.326859 
L 445.484781 106.224733 
L 466.968113 106.270151 
L 498.109091 106.279871 
L 498.109091 106.279871 
" style="fill:none;stroke:#ff0000;stroke-linecap:square;stroke-width:1.5;"/>
   </g>
   <g id="patch_3">
    <path d="M 72 384.48 
L 72 51.84 
" style="fill:none;stroke:#000000;stroke-linecap:square;stroke-linejoin:miter;stroke-width:0.8;"/>
   </g>
   <g id="patch_4">
    <path d="M 518.4 384.48 
L 518.4 51.84 
" style="fill:none;stroke:#000000;stroke-linecap:square;stroke-linejoin:miter;stroke-width:0.8;"/>
   </g>
   <g id="patch_5">
    <path d="M 72 384.48 
L 518.4 384.48 
" style="fill:none;stroke:#000000;stroke-linecap:square;stroke-linejoin:miter;stroke-width:0.8;"/>
   </g>
   <g id="patch_6">
    <path d="M 72 51.84 
L 518.4 51.84 
" style="fill:none;stroke:#000000;stroke-linecap:square;stroke-linejoin:miter;stroke-width:0.8;"/>
   </g>
   <g id="legend_1">
    <g id="patch_7">
     <path d="M 446.187419 104.72792 
L 511.4 104.72792 
Q 513.4 104.72792 513.4 102.72792 
L 513.4 58.84 
Q 513.4 56.84 511.4 56.84 
L 446.187419 56.84 
Q 444.187419 56.84 444.187419 58.84 
L 444.187419 102.72792 
Q 444.187419 104.72792 446.187419 104.72792 
z
" style="fill:#ffffff;opacity:0.8;stroke:#cccccc;stroke-linejoin:miter;"/>
    </g>
    <g id="line2d_30">
     <path d="M 448.187419 65.365462 
L 468.187419 65.365462 
" style="fill:none;stroke:#bf00bf;stroke-linecap:square;stroke-width:1.5;"/>
    </g>
    <g id="line2d_31"/>
    <g id="text_16">
     <!-- $\partial \mathcal{L}/ \partial u_{1}$ -->
     <g transform="translate(476.187419 68.865462)scale(0.1 -0.1)">
      <use transform="translate(0 14.943915)scale(0.996264)" xlink:href="#CMMI12-64"/>
      <use transform="translate(56.915564 14.943915)scale(0.996264)" xlink:href="#CMSY10-76"/>
      <use transform="translate(125.630372 14.943915)scale(0.996264)" xlink:href="#CMMI12-61"/>
      <use transform="translate(174.405291 14.943915)scale(0.996264)" xlink:href="#CMMI12-64"/>
      <use transform="translate(231.320856 14.943915)scale(0.996264)" xlink:href="#CMMI12-117"/>
      <use transform="translate(286.841185 0)scale(0.697382)" xlink:href="#CMR17-49"/>
     </g>
    </g>
    <g id="line2d_32">
     <path d="M 448.187419 80.328102 
L 468.187419 80.328102 
" style="fill:none;stroke:#00bfbf;stroke-linecap:square;stroke-width:1.5;"/>
    </g>
    <g id="line2d_33"/>
    <g id="text_17">
     <!-- $\partial \mathcal{L}/ \partial u_{2}$ -->
     <g transform="translate(476.187419 83.828102)scale(0.1 -0.1)">
      <use transform="translate(0 14.943915)scale(0.996264)" xlink:href="#CMMI12-64"/>
      <use transform="translate(56.915564 14.943915)scale(0.996264)" xlink:href="#CMSY10-76"/>
      <use transform="translate(125.630372 14.943915)scale(0.996264)" xlink:href="#CMMI12-61"/>
      <use transform="translate(174.405291 14.943915)scale(0.996264)" xlink:href="#CMMI12-64"/>
      <use transform="translate(231.320856 14.943915)scale(0.996264)" xlink:href="#CMMI12-117"/>
      <use transform="translate(286.841185 0)scale(0.697382)" xlink:href="#CMR17-50"/>
     </g>
    </g>
    <g id="line2d_34">
     <path d="M 448.187419 95.290742 
L 468.187419 95.290742 
" style="fill:none;stroke:#ff0000;stroke-linecap:square;stroke-width:1.5;"/>
    </g>
    <g id="line2d_35"/>
    <g id="text_18">
     <!-- $\partial \mathcal{L}/ \partial u_{3}$ -->
     <defs>
      <path d="M 22.09375 33.703125 
C 31 33.703125 34.90625 25.96875 34.90625 17.03125 
C 34.90625 5 28.5 0.390625 22.703125 0.390625 
C 17.40625 0.390625 8.796875 3.03125 6.09375 10.828125 
C 6.59375 10.625 7.09375 10.625 7.59375 10.625 
C 10 10.625 11.796875 12.21875 11.796875 14.8125 
C 11.796875 17.703125 9.59375 19 7.59375 19 
C 5.90625 19 3.296875 18.203125 3.296875 14.46875 
C 3.296875 5.234375 12.296875 -2 22.90625 -2 
C 34 -2 42.5 6.71875 42.5 16.953125 
C 42.5 26.671875 34.5 33.703125 25 34.796875 
C 32.59375 36.375 39.90625 43.0625 39.90625 52.015625 
C 39.90625 59.6875 32 65.296875 23 65.296875 
C 13.90625 65.296875 5.90625 59.828125 5.90625 52.015625 
C 5.90625 48.59375 8.5 48 9.796875 48 
C 11.90625 48 13.703125 49.296875 13.703125 51.890625 
C 13.703125 54.46875 11.90625 55.765625 9.796875 55.765625 
C 9.40625 55.765625 8.90625 55.765625 8.5 55.578125 
C 11.40625 61.859375 19.296875 63 22.796875 63 
C 26.296875 63 32.90625 61.328125 32.90625 51.875 
C 32.90625 49.109375 32.5 44.1875 29.09375 39.84375 
C 26.09375 36 22.703125 36 19.40625 35.6875 
C 18.90625 35.6875 16.59375 35.453125 16.203125 35.453125 
C 15.5 35.359375 15.09375 35.265625 15.09375 34.5 
C 15.09375 33.796875 15.203125 33.703125 17.203125 33.703125 
z
" id="CMR17-51"/>
     </defs>
     <g transform="translate(476.187419 98.790742)scale(0.1 -0.1)">
      <use transform="translate(0 14.943915)scale(0.996264)" xlink:href="#CMMI12-64"/>
      <use transform="translate(56.915564 14.943915)scale(0.996264)" xlink:href="#CMSY10-76"/>
      <use transform="translate(125.630372 14.943915)scale(0.996264)" xlink:href="#CMMI12-61"/>
      <use transform="translate(174.405291 14.943915)scale(0.996264)" xlink:href="#CMMI12-64"/>
      <use transform="translate(231.320856 14.943915)scale(0.996264)" xlink:href="#CMMI12-117"/>
      <use transform="translate(286.841185 0)scale(0.697382)" xlink:href="#CMR17-51"/>
     </g>
    </g>
   </g>
  </g>
 </g>
 <defs>
  <clipPath id="pacc9f0ef34">
   <rect height="332.64" width="446.4" x="72" y="51.84"/>
  </clipPath>
 </defs>
</svg>
