<?xml version="1.0" encoding="utf-8" standalone="no"?>
<!DOCTYPE svg PUBLIC "-//W3C//DTD SVG 1.1//EN"
  "http://www.w3.org/Graphics/SVG/1.1/DTD/svg11.dtd">
<!-- Created with matplotlib (http://matplotlib.org/) -->
<svg height="432pt" version="1.1" viewBox="0 0 576 432" width="576pt" xmlns="http://www.w3.org/2000/svg" xmlns:xlink="http://www.w3.org/1999/xlink">
 <defs>
  <style type="text/css">
*{stroke-linecap:butt;stroke-linejoin:round;}
  </style>
 </defs>
 <g id="figure_1">
  <g id="patch_1">
   <path d="M 0 432 
L 576 432 
L 576 0 
L 0 0 
z
" style="fill:#ffffff;"/>
  </g>
  <g id="axes_1">
   <g id="patch_2">
    <path d="M 72 384.48 
L 518.4 384.48 
L 518.4 51.84 
L 72 51.84 
z
" style="fill:#ffffff;"/>
   </g>
   <g id="matplotlib.axis_1">
    <g id="xtick_1">
     <g id="line2d_1">
      <path clip-path="url(#p7ad30e4078)" d="M 92.290909 384.48 
L 92.290909 51.84 
" style="fill:none;stroke:#b0b0b0;stroke-dasharray:5.12,1.28,0.8,1.28;stroke-dashoffset:0;stroke-width:0.8;"/>
     </g>
     <g id="line2d_2">
      <defs>
       <path d="M 0 0 
L 0 3.5 
" id="m24f27dd9a4" style="stroke:#000000;stroke-width:0.8;"/>
      </defs>
      <g>
       <use style="stroke:#000000;stroke-width:0.8;" x="92.290909" xlink:href="#m24f27dd9a4" y="384.48"/>
      </g>
     </g>
     <g id="text_1">
      <!-- $0$ -->
      <defs>
       <path d="M 42 31.640625 
C 42 37.75 41.90625 48.125 37.703125 56.109375 
C 34 63.109375 28.09375 65.59375 22.90625 65.59375 
C 18.09375 65.59375 12 63.40625 8.203125 56.203125 
C 4.203125 48.71875 3.796875 39.4375 3.796875 31.640625 
C 3.796875 25.953125 3.90625 17.28125 7 9.671875 
C 11.296875 -0.609375 19 -2 22.90625 -2 
C 27.5 -2 34.5 -0.109375 38.59375 9.375 
C 41.59375 16.28125 42 24.359375 42 31.640625 
z
M 22.90625 -0.40625 
C 16.5 -0.40625 12.703125 5.078125 11.296875 12.6875 
C 10.203125 18.5625 10.203125 27.15625 10.203125 32.75 
C 10.203125 40.4375 10.203125 46.828125 11.5 52.921875 
C 13.40625 61.390625 19 64 22.90625 64 
C 27 64 32.296875 61.296875 34.203125 53.125 
C 35.5 47.4375 35.59375 40.734375 35.59375 32.75 
C 35.59375 26.25 35.59375 18.265625 34.40625 12.375 
C 32.296875 1.484375 26.40625 -0.40625 22.90625 -0.40625 
z
" id="CMR17-48"/>
      </defs>
      <g transform="translate(89.800241 398.398498)scale(0.1 -0.1)">
       <use transform="scale(0.996264)" xlink:href="#CMR17-48"/>
      </g>
     </g>
    </g>
    <g id="xtick_2">
     <g id="line2d_3">
      <path clip-path="url(#p7ad30e4078)" d="M 166.143171 384.48 
L 166.143171 51.84 
" style="fill:none;stroke:#b0b0b0;stroke-dasharray:5.12,1.28,0.8,1.28;stroke-dashoffset:0;stroke-width:0.8;"/>
     </g>
     <g id="line2d_4">
      <g>
       <use style="stroke:#000000;stroke-width:0.8;" x="166.143171" xlink:href="#m24f27dd9a4" y="384.48"/>
      </g>
     </g>
     <g id="text_2">
      <!-- $200$ -->
      <defs>
       <path d="M 41.703125 15.453125 
L 39.90625 15.453125 
C 38.90625 8.375 38.09375 7.171875 37.703125 6.5625 
C 37.203125 5.765625 30 5.765625 28.59375 5.765625 
L 9.40625 5.765625 
C 13 9.671875 20 16.75 28.5 24.953125 
C 34.59375 30.734375 41.703125 37.53125 41.703125 47.421875 
C 41.703125 59.21875 32.296875 66 21.796875 66 
C 10.796875 66 4.09375 56.3125 4.09375 47.34375 
C 4.09375 43.4375 7 42.9375 8.203125 42.9375 
C 9.203125 42.9375 12.203125 43.546875 12.203125 47.03125 
C 12.203125 50.109375 9.59375 51 8.203125 51 
C 7.59375 51 7 50.90625 6.59375 50.703125 
C 8.5 59.21875 14.296875 63.40625 20.40625 63.40625 
C 29.09375 63.40625 34.796875 56.515625 34.796875 47.421875 
C 34.796875 38.734375 29.703125 31.25 24 24.75 
L 4.09375 2.28125 
L 4.09375 0 
L 39.296875 0 
z
" id="CMR17-50"/>
      </defs>
      <g transform="translate(158.671169 398.398498)scale(0.1 -0.1)">
       <use transform="scale(0.996264)" xlink:href="#CMR17-50"/>
       <use transform="translate(45.690477 0)scale(0.996264)" xlink:href="#CMR17-48"/>
       <use transform="translate(91.380954 0)scale(0.996264)" xlink:href="#CMR17-48"/>
      </g>
     </g>
    </g>
    <g id="xtick_3">
     <g id="line2d_5">
      <path clip-path="url(#p7ad30e4078)" d="M 239.995434 384.48 
L 239.995434 51.84 
" style="fill:none;stroke:#b0b0b0;stroke-dasharray:5.12,1.28,0.8,1.28;stroke-dashoffset:0;stroke-width:0.8;"/>
     </g>
     <g id="line2d_6">
      <g>
       <use style="stroke:#000000;stroke-width:0.8;" x="239.995434" xlink:href="#m24f27dd9a4" y="384.48"/>
      </g>
     </g>
     <g id="text_3">
      <!-- $400$ -->
      <defs>
       <path d="M 33.59375 64.40625 
C 33.59375 66.5 33.5 66.5 31.703125 66.5 
L 2 19.59375 
L 2 17 
L 27.796875 17 
L 27.796875 7.140625 
C 27.796875 3.5 27.59375 2.5 20.59375 2.5 
L 18.703125 2.5 
L 18.703125 0 
C 21.90625 0 27.296875 0 30.703125 0 
C 34.09375 0 39.5 0 42.703125 0 
L 42.703125 2.5 
L 40.796875 2.5 
C 33.796875 2.5 33.59375 3.5 33.59375 7.140625 
L 33.59375 17 
L 43.796875 17 
L 43.796875 19.59375 
L 33.59375 19.59375 
z
M 28.09375 57.859375 
L 28.09375 19.59375 
L 4 19.59375 
z
" id="CMR17-52"/>
      </defs>
      <g transform="translate(232.523431 398.398498)scale(0.1 -0.1)">
       <use transform="scale(0.996264)" xlink:href="#CMR17-52"/>
       <use transform="translate(45.690477 0)scale(0.996264)" xlink:href="#CMR17-48"/>
       <use transform="translate(91.380954 0)scale(0.996264)" xlink:href="#CMR17-48"/>
      </g>
     </g>
    </g>
    <g id="xtick_4">
     <g id="line2d_7">
      <path clip-path="url(#p7ad30e4078)" d="M 313.847696 384.48 
L 313.847696 51.84 
" style="fill:none;stroke:#b0b0b0;stroke-dasharray:5.12,1.28,0.8,1.28;stroke-dashoffset:0;stroke-width:0.8;"/>
     </g>
     <g id="line2d_8">
      <g>
       <use style="stroke:#000000;stroke-width:0.8;" x="313.847696" xlink:href="#m24f27dd9a4" y="384.48"/>
      </g>
     </g>
     <g id="text_4">
      <!-- $600$ -->
      <defs>
       <path d="M 10.59375 34 
C 10.59375 57.65625 21.796875 63 28.296875 63 
C 30.40625 63 35.5 62.640625 37.5 59 
C 35.90625 59 32.90625 59 32.90625 55.515625 
C 32.90625 52.828125 35.09375 51.921875 36.5 51.921875 
C 37.40625 51.921875 40.09375 52.3125 40.09375 55.625 
C 40.09375 61.78125 35.09375 65.296875 28.203125 65.296875 
C 16.296875 65.296875 3.796875 52.96875 3.796875 31 
C 3.796875 3.953125 15.09375 -2 23.09375 -2 
C 32.796875 -2 42 6.671875 42 20.046875 
C 42 32.515625 33.90625 41.59375 23.703125 41.59375 
C 17.59375 41.59375 13.09375 37.609375 10.59375 30.625 
z
M 23.09375 0.390625 
C 10.796875 0.390625 10.796875 18.75 10.796875 22.4375 
C 10.796875 29.625 14.203125 40 23.5 40 
C 25.203125 40 30.09375 40 33.40625 33.125 
C 35.203125 29.21875 35.203125 25.140625 35.203125 20.140625 
C 35.203125 14.75 35.203125 10.78125 33.09375 6.78125 
C 30.90625 2.671875 27.703125 0.390625 23.09375 0.390625 
z
" id="CMR17-54"/>
      </defs>
      <g transform="translate(306.375693 398.398498)scale(0.1 -0.1)">
       <use transform="scale(0.996264)" xlink:href="#CMR17-54"/>
       <use transform="translate(45.690477 0)scale(0.996264)" xlink:href="#CMR17-48"/>
       <use transform="translate(91.380954 0)scale(0.996264)" xlink:href="#CMR17-48"/>
      </g>
     </g>
    </g>
    <g id="xtick_5">
     <g id="line2d_9">
      <path clip-path="url(#p7ad30e4078)" d="M 387.699959 384.48 
L 387.699959 51.84 
" style="fill:none;stroke:#b0b0b0;stroke-dasharray:5.12,1.28,0.8,1.28;stroke-dashoffset:0;stroke-width:0.8;"/>
     </g>
     <g id="line2d_10">
      <g>
       <use style="stroke:#000000;stroke-width:0.8;" x="387.699959" xlink:href="#m24f27dd9a4" y="384.48"/>
      </g>
     </g>
     <g id="text_5">
      <!-- $800$ -->
      <defs>
       <path d="M 27.203125 35.375 
C 33.5 38.546875 39.90625 43.328125 39.90625 50.984375 
C 39.90625 60.015625 31.09375 65.296875 23 65.296875 
C 13.90625 65.296875 5.90625 58.734375 5.90625 49.6875 
C 5.90625 47.203125 6.5 42.921875 10.40625 39.140625 
C 11.40625 38.15625 15.59375 35.171875 18.296875 33.28125 
C 13.796875 30.984375 3.296875 25.53125 3.296875 14.59375 
C 3.296875 4.359375 13.09375 -2 22.796875 -2 
C 33.5 -2 42.5 5.65625 42.5 15.78125 
C 42.5 24.84375 36.40625 29.015625 32.40625 31.703125 
z
M 14.09375 44.09375 
C 13.296875 44.59375 9.296875 47.671875 9.296875 52.359375 
C 9.296875 58.421875 15.59375 63 22.796875 63 
C 30.703125 63 36.5 57.4375 36.5 50.96875 
C 36.5 41.703125 26.09375 36.421875 25.59375 36.421875 
C 25.5 36.421875 25.40625 36.421875 24.59375 37.03125 
z
M 32.5 23.734375 
C 34 22.640625 38.796875 19.375 38.796875 13.296875 
C 38.796875 5.953125 31.40625 0.390625 23 0.390625 
C 13.90625 0.390625 7 6.84375 7 14.6875 
C 7 22.546875 13.09375 29.09375 20 32.1875 
z
" id="CMR17-56"/>
      </defs>
      <g transform="translate(380.227956 398.398498)scale(0.1 -0.1)">
       <use transform="scale(0.996264)" xlink:href="#CMR17-56"/>
       <use transform="translate(45.690477 0)scale(0.996264)" xlink:href="#CMR17-48"/>
       <use transform="translate(91.380954 0)scale(0.996264)" xlink:href="#CMR17-48"/>
      </g>
     </g>
    </g>
    <g id="xtick_6">
     <g id="line2d_11">
      <path clip-path="url(#p7ad30e4078)" d="M 461.552221 384.48 
L 461.552221 51.84 
" style="fill:none;stroke:#b0b0b0;stroke-dasharray:5.12,1.28,0.8,1.28;stroke-dashoffset:0;stroke-width:0.8;"/>
     </g>
     <g id="line2d_12">
      <g>
       <use style="stroke:#000000;stroke-width:0.8;" x="461.552221" xlink:href="#m24f27dd9a4" y="384.48"/>
      </g>
     </g>
     <g id="text_6">
      <!-- $1000$ -->
      <defs>
       <path d="M 26.59375 63.40625 
C 26.59375 65.5 26.5 65.5 25.09375 65.5 
C 21.203125 61.1875 15.296875 59.796875 9.703125 59.796875 
C 9.40625 59.796875 8.90625 59.796875 8.796875 59.5 
C 8.703125 59.296875 8.703125 59.09375 8.703125 57 
C 11.796875 57 17 57.59375 21 59.984375 
L 21 7.203125 
C 21 3.6875 20.796875 2.5 12.203125 2.5 
L 9.203125 2.5 
L 9.203125 0 
C 14 0 19 0 23.796875 0 
C 28.59375 0 33.59375 0 38.40625 0 
L 38.40625 2.5 
L 35.40625 2.5 
C 26.796875 2.5 26.59375 3.59375 26.59375 7.15625 
z
" id="CMR17-49"/>
      </defs>
      <g transform="translate(451.589551 398.398498)scale(0.1 -0.1)">
       <use transform="scale(0.996264)" xlink:href="#CMR17-49"/>
       <use transform="translate(45.690477 0)scale(0.996264)" xlink:href="#CMR17-48"/>
       <use transform="translate(91.380954 0)scale(0.996264)" xlink:href="#CMR17-48"/>
       <use transform="translate(137.071431 0)scale(0.996264)" xlink:href="#CMR17-48"/>
      </g>
     </g>
    </g>
    <g id="text_7">
     <!-- Iteration -->
     <defs>
      <path d="M 17.09375 69 
L 8.703125 69 
L 8.703125 0 
L 17.09375 0 
z
" id="CMSS17-73"/>
      <path d="M 16.703125 37 
L 29.703125 37 
L 29.703125 42.765625 
L 16.703125 42.765625 
L 16.703125 55 
L 9.59375 55 
L 9.59375 42.765625 
L 1.703125 42.765625 
L 1.703125 37 
L 9.40625 37 
L 9.40625 11.703125 
C 9.40625 6 10.703125 -1 17.296875 -1 
C 22.296875 -1 26.90625 0.390625 31.296875 2.6875 
L 29.703125 8.5625 
C 27.296875 6.46875 24.40625 5.265625 21.296875 5.265625 
C 16.90625 5.265625 16.703125 10.875 16.703125 13.375 
z
" id="CMSS17-116"/>
      <path d="M 39.09375 21.515625 
C 39.09375 24.84375 38.90625 31.296875 35.703125 36.640625 
C 32.203125 42.390625 26.5 44 22.203125 44 
C 11.796875 44 3 34.1875 3 21.484375 
C 3 9.09375 12.09375 -1 23.59375 -1 
C 28.09375 -1 33.59375 0.296875 38.59375 3.875 
C 38.59375 4.28125 38.40625 6.46875 38.296875 6.5625 
C 38.296875 6.765625 38 9.84375 38 10.25 
C 33.203125 6.359375 27.703125 5.078125 23.703125 5.078125 
C 17.296875 5.078125 10.40625 10.421875 10.09375 21.515625 
z
M 10.90625 27 
C 12.203125 32.5625 16.59375 37.828125 22.203125 37.828125 
C 23.703125 37.828125 30.703125 37.828125 32.5 27 
z
" id="CMSS17-101"/>
      <path d="M 14.90625 21.296875 
C 14.90625 30.703125 21.796875 37 30.59375 37 
L 30.59375 43.578125 
C 24.203125 43.578125 18.203125 40.390625 14.59375 35.203125 
L 14.59375 43.09375 
L 7.5 43.09375 
L 7.5 0 
L 14.90625 0 
z
" id="CMSS17-114"/>
      <path d="M 37.59375 27.984375 
C 37.59375 37.375 30.90625 43.875 21.90625 43.875 
C 17.5 43.875 12.703125 43.078125 7.203125 39.890625 
L 7.796875 33.359375 
C 10.296875 35.125 14.59375 38 21.796875 38 
C 26.90625 38 30 34.0625 30 27.84375 
L 30 24 
C 14 24 4 19.34375 4 11.34375 
C 4 7.203125 6.5 -1 14.796875 -1 
C 16.296875 -1 24.40625 -1 30.203125 3.390625 
L 30.203125 -0.296875 
L 37.59375 -0.296875 
z
M 30 12.75 
C 30 10.953125 30 8.5625 27 6.78125 
C 24.40625 5.078125 21.09375 5.078125 19.703125 5.078125 
C 14.703125 5.078125 11.296875 7.984375 11.296875 11.625 
C 11.296875 18.921875 26.90625 18.921875 30 18.921875 
z
" id="CMSS17-97"/>
      <path d="M 15.296875 65.359375 
L 6.90625 65.359375 
L 6.90625 57 
L 15.296875 57 
z
M 14.796875 42.796875 
L 7.40625 42.796875 
L 7.40625 0 
L 14.796875 0 
z
" id="CMSS17-105"/>
      <path d="M 44.203125 21.1875 
C 44.203125 34 34.703125 44 23.5 44 
C 12 44 2.703125 33.703125 2.703125 21.1875 
C 2.703125 8.5 12.296875 -1 23.40625 -1 
C 34.796875 -1 44.203125 8.796875 44.203125 21.1875 
z
M 23.5 5.265625 
C 16.40625 5.265625 10.296875 11.078125 10.296875 22 
C 10.296875 33.609375 17.40625 37.921875 23.40625 37.921875 
C 29.90625 37.921875 36.59375 33.21875 36.59375 22 
C 36.59375 10.671875 30.09375 5.265625 23.5 5.265625 
z
" id="CMSS17-111"/>
      <path d="M 40.90625 29.328125 
C 40.90625 35.671875 39.40625 44 28.09375 44 
C 21.703125 44 17.5 40.71875 14.703125 37.328125 
L 14.703125 43.09375 
L 7.40625 43.09375 
L 7.40625 0 
L 15 0 
L 15 24.359375 
C 15 30.6875 17.40625 37.9375 24.203125 37.9375 
C 33 37.9375 33.296875 32 33.296875 28.578125 
L 33.296875 0 
L 40.90625 0 
z
" id="CMSS17-110"/>
     </defs>
     <g transform="translate(271.264003 414.021553)scale(0.14 -0.14)">
      <use transform="scale(0.996264)" xlink:href="#CMSS17-73"/>
      <use transform="translate(25.783926 0)scale(0.996264)" xlink:href="#CMSS17-116"/>
      <use transform="translate(59.615492 0)scale(0.996264)" xlink:href="#CMSS17-101"/>
      <use transform="translate(101.254314 0)scale(0.996264)" xlink:href="#CMSS17-114"/>
      <use transform="translate(133.164087 0)scale(0.996264)" xlink:href="#CMSS17-97"/>
      <use transform="translate(178.086007 0)scale(0.996264)" xlink:href="#CMSS17-116"/>
      <use transform="translate(211.917574 0)scale(0.996264)" xlink:href="#CMSS17-105"/>
      <use transform="translate(234.098297 0)scale(0.996264)" xlink:href="#CMSS17-111"/>
      <use transform="translate(280.941921 0)scale(0.996264)" xlink:href="#CMSS17-110"/>
     </g>
    </g>
   </g>
   <g id="matplotlib.axis_2">
    <g id="ytick_1">
     <g id="line2d_13">
      <path clip-path="url(#p7ad30e4078)" d="M 72 370.372698 
L 518.4 370.372698 
" style="fill:none;stroke:#b0b0b0;stroke-dasharray:5.12,1.28,0.8,1.28;stroke-dashoffset:0;stroke-width:0.8;"/>
     </g>
     <g id="line2d_14">
      <defs>
       <path d="M 0 0 
L -3.5 0 
" id="mbf276e2cd5" style="stroke:#000000;stroke-width:0.8;"/>
      </defs>
      <g>
       <use style="stroke:#000000;stroke-width:0.8;" x="72" xlink:href="#mbf276e2cd5" y="370.372698"/>
      </g>
     </g>
     <g id="text_8">
      <!-- $-1500$ -->
      <defs>
       <path d="M 65.90625 23 
C 67.59375 23 69.40625 23 69.40625 25 
C 69.40625 27 67.59375 27 65.90625 27 
L 11.796875 27 
C 10.09375 27 8.296875 27 8.296875 25 
C 8.296875 23 10.09375 23 11.796875 23 
z
" id="CMSY10-0"/>
       <path d="M 11.40625 57.6875 
C 12.40625 57.28125 16.5 56 20.703125 56 
C 30 56 35.09375 61.109375 38 64.0625 
C 38 64.953125 38 65.5 37.40625 65.5 
C 37.296875 65.5 37.09375 65.5 36.296875 65.046875 
C 32.796875 63.40625 28.703125 62.078125 23.703125 62.078125 
C 20.703125 62.078125 16.203125 62.484375 11.296875 64.671875 
C 10.203125 65.171875 10 65.171875 9.90625 65.171875 
C 9.40625 65.171875 9.296875 65.0625 9.296875 63.078125 
L 9.296875 34.421875 
C 9.296875 32.640625 9.296875 32.140625 10.296875 32.140625 
C 10.796875 32.140625 11 32.34375 11.5 33.03125 
C 14.703125 37.515625 19.09375 39.40625 24.09375 39.40625 
C 27.59375 39.40625 35.09375 37.21875 35.09375 20.140625 
C 35.09375 16.953125 35.09375 11.171875 32.09375 6.578125 
C 29.59375 2.484375 25.703125 0.390625 21.40625 0.390625 
C 14.796875 0.390625 8.09375 5 6.296875 12.71875 
C 6.703125 12.609375 7.5 12.421875 7.90625 12.421875 
C 9.203125 12.421875 11.703125 13.125 11.703125 16.21875 
C 11.703125 18.90625 9.796875 20 7.90625 20 
C 5.59375 20 4.09375 18.59375 4.09375 15.796875 
C 4.09375 7.09375 11 -2 21.59375 -2 
C 31.90625 -2 41.703125 6.875 41.703125 19.75 
C 41.703125 31.71875 33.90625 41 24.203125 41 
C 19.09375 41 14.796875 39.109375 11.40625 35.53125 
z
" id="CMR17-53"/>
      </defs>
      <g transform="translate(37.325915 373.831947)scale(0.1 -0.1)">
       <use transform="scale(0.996264)" xlink:href="#CMSY10-0"/>
       <use transform="translate(77.487468 0)scale(0.996264)" xlink:href="#CMR17-49"/>
       <use transform="translate(123.177945 0)scale(0.996264)" xlink:href="#CMR17-53"/>
       <use transform="translate(168.868422 0)scale(0.996264)" xlink:href="#CMR17-48"/>
       <use transform="translate(214.558899 0)scale(0.996264)" xlink:href="#CMR17-48"/>
      </g>
     </g>
    </g>
    <g id="ytick_2">
     <g id="line2d_15">
      <path clip-path="url(#p7ad30e4078)" d="M 72 327.590117 
L 518.4 327.590117 
" style="fill:none;stroke:#b0b0b0;stroke-dasharray:5.12,1.28,0.8,1.28;stroke-dashoffset:0;stroke-width:0.8;"/>
     </g>
     <g id="line2d_16">
      <g>
       <use style="stroke:#000000;stroke-width:0.8;" x="72" xlink:href="#mbf276e2cd5" y="327.590117"/>
      </g>
     </g>
     <g id="text_9">
      <!-- $-1000$ -->
      <g transform="translate(37.325915 331.049366)scale(0.1 -0.1)">
       <use transform="scale(0.996264)" xlink:href="#CMSY10-0"/>
       <use transform="translate(77.487468 0)scale(0.996264)" xlink:href="#CMR17-49"/>
       <use transform="translate(123.177945 0)scale(0.996264)" xlink:href="#CMR17-48"/>
       <use transform="translate(168.868422 0)scale(0.996264)" xlink:href="#CMR17-48"/>
       <use transform="translate(214.558899 0)scale(0.996264)" xlink:href="#CMR17-48"/>
      </g>
     </g>
    </g>
    <g id="ytick_3">
     <g id="line2d_17">
      <path clip-path="url(#p7ad30e4078)" d="M 72 284.807535 
L 518.4 284.807535 
" style="fill:none;stroke:#b0b0b0;stroke-dasharray:5.12,1.28,0.8,1.28;stroke-dashoffset:0;stroke-width:0.8;"/>
     </g>
     <g id="line2d_18">
      <g>
       <use style="stroke:#000000;stroke-width:0.8;" x="72" xlink:href="#mbf276e2cd5" y="284.807535"/>
      </g>
     </g>
     <g id="text_10">
      <!-- $-500$ -->
      <g transform="translate(42.307251 288.266784)scale(0.1 -0.1)">
       <use transform="scale(0.996264)" xlink:href="#CMSY10-0"/>
       <use transform="translate(77.487468 0)scale(0.996264)" xlink:href="#CMR17-53"/>
       <use transform="translate(123.177945 0)scale(0.996264)" xlink:href="#CMR17-48"/>
       <use transform="translate(168.868422 0)scale(0.996264)" xlink:href="#CMR17-48"/>
      </g>
     </g>
    </g>
    <g id="ytick_4">
     <g id="line2d_19">
      <path clip-path="url(#p7ad30e4078)" d="M 72 242.024954 
L 518.4 242.024954 
" style="fill:none;stroke:#b0b0b0;stroke-dasharray:5.12,1.28,0.8,1.28;stroke-dashoffset:0;stroke-width:0.8;"/>
     </g>
     <g id="line2d_20">
      <g>
       <use style="stroke:#000000;stroke-width:0.8;" x="72" xlink:href="#mbf276e2cd5" y="242.024954"/>
      </g>
     </g>
     <g id="text_11">
      <!-- $0$ -->
      <g transform="translate(60.018665 245.484203)scale(0.1 -0.1)">
       <use transform="scale(0.996264)" xlink:href="#CMR17-48"/>
      </g>
     </g>
    </g>
    <g id="ytick_5">
     <g id="line2d_21">
      <path clip-path="url(#p7ad30e4078)" d="M 72 199.242373 
L 518.4 199.242373 
" style="fill:none;stroke:#b0b0b0;stroke-dasharray:5.12,1.28,0.8,1.28;stroke-dashoffset:0;stroke-width:0.8;"/>
     </g>
     <g id="line2d_22">
      <g>
       <use style="stroke:#000000;stroke-width:0.8;" x="72" xlink:href="#mbf276e2cd5" y="199.242373"/>
      </g>
     </g>
     <g id="text_12">
      <!-- $500$ -->
      <g transform="translate(50.055994 202.701622)scale(0.1 -0.1)">
       <use transform="scale(0.996264)" xlink:href="#CMR17-53"/>
       <use transform="translate(45.690477 0)scale(0.996264)" xlink:href="#CMR17-48"/>
       <use transform="translate(91.380954 0)scale(0.996264)" xlink:href="#CMR17-48"/>
      </g>
     </g>
    </g>
    <g id="ytick_6">
     <g id="line2d_23">
      <path clip-path="url(#p7ad30e4078)" d="M 72 156.459791 
L 518.4 156.459791 
" style="fill:none;stroke:#b0b0b0;stroke-dasharray:5.12,1.28,0.8,1.28;stroke-dashoffset:0;stroke-width:0.8;"/>
     </g>
     <g id="line2d_24">
      <g>
       <use style="stroke:#000000;stroke-width:0.8;" x="72" xlink:href="#mbf276e2cd5" y="156.459791"/>
      </g>
     </g>
     <g id="text_13">
      <!-- $1000$ -->
      <g transform="translate(45.074659 159.91904)scale(0.1 -0.1)">
       <use transform="scale(0.996264)" xlink:href="#CMR17-49"/>
       <use transform="translate(45.690477 0)scale(0.996264)" xlink:href="#CMR17-48"/>
       <use transform="translate(91.380954 0)scale(0.996264)" xlink:href="#CMR17-48"/>
       <use transform="translate(137.071431 0)scale(0.996264)" xlink:href="#CMR17-48"/>
      </g>
     </g>
    </g>
    <g id="ytick_7">
     <g id="line2d_25">
      <path clip-path="url(#p7ad30e4078)" d="M 72 113.67721 
L 518.4 113.67721 
" style="fill:none;stroke:#b0b0b0;stroke-dasharray:5.12,1.28,0.8,1.28;stroke-dashoffset:0;stroke-width:0.8;"/>
     </g>
     <g id="line2d_26">
      <g>
       <use style="stroke:#000000;stroke-width:0.8;" x="72" xlink:href="#mbf276e2cd5" y="113.67721"/>
      </g>
     </g>
     <g id="text_14">
      <!-- $1500$ -->
      <g transform="translate(45.074659 117.136459)scale(0.1 -0.1)">
       <use transform="scale(0.996264)" xlink:href="#CMR17-49"/>
       <use transform="translate(45.690477 0)scale(0.996264)" xlink:href="#CMR17-53"/>
       <use transform="translate(91.380954 0)scale(0.996264)" xlink:href="#CMR17-48"/>
       <use transform="translate(137.071431 0)scale(0.996264)" xlink:href="#CMR17-48"/>
      </g>
     </g>
    </g>
    <g id="ytick_8">
     <g id="line2d_27">
      <path clip-path="url(#p7ad30e4078)" d="M 72 70.894628 
L 518.4 70.894628 
" style="fill:none;stroke:#b0b0b0;stroke-dasharray:5.12,1.28,0.8,1.28;stroke-dashoffset:0;stroke-width:0.8;"/>
     </g>
     <g id="line2d_28">
      <g>
       <use style="stroke:#000000;stroke-width:0.8;" x="72" xlink:href="#mbf276e2cd5" y="70.894628"/>
      </g>
     </g>
     <g id="text_15">
      <!-- $2000$ -->
      <g transform="translate(45.074659 74.353878)scale(0.1 -0.1)">
       <use transform="scale(0.996264)" xlink:href="#CMR17-50"/>
       <use transform="translate(45.690477 0)scale(0.996264)" xlink:href="#CMR17-48"/>
       <use transform="translate(91.380954 0)scale(0.996264)" xlink:href="#CMR17-48"/>
       <use transform="translate(137.071431 0)scale(0.996264)" xlink:href="#CMR17-48"/>
      </g>
     </g>
    </g>
    <g id="text_16">
     <!-- $\partial \mathcal{L}/ \partial u_{m}$ -->
     <defs>
      <path d="M 45.40625 33.515625 
C 44.796875 39.125 41.296875 45.859375 32.296875 45.859375 
C 18.203125 45.859375 3.796875 31.515625 3.796875 15.5625 
C 3.796875 9.4375 8 -2.09375 21.59375 -2.09375 
C 45.203125 -2.09375 55.296875 32.296875 55.296875 46 
C 55.296875 60.40625 47.203125 71.5 34.40625 71.5 
C 19.90625 71.5 15.59375 58.796875 15.59375 56.09375 
C 15.59375 55.203125 16.203125 53 19 53 
C 22.5 53 24 56.203125 24 57.90625 
C 24 61 20.90625 61 19.59375 61 
C 23.703125 68.40625 31.296875 69.09375 34 69.09375 
C 42.796875 69.09375 48.40625 62.109375 48.40625 50.96875 
C 48.40625 44.578125 46.5 37.1875 45.5 33.515625 
z
M 21.90625 0.59375 
C 12.5 0.59375 10.90625 8.03125 10.90625 12.25 
C 10.90625 16.65625 13.703125 27 15.203125 30.703125 
C 16.5 33.71875 22.203125 43.859375 32.59375 43.859375 
C 41.703125 43.859375 43.796875 35.921875 43.796875 30.515625 
C 43.796875 23.078125 37.296875 0.59375 21.90625 0.59375 
z
" id="CMMI12-64"/>
      <path d="M 18 9.53125 
C 23.40625 17.984375 25.09375 24.40625 26.40625 29.734375 
C 29.90625 43.59375 33.703125 55.65625 39.90625 62.578125 
C 41.09375 63.90625 41.90625 64.796875 45.09375 64.796875 
C 52 64.796875 52.203125 57.875 52.203125 56.453125 
C 52.203125 54.65625 51.703125 53.234375 51.703125 52.734375 
C 51.703125 52.03125 52.296875 52.03125 52.40625 52.03125 
C 54 52.03125 56.703125 53.140625 59.203125 54.953125 
C 61 56.359375 61.90625 57.359375 61.90625 61.46875 
C 61.90625 66.890625 59.09375 71 53.5 71 
C 50.296875 71 41.5 70.203125 31.703125 60.25 
C 23.703125 52.015625 19 33.9375 17.09375 26.40625 
C 15.296875 19.5 14.5 16.375 11.5 10.34375 
C 10.796875 9.15625 8.203125 4.734375 6.796875 3.421875 
C 4.09375 0.921875 3.09375 -0.890625 3.09375 -1.390625 
C 3.09375 -1.59375 3.296875 -2 4 -2 
C 4.40625 -2 6.5 -1.59375 9.09375 0.078125 
C 10.796875 1.0625 11 1.25 13.296875 3.609375 
C 18.296875 3.609375 21.796875 2.703125 28.09375 0.90625 
C 33.203125 -0.5 38.296875 -2 43.40625 -2 
C 51.5 -2 59.703125 4.125 62.90625 8.53125 
C 64.90625 11.234375 65.5 13.75 65.5 14.046875 
C 65.5 14.75 64.90625 14.75 64.796875 14.75 
C 63.203125 14.75 60.796875 13.65625 59.09375 12.4375 
C 56.40625 10.734375 56.203125 10.140625 55.59375 8.421875 
C 55.09375 6.8125 54.5 6.015625 54.09375 5.40625 
C 53.296875 4.203125 53.203125 4.203125 51.703125 4.203125 
C 46.90625 4.203125 41.90625 5.71875 35.296875 7.515625 
C 32.5 8.3125 27 9.9375 22 9.9375 
C 20.703125 9.9375 19.296875 9.828125 18 9.53125 
z
" id="CMSY10-76"/>
      <path d="M 42.90625 71.28125 
C 42.90625 71.390625 43.5 72.90625 43.5 73.09375 
C 43.5 74.296875 42.5 75 41.703125 75 
C 41.203125 75 40.296875 75 39.5 72.796875 
L 6 -21.296875 
C 6 -21.40625 5.40625 -22.890625 5.40625 -23.09375 
C 5.40625 -24.296875 6.40625 -25 7.203125 -25 
C 7.796875 -25 8.703125 -24.890625 9.40625 -22.796875 
z
" id="CMMI12-61"/>
      <path d="M 34.09375 5.78125 
C 35.40625 0.203125 40.203125 -1 42.59375 -1 
C 45.796875 -1 48.203125 1.09375 49.796875 4.484375 
C 51.5 8.078125 52.796875 13.96875 52.796875 14.265625 
C 52.796875 14.765625 52.40625 15.171875 51.796875 15.171875 
C 50.90625 15.171875 50.796875 14.671875 50.40625 13.171875 
C 48.59375 6.28125 46.796875 1 42.796875 1 
C 39.796875 1 39.796875 4.296875 39.796875 5.59375 
C 39.796875 7.890625 40.09375 8.875 41.09375 13.078125 
C 41.796875 15.765625 42.5 18.453125 43.09375 21.25 
L 47.203125 37.515625 
C 47.90625 40.015625 47.90625 40.21875 47.90625 40.515625 
C 47.90625 42.015625 46.703125 43.015625 45.203125 43.015625 
C 42.296875 43.015625 41.59375 40.515625 41 38.015625 
C 40 34.125 34.59375 12.671875 33.90625 9.1875 
C 33.796875 9.1875 29.90625 1 22.59375 1 
C 17.40625 1 16.40625 5.484375 16.40625 9.1875 
C 16.40625 14.875 19.203125 22.84375 21.796875 29.53125 
C 23 32.734375 23.5 34.03125 23.5 36.015625 
C 23.5 40.3125 20.40625 44 15.59375 44 
C 6.40625 44 2.703125 29.53125 2.703125 28.734375 
C 2.703125 28.34375 3.09375 27.84375 3.796875 27.84375 
C 4.703125 27.84375 4.796875 28.234375 5.203125 29.625 
C 7.59375 38.140625 11.5 41.90625 15.296875 41.90625 
C 16.296875 41.90625 17.90625 41.90625 17.90625 38.71875 
C 17.90625 36.125 16.796875 33.234375 15.296875 29.4375 
C 10.90625 17.5625 10.40625 13.765625 10.40625 10.78125 
C 10.40625 0.59375 18.09375 -1 22.203125 -1 
C 28.59375 -1 32.09375 3.390625 34.09375 5.78125 
z
" id="CMMI12-117"/>
      <path d="M 20.59375 29.234375 
C 20.796875 29.84375 23.296875 34.828125 27 38.015625 
C 29.59375 40.40625 33 42.015625 36.90625 42.015625 
C 40.90625 42.015625 42.296875 39.015625 42.296875 35.03125 
C 42.296875 34.421875 42.296875 32.4375 41.09375 27.734375 
L 38.59375 17.46875 
C 37.796875 14.46875 35.90625 7.078125 35.703125 5.984375 
C 35.296875 4.484375 34.703125 1.890625 34.703125 1.5 
C 34.703125 0.09375 35.796875 -1 37.296875 -1 
C 40.296875 -1 40.796875 1.296875 41.703125 4.890625 
L 47.703125 28.734375 
C 47.90625 29.53125 53.09375 42.015625 64.09375 42.015625 
C 68.09375 42.015625 69.5 39.015625 69.5 35.03125 
C 69.5 29.4375 65.59375 18.5625 63.40625 12.578125 
C 62.5 10.171875 62 8.875 62 7.078125 
C 62 2.59375 65.09375 -1 69.90625 -1 
C 79.203125 -1 82.703125 13.671875 82.703125 14.265625 
C 82.703125 14.765625 82.296875 15.171875 81.703125 15.171875 
C 80.796875 15.171875 80.703125 14.875 80.203125 13.171875 
C 77.90625 5.1875 74.203125 1 70.203125 1 
C 69.203125 1 67.59375 1 67.59375 4.203125 
C 67.59375 6.8125 68.796875 10 69.203125 11.09375 
C 71 15.90625 75.5 27.703125 75.5 33.515625 
C 75.5 39.5 72 44 64.40625 44 
C 57.703125 44 52.296875 40.21875 48.296875 34.328125 
C 48 39.71875 44.703125 44 37.203125 44 
C 28.296875 44 23.59375 37.734375 21.796875 35.234375 
C 21.5 40.90625 17.40625 44 13 44 
C 10.09375 44 7.796875 42.609375 5.90625 38.8125 
C 4.09375 35.21875 2.703125 29.140625 2.703125 28.734375 
C 2.703125 28.34375 3.09375 27.84375 3.796875 27.84375 
C 4.59375 27.84375 4.703125 27.9375 5.296875 30.234375 
C 6.796875 36.125 8.703125 42.015625 12.703125 42.015625 
C 15 42.015625 15.796875 40.40625 15.796875 37.421875 
C 15.796875 35.21875 14.796875 31.328125 14.09375 28.234375 
L 11.296875 17.46875 
C 10.90625 15.5625 9.796875 11.078125 9.296875 9.28125 
C 8.59375 6.6875 7.5 2 7.5 1.5 
C 7.5 0.09375 8.59375 -1 10.09375 -1 
C 11.296875 -1 12.703125 -0.40625 13.5 1.09375 
C 13.703125 1.59375 14.59375 5.09375 15.09375 7.078125 
L 17.296875 16.0625 
z
" id="CMMI12-109"/>
     </defs>
     <g transform="translate(30.613887 242.659086)rotate(-90)scale(0.14 -0.14)">
      <use transform="translate(0 14.943915)scale(0.996264)" xlink:href="#CMMI12-64"/>
      <use transform="translate(56.915564 14.943915)scale(0.996264)" xlink:href="#CMSY10-76"/>
      <use transform="translate(125.630372 14.943915)scale(0.996264)" xlink:href="#CMMI12-61"/>
      <use transform="translate(174.405291 14.943915)scale(0.996264)" xlink:href="#CMMI12-64"/>
      <use transform="translate(231.320856 14.943915)scale(0.996264)" xlink:href="#CMMI12-117"/>
      <use transform="translate(286.841185 0)scale(0.697382)" xlink:href="#CMMI12-109"/>
     </g>
    </g>
   </g>
   <g id="line2d_29">
    <path clip-path="url(#p7ad30e4078)" d="M 92.290909 242.024954 
L 92.66017 242.024954 
L 93.029432 243.895494 
L 93.767954 250.02059 
L 94.137216 249.2874 
L 94.875738 247.002168 
L 95.245 247.011443 
L 95.614261 252.227975 
L 96.352784 269.894126 
L 96.722045 275.622218 
L 97.091306 278.301263 
L 97.460567 278.562853 
L 97.829829 277.331835 
L 98.937613 272.249248 
L 99.306874 271.390738 
L 99.676135 271.050942 
L 100.045397 271.100612 
L 100.783919 271.744969 
L 101.522442 272.359387 
L 102.260965 272.616955 
L 103.368748 272.602289 
L 104.845794 272.619625 
L 108.907668 273.026265 
L 109.276929 272.011043 
L 110.015452 268.711761 
L 111.861759 257.074745 
L 112.23102 256.002468 
L 112.600281 255.382506 
L 112.969543 255.088341 
L 113.338804 255.00133 
L 114.077326 255.11929 
L 115.18511 255.559189 
L 115.923633 256.033528 
L 116.662156 256.706601 
L 117.76994 258.05083 
L 119.246985 260.234367 
L 121.462553 263.932108 
L 125.155166 270.60934 
L 138.448573 294.943028 
L 145.833799 307.903387 
L 153.219026 320.421467 
L 158.019423 328.328638 
L 158.388684 331.180474 
L 158.757945 331.142928 
L 159.127207 327.20758 
L 159.865729 315.48357 
L 160.23499 311.627242 
L 160.604252 324.96982 
L 160.973513 333.584316 
L 161.342774 335.617883 
L 161.712036 335.08423 
L 162.81982 332.200633 
L 163.189081 329.546513 
L 163.558342 320.314562 
L 163.927604 346.753684 
L 164.296865 355.75887 
L 164.666126 360.269172 
L 165.035388 369.257536 
L 165.404649 369.36 
L 166.143171 364.47719 
L 169.097262 351.326372 
L 170.574307 342.615847 
L 172.051352 332.454941 
L 173.897659 317.872729 
L 175.743966 301.442267 
L 176.113227 297.960193 
L 176.482488 300.808683 
L 176.85175 305.510583 
L 177.221011 306.964497 
L 177.590272 307.203224 
L 178.698056 307.315331 
L 180.175101 307.520354 
L 182.759931 307.528791 
L 186.821805 307.299091 
L 190.883679 306.854589 
L 195.314815 306.134447 
L 199.745951 305.175415 
L 204.177087 303.984536 
L 208.608222 302.569049 
L 211.931574 301.397388 
L 212.300835 301.585837 
L 212.670097 301.520867 
L 213.039358 301.220311 
L 213.777881 300.139127 
L 214.885665 297.906158 
L 217.101233 292.699972 
L 220.793846 283.343943 
L 221.163107 280.544841 
L 221.532368 275.104968 
L 222.270891 257.529721 
L 222.640152 245.225433 
L 223.009414 228.281469 
L 223.378675 223.521898 
L 224.486459 201.229341 
L 225.224981 190.652434 
L 225.963504 182.982562 
L 226.702027 177.302951 
L 227.440549 173.021895 
L 228.179072 169.744981 
L 228.917595 167.202121 
L 229.656117 165.206065 
L 230.763901 162.962307 
L 231.871685 161.374509 
L 232.979469 160.270205 
L 234.087253 159.544424 
L 235.195037 159.131272 
L 236.302821 158.987514 
L 237.410605 159.083142 
L 238.518389 159.395857 
L 239.626173 159.907905 
L 241.103218 160.874919 
L 242.580263 162.138212 
L 244.057308 163.66905 
L 245.903615 165.917565 
L 247.38066 167.952519 
L 248.488444 169.740848 
L 249.226967 170.361443 
L 249.965489 170.589603 
L 250.704012 170.525181 
L 251.442535 170.254307 
L 252.550318 169.599409 
L 254.396625 168.167852 
L 258.458499 164.636971 
L 258.827761 189.823445 
L 259.197022 163.744048 
L 259.566283 148.897388 
L 260.304806 135.496266 
L 261.043329 124.971135 
L 262.151113 113.86784 
L 262.520374 110.992877 
L 262.889635 92.571544 
L 263.258897 110.435668 
L 263.628158 110.669706 
L 263.997419 108.609545 
L 264.36668 112.141717 
L 265.105203 123.20353 
L 267.320771 165.854461 
L 268.059294 173.238769 
L 268.428555 175.747274 
L 268.797816 176.829126 
L 269.167078 177.201326 
L 269.536339 177.195875 
L 269.9056 176.942046 
L 270.644123 176.018961 
L 271.013384 175.423581 
L 271.751907 173.682595 
L 272.859691 169.773859 
L 273.598213 167.219311 
L 273.967475 171.457978 
L 274.336736 185.830453 
L 274.705997 190.623505 
L 275.44452 194.993446 
L 276.183042 198.039472 
L 276.921565 200.331164 
L 277.660088 201.394456 
L 279.506394 203.246557 
L 282.091223 205.871953 
L 283.93753 208.050596 
L 285.783837 210.560924 
L 287.999404 213.980518 
L 291.322756 219.616687 
L 291.692018 220.25241 
L 292.061279 221.722249 
L 292.43054 232.044471 
L 292.799801 236.231482 
L 293.169063 232.317783 
L 293.907585 215.965408 
L 294.276847 210.628067 
L 294.646108 209.023386 
L 295.015369 210.667478 
L 295.753892 218.850785 
L 296.492415 226.671526 
L 297.230937 231.411742 
L 299.077244 240.18147 
L 301.662073 254.941101 
L 302.031334 256.222122 
L 302.400596 256.645422 
L 302.769857 256.309698 
L 303.50838 254.498583 
L 304.246902 252.815055 
L 304.985425 251.917373 
L 307.570254 250.0315 
L 309.047299 248.891875 
L 311.262867 247.550418 
L 313.478435 246.430918 
L 316.063264 245.383951 
L 319.017355 244.449083 
L 322.340706 243.654174 
L 326.03332 243.00814 
L 328.618149 242.667625 
L 329.356671 241.949631 
L 329.725933 241.213668 
L 330.095194 239.489881 
L 331.202978 232.286004 
L 331.572239 230.915122 
L 331.941501 230.449057 
L 332.310762 230.773905 
L 333.049284 232.716072 
L 333.787807 234.593928 
L 334.157068 235.147286 
L 334.52633 235.450974 
L 336.003375 236.052933 
L 336.741898 236.845814 
L 338.218943 238.693295 
L 338.957465 239.278603 
L 340.434511 240.040912 
L 342.650079 241.033681 
L 344.127124 241.379502 
L 346.711953 241.720941 
L 349.666044 241.861507 
L 356.682008 241.921548 
L 431.642055 242.023294 
L 498.109091 242.02492 
L 498.109091 242.02492 
" style="fill:none;stroke:#bf00bf;stroke-linecap:square;stroke-width:1.5;"/>
   </g>
   <g id="line2d_30">
    <path clip-path="url(#p7ad30e4078)" d="M 92.290909 242.024954 
L 92.66017 242.024954 
L 93.029432 242.024954 
L 93.767954 235.871877 
L 94.506477 232.915789 
L 94.875738 231.935726 
L 95.245 231.372784 
L 95.614261 231.272519 
L 95.983522 232.159111 
L 96.352784 234.745258 
L 97.091306 241.431859 
L 97.460567 243.794416 
L 97.829829 245.068986 
L 98.19909 245.381838 
L 98.568351 245.028873 
L 99.676135 242.955253 
L 100.045397 242.529523 
L 100.414658 242.319726 
L 100.783919 242.287143 
L 101.522442 242.513625 
L 102.630226 242.889829 
L 103.73801 242.99546 
L 106.6921 243.145207 
L 108.907668 243.317749 
L 109.276929 243.679835 
L 110.384713 245.655167 
L 110.753975 245.894057 
L 111.123236 245.795006 
L 112.23102 244.879459 
L 112.600281 244.757674 
L 112.969543 244.793149 
L 113.708065 245.225698 
L 125.155166 255.14869 
L 134.75596 263.602623 
L 143.24897 270.77804 
L 151.74198 277.664932 
L 158.388684 282.861869 
L 159.127207 285.205576 
L 159.496468 285.022543 
L 159.865729 283.639211 
L 160.23499 281.711865 
L 160.604252 307.090192 
L 160.973513 313.976494 
L 161.712036 320.148583 
L 162.450558 324.136381 
L 163.189081 327.572636 
L 163.558342 329.371121 
L 163.927604 323.965645 
L 164.296865 324.855865 
L 164.666126 322.846059 
L 165.035388 323.180969 
L 165.404649 327.99632 
L 165.77391 331.148772 
L 166.143171 332.242928 
L 166.512433 332.359562 
L 166.881694 332.005039 
L 167.620217 330.553777 
L 168.358739 328.504611 
L 169.466523 324.526901 
L 170.574307 319.506921 
L 171.682091 313.475056 
L 173.159136 303.921501 
L 174.636182 292.739554 
L 176.85175 274.958241 
L 177.221011 274.828028 
L 177.959533 275.116664 
L 181.652147 277.453235 
L 187.191066 280.774421 
L 192.360725 283.623245 
L 197.530383 286.228935 
L 202.700041 288.591877 
L 207.8697 290.713388 
L 212.300835 292.310779 
L 212.670097 292.126163 
L 213.408619 292.1282 
L 214.885665 292.507022 
L 219.3168 293.789396 
L 220.793846 294.11729 
L 221.163107 291.851208 
L 221.90163 286.387607 
L 222.270891 284.277587 
L 223.009414 281.264847 
L 224.85572 256.979434 
L 225.594243 249.079579 
L 226.332765 243.121634 
L 227.071288 238.546961 
L 228.179072 233.395296 
L 229.286856 229.552086 
L 230.39464 226.526981 
L 231.502424 224.04275 
L 232.979469 221.305872 
L 234.456514 219.045 
L 235.933559 217.15425 
L 237.410605 215.576942 
L 238.88765 214.280048 
L 240.364695 213.241826 
L 241.84174 212.445984 
L 243.318786 211.878756 
L 244.795831 211.527485 
L 246.272876 211.379945 
L 248.119183 211.354669 
L 249.226967 211.057903 
L 250.334751 210.673442 
L 251.442535 210.009208 
L 252.91958 208.809644 
L 255.504409 206.333029 
L 258.827761 203.026517 
L 259.197022 216.09278 
L 260.304806 194.818773 
L 260.674067 191.633499 
L 261.781851 185.655275 
L 262.889635 180.145777 
L 263.628158 160.38499 
L 263.997419 144.172685 
L 264.36668 134.934386 
L 264.735942 130.986041 
L 265.105203 132.761475 
L 265.843726 144.812019 
L 266.95151 163.39738 
L 267.690032 171.694258 
L 268.428555 177.070522 
L 268.797816 178.984615 
L 269.167078 180.012877 
L 269.536339 180.389655 
L 269.9056 180.342004 
L 270.644123 179.64949 
L 271.013384 179.124103 
L 272.121168 176.978223 
L 273.967475 173.772242 
L 274.336736 174.525173 
L 274.705997 178.442842 
L 275.075258 180.695456 
L 275.44452 181.502207 
L 275.813781 181.521168 
L 277.660088 178.133105 
L 278.767872 177.052374 
L 279.506394 176.568409 
L 280.244917 176.274612 
L 280.983439 176.175861 
L 281.721962 176.275185 
L 282.460485 176.573774 
L 283.199007 177.071147 
L 284.306791 178.184837 
L 285.414575 179.726448 
L 286.522359 181.673278 
L 287.999404 184.844186 
L 289.47645 188.582125 
L 291.322756 193.865483 
L 291.692018 194.981578 
L 292.061279 197.627416 
L 292.43054 215.770413 
L 292.799801 227.523011 
L 293.169063 234.357648 
L 293.538324 236.418853 
L 293.907585 234.846755 
L 295.015369 225.259855 
L 295.384631 224.060052 
L 295.753892 224.162713 
L 296.123153 225.165237 
L 297.230937 229.353207 
L 297.96946 231.22373 
L 299.077244 233.496965 
L 299.815766 235.480357 
L 300.92355 239.166538 
L 302.400596 244.402776 
L 302.769857 245.291002 
L 303.139118 245.810177 
L 303.50838 246.00595 
L 304.246902 245.864271 
L 304.985425 245.668413 
L 305.723947 245.723944 
L 307.939515 246.225091 
L 314.586219 246.886099 
L 320.863661 247.239055 
L 328.618149 247.468011 
L 328.98741 247.260498 
L 330.095194 245.716928 
L 330.464455 244.823089 
L 332.310762 238.698677 
L 332.680023 238.273589 
L 333.049284 238.198848 
L 333.787807 238.65088 
L 334.52633 239.168173 
L 335.264852 239.347705 
L 336.741898 239.410254 
L 337.849682 239.875309 
L 339.326727 240.540612 
L 341.173033 240.989898 
L 344.127124 241.549947 
L 347.450476 241.811332 
L 352.250873 241.925758 
L 371.0832 241.988332 
L 443.089155 242.024363 
L 498.109091 242.024928 
L 498.109091 242.024928 
" style="fill:none;stroke:#00bfbf;stroke-linecap:square;stroke-width:1.5;"/>
   </g>
   <g id="line2d_31">
    <path clip-path="url(#p7ad30e4078)" d="M 92.290909 242.024954 
L 92.66017 242.024954 
L 93.029432 243.895494 
L 93.398693 247.789727 
L 93.767954 253.330046 
L 94.506477 259.034932 
L 94.875738 260.819539 
L 95.245 258.828206 
L 95.614261 244.702562 
L 96.352784 207.518689 
L 96.722045 199.10267 
L 97.091306 196.933679 
L 97.460567 198.925935 
L 98.568351 211.11643 
L 98.937613 213.622317 
L 99.306874 214.869848 
L 99.676135 215.093627 
L 100.045397 214.648731 
L 101.153181 212.425936 
L 101.522442 211.973528 
L 101.891703 211.732174 
L 102.630226 211.686379 
L 104.107271 211.88999 
L 105.215055 211.739413 
L 108.169146 211.238711 
L 108.907668 211.133183 
L 109.276929 210.874203 
L 109.646191 211.353317 
L 110.015452 214.021966 
L 111.492497 232.412718 
L 111.861759 235.274829 
L 112.23102 237.259898 
L 112.969543 239.600653 
L 114.815849 243.914019 
L 116.292894 247.488298 
L 117.400678 249.629986 
L 119.246985 252.571793 
L 121.462553 255.660909 
L 124.416643 259.344695 
L 128.847779 264.466754 
L 135.494483 271.771734 
L 143.24897 279.963101 
L 151.372719 288.221671 
L 158.019423 294.74675 
L 158.388684 296.420525 
L 158.757945 302.719609 
L 159.865729 342.696911 
L 160.23499 350.313597 
L 160.604252 314.007691 
L 160.973513 304.318531 
L 161.342774 307.409171 
L 162.081297 314.572609 
L 163.189081 321.722982 
L 163.558342 318.492803 
L 164.296865 279.355417 
L 164.666126 279.346613 
L 165.035388 288.131194 
L 165.404649 291.16815 
L 165.77391 292.378401 
L 166.143171 293.137732 
L 166.512433 293.168304 
L 166.881694 292.735627 
L 167.620217 291.43851 
L 168.358739 289.734257 
L 169.097262 287.497122 
L 170.205046 283.133547 
L 171.31283 277.603453 
L 172.420614 270.943831 
L 173.897659 260.381727 
L 175.374704 248.009031 
L 176.85175 235.010767 
L 177.221011 234.031388 
L 177.590272 234.267924 
L 178.328795 235.417706 
L 187.560328 245.637652 
L 194.207031 252.732399 
L 200.484473 259.118999 
L 206.761916 265.181625 
L 212.670097 270.842479 
L 213.408619 271.831903 
L 214.885665 274.424254 
L 221.163107 286.302367 
L 221.532368 286.380651 
L 221.90163 289.818231 
L 222.640152 308.537613 
L 223.009414 313.292546 
L 223.378675 312.308213 
L 224.486459 304.944167 
L 225.594243 299.571077 
L 227.071288 293.679932 
L 228.917595 287.498688 
L 231.133162 281.027985 
L 233.34873 275.207877 
L 235.933559 269.069894 
L 238.149127 264.330021 
L 240.364695 260.065008 
L 242.580263 256.274403 
L 244.795831 252.956494 
L 246.642137 250.549058 
L 247.749921 249.323192 
L 248.857705 248.255518 
L 250.704012 246.034512 
L 258.458499 236.297461 
L 258.827761 261.360884 
L 259.197022 237.988212 
L 259.566283 232.561079 
L 259.935545 234.632629 
L 260.674067 240.358974 
L 261.043329 242.108568 
L 261.41259 242.67981 
L 261.781851 242.608585 
L 262.151113 242.187861 
L 262.520374 241.474719 
L 262.889635 228.731268 
L 263.628158 165.841524 
L 264.36668 141.190714 
L 264.735942 145.272155 
L 265.474464 161.189483 
L 265.843726 166.147051 
L 266.212987 169.262949 
L 266.582248 171.161692 
L 266.95151 172.310866 
L 267.690032 173.56615 
L 268.428555 174.506844 
L 268.797816 174.189252 
L 269.536339 172.836895 
L 270.274861 171.581928 
L 271.013384 170.681851 
L 271.382645 170.454803 
L 271.751907 169.995165 
L 272.121168 170.158491 
L 272.859691 170.654607 
L 273.228952 170.709685 
L 273.598213 170.624993 
L 273.967475 170.421972 
L 274.336736 169.413142 
L 276.552304 152.174012 
L 276.921565 150.507014 
L 277.660088 148.69785 
L 278.767872 146.818471 
L 279.506394 145.964539 
L 280.244917 145.425915 
L 280.983439 145.197277 
L 281.721962 145.272762 
L 282.460485 145.64539 
L 283.199007 146.307108 
L 283.93753 147.248718 
L 285.045314 149.162289 
L 286.153098 151.63887 
L 287.260882 154.627234 
L 288.737927 159.302138 
L 290.584234 166.014605 
L 291.692018 170.359236 
L 292.061279 169.57699 
L 292.43054 145.478632 
L 292.799801 144.192049 
L 293.169063 160.175082 
L 293.907585 201.7332 
L 294.276847 214.532978 
L 294.646108 220.05111 
L 295.015369 220.06729 
L 296.123153 212.058853 
L 296.492415 212.016866 
L 296.861676 213.832636 
L 297.600199 220.881135 
L 299.077244 236.177953 
L 300.92355 254.337798 
L 301.662073 246.851642 
L 302.031334 244.674522 
L 302.400596 244.202177 
L 302.769857 245.045378 
L 303.877641 249.674077 
L 304.246902 250.678878 
L 304.616163 251.286527 
L 305.354686 251.79985 
L 306.093209 252.187682 
L 306.831731 252.847116 
L 308.678038 254.738243 
L 310.524344 256.125579 
L 312.739912 257.554175 
L 314.95548 258.706652 
L 317.540309 259.779272 
L 320.125139 260.61295 
L 323.079229 261.335762 
L 326.402581 261.922662 
L 328.618149 262.210563 
L 328.98741 261.94852 
L 329.356671 260.942744 
L 329.725933 260.896342 
L 330.095194 263.353371 
L 331.202978 274.509468 
L 331.572239 276.139433 
L 331.941501 276.112942 
L 332.310762 274.71918 
L 333.787807 265.928771 
L 334.157068 264.716741 
L 334.52633 263.981394 
L 335.634114 262.673231 
L 336.372636 261.118375 
L 338.218943 256.033802 
L 338.957465 254.714832 
L 340.434511 252.799901 
L 342.280817 250.590472 
L 343.388601 249.647715 
L 345.234908 248.515371 
L 347.081214 247.624852 
L 349.296782 246.862474 
L 352.250873 246.080375 
L 356.312747 245.257349 
L 361.482405 244.44709 
L 367.390586 243.757169 
L 374.03729 243.209484 
L 382.161039 242.768977 
L 392.869617 242.428068 
L 407.640069 242.198069 
L 432.011316 242.067865 
L 495.155 242.026109 
L 498.109091 242.025929 
L 498.109091 242.025929 
" style="fill:none;stroke:#ff0000;stroke-linecap:square;stroke-width:1.5;"/>
   </g>
   <g id="line2d_32">
    <path clip-path="url(#p7ad30e4078)" d="M 92.290909 242.024954 
L 92.66017 242.024954 
L 93.029432 242.024954 
L 93.767954 235.871877 
L 94.506477 232.915789 
L 94.875738 231.935726 
L 95.245 235.784096 
L 96.352784 291.968817 
L 96.722045 294.014116 
L 97.091306 289.810205 
L 98.19909 270.951712 
L 98.568351 267.692731 
L 98.937613 266.357633 
L 99.306874 266.472247 
L 99.676135 267.445645 
L 100.414658 269.971041 
L 100.783919 270.913225 
L 101.153181 271.496916 
L 101.522442 271.754861 
L 101.891703 271.775405 
L 103.73801 271.254005 
L 104.845794 271.438261 
L 106.6921 271.822414 
L 108.907668 272.132605 
L 109.276929 272.752704 
L 109.646191 272.243498 
L 110.015452 268.731159 
L 110.753975 258.575994 
L 111.123236 254.930901 
L 111.492497 252.789154 
L 111.861759 251.912881 
L 112.23102 251.895606 
L 112.969543 252.930585 
L 113.708065 253.948459 
L 115.923633 256.089907 
L 116.662156 257.321036 
L 118.139201 260.415346 
L 120.354769 265.674275 
L 123.678121 274.24064 
L 137.71005 310.973071 
L 144.726015 328.506502 
L 151.74198 345.420921 
L 158.388684 360.897143 
L 158.757945 351.117234 
L 159.496468 318.968605 
L 159.865729 309.919721 
L 160.23499 307.531837 
L 160.604252 335.8067 
L 160.973513 334.567767 
L 161.712036 314.402198 
L 162.081297 310.016247 
L 162.450558 307.456026 
L 162.81982 306.096986 
L 163.189081 305.850216 
L 163.558342 304.777905 
L 163.927604 342.74861 
L 164.296865 352.51672 
L 164.666126 347.971268 
L 165.035388 341.230641 
L 165.404649 326.298562 
L 165.77391 320.419482 
L 166.143171 318.430717 
L 166.881694 317.113792 
L 167.620217 315.682107 
L 168.358739 313.689679 
L 169.466523 309.828808 
L 170.574307 304.918129 
L 171.682091 298.986102 
L 173.159136 289.55724 
L 174.636182 278.491586 
L 176.85175 260.923132 
L 177.590272 260.231107 
L 177.959533 260.05077 
L 178.328795 260.109673 
L 180.175101 261.175815 
L 188.29885 265.824142 
L 193.468509 268.463169 
L 198.268906 270.675105 
L 203.069303 272.655571 
L 207.8697 274.403659 
L 212.670097 276.13886 
L 215.254926 278.740991 
L 218.209016 281.773146 
L 220.424584 283.766635 
L 220.793846 284.072265 
L 221.163107 281.168526 
L 221.532368 276.623364 
L 221.90163 267.532057 
L 223.009414 221.480904 
L 223.378675 228.650486 
L 223.747936 231.258289 
L 224.85572 247.004401 
L 225.594243 253.593415 
L 225.963504 255.606806 
L 226.332765 256.932031 
L 226.702027 257.679537 
L 227.071288 257.942992 
L 227.440549 257.800457 
L 227.809811 257.316672 
L 228.548333 255.530944 
L 229.286856 252.915619 
L 230.39464 247.920103 
L 231.871685 239.983882 
L 234.087253 226.588613 
L 237.779866 202.585198 
L 245.534354 151.924855 
L 248.488444 134.115861 
L 249.596228 128.94882 
L 250.704012 124.856906 
L 251.811796 121.503513 
L 253.288841 117.704993 
L 255.504409 112.715594 
L 258.827761 105.884251 
L 259.197022 66.96 
L 259.566283 97.877936 
L 259.935545 113.516433 
L 260.304806 120.114422 
L 261.41259 131.339673 
L 262.520374 146.246956 
L 262.889635 151.513483 
L 263.258897 218.876882 
L 263.997419 294.894034 
L 264.36668 322.852981 
L 264.735942 323.564678 
L 265.474464 299.0378 
L 266.212987 275.827737 
L 266.95151 260.137832 
L 267.690032 251.523098 
L 268.059294 249.18378 
L 268.428555 247.715628 
L 268.797816 243.93814 
L 269.167078 242.207276 
L 269.536339 241.678826 
L 269.9056 241.625219 
L 271.013384 241.930747 
L 271.382645 241.671304 
L 271.751907 241.68781 
L 272.859691 239.525861 
L 273.228952 239.236017 
L 273.598213 239.171501 
L 273.967475 239.2625 
L 274.336736 235.557708 
L 274.705997 224.977618 
L 275.075258 222.730934 
L 275.44452 223.488442 
L 276.921565 230.964005 
L 278.029349 232.239243 
L 282.460485 237.259351 
L 290.953495 246.507576 
L 291.692018 247.204162 
L 292.061279 249.053191 
L 292.43054 266.11758 
L 292.799801 253.737327 
L 293.538324 203.524652 
L 293.907585 189.58844 
L 294.276847 186.677967 
L 294.646108 191.984641 
L 295.753892 219.441809 
L 296.123153 224.809209 
L 296.492415 227.690624 
L 296.861676 228.935563 
L 297.600199 230.246824 
L 297.96946 231.547637 
L 298.707982 236.132141 
L 301.662073 258.896154 
L 302.031334 259.471682 
L 302.400596 258.315799 
L 303.50838 252.482865 
L 303.877641 251.511948 
L 304.246902 251.161465 
L 304.616163 251.227402 
L 305.723947 251.853353 
L 306.093209 251.844609 
L 306.831731 251.520685 
L 307.939515 250.936891 
L 309.047299 250.623919 
L 315.694003 249.343197 
L 320.125139 248.821309 
L 325.664058 248.39848 
L 328.618149 248.242255 
L 329.356671 247.183558 
L 329.725933 245.466804 
L 331.202978 227.917107 
L 331.572239 227.217269 
L 331.941501 228.190838 
L 333.418546 235.519939 
L 333.787807 236.017501 
L 334.157068 235.928333 
L 335.264852 234.806052 
L 335.634114 234.845018 
L 336.003375 235.197607 
L 336.741898 236.507156 
L 337.48042 237.852942 
L 338.218943 238.678423 
L 338.957465 239.051795 
L 340.065249 239.498309 
L 342.650079 240.873204 
L 344.496385 241.248741 
L 347.081214 241.617552 
L 350.773827 241.779989 
L 359.266838 241.865897 
L 394.346662 242.002322 
L 498.109091 242.024894 
L 498.109091 242.024894 
" style="fill:none;stroke:#008000;stroke-linecap:square;stroke-width:1.5;"/>
   </g>
   <g id="patch_3">
    <path d="M 72 384.48 
L 72 51.84 
" style="fill:none;stroke:#000000;stroke-linecap:square;stroke-linejoin:miter;stroke-width:0.8;"/>
   </g>
   <g id="patch_4">
    <path d="M 518.4 384.48 
L 518.4 51.84 
" style="fill:none;stroke:#000000;stroke-linecap:square;stroke-linejoin:miter;stroke-width:0.8;"/>
   </g>
   <g id="patch_5">
    <path d="M 72 384.48 
L 518.4 384.48 
" style="fill:none;stroke:#000000;stroke-linecap:square;stroke-linejoin:miter;stroke-width:0.8;"/>
   </g>
   <g id="patch_6">
    <path d="M 72 51.84 
L 518.4 51.84 
" style="fill:none;stroke:#000000;stroke-linecap:square;stroke-linejoin:miter;stroke-width:0.8;"/>
   </g>
   <g id="legend_1">
    <g id="patch_7">
     <path d="M 446.187419 119.69056 
L 511.4 119.69056 
Q 513.4 119.69056 513.4 117.69056 
L 513.4 58.84 
Q 513.4 56.84 511.4 56.84 
L 446.187419 56.84 
Q 444.187419 56.84 444.187419 58.84 
L 444.187419 117.69056 
Q 444.187419 119.69056 446.187419 119.69056 
z
" style="fill:#ffffff;opacity:0.8;stroke:#cccccc;stroke-linejoin:miter;"/>
    </g>
    <g id="line2d_33">
     <path d="M 448.187419 65.365462 
L 468.187419 65.365462 
" style="fill:none;stroke:#bf00bf;stroke-linecap:square;stroke-width:1.5;"/>
    </g>
    <g id="line2d_34"/>
    <g id="text_17">
     <!-- $\partial \mathcal{L}/ \partial u_{1}$ -->
     <g transform="translate(476.187419 68.865462)scale(0.1 -0.1)">
      <use transform="translate(0 14.943915)scale(0.996264)" xlink:href="#CMMI12-64"/>
      <use transform="translate(56.915564 14.943915)scale(0.996264)" xlink:href="#CMSY10-76"/>
      <use transform="translate(125.630372 14.943915)scale(0.996264)" xlink:href="#CMMI12-61"/>
      <use transform="translate(174.405291 14.943915)scale(0.996264)" xlink:href="#CMMI12-64"/>
      <use transform="translate(231.320856 14.943915)scale(0.996264)" xlink:href="#CMMI12-117"/>
      <use transform="translate(286.841185 0)scale(0.697382)" xlink:href="#CMR17-49"/>
     </g>
    </g>
    <g id="line2d_35">
     <path d="M 448.187419 80.328102 
L 468.187419 80.328102 
" style="fill:none;stroke:#00bfbf;stroke-linecap:square;stroke-width:1.5;"/>
    </g>
    <g id="line2d_36"/>
    <g id="text_18">
     <!-- $\partial \mathcal{L}/ \partial u_{2}$ -->
     <g transform="translate(476.187419 83.828102)scale(0.1 -0.1)">
      <use transform="translate(0 14.943915)scale(0.996264)" xlink:href="#CMMI12-64"/>
      <use transform="translate(56.915564 14.943915)scale(0.996264)" xlink:href="#CMSY10-76"/>
      <use transform="translate(125.630372 14.943915)scale(0.996264)" xlink:href="#CMMI12-61"/>
      <use transform="translate(174.405291 14.943915)scale(0.996264)" xlink:href="#CMMI12-64"/>
      <use transform="translate(231.320856 14.943915)scale(0.996264)" xlink:href="#CMMI12-117"/>
      <use transform="translate(286.841185 0)scale(0.697382)" xlink:href="#CMR17-50"/>
     </g>
    </g>
    <g id="line2d_37">
     <path d="M 448.187419 95.290742 
L 468.187419 95.290742 
" style="fill:none;stroke:#ff0000;stroke-linecap:square;stroke-width:1.5;"/>
    </g>
    <g id="line2d_38"/>
    <g id="text_19">
     <!-- $\partial \mathcal{L}/ \partial u_{3}$ -->
     <defs>
      <path d="M 22.09375 33.703125 
C 31 33.703125 34.90625 25.96875 34.90625 17.03125 
C 34.90625 5 28.5 0.390625 22.703125 0.390625 
C 17.40625 0.390625 8.796875 3.03125 6.09375 10.828125 
C 6.59375 10.625 7.09375 10.625 7.59375 10.625 
C 10 10.625 11.796875 12.21875 11.796875 14.8125 
C 11.796875 17.703125 9.59375 19 7.59375 19 
C 5.90625 19 3.296875 18.203125 3.296875 14.46875 
C 3.296875 5.234375 12.296875 -2 22.90625 -2 
C 34 -2 42.5 6.71875 42.5 16.953125 
C 42.5 26.671875 34.5 33.703125 25 34.796875 
C 32.59375 36.375 39.90625 43.0625 39.90625 52.015625 
C 39.90625 59.6875 32 65.296875 23 65.296875 
C 13.90625 65.296875 5.90625 59.828125 5.90625 52.015625 
C 5.90625 48.59375 8.5 48 9.796875 48 
C 11.90625 48 13.703125 49.296875 13.703125 51.890625 
C 13.703125 54.46875 11.90625 55.765625 9.796875 55.765625 
C 9.40625 55.765625 8.90625 55.765625 8.5 55.578125 
C 11.40625 61.859375 19.296875 63 22.796875 63 
C 26.296875 63 32.90625 61.328125 32.90625 51.875 
C 32.90625 49.109375 32.5 44.1875 29.09375 39.84375 
C 26.09375 36 22.703125 36 19.40625 35.6875 
C 18.90625 35.6875 16.59375 35.453125 16.203125 35.453125 
C 15.5 35.359375 15.09375 35.265625 15.09375 34.5 
C 15.09375 33.796875 15.203125 33.703125 17.203125 33.703125 
z
" id="CMR17-51"/>
     </defs>
     <g transform="translate(476.187419 98.790742)scale(0.1 -0.1)">
      <use transform="translate(0 14.943915)scale(0.996264)" xlink:href="#CMMI12-64"/>
      <use transform="translate(56.915564 14.943915)scale(0.996264)" xlink:href="#CMSY10-76"/>
      <use transform="translate(125.630372 14.943915)scale(0.996264)" xlink:href="#CMMI12-61"/>
      <use transform="translate(174.405291 14.943915)scale(0.996264)" xlink:href="#CMMI12-64"/>
      <use transform="translate(231.320856 14.943915)scale(0.996264)" xlink:href="#CMMI12-117"/>
      <use transform="translate(286.841185 0)scale(0.697382)" xlink:href="#CMR17-51"/>
     </g>
    </g>
    <g id="line2d_39">
     <path d="M 448.187419 110.253382 
L 468.187419 110.253382 
" style="fill:none;stroke:#008000;stroke-linecap:square;stroke-width:1.5;"/>
    </g>
    <g id="line2d_40"/>
    <g id="text_20">
     <!-- $\partial \mathcal{L}/ \partial u_{4}$ -->
     <g transform="translate(476.187419 113.753382)scale(0.1 -0.1)">
      <use transform="translate(0 14.943915)scale(0.996264)" xlink:href="#CMMI12-64"/>
      <use transform="translate(56.915564 14.943915)scale(0.996264)" xlink:href="#CMSY10-76"/>
      <use transform="translate(125.630372 14.943915)scale(0.996264)" xlink:href="#CMMI12-61"/>
      <use transform="translate(174.405291 14.943915)scale(0.996264)" xlink:href="#CMMI12-64"/>
      <use transform="translate(231.320856 14.943915)scale(0.996264)" xlink:href="#CMMI12-117"/>
      <use transform="translate(286.841185 0)scale(0.697382)" xlink:href="#CMR17-52"/>
     </g>
    </g>
   </g>
  </g>
 </g>
 <defs>
  <clipPath id="p7ad30e4078">
   <rect height="332.64" width="446.4" x="72" y="51.84"/>
  </clipPath>
 </defs>
</svg>
