<?xml version="1.0" encoding="utf-8" standalone="no"?>
<!DOCTYPE svg PUBLIC "-//W3C//DTD SVG 1.1//EN"
  "http://www.w3.org/Graphics/SVG/1.1/DTD/svg11.dtd">
<!-- Created with matplotlib (http://matplotlib.org/) -->
<svg height="432pt" version="1.1" viewBox="0 0 576 432" width="576pt" xmlns="http://www.w3.org/2000/svg" xmlns:xlink="http://www.w3.org/1999/xlink">
 <defs>
  <style type="text/css">
*{stroke-linecap:butt;stroke-linejoin:round;}
  </style>
 </defs>
 <g id="figure_1">
  <g id="patch_1">
   <path d="
M0 432
L576 432
L576 0
L0 0
z
" style="fill:#ffffff;"/>
  </g>
  <g id="axes_1">
   <g id="patch_2">
    <path d="
M72 388.8
L518.4 388.8
L518.4 43.2
L72 43.2
z
" style="fill:#ffffff;"/>
   </g>
   <g id="line2d_1">
    <path clip-path="url(#p7ff5b81e1d)" d="
M89.4832 216
L98.4351 216
L98.9832 216
L99.3576 213.3
L99.3893 209.925
L99.9086 200.87
L100.548 193.435
L100.969 192.227
L101.113 191.198
L101.55 189.56
L102.392 188.908
L102.758 188.345
L103.387 186.746
L104.351 186.225
L106.399 186.014
L107.191 185.303
L108.519 185.06
L109.705 184.765
L111.474 184.628
L111.959 184.617
L112.125 182.62
L113.076 179.815
L114.419 176.665
L114.748 173.38
L114.893 170.057
L116.174 166.74
L116.541 160.214
L116.968 157.023
L117.798 141.912
L118.016 139.911
L119.005 116.246
L119.861 102.442
L120.189 99.1782
L120.504 92.8813
L120.933 84.0169
L121.632 78.4937
L122.202 73.2755
L124.876 70.976
L125.568 69.2479
L126.039 66.155
L126.417 65.121
L126.637 64.7787
L127.257 64.5169
L127.746 64.0463
L128.236 63.8353
L134.676 63.6634
L143.783 63.6632
L143.96 63.8631
L144.122 64.2689
L146.211 64.852
L146.547 66.3924
L146.697 67.2797
L147.297 68.2089
L147.758 70.1174
L148.253 72.0101
L148.609 73.8285
L149.267 76.358
L149.852 77.1494
L150.217 77.9653
L150.39 78.8247
L150.773 79.7362
L152.131 80.7024
L152.648 83.9153
L153.74 91.4743
L154.228 92.841
L155.153 99.9439
L155.666 101.398
L156.216 105.784
L156.488 107.245
L156.632 108.702
L157.158 110.153
L157.801 111.595
L159.693 126.41
L159.927 127.621
L161.103 129.955
L162.016 135.236
L162.72 138.834
L162.959 139.64
L163.577 140.408
L164.67 141.137
L165.299 143.087
L165.659 143.656
L166.28 144.186
L167.325 144.674
L167.824 145.894
L168.039 146.219
L169.505 146.948
L169.975 147.231
L171.13 147.319
L171.913 146.978
L172.098 146.789
L174.796 146.564
L175.057 146.302
L175.889 146.005
L177.418 145.673
L178.445 143.515
L178.834 142.433
L179.419 141.848
L180.075 139.931
L180.264 139.24
L180.875 137.787
L181.481 135.442
L182.172 134.62
L183.14 130.258
L183.974 127.474
L184.409 125.566
L184.961 122.647
L185.491 120.676
L186.046 119.686
L186.318 118.693
L186.973 117.701
L187.429 115.717
L188.25 112.76
L188.63 111.784
L189.982 105.166
L190.406 103.371
L191.132 102.494
L192.652 101.631
L193.164 99.1343
L194.259 94.6181
L194.587 93.9339
L195.452 90.8359
L196.636 87.4681
L196.986 87.084
L198.513 86.7246
L198.885 86.3902
L199.461 86.0807
L199.636 85.7963
L200.264 85.3026
L201.378 85.0934
L201.572 84.9091
L202.529 84.5057
L204.346 84.3578
L205.8 85.0463
L206.293 85.6823
L206.617 86.207
L207.162 86.8079
L207.521 87.4812
L208.092 87.8436
L211.248 88.6176
L211.837 89.4532
L212.348 90.8123
L213.381 92.284
L213.906 92.7967
L214.298 93.8517
L214.839 94.3927
L215.007 94.942
L216.125 96.0624
L216.51 97.208
L217.407 98.3736
L217.992 100.149
L218.685 100.745
L219.493 103.137
L220.437 103.733
L220.978 104.328
L221.342 105.51
L222.441 107.257
L223.12 107.829
L223.272 108.397
L224.062 108.958
L224.459 110.059
L224.985 110.599
L225.19 111.131
L225.691 111.654
L227.022 115.045
L227.326 115.486
L227.476 115.915
L228.164 116.332
L228.354 116.736
L231.509 117.871
L232.034 118.884
L232.569 119.194
L232.926 119.771
L234.223 121.323
L235.545 122.067
L236.253 122.264
L236.952 122.228
L238.231 121.97
L239.839 121.023
L240.554 120.841
L241.162 120.003
L242.382 117.881
L242.983 117.581
L244.041 117.274
L244.812 115.655
L245.648 113.928
L246.633 111.781
L247.049 111.42
L247.205 111.06
L248.846 109.627
L250.129 109.273
L251.175 107.208
L251.588 106.549
L252.301 104.991
L252.499 104.696
L253.136 104.408
L254.777 101.707
L255.676 100.647
L256.327 100.117
L256.468 100.007
L257.547 99.8148
L258.642 99.4557
L259.521 99.4017
L261.516 99.5125
L262.279 99.8317
L262.806 100.113
L265.016 101.806
L269.887 107.58
L270.55 107.789
L271.633 107.997
L273.887 110.275
L274.375 110.605
L275.022 110.919
L275.953 111.215
L276.594 111.491
L277.373 111.749
L278.238 112.203
L280.12 112.573
L281.938 113.012
L284.378 113.186
L286.258 113.065
L288.415 112.645
L288.634 112.573
L289.884 112.419
L291.287 111.872
L291.996 111.559
L292.836 110.988
L293.748 110.746
L294.307 110.498
L295.664 109.467
L296.493 108.944
L298.03 108.172
L298.768 107.922
L299.699 107.323
L301.636 106.465
L302.508 106.274
L304.068 106.094
L305.331 105.554
L305.608 105.489
L317.708 104.894
L322.222 105.186
L325.257 105.897
L326.524 106.103
L328.664 106.696
L330.462 106.852
L332.338 107.56
L334.093 108.241
L336.016 108.844
L337.455 109.076
L338.514 109.375
L339.843 109.573
L341.45 109.809
L343.457 109.883
L345.765 109.75
L346.119 109.705
L349.48 109.566
L349.646 109.535
L351.635 109.359
L354.094 108.849
L358.986 108.472
L364.855 107.238
L367.3 107.038
L370.012 106.867
L372.477 106.94
L376.212 107.344
L381.94 108.146
L383.863 108.356
L393.596 108.634
L396.849 108.461
L408.713 107.604
L413.229 107.626
L418.211 107.794
L425.96 108.131
L448.167 108.102
L455.653 107.927
L462.885 107.85
L473.25 107.959
L474.824 107.978
L474.824 107.978" style="fill:none;stroke:#bf00bf;stroke-linecap:square;"/>
   </g>
   <g id="line2d_2">
    <path clip-path="url(#p7ff5b81e1d)" d="
M89.5091 216
L98.5553 216
L99.0238 216
L99.0775 218.7
L99.4694 222.075
L99.6954 228.402
L100.154 233.473
L100.602 238.565
L100.979 239.773
L101.255 241.683
L101.643 242.44
L102.474 243.092
L102.796 243.655
L103.218 244.935
L103.34 245.254
L103.711 245.532
L104.438 245.775
L106.391 245.986
L107.199 246.697
L108.558 246.94
L109.562 247.208
L111.31 247.365
L111.939 247.383
L112.241 249.38
L112.99 252.185
L114.273 255.335
L114.941 261.943
L116.184 265.26
L116.83 274.977
L117.163 278.115
L117.722 290.088
L118.039 292.089
L118.536 304.623
L119.361 322.804
L120.341 336.009
L120.821 345.106
L120.962 347.983
L121.405 350.783
L122.185 358.725
L124.92 361.024
L125.583 362.752
L126.062 365.845
L126.399 366.879
L126.73 367.221
L127.293 367.483
L127.589 367.836
L128.269 368.165
L134.737 368.337
L143.852 368.337
L144.038 368.137
L144.238 367.731
L146.271 367.148
L146.777 364.72
L147.373 363.791
L147.817 361.883
L148.146 360.93
L148.731 358.171
L149.37 355.642
L149.928 354.851
L150.281 354.035
L150.458 353.175
L150.838 352.264
L152.216 351.298
L152.859 346.918
L153.544 341.867
L153.81 340.526
L154.32 339.159
L155.012 333.503
L155.31 332.056
L155.757 330.602
L156.291 326.216
L156.569 324.755
L156.716 323.298
L157.234 321.847
L157.871 320.405
L159.03 310.692
L159.987 304.379
L161.165 302.045
L162.262 295.81
L162.804 293.166
L163.056 292.36
L163.645 291.592
L164.739 290.863
L165.384 288.913
L166.387 287.814
L167.396 287.326
L167.892 286.106
L168.114 285.781
L169.43 285.254
L169.578 285.052
L170.06 284.769
L171.192 284.681
L171.732 284.87
L172.202 285.211
L174.877 285.436
L175.163 285.698
L175.988 285.995
L177.515 286.327
L178.528 288.485
L178.893 289.567
L179.49 290.152
L180.144 292.069
L181.58 296.558
L182.274 297.38
L183.011 300.839
L183.759 303.587
L184.29 305.476
L185.029 309.353
L185.302 310.336
L185.876 311.324
L186.405 313.307
L187.075 314.299
L187.491 316.283
L187.94 318.258
L188.407 319.24
L188.717 320.216
L190.218 327.738
L190.494 328.629
L191.27 329.506
L192.703 330.369
L193.599 334.446
L195.702 341.716
L197.077 344.916
L198.564 345.275
L200.323 346.697
L201.47 346.907
L202.32 347.385
L202.596 347.494
L204.405 347.642
L205.697 347.124
L206.185 346.55
L207.621 344.519
L208.165 344.156
L209.506 343.777
L211.343 343.382
L211.901 342.547
L212.425 341.188
L212.96 340.218
L213.982 339.203
L214.354 338.148
L215.4 337.058
L215.576 336.501
L216.179 335.938
L216.379 335.368
L216.892 334.792
L217.118 334.211
L217.465 333.626
L218.053 331.851
L218.743 331.255
L219.561 328.863
L220.536 328.267
L221.036 327.672
L221.404 326.49
L222.521 324.743
L223.179 324.171
L223.351 323.603
L224.129 323.042
L224.527 321.941
L225.043 321.401
L225.248 320.869
L225.782 320.346
L226.414 318.831
L227.539 316.085
L228.227 315.668
L228.421 315.264
L231.564 314.129
L232.102 313.116
L232.625 312.806
L233.187 311.963
L233.811 311.253
L234.557 310.515
L235.929 309.805
L236.837 309.741
L238.47 310.127
L240.778 311.353
L241.69 312.729
L242.448 314.119
L243.042 314.419
L244.096 314.726
L246.701 320.219
L247.099 320.58
L247.269 320.94
L249.077 322.373
L250.19 322.727
L251.498 325.124
L252.555 327.304
L253.204 327.592
L254.56 329.872
L255.888 331.499
L256.38 331.883
L257.615 332.185
L258.7 332.544
L259.654 332.598
L261.61 332.487
L262.727 331.988
L263.999 330.999
L264.548 330.692
L264.935 330.365
L267.767 327.222
L268.15 326.79
L269.405 325.057
L270.152 324.42
L270.689 324.211
L271.726 324.003
L273.316 322.251
L273.783 321.896
L273.942 321.725
L275.164 321.081
L276.451 320.645
L276.673 320.509
L277.436 320.251
L278.338 319.797
L280.25 319.427
L281.718 319.034
L284.646 318.816
L286.58 318.972
L288.273 319.288
L288.689 319.427
L289.973 319.581
L290.538 319.84
L291.372 320.128
L292.237 320.551
L292.708 320.894
L294.364 321.502
L295.424 322.272
L296.059 322.795
L298.109 323.828
L298.816 324.078
L300.01 324.792
L300.634 325.015
L301.416 325.436
L302.137 325.632
L302.668 325.726
L304.145 325.906
L305.395 326.446
L305.689 326.511
L318.158 327.094
L322.467 326.772
L328.808 325.304
L330.546 325.148
L336.133 323.156
L337.722 322.87
L338.582 322.625
L339.899 322.427
L341.347 322.209
L343.144 322.117
L345.478 322.21
L346.199 322.295
L349.548 322.434
L352.419 322.719
L354.186 323.151
L359.093 323.528
L363.311 324.532
L369.756 325.126
L372.063 325.093
L375.972 324.707
L378.26 324.38
L381.472 323.931
L383.95 323.644
L393.823 323.366
L397.438 323.583
L402.878 324.098
L406.168 324.29
L410.353 324.412
L415.949 324.298
L419.661 324.125
L422.909 323.972
L426.051 323.869
L448.224 323.898
L455.527 324.068
L463.108 324.15
L473.307 324.041
L475.126 324.018
L475.126 324.018" style="fill:none;stroke:#00bfbf;stroke-linecap:square;"/>
   </g>
   <g id="line2d_3">
    <path clip-path="url(#p7ff5b81e1d)" d="
M89.5091 216
L98.5553 216
L98.6662 216
L99.0238 194.4
L99.0775 180.9
L99.4694 171.787
L99.6954 156.974
L100.289 144.168
L100.602 138.645
L100.979 136.448
L101.255 132.897
L101.643 131.463
L102.474 130.216
L102.796 129.129
L103.218 126.638
L103.34 126.012
L103.711 125.465
L104.438 124.989
L106.391 124.574
L107.058 123.38
L107.199 123.171
L108.259 122.829
L110.053 122.021
L112.99 121.581
L114.273 121.098
L114.629 120.375
L114.941 119.447
L116.184 118.351
L117.29 111.359
L117.722 106.639
L118.039 104.311
L118.183 104.261
L119.361 102.693
L120.659 101.622
L120.962 101.3
L121.655 100.994
L122.185 100.705
L125.583 100.443
L126.194 100.181
L127.423 100.09
L129.672 100.048
L139.848 100.042
L143.696 100.042
L144.238 100.769
L146.271 101.07
L146.777 101.98
L147.373 102.274
L147.817 102.837
L148.317 103.364
L148.927 104.082
L149.37 104.515
L150.281 104.912
L150.458 105.102
L150.838 105.287
L152.216 105.469
L153.81 106.988
L154.479 107.299
L155.012 107.748
L156.569 108.578
L156.716 108.707
L158.029 109.077
L159.231 109.839
L159.987 110.205
L161.342 110.444
L162.078 110.716
L163.056 110.976
L168.114 111.243
L171.025 111.153
L172.202 111
L177.515 110.829
L183.501 109.184
L186.405 108.286
L187.491 108.048
L190.494 107.115
L193.228 106.818
L194.99 106.396
L197.077 106.1
L204.405 106.123
L209.506 106.631
L211.901 106.757
L212.96 106.981
L216.179 107.367
L217.118 107.515
L223.351 108.359
L225.782 108.595
L227.539 108.883
L236.837 109.135
L242.006 108.706
L243.042 108.596
L244.702 108.451
L248.026 107.981
L251.666 107.695
L252.555 107.565
L254.56 107.4
L257.036 107.295
L262.031 107.369
L267.369 107.829
L270.152 108.088
L284.867 108.411
L291.915 108.234
L297.265 107.97
L309.992 107.752
L323.925 107.839
L338.582 108.136
L352.419 108.08
L363.641 107.934
L373.101 107.927
L394.365 108.044
L419.949 107.998
L433.256 108.02
L475.126 108.001
L475.126 108.001" style="fill:none;stroke:#ff0000;stroke-linecap:square;"/>
   </g>
   <g id="line2d_4">
    <path clip-path="url(#p7ff5b81e1d)" d="
M89.5778 216
L98.6061 216
L98.9604 216
L99.3315 237.6
L99.3492 251.1
L99.5172 255.445
L99.6492 263.193
L100.527 284.099
L100.919 286.506
L101.341 290.371
L101.53 291.925
L102.37 293.274
L102.736 294.448
L103.363 297.808
L103.792 298.397
L104.329 298.909
L106.339 299.357
L107.147 300.866
L107.969 301.063
L108.866 301.627
L109.843 302.06
L111.44 302.301
L112.084 302.334
L114.355 303.14
L114.721 303.956
L114.87 305
L116.149 306.227
L116.518 309.088
L116.941 310.663
L117.991 321.795
L118.155 321.775
L119.187 323.178
L119.837 323.795
L120.282 324.185
L121.304 325.08
L122.175 325.563
L125.544 325.849
L126.156 326.129
L127.408 326.224
L129.778 326.269
L146.183 326.281
L148.373 325.96
L149.831 325.76
L152.775 325.38
L153.696 325.044
L154.543 324.817
L155.124 324.578
L156.008 324.332
L156.598 324.083
L158.087 323.753
L159.286 323.201
L160.515 322.912
L161.413 322.71
L162.16 322.467
L162.911 322.256
L171.344 321.738
L178.61 321.94
L181.459 322.348
L182.709 322.536
L185.453 323.179
L187.339 323.464
L189.787 324.023
L190.701 324.234
L192.994 324.384
L194.231 324.703
L196.031 325.03
L196.945 325.166
L207.315 325.229
L208.021 325.192
L212.324 325.031
L230.358 323.489
L233.043 323.334
L236.927 323.18
L241.268 323.302
L259.493 324.495
L264.719 324.39
L270.515 324.032
L273.866 323.885
L278.205 323.768
L291.019 323.763
L314.586 324.174
L326.726 324.112
L343.96 323.892
L362.73 324.02
L372.614 324.061
L411.294 324.024
L477.078 324
L477.078 324" style="fill:none;stroke:#008000;stroke-linecap:square;"/>
   </g>
   <g id="line2d_5">
    <path clip-path="url(#p7ff5b81e1d)" d="
M89.5778 216
L98.6061 216
L98.9604 216
L99.3315 237.6
L99.3492 248.4
L99.5172 244.097
L99.6492 246.941
L99.8858 248.08
L100.091 248.265
L100.446 247.348
L100.527 246.652
L100.919 245.931
L101.341 244.579
L101.53 243.983
L102.37 243.446
L102.736 242.967
L103.363 241.551
L104.329 241.077
L106.339 240.884
L107.147 240.23
L108.498 240.006
L109.684 239.733
L111.269 239.613
L114.87 239.371
L116.149 239.194
L117.107 237.998
L118.155 235.312
L118.648 234.505
L119.187 234.142
L119.837 233.914
L120.762 233.623
L121.304 233.521
L122.175 233.378
L125.842 233.211
L126.617 233.115
L134.422 233.053
L143.611 233.053
L144.069 238.974
L146.183 241.327
L146.669 248.081
L147.272 250.174
L147.419 252.184
L148.216 257.725
L148.574 261.04
L149.039 264.078
L149.234 265.5
L149.831 266.86
L150.192 268.161
L150.36 269.405
L150.75 270.595
L152.105 271.734
L153.432 279.244
L153.696 280.012
L154.174 280.749
L155.124 283.988
L155.641 284.555
L156.189 286.112
L156.598 287.036
L157.776 287.874
L158.767 289.916
L159.286 290.69
L159.905 291.31
L161.248 291.785
L161.705 292.12
L162.911 292.401
L165.069 292.318
L165.552 292.203
L167.459 291.941
L168.018 291.582
L169.295 291.291
L169.944 290.783
L170.585 290.597
L171.567 289.544
L172.061 289.073
L174.731 288.828
L175.012 288.578
L175.832 288.322
L177.389 288.061
L178.792 286.116
L179.379 285.825
L180.016 284.942
L180.561 284.346
L181.226 283.448
L181.459 283.149
L182.134 282.85
L183.63 280.802
L184.379 279.962
L184.927 279.153
L185.453 278.636
L186.018 278.384
L186.291 278.137
L186.95 277.895
L187.83 276.982
L188.839 276.361
L189.222 275.978
L190.135 275.141
L190.701 274.856
L192.614 274.724
L193.487 274.178
L194.706 273.772
L195.815 273.636
L196.945 273.759
L199.408 273.911
L200.239 274.12
L201.545 274.29
L203.843 274.928
L206.264 276.671
L206.59 277.005
L207.315 277.522
L207.5 277.697
L208.021 277.874
L211.551 278.411
L211.958 278.772
L212.324 279.133
L213.355 279.675
L214.036 280.032
L214.273 280.21
L216.096 280.906
L216.478 281.243
L217.379 281.572
L217.95 282.048
L218.891 282.351
L219.464 282.782
L220.94 283.053
L221.29 283.309
L222.39 283.665
L224.23 284.084
L224.44 284.178
L226.145 284.582
L227.44 284.959
L232.546 285.117
L234.021 284.965
L236.059 284.436
L237.307 283.971
L238.031 283.796
L238.768 283.422
L241.012 282.602
L241.903 281.953
L242.358 281.626
L244.32 281.194
L246.612 279.808
L248.825 279.315
L250.268 279.167
L252.478 278.455
L254.01 278.26
L255.476 278.211
L258.034 278.445
L262.098 279.199
L267.85 281.213
L270.515 281.853
L272.151 282.003
L273.388 282.205
L276.572 282.355
L281.185 282.295
L283.946 282.087
L286.469 281.812
L294.765 280.633
L298.005 280.174
L300.862 279.944
L302.485 279.89
L313.743 279.925
L319.216 280.183
L322.199 280.335
L324.718 280.618
L331.965 281.072
L335.497 281.313
L340.689 281.352
L345.561 281.126
L346.095 281.085
L351.397 280.944
L354.866 280.749
L359.887 280.608
L364.485 280.461
L370.617 280.536
L383.819 280.997
L393.254 280.922
L404.436 280.683
L414.972 280.756
L423.799 280.863
L436.826 280.872
L477.078 280.82
L477.078 280.82" style="fill:none;stroke:#0000ff;stroke-linecap:square;"/>
   </g>
   <g id="line2d_6">
    <path clip-path="url(#p7ff5b81e1d)" d="
M89.5177 216
L98.5794 216
L98.6491 216
L99.0152 194.4
L99.0608 183.6
L99.4603 178.537
L99.7033 173.226
L99.9635 172.979
L100.161 173.419
L100.432 175.131
L100.855 176.092
L101.419 178.69
L101.601 179.406
L102.552 180.044
L102.963 181.109
L103.254 181.932
L103.441 182.269
L104.446 182.821
L106.45 183.046
L107.234 183.807
L108.562 184.068
L109.749 184.385
L111.687 184.538
L114.489 184.676
L114.792 184.838
L114.959 185.075
L116.266 185.384
L117.33 187.742
L117.653 188.916
L118.738 191.523
L119.251 191.923
L121 192.639
L122.311 192.89
L125.773 193.052
L126.725 193.198
L133.624 193.263
L143.691 193.263
L144.233 188.084
L146.294 186.024
L146.784 180.105
L147.337 178.269
L147.801 174.814
L148.304 171.641
L148.671 168.729
L149.377 164.813
L149.924 163.618
L150.256 162.475
L150.449 161.381
L150.818 160.334
L152.205 159.332
L153.5 152.701
L153.831 152.02
L154.343 151.366
L154.616 150.139
L155.221 148.483
L155.704 147.976
L156.696 145.754
L158.016 144.65
L158.667 143.419
L159.588 142.242
L159.971 141.876
L161.318 141.435
L161.81 141.118
L163.078 140.832
L165.352 140.922
L167.693 141.282
L168.109 141.495
L169.418 141.745
L170.042 142.184
L170.67 142.347
L171.474 143.069
L172.21 143.68
L174.848 143.896
L175.245 144.116
L175.978 144.342
L177.462 144.572
L178.286 145.536
L178.882 146.295
L179.479 146.553
L181.554 148.938
L182.28 149.205
L182.627 149.737
L184.013 151.295
L184.696 152.042
L185.013 152.524
L185.553 152.991
L186.165 153.219
L186.387 153.442
L187.069 153.661
L187.477 154.084
L189.877 155.88
L190.199 156.168
L190.517 156.302
L191.187 156.43
L192.879 156.667
L194.326 157.345
L196.273 157.59
L202.135 156.98
L204.096 156.399
L204.755 155.928
L205.492 155.671
L206.522 154.829
L206.656 154.68
L207.389 154.222
L207.564 154.066
L208.171 153.909
L211.657 153.432
L213.424 152.303
L214.691 151.824
L215.049 151.51
L216.364 151.047
L216.554 150.896
L217.451 150.6
L218.039 150.172
L219.024 149.898
L219.552 149.508
L221.046 149.262
L221.393 149.029
L223.428 148.506
L224.311 148.322
L224.515 148.236
L226.215 147.863
L227.519 147.509
L232.762 147.347
L234.266 147.495
L235.593 147.749
L241.208 149.628
L242.298 150.306
L242.442 150.403
L244.394 150.789
L246.333 151.874
L246.677 152.036
L251.642 153.019
L252.548 153.272
L254.108 153.457
L255.394 153.52
L257.966 153.348
L259.79 153.036
L261.756 152.81
L264.18 151.994
L265.088 151.76
L266.034 151.41
L269.578 150.4
L270.579 150.283
L272.452 150.115
L274.423 149.884
L278.424 149.801
L282.401 149.916
L285.984 150.191
L287.508 150.403
L291.112 150.779
L298.081 151.745
L300.928 151.956
L304.123 152.022
L307.348 152.04
L315.508 151.933
L319.329 151.762
L322.471 151.608
L328.729 151.129
L331.91 150.984
L334.927 150.772
L340.484 150.699
L353.588 151.19
L354.766 151.227
L360.487 151.392
L365.762 151.504
L371.568 151.415
L383.942 151.025
L393.762 151.097
L415.204 151.238
L428.744 151.135
L455.158 151.236
L474.886 151.187
L474.886 151.187" style="fill:none;stroke:#000000;stroke-linecap:square;"/>
   </g>
   <g id="patch_3">
    <path d="
M72 388.8
L72 43.2" style="fill:none;stroke:#000000;stroke-linecap:square;stroke-linejoin:miter;"/>
   </g>
   <g id="patch_4">
    <path d="
M72 43.2
L518.4 43.2" style="fill:none;stroke:#000000;stroke-linecap:square;stroke-linejoin:miter;"/>
   </g>
   <g id="patch_5">
    <path d="
M518.4 388.8
L518.4 43.2" style="fill:none;stroke:#000000;stroke-linecap:square;stroke-linejoin:miter;"/>
   </g>
   <g id="patch_6">
    <path d="
M72 388.8
L518.4 388.8" style="fill:none;stroke:#000000;stroke-linecap:square;stroke-linejoin:miter;"/>
   </g>
   <g id="matplotlib.axis_1">
    <g id="xtick_1">
     <g id="line2d_7">
      <path clip-path="url(#p7ff5b81e1d)" d="
M72 388.8
L72 43.2" style="fill:none;stroke:#000000;stroke-dasharray:3.000000,5.000000,1.000000,5.000000;stroke-dashoffset:0.0;stroke-width:0.5;"/>
     </g>
     <g id="line2d_8">
      <defs>
       <path d="
M0 0
L0 -4" id="mc7db9fdffb" style="stroke:#000000;stroke-width:0.5;"/>
      </defs>
      <g>
       <use style="stroke:#000000;stroke-width:0.5;" x="72.0" xlink:href="#mc7db9fdffb" y="388.8"/>
      </g>
     </g>
     <g id="line2d_9">
      <defs>
       <path d="
M0 0
L0 4" id="m5a7d422ac3" style="stroke:#000000;stroke-width:0.5;"/>
      </defs>
      <g>
       <use style="stroke:#000000;stroke-width:0.5;" x="72.0" xlink:href="#m5a7d422ac3" y="43.2"/>
      </g>
     </g>
     <g id="text_1">
      <!-- 0 -->
      <defs>
       <path d="
M31.7812 66.4062
Q24.1719 66.4062 20.3281 58.9062
Q16.5 51.4219 16.5 36.375
Q16.5 21.3906 20.3281 13.8906
Q24.1719 6.39062 31.7812 6.39062
Q39.4531 6.39062 43.2812 13.8906
Q47.125 21.3906 47.125 36.375
Q47.125 51.4219 43.2812 58.9062
Q39.4531 66.4062 31.7812 66.4062
M31.7812 74.2188
Q44.0469 74.2188 50.5156 64.5156
Q56.9844 54.8281 56.9844 36.375
Q56.9844 17.9688 50.5156 8.26562
Q44.0469 -1.42188 31.7812 -1.42188
Q19.5312 -1.42188 13.0625 8.26562
Q6.59375 17.9688 6.59375 36.375
Q6.59375 54.8281 13.0625 64.5156
Q19.5312 74.2188 31.7812 74.2188" id="DejaVuSans-30"/>
      </defs>
      <g transform="translate(68.9765625 401.918125)scale(0.12 -0.12)">
       <use xlink:href="#DejaVuSans-30"/>
      </g>
     </g>
    </g>
    <g id="xtick_2">
     <g id="line2d_10">
      <path clip-path="url(#p7ff5b81e1d)" d="
M161.28 388.8
L161.28 43.2" style="fill:none;stroke:#000000;stroke-dasharray:3.000000,5.000000,1.000000,5.000000;stroke-dashoffset:0.0;stroke-width:0.5;"/>
     </g>
     <g id="line2d_11">
      <g>
       <use style="stroke:#000000;stroke-width:0.5;" x="161.28" xlink:href="#mc7db9fdffb" y="388.8"/>
      </g>
     </g>
     <g id="line2d_12">
      <g>
       <use style="stroke:#000000;stroke-width:0.5;" x="161.28" xlink:href="#m5a7d422ac3" y="43.2"/>
      </g>
     </g>
     <g id="text_2">
      <!-- 50 -->
      <defs>
       <path d="
M10.7969 72.9062
L49.5156 72.9062
L49.5156 64.5938
L19.8281 64.5938
L19.8281 46.7344
Q21.9688 47.4688 24.1094 47.8281
Q26.2656 48.1875 28.4219 48.1875
Q40.625 48.1875 47.75 41.5
Q54.8906 34.8125 54.8906 23.3906
Q54.8906 11.625 47.5625 5.09375
Q40.2344 -1.42188 26.9062 -1.42188
Q22.3125 -1.42188 17.5469 -0.640625
Q12.7969 0.140625 7.71875 1.70312
L7.71875 11.625
Q12.1094 9.23438 16.7969 8.0625
Q21.4844 6.89062 26.7031 6.89062
Q35.1562 6.89062 40.0781 11.3281
Q45.0156 15.7656 45.0156 23.3906
Q45.0156 31 40.0781 35.4375
Q35.1562 39.8906 26.7031 39.8906
Q22.75 39.8906 18.8125 39.0156
Q14.8906 38.1406 10.7969 36.2812
z
" id="DejaVuSans-35"/>
      </defs>
      <g transform="translate(154.5065625 401.918125)scale(0.12 -0.12)">
       <use xlink:href="#DejaVuSans-35"/>
       <use x="63.623046875" xlink:href="#DejaVuSans-30"/>
      </g>
     </g>
    </g>
    <g id="xtick_3">
     <g id="line2d_13">
      <path clip-path="url(#p7ff5b81e1d)" d="
M250.56 388.8
L250.56 43.2" style="fill:none;stroke:#000000;stroke-dasharray:3.000000,5.000000,1.000000,5.000000;stroke-dashoffset:0.0;stroke-width:0.5;"/>
     </g>
     <g id="line2d_14">
      <g>
       <use style="stroke:#000000;stroke-width:0.5;" x="250.56" xlink:href="#mc7db9fdffb" y="388.8"/>
      </g>
     </g>
     <g id="line2d_15">
      <g>
       <use style="stroke:#000000;stroke-width:0.5;" x="250.56" xlink:href="#m5a7d422ac3" y="43.2"/>
      </g>
     </g>
     <g id="text_3">
      <!-- 100 -->
      <defs>
       <path d="
M12.4062 8.29688
L28.5156 8.29688
L28.5156 63.9219
L10.9844 60.4062
L10.9844 69.3906
L28.4219 72.9062
L38.2812 72.9062
L38.2812 8.29688
L54.3906 8.29688
L54.3906 0
L12.4062 0
z
" id="DejaVuSans-31"/>
      </defs>
      <g transform="translate(240.165 401.918125)scale(0.12 -0.12)">
       <use xlink:href="#DejaVuSans-31"/>
       <use x="63.623046875" xlink:href="#DejaVuSans-30"/>
       <use x="127.24609375" xlink:href="#DejaVuSans-30"/>
      </g>
     </g>
    </g>
    <g id="xtick_4">
     <g id="line2d_16">
      <path clip-path="url(#p7ff5b81e1d)" d="
M339.84 388.8
L339.84 43.2" style="fill:none;stroke:#000000;stroke-dasharray:3.000000,5.000000,1.000000,5.000000;stroke-dashoffset:0.0;stroke-width:0.5;"/>
     </g>
     <g id="line2d_17">
      <g>
       <use style="stroke:#000000;stroke-width:0.5;" x="339.84" xlink:href="#mc7db9fdffb" y="388.8"/>
      </g>
     </g>
     <g id="line2d_18">
      <g>
       <use style="stroke:#000000;stroke-width:0.5;" x="339.84" xlink:href="#m5a7d422ac3" y="43.2"/>
      </g>
     </g>
     <g id="text_4">
      <!-- 150 -->
      <g transform="translate(329.445 401.918125)scale(0.12 -0.12)">
       <use xlink:href="#DejaVuSans-31"/>
       <use x="63.623046875" xlink:href="#DejaVuSans-35"/>
       <use x="127.24609375" xlink:href="#DejaVuSans-30"/>
      </g>
     </g>
    </g>
    <g id="xtick_5">
     <g id="line2d_19">
      <path clip-path="url(#p7ff5b81e1d)" d="
M429.12 388.8
L429.12 43.2" style="fill:none;stroke:#000000;stroke-dasharray:3.000000,5.000000,1.000000,5.000000;stroke-dashoffset:0.0;stroke-width:0.5;"/>
     </g>
     <g id="line2d_20">
      <g>
       <use style="stroke:#000000;stroke-width:0.5;" x="429.12" xlink:href="#mc7db9fdffb" y="388.8"/>
      </g>
     </g>
     <g id="line2d_21">
      <g>
       <use style="stroke:#000000;stroke-width:0.5;" x="429.12" xlink:href="#m5a7d422ac3" y="43.2"/>
      </g>
     </g>
     <g id="text_5">
      <!-- 200 -->
      <defs>
       <path d="
M19.1875 8.29688
L53.6094 8.29688
L53.6094 0
L7.32812 0
L7.32812 8.29688
Q12.9375 14.1094 22.625 23.8906
Q32.3281 33.6875 34.8125 36.5312
Q39.5469 41.8438 41.4219 45.5312
Q43.3125 49.2188 43.3125 52.7812
Q43.3125 58.5938 39.2344 62.25
Q35.1562 65.9219 28.6094 65.9219
Q23.9688 65.9219 18.8125 64.3125
Q13.6719 62.7031 7.8125 59.4219
L7.8125 69.3906
Q13.7656 71.7812 18.9375 73
Q24.125 74.2188 28.4219 74.2188
Q39.75 74.2188 46.4844 68.5469
Q53.2188 62.8906 53.2188 53.4219
Q53.2188 48.9219 51.5312 44.8906
Q49.8594 40.875 45.4062 35.4062
Q44.1875 33.9844 37.6406 27.2188
Q31.1094 20.4531 19.1875 8.29688" id="DejaVuSans-32"/>
      </defs>
      <g transform="translate(418.505625 401.918125)scale(0.12 -0.12)">
       <use xlink:href="#DejaVuSans-32"/>
       <use x="63.623046875" xlink:href="#DejaVuSans-30"/>
       <use x="127.24609375" xlink:href="#DejaVuSans-30"/>
      </g>
     </g>
    </g>
    <g id="xtick_6">
     <g id="line2d_22">
      <path clip-path="url(#p7ff5b81e1d)" d="
M518.4 388.8
L518.4 43.2" style="fill:none;stroke:#000000;stroke-dasharray:3.000000,5.000000,1.000000,5.000000;stroke-dashoffset:0.0;stroke-width:0.5;"/>
     </g>
     <g id="line2d_23">
      <g>
       <use style="stroke:#000000;stroke-width:0.5;" x="518.4" xlink:href="#mc7db9fdffb" y="388.8"/>
      </g>
     </g>
     <g id="line2d_24">
      <g>
       <use style="stroke:#000000;stroke-width:0.5;" x="518.4" xlink:href="#m5a7d422ac3" y="43.2"/>
      </g>
     </g>
     <g id="text_6">
      <!-- 250 -->
      <g transform="translate(507.785625 401.918125)scale(0.12 -0.12)">
       <use xlink:href="#DejaVuSans-32"/>
       <use x="63.623046875" xlink:href="#DejaVuSans-35"/>
       <use x="127.24609375" xlink:href="#DejaVuSans-30"/>
      </g>
     </g>
    </g>
    <g id="text_7">
     <!-- Time -->
     <defs>
      <path d="
M9.42188 54.6875
L18.4062 54.6875
L18.4062 0
L9.42188 0
z

M9.42188 75.9844
L18.4062 75.9844
L18.4062 64.5938
L9.42188 64.5938
z
" id="DejaVuSans-69"/>
      <path d="
M-0.296875 72.9062
L61.375 72.9062
L61.375 64.5938
L35.5 64.5938
L35.5 0
L25.5938 0
L25.5938 64.5938
L-0.296875 64.5938
z
" id="DejaVuSans-54"/>
      <path d="
M52 44.1875
Q55.375 50.25 60.0625 53.125
Q64.75 56 71.0938 56
Q79.6406 56 84.2812 50.0156
Q88.9219 44.0469 88.9219 33.0156
L88.9219 0
L79.8906 0
L79.8906 32.7188
Q79.8906 40.5781 77.0938 44.375
Q74.3125 48.1875 68.6094 48.1875
Q61.625 48.1875 57.5625 43.5469
Q53.5156 38.9219 53.5156 30.9062
L53.5156 0
L44.4844 0
L44.4844 32.7188
Q44.4844 40.625 41.7031 44.4062
Q38.9219 48.1875 33.1094 48.1875
Q26.2188 48.1875 22.1562 43.5312
Q18.1094 38.875 18.1094 30.9062
L18.1094 0
L9.07812 0
L9.07812 54.6875
L18.1094 54.6875
L18.1094 46.1875
Q21.1875 51.2188 25.4844 53.6094
Q29.7812 56 35.6875 56
Q41.6562 56 45.8281 52.9688
Q50 49.9531 52 44.1875" id="DejaVuSans-6d"/>
      <path d="
M56.2031 29.5938
L56.2031 25.2031
L14.8906 25.2031
Q15.4844 15.9219 20.4844 11.0625
Q25.4844 6.20312 34.4219 6.20312
Q39.5938 6.20312 44.4531 7.46875
Q49.3125 8.73438 54.1094 11.2812
L54.1094 2.78125
Q49.2656 0.734375 44.1875 -0.34375
Q39.1094 -1.42188 33.8906 -1.42188
Q20.7969 -1.42188 13.1562 6.1875
Q5.51562 13.8125 5.51562 26.8125
Q5.51562 40.2344 12.7656 48.1094
Q20.0156 56 32.3281 56
Q43.3594 56 49.7812 48.8906
Q56.2031 41.7969 56.2031 29.5938
M47.2188 32.2344
Q47.125 39.5938 43.0938 43.9844
Q39.0625 48.3906 32.4219 48.3906
Q24.9062 48.3906 20.3906 44.1406
Q15.875 39.8906 15.1875 32.1719
z
" id="DejaVuSans-65"/>
     </defs>
     <g transform="translate(278.42515625 420.0515625)scale(0.14 -0.14)">
      <use xlink:href="#DejaVuSans-54"/>
      <use x="57.958984375" xlink:href="#DejaVuSans-69"/>
      <use x="85.7421875" xlink:href="#DejaVuSans-6d"/>
      <use x="183.154296875" xlink:href="#DejaVuSans-65"/>
     </g>
    </g>
   </g>
   <g id="matplotlib.axis_2">
    <g id="ytick_1">
     <g id="line2d_25">
      <path clip-path="url(#p7ff5b81e1d)" d="
M72 388.8
L518.4 388.8" style="fill:none;stroke:#000000;stroke-dasharray:3.000000,5.000000,1.000000,5.000000;stroke-dashoffset:0.0;stroke-width:0.5;"/>
     </g>
     <g id="line2d_26">
      <defs>
       <path d="
M0 0
L4 0" id="md7965d1ba0" style="stroke:#000000;stroke-width:0.5;"/>
      </defs>
      <g>
       <use style="stroke:#000000;stroke-width:0.5;" x="72.0" xlink:href="#md7965d1ba0" y="388.8"/>
      </g>
     </g>
     <g id="line2d_27">
      <defs>
       <path d="
M0 0
L-4 0" id="md9a1c1a7cd" style="stroke:#000000;stroke-width:0.5;"/>
      </defs>
      <g>
       <use style="stroke:#000000;stroke-width:0.5;" x="518.4" xlink:href="#md9a1c1a7cd" y="388.8"/>
      </g>
     </g>
     <g id="text_8">
      <!-- −40000 -->
      <defs>
       <path d="
M10.5938 35.5
L73.1875 35.5
L73.1875 27.2031
L10.5938 27.2031
z
" id="DejaVuSans-2212"/>
       <path d="
M37.7969 64.3125
L12.8906 25.3906
L37.7969 25.3906
z

M35.2031 72.9062
L47.6094 72.9062
L47.6094 25.3906
L58.0156 25.3906
L58.0156 17.1875
L47.6094 17.1875
L47.6094 0
L37.7969 0
L37.7969 17.1875
L4.89062 17.1875
L4.89062 26.7031
z
" id="DejaVuSans-34"/>
      </defs>
      <g transform="translate(21.8375 392.11125)scale(0.12 -0.12)">
       <use xlink:href="#DejaVuSans-2212"/>
       <use x="83.7890625" xlink:href="#DejaVuSans-34"/>
       <use x="147.412109375" xlink:href="#DejaVuSans-30"/>
       <use x="211.03515625" xlink:href="#DejaVuSans-30"/>
       <use x="274.658203125" xlink:href="#DejaVuSans-30"/>
       <use x="338.28125" xlink:href="#DejaVuSans-30"/>
      </g>
     </g>
    </g>
    <g id="ytick_2">
     <g id="line2d_28">
      <path clip-path="url(#p7ff5b81e1d)" d="
M72 345.6
L518.4 345.6" style="fill:none;stroke:#000000;stroke-dasharray:3.000000,5.000000,1.000000,5.000000;stroke-dashoffset:0.0;stroke-width:0.5;"/>
     </g>
     <g id="line2d_29">
      <g>
       <use style="stroke:#000000;stroke-width:0.5;" x="72.0" xlink:href="#md7965d1ba0" y="345.6"/>
      </g>
     </g>
     <g id="line2d_30">
      <g>
       <use style="stroke:#000000;stroke-width:0.5;" x="518.4" xlink:href="#md9a1c1a7cd" y="345.6"/>
      </g>
     </g>
     <g id="text_9">
      <!-- −30000 -->
      <defs>
       <path d="
M40.5781 39.3125
Q47.6562 37.7969 51.625 33
Q55.6094 28.2188 55.6094 21.1875
Q55.6094 10.4062 48.1875 4.48438
Q40.7656 -1.42188 27.0938 -1.42188
Q22.5156 -1.42188 17.6562 -0.515625
Q12.7969 0.390625 7.625 2.20312
L7.625 11.7188
Q11.7188 9.32812 16.5938 8.10938
Q21.4844 6.89062 26.8125 6.89062
Q36.0781 6.89062 40.9375 10.5469
Q45.7969 14.2031 45.7969 21.1875
Q45.7969 27.6406 41.2812 31.2656
Q36.7656 34.9062 28.7188 34.9062
L20.2188 34.9062
L20.2188 43.0156
L29.1094 43.0156
Q36.375 43.0156 40.2344 45.9219
Q44.0938 48.8281 44.0938 54.2969
Q44.0938 59.9062 40.1094 62.9062
Q36.1406 65.9219 28.7188 65.9219
Q24.6562 65.9219 20.0156 65.0312
Q15.375 64.1562 9.8125 62.3125
L9.8125 71.0938
Q15.4375 72.6562 20.3438 73.4375
Q25.25 74.2188 29.5938 74.2188
Q40.8281 74.2188 47.3594 69.1094
Q53.9062 64.0156 53.9062 55.3281
Q53.9062 49.2656 50.4375 45.0938
Q46.9688 40.9219 40.5781 39.3125" id="DejaVuSans-33"/>
      </defs>
      <g transform="translate(21.8375 348.91125)scale(0.12 -0.12)">
       <use xlink:href="#DejaVuSans-2212"/>
       <use x="83.7890625" xlink:href="#DejaVuSans-33"/>
       <use x="147.412109375" xlink:href="#DejaVuSans-30"/>
       <use x="211.03515625" xlink:href="#DejaVuSans-30"/>
       <use x="274.658203125" xlink:href="#DejaVuSans-30"/>
       <use x="338.28125" xlink:href="#DejaVuSans-30"/>
      </g>
     </g>
    </g>
    <g id="ytick_3">
     <g id="line2d_31">
      <path clip-path="url(#p7ff5b81e1d)" d="
M72 302.4
L518.4 302.4" style="fill:none;stroke:#000000;stroke-dasharray:3.000000,5.000000,1.000000,5.000000;stroke-dashoffset:0.0;stroke-width:0.5;"/>
     </g>
     <g id="line2d_32">
      <g>
       <use style="stroke:#000000;stroke-width:0.5;" x="72.0" xlink:href="#md7965d1ba0" y="302.4"/>
      </g>
     </g>
     <g id="line2d_33">
      <g>
       <use style="stroke:#000000;stroke-width:0.5;" x="518.4" xlink:href="#md9a1c1a7cd" y="302.4"/>
      </g>
     </g>
     <g id="text_10">
      <!-- −20000 -->
      <g transform="translate(21.8375 305.71125)scale(0.12 -0.12)">
       <use xlink:href="#DejaVuSans-2212"/>
       <use x="83.7890625" xlink:href="#DejaVuSans-32"/>
       <use x="147.412109375" xlink:href="#DejaVuSans-30"/>
       <use x="211.03515625" xlink:href="#DejaVuSans-30"/>
       <use x="274.658203125" xlink:href="#DejaVuSans-30"/>
       <use x="338.28125" xlink:href="#DejaVuSans-30"/>
      </g>
     </g>
    </g>
    <g id="ytick_4">
     <g id="line2d_34">
      <path clip-path="url(#p7ff5b81e1d)" d="
M72 259.2
L518.4 259.2" style="fill:none;stroke:#000000;stroke-dasharray:3.000000,5.000000,1.000000,5.000000;stroke-dashoffset:0.0;stroke-width:0.5;"/>
     </g>
     <g id="line2d_35">
      <g>
       <use style="stroke:#000000;stroke-width:0.5;" x="72.0" xlink:href="#md7965d1ba0" y="259.2"/>
      </g>
     </g>
     <g id="line2d_36">
      <g>
       <use style="stroke:#000000;stroke-width:0.5;" x="518.4" xlink:href="#md9a1c1a7cd" y="259.2"/>
      </g>
     </g>
     <g id="text_11">
      <!-- −10000 -->
      <g transform="translate(21.8375 262.51125)scale(0.12 -0.12)">
       <use xlink:href="#DejaVuSans-2212"/>
       <use x="83.7890625" xlink:href="#DejaVuSans-31"/>
       <use x="147.412109375" xlink:href="#DejaVuSans-30"/>
       <use x="211.03515625" xlink:href="#DejaVuSans-30"/>
       <use x="274.658203125" xlink:href="#DejaVuSans-30"/>
       <use x="338.28125" xlink:href="#DejaVuSans-30"/>
      </g>
     </g>
    </g>
    <g id="ytick_5">
     <g id="line2d_37">
      <path clip-path="url(#p7ff5b81e1d)" d="
M72 216
L518.4 216" style="fill:none;stroke:#000000;stroke-dasharray:3.000000,5.000000,1.000000,5.000000;stroke-dashoffset:0.0;stroke-width:0.5;"/>
     </g>
     <g id="line2d_38">
      <g>
       <use style="stroke:#000000;stroke-width:0.5;" x="72.0" xlink:href="#md7965d1ba0" y="216.0"/>
      </g>
     </g>
     <g id="line2d_39">
      <g>
       <use style="stroke:#000000;stroke-width:0.5;" x="518.4" xlink:href="#md9a1c1a7cd" y="216.0"/>
      </g>
     </g>
     <g id="text_12">
      <!-- 0 -->
      <g transform="translate(61.953125 219.31125)scale(0.12 -0.12)">
       <use xlink:href="#DejaVuSans-30"/>
      </g>
     </g>
    </g>
    <g id="ytick_6">
     <g id="line2d_40">
      <path clip-path="url(#p7ff5b81e1d)" d="
M72 172.8
L518.4 172.8" style="fill:none;stroke:#000000;stroke-dasharray:3.000000,5.000000,1.000000,5.000000;stroke-dashoffset:0.0;stroke-width:0.5;"/>
     </g>
     <g id="line2d_41">
      <g>
       <use style="stroke:#000000;stroke-width:0.5;" x="72.0" xlink:href="#md7965d1ba0" y="172.8"/>
      </g>
     </g>
     <g id="line2d_42">
      <g>
       <use style="stroke:#000000;stroke-width:0.5;" x="518.4" xlink:href="#md9a1c1a7cd" y="172.8"/>
      </g>
     </g>
     <g id="text_13">
      <!-- 10000 -->
      <g transform="translate(31.94 176.11125)scale(0.12 -0.12)">
       <use xlink:href="#DejaVuSans-31"/>
       <use x="63.623046875" xlink:href="#DejaVuSans-30"/>
       <use x="127.24609375" xlink:href="#DejaVuSans-30"/>
       <use x="190.869140625" xlink:href="#DejaVuSans-30"/>
       <use x="254.4921875" xlink:href="#DejaVuSans-30"/>
      </g>
     </g>
    </g>
    <g id="ytick_7">
     <g id="line2d_43">
      <path clip-path="url(#p7ff5b81e1d)" d="
M72 129.6
L518.4 129.6" style="fill:none;stroke:#000000;stroke-dasharray:3.000000,5.000000,1.000000,5.000000;stroke-dashoffset:0.0;stroke-width:0.5;"/>
     </g>
     <g id="line2d_44">
      <g>
       <use style="stroke:#000000;stroke-width:0.5;" x="72.0" xlink:href="#md7965d1ba0" y="129.6"/>
      </g>
     </g>
     <g id="line2d_45">
      <g>
       <use style="stroke:#000000;stroke-width:0.5;" x="518.4" xlink:href="#md9a1c1a7cd" y="129.6"/>
      </g>
     </g>
     <g id="text_14">
      <!-- 20000 -->
      <g transform="translate(31.50125 132.91125)scale(0.12 -0.12)">
       <use xlink:href="#DejaVuSans-32"/>
       <use x="63.623046875" xlink:href="#DejaVuSans-30"/>
       <use x="127.24609375" xlink:href="#DejaVuSans-30"/>
       <use x="190.869140625" xlink:href="#DejaVuSans-30"/>
       <use x="254.4921875" xlink:href="#DejaVuSans-30"/>
      </g>
     </g>
    </g>
    <g id="ytick_8">
     <g id="line2d_46">
      <path clip-path="url(#p7ff5b81e1d)" d="
M72 86.4
L518.4 86.4" style="fill:none;stroke:#000000;stroke-dasharray:3.000000,5.000000,1.000000,5.000000;stroke-dashoffset:0.0;stroke-width:0.5;"/>
     </g>
     <g id="line2d_47">
      <g>
       <use style="stroke:#000000;stroke-width:0.5;" x="72.0" xlink:href="#md7965d1ba0" y="86.4"/>
      </g>
     </g>
     <g id="line2d_48">
      <g>
       <use style="stroke:#000000;stroke-width:0.5;" x="518.4" xlink:href="#md9a1c1a7cd" y="86.4"/>
      </g>
     </g>
     <g id="text_15">
      <!-- 30000 -->
      <g transform="translate(31.536875 89.71125)scale(0.12 -0.12)">
       <use xlink:href="#DejaVuSans-33"/>
       <use x="63.623046875" xlink:href="#DejaVuSans-30"/>
       <use x="127.24609375" xlink:href="#DejaVuSans-30"/>
       <use x="190.869140625" xlink:href="#DejaVuSans-30"/>
       <use x="254.4921875" xlink:href="#DejaVuSans-30"/>
      </g>
     </g>
    </g>
    <g id="ytick_9">
     <g id="line2d_49">
      <path clip-path="url(#p7ff5b81e1d)" d="
M72 43.2
L518.4 43.2" style="fill:none;stroke:#000000;stroke-dasharray:3.000000,5.000000,1.000000,5.000000;stroke-dashoffset:0.0;stroke-width:0.5;"/>
     </g>
     <g id="line2d_50">
      <g>
       <use style="stroke:#000000;stroke-width:0.5;" x="72.0" xlink:href="#md7965d1ba0" y="43.2"/>
      </g>
     </g>
     <g id="line2d_51">
      <g>
       <use style="stroke:#000000;stroke-width:0.5;" x="518.4" xlink:href="#md9a1c1a7cd" y="43.2"/>
      </g>
     </g>
     <g id="text_16">
      <!-- 40000 -->
      <g transform="translate(31.20875 46.51125)scale(0.12 -0.12)">
       <use xlink:href="#DejaVuSans-34"/>
       <use x="63.623046875" xlink:href="#DejaVuSans-30"/>
       <use x="127.24609375" xlink:href="#DejaVuSans-30"/>
       <use x="190.869140625" xlink:href="#DejaVuSans-30"/>
       <use x="254.4921875" xlink:href="#DejaVuSans-30"/>
      </g>
     </g>
    </g>
    <g id="text_17">
     <!-- power_flow -->
     <defs>
      <path d="
M9.42188 75.9844
L18.4062 75.9844
L18.4062 0
L9.42188 0
z
" id="DejaVuSans-6c"/>
      <path d="
M41.1094 46.2969
Q39.5938 47.1719 37.8125 47.5781
Q36.0312 48 33.8906 48
Q26.2656 48 22.1875 43.0469
Q18.1094 38.0938 18.1094 28.8125
L18.1094 0
L9.07812 0
L9.07812 54.6875
L18.1094 54.6875
L18.1094 46.1875
Q20.9531 51.1719 25.4844 53.5781
Q30.0312 56 36.5312 56
Q37.4531 56 38.5781 55.875
Q39.7031 55.7656 41.0625 55.5156
z
" id="DejaVuSans-72"/>
      <path d="
M50.9844 -16.6094
L50.9844 -23.5781
L-0.984375 -23.5781
L-0.984375 -16.6094
z
" id="DejaVuSans-5f"/>
      <path d="
M4.20312 54.6875
L13.1875 54.6875
L24.4219 12.0156
L35.5938 54.6875
L46.1875 54.6875
L57.4219 12.0156
L68.6094 54.6875
L77.5938 54.6875
L63.2812 0
L52.6875 0
L40.9219 44.8281
L29.1094 0
L18.5 0
z
" id="DejaVuSans-77"/>
      <path d="
M30.6094 48.3906
Q23.3906 48.3906 19.1875 42.75
Q14.9844 37.1094 14.9844 27.2969
Q14.9844 17.4844 19.1562 11.8438
Q23.3438 6.20312 30.6094 6.20312
Q37.7969 6.20312 41.9844 11.8594
Q46.1875 17.5312 46.1875 27.2969
Q46.1875 37.0156 41.9844 42.7031
Q37.7969 48.3906 30.6094 48.3906
M30.6094 56
Q42.3281 56 49.0156 48.375
Q55.7188 40.7656 55.7188 27.2969
Q55.7188 13.875 49.0156 6.21875
Q42.3281 -1.42188 30.6094 -1.42188
Q18.8438 -1.42188 12.1719 6.21875
Q5.51562 13.875 5.51562 27.2969
Q5.51562 40.7656 12.1719 48.375
Q18.8438 56 30.6094 56" id="DejaVuSans-6f"/>
      <path d="
M37.1094 75.9844
L37.1094 68.5
L28.5156 68.5
Q23.6875 68.5 21.7969 66.5469
Q19.9219 64.5938 19.9219 59.5156
L19.9219 54.6875
L34.7188 54.6875
L34.7188 47.7031
L19.9219 47.7031
L19.9219 0
L10.8906 0
L10.8906 47.7031
L2.29688 47.7031
L2.29688 54.6875
L10.8906 54.6875
L10.8906 58.5
Q10.8906 67.625 15.1406 71.7969
Q19.3906 75.9844 28.6094 75.9844
z
" id="DejaVuSans-66"/>
      <path d="
M18.1094 8.20312
L18.1094 -20.7969
L9.07812 -20.7969
L9.07812 54.6875
L18.1094 54.6875
L18.1094 46.3906
Q20.9531 51.2656 25.2656 53.625
Q29.5938 56 35.5938 56
Q45.5625 56 51.7812 48.0938
Q58.0156 40.1875 58.0156 27.2969
Q58.0156 14.4062 51.7812 6.48438
Q45.5625 -1.42188 35.5938 -1.42188
Q29.5938 -1.42188 25.2656 0.953125
Q20.9531 3.32812 18.1094 8.20312
M48.6875 27.2969
Q48.6875 37.2031 44.6094 42.8438
Q40.5312 48.4844 33.4062 48.4844
Q26.2656 48.4844 22.1875 42.8438
Q18.1094 37.2031 18.1094 27.2969
Q18.1094 17.3906 22.1875 11.75
Q26.2656 6.10938 33.4062 6.10938
Q40.5312 6.10938 44.6094 11.75
Q48.6875 17.3906 48.6875 27.2969" id="DejaVuSans-70"/>
     </defs>
     <g transform="translate(13.5365625 254.6246875)rotate(-90.0)scale(0.14 -0.14)">
      <use xlink:href="#DejaVuSans-70"/>
      <use x="63.4765625" xlink:href="#DejaVuSans-6f"/>
      <use x="124.658203125" xlink:href="#DejaVuSans-77"/>
      <use x="206.4453125" xlink:href="#DejaVuSans-65"/>
      <use x="267.96875" xlink:href="#DejaVuSans-72"/>
      <use x="309.08203125" xlink:href="#DejaVuSans-5f"/>
      <use x="359.08203125" xlink:href="#DejaVuSans-66"/>
      <use x="394.287109375" xlink:href="#DejaVuSans-6c"/>
      <use x="422.0703125" xlink:href="#DejaVuSans-6f"/>
      <use x="483.251953125" xlink:href="#DejaVuSans-77"/>
     </g>
    </g>
   </g>
   <g id="text_18">
    <!-- power_flow -->
    <g transform="translate(256.5753125 38.2)scale(0.14 -0.14)">
     <use xlink:href="#DejaVuSans-70"/>
     <use x="63.4765625" xlink:href="#DejaVuSans-6f"/>
     <use x="124.658203125" xlink:href="#DejaVuSans-77"/>
     <use x="206.4453125" xlink:href="#DejaVuSans-65"/>
     <use x="267.96875" xlink:href="#DejaVuSans-72"/>
     <use x="309.08203125" xlink:href="#DejaVuSans-5f"/>
     <use x="359.08203125" xlink:href="#DejaVuSans-66"/>
     <use x="394.287109375" xlink:href="#DejaVuSans-6c"/>
     <use x="422.0703125" xlink:href="#DejaVuSans-6f"/>
     <use x="483.251953125" xlink:href="#DejaVuSans-77"/>
    </g>
   </g>
   <g id="legend_1">
    <g id="patch_7">
     <path d="
M427.374 282.771
L511.2 282.771
L511.2 149.229
L427.374 149.229
z
" style="fill:#ffffff;stroke:#000000;stroke-linejoin:miter;"/>
    </g>
    <g id="line2d_52">
     <path d="
M437.454 160.891
L457.614 160.891" style="fill:none;stroke:#bf00bf;stroke-linecap:square;"/>
    </g>
    <g id="line2d_53"/>
    <g id="text_19">
     <!-- P_12 -->
     <defs>
      <path d="
M19.6719 64.7969
L19.6719 37.4062
L32.0781 37.4062
Q38.9688 37.4062 42.7188 40.9688
Q46.4844 44.5312 46.4844 51.125
Q46.4844 57.6719 42.7188 61.2344
Q38.9688 64.7969 32.0781 64.7969
z

M9.8125 72.9062
L32.0781 72.9062
Q44.3438 72.9062 50.6094 67.3594
Q56.8906 61.8125 56.8906 51.125
Q56.8906 40.3281 50.6094 34.8125
Q44.3438 29.2969 32.0781 29.2969
L19.6719 29.2969
L19.6719 0
L9.8125 0
z
" id="DejaVuSans-50"/>
     </defs>
     <g transform="translate(473.454 165.93075)scale(0.144 -0.144)">
      <use xlink:href="#DejaVuSans-50"/>
      <use x="60.302734375" xlink:href="#DejaVuSans-5f"/>
      <use x="110.302734375" xlink:href="#DejaVuSans-31"/>
      <use x="173.92578125" xlink:href="#DejaVuSans-32"/>
     </g>
    </g>
    <g id="line2d_54">
     <path d="
M437.454 182.428
L457.614 182.428" style="fill:none;stroke:#00bfbf;stroke-linecap:square;"/>
    </g>
    <g id="line2d_55"/>
    <g id="text_20">
     <!-- P_21 -->
     <g transform="translate(473.454 187.46775)scale(0.144 -0.144)">
      <use xlink:href="#DejaVuSans-50"/>
      <use x="60.302734375" xlink:href="#DejaVuSans-5f"/>
      <use x="110.302734375" xlink:href="#DejaVuSans-32"/>
      <use x="173.92578125" xlink:href="#DejaVuSans-31"/>
     </g>
    </g>
    <g id="line2d_56">
     <path d="
M437.454 203.965
L457.614 203.965" style="fill:none;stroke:#ff0000;stroke-linecap:square;"/>
    </g>
    <g id="line2d_57"/>
    <g id="text_21">
     <!-- P_23 -->
     <g transform="translate(473.454 209.00475)scale(0.144 -0.144)">
      <use xlink:href="#DejaVuSans-50"/>
      <use x="60.302734375" xlink:href="#DejaVuSans-5f"/>
      <use x="110.302734375" xlink:href="#DejaVuSans-32"/>
      <use x="173.92578125" xlink:href="#DejaVuSans-33"/>
     </g>
    </g>
    <g id="line2d_58">
     <path d="
M437.454 225.502
L457.614 225.502" style="fill:none;stroke:#008000;stroke-linecap:square;"/>
    </g>
    <g id="line2d_59"/>
    <g id="text_22">
     <!-- P_32 -->
     <g transform="translate(473.454 230.54175)scale(0.144 -0.144)">
      <use xlink:href="#DejaVuSans-50"/>
      <use x="60.302734375" xlink:href="#DejaVuSans-5f"/>
      <use x="110.302734375" xlink:href="#DejaVuSans-33"/>
      <use x="173.92578125" xlink:href="#DejaVuSans-32"/>
     </g>
    </g>
    <g id="line2d_60">
     <path d="
M437.454 247.039
L457.614 247.039" style="fill:none;stroke:#0000ff;stroke-linecap:square;"/>
    </g>
    <g id="line2d_61"/>
    <g id="text_23">
     <!-- P_34 -->
     <g transform="translate(473.454 252.07875)scale(0.144 -0.144)">
      <use xlink:href="#DejaVuSans-50"/>
      <use x="60.302734375" xlink:href="#DejaVuSans-5f"/>
      <use x="110.302734375" xlink:href="#DejaVuSans-33"/>
      <use x="173.92578125" xlink:href="#DejaVuSans-34"/>
     </g>
    </g>
    <g id="line2d_62">
     <path d="
M437.454 268.576
L457.614 268.576" style="fill:none;stroke:#000000;stroke-linecap:square;"/>
    </g>
    <g id="line2d_63"/>
    <g id="text_24">
     <!-- P_43 -->
     <g transform="translate(473.454 273.61575)scale(0.144 -0.144)">
      <use xlink:href="#DejaVuSans-50"/>
      <use x="60.302734375" xlink:href="#DejaVuSans-5f"/>
      <use x="110.302734375" xlink:href="#DejaVuSans-34"/>
      <use x="173.92578125" xlink:href="#DejaVuSans-33"/>
     </g>
    </g>
   </g>
  </g>
 </g>
 <defs>
  <clipPath id="p7ff5b81e1d">
   <rect height="345.6" width="446.4" x="72.0" y="43.2"/>
  </clipPath>
 </defs>
</svg>
