<?xml version="1.0" encoding="utf-8" standalone="no"?>
<!DOCTYPE svg PUBLIC "-//W3C//DTD SVG 1.1//EN"
  "http://www.w3.org/Graphics/SVG/1.1/DTD/svg11.dtd">
<!-- Created with matplotlib (http://matplotlib.org/) -->
<svg height="432pt" version="1.1" viewBox="0 0 576 432" width="576pt" xmlns="http://www.w3.org/2000/svg" xmlns:xlink="http://www.w3.org/1999/xlink">
 <defs>
  <style type="text/css">
*{stroke-linecap:butt;stroke-linejoin:round;}
  </style>
 </defs>
 <g id="figure_1">
  <g id="patch_1">
   <path d="M 0 432 
L 576 432 
L 576 0 
L 0 0 
z
" style="fill:#ffffff;"/>
  </g>
  <g id="axes_1">
   <g id="patch_2">
    <path d="M 72 384.48 
L 518.4 384.48 
L 518.4 51.84 
L 72 51.84 
z
" style="fill:#ffffff;"/>
   </g>
   <g id="matplotlib.axis_1">
    <g id="xtick_1">
     <g id="line2d_1">
      <path clip-path="url(#p67076b75e9)" d="M 92.290909 384.48 
L 92.290909 51.84 
" style="fill:none;stroke:#b0b0b0;stroke-dasharray:5.12,1.28,0.8,1.28;stroke-dashoffset:0;stroke-width:0.8;"/>
     </g>
     <g id="line2d_2">
      <defs>
       <path d="M 0 0 
L 0 3.5 
" id="mf2dea312ef" style="stroke:#000000;stroke-width:0.8;"/>
      </defs>
      <g>
       <use style="stroke:#000000;stroke-width:0.8;" x="92.290909" xlink:href="#mf2dea312ef" y="384.48"/>
      </g>
     </g>
     <g id="text_1">
      <!-- $0$ -->
      <defs>
       <path d="M 42 31.640625 
C 42 37.75 41.90625 48.125 37.703125 56.109375 
C 34 63.109375 28.09375 65.59375 22.90625 65.59375 
C 18.09375 65.59375 12 63.40625 8.203125 56.203125 
C 4.203125 48.71875 3.796875 39.4375 3.796875 31.640625 
C 3.796875 25.953125 3.90625 17.28125 7 9.671875 
C 11.296875 -0.609375 19 -2 22.90625 -2 
C 27.5 -2 34.5 -0.109375 38.59375 9.375 
C 41.59375 16.28125 42 24.359375 42 31.640625 
z
M 22.90625 -0.40625 
C 16.5 -0.40625 12.703125 5.078125 11.296875 12.6875 
C 10.203125 18.5625 10.203125 27.15625 10.203125 32.75 
C 10.203125 40.4375 10.203125 46.828125 11.5 52.921875 
C 13.40625 61.390625 19 64 22.90625 64 
C 27 64 32.296875 61.296875 34.203125 53.125 
C 35.5 47.4375 35.59375 40.734375 35.59375 32.75 
C 35.59375 26.25 35.59375 18.265625 34.40625 12.375 
C 32.296875 1.484375 26.40625 -0.40625 22.90625 -0.40625 
z
" id="CMR17-48"/>
      </defs>
      <g transform="translate(89.800241 398.398498)scale(0.1 -0.1)">
       <use transform="scale(0.996264)" xlink:href="#CMR17-48"/>
      </g>
     </g>
    </g>
    <g id="xtick_2">
     <g id="line2d_3">
      <path clip-path="url(#p67076b75e9)" d="M 185.797403 384.48 
L 185.797403 51.84 
" style="fill:none;stroke:#b0b0b0;stroke-dasharray:5.12,1.28,0.8,1.28;stroke-dashoffset:0;stroke-width:0.8;"/>
     </g>
     <g id="line2d_4">
      <g>
       <use style="stroke:#000000;stroke-width:0.8;" x="185.797403" xlink:href="#mf2dea312ef" y="384.48"/>
      </g>
     </g>
     <g id="text_2">
      <!-- $200$ -->
      <defs>
       <path d="M 41.703125 15.453125 
L 39.90625 15.453125 
C 38.90625 8.375 38.09375 7.171875 37.703125 6.5625 
C 37.203125 5.765625 30 5.765625 28.59375 5.765625 
L 9.40625 5.765625 
C 13 9.671875 20 16.75 28.5 24.953125 
C 34.59375 30.734375 41.703125 37.53125 41.703125 47.421875 
C 41.703125 59.21875 32.296875 66 21.796875 66 
C 10.796875 66 4.09375 56.3125 4.09375 47.34375 
C 4.09375 43.4375 7 42.9375 8.203125 42.9375 
C 9.203125 42.9375 12.203125 43.546875 12.203125 47.03125 
C 12.203125 50.109375 9.59375 51 8.203125 51 
C 7.59375 51 7 50.90625 6.59375 50.703125 
C 8.5 59.21875 14.296875 63.40625 20.40625 63.40625 
C 29.09375 63.40625 34.796875 56.515625 34.796875 47.421875 
C 34.796875 38.734375 29.703125 31.25 24 24.75 
L 4.09375 2.28125 
L 4.09375 0 
L 39.296875 0 
z
" id="CMR17-50"/>
      </defs>
      <g transform="translate(178.3254 398.398498)scale(0.1 -0.1)">
       <use transform="scale(0.996264)" xlink:href="#CMR17-50"/>
       <use transform="translate(45.690477 0)scale(0.996264)" xlink:href="#CMR17-48"/>
       <use transform="translate(91.380954 0)scale(0.996264)" xlink:href="#CMR17-48"/>
      </g>
     </g>
    </g>
    <g id="xtick_3">
     <g id="line2d_5">
      <path clip-path="url(#p67076b75e9)" d="M 279.303896 384.48 
L 279.303896 51.84 
" style="fill:none;stroke:#b0b0b0;stroke-dasharray:5.12,1.28,0.8,1.28;stroke-dashoffset:0;stroke-width:0.8;"/>
     </g>
     <g id="line2d_6">
      <g>
       <use style="stroke:#000000;stroke-width:0.8;" x="279.303896" xlink:href="#mf2dea312ef" y="384.48"/>
      </g>
     </g>
     <g id="text_3">
      <!-- $400$ -->
      <defs>
       <path d="M 33.59375 64.40625 
C 33.59375 66.5 33.5 66.5 31.703125 66.5 
L 2 19.59375 
L 2 17 
L 27.796875 17 
L 27.796875 7.140625 
C 27.796875 3.5 27.59375 2.5 20.59375 2.5 
L 18.703125 2.5 
L 18.703125 0 
C 21.90625 0 27.296875 0 30.703125 0 
C 34.09375 0 39.5 0 42.703125 0 
L 42.703125 2.5 
L 40.796875 2.5 
C 33.796875 2.5 33.59375 3.5 33.59375 7.140625 
L 33.59375 17 
L 43.796875 17 
L 43.796875 19.59375 
L 33.59375 19.59375 
z
M 28.09375 57.859375 
L 28.09375 19.59375 
L 4 19.59375 
z
" id="CMR17-52"/>
      </defs>
      <g transform="translate(271.831893 398.398498)scale(0.1 -0.1)">
       <use transform="scale(0.996264)" xlink:href="#CMR17-52"/>
       <use transform="translate(45.690477 0)scale(0.996264)" xlink:href="#CMR17-48"/>
       <use transform="translate(91.380954 0)scale(0.996264)" xlink:href="#CMR17-48"/>
      </g>
     </g>
    </g>
    <g id="xtick_4">
     <g id="line2d_7">
      <path clip-path="url(#p67076b75e9)" d="M 372.81039 384.48 
L 372.81039 51.84 
" style="fill:none;stroke:#b0b0b0;stroke-dasharray:5.12,1.28,0.8,1.28;stroke-dashoffset:0;stroke-width:0.8;"/>
     </g>
     <g id="line2d_8">
      <g>
       <use style="stroke:#000000;stroke-width:0.8;" x="372.81039" xlink:href="#mf2dea312ef" y="384.48"/>
      </g>
     </g>
     <g id="text_4">
      <!-- $600$ -->
      <defs>
       <path d="M 10.59375 34 
C 10.59375 57.65625 21.796875 63 28.296875 63 
C 30.40625 63 35.5 62.640625 37.5 59 
C 35.90625 59 32.90625 59 32.90625 55.515625 
C 32.90625 52.828125 35.09375 51.921875 36.5 51.921875 
C 37.40625 51.921875 40.09375 52.3125 40.09375 55.625 
C 40.09375 61.78125 35.09375 65.296875 28.203125 65.296875 
C 16.296875 65.296875 3.796875 52.96875 3.796875 31 
C 3.796875 3.953125 15.09375 -2 23.09375 -2 
C 32.796875 -2 42 6.671875 42 20.046875 
C 42 32.515625 33.90625 41.59375 23.703125 41.59375 
C 17.59375 41.59375 13.09375 37.609375 10.59375 30.625 
z
M 23.09375 0.390625 
C 10.796875 0.390625 10.796875 18.75 10.796875 22.4375 
C 10.796875 29.625 14.203125 40 23.5 40 
C 25.203125 40 30.09375 40 33.40625 33.125 
C 35.203125 29.21875 35.203125 25.140625 35.203125 20.140625 
C 35.203125 14.75 35.203125 10.78125 33.09375 6.78125 
C 30.90625 2.671875 27.703125 0.390625 23.09375 0.390625 
z
" id="CMR17-54"/>
      </defs>
      <g transform="translate(365.338387 398.398498)scale(0.1 -0.1)">
       <use transform="scale(0.996264)" xlink:href="#CMR17-54"/>
       <use transform="translate(45.690477 0)scale(0.996264)" xlink:href="#CMR17-48"/>
       <use transform="translate(91.380954 0)scale(0.996264)" xlink:href="#CMR17-48"/>
      </g>
     </g>
    </g>
    <g id="xtick_5">
     <g id="line2d_9">
      <path clip-path="url(#p67076b75e9)" d="M 466.316883 384.48 
L 466.316883 51.84 
" style="fill:none;stroke:#b0b0b0;stroke-dasharray:5.12,1.28,0.8,1.28;stroke-dashoffset:0;stroke-width:0.8;"/>
     </g>
     <g id="line2d_10">
      <g>
       <use style="stroke:#000000;stroke-width:0.8;" x="466.316883" xlink:href="#mf2dea312ef" y="384.48"/>
      </g>
     </g>
     <g id="text_5">
      <!-- $800$ -->
      <defs>
       <path d="M 27.203125 35.375 
C 33.5 38.546875 39.90625 43.328125 39.90625 50.984375 
C 39.90625 60.015625 31.09375 65.296875 23 65.296875 
C 13.90625 65.296875 5.90625 58.734375 5.90625 49.6875 
C 5.90625 47.203125 6.5 42.921875 10.40625 39.140625 
C 11.40625 38.15625 15.59375 35.171875 18.296875 33.28125 
C 13.796875 30.984375 3.296875 25.53125 3.296875 14.59375 
C 3.296875 4.359375 13.09375 -2 22.796875 -2 
C 33.5 -2 42.5 5.65625 42.5 15.78125 
C 42.5 24.84375 36.40625 29.015625 32.40625 31.703125 
z
M 14.09375 44.09375 
C 13.296875 44.59375 9.296875 47.671875 9.296875 52.359375 
C 9.296875 58.421875 15.59375 63 22.796875 63 
C 30.703125 63 36.5 57.4375 36.5 50.96875 
C 36.5 41.703125 26.09375 36.421875 25.59375 36.421875 
C 25.5 36.421875 25.40625 36.421875 24.59375 37.03125 
z
M 32.5 23.734375 
C 34 22.640625 38.796875 19.375 38.796875 13.296875 
C 38.796875 5.953125 31.40625 0.390625 23 0.390625 
C 13.90625 0.390625 7 6.84375 7 14.6875 
C 7 22.546875 13.09375 29.09375 20 32.1875 
z
" id="CMR17-56"/>
      </defs>
      <g transform="translate(458.84488 398.398498)scale(0.1 -0.1)">
       <use transform="scale(0.996264)" xlink:href="#CMR17-56"/>
       <use transform="translate(45.690477 0)scale(0.996264)" xlink:href="#CMR17-48"/>
       <use transform="translate(91.380954 0)scale(0.996264)" xlink:href="#CMR17-48"/>
      </g>
     </g>
    </g>
    <g id="text_6">
     <!-- Iteration -->
     <defs>
      <path d="M 17.09375 69 
L 8.703125 69 
L 8.703125 0 
L 17.09375 0 
z
" id="CMSS17-73"/>
      <path d="M 16.703125 37 
L 29.703125 37 
L 29.703125 42.765625 
L 16.703125 42.765625 
L 16.703125 55 
L 9.59375 55 
L 9.59375 42.765625 
L 1.703125 42.765625 
L 1.703125 37 
L 9.40625 37 
L 9.40625 11.703125 
C 9.40625 6 10.703125 -1 17.296875 -1 
C 22.296875 -1 26.90625 0.390625 31.296875 2.6875 
L 29.703125 8.5625 
C 27.296875 6.46875 24.40625 5.265625 21.296875 5.265625 
C 16.90625 5.265625 16.703125 10.875 16.703125 13.375 
z
" id="CMSS17-116"/>
      <path d="M 39.09375 21.515625 
C 39.09375 24.84375 38.90625 31.296875 35.703125 36.640625 
C 32.203125 42.390625 26.5 44 22.203125 44 
C 11.796875 44 3 34.1875 3 21.484375 
C 3 9.09375 12.09375 -1 23.59375 -1 
C 28.09375 -1 33.59375 0.296875 38.59375 3.875 
C 38.59375 4.28125 38.40625 6.46875 38.296875 6.5625 
C 38.296875 6.765625 38 9.84375 38 10.25 
C 33.203125 6.359375 27.703125 5.078125 23.703125 5.078125 
C 17.296875 5.078125 10.40625 10.421875 10.09375 21.515625 
z
M 10.90625 27 
C 12.203125 32.5625 16.59375 37.828125 22.203125 37.828125 
C 23.703125 37.828125 30.703125 37.828125 32.5 27 
z
" id="CMSS17-101"/>
      <path d="M 14.90625 21.296875 
C 14.90625 30.703125 21.796875 37 30.59375 37 
L 30.59375 43.578125 
C 24.203125 43.578125 18.203125 40.390625 14.59375 35.203125 
L 14.59375 43.09375 
L 7.5 43.09375 
L 7.5 0 
L 14.90625 0 
z
" id="CMSS17-114"/>
      <path d="M 37.59375 27.984375 
C 37.59375 37.375 30.90625 43.875 21.90625 43.875 
C 17.5 43.875 12.703125 43.078125 7.203125 39.890625 
L 7.796875 33.359375 
C 10.296875 35.125 14.59375 38 21.796875 38 
C 26.90625 38 30 34.0625 30 27.84375 
L 30 24 
C 14 24 4 19.34375 4 11.34375 
C 4 7.203125 6.5 -1 14.796875 -1 
C 16.296875 -1 24.40625 -1 30.203125 3.390625 
L 30.203125 -0.296875 
L 37.59375 -0.296875 
z
M 30 12.75 
C 30 10.953125 30 8.5625 27 6.78125 
C 24.40625 5.078125 21.09375 5.078125 19.703125 5.078125 
C 14.703125 5.078125 11.296875 7.984375 11.296875 11.625 
C 11.296875 18.921875 26.90625 18.921875 30 18.921875 
z
" id="CMSS17-97"/>
      <path d="M 15.296875 65.359375 
L 6.90625 65.359375 
L 6.90625 57 
L 15.296875 57 
z
M 14.796875 42.796875 
L 7.40625 42.796875 
L 7.40625 0 
L 14.796875 0 
z
" id="CMSS17-105"/>
      <path d="M 44.203125 21.1875 
C 44.203125 34 34.703125 44 23.5 44 
C 12 44 2.703125 33.703125 2.703125 21.1875 
C 2.703125 8.5 12.296875 -1 23.40625 -1 
C 34.796875 -1 44.203125 8.796875 44.203125 21.1875 
z
M 23.5 5.265625 
C 16.40625 5.265625 10.296875 11.078125 10.296875 22 
C 10.296875 33.609375 17.40625 37.921875 23.40625 37.921875 
C 29.90625 37.921875 36.59375 33.21875 36.59375 22 
C 36.59375 10.671875 30.09375 5.265625 23.5 5.265625 
z
" id="CMSS17-111"/>
      <path d="M 40.90625 29.328125 
C 40.90625 35.671875 39.40625 44 28.09375 44 
C 21.703125 44 17.5 40.71875 14.703125 37.328125 
L 14.703125 43.09375 
L 7.40625 43.09375 
L 7.40625 0 
L 15 0 
L 15 24.359375 
C 15 30.6875 17.40625 37.9375 24.203125 37.9375 
C 33 37.9375 33.296875 32 33.296875 28.578125 
L 33.296875 0 
L 40.90625 0 
z
" id="CMSS17-110"/>
     </defs>
     <g transform="translate(271.264003 414.021553)scale(0.14 -0.14)">
      <use transform="scale(0.996264)" xlink:href="#CMSS17-73"/>
      <use transform="translate(25.783926 0)scale(0.996264)" xlink:href="#CMSS17-116"/>
      <use transform="translate(59.615492 0)scale(0.996264)" xlink:href="#CMSS17-101"/>
      <use transform="translate(101.254314 0)scale(0.996264)" xlink:href="#CMSS17-114"/>
      <use transform="translate(133.164087 0)scale(0.996264)" xlink:href="#CMSS17-97"/>
      <use transform="translate(178.086007 0)scale(0.996264)" xlink:href="#CMSS17-116"/>
      <use transform="translate(211.917574 0)scale(0.996264)" xlink:href="#CMSS17-105"/>
      <use transform="translate(234.098297 0)scale(0.996264)" xlink:href="#CMSS17-111"/>
      <use transform="translate(280.941921 0)scale(0.996264)" xlink:href="#CMSS17-110"/>
     </g>
    </g>
   </g>
   <g id="matplotlib.axis_2">
    <g id="ytick_1">
     <g id="line2d_11">
      <path clip-path="url(#p67076b75e9)" d="M 72 360.462987 
L 518.4 360.462987 
" style="fill:none;stroke:#b0b0b0;stroke-dasharray:5.12,1.28,0.8,1.28;stroke-dashoffset:0;stroke-width:0.8;"/>
     </g>
     <g id="line2d_12">
      <defs>
       <path d="M 0 0 
L -3.5 0 
" id="m2ef2d858d3" style="stroke:#000000;stroke-width:0.8;"/>
      </defs>
      <g>
       <use style="stroke:#000000;stroke-width:0.8;" x="72" xlink:href="#m2ef2d858d3" y="360.462987"/>
      </g>
     </g>
     <g id="text_7">
      <!-- $-50$ -->
      <defs>
       <path d="M 65.90625 23 
C 67.59375 23 69.40625 23 69.40625 25 
C 69.40625 27 67.59375 27 65.90625 27 
L 11.796875 27 
C 10.09375 27 8.296875 27 8.296875 25 
C 8.296875 23 10.09375 23 11.796875 23 
z
" id="CMSY10-0"/>
       <path d="M 11.40625 57.6875 
C 12.40625 57.28125 16.5 56 20.703125 56 
C 30 56 35.09375 61.109375 38 64.0625 
C 38 64.953125 38 65.5 37.40625 65.5 
C 37.296875 65.5 37.09375 65.5 36.296875 65.046875 
C 32.796875 63.40625 28.703125 62.078125 23.703125 62.078125 
C 20.703125 62.078125 16.203125 62.484375 11.296875 64.671875 
C 10.203125 65.171875 10 65.171875 9.90625 65.171875 
C 9.40625 65.171875 9.296875 65.0625 9.296875 63.078125 
L 9.296875 34.421875 
C 9.296875 32.640625 9.296875 32.140625 10.296875 32.140625 
C 10.796875 32.140625 11 32.34375 11.5 33.03125 
C 14.703125 37.515625 19.09375 39.40625 24.09375 39.40625 
C 27.59375 39.40625 35.09375 37.21875 35.09375 20.140625 
C 35.09375 16.953125 35.09375 11.171875 32.09375 6.578125 
C 29.59375 2.484375 25.703125 0.390625 21.40625 0.390625 
C 14.796875 0.390625 8.09375 5 6.296875 12.71875 
C 6.703125 12.609375 7.5 12.421875 7.90625 12.421875 
C 9.203125 12.421875 11.703125 13.125 11.703125 16.21875 
C 11.703125 18.90625 9.796875 20 7.90625 20 
C 5.59375 20 4.09375 18.59375 4.09375 15.796875 
C 4.09375 7.09375 11 -2 21.59375 -2 
C 31.90625 -2 41.703125 6.875 41.703125 19.75 
C 41.703125 31.71875 33.90625 41 24.203125 41 
C 19.09375 41 14.796875 39.109375 11.40625 35.53125 
z
" id="CMR17-53"/>
      </defs>
      <g transform="translate(47.288586 363.922236)scale(0.1 -0.1)">
       <use transform="scale(0.996264)" xlink:href="#CMSY10-0"/>
       <use transform="translate(77.487468 0)scale(0.996264)" xlink:href="#CMR17-53"/>
       <use transform="translate(123.177945 0)scale(0.996264)" xlink:href="#CMR17-48"/>
      </g>
     </g>
    </g>
    <g id="ytick_2">
     <g id="line2d_13">
      <path clip-path="url(#p67076b75e9)" d="M 72 305.471871 
L 518.4 305.471871 
" style="fill:none;stroke:#b0b0b0;stroke-dasharray:5.12,1.28,0.8,1.28;stroke-dashoffset:0;stroke-width:0.8;"/>
     </g>
     <g id="line2d_14">
      <g>
       <use style="stroke:#000000;stroke-width:0.8;" x="72" xlink:href="#m2ef2d858d3" y="305.471871"/>
      </g>
     </g>
     <g id="text_8">
      <!-- $-40$ -->
      <g transform="translate(47.288586 308.93112)scale(0.1 -0.1)">
       <use transform="scale(0.996264)" xlink:href="#CMSY10-0"/>
       <use transform="translate(77.487468 0)scale(0.996264)" xlink:href="#CMR17-52"/>
       <use transform="translate(123.177945 0)scale(0.996264)" xlink:href="#CMR17-48"/>
      </g>
     </g>
    </g>
    <g id="ytick_3">
     <g id="line2d_15">
      <path clip-path="url(#p67076b75e9)" d="M 72 250.480754 
L 518.4 250.480754 
" style="fill:none;stroke:#b0b0b0;stroke-dasharray:5.12,1.28,0.8,1.28;stroke-dashoffset:0;stroke-width:0.8;"/>
     </g>
     <g id="line2d_16">
      <g>
       <use style="stroke:#000000;stroke-width:0.8;" x="72" xlink:href="#m2ef2d858d3" y="250.480754"/>
      </g>
     </g>
     <g id="text_9">
      <!-- $-30$ -->
      <defs>
       <path d="M 22.09375 33.703125 
C 31 33.703125 34.90625 25.96875 34.90625 17.03125 
C 34.90625 5 28.5 0.390625 22.703125 0.390625 
C 17.40625 0.390625 8.796875 3.03125 6.09375 10.828125 
C 6.59375 10.625 7.09375 10.625 7.59375 10.625 
C 10 10.625 11.796875 12.21875 11.796875 14.8125 
C 11.796875 17.703125 9.59375 19 7.59375 19 
C 5.90625 19 3.296875 18.203125 3.296875 14.46875 
C 3.296875 5.234375 12.296875 -2 22.90625 -2 
C 34 -2 42.5 6.71875 42.5 16.953125 
C 42.5 26.671875 34.5 33.703125 25 34.796875 
C 32.59375 36.375 39.90625 43.0625 39.90625 52.015625 
C 39.90625 59.6875 32 65.296875 23 65.296875 
C 13.90625 65.296875 5.90625 59.828125 5.90625 52.015625 
C 5.90625 48.59375 8.5 48 9.796875 48 
C 11.90625 48 13.703125 49.296875 13.703125 51.890625 
C 13.703125 54.46875 11.90625 55.765625 9.796875 55.765625 
C 9.40625 55.765625 8.90625 55.765625 8.5 55.578125 
C 11.40625 61.859375 19.296875 63 22.796875 63 
C 26.296875 63 32.90625 61.328125 32.90625 51.875 
C 32.90625 49.109375 32.5 44.1875 29.09375 39.84375 
C 26.09375 36 22.703125 36 19.40625 35.6875 
C 18.90625 35.6875 16.59375 35.453125 16.203125 35.453125 
C 15.5 35.359375 15.09375 35.265625 15.09375 34.5 
C 15.09375 33.796875 15.203125 33.703125 17.203125 33.703125 
z
" id="CMR17-51"/>
      </defs>
      <g transform="translate(47.288586 253.940003)scale(0.1 -0.1)">
       <use transform="scale(0.996264)" xlink:href="#CMSY10-0"/>
       <use transform="translate(77.487468 0)scale(0.996264)" xlink:href="#CMR17-51"/>
       <use transform="translate(123.177945 0)scale(0.996264)" xlink:href="#CMR17-48"/>
      </g>
     </g>
    </g>
    <g id="ytick_4">
     <g id="line2d_17">
      <path clip-path="url(#p67076b75e9)" d="M 72 195.489637 
L 518.4 195.489637 
" style="fill:none;stroke:#b0b0b0;stroke-dasharray:5.12,1.28,0.8,1.28;stroke-dashoffset:0;stroke-width:0.8;"/>
     </g>
     <g id="line2d_18">
      <g>
       <use style="stroke:#000000;stroke-width:0.8;" x="72" xlink:href="#m2ef2d858d3" y="195.489637"/>
      </g>
     </g>
     <g id="text_10">
      <!-- $-20$ -->
      <g transform="translate(47.288586 198.948886)scale(0.1 -0.1)">
       <use transform="scale(0.996264)" xlink:href="#CMSY10-0"/>
       <use transform="translate(77.487468 0)scale(0.996264)" xlink:href="#CMR17-50"/>
       <use transform="translate(123.177945 0)scale(0.996264)" xlink:href="#CMR17-48"/>
      </g>
     </g>
    </g>
    <g id="ytick_5">
     <g id="line2d_19">
      <path clip-path="url(#p67076b75e9)" d="M 72 140.498521 
L 518.4 140.498521 
" style="fill:none;stroke:#b0b0b0;stroke-dasharray:5.12,1.28,0.8,1.28;stroke-dashoffset:0;stroke-width:0.8;"/>
     </g>
     <g id="line2d_20">
      <g>
       <use style="stroke:#000000;stroke-width:0.8;" x="72" xlink:href="#m2ef2d858d3" y="140.498521"/>
      </g>
     </g>
     <g id="text_11">
      <!-- $-10$ -->
      <defs>
       <path d="M 26.59375 63.40625 
C 26.59375 65.5 26.5 65.5 25.09375 65.5 
C 21.203125 61.1875 15.296875 59.796875 9.703125 59.796875 
C 9.40625 59.796875 8.90625 59.796875 8.796875 59.5 
C 8.703125 59.296875 8.703125 59.09375 8.703125 57 
C 11.796875 57 17 57.59375 21 59.984375 
L 21 7.203125 
C 21 3.6875 20.796875 2.5 12.203125 2.5 
L 9.203125 2.5 
L 9.203125 0 
C 14 0 19 0 23.796875 0 
C 28.59375 0 33.59375 0 38.40625 0 
L 38.40625 2.5 
L 35.40625 2.5 
C 26.796875 2.5 26.59375 3.59375 26.59375 7.15625 
z
" id="CMR17-49"/>
      </defs>
      <g transform="translate(47.288586 143.95777)scale(0.1 -0.1)">
       <use transform="scale(0.996264)" xlink:href="#CMSY10-0"/>
       <use transform="translate(77.487468 0)scale(0.996264)" xlink:href="#CMR17-49"/>
       <use transform="translate(123.177945 0)scale(0.996264)" xlink:href="#CMR17-48"/>
      </g>
     </g>
    </g>
    <g id="ytick_6">
     <g id="line2d_21">
      <path clip-path="url(#p67076b75e9)" d="M 72 85.507404 
L 518.4 85.507404 
" style="fill:none;stroke:#b0b0b0;stroke-dasharray:5.12,1.28,0.8,1.28;stroke-dashoffset:0;stroke-width:0.8;"/>
     </g>
     <g id="line2d_22">
      <g>
       <use style="stroke:#000000;stroke-width:0.8;" x="72" xlink:href="#m2ef2d858d3" y="85.507404"/>
      </g>
     </g>
     <g id="text_12">
      <!-- $0$ -->
      <g transform="translate(60.018665 88.966653)scale(0.1 -0.1)">
       <use transform="scale(0.996264)" xlink:href="#CMR17-48"/>
      </g>
     </g>
    </g>
    <g id="text_13">
     <!-- $\partial \mathcal{L}/ \partial \mu^{\overline{U}}_{m}$ -->
     <defs>
      <path d="M 45.40625 33.515625 
C 44.796875 39.125 41.296875 45.859375 32.296875 45.859375 
C 18.203125 45.859375 3.796875 31.515625 3.796875 15.5625 
C 3.796875 9.4375 8 -2.09375 21.59375 -2.09375 
C 45.203125 -2.09375 55.296875 32.296875 55.296875 46 
C 55.296875 60.40625 47.203125 71.5 34.40625 71.5 
C 19.90625 71.5 15.59375 58.796875 15.59375 56.09375 
C 15.59375 55.203125 16.203125 53 19 53 
C 22.5 53 24 56.203125 24 57.90625 
C 24 61 20.90625 61 19.59375 61 
C 23.703125 68.40625 31.296875 69.09375 34 69.09375 
C 42.796875 69.09375 48.40625 62.109375 48.40625 50.96875 
C 48.40625 44.578125 46.5 37.1875 45.5 33.515625 
z
M 21.90625 0.59375 
C 12.5 0.59375 10.90625 8.03125 10.90625 12.25 
C 10.90625 16.65625 13.703125 27 15.203125 30.703125 
C 16.5 33.71875 22.203125 43.859375 32.59375 43.859375 
C 41.703125 43.859375 43.796875 35.921875 43.796875 30.515625 
C 43.796875 23.078125 37.296875 0.59375 21.90625 0.59375 
z
" id="CMMI12-64"/>
      <path d="M 18 9.53125 
C 23.40625 17.984375 25.09375 24.40625 26.40625 29.734375 
C 29.90625 43.59375 33.703125 55.65625 39.90625 62.578125 
C 41.09375 63.90625 41.90625 64.796875 45.09375 64.796875 
C 52 64.796875 52.203125 57.875 52.203125 56.453125 
C 52.203125 54.65625 51.703125 53.234375 51.703125 52.734375 
C 51.703125 52.03125 52.296875 52.03125 52.40625 52.03125 
C 54 52.03125 56.703125 53.140625 59.203125 54.953125 
C 61 56.359375 61.90625 57.359375 61.90625 61.46875 
C 61.90625 66.890625 59.09375 71 53.5 71 
C 50.296875 71 41.5 70.203125 31.703125 60.25 
C 23.703125 52.015625 19 33.9375 17.09375 26.40625 
C 15.296875 19.5 14.5 16.375 11.5 10.34375 
C 10.796875 9.15625 8.203125 4.734375 6.796875 3.421875 
C 4.09375 0.921875 3.09375 -0.890625 3.09375 -1.390625 
C 3.09375 -1.59375 3.296875 -2 4 -2 
C 4.40625 -2 6.5 -1.59375 9.09375 0.078125 
C 10.796875 1.0625 11 1.25 13.296875 3.609375 
C 18.296875 3.609375 21.796875 2.703125 28.09375 0.90625 
C 33.203125 -0.5 38.296875 -2 43.40625 -2 
C 51.5 -2 59.703125 4.125 62.90625 8.53125 
C 64.90625 11.234375 65.5 13.75 65.5 14.046875 
C 65.5 14.75 64.90625 14.75 64.796875 14.75 
C 63.203125 14.75 60.796875 13.65625 59.09375 12.4375 
C 56.40625 10.734375 56.203125 10.140625 55.59375 8.421875 
C 55.09375 6.8125 54.5 6.015625 54.09375 5.40625 
C 53.296875 4.203125 53.203125 4.203125 51.703125 4.203125 
C 46.90625 4.203125 41.90625 5.71875 35.296875 7.515625 
C 32.5 8.3125 27 9.9375 22 9.9375 
C 20.703125 9.9375 19.296875 9.828125 18 9.53125 
z
" id="CMSY10-76"/>
      <path d="M 42.90625 71.28125 
C 42.90625 71.390625 43.5 72.90625 43.5 73.09375 
C 43.5 74.296875 42.5 75 41.703125 75 
C 41.203125 75 40.296875 75 39.5 72.796875 
L 6 -21.296875 
C 6 -21.40625 5.40625 -22.890625 5.40625 -23.09375 
C 5.40625 -24.296875 6.40625 -25 7.203125 -25 
C 7.796875 -25 8.703125 -24.890625 9.40625 -22.796875 
z
" id="CMMI12-61"/>
      <path d="M 14.40625 2.1875 
C 16.90625 -0.09375 20.59375 -1 24 -1 
C 30.40625 -1 34.796875 3.25 37.09375 6.328125 
C 38.09375 1.078125 42.296875 -1 45.796875 -1 
C 48.796875 -1 51.203125 0.78125 53 4.328125 
C 54.59375 7.703125 56 13.734375 56 14.109375 
C 56 14.609375 55.59375 15 55 15 
C 54.09375 15 54 14.5 53.59375 13.03125 
C 52.09375 7.203125 50.203125 1 46.09375 1 
C 43.203125 1 43 3.578125 43 5.59375 
C 43 7.875 43.90625 11.484375 44.59375 14.46875 
L 47.40625 25.234375 
C 47.796875 27.140625 48.90625 31.609375 49.40625 33.421875 
C 50 35.8125 51.09375 40.109375 51.09375 40.5 
C 51.09375 42 49.90625 43 48.40625 43 
C 47.5 43 45.40625 42.59375 44.59375 39.609375 
L 37.59375 11.875 
C 37.09375 9.875 37.09375 9.671875 35.796875 8.078125 
C 34.59375 6.390625 30.703125 1 24.40625 1 
C 18.796875 1 17 5.09375 17 9.765625 
C 17 12.671875 17.90625 16.15625 18.296875 17.859375 
L 22.796875 35.828125 
C 23.296875 37.71875 24.09375 40.90625 24.09375 41.515625 
C 24.09375 43.109375 22.796875 44 21.5 44 
C 20.59375 44 18.40625 43.703125 17.59375 40.5 
L 3.09375 -17.296875 
C 3 -17.796875 2.796875 -18.390625 2.796875 -19 
C 2.796875 -20.5 4 -21.5 5.5 -21.5 
C 8.40625 -21.5 9 -19.1875 9.703125 -16.40625 
z
" id="CMMI12-22"/>
      <path d="M 50.59375 23.03125 
C 47.09375 9.078125 35.5 0.890625 26.09375 0.890625 
C 18.90625 0.890625 14 5.671875 14 13.921875 
C 14 14.3125 14 17.296875 15.09375 21.671875 
L 24.90625 60.734375 
C 25.796875 64.109375 26 65.109375 33.09375 65.109375 
C 34.90625 65.109375 35.90625 65.109375 35.90625 66.90625 
C 35.90625 68 35 68 34.40625 68 
C 32.59375 68 30.5 68 28.59375 68 
L 16.796875 68 
C 14.90625 68 12.796875 68 10.90625 68 
C 10.203125 68 9 68 9 66.109375 
C 9 65.109375 9.703125 65.109375 11.59375 65.109375 
C 17.59375 65.109375 17.59375 64.3125 17.59375 63.21875 
C 17.59375 62.625 16.90625 59.75 16.40625 58.046875 
L 7.703125 23.25 
C 7.40625 22.15625 6.796875 19.46875 6.796875 16.796875 
C 6.796875 5.84375 14.703125 -2 25.59375 -2 
C 35.703125 -2 46.90625 6 52 18.703125 
C 52.703125 20.390625 53.59375 23.90625 54.203125 26.59375 
C 55.203125 30.203125 57.296875 39 58 41.59375 
L 61.796875 56.609375 
C 63.09375 61.8125 63.90625 65.109375 72.703125 65.109375 
C 73.5 65.203125 73.90625 66 73.90625 66.90625 
C 73.90625 68 73 68 72.59375 68 
C 71.203125 68 69.40625 68 68 68 
L 63.296875 68 
C 57.09375 68 53.90625 68 53.796875 68 
C 53.203125 68 52 68 52 66.109375 
C 52 65.109375 52.796875 65.109375 53.5 65.109375 
C 59.5 65.109375 59.90625 62.8125 59.90625 61.015625 
C 59.90625 60.125 59.90625 59.8125 59.5 58.421875 
z
" id="CMMI12-85"/>
      <path d="M 20.59375 29.234375 
C 20.796875 29.84375 23.296875 34.828125 27 38.015625 
C 29.59375 40.40625 33 42.015625 36.90625 42.015625 
C 40.90625 42.015625 42.296875 39.015625 42.296875 35.03125 
C 42.296875 34.421875 42.296875 32.4375 41.09375 27.734375 
L 38.59375 17.46875 
C 37.796875 14.46875 35.90625 7.078125 35.703125 5.984375 
C 35.296875 4.484375 34.703125 1.890625 34.703125 1.5 
C 34.703125 0.09375 35.796875 -1 37.296875 -1 
C 40.296875 -1 40.796875 1.296875 41.703125 4.890625 
L 47.703125 28.734375 
C 47.90625 29.53125 53.09375 42.015625 64.09375 42.015625 
C 68.09375 42.015625 69.5 39.015625 69.5 35.03125 
C 69.5 29.4375 65.59375 18.5625 63.40625 12.578125 
C 62.5 10.171875 62 8.875 62 7.078125 
C 62 2.59375 65.09375 -1 69.90625 -1 
C 79.203125 -1 82.703125 13.671875 82.703125 14.265625 
C 82.703125 14.765625 82.296875 15.171875 81.703125 15.171875 
C 80.796875 15.171875 80.703125 14.875 80.203125 13.171875 
C 77.90625 5.1875 74.203125 1 70.203125 1 
C 69.203125 1 67.59375 1 67.59375 4.203125 
C 67.59375 6.8125 68.796875 10 69.203125 11.09375 
C 71 15.90625 75.5 27.703125 75.5 33.515625 
C 75.5 39.5 72 44 64.40625 44 
C 57.703125 44 52.296875 40.21875 48.296875 34.328125 
C 48 39.71875 44.703125 44 37.203125 44 
C 28.296875 44 23.59375 37.734375 21.796875 35.234375 
C 21.5 40.90625 17.40625 44 13 44 
C 10.09375 44 7.796875 42.609375 5.90625 38.8125 
C 4.09375 35.21875 2.703125 29.140625 2.703125 28.734375 
C 2.703125 28.34375 3.09375 27.84375 3.796875 27.84375 
C 4.59375 27.84375 4.703125 27.9375 5.296875 30.234375 
C 6.796875 36.125 8.703125 42.015625 12.703125 42.015625 
C 15 42.015625 15.796875 40.40625 15.796875 37.421875 
C 15.796875 35.21875 14.796875 31.328125 14.09375 28.234375 
L 11.296875 17.46875 
C 10.90625 15.5625 9.796875 11.078125 9.296875 9.28125 
C 8.59375 6.6875 7.5 2 7.5 1.5 
C 7.5 0.09375 8.59375 -1 10.09375 -1 
C 11.296875 -1 12.703125 -0.40625 13.5 1.09375 
C 13.703125 1.59375 14.59375 5.09375 15.09375 7.078125 
L 17.296875 16.0625 
z
" id="CMMI12-109"/>
     </defs>
     <g transform="translate(40.576557 242.881062)rotate(-90)scale(0.14 -0.14)">
      <use transform="translate(0 24.62935)scale(0.996264)" xlink:href="#CMMI12-64"/>
      <use transform="translate(56.915564 24.62935)scale(0.996264)" xlink:href="#CMSY10-76"/>
      <use transform="translate(125.630372 24.62935)scale(0.996264)" xlink:href="#CMMI12-61"/>
      <use transform="translate(174.405291 24.62935)scale(0.996264)" xlink:href="#CMMI12-64"/>
      <use transform="translate(231.320856 24.62935)scale(0.996264)" xlink:href="#CMMI12-22"/>
      <use transform="translate(290.012277 60.782989)scale(0.697382)" xlink:href="#CMMI12-85"/>
      <use transform="translate(290.012277 0)scale(0.697382)" xlink:href="#CMMI12-109"/>
      <path d="M 290.012277 116.805753 
L 344.171317 116.805753 
L 344.171317 119.595204 
L 290.012277 119.595204 
L 290.012277 116.805753 
z
"/>
     </g>
    </g>
   </g>
   <g id="line2d_23">
    <path clip-path="url(#p67076b75e9)" d="M 92.290909 85.507404 
L 92.758442 222.985196 
L 93.225974 222.985196 
L 93.693506 223.120474 
L 94.161039 224.386369 
L 94.628571 227.294299 
L 97.433766 251.093355 
L 101.641558 281.178995 
L 110.992208 348.364392 
L 111.45974 350.471101 
L 111.927273 351.269022 
L 112.394805 350.956673 
L 114.264935 347.706148 
L 115.2 346.833439 
L 116.135065 346.421555 
L 117.537662 346.181794 
L 121.745455 345.615386 
L 129.693506 344.515013 
L 138.576623 343.527373 
L 148.394805 342.668962 
L 159.615584 341.918883 
L 171.303896 341.266688 
L 171.771429 340.924094 
L 172.238961 340.07668 
L 172.706494 338.639763 
L 173.641558 334.302613 
L 174.576623 328.692969 
L 175.979221 318.796768 
L 178.316883 301.509761 
L 178.784416 299.012614 
L 179.719481 292.445025 
L 181.58961 277.497889 
L 183.927273 261.357447 
L 188.135065 228.864846 
L 192.81039 192.958946 
L 194.212987 174.86137 
L 195.615584 160.907374 
L 196.550649 153.43848 
L 197.485714 147.696858 
L 198.420779 143.243677 
L 199.355844 139.804533 
L 200.290909 137.2227 
L 201.225974 135.3607 
L 202.161039 134.106903 
L 202.628571 133.676323 
L 203.096104 133.891888 
L 203.563636 137.65493 
L 204.498701 141.468014 
L 205.433766 144.034449 
L 206.368831 145.926694 
L 207.771429 148.11644 
L 209.174026 149.835462 
L 210.576623 151.205291 
L 211.979221 152.251772 
L 213.381818 152.976005 
L 214.316883 153.358193 
L 214.784416 153.105234 
L 227.407792 167.526104 
L 229.277922 166.725984 
L 232.550649 165.63221 
L 233.018182 165.616813 
L 233.953247 165.886269 
L 234.420779 165.777387 
L 235.355844 164.993214 
L 236.290909 163.934085 
L 237.225974 162.336043 
L 238.628571 159.467706 
L 240.031169 155.925178 
L 243.303896 147.363062 
L 244.238961 145.553854 
L 245.174026 144.129034 
L 246.109091 143.012714 
L 247.044156 142.206545 
L 247.979221 141.648935 
L 248.914286 141.300841 
L 250.316883 141.068778 
L 252.187013 141.096824 
L 256.394805 141.534553 
L 258.264935 142.042671 
L 262.472727 143.445494 
L 263.875325 143.542829 
L 264.81039 143.398752 
L 265.745455 143.066606 
L 266.680519 142.54639 
L 269.018182 141.000589 
L 270.420779 140.271957 
L 271.823377 139.76109 
L 273.225974 139.455889 
L 275.096104 139.307413 
L 277.433766 139.38825 
L 284.914286 140.049793 
L 290.057143 140.653595 
L 291.927273 140.589256 
L 293.797403 140.262609 
L 296.135065 139.747342 
L 298.472727 139.398148 
L 301.277922 139.234825 
L 305.485714 139.295865 
L 319.511688 139.653857 
L 328.394805 139.215578 
L 337.277922 139.287616 
L 347.563636 139.333809 
L 354.576623 139.211728 
L 395.719481 139.226026 
L 474.732468 139.207879 
L 497.641558 139.207329 
L 497.641558 139.207329 
" style="fill:none;stroke:#bf00bf;stroke-linecap:square;stroke-width:1.5;"/>
   </g>
   <g id="line2d_24">
    <path clip-path="url(#p67076b75e9)" d="M 92.290909 85.507404 
L 92.758442 222.985196 
L 93.225974 222.985196 
L 93.693506 224.212597 
L 94.161039 226.182929 
L 95.096104 237.604584 
L 96.498701 247.137844 
L 97.433766 254.051877 
L 99.303896 267.271192 
L 104.914286 307.472997 
L 110.992208 351.163439 
L 111.45974 352.333101 
L 112.394805 350.688866 
L 112.862338 350.440306 
L 117.07013 349.750168 
L 140.446753 348.457327 
L 155.875325 347.932161 
L 171.303896 347.437791 
L 171.771429 347.160086 
L 172.238961 346.328071 
L 172.706494 344.602999 
L 174.109091 337.770353 
L 175.044156 331.942944 
L 177.381818 315.300983 
L 177.849351 311.916829 
L 178.316883 303.323368 
L 178.784416 299.235878 
L 179.251948 296.981242 
L 179.719481 293.15441 
L 180.654545 282.143539 
L 187.667532 226.814777 
L 192.81039 187.579715 
L 194.212987 176.270242 
L 196.550649 158.058284 
L 198.420779 148.576716 
L 199.355844 145.101277 
L 200.290909 142.284082 
L 201.225974 140.163075 
L 202.161039 138.596378 
L 203.563636 136.984588 
L 204.031169 137.723119 
L 204.966234 137.608187 
L 205.433766 137.936484 
L 206.368831 138.752553 
L 207.303896 139.470187 
L 209.174026 141.079227 
L 211.044156 142.486449 
L 212.446753 143.307467 
L 214.316883 144.077892 
L 214.784416 145.233806 
L 227.875325 170.605057 
L 232.083117 169.141743 
L 232.550649 168.122758 
L 233.018182 166.829367 
L 233.485714 166.473574 
L 233.953247 166.447179 
L 234.420779 165.729545 
L 235.355844 163.193904 
L 236.290909 161.818576 
L 238.628571 155.751956 
L 241.901299 145.316842 
L 242.368831 144.396291 
L 243.303896 143.246977 
L 244.238961 141.880447 
L 245.641558 141.052281 
L 246.109091 140.814719 
L 247.044156 140.681091 
L 248.446753 140.662394 
L 251.251948 141.205706 
L 254.057143 141.714374 
L 256.862338 142.119659 
L 260.135065 143.543929 
L 261.537662 143.927767 
L 262.472727 143.983308 
L 263.407792 143.829882 
L 264.342857 143.465291 
L 265.277922 142.858739 
L 266.680519 141.585145 
L 268.083117 140.143278 
L 270.888312 139.20128 
L 272.758442 139.050604 
L 275.563636 139.288166 
L 282.109091 139.986553 
L 283.979221 140.161975 
L 288.187013 140.775676 
L 289.58961 140.80867 
L 290.992208 140.677792 
L 292.862338 140.223565 
L 295.2 139.469637 
L 299.407792 139.135291 
L 304.550649 139.32831 
L 316.238961 139.764389 
L 319.044156 139.629111 
L 324.187013 139.20458 
L 330.732468 139.237574 
L 345.225974 139.373402 
L 355.511688 139.205679 
L 376.083117 139.217227 
L 396.654545 139.230425 
L 498.109091 139.207329 
L 498.109091 139.207329 
" style="fill:none;stroke:#00bfbf;stroke-linecap:square;stroke-width:1.5;"/>
   </g>
   <g id="line2d_25">
    <path clip-path="url(#p67076b75e9)" d="M 92.290909 85.507404 
L 92.758442 222.985196 
L 93.225974 232.804959 
L 93.693506 240.2876 
L 94.161039 244.898606 
L 95.563636 254.745865 
L 96.966234 264.660763 
L 110.524675 362.110521 
L 110.992208 364.695653 
L 111.927273 368.045162 
L 112.394805 368.668212 
L 113.32987 369.131237 
L 114.264935 369.36 
L 115.2 369.310508 
L 117.537662 368.878278 
L 128.290909 366.737474 
L 135.303896 365.600807 
L 143.719481 364.483388 
L 152.602597 363.54029 
L 162.420779 362.719823 
L 170.368831 362.191908 
L 171.771429 358.780259 
L 172.706494 355.252579 
L 173.641558 350.574485 
L 175.044156 341.647227 
L 178.316883 317.892714 
L 179.251948 307.259632 
L 180.187013 297.842953 
L 183.45974 270.339696 
L 188.602597 229.586879 
L 195.615584 175.781371 
L 197.485714 165.103196 
L 198.888312 159.331328 
L 199.823377 156.41405 
L 200.758442 154.131368 
L 201.693506 152.423344 
L 202.628571 151.205291 
L 203.563636 150.347979 
L 204.031169 150.09777 
L 205.433766 150.752714 
L 206.368831 151.310874 
L 210.576623 154.416772 
L 211.979221 155.221292 
L 213.849351 156.115998 
L 214.316883 156.522382 
L 214.784416 156.685156 
L 227.407792 181.084164 
L 229.745455 180.237301 
L 232.550649 179.334347 
L 233.018182 178.952159 
L 235.355844 174.98015 
L 237.693506 169.512933 
L 240.031169 162.760574 
L 241.433766 158.414626 
L 242.836364 155.208644 
L 243.771429 153.892157 
L 244.706494 152.849525 
L 245.641558 152.209429 
L 246.576623 151.817892 
L 247.511688 151.630922 
L 248.914286 151.625973 
L 250.784416 151.89433 
L 254.524675 152.502531 
L 255.927273 152.69555 
L 257.32987 153.113483 
L 261.537662 154.773664 
L 262.472727 154.868249 
L 263.407792 154.763766 
L 264.342857 154.438219 
L 265.277922 153.891607 
L 266.212987 153.13163 
L 267.615584 151.884431 
L 269.018182 150.933635 
L 270.888312 150.302887 
L 272.290909 150.129665 
L 273.693506 150.113167 
L 276.498701 150.358428 
L 281.641558 150.872045 
L 283.979221 151.092009 
L 289.122078 151.773349 
L 290.524675 151.720558 
L 291.927273 151.493444 
L 294.264935 150.807705 
L 296.135065 150.396922 
L 298.472727 150.183556 
L 301.745455 150.188505 
L 318.576623 150.668578 
L 326.057143 150.190155 
L 333.07013 150.261643 
L 346.628571 150.330382 
L 352.706494 150.201153 
L 367.2 150.259994 
L 376.550649 150.214901 
L 393.849351 150.223699 
L 433.122078 150.205552 
L 497.641558 150.205552 
L 497.641558 150.205552 
" style="fill:none;stroke:#ff0000;stroke-linecap:square;stroke-width:1.5;"/>
   </g>
   <g id="line2d_26">
    <path clip-path="url(#p67076b75e9)" d="M 92.290909 85.507404 
L 92.758442 222.985196 
L 93.225974 222.985196 
L 93.693506 225.439999 
L 94.628571 232.48766 
L 96.031169 238.139647 
L 97.433766 246.399313 
L 99.771429 262.584299 
L 110.992208 341.743461 
L 111.927273 346.618974 
L 112.862338 352.165378 
L 113.797403 356.062048 
L 114.264935 357.323544 
L 114.732468 358.223749 
L 115.2 358.820403 
L 115.667532 359.173995 
L 116.135065 359.340619 
L 117.07013 359.307624 
L 118.472727 358.805555 
L 121.745455 357.175618 
L 127.355844 354.44201 
L 132.031169 352.431535 
L 136.706494 350.656421 
L 141.849351 348.942898 
L 147.45974 347.32066 
L 153.537662 345.812804 
L 160.083117 344.434726 
L 166.628571 343.271114 
L 170.368831 342.689308 
L 170.836364 338.599069 
L 171.771429 325.446294 
L 174.576623 279.028842 
L 176.446753 252.165132 
L 177.849351 235.118985 
L 178.784416 225.68196 
L 179.251948 218.905405 
L 180.187013 202.749564 
L 181.122078 192.401336 
L 182.057143 183.657199 
L 184.862338 161.322007 
L 188.602597 133.903986 
L 195.148052 86.943222 
L 195.615584 82.80624 
L 196.083117 80.302495 
L 198.420779 72.620236 
L 199.355844 70.444787 
L 200.290909 68.860493 
L 201.225974 67.757921 
L 202.161039 67.142021 
L 203.096104 66.96 
L 204.031169 67.079331 
L 204.498701 67.343288 
L 207.771429 74.046155 
L 211.511688 82.047913 
L 213.381818 85.383674 
L 213.849351 86.114506 
L 214.784416 88.451628 
L 227.875325 113.259771 
L 233.018182 112.123104 
L 233.485714 111.633133 
L 234.420779 108.952317 
L 236.290909 103.644574 
L 240.498701 88.413684 
L 241.433766 84.566506 
L 241.901299 83.250018 
L 243.303896 80.883201 
L 243.771429 80.490014 
L 245.174026 79.777329 
L 245.641558 79.691543 
L 247.044156 79.916457 
L 247.979221 80.309094 
L 249.849351 81.516149 
L 254.524675 85.020732 
L 256.394805 86.292127 
L 259.2 88.878359 
L 260.135065 89.504158 
L 261.07013 89.92869 
L 262.005195 90.05077 
L 262.94026 89.8638 
L 263.875325 89.351833 
L 264.81039 88.523117 
L 265.745455 87.432093 
L 267.615584 84.758425 
L 269.485714 83.619559 
L 271.355844 83.198877 
L 272.758442 83.204376 
L 274.161039 83.383097 
L 276.498701 83.955005 
L 282.109091 85.482658 
L 283.511688 85.859347 
L 286.784416 86.853586 
L 288.187013 87.065302 
L 289.58961 87.038906 
L 290.992208 86.762851 
L 292.394805 86.252533 
L 295.2 85.077923 
L 296.602597 84.821665 
L 299.407792 84.698485 
L 302.212987 84.855759 
L 316.238961 86.045767 
L 318.576623 85.862097 
L 323.719481 85.262143 
L 327.927273 85.250595 
L 346.161039 85.596489 
L 351.303896 85.415569 
L 358.316883 85.456812 
L 372.81039 85.542598 
L 382.161039 85.477709 
L 424.238961 85.515103 
L 498.109091 85.507404 
L 498.109091 85.507404 
" style="fill:none;stroke:#008000;stroke-linecap:square;stroke-width:1.5;"/>
   </g>
   <g id="patch_3">
    <path d="M 72 384.48 
L 72 51.84 
" style="fill:none;stroke:#000000;stroke-linecap:square;stroke-linejoin:miter;stroke-width:0.8;"/>
   </g>
   <g id="patch_4">
    <path d="M 518.4 384.48 
L 518.4 51.84 
" style="fill:none;stroke:#000000;stroke-linecap:square;stroke-linejoin:miter;stroke-width:0.8;"/>
   </g>
   <g id="patch_5">
    <path d="M 72 384.48 
L 518.4 384.48 
" style="fill:none;stroke:#000000;stroke-linecap:square;stroke-linejoin:miter;stroke-width:0.8;"/>
   </g>
   <g id="patch_6">
    <path d="M 72 51.84 
L 518.4 51.84 
" style="fill:none;stroke:#000000;stroke-linecap:square;stroke-linejoin:miter;stroke-width:0.8;"/>
   </g>
   <g id="text_14">
    <!-- $\partial \mathcal{L}/ \partial \mu^{\overline{U}}_{m}$ -->
    <g transform="translate(270.478938 45.84)scale(0.14 -0.14)">
     <use transform="translate(0 24.62935)scale(0.996264)" xlink:href="#CMMI12-64"/>
     <use transform="translate(56.915564 24.62935)scale(0.996264)" xlink:href="#CMSY10-76"/>
     <use transform="translate(125.630372 24.62935)scale(0.996264)" xlink:href="#CMMI12-61"/>
     <use transform="translate(174.405291 24.62935)scale(0.996264)" xlink:href="#CMMI12-64"/>
     <use transform="translate(231.320856 24.62935)scale(0.996264)" xlink:href="#CMMI12-22"/>
     <use transform="translate(290.012277 60.782989)scale(0.697382)" xlink:href="#CMMI12-85"/>
     <use transform="translate(290.012277 0)scale(0.697382)" xlink:href="#CMMI12-109"/>
     <path d="M 290.012277 116.805753 
L 344.171317 116.805753 
L 344.171317 119.595204 
L 290.012277 119.595204 
L 290.012277 116.805753 
z
"/>
    </g>
   </g>
   <g id="legend_1">
    <g id="patch_7">
     <path d="M 443.185706 379.48 
L 511.4 379.48 
Q 513.4 379.48 513.4 377.48 
L 513.4 310.531024 
Q 513.4 308.531024 511.4 308.531024 
L 443.185706 308.531024 
Q 441.185706 308.531024 441.185706 310.531024 
L 441.185706 377.48 
Q 441.185706 379.48 443.185706 379.48 
z
" style="fill:#ffffff;opacity:0.8;stroke:#cccccc;stroke-linejoin:miter;"/>
    </g>
    <g id="line2d_27">
     <path d="M 445.185706 319.08109 
L 465.185706 319.08109 
" style="fill:none;stroke:#bf00bf;stroke-linecap:square;stroke-width:1.5;"/>
    </g>
    <g id="line2d_28"/>
    <g id="text_15">
     <!-- $\partial \mathcal{L}/ \partial \mu^{\overline{U}}_{1}$ -->
     <g transform="translate(473.185706 322.58109)scale(0.1 -0.1)">
      <use transform="translate(0 24.740171)scale(0.996264)" xlink:href="#CMMI12-64"/>
      <use transform="translate(56.915564 24.740171)scale(0.996264)" xlink:href="#CMSY10-76"/>
      <use transform="translate(125.630372 24.740171)scale(0.996264)" xlink:href="#CMMI12-61"/>
      <use transform="translate(174.405291 24.740171)scale(0.996264)" xlink:href="#CMMI12-64"/>
      <use transform="translate(231.320856 24.740171)scale(0.996264)" xlink:href="#CMMI12-22"/>
      <use transform="translate(290.012277 60.89381)scale(0.697382)" xlink:href="#CMMI12-85"/>
      <use transform="translate(290.012277 0)scale(0.697382)" xlink:href="#CMR17-49"/>
      <path d="M 290.012277 116.916574 
L 344.171317 116.916574 
L 344.171317 119.706025 
L 290.012277 119.706025 
L 290.012277 116.916574 
z
"/>
     </g>
    </g>
    <g id="line2d_29">
     <path d="M 445.185706 336.068334 
L 465.185706 336.068334 
" style="fill:none;stroke:#00bfbf;stroke-linecap:square;stroke-width:1.5;"/>
    </g>
    <g id="line2d_30"/>
    <g id="text_16">
     <!-- $\partial \mathcal{L}/ \partial \mu^{\overline{U}}_{2}$ -->
     <g transform="translate(473.185706 339.568334)scale(0.1 -0.1)">
      <use transform="translate(0 24.740171)scale(0.996264)" xlink:href="#CMMI12-64"/>
      <use transform="translate(56.915564 24.740171)scale(0.996264)" xlink:href="#CMSY10-76"/>
      <use transform="translate(125.630372 24.740171)scale(0.996264)" xlink:href="#CMMI12-61"/>
      <use transform="translate(174.405291 24.740171)scale(0.996264)" xlink:href="#CMMI12-64"/>
      <use transform="translate(231.320856 24.740171)scale(0.996264)" xlink:href="#CMMI12-22"/>
      <use transform="translate(290.012277 60.89381)scale(0.697382)" xlink:href="#CMMI12-85"/>
      <use transform="translate(290.012277 0)scale(0.697382)" xlink:href="#CMR17-50"/>
      <path d="M 290.012277 116.916574 
L 344.171317 116.916574 
L 344.171317 119.706025 
L 290.012277 119.706025 
L 290.012277 116.916574 
z
"/>
     </g>
    </g>
    <g id="line2d_31">
     <path d="M 445.185706 353.055578 
L 465.185706 353.055578 
" style="fill:none;stroke:#ff0000;stroke-linecap:square;stroke-width:1.5;"/>
    </g>
    <g id="line2d_32"/>
    <g id="text_17">
     <!-- $\partial \mathcal{L}/ \partial \mu^{\overline{U}}_{3}$ -->
     <g transform="translate(473.185706 356.555578)scale(0.1 -0.1)">
      <use transform="translate(0 24.740171)scale(0.996264)" xlink:href="#CMMI12-64"/>
      <use transform="translate(56.915564 24.740171)scale(0.996264)" xlink:href="#CMSY10-76"/>
      <use transform="translate(125.630372 24.740171)scale(0.996264)" xlink:href="#CMMI12-61"/>
      <use transform="translate(174.405291 24.740171)scale(0.996264)" xlink:href="#CMMI12-64"/>
      <use transform="translate(231.320856 24.740171)scale(0.996264)" xlink:href="#CMMI12-22"/>
      <use transform="translate(290.012277 60.89381)scale(0.697382)" xlink:href="#CMMI12-85"/>
      <use transform="translate(290.012277 0)scale(0.697382)" xlink:href="#CMR17-51"/>
      <path d="M 290.012277 116.916574 
L 344.171317 116.916574 
L 344.171317 119.706025 
L 290.012277 119.706025 
L 290.012277 116.916574 
z
"/>
     </g>
    </g>
    <g id="line2d_33">
     <path d="M 445.185706 370.042822 
L 465.185706 370.042822 
" style="fill:none;stroke:#008000;stroke-linecap:square;stroke-width:1.5;"/>
    </g>
    <g id="line2d_34"/>
    <g id="text_18">
     <!-- $\partial \mathcal{L}/ \partial \mu^{\overline{U}}_{4}$ -->
     <g transform="translate(473.185706 373.542822)scale(0.1 -0.1)">
      <use transform="translate(0 24.740171)scale(0.996264)" xlink:href="#CMMI12-64"/>
      <use transform="translate(56.915564 24.740171)scale(0.996264)" xlink:href="#CMSY10-76"/>
      <use transform="translate(125.630372 24.740171)scale(0.996264)" xlink:href="#CMMI12-61"/>
      <use transform="translate(174.405291 24.740171)scale(0.996264)" xlink:href="#CMMI12-64"/>
      <use transform="translate(231.320856 24.740171)scale(0.996264)" xlink:href="#CMMI12-22"/>
      <use transform="translate(290.012277 60.89381)scale(0.697382)" xlink:href="#CMMI12-85"/>
      <use transform="translate(290.012277 0)scale(0.697382)" xlink:href="#CMR17-52"/>
      <path d="M 290.012277 116.916574 
L 344.171317 116.916574 
L 344.171317 119.706025 
L 290.012277 119.706025 
L 290.012277 116.916574 
z
"/>
     </g>
    </g>
   </g>
  </g>
 </g>
 <defs>
  <clipPath id="p67076b75e9">
   <rect height="332.64" width="446.4" x="72" y="51.84"/>
  </clipPath>
 </defs>
</svg>
