<?xml version="1.0" encoding="utf-8" standalone="no"?>
<!DOCTYPE svg PUBLIC "-//W3C//DTD SVG 1.1//EN"
  "http://www.w3.org/Graphics/SVG/1.1/DTD/svg11.dtd">
<!-- Created with matplotlib (http://matplotlib.org/) -->
<svg height="432pt" version="1.1" viewBox="0 0 576 432" width="576pt" xmlns="http://www.w3.org/2000/svg" xmlns:xlink="http://www.w3.org/1999/xlink">
 <defs>
  <style type="text/css">
*{stroke-linecap:butt;stroke-linejoin:round;}
  </style>
 </defs>
 <g id="figure_1">
  <g id="patch_1">
   <path d="
M0 432
L576 432
L576 0
L0 0
z
" style="fill:#ffffff;"/>
  </g>
  <g id="axes_1">
   <g id="patch_2">
    <path d="
M72 388.8
L518.4 388.8
L518.4 43.2
L72 43.2
z
" style="fill:#ffffff;"/>
   </g>
   <g id="line2d_1">
    <path clip-path="url(#p7ff5b81e1d)" d="
M72 92.5714
L72 216
L72 216
L72 216
L72 216.981
L73.6131 218.347
L73.6819 219.807
L73.9696 221.241
L74.1219 223.799
L75.2816 224.88
L75.4205 225.816
L76.0696 227.213
L76.3067 227.635
L76.7255 227.835
L77.5515 227.78
L83.859 228.952
L85.5237 231.109
L85.6895 234.121
L86.0914 234.869
L86.4106 235.204
L86.5833 235.706
L87.0046 235.367
L87.9385 234.961
L88.3819 234.466
L88.5421 233.202
L88.8319 232.389
L89.7565 231.441
L89.8791 227.422
L90.4257 225.822
L90.7204 224.572
L90.8008 224.897
L91.1749 222.692
L91.4314 216.984
L91.7106 214.522
L92.069 206.109
L92.2873 196.978
L92.4761 193.785
L92.7975 190.527
L92.9379 187.206
L93.3303 183.824
L93.6389 176.887
L94.2398 173.34
L94.3291 169.742
L94.5529 166.098
L95.118 147.269
L95.5243 143.4
L96.1323 119.673
L96.3814 115.656
L96.5354 107.586
L96.9687 95.4295
L97.0385 91.3712
L97.5503 87.3134
L98.0792 80.5189
L98.2304 79.8973
L98.4994 79.3108
L99.2571 78.5643
L100.786 78.0962
L101.667 78.1708
L102.846 78.743
L104.606 78.9814
L105.423 79.4678
L106.345 79.8208
L106.465 79.9343
L107.226 80.154
L111.415 80.4631
L112.408 80.5934
L113.713 80.2977
L115.46 79.4406
L116.328 78.7455
L116.507 78.0261
L116.908 77.3334
L119.37 76.7197
L120.251 75.9352
L120.635 75.835
L121.163 76.231
L122.586 78.2206
L122.839 80.8171
L123.167 81.841
L123.344 83.26
L123.837 83.569
L124.212 84.6103
L124.846 85.1124
L125.187 85.3923
L125.554 85.3227
L125.804 85.4032
L126.031 85.6224
L126.63 86.4509
L126.905 87.1623
L127.678 87.7335
L128.312 88.4084
L128.447 88.8083
L129.25 92.1691
L129.673 92.6055
L130.152 94.331
L130.599 95.5071
L131.084 95.8576
L131.235 96.182
L132.211 97.1477
L132.499 97.2918
L133.341 97.4498
L133.931 97.3091
L134.407 96.0496
L134.79 94.016
L135.196 91.6916
L135.481 90.8059
L135.988 89.8975
L136.308 88.9895
L136.507 86.9836
L136.568 87.0305
L136.751 87.4393
L137.171 88.5378
L137.273 88.7486
L137.599 89.0399
L138.004 92.3458
L138.381 95.3757
L138.631 97.0331
L139.088 99.5565
L139.151 99.6987
L139.504 99.7249
L139.703 99.5925
L139.946 98.7567
L140.417 95.8275
L140.703 92.8395
L141.068 90.4351
L141.188 87.9389
L141.516 86.3398
L141.587 86.3773
L141.829 86.7732
L142.27 88.6652
L142.482 88.8241
L142.702 89.8229
L142.961 90.3991
L143.418 92.805
L143.596 93.4315
L144.324 94.055
L145.093 95.272
L145.705 95.8541
L146.086 96.412
L151.132 96.9398
L151.452 97.4325
L152.113 97.8853
L153.089 99.2074
L153.922 99.5185
L154.72 99.5629
L155.573 99.323
L156.007 99.0939
L156.129 98.7907
L156.729 98.415
L158.059 97.9667
L158.304 96.1548
L159.16 89.8461
L159.68 88.6
L159.868 86.4963
L160.145 86.3259
L160.247 86.3995
L160.644 86.4903
L160.724 86.6469
L161.248 86.8833
L161.316 87.1801
L161.517 87.5207
L161.942 87.8881
L162.23 88.5447
L162.36 88.9619
L162.485 90.0239
L162.913 90.5852
L163.411 92.9708
L163.956 94.7926
L164.324 95.9381
L164.618 96.9783
L165.704 97.4469
L166.215 97.8749
L166.337 98.2575
L167.192 99.0924
L168.464 99.246
L168.767 99.0702
L169.087 98.5059
L170.891 98.1178
L170.979 97.6601
L171.431 97.1348
L172.35 96.5276
L172.41 95.8156
L172.749 94.9911
L172.87 94.058
L173.169 93.0271
L173.332 91.9143
L174.418 90.7422
L175.129 89.5385
L175.591 88.3349
L175.742 87.1653
L176.049 86.4943
L176.398 86.4237
L178.316 87.0527
L181.017 88.0544
L181.106 88.4153
L182.02 88.7886
L182.742 89.1623
L183.118 89.7039
L183.272 90.8064
L183.582 91.3761
L184.048 94.369
L184.332 95.5159
L185.376 96.058
L185.532 96.573
L186.569 97.0553
L187.44 97.9055
L188.448 98.264
L188.716 98.8283
L189.971 99.166
L191.035 99.199
L191.456 98.8841
L193.36 98.6229
L193.965 98.2926
L194.233 97.8947
L194.33 97.4296
L194.994 96.2743
L195.476 94.7082
L195.591 93.7687
L196.187 91.6378
L196.255 90.488
L196.567 89.3183
L196.748 87.0478
L196.971 86.5294
L198.251 87.5197
L198.411 87.854
L199.655 88.5348
L199.924 89.3825
L200.472 91.0226
L201.129 94.5384
L201.249 95.1047
L201.541 95.6522
L201.804 97.1324
L202.177 97.5565
L203.261 98.2748
L203.853 98.7947
L205.366 99.1363
L206.563 98.9231
L207.072 98.7157
L208.511 98.4412
L210.493 97.6927
L210.971 97.2212
L211.613 95.2923
L211.855 92.4722
L212.428 91.3836
L212.557 90.2579
L212.941 89.1238
L213.146 88.013
L213.29 86.5817
L213.783 87.1055
L214.403 89.6235
L214.902 92.9871
L215.867 94.7181
L216.647 95.2701
L218.526 95.8018
L218.803 96.7848
L219.623 97.2267
L219.995 97.9914
L220.245 98.7819
L220.492 99.0327
L221.235 99.0396
L221.495 98.5656
L221.663 98.2763
L222.417 94.1755
L223.086 93.2221
L225.602 92.1947
L226.285 91.115
L226.46 90.0091
L227.009 88.9056
L231.573 87.8357
L232.5 86.6232
L233.375 87.2428
L233.478 87.5138
L233.734 87.817
L233.812 88.1389
L234.845 89.3109
L234.984 90.3788
L235.236 90.9081
L235.364 91.4645
L235.632 92.0377
L236.149 94.8953
L236.612 95.9494
L236.681 96.4387
L237.096 96.8974
L237.785 97.3205
L238.199 98.0443
L239.008 98.77
L239.916 98.9784
L240.796 98.9438
L241.231 98.6565
L241.514 98.1119
L242.217 97.315
L242.779 96.8193
L243.104 96.2382
L243.233 95.5559
L243.729 94.7724
L244.605 93.8951
L245.01 92.9363
L245.24 90.8469
L245.855 86.7491
L246.259 86.6844
L246.758 87.1425
L247.43 87.6501
L247.58 87.9503
L248.738 88.5753
L250.657 89.0483
L251.031 89.5376
L251.22 90.5798
L251.891 92.2357
L252.546 92.805
L253.519 93.3742
L254.051 95.0346
L254.766 95.5564
L256.034 96.0551
L256.452 96.5261
L257.647 96.965
L257.826 97.7312
L258.103 98.3232
L259.526 98.5454
L259.73 98.7142
L260.65 98.8836
L261.494 98.814
L261.677 98.6866
L262.405 98.4965
L266.939 98.2437
L269.584 97.9292
L269.714 97.553
L270.415 96.611
L270.719 96.0136
L271.322 95.3155
L271.477 94.5211
L272.232 93.6393
L272.435 92.683
L272.77 91.6709
L272.923 90.6267
L273.238 89.5775
L273.76 88.5516
L274.261 86.7821
L274.432 86.7747
L274.942 86.8972
L278.92 87.2418
L279.967 87.6447
L280.587 87.8357
L280.947 88.0342
L281.983 88.2351
L282.586 88.5328
L283.73 88.7392
L283.802 88.993
L284.059 89.3035
L284.384 90.3764
L284.773 90.8029
L285.311 91.7454
L285.672 92.2594
L286.231 92.7985
L286.486 93.3609
L287.416 93.9425
L288.649 95.1506
L288.87 96.3913
L289.617 97.0114
L290.557 98.225
L290.782 99.3635
L291.784 105.958
L292.068 106.645
L292.811 106.925
L292.94 106.743
L293.299 106.452
L293.591 105.571
L293.937 104.331
L294.793 100.674
L296.063 98.2309
L296.386 96.8974
L296.606 95.4937
L296.942 94.1207
L297.283 90.3719
L297.648 84.3175
L298.245 84.0539
L298.381 83.7966
L298.916 83.2629
L300.477 82.8216
L302.239 82.8902
L303.637 83.6505
L306.905 83.8475
L307.46 84.2662
L309.881 85.1277
L311.644 86.5471
L312.29 86.7283
L312.52 87.0715
L313.34 87.3899
L316.17 87.8254
L316.488 88.089
L317.589 88.3344
L318.632 93.5253
L318.763 95.4207
L319.151 96.9003
L321.665 96.9897
L322.127 97.36
L322.258 97.8902
L322.88 98.8722
L323.005 99.3146
L324.609 100.161
L324.775 100.556
L325.107 100.924
L326.079 101.258
L326.278 101.552
L326.674 101.8
L329.865 101.996
L330.418 102.209
L330.572 102.217
L332.663 102.018
L332.744 101.806
L333.196 101.516
L334.09 100.175
L334.565 99.5718
L334.886 98.142
L335.537 91.1826
L335.907 90.015
L336.349 86.2316
L337.046 87.6185
L337.292 87.8209
L337.761 88.0056
L338.191 88.5649
L338.478 88.7728
L341.029 89.4571
L341.483 89.6921
L341.81 90.5571
L342.117 90.7412
L346.367 90.9091
L347.006 91.1984
L347.128 91.3204
L347.419 91.4285
L348.655 91.6793
L349.693 91.7958
L351.258 91.9454
L370.35 92.4436
L466.67 92.5714
L495.597 92.5714
L495.597 92.5714" style="fill:none;stroke:#bf00bf;stroke-linecap:square;"/>
   </g>
   <g id="line2d_2">
    <path clip-path="url(#p7ff5b81e1d)" d="
M72 92.5714
L72 216
L72 216
L72 216
L72 220.674
L73.6736 224.21
L73.7202 228.082
L74.0389 232.117
L74.167 239.699
L75.3771 243.054
L76.4806 253.38
L77.0331 255.186
L83.7819 256.853
L84.0282 258.396
L85.5871 259.668
L85.9139 262.058
L86.2108 263.405
L86.4725 264.009
L86.6372 264.855
L87.2557 265.225
L88.4351 265.196
L88.5255 265.023
L88.819 264.736
L89.7392 264.333
L89.995 261.466
L90.5103 260.373
L90.7902 257.825
L90.9767 254.997
L91.2698 252.25
L91.5522 246.807
L91.7953 244.027
L92.1126 235.391
L92.3846 226.196
L92.7261 223.006
L92.8605 219.757
L93.3226 216.449
L93.3912 213.087
L93.5939 209.672
L94.2325 206.207
L94.4068 199.137
L94.6324 195.538
L95.0649 180.771
L95.5826 173.2
L96.1037 153.885
L96.367 149.973
L96.4975 142.119
L96.7882 134.237
L97.0139 126.344
L97.8024 118.454
L98.1564 110.265
L98.3306 108.563
L98.5939 107.255
L99.1564 106.25
L99.3382 105.488
L100.026 104.924
L100.417 104.249
L101.74 104.04
L103.007 105.022
L104.263 105.248
L104.698 105.482
L105.002 105.961
L105.233 106.203
L105.921 106.687
L106.528 107.394
L107.131 107.623
L107.371 107.846
L109.391 108.065
L111.934 108.63
L112.203 108.639
L112.657 108.518
L113.013 108.191
L114.237 107.378
L114.548 105.957
L115.536 104.121
L116.452 101.992
L116.615 99.713
L117.02 97.4306
L119.523 95.279
L120.227 93.3732
L120.327 91.8057
L120.717 91.0567
L121.219 91.0903
L122.414 92.0027
L122.643 92.6119
L122.936 95.3925
L123.572 97.6601
L123.916 98.18
L124.264 99.3526
L125.032 99.6459
L125.248 99.4173
L125.708 98.5335
L125.89 98.5266
L126.398 99.1141
L126.69 100.381
L126.891 101.294
L127.345 102.51
L127.474 102.889
L127.801 103.257
L128.252 105.002
L128.445 105.788
L129.215 110.568
L129.663 111.167
L129.937 112.946
L130.579 115.125
L130.728 115.608
L131.167 116.056
L131.684 117.164
L132.316 117.667
L133.418 118.004
L133.981 117.807
L134.359 116.654
L134.667 115.041
L135.28 110.63
L135.553 109.593
L136.08 108.561
L136.364 107.564
L136.613 105.477
L136.679 105.478
L136.868 106.419
L136.941 106.963
L137.161 107.504
L137.237 107.994
L137.563 108.545
L137.921 111.916
L138.687 119.121
L138.997 121.426
L139.226 121.995
L139.489 121.97
L139.931 120.878
L140.475 116.3
L140.758 112.416
L141.119 109.502
L141.257 106.655
L141.706 104.516
L141.786 104.602
L141.95 105.358
L142.243 107.83
L142.465 108.359
L142.756 110.337
L143.016 111.053
L143.543 114.103
L144.396 115.636
L145.072 116.381
L145.34 117.103
L145.77 117.796
L146.55 118.452
L151.256 119.067
L151.556 119.632
L152.17 120.144
L153.302 121.548
L153.595 121.714
L154.319 121.802
L155.269 121.548
L156.726 120.504
L158.048 119.982
L158.294 117.791
L158.482 115.702
L158.761 113.144
L158.955 110.283
L159.244 108.821
L159.735 107.389
L159.812 106.181
L160.198 104.814
L160.701 104.474
L161.007 104.655
L161.299 105.029
L161.367 105.565
L161.568 106.227
L161.999 106.902
L162.475 109.885
L162.839 110.571
L163.883 115.799
L164.151 116.524
L164.404 117.892
L164.509 118.522
L165.694 119.108
L165.883 119.645
L166.273 120.127
L166.427 120.549
L167.314 121.408
L168.322 121.579
L168.619 121.275
L168.823 120.995
L169.145 120.176
L170.957 119.642
L171.138 119.011
L171.521 118.268
L172.396 117.401
L172.479 116.406
L172.843 115.289
L172.956 114.06
L173.321 112.739
L173.448 111.353
L174.669 109.935
L175.273 108.521
L175.686 107.15
L175.839 106.079
L176.383 105.358
L176.464 104.878
L177.212 104.669
L177.556 104.705
L178.48 105.376
L180.256 106.631
L181.836 107.829
L181.91 108.349
L182.168 108.942
L183.107 109.572
L183.35 111.629
L183.635 112.362
L184.098 116.065
L184.405 117.445
L186.29 118.692
L187.522 120.214
L188.499 120.608
L188.628 120.936
L189.294 121.195
L189.45 121.381
L190.863 121.523
L191.121 121.341
L191.436 121.125
L193.313 120.826
L193.425 120.444
L194.125 119.978
L195.072 117.134
L195.548 115
L195.698 113.773
L196.148 112.465
L196.308 109.724
L196.627 108.36
L196.802 106.086
L197.162 104.896
L197.267 104.996
L197.796 105.292
L198.364 106.351
L198.55 107.032
L199.408 107.647
L199.714 108.165
L200.021 109.927
L200.297 110.584
L200.526 111.984
L201.188 116.344
L201.527 117.027
L201.846 119.414
L202.634 119.897
L202.887 120.323
L203.445 120.689
L203.644 120.99
L204.013 121.221
L205.357 121.472
L205.49 121.399
L206.408 121.245
L206.631 121.01
L207.537 120.693
L209.268 120.295
L209.895 119.818
L210.944 119.252
L211.029 118.585
L211.496 117.802
L211.72 114.744
L211.816 113.52
L212.387 112.226
L212.536 110.891
L213.087 108.237
L213.401 105.205
L213.484 105.139
L213.737 105.295
L213.914 106.131
L214.202 107.98
L215.013 114.518
L215.612 115.947
L215.973 116.636
L216.949 117.301
L218.634 117.935
L218.897 119.088
L219.679 119.597
L220.076 120.454
L220.314 121.271
L220.461 121.404
L221.11 121.443
L221.285 121.346
L221.71 120.16
L221.972 118.393
L222.095 116.659
L222.366 115.619
L222.913 114.477
L223.144 113.25
L225.725 111.965
L226.409 110.651
L226.522 109.342
L227.131 108.075
L231.628 106.886
L232.464 106.115
L232.609 105.593
L232.886 105.343
L233.068 105.35
L233.593 106.479
L234.373 108.787
L234.76 109.373
L235.937 114.839
L236.134 116.242
L236.847 118.751
L237.947 119.769
L238.01 120.201
L238.731 120.887
L238.876 121.134
L240.039 121.45
L240.962 121.285
L241.506 120.45
L241.896 119.503
L242.346 118.894
L243.073 118.177
L243.216 117.344
L244.818 114.19
L245.068 112.966
L245.134 111.695
L245.405 110.408
L245.797 106.803
L246.042 106.122
L246.493 105.495
L246.994 105.833
L247.373 106.259
L247.493 106.812
L248.215 107.457
L248.403 108.063
L250.769 109.683
L251.092 110.291
L251.184 110.931
L251.581 112.29
L251.8 112.991
L252.668 114.41
L253.605 115.114
L253.944 116.485
L254.625 117.139
L254.931 117.765
L257.537 118.91
L258.192 120.921
L260.75 121.388
L261.455 121.322
L261.769 120.962
L262.506 120.668
L269.541 120.297
L269.831 119.323
L270.391 118.696
L270.53 117.96
L270.823 117.11
L271.392 116.149
L271.589 115.087
L272.368 113.939
L272.555 112.728
L272.885 111.481
L273.023 110.228
L273.301 109.004
L273.869 107.843
L274.499 105.665
L275.108 105.336
L275.821 105.131
L278.234 104.907
L278.981 105.129
L279.411 105.596
L279.578 105.797
L280.471 106.254
L280.805 106.773
L281.884 107.335
L282.509 108.236
L283.06 108.546
L283.191 108.864
L283.787 109.24
L283.86 109.655
L284.267 110.618
L284.362 111.163
L284.692 111.748
L285.066 113.027
L285.463 113.717
L286.195 114.437
L286.414 115.184
L287.237 115.953
L287.579 116.741
L288.747 118.352
L288.954 119.972
L290.516 121.548
L290.922 124.309
L291.621 125.181
L291.976 125.22
L292.139 125.395
L292.573 125.677
L292.874 126.535
L293.539 126.811
L293.857 126.505
L294.064 126.173
L294.66 124.392
L295.088 123.544
L295.917 122.575
L296.349 121.485
L296.68 118.921
L297.021 117.456
L297.638 103.221
L298.334 99.1383
L298.464 97.5935
L298.859 96.3009
L299.029 95.2138
L300.19 93.5751
L300.381 92.9965
L301.343 92.562
L301.631 92.2668
L302.755 92.3275
L303.041 92.5665
L303.977 92.9155
L306.965 93.1955
L307.623 93.9119
L309.147 94.8065
L309.477 95.2967
L309.998 95.8087
L310.721 97.4251
L311.094 97.9786
L311.327 99.0899
L312.392 100.195
L312.696 101.283
L313.091 101.818
L314.45 102.346
L314.566 102.867
L316.242 103.887
L316.765 104.876
L317.061 105.359
L317.645 105.835
L318.568 105.765
L318.854 105.661
L319.106 105.894
L319.671 106.218
L321.76 106.74
L322.221 107.344
L322.351 107.985
L322.987 109.348
L323.844 110.053
L324.497 110.758
L324.836 112.136
L325.231 112.794
L326.238 113.423
L326.387 114.017
L326.99 114.571
L329.919 115.078
L330.626 116.266
L332.385 116.532
L333.061 116.843
L333.263 116.878
L334.082 116.692
L334.151 116.464
L334.664 116.145
L334.878 115.733
L335.204 113.161
L335.261 112.296
L335.454 111.348
L335.629 109.223
L336.009 108.058
L336.523 102.958
L336.915 101.884
L337.105 101.302
L337.98 101.062
L341.474 101.683
L341.767 102.365
L341.898 102.536
L342.204 102.704
L346.755 102.866
L347.248 103.308
L348.25 103.56
L350.082 104.041
L351.249 104.184
L351.337 104.246
L355.497 104.405
L360.969 104.874
L364.32 105.029
L366.3 105.328
L368.447 105.541
L369.266 105.613
L376.083 105.912
L392.632 106.494
L407.632 106.622
L425.616 106.672
L497.362 106.692
L497.362 106.692" style="fill:none;stroke:#00bfbf;stroke-linecap:square;"/>
   </g>
   <g id="line2d_3">
    <path clip-path="url(#p7ff5b81e1d)" d="
M72 92.5714
L72 216
L72 216
L72 216
L73.6008 223.482
L73.662 235.135
L73.9588 252.68
L74.1035 285.329
L75.2678 296.823
L75.4086 305.342
L76.0623 315.548
L76.2786 318.23
L76.7152 319.819
L77.5217 320.602
L83.8457 320.802
L85.511 320.589
L86.9679 312.166
L88.3718 310.796
L88.5084 309.603
L88.8156 309.058
L89.7452 308.538
L89.8677 307.209
L90.3992 306.548
L90.7046 305.937
L90.7847 305.253
L91.1643 304.519
L92.0505 299.8
L92.278 297.436
L92.4671 296.665
L92.7866 295.901
L92.9288 295.144
L93.3175 294.394
L93.6267 292.909
L94.2304 292.173
L94.2843 291.44
L94.5433 290.71
L95.1004 287.085
L95.4896 286.364
L96.1244 282.064
L96.3732 281.354
L96.5243 279.94
L96.9602 277.841
L97.0164 277.148
L97.5421 276.459
L97.9673 275.139
L98.215 274.083
L98.4881 273.734
L99.2452 273.429
L100.125 273.561
L100.311 273.75
L101.223 274.292
L101.294 274.619
L101.645 274.968
L101.952 276.069
L102.814 277.139
L104.1 277.474
L104.503 277.796
L105.054 278.678
L106.197 279.654
L106.456 279.865
L107.146 280.253
L109.178 280.43
L109.777 280.598
L111.81 278.97
L112.924 258.643
L114.414 235.457
L116.317 209.136
L116.497 196.789
L116.898 185.924
L120.236 166.964
L121.15 167.719
L122.066 178.78
L122.577 187.266
L122.817 216.918
L123.334 228.759
L123.925 229.737
L124.021 229.63
L124.193 228.658
L124.467 227.899
L124.902 223.818
L125.175 218.333
L125.542 209.004
L125.793 206.493
L125.946 206.575
L126.499 210.92
L126.889 215.41
L128.187 216.877
L128.57 217.269
L129.237 218.196
L129.659 218.366
L130.137 219.041
L130.591 219.437
L131.593 219.604
L131.986 219.458
L133.027 219.12
L133.33 218.566
L133.75 218.203
L133.983 217.296
L134.603 212.429
L135.188 203.153
L135.473 201.428
L136.298 198.87
L136.431 197.92
L136.497 198.162
L136.621 200.207
L136.955 212.365
L137.265 214.332
L137.589 214.982
L138.057 218.006
L138.311 219.065
L138.621 220.21
L138.882 220.763
L138.999 220.712
L139.348 220.115
L139.494 219.329
L139.694 218.812
L140.013 215.892
L140.409 209.325
L140.694 201.659
L141.128 195.265
L141.178 193.97
L141.509 193.123
L141.646 195.049
L141.955 206.83
L142.138 214.822
L142.261 215.833
L142.694 217.784
L142.761 218.265
L143.175 219.103
L143.588 220.172
L144.718 220.783
L145.574 221.298
L146.039 221.51
L151.122 221.686
L151.441 221.82
L152.532 221.932
L153.069 221.713
L154.253 220.86
L154.707 220.422
L155.994 218.619
L156.115 217.851
L156.711 217.001
L158.052 216.07
L158.226 213.255
L158.473 206.317
L158.702 203.666
L158.895 198.66
L159.131 196.569
L159.663 194.905
L159.858 193.19
L160.135 193.3
L160.235 194.135
L160.618 195.741
L160.716 198.077
L161.238 201.049
L161.301 204.512
L161.505 208.274
L161.933 212.115
L162.033 214.293
L162.286 216.209
L162.466 218.048
L162.85 218.506
L163.556 220.318
L164.314 221.352
L164.609 221.686
L166.663 221.811
L167.182 221.528
L167.969 221.286
L169.079 217.457
L170.881 216.592
L170.969 215.648
L171.423 214.332
L172.338 212.6
L172.401 210.498
L172.738 208.112
L173.318 200.476
L174.41 198.214
L175.581 194.832
L175.731 193.886
L176.04 193.54
L176.387 193.857
L176.687 194.892
L177.437 196.666
L177.76 199.128
L178.882 205.653
L180.176 209.365
L181.087 214.428
L181.826 215.447
L182.005 216.259
L182.708 216.925
L183.096 217.484
L183.248 218.4
L183.572 218.796
L183.71 219.507
L183.958 220.134
L184.255 220.908
L185.366 221.111
L186.948 221.498
L188.44 221.527
L188.535 221.459
L190.797 220.543
L191.433 218.457
L193.317 217.74
L193.955 216.946
L194.222 216.075
L194.286 215.054
L194.982 211.805
L195.468 207.262
L195.581 204.753
L196.871 193.93
L197.085 195.636
L197.198 197.54
L197.51 200.087
L197.615 203.167
L198.243 206.621
L198.402 210.254
L199.05 213.638
L199.621 214.515
L199.91 216.863
L200.074 217.383
L200.365 217.84
L200.843 219.626
L201.116 220.187
L201.184 220.433
L201.533 220.652
L201.791 221.109
L202.823 221.203
L203.563 221.087
L204.54 220.729
L205.338 219.679
L205.97 219.181
L207.062 217.96
L208.502 217.234
L209.295 216.432
L210.957 214.416
L211.502 210.985
L211.847 201.568
L212.416 199.35
L212.547 197.425
L213.204 194.291
L213.281 194.344
L213.774 201.004
L214.141 213.734
L214.454 217.305
L214.777 218.849
L214.893 219.17
L215.848 220.012
L216.622 220.247
L218.514 220.454
L218.776 220.768
L220.061 220.878
L220.389 220.376
L220.479 220.078
L221.227 219.27
L221.356 218.167
L221.707 215.954
L221.835 215.069
L222.408 205.572
L223.077 203.167
L226.249 198.771
L226.45 197.007
L226.996 195.657
L231.562 194.787
L232.36 194.443
L232.487 194.69
L232.619 195.547
L232.988 197.059
L233.074 199.203
L233.366 201.904
L233.47 205.039
L233.724 208.439
L233.791 211.908
L234.292 214.773
L234.483 215.597
L234.837 216.252
L234.975 217.269
L235.723 218.759
L236.137 219.883
L237.046 220.585
L238.014 220.691
L238.479 220.624
L240.643 219.356
L242.205 214.506
L242.769 213.13
L243.087 211.397
L243.207 209.364
L243.715 207.121
L244.597 204.776
L245.001 202.449
L245.225 198.319
L245.521 195.562
L245.675 194.882
L245.846 194.725
L246.24 195.149
L246.509 197.812
L247.419 205.95
L247.571 209.304
L248.26 212.674
L248.727 213.957
L249.657 214.876
L250.643 215.624
L251.021 216.232
L251.205 217.189
L251.366 217.59
L251.842 218.298
L253.506 218.918
L253.652 219.199
L254.042 219.694
L254.757 219.904
L258.091 220.309
L259.721 219.963
L261.342 218.957
L261.485 218.483
L266.886 216.633
L269.568 215.875
L269.705 215.047
L270.398 212.47
L270.662 210.668
L271.287 208.602
L271.468 206.366
L272.751 199.767
L273.116 196.554
L274.047 195.067
L274.419 195.055
L275.591 194.25
L276.945 193.642
L277.062 193.005
L277.922 192.398
L278.134 191.858
L279.057 190.675
L279.331 190.676
L279.494 190.8
L280.354 191.248
L280.573 191.552
L280.655 191.898
L280.932 192.277
L281.758 192.681
L282.578 194.432
L283.722 195.32
L283.791 195.765
L284.047 196.219
L284.375 197.772
L284.759 198.388
L285.251 199.793
L286.478 202.318
L287.404 203.25
L287.913 204.216
L288.585 205.205
L288.848 207.213
L289.306 208.208
L290.526 210.117
L290.852 212.577
L290.963 212.869
L291.549 212.72
L292.676 211.966
L292.925 211.638
L293.473 211.221
L293.926 210.099
L294.591 206.984
L295.357 203.787
L296.054 201.938
L296.378 199.805
L297.072 191.772
L297.633 169.958
L298.234 164.54
L298.363 159.224
L298.722 154.239
L298.908 149.747
L300.467 137.968
L301.191 136.532
L302.859 135.206
L302.953 135.599
L303.314 136.285
L303.629 137.194
L306.894 138.278
L307.45 140.847
L308.052 142.276
L309.021 143.765
L310.129 148.405
L310.388 151.5
L311.103 154.496
L311.232 155.94
L311.631 157.341
L312.262 158.697
L312.492 161.262
L313.329 163.631
L314.471 164.743
L316.161 166.828
L316.475 168.738
L316.946 169.634
L318.619 172.027
L318.752 172.64
L319.018 173.13
L319.116 173.562
L321.609 174.028
L322.093 174.606
L322.226 175.32
L322.607 176.189
L322.868 177.203
L322.983 178.337
L323.888 179.56
L324.586 180.842
L325.017 183.455
L326.07 184.728
L326.269 185.945
L326.641 187.083
L330.109 189.057
L330.408 189.863
L331.726 191.062
L332.637 191.436
L332.739 191.652
L333.169 191.705
L333.419 191.59
L334.079 190.845
L334.555 190.212
L334.857 188.427
L335.201 182.86
L335.386 179.177
L335.529 177.144
L335.867 174.998
L336.244 168.029
L336.451 163.295
L336.845 159.144
L337.028 156.092
L337.274 155.06
L337.751 154.364
L337.951 153.893
L338.469 154.422
L339.328 154.962
L340.61 155.632
L341.467 157.225
L341.802 160.7
L342.104 161.526
L346.358 162.314
L346.886 163.057
L347.102 164.394
L347.41 164.985
L348.133 165.523
L348.469 166.01
L348.605 166.449
L348.952 166.841
L349.68 167.189
L350.014 167.497
L350.958 167.768
L351.247 168.212
L352.107 168.394
L354.912 168.552
L355.325 168.691
L356.871 169.11
L357.005 169.192
L359.289 169.487
L359.423 169.558
L361.902 169.852
L363.571 170.09
L368.533 171.812
L368.631 171.89
L370.343 172.185
L373.308 172.39
L379.189 173.557
L379.324 173.599
L381.886 173.795
L384.391 173.904
L386.521 174.222
L387.1 174.384
L394.786 174.944
L401.123 175.114
L420.726 175.456
L438.347 175.499
L494.115 175.538
L494.115 175.538" style="fill:none;stroke:#ff0000;stroke-linecap:square;"/>
   </g>
   <g id="line2d_4">
    <path clip-path="url(#p7ff5b81e1d)" d="
M72 92.5714
L72 216
L72 234.38
L73.6365 240.732
L73.6957 246.543
L73.9529 251.856
L74.1557 261.477
L75.4049 269.742
L76.2464 279.196
L76.7179 281.558
L77.5252 283.544
L83.8652 285.122
L85.5317 286.202
L85.9507 289.304
L86.1193 290.063
L86.4426 290.648
L86.5604 291.299
L86.6886 291.447
L87.0105 291.507
L87.8936 291.468
L88.3394 291.311
L88.646 290.616
L88.8586 290.086
L89.7803 288.499
L89.9022 286.364
L90.4899 285.142
L91.2117 277.661
L92.0074 264.418
L92.504 248.963
L92.827 245.666
L92.9601 242.307
L93.3631 238.889
L93.6677 231.889
L94.2622 228.312
L94.354 224.687
L94.6974 217.306
L95.1396 202.089
L95.546 198.206
L95.9579 178.435
L96.4045 170.406
L96.5561 162.335
L96.8435 154.239
L97.0762 146.134
L97.5809 142.082
L97.8775 138.548
L98.1106 133.084
L98.2861 131.287
L98.553 129.994
L99.0834 129.054
L99.2964 128.372
L100.238 127.562
L100.376 127.356
L101.259 127.212
L101.921 127.566
L101.982 127.732
L102.965 128.324
L104.167 128.54
L104.646 128.762
L105.119 129.437
L106.17 130.102
L106.508 130.529
L107.328 130.938
L109.334 131.135
L109.854 131.328
L112.142 131.548
L112.584 131.392
L114.543 129.655
L115.49 128.556
L116.394 127.3
L116.575 125.975
L116.969 124.69
L119.492 123.551
L120.303 122.058
L120.664 122.025
L121.204 122.497
L122.367 124.422
L122.613 125.751
L122.903 130.739
L123.194 132.544
L123.374 134.89
L123.866 135.818
L124.238 138.139
L124.779 139.009
L125.216 139.679
L125.404 139.585
L125.677 139.486
L125.842 139.615
L126.059 139.994
L126.661 141.478
L126.927 142.698
L127.209 143.032
L127.477 143.62
L127.848 144.129
L128.222 144.994
L128.413 145.462
L129.27 149.216
L129.699 149.662
L130.181 151.403
L130.641 152.566
L131.115 152.907
L131.643 153.743
L132.567 154.229
L133.385 154.298
L133.954 154.086
L134.525 152.161
L134.842 150.29
L135.238 147.776
L135.516 146.856
L136.034 145.933
L136.335 145.03
L136.589 142.947
L136.65 142.92
L136.774 143.344
L137.197 145.134
L137.295 145.57
L137.637 146.053
L138.721 154.658
L139.047 156.375
L139.174 156.654
L139.455 156.66
L139.908 155.792
L140.447 152.035
L140.729 148.774
L141.092 146.273
L141.221 143.78
L141.678 141.735
L141.749 141.837
L141.87 142.123
L142.306 145.312
L142.605 146.332
L142.725 146.868
L142.987 147.441
L143.631 150.567
L144.361 151.198
L145.117 152.42
L145.735 153
L146.127 153.553
L151.179 154.071
L151.504 154.552
L152.135 154.99
L152.484 155.379
L152.62 155.716
L153.531 156.371
L154.741 156.424
L155.6 156.095
L156.041 155.818
L156.153 155.465
L157.836 155.038
L158.098 154.538
L158.431 151.544
L158.927 146.98
L159.189 145.72
L159.708 144.473
L159.894 142.618
L160.272 141.786
L160.681 141.76
L160.748 141.941
L161.271 142.291
L161.339 142.778
L161.544 143.366
L161.966 144.02
L162.597 147.042
L162.945 147.616
L163.191 148.827
L164.469 153.584
L165.472 154.08
L165.774 154.537
L166.245 154.949
L166.395 155.313
L167.261 156.074
L168.363 156.193
L168.795 155.83
L169.118 155.174
L170.927 154.738
L171.017 154.232
L171.482 153.633
L172.371 152.928
L172.448 152.116
L172.772 151.196
L172.913 150.177
L173.417 147.901
L174.479 146.692
L175.276 145.473
L175.642 144.279
L175.787 143.303
L176.095 142.609
L176.432 142.143
L177.181 141.939
L177.5 141.975
L179.126 143.088
L180.221 143.68
L181.047 144.323
L181.139 144.797
L181.88 145.232
L182.072 145.705
L182.804 146.197
L183.138 146.707
L183.31 147.826
L183.606 148.42
L184.075 151.456
L184.367 152.604
L185.407 153.143
L185.584 153.652
L186.647 154.126
L187.484 154.949
L188.476 155.29
L188.583 155.579
L189.417 155.984
L190.852 156.139
L191.093 156.025
L191.524 155.632
L193.398 155.329
L194.106 154.956
L194.654 153.384
L195.028 152.668
L195.523 150.924
L195.648 149.907
L196.215 147.667
L196.283 146.491
L196.606 145.316
L196.788 143.29
L197.122 142.122
L197.589 142.467
L198.33 143.382
L198.466 143.968
L199.684 144.994
L199.957 146.392
L200.403 147.455
L201.153 151.597
L201.491 152.165
L201.831 154.173
L202.206 154.586
L203.338 155.274
L203.932 155.752
L205.255 156.021
L206.608 155.699
L207.115 155.454
L208.542 155.141
L209.327 154.76
L210.533 154.312
L211.004 153.782
L211.642 151.596
L211.888 148.58
L212.48 147.456
L212.597 146.314
L212.984 145.184
L213.468 142.306
L213.716 142.434
L214 143.656
L214.424 146.585
L214.962 150.004
L215.568 151.18
L215.923 151.75
L216.887 152.303
L218.573 152.834
L218.836 153.807
L219.653 154.24
L220.028 154.981
L220.27 155.716
L220.522 155.919
L221.259 155.869
L221.518 155.295
L221.688 154.97
L222.003 152.932
L222.07 152.189
L222.369 151.347
L222.441 150.414
L223.118 149.403
L225.631 148.333
L226.376 147.228
L226.489 146.115
L227.085 145.024
L231.602 143.984
L232.425 143.266
L232.541 142.752
L232.786 142.484
L233.03 142.465
L233.77 143.913
L233.836 144.485
L234.874 146.282
L235.097 147.309
L235.778 149.602
L236.266 151.903
L236.524 152.441
L236.726 153.441
L237.159 153.894
L237.831 154.308
L237.975 154.682
L239.037 155.683
L239.977 155.846
L240.841 155.759
L241.261 155.412
L241.538 154.802
L242.811 153.36
L243.138 152.698
L243.256 151.939
L243.756 151.087
L244.754 150.149
L245.046 149.142
L245.103 148.085
L245.878 143.255
L246.421 142.598
L246.614 142.633
L247.463 143.632
L247.675 144.154
L248.788 145.115
L250.701 145.993
L251.063 146.463
L251.286 147.499
L251.93 149.191
L252.577 149.769
L253.545 150.345
L254.084 152.016
L254.843 152.538
L256.063 153.035
L256.478 153.502
L257.673 153.935
L257.866 154.684
L258.18 155.25
L259.858 155.608
L260.674 155.735
L261.525 155.617
L261.726 155.462
L262.475 155.244
L267.07 154.962
L269.631 154.617
L269.761 154.209
L270.142 153.721
L270.795 152.47
L271.389 151.704
L271.532 150.847
L272.305 149.914
L273.303 145.789
L273.803 144.788
L274.462 142.84
L275.05 142.551
L275.766 142.395
L278.208 142.316
L278.963 142.547
L280.007 143.248
L280.617 143.599
L280.973 143.97
L281.843 144.16
L282.614 144.923
L283.754 145.349
L283.834 145.611
L284.082 145.911
L284.408 147.044
L284.797 147.49
L285.381 148.476
L285.71 149.012
L286.254 149.573
L286.562 150.157
L287.442 150.76
L288.677 152.008
L288.912 153.282
L289.722 153.916
L290.581 155.151
L290.902 156.823
L291.029 157.274
L291.486 157.596
L291.587 157.881
L291.962 158.216
L292.091 158.705
L292.529 159.251
L292.963 160.807
L293.509 160.998
L293.827 160.75
L295.4 157.17
L296.098 156.178
L296.427 155.072
L296.979 152.531
L297.606 141.286
L297.676 139.478
L298.273 137.975
L298.427 136.808
L298.971 135.158
L299.664 134.587
L299.833 134.159
L300.336 133.86
L301.589 133.598
L302.609 133.835
L302.894 134.03
L303.008 134.256
L303.662 134.82
L306.929 135.162
L307.505 135.924
L309.087 136.746
L310.163 138.021
L310.329 138.444
L310.663 138.861
L310.755 139.269
L311.154 139.669
L311.295 140.059
L312.327 140.804
L312.651 141.502
L313.371 142.151
L315.374 142.753
L316.22 143.037
L316.307 143.31
L316.516 143.573
L317.615 144.07
L318.107 143.981
L318.66 143.998
L319.252 145.438
L321.707 146.117
L322.185 146.785
L322.302 147.437
L322.923 148.735
L323.028 149.373
L324.681 150.597
L324.808 151.177
L325.137 151.731
L326.178 152.255
L326.356 152.745
L326.734 153.197
L329.895 153.606
L330.601 154.525
L333.241 154.863
L333.619 154.762
L333.758 154.581
L334.61 153.974
L334.922 153.032
L335.179 151.002
L335.317 149.264
L336.214 143.824
L336.504 141.317
L337.077 140.11
L337.785 140.107
L338.526 140.582
L341.086 141.126
L341.514 141.323
L341.865 142.106
L342.174 142.289
L346.43 142.464
L346.954 142.629
L347.198 142.925
L347.468 143.057
L348.512 143.285
L348.7 143.383
L350.056 143.619
L359.556 144.098
L381.973 144.745
L489.046 144.905
L497.081 144.905
L497.081 144.905" style="fill:none;stroke:#008000;stroke-linecap:square;"/>
   </g>
   <g id="line2d_5">
    <path clip-path="url(#p7ff5b81e1d)" d="
M72 92.5714
L72 216
L72 273.871
L73.6682 294.666
L73.7293 313.185
L74.0018 331.145
L74.1389 358.876
L75.3029 361.293
L75.5968 362.714
L76.0915 364.102
L76.5447 364.263
L76.9506 364.191
L83.7864 363.957
L83.9978 363.615
L85.5554 363.209
L86.0408 361.209
L86.3522 360.722
L86.6392 359.531
L87.2004 358.877
L88.249 358.583
L88.7797 357.816
L89.7082 357.587
L89.9594 356.686
L90.7338 356.127
L90.9954 355.822
L91.9895 353.304
L92.3999 351.805
L93.2686 350.728
L93.5442 350.022
L94.1941 349.671
L94.415 348.973
L94.7251 348.277
L94.8879 347.584
L95.7243 345.858
L95.8871 345.172
L96.4296 344.151
L96.7276 343.143
L96.9857 342.48
L97.757 341.826
L97.9952 341.218
L98.2488 340.923
L99.1632 340.999
L99.2812 341.137
L100.056 341.312
L100.171 341.512
L100.523 341.725
L101.195 341.946
L101.257 342.167
L101.614 342.386
L101.949 343.004
L102.867 343.698
L104.643 343.989
L105.242 344.361
L106.413 344.758
L106.486 344.843
L107.25 344.997
L111.489 345.198
L111.94 343.854
L112.429 338.302
L113.05 335.035
L114.272 329.983
L114.441 323.768
L115.548 317.014
L116.345 310.311
L116.928 299.168
L119.534 295.543
L120.269 293.375
L120.659 294.96
L121.188 298.339
L121.795 303.383
L122.27 309.757
L122.608 317.038
L122.86 339.649
L123.187 345.782
L123.253 344.05
L123.855 343.171
L124.229 341.546
L124.557 341.176
L124.774 340.471
L125.06 339.22
L125.275 337.043
L125.516 334.168
L125.748 332.84
L125.982 333.444
L126.067 334.192
L126.351 335.191
L126.723 340.374
L126.861 340.549
L127.434 340.54
L128.468 340.709
L129.902 341.406
L130.739 341.543
L131.689 341.426
L133.183 340.91
L133.853 340.582
L134.142 339.964
L134.265 339.477
L134.425 339.214
L134.752 336.916
L134.93 334.507
L135.214 332.085
L135.505 331.057
L136.329 329.672
L136.399 329.399
L136.457 329.436
L136.617 330.59
L137.125 340.867
L137.24 341.103
L137.689 341.114
L138.717 342.016
L138.911 341.899
L139.447 341.044
L139.521 340.817
L139.754 340.567
L139.999 339.682
L140.47 335.47
L140.571 332.182
L140.925 329.017
L141.124 327.719
L141.148 326.715
L141.481 325.806
L141.535 326.009
L141.793 329.776
L142.114 341.971
L142.213 341.566
L143.372 341.88
L143.449 341.948
L146.504 342.205
L152.137 342.144
L153.075 341.9
L156.678 339.924
L156.75 339.595
L158.145 339.249
L158.453 334.98
L158.677 333.329
L158.929 328.537
L159.246 327.314
L159.702 326.408
L159.827 325.872
L160.064 325.76
L160.59 327.07
L160.684 328.53
L161.306 332.835
L161.336 335.465
L161.537 338.223
L162.06 341.809
L162.384 341.611
L164.459 342.17
L166.693 341.924
L167.211 341.679
L168.018 341.523
L168.244 341.142
L168.35 340.917
L168.828 340.401
L169.105 339.803
L170.908 339.476
L170.996 339.132
L171.449 338.45
L172.367 337.412
L172.428 336.084
L172.766 334.55
L172.894 332.91
L173.454 329.714
L174.636 328.35
L175.769 326.089
L176.34 326.124
L176.715 327.708
L177.567 329.274
L178.416 333.684
L181.051 341.624
L183.307 341.666
L183.746 341.85
L184.352 342.081
L187.08 342.042
L189.224 341.704
L189.356 341.566
L190.828 341.222
L191.366 340.542
L193.351 340.273
L193.383 339.985
L194.131 339.678
L194.249 339.354
L194.537 338.933
L195.015 337.021
L195.557 334.109
L195.703 332.5
L196.118 330.92
L196.273 328.217
L196.837 326.362
L196.9 326.532
L197.115 328.341
L197.232 329.981
L197.541 332.046
L198.036 334.436
L198.437 339.641
L199.355 341.916
L199.773 341.511
L199.946 341.494
L200.492 341.616
L201.156 341.955
L201.765 342.016
L201.823 341.994
L203.401 341.815
L203.9 341.595
L204.715 341.452
L205.199 341.102
L206.36 340.666
L206.586 340.417
L207.499 340.148
L209.234 339.861
L210.909 339.236
L211.033 338.689
L211.472 337.795
L211.63 335.203
L211.825 332.102
L212.371 330.596
L212.464 329.239
L213.048 327.276
L213.234 326.655
L213.308 326.951
L213.814 332.759
L214.1 340.216
L214.168 341.748
L214.23 341.436
L214.699 341.642
L215.116 341.764
L215.462 341.869
L216.665 341.941
L219.941 341.877
L220.471 341.349
L220.987 341.18
L221.9 339.118
L222.093 336.189
L222.347 334.747
L222.882 333.213
L223.107 331.68
L225.734 330.24
L226.307 328.976
L226.485 327.961
L227.136 327.251
L232.394 326.891
L232.739 328.201
L233.021 329.547
L233.11 331.325
L233.399 333.464
L233.496 335.853
L233.752 338.356
L233.887 340.824
L234.122 341.587
L234.378 341.408
L235.262 341.501
L236.167 341.874
L237.341 341.895
L238.225 341.738
L240.764 340.885
L241.044 340.437
L243.024 338.11
L243.225 337.037
L243.656 335.734
L244.531 334.284
L244.632 332.776
L245.029 331.301
L245.259 328.788
L245.55 327.309
L245.717 327.072
L246.002 327.201
L246.281 327.743
L246.461 328.73
L246.54 330.158
L247 331.992
L247.369 334.153
L247.502 336.528
L248.165 338.979
L248.422 341.359
L249.686 341.362
L251.273 341.412
L253.864 341.789
L257.493 341.845
L257.934 341.726
L258.129 341.555
L259.547 341.439
L259.75 341.304
L260.555 341.148
L260.757 340.971
L261.459 340.775
L261.698 340.325
L262.478 340.072
L269.546 339.802
L269.608 339.515
L270.305 338.667
L270.748 336.665
L271.347 335.332
L271.517 333.886
L272.255 332.414
L272.461 331.003
L272.795 329.735
L272.946 328.683
L273.259 327.904
L274.674 326.828
L274.967 326.272
L275.825 325.601
L276.973 324.894
L277.116 324.204
L278.049 323.567
L278.205 323.001
L279.148 321.576
L279.417 321.343
L279.985 321.372
L280.611 321.61
L280.723 321.792
L281.826 322.255
L282.001 322.525
L282.332 322.816
L282.511 323.122
L283.024 323.441
L283.158 323.768
L283.757 324.103
L283.82 324.452
L284.079 324.825
L284.36 325.678
L284.699 326.174
L285.069 327.326
L285.334 327.982
L286.123 328.691
L286.354 329.448
L287.225 330.249
L287.502 331.089
L288.67 332.858
L288.889 334.693
L290.469 336.518
L290.886 339.798
L291.251 340.069
L292.897 339.746
L293.386 339.659
L293.863 339.298
L295.09 335.603
L295.834 334.344
L296.357 332.859
L296.408 331.124
L297.01 326.938
L297.602 310.15
L298.057 305.639
L298.338 301.071
L298.404 296.631
L299.221 288.709
L300.153 282.51
L300.401 280.088
L300.782 278.094
L301.529 276.502
L302.712 274.445
L303.056 273.693
L303.499 273.676
L303.936 273.837
L306.933 274.162
L307.48 275.22
L308.587 275.915
L310.003 278.462
L310.487 281.441
L311.057 282.481
L311.238 283.531
L311.274 284.585
L311.731 285.637
L312.333 286.683
L312.444 287.718
L313.007 289.746
L314.414 290.734
L314.57 291.703
L316.251 293.579
L316.715 295.372
L317.066 296.236
L317.688 297.08
L318.514 297.902
L318.861 299.205
L319.067 299.688
L319.509 300.172
L321.772 300.72
L322.153 301.377
L322.329 302.158
L322.963 304.065
L323.815 305.153
L324.418 306.301
L324.632 307.486
L325.038 308.685
L325.125 309.877
L326.25 311.044
L326.39 312.167
L326.967 313.232
L329.887 314.224
L330.592 316.661
L332.307 317.261
L333.274 318.324
L333.446 318.413
L334.03 318.36
L334.356 318.162
L334.822 317.324
L335.088 314.948
L335.563 308.179
L335.939 306.457
L336.246 302.721
L336.41 298.729
L337.11 290.641
L337.62 289.675
L338.01 288.166
L338.429 288.057
L339.147 288.102
L339.655 288.274
L340.971 288.549
L341.429 288.902
L341.831 291.254
L342.362 291.755
L346.782 292.245
L347.15 293.614
L347.861 294.026
L348.721 295.108
L349.979 295.704
L350.046 295.966
L351.115 296.207
L351.144 296.428
L351.283 296.629
L354.819 296.814
L354.946 296.984
L356.91 297.667
L359.101 298.096
L359.956 298.391
L360.978 298.582
L363.142 298.773
L364.413 299.156
L364.585 299.252
L365.374 299.54
L365.399 299.636
L368.122 300.552
L368.784 300.885
L370.369 301.197
L372.951 301.344
L373.786 301.554
L373.833 301.621
L375.167 301.816
L376.021 301.999
L378.039 302.334
L378.34 302.488
L378.451 302.537
L386.56 303.406
L387.51 303.611
L392.085 304.089
L397.378 304.228
L416.213 304.72
L484.112 304.856
L495.742 304.859
L495.742 304.859" style="fill:none;stroke:#0000ff;stroke-linecap:square;"/>
   </g>
   <g id="patch_3">
    <path d="
M518.4 388.8
L518.4 43.2" style="fill:none;stroke:#000000;stroke-linecap:square;stroke-linejoin:miter;"/>
   </g>
   <g id="patch_4">
    <path d="
M72 388.8
L518.4 388.8" style="fill:none;stroke:#000000;stroke-linecap:square;stroke-linejoin:miter;"/>
   </g>
   <g id="patch_5">
    <path d="
M72 43.2
L518.4 43.2" style="fill:none;stroke:#000000;stroke-linecap:square;stroke-linejoin:miter;"/>
   </g>
   <g id="patch_6">
    <path d="
M72 388.8
L72 43.2" style="fill:none;stroke:#000000;stroke-linecap:square;stroke-linejoin:miter;"/>
   </g>
   <g id="matplotlib.axis_1">
    <g id="xtick_1">
     <g id="line2d_6">
      <path clip-path="url(#p7ff5b81e1d)" d="
M72 388.8
L72 43.2" style="fill:none;stroke:#000000;stroke-dasharray:3.000000,5.000000,1.000000,5.000000;stroke-dashoffset:0.0;stroke-width:0.5;"/>
     </g>
     <g id="line2d_7">
      <defs>
       <path d="
M0 0
L0 -4" id="mc7db9fdffb" style="stroke:#000000;stroke-width:0.5;"/>
      </defs>
      <g>
       <use style="stroke:#000000;stroke-width:0.5;" x="72.0" xlink:href="#mc7db9fdffb" y="388.8"/>
      </g>
     </g>
     <g id="line2d_8">
      <defs>
       <path d="
M0 0
L0 4" id="m5a7d422ac3" style="stroke:#000000;stroke-width:0.5;"/>
      </defs>
      <g>
       <use style="stroke:#000000;stroke-width:0.5;" x="72.0" xlink:href="#m5a7d422ac3" y="43.2"/>
      </g>
     </g>
     <g id="text_1">
      <!-- 0 -->
      <defs>
       <path d="
M31.7812 66.4062
Q24.1719 66.4062 20.3281 58.9062
Q16.5 51.4219 16.5 36.375
Q16.5 21.3906 20.3281 13.8906
Q24.1719 6.39062 31.7812 6.39062
Q39.4531 6.39062 43.2812 13.8906
Q47.125 21.3906 47.125 36.375
Q47.125 51.4219 43.2812 58.9062
Q39.4531 66.4062 31.7812 66.4062
M31.7812 74.2188
Q44.0469 74.2188 50.5156 64.5156
Q56.9844 54.8281 56.9844 36.375
Q56.9844 17.9688 50.5156 8.26562
Q44.0469 -1.42188 31.7812 -1.42188
Q19.5312 -1.42188 13.0625 8.26562
Q6.59375 17.9688 6.59375 36.375
Q6.59375 54.8281 13.0625 64.5156
Q19.5312 74.2188 31.7812 74.2188" id="DejaVuSans-30"/>
      </defs>
      <g transform="translate(68.9765625 401.918125)scale(0.12 -0.12)">
       <use xlink:href="#DejaVuSans-30"/>
      </g>
     </g>
    </g>
    <g id="xtick_2">
     <g id="line2d_9">
      <path clip-path="url(#p7ff5b81e1d)" d="
M135.771 388.8
L135.771 43.2" style="fill:none;stroke:#000000;stroke-dasharray:3.000000,5.000000,1.000000,5.000000;stroke-dashoffset:0.0;stroke-width:0.5;"/>
     </g>
     <g id="line2d_10">
      <g>
       <use style="stroke:#000000;stroke-width:0.5;" x="135.771428571" xlink:href="#mc7db9fdffb" y="388.8"/>
      </g>
     </g>
     <g id="line2d_11">
      <g>
       <use style="stroke:#000000;stroke-width:0.5;" x="135.771428571" xlink:href="#m5a7d422ac3" y="43.2"/>
      </g>
     </g>
     <g id="text_2">
      <!-- 100 -->
      <defs>
       <path d="
M12.4062 8.29688
L28.5156 8.29688
L28.5156 63.9219
L10.9844 60.4062
L10.9844 69.3906
L28.4219 72.9062
L38.2812 72.9062
L38.2812 8.29688
L54.3906 8.29688
L54.3906 0
L12.4062 0
z
" id="DejaVuSans-31"/>
      </defs>
      <g transform="translate(125.376428571 401.918125)scale(0.12 -0.12)">
       <use xlink:href="#DejaVuSans-31"/>
       <use x="63.623046875" xlink:href="#DejaVuSans-30"/>
       <use x="127.24609375" xlink:href="#DejaVuSans-30"/>
      </g>
     </g>
    </g>
    <g id="xtick_3">
     <g id="line2d_12">
      <path clip-path="url(#p7ff5b81e1d)" d="
M199.543 388.8
L199.543 43.2" style="fill:none;stroke:#000000;stroke-dasharray:3.000000,5.000000,1.000000,5.000000;stroke-dashoffset:0.0;stroke-width:0.5;"/>
     </g>
     <g id="line2d_13">
      <g>
       <use style="stroke:#000000;stroke-width:0.5;" x="199.542857143" xlink:href="#mc7db9fdffb" y="388.8"/>
      </g>
     </g>
     <g id="line2d_14">
      <g>
       <use style="stroke:#000000;stroke-width:0.5;" x="199.542857143" xlink:href="#m5a7d422ac3" y="43.2"/>
      </g>
     </g>
     <g id="text_3">
      <!-- 200 -->
      <defs>
       <path d="
M19.1875 8.29688
L53.6094 8.29688
L53.6094 0
L7.32812 0
L7.32812 8.29688
Q12.9375 14.1094 22.625 23.8906
Q32.3281 33.6875 34.8125 36.5312
Q39.5469 41.8438 41.4219 45.5312
Q43.3125 49.2188 43.3125 52.7812
Q43.3125 58.5938 39.2344 62.25
Q35.1562 65.9219 28.6094 65.9219
Q23.9688 65.9219 18.8125 64.3125
Q13.6719 62.7031 7.8125 59.4219
L7.8125 69.3906
Q13.7656 71.7812 18.9375 73
Q24.125 74.2188 28.4219 74.2188
Q39.75 74.2188 46.4844 68.5469
Q53.2188 62.8906 53.2188 53.4219
Q53.2188 48.9219 51.5312 44.8906
Q49.8594 40.875 45.4062 35.4062
Q44.1875 33.9844 37.6406 27.2188
Q31.1094 20.4531 19.1875 8.29688" id="DejaVuSans-32"/>
      </defs>
      <g transform="translate(188.928482143 401.918125)scale(0.12 -0.12)">
       <use xlink:href="#DejaVuSans-32"/>
       <use x="63.623046875" xlink:href="#DejaVuSans-30"/>
       <use x="127.24609375" xlink:href="#DejaVuSans-30"/>
      </g>
     </g>
    </g>
    <g id="xtick_4">
     <g id="line2d_15">
      <path clip-path="url(#p7ff5b81e1d)" d="
M263.314 388.8
L263.314 43.2" style="fill:none;stroke:#000000;stroke-dasharray:3.000000,5.000000,1.000000,5.000000;stroke-dashoffset:0.0;stroke-width:0.5;"/>
     </g>
     <g id="line2d_16">
      <g>
       <use style="stroke:#000000;stroke-width:0.5;" x="263.314285714" xlink:href="#mc7db9fdffb" y="388.8"/>
      </g>
     </g>
     <g id="line2d_17">
      <g>
       <use style="stroke:#000000;stroke-width:0.5;" x="263.314285714" xlink:href="#m5a7d422ac3" y="43.2"/>
      </g>
     </g>
     <g id="text_4">
      <!-- 300 -->
      <defs>
       <path d="
M40.5781 39.3125
Q47.6562 37.7969 51.625 33
Q55.6094 28.2188 55.6094 21.1875
Q55.6094 10.4062 48.1875 4.48438
Q40.7656 -1.42188 27.0938 -1.42188
Q22.5156 -1.42188 17.6562 -0.515625
Q12.7969 0.390625 7.625 2.20312
L7.625 11.7188
Q11.7188 9.32812 16.5938 8.10938
Q21.4844 6.89062 26.8125 6.89062
Q36.0781 6.89062 40.9375 10.5469
Q45.7969 14.2031 45.7969 21.1875
Q45.7969 27.6406 41.2812 31.2656
Q36.7656 34.9062 28.7188 34.9062
L20.2188 34.9062
L20.2188 43.0156
L29.1094 43.0156
Q36.375 43.0156 40.2344 45.9219
Q44.0938 48.8281 44.0938 54.2969
Q44.0938 59.9062 40.1094 62.9062
Q36.1406 65.9219 28.7188 65.9219
Q24.6562 65.9219 20.0156 65.0312
Q15.375 64.1562 9.8125 62.3125
L9.8125 71.0938
Q15.4375 72.6562 20.3438 73.4375
Q25.25 74.2188 29.5938 74.2188
Q40.8281 74.2188 47.3594 69.1094
Q53.9062 64.0156 53.9062 55.3281
Q53.9062 49.2656 50.4375 45.0938
Q46.9688 40.9219 40.5781 39.3125" id="DejaVuSans-33"/>
      </defs>
      <g transform="translate(252.717723214 401.918125)scale(0.12 -0.12)">
       <use xlink:href="#DejaVuSans-33"/>
       <use x="63.623046875" xlink:href="#DejaVuSans-30"/>
       <use x="127.24609375" xlink:href="#DejaVuSans-30"/>
      </g>
     </g>
    </g>
    <g id="xtick_5">
     <g id="line2d_18">
      <path clip-path="url(#p7ff5b81e1d)" d="
M327.086 388.8
L327.086 43.2" style="fill:none;stroke:#000000;stroke-dasharray:3.000000,5.000000,1.000000,5.000000;stroke-dashoffset:0.0;stroke-width:0.5;"/>
     </g>
     <g id="line2d_19">
      <g>
       <use style="stroke:#000000;stroke-width:0.5;" x="327.085714286" xlink:href="#mc7db9fdffb" y="388.8"/>
      </g>
     </g>
     <g id="line2d_20">
      <g>
       <use style="stroke:#000000;stroke-width:0.5;" x="327.085714286" xlink:href="#m5a7d422ac3" y="43.2"/>
      </g>
     </g>
     <g id="text_5">
      <!-- 400 -->
      <defs>
       <path d="
M37.7969 64.3125
L12.8906 25.3906
L37.7969 25.3906
z

M35.2031 72.9062
L47.6094 72.9062
L47.6094 25.3906
L58.0156 25.3906
L58.0156 17.1875
L47.6094 17.1875
L47.6094 0
L37.7969 0
L37.7969 17.1875
L4.89062 17.1875
L4.89062 26.7031
z
" id="DejaVuSans-34"/>
      </defs>
      <g transform="translate(316.325089286 401.918125)scale(0.12 -0.12)">
       <use xlink:href="#DejaVuSans-34"/>
       <use x="63.623046875" xlink:href="#DejaVuSans-30"/>
       <use x="127.24609375" xlink:href="#DejaVuSans-30"/>
      </g>
     </g>
    </g>
    <g id="xtick_6">
     <g id="line2d_21">
      <path clip-path="url(#p7ff5b81e1d)" d="
M390.857 388.8
L390.857 43.2" style="fill:none;stroke:#000000;stroke-dasharray:3.000000,5.000000,1.000000,5.000000;stroke-dashoffset:0.0;stroke-width:0.5;"/>
     </g>
     <g id="line2d_22">
      <g>
       <use style="stroke:#000000;stroke-width:0.5;" x="390.857142857" xlink:href="#mc7db9fdffb" y="388.8"/>
      </g>
     </g>
     <g id="line2d_23">
      <g>
       <use style="stroke:#000000;stroke-width:0.5;" x="390.857142857" xlink:href="#m5a7d422ac3" y="43.2"/>
      </g>
     </g>
     <g id="text_6">
      <!-- 500 -->
      <defs>
       <path d="
M10.7969 72.9062
L49.5156 72.9062
L49.5156 64.5938
L19.8281 64.5938
L19.8281 46.7344
Q21.9688 47.4688 24.1094 47.8281
Q26.2656 48.1875 28.4219 48.1875
Q40.625 48.1875 47.75 41.5
Q54.8906 34.8125 54.8906 23.3906
Q54.8906 11.625 47.5625 5.09375
Q40.2344 -1.42188 26.9062 -1.42188
Q22.3125 -1.42188 17.5469 -0.640625
Q12.7969 0.140625 7.71875 1.70312
L7.71875 11.625
Q12.1094 9.23438 16.7969 8.0625
Q21.4844 6.89062 26.7031 6.89062
Q35.1562 6.89062 40.0781 11.3281
Q45.0156 15.7656 45.0156 23.3906
Q45.0156 31 40.0781 35.4375
Q35.1562 39.8906 26.7031 39.8906
Q22.75 39.8906 18.8125 39.0156
Q14.8906 38.1406 10.7969 36.2812
z
" id="DejaVuSans-35"/>
      </defs>
      <g transform="translate(380.266205357 401.918125)scale(0.12 -0.12)">
       <use xlink:href="#DejaVuSans-35"/>
       <use x="63.623046875" xlink:href="#DejaVuSans-30"/>
       <use x="127.24609375" xlink:href="#DejaVuSans-30"/>
      </g>
     </g>
    </g>
    <g id="xtick_7">
     <g id="line2d_24">
      <path clip-path="url(#p7ff5b81e1d)" d="
M454.629 388.8
L454.629 43.2" style="fill:none;stroke:#000000;stroke-dasharray:3.000000,5.000000,1.000000,5.000000;stroke-dashoffset:0.0;stroke-width:0.5;"/>
     </g>
     <g id="line2d_25">
      <g>
       <use style="stroke:#000000;stroke-width:0.5;" x="454.628571429" xlink:href="#mc7db9fdffb" y="388.8"/>
      </g>
     </g>
     <g id="line2d_26">
      <g>
       <use style="stroke:#000000;stroke-width:0.5;" x="454.628571429" xlink:href="#m5a7d422ac3" y="43.2"/>
      </g>
     </g>
     <g id="text_7">
      <!-- 600 -->
      <defs>
       <path d="
M33.0156 40.375
Q26.375 40.375 22.4844 35.8281
Q18.6094 31.2969 18.6094 23.3906
Q18.6094 15.5312 22.4844 10.9531
Q26.375 6.39062 33.0156 6.39062
Q39.6562 6.39062 43.5312 10.9531
Q47.4062 15.5312 47.4062 23.3906
Q47.4062 31.2969 43.5312 35.8281
Q39.6562 40.375 33.0156 40.375
M52.5938 71.2969
L52.5938 62.3125
Q48.875 64.0625 45.0938 64.9844
Q41.3125 65.9219 37.5938 65.9219
Q27.8281 65.9219 22.6719 59.3281
Q17.5312 52.7344 16.7969 39.4062
Q19.6719 43.6562 24.0156 45.9219
Q28.375 48.1875 33.5938 48.1875
Q44.5781 48.1875 50.9531 41.5156
Q57.3281 34.8594 57.3281 23.3906
Q57.3281 12.1562 50.6875 5.35938
Q44.0469 -1.42188 33.0156 -1.42188
Q20.3594 -1.42188 13.6719 8.26562
Q6.98438 17.9688 6.98438 36.375
Q6.98438 53.6562 15.1875 63.9375
Q23.3906 74.2188 37.2031 74.2188
Q40.9219 74.2188 44.7031 73.4844
Q48.4844 72.75 52.5938 71.2969" id="DejaVuSans-36"/>
      </defs>
      <g transform="translate(443.993571429 401.918125)scale(0.12 -0.12)">
       <use xlink:href="#DejaVuSans-36"/>
       <use x="63.623046875" xlink:href="#DejaVuSans-30"/>
       <use x="127.24609375" xlink:href="#DejaVuSans-30"/>
      </g>
     </g>
    </g>
    <g id="xtick_8">
     <g id="line2d_27">
      <path clip-path="url(#p7ff5b81e1d)" d="
M518.4 388.8
L518.4 43.2" style="fill:none;stroke:#000000;stroke-dasharray:3.000000,5.000000,1.000000,5.000000;stroke-dashoffset:0.0;stroke-width:0.5;"/>
     </g>
     <g id="line2d_28">
      <g>
       <use style="stroke:#000000;stroke-width:0.5;" x="518.4" xlink:href="#mc7db9fdffb" y="388.8"/>
      </g>
     </g>
     <g id="line2d_29">
      <g>
       <use style="stroke:#000000;stroke-width:0.5;" x="518.4" xlink:href="#m5a7d422ac3" y="43.2"/>
      </g>
     </g>
     <g id="text_8">
      <!-- 700 -->
      <defs>
       <path d="
M8.20312 72.9062
L55.0781 72.9062
L55.0781 68.7031
L28.6094 0
L18.3125 0
L43.2188 64.5938
L8.20312 64.5938
z
" id="DejaVuSans-37"/>
      </defs>
      <g transform="translate(507.838125 401.918125)scale(0.12 -0.12)">
       <use xlink:href="#DejaVuSans-37"/>
       <use x="63.623046875" xlink:href="#DejaVuSans-30"/>
       <use x="127.24609375" xlink:href="#DejaVuSans-30"/>
      </g>
     </g>
    </g>
    <g id="text_9">
     <!-- Time -->
     <defs>
      <path d="
M56.2031 29.5938
L56.2031 25.2031
L14.8906 25.2031
Q15.4844 15.9219 20.4844 11.0625
Q25.4844 6.20312 34.4219 6.20312
Q39.5938 6.20312 44.4531 7.46875
Q49.3125 8.73438 54.1094 11.2812
L54.1094 2.78125
Q49.2656 0.734375 44.1875 -0.34375
Q39.1094 -1.42188 33.8906 -1.42188
Q20.7969 -1.42188 13.1562 6.1875
Q5.51562 13.8125 5.51562 26.8125
Q5.51562 40.2344 12.7656 48.1094
Q20.0156 56 32.3281 56
Q43.3594 56 49.7812 48.8906
Q56.2031 41.7969 56.2031 29.5938
M47.2188 32.2344
Q47.125 39.5938 43.0938 43.9844
Q39.0625 48.3906 32.4219 48.3906
Q24.9062 48.3906 20.3906 44.1406
Q15.875 39.8906 15.1875 32.1719
z
" id="DejaVuSans-65"/>
      <path d="
M-0.296875 72.9062
L61.375 72.9062
L61.375 64.5938
L35.5 64.5938
L35.5 0
L25.5938 0
L25.5938 64.5938
L-0.296875 64.5938
z
" id="DejaVuSans-54"/>
      <path d="
M52 44.1875
Q55.375 50.25 60.0625 53.125
Q64.75 56 71.0938 56
Q79.6406 56 84.2812 50.0156
Q88.9219 44.0469 88.9219 33.0156
L88.9219 0
L79.8906 0
L79.8906 32.7188
Q79.8906 40.5781 77.0938 44.375
Q74.3125 48.1875 68.6094 48.1875
Q61.625 48.1875 57.5625 43.5469
Q53.5156 38.9219 53.5156 30.9062
L53.5156 0
L44.4844 0
L44.4844 32.7188
Q44.4844 40.625 41.7031 44.4062
Q38.9219 48.1875 33.1094 48.1875
Q26.2188 48.1875 22.1562 43.5312
Q18.1094 38.875 18.1094 30.9062
L18.1094 0
L9.07812 0
L9.07812 54.6875
L18.1094 54.6875
L18.1094 46.1875
Q21.1875 51.2188 25.4844 53.6094
Q29.7812 56 35.6875 56
Q41.6562 56 45.8281 52.9688
Q50 49.9531 52 44.1875" id="DejaVuSans-6d"/>
      <path d="
M9.42188 54.6875
L18.4062 54.6875
L18.4062 0
L9.42188 0
z

M9.42188 75.9844
L18.4062 75.9844
L18.4062 64.5938
L9.42188 64.5938
z
" id="DejaVuSans-69"/>
     </defs>
     <g transform="translate(278.42515625 420.0515625)scale(0.14 -0.14)">
      <use xlink:href="#DejaVuSans-54"/>
      <use x="57.958984375" xlink:href="#DejaVuSans-69"/>
      <use x="85.7421875" xlink:href="#DejaVuSans-6d"/>
      <use x="183.154296875" xlink:href="#DejaVuSans-65"/>
     </g>
    </g>
   </g>
   <g id="matplotlib.axis_2">
    <g id="ytick_1">
     <g id="line2d_30">
      <path clip-path="url(#p7ff5b81e1d)" d="
M72 388.8
L518.4 388.8" style="fill:none;stroke:#000000;stroke-dasharray:3.000000,5.000000,1.000000,5.000000;stroke-dashoffset:0.0;stroke-width:0.5;"/>
     </g>
     <g id="line2d_31">
      <defs>
       <path d="
M0 0
L4 0" id="md7965d1ba0" style="stroke:#000000;stroke-width:0.5;"/>
      </defs>
      <g>
       <use style="stroke:#000000;stroke-width:0.5;" x="72.0" xlink:href="#md7965d1ba0" y="388.8"/>
      </g>
     </g>
     <g id="line2d_32">
      <defs>
       <path d="
M0 0
L-4 0" id="md9a1c1a7cd" style="stroke:#000000;stroke-width:0.5;"/>
      </defs>
      <g>
       <use style="stroke:#000000;stroke-width:0.5;" x="518.4" xlink:href="#md9a1c1a7cd" y="388.8"/>
      </g>
     </g>
     <g id="text_10">
      <!-- 60 -->
      <defs>
       <path d="
M10.5938 35.5
L73.1875 35.5
L73.1875 27.2031
L10.5938 27.2031
z
" id="DejaVuSans-2212"/>
      </defs>
      <g transform="translate(44.7425 392.11125)scale(0.12 -0.12)">
       <use xlink:href="#DejaVuSans-2212"/>
       <use x="83.7890625" xlink:href="#DejaVuSans-36"/>
       <use x="147.412109375" xlink:href="#DejaVuSans-30"/>
      </g>
     </g>
    </g>
    <g id="ytick_2">
     <g id="line2d_33">
      <path clip-path="url(#p7ff5b81e1d)" d="
M72 339.429
L518.4 339.429" style="fill:none;stroke:#000000;stroke-dasharray:3.000000,5.000000,1.000000,5.000000;stroke-dashoffset:0.0;stroke-width:0.5;"/>
     </g>
     <g id="line2d_34">
      <g>
       <use style="stroke:#000000;stroke-width:0.5;" x="72.0" xlink:href="#md7965d1ba0" y="339.428571429"/>
      </g>
     </g>
     <g id="line2d_35">
      <g>
       <use style="stroke:#000000;stroke-width:0.5;" x="518.4" xlink:href="#md9a1c1a7cd" y="339.428571429"/>
      </g>
     </g>
     <g id="text_11">
      <!-- 50 -->
      <g transform="translate(44.7425 342.739821429)scale(0.12 -0.12)">
       <use xlink:href="#DejaVuSans-2212"/>
       <use x="83.7890625" xlink:href="#DejaVuSans-35"/>
       <use x="147.412109375" xlink:href="#DejaVuSans-30"/>
      </g>
     </g>
    </g>
    <g id="ytick_3">
     <g id="line2d_36">
      <path clip-path="url(#p7ff5b81e1d)" d="
M72 290.057
L518.4 290.057" style="fill:none;stroke:#000000;stroke-dasharray:3.000000,5.000000,1.000000,5.000000;stroke-dashoffset:0.0;stroke-width:0.5;"/>
     </g>
     <g id="line2d_37">
      <g>
       <use style="stroke:#000000;stroke-width:0.5;" x="72.0" xlink:href="#md7965d1ba0" y="290.057142857"/>
      </g>
     </g>
     <g id="line2d_38">
      <g>
       <use style="stroke:#000000;stroke-width:0.5;" x="518.4" xlink:href="#md9a1c1a7cd" y="290.057142857"/>
      </g>
     </g>
     <g id="text_12">
      <!-- 40 -->
      <g transform="translate(44.7425 293.368392857)scale(0.12 -0.12)">
       <use xlink:href="#DejaVuSans-2212"/>
       <use x="83.7890625" xlink:href="#DejaVuSans-34"/>
       <use x="147.412109375" xlink:href="#DejaVuSans-30"/>
      </g>
     </g>
    </g>
    <g id="ytick_4">
     <g id="line2d_39">
      <path clip-path="url(#p7ff5b81e1d)" d="
M72 240.686
L518.4 240.686" style="fill:none;stroke:#000000;stroke-dasharray:3.000000,5.000000,1.000000,5.000000;stroke-dashoffset:0.0;stroke-width:0.5;"/>
     </g>
     <g id="line2d_40">
      <g>
       <use style="stroke:#000000;stroke-width:0.5;" x="72.0" xlink:href="#md7965d1ba0" y="240.685714286"/>
      </g>
     </g>
     <g id="line2d_41">
      <g>
       <use style="stroke:#000000;stroke-width:0.5;" x="518.4" xlink:href="#md9a1c1a7cd" y="240.685714286"/>
      </g>
     </g>
     <g id="text_13">
      <!-- 30 -->
      <g transform="translate(44.7425 243.996964286)scale(0.12 -0.12)">
       <use xlink:href="#DejaVuSans-2212"/>
       <use x="83.7890625" xlink:href="#DejaVuSans-33"/>
       <use x="147.412109375" xlink:href="#DejaVuSans-30"/>
      </g>
     </g>
    </g>
    <g id="ytick_5">
     <g id="line2d_42">
      <path clip-path="url(#p7ff5b81e1d)" d="
M72 191.314
L518.4 191.314" style="fill:none;stroke:#000000;stroke-dasharray:3.000000,5.000000,1.000000,5.000000;stroke-dashoffset:0.0;stroke-width:0.5;"/>
     </g>
     <g id="line2d_43">
      <g>
       <use style="stroke:#000000;stroke-width:0.5;" x="72.0" xlink:href="#md7965d1ba0" y="191.314285714"/>
      </g>
     </g>
     <g id="line2d_44">
      <g>
       <use style="stroke:#000000;stroke-width:0.5;" x="518.4" xlink:href="#md9a1c1a7cd" y="191.314285714"/>
      </g>
     </g>
     <g id="text_14">
      <!-- 20 -->
      <g transform="translate(44.7425 194.625535714)scale(0.12 -0.12)">
       <use xlink:href="#DejaVuSans-2212"/>
       <use x="83.7890625" xlink:href="#DejaVuSans-32"/>
       <use x="147.412109375" xlink:href="#DejaVuSans-30"/>
      </g>
     </g>
    </g>
    <g id="ytick_6">
     <g id="line2d_45">
      <path clip-path="url(#p7ff5b81e1d)" d="
M72 141.943
L518.4 141.943" style="fill:none;stroke:#000000;stroke-dasharray:3.000000,5.000000,1.000000,5.000000;stroke-dashoffset:0.0;stroke-width:0.5;"/>
     </g>
     <g id="line2d_46">
      <g>
       <use style="stroke:#000000;stroke-width:0.5;" x="72.0" xlink:href="#md7965d1ba0" y="141.942857143"/>
      </g>
     </g>
     <g id="line2d_47">
      <g>
       <use style="stroke:#000000;stroke-width:0.5;" x="518.4" xlink:href="#md9a1c1a7cd" y="141.942857143"/>
      </g>
     </g>
     <g id="text_15">
      <!-- 10 -->
      <g transform="translate(44.7425 145.254107143)scale(0.12 -0.12)">
       <use xlink:href="#DejaVuSans-2212"/>
       <use x="83.7890625" xlink:href="#DejaVuSans-31"/>
       <use x="147.412109375" xlink:href="#DejaVuSans-30"/>
      </g>
     </g>
    </g>
    <g id="ytick_7">
     <g id="line2d_48">
      <path clip-path="url(#p7ff5b81e1d)" d="
M72 92.5714
L518.4 92.5714" style="fill:none;stroke:#000000;stroke-dasharray:3.000000,5.000000,1.000000,5.000000;stroke-dashoffset:0.0;stroke-width:0.5;"/>
     </g>
     <g id="line2d_49">
      <g>
       <use style="stroke:#000000;stroke-width:0.5;" x="72.0" xlink:href="#md7965d1ba0" y="92.5714285714"/>
      </g>
     </g>
     <g id="line2d_50">
      <g>
       <use style="stroke:#000000;stroke-width:0.5;" x="518.4" xlink:href="#md9a1c1a7cd" y="92.5714285714"/>
      </g>
     </g>
     <g id="text_16">
      <!-- 0 -->
      <g transform="translate(61.953125 95.8826785714)scale(0.12 -0.12)">
       <use xlink:href="#DejaVuSans-30"/>
      </g>
     </g>
    </g>
    <g id="ytick_8">
     <g id="line2d_51">
      <path clip-path="url(#p7ff5b81e1d)" d="
M72 43.2
L518.4 43.2" style="fill:none;stroke:#000000;stroke-dasharray:3.000000,5.000000,1.000000,5.000000;stroke-dashoffset:0.0;stroke-width:0.5;"/>
     </g>
     <g id="line2d_52">
      <g>
       <use style="stroke:#000000;stroke-width:0.5;" x="72.0" xlink:href="#md7965d1ba0" y="43.2"/>
      </g>
     </g>
     <g id="line2d_53">
      <g>
       <use style="stroke:#000000;stroke-width:0.5;" x="518.4" xlink:href="#md9a1c1a7cd" y="43.2"/>
      </g>
     </g>
     <g id="text_17">
      <!-- 10 -->
      <g transform="translate(54.845 46.51125)scale(0.12 -0.12)">
       <use xlink:href="#DejaVuSans-31"/>
       <use x="63.623046875" xlink:href="#DejaVuSans-30"/>
      </g>
     </g>
    </g>
    <g id="text_18">
     <!-- dif_myu_upper_v -->
     <defs>
      <path d="
M2.98438 54.6875
L12.5 54.6875
L29.5938 8.79688
L46.6875 54.6875
L56.2031 54.6875
L35.6875 0
L23.4844 0
z
" id="DejaVuSans-76"/>
      <path d="
M45.4062 46.3906
L45.4062 75.9844
L54.3906 75.9844
L54.3906 0
L45.4062 0
L45.4062 8.20312
Q42.5781 3.32812 38.25 0.953125
Q33.9375 -1.42188 27.875 -1.42188
Q17.9688 -1.42188 11.7344 6.48438
Q5.51562 14.4062 5.51562 27.2969
Q5.51562 40.1875 11.7344 48.0938
Q17.9688 56 27.875 56
Q33.9375 56 38.25 53.625
Q42.5781 51.2656 45.4062 46.3906
M14.7969 27.2969
Q14.7969 17.3906 18.875 11.75
Q22.9531 6.10938 30.0781 6.10938
Q37.2031 6.10938 41.2969 11.75
Q45.4062 17.3906 45.4062 27.2969
Q45.4062 37.2031 41.2969 42.8438
Q37.2031 48.4844 30.0781 48.4844
Q22.9531 48.4844 18.875 42.8438
Q14.7969 37.2031 14.7969 27.2969" id="DejaVuSans-64"/>
      <path d="
M50.9844 -16.6094
L50.9844 -23.5781
L-0.984375 -23.5781
L-0.984375 -16.6094
z
" id="DejaVuSans-5f"/>
      <path d="
M41.1094 46.2969
Q39.5938 47.1719 37.8125 47.5781
Q36.0312 48 33.8906 48
Q26.2656 48 22.1875 43.0469
Q18.1094 38.0938 18.1094 28.8125
L18.1094 0
L9.07812 0
L9.07812 54.6875
L18.1094 54.6875
L18.1094 46.1875
Q20.9531 51.1719 25.4844 53.5781
Q30.0312 56 36.5312 56
Q37.4531 56 38.5781 55.875
Q39.7031 55.7656 41.0625 55.5156
z
" id="DejaVuSans-72"/>
      <path d="
M8.5 21.5781
L8.5 54.6875
L17.4844 54.6875
L17.4844 21.9219
Q17.4844 14.1562 20.5 10.2656
Q23.5312 6.39062 29.5938 6.39062
Q36.8594 6.39062 41.0781 11.0312
Q45.3125 15.6719 45.3125 23.6875
L45.3125 54.6875
L54.2969 54.6875
L54.2969 0
L45.3125 0
L45.3125 8.40625
Q42.0469 3.42188 37.7188 1
Q33.4062 -1.42188 27.6875 -1.42188
Q18.2656 -1.42188 13.375 4.4375
Q8.5 10.2969 8.5 21.5781
M31.1094 56
z
" id="DejaVuSans-75"/>
      <path d="
M37.1094 75.9844
L37.1094 68.5
L28.5156 68.5
Q23.6875 68.5 21.7969 66.5469
Q19.9219 64.5938 19.9219 59.5156
L19.9219 54.6875
L34.7188 54.6875
L34.7188 47.7031
L19.9219 47.7031
L19.9219 0
L10.8906 0
L10.8906 47.7031
L2.29688 47.7031
L2.29688 54.6875
L10.8906 54.6875
L10.8906 58.5
Q10.8906 67.625 15.1406 71.7969
Q19.3906 75.9844 28.6094 75.9844
z
" id="DejaVuSans-66"/>
      <path d="
M18.1094 8.20312
L18.1094 -20.7969
L9.07812 -20.7969
L9.07812 54.6875
L18.1094 54.6875
L18.1094 46.3906
Q20.9531 51.2656 25.2656 53.625
Q29.5938 56 35.5938 56
Q45.5625 56 51.7812 48.0938
Q58.0156 40.1875 58.0156 27.2969
Q58.0156 14.4062 51.7812 6.48438
Q45.5625 -1.42188 35.5938 -1.42188
Q29.5938 -1.42188 25.2656 0.953125
Q20.9531 3.32812 18.1094 8.20312
M48.6875 27.2969
Q48.6875 37.2031 44.6094 42.8438
Q40.5312 48.4844 33.4062 48.4844
Q26.2656 48.4844 22.1875 42.8438
Q18.1094 37.2031 18.1094 27.2969
Q18.1094 17.3906 22.1875 11.75
Q26.2656 6.10938 33.4062 6.10938
Q40.5312 6.10938 44.6094 11.75
Q48.6875 17.3906 48.6875 27.2969" id="DejaVuSans-70"/>
      <path d="
M32.1719 -5.07812
Q28.375 -14.8438 24.75 -17.8125
Q21.1406 -20.7969 15.0938 -20.7969
L7.90625 -20.7969
L7.90625 -13.2812
L13.1875 -13.2812
Q16.8906 -13.2812 18.9375 -11.5156
Q21 -9.76562 23.4844 -3.21875
L25.0938 0.875
L2.98438 54.6875
L12.5 54.6875
L29.5938 11.9219
L46.6875 54.6875
L56.2031 54.6875
z
" id="DejaVuSans-79"/>
     </defs>
     <g transform="translate(36.4415625 274.80765625)rotate(-90.0)scale(0.14 -0.14)">
      <use xlink:href="#DejaVuSans-64"/>
      <use x="63.4765625" xlink:href="#DejaVuSans-69"/>
      <use x="91.259765625" xlink:href="#DejaVuSans-66"/>
      <use x="126.46484375" xlink:href="#DejaVuSans-5f"/>
      <use x="176.46484375" xlink:href="#DejaVuSans-6d"/>
      <use x="273.876953125" xlink:href="#DejaVuSans-79"/>
      <use x="333.056640625" xlink:href="#DejaVuSans-75"/>
      <use x="396.435546875" xlink:href="#DejaVuSans-5f"/>
      <use x="446.435546875" xlink:href="#DejaVuSans-75"/>
      <use x="509.814453125" xlink:href="#DejaVuSans-70"/>
      <use x="573.291015625" xlink:href="#DejaVuSans-70"/>
      <use x="636.767578125" xlink:href="#DejaVuSans-65"/>
      <use x="698.291015625" xlink:href="#DejaVuSans-72"/>
      <use x="739.404296875" xlink:href="#DejaVuSans-5f"/>
      <use x="789.404296875" xlink:href="#DejaVuSans-76"/>
     </g>
    </g>
   </g>
   <g id="text_19">
    <!-- dif_myu_upper_v -->
    <g transform="translate(236.39234375 38.2)scale(0.14 -0.14)">
     <use xlink:href="#DejaVuSans-64"/>
     <use x="63.4765625" xlink:href="#DejaVuSans-69"/>
     <use x="91.259765625" xlink:href="#DejaVuSans-66"/>
     <use x="126.46484375" xlink:href="#DejaVuSans-5f"/>
     <use x="176.46484375" xlink:href="#DejaVuSans-6d"/>
     <use x="273.876953125" xlink:href="#DejaVuSans-79"/>
     <use x="333.056640625" xlink:href="#DejaVuSans-75"/>
     <use x="396.435546875" xlink:href="#DejaVuSans-5f"/>
     <use x="446.435546875" xlink:href="#DejaVuSans-75"/>
     <use x="509.814453125" xlink:href="#DejaVuSans-70"/>
     <use x="573.291015625" xlink:href="#DejaVuSans-70"/>
     <use x="636.767578125" xlink:href="#DejaVuSans-65"/>
     <use x="698.291015625" xlink:href="#DejaVuSans-72"/>
     <use x="739.404296875" xlink:href="#DejaVuSans-5f"/>
     <use x="789.404296875" xlink:href="#DejaVuSans-76"/>
    </g>
   </g>
   <g id="legend_1">
    <g id="patch_7">
     <path d="
M329.6 272.002
L511.2 272.002
L511.2 159.998
L329.6 159.998
z
" style="fill:#ffffff;stroke:#000000;stroke-linejoin:miter;"/>
    </g>
    <g id="line2d_54">
     <path d="
M339.68 171.659
L359.84 171.659" style="fill:none;stroke:#bf00bf;stroke-linecap:square;"/>
    </g>
    <g id="line2d_55"/>
    <g id="text_20">
     <!-- dif_myu_upper_v1 -->
     <g transform="translate(375.68025 176.69925)scale(0.144 -0.144)">
      <use xlink:href="#DejaVuSans-64"/>
      <use x="63.4765625" xlink:href="#DejaVuSans-69"/>
      <use x="91.259765625" xlink:href="#DejaVuSans-66"/>
      <use x="126.46484375" xlink:href="#DejaVuSans-5f"/>
      <use x="176.46484375" xlink:href="#DejaVuSans-6d"/>
      <use x="273.876953125" xlink:href="#DejaVuSans-79"/>
      <use x="333.056640625" xlink:href="#DejaVuSans-75"/>
      <use x="396.435546875" xlink:href="#DejaVuSans-5f"/>
      <use x="446.435546875" xlink:href="#DejaVuSans-75"/>
      <use x="509.814453125" xlink:href="#DejaVuSans-70"/>
      <use x="573.291015625" xlink:href="#DejaVuSans-70"/>
      <use x="636.767578125" xlink:href="#DejaVuSans-65"/>
      <use x="698.291015625" xlink:href="#DejaVuSans-72"/>
      <use x="739.404296875" xlink:href="#DejaVuSans-5f"/>
      <use x="789.404296875" xlink:href="#DejaVuSans-76"/>
      <use x="848.583984375" xlink:href="#DejaVuSans-31"/>
     </g>
    </g>
    <g id="line2d_56">
     <path d="
M339.68 193.196
L359.84 193.196" style="fill:none;stroke:#00bfbf;stroke-linecap:square;"/>
    </g>
    <g id="line2d_57"/>
    <g id="text_21">
     <!-- dif_myu_upper_v2 -->
     <g transform="translate(375.68025 198.23625)scale(0.144 -0.144)">
      <use xlink:href="#DejaVuSans-64"/>
      <use x="63.4765625" xlink:href="#DejaVuSans-69"/>
      <use x="91.259765625" xlink:href="#DejaVuSans-66"/>
      <use x="126.46484375" xlink:href="#DejaVuSans-5f"/>
      <use x="176.46484375" xlink:href="#DejaVuSans-6d"/>
      <use x="273.876953125" xlink:href="#DejaVuSans-79"/>
      <use x="333.056640625" xlink:href="#DejaVuSans-75"/>
      <use x="396.435546875" xlink:href="#DejaVuSans-5f"/>
      <use x="446.435546875" xlink:href="#DejaVuSans-75"/>
      <use x="509.814453125" xlink:href="#DejaVuSans-70"/>
      <use x="573.291015625" xlink:href="#DejaVuSans-70"/>
      <use x="636.767578125" xlink:href="#DejaVuSans-65"/>
      <use x="698.291015625" xlink:href="#DejaVuSans-72"/>
      <use x="739.404296875" xlink:href="#DejaVuSans-5f"/>
      <use x="789.404296875" xlink:href="#DejaVuSans-76"/>
      <use x="848.583984375" xlink:href="#DejaVuSans-32"/>
     </g>
    </g>
    <g id="line2d_58">
     <path d="
M339.68 214.733
L359.84 214.733" style="fill:none;stroke:#ff0000;stroke-linecap:square;"/>
    </g>
    <g id="line2d_59"/>
    <g id="text_22">
     <!-- dif_myu_upper_v3 -->
     <g transform="translate(375.68025 219.77325)scale(0.144 -0.144)">
      <use xlink:href="#DejaVuSans-64"/>
      <use x="63.4765625" xlink:href="#DejaVuSans-69"/>
      <use x="91.259765625" xlink:href="#DejaVuSans-66"/>
      <use x="126.46484375" xlink:href="#DejaVuSans-5f"/>
      <use x="176.46484375" xlink:href="#DejaVuSans-6d"/>
      <use x="273.876953125" xlink:href="#DejaVuSans-79"/>
      <use x="333.056640625" xlink:href="#DejaVuSans-75"/>
      <use x="396.435546875" xlink:href="#DejaVuSans-5f"/>
      <use x="446.435546875" xlink:href="#DejaVuSans-75"/>
      <use x="509.814453125" xlink:href="#DejaVuSans-70"/>
      <use x="573.291015625" xlink:href="#DejaVuSans-70"/>
      <use x="636.767578125" xlink:href="#DejaVuSans-65"/>
      <use x="698.291015625" xlink:href="#DejaVuSans-72"/>
      <use x="739.404296875" xlink:href="#DejaVuSans-5f"/>
      <use x="789.404296875" xlink:href="#DejaVuSans-76"/>
      <use x="848.583984375" xlink:href="#DejaVuSans-33"/>
     </g>
    </g>
    <g id="line2d_60">
     <path d="
M339.68 236.27
L359.84 236.27" style="fill:none;stroke:#008000;stroke-linecap:square;"/>
    </g>
    <g id="line2d_61"/>
    <g id="text_23">
     <!-- dif_myu_upper_v4 -->
     <g transform="translate(375.68025 241.31025)scale(0.144 -0.144)">
      <use xlink:href="#DejaVuSans-64"/>
      <use x="63.4765625" xlink:href="#DejaVuSans-69"/>
      <use x="91.259765625" xlink:href="#DejaVuSans-66"/>
      <use x="126.46484375" xlink:href="#DejaVuSans-5f"/>
      <use x="176.46484375" xlink:href="#DejaVuSans-6d"/>
      <use x="273.876953125" xlink:href="#DejaVuSans-79"/>
      <use x="333.056640625" xlink:href="#DejaVuSans-75"/>
      <use x="396.435546875" xlink:href="#DejaVuSans-5f"/>
      <use x="446.435546875" xlink:href="#DejaVuSans-75"/>
      <use x="509.814453125" xlink:href="#DejaVuSans-70"/>
      <use x="573.291015625" xlink:href="#DejaVuSans-70"/>
      <use x="636.767578125" xlink:href="#DejaVuSans-65"/>
      <use x="698.291015625" xlink:href="#DejaVuSans-72"/>
      <use x="739.404296875" xlink:href="#DejaVuSans-5f"/>
      <use x="789.404296875" xlink:href="#DejaVuSans-76"/>
      <use x="848.583984375" xlink:href="#DejaVuSans-34"/>
     </g>
    </g>
    <g id="line2d_62">
     <path d="
M339.68 257.807
L359.84 257.807" style="fill:none;stroke:#0000ff;stroke-linecap:square;"/>
    </g>
    <g id="line2d_63"/>
    <g id="text_24">
     <!-- dif_myu_upper_v5 -->
     <g transform="translate(375.68025 262.84725)scale(0.144 -0.144)">
      <use xlink:href="#DejaVuSans-64"/>
      <use x="63.4765625" xlink:href="#DejaVuSans-69"/>
      <use x="91.259765625" xlink:href="#DejaVuSans-66"/>
      <use x="126.46484375" xlink:href="#DejaVuSans-5f"/>
      <use x="176.46484375" xlink:href="#DejaVuSans-6d"/>
      <use x="273.876953125" xlink:href="#DejaVuSans-79"/>
      <use x="333.056640625" xlink:href="#DejaVuSans-75"/>
      <use x="396.435546875" xlink:href="#DejaVuSans-5f"/>
      <use x="446.435546875" xlink:href="#DejaVuSans-75"/>
      <use x="509.814453125" xlink:href="#DejaVuSans-70"/>
      <use x="573.291015625" xlink:href="#DejaVuSans-70"/>
      <use x="636.767578125" xlink:href="#DejaVuSans-65"/>
      <use x="698.291015625" xlink:href="#DejaVuSans-72"/>
      <use x="739.404296875" xlink:href="#DejaVuSans-5f"/>
      <use x="789.404296875" xlink:href="#DejaVuSans-76"/>
      <use x="848.583984375" xlink:href="#DejaVuSans-35"/>
     </g>
    </g>
   </g>
  </g>
 </g>
 <defs>
  <clipPath id="p7ff5b81e1d">
   <rect height="345.6" width="446.4" x="72.0" y="43.2"/>
  </clipPath>
 </defs>
</svg>
