<?xml version="1.0" encoding="utf-8" standalone="no"?>
<!DOCTYPE svg PUBLIC "-//W3C//DTD SVG 1.1//EN"
  "http://www.w3.org/Graphics/SVG/1.1/DTD/svg11.dtd">
<!-- Created with matplotlib (http://matplotlib.org/) -->
<svg height="432pt" version="1.1" viewBox="0 0 576 432" width="576pt" xmlns="http://www.w3.org/2000/svg" xmlns:xlink="http://www.w3.org/1999/xlink">
 <defs>
  <style type="text/css">
*{stroke-linecap:butt;stroke-linejoin:round;}
  </style>
 </defs>
 <g id="figure_1">
  <g id="patch_1">
   <path d="
M0 432
L576 432
L576 0
L0 0
z
" style="fill:#ffffff;"/>
  </g>
  <g id="axes_1">
   <g id="patch_2">
    <path d="
M72 388.8
L518.4 388.8
L518.4 43.2
L72 43.2
z
" style="fill:#ffffff;"/>
   </g>
   <g id="line2d_1">
    <path clip-path="url(#p7ff5b81e1d)" d="
M72 259.2
L72 244.08
L72 236.726
L73.6131 233.309
L73.6819 231.405
L74.0586 230.763
L74.1219 231.507
L75.2816 232.911
L75.4205 234.711
L76.0696 238.98
L76.3067 241.284
L76.7255 243.64
L77.5515 250.272
L83.859 256.948
L85.5237 259.331
L85.6895 257.787
L85.8575 258.693
L86.0914 265.626
L86.4106 269.561
L86.6861 279.368
L87.0046 282.97
L87.9385 286.909
L88.3819 291.002
L88.5421 299.098
L88.8319 303.085
L89.7565 308.449
L89.8791 318.333
L90.4257 319.717
L90.8008 321.648
L91.1749 321.201
L91.3234 321.503
L91.4314 322.149
L91.8385 322.538
L92.1339 322.418
L92.4761 322.011
L93.3303 321.451
L93.6389 321.009
L94.2398 320.77
L94.3291 320.519
L94.6672 319.984
L95.118 318.787
L95.5243 318.464
L96.1323 316.336
L96.3814 315.953
L96.5354 315.166
L96.9687 313.936
L97.0385 313.514
L97.5503 313.087
L97.8316 320.779
L98.2304 344.693
L98.4994 349.327
L99.0401 352.807
L99.2571 355.417
L99.9384 357.344
L100.32 359.666
L100.786 360.258
L101.304 360.651
L101.667 360.552
L101.892 359.941
L101.962 359.483
L102.846 357.725
L104.108 357.057
L104.606 356.365
L105.065 354.217
L106.111 352.064
L106.465 350.668
L107.047 349.988
L107.226 349.322
L109.187 348.67
L109.786 348.034
L111.415 347.413
L111.819 346.934
L112.115 346.818
L112.408 347.045
L112.934 347.737
L113.713 349.122
L115.46 355.588
L116.328 360.372
L116.507 365.719
L116.908 371.235
L119.37 376.53
L120.251 385.121
L120.635 386.413
L121.163 385.682
L121.658 384.429
L122.143 382.702
L122.586 380.645
L122.839 370.353
L123.167 365.766
L123.344 359.618
L123.837 357.188
L124.212 351.268
L124.75 349.277
L125.108 348.245
L125.259 348.504
L125.731 350.103
L125.959 349.729
L126.166 348.459
L126.408 347.484
L126.839 342.147
L126.905 340.915
L127.29 338.646
L127.41 337.606
L127.678 336.615
L128.002 333.857
L128.196 332.149
L128.857 329.382
L129.148 328.896
L129.25 328.666
L129.673 328.445
L129.963 327.847
L130.599 327.229
L131.5 326.924
L131.604 326.855
L132.499 326.748
L133.758 326.832
L134.081 327.048
L134.706 327.956
L135.062 328.678
L135.196 328.894
L135.481 329.076
L136.379 329.317
L136.626 334.096
L136.685 333.872
L136.892 330.666
L136.969 329.024
L137.273 326.822
L137.599 326.598
L138.506 324.307
L138.761 324
L138.952 323.986
L139.428 324.397
L140.088 325.775
L140.547 327.658
L141.188 329.111
L141.516 334.672
L141.726 337.26
L141.829 336.686
L142.028 332.055
L142.27 326.753
L143.596 324.758
L146.086 324.107
L153.452 324.082
L154.72 324.429
L156.007 324.953
L156.129 325.161
L156.729 325.384
L158.059 325.619
L158.304 326.616
L158.904 328.571
L159.16 328.863
L159.68 329.086
L160.247 336.88
L160.644 337.383
L160.724 337.165
L161.248 336.343
L161.316 335.011
L161.517 333.271
L161.942 331.233
L162.293 326.563
L162.485 325.935
L162.913 325.684
L163.269 325.06
L163.574 324.703
L164.618 324.01
L166.936 323.97
L168.226 324.328
L168.464 324.629
L168.893 325.003
L169.087 325.213
L170.891 325.437
L170.979 325.672
L171.431 325.978
L172.35 326.325
L172.41 326.703
L172.749 327.103
L172.87 327.51
L173.332 328.28
L175.591 329.075
L176.049 333.645
L176.696 336.544
L177.445 336.81
L177.769 336.402
L180.187 332.191
L181.017 330.14
L181.106 328.407
L182.02 326.372
L182.742 326.187
L183.118 325.971
L183.272 325.487
L183.582 325.275
L183.907 324.707
L184.202 324.256
L184.332 324.137
L188.448 323.823
L189.971 324.036
L190.947 324.27
L191.196 324.582
L191.456 324.765
L193.36 324.964
L193.965 325.177
L194.233 325.403
L194.33 325.656
L195.236 326.713
L196.648 328.988
L196.971 335.188
L197.21 336.101
L197.521 335.543
L198.251 332.953
L198.411 331.123
L199.655 327.531
L199.799 326.147
L201.249 324.076
L201.697 323.795
L201.804 323.74
L203.261 323.697
L204.769 323.939
L206.563 324.51
L207.072 324.698
L209.303 325.118
L210.493 325.348
L210.971 325.627
L211.613 326.704
L211.855 327.873
L212.428 328.214
L212.557 328.504
L213.146 328.883
L213.44 335.469
L213.689 335.374
L213.858 333.509
L214.15 328.251
L214.342 325.927
L214.785 324.65
L214.902 324.471
L215.867 324.015
L216.647 323.894
L218.682 323.703
L218.803 323.636
L220.152 323.607
L220.492 323.846
L221.235 324.107
L221.979 325.951
L222.046 326.319
L222.316 326.71
L222.417 327.109
L223.086 327.5
L225.602 327.866
L226.285 328.193
L226.46 328.465
L227.009 328.672
L231.573 328.802
L232.372 331.382
L232.686 334.592
L232.999 335.008
L233.375 333.907
L233.478 332.632
L233.734 331.009
L233.812 329.144
L234.305 326.143
L234.497 325.903
L234.845 325.727
L234.984 325.256
L235.632 324.641
L236.149 323.844
L237.096 323.494
L238.818 323.507
L239.478 323.661
L240.796 324.046
L241.231 324.396
L241.514 324.809
L242.217 325.296
L242.779 325.616
L243.104 325.966
L243.233 326.341
L243.729 326.734
L244.605 327.13
L245.01 327.512
L245.24 328.176
L245.683 328.803
L245.855 331.527
L246.521 334.514
L247.153 333.138
L247.43 331.784
L247.58 330.121
L248.738 326.699
L249.667 325.929
L250.657 325.731
L251.031 325.536
L251.22 325.065
L251.891 324.468
L253.846 323.824
L254.051 323.699
L256.452 323.429
L258.103 323.372
L259.73 323.498
L261.351 323.841
L261.677 324.165
L262.405 324.353
L269.584 324.774
L269.714 325.003
L270.415 325.615
L270.719 325.97
L271.322 326.349
L271.477 326.742
L272.232 327.132
L272.435 327.504
L273.238 328.371
L273.76 328.535
L274.064 328.943
L274.432 333.159
L274.942 334.378
L275.662 335.128
L276.955 335.573
L277.079 335.825
L278.181 335.929
L278.458 335.827
L279.081 335.039
L279.339 334.175
L279.516 333.659
L280.364 332.488
L280.587 331.844
L280.696 331.168
L280.947 330.467
L281.805 329.744
L282.586 326.727
L283.141 326.008
L283.73 325.756
L283.802 325.509
L284.059 325.227
L284.384 324.358
L284.994 323.77
L285.672 323.18
L286.231 322.888
L286.486 322.6
L287.953 322.045
L288.649 321.782
L288.87 321.296
L290.557 320.706
L290.782 320.431
L290.987 320.352
L292.068 258.957
L292.611 255.423
L292.94 264.925
L293.299 269.589
L294.793 308.252
L295.366 312.647
L296.063 316.863
L297.179 329.456
L297.283 329.651
L297.427 330.734
L297.648 342.916
L298.245 348.662
L298.381 353.369
L298.916 360.314
L300.477 367.723
L301.351 368.501
L302.239 368.328
L302.573 368.134
L302.868 367.831
L302.961 367.482
L303.322 367.093
L303.637 366.41
L306.905 365.547
L307.46 363.414
L308.139 362.201
L309.03 360.888
L310.137 356.644
L310.467 353.692
L310.728 352.21
L311.111 350.735
L311.253 349.272
L311.644 347.826
L312.29 346.4
L312.52 343.621
L313.34 340.951
L314.48 339.659
L316.17 337.161
L316.488 334.776
L316.973 333.625
L317.589 332.5
L318.049 302.439
L318.632 276.964
L318.763 256.054
L319.151 230.84
L321.665 226.914
L322.258 225.717
L322.616 226.214
L322.88 227.184
L323.005 228.504
L323.91 230.039
L324.609 231.703
L324.775 233.459
L325.107 235.3
L326.079 237.233
L326.278 239.274
L326.674 241.439
L329.865 243.742
L330.572 251.572
L331.741 254.49
L332.663 257.549
L332.744 260.735
L333.196 264.028
L333.704 270.85
L334.565 277.812
L335.068 291.233
L335.537 304.576
L335.907 306.492
L336.171 309.353
L336.349 315.223
L336.46 314.791
L336.693 312.756
L336.956 307.058
L337.046 304.28
L337.292 301.766
L337.761 299.513
L337.993 295.527
L338.478 291.751
L339.36 289.826
L340.621 287.862
L341.483 283.876
L341.81 276.429
L342.117 274.82
L346.367 273.34
L346.896 271.996
L347.128 269.706
L347.419 268.751
L348.155 267.913
L348.96 266.001
L349.693 265.532
L350.027 265.131
L350.975 264.79
L351.258 264.256
L352.112 264.048
L354.922 263.872
L357.152 263.192
L359.299 262.867
L360.193 262.616
L364.386 261.964
L365.383 261.483
L369.149 260.355
L373.748 259.993
L373.815 259.957
L381.062 259.439
L406.549 259.185
L495.597 259.2
L495.597 259.2" style="fill:none;stroke:#bf00bf;stroke-linecap:square;"/>
   </g>
   <g id="line2d_2">
    <path clip-path="url(#p7ff5b81e1d)" d="
M72 259.2
L72 237.33
L72 218.427
L73.6736 215.148
L73.7202 213.79
L74.0389 215.549
L74.167 222.836
L75.3771 226.187
L75.9971 232.383
L76.1469 235.288
L76.4806 238.104
L77.0331 238.827
L83.7819 238.859
L84.0282 239.79
L85.5871 241.065
L85.6777 241.92
L85.8117 242.067
L86.033 241.605
L86.2108 241.739
L86.4725 242.18
L86.6372 243.26
L87.2557 244.054
L88.2928 244.436
L88.819 245.768
L89.7392 247.526
L89.8043 248.812
L89.871 248.774
L89.995 248.822
L90.5103 250.598
L90.7902 250.066
L91.5522 244.861
L91.9269 243.565
L92.3846 241.091
L92.7261 240.618
L92.8605 240.14
L93.3226 239.656
L93.3912 239.164
L93.5939 238.664
L94.2325 238.157
L94.4068 237.118
L94.6324 236.588
L95.0649 234.401
L95.5826 233.272
L96.1037 230.368
L96.367 229.776
L96.4975 228.582
L96.7882 227.379
L97.0139 226.167
L97.3823 225.559
L97.8024 219.857
L98.1564 203.912
L98.3306 200.25
L98.5939 197.346
L99.1564 195.052
L99.3382 193.258
L100.026 191.883
L100.417 190.119
L101.228 189.617
L101.296 189.311
L101.74 189.149
L101.944 189.419
L102.033 189.667
L103.007 190.706
L104.263 191.118
L104.698 191.55
L105.002 192.454
L105.233 192.917
L105.921 193.849
L106.411 194.773
L106.528 195.227
L107.131 195.675
L107.371 196.115
L109.391 196.546
L111.481 197.505
L112.203 198.604
L112.657 199.419
L114.237 203.588
L114.548 208.85
L115.536 212.908
L116.452 215.888
L116.615 217.938
L117.02 219.234
L119.523 219.958
L120.227 220.285
L120.327 222.659
L120.717 226.27
L121.219 228.613
L121.786 229.563
L122.414 229.306
L122.643 228.221
L122.713 228.295
L122.809 229.093
L122.936 231.789
L123.214 234.608
L123.311 236.784
L124.011 242.566
L124.264 246.612
L124.729 248.606
L125.504 254.873
L125.787 255.336
L126.504 256.054
L126.69 256.91
L126.891 258.188
L127.474 260.079
L127.801 260.451
L128.133 261.644
L128.252 261.71
L128.565 261.269
L128.905 260.579
L130.728 259.552
L131.975 259.547
L133.278 259.792
L133.418 259.886
L133.981 260.112
L134.582 261.352
L134.886 262.617
L135.553 263.997
L136.364 264.193
L136.679 259.305
L136.868 258.518
L137.161 259.499
L137.237 259.552
L137.648 259.215
L138.438 257.875
L138.811 257.785
L139.068 258.037
L139.996 259.639
L140.203 260.939
L140.758 263.85
L141.175 264.8
L141.257 262.681
L141.57 260.017
L141.786 257.442
L141.95 256.846
L142.015 256.976
L142.243 259.185
L143.543 257.999
L145.34 257.684
L146.55 257.619
L152.513 257.697
L154.832 258.526
L156.726 259.354
L158.048 259.631
L158.294 261.007
L158.482 262.213
L158.761 263.379
L158.955 264.27
L159.244 264.551
L159.735 263.864
L159.812 261.902
L160.097 260.606
L160.198 259.422
L160.636 258.445
L160.701 257.717
L161.299 256.919
L161.367 256.835
L161.999 258.133
L162.092 258.867
L162.283 259.217
L162.475 258.785
L162.979 258.521
L164.227 257.752
L164.509 257.696
L166.427 257.784
L168.058 258.149
L168.823 258.973
L169.145 259.398
L170.957 259.691
L171.138 260.076
L171.521 260.554
L172.396 261.098
L172.479 261.679
L172.843 262.27
L172.956 262.841
L173.321 263.362
L173.448 263.806
L175.273 264.377
L175.686 263.261
L175.839 261.523
L176.383 260.276
L176.464 259.174
L177.212 258.304
L177.556 257.678
L177.966 257.266
L178.48 257.059
L179.351 257.051
L180.256 257.712
L181.836 259.214
L182.168 259.011
L183.176 258.792
L183.35 258.522
L183.714 258.276
L184.405 257.797
L187.522 257.795
L189.294 257.99
L189.45 258.088
L191.013 258.478
L191.121 258.638
L191.436 258.812
L193.313 258.999
L193.425 259.199
L194.125 259.425
L194.588 260.139
L194.743 260.624
L195.307 261.727
L195.698 262.824
L196.148 263.301
L196.308 263.988
L196.627 264.162
L196.938 260.018
L197.267 257.683
L198.078 257.219
L198.364 257.32
L198.55 258.099
L199.714 259.335
L199.874 259.005
L200.709 258.271
L201.188 257.922
L201.846 257.784
L203.445 257.883
L204.013 258.029
L204.932 258.237
L207.537 259.01
L209.268 259.202
L210.944 259.778
L211.029 260.197
L211.496 260.685
L211.816 262.791
L212.387 263.223
L212.536 263.569
L213.087 263.937
L213.484 258.156
L213.914 257.382
L214.043 257.664
L214.257 259.244
L214.655 258.482
L215.013 258.158
L215.973 257.93
L219.935 257.83
L220.208 257.978
L220.461 258.154
L221.11 258.388
L221.36 258.677
L221.896 259.82
L222.095 261.273
L222.366 261.802
L222.913 262.31
L223.144 262.771
L225.725 263.162
L226.409 263.462
L226.522 263.657
L227.131 263.737
L231.628 261.915
L232.464 260.619
L232.609 259.525
L233.175 257.706
L233.593 257.524
L233.803 257.994
L233.928 258.814
L234.161 259.385
L234.373 259.176
L234.901 258.962
L235.103 258.706
L236.557 257.893
L236.847 257.838
L238.434 257.894
L239.612 258.182
L240.962 258.548
L242.346 259.888
L243.073 260.331
L243.216 260.82
L245.068 262.735
L245.134 263.082
L245.643 263.465
L245.797 261.497
L246.493 258.526
L246.656 258.028
L246.994 257.737
L247.493 257.684
L248.215 258.319
L248.403 259.152
L249.174 259.313
L249.837 259.156
L251.092 258.943
L251.184 258.816
L252.213 258.351
L253.944 258.022
L256.29 257.892
L258.076 257.935
L258.192 257.984
L259.893 258.126
L260.75 258.323
L261.589 258.572
L261.769 258.715
L262.506 258.869
L269.541 259.034
L269.831 259.559
L270.391 259.945
L270.53 260.391
L270.823 260.872
L271.392 261.365
L271.589 261.845
L272.368 262.288
L272.555 262.671
L273.301 263.295
L273.869 263.067
L274.349 260.431
L274.499 259.759
L275.108 259.351
L275.821 259.155
L278.04 259.072
L278.981 259.388
L280.056 260.042
L280.651 260.343
L280.805 260.497
L281.884 260.805
L282.509 261.252
L283.06 261.359
L283.191 261.14
L283.787 260.964
L283.86 260.785
L284.267 260.385
L284.362 260.174
L284.692 259.955
L285.066 259.494
L285.463 259.256
L286.195 259.016
L286.414 258.774
L287.237 258.534
L287.579 258.298
L288.747 257.846
L288.954 257.439
L290.615 256.96
L290.832 256.84
L290.922 256.933
L291.506 257.152
L291.621 256.431
L291.976 255.53
L292.139 254.695
L292.784 253.837
L292.874 253.975
L293.247 254.255
L294.064 257.124
L294.371 258.766
L294.66 259.629
L295.088 260.51
L295.917 261.421
L296.349 262.363
L296.68 264.303
L297.38 268.156
L297.638 263.276
L298.334 259.552
L298.464 258.344
L298.859 257.445
L299.029 256.749
L300.381 255.539
L301.343 255.395
L301.631 256.181
L302.755 257.093
L302.932 257.136
L303.041 256.95
L303.56 256.937
L303.977 257.043
L306.965 257.209
L308.28 257.993
L309.147 258.324
L309.477 258.665
L309.998 259.013
L310.721 260.047
L311.094 260.377
L311.327 261.002
L312.392 261.571
L312.696 262.079
L313.091 262.31
L314.45 262.525
L314.566 262.726
L316.46 263.241
L317.061 263.518
L317.645 264.135
L318.568 263.326
L318.854 260.886
L319.671 258.9
L321.76 257.891
L322.221 257.177
L322.351 256.613
L322.987 255.791
L325.231 255.046
L326.387 255.104
L326.99 255.199
L329.919 255.339
L330.466 255.752
L330.626 256.027
L332.385 256.346
L333.061 257.116
L333.263 257.563
L334.082 258.572
L334.151 259.128
L334.664 259.713
L334.878 260.324
L335.521 264.916
L335.629 265.553
L336.009 266.168
L336.108 266.756
L336.523 262.403
L336.805 261.64
L337.105 260.1
L337.813 259.56
L338.183 259.255
L338.447 259.159
L341.012 259
L342.204 259.013
L347.248 259.129
L351.249 259.376
L351.337 259.395
L375.004 259.398
L385.49 259.32
L456.353 259.202
L497.362 259.2
L497.362 259.2" style="fill:none;stroke:#00bfbf;stroke-linecap:square;"/>
   </g>
   <g id="line2d_3">
    <path clip-path="url(#p7ff5b81e1d)" d="
M72 259.2
L72 209.79
L73.6008 184.485
L73.662 146.557
L73.9588 149.496
L74.1035 189.831
L75.2678 207.486
L75.4086 220.244
L75.7334 229.075
L76.2786 238.502
L76.7152 240.454
L77.5217 241.22
L83.8457 241.147
L85.511 240.509
L86.0837 233.228
L86.4009 231.569
L86.6745 227.272
L86.9679 226.046
L88.3718 223.877
L88.5084 222.075
L88.8156 221.291
L89.7452 220.57
L89.8018 220.306
L89.8677 219.188
L90.7046 217.873
L90.7847 217.313
L91.1643 216.613
L92.2161 210.921
L92.278 210.293
L92.4671 209.692
L92.7866 209.116
L92.9288 208.562
L93.3175 208.03
L93.6267 207.022
L94.2304 206.543
L94.2843 206.078
L94.5433 205.625
L95.1004 203.515
L95.4896 203.117
L96.1244 200.865
L96.3732 200.51
L96.5243 199.816
L96.9602 198.817
L97.0164 198.495
L97.5421 198.179
L97.8222 197.767
L98.215 196.454
L98.4881 196.142
L99.2452 195.967
L99.9279 196.096
L101.223 197.608
L101.294 198.136
L101.645 198.691
L101.952 200.401
L102.814 202.025
L104.1 202.528
L104.503 203.008
L105.054 204.305
L106.098 205.394
L106.197 205.715
L106.456 206.015
L107.146 206.563
L109.178 206.811
L109.777 207.044
L111.81 216.647
L112.079 237.816
L112.399 252.812
L112.924 266.218
L114.414 288.684
L116.497 301.856
L116.898 300.069
L119.648 288.674
L120.236 280.068
L122.577 230.381
L122.817 217.819
L123.156 227.679
L123.334 245.615
L123.828 250.295
L124.089 257.227
L124.193 258.326
L124.974 260.876
L125.175 263.206
L125.376 265.515
L125.45 265.562
L125.641 264.326
L126.1 256.417
L126.4 254.849
L126.616 252.579
L127.141 257.227
L127.393 258.147
L128.374 258.921
L128.777 258.828
L129.237 258.723
L130.591 258.764
L131.593 258.984
L133.152 259.447
L133.33 259.56
L133.888 259.801
L134.208 260.313
L134.398 260.751
L135.049 266.685
L135.188 266.895
L135.473 266.7
L135.979 266.103
L136.298 265.135
L136.621 256.203
L136.881 248.913
L137.265 254.757
L137.589 255.97
L137.862 257.855
L138.057 258.144
L138.621 258.425
L138.934 258.866
L139.494 259.739
L139.776 260.087
L139.938 260.447
L140.013 260.746
L140.473 267.62
L140.536 268.698
L140.694 269.321
L140.898 269.428
L141.037 269
L141.414 264.784
L141.646 256.903
L141.955 246.06
L142.017 245.335
L142.261 254.049
L142.761 257.438
L143.588 258.187
L146.039 258.457
L151.441 258.6
L152.403 258.782
L152.532 258.889
L154.253 259.568
L155.994 260.242
L156.115 260.418
L158.052 261.031
L158.226 263.503
L158.473 268.083
L158.788 269.508
L158.895 269.449
L159.663 267.748
L159.858 264.138
L160.135 261.692
L160.235 258.883
L160.618 255.834
L160.716 252.742
L161.238 249.821
L161.301 247.291
L161.505 245.351
L161.933 246.357
L162.219 252.752
L162.466 257.186
L163.556 258.232
L166.663 258.953
L167.182 259.199
L167.969 259.336
L168.455 259.954
L168.885 260.292
L169.079 260.464
L170.881 260.635
L170.969 261.233
L171.423 262.42
L172.338 263.953
L172.401 265.572
L173.318 269.316
L174.41 269.077
L175.116 268.32
L175.581 267.084
L175.731 265.401
L176.387 260.816
L176.687 258.014
L177.437 255.029
L177.76 252.053
L178.882 246.977
L180.176 245.276
L181.087 251.121
L181.826 253.526
L182.005 255.116
L183.096 256.885
L183.248 257.674
L183.639 258.032
L183.894 258.21
L184.255 258.426
L186.315 258.618
L188.535 258.998
L189.962 259.38
L190.797 259.524
L191.433 260.155
L193.955 260.489
L194.222 260.762
L194.286 261.543
L194.982 264.389
L195.581 268.323
L195.859 268.915
L196.179 269.016
L196.247 268.608
L196.552 267.71
L196.959 259.997
L197.198 254.357
L197.51 251.522
L197.615 248.945
L198.243 246.831
L198.402 245.662
L199.05 248.603
L199.621 252.095
L199.91 256.461
L200.074 257.084
L200.463 257.772
L200.712 258.178
L201.184 258.405
L201.685 258.581
L201.791 258.654
L204.54 259.285
L205.338 259.712
L207.062 260.185
L209.295 260.51
L210.957 261.921
L211.604 266.266
L211.729 268.336
L211.847 268.746
L212.416 268.671
L213.134 265.644
L213.945 246.751
L214.065 246.631
L214.389 256.668
L214.65 258.009
L214.893 258.21
L215.848 258.38
L219.606 258.688
L219.986 258.866
L220.479 259.464
L221.227 259.754
L221.356 260.062
L221.707 260.538
L221.835 261.145
L222.04 265.254
L222.408 267.699
L223.077 268.387
L226.249 268.372
L226.45 267.65
L226.996 266.492
L231.562 264.958
L232.36 263.076
L232.619 258.437
L232.988 255.788
L233.074 253.094
L233.366 250.533
L233.47 248.303
L233.724 246.59
L234.292 253.373
L234.483 255.018
L234.837 256.127
L234.975 257.36
L235.623 258.058
L236.055 258.355
L236.378 258.457
L238.479 259.009
L239.469 259.372
L240.787 259.796
L241.3 260.257
L241.772 260.723
L242.769 262.76
L243.087 264.202
L243.207 265.628
L243.715 266.867
L245.064 268.369
L245.225 267.963
L245.521 265.846
L245.846 262.322
L246.24 260.129
L246.739 252.538
L247.419 248.067
L247.571 246.554
L248.26 248.515
L248.727 251.775
L249.657 253.992
L250.643 255.446
L251.021 256.418
L251.205 257.497
L251.366 257.784
L251.842 258.112
L257.724 258.758
L258.091 259.048
L260.159 259.411
L261.485 259.831
L269.568 260.434
L270.398 263.164
L270.662 264.584
L271.287 265.927
L271.468 267.039
L271.92 267.809
L272.425 268.164
L272.751 268.07
L273.116 266.551
L273.696 265.205
L274.419 261.643
L276.945 262.414
L277.062 262.589
L277.922 262.593
L278.437 262.166
L279.494 259.624
L280.354 258.88
L280.932 258.037
L281.758 257.828
L282.394 257.391
L282.578 257.3
L284.047 257.023
L284.375 256.517
L284.984 255.995
L285.662 255.41
L286.22 255.119
L286.478 254.842
L288.585 254.17
L288.848 253.919
L289.306 253.868
L290.526 253.936
L290.73 254.255
L291.299 257.471
L291.775 258.581
L292.059 258.824
L292.676 259.122
L293.582 259.525
L293.785 259.84
L294.591 263.523
L295.357 265.591
L296.054 266.664
L296.378 267.891
L296.597 269.202
L296.934 270.536
L297.171 273.798
L297.419 278.511
L297.633 282.888
L298.363 284.737
L298.722 284.386
L298.908 283.259
L299.453 281.519
L300.293 276.933
L300.467 274.403
L301.191 271.872
L302.231 269.396
L302.859 264.724
L302.953 262.682
L303.629 259.381
L306.894 258.084
L307.45 256.024
L308.052 255.227
L309.021 254.565
L309.412 254.022
L310.129 253.237
L310.388 252.784
L311.232 252.568
L312.405 252.726
L312.492 252.832
L314.471 253.239
L316.161 253.549
L316.475 253.866
L318.04 254.395
L318.619 254.723
L318.752 255.141
L319.116 255.862
L321.609 255.904
L322.093 255.699
L322.226 255.304
L322.607 254.787
L322.868 254.226
L322.983 253.687
L324.586 252.84
L324.759 252.578
L325.017 252.438
L326.269 252.515
L326.641 252.72
L330.109 253.415
L330.408 253.885
L332.637 255.677
L332.739 256.377
L333.169 257.119
L333.694 258.707
L334.555 260.397
L334.947 263.03
L335.529 268.029
L335.867 268.746
L336.451 270.825
L336.682 270.538
L336.845 269.938
L337.274 266.669
L337.751 265.301
L337.951 262.564
L338.469 260.16
L339.328 259.159
L340.61 258.306
L341.539 256.608
L341.667 256.079
L341.802 255.953
L342.104 255.9
L346.886 255.966
L347.41 256.338
L348.469 256.677
L348.605 256.855
L348.952 257.034
L350.958 257.542
L351.247 257.835
L352.107 257.964
L355.325 258.186
L358.726 258.641
L361.902 258.699
L372.723 258.791
L407.95 259.167
L494.115 259.2
L494.115 259.2" style="fill:none;stroke:#ff0000;stroke-linecap:square;"/>
   </g>
   <g id="line2d_4">
    <path clip-path="url(#p7ff5b81e1d)" d="
M72 259.2
L72 161.804
L72 161.804
L72 161.804
L72 180.438
L73.6365 186.139
L73.6957 192.491
L74.0811 201.453
L74.1557 206.125
L74.8501 210.976
L75.4049 215.839
L76.0517 225.015
L76.2464 229.214
L76.7179 233.162
L77.5252 234.662
L83.8652 234.402
L85.5317 233.691
L85.6153 233.188
L85.7054 233.353
L86.1193 234.844
L86.4426 234.836
L86.6886 234.424
L88.3394 234.046
L88.646 233.498
L88.8586 233.921
L89.9022 232.629
L90.4899 232.404
L90.9468 232.387
L91.4701 233.104
L91.7495 232.997
L92.0909 232.364
L92.504 231.038
L92.827 230.653
L92.9601 230.249
L93.3631 229.827
L93.6677 228.937
L94.2622 228.469
L94.354 227.987
L94.6974 226.98
L95.1396 224.814
L95.546 224.243
L95.9579 221.229
L96.4045 219.957
L96.5561 218.651
L96.8435 217.314
L97.0762 215.949
L97.5809 211.004
L97.8775 204.857
L98.1106 194.983
L98.2861 191.865
L98.553 189.74
L99.0834 188.26
L99.2964 187.216
L99.9703 186.492
L100.376 185.704
L101.259 185.478
L101.814 185.729
L102.273 186.363
L102.965 186.895
L104.167 187.179
L104.646 187.471
L105.119 188.367
L105.868 188.963
L106.379 189.546
L106.508 189.831
L107.077 190.11
L107.328 190.383
L109.334 190.65
L109.854 190.911
L111.455 191.583
L112.142 194.031
L112.584 195.539
L112.978 197.325
L115.49 203.826
L116.394 205.703
L116.575 207.265
L116.969 208.522
L119.492 209.524
L119.942 210.335
L120.664 209.382
L121.204 209.951
L121.733 211.1
L122.367 212.843
L122.684 216.511
L123.374 229.471
L123.866 231.586
L124.238 237.588
L124.7 239.669
L125.404 246.529
L125.677 247.627
L125.985 248.322
L126.195 248.741
L126.551 249.24
L126.661 249.537
L126.927 251.091
L127.209 251.482
L127.477 252.103
L127.848 252.557
L128.096 253.018
L128.222 252.992
L128.476 252.322
L128.881 251.016
L129.171 250.596
L129.27 250.39
L129.699 250.189
L130.181 249.45
L130.641 248.999
L131.535 248.673
L131.643 248.597
L132.567 248.48
L133.385 248.541
L133.954 248.684
L134.525 249.76
L135.516 252.808
L136.335 253.233
L136.709 248.791
L136.844 248.591
L136.916 248.642
L136.993 249.198
L137.197 249.287
L137.295 249.039
L137.637 248.791
L138.094 247.285
L139.047 245.931
L139.455 246.252
L140.054 247.566
L140.729 251.893
L141.155 253.371
L141.221 251.91
L141.539 249.397
L141.749 247.427
L141.986 247.096
L142.215 248.693
L142.306 248.546
L142.605 248.032
L142.725 247.785
L143.118 247.352
L143.383 246.959
L143.631 246.6
L144.759 246.281
L145.735 246.012
L146.127 245.901
L151.504 245.732
L153.253 245.691
L154.741 246.118
L155.6 246.495
L156.041 246.723
L156.153 246.977
L157.836 247.256
L158.098 247.609
L158.431 250.001
L158.525 250.731
L158.737 251.449
L158.927 252.705
L159.189 253.183
L159.708 252.875
L159.894 250.135
L160.272 248.288
L160.681 247.764
L160.748 247.425
L161.544 247.183
L161.966 247.765
L162.076 248.411
L162.252 248.654
L162.597 247.669
L162.945 247.452
L163.191 247.05
L164.202 246.071
L164.469 245.849
L167.261 245.712
L168.148 245.893
L168.924 246.815
L169.118 247.076
L170.927 247.361
L171.017 247.754
L171.482 248.25
L172.371 248.84
L172.448 249.504
L172.772 250.212
L172.913 250.932
L173.417 252.265
L175.276 253.243
L175.642 252.594
L175.787 251.199
L176.432 249.053
L177.181 248.341
L177.805 247.564
L178.399 247.382
L179.126 247.315
L180.221 247.356
L181.047 248.129
L181.139 248.574
L181.88 248.501
L182.072 248.248
L182.804 247.993
L183.138 247.746
L183.31 247.312
L183.606 247.111
L183.996 246.395
L184.227 246.099
L184.367 245.971
L188.583 245.594
L190.852 245.892
L191.524 246.612
L193.398 246.857
L194.106 247.125
L195.283 249.664
L196.606 253.231
L197.122 248.388
L197.275 247.959
L197.589 247.674
L197.941 247.506
L198.33 247.445
L198.466 247.546
L199.114 248.353
L199.684 248.545
L199.957 247.802
L200.499 247.148
L200.88 246.414
L201.831 245.59
L202.863 245.517
L203.932 245.58
L204.806 245.749
L205.461 246.022
L207.115 246.628
L208.542 246.88
L210.533 247.506
L211.004 247.962
L211.642 249.808
L211.888 251.829
L212.48 252.394
L212.597 252.856
L212.984 253.193
L213.17 252.174
L213.468 248.423
L214 247.548
L214.103 247.811
L214.174 248.451
L214.238 248.36
L214.697 246.783
L214.962 246.424
L215.568 246.104
L215.923 245.961
L220.183 245.467
L220.522 245.713
L221.082 245.847
L221.338 246.194
L221.518 246.642
L221.76 247.186
L221.935 248.065
L222.07 249.28
L222.369 249.963
L222.441 250.655
L223.118 251.324
L225.631 251.938
L226.376 252.468
L226.489 252.889
L227.085 253.181
L231.602 251.944
L232.425 250.782
L232.541 249.759
L233.121 248.071
L233.77 247.625
L233.836 248.06
L234.118 248.455
L235.283 247.009
L235.399 246.812
L235.778 246.443
L236.266 245.824
L237.159 245.435
L238.849 245.408
L239.517 245.568
L240.841 246.003
L241.261 246.421
L241.538 246.936
L242.811 248.196
L243.138 248.79
L243.256 249.441
L243.756 250.123
L244.754 250.802
L245.046 251.449
L245.103 252.031
L245.455 252.901
L245.61 253.102
L245.878 250.639
L246.298 249.661
L246.421 248.932
L246.819 248.117
L247.463 247.748
L247.675 247.7
L248.32 248.286
L248.788 248.28
L250.701 247.759
L251.063 247.511
L251.286 247.072
L251.93 246.493
L253.878 245.85
L254.084 245.719
L256.478 245.421
L258.18 245.325
L259.858 245.453
L261.389 245.836
L261.726 246.22
L262.475 246.449
L267.07 246.701
L269.631 246.976
L269.761 247.333
L270.45 248.32
L270.795 248.928
L271.389 249.584
L271.532 250.259
L272.305 250.922
L272.964 252.545
L273.303 252.88
L273.803 252.906
L274.462 250.104
L275.05 249.791
L275.766 249.739
L276.987 249.812
L277.182 249.948
L278.004 250.12
L279.545 251.482
L280.617 251.844
L280.973 252.031
L282.211 252.233
L282.614 252.288
L283.754 251.757
L283.834 251.467
L284.192 250.866
L284.408 250.221
L285.038 249.523
L285.71 248.778
L286.254 248.391
L286.562 247.999
L287.442 247.604
L288.677 246.819
L288.912 246.063
L289.722 245.707
L290.667 244.771
L290.902 244.406
L291.486 244.421
L291.587 244.902
L291.962 245.425
L292.091 246
L292.529 246.506
L292.963 247.657
L293.644 248.03
L293.965 248.333
L295.4 249.897
L296.098 250.355
L296.427 250.877
L296.979 252.111
L297.32 256.351
L297.468 255.759
L297.676 252.988
L298.427 251.914
L298.757 251.925
L298.971 252.089
L299.664 252.349
L299.833 252.669
L300.336 253.027
L301.123 253.396
L301.589 253.348
L302.273 253.796
L302.609 254.189
L302.894 254.724
L303.008 255.292
L303.662 256.131
L306.929 256.525
L307.505 257.259
L309.945 258.364
L310.755 259.069
L311.844 259.342
L313.371 259.379
L316.22 259.195
L316.516 259.004
L317.615 258.768
L318.107 258.439
L318.66 258.595
L319.072 260.679
L319.252 261.117
L322.302 261.284
L322.923 260.909
L323.028 260.636
L324.681 259.987
L324.808 259.639
L325.137 259.288
L326.178 258.945
L326.356 258.615
L326.734 258.304
L329.895 258.015
L330.601 257.317
L334.119 256.864
L334.768 257.07
L335.021 257.431
L335.237 258.252
L335.601 259.376
L335.973 259.809
L336.08 260.267
L336.504 256.607
L336.715 256.302
L336.897 256.251
L338.526 258.163
L341.514 258.948
L341.712 259.478
L341.865 259.642
L342.174 259.799
L346.43 259.947
L347.066 260.209
L347.468 260.425
L352.19 260.892
L359.556 260.805
L368.41 260.39
L370.461 260.292
L375.146 260.148
L376.406 260.087
L394.863 259.439
L407.551 259.301
L422.555 259.232
L497.081 259.201
L497.081 259.201" style="fill:none;stroke:#008000;stroke-linecap:square;"/>
   </g>
   <g id="line2d_5">
    <path clip-path="url(#p7ff5b81e1d)" d="
M72 259.2
L72 96.1779
L72 96.1779
L72 96.1779
L72 124.743
L73.6682 139.857
L73.7293 143.018
L74.0018 145.268
L74.1389 120.161
L75.3029 108.035
L75.5968 99.2598
L75.9947 93.1179
L76.0915 88.995
L76.5447 86.3987
L76.9506 84.9431
L83.9978 84.2943
L85.5554 84.6847
L86.0408 88.8356
L86.3522 89.9953
L86.6392 93.1122
L87.2004 94.9667
L88.249 95.8274
L88.7797 98.1967
L89.7082 98.9493
L89.9594 102.05
L90.453 103.064
L90.9954 105.665
L91.3447 108.773
L91.4473 110.351
L91.7316 111.951
L92.1956 118.419
L92.2419 120.04
L92.3999 121.663
L93.2686 126.542
L93.5442 129.811
L94.1941 131.453
L94.415 134.753
L94.6358 136.412
L95.0772 143.1
L95.5516 146.473
L95.8871 153.257
L96.4296 158.356
L96.7276 163.444
L96.9857 166.819
L97.757 170.175
L97.9952 173.19
L98.2488 175.237
L98.521 175.851
L99.2812 176.389
L100.056 176.384
L100.171 176.239
L100.523 175.983
L101.195 175.641
L101.257 175.234
L101.614 174.781
L101.949 173.28
L102.196 172.765
L102.306 172.255
L102.696 171.754
L102.867 171.265
L104.126 170.792
L104.643 170.335
L105.242 169.075
L105.927 168.328
L106.486 167.339
L107.071 167.042
L107.25 166.761
L109.421 166.493
L110.26 166.239
L111.489 168.594
L111.94 175.824
L112.429 194.17
L113.05 203.989
L114.272 213.495
L114.441 222.537
L115.548 230.939
L116.345 238.471
L116.928 250.24
L119.534 254.256
L120.148 256.969
L120.269 258.411
L120.659 258.47
L121.188 257.334
L121.795 255.401
L122.27 252.936
L122.608 250.205
L122.86 242.597
L123.187 240.501
L123.253 238.235
L123.529 237.144
L123.956 236.712
L124.114 237.877
L124.229 238.847
L124.557 240.005
L124.774 242.727
L125.06 249.023
L125.516 256.869
L125.821 258.564
L125.982 258.473
L126.067 258.218
L126.351 257.835
L126.861 255.275
L127.348 254.027
L127.434 253.732
L127.835 253.236
L128.402 252.138
L129.2 249.791
L129.622 249.449
L130.313 247.492
L130.739 247.019
L131.689 246.655
L132.882 247.077
L133.089 247.378
L133.183 247.765
L133.62 248.241
L133.853 248.81
L134.142 251.079
L134.265 253.058
L134.516 255.319
L135.214 261.702
L135.505 262.412
L136.399 263.443
L136.457 263.348
L136.67 261.608
L136.911 257.554
L137.125 256.56
L137.24 255.447
L137.56 254.481
L137.962 250.176
L138.276 247.672
L138.911 244.287
L139.029 244.391
L139.418 245.385
L139.521 246.666
L139.754 247.5
L139.999 250.792
L140.261 256.559
L140.47 258.051
L140.571 260.86
L140.925 263.152
L141.124 264.007
L141.148 264.63
L141.481 265.044
L141.605 264.061
L142.083 256.336
L142.213 253.476
L142.504 251.384
L142.733 249.761
L143.148 248.368
L143.372 247.096
L143.449 246.498
L144.041 245.925
L144.347 245.381
L145.083 244.872
L145.774 243.98
L146.504 243.611
L151.183 243.304
L151.485 243.067
L152.753 242.848
L153.075 242.964
L153.312 243.185
L153.476 243.518
L153.953 243.968
L155.593 247.006
L156.678 249.292
L156.75 250.625
L158.145 252.071
L158.254 255.12
L158.453 258.19
L158.677 259.653
L158.929 263.25
L159.246 264.058
L159.827 264.903
L160.064 264.831
L160.2 264.396
L160.59 263.638
L160.684 262.597
L161.306 259.944
L161.336 258.503
L161.537 257.105
L162.006 255.744
L162.06 254.27
L162.313 251.864
L162.445 250.132
L162.807 249.392
L163.595 245.719
L164.237 244.302
L164.459 243.592
L164.635 243.329
L166.693 243.062
L168.018 243.875
L168.18 244.37
L168.35 245.719
L168.828 247.562
L169.105 249.901
L170.908 251.253
L170.996 252.705
L171.449 254.194
L172.367 255.704
L172.428 257.212
L172.766 258.685
L172.894 260.084
L173.454 262.492
L174.636 263.425
L175.769 264.782
L176.34 264.61
L176.715 263.276
L177.567 262.195
L178.416 259.544
L179.27 258.144
L180.26 256.811
L181.051 255.486
L181.79 253.996
L181.942 252.801
L182.242 251.807
L183.071 250.944
L183.307 248.805
L183.603 248.176
L183.746 246.998
L183.933 246.448
L184.067 245.437
L184.352 244.579
L186.189 243.924
L187.08 243.53
L187.461 243.448
L188.567 243.55
L189.224 243.746
L189.356 244.047
L190.828 244.981
L191.366 247.263
L193.351 248.265
L193.383 249.388
L194.131 250.63
L194.249 251.984
L195.015 256.339
L195.703 260.526
L196.118 261.722
L196.273 263.589
L196.837 264.658
L196.99 263.824
L197.541 260.583
L198.036 259.23
L198.437 256.6
L199.355 255.292
L199.674 253.847
L199.946 251.01
L200.319 250.277
L200.652 247.766
L201.823 244.081
L203.401 243.929
L203.9 244.282
L204.715 244.612
L205.199 245.6
L205.895 246.265
L206.36 247.048
L206.586 247.948
L207.499 248.967
L209.234 250.102
L210.151 251.354
L210.909 252.704
L211.033 254.104
L211.472 255.525
L211.63 258.352
L211.825 260.939
L212.371 262.049
L212.464 262.988
L213.234 264.523
L213.56 262.65
L213.743 261.53
L214.486 250.34
L214.807 247.892
L215.116 247.349
L215.462 246.346
L216.665 245.486
L218.561 245.124
L218.707 244.816
L219.05 244.568
L220.108 244.326
L220.471 245.101
L220.987 245.57
L221.725 250.767
L221.75 252.033
L221.9 253.384
L222.093 257.541
L222.347 258.895
L222.882 260.177
L223.107 261.351
L225.734 262.38
L226.307 263.232
L226.485 263.881
L227.136 264.309
L231.592 264.505
L232.394 264.408
L233.021 262.348
L233.11 261.204
L233.399 259.944
L233.496 258.647
L233.752 257.394
L234.122 254.81
L234.378 253.6
L234.867 251.782
L235.002 250.347
L235.262 249.705
L235.386 249.097
L235.654 248.516
L236.167 246.028
L236.916 245.015
L237.987 244.568
L238.509 244.671
L239.403 245.15
L239.496 245.543
L239.938 246.042
L240.764 246.652
L240.972 247.374
L241.044 248.21
L241.253 249.159
L241.338 250.22
L241.701 251.393
L241.907 252.666
L243.024 255.355
L243.225 256.717
L243.656 258.065
L244.531 259.366
L244.632 260.585
L245.029 261.684
L245.259 263.398
L245.55 264.301
L245.717 264.416
L246.002 264.239
L246.281 263.763
L246.461 263.014
L246.54 262.031
L247 260.878
L247.369 259.633
L247.502 258.372
L248.165 257.175
L248.422 255.96
L249.19 254.61
L249.686 253.511
L250.939 252.593
L251.273 250.42
L251.587 249.8
L251.694 249.21
L252.565 248.108
L253.601 247.596
L253.864 246.663
L254.588 246.252
L254.799 245.886
L257.493 245.311
L257.934 244.945
L258.129 245.105
L259.547 245.324
L259.75 245.641
L260.555 246.06
L260.757 246.585
L261.459 247.219
L261.698 248.816
L262.478 249.781
L269.546 250.855
L269.608 252.037
L269.842 253.307
L270.305 254.613
L270.748 257.261
L271.347 258.561
L271.517 259.804
L272.255 260.954
L272.461 261.978
L273.259 264.002
L274.278 264.346
L274.967 264.367
L276.973 264.212
L277.116 264.086
L278.049 263.931
L278.654 263.293
L278.983 263.028
L279.985 261.488
L280.611 260.855
L280.723 260.55
L281.826 259.977
L282.001 259.712
L283.158 258.827
L283.757 258.636
L283.82 258.443
L284.079 258.243
L284.36 257.807
L284.699 257.57
L285.069 257.064
L285.334 256.798
L286.123 256.526
L286.354 256.252
L287.225 255.979
L287.502 255.712
L288.67 255.213
L288.889 254.79
L291.515 254.29
L291.582 254.407
L292.569 254.985
L292.897 255.462
L293.291 255.671
L293.969 257.88
L294.666 260.16
L295.09 261.009
L295.834 261.896
L296.357 262.87
L296.408 263.9
L297.01 266.094
L297.602 274.553
L298.338 277.275
L298.404 278.154
L298.823 278.696
L299.221 278.922
L299.726 278.855
L300.153 278.522
L300.782 277.175
L301.529 276.225
L302.264 275.051
L302.712 273.803
L303.056 271.201
L303.936 268.603
L306.933 267.32
L307.48 264.877
L308.587 263.74
L310.16 259.855
L310.487 258.343
L311.057 257.692
L311.238 257.109
L311.274 256.59
L311.731 256.133
L312.333 255.733
L312.444 255.387
L313.007 254.841
L314.414 254.633
L314.57 254.463
L317.688 254.061
L318.514 254.176
L318.861 254.584
L319.067 254.677
L319.509 254.69
L321.772 254.621
L322.153 254.484
L322.651 254.08
L322.963 253.84
L324.418 253.347
L324.632 253.12
L325.125 252.757
L326.967 252.555
L330.143 252.698
L330.437 252.859
L330.592 253.081
L332.307 253.362
L333.065 254.1
L333.446 255.061
L334.03 255.619
L334.584 256.876
L334.822 257.567
L335.235 261.473
L335.484 263.145
L335.563 263.981
L335.939 264.807
L336.246 266.405
L336.41 267.627
L336.818 268.244
L336.919 268.3
L337.11 267.936
L337.62 267.55
L337.816 267.058
L338.01 265.846
L338.429 265.17
L339.147 264.475
L339.655 263.778
L340.971 263.093
L341.429 262.431
L341.831 259.725
L342.362 259.327
L346.782 258.978
L347.15 258.206
L349.332 257.656
L351.283 257.665
L355.397 257.791
L363.635 258.429
L395.048 259.086
L495.742 259.2
L495.742 259.2" style="fill:none;stroke:#0000ff;stroke-linecap:square;"/>
   </g>
   <g id="patch_3">
    <path d="
M518.4 388.8
L518.4 43.2" style="fill:none;stroke:#000000;stroke-linecap:square;stroke-linejoin:miter;"/>
   </g>
   <g id="patch_4">
    <path d="
M72 388.8
L518.4 388.8" style="fill:none;stroke:#000000;stroke-linecap:square;stroke-linejoin:miter;"/>
   </g>
   <g id="patch_5">
    <path d="
M72 43.2
L518.4 43.2" style="fill:none;stroke:#000000;stroke-linecap:square;stroke-linejoin:miter;"/>
   </g>
   <g id="patch_6">
    <path d="
M72 388.8
L72 43.2" style="fill:none;stroke:#000000;stroke-linecap:square;stroke-linejoin:miter;"/>
   </g>
   <g id="matplotlib.axis_1">
    <g id="xtick_1">
     <g id="line2d_6">
      <path clip-path="url(#p7ff5b81e1d)" d="
M72 388.8
L72 43.2" style="fill:none;stroke:#000000;stroke-dasharray:3.000000,5.000000,1.000000,5.000000;stroke-dashoffset:0.0;stroke-width:0.5;"/>
     </g>
     <g id="line2d_7">
      <defs>
       <path d="
M0 0
L0 -4" id="mc7db9fdffb" style="stroke:#000000;stroke-width:0.5;"/>
      </defs>
      <g>
       <use style="stroke:#000000;stroke-width:0.5;" x="72.0" xlink:href="#mc7db9fdffb" y="388.8"/>
      </g>
     </g>
     <g id="line2d_8">
      <defs>
       <path d="
M0 0
L0 4" id="m5a7d422ac3" style="stroke:#000000;stroke-width:0.5;"/>
      </defs>
      <g>
       <use style="stroke:#000000;stroke-width:0.5;" x="72.0" xlink:href="#m5a7d422ac3" y="43.2"/>
      </g>
     </g>
     <g id="text_1">
      <!-- 0 -->
      <defs>
       <path d="
M31.7812 66.4062
Q24.1719 66.4062 20.3281 58.9062
Q16.5 51.4219 16.5 36.375
Q16.5 21.3906 20.3281 13.8906
Q24.1719 6.39062 31.7812 6.39062
Q39.4531 6.39062 43.2812 13.8906
Q47.125 21.3906 47.125 36.375
Q47.125 51.4219 43.2812 58.9062
Q39.4531 66.4062 31.7812 66.4062
M31.7812 74.2188
Q44.0469 74.2188 50.5156 64.5156
Q56.9844 54.8281 56.9844 36.375
Q56.9844 17.9688 50.5156 8.26562
Q44.0469 -1.42188 31.7812 -1.42188
Q19.5312 -1.42188 13.0625 8.26562
Q6.59375 17.9688 6.59375 36.375
Q6.59375 54.8281 13.0625 64.5156
Q19.5312 74.2188 31.7812 74.2188" id="DejaVuSans-30"/>
      </defs>
      <g transform="translate(68.9765625 401.918125)scale(0.12 -0.12)">
       <use xlink:href="#DejaVuSans-30"/>
      </g>
     </g>
    </g>
    <g id="xtick_2">
     <g id="line2d_9">
      <path clip-path="url(#p7ff5b81e1d)" d="
M135.771 388.8
L135.771 43.2" style="fill:none;stroke:#000000;stroke-dasharray:3.000000,5.000000,1.000000,5.000000;stroke-dashoffset:0.0;stroke-width:0.5;"/>
     </g>
     <g id="line2d_10">
      <g>
       <use style="stroke:#000000;stroke-width:0.5;" x="135.771428571" xlink:href="#mc7db9fdffb" y="388.8"/>
      </g>
     </g>
     <g id="line2d_11">
      <g>
       <use style="stroke:#000000;stroke-width:0.5;" x="135.771428571" xlink:href="#m5a7d422ac3" y="43.2"/>
      </g>
     </g>
     <g id="text_2">
      <!-- 100 -->
      <defs>
       <path d="
M12.4062 8.29688
L28.5156 8.29688
L28.5156 63.9219
L10.9844 60.4062
L10.9844 69.3906
L28.4219 72.9062
L38.2812 72.9062
L38.2812 8.29688
L54.3906 8.29688
L54.3906 0
L12.4062 0
z
" id="DejaVuSans-31"/>
      </defs>
      <g transform="translate(125.376428571 401.918125)scale(0.12 -0.12)">
       <use xlink:href="#DejaVuSans-31"/>
       <use x="63.623046875" xlink:href="#DejaVuSans-30"/>
       <use x="127.24609375" xlink:href="#DejaVuSans-30"/>
      </g>
     </g>
    </g>
    <g id="xtick_3">
     <g id="line2d_12">
      <path clip-path="url(#p7ff5b81e1d)" d="
M199.543 388.8
L199.543 43.2" style="fill:none;stroke:#000000;stroke-dasharray:3.000000,5.000000,1.000000,5.000000;stroke-dashoffset:0.0;stroke-width:0.5;"/>
     </g>
     <g id="line2d_13">
      <g>
       <use style="stroke:#000000;stroke-width:0.5;" x="199.542857143" xlink:href="#mc7db9fdffb" y="388.8"/>
      </g>
     </g>
     <g id="line2d_14">
      <g>
       <use style="stroke:#000000;stroke-width:0.5;" x="199.542857143" xlink:href="#m5a7d422ac3" y="43.2"/>
      </g>
     </g>
     <g id="text_3">
      <!-- 200 -->
      <defs>
       <path d="
M19.1875 8.29688
L53.6094 8.29688
L53.6094 0
L7.32812 0
L7.32812 8.29688
Q12.9375 14.1094 22.625 23.8906
Q32.3281 33.6875 34.8125 36.5312
Q39.5469 41.8438 41.4219 45.5312
Q43.3125 49.2188 43.3125 52.7812
Q43.3125 58.5938 39.2344 62.25
Q35.1562 65.9219 28.6094 65.9219
Q23.9688 65.9219 18.8125 64.3125
Q13.6719 62.7031 7.8125 59.4219
L7.8125 69.3906
Q13.7656 71.7812 18.9375 73
Q24.125 74.2188 28.4219 74.2188
Q39.75 74.2188 46.4844 68.5469
Q53.2188 62.8906 53.2188 53.4219
Q53.2188 48.9219 51.5312 44.8906
Q49.8594 40.875 45.4062 35.4062
Q44.1875 33.9844 37.6406 27.2188
Q31.1094 20.4531 19.1875 8.29688" id="DejaVuSans-32"/>
      </defs>
      <g transform="translate(188.928482143 401.918125)scale(0.12 -0.12)">
       <use xlink:href="#DejaVuSans-32"/>
       <use x="63.623046875" xlink:href="#DejaVuSans-30"/>
       <use x="127.24609375" xlink:href="#DejaVuSans-30"/>
      </g>
     </g>
    </g>
    <g id="xtick_4">
     <g id="line2d_15">
      <path clip-path="url(#p7ff5b81e1d)" d="
M263.314 388.8
L263.314 43.2" style="fill:none;stroke:#000000;stroke-dasharray:3.000000,5.000000,1.000000,5.000000;stroke-dashoffset:0.0;stroke-width:0.5;"/>
     </g>
     <g id="line2d_16">
      <g>
       <use style="stroke:#000000;stroke-width:0.5;" x="263.314285714" xlink:href="#mc7db9fdffb" y="388.8"/>
      </g>
     </g>
     <g id="line2d_17">
      <g>
       <use style="stroke:#000000;stroke-width:0.5;" x="263.314285714" xlink:href="#m5a7d422ac3" y="43.2"/>
      </g>
     </g>
     <g id="text_4">
      <!-- 300 -->
      <defs>
       <path d="
M40.5781 39.3125
Q47.6562 37.7969 51.625 33
Q55.6094 28.2188 55.6094 21.1875
Q55.6094 10.4062 48.1875 4.48438
Q40.7656 -1.42188 27.0938 -1.42188
Q22.5156 -1.42188 17.6562 -0.515625
Q12.7969 0.390625 7.625 2.20312
L7.625 11.7188
Q11.7188 9.32812 16.5938 8.10938
Q21.4844 6.89062 26.8125 6.89062
Q36.0781 6.89062 40.9375 10.5469
Q45.7969 14.2031 45.7969 21.1875
Q45.7969 27.6406 41.2812 31.2656
Q36.7656 34.9062 28.7188 34.9062
L20.2188 34.9062
L20.2188 43.0156
L29.1094 43.0156
Q36.375 43.0156 40.2344 45.9219
Q44.0938 48.8281 44.0938 54.2969
Q44.0938 59.9062 40.1094 62.9062
Q36.1406 65.9219 28.7188 65.9219
Q24.6562 65.9219 20.0156 65.0312
Q15.375 64.1562 9.8125 62.3125
L9.8125 71.0938
Q15.4375 72.6562 20.3438 73.4375
Q25.25 74.2188 29.5938 74.2188
Q40.8281 74.2188 47.3594 69.1094
Q53.9062 64.0156 53.9062 55.3281
Q53.9062 49.2656 50.4375 45.0938
Q46.9688 40.9219 40.5781 39.3125" id="DejaVuSans-33"/>
      </defs>
      <g transform="translate(252.717723214 401.918125)scale(0.12 -0.12)">
       <use xlink:href="#DejaVuSans-33"/>
       <use x="63.623046875" xlink:href="#DejaVuSans-30"/>
       <use x="127.24609375" xlink:href="#DejaVuSans-30"/>
      </g>
     </g>
    </g>
    <g id="xtick_5">
     <g id="line2d_18">
      <path clip-path="url(#p7ff5b81e1d)" d="
M327.086 388.8
L327.086 43.2" style="fill:none;stroke:#000000;stroke-dasharray:3.000000,5.000000,1.000000,5.000000;stroke-dashoffset:0.0;stroke-width:0.5;"/>
     </g>
     <g id="line2d_19">
      <g>
       <use style="stroke:#000000;stroke-width:0.5;" x="327.085714286" xlink:href="#mc7db9fdffb" y="388.8"/>
      </g>
     </g>
     <g id="line2d_20">
      <g>
       <use style="stroke:#000000;stroke-width:0.5;" x="327.085714286" xlink:href="#m5a7d422ac3" y="43.2"/>
      </g>
     </g>
     <g id="text_5">
      <!-- 400 -->
      <defs>
       <path d="
M37.7969 64.3125
L12.8906 25.3906
L37.7969 25.3906
z

M35.2031 72.9062
L47.6094 72.9062
L47.6094 25.3906
L58.0156 25.3906
L58.0156 17.1875
L47.6094 17.1875
L47.6094 0
L37.7969 0
L37.7969 17.1875
L4.89062 17.1875
L4.89062 26.7031
z
" id="DejaVuSans-34"/>
      </defs>
      <g transform="translate(316.325089286 401.918125)scale(0.12 -0.12)">
       <use xlink:href="#DejaVuSans-34"/>
       <use x="63.623046875" xlink:href="#DejaVuSans-30"/>
       <use x="127.24609375" xlink:href="#DejaVuSans-30"/>
      </g>
     </g>
    </g>
    <g id="xtick_6">
     <g id="line2d_21">
      <path clip-path="url(#p7ff5b81e1d)" d="
M390.857 388.8
L390.857 43.2" style="fill:none;stroke:#000000;stroke-dasharray:3.000000,5.000000,1.000000,5.000000;stroke-dashoffset:0.0;stroke-width:0.5;"/>
     </g>
     <g id="line2d_22">
      <g>
       <use style="stroke:#000000;stroke-width:0.5;" x="390.857142857" xlink:href="#mc7db9fdffb" y="388.8"/>
      </g>
     </g>
     <g id="line2d_23">
      <g>
       <use style="stroke:#000000;stroke-width:0.5;" x="390.857142857" xlink:href="#m5a7d422ac3" y="43.2"/>
      </g>
     </g>
     <g id="text_6">
      <!-- 500 -->
      <defs>
       <path d="
M10.7969 72.9062
L49.5156 72.9062
L49.5156 64.5938
L19.8281 64.5938
L19.8281 46.7344
Q21.9688 47.4688 24.1094 47.8281
Q26.2656 48.1875 28.4219 48.1875
Q40.625 48.1875 47.75 41.5
Q54.8906 34.8125 54.8906 23.3906
Q54.8906 11.625 47.5625 5.09375
Q40.2344 -1.42188 26.9062 -1.42188
Q22.3125 -1.42188 17.5469 -0.640625
Q12.7969 0.140625 7.71875 1.70312
L7.71875 11.625
Q12.1094 9.23438 16.7969 8.0625
Q21.4844 6.89062 26.7031 6.89062
Q35.1562 6.89062 40.0781 11.3281
Q45.0156 15.7656 45.0156 23.3906
Q45.0156 31 40.0781 35.4375
Q35.1562 39.8906 26.7031 39.8906
Q22.75 39.8906 18.8125 39.0156
Q14.8906 38.1406 10.7969 36.2812
z
" id="DejaVuSans-35"/>
      </defs>
      <g transform="translate(380.266205357 401.918125)scale(0.12 -0.12)">
       <use xlink:href="#DejaVuSans-35"/>
       <use x="63.623046875" xlink:href="#DejaVuSans-30"/>
       <use x="127.24609375" xlink:href="#DejaVuSans-30"/>
      </g>
     </g>
    </g>
    <g id="xtick_7">
     <g id="line2d_24">
      <path clip-path="url(#p7ff5b81e1d)" d="
M454.629 388.8
L454.629 43.2" style="fill:none;stroke:#000000;stroke-dasharray:3.000000,5.000000,1.000000,5.000000;stroke-dashoffset:0.0;stroke-width:0.5;"/>
     </g>
     <g id="line2d_25">
      <g>
       <use style="stroke:#000000;stroke-width:0.5;" x="454.628571429" xlink:href="#mc7db9fdffb" y="388.8"/>
      </g>
     </g>
     <g id="line2d_26">
      <g>
       <use style="stroke:#000000;stroke-width:0.5;" x="454.628571429" xlink:href="#m5a7d422ac3" y="43.2"/>
      </g>
     </g>
     <g id="text_7">
      <!-- 600 -->
      <defs>
       <path d="
M33.0156 40.375
Q26.375 40.375 22.4844 35.8281
Q18.6094 31.2969 18.6094 23.3906
Q18.6094 15.5312 22.4844 10.9531
Q26.375 6.39062 33.0156 6.39062
Q39.6562 6.39062 43.5312 10.9531
Q47.4062 15.5312 47.4062 23.3906
Q47.4062 31.2969 43.5312 35.8281
Q39.6562 40.375 33.0156 40.375
M52.5938 71.2969
L52.5938 62.3125
Q48.875 64.0625 45.0938 64.9844
Q41.3125 65.9219 37.5938 65.9219
Q27.8281 65.9219 22.6719 59.3281
Q17.5312 52.7344 16.7969 39.4062
Q19.6719 43.6562 24.0156 45.9219
Q28.375 48.1875 33.5938 48.1875
Q44.5781 48.1875 50.9531 41.5156
Q57.3281 34.8594 57.3281 23.3906
Q57.3281 12.1562 50.6875 5.35938
Q44.0469 -1.42188 33.0156 -1.42188
Q20.3594 -1.42188 13.6719 8.26562
Q6.98438 17.9688 6.98438 36.375
Q6.98438 53.6562 15.1875 63.9375
Q23.3906 74.2188 37.2031 74.2188
Q40.9219 74.2188 44.7031 73.4844
Q48.4844 72.75 52.5938 71.2969" id="DejaVuSans-36"/>
      </defs>
      <g transform="translate(443.993571429 401.918125)scale(0.12 -0.12)">
       <use xlink:href="#DejaVuSans-36"/>
       <use x="63.623046875" xlink:href="#DejaVuSans-30"/>
       <use x="127.24609375" xlink:href="#DejaVuSans-30"/>
      </g>
     </g>
    </g>
    <g id="xtick_8">
     <g id="line2d_27">
      <path clip-path="url(#p7ff5b81e1d)" d="
M518.4 388.8
L518.4 43.2" style="fill:none;stroke:#000000;stroke-dasharray:3.000000,5.000000,1.000000,5.000000;stroke-dashoffset:0.0;stroke-width:0.5;"/>
     </g>
     <g id="line2d_28">
      <g>
       <use style="stroke:#000000;stroke-width:0.5;" x="518.4" xlink:href="#mc7db9fdffb" y="388.8"/>
      </g>
     </g>
     <g id="line2d_29">
      <g>
       <use style="stroke:#000000;stroke-width:0.5;" x="518.4" xlink:href="#m5a7d422ac3" y="43.2"/>
      </g>
     </g>
     <g id="text_8">
      <!-- 700 -->
      <defs>
       <path d="
M8.20312 72.9062
L55.0781 72.9062
L55.0781 68.7031
L28.6094 0
L18.3125 0
L43.2188 64.5938
L8.20312 64.5938
z
" id="DejaVuSans-37"/>
      </defs>
      <g transform="translate(507.838125 401.918125)scale(0.12 -0.12)">
       <use xlink:href="#DejaVuSans-37"/>
       <use x="63.623046875" xlink:href="#DejaVuSans-30"/>
       <use x="127.24609375" xlink:href="#DejaVuSans-30"/>
      </g>
     </g>
    </g>
    <g id="text_9">
     <!-- Time -->
     <defs>
      <path d="
M56.2031 29.5938
L56.2031 25.2031
L14.8906 25.2031
Q15.4844 15.9219 20.4844 11.0625
Q25.4844 6.20312 34.4219 6.20312
Q39.5938 6.20312 44.4531 7.46875
Q49.3125 8.73438 54.1094 11.2812
L54.1094 2.78125
Q49.2656 0.734375 44.1875 -0.34375
Q39.1094 -1.42188 33.8906 -1.42188
Q20.7969 -1.42188 13.1562 6.1875
Q5.51562 13.8125 5.51562 26.8125
Q5.51562 40.2344 12.7656 48.1094
Q20.0156 56 32.3281 56
Q43.3594 56 49.7812 48.8906
Q56.2031 41.7969 56.2031 29.5938
M47.2188 32.2344
Q47.125 39.5938 43.0938 43.9844
Q39.0625 48.3906 32.4219 48.3906
Q24.9062 48.3906 20.3906 44.1406
Q15.875 39.8906 15.1875 32.1719
z
" id="DejaVuSans-65"/>
      <path d="
M-0.296875 72.9062
L61.375 72.9062
L61.375 64.5938
L35.5 64.5938
L35.5 0
L25.5938 0
L25.5938 64.5938
L-0.296875 64.5938
z
" id="DejaVuSans-54"/>
      <path d="
M52 44.1875
Q55.375 50.25 60.0625 53.125
Q64.75 56 71.0938 56
Q79.6406 56 84.2812 50.0156
Q88.9219 44.0469 88.9219 33.0156
L88.9219 0
L79.8906 0
L79.8906 32.7188
Q79.8906 40.5781 77.0938 44.375
Q74.3125 48.1875 68.6094 48.1875
Q61.625 48.1875 57.5625 43.5469
Q53.5156 38.9219 53.5156 30.9062
L53.5156 0
L44.4844 0
L44.4844 32.7188
Q44.4844 40.625 41.7031 44.4062
Q38.9219 48.1875 33.1094 48.1875
Q26.2188 48.1875 22.1562 43.5312
Q18.1094 38.875 18.1094 30.9062
L18.1094 0
L9.07812 0
L9.07812 54.6875
L18.1094 54.6875
L18.1094 46.1875
Q21.1875 51.2188 25.4844 53.6094
Q29.7812 56 35.6875 56
Q41.6562 56 45.8281 52.9688
Q50 49.9531 52 44.1875" id="DejaVuSans-6d"/>
      <path d="
M9.42188 54.6875
L18.4062 54.6875
L18.4062 0
L9.42188 0
z

M9.42188 75.9844
L18.4062 75.9844
L18.4062 64.5938
L9.42188 64.5938
z
" id="DejaVuSans-69"/>
     </defs>
     <g transform="translate(278.42515625 420.0515625)scale(0.14 -0.14)">
      <use xlink:href="#DejaVuSans-54"/>
      <use x="57.958984375" xlink:href="#DejaVuSans-69"/>
      <use x="85.7421875" xlink:href="#DejaVuSans-6d"/>
      <use x="183.154296875" xlink:href="#DejaVuSans-65"/>
     </g>
    </g>
   </g>
   <g id="matplotlib.axis_2">
    <g id="ytick_1">
     <g id="line2d_30">
      <path clip-path="url(#p7ff5b81e1d)" d="
M72 388.8
L518.4 388.8" style="fill:none;stroke:#000000;stroke-dasharray:3.000000,5.000000,1.000000,5.000000;stroke-dashoffset:0.0;stroke-width:0.5;"/>
     </g>
     <g id="line2d_31">
      <defs>
       <path d="
M0 0
L4 0" id="md7965d1ba0" style="stroke:#000000;stroke-width:0.5;"/>
      </defs>
      <g>
       <use style="stroke:#000000;stroke-width:0.5;" x="72.0" xlink:href="#md7965d1ba0" y="388.8"/>
      </g>
     </g>
     <g id="line2d_32">
      <defs>
       <path d="
M0 0
L-4 0" id="md9a1c1a7cd" style="stroke:#000000;stroke-width:0.5;"/>
      </defs>
      <g>
       <use style="stroke:#000000;stroke-width:0.5;" x="518.4" xlink:href="#md9a1c1a7cd" y="388.8"/>
      </g>
     </g>
     <g id="text_10">
      <!-- 30000 -->
      <defs>
       <path d="
M10.5938 35.5
L73.1875 35.5
L73.1875 27.2031
L10.5938 27.2031
z
" id="DejaVuSans-2212"/>
      </defs>
      <g transform="translate(21.8375 392.11125)scale(0.12 -0.12)">
       <use xlink:href="#DejaVuSans-2212"/>
       <use x="83.7890625" xlink:href="#DejaVuSans-33"/>
       <use x="147.412109375" xlink:href="#DejaVuSans-30"/>
       <use x="211.03515625" xlink:href="#DejaVuSans-30"/>
       <use x="274.658203125" xlink:href="#DejaVuSans-30"/>
       <use x="338.28125" xlink:href="#DejaVuSans-30"/>
      </g>
     </g>
    </g>
    <g id="ytick_2">
     <g id="line2d_33">
      <path clip-path="url(#p7ff5b81e1d)" d="
M72 345.6
L518.4 345.6" style="fill:none;stroke:#000000;stroke-dasharray:3.000000,5.000000,1.000000,5.000000;stroke-dashoffset:0.0;stroke-width:0.5;"/>
     </g>
     <g id="line2d_34">
      <g>
       <use style="stroke:#000000;stroke-width:0.5;" x="72.0" xlink:href="#md7965d1ba0" y="345.6"/>
      </g>
     </g>
     <g id="line2d_35">
      <g>
       <use style="stroke:#000000;stroke-width:0.5;" x="518.4" xlink:href="#md9a1c1a7cd" y="345.6"/>
      </g>
     </g>
     <g id="text_11">
      <!-- 20000 -->
      <g transform="translate(21.8375 348.91125)scale(0.12 -0.12)">
       <use xlink:href="#DejaVuSans-2212"/>
       <use x="83.7890625" xlink:href="#DejaVuSans-32"/>
       <use x="147.412109375" xlink:href="#DejaVuSans-30"/>
       <use x="211.03515625" xlink:href="#DejaVuSans-30"/>
       <use x="274.658203125" xlink:href="#DejaVuSans-30"/>
       <use x="338.28125" xlink:href="#DejaVuSans-30"/>
      </g>
     </g>
    </g>
    <g id="ytick_3">
     <g id="line2d_36">
      <path clip-path="url(#p7ff5b81e1d)" d="
M72 302.4
L518.4 302.4" style="fill:none;stroke:#000000;stroke-dasharray:3.000000,5.000000,1.000000,5.000000;stroke-dashoffset:0.0;stroke-width:0.5;"/>
     </g>
     <g id="line2d_37">
      <g>
       <use style="stroke:#000000;stroke-width:0.5;" x="72.0" xlink:href="#md7965d1ba0" y="302.4"/>
      </g>
     </g>
     <g id="line2d_38">
      <g>
       <use style="stroke:#000000;stroke-width:0.5;" x="518.4" xlink:href="#md9a1c1a7cd" y="302.4"/>
      </g>
     </g>
     <g id="text_12">
      <!-- 10000 -->
      <g transform="translate(21.8375 305.71125)scale(0.12 -0.12)">
       <use xlink:href="#DejaVuSans-2212"/>
       <use x="83.7890625" xlink:href="#DejaVuSans-31"/>
       <use x="147.412109375" xlink:href="#DejaVuSans-30"/>
       <use x="211.03515625" xlink:href="#DejaVuSans-30"/>
       <use x="274.658203125" xlink:href="#DejaVuSans-30"/>
       <use x="338.28125" xlink:href="#DejaVuSans-30"/>
      </g>
     </g>
    </g>
    <g id="ytick_4">
     <g id="line2d_39">
      <path clip-path="url(#p7ff5b81e1d)" d="
M72 259.2
L518.4 259.2" style="fill:none;stroke:#000000;stroke-dasharray:3.000000,5.000000,1.000000,5.000000;stroke-dashoffset:0.0;stroke-width:0.5;"/>
     </g>
     <g id="line2d_40">
      <g>
       <use style="stroke:#000000;stroke-width:0.5;" x="72.0" xlink:href="#md7965d1ba0" y="259.2"/>
      </g>
     </g>
     <g id="line2d_41">
      <g>
       <use style="stroke:#000000;stroke-width:0.5;" x="518.4" xlink:href="#md9a1c1a7cd" y="259.2"/>
      </g>
     </g>
     <g id="text_13">
      <!-- 0 -->
      <g transform="translate(61.953125 262.51125)scale(0.12 -0.12)">
       <use xlink:href="#DejaVuSans-30"/>
      </g>
     </g>
    </g>
    <g id="ytick_5">
     <g id="line2d_42">
      <path clip-path="url(#p7ff5b81e1d)" d="
M72 216
L518.4 216" style="fill:none;stroke:#000000;stroke-dasharray:3.000000,5.000000,1.000000,5.000000;stroke-dashoffset:0.0;stroke-width:0.5;"/>
     </g>
     <g id="line2d_43">
      <g>
       <use style="stroke:#000000;stroke-width:0.5;" x="72.0" xlink:href="#md7965d1ba0" y="216.0"/>
      </g>
     </g>
     <g id="line2d_44">
      <g>
       <use style="stroke:#000000;stroke-width:0.5;" x="518.4" xlink:href="#md9a1c1a7cd" y="216.0"/>
      </g>
     </g>
     <g id="text_14">
      <!-- 10000 -->
      <g transform="translate(31.94 219.31125)scale(0.12 -0.12)">
       <use xlink:href="#DejaVuSans-31"/>
       <use x="63.623046875" xlink:href="#DejaVuSans-30"/>
       <use x="127.24609375" xlink:href="#DejaVuSans-30"/>
       <use x="190.869140625" xlink:href="#DejaVuSans-30"/>
       <use x="254.4921875" xlink:href="#DejaVuSans-30"/>
      </g>
     </g>
    </g>
    <g id="ytick_6">
     <g id="line2d_45">
      <path clip-path="url(#p7ff5b81e1d)" d="
M72 172.8
L518.4 172.8" style="fill:none;stroke:#000000;stroke-dasharray:3.000000,5.000000,1.000000,5.000000;stroke-dashoffset:0.0;stroke-width:0.5;"/>
     </g>
     <g id="line2d_46">
      <g>
       <use style="stroke:#000000;stroke-width:0.5;" x="72.0" xlink:href="#md7965d1ba0" y="172.8"/>
      </g>
     </g>
     <g id="line2d_47">
      <g>
       <use style="stroke:#000000;stroke-width:0.5;" x="518.4" xlink:href="#md9a1c1a7cd" y="172.8"/>
      </g>
     </g>
     <g id="text_15">
      <!-- 20000 -->
      <g transform="translate(31.50125 176.11125)scale(0.12 -0.12)">
       <use xlink:href="#DejaVuSans-32"/>
       <use x="63.623046875" xlink:href="#DejaVuSans-30"/>
       <use x="127.24609375" xlink:href="#DejaVuSans-30"/>
       <use x="190.869140625" xlink:href="#DejaVuSans-30"/>
       <use x="254.4921875" xlink:href="#DejaVuSans-30"/>
      </g>
     </g>
    </g>
    <g id="ytick_7">
     <g id="line2d_48">
      <path clip-path="url(#p7ff5b81e1d)" d="
M72 129.6
L518.4 129.6" style="fill:none;stroke:#000000;stroke-dasharray:3.000000,5.000000,1.000000,5.000000;stroke-dashoffset:0.0;stroke-width:0.5;"/>
     </g>
     <g id="line2d_49">
      <g>
       <use style="stroke:#000000;stroke-width:0.5;" x="72.0" xlink:href="#md7965d1ba0" y="129.6"/>
      </g>
     </g>
     <g id="line2d_50">
      <g>
       <use style="stroke:#000000;stroke-width:0.5;" x="518.4" xlink:href="#md9a1c1a7cd" y="129.6"/>
      </g>
     </g>
     <g id="text_16">
      <!-- 30000 -->
      <g transform="translate(31.536875 132.91125)scale(0.12 -0.12)">
       <use xlink:href="#DejaVuSans-33"/>
       <use x="63.623046875" xlink:href="#DejaVuSans-30"/>
       <use x="127.24609375" xlink:href="#DejaVuSans-30"/>
       <use x="190.869140625" xlink:href="#DejaVuSans-30"/>
       <use x="254.4921875" xlink:href="#DejaVuSans-30"/>
      </g>
     </g>
    </g>
    <g id="ytick_8">
     <g id="line2d_51">
      <path clip-path="url(#p7ff5b81e1d)" d="
M72 86.4
L518.4 86.4" style="fill:none;stroke:#000000;stroke-dasharray:3.000000,5.000000,1.000000,5.000000;stroke-dashoffset:0.0;stroke-width:0.5;"/>
     </g>
     <g id="line2d_52">
      <g>
       <use style="stroke:#000000;stroke-width:0.5;" x="72.0" xlink:href="#md7965d1ba0" y="86.4"/>
      </g>
     </g>
     <g id="line2d_53">
      <g>
       <use style="stroke:#000000;stroke-width:0.5;" x="518.4" xlink:href="#md9a1c1a7cd" y="86.4"/>
      </g>
     </g>
     <g id="text_17">
      <!-- 40000 -->
      <g transform="translate(31.20875 89.71125)scale(0.12 -0.12)">
       <use xlink:href="#DejaVuSans-34"/>
       <use x="63.623046875" xlink:href="#DejaVuSans-30"/>
       <use x="127.24609375" xlink:href="#DejaVuSans-30"/>
       <use x="190.869140625" xlink:href="#DejaVuSans-30"/>
       <use x="254.4921875" xlink:href="#DejaVuSans-30"/>
      </g>
     </g>
    </g>
    <g id="ytick_9">
     <g id="line2d_54">
      <path clip-path="url(#p7ff5b81e1d)" d="
M72 43.2
L518.4 43.2" style="fill:none;stroke:#000000;stroke-dasharray:3.000000,5.000000,1.000000,5.000000;stroke-dashoffset:0.0;stroke-width:0.5;"/>
     </g>
     <g id="line2d_55">
      <g>
       <use style="stroke:#000000;stroke-width:0.5;" x="72.0" xlink:href="#md7965d1ba0" y="43.2"/>
      </g>
     </g>
     <g id="line2d_56">
      <g>
       <use style="stroke:#000000;stroke-width:0.5;" x="518.4" xlink:href="#md9a1c1a7cd" y="43.2"/>
      </g>
     </g>
     <g id="text_18">
      <!-- 50000 -->
      <g transform="translate(31.548125 46.51125)scale(0.12 -0.12)">
       <use xlink:href="#DejaVuSans-35"/>
       <use x="63.623046875" xlink:href="#DejaVuSans-30"/>
       <use x="127.24609375" xlink:href="#DejaVuSans-30"/>
       <use x="190.869140625" xlink:href="#DejaVuSans-30"/>
       <use x="254.4921875" xlink:href="#DejaVuSans-30"/>
      </g>
     </g>
    </g>
    <g id="text_19">
     <!-- dif_lambda -->
     <defs>
      <path d="
M45.4062 46.3906
L45.4062 75.9844
L54.3906 75.9844
L54.3906 0
L45.4062 0
L45.4062 8.20312
Q42.5781 3.32812 38.25 0.953125
Q33.9375 -1.42188 27.875 -1.42188
Q17.9688 -1.42188 11.7344 6.48438
Q5.51562 14.4062 5.51562 27.2969
Q5.51562 40.1875 11.7344 48.0938
Q17.9688 56 27.875 56
Q33.9375 56 38.25 53.625
Q42.5781 51.2656 45.4062 46.3906
M14.7969 27.2969
Q14.7969 17.3906 18.875 11.75
Q22.9531 6.10938 30.0781 6.10938
Q37.2031 6.10938 41.2969 11.75
Q45.4062 17.3906 45.4062 27.2969
Q45.4062 37.2031 41.2969 42.8438
Q37.2031 48.4844 30.0781 48.4844
Q22.9531 48.4844 18.875 42.8438
Q14.7969 37.2031 14.7969 27.2969" id="DejaVuSans-64"/>
      <path d="
M50.9844 -16.6094
L50.9844 -23.5781
L-0.984375 -23.5781
L-0.984375 -16.6094
z
" id="DejaVuSans-5f"/>
      <path d="
M34.2812 27.4844
Q23.3906 27.4844 19.1875 25
Q14.9844 22.5156 14.9844 16.5
Q14.9844 11.7188 18.1406 8.90625
Q21.2969 6.10938 26.7031 6.10938
Q34.1875 6.10938 38.7031 11.4062
Q43.2188 16.7031 43.2188 25.4844
L43.2188 27.4844
z

M52.2031 31.2031
L52.2031 0
L43.2188 0
L43.2188 8.29688
Q40.1406 3.32812 35.5469 0.953125
Q30.9531 -1.42188 24.3125 -1.42188
Q15.9219 -1.42188 10.9531 3.29688
Q6 8.01562 6 15.9219
Q6 25.1406 12.1719 29.8281
Q18.3594 34.5156 30.6094 34.5156
L43.2188 34.5156
L43.2188 35.4062
Q43.2188 41.6094 39.1406 45
Q35.0625 48.3906 27.6875 48.3906
Q23 48.3906 18.5469 47.2656
Q14.1094 46.1406 10.0156 43.8906
L10.0156 52.2031
Q14.9375 54.1094 19.5781 55.0469
Q24.2188 56 28.6094 56
Q40.4844 56 46.3438 49.8438
Q52.2031 43.7031 52.2031 31.2031" id="DejaVuSans-61"/>
      <path d="
M48.6875 27.2969
Q48.6875 37.2031 44.6094 42.8438
Q40.5312 48.4844 33.4062 48.4844
Q26.2656 48.4844 22.1875 42.8438
Q18.1094 37.2031 18.1094 27.2969
Q18.1094 17.3906 22.1875 11.75
Q26.2656 6.10938 33.4062 6.10938
Q40.5312 6.10938 44.6094 11.75
Q48.6875 17.3906 48.6875 27.2969
M18.1094 46.3906
Q20.9531 51.2656 25.2656 53.625
Q29.5938 56 35.5938 56
Q45.5625 56 51.7812 48.0938
Q58.0156 40.1875 58.0156 27.2969
Q58.0156 14.4062 51.7812 6.48438
Q45.5625 -1.42188 35.5938 -1.42188
Q29.5938 -1.42188 25.2656 0.953125
Q20.9531 3.32812 18.1094 8.20312
L18.1094 0
L9.07812 0
L9.07812 75.9844
L18.1094 75.9844
z
" id="DejaVuSans-62"/>
      <path d="
M37.1094 75.9844
L37.1094 68.5
L28.5156 68.5
Q23.6875 68.5 21.7969 66.5469
Q19.9219 64.5938 19.9219 59.5156
L19.9219 54.6875
L34.7188 54.6875
L34.7188 47.7031
L19.9219 47.7031
L19.9219 0
L10.8906 0
L10.8906 47.7031
L2.29688 47.7031
L2.29688 54.6875
L10.8906 54.6875
L10.8906 58.5
Q10.8906 67.625 15.1406 71.7969
Q19.3906 75.9844 28.6094 75.9844
z
" id="DejaVuSans-66"/>
      <path d="
M9.42188 75.9844
L18.4062 75.9844
L18.4062 0
L9.42188 0
z
" id="DejaVuSans-6c"/>
     </defs>
     <g transform="translate(13.5365625 253.5615625)rotate(-90.0)scale(0.14 -0.14)">
      <use xlink:href="#DejaVuSans-64"/>
      <use x="63.4765625" xlink:href="#DejaVuSans-69"/>
      <use x="91.259765625" xlink:href="#DejaVuSans-66"/>
      <use x="126.46484375" xlink:href="#DejaVuSans-5f"/>
      <use x="176.46484375" xlink:href="#DejaVuSans-6c"/>
      <use x="204.248046875" xlink:href="#DejaVuSans-61"/>
      <use x="265.52734375" xlink:href="#DejaVuSans-6d"/>
      <use x="362.939453125" xlink:href="#DejaVuSans-62"/>
      <use x="426.416015625" xlink:href="#DejaVuSans-64"/>
      <use x="489.892578125" xlink:href="#DejaVuSans-61"/>
     </g>
    </g>
   </g>
   <g id="text_20">
    <!-- dif_lambda -->
    <g transform="translate(257.6384375 38.2)scale(0.14 -0.14)">
     <use xlink:href="#DejaVuSans-64"/>
     <use x="63.4765625" xlink:href="#DejaVuSans-69"/>
     <use x="91.259765625" xlink:href="#DejaVuSans-66"/>
     <use x="126.46484375" xlink:href="#DejaVuSans-5f"/>
     <use x="176.46484375" xlink:href="#DejaVuSans-6c"/>
     <use x="204.248046875" xlink:href="#DejaVuSans-61"/>
     <use x="265.52734375" xlink:href="#DejaVuSans-6d"/>
     <use x="362.939453125" xlink:href="#DejaVuSans-62"/>
     <use x="426.416015625" xlink:href="#DejaVuSans-64"/>
     <use x="489.892578125" xlink:href="#DejaVuSans-61"/>
    </g>
   </g>
   <g id="legend_1">
    <g id="patch_7">
     <path d="
M372.429 162.405
L511.2 162.405
L511.2 50.4
L372.429 50.4
z
" style="fill:#ffffff;stroke:#000000;stroke-linejoin:miter;"/>
    </g>
    <g id="line2d_57">
     <path d="
M382.509 62.0617
L402.669 62.0617" style="fill:none;stroke:#bf00bf;stroke-linecap:square;"/>
    </g>
    <g id="line2d_58"/>
    <g id="text_21">
     <!-- dif_lambda1 -->
     <g transform="translate(418.509 67.10175)scale(0.144 -0.144)">
      <use xlink:href="#DejaVuSans-64"/>
      <use x="63.4765625" xlink:href="#DejaVuSans-69"/>
      <use x="91.259765625" xlink:href="#DejaVuSans-66"/>
      <use x="126.46484375" xlink:href="#DejaVuSans-5f"/>
      <use x="176.46484375" xlink:href="#DejaVuSans-6c"/>
      <use x="204.248046875" xlink:href="#DejaVuSans-61"/>
      <use x="265.52734375" xlink:href="#DejaVuSans-6d"/>
      <use x="362.939453125" xlink:href="#DejaVuSans-62"/>
      <use x="426.416015625" xlink:href="#DejaVuSans-64"/>
      <use x="489.892578125" xlink:href="#DejaVuSans-61"/>
      <use x="551.171875" xlink:href="#DejaVuSans-31"/>
     </g>
    </g>
    <g id="line2d_59">
     <path d="
M382.509 83.5987
L402.669 83.5987" style="fill:none;stroke:#00bfbf;stroke-linecap:square;"/>
    </g>
    <g id="line2d_60"/>
    <g id="text_22">
     <!-- dif_lambda2 -->
     <g transform="translate(418.509 88.63875)scale(0.144 -0.144)">
      <use xlink:href="#DejaVuSans-64"/>
      <use x="63.4765625" xlink:href="#DejaVuSans-69"/>
      <use x="91.259765625" xlink:href="#DejaVuSans-66"/>
      <use x="126.46484375" xlink:href="#DejaVuSans-5f"/>
      <use x="176.46484375" xlink:href="#DejaVuSans-6c"/>
      <use x="204.248046875" xlink:href="#DejaVuSans-61"/>
      <use x="265.52734375" xlink:href="#DejaVuSans-6d"/>
      <use x="362.939453125" xlink:href="#DejaVuSans-62"/>
      <use x="426.416015625" xlink:href="#DejaVuSans-64"/>
      <use x="489.892578125" xlink:href="#DejaVuSans-61"/>
      <use x="551.171875" xlink:href="#DejaVuSans-32"/>
     </g>
    </g>
    <g id="line2d_61">
     <path d="
M382.509 105.136
L402.669 105.136" style="fill:none;stroke:#ff0000;stroke-linecap:square;"/>
    </g>
    <g id="line2d_62"/>
    <g id="text_23">
     <!-- dif_lambda3 -->
     <g transform="translate(418.509 110.17575)scale(0.144 -0.144)">
      <use xlink:href="#DejaVuSans-64"/>
      <use x="63.4765625" xlink:href="#DejaVuSans-69"/>
      <use x="91.259765625" xlink:href="#DejaVuSans-66"/>
      <use x="126.46484375" xlink:href="#DejaVuSans-5f"/>
      <use x="176.46484375" xlink:href="#DejaVuSans-6c"/>
      <use x="204.248046875" xlink:href="#DejaVuSans-61"/>
      <use x="265.52734375" xlink:href="#DejaVuSans-6d"/>
      <use x="362.939453125" xlink:href="#DejaVuSans-62"/>
      <use x="426.416015625" xlink:href="#DejaVuSans-64"/>
      <use x="489.892578125" xlink:href="#DejaVuSans-61"/>
      <use x="551.171875" xlink:href="#DejaVuSans-33"/>
     </g>
    </g>
    <g id="line2d_63">
     <path d="
M382.509 126.673
L402.669 126.673" style="fill:none;stroke:#008000;stroke-linecap:square;"/>
    </g>
    <g id="line2d_64"/>
    <g id="text_24">
     <!-- dif_lambda4 -->
     <g transform="translate(418.509 131.71275)scale(0.144 -0.144)">
      <use xlink:href="#DejaVuSans-64"/>
      <use x="63.4765625" xlink:href="#DejaVuSans-69"/>
      <use x="91.259765625" xlink:href="#DejaVuSans-66"/>
      <use x="126.46484375" xlink:href="#DejaVuSans-5f"/>
      <use x="176.46484375" xlink:href="#DejaVuSans-6c"/>
      <use x="204.248046875" xlink:href="#DejaVuSans-61"/>
      <use x="265.52734375" xlink:href="#DejaVuSans-6d"/>
      <use x="362.939453125" xlink:href="#DejaVuSans-62"/>
      <use x="426.416015625" xlink:href="#DejaVuSans-64"/>
      <use x="489.892578125" xlink:href="#DejaVuSans-61"/>
      <use x="551.171875" xlink:href="#DejaVuSans-34"/>
     </g>
    </g>
    <g id="line2d_65">
     <path d="
M382.509 148.21
L402.669 148.21" style="fill:none;stroke:#0000ff;stroke-linecap:square;"/>
    </g>
    <g id="line2d_66"/>
    <g id="text_25">
     <!-- dif_lambda5 -->
     <g transform="translate(418.509 153.24975)scale(0.144 -0.144)">
      <use xlink:href="#DejaVuSans-64"/>
      <use x="63.4765625" xlink:href="#DejaVuSans-69"/>
      <use x="91.259765625" xlink:href="#DejaVuSans-66"/>
      <use x="126.46484375" xlink:href="#DejaVuSans-5f"/>
      <use x="176.46484375" xlink:href="#DejaVuSans-6c"/>
      <use x="204.248046875" xlink:href="#DejaVuSans-61"/>
      <use x="265.52734375" xlink:href="#DejaVuSans-6d"/>
      <use x="362.939453125" xlink:href="#DejaVuSans-62"/>
      <use x="426.416015625" xlink:href="#DejaVuSans-64"/>
      <use x="489.892578125" xlink:href="#DejaVuSans-61"/>
      <use x="551.171875" xlink:href="#DejaVuSans-35"/>
     </g>
    </g>
   </g>
  </g>
 </g>
 <defs>
  <clipPath id="p7ff5b81e1d">
   <rect height="345.6" width="446.4" x="72.0" y="43.2"/>
  </clipPath>
 </defs>
</svg>
