<?xml version="1.0" encoding="utf-8" standalone="no"?>
<!DOCTYPE svg PUBLIC "-//W3C//DTD SVG 1.1//EN"
  "http://www.w3.org/Graphics/SVG/1.1/DTD/svg11.dtd">
<!-- Created with matplotlib (http://matplotlib.org/) -->
<svg height="432pt" version="1.1" viewBox="0 0 576 432" width="576pt" xmlns="http://www.w3.org/2000/svg" xmlns:xlink="http://www.w3.org/1999/xlink">
 <defs>
  <style type="text/css">
*{stroke-linecap:butt;stroke-linejoin:round;}
  </style>
 </defs>
 <g id="figure_1">
  <g id="patch_1">
   <path d="M 0 432 
L 576 432 
L 576 0 
L 0 0 
z
" style="fill:#ffffff;"/>
  </g>
  <g id="axes_1">
   <g id="patch_2">
    <path d="M 72 384.48 
L 518.4 384.48 
L 518.4 51.84 
L 72 51.84 
z
" style="fill:#ffffff;"/>
   </g>
   <g id="matplotlib.axis_1">
    <g id="xtick_1">
     <g id="line2d_1">
      <path clip-path="url(#p26dc7437b6)" d="M 92.290909 384.48 
L 92.290909 51.84 
" style="fill:none;stroke:#b0b0b0;stroke-dasharray:5.12,1.28,0.8,1.28;stroke-dashoffset:0;stroke-width:0.8;"/>
     </g>
     <g id="line2d_2">
      <defs>
       <path d="M 0 0 
L 0 3.5 
" id="m430ebfd77e" style="stroke:#000000;stroke-width:0.8;"/>
      </defs>
      <g>
       <use style="stroke:#000000;stroke-width:0.8;" x="92.290909" xlink:href="#m430ebfd77e" y="384.48"/>
      </g>
     </g>
     <g id="text_1">
      <!-- 0 -->
      <defs>
       <path d="M 31.78125 66.40625 
Q 24.171875 66.40625 20.328125 58.90625 
Q 16.5 51.421875 16.5 36.375 
Q 16.5 21.390625 20.328125 13.890625 
Q 24.171875 6.390625 31.78125 6.390625 
Q 39.453125 6.390625 43.28125 13.890625 
Q 47.125 21.390625 47.125 36.375 
Q 47.125 51.421875 43.28125 58.90625 
Q 39.453125 66.40625 31.78125 66.40625 
z
M 31.78125 74.21875 
Q 44.046875 74.21875 50.515625 64.515625 
Q 56.984375 54.828125 56.984375 36.375 
Q 56.984375 17.96875 50.515625 8.265625 
Q 44.046875 -1.421875 31.78125 -1.421875 
Q 19.53125 -1.421875 13.0625 8.265625 
Q 6.59375 17.96875 6.59375 36.375 
Q 6.59375 54.828125 13.0625 64.515625 
Q 19.53125 74.21875 31.78125 74.21875 
z
" id="DejaVuSans-30"/>
      </defs>
      <g transform="translate(89.109659 399.078438)scale(0.1 -0.1)">
       <use xlink:href="#DejaVuSans-30"/>
      </g>
     </g>
    </g>
    <g id="xtick_2">
     <g id="line2d_3">
      <path clip-path="url(#p26dc7437b6)" d="M 167.512073 384.48 
L 167.512073 51.84 
" style="fill:none;stroke:#b0b0b0;stroke-dasharray:5.12,1.28,0.8,1.28;stroke-dashoffset:0;stroke-width:0.8;"/>
     </g>
     <g id="line2d_4">
      <g>
       <use style="stroke:#000000;stroke-width:0.8;" x="167.512073" xlink:href="#m430ebfd77e" y="384.48"/>
      </g>
     </g>
     <g id="text_2">
      <!-- 200 -->
      <defs>
       <path d="M 19.1875 8.296875 
L 53.609375 8.296875 
L 53.609375 0 
L 7.328125 0 
L 7.328125 8.296875 
Q 12.9375 14.109375 22.625 23.890625 
Q 32.328125 33.6875 34.8125 36.53125 
Q 39.546875 41.84375 41.421875 45.53125 
Q 43.3125 49.21875 43.3125 52.78125 
Q 43.3125 58.59375 39.234375 62.25 
Q 35.15625 65.921875 28.609375 65.921875 
Q 23.96875 65.921875 18.8125 64.3125 
Q 13.671875 62.703125 7.8125 59.421875 
L 7.8125 69.390625 
Q 13.765625 71.78125 18.9375 73 
Q 24.125 74.21875 28.421875 74.21875 
Q 39.75 74.21875 46.484375 68.546875 
Q 53.21875 62.890625 53.21875 53.421875 
Q 53.21875 48.921875 51.53125 44.890625 
Q 49.859375 40.875 45.40625 35.40625 
Q 44.1875 33.984375 37.640625 27.21875 
Q 31.109375 20.453125 19.1875 8.296875 
z
" id="DejaVuSans-32"/>
      </defs>
      <g transform="translate(157.968323 399.078438)scale(0.1 -0.1)">
       <use xlink:href="#DejaVuSans-32"/>
       <use x="63.623047" xlink:href="#DejaVuSans-30"/>
       <use x="127.246094" xlink:href="#DejaVuSans-30"/>
      </g>
     </g>
    </g>
    <g id="xtick_3">
     <g id="line2d_5">
      <path clip-path="url(#p26dc7437b6)" d="M 242.733238 384.48 
L 242.733238 51.84 
" style="fill:none;stroke:#b0b0b0;stroke-dasharray:5.12,1.28,0.8,1.28;stroke-dashoffset:0;stroke-width:0.8;"/>
     </g>
     <g id="line2d_6">
      <g>
       <use style="stroke:#000000;stroke-width:0.8;" x="242.733238" xlink:href="#m430ebfd77e" y="384.48"/>
      </g>
     </g>
     <g id="text_3">
      <!-- 400 -->
      <defs>
       <path d="M 37.796875 64.3125 
L 12.890625 25.390625 
L 37.796875 25.390625 
z
M 35.203125 72.90625 
L 47.609375 72.90625 
L 47.609375 25.390625 
L 58.015625 25.390625 
L 58.015625 17.1875 
L 47.609375 17.1875 
L 47.609375 0 
L 37.796875 0 
L 37.796875 17.1875 
L 4.890625 17.1875 
L 4.890625 26.703125 
z
" id="DejaVuSans-34"/>
      </defs>
      <g transform="translate(233.189488 399.078438)scale(0.1 -0.1)">
       <use xlink:href="#DejaVuSans-34"/>
       <use x="63.623047" xlink:href="#DejaVuSans-30"/>
       <use x="127.246094" xlink:href="#DejaVuSans-30"/>
      </g>
     </g>
    </g>
    <g id="xtick_4">
     <g id="line2d_7">
      <path clip-path="url(#p26dc7437b6)" d="M 317.954402 384.48 
L 317.954402 51.84 
" style="fill:none;stroke:#b0b0b0;stroke-dasharray:5.12,1.28,0.8,1.28;stroke-dashoffset:0;stroke-width:0.8;"/>
     </g>
     <g id="line2d_8">
      <g>
       <use style="stroke:#000000;stroke-width:0.8;" x="317.954402" xlink:href="#m430ebfd77e" y="384.48"/>
      </g>
     </g>
     <g id="text_4">
      <!-- 600 -->
      <defs>
       <path d="M 33.015625 40.375 
Q 26.375 40.375 22.484375 35.828125 
Q 18.609375 31.296875 18.609375 23.390625 
Q 18.609375 15.53125 22.484375 10.953125 
Q 26.375 6.390625 33.015625 6.390625 
Q 39.65625 6.390625 43.53125 10.953125 
Q 47.40625 15.53125 47.40625 23.390625 
Q 47.40625 31.296875 43.53125 35.828125 
Q 39.65625 40.375 33.015625 40.375 
z
M 52.59375 71.296875 
L 52.59375 62.3125 
Q 48.875 64.0625 45.09375 64.984375 
Q 41.3125 65.921875 37.59375 65.921875 
Q 27.828125 65.921875 22.671875 59.328125 
Q 17.53125 52.734375 16.796875 39.40625 
Q 19.671875 43.65625 24.015625 45.921875 
Q 28.375 48.1875 33.59375 48.1875 
Q 44.578125 48.1875 50.953125 41.515625 
Q 57.328125 34.859375 57.328125 23.390625 
Q 57.328125 12.15625 50.6875 5.359375 
Q 44.046875 -1.421875 33.015625 -1.421875 
Q 20.359375 -1.421875 13.671875 8.265625 
Q 6.984375 17.96875 6.984375 36.375 
Q 6.984375 53.65625 15.1875 63.9375 
Q 23.390625 74.21875 37.203125 74.21875 
Q 40.921875 74.21875 44.703125 73.484375 
Q 48.484375 72.75 52.59375 71.296875 
z
" id="DejaVuSans-36"/>
      </defs>
      <g transform="translate(308.410652 399.078438)scale(0.1 -0.1)">
       <use xlink:href="#DejaVuSans-36"/>
       <use x="63.623047" xlink:href="#DejaVuSans-30"/>
       <use x="127.246094" xlink:href="#DejaVuSans-30"/>
      </g>
     </g>
    </g>
    <g id="xtick_5">
     <g id="line2d_9">
      <path clip-path="url(#p26dc7437b6)" d="M 393.175567 384.48 
L 393.175567 51.84 
" style="fill:none;stroke:#b0b0b0;stroke-dasharray:5.12,1.28,0.8,1.28;stroke-dashoffset:0;stroke-width:0.8;"/>
     </g>
     <g id="line2d_10">
      <g>
       <use style="stroke:#000000;stroke-width:0.8;" x="393.175567" xlink:href="#m430ebfd77e" y="384.48"/>
      </g>
     </g>
     <g id="text_5">
      <!-- 800 -->
      <defs>
       <path d="M 31.78125 34.625 
Q 24.75 34.625 20.71875 30.859375 
Q 16.703125 27.09375 16.703125 20.515625 
Q 16.703125 13.921875 20.71875 10.15625 
Q 24.75 6.390625 31.78125 6.390625 
Q 38.8125 6.390625 42.859375 10.171875 
Q 46.921875 13.96875 46.921875 20.515625 
Q 46.921875 27.09375 42.890625 30.859375 
Q 38.875 34.625 31.78125 34.625 
z
M 21.921875 38.8125 
Q 15.578125 40.375 12.03125 44.71875 
Q 8.5 49.078125 8.5 55.328125 
Q 8.5 64.0625 14.71875 69.140625 
Q 20.953125 74.21875 31.78125 74.21875 
Q 42.671875 74.21875 48.875 69.140625 
Q 55.078125 64.0625 55.078125 55.328125 
Q 55.078125 49.078125 51.53125 44.71875 
Q 48 40.375 41.703125 38.8125 
Q 48.828125 37.15625 52.796875 32.3125 
Q 56.78125 27.484375 56.78125 20.515625 
Q 56.78125 9.90625 50.3125 4.234375 
Q 43.84375 -1.421875 31.78125 -1.421875 
Q 19.734375 -1.421875 13.25 4.234375 
Q 6.78125 9.90625 6.78125 20.515625 
Q 6.78125 27.484375 10.78125 32.3125 
Q 14.796875 37.15625 21.921875 38.8125 
z
M 18.3125 54.390625 
Q 18.3125 48.734375 21.84375 45.5625 
Q 25.390625 42.390625 31.78125 42.390625 
Q 38.140625 42.390625 41.71875 45.5625 
Q 45.3125 48.734375 45.3125 54.390625 
Q 45.3125 60.0625 41.71875 63.234375 
Q 38.140625 66.40625 31.78125 66.40625 
Q 25.390625 66.40625 21.84375 63.234375 
Q 18.3125 60.0625 18.3125 54.390625 
z
" id="DejaVuSans-38"/>
      </defs>
      <g transform="translate(383.631817 399.078438)scale(0.1 -0.1)">
       <use xlink:href="#DejaVuSans-38"/>
       <use x="63.623047" xlink:href="#DejaVuSans-30"/>
       <use x="127.246094" xlink:href="#DejaVuSans-30"/>
      </g>
     </g>
    </g>
    <g id="xtick_6">
     <g id="line2d_11">
      <path clip-path="url(#p26dc7437b6)" d="M 468.396731 384.48 
L 468.396731 51.84 
" style="fill:none;stroke:#b0b0b0;stroke-dasharray:5.12,1.28,0.8,1.28;stroke-dashoffset:0;stroke-width:0.8;"/>
     </g>
     <g id="line2d_12">
      <g>
       <use style="stroke:#000000;stroke-width:0.8;" x="468.396731" xlink:href="#m430ebfd77e" y="384.48"/>
      </g>
     </g>
     <g id="text_6">
      <!-- 1000 -->
      <defs>
       <path d="M 12.40625 8.296875 
L 28.515625 8.296875 
L 28.515625 63.921875 
L 10.984375 60.40625 
L 10.984375 69.390625 
L 28.421875 72.90625 
L 38.28125 72.90625 
L 38.28125 8.296875 
L 54.390625 8.296875 
L 54.390625 0 
L 12.40625 0 
z
" id="DejaVuSans-31"/>
      </defs>
      <g transform="translate(455.671731 399.078438)scale(0.1 -0.1)">
       <use xlink:href="#DejaVuSans-31"/>
       <use x="63.623047" xlink:href="#DejaVuSans-30"/>
       <use x="127.246094" xlink:href="#DejaVuSans-30"/>
       <use x="190.869141" xlink:href="#DejaVuSans-30"/>
      </g>
     </g>
    </g>
    <g id="text_7">
     <!-- Iteration -->
     <defs>
      <path d="M 9.8125 72.90625 
L 19.671875 72.90625 
L 19.671875 0 
L 9.8125 0 
z
" id="DejaVuSans-49"/>
      <path d="M 18.3125 70.21875 
L 18.3125 54.6875 
L 36.8125 54.6875 
L 36.8125 47.703125 
L 18.3125 47.703125 
L 18.3125 18.015625 
Q 18.3125 11.328125 20.140625 9.421875 
Q 21.96875 7.515625 27.59375 7.515625 
L 36.8125 7.515625 
L 36.8125 0 
L 27.59375 0 
Q 17.1875 0 13.234375 3.875 
Q 9.28125 7.765625 9.28125 18.015625 
L 9.28125 47.703125 
L 2.6875 47.703125 
L 2.6875 54.6875 
L 9.28125 54.6875 
L 9.28125 70.21875 
z
" id="DejaVuSans-74"/>
      <path d="M 56.203125 29.59375 
L 56.203125 25.203125 
L 14.890625 25.203125 
Q 15.484375 15.921875 20.484375 11.0625 
Q 25.484375 6.203125 34.421875 6.203125 
Q 39.59375 6.203125 44.453125 7.46875 
Q 49.3125 8.734375 54.109375 11.28125 
L 54.109375 2.78125 
Q 49.265625 0.734375 44.1875 -0.34375 
Q 39.109375 -1.421875 33.890625 -1.421875 
Q 20.796875 -1.421875 13.15625 6.1875 
Q 5.515625 13.8125 5.515625 26.8125 
Q 5.515625 40.234375 12.765625 48.109375 
Q 20.015625 56 32.328125 56 
Q 43.359375 56 49.78125 48.890625 
Q 56.203125 41.796875 56.203125 29.59375 
z
M 47.21875 32.234375 
Q 47.125 39.59375 43.09375 43.984375 
Q 39.0625 48.390625 32.421875 48.390625 
Q 24.90625 48.390625 20.390625 44.140625 
Q 15.875 39.890625 15.1875 32.171875 
z
" id="DejaVuSans-65"/>
      <path d="M 41.109375 46.296875 
Q 39.59375 47.171875 37.8125 47.578125 
Q 36.03125 48 33.890625 48 
Q 26.265625 48 22.1875 43.046875 
Q 18.109375 38.09375 18.109375 28.8125 
L 18.109375 0 
L 9.078125 0 
L 9.078125 54.6875 
L 18.109375 54.6875 
L 18.109375 46.1875 
Q 20.953125 51.171875 25.484375 53.578125 
Q 30.03125 56 36.53125 56 
Q 37.453125 56 38.578125 55.875 
Q 39.703125 55.765625 41.0625 55.515625 
z
" id="DejaVuSans-72"/>
      <path d="M 34.28125 27.484375 
Q 23.390625 27.484375 19.1875 25 
Q 14.984375 22.515625 14.984375 16.5 
Q 14.984375 11.71875 18.140625 8.90625 
Q 21.296875 6.109375 26.703125 6.109375 
Q 34.1875 6.109375 38.703125 11.40625 
Q 43.21875 16.703125 43.21875 25.484375 
L 43.21875 27.484375 
z
M 52.203125 31.203125 
L 52.203125 0 
L 43.21875 0 
L 43.21875 8.296875 
Q 40.140625 3.328125 35.546875 0.953125 
Q 30.953125 -1.421875 24.3125 -1.421875 
Q 15.921875 -1.421875 10.953125 3.296875 
Q 6 8.015625 6 15.921875 
Q 6 25.140625 12.171875 29.828125 
Q 18.359375 34.515625 30.609375 34.515625 
L 43.21875 34.515625 
L 43.21875 35.40625 
Q 43.21875 41.609375 39.140625 45 
Q 35.0625 48.390625 27.6875 48.390625 
Q 23 48.390625 18.546875 47.265625 
Q 14.109375 46.140625 10.015625 43.890625 
L 10.015625 52.203125 
Q 14.9375 54.109375 19.578125 55.046875 
Q 24.21875 56 28.609375 56 
Q 40.484375 56 46.34375 49.84375 
Q 52.203125 43.703125 52.203125 31.203125 
z
" id="DejaVuSans-61"/>
      <path d="M 9.421875 54.6875 
L 18.40625 54.6875 
L 18.40625 0 
L 9.421875 0 
z
M 9.421875 75.984375 
L 18.40625 75.984375 
L 18.40625 64.59375 
L 9.421875 64.59375 
z
" id="DejaVuSans-69"/>
      <path d="M 30.609375 48.390625 
Q 23.390625 48.390625 19.1875 42.75 
Q 14.984375 37.109375 14.984375 27.296875 
Q 14.984375 17.484375 19.15625 11.84375 
Q 23.34375 6.203125 30.609375 6.203125 
Q 37.796875 6.203125 41.984375 11.859375 
Q 46.1875 17.53125 46.1875 27.296875 
Q 46.1875 37.015625 41.984375 42.703125 
Q 37.796875 48.390625 30.609375 48.390625 
z
M 30.609375 56 
Q 42.328125 56 49.015625 48.375 
Q 55.71875 40.765625 55.71875 27.296875 
Q 55.71875 13.875 49.015625 6.21875 
Q 42.328125 -1.421875 30.609375 -1.421875 
Q 18.84375 -1.421875 12.171875 6.21875 
Q 5.515625 13.875 5.515625 27.296875 
Q 5.515625 40.765625 12.171875 48.375 
Q 18.84375 56 30.609375 56 
z
" id="DejaVuSans-6f"/>
      <path d="M 54.890625 33.015625 
L 54.890625 0 
L 45.90625 0 
L 45.90625 32.71875 
Q 45.90625 40.484375 42.875 44.328125 
Q 39.84375 48.1875 33.796875 48.1875 
Q 26.515625 48.1875 22.3125 43.546875 
Q 18.109375 38.921875 18.109375 30.90625 
L 18.109375 0 
L 9.078125 0 
L 9.078125 54.6875 
L 18.109375 54.6875 
L 18.109375 46.1875 
Q 21.34375 51.125 25.703125 53.5625 
Q 30.078125 56 35.796875 56 
Q 45.21875 56 50.046875 50.171875 
Q 54.890625 44.34375 54.890625 33.015625 
z
" id="DejaVuSans-6e"/>
     </defs>
     <g transform="translate(265.507969 415.795938)scale(0.14 -0.14)">
      <use xlink:href="#DejaVuSans-49"/>
      <use x="29.492188" xlink:href="#DejaVuSans-74"/>
      <use x="68.701172" xlink:href="#DejaVuSans-65"/>
      <use x="130.224609" xlink:href="#DejaVuSans-72"/>
      <use x="171.337891" xlink:href="#DejaVuSans-61"/>
      <use x="232.617188" xlink:href="#DejaVuSans-74"/>
      <use x="271.826172" xlink:href="#DejaVuSans-69"/>
      <use x="299.609375" xlink:href="#DejaVuSans-6f"/>
      <use x="360.791016" xlink:href="#DejaVuSans-6e"/>
     </g>
    </g>
   </g>
   <g id="matplotlib.axis_2">
    <g id="ytick_1">
     <g id="line2d_13">
      <path clip-path="url(#p26dc7437b6)" d="M 72 383.277992 
L 518.4 383.277992 
" style="fill:none;stroke:#b0b0b0;stroke-dasharray:5.12,1.28,0.8,1.28;stroke-dashoffset:0;stroke-width:0.8;"/>
     </g>
     <g id="line2d_14">
      <defs>
       <path d="M 0 0 
L -3.5 0 
" id="m3ce254468b" style="stroke:#000000;stroke-width:0.8;"/>
      </defs>
      <g>
       <use style="stroke:#000000;stroke-width:0.8;" x="72" xlink:href="#m3ce254468b" y="383.277992"/>
      </g>
     </g>
     <g id="text_8">
      <!-- −0.1 -->
      <defs>
       <path d="M 10.59375 35.5 
L 73.1875 35.5 
L 73.1875 27.203125 
L 10.59375 27.203125 
z
" id="DejaVuSans-2212"/>
       <path d="M 10.6875 12.40625 
L 21 12.40625 
L 21 0 
L 10.6875 0 
z
" id="DejaVuSans-2e"/>
      </defs>
      <g transform="translate(40.717187 387.07721)scale(0.1 -0.1)">
       <use xlink:href="#DejaVuSans-2212"/>
       <use x="83.789062" xlink:href="#DejaVuSans-30"/>
       <use x="147.412109" xlink:href="#DejaVuSans-2e"/>
       <use x="179.199219" xlink:href="#DejaVuSans-31"/>
      </g>
     </g>
    </g>
    <g id="ytick_2">
     <g id="line2d_15">
      <path clip-path="url(#p26dc7437b6)" d="M 72 320.014393 
L 518.4 320.014393 
" style="fill:none;stroke:#b0b0b0;stroke-dasharray:5.12,1.28,0.8,1.28;stroke-dashoffset:0;stroke-width:0.8;"/>
     </g>
     <g id="line2d_16">
      <g>
       <use style="stroke:#000000;stroke-width:0.8;" x="72" xlink:href="#m3ce254468b" y="320.014393"/>
      </g>
     </g>
     <g id="text_9">
      <!-- 0.0 -->
      <g transform="translate(49.096875 323.813612)scale(0.1 -0.1)">
       <use xlink:href="#DejaVuSans-30"/>
       <use x="63.623047" xlink:href="#DejaVuSans-2e"/>
       <use x="95.410156" xlink:href="#DejaVuSans-30"/>
      </g>
     </g>
    </g>
    <g id="ytick_3">
     <g id="line2d_17">
      <path clip-path="url(#p26dc7437b6)" d="M 72 256.750795 
L 518.4 256.750795 
" style="fill:none;stroke:#b0b0b0;stroke-dasharray:5.12,1.28,0.8,1.28;stroke-dashoffset:0;stroke-width:0.8;"/>
     </g>
     <g id="line2d_18">
      <g>
       <use style="stroke:#000000;stroke-width:0.8;" x="72" xlink:href="#m3ce254468b" y="256.750795"/>
      </g>
     </g>
     <g id="text_10">
      <!-- 0.1 -->
      <g transform="translate(49.096875 260.550014)scale(0.1 -0.1)">
       <use xlink:href="#DejaVuSans-30"/>
       <use x="63.623047" xlink:href="#DejaVuSans-2e"/>
       <use x="95.410156" xlink:href="#DejaVuSans-31"/>
      </g>
     </g>
    </g>
    <g id="ytick_4">
     <g id="line2d_19">
      <path clip-path="url(#p26dc7437b6)" d="M 72 193.487197 
L 518.4 193.487197 
" style="fill:none;stroke:#b0b0b0;stroke-dasharray:5.12,1.28,0.8,1.28;stroke-dashoffset:0;stroke-width:0.8;"/>
     </g>
     <g id="line2d_20">
      <g>
       <use style="stroke:#000000;stroke-width:0.8;" x="72" xlink:href="#m3ce254468b" y="193.487197"/>
      </g>
     </g>
     <g id="text_11">
      <!-- 0.2 -->
      <g transform="translate(49.096875 197.286415)scale(0.1 -0.1)">
       <use xlink:href="#DejaVuSans-30"/>
       <use x="63.623047" xlink:href="#DejaVuSans-2e"/>
       <use x="95.410156" xlink:href="#DejaVuSans-32"/>
      </g>
     </g>
    </g>
    <g id="ytick_5">
     <g id="line2d_21">
      <path clip-path="url(#p26dc7437b6)" d="M 72 130.223598 
L 518.4 130.223598 
" style="fill:none;stroke:#b0b0b0;stroke-dasharray:5.12,1.28,0.8,1.28;stroke-dashoffset:0;stroke-width:0.8;"/>
     </g>
     <g id="line2d_22">
      <g>
       <use style="stroke:#000000;stroke-width:0.8;" x="72" xlink:href="#m3ce254468b" y="130.223598"/>
      </g>
     </g>
     <g id="text_12">
      <!-- 0.3 -->
      <defs>
       <path d="M 40.578125 39.3125 
Q 47.65625 37.796875 51.625 33 
Q 55.609375 28.21875 55.609375 21.1875 
Q 55.609375 10.40625 48.1875 4.484375 
Q 40.765625 -1.421875 27.09375 -1.421875 
Q 22.515625 -1.421875 17.65625 -0.515625 
Q 12.796875 0.390625 7.625 2.203125 
L 7.625 11.71875 
Q 11.71875 9.328125 16.59375 8.109375 
Q 21.484375 6.890625 26.8125 6.890625 
Q 36.078125 6.890625 40.9375 10.546875 
Q 45.796875 14.203125 45.796875 21.1875 
Q 45.796875 27.640625 41.28125 31.265625 
Q 36.765625 34.90625 28.71875 34.90625 
L 20.21875 34.90625 
L 20.21875 43.015625 
L 29.109375 43.015625 
Q 36.375 43.015625 40.234375 45.921875 
Q 44.09375 48.828125 44.09375 54.296875 
Q 44.09375 59.90625 40.109375 62.90625 
Q 36.140625 65.921875 28.71875 65.921875 
Q 24.65625 65.921875 20.015625 65.03125 
Q 15.375 64.15625 9.8125 62.3125 
L 9.8125 71.09375 
Q 15.4375 72.65625 20.34375 73.4375 
Q 25.25 74.21875 29.59375 74.21875 
Q 40.828125 74.21875 47.359375 69.109375 
Q 53.90625 64.015625 53.90625 55.328125 
Q 53.90625 49.265625 50.4375 45.09375 
Q 46.96875 40.921875 40.578125 39.3125 
z
" id="DejaVuSans-33"/>
      </defs>
      <g transform="translate(49.096875 134.022817)scale(0.1 -0.1)">
       <use xlink:href="#DejaVuSans-30"/>
       <use x="63.623047" xlink:href="#DejaVuSans-2e"/>
       <use x="95.410156" xlink:href="#DejaVuSans-33"/>
      </g>
     </g>
    </g>
    <g id="ytick_6">
     <g id="line2d_23">
      <path clip-path="url(#p26dc7437b6)" d="M 72 66.96 
L 518.4 66.96 
" style="fill:none;stroke:#b0b0b0;stroke-dasharray:5.12,1.28,0.8,1.28;stroke-dashoffset:0;stroke-width:0.8;"/>
     </g>
     <g id="line2d_24">
      <g>
       <use style="stroke:#000000;stroke-width:0.8;" x="72" xlink:href="#m3ce254468b" y="66.96"/>
      </g>
     </g>
     <g id="text_13">
      <!-- 0.4 -->
      <g transform="translate(49.096875 70.759219)scale(0.1 -0.1)">
       <use xlink:href="#DejaVuSans-30"/>
       <use x="63.623047" xlink:href="#DejaVuSans-2e"/>
       <use x="95.410156" xlink:href="#DejaVuSans-34"/>
      </g>
     </g>
    </g>
    <g id="text_14">
     <!-- dif_lambda -->
     <defs>
      <path d="M 45.40625 46.390625 
L 45.40625 75.984375 
L 54.390625 75.984375 
L 54.390625 0 
L 45.40625 0 
L 45.40625 8.203125 
Q 42.578125 3.328125 38.25 0.953125 
Q 33.9375 -1.421875 27.875 -1.421875 
Q 17.96875 -1.421875 11.734375 6.484375 
Q 5.515625 14.40625 5.515625 27.296875 
Q 5.515625 40.1875 11.734375 48.09375 
Q 17.96875 56 27.875 56 
Q 33.9375 56 38.25 53.625 
Q 42.578125 51.265625 45.40625 46.390625 
z
M 14.796875 27.296875 
Q 14.796875 17.390625 18.875 11.75 
Q 22.953125 6.109375 30.078125 6.109375 
Q 37.203125 6.109375 41.296875 11.75 
Q 45.40625 17.390625 45.40625 27.296875 
Q 45.40625 37.203125 41.296875 42.84375 
Q 37.203125 48.484375 30.078125 48.484375 
Q 22.953125 48.484375 18.875 42.84375 
Q 14.796875 37.203125 14.796875 27.296875 
z
" id="DejaVuSans-64"/>
      <path d="M 37.109375 75.984375 
L 37.109375 68.5 
L 28.515625 68.5 
Q 23.6875 68.5 21.796875 66.546875 
Q 19.921875 64.59375 19.921875 59.515625 
L 19.921875 54.6875 
L 34.71875 54.6875 
L 34.71875 47.703125 
L 19.921875 47.703125 
L 19.921875 0 
L 10.890625 0 
L 10.890625 47.703125 
L 2.296875 47.703125 
L 2.296875 54.6875 
L 10.890625 54.6875 
L 10.890625 58.5 
Q 10.890625 67.625 15.140625 71.796875 
Q 19.390625 75.984375 28.609375 75.984375 
z
" id="DejaVuSans-66"/>
      <path d="M 50.984375 -16.609375 
L 50.984375 -23.578125 
L -0.984375 -23.578125 
L -0.984375 -16.609375 
z
" id="DejaVuSans-5f"/>
      <path d="M 9.421875 75.984375 
L 18.40625 75.984375 
L 18.40625 0 
L 9.421875 0 
z
" id="DejaVuSans-6c"/>
      <path d="M 52 44.1875 
Q 55.375 50.25 60.0625 53.125 
Q 64.75 56 71.09375 56 
Q 79.640625 56 84.28125 50.015625 
Q 88.921875 44.046875 88.921875 33.015625 
L 88.921875 0 
L 79.890625 0 
L 79.890625 32.71875 
Q 79.890625 40.578125 77.09375 44.375 
Q 74.3125 48.1875 68.609375 48.1875 
Q 61.625 48.1875 57.5625 43.546875 
Q 53.515625 38.921875 53.515625 30.90625 
L 53.515625 0 
L 44.484375 0 
L 44.484375 32.71875 
Q 44.484375 40.625 41.703125 44.40625 
Q 38.921875 48.1875 33.109375 48.1875 
Q 26.21875 48.1875 22.15625 43.53125 
Q 18.109375 38.875 18.109375 30.90625 
L 18.109375 0 
L 9.078125 0 
L 9.078125 54.6875 
L 18.109375 54.6875 
L 18.109375 46.1875 
Q 21.1875 51.21875 25.484375 53.609375 
Q 29.78125 56 35.6875 56 
Q 41.65625 56 45.828125 52.96875 
Q 50 49.953125 52 44.1875 
z
" id="DejaVuSans-6d"/>
      <path d="M 48.6875 27.296875 
Q 48.6875 37.203125 44.609375 42.84375 
Q 40.53125 48.484375 33.40625 48.484375 
Q 26.265625 48.484375 22.1875 42.84375 
Q 18.109375 37.203125 18.109375 27.296875 
Q 18.109375 17.390625 22.1875 11.75 
Q 26.265625 6.109375 33.40625 6.109375 
Q 40.53125 6.109375 44.609375 11.75 
Q 48.6875 17.390625 48.6875 27.296875 
z
M 18.109375 46.390625 
Q 20.953125 51.265625 25.265625 53.625 
Q 29.59375 56 35.59375 56 
Q 45.5625 56 51.78125 48.09375 
Q 58.015625 40.1875 58.015625 27.296875 
Q 58.015625 14.40625 51.78125 6.484375 
Q 45.5625 -1.421875 35.59375 -1.421875 
Q 29.59375 -1.421875 25.265625 0.953125 
Q 20.953125 3.328125 18.109375 8.203125 
L 18.109375 0 
L 9.078125 0 
L 9.078125 75.984375 
L 18.109375 75.984375 
z
" id="DejaVuSans-62"/>
     </defs>
     <g transform="translate(33.41625 256.743125)rotate(-90)scale(0.14 -0.14)">
      <use xlink:href="#DejaVuSans-64"/>
      <use x="63.476562" xlink:href="#DejaVuSans-69"/>
      <use x="91.259766" xlink:href="#DejaVuSans-66"/>
      <use x="126.464844" xlink:href="#DejaVuSans-5f"/>
      <use x="176.464844" xlink:href="#DejaVuSans-6c"/>
      <use x="204.248047" xlink:href="#DejaVuSans-61"/>
      <use x="265.527344" xlink:href="#DejaVuSans-6d"/>
      <use x="362.939453" xlink:href="#DejaVuSans-62"/>
      <use x="426.416016" xlink:href="#DejaVuSans-64"/>
      <use x="489.892578" xlink:href="#DejaVuSans-61"/>
     </g>
    </g>
   </g>
   <g id="line2d_25">
    <path clip-path="url(#p26dc7437b6)" d="M 92.290909 320.014393 
L 92.667015 320.014393 
L 93.043121 320.014393 
L 93.419227 316.028787 
L 94.92365 296.353808 
L 95.675861 289.647866 
L 96.428073 284.839833 
L 97.180285 281.423598 
L 97.932496 278.956318 
L 98.684708 277.121674 
L 99.813026 275.223766 
L 100.941343 274.021757 
L 102.821872 272.883013 
L 104.702401 272.31364 
L 106.58293 272.060586 
L 107.711248 271.997322 
L 108.463459 271.934059 
L 108.839565 284.27046 
L 109.215671 291.039665 
L 109.591777 295.34159 
L 110.343989 300.592469 
L 111.0962 303.882176 
L 111.848412 306.222929 
L 112.976729 308.943264 
L 113.728941 310.335063 
L 114.105047 310.967699 
L 114.481153 317.420586 
L 114.857258 313.055397 
L 115.233364 310.777908 
L 115.60947 309.449372 
L 116.361682 307.931046 
L 117.489999 306.349456 
L 121.251057 302.047531 
L 121.627163 301.66795 
L 122.755481 292.87431 
L 123.507692 289.647866 
L 124.259904 287.813222 
L 125.012116 286.801004 
L 125.764327 286.231632 
L 126.516539 285.915314 
L 127.268751 285.725523 
L 128.397068 285.598996 
L 150.963417 285.535732 
L 151.339523 285.788787 
L 151.715629 286.358159 
L 152.467841 288.382594 
L 153.596158 292.621255 
L 156.228899 303.24954 
L 156.98111 305.71682 
L 157.733322 307.171883 
L 158.86164 308.753473 
L 162.246592 312.612552 
L 166.383756 316.661423 
L 171.273132 320.647029 
L 176.162507 323.810209 
L 180.675777 326.024435 
L 185.565153 327.606025 
L 187.069576 327.922343 
L 187.821788 328.112134 
L 190.830634 328.554979 
L 191.958952 328.618243 
L 192.711164 328.681506 
L 198.728857 328.618243 
L 199.857174 328.491715 
L 200.609386 328.428452 
L 202.866021 328.112134 
L 203.618232 328.04887 
L 208.131502 327.226444 
L 208.883714 327.036653 
L 210.764243 326.657071 
L 211.516455 326.46728 
L 212.644772 326.214226 
L 213.77309 325.897908 
L 214.901407 325.644854 
L 216.029724 325.328536 
L 217.158042 325.075481 
L 218.286359 324.759163 
L 219.414677 324.506109 
L 220.542994 324.189791 
L 221.671312 323.936736 
L 223.175735 323.493891 
L 224.304053 323.240837 
L 225.43237 322.924519 
L 226.936793 322.608201 
L 228.065111 322.291883 
L 229.569534 321.975565 
L 230.321746 321.785774 
L 231.826169 321.469456 
L 232.578381 321.279665 
L 234.835016 320.83682 
L 235.587227 320.647029 
L 245.365979 319.065439 
L 246.11819 319.002176 
L 247.622614 318.812385 
L 248.750931 318.749121 
L 250.255354 318.559331 
L 251.383672 318.496067 
L 252.511989 318.36954 
L 254.392518 318.306276 
L 255.14473 318.243013 
L 257.025259 318.179749 
L 257.777471 318.116485 
L 263.042952 318.053222 
L 263.795164 317.989958 
L 269.060645 318.053222 
L 269.812857 318.116485 
L 273.197809 318.179749 
L 273.950021 318.243013 
L 276.206656 318.306276 
L 276.958868 318.36954 
L 278.839397 318.432803 
L 279.591608 318.496067 
L 281.096032 318.559331 
L 281.848243 318.622594 
L 283.352667 318.685858 
L 284.104878 318.749121 
L 285.609302 318.812385 
L 286.361513 318.875649 
L 287.865936 318.938912 
L 288.618148 319.002176 
L 289.746466 319.065439 
L 290.498677 319.128703 
L 292.003101 319.191967 
L 292.755312 319.25523 
L 294.259735 319.318494 
L 295.011947 319.381757 
L 296.51637 319.445021 
L 297.268582 319.508285 
L 298.773005 319.571548 
L 299.525217 319.634812 
L 301.405746 319.698075 
L 302.157958 319.761339 
L 304.038487 319.824603 
L 304.790698 319.887866 
L 307.047333 319.95113 
L 307.799545 320.014393 
L 310.432286 320.077657 
L 311.184497 320.140921 
L 314.56945 320.204184 
L 315.321661 320.267448 
L 319.834931 320.330711 
L 320.587143 320.393975 
L 353.308349 320.330711 
L 354.060561 320.267448 
L 362.710995 320.204184 
L 363.463207 320.140921 
L 373.241958 320.077657 
L 373.99417 320.014393 
L 393.551672 319.95113 
L 394.303884 319.887866 
L 433.042784 319.95113 
L 433.794995 320.014393 
L 498.109091 320.014393 
L 498.109091 320.014393 
" style="fill:none;stroke:#bf00bf;stroke-linecap:square;stroke-width:1.5;"/>
   </g>
   <g id="line2d_26">
    <path clip-path="url(#p26dc7437b6)" d="M 92.290909 320.014393 
L 92.667015 320.014393 
L 93.043121 320.014393 
L 93.419227 288.382594 
L 93.795332 270.099414 
L 94.171438 259.028285 
L 94.547544 252.006025 
L 95.299756 243.591967 
L 96.051967 238.467615 
L 96.804179 234.86159 
L 97.556391 232.141255 
L 98.308602 230.053556 
L 99.43692 227.839331 
L 100.189131 226.763849 
L 101.693555 225.37205 
L 103.574084 224.48636 
L 104.702401 224.170042 
L 107.335142 223.79046 
L 108.839565 223.727197 
L 109.215671 226.827113 
L 111.0962 246.375565 
L 112.224518 255.358996 
L 113.352835 262.571046 
L 114.481153 268.644351 
L 114.857258 260.989456 
L 116.361682 284.460251 
L 118.242211 310.841172 
L 120.12274 334.628285 
L 122.003269 355.82159 
L 122.755481 361.578577 
L 123.507692 364.741757 
L 124.259904 366.576402 
L 125.012116 367.588619 
L 125.764327 368.157992 
L 126.516539 368.47431 
L 127.268751 368.6641 
L 128.773174 368.853891 
L 150.963417 368.917155 
L 151.715629 369.36 
L 152.091735 369.36 
L 152.467841 369.170209 
L 153.220052 368.221255 
L 154.34837 366.133556 
L 156.605005 361.388787 
L 157.357216 359.933724 
L 158.109428 358.099079 
L 159.237745 354.366527 
L 160.366063 349.621757 
L 161.870486 342.030126 
L 163.751015 331.085523 
L 166.383756 314.573724 
L 170.897026 286.421423 
L 173.153661 273.642176 
L 175.410296 262.064937 
L 177.666931 251.942762 
L 179.171354 245.995983 
L 181.051883 239.60636 
L 182.556306 235.304435 
L 183.684624 232.457573 
L 185.189047 229.357657 
L 186.317365 227.459749 
L 187.445682 225.878159 
L 189.326211 224.106778 
L 190.078423 223.663933 
L 191.582846 223.221088 
L 192.711164 223.221088 
L 194.591693 223.916987 
L 196.096116 225.055732 
L 196.848328 225.751632 
L 198.728857 228.092385 
L 199.857174 229.737238 
L 200.985492 231.635146 
L 202.113809 233.659582 
L 204.74655 239.100251 
L 208.507608 248.210209 
L 210.764243 254.156987 
L 214.149195 263.583264 
L 223.551841 290.153975 
L 227.689005 300.97205 
L 230.321746 307.361674 
L 232.954486 313.308452 
L 237.467756 322.228619 
L 241.228815 328.365188 
L 243.109344 331.022259 
L 244.613767 332.920167 
L 246.494296 335.007866 
L 248.750931 337.158828 
L 250.63146 338.613891 
L 252.888095 340.00569 
L 254.768624 340.891381 
L 257.401365 341.713808 
L 260.034106 342.093389 
L 262.666846 342.030126 
L 266.80401 341.270962 
L 270.565069 339.942427 
L 272.445598 339.056736 
L 273.197809 338.740418 
L 275.83055 337.348619 
L 277.711079 336.209874 
L 278.839397 335.577238 
L 282.600455 333.173222 
L 283.352667 332.730377 
L 290.498677 328.04887 
L 291.250889 327.606025 
L 294.259735 325.708117 
L 295.388053 325.075481 
L 296.892476 324.189791 
L 298.396899 323.367364 
L 299.525217 322.734728 
L 304.414593 320.330711 
L 305.166804 320.014393 
L 306.295122 319.508285 
L 308.175651 318.812385 
L 308.927862 318.496067 
L 313.065027 317.167531 
L 313.817238 316.977741 
L 314.945556 316.661423 
L 316.826085 316.281841 
L 317.578296 316.09205 
L 322.467672 315.332887 
L 323.59599 315.269623 
L 324.724307 315.143096 
L 326.22873 315.079833 
L 326.980942 315.016569 
L 334.879164 315.079833 
L 336.007482 315.20636 
L 337.511905 315.269623 
L 338.640222 315.396151 
L 339.392434 315.459414 
L 340.520752 315.585941 
L 341.272963 315.649205 
L 342.777386 315.838996 
L 343.529598 315.902259 
L 345.786233 316.218577 
L 346.538445 316.281841 
L 350.299503 316.851213 
L 351.051715 316.914477 
L 357.069408 317.863431 
L 357.821619 317.926695 
L 362.334889 318.622594 
L 363.087101 318.685858 
L 366.095947 319.128703 
L 366.848159 319.191967 
L 368.728688 319.445021 
L 369.4809 319.508285 
L 371.361429 319.761339 
L 372.489746 319.824603 
L 374.370276 320.077657 
L 375.498593 320.140921 
L 376.62691 320.267448 
L 377.755228 320.330711 
L 378.883545 320.457238 
L 380.011863 320.520502 
L 380.764074 320.583766 
L 381.892392 320.647029 
L 382.644604 320.710293 
L 384.149027 320.773556 
L 384.901239 320.83682 
L 386.781768 320.900084 
L 387.533979 320.963347 
L 390.542826 321.026611 
L 391.295037 321.089874 
L 410.476434 321.026611 
L 411.228646 320.963347 
L 414.989704 320.900084 
L 415.741916 320.83682 
L 419.126868 320.773556 
L 419.87908 320.710293 
L 422.887927 320.647029 
L 423.640138 320.583766 
L 426.648985 320.520502 
L 427.401196 320.457238 
L 430.410043 320.393975 
L 431.162255 320.330711 
L 434.171101 320.267448 
L 434.923313 320.204184 
L 438.684371 320.140921 
L 439.436583 320.077657 
L 444.325958 320.014393 
L 445.07817 319.95113 
L 451.471969 319.887866 
L 452.224181 319.824603 
L 496.980773 319.887866 
L 497.732985 319.95113 
L 498.109091 319.95113 
L 498.109091 319.95113 
" style="fill:none;stroke:#00bfbf;stroke-linecap:square;stroke-width:1.5;"/>
   </g>
   <g id="line2d_27">
    <path clip-path="url(#p26dc7437b6)" d="M 92.290909 320.014393 
L 92.667015 320.014393 
L 93.043121 66.96 
L 93.419227 118.393305 
L 93.795332 150.278159 
L 94.171438 170.649038 
L 94.547544 183.934393 
L 94.92365 192.981088 
L 95.675861 203.862427 
L 96.428073 209.998996 
L 97.180285 213.794812 
L 97.932496 216.451883 
L 98.684708 218.286527 
L 99.813026 220.184435 
L 100.941343 221.386444 
L 101.693555 221.955816 
L 103.197978 222.651715 
L 104.702401 223.094561 
L 106.959036 223.410879 
L 108.839565 223.474142 
L 109.215671 223.916987 
L 109.591777 224.739414 
L 110.343989 227.333222 
L 111.848412 234.671799 
L 114.105047 246.881674 
L 114.481153 254.72636 
L 115.233364 252.575397 
L 115.985576 251.689707 
L 116.737788 251.310126 
L 117.489999 251.120335 
L 118.242211 251.057071 
L 150.587311 250.993808 
L 150.963417 253.208033 
L 152.091735 263.583264 
L 153.596158 277.627782 
L 155.100581 289.71113 
L 156.605005 299.833305 
L 158.109428 308.310628 
L 159.613851 315.269623 
L 161.118274 320.963347 
L 162.622698 325.644854 
L 164.127121 329.377406 
L 165.631544 332.477322 
L 167.512073 335.450711 
L 169.016497 337.348619 
L 170.52092 338.740418 
L 172.025343 339.879163 
L 174.281978 340.954644 
L 175.786402 341.39749 
L 177.290825 341.58728 
L 179.923566 341.524017 
L 182.556306 341.017908 
L 186.317365 339.689372 
L 191.582846 336.969038 
L 194.215587 335.324184 
L 194.967798 334.881339 
L 206.627079 327.16318 
L 207.379291 326.720335 
L 210.012031 325.075481 
L 210.764243 324.632636 
L 212.268666 323.746946 
L 214.149195 322.734728 
L 215.277513 322.102092 
L 219.414677 320.077657 
L 220.166889 319.761339 
L 221.295206 319.25523 
L 223.175735 318.559331 
L 223.927947 318.243013 
L 228.065111 316.914477 
L 229.193428 316.661423 
L 230.321746 316.345105 
L 233.330592 315.775732 
L 234.082804 315.585941 
L 234.835016 315.522678 
L 237.467756 315.143096 
L 238.596074 315.079833 
L 239.724391 314.953305 
L 241.60492 314.890042 
L 242.357132 314.826778 
L 248.374825 314.890042 
L 249.127037 314.953305 
L 250.255354 315.016569 
L 251.007566 315.079833 
L 252.135883 315.143096 
L 253.640307 315.332887 
L 254.768624 315.396151 
L 256.649153 315.649205 
L 257.401365 315.712469 
L 259.658 316.028787 
L 260.410211 316.09205 
L 264.923481 316.78795 
L 265.675693 316.851213 
L 273.197809 318.053222 
L 273.950021 318.116485 
L 278.839397 318.875649 
L 279.591608 318.938912 
L 282.224349 319.318494 
L 282.976561 319.381757 
L 284.85709 319.634812 
L 285.609302 319.698075 
L 287.113725 319.887866 
L 287.865936 319.95113 
L 288.994254 320.077657 
L 289.746466 320.140921 
L 290.874783 320.267448 
L 292.003101 320.330711 
L 293.131418 320.457238 
L 294.259735 320.520502 
L 295.011947 320.583766 
L 296.140265 320.647029 
L 296.892476 320.710293 
L 298.396899 320.773556 
L 299.149111 320.83682 
L 300.653534 320.900084 
L 301.405746 320.963347 
L 304.038487 321.026611 
L 304.790698 321.089874 
L 309.680074 321.153138 
L 310.432286 321.216402 
L 320.963249 321.153138 
L 321.71546 321.089874 
L 326.22873 321.026611 
L 326.980942 320.963347 
L 330.365894 320.900084 
L 331.118106 320.83682 
L 334.126953 320.773556 
L 334.879164 320.710293 
L 337.888011 320.647029 
L 338.640222 320.583766 
L 341.272963 320.520502 
L 342.025175 320.457238 
L 345.034021 320.393975 
L 345.786233 320.330711 
L 349.171185 320.267448 
L 349.923397 320.204184 
L 353.308349 320.140921 
L 354.060561 320.077657 
L 358.573831 320.014393 
L 359.326043 319.95113 
L 365.343736 319.887866 
L 366.095947 319.824603 
L 411.980858 319.887866 
L 412.733069 319.95113 
L 433.042784 320.014393 
L 433.794995 320.077657 
L 498.109091 320.014393 
L 498.109091 320.014393 
" style="fill:none;stroke:#ff0000;stroke-linecap:square;stroke-width:1.5;"/>
   </g>
   <g id="line2d_28">
    <path clip-path="url(#p26dc7437b6)" d="M 92.290909 320.014393 
L 92.667015 320.014393 
L 93.043121 320.014393 
L 93.419227 288.382594 
L 93.795332 271.111632 
L 94.171438 262.128201 
L 94.547544 257.88954 
L 94.92365 256.434477 
L 95.299756 256.434477 
L 95.675861 257.256904 
L 96.428073 259.724184 
L 97.556391 263.456736 
L 98.684708 266.240335 
L 99.43692 267.632134 
L 100.565237 269.087197 
L 102.06966 270.289205 
L 103.197978 270.795314 
L 104.702401 271.238159 
L 107.335142 271.617741 
L 109.215671 271.681004 
L 109.591777 271.744268 
L 110.343989 272.187113 
L 111.0962 273.072803 
L 111.848412 274.338075 
L 112.976729 276.742092 
L 114.481153 280.537908 
L 114.857258 282.246025 
L 115.233364 283.38477 
L 115.985576 284.586778 
L 116.737788 285.092887 
L 117.866105 285.409205 
L 120.874952 285.472469 
L 121.627163 285.535732 
L 150.587311 285.535732 
L 150.963417 294.329372 
L 151.339523 299.263933 
L 152.091735 304.641339 
L 152.843946 307.931046 
L 153.972264 311.663598 
L 155.476687 315.712469 
L 156.98111 319.002176 
L 158.485534 321.659247 
L 159.989957 323.810209 
L 161.870486 325.897908 
L 164.503227 328.04887 
L 165.631544 328.681506 
L 166.759862 329.314142 
L 170.52092 330.516151 
L 173.529767 330.958996 
L 177.666931 330.895732 
L 179.171354 330.705941 
L 179.923566 330.642678 
L 183.684624 329.946778 
L 184.812941 329.63046 
L 185.941259 329.377406 
L 187.069576 329.061088 
L 187.821788 328.871297 
L 190.454529 328.04887 
L 191.20674 327.859079 
L 206.627079 322.734728 
L 207.379291 322.544937 
L 210.012031 321.72251 
L 210.764243 321.53272 
L 211.89256 321.216402 
L 212.644772 321.026611 
L 213.77309 320.710293 
L 215.277513 320.393975 
L 216.40583 320.077657 
L 218.662465 319.634812 
L 219.414677 319.445021 
L 227.312899 318.179749 
L 228.065111 318.116485 
L 229.569534 317.926695 
L 230.697852 317.863431 
L 231.826169 317.736904 
L 232.954486 317.67364 
L 233.706698 317.610377 
L 235.587227 317.547113 
L 236.339439 317.483849 
L 240.852709 317.420586 
L 241.60492 317.357322 
L 246.11819 317.420586 
L 246.870402 317.483849 
L 249.503143 317.547113 
L 250.255354 317.610377 
L 252.135883 317.67364 
L 252.888095 317.736904 
L 254.392518 317.800167 
L 255.520836 317.926695 
L 257.025259 317.989958 
L 257.777471 318.053222 
L 258.905788 318.116485 
L 260.034106 318.243013 
L 261.538529 318.306276 
L 262.666846 318.432803 
L 264.17127 318.496067 
L 265.299587 318.622594 
L 266.427905 318.685858 
L 267.556222 318.812385 
L 269.060645 318.875649 
L 270.188963 319.002176 
L 271.31728 319.065439 
L 272.445598 319.191967 
L 273.950021 319.25523 
L 275.078339 319.381757 
L 276.582762 319.445021 
L 277.334973 319.508285 
L 278.463291 319.571548 
L 279.215503 319.634812 
L 280.34382 319.698075 
L 281.096032 319.761339 
L 282.600455 319.824603 
L 283.352667 319.887866 
L 284.85709 319.95113 
L 285.609302 320.014393 
L 287.489831 320.077657 
L 288.242042 320.140921 
L 290.122571 320.204184 
L 290.874783 320.267448 
L 293.88363 320.330711 
L 294.635841 320.393975 
L 298.396899 320.457238 
L 299.149111 320.520502 
L 328.861471 320.457238 
L 329.613683 320.393975 
L 336.007482 320.330711 
L 336.759693 320.267448 
L 343.153492 320.204184 
L 343.905704 320.140921 
L 351.803926 320.077657 
L 352.556138 320.014393 
L 364.96763 319.95113 
L 365.719842 319.887866 
L 413.485281 319.95113 
L 414.237493 320.014393 
L 498.109091 320.014393 
L 498.109091 320.014393 
" style="fill:none;stroke:#008000;stroke-linecap:square;stroke-width:1.5;"/>
   </g>
   <g id="patch_3">
    <path d="M 72 384.48 
L 72 51.84 
" style="fill:none;stroke:#000000;stroke-linecap:square;stroke-linejoin:miter;stroke-width:0.8;"/>
   </g>
   <g id="patch_4">
    <path d="M 518.4 384.48 
L 518.4 51.84 
" style="fill:none;stroke:#000000;stroke-linecap:square;stroke-linejoin:miter;stroke-width:0.8;"/>
   </g>
   <g id="patch_5">
    <path d="M 72 384.48 
L 518.4 384.48 
" style="fill:none;stroke:#000000;stroke-linecap:square;stroke-linejoin:miter;stroke-width:0.8;"/>
   </g>
   <g id="patch_6">
    <path d="M 72 51.84 
L 518.4 51.84 
" style="fill:none;stroke:#000000;stroke-linecap:square;stroke-linejoin:miter;stroke-width:0.8;"/>
   </g>
   <g id="text_15">
    <!-- dif_lambda -->
    <g transform="translate(256.616875 45.84)scale(0.14 -0.14)">
     <use xlink:href="#DejaVuSans-64"/>
     <use x="63.476562" xlink:href="#DejaVuSans-69"/>
     <use x="91.259766" xlink:href="#DejaVuSans-66"/>
     <use x="126.464844" xlink:href="#DejaVuSans-5f"/>
     <use x="176.464844" xlink:href="#DejaVuSans-6c"/>
     <use x="204.248047" xlink:href="#DejaVuSans-61"/>
     <use x="265.527344" xlink:href="#DejaVuSans-6d"/>
     <use x="362.939453" xlink:href="#DejaVuSans-62"/>
     <use x="426.416016" xlink:href="#DejaVuSans-64"/>
     <use x="489.892578" xlink:href="#DejaVuSans-61"/>
    </g>
   </g>
   <g id="legend_1">
    <g id="patch_7">
     <path d="M 417.91875 119.665 
L 511.4 119.665 
Q 513.4 119.665 513.4 117.665 
L 513.4 58.84 
Q 513.4 56.84 511.4 56.84 
L 417.91875 56.84 
Q 415.91875 56.84 415.91875 58.84 
L 415.91875 117.665 
Q 415.91875 119.665 417.91875 119.665 
z
" style="fill:#ffffff;opacity:0.8;stroke:#cccccc;stroke-linejoin:miter;"/>
    </g>
    <g id="line2d_29">
     <path d="M 419.91875 64.938437 
L 439.91875 64.938437 
" style="fill:none;stroke:#bf00bf;stroke-linecap:square;stroke-width:1.5;"/>
    </g>
    <g id="line2d_30"/>
    <g id="text_16">
     <!-- dif_lambda1 -->
     <g transform="translate(447.91875 68.438437)scale(0.1 -0.1)">
      <use xlink:href="#DejaVuSans-64"/>
      <use x="63.476562" xlink:href="#DejaVuSans-69"/>
      <use x="91.259766" xlink:href="#DejaVuSans-66"/>
      <use x="126.464844" xlink:href="#DejaVuSans-5f"/>
      <use x="176.464844" xlink:href="#DejaVuSans-6c"/>
      <use x="204.248047" xlink:href="#DejaVuSans-61"/>
      <use x="265.527344" xlink:href="#DejaVuSans-6d"/>
      <use x="362.939453" xlink:href="#DejaVuSans-62"/>
      <use x="426.416016" xlink:href="#DejaVuSans-64"/>
      <use x="489.892578" xlink:href="#DejaVuSans-61"/>
      <use x="551.171875" xlink:href="#DejaVuSans-31"/>
     </g>
    </g>
    <g id="line2d_31">
     <path d="M 419.91875 79.894687 
L 439.91875 79.894687 
" style="fill:none;stroke:#00bfbf;stroke-linecap:square;stroke-width:1.5;"/>
    </g>
    <g id="line2d_32"/>
    <g id="text_17">
     <!-- dif_lambda2 -->
     <g transform="translate(447.91875 83.394687)scale(0.1 -0.1)">
      <use xlink:href="#DejaVuSans-64"/>
      <use x="63.476562" xlink:href="#DejaVuSans-69"/>
      <use x="91.259766" xlink:href="#DejaVuSans-66"/>
      <use x="126.464844" xlink:href="#DejaVuSans-5f"/>
      <use x="176.464844" xlink:href="#DejaVuSans-6c"/>
      <use x="204.248047" xlink:href="#DejaVuSans-61"/>
      <use x="265.527344" xlink:href="#DejaVuSans-6d"/>
      <use x="362.939453" xlink:href="#DejaVuSans-62"/>
      <use x="426.416016" xlink:href="#DejaVuSans-64"/>
      <use x="489.892578" xlink:href="#DejaVuSans-61"/>
      <use x="551.171875" xlink:href="#DejaVuSans-32"/>
     </g>
    </g>
    <g id="line2d_33">
     <path d="M 419.91875 94.850937 
L 439.91875 94.850937 
" style="fill:none;stroke:#ff0000;stroke-linecap:square;stroke-width:1.5;"/>
    </g>
    <g id="line2d_34"/>
    <g id="text_18">
     <!-- dif_lambda3 -->
     <g transform="translate(447.91875 98.350937)scale(0.1 -0.1)">
      <use xlink:href="#DejaVuSans-64"/>
      <use x="63.476562" xlink:href="#DejaVuSans-69"/>
      <use x="91.259766" xlink:href="#DejaVuSans-66"/>
      <use x="126.464844" xlink:href="#DejaVuSans-5f"/>
      <use x="176.464844" xlink:href="#DejaVuSans-6c"/>
      <use x="204.248047" xlink:href="#DejaVuSans-61"/>
      <use x="265.527344" xlink:href="#DejaVuSans-6d"/>
      <use x="362.939453" xlink:href="#DejaVuSans-62"/>
      <use x="426.416016" xlink:href="#DejaVuSans-64"/>
      <use x="489.892578" xlink:href="#DejaVuSans-61"/>
      <use x="551.171875" xlink:href="#DejaVuSans-33"/>
     </g>
    </g>
    <g id="line2d_35">
     <path d="M 419.91875 109.807187 
L 439.91875 109.807187 
" style="fill:none;stroke:#008000;stroke-linecap:square;stroke-width:1.5;"/>
    </g>
    <g id="line2d_36"/>
    <g id="text_19">
     <!-- dif_lambda4 -->
     <g transform="translate(447.91875 113.307187)scale(0.1 -0.1)">
      <use xlink:href="#DejaVuSans-64"/>
      <use x="63.476562" xlink:href="#DejaVuSans-69"/>
      <use x="91.259766" xlink:href="#DejaVuSans-66"/>
      <use x="126.464844" xlink:href="#DejaVuSans-5f"/>
      <use x="176.464844" xlink:href="#DejaVuSans-6c"/>
      <use x="204.248047" xlink:href="#DejaVuSans-61"/>
      <use x="265.527344" xlink:href="#DejaVuSans-6d"/>
      <use x="362.939453" xlink:href="#DejaVuSans-62"/>
      <use x="426.416016" xlink:href="#DejaVuSans-64"/>
      <use x="489.892578" xlink:href="#DejaVuSans-61"/>
      <use x="551.171875" xlink:href="#DejaVuSans-34"/>
     </g>
    </g>
   </g>
  </g>
 </g>
 <defs>
  <clipPath id="p26dc7437b6">
   <rect height="332.64" width="446.4" x="72" y="51.84"/>
  </clipPath>
 </defs>
</svg>
