<?xml version="1.0" encoding="utf-8" standalone="no"?>
<!DOCTYPE svg PUBLIC "-//W3C//DTD SVG 1.1//EN"
  "http://www.w3.org/Graphics/SVG/1.1/DTD/svg11.dtd">
<!-- Created with matplotlib (http://matplotlib.org/) -->
<svg height="432pt" version="1.1" viewBox="0 0 576 432" width="576pt" xmlns="http://www.w3.org/2000/svg" xmlns:xlink="http://www.w3.org/1999/xlink">
 <defs>
  <style type="text/css">
*{stroke-linecap:butt;stroke-linejoin:round;}
  </style>
 </defs>
 <g id="figure_1">
  <g id="patch_1">
   <path d="M 0 432 
L 576 432 
L 576 0 
L 0 0 
z
" style="fill:#ffffff;"/>
  </g>
  <g id="axes_1">
   <g id="patch_2">
    <path d="M 72 384.48 
L 518.4 384.48 
L 518.4 51.84 
L 72 51.84 
z
" style="fill:#ffffff;"/>
   </g>
   <g id="matplotlib.axis_1">
    <g id="xtick_1">
     <g id="line2d_1">
      <path clip-path="url(#pef1a1b2a61)" d="M 92.290909 384.48 
L 92.290909 51.84 
" style="fill:none;stroke:#b0b0b0;stroke-dasharray:5.12,1.28,0.8,1.28;stroke-dashoffset:0;stroke-width:0.8;"/>
     </g>
     <g id="line2d_2">
      <defs>
       <path d="M 0 0 
L 0 3.5 
" id="m67dd471e17" style="stroke:#000000;stroke-width:0.8;"/>
      </defs>
      <g>
       <use style="stroke:#000000;stroke-width:0.8;" x="92.290909" xlink:href="#m67dd471e17" y="384.48"/>
      </g>
     </g>
     <g id="text_1">
      <!-- $0$ -->
      <defs>
       <path d="M 42 31.640625 
C 42 37.75 41.90625 48.125 37.703125 56.109375 
C 34 63.109375 28.09375 65.59375 22.90625 65.59375 
C 18.09375 65.59375 12 63.40625 8.203125 56.203125 
C 4.203125 48.71875 3.796875 39.4375 3.796875 31.640625 
C 3.796875 25.953125 3.90625 17.28125 7 9.671875 
C 11.296875 -0.609375 19 -2 22.90625 -2 
C 27.5 -2 34.5 -0.109375 38.59375 9.375 
C 41.59375 16.28125 42 24.359375 42 31.640625 
z
M 22.90625 -0.40625 
C 16.5 -0.40625 12.703125 5.078125 11.296875 12.6875 
C 10.203125 18.5625 10.203125 27.15625 10.203125 32.75 
C 10.203125 40.4375 10.203125 46.828125 11.5 52.921875 
C 13.40625 61.390625 19 64 22.90625 64 
C 27 64 32.296875 61.296875 34.203125 53.125 
C 35.5 47.4375 35.59375 40.734375 35.59375 32.75 
C 35.59375 26.25 35.59375 18.265625 34.40625 12.375 
C 32.296875 1.484375 26.40625 -0.40625 22.90625 -0.40625 
z
" id="CMR17-48"/>
      </defs>
      <g transform="translate(89.800241 398.398498)scale(0.1 -0.1)">
       <use transform="scale(0.996264)" xlink:href="#CMR17-48"/>
      </g>
     </g>
    </g>
    <g id="xtick_2">
     <g id="line2d_3">
      <path clip-path="url(#pef1a1b2a61)" d="M 160.404065 384.48 
L 160.404065 51.84 
" style="fill:none;stroke:#b0b0b0;stroke-dasharray:5.12,1.28,0.8,1.28;stroke-dashoffset:0;stroke-width:0.8;"/>
     </g>
     <g id="line2d_4">
      <g>
       <use style="stroke:#000000;stroke-width:0.8;" x="160.404065" xlink:href="#m67dd471e17" y="384.48"/>
      </g>
     </g>
     <g id="text_2">
      <!-- $500$ -->
      <defs>
       <path d="M 11.40625 57.6875 
C 12.40625 57.28125 16.5 56 20.703125 56 
C 30 56 35.09375 61.109375 38 64.0625 
C 38 64.953125 38 65.5 37.40625 65.5 
C 37.296875 65.5 37.09375 65.5 36.296875 65.046875 
C 32.796875 63.40625 28.703125 62.078125 23.703125 62.078125 
C 20.703125 62.078125 16.203125 62.484375 11.296875 64.671875 
C 10.203125 65.171875 10 65.171875 9.90625 65.171875 
C 9.40625 65.171875 9.296875 65.0625 9.296875 63.078125 
L 9.296875 34.421875 
C 9.296875 32.640625 9.296875 32.140625 10.296875 32.140625 
C 10.796875 32.140625 11 32.34375 11.5 33.03125 
C 14.703125 37.515625 19.09375 39.40625 24.09375 39.40625 
C 27.59375 39.40625 35.09375 37.21875 35.09375 20.140625 
C 35.09375 16.953125 35.09375 11.171875 32.09375 6.578125 
C 29.59375 2.484375 25.703125 0.390625 21.40625 0.390625 
C 14.796875 0.390625 8.09375 5 6.296875 12.71875 
C 6.703125 12.609375 7.5 12.421875 7.90625 12.421875 
C 9.203125 12.421875 11.703125 13.125 11.703125 16.21875 
C 11.703125 18.90625 9.796875 20 7.90625 20 
C 5.59375 20 4.09375 18.59375 4.09375 15.796875 
C 4.09375 7.09375 11 -2 21.59375 -2 
C 31.90625 -2 41.703125 6.875 41.703125 19.75 
C 41.703125 31.71875 33.90625 41 24.203125 41 
C 19.09375 41 14.796875 39.109375 11.40625 35.53125 
z
" id="CMR17-53"/>
      </defs>
      <g transform="translate(152.932062 398.398498)scale(0.1 -0.1)">
       <use transform="scale(0.996264)" xlink:href="#CMR17-53"/>
       <use transform="translate(45.690477 0)scale(0.996264)" xlink:href="#CMR17-48"/>
       <use transform="translate(91.380954 0)scale(0.996264)" xlink:href="#CMR17-48"/>
      </g>
     </g>
    </g>
    <g id="xtick_3">
     <g id="line2d_5">
      <path clip-path="url(#pef1a1b2a61)" d="M 228.517221 384.48 
L 228.517221 51.84 
" style="fill:none;stroke:#b0b0b0;stroke-dasharray:5.12,1.28,0.8,1.28;stroke-dashoffset:0;stroke-width:0.8;"/>
     </g>
     <g id="line2d_6">
      <g>
       <use style="stroke:#000000;stroke-width:0.8;" x="228.517221" xlink:href="#m67dd471e17" y="384.48"/>
      </g>
     </g>
     <g id="text_3">
      <!-- $1000$ -->
      <defs>
       <path d="M 26.59375 63.40625 
C 26.59375 65.5 26.5 65.5 25.09375 65.5 
C 21.203125 61.1875 15.296875 59.796875 9.703125 59.796875 
C 9.40625 59.796875 8.90625 59.796875 8.796875 59.5 
C 8.703125 59.296875 8.703125 59.09375 8.703125 57 
C 11.796875 57 17 57.59375 21 59.984375 
L 21 7.203125 
C 21 3.6875 20.796875 2.5 12.203125 2.5 
L 9.203125 2.5 
L 9.203125 0 
C 14 0 19 0 23.796875 0 
C 28.59375 0 33.59375 0 38.40625 0 
L 38.40625 2.5 
L 35.40625 2.5 
C 26.796875 2.5 26.59375 3.59375 26.59375 7.15625 
z
" id="CMR17-49"/>
      </defs>
      <g transform="translate(218.55455 398.398498)scale(0.1 -0.1)">
       <use transform="scale(0.996264)" xlink:href="#CMR17-49"/>
       <use transform="translate(45.690477 0)scale(0.996264)" xlink:href="#CMR17-48"/>
       <use transform="translate(91.380954 0)scale(0.996264)" xlink:href="#CMR17-48"/>
       <use transform="translate(137.071431 0)scale(0.996264)" xlink:href="#CMR17-48"/>
      </g>
     </g>
    </g>
    <g id="xtick_4">
     <g id="line2d_7">
      <path clip-path="url(#pef1a1b2a61)" d="M 296.630376 384.48 
L 296.630376 51.84 
" style="fill:none;stroke:#b0b0b0;stroke-dasharray:5.12,1.28,0.8,1.28;stroke-dashoffset:0;stroke-width:0.8;"/>
     </g>
     <g id="line2d_8">
      <g>
       <use style="stroke:#000000;stroke-width:0.8;" x="296.630376" xlink:href="#m67dd471e17" y="384.48"/>
      </g>
     </g>
     <g id="text_4">
      <!-- $1500$ -->
      <g transform="translate(286.667706 398.398498)scale(0.1 -0.1)">
       <use transform="scale(0.996264)" xlink:href="#CMR17-49"/>
       <use transform="translate(45.690477 0)scale(0.996264)" xlink:href="#CMR17-53"/>
       <use transform="translate(91.380954 0)scale(0.996264)" xlink:href="#CMR17-48"/>
       <use transform="translate(137.071431 0)scale(0.996264)" xlink:href="#CMR17-48"/>
      </g>
     </g>
    </g>
    <g id="xtick_5">
     <g id="line2d_9">
      <path clip-path="url(#pef1a1b2a61)" d="M 364.743532 384.48 
L 364.743532 51.84 
" style="fill:none;stroke:#b0b0b0;stroke-dasharray:5.12,1.28,0.8,1.28;stroke-dashoffset:0;stroke-width:0.8;"/>
     </g>
     <g id="line2d_10">
      <g>
       <use style="stroke:#000000;stroke-width:0.8;" x="364.743532" xlink:href="#m67dd471e17" y="384.48"/>
      </g>
     </g>
     <g id="text_5">
      <!-- $2000$ -->
      <defs>
       <path d="M 41.703125 15.453125 
L 39.90625 15.453125 
C 38.90625 8.375 38.09375 7.171875 37.703125 6.5625 
C 37.203125 5.765625 30 5.765625 28.59375 5.765625 
L 9.40625 5.765625 
C 13 9.671875 20 16.75 28.5 24.953125 
C 34.59375 30.734375 41.703125 37.53125 41.703125 47.421875 
C 41.703125 59.21875 32.296875 66 21.796875 66 
C 10.796875 66 4.09375 56.3125 4.09375 47.34375 
C 4.09375 43.4375 7 42.9375 8.203125 42.9375 
C 9.203125 42.9375 12.203125 43.546875 12.203125 47.03125 
C 12.203125 50.109375 9.59375 51 8.203125 51 
C 7.59375 51 7 50.90625 6.59375 50.703125 
C 8.5 59.21875 14.296875 63.40625 20.40625 63.40625 
C 29.09375 63.40625 34.796875 56.515625 34.796875 47.421875 
C 34.796875 38.734375 29.703125 31.25 24 24.75 
L 4.09375 2.28125 
L 4.09375 0 
L 39.296875 0 
z
" id="CMR17-50"/>
      </defs>
      <g transform="translate(354.780861 398.398498)scale(0.1 -0.1)">
       <use transform="scale(0.996264)" xlink:href="#CMR17-50"/>
       <use transform="translate(45.690477 0)scale(0.996264)" xlink:href="#CMR17-48"/>
       <use transform="translate(91.380954 0)scale(0.996264)" xlink:href="#CMR17-48"/>
       <use transform="translate(137.071431 0)scale(0.996264)" xlink:href="#CMR17-48"/>
      </g>
     </g>
    </g>
    <g id="xtick_6">
     <g id="line2d_11">
      <path clip-path="url(#pef1a1b2a61)" d="M 432.856688 384.48 
L 432.856688 51.84 
" style="fill:none;stroke:#b0b0b0;stroke-dasharray:5.12,1.28,0.8,1.28;stroke-dashoffset:0;stroke-width:0.8;"/>
     </g>
     <g id="line2d_12">
      <g>
       <use style="stroke:#000000;stroke-width:0.8;" x="432.856688" xlink:href="#m67dd471e17" y="384.48"/>
      </g>
     </g>
     <g id="text_6">
      <!-- $2500$ -->
      <g transform="translate(422.894017 398.398498)scale(0.1 -0.1)">
       <use transform="scale(0.996264)" xlink:href="#CMR17-50"/>
       <use transform="translate(45.690477 0)scale(0.996264)" xlink:href="#CMR17-53"/>
       <use transform="translate(91.380954 0)scale(0.996264)" xlink:href="#CMR17-48"/>
       <use transform="translate(137.071431 0)scale(0.996264)" xlink:href="#CMR17-48"/>
      </g>
     </g>
    </g>
    <g id="xtick_7">
     <g id="line2d_13">
      <path clip-path="url(#pef1a1b2a61)" d="M 500.969843 384.48 
L 500.969843 51.84 
" style="fill:none;stroke:#b0b0b0;stroke-dasharray:5.12,1.28,0.8,1.28;stroke-dashoffset:0;stroke-width:0.8;"/>
     </g>
     <g id="line2d_14">
      <g>
       <use style="stroke:#000000;stroke-width:0.8;" x="500.969843" xlink:href="#m67dd471e17" y="384.48"/>
      </g>
     </g>
     <g id="text_7">
      <!-- $3000$ -->
      <defs>
       <path d="M 22.09375 33.703125 
C 31 33.703125 34.90625 25.96875 34.90625 17.03125 
C 34.90625 5 28.5 0.390625 22.703125 0.390625 
C 17.40625 0.390625 8.796875 3.03125 6.09375 10.828125 
C 6.59375 10.625 7.09375 10.625 7.59375 10.625 
C 10 10.625 11.796875 12.21875 11.796875 14.8125 
C 11.796875 17.703125 9.59375 19 7.59375 19 
C 5.90625 19 3.296875 18.203125 3.296875 14.46875 
C 3.296875 5.234375 12.296875 -2 22.90625 -2 
C 34 -2 42.5 6.71875 42.5 16.953125 
C 42.5 26.671875 34.5 33.703125 25 34.796875 
C 32.59375 36.375 39.90625 43.0625 39.90625 52.015625 
C 39.90625 59.6875 32 65.296875 23 65.296875 
C 13.90625 65.296875 5.90625 59.828125 5.90625 52.015625 
C 5.90625 48.59375 8.5 48 9.796875 48 
C 11.90625 48 13.703125 49.296875 13.703125 51.890625 
C 13.703125 54.46875 11.90625 55.765625 9.796875 55.765625 
C 9.40625 55.765625 8.90625 55.765625 8.5 55.578125 
C 11.40625 61.859375 19.296875 63 22.796875 63 
C 26.296875 63 32.90625 61.328125 32.90625 51.875 
C 32.90625 49.109375 32.5 44.1875 29.09375 39.84375 
C 26.09375 36 22.703125 36 19.40625 35.6875 
C 18.90625 35.6875 16.59375 35.453125 16.203125 35.453125 
C 15.5 35.359375 15.09375 35.265625 15.09375 34.5 
C 15.09375 33.796875 15.203125 33.703125 17.203125 33.703125 
z
" id="CMR17-51"/>
      </defs>
      <g transform="translate(491.007173 398.398498)scale(0.1 -0.1)">
       <use transform="scale(0.996264)" xlink:href="#CMR17-51"/>
       <use transform="translate(45.690477 0)scale(0.996264)" xlink:href="#CMR17-48"/>
       <use transform="translate(91.380954 0)scale(0.996264)" xlink:href="#CMR17-48"/>
       <use transform="translate(137.071431 0)scale(0.996264)" xlink:href="#CMR17-48"/>
      </g>
     </g>
    </g>
    <g id="text_8">
     <!-- Iteration -->
     <defs>
      <path d="M 17.09375 69 
L 8.703125 69 
L 8.703125 0 
L 17.09375 0 
z
" id="CMSS17-73"/>
      <path d="M 16.703125 37 
L 29.703125 37 
L 29.703125 42.765625 
L 16.703125 42.765625 
L 16.703125 55 
L 9.59375 55 
L 9.59375 42.765625 
L 1.703125 42.765625 
L 1.703125 37 
L 9.40625 37 
L 9.40625 11.703125 
C 9.40625 6 10.703125 -1 17.296875 -1 
C 22.296875 -1 26.90625 0.390625 31.296875 2.6875 
L 29.703125 8.5625 
C 27.296875 6.46875 24.40625 5.265625 21.296875 5.265625 
C 16.90625 5.265625 16.703125 10.875 16.703125 13.375 
z
" id="CMSS17-116"/>
      <path d="M 39.09375 21.515625 
C 39.09375 24.84375 38.90625 31.296875 35.703125 36.640625 
C 32.203125 42.390625 26.5 44 22.203125 44 
C 11.796875 44 3 34.1875 3 21.484375 
C 3 9.09375 12.09375 -1 23.59375 -1 
C 28.09375 -1 33.59375 0.296875 38.59375 3.875 
C 38.59375 4.28125 38.40625 6.46875 38.296875 6.5625 
C 38.296875 6.765625 38 9.84375 38 10.25 
C 33.203125 6.359375 27.703125 5.078125 23.703125 5.078125 
C 17.296875 5.078125 10.40625 10.421875 10.09375 21.515625 
z
M 10.90625 27 
C 12.203125 32.5625 16.59375 37.828125 22.203125 37.828125 
C 23.703125 37.828125 30.703125 37.828125 32.5 27 
z
" id="CMSS17-101"/>
      <path d="M 14.90625 21.296875 
C 14.90625 30.703125 21.796875 37 30.59375 37 
L 30.59375 43.578125 
C 24.203125 43.578125 18.203125 40.390625 14.59375 35.203125 
L 14.59375 43.09375 
L 7.5 43.09375 
L 7.5 0 
L 14.90625 0 
z
" id="CMSS17-114"/>
      <path d="M 37.59375 27.984375 
C 37.59375 37.375 30.90625 43.875 21.90625 43.875 
C 17.5 43.875 12.703125 43.078125 7.203125 39.890625 
L 7.796875 33.359375 
C 10.296875 35.125 14.59375 38 21.796875 38 
C 26.90625 38 30 34.0625 30 27.84375 
L 30 24 
C 14 24 4 19.34375 4 11.34375 
C 4 7.203125 6.5 -1 14.796875 -1 
C 16.296875 -1 24.40625 -1 30.203125 3.390625 
L 30.203125 -0.296875 
L 37.59375 -0.296875 
z
M 30 12.75 
C 30 10.953125 30 8.5625 27 6.78125 
C 24.40625 5.078125 21.09375 5.078125 19.703125 5.078125 
C 14.703125 5.078125 11.296875 7.984375 11.296875 11.625 
C 11.296875 18.921875 26.90625 18.921875 30 18.921875 
z
" id="CMSS17-97"/>
      <path d="M 15.296875 65.359375 
L 6.90625 65.359375 
L 6.90625 57 
L 15.296875 57 
z
M 14.796875 42.796875 
L 7.40625 42.796875 
L 7.40625 0 
L 14.796875 0 
z
" id="CMSS17-105"/>
      <path d="M 44.203125 21.1875 
C 44.203125 34 34.703125 44 23.5 44 
C 12 44 2.703125 33.703125 2.703125 21.1875 
C 2.703125 8.5 12.296875 -1 23.40625 -1 
C 34.796875 -1 44.203125 8.796875 44.203125 21.1875 
z
M 23.5 5.265625 
C 16.40625 5.265625 10.296875 11.078125 10.296875 22 
C 10.296875 33.609375 17.40625 37.921875 23.40625 37.921875 
C 29.90625 37.921875 36.59375 33.21875 36.59375 22 
C 36.59375 10.671875 30.09375 5.265625 23.5 5.265625 
z
" id="CMSS17-111"/>
      <path d="M 40.90625 29.328125 
C 40.90625 35.671875 39.40625 44 28.09375 44 
C 21.703125 44 17.5 40.71875 14.703125 37.328125 
L 14.703125 43.09375 
L 7.40625 43.09375 
L 7.40625 0 
L 15 0 
L 15 24.359375 
C 15 30.6875 17.40625 37.9375 24.203125 37.9375 
C 33 37.9375 33.296875 32 33.296875 28.578125 
L 33.296875 0 
L 40.90625 0 
z
" id="CMSS17-110"/>
     </defs>
     <g transform="translate(271.264003 414.021553)scale(0.14 -0.14)">
      <use transform="scale(0.996264)" xlink:href="#CMSS17-73"/>
      <use transform="translate(25.783926 0)scale(0.996264)" xlink:href="#CMSS17-116"/>
      <use transform="translate(59.615492 0)scale(0.996264)" xlink:href="#CMSS17-101"/>
      <use transform="translate(101.254314 0)scale(0.996264)" xlink:href="#CMSS17-114"/>
      <use transform="translate(133.164087 0)scale(0.996264)" xlink:href="#CMSS17-97"/>
      <use transform="translate(178.086007 0)scale(0.996264)" xlink:href="#CMSS17-116"/>
      <use transform="translate(211.917574 0)scale(0.996264)" xlink:href="#CMSS17-105"/>
      <use transform="translate(234.098297 0)scale(0.996264)" xlink:href="#CMSS17-111"/>
      <use transform="translate(280.941921 0)scale(0.996264)" xlink:href="#CMSS17-110"/>
     </g>
    </g>
   </g>
   <g id="matplotlib.axis_2">
    <g id="ytick_1">
     <g id="line2d_15">
      <path clip-path="url(#pef1a1b2a61)" d="M 72 350.887123 
L 518.4 350.887123 
" style="fill:none;stroke:#b0b0b0;stroke-dasharray:5.12,1.28,0.8,1.28;stroke-dashoffset:0;stroke-width:0.8;"/>
     </g>
     <g id="line2d_16">
      <defs>
       <path d="M 0 0 
L -3.5 0 
" id="m488112d2bd" style="stroke:#000000;stroke-width:0.8;"/>
      </defs>
      <g>
       <use style="stroke:#000000;stroke-width:0.8;" x="72" xlink:href="#m488112d2bd" y="350.887123"/>
      </g>
     </g>
     <g id="text_9">
      <!-- $-50$ -->
      <defs>
       <path d="M 65.90625 23 
C 67.59375 23 69.40625 23 69.40625 25 
C 69.40625 27 67.59375 27 65.90625 27 
L 11.796875 27 
C 10.09375 27 8.296875 27 8.296875 25 
C 8.296875 23 10.09375 23 11.796875 23 
z
" id="CMSY10-0"/>
      </defs>
      <g transform="translate(47.288586 354.346372)scale(0.1 -0.1)">
       <use transform="scale(0.996264)" xlink:href="#CMSY10-0"/>
       <use transform="translate(77.487468 0)scale(0.996264)" xlink:href="#CMR17-53"/>
       <use transform="translate(123.177945 0)scale(0.996264)" xlink:href="#CMR17-48"/>
      </g>
     </g>
    </g>
    <g id="ytick_2">
     <g id="line2d_17">
      <path clip-path="url(#pef1a1b2a61)" d="M 72 295.02213 
L 518.4 295.02213 
" style="fill:none;stroke:#b0b0b0;stroke-dasharray:5.12,1.28,0.8,1.28;stroke-dashoffset:0;stroke-width:0.8;"/>
     </g>
     <g id="line2d_18">
      <g>
       <use style="stroke:#000000;stroke-width:0.8;" x="72" xlink:href="#m488112d2bd" y="295.02213"/>
      </g>
     </g>
     <g id="text_10">
      <!-- $-40$ -->
      <defs>
       <path d="M 33.59375 64.40625 
C 33.59375 66.5 33.5 66.5 31.703125 66.5 
L 2 19.59375 
L 2 17 
L 27.796875 17 
L 27.796875 7.140625 
C 27.796875 3.5 27.59375 2.5 20.59375 2.5 
L 18.703125 2.5 
L 18.703125 0 
C 21.90625 0 27.296875 0 30.703125 0 
C 34.09375 0 39.5 0 42.703125 0 
L 42.703125 2.5 
L 40.796875 2.5 
C 33.796875 2.5 33.59375 3.5 33.59375 7.140625 
L 33.59375 17 
L 43.796875 17 
L 43.796875 19.59375 
L 33.59375 19.59375 
z
M 28.09375 57.859375 
L 28.09375 19.59375 
L 4 19.59375 
z
" id="CMR17-52"/>
      </defs>
      <g transform="translate(47.288586 298.481379)scale(0.1 -0.1)">
       <use transform="scale(0.996264)" xlink:href="#CMSY10-0"/>
       <use transform="translate(77.487468 0)scale(0.996264)" xlink:href="#CMR17-52"/>
       <use transform="translate(123.177945 0)scale(0.996264)" xlink:href="#CMR17-48"/>
      </g>
     </g>
    </g>
    <g id="ytick_3">
     <g id="line2d_19">
      <path clip-path="url(#pef1a1b2a61)" d="M 72 239.157137 
L 518.4 239.157137 
" style="fill:none;stroke:#b0b0b0;stroke-dasharray:5.12,1.28,0.8,1.28;stroke-dashoffset:0;stroke-width:0.8;"/>
     </g>
     <g id="line2d_20">
      <g>
       <use style="stroke:#000000;stroke-width:0.8;" x="72" xlink:href="#m488112d2bd" y="239.157137"/>
      </g>
     </g>
     <g id="text_11">
      <!-- $-30$ -->
      <g transform="translate(47.288586 242.616386)scale(0.1 -0.1)">
       <use transform="scale(0.996264)" xlink:href="#CMSY10-0"/>
       <use transform="translate(77.487468 0)scale(0.996264)" xlink:href="#CMR17-51"/>
       <use transform="translate(123.177945 0)scale(0.996264)" xlink:href="#CMR17-48"/>
      </g>
     </g>
    </g>
    <g id="ytick_4">
     <g id="line2d_21">
      <path clip-path="url(#pef1a1b2a61)" d="M 72 183.292144 
L 518.4 183.292144 
" style="fill:none;stroke:#b0b0b0;stroke-dasharray:5.12,1.28,0.8,1.28;stroke-dashoffset:0;stroke-width:0.8;"/>
     </g>
     <g id="line2d_22">
      <g>
       <use style="stroke:#000000;stroke-width:0.8;" x="72" xlink:href="#m488112d2bd" y="183.292144"/>
      </g>
     </g>
     <g id="text_12">
      <!-- $-20$ -->
      <g transform="translate(47.288586 186.751393)scale(0.1 -0.1)">
       <use transform="scale(0.996264)" xlink:href="#CMSY10-0"/>
       <use transform="translate(77.487468 0)scale(0.996264)" xlink:href="#CMR17-50"/>
       <use transform="translate(123.177945 0)scale(0.996264)" xlink:href="#CMR17-48"/>
      </g>
     </g>
    </g>
    <g id="ytick_5">
     <g id="line2d_23">
      <path clip-path="url(#pef1a1b2a61)" d="M 72 127.427151 
L 518.4 127.427151 
" style="fill:none;stroke:#b0b0b0;stroke-dasharray:5.12,1.28,0.8,1.28;stroke-dashoffset:0;stroke-width:0.8;"/>
     </g>
     <g id="line2d_24">
      <g>
       <use style="stroke:#000000;stroke-width:0.8;" x="72" xlink:href="#m488112d2bd" y="127.427151"/>
      </g>
     </g>
     <g id="text_13">
      <!-- $-10$ -->
      <g transform="translate(47.288586 130.8864)scale(0.1 -0.1)">
       <use transform="scale(0.996264)" xlink:href="#CMSY10-0"/>
       <use transform="translate(77.487468 0)scale(0.996264)" xlink:href="#CMR17-49"/>
       <use transform="translate(123.177945 0)scale(0.996264)" xlink:href="#CMR17-48"/>
      </g>
     </g>
    </g>
    <g id="ytick_6">
     <g id="line2d_25">
      <path clip-path="url(#pef1a1b2a61)" d="M 72 71.562158 
L 518.4 71.562158 
" style="fill:none;stroke:#b0b0b0;stroke-dasharray:5.12,1.28,0.8,1.28;stroke-dashoffset:0;stroke-width:0.8;"/>
     </g>
     <g id="line2d_26">
      <g>
       <use style="stroke:#000000;stroke-width:0.8;" x="72" xlink:href="#m488112d2bd" y="71.562158"/>
      </g>
     </g>
     <g id="text_14">
      <!-- $0$ -->
      <g transform="translate(60.018665 75.021407)scale(0.1 -0.1)">
       <use transform="scale(0.996264)" xlink:href="#CMR17-48"/>
      </g>
     </g>
    </g>
    <g id="text_15">
     <!-- $\partial \mathcal{L}/ \partial \mu^{\overline{U}}_{m}[V]$ -->
     <defs>
      <path d="M 45.40625 33.515625 
C 44.796875 39.125 41.296875 45.859375 32.296875 45.859375 
C 18.203125 45.859375 3.796875 31.515625 3.796875 15.5625 
C 3.796875 9.4375 8 -2.09375 21.59375 -2.09375 
C 45.203125 -2.09375 55.296875 32.296875 55.296875 46 
C 55.296875 60.40625 47.203125 71.5 34.40625 71.5 
C 19.90625 71.5 15.59375 58.796875 15.59375 56.09375 
C 15.59375 55.203125 16.203125 53 19 53 
C 22.5 53 24 56.203125 24 57.90625 
C 24 61 20.90625 61 19.59375 61 
C 23.703125 68.40625 31.296875 69.09375 34 69.09375 
C 42.796875 69.09375 48.40625 62.109375 48.40625 50.96875 
C 48.40625 44.578125 46.5 37.1875 45.5 33.515625 
z
M 21.90625 0.59375 
C 12.5 0.59375 10.90625 8.03125 10.90625 12.25 
C 10.90625 16.65625 13.703125 27 15.203125 30.703125 
C 16.5 33.71875 22.203125 43.859375 32.59375 43.859375 
C 41.703125 43.859375 43.796875 35.921875 43.796875 30.515625 
C 43.796875 23.078125 37.296875 0.59375 21.90625 0.59375 
z
" id="CMMI12-64"/>
      <path d="M 18 9.53125 
C 23.40625 17.984375 25.09375 24.40625 26.40625 29.734375 
C 29.90625 43.59375 33.703125 55.65625 39.90625 62.578125 
C 41.09375 63.90625 41.90625 64.796875 45.09375 64.796875 
C 52 64.796875 52.203125 57.875 52.203125 56.453125 
C 52.203125 54.65625 51.703125 53.234375 51.703125 52.734375 
C 51.703125 52.03125 52.296875 52.03125 52.40625 52.03125 
C 54 52.03125 56.703125 53.140625 59.203125 54.953125 
C 61 56.359375 61.90625 57.359375 61.90625 61.46875 
C 61.90625 66.890625 59.09375 71 53.5 71 
C 50.296875 71 41.5 70.203125 31.703125 60.25 
C 23.703125 52.015625 19 33.9375 17.09375 26.40625 
C 15.296875 19.5 14.5 16.375 11.5 10.34375 
C 10.796875 9.15625 8.203125 4.734375 6.796875 3.421875 
C 4.09375 0.921875 3.09375 -0.890625 3.09375 -1.390625 
C 3.09375 -1.59375 3.296875 -2 4 -2 
C 4.40625 -2 6.5 -1.59375 9.09375 0.078125 
C 10.796875 1.0625 11 1.25 13.296875 3.609375 
C 18.296875 3.609375 21.796875 2.703125 28.09375 0.90625 
C 33.203125 -0.5 38.296875 -2 43.40625 -2 
C 51.5 -2 59.703125 4.125 62.90625 8.53125 
C 64.90625 11.234375 65.5 13.75 65.5 14.046875 
C 65.5 14.75 64.90625 14.75 64.796875 14.75 
C 63.203125 14.75 60.796875 13.65625 59.09375 12.4375 
C 56.40625 10.734375 56.203125 10.140625 55.59375 8.421875 
C 55.09375 6.8125 54.5 6.015625 54.09375 5.40625 
C 53.296875 4.203125 53.203125 4.203125 51.703125 4.203125 
C 46.90625 4.203125 41.90625 5.71875 35.296875 7.515625 
C 32.5 8.3125 27 9.9375 22 9.9375 
C 20.703125 9.9375 19.296875 9.828125 18 9.53125 
z
" id="CMSY10-76"/>
      <path d="M 42.90625 71.28125 
C 42.90625 71.390625 43.5 72.90625 43.5 73.09375 
C 43.5 74.296875 42.5 75 41.703125 75 
C 41.203125 75 40.296875 75 39.5 72.796875 
L 6 -21.296875 
C 6 -21.40625 5.40625 -22.890625 5.40625 -23.09375 
C 5.40625 -24.296875 6.40625 -25 7.203125 -25 
C 7.796875 -25 8.703125 -24.890625 9.40625 -22.796875 
z
" id="CMMI12-61"/>
      <path d="M 14.40625 2.1875 
C 16.90625 -0.09375 20.59375 -1 24 -1 
C 30.40625 -1 34.796875 3.25 37.09375 6.328125 
C 38.09375 1.078125 42.296875 -1 45.796875 -1 
C 48.796875 -1 51.203125 0.78125 53 4.328125 
C 54.59375 7.703125 56 13.734375 56 14.109375 
C 56 14.609375 55.59375 15 55 15 
C 54.09375 15 54 14.5 53.59375 13.03125 
C 52.09375 7.203125 50.203125 1 46.09375 1 
C 43.203125 1 43 3.578125 43 5.59375 
C 43 7.875 43.90625 11.484375 44.59375 14.46875 
L 47.40625 25.234375 
C 47.796875 27.140625 48.90625 31.609375 49.40625 33.421875 
C 50 35.8125 51.09375 40.109375 51.09375 40.5 
C 51.09375 42 49.90625 43 48.40625 43 
C 47.5 43 45.40625 42.59375 44.59375 39.609375 
L 37.59375 11.875 
C 37.09375 9.875 37.09375 9.671875 35.796875 8.078125 
C 34.59375 6.390625 30.703125 1 24.40625 1 
C 18.796875 1 17 5.09375 17 9.765625 
C 17 12.671875 17.90625 16.15625 18.296875 17.859375 
L 22.796875 35.828125 
C 23.296875 37.71875 24.09375 40.90625 24.09375 41.515625 
C 24.09375 43.109375 22.796875 44 21.5 44 
C 20.59375 44 18.40625 43.703125 17.59375 40.5 
L 3.09375 -17.296875 
C 3 -17.796875 2.796875 -18.390625 2.796875 -19 
C 2.796875 -20.5 4 -21.5 5.5 -21.5 
C 8.40625 -21.5 9 -19.1875 9.703125 -16.40625 
z
" id="CMMI12-22"/>
      <path d="M 50.59375 23.03125 
C 47.09375 9.078125 35.5 0.890625 26.09375 0.890625 
C 18.90625 0.890625 14 5.671875 14 13.921875 
C 14 14.3125 14 17.296875 15.09375 21.671875 
L 24.90625 60.734375 
C 25.796875 64.109375 26 65.109375 33.09375 65.109375 
C 34.90625 65.109375 35.90625 65.109375 35.90625 66.90625 
C 35.90625 68 35 68 34.40625 68 
C 32.59375 68 30.5 68 28.59375 68 
L 16.796875 68 
C 14.90625 68 12.796875 68 10.90625 68 
C 10.203125 68 9 68 9 66.109375 
C 9 65.109375 9.703125 65.109375 11.59375 65.109375 
C 17.59375 65.109375 17.59375 64.3125 17.59375 63.21875 
C 17.59375 62.625 16.90625 59.75 16.40625 58.046875 
L 7.703125 23.25 
C 7.40625 22.15625 6.796875 19.46875 6.796875 16.796875 
C 6.796875 5.84375 14.703125 -2 25.59375 -2 
C 35.703125 -2 46.90625 6 52 18.703125 
C 52.703125 20.390625 53.59375 23.90625 54.203125 26.59375 
C 55.203125 30.203125 57.296875 39 58 41.59375 
L 61.796875 56.609375 
C 63.09375 61.8125 63.90625 65.109375 72.703125 65.109375 
C 73.5 65.203125 73.90625 66 73.90625 66.90625 
C 73.90625 68 73 68 72.59375 68 
C 71.203125 68 69.40625 68 68 68 
L 63.296875 68 
C 57.09375 68 53.90625 68 53.796875 68 
C 53.203125 68 52 68 52 66.109375 
C 52 65.109375 52.796875 65.109375 53.5 65.109375 
C 59.5 65.109375 59.90625 62.8125 59.90625 61.015625 
C 59.90625 60.125 59.90625 59.8125 59.5 58.421875 
z
" id="CMMI12-85"/>
      <path d="M 20.59375 29.234375 
C 20.796875 29.84375 23.296875 34.828125 27 38.015625 
C 29.59375 40.40625 33 42.015625 36.90625 42.015625 
C 40.90625 42.015625 42.296875 39.015625 42.296875 35.03125 
C 42.296875 34.421875 42.296875 32.4375 41.09375 27.734375 
L 38.59375 17.46875 
C 37.796875 14.46875 35.90625 7.078125 35.703125 5.984375 
C 35.296875 4.484375 34.703125 1.890625 34.703125 1.5 
C 34.703125 0.09375 35.796875 -1 37.296875 -1 
C 40.296875 -1 40.796875 1.296875 41.703125 4.890625 
L 47.703125 28.734375 
C 47.90625 29.53125 53.09375 42.015625 64.09375 42.015625 
C 68.09375 42.015625 69.5 39.015625 69.5 35.03125 
C 69.5 29.4375 65.59375 18.5625 63.40625 12.578125 
C 62.5 10.171875 62 8.875 62 7.078125 
C 62 2.59375 65.09375 -1 69.90625 -1 
C 79.203125 -1 82.703125 13.671875 82.703125 14.265625 
C 82.703125 14.765625 82.296875 15.171875 81.703125 15.171875 
C 80.796875 15.171875 80.703125 14.875 80.203125 13.171875 
C 77.90625 5.1875 74.203125 1 70.203125 1 
C 69.203125 1 67.59375 1 67.59375 4.203125 
C 67.59375 6.8125 68.796875 10 69.203125 11.09375 
C 71 15.90625 75.5 27.703125 75.5 33.515625 
C 75.5 39.5 72 44 64.40625 44 
C 57.703125 44 52.296875 40.21875 48.296875 34.328125 
C 48 39.71875 44.703125 44 37.203125 44 
C 28.296875 44 23.59375 37.734375 21.796875 35.234375 
C 21.5 40.90625 17.40625 44 13 44 
C 10.09375 44 7.796875 42.609375 5.90625 38.8125 
C 4.09375 35.21875 2.703125 29.140625 2.703125 28.734375 
C 2.703125 28.34375 3.09375 27.84375 3.796875 27.84375 
C 4.59375 27.84375 4.703125 27.9375 5.296875 30.234375 
C 6.796875 36.125 8.703125 42.015625 12.703125 42.015625 
C 15 42.015625 15.796875 40.40625 15.796875 37.421875 
C 15.796875 35.21875 14.796875 31.328125 14.09375 28.234375 
L 11.296875 17.46875 
C 10.90625 15.5625 9.796875 11.078125 9.296875 9.28125 
C 8.59375 6.6875 7.5 2 7.5 1.5 
C 7.5 0.09375 8.59375 -1 10.09375 -1 
C 11.296875 -1 12.703125 -0.40625 13.5 1.09375 
C 13.703125 1.59375 14.59375 5.09375 15.09375 7.078125 
L 17.296875 16.0625 
z
" id="CMMI12-109"/>
      <path d="M 23.5 -25 
L 23.5 -21.515625 
L 14.09375 -21.515625 
L 14.09375 71 
L 23.5 71 
L 23.5 74.484375 
L 10.59375 74.484375 
L 10.59375 -25 
z
" id="CMR17-91"/>
      <path d="M 61.90625 56.875 
C 65.296875 62.25 68.40625 64.625 73.5 65.03125 
C 74.5 65.125 75.296875 65.125 75.296875 66.90625 
C 75.296875 67.3125 75.09375 67.90625 74.203125 67.90625 
C 72.40625 67.90625 68.09375 67.90625 66.296875 67.90625 
C 63.40625 67.90625 60.40625 67.90625 57.59375 67.90625 
C 56.796875 67.90625 55.796875 67.90625 55.796875 66.03125 
C 55.796875 65.125 56.703125 65.03125 57.09375 65.03125 
C 60.796875 64.734375 61.203125 62.953125 61.203125 61.75 
C 61.203125 60.265625 59.796875 57.96875 59.703125 57.875 
L 28.296875 8.4375 
L 21.296875 62.015625 
C 21.296875 65 26.5 65 27.59375 65 
C 29.09375 65 30 65 30 66.90625 
C 30 67.90625 28.90625 67.90625 28.59375 67.90625 
C 26.90625 67.90625 24.90625 67.90625 23.203125 67.90625 
L 17.59375 67.90625 
C 10.296875 67.90625 7.296875 67.90625 7.203125 67.90625 
C 6.59375 67.90625 5.40625 67.90625 5.40625 66.09375 
C 5.40625 65 6.09375 65 7.703125 65 
C 12.796875 65 13.09375 64.09375 13.40625 61.625 
L 21.40625 0.375 
C 21.703125 -1.703125 21.703125 -2 23.09375 -2 
C 24.296875 -2 24.796875 -1.703125 25.796875 -0.125 
z
" id="CMMI12-86"/>
      <path d="M 14.296875 74.484375 
L 1.40625 74.484375 
L 1.40625 71 
L 10.796875 71 
L 10.796875 -21.515625 
L 1.40625 -21.515625 
L 1.40625 -25 
L 14.296875 -25 
z
" id="CMR17-93"/>
     </defs>
     <g transform="translate(40.576557 252.422043)rotate(-90)scale(0.14 -0.14)">
      <use transform="translate(0 24.62935)scale(0.996264)" xlink:href="#CMMI12-64"/>
      <use transform="translate(56.915564 24.62935)scale(0.996264)" xlink:href="#CMSY10-76"/>
      <use transform="translate(125.630372 24.62935)scale(0.996264)" xlink:href="#CMMI12-61"/>
      <use transform="translate(174.405291 24.62935)scale(0.996264)" xlink:href="#CMMI12-64"/>
      <use transform="translate(231.320856 24.62935)scale(0.996264)" xlink:href="#CMMI12-22"/>
      <use transform="translate(290.012277 60.782989)scale(0.697382)" xlink:href="#CMMI12-85"/>
      <use transform="translate(290.012277 0)scale(0.697382)" xlink:href="#CMMI12-109"/>
      <use transform="translate(350.2392 24.62935)scale(0.996264)" xlink:href="#CMR17-91"/>
      <use transform="translate(375.110259 24.62935)scale(0.996264)" xlink:href="#CMMI12-86"/>
      <use transform="translate(453.657579 24.62935)scale(0.996264)" xlink:href="#CMR17-93"/>
      <path d="M 290.012277 116.805753 
L 344.171317 116.805753 
L 344.171317 119.595204 
L 290.012277 119.595204 
L 290.012277 116.805753 
z
"/>
     </g>
    </g>
   </g>
   <g id="line2d_27">
    <path clip-path="url(#pef1a1b2a61)" d="M 92.290909 71.562158 
L 92.427135 211.22464 
L 94.061851 211.130787 
L 94.606756 210.768782 
L 95.015435 210.268232 
L 95.424114 209.418525 
L 95.832793 208.015197 
L 96.241472 205.826406 
L 96.786377 201.28123 
L 97.331283 194.388608 
L 98.012414 182.165906 
L 103.461467 76.039179 
L 103.870146 73.387267 
L 104.278824 72.303487 
L 104.687503 71.86327 
L 105.232409 71.652659 
L 106.322219 71.570538 
L 113.542214 71.562158 
L 118.718814 71.642604 
L 118.991266 71.919694 
L 119.536171 72.872192 
L 121.307113 76.275488 
L 121.44334 75.949236 
L 122.260698 72.40572 
L 122.669377 71.984497 
L 122.941829 72.2398 
L 123.759187 73.56827 
L 123.895413 73.366597 
L 124.304092 72.293431 
L 124.712771 71.873326 
L 125.12145 71.740367 
L 125.393903 71.94204 
L 125.938808 72.676106 
L 126.075034 72.659347 
L 126.756166 71.831986 
L 127.301071 71.659363 
L 127.845976 71.648749 
L 128.390882 71.704055 
L 129.208239 71.581152 
L 132.750124 71.561599 
L 141.604834 71.604616 
L 141.877286 71.812433 
L 142.285965 72.500131 
L 142.694644 73.140344 
L 142.967097 73.14202 
L 143.23955 72.725826 
L 143.648229 72.04148 
L 144.056907 71.820254 
L 144.32936 72.058239 
L 145.010492 73.048167 
L 145.146718 72.93532 
L 145.691623 71.996229 
L 146.100302 71.75601 
L 146.372755 71.758244 
L 146.645207 72.073881 
L 147.190113 72.87331 
L 147.326339 72.823031 
L 148.00747 71.87165 
L 148.552376 71.686737 
L 148.824828 71.820813 
L 149.50596 72.491752 
L 149.642186 72.407954 
L 150.050865 71.9007 
L 150.59577 71.674447 
L 151.140676 71.686737 
L 151.821807 72.006843 
L 153.047844 71.601822 
L 155.636144 71.562158 
L 166.534249 71.612995 
L 166.942928 71.879471 
L 167.624059 72.396781 
L 167.896512 72.312984 
L 168.71387 71.711876 
L 168.986322 71.720256 
L 169.395001 72.040362 
L 169.80368 72.323039 
L 170.076133 72.156562 
L 170.484812 71.80126 
L 171.029717 71.645397 
L 171.30217 71.705731 
L 172.119528 72.228069 
L 173.073112 71.661598 
L 173.618017 71.679475 
L 174.435375 72.02472 
L 175.116506 71.671095 
L 175.933864 71.623051 
L 176.751222 71.782825 
L 177.432354 71.610202 
L 179.203296 71.563275 
L 191.463664 71.618582 
L 192.689701 71.9588 
L 193.643285 71.631431 
L 194.051964 71.734781 
L 194.596869 71.959358 
L 194.869322 71.881706 
L 195.414227 71.658246 
L 196.095358 71.634783 
L 197.048943 71.86774 
L 197.593848 71.653218 
L 198.411206 71.622492 
L 199.228564 71.807405 
L 200.045921 71.60685 
L 200.999506 71.637576 
L 201.544411 71.681151 
L 202.497995 71.5778 
L 207.538369 71.562158 
L 216.529305 71.649308 
L 217.346663 71.790646 
L 218.845152 71.654335 
L 219.526284 71.764389 
L 220.616094 71.585621 
L 221.297226 71.696793 
L 221.842131 71.723608 
L 222.523263 71.59847 
L 223.476847 71.641486 
L 224.157979 71.666626 
L 225.111563 71.576683 
L 231.10552 71.562158 
L 241.731173 71.667184 
L 242.412304 71.654894 
L 243.365888 71.585621 
L 244.864378 71.597353 
L 245.954188 71.615789 
L 246.771546 71.624727 
L 247.997583 71.580035 
L 249.359846 71.583945 
L 252.493051 71.564393 
L 266.388135 71.610202 
L 267.614172 71.58227 
L 270.611151 71.581711 
L 271.973414 71.575566 
L 276.877561 71.564393 
L 304.395276 71.562158 
L 497.972865 71.562158 
L 497.972865 71.562158 
" style="fill:none;stroke:#bf00bf;stroke-linecap:square;stroke-width:1.5;"/>
   </g>
   <g id="line2d_28">
    <path clip-path="url(#pef1a1b2a61)" d="M 92.290909 71.562158 
L 92.427135 211.22464 
L 93.789399 211.144195 
L 94.334304 210.748112 
L 94.742983 210.226892 
L 95.151662 209.348694 
L 95.560341 207.8733 
L 95.96902 205.547081 
L 96.513925 200.703028 
L 97.05883 193.379127 
L 97.603735 183.096058 
L 98.965998 155.398194 
L 103.461467 68.348804 
L 103.870146 67.454405 
L 104.278824 67.107484 
L 104.82373 66.97229 
L 106.049767 67.000223 
L 112.452403 67.314184 
L 115.585608 67.263347 
L 117.765229 67.153293 
L 117.901456 67.184577 
L 118.173908 68.306905 
L 118.991266 72.363262 
L 120.353529 75.499523 
L 121.034661 76.996705 
L 121.170887 76.871567 
L 121.44334 75.04534 
L 121.988245 69.135383 
L 122.260698 69.99291 
L 123.078055 73.18336 
L 123.486734 74.196193 
L 123.622961 74.135858 
L 123.759187 73.675531 
L 124.03164 71.626962 
L 124.167866 70.273911 
L 124.304092 70.058831 
L 124.576545 70.438713 
L 125.802582 73.144813 
L 125.938808 73.026938 
L 126.211261 71.97947 
L 126.483713 70.580052 
L 126.61994 70.528656 
L 126.892392 70.77111 
L 127.573524 71.556013 
L 128.254655 71.763831 
L 129.072013 71.194008 
L 132.205218 70.997922 
L 136.836913 70.728652 
L 137.926723 70.60128 
L 139.15276 70.449886 
L 139.970118 70.619157 
L 140.787476 71.042614 
L 141.604834 71.676123 
L 141.877286 72.187287 
L 142.422192 73.528047 
L 142.558418 73.652626 
L 142.694644 73.606817 
L 142.967097 72.998447 
L 143.512002 71.087306 
L 143.784455 71.342609 
L 144.193134 72.089524 
L 144.738039 73.562684 
L 144.874265 73.540896 
L 145.010492 73.231404 
L 145.282944 71.802378 
L 145.555397 70.530332 
L 145.827849 70.815243 
L 146.508981 72.204606 
L 146.91766 73.310732 
L 147.053886 73.380564 
L 147.190113 73.183919 
L 147.462565 71.967738 
L 147.735018 70.561616 
L 147.871244 70.567203 
L 148.279923 71.166634 
L 149.369734 72.835321 
L 149.642186 72.182818 
L 150.050865 70.773344 
L 150.323318 70.950436 
L 151.549355 72.192874 
L 151.685581 72.177232 
L 151.958034 71.799026 
L 152.230486 71.155461 
L 152.502939 71.129763 
L 153.865202 71.533667 
L 156.998407 71.290654 
L 164.490854 71.031999 
L 165.580665 71.285068 
L 166.534249 71.702938 
L 167.487833 72.6208 
L 167.760286 72.352089 
L 168.441417 71.339815 
L 168.986322 71.785618 
L 169.531228 72.569404 
L 169.667454 72.589515 
L 169.939907 72.192315 
L 170.348586 71.041496 
L 170.621038 71.152109 
L 171.438396 72.063267 
L 171.847075 72.505718 
L 171.983301 72.43868 
L 172.255754 71.873885 
L 172.528207 71.059373 
L 172.800659 71.104624 
L 173.754243 71.966621 
L 174.026696 72.224158 
L 174.299149 72.156562 
L 174.571601 71.657687 
L 174.844054 71.153785 
L 175.116506 71.217471 
L 176.47877 71.899583 
L 176.751222 71.730312 
L 177.159901 71.324173 
L 177.841033 71.467746 
L 178.658391 71.552661 
L 184.107443 71.373334 
L 190.101401 71.371658 
L 191.327438 71.632548 
L 192.281022 72.118015 
L 192.553474 71.98338 
L 193.234606 71.442607 
L 193.779511 71.669419 
L 194.460643 72.100697 
L 194.733095 71.90908 
L 195.141774 71.29233 
L 195.550453 71.407971 
L 196.77649 72.026396 
L 197.048943 71.742602 
L 197.321395 71.302945 
L 197.593848 71.320263 
L 199.092337 71.879471 
L 199.909695 71.378921 
L 201.271958 71.742602 
L 201.680637 71.566627 
L 201.95309 71.436462 
L 209.71799 71.456015 
L 215.439495 71.51188 
L 216.393079 71.688413 
L 217.07421 71.856567 
L 217.619116 71.645956 
L 218.027795 71.499031 
L 218.845152 71.742043 
L 219.253831 71.84707 
L 219.526284 71.743719 
L 220.071189 71.421378 
L 221.024773 71.69791 
L 221.433452 71.824165 
L 221.705905 71.750982 
L 222.25081 71.41635 
L 223.204394 71.626962 
L 223.7493 71.753216 
L 224.157979 71.592884 
L 224.430431 71.448752 
L 225.247789 71.555454 
L 226.3376 71.611878 
L 226.882505 71.496237 
L 229.607031 71.534784 
L 240.505136 71.552102 
L 242.412304 71.603498 
L 242.95721 71.541488 
L 244.319473 71.654894 
L 244.864378 71.487858 
L 246.63532 71.607967 
L 247.043999 71.484506 
L 248.951167 71.575566 
L 249.359846 71.502383 
L 251.403241 71.530874 
L 253.855314 71.551544 
L 265.434551 71.561599 
L 269.112661 71.609643 
L 269.793793 71.530315 
L 271.428509 71.584504 
L 271.973414 71.526405 
L 273.880582 71.538695 
L 274.970393 71.56551 
L 277.28624 71.559365 
L 285.05114 71.54484 
L 498.109091 71.562158 
L 498.109091 71.562158 
" style="fill:none;stroke:#00bfbf;stroke-linecap:square;stroke-width:1.5;"/>
   </g>
   <g id="line2d_29">
    <path clip-path="url(#pef1a1b2a61)" d="M 92.290909 71.562158 
L 92.427135 211.22464 
L 92.835814 256.492603 
L 94.061851 362.525477 
L 94.47053 367.249421 
L 94.742983 368.582918 
L 95.015435 369.180673 
L 95.287888 369.36 
L 95.560341 369.304135 
L 96.105246 368.860008 
L 97.739962 366.967861 
L 99.64713 364.937169 
L 101.690525 363.103679 
L 103.597693 361.676329 
L 105.777314 360.388082 
L 108.093161 359.26743 
L 110.817687 358.212141 
L 111.635045 357.941754 
L 111.907498 357.419416 
L 112.724856 355.098785 
L 114.223345 350.326797 
L 114.495798 348.191078 
L 114.904477 342.305143 
L 115.449382 330.14054 
L 116.402966 301.561686 
L 117.35655 274.820231 
L 117.765229 267.725936 
L 118.037682 265.323182 
L 118.173908 264.933803 
L 118.310135 265.128772 
L 118.582587 267.382925 
L 118.85504 272.268877 
L 119.808624 298.011466 
L 120.898434 333.675118 
L 121.579566 356.300999 
L 122.124471 356.956854 
L 122.669377 357.253497 
L 123.486734 357.393719 
L 124.576545 357.309362 
L 126.075034 356.977524 
L 128.118429 356.207705 
L 130.161824 355.169174 
L 132.88635 353.515571 
L 137.109366 350.75584 
L 137.381818 350.287133 
L 137.790497 348.99721 
L 138.335402 346.33636 
L 139.288987 340.135905 
L 140.106344 335.152748 
L 140.515023 333.514786 
L 140.787476 332.926528 
L 141.059929 332.825412 
L 141.332381 333.270097 
L 141.604834 334.304717 
L 142.013513 337.02199 
L 142.558418 342.79452 
L 143.375776 353.146862 
L 144.056907 353.551324 
L 145.010492 353.839588 
L 146.91766 354.077573 
L 148.824828 354.090421 
L 150.731997 353.92562 
L 153.18407 353.488197 
L 156.044823 352.734019 
L 161.085196 351.110583 
L 162.175007 350.636289 
L 162.583686 350.016188 
L 163.128591 348.697215 
L 164.082175 345.554251 
L 165.035759 342.635863 
L 165.444438 341.902915 
L 165.716891 341.690628 
L 165.989344 341.740906 
L 166.261796 342.081683 
L 166.670475 343.177754 
L 167.079154 344.997277 
L 167.624059 348.469845 
L 168.168965 352.035148 
L 169.395001 352.339613 
L 171.30217 352.499945 
L 173.89047 352.527319 
L 176.751222 352.359165 
L 180.565559 351.889341 
L 186.831969 350.827347 
L 187.240648 350.572603 
L 187.785553 349.959205 
L 188.602911 348.621797 
L 189.828948 346.592781 
L 190.373853 346.12966 
L 190.782532 346.109549 
L 191.191211 346.430214 
L 191.59989 347.12294 
L 192.144795 348.628501 
L 192.962153 351.486554 
L 194.733095 351.679847 
L 198.683658 351.746885 
L 202.906674 351.587111 
L 208.900632 351.110024 
L 212.033837 350.720086 
L 212.714968 350.291602 
L 213.941005 349.165922 
L 214.758363 348.532972 
L 215.303268 348.350293 
L 215.711947 348.398896 
L 216.120626 348.635764 
L 216.665531 349.262569 
L 217.346663 350.508917 
L 217.755342 351.203877 
L 220.071189 351.318959 
L 225.384015 351.317283 
L 231.514199 351.107231 
L 236.963252 350.760309 
L 237.916836 350.37931 
L 239.687778 349.594966 
L 240.36891 349.545246 
L 240.913815 349.694405 
L 241.594946 350.145794 
L 242.684757 351.063098 
L 245.954188 351.126784 
L 253.037957 351.074829 
L 261.620214 350.836844 
L 262.982477 350.539084 
L 264.753419 350.170934 
L 265.570777 350.224005 
L 266.388135 350.498861 
L 267.614172 350.985445 
L 274.289261 351.012819 
L 286.413403 350.858632 
L 288.593024 350.583217 
L 289.955287 350.505006 
L 291.045098 350.650814 
L 292.679813 350.942988 
L 304.531502 350.92958 
L 312.977534 350.753047 
L 315.020928 350.692154 
L 316.519418 350.868129 
L 317.336776 350.916173 
L 329.73337 350.908351 
L 365.833342 350.870363 
L 368.557869 350.897178 
L 498.109091 350.887681 
L 498.109091 350.887681 
" style="fill:none;stroke:#ff0000;stroke-linecap:square;stroke-width:1.5;"/>
   </g>
   <g id="line2d_30">
    <path clip-path="url(#pef1a1b2a61)" d="M 92.290909 71.562158 
L 92.427135 211.22464 
L 92.563362 211.22464 
L 92.835814 223.116621 
L 93.38072 261.871843 
L 94.334304 332.151121 
L 94.742983 342.776084 
L 95.015435 345.833576 
L 95.287888 347.249753 
L 95.560341 347.737454 
L 95.832793 347.702818 
L 96.241472 347.151431 
L 97.05883 345.419616 
L 99.238451 340.710756 
L 100.873167 337.719744 
L 102.644109 334.951634 
L 104.415051 332.60698 
L 106.185993 330.627124 
L 108.093161 328.819333 
L 110.136556 327.194221 
L 111.635045 326.175802 
L 111.907498 325.056826 
L 112.316177 321.834533 
L 113.133535 313.05088 
L 114.495798 295.927143 
L 115.040703 284.084323 
L 115.721835 263.136068 
L 117.629003 199.301934 
L 118.037682 192.900923 
L 118.310135 191.474131 
L 118.446361 191.717702 
L 118.718814 194.257883 
L 118.991266 199.670084 
L 120.081077 231.479052 
L 121.170887 269.592944 
L 121.579566 283.469249 
L 121.988245 287.851299 
L 122.396924 290.412151 
L 122.941829 292.34061 
L 123.486734 293.419922 
L 124.03164 294.06628 
L 124.712771 294.522138 
L 125.393903 294.724369 
L 126.075034 294.727163 
L 126.892392 294.483591 
L 127.70975 293.9998 
L 128.663334 293.154563 
L 129.753145 291.849557 
L 130.979182 290.001543 
L 132.477671 287.287622 
L 134.248613 283.594946 
L 136.973139 277.331921 
L 137.381818 276.133058 
L 137.926723 273.613547 
L 138.607855 269.111946 
L 140.378797 256.264115 
L 140.787476 254.763023 
L 141.059929 254.383699 
L 141.196155 254.406045 
L 141.468608 254.909948 
L 141.74106 256.059091 
L 142.149739 259.040605 
L 142.694644 265.301954 
L 143.512002 275.40402 
L 144.056907 277.426892 
L 144.601813 278.654804 
L 145.282944 279.688307 
L 146.236528 280.708401 
L 147.462565 281.659782 
L 148.552376 282.23184 
L 149.642186 282.577085 
L 150.731997 282.688257 
L 151.821807 282.582672 
L 152.911618 282.266476 
L 154.137654 281.680452 
L 155.499918 280.772646 
L 157.134633 279.381049 
L 159.041802 277.438065 
L 161.766328 274.30739 
L 162.175007 273.731981 
L 162.719912 272.49513 
L 163.401044 270.243212 
L 165.308212 263.308691 
L 165.716891 262.673506 
L 165.989344 262.586356 
L 166.261796 262.805906 
L 166.534249 263.3545 
L 166.942928 264.823191 
L 167.487833 267.961686 
L 168.305191 273.218023 
L 168.850096 274.273313 
L 169.531228 275.03587 
L 170.484812 275.695636 
L 171.847075 276.32691 
L 173.345564 276.777182 
L 174.844054 277.00567 
L 176.342543 277.015167 
L 177.977259 276.791148 
L 179.611975 276.345345 
L 181.519143 275.585582 
L 183.83499 274.397333 
L 186.831969 272.595687 
L 187.376874 272.030333 
L 188.058006 270.936497 
L 190.237627 266.896899 
L 190.646306 266.658356 
L 190.918759 266.686288 
L 191.191211 266.880698 
L 191.59989 267.505828 
L 192.144795 268.968373 
L 193.234606 272.364965 
L 193.915737 272.932553 
L 194.869322 273.363272 
L 196.504037 273.796784 
L 198.547432 274.108511 
L 200.727053 274.20404 
L 202.906674 274.06773 
L 205.222521 273.697903 
L 207.947048 273.030317 
L 211.625158 271.885643 
L 212.306289 271.487884 
L 213.123647 270.725886 
L 214.894589 268.949379 
L 215.439495 268.748824 
L 215.848174 268.805806 
L 216.256853 269.068371 
L 216.801758 269.752718 
L 217.482889 271.096271 
L 217.755342 271.578944 
L 218.436473 271.969999 
L 219.526284 272.268318 
L 221.569679 272.552112 
L 224.294205 272.72697 
L 227.291184 272.691216 
L 230.424389 272.428651 
L 234.374952 271.863297 
L 236.963252 271.352132 
L 238.053062 270.812477 
L 239.687778 269.948804 
L 240.36891 269.844895 
L 240.913815 269.961653 
L 241.45872 270.279524 
L 242.139852 270.94767 
L 242.548531 271.35716 
L 243.502115 271.613581 
L 245.409283 271.810784 
L 249.087394 271.963295 
L 253.174183 271.908548 
L 258.07833 271.596262 
L 262.165119 271.135376 
L 265.162098 270.427008 
L 265.979456 270.564995 
L 266.796814 270.942083 
L 267.477946 271.2661 
L 268.840209 271.412467 
L 272.790772 271.544867 
L 278.103598 271.525314 
L 284.506235 271.285653 
L 287.366987 271.052696 
L 289.955287 270.737617 
L 291.045098 270.868342 
L 292.952266 271.23705 
L 297.039055 271.329786 
L 304.122823 271.30744 
L 312.160176 271.070014 
L 315.157155 270.915827 
L 316.655644 271.106326 
L 317.609228 271.166661 
L 323.46696 271.226436 
L 333.41148 271.157164 
L 343.356001 271.144315 
L 356.297501 271.140404 
L 391.852568 271.104092 
L 405.611425 271.107444 
L 437.897061 271.085656 
L 498.109091 271.095153 
L 498.109091 271.095153 
" style="fill:none;stroke:#008000;stroke-linecap:square;stroke-width:1.5;"/>
   </g>
   <g id="patch_3">
    <path d="M 72 384.48 
L 72 51.84 
" style="fill:none;stroke:#000000;stroke-linecap:square;stroke-linejoin:miter;stroke-width:0.8;"/>
   </g>
   <g id="patch_4">
    <path d="M 518.4 384.48 
L 518.4 51.84 
" style="fill:none;stroke:#000000;stroke-linecap:square;stroke-linejoin:miter;stroke-width:0.8;"/>
   </g>
   <g id="patch_5">
    <path d="M 72 384.48 
L 518.4 384.48 
" style="fill:none;stroke:#000000;stroke-linecap:square;stroke-linejoin:miter;stroke-width:0.8;"/>
   </g>
   <g id="patch_6">
    <path d="M 72 51.84 
L 518.4 51.84 
" style="fill:none;stroke:#000000;stroke-linecap:square;stroke-linejoin:miter;stroke-width:0.8;"/>
   </g>
   <g id="legend_1">
    <g id="patch_7">
     <path d="M 443.185706 253.634488 
L 511.4 253.634488 
Q 513.4 253.634488 513.4 251.634488 
L 513.4 184.685512 
Q 513.4 182.685512 511.4 182.685512 
L 443.185706 182.685512 
Q 441.185706 182.685512 441.185706 184.685512 
L 441.185706 251.634488 
Q 441.185706 253.634488 443.185706 253.634488 
z
" style="fill:#ffffff;opacity:0.8;stroke:#cccccc;stroke-linejoin:miter;"/>
    </g>
    <g id="line2d_31">
     <path d="M 445.185706 193.235578 
L 465.185706 193.235578 
" style="fill:none;stroke:#bf00bf;stroke-linecap:square;stroke-width:1.5;"/>
    </g>
    <g id="line2d_32"/>
    <g id="text_16">
     <!-- $\partial \mathcal{L}/ \partial \mu^{\overline{U}}_{1}$ -->
     <g transform="translate(473.185706 196.735578)scale(0.1 -0.1)">
      <use transform="translate(0 24.740171)scale(0.996264)" xlink:href="#CMMI12-64"/>
      <use transform="translate(56.915564 24.740171)scale(0.996264)" xlink:href="#CMSY10-76"/>
      <use transform="translate(125.630372 24.740171)scale(0.996264)" xlink:href="#CMMI12-61"/>
      <use transform="translate(174.405291 24.740171)scale(0.996264)" xlink:href="#CMMI12-64"/>
      <use transform="translate(231.320856 24.740171)scale(0.996264)" xlink:href="#CMMI12-22"/>
      <use transform="translate(290.012277 60.89381)scale(0.697382)" xlink:href="#CMMI12-85"/>
      <use transform="translate(290.012277 0)scale(0.697382)" xlink:href="#CMR17-49"/>
      <path d="M 290.012277 116.916574 
L 344.171317 116.916574 
L 344.171317 119.706025 
L 290.012277 119.706025 
L 290.012277 116.916574 
z
"/>
     </g>
    </g>
    <g id="line2d_33">
     <path d="M 445.185706 210.222822 
L 465.185706 210.222822 
" style="fill:none;stroke:#00bfbf;stroke-linecap:square;stroke-width:1.5;"/>
    </g>
    <g id="line2d_34"/>
    <g id="text_17">
     <!-- $\partial \mathcal{L}/ \partial \mu^{\overline{U}}_{2}$ -->
     <g transform="translate(473.185706 213.722822)scale(0.1 -0.1)">
      <use transform="translate(0 24.740171)scale(0.996264)" xlink:href="#CMMI12-64"/>
      <use transform="translate(56.915564 24.740171)scale(0.996264)" xlink:href="#CMSY10-76"/>
      <use transform="translate(125.630372 24.740171)scale(0.996264)" xlink:href="#CMMI12-61"/>
      <use transform="translate(174.405291 24.740171)scale(0.996264)" xlink:href="#CMMI12-64"/>
      <use transform="translate(231.320856 24.740171)scale(0.996264)" xlink:href="#CMMI12-22"/>
      <use transform="translate(290.012277 60.89381)scale(0.697382)" xlink:href="#CMMI12-85"/>
      <use transform="translate(290.012277 0)scale(0.697382)" xlink:href="#CMR17-50"/>
      <path d="M 290.012277 116.916574 
L 344.171317 116.916574 
L 344.171317 119.706025 
L 290.012277 119.706025 
L 290.012277 116.916574 
z
"/>
     </g>
    </g>
    <g id="line2d_35">
     <path d="M 445.185706 227.210066 
L 465.185706 227.210066 
" style="fill:none;stroke:#ff0000;stroke-linecap:square;stroke-width:1.5;"/>
    </g>
    <g id="line2d_36"/>
    <g id="text_18">
     <!-- $\partial \mathcal{L}/ \partial \mu^{\overline{U}}_{3}$ -->
     <g transform="translate(473.185706 230.710066)scale(0.1 -0.1)">
      <use transform="translate(0 24.740171)scale(0.996264)" xlink:href="#CMMI12-64"/>
      <use transform="translate(56.915564 24.740171)scale(0.996264)" xlink:href="#CMSY10-76"/>
      <use transform="translate(125.630372 24.740171)scale(0.996264)" xlink:href="#CMMI12-61"/>
      <use transform="translate(174.405291 24.740171)scale(0.996264)" xlink:href="#CMMI12-64"/>
      <use transform="translate(231.320856 24.740171)scale(0.996264)" xlink:href="#CMMI12-22"/>
      <use transform="translate(290.012277 60.89381)scale(0.697382)" xlink:href="#CMMI12-85"/>
      <use transform="translate(290.012277 0)scale(0.697382)" xlink:href="#CMR17-51"/>
      <path d="M 290.012277 116.916574 
L 344.171317 116.916574 
L 344.171317 119.706025 
L 290.012277 119.706025 
L 290.012277 116.916574 
z
"/>
     </g>
    </g>
    <g id="line2d_37">
     <path d="M 445.185706 244.197309 
L 465.185706 244.197309 
" style="fill:none;stroke:#008000;stroke-linecap:square;stroke-width:1.5;"/>
    </g>
    <g id="line2d_38"/>
    <g id="text_19">
     <!-- $\partial \mathcal{L}/ \partial \mu^{\overline{U}}_{4}$ -->
     <g transform="translate(473.185706 247.697309)scale(0.1 -0.1)">
      <use transform="translate(0 24.740171)scale(0.996264)" xlink:href="#CMMI12-64"/>
      <use transform="translate(56.915564 24.740171)scale(0.996264)" xlink:href="#CMSY10-76"/>
      <use transform="translate(125.630372 24.740171)scale(0.996264)" xlink:href="#CMMI12-61"/>
      <use transform="translate(174.405291 24.740171)scale(0.996264)" xlink:href="#CMMI12-64"/>
      <use transform="translate(231.320856 24.740171)scale(0.996264)" xlink:href="#CMMI12-22"/>
      <use transform="translate(290.012277 60.89381)scale(0.697382)" xlink:href="#CMMI12-85"/>
      <use transform="translate(290.012277 0)scale(0.697382)" xlink:href="#CMR17-52"/>
      <path d="M 290.012277 116.916574 
L 344.171317 116.916574 
L 344.171317 119.706025 
L 290.012277 119.706025 
L 290.012277 116.916574 
z
"/>
     </g>
    </g>
   </g>
  </g>
 </g>
 <defs>
  <clipPath id="pef1a1b2a61">
   <rect height="332.64" width="446.4" x="72" y="51.84"/>
  </clipPath>
 </defs>
</svg>
