<?xml version="1.0" encoding="utf-8" standalone="no"?>
<!DOCTYPE svg PUBLIC "-//W3C//DTD SVG 1.1//EN"
  "http://www.w3.org/Graphics/SVG/1.1/DTD/svg11.dtd">
<!-- Created with matplotlib (http://matplotlib.org/) -->
<svg height="432pt" version="1.1" viewBox="0 0 576 432" width="576pt" xmlns="http://www.w3.org/2000/svg" xmlns:xlink="http://www.w3.org/1999/xlink">
 <defs>
  <style type="text/css">
*{stroke-linecap:butt;stroke-linejoin:round;}
  </style>
 </defs>
 <g id="figure_1">
  <g id="patch_1">
   <path d="M 0 432 
L 576 432 
L 576 0 
L 0 0 
z
" style="fill:#ffffff;"/>
  </g>
  <g id="axes_1">
   <g id="patch_2">
    <path d="M 72 384.48 
L 518.4 384.48 
L 518.4 51.84 
L 72 51.84 
z
" style="fill:#ffffff;"/>
   </g>
   <g id="matplotlib.axis_1">
    <g id="xtick_1">
     <g id="line2d_1">
      <path clip-path="url(#pd7f393a690)" d="M 92.290909 384.48 
L 92.290909 51.84 
" style="fill:none;stroke:#b0b0b0;stroke-dasharray:5.12,1.28,0.8,1.28;stroke-dashoffset:0;stroke-width:0.8;"/>
     </g>
     <g id="line2d_2">
      <defs>
       <path d="M 0 0 
L 0 3.5 
" id="mcf15575e59" style="stroke:#000000;stroke-width:0.8;"/>
      </defs>
      <g>
       <use style="stroke:#000000;stroke-width:0.8;" x="92.290909" xlink:href="#mcf15575e59" y="384.48"/>
      </g>
     </g>
     <g id="text_1">
      <!-- $0$ -->
      <defs>
       <path d="M 42 31.640625 
C 42 37.75 41.90625 48.125 37.703125 56.109375 
C 34 63.109375 28.09375 65.59375 22.90625 65.59375 
C 18.09375 65.59375 12 63.40625 8.203125 56.203125 
C 4.203125 48.71875 3.796875 39.4375 3.796875 31.640625 
C 3.796875 25.953125 3.90625 17.28125 7 9.671875 
C 11.296875 -0.609375 19 -2 22.90625 -2 
C 27.5 -2 34.5 -0.109375 38.59375 9.375 
C 41.59375 16.28125 42 24.359375 42 31.640625 
z
M 22.90625 -0.40625 
C 16.5 -0.40625 12.703125 5.078125 11.296875 12.6875 
C 10.203125 18.5625 10.203125 27.15625 10.203125 32.75 
C 10.203125 40.4375 10.203125 46.828125 11.5 52.921875 
C 13.40625 61.390625 19 64 22.90625 64 
C 27 64 32.296875 61.296875 34.203125 53.125 
C 35.5 47.4375 35.59375 40.734375 35.59375 32.75 
C 35.59375 26.25 35.59375 18.265625 34.40625 12.375 
C 32.296875 1.484375 26.40625 -0.40625 22.90625 -0.40625 
z
" id="CMR17-48"/>
      </defs>
      <g transform="translate(89.800241 398.398498)scale(0.1 -0.1)">
       <use transform="scale(0.996264)" xlink:href="#CMR17-48"/>
      </g>
     </g>
    </g>
    <g id="xtick_2">
     <g id="line2d_3">
      <path clip-path="url(#pd7f393a690)" d="M 164.629266 384.48 
L 164.629266 51.84 
" style="fill:none;stroke:#b0b0b0;stroke-dasharray:5.12,1.28,0.8,1.28;stroke-dashoffset:0;stroke-width:0.8;"/>
     </g>
     <g id="line2d_4">
      <g>
       <use style="stroke:#000000;stroke-width:0.8;" x="164.629266" xlink:href="#mcf15575e59" y="384.48"/>
      </g>
     </g>
     <g id="text_2">
      <!-- $500$ -->
      <defs>
       <path d="M 11.40625 57.6875 
C 12.40625 57.28125 16.5 56 20.703125 56 
C 30 56 35.09375 61.109375 38 64.0625 
C 38 64.953125 38 65.5 37.40625 65.5 
C 37.296875 65.5 37.09375 65.5 36.296875 65.046875 
C 32.796875 63.40625 28.703125 62.078125 23.703125 62.078125 
C 20.703125 62.078125 16.203125 62.484375 11.296875 64.671875 
C 10.203125 65.171875 10 65.171875 9.90625 65.171875 
C 9.40625 65.171875 9.296875 65.0625 9.296875 63.078125 
L 9.296875 34.421875 
C 9.296875 32.640625 9.296875 32.140625 10.296875 32.140625 
C 10.796875 32.140625 11 32.34375 11.5 33.03125 
C 14.703125 37.515625 19.09375 39.40625 24.09375 39.40625 
C 27.59375 39.40625 35.09375 37.21875 35.09375 20.140625 
C 35.09375 16.953125 35.09375 11.171875 32.09375 6.578125 
C 29.59375 2.484375 25.703125 0.390625 21.40625 0.390625 
C 14.796875 0.390625 8.09375 5 6.296875 12.71875 
C 6.703125 12.609375 7.5 12.421875 7.90625 12.421875 
C 9.203125 12.421875 11.703125 13.125 11.703125 16.21875 
C 11.703125 18.90625 9.796875 20 7.90625 20 
C 5.59375 20 4.09375 18.59375 4.09375 15.796875 
C 4.09375 7.09375 11 -2 21.59375 -2 
C 31.90625 -2 41.703125 6.875 41.703125 19.75 
C 41.703125 31.71875 33.90625 41 24.203125 41 
C 19.09375 41 14.796875 39.109375 11.40625 35.53125 
z
" id="CMR17-53"/>
      </defs>
      <g transform="translate(157.157263 398.398498)scale(0.1 -0.1)">
       <use transform="scale(0.996264)" xlink:href="#CMR17-53"/>
       <use transform="translate(45.690477 0)scale(0.996264)" xlink:href="#CMR17-48"/>
       <use transform="translate(91.380954 0)scale(0.996264)" xlink:href="#CMR17-48"/>
      </g>
     </g>
    </g>
    <g id="xtick_3">
     <g id="line2d_5">
      <path clip-path="url(#pd7f393a690)" d="M 236.967623 384.48 
L 236.967623 51.84 
" style="fill:none;stroke:#b0b0b0;stroke-dasharray:5.12,1.28,0.8,1.28;stroke-dashoffset:0;stroke-width:0.8;"/>
     </g>
     <g id="line2d_6">
      <g>
       <use style="stroke:#000000;stroke-width:0.8;" x="236.967623" xlink:href="#mcf15575e59" y="384.48"/>
      </g>
     </g>
     <g id="text_3">
      <!-- $1000$ -->
      <defs>
       <path d="M 26.59375 63.40625 
C 26.59375 65.5 26.5 65.5 25.09375 65.5 
C 21.203125 61.1875 15.296875 59.796875 9.703125 59.796875 
C 9.40625 59.796875 8.90625 59.796875 8.796875 59.5 
C 8.703125 59.296875 8.703125 59.09375 8.703125 57 
C 11.796875 57 17 57.59375 21 59.984375 
L 21 7.203125 
C 21 3.6875 20.796875 2.5 12.203125 2.5 
L 9.203125 2.5 
L 9.203125 0 
C 14 0 19 0 23.796875 0 
C 28.59375 0 33.59375 0 38.40625 0 
L 38.40625 2.5 
L 35.40625 2.5 
C 26.796875 2.5 26.59375 3.59375 26.59375 7.15625 
z
" id="CMR17-49"/>
      </defs>
      <g transform="translate(227.004952 398.398498)scale(0.1 -0.1)">
       <use transform="scale(0.996264)" xlink:href="#CMR17-49"/>
       <use transform="translate(45.690477 0)scale(0.996264)" xlink:href="#CMR17-48"/>
       <use transform="translate(91.380954 0)scale(0.996264)" xlink:href="#CMR17-48"/>
       <use transform="translate(137.071431 0)scale(0.996264)" xlink:href="#CMR17-48"/>
      </g>
     </g>
    </g>
    <g id="xtick_4">
     <g id="line2d_7">
      <path clip-path="url(#pd7f393a690)" d="M 309.30598 384.48 
L 309.30598 51.84 
" style="fill:none;stroke:#b0b0b0;stroke-dasharray:5.12,1.28,0.8,1.28;stroke-dashoffset:0;stroke-width:0.8;"/>
     </g>
     <g id="line2d_8">
      <g>
       <use style="stroke:#000000;stroke-width:0.8;" x="309.30598" xlink:href="#mcf15575e59" y="384.48"/>
      </g>
     </g>
     <g id="text_4">
      <!-- $1500$ -->
      <g transform="translate(299.343309 398.398498)scale(0.1 -0.1)">
       <use transform="scale(0.996264)" xlink:href="#CMR17-49"/>
       <use transform="translate(45.690477 0)scale(0.996264)" xlink:href="#CMR17-53"/>
       <use transform="translate(91.380954 0)scale(0.996264)" xlink:href="#CMR17-48"/>
       <use transform="translate(137.071431 0)scale(0.996264)" xlink:href="#CMR17-48"/>
      </g>
     </g>
    </g>
    <g id="xtick_5">
     <g id="line2d_9">
      <path clip-path="url(#pd7f393a690)" d="M 381.644336 384.48 
L 381.644336 51.84 
" style="fill:none;stroke:#b0b0b0;stroke-dasharray:5.12,1.28,0.8,1.28;stroke-dashoffset:0;stroke-width:0.8;"/>
     </g>
     <g id="line2d_10">
      <g>
       <use style="stroke:#000000;stroke-width:0.8;" x="381.644336" xlink:href="#mcf15575e59" y="384.48"/>
      </g>
     </g>
     <g id="text_5">
      <!-- $2000$ -->
      <defs>
       <path d="M 41.703125 15.453125 
L 39.90625 15.453125 
C 38.90625 8.375 38.09375 7.171875 37.703125 6.5625 
C 37.203125 5.765625 30 5.765625 28.59375 5.765625 
L 9.40625 5.765625 
C 13 9.671875 20 16.75 28.5 24.953125 
C 34.59375 30.734375 41.703125 37.53125 41.703125 47.421875 
C 41.703125 59.21875 32.296875 66 21.796875 66 
C 10.796875 66 4.09375 56.3125 4.09375 47.34375 
C 4.09375 43.4375 7 42.9375 8.203125 42.9375 
C 9.203125 42.9375 12.203125 43.546875 12.203125 47.03125 
C 12.203125 50.109375 9.59375 51 8.203125 51 
C 7.59375 51 7 50.90625 6.59375 50.703125 
C 8.5 59.21875 14.296875 63.40625 20.40625 63.40625 
C 29.09375 63.40625 34.796875 56.515625 34.796875 47.421875 
C 34.796875 38.734375 29.703125 31.25 24 24.75 
L 4.09375 2.28125 
L 4.09375 0 
L 39.296875 0 
z
" id="CMR17-50"/>
      </defs>
      <g transform="translate(371.681666 398.398498)scale(0.1 -0.1)">
       <use transform="scale(0.996264)" xlink:href="#CMR17-50"/>
       <use transform="translate(45.690477 0)scale(0.996264)" xlink:href="#CMR17-48"/>
       <use transform="translate(91.380954 0)scale(0.996264)" xlink:href="#CMR17-48"/>
       <use transform="translate(137.071431 0)scale(0.996264)" xlink:href="#CMR17-48"/>
      </g>
     </g>
    </g>
    <g id="xtick_6">
     <g id="line2d_11">
      <path clip-path="url(#pd7f393a690)" d="M 453.982693 384.48 
L 453.982693 51.84 
" style="fill:none;stroke:#b0b0b0;stroke-dasharray:5.12,1.28,0.8,1.28;stroke-dashoffset:0;stroke-width:0.8;"/>
     </g>
     <g id="line2d_12">
      <g>
       <use style="stroke:#000000;stroke-width:0.8;" x="453.982693" xlink:href="#mcf15575e59" y="384.48"/>
      </g>
     </g>
     <g id="text_6">
      <!-- $2500$ -->
      <g transform="translate(444.020023 398.398498)scale(0.1 -0.1)">
       <use transform="scale(0.996264)" xlink:href="#CMR17-50"/>
       <use transform="translate(45.690477 0)scale(0.996264)" xlink:href="#CMR17-53"/>
       <use transform="translate(91.380954 0)scale(0.996264)" xlink:href="#CMR17-48"/>
       <use transform="translate(137.071431 0)scale(0.996264)" xlink:href="#CMR17-48"/>
      </g>
     </g>
    </g>
    <g id="text_7">
     <!-- Iteration -->
     <defs>
      <path d="M 17.09375 69 
L 8.703125 69 
L 8.703125 0 
L 17.09375 0 
z
" id="CMSS17-73"/>
      <path d="M 16.703125 37 
L 29.703125 37 
L 29.703125 42.765625 
L 16.703125 42.765625 
L 16.703125 55 
L 9.59375 55 
L 9.59375 42.765625 
L 1.703125 42.765625 
L 1.703125 37 
L 9.40625 37 
L 9.40625 11.703125 
C 9.40625 6 10.703125 -1 17.296875 -1 
C 22.296875 -1 26.90625 0.390625 31.296875 2.6875 
L 29.703125 8.5625 
C 27.296875 6.46875 24.40625 5.265625 21.296875 5.265625 
C 16.90625 5.265625 16.703125 10.875 16.703125 13.375 
z
" id="CMSS17-116"/>
      <path d="M 39.09375 21.515625 
C 39.09375 24.84375 38.90625 31.296875 35.703125 36.640625 
C 32.203125 42.390625 26.5 44 22.203125 44 
C 11.796875 44 3 34.1875 3 21.484375 
C 3 9.09375 12.09375 -1 23.59375 -1 
C 28.09375 -1 33.59375 0.296875 38.59375 3.875 
C 38.59375 4.28125 38.40625 6.46875 38.296875 6.5625 
C 38.296875 6.765625 38 9.84375 38 10.25 
C 33.203125 6.359375 27.703125 5.078125 23.703125 5.078125 
C 17.296875 5.078125 10.40625 10.421875 10.09375 21.515625 
z
M 10.90625 27 
C 12.203125 32.5625 16.59375 37.828125 22.203125 37.828125 
C 23.703125 37.828125 30.703125 37.828125 32.5 27 
z
" id="CMSS17-101"/>
      <path d="M 14.90625 21.296875 
C 14.90625 30.703125 21.796875 37 30.59375 37 
L 30.59375 43.578125 
C 24.203125 43.578125 18.203125 40.390625 14.59375 35.203125 
L 14.59375 43.09375 
L 7.5 43.09375 
L 7.5 0 
L 14.90625 0 
z
" id="CMSS17-114"/>
      <path d="M 37.59375 27.984375 
C 37.59375 37.375 30.90625 43.875 21.90625 43.875 
C 17.5 43.875 12.703125 43.078125 7.203125 39.890625 
L 7.796875 33.359375 
C 10.296875 35.125 14.59375 38 21.796875 38 
C 26.90625 38 30 34.0625 30 27.84375 
L 30 24 
C 14 24 4 19.34375 4 11.34375 
C 4 7.203125 6.5 -1 14.796875 -1 
C 16.296875 -1 24.40625 -1 30.203125 3.390625 
L 30.203125 -0.296875 
L 37.59375 -0.296875 
z
M 30 12.75 
C 30 10.953125 30 8.5625 27 6.78125 
C 24.40625 5.078125 21.09375 5.078125 19.703125 5.078125 
C 14.703125 5.078125 11.296875 7.984375 11.296875 11.625 
C 11.296875 18.921875 26.90625 18.921875 30 18.921875 
z
" id="CMSS17-97"/>
      <path d="M 15.296875 65.359375 
L 6.90625 65.359375 
L 6.90625 57 
L 15.296875 57 
z
M 14.796875 42.796875 
L 7.40625 42.796875 
L 7.40625 0 
L 14.796875 0 
z
" id="CMSS17-105"/>
      <path d="M 44.203125 21.1875 
C 44.203125 34 34.703125 44 23.5 44 
C 12 44 2.703125 33.703125 2.703125 21.1875 
C 2.703125 8.5 12.296875 -1 23.40625 -1 
C 34.796875 -1 44.203125 8.796875 44.203125 21.1875 
z
M 23.5 5.265625 
C 16.40625 5.265625 10.296875 11.078125 10.296875 22 
C 10.296875 33.609375 17.40625 37.921875 23.40625 37.921875 
C 29.90625 37.921875 36.59375 33.21875 36.59375 22 
C 36.59375 10.671875 30.09375 5.265625 23.5 5.265625 
z
" id="CMSS17-111"/>
      <path d="M 40.90625 29.328125 
C 40.90625 35.671875 39.40625 44 28.09375 44 
C 21.703125 44 17.5 40.71875 14.703125 37.328125 
L 14.703125 43.09375 
L 7.40625 43.09375 
L 7.40625 0 
L 15 0 
L 15 24.359375 
C 15 30.6875 17.40625 37.9375 24.203125 37.9375 
C 33 37.9375 33.296875 32 33.296875 28.578125 
L 33.296875 0 
L 40.90625 0 
z
" id="CMSS17-110"/>
     </defs>
     <g transform="translate(271.264003 414.021553)scale(0.14 -0.14)">
      <use transform="scale(0.996264)" xlink:href="#CMSS17-73"/>
      <use transform="translate(25.783926 0)scale(0.996264)" xlink:href="#CMSS17-116"/>
      <use transform="translate(59.615492 0)scale(0.996264)" xlink:href="#CMSS17-101"/>
      <use transform="translate(101.254314 0)scale(0.996264)" xlink:href="#CMSS17-114"/>
      <use transform="translate(133.164087 0)scale(0.996264)" xlink:href="#CMSS17-97"/>
      <use transform="translate(178.086007 0)scale(0.996264)" xlink:href="#CMSS17-116"/>
      <use transform="translate(211.917574 0)scale(0.996264)" xlink:href="#CMSS17-105"/>
      <use transform="translate(234.098297 0)scale(0.996264)" xlink:href="#CMSS17-111"/>
      <use transform="translate(280.941921 0)scale(0.996264)" xlink:href="#CMSS17-110"/>
     </g>
    </g>
   </g>
   <g id="matplotlib.axis_2">
    <g id="ytick_1">
     <g id="line2d_13">
      <path clip-path="url(#pd7f393a690)" d="M 72 364.758384 
L 518.4 364.758384 
" style="fill:none;stroke:#b0b0b0;stroke-dasharray:5.12,1.28,0.8,1.28;stroke-dashoffset:0;stroke-width:0.8;"/>
     </g>
     <g id="line2d_14">
      <defs>
       <path d="M 0 0 
L -3.5 0 
" id="m453be068da" style="stroke:#000000;stroke-width:0.8;"/>
      </defs>
      <g>
       <use style="stroke:#000000;stroke-width:0.8;" x="72" xlink:href="#m453be068da" y="364.758384"/>
      </g>
     </g>
     <g id="text_8">
      <!-- $-50$ -->
      <defs>
       <path d="M 65.90625 23 
C 67.59375 23 69.40625 23 69.40625 25 
C 69.40625 27 67.59375 27 65.90625 27 
L 11.796875 27 
C 10.09375 27 8.296875 27 8.296875 25 
C 8.296875 23 10.09375 23 11.796875 23 
z
" id="CMSY10-0"/>
      </defs>
      <g transform="translate(47.288586 368.217633)scale(0.1 -0.1)">
       <use transform="scale(0.996264)" xlink:href="#CMSY10-0"/>
       <use transform="translate(77.487468 0)scale(0.996264)" xlink:href="#CMR17-53"/>
       <use transform="translate(123.177945 0)scale(0.996264)" xlink:href="#CMR17-48"/>
      </g>
     </g>
    </g>
    <g id="ytick_2">
     <g id="line2d_15">
      <path clip-path="url(#pd7f393a690)" d="M 72 308.893184 
L 518.4 308.893184 
" style="fill:none;stroke:#b0b0b0;stroke-dasharray:5.12,1.28,0.8,1.28;stroke-dashoffset:0;stroke-width:0.8;"/>
     </g>
     <g id="line2d_16">
      <g>
       <use style="stroke:#000000;stroke-width:0.8;" x="72" xlink:href="#m453be068da" y="308.893184"/>
      </g>
     </g>
     <g id="text_9">
      <!-- $-40$ -->
      <defs>
       <path d="M 33.59375 64.40625 
C 33.59375 66.5 33.5 66.5 31.703125 66.5 
L 2 19.59375 
L 2 17 
L 27.796875 17 
L 27.796875 7.140625 
C 27.796875 3.5 27.59375 2.5 20.59375 2.5 
L 18.703125 2.5 
L 18.703125 0 
C 21.90625 0 27.296875 0 30.703125 0 
C 34.09375 0 39.5 0 42.703125 0 
L 42.703125 2.5 
L 40.796875 2.5 
C 33.796875 2.5 33.59375 3.5 33.59375 7.140625 
L 33.59375 17 
L 43.796875 17 
L 43.796875 19.59375 
L 33.59375 19.59375 
z
M 28.09375 57.859375 
L 28.09375 19.59375 
L 4 19.59375 
z
" id="CMR17-52"/>
      </defs>
      <g transform="translate(47.288586 312.352433)scale(0.1 -0.1)">
       <use transform="scale(0.996264)" xlink:href="#CMSY10-0"/>
       <use transform="translate(77.487468 0)scale(0.996264)" xlink:href="#CMR17-52"/>
       <use transform="translate(123.177945 0)scale(0.996264)" xlink:href="#CMR17-48"/>
      </g>
     </g>
    </g>
    <g id="ytick_3">
     <g id="line2d_17">
      <path clip-path="url(#pd7f393a690)" d="M 72 253.027985 
L 518.4 253.027985 
" style="fill:none;stroke:#b0b0b0;stroke-dasharray:5.12,1.28,0.8,1.28;stroke-dashoffset:0;stroke-width:0.8;"/>
     </g>
     <g id="line2d_18">
      <g>
       <use style="stroke:#000000;stroke-width:0.8;" x="72" xlink:href="#m453be068da" y="253.027985"/>
      </g>
     </g>
     <g id="text_10">
      <!-- $-30$ -->
      <defs>
       <path d="M 22.09375 33.703125 
C 31 33.703125 34.90625 25.96875 34.90625 17.03125 
C 34.90625 5 28.5 0.390625 22.703125 0.390625 
C 17.40625 0.390625 8.796875 3.03125 6.09375 10.828125 
C 6.59375 10.625 7.09375 10.625 7.59375 10.625 
C 10 10.625 11.796875 12.21875 11.796875 14.8125 
C 11.796875 17.703125 9.59375 19 7.59375 19 
C 5.90625 19 3.296875 18.203125 3.296875 14.46875 
C 3.296875 5.234375 12.296875 -2 22.90625 -2 
C 34 -2 42.5 6.71875 42.5 16.953125 
C 42.5 26.671875 34.5 33.703125 25 34.796875 
C 32.59375 36.375 39.90625 43.0625 39.90625 52.015625 
C 39.90625 59.6875 32 65.296875 23 65.296875 
C 13.90625 65.296875 5.90625 59.828125 5.90625 52.015625 
C 5.90625 48.59375 8.5 48 9.796875 48 
C 11.90625 48 13.703125 49.296875 13.703125 51.890625 
C 13.703125 54.46875 11.90625 55.765625 9.796875 55.765625 
C 9.40625 55.765625 8.90625 55.765625 8.5 55.578125 
C 11.40625 61.859375 19.296875 63 22.796875 63 
C 26.296875 63 32.90625 61.328125 32.90625 51.875 
C 32.90625 49.109375 32.5 44.1875 29.09375 39.84375 
C 26.09375 36 22.703125 36 19.40625 35.6875 
C 18.90625 35.6875 16.59375 35.453125 16.203125 35.453125 
C 15.5 35.359375 15.09375 35.265625 15.09375 34.5 
C 15.09375 33.796875 15.203125 33.703125 17.203125 33.703125 
z
" id="CMR17-51"/>
      </defs>
      <g transform="translate(47.288586 256.487234)scale(0.1 -0.1)">
       <use transform="scale(0.996264)" xlink:href="#CMSY10-0"/>
       <use transform="translate(77.487468 0)scale(0.996264)" xlink:href="#CMR17-51"/>
       <use transform="translate(123.177945 0)scale(0.996264)" xlink:href="#CMR17-48"/>
      </g>
     </g>
    </g>
    <g id="ytick_4">
     <g id="line2d_19">
      <path clip-path="url(#pd7f393a690)" d="M 72 197.162786 
L 518.4 197.162786 
" style="fill:none;stroke:#b0b0b0;stroke-dasharray:5.12,1.28,0.8,1.28;stroke-dashoffset:0;stroke-width:0.8;"/>
     </g>
     <g id="line2d_20">
      <g>
       <use style="stroke:#000000;stroke-width:0.8;" x="72" xlink:href="#m453be068da" y="197.162786"/>
      </g>
     </g>
     <g id="text_11">
      <!-- $-20$ -->
      <g transform="translate(47.288586 200.622035)scale(0.1 -0.1)">
       <use transform="scale(0.996264)" xlink:href="#CMSY10-0"/>
       <use transform="translate(77.487468 0)scale(0.996264)" xlink:href="#CMR17-50"/>
       <use transform="translate(123.177945 0)scale(0.996264)" xlink:href="#CMR17-48"/>
      </g>
     </g>
    </g>
    <g id="ytick_5">
     <g id="line2d_21">
      <path clip-path="url(#pd7f393a690)" d="M 72 141.297586 
L 518.4 141.297586 
" style="fill:none;stroke:#b0b0b0;stroke-dasharray:5.12,1.28,0.8,1.28;stroke-dashoffset:0;stroke-width:0.8;"/>
     </g>
     <g id="line2d_22">
      <g>
       <use style="stroke:#000000;stroke-width:0.8;" x="72" xlink:href="#m453be068da" y="141.297586"/>
      </g>
     </g>
     <g id="text_12">
      <!-- $-10$ -->
      <g transform="translate(47.288586 144.756835)scale(0.1 -0.1)">
       <use transform="scale(0.996264)" xlink:href="#CMSY10-0"/>
       <use transform="translate(77.487468 0)scale(0.996264)" xlink:href="#CMR17-49"/>
       <use transform="translate(123.177945 0)scale(0.996264)" xlink:href="#CMR17-48"/>
      </g>
     </g>
    </g>
    <g id="ytick_6">
     <g id="line2d_23">
      <path clip-path="url(#pd7f393a690)" d="M 72 85.432387 
L 518.4 85.432387 
" style="fill:none;stroke:#b0b0b0;stroke-dasharray:5.12,1.28,0.8,1.28;stroke-dashoffset:0;stroke-width:0.8;"/>
     </g>
     <g id="line2d_24">
      <g>
       <use style="stroke:#000000;stroke-width:0.8;" x="72" xlink:href="#m453be068da" y="85.432387"/>
      </g>
     </g>
     <g id="text_13">
      <!-- $0$ -->
      <g transform="translate(60.018665 88.891636)scale(0.1 -0.1)">
       <use transform="scale(0.996264)" xlink:href="#CMR17-48"/>
      </g>
     </g>
    </g>
    <g id="text_14">
     <!-- $\partial \mathcal{L}/ \partial \mu^{\underline{U}}_{m}[V]$ -->
     <defs>
      <path d="M 45.40625 33.515625 
C 44.796875 39.125 41.296875 45.859375 32.296875 45.859375 
C 18.203125 45.859375 3.796875 31.515625 3.796875 15.5625 
C 3.796875 9.4375 8 -2.09375 21.59375 -2.09375 
C 45.203125 -2.09375 55.296875 32.296875 55.296875 46 
C 55.296875 60.40625 47.203125 71.5 34.40625 71.5 
C 19.90625 71.5 15.59375 58.796875 15.59375 56.09375 
C 15.59375 55.203125 16.203125 53 19 53 
C 22.5 53 24 56.203125 24 57.90625 
C 24 61 20.90625 61 19.59375 61 
C 23.703125 68.40625 31.296875 69.09375 34 69.09375 
C 42.796875 69.09375 48.40625 62.109375 48.40625 50.96875 
C 48.40625 44.578125 46.5 37.1875 45.5 33.515625 
z
M 21.90625 0.59375 
C 12.5 0.59375 10.90625 8.03125 10.90625 12.25 
C 10.90625 16.65625 13.703125 27 15.203125 30.703125 
C 16.5 33.71875 22.203125 43.859375 32.59375 43.859375 
C 41.703125 43.859375 43.796875 35.921875 43.796875 30.515625 
C 43.796875 23.078125 37.296875 0.59375 21.90625 0.59375 
z
" id="CMMI12-64"/>
      <path d="M 18 9.53125 
C 23.40625 17.984375 25.09375 24.40625 26.40625 29.734375 
C 29.90625 43.59375 33.703125 55.65625 39.90625 62.578125 
C 41.09375 63.90625 41.90625 64.796875 45.09375 64.796875 
C 52 64.796875 52.203125 57.875 52.203125 56.453125 
C 52.203125 54.65625 51.703125 53.234375 51.703125 52.734375 
C 51.703125 52.03125 52.296875 52.03125 52.40625 52.03125 
C 54 52.03125 56.703125 53.140625 59.203125 54.953125 
C 61 56.359375 61.90625 57.359375 61.90625 61.46875 
C 61.90625 66.890625 59.09375 71 53.5 71 
C 50.296875 71 41.5 70.203125 31.703125 60.25 
C 23.703125 52.015625 19 33.9375 17.09375 26.40625 
C 15.296875 19.5 14.5 16.375 11.5 10.34375 
C 10.796875 9.15625 8.203125 4.734375 6.796875 3.421875 
C 4.09375 0.921875 3.09375 -0.890625 3.09375 -1.390625 
C 3.09375 -1.59375 3.296875 -2 4 -2 
C 4.40625 -2 6.5 -1.59375 9.09375 0.078125 
C 10.796875 1.0625 11 1.25 13.296875 3.609375 
C 18.296875 3.609375 21.796875 2.703125 28.09375 0.90625 
C 33.203125 -0.5 38.296875 -2 43.40625 -2 
C 51.5 -2 59.703125 4.125 62.90625 8.53125 
C 64.90625 11.234375 65.5 13.75 65.5 14.046875 
C 65.5 14.75 64.90625 14.75 64.796875 14.75 
C 63.203125 14.75 60.796875 13.65625 59.09375 12.4375 
C 56.40625 10.734375 56.203125 10.140625 55.59375 8.421875 
C 55.09375 6.8125 54.5 6.015625 54.09375 5.40625 
C 53.296875 4.203125 53.203125 4.203125 51.703125 4.203125 
C 46.90625 4.203125 41.90625 5.71875 35.296875 7.515625 
C 32.5 8.3125 27 9.9375 22 9.9375 
C 20.703125 9.9375 19.296875 9.828125 18 9.53125 
z
" id="CMSY10-76"/>
      <path d="M 42.90625 71.28125 
C 42.90625 71.390625 43.5 72.90625 43.5 73.09375 
C 43.5 74.296875 42.5 75 41.703125 75 
C 41.203125 75 40.296875 75 39.5 72.796875 
L 6 -21.296875 
C 6 -21.40625 5.40625 -22.890625 5.40625 -23.09375 
C 5.40625 -24.296875 6.40625 -25 7.203125 -25 
C 7.796875 -25 8.703125 -24.890625 9.40625 -22.796875 
z
" id="CMMI12-61"/>
      <path d="M 14.40625 2.1875 
C 16.90625 -0.09375 20.59375 -1 24 -1 
C 30.40625 -1 34.796875 3.25 37.09375 6.328125 
C 38.09375 1.078125 42.296875 -1 45.796875 -1 
C 48.796875 -1 51.203125 0.78125 53 4.328125 
C 54.59375 7.703125 56 13.734375 56 14.109375 
C 56 14.609375 55.59375 15 55 15 
C 54.09375 15 54 14.5 53.59375 13.03125 
C 52.09375 7.203125 50.203125 1 46.09375 1 
C 43.203125 1 43 3.578125 43 5.59375 
C 43 7.875 43.90625 11.484375 44.59375 14.46875 
L 47.40625 25.234375 
C 47.796875 27.140625 48.90625 31.609375 49.40625 33.421875 
C 50 35.8125 51.09375 40.109375 51.09375 40.5 
C 51.09375 42 49.90625 43 48.40625 43 
C 47.5 43 45.40625 42.59375 44.59375 39.609375 
L 37.59375 11.875 
C 37.09375 9.875 37.09375 9.671875 35.796875 8.078125 
C 34.59375 6.390625 30.703125 1 24.40625 1 
C 18.796875 1 17 5.09375 17 9.765625 
C 17 12.671875 17.90625 16.15625 18.296875 17.859375 
L 22.796875 35.828125 
C 23.296875 37.71875 24.09375 40.90625 24.09375 41.515625 
C 24.09375 43.109375 22.796875 44 21.5 44 
C 20.59375 44 18.40625 43.703125 17.59375 40.5 
L 3.09375 -17.296875 
C 3 -17.796875 2.796875 -18.390625 2.796875 -19 
C 2.796875 -20.5 4 -21.5 5.5 -21.5 
C 8.40625 -21.5 9 -19.1875 9.703125 -16.40625 
z
" id="CMMI12-22"/>
      <path d="M 50.59375 23.03125 
C 47.09375 9.078125 35.5 0.890625 26.09375 0.890625 
C 18.90625 0.890625 14 5.671875 14 13.921875 
C 14 14.3125 14 17.296875 15.09375 21.671875 
L 24.90625 60.734375 
C 25.796875 64.109375 26 65.109375 33.09375 65.109375 
C 34.90625 65.109375 35.90625 65.109375 35.90625 66.90625 
C 35.90625 68 35 68 34.40625 68 
C 32.59375 68 30.5 68 28.59375 68 
L 16.796875 68 
C 14.90625 68 12.796875 68 10.90625 68 
C 10.203125 68 9 68 9 66.109375 
C 9 65.109375 9.703125 65.109375 11.59375 65.109375 
C 17.59375 65.109375 17.59375 64.3125 17.59375 63.21875 
C 17.59375 62.625 16.90625 59.75 16.40625 58.046875 
L 7.703125 23.25 
C 7.40625 22.15625 6.796875 19.46875 6.796875 16.796875 
C 6.796875 5.84375 14.703125 -2 25.59375 -2 
C 35.703125 -2 46.90625 6 52 18.703125 
C 52.703125 20.390625 53.59375 23.90625 54.203125 26.59375 
C 55.203125 30.203125 57.296875 39 58 41.59375 
L 61.796875 56.609375 
C 63.09375 61.8125 63.90625 65.109375 72.703125 65.109375 
C 73.5 65.203125 73.90625 66 73.90625 66.90625 
C 73.90625 68 73 68 72.59375 68 
C 71.203125 68 69.40625 68 68 68 
L 63.296875 68 
C 57.09375 68 53.90625 68 53.796875 68 
C 53.203125 68 52 68 52 66.109375 
C 52 65.109375 52.796875 65.109375 53.5 65.109375 
C 59.5 65.109375 59.90625 62.8125 59.90625 61.015625 
C 59.90625 60.125 59.90625 59.8125 59.5 58.421875 
z
" id="CMMI12-85"/>
      <path d="M 20.59375 29.234375 
C 20.796875 29.84375 23.296875 34.828125 27 38.015625 
C 29.59375 40.40625 33 42.015625 36.90625 42.015625 
C 40.90625 42.015625 42.296875 39.015625 42.296875 35.03125 
C 42.296875 34.421875 42.296875 32.4375 41.09375 27.734375 
L 38.59375 17.46875 
C 37.796875 14.46875 35.90625 7.078125 35.703125 5.984375 
C 35.296875 4.484375 34.703125 1.890625 34.703125 1.5 
C 34.703125 0.09375 35.796875 -1 37.296875 -1 
C 40.296875 -1 40.796875 1.296875 41.703125 4.890625 
L 47.703125 28.734375 
C 47.90625 29.53125 53.09375 42.015625 64.09375 42.015625 
C 68.09375 42.015625 69.5 39.015625 69.5 35.03125 
C 69.5 29.4375 65.59375 18.5625 63.40625 12.578125 
C 62.5 10.171875 62 8.875 62 7.078125 
C 62 2.59375 65.09375 -1 69.90625 -1 
C 79.203125 -1 82.703125 13.671875 82.703125 14.265625 
C 82.703125 14.765625 82.296875 15.171875 81.703125 15.171875 
C 80.796875 15.171875 80.703125 14.875 80.203125 13.171875 
C 77.90625 5.1875 74.203125 1 70.203125 1 
C 69.203125 1 67.59375 1 67.59375 4.203125 
C 67.59375 6.8125 68.796875 10 69.203125 11.09375 
C 71 15.90625 75.5 27.703125 75.5 33.515625 
C 75.5 39.5 72 44 64.40625 44 
C 57.703125 44 52.296875 40.21875 48.296875 34.328125 
C 48 39.71875 44.703125 44 37.203125 44 
C 28.296875 44 23.59375 37.734375 21.796875 35.234375 
C 21.5 40.90625 17.40625 44 13 44 
C 10.09375 44 7.796875 42.609375 5.90625 38.8125 
C 4.09375 35.21875 2.703125 29.140625 2.703125 28.734375 
C 2.703125 28.34375 3.09375 27.84375 3.796875 27.84375 
C 4.59375 27.84375 4.703125 27.9375 5.296875 30.234375 
C 6.796875 36.125 8.703125 42.015625 12.703125 42.015625 
C 15 42.015625 15.796875 40.40625 15.796875 37.421875 
C 15.796875 35.21875 14.796875 31.328125 14.09375 28.234375 
L 11.296875 17.46875 
C 10.90625 15.5625 9.796875 11.078125 9.296875 9.28125 
C 8.59375 6.6875 7.5 2 7.5 1.5 
C 7.5 0.09375 8.59375 -1 10.09375 -1 
C 11.296875 -1 12.703125 -0.40625 13.5 1.09375 
C 13.703125 1.59375 14.59375 5.09375 15.09375 7.078125 
L 17.296875 16.0625 
z
" id="CMMI12-109"/>
      <path d="M 23.5 -25 
L 23.5 -21.515625 
L 14.09375 -21.515625 
L 14.09375 71 
L 23.5 71 
L 23.5 74.484375 
L 10.59375 74.484375 
L 10.59375 -25 
z
" id="CMR17-91"/>
      <path d="M 61.90625 56.875 
C 65.296875 62.25 68.40625 64.625 73.5 65.03125 
C 74.5 65.125 75.296875 65.125 75.296875 66.90625 
C 75.296875 67.3125 75.09375 67.90625 74.203125 67.90625 
C 72.40625 67.90625 68.09375 67.90625 66.296875 67.90625 
C 63.40625 67.90625 60.40625 67.90625 57.59375 67.90625 
C 56.796875 67.90625 55.796875 67.90625 55.796875 66.03125 
C 55.796875 65.125 56.703125 65.03125 57.09375 65.03125 
C 60.796875 64.734375 61.203125 62.953125 61.203125 61.75 
C 61.203125 60.265625 59.796875 57.96875 59.703125 57.875 
L 28.296875 8.4375 
L 21.296875 62.015625 
C 21.296875 65 26.5 65 27.59375 65 
C 29.09375 65 30 65 30 66.90625 
C 30 67.90625 28.90625 67.90625 28.59375 67.90625 
C 26.90625 67.90625 24.90625 67.90625 23.203125 67.90625 
L 17.59375 67.90625 
C 10.296875 67.90625 7.296875 67.90625 7.203125 67.90625 
C 6.59375 67.90625 5.40625 67.90625 5.40625 66.09375 
C 5.40625 65 6.09375 65 7.703125 65 
C 12.796875 65 13.09375 64.09375 13.40625 61.625 
L 21.40625 0.375 
C 21.703125 -1.703125 21.703125 -2 23.09375 -2 
C 24.296875 -2 24.796875 -1.703125 25.796875 -0.125 
z
" id="CMMI12-86"/>
      <path d="M 14.296875 74.484375 
L 1.40625 74.484375 
L 1.40625 71 
L 10.796875 71 
L 10.796875 -21.515625 
L 1.40625 -21.515625 
L 1.40625 -25 
L 14.296875 -25 
z
" id="CMR17-93"/>
     </defs>
     <g transform="translate(40.576557 252.422043)rotate(-90)scale(0.14 -0.14)">
      <use transform="translate(0 24.62935)scale(0.996264)" xlink:href="#CMMI12-64"/>
      <use transform="translate(56.915564 24.62935)scale(0.996264)" xlink:href="#CMSY10-76"/>
      <use transform="translate(125.630372 24.62935)scale(0.996264)" xlink:href="#CMMI12-61"/>
      <use transform="translate(174.405291 24.62935)scale(0.996264)" xlink:href="#CMMI12-64"/>
      <use transform="translate(231.320856 24.62935)scale(0.996264)" xlink:href="#CMMI12-22"/>
      <use transform="translate(290.012277 60.782989)scale(0.697382)" xlink:href="#CMMI12-85"/>
      <use transform="translate(290.012277 0)scale(0.697382)" xlink:href="#CMMI12-109"/>
      <use transform="translate(350.2392 24.62935)scale(0.996264)" xlink:href="#CMR17-91"/>
      <use transform="translate(375.110259 24.62935)scale(0.996264)" xlink:href="#CMMI12-86"/>
      <use transform="translate(453.657579 24.62935)scale(0.996264)" xlink:href="#CMR17-93"/>
      <path d="M 290.012277 49.625185 
L 344.171317 49.625185 
L 344.171317 52.414636 
L 290.012277 52.414636 
L 290.012277 49.625185 
z
"/>
     </g>
    </g>
   </g>
   <g id="line2d_25">
    <path clip-path="url(#pd7f393a690)" d="M 92.290909 85.432387 
L 92.435586 225.095385 
L 94.02703 225.15963 
L 94.605737 225.473034 
L 95.039767 225.908782 
L 95.473797 226.642293 
L 95.907827 227.863506 
L 96.341857 229.797559 
L 96.775887 232.681321 
L 97.354594 238.4008 
L 97.933301 246.727508 
L 99.669421 278.746088 
L 104.1544 360.443914 
L 104.58843 362.999747 
L 105.02246 364.043868 
L 105.45649 364.468443 
L 106.035197 364.671234 
L 107.192611 364.750562 
L 114.860476 364.758384 
L 116.45192 364.758384 
L 120.647545 364.400846 
L 121.226252 363.444434 
L 123.107049 360.024925 
L 123.251726 360.347267 
L 124.119786 363.910908 
L 124.553816 364.338277 
L 124.84317 364.090794 
L 125.71123 362.744443 
L 125.855907 362.934943 
L 126.289937 364.011466 
L 126.723967 364.441069 
L 127.157997 364.58185 
L 127.447351 364.393584 
L 128.026057 363.65337 
L 128.170734 363.659515 
L 129.038794 364.552241 
L 129.762178 364.694697 
L 141.915022 364.758384 
L 144.663879 364.709222 
L 144.953233 364.490789 
L 145.53194 363.537729 
L 145.821293 363.173488 
L 146.110647 363.192482 
L 146.4 363.622085 
L 146.83403 364.289675 
L 147.26806 364.500286 
L 147.557414 364.250569 
L 148.280797 363.277956 
L 148.425474 363.401976 
L 148.859504 364.188 
L 149.293534 364.514811 
L 149.582888 364.596374 
L 149.872241 364.42822 
L 150.595625 363.450579 
L 150.740301 363.514824 
L 151.319008 364.356154 
L 151.753038 364.581291 
L 152.187069 364.590788 
L 152.621099 364.148894 
L 152.910452 363.86063 
L 153.055129 363.83549 
L 153.344482 364.147777 
L 153.778512 364.514811 
L 154.357219 364.671234 
L 154.791249 364.629894 
L 155.514633 364.317048 
L 156.672047 364.709222 
L 158.986874 364.758942 
L 171.139718 364.703077 
L 171.573748 364.42822 
L 172.152455 363.957835 
L 172.441808 363.941076 
L 172.731162 364.140514 
L 173.165192 364.504197 
L 173.599222 364.626542 
L 173.888576 364.518163 
L 174.611959 363.995265 
L 174.901313 364.181296 
L 175.335343 364.525984 
L 175.91405 364.677379 
L 176.203403 364.609782 
L 177.071463 364.094705 
L 177.939524 364.63157 
L 178.51823 364.681848 
L 178.952261 364.464533 
L 179.386291 364.269563 
L 179.675644 364.40364 
L 180.254351 364.652798 
L 181.122411 364.695815 
L 181.990472 364.541627 
L 182.713855 364.711457 
L 184.739329 364.758384 
L 197.760233 364.650005 
L 198.77297 364.32878 
L 200.219737 364.637156 
L 201.087798 364.380176 
L 201.955858 364.687435 
L 202.534565 364.682407 
L 203.402625 364.408667 
L 204.560039 364.717602 
L 205.138746 364.65615 
L 205.862129 364.514811 
L 206.73019 364.714809 
L 207.742927 364.68129 
L 208.321633 364.641067 
L 209.33437 364.7433 
L 214.687409 364.758384 
L 224.236072 364.667323 
L 225.104132 364.531012 
L 226.695576 364.661737 
L 227.41896 364.558386 
L 228.431697 364.729334 
L 229.15508 364.656709 
L 229.733787 364.572911 
L 231.180554 364.737155 
L 232.627321 364.703636 
L 233.929412 364.730451 
L 235.086825 364.733803 
L 238.269713 364.758384 
L 251.001264 364.651681 
L 251.724648 364.667882 
L 252.737385 364.73492 
L 254.184152 364.712015 
L 255.341565 364.722071 
L 256.354302 364.696373 
L 257.656393 364.739948 
L 259.10316 364.737155 
L 262.430724 364.756149 
L 277.187749 364.709222 
L 278.48984 364.738831 
L 281.672727 364.738272 
L 283.119494 364.745535 
L 289.48527 364.757825 
L 318.275936 364.758384 
L 496.807 364.758384 
L 496.807 364.758384 
" style="fill:none;stroke:#bf00bf;stroke-linecap:square;stroke-width:1.5;"/>
   </g>
   <g id="line2d_26">
    <path clip-path="url(#pd7f393a690)" d="M 92.290909 85.432387 
L 92.435586 225.095385 
L 93.882353 225.203764 
L 94.46106 225.618842 
L 94.89509 226.156824 
L 95.32912 227.058488 
L 95.76315 228.565173 
L 96.19718 230.929388 
L 96.631211 234.395265 
L 97.209917 241.121994 
L 97.788624 250.703993 
L 99.958775 292.035302 
L 104.009723 367.509186 
L 104.443753 368.682914 
L 104.877783 369.14436 
L 105.45649 369.334861 
L 106.469227 369.343799 
L 115.873213 368.927045 
L 116.307244 369.009725 
L 117.175304 369.070618 
L 120.792222 363.612588 
L 121.370929 362.354504 
L 123.107049 360.071293 
L 123.396403 362.972932 
L 123.685756 367.12204 
L 123.830433 367.22986 
L 124.119786 366.366184 
L 124.987846 363.154494 
L 125.421877 362.123781 
L 125.566553 362.166238 
L 125.71123 362.608132 
L 126.000583 364.634921 
L 126.14526 365.99077 
L 126.289937 366.267861 
L 126.434614 366.158924 
L 127.01332 364.941621 
L 127.447351 364.02208 
L 127.736704 363.323765 
L 127.881381 363.183544 
L 128.026057 363.281308 
L 128.315411 364.289116 
L 128.604764 365.728762 
L 128.749441 365.793007 
L 129.038794 365.561166 
L 129.762178 364.773467 
L 130.340885 364.532688 
L 130.630238 364.667882 
L 131.064268 365.069553 
L 131.642975 365.124859 
L 133.089742 365.159496 
L 136.417307 365.446643 
L 142.783082 365.743287 
L 143.651142 365.3567 
L 144.663879 364.625424 
L 144.953233 364.099733 
L 145.53194 362.77908 
L 145.676616 362.670701 
L 145.821293 362.732711 
L 146.110647 363.36734 
L 146.689353 365.226534 
L 146.978707 364.961174 
L 147.412737 364.206435 
L 147.991444 362.756175 
L 148.136121 362.79528 
L 148.280797 363.123209 
L 148.570151 364.57738 
L 148.859504 365.788538 
L 149.148858 365.48519 
L 149.872241 364.081297 
L 150.306271 363.001982 
L 150.450948 362.953379 
L 150.595625 363.173488 
L 150.884978 364.424868 
L 151.174332 365.760605 
L 151.319008 365.738259 
L 151.753038 365.130446 
L 152.910452 363.503651 
L 153.199806 364.194145 
L 153.489159 365.466196 
L 153.633836 365.543848 
L 153.923189 365.355024 
L 155.080603 364.20029 
L 155.369956 364.151129 
L 155.65931 364.546654 
L 155.948663 365.170669 
L 156.238017 365.187428 
L 157.540107 364.779612 
L 168.680214 365.314242 
L 169.837628 365.115362 
L 170.995041 364.708105 
L 171.429071 364.278501 
L 172.007778 363.691917 
L 172.297132 363.805323 
L 172.731162 364.4947 
L 173.020515 365.006425 
L 173.309869 364.887991 
L 173.743899 364.515929 
L 174.322606 363.739961 
L 174.467282 363.733816 
L 174.756636 364.162861 
L 175.190666 365.284634 
L 175.480019 365.15782 
L 176.34808 364.237161 
L 176.637433 363.866775 
L 176.78211 363.811468 
L 176.926787 363.890797 
L 177.21614 364.481292 
L 177.505493 365.268991 
L 177.794847 365.21145 
L 178.807584 364.34107 
L 179.096937 364.09247 
L 179.386291 364.177385 
L 179.675644 364.691345 
L 179.964998 365.168434 
L 180.399028 365.015363 
L 181.556441 364.425427 
L 181.845795 364.482409 
L 182.569178 364.989107 
L 184.305299 364.786316 
L 186.90948 364.886873 
L 195.734759 364.999163 
L 197.326203 364.733803 
L 197.90491 364.412019 
L 198.33894 364.201407 
L 198.628294 364.254479 
L 199.207 364.753356 
L 199.496354 364.8757 
L 200.075061 364.639391 
L 200.798444 364.22096 
L 201.087798 364.431572 
L 201.521828 365.031564 
L 201.955858 364.905309 
L 203.257948 364.299172 
L 203.547302 364.59805 
L 203.836655 365.022626 
L 204.126009 364.997487 
L 205.717453 364.446656 
L 206.440836 364.968437 
L 208.321633 364.670117 
L 208.755664 364.885198 
L 214.398055 364.840505 
L 222.789305 364.833802 
L 224.091395 364.626542 
L 224.814779 364.465091 
L 225.393486 364.682407 
L 225.827516 364.820394 
L 226.695576 364.570676 
L 227.129606 364.473471 
L 227.41896 364.587436 
L 227.997667 364.897488 
L 229.010404 364.616486 
L 229.444434 364.495258 
L 229.733787 364.576263 
L 230.312494 364.904192 
L 231.469908 364.643301 
L 231.903938 364.567883 
L 232.337968 364.73492 
L 232.627321 364.872907 
L 233.640058 364.74721 
L 234.508119 364.678496 
L 235.520856 364.805869 
L 237.256976 364.771791 
L 243.912105 364.817042 
L 250.133204 364.73492 
L 251.435294 364.646094 
L 252.303354 364.777936 
L 253.750122 364.669558 
L 254.328828 364.832126 
L 256.209626 364.715926 
L 256.643656 364.836036 
L 258.66913 364.747769 
L 259.10316 364.817042 
L 261.273311 364.789668 
L 263.877491 364.768998 
L 276.175012 364.758384 
L 280.081283 364.713133 
L 280.804667 364.789109 
L 282.540788 364.738831 
L 283.119494 364.793579 
L 285.000292 364.75559 
L 285.578999 364.784082 
L 288.61721 364.762853 
L 294.982985 364.773467 
L 498.109091 364.758384 
L 498.109091 364.758384 
" style="fill:none;stroke:#00bfbf;stroke-linecap:square;stroke-width:1.5;"/>
   </g>
   <g id="line2d_27">
    <path clip-path="url(#pd7f393a690)" d="M 92.290909 85.432387 
L 92.435586 225.095385 
L 92.869616 178.090406 
L 94.171706 73.602931 
L 94.605737 68.99908 
L 94.89509 67.703007 
L 95.184443 67.127596 
L 95.473797 66.96 
L 95.76315 67.022569 
L 96.341857 67.472843 
L 98.077978 69.365555 
L 100.103452 71.394021 
L 102.128926 73.113552 
L 104.1544 74.561578 
L 106.469227 75.864354 
L 108.928731 76.9973 
L 111.677589 78.017399 
L 112.835002 78.38164 
L 113.269033 79.273807 
L 114.28177 82.111201 
L 115.58386 86.068691 
L 115.873213 88.273691 
L 116.307244 94.253502 
L 116.45192 96.89816 
L 120.647545 160.383932 
L 121.370929 141.925511 
L 123.396403 80.001731 
L 123.975109 79.352019 
L 124.553816 79.061519 
L 125.421877 78.925208 
L 126.57929 79.011799 
L 128.170734 79.345873 
L 130.196208 80.057596 
L 132.366359 81.081605 
L 135.259893 82.725159 
L 139.889548 85.58043 
L 140.178901 86.064222 
L 140.612931 87.37482 
L 141.191638 90.058025 
L 142.204375 96.271353 
L 143.072436 101.229389 
L 143.506466 102.8411 
L 143.795819 103.407573 
L 144.085173 103.48355 
L 144.374526 103.011489 
L 144.663879 101.947816 
L 145.09791 99.185282 
L 145.676616 93.357424 
L 146.544677 83.169846 
L 147.26806 82.763706 
L 148.280797 82.478794 
L 150.306271 82.243043 
L 152.476422 82.236339 
L 154.501896 82.415666 
L 157.106077 82.867057 
L 160.144288 83.631851 
L 164.339912 84.901109 
L 166.365386 85.567581 
L 166.799417 86.08154 
L 167.378123 87.284318 
L 168.246184 89.864732 
L 169.403597 93.382563 
L 169.982304 94.430036 
L 170.271658 94.628357 
L 170.561011 94.562995 
L 170.850365 94.206575 
L 171.284395 93.084802 
L 171.718425 91.240692 
L 172.297132 87.740178 
L 172.875839 84.28324 
L 174.033252 84.000003 
L 175.91405 83.834642 
L 178.807584 83.791067 
L 181.990472 83.962573 
L 186.330773 84.474857 
L 192.551872 85.453057 
L 192.985902 85.650261 
L 193.564609 86.198857 
L 194.287992 87.239626 
L 196.024113 89.895458 
L 196.458143 90.193778 
L 196.892173 90.202158 
L 197.326203 89.868642 
L 197.760233 89.161948 
L 198.33894 87.639621 
L 199.207 84.832953 
L 200.798444 84.654743 
L 204.126009 84.569269 
L 208.610987 84.673737 
L 213.964025 85.030157 
L 219.317064 85.548028 
L 220.040447 85.934615 
L 221.053184 86.777062 
L 222.210598 87.713363 
L 222.789305 87.950231 
L 223.223335 87.953025 
L 223.657365 87.774256 
L 224.236072 87.227336 
L 224.814779 86.335168 
L 225.538162 85.115072 
L 227.85299 85.003342 
L 233.640058 85.002225 
L 241.163247 85.25697 
L 245.937579 85.563111 
L 246.950316 85.946905 
L 248.831113 86.727342 
L 249.554497 86.772593 
L 250.133204 86.618405 
L 250.856587 86.160869 
L 252.014001 85.255853 
L 255.486242 85.192725 
L 263.009431 85.24468 
L 272.413418 85.527358 
L 274.294215 85.966458 
L 275.451629 86.149137 
L 276.319689 86.092155 
L 277.187749 85.813387 
L 278.345163 85.337416 
L 284.566262 85.303338 
L 298.455226 85.461995 
L 300.770053 85.737969 
L 302.361497 85.806684 
L 303.518911 85.631267 
L 304.965678 85.377639 
L 317.697229 85.389929 
L 326.667185 85.567581 
L 328.837336 85.626239 
L 330.42878 85.448588 
L 331.29684 85.403337 
L 344.462421 85.411158 
L 382.80175 85.448588 
L 385.695284 85.422331 
L 496.807 85.431828 
L 496.807 85.431828 
" style="fill:none;stroke:#ff0000;stroke-linecap:square;stroke-width:1.5;"/>
   </g>
   <g id="line2d_28">
    <path clip-path="url(#pd7f393a690)" d="M 92.290909 85.432387 
L 92.435586 225.095385 
L 92.580263 225.095385 
L 92.869616 213.20336 
L 93.593 162.638651 
L 94.46106 103.747234 
L 94.89509 93.382005 
L 95.184443 90.408859 
L 95.473797 89.040161 
L 95.76315 88.579273 
L 96.052504 88.628435 
L 96.486534 89.190997 
L 97.354594 90.927288 
L 99.524745 95.362426 
L 101.260865 98.388085 
L 102.996986 100.98861 
L 104.877783 103.393048 
L 106.75858 105.420955 
L 108.784054 107.271211 
L 110.954205 108.934318 
L 112.835002 110.15162 
L 113.124356 111.334286 
L 113.558386 114.601283 
L 114.426446 123.415695 
L 115.728537 138.380305 
L 116.162567 145.999201 
L 116.596597 156.294599 
L 117.175304 173.62957 
L 120.647545 236.306972 
L 121.370929 217.073701 
L 123.396403 152.672299 
L 123.830433 148.362299 
L 124.264463 145.844455 
L 124.84317 143.945597 
L 125.421877 142.880247 
L 126.000583 142.241149 
L 126.723967 141.791435 
L 127.447351 141.593113 
L 128.170734 141.594789 
L 129.038794 141.842272 
L 129.906855 142.329416 
L 130.919592 143.178567 
L 132.077005 144.487489 
L 133.379096 146.33942 
L 134.825863 148.792461 
L 136.70666 152.454425 
L 139.455518 158.377254 
L 140.178901 160.23533 
L 140.757608 162.77999 
L 141.480992 167.305071 
L 143.361789 180.116637 
L 143.795819 181.584775 
L 144.085173 181.937843 
L 144.229849 181.900972 
L 144.519203 181.367459 
L 144.808556 180.187027 
L 145.242586 177.157458 
L 145.821293 170.837428 
L 146.544677 161.562129 
L 147.123384 159.256013 
L 147.70209 157.901282 
L 148.425474 156.795151 
L 149.438211 155.730919 
L 150.595625 154.838752 
L 151.753038 154.209151 
L 152.910452 153.810832 
L 154.067866 153.644913 
L 155.22528 153.700219 
L 156.382693 153.967255 
L 157.684784 154.503561 
L 159.131551 155.362767 
L 160.722995 156.582305 
L 162.603792 158.318036 
L 164.484589 160.27667 
L 166.510063 162.615188 
L 167.08877 163.866009 
L 167.812154 166.131343 
L 169.692951 172.718409 
L 170.126981 173.512812 
L 170.416334 173.726776 
L 170.705688 173.647447 
L 170.995041 173.248011 
L 171.429071 172.011714 
L 171.863102 170.001126 
L 172.441808 166.224079 
L 172.875839 163.431378 
L 173.454545 162.234187 
L 174.033252 161.530285 
L 174.901313 160.864931 
L 176.203403 160.215219 
L 177.794847 159.679471 
L 179.386291 159.37333 
L 180.977735 159.288974 
L 182.569178 159.413553 
L 184.305299 159.772208 
L 186.186096 160.390077 
L 188.356247 161.344254 
L 191.105105 162.806247 
L 192.985902 163.986678 
L 193.564609 164.70287 
L 194.432669 166.227431 
L 195.879436 168.927955 
L 196.458143 169.545266 
L 196.892173 169.664258 
L 197.181526 169.545824 
L 197.615557 169.040803 
L 198.049587 168.128524 
L 198.628294 166.312905 
L 199.207 164.296171 
L 199.785707 163.670481 
L 200.509091 163.231381 
L 201.666505 162.823565 
L 203.691979 162.392844 
L 206.006806 162.147596 
L 208.176957 162.136423 
L 210.491784 162.342565 
L 213.095965 162.804012 
L 216.278853 163.61294 
L 219.317064 164.572704 
L 220.040447 165.068787 
L 221.053184 166.063746 
L 222.355275 167.289429 
L 222.933982 167.550878 
L 223.368012 167.550878 
L 223.802042 167.351439 
L 224.236072 166.938037 
L 224.814779 166.059277 
L 225.682839 164.628569 
L 226.406223 164.293378 
L 227.708313 164.000086 
L 230.167817 163.715732 
L 233.350705 163.580538 
L 236.533593 163.678302 
L 240.005834 164.0107 
L 244.780165 164.711809 
L 246.082256 165.02633 
L 247.239669 165.596713 
L 248.831113 166.375474 
L 249.554497 166.474356 
L 250.133204 166.352569 
L 250.711911 166.02911 
L 251.435294 165.355376 
L 251.869324 164.956498 
L 252.737385 164.727451 
L 254.618182 164.528012 
L 258.524453 164.360975 
L 262.864754 164.402315 
L 267.783763 164.681083 
L 272.413418 165.122976 
L 274.149538 165.6023 
L 275.451629 165.877715 
L 276.319689 165.8509 
L 277.187749 165.587216 
L 278.634516 165.006218 
L 280.65999 164.864321 
L 286.157705 164.758177 
L 292.234127 164.866555 
L 298.744579 165.173255 
L 302.795527 165.543641 
L 303.952941 165.296158 
L 304.821001 165.118507 
L 307.425182 165.023536 
L 314.948371 164.986107 
L 324.497035 165.169903 
L 329.99475 165.304538 
L 331.73087 165.148674 
L 338.820029 165.092251 
L 350.972873 165.20007 
L 356.615265 165.242528 
L 358.496062 165.1794 
L 372.67438 165.1794 
L 388.444142 165.190573 
L 405.226641 165.236383 
L 410.869033 165.213478 
L 498.109091 165.222975 
L 498.109091 165.222975 
" style="fill:none;stroke:#008000;stroke-linecap:square;stroke-width:1.5;"/>
   </g>
   <g id="patch_3">
    <path d="M 72 384.48 
L 72 51.84 
" style="fill:none;stroke:#000000;stroke-linecap:square;stroke-linejoin:miter;stroke-width:0.8;"/>
   </g>
   <g id="patch_4">
    <path d="M 518.4 384.48 
L 518.4 51.84 
" style="fill:none;stroke:#000000;stroke-linecap:square;stroke-linejoin:miter;stroke-width:0.8;"/>
   </g>
   <g id="patch_5">
    <path d="M 72 384.48 
L 518.4 384.48 
" style="fill:none;stroke:#000000;stroke-linecap:square;stroke-linejoin:miter;stroke-width:0.8;"/>
   </g>
   <g id="patch_6">
    <path d="M 72 51.84 
L 518.4 51.84 
" style="fill:none;stroke:#000000;stroke-linecap:square;stroke-linejoin:miter;stroke-width:0.8;"/>
   </g>
   <g id="legend_1">
    <g id="patch_7">
     <path d="M 443.185706 254.156699 
L 511.4 254.156699 
Q 513.4 254.156699 513.4 252.156699 
L 513.4 184.163301 
Q 513.4 182.163301 511.4 182.163301 
L 443.185706 182.163301 
Q 441.185706 182.163301 441.185706 184.163301 
L 441.185706 252.156699 
Q 441.185706 254.156699 443.185706 254.156699 
z
" style="fill:#ffffff;opacity:0.8;stroke:#cccccc;stroke-linejoin:miter;"/>
    </g>
    <g id="line2d_29">
     <path d="M 445.185706 192.974472 
L 465.185706 192.974472 
" style="fill:none;stroke:#bf00bf;stroke-linecap:square;stroke-width:1.5;"/>
    </g>
    <g id="line2d_30"/>
    <g id="text_15">
     <!-- $\partial \mathcal{L}/ \partial \mu^{\underline{U}}_{1}$ -->
     <g transform="translate(473.185706 196.474472)scale(0.1 -0.1)">
      <use transform="translate(0 26.578082)scale(0.996264)" xlink:href="#CMMI12-64"/>
      <use transform="translate(56.915564 26.578082)scale(0.996264)" xlink:href="#CMSY10-76"/>
      <use transform="translate(125.630372 26.578082)scale(0.996264)" xlink:href="#CMMI12-61"/>
      <use transform="translate(174.405291 26.578082)scale(0.996264)" xlink:href="#CMMI12-64"/>
      <use transform="translate(231.320856 26.578082)scale(0.996264)" xlink:href="#CMMI12-22"/>
      <use transform="translate(290.012277 74.841065)scale(0.697382)" xlink:href="#CMMI12-85"/>
      <use transform="translate(290.012277 0)scale(0.697382)" xlink:href="#CMR17-49"/>
      <path d="M 290.012277 63.683261 
L 344.171317 63.683261 
L 344.171317 66.472712 
L 290.012277 66.472712 
L 290.012277 63.683261 
z
"/>
     </g>
    </g>
    <g id="line2d_31">
     <path d="M 445.185706 210.222822 
L 465.185706 210.222822 
" style="fill:none;stroke:#00bfbf;stroke-linecap:square;stroke-width:1.5;"/>
    </g>
    <g id="line2d_32"/>
    <g id="text_16">
     <!-- $\partial \mathcal{L}/ \partial \mu^{\underline{U}}_{2}$ -->
     <g transform="translate(473.185706 213.722822)scale(0.1 -0.1)">
      <use transform="translate(0 26.578082)scale(0.996264)" xlink:href="#CMMI12-64"/>
      <use transform="translate(56.915564 26.578082)scale(0.996264)" xlink:href="#CMSY10-76"/>
      <use transform="translate(125.630372 26.578082)scale(0.996264)" xlink:href="#CMMI12-61"/>
      <use transform="translate(174.405291 26.578082)scale(0.996264)" xlink:href="#CMMI12-64"/>
      <use transform="translate(231.320856 26.578082)scale(0.996264)" xlink:href="#CMMI12-22"/>
      <use transform="translate(290.012277 74.841065)scale(0.697382)" xlink:href="#CMMI12-85"/>
      <use transform="translate(290.012277 0)scale(0.697382)" xlink:href="#CMR17-50"/>
      <path d="M 290.012277 63.683261 
L 344.171317 63.683261 
L 344.171317 66.472712 
L 290.012277 66.472712 
L 290.012277 63.683261 
z
"/>
     </g>
    </g>
    <g id="line2d_33">
     <path d="M 445.185706 227.471171 
L 465.185706 227.471171 
" style="fill:none;stroke:#ff0000;stroke-linecap:square;stroke-width:1.5;"/>
    </g>
    <g id="line2d_34"/>
    <g id="text_17">
     <!-- $\partial \mathcal{L}/ \partial \mu^{\underline{U}}_{3}$ -->
     <g transform="translate(473.185706 230.971171)scale(0.1 -0.1)">
      <use transform="translate(0 26.578082)scale(0.996264)" xlink:href="#CMMI12-64"/>
      <use transform="translate(56.915564 26.578082)scale(0.996264)" xlink:href="#CMSY10-76"/>
      <use transform="translate(125.630372 26.578082)scale(0.996264)" xlink:href="#CMMI12-61"/>
      <use transform="translate(174.405291 26.578082)scale(0.996264)" xlink:href="#CMMI12-64"/>
      <use transform="translate(231.320856 26.578082)scale(0.996264)" xlink:href="#CMMI12-22"/>
      <use transform="translate(290.012277 74.841065)scale(0.697382)" xlink:href="#CMMI12-85"/>
      <use transform="translate(290.012277 0)scale(0.697382)" xlink:href="#CMR17-51"/>
      <path d="M 290.012277 63.683261 
L 344.171317 63.683261 
L 344.171317 66.472712 
L 290.012277 66.472712 
L 290.012277 63.683261 
z
"/>
     </g>
    </g>
    <g id="line2d_35">
     <path d="M 445.185706 244.719521 
L 465.185706 244.719521 
" style="fill:none;stroke:#008000;stroke-linecap:square;stroke-width:1.5;"/>
    </g>
    <g id="line2d_36"/>
    <g id="text_18">
     <!-- $\partial \mathcal{L}/ \partial \mu^{\underline{U}}_{4}$ -->
     <g transform="translate(473.185706 248.219521)scale(0.1 -0.1)">
      <use transform="translate(0 26.578082)scale(0.996264)" xlink:href="#CMMI12-64"/>
      <use transform="translate(56.915564 26.578082)scale(0.996264)" xlink:href="#CMSY10-76"/>
      <use transform="translate(125.630372 26.578082)scale(0.996264)" xlink:href="#CMMI12-61"/>
      <use transform="translate(174.405291 26.578082)scale(0.996264)" xlink:href="#CMMI12-64"/>
      <use transform="translate(231.320856 26.578082)scale(0.996264)" xlink:href="#CMMI12-22"/>
      <use transform="translate(290.012277 74.841065)scale(0.697382)" xlink:href="#CMMI12-85"/>
      <use transform="translate(290.012277 0)scale(0.697382)" xlink:href="#CMR17-52"/>
      <path d="M 290.012277 63.683261 
L 344.171317 63.683261 
L 344.171317 66.472712 
L 290.012277 66.472712 
L 290.012277 63.683261 
z
"/>
     </g>
    </g>
   </g>
  </g>
 </g>
 <defs>
  <clipPath id="pd7f393a690">
   <rect height="332.64" width="446.4" x="72" y="51.84"/>
  </clipPath>
 </defs>
</svg>
