<?xml version="1.0" encoding="utf-8" standalone="no"?>
<!DOCTYPE svg PUBLIC "-//W3C//DTD SVG 1.1//EN"
  "http://www.w3.org/Graphics/SVG/1.1/DTD/svg11.dtd">
<!-- Created with matplotlib (http://matplotlib.org/) -->
<svg height="432pt" version="1.1" viewBox="0 0 576 432" width="576pt" xmlns="http://www.w3.org/2000/svg" xmlns:xlink="http://www.w3.org/1999/xlink">
 <defs>
  <style type="text/css">
*{stroke-linecap:butt;stroke-linejoin:round;}
  </style>
 </defs>
 <g id="figure_1">
  <g id="patch_1">
   <path d="M 0 432 
L 576 432 
L 576 0 
L 0 0 
z
" style="fill:#ffffff;"/>
  </g>
  <g id="axes_1">
   <g id="patch_2">
    <path d="M 72 384.48 
L 518.4 384.48 
L 518.4 51.84 
L 72 51.84 
z
" style="fill:#ffffff;"/>
   </g>
   <g id="matplotlib.axis_1">
    <g id="xtick_1">
     <g id="line2d_1">
      <path clip-path="url(#p03e5a4ec65)" d="M 92.290909 384.48 
L 92.290909 51.84 
" style="fill:none;stroke:#b0b0b0;stroke-dasharray:5.12,1.28,0.8,1.28;stroke-dashoffset:0;stroke-width:0.8;"/>
     </g>
     <g id="line2d_2">
      <defs>
       <path d="M 0 0 
L 0 3.5 
" id="m9e4524f280" style="stroke:#000000;stroke-width:0.8;"/>
      </defs>
      <g>
       <use style="stroke:#000000;stroke-width:0.8;" x="92.290909" xlink:href="#m9e4524f280" y="384.48"/>
      </g>
     </g>
     <g id="text_1">
      <!-- $0$ -->
      <defs>
       <path d="M 42 31.640625 
C 42 37.75 41.90625 48.125 37.703125 56.109375 
C 34 63.109375 28.09375 65.59375 22.90625 65.59375 
C 18.09375 65.59375 12 63.40625 8.203125 56.203125 
C 4.203125 48.71875 3.796875 39.4375 3.796875 31.640625 
C 3.796875 25.953125 3.90625 17.28125 7 9.671875 
C 11.296875 -0.609375 19 -2 22.90625 -2 
C 27.5 -2 34.5 -0.109375 38.59375 9.375 
C 41.59375 16.28125 42 24.359375 42 31.640625 
z
M 22.90625 -0.40625 
C 16.5 -0.40625 12.703125 5.078125 11.296875 12.6875 
C 10.203125 18.5625 10.203125 27.15625 10.203125 32.75 
C 10.203125 40.4375 10.203125 46.828125 11.5 52.921875 
C 13.40625 61.390625 19 64 22.90625 64 
C 27 64 32.296875 61.296875 34.203125 53.125 
C 35.5 47.4375 35.59375 40.734375 35.59375 32.75 
C 35.59375 26.25 35.59375 18.265625 34.40625 12.375 
C 32.296875 1.484375 26.40625 -0.40625 22.90625 -0.40625 
z
" id="CMR17-48"/>
      </defs>
      <g transform="translate(89.800241 398.398498)scale(0.1 -0.1)">
       <use transform="scale(0.996264)" xlink:href="#CMR17-48"/>
      </g>
     </g>
    </g>
    <g id="xtick_2">
     <g id="line2d_3">
      <path clip-path="url(#p03e5a4ec65)" d="M 160.404065 384.48 
L 160.404065 51.84 
" style="fill:none;stroke:#b0b0b0;stroke-dasharray:5.12,1.28,0.8,1.28;stroke-dashoffset:0;stroke-width:0.8;"/>
     </g>
     <g id="line2d_4">
      <g>
       <use style="stroke:#000000;stroke-width:0.8;" x="160.404065" xlink:href="#m9e4524f280" y="384.48"/>
      </g>
     </g>
     <g id="text_2">
      <!-- $500$ -->
      <defs>
       <path d="M 11.40625 57.6875 
C 12.40625 57.28125 16.5 56 20.703125 56 
C 30 56 35.09375 61.109375 38 64.0625 
C 38 64.953125 38 65.5 37.40625 65.5 
C 37.296875 65.5 37.09375 65.5 36.296875 65.046875 
C 32.796875 63.40625 28.703125 62.078125 23.703125 62.078125 
C 20.703125 62.078125 16.203125 62.484375 11.296875 64.671875 
C 10.203125 65.171875 10 65.171875 9.90625 65.171875 
C 9.40625 65.171875 9.296875 65.0625 9.296875 63.078125 
L 9.296875 34.421875 
C 9.296875 32.640625 9.296875 32.140625 10.296875 32.140625 
C 10.796875 32.140625 11 32.34375 11.5 33.03125 
C 14.703125 37.515625 19.09375 39.40625 24.09375 39.40625 
C 27.59375 39.40625 35.09375 37.21875 35.09375 20.140625 
C 35.09375 16.953125 35.09375 11.171875 32.09375 6.578125 
C 29.59375 2.484375 25.703125 0.390625 21.40625 0.390625 
C 14.796875 0.390625 8.09375 5 6.296875 12.71875 
C 6.703125 12.609375 7.5 12.421875 7.90625 12.421875 
C 9.203125 12.421875 11.703125 13.125 11.703125 16.21875 
C 11.703125 18.90625 9.796875 20 7.90625 20 
C 5.59375 20 4.09375 18.59375 4.09375 15.796875 
C 4.09375 7.09375 11 -2 21.59375 -2 
C 31.90625 -2 41.703125 6.875 41.703125 19.75 
C 41.703125 31.71875 33.90625 41 24.203125 41 
C 19.09375 41 14.796875 39.109375 11.40625 35.53125 
z
" id="CMR17-53"/>
      </defs>
      <g transform="translate(152.932062 398.398498)scale(0.1 -0.1)">
       <use transform="scale(0.996264)" xlink:href="#CMR17-53"/>
       <use transform="translate(45.690477 0)scale(0.996264)" xlink:href="#CMR17-48"/>
       <use transform="translate(91.380954 0)scale(0.996264)" xlink:href="#CMR17-48"/>
      </g>
     </g>
    </g>
    <g id="xtick_3">
     <g id="line2d_5">
      <path clip-path="url(#p03e5a4ec65)" d="M 228.517221 384.48 
L 228.517221 51.84 
" style="fill:none;stroke:#b0b0b0;stroke-dasharray:5.12,1.28,0.8,1.28;stroke-dashoffset:0;stroke-width:0.8;"/>
     </g>
     <g id="line2d_6">
      <g>
       <use style="stroke:#000000;stroke-width:0.8;" x="228.517221" xlink:href="#m9e4524f280" y="384.48"/>
      </g>
     </g>
     <g id="text_3">
      <!-- $1000$ -->
      <defs>
       <path d="M 26.59375 63.40625 
C 26.59375 65.5 26.5 65.5 25.09375 65.5 
C 21.203125 61.1875 15.296875 59.796875 9.703125 59.796875 
C 9.40625 59.796875 8.90625 59.796875 8.796875 59.5 
C 8.703125 59.296875 8.703125 59.09375 8.703125 57 
C 11.796875 57 17 57.59375 21 59.984375 
L 21 7.203125 
C 21 3.6875 20.796875 2.5 12.203125 2.5 
L 9.203125 2.5 
L 9.203125 0 
C 14 0 19 0 23.796875 0 
C 28.59375 0 33.59375 0 38.40625 0 
L 38.40625 2.5 
L 35.40625 2.5 
C 26.796875 2.5 26.59375 3.59375 26.59375 7.15625 
z
" id="CMR17-49"/>
      </defs>
      <g transform="translate(218.55455 398.398498)scale(0.1 -0.1)">
       <use transform="scale(0.996264)" xlink:href="#CMR17-49"/>
       <use transform="translate(45.690477 0)scale(0.996264)" xlink:href="#CMR17-48"/>
       <use transform="translate(91.380954 0)scale(0.996264)" xlink:href="#CMR17-48"/>
       <use transform="translate(137.071431 0)scale(0.996264)" xlink:href="#CMR17-48"/>
      </g>
     </g>
    </g>
    <g id="xtick_4">
     <g id="line2d_7">
      <path clip-path="url(#p03e5a4ec65)" d="M 296.630376 384.48 
L 296.630376 51.84 
" style="fill:none;stroke:#b0b0b0;stroke-dasharray:5.12,1.28,0.8,1.28;stroke-dashoffset:0;stroke-width:0.8;"/>
     </g>
     <g id="line2d_8">
      <g>
       <use style="stroke:#000000;stroke-width:0.8;" x="296.630376" xlink:href="#m9e4524f280" y="384.48"/>
      </g>
     </g>
     <g id="text_4">
      <!-- $1500$ -->
      <g transform="translate(286.667706 398.398498)scale(0.1 -0.1)">
       <use transform="scale(0.996264)" xlink:href="#CMR17-49"/>
       <use transform="translate(45.690477 0)scale(0.996264)" xlink:href="#CMR17-53"/>
       <use transform="translate(91.380954 0)scale(0.996264)" xlink:href="#CMR17-48"/>
       <use transform="translate(137.071431 0)scale(0.996264)" xlink:href="#CMR17-48"/>
      </g>
     </g>
    </g>
    <g id="xtick_5">
     <g id="line2d_9">
      <path clip-path="url(#p03e5a4ec65)" d="M 364.743532 384.48 
L 364.743532 51.84 
" style="fill:none;stroke:#b0b0b0;stroke-dasharray:5.12,1.28,0.8,1.28;stroke-dashoffset:0;stroke-width:0.8;"/>
     </g>
     <g id="line2d_10">
      <g>
       <use style="stroke:#000000;stroke-width:0.8;" x="364.743532" xlink:href="#m9e4524f280" y="384.48"/>
      </g>
     </g>
     <g id="text_5">
      <!-- $2000$ -->
      <defs>
       <path d="M 41.703125 15.453125 
L 39.90625 15.453125 
C 38.90625 8.375 38.09375 7.171875 37.703125 6.5625 
C 37.203125 5.765625 30 5.765625 28.59375 5.765625 
L 9.40625 5.765625 
C 13 9.671875 20 16.75 28.5 24.953125 
C 34.59375 30.734375 41.703125 37.53125 41.703125 47.421875 
C 41.703125 59.21875 32.296875 66 21.796875 66 
C 10.796875 66 4.09375 56.3125 4.09375 47.34375 
C 4.09375 43.4375 7 42.9375 8.203125 42.9375 
C 9.203125 42.9375 12.203125 43.546875 12.203125 47.03125 
C 12.203125 50.109375 9.59375 51 8.203125 51 
C 7.59375 51 7 50.90625 6.59375 50.703125 
C 8.5 59.21875 14.296875 63.40625 20.40625 63.40625 
C 29.09375 63.40625 34.796875 56.515625 34.796875 47.421875 
C 34.796875 38.734375 29.703125 31.25 24 24.75 
L 4.09375 2.28125 
L 4.09375 0 
L 39.296875 0 
z
" id="CMR17-50"/>
      </defs>
      <g transform="translate(354.780861 398.398498)scale(0.1 -0.1)">
       <use transform="scale(0.996264)" xlink:href="#CMR17-50"/>
       <use transform="translate(45.690477 0)scale(0.996264)" xlink:href="#CMR17-48"/>
       <use transform="translate(91.380954 0)scale(0.996264)" xlink:href="#CMR17-48"/>
       <use transform="translate(137.071431 0)scale(0.996264)" xlink:href="#CMR17-48"/>
      </g>
     </g>
    </g>
    <g id="xtick_6">
     <g id="line2d_11">
      <path clip-path="url(#p03e5a4ec65)" d="M 432.856688 384.48 
L 432.856688 51.84 
" style="fill:none;stroke:#b0b0b0;stroke-dasharray:5.12,1.28,0.8,1.28;stroke-dashoffset:0;stroke-width:0.8;"/>
     </g>
     <g id="line2d_12">
      <g>
       <use style="stroke:#000000;stroke-width:0.8;" x="432.856688" xlink:href="#m9e4524f280" y="384.48"/>
      </g>
     </g>
     <g id="text_6">
      <!-- $2500$ -->
      <g transform="translate(422.894017 398.398498)scale(0.1 -0.1)">
       <use transform="scale(0.996264)" xlink:href="#CMR17-50"/>
       <use transform="translate(45.690477 0)scale(0.996264)" xlink:href="#CMR17-53"/>
       <use transform="translate(91.380954 0)scale(0.996264)" xlink:href="#CMR17-48"/>
       <use transform="translate(137.071431 0)scale(0.996264)" xlink:href="#CMR17-48"/>
      </g>
     </g>
    </g>
    <g id="xtick_7">
     <g id="line2d_13">
      <path clip-path="url(#p03e5a4ec65)" d="M 500.969843 384.48 
L 500.969843 51.84 
" style="fill:none;stroke:#b0b0b0;stroke-dasharray:5.12,1.28,0.8,1.28;stroke-dashoffset:0;stroke-width:0.8;"/>
     </g>
     <g id="line2d_14">
      <g>
       <use style="stroke:#000000;stroke-width:0.8;" x="500.969843" xlink:href="#m9e4524f280" y="384.48"/>
      </g>
     </g>
     <g id="text_7">
      <!-- $3000$ -->
      <defs>
       <path d="M 22.09375 33.703125 
C 31 33.703125 34.90625 25.96875 34.90625 17.03125 
C 34.90625 5 28.5 0.390625 22.703125 0.390625 
C 17.40625 0.390625 8.796875 3.03125 6.09375 10.828125 
C 6.59375 10.625 7.09375 10.625 7.59375 10.625 
C 10 10.625 11.796875 12.21875 11.796875 14.8125 
C 11.796875 17.703125 9.59375 19 7.59375 19 
C 5.90625 19 3.296875 18.203125 3.296875 14.46875 
C 3.296875 5.234375 12.296875 -2 22.90625 -2 
C 34 -2 42.5 6.71875 42.5 16.953125 
C 42.5 26.671875 34.5 33.703125 25 34.796875 
C 32.59375 36.375 39.90625 43.0625 39.90625 52.015625 
C 39.90625 59.6875 32 65.296875 23 65.296875 
C 13.90625 65.296875 5.90625 59.828125 5.90625 52.015625 
C 5.90625 48.59375 8.5 48 9.796875 48 
C 11.90625 48 13.703125 49.296875 13.703125 51.890625 
C 13.703125 54.46875 11.90625 55.765625 9.796875 55.765625 
C 9.40625 55.765625 8.90625 55.765625 8.5 55.578125 
C 11.40625 61.859375 19.296875 63 22.796875 63 
C 26.296875 63 32.90625 61.328125 32.90625 51.875 
C 32.90625 49.109375 32.5 44.1875 29.09375 39.84375 
C 26.09375 36 22.703125 36 19.40625 35.6875 
C 18.90625 35.6875 16.59375 35.453125 16.203125 35.453125 
C 15.5 35.359375 15.09375 35.265625 15.09375 34.5 
C 15.09375 33.796875 15.203125 33.703125 17.203125 33.703125 
z
" id="CMR17-51"/>
      </defs>
      <g transform="translate(491.007173 398.398498)scale(0.1 -0.1)">
       <use transform="scale(0.996264)" xlink:href="#CMR17-51"/>
       <use transform="translate(45.690477 0)scale(0.996264)" xlink:href="#CMR17-48"/>
       <use transform="translate(91.380954 0)scale(0.996264)" xlink:href="#CMR17-48"/>
       <use transform="translate(137.071431 0)scale(0.996264)" xlink:href="#CMR17-48"/>
      </g>
     </g>
    </g>
    <g id="text_8">
     <!-- Iteration -->
     <defs>
      <path d="M 17.09375 69 
L 8.703125 69 
L 8.703125 0 
L 17.09375 0 
z
" id="CMSS17-73"/>
      <path d="M 16.703125 37 
L 29.703125 37 
L 29.703125 42.765625 
L 16.703125 42.765625 
L 16.703125 55 
L 9.59375 55 
L 9.59375 42.765625 
L 1.703125 42.765625 
L 1.703125 37 
L 9.40625 37 
L 9.40625 11.703125 
C 9.40625 6 10.703125 -1 17.296875 -1 
C 22.296875 -1 26.90625 0.390625 31.296875 2.6875 
L 29.703125 8.5625 
C 27.296875 6.46875 24.40625 5.265625 21.296875 5.265625 
C 16.90625 5.265625 16.703125 10.875 16.703125 13.375 
z
" id="CMSS17-116"/>
      <path d="M 39.09375 21.515625 
C 39.09375 24.84375 38.90625 31.296875 35.703125 36.640625 
C 32.203125 42.390625 26.5 44 22.203125 44 
C 11.796875 44 3 34.1875 3 21.484375 
C 3 9.09375 12.09375 -1 23.59375 -1 
C 28.09375 -1 33.59375 0.296875 38.59375 3.875 
C 38.59375 4.28125 38.40625 6.46875 38.296875 6.5625 
C 38.296875 6.765625 38 9.84375 38 10.25 
C 33.203125 6.359375 27.703125 5.078125 23.703125 5.078125 
C 17.296875 5.078125 10.40625 10.421875 10.09375 21.515625 
z
M 10.90625 27 
C 12.203125 32.5625 16.59375 37.828125 22.203125 37.828125 
C 23.703125 37.828125 30.703125 37.828125 32.5 27 
z
" id="CMSS17-101"/>
      <path d="M 14.90625 21.296875 
C 14.90625 30.703125 21.796875 37 30.59375 37 
L 30.59375 43.578125 
C 24.203125 43.578125 18.203125 40.390625 14.59375 35.203125 
L 14.59375 43.09375 
L 7.5 43.09375 
L 7.5 0 
L 14.90625 0 
z
" id="CMSS17-114"/>
      <path d="M 37.59375 27.984375 
C 37.59375 37.375 30.90625 43.875 21.90625 43.875 
C 17.5 43.875 12.703125 43.078125 7.203125 39.890625 
L 7.796875 33.359375 
C 10.296875 35.125 14.59375 38 21.796875 38 
C 26.90625 38 30 34.0625 30 27.84375 
L 30 24 
C 14 24 4 19.34375 4 11.34375 
C 4 7.203125 6.5 -1 14.796875 -1 
C 16.296875 -1 24.40625 -1 30.203125 3.390625 
L 30.203125 -0.296875 
L 37.59375 -0.296875 
z
M 30 12.75 
C 30 10.953125 30 8.5625 27 6.78125 
C 24.40625 5.078125 21.09375 5.078125 19.703125 5.078125 
C 14.703125 5.078125 11.296875 7.984375 11.296875 11.625 
C 11.296875 18.921875 26.90625 18.921875 30 18.921875 
z
" id="CMSS17-97"/>
      <path d="M 15.296875 65.359375 
L 6.90625 65.359375 
L 6.90625 57 
L 15.296875 57 
z
M 14.796875 42.796875 
L 7.40625 42.796875 
L 7.40625 0 
L 14.796875 0 
z
" id="CMSS17-105"/>
      <path d="M 44.203125 21.1875 
C 44.203125 34 34.703125 44 23.5 44 
C 12 44 2.703125 33.703125 2.703125 21.1875 
C 2.703125 8.5 12.296875 -1 23.40625 -1 
C 34.796875 -1 44.203125 8.796875 44.203125 21.1875 
z
M 23.5 5.265625 
C 16.40625 5.265625 10.296875 11.078125 10.296875 22 
C 10.296875 33.609375 17.40625 37.921875 23.40625 37.921875 
C 29.90625 37.921875 36.59375 33.21875 36.59375 22 
C 36.59375 10.671875 30.09375 5.265625 23.5 5.265625 
z
" id="CMSS17-111"/>
      <path d="M 40.90625 29.328125 
C 40.90625 35.671875 39.40625 44 28.09375 44 
C 21.703125 44 17.5 40.71875 14.703125 37.328125 
L 14.703125 43.09375 
L 7.40625 43.09375 
L 7.40625 0 
L 15 0 
L 15 24.359375 
C 15 30.6875 17.40625 37.9375 24.203125 37.9375 
C 33 37.9375 33.296875 32 33.296875 28.578125 
L 33.296875 0 
L 40.90625 0 
z
" id="CMSS17-110"/>
     </defs>
     <g transform="translate(271.264003 414.021553)scale(0.14 -0.14)">
      <use transform="scale(0.996264)" xlink:href="#CMSS17-73"/>
      <use transform="translate(25.783926 0)scale(0.996264)" xlink:href="#CMSS17-116"/>
      <use transform="translate(59.615492 0)scale(0.996264)" xlink:href="#CMSS17-101"/>
      <use transform="translate(101.254314 0)scale(0.996264)" xlink:href="#CMSS17-114"/>
      <use transform="translate(133.164087 0)scale(0.996264)" xlink:href="#CMSS17-97"/>
      <use transform="translate(178.086007 0)scale(0.996264)" xlink:href="#CMSS17-116"/>
      <use transform="translate(211.917574 0)scale(0.996264)" xlink:href="#CMSS17-105"/>
      <use transform="translate(234.098297 0)scale(0.996264)" xlink:href="#CMSS17-111"/>
      <use transform="translate(280.941921 0)scale(0.996264)" xlink:href="#CMSS17-110"/>
     </g>
    </g>
   </g>
   <g id="matplotlib.axis_2">
    <g id="ytick_1">
     <g id="line2d_15">
      <path clip-path="url(#p03e5a4ec65)" d="M 72 364.757842 
L 518.4 364.757842 
" style="fill:none;stroke:#b0b0b0;stroke-dasharray:5.12,1.28,0.8,1.28;stroke-dashoffset:0;stroke-width:0.8;"/>
     </g>
     <g id="line2d_16">
      <defs>
       <path d="M 0 0 
L -3.5 0 
" id="m9c6e09311a" style="stroke:#000000;stroke-width:0.8;"/>
      </defs>
      <g>
       <use style="stroke:#000000;stroke-width:0.8;" x="72" xlink:href="#m9c6e09311a" y="364.757842"/>
      </g>
     </g>
     <g id="text_9">
      <!-- $-50$ -->
      <defs>
       <path d="M 65.90625 23 
C 67.59375 23 69.40625 23 69.40625 25 
C 69.40625 27 67.59375 27 65.90625 27 
L 11.796875 27 
C 10.09375 27 8.296875 27 8.296875 25 
C 8.296875 23 10.09375 23 11.796875 23 
z
" id="CMSY10-0"/>
      </defs>
      <g transform="translate(47.288586 368.217091)scale(0.1 -0.1)">
       <use transform="scale(0.996264)" xlink:href="#CMSY10-0"/>
       <use transform="translate(77.487468 0)scale(0.996264)" xlink:href="#CMR17-53"/>
       <use transform="translate(123.177945 0)scale(0.996264)" xlink:href="#CMR17-48"/>
      </g>
     </g>
    </g>
    <g id="ytick_2">
     <g id="line2d_17">
      <path clip-path="url(#p03e5a4ec65)" d="M 72 308.892849 
L 518.4 308.892849 
" style="fill:none;stroke:#b0b0b0;stroke-dasharray:5.12,1.28,0.8,1.28;stroke-dashoffset:0;stroke-width:0.8;"/>
     </g>
     <g id="line2d_18">
      <g>
       <use style="stroke:#000000;stroke-width:0.8;" x="72" xlink:href="#m9c6e09311a" y="308.892849"/>
      </g>
     </g>
     <g id="text_10">
      <!-- $-40$ -->
      <defs>
       <path d="M 33.59375 64.40625 
C 33.59375 66.5 33.5 66.5 31.703125 66.5 
L 2 19.59375 
L 2 17 
L 27.796875 17 
L 27.796875 7.140625 
C 27.796875 3.5 27.59375 2.5 20.59375 2.5 
L 18.703125 2.5 
L 18.703125 0 
C 21.90625 0 27.296875 0 30.703125 0 
C 34.09375 0 39.5 0 42.703125 0 
L 42.703125 2.5 
L 40.796875 2.5 
C 33.796875 2.5 33.59375 3.5 33.59375 7.140625 
L 33.59375 17 
L 43.796875 17 
L 43.796875 19.59375 
L 33.59375 19.59375 
z
M 28.09375 57.859375 
L 28.09375 19.59375 
L 4 19.59375 
z
" id="CMR17-52"/>
      </defs>
      <g transform="translate(47.288586 312.352098)scale(0.1 -0.1)">
       <use transform="scale(0.996264)" xlink:href="#CMSY10-0"/>
       <use transform="translate(77.487468 0)scale(0.996264)" xlink:href="#CMR17-52"/>
       <use transform="translate(123.177945 0)scale(0.996264)" xlink:href="#CMR17-48"/>
      </g>
     </g>
    </g>
    <g id="ytick_3">
     <g id="line2d_19">
      <path clip-path="url(#p03e5a4ec65)" d="M 72 253.027856 
L 518.4 253.027856 
" style="fill:none;stroke:#b0b0b0;stroke-dasharray:5.12,1.28,0.8,1.28;stroke-dashoffset:0;stroke-width:0.8;"/>
     </g>
     <g id="line2d_20">
      <g>
       <use style="stroke:#000000;stroke-width:0.8;" x="72" xlink:href="#m9c6e09311a" y="253.027856"/>
      </g>
     </g>
     <g id="text_11">
      <!-- $-30$ -->
      <g transform="translate(47.288586 256.487105)scale(0.1 -0.1)">
       <use transform="scale(0.996264)" xlink:href="#CMSY10-0"/>
       <use transform="translate(77.487468 0)scale(0.996264)" xlink:href="#CMR17-51"/>
       <use transform="translate(123.177945 0)scale(0.996264)" xlink:href="#CMR17-48"/>
      </g>
     </g>
    </g>
    <g id="ytick_4">
     <g id="line2d_21">
      <path clip-path="url(#p03e5a4ec65)" d="M 72 197.162863 
L 518.4 197.162863 
" style="fill:none;stroke:#b0b0b0;stroke-dasharray:5.12,1.28,0.8,1.28;stroke-dashoffset:0;stroke-width:0.8;"/>
     </g>
     <g id="line2d_22">
      <g>
       <use style="stroke:#000000;stroke-width:0.8;" x="72" xlink:href="#m9c6e09311a" y="197.162863"/>
      </g>
     </g>
     <g id="text_12">
      <!-- $-20$ -->
      <g transform="translate(47.288586 200.622112)scale(0.1 -0.1)">
       <use transform="scale(0.996264)" xlink:href="#CMSY10-0"/>
       <use transform="translate(77.487468 0)scale(0.996264)" xlink:href="#CMR17-50"/>
       <use transform="translate(123.177945 0)scale(0.996264)" xlink:href="#CMR17-48"/>
      </g>
     </g>
    </g>
    <g id="ytick_5">
     <g id="line2d_23">
      <path clip-path="url(#p03e5a4ec65)" d="M 72 141.29787 
L 518.4 141.29787 
" style="fill:none;stroke:#b0b0b0;stroke-dasharray:5.12,1.28,0.8,1.28;stroke-dashoffset:0;stroke-width:0.8;"/>
     </g>
     <g id="line2d_24">
      <g>
       <use style="stroke:#000000;stroke-width:0.8;" x="72" xlink:href="#m9c6e09311a" y="141.29787"/>
      </g>
     </g>
     <g id="text_13">
      <!-- $-10$ -->
      <g transform="translate(47.288586 144.757119)scale(0.1 -0.1)">
       <use transform="scale(0.996264)" xlink:href="#CMSY10-0"/>
       <use transform="translate(77.487468 0)scale(0.996264)" xlink:href="#CMR17-49"/>
       <use transform="translate(123.177945 0)scale(0.996264)" xlink:href="#CMR17-48"/>
      </g>
     </g>
    </g>
    <g id="ytick_6">
     <g id="line2d_25">
      <path clip-path="url(#p03e5a4ec65)" d="M 72 85.432877 
L 518.4 85.432877 
" style="fill:none;stroke:#b0b0b0;stroke-dasharray:5.12,1.28,0.8,1.28;stroke-dashoffset:0;stroke-width:0.8;"/>
     </g>
     <g id="line2d_26">
      <g>
       <use style="stroke:#000000;stroke-width:0.8;" x="72" xlink:href="#m9c6e09311a" y="85.432877"/>
      </g>
     </g>
     <g id="text_14">
      <!-- $0$ -->
      <g transform="translate(60.018665 88.892126)scale(0.1 -0.1)">
       <use transform="scale(0.996264)" xlink:href="#CMR17-48"/>
      </g>
     </g>
    </g>
    <g id="text_15">
     <!-- $\partial \mathcal{L}/ \partial \mu^{\underline{U}}_{m}[V]$ -->
     <defs>
      <path d="M 45.40625 33.515625 
C 44.796875 39.125 41.296875 45.859375 32.296875 45.859375 
C 18.203125 45.859375 3.796875 31.515625 3.796875 15.5625 
C 3.796875 9.4375 8 -2.09375 21.59375 -2.09375 
C 45.203125 -2.09375 55.296875 32.296875 55.296875 46 
C 55.296875 60.40625 47.203125 71.5 34.40625 71.5 
C 19.90625 71.5 15.59375 58.796875 15.59375 56.09375 
C 15.59375 55.203125 16.203125 53 19 53 
C 22.5 53 24 56.203125 24 57.90625 
C 24 61 20.90625 61 19.59375 61 
C 23.703125 68.40625 31.296875 69.09375 34 69.09375 
C 42.796875 69.09375 48.40625 62.109375 48.40625 50.96875 
C 48.40625 44.578125 46.5 37.1875 45.5 33.515625 
z
M 21.90625 0.59375 
C 12.5 0.59375 10.90625 8.03125 10.90625 12.25 
C 10.90625 16.65625 13.703125 27 15.203125 30.703125 
C 16.5 33.71875 22.203125 43.859375 32.59375 43.859375 
C 41.703125 43.859375 43.796875 35.921875 43.796875 30.515625 
C 43.796875 23.078125 37.296875 0.59375 21.90625 0.59375 
z
" id="CMMI12-64"/>
      <path d="M 18 9.53125 
C 23.40625 17.984375 25.09375 24.40625 26.40625 29.734375 
C 29.90625 43.59375 33.703125 55.65625 39.90625 62.578125 
C 41.09375 63.90625 41.90625 64.796875 45.09375 64.796875 
C 52 64.796875 52.203125 57.875 52.203125 56.453125 
C 52.203125 54.65625 51.703125 53.234375 51.703125 52.734375 
C 51.703125 52.03125 52.296875 52.03125 52.40625 52.03125 
C 54 52.03125 56.703125 53.140625 59.203125 54.953125 
C 61 56.359375 61.90625 57.359375 61.90625 61.46875 
C 61.90625 66.890625 59.09375 71 53.5 71 
C 50.296875 71 41.5 70.203125 31.703125 60.25 
C 23.703125 52.015625 19 33.9375 17.09375 26.40625 
C 15.296875 19.5 14.5 16.375 11.5 10.34375 
C 10.796875 9.15625 8.203125 4.734375 6.796875 3.421875 
C 4.09375 0.921875 3.09375 -0.890625 3.09375 -1.390625 
C 3.09375 -1.59375 3.296875 -2 4 -2 
C 4.40625 -2 6.5 -1.59375 9.09375 0.078125 
C 10.796875 1.0625 11 1.25 13.296875 3.609375 
C 18.296875 3.609375 21.796875 2.703125 28.09375 0.90625 
C 33.203125 -0.5 38.296875 -2 43.40625 -2 
C 51.5 -2 59.703125 4.125 62.90625 8.53125 
C 64.90625 11.234375 65.5 13.75 65.5 14.046875 
C 65.5 14.75 64.90625 14.75 64.796875 14.75 
C 63.203125 14.75 60.796875 13.65625 59.09375 12.4375 
C 56.40625 10.734375 56.203125 10.140625 55.59375 8.421875 
C 55.09375 6.8125 54.5 6.015625 54.09375 5.40625 
C 53.296875 4.203125 53.203125 4.203125 51.703125 4.203125 
C 46.90625 4.203125 41.90625 5.71875 35.296875 7.515625 
C 32.5 8.3125 27 9.9375 22 9.9375 
C 20.703125 9.9375 19.296875 9.828125 18 9.53125 
z
" id="CMSY10-76"/>
      <path d="M 42.90625 71.28125 
C 42.90625 71.390625 43.5 72.90625 43.5 73.09375 
C 43.5 74.296875 42.5 75 41.703125 75 
C 41.203125 75 40.296875 75 39.5 72.796875 
L 6 -21.296875 
C 6 -21.40625 5.40625 -22.890625 5.40625 -23.09375 
C 5.40625 -24.296875 6.40625 -25 7.203125 -25 
C 7.796875 -25 8.703125 -24.890625 9.40625 -22.796875 
z
" id="CMMI12-61"/>
      <path d="M 14.40625 2.1875 
C 16.90625 -0.09375 20.59375 -1 24 -1 
C 30.40625 -1 34.796875 3.25 37.09375 6.328125 
C 38.09375 1.078125 42.296875 -1 45.796875 -1 
C 48.796875 -1 51.203125 0.78125 53 4.328125 
C 54.59375 7.703125 56 13.734375 56 14.109375 
C 56 14.609375 55.59375 15 55 15 
C 54.09375 15 54 14.5 53.59375 13.03125 
C 52.09375 7.203125 50.203125 1 46.09375 1 
C 43.203125 1 43 3.578125 43 5.59375 
C 43 7.875 43.90625 11.484375 44.59375 14.46875 
L 47.40625 25.234375 
C 47.796875 27.140625 48.90625 31.609375 49.40625 33.421875 
C 50 35.8125 51.09375 40.109375 51.09375 40.5 
C 51.09375 42 49.90625 43 48.40625 43 
C 47.5 43 45.40625 42.59375 44.59375 39.609375 
L 37.59375 11.875 
C 37.09375 9.875 37.09375 9.671875 35.796875 8.078125 
C 34.59375 6.390625 30.703125 1 24.40625 1 
C 18.796875 1 17 5.09375 17 9.765625 
C 17 12.671875 17.90625 16.15625 18.296875 17.859375 
L 22.796875 35.828125 
C 23.296875 37.71875 24.09375 40.90625 24.09375 41.515625 
C 24.09375 43.109375 22.796875 44 21.5 44 
C 20.59375 44 18.40625 43.703125 17.59375 40.5 
L 3.09375 -17.296875 
C 3 -17.796875 2.796875 -18.390625 2.796875 -19 
C 2.796875 -20.5 4 -21.5 5.5 -21.5 
C 8.40625 -21.5 9 -19.1875 9.703125 -16.40625 
z
" id="CMMI12-22"/>
      <path d="M 50.59375 23.03125 
C 47.09375 9.078125 35.5 0.890625 26.09375 0.890625 
C 18.90625 0.890625 14 5.671875 14 13.921875 
C 14 14.3125 14 17.296875 15.09375 21.671875 
L 24.90625 60.734375 
C 25.796875 64.109375 26 65.109375 33.09375 65.109375 
C 34.90625 65.109375 35.90625 65.109375 35.90625 66.90625 
C 35.90625 68 35 68 34.40625 68 
C 32.59375 68 30.5 68 28.59375 68 
L 16.796875 68 
C 14.90625 68 12.796875 68 10.90625 68 
C 10.203125 68 9 68 9 66.109375 
C 9 65.109375 9.703125 65.109375 11.59375 65.109375 
C 17.59375 65.109375 17.59375 64.3125 17.59375 63.21875 
C 17.59375 62.625 16.90625 59.75 16.40625 58.046875 
L 7.703125 23.25 
C 7.40625 22.15625 6.796875 19.46875 6.796875 16.796875 
C 6.796875 5.84375 14.703125 -2 25.59375 -2 
C 35.703125 -2 46.90625 6 52 18.703125 
C 52.703125 20.390625 53.59375 23.90625 54.203125 26.59375 
C 55.203125 30.203125 57.296875 39 58 41.59375 
L 61.796875 56.609375 
C 63.09375 61.8125 63.90625 65.109375 72.703125 65.109375 
C 73.5 65.203125 73.90625 66 73.90625 66.90625 
C 73.90625 68 73 68 72.59375 68 
C 71.203125 68 69.40625 68 68 68 
L 63.296875 68 
C 57.09375 68 53.90625 68 53.796875 68 
C 53.203125 68 52 68 52 66.109375 
C 52 65.109375 52.796875 65.109375 53.5 65.109375 
C 59.5 65.109375 59.90625 62.8125 59.90625 61.015625 
C 59.90625 60.125 59.90625 59.8125 59.5 58.421875 
z
" id="CMMI12-85"/>
      <path d="M 20.59375 29.234375 
C 20.796875 29.84375 23.296875 34.828125 27 38.015625 
C 29.59375 40.40625 33 42.015625 36.90625 42.015625 
C 40.90625 42.015625 42.296875 39.015625 42.296875 35.03125 
C 42.296875 34.421875 42.296875 32.4375 41.09375 27.734375 
L 38.59375 17.46875 
C 37.796875 14.46875 35.90625 7.078125 35.703125 5.984375 
C 35.296875 4.484375 34.703125 1.890625 34.703125 1.5 
C 34.703125 0.09375 35.796875 -1 37.296875 -1 
C 40.296875 -1 40.796875 1.296875 41.703125 4.890625 
L 47.703125 28.734375 
C 47.90625 29.53125 53.09375 42.015625 64.09375 42.015625 
C 68.09375 42.015625 69.5 39.015625 69.5 35.03125 
C 69.5 29.4375 65.59375 18.5625 63.40625 12.578125 
C 62.5 10.171875 62 8.875 62 7.078125 
C 62 2.59375 65.09375 -1 69.90625 -1 
C 79.203125 -1 82.703125 13.671875 82.703125 14.265625 
C 82.703125 14.765625 82.296875 15.171875 81.703125 15.171875 
C 80.796875 15.171875 80.703125 14.875 80.203125 13.171875 
C 77.90625 5.1875 74.203125 1 70.203125 1 
C 69.203125 1 67.59375 1 67.59375 4.203125 
C 67.59375 6.8125 68.796875 10 69.203125 11.09375 
C 71 15.90625 75.5 27.703125 75.5 33.515625 
C 75.5 39.5 72 44 64.40625 44 
C 57.703125 44 52.296875 40.21875 48.296875 34.328125 
C 48 39.71875 44.703125 44 37.203125 44 
C 28.296875 44 23.59375 37.734375 21.796875 35.234375 
C 21.5 40.90625 17.40625 44 13 44 
C 10.09375 44 7.796875 42.609375 5.90625 38.8125 
C 4.09375 35.21875 2.703125 29.140625 2.703125 28.734375 
C 2.703125 28.34375 3.09375 27.84375 3.796875 27.84375 
C 4.59375 27.84375 4.703125 27.9375 5.296875 30.234375 
C 6.796875 36.125 8.703125 42.015625 12.703125 42.015625 
C 15 42.015625 15.796875 40.40625 15.796875 37.421875 
C 15.796875 35.21875 14.796875 31.328125 14.09375 28.234375 
L 11.296875 17.46875 
C 10.90625 15.5625 9.796875 11.078125 9.296875 9.28125 
C 8.59375 6.6875 7.5 2 7.5 1.5 
C 7.5 0.09375 8.59375 -1 10.09375 -1 
C 11.296875 -1 12.703125 -0.40625 13.5 1.09375 
C 13.703125 1.59375 14.59375 5.09375 15.09375 7.078125 
L 17.296875 16.0625 
z
" id="CMMI12-109"/>
      <path d="M 23.5 -25 
L 23.5 -21.515625 
L 14.09375 -21.515625 
L 14.09375 71 
L 23.5 71 
L 23.5 74.484375 
L 10.59375 74.484375 
L 10.59375 -25 
z
" id="CMR17-91"/>
      <path d="M 61.90625 56.875 
C 65.296875 62.25 68.40625 64.625 73.5 65.03125 
C 74.5 65.125 75.296875 65.125 75.296875 66.90625 
C 75.296875 67.3125 75.09375 67.90625 74.203125 67.90625 
C 72.40625 67.90625 68.09375 67.90625 66.296875 67.90625 
C 63.40625 67.90625 60.40625 67.90625 57.59375 67.90625 
C 56.796875 67.90625 55.796875 67.90625 55.796875 66.03125 
C 55.796875 65.125 56.703125 65.03125 57.09375 65.03125 
C 60.796875 64.734375 61.203125 62.953125 61.203125 61.75 
C 61.203125 60.265625 59.796875 57.96875 59.703125 57.875 
L 28.296875 8.4375 
L 21.296875 62.015625 
C 21.296875 65 26.5 65 27.59375 65 
C 29.09375 65 30 65 30 66.90625 
C 30 67.90625 28.90625 67.90625 28.59375 67.90625 
C 26.90625 67.90625 24.90625 67.90625 23.203125 67.90625 
L 17.59375 67.90625 
C 10.296875 67.90625 7.296875 67.90625 7.203125 67.90625 
C 6.59375 67.90625 5.40625 67.90625 5.40625 66.09375 
C 5.40625 65 6.09375 65 7.703125 65 
C 12.796875 65 13.09375 64.09375 13.40625 61.625 
L 21.40625 0.375 
C 21.703125 -1.703125 21.703125 -2 23.09375 -2 
C 24.296875 -2 24.796875 -1.703125 25.796875 -0.125 
z
" id="CMMI12-86"/>
      <path d="M 14.296875 74.484375 
L 1.40625 74.484375 
L 1.40625 71 
L 10.796875 71 
L 10.796875 -21.515625 
L 1.40625 -21.515625 
L 1.40625 -25 
L 14.296875 -25 
z
" id="CMR17-93"/>
     </defs>
     <g transform="translate(40.576557 252.422043)rotate(-90)scale(0.14 -0.14)">
      <use transform="translate(0 24.62935)scale(0.996264)" xlink:href="#CMMI12-64"/>
      <use transform="translate(56.915564 24.62935)scale(0.996264)" xlink:href="#CMSY10-76"/>
      <use transform="translate(125.630372 24.62935)scale(0.996264)" xlink:href="#CMMI12-61"/>
      <use transform="translate(174.405291 24.62935)scale(0.996264)" xlink:href="#CMMI12-64"/>
      <use transform="translate(231.320856 24.62935)scale(0.996264)" xlink:href="#CMMI12-22"/>
      <use transform="translate(290.012277 60.782989)scale(0.697382)" xlink:href="#CMMI12-85"/>
      <use transform="translate(290.012277 0)scale(0.697382)" xlink:href="#CMMI12-109"/>
      <use transform="translate(350.2392 24.62935)scale(0.996264)" xlink:href="#CMR17-91"/>
      <use transform="translate(375.110259 24.62935)scale(0.996264)" xlink:href="#CMMI12-86"/>
      <use transform="translate(453.657579 24.62935)scale(0.996264)" xlink:href="#CMR17-93"/>
      <path d="M 290.012277 49.625185 
L 344.171317 49.625185 
L 344.171317 52.414636 
L 290.012277 52.414636 
L 290.012277 49.625185 
z
"/>
     </g>
    </g>
   </g>
   <g id="line2d_27">
    <path clip-path="url(#p03e5a4ec65)" d="M 92.290909 85.432877 
L 92.427135 225.09536 
L 94.061851 225.189213 
L 94.606756 225.551218 
L 95.015435 226.051768 
L 95.424114 226.901475 
L 95.832793 228.304803 
L 96.241472 230.493594 
L 96.786377 235.03877 
L 97.331283 241.931392 
L 98.012414 254.154094 
L 103.461467 360.280821 
L 103.870146 362.932733 
L 104.278824 364.016513 
L 104.687503 364.45673 
L 105.232409 364.667341 
L 106.322219 364.749462 
L 113.542214 364.757842 
L 118.718814 364.677396 
L 118.991266 364.400306 
L 119.536171 363.447808 
L 121.307113 360.044512 
L 121.44334 360.370764 
L 122.260698 363.91428 
L 122.669377 364.335503 
L 122.941829 364.0802 
L 123.759187 362.75173 
L 123.895413 362.953403 
L 124.304092 364.026569 
L 124.712771 364.446674 
L 125.12145 364.579633 
L 125.393903 364.37796 
L 125.938808 363.643894 
L 126.075034 363.660653 
L 126.756166 364.488014 
L 127.301071 364.660637 
L 127.845976 364.671251 
L 128.390882 364.615945 
L 129.208239 364.738848 
L 132.750124 364.758401 
L 141.604834 364.715384 
L 141.877286 364.507567 
L 142.285965 363.819869 
L 142.694644 363.179656 
L 142.967097 363.17798 
L 143.23955 363.594174 
L 143.648229 364.27852 
L 144.056907 364.499746 
L 144.32936 364.261761 
L 145.010492 363.271833 
L 145.146718 363.38468 
L 145.691623 364.323771 
L 146.100302 364.56399 
L 146.372755 364.561756 
L 146.645207 364.246119 
L 147.190113 363.44669 
L 147.326339 363.496969 
L 148.00747 364.44835 
L 148.552376 364.633263 
L 148.824828 364.499187 
L 149.50596 363.828248 
L 149.642186 363.912046 
L 150.050865 364.4193 
L 150.59577 364.645553 
L 151.140676 364.633263 
L 151.821807 364.313157 
L 153.047844 364.718178 
L 155.636144 364.757842 
L 166.534249 364.707005 
L 166.942928 364.440529 
L 167.624059 363.923219 
L 167.896512 364.007016 
L 168.71387 364.608124 
L 168.986322 364.599744 
L 169.395001 364.279638 
L 169.80368 363.996961 
L 170.076133 364.163438 
L 170.484812 364.51874 
L 171.029717 364.674603 
L 171.30217 364.614269 
L 172.119528 364.091931 
L 173.073112 364.658402 
L 173.618017 364.640525 
L 174.435375 364.29528 
L 175.116506 364.648905 
L 175.933864 364.696949 
L 176.751222 364.537175 
L 177.432354 364.709798 
L 179.203296 364.756725 
L 191.463664 364.701418 
L 192.689701 364.3612 
L 193.643285 364.688569 
L 194.051964 364.585219 
L 194.596869 364.360642 
L 194.869322 364.438294 
L 195.414227 364.661754 
L 196.095358 364.685217 
L 197.048943 364.45226 
L 197.593848 364.666782 
L 198.411206 364.697508 
L 199.228564 364.512595 
L 200.045921 364.71315 
L 200.999506 364.682424 
L 201.544411 364.638849 
L 202.497995 364.7422 
L 207.538369 364.757842 
L 216.529305 364.670692 
L 217.346663 364.529354 
L 218.845152 364.665665 
L 219.526284 364.555611 
L 220.616094 364.734379 
L 221.297226 364.623207 
L 221.842131 364.596392 
L 222.523263 364.72153 
L 223.476847 364.678514 
L 224.157979 364.653374 
L 225.111563 364.743317 
L 231.10552 364.757842 
L 241.731173 364.652816 
L 242.412304 364.665106 
L 243.365888 364.734379 
L 244.864378 364.722647 
L 245.954188 364.704211 
L 246.771546 364.695273 
L 247.997583 364.739965 
L 249.359846 364.736055 
L 252.493051 364.755607 
L 266.388135 364.709798 
L 267.614172 364.73773 
L 270.611151 364.738289 
L 271.973414 364.744434 
L 276.877561 364.755607 
L 304.395276 364.757842 
L 497.972865 364.757842 
L 497.972865 364.757842 
" style="fill:none;stroke:#bf00bf;stroke-linecap:square;stroke-width:1.5;"/>
   </g>
   <g id="line2d_28">
    <path clip-path="url(#p03e5a4ec65)" d="M 92.290909 85.432877 
L 92.427135 225.09536 
L 93.789399 225.175805 
L 94.334304 225.571888 
L 94.742983 226.093108 
L 95.151662 226.971306 
L 95.560341 228.4467 
L 95.96902 230.772919 
L 96.513925 235.616972 
L 97.05883 242.940873 
L 97.603735 253.223942 
L 98.965998 280.921806 
L 103.461467 367.971196 
L 103.870146 368.865595 
L 104.278824 369.212516 
L 104.82373 369.34771 
L 106.049767 369.319777 
L 112.452403 369.005816 
L 115.585608 369.056653 
L 117.765229 369.166707 
L 117.901456 369.135423 
L 118.173908 368.013095 
L 118.991266 363.956738 
L 120.353529 360.820477 
L 121.034661 359.323295 
L 121.170887 359.448433 
L 121.44334 361.27466 
L 121.988245 367.184617 
L 122.260698 366.32709 
L 123.078055 363.13664 
L 123.486734 362.123807 
L 123.622961 362.184142 
L 123.759187 362.644469 
L 124.03164 364.693038 
L 124.167866 366.046089 
L 124.304092 366.261169 
L 124.576545 365.881287 
L 125.802582 363.175187 
L 125.938808 363.293062 
L 126.211261 364.34053 
L 126.483713 365.739948 
L 126.61994 365.791344 
L 126.892392 365.54889 
L 127.573524 364.763987 
L 128.254655 364.556169 
L 129.072013 365.125992 
L 132.205218 365.322078 
L 136.836913 365.591348 
L 137.926723 365.71872 
L 139.15276 365.870114 
L 139.970118 365.700843 
L 140.787476 365.277386 
L 141.604834 364.643877 
L 141.877286 364.132713 
L 142.422192 362.791953 
L 142.558418 362.667374 
L 142.694644 362.713183 
L 142.967097 363.321553 
L 143.512002 365.232694 
L 143.784455 364.977391 
L 144.193134 364.230476 
L 144.738039 362.757316 
L 144.874265 362.779104 
L 145.010492 363.088596 
L 145.282944 364.517622 
L 145.555397 365.789668 
L 145.827849 365.504757 
L 146.508981 364.115394 
L 146.91766 363.009268 
L 147.053886 362.939436 
L 147.190113 363.136081 
L 147.462565 364.352262 
L 147.735018 365.758384 
L 147.871244 365.752797 
L 148.279923 365.153366 
L 149.369734 363.484679 
L 149.642186 364.137182 
L 150.050865 365.546656 
L 150.323318 365.369564 
L 151.549355 364.127126 
L 151.685581 364.142768 
L 151.958034 364.520974 
L 152.230486 365.164539 
L 152.502939 365.190237 
L 153.865202 364.786333 
L 156.998407 365.029346 
L 164.490854 365.288001 
L 165.580665 365.034932 
L 166.534249 364.617062 
L 167.487833 363.6992 
L 167.760286 363.967911 
L 168.441417 364.980185 
L 168.986322 364.534382 
L 169.531228 363.750596 
L 169.667454 363.730485 
L 169.939907 364.127685 
L 170.348586 365.278504 
L 170.621038 365.167891 
L 171.438396 364.256733 
L 171.847075 363.814282 
L 171.983301 363.88132 
L 172.255754 364.446115 
L 172.528207 365.260627 
L 172.800659 365.215376 
L 173.754243 364.353379 
L 174.026696 364.095842 
L 174.299149 364.163438 
L 174.571601 364.662313 
L 174.844054 365.166215 
L 175.116506 365.102529 
L 176.47877 364.420417 
L 176.751222 364.589688 
L 177.159901 364.995827 
L 177.841033 364.852254 
L 178.658391 364.767339 
L 184.107443 364.946666 
L 190.101401 364.948342 
L 191.327438 364.687452 
L 192.281022 364.201985 
L 192.553474 364.33662 
L 193.234606 364.877393 
L 193.779511 364.650581 
L 194.460643 364.219303 
L 194.733095 364.41092 
L 195.141774 365.02767 
L 195.550453 364.912029 
L 196.77649 364.293604 
L 197.048943 364.577398 
L 197.321395 365.017055 
L 197.593848 364.999737 
L 199.092337 364.440529 
L 199.909695 364.941079 
L 201.271958 364.577398 
L 201.680637 364.753373 
L 201.95309 364.883538 
L 209.71799 364.863985 
L 215.439495 364.80812 
L 216.393079 364.631587 
L 217.07421 364.463433 
L 217.619116 364.674044 
L 218.027795 364.820969 
L 218.845152 364.577957 
L 219.253831 364.47293 
L 219.526284 364.576281 
L 220.071189 364.898622 
L 221.024773 364.62209 
L 221.433452 364.495835 
L 221.705905 364.569018 
L 222.25081 364.90365 
L 223.204394 364.693038 
L 223.7493 364.566784 
L 224.157979 364.727116 
L 224.430431 364.871248 
L 225.247789 364.764546 
L 226.3376 364.708122 
L 226.882505 364.823763 
L 229.607031 364.785216 
L 240.505136 364.767898 
L 242.412304 364.716502 
L 242.95721 364.778512 
L 244.319473 364.665106 
L 244.864378 364.832142 
L 246.63532 364.712033 
L 247.043999 364.835494 
L 248.951167 364.744434 
L 249.359846 364.817617 
L 251.403241 364.789126 
L 253.855314 364.768456 
L 265.434551 364.758401 
L 269.112661 364.710357 
L 269.793793 364.789685 
L 271.428509 364.735496 
L 271.973414 364.793595 
L 273.880582 364.781305 
L 274.970393 364.75449 
L 277.28624 364.760635 
L 285.05114 364.77516 
L 498.109091 364.757842 
L 498.109091 364.757842 
" style="fill:none;stroke:#00bfbf;stroke-linecap:square;stroke-width:1.5;"/>
   </g>
   <g id="line2d_29">
    <path clip-path="url(#p03e5a4ec65)" d="M 92.290909 85.432877 
L 92.427135 225.09536 
L 92.835814 179.827397 
L 94.061851 73.794523 
L 94.47053 69.070579 
L 94.742983 67.737082 
L 95.015435 67.139327 
L 95.287888 66.96 
L 95.560341 67.015865 
L 96.105246 67.459992 
L 97.739962 69.352139 
L 99.64713 71.382831 
L 101.690525 73.216321 
L 103.597693 74.643671 
L 105.777314 75.931918 
L 108.093161 77.05257 
L 110.817687 78.107859 
L 111.635045 78.378246 
L 111.907498 78.900584 
L 112.724856 81.221215 
L 114.223345 85.993203 
L 114.495798 88.128922 
L 114.904477 94.014857 
L 115.449382 106.17946 
L 116.402966 134.758314 
L 117.35655 161.499769 
L 117.765229 168.594064 
L 118.037682 170.996818 
L 118.173908 171.386197 
L 118.310135 171.191228 
L 118.582587 168.937075 
L 118.85504 164.051123 
L 119.808624 138.308534 
L 120.898434 102.644882 
L 121.579566 80.019001 
L 122.124471 79.363146 
L 122.669377 79.066503 
L 123.486734 78.926281 
L 124.576545 79.010638 
L 126.075034 79.342476 
L 128.118429 80.112295 
L 130.161824 81.150826 
L 132.88635 82.804429 
L 137.109366 85.56416 
L 137.381818 86.032867 
L 137.790497 87.32279 
L 138.335402 89.98364 
L 139.288987 96.184095 
L 140.106344 101.167252 
L 140.515023 102.805214 
L 140.787476 103.393472 
L 141.059929 103.494588 
L 141.332381 103.049903 
L 141.604834 102.015283 
L 142.013513 99.29801 
L 142.558418 93.52548 
L 143.375776 83.173138 
L 144.056907 82.768676 
L 145.010492 82.480412 
L 146.91766 82.242427 
L 148.824828 82.229579 
L 150.731997 82.39438 
L 153.18407 82.831803 
L 156.044823 83.585981 
L 161.085196 85.209417 
L 162.175007 85.683711 
L 162.583686 86.303812 
L 163.128591 87.622785 
L 164.082175 90.765749 
L 165.035759 93.684137 
L 165.444438 94.417085 
L 165.716891 94.629372 
L 165.989344 94.579094 
L 166.261796 94.238317 
L 166.670475 93.142246 
L 167.079154 91.322723 
L 167.624059 87.850155 
L 168.168965 84.284852 
L 169.395001 83.980387 
L 171.30217 83.820055 
L 173.89047 83.792681 
L 176.751222 83.960835 
L 180.565559 84.430659 
L 186.831969 85.492653 
L 187.240648 85.747397 
L 187.785553 86.360795 
L 188.602911 87.698203 
L 189.828948 89.727219 
L 190.373853 90.19034 
L 190.782532 90.210451 
L 191.191211 89.889786 
L 191.59989 89.19706 
L 192.144795 87.691499 
L 192.962153 84.833446 
L 194.733095 84.640153 
L 198.683658 84.573115 
L 202.906674 84.732889 
L 208.900632 85.209976 
L 212.033837 85.599914 
L 212.714968 86.028398 
L 213.941005 87.154078 
L 214.758363 87.787028 
L 215.303268 87.969707 
L 215.711947 87.921104 
L 216.120626 87.684236 
L 216.665531 87.057431 
L 217.346663 85.811083 
L 217.755342 85.116123 
L 220.071189 85.001041 
L 225.384015 85.002717 
L 231.514199 85.212769 
L 236.963252 85.559691 
L 237.916836 85.94069 
L 239.687778 86.725034 
L 240.36891 86.774754 
L 240.913815 86.625595 
L 241.594946 86.174206 
L 242.684757 85.256902 
L 245.954188 85.193216 
L 253.037957 85.245171 
L 261.620214 85.483156 
L 262.982477 85.780916 
L 264.753419 86.149066 
L 265.570777 86.095995 
L 266.388135 85.821139 
L 267.614172 85.334555 
L 274.289261 85.307181 
L 286.413403 85.461368 
L 288.593024 85.736783 
L 289.955287 85.814994 
L 291.045098 85.669186 
L 292.679813 85.377012 
L 304.531502 85.39042 
L 312.977534 85.566953 
L 315.020928 85.627846 
L 316.519418 85.451871 
L 317.336776 85.403827 
L 329.73337 85.411649 
L 365.833342 85.449637 
L 368.557869 85.422822 
L 498.109091 85.432319 
L 498.109091 85.432319 
" style="fill:none;stroke:#ff0000;stroke-linecap:square;stroke-width:1.5;"/>
   </g>
   <g id="line2d_30">
    <path clip-path="url(#p03e5a4ec65)" d="M 92.290909 85.432877 
L 92.427135 225.09536 
L 92.563362 225.09536 
L 92.835814 213.203379 
L 93.38072 174.448157 
L 94.334304 104.168879 
L 94.742983 93.543916 
L 95.015435 90.486424 
L 95.287888 89.070247 
L 95.560341 88.582546 
L 95.832793 88.617182 
L 96.241472 89.168569 
L 97.05883 90.900384 
L 99.238451 95.609244 
L 100.873167 98.600256 
L 102.644109 101.368366 
L 104.415051 103.71302 
L 106.185993 105.692876 
L 108.093161 107.500667 
L 110.136556 109.125779 
L 111.635045 110.144198 
L 111.907498 111.263174 
L 112.316177 114.485467 
L 113.133535 123.26912 
L 114.495798 140.392857 
L 115.040703 152.235677 
L 115.721835 173.183932 
L 117.629003 237.018066 
L 118.037682 243.419077 
L 118.310135 244.845869 
L 118.446361 244.602298 
L 118.718814 242.062117 
L 118.991266 236.649916 
L 120.081077 204.840948 
L 121.170887 166.727056 
L 121.579566 152.850751 
L 121.988245 148.468701 
L 122.396924 145.907849 
L 122.941829 143.97939 
L 123.486734 142.900078 
L 124.03164 142.25372 
L 124.712771 141.797862 
L 125.393903 141.595631 
L 126.075034 141.592837 
L 126.892392 141.836409 
L 127.70975 142.3202 
L 128.663334 143.165437 
L 129.753145 144.470443 
L 130.979182 146.318457 
L 132.477671 149.032378 
L 134.248613 152.725054 
L 136.973139 158.988079 
L 137.381818 160.186942 
L 137.926723 162.706453 
L 138.607855 167.208054 
L 140.378797 180.055885 
L 140.787476 181.556977 
L 141.059929 181.936301 
L 141.196155 181.913955 
L 141.468608 181.410052 
L 141.74106 180.260909 
L 142.149739 177.279395 
L 142.694644 171.018046 
L 143.512002 160.91598 
L 144.056907 158.893108 
L 144.601813 157.665196 
L 145.282944 156.631693 
L 146.236528 155.611599 
L 147.462565 154.660218 
L 148.552376 154.08816 
L 149.642186 153.742915 
L 150.731997 153.631743 
L 151.821807 153.737328 
L 152.911618 154.053524 
L 154.137654 154.639548 
L 155.499918 155.547354 
L 157.134633 156.938951 
L 159.041802 158.881935 
L 161.766328 162.01261 
L 162.175007 162.588019 
L 162.719912 163.82487 
L 163.401044 166.076788 
L 165.308212 173.011309 
L 165.716891 173.646494 
L 165.989344 173.733644 
L 166.261796 173.514094 
L 166.534249 172.9655 
L 166.942928 171.496809 
L 167.487833 168.358314 
L 168.305191 163.101977 
L 168.850096 162.046687 
L 169.531228 161.28413 
L 170.484812 160.624364 
L 171.847075 159.99309 
L 173.345564 159.542818 
L 174.844054 159.31433 
L 176.342543 159.304833 
L 177.977259 159.528852 
L 179.611975 159.974655 
L 181.519143 160.734418 
L 183.83499 161.922667 
L 186.831969 163.724313 
L 187.376874 164.289667 
L 188.058006 165.383503 
L 190.237627 169.423101 
L 190.646306 169.661644 
L 190.918759 169.633712 
L 191.191211 169.439302 
L 191.59989 168.814172 
L 192.144795 167.351627 
L 193.234606 163.955035 
L 193.915737 163.387447 
L 194.869322 162.956728 
L 196.504037 162.523216 
L 198.547432 162.211489 
L 200.727053 162.11596 
L 202.906674 162.25227 
L 205.222521 162.622097 
L 207.947048 163.289683 
L 211.625158 164.434357 
L 212.306289 164.832116 
L 213.123647 165.594114 
L 214.894589 167.370621 
L 215.439495 167.571176 
L 215.848174 167.514194 
L 216.256853 167.251629 
L 216.801758 166.567282 
L 217.482889 165.223729 
L 217.755342 164.741056 
L 218.436473 164.350001 
L 219.526284 164.051682 
L 221.569679 163.767888 
L 224.294205 163.59303 
L 227.291184 163.628784 
L 230.424389 163.891349 
L 234.374952 164.456703 
L 236.963252 164.967868 
L 238.053062 165.507523 
L 239.687778 166.371196 
L 240.36891 166.475105 
L 240.913815 166.358347 
L 241.45872 166.040476 
L 242.139852 165.37233 
L 242.548531 164.96284 
L 243.502115 164.706419 
L 245.409283 164.509216 
L 249.087394 164.356705 
L 253.174183 164.411452 
L 258.07833 164.723738 
L 262.165119 165.184624 
L 265.162098 165.892992 
L 265.979456 165.755005 
L 266.796814 165.377917 
L 267.477946 165.0539 
L 268.840209 164.907533 
L 272.790772 164.775133 
L 278.103598 164.794686 
L 284.506235 165.034347 
L 287.366987 165.267304 
L 289.955287 165.582383 
L 291.045098 165.451658 
L 292.952266 165.08295 
L 297.039055 164.990214 
L 304.122823 165.01256 
L 312.160176 165.249986 
L 315.157155 165.404173 
L 316.655644 165.213674 
L 317.609228 165.153339 
L 323.46696 165.093564 
L 333.41148 165.162836 
L 343.356001 165.175685 
L 356.297501 165.179596 
L 391.852568 165.215908 
L 405.611425 165.212556 
L 437.897061 165.234344 
L 498.109091 165.224847 
L 498.109091 165.224847 
" style="fill:none;stroke:#008000;stroke-linecap:square;stroke-width:1.5;"/>
   </g>
   <g id="patch_3">
    <path d="M 72 384.48 
L 72 51.84 
" style="fill:none;stroke:#000000;stroke-linecap:square;stroke-linejoin:miter;stroke-width:0.8;"/>
   </g>
   <g id="patch_4">
    <path d="M 518.4 384.48 
L 518.4 51.84 
" style="fill:none;stroke:#000000;stroke-linecap:square;stroke-linejoin:miter;stroke-width:0.8;"/>
   </g>
   <g id="patch_5">
    <path d="M 72 384.48 
L 518.4 384.48 
" style="fill:none;stroke:#000000;stroke-linecap:square;stroke-linejoin:miter;stroke-width:0.8;"/>
   </g>
   <g id="patch_6">
    <path d="M 72 51.84 
L 518.4 51.84 
" style="fill:none;stroke:#000000;stroke-linecap:square;stroke-linejoin:miter;stroke-width:0.8;"/>
   </g>
   <g id="legend_1">
    <g id="patch_7">
     <path d="M 443.185706 254.156699 
L 511.4 254.156699 
Q 513.4 254.156699 513.4 252.156699 
L 513.4 184.163301 
Q 513.4 182.163301 511.4 182.163301 
L 443.185706 182.163301 
Q 441.185706 182.163301 441.185706 184.163301 
L 441.185706 252.156699 
Q 441.185706 254.156699 443.185706 254.156699 
z
" style="fill:#ffffff;opacity:0.8;stroke:#cccccc;stroke-linejoin:miter;"/>
    </g>
    <g id="line2d_31">
     <path d="M 445.185706 192.974472 
L 465.185706 192.974472 
" style="fill:none;stroke:#bf00bf;stroke-linecap:square;stroke-width:1.5;"/>
    </g>
    <g id="line2d_32"/>
    <g id="text_16">
     <!-- $\partial \mathcal{L}/ \partial \mu^{\underline{U}}_{1}$ -->
     <g transform="translate(473.185706 196.474472)scale(0.1 -0.1)">
      <use transform="translate(0 26.578082)scale(0.996264)" xlink:href="#CMMI12-64"/>
      <use transform="translate(56.915564 26.578082)scale(0.996264)" xlink:href="#CMSY10-76"/>
      <use transform="translate(125.630372 26.578082)scale(0.996264)" xlink:href="#CMMI12-61"/>
      <use transform="translate(174.405291 26.578082)scale(0.996264)" xlink:href="#CMMI12-64"/>
      <use transform="translate(231.320856 26.578082)scale(0.996264)" xlink:href="#CMMI12-22"/>
      <use transform="translate(290.012277 74.841065)scale(0.697382)" xlink:href="#CMMI12-85"/>
      <use transform="translate(290.012277 0)scale(0.697382)" xlink:href="#CMR17-49"/>
      <path d="M 290.012277 63.683261 
L 344.171317 63.683261 
L 344.171317 66.472712 
L 290.012277 66.472712 
L 290.012277 63.683261 
z
"/>
     </g>
    </g>
    <g id="line2d_33">
     <path d="M 445.185706 210.222822 
L 465.185706 210.222822 
" style="fill:none;stroke:#00bfbf;stroke-linecap:square;stroke-width:1.5;"/>
    </g>
    <g id="line2d_34"/>
    <g id="text_17">
     <!-- $\partial \mathcal{L}/ \partial \mu^{\underline{U}}_{2}$ -->
     <g transform="translate(473.185706 213.722822)scale(0.1 -0.1)">
      <use transform="translate(0 26.578082)scale(0.996264)" xlink:href="#CMMI12-64"/>
      <use transform="translate(56.915564 26.578082)scale(0.996264)" xlink:href="#CMSY10-76"/>
      <use transform="translate(125.630372 26.578082)scale(0.996264)" xlink:href="#CMMI12-61"/>
      <use transform="translate(174.405291 26.578082)scale(0.996264)" xlink:href="#CMMI12-64"/>
      <use transform="translate(231.320856 26.578082)scale(0.996264)" xlink:href="#CMMI12-22"/>
      <use transform="translate(290.012277 74.841065)scale(0.697382)" xlink:href="#CMMI12-85"/>
      <use transform="translate(290.012277 0)scale(0.697382)" xlink:href="#CMR17-50"/>
      <path d="M 290.012277 63.683261 
L 344.171317 63.683261 
L 344.171317 66.472712 
L 290.012277 66.472712 
L 290.012277 63.683261 
z
"/>
     </g>
    </g>
    <g id="line2d_35">
     <path d="M 445.185706 227.471171 
L 465.185706 227.471171 
" style="fill:none;stroke:#ff0000;stroke-linecap:square;stroke-width:1.5;"/>
    </g>
    <g id="line2d_36"/>
    <g id="text_18">
     <!-- $\partial \mathcal{L}/ \partial \mu^{\underline{U}}_{3}$ -->
     <g transform="translate(473.185706 230.971171)scale(0.1 -0.1)">
      <use transform="translate(0 26.578082)scale(0.996264)" xlink:href="#CMMI12-64"/>
      <use transform="translate(56.915564 26.578082)scale(0.996264)" xlink:href="#CMSY10-76"/>
      <use transform="translate(125.630372 26.578082)scale(0.996264)" xlink:href="#CMMI12-61"/>
      <use transform="translate(174.405291 26.578082)scale(0.996264)" xlink:href="#CMMI12-64"/>
      <use transform="translate(231.320856 26.578082)scale(0.996264)" xlink:href="#CMMI12-22"/>
      <use transform="translate(290.012277 74.841065)scale(0.697382)" xlink:href="#CMMI12-85"/>
      <use transform="translate(290.012277 0)scale(0.697382)" xlink:href="#CMR17-51"/>
      <path d="M 290.012277 63.683261 
L 344.171317 63.683261 
L 344.171317 66.472712 
L 290.012277 66.472712 
L 290.012277 63.683261 
z
"/>
     </g>
    </g>
    <g id="line2d_37">
     <path d="M 445.185706 244.719521 
L 465.185706 244.719521 
" style="fill:none;stroke:#008000;stroke-linecap:square;stroke-width:1.5;"/>
    </g>
    <g id="line2d_38"/>
    <g id="text_19">
     <!-- $\partial \mathcal{L}/ \partial \mu^{\underline{U}}_{4}$ -->
     <g transform="translate(473.185706 248.219521)scale(0.1 -0.1)">
      <use transform="translate(0 26.578082)scale(0.996264)" xlink:href="#CMMI12-64"/>
      <use transform="translate(56.915564 26.578082)scale(0.996264)" xlink:href="#CMSY10-76"/>
      <use transform="translate(125.630372 26.578082)scale(0.996264)" xlink:href="#CMMI12-61"/>
      <use transform="translate(174.405291 26.578082)scale(0.996264)" xlink:href="#CMMI12-64"/>
      <use transform="translate(231.320856 26.578082)scale(0.996264)" xlink:href="#CMMI12-22"/>
      <use transform="translate(290.012277 74.841065)scale(0.697382)" xlink:href="#CMMI12-85"/>
      <use transform="translate(290.012277 0)scale(0.697382)" xlink:href="#CMR17-52"/>
      <path d="M 290.012277 63.683261 
L 344.171317 63.683261 
L 344.171317 66.472712 
L 290.012277 66.472712 
L 290.012277 63.683261 
z
"/>
     </g>
    </g>
   </g>
  </g>
 </g>
 <defs>
  <clipPath id="p03e5a4ec65">
   <rect height="332.64" width="446.4" x="72" y="51.84"/>
  </clipPath>
 </defs>
</svg>
