<?xml version="1.0" encoding="utf-8" standalone="no"?>
<!DOCTYPE svg PUBLIC "-//W3C//DTD SVG 1.1//EN"
  "http://www.w3.org/Graphics/SVG/1.1/DTD/svg11.dtd">
<!-- Created with matplotlib (http://matplotlib.org/) -->
<svg height="432pt" version="1.1" viewBox="0 0 576 432" width="576pt" xmlns="http://www.w3.org/2000/svg" xmlns:xlink="http://www.w3.org/1999/xlink">
 <defs>
  <style type="text/css">
*{stroke-linecap:butt;stroke-linejoin:round;}
  </style>
 </defs>
 <g id="figure_1">
  <g id="patch_1">
   <path d="M 0 432 
L 576 432 
L 576 0 
L 0 0 
z
" style="fill:#ffffff;"/>
  </g>
  <g id="axes_1">
   <g id="patch_2">
    <path d="M 72 384.48 
L 518.4 384.48 
L 518.4 51.84 
L 72 51.84 
z
" style="fill:#ffffff;"/>
   </g>
   <g id="matplotlib.axis_1">
    <g id="xtick_1">
     <g id="line2d_1">
      <path clip-path="url(#p8e059d2b17)" d="M 92.290909 384.48 
L 92.290909 51.84 
" style="fill:none;stroke:#b0b0b0;stroke-dasharray:5.12,1.28,0.8,1.28;stroke-dashoffset:0;stroke-width:0.8;"/>
     </g>
     <g id="line2d_2">
      <defs>
       <path d="M 0 0 
L 0 3.5 
" id="m694b561f23" style="stroke:#000000;stroke-width:0.8;"/>
      </defs>
      <g>
       <use style="stroke:#000000;stroke-width:0.8;" x="92.290909" xlink:href="#m694b561f23" y="384.48"/>
      </g>
     </g>
     <g id="text_1">
      <!-- $0$ -->
      <defs>
       <path d="M 42 31.640625 
C 42 37.75 41.90625 48.125 37.703125 56.109375 
C 34 63.109375 28.09375 65.59375 22.90625 65.59375 
C 18.09375 65.59375 12 63.40625 8.203125 56.203125 
C 4.203125 48.71875 3.796875 39.4375 3.796875 31.640625 
C 3.796875 25.953125 3.90625 17.28125 7 9.671875 
C 11.296875 -0.609375 19 -2 22.90625 -2 
C 27.5 -2 34.5 -0.109375 38.59375 9.375 
C 41.59375 16.28125 42 24.359375 42 31.640625 
z
M 22.90625 -0.40625 
C 16.5 -0.40625 12.703125 5.078125 11.296875 12.6875 
C 10.203125 18.5625 10.203125 27.15625 10.203125 32.75 
C 10.203125 40.4375 10.203125 46.828125 11.5 52.921875 
C 13.40625 61.390625 19 64 22.90625 64 
C 27 64 32.296875 61.296875 34.203125 53.125 
C 35.5 47.4375 35.59375 40.734375 35.59375 32.75 
C 35.59375 26.25 35.59375 18.265625 34.40625 12.375 
C 32.296875 1.484375 26.40625 -0.40625 22.90625 -0.40625 
z
" id="CMR17-48"/>
      </defs>
      <g transform="translate(89.800241 398.398498)scale(0.1 -0.1)">
       <use transform="scale(0.996264)" xlink:href="#CMR17-48"/>
      </g>
     </g>
    </g>
    <g id="xtick_2">
     <g id="line2d_3">
      <path clip-path="url(#p8e059d2b17)" d="M 143.298725 384.48 
L 143.298725 51.84 
" style="fill:none;stroke:#b0b0b0;stroke-dasharray:5.12,1.28,0.8,1.28;stroke-dashoffset:0;stroke-width:0.8;"/>
     </g>
     <g id="line2d_4">
      <g>
       <use style="stroke:#000000;stroke-width:0.8;" x="143.298725" xlink:href="#m694b561f23" y="384.48"/>
      </g>
     </g>
     <g id="text_2">
      <!-- $250$ -->
      <defs>
       <path d="M 41.703125 15.453125 
L 39.90625 15.453125 
C 38.90625 8.375 38.09375 7.171875 37.703125 6.5625 
C 37.203125 5.765625 30 5.765625 28.59375 5.765625 
L 9.40625 5.765625 
C 13 9.671875 20 16.75 28.5 24.953125 
C 34.59375 30.734375 41.703125 37.53125 41.703125 47.421875 
C 41.703125 59.21875 32.296875 66 21.796875 66 
C 10.796875 66 4.09375 56.3125 4.09375 47.34375 
C 4.09375 43.4375 7 42.9375 8.203125 42.9375 
C 9.203125 42.9375 12.203125 43.546875 12.203125 47.03125 
C 12.203125 50.109375 9.59375 51 8.203125 51 
C 7.59375 51 7 50.90625 6.59375 50.703125 
C 8.5 59.21875 14.296875 63.40625 20.40625 63.40625 
C 29.09375 63.40625 34.796875 56.515625 34.796875 47.421875 
C 34.796875 38.734375 29.703125 31.25 24 24.75 
L 4.09375 2.28125 
L 4.09375 0 
L 39.296875 0 
z
" id="CMR17-50"/>
       <path d="M 11.40625 57.6875 
C 12.40625 57.28125 16.5 56 20.703125 56 
C 30 56 35.09375 61.109375 38 64.0625 
C 38 64.953125 38 65.5 37.40625 65.5 
C 37.296875 65.5 37.09375 65.5 36.296875 65.046875 
C 32.796875 63.40625 28.703125 62.078125 23.703125 62.078125 
C 20.703125 62.078125 16.203125 62.484375 11.296875 64.671875 
C 10.203125 65.171875 10 65.171875 9.90625 65.171875 
C 9.40625 65.171875 9.296875 65.0625 9.296875 63.078125 
L 9.296875 34.421875 
C 9.296875 32.640625 9.296875 32.140625 10.296875 32.140625 
C 10.796875 32.140625 11 32.34375 11.5 33.03125 
C 14.703125 37.515625 19.09375 39.40625 24.09375 39.40625 
C 27.59375 39.40625 35.09375 37.21875 35.09375 20.140625 
C 35.09375 16.953125 35.09375 11.171875 32.09375 6.578125 
C 29.59375 2.484375 25.703125 0.390625 21.40625 0.390625 
C 14.796875 0.390625 8.09375 5 6.296875 12.71875 
C 6.703125 12.609375 7.5 12.421875 7.90625 12.421875 
C 9.203125 12.421875 11.703125 13.125 11.703125 16.21875 
C 11.703125 18.90625 9.796875 20 7.90625 20 
C 5.59375 20 4.09375 18.59375 4.09375 15.796875 
C 4.09375 7.09375 11 -2 21.59375 -2 
C 31.90625 -2 41.703125 6.875 41.703125 19.75 
C 41.703125 31.71875 33.90625 41 24.203125 41 
C 19.09375 41 14.796875 39.109375 11.40625 35.53125 
z
" id="CMR17-53"/>
      </defs>
      <g transform="translate(135.826722 398.398498)scale(0.1 -0.1)">
       <use transform="scale(0.996264)" xlink:href="#CMR17-50"/>
       <use transform="translate(45.690477 0)scale(0.996264)" xlink:href="#CMR17-53"/>
       <use transform="translate(91.380954 0)scale(0.996264)" xlink:href="#CMR17-48"/>
      </g>
     </g>
    </g>
    <g id="xtick_3">
     <g id="line2d_5">
      <path clip-path="url(#p8e059d2b17)" d="M 194.306541 384.48 
L 194.306541 51.84 
" style="fill:none;stroke:#b0b0b0;stroke-dasharray:5.12,1.28,0.8,1.28;stroke-dashoffset:0;stroke-width:0.8;"/>
     </g>
     <g id="line2d_6">
      <g>
       <use style="stroke:#000000;stroke-width:0.8;" x="194.306541" xlink:href="#m694b561f23" y="384.48"/>
      </g>
     </g>
     <g id="text_3">
      <!-- $500$ -->
      <g transform="translate(186.834538 398.398498)scale(0.1 -0.1)">
       <use transform="scale(0.996264)" xlink:href="#CMR17-53"/>
       <use transform="translate(45.690477 0)scale(0.996264)" xlink:href="#CMR17-48"/>
       <use transform="translate(91.380954 0)scale(0.996264)" xlink:href="#CMR17-48"/>
      </g>
     </g>
    </g>
    <g id="xtick_4">
     <g id="line2d_7">
      <path clip-path="url(#p8e059d2b17)" d="M 245.314356 384.48 
L 245.314356 51.84 
" style="fill:none;stroke:#b0b0b0;stroke-dasharray:5.12,1.28,0.8,1.28;stroke-dashoffset:0;stroke-width:0.8;"/>
     </g>
     <g id="line2d_8">
      <g>
       <use style="stroke:#000000;stroke-width:0.8;" x="245.314356" xlink:href="#m694b561f23" y="384.48"/>
      </g>
     </g>
     <g id="text_4">
      <!-- $750$ -->
      <defs>
       <path d="M 45.09375 61.578125 
L 45.09375 63.765625 
L 21.59375 63.765625 
C 9.90625 63.765625 9.703125 65.078125 9.296875 67 
L 7.5 67 
L 4.59375 48.34375 
L 6.40625 48.34375 
C 6.703125 50.234375 7.40625 55.3125 8.59375 57.203125 
C 9.203125 58 16.59375 58 18.296875 58 
L 40.296875 58 
L 29.203125 41.578125 
C 21.796875 30.53125 16.703125 15.609375 16.703125 2.578125 
C 16.703125 1.390625 16.703125 -2 20.296875 -2 
C 23.90625 -2 23.90625 1.390625 23.90625 2.671875 
L 23.90625 7.265625 
C 23.90625 23.5625 26.703125 34.3125 31.296875 41.1875 
z
" id="CMR17-55"/>
      </defs>
      <g transform="translate(237.842353 398.398498)scale(0.1 -0.1)">
       <use transform="scale(0.996264)" xlink:href="#CMR17-55"/>
       <use transform="translate(45.690477 0)scale(0.996264)" xlink:href="#CMR17-53"/>
       <use transform="translate(91.380954 0)scale(0.996264)" xlink:href="#CMR17-48"/>
      </g>
     </g>
    </g>
    <g id="xtick_5">
     <g id="line2d_9">
      <path clip-path="url(#p8e059d2b17)" d="M 296.322172 384.48 
L 296.322172 51.84 
" style="fill:none;stroke:#b0b0b0;stroke-dasharray:5.12,1.28,0.8,1.28;stroke-dashoffset:0;stroke-width:0.8;"/>
     </g>
     <g id="line2d_10">
      <g>
       <use style="stroke:#000000;stroke-width:0.8;" x="296.322172" xlink:href="#m694b561f23" y="384.48"/>
      </g>
     </g>
     <g id="text_5">
      <!-- $1000$ -->
      <defs>
       <path d="M 26.59375 63.40625 
C 26.59375 65.5 26.5 65.5 25.09375 65.5 
C 21.203125 61.1875 15.296875 59.796875 9.703125 59.796875 
C 9.40625 59.796875 8.90625 59.796875 8.796875 59.5 
C 8.703125 59.296875 8.703125 59.09375 8.703125 57 
C 11.796875 57 17 57.59375 21 59.984375 
L 21 7.203125 
C 21 3.6875 20.796875 2.5 12.203125 2.5 
L 9.203125 2.5 
L 9.203125 0 
C 14 0 19 0 23.796875 0 
C 28.59375 0 33.59375 0 38.40625 0 
L 38.40625 2.5 
L 35.40625 2.5 
C 26.796875 2.5 26.59375 3.59375 26.59375 7.15625 
z
" id="CMR17-49"/>
      </defs>
      <g transform="translate(286.359501 398.398498)scale(0.1 -0.1)">
       <use transform="scale(0.996264)" xlink:href="#CMR17-49"/>
       <use transform="translate(45.690477 0)scale(0.996264)" xlink:href="#CMR17-48"/>
       <use transform="translate(91.380954 0)scale(0.996264)" xlink:href="#CMR17-48"/>
       <use transform="translate(137.071431 0)scale(0.996264)" xlink:href="#CMR17-48"/>
      </g>
     </g>
    </g>
    <g id="xtick_6">
     <g id="line2d_11">
      <path clip-path="url(#p8e059d2b17)" d="M 347.329988 384.48 
L 347.329988 51.84 
" style="fill:none;stroke:#b0b0b0;stroke-dasharray:5.12,1.28,0.8,1.28;stroke-dashoffset:0;stroke-width:0.8;"/>
     </g>
     <g id="line2d_12">
      <g>
       <use style="stroke:#000000;stroke-width:0.8;" x="347.329988" xlink:href="#m694b561f23" y="384.48"/>
      </g>
     </g>
     <g id="text_6">
      <!-- $1250$ -->
      <g transform="translate(337.367317 398.398498)scale(0.1 -0.1)">
       <use transform="scale(0.996264)" xlink:href="#CMR17-49"/>
       <use transform="translate(45.690477 0)scale(0.996264)" xlink:href="#CMR17-50"/>
       <use transform="translate(91.380954 0)scale(0.996264)" xlink:href="#CMR17-53"/>
       <use transform="translate(137.071431 0)scale(0.996264)" xlink:href="#CMR17-48"/>
      </g>
     </g>
    </g>
    <g id="xtick_7">
     <g id="line2d_13">
      <path clip-path="url(#p8e059d2b17)" d="M 398.337803 384.48 
L 398.337803 51.84 
" style="fill:none;stroke:#b0b0b0;stroke-dasharray:5.12,1.28,0.8,1.28;stroke-dashoffset:0;stroke-width:0.8;"/>
     </g>
     <g id="line2d_14">
      <g>
       <use style="stroke:#000000;stroke-width:0.8;" x="398.337803" xlink:href="#m694b561f23" y="384.48"/>
      </g>
     </g>
     <g id="text_7">
      <!-- $1500$ -->
      <g transform="translate(388.375133 398.398498)scale(0.1 -0.1)">
       <use transform="scale(0.996264)" xlink:href="#CMR17-49"/>
       <use transform="translate(45.690477 0)scale(0.996264)" xlink:href="#CMR17-53"/>
       <use transform="translate(91.380954 0)scale(0.996264)" xlink:href="#CMR17-48"/>
       <use transform="translate(137.071431 0)scale(0.996264)" xlink:href="#CMR17-48"/>
      </g>
     </g>
    </g>
    <g id="xtick_8">
     <g id="line2d_15">
      <path clip-path="url(#p8e059d2b17)" d="M 449.345619 384.48 
L 449.345619 51.84 
" style="fill:none;stroke:#b0b0b0;stroke-dasharray:5.12,1.28,0.8,1.28;stroke-dashoffset:0;stroke-width:0.8;"/>
     </g>
     <g id="line2d_16">
      <g>
       <use style="stroke:#000000;stroke-width:0.8;" x="449.345619" xlink:href="#m694b561f23" y="384.48"/>
      </g>
     </g>
     <g id="text_8">
      <!-- $1750$ -->
      <g transform="translate(439.382949 398.398498)scale(0.1 -0.1)">
       <use transform="scale(0.996264)" xlink:href="#CMR17-49"/>
       <use transform="translate(45.690477 0)scale(0.996264)" xlink:href="#CMR17-55"/>
       <use transform="translate(91.380954 0)scale(0.996264)" xlink:href="#CMR17-53"/>
       <use transform="translate(137.071431 0)scale(0.996264)" xlink:href="#CMR17-48"/>
      </g>
     </g>
    </g>
    <g id="xtick_9">
     <g id="line2d_17">
      <path clip-path="url(#p8e059d2b17)" d="M 500.353435 384.48 
L 500.353435 51.84 
" style="fill:none;stroke:#b0b0b0;stroke-dasharray:5.12,1.28,0.8,1.28;stroke-dashoffset:0;stroke-width:0.8;"/>
     </g>
     <g id="line2d_18">
      <g>
       <use style="stroke:#000000;stroke-width:0.8;" x="500.353435" xlink:href="#m694b561f23" y="384.48"/>
      </g>
     </g>
     <g id="text_9">
      <!-- $2000$ -->
      <g transform="translate(490.390764 398.398498)scale(0.1 -0.1)">
       <use transform="scale(0.996264)" xlink:href="#CMR17-50"/>
       <use transform="translate(45.690477 0)scale(0.996264)" xlink:href="#CMR17-48"/>
       <use transform="translate(91.380954 0)scale(0.996264)" xlink:href="#CMR17-48"/>
       <use transform="translate(137.071431 0)scale(0.996264)" xlink:href="#CMR17-48"/>
      </g>
     </g>
    </g>
    <g id="text_10">
     <!-- Iteration -->
     <defs>
      <path d="M 17.09375 69 
L 8.703125 69 
L 8.703125 0 
L 17.09375 0 
z
" id="CMSS17-73"/>
      <path d="M 16.703125 37 
L 29.703125 37 
L 29.703125 42.765625 
L 16.703125 42.765625 
L 16.703125 55 
L 9.59375 55 
L 9.59375 42.765625 
L 1.703125 42.765625 
L 1.703125 37 
L 9.40625 37 
L 9.40625 11.703125 
C 9.40625 6 10.703125 -1 17.296875 -1 
C 22.296875 -1 26.90625 0.390625 31.296875 2.6875 
L 29.703125 8.5625 
C 27.296875 6.46875 24.40625 5.265625 21.296875 5.265625 
C 16.90625 5.265625 16.703125 10.875 16.703125 13.375 
z
" id="CMSS17-116"/>
      <path d="M 39.09375 21.515625 
C 39.09375 24.84375 38.90625 31.296875 35.703125 36.640625 
C 32.203125 42.390625 26.5 44 22.203125 44 
C 11.796875 44 3 34.1875 3 21.484375 
C 3 9.09375 12.09375 -1 23.59375 -1 
C 28.09375 -1 33.59375 0.296875 38.59375 3.875 
C 38.59375 4.28125 38.40625 6.46875 38.296875 6.5625 
C 38.296875 6.765625 38 9.84375 38 10.25 
C 33.203125 6.359375 27.703125 5.078125 23.703125 5.078125 
C 17.296875 5.078125 10.40625 10.421875 10.09375 21.515625 
z
M 10.90625 27 
C 12.203125 32.5625 16.59375 37.828125 22.203125 37.828125 
C 23.703125 37.828125 30.703125 37.828125 32.5 27 
z
" id="CMSS17-101"/>
      <path d="M 14.90625 21.296875 
C 14.90625 30.703125 21.796875 37 30.59375 37 
L 30.59375 43.578125 
C 24.203125 43.578125 18.203125 40.390625 14.59375 35.203125 
L 14.59375 43.09375 
L 7.5 43.09375 
L 7.5 0 
L 14.90625 0 
z
" id="CMSS17-114"/>
      <path d="M 37.59375 27.984375 
C 37.59375 37.375 30.90625 43.875 21.90625 43.875 
C 17.5 43.875 12.703125 43.078125 7.203125 39.890625 
L 7.796875 33.359375 
C 10.296875 35.125 14.59375 38 21.796875 38 
C 26.90625 38 30 34.0625 30 27.84375 
L 30 24 
C 14 24 4 19.34375 4 11.34375 
C 4 7.203125 6.5 -1 14.796875 -1 
C 16.296875 -1 24.40625 -1 30.203125 3.390625 
L 30.203125 -0.296875 
L 37.59375 -0.296875 
z
M 30 12.75 
C 30 10.953125 30 8.5625 27 6.78125 
C 24.40625 5.078125 21.09375 5.078125 19.703125 5.078125 
C 14.703125 5.078125 11.296875 7.984375 11.296875 11.625 
C 11.296875 18.921875 26.90625 18.921875 30 18.921875 
z
" id="CMSS17-97"/>
      <path d="M 15.296875 65.359375 
L 6.90625 65.359375 
L 6.90625 57 
L 15.296875 57 
z
M 14.796875 42.796875 
L 7.40625 42.796875 
L 7.40625 0 
L 14.796875 0 
z
" id="CMSS17-105"/>
      <path d="M 44.203125 21.1875 
C 44.203125 34 34.703125 44 23.5 44 
C 12 44 2.703125 33.703125 2.703125 21.1875 
C 2.703125 8.5 12.296875 -1 23.40625 -1 
C 34.796875 -1 44.203125 8.796875 44.203125 21.1875 
z
M 23.5 5.265625 
C 16.40625 5.265625 10.296875 11.078125 10.296875 22 
C 10.296875 33.609375 17.40625 37.921875 23.40625 37.921875 
C 29.90625 37.921875 36.59375 33.21875 36.59375 22 
C 36.59375 10.671875 30.09375 5.265625 23.5 5.265625 
z
" id="CMSS17-111"/>
      <path d="M 40.90625 29.328125 
C 40.90625 35.671875 39.40625 44 28.09375 44 
C 21.703125 44 17.5 40.71875 14.703125 37.328125 
L 14.703125 43.09375 
L 7.40625 43.09375 
L 7.40625 0 
L 15 0 
L 15 24.359375 
C 15 30.6875 17.40625 37.9375 24.203125 37.9375 
C 33 37.9375 33.296875 32 33.296875 28.578125 
L 33.296875 0 
L 40.90625 0 
z
" id="CMSS17-110"/>
     </defs>
     <g transform="translate(271.264003 414.021553)scale(0.14 -0.14)">
      <use transform="scale(0.996264)" xlink:href="#CMSS17-73"/>
      <use transform="translate(25.783926 0)scale(0.996264)" xlink:href="#CMSS17-116"/>
      <use transform="translate(59.615492 0)scale(0.996264)" xlink:href="#CMSS17-101"/>
      <use transform="translate(101.254314 0)scale(0.996264)" xlink:href="#CMSS17-114"/>
      <use transform="translate(133.164087 0)scale(0.996264)" xlink:href="#CMSS17-97"/>
      <use transform="translate(178.086007 0)scale(0.996264)" xlink:href="#CMSS17-116"/>
      <use transform="translate(211.917574 0)scale(0.996264)" xlink:href="#CMSS17-105"/>
      <use transform="translate(234.098297 0)scale(0.996264)" xlink:href="#CMSS17-111"/>
      <use transform="translate(280.941921 0)scale(0.996264)" xlink:href="#CMSS17-110"/>
     </g>
    </g>
   </g>
   <g id="matplotlib.axis_2">
    <g id="ytick_1">
     <g id="line2d_19">
      <path clip-path="url(#p8e059d2b17)" d="M 72 359.145538 
L 518.4 359.145538 
" style="fill:none;stroke:#b0b0b0;stroke-dasharray:5.12,1.28,0.8,1.28;stroke-dashoffset:0;stroke-width:0.8;"/>
     </g>
     <g id="line2d_20">
      <defs>
       <path d="M 0 0 
L -3.5 0 
" id="m205d83d26a" style="stroke:#000000;stroke-width:0.8;"/>
      </defs>
      <g>
       <use style="stroke:#000000;stroke-width:0.8;" x="72" xlink:href="#m205d83d26a" y="359.145538"/>
      </g>
     </g>
     <g id="text_11">
      <!-- $-50$ -->
      <defs>
       <path d="M 65.90625 23 
C 67.59375 23 69.40625 23 69.40625 25 
C 69.40625 27 67.59375 27 65.90625 27 
L 11.796875 27 
C 10.09375 27 8.296875 27 8.296875 25 
C 8.296875 23 10.09375 23 11.796875 23 
z
" id="CMSY10-0"/>
      </defs>
      <g transform="translate(47.288586 362.604788)scale(0.1 -0.1)">
       <use transform="scale(0.996264)" xlink:href="#CMSY10-0"/>
       <use transform="translate(77.487468 0)scale(0.996264)" xlink:href="#CMR17-53"/>
       <use transform="translate(123.177945 0)scale(0.996264)" xlink:href="#CMR17-48"/>
      </g>
     </g>
    </g>
    <g id="ytick_2">
     <g id="line2d_21">
      <path clip-path="url(#p8e059d2b17)" d="M 72 301.312554 
L 518.4 301.312554 
" style="fill:none;stroke:#b0b0b0;stroke-dasharray:5.12,1.28,0.8,1.28;stroke-dashoffset:0;stroke-width:0.8;"/>
     </g>
     <g id="line2d_22">
      <g>
       <use style="stroke:#000000;stroke-width:0.8;" x="72" xlink:href="#m205d83d26a" y="301.312554"/>
      </g>
     </g>
     <g id="text_12">
      <!-- $-40$ -->
      <defs>
       <path d="M 33.59375 64.40625 
C 33.59375 66.5 33.5 66.5 31.703125 66.5 
L 2 19.59375 
L 2 17 
L 27.796875 17 
L 27.796875 7.140625 
C 27.796875 3.5 27.59375 2.5 20.59375 2.5 
L 18.703125 2.5 
L 18.703125 0 
C 21.90625 0 27.296875 0 30.703125 0 
C 34.09375 0 39.5 0 42.703125 0 
L 42.703125 2.5 
L 40.796875 2.5 
C 33.796875 2.5 33.59375 3.5 33.59375 7.140625 
L 33.59375 17 
L 43.796875 17 
L 43.796875 19.59375 
L 33.59375 19.59375 
z
M 28.09375 57.859375 
L 28.09375 19.59375 
L 4 19.59375 
z
" id="CMR17-52"/>
      </defs>
      <g transform="translate(47.288586 304.771803)scale(0.1 -0.1)">
       <use transform="scale(0.996264)" xlink:href="#CMSY10-0"/>
       <use transform="translate(77.487468 0)scale(0.996264)" xlink:href="#CMR17-52"/>
       <use transform="translate(123.177945 0)scale(0.996264)" xlink:href="#CMR17-48"/>
      </g>
     </g>
    </g>
    <g id="ytick_3">
     <g id="line2d_23">
      <path clip-path="url(#p8e059d2b17)" d="M 72 243.47957 
L 518.4 243.47957 
" style="fill:none;stroke:#b0b0b0;stroke-dasharray:5.12,1.28,0.8,1.28;stroke-dashoffset:0;stroke-width:0.8;"/>
     </g>
     <g id="line2d_24">
      <g>
       <use style="stroke:#000000;stroke-width:0.8;" x="72" xlink:href="#m205d83d26a" y="243.47957"/>
      </g>
     </g>
     <g id="text_13">
      <!-- $-30$ -->
      <defs>
       <path d="M 22.09375 33.703125 
C 31 33.703125 34.90625 25.96875 34.90625 17.03125 
C 34.90625 5 28.5 0.390625 22.703125 0.390625 
C 17.40625 0.390625 8.796875 3.03125 6.09375 10.828125 
C 6.59375 10.625 7.09375 10.625 7.59375 10.625 
C 10 10.625 11.796875 12.21875 11.796875 14.8125 
C 11.796875 17.703125 9.59375 19 7.59375 19 
C 5.90625 19 3.296875 18.203125 3.296875 14.46875 
C 3.296875 5.234375 12.296875 -2 22.90625 -2 
C 34 -2 42.5 6.71875 42.5 16.953125 
C 42.5 26.671875 34.5 33.703125 25 34.796875 
C 32.59375 36.375 39.90625 43.0625 39.90625 52.015625 
C 39.90625 59.6875 32 65.296875 23 65.296875 
C 13.90625 65.296875 5.90625 59.828125 5.90625 52.015625 
C 5.90625 48.59375 8.5 48 9.796875 48 
C 11.90625 48 13.703125 49.296875 13.703125 51.890625 
C 13.703125 54.46875 11.90625 55.765625 9.796875 55.765625 
C 9.40625 55.765625 8.90625 55.765625 8.5 55.578125 
C 11.40625 61.859375 19.296875 63 22.796875 63 
C 26.296875 63 32.90625 61.328125 32.90625 51.875 
C 32.90625 49.109375 32.5 44.1875 29.09375 39.84375 
C 26.09375 36 22.703125 36 19.40625 35.6875 
C 18.90625 35.6875 16.59375 35.453125 16.203125 35.453125 
C 15.5 35.359375 15.09375 35.265625 15.09375 34.5 
C 15.09375 33.796875 15.203125 33.703125 17.203125 33.703125 
z
" id="CMR17-51"/>
      </defs>
      <g transform="translate(47.288586 246.938819)scale(0.1 -0.1)">
       <use transform="scale(0.996264)" xlink:href="#CMSY10-0"/>
       <use transform="translate(77.487468 0)scale(0.996264)" xlink:href="#CMR17-51"/>
       <use transform="translate(123.177945 0)scale(0.996264)" xlink:href="#CMR17-48"/>
      </g>
     </g>
    </g>
    <g id="ytick_4">
     <g id="line2d_25">
      <path clip-path="url(#p8e059d2b17)" d="M 72 185.646585 
L 518.4 185.646585 
" style="fill:none;stroke:#b0b0b0;stroke-dasharray:5.12,1.28,0.8,1.28;stroke-dashoffset:0;stroke-width:0.8;"/>
     </g>
     <g id="line2d_26">
      <g>
       <use style="stroke:#000000;stroke-width:0.8;" x="72" xlink:href="#m205d83d26a" y="185.646585"/>
      </g>
     </g>
     <g id="text_14">
      <!-- $-20$ -->
      <g transform="translate(47.288586 189.105835)scale(0.1 -0.1)">
       <use transform="scale(0.996264)" xlink:href="#CMSY10-0"/>
       <use transform="translate(77.487468 0)scale(0.996264)" xlink:href="#CMR17-50"/>
       <use transform="translate(123.177945 0)scale(0.996264)" xlink:href="#CMR17-48"/>
      </g>
     </g>
    </g>
    <g id="ytick_5">
     <g id="line2d_27">
      <path clip-path="url(#p8e059d2b17)" d="M 72 127.813601 
L 518.4 127.813601 
" style="fill:none;stroke:#b0b0b0;stroke-dasharray:5.12,1.28,0.8,1.28;stroke-dashoffset:0;stroke-width:0.8;"/>
     </g>
     <g id="line2d_28">
      <g>
       <use style="stroke:#000000;stroke-width:0.8;" x="72" xlink:href="#m205d83d26a" y="127.813601"/>
      </g>
     </g>
     <g id="text_15">
      <!-- $-10$ -->
      <g transform="translate(47.288586 131.27285)scale(0.1 -0.1)">
       <use transform="scale(0.996264)" xlink:href="#CMSY10-0"/>
       <use transform="translate(77.487468 0)scale(0.996264)" xlink:href="#CMR17-49"/>
       <use transform="translate(123.177945 0)scale(0.996264)" xlink:href="#CMR17-48"/>
      </g>
     </g>
    </g>
    <g id="ytick_6">
     <g id="line2d_29">
      <path clip-path="url(#p8e059d2b17)" d="M 72 69.980617 
L 518.4 69.980617 
" style="fill:none;stroke:#b0b0b0;stroke-dasharray:5.12,1.28,0.8,1.28;stroke-dashoffset:0;stroke-width:0.8;"/>
     </g>
     <g id="line2d_30">
      <g>
       <use style="stroke:#000000;stroke-width:0.8;" x="72" xlink:href="#m205d83d26a" y="69.980617"/>
      </g>
     </g>
     <g id="text_16">
      <!-- $0$ -->
      <g transform="translate(60.018665 73.439866)scale(0.1 -0.1)">
       <use transform="scale(0.996264)" xlink:href="#CMR17-48"/>
      </g>
     </g>
    </g>
    <g id="text_17">
     <!-- $\partial \mathcal{L}/ \partial \mu^{\overline{U}}_{m}$ -->
     <defs>
      <path d="M 45.40625 33.515625 
C 44.796875 39.125 41.296875 45.859375 32.296875 45.859375 
C 18.203125 45.859375 3.796875 31.515625 3.796875 15.5625 
C 3.796875 9.4375 8 -2.09375 21.59375 -2.09375 
C 45.203125 -2.09375 55.296875 32.296875 55.296875 46 
C 55.296875 60.40625 47.203125 71.5 34.40625 71.5 
C 19.90625 71.5 15.59375 58.796875 15.59375 56.09375 
C 15.59375 55.203125 16.203125 53 19 53 
C 22.5 53 24 56.203125 24 57.90625 
C 24 61 20.90625 61 19.59375 61 
C 23.703125 68.40625 31.296875 69.09375 34 69.09375 
C 42.796875 69.09375 48.40625 62.109375 48.40625 50.96875 
C 48.40625 44.578125 46.5 37.1875 45.5 33.515625 
z
M 21.90625 0.59375 
C 12.5 0.59375 10.90625 8.03125 10.90625 12.25 
C 10.90625 16.65625 13.703125 27 15.203125 30.703125 
C 16.5 33.71875 22.203125 43.859375 32.59375 43.859375 
C 41.703125 43.859375 43.796875 35.921875 43.796875 30.515625 
C 43.796875 23.078125 37.296875 0.59375 21.90625 0.59375 
z
" id="CMMI12-64"/>
      <path d="M 18 9.53125 
C 23.40625 17.984375 25.09375 24.40625 26.40625 29.734375 
C 29.90625 43.59375 33.703125 55.65625 39.90625 62.578125 
C 41.09375 63.90625 41.90625 64.796875 45.09375 64.796875 
C 52 64.796875 52.203125 57.875 52.203125 56.453125 
C 52.203125 54.65625 51.703125 53.234375 51.703125 52.734375 
C 51.703125 52.03125 52.296875 52.03125 52.40625 52.03125 
C 54 52.03125 56.703125 53.140625 59.203125 54.953125 
C 61 56.359375 61.90625 57.359375 61.90625 61.46875 
C 61.90625 66.890625 59.09375 71 53.5 71 
C 50.296875 71 41.5 70.203125 31.703125 60.25 
C 23.703125 52.015625 19 33.9375 17.09375 26.40625 
C 15.296875 19.5 14.5 16.375 11.5 10.34375 
C 10.796875 9.15625 8.203125 4.734375 6.796875 3.421875 
C 4.09375 0.921875 3.09375 -0.890625 3.09375 -1.390625 
C 3.09375 -1.59375 3.296875 -2 4 -2 
C 4.40625 -2 6.5 -1.59375 9.09375 0.078125 
C 10.796875 1.0625 11 1.25 13.296875 3.609375 
C 18.296875 3.609375 21.796875 2.703125 28.09375 0.90625 
C 33.203125 -0.5 38.296875 -2 43.40625 -2 
C 51.5 -2 59.703125 4.125 62.90625 8.53125 
C 64.90625 11.234375 65.5 13.75 65.5 14.046875 
C 65.5 14.75 64.90625 14.75 64.796875 14.75 
C 63.203125 14.75 60.796875 13.65625 59.09375 12.4375 
C 56.40625 10.734375 56.203125 10.140625 55.59375 8.421875 
C 55.09375 6.8125 54.5 6.015625 54.09375 5.40625 
C 53.296875 4.203125 53.203125 4.203125 51.703125 4.203125 
C 46.90625 4.203125 41.90625 5.71875 35.296875 7.515625 
C 32.5 8.3125 27 9.9375 22 9.9375 
C 20.703125 9.9375 19.296875 9.828125 18 9.53125 
z
" id="CMSY10-76"/>
      <path d="M 42.90625 71.28125 
C 42.90625 71.390625 43.5 72.90625 43.5 73.09375 
C 43.5 74.296875 42.5 75 41.703125 75 
C 41.203125 75 40.296875 75 39.5 72.796875 
L 6 -21.296875 
C 6 -21.40625 5.40625 -22.890625 5.40625 -23.09375 
C 5.40625 -24.296875 6.40625 -25 7.203125 -25 
C 7.796875 -25 8.703125 -24.890625 9.40625 -22.796875 
z
" id="CMMI12-61"/>
      <path d="M 14.40625 2.1875 
C 16.90625 -0.09375 20.59375 -1 24 -1 
C 30.40625 -1 34.796875 3.25 37.09375 6.328125 
C 38.09375 1.078125 42.296875 -1 45.796875 -1 
C 48.796875 -1 51.203125 0.78125 53 4.328125 
C 54.59375 7.703125 56 13.734375 56 14.109375 
C 56 14.609375 55.59375 15 55 15 
C 54.09375 15 54 14.5 53.59375 13.03125 
C 52.09375 7.203125 50.203125 1 46.09375 1 
C 43.203125 1 43 3.578125 43 5.59375 
C 43 7.875 43.90625 11.484375 44.59375 14.46875 
L 47.40625 25.234375 
C 47.796875 27.140625 48.90625 31.609375 49.40625 33.421875 
C 50 35.8125 51.09375 40.109375 51.09375 40.5 
C 51.09375 42 49.90625 43 48.40625 43 
C 47.5 43 45.40625 42.59375 44.59375 39.609375 
L 37.59375 11.875 
C 37.09375 9.875 37.09375 9.671875 35.796875 8.078125 
C 34.59375 6.390625 30.703125 1 24.40625 1 
C 18.796875 1 17 5.09375 17 9.765625 
C 17 12.671875 17.90625 16.15625 18.296875 17.859375 
L 22.796875 35.828125 
C 23.296875 37.71875 24.09375 40.90625 24.09375 41.515625 
C 24.09375 43.109375 22.796875 44 21.5 44 
C 20.59375 44 18.40625 43.703125 17.59375 40.5 
L 3.09375 -17.296875 
C 3 -17.796875 2.796875 -18.390625 2.796875 -19 
C 2.796875 -20.5 4 -21.5 5.5 -21.5 
C 8.40625 -21.5 9 -19.1875 9.703125 -16.40625 
z
" id="CMMI12-22"/>
      <path d="M 50.59375 23.03125 
C 47.09375 9.078125 35.5 0.890625 26.09375 0.890625 
C 18.90625 0.890625 14 5.671875 14 13.921875 
C 14 14.3125 14 17.296875 15.09375 21.671875 
L 24.90625 60.734375 
C 25.796875 64.109375 26 65.109375 33.09375 65.109375 
C 34.90625 65.109375 35.90625 65.109375 35.90625 66.90625 
C 35.90625 68 35 68 34.40625 68 
C 32.59375 68 30.5 68 28.59375 68 
L 16.796875 68 
C 14.90625 68 12.796875 68 10.90625 68 
C 10.203125 68 9 68 9 66.109375 
C 9 65.109375 9.703125 65.109375 11.59375 65.109375 
C 17.59375 65.109375 17.59375 64.3125 17.59375 63.21875 
C 17.59375 62.625 16.90625 59.75 16.40625 58.046875 
L 7.703125 23.25 
C 7.40625 22.15625 6.796875 19.46875 6.796875 16.796875 
C 6.796875 5.84375 14.703125 -2 25.59375 -2 
C 35.703125 -2 46.90625 6 52 18.703125 
C 52.703125 20.390625 53.59375 23.90625 54.203125 26.59375 
C 55.203125 30.203125 57.296875 39 58 41.59375 
L 61.796875 56.609375 
C 63.09375 61.8125 63.90625 65.109375 72.703125 65.109375 
C 73.5 65.203125 73.90625 66 73.90625 66.90625 
C 73.90625 68 73 68 72.59375 68 
C 71.203125 68 69.40625 68 68 68 
L 63.296875 68 
C 57.09375 68 53.90625 68 53.796875 68 
C 53.203125 68 52 68 52 66.109375 
C 52 65.109375 52.796875 65.109375 53.5 65.109375 
C 59.5 65.109375 59.90625 62.8125 59.90625 61.015625 
C 59.90625 60.125 59.90625 59.8125 59.5 58.421875 
z
" id="CMMI12-85"/>
      <path d="M 20.59375 29.234375 
C 20.796875 29.84375 23.296875 34.828125 27 38.015625 
C 29.59375 40.40625 33 42.015625 36.90625 42.015625 
C 40.90625 42.015625 42.296875 39.015625 42.296875 35.03125 
C 42.296875 34.421875 42.296875 32.4375 41.09375 27.734375 
L 38.59375 17.46875 
C 37.796875 14.46875 35.90625 7.078125 35.703125 5.984375 
C 35.296875 4.484375 34.703125 1.890625 34.703125 1.5 
C 34.703125 0.09375 35.796875 -1 37.296875 -1 
C 40.296875 -1 40.796875 1.296875 41.703125 4.890625 
L 47.703125 28.734375 
C 47.90625 29.53125 53.09375 42.015625 64.09375 42.015625 
C 68.09375 42.015625 69.5 39.015625 69.5 35.03125 
C 69.5 29.4375 65.59375 18.5625 63.40625 12.578125 
C 62.5 10.171875 62 8.875 62 7.078125 
C 62 2.59375 65.09375 -1 69.90625 -1 
C 79.203125 -1 82.703125 13.671875 82.703125 14.265625 
C 82.703125 14.765625 82.296875 15.171875 81.703125 15.171875 
C 80.796875 15.171875 80.703125 14.875 80.203125 13.171875 
C 77.90625 5.1875 74.203125 1 70.203125 1 
C 69.203125 1 67.59375 1 67.59375 4.203125 
C 67.59375 6.8125 68.796875 10 69.203125 11.09375 
C 71 15.90625 75.5 27.703125 75.5 33.515625 
C 75.5 39.5 72 44 64.40625 44 
C 57.703125 44 52.296875 40.21875 48.296875 34.328125 
C 48 39.71875 44.703125 44 37.203125 44 
C 28.296875 44 23.59375 37.734375 21.796875 35.234375 
C 21.5 40.90625 17.40625 44 13 44 
C 10.09375 44 7.796875 42.609375 5.90625 38.8125 
C 4.09375 35.21875 2.703125 29.140625 2.703125 28.734375 
C 2.703125 28.34375 3.09375 27.84375 3.796875 27.84375 
C 4.59375 27.84375 4.703125 27.9375 5.296875 30.234375 
C 6.796875 36.125 8.703125 42.015625 12.703125 42.015625 
C 15 42.015625 15.796875 40.40625 15.796875 37.421875 
C 15.796875 35.21875 14.796875 31.328125 14.09375 28.234375 
L 11.296875 17.46875 
C 10.90625 15.5625 9.796875 11.078125 9.296875 9.28125 
C 8.59375 6.6875 7.5 2 7.5 1.5 
C 7.5 0.09375 8.59375 -1 10.09375 -1 
C 11.296875 -1 12.703125 -0.40625 13.5 1.09375 
C 13.703125 1.59375 14.59375 5.09375 15.09375 7.078125 
L 17.296875 16.0625 
z
" id="CMMI12-109"/>
     </defs>
     <g transform="translate(40.576557 242.881062)rotate(-90)scale(0.14 -0.14)">
      <use transform="translate(0 24.62935)scale(0.996264)" xlink:href="#CMMI12-64"/>
      <use transform="translate(56.915564 24.62935)scale(0.996264)" xlink:href="#CMSY10-76"/>
      <use transform="translate(125.630372 24.62935)scale(0.996264)" xlink:href="#CMMI12-61"/>
      <use transform="translate(174.405291 24.62935)scale(0.996264)" xlink:href="#CMMI12-64"/>
      <use transform="translate(231.320856 24.62935)scale(0.996264)" xlink:href="#CMMI12-22"/>
      <use transform="translate(290.012277 60.782989)scale(0.697382)" xlink:href="#CMMI12-85"/>
      <use transform="translate(290.012277 0)scale(0.697382)" xlink:href="#CMMI12-109"/>
      <path d="M 290.012277 116.805753 
L 344.171317 116.805753 
L 344.171317 119.595204 
L 290.012277 119.595204 
L 290.012277 116.805753 
z
"/>
     </g>
    </g>
   </g>
   <g id="line2d_31">
    <path clip-path="url(#p8e059d2b17)" d="M 92.290909 69.980617 
L 92.49494 214.563078 
L 92.698972 214.563078 
L 92.903003 217.144742 
L 93.515097 230.962199 
L 96.575566 310.757259 
L 98.003784 347.850178 
L 98.411847 353.08869 
L 98.81991 355.751899 
L 99.227972 357.00861 
L 99.636035 357.49672 
L 100.044097 357.567854 
L 100.656191 357.287943 
L 101.676347 356.441846 
L 105.552941 353.015242 
L 108.205348 351.025787 
L 110.857754 349.304678 
L 113.714192 347.710222 
L 116.774661 346.256301 
L 117.590786 345.907568 
L 118.202879 309.46527 
L 118.610942 296.046861 
L 119.223036 282.599535 
L 120.039161 269.88958 
L 120.855286 260.576157 
L 121.46738 255.452732 
L 122.079473 251.94921 
L 122.487536 250.553122 
L 122.895599 249.932574 
L 123.09963 249.917538 
L 123.303661 250.099133 
L 123.711724 251.049907 
L 124.119786 252.769282 
L 130.444755 287.476591 
L 130.852818 288.437775 
L 131.26088 289.012057 
L 131.872974 289.447539 
L 132.485068 289.600218 
L 133.505224 289.574772 
L 135.749568 289.184977 
L 141.258412 288.216275 
L 146.971288 287.463868 
L 153.296257 286.858356 
L 161.253476 286.336124 
L 170.434883 285.952692 
L 173.087289 285.795964 
L 173.699383 285.581982 
L 174.311477 285.175995 
L 175.127602 284.341465 
L 176.147758 282.94422 
L 178.188071 280.025967 
L 179.004196 279.282235 
L 179.61629 279.037023 
L 180.024352 279.054373 
L 180.432415 279.232499 
L 181.452571 279.888325 
L 182.472727 280.296048 
L 183.900946 280.606611 
L 185.329165 280.681215 
L 186.757384 280.538368 
L 188.185603 280.183273 
L 189.613821 279.618823 
L 191.246072 278.717785 
L 192.878322 277.546089 
L 194.510572 276.105469 
L 196.346853 274.166908 
L 198.183135 271.894072 
L 200.223447 268.981602 
L 202.26376 265.666616 
L 204.508104 261.562787 
L 206.752448 256.98762 
L 209.200823 251.470353 
L 211.649198 245.415818 
L 214.301604 238.265926 
L 217.158042 229.89865 
L 220.218511 220.191384 
L 223.27898 209.744433 
L 226.54348 197.821007 
L 230.012012 184.310643 
L 233.684574 169.110979 
L 237.561168 152.128901 
L 241.845825 132.315321 
L 246.334513 110.474694 
L 251.231263 85.498363 
L 254.495763 68.531322 
L 254.903826 67.979017 
L 255.719951 67.468352 
L 256.740107 67.119041 
L 257.964295 66.964627 
L 259.392513 67.027086 
L 261.228795 67.347481 
L 263.881201 68.052465 
L 271.226327 70.294072 
L 272.042452 70.939488 
L 273.470671 72.451242 
L 275.306952 74.399057 
L 276.327108 75.161296 
L 277.143233 75.486895 
L 277.755327 75.529692 
L 278.367421 75.382796 
L 278.979515 75.039846 
L 280.407733 73.8161 
L 282.039984 72.221067 
L 284.488359 69.583304 
L 285.916578 69.343297 
L 288.364953 69.196402 
L 291.833484 69.243246 
L 298.362485 69.612221 
L 306.319704 70.216575 
L 311.012423 71.05284 
L 312.440642 71.032599 
L 313.868861 70.80358 
L 315.501111 70.313156 
L 317.133361 69.827938 
L 320.601892 69.699548 
L 326.518799 69.72326 
L 341.413081 70.08009 
L 346.513863 70.34323 
L 349.166269 70.210792 
L 353.450926 69.902542 
L 363.040395 69.904856 
L 390.380584 69.948809 
L 498.109091 69.97946 
L 498.109091 69.97946 
" style="fill:none;stroke:#bf00bf;stroke-linecap:square;stroke-width:1.5;"/>
   </g>
   <g id="line2d_32">
    <path clip-path="url(#p8e059d2b17)" d="M 92.290909 69.980617 
L 92.49494 214.563078 
L 92.903003 232.689091 
L 93.719128 255.605412 
L 98.003784 366.10169 
L 98.411847 367.941357 
L 98.81991 368.855118 
L 99.227972 369.248961 
L 99.636035 369.36 
L 100.248128 369.263997 
L 101.472316 368.7435 
L 106.165035 366.592113 
L 109.633566 365.301859 
L 113.306129 364.175851 
L 117.386754 363.160882 
L 117.794817 363.071241 
L 117.998848 360.393574 
L 118.610942 356.287432 
L 119.427067 347.555808 
L 120.651255 334.595436 
L 121.46738 328.041224 
L 122.079473 324.741274 
L 122.487536 323.425574 
L 122.895599 322.865172 
L 123.09963 322.875004 
L 123.303661 323.081468 
L 123.711724 324.079665 
L 124.119786 325.849354 
L 129.62863 356.967548 
L 130.240724 360.397044 
L 130.444755 360.822695 
L 131.464912 361.207284 
L 132.485068 361.254129 
L 134.933443 361.0494 
L 142.278568 360.405719 
L 150.847882 359.909512 
L 161.457507 359.538803 
L 172.679227 359.16578 
L 173.29132 358.947171 
L 173.903414 358.447494 
L 174.719539 357.385681 
L 175.739696 355.577822 
L 178.392102 350.460181 
L 179.208227 349.477598 
L 179.820321 349.117299 
L 180.228383 349.088961 
L 183.084821 349.74363 
L 184.51304 349.81303 
L 185.941259 349.667291 
L 187.369478 349.304099 
L 188.797696 348.724613 
L 190.429947 347.796972 
L 192.062197 346.589419 
L 193.694447 345.10369 
L 195.530728 343.10209 
L 197.367009 340.754649 
L 199.407322 337.745021 
L 201.447635 334.318995 
L 203.487947 330.482933 
L 205.732291 325.797883 
L 208.180666 320.14066 
L 210.629042 313.927663 
L 213.281448 306.584609 
L 216.137886 297.986579 
L 219.198355 288.006341 
L 222.258824 277.262129 
L 225.523324 264.996332 
L 228.991855 251.096174 
L 232.664418 235.457556 
L 236.541012 217.984477 
L 240.825668 197.601242 
L 245.314356 175.137175 
L 250.211107 149.455282 
L 254.903826 124.64204 
L 255.719951 122.227513 
L 256.536076 120.604141 
L 257.352201 119.567196 
L 257.964295 119.091809 
L 258.576388 118.826934 
L 259.392513 118.743654 
L 260.208638 118.9079 
L 261.228795 119.382709 
L 262.452982 120.246733 
L 264.085232 121.733619 
L 266.329576 124.123278 
L 272.042452 130.650309 
L 273.878733 133.394484 
L 275.510983 135.689297 
L 276.531139 136.723351 
L 277.347265 137.199316 
L 277.959358 137.310355 
L 278.571452 137.191798 
L 279.183546 136.834968 
L 279.79564 136.241602 
L 284.896421 130.328758 
L 285.916578 129.626087 
L 287.140765 129.0813 
L 288.568984 128.728519 
L 290.201234 128.581045 
L 292.241547 128.653336 
L 294.689922 128.975466 
L 298.158453 129.667727 
L 307.135829 131.790197 
L 310.196298 132.610269 
L 311.624517 132.775093 
L 313.052735 132.704537 
L 314.480954 132.382985 
L 316.113204 131.762437 
L 317.541423 131.239049 
L 319.377705 130.860243 
L 321.622049 130.634694 
L 324.682517 130.568186 
L 328.967174 130.725492 
L 337.128425 131.321172 
L 347.942081 132.009384 
L 350.390457 131.771691 
L 353.654957 131.426428 
L 357.735582 131.304978 
L 364.672645 131.372643 
L 385.687865 131.679158 
L 390.380584 131.560022 
L 400.786179 131.579685 
L 422.00543 131.651976 
L 436.287618 131.640988 
L 486.887371 131.673374 
L 498.109091 131.6647 
L 498.109091 131.6647 
" style="fill:none;stroke:#00bfbf;stroke-linecap:square;stroke-width:1.5;"/>
   </g>
   <g id="line2d_33">
    <path clip-path="url(#p8e059d2b17)" d="M 92.290909 69.980617 
L 92.49494 214.563078 
L 92.698972 214.563078 
L 92.903003 217.144742 
L 93.515097 230.962199 
L 96.575566 310.757259 
L 98.003784 347.850178 
L 98.411847 353.08869 
L 98.81991 355.751899 
L 99.227972 357.00861 
L 99.636035 357.49672 
L 100.044097 357.567854 
L 100.656191 357.287943 
L 101.676347 356.441846 
L 105.552941 353.015242 
L 108.205348 351.025787 
L 110.857754 349.304678 
L 113.714192 347.710222 
L 116.774661 346.256301 
L 117.998848 345.738696 
L 118.610942 344.276678 
L 119.019005 342.074398 
L 119.83513 335.669395 
L 121.263348 323.802645 
L 121.875442 320.184613 
L 122.283505 318.560085 
L 122.691567 317.646902 
L 122.895599 317.471668 
L 123.09963 317.489018 
L 123.303661 317.700687 
L 123.711724 318.711607 
L 124.119786 320.496912 
L 130.444755 356.349314 
L 130.852818 357.320329 
L 131.26088 357.872634 
L 131.872974 358.260694 
L 132.485068 358.371733 
L 133.505224 358.305225 
L 136.565693 357.747137 
L 141.666475 356.914342 
L 147.37935 356.213984 
L 153.90835 355.635654 
L 162.069601 355.145231 
L 171.863102 354.618951 
L 172.475195 353.824904 
L 173.29132 352.253003 
L 174.107445 350.142099 
L 175.127602 346.882054 
L 178.596133 335.048269 
L 179.412258 333.330051 
L 180.024352 332.584005 
L 180.432415 332.379855 
L 183.288852 332.182066 
L 184.921102 331.771452 
L 186.349321 331.191965 
L 187.981571 330.270686 
L 189.613821 329.071808 
L 191.246072 327.597645 
L 193.082353 325.611661 
L 194.918634 323.282726 
L 196.754916 320.614891 
L 198.795228 317.257686 
L 200.835541 313.493337 
L 203.079885 308.889253 
L 205.52826 303.324564 
L 207.976635 297.206412 
L 210.629042 289.969771 
L 213.485479 281.489142 
L 216.545948 271.637871 
L 219.606417 261.025519 
L 222.870917 248.902569 
L 226.339449 235.156247 
L 230.012012 219.681297 
L 233.888606 202.383451 
L 238.173262 182.1928 
L 242.66195 159.929992 
L 247.5587 134.465551 
L 252.659482 106.769335 
L 255.107857 93.807806 
L 255.923982 91.03645 
L 256.740107 89.098466 
L 257.352201 88.114727 
L 257.964295 87.47336 
L 258.576388 87.126362 
L 259.188482 87.032672 
L 259.800576 87.157013 
L 260.616701 87.609267 
L 261.432826 88.335649 
L 262.452982 89.55419 
L 263.67717 91.371881 
L 265.30942 94.223625 
L 267.757795 99.03533 
L 272.450514 108.828189 
L 275.510983 115.627613 
L 276.531139 117.283371 
L 277.347265 118.160119 
L 277.959358 118.505961 
L 278.571452 118.558589 
L 279.183546 118.308172 
L 279.79564 117.754132 
L 281.835952 115.08167 
L 285.712546 110.086056 
L 286.732703 109.302419 
L 287.95689 108.6651 
L 289.181078 108.288029 
L 290.609297 108.10065 
L 292.241547 108.139398 
L 294.077828 108.425093 
L 296.322172 109.021351 
L 299.17861 110.031693 
L 305.70761 112.685649 
L 310.400329 114.629994 
L 311.624517 114.871158 
L 312.848704 114.891977 
L 314.072892 114.675104 
L 315.297079 114.2402 
L 319.173673 112.624346 
L 321.009955 112.240913 
L 323.254299 112.007268 
L 325.906705 111.96158 
L 329.171205 112.136814 
L 333.251831 112.575766 
L 342.8413 113.908817 
L 345.901769 114.259863 
L 347.942081 114.280683 
L 349.982394 114.087521 
L 355.083176 113.447309 
L 358.755738 113.316029 
L 364.264582 113.379067 
L 374.466146 113.807031 
L 382.831427 114.085207 
L 386.912053 113.90766 
L 392.216865 113.772909 
L 400.99021 113.807031 
L 422.821555 113.946408 
L 434.451337 113.923275 
L 494.436528 113.982265 
L 498.109091 113.981108 
L 498.109091 113.981108 
" style="fill:none;stroke:#ff0000;stroke-linecap:square;stroke-width:1.5;"/>
   </g>
   <g id="patch_3">
    <path d="M 72 384.48 
L 72 51.84 
" style="fill:none;stroke:#000000;stroke-linecap:square;stroke-linejoin:miter;stroke-width:0.8;"/>
   </g>
   <g id="patch_4">
    <path d="M 518.4 384.48 
L 518.4 51.84 
" style="fill:none;stroke:#000000;stroke-linecap:square;stroke-linejoin:miter;stroke-width:0.8;"/>
   </g>
   <g id="patch_5">
    <path d="M 72 384.48 
L 518.4 384.48 
" style="fill:none;stroke:#000000;stroke-linecap:square;stroke-linejoin:miter;stroke-width:0.8;"/>
   </g>
   <g id="patch_6">
    <path d="M 72 51.84 
L 518.4 51.84 
" style="fill:none;stroke:#000000;stroke-linecap:square;stroke-linejoin:miter;stroke-width:0.8;"/>
   </g>
   <g id="text_18">
    <!-- $\partial \mathcal{L}/ \partial \mu^{\overline{U}}_{m}$ -->
    <g transform="translate(270.478938 45.84)scale(0.14 -0.14)">
     <use transform="translate(0 24.62935)scale(0.996264)" xlink:href="#CMMI12-64"/>
     <use transform="translate(56.915564 24.62935)scale(0.996264)" xlink:href="#CMSY10-76"/>
     <use transform="translate(125.630372 24.62935)scale(0.996264)" xlink:href="#CMMI12-61"/>
     <use transform="translate(174.405291 24.62935)scale(0.996264)" xlink:href="#CMMI12-64"/>
     <use transform="translate(231.320856 24.62935)scale(0.996264)" xlink:href="#CMMI12-22"/>
     <use transform="translate(290.012277 60.782989)scale(0.697382)" xlink:href="#CMMI12-85"/>
     <use transform="translate(290.012277 0)scale(0.697382)" xlink:href="#CMMI12-109"/>
     <path d="M 290.012277 116.805753 
L 344.171317 116.805753 
L 344.171317 119.595204 
L 290.012277 119.595204 
L 290.012277 116.805753 
z
"/>
    </g>
   </g>
   <g id="legend_1">
    <g id="patch_7">
     <path d="M 79 379.48 
L 147.214294 379.48 
Q 149.214294 379.48 149.214294 377.48 
L 149.214294 327.518268 
Q 149.214294 325.518268 147.214294 325.518268 
L 79 325.518268 
Q 77 325.518268 77 327.518268 
L 77 377.48 
Q 77 379.48 79 379.48 
z
" style="fill:#ffffff;opacity:0.8;stroke:#cccccc;stroke-linejoin:miter;"/>
    </g>
    <g id="line2d_34">
     <path d="M 81 336.068334 
L 101 336.068334 
" style="fill:none;stroke:#bf00bf;stroke-linecap:square;stroke-width:1.5;"/>
    </g>
    <g id="line2d_35"/>
    <g id="text_19">
     <!-- $\partial \mathcal{L}/ \partial \mu^{\overline{U}}_{1}$ -->
     <g transform="translate(109 339.568334)scale(0.1 -0.1)">
      <use transform="translate(0 24.740171)scale(0.996264)" xlink:href="#CMMI12-64"/>
      <use transform="translate(56.915564 24.740171)scale(0.996264)" xlink:href="#CMSY10-76"/>
      <use transform="translate(125.630372 24.740171)scale(0.996264)" xlink:href="#CMMI12-61"/>
      <use transform="translate(174.405291 24.740171)scale(0.996264)" xlink:href="#CMMI12-64"/>
      <use transform="translate(231.320856 24.740171)scale(0.996264)" xlink:href="#CMMI12-22"/>
      <use transform="translate(290.012277 60.89381)scale(0.697382)" xlink:href="#CMMI12-85"/>
      <use transform="translate(290.012277 0)scale(0.697382)" xlink:href="#CMR17-49"/>
      <path d="M 290.012277 116.916574 
L 344.171317 116.916574 
L 344.171317 119.706025 
L 290.012277 119.706025 
L 290.012277 116.916574 
z
"/>
     </g>
    </g>
    <g id="line2d_36">
     <path d="M 81 353.055578 
L 101 353.055578 
" style="fill:none;stroke:#00bfbf;stroke-linecap:square;stroke-width:1.5;"/>
    </g>
    <g id="line2d_37"/>
    <g id="text_20">
     <!-- $\partial \mathcal{L}/ \partial \mu^{\overline{U}}_{2}$ -->
     <g transform="translate(109 356.555578)scale(0.1 -0.1)">
      <use transform="translate(0 24.740171)scale(0.996264)" xlink:href="#CMMI12-64"/>
      <use transform="translate(56.915564 24.740171)scale(0.996264)" xlink:href="#CMSY10-76"/>
      <use transform="translate(125.630372 24.740171)scale(0.996264)" xlink:href="#CMMI12-61"/>
      <use transform="translate(174.405291 24.740171)scale(0.996264)" xlink:href="#CMMI12-64"/>
      <use transform="translate(231.320856 24.740171)scale(0.996264)" xlink:href="#CMMI12-22"/>
      <use transform="translate(290.012277 60.89381)scale(0.697382)" xlink:href="#CMMI12-85"/>
      <use transform="translate(290.012277 0)scale(0.697382)" xlink:href="#CMR17-50"/>
      <path d="M 290.012277 116.916574 
L 344.171317 116.916574 
L 344.171317 119.706025 
L 290.012277 119.706025 
L 290.012277 116.916574 
z
"/>
     </g>
    </g>
    <g id="line2d_38">
     <path d="M 81 370.042822 
L 101 370.042822 
" style="fill:none;stroke:#ff0000;stroke-linecap:square;stroke-width:1.5;"/>
    </g>
    <g id="line2d_39"/>
    <g id="text_21">
     <!-- $\partial \mathcal{L}/ \partial \mu^{\overline{U}}_{3}$ -->
     <g transform="translate(109 373.542822)scale(0.1 -0.1)">
      <use transform="translate(0 24.740171)scale(0.996264)" xlink:href="#CMMI12-64"/>
      <use transform="translate(56.915564 24.740171)scale(0.996264)" xlink:href="#CMSY10-76"/>
      <use transform="translate(125.630372 24.740171)scale(0.996264)" xlink:href="#CMMI12-61"/>
      <use transform="translate(174.405291 24.740171)scale(0.996264)" xlink:href="#CMMI12-64"/>
      <use transform="translate(231.320856 24.740171)scale(0.996264)" xlink:href="#CMMI12-22"/>
      <use transform="translate(290.012277 60.89381)scale(0.697382)" xlink:href="#CMMI12-85"/>
      <use transform="translate(290.012277 0)scale(0.697382)" xlink:href="#CMR17-51"/>
      <path d="M 290.012277 116.916574 
L 344.171317 116.916574 
L 344.171317 119.706025 
L 290.012277 119.706025 
L 290.012277 116.916574 
z
"/>
     </g>
    </g>
   </g>
  </g>
 </g>
 <defs>
  <clipPath id="p8e059d2b17">
   <rect height="332.64" width="446.4" x="72" y="51.84"/>
  </clipPath>
 </defs>
</svg>
