<?xml version="1.0" encoding="utf-8" standalone="no"?>
<!DOCTYPE svg PUBLIC "-//W3C//DTD SVG 1.1//EN"
  "http://www.w3.org/Graphics/SVG/1.1/DTD/svg11.dtd">
<!-- Created with matplotlib (http://matplotlib.org/) -->
<svg height="432pt" version="1.1" viewBox="0 0 576 432" width="576pt" xmlns="http://www.w3.org/2000/svg" xmlns:xlink="http://www.w3.org/1999/xlink">
 <defs>
  <style type="text/css">
*{stroke-linecap:butt;stroke-linejoin:round;}
  </style>
 </defs>
 <g id="figure_1">
  <g id="patch_1">
   <path d="M 0 432 
L 576 432 
L 576 0 
L 0 0 
z
" style="fill:#ffffff;"/>
  </g>
  <g id="axes_1">
   <g id="patch_2">
    <path d="M 72 384.48 
L 518.4 384.48 
L 518.4 51.84 
L 72 51.84 
z
" style="fill:#ffffff;"/>
   </g>
   <g id="matplotlib.axis_1">
    <g id="xtick_1">
     <g id="line2d_1">
      <path clip-path="url(#p4273e80caf)" d="M 92.290909 384.48 
L 92.290909 51.84 
" style="fill:none;stroke:#b0b0b0;stroke-dasharray:5.12,1.28,0.8,1.28;stroke-dashoffset:0;stroke-width:0.8;"/>
     </g>
     <g id="line2d_2">
      <defs>
       <path d="M 0 0 
L 0 3.5 
" id="m9e7c5a5244" style="stroke:#000000;stroke-width:0.8;"/>
      </defs>
      <g>
       <use style="stroke:#000000;stroke-width:0.8;" x="92.290909" xlink:href="#m9e7c5a5244" y="384.48"/>
      </g>
     </g>
     <g id="text_1">
      <!-- 0 -->
      <defs>
       <path d="M 31.78125 66.40625 
Q 24.171875 66.40625 20.328125 58.90625 
Q 16.5 51.421875 16.5 36.375 
Q 16.5 21.390625 20.328125 13.890625 
Q 24.171875 6.390625 31.78125 6.390625 
Q 39.453125 6.390625 43.28125 13.890625 
Q 47.125 21.390625 47.125 36.375 
Q 47.125 51.421875 43.28125 58.90625 
Q 39.453125 66.40625 31.78125 66.40625 
z
M 31.78125 74.21875 
Q 44.046875 74.21875 50.515625 64.515625 
Q 56.984375 54.828125 56.984375 36.375 
Q 56.984375 17.96875 50.515625 8.265625 
Q 44.046875 -1.421875 31.78125 -1.421875 
Q 19.53125 -1.421875 13.0625 8.265625 
Q 6.59375 17.96875 6.59375 36.375 
Q 6.59375 54.828125 13.0625 64.515625 
Q 19.53125 74.21875 31.78125 74.21875 
z
" id="DejaVuSans-30"/>
      </defs>
      <g transform="translate(89.109659 399.078438)scale(0.1 -0.1)">
       <use xlink:href="#DejaVuSans-30"/>
      </g>
     </g>
    </g>
    <g id="xtick_2">
     <g id="line2d_3">
      <path clip-path="url(#p4273e80caf)" d="M 142.540808 384.48 
L 142.540808 51.84 
" style="fill:none;stroke:#b0b0b0;stroke-dasharray:5.12,1.28,0.8,1.28;stroke-dashoffset:0;stroke-width:0.8;"/>
     </g>
     <g id="line2d_4">
      <g>
       <use style="stroke:#000000;stroke-width:0.8;" x="142.540808" xlink:href="#m9e7c5a5244" y="384.48"/>
      </g>
     </g>
     <g id="text_2">
      <!-- 500 -->
      <defs>
       <path d="M 10.796875 72.90625 
L 49.515625 72.90625 
L 49.515625 64.59375 
L 19.828125 64.59375 
L 19.828125 46.734375 
Q 21.96875 47.46875 24.109375 47.828125 
Q 26.265625 48.1875 28.421875 48.1875 
Q 40.625 48.1875 47.75 41.5 
Q 54.890625 34.8125 54.890625 23.390625 
Q 54.890625 11.625 47.5625 5.09375 
Q 40.234375 -1.421875 26.90625 -1.421875 
Q 22.3125 -1.421875 17.546875 -0.640625 
Q 12.796875 0.140625 7.71875 1.703125 
L 7.71875 11.625 
Q 12.109375 9.234375 16.796875 8.0625 
Q 21.484375 6.890625 26.703125 6.890625 
Q 35.15625 6.890625 40.078125 11.328125 
Q 45.015625 15.765625 45.015625 23.390625 
Q 45.015625 31 40.078125 35.4375 
Q 35.15625 39.890625 26.703125 39.890625 
Q 22.75 39.890625 18.8125 39.015625 
Q 14.890625 38.140625 10.796875 36.28125 
z
" id="DejaVuSans-35"/>
      </defs>
      <g transform="translate(132.997058 399.078438)scale(0.1 -0.1)">
       <use xlink:href="#DejaVuSans-35"/>
       <use x="63.623047" xlink:href="#DejaVuSans-30"/>
       <use x="127.246094" xlink:href="#DejaVuSans-30"/>
      </g>
     </g>
    </g>
    <g id="xtick_3">
     <g id="line2d_5">
      <path clip-path="url(#p4273e80caf)" d="M 192.790706 384.48 
L 192.790706 51.84 
" style="fill:none;stroke:#b0b0b0;stroke-dasharray:5.12,1.28,0.8,1.28;stroke-dashoffset:0;stroke-width:0.8;"/>
     </g>
     <g id="line2d_6">
      <g>
       <use style="stroke:#000000;stroke-width:0.8;" x="192.790706" xlink:href="#m9e7c5a5244" y="384.48"/>
      </g>
     </g>
     <g id="text_3">
      <!-- 1000 -->
      <defs>
       <path d="M 12.40625 8.296875 
L 28.515625 8.296875 
L 28.515625 63.921875 
L 10.984375 60.40625 
L 10.984375 69.390625 
L 28.421875 72.90625 
L 38.28125 72.90625 
L 38.28125 8.296875 
L 54.390625 8.296875 
L 54.390625 0 
L 12.40625 0 
z
" id="DejaVuSans-31"/>
      </defs>
      <g transform="translate(180.065706 399.078438)scale(0.1 -0.1)">
       <use xlink:href="#DejaVuSans-31"/>
       <use x="63.623047" xlink:href="#DejaVuSans-30"/>
       <use x="127.246094" xlink:href="#DejaVuSans-30"/>
       <use x="190.869141" xlink:href="#DejaVuSans-30"/>
      </g>
     </g>
    </g>
    <g id="xtick_4">
     <g id="line2d_7">
      <path clip-path="url(#p4273e80caf)" d="M 243.040605 384.48 
L 243.040605 51.84 
" style="fill:none;stroke:#b0b0b0;stroke-dasharray:5.12,1.28,0.8,1.28;stroke-dashoffset:0;stroke-width:0.8;"/>
     </g>
     <g id="line2d_8">
      <g>
       <use style="stroke:#000000;stroke-width:0.8;" x="243.040605" xlink:href="#m9e7c5a5244" y="384.48"/>
      </g>
     </g>
     <g id="text_4">
      <!-- 1500 -->
      <g transform="translate(230.315605 399.078438)scale(0.1 -0.1)">
       <use xlink:href="#DejaVuSans-31"/>
       <use x="63.623047" xlink:href="#DejaVuSans-35"/>
       <use x="127.246094" xlink:href="#DejaVuSans-30"/>
       <use x="190.869141" xlink:href="#DejaVuSans-30"/>
      </g>
     </g>
    </g>
    <g id="xtick_5">
     <g id="line2d_9">
      <path clip-path="url(#p4273e80caf)" d="M 293.290504 384.48 
L 293.290504 51.84 
" style="fill:none;stroke:#b0b0b0;stroke-dasharray:5.12,1.28,0.8,1.28;stroke-dashoffset:0;stroke-width:0.8;"/>
     </g>
     <g id="line2d_10">
      <g>
       <use style="stroke:#000000;stroke-width:0.8;" x="293.290504" xlink:href="#m9e7c5a5244" y="384.48"/>
      </g>
     </g>
     <g id="text_5">
      <!-- 2000 -->
      <defs>
       <path d="M 19.1875 8.296875 
L 53.609375 8.296875 
L 53.609375 0 
L 7.328125 0 
L 7.328125 8.296875 
Q 12.9375 14.109375 22.625 23.890625 
Q 32.328125 33.6875 34.8125 36.53125 
Q 39.546875 41.84375 41.421875 45.53125 
Q 43.3125 49.21875 43.3125 52.78125 
Q 43.3125 58.59375 39.234375 62.25 
Q 35.15625 65.921875 28.609375 65.921875 
Q 23.96875 65.921875 18.8125 64.3125 
Q 13.671875 62.703125 7.8125 59.421875 
L 7.8125 69.390625 
Q 13.765625 71.78125 18.9375 73 
Q 24.125 74.21875 28.421875 74.21875 
Q 39.75 74.21875 46.484375 68.546875 
Q 53.21875 62.890625 53.21875 53.421875 
Q 53.21875 48.921875 51.53125 44.890625 
Q 49.859375 40.875 45.40625 35.40625 
Q 44.1875 33.984375 37.640625 27.21875 
Q 31.109375 20.453125 19.1875 8.296875 
z
" id="DejaVuSans-32"/>
      </defs>
      <g transform="translate(280.565504 399.078438)scale(0.1 -0.1)">
       <use xlink:href="#DejaVuSans-32"/>
       <use x="63.623047" xlink:href="#DejaVuSans-30"/>
       <use x="127.246094" xlink:href="#DejaVuSans-30"/>
       <use x="190.869141" xlink:href="#DejaVuSans-30"/>
      </g>
     </g>
    </g>
    <g id="xtick_6">
     <g id="line2d_11">
      <path clip-path="url(#p4273e80caf)" d="M 343.540403 384.48 
L 343.540403 51.84 
" style="fill:none;stroke:#b0b0b0;stroke-dasharray:5.12,1.28,0.8,1.28;stroke-dashoffset:0;stroke-width:0.8;"/>
     </g>
     <g id="line2d_12">
      <g>
       <use style="stroke:#000000;stroke-width:0.8;" x="343.540403" xlink:href="#m9e7c5a5244" y="384.48"/>
      </g>
     </g>
     <g id="text_6">
      <!-- 2500 -->
      <g transform="translate(330.815403 399.078438)scale(0.1 -0.1)">
       <use xlink:href="#DejaVuSans-32"/>
       <use x="63.623047" xlink:href="#DejaVuSans-35"/>
       <use x="127.246094" xlink:href="#DejaVuSans-30"/>
       <use x="190.869141" xlink:href="#DejaVuSans-30"/>
      </g>
     </g>
    </g>
    <g id="xtick_7">
     <g id="line2d_13">
      <path clip-path="url(#p4273e80caf)" d="M 393.790301 384.48 
L 393.790301 51.84 
" style="fill:none;stroke:#b0b0b0;stroke-dasharray:5.12,1.28,0.8,1.28;stroke-dashoffset:0;stroke-width:0.8;"/>
     </g>
     <g id="line2d_14">
      <g>
       <use style="stroke:#000000;stroke-width:0.8;" x="393.790301" xlink:href="#m9e7c5a5244" y="384.48"/>
      </g>
     </g>
     <g id="text_7">
      <!-- 3000 -->
      <defs>
       <path d="M 40.578125 39.3125 
Q 47.65625 37.796875 51.625 33 
Q 55.609375 28.21875 55.609375 21.1875 
Q 55.609375 10.40625 48.1875 4.484375 
Q 40.765625 -1.421875 27.09375 -1.421875 
Q 22.515625 -1.421875 17.65625 -0.515625 
Q 12.796875 0.390625 7.625 2.203125 
L 7.625 11.71875 
Q 11.71875 9.328125 16.59375 8.109375 
Q 21.484375 6.890625 26.8125 6.890625 
Q 36.078125 6.890625 40.9375 10.546875 
Q 45.796875 14.203125 45.796875 21.1875 
Q 45.796875 27.640625 41.28125 31.265625 
Q 36.765625 34.90625 28.71875 34.90625 
L 20.21875 34.90625 
L 20.21875 43.015625 
L 29.109375 43.015625 
Q 36.375 43.015625 40.234375 45.921875 
Q 44.09375 48.828125 44.09375 54.296875 
Q 44.09375 59.90625 40.109375 62.90625 
Q 36.140625 65.921875 28.71875 65.921875 
Q 24.65625 65.921875 20.015625 65.03125 
Q 15.375 64.15625 9.8125 62.3125 
L 9.8125 71.09375 
Q 15.4375 72.65625 20.34375 73.4375 
Q 25.25 74.21875 29.59375 74.21875 
Q 40.828125 74.21875 47.359375 69.109375 
Q 53.90625 64.015625 53.90625 55.328125 
Q 53.90625 49.265625 50.4375 45.09375 
Q 46.96875 40.921875 40.578125 39.3125 
z
" id="DejaVuSans-33"/>
      </defs>
      <g transform="translate(381.065301 399.078438)scale(0.1 -0.1)">
       <use xlink:href="#DejaVuSans-33"/>
       <use x="63.623047" xlink:href="#DejaVuSans-30"/>
       <use x="127.246094" xlink:href="#DejaVuSans-30"/>
       <use x="190.869141" xlink:href="#DejaVuSans-30"/>
      </g>
     </g>
    </g>
    <g id="xtick_8">
     <g id="line2d_15">
      <path clip-path="url(#p4273e80caf)" d="M 444.0402 384.48 
L 444.0402 51.84 
" style="fill:none;stroke:#b0b0b0;stroke-dasharray:5.12,1.28,0.8,1.28;stroke-dashoffset:0;stroke-width:0.8;"/>
     </g>
     <g id="line2d_16">
      <g>
       <use style="stroke:#000000;stroke-width:0.8;" x="444.0402" xlink:href="#m9e7c5a5244" y="384.48"/>
      </g>
     </g>
     <g id="text_8">
      <!-- 3500 -->
      <g transform="translate(431.3152 399.078438)scale(0.1 -0.1)">
       <use xlink:href="#DejaVuSans-33"/>
       <use x="63.623047" xlink:href="#DejaVuSans-35"/>
       <use x="127.246094" xlink:href="#DejaVuSans-30"/>
       <use x="190.869141" xlink:href="#DejaVuSans-30"/>
      </g>
     </g>
    </g>
    <g id="xtick_9">
     <g id="line2d_17">
      <path clip-path="url(#p4273e80caf)" d="M 494.290099 384.48 
L 494.290099 51.84 
" style="fill:none;stroke:#b0b0b0;stroke-dasharray:5.12,1.28,0.8,1.28;stroke-dashoffset:0;stroke-width:0.8;"/>
     </g>
     <g id="line2d_18">
      <g>
       <use style="stroke:#000000;stroke-width:0.8;" x="494.290099" xlink:href="#m9e7c5a5244" y="384.48"/>
      </g>
     </g>
     <g id="text_9">
      <!-- 4000 -->
      <defs>
       <path d="M 37.796875 64.3125 
L 12.890625 25.390625 
L 37.796875 25.390625 
z
M 35.203125 72.90625 
L 47.609375 72.90625 
L 47.609375 25.390625 
L 58.015625 25.390625 
L 58.015625 17.1875 
L 47.609375 17.1875 
L 47.609375 0 
L 37.796875 0 
L 37.796875 17.1875 
L 4.890625 17.1875 
L 4.890625 26.703125 
z
" id="DejaVuSans-34"/>
      </defs>
      <g transform="translate(481.565099 399.078438)scale(0.1 -0.1)">
       <use xlink:href="#DejaVuSans-34"/>
       <use x="63.623047" xlink:href="#DejaVuSans-30"/>
       <use x="127.246094" xlink:href="#DejaVuSans-30"/>
       <use x="190.869141" xlink:href="#DejaVuSans-30"/>
      </g>
     </g>
    </g>
    <g id="text_10">
     <!-- Iteration -->
     <defs>
      <path d="M 9.8125 72.90625 
L 19.671875 72.90625 
L 19.671875 0 
L 9.8125 0 
z
" id="DejaVuSans-49"/>
      <path d="M 18.3125 70.21875 
L 18.3125 54.6875 
L 36.8125 54.6875 
L 36.8125 47.703125 
L 18.3125 47.703125 
L 18.3125 18.015625 
Q 18.3125 11.328125 20.140625 9.421875 
Q 21.96875 7.515625 27.59375 7.515625 
L 36.8125 7.515625 
L 36.8125 0 
L 27.59375 0 
Q 17.1875 0 13.234375 3.875 
Q 9.28125 7.765625 9.28125 18.015625 
L 9.28125 47.703125 
L 2.6875 47.703125 
L 2.6875 54.6875 
L 9.28125 54.6875 
L 9.28125 70.21875 
z
" id="DejaVuSans-74"/>
      <path d="M 56.203125 29.59375 
L 56.203125 25.203125 
L 14.890625 25.203125 
Q 15.484375 15.921875 20.484375 11.0625 
Q 25.484375 6.203125 34.421875 6.203125 
Q 39.59375 6.203125 44.453125 7.46875 
Q 49.3125 8.734375 54.109375 11.28125 
L 54.109375 2.78125 
Q 49.265625 0.734375 44.1875 -0.34375 
Q 39.109375 -1.421875 33.890625 -1.421875 
Q 20.796875 -1.421875 13.15625 6.1875 
Q 5.515625 13.8125 5.515625 26.8125 
Q 5.515625 40.234375 12.765625 48.109375 
Q 20.015625 56 32.328125 56 
Q 43.359375 56 49.78125 48.890625 
Q 56.203125 41.796875 56.203125 29.59375 
z
M 47.21875 32.234375 
Q 47.125 39.59375 43.09375 43.984375 
Q 39.0625 48.390625 32.421875 48.390625 
Q 24.90625 48.390625 20.390625 44.140625 
Q 15.875 39.890625 15.1875 32.171875 
z
" id="DejaVuSans-65"/>
      <path d="M 41.109375 46.296875 
Q 39.59375 47.171875 37.8125 47.578125 
Q 36.03125 48 33.890625 48 
Q 26.265625 48 22.1875 43.046875 
Q 18.109375 38.09375 18.109375 28.8125 
L 18.109375 0 
L 9.078125 0 
L 9.078125 54.6875 
L 18.109375 54.6875 
L 18.109375 46.1875 
Q 20.953125 51.171875 25.484375 53.578125 
Q 30.03125 56 36.53125 56 
Q 37.453125 56 38.578125 55.875 
Q 39.703125 55.765625 41.0625 55.515625 
z
" id="DejaVuSans-72"/>
      <path d="M 34.28125 27.484375 
Q 23.390625 27.484375 19.1875 25 
Q 14.984375 22.515625 14.984375 16.5 
Q 14.984375 11.71875 18.140625 8.90625 
Q 21.296875 6.109375 26.703125 6.109375 
Q 34.1875 6.109375 38.703125 11.40625 
Q 43.21875 16.703125 43.21875 25.484375 
L 43.21875 27.484375 
z
M 52.203125 31.203125 
L 52.203125 0 
L 43.21875 0 
L 43.21875 8.296875 
Q 40.140625 3.328125 35.546875 0.953125 
Q 30.953125 -1.421875 24.3125 -1.421875 
Q 15.921875 -1.421875 10.953125 3.296875 
Q 6 8.015625 6 15.921875 
Q 6 25.140625 12.171875 29.828125 
Q 18.359375 34.515625 30.609375 34.515625 
L 43.21875 34.515625 
L 43.21875 35.40625 
Q 43.21875 41.609375 39.140625 45 
Q 35.0625 48.390625 27.6875 48.390625 
Q 23 48.390625 18.546875 47.265625 
Q 14.109375 46.140625 10.015625 43.890625 
L 10.015625 52.203125 
Q 14.9375 54.109375 19.578125 55.046875 
Q 24.21875 56 28.609375 56 
Q 40.484375 56 46.34375 49.84375 
Q 52.203125 43.703125 52.203125 31.203125 
z
" id="DejaVuSans-61"/>
      <path d="M 9.421875 54.6875 
L 18.40625 54.6875 
L 18.40625 0 
L 9.421875 0 
z
M 9.421875 75.984375 
L 18.40625 75.984375 
L 18.40625 64.59375 
L 9.421875 64.59375 
z
" id="DejaVuSans-69"/>
      <path d="M 30.609375 48.390625 
Q 23.390625 48.390625 19.1875 42.75 
Q 14.984375 37.109375 14.984375 27.296875 
Q 14.984375 17.484375 19.15625 11.84375 
Q 23.34375 6.203125 30.609375 6.203125 
Q 37.796875 6.203125 41.984375 11.859375 
Q 46.1875 17.53125 46.1875 27.296875 
Q 46.1875 37.015625 41.984375 42.703125 
Q 37.796875 48.390625 30.609375 48.390625 
z
M 30.609375 56 
Q 42.328125 56 49.015625 48.375 
Q 55.71875 40.765625 55.71875 27.296875 
Q 55.71875 13.875 49.015625 6.21875 
Q 42.328125 -1.421875 30.609375 -1.421875 
Q 18.84375 -1.421875 12.171875 6.21875 
Q 5.515625 13.875 5.515625 27.296875 
Q 5.515625 40.765625 12.171875 48.375 
Q 18.84375 56 30.609375 56 
z
" id="DejaVuSans-6f"/>
      <path d="M 54.890625 33.015625 
L 54.890625 0 
L 45.90625 0 
L 45.90625 32.71875 
Q 45.90625 40.484375 42.875 44.328125 
Q 39.84375 48.1875 33.796875 48.1875 
Q 26.515625 48.1875 22.3125 43.546875 
Q 18.109375 38.921875 18.109375 30.90625 
L 18.109375 0 
L 9.078125 0 
L 9.078125 54.6875 
L 18.109375 54.6875 
L 18.109375 46.1875 
Q 21.34375 51.125 25.703125 53.5625 
Q 30.078125 56 35.796875 56 
Q 45.21875 56 50.046875 50.171875 
Q 54.890625 44.34375 54.890625 33.015625 
z
" id="DejaVuSans-6e"/>
     </defs>
     <g transform="translate(265.507969 415.795938)scale(0.14 -0.14)">
      <use xlink:href="#DejaVuSans-49"/>
      <use x="29.492188" xlink:href="#DejaVuSans-74"/>
      <use x="68.701172" xlink:href="#DejaVuSans-65"/>
      <use x="130.224609" xlink:href="#DejaVuSans-72"/>
      <use x="171.337891" xlink:href="#DejaVuSans-61"/>
      <use x="232.617188" xlink:href="#DejaVuSans-74"/>
      <use x="271.826172" xlink:href="#DejaVuSans-69"/>
      <use x="299.609375" xlink:href="#DejaVuSans-6f"/>
      <use x="360.791016" xlink:href="#DejaVuSans-6e"/>
     </g>
    </g>
   </g>
   <g id="matplotlib.axis_2">
    <g id="ytick_1">
     <g id="line2d_19">
      <path clip-path="url(#p4273e80caf)" d="M 72 358.171025 
L 518.4 358.171025 
" style="fill:none;stroke:#b0b0b0;stroke-dasharray:5.12,1.28,0.8,1.28;stroke-dashoffset:0;stroke-width:0.8;"/>
     </g>
     <g id="line2d_20">
      <defs>
       <path d="M 0 0 
L -3.5 0 
" id="m5136fb9720" style="stroke:#000000;stroke-width:0.8;"/>
      </defs>
      <g>
       <use style="stroke:#000000;stroke-width:0.8;" x="72" xlink:href="#m5136fb9720" y="358.171025"/>
      </g>
     </g>
     <g id="text_11">
      <!-- 0 -->
      <g transform="translate(58.6375 361.970244)scale(0.1 -0.1)">
       <use xlink:href="#DejaVuSans-30"/>
      </g>
     </g>
    </g>
    <g id="ytick_2">
     <g id="line2d_21">
      <path clip-path="url(#p4273e80caf)" d="M 72 293.457464 
L 518.4 293.457464 
" style="fill:none;stroke:#b0b0b0;stroke-dasharray:5.12,1.28,0.8,1.28;stroke-dashoffset:0;stroke-width:0.8;"/>
     </g>
     <g id="line2d_22">
      <g>
       <use style="stroke:#000000;stroke-width:0.8;" x="72" xlink:href="#m5136fb9720" y="293.457464"/>
      </g>
     </g>
     <g id="text_12">
      <!-- 2 -->
      <g transform="translate(58.6375 297.256683)scale(0.1 -0.1)">
       <use xlink:href="#DejaVuSans-32"/>
      </g>
     </g>
    </g>
    <g id="ytick_3">
     <g id="line2d_23">
      <path clip-path="url(#p4273e80caf)" d="M 72 228.743903 
L 518.4 228.743903 
" style="fill:none;stroke:#b0b0b0;stroke-dasharray:5.12,1.28,0.8,1.28;stroke-dashoffset:0;stroke-width:0.8;"/>
     </g>
     <g id="line2d_24">
      <g>
       <use style="stroke:#000000;stroke-width:0.8;" x="72" xlink:href="#m5136fb9720" y="228.743903"/>
      </g>
     </g>
     <g id="text_13">
      <!-- 4 -->
      <g transform="translate(58.6375 232.543122)scale(0.1 -0.1)">
       <use xlink:href="#DejaVuSans-34"/>
      </g>
     </g>
    </g>
    <g id="ytick_4">
     <g id="line2d_25">
      <path clip-path="url(#p4273e80caf)" d="M 72 164.030342 
L 518.4 164.030342 
" style="fill:none;stroke:#b0b0b0;stroke-dasharray:5.12,1.28,0.8,1.28;stroke-dashoffset:0;stroke-width:0.8;"/>
     </g>
     <g id="line2d_26">
      <g>
       <use style="stroke:#000000;stroke-width:0.8;" x="72" xlink:href="#m5136fb9720" y="164.030342"/>
      </g>
     </g>
     <g id="text_14">
      <!-- 6 -->
      <defs>
       <path d="M 33.015625 40.375 
Q 26.375 40.375 22.484375 35.828125 
Q 18.609375 31.296875 18.609375 23.390625 
Q 18.609375 15.53125 22.484375 10.953125 
Q 26.375 6.390625 33.015625 6.390625 
Q 39.65625 6.390625 43.53125 10.953125 
Q 47.40625 15.53125 47.40625 23.390625 
Q 47.40625 31.296875 43.53125 35.828125 
Q 39.65625 40.375 33.015625 40.375 
z
M 52.59375 71.296875 
L 52.59375 62.3125 
Q 48.875 64.0625 45.09375 64.984375 
Q 41.3125 65.921875 37.59375 65.921875 
Q 27.828125 65.921875 22.671875 59.328125 
Q 17.53125 52.734375 16.796875 39.40625 
Q 19.671875 43.65625 24.015625 45.921875 
Q 28.375 48.1875 33.59375 48.1875 
Q 44.578125 48.1875 50.953125 41.515625 
Q 57.328125 34.859375 57.328125 23.390625 
Q 57.328125 12.15625 50.6875 5.359375 
Q 44.046875 -1.421875 33.015625 -1.421875 
Q 20.359375 -1.421875 13.671875 8.265625 
Q 6.984375 17.96875 6.984375 36.375 
Q 6.984375 53.65625 15.1875 63.9375 
Q 23.390625 74.21875 37.203125 74.21875 
Q 40.921875 74.21875 44.703125 73.484375 
Q 48.484375 72.75 52.59375 71.296875 
z
" id="DejaVuSans-36"/>
      </defs>
      <g transform="translate(58.6375 167.829561)scale(0.1 -0.1)">
       <use xlink:href="#DejaVuSans-36"/>
      </g>
     </g>
    </g>
    <g id="ytick_5">
     <g id="line2d_27">
      <path clip-path="url(#p4273e80caf)" d="M 72 99.316781 
L 518.4 99.316781 
" style="fill:none;stroke:#b0b0b0;stroke-dasharray:5.12,1.28,0.8,1.28;stroke-dashoffset:0;stroke-width:0.8;"/>
     </g>
     <g id="line2d_28">
      <g>
       <use style="stroke:#000000;stroke-width:0.8;" x="72" xlink:href="#m5136fb9720" y="99.316781"/>
      </g>
     </g>
     <g id="text_15">
      <!-- 8 -->
      <defs>
       <path d="M 31.78125 34.625 
Q 24.75 34.625 20.71875 30.859375 
Q 16.703125 27.09375 16.703125 20.515625 
Q 16.703125 13.921875 20.71875 10.15625 
Q 24.75 6.390625 31.78125 6.390625 
Q 38.8125 6.390625 42.859375 10.171875 
Q 46.921875 13.96875 46.921875 20.515625 
Q 46.921875 27.09375 42.890625 30.859375 
Q 38.875 34.625 31.78125 34.625 
z
M 21.921875 38.8125 
Q 15.578125 40.375 12.03125 44.71875 
Q 8.5 49.078125 8.5 55.328125 
Q 8.5 64.0625 14.71875 69.140625 
Q 20.953125 74.21875 31.78125 74.21875 
Q 42.671875 74.21875 48.875 69.140625 
Q 55.078125 64.0625 55.078125 55.328125 
Q 55.078125 49.078125 51.53125 44.71875 
Q 48 40.375 41.703125 38.8125 
Q 48.828125 37.15625 52.796875 32.3125 
Q 56.78125 27.484375 56.78125 20.515625 
Q 56.78125 9.90625 50.3125 4.234375 
Q 43.84375 -1.421875 31.78125 -1.421875 
Q 19.734375 -1.421875 13.25 4.234375 
Q 6.78125 9.90625 6.78125 20.515625 
Q 6.78125 27.484375 10.78125 32.3125 
Q 14.796875 37.15625 21.921875 38.8125 
z
M 18.3125 54.390625 
Q 18.3125 48.734375 21.84375 45.5625 
Q 25.390625 42.390625 31.78125 42.390625 
Q 38.140625 42.390625 41.71875 45.5625 
Q 45.3125 48.734375 45.3125 54.390625 
Q 45.3125 60.0625 41.71875 63.234375 
Q 38.140625 66.40625 31.78125 66.40625 
Q 25.390625 66.40625 21.84375 63.234375 
Q 18.3125 60.0625 18.3125 54.390625 
z
" id="DejaVuSans-38"/>
      </defs>
      <g transform="translate(58.6375 103.115999)scale(0.1 -0.1)">
       <use xlink:href="#DejaVuSans-38"/>
      </g>
     </g>
    </g>
    <g id="text_16">
     <!-- dif_generated_power -->
     <defs>
      <path d="M 45.40625 46.390625 
L 45.40625 75.984375 
L 54.390625 75.984375 
L 54.390625 0 
L 45.40625 0 
L 45.40625 8.203125 
Q 42.578125 3.328125 38.25 0.953125 
Q 33.9375 -1.421875 27.875 -1.421875 
Q 17.96875 -1.421875 11.734375 6.484375 
Q 5.515625 14.40625 5.515625 27.296875 
Q 5.515625 40.1875 11.734375 48.09375 
Q 17.96875 56 27.875 56 
Q 33.9375 56 38.25 53.625 
Q 42.578125 51.265625 45.40625 46.390625 
z
M 14.796875 27.296875 
Q 14.796875 17.390625 18.875 11.75 
Q 22.953125 6.109375 30.078125 6.109375 
Q 37.203125 6.109375 41.296875 11.75 
Q 45.40625 17.390625 45.40625 27.296875 
Q 45.40625 37.203125 41.296875 42.84375 
Q 37.203125 48.484375 30.078125 48.484375 
Q 22.953125 48.484375 18.875 42.84375 
Q 14.796875 37.203125 14.796875 27.296875 
z
" id="DejaVuSans-64"/>
      <path d="M 37.109375 75.984375 
L 37.109375 68.5 
L 28.515625 68.5 
Q 23.6875 68.5 21.796875 66.546875 
Q 19.921875 64.59375 19.921875 59.515625 
L 19.921875 54.6875 
L 34.71875 54.6875 
L 34.71875 47.703125 
L 19.921875 47.703125 
L 19.921875 0 
L 10.890625 0 
L 10.890625 47.703125 
L 2.296875 47.703125 
L 2.296875 54.6875 
L 10.890625 54.6875 
L 10.890625 58.5 
Q 10.890625 67.625 15.140625 71.796875 
Q 19.390625 75.984375 28.609375 75.984375 
z
" id="DejaVuSans-66"/>
      <path d="M 50.984375 -16.609375 
L 50.984375 -23.578125 
L -0.984375 -23.578125 
L -0.984375 -16.609375 
z
" id="DejaVuSans-5f"/>
      <path d="M 45.40625 27.984375 
Q 45.40625 37.75 41.375 43.109375 
Q 37.359375 48.484375 30.078125 48.484375 
Q 22.859375 48.484375 18.828125 43.109375 
Q 14.796875 37.75 14.796875 27.984375 
Q 14.796875 18.265625 18.828125 12.890625 
Q 22.859375 7.515625 30.078125 7.515625 
Q 37.359375 7.515625 41.375 12.890625 
Q 45.40625 18.265625 45.40625 27.984375 
z
M 54.390625 6.78125 
Q 54.390625 -7.171875 48.1875 -13.984375 
Q 42 -20.796875 29.203125 -20.796875 
Q 24.46875 -20.796875 20.265625 -20.09375 
Q 16.0625 -19.390625 12.109375 -17.921875 
L 12.109375 -9.1875 
Q 16.0625 -11.328125 19.921875 -12.34375 
Q 23.78125 -13.375 27.78125 -13.375 
Q 36.625 -13.375 41.015625 -8.765625 
Q 45.40625 -4.15625 45.40625 5.171875 
L 45.40625 9.625 
Q 42.625 4.78125 38.28125 2.390625 
Q 33.9375 0 27.875 0 
Q 17.828125 0 11.671875 7.65625 
Q 5.515625 15.328125 5.515625 27.984375 
Q 5.515625 40.671875 11.671875 48.328125 
Q 17.828125 56 27.875 56 
Q 33.9375 56 38.28125 53.609375 
Q 42.625 51.21875 45.40625 46.390625 
L 45.40625 54.6875 
L 54.390625 54.6875 
z
" id="DejaVuSans-67"/>
      <path d="M 18.109375 8.203125 
L 18.109375 -20.796875 
L 9.078125 -20.796875 
L 9.078125 54.6875 
L 18.109375 54.6875 
L 18.109375 46.390625 
Q 20.953125 51.265625 25.265625 53.625 
Q 29.59375 56 35.59375 56 
Q 45.5625 56 51.78125 48.09375 
Q 58.015625 40.1875 58.015625 27.296875 
Q 58.015625 14.40625 51.78125 6.484375 
Q 45.5625 -1.421875 35.59375 -1.421875 
Q 29.59375 -1.421875 25.265625 0.953125 
Q 20.953125 3.328125 18.109375 8.203125 
z
M 48.6875 27.296875 
Q 48.6875 37.203125 44.609375 42.84375 
Q 40.53125 48.484375 33.40625 48.484375 
Q 26.265625 48.484375 22.1875 42.84375 
Q 18.109375 37.203125 18.109375 27.296875 
Q 18.109375 17.390625 22.1875 11.75 
Q 26.265625 6.109375 33.40625 6.109375 
Q 40.53125 6.109375 44.609375 11.75 
Q 48.6875 17.390625 48.6875 27.296875 
z
" id="DejaVuSans-70"/>
      <path d="M 4.203125 54.6875 
L 13.1875 54.6875 
L 24.421875 12.015625 
L 35.59375 54.6875 
L 46.1875 54.6875 
L 57.421875 12.015625 
L 68.609375 54.6875 
L 77.59375 54.6875 
L 63.28125 0 
L 52.6875 0 
L 40.921875 44.828125 
L 29.109375 0 
L 18.5 0 
z
" id="DejaVuSans-77"/>
     </defs>
     <g transform="translate(51.336562 291.806562)rotate(-90)scale(0.14 -0.14)">
      <use xlink:href="#DejaVuSans-64"/>
      <use x="63.476562" xlink:href="#DejaVuSans-69"/>
      <use x="91.259766" xlink:href="#DejaVuSans-66"/>
      <use x="126.464844" xlink:href="#DejaVuSans-5f"/>
      <use x="176.464844" xlink:href="#DejaVuSans-67"/>
      <use x="239.941406" xlink:href="#DejaVuSans-65"/>
      <use x="301.464844" xlink:href="#DejaVuSans-6e"/>
      <use x="364.84375" xlink:href="#DejaVuSans-65"/>
      <use x="426.367188" xlink:href="#DejaVuSans-72"/>
      <use x="467.480469" xlink:href="#DejaVuSans-61"/>
      <use x="528.759766" xlink:href="#DejaVuSans-74"/>
      <use x="567.96875" xlink:href="#DejaVuSans-65"/>
      <use x="629.492188" xlink:href="#DejaVuSans-64"/>
      <use x="692.96875" xlink:href="#DejaVuSans-5f"/>
      <use x="742.96875" xlink:href="#DejaVuSans-70"/>
      <use x="806.445312" xlink:href="#DejaVuSans-6f"/>
      <use x="867.626953" xlink:href="#DejaVuSans-77"/>
      <use x="949.414062" xlink:href="#DejaVuSans-65"/>
      <use x="1010.9375" xlink:href="#DejaVuSans-72"/>
     </g>
    </g>
   </g>
   <g id="line2d_29">
    <path clip-path="url(#p4273e80caf)" d="M 92.290909 358.171025 
L 92.391409 66.96 
L 92.592408 285.368269 
L 92.793408 342.92451 
L 92.994408 359.264684 
L 93.195407 363.920825 
L 93.396407 365.111555 
L 93.597406 365.295988 
L 94.501905 365.198918 
L 97.416399 365.842818 
L 98.019398 365.674563 
L 98.722896 365.23451 
L 98.923896 365.075962 
L 99.426395 358.514007 
L 99.627394 357.915407 
L 99.828394 357.78598 
L 100.330893 357.908935 
L 101.235391 358.077191 
L 102.541888 358.141904 
L 102.843388 360.426293 
L 103.044387 360.55572 
L 103.446387 360.050954 
L 104.149885 359.254977 
L 105.054383 358.578721 
L 106.260381 357.989827 
L 107.667378 357.562718 
L 109.476374 357.2618 
L 110.682372 357.155022 
L 111.385871 358.112783 
L 112.189869 358.158083 
L 497.204593 358.171025 
L 497.204593 358.171025 
" style="fill:none;stroke:#bf00bf;stroke-linecap:square;stroke-width:1.5;"/>
   </g>
   <g id="line2d_30">
    <path clip-path="url(#p4273e80caf)" d="M 92.290909 358.171025 
L 92.391409 131.673561 
L 92.592408 301.546659 
L 92.793408 347.742435 
L 92.994408 360.29363 
L 93.195407 363.723449 
L 93.396407 364.648853 
L 93.697906 364.946535 
L 96.411401 365.791047 
L 97.416399 365.849289 
L 98.019398 365.645442 
L 98.823396 365.088905 
L 98.923896 365.004777 
L 99.225395 358.171025 
L 102.541888 358.171025 
L 102.742888 360.824281 
L 102.843388 360.827517 
L 103.848386 359.390876 
L 104.752884 358.679027 
L 105.958882 358.061012 
L 107.466378 357.591839 
L 109.375875 357.271507 
L 110.682372 357.161494 
L 111.084371 358.086898 
L 111.48637 358.164554 
L 115.104363 358.171025 
L 498.109091 358.171025 
L 498.109091 358.171025 
" style="fill:none;stroke:#00bfbf;stroke-linecap:square;stroke-width:1.5;"/>
   </g>
   <g id="line2d_31">
    <path clip-path="url(#p4273e80caf)" d="M 92.290909 358.171025 
L 92.592408 358.171025 
L 93.195407 363.594022 
L 93.597406 364.606789 
L 94.099905 365.318638 
L 94.602404 365.651913 
L 95.406403 365.865468 
L 96.8134 366.001366 
L 97.416399 365.836347 
L 98.119897 365.367173 
L 98.923896 364.63591 
L 99.526895 360.429529 
L 99.928894 359.377933 
L 100.431393 358.672555 
L 101.134891 358.125726 
L 101.93889 357.967178 
L 102.541888 357.902464 
L 102.742888 358.585192 
L 103.044387 358.607842 
L 103.345887 358.598135 
L 103.546886 358.763154 
L 103.948886 358.633727 
L 105.255383 358.09984 
L 107.767878 357.805394 
L 110.682372 357.679202 
L 111.184871 357.963942 
L 112.189869 358.057777 
L 118.219857 358.141904 
L 498.109091 358.171025 
L 498.109091 358.171025 
" style="fill:none;stroke:#ff0000;stroke-linecap:square;stroke-width:1.5;"/>
   </g>
   <g id="line2d_32">
    <path clip-path="url(#p4273e80caf)" d="M 92.290909 358.171025 
L 92.391409 358.171025 
L 92.491909 358.171025 
L 92.793408 362.616847 
L 93.094907 363.438709 
L 94.200405 365.969009 
L 94.702904 366.176093 
L 95.607402 366.218157 
L 96.7129 366.1405 
L 97.215399 365.823404 
L 98.119897 364.868879 
L 99.024396 363.681385 
L 100.129893 359.368226 
L 100.632392 358.455765 
L 101.034391 358.012477 
L 101.93889 357.711559 
L 102.541888 357.608017 
L 102.943888 357.957471 
L 103.546886 358.035127 
L 106.059381 357.844222 
L 110.079373 357.695381 
L 111.084371 357.805394 
L 112.089369 357.954235 
L 115.908361 358.090133 
L 120.430852 358.125726 
L 498.109091 358.171025 
L 498.109091 358.171025 
" style="fill:none;stroke:#008000;stroke-linecap:square;stroke-width:1.5;"/>
   </g>
   <g id="line2d_33">
    <path clip-path="url(#p4273e80caf)" d="M 92.290909 358.171025 
L 92.391409 358.171025 
L 92.491909 358.171025 
L 92.994408 362.791574 
L 93.396407 365.884882 
L 93.697906 366.64203 
L 93.999406 366.790872 
L 94.602404 366.690566 
L 96.7129 366.104908 
L 97.315899 365.260396 
L 98.622396 363.386938 
L 99.124895 362.658911 
L 100.833392 358.209853 
L 101.134891 357.918642 
L 102.039389 357.543304 
L 102.642388 357.446233 
L 103.647386 357.685674 
L 105.255383 357.737444 
L 111.48637 357.834515 
L 112.993867 357.973649 
L 116.310361 358.080426 
L 173.092746 358.190439 
L 177.012238 358.206618 
L 497.204593 358.171025 
L 497.204593 358.171025 
" style="fill:none;stroke:#0000ff;stroke-linecap:square;stroke-width:1.5;"/>
   </g>
   <g id="line2d_34">
    <path clip-path="url(#p4273e80caf)" d="M 92.290909 358.171025 
L 92.391409 358.171025 
L 92.491909 358.171025 
L 92.692908 358.824632 
L 92.893908 361.950297 
L 93.195407 366.224628 
L 93.396407 367.065904 
L 93.597406 367.230924 
L 93.999406 367.078847 
L 95.004404 366.739101 
L 96.210401 366.477011 
L 96.511901 366.040194 
L 98.320897 362.610376 
L 99.526895 360.901938 
L 100.833392 358.222796 
L 101.134891 357.915407 
L 102.039389 357.507711 
L 102.843388 357.38152 
L 106.059381 357.692145 
L 123.244847 358.135433 
L 184.851222 358.245446 
L 188.569715 358.255153 
L 497.204593 358.171025 
L 497.204593 358.171025 
" style="fill:none;stroke:#000000;stroke-linecap:square;stroke-width:1.5;"/>
   </g>
   <g id="line2d_35">
    <path clip-path="url(#p4273e80caf)" d="M 92.290909 358.171025 
L 92.592408 358.229267 
L 92.692908 359.999183 
L 92.893908 366.127558 
L 93.094907 367.085318 
L 93.597406 366.499661 
L 93.999406 366.54496 
L 94.903904 366.648502 
L 95.908902 366.599967 
L 96.109901 366.32817 
L 96.6124 364.703859 
L 97.215399 363.001893 
L 97.818398 361.898526 
L 98.521897 361.054014 
L 99.828394 359.662673 
L 101.034391 357.983356 
L 101.93889 357.595075 
L 102.843388 357.423584 
L 103.948886 357.52389 
L 106.56188 357.753623 
L 109.777874 357.850693 
L 121.83785 358.128961 
L 156.10828 358.018948 
L 160.228772 357.996299 
L 185.554721 358.106312 
L 189.574713 358.125726 
L 497.204593 358.171025 
L 497.204593 358.171025 
" style="fill:none;stroke:#bfbf00;stroke-linecap:square;stroke-width:1.5;"/>
   </g>
   <g id="line2d_36">
    <path clip-path="url(#p4273e80caf)" d="M 92.290909 358.171025 
L 92.592408 358.187204 
L 92.793408 369.36 
L 93.094907 366.059608 
L 93.295907 365.580728 
L 93.496907 365.687505 
L 94.200405 366.302284 
L 94.803404 366.477011 
L 95.808402 366.541724 
L 96.009402 365.719862 
L 96.6124 362.639497 
L 97.114899 361.31934 
L 97.717898 360.455414 
L 98.421397 359.866521 
L 100.230393 358.653141 
L 101.034391 358.00277 
L 102.139889 357.685674 
L 103.144887 357.595075 
L 110.581872 357.963942 
L 113.596866 358.073955 
L 118.822856 358.132197 
L 497.204593 358.171025 
L 497.204593 358.171025 
" style="fill:none;stroke:#bf00bf;stroke-linecap:square;stroke-width:1.5;"/>
   </g>
   <g id="line2d_37">
    <path clip-path="url(#p4273e80caf)" d="M 92.290909 358.171025 
L 92.592408 358.174261 
L 92.793408 366.127558 
L 92.994408 367.635384 
L 93.094907 367.625677 
L 93.999406 366.506132 
L 94.501905 366.409062 
L 95.707902 366.460832 
L 96.210401 361.487595 
L 96.511901 360.351872 
L 96.9139 359.659437 
L 97.516899 359.177321 
L 98.421397 358.831104 
L 100.632392 358.148376 
L 102.039389 357.675967 
L 103.245387 357.553011 
L 104.953884 357.714795 
L 108.169877 357.915407 
L 118.320357 358.132197 
L 497.204593 358.171025 
L 497.204593 358.171025 
" style="fill:none;stroke:#00bfbf;stroke-linecap:square;stroke-width:1.5;"/>
   </g>
   <g id="line2d_38">
    <path clip-path="url(#p4273e80caf)" d="M 92.290909 358.171025 
L 92.391409 228.743903 
L 92.592408 325.814245 
L 92.893908 360.093018 
L 93.094907 366.311991 
L 93.295907 367.716276 
L 93.396407 367.755104 
L 93.697906 367.247102 
L 94.099905 366.677623 
L 94.501905 366.457597 
L 95.104903 366.415533 
L 95.707902 366.366998 
L 95.908902 358.171025 
L 498.109091 358.171025 
L 498.109091 358.171025 
" style="fill:none;stroke:#ff0000;stroke-linecap:square;stroke-width:1.5;"/>
   </g>
   <g id="patch_3">
    <path d="M 72 384.48 
L 72 51.84 
" style="fill:none;stroke:#000000;stroke-linecap:square;stroke-linejoin:miter;stroke-width:0.8;"/>
   </g>
   <g id="patch_4">
    <path d="M 518.4 384.48 
L 518.4 51.84 
" style="fill:none;stroke:#000000;stroke-linecap:square;stroke-linejoin:miter;stroke-width:0.8;"/>
   </g>
   <g id="patch_5">
    <path d="M 72 384.48 
L 518.4 384.48 
" style="fill:none;stroke:#000000;stroke-linecap:square;stroke-linejoin:miter;stroke-width:0.8;"/>
   </g>
   <g id="patch_6">
    <path d="M 72 51.84 
L 518.4 51.84 
" style="fill:none;stroke:#000000;stroke-linecap:square;stroke-linejoin:miter;stroke-width:0.8;"/>
   </g>
   <g id="text_17">
    <!-- dif_generated_power -->
    <g transform="translate(221.553437 45.84)scale(0.14 -0.14)">
     <use xlink:href="#DejaVuSans-64"/>
     <use x="63.476562" xlink:href="#DejaVuSans-69"/>
     <use x="91.259766" xlink:href="#DejaVuSans-66"/>
     <use x="126.464844" xlink:href="#DejaVuSans-5f"/>
     <use x="176.464844" xlink:href="#DejaVuSans-67"/>
     <use x="239.941406" xlink:href="#DejaVuSans-65"/>
     <use x="301.464844" xlink:href="#DejaVuSans-6e"/>
     <use x="364.84375" xlink:href="#DejaVuSans-65"/>
     <use x="426.367188" xlink:href="#DejaVuSans-72"/>
     <use x="467.480469" xlink:href="#DejaVuSans-61"/>
     <use x="528.759766" xlink:href="#DejaVuSans-74"/>
     <use x="567.96875" xlink:href="#DejaVuSans-65"/>
     <use x="629.492188" xlink:href="#DejaVuSans-64"/>
     <use x="692.96875" xlink:href="#DejaVuSans-5f"/>
     <use x="742.96875" xlink:href="#DejaVuSans-70"/>
     <use x="806.445312" xlink:href="#DejaVuSans-6f"/>
     <use x="867.626953" xlink:href="#DejaVuSans-77"/>
     <use x="949.414062" xlink:href="#DejaVuSans-65"/>
     <use x="1010.9375" xlink:href="#DejaVuSans-72"/>
    </g>
   </g>
   <g id="legend_1">
    <g id="patch_7">
     <path d="M 361.465625 209.4025 
L 511.4 209.4025 
Q 513.4 209.4025 513.4 207.4025 
L 513.4 58.84 
Q 513.4 56.84 511.4 56.84 
L 361.465625 56.84 
Q 359.465625 56.84 359.465625 58.84 
L 359.465625 207.4025 
Q 359.465625 209.4025 361.465625 209.4025 
z
" style="fill:#ffffff;opacity:0.8;stroke:#cccccc;stroke-linejoin:miter;"/>
    </g>
    <g id="line2d_39">
     <path d="M 363.465625 64.938437 
L 383.465625 64.938437 
" style="fill:none;stroke:#bf00bf;stroke-linecap:square;stroke-width:1.5;"/>
    </g>
    <g id="line2d_40"/>
    <g id="text_18">
     <!-- dif_generated_power1 -->
     <g transform="translate(391.465625 68.438437)scale(0.1 -0.1)">
      <use xlink:href="#DejaVuSans-64"/>
      <use x="63.476562" xlink:href="#DejaVuSans-69"/>
      <use x="91.259766" xlink:href="#DejaVuSans-66"/>
      <use x="126.464844" xlink:href="#DejaVuSans-5f"/>
      <use x="176.464844" xlink:href="#DejaVuSans-67"/>
      <use x="239.941406" xlink:href="#DejaVuSans-65"/>
      <use x="301.464844" xlink:href="#DejaVuSans-6e"/>
      <use x="364.84375" xlink:href="#DejaVuSans-65"/>
      <use x="426.367188" xlink:href="#DejaVuSans-72"/>
      <use x="467.480469" xlink:href="#DejaVuSans-61"/>
      <use x="528.759766" xlink:href="#DejaVuSans-74"/>
      <use x="567.96875" xlink:href="#DejaVuSans-65"/>
      <use x="629.492188" xlink:href="#DejaVuSans-64"/>
      <use x="692.96875" xlink:href="#DejaVuSans-5f"/>
      <use x="742.96875" xlink:href="#DejaVuSans-70"/>
      <use x="806.445312" xlink:href="#DejaVuSans-6f"/>
      <use x="867.626953" xlink:href="#DejaVuSans-77"/>
      <use x="949.414062" xlink:href="#DejaVuSans-65"/>
      <use x="1010.9375" xlink:href="#DejaVuSans-72"/>
      <use x="1052.050781" xlink:href="#DejaVuSans-31"/>
     </g>
    </g>
    <g id="line2d_41">
     <path d="M 363.465625 79.894687 
L 383.465625 79.894687 
" style="fill:none;stroke:#00bfbf;stroke-linecap:square;stroke-width:1.5;"/>
    </g>
    <g id="line2d_42"/>
    <g id="text_19">
     <!-- dif_generated_power2 -->
     <g transform="translate(391.465625 83.394687)scale(0.1 -0.1)">
      <use xlink:href="#DejaVuSans-64"/>
      <use x="63.476562" xlink:href="#DejaVuSans-69"/>
      <use x="91.259766" xlink:href="#DejaVuSans-66"/>
      <use x="126.464844" xlink:href="#DejaVuSans-5f"/>
      <use x="176.464844" xlink:href="#DejaVuSans-67"/>
      <use x="239.941406" xlink:href="#DejaVuSans-65"/>
      <use x="301.464844" xlink:href="#DejaVuSans-6e"/>
      <use x="364.84375" xlink:href="#DejaVuSans-65"/>
      <use x="426.367188" xlink:href="#DejaVuSans-72"/>
      <use x="467.480469" xlink:href="#DejaVuSans-61"/>
      <use x="528.759766" xlink:href="#DejaVuSans-74"/>
      <use x="567.96875" xlink:href="#DejaVuSans-65"/>
      <use x="629.492188" xlink:href="#DejaVuSans-64"/>
      <use x="692.96875" xlink:href="#DejaVuSans-5f"/>
      <use x="742.96875" xlink:href="#DejaVuSans-70"/>
      <use x="806.445312" xlink:href="#DejaVuSans-6f"/>
      <use x="867.626953" xlink:href="#DejaVuSans-77"/>
      <use x="949.414062" xlink:href="#DejaVuSans-65"/>
      <use x="1010.9375" xlink:href="#DejaVuSans-72"/>
      <use x="1052.050781" xlink:href="#DejaVuSans-32"/>
     </g>
    </g>
    <g id="line2d_43">
     <path d="M 363.465625 94.850937 
L 383.465625 94.850937 
" style="fill:none;stroke:#ff0000;stroke-linecap:square;stroke-width:1.5;"/>
    </g>
    <g id="line2d_44"/>
    <g id="text_20">
     <!-- dif_generated_power3 -->
     <g transform="translate(391.465625 98.350937)scale(0.1 -0.1)">
      <use xlink:href="#DejaVuSans-64"/>
      <use x="63.476562" xlink:href="#DejaVuSans-69"/>
      <use x="91.259766" xlink:href="#DejaVuSans-66"/>
      <use x="126.464844" xlink:href="#DejaVuSans-5f"/>
      <use x="176.464844" xlink:href="#DejaVuSans-67"/>
      <use x="239.941406" xlink:href="#DejaVuSans-65"/>
      <use x="301.464844" xlink:href="#DejaVuSans-6e"/>
      <use x="364.84375" xlink:href="#DejaVuSans-65"/>
      <use x="426.367188" xlink:href="#DejaVuSans-72"/>
      <use x="467.480469" xlink:href="#DejaVuSans-61"/>
      <use x="528.759766" xlink:href="#DejaVuSans-74"/>
      <use x="567.96875" xlink:href="#DejaVuSans-65"/>
      <use x="629.492188" xlink:href="#DejaVuSans-64"/>
      <use x="692.96875" xlink:href="#DejaVuSans-5f"/>
      <use x="742.96875" xlink:href="#DejaVuSans-70"/>
      <use x="806.445312" xlink:href="#DejaVuSans-6f"/>
      <use x="867.626953" xlink:href="#DejaVuSans-77"/>
      <use x="949.414062" xlink:href="#DejaVuSans-65"/>
      <use x="1010.9375" xlink:href="#DejaVuSans-72"/>
      <use x="1052.050781" xlink:href="#DejaVuSans-33"/>
     </g>
    </g>
    <g id="line2d_45">
     <path d="M 363.465625 109.807187 
L 383.465625 109.807187 
" style="fill:none;stroke:#008000;stroke-linecap:square;stroke-width:1.5;"/>
    </g>
    <g id="line2d_46"/>
    <g id="text_21">
     <!-- dif_generated_power4 -->
     <g transform="translate(391.465625 113.307187)scale(0.1 -0.1)">
      <use xlink:href="#DejaVuSans-64"/>
      <use x="63.476562" xlink:href="#DejaVuSans-69"/>
      <use x="91.259766" xlink:href="#DejaVuSans-66"/>
      <use x="126.464844" xlink:href="#DejaVuSans-5f"/>
      <use x="176.464844" xlink:href="#DejaVuSans-67"/>
      <use x="239.941406" xlink:href="#DejaVuSans-65"/>
      <use x="301.464844" xlink:href="#DejaVuSans-6e"/>
      <use x="364.84375" xlink:href="#DejaVuSans-65"/>
      <use x="426.367188" xlink:href="#DejaVuSans-72"/>
      <use x="467.480469" xlink:href="#DejaVuSans-61"/>
      <use x="528.759766" xlink:href="#DejaVuSans-74"/>
      <use x="567.96875" xlink:href="#DejaVuSans-65"/>
      <use x="629.492188" xlink:href="#DejaVuSans-64"/>
      <use x="692.96875" xlink:href="#DejaVuSans-5f"/>
      <use x="742.96875" xlink:href="#DejaVuSans-70"/>
      <use x="806.445312" xlink:href="#DejaVuSans-6f"/>
      <use x="867.626953" xlink:href="#DejaVuSans-77"/>
      <use x="949.414062" xlink:href="#DejaVuSans-65"/>
      <use x="1010.9375" xlink:href="#DejaVuSans-72"/>
      <use x="1052.050781" xlink:href="#DejaVuSans-34"/>
     </g>
    </g>
    <g id="line2d_47">
     <path d="M 363.465625 124.763438 
L 383.465625 124.763438 
" style="fill:none;stroke:#0000ff;stroke-linecap:square;stroke-width:1.5;"/>
    </g>
    <g id="line2d_48"/>
    <g id="text_22">
     <!-- dif_generated_power5 -->
     <g transform="translate(391.465625 128.263438)scale(0.1 -0.1)">
      <use xlink:href="#DejaVuSans-64"/>
      <use x="63.476562" xlink:href="#DejaVuSans-69"/>
      <use x="91.259766" xlink:href="#DejaVuSans-66"/>
      <use x="126.464844" xlink:href="#DejaVuSans-5f"/>
      <use x="176.464844" xlink:href="#DejaVuSans-67"/>
      <use x="239.941406" xlink:href="#DejaVuSans-65"/>
      <use x="301.464844" xlink:href="#DejaVuSans-6e"/>
      <use x="364.84375" xlink:href="#DejaVuSans-65"/>
      <use x="426.367188" xlink:href="#DejaVuSans-72"/>
      <use x="467.480469" xlink:href="#DejaVuSans-61"/>
      <use x="528.759766" xlink:href="#DejaVuSans-74"/>
      <use x="567.96875" xlink:href="#DejaVuSans-65"/>
      <use x="629.492188" xlink:href="#DejaVuSans-64"/>
      <use x="692.96875" xlink:href="#DejaVuSans-5f"/>
      <use x="742.96875" xlink:href="#DejaVuSans-70"/>
      <use x="806.445312" xlink:href="#DejaVuSans-6f"/>
      <use x="867.626953" xlink:href="#DejaVuSans-77"/>
      <use x="949.414062" xlink:href="#DejaVuSans-65"/>
      <use x="1010.9375" xlink:href="#DejaVuSans-72"/>
      <use x="1052.050781" xlink:href="#DejaVuSans-35"/>
     </g>
    </g>
    <g id="line2d_49">
     <path d="M 363.465625 139.719687 
L 383.465625 139.719687 
" style="fill:none;stroke:#000000;stroke-linecap:square;stroke-width:1.5;"/>
    </g>
    <g id="line2d_50"/>
    <g id="text_23">
     <!-- dif_generated_power6 -->
     <g transform="translate(391.465625 143.219687)scale(0.1 -0.1)">
      <use xlink:href="#DejaVuSans-64"/>
      <use x="63.476562" xlink:href="#DejaVuSans-69"/>
      <use x="91.259766" xlink:href="#DejaVuSans-66"/>
      <use x="126.464844" xlink:href="#DejaVuSans-5f"/>
      <use x="176.464844" xlink:href="#DejaVuSans-67"/>
      <use x="239.941406" xlink:href="#DejaVuSans-65"/>
      <use x="301.464844" xlink:href="#DejaVuSans-6e"/>
      <use x="364.84375" xlink:href="#DejaVuSans-65"/>
      <use x="426.367188" xlink:href="#DejaVuSans-72"/>
      <use x="467.480469" xlink:href="#DejaVuSans-61"/>
      <use x="528.759766" xlink:href="#DejaVuSans-74"/>
      <use x="567.96875" xlink:href="#DejaVuSans-65"/>
      <use x="629.492188" xlink:href="#DejaVuSans-64"/>
      <use x="692.96875" xlink:href="#DejaVuSans-5f"/>
      <use x="742.96875" xlink:href="#DejaVuSans-70"/>
      <use x="806.445312" xlink:href="#DejaVuSans-6f"/>
      <use x="867.626953" xlink:href="#DejaVuSans-77"/>
      <use x="949.414062" xlink:href="#DejaVuSans-65"/>
      <use x="1010.9375" xlink:href="#DejaVuSans-72"/>
      <use x="1052.050781" xlink:href="#DejaVuSans-36"/>
     </g>
    </g>
    <g id="line2d_51">
     <path d="M 363.465625 154.675937 
L 383.465625 154.675937 
" style="fill:none;stroke:#bfbf00;stroke-linecap:square;stroke-width:1.5;"/>
    </g>
    <g id="line2d_52"/>
    <g id="text_24">
     <!-- dif_generated_power7 -->
     <defs>
      <path d="M 8.203125 72.90625 
L 55.078125 72.90625 
L 55.078125 68.703125 
L 28.609375 0 
L 18.3125 0 
L 43.21875 64.59375 
L 8.203125 64.59375 
z
" id="DejaVuSans-37"/>
     </defs>
     <g transform="translate(391.465625 158.175937)scale(0.1 -0.1)">
      <use xlink:href="#DejaVuSans-64"/>
      <use x="63.476562" xlink:href="#DejaVuSans-69"/>
      <use x="91.259766" xlink:href="#DejaVuSans-66"/>
      <use x="126.464844" xlink:href="#DejaVuSans-5f"/>
      <use x="176.464844" xlink:href="#DejaVuSans-67"/>
      <use x="239.941406" xlink:href="#DejaVuSans-65"/>
      <use x="301.464844" xlink:href="#DejaVuSans-6e"/>
      <use x="364.84375" xlink:href="#DejaVuSans-65"/>
      <use x="426.367188" xlink:href="#DejaVuSans-72"/>
      <use x="467.480469" xlink:href="#DejaVuSans-61"/>
      <use x="528.759766" xlink:href="#DejaVuSans-74"/>
      <use x="567.96875" xlink:href="#DejaVuSans-65"/>
      <use x="629.492188" xlink:href="#DejaVuSans-64"/>
      <use x="692.96875" xlink:href="#DejaVuSans-5f"/>
      <use x="742.96875" xlink:href="#DejaVuSans-70"/>
      <use x="806.445312" xlink:href="#DejaVuSans-6f"/>
      <use x="867.626953" xlink:href="#DejaVuSans-77"/>
      <use x="949.414062" xlink:href="#DejaVuSans-65"/>
      <use x="1010.9375" xlink:href="#DejaVuSans-72"/>
      <use x="1052.050781" xlink:href="#DejaVuSans-37"/>
     </g>
    </g>
    <g id="line2d_53">
     <path d="M 363.465625 169.632187 
L 383.465625 169.632187 
" style="fill:none;stroke:#bf00bf;stroke-linecap:square;stroke-width:1.5;"/>
    </g>
    <g id="line2d_54"/>
    <g id="text_25">
     <!-- dif_generated_power8 -->
     <g transform="translate(391.465625 173.132187)scale(0.1 -0.1)">
      <use xlink:href="#DejaVuSans-64"/>
      <use x="63.476562" xlink:href="#DejaVuSans-69"/>
      <use x="91.259766" xlink:href="#DejaVuSans-66"/>
      <use x="126.464844" xlink:href="#DejaVuSans-5f"/>
      <use x="176.464844" xlink:href="#DejaVuSans-67"/>
      <use x="239.941406" xlink:href="#DejaVuSans-65"/>
      <use x="301.464844" xlink:href="#DejaVuSans-6e"/>
      <use x="364.84375" xlink:href="#DejaVuSans-65"/>
      <use x="426.367188" xlink:href="#DejaVuSans-72"/>
      <use x="467.480469" xlink:href="#DejaVuSans-61"/>
      <use x="528.759766" xlink:href="#DejaVuSans-74"/>
      <use x="567.96875" xlink:href="#DejaVuSans-65"/>
      <use x="629.492188" xlink:href="#DejaVuSans-64"/>
      <use x="692.96875" xlink:href="#DejaVuSans-5f"/>
      <use x="742.96875" xlink:href="#DejaVuSans-70"/>
      <use x="806.445312" xlink:href="#DejaVuSans-6f"/>
      <use x="867.626953" xlink:href="#DejaVuSans-77"/>
      <use x="949.414062" xlink:href="#DejaVuSans-65"/>
      <use x="1010.9375" xlink:href="#DejaVuSans-72"/>
      <use x="1052.050781" xlink:href="#DejaVuSans-38"/>
     </g>
    </g>
    <g id="line2d_55">
     <path d="M 363.465625 184.588437 
L 383.465625 184.588437 
" style="fill:none;stroke:#00bfbf;stroke-linecap:square;stroke-width:1.5;"/>
    </g>
    <g id="line2d_56"/>
    <g id="text_26">
     <!-- dif_generated_power9 -->
     <defs>
      <path d="M 10.984375 1.515625 
L 10.984375 10.5 
Q 14.703125 8.734375 18.5 7.8125 
Q 22.3125 6.890625 25.984375 6.890625 
Q 35.75 6.890625 40.890625 13.453125 
Q 46.046875 20.015625 46.78125 33.40625 
Q 43.953125 29.203125 39.59375 26.953125 
Q 35.25 24.703125 29.984375 24.703125 
Q 19.046875 24.703125 12.671875 31.3125 
Q 6.296875 37.9375 6.296875 49.421875 
Q 6.296875 60.640625 12.9375 67.421875 
Q 19.578125 74.21875 30.609375 74.21875 
Q 43.265625 74.21875 49.921875 64.515625 
Q 56.59375 54.828125 56.59375 36.375 
Q 56.59375 19.140625 48.40625 8.859375 
Q 40.234375 -1.421875 26.421875 -1.421875 
Q 22.703125 -1.421875 18.890625 -0.6875 
Q 15.09375 0.046875 10.984375 1.515625 
z
M 30.609375 32.421875 
Q 37.25 32.421875 41.125 36.953125 
Q 45.015625 41.5 45.015625 49.421875 
Q 45.015625 57.28125 41.125 61.84375 
Q 37.25 66.40625 30.609375 66.40625 
Q 23.96875 66.40625 20.09375 61.84375 
Q 16.21875 57.28125 16.21875 49.421875 
Q 16.21875 41.5 20.09375 36.953125 
Q 23.96875 32.421875 30.609375 32.421875 
z
" id="DejaVuSans-39"/>
     </defs>
     <g transform="translate(391.465625 188.088437)scale(0.1 -0.1)">
      <use xlink:href="#DejaVuSans-64"/>
      <use x="63.476562" xlink:href="#DejaVuSans-69"/>
      <use x="91.259766" xlink:href="#DejaVuSans-66"/>
      <use x="126.464844" xlink:href="#DejaVuSans-5f"/>
      <use x="176.464844" xlink:href="#DejaVuSans-67"/>
      <use x="239.941406" xlink:href="#DejaVuSans-65"/>
      <use x="301.464844" xlink:href="#DejaVuSans-6e"/>
      <use x="364.84375" xlink:href="#DejaVuSans-65"/>
      <use x="426.367188" xlink:href="#DejaVuSans-72"/>
      <use x="467.480469" xlink:href="#DejaVuSans-61"/>
      <use x="528.759766" xlink:href="#DejaVuSans-74"/>
      <use x="567.96875" xlink:href="#DejaVuSans-65"/>
      <use x="629.492188" xlink:href="#DejaVuSans-64"/>
      <use x="692.96875" xlink:href="#DejaVuSans-5f"/>
      <use x="742.96875" xlink:href="#DejaVuSans-70"/>
      <use x="806.445312" xlink:href="#DejaVuSans-6f"/>
      <use x="867.626953" xlink:href="#DejaVuSans-77"/>
      <use x="949.414062" xlink:href="#DejaVuSans-65"/>
      <use x="1010.9375" xlink:href="#DejaVuSans-72"/>
      <use x="1052.050781" xlink:href="#DejaVuSans-39"/>
     </g>
    </g>
    <g id="line2d_57">
     <path d="M 363.465625 199.544687 
L 383.465625 199.544687 
" style="fill:none;stroke:#ff0000;stroke-linecap:square;stroke-width:1.5;"/>
    </g>
    <g id="line2d_58"/>
    <g id="text_27">
     <!-- dif_generated_power10 -->
     <g transform="translate(391.465625 203.044687)scale(0.1 -0.1)">
      <use xlink:href="#DejaVuSans-64"/>
      <use x="63.476562" xlink:href="#DejaVuSans-69"/>
      <use x="91.259766" xlink:href="#DejaVuSans-66"/>
      <use x="126.464844" xlink:href="#DejaVuSans-5f"/>
      <use x="176.464844" xlink:href="#DejaVuSans-67"/>
      <use x="239.941406" xlink:href="#DejaVuSans-65"/>
      <use x="301.464844" xlink:href="#DejaVuSans-6e"/>
      <use x="364.84375" xlink:href="#DejaVuSans-65"/>
      <use x="426.367188" xlink:href="#DejaVuSans-72"/>
      <use x="467.480469" xlink:href="#DejaVuSans-61"/>
      <use x="528.759766" xlink:href="#DejaVuSans-74"/>
      <use x="567.96875" xlink:href="#DejaVuSans-65"/>
      <use x="629.492188" xlink:href="#DejaVuSans-64"/>
      <use x="692.96875" xlink:href="#DejaVuSans-5f"/>
      <use x="742.96875" xlink:href="#DejaVuSans-70"/>
      <use x="806.445312" xlink:href="#DejaVuSans-6f"/>
      <use x="867.626953" xlink:href="#DejaVuSans-77"/>
      <use x="949.414062" xlink:href="#DejaVuSans-65"/>
      <use x="1010.9375" xlink:href="#DejaVuSans-72"/>
      <use x="1052.050781" xlink:href="#DejaVuSans-31"/>
      <use x="1115.673828" xlink:href="#DejaVuSans-30"/>
     </g>
    </g>
   </g>
  </g>
 </g>
 <defs>
  <clipPath id="p4273e80caf">
   <rect height="332.64" width="446.4" x="72" y="51.84"/>
  </clipPath>
 </defs>
</svg>
