<?xml version="1.0" encoding="utf-8" standalone="no"?>
<!DOCTYPE svg PUBLIC "-//W3C//DTD SVG 1.1//EN"
  "http://www.w3.org/Graphics/SVG/1.1/DTD/svg11.dtd">
<!-- Created with matplotlib (http://matplotlib.org/) -->
<svg height="432pt" version="1.1" viewBox="0 0 576 432" width="576pt" xmlns="http://www.w3.org/2000/svg" xmlns:xlink="http://www.w3.org/1999/xlink">
 <defs>
  <style type="text/css">
*{stroke-linecap:butt;stroke-linejoin:round;}
  </style>
 </defs>
 <g id="figure_1">
  <g id="patch_1">
   <path d="M 0 432 
L 576 432 
L 576 0 
L 0 0 
z
" style="fill:#ffffff;"/>
  </g>
  <g id="axes_1">
   <g id="patch_2">
    <path d="M 72 384.48 
L 518.4 384.48 
L 518.4 51.84 
L 72 51.84 
z
" style="fill:#ffffff;"/>
   </g>
   <g id="matplotlib.axis_1">
    <g id="xtick_1">
     <g id="line2d_1">
      <path clip-path="url(#pe46de44751)" d="M 92.290909 384.48 
L 92.290909 51.84 
" style="fill:none;stroke:#b0b0b0;stroke-dasharray:5.12,1.28,0.8,1.28;stroke-dashoffset:0;stroke-width:0.8;"/>
     </g>
     <g id="line2d_2">
      <defs>
       <path d="M 0 0 
L 0 3.5 
" id="mee0cb06eae" style="stroke:#000000;stroke-width:0.8;"/>
      </defs>
      <g>
       <use style="stroke:#000000;stroke-width:0.8;" x="92.290909" xlink:href="#mee0cb06eae" y="384.48"/>
      </g>
     </g>
     <g id="text_1">
      <!-- 0 -->
      <defs>
       <path d="M 31.78125 66.40625 
Q 24.171875 66.40625 20.328125 58.90625 
Q 16.5 51.421875 16.5 36.375 
Q 16.5 21.390625 20.328125 13.890625 
Q 24.171875 6.390625 31.78125 6.390625 
Q 39.453125 6.390625 43.28125 13.890625 
Q 47.125 21.390625 47.125 36.375 
Q 47.125 51.421875 43.28125 58.90625 
Q 39.453125 66.40625 31.78125 66.40625 
z
M 31.78125 74.21875 
Q 44.046875 74.21875 50.515625 64.515625 
Q 56.984375 54.828125 56.984375 36.375 
Q 56.984375 17.96875 50.515625 8.265625 
Q 44.046875 -1.421875 31.78125 -1.421875 
Q 19.53125 -1.421875 13.0625 8.265625 
Q 6.59375 17.96875 6.59375 36.375 
Q 6.59375 54.828125 13.0625 64.515625 
Q 19.53125 74.21875 31.78125 74.21875 
z
" id="DejaVuSans-30"/>
      </defs>
      <g transform="translate(89.109659 399.078438)scale(0.1 -0.1)">
       <use xlink:href="#DejaVuSans-30"/>
      </g>
     </g>
    </g>
    <g id="xtick_2">
     <g id="line2d_3">
      <path clip-path="url(#pe46de44751)" d="M 142.540808 384.48 
L 142.540808 51.84 
" style="fill:none;stroke:#b0b0b0;stroke-dasharray:5.12,1.28,0.8,1.28;stroke-dashoffset:0;stroke-width:0.8;"/>
     </g>
     <g id="line2d_4">
      <g>
       <use style="stroke:#000000;stroke-width:0.8;" x="142.540808" xlink:href="#mee0cb06eae" y="384.48"/>
      </g>
     </g>
     <g id="text_2">
      <!-- 500 -->
      <defs>
       <path d="M 10.796875 72.90625 
L 49.515625 72.90625 
L 49.515625 64.59375 
L 19.828125 64.59375 
L 19.828125 46.734375 
Q 21.96875 47.46875 24.109375 47.828125 
Q 26.265625 48.1875 28.421875 48.1875 
Q 40.625 48.1875 47.75 41.5 
Q 54.890625 34.8125 54.890625 23.390625 
Q 54.890625 11.625 47.5625 5.09375 
Q 40.234375 -1.421875 26.90625 -1.421875 
Q 22.3125 -1.421875 17.546875 -0.640625 
Q 12.796875 0.140625 7.71875 1.703125 
L 7.71875 11.625 
Q 12.109375 9.234375 16.796875 8.0625 
Q 21.484375 6.890625 26.703125 6.890625 
Q 35.15625 6.890625 40.078125 11.328125 
Q 45.015625 15.765625 45.015625 23.390625 
Q 45.015625 31 40.078125 35.4375 
Q 35.15625 39.890625 26.703125 39.890625 
Q 22.75 39.890625 18.8125 39.015625 
Q 14.890625 38.140625 10.796875 36.28125 
z
" id="DejaVuSans-35"/>
      </defs>
      <g transform="translate(132.997058 399.078438)scale(0.1 -0.1)">
       <use xlink:href="#DejaVuSans-35"/>
       <use x="63.623047" xlink:href="#DejaVuSans-30"/>
       <use x="127.246094" xlink:href="#DejaVuSans-30"/>
      </g>
     </g>
    </g>
    <g id="xtick_3">
     <g id="line2d_5">
      <path clip-path="url(#pe46de44751)" d="M 192.790706 384.48 
L 192.790706 51.84 
" style="fill:none;stroke:#b0b0b0;stroke-dasharray:5.12,1.28,0.8,1.28;stroke-dashoffset:0;stroke-width:0.8;"/>
     </g>
     <g id="line2d_6">
      <g>
       <use style="stroke:#000000;stroke-width:0.8;" x="192.790706" xlink:href="#mee0cb06eae" y="384.48"/>
      </g>
     </g>
     <g id="text_3">
      <!-- 1000 -->
      <defs>
       <path d="M 12.40625 8.296875 
L 28.515625 8.296875 
L 28.515625 63.921875 
L 10.984375 60.40625 
L 10.984375 69.390625 
L 28.421875 72.90625 
L 38.28125 72.90625 
L 38.28125 8.296875 
L 54.390625 8.296875 
L 54.390625 0 
L 12.40625 0 
z
" id="DejaVuSans-31"/>
      </defs>
      <g transform="translate(180.065706 399.078438)scale(0.1 -0.1)">
       <use xlink:href="#DejaVuSans-31"/>
       <use x="63.623047" xlink:href="#DejaVuSans-30"/>
       <use x="127.246094" xlink:href="#DejaVuSans-30"/>
       <use x="190.869141" xlink:href="#DejaVuSans-30"/>
      </g>
     </g>
    </g>
    <g id="xtick_4">
     <g id="line2d_7">
      <path clip-path="url(#pe46de44751)" d="M 243.040605 384.48 
L 243.040605 51.84 
" style="fill:none;stroke:#b0b0b0;stroke-dasharray:5.12,1.28,0.8,1.28;stroke-dashoffset:0;stroke-width:0.8;"/>
     </g>
     <g id="line2d_8">
      <g>
       <use style="stroke:#000000;stroke-width:0.8;" x="243.040605" xlink:href="#mee0cb06eae" y="384.48"/>
      </g>
     </g>
     <g id="text_4">
      <!-- 1500 -->
      <g transform="translate(230.315605 399.078438)scale(0.1 -0.1)">
       <use xlink:href="#DejaVuSans-31"/>
       <use x="63.623047" xlink:href="#DejaVuSans-35"/>
       <use x="127.246094" xlink:href="#DejaVuSans-30"/>
       <use x="190.869141" xlink:href="#DejaVuSans-30"/>
      </g>
     </g>
    </g>
    <g id="xtick_5">
     <g id="line2d_9">
      <path clip-path="url(#pe46de44751)" d="M 293.290504 384.48 
L 293.290504 51.84 
" style="fill:none;stroke:#b0b0b0;stroke-dasharray:5.12,1.28,0.8,1.28;stroke-dashoffset:0;stroke-width:0.8;"/>
     </g>
     <g id="line2d_10">
      <g>
       <use style="stroke:#000000;stroke-width:0.8;" x="293.290504" xlink:href="#mee0cb06eae" y="384.48"/>
      </g>
     </g>
     <g id="text_5">
      <!-- 2000 -->
      <defs>
       <path d="M 19.1875 8.296875 
L 53.609375 8.296875 
L 53.609375 0 
L 7.328125 0 
L 7.328125 8.296875 
Q 12.9375 14.109375 22.625 23.890625 
Q 32.328125 33.6875 34.8125 36.53125 
Q 39.546875 41.84375 41.421875 45.53125 
Q 43.3125 49.21875 43.3125 52.78125 
Q 43.3125 58.59375 39.234375 62.25 
Q 35.15625 65.921875 28.609375 65.921875 
Q 23.96875 65.921875 18.8125 64.3125 
Q 13.671875 62.703125 7.8125 59.421875 
L 7.8125 69.390625 
Q 13.765625 71.78125 18.9375 73 
Q 24.125 74.21875 28.421875 74.21875 
Q 39.75 74.21875 46.484375 68.546875 
Q 53.21875 62.890625 53.21875 53.421875 
Q 53.21875 48.921875 51.53125 44.890625 
Q 49.859375 40.875 45.40625 35.40625 
Q 44.1875 33.984375 37.640625 27.21875 
Q 31.109375 20.453125 19.1875 8.296875 
z
" id="DejaVuSans-32"/>
      </defs>
      <g transform="translate(280.565504 399.078438)scale(0.1 -0.1)">
       <use xlink:href="#DejaVuSans-32"/>
       <use x="63.623047" xlink:href="#DejaVuSans-30"/>
       <use x="127.246094" xlink:href="#DejaVuSans-30"/>
       <use x="190.869141" xlink:href="#DejaVuSans-30"/>
      </g>
     </g>
    </g>
    <g id="xtick_6">
     <g id="line2d_11">
      <path clip-path="url(#pe46de44751)" d="M 343.540403 384.48 
L 343.540403 51.84 
" style="fill:none;stroke:#b0b0b0;stroke-dasharray:5.12,1.28,0.8,1.28;stroke-dashoffset:0;stroke-width:0.8;"/>
     </g>
     <g id="line2d_12">
      <g>
       <use style="stroke:#000000;stroke-width:0.8;" x="343.540403" xlink:href="#mee0cb06eae" y="384.48"/>
      </g>
     </g>
     <g id="text_6">
      <!-- 2500 -->
      <g transform="translate(330.815403 399.078438)scale(0.1 -0.1)">
       <use xlink:href="#DejaVuSans-32"/>
       <use x="63.623047" xlink:href="#DejaVuSans-35"/>
       <use x="127.246094" xlink:href="#DejaVuSans-30"/>
       <use x="190.869141" xlink:href="#DejaVuSans-30"/>
      </g>
     </g>
    </g>
    <g id="xtick_7">
     <g id="line2d_13">
      <path clip-path="url(#pe46de44751)" d="M 393.790301 384.48 
L 393.790301 51.84 
" style="fill:none;stroke:#b0b0b0;stroke-dasharray:5.12,1.28,0.8,1.28;stroke-dashoffset:0;stroke-width:0.8;"/>
     </g>
     <g id="line2d_14">
      <g>
       <use style="stroke:#000000;stroke-width:0.8;" x="393.790301" xlink:href="#mee0cb06eae" y="384.48"/>
      </g>
     </g>
     <g id="text_7">
      <!-- 3000 -->
      <defs>
       <path d="M 40.578125 39.3125 
Q 47.65625 37.796875 51.625 33 
Q 55.609375 28.21875 55.609375 21.1875 
Q 55.609375 10.40625 48.1875 4.484375 
Q 40.765625 -1.421875 27.09375 -1.421875 
Q 22.515625 -1.421875 17.65625 -0.515625 
Q 12.796875 0.390625 7.625 2.203125 
L 7.625 11.71875 
Q 11.71875 9.328125 16.59375 8.109375 
Q 21.484375 6.890625 26.8125 6.890625 
Q 36.078125 6.890625 40.9375 10.546875 
Q 45.796875 14.203125 45.796875 21.1875 
Q 45.796875 27.640625 41.28125 31.265625 
Q 36.765625 34.90625 28.71875 34.90625 
L 20.21875 34.90625 
L 20.21875 43.015625 
L 29.109375 43.015625 
Q 36.375 43.015625 40.234375 45.921875 
Q 44.09375 48.828125 44.09375 54.296875 
Q 44.09375 59.90625 40.109375 62.90625 
Q 36.140625 65.921875 28.71875 65.921875 
Q 24.65625 65.921875 20.015625 65.03125 
Q 15.375 64.15625 9.8125 62.3125 
L 9.8125 71.09375 
Q 15.4375 72.65625 20.34375 73.4375 
Q 25.25 74.21875 29.59375 74.21875 
Q 40.828125 74.21875 47.359375 69.109375 
Q 53.90625 64.015625 53.90625 55.328125 
Q 53.90625 49.265625 50.4375 45.09375 
Q 46.96875 40.921875 40.578125 39.3125 
z
" id="DejaVuSans-33"/>
      </defs>
      <g transform="translate(381.065301 399.078438)scale(0.1 -0.1)">
       <use xlink:href="#DejaVuSans-33"/>
       <use x="63.623047" xlink:href="#DejaVuSans-30"/>
       <use x="127.246094" xlink:href="#DejaVuSans-30"/>
       <use x="190.869141" xlink:href="#DejaVuSans-30"/>
      </g>
     </g>
    </g>
    <g id="xtick_8">
     <g id="line2d_15">
      <path clip-path="url(#pe46de44751)" d="M 444.0402 384.48 
L 444.0402 51.84 
" style="fill:none;stroke:#b0b0b0;stroke-dasharray:5.12,1.28,0.8,1.28;stroke-dashoffset:0;stroke-width:0.8;"/>
     </g>
     <g id="line2d_16">
      <g>
       <use style="stroke:#000000;stroke-width:0.8;" x="444.0402" xlink:href="#mee0cb06eae" y="384.48"/>
      </g>
     </g>
     <g id="text_8">
      <!-- 3500 -->
      <g transform="translate(431.3152 399.078438)scale(0.1 -0.1)">
       <use xlink:href="#DejaVuSans-33"/>
       <use x="63.623047" xlink:href="#DejaVuSans-35"/>
       <use x="127.246094" xlink:href="#DejaVuSans-30"/>
       <use x="190.869141" xlink:href="#DejaVuSans-30"/>
      </g>
     </g>
    </g>
    <g id="xtick_9">
     <g id="line2d_17">
      <path clip-path="url(#pe46de44751)" d="M 494.290099 384.48 
L 494.290099 51.84 
" style="fill:none;stroke:#b0b0b0;stroke-dasharray:5.12,1.28,0.8,1.28;stroke-dashoffset:0;stroke-width:0.8;"/>
     </g>
     <g id="line2d_18">
      <g>
       <use style="stroke:#000000;stroke-width:0.8;" x="494.290099" xlink:href="#mee0cb06eae" y="384.48"/>
      </g>
     </g>
     <g id="text_9">
      <!-- 4000 -->
      <defs>
       <path d="M 37.796875 64.3125 
L 12.890625 25.390625 
L 37.796875 25.390625 
z
M 35.203125 72.90625 
L 47.609375 72.90625 
L 47.609375 25.390625 
L 58.015625 25.390625 
L 58.015625 17.1875 
L 47.609375 17.1875 
L 47.609375 0 
L 37.796875 0 
L 37.796875 17.1875 
L 4.890625 17.1875 
L 4.890625 26.703125 
z
" id="DejaVuSans-34"/>
      </defs>
      <g transform="translate(481.565099 399.078438)scale(0.1 -0.1)">
       <use xlink:href="#DejaVuSans-34"/>
       <use x="63.623047" xlink:href="#DejaVuSans-30"/>
       <use x="127.246094" xlink:href="#DejaVuSans-30"/>
       <use x="190.869141" xlink:href="#DejaVuSans-30"/>
      </g>
     </g>
    </g>
    <g id="text_10">
     <!-- Iteration -->
     <defs>
      <path d="M 9.8125 72.90625 
L 19.671875 72.90625 
L 19.671875 0 
L 9.8125 0 
z
" id="DejaVuSans-49"/>
      <path d="M 18.3125 70.21875 
L 18.3125 54.6875 
L 36.8125 54.6875 
L 36.8125 47.703125 
L 18.3125 47.703125 
L 18.3125 18.015625 
Q 18.3125 11.328125 20.140625 9.421875 
Q 21.96875 7.515625 27.59375 7.515625 
L 36.8125 7.515625 
L 36.8125 0 
L 27.59375 0 
Q 17.1875 0 13.234375 3.875 
Q 9.28125 7.765625 9.28125 18.015625 
L 9.28125 47.703125 
L 2.6875 47.703125 
L 2.6875 54.6875 
L 9.28125 54.6875 
L 9.28125 70.21875 
z
" id="DejaVuSans-74"/>
      <path d="M 56.203125 29.59375 
L 56.203125 25.203125 
L 14.890625 25.203125 
Q 15.484375 15.921875 20.484375 11.0625 
Q 25.484375 6.203125 34.421875 6.203125 
Q 39.59375 6.203125 44.453125 7.46875 
Q 49.3125 8.734375 54.109375 11.28125 
L 54.109375 2.78125 
Q 49.265625 0.734375 44.1875 -0.34375 
Q 39.109375 -1.421875 33.890625 -1.421875 
Q 20.796875 -1.421875 13.15625 6.1875 
Q 5.515625 13.8125 5.515625 26.8125 
Q 5.515625 40.234375 12.765625 48.109375 
Q 20.015625 56 32.328125 56 
Q 43.359375 56 49.78125 48.890625 
Q 56.203125 41.796875 56.203125 29.59375 
z
M 47.21875 32.234375 
Q 47.125 39.59375 43.09375 43.984375 
Q 39.0625 48.390625 32.421875 48.390625 
Q 24.90625 48.390625 20.390625 44.140625 
Q 15.875 39.890625 15.1875 32.171875 
z
" id="DejaVuSans-65"/>
      <path d="M 41.109375 46.296875 
Q 39.59375 47.171875 37.8125 47.578125 
Q 36.03125 48 33.890625 48 
Q 26.265625 48 22.1875 43.046875 
Q 18.109375 38.09375 18.109375 28.8125 
L 18.109375 0 
L 9.078125 0 
L 9.078125 54.6875 
L 18.109375 54.6875 
L 18.109375 46.1875 
Q 20.953125 51.171875 25.484375 53.578125 
Q 30.03125 56 36.53125 56 
Q 37.453125 56 38.578125 55.875 
Q 39.703125 55.765625 41.0625 55.515625 
z
" id="DejaVuSans-72"/>
      <path d="M 34.28125 27.484375 
Q 23.390625 27.484375 19.1875 25 
Q 14.984375 22.515625 14.984375 16.5 
Q 14.984375 11.71875 18.140625 8.90625 
Q 21.296875 6.109375 26.703125 6.109375 
Q 34.1875 6.109375 38.703125 11.40625 
Q 43.21875 16.703125 43.21875 25.484375 
L 43.21875 27.484375 
z
M 52.203125 31.203125 
L 52.203125 0 
L 43.21875 0 
L 43.21875 8.296875 
Q 40.140625 3.328125 35.546875 0.953125 
Q 30.953125 -1.421875 24.3125 -1.421875 
Q 15.921875 -1.421875 10.953125 3.296875 
Q 6 8.015625 6 15.921875 
Q 6 25.140625 12.171875 29.828125 
Q 18.359375 34.515625 30.609375 34.515625 
L 43.21875 34.515625 
L 43.21875 35.40625 
Q 43.21875 41.609375 39.140625 45 
Q 35.0625 48.390625 27.6875 48.390625 
Q 23 48.390625 18.546875 47.265625 
Q 14.109375 46.140625 10.015625 43.890625 
L 10.015625 52.203125 
Q 14.9375 54.109375 19.578125 55.046875 
Q 24.21875 56 28.609375 56 
Q 40.484375 56 46.34375 49.84375 
Q 52.203125 43.703125 52.203125 31.203125 
z
" id="DejaVuSans-61"/>
      <path d="M 9.421875 54.6875 
L 18.40625 54.6875 
L 18.40625 0 
L 9.421875 0 
z
M 9.421875 75.984375 
L 18.40625 75.984375 
L 18.40625 64.59375 
L 9.421875 64.59375 
z
" id="DejaVuSans-69"/>
      <path d="M 30.609375 48.390625 
Q 23.390625 48.390625 19.1875 42.75 
Q 14.984375 37.109375 14.984375 27.296875 
Q 14.984375 17.484375 19.15625 11.84375 
Q 23.34375 6.203125 30.609375 6.203125 
Q 37.796875 6.203125 41.984375 11.859375 
Q 46.1875 17.53125 46.1875 27.296875 
Q 46.1875 37.015625 41.984375 42.703125 
Q 37.796875 48.390625 30.609375 48.390625 
z
M 30.609375 56 
Q 42.328125 56 49.015625 48.375 
Q 55.71875 40.765625 55.71875 27.296875 
Q 55.71875 13.875 49.015625 6.21875 
Q 42.328125 -1.421875 30.609375 -1.421875 
Q 18.84375 -1.421875 12.171875 6.21875 
Q 5.515625 13.875 5.515625 27.296875 
Q 5.515625 40.765625 12.171875 48.375 
Q 18.84375 56 30.609375 56 
z
" id="DejaVuSans-6f"/>
      <path d="M 54.890625 33.015625 
L 54.890625 0 
L 45.90625 0 
L 45.90625 32.71875 
Q 45.90625 40.484375 42.875 44.328125 
Q 39.84375 48.1875 33.796875 48.1875 
Q 26.515625 48.1875 22.3125 43.546875 
Q 18.109375 38.921875 18.109375 30.90625 
L 18.109375 0 
L 9.078125 0 
L 9.078125 54.6875 
L 18.109375 54.6875 
L 18.109375 46.1875 
Q 21.34375 51.125 25.703125 53.5625 
Q 30.078125 56 35.796875 56 
Q 45.21875 56 50.046875 50.171875 
Q 54.890625 44.34375 54.890625 33.015625 
z
" id="DejaVuSans-6e"/>
     </defs>
     <g transform="translate(265.507969 415.795938)scale(0.14 -0.14)">
      <use xlink:href="#DejaVuSans-49"/>
      <use x="29.492188" xlink:href="#DejaVuSans-74"/>
      <use x="68.701172" xlink:href="#DejaVuSans-65"/>
      <use x="130.224609" xlink:href="#DejaVuSans-72"/>
      <use x="171.337891" xlink:href="#DejaVuSans-61"/>
      <use x="232.617188" xlink:href="#DejaVuSans-74"/>
      <use x="271.826172" xlink:href="#DejaVuSans-69"/>
      <use x="299.609375" xlink:href="#DejaVuSans-6f"/>
      <use x="360.791016" xlink:href="#DejaVuSans-6e"/>
     </g>
    </g>
   </g>
   <g id="matplotlib.axis_2">
    <g id="ytick_1">
     <g id="line2d_19">
      <path clip-path="url(#pe46de44751)" d="M 72 369.36 
L 518.4 369.36 
" style="fill:none;stroke:#b0b0b0;stroke-dasharray:5.12,1.28,0.8,1.28;stroke-dashoffset:0;stroke-width:0.8;"/>
     </g>
     <g id="line2d_20">
      <defs>
       <path d="M 0 0 
L -3.5 0 
" id="m6c11f0b43a" style="stroke:#000000;stroke-width:0.8;"/>
      </defs>
      <g>
       <use style="stroke:#000000;stroke-width:0.8;" x="72" xlink:href="#m6c11f0b43a" y="369.36"/>
      </g>
     </g>
     <g id="text_11">
      <!-- 0 -->
      <g transform="translate(58.6375 373.159219)scale(0.1 -0.1)">
       <use xlink:href="#DejaVuSans-30"/>
      </g>
     </g>
    </g>
    <g id="ytick_2">
     <g id="line2d_21">
      <path clip-path="url(#pe46de44751)" d="M 72 329.925437 
L 518.4 329.925437 
" style="fill:none;stroke:#b0b0b0;stroke-dasharray:5.12,1.28,0.8,1.28;stroke-dashoffset:0;stroke-width:0.8;"/>
     </g>
     <g id="line2d_22">
      <g>
       <use style="stroke:#000000;stroke-width:0.8;" x="72" xlink:href="#m6c11f0b43a" y="329.925437"/>
      </g>
     </g>
     <g id="text_12">
      <!-- 1 -->
      <g transform="translate(58.6375 333.724656)scale(0.1 -0.1)">
       <use xlink:href="#DejaVuSans-31"/>
      </g>
     </g>
    </g>
    <g id="ytick_3">
     <g id="line2d_23">
      <path clip-path="url(#pe46de44751)" d="M 72 290.490875 
L 518.4 290.490875 
" style="fill:none;stroke:#b0b0b0;stroke-dasharray:5.12,1.28,0.8,1.28;stroke-dashoffset:0;stroke-width:0.8;"/>
     </g>
     <g id="line2d_24">
      <g>
       <use style="stroke:#000000;stroke-width:0.8;" x="72" xlink:href="#m6c11f0b43a" y="290.490875"/>
      </g>
     </g>
     <g id="text_13">
      <!-- 2 -->
      <g transform="translate(58.6375 294.290094)scale(0.1 -0.1)">
       <use xlink:href="#DejaVuSans-32"/>
      </g>
     </g>
    </g>
    <g id="ytick_4">
     <g id="line2d_25">
      <path clip-path="url(#pe46de44751)" d="M 72 251.056312 
L 518.4 251.056312 
" style="fill:none;stroke:#b0b0b0;stroke-dasharray:5.12,1.28,0.8,1.28;stroke-dashoffset:0;stroke-width:0.8;"/>
     </g>
     <g id="line2d_26">
      <g>
       <use style="stroke:#000000;stroke-width:0.8;" x="72" xlink:href="#m6c11f0b43a" y="251.056312"/>
      </g>
     </g>
     <g id="text_14">
      <!-- 3 -->
      <g transform="translate(58.6375 254.855531)scale(0.1 -0.1)">
       <use xlink:href="#DejaVuSans-33"/>
      </g>
     </g>
    </g>
    <g id="ytick_5">
     <g id="line2d_27">
      <path clip-path="url(#pe46de44751)" d="M 72 211.62175 
L 518.4 211.62175 
" style="fill:none;stroke:#b0b0b0;stroke-dasharray:5.12,1.28,0.8,1.28;stroke-dashoffset:0;stroke-width:0.8;"/>
     </g>
     <g id="line2d_28">
      <g>
       <use style="stroke:#000000;stroke-width:0.8;" x="72" xlink:href="#m6c11f0b43a" y="211.62175"/>
      </g>
     </g>
     <g id="text_15">
      <!-- 4 -->
      <g transform="translate(58.6375 215.420968)scale(0.1 -0.1)">
       <use xlink:href="#DejaVuSans-34"/>
      </g>
     </g>
    </g>
    <g id="ytick_6">
     <g id="line2d_29">
      <path clip-path="url(#pe46de44751)" d="M 72 172.187187 
L 518.4 172.187187 
" style="fill:none;stroke:#b0b0b0;stroke-dasharray:5.12,1.28,0.8,1.28;stroke-dashoffset:0;stroke-width:0.8;"/>
     </g>
     <g id="line2d_30">
      <g>
       <use style="stroke:#000000;stroke-width:0.8;" x="72" xlink:href="#m6c11f0b43a" y="172.187187"/>
      </g>
     </g>
     <g id="text_16">
      <!-- 5 -->
      <g transform="translate(58.6375 175.986406)scale(0.1 -0.1)">
       <use xlink:href="#DejaVuSans-35"/>
      </g>
     </g>
    </g>
    <g id="ytick_7">
     <g id="line2d_31">
      <path clip-path="url(#pe46de44751)" d="M 72 132.752624 
L 518.4 132.752624 
" style="fill:none;stroke:#b0b0b0;stroke-dasharray:5.12,1.28,0.8,1.28;stroke-dashoffset:0;stroke-width:0.8;"/>
     </g>
     <g id="line2d_32">
      <g>
       <use style="stroke:#000000;stroke-width:0.8;" x="72" xlink:href="#m6c11f0b43a" y="132.752624"/>
      </g>
     </g>
     <g id="text_17">
      <!-- 6 -->
      <defs>
       <path d="M 33.015625 40.375 
Q 26.375 40.375 22.484375 35.828125 
Q 18.609375 31.296875 18.609375 23.390625 
Q 18.609375 15.53125 22.484375 10.953125 
Q 26.375 6.390625 33.015625 6.390625 
Q 39.65625 6.390625 43.53125 10.953125 
Q 47.40625 15.53125 47.40625 23.390625 
Q 47.40625 31.296875 43.53125 35.828125 
Q 39.65625 40.375 33.015625 40.375 
z
M 52.59375 71.296875 
L 52.59375 62.3125 
Q 48.875 64.0625 45.09375 64.984375 
Q 41.3125 65.921875 37.59375 65.921875 
Q 27.828125 65.921875 22.671875 59.328125 
Q 17.53125 52.734375 16.796875 39.40625 
Q 19.671875 43.65625 24.015625 45.921875 
Q 28.375 48.1875 33.59375 48.1875 
Q 44.578125 48.1875 50.953125 41.515625 
Q 57.328125 34.859375 57.328125 23.390625 
Q 57.328125 12.15625 50.6875 5.359375 
Q 44.046875 -1.421875 33.015625 -1.421875 
Q 20.359375 -1.421875 13.671875 8.265625 
Q 6.984375 17.96875 6.984375 36.375 
Q 6.984375 53.65625 15.1875 63.9375 
Q 23.390625 74.21875 37.203125 74.21875 
Q 40.921875 74.21875 44.703125 73.484375 
Q 48.484375 72.75 52.59375 71.296875 
z
" id="DejaVuSans-36"/>
      </defs>
      <g transform="translate(58.6375 136.551843)scale(0.1 -0.1)">
       <use xlink:href="#DejaVuSans-36"/>
      </g>
     </g>
    </g>
    <g id="ytick_8">
     <g id="line2d_33">
      <path clip-path="url(#pe46de44751)" d="M 72 93.318062 
L 518.4 93.318062 
" style="fill:none;stroke:#b0b0b0;stroke-dasharray:5.12,1.28,0.8,1.28;stroke-dashoffset:0;stroke-width:0.8;"/>
     </g>
     <g id="line2d_34">
      <g>
       <use style="stroke:#000000;stroke-width:0.8;" x="72" xlink:href="#m6c11f0b43a" y="93.318062"/>
      </g>
     </g>
     <g id="text_18">
      <!-- 7 -->
      <defs>
       <path d="M 8.203125 72.90625 
L 55.078125 72.90625 
L 55.078125 68.703125 
L 28.609375 0 
L 18.3125 0 
L 43.21875 64.59375 
L 8.203125 64.59375 
z
" id="DejaVuSans-37"/>
      </defs>
      <g transform="translate(58.6375 97.11728)scale(0.1 -0.1)">
       <use xlink:href="#DejaVuSans-37"/>
      </g>
     </g>
    </g>
    <g id="ytick_9">
     <g id="line2d_35">
      <path clip-path="url(#pe46de44751)" d="M 72 53.883499 
L 518.4 53.883499 
" style="fill:none;stroke:#b0b0b0;stroke-dasharray:5.12,1.28,0.8,1.28;stroke-dashoffset:0;stroke-width:0.8;"/>
     </g>
     <g id="line2d_36">
      <g>
       <use style="stroke:#000000;stroke-width:0.8;" x="72" xlink:href="#m6c11f0b43a" y="53.883499"/>
      </g>
     </g>
     <g id="text_19">
      <!-- 8 -->
      <defs>
       <path d="M 31.78125 34.625 
Q 24.75 34.625 20.71875 30.859375 
Q 16.703125 27.09375 16.703125 20.515625 
Q 16.703125 13.921875 20.71875 10.15625 
Q 24.75 6.390625 31.78125 6.390625 
Q 38.8125 6.390625 42.859375 10.171875 
Q 46.921875 13.96875 46.921875 20.515625 
Q 46.921875 27.09375 42.890625 30.859375 
Q 38.875 34.625 31.78125 34.625 
z
M 21.921875 38.8125 
Q 15.578125 40.375 12.03125 44.71875 
Q 8.5 49.078125 8.5 55.328125 
Q 8.5 64.0625 14.71875 69.140625 
Q 20.953125 74.21875 31.78125 74.21875 
Q 42.671875 74.21875 48.875 69.140625 
Q 55.078125 64.0625 55.078125 55.328125 
Q 55.078125 49.078125 51.53125 44.71875 
Q 48 40.375 41.703125 38.8125 
Q 48.828125 37.15625 52.796875 32.3125 
Q 56.78125 27.484375 56.78125 20.515625 
Q 56.78125 9.90625 50.3125 4.234375 
Q 43.84375 -1.421875 31.78125 -1.421875 
Q 19.734375 -1.421875 13.25 4.234375 
Q 6.78125 9.90625 6.78125 20.515625 
Q 6.78125 27.484375 10.78125 32.3125 
Q 14.796875 37.15625 21.921875 38.8125 
z
M 18.3125 54.390625 
Q 18.3125 48.734375 21.84375 45.5625 
Q 25.390625 42.390625 31.78125 42.390625 
Q 38.140625 42.390625 41.71875 45.5625 
Q 45.3125 48.734375 45.3125 54.390625 
Q 45.3125 60.0625 41.71875 63.234375 
Q 38.140625 66.40625 31.78125 66.40625 
Q 25.390625 66.40625 21.84375 63.234375 
Q 18.3125 60.0625 18.3125 54.390625 
z
" id="DejaVuSans-38"/>
      </defs>
      <g transform="translate(58.6375 57.682718)scale(0.1 -0.1)">
       <use xlink:href="#DejaVuSans-38"/>
      </g>
     </g>
    </g>
    <g id="text_20">
     <!-- lambda -->
     <defs>
      <path d="M 9.421875 75.984375 
L 18.40625 75.984375 
L 18.40625 0 
L 9.421875 0 
z
" id="DejaVuSans-6c"/>
      <path d="M 52 44.1875 
Q 55.375 50.25 60.0625 53.125 
Q 64.75 56 71.09375 56 
Q 79.640625 56 84.28125 50.015625 
Q 88.921875 44.046875 88.921875 33.015625 
L 88.921875 0 
L 79.890625 0 
L 79.890625 32.71875 
Q 79.890625 40.578125 77.09375 44.375 
Q 74.3125 48.1875 68.609375 48.1875 
Q 61.625 48.1875 57.5625 43.546875 
Q 53.515625 38.921875 53.515625 30.90625 
L 53.515625 0 
L 44.484375 0 
L 44.484375 32.71875 
Q 44.484375 40.625 41.703125 44.40625 
Q 38.921875 48.1875 33.109375 48.1875 
Q 26.21875 48.1875 22.15625 43.53125 
Q 18.109375 38.875 18.109375 30.90625 
L 18.109375 0 
L 9.078125 0 
L 9.078125 54.6875 
L 18.109375 54.6875 
L 18.109375 46.1875 
Q 21.1875 51.21875 25.484375 53.609375 
Q 29.78125 56 35.6875 56 
Q 41.65625 56 45.828125 52.96875 
Q 50 49.953125 52 44.1875 
z
" id="DejaVuSans-6d"/>
      <path d="M 48.6875 27.296875 
Q 48.6875 37.203125 44.609375 42.84375 
Q 40.53125 48.484375 33.40625 48.484375 
Q 26.265625 48.484375 22.1875 42.84375 
Q 18.109375 37.203125 18.109375 27.296875 
Q 18.109375 17.390625 22.1875 11.75 
Q 26.265625 6.109375 33.40625 6.109375 
Q 40.53125 6.109375 44.609375 11.75 
Q 48.6875 17.390625 48.6875 27.296875 
z
M 18.109375 46.390625 
Q 20.953125 51.265625 25.265625 53.625 
Q 29.59375 56 35.59375 56 
Q 45.5625 56 51.78125 48.09375 
Q 58.015625 40.1875 58.015625 27.296875 
Q 58.015625 14.40625 51.78125 6.484375 
Q 45.5625 -1.421875 35.59375 -1.421875 
Q 29.59375 -1.421875 25.265625 0.953125 
Q 20.953125 3.328125 18.109375 8.203125 
L 18.109375 0 
L 9.078125 0 
L 9.078125 75.984375 
L 18.109375 75.984375 
z
" id="DejaVuSans-62"/>
      <path d="M 45.40625 46.390625 
L 45.40625 75.984375 
L 54.390625 75.984375 
L 54.390625 0 
L 45.40625 0 
L 45.40625 8.203125 
Q 42.578125 3.328125 38.25 0.953125 
Q 33.9375 -1.421875 27.875 -1.421875 
Q 17.96875 -1.421875 11.734375 6.484375 
Q 5.515625 14.40625 5.515625 27.296875 
Q 5.515625 40.1875 11.734375 48.09375 
Q 17.96875 56 27.875 56 
Q 33.9375 56 38.25 53.625 
Q 42.578125 51.265625 45.40625 46.390625 
z
M 14.796875 27.296875 
Q 14.796875 17.390625 18.875 11.75 
Q 22.953125 6.109375 30.078125 6.109375 
Q 37.203125 6.109375 41.296875 11.75 
Q 45.40625 17.390625 45.40625 27.296875 
Q 45.40625 37.203125 41.296875 42.84375 
Q 37.203125 48.484375 30.078125 48.484375 
Q 22.953125 48.484375 18.875 42.84375 
Q 14.796875 37.203125 14.796875 27.296875 
z
" id="DejaVuSans-64"/>
     </defs>
     <g transform="translate(51.725938 244.390312)rotate(-90)scale(0.14 -0.14)">
      <use xlink:href="#DejaVuSans-6c"/>
      <use x="27.783203" xlink:href="#DejaVuSans-61"/>
      <use x="89.0625" xlink:href="#DejaVuSans-6d"/>
      <use x="186.474609" xlink:href="#DejaVuSans-62"/>
      <use x="249.951172" xlink:href="#DejaVuSans-64"/>
      <use x="313.427734" xlink:href="#DejaVuSans-61"/>
     </g>
    </g>
   </g>
   <g id="line2d_37">
    <path clip-path="url(#pe46de44751)" d="M 92.290909 369.36 
L 92.391409 369.36 
L 92.491909 369.36 
L 92.692908 364.99065 
L 93.295907 339.354241 
L 99.024396 89.966124 
L 99.225395 89.650647 
L 99.627394 90.679889 
L 100.129893 91.701245 
L 100.632392 92.265159 
L 101.235391 92.6319 
L 102.139889 92.903999 
L 102.441389 92.955264 
L 102.843388 86.933606 
L 103.446387 79.732855 
L 104.049385 75.233371 
L 104.551884 72.946167 
L 105.054383 71.700034 
L 105.456383 71.321463 
L 105.757882 71.349067 
L 106.059381 71.613278 
L 106.461381 72.283666 
L 106.96388 73.569233 
L 107.667378 76.057554 
L 108.571876 80.166635 
L 109.777874 86.752207 
L 110.782872 92.253328 
L 111.084371 92.458388 
L 112.189869 92.568805 
L 119.325355 93.018359 
L 123.043847 93.05385 
L 215.60416 93.164267 
L 218.920654 93.183984 
L 248.568094 93.294401 
L 251.583088 93.302288 
L 497.204593 93.318062 
L 497.204593 93.318062 
" style="fill:none;stroke:#bf00bf;stroke-linecap:square;stroke-width:1.5;"/>
   </g>
   <g id="line2d_38">
    <path clip-path="url(#pe46de44751)" d="M 92.290909 369.36 
L 92.391409 369.36 
L 92.491909 369.36 
L 92.793408 359.883875 
L 94.401405 293.152708 
L 96.7129 188.544643 
L 98.823396 94.043658 
L 99.024396 93.318062 
L 102.441389 93.318062 
L 102.843388 85.825495 
L 103.446387 79.444983 
L 104.049385 75.497583 
L 104.551884 73.537685 
L 104.953884 72.674068 
L 105.355883 72.334931 
L 105.657382 72.382252 
L 105.958882 72.658294 
L 106.360881 73.336569 
L 106.96388 74.929725 
L 107.767878 77.922808 
L 108.772876 82.690447 
L 110.079373 90.04105 
L 110.682372 93.318062 
L 498.109091 93.318062 
L 498.109091 93.318062 
" style="fill:none;stroke:#00bfbf;stroke-linecap:square;stroke-width:1.5;"/>
   </g>
   <g id="line2d_39">
    <path clip-path="url(#pe46de44751)" d="M 92.290909 369.36 
L 92.391409 369.36 
L 92.491909 369.36 
L 92.692908 365.905532 
L 93.195407 349.169504 
L 94.200405 306.939031 
L 97.114899 170.526992 
L 98.622396 104.998579 
L 99.024396 91.902361 
L 99.426395 86.073933 
L 99.828394 82.954659 
L 100.230393 81.333898 
L 100.531892 80.781814 
L 100.833392 80.643793 
L 101.134891 80.829136 
L 101.53689 81.460089 
L 102.139889 82.99015 
L 102.441389 83.936579 
L 102.642388 83.159718 
L 103.446387 79.287244 
L 103.948886 77.85577 
L 104.350885 77.252421 
L 104.652384 77.086796 
L 104.953884 77.142004 
L 105.355883 77.524519 
L 105.858382 78.439401 
L 106.461381 80.079879 
L 107.265379 83.009867 
L 108.370877 88.077208 
L 109.878374 96.267767 
L 110.883372 101.626924 
L 111.385871 102.802074 
L 112.189869 104.05215 
L 113.094367 105.057731 
L 114.199865 105.968669 
L 115.506362 106.769191 
L 117.013859 107.471126 
L 118.923355 108.177005 
L 121.033851 108.811901 
L 123.043847 109.249625 
L 125.053843 109.537497 
L 127.867837 109.758331 
L 134.098825 109.892408 
L 150.982791 109.785935 
L 152.791787 109.683405 
L 155.505282 109.793822 
L 161.13327 110.345906 
L 164.047764 110.57857 
L 169.474753 110.6811 
L 174.198244 110.38534 
L 177.012238 110.05409 
L 180.027232 109.588762 
L 183.444225 108.942035 
L 187.665217 108.003493 
L 193.695205 106.473432 
L 221.03115 99.079451 
L 229.875132 97.107723 
L 238.719114 95.483019 
L 247.261597 94.252661 
L 256.608078 93.262853 
L 267.261056 92.537257 
L 281.230528 92.099534 
L 307.259976 92.20995 
L 312.586465 92.308537 
L 318.314953 92.418954 
L 324.445441 92.549088 
L 329.87243 92.659504 
L 335.701418 92.777808 
L 341.831906 92.888225 
L 346.957396 92.978924 
L 354.394381 93.089341 
L 358.715872 93.148493 
L 369.46935 93.25891 
L 373.087343 93.290457 
L 398.413292 93.400874 
L 401.428286 93.408761 
L 498.109091 93.318062 
L 498.109091 93.318062 
" style="fill:none;stroke:#ff0000;stroke-linecap:square;stroke-width:1.5;"/>
   </g>
   <g id="line2d_40">
    <path clip-path="url(#pe46de44751)" d="M 92.290909 369.36 
L 92.391409 369.36 
L 92.793408 357.312741 
L 93.396407 335.379237 
L 94.602404 278.755149 
L 97.818398 126.782231 
L 98.923896 85.908307 
L 99.325895 76.58992 
L 99.727894 71.368784 
L 100.129893 68.750329 
L 100.431393 67.977412 
L 100.632392 67.890656 
L 100.833392 68.087828 
L 101.134891 68.825255 
L 101.63739 70.958665 
L 102.340889 75.205767 
L 102.642388 76.858075 
L 103.044387 77.851826 
L 104.350885 80.336204 
L 105.054383 82.307932 
L 105.958882 85.553396 
L 107.164879 90.881006 
L 108.672376 98.649615 
L 111.385871 113.0314 
L 112.189869 115.298887 
L 113.094367 117.179915 
L 114.099365 118.765185 
L 115.204863 120.11779 
L 116.61186 121.458566 
L 118.119357 122.621885 
L 120.229853 123.978434 
L 122.239849 124.956411 
L 124.149345 125.587364 
L 125.958341 125.96988 
L 127.666838 126.1986 
L 132.088829 126.435207 
L 136.008321 126.478585 
L 150.178792 126.379999 
L 151.887289 126.08424 
L 153.495286 126.068466 
L 155.907281 126.364225 
L 164.148264 127.874569 
L 168.067756 128.075685 
L 170.379252 127.965268 
L 172.791247 127.669509 
L 175.404242 127.148973 
L 178.318736 126.356338 
L 181.735729 125.169358 
L 185.95672 123.394803 
L 191.886208 120.480588 
L 218.518655 105.976556 
L 222.940646 103.843146 
L 227.764636 101.693963 
L 232.186627 99.903634 
L 236.508118 98.326251 
L 240.72911 96.949985 
L 245.050601 95.707796 
L 249.472592 94.607572 
L 253.995083 93.649312 
L 266.055059 91.862926 
L 279.120032 90.948044 
L 286.255518 90.778476 
L 299.722491 90.888893 
L 348.766392 92.702882 
L 352.484885 92.813299 
L 360.926867 93.034133 
L 366.152857 93.14455 
L 371.378846 93.239193 
L 379.31833 93.349609 
L 383.237823 93.392987 
L 406.754775 93.503404 
L 409.669269 93.507348 
L 457.507173 93.396931 
L 460.622666 93.3851 
L 498.109091 93.318062 
L 498.109091 93.318062 
" style="fill:none;stroke:#008000;stroke-linecap:square;stroke-width:1.5;"/>
   </g>
   <g id="line2d_41">
    <path clip-path="url(#pe46de44751)" d="M 92.290909 369.36 
L 92.391409 369.36 
L 92.592408 366.721828 
L 92.893908 358.310436 
L 93.396407 334.815323 
L 96.9139 157.624003 
L 97.918898 117.720169 
L 98.923896 86.294766 
L 99.426395 75.367449 
L 99.828394 70.233069 
L 100.230393 67.634331 
L 100.531892 66.975774 
L 100.732892 67.034926 
L 100.933892 67.429271 
L 101.235391 68.5571 
L 101.73789 71.542296 
L 102.541888 78.17519 
L 103.245387 83.258305 
L 104.451385 90.056823 
L 111.58687 127.377693 
L 112.390869 129.936997 
L 113.295367 132.121671 
L 114.300365 133.971152 
L 115.405862 135.548535 
L 116.71236 137.027331 
L 118.219857 138.423314 
L 120.631852 140.268852 
L 122.239849 141.219225 
L 123.847845 141.925104 
L 125.656842 142.45747 
L 127.566338 142.800551 
L 130.782331 143.068706 
L 133.093827 143.143632 
L 149.977793 143.041102 
L 151.38479 142.816325 
L 152.590788 142.86759 
L 154.500284 143.277709 
L 157.917277 144.460746 
L 160.932271 145.529423 
L 163.444766 146.207697 
L 166.05776 146.60993 
L 167.665757 146.688799 
L 169.876753 146.578382 
L 171.484749 146.345718 
L 173.896745 145.762086 
L 175.705741 145.154794 
L 178.620235 143.892888 
L 180.831231 142.733512 
L 183.343726 141.227112 
L 186.25822 139.267214 
L 189.976712 136.506795 
L 195.303201 132.18871 
L 200.227691 127.988929 
L 213.192165 116.943308 
L 218.116655 113.027456 
L 225.55364 107.620978 
L 231.081129 104.06398 
L 236.709118 100.873724 
L 242.236607 98.1764 
L 245.151101 96.922381 
L 250.879589 94.792914 
L 257.110577 92.95132 
L 260.42707 92.154742 
L 268.065055 90.766645 
L 271.884047 90.277657 
L 276.507038 89.843877 
L 290.778009 89.394323 
L 297.109496 89.504739 
L 312.485965 90.218505 
L 319.118952 90.628624 
L 323.741942 90.92044 
L 331.178927 91.393655 
L 336.505417 91.713075 
L 341.731406 92.012778 
L 352.786384 92.556975 
L 355.901878 92.691052 
L 372.182845 93.219475 
L 377.308334 93.329892 
L 382.433824 93.420592 
L 391.679805 93.531008 
L 395.297798 93.562556 
L 454.291179 93.452139 
L 457.507173 93.436365 
L 493.888099 93.325949 
L 496.903093 93.318062 
L 497.204593 93.318062 
L 497.204593 93.318062 
" style="fill:none;stroke:#0000ff;stroke-linecap:square;stroke-width:1.5;"/>
   </g>
   <g id="line2d_42">
    <path clip-path="url(#pe46de44751)" d="M 92.290909 369.36 
L 92.391409 369.36 
L 92.491909 369.091845 
L 92.592408 368.429344 
L 92.793408 363.125396 
L 93.396407 331.061153 
L 95.707902 209.634248 
L 96.9139 153.542526 
L 97.818398 123.099043 
L 98.722896 100.09292 
L 99.426395 86.752207 
L 99.928894 81.235312 
L 100.330893 79.184714 
L 100.531892 78.83769 
L 100.732892 78.877125 
L 100.933892 79.263584 
L 101.235391 80.411129 
L 101.73789 83.52646 
L 102.441389 89.623043 
L 103.747886 101.173427 
L 104.953884 109.675518 
L 106.461381 118.650825 
L 108.471376 129.179853 
L 110.983871 141.242886 
L 111.88837 144.70524 
L 112.792868 147.280317 
L 113.797866 149.409784 
L 114.802864 151.030544 
L 116.008861 152.548775 
L 117.516358 154.051232 
L 119.325355 155.545801 
L 121.033851 156.760386 
L 122.842847 157.773854 
L 124.450844 158.416638 
L 126.46084 158.93323 
L 128.571336 159.236877 
L 130.882831 159.402502 
L 136.30982 159.505032 
L 149.776793 159.398558 
L 150.781791 159.426162 
L 151.887289 159.706148 
L 153.193786 160.281892 
L 155.404782 161.528025 
L 161.635769 165.077135 
L 163.645765 165.834279 
L 165.354262 166.260172 
L 166.962259 166.465232 
L 168.570255 166.481006 
L 170.178252 166.311437 
L 171.886749 165.932865 
L 173.695745 165.32163 
L 175.605241 164.454069 
L 177.715737 163.255258 
L 180.027232 161.677876 
L 182.740727 159.520805 
L 185.95672 156.598704 
L 188.569715 153.99208 
L 193.996704 148.080839 
L 200.127192 140.939239 
L 205.95618 134.022417 
L 213.292665 125.555817 
L 217.212157 121.261393 
L 222.438147 115.882518 
L 226.960638 111.595981 
L 231.181629 107.932511 
L 235.302121 104.679159 
L 239.221613 101.891136 
L 243.241605 99.339719 
L 245.6536 97.951623 
L 249.472592 95.979895 
L 253.894583 94.016053 
L 258.618074 92.276989 
L 263.743563 90.782419 
L 266.658058 90.096258 
L 269.572552 89.520513 
L 272.688045 89.019694 
L 276.205538 88.578027 
L 285.04952 87.994396 
L 289.572011 87.927357 
L 293.893503 87.986509 
L 297.310496 88.096926 
L 304.847981 88.503102 
L 331.178927 90.679889 
L 334.495421 90.959875 
L 352.585384 92.269102 
L 359.51987 92.651618 
L 363.238363 92.833017 
L 381.629826 93.444252 
L 387.559314 93.554669 
L 391.981305 93.617764 
L 453.286181 93.507348 
L 456.703174 93.483687 
L 479.315629 93.37327 
L 482.431123 93.36144 
L 497.204593 93.318062 
L 497.204593 93.318062 
" style="fill:none;stroke:#000000;stroke-linecap:square;stroke-width:1.5;"/>
   </g>
   <g id="line2d_43">
    <path clip-path="url(#pe46de44751)" d="M 92.290909 369.36 
L 92.391409 369.36 
L 92.491909 369.289018 
L 92.592408 367.096456 
L 93.798406 302.84178 
L 96.511901 168.914118 
L 97.215399 147.225109 
L 98.019398 129.349422 
L 98.823396 115.953501 
L 99.526895 107.266066 
L 100.029393 103.669634 
L 100.330893 102.648279 
L 100.531892 102.411672 
L 100.732892 102.498428 
L 101.034391 103.176702 
L 101.436391 104.947314 
L 102.039389 109.013018 
L 103.144887 118.670542 
L 104.350885 128.22948 
L 105.456383 135.307984 
L 106.76288 142.220863 
L 108.270377 149.007551 
L 110.179873 156.586874 
L 111.68737 161.855331 
L 112.591868 164.189858 
L 113.496366 165.944696 
L 114.501364 167.419548 
L 115.707362 168.76821 
L 117.114359 170.002512 
L 119.023855 171.370891 
L 121.83785 173.019256 
L 123.847845 173.851325 
L 125.958341 174.403409 
L 128.068837 174.710999 
L 130.480832 174.888454 
L 135.907821 174.990984 
L 149.374794 175.073797 
L 150.379792 175.574616 
L 151.48529 176.398798 
L 152.691287 177.62127 
L 153.897285 179.238087 
L 155.304282 181.533178 
L 157.213778 185.12961 
L 160.530272 192.014885 
L 165.555261 202.401949 
L 168.670755 208.281642 
L 171.18325 212.595783 
L 173.494745 216.204046 
L 175.906741 219.603305 
L 178.218236 222.509632 
L 180.630231 225.187239 
L 183.243226 227.699221 
L 185.253222 229.371246 
L 187.363717 230.89342 
L 189.574713 232.246026 
L 192.087208 233.503988 
L 194.700203 234.517457 
L 196.609699 235.085314 
L 199.725192 235.712324 
L 202.036688 235.964705 
L 204.549183 236.055405 
L 207.363177 235.944988 
L 210.579171 235.586133 
L 214.398163 234.880255 
L 219.322653 233.610462 
L 226.458139 231.256218 
L 231.684128 229.29632 
L 253.291584 220.936193 
L 260.829069 218.38872 
L 267.361556 216.452483 
L 273.492044 214.882988 
L 279.522032 213.57376 
L 285.753019 212.461706 
L 292.486505 211.515276 
L 299.822991 210.762076 
L 308.566473 210.186331 
L 319.92295 209.851138 
L 338.515413 209.961554 
L 345.349399 210.119293 
L 349.57039 210.229709 
L 360.424368 210.545186 
L 364.243361 210.655603 
L 374.092341 210.931645 
L 378.514332 211.042061 
L 385.549318 211.207687 
L 391.076807 211.318103 
L 396.302796 211.412746 
L 403.840281 211.523163 
L 407.960773 211.574428 
L 420.925247 211.684845 
L 424.24174 211.704562 
L 497.204593 211.669071 
L 497.204593 211.669071 
" style="fill:none;stroke:#bfbf00;stroke-linecap:square;stroke-width:1.5;"/>
   </g>
   <g id="line2d_44">
    <path clip-path="url(#pe46de44751)" d="M 92.290909 369.36 
L 92.391409 369.36 
L 92.491909 369.340283 
L 92.793408 344.070615 
L 94.602404 257.910039 
L 96.210401 182.306096 
L 96.8134 167.707421 
L 97.516899 156.34238 
L 98.320897 147.1699 
L 99.124895 140.398986 
L 99.727894 136.838045 
L 100.129893 135.544591 
L 100.431393 135.193624 
L 100.632392 135.244889 
L 100.933892 135.71416 
L 101.335891 136.987896 
L 101.93889 139.969149 
L 102.843388 145.904051 
L 104.250385 154.997661 
L 105.355883 160.624973 
L 106.461381 165.175722 
L 107.767878 169.635771 
L 109.375875 174.296936 
L 111.184871 178.895006 
L 112.189869 180.965321 
L 113.194867 182.483551 
L 114.199865 183.591662 
L 115.405862 184.58147 
L 117.013859 185.587051 
L 120.330353 187.16049 
L 122.440848 187.953125 
L 124.551344 188.501265 
L 126.963339 188.864063 
L 129.375334 189.041519 
L 135.103823 189.155879 
L 151.18379 189.266296 
L 152.490288 189.838097 
L 153.696285 190.662279 
L 155.203782 192.042489 
L 157.012779 194.045765 
L 159.424774 197.054622 
L 163.243766 202.02732 
L 166.962259 206.660882 
L 170.379252 210.521525 
L 173.394246 213.554043 
L 176.20824 216.058138 
L 179.122734 218.321682 
L 182.137728 220.324957 
L 185.454221 222.150778 
L 187.765717 223.211567 
L 191.584709 224.595721 
L 194.197704 225.305543 
L 197.212698 225.908892 
L 200.629691 226.334785 
L 204.549183 226.531958 
L 209.071674 226.425484 
L 215.001162 225.84974 
L 218.518655 225.32526 
L 222.940646 224.520795 
L 229.171633 223.187907 
L 258.919573 216.294745 
L 268.768553 214.472868 
L 278.919033 212.990129 
L 289.170012 211.893848 
L 300.928488 211.081496 
L 316.204458 210.592507 
L 346.153397 210.702924 
L 351.077887 210.785737 
L 357.509874 210.896154 
L 362.735864 210.990797 
L 369.067351 211.101213 
L 374.092341 211.187969 
L 381.428826 211.298386 
L 385.850817 211.361481 
L 395.096799 211.471898 
L 398.915791 211.511333 
L 413.689261 211.62175 
L 417.005754 211.641467 
L 497.204593 211.653297 
L 497.204593 211.653297 
" style="fill:none;stroke:#bf00bf;stroke-linecap:square;stroke-width:1.5;"/>
   </g>
   <g id="line2d_45">
    <path clip-path="url(#pe46de44751)" d="M 92.290909 369.36 
L 92.391409 369.36 
L 92.491909 369.356057 
L 93.496907 311.683009 
L 95.707902 202.090416 
L 96.109901 193.481851 
L 96.6124 187.602157 
L 97.215399 183.051409 
L 97.918898 179.360334 
L 98.722896 176.312042 
L 99.526895 174.123424 
L 99.928894 173.484584 
L 100.230393 173.275581 
L 100.531892 173.318959 
L 100.833392 173.595001 
L 101.235391 174.289049 
L 101.83839 175.882205 
L 102.742888 179.040914 
L 104.250385 184.317258 
L 105.355883 187.310342 
L 106.461381 189.688246 
L 107.868378 192.121358 
L 109.375875 194.286316 
L 111.48637 196.853506 
L 112.491368 197.780218 
L 113.697366 198.553135 
L 114.903364 199.093389 
L 116.61186 199.649416 
L 119.928353 200.449938 
L 124.048845 201.151873 
L 129.576334 201.475237 
L 133.596326 201.522558 
L 149.776793 201.416085 
L 151.083291 201.372707 
L 152.691287 201.605371 
L 154.198784 202.066755 
L 155.706281 202.705595 
L 158.218776 204.010879 
L 167.665757 209.444962 
L 173.092746 212.091021 
L 175.404242 213.061111 
L 179.424233 214.52019 
L 181.936728 215.293107 
L 186.459219 216.424879 
L 191.986708 217.402856 
L 198.619695 218.073244 
L 202.237687 218.246756 
L 212.890666 218.136339 
L 219.724652 217.710446 
L 222.438147 217.493556 
L 229.473133 216.831055 
L 239.221613 215.793926 
L 242.940105 215.391694 
L 251.884587 214.449208 
L 257.814075 213.873463 
L 261.934567 213.498835 
L 279.321032 212.244816 
L 306.857976 211.274725 
L 316.606457 211.164309 
L 319.92295 211.144591 
L 352.987383 211.255008 
L 356.605376 211.286556 
L 370.976847 211.396973 
L 374.49434 211.424577 
L 392.081805 211.534993 
L 395.398298 211.554711 
L 497.204593 211.63358 
L 497.204593 211.63358 
" style="fill:none;stroke:#00bfbf;stroke-linecap:square;stroke-width:1.5;"/>
   </g>
   <g id="line2d_46">
    <path clip-path="url(#pe46de44751)" d="M 92.290909 369.36 
L 92.391409 369.36 
L 92.491909 369.36 
L 92.592408 369.111562 
L 92.793408 360.088934 
L 94.099905 287.020633 
L 95.707902 211.62175 
L 498.109091 211.62175 
L 498.109091 211.62175 
" style="fill:none;stroke:#ff0000;stroke-linecap:square;stroke-width:1.5;"/>
   </g>
   <g id="patch_3">
    <path d="M 72 384.48 
L 72 51.84 
" style="fill:none;stroke:#000000;stroke-linecap:square;stroke-linejoin:miter;stroke-width:0.8;"/>
   </g>
   <g id="patch_4">
    <path d="M 518.4 384.48 
L 518.4 51.84 
" style="fill:none;stroke:#000000;stroke-linecap:square;stroke-linejoin:miter;stroke-width:0.8;"/>
   </g>
   <g id="patch_5">
    <path d="M 72 384.48 
L 518.4 384.48 
" style="fill:none;stroke:#000000;stroke-linecap:square;stroke-linejoin:miter;stroke-width:0.8;"/>
   </g>
   <g id="patch_6">
    <path d="M 72 51.84 
L 518.4 51.84 
" style="fill:none;stroke:#000000;stroke-linecap:square;stroke-linejoin:miter;stroke-width:0.8;"/>
   </g>
   <g id="text_21">
    <!-- lambda -->
    <g transform="translate(268.969687 45.84)scale(0.14 -0.14)">
     <use xlink:href="#DejaVuSans-6c"/>
     <use x="27.783203" xlink:href="#DejaVuSans-61"/>
     <use x="89.0625" xlink:href="#DejaVuSans-6d"/>
     <use x="186.474609" xlink:href="#DejaVuSans-62"/>
     <use x="249.951172" xlink:href="#DejaVuSans-64"/>
     <use x="313.427734" xlink:href="#DejaVuSans-61"/>
    </g>
   </g>
   <g id="legend_1">
    <g id="patch_7">
     <path d="M 429.203125 379.48 
L 511.4 379.48 
Q 513.4 379.48 513.4 377.48 
L 513.4 231.69875 
Q 513.4 229.69875 511.4 229.69875 
L 429.203125 229.69875 
Q 427.203125 229.69875 427.203125 231.69875 
L 427.203125 377.48 
Q 427.203125 379.48 429.203125 379.48 
z
" style="fill:#ffffff;opacity:0.8;stroke:#cccccc;stroke-linejoin:miter;"/>
    </g>
    <g id="line2d_47">
     <path d="M 431.203125 237.797188 
L 451.203125 237.797188 
" style="fill:none;stroke:#bf00bf;stroke-linecap:square;stroke-width:1.5;"/>
    </g>
    <g id="line2d_48"/>
    <g id="text_22">
     <!-- lambda1 -->
     <g transform="translate(459.203125 241.297188)scale(0.1 -0.1)">
      <use xlink:href="#DejaVuSans-6c"/>
      <use x="27.783203" xlink:href="#DejaVuSans-61"/>
      <use x="89.0625" xlink:href="#DejaVuSans-6d"/>
      <use x="186.474609" xlink:href="#DejaVuSans-62"/>
      <use x="249.951172" xlink:href="#DejaVuSans-64"/>
      <use x="313.427734" xlink:href="#DejaVuSans-61"/>
      <use x="374.707031" xlink:href="#DejaVuSans-31"/>
     </g>
    </g>
    <g id="line2d_49">
     <path d="M 431.203125 252.475313 
L 451.203125 252.475313 
" style="fill:none;stroke:#00bfbf;stroke-linecap:square;stroke-width:1.5;"/>
    </g>
    <g id="line2d_50"/>
    <g id="text_23">
     <!-- lambda2 -->
     <g transform="translate(459.203125 255.975313)scale(0.1 -0.1)">
      <use xlink:href="#DejaVuSans-6c"/>
      <use x="27.783203" xlink:href="#DejaVuSans-61"/>
      <use x="89.0625" xlink:href="#DejaVuSans-6d"/>
      <use x="186.474609" xlink:href="#DejaVuSans-62"/>
      <use x="249.951172" xlink:href="#DejaVuSans-64"/>
      <use x="313.427734" xlink:href="#DejaVuSans-61"/>
      <use x="374.707031" xlink:href="#DejaVuSans-32"/>
     </g>
    </g>
    <g id="line2d_51">
     <path d="M 431.203125 267.153437 
L 451.203125 267.153437 
" style="fill:none;stroke:#ff0000;stroke-linecap:square;stroke-width:1.5;"/>
    </g>
    <g id="line2d_52"/>
    <g id="text_24">
     <!-- lambda3 -->
     <g transform="translate(459.203125 270.653437)scale(0.1 -0.1)">
      <use xlink:href="#DejaVuSans-6c"/>
      <use x="27.783203" xlink:href="#DejaVuSans-61"/>
      <use x="89.0625" xlink:href="#DejaVuSans-6d"/>
      <use x="186.474609" xlink:href="#DejaVuSans-62"/>
      <use x="249.951172" xlink:href="#DejaVuSans-64"/>
      <use x="313.427734" xlink:href="#DejaVuSans-61"/>
      <use x="374.707031" xlink:href="#DejaVuSans-33"/>
     </g>
    </g>
    <g id="line2d_53">
     <path d="M 431.203125 281.831563 
L 451.203125 281.831563 
" style="fill:none;stroke:#008000;stroke-linecap:square;stroke-width:1.5;"/>
    </g>
    <g id="line2d_54"/>
    <g id="text_25">
     <!-- lambda4 -->
     <g transform="translate(459.203125 285.331563)scale(0.1 -0.1)">
      <use xlink:href="#DejaVuSans-6c"/>
      <use x="27.783203" xlink:href="#DejaVuSans-61"/>
      <use x="89.0625" xlink:href="#DejaVuSans-6d"/>
      <use x="186.474609" xlink:href="#DejaVuSans-62"/>
      <use x="249.951172" xlink:href="#DejaVuSans-64"/>
      <use x="313.427734" xlink:href="#DejaVuSans-61"/>
      <use x="374.707031" xlink:href="#DejaVuSans-34"/>
     </g>
    </g>
    <g id="line2d_55">
     <path d="M 431.203125 296.509688 
L 451.203125 296.509688 
" style="fill:none;stroke:#0000ff;stroke-linecap:square;stroke-width:1.5;"/>
    </g>
    <g id="line2d_56"/>
    <g id="text_26">
     <!-- lambda5 -->
     <g transform="translate(459.203125 300.009688)scale(0.1 -0.1)">
      <use xlink:href="#DejaVuSans-6c"/>
      <use x="27.783203" xlink:href="#DejaVuSans-61"/>
      <use x="89.0625" xlink:href="#DejaVuSans-6d"/>
      <use x="186.474609" xlink:href="#DejaVuSans-62"/>
      <use x="249.951172" xlink:href="#DejaVuSans-64"/>
      <use x="313.427734" xlink:href="#DejaVuSans-61"/>
      <use x="374.707031" xlink:href="#DejaVuSans-35"/>
     </g>
    </g>
    <g id="line2d_57">
     <path d="M 431.203125 311.187813 
L 451.203125 311.187813 
" style="fill:none;stroke:#000000;stroke-linecap:square;stroke-width:1.5;"/>
    </g>
    <g id="line2d_58"/>
    <g id="text_27">
     <!-- lambda6 -->
     <g transform="translate(459.203125 314.687813)scale(0.1 -0.1)">
      <use xlink:href="#DejaVuSans-6c"/>
      <use x="27.783203" xlink:href="#DejaVuSans-61"/>
      <use x="89.0625" xlink:href="#DejaVuSans-6d"/>
      <use x="186.474609" xlink:href="#DejaVuSans-62"/>
      <use x="249.951172" xlink:href="#DejaVuSans-64"/>
      <use x="313.427734" xlink:href="#DejaVuSans-61"/>
      <use x="374.707031" xlink:href="#DejaVuSans-36"/>
     </g>
    </g>
    <g id="line2d_59">
     <path d="M 431.203125 325.865938 
L 451.203125 325.865938 
" style="fill:none;stroke:#bfbf00;stroke-linecap:square;stroke-width:1.5;"/>
    </g>
    <g id="line2d_60"/>
    <g id="text_28">
     <!-- lambda7 -->
     <g transform="translate(459.203125 329.365938)scale(0.1 -0.1)">
      <use xlink:href="#DejaVuSans-6c"/>
      <use x="27.783203" xlink:href="#DejaVuSans-61"/>
      <use x="89.0625" xlink:href="#DejaVuSans-6d"/>
      <use x="186.474609" xlink:href="#DejaVuSans-62"/>
      <use x="249.951172" xlink:href="#DejaVuSans-64"/>
      <use x="313.427734" xlink:href="#DejaVuSans-61"/>
      <use x="374.707031" xlink:href="#DejaVuSans-37"/>
     </g>
    </g>
    <g id="line2d_61">
     <path d="M 431.203125 340.544062 
L 451.203125 340.544062 
" style="fill:none;stroke:#bf00bf;stroke-linecap:square;stroke-width:1.5;"/>
    </g>
    <g id="line2d_62"/>
    <g id="text_29">
     <!-- lambda8 -->
     <g transform="translate(459.203125 344.044062)scale(0.1 -0.1)">
      <use xlink:href="#DejaVuSans-6c"/>
      <use x="27.783203" xlink:href="#DejaVuSans-61"/>
      <use x="89.0625" xlink:href="#DejaVuSans-6d"/>
      <use x="186.474609" xlink:href="#DejaVuSans-62"/>
      <use x="249.951172" xlink:href="#DejaVuSans-64"/>
      <use x="313.427734" xlink:href="#DejaVuSans-61"/>
      <use x="374.707031" xlink:href="#DejaVuSans-38"/>
     </g>
    </g>
    <g id="line2d_63">
     <path d="M 431.203125 355.222188 
L 451.203125 355.222188 
" style="fill:none;stroke:#00bfbf;stroke-linecap:square;stroke-width:1.5;"/>
    </g>
    <g id="line2d_64"/>
    <g id="text_30">
     <!-- lambda9 -->
     <defs>
      <path d="M 10.984375 1.515625 
L 10.984375 10.5 
Q 14.703125 8.734375 18.5 7.8125 
Q 22.3125 6.890625 25.984375 6.890625 
Q 35.75 6.890625 40.890625 13.453125 
Q 46.046875 20.015625 46.78125 33.40625 
Q 43.953125 29.203125 39.59375 26.953125 
Q 35.25 24.703125 29.984375 24.703125 
Q 19.046875 24.703125 12.671875 31.3125 
Q 6.296875 37.9375 6.296875 49.421875 
Q 6.296875 60.640625 12.9375 67.421875 
Q 19.578125 74.21875 30.609375 74.21875 
Q 43.265625 74.21875 49.921875 64.515625 
Q 56.59375 54.828125 56.59375 36.375 
Q 56.59375 19.140625 48.40625 8.859375 
Q 40.234375 -1.421875 26.421875 -1.421875 
Q 22.703125 -1.421875 18.890625 -0.6875 
Q 15.09375 0.046875 10.984375 1.515625 
z
M 30.609375 32.421875 
Q 37.25 32.421875 41.125 36.953125 
Q 45.015625 41.5 45.015625 49.421875 
Q 45.015625 57.28125 41.125 61.84375 
Q 37.25 66.40625 30.609375 66.40625 
Q 23.96875 66.40625 20.09375 61.84375 
Q 16.21875 57.28125 16.21875 49.421875 
Q 16.21875 41.5 20.09375 36.953125 
Q 23.96875 32.421875 30.609375 32.421875 
z
" id="DejaVuSans-39"/>
     </defs>
     <g transform="translate(459.203125 358.722188)scale(0.1 -0.1)">
      <use xlink:href="#DejaVuSans-6c"/>
      <use x="27.783203" xlink:href="#DejaVuSans-61"/>
      <use x="89.0625" xlink:href="#DejaVuSans-6d"/>
      <use x="186.474609" xlink:href="#DejaVuSans-62"/>
      <use x="249.951172" xlink:href="#DejaVuSans-64"/>
      <use x="313.427734" xlink:href="#DejaVuSans-61"/>
      <use x="374.707031" xlink:href="#DejaVuSans-39"/>
     </g>
    </g>
    <g id="line2d_65">
     <path d="M 431.203125 369.900312 
L 451.203125 369.900312 
" style="fill:none;stroke:#ff0000;stroke-linecap:square;stroke-width:1.5;"/>
    </g>
    <g id="line2d_66"/>
    <g id="text_31">
     <!-- lambda10 -->
     <g transform="translate(459.203125 373.400312)scale(0.1 -0.1)">
      <use xlink:href="#DejaVuSans-6c"/>
      <use x="27.783203" xlink:href="#DejaVuSans-61"/>
      <use x="89.0625" xlink:href="#DejaVuSans-6d"/>
      <use x="186.474609" xlink:href="#DejaVuSans-62"/>
      <use x="249.951172" xlink:href="#DejaVuSans-64"/>
      <use x="313.427734" xlink:href="#DejaVuSans-61"/>
      <use x="374.707031" xlink:href="#DejaVuSans-31"/>
      <use x="438.330078" xlink:href="#DejaVuSans-30"/>
     </g>
    </g>
   </g>
  </g>
 </g>
 <defs>
  <clipPath id="pe46de44751">
   <rect height="332.64" width="446.4" x="72" y="51.84"/>
  </clipPath>
 </defs>
</svg>
