<?xml version="1.0" encoding="utf-8" standalone="no"?>
<!DOCTYPE svg PUBLIC "-//W3C//DTD SVG 1.1//EN"
  "http://www.w3.org/Graphics/SVG/1.1/DTD/svg11.dtd">
<!-- Created with matplotlib (http://matplotlib.org/) -->
<svg height="432pt" version="1.1" viewBox="0 0 576 432" width="576pt" xmlns="http://www.w3.org/2000/svg" xmlns:xlink="http://www.w3.org/1999/xlink">
 <defs>
  <style type="text/css">
*{stroke-linecap:butt;stroke-linejoin:round;}
  </style>
 </defs>
 <g id="figure_1">
  <g id="patch_1">
   <path d="M 0 432 
L 576 432 
L 576 0 
L 0 0 
z
" style="fill:#ffffff;"/>
  </g>
  <g id="axes_1">
   <g id="patch_2">
    <path d="M 72 384.48 
L 518.4 384.48 
L 518.4 51.84 
L 72 51.84 
z
" style="fill:#ffffff;"/>
   </g>
   <g id="matplotlib.axis_1">
    <g id="xtick_1">
     <g id="line2d_1">
      <path clip-path="url(#p51b2659cd1)" d="M 92.290909 384.48 
L 92.290909 51.84 
" style="fill:none;stroke:#b0b0b0;stroke-dasharray:5.12,1.28,0.8,1.28;stroke-dashoffset:0;stroke-width:0.8;"/>
     </g>
     <g id="line2d_2">
      <defs>
       <path d="M 0 0 
L 0 3.5 
" id="m4248ed206f" style="stroke:#000000;stroke-width:0.8;"/>
      </defs>
      <g>
       <use style="stroke:#000000;stroke-width:0.8;" x="92.290909" xlink:href="#m4248ed206f" y="384.48"/>
      </g>
     </g>
     <g id="text_1">
      <!-- 0 -->
      <defs>
       <path d="M 31.78125 66.40625 
Q 24.171875 66.40625 20.328125 58.90625 
Q 16.5 51.421875 16.5 36.375 
Q 16.5 21.390625 20.328125 13.890625 
Q 24.171875 6.390625 31.78125 6.390625 
Q 39.453125 6.390625 43.28125 13.890625 
Q 47.125 21.390625 47.125 36.375 
Q 47.125 51.421875 43.28125 58.90625 
Q 39.453125 66.40625 31.78125 66.40625 
z
M 31.78125 74.21875 
Q 44.046875 74.21875 50.515625 64.515625 
Q 56.984375 54.828125 56.984375 36.375 
Q 56.984375 17.96875 50.515625 8.265625 
Q 44.046875 -1.421875 31.78125 -1.421875 
Q 19.53125 -1.421875 13.0625 8.265625 
Q 6.59375 17.96875 6.59375 36.375 
Q 6.59375 54.828125 13.0625 64.515625 
Q 19.53125 74.21875 31.78125 74.21875 
z
" id="DejaVuSans-30"/>
      </defs>
      <g transform="translate(89.109659 399.078438)scale(0.1 -0.1)">
       <use xlink:href="#DejaVuSans-30"/>
      </g>
     </g>
    </g>
    <g id="xtick_2">
     <g id="line2d_3">
      <path clip-path="url(#p51b2659cd1)" d="M 149.951918 384.48 
L 149.951918 51.84 
" style="fill:none;stroke:#b0b0b0;stroke-dasharray:5.12,1.28,0.8,1.28;stroke-dashoffset:0;stroke-width:0.8;"/>
     </g>
     <g id="line2d_4">
      <g>
       <use style="stroke:#000000;stroke-width:0.8;" x="149.951918" xlink:href="#m4248ed206f" y="384.48"/>
      </g>
     </g>
     <g id="text_2">
      <!-- 500 -->
      <defs>
       <path d="M 10.796875 72.90625 
L 49.515625 72.90625 
L 49.515625 64.59375 
L 19.828125 64.59375 
L 19.828125 46.734375 
Q 21.96875 47.46875 24.109375 47.828125 
Q 26.265625 48.1875 28.421875 48.1875 
Q 40.625 48.1875 47.75 41.5 
Q 54.890625 34.8125 54.890625 23.390625 
Q 54.890625 11.625 47.5625 5.09375 
Q 40.234375 -1.421875 26.90625 -1.421875 
Q 22.3125 -1.421875 17.546875 -0.640625 
Q 12.796875 0.140625 7.71875 1.703125 
L 7.71875 11.625 
Q 12.109375 9.234375 16.796875 8.0625 
Q 21.484375 6.890625 26.703125 6.890625 
Q 35.15625 6.890625 40.078125 11.328125 
Q 45.015625 15.765625 45.015625 23.390625 
Q 45.015625 31 40.078125 35.4375 
Q 35.15625 39.890625 26.703125 39.890625 
Q 22.75 39.890625 18.8125 39.015625 
Q 14.890625 38.140625 10.796875 36.28125 
z
" id="DejaVuSans-35"/>
      </defs>
      <g transform="translate(140.408168 399.078438)scale(0.1 -0.1)">
       <use xlink:href="#DejaVuSans-35"/>
       <use x="63.623047" xlink:href="#DejaVuSans-30"/>
       <use x="127.246094" xlink:href="#DejaVuSans-30"/>
      </g>
     </g>
    </g>
    <g id="xtick_3">
     <g id="line2d_5">
      <path clip-path="url(#p51b2659cd1)" d="M 207.612927 384.48 
L 207.612927 51.84 
" style="fill:none;stroke:#b0b0b0;stroke-dasharray:5.12,1.28,0.8,1.28;stroke-dashoffset:0;stroke-width:0.8;"/>
     </g>
     <g id="line2d_6">
      <g>
       <use style="stroke:#000000;stroke-width:0.8;" x="207.612927" xlink:href="#m4248ed206f" y="384.48"/>
      </g>
     </g>
     <g id="text_3">
      <!-- 1000 -->
      <defs>
       <path d="M 12.40625 8.296875 
L 28.515625 8.296875 
L 28.515625 63.921875 
L 10.984375 60.40625 
L 10.984375 69.390625 
L 28.421875 72.90625 
L 38.28125 72.90625 
L 38.28125 8.296875 
L 54.390625 8.296875 
L 54.390625 0 
L 12.40625 0 
z
" id="DejaVuSans-31"/>
      </defs>
      <g transform="translate(194.887927 399.078438)scale(0.1 -0.1)">
       <use xlink:href="#DejaVuSans-31"/>
       <use x="63.623047" xlink:href="#DejaVuSans-30"/>
       <use x="127.246094" xlink:href="#DejaVuSans-30"/>
       <use x="190.869141" xlink:href="#DejaVuSans-30"/>
      </g>
     </g>
    </g>
    <g id="xtick_4">
     <g id="line2d_7">
      <path clip-path="url(#p51b2659cd1)" d="M 265.273936 384.48 
L 265.273936 51.84 
" style="fill:none;stroke:#b0b0b0;stroke-dasharray:5.12,1.28,0.8,1.28;stroke-dashoffset:0;stroke-width:0.8;"/>
     </g>
     <g id="line2d_8">
      <g>
       <use style="stroke:#000000;stroke-width:0.8;" x="265.273936" xlink:href="#m4248ed206f" y="384.48"/>
      </g>
     </g>
     <g id="text_4">
      <!-- 1500 -->
      <g transform="translate(252.548936 399.078438)scale(0.1 -0.1)">
       <use xlink:href="#DejaVuSans-31"/>
       <use x="63.623047" xlink:href="#DejaVuSans-35"/>
       <use x="127.246094" xlink:href="#DejaVuSans-30"/>
       <use x="190.869141" xlink:href="#DejaVuSans-30"/>
      </g>
     </g>
    </g>
    <g id="xtick_5">
     <g id="line2d_9">
      <path clip-path="url(#p51b2659cd1)" d="M 322.934945 384.48 
L 322.934945 51.84 
" style="fill:none;stroke:#b0b0b0;stroke-dasharray:5.12,1.28,0.8,1.28;stroke-dashoffset:0;stroke-width:0.8;"/>
     </g>
     <g id="line2d_10">
      <g>
       <use style="stroke:#000000;stroke-width:0.8;" x="322.934945" xlink:href="#m4248ed206f" y="384.48"/>
      </g>
     </g>
     <g id="text_5">
      <!-- 2000 -->
      <defs>
       <path d="M 19.1875 8.296875 
L 53.609375 8.296875 
L 53.609375 0 
L 7.328125 0 
L 7.328125 8.296875 
Q 12.9375 14.109375 22.625 23.890625 
Q 32.328125 33.6875 34.8125 36.53125 
Q 39.546875 41.84375 41.421875 45.53125 
Q 43.3125 49.21875 43.3125 52.78125 
Q 43.3125 58.59375 39.234375 62.25 
Q 35.15625 65.921875 28.609375 65.921875 
Q 23.96875 65.921875 18.8125 64.3125 
Q 13.671875 62.703125 7.8125 59.421875 
L 7.8125 69.390625 
Q 13.765625 71.78125 18.9375 73 
Q 24.125 74.21875 28.421875 74.21875 
Q 39.75 74.21875 46.484375 68.546875 
Q 53.21875 62.890625 53.21875 53.421875 
Q 53.21875 48.921875 51.53125 44.890625 
Q 49.859375 40.875 45.40625 35.40625 
Q 44.1875 33.984375 37.640625 27.21875 
Q 31.109375 20.453125 19.1875 8.296875 
z
" id="DejaVuSans-32"/>
      </defs>
      <g transform="translate(310.209945 399.078438)scale(0.1 -0.1)">
       <use xlink:href="#DejaVuSans-32"/>
       <use x="63.623047" xlink:href="#DejaVuSans-30"/>
       <use x="127.246094" xlink:href="#DejaVuSans-30"/>
       <use x="190.869141" xlink:href="#DejaVuSans-30"/>
      </g>
     </g>
    </g>
    <g id="xtick_6">
     <g id="line2d_11">
      <path clip-path="url(#p51b2659cd1)" d="M 380.595954 384.48 
L 380.595954 51.84 
" style="fill:none;stroke:#b0b0b0;stroke-dasharray:5.12,1.28,0.8,1.28;stroke-dashoffset:0;stroke-width:0.8;"/>
     </g>
     <g id="line2d_12">
      <g>
       <use style="stroke:#000000;stroke-width:0.8;" x="380.595954" xlink:href="#m4248ed206f" y="384.48"/>
      </g>
     </g>
     <g id="text_6">
      <!-- 2500 -->
      <g transform="translate(367.870954 399.078438)scale(0.1 -0.1)">
       <use xlink:href="#DejaVuSans-32"/>
       <use x="63.623047" xlink:href="#DejaVuSans-35"/>
       <use x="127.246094" xlink:href="#DejaVuSans-30"/>
       <use x="190.869141" xlink:href="#DejaVuSans-30"/>
      </g>
     </g>
    </g>
    <g id="xtick_7">
     <g id="line2d_13">
      <path clip-path="url(#p51b2659cd1)" d="M 438.256963 384.48 
L 438.256963 51.84 
" style="fill:none;stroke:#b0b0b0;stroke-dasharray:5.12,1.28,0.8,1.28;stroke-dashoffset:0;stroke-width:0.8;"/>
     </g>
     <g id="line2d_14">
      <g>
       <use style="stroke:#000000;stroke-width:0.8;" x="438.256963" xlink:href="#m4248ed206f" y="384.48"/>
      </g>
     </g>
     <g id="text_7">
      <!-- 3000 -->
      <defs>
       <path d="M 40.578125 39.3125 
Q 47.65625 37.796875 51.625 33 
Q 55.609375 28.21875 55.609375 21.1875 
Q 55.609375 10.40625 48.1875 4.484375 
Q 40.765625 -1.421875 27.09375 -1.421875 
Q 22.515625 -1.421875 17.65625 -0.515625 
Q 12.796875 0.390625 7.625 2.203125 
L 7.625 11.71875 
Q 11.71875 9.328125 16.59375 8.109375 
Q 21.484375 6.890625 26.8125 6.890625 
Q 36.078125 6.890625 40.9375 10.546875 
Q 45.796875 14.203125 45.796875 21.1875 
Q 45.796875 27.640625 41.28125 31.265625 
Q 36.765625 34.90625 28.71875 34.90625 
L 20.21875 34.90625 
L 20.21875 43.015625 
L 29.109375 43.015625 
Q 36.375 43.015625 40.234375 45.921875 
Q 44.09375 48.828125 44.09375 54.296875 
Q 44.09375 59.90625 40.109375 62.90625 
Q 36.140625 65.921875 28.71875 65.921875 
Q 24.65625 65.921875 20.015625 65.03125 
Q 15.375 64.15625 9.8125 62.3125 
L 9.8125 71.09375 
Q 15.4375 72.65625 20.34375 73.4375 
Q 25.25 74.21875 29.59375 74.21875 
Q 40.828125 74.21875 47.359375 69.109375 
Q 53.90625 64.015625 53.90625 55.328125 
Q 53.90625 49.265625 50.4375 45.09375 
Q 46.96875 40.921875 40.578125 39.3125 
z
" id="DejaVuSans-33"/>
      </defs>
      <g transform="translate(425.531963 399.078438)scale(0.1 -0.1)">
       <use xlink:href="#DejaVuSans-33"/>
       <use x="63.623047" xlink:href="#DejaVuSans-30"/>
       <use x="127.246094" xlink:href="#DejaVuSans-30"/>
       <use x="190.869141" xlink:href="#DejaVuSans-30"/>
      </g>
     </g>
    </g>
    <g id="xtick_8">
     <g id="line2d_15">
      <path clip-path="url(#p51b2659cd1)" d="M 495.917973 384.48 
L 495.917973 51.84 
" style="fill:none;stroke:#b0b0b0;stroke-dasharray:5.12,1.28,0.8,1.28;stroke-dashoffset:0;stroke-width:0.8;"/>
     </g>
     <g id="line2d_16">
      <g>
       <use style="stroke:#000000;stroke-width:0.8;" x="495.917973" xlink:href="#m4248ed206f" y="384.48"/>
      </g>
     </g>
     <g id="text_8">
      <!-- 3500 -->
      <g transform="translate(483.192973 399.078438)scale(0.1 -0.1)">
       <use xlink:href="#DejaVuSans-33"/>
       <use x="63.623047" xlink:href="#DejaVuSans-35"/>
       <use x="127.246094" xlink:href="#DejaVuSans-30"/>
       <use x="190.869141" xlink:href="#DejaVuSans-30"/>
      </g>
     </g>
    </g>
    <g id="text_9">
     <!-- Iteration -->
     <defs>
      <path d="M 9.8125 72.90625 
L 19.671875 72.90625 
L 19.671875 0 
L 9.8125 0 
z
" id="DejaVuSans-49"/>
      <path d="M 18.3125 70.21875 
L 18.3125 54.6875 
L 36.8125 54.6875 
L 36.8125 47.703125 
L 18.3125 47.703125 
L 18.3125 18.015625 
Q 18.3125 11.328125 20.140625 9.421875 
Q 21.96875 7.515625 27.59375 7.515625 
L 36.8125 7.515625 
L 36.8125 0 
L 27.59375 0 
Q 17.1875 0 13.234375 3.875 
Q 9.28125 7.765625 9.28125 18.015625 
L 9.28125 47.703125 
L 2.6875 47.703125 
L 2.6875 54.6875 
L 9.28125 54.6875 
L 9.28125 70.21875 
z
" id="DejaVuSans-74"/>
      <path d="M 56.203125 29.59375 
L 56.203125 25.203125 
L 14.890625 25.203125 
Q 15.484375 15.921875 20.484375 11.0625 
Q 25.484375 6.203125 34.421875 6.203125 
Q 39.59375 6.203125 44.453125 7.46875 
Q 49.3125 8.734375 54.109375 11.28125 
L 54.109375 2.78125 
Q 49.265625 0.734375 44.1875 -0.34375 
Q 39.109375 -1.421875 33.890625 -1.421875 
Q 20.796875 -1.421875 13.15625 6.1875 
Q 5.515625 13.8125 5.515625 26.8125 
Q 5.515625 40.234375 12.765625 48.109375 
Q 20.015625 56 32.328125 56 
Q 43.359375 56 49.78125 48.890625 
Q 56.203125 41.796875 56.203125 29.59375 
z
M 47.21875 32.234375 
Q 47.125 39.59375 43.09375 43.984375 
Q 39.0625 48.390625 32.421875 48.390625 
Q 24.90625 48.390625 20.390625 44.140625 
Q 15.875 39.890625 15.1875 32.171875 
z
" id="DejaVuSans-65"/>
      <path d="M 41.109375 46.296875 
Q 39.59375 47.171875 37.8125 47.578125 
Q 36.03125 48 33.890625 48 
Q 26.265625 48 22.1875 43.046875 
Q 18.109375 38.09375 18.109375 28.8125 
L 18.109375 0 
L 9.078125 0 
L 9.078125 54.6875 
L 18.109375 54.6875 
L 18.109375 46.1875 
Q 20.953125 51.171875 25.484375 53.578125 
Q 30.03125 56 36.53125 56 
Q 37.453125 56 38.578125 55.875 
Q 39.703125 55.765625 41.0625 55.515625 
z
" id="DejaVuSans-72"/>
      <path d="M 34.28125 27.484375 
Q 23.390625 27.484375 19.1875 25 
Q 14.984375 22.515625 14.984375 16.5 
Q 14.984375 11.71875 18.140625 8.90625 
Q 21.296875 6.109375 26.703125 6.109375 
Q 34.1875 6.109375 38.703125 11.40625 
Q 43.21875 16.703125 43.21875 25.484375 
L 43.21875 27.484375 
z
M 52.203125 31.203125 
L 52.203125 0 
L 43.21875 0 
L 43.21875 8.296875 
Q 40.140625 3.328125 35.546875 0.953125 
Q 30.953125 -1.421875 24.3125 -1.421875 
Q 15.921875 -1.421875 10.953125 3.296875 
Q 6 8.015625 6 15.921875 
Q 6 25.140625 12.171875 29.828125 
Q 18.359375 34.515625 30.609375 34.515625 
L 43.21875 34.515625 
L 43.21875 35.40625 
Q 43.21875 41.609375 39.140625 45 
Q 35.0625 48.390625 27.6875 48.390625 
Q 23 48.390625 18.546875 47.265625 
Q 14.109375 46.140625 10.015625 43.890625 
L 10.015625 52.203125 
Q 14.9375 54.109375 19.578125 55.046875 
Q 24.21875 56 28.609375 56 
Q 40.484375 56 46.34375 49.84375 
Q 52.203125 43.703125 52.203125 31.203125 
z
" id="DejaVuSans-61"/>
      <path d="M 9.421875 54.6875 
L 18.40625 54.6875 
L 18.40625 0 
L 9.421875 0 
z
M 9.421875 75.984375 
L 18.40625 75.984375 
L 18.40625 64.59375 
L 9.421875 64.59375 
z
" id="DejaVuSans-69"/>
      <path d="M 30.609375 48.390625 
Q 23.390625 48.390625 19.1875 42.75 
Q 14.984375 37.109375 14.984375 27.296875 
Q 14.984375 17.484375 19.15625 11.84375 
Q 23.34375 6.203125 30.609375 6.203125 
Q 37.796875 6.203125 41.984375 11.859375 
Q 46.1875 17.53125 46.1875 27.296875 
Q 46.1875 37.015625 41.984375 42.703125 
Q 37.796875 48.390625 30.609375 48.390625 
z
M 30.609375 56 
Q 42.328125 56 49.015625 48.375 
Q 55.71875 40.765625 55.71875 27.296875 
Q 55.71875 13.875 49.015625 6.21875 
Q 42.328125 -1.421875 30.609375 -1.421875 
Q 18.84375 -1.421875 12.171875 6.21875 
Q 5.515625 13.875 5.515625 27.296875 
Q 5.515625 40.765625 12.171875 48.375 
Q 18.84375 56 30.609375 56 
z
" id="DejaVuSans-6f"/>
      <path d="M 54.890625 33.015625 
L 54.890625 0 
L 45.90625 0 
L 45.90625 32.71875 
Q 45.90625 40.484375 42.875 44.328125 
Q 39.84375 48.1875 33.796875 48.1875 
Q 26.515625 48.1875 22.3125 43.546875 
Q 18.109375 38.921875 18.109375 30.90625 
L 18.109375 0 
L 9.078125 0 
L 9.078125 54.6875 
L 18.109375 54.6875 
L 18.109375 46.1875 
Q 21.34375 51.125 25.703125 53.5625 
Q 30.078125 56 35.796875 56 
Q 45.21875 56 50.046875 50.171875 
Q 54.890625 44.34375 54.890625 33.015625 
z
" id="DejaVuSans-6e"/>
     </defs>
     <g transform="translate(265.507969 415.795938)scale(0.14 -0.14)">
      <use xlink:href="#DejaVuSans-49"/>
      <use x="29.492188" xlink:href="#DejaVuSans-74"/>
      <use x="68.701172" xlink:href="#DejaVuSans-65"/>
      <use x="130.224609" xlink:href="#DejaVuSans-72"/>
      <use x="171.337891" xlink:href="#DejaVuSans-61"/>
      <use x="232.617188" xlink:href="#DejaVuSans-74"/>
      <use x="271.826172" xlink:href="#DejaVuSans-69"/>
      <use x="299.609375" xlink:href="#DejaVuSans-6f"/>
      <use x="360.791016" xlink:href="#DejaVuSans-6e"/>
     </g>
    </g>
   </g>
   <g id="matplotlib.axis_2">
    <g id="ytick_1">
     <g id="line2d_17">
      <path clip-path="url(#p51b2659cd1)" d="M 72 362.65431 
L 518.4 362.65431 
" style="fill:none;stroke:#b0b0b0;stroke-dasharray:5.12,1.28,0.8,1.28;stroke-dashoffset:0;stroke-width:0.8;"/>
     </g>
     <g id="line2d_18">
      <defs>
       <path d="M 0 0 
L -3.5 0 
" id="md9397e2a47" style="stroke:#000000;stroke-width:0.8;"/>
      </defs>
      <g>
       <use style="stroke:#000000;stroke-width:0.8;" x="72" xlink:href="#md9397e2a47" y="362.65431"/>
      </g>
     </g>
     <g id="text_10">
      <!-- 0 -->
      <g transform="translate(58.6375 366.453529)scale(0.1 -0.1)">
       <use xlink:href="#DejaVuSans-30"/>
      </g>
     </g>
    </g>
    <g id="ytick_2">
     <g id="line2d_19">
      <path clip-path="url(#p51b2659cd1)" d="M 72 296.944463 
L 518.4 296.944463 
" style="fill:none;stroke:#b0b0b0;stroke-dasharray:5.12,1.28,0.8,1.28;stroke-dashoffset:0;stroke-width:0.8;"/>
     </g>
     <g id="line2d_20">
      <g>
       <use style="stroke:#000000;stroke-width:0.8;" x="72" xlink:href="#md9397e2a47" y="296.944463"/>
      </g>
     </g>
     <g id="text_11">
      <!-- 2 -->
      <g transform="translate(58.6375 300.743682)scale(0.1 -0.1)">
       <use xlink:href="#DejaVuSans-32"/>
      </g>
     </g>
    </g>
    <g id="ytick_3">
     <g id="line2d_21">
      <path clip-path="url(#p51b2659cd1)" d="M 72 231.234617 
L 518.4 231.234617 
" style="fill:none;stroke:#b0b0b0;stroke-dasharray:5.12,1.28,0.8,1.28;stroke-dashoffset:0;stroke-width:0.8;"/>
     </g>
     <g id="line2d_22">
      <g>
       <use style="stroke:#000000;stroke-width:0.8;" x="72" xlink:href="#md9397e2a47" y="231.234617"/>
      </g>
     </g>
     <g id="text_12">
      <!-- 4 -->
      <defs>
       <path d="M 37.796875 64.3125 
L 12.890625 25.390625 
L 37.796875 25.390625 
z
M 35.203125 72.90625 
L 47.609375 72.90625 
L 47.609375 25.390625 
L 58.015625 25.390625 
L 58.015625 17.1875 
L 47.609375 17.1875 
L 47.609375 0 
L 37.796875 0 
L 37.796875 17.1875 
L 4.890625 17.1875 
L 4.890625 26.703125 
z
" id="DejaVuSans-34"/>
      </defs>
      <g transform="translate(58.6375 235.033835)scale(0.1 -0.1)">
       <use xlink:href="#DejaVuSans-34"/>
      </g>
     </g>
    </g>
    <g id="ytick_4">
     <g id="line2d_23">
      <path clip-path="url(#p51b2659cd1)" d="M 72 165.52477 
L 518.4 165.52477 
" style="fill:none;stroke:#b0b0b0;stroke-dasharray:5.12,1.28,0.8,1.28;stroke-dashoffset:0;stroke-width:0.8;"/>
     </g>
     <g id="line2d_24">
      <g>
       <use style="stroke:#000000;stroke-width:0.8;" x="72" xlink:href="#md9397e2a47" y="165.52477"/>
      </g>
     </g>
     <g id="text_13">
      <!-- 6 -->
      <defs>
       <path d="M 33.015625 40.375 
Q 26.375 40.375 22.484375 35.828125 
Q 18.609375 31.296875 18.609375 23.390625 
Q 18.609375 15.53125 22.484375 10.953125 
Q 26.375 6.390625 33.015625 6.390625 
Q 39.65625 6.390625 43.53125 10.953125 
Q 47.40625 15.53125 47.40625 23.390625 
Q 47.40625 31.296875 43.53125 35.828125 
Q 39.65625 40.375 33.015625 40.375 
z
M 52.59375 71.296875 
L 52.59375 62.3125 
Q 48.875 64.0625 45.09375 64.984375 
Q 41.3125 65.921875 37.59375 65.921875 
Q 27.828125 65.921875 22.671875 59.328125 
Q 17.53125 52.734375 16.796875 39.40625 
Q 19.671875 43.65625 24.015625 45.921875 
Q 28.375 48.1875 33.59375 48.1875 
Q 44.578125 48.1875 50.953125 41.515625 
Q 57.328125 34.859375 57.328125 23.390625 
Q 57.328125 12.15625 50.6875 5.359375 
Q 44.046875 -1.421875 33.015625 -1.421875 
Q 20.359375 -1.421875 13.671875 8.265625 
Q 6.984375 17.96875 6.984375 36.375 
Q 6.984375 53.65625 15.1875 63.9375 
Q 23.390625 74.21875 37.203125 74.21875 
Q 40.921875 74.21875 44.703125 73.484375 
Q 48.484375 72.75 52.59375 71.296875 
z
" id="DejaVuSans-36"/>
      </defs>
      <g transform="translate(58.6375 169.323989)scale(0.1 -0.1)">
       <use xlink:href="#DejaVuSans-36"/>
      </g>
     </g>
    </g>
    <g id="ytick_5">
     <g id="line2d_25">
      <path clip-path="url(#p51b2659cd1)" d="M 72 99.814923 
L 518.4 99.814923 
" style="fill:none;stroke:#b0b0b0;stroke-dasharray:5.12,1.28,0.8,1.28;stroke-dashoffset:0;stroke-width:0.8;"/>
     </g>
     <g id="line2d_26">
      <g>
       <use style="stroke:#000000;stroke-width:0.8;" x="72" xlink:href="#md9397e2a47" y="99.814923"/>
      </g>
     </g>
     <g id="text_14">
      <!-- 8 -->
      <defs>
       <path d="M 31.78125 34.625 
Q 24.75 34.625 20.71875 30.859375 
Q 16.703125 27.09375 16.703125 20.515625 
Q 16.703125 13.921875 20.71875 10.15625 
Q 24.75 6.390625 31.78125 6.390625 
Q 38.8125 6.390625 42.859375 10.171875 
Q 46.921875 13.96875 46.921875 20.515625 
Q 46.921875 27.09375 42.890625 30.859375 
Q 38.875 34.625 31.78125 34.625 
z
M 21.921875 38.8125 
Q 15.578125 40.375 12.03125 44.71875 
Q 8.5 49.078125 8.5 55.328125 
Q 8.5 64.0625 14.71875 69.140625 
Q 20.953125 74.21875 31.78125 74.21875 
Q 42.671875 74.21875 48.875 69.140625 
Q 55.078125 64.0625 55.078125 55.328125 
Q 55.078125 49.078125 51.53125 44.71875 
Q 48 40.375 41.703125 38.8125 
Q 48.828125 37.15625 52.796875 32.3125 
Q 56.78125 27.484375 56.78125 20.515625 
Q 56.78125 9.90625 50.3125 4.234375 
Q 43.84375 -1.421875 31.78125 -1.421875 
Q 19.734375 -1.421875 13.25 4.234375 
Q 6.78125 9.90625 6.78125 20.515625 
Q 6.78125 27.484375 10.78125 32.3125 
Q 14.796875 37.15625 21.921875 38.8125 
z
M 18.3125 54.390625 
Q 18.3125 48.734375 21.84375 45.5625 
Q 25.390625 42.390625 31.78125 42.390625 
Q 38.140625 42.390625 41.71875 45.5625 
Q 45.3125 48.734375 45.3125 54.390625 
Q 45.3125 60.0625 41.71875 63.234375 
Q 38.140625 66.40625 31.78125 66.40625 
Q 25.390625 66.40625 21.84375 63.234375 
Q 18.3125 60.0625 18.3125 54.390625 
z
" id="DejaVuSans-38"/>
      </defs>
      <g transform="translate(58.6375 103.614142)scale(0.1 -0.1)">
       <use xlink:href="#DejaVuSans-38"/>
      </g>
     </g>
    </g>
    <g id="text_15">
     <!-- dif_generated_power -->
     <defs>
      <path d="M 45.40625 46.390625 
L 45.40625 75.984375 
L 54.390625 75.984375 
L 54.390625 0 
L 45.40625 0 
L 45.40625 8.203125 
Q 42.578125 3.328125 38.25 0.953125 
Q 33.9375 -1.421875 27.875 -1.421875 
Q 17.96875 -1.421875 11.734375 6.484375 
Q 5.515625 14.40625 5.515625 27.296875 
Q 5.515625 40.1875 11.734375 48.09375 
Q 17.96875 56 27.875 56 
Q 33.9375 56 38.25 53.625 
Q 42.578125 51.265625 45.40625 46.390625 
z
M 14.796875 27.296875 
Q 14.796875 17.390625 18.875 11.75 
Q 22.953125 6.109375 30.078125 6.109375 
Q 37.203125 6.109375 41.296875 11.75 
Q 45.40625 17.390625 45.40625 27.296875 
Q 45.40625 37.203125 41.296875 42.84375 
Q 37.203125 48.484375 30.078125 48.484375 
Q 22.953125 48.484375 18.875 42.84375 
Q 14.796875 37.203125 14.796875 27.296875 
z
" id="DejaVuSans-64"/>
      <path d="M 37.109375 75.984375 
L 37.109375 68.5 
L 28.515625 68.5 
Q 23.6875 68.5 21.796875 66.546875 
Q 19.921875 64.59375 19.921875 59.515625 
L 19.921875 54.6875 
L 34.71875 54.6875 
L 34.71875 47.703125 
L 19.921875 47.703125 
L 19.921875 0 
L 10.890625 0 
L 10.890625 47.703125 
L 2.296875 47.703125 
L 2.296875 54.6875 
L 10.890625 54.6875 
L 10.890625 58.5 
Q 10.890625 67.625 15.140625 71.796875 
Q 19.390625 75.984375 28.609375 75.984375 
z
" id="DejaVuSans-66"/>
      <path d="M 50.984375 -16.609375 
L 50.984375 -23.578125 
L -0.984375 -23.578125 
L -0.984375 -16.609375 
z
" id="DejaVuSans-5f"/>
      <path d="M 45.40625 27.984375 
Q 45.40625 37.75 41.375 43.109375 
Q 37.359375 48.484375 30.078125 48.484375 
Q 22.859375 48.484375 18.828125 43.109375 
Q 14.796875 37.75 14.796875 27.984375 
Q 14.796875 18.265625 18.828125 12.890625 
Q 22.859375 7.515625 30.078125 7.515625 
Q 37.359375 7.515625 41.375 12.890625 
Q 45.40625 18.265625 45.40625 27.984375 
z
M 54.390625 6.78125 
Q 54.390625 -7.171875 48.1875 -13.984375 
Q 42 -20.796875 29.203125 -20.796875 
Q 24.46875 -20.796875 20.265625 -20.09375 
Q 16.0625 -19.390625 12.109375 -17.921875 
L 12.109375 -9.1875 
Q 16.0625 -11.328125 19.921875 -12.34375 
Q 23.78125 -13.375 27.78125 -13.375 
Q 36.625 -13.375 41.015625 -8.765625 
Q 45.40625 -4.15625 45.40625 5.171875 
L 45.40625 9.625 
Q 42.625 4.78125 38.28125 2.390625 
Q 33.9375 0 27.875 0 
Q 17.828125 0 11.671875 7.65625 
Q 5.515625 15.328125 5.515625 27.984375 
Q 5.515625 40.671875 11.671875 48.328125 
Q 17.828125 56 27.875 56 
Q 33.9375 56 38.28125 53.609375 
Q 42.625 51.21875 45.40625 46.390625 
L 45.40625 54.6875 
L 54.390625 54.6875 
z
" id="DejaVuSans-67"/>
      <path d="M 18.109375 8.203125 
L 18.109375 -20.796875 
L 9.078125 -20.796875 
L 9.078125 54.6875 
L 18.109375 54.6875 
L 18.109375 46.390625 
Q 20.953125 51.265625 25.265625 53.625 
Q 29.59375 56 35.59375 56 
Q 45.5625 56 51.78125 48.09375 
Q 58.015625 40.1875 58.015625 27.296875 
Q 58.015625 14.40625 51.78125 6.484375 
Q 45.5625 -1.421875 35.59375 -1.421875 
Q 29.59375 -1.421875 25.265625 0.953125 
Q 20.953125 3.328125 18.109375 8.203125 
z
M 48.6875 27.296875 
Q 48.6875 37.203125 44.609375 42.84375 
Q 40.53125 48.484375 33.40625 48.484375 
Q 26.265625 48.484375 22.1875 42.84375 
Q 18.109375 37.203125 18.109375 27.296875 
Q 18.109375 17.390625 22.1875 11.75 
Q 26.265625 6.109375 33.40625 6.109375 
Q 40.53125 6.109375 44.609375 11.75 
Q 48.6875 17.390625 48.6875 27.296875 
z
" id="DejaVuSans-70"/>
      <path d="M 4.203125 54.6875 
L 13.1875 54.6875 
L 24.421875 12.015625 
L 35.59375 54.6875 
L 46.1875 54.6875 
L 57.421875 12.015625 
L 68.609375 54.6875 
L 77.59375 54.6875 
L 63.28125 0 
L 52.6875 0 
L 40.921875 44.828125 
L 29.109375 0 
L 18.5 0 
z
" id="DejaVuSans-77"/>
     </defs>
     <g transform="translate(51.336562 291.806562)rotate(-90)scale(0.14 -0.14)">
      <use xlink:href="#DejaVuSans-64"/>
      <use x="63.476562" xlink:href="#DejaVuSans-69"/>
      <use x="91.259766" xlink:href="#DejaVuSans-66"/>
      <use x="126.464844" xlink:href="#DejaVuSans-5f"/>
      <use x="176.464844" xlink:href="#DejaVuSans-67"/>
      <use x="239.941406" xlink:href="#DejaVuSans-65"/>
      <use x="301.464844" xlink:href="#DejaVuSans-6e"/>
      <use x="364.84375" xlink:href="#DejaVuSans-65"/>
      <use x="426.367188" xlink:href="#DejaVuSans-72"/>
      <use x="467.480469" xlink:href="#DejaVuSans-61"/>
      <use x="528.759766" xlink:href="#DejaVuSans-74"/>
      <use x="567.96875" xlink:href="#DejaVuSans-65"/>
      <use x="629.492188" xlink:href="#DejaVuSans-64"/>
      <use x="692.96875" xlink:href="#DejaVuSans-5f"/>
      <use x="742.96875" xlink:href="#DejaVuSans-70"/>
      <use x="806.445312" xlink:href="#DejaVuSans-6f"/>
      <use x="867.626953" xlink:href="#DejaVuSans-77"/>
      <use x="949.414062" xlink:href="#DejaVuSans-65"/>
      <use x="1010.9375" xlink:href="#DejaVuSans-72"/>
     </g>
    </g>
   </g>
   <g id="line2d_27">
    <path clip-path="url(#p51b2659cd1)" d="M 92.290909 362.65431 
L 92.406231 66.96 
L 92.636875 288.730733 
L 92.867519 347.087647 
L 93.098163 363.403402 
L 93.328807 367.917669 
L 93.559451 369.011738 
L 93.790095 369.133301 
L 95.289282 368.670047 
L 100.478772 368.482774 
L 101.516671 368.387494 
L 101.631993 368.236362 
L 102.093281 363.212844 
L 102.323925 362.496607 
L 102.554569 362.315904 
L 103.015857 362.371758 
L 104.169077 362.559031 
L 105.437619 362.61817 
L 105.668263 364.527041 
L 105.898907 364.872017 
L 106.244873 364.533612 
L 107.052127 363.705668 
L 107.974704 363.110994 
L 109.243246 362.575458 
L 110.742432 362.171343 
L 112.93355 361.842794 
L 114.317415 361.763942 
L 114.778703 362.480179 
L 115.239991 362.624741 
L 117.431109 362.641168 
L 498.109091 362.65431 
L 498.109091 362.65431 
" style="fill:none;stroke:#bf00bf;stroke-linecap:square;stroke-width:1.5;"/>
   </g>
   <g id="line2d_28">
    <path clip-path="url(#p51b2659cd1)" d="M 92.290909 362.65431 
L 92.406231 132.669847 
L 92.636875 305.158194 
L 92.867519 351.907465 
L 93.098163 364.336482 
L 93.328807 367.654829 
L 93.559451 368.525485 
L 93.790095 368.7259 
L 94.366705 368.729185 
L 101.516671 368.374352 
L 101.631993 368.085229 
L 101.747315 362.65431 
L 105.437619 362.65431 
L 105.668263 365.249849 
L 106.821483 363.728666 
L 107.74406 363.130707 
L 109.012602 362.598457 
L 110.511788 362.194341 
L 112.702906 361.865792 
L 114.202093 361.744229 
L 114.317415 361.800082 
L 114.548059 362.440753 
L 114.894025 362.628026 
L 116.047245 362.65431 
L 498.109091 362.65431 
L 498.109091 362.65431 
" style="fill:none;stroke:#00bfbf;stroke-linecap:square;stroke-width:1.5;"/>
   </g>
   <g id="line2d_29">
    <path clip-path="url(#p51b2659cd1)" d="M 92.290909 362.65431 
L 92.636875 362.65431 
L 92.752197 363.166847 
L 93.213485 366.968162 
L 93.559451 367.983379 
L 94.020739 368.555054 
L 94.482027 368.794895 
L 95.058638 368.860605 
L 96.788468 368.702902 
L 101.631993 368.229791 
L 101.747315 368.118084 
L 102.323925 364.973868 
L 102.785213 363.95208 
L 103.361823 363.278554 
L 104.053755 362.802157 
L 104.745687 362.559031 
L 105.552941 362.457181 
L 105.783585 363.124136 
L 106.014229 363.094566 
L 106.244873 363.340978 
L 106.590839 363.285125 
L 108.435992 362.585315 
L 111.088398 362.312619 
L 114.432737 362.197627 
L 114.778703 362.401327 
L 115.701279 362.506463 
L 118.930295 362.582029 
L 123.889142 362.614884 
L 498.109091 362.65431 
L 498.109091 362.65431 
" style="fill:none;stroke:#ff0000;stroke-linecap:square;stroke-width:1.5;"/>
   </g>
   <g id="line2d_30">
    <path clip-path="url(#p51b2659cd1)" d="M 92.290909 362.65431 
L 92.406231 362.65431 
L 92.521553 362.65431 
L 92.867519 366.843313 
L 93.098163 367.296711 
L 93.444129 367.763251 
L 94.020739 368.679903 
L 94.482027 368.978883 
L 95.058638 369.008452 
L 101.055382 368.249504 
L 101.747315 367.842103 
L 101.977959 367.175148 
L 102.669891 364.852305 
L 103.246501 363.68924 
L 103.938433 362.818585 
L 104.399721 362.496607 
L 105.552941 362.21734 
L 105.898907 362.496607 
L 106.475517 362.555745 
L 108.435992 362.391471 
L 111.78033 362.210769 
L 114.663381 362.227196 
L 115.701279 362.3849 
L 118.353685 362.503177 
L 125.042362 362.585315 
L 193.774285 362.693736 
L 197.810556 362.700307 
L 498.109091 362.65431 
L 498.109091 362.65431 
" style="fill:none;stroke:#008000;stroke-linecap:square;stroke-width:1.5;"/>
   </g>
   <g id="line2d_31">
    <path clip-path="url(#p51b2659cd1)" d="M 92.290909 362.65431 
L 92.406231 362.65431 
L 92.521553 362.65431 
L 93.559451 368.916459 
L 93.905417 369.330431 
L 94.251383 369.343573 
L 97.365078 368.647048 
L 100.36345 368.387494 
L 101.055382 367.907812 
L 101.862637 367.178433 
L 102.323925 366.120505 
L 103.246501 363.975078 
L 103.938433 362.907293 
L 104.399721 362.467037 
L 105.322297 362.145059 
L 105.783585 362.131917 
L 106.706161 362.240338 
L 109.358568 362.207483 
L 115.585957 362.312619 
L 118.814973 362.483465 
L 125.734294 362.572173 
L 182.934015 362.680594 
L 187.431574 362.700307 
L 498.109091 362.65431 
L 498.109091 362.65431 
" style="fill:none;stroke:#0000ff;stroke-linecap:square;stroke-width:1.5;"/>
   </g>
   <g id="line2d_32">
    <path clip-path="url(#p51b2659cd1)" d="M 92.290909 362.65431 
L 92.406231 362.65431 
L 92.521553 362.65431 
L 92.752197 363.304838 
L 93.328807 368.433491 
L 93.559451 369.018309 
L 93.790095 369.149728 
L 94.251383 369.011738 
L 95.289282 368.712758 
L 96.673146 368.584624 
L 100.132806 368.288929 
L 100.94006 367.418274 
L 102.323925 365.772242 
L 103.938433 362.992716 
L 104.399721 362.490036 
L 105.552941 362.079349 
L 106.360195 362.072778 
L 110.0505 362.174628 
L 128.271379 362.585315 
L 155.833341 362.65431 
L 156.063985 362.670738 
L 158.024459 362.611599 
L 163.329272 362.568887 
L 167.826831 362.5886 
L 183.971914 362.697022 
L 188.700116 362.723305 
L 498.109091 362.65431 
L 498.109091 362.65431 
" style="fill:none;stroke:#000000;stroke-linecap:square;stroke-width:1.5;"/>
   </g>
   <g id="line2d_33">
    <path clip-path="url(#p51b2659cd1)" d="M 92.290909 362.65431 
L 92.636875 362.713449 
L 92.982841 366.695466 
L 93.213485 367.309853 
L 93.674773 367.605547 
L 94.943316 368.131226 
L 96.32718 368.338212 
L 98.287654 368.453204 
L 99.671518 368.39078 
L 100.017484 367.927525 
L 101.055382 366.386629 
L 101.977959 365.486405 
L 102.669891 364.684744 
L 104.284399 362.674023 
L 104.630365 362.460466 
L 105.668263 362.154915 
L 106.706161 362.112204 
L 127.348803 362.591886 
L 162.867984 362.483465 
L 167.365543 362.463752 
L 190.314625 362.572173 
L 194.927505 362.595171 
L 498.109091 362.65431 
L 498.109091 362.65431 
" style="fill:none;stroke:#bfbf00;stroke-linecap:square;stroke-width:1.5;"/>
   </g>
   <g id="line2d_34">
    <path clip-path="url(#p51b2659cd1)" d="M 92.290909 362.65431 
L 92.636875 362.670738 
L 93.559451 366.113934 
L 94.136061 366.948449 
L 94.827993 367.506982 
L 95.635248 367.878243 
L 96.788468 368.170652 
L 98.287654 368.36121 
L 99.325552 368.42692 
L 99.440874 368.348068 
L 99.902162 367.181719 
L 100.478772 366.051509 
L 101.170704 365.272848 
L 102.093281 364.615749 
L 103.015857 363.892941 
L 104.630365 362.608313 
L 105.437619 362.401327 
L 106.706161 362.296191 
L 112.587584 362.404613 
L 123.19721 362.598457 
L 498.109091 362.65431 
L 498.109091 362.65431 
" style="fill:none;stroke:#bf00bf;stroke-linecap:square;stroke-width:1.5;"/>
   </g>
   <g id="line2d_35">
    <path clip-path="url(#p51b2659cd1)" d="M 92.290909 362.65431 
L 92.636875 362.657596 
L 92.867519 363.153705 
L 93.674773 365.719674 
L 94.251383 366.613328 
L 94.943316 367.234286 
L 95.865892 367.736967 
L 97.019112 368.095085 
L 98.518298 368.328355 
L 99.21023 368.387494 
L 99.325552 368.052374 
L 99.78684 365.637537 
L 100.132806 364.865446 
L 100.594094 364.369337 
L 101.286027 363.968507 
L 104.515043 362.706878 
L 105.783585 362.3849 
L 106.936805 362.299477 
L 109.127924 362.342188 
L 121.46738 362.585315 
L 498.109091 362.65431 
L 498.109091 362.65431 
" style="fill:none;stroke:#00bfbf;stroke-linecap:square;stroke-width:1.5;"/>
   </g>
   <g id="line2d_36">
    <path clip-path="url(#p51b2659cd1)" d="M 92.290909 362.65431 
L 92.406231 231.234617 
L 92.636875 329.799387 
L 92.867519 355.002398 
L 93.098163 362.013639 
L 93.328807 364.313484 
L 93.674773 365.568542 
L 94.136061 366.304492 
L 94.827993 366.974733 
L 95.75057 367.566121 
L 96.90379 368.003092 
L 98.402976 368.288929 
L 99.21023 368.371067 
L 99.325552 367.007587 
L 99.440874 362.65431 
L 498.109091 362.65431 
L 498.109091 362.65431 
" style="fill:none;stroke:#ff0000;stroke-linecap:square;stroke-width:1.5;"/>
   </g>
   <g id="patch_3">
    <path d="M 72 384.48 
L 72 51.84 
" style="fill:none;stroke:#000000;stroke-linecap:square;stroke-linejoin:miter;stroke-width:0.8;"/>
   </g>
   <g id="patch_4">
    <path d="M 518.4 384.48 
L 518.4 51.84 
" style="fill:none;stroke:#000000;stroke-linecap:square;stroke-linejoin:miter;stroke-width:0.8;"/>
   </g>
   <g id="patch_5">
    <path d="M 72 384.48 
L 518.4 384.48 
" style="fill:none;stroke:#000000;stroke-linecap:square;stroke-linejoin:miter;stroke-width:0.8;"/>
   </g>
   <g id="patch_6">
    <path d="M 72 51.84 
L 518.4 51.84 
" style="fill:none;stroke:#000000;stroke-linecap:square;stroke-linejoin:miter;stroke-width:0.8;"/>
   </g>
   <g id="text_16">
    <!-- dif_generated_power -->
    <g transform="translate(221.553437 45.84)scale(0.14 -0.14)">
     <use xlink:href="#DejaVuSans-64"/>
     <use x="63.476562" xlink:href="#DejaVuSans-69"/>
     <use x="91.259766" xlink:href="#DejaVuSans-66"/>
     <use x="126.464844" xlink:href="#DejaVuSans-5f"/>
     <use x="176.464844" xlink:href="#DejaVuSans-67"/>
     <use x="239.941406" xlink:href="#DejaVuSans-65"/>
     <use x="301.464844" xlink:href="#DejaVuSans-6e"/>
     <use x="364.84375" xlink:href="#DejaVuSans-65"/>
     <use x="426.367188" xlink:href="#DejaVuSans-72"/>
     <use x="467.480469" xlink:href="#DejaVuSans-61"/>
     <use x="528.759766" xlink:href="#DejaVuSans-74"/>
     <use x="567.96875" xlink:href="#DejaVuSans-65"/>
     <use x="629.492188" xlink:href="#DejaVuSans-64"/>
     <use x="692.96875" xlink:href="#DejaVuSans-5f"/>
     <use x="742.96875" xlink:href="#DejaVuSans-70"/>
     <use x="806.445312" xlink:href="#DejaVuSans-6f"/>
     <use x="867.626953" xlink:href="#DejaVuSans-77"/>
     <use x="949.414062" xlink:href="#DejaVuSans-65"/>
     <use x="1010.9375" xlink:href="#DejaVuSans-72"/>
    </g>
   </g>
   <g id="legend_1">
    <g id="patch_7">
     <path d="M 361.465625 209.4025 
L 511.4 209.4025 
Q 513.4 209.4025 513.4 207.4025 
L 513.4 58.84 
Q 513.4 56.84 511.4 56.84 
L 361.465625 56.84 
Q 359.465625 56.84 359.465625 58.84 
L 359.465625 207.4025 
Q 359.465625 209.4025 361.465625 209.4025 
z
" style="fill:#ffffff;opacity:0.8;stroke:#cccccc;stroke-linejoin:miter;"/>
    </g>
    <g id="line2d_37">
     <path d="M 363.465625 64.938437 
L 383.465625 64.938437 
" style="fill:none;stroke:#bf00bf;stroke-linecap:square;stroke-width:1.5;"/>
    </g>
    <g id="line2d_38"/>
    <g id="text_17">
     <!-- dif_generated_power1 -->
     <g transform="translate(391.465625 68.438437)scale(0.1 -0.1)">
      <use xlink:href="#DejaVuSans-64"/>
      <use x="63.476562" xlink:href="#DejaVuSans-69"/>
      <use x="91.259766" xlink:href="#DejaVuSans-66"/>
      <use x="126.464844" xlink:href="#DejaVuSans-5f"/>
      <use x="176.464844" xlink:href="#DejaVuSans-67"/>
      <use x="239.941406" xlink:href="#DejaVuSans-65"/>
      <use x="301.464844" xlink:href="#DejaVuSans-6e"/>
      <use x="364.84375" xlink:href="#DejaVuSans-65"/>
      <use x="426.367188" xlink:href="#DejaVuSans-72"/>
      <use x="467.480469" xlink:href="#DejaVuSans-61"/>
      <use x="528.759766" xlink:href="#DejaVuSans-74"/>
      <use x="567.96875" xlink:href="#DejaVuSans-65"/>
      <use x="629.492188" xlink:href="#DejaVuSans-64"/>
      <use x="692.96875" xlink:href="#DejaVuSans-5f"/>
      <use x="742.96875" xlink:href="#DejaVuSans-70"/>
      <use x="806.445312" xlink:href="#DejaVuSans-6f"/>
      <use x="867.626953" xlink:href="#DejaVuSans-77"/>
      <use x="949.414062" xlink:href="#DejaVuSans-65"/>
      <use x="1010.9375" xlink:href="#DejaVuSans-72"/>
      <use x="1052.050781" xlink:href="#DejaVuSans-31"/>
     </g>
    </g>
    <g id="line2d_39">
     <path d="M 363.465625 79.894687 
L 383.465625 79.894687 
" style="fill:none;stroke:#00bfbf;stroke-linecap:square;stroke-width:1.5;"/>
    </g>
    <g id="line2d_40"/>
    <g id="text_18">
     <!-- dif_generated_power2 -->
     <g transform="translate(391.465625 83.394687)scale(0.1 -0.1)">
      <use xlink:href="#DejaVuSans-64"/>
      <use x="63.476562" xlink:href="#DejaVuSans-69"/>
      <use x="91.259766" xlink:href="#DejaVuSans-66"/>
      <use x="126.464844" xlink:href="#DejaVuSans-5f"/>
      <use x="176.464844" xlink:href="#DejaVuSans-67"/>
      <use x="239.941406" xlink:href="#DejaVuSans-65"/>
      <use x="301.464844" xlink:href="#DejaVuSans-6e"/>
      <use x="364.84375" xlink:href="#DejaVuSans-65"/>
      <use x="426.367188" xlink:href="#DejaVuSans-72"/>
      <use x="467.480469" xlink:href="#DejaVuSans-61"/>
      <use x="528.759766" xlink:href="#DejaVuSans-74"/>
      <use x="567.96875" xlink:href="#DejaVuSans-65"/>
      <use x="629.492188" xlink:href="#DejaVuSans-64"/>
      <use x="692.96875" xlink:href="#DejaVuSans-5f"/>
      <use x="742.96875" xlink:href="#DejaVuSans-70"/>
      <use x="806.445312" xlink:href="#DejaVuSans-6f"/>
      <use x="867.626953" xlink:href="#DejaVuSans-77"/>
      <use x="949.414062" xlink:href="#DejaVuSans-65"/>
      <use x="1010.9375" xlink:href="#DejaVuSans-72"/>
      <use x="1052.050781" xlink:href="#DejaVuSans-32"/>
     </g>
    </g>
    <g id="line2d_41">
     <path d="M 363.465625 94.850937 
L 383.465625 94.850937 
" style="fill:none;stroke:#ff0000;stroke-linecap:square;stroke-width:1.5;"/>
    </g>
    <g id="line2d_42"/>
    <g id="text_19">
     <!-- dif_generated_power3 -->
     <g transform="translate(391.465625 98.350937)scale(0.1 -0.1)">
      <use xlink:href="#DejaVuSans-64"/>
      <use x="63.476562" xlink:href="#DejaVuSans-69"/>
      <use x="91.259766" xlink:href="#DejaVuSans-66"/>
      <use x="126.464844" xlink:href="#DejaVuSans-5f"/>
      <use x="176.464844" xlink:href="#DejaVuSans-67"/>
      <use x="239.941406" xlink:href="#DejaVuSans-65"/>
      <use x="301.464844" xlink:href="#DejaVuSans-6e"/>
      <use x="364.84375" xlink:href="#DejaVuSans-65"/>
      <use x="426.367188" xlink:href="#DejaVuSans-72"/>
      <use x="467.480469" xlink:href="#DejaVuSans-61"/>
      <use x="528.759766" xlink:href="#DejaVuSans-74"/>
      <use x="567.96875" xlink:href="#DejaVuSans-65"/>
      <use x="629.492188" xlink:href="#DejaVuSans-64"/>
      <use x="692.96875" xlink:href="#DejaVuSans-5f"/>
      <use x="742.96875" xlink:href="#DejaVuSans-70"/>
      <use x="806.445312" xlink:href="#DejaVuSans-6f"/>
      <use x="867.626953" xlink:href="#DejaVuSans-77"/>
      <use x="949.414062" xlink:href="#DejaVuSans-65"/>
      <use x="1010.9375" xlink:href="#DejaVuSans-72"/>
      <use x="1052.050781" xlink:href="#DejaVuSans-33"/>
     </g>
    </g>
    <g id="line2d_43">
     <path d="M 363.465625 109.807187 
L 383.465625 109.807187 
" style="fill:none;stroke:#008000;stroke-linecap:square;stroke-width:1.5;"/>
    </g>
    <g id="line2d_44"/>
    <g id="text_20">
     <!-- dif_generated_power4 -->
     <g transform="translate(391.465625 113.307187)scale(0.1 -0.1)">
      <use xlink:href="#DejaVuSans-64"/>
      <use x="63.476562" xlink:href="#DejaVuSans-69"/>
      <use x="91.259766" xlink:href="#DejaVuSans-66"/>
      <use x="126.464844" xlink:href="#DejaVuSans-5f"/>
      <use x="176.464844" xlink:href="#DejaVuSans-67"/>
      <use x="239.941406" xlink:href="#DejaVuSans-65"/>
      <use x="301.464844" xlink:href="#DejaVuSans-6e"/>
      <use x="364.84375" xlink:href="#DejaVuSans-65"/>
      <use x="426.367188" xlink:href="#DejaVuSans-72"/>
      <use x="467.480469" xlink:href="#DejaVuSans-61"/>
      <use x="528.759766" xlink:href="#DejaVuSans-74"/>
      <use x="567.96875" xlink:href="#DejaVuSans-65"/>
      <use x="629.492188" xlink:href="#DejaVuSans-64"/>
      <use x="692.96875" xlink:href="#DejaVuSans-5f"/>
      <use x="742.96875" xlink:href="#DejaVuSans-70"/>
      <use x="806.445312" xlink:href="#DejaVuSans-6f"/>
      <use x="867.626953" xlink:href="#DejaVuSans-77"/>
      <use x="949.414062" xlink:href="#DejaVuSans-65"/>
      <use x="1010.9375" xlink:href="#DejaVuSans-72"/>
      <use x="1052.050781" xlink:href="#DejaVuSans-34"/>
     </g>
    </g>
    <g id="line2d_45">
     <path d="M 363.465625 124.763438 
L 383.465625 124.763438 
" style="fill:none;stroke:#0000ff;stroke-linecap:square;stroke-width:1.5;"/>
    </g>
    <g id="line2d_46"/>
    <g id="text_21">
     <!-- dif_generated_power5 -->
     <g transform="translate(391.465625 128.263438)scale(0.1 -0.1)">
      <use xlink:href="#DejaVuSans-64"/>
      <use x="63.476562" xlink:href="#DejaVuSans-69"/>
      <use x="91.259766" xlink:href="#DejaVuSans-66"/>
      <use x="126.464844" xlink:href="#DejaVuSans-5f"/>
      <use x="176.464844" xlink:href="#DejaVuSans-67"/>
      <use x="239.941406" xlink:href="#DejaVuSans-65"/>
      <use x="301.464844" xlink:href="#DejaVuSans-6e"/>
      <use x="364.84375" xlink:href="#DejaVuSans-65"/>
      <use x="426.367188" xlink:href="#DejaVuSans-72"/>
      <use x="467.480469" xlink:href="#DejaVuSans-61"/>
      <use x="528.759766" xlink:href="#DejaVuSans-74"/>
      <use x="567.96875" xlink:href="#DejaVuSans-65"/>
      <use x="629.492188" xlink:href="#DejaVuSans-64"/>
      <use x="692.96875" xlink:href="#DejaVuSans-5f"/>
      <use x="742.96875" xlink:href="#DejaVuSans-70"/>
      <use x="806.445312" xlink:href="#DejaVuSans-6f"/>
      <use x="867.626953" xlink:href="#DejaVuSans-77"/>
      <use x="949.414062" xlink:href="#DejaVuSans-65"/>
      <use x="1010.9375" xlink:href="#DejaVuSans-72"/>
      <use x="1052.050781" xlink:href="#DejaVuSans-35"/>
     </g>
    </g>
    <g id="line2d_47">
     <path d="M 363.465625 139.719687 
L 383.465625 139.719687 
" style="fill:none;stroke:#000000;stroke-linecap:square;stroke-width:1.5;"/>
    </g>
    <g id="line2d_48"/>
    <g id="text_22">
     <!-- dif_generated_power6 -->
     <g transform="translate(391.465625 143.219687)scale(0.1 -0.1)">
      <use xlink:href="#DejaVuSans-64"/>
      <use x="63.476562" xlink:href="#DejaVuSans-69"/>
      <use x="91.259766" xlink:href="#DejaVuSans-66"/>
      <use x="126.464844" xlink:href="#DejaVuSans-5f"/>
      <use x="176.464844" xlink:href="#DejaVuSans-67"/>
      <use x="239.941406" xlink:href="#DejaVuSans-65"/>
      <use x="301.464844" xlink:href="#DejaVuSans-6e"/>
      <use x="364.84375" xlink:href="#DejaVuSans-65"/>
      <use x="426.367188" xlink:href="#DejaVuSans-72"/>
      <use x="467.480469" xlink:href="#DejaVuSans-61"/>
      <use x="528.759766" xlink:href="#DejaVuSans-74"/>
      <use x="567.96875" xlink:href="#DejaVuSans-65"/>
      <use x="629.492188" xlink:href="#DejaVuSans-64"/>
      <use x="692.96875" xlink:href="#DejaVuSans-5f"/>
      <use x="742.96875" xlink:href="#DejaVuSans-70"/>
      <use x="806.445312" xlink:href="#DejaVuSans-6f"/>
      <use x="867.626953" xlink:href="#DejaVuSans-77"/>
      <use x="949.414062" xlink:href="#DejaVuSans-65"/>
      <use x="1010.9375" xlink:href="#DejaVuSans-72"/>
      <use x="1052.050781" xlink:href="#DejaVuSans-36"/>
     </g>
    </g>
    <g id="line2d_49">
     <path d="M 363.465625 154.675937 
L 383.465625 154.675937 
" style="fill:none;stroke:#bfbf00;stroke-linecap:square;stroke-width:1.5;"/>
    </g>
    <g id="line2d_50"/>
    <g id="text_23">
     <!-- dif_generated_power7 -->
     <defs>
      <path d="M 8.203125 72.90625 
L 55.078125 72.90625 
L 55.078125 68.703125 
L 28.609375 0 
L 18.3125 0 
L 43.21875 64.59375 
L 8.203125 64.59375 
z
" id="DejaVuSans-37"/>
     </defs>
     <g transform="translate(391.465625 158.175937)scale(0.1 -0.1)">
      <use xlink:href="#DejaVuSans-64"/>
      <use x="63.476562" xlink:href="#DejaVuSans-69"/>
      <use x="91.259766" xlink:href="#DejaVuSans-66"/>
      <use x="126.464844" xlink:href="#DejaVuSans-5f"/>
      <use x="176.464844" xlink:href="#DejaVuSans-67"/>
      <use x="239.941406" xlink:href="#DejaVuSans-65"/>
      <use x="301.464844" xlink:href="#DejaVuSans-6e"/>
      <use x="364.84375" xlink:href="#DejaVuSans-65"/>
      <use x="426.367188" xlink:href="#DejaVuSans-72"/>
      <use x="467.480469" xlink:href="#DejaVuSans-61"/>
      <use x="528.759766" xlink:href="#DejaVuSans-74"/>
      <use x="567.96875" xlink:href="#DejaVuSans-65"/>
      <use x="629.492188" xlink:href="#DejaVuSans-64"/>
      <use x="692.96875" xlink:href="#DejaVuSans-5f"/>
      <use x="742.96875" xlink:href="#DejaVuSans-70"/>
      <use x="806.445312" xlink:href="#DejaVuSans-6f"/>
      <use x="867.626953" xlink:href="#DejaVuSans-77"/>
      <use x="949.414062" xlink:href="#DejaVuSans-65"/>
      <use x="1010.9375" xlink:href="#DejaVuSans-72"/>
      <use x="1052.050781" xlink:href="#DejaVuSans-37"/>
     </g>
    </g>
    <g id="line2d_51">
     <path d="M 363.465625 169.632187 
L 383.465625 169.632187 
" style="fill:none;stroke:#bf00bf;stroke-linecap:square;stroke-width:1.5;"/>
    </g>
    <g id="line2d_52"/>
    <g id="text_24">
     <!-- dif_generated_power8 -->
     <g transform="translate(391.465625 173.132187)scale(0.1 -0.1)">
      <use xlink:href="#DejaVuSans-64"/>
      <use x="63.476562" xlink:href="#DejaVuSans-69"/>
      <use x="91.259766" xlink:href="#DejaVuSans-66"/>
      <use x="126.464844" xlink:href="#DejaVuSans-5f"/>
      <use x="176.464844" xlink:href="#DejaVuSans-67"/>
      <use x="239.941406" xlink:href="#DejaVuSans-65"/>
      <use x="301.464844" xlink:href="#DejaVuSans-6e"/>
      <use x="364.84375" xlink:href="#DejaVuSans-65"/>
      <use x="426.367188" xlink:href="#DejaVuSans-72"/>
      <use x="467.480469" xlink:href="#DejaVuSans-61"/>
      <use x="528.759766" xlink:href="#DejaVuSans-74"/>
      <use x="567.96875" xlink:href="#DejaVuSans-65"/>
      <use x="629.492188" xlink:href="#DejaVuSans-64"/>
      <use x="692.96875" xlink:href="#DejaVuSans-5f"/>
      <use x="742.96875" xlink:href="#DejaVuSans-70"/>
      <use x="806.445312" xlink:href="#DejaVuSans-6f"/>
      <use x="867.626953" xlink:href="#DejaVuSans-77"/>
      <use x="949.414062" xlink:href="#DejaVuSans-65"/>
      <use x="1010.9375" xlink:href="#DejaVuSans-72"/>
      <use x="1052.050781" xlink:href="#DejaVuSans-38"/>
     </g>
    </g>
    <g id="line2d_53">
     <path d="M 363.465625 184.588437 
L 383.465625 184.588437 
" style="fill:none;stroke:#00bfbf;stroke-linecap:square;stroke-width:1.5;"/>
    </g>
    <g id="line2d_54"/>
    <g id="text_25">
     <!-- dif_generated_power9 -->
     <defs>
      <path d="M 10.984375 1.515625 
L 10.984375 10.5 
Q 14.703125 8.734375 18.5 7.8125 
Q 22.3125 6.890625 25.984375 6.890625 
Q 35.75 6.890625 40.890625 13.453125 
Q 46.046875 20.015625 46.78125 33.40625 
Q 43.953125 29.203125 39.59375 26.953125 
Q 35.25 24.703125 29.984375 24.703125 
Q 19.046875 24.703125 12.671875 31.3125 
Q 6.296875 37.9375 6.296875 49.421875 
Q 6.296875 60.640625 12.9375 67.421875 
Q 19.578125 74.21875 30.609375 74.21875 
Q 43.265625 74.21875 49.921875 64.515625 
Q 56.59375 54.828125 56.59375 36.375 
Q 56.59375 19.140625 48.40625 8.859375 
Q 40.234375 -1.421875 26.421875 -1.421875 
Q 22.703125 -1.421875 18.890625 -0.6875 
Q 15.09375 0.046875 10.984375 1.515625 
z
M 30.609375 32.421875 
Q 37.25 32.421875 41.125 36.953125 
Q 45.015625 41.5 45.015625 49.421875 
Q 45.015625 57.28125 41.125 61.84375 
Q 37.25 66.40625 30.609375 66.40625 
Q 23.96875 66.40625 20.09375 61.84375 
Q 16.21875 57.28125 16.21875 49.421875 
Q 16.21875 41.5 20.09375 36.953125 
Q 23.96875 32.421875 30.609375 32.421875 
z
" id="DejaVuSans-39"/>
     </defs>
     <g transform="translate(391.465625 188.088437)scale(0.1 -0.1)">
      <use xlink:href="#DejaVuSans-64"/>
      <use x="63.476562" xlink:href="#DejaVuSans-69"/>
      <use x="91.259766" xlink:href="#DejaVuSans-66"/>
      <use x="126.464844" xlink:href="#DejaVuSans-5f"/>
      <use x="176.464844" xlink:href="#DejaVuSans-67"/>
      <use x="239.941406" xlink:href="#DejaVuSans-65"/>
      <use x="301.464844" xlink:href="#DejaVuSans-6e"/>
      <use x="364.84375" xlink:href="#DejaVuSans-65"/>
      <use x="426.367188" xlink:href="#DejaVuSans-72"/>
      <use x="467.480469" xlink:href="#DejaVuSans-61"/>
      <use x="528.759766" xlink:href="#DejaVuSans-74"/>
      <use x="567.96875" xlink:href="#DejaVuSans-65"/>
      <use x="629.492188" xlink:href="#DejaVuSans-64"/>
      <use x="692.96875" xlink:href="#DejaVuSans-5f"/>
      <use x="742.96875" xlink:href="#DejaVuSans-70"/>
      <use x="806.445312" xlink:href="#DejaVuSans-6f"/>
      <use x="867.626953" xlink:href="#DejaVuSans-77"/>
      <use x="949.414062" xlink:href="#DejaVuSans-65"/>
      <use x="1010.9375" xlink:href="#DejaVuSans-72"/>
      <use x="1052.050781" xlink:href="#DejaVuSans-39"/>
     </g>
    </g>
    <g id="line2d_55">
     <path d="M 363.465625 199.544687 
L 383.465625 199.544687 
" style="fill:none;stroke:#ff0000;stroke-linecap:square;stroke-width:1.5;"/>
    </g>
    <g id="line2d_56"/>
    <g id="text_26">
     <!-- dif_generated_power10 -->
     <g transform="translate(391.465625 203.044687)scale(0.1 -0.1)">
      <use xlink:href="#DejaVuSans-64"/>
      <use x="63.476562" xlink:href="#DejaVuSans-69"/>
      <use x="91.259766" xlink:href="#DejaVuSans-66"/>
      <use x="126.464844" xlink:href="#DejaVuSans-5f"/>
      <use x="176.464844" xlink:href="#DejaVuSans-67"/>
      <use x="239.941406" xlink:href="#DejaVuSans-65"/>
      <use x="301.464844" xlink:href="#DejaVuSans-6e"/>
      <use x="364.84375" xlink:href="#DejaVuSans-65"/>
      <use x="426.367188" xlink:href="#DejaVuSans-72"/>
      <use x="467.480469" xlink:href="#DejaVuSans-61"/>
      <use x="528.759766" xlink:href="#DejaVuSans-74"/>
      <use x="567.96875" xlink:href="#DejaVuSans-65"/>
      <use x="629.492188" xlink:href="#DejaVuSans-64"/>
      <use x="692.96875" xlink:href="#DejaVuSans-5f"/>
      <use x="742.96875" xlink:href="#DejaVuSans-70"/>
      <use x="806.445312" xlink:href="#DejaVuSans-6f"/>
      <use x="867.626953" xlink:href="#DejaVuSans-77"/>
      <use x="949.414062" xlink:href="#DejaVuSans-65"/>
      <use x="1010.9375" xlink:href="#DejaVuSans-72"/>
      <use x="1052.050781" xlink:href="#DejaVuSans-31"/>
      <use x="1115.673828" xlink:href="#DejaVuSans-30"/>
     </g>
    </g>
   </g>
  </g>
 </g>
 <defs>
  <clipPath id="p51b2659cd1">
   <rect height="332.64" width="446.4" x="72" y="51.84"/>
  </clipPath>
 </defs>
</svg>
