<?xml version="1.0" encoding="utf-8" standalone="no"?>
<!DOCTYPE svg PUBLIC "-//W3C//DTD SVG 1.1//EN"
  "http://www.w3.org/Graphics/SVG/1.1/DTD/svg11.dtd">
<!-- Created with matplotlib (http://matplotlib.org/) -->
<svg height="432pt" version="1.1" viewBox="0 0 576 432" width="576pt" xmlns="http://www.w3.org/2000/svg" xmlns:xlink="http://www.w3.org/1999/xlink">
 <defs>
  <style type="text/css">
*{stroke-linecap:butt;stroke-linejoin:round;}
  </style>
 </defs>
 <g id="figure_1">
  <g id="patch_1">
   <path d="M 0 432 
L 576 432 
L 576 0 
L 0 0 
z
" style="fill:#ffffff;"/>
  </g>
  <g id="axes_1">
   <g id="patch_2">
    <path d="M 72 384.48 
L 518.4 384.48 
L 518.4 51.84 
L 72 51.84 
z
" style="fill:#ffffff;"/>
   </g>
   <g id="matplotlib.axis_1">
    <g id="xtick_1">
     <g id="line2d_1">
      <path clip-path="url(#pf799b05ff5)" d="M 92.290909 384.48 
L 92.290909 51.84 
" style="fill:none;stroke:#b0b0b0;stroke-dasharray:5.12,1.28,0.8,1.28;stroke-dashoffset:0;stroke-width:0.8;"/>
     </g>
     <g id="line2d_2">
      <defs>
       <path d="M 0 0 
L 0 3.5 
" id="m37318d9ba5" style="stroke:#000000;stroke-width:0.8;"/>
      </defs>
      <g>
       <use style="stroke:#000000;stroke-width:0.8;" x="92.290909" xlink:href="#m37318d9ba5" y="384.48"/>
      </g>
     </g>
     <g id="text_1">
      <!-- $0$ -->
      <defs>
       <path d="M 42 31.640625 
C 42 37.75 41.90625 48.125 37.703125 56.109375 
C 34 63.109375 28.09375 65.59375 22.90625 65.59375 
C 18.09375 65.59375 12 63.40625 8.203125 56.203125 
C 4.203125 48.71875 3.796875 39.4375 3.796875 31.640625 
C 3.796875 25.953125 3.90625 17.28125 7 9.671875 
C 11.296875 -0.609375 19 -2 22.90625 -2 
C 27.5 -2 34.5 -0.109375 38.59375 9.375 
C 41.59375 16.28125 42 24.359375 42 31.640625 
z
M 22.90625 -0.40625 
C 16.5 -0.40625 12.703125 5.078125 11.296875 12.6875 
C 10.203125 18.5625 10.203125 27.15625 10.203125 32.75 
C 10.203125 40.4375 10.203125 46.828125 11.5 52.921875 
C 13.40625 61.390625 19 64 22.90625 64 
C 27 64 32.296875 61.296875 34.203125 53.125 
C 35.5 47.4375 35.59375 40.734375 35.59375 32.75 
C 35.59375 26.25 35.59375 18.265625 34.40625 12.375 
C 32.296875 1.484375 26.40625 -0.40625 22.90625 -0.40625 
z
" id="CMR17-48"/>
      </defs>
      <g transform="translate(89.800241 398.398498)scale(0.1 -0.1)">
       <use transform="scale(0.996264)" xlink:href="#CMR17-48"/>
      </g>
     </g>
    </g>
    <g id="xtick_2">
     <g id="line2d_3">
      <path clip-path="url(#pf799b05ff5)" d="M 160.040188 384.48 
L 160.040188 51.84 
" style="fill:none;stroke:#b0b0b0;stroke-dasharray:5.12,1.28,0.8,1.28;stroke-dashoffset:0;stroke-width:0.8;"/>
     </g>
     <g id="line2d_4">
      <g>
       <use style="stroke:#000000;stroke-width:0.8;" x="160.040188" xlink:href="#m37318d9ba5" y="384.48"/>
      </g>
     </g>
     <g id="text_2">
      <!-- $100$ -->
      <defs>
       <path d="M 26.59375 63.40625 
C 26.59375 65.5 26.5 65.5 25.09375 65.5 
C 21.203125 61.1875 15.296875 59.796875 9.703125 59.796875 
C 9.40625 59.796875 8.90625 59.796875 8.796875 59.5 
C 8.703125 59.296875 8.703125 59.09375 8.703125 57 
C 11.796875 57 17 57.59375 21 59.984375 
L 21 7.203125 
C 21 3.6875 20.796875 2.5 12.203125 2.5 
L 9.203125 2.5 
L 9.203125 0 
C 14 0 19 0 23.796875 0 
C 28.59375 0 33.59375 0 38.40625 0 
L 38.40625 2.5 
L 35.40625 2.5 
C 26.796875 2.5 26.59375 3.59375 26.59375 7.15625 
z
" id="CMR17-49"/>
      </defs>
      <g transform="translate(152.568185 398.398498)scale(0.1 -0.1)">
       <use transform="scale(0.996264)" xlink:href="#CMR17-49"/>
       <use transform="translate(45.690477 0)scale(0.996264)" xlink:href="#CMR17-48"/>
       <use transform="translate(91.380954 0)scale(0.996264)" xlink:href="#CMR17-48"/>
      </g>
     </g>
    </g>
    <g id="xtick_3">
     <g id="line2d_5">
      <path clip-path="url(#pf799b05ff5)" d="M 227.789467 384.48 
L 227.789467 51.84 
" style="fill:none;stroke:#b0b0b0;stroke-dasharray:5.12,1.28,0.8,1.28;stroke-dashoffset:0;stroke-width:0.8;"/>
     </g>
     <g id="line2d_6">
      <g>
       <use style="stroke:#000000;stroke-width:0.8;" x="227.789467" xlink:href="#m37318d9ba5" y="384.48"/>
      </g>
     </g>
     <g id="text_3">
      <!-- $200$ -->
      <defs>
       <path d="M 41.703125 15.453125 
L 39.90625 15.453125 
C 38.90625 8.375 38.09375 7.171875 37.703125 6.5625 
C 37.203125 5.765625 30 5.765625 28.59375 5.765625 
L 9.40625 5.765625 
C 13 9.671875 20 16.75 28.5 24.953125 
C 34.59375 30.734375 41.703125 37.53125 41.703125 47.421875 
C 41.703125 59.21875 32.296875 66 21.796875 66 
C 10.796875 66 4.09375 56.3125 4.09375 47.34375 
C 4.09375 43.4375 7 42.9375 8.203125 42.9375 
C 9.203125 42.9375 12.203125 43.546875 12.203125 47.03125 
C 12.203125 50.109375 9.59375 51 8.203125 51 
C 7.59375 51 7 50.90625 6.59375 50.703125 
C 8.5 59.21875 14.296875 63.40625 20.40625 63.40625 
C 29.09375 63.40625 34.796875 56.515625 34.796875 47.421875 
C 34.796875 38.734375 29.703125 31.25 24 24.75 
L 4.09375 2.28125 
L 4.09375 0 
L 39.296875 0 
z
" id="CMR17-50"/>
      </defs>
      <g transform="translate(220.317464 398.398498)scale(0.1 -0.1)">
       <use transform="scale(0.996264)" xlink:href="#CMR17-50"/>
       <use transform="translate(45.690477 0)scale(0.996264)" xlink:href="#CMR17-48"/>
       <use transform="translate(91.380954 0)scale(0.996264)" xlink:href="#CMR17-48"/>
      </g>
     </g>
    </g>
    <g id="xtick_4">
     <g id="line2d_7">
      <path clip-path="url(#pf799b05ff5)" d="M 295.538746 384.48 
L 295.538746 51.84 
" style="fill:none;stroke:#b0b0b0;stroke-dasharray:5.12,1.28,0.8,1.28;stroke-dashoffset:0;stroke-width:0.8;"/>
     </g>
     <g id="line2d_8">
      <g>
       <use style="stroke:#000000;stroke-width:0.8;" x="295.538746" xlink:href="#m37318d9ba5" y="384.48"/>
      </g>
     </g>
     <g id="text_4">
      <!-- $300$ -->
      <defs>
       <path d="M 22.09375 33.703125 
C 31 33.703125 34.90625 25.96875 34.90625 17.03125 
C 34.90625 5 28.5 0.390625 22.703125 0.390625 
C 17.40625 0.390625 8.796875 3.03125 6.09375 10.828125 
C 6.59375 10.625 7.09375 10.625 7.59375 10.625 
C 10 10.625 11.796875 12.21875 11.796875 14.8125 
C 11.796875 17.703125 9.59375 19 7.59375 19 
C 5.90625 19 3.296875 18.203125 3.296875 14.46875 
C 3.296875 5.234375 12.296875 -2 22.90625 -2 
C 34 -2 42.5 6.71875 42.5 16.953125 
C 42.5 26.671875 34.5 33.703125 25 34.796875 
C 32.59375 36.375 39.90625 43.0625 39.90625 52.015625 
C 39.90625 59.6875 32 65.296875 23 65.296875 
C 13.90625 65.296875 5.90625 59.828125 5.90625 52.015625 
C 5.90625 48.59375 8.5 48 9.796875 48 
C 11.90625 48 13.703125 49.296875 13.703125 51.890625 
C 13.703125 54.46875 11.90625 55.765625 9.796875 55.765625 
C 9.40625 55.765625 8.90625 55.765625 8.5 55.578125 
C 11.40625 61.859375 19.296875 63 22.796875 63 
C 26.296875 63 32.90625 61.328125 32.90625 51.875 
C 32.90625 49.109375 32.5 44.1875 29.09375 39.84375 
C 26.09375 36 22.703125 36 19.40625 35.6875 
C 18.90625 35.6875 16.59375 35.453125 16.203125 35.453125 
C 15.5 35.359375 15.09375 35.265625 15.09375 34.5 
C 15.09375 33.796875 15.203125 33.703125 17.203125 33.703125 
z
" id="CMR17-51"/>
      </defs>
      <g transform="translate(288.066744 398.398498)scale(0.1 -0.1)">
       <use transform="scale(0.996264)" xlink:href="#CMR17-51"/>
       <use transform="translate(45.690477 0)scale(0.996264)" xlink:href="#CMR17-48"/>
       <use transform="translate(91.380954 0)scale(0.996264)" xlink:href="#CMR17-48"/>
      </g>
     </g>
    </g>
    <g id="xtick_5">
     <g id="line2d_9">
      <path clip-path="url(#pf799b05ff5)" d="M 363.288025 384.48 
L 363.288025 51.84 
" style="fill:none;stroke:#b0b0b0;stroke-dasharray:5.12,1.28,0.8,1.28;stroke-dashoffset:0;stroke-width:0.8;"/>
     </g>
     <g id="line2d_10">
      <g>
       <use style="stroke:#000000;stroke-width:0.8;" x="363.288025" xlink:href="#m37318d9ba5" y="384.48"/>
      </g>
     </g>
     <g id="text_5">
      <!-- $400$ -->
      <defs>
       <path d="M 33.59375 64.40625 
C 33.59375 66.5 33.5 66.5 31.703125 66.5 
L 2 19.59375 
L 2 17 
L 27.796875 17 
L 27.796875 7.140625 
C 27.796875 3.5 27.59375 2.5 20.59375 2.5 
L 18.703125 2.5 
L 18.703125 0 
C 21.90625 0 27.296875 0 30.703125 0 
C 34.09375 0 39.5 0 42.703125 0 
L 42.703125 2.5 
L 40.796875 2.5 
C 33.796875 2.5 33.59375 3.5 33.59375 7.140625 
L 33.59375 17 
L 43.796875 17 
L 43.796875 19.59375 
L 33.59375 19.59375 
z
M 28.09375 57.859375 
L 28.09375 19.59375 
L 4 19.59375 
z
" id="CMR17-52"/>
      </defs>
      <g transform="translate(355.816023 398.398498)scale(0.1 -0.1)">
       <use transform="scale(0.996264)" xlink:href="#CMR17-52"/>
       <use transform="translate(45.690477 0)scale(0.996264)" xlink:href="#CMR17-48"/>
       <use transform="translate(91.380954 0)scale(0.996264)" xlink:href="#CMR17-48"/>
      </g>
     </g>
    </g>
    <g id="xtick_6">
     <g id="line2d_11">
      <path clip-path="url(#pf799b05ff5)" d="M 431.037305 384.48 
L 431.037305 51.84 
" style="fill:none;stroke:#b0b0b0;stroke-dasharray:5.12,1.28,0.8,1.28;stroke-dashoffset:0;stroke-width:0.8;"/>
     </g>
     <g id="line2d_12">
      <g>
       <use style="stroke:#000000;stroke-width:0.8;" x="431.037305" xlink:href="#m37318d9ba5" y="384.48"/>
      </g>
     </g>
     <g id="text_6">
      <!-- $500$ -->
      <defs>
       <path d="M 11.40625 57.6875 
C 12.40625 57.28125 16.5 56 20.703125 56 
C 30 56 35.09375 61.109375 38 64.0625 
C 38 64.953125 38 65.5 37.40625 65.5 
C 37.296875 65.5 37.09375 65.5 36.296875 65.046875 
C 32.796875 63.40625 28.703125 62.078125 23.703125 62.078125 
C 20.703125 62.078125 16.203125 62.484375 11.296875 64.671875 
C 10.203125 65.171875 10 65.171875 9.90625 65.171875 
C 9.40625 65.171875 9.296875 65.0625 9.296875 63.078125 
L 9.296875 34.421875 
C 9.296875 32.640625 9.296875 32.140625 10.296875 32.140625 
C 10.796875 32.140625 11 32.34375 11.5 33.03125 
C 14.703125 37.515625 19.09375 39.40625 24.09375 39.40625 
C 27.59375 39.40625 35.09375 37.21875 35.09375 20.140625 
C 35.09375 16.953125 35.09375 11.171875 32.09375 6.578125 
C 29.59375 2.484375 25.703125 0.390625 21.40625 0.390625 
C 14.796875 0.390625 8.09375 5 6.296875 12.71875 
C 6.703125 12.609375 7.5 12.421875 7.90625 12.421875 
C 9.203125 12.421875 11.703125 13.125 11.703125 16.21875 
C 11.703125 18.90625 9.796875 20 7.90625 20 
C 5.59375 20 4.09375 18.59375 4.09375 15.796875 
C 4.09375 7.09375 11 -2 21.59375 -2 
C 31.90625 -2 41.703125 6.875 41.703125 19.75 
C 41.703125 31.71875 33.90625 41 24.203125 41 
C 19.09375 41 14.796875 39.109375 11.40625 35.53125 
z
" id="CMR17-53"/>
      </defs>
      <g transform="translate(423.565302 398.398498)scale(0.1 -0.1)">
       <use transform="scale(0.996264)" xlink:href="#CMR17-53"/>
       <use transform="translate(45.690477 0)scale(0.996264)" xlink:href="#CMR17-48"/>
       <use transform="translate(91.380954 0)scale(0.996264)" xlink:href="#CMR17-48"/>
      </g>
     </g>
    </g>
    <g id="xtick_7">
     <g id="line2d_13">
      <path clip-path="url(#pf799b05ff5)" d="M 498.786584 384.48 
L 498.786584 51.84 
" style="fill:none;stroke:#b0b0b0;stroke-dasharray:5.12,1.28,0.8,1.28;stroke-dashoffset:0;stroke-width:0.8;"/>
     </g>
     <g id="line2d_14">
      <g>
       <use style="stroke:#000000;stroke-width:0.8;" x="498.786584" xlink:href="#m37318d9ba5" y="384.48"/>
      </g>
     </g>
     <g id="text_7">
      <!-- $600$ -->
      <defs>
       <path d="M 10.59375 34 
C 10.59375 57.65625 21.796875 63 28.296875 63 
C 30.40625 63 35.5 62.640625 37.5 59 
C 35.90625 59 32.90625 59 32.90625 55.515625 
C 32.90625 52.828125 35.09375 51.921875 36.5 51.921875 
C 37.40625 51.921875 40.09375 52.3125 40.09375 55.625 
C 40.09375 61.78125 35.09375 65.296875 28.203125 65.296875 
C 16.296875 65.296875 3.796875 52.96875 3.796875 31 
C 3.796875 3.953125 15.09375 -2 23.09375 -2 
C 32.796875 -2 42 6.671875 42 20.046875 
C 42 32.515625 33.90625 41.59375 23.703125 41.59375 
C 17.59375 41.59375 13.09375 37.609375 10.59375 30.625 
z
M 23.09375 0.390625 
C 10.796875 0.390625 10.796875 18.75 10.796875 22.4375 
C 10.796875 29.625 14.203125 40 23.5 40 
C 25.203125 40 30.09375 40 33.40625 33.125 
C 35.203125 29.21875 35.203125 25.140625 35.203125 20.140625 
C 35.203125 14.75 35.203125 10.78125 33.09375 6.78125 
C 30.90625 2.671875 27.703125 0.390625 23.09375 0.390625 
z
" id="CMR17-54"/>
      </defs>
      <g transform="translate(491.314581 398.398498)scale(0.1 -0.1)">
       <use transform="scale(0.996264)" xlink:href="#CMR17-54"/>
       <use transform="translate(45.690477 0)scale(0.996264)" xlink:href="#CMR17-48"/>
       <use transform="translate(91.380954 0)scale(0.996264)" xlink:href="#CMR17-48"/>
      </g>
     </g>
    </g>
    <g id="text_8">
     <!-- Iteration -->
     <defs>
      <path d="M 17.09375 69 
L 8.703125 69 
L 8.703125 0 
L 17.09375 0 
z
" id="CMSS17-73"/>
      <path d="M 16.703125 37 
L 29.703125 37 
L 29.703125 42.765625 
L 16.703125 42.765625 
L 16.703125 55 
L 9.59375 55 
L 9.59375 42.765625 
L 1.703125 42.765625 
L 1.703125 37 
L 9.40625 37 
L 9.40625 11.703125 
C 9.40625 6 10.703125 -1 17.296875 -1 
C 22.296875 -1 26.90625 0.390625 31.296875 2.6875 
L 29.703125 8.5625 
C 27.296875 6.46875 24.40625 5.265625 21.296875 5.265625 
C 16.90625 5.265625 16.703125 10.875 16.703125 13.375 
z
" id="CMSS17-116"/>
      <path d="M 39.09375 21.515625 
C 39.09375 24.84375 38.90625 31.296875 35.703125 36.640625 
C 32.203125 42.390625 26.5 44 22.203125 44 
C 11.796875 44 3 34.1875 3 21.484375 
C 3 9.09375 12.09375 -1 23.59375 -1 
C 28.09375 -1 33.59375 0.296875 38.59375 3.875 
C 38.59375 4.28125 38.40625 6.46875 38.296875 6.5625 
C 38.296875 6.765625 38 9.84375 38 10.25 
C 33.203125 6.359375 27.703125 5.078125 23.703125 5.078125 
C 17.296875 5.078125 10.40625 10.421875 10.09375 21.515625 
z
M 10.90625 27 
C 12.203125 32.5625 16.59375 37.828125 22.203125 37.828125 
C 23.703125 37.828125 30.703125 37.828125 32.5 27 
z
" id="CMSS17-101"/>
      <path d="M 14.90625 21.296875 
C 14.90625 30.703125 21.796875 37 30.59375 37 
L 30.59375 43.578125 
C 24.203125 43.578125 18.203125 40.390625 14.59375 35.203125 
L 14.59375 43.09375 
L 7.5 43.09375 
L 7.5 0 
L 14.90625 0 
z
" id="CMSS17-114"/>
      <path d="M 37.59375 27.984375 
C 37.59375 37.375 30.90625 43.875 21.90625 43.875 
C 17.5 43.875 12.703125 43.078125 7.203125 39.890625 
L 7.796875 33.359375 
C 10.296875 35.125 14.59375 38 21.796875 38 
C 26.90625 38 30 34.0625 30 27.84375 
L 30 24 
C 14 24 4 19.34375 4 11.34375 
C 4 7.203125 6.5 -1 14.796875 -1 
C 16.296875 -1 24.40625 -1 30.203125 3.390625 
L 30.203125 -0.296875 
L 37.59375 -0.296875 
z
M 30 12.75 
C 30 10.953125 30 8.5625 27 6.78125 
C 24.40625 5.078125 21.09375 5.078125 19.703125 5.078125 
C 14.703125 5.078125 11.296875 7.984375 11.296875 11.625 
C 11.296875 18.921875 26.90625 18.921875 30 18.921875 
z
" id="CMSS17-97"/>
      <path d="M 15.296875 65.359375 
L 6.90625 65.359375 
L 6.90625 57 
L 15.296875 57 
z
M 14.796875 42.796875 
L 7.40625 42.796875 
L 7.40625 0 
L 14.796875 0 
z
" id="CMSS17-105"/>
      <path d="M 44.203125 21.1875 
C 44.203125 34 34.703125 44 23.5 44 
C 12 44 2.703125 33.703125 2.703125 21.1875 
C 2.703125 8.5 12.296875 -1 23.40625 -1 
C 34.796875 -1 44.203125 8.796875 44.203125 21.1875 
z
M 23.5 5.265625 
C 16.40625 5.265625 10.296875 11.078125 10.296875 22 
C 10.296875 33.609375 17.40625 37.921875 23.40625 37.921875 
C 29.90625 37.921875 36.59375 33.21875 36.59375 22 
C 36.59375 10.671875 30.09375 5.265625 23.5 5.265625 
z
" id="CMSS17-111"/>
      <path d="M 40.90625 29.328125 
C 40.90625 35.671875 39.40625 44 28.09375 44 
C 21.703125 44 17.5 40.71875 14.703125 37.328125 
L 14.703125 43.09375 
L 7.40625 43.09375 
L 7.40625 0 
L 15 0 
L 15 24.359375 
C 15 30.6875 17.40625 37.9375 24.203125 37.9375 
C 33 37.9375 33.296875 32 33.296875 28.578125 
L 33.296875 0 
L 40.90625 0 
z
" id="CMSS17-110"/>
     </defs>
     <g transform="translate(271.264003 414.021553)scale(0.14 -0.14)">
      <use transform="scale(0.996264)" xlink:href="#CMSS17-73"/>
      <use transform="translate(25.783926 0)scale(0.996264)" xlink:href="#CMSS17-116"/>
      <use transform="translate(59.615492 0)scale(0.996264)" xlink:href="#CMSS17-101"/>
      <use transform="translate(101.254314 0)scale(0.996264)" xlink:href="#CMSS17-114"/>
      <use transform="translate(133.164087 0)scale(0.996264)" xlink:href="#CMSS17-97"/>
      <use transform="translate(178.086007 0)scale(0.996264)" xlink:href="#CMSS17-116"/>
      <use transform="translate(211.917574 0)scale(0.996264)" xlink:href="#CMSS17-105"/>
      <use transform="translate(234.098297 0)scale(0.996264)" xlink:href="#CMSS17-111"/>
      <use transform="translate(280.941921 0)scale(0.996264)" xlink:href="#CMSS17-110"/>
     </g>
    </g>
   </g>
   <g id="matplotlib.axis_2">
    <g id="ytick_1">
     <g id="line2d_15">
      <path clip-path="url(#pf799b05ff5)" d="M 72 358.632087 
L 518.4 358.632087 
" style="fill:none;stroke:#b0b0b0;stroke-dasharray:5.12,1.28,0.8,1.28;stroke-dashoffset:0;stroke-width:0.8;"/>
     </g>
     <g id="line2d_16">
      <defs>
       <path d="M 0 0 
L -3.5 0 
" id="mcb65380960" style="stroke:#000000;stroke-width:0.8;"/>
      </defs>
      <g>
       <use style="stroke:#000000;stroke-width:0.8;" x="72" xlink:href="#mcb65380960" y="358.632087"/>
      </g>
     </g>
     <g id="text_9">
      <!-- $-50$ -->
      <defs>
       <path d="M 65.90625 23 
C 67.59375 23 69.40625 23 69.40625 25 
C 69.40625 27 67.59375 27 65.90625 27 
L 11.796875 27 
C 10.09375 27 8.296875 27 8.296875 25 
C 8.296875 23 10.09375 23 11.796875 23 
z
" id="CMSY10-0"/>
      </defs>
      <g transform="translate(47.288586 362.091337)scale(0.1 -0.1)">
       <use transform="scale(0.996264)" xlink:href="#CMSY10-0"/>
       <use transform="translate(77.487468 0)scale(0.996264)" xlink:href="#CMR17-53"/>
       <use transform="translate(123.177945 0)scale(0.996264)" xlink:href="#CMR17-48"/>
      </g>
     </g>
    </g>
    <g id="ytick_2">
     <g id="line2d_17">
      <path clip-path="url(#pf799b05ff5)" d="M 72 304.020437 
L 518.4 304.020437 
" style="fill:none;stroke:#b0b0b0;stroke-dasharray:5.12,1.28,0.8,1.28;stroke-dashoffset:0;stroke-width:0.8;"/>
     </g>
     <g id="line2d_18">
      <g>
       <use style="stroke:#000000;stroke-width:0.8;" x="72" xlink:href="#mcb65380960" y="304.020437"/>
      </g>
     </g>
     <g id="text_10">
      <!-- $-40$ -->
      <g transform="translate(47.288586 307.479686)scale(0.1 -0.1)">
       <use transform="scale(0.996264)" xlink:href="#CMSY10-0"/>
       <use transform="translate(77.487468 0)scale(0.996264)" xlink:href="#CMR17-52"/>
       <use transform="translate(123.177945 0)scale(0.996264)" xlink:href="#CMR17-48"/>
      </g>
     </g>
    </g>
    <g id="ytick_3">
     <g id="line2d_19">
      <path clip-path="url(#pf799b05ff5)" d="M 72 249.408786 
L 518.4 249.408786 
" style="fill:none;stroke:#b0b0b0;stroke-dasharray:5.12,1.28,0.8,1.28;stroke-dashoffset:0;stroke-width:0.8;"/>
     </g>
     <g id="line2d_20">
      <g>
       <use style="stroke:#000000;stroke-width:0.8;" x="72" xlink:href="#mcb65380960" y="249.408786"/>
      </g>
     </g>
     <g id="text_11">
      <!-- $-30$ -->
      <g transform="translate(47.288586 252.868036)scale(0.1 -0.1)">
       <use transform="scale(0.996264)" xlink:href="#CMSY10-0"/>
       <use transform="translate(77.487468 0)scale(0.996264)" xlink:href="#CMR17-51"/>
       <use transform="translate(123.177945 0)scale(0.996264)" xlink:href="#CMR17-48"/>
      </g>
     </g>
    </g>
    <g id="ytick_4">
     <g id="line2d_21">
      <path clip-path="url(#pf799b05ff5)" d="M 72 194.797136 
L 518.4 194.797136 
" style="fill:none;stroke:#b0b0b0;stroke-dasharray:5.12,1.28,0.8,1.28;stroke-dashoffset:0;stroke-width:0.8;"/>
     </g>
     <g id="line2d_22">
      <g>
       <use style="stroke:#000000;stroke-width:0.8;" x="72" xlink:href="#mcb65380960" y="194.797136"/>
      </g>
     </g>
     <g id="text_12">
      <!-- $-20$ -->
      <g transform="translate(47.288586 198.256385)scale(0.1 -0.1)">
       <use transform="scale(0.996264)" xlink:href="#CMSY10-0"/>
       <use transform="translate(77.487468 0)scale(0.996264)" xlink:href="#CMR17-50"/>
       <use transform="translate(123.177945 0)scale(0.996264)" xlink:href="#CMR17-48"/>
      </g>
     </g>
    </g>
    <g id="ytick_5">
     <g id="line2d_23">
      <path clip-path="url(#pf799b05ff5)" d="M 72 140.185485 
L 518.4 140.185485 
" style="fill:none;stroke:#b0b0b0;stroke-dasharray:5.12,1.28,0.8,1.28;stroke-dashoffset:0;stroke-width:0.8;"/>
     </g>
     <g id="line2d_24">
      <g>
       <use style="stroke:#000000;stroke-width:0.8;" x="72" xlink:href="#mcb65380960" y="140.185485"/>
      </g>
     </g>
     <g id="text_13">
      <!-- $-10$ -->
      <g transform="translate(47.288586 143.644735)scale(0.1 -0.1)">
       <use transform="scale(0.996264)" xlink:href="#CMSY10-0"/>
       <use transform="translate(77.487468 0)scale(0.996264)" xlink:href="#CMR17-49"/>
       <use transform="translate(123.177945 0)scale(0.996264)" xlink:href="#CMR17-48"/>
      </g>
     </g>
    </g>
    <g id="ytick_6">
     <g id="line2d_25">
      <path clip-path="url(#pf799b05ff5)" d="M 72 85.573835 
L 518.4 85.573835 
" style="fill:none;stroke:#b0b0b0;stroke-dasharray:5.12,1.28,0.8,1.28;stroke-dashoffset:0;stroke-width:0.8;"/>
     </g>
     <g id="line2d_26">
      <g>
       <use style="stroke:#000000;stroke-width:0.8;" x="72" xlink:href="#mcb65380960" y="85.573835"/>
      </g>
     </g>
     <g id="text_14">
      <!-- $0$ -->
      <g transform="translate(60.018665 89.033084)scale(0.1 -0.1)">
       <use transform="scale(0.996264)" xlink:href="#CMR17-48"/>
      </g>
     </g>
    </g>
    <g id="text_15">
     <!-- $\partial \mathcal{L}/ \partial \mu^{\overline{U}}_{m}$ -->
     <defs>
      <path d="M 45.40625 33.515625 
C 44.796875 39.125 41.296875 45.859375 32.296875 45.859375 
C 18.203125 45.859375 3.796875 31.515625 3.796875 15.5625 
C 3.796875 9.4375 8 -2.09375 21.59375 -2.09375 
C 45.203125 -2.09375 55.296875 32.296875 55.296875 46 
C 55.296875 60.40625 47.203125 71.5 34.40625 71.5 
C 19.90625 71.5 15.59375 58.796875 15.59375 56.09375 
C 15.59375 55.203125 16.203125 53 19 53 
C 22.5 53 24 56.203125 24 57.90625 
C 24 61 20.90625 61 19.59375 61 
C 23.703125 68.40625 31.296875 69.09375 34 69.09375 
C 42.796875 69.09375 48.40625 62.109375 48.40625 50.96875 
C 48.40625 44.578125 46.5 37.1875 45.5 33.515625 
z
M 21.90625 0.59375 
C 12.5 0.59375 10.90625 8.03125 10.90625 12.25 
C 10.90625 16.65625 13.703125 27 15.203125 30.703125 
C 16.5 33.71875 22.203125 43.859375 32.59375 43.859375 
C 41.703125 43.859375 43.796875 35.921875 43.796875 30.515625 
C 43.796875 23.078125 37.296875 0.59375 21.90625 0.59375 
z
" id="CMMI12-64"/>
      <path d="M 18 9.53125 
C 23.40625 17.984375 25.09375 24.40625 26.40625 29.734375 
C 29.90625 43.59375 33.703125 55.65625 39.90625 62.578125 
C 41.09375 63.90625 41.90625 64.796875 45.09375 64.796875 
C 52 64.796875 52.203125 57.875 52.203125 56.453125 
C 52.203125 54.65625 51.703125 53.234375 51.703125 52.734375 
C 51.703125 52.03125 52.296875 52.03125 52.40625 52.03125 
C 54 52.03125 56.703125 53.140625 59.203125 54.953125 
C 61 56.359375 61.90625 57.359375 61.90625 61.46875 
C 61.90625 66.890625 59.09375 71 53.5 71 
C 50.296875 71 41.5 70.203125 31.703125 60.25 
C 23.703125 52.015625 19 33.9375 17.09375 26.40625 
C 15.296875 19.5 14.5 16.375 11.5 10.34375 
C 10.796875 9.15625 8.203125 4.734375 6.796875 3.421875 
C 4.09375 0.921875 3.09375 -0.890625 3.09375 -1.390625 
C 3.09375 -1.59375 3.296875 -2 4 -2 
C 4.40625 -2 6.5 -1.59375 9.09375 0.078125 
C 10.796875 1.0625 11 1.25 13.296875 3.609375 
C 18.296875 3.609375 21.796875 2.703125 28.09375 0.90625 
C 33.203125 -0.5 38.296875 -2 43.40625 -2 
C 51.5 -2 59.703125 4.125 62.90625 8.53125 
C 64.90625 11.234375 65.5 13.75 65.5 14.046875 
C 65.5 14.75 64.90625 14.75 64.796875 14.75 
C 63.203125 14.75 60.796875 13.65625 59.09375 12.4375 
C 56.40625 10.734375 56.203125 10.140625 55.59375 8.421875 
C 55.09375 6.8125 54.5 6.015625 54.09375 5.40625 
C 53.296875 4.203125 53.203125 4.203125 51.703125 4.203125 
C 46.90625 4.203125 41.90625 5.71875 35.296875 7.515625 
C 32.5 8.3125 27 9.9375 22 9.9375 
C 20.703125 9.9375 19.296875 9.828125 18 9.53125 
z
" id="CMSY10-76"/>
      <path d="M 42.90625 71.28125 
C 42.90625 71.390625 43.5 72.90625 43.5 73.09375 
C 43.5 74.296875 42.5 75 41.703125 75 
C 41.203125 75 40.296875 75 39.5 72.796875 
L 6 -21.296875 
C 6 -21.40625 5.40625 -22.890625 5.40625 -23.09375 
C 5.40625 -24.296875 6.40625 -25 7.203125 -25 
C 7.796875 -25 8.703125 -24.890625 9.40625 -22.796875 
z
" id="CMMI12-61"/>
      <path d="M 14.40625 2.1875 
C 16.90625 -0.09375 20.59375 -1 24 -1 
C 30.40625 -1 34.796875 3.25 37.09375 6.328125 
C 38.09375 1.078125 42.296875 -1 45.796875 -1 
C 48.796875 -1 51.203125 0.78125 53 4.328125 
C 54.59375 7.703125 56 13.734375 56 14.109375 
C 56 14.609375 55.59375 15 55 15 
C 54.09375 15 54 14.5 53.59375 13.03125 
C 52.09375 7.203125 50.203125 1 46.09375 1 
C 43.203125 1 43 3.578125 43 5.59375 
C 43 7.875 43.90625 11.484375 44.59375 14.46875 
L 47.40625 25.234375 
C 47.796875 27.140625 48.90625 31.609375 49.40625 33.421875 
C 50 35.8125 51.09375 40.109375 51.09375 40.5 
C 51.09375 42 49.90625 43 48.40625 43 
C 47.5 43 45.40625 42.59375 44.59375 39.609375 
L 37.59375 11.875 
C 37.09375 9.875 37.09375 9.671875 35.796875 8.078125 
C 34.59375 6.390625 30.703125 1 24.40625 1 
C 18.796875 1 17 5.09375 17 9.765625 
C 17 12.671875 17.90625 16.15625 18.296875 17.859375 
L 22.796875 35.828125 
C 23.296875 37.71875 24.09375 40.90625 24.09375 41.515625 
C 24.09375 43.109375 22.796875 44 21.5 44 
C 20.59375 44 18.40625 43.703125 17.59375 40.5 
L 3.09375 -17.296875 
C 3 -17.796875 2.796875 -18.390625 2.796875 -19 
C 2.796875 -20.5 4 -21.5 5.5 -21.5 
C 8.40625 -21.5 9 -19.1875 9.703125 -16.40625 
z
" id="CMMI12-22"/>
      <path d="M 50.59375 23.03125 
C 47.09375 9.078125 35.5 0.890625 26.09375 0.890625 
C 18.90625 0.890625 14 5.671875 14 13.921875 
C 14 14.3125 14 17.296875 15.09375 21.671875 
L 24.90625 60.734375 
C 25.796875 64.109375 26 65.109375 33.09375 65.109375 
C 34.90625 65.109375 35.90625 65.109375 35.90625 66.90625 
C 35.90625 68 35 68 34.40625 68 
C 32.59375 68 30.5 68 28.59375 68 
L 16.796875 68 
C 14.90625 68 12.796875 68 10.90625 68 
C 10.203125 68 9 68 9 66.109375 
C 9 65.109375 9.703125 65.109375 11.59375 65.109375 
C 17.59375 65.109375 17.59375 64.3125 17.59375 63.21875 
C 17.59375 62.625 16.90625 59.75 16.40625 58.046875 
L 7.703125 23.25 
C 7.40625 22.15625 6.796875 19.46875 6.796875 16.796875 
C 6.796875 5.84375 14.703125 -2 25.59375 -2 
C 35.703125 -2 46.90625 6 52 18.703125 
C 52.703125 20.390625 53.59375 23.90625 54.203125 26.59375 
C 55.203125 30.203125 57.296875 39 58 41.59375 
L 61.796875 56.609375 
C 63.09375 61.8125 63.90625 65.109375 72.703125 65.109375 
C 73.5 65.203125 73.90625 66 73.90625 66.90625 
C 73.90625 68 73 68 72.59375 68 
C 71.203125 68 69.40625 68 68 68 
L 63.296875 68 
C 57.09375 68 53.90625 68 53.796875 68 
C 53.203125 68 52 68 52 66.109375 
C 52 65.109375 52.796875 65.109375 53.5 65.109375 
C 59.5 65.109375 59.90625 62.8125 59.90625 61.015625 
C 59.90625 60.125 59.90625 59.8125 59.5 58.421875 
z
" id="CMMI12-85"/>
      <path d="M 20.59375 29.234375 
C 20.796875 29.84375 23.296875 34.828125 27 38.015625 
C 29.59375 40.40625 33 42.015625 36.90625 42.015625 
C 40.90625 42.015625 42.296875 39.015625 42.296875 35.03125 
C 42.296875 34.421875 42.296875 32.4375 41.09375 27.734375 
L 38.59375 17.46875 
C 37.796875 14.46875 35.90625 7.078125 35.703125 5.984375 
C 35.296875 4.484375 34.703125 1.890625 34.703125 1.5 
C 34.703125 0.09375 35.796875 -1 37.296875 -1 
C 40.296875 -1 40.796875 1.296875 41.703125 4.890625 
L 47.703125 28.734375 
C 47.90625 29.53125 53.09375 42.015625 64.09375 42.015625 
C 68.09375 42.015625 69.5 39.015625 69.5 35.03125 
C 69.5 29.4375 65.59375 18.5625 63.40625 12.578125 
C 62.5 10.171875 62 8.875 62 7.078125 
C 62 2.59375 65.09375 -1 69.90625 -1 
C 79.203125 -1 82.703125 13.671875 82.703125 14.265625 
C 82.703125 14.765625 82.296875 15.171875 81.703125 15.171875 
C 80.796875 15.171875 80.703125 14.875 80.203125 13.171875 
C 77.90625 5.1875 74.203125 1 70.203125 1 
C 69.203125 1 67.59375 1 67.59375 4.203125 
C 67.59375 6.8125 68.796875 10 69.203125 11.09375 
C 71 15.90625 75.5 27.703125 75.5 33.515625 
C 75.5 39.5 72 44 64.40625 44 
C 57.703125 44 52.296875 40.21875 48.296875 34.328125 
C 48 39.71875 44.703125 44 37.203125 44 
C 28.296875 44 23.59375 37.734375 21.796875 35.234375 
C 21.5 40.90625 17.40625 44 13 44 
C 10.09375 44 7.796875 42.609375 5.90625 38.8125 
C 4.09375 35.21875 2.703125 29.140625 2.703125 28.734375 
C 2.703125 28.34375 3.09375 27.84375 3.796875 27.84375 
C 4.59375 27.84375 4.703125 27.9375 5.296875 30.234375 
C 6.796875 36.125 8.703125 42.015625 12.703125 42.015625 
C 15 42.015625 15.796875 40.40625 15.796875 37.421875 
C 15.796875 35.21875 14.796875 31.328125 14.09375 28.234375 
L 11.296875 17.46875 
C 10.90625 15.5625 9.796875 11.078125 9.296875 9.28125 
C 8.59375 6.6875 7.5 2 7.5 1.5 
C 7.5 0.09375 8.59375 -1 10.09375 -1 
C 11.296875 -1 12.703125 -0.40625 13.5 1.09375 
C 13.703125 1.59375 14.59375 5.09375 15.09375 7.078125 
L 17.296875 16.0625 
z
" id="CMMI12-109"/>
     </defs>
     <g transform="translate(40.576557 242.881062)rotate(-90)scale(0.14 -0.14)">
      <use transform="translate(0 24.62935)scale(0.996264)" xlink:href="#CMMI12-64"/>
      <use transform="translate(56.915564 24.62935)scale(0.996264)" xlink:href="#CMSY10-76"/>
      <use transform="translate(125.630372 24.62935)scale(0.996264)" xlink:href="#CMMI12-61"/>
      <use transform="translate(174.405291 24.62935)scale(0.996264)" xlink:href="#CMMI12-64"/>
      <use transform="translate(231.320856 24.62935)scale(0.996264)" xlink:href="#CMMI12-22"/>
      <use transform="translate(290.012277 60.782989)scale(0.697382)" xlink:href="#CMMI12-85"/>
      <use transform="translate(290.012277 0)scale(0.697382)" xlink:href="#CMMI12-109"/>
      <path d="M 290.012277 116.805753 
L 344.171317 116.805753 
L 344.171317 119.595204 
L 290.012277 119.595204 
L 290.012277 116.805753 
z
"/>
     </g>
    </g>
   </g>
   <g id="line2d_27">
    <path clip-path="url(#pf799b05ff5)" d="M 92.290909 85.573835 
L 92.968402 222.102961 
L 93.645895 222.102961 
L 94.323387 222.237306 
L 95.00088 223.494466 
L 95.678373 226.63409 
L 97.033359 234.672379 
L 98.388344 241.434393 
L 99.065837 245.017464 
L 100.420823 250.292403 
L 101.775808 256.719648 
L 102.453301 259.026444 
L 103.130794 261.855874 
L 103.808287 265.33682 
L 105.840765 273.619769 
L 106.518258 277.054842 
L 107.873243 281.960061 
L 109.228229 288.674563 
L 109.905722 290.80551 
L 110.583214 293.727233 
L 111.260707 297.477961 
L 111.9382 300.119527 
L 112.615693 302.22699 
L 113.970678 309.313398 
L 115.325664 313.848896 
L 116.003157 317.820801 
L 116.68065 320.917828 
L 117.358142 322.641371 
L 118.035635 325.777172 
L 118.713128 329.940218 
L 119.390621 332.218617 
L 120.068114 334.013701 
L 121.423099 341.835728 
L 122.100592 343.262184 
L 122.778085 345.201444 
L 123.455577 348.985485 
L 124.13307 350.761456 
L 124.810563 349.319163 
L 125.488056 347.394648 
L 126.165549 346.415461 
L 127.520534 345.424806 
L 128.198027 344.756905 
L 128.87552 344.310728 
L 129.553013 344.182391 
L 131.585491 344.157269 
L 139.037912 343.743313 
L 151.910275 342.969466 
L 166.815116 342.290643 
L 185.107421 341.691553 
L 202.722234 341.253022 
L 203.399727 341.047682 
L 204.07722 340.389066 
L 204.754712 339.128629 
L 206.109698 335.347318 
L 207.464684 330.536032 
L 210.174655 319.193192 
L 212.884626 307.588216 
L 214.239611 302.400109 
L 216.27209 295.673592 
L 217.627075 292.557451 
L 218.304568 291.197075 
L 218.982061 290.329296 
L 220.337047 289.412913 
L 221.014539 288.778871 
L 223.047018 287.373167 
L 223.724511 286.703629 
L 225.756989 285.434454 
L 226.434482 284.869223 
L 227.789467 284.413216 
L 229.144453 283.449867 
L 230.499438 283.198107 
L 231.176931 282.704964 
L 231.854424 282.38767 
L 232.531917 282.429721 
L 233.20941 282.277354 
L 233.886902 281.801141 
L 234.564395 281.603993 
L 235.241888 281.743252 
L 235.919381 281.57341 
L 236.596874 281.108665 
L 237.274366 281.034393 
L 237.951859 281.257209 
L 238.629352 281.038762 
L 239.306845 280.571286 
L 240.66183 282.1654 
L 241.339323 280.825777 
L 242.016816 278.448532 
L 243.371801 276.775777 
L 244.049294 275.602718 
L 244.726787 272.209697 
L 245.40428 269.54301 
L 246.081773 268.414187 
L 246.759265 266.244466 
L 247.436758 261.128447 
L 248.114251 258.678022 
L 248.791744 257.026566 
L 249.469237 254.691371 
L 250.146729 249.047803 
L 250.824222 245.0475 
L 252.179208 238.407816 
L 253.534193 230.009636 
L 254.889179 224.268313 
L 256.244165 216.5921 
L 256.921657 214.155874 
L 257.59915 211.207937 
L 258.954136 203.813519 
L 259.631628 201.5029 
L 260.309121 198.480146 
L 261.664107 190.823046 
L 262.3416 188.294527 
L 263.019092 185.215522 
L 263.696585 181.242524 
L 264.374078 177.978932 
L 265.051571 175.593495 
L 267.761542 163.745498 
L 268.439035 161.137245 
L 270.471513 155.224442 
L 271.149006 153.689308 
L 272.503992 151.189187 
L 273.181484 149.924381 
L 275.213963 147.564066 
L 275.891455 146.928932 
L 277.246441 146.232087 
L 277.923934 145.811032 
L 278.601427 145.646104 
L 279.956412 145.504114 
L 280.633905 145.442403 
L 283.343876 146.00818 
L 287.408833 147.759575 
L 288.086326 148.556905 
L 289.441311 148.469527 
L 290.118804 148.620801 
L 291.47379 149.382633 
L 292.151282 150.272803 
L 294.861254 156.973107 
L 296.216239 160.959211 
L 297.571225 163.761881 
L 298.248718 165.405692 
L 298.92621 166.629539 
L 300.281196 168.03142 
L 300.958689 168.85824 
L 301.636182 169.179357 
L 302.991167 168.8921 
L 303.66866 168.830934 
L 304.346153 168.309393 
L 305.023645 167.632209 
L 305.701138 167.421408 
L 306.378631 167.470558 
L 307.733617 166.860546 
L 308.411109 166.935364 
L 309.088602 167.125959 
L 310.443588 166.725109 
L 311.798573 167.100291 
L 313.153559 166.772621 
L 314.508545 167.173471 
L 315.86353 166.897682 
L 316.541023 167.387002 
L 317.218516 167.656784 
L 317.896008 167.186032 
L 318.573501 166.975231 
L 319.250994 167.849563 
L 319.928487 167.896529 
L 321.283472 164.824624 
L 321.960965 164.757998 
L 323.315951 161.544102 
L 323.993444 159.493981 
L 324.670936 158.368981 
L 325.348429 157.750231 
L 327.380908 152.031299 
L 328.0584 150.419709 
L 329.413386 148.234697 
L 330.090879 146.890158 
L 330.768372 144.976019 
L 331.445864 144.291735 
L 332.123357 143.813883 
L 332.80085 143.096286 
L 333.478343 142.976687 
L 334.833328 141.60375 
L 335.510821 142.111638 
L 336.188314 141.957633 
L 336.865807 141.604842 
L 337.543299 141.403325 
L 338.220792 142.097985 
L 338.898285 142.199563 
L 340.253271 142.057573 
L 340.930763 142.592221 
L 342.285749 142.75824 
L 342.963242 143.374806 
L 343.640735 144.301566 
L 344.318227 144.33324 
L 344.99572 144.213095 
L 346.350706 146.483847 
L 347.705691 146.501323 
L 349.060677 148.810303 
L 350.415662 148.371772 
L 351.093155 149.624563 
L 351.770648 150.396772 
L 353.125634 149.030388 
L 353.803126 150.453022 
L 354.480619 150.873532 
L 355.835605 147.582633 
L 356.513098 148.263095 
L 357.19059 148.51267 
L 358.545576 145.274745 
L 359.223069 145.658665 
L 359.900562 145.294951 
L 360.578054 143.935667 
L 361.255547 143.543556 
L 361.93304 144.446286 
L 362.610533 144.003932 
L 363.965518 141.306117 
L 364.643011 140.311638 
L 365.320504 139.667767 
L 365.997997 139.217221 
L 366.675489 138.977476 
L 367.352982 139.34665 
L 368.030475 139.365765 
L 368.707968 139.26801 
L 369.385461 139.48318 
L 370.062953 140.210061 
L 370.740446 140.185485 
L 371.417939 139.957209 
L 372.095432 140.180024 
L 372.772925 140.914005 
L 373.450417 140.776383 
L 374.12791 140.466735 
L 374.805403 141.007391 
L 375.482896 141.727718 
L 376.837881 141.062549 
L 377.515374 142.030813 
L 378.192867 142.667039 
L 379.547852 141.70915 
L 380.225345 143.170012 
L 380.902838 143.757633 
L 382.257824 142.241068 
L 382.935316 143.43051 
L 383.612809 143.930206 
L 384.967795 142.219769 
L 385.645288 142.683422 
L 386.32278 142.901323 
L 387.000273 142.296226 
L 387.677766 141.84841 
L 388.355259 143.329478 
L 389.032752 143.663155 
L 390.387737 142.024806 
L 391.06523 142.83142 
L 391.742723 143.031299 
L 393.097708 141.635425 
L 393.775201 142.952112 
L 394.452694 143.170012 
L 395.807679 141.465583 
L 396.485172 142.15915 
L 397.162665 142.289672 
L 398.517651 140.980085 
L 399.195143 142.136214 
L 399.872636 142.304417 
L 401.227622 140.871408 
L 401.905115 141.493981 
L 402.582607 141.59392 
L 403.937593 140.616917 
L 404.615086 141.747925 
L 405.292579 141.894284 
L 406.647564 140.792767 
L 407.325057 141.509272 
L 408.00255 141.599927 
L 409.357535 140.820073 
L 410.035028 142.054842 
L 410.712521 142.185364 
L 412.067506 141.148289 
L 412.744999 142.031359 
L 413.422492 142.107816 
L 414.099985 141.605388 
L 414.777478 141.394041 
L 415.45497 142.810121 
L 416.132463 142.908422 
L 417.487449 141.539854 
L 418.164942 142.323532 
L 418.842434 142.357391 
L 419.519927 141.766493 
L 420.19742 141.509818 
L 420.874913 143.03949 
L 421.552406 143.125777 
L 422.907391 141.489612 
L 423.584884 142.128568 
L 424.262377 142.124745 
L 424.939869 141.499442 
L 425.617362 141.052172 
L 426.294855 142.554539 
L 426.972348 142.632633 
L 428.327333 141.01176 
L 429.004826 141.541493 
L 429.682319 141.524563 
L 431.037305 140.517524 
L 431.714797 141.912852 
L 432.39229 141.996408 
L 433.747276 140.624017 
L 434.424769 141.154842 
L 435.102261 141.155388 
L 436.457247 140.365158 
L 437.13474 141.735364 
L 437.812233 141.830388 
L 439.167218 140.678083 
L 439.844711 141.318131 
L 440.522204 141.335607 
L 441.199696 140.912367 
L 441.877189 140.745255 
L 442.554682 142.192464 
L 443.232175 142.285303 
L 444.58716 141.074563 
L 445.264653 141.787245 
L 445.942146 141.798167 
L 446.619639 141.305024 
L 447.297132 141.158119 
L 447.974624 142.631541 
L 448.652117 142.715643 
L 450.007103 141.327961 
L 450.684596 142.128022 
L 451.362088 142.127476 
L 452.039581 141.526748 
L 452.717074 141.241675 
L 453.394567 142.771893 
L 454.072059 142.819405 
L 455.427045 141.189248 
L 456.104538 141.759939 
L 456.782031 141.721165 
L 457.459523 141.137913 
L 458.137016 140.722864 
L 458.814509 142.219223 
L 459.492002 142.277658 
L 460.846987 140.762184 
L 461.52448 141.28318 
L 462.201973 141.24659 
L 463.556959 140.34932 
L 464.234451 141.761578 
L 464.911944 141.82875 
L 466.26693 140.54483 
L 466.944423 141.104053 
L 467.621915 141.088762 
L 468.299408 140.657876 
L 468.976901 140.401748 
L 469.654394 141.83858 
L 470.331886 141.915583 
L 471.686872 140.737063 
L 472.364365 141.366735 
L 473.041858 141.360728 
L 473.71935 140.926019 
L 474.396843 140.785121 
L 475.074336 142.225231 
L 475.751829 142.309879 
L 477.106814 141.08767 
L 477.784307 141.895376 
L 478.4618 141.898653 
L 479.139293 141.361274 
L 479.816786 141.185971 
L 480.494278 142.697621 
L 481.171771 142.748956 
L 482.526757 141.244951 
L 483.20425 141.910667 
L 483.881742 141.880631 
L 484.559235 141.298471 
L 485.236728 140.982816 
L 485.914221 142.487367 
L 486.591713 142.538701 
L 487.946699 140.992646 
L 488.624192 141.609211 
L 489.301685 141.569345 
L 490.65667 140.55193 
L 491.334163 141.966917 
L 492.011656 142.016614 
L 493.366641 140.620194 
L 494.044134 141.21983 
L 494.721627 141.191432 
L 496.076613 140.317646 
L 496.754105 141.66983 
L 497.431598 141.731541 
L 498.109091 141.113883 
L 498.109091 141.113883 
" style="fill:none;stroke:#bf00bf;stroke-linecap:square;stroke-width:1.5;"/>
   </g>
   <g id="line2d_28">
    <path clip-path="url(#pf799b05ff5)" d="M 92.290909 85.573835 
L 92.968402 222.102961 
L 93.645895 222.102961 
L 94.323387 223.321893 
L 95.00088 225.278629 
L 95.678373 232.303871 
L 96.355866 236.686456 
L 97.033359 236.228265 
L 97.710851 238.807573 
L 98.388344 245.513337 
L 99.065837 247.746954 
L 99.74333 246.924502 
L 100.420823 251.58943 
L 101.098315 257.81625 
L 101.775808 257.877961 
L 102.453301 258.142282 
L 103.130794 264.774867 
L 103.808287 269.30818 
L 104.485779 267.810182 
L 105.163272 270.334333 
L 105.840765 277.965765 
L 106.518258 279.822561 
L 107.19575 278.075534 
L 107.873243 283.518131 
L 108.550736 290.549927 
L 109.228229 289.486638 
L 109.905722 289.27693 
L 110.583214 297.373107 
L 111.260707 301.958301 
L 111.9382 298.817585 
L 112.615693 301.882937 
L 113.293186 311.202415 
L 113.970678 311.885607 
L 114.648171 308.672257 
L 116.003157 324.040522 
L 116.68065 320.541007 
L 117.358142 320.044041 
L 118.035635 331.01443 
L 118.713128 334.945922 
L 119.390621 328.810303 
L 120.068114 333.693131 
L 120.745606 345.79125 
L 121.423099 343.452233 
L 122.100592 338.193677 
L 122.778085 349.282027 
L 123.455577 354.690218 
L 124.13307 348.711881 
L 124.810563 346.337913 
L 125.488056 347.556845 
L 126.165549 349.016614 
L 126.843041 348.845133 
L 127.520534 347.936942 
L 128.198027 347.570498 
L 129.553013 348.062002 
L 130.230505 348.018859 
L 131.585491 347.804235 
L 133.617969 347.83591 
L 137.005433 347.712488 
L 148.522811 347.391371 
L 172.235058 346.928265 
L 201.367248 346.590765 
L 202.722234 346.508301 
L 203.399727 346.285485 
L 204.07722 345.668374 
L 206.787191 338.945133 
L 208.142176 333.419527 
L 208.819669 331.587852 
L 209.497162 329.024927 
L 210.174655 325.444587 
L 210.852148 322.657755 
L 211.52964 320.77693 
L 212.207133 317.853568 
L 212.884626 314.118677 
L 213.562119 311.747985 
L 214.239611 310.241796 
L 215.594597 303.996954 
L 216.27209 302.568859 
L 216.949583 301.792828 
L 218.304568 296.840097 
L 218.982061 296.799684 
L 219.659554 297.019223 
L 221.014539 293.108483 
L 221.692032 293.543192 
L 222.369525 293.786214 
L 223.047018 291.625231 
L 223.724511 290.097743 
L 224.402003 291.18233 
L 225.079496 291.367464 
L 225.756989 288.962913 
L 226.434482 287.931299 
L 227.111975 289.582755 
L 227.789467 289.513398 
L 228.46696 286.854357 
L 229.144453 286.415825 
L 229.821946 288.533665 
L 230.499438 288.026869 
L 231.176931 285.157573 
L 231.854424 285.420255 
L 232.531917 287.874502 
L 233.20941 286.765886 
L 233.886902 283.781905 
L 234.564395 284.853386 
L 235.241888 287.479114 
L 235.919381 285.627233 
L 236.596874 282.674381 
L 237.274366 284.541007 
L 237.951859 287.2421 
L 238.629352 284.574867 
L 239.306845 276.566614 
L 239.984338 279.424442 
L 240.66183 288.837852 
L 241.339323 281.56085 
L 242.016816 269.598714 
L 242.694309 270.696408 
L 243.371801 280.767888 
L 244.049294 278.869587 
L 244.726787 263.421044 
L 245.40428 257.355328 
L 246.081773 268.210485 
L 246.759265 269.894163 
L 247.436758 251.568677 
L 248.114251 243.343617 
L 248.791744 255.749745 
L 249.469237 255.971468 
L 250.146729 237.620862 
L 250.824222 230.146711 
L 251.501715 236.419951 
L 252.179208 236.210789 
L 252.856701 222.979478 
L 253.534193 217.708908 
L 254.211686 225.198896 
L 254.889179 223.361214 
L 255.566672 209.162731 
L 256.244165 205.597136 
L 256.921657 213.820012 
L 257.59915 210.185607 
L 258.276643 195.486335 
L 258.954136 193.761699 
L 259.631628 202.282755 
L 260.309121 196.824867 
L 260.986614 182.971529 
L 261.664107 180.443556 
L 262.3416 188.036214 
L 263.019092 183.502354 
L 263.696585 169.717828 
L 264.374078 168.760485 
L 265.051571 176.176201 
L 265.729064 170.202779 
L 266.406556 157.600049 
L 267.084049 158.103022 
L 267.761542 163.978143 
L 268.439035 157.144587 
L 269.116528 147.878629 
L 269.79402 152.037852 
L 270.471513 154.794648 
L 271.149006 146.132148 
L 271.826499 142.483544 
L 272.503992 148.013519 
L 273.181484 146.634575 
L 273.858977 139.300231 
L 274.53647 140.254842 
L 275.213963 144.428265 
L 276.568948 136.200473 
L 277.246441 139.624078 
L 277.923934 141.242221 
L 278.601427 136.69034 
L 279.278919 135.777779 
L 279.956412 139.523592 
L 280.633905 138.780874 
L 281.311398 135.319041 
L 281.988891 136.840522 
L 282.666383 139.45915 
L 283.343876 137.371893 
L 284.021369 135.796893 
L 284.698862 138.395316 
L 285.376355 139.364126 
L 286.053847 137.122318 
L 286.73134 137.368617 
L 287.408833 139.808665 
L 288.086326 144.988034 
L 288.763818 143.308726 
L 289.441311 143.27159 
L 290.118804 147.981845 
L 290.796297 149.512609 
L 291.47379 147.556966 
L 292.151282 149.48585 
L 292.828775 154.63409 
L 293.506268 155.973167 
L 294.183761 154.621529 
L 294.861254 157.222136 
L 295.538746 162.076566 
L 296.216239 162.812731 
L 296.893732 161.559939 
L 297.571225 164.28233 
L 298.248718 168.355813 
L 298.92621 168.142282 
L 299.603703 166.660121 
L 300.281196 169.123653 
L 300.958689 172.107087 
L 301.636182 170.783847 
L 302.313674 168.928689 
L 303.66866 172.695801 
L 304.346153 170.348046 
L 305.023645 168.532755 
L 305.701138 170.905631 
L 306.378631 172.404721 
L 307.056124 169.861456 
L 307.733617 168.575898 
L 308.411109 171.172136 
L 309.088602 172.175898 
L 309.766095 169.499381 
L 310.443588 168.750655 
L 311.121081 171.4654 
L 311.798573 171.966189 
L 312.476066 169.257451 
L 313.153559 169.040097 
L 313.831052 171.771226 
L 314.508545 171.778871 
L 315.186037 169.130752 
L 315.86353 167.821711 
L 316.541023 171.05909 
L 317.218516 172.122379 
L 317.896008 166.56892 
L 318.573501 162.154114 
L 319.250994 169.935728 
L 319.928487 172.406359 
L 320.60598 162.691493 
L 321.283472 156.087306 
L 321.960965 164.964976 
L 322.638458 168.465036 
L 323.315951 157.133119 
L 323.993444 148.212852 
L 324.670936 155.073167 
L 325.348429 160.521226 
L 326.025922 149.82608 
L 326.703415 140.91892 
L 327.380908 147.520376 
L 328.0584 150.570437 
L 328.735893 141.728811 
L 329.413386 136.331541 
L 330.090879 143.60909 
L 330.768372 144.678386 
L 331.445864 136.473532 
L 332.123357 133.884393 
L 332.80085 141.773046 
L 333.478343 144.650534 
L 334.155835 136.625352 
L 334.833328 132.794345 
L 335.510821 146.303629 
L 336.188314 145.192828 
L 336.865807 135.867342 
L 337.543299 136.451687 
L 338.220792 148.534515 
L 338.898285 144.62432 
L 339.575778 137.247925 
L 340.253271 141.968556 
L 340.930763 149.003629 
L 341.608256 144.00557 
L 342.285749 139.927718 
L 342.963242 147.016857 
L 343.640735 150.798167 
L 344.318227 144.637973 
L 344.99572 141.477597 
L 345.673213 150.007937 
L 346.350706 153.029053 
L 347.028199 145.948653 
L 347.705691 143.5654 
L 348.383184 153.121347 
L 349.060677 155.161092 
L 349.73817 147.023956 
L 350.415662 144.632512 
L 351.093155 155.662973 
L 351.770648 156.759029 
L 352.448141 146.878689 
L 353.125634 142.445862 
L 353.803126 157.193192 
L 354.480619 157.942464 
L 355.158112 145.041553 
L 355.835605 137.460364 
L 356.513098 151.354114 
L 357.19059 156.251141 
L 357.868083 141.631602 
L 358.545576 135.271529 
L 359.223069 149.174017 
L 359.900562 151.565461 
L 360.578054 138.247318 
L 361.255547 132.800898 
L 361.93304 150.303932 
L 362.610533 150.840218 
L 363.288025 137.79568 
L 363.965518 136.131117 
L 364.643011 142.244345 
L 365.320504 142.646286 
L 365.997997 137.841007 
L 366.675489 137.008726 
L 367.352982 144.168859 
L 368.030475 142.550716 
L 368.707968 136.048107 
L 369.385461 137.455995 
L 370.062953 145.759697 
L 370.740446 141.820012 
L 371.417939 134.817706 
L 372.095432 139.36358 
L 372.772925 146.969891 
L 374.12791 134.608544 
L 374.805403 142.595498 
L 375.482896 148.298592 
L 376.160389 140.042949 
L 376.837881 134.677354 
L 377.515374 146.503507 
L 378.192867 149.627294 
L 378.87036 138.911942 
L 379.547852 134.508604 
L 380.225345 149.77693 
L 380.902838 150.796529 
L 381.580331 138.546044 
L 382.257824 134.49932 
L 382.935316 150.370558 
L 383.612809 151.322439 
L 384.290302 138.809272 
L 384.967795 136.750413 
L 385.645288 148.842524 
L 386.32278 149.233544 
L 387.000273 138.418799 
L 387.677766 136.453871 
L 388.355259 150.970194 
L 389.032752 149.63057 
L 389.710244 138.769951 
L 390.387737 135.692039 
L 391.06523 149.279417 
L 391.742723 149.546468 
L 392.420216 138.017949 
L 393.097708 134.705206 
L 393.775201 150.271711 
L 394.452694 149.675898 
L 395.130187 138.111335 
L 395.807679 134.079903 
L 396.485172 148.552536 
L 397.162665 149.326383 
L 397.840158 137.291614 
L 398.517651 133.807937 
L 399.195143 149.476566 
L 399.872636 149.074624 
L 400.550129 137.419405 
L 401.227622 134.232269 
L 401.905115 148.088883 
L 402.582607 148.36358 
L 403.2601 136.853629 
L 403.937593 134.934575 
L 404.615086 149.257573 
L 405.292579 147.92068 
L 405.970071 137.250655 
L 406.647564 135.933968 
L 407.325057 148.276201 
L 408.00255 147.293738 
L 408.680042 136.993981 
L 409.357535 136.731845 
L 410.035028 149.54483 
L 410.712521 147.081299 
L 411.390014 137.528629 
L 412.067506 137.297621 
L 412.744999 148.720194 
L 413.422492 146.845922 
L 414.099985 137.342403 
L 414.777478 137.574502 
L 415.45497 150.337245 
L 416.132463 147.205813 
L 416.809956 138.001019 
L 417.487449 137.285061 
L 418.164942 148.595133 
L 418.842434 147.128265 
L 419.519927 137.482209 
L 420.19742 136.777172 
L 420.874913 150.554053 
L 421.552406 147.721347 
L 422.229898 138.02341 
L 422.907391 135.991857 
L 423.584884 148.108544 
L 424.262377 147.561335 
L 424.939869 137.034939 
L 425.617362 135.154114 
L 426.294855 150.030328 
L 426.972348 147.872075 
L 427.649841 137.516068 
L 428.327333 134.761456 
L 429.004826 147.487609 
L 429.682319 147.482694 
L 430.359812 136.500291 
L 431.037305 134.587791 
L 431.714797 149.435061 
L 432.39229 147.472318 
L 433.069783 137.060061 
L 433.747276 135.035607 
L 434.424769 147.330328 
L 435.102261 146.912002 
L 435.779754 136.330449 
L 436.457247 135.569709 
L 437.13474 149.355874 
L 437.812233 146.807148 
L 438.489725 137.065522 
L 439.167218 136.350655 
L 439.844711 147.660182 
L 440.522204 146.353871 
L 441.199696 136.675595 
L 441.877189 137.002172 
L 442.554682 149.858847 
L 443.232175 146.570133 
L 443.909668 137.487124 
L 444.58716 137.300898 
L 445.264653 148.056117 
L 445.942146 146.342949 
L 446.619639 137.250109 
L 447.297132 137.372985 
L 447.974624 150.084939 
L 448.652117 146.892342 
L 449.32961 137.745983 
L 450.007103 136.860728 
L 450.684596 148.345012 
L 451.362088 146.855206 
L 452.039581 137.091735 
L 452.717074 136.269284 
L 453.394567 150.273896 
L 454.072059 147.393677 
L 454.749552 137.685364 
L 455.427045 135.637973 
L 456.104538 147.655813 
L 456.782031 147.14301 
L 457.459523 136.669587 
L 458.137016 135.026869 
L 458.814509 149.723956 
L 459.492002 147.377294 
L 460.169495 137.215158 
L 460.846987 134.916553 
L 461.52448 147.249502 
L 462.201973 146.9404 
L 462.879466 136.276383 
L 463.556959 134.970073 
L 464.234451 149.316007 
L 464.911944 146.932755 
L 465.589437 136.934454 
L 466.26693 135.528204 
L 466.944423 147.278993 
L 467.621915 146.425413 
L 468.299408 136.273107 
L 468.976901 136.091796 
L 469.654394 149.512063 
L 470.331886 146.469648 
L 471.009379 137.121226 
L 471.686872 136.721468 
L 472.364365 147.592464 
L 473.041858 146.090643 
L 473.71935 136.854721 
L 474.396843 137.190583 
L 475.074336 149.728871 
L 475.751829 146.459818 
L 476.429322 137.450534 
L 477.106814 137.1671 
L 477.784307 148.21176 
L 478.4618 146.361517 
L 479.139293 137.058422 
L 479.816786 137.022379 
L 480.494278 150.213823 
L 481.171771 146.936578 
L 481.849264 137.699017 
L 482.526757 136.491007 
L 483.20425 147.927779 
L 483.881742 146.793495 
L 484.559235 136.975959 
L 485.236728 135.892464 
L 485.914221 149.918374 
L 486.591713 147.249502 
L 487.269206 137.436881 
L 487.946699 135.382391 
L 488.624192 147.599017 
L 489.301685 146.987913 
L 489.979177 136.516129 
L 490.65667 134.946044 
L 491.334163 149.356966 
L 492.011656 147.103689 
L 492.689149 136.996711 
L 493.366641 135.043799 
L 494.044134 147.336335 
L 494.721627 146.696833 
L 495.39912 136.256723 
L 496.076613 135.281359 
L 496.754105 149.125959 
L 497.431598 146.665704 
L 498.109091 136.866735 
L 498.109091 136.866735 
" style="fill:none;stroke:#00bfbf;stroke-linecap:square;stroke-width:1.5;"/>
   </g>
   <g id="line2d_29">
    <path clip-path="url(#pf799b05ff5)" d="M 92.290909 85.573835 
L 92.968402 222.102961 
L 93.645895 231.854964 
L 94.323387 239.285971 
L 95.00088 242.048228 
L 95.678373 243.192342 
L 96.355866 246.848046 
L 97.033359 251.89034 
L 97.710851 253.491553 
L 98.388344 254.601808 
L 99.74333 263.594709 
L 100.420823 264.152294 
L 101.098315 266.38591 
L 101.775808 271.921347 
L 102.453301 274.731663 
L 103.130794 274.904235 
L 103.808287 278.723774 
L 104.485779 284.200777 
L 105.163272 285.352536 
L 105.840765 286.083786 
L 106.518258 291.494163 
L 107.19575 295.910607 
L 107.873243 295.694345 
L 108.550736 297.979296 
L 109.228229 304.379235 
L 109.905722 306.844951 
L 110.583214 306.179235 
L 111.260707 310.700534 
L 111.9382 316.898956 
L 112.615693 317.031117 
L 113.293186 317.330388 
L 113.970678 324.062913 
L 114.648171 328.535061 
L 115.325664 326.830631 
L 116.003157 329.602172 
L 116.68065 337.535061 
L 117.358142 338.943495 
L 118.035635 336.941978 
L 119.390621 350.295619 
L 120.068114 348.203993 
L 120.745606 348.250959 
L 121.423099 357.609211 
L 122.100592 361.469163 
L 122.778085 356.751808 
L 123.455577 362.10375 
L 124.13307 369.36 
L 124.810563 368.169466 
L 125.488056 366.383665 
L 126.165549 366.621772 
L 126.843041 367.785546 
L 127.520534 368.207148 
L 128.87552 367.349745 
L 129.553013 367.28585 
L 130.230505 367.373228 
L 130.907998 367.332269 
L 132.940477 366.90466 
L 134.972955 366.609757 
L 141.747883 365.526262 
L 150.555289 364.295316 
L 160.040188 363.191614 
L 170.880073 362.163823 
L 182.39745 361.291129 
L 195.947306 360.49216 
L 201.367248 360.228932 
L 202.044741 359.658786 
L 204.07722 356.130874 
L 204.754712 355.021711 
L 205.432205 353.340765 
L 206.787191 348.825473 
L 207.464684 346.900959 
L 208.142176 344.307451 
L 208.819669 341.202233 
L 210.852148 333.279175 
L 211.52964 329.943495 
L 212.884626 325.28676 
L 214.239611 319.144041 
L 215.594597 315.572439 
L 216.27209 312.861517 
L 216.949583 310.627354 
L 217.627075 309.854053 
L 218.304568 308.905449 
L 218.982061 306.976566 
L 219.659554 305.600352 
L 220.337047 305.569223 
L 221.014539 305.009454 
L 221.692032 303.214915 
L 222.369525 302.291432 
L 223.047018 302.720133 
L 223.724511 302.169648 
L 224.402003 300.405692 
L 225.079496 299.944769 
L 225.756989 300.71534 
L 226.434482 300.026687 
L 227.111975 298.278568 
L 227.789467 298.293313 
L 228.46696 299.294345 
L 229.144453 298.352294 
L 229.821946 296.651687 
L 230.499438 297.167767 
L 231.176931 298.27966 
L 231.854424 296.997925 
L 232.531917 295.409272 
L 233.886902 297.541857 
L 234.564395 295.85818 
L 235.241888 294.477051 
L 235.919381 296.04659 
L 236.596874 296.979357 
L 237.274366 294.863155 
L 237.951859 293.736517 
L 238.629352 295.828143 
L 239.306845 296.51625 
L 239.984338 290.466917 
L 240.66183 286.518495 
L 242.016816 292.614248 
L 243.371801 277.805752 
L 244.049294 277.789369 
L 244.726787 283.582027 
L 245.40428 279.877718 
L 246.081773 268.750049 
L 246.759265 267.946711 
L 247.436758 271.364308 
L 248.114251 267.13682 
L 248.791744 254.459272 
L 249.469237 252.090765 
L 250.146729 252.94216 
L 250.824222 249.578083 
L 251.501715 240.211638 
L 252.179208 237.958362 
L 252.856701 241.263459 
L 253.534193 236.697925 
L 254.211686 227.067706 
L 254.889179 225.93943 
L 255.566672 229.300231 
L 256.244165 223.547439 
L 256.921657 213.973471 
L 257.59915 213.987124 
L 258.276643 217.157876 
L 258.954136 210.310667 
L 259.631628 201.082391 
L 260.309121 200.45818 
L 260.986614 203.279417 
L 261.664107 197.138883 
L 262.3416 188.237731 
L 263.019092 188.520073 
L 263.696585 190.950291 
L 264.374078 184.037002 
L 265.051571 175.678689 
L 266.406556 178.426748 
L 267.084049 171.093495 
L 267.761542 165.239672 
L 268.439035 169.006238 
L 269.116528 168.015583 
L 269.79402 160.233968 
L 270.471513 159.176687 
L 271.149006 162.615583 
L 271.826499 158.997561 
L 272.503992 153.710061 
L 273.858977 157.186638 
L 274.53647 152.664248 
L 275.213963 150.489066 
L 275.891455 153.373107 
L 276.568948 152.901262 
L 277.246441 149.078447 
L 277.923934 149.480934 
L 278.601427 151.846711 
L 279.278919 150.016129 
L 279.956412 147.826201 
L 280.633905 149.674806 
L 281.311398 150.795437 
L 281.988891 148.62517 
L 282.666383 148.209029 
L 283.343876 150.336699 
L 284.021369 150.223653 
L 284.698862 148.570558 
L 285.376355 149.47165 
L 286.053847 151.055388 
L 287.408833 149.482573 
L 288.086326 151.217039 
L 288.763818 155.441796 
L 289.441311 156.164308 
L 290.118804 155.558665 
L 290.796297 157.994891 
L 291.47379 161.492221 
L 292.151282 162.279721 
L 292.828775 162.398228 
L 294.183761 168.703143 
L 294.861254 169.345922 
L 295.538746 169.70199 
L 296.893732 175.474442 
L 298.248718 175.772621 
L 298.92621 178.319163 
L 299.603703 180.252415 
L 300.281196 179.574138 
L 300.958689 179.351323 
L 301.636182 181.253447 
L 302.313674 182.121772 
L 302.991167 180.585 
L 303.66866 180.021408 
L 304.346153 181.706177 
L 305.023645 182.061153 
L 305.701138 180.324502 
L 306.378631 180.103325 
L 307.056124 181.808847 
L 307.733617 181.83943 
L 308.411109 180.1279 
L 309.088602 180.240947 
L 309.766095 181.913155 
L 310.443588 181.647197 
L 311.121081 180.027961 
L 311.798573 180.456117 
L 312.476066 182.042039 
L 313.153559 181.505752 
L 313.831052 180.027961 
L 314.508545 180.739551 
L 315.186037 182.188398 
L 315.86353 181.412913 
L 316.541023 179.1154 
L 317.218516 179.482391 
L 317.896008 181.712731 
L 318.573501 180.01267 
L 319.250994 174.452658 
L 319.928487 175.140765 
L 320.60598 180.333786 
L 321.283472 178.50375 
L 321.960965 169.523956 
L 322.638458 167.233544 
L 323.315951 171.598107 
L 323.993444 171.113155 
L 324.670936 162.314126 
L 325.348429 159.032512 
L 326.025922 163.91534 
L 326.703415 162.801808 
L 327.380908 154.139854 
L 328.0584 153.732451 
L 328.735893 158.66443 
L 329.413386 155.353325 
L 330.090879 148.572197 
L 330.768372 150.409879 
L 331.445864 154.482269 
L 332.123357 150.682937 
L 332.80085 145.722561 
L 333.478343 149.663337 
L 334.155835 154.677779 
L 334.833328 151.083786 
L 335.510821 145.705085 
L 336.188314 151.596044 
L 336.865807 156.174684 
L 337.543299 151.152051 
L 338.220792 147.569527 
L 338.898285 153.594284 
L 339.575778 156.401869 
L 340.253271 152.072803 
L 340.930763 151.196286 
L 341.608256 156.953447 
L 342.285749 157.873653 
L 342.963242 153.950352 
L 343.640735 154.417282 
L 344.318227 159.317585 
L 344.99572 159.70915 
L 345.673213 155.520983 
L 346.350706 156.789612 
L 347.028199 162.042706 
L 347.705691 161.712306 
L 348.383184 157.134757 
L 349.060677 159.039066 
L 349.73817 164.449442 
L 350.415662 163.234879 
L 351.093155 157.751869 
L 351.770648 160.184818 
L 352.448141 165.979114 
L 353.125634 163.734029 
L 353.803126 155.849199 
L 354.480619 157.024442 
L 355.158112 163.312427 
L 355.835605 161.718313 
L 356.513098 152.139976 
L 357.19059 154.170983 
L 357.868083 160.141129 
L 358.545576 157.53943 
L 359.223069 148.562367 
L 359.900562 152.293981 
L 360.578054 159.727718 
L 361.255547 156.147925 
L 361.93304 145.921347 
L 362.610533 147.004296 
L 363.288025 151.835789 
L 363.965518 150.759939 
L 364.643011 147.964369 
L 365.997997 153.353993 
L 367.352982 148.343374 
L 368.030475 152.31091 
L 368.707968 153.961274 
L 369.385461 149.771468 
L 370.062953 147.866614 
L 370.740446 153.358362 
L 371.417939 154.292767 
L 372.095432 149.151626 
L 372.772925 148.410546 
L 373.450417 154.643374 
L 374.12791 154.928993 
L 374.805403 149.014551 
L 375.482896 149.866493 
L 376.160389 156.378386 
L 376.837881 155.635667 
L 377.515374 148.86983 
L 378.192867 151.782269 
L 378.87036 158.337306 
L 379.547852 156.149563 
L 380.225345 148.260364 
L 380.902838 151.150959 
L 381.580331 158.912913 
L 382.257824 156.508908 
L 382.935316 148.193192 
L 383.612809 150.455752 
L 384.290302 157.711456 
L 384.967795 155.62966 
L 385.645288 149.329114 
L 386.32278 153.71443 
L 387.000273 159.093131 
L 387.677766 155.667888 
L 388.355259 148.586396 
L 389.032752 151.322985 
L 389.710244 158.072439 
L 390.387737 155.642221 
L 391.06523 148.498471 
L 391.742723 152.449078 
L 392.420216 158.653507 
L 393.097708 155.382816 
L 393.775201 147.384939 
L 394.452694 149.72341 
L 395.130187 157.541614 
L 395.807679 155.149078 
L 396.485172 147.232027 
L 397.162665 150.881177 
L 397.840158 157.995983 
L 398.517651 154.73949 
L 399.195143 146.506784 
L 399.872636 149.058786 
L 400.550129 157.004235 
L 401.227622 154.41182 
L 401.905115 146.917464 
L 402.582607 151.095255 
L 403.2601 157.566189 
L 403.937593 154.050291 
L 404.615086 146.842646 
L 405.292579 150.276626 
L 405.970071 156.834939 
L 406.647564 153.887549 
L 407.325057 147.680934 
L 408.680042 157.509393 
L 409.357535 153.739005 
L 410.035028 147.821833 
L 410.712521 152.038398 
L 411.390014 156.958362 
L 412.067506 153.788155 
L 412.744999 148.492464 
L 413.422492 153.856966 
L 414.099985 158.010182 
L 414.777478 153.944345 
L 415.45497 148.315522 
L 416.132463 152.172743 
L 416.809956 156.972015 
L 417.487449 154.068859 
L 418.164942 148.731663 
L 418.842434 154.00551 
L 419.519927 158.269587 
L 420.19742 154.180813 
L 420.874913 147.885182 
L 421.552406 151.013337 
L 422.229898 156.787973 
L 422.907391 154.195558 
L 423.584884 148.059939 
L 424.939869 157.949563 
L 425.617362 153.986942 
L 426.294855 146.833362 
L 426.972348 149.518617 
L 427.649841 156.349988 
L 428.327333 153.882633 
L 429.004826 147.168131 
L 430.359812 157.456966 
L 431.037305 153.564248 
L 431.714797 146.320558 
L 432.39229 149.252112 
L 433.069783 156.087852 
L 433.747276 153.459393 
L 434.424769 147.097136 
L 435.779754 157.236881 
L 436.457247 153.233847 
L 437.13474 146.782027 
L 437.812233 150.380388 
L 438.489725 156.141917 
L 439.167218 153.259515 
L 439.844711 147.784697 
L 440.522204 153.36983 
L 441.199696 157.503932 
L 441.877189 153.316311 
L 442.554682 147.655813 
L 443.232175 151.583483 
L 443.909668 156.402961 
L 444.58716 153.455024 
L 445.264653 148.477718 
L 445.942146 153.840583 
L 446.619639 157.753507 
L 447.297132 153.674017 
L 447.974624 148.087791 
L 448.652117 151.994709 
L 449.32961 156.717524 
L 450.007103 153.769041 
L 450.684596 148.32699 
L 451.362088 153.71716 
L 452.039581 157.976323 
L 452.717074 153.810546 
L 453.394567 147.382209 
L 454.072059 150.426262 
L 454.749552 156.377294 
L 455.427045 153.805631 
L 456.104538 147.682027 
L 457.459523 157.608786 
L 458.137016 153.569709 
L 458.814509 146.557573 
L 459.492002 149.427961 
L 460.169495 156.041978 
L 460.846987 153.48233 
L 461.52448 147.074199 
L 462.879466 157.224867 
L 463.556959 153.208726 
L 464.234451 146.384454 
L 464.911944 149.627294 
L 465.589437 155.912002 
L 466.26693 153.169951 
L 466.944423 147.269163 
L 467.621915 152.875595 
L 468.299408 157.230874 
L 468.976901 153.050898 
L 469.654394 146.975898 
L 470.331886 150.688944 
L 471.009379 156.027779 
L 471.686872 153.1421 
L 472.364365 147.992767 
L 473.041858 153.46267 
L 473.71935 157.396893 
L 474.396843 153.295012 
L 475.074336 147.81801 
L 476.429322 156.484879 
L 477.106814 153.423896 
L 477.784307 148.343374 
L 478.4618 153.847682 
L 479.139293 157.821226 
L 479.816786 153.604114 
L 480.494278 147.76449 
L 481.171771 151.29841 
L 481.849264 156.449927 
L 482.526757 153.682755 
L 483.20425 148.12165 
L 483.881742 153.414066 
L 484.559235 157.714187 
L 485.236728 153.650534 
L 485.914221 147.133726 
L 486.591713 150.302294 
L 487.269206 156.2779 
L 487.946699 153.609575 
L 488.624192 147.396954 
L 489.979177 157.2975 
L 490.65667 153.356723 
L 491.334163 146.474563 
L 492.011656 149.6546 
L 492.689149 156.007027 
L 493.366641 153.283544 
L 494.044134 147.014672 
L 495.39912 157.032087 
L 496.076613 153.074381 
L 496.754105 146.566857 
L 497.431598 150.17341 
L 498.109091 155.98409 
L 498.109091 155.98409 
" style="fill:none;stroke:#ff0000;stroke-linecap:square;stroke-width:1.5;"/>
   </g>
   <g id="line2d_30">
    <path clip-path="url(#pf799b05ff5)" d="M 92.290909 85.573835 
L 92.968402 222.102961 
L 93.645895 222.102961 
L 94.323387 224.540825 
L 95.00088 228.356541 
L 95.678373 230.182209 
L 96.355866 230.083362 
L 97.033359 231.268434 
L 97.710851 234.497621 
L 98.388344 236.286153 
L 99.065837 237.108604 
L 99.74333 240.403325 
L 100.420823 244.493738 
L 101.775808 247.879114 
L 102.453301 252.299381 
L 103.130794 255.839308 
L 103.808287 256.86983 
L 104.485779 259.604235 
L 105.163272 264.45375 
L 105.840765 266.847925 
L 106.518258 267.762124 
L 107.873243 276.321408 
L 108.550736 277.458968 
L 109.228229 279.048714 
L 109.905722 284.163641 
L 110.583214 287.671893 
L 111.260707 287.926383 
L 111.9382 290.962245 
L 112.615693 296.578507 
L 113.293186 298.371954 
L 113.970678 298.643374 
L 115.325664 308.547197 
L 116.003157 308.51716 
L 116.68065 310.06267 
L 117.358142 316.53415 
L 118.035635 319.639915 
L 118.713128 318.51983 
L 119.390621 322.525595 
L 120.068114 329.375534 
L 120.745606 329.650777 
L 121.423099 329.085546 
L 122.100592 336.027233 
L 122.778085 340.347561 
L 123.455577 339.360728 
L 124.13307 341.373714 
L 125.488056 350.542464 
L 126.165549 352.807209 
L 128.198027 356.732148 
L 128.87552 357.524017 
L 129.553013 357.785061 
L 131.585491 357.722257 
L 132.940477 357.375473 
L 139.037912 355.087245 
L 145.81284 352.528143 
L 151.910275 350.48676 
L 158.00771 348.687306 
L 164.782638 346.937549 
L 171.557566 345.415522 
L 179.009986 343.967221 
L 187.1399 342.618859 
L 195.947306 341.38682 
L 201.367248 340.730934 
L 202.044741 338.62074 
L 202.722234 333.013762 
L 204.07722 318.398592 
L 205.432205 304.186456 
L 208.142176 277.94665 
L 210.174655 260.081541 
L 210.852148 255.763944 
L 212.207133 245.022925 
L 212.884626 241.2296 
L 213.562119 238.233058 
L 214.917104 229.886214 
L 215.594597 227.938762 
L 216.27209 226.479539 
L 216.949583 223.528871 
L 217.627075 221.216068 
L 218.982061 221.699381 
L 219.659554 220.276748 
L 220.337047 219.485971 
L 221.014539 220.953932 
L 221.692032 221.764915 
L 222.369525 220.323714 
L 223.047018 219.933786 
L 223.724511 221.861578 
L 224.402003 222.394587 
L 225.079496 220.613701 
L 225.756989 220.608786 
L 226.434482 222.844587 
L 227.111975 222.8921 
L 227.789467 220.784636 
L 228.46696 221.26358 
L 229.144453 223.708544 
L 229.821946 223.137306 
L 230.499438 220.804842 
L 231.176931 221.891068 
L 231.854424 224.428871 
L 232.531917 223.132391 
L 233.20941 220.724563 
L 233.886902 222.528386 
L 234.564395 225.007209 
L 235.919381 220.610425 
L 237.274366 225.439733 
L 237.951859 222.483058 
L 238.629352 220.406177 
L 239.306845 223.83415 
L 239.984338 225.708968 
L 240.66183 216.044345 
L 241.339323 208.34301 
L 242.016816 212.424138 
L 242.694309 218.977536 
L 243.371801 209.052961 
L 244.049294 195.033058 
L 244.726787 193.851262 
L 245.40428 204.277172 
L 246.081773 200.830085 
L 246.759265 182.961699 
L 247.436758 180.364369 
L 248.114251 187.612427 
L 248.791744 183.219466 
L 249.469237 163.176444 
L 250.146729 158.184393 
L 250.824222 161.174381 
L 251.501715 158.282694 
L 252.179208 144.801262 
L 252.856701 141.539854 
L 253.534193 148.892221 
L 254.211686 145.162245 
L 254.889179 131.4296 
L 255.566672 130.04574 
L 256.244165 137.806056 
L 256.921657 132.307755 
L 257.59915 118.445133 
L 258.276643 118.838883 
L 258.954136 126.547318 
L 259.631628 119.332573 
L 260.309121 105.787791 
L 260.986614 105.142282 
L 261.664107 112.121104 
L 262.3416 106.042828 
L 263.019092 93.309575 
L 263.696585 94.246165 
L 264.374078 100.85909 
L 265.051571 93.528022 
L 265.729064 81.456663 
L 266.406556 85.020619 
L 267.084049 89.557755 
L 268.439035 73.209211 
L 269.116528 81.787609 
L 269.79402 82.168799 
L 270.471513 71.474745 
L 271.149006 71.852658 
L 271.826499 79.206117 
L 272.503992 74.694102 
L 273.181484 67.550898 
L 273.858977 72.122439 
L 274.53647 75.823471 
L 275.213963 69.412609 
L 275.891455 66.96 
L 276.568948 72.663641 
L 277.246441 72.600837 
L 277.923934 67.073046 
L 278.601427 68.539915 
L 279.278919 73.0421 
L 279.956412 70.528871 
L 280.633905 67.5154 
L 281.311398 71.123592 
L 281.988891 73.3654 
L 282.666383 70.190825 
L 283.343876 69.982755 
L 284.021369 73.883119 
L 284.698862 73.995073 
L 285.376355 71.634211 
L 286.053847 73.511214 
L 286.73134 76.417646 
L 287.408833 75.260971 
L 288.086326 74.453265 
L 288.763818 77.631663 
L 289.441311 84.690765 
L 290.118804 85.937549 
L 290.796297 85.255995 
L 291.47379 89.492221 
L 292.151282 96.259697 
L 292.828775 98.994102 
L 293.506268 99.467585 
L 294.183761 103.740947 
L 294.861254 109.359939 
L 295.538746 110.526444 
L 296.216239 110.051323 
L 297.571225 117.121347 
L 298.248718 116.478022 
L 298.92621 114.984939 
L 300.281196 119.246286 
L 301.636182 114.724442 
L 302.313674 116.047136 
L 302.991167 116.557755 
L 303.66866 113.475473 
L 304.346153 112.157694 
L 305.023645 114.780146 
L 305.701138 115.993617 
L 306.378631 113.569405 
L 307.056124 112.904235 
L 307.733617 115.646286 
L 308.411109 116.31091 
L 309.088602 113.76983 
L 309.766095 113.56449 
L 310.443588 116.286881 
L 311.121081 116.422864 
L 311.798573 113.888337 
L 312.476066 114.154842 
L 313.153559 116.790947 
L 313.831052 116.444163 
L 314.508545 114.021044 
L 315.186037 114.737549 
L 315.86353 117.213095 
L 316.541023 116.43051 
L 317.218516 112.588034 
L 317.896008 112.500655 
L 318.573501 116.120862 
L 319.250994 114.119891 
L 319.928487 104.888337 
L 320.60598 104.519709 
L 321.283472 113.039672 
L 321.960965 111.993859 
L 322.638458 97.64301 
L 323.315951 91.80284 
L 323.993444 98.26449 
L 324.670936 99.382391 
L 325.348429 86.277779 
L 326.025922 79.578568 
L 326.703415 88.340461 
L 327.380908 88.024806 
L 328.0584 74.952961 
L 328.735893 75.049078 
L 329.413386 84.0529 
L 330.090879 79.37159 
L 330.768372 69.255328 
L 331.445864 73.2671 
L 332.123357 80.520619 
L 332.80085 74.725777 
L 333.478343 67.266917 
L 334.155835 74.345133 
L 334.833328 82.738944 
L 335.510821 76.983422 
L 336.188314 68.695012 
L 336.865807 78.834757 
L 337.543299 86.394648 
L 338.220792 78.466675 
L 338.898285 72.931784 
L 339.575778 83.210243 
L 340.253271 87.875716 
L 340.930763 81.443556 
L 341.608256 79.90733 
L 342.285749 89.559939 
L 342.963242 91.963944 
L 343.640735 86.130328 
L 344.318227 85.78682 
L 344.99572 93.790158 
L 345.673213 96.19307 
L 346.350706 89.800231 
L 347.028199 90.353447 
L 347.705691 98.786578 
L 348.383184 99.760303 
L 349.060677 92.093374 
L 349.73817 93.158847 
L 350.415662 101.757998 
L 351.093155 101.171468 
L 351.770648 91.60733 
L 352.448141 93.144102 
L 353.125634 102.514369 
L 353.803126 100.50466 
L 354.480619 86.890522 
L 355.158112 85.885121 
L 355.835605 95.95551 
L 356.513098 95.693374 
L 357.19059 80.366068 
L 357.868083 82.287852 
L 358.545576 92.207512 
L 359.223069 89.567585 
L 359.900562 74.792949 
L 360.578054 80.630388 
L 361.255547 92.889066 
L 361.93304 88.615704 
L 362.610533 71.364976 
L 363.288025 73.088519 
L 363.965518 81.325595 
L 364.643011 79.63591 
L 365.320504 75.27517 
L 366.675489 84.423167 
L 368.030475 76.726748 
L 368.707968 83.492585 
L 369.385461 86.261396 
L 370.062953 79.757148 
L 370.740446 76.903143 
L 371.417939 86.0921 
L 372.095432 87.70915 
L 372.772925 79.802476 
L 373.450417 78.463944 
L 374.12791 88.742403 
L 374.805403 89.772379 
L 375.482896 80.358968 
L 376.160389 81.019769 
L 376.837881 91.613337 
L 377.515374 91.535789 
L 378.192867 80.431056 
L 378.87036 83.953507 
L 379.547852 94.49574 
L 380.225345 92.673896 
L 380.902838 79.353568 
L 381.580331 82.614976 
L 382.257824 95.099745 
L 382.935316 93.001566 
L 383.612809 78.885 
L 384.290302 81.081481 
L 384.967795 92.812609 
L 385.645288 90.795801 
L 386.32278 80.05642 
L 387.000273 86.143434 
L 387.677766 94.912973 
L 388.355259 91.122379 
L 389.032752 78.813459 
L 389.710244 82.256723 
L 390.387737 93.20199 
L 391.06523 90.748289 
L 391.742723 78.603204 
L 392.420216 84.069284 
L 393.097708 94.086699 
L 393.775201 90.476869 
L 394.452694 76.749138 
L 395.130187 79.762063 
L 395.807679 92.464187 
L 396.485172 89.847197 
L 397.162665 76.404539 
L 397.840158 81.640158 
L 398.517651 93.15557 
L 399.195143 89.302718 
L 399.872636 75.138641 
L 400.550129 78.787245 
L 401.227622 91.708908 
L 401.905115 88.582391 
L 402.582607 75.737184 
L 403.2601 82.117464 
L 403.937593 92.595255 
L 404.615086 88.219769 
L 405.292579 75.643799 
L 405.970071 80.937852 
L 406.647564 91.599684 
L 407.325057 87.93142 
L 408.00255 77.107937 
L 409.357535 92.721954 
L 410.035028 88.035728 
L 410.712521 77.527354 
L 411.390014 84.071468 
L 412.067506 92.050231 
L 412.744999 88.19301 
L 413.422492 78.83858 
L 414.777478 94.122197 
L 415.45497 88.878932 
L 416.132463 78.639248 
L 416.809956 84.353811 
L 417.487449 92.120133 
L 418.164942 88.72165 
L 418.842434 79.384697 
L 420.19742 94.606056 
L 420.874913 89.359515 
L 421.552406 78.019951 
L 422.229898 82.471893 
L 422.907391 91.830692 
L 423.584884 88.827051 
L 424.262377 78.251505 
L 425.617362 93.769951 
L 426.294855 88.872925 
L 426.972348 76.284939 
L 427.649841 80.203871 
L 428.327333 91.300413 
L 429.004826 88.322439 
L 429.682319 76.785728 
L 431.037305 92.999381 
L 431.714797 88.128022 
L 432.39229 75.412245 
L 433.069783 79.912245 
L 433.747276 91.016978 
L 434.424769 87.702051 
L 435.102261 76.667767 
L 436.457247 92.768374 
L 437.13474 87.680752 
L 437.812233 76.213944 
L 438.489725 81.860243 
L 439.167218 91.205934 
L 439.844711 87.566614 
L 440.522204 77.929296 
L 441.199696 86.706481 
L 441.877189 93.563519 
L 442.554682 88.085971 
L 443.232175 77.768738 
L 443.909668 83.790765 
L 444.58716 91.58767 
L 445.264653 87.976201 
L 445.942146 79.171711 
L 446.619639 87.477597 
L 447.297132 94.13585 
L 447.974624 88.778447 
L 448.652117 78.562791 
L 449.32961 84.362002 
L 450.007103 91.987427 
L 450.684596 88.47426 
L 451.362088 78.942342 
L 452.717074 94.342828 
L 453.394567 88.952112 
L 454.072059 77.377172 
L 454.749552 81.794709 
L 455.427045 91.438034 
L 456.104538 88.359575 
L 456.782031 77.780206 
L 458.137016 93.423714 
L 458.814509 88.352476 
L 459.492002 75.968738 
L 460.169495 80.301626 
L 460.846987 91.040461 
L 461.52448 87.853871 
L 462.201973 76.774806 
L 463.556959 92.845376 
L 464.234451 87.748471 
L 464.911944 75.674927 
L 465.589437 80.746711 
L 466.26693 90.945437 
L 466.944423 87.447561 
L 467.621915 77.13415 
L 468.299408 85.982876 
L 468.976901 93.047439 
L 469.654394 87.640886 
L 470.331886 76.703811 
L 471.009379 82.518313 
L 471.686872 91.167706 
L 472.364365 87.53057 
L 473.041858 78.426808 
L 473.71935 87.01176 
L 474.396843 93.606117 
L 475.074336 88.204478 
L 475.751829 78.182694 
L 477.106814 91.801201 
L 477.784307 88.061942 
L 478.4618 79.07068 
L 479.139293 87.58409 
L 479.816786 94.351566 
L 480.494278 88.778993 
L 481.171771 78.100777 
L 481.849264 83.30909 
L 482.526757 91.63682 
L 483.20425 88.318617 
L 483.881742 78.619587 
L 485.236728 93.879175 
L 485.914221 88.664854 
L 486.591713 77.00909 
L 487.269206 81.705692 
L 487.946699 91.387245 
L 488.624192 88.132391 
L 489.301685 77.373896 
L 490.65667 92.969345 
L 491.334163 88.037913 
L 492.011656 75.905934 
L 492.689149 80.806238 
L 493.366641 91.110364 
L 494.044134 87.676383 
L 494.721627 76.77699 
L 496.076613 92.669527 
L 496.754105 87.628871 
L 497.431598 76.074684 
L 498.109091 81.738459 
L 498.109091 81.738459 
" style="fill:none;stroke:#008000;stroke-linecap:square;stroke-width:1.5;"/>
   </g>
   <g id="patch_3">
    <path d="M 72 384.48 
L 72 51.84 
" style="fill:none;stroke:#000000;stroke-linecap:square;stroke-linejoin:miter;stroke-width:0.8;"/>
   </g>
   <g id="patch_4">
    <path d="M 518.4 384.48 
L 518.4 51.84 
" style="fill:none;stroke:#000000;stroke-linecap:square;stroke-linejoin:miter;stroke-width:0.8;"/>
   </g>
   <g id="patch_5">
    <path d="M 72 384.48 
L 518.4 384.48 
" style="fill:none;stroke:#000000;stroke-linecap:square;stroke-linejoin:miter;stroke-width:0.8;"/>
   </g>
   <g id="patch_6">
    <path d="M 72 51.84 
L 518.4 51.84 
" style="fill:none;stroke:#000000;stroke-linecap:square;stroke-linejoin:miter;stroke-width:0.8;"/>
   </g>
   <g id="text_16">
    <!-- $\partial \mathcal{L}/ \partial \mu^{\overline{U}}_{m}$ -->
    <g transform="translate(270.478938 45.84)scale(0.14 -0.14)">
     <use transform="translate(0 24.62935)scale(0.996264)" xlink:href="#CMMI12-64"/>
     <use transform="translate(56.915564 24.62935)scale(0.996264)" xlink:href="#CMSY10-76"/>
     <use transform="translate(125.630372 24.62935)scale(0.996264)" xlink:href="#CMMI12-61"/>
     <use transform="translate(174.405291 24.62935)scale(0.996264)" xlink:href="#CMMI12-64"/>
     <use transform="translate(231.320856 24.62935)scale(0.996264)" xlink:href="#CMMI12-22"/>
     <use transform="translate(290.012277 60.782989)scale(0.697382)" xlink:href="#CMMI12-85"/>
     <use transform="translate(290.012277 0)scale(0.697382)" xlink:href="#CMMI12-109"/>
     <path d="M 290.012277 116.805753 
L 344.171317 116.805753 
L 344.171317 119.595204 
L 290.012277 119.595204 
L 290.012277 116.805753 
z
"/>
    </g>
   </g>
   <g id="legend_1">
    <g id="patch_7">
     <path d="M 443.185706 379.48 
L 511.4 379.48 
Q 513.4 379.48 513.4 377.48 
L 513.4 310.531024 
Q 513.4 308.531024 511.4 308.531024 
L 443.185706 308.531024 
Q 441.185706 308.531024 441.185706 310.531024 
L 441.185706 377.48 
Q 441.185706 379.48 443.185706 379.48 
z
" style="fill:#ffffff;opacity:0.8;stroke:#cccccc;stroke-linejoin:miter;"/>
    </g>
    <g id="line2d_31">
     <path d="M 445.185706 319.08109 
L 465.185706 319.08109 
" style="fill:none;stroke:#bf00bf;stroke-linecap:square;stroke-width:1.5;"/>
    </g>
    <g id="line2d_32"/>
    <g id="text_17">
     <!-- $\partial \mathcal{L}/ \partial \mu^{\overline{U}}_{1}$ -->
     <g transform="translate(473.185706 322.58109)scale(0.1 -0.1)">
      <use transform="translate(0 24.740171)scale(0.996264)" xlink:href="#CMMI12-64"/>
      <use transform="translate(56.915564 24.740171)scale(0.996264)" xlink:href="#CMSY10-76"/>
      <use transform="translate(125.630372 24.740171)scale(0.996264)" xlink:href="#CMMI12-61"/>
      <use transform="translate(174.405291 24.740171)scale(0.996264)" xlink:href="#CMMI12-64"/>
      <use transform="translate(231.320856 24.740171)scale(0.996264)" xlink:href="#CMMI12-22"/>
      <use transform="translate(290.012277 60.89381)scale(0.697382)" xlink:href="#CMMI12-85"/>
      <use transform="translate(290.012277 0)scale(0.697382)" xlink:href="#CMR17-49"/>
      <path d="M 290.012277 116.916574 
L 344.171317 116.916574 
L 344.171317 119.706025 
L 290.012277 119.706025 
L 290.012277 116.916574 
z
"/>
     </g>
    </g>
    <g id="line2d_33">
     <path d="M 445.185706 336.068334 
L 465.185706 336.068334 
" style="fill:none;stroke:#00bfbf;stroke-linecap:square;stroke-width:1.5;"/>
    </g>
    <g id="line2d_34"/>
    <g id="text_18">
     <!-- $\partial \mathcal{L}/ \partial \mu^{\overline{U}}_{2}$ -->
     <g transform="translate(473.185706 339.568334)scale(0.1 -0.1)">
      <use transform="translate(0 24.740171)scale(0.996264)" xlink:href="#CMMI12-64"/>
      <use transform="translate(56.915564 24.740171)scale(0.996264)" xlink:href="#CMSY10-76"/>
      <use transform="translate(125.630372 24.740171)scale(0.996264)" xlink:href="#CMMI12-61"/>
      <use transform="translate(174.405291 24.740171)scale(0.996264)" xlink:href="#CMMI12-64"/>
      <use transform="translate(231.320856 24.740171)scale(0.996264)" xlink:href="#CMMI12-22"/>
      <use transform="translate(290.012277 60.89381)scale(0.697382)" xlink:href="#CMMI12-85"/>
      <use transform="translate(290.012277 0)scale(0.697382)" xlink:href="#CMR17-50"/>
      <path d="M 290.012277 116.916574 
L 344.171317 116.916574 
L 344.171317 119.706025 
L 290.012277 119.706025 
L 290.012277 116.916574 
z
"/>
     </g>
    </g>
    <g id="line2d_35">
     <path d="M 445.185706 353.055578 
L 465.185706 353.055578 
" style="fill:none;stroke:#ff0000;stroke-linecap:square;stroke-width:1.5;"/>
    </g>
    <g id="line2d_36"/>
    <g id="text_19">
     <!-- $\partial \mathcal{L}/ \partial \mu^{\overline{U}}_{3}$ -->
     <g transform="translate(473.185706 356.555578)scale(0.1 -0.1)">
      <use transform="translate(0 24.740171)scale(0.996264)" xlink:href="#CMMI12-64"/>
      <use transform="translate(56.915564 24.740171)scale(0.996264)" xlink:href="#CMSY10-76"/>
      <use transform="translate(125.630372 24.740171)scale(0.996264)" xlink:href="#CMMI12-61"/>
      <use transform="translate(174.405291 24.740171)scale(0.996264)" xlink:href="#CMMI12-64"/>
      <use transform="translate(231.320856 24.740171)scale(0.996264)" xlink:href="#CMMI12-22"/>
      <use transform="translate(290.012277 60.89381)scale(0.697382)" xlink:href="#CMMI12-85"/>
      <use transform="translate(290.012277 0)scale(0.697382)" xlink:href="#CMR17-51"/>
      <path d="M 290.012277 116.916574 
L 344.171317 116.916574 
L 344.171317 119.706025 
L 290.012277 119.706025 
L 290.012277 116.916574 
z
"/>
     </g>
    </g>
    <g id="line2d_37">
     <path d="M 445.185706 370.042822 
L 465.185706 370.042822 
" style="fill:none;stroke:#008000;stroke-linecap:square;stroke-width:1.5;"/>
    </g>
    <g id="line2d_38"/>
    <g id="text_20">
     <!-- $\partial \mathcal{L}/ \partial \mu^{\overline{U}}_{4}$ -->
     <g transform="translate(473.185706 373.542822)scale(0.1 -0.1)">
      <use transform="translate(0 24.740171)scale(0.996264)" xlink:href="#CMMI12-64"/>
      <use transform="translate(56.915564 24.740171)scale(0.996264)" xlink:href="#CMSY10-76"/>
      <use transform="translate(125.630372 24.740171)scale(0.996264)" xlink:href="#CMMI12-61"/>
      <use transform="translate(174.405291 24.740171)scale(0.996264)" xlink:href="#CMMI12-64"/>
      <use transform="translate(231.320856 24.740171)scale(0.996264)" xlink:href="#CMMI12-22"/>
      <use transform="translate(290.012277 60.89381)scale(0.697382)" xlink:href="#CMMI12-85"/>
      <use transform="translate(290.012277 0)scale(0.697382)" xlink:href="#CMR17-52"/>
      <path d="M 290.012277 116.916574 
L 344.171317 116.916574 
L 344.171317 119.706025 
L 290.012277 119.706025 
L 290.012277 116.916574 
z
"/>
     </g>
    </g>
   </g>
  </g>
 </g>
 <defs>
  <clipPath id="pf799b05ff5">
   <rect height="332.64" width="446.4" x="72" y="51.84"/>
  </clipPath>
 </defs>
</svg>
