<?xml version="1.0" encoding="utf-8" standalone="no"?>
<!DOCTYPE svg PUBLIC "-//W3C//DTD SVG 1.1//EN"
  "http://www.w3.org/Graphics/SVG/1.1/DTD/svg11.dtd">
<!-- Created with matplotlib (http://matplotlib.org/) -->
<svg height="432pt" version="1.1" viewBox="0 0 576 432" width="576pt" xmlns="http://www.w3.org/2000/svg" xmlns:xlink="http://www.w3.org/1999/xlink">
 <defs>
  <style type="text/css">
*{stroke-linecap:butt;stroke-linejoin:round;}
  </style>
 </defs>
 <g id="figure_1">
  <g id="patch_1">
   <path d="M 0 432 
L 576 432 
L 576 0 
L 0 0 
z
" style="fill:#ffffff;"/>
  </g>
  <g id="axes_1">
   <g id="patch_2">
    <path d="M 72 384.48 
L 518.4 384.48 
L 518.4 51.84 
L 72 51.84 
z
" style="fill:#ffffff;"/>
   </g>
   <g id="matplotlib.axis_1">
    <g id="xtick_1">
     <g id="line2d_1">
      <path clip-path="url(#pcfb8e626e2)" d="M 92.290909 384.48 
L 92.290909 51.84 
" style="fill:none;stroke:#b0b0b0;stroke-dasharray:5.12,1.28,0.8,1.28;stroke-dashoffset:0;stroke-width:0.8;"/>
     </g>
     <g id="line2d_2">
      <defs>
       <path d="M 0 0 
L 0 3.5 
" id="ma831b26011" style="stroke:#000000;stroke-width:0.8;"/>
      </defs>
      <g>
       <use style="stroke:#000000;stroke-width:0.8;" x="92.290909" xlink:href="#ma831b26011" y="384.48"/>
      </g>
     </g>
     <g id="text_1">
      <!-- $0$ -->
      <defs>
       <path d="M 42 31.640625 
C 42 37.75 41.90625 48.125 37.703125 56.109375 
C 34 63.109375 28.09375 65.59375 22.90625 65.59375 
C 18.09375 65.59375 12 63.40625 8.203125 56.203125 
C 4.203125 48.71875 3.796875 39.4375 3.796875 31.640625 
C 3.796875 25.953125 3.90625 17.28125 7 9.671875 
C 11.296875 -0.609375 19 -2 22.90625 -2 
C 27.5 -2 34.5 -0.109375 38.59375 9.375 
C 41.59375 16.28125 42 24.359375 42 31.640625 
z
M 22.90625 -0.40625 
C 16.5 -0.40625 12.703125 5.078125 11.296875 12.6875 
C 10.203125 18.5625 10.203125 27.15625 10.203125 32.75 
C 10.203125 40.4375 10.203125 46.828125 11.5 52.921875 
C 13.40625 61.390625 19 64 22.90625 64 
C 27 64 32.296875 61.296875 34.203125 53.125 
C 35.5 47.4375 35.59375 40.734375 35.59375 32.75 
C 35.59375 26.25 35.59375 18.265625 34.40625 12.375 
C 32.296875 1.484375 26.40625 -0.40625 22.90625 -0.40625 
z
" id="CMR17-48"/>
      </defs>
      <g transform="translate(89.800241 398.398498)scale(0.1 -0.1)">
       <use transform="scale(0.996264)" xlink:href="#CMR17-48"/>
      </g>
     </g>
    </g>
    <g id="xtick_2">
     <g id="line2d_3">
      <path clip-path="url(#pcfb8e626e2)" d="M 160.040188 384.48 
L 160.040188 51.84 
" style="fill:none;stroke:#b0b0b0;stroke-dasharray:5.12,1.28,0.8,1.28;stroke-dashoffset:0;stroke-width:0.8;"/>
     </g>
     <g id="line2d_4">
      <g>
       <use style="stroke:#000000;stroke-width:0.8;" x="160.040188" xlink:href="#ma831b26011" y="384.48"/>
      </g>
     </g>
     <g id="text_2">
      <!-- $100$ -->
      <defs>
       <path d="M 26.59375 63.40625 
C 26.59375 65.5 26.5 65.5 25.09375 65.5 
C 21.203125 61.1875 15.296875 59.796875 9.703125 59.796875 
C 9.40625 59.796875 8.90625 59.796875 8.796875 59.5 
C 8.703125 59.296875 8.703125 59.09375 8.703125 57 
C 11.796875 57 17 57.59375 21 59.984375 
L 21 7.203125 
C 21 3.6875 20.796875 2.5 12.203125 2.5 
L 9.203125 2.5 
L 9.203125 0 
C 14 0 19 0 23.796875 0 
C 28.59375 0 33.59375 0 38.40625 0 
L 38.40625 2.5 
L 35.40625 2.5 
C 26.796875 2.5 26.59375 3.59375 26.59375 7.15625 
z
" id="CMR17-49"/>
      </defs>
      <g transform="translate(152.568185 398.398498)scale(0.1 -0.1)">
       <use transform="scale(0.996264)" xlink:href="#CMR17-49"/>
       <use transform="translate(45.690477 0)scale(0.996264)" xlink:href="#CMR17-48"/>
       <use transform="translate(91.380954 0)scale(0.996264)" xlink:href="#CMR17-48"/>
      </g>
     </g>
    </g>
    <g id="xtick_3">
     <g id="line2d_5">
      <path clip-path="url(#pcfb8e626e2)" d="M 227.789467 384.48 
L 227.789467 51.84 
" style="fill:none;stroke:#b0b0b0;stroke-dasharray:5.12,1.28,0.8,1.28;stroke-dashoffset:0;stroke-width:0.8;"/>
     </g>
     <g id="line2d_6">
      <g>
       <use style="stroke:#000000;stroke-width:0.8;" x="227.789467" xlink:href="#ma831b26011" y="384.48"/>
      </g>
     </g>
     <g id="text_3">
      <!-- $200$ -->
      <defs>
       <path d="M 41.703125 15.453125 
L 39.90625 15.453125 
C 38.90625 8.375 38.09375 7.171875 37.703125 6.5625 
C 37.203125 5.765625 30 5.765625 28.59375 5.765625 
L 9.40625 5.765625 
C 13 9.671875 20 16.75 28.5 24.953125 
C 34.59375 30.734375 41.703125 37.53125 41.703125 47.421875 
C 41.703125 59.21875 32.296875 66 21.796875 66 
C 10.796875 66 4.09375 56.3125 4.09375 47.34375 
C 4.09375 43.4375 7 42.9375 8.203125 42.9375 
C 9.203125 42.9375 12.203125 43.546875 12.203125 47.03125 
C 12.203125 50.109375 9.59375 51 8.203125 51 
C 7.59375 51 7 50.90625 6.59375 50.703125 
C 8.5 59.21875 14.296875 63.40625 20.40625 63.40625 
C 29.09375 63.40625 34.796875 56.515625 34.796875 47.421875 
C 34.796875 38.734375 29.703125 31.25 24 24.75 
L 4.09375 2.28125 
L 4.09375 0 
L 39.296875 0 
z
" id="CMR17-50"/>
      </defs>
      <g transform="translate(220.317464 398.398498)scale(0.1 -0.1)">
       <use transform="scale(0.996264)" xlink:href="#CMR17-50"/>
       <use transform="translate(45.690477 0)scale(0.996264)" xlink:href="#CMR17-48"/>
       <use transform="translate(91.380954 0)scale(0.996264)" xlink:href="#CMR17-48"/>
      </g>
     </g>
    </g>
    <g id="xtick_4">
     <g id="line2d_7">
      <path clip-path="url(#pcfb8e626e2)" d="M 295.538746 384.48 
L 295.538746 51.84 
" style="fill:none;stroke:#b0b0b0;stroke-dasharray:5.12,1.28,0.8,1.28;stroke-dashoffset:0;stroke-width:0.8;"/>
     </g>
     <g id="line2d_8">
      <g>
       <use style="stroke:#000000;stroke-width:0.8;" x="295.538746" xlink:href="#ma831b26011" y="384.48"/>
      </g>
     </g>
     <g id="text_4">
      <!-- $300$ -->
      <defs>
       <path d="M 22.09375 33.703125 
C 31 33.703125 34.90625 25.96875 34.90625 17.03125 
C 34.90625 5 28.5 0.390625 22.703125 0.390625 
C 17.40625 0.390625 8.796875 3.03125 6.09375 10.828125 
C 6.59375 10.625 7.09375 10.625 7.59375 10.625 
C 10 10.625 11.796875 12.21875 11.796875 14.8125 
C 11.796875 17.703125 9.59375 19 7.59375 19 
C 5.90625 19 3.296875 18.203125 3.296875 14.46875 
C 3.296875 5.234375 12.296875 -2 22.90625 -2 
C 34 -2 42.5 6.71875 42.5 16.953125 
C 42.5 26.671875 34.5 33.703125 25 34.796875 
C 32.59375 36.375 39.90625 43.0625 39.90625 52.015625 
C 39.90625 59.6875 32 65.296875 23 65.296875 
C 13.90625 65.296875 5.90625 59.828125 5.90625 52.015625 
C 5.90625 48.59375 8.5 48 9.796875 48 
C 11.90625 48 13.703125 49.296875 13.703125 51.890625 
C 13.703125 54.46875 11.90625 55.765625 9.796875 55.765625 
C 9.40625 55.765625 8.90625 55.765625 8.5 55.578125 
C 11.40625 61.859375 19.296875 63 22.796875 63 
C 26.296875 63 32.90625 61.328125 32.90625 51.875 
C 32.90625 49.109375 32.5 44.1875 29.09375 39.84375 
C 26.09375 36 22.703125 36 19.40625 35.6875 
C 18.90625 35.6875 16.59375 35.453125 16.203125 35.453125 
C 15.5 35.359375 15.09375 35.265625 15.09375 34.5 
C 15.09375 33.796875 15.203125 33.703125 17.203125 33.703125 
z
" id="CMR17-51"/>
      </defs>
      <g transform="translate(288.066744 398.398498)scale(0.1 -0.1)">
       <use transform="scale(0.996264)" xlink:href="#CMR17-51"/>
       <use transform="translate(45.690477 0)scale(0.996264)" xlink:href="#CMR17-48"/>
       <use transform="translate(91.380954 0)scale(0.996264)" xlink:href="#CMR17-48"/>
      </g>
     </g>
    </g>
    <g id="xtick_5">
     <g id="line2d_9">
      <path clip-path="url(#pcfb8e626e2)" d="M 363.288025 384.48 
L 363.288025 51.84 
" style="fill:none;stroke:#b0b0b0;stroke-dasharray:5.12,1.28,0.8,1.28;stroke-dashoffset:0;stroke-width:0.8;"/>
     </g>
     <g id="line2d_10">
      <g>
       <use style="stroke:#000000;stroke-width:0.8;" x="363.288025" xlink:href="#ma831b26011" y="384.48"/>
      </g>
     </g>
     <g id="text_5">
      <!-- $400$ -->
      <defs>
       <path d="M 33.59375 64.40625 
C 33.59375 66.5 33.5 66.5 31.703125 66.5 
L 2 19.59375 
L 2 17 
L 27.796875 17 
L 27.796875 7.140625 
C 27.796875 3.5 27.59375 2.5 20.59375 2.5 
L 18.703125 2.5 
L 18.703125 0 
C 21.90625 0 27.296875 0 30.703125 0 
C 34.09375 0 39.5 0 42.703125 0 
L 42.703125 2.5 
L 40.796875 2.5 
C 33.796875 2.5 33.59375 3.5 33.59375 7.140625 
L 33.59375 17 
L 43.796875 17 
L 43.796875 19.59375 
L 33.59375 19.59375 
z
M 28.09375 57.859375 
L 28.09375 19.59375 
L 4 19.59375 
z
" id="CMR17-52"/>
      </defs>
      <g transform="translate(355.816023 398.398498)scale(0.1 -0.1)">
       <use transform="scale(0.996264)" xlink:href="#CMR17-52"/>
       <use transform="translate(45.690477 0)scale(0.996264)" xlink:href="#CMR17-48"/>
       <use transform="translate(91.380954 0)scale(0.996264)" xlink:href="#CMR17-48"/>
      </g>
     </g>
    </g>
    <g id="xtick_6">
     <g id="line2d_11">
      <path clip-path="url(#pcfb8e626e2)" d="M 431.037305 384.48 
L 431.037305 51.84 
" style="fill:none;stroke:#b0b0b0;stroke-dasharray:5.12,1.28,0.8,1.28;stroke-dashoffset:0;stroke-width:0.8;"/>
     </g>
     <g id="line2d_12">
      <g>
       <use style="stroke:#000000;stroke-width:0.8;" x="431.037305" xlink:href="#ma831b26011" y="384.48"/>
      </g>
     </g>
     <g id="text_6">
      <!-- $500$ -->
      <defs>
       <path d="M 11.40625 57.6875 
C 12.40625 57.28125 16.5 56 20.703125 56 
C 30 56 35.09375 61.109375 38 64.0625 
C 38 64.953125 38 65.5 37.40625 65.5 
C 37.296875 65.5 37.09375 65.5 36.296875 65.046875 
C 32.796875 63.40625 28.703125 62.078125 23.703125 62.078125 
C 20.703125 62.078125 16.203125 62.484375 11.296875 64.671875 
C 10.203125 65.171875 10 65.171875 9.90625 65.171875 
C 9.40625 65.171875 9.296875 65.0625 9.296875 63.078125 
L 9.296875 34.421875 
C 9.296875 32.640625 9.296875 32.140625 10.296875 32.140625 
C 10.796875 32.140625 11 32.34375 11.5 33.03125 
C 14.703125 37.515625 19.09375 39.40625 24.09375 39.40625 
C 27.59375 39.40625 35.09375 37.21875 35.09375 20.140625 
C 35.09375 16.953125 35.09375 11.171875 32.09375 6.578125 
C 29.59375 2.484375 25.703125 0.390625 21.40625 0.390625 
C 14.796875 0.390625 8.09375 5 6.296875 12.71875 
C 6.703125 12.609375 7.5 12.421875 7.90625 12.421875 
C 9.203125 12.421875 11.703125 13.125 11.703125 16.21875 
C 11.703125 18.90625 9.796875 20 7.90625 20 
C 5.59375 20 4.09375 18.59375 4.09375 15.796875 
C 4.09375 7.09375 11 -2 21.59375 -2 
C 31.90625 -2 41.703125 6.875 41.703125 19.75 
C 41.703125 31.71875 33.90625 41 24.203125 41 
C 19.09375 41 14.796875 39.109375 11.40625 35.53125 
z
" id="CMR17-53"/>
      </defs>
      <g transform="translate(423.565302 398.398498)scale(0.1 -0.1)">
       <use transform="scale(0.996264)" xlink:href="#CMR17-53"/>
       <use transform="translate(45.690477 0)scale(0.996264)" xlink:href="#CMR17-48"/>
       <use transform="translate(91.380954 0)scale(0.996264)" xlink:href="#CMR17-48"/>
      </g>
     </g>
    </g>
    <g id="xtick_7">
     <g id="line2d_13">
      <path clip-path="url(#pcfb8e626e2)" d="M 498.786584 384.48 
L 498.786584 51.84 
" style="fill:none;stroke:#b0b0b0;stroke-dasharray:5.12,1.28,0.8,1.28;stroke-dashoffset:0;stroke-width:0.8;"/>
     </g>
     <g id="line2d_14">
      <g>
       <use style="stroke:#000000;stroke-width:0.8;" x="498.786584" xlink:href="#ma831b26011" y="384.48"/>
      </g>
     </g>
     <g id="text_7">
      <!-- $600$ -->
      <defs>
       <path d="M 10.59375 34 
C 10.59375 57.65625 21.796875 63 28.296875 63 
C 30.40625 63 35.5 62.640625 37.5 59 
C 35.90625 59 32.90625 59 32.90625 55.515625 
C 32.90625 52.828125 35.09375 51.921875 36.5 51.921875 
C 37.40625 51.921875 40.09375 52.3125 40.09375 55.625 
C 40.09375 61.78125 35.09375 65.296875 28.203125 65.296875 
C 16.296875 65.296875 3.796875 52.96875 3.796875 31 
C 3.796875 3.953125 15.09375 -2 23.09375 -2 
C 32.796875 -2 42 6.671875 42 20.046875 
C 42 32.515625 33.90625 41.59375 23.703125 41.59375 
C 17.59375 41.59375 13.09375 37.609375 10.59375 30.625 
z
M 23.09375 0.390625 
C 10.796875 0.390625 10.796875 18.75 10.796875 22.4375 
C 10.796875 29.625 14.203125 40 23.5 40 
C 25.203125 40 30.09375 40 33.40625 33.125 
C 35.203125 29.21875 35.203125 25.140625 35.203125 20.140625 
C 35.203125 14.75 35.203125 10.78125 33.09375 6.78125 
C 30.90625 2.671875 27.703125 0.390625 23.09375 0.390625 
z
" id="CMR17-54"/>
      </defs>
      <g transform="translate(491.314581 398.398498)scale(0.1 -0.1)">
       <use transform="scale(0.996264)" xlink:href="#CMR17-54"/>
       <use transform="translate(45.690477 0)scale(0.996264)" xlink:href="#CMR17-48"/>
       <use transform="translate(91.380954 0)scale(0.996264)" xlink:href="#CMR17-48"/>
      </g>
     </g>
    </g>
    <g id="text_8">
     <!-- Iteration -->
     <defs>
      <path d="M 17.09375 69 
L 8.703125 69 
L 8.703125 0 
L 17.09375 0 
z
" id="CMSS17-73"/>
      <path d="M 16.703125 37 
L 29.703125 37 
L 29.703125 42.765625 
L 16.703125 42.765625 
L 16.703125 55 
L 9.59375 55 
L 9.59375 42.765625 
L 1.703125 42.765625 
L 1.703125 37 
L 9.40625 37 
L 9.40625 11.703125 
C 9.40625 6 10.703125 -1 17.296875 -1 
C 22.296875 -1 26.90625 0.390625 31.296875 2.6875 
L 29.703125 8.5625 
C 27.296875 6.46875 24.40625 5.265625 21.296875 5.265625 
C 16.90625 5.265625 16.703125 10.875 16.703125 13.375 
z
" id="CMSS17-116"/>
      <path d="M 39.09375 21.515625 
C 39.09375 24.84375 38.90625 31.296875 35.703125 36.640625 
C 32.203125 42.390625 26.5 44 22.203125 44 
C 11.796875 44 3 34.1875 3 21.484375 
C 3 9.09375 12.09375 -1 23.59375 -1 
C 28.09375 -1 33.59375 0.296875 38.59375 3.875 
C 38.59375 4.28125 38.40625 6.46875 38.296875 6.5625 
C 38.296875 6.765625 38 9.84375 38 10.25 
C 33.203125 6.359375 27.703125 5.078125 23.703125 5.078125 
C 17.296875 5.078125 10.40625 10.421875 10.09375 21.515625 
z
M 10.90625 27 
C 12.203125 32.5625 16.59375 37.828125 22.203125 37.828125 
C 23.703125 37.828125 30.703125 37.828125 32.5 27 
z
" id="CMSS17-101"/>
      <path d="M 14.90625 21.296875 
C 14.90625 30.703125 21.796875 37 30.59375 37 
L 30.59375 43.578125 
C 24.203125 43.578125 18.203125 40.390625 14.59375 35.203125 
L 14.59375 43.09375 
L 7.5 43.09375 
L 7.5 0 
L 14.90625 0 
z
" id="CMSS17-114"/>
      <path d="M 37.59375 27.984375 
C 37.59375 37.375 30.90625 43.875 21.90625 43.875 
C 17.5 43.875 12.703125 43.078125 7.203125 39.890625 
L 7.796875 33.359375 
C 10.296875 35.125 14.59375 38 21.796875 38 
C 26.90625 38 30 34.0625 30 27.84375 
L 30 24 
C 14 24 4 19.34375 4 11.34375 
C 4 7.203125 6.5 -1 14.796875 -1 
C 16.296875 -1 24.40625 -1 30.203125 3.390625 
L 30.203125 -0.296875 
L 37.59375 -0.296875 
z
M 30 12.75 
C 30 10.953125 30 8.5625 27 6.78125 
C 24.40625 5.078125 21.09375 5.078125 19.703125 5.078125 
C 14.703125 5.078125 11.296875 7.984375 11.296875 11.625 
C 11.296875 18.921875 26.90625 18.921875 30 18.921875 
z
" id="CMSS17-97"/>
      <path d="M 15.296875 65.359375 
L 6.90625 65.359375 
L 6.90625 57 
L 15.296875 57 
z
M 14.796875 42.796875 
L 7.40625 42.796875 
L 7.40625 0 
L 14.796875 0 
z
" id="CMSS17-105"/>
      <path d="M 44.203125 21.1875 
C 44.203125 34 34.703125 44 23.5 44 
C 12 44 2.703125 33.703125 2.703125 21.1875 
C 2.703125 8.5 12.296875 -1 23.40625 -1 
C 34.796875 -1 44.203125 8.796875 44.203125 21.1875 
z
M 23.5 5.265625 
C 16.40625 5.265625 10.296875 11.078125 10.296875 22 
C 10.296875 33.609375 17.40625 37.921875 23.40625 37.921875 
C 29.90625 37.921875 36.59375 33.21875 36.59375 22 
C 36.59375 10.671875 30.09375 5.265625 23.5 5.265625 
z
" id="CMSS17-111"/>
      <path d="M 40.90625 29.328125 
C 40.90625 35.671875 39.40625 44 28.09375 44 
C 21.703125 44 17.5 40.71875 14.703125 37.328125 
L 14.703125 43.09375 
L 7.40625 43.09375 
L 7.40625 0 
L 15 0 
L 15 24.359375 
C 15 30.6875 17.40625 37.9375 24.203125 37.9375 
C 33 37.9375 33.296875 32 33.296875 28.578125 
L 33.296875 0 
L 40.90625 0 
z
" id="CMSS17-110"/>
     </defs>
     <g transform="translate(271.264003 414.021553)scale(0.14 -0.14)">
      <use transform="scale(0.996264)" xlink:href="#CMSS17-73"/>
      <use transform="translate(25.783926 0)scale(0.996264)" xlink:href="#CMSS17-116"/>
      <use transform="translate(59.615492 0)scale(0.996264)" xlink:href="#CMSS17-101"/>
      <use transform="translate(101.254314 0)scale(0.996264)" xlink:href="#CMSS17-114"/>
      <use transform="translate(133.164087 0)scale(0.996264)" xlink:href="#CMSS17-97"/>
      <use transform="translate(178.086007 0)scale(0.996264)" xlink:href="#CMSS17-116"/>
      <use transform="translate(211.917574 0)scale(0.996264)" xlink:href="#CMSS17-105"/>
      <use transform="translate(234.098297 0)scale(0.996264)" xlink:href="#CMSS17-111"/>
      <use transform="translate(280.941921 0)scale(0.996264)" xlink:href="#CMSS17-110"/>
     </g>
    </g>
   </g>
   <g id="matplotlib.axis_2">
    <g id="ytick_1">
     <g id="line2d_15">
      <path clip-path="url(#pcfb8e626e2)" d="M 72 369.36 
L 518.4 369.36 
" style="fill:none;stroke:#b0b0b0;stroke-dasharray:5.12,1.28,0.8,1.28;stroke-dashoffset:0;stroke-width:0.8;"/>
     </g>
     <g id="line2d_16">
      <defs>
       <path d="M 0 0 
L -3.5 0 
" id="md33a4221ac" style="stroke:#000000;stroke-width:0.8;"/>
      </defs>
      <g>
       <use style="stroke:#000000;stroke-width:0.8;" x="72" xlink:href="#md33a4221ac" y="369.36"/>
      </g>
     </g>
     <g id="text_9">
      <!-- $-100000$ -->
      <defs>
       <path d="M 65.90625 23 
C 67.59375 23 69.40625 23 69.40625 25 
C 69.40625 27 67.59375 27 65.90625 27 
L 11.796875 27 
C 10.09375 27 8.296875 27 8.296875 25 
C 8.296875 23 10.09375 23 11.796875 23 
z
" id="CMSY10-0"/>
      </defs>
      <g transform="translate(27.363245 372.819249)scale(0.1 -0.1)">
       <use transform="scale(0.996264)" xlink:href="#CMSY10-0"/>
       <use transform="translate(77.487468 0)scale(0.996264)" xlink:href="#CMR17-49"/>
       <use transform="translate(123.177945 0)scale(0.996264)" xlink:href="#CMR17-48"/>
       <use transform="translate(168.868422 0)scale(0.996264)" xlink:href="#CMR17-48"/>
       <use transform="translate(214.558899 0)scale(0.996264)" xlink:href="#CMR17-48"/>
       <use transform="translate(260.249376 0)scale(0.996264)" xlink:href="#CMR17-48"/>
       <use transform="translate(305.939853 0)scale(0.996264)" xlink:href="#CMR17-48"/>
      </g>
     </g>
    </g>
    <g id="ytick_2">
     <g id="line2d_17">
      <path clip-path="url(#pcfb8e626e2)" d="M 72 329.04 
L 518.4 329.04 
" style="fill:none;stroke:#b0b0b0;stroke-dasharray:5.12,1.28,0.8,1.28;stroke-dashoffset:0;stroke-width:0.8;"/>
     </g>
     <g id="line2d_18">
      <g>
       <use style="stroke:#000000;stroke-width:0.8;" x="72" xlink:href="#md33a4221ac" y="329.04"/>
      </g>
     </g>
     <g id="text_10">
      <!-- $-80000$ -->
      <defs>
       <path d="M 27.203125 35.375 
C 33.5 38.546875 39.90625 43.328125 39.90625 50.984375 
C 39.90625 60.015625 31.09375 65.296875 23 65.296875 
C 13.90625 65.296875 5.90625 58.734375 5.90625 49.6875 
C 5.90625 47.203125 6.5 42.921875 10.40625 39.140625 
C 11.40625 38.15625 15.59375 35.171875 18.296875 33.28125 
C 13.796875 30.984375 3.296875 25.53125 3.296875 14.59375 
C 3.296875 4.359375 13.09375 -2 22.796875 -2 
C 33.5 -2 42.5 5.65625 42.5 15.78125 
C 42.5 24.84375 36.40625 29.015625 32.40625 31.703125 
z
M 14.09375 44.09375 
C 13.296875 44.59375 9.296875 47.671875 9.296875 52.359375 
C 9.296875 58.421875 15.59375 63 22.796875 63 
C 30.703125 63 36.5 57.4375 36.5 50.96875 
C 36.5 41.703125 26.09375 36.421875 25.59375 36.421875 
C 25.5 36.421875 25.40625 36.421875 24.59375 37.03125 
z
M 32.5 23.734375 
C 34 22.640625 38.796875 19.375 38.796875 13.296875 
C 38.796875 5.953125 31.40625 0.390625 23 0.390625 
C 13.90625 0.390625 7 6.84375 7 14.6875 
C 7 22.546875 13.09375 29.09375 20 32.1875 
z
" id="CMR17-56"/>
      </defs>
      <g transform="translate(32.34458 332.499249)scale(0.1 -0.1)">
       <use transform="scale(0.996264)" xlink:href="#CMSY10-0"/>
       <use transform="translate(77.487468 0)scale(0.996264)" xlink:href="#CMR17-56"/>
       <use transform="translate(123.177945 0)scale(0.996264)" xlink:href="#CMR17-48"/>
       <use transform="translate(168.868422 0)scale(0.996264)" xlink:href="#CMR17-48"/>
       <use transform="translate(214.558899 0)scale(0.996264)" xlink:href="#CMR17-48"/>
       <use transform="translate(260.249376 0)scale(0.996264)" xlink:href="#CMR17-48"/>
      </g>
     </g>
    </g>
    <g id="ytick_3">
     <g id="line2d_19">
      <path clip-path="url(#pcfb8e626e2)" d="M 72 288.72 
L 518.4 288.72 
" style="fill:none;stroke:#b0b0b0;stroke-dasharray:5.12,1.28,0.8,1.28;stroke-dashoffset:0;stroke-width:0.8;"/>
     </g>
     <g id="line2d_20">
      <g>
       <use style="stroke:#000000;stroke-width:0.8;" x="72" xlink:href="#md33a4221ac" y="288.72"/>
      </g>
     </g>
     <g id="text_11">
      <!-- $-60000$ -->
      <g transform="translate(32.34458 292.179249)scale(0.1 -0.1)">
       <use transform="scale(0.996264)" xlink:href="#CMSY10-0"/>
       <use transform="translate(77.487468 0)scale(0.996264)" xlink:href="#CMR17-54"/>
       <use transform="translate(123.177945 0)scale(0.996264)" xlink:href="#CMR17-48"/>
       <use transform="translate(168.868422 0)scale(0.996264)" xlink:href="#CMR17-48"/>
       <use transform="translate(214.558899 0)scale(0.996264)" xlink:href="#CMR17-48"/>
       <use transform="translate(260.249376 0)scale(0.996264)" xlink:href="#CMR17-48"/>
      </g>
     </g>
    </g>
    <g id="ytick_4">
     <g id="line2d_21">
      <path clip-path="url(#pcfb8e626e2)" d="M 72 248.4 
L 518.4 248.4 
" style="fill:none;stroke:#b0b0b0;stroke-dasharray:5.12,1.28,0.8,1.28;stroke-dashoffset:0;stroke-width:0.8;"/>
     </g>
     <g id="line2d_22">
      <g>
       <use style="stroke:#000000;stroke-width:0.8;" x="72" xlink:href="#md33a4221ac" y="248.4"/>
      </g>
     </g>
     <g id="text_12">
      <!-- $-40000$ -->
      <g transform="translate(32.34458 251.859249)scale(0.1 -0.1)">
       <use transform="scale(0.996264)" xlink:href="#CMSY10-0"/>
       <use transform="translate(77.487468 0)scale(0.996264)" xlink:href="#CMR17-52"/>
       <use transform="translate(123.177945 0)scale(0.996264)" xlink:href="#CMR17-48"/>
       <use transform="translate(168.868422 0)scale(0.996264)" xlink:href="#CMR17-48"/>
       <use transform="translate(214.558899 0)scale(0.996264)" xlink:href="#CMR17-48"/>
       <use transform="translate(260.249376 0)scale(0.996264)" xlink:href="#CMR17-48"/>
      </g>
     </g>
    </g>
    <g id="ytick_5">
     <g id="line2d_23">
      <path clip-path="url(#pcfb8e626e2)" d="M 72 208.08 
L 518.4 208.08 
" style="fill:none;stroke:#b0b0b0;stroke-dasharray:5.12,1.28,0.8,1.28;stroke-dashoffset:0;stroke-width:0.8;"/>
     </g>
     <g id="line2d_24">
      <g>
       <use style="stroke:#000000;stroke-width:0.8;" x="72" xlink:href="#md33a4221ac" y="208.08"/>
      </g>
     </g>
     <g id="text_13">
      <!-- $-20000$ -->
      <g transform="translate(32.34458 211.539249)scale(0.1 -0.1)">
       <use transform="scale(0.996264)" xlink:href="#CMSY10-0"/>
       <use transform="translate(77.487468 0)scale(0.996264)" xlink:href="#CMR17-50"/>
       <use transform="translate(123.177945 0)scale(0.996264)" xlink:href="#CMR17-48"/>
       <use transform="translate(168.868422 0)scale(0.996264)" xlink:href="#CMR17-48"/>
       <use transform="translate(214.558899 0)scale(0.996264)" xlink:href="#CMR17-48"/>
       <use transform="translate(260.249376 0)scale(0.996264)" xlink:href="#CMR17-48"/>
      </g>
     </g>
    </g>
    <g id="ytick_6">
     <g id="line2d_25">
      <path clip-path="url(#pcfb8e626e2)" d="M 72 167.76 
L 518.4 167.76 
" style="fill:none;stroke:#b0b0b0;stroke-dasharray:5.12,1.28,0.8,1.28;stroke-dashoffset:0;stroke-width:0.8;"/>
     </g>
     <g id="line2d_26">
      <g>
       <use style="stroke:#000000;stroke-width:0.8;" x="72" xlink:href="#md33a4221ac" y="167.76"/>
      </g>
     </g>
     <g id="text_14">
      <!-- $0$ -->
      <g transform="translate(60.018665 171.219249)scale(0.1 -0.1)">
       <use transform="scale(0.996264)" xlink:href="#CMR17-48"/>
      </g>
     </g>
    </g>
    <g id="ytick_7">
     <g id="line2d_27">
      <path clip-path="url(#pcfb8e626e2)" d="M 72 127.44 
L 518.4 127.44 
" style="fill:none;stroke:#b0b0b0;stroke-dasharray:5.12,1.28,0.8,1.28;stroke-dashoffset:0;stroke-width:0.8;"/>
     </g>
     <g id="line2d_28">
      <g>
       <use style="stroke:#000000;stroke-width:0.8;" x="72" xlink:href="#md33a4221ac" y="127.44"/>
      </g>
     </g>
     <g id="text_15">
      <!-- $20000$ -->
      <g transform="translate(40.093324 130.899249)scale(0.1 -0.1)">
       <use transform="scale(0.996264)" xlink:href="#CMR17-50"/>
       <use transform="translate(45.690477 0)scale(0.996264)" xlink:href="#CMR17-48"/>
       <use transform="translate(91.380954 0)scale(0.996264)" xlink:href="#CMR17-48"/>
       <use transform="translate(137.071431 0)scale(0.996264)" xlink:href="#CMR17-48"/>
       <use transform="translate(182.761908 0)scale(0.996264)" xlink:href="#CMR17-48"/>
      </g>
     </g>
    </g>
    <g id="ytick_8">
     <g id="line2d_29">
      <path clip-path="url(#pcfb8e626e2)" d="M 72 87.12 
L 518.4 87.12 
" style="fill:none;stroke:#b0b0b0;stroke-dasharray:5.12,1.28,0.8,1.28;stroke-dashoffset:0;stroke-width:0.8;"/>
     </g>
     <g id="line2d_30">
      <g>
       <use style="stroke:#000000;stroke-width:0.8;" x="72" xlink:href="#md33a4221ac" y="87.12"/>
      </g>
     </g>
     <g id="text_16">
      <!-- $40000$ -->
      <g transform="translate(40.093324 90.579249)scale(0.1 -0.1)">
       <use transform="scale(0.996264)" xlink:href="#CMR17-52"/>
       <use transform="translate(45.690477 0)scale(0.996264)" xlink:href="#CMR17-48"/>
       <use transform="translate(91.380954 0)scale(0.996264)" xlink:href="#CMR17-48"/>
       <use transform="translate(137.071431 0)scale(0.996264)" xlink:href="#CMR17-48"/>
       <use transform="translate(182.761908 0)scale(0.996264)" xlink:href="#CMR17-48"/>
      </g>
     </g>
    </g>
    <g id="text_17">
     <!-- $\partial \mathcal{L}/ \partial \mu^{\overline{P}}_{m}$ -->
     <defs>
      <path d="M 45.40625 33.515625 
C 44.796875 39.125 41.296875 45.859375 32.296875 45.859375 
C 18.203125 45.859375 3.796875 31.515625 3.796875 15.5625 
C 3.796875 9.4375 8 -2.09375 21.59375 -2.09375 
C 45.203125 -2.09375 55.296875 32.296875 55.296875 46 
C 55.296875 60.40625 47.203125 71.5 34.40625 71.5 
C 19.90625 71.5 15.59375 58.796875 15.59375 56.09375 
C 15.59375 55.203125 16.203125 53 19 53 
C 22.5 53 24 56.203125 24 57.90625 
C 24 61 20.90625 61 19.59375 61 
C 23.703125 68.40625 31.296875 69.09375 34 69.09375 
C 42.796875 69.09375 48.40625 62.109375 48.40625 50.96875 
C 48.40625 44.578125 46.5 37.1875 45.5 33.515625 
z
M 21.90625 0.59375 
C 12.5 0.59375 10.90625 8.03125 10.90625 12.25 
C 10.90625 16.65625 13.703125 27 15.203125 30.703125 
C 16.5 33.71875 22.203125 43.859375 32.59375 43.859375 
C 41.703125 43.859375 43.796875 35.921875 43.796875 30.515625 
C 43.796875 23.078125 37.296875 0.59375 21.90625 0.59375 
z
" id="CMMI12-64"/>
      <path d="M 18 9.53125 
C 23.40625 17.984375 25.09375 24.40625 26.40625 29.734375 
C 29.90625 43.59375 33.703125 55.65625 39.90625 62.578125 
C 41.09375 63.90625 41.90625 64.796875 45.09375 64.796875 
C 52 64.796875 52.203125 57.875 52.203125 56.453125 
C 52.203125 54.65625 51.703125 53.234375 51.703125 52.734375 
C 51.703125 52.03125 52.296875 52.03125 52.40625 52.03125 
C 54 52.03125 56.703125 53.140625 59.203125 54.953125 
C 61 56.359375 61.90625 57.359375 61.90625 61.46875 
C 61.90625 66.890625 59.09375 71 53.5 71 
C 50.296875 71 41.5 70.203125 31.703125 60.25 
C 23.703125 52.015625 19 33.9375 17.09375 26.40625 
C 15.296875 19.5 14.5 16.375 11.5 10.34375 
C 10.796875 9.15625 8.203125 4.734375 6.796875 3.421875 
C 4.09375 0.921875 3.09375 -0.890625 3.09375 -1.390625 
C 3.09375 -1.59375 3.296875 -2 4 -2 
C 4.40625 -2 6.5 -1.59375 9.09375 0.078125 
C 10.796875 1.0625 11 1.25 13.296875 3.609375 
C 18.296875 3.609375 21.796875 2.703125 28.09375 0.90625 
C 33.203125 -0.5 38.296875 -2 43.40625 -2 
C 51.5 -2 59.703125 4.125 62.90625 8.53125 
C 64.90625 11.234375 65.5 13.75 65.5 14.046875 
C 65.5 14.75 64.90625 14.75 64.796875 14.75 
C 63.203125 14.75 60.796875 13.65625 59.09375 12.4375 
C 56.40625 10.734375 56.203125 10.140625 55.59375 8.421875 
C 55.09375 6.8125 54.5 6.015625 54.09375 5.40625 
C 53.296875 4.203125 53.203125 4.203125 51.703125 4.203125 
C 46.90625 4.203125 41.90625 5.71875 35.296875 7.515625 
C 32.5 8.3125 27 9.9375 22 9.9375 
C 20.703125 9.9375 19.296875 9.828125 18 9.53125 
z
" id="CMSY10-76"/>
      <path d="M 42.90625 71.28125 
C 42.90625 71.390625 43.5 72.90625 43.5 73.09375 
C 43.5 74.296875 42.5 75 41.703125 75 
C 41.203125 75 40.296875 75 39.5 72.796875 
L 6 -21.296875 
C 6 -21.40625 5.40625 -22.890625 5.40625 -23.09375 
C 5.40625 -24.296875 6.40625 -25 7.203125 -25 
C 7.796875 -25 8.703125 -24.890625 9.40625 -22.796875 
z
" id="CMMI12-61"/>
      <path d="M 14.40625 2.1875 
C 16.90625 -0.09375 20.59375 -1 24 -1 
C 30.40625 -1 34.796875 3.25 37.09375 6.328125 
C 38.09375 1.078125 42.296875 -1 45.796875 -1 
C 48.796875 -1 51.203125 0.78125 53 4.328125 
C 54.59375 7.703125 56 13.734375 56 14.109375 
C 56 14.609375 55.59375 15 55 15 
C 54.09375 15 54 14.5 53.59375 13.03125 
C 52.09375 7.203125 50.203125 1 46.09375 1 
C 43.203125 1 43 3.578125 43 5.59375 
C 43 7.875 43.90625 11.484375 44.59375 14.46875 
L 47.40625 25.234375 
C 47.796875 27.140625 48.90625 31.609375 49.40625 33.421875 
C 50 35.8125 51.09375 40.109375 51.09375 40.5 
C 51.09375 42 49.90625 43 48.40625 43 
C 47.5 43 45.40625 42.59375 44.59375 39.609375 
L 37.59375 11.875 
C 37.09375 9.875 37.09375 9.671875 35.796875 8.078125 
C 34.59375 6.390625 30.703125 1 24.40625 1 
C 18.796875 1 17 5.09375 17 9.765625 
C 17 12.671875 17.90625 16.15625 18.296875 17.859375 
L 22.796875 35.828125 
C 23.296875 37.71875 24.09375 40.90625 24.09375 41.515625 
C 24.09375 43.109375 22.796875 44 21.5 44 
C 20.59375 44 18.40625 43.703125 17.59375 40.5 
L 3.09375 -17.296875 
C 3 -17.796875 2.796875 -18.390625 2.796875 -19 
C 2.796875 -20.5 4 -21.5 5.5 -21.5 
C 8.40625 -21.5 9 -19.1875 9.703125 -16.40625 
z
" id="CMMI12-22"/>
      <path d="M 29.59375 31.609375 
L 46.40625 31.609375 
C 60.203125 31.609375 74 41.765625 74 53.140625 
C 74 60.90625 67.40625 68 54.796875 68 
L 23.90625 68 
C 22 68 21.09375 68 21.09375 66.109375 
C 21.09375 65.109375 22 65.109375 23.5 65.109375 
C 29.59375 65.109375 29.59375 64.3125 29.59375 63.21875 
C 29.59375 63.03125 29.59375 62.421875 29.203125 60.921875 
L 15.703125 7.375 
C 14.796875 3.890625 14.59375 2.890625 7.59375 2.890625 
C 5.703125 2.890625 4.703125 2.890625 4.703125 1.09375 
C 4.703125 0 5.59375 0 6.203125 0 
C 8.09375 0 10.09375 0 12 0 
L 23.703125 0 
C 25.59375 0 27.703125 0 29.59375 0 
C 30.40625 0 31.5 0 31.5 1.890625 
C 31.5 2.890625 30.59375 2.890625 29.09375 2.890625 
C 23.09375 2.890625 23 3.59375 23 4.578125 
C 23 5.078125 23.09375 5.765625 23.203125 6.265625 
z
M 36.796875 61.40625 
C 37.703125 65.109375 38.09375 65.109375 42 65.109375 
L 51.90625 65.109375 
C 59.40625 65.109375 65.59375 62.703125 65.59375 55.234375 
C 65.59375 52.640625 64.296875 44.171875 59.703125 39.59375 
C 58 37.796875 53.203125 34 44.09375 34 
L 30 34 
z
" id="CMMI12-80"/>
      <path d="M 20.59375 29.234375 
C 20.796875 29.84375 23.296875 34.828125 27 38.015625 
C 29.59375 40.40625 33 42.015625 36.90625 42.015625 
C 40.90625 42.015625 42.296875 39.015625 42.296875 35.03125 
C 42.296875 34.421875 42.296875 32.4375 41.09375 27.734375 
L 38.59375 17.46875 
C 37.796875 14.46875 35.90625 7.078125 35.703125 5.984375 
C 35.296875 4.484375 34.703125 1.890625 34.703125 1.5 
C 34.703125 0.09375 35.796875 -1 37.296875 -1 
C 40.296875 -1 40.796875 1.296875 41.703125 4.890625 
L 47.703125 28.734375 
C 47.90625 29.53125 53.09375 42.015625 64.09375 42.015625 
C 68.09375 42.015625 69.5 39.015625 69.5 35.03125 
C 69.5 29.4375 65.59375 18.5625 63.40625 12.578125 
C 62.5 10.171875 62 8.875 62 7.078125 
C 62 2.59375 65.09375 -1 69.90625 -1 
C 79.203125 -1 82.703125 13.671875 82.703125 14.265625 
C 82.703125 14.765625 82.296875 15.171875 81.703125 15.171875 
C 80.796875 15.171875 80.703125 14.875 80.203125 13.171875 
C 77.90625 5.1875 74.203125 1 70.203125 1 
C 69.203125 1 67.59375 1 67.59375 4.203125 
C 67.59375 6.8125 68.796875 10 69.203125 11.09375 
C 71 15.90625 75.5 27.703125 75.5 33.515625 
C 75.5 39.5 72 44 64.40625 44 
C 57.703125 44 52.296875 40.21875 48.296875 34.328125 
C 48 39.71875 44.703125 44 37.203125 44 
C 28.296875 44 23.59375 37.734375 21.796875 35.234375 
C 21.5 40.90625 17.40625 44 13 44 
C 10.09375 44 7.796875 42.609375 5.90625 38.8125 
C 4.09375 35.21875 2.703125 29.140625 2.703125 28.734375 
C 2.703125 28.34375 3.09375 27.84375 3.796875 27.84375 
C 4.59375 27.84375 4.703125 27.9375 5.296875 30.234375 
C 6.796875 36.125 8.703125 42.015625 12.703125 42.015625 
C 15 42.015625 15.796875 40.40625 15.796875 37.421875 
C 15.796875 35.21875 14.796875 31.328125 14.09375 28.234375 
L 11.296875 17.46875 
C 10.90625 15.5625 9.796875 11.078125 9.296875 9.28125 
C 8.59375 6.6875 7.5 2 7.5 1.5 
C 7.5 0.09375 8.59375 -1 10.09375 -1 
C 11.296875 -1 12.703125 -0.40625 13.5 1.09375 
C 13.703125 1.59375 14.59375 5.09375 15.09375 7.078125 
L 17.296875 16.0625 
z
" id="CMMI12-109"/>
     </defs>
     <g transform="translate(20.651216 242.881062)rotate(-90)scale(0.14 -0.14)">
      <use transform="translate(0 24.62935)scale(0.996264)" xlink:href="#CMMI12-64"/>
      <use transform="translate(56.915564 24.62935)scale(0.996264)" xlink:href="#CMSY10-76"/>
      <use transform="translate(125.630372 24.62935)scale(0.996264)" xlink:href="#CMMI12-61"/>
      <use transform="translate(174.405291 24.62935)scale(0.996264)" xlink:href="#CMMI12-64"/>
      <use transform="translate(231.320856 24.62935)scale(0.996264)" xlink:href="#CMMI12-22"/>
      <use transform="translate(290.012277 60.782989)scale(0.697382)" xlink:href="#CMMI12-80"/>
      <use transform="translate(290.012277 0)scale(0.697382)" xlink:href="#CMMI12-109"/>
      <path d="M 290.012277 116.805753 
L 344.008233 116.805753 
L 344.008233 119.595204 
L 290.012277 119.595204 
L 290.012277 116.805753 
z
"/>
     </g>
    </g>
   </g>
   <g id="line2d_31">
    <path clip-path="url(#pcfb8e626e2)" d="M 92.290909 167.76 
L 92.968402 187.92 
L 498.109091 187.92 
L 498.109091 187.92 
" style="fill:none;stroke:#bf00bf;stroke-linecap:square;stroke-width:1.5;"/>
   </g>
   <g id="line2d_32">
    <path clip-path="url(#pcfb8e626e2)" d="M 92.290909 167.76 
L 92.968402 228.24 
L 236.596874 228.24 
L 237.274366 227.191439 
L 237.951859 228.24 
L 238.629352 228.24 
L 239.306845 176.500667 
L 239.984338 176.11379 
L 240.66183 228.24 
L 241.339323 228.24 
L 242.016816 184.079495 
L 242.694309 167.76 
L 243.371801 182.892198 
L 244.049294 228.24 
L 245.40428 167.76 
L 246.081773 167.76 
L 246.759265 183.115302 
L 247.436758 167.76 
L 287.408833 167.76 
L 288.086326 228.24 
L 315.186037 228.24 
L 315.86353 211.260979 
L 316.541023 217.478818 
L 317.218516 228.24 
L 317.896008 208.657736 
L 318.573501 168.677267 
L 319.250994 205.745255 
L 319.928487 228.24 
L 320.60598 218.991868 
L 321.283472 167.76 
L 321.960965 167.76 
L 322.638458 183.172877 
L 323.315951 195.690973 
L 323.993444 167.76 
L 324.670936 167.76 
L 325.348429 182.779567 
L 326.025922 193.959586 
L 326.703415 167.76 
L 328.0584 167.76 
L 328.735893 186.821448 
L 329.413386 167.76 
L 330.090879 167.76 
L 330.768372 180.66125 
L 331.445864 189.350998 
L 332.123357 167.76 
L 332.80085 180.399207 
L 333.478343 228.24 
L 334.155835 228.24 
L 334.833328 167.76 
L 335.510821 228.24 
L 336.865807 228.24 
L 337.543299 188.966234 
L 338.220792 228.24 
L 339.575778 228.24 
L 340.253271 221.00947 
L 340.930763 228.24 
L 342.285749 228.24 
L 342.963242 228.124561 
L 343.640735 228.24 
L 344.318227 228.24 
L 344.99572 215.657731 
L 345.673213 228.24 
L 347.028199 228.24 
L 347.705691 213.927636 
L 348.383184 228.24 
L 349.73817 228.24 
L 350.415662 205.266081 
L 351.093155 228.24 
L 352.448141 228.24 
L 353.125634 177.531528 
L 353.803126 228.24 
L 355.158112 228.24 
L 355.835605 167.76 
L 356.513098 205.169177 
L 357.19059 228.24 
L 357.868083 228.24 
L 358.545576 167.76 
L 359.223069 212.028692 
L 359.900562 228.24 
L 360.578054 228.24 
L 361.255547 167.76 
L 361.93304 225.012686 
L 362.610533 228.24 
L 365.997997 228.24 
L 366.675489 198.595232 
L 367.352982 228.24 
L 368.030475 228.24 
L 368.707968 211.061117 
L 369.385461 186.843239 
L 370.062953 228.24 
L 370.740446 228.24 
L 371.417939 208.341577 
L 372.095432 193.382341 
L 372.772925 228.24 
L 373.450417 228.24 
L 374.12791 205.503841 
L 374.805403 207.676603 
L 375.482896 228.24 
L 376.160389 228.24 
L 376.837881 196.820101 
L 377.515374 223.230695 
L 378.192867 228.24 
L 378.87036 228.24 
L 379.547852 181.416049 
L 380.225345 228.24 
L 381.580331 228.24 
L 382.257824 192.583138 
L 382.935316 228.24 
L 384.290302 228.24 
L 384.967795 219.174304 
L 385.645288 228.24 
L 387.000273 228.24 
L 387.677766 181.661559 
L 388.355259 228.24 
L 389.710244 228.24 
L 390.387737 199.765508 
L 391.06523 228.24 
L 392.420216 228.24 
L 393.097708 179.136978 
L 393.775201 228.24 
L 395.130187 228.24 
L 395.807679 201.360855 
L 396.485172 228.24 
L 397.840158 228.24 
L 398.517651 186.994579 
L 399.195143 228.24 
L 400.550129 228.24 
L 401.227622 209.092698 
L 401.905115 228.24 
L 403.2601 228.24 
L 403.937593 193.870424 
L 404.615086 228.24 
L 405.970071 228.24 
L 406.647564 210.258466 
L 407.325057 228.24 
L 408.680042 228.24 
L 409.357535 191.641871 
L 410.035028 228.24 
L 411.390014 228.24 
L 412.067506 202.325652 
L 412.744999 228.24 
L 414.099985 228.24 
L 414.777478 184.424012 
L 415.45497 228.24 
L 416.809956 228.24 
L 417.487449 200.423175 
L 418.164942 228.24 
L 419.519927 228.24 
L 420.19742 175.313187 
L 420.874913 228.24 
L 422.229898 228.24 
L 422.907391 201.073358 
L 423.584884 228.24 
L 424.939869 228.24 
L 425.617362 170.685226 
L 426.294855 228.24 
L 427.649841 228.24 
L 428.327333 205.532635 
L 429.004826 228.24 
L 430.359812 228.24 
L 431.037305 177.068751 
L 431.714797 228.24 
L 433.069783 228.24 
L 433.747276 210.667205 
L 434.424769 228.24 
L 435.779754 228.24 
L 436.457247 183.043871 
L 437.13474 228.24 
L 438.489725 228.24 
L 439.167218 210.084116 
L 439.844711 228.24 
L 441.199696 228.24 
L 441.877189 183.914296 
L 442.554682 228.24 
L 443.909668 228.24 
L 444.58716 205.69404 
L 445.264653 228.24 
L 446.619639 228.24 
L 447.297132 181.041693 
L 447.974624 228.24 
L 449.32961 228.24 
L 450.007103 197.540889 
L 450.684596 228.24 
L 452.039581 228.24 
L 452.717074 173.228875 
L 453.394567 228.24 
L 454.749552 228.24 
L 455.427045 203.227551 
L 456.104538 228.24 
L 457.459523 228.24 
L 458.137016 171.351388 
L 458.814509 228.24 
L 460.169495 228.24 
L 460.846987 207.044824 
L 461.52448 228.24 
L 462.879466 228.24 
L 463.556959 177.618987 
L 464.234451 228.24 
L 465.589437 228.24 
L 466.26693 210.249928 
L 466.944423 228.24 
L 468.299408 228.24 
L 468.976901 181.450224 
L 469.654394 228.24 
L 471.009379 228.24 
L 471.686872 209.470602 
L 472.364365 228.24 
L 473.71935 228.24 
L 474.396843 183.486169 
L 475.074336 228.24 
L 476.429322 228.24 
L 477.106814 200.155196 
L 477.784307 228.24 
L 479.139293 228.24 
L 479.816786 177.665168 
L 480.494278 228.24 
L 481.849264 228.24 
L 482.526757 201.330241 
L 483.20425 228.24 
L 484.559235 228.24 
L 485.236728 173.07357 
L 485.914221 228.24 
L 487.269206 228.24 
L 487.946699 201.889864 
L 488.624192 228.24 
L 489.979177 228.24 
L 490.65667 174.400173 
L 491.334163 228.24 
L 492.689149 228.24 
L 493.366641 205.470434 
L 494.044134 228.24 
L 495.39912 228.24 
L 496.076613 180.912503 
L 496.754105 228.24 
L 498.109091 228.24 
L 498.109091 228.24 
" style="fill:none;stroke:#00bfbf;stroke-linecap:square;stroke-width:1.5;"/>
   </g>
   <g id="line2d_33">
    <path clip-path="url(#pcfb8e626e2)" d="M 92.290909 167.76 
L 92.968402 66.96 
L 93.645895 167.76 
L 498.109091 167.76 
L 498.109091 167.76 
" style="fill:none;stroke:#ff0000;stroke-linecap:square;stroke-width:1.5;"/>
   </g>
   <g id="line2d_34">
    <path clip-path="url(#pcfb8e626e2)" d="M 92.290909 167.76 
L 92.968402 369.36 
L 201.367248 369.36 
L 202.044741 359.506365 
L 202.722234 338.013479 
L 204.07722 308.336819 
L 204.754712 298.264294 
L 206.109698 284.445594 
L 206.787191 276.707646 
L 207.464684 271.518191 
L 208.142176 268.368722 
L 209.497162 257.804415 
L 210.174655 255.349478 
L 210.852148 254.357506 
L 212.207133 246.80524 
L 212.884626 246.942136 
L 213.562119 247.726789 
L 214.239611 245.030769 
L 214.917104 243.08294 
L 215.594597 245.796108 
L 216.27209 248.026019 
L 216.949583 246.188884 
L 217.627075 246.320721 
L 218.304568 251.492356 
L 218.982061 254.754718 
L 219.659554 253.637889 
L 220.337047 254.611796 
L 221.014539 260.077746 
L 221.692032 262.416929 
L 222.369525 259.776739 
L 223.047018 260.761954 
L 223.724511 266.352359 
L 224.402003 267.251391 
L 225.079496 263.577294 
L 225.756989 265.311098 
L 226.434482 271.092068 
L 227.111975 270.438478 
L 227.789467 266.083583 
L 228.46696 268.936401 
L 229.144453 274.738565 
L 229.821946 272.378661 
L 230.499438 267.735234 
L 231.176931 271.996504 
L 231.854424 277.533798 
L 233.20941 268.858214 
L 233.886902 274.728491 
L 234.564395 279.615957 
L 235.241888 273.520501 
L 235.919381 269.710194 
L 236.596874 277.285145 
L 237.274366 281.056525 
L 237.951859 273.082924 
L 238.629352 270.26053 
L 239.306845 279.585234 
L 239.984338 282.008141 
L 240.66183 260.248176 
L 241.339323 250.864527 
L 242.694309 282.754865 
L 244.049294 235.31739 
L 244.726787 246.25333 
L 245.40428 275.147166 
L 246.081773 264.217487 
L 246.759265 228.744673 
L 247.436758 237.70562 
L 248.114251 262.014682 
L 248.791744 252.553534 
L 249.469237 214.935425 
L 250.146729 221.805503 
L 250.824222 240.617725 
L 251.501715 239.221484 
L 252.179208 216.552877 
L 252.856701 223.133296 
L 253.534193 248.060341 
L 254.211686 240.562117 
L 254.889179 216.035106 
L 255.566672 226.13775 
L 256.244165 250.448257 
L 256.921657 238.323212 
L 257.59915 214.327114 
L 258.276643 228.604896 
L 258.954136 251.786797 
L 259.631628 235.653001 
L 260.309121 213.308817 
L 260.986614 225.659005 
L 261.664107 248.253921 
L 262.3416 235.468678 
L 263.019092 214.432301 
L 263.696585 229.357322 
L 264.374078 249.754503 
L 265.051571 233.940204 
L 265.729064 214.943868 
L 266.406556 228.217014 
L 267.084049 245.063622 
L 268.439035 213.47121 
L 269.116528 225.215439 
L 269.79402 232.43581 
L 270.471513 214.249702 
L 271.149006 207.441181 
L 271.826499 220.482535 
L 272.503992 217.752685 
L 273.181484 202.120694 
L 273.858977 205.049241 
L 274.53647 214.708952 
L 275.891455 197.550339 
L 276.568948 205.918083 
L 277.246441 210.037834 
L 277.923934 200.673036 
L 278.601427 199.718617 
L 279.278919 209.023782 
L 279.956412 208.326545 
L 280.633905 201.916227 
L 281.311398 206.754179 
L 281.988891 213.927544 
L 282.666383 210.789955 
L 283.343876 209.089232 
L 284.021369 216.681519 
L 284.698862 220.61956 
L 285.376355 217.658189 
L 286.053847 220.395203 
L 286.73134 227.935869 
L 287.408833 229.167718 
L 288.086326 228.201103 
L 288.763818 234.585472 
L 289.441311 252.499904 
L 290.118804 263.571763 
L 290.796297 266.828485 
L 292.151282 290.963349 
L 292.828775 291.275391 
L 293.506268 287.637708 
L 294.861254 300.873543 
L 295.538746 296.598521 
L 296.216239 291.047517 
L 297.571225 299.247037 
L 298.92621 286.598724 
L 299.603703 290.280533 
L 300.281196 291.796256 
L 300.958689 283.697957 
L 301.636182 278.269813 
L 302.313674 281.783647 
L 302.991167 281.728867 
L 303.66866 274.098552 
L 304.346153 273.099703 
L 305.023645 280.408531 
L 305.701138 281.960011 
L 306.378631 275.639582 
L 307.056124 275.485755 
L 307.733617 282.311903 
L 308.411109 282.269969 
L 309.088602 275.868846 
L 309.766095 276.809479 
L 310.443588 283.299977 
L 311.121081 282.011752 
L 311.798573 275.923441 
L 312.476066 277.963337 
L 313.153559 283.969333 
L 313.831052 281.582035 
L 314.508545 276.020363 
L 315.186037 279.043072 
L 315.86353 284.39794 
L 316.541023 281.06144 
L 317.218516 272.83335 
L 317.896008 275.353753 
L 318.573501 284.244373 
L 319.250994 278.101769 
L 319.928487 259.441751 
L 320.60598 265.732529 
L 321.283472 287.192712 
L 321.960965 280.681979 
L 322.638458 249.643615 
L 323.315951 247.504798 
L 323.993444 270.19394 
L 324.670936 272.477687 
L 325.348429 244.643112 
L 326.025922 240.290625 
L 326.703415 258.277499 
L 327.380908 261.79076 
L 328.0584 237.0184 
L 328.735893 230.293308 
L 329.413386 246.489759 
L 330.090879 244.586389 
L 330.768372 222.85212 
L 331.445864 221.525063 
L 332.123357 236.423052 
L 332.80085 231.426229 
L 333.478343 213.684119 
L 334.155835 220.515293 
L 334.833328 241.466075 
L 335.510821 239.263649 
L 336.188314 221.024487 
L 336.865807 234.00336 
L 337.543299 256.035801 
L 338.220792 248.37958 
L 338.898285 234.752848 
L 340.253271 267.241928 
L 340.930763 257.914931 
L 341.608256 254.3735 
L 342.285749 273.116155 
L 342.963242 280.23187 
L 343.640735 267.271177 
L 344.318227 270.414101 
L 344.99572 289.333379 
L 345.673213 289.688583 
L 346.350706 272.336448 
L 347.028199 276.122732 
L 347.705691 294.557323 
L 348.383184 290.794238 
L 349.060677 271.128947 
L 349.73817 276.948729 
L 350.415662 295.71601 
L 351.093155 288.490383 
L 351.770648 265.840037 
L 352.448141 274.460822 
L 353.125634 295.381439 
L 353.803126 284.918717 
L 354.480619 254.753065 
L 355.158112 261.508347 
L 355.835605 287.565763 
L 356.513098 282.2361 
L 357.19059 248.188906 
L 357.868083 253.694664 
L 358.545576 277.215545 
L 359.223069 271.548355 
L 359.900562 242.528053 
L 360.578054 248.181853 
L 361.255547 276.665471 
L 361.93304 268.664203 
L 362.610533 236.06788 
L 363.288025 229.780497 
L 363.965518 244.30002 
L 364.643011 247.602074 
L 365.320504 240.077517 
L 365.997997 247.125247 
L 366.675489 259.242058 
L 367.352982 256.345285 
L 368.030475 247.612801 
L 369.385461 268.533725 
L 370.740446 249.56493 
L 371.417939 264.645327 
L 372.095432 274.244304 
L 372.772925 259.458333 
L 373.450417 253.460261 
L 374.12791 272.296319 
L 374.805403 277.883205 
L 375.482896 258.994658 
L 376.160389 258.695521 
L 376.837881 280.810128 
L 377.515374 280.710501 
L 378.192867 257.459016 
L 378.87036 264.054135 
L 379.547852 289.24618 
L 380.225345 282.025993 
L 380.902838 253.742854 
L 381.580331 259.354739 
L 382.257824 288.156059 
L 382.935316 281.002318 
L 383.612809 251.533083 
L 384.290302 254.913455 
L 384.967795 281.114314 
L 385.645288 276.822985 
L 386.32278 255.665492 
L 387.000273 267.382499 
L 387.677766 290.297583 
L 388.355259 278.172488 
L 389.032752 253.09181 
L 389.710244 258.009466 
L 390.387737 283.298129 
L 391.06523 277.018769 
L 391.742723 252.747339 
L 392.420216 261.645482 
L 393.097708 286.839207 
L 393.775201 276.594335 
L 394.452694 249.122469 
L 395.130187 250.951366 
L 395.807679 278.487429 
L 396.485172 274.149521 
L 397.162665 248.333615 
L 397.840158 254.522505 
L 398.517651 281.596976 
L 399.195143 273.282797 
L 399.872636 246.20351 
L 400.550129 247.578788 
L 401.227622 275.368796 
L 401.905115 271.355476 
L 402.582607 247.809689 
L 403.2601 255.338134 
L 403.937593 280.86587 
L 404.615086 271.688708 
L 405.292579 248.430657 
L 405.970071 253.22006 
L 406.647564 277.866203 
L 407.325057 271.447957 
L 408.00255 251.953034 
L 408.680042 263.297979 
L 409.357535 284.97151 
L 410.035028 273.148223 
L 410.712521 253.531773 
L 411.390014 262.322259 
L 412.067506 283.20421 
L 412.744999 273.886603 
L 413.422492 256.450057 
L 414.099985 270.161756 
L 414.777478 288.610188 
L 415.45497 274.344435 
L 416.132463 255.059196 
L 416.809956 263.662107 
L 417.487449 284.002619 
L 418.164942 275.276821 
L 418.842434 257.374891 
L 419.519927 271.15812 
L 420.19742 289.649528 
L 420.874913 275.016571 
L 421.552406 253.252683 
L 422.229898 258.86088 
L 422.907391 281.141566 
L 423.584884 274.628653 
L 424.262377 254.484032 
L 424.939869 266.946706 
L 425.617362 288.195925 
L 426.294855 274.734681 
L 426.972348 250.336523 
L 427.649841 252.798989 
L 428.327333 277.259899 
L 429.004826 272.699965 
L 429.682319 251.396287 
L 430.359812 262.22735 
L 431.037305 285.216019 
L 431.714797 273.128688 
L 432.39229 249.06413 
L 433.069783 251.652196 
L 433.747276 276.18979 
L 434.424769 271.434355 
L 435.102261 251.661879 
L 435.779754 263.487831 
L 436.457247 285.379693 
L 437.13474 272.722103 
L 437.812233 251.378584 
L 438.489725 256.883356 
L 439.167218 279.091828 
L 439.844711 272.258888 
L 440.522204 255.005667 
L 441.199696 268.761916 
L 441.877189 287.657269 
L 442.554682 273.337685 
L 443.232175 254.268223 
L 443.909668 262.285111 
L 444.58716 282.413548 
L 445.264653 274.03456 
L 445.942146 257.768319 
L 446.619639 271.682634 
L 447.297132 288.921998 
L 447.974624 274.407832 
L 448.652117 255.241769 
L 449.32961 263.898397 
L 450.007103 283.961226 
L 450.684596 275.084937 
L 451.362088 256.89514 
L 452.039581 270.627989 
L 452.717074 289.308083 
L 453.394567 274.561178 
L 454.072059 252.496074 
L 454.749552 257.208096 
L 455.427045 279.664687 
L 456.104538 273.732384 
L 456.782031 253.975169 
L 457.459523 266.530766 
L 458.137016 287.611962 
L 458.814509 274.061296 
L 459.492002 250.346613 
L 460.169495 253.120709 
L 460.846987 276.974039 
L 461.52448 272.129959 
L 462.201973 252.007124 
L 462.879466 263.765142 
L 463.556959 285.716046 
L 464.234451 272.931833 
L 464.911944 250.27389 
L 465.589437 254.074743 
L 466.26693 277.276041 
L 466.944423 271.635205 
L 467.621915 253.275018 
L 468.299408 266.463694 
L 468.976901 286.76107 
L 469.654394 272.901265 
L 470.331886 252.642158 
L 471.009379 258.930017 
L 471.686872 280.040523 
L 472.364365 272.766125 
L 473.041858 256.425512 
L 473.71935 270.139654 
L 474.396843 287.943096 
L 475.074336 273.713868 
L 475.751829 255.16981 
L 476.429322 264.234589 
L 477.106814 283.814817 
L 477.784307 274.551636 
L 478.4618 257.698091 
L 479.139293 271.91613 
L 479.816786 289.340115 
L 480.494278 274.271025 
L 481.171771 254.23449 
L 481.849264 261.249554 
L 482.526757 282.01825 
L 483.20425 274.46692 
L 483.881742 256.210878 
L 484.559235 269.399051 
L 485.236728 288.53594 
L 485.914221 274.41411 
L 486.591713 252.184599 
L 487.269206 256.925241 
L 487.946699 279.475037 
L 488.624192 273.29973 
L 489.301685 253.34924 
L 489.979177 265.281821 
L 490.65667 286.691966 
L 491.334163 273.796511 
L 492.011656 250.685732 
L 492.689149 254.400493 
L 493.366641 277.779429 
L 494.044134 272.076369 
L 494.721627 252.349238 
L 495.39912 263.981996 
L 496.076613 285.509687 
L 496.754105 272.943465 
L 497.431598 251.379422 
L 498.109091 256.724504 
L 498.109091 256.724504 
" style="fill:none;stroke:#008000;stroke-linecap:square;stroke-width:1.5;"/>
   </g>
   <g id="patch_3">
    <path d="M 72 384.48 
L 72 51.84 
" style="fill:none;stroke:#000000;stroke-linecap:square;stroke-linejoin:miter;stroke-width:0.8;"/>
   </g>
   <g id="patch_4">
    <path d="M 518.4 384.48 
L 518.4 51.84 
" style="fill:none;stroke:#000000;stroke-linecap:square;stroke-linejoin:miter;stroke-width:0.8;"/>
   </g>
   <g id="patch_5">
    <path d="M 72 384.48 
L 518.4 384.48 
" style="fill:none;stroke:#000000;stroke-linecap:square;stroke-linejoin:miter;stroke-width:0.8;"/>
   </g>
   <g id="patch_6">
    <path d="M 72 51.84 
L 518.4 51.84 
" style="fill:none;stroke:#000000;stroke-linecap:square;stroke-linejoin:miter;stroke-width:0.8;"/>
   </g>
   <g id="text_18">
    <!-- $\partial \mathcal{L}/ \partial \mu^{\overline{P}}_{m}$ -->
    <g transform="translate(270.478938 45.84)scale(0.14 -0.14)">
     <use transform="translate(0 24.62935)scale(0.996264)" xlink:href="#CMMI12-64"/>
     <use transform="translate(56.915564 24.62935)scale(0.996264)" xlink:href="#CMSY10-76"/>
     <use transform="translate(125.630372 24.62935)scale(0.996264)" xlink:href="#CMMI12-61"/>
     <use transform="translate(174.405291 24.62935)scale(0.996264)" xlink:href="#CMMI12-64"/>
     <use transform="translate(231.320856 24.62935)scale(0.996264)" xlink:href="#CMMI12-22"/>
     <use transform="translate(290.012277 60.782989)scale(0.697382)" xlink:href="#CMMI12-80"/>
     <use transform="translate(290.012277 0)scale(0.697382)" xlink:href="#CMMI12-109"/>
     <path d="M 290.012277 116.805753 
L 344.008233 116.805753 
L 344.008233 119.595204 
L 290.012277 119.595204 
L 290.012277 116.805753 
z
"/>
    </g>
   </g>
   <g id="legend_1">
    <g id="patch_7">
     <path d="M 443.216079 127.788976 
L 511.4 127.788976 
Q 513.4 127.788976 513.4 125.788976 
L 513.4 58.84 
Q 513.4 56.84 511.4 56.84 
L 443.216079 56.84 
Q 441.216079 56.84 441.216079 58.84 
L 441.216079 125.788976 
Q 441.216079 127.788976 443.216079 127.788976 
z
" style="fill:#ffffff;opacity:0.8;stroke:#cccccc;stroke-linejoin:miter;"/>
    </g>
    <g id="line2d_35">
     <path d="M 445.216079 67.390066 
L 465.216079 67.390066 
" style="fill:none;stroke:#bf00bf;stroke-linecap:square;stroke-width:1.5;"/>
    </g>
    <g id="line2d_36"/>
    <g id="text_19">
     <!-- $\partial \mathcal{L}/ \partial \mu^{\overline{P}}_{1}$ -->
     <g transform="translate(473.216079 70.890066)scale(0.1 -0.1)">
      <use transform="translate(0 24.740171)scale(0.996264)" xlink:href="#CMMI12-64"/>
      <use transform="translate(56.915564 24.740171)scale(0.996264)" xlink:href="#CMSY10-76"/>
      <use transform="translate(125.630372 24.740171)scale(0.996264)" xlink:href="#CMMI12-61"/>
      <use transform="translate(174.405291 24.740171)scale(0.996264)" xlink:href="#CMMI12-64"/>
      <use transform="translate(231.320856 24.740171)scale(0.996264)" xlink:href="#CMMI12-22"/>
      <use transform="translate(290.012277 60.89381)scale(0.697382)" xlink:href="#CMMI12-80"/>
      <use transform="translate(290.012277 0)scale(0.697382)" xlink:href="#CMR17-49"/>
      <path d="M 290.012277 116.916574 
L 344.008233 116.916574 
L 344.008233 119.706025 
L 290.012277 119.706025 
L 290.012277 116.916574 
z
"/>
     </g>
    </g>
    <g id="line2d_37">
     <path d="M 445.216079 84.377309 
L 465.216079 84.377309 
" style="fill:none;stroke:#00bfbf;stroke-linecap:square;stroke-width:1.5;"/>
    </g>
    <g id="line2d_38"/>
    <g id="text_20">
     <!-- $\partial \mathcal{L}/ \partial \mu^{\overline{P}}_{2}$ -->
     <g transform="translate(473.216079 87.877309)scale(0.1 -0.1)">
      <use transform="translate(0 24.740171)scale(0.996264)" xlink:href="#CMMI12-64"/>
      <use transform="translate(56.915564 24.740171)scale(0.996264)" xlink:href="#CMSY10-76"/>
      <use transform="translate(125.630372 24.740171)scale(0.996264)" xlink:href="#CMMI12-61"/>
      <use transform="translate(174.405291 24.740171)scale(0.996264)" xlink:href="#CMMI12-64"/>
      <use transform="translate(231.320856 24.740171)scale(0.996264)" xlink:href="#CMMI12-22"/>
      <use transform="translate(290.012277 60.89381)scale(0.697382)" xlink:href="#CMMI12-80"/>
      <use transform="translate(290.012277 0)scale(0.697382)" xlink:href="#CMR17-50"/>
      <path d="M 290.012277 116.916574 
L 344.008233 116.916574 
L 344.008233 119.706025 
L 290.012277 119.706025 
L 290.012277 116.916574 
z
"/>
     </g>
    </g>
    <g id="line2d_39">
     <path d="M 445.216079 101.364553 
L 465.216079 101.364553 
" style="fill:none;stroke:#ff0000;stroke-linecap:square;stroke-width:1.5;"/>
    </g>
    <g id="line2d_40"/>
    <g id="text_21">
     <!-- $\partial \mathcal{L}/ \partial \mu^{\overline{P}}_{3}$ -->
     <g transform="translate(473.216079 104.864553)scale(0.1 -0.1)">
      <use transform="translate(0 24.740171)scale(0.996264)" xlink:href="#CMMI12-64"/>
      <use transform="translate(56.915564 24.740171)scale(0.996264)" xlink:href="#CMSY10-76"/>
      <use transform="translate(125.630372 24.740171)scale(0.996264)" xlink:href="#CMMI12-61"/>
      <use transform="translate(174.405291 24.740171)scale(0.996264)" xlink:href="#CMMI12-64"/>
      <use transform="translate(231.320856 24.740171)scale(0.996264)" xlink:href="#CMMI12-22"/>
      <use transform="translate(290.012277 60.89381)scale(0.697382)" xlink:href="#CMMI12-80"/>
      <use transform="translate(290.012277 0)scale(0.697382)" xlink:href="#CMR17-51"/>
      <path d="M 290.012277 116.916574 
L 344.008233 116.916574 
L 344.008233 119.706025 
L 290.012277 119.706025 
L 290.012277 116.916574 
z
"/>
     </g>
    </g>
    <g id="line2d_41">
     <path d="M 445.216079 118.351797 
L 465.216079 118.351797 
" style="fill:none;stroke:#008000;stroke-linecap:square;stroke-width:1.5;"/>
    </g>
    <g id="line2d_42"/>
    <g id="text_22">
     <!-- $\partial \mathcal{L}/ \partial \mu^{\overline{P}}_{4}$ -->
     <g transform="translate(473.216079 121.851797)scale(0.1 -0.1)">
      <use transform="translate(0 24.740171)scale(0.996264)" xlink:href="#CMMI12-64"/>
      <use transform="translate(56.915564 24.740171)scale(0.996264)" xlink:href="#CMSY10-76"/>
      <use transform="translate(125.630372 24.740171)scale(0.996264)" xlink:href="#CMMI12-61"/>
      <use transform="translate(174.405291 24.740171)scale(0.996264)" xlink:href="#CMMI12-64"/>
      <use transform="translate(231.320856 24.740171)scale(0.996264)" xlink:href="#CMMI12-22"/>
      <use transform="translate(290.012277 60.89381)scale(0.697382)" xlink:href="#CMMI12-80"/>
      <use transform="translate(290.012277 0)scale(0.697382)" xlink:href="#CMR17-52"/>
      <path d="M 290.012277 116.916574 
L 344.008233 116.916574 
L 344.008233 119.706025 
L 290.012277 119.706025 
L 290.012277 116.916574 
z
"/>
     </g>
    </g>
   </g>
  </g>
 </g>
 <defs>
  <clipPath id="pcfb8e626e2">
   <rect height="332.64" width="446.4" x="72" y="51.84"/>
  </clipPath>
 </defs>
</svg>
