<?xml version="1.0" encoding="utf-8" standalone="no"?>
<!DOCTYPE svg PUBLIC "-//W3C//DTD SVG 1.1//EN"
  "http://www.w3.org/Graphics/SVG/1.1/DTD/svg11.dtd">
<!-- Created with matplotlib (http://matplotlib.org/) -->
<svg height="432pt" version="1.1" viewBox="0 0 576 432" width="576pt" xmlns="http://www.w3.org/2000/svg" xmlns:xlink="http://www.w3.org/1999/xlink">
 <defs>
  <style type="text/css">
*{stroke-linecap:butt;stroke-linejoin:round;}
  </style>
 </defs>
 <g id="figure_1">
  <g id="patch_1">
   <path d="M 0 432 
L 576 432 
L 576 0 
L 0 0 
z
" style="fill:#ffffff;"/>
  </g>
  <g id="axes_1">
   <g id="patch_2">
    <path d="M 72 384.48 
L 518.4 384.48 
L 518.4 51.84 
L 72 51.84 
z
" style="fill:#ffffff;"/>
   </g>
   <g id="matplotlib.axis_1">
    <g id="xtick_1">
     <g id="line2d_1">
      <path clip-path="url(#pbf85051a37)" d="M 92.290909 384.48 
L 92.290909 51.84 
" style="fill:none;stroke:#b0b0b0;stroke-dasharray:5.12,1.28,0.8,1.28;stroke-dashoffset:0;stroke-width:0.8;"/>
     </g>
     <g id="line2d_2">
      <defs>
       <path d="M 0 0 
L 0 3.5 
" id="m5bbd5e9ce6" style="stroke:#000000;stroke-width:0.8;"/>
      </defs>
      <g>
       <use style="stroke:#000000;stroke-width:0.8;" x="92.290909" xlink:href="#m5bbd5e9ce6" y="384.48"/>
      </g>
     </g>
     <g id="text_1">
      <!-- $0$ -->
      <defs>
       <path d="M 42 31.640625 
C 42 37.75 41.90625 48.125 37.703125 56.109375 
C 34 63.109375 28.09375 65.59375 22.90625 65.59375 
C 18.09375 65.59375 12 63.40625 8.203125 56.203125 
C 4.203125 48.71875 3.796875 39.4375 3.796875 31.640625 
C 3.796875 25.953125 3.90625 17.28125 7 9.671875 
C 11.296875 -0.609375 19 -2 22.90625 -2 
C 27.5 -2 34.5 -0.109375 38.59375 9.375 
C 41.59375 16.28125 42 24.359375 42 31.640625 
z
M 22.90625 -0.40625 
C 16.5 -0.40625 12.703125 5.078125 11.296875 12.6875 
C 10.203125 18.5625 10.203125 27.15625 10.203125 32.75 
C 10.203125 40.4375 10.203125 46.828125 11.5 52.921875 
C 13.40625 61.390625 19 64 22.90625 64 
C 27 64 32.296875 61.296875 34.203125 53.125 
C 35.5 47.4375 35.59375 40.734375 35.59375 32.75 
C 35.59375 26.25 35.59375 18.265625 34.40625 12.375 
C 32.296875 1.484375 26.40625 -0.40625 22.90625 -0.40625 
z
" id="CMR17-48"/>
      </defs>
      <g transform="translate(89.800241 398.398498)scale(0.1 -0.1)">
       <use transform="scale(0.996264)" xlink:href="#CMR17-48"/>
      </g>
     </g>
    </g>
    <g id="xtick_2">
     <g id="line2d_3">
      <path clip-path="url(#pbf85051a37)" d="M 160.040188 384.48 
L 160.040188 51.84 
" style="fill:none;stroke:#b0b0b0;stroke-dasharray:5.12,1.28,0.8,1.28;stroke-dashoffset:0;stroke-width:0.8;"/>
     </g>
     <g id="line2d_4">
      <g>
       <use style="stroke:#000000;stroke-width:0.8;" x="160.040188" xlink:href="#m5bbd5e9ce6" y="384.48"/>
      </g>
     </g>
     <g id="text_2">
      <!-- $100$ -->
      <defs>
       <path d="M 26.59375 63.40625 
C 26.59375 65.5 26.5 65.5 25.09375 65.5 
C 21.203125 61.1875 15.296875 59.796875 9.703125 59.796875 
C 9.40625 59.796875 8.90625 59.796875 8.796875 59.5 
C 8.703125 59.296875 8.703125 59.09375 8.703125 57 
C 11.796875 57 17 57.59375 21 59.984375 
L 21 7.203125 
C 21 3.6875 20.796875 2.5 12.203125 2.5 
L 9.203125 2.5 
L 9.203125 0 
C 14 0 19 0 23.796875 0 
C 28.59375 0 33.59375 0 38.40625 0 
L 38.40625 2.5 
L 35.40625 2.5 
C 26.796875 2.5 26.59375 3.59375 26.59375 7.15625 
z
" id="CMR17-49"/>
      </defs>
      <g transform="translate(152.568185 398.398498)scale(0.1 -0.1)">
       <use transform="scale(0.996264)" xlink:href="#CMR17-49"/>
       <use transform="translate(45.690477 0)scale(0.996264)" xlink:href="#CMR17-48"/>
       <use transform="translate(91.380954 0)scale(0.996264)" xlink:href="#CMR17-48"/>
      </g>
     </g>
    </g>
    <g id="xtick_3">
     <g id="line2d_5">
      <path clip-path="url(#pbf85051a37)" d="M 227.789467 384.48 
L 227.789467 51.84 
" style="fill:none;stroke:#b0b0b0;stroke-dasharray:5.12,1.28,0.8,1.28;stroke-dashoffset:0;stroke-width:0.8;"/>
     </g>
     <g id="line2d_6">
      <g>
       <use style="stroke:#000000;stroke-width:0.8;" x="227.789467" xlink:href="#m5bbd5e9ce6" y="384.48"/>
      </g>
     </g>
     <g id="text_3">
      <!-- $200$ -->
      <defs>
       <path d="M 41.703125 15.453125 
L 39.90625 15.453125 
C 38.90625 8.375 38.09375 7.171875 37.703125 6.5625 
C 37.203125 5.765625 30 5.765625 28.59375 5.765625 
L 9.40625 5.765625 
C 13 9.671875 20 16.75 28.5 24.953125 
C 34.59375 30.734375 41.703125 37.53125 41.703125 47.421875 
C 41.703125 59.21875 32.296875 66 21.796875 66 
C 10.796875 66 4.09375 56.3125 4.09375 47.34375 
C 4.09375 43.4375 7 42.9375 8.203125 42.9375 
C 9.203125 42.9375 12.203125 43.546875 12.203125 47.03125 
C 12.203125 50.109375 9.59375 51 8.203125 51 
C 7.59375 51 7 50.90625 6.59375 50.703125 
C 8.5 59.21875 14.296875 63.40625 20.40625 63.40625 
C 29.09375 63.40625 34.796875 56.515625 34.796875 47.421875 
C 34.796875 38.734375 29.703125 31.25 24 24.75 
L 4.09375 2.28125 
L 4.09375 0 
L 39.296875 0 
z
" id="CMR17-50"/>
      </defs>
      <g transform="translate(220.317464 398.398498)scale(0.1 -0.1)">
       <use transform="scale(0.996264)" xlink:href="#CMR17-50"/>
       <use transform="translate(45.690477 0)scale(0.996264)" xlink:href="#CMR17-48"/>
       <use transform="translate(91.380954 0)scale(0.996264)" xlink:href="#CMR17-48"/>
      </g>
     </g>
    </g>
    <g id="xtick_4">
     <g id="line2d_7">
      <path clip-path="url(#pbf85051a37)" d="M 295.538746 384.48 
L 295.538746 51.84 
" style="fill:none;stroke:#b0b0b0;stroke-dasharray:5.12,1.28,0.8,1.28;stroke-dashoffset:0;stroke-width:0.8;"/>
     </g>
     <g id="line2d_8">
      <g>
       <use style="stroke:#000000;stroke-width:0.8;" x="295.538746" xlink:href="#m5bbd5e9ce6" y="384.48"/>
      </g>
     </g>
     <g id="text_4">
      <!-- $300$ -->
      <defs>
       <path d="M 22.09375 33.703125 
C 31 33.703125 34.90625 25.96875 34.90625 17.03125 
C 34.90625 5 28.5 0.390625 22.703125 0.390625 
C 17.40625 0.390625 8.796875 3.03125 6.09375 10.828125 
C 6.59375 10.625 7.09375 10.625 7.59375 10.625 
C 10 10.625 11.796875 12.21875 11.796875 14.8125 
C 11.796875 17.703125 9.59375 19 7.59375 19 
C 5.90625 19 3.296875 18.203125 3.296875 14.46875 
C 3.296875 5.234375 12.296875 -2 22.90625 -2 
C 34 -2 42.5 6.71875 42.5 16.953125 
C 42.5 26.671875 34.5 33.703125 25 34.796875 
C 32.59375 36.375 39.90625 43.0625 39.90625 52.015625 
C 39.90625 59.6875 32 65.296875 23 65.296875 
C 13.90625 65.296875 5.90625 59.828125 5.90625 52.015625 
C 5.90625 48.59375 8.5 48 9.796875 48 
C 11.90625 48 13.703125 49.296875 13.703125 51.890625 
C 13.703125 54.46875 11.90625 55.765625 9.796875 55.765625 
C 9.40625 55.765625 8.90625 55.765625 8.5 55.578125 
C 11.40625 61.859375 19.296875 63 22.796875 63 
C 26.296875 63 32.90625 61.328125 32.90625 51.875 
C 32.90625 49.109375 32.5 44.1875 29.09375 39.84375 
C 26.09375 36 22.703125 36 19.40625 35.6875 
C 18.90625 35.6875 16.59375 35.453125 16.203125 35.453125 
C 15.5 35.359375 15.09375 35.265625 15.09375 34.5 
C 15.09375 33.796875 15.203125 33.703125 17.203125 33.703125 
z
" id="CMR17-51"/>
      </defs>
      <g transform="translate(288.066744 398.398498)scale(0.1 -0.1)">
       <use transform="scale(0.996264)" xlink:href="#CMR17-51"/>
       <use transform="translate(45.690477 0)scale(0.996264)" xlink:href="#CMR17-48"/>
       <use transform="translate(91.380954 0)scale(0.996264)" xlink:href="#CMR17-48"/>
      </g>
     </g>
    </g>
    <g id="xtick_5">
     <g id="line2d_9">
      <path clip-path="url(#pbf85051a37)" d="M 363.288025 384.48 
L 363.288025 51.84 
" style="fill:none;stroke:#b0b0b0;stroke-dasharray:5.12,1.28,0.8,1.28;stroke-dashoffset:0;stroke-width:0.8;"/>
     </g>
     <g id="line2d_10">
      <g>
       <use style="stroke:#000000;stroke-width:0.8;" x="363.288025" xlink:href="#m5bbd5e9ce6" y="384.48"/>
      </g>
     </g>
     <g id="text_5">
      <!-- $400$ -->
      <defs>
       <path d="M 33.59375 64.40625 
C 33.59375 66.5 33.5 66.5 31.703125 66.5 
L 2 19.59375 
L 2 17 
L 27.796875 17 
L 27.796875 7.140625 
C 27.796875 3.5 27.59375 2.5 20.59375 2.5 
L 18.703125 2.5 
L 18.703125 0 
C 21.90625 0 27.296875 0 30.703125 0 
C 34.09375 0 39.5 0 42.703125 0 
L 42.703125 2.5 
L 40.796875 2.5 
C 33.796875 2.5 33.59375 3.5 33.59375 7.140625 
L 33.59375 17 
L 43.796875 17 
L 43.796875 19.59375 
L 33.59375 19.59375 
z
M 28.09375 57.859375 
L 28.09375 19.59375 
L 4 19.59375 
z
" id="CMR17-52"/>
      </defs>
      <g transform="translate(355.816023 398.398498)scale(0.1 -0.1)">
       <use transform="scale(0.996264)" xlink:href="#CMR17-52"/>
       <use transform="translate(45.690477 0)scale(0.996264)" xlink:href="#CMR17-48"/>
       <use transform="translate(91.380954 0)scale(0.996264)" xlink:href="#CMR17-48"/>
      </g>
     </g>
    </g>
    <g id="xtick_6">
     <g id="line2d_11">
      <path clip-path="url(#pbf85051a37)" d="M 431.037305 384.48 
L 431.037305 51.84 
" style="fill:none;stroke:#b0b0b0;stroke-dasharray:5.12,1.28,0.8,1.28;stroke-dashoffset:0;stroke-width:0.8;"/>
     </g>
     <g id="line2d_12">
      <g>
       <use style="stroke:#000000;stroke-width:0.8;" x="431.037305" xlink:href="#m5bbd5e9ce6" y="384.48"/>
      </g>
     </g>
     <g id="text_6">
      <!-- $500$ -->
      <defs>
       <path d="M 11.40625 57.6875 
C 12.40625 57.28125 16.5 56 20.703125 56 
C 30 56 35.09375 61.109375 38 64.0625 
C 38 64.953125 38 65.5 37.40625 65.5 
C 37.296875 65.5 37.09375 65.5 36.296875 65.046875 
C 32.796875 63.40625 28.703125 62.078125 23.703125 62.078125 
C 20.703125 62.078125 16.203125 62.484375 11.296875 64.671875 
C 10.203125 65.171875 10 65.171875 9.90625 65.171875 
C 9.40625 65.171875 9.296875 65.0625 9.296875 63.078125 
L 9.296875 34.421875 
C 9.296875 32.640625 9.296875 32.140625 10.296875 32.140625 
C 10.796875 32.140625 11 32.34375 11.5 33.03125 
C 14.703125 37.515625 19.09375 39.40625 24.09375 39.40625 
C 27.59375 39.40625 35.09375 37.21875 35.09375 20.140625 
C 35.09375 16.953125 35.09375 11.171875 32.09375 6.578125 
C 29.59375 2.484375 25.703125 0.390625 21.40625 0.390625 
C 14.796875 0.390625 8.09375 5 6.296875 12.71875 
C 6.703125 12.609375 7.5 12.421875 7.90625 12.421875 
C 9.203125 12.421875 11.703125 13.125 11.703125 16.21875 
C 11.703125 18.90625 9.796875 20 7.90625 20 
C 5.59375 20 4.09375 18.59375 4.09375 15.796875 
C 4.09375 7.09375 11 -2 21.59375 -2 
C 31.90625 -2 41.703125 6.875 41.703125 19.75 
C 41.703125 31.71875 33.90625 41 24.203125 41 
C 19.09375 41 14.796875 39.109375 11.40625 35.53125 
z
" id="CMR17-53"/>
      </defs>
      <g transform="translate(423.565302 398.398498)scale(0.1 -0.1)">
       <use transform="scale(0.996264)" xlink:href="#CMR17-53"/>
       <use transform="translate(45.690477 0)scale(0.996264)" xlink:href="#CMR17-48"/>
       <use transform="translate(91.380954 0)scale(0.996264)" xlink:href="#CMR17-48"/>
      </g>
     </g>
    </g>
    <g id="xtick_7">
     <g id="line2d_13">
      <path clip-path="url(#pbf85051a37)" d="M 498.786584 384.48 
L 498.786584 51.84 
" style="fill:none;stroke:#b0b0b0;stroke-dasharray:5.12,1.28,0.8,1.28;stroke-dashoffset:0;stroke-width:0.8;"/>
     </g>
     <g id="line2d_14">
      <g>
       <use style="stroke:#000000;stroke-width:0.8;" x="498.786584" xlink:href="#m5bbd5e9ce6" y="384.48"/>
      </g>
     </g>
     <g id="text_7">
      <!-- $600$ -->
      <defs>
       <path d="M 10.59375 34 
C 10.59375 57.65625 21.796875 63 28.296875 63 
C 30.40625 63 35.5 62.640625 37.5 59 
C 35.90625 59 32.90625 59 32.90625 55.515625 
C 32.90625 52.828125 35.09375 51.921875 36.5 51.921875 
C 37.40625 51.921875 40.09375 52.3125 40.09375 55.625 
C 40.09375 61.78125 35.09375 65.296875 28.203125 65.296875 
C 16.296875 65.296875 3.796875 52.96875 3.796875 31 
C 3.796875 3.953125 15.09375 -2 23.09375 -2 
C 32.796875 -2 42 6.671875 42 20.046875 
C 42 32.515625 33.90625 41.59375 23.703125 41.59375 
C 17.59375 41.59375 13.09375 37.609375 10.59375 30.625 
z
M 23.09375 0.390625 
C 10.796875 0.390625 10.796875 18.75 10.796875 22.4375 
C 10.796875 29.625 14.203125 40 23.5 40 
C 25.203125 40 30.09375 40 33.40625 33.125 
C 35.203125 29.21875 35.203125 25.140625 35.203125 20.140625 
C 35.203125 14.75 35.203125 10.78125 33.09375 6.78125 
C 30.90625 2.671875 27.703125 0.390625 23.09375 0.390625 
z
" id="CMR17-54"/>
      </defs>
      <g transform="translate(491.314581 398.398498)scale(0.1 -0.1)">
       <use transform="scale(0.996264)" xlink:href="#CMR17-54"/>
       <use transform="translate(45.690477 0)scale(0.996264)" xlink:href="#CMR17-48"/>
       <use transform="translate(91.380954 0)scale(0.996264)" xlink:href="#CMR17-48"/>
      </g>
     </g>
    </g>
    <g id="text_8">
     <!-- Iteration -->
     <defs>
      <path d="M 17.09375 69 
L 8.703125 69 
L 8.703125 0 
L 17.09375 0 
z
" id="CMSS17-73"/>
      <path d="M 16.703125 37 
L 29.703125 37 
L 29.703125 42.765625 
L 16.703125 42.765625 
L 16.703125 55 
L 9.59375 55 
L 9.59375 42.765625 
L 1.703125 42.765625 
L 1.703125 37 
L 9.40625 37 
L 9.40625 11.703125 
C 9.40625 6 10.703125 -1 17.296875 -1 
C 22.296875 -1 26.90625 0.390625 31.296875 2.6875 
L 29.703125 8.5625 
C 27.296875 6.46875 24.40625 5.265625 21.296875 5.265625 
C 16.90625 5.265625 16.703125 10.875 16.703125 13.375 
z
" id="CMSS17-116"/>
      <path d="M 39.09375 21.515625 
C 39.09375 24.84375 38.90625 31.296875 35.703125 36.640625 
C 32.203125 42.390625 26.5 44 22.203125 44 
C 11.796875 44 3 34.1875 3 21.484375 
C 3 9.09375 12.09375 -1 23.59375 -1 
C 28.09375 -1 33.59375 0.296875 38.59375 3.875 
C 38.59375 4.28125 38.40625 6.46875 38.296875 6.5625 
C 38.296875 6.765625 38 9.84375 38 10.25 
C 33.203125 6.359375 27.703125 5.078125 23.703125 5.078125 
C 17.296875 5.078125 10.40625 10.421875 10.09375 21.515625 
z
M 10.90625 27 
C 12.203125 32.5625 16.59375 37.828125 22.203125 37.828125 
C 23.703125 37.828125 30.703125 37.828125 32.5 27 
z
" id="CMSS17-101"/>
      <path d="M 14.90625 21.296875 
C 14.90625 30.703125 21.796875 37 30.59375 37 
L 30.59375 43.578125 
C 24.203125 43.578125 18.203125 40.390625 14.59375 35.203125 
L 14.59375 43.09375 
L 7.5 43.09375 
L 7.5 0 
L 14.90625 0 
z
" id="CMSS17-114"/>
      <path d="M 37.59375 27.984375 
C 37.59375 37.375 30.90625 43.875 21.90625 43.875 
C 17.5 43.875 12.703125 43.078125 7.203125 39.890625 
L 7.796875 33.359375 
C 10.296875 35.125 14.59375 38 21.796875 38 
C 26.90625 38 30 34.0625 30 27.84375 
L 30 24 
C 14 24 4 19.34375 4 11.34375 
C 4 7.203125 6.5 -1 14.796875 -1 
C 16.296875 -1 24.40625 -1 30.203125 3.390625 
L 30.203125 -0.296875 
L 37.59375 -0.296875 
z
M 30 12.75 
C 30 10.953125 30 8.5625 27 6.78125 
C 24.40625 5.078125 21.09375 5.078125 19.703125 5.078125 
C 14.703125 5.078125 11.296875 7.984375 11.296875 11.625 
C 11.296875 18.921875 26.90625 18.921875 30 18.921875 
z
" id="CMSS17-97"/>
      <path d="M 15.296875 65.359375 
L 6.90625 65.359375 
L 6.90625 57 
L 15.296875 57 
z
M 14.796875 42.796875 
L 7.40625 42.796875 
L 7.40625 0 
L 14.796875 0 
z
" id="CMSS17-105"/>
      <path d="M 44.203125 21.1875 
C 44.203125 34 34.703125 44 23.5 44 
C 12 44 2.703125 33.703125 2.703125 21.1875 
C 2.703125 8.5 12.296875 -1 23.40625 -1 
C 34.796875 -1 44.203125 8.796875 44.203125 21.1875 
z
M 23.5 5.265625 
C 16.40625 5.265625 10.296875 11.078125 10.296875 22 
C 10.296875 33.609375 17.40625 37.921875 23.40625 37.921875 
C 29.90625 37.921875 36.59375 33.21875 36.59375 22 
C 36.59375 10.671875 30.09375 5.265625 23.5 5.265625 
z
" id="CMSS17-111"/>
      <path d="M 40.90625 29.328125 
C 40.90625 35.671875 39.40625 44 28.09375 44 
C 21.703125 44 17.5 40.71875 14.703125 37.328125 
L 14.703125 43.09375 
L 7.40625 43.09375 
L 7.40625 0 
L 15 0 
L 15 24.359375 
C 15 30.6875 17.40625 37.9375 24.203125 37.9375 
C 33 37.9375 33.296875 32 33.296875 28.578125 
L 33.296875 0 
L 40.90625 0 
z
" id="CMSS17-110"/>
     </defs>
     <g transform="translate(271.264003 414.021553)scale(0.14 -0.14)">
      <use transform="scale(0.996264)" xlink:href="#CMSS17-73"/>
      <use transform="translate(25.783926 0)scale(0.996264)" xlink:href="#CMSS17-116"/>
      <use transform="translate(59.615492 0)scale(0.996264)" xlink:href="#CMSS17-101"/>
      <use transform="translate(101.254314 0)scale(0.996264)" xlink:href="#CMSS17-114"/>
      <use transform="translate(133.164087 0)scale(0.996264)" xlink:href="#CMSS17-97"/>
      <use transform="translate(178.086007 0)scale(0.996264)" xlink:href="#CMSS17-116"/>
      <use transform="translate(211.917574 0)scale(0.996264)" xlink:href="#CMSS17-105"/>
      <use transform="translate(234.098297 0)scale(0.996264)" xlink:href="#CMSS17-111"/>
      <use transform="translate(280.941921 0)scale(0.996264)" xlink:href="#CMSS17-110"/>
     </g>
    </g>
   </g>
   <g id="matplotlib.axis_2">
    <g id="ytick_1">
     <g id="line2d_15">
      <path clip-path="url(#pbf85051a37)" d="M 72 350.826878 
L 518.4 350.826878 
" style="fill:none;stroke:#b0b0b0;stroke-dasharray:5.12,1.28,0.8,1.28;stroke-dashoffset:0;stroke-width:0.8;"/>
     </g>
     <g id="line2d_16">
      <defs>
       <path d="M 0 0 
L -3.5 0 
" id="m5604eea13e" style="stroke:#000000;stroke-width:0.8;"/>
      </defs>
      <g>
       <use style="stroke:#000000;stroke-width:0.8;" x="72" xlink:href="#m5604eea13e" y="350.826878"/>
      </g>
     </g>
     <g id="text_9">
      <!-- $-80000$ -->
      <defs>
       <path d="M 65.90625 23 
C 67.59375 23 69.40625 23 69.40625 25 
C 69.40625 27 67.59375 27 65.90625 27 
L 11.796875 27 
C 10.09375 27 8.296875 27 8.296875 25 
C 8.296875 23 10.09375 23 11.796875 23 
z
" id="CMSY10-0"/>
       <path d="M 27.203125 35.375 
C 33.5 38.546875 39.90625 43.328125 39.90625 50.984375 
C 39.90625 60.015625 31.09375 65.296875 23 65.296875 
C 13.90625 65.296875 5.90625 58.734375 5.90625 49.6875 
C 5.90625 47.203125 6.5 42.921875 10.40625 39.140625 
C 11.40625 38.15625 15.59375 35.171875 18.296875 33.28125 
C 13.796875 30.984375 3.296875 25.53125 3.296875 14.59375 
C 3.296875 4.359375 13.09375 -2 22.796875 -2 
C 33.5 -2 42.5 5.65625 42.5 15.78125 
C 42.5 24.84375 36.40625 29.015625 32.40625 31.703125 
z
M 14.09375 44.09375 
C 13.296875 44.59375 9.296875 47.671875 9.296875 52.359375 
C 9.296875 58.421875 15.59375 63 22.796875 63 
C 30.703125 63 36.5 57.4375 36.5 50.96875 
C 36.5 41.703125 26.09375 36.421875 25.59375 36.421875 
C 25.5 36.421875 25.40625 36.421875 24.59375 37.03125 
z
M 32.5 23.734375 
C 34 22.640625 38.796875 19.375 38.796875 13.296875 
C 38.796875 5.953125 31.40625 0.390625 23 0.390625 
C 13.90625 0.390625 7 6.84375 7 14.6875 
C 7 22.546875 13.09375 29.09375 20 32.1875 
z
" id="CMR17-56"/>
      </defs>
      <g transform="translate(32.34458 354.286128)scale(0.1 -0.1)">
       <use transform="scale(0.996264)" xlink:href="#CMSY10-0"/>
       <use transform="translate(77.487468 0)scale(0.996264)" xlink:href="#CMR17-56"/>
       <use transform="translate(123.177945 0)scale(0.996264)" xlink:href="#CMR17-48"/>
       <use transform="translate(168.868422 0)scale(0.996264)" xlink:href="#CMR17-48"/>
       <use transform="translate(214.558899 0)scale(0.996264)" xlink:href="#CMR17-48"/>
       <use transform="translate(260.249376 0)scale(0.996264)" xlink:href="#CMR17-48"/>
      </g>
     </g>
    </g>
    <g id="ytick_2">
     <g id="line2d_17">
      <path clip-path="url(#pbf85051a37)" d="M 72 279.860159 
L 518.4 279.860159 
" style="fill:none;stroke:#b0b0b0;stroke-dasharray:5.12,1.28,0.8,1.28;stroke-dashoffset:0;stroke-width:0.8;"/>
     </g>
     <g id="line2d_18">
      <g>
       <use style="stroke:#000000;stroke-width:0.8;" x="72" xlink:href="#m5604eea13e" y="279.860159"/>
      </g>
     </g>
     <g id="text_10">
      <!-- $-60000$ -->
      <g transform="translate(32.34458 283.319408)scale(0.1 -0.1)">
       <use transform="scale(0.996264)" xlink:href="#CMSY10-0"/>
       <use transform="translate(77.487468 0)scale(0.996264)" xlink:href="#CMR17-54"/>
       <use transform="translate(123.177945 0)scale(0.996264)" xlink:href="#CMR17-48"/>
       <use transform="translate(168.868422 0)scale(0.996264)" xlink:href="#CMR17-48"/>
       <use transform="translate(214.558899 0)scale(0.996264)" xlink:href="#CMR17-48"/>
       <use transform="translate(260.249376 0)scale(0.996264)" xlink:href="#CMR17-48"/>
      </g>
     </g>
    </g>
    <g id="ytick_3">
     <g id="line2d_19">
      <path clip-path="url(#pbf85051a37)" d="M 72 208.893439 
L 518.4 208.893439 
" style="fill:none;stroke:#b0b0b0;stroke-dasharray:5.12,1.28,0.8,1.28;stroke-dashoffset:0;stroke-width:0.8;"/>
     </g>
     <g id="line2d_20">
      <g>
       <use style="stroke:#000000;stroke-width:0.8;" x="72" xlink:href="#m5604eea13e" y="208.893439"/>
      </g>
     </g>
     <g id="text_11">
      <!-- $-40000$ -->
      <g transform="translate(32.34458 212.352688)scale(0.1 -0.1)">
       <use transform="scale(0.996264)" xlink:href="#CMSY10-0"/>
       <use transform="translate(77.487468 0)scale(0.996264)" xlink:href="#CMR17-52"/>
       <use transform="translate(123.177945 0)scale(0.996264)" xlink:href="#CMR17-48"/>
       <use transform="translate(168.868422 0)scale(0.996264)" xlink:href="#CMR17-48"/>
       <use transform="translate(214.558899 0)scale(0.996264)" xlink:href="#CMR17-48"/>
       <use transform="translate(260.249376 0)scale(0.996264)" xlink:href="#CMR17-48"/>
      </g>
     </g>
    </g>
    <g id="ytick_4">
     <g id="line2d_21">
      <path clip-path="url(#pbf85051a37)" d="M 72 137.92672 
L 518.4 137.92672 
" style="fill:none;stroke:#b0b0b0;stroke-dasharray:5.12,1.28,0.8,1.28;stroke-dashoffset:0;stroke-width:0.8;"/>
     </g>
     <g id="line2d_22">
      <g>
       <use style="stroke:#000000;stroke-width:0.8;" x="72" xlink:href="#m5604eea13e" y="137.92672"/>
      </g>
     </g>
     <g id="text_12">
      <!-- $-20000$ -->
      <g transform="translate(32.34458 141.385969)scale(0.1 -0.1)">
       <use transform="scale(0.996264)" xlink:href="#CMSY10-0"/>
       <use transform="translate(77.487468 0)scale(0.996264)" xlink:href="#CMR17-50"/>
       <use transform="translate(123.177945 0)scale(0.996264)" xlink:href="#CMR17-48"/>
       <use transform="translate(168.868422 0)scale(0.996264)" xlink:href="#CMR17-48"/>
       <use transform="translate(214.558899 0)scale(0.996264)" xlink:href="#CMR17-48"/>
       <use transform="translate(260.249376 0)scale(0.996264)" xlink:href="#CMR17-48"/>
      </g>
     </g>
    </g>
    <g id="ytick_5">
     <g id="line2d_23">
      <path clip-path="url(#pbf85051a37)" d="M 72 66.96 
L 518.4 66.96 
" style="fill:none;stroke:#b0b0b0;stroke-dasharray:5.12,1.28,0.8,1.28;stroke-dashoffset:0;stroke-width:0.8;"/>
     </g>
     <g id="line2d_24">
      <g>
       <use style="stroke:#000000;stroke-width:0.8;" x="72" xlink:href="#m5604eea13e" y="66.96"/>
      </g>
     </g>
     <g id="text_13">
      <!-- $0$ -->
      <g transform="translate(60.018665 70.419249)scale(0.1 -0.1)">
       <use transform="scale(0.996264)" xlink:href="#CMR17-48"/>
      </g>
     </g>
    </g>
    <g id="text_14">
     <!-- $\partial \mathcal{L}/ \partial \mu^{\underline{P}}_{m}$ -->
     <defs>
      <path d="M 45.40625 33.515625 
C 44.796875 39.125 41.296875 45.859375 32.296875 45.859375 
C 18.203125 45.859375 3.796875 31.515625 3.796875 15.5625 
C 3.796875 9.4375 8 -2.09375 21.59375 -2.09375 
C 45.203125 -2.09375 55.296875 32.296875 55.296875 46 
C 55.296875 60.40625 47.203125 71.5 34.40625 71.5 
C 19.90625 71.5 15.59375 58.796875 15.59375 56.09375 
C 15.59375 55.203125 16.203125 53 19 53 
C 22.5 53 24 56.203125 24 57.90625 
C 24 61 20.90625 61 19.59375 61 
C 23.703125 68.40625 31.296875 69.09375 34 69.09375 
C 42.796875 69.09375 48.40625 62.109375 48.40625 50.96875 
C 48.40625 44.578125 46.5 37.1875 45.5 33.515625 
z
M 21.90625 0.59375 
C 12.5 0.59375 10.90625 8.03125 10.90625 12.25 
C 10.90625 16.65625 13.703125 27 15.203125 30.703125 
C 16.5 33.71875 22.203125 43.859375 32.59375 43.859375 
C 41.703125 43.859375 43.796875 35.921875 43.796875 30.515625 
C 43.796875 23.078125 37.296875 0.59375 21.90625 0.59375 
z
" id="CMMI12-64"/>
      <path d="M 18 9.53125 
C 23.40625 17.984375 25.09375 24.40625 26.40625 29.734375 
C 29.90625 43.59375 33.703125 55.65625 39.90625 62.578125 
C 41.09375 63.90625 41.90625 64.796875 45.09375 64.796875 
C 52 64.796875 52.203125 57.875 52.203125 56.453125 
C 52.203125 54.65625 51.703125 53.234375 51.703125 52.734375 
C 51.703125 52.03125 52.296875 52.03125 52.40625 52.03125 
C 54 52.03125 56.703125 53.140625 59.203125 54.953125 
C 61 56.359375 61.90625 57.359375 61.90625 61.46875 
C 61.90625 66.890625 59.09375 71 53.5 71 
C 50.296875 71 41.5 70.203125 31.703125 60.25 
C 23.703125 52.015625 19 33.9375 17.09375 26.40625 
C 15.296875 19.5 14.5 16.375 11.5 10.34375 
C 10.796875 9.15625 8.203125 4.734375 6.796875 3.421875 
C 4.09375 0.921875 3.09375 -0.890625 3.09375 -1.390625 
C 3.09375 -1.59375 3.296875 -2 4 -2 
C 4.40625 -2 6.5 -1.59375 9.09375 0.078125 
C 10.796875 1.0625 11 1.25 13.296875 3.609375 
C 18.296875 3.609375 21.796875 2.703125 28.09375 0.90625 
C 33.203125 -0.5 38.296875 -2 43.40625 -2 
C 51.5 -2 59.703125 4.125 62.90625 8.53125 
C 64.90625 11.234375 65.5 13.75 65.5 14.046875 
C 65.5 14.75 64.90625 14.75 64.796875 14.75 
C 63.203125 14.75 60.796875 13.65625 59.09375 12.4375 
C 56.40625 10.734375 56.203125 10.140625 55.59375 8.421875 
C 55.09375 6.8125 54.5 6.015625 54.09375 5.40625 
C 53.296875 4.203125 53.203125 4.203125 51.703125 4.203125 
C 46.90625 4.203125 41.90625 5.71875 35.296875 7.515625 
C 32.5 8.3125 27 9.9375 22 9.9375 
C 20.703125 9.9375 19.296875 9.828125 18 9.53125 
z
" id="CMSY10-76"/>
      <path d="M 42.90625 71.28125 
C 42.90625 71.390625 43.5 72.90625 43.5 73.09375 
C 43.5 74.296875 42.5 75 41.703125 75 
C 41.203125 75 40.296875 75 39.5 72.796875 
L 6 -21.296875 
C 6 -21.40625 5.40625 -22.890625 5.40625 -23.09375 
C 5.40625 -24.296875 6.40625 -25 7.203125 -25 
C 7.796875 -25 8.703125 -24.890625 9.40625 -22.796875 
z
" id="CMMI12-61"/>
      <path d="M 14.40625 2.1875 
C 16.90625 -0.09375 20.59375 -1 24 -1 
C 30.40625 -1 34.796875 3.25 37.09375 6.328125 
C 38.09375 1.078125 42.296875 -1 45.796875 -1 
C 48.796875 -1 51.203125 0.78125 53 4.328125 
C 54.59375 7.703125 56 13.734375 56 14.109375 
C 56 14.609375 55.59375 15 55 15 
C 54.09375 15 54 14.5 53.59375 13.03125 
C 52.09375 7.203125 50.203125 1 46.09375 1 
C 43.203125 1 43 3.578125 43 5.59375 
C 43 7.875 43.90625 11.484375 44.59375 14.46875 
L 47.40625 25.234375 
C 47.796875 27.140625 48.90625 31.609375 49.40625 33.421875 
C 50 35.8125 51.09375 40.109375 51.09375 40.5 
C 51.09375 42 49.90625 43 48.40625 43 
C 47.5 43 45.40625 42.59375 44.59375 39.609375 
L 37.59375 11.875 
C 37.09375 9.875 37.09375 9.671875 35.796875 8.078125 
C 34.59375 6.390625 30.703125 1 24.40625 1 
C 18.796875 1 17 5.09375 17 9.765625 
C 17 12.671875 17.90625 16.15625 18.296875 17.859375 
L 22.796875 35.828125 
C 23.296875 37.71875 24.09375 40.90625 24.09375 41.515625 
C 24.09375 43.109375 22.796875 44 21.5 44 
C 20.59375 44 18.40625 43.703125 17.59375 40.5 
L 3.09375 -17.296875 
C 3 -17.796875 2.796875 -18.390625 2.796875 -19 
C 2.796875 -20.5 4 -21.5 5.5 -21.5 
C 8.40625 -21.5 9 -19.1875 9.703125 -16.40625 
z
" id="CMMI12-22"/>
      <path d="M 29.59375 31.609375 
L 46.40625 31.609375 
C 60.203125 31.609375 74 41.765625 74 53.140625 
C 74 60.90625 67.40625 68 54.796875 68 
L 23.90625 68 
C 22 68 21.09375 68 21.09375 66.109375 
C 21.09375 65.109375 22 65.109375 23.5 65.109375 
C 29.59375 65.109375 29.59375 64.3125 29.59375 63.21875 
C 29.59375 63.03125 29.59375 62.421875 29.203125 60.921875 
L 15.703125 7.375 
C 14.796875 3.890625 14.59375 2.890625 7.59375 2.890625 
C 5.703125 2.890625 4.703125 2.890625 4.703125 1.09375 
C 4.703125 0 5.59375 0 6.203125 0 
C 8.09375 0 10.09375 0 12 0 
L 23.703125 0 
C 25.59375 0 27.703125 0 29.59375 0 
C 30.40625 0 31.5 0 31.5 1.890625 
C 31.5 2.890625 30.59375 2.890625 29.09375 2.890625 
C 23.09375 2.890625 23 3.59375 23 4.578125 
C 23 5.078125 23.09375 5.765625 23.203125 6.265625 
z
M 36.796875 61.40625 
C 37.703125 65.109375 38.09375 65.109375 42 65.109375 
L 51.90625 65.109375 
C 59.40625 65.109375 65.59375 62.703125 65.59375 55.234375 
C 65.59375 52.640625 64.296875 44.171875 59.703125 39.59375 
C 58 37.796875 53.203125 34 44.09375 34 
L 30 34 
z
" id="CMMI12-80"/>
      <path d="M 20.59375 29.234375 
C 20.796875 29.84375 23.296875 34.828125 27 38.015625 
C 29.59375 40.40625 33 42.015625 36.90625 42.015625 
C 40.90625 42.015625 42.296875 39.015625 42.296875 35.03125 
C 42.296875 34.421875 42.296875 32.4375 41.09375 27.734375 
L 38.59375 17.46875 
C 37.796875 14.46875 35.90625 7.078125 35.703125 5.984375 
C 35.296875 4.484375 34.703125 1.890625 34.703125 1.5 
C 34.703125 0.09375 35.796875 -1 37.296875 -1 
C 40.296875 -1 40.796875 1.296875 41.703125 4.890625 
L 47.703125 28.734375 
C 47.90625 29.53125 53.09375 42.015625 64.09375 42.015625 
C 68.09375 42.015625 69.5 39.015625 69.5 35.03125 
C 69.5 29.4375 65.59375 18.5625 63.40625 12.578125 
C 62.5 10.171875 62 8.875 62 7.078125 
C 62 2.59375 65.09375 -1 69.90625 -1 
C 79.203125 -1 82.703125 13.671875 82.703125 14.265625 
C 82.703125 14.765625 82.296875 15.171875 81.703125 15.171875 
C 80.796875 15.171875 80.703125 14.875 80.203125 13.171875 
C 77.90625 5.1875 74.203125 1 70.203125 1 
C 69.203125 1 67.59375 1 67.59375 4.203125 
C 67.59375 6.8125 68.796875 10 69.203125 11.09375 
C 71 15.90625 75.5 27.703125 75.5 33.515625 
C 75.5 39.5 72 44 64.40625 44 
C 57.703125 44 52.296875 40.21875 48.296875 34.328125 
C 48 39.71875 44.703125 44 37.203125 44 
C 28.296875 44 23.59375 37.734375 21.796875 35.234375 
C 21.5 40.90625 17.40625 44 13 44 
C 10.09375 44 7.796875 42.609375 5.90625 38.8125 
C 4.09375 35.21875 2.703125 29.140625 2.703125 28.734375 
C 2.703125 28.34375 3.09375 27.84375 3.796875 27.84375 
C 4.59375 27.84375 4.703125 27.9375 5.296875 30.234375 
C 6.796875 36.125 8.703125 42.015625 12.703125 42.015625 
C 15 42.015625 15.796875 40.40625 15.796875 37.421875 
C 15.796875 35.21875 14.796875 31.328125 14.09375 28.234375 
L 11.296875 17.46875 
C 10.90625 15.5625 9.796875 11.078125 9.296875 9.28125 
C 8.59375 6.6875 7.5 2 7.5 1.5 
C 7.5 0.09375 8.59375 -1 10.09375 -1 
C 11.296875 -1 12.703125 -0.40625 13.5 1.09375 
C 13.703125 1.59375 14.59375 5.09375 15.09375 7.078125 
L 17.296875 16.0625 
z
" id="CMMI12-109"/>
     </defs>
     <g transform="translate(25.632552 242.881062)rotate(-90)scale(0.14 -0.14)">
      <use transform="translate(0 24.62935)scale(0.996264)" xlink:href="#CMMI12-64"/>
      <use transform="translate(56.915564 24.62935)scale(0.996264)" xlink:href="#CMSY10-76"/>
      <use transform="translate(125.630372 24.62935)scale(0.996264)" xlink:href="#CMMI12-61"/>
      <use transform="translate(174.405291 24.62935)scale(0.996264)" xlink:href="#CMMI12-64"/>
      <use transform="translate(231.320856 24.62935)scale(0.996264)" xlink:href="#CMMI12-22"/>
      <use transform="translate(290.012277 60.782989)scale(0.697382)" xlink:href="#CMMI12-80"/>
      <use transform="translate(290.012277 0)scale(0.697382)" xlink:href="#CMMI12-109"/>
      <path d="M 290.012277 49.625185 
L 344.008233 49.625185 
L 344.008233 52.414636 
L 290.012277 52.414636 
L 290.012277 49.625185 
z
"/>
     </g>
    </g>
   </g>
   <g id="line2d_25">
    <path clip-path="url(#pbf85051a37)" d="M 92.290909 66.96 
L 498.109091 66.96 
L 498.109091 66.96 
" style="fill:none;stroke:#bf00bf;stroke-linecap:square;stroke-width:1.5;"/>
   </g>
   <g id="line2d_26">
    <path clip-path="url(#pbf85051a37)" d="M 92.290909 66.96 
L 236.596874 66.96 
L 237.274366 68.805558 
L 237.951859 66.96 
L 238.629352 66.96 
L 239.306845 158.025743 
L 239.984338 158.70668 
L 240.66183 66.96 
L 241.339323 66.96 
L 242.016816 144.686344 
L 242.694309 173.410079 
L 243.371801 146.77609 
L 244.049294 66.96 
L 245.40428 173.410079 
L 246.081773 173.410079 
L 246.759265 146.383408 
L 247.436758 173.410079 
L 287.408833 173.410079 
L 288.086326 66.96 
L 315.186037 66.96 
L 315.86353 96.844559 
L 316.541023 85.90062 
L 317.218516 66.96 
L 317.896008 101.426495 
L 318.573501 171.795609 
L 319.250994 106.552714 
L 319.928487 66.96 
L 320.60598 83.237519 
L 321.283472 173.410079 
L 321.960965 173.410079 
L 322.638458 146.282071 
L 323.315951 124.249128 
L 323.993444 173.410079 
L 324.670936 173.410079 
L 325.348429 146.97433 
L 326.025922 127.296522 
L 326.703415 173.410079 
L 328.0584 173.410079 
L 328.735893 139.860266 
L 329.413386 173.410079 
L 330.090879 173.410079 
L 330.768372 150.702753 
L 331.445864 135.408038 
L 332.123357 173.410079 
L 332.80085 151.163971 
L 333.478343 66.96 
L 334.155835 66.96 
L 334.833328 173.410079 
L 335.510821 66.96 
L 336.865807 66.96 
L 337.543299 136.085256 
L 338.220792 66.96 
L 339.575778 66.96 
L 340.253271 79.686365 
L 340.930763 66.96 
L 342.285749 66.96 
L 342.963242 67.163182 
L 343.640735 66.96 
L 344.318227 66.96 
L 344.99572 89.105893 
L 345.673213 66.96 
L 347.028199 66.96 
L 347.705691 92.151009 
L 348.383184 66.96 
L 349.73817 66.96 
L 350.415662 107.396104 
L 351.093155 66.96 
L 352.448141 66.96 
L 353.125634 156.211338 
L 353.803126 66.96 
L 355.158112 66.96 
L 355.835605 173.410079 
L 356.513098 107.566663 
L 357.19059 66.96 
L 357.868083 66.96 
L 358.545576 173.410079 
L 359.223069 95.493317 
L 359.900562 66.96 
L 360.578054 66.96 
L 361.255547 173.410079 
L 361.93304 72.640354 
L 362.610533 66.96 
L 365.997997 66.96 
L 366.675489 119.13738 
L 367.352982 66.96 
L 368.030475 66.96 
L 368.707968 97.196333 
L 369.385461 139.821913 
L 370.062953 66.96 
L 370.740446 66.96 
L 371.417939 101.982961 
L 372.095432 128.312523 
L 372.772925 66.96 
L 373.450417 66.96 
L 374.12791 106.977624 
L 374.805403 103.153373 
L 375.482896 66.96 
L 376.160389 66.96 
L 376.837881 122.261765 
L 377.515374 75.776813 
L 378.192867 66.96 
L 378.87036 66.96 
L 379.547852 149.374242 
L 380.225345 66.96 
L 381.580331 66.96 
L 382.257824 129.71919 
L 382.935316 66.96 
L 384.290302 66.96 
L 384.967795 82.916416 
L 385.645288 66.96 
L 387.000273 66.96 
L 387.677766 148.942123 
L 388.355259 66.96 
L 389.710244 66.96 
L 390.387737 117.077592 
L 391.06523 66.96 
L 392.420216 66.96 
L 393.097708 153.385606 
L 393.775201 66.96 
L 395.130187 66.96 
L 395.807679 114.269641 
L 396.485172 66.96 
L 397.840158 66.96 
L 398.517651 139.555541 
L 399.195143 66.96 
L 400.550129 66.96 
L 401.227622 100.660923 
L 401.905115 66.96 
L 403.2601 66.96 
L 403.937593 127.453455 
L 404.615086 66.96 
L 405.970071 66.96 
L 406.647564 98.60907 
L 407.325057 66.96 
L 408.680042 66.96 
L 409.357535 131.375901 
L 410.035028 66.96 
L 411.390014 66.96 
L 412.067506 112.571515 
L 412.744999 66.96 
L 414.099985 66.96 
L 414.777478 144.079964 
L 415.45497 66.96 
L 416.809956 66.96 
L 417.487449 115.92004 
L 418.164942 66.96 
L 419.519927 66.96 
L 420.19742 160.11581 
L 420.874913 66.96 
L 422.229898 66.96 
L 422.907391 114.775661 
L 423.584884 66.96 
L 424.939869 66.96 
L 425.617362 168.261425 
L 426.294855 66.96 
L 427.649841 66.96 
L 428.327333 106.926945 
L 429.004826 66.96 
L 430.359812 66.96 
L 431.037305 157.025865 
L 431.714797 66.96 
L 433.069783 66.96 
L 433.747276 97.889654 
L 434.424769 66.96 
L 435.779754 66.96 
L 436.457247 146.509132 
L 437.13474 66.96 
L 438.489725 66.96 
L 439.167218 98.915941 
L 439.844711 66.96 
L 441.199696 66.96 
L 441.877189 144.977108 
L 442.554682 66.96 
L 443.909668 66.96 
L 444.58716 106.642857 
L 445.264653 66.96 
L 446.619639 66.96 
L 447.297132 150.033141 
L 447.974624 66.96 
L 449.32961 66.96 
L 450.007103 120.993115 
L 450.684596 66.96 
L 452.039581 66.96 
L 452.717074 163.784382 
L 453.394567 66.96 
L 454.749552 66.96 
L 455.427045 110.984094 
L 456.104538 66.96 
L 457.459523 66.96 
L 458.137016 167.088922 
L 458.814509 66.96 
L 460.169495 66.96 
L 460.846987 104.26536 
L 461.52448 66.96 
L 462.879466 66.96 
L 463.556959 156.057402 
L 464.234451 66.96 
L 465.589437 66.96 
L 466.26693 98.624097 
L 466.944423 66.96 
L 468.299408 66.96 
L 468.976901 149.314089 
L 469.654394 66.96 
L 471.009379 66.96 
L 471.686872 99.995779 
L 472.364365 66.96 
L 473.71935 66.96 
L 474.396843 145.730648 
L 475.074336 66.96 
L 476.429322 66.96 
L 477.106814 116.391707 
L 477.784307 66.96 
L 479.139293 66.96 
L 479.816786 155.976119 
L 480.494278 66.96 
L 481.849264 66.96 
L 482.526757 114.323525 
L 483.20425 66.96 
L 484.559235 66.96 
L 485.236728 164.057732 
L 485.914221 66.96 
L 487.269206 66.96 
L 487.946699 113.33854 
L 488.624192 66.96 
L 489.979177 66.96 
L 490.65667 161.722795 
L 491.334163 66.96 
L 492.689149 66.96 
L 493.366641 107.036423 
L 494.044134 66.96 
L 495.39912 66.96 
L 496.076613 150.260526 
L 496.754105 66.96 
L 498.109091 66.96 
L 498.109091 66.96 
" style="fill:none;stroke:#00bfbf;stroke-linecap:square;stroke-width:1.5;"/>
   </g>
   <g id="line2d_27">
    <path clip-path="url(#pbf85051a37)" d="M 92.290909 66.96 
L 92.968402 244.376799 
L 93.645895 66.96 
L 498.109091 66.96 
L 498.109091 66.96 
" style="fill:none;stroke:#ff0000;stroke-linecap:square;stroke-width:1.5;"/>
   </g>
   <g id="line2d_28">
    <path clip-path="url(#pbf85051a37)" d="M 92.290909 66.96 
L 201.367248 66.96 
L 202.044741 84.303258 
L 202.722234 122.132613 
L 204.07722 174.366126 
L 204.754712 192.094648 
L 206.109698 216.416767 
L 206.787191 230.036231 
L 207.464684 239.170124 
L 208.142176 244.713466 
L 209.497162 263.307568 
L 210.174655 267.62847 
L 210.852148 269.374429 
L 212.207133 282.667076 
L 212.884626 282.426127 
L 213.562119 281.045068 
L 214.239611 285.7903 
L 214.917104 289.218648 
L 215.594597 284.443235 
L 216.27209 280.518398 
L 216.949583 283.751917 
L 217.627075 283.519871 
L 218.304568 274.417342 
L 218.982061 268.6753 
L 219.659554 270.641017 
L 220.337047 268.926856 
L 221.014539 259.306307 
L 221.692032 255.18914 
L 222.369525 259.836105 
L 223.047018 258.10204 
L 223.724511 248.26244 
L 224.402003 246.680065 
L 225.079496 253.146797 
L 225.756989 250.09515 
L 226.434482 239.920139 
L 227.111975 241.070514 
L 227.789467 248.73551 
L 228.46696 243.714301 
L 229.144453 233.501985 
L 229.821946 237.655623 
L 230.499438 245.828459 
L 231.176931 238.328252 
L 231.854424 228.582131 
L 233.20941 243.851917 
L 233.886902 233.519717 
L 234.564395 224.91735 
L 235.241888 235.645884 
L 235.919381 242.352357 
L 236.596874 229.019783 
L 237.274366 222.381824 
L 237.951859 236.416058 
L 238.629352 241.383717 
L 239.306845 224.971425 
L 239.984338 220.706897 
L 240.66183 259.006334 
L 241.339323 275.522377 
L 242.694309 219.392598 
L 244.049294 302.886694 
L 244.726787 283.638485 
L 245.40428 232.782812 
L 246.081773 252.020001 
L 246.759265 314.45525 
L 247.436758 298.683202 
L 248.114251 255.89713 
L 248.791744 272.549576 
L 249.469237 338.760732 
L 250.146729 326.668796 
L 250.824222 293.557642 
L 251.501715 296.015147 
L 252.179208 335.913875 
L 252.856701 324.331763 
L 253.534193 280.457989 
L 254.211686 293.655518 
L 254.889179 336.825197 
L 255.566672 319.043661 
L 256.244165 276.255048 
L 256.921657 297.596185 
L 257.59915 339.831412 
L 258.276643 314.701269 
L 258.954136 273.8991 
L 259.631628 302.29599 
L 260.309121 341.623704 
L 260.986614 319.886295 
L 261.664107 280.117271 
L 262.3416 302.620414 
L 263.019092 339.646274 
L 263.696585 313.376934 
L 264.374078 277.476115 
L 265.051571 305.310662 
L 265.729064 338.745872 
L 266.406556 315.383976 
L 267.084049 285.732475 
L 268.439035 341.337879 
L 269.116528 320.667011 
L 269.79402 307.958527 
L 270.471513 339.967664 
L 271.149006 351.951255 
L 271.826499 328.997334 
L 272.503992 333.802108 
L 273.181484 361.315777 
L 273.858977 356.161279 
L 274.53647 339.159344 
L 275.891455 369.36 
L 276.568948 354.632041 
L 277.246441 347.38092 
L 277.923934 363.863781 
L 278.601427 365.543643 
L 279.278919 349.16574 
L 279.956412 350.392938 
L 280.633905 361.675658 
L 281.311398 353.160438 
L 281.988891 340.534691 
L 282.666383 346.057122 
L 283.343876 349.050543 
L 284.021369 335.687455 
L 284.698862 328.756159 
L 285.376355 333.96843 
L 286.053847 329.151046 
L 286.73134 315.878816 
L 287.408833 313.710653 
L 288.086326 315.41198 
L 288.763818 304.174934 
L 289.441311 272.64397 
L 290.118804 253.156532 
L 290.796297 247.424416 
L 292.151282 204.944948 
L 292.828775 204.395728 
L 293.506268 210.798368 
L 294.861254 187.502142 
L 295.538746 195.026554 
L 296.216239 204.796806 
L 297.571225 190.364935 
L 298.92621 212.62707 
L 299.603703 206.146765 
L 300.281196 203.478961 
L 300.958689 217.732674 
L 301.636182 227.28668 
L 302.313674 221.102026 
L 302.991167 221.198444 
L 303.66866 234.628464 
L 304.346153 236.386526 
L 305.023645 223.52235 
L 305.701138 220.79161 
L 306.378631 231.916117 
L 307.056124 232.186865 
L 307.733617 220.172248 
L 308.411109 220.246056 
L 309.088602 231.512591 
L 309.766095 229.856996 
L 310.443588 218.433152 
L 311.121081 220.700542 
L 311.798573 231.4165 
L 312.476066 227.826106 
L 313.153559 217.255028 
L 313.831052 221.45688 
L 314.508545 231.245909 
L 315.186037 225.925678 
L 315.86353 216.500643 
L 316.541023 222.373174 
L 317.218516 236.855329 
L 317.896008 232.419201 
L 318.573501 216.770934 
L 319.250994 227.582452 
L 319.928487 260.425714 
L 320.60598 249.353394 
L 321.283472 211.5816 
L 321.960965 223.041058 
L 322.638458 277.671287 
L 323.315951 281.435792 
L 323.993444 241.500922 
L 324.670936 237.481329 
L 325.348429 286.472609 
L 326.025922 294.133366 
L 326.703415 262.474898 
L 327.380908 256.291253 
L 328.0584 299.892768 
L 328.735893 311.729518 
L 329.413386 283.22235 
L 330.090879 286.572447 
L 330.768372 324.826658 
L 331.445864 327.162394 
L 332.123357 300.940632 
L 332.80085 309.735477 
L 333.478343 340.963139 
L 334.155835 328.939677 
L 334.833328 292.064471 
L 335.510821 295.940934 
L 336.188314 328.043452 
L 336.865807 305.199502 
L 337.543299 266.420483 
L 338.220792 279.896099 
L 338.898285 303.880338 
L 340.253271 246.696722 
L 340.930763 263.113049 
L 341.608256 269.346278 
L 342.285749 236.357569 
L 342.963242 223.833289 
L 343.640735 246.64524 
L 344.318227 241.11342 
L 344.99572 207.813839 
L 345.673213 207.188649 
L 346.350706 237.729921 
L 347.028199 231.065731 
L 347.705691 198.619242 
L 348.383184 205.2426 
L 349.060677 239.855228 
L 349.73817 229.611904 
L 350.415662 196.579851 
L 351.093155 209.297586 
L 351.770648 249.164171 
L 352.448141 233.990837 
L 353.125634 197.168726 
L 353.803126 215.58403 
L 354.480619 268.678211 
L 355.158112 256.788324 
L 355.835605 210.924997 
L 356.513098 220.305668 
L 357.19059 280.231703 
L 357.868083 270.541087 
L 358.545576 229.142284 
L 359.223069 239.117034 
L 359.900562 290.195298 
L 360.578054 280.244116 
L 361.255547 230.110463 
L 361.93304 244.193393 
L 362.610533 301.565766 
L 363.288025 312.632109 
L 363.965518 287.076481 
L 364.643011 281.264578 
L 365.320504 294.508455 
L 365.997997 282.103835 
L 366.675489 260.77719 
L 367.352982 265.875764 
L 368.030475 281.245697 
L 369.385461 244.423045 
L 370.740446 277.80978 
L 371.417939 251.266964 
L 372.095432 234.371928 
L 372.772925 260.396528 
L 373.450417 270.953658 
L 374.12791 237.800551 
L 374.805403 227.967144 
L 375.482896 261.212636 
L 376.160389 261.739143 
L 376.837881 222.815505 
L 377.515374 222.990857 
L 378.192867 263.9155 
L 378.87036 252.307514 
L 379.547852 207.967316 
L 380.225345 220.675475 
L 380.902838 270.456269 
L 381.580331 260.578862 
L 382.257824 209.886024 
L 382.935316 222.477233 
L 383.612809 274.34566 
L 384.290302 268.39591 
L 384.967795 222.280111 
L 385.645288 229.833224 
L 386.32278 267.072258 
L 387.000273 246.449303 
L 387.677766 206.116755 
L 388.355259 227.457981 
L 389.032752 271.602163 
L 389.710244 262.94666 
L 390.387737 218.436406 
L 391.06523 229.488627 
L 391.742723 272.208462 
L 392.420216 256.546954 
L 393.097708 212.203799 
L 393.775201 230.235667 
L 394.452694 278.588549 
L 395.130187 275.369532 
L 395.807679 226.903657 
L 396.485172 234.538753 
L 397.162665 279.977003 
L 397.840158 269.084016 
L 398.517651 221.430583 
L 399.195143 236.064263 
L 399.872636 283.726174 
L 400.550129 281.305563 
L 401.227622 232.392724 
L 401.905115 239.456517 
L 402.582607 280.899158 
L 403.2601 267.648438 
L 403.937593 222.717394 
L 404.615086 238.87 
L 405.292579 279.8062 
L 405.970071 271.376432 
L 406.647564 227.997069 
L 407.325057 239.293743 
L 408.00255 273.606508 
L 408.680042 253.638415 
L 409.357535 215.491108 
L 410.035028 236.301126 
L 410.712521 270.827791 
L 411.390014 255.355768 
L 412.067506 218.60171 
L 412.744999 235.001512 
L 413.422492 265.691357 
L 414.099985 241.557568 
L 414.777478 209.086718 
L 415.45497 234.195688 
L 416.132463 268.139393 
L 416.809956 252.997517 
L 417.487449 217.196441 
L 418.164942 232.554608 
L 418.842434 264.063567 
L 419.519927 239.803882 
L 420.19742 207.257388 
L 420.874913 233.012671 
L 421.552406 271.319012 
L 422.229898 261.448097 
L 422.907391 222.232144 
L 423.584884 233.69544 
L 424.262377 269.151731 
L 424.939869 247.216338 
L 425.617362 209.815856 
L 426.294855 233.508821 
L 426.972348 276.451708 
L 427.649841 272.117554 
L 428.327333 229.064217 
L 429.004826 237.0901 
L 429.682319 274.586431 
L 430.359812 255.522816 
L 431.037305 215.060752 
L 431.714797 236.335508 
L 432.39229 278.691232 
L 433.069783 274.13601 
L 433.747276 230.947702 
L 434.424769 239.317684 
L 435.102261 274.118967 
L 435.779754 253.304259 
L 436.457247 214.772671 
L 437.13474 237.051135 
L 437.812233 274.617591 
L 438.489725 264.928711 
L 439.167218 225.839863 
L 439.844711 237.866433 
L 440.522204 268.233608 
L 441.199696 244.021409 
L 441.877189 210.763939 
L 442.554682 235.967656 
L 443.232175 269.531573 
L 443.909668 255.421152 
L 444.58716 219.993346 
L 445.264653 234.741096 
L 445.942146 263.371099 
L 446.619639 238.880691 
L 447.297132 208.537905 
L 447.974624 234.084104 
L 448.652117 267.818048 
L 449.32961 252.581627 
L 450.007103 217.269298 
L 450.684596 232.89234 
L 451.362088 264.907971 
L 452.039581 240.736958 
L 452.717074 207.858362 
L 453.394567 233.814202 
L 454.072059 272.650711 
L 454.749552 264.357141 
L 455.427045 224.83158 
L 456.104538 235.272951 
L 456.782031 270.047375 
L 457.459523 247.948428 
L 458.137016 210.843682 
L 458.814509 234.694037 
L 459.492002 276.433951 
L 460.169495 271.551299 
L 460.846987 229.567355 
L 461.52448 238.093359 
L 462.201973 273.511306 
L 462.879466 252.816167 
L 463.556959 214.180661 
L 464.234451 236.681991 
L 464.911944 276.56195 
L 465.589437 269.872115 
L 466.26693 229.035807 
L 466.944423 238.96417 
L 467.621915 271.279702 
L 468.299408 248.066481 
L 468.976901 212.341327 
L 469.654394 236.735793 
L 470.331886 272.39359 
L 471.009379 261.32641 
L 471.686872 224.170076 
L 472.364365 236.973652 
L 473.041858 265.734558 
L 473.71935 241.59647 
L 474.396843 210.260858 
L 475.074336 235.305541 
L 475.751829 267.944701 
L 476.429322 251.9899 
L 477.106814 217.526989 
L 477.784307 233.830996 
L 478.4618 263.494707 
L 479.139293 238.469717 
L 479.816786 207.801982 
L 480.494278 234.324897 
L 481.171771 269.590947 
L 481.849264 257.243822 
L 482.526757 220.689104 
L 483.20425 233.980105 
L 483.881742 266.112331 
L 484.559235 242.899996 
L 485.236728 209.2174 
L 485.914221 234.073054 
L 486.591713 273.198934 
L 487.269206 264.85499 
L 487.946699 225.165381 
L 488.624192 236.034461 
L 489.301685 271.149065 
L 489.979177 250.146681 
L 490.65667 212.462956 
L 491.334163 235.160083 
L 492.011656 275.83707 
L 492.689149 269.298767 
L 493.366641 228.149799 
L 494.044134 238.187682 
L 494.721627 272.909155 
L 495.39912 252.434485 
L 496.076613 214.543871 
L 496.754105 236.661518 
L 497.431598 274.616116 
L 498.109091 265.208305 
L 498.109091 265.208305 
" style="fill:none;stroke:#008000;stroke-linecap:square;stroke-width:1.5;"/>
   </g>
   <g id="patch_3">
    <path d="M 72 384.48 
L 72 51.84 
" style="fill:none;stroke:#000000;stroke-linecap:square;stroke-linejoin:miter;stroke-width:0.8;"/>
   </g>
   <g id="patch_4">
    <path d="M 518.4 384.48 
L 518.4 51.84 
" style="fill:none;stroke:#000000;stroke-linecap:square;stroke-linejoin:miter;stroke-width:0.8;"/>
   </g>
   <g id="patch_5">
    <path d="M 72 384.48 
L 518.4 384.48 
" style="fill:none;stroke:#000000;stroke-linecap:square;stroke-linejoin:miter;stroke-width:0.8;"/>
   </g>
   <g id="patch_6">
    <path d="M 72 51.84 
L 518.4 51.84 
" style="fill:none;stroke:#000000;stroke-linecap:square;stroke-linejoin:miter;stroke-width:0.8;"/>
   </g>
   <g id="text_15">
    <!-- $\partial \mathcal{L}/ \partial \mu^{\underline{P}}_{m}$ -->
    <g transform="translate(270.478938 45.84)scale(0.14 -0.14)">
     <use transform="translate(0 24.62935)scale(0.996264)" xlink:href="#CMMI12-64"/>
     <use transform="translate(56.915564 24.62935)scale(0.996264)" xlink:href="#CMSY10-76"/>
     <use transform="translate(125.630372 24.62935)scale(0.996264)" xlink:href="#CMMI12-61"/>
     <use transform="translate(174.405291 24.62935)scale(0.996264)" xlink:href="#CMMI12-64"/>
     <use transform="translate(231.320856 24.62935)scale(0.996264)" xlink:href="#CMMI12-22"/>
     <use transform="translate(290.012277 60.782989)scale(0.697382)" xlink:href="#CMMI12-80"/>
     <use transform="translate(290.012277 0)scale(0.697382)" xlink:href="#CMMI12-109"/>
     <path d="M 290.012277 49.625185 
L 344.008233 49.625185 
L 344.008233 52.414636 
L 290.012277 52.414636 
L 290.012277 49.625185 
z
"/>
    </g>
   </g>
   <g id="legend_1">
    <g id="patch_7">
     <path d="M 79 379.48 
L 147.183921 379.48 
Q 149.183921 379.48 149.183921 377.48 
L 149.183921 309.486601 
Q 149.183921 307.486601 147.183921 307.486601 
L 79 307.486601 
Q 77 307.486601 77 309.486601 
L 77 377.48 
Q 77 379.48 79 379.48 
z
" style="fill:#ffffff;opacity:0.8;stroke:#cccccc;stroke-linejoin:miter;"/>
    </g>
    <g id="line2d_29">
     <path d="M 81 318.297773 
L 101 318.297773 
" style="fill:none;stroke:#bf00bf;stroke-linecap:square;stroke-width:1.5;"/>
    </g>
    <g id="line2d_30"/>
    <g id="text_16">
     <!-- $\partial \mathcal{L}/ \partial \mu^{\underline{P}}_{1}$ -->
     <g transform="translate(109 321.797773)scale(0.1 -0.1)">
      <use transform="translate(0 26.578082)scale(0.996264)" xlink:href="#CMMI12-64"/>
      <use transform="translate(56.915564 26.578082)scale(0.996264)" xlink:href="#CMSY10-76"/>
      <use transform="translate(125.630372 26.578082)scale(0.996264)" xlink:href="#CMMI12-61"/>
      <use transform="translate(174.405291 26.578082)scale(0.996264)" xlink:href="#CMMI12-64"/>
      <use transform="translate(231.320856 26.578082)scale(0.996264)" xlink:href="#CMMI12-22"/>
      <use transform="translate(290.012277 74.841065)scale(0.697382)" xlink:href="#CMMI12-80"/>
      <use transform="translate(290.012277 0)scale(0.697382)" xlink:href="#CMR17-49"/>
      <path d="M 290.012277 63.683261 
L 344.008233 63.683261 
L 344.008233 66.472712 
L 290.012277 66.472712 
L 290.012277 63.683261 
z
"/>
     </g>
    </g>
    <g id="line2d_31">
     <path d="M 81 335.546122 
L 101 335.546122 
" style="fill:none;stroke:#00bfbf;stroke-linecap:square;stroke-width:1.5;"/>
    </g>
    <g id="line2d_32"/>
    <g id="text_17">
     <!-- $\partial \mathcal{L}/ \partial \mu^{\underline{P}}_{2}$ -->
     <g transform="translate(109 339.046122)scale(0.1 -0.1)">
      <use transform="translate(0 26.578082)scale(0.996264)" xlink:href="#CMMI12-64"/>
      <use transform="translate(56.915564 26.578082)scale(0.996264)" xlink:href="#CMSY10-76"/>
      <use transform="translate(125.630372 26.578082)scale(0.996264)" xlink:href="#CMMI12-61"/>
      <use transform="translate(174.405291 26.578082)scale(0.996264)" xlink:href="#CMMI12-64"/>
      <use transform="translate(231.320856 26.578082)scale(0.996264)" xlink:href="#CMMI12-22"/>
      <use transform="translate(290.012277 74.841065)scale(0.697382)" xlink:href="#CMMI12-80"/>
      <use transform="translate(290.012277 0)scale(0.697382)" xlink:href="#CMR17-50"/>
      <path d="M 290.012277 63.683261 
L 344.008233 63.683261 
L 344.008233 66.472712 
L 290.012277 66.472712 
L 290.012277 63.683261 
z
"/>
     </g>
    </g>
    <g id="line2d_33">
     <path d="M 81 352.794472 
L 101 352.794472 
" style="fill:none;stroke:#ff0000;stroke-linecap:square;stroke-width:1.5;"/>
    </g>
    <g id="line2d_34"/>
    <g id="text_18">
     <!-- $\partial \mathcal{L}/ \partial \mu^{\underline{P}}_{3}$ -->
     <g transform="translate(109 356.294472)scale(0.1 -0.1)">
      <use transform="translate(0 26.578082)scale(0.996264)" xlink:href="#CMMI12-64"/>
      <use transform="translate(56.915564 26.578082)scale(0.996264)" xlink:href="#CMSY10-76"/>
      <use transform="translate(125.630372 26.578082)scale(0.996264)" xlink:href="#CMMI12-61"/>
      <use transform="translate(174.405291 26.578082)scale(0.996264)" xlink:href="#CMMI12-64"/>
      <use transform="translate(231.320856 26.578082)scale(0.996264)" xlink:href="#CMMI12-22"/>
      <use transform="translate(290.012277 74.841065)scale(0.697382)" xlink:href="#CMMI12-80"/>
      <use transform="translate(290.012277 0)scale(0.697382)" xlink:href="#CMR17-51"/>
      <path d="M 290.012277 63.683261 
L 344.008233 63.683261 
L 344.008233 66.472712 
L 290.012277 66.472712 
L 290.012277 63.683261 
z
"/>
     </g>
    </g>
    <g id="line2d_35">
     <path d="M 81 370.042822 
L 101 370.042822 
" style="fill:none;stroke:#008000;stroke-linecap:square;stroke-width:1.5;"/>
    </g>
    <g id="line2d_36"/>
    <g id="text_19">
     <!-- $\partial \mathcal{L}/ \partial \mu^{\underline{P}}_{4}$ -->
     <g transform="translate(109 373.542822)scale(0.1 -0.1)">
      <use transform="translate(0 26.578082)scale(0.996264)" xlink:href="#CMMI12-64"/>
      <use transform="translate(56.915564 26.578082)scale(0.996264)" xlink:href="#CMSY10-76"/>
      <use transform="translate(125.630372 26.578082)scale(0.996264)" xlink:href="#CMMI12-61"/>
      <use transform="translate(174.405291 26.578082)scale(0.996264)" xlink:href="#CMMI12-64"/>
      <use transform="translate(231.320856 26.578082)scale(0.996264)" xlink:href="#CMMI12-22"/>
      <use transform="translate(290.012277 74.841065)scale(0.697382)" xlink:href="#CMMI12-80"/>
      <use transform="translate(290.012277 0)scale(0.697382)" xlink:href="#CMR17-52"/>
      <path d="M 290.012277 63.683261 
L 344.008233 63.683261 
L 344.008233 66.472712 
L 290.012277 66.472712 
L 290.012277 63.683261 
z
"/>
     </g>
    </g>
   </g>
  </g>
 </g>
 <defs>
  <clipPath id="pbf85051a37">
   <rect height="332.64" width="446.4" x="72" y="51.84"/>
  </clipPath>
 </defs>
</svg>
