<?xml version="1.0" encoding="utf-8" standalone="no"?>
<!DOCTYPE svg PUBLIC "-//W3C//DTD SVG 1.1//EN"
  "http://www.w3.org/Graphics/SVG/1.1/DTD/svg11.dtd">
<!-- Created with matplotlib (http://matplotlib.org/) -->
<svg height="432pt" version="1.1" viewBox="0 0 576 432" width="576pt" xmlns="http://www.w3.org/2000/svg" xmlns:xlink="http://www.w3.org/1999/xlink">
 <defs>
  <style type="text/css">
*{stroke-linecap:butt;stroke-linejoin:round;}
  </style>
 </defs>
 <g id="figure_1">
  <g id="patch_1">
   <path d="M 0 432 
L 576 432 
L 576 0 
L 0 0 
z
" style="fill:#ffffff;"/>
  </g>
  <g id="axes_1">
   <g id="patch_2">
    <path d="M 72 384.48 
L 518.4 384.48 
L 518.4 51.84 
L 72 51.84 
z
" style="fill:#ffffff;"/>
   </g>
   <g id="matplotlib.axis_1">
    <g id="xtick_1">
     <g id="line2d_1">
      <path clip-path="url(#p89a947deb2)" d="M 92.290909 384.48 
L 92.290909 51.84 
" style="fill:none;stroke:#b0b0b0;stroke-dasharray:5.12,1.28,0.8,1.28;stroke-dashoffset:0;stroke-width:0.8;"/>
     </g>
     <g id="line2d_2">
      <defs>
       <path d="M 0 0 
L 0 3.5 
" id="mad4c127b6a" style="stroke:#000000;stroke-width:0.8;"/>
      </defs>
      <g>
       <use style="stroke:#000000;stroke-width:0.8;" x="92.290909" xlink:href="#mad4c127b6a" y="384.48"/>
      </g>
     </g>
     <g id="text_1">
      <!-- $0$ -->
      <defs>
       <path d="M 42 31.640625 
C 42 37.75 41.90625 48.125 37.703125 56.109375 
C 34 63.109375 28.09375 65.59375 22.90625 65.59375 
C 18.09375 65.59375 12 63.40625 8.203125 56.203125 
C 4.203125 48.71875 3.796875 39.4375 3.796875 31.640625 
C 3.796875 25.953125 3.90625 17.28125 7 9.671875 
C 11.296875 -0.609375 19 -2 22.90625 -2 
C 27.5 -2 34.5 -0.109375 38.59375 9.375 
C 41.59375 16.28125 42 24.359375 42 31.640625 
z
M 22.90625 -0.40625 
C 16.5 -0.40625 12.703125 5.078125 11.296875 12.6875 
C 10.203125 18.5625 10.203125 27.15625 10.203125 32.75 
C 10.203125 40.4375 10.203125 46.828125 11.5 52.921875 
C 13.40625 61.390625 19 64 22.90625 64 
C 27 64 32.296875 61.296875 34.203125 53.125 
C 35.5 47.4375 35.59375 40.734375 35.59375 32.75 
C 35.59375 26.25 35.59375 18.265625 34.40625 12.375 
C 32.296875 1.484375 26.40625 -0.40625 22.90625 -0.40625 
z
" id="CMR17-48"/>
      </defs>
      <g transform="translate(89.800241 398.398498)scale(0.1 -0.1)">
       <use transform="scale(0.996264)" xlink:href="#CMR17-48"/>
      </g>
     </g>
    </g>
    <g id="xtick_2">
     <g id="line2d_3">
      <path clip-path="url(#p89a947deb2)" d="M 160.040188 384.48 
L 160.040188 51.84 
" style="fill:none;stroke:#b0b0b0;stroke-dasharray:5.12,1.28,0.8,1.28;stroke-dashoffset:0;stroke-width:0.8;"/>
     </g>
     <g id="line2d_4">
      <g>
       <use style="stroke:#000000;stroke-width:0.8;" x="160.040188" xlink:href="#mad4c127b6a" y="384.48"/>
      </g>
     </g>
     <g id="text_2">
      <!-- $100$ -->
      <defs>
       <path d="M 26.59375 63.40625 
C 26.59375 65.5 26.5 65.5 25.09375 65.5 
C 21.203125 61.1875 15.296875 59.796875 9.703125 59.796875 
C 9.40625 59.796875 8.90625 59.796875 8.796875 59.5 
C 8.703125 59.296875 8.703125 59.09375 8.703125 57 
C 11.796875 57 17 57.59375 21 59.984375 
L 21 7.203125 
C 21 3.6875 20.796875 2.5 12.203125 2.5 
L 9.203125 2.5 
L 9.203125 0 
C 14 0 19 0 23.796875 0 
C 28.59375 0 33.59375 0 38.40625 0 
L 38.40625 2.5 
L 35.40625 2.5 
C 26.796875 2.5 26.59375 3.59375 26.59375 7.15625 
z
" id="CMR17-49"/>
      </defs>
      <g transform="translate(152.568185 398.398498)scale(0.1 -0.1)">
       <use transform="scale(0.996264)" xlink:href="#CMR17-49"/>
       <use transform="translate(45.690477 0)scale(0.996264)" xlink:href="#CMR17-48"/>
       <use transform="translate(91.380954 0)scale(0.996264)" xlink:href="#CMR17-48"/>
      </g>
     </g>
    </g>
    <g id="xtick_3">
     <g id="line2d_5">
      <path clip-path="url(#p89a947deb2)" d="M 227.789467 384.48 
L 227.789467 51.84 
" style="fill:none;stroke:#b0b0b0;stroke-dasharray:5.12,1.28,0.8,1.28;stroke-dashoffset:0;stroke-width:0.8;"/>
     </g>
     <g id="line2d_6">
      <g>
       <use style="stroke:#000000;stroke-width:0.8;" x="227.789467" xlink:href="#mad4c127b6a" y="384.48"/>
      </g>
     </g>
     <g id="text_3">
      <!-- $200$ -->
      <defs>
       <path d="M 41.703125 15.453125 
L 39.90625 15.453125 
C 38.90625 8.375 38.09375 7.171875 37.703125 6.5625 
C 37.203125 5.765625 30 5.765625 28.59375 5.765625 
L 9.40625 5.765625 
C 13 9.671875 20 16.75 28.5 24.953125 
C 34.59375 30.734375 41.703125 37.53125 41.703125 47.421875 
C 41.703125 59.21875 32.296875 66 21.796875 66 
C 10.796875 66 4.09375 56.3125 4.09375 47.34375 
C 4.09375 43.4375 7 42.9375 8.203125 42.9375 
C 9.203125 42.9375 12.203125 43.546875 12.203125 47.03125 
C 12.203125 50.109375 9.59375 51 8.203125 51 
C 7.59375 51 7 50.90625 6.59375 50.703125 
C 8.5 59.21875 14.296875 63.40625 20.40625 63.40625 
C 29.09375 63.40625 34.796875 56.515625 34.796875 47.421875 
C 34.796875 38.734375 29.703125 31.25 24 24.75 
L 4.09375 2.28125 
L 4.09375 0 
L 39.296875 0 
z
" id="CMR17-50"/>
      </defs>
      <g transform="translate(220.317464 398.398498)scale(0.1 -0.1)">
       <use transform="scale(0.996264)" xlink:href="#CMR17-50"/>
       <use transform="translate(45.690477 0)scale(0.996264)" xlink:href="#CMR17-48"/>
       <use transform="translate(91.380954 0)scale(0.996264)" xlink:href="#CMR17-48"/>
      </g>
     </g>
    </g>
    <g id="xtick_4">
     <g id="line2d_7">
      <path clip-path="url(#p89a947deb2)" d="M 295.538746 384.48 
L 295.538746 51.84 
" style="fill:none;stroke:#b0b0b0;stroke-dasharray:5.12,1.28,0.8,1.28;stroke-dashoffset:0;stroke-width:0.8;"/>
     </g>
     <g id="line2d_8">
      <g>
       <use style="stroke:#000000;stroke-width:0.8;" x="295.538746" xlink:href="#mad4c127b6a" y="384.48"/>
      </g>
     </g>
     <g id="text_4">
      <!-- $300$ -->
      <defs>
       <path d="M 22.09375 33.703125 
C 31 33.703125 34.90625 25.96875 34.90625 17.03125 
C 34.90625 5 28.5 0.390625 22.703125 0.390625 
C 17.40625 0.390625 8.796875 3.03125 6.09375 10.828125 
C 6.59375 10.625 7.09375 10.625 7.59375 10.625 
C 10 10.625 11.796875 12.21875 11.796875 14.8125 
C 11.796875 17.703125 9.59375 19 7.59375 19 
C 5.90625 19 3.296875 18.203125 3.296875 14.46875 
C 3.296875 5.234375 12.296875 -2 22.90625 -2 
C 34 -2 42.5 6.71875 42.5 16.953125 
C 42.5 26.671875 34.5 33.703125 25 34.796875 
C 32.59375 36.375 39.90625 43.0625 39.90625 52.015625 
C 39.90625 59.6875 32 65.296875 23 65.296875 
C 13.90625 65.296875 5.90625 59.828125 5.90625 52.015625 
C 5.90625 48.59375 8.5 48 9.796875 48 
C 11.90625 48 13.703125 49.296875 13.703125 51.890625 
C 13.703125 54.46875 11.90625 55.765625 9.796875 55.765625 
C 9.40625 55.765625 8.90625 55.765625 8.5 55.578125 
C 11.40625 61.859375 19.296875 63 22.796875 63 
C 26.296875 63 32.90625 61.328125 32.90625 51.875 
C 32.90625 49.109375 32.5 44.1875 29.09375 39.84375 
C 26.09375 36 22.703125 36 19.40625 35.6875 
C 18.90625 35.6875 16.59375 35.453125 16.203125 35.453125 
C 15.5 35.359375 15.09375 35.265625 15.09375 34.5 
C 15.09375 33.796875 15.203125 33.703125 17.203125 33.703125 
z
" id="CMR17-51"/>
      </defs>
      <g transform="translate(288.066744 398.398498)scale(0.1 -0.1)">
       <use transform="scale(0.996264)" xlink:href="#CMR17-51"/>
       <use transform="translate(45.690477 0)scale(0.996264)" xlink:href="#CMR17-48"/>
       <use transform="translate(91.380954 0)scale(0.996264)" xlink:href="#CMR17-48"/>
      </g>
     </g>
    </g>
    <g id="xtick_5">
     <g id="line2d_9">
      <path clip-path="url(#p89a947deb2)" d="M 363.288025 384.48 
L 363.288025 51.84 
" style="fill:none;stroke:#b0b0b0;stroke-dasharray:5.12,1.28,0.8,1.28;stroke-dashoffset:0;stroke-width:0.8;"/>
     </g>
     <g id="line2d_10">
      <g>
       <use style="stroke:#000000;stroke-width:0.8;" x="363.288025" xlink:href="#mad4c127b6a" y="384.48"/>
      </g>
     </g>
     <g id="text_5">
      <!-- $400$ -->
      <defs>
       <path d="M 33.59375 64.40625 
C 33.59375 66.5 33.5 66.5 31.703125 66.5 
L 2 19.59375 
L 2 17 
L 27.796875 17 
L 27.796875 7.140625 
C 27.796875 3.5 27.59375 2.5 20.59375 2.5 
L 18.703125 2.5 
L 18.703125 0 
C 21.90625 0 27.296875 0 30.703125 0 
C 34.09375 0 39.5 0 42.703125 0 
L 42.703125 2.5 
L 40.796875 2.5 
C 33.796875 2.5 33.59375 3.5 33.59375 7.140625 
L 33.59375 17 
L 43.796875 17 
L 43.796875 19.59375 
L 33.59375 19.59375 
z
M 28.09375 57.859375 
L 28.09375 19.59375 
L 4 19.59375 
z
" id="CMR17-52"/>
      </defs>
      <g transform="translate(355.816023 398.398498)scale(0.1 -0.1)">
       <use transform="scale(0.996264)" xlink:href="#CMR17-52"/>
       <use transform="translate(45.690477 0)scale(0.996264)" xlink:href="#CMR17-48"/>
       <use transform="translate(91.380954 0)scale(0.996264)" xlink:href="#CMR17-48"/>
      </g>
     </g>
    </g>
    <g id="xtick_6">
     <g id="line2d_11">
      <path clip-path="url(#p89a947deb2)" d="M 431.037305 384.48 
L 431.037305 51.84 
" style="fill:none;stroke:#b0b0b0;stroke-dasharray:5.12,1.28,0.8,1.28;stroke-dashoffset:0;stroke-width:0.8;"/>
     </g>
     <g id="line2d_12">
      <g>
       <use style="stroke:#000000;stroke-width:0.8;" x="431.037305" xlink:href="#mad4c127b6a" y="384.48"/>
      </g>
     </g>
     <g id="text_6">
      <!-- $500$ -->
      <defs>
       <path d="M 11.40625 57.6875 
C 12.40625 57.28125 16.5 56 20.703125 56 
C 30 56 35.09375 61.109375 38 64.0625 
C 38 64.953125 38 65.5 37.40625 65.5 
C 37.296875 65.5 37.09375 65.5 36.296875 65.046875 
C 32.796875 63.40625 28.703125 62.078125 23.703125 62.078125 
C 20.703125 62.078125 16.203125 62.484375 11.296875 64.671875 
C 10.203125 65.171875 10 65.171875 9.90625 65.171875 
C 9.40625 65.171875 9.296875 65.0625 9.296875 63.078125 
L 9.296875 34.421875 
C 9.296875 32.640625 9.296875 32.140625 10.296875 32.140625 
C 10.796875 32.140625 11 32.34375 11.5 33.03125 
C 14.703125 37.515625 19.09375 39.40625 24.09375 39.40625 
C 27.59375 39.40625 35.09375 37.21875 35.09375 20.140625 
C 35.09375 16.953125 35.09375 11.171875 32.09375 6.578125 
C 29.59375 2.484375 25.703125 0.390625 21.40625 0.390625 
C 14.796875 0.390625 8.09375 5 6.296875 12.71875 
C 6.703125 12.609375 7.5 12.421875 7.90625 12.421875 
C 9.203125 12.421875 11.703125 13.125 11.703125 16.21875 
C 11.703125 18.90625 9.796875 20 7.90625 20 
C 5.59375 20 4.09375 18.59375 4.09375 15.796875 
C 4.09375 7.09375 11 -2 21.59375 -2 
C 31.90625 -2 41.703125 6.875 41.703125 19.75 
C 41.703125 31.71875 33.90625 41 24.203125 41 
C 19.09375 41 14.796875 39.109375 11.40625 35.53125 
z
" id="CMR17-53"/>
      </defs>
      <g transform="translate(423.565302 398.398498)scale(0.1 -0.1)">
       <use transform="scale(0.996264)" xlink:href="#CMR17-53"/>
       <use transform="translate(45.690477 0)scale(0.996264)" xlink:href="#CMR17-48"/>
       <use transform="translate(91.380954 0)scale(0.996264)" xlink:href="#CMR17-48"/>
      </g>
     </g>
    </g>
    <g id="xtick_7">
     <g id="line2d_13">
      <path clip-path="url(#p89a947deb2)" d="M 498.786584 384.48 
L 498.786584 51.84 
" style="fill:none;stroke:#b0b0b0;stroke-dasharray:5.12,1.28,0.8,1.28;stroke-dashoffset:0;stroke-width:0.8;"/>
     </g>
     <g id="line2d_14">
      <g>
       <use style="stroke:#000000;stroke-width:0.8;" x="498.786584" xlink:href="#mad4c127b6a" y="384.48"/>
      </g>
     </g>
     <g id="text_7">
      <!-- $600$ -->
      <defs>
       <path d="M 10.59375 34 
C 10.59375 57.65625 21.796875 63 28.296875 63 
C 30.40625 63 35.5 62.640625 37.5 59 
C 35.90625 59 32.90625 59 32.90625 55.515625 
C 32.90625 52.828125 35.09375 51.921875 36.5 51.921875 
C 37.40625 51.921875 40.09375 52.3125 40.09375 55.625 
C 40.09375 61.78125 35.09375 65.296875 28.203125 65.296875 
C 16.296875 65.296875 3.796875 52.96875 3.796875 31 
C 3.796875 3.953125 15.09375 -2 23.09375 -2 
C 32.796875 -2 42 6.671875 42 20.046875 
C 42 32.515625 33.90625 41.59375 23.703125 41.59375 
C 17.59375 41.59375 13.09375 37.609375 10.59375 30.625 
z
M 23.09375 0.390625 
C 10.796875 0.390625 10.796875 18.75 10.796875 22.4375 
C 10.796875 29.625 14.203125 40 23.5 40 
C 25.203125 40 30.09375 40 33.40625 33.125 
C 35.203125 29.21875 35.203125 25.140625 35.203125 20.140625 
C 35.203125 14.75 35.203125 10.78125 33.09375 6.78125 
C 30.90625 2.671875 27.703125 0.390625 23.09375 0.390625 
z
" id="CMR17-54"/>
      </defs>
      <g transform="translate(491.314581 398.398498)scale(0.1 -0.1)">
       <use transform="scale(0.996264)" xlink:href="#CMR17-54"/>
       <use transform="translate(45.690477 0)scale(0.996264)" xlink:href="#CMR17-48"/>
       <use transform="translate(91.380954 0)scale(0.996264)" xlink:href="#CMR17-48"/>
      </g>
     </g>
    </g>
    <g id="text_8">
     <!-- Iteration -->
     <defs>
      <path d="M 17.09375 69 
L 8.703125 69 
L 8.703125 0 
L 17.09375 0 
z
" id="CMSS17-73"/>
      <path d="M 16.703125 37 
L 29.703125 37 
L 29.703125 42.765625 
L 16.703125 42.765625 
L 16.703125 55 
L 9.59375 55 
L 9.59375 42.765625 
L 1.703125 42.765625 
L 1.703125 37 
L 9.40625 37 
L 9.40625 11.703125 
C 9.40625 6 10.703125 -1 17.296875 -1 
C 22.296875 -1 26.90625 0.390625 31.296875 2.6875 
L 29.703125 8.5625 
C 27.296875 6.46875 24.40625 5.265625 21.296875 5.265625 
C 16.90625 5.265625 16.703125 10.875 16.703125 13.375 
z
" id="CMSS17-116"/>
      <path d="M 39.09375 21.515625 
C 39.09375 24.84375 38.90625 31.296875 35.703125 36.640625 
C 32.203125 42.390625 26.5 44 22.203125 44 
C 11.796875 44 3 34.1875 3 21.484375 
C 3 9.09375 12.09375 -1 23.59375 -1 
C 28.09375 -1 33.59375 0.296875 38.59375 3.875 
C 38.59375 4.28125 38.40625 6.46875 38.296875 6.5625 
C 38.296875 6.765625 38 9.84375 38 10.25 
C 33.203125 6.359375 27.703125 5.078125 23.703125 5.078125 
C 17.296875 5.078125 10.40625 10.421875 10.09375 21.515625 
z
M 10.90625 27 
C 12.203125 32.5625 16.59375 37.828125 22.203125 37.828125 
C 23.703125 37.828125 30.703125 37.828125 32.5 27 
z
" id="CMSS17-101"/>
      <path d="M 14.90625 21.296875 
C 14.90625 30.703125 21.796875 37 30.59375 37 
L 30.59375 43.578125 
C 24.203125 43.578125 18.203125 40.390625 14.59375 35.203125 
L 14.59375 43.09375 
L 7.5 43.09375 
L 7.5 0 
L 14.90625 0 
z
" id="CMSS17-114"/>
      <path d="M 37.59375 27.984375 
C 37.59375 37.375 30.90625 43.875 21.90625 43.875 
C 17.5 43.875 12.703125 43.078125 7.203125 39.890625 
L 7.796875 33.359375 
C 10.296875 35.125 14.59375 38 21.796875 38 
C 26.90625 38 30 34.0625 30 27.84375 
L 30 24 
C 14 24 4 19.34375 4 11.34375 
C 4 7.203125 6.5 -1 14.796875 -1 
C 16.296875 -1 24.40625 -1 30.203125 3.390625 
L 30.203125 -0.296875 
L 37.59375 -0.296875 
z
M 30 12.75 
C 30 10.953125 30 8.5625 27 6.78125 
C 24.40625 5.078125 21.09375 5.078125 19.703125 5.078125 
C 14.703125 5.078125 11.296875 7.984375 11.296875 11.625 
C 11.296875 18.921875 26.90625 18.921875 30 18.921875 
z
" id="CMSS17-97"/>
      <path d="M 15.296875 65.359375 
L 6.90625 65.359375 
L 6.90625 57 
L 15.296875 57 
z
M 14.796875 42.796875 
L 7.40625 42.796875 
L 7.40625 0 
L 14.796875 0 
z
" id="CMSS17-105"/>
      <path d="M 44.203125 21.1875 
C 44.203125 34 34.703125 44 23.5 44 
C 12 44 2.703125 33.703125 2.703125 21.1875 
C 2.703125 8.5 12.296875 -1 23.40625 -1 
C 34.796875 -1 44.203125 8.796875 44.203125 21.1875 
z
M 23.5 5.265625 
C 16.40625 5.265625 10.296875 11.078125 10.296875 22 
C 10.296875 33.609375 17.40625 37.921875 23.40625 37.921875 
C 29.90625 37.921875 36.59375 33.21875 36.59375 22 
C 36.59375 10.671875 30.09375 5.265625 23.5 5.265625 
z
" id="CMSS17-111"/>
      <path d="M 40.90625 29.328125 
C 40.90625 35.671875 39.40625 44 28.09375 44 
C 21.703125 44 17.5 40.71875 14.703125 37.328125 
L 14.703125 43.09375 
L 7.40625 43.09375 
L 7.40625 0 
L 15 0 
L 15 24.359375 
C 15 30.6875 17.40625 37.9375 24.203125 37.9375 
C 33 37.9375 33.296875 32 33.296875 28.578125 
L 33.296875 0 
L 40.90625 0 
z
" id="CMSS17-110"/>
     </defs>
     <g transform="translate(271.264003 414.021553)scale(0.14 -0.14)">
      <use transform="scale(0.996264)" xlink:href="#CMSS17-73"/>
      <use transform="translate(25.783926 0)scale(0.996264)" xlink:href="#CMSS17-116"/>
      <use transform="translate(59.615492 0)scale(0.996264)" xlink:href="#CMSS17-101"/>
      <use transform="translate(101.254314 0)scale(0.996264)" xlink:href="#CMSS17-114"/>
      <use transform="translate(133.164087 0)scale(0.996264)" xlink:href="#CMSS17-97"/>
      <use transform="translate(178.086007 0)scale(0.996264)" xlink:href="#CMSS17-116"/>
      <use transform="translate(211.917574 0)scale(0.996264)" xlink:href="#CMSS17-105"/>
      <use transform="translate(234.098297 0)scale(0.996264)" xlink:href="#CMSS17-111"/>
      <use transform="translate(280.941921 0)scale(0.996264)" xlink:href="#CMSS17-110"/>
     </g>
    </g>
   </g>
   <g id="matplotlib.axis_2">
    <g id="ytick_1">
     <g id="line2d_15">
      <path clip-path="url(#p89a947deb2)" d="M 72 362.12757 
L 518.4 362.12757 
" style="fill:none;stroke:#b0b0b0;stroke-dasharray:5.12,1.28,0.8,1.28;stroke-dashoffset:0;stroke-width:0.8;"/>
     </g>
     <g id="line2d_16">
      <defs>
       <path d="M 0 0 
L -3.5 0 
" id="m830c4f6d75" style="stroke:#000000;stroke-width:0.8;"/>
      </defs>
      <g>
       <use style="stroke:#000000;stroke-width:0.8;" x="72" xlink:href="#m830c4f6d75" y="362.12757"/>
      </g>
     </g>
     <g id="text_9">
      <!-- $0$ -->
      <g transform="translate(60.018665 365.586819)scale(0.1 -0.1)">
       <use transform="scale(0.996264)" xlink:href="#CMR17-48"/>
      </g>
     </g>
    </g>
    <g id="ytick_2">
     <g id="line2d_17">
      <path clip-path="url(#p89a947deb2)" d="M 72 296.168337 
L 518.4 296.168337 
" style="fill:none;stroke:#b0b0b0;stroke-dasharray:5.12,1.28,0.8,1.28;stroke-dashoffset:0;stroke-width:0.8;"/>
     </g>
     <g id="line2d_18">
      <g>
       <use style="stroke:#000000;stroke-width:0.8;" x="72" xlink:href="#m830c4f6d75" y="296.168337"/>
      </g>
     </g>
     <g id="text_10">
      <!-- $2$ -->
      <g transform="translate(60.018665 299.627586)scale(0.1 -0.1)">
       <use transform="scale(0.996264)" xlink:href="#CMR17-50"/>
      </g>
     </g>
    </g>
    <g id="ytick_3">
     <g id="line2d_19">
      <path clip-path="url(#p89a947deb2)" d="M 72 230.209103 
L 518.4 230.209103 
" style="fill:none;stroke:#b0b0b0;stroke-dasharray:5.12,1.28,0.8,1.28;stroke-dashoffset:0;stroke-width:0.8;"/>
     </g>
     <g id="line2d_20">
      <g>
       <use style="stroke:#000000;stroke-width:0.8;" x="72" xlink:href="#m830c4f6d75" y="230.209103"/>
      </g>
     </g>
     <g id="text_11">
      <!-- $4$ -->
      <g transform="translate(60.018665 233.668352)scale(0.1 -0.1)">
       <use transform="scale(0.996264)" xlink:href="#CMR17-52"/>
      </g>
     </g>
    </g>
    <g id="ytick_4">
     <g id="line2d_21">
      <path clip-path="url(#p89a947deb2)" d="M 72 164.249869 
L 518.4 164.249869 
" style="fill:none;stroke:#b0b0b0;stroke-dasharray:5.12,1.28,0.8,1.28;stroke-dashoffset:0;stroke-width:0.8;"/>
     </g>
     <g id="line2d_22">
      <g>
       <use style="stroke:#000000;stroke-width:0.8;" x="72" xlink:href="#m830c4f6d75" y="164.249869"/>
      </g>
     </g>
     <g id="text_12">
      <!-- $6$ -->
      <g transform="translate(60.018665 167.709119)scale(0.1 -0.1)">
       <use transform="scale(0.996264)" xlink:href="#CMR17-54"/>
      </g>
     </g>
    </g>
    <g id="ytick_5">
     <g id="line2d_23">
      <path clip-path="url(#p89a947deb2)" d="M 72 98.290636 
L 518.4 98.290636 
" style="fill:none;stroke:#b0b0b0;stroke-dasharray:5.12,1.28,0.8,1.28;stroke-dashoffset:0;stroke-width:0.8;"/>
     </g>
     <g id="line2d_24">
      <g>
       <use style="stroke:#000000;stroke-width:0.8;" x="72" xlink:href="#m830c4f6d75" y="98.290636"/>
      </g>
     </g>
     <g id="text_13">
      <!-- $8$ -->
      <defs>
       <path d="M 27.203125 35.375 
C 33.5 38.546875 39.90625 43.328125 39.90625 50.984375 
C 39.90625 60.015625 31.09375 65.296875 23 65.296875 
C 13.90625 65.296875 5.90625 58.734375 5.90625 49.6875 
C 5.90625 47.203125 6.5 42.921875 10.40625 39.140625 
C 11.40625 38.15625 15.59375 35.171875 18.296875 33.28125 
C 13.796875 30.984375 3.296875 25.53125 3.296875 14.59375 
C 3.296875 4.359375 13.09375 -2 22.796875 -2 
C 33.5 -2 42.5 5.65625 42.5 15.78125 
C 42.5 24.84375 36.40625 29.015625 32.40625 31.703125 
z
M 14.09375 44.09375 
C 13.296875 44.59375 9.296875 47.671875 9.296875 52.359375 
C 9.296875 58.421875 15.59375 63 22.796875 63 
C 30.703125 63 36.5 57.4375 36.5 50.96875 
C 36.5 41.703125 26.09375 36.421875 25.59375 36.421875 
C 25.5 36.421875 25.40625 36.421875 24.59375 37.03125 
z
M 32.5 23.734375 
C 34 22.640625 38.796875 19.375 38.796875 13.296875 
C 38.796875 5.953125 31.40625 0.390625 23 0.390625 
C 13.90625 0.390625 7 6.84375 7 14.6875 
C 7 22.546875 13.09375 29.09375 20 32.1875 
z
" id="CMR17-56"/>
      </defs>
      <g transform="translate(60.018665 101.749885)scale(0.1 -0.1)">
       <use transform="scale(0.996264)" xlink:href="#CMR17-56"/>
      </g>
     </g>
    </g>
    <g id="text_14">
     <!-- $\partial \mathcal{L}/ \partial p^\mathrm{S}_{m}$ -->
     <defs>
      <path d="M 45.40625 33.515625 
C 44.796875 39.125 41.296875 45.859375 32.296875 45.859375 
C 18.203125 45.859375 3.796875 31.515625 3.796875 15.5625 
C 3.796875 9.4375 8 -2.09375 21.59375 -2.09375 
C 45.203125 -2.09375 55.296875 32.296875 55.296875 46 
C 55.296875 60.40625 47.203125 71.5 34.40625 71.5 
C 19.90625 71.5 15.59375 58.796875 15.59375 56.09375 
C 15.59375 55.203125 16.203125 53 19 53 
C 22.5 53 24 56.203125 24 57.90625 
C 24 61 20.90625 61 19.59375 61 
C 23.703125 68.40625 31.296875 69.09375 34 69.09375 
C 42.796875 69.09375 48.40625 62.109375 48.40625 50.96875 
C 48.40625 44.578125 46.5 37.1875 45.5 33.515625 
z
M 21.90625 0.59375 
C 12.5 0.59375 10.90625 8.03125 10.90625 12.25 
C 10.90625 16.65625 13.703125 27 15.203125 30.703125 
C 16.5 33.71875 22.203125 43.859375 32.59375 43.859375 
C 41.703125 43.859375 43.796875 35.921875 43.796875 30.515625 
C 43.796875 23.078125 37.296875 0.59375 21.90625 0.59375 
z
" id="CMMI12-64"/>
      <path d="M 18 9.53125 
C 23.40625 17.984375 25.09375 24.40625 26.40625 29.734375 
C 29.90625 43.59375 33.703125 55.65625 39.90625 62.578125 
C 41.09375 63.90625 41.90625 64.796875 45.09375 64.796875 
C 52 64.796875 52.203125 57.875 52.203125 56.453125 
C 52.203125 54.65625 51.703125 53.234375 51.703125 52.734375 
C 51.703125 52.03125 52.296875 52.03125 52.40625 52.03125 
C 54 52.03125 56.703125 53.140625 59.203125 54.953125 
C 61 56.359375 61.90625 57.359375 61.90625 61.46875 
C 61.90625 66.890625 59.09375 71 53.5 71 
C 50.296875 71 41.5 70.203125 31.703125 60.25 
C 23.703125 52.015625 19 33.9375 17.09375 26.40625 
C 15.296875 19.5 14.5 16.375 11.5 10.34375 
C 10.796875 9.15625 8.203125 4.734375 6.796875 3.421875 
C 4.09375 0.921875 3.09375 -0.890625 3.09375 -1.390625 
C 3.09375 -1.59375 3.296875 -2 4 -2 
C 4.40625 -2 6.5 -1.59375 9.09375 0.078125 
C 10.796875 1.0625 11 1.25 13.296875 3.609375 
C 18.296875 3.609375 21.796875 2.703125 28.09375 0.90625 
C 33.203125 -0.5 38.296875 -2 43.40625 -2 
C 51.5 -2 59.703125 4.125 62.90625 8.53125 
C 64.90625 11.234375 65.5 13.75 65.5 14.046875 
C 65.5 14.75 64.90625 14.75 64.796875 14.75 
C 63.203125 14.75 60.796875 13.65625 59.09375 12.4375 
C 56.40625 10.734375 56.203125 10.140625 55.59375 8.421875 
C 55.09375 6.8125 54.5 6.015625 54.09375 5.40625 
C 53.296875 4.203125 53.203125 4.203125 51.703125 4.203125 
C 46.90625 4.203125 41.90625 5.71875 35.296875 7.515625 
C 32.5 8.3125 27 9.9375 22 9.9375 
C 20.703125 9.9375 19.296875 9.828125 18 9.53125 
z
" id="CMSY10-76"/>
      <path d="M 42.90625 71.28125 
C 42.90625 71.390625 43.5 72.90625 43.5 73.09375 
C 43.5 74.296875 42.5 75 41.703125 75 
C 41.203125 75 40.296875 75 39.5 72.796875 
L 6 -21.296875 
C 6 -21.40625 5.40625 -22.890625 5.40625 -23.09375 
C 5.40625 -24.296875 6.40625 -25 7.203125 -25 
C 7.796875 -25 8.703125 -24.890625 9.40625 -22.796875 
z
" id="CMMI12-61"/>
      <path d="M 4.296875 -12.328125 
C 3.59375 -15.3125 3.203125 -16.109375 -0.90625 -16.109375 
C -2.09375 -16.109375 -3.09375 -16.109375 -3.09375 -18 
C -3.09375 -18.203125 -3 -19 -1.90625 -19 
C -0.59375 -19 0.796875 -19 2.09375 -19 
L 6.40625 -19 
C 8.5 -19 13.59375 -19 15.703125 -19 
C 16.296875 -19 17.5 -19 17.5 -17.203125 
C 17.5 -16.109375 16.796875 -16.109375 15.09375 -16.109375 
C 10.5 -16.109375 10.203125 -15.421875 10.203125 -14.640625 
C 10.203125 -13.453125 14.703125 3.421875 15.296875 5.6875 
C 16.40625 2.890625 19.09375 -1 24.296875 -1 
C 35.59375 -1 47.796875 13.671875 47.796875 28.34375 
C 47.796875 37.515625 42.59375 44 35.09375 44 
C 28.703125 44 23.296875 37.8125 22.203125 36.421875 
C 21.40625 41.40625 17.5 44 13.5 44 
C 10.59375 44 8.296875 42.609375 6.40625 38.8125 
C 4.59375 35.21875 3.203125 29.140625 3.203125 28.734375 
C 3.203125 28.34375 3.59375 27.84375 4.296875 27.84375 
C 5.09375 27.84375 5.203125 27.9375 5.796875 30.234375 
C 7.296875 36.125 9.203125 42.015625 13.203125 42.015625 
C 15.5 42.015625 16.296875 40.421875 16.296875 37.453125 
C 16.296875 35.078125 16 34.078125 15.59375 32.296875 
z
M 21.59375 31.140625 
C 22.296875 33.921875 25.09375 36.828125 26.703125 38.21875 
C 27.796875 39.21875 31.09375 42.015625 34.90625 42.015625 
C 39.296875 42.015625 41.296875 37.625 41.296875 32.4375 
C 41.296875 27.640625 38.5 16.359375 36 11.171875 
C 33.5 5.78125 28.90625 1 24.296875 1 
C 17.5 1 16.40625 9.578125 16.40625 9.984375 
C 16.40625 10.28125 16.59375 11.078125 16.703125 11.578125 
z
" id="CMMI12-112"/>
      <path d="M 43.796875 67.03125 
C 43.796875 68.8125 43.703125 68.921875 43.09375 68.921875 
C 42.5 68.921875 42.296875 68.515625 41.90625 67.625 
L 38.90625 61.046875 
C 35.09375 66.515625 29.296875 69 23 69 
C 12.796875 69 4.59375 60.953125 4.59375 50.828125 
C 4.59375 47.75 5.296875 43.375 8.703125 39.21875 
C 12.40625 34.65625 15.90625 33.859375 23.90625 31.765625 
C 26.90625 30.96875 31.90625 29.671875 32.90625 29.28125 
C 38.59375 26.90625 41.59375 20.953125 41.59375 15.390625 
C 41.59375 8.234375 36.5 0.59375 27.796875 0.59375 
C 17.09375 0.59375 7.09375 6.546875 6.40625 20.484375 
C 6.296875 22.078125 6.203125 22.171875 5.5 22.171875 
C 4.703125 22.171875 4.59375 22.078125 4.59375 20.078125 
L 4.59375 -0.015625 
C 4.59375 -1.796875 4.703125 -1.90625 5.296875 -1.90625 
C 6 -1.90625 6.203125 -1.40625 7.59375 1.6875 
C 7.703125 1.984375 7.703125 2.1875 9.59375 5.953125 
C 14.59375 -0.609375 23 -2 27.796875 -2 
C 38.703125 -2 46.40625 7.046875 46.40625 17.5625 
C 46.40625 22.71875 44.5 26.6875 43.40625 28.484375 
C 39.203125 34.84375 34.703125 36.03125 29.90625 37.21875 
C 29.203125 37.53125 29 37.53125 23.40625 38.90625 
C 18 40.296875 15.703125 41 13.203125 43.6875 
C 10.40625 46.75 9.40625 49.9375 9.40625 53.109375 
C 9.40625 59.5625 14.59375 66.609375 23.09375 66.609375 
C 33.703125 66.609375 40.296875 59.15625 41.796875 46.765625 
C 42.09375 44.96875 42.203125 44.875 42.90625 44.875 
C 43.796875 44.875 43.796875 45.171875 43.796875 46.859375 
z
" id="CMR17-83"/>
      <path d="M 20.59375 29.234375 
C 20.796875 29.84375 23.296875 34.828125 27 38.015625 
C 29.59375 40.40625 33 42.015625 36.90625 42.015625 
C 40.90625 42.015625 42.296875 39.015625 42.296875 35.03125 
C 42.296875 34.421875 42.296875 32.4375 41.09375 27.734375 
L 38.59375 17.46875 
C 37.796875 14.46875 35.90625 7.078125 35.703125 5.984375 
C 35.296875 4.484375 34.703125 1.890625 34.703125 1.5 
C 34.703125 0.09375 35.796875 -1 37.296875 -1 
C 40.296875 -1 40.796875 1.296875 41.703125 4.890625 
L 47.703125 28.734375 
C 47.90625 29.53125 53.09375 42.015625 64.09375 42.015625 
C 68.09375 42.015625 69.5 39.015625 69.5 35.03125 
C 69.5 29.4375 65.59375 18.5625 63.40625 12.578125 
C 62.5 10.171875 62 8.875 62 7.078125 
C 62 2.59375 65.09375 -1 69.90625 -1 
C 79.203125 -1 82.703125 13.671875 82.703125 14.265625 
C 82.703125 14.765625 82.296875 15.171875 81.703125 15.171875 
C 80.796875 15.171875 80.703125 14.875 80.203125 13.171875 
C 77.90625 5.1875 74.203125 1 70.203125 1 
C 69.203125 1 67.59375 1 67.59375 4.203125 
C 67.59375 6.8125 68.796875 10 69.203125 11.09375 
C 71 15.90625 75.5 27.703125 75.5 33.515625 
C 75.5 39.5 72 44 64.40625 44 
C 57.703125 44 52.296875 40.21875 48.296875 34.328125 
C 48 39.71875 44.703125 44 37.203125 44 
C 28.296875 44 23.59375 37.734375 21.796875 35.234375 
C 21.5 40.90625 17.40625 44 13 44 
C 10.09375 44 7.796875 42.609375 5.90625 38.8125 
C 4.09375 35.21875 2.703125 29.140625 2.703125 28.734375 
C 2.703125 28.34375 3.09375 27.84375 3.796875 27.84375 
C 4.59375 27.84375 4.703125 27.9375 5.296875 30.234375 
C 6.796875 36.125 8.703125 42.015625 12.703125 42.015625 
C 15 42.015625 15.796875 40.40625 15.796875 37.421875 
C 15.796875 35.21875 14.796875 31.328125 14.09375 28.234375 
L 11.296875 17.46875 
C 10.90625 15.5625 9.796875 11.078125 9.296875 9.28125 
C 8.59375 6.6875 7.5 2 7.5 1.5 
C 7.5 0.09375 8.59375 -1 10.09375 -1 
C 11.296875 -1 12.703125 -0.40625 13.5 1.09375 
C 13.703125 1.59375 14.59375 5.09375 15.09375 7.078125 
L 17.296875 16.0625 
z
" id="CMMI12-109"/>
     </defs>
     <g transform="translate(53.306636 242.199833)rotate(-90)scale(0.14 -0.14)">
      <use transform="translate(0 24.62935)scale(0.996264)" xlink:href="#CMMI12-64"/>
      <use transform="translate(56.915564 24.62935)scale(0.996264)" xlink:href="#CMSY10-76"/>
      <use transform="translate(125.630372 24.62935)scale(0.996264)" xlink:href="#CMMI12-61"/>
      <use transform="translate(174.405291 24.62935)scale(0.996264)" xlink:href="#CMMI12-64"/>
      <use transform="translate(231.320856 24.62935)scale(0.996264)" xlink:href="#CMMI12-112"/>
      <use transform="translate(280.28037 60.782989)scale(0.697382)" xlink:href="#CMR17-83"/>
      <use transform="translate(280.28037 0)scale(0.697382)" xlink:href="#CMMI12-109"/>
     </g>
    </g>
   </g>
   <g id="line2d_25">
    <path clip-path="url(#p89a947deb2)" d="M 92.290909 362.12757 
L 92.968402 191.622951 
L 93.645895 276.875261 
L 94.323387 319.630036 
L 95.00088 341.17562 
L 95.678373 351.069505 
L 96.355866 354.954503 
L 97.033359 357.154244 
L 97.710851 358.819714 
L 98.388344 359.109935 
L 99.065837 358.839502 
L 100.420823 360.079536 
L 101.098315 359.578246 
L 101.775808 359.311111 
L 102.453301 360.063046 
L 103.130794 360.208156 
L 103.808287 359.429837 
L 104.485779 359.53867 
L 105.163272 360.333479 
L 105.840765 359.974001 
L 106.518258 359.241854 
L 107.873243 360.419226 
L 108.550736 359.594735 
L 109.228229 359.228662 
L 109.905722 360.211454 
L 110.583214 360.280712 
L 111.260707 359.202278 
L 111.9382 359.462817 
L 112.615693 360.524761 
L 113.293186 359.89485 
L 113.970678 358.951633 
L 114.648171 359.931128 
L 115.325664 360.617104 
L 116.003157 359.324303 
L 116.68065 359.0044 
L 117.358142 360.498377 
L 118.035635 360.340075 
L 118.713128 358.760351 
L 119.390621 359.459519 
L 120.068114 360.933708 
L 121.423099 358.476726 
L 122.100592 360.270818 
L 122.778085 360.788598 
L 123.455577 359.278131 
L 124.13307 359.413348 
L 124.810563 361.121692 
L 125.488056 362.510134 
L 126.165549 362.965252 
L 126.843041 363.031212 
L 128.87552 363.568779 
L 131.585491 363.370902 
L 139.037912 363.509416 
L 173.590044 364.076665 
L 203.399727 364.429547 
L 204.07722 364.597743 
L 204.754712 364.947327 
L 206.109698 365.870757 
L 207.464684 366.513859 
L 208.142176 366.919508 
L 208.819669 367.14377 
L 209.497162 367.236113 
L 210.852148 367.671444 
L 213.562119 367.707721 
L 214.917104 367.242709 
L 216.27209 367.064619 
L 217.627075 366.259916 
L 218.304568 366.10821 
L 218.982061 365.804797 
L 219.659554 365.20127 
L 220.337047 364.779131 
L 221.692032 364.614233 
L 222.369525 364.264649 
L 223.047018 364.139327 
L 223.724511 364.297629 
L 224.402003 364.225074 
L 225.079496 363.905171 
L 225.756989 363.878788 
L 226.434482 364.093155 
L 227.111975 363.974429 
L 227.789467 363.654526 
L 228.46696 363.71389 
L 229.144453 363.954641 
L 229.821946 363.773253 
L 230.499438 363.456649 
L 231.854424 363.859 
L 233.20941 363.30824 
L 234.564395 363.789743 
L 235.919381 363.199408 
L 236.596874 363.552289 
L 237.274366 363.733677 
L 237.951859 363.295048 
L 238.629352 363.110363 
L 239.306845 363.565481 
L 239.984338 363.265367 
L 240.66183 361.873627 
L 241.339323 361.682345 
L 242.016816 362.932273 
L 242.694309 363.595163 
L 243.371801 362.886101 
L 244.049294 361.517447 
L 244.726787 362.374917 
L 245.40428 363.938151 
L 246.081773 363.614951 
L 246.759265 362.365023 
L 247.436758 362.816844 
L 248.114251 363.832616 
L 248.791744 363.555587 
L 249.469237 361.936288 
L 250.146729 362.506836 
L 250.824222 363.525906 
L 251.501715 363.703996 
L 252.179208 362.803652 
L 252.856701 363.156534 
L 253.534193 364.432845 
L 254.211686 364.211882 
L 254.889179 363.064191 
L 255.566672 363.46984 
L 256.244165 364.657107 
L 256.921657 364.1822 
L 257.59915 363.021318 
L 258.276643 363.608355 
L 258.954136 364.736258 
L 259.631628 364.063474 
L 260.309121 362.965252 
L 260.986614 363.489628 
L 261.664107 364.601041 
L 262.3416 364.096453 
L 263.019092 363.077383 
L 263.696585 363.687506 
L 264.374078 364.670298 
L 265.051571 364.000812 
L 265.729064 363.054297 
L 266.406556 363.532502 
L 267.084049 364.32731 
L 267.761542 363.66442 
L 268.439035 362.843228 
L 269.79402 363.433563 
L 270.471513 362.635456 
L 271.149006 362.104484 
L 271.826499 362.473856 
L 272.503992 362.33864 
L 273.181484 361.543831 
L 273.858977 361.41521 
L 274.53647 361.702133 
L 275.213963 361.276696 
L 275.891455 360.702851 
L 277.246441 360.907324 
L 277.923934 360.376352 
L 278.601427 360.096026 
L 279.278919 360.310393 
L 279.956412 360.161985 
L 280.633905 359.693674 
L 281.311398 359.670589 
L 281.988891 359.822295 
L 283.343876 359.238556 
L 284.698862 359.386964 
L 285.376355 359.073658 
L 286.053847 358.978017 
L 286.73134 359.136319 
L 287.408833 359.034082 
L 288.086326 358.509706 
L 288.763818 358.905461 
L 289.441311 359.858572 
L 290.118804 360.343373 
L 290.796297 360.320287 
L 292.151282 361.05903 
L 292.828775 360.762214 
L 293.506268 360.270818 
L 294.183761 360.399438 
L 294.861254 360.669871 
L 296.216239 360.066344 
L 297.571225 360.782002 
L 298.92621 360.537953 
L 300.281196 361.504255 
L 300.958689 361.425104 
L 301.636182 361.507553 
L 302.313674 362.130868 
L 302.991167 362.569497 
L 303.66866 362.520027 
L 304.346153 362.684926 
L 305.023645 363.242281 
L 305.701138 363.417073 
L 306.378631 363.083979 
L 307.056124 363.060893 
L 307.733617 363.440159 
L 308.411109 363.440159 
L 309.088602 363.060893 
L 309.766095 363.080681 
L 310.443588 363.436861 
L 311.121081 363.364306 
L 311.798573 363.008126 
L 312.476066 363.097171 
L 313.153559 363.426967 
L 313.831052 363.298346 
L 314.508545 362.971848 
L 315.186037 363.120257 
L 315.86353 363.417073 
L 316.541023 363.097171 
L 317.218516 362.589285 
L 317.896008 362.797056 
L 318.573501 363.212599 
L 319.250994 362.506836 
L 319.928487 361.543831 
L 320.60598 362.186933 
L 321.283472 363.568779 
L 321.960965 363.364306 
L 322.638458 362.66184 
L 323.315951 362.177039 
L 323.993444 363.238983 
L 324.670936 363.483032 
L 325.348429 361.972566 
L 326.025922 361.570215 
L 326.703415 362.632158 
L 327.380908 363.067489 
L 328.0584 362.048419 
L 328.735893 361.411912 
L 329.413386 362.170444 
L 330.090879 362.302362 
L 330.768372 361.774688 
L 331.445864 361.41521 
L 332.123357 361.93299 
L 332.80085 361.761496 
L 333.478343 360.580826 
L 334.155835 361.065626 
L 334.833328 362.242999 
L 335.510821 361.629578 
L 336.188314 360.702851 
L 336.865807 361.405316 
L 337.543299 362.520027 
L 338.898285 360.910622 
L 340.253271 362.50024 
L 340.930763 361.834051 
L 341.608256 361.500957 
L 342.285749 362.365023 
L 342.963242 362.599179 
L 343.640735 361.745006 
L 344.318227 361.777986 
L 344.99572 362.727799 
L 345.673213 362.549709 
L 346.350706 361.510851 
L 347.028199 361.679047 
L 347.705691 362.717905 
L 348.383184 362.414493 
L 349.060677 361.362443 
L 349.73817 361.761496 
L 350.415662 362.928975 
L 351.093155 362.454068 
L 351.770648 361.339357 
L 352.448141 361.995652 
L 353.125634 363.364306 
L 353.803126 362.539815 
L 354.480619 361.12499 
L 355.158112 361.834051 
L 355.835605 363.492926 
L 356.513098 362.955358 
L 357.19059 361.171161 
L 357.868083 361.751602 
L 358.545576 363.295048 
L 359.223069 362.711309 
L 359.900562 361.25361 
L 360.578054 361.830753 
L 361.255547 363.057595 
L 361.93304 362.33864 
L 362.610533 360.867749 
L 363.288025 360.927112 
L 363.965518 362.051717 
L 364.643011 362.43428 
L 365.320504 362.104484 
L 365.997997 362.43428 
L 366.675489 362.981742 
L 368.030475 361.959374 
L 369.385461 362.813546 
L 370.062953 361.923096 
L 370.740446 361.474574 
L 371.417939 362.328746 
L 372.095432 362.684926 
L 372.772925 361.62628 
L 373.450417 361.365741 
L 374.12791 362.444174 
L 374.805403 362.572795 
L 375.482896 361.411912 
L 376.160389 361.454786 
L 376.837881 362.717905 
L 377.515374 362.470558 
L 378.192867 361.207439 
L 378.87036 361.636174 
L 379.547852 363.080681 
L 380.225345 362.332044 
L 380.902838 360.864451 
L 381.580331 361.336059 
L 382.257824 363.057595 
L 382.935316 362.454068 
L 383.612809 360.923814 
L 384.290302 361.2701 
L 384.967795 362.866313 
L 385.645288 362.648648 
L 386.32278 361.517447 
L 387.000273 362.167146 
L 387.677766 363.433563 
L 388.355259 362.388109 
L 389.032752 361.07552 
L 389.710244 361.533937 
L 390.387737 363.070787 
L 391.06523 362.576093 
L 391.742723 361.322867 
L 392.420216 361.906607 
L 393.097708 363.35771 
L 393.775201 362.437578 
L 394.452694 361.029349 
L 395.130187 361.336059 
L 395.807679 362.991636 
L 396.485172 362.618966 
L 397.162665 361.283292 
L 397.840158 361.715325 
L 398.517651 363.245579 
L 399.195143 362.480452 
L 399.872636 361.068924 
L 400.550129 361.309676 
L 401.227622 362.928975 
L 401.905115 362.605774 
L 402.582607 361.355847 
L 403.2601 361.810966 
L 403.937593 363.209301 
L 404.615086 362.417791 
L 405.292579 361.177757 
L 405.970071 361.553725 
L 406.647564 362.958656 
L 407.325057 362.487048 
L 408.00255 361.4317 
L 408.680042 362.071505 
L 409.357535 363.245579 
L 410.712521 361.23712 
L 411.390014 361.827456 
L 412.067506 363.03451 
L 412.744999 362.345236 
L 413.422492 361.418508 
L 414.099985 362.219913 
L 414.777478 363.248877 
L 416.132463 361.12499 
L 416.809956 361.77139 
L 417.487449 363.011424 
L 418.164942 362.374917 
L 418.842434 361.44819 
L 419.519927 362.269382 
L 420.19742 363.321432 
L 421.552406 361.012859 
L 422.229898 361.553725 
L 422.907391 362.938869 
L 423.584884 362.457366 
L 424.262377 361.4317 
L 424.939869 362.183635 
L 425.617362 363.380795 
L 426.972348 360.966688 
L 427.649841 361.342655 
L 428.327333 362.843228 
L 429.004826 362.503538 
L 429.682319 361.408614 
L 430.359812 362.055015 
L 431.037305 363.32473 
L 432.39229 361.012859 
L 433.069783 361.352549 
L 433.747276 362.820142 
L 434.424769 362.48375 
L 435.102261 361.444892 
L 435.779754 362.114378 
L 436.457247 363.295048 
L 437.812233 361.098606 
L 438.489725 361.560321 
L 439.167218 362.869611 
L 439.844711 362.401301 
L 440.522204 361.48117 
L 441.199696 362.252893 
L 441.877189 363.271963 
L 443.232175 361.118394 
L 443.909668 361.725219 
L 444.58716 362.935571 
L 445.264653 362.355129 
L 445.942146 361.500957 
L 447.297132 363.262069 
L 448.652117 361.1085 
L 449.32961 361.77139 
L 450.007103 363.008126 
L 450.684596 362.348533 
L 451.362088 361.421806 
L 452.039581 362.252893 
L 452.717074 363.318134 
L 454.072059 360.986475 
L 454.749552 361.487765 
L 455.427045 362.889399 
L 456.104538 362.457366 
L 456.782031 361.451488 
L 457.459523 362.196827 
L 458.137016 363.3742 
L 459.492002 360.979879 
L 460.169495 361.365741 
L 460.846987 362.82344 
L 461.52448 362.470558 
L 462.201973 361.434998 
L 462.879466 362.117676 
L 463.556959 363.321432 
L 464.911944 361.035945 
L 465.589437 361.438296 
L 466.26693 362.82344 
L 466.944423 362.430983 
L 467.621915 361.46468 
L 468.299408 362.206721 
L 468.976901 363.298346 
L 470.331886 361.088712 
L 471.009379 361.606492 
L 471.686872 362.866313 
L 472.364365 362.374917 
L 473.041858 361.510851 
L 473.71935 362.285872 
L 474.396843 363.252175 
L 475.751829 361.138182 
L 476.429322 361.801072 
L 477.106814 362.988338 
L 477.784307 362.315554 
L 478.4618 361.444892 
L 479.816786 363.271963 
L 481.171771 361.042541 
L 481.849264 361.646068 
L 482.526757 362.938869 
L 483.20425 362.394705 
L 483.881742 361.46468 
L 484.559235 362.252893 
L 485.236728 363.331326 
L 486.591713 361.009561 
L 487.269206 361.500957 
L 487.946699 362.892697 
L 488.624192 362.430983 
L 489.301685 361.41521 
L 489.979177 362.134166 
L 490.65667 363.331326 
L 492.011656 361.026051 
L 492.689149 361.438296 
L 493.366641 362.849824 
L 494.044134 362.427685 
L 494.721627 361.408614 
L 495.39912 362.091292 
L 496.076613 363.275261 
L 497.431598 361.085414 
L 498.109091 361.550427 
L 498.109091 361.550427 
" style="fill:none;stroke:#bf00bf;stroke-linecap:square;stroke-width:1.5;"/>
   </g>
   <g id="line2d_26">
    <path clip-path="url(#p89a947deb2)" d="M 92.290909 362.12757 
L 92.968402 230.209103 
L 93.645895 296.168337 
L 94.323387 329.352427 
L 95.00088 345.997239 
L 95.678373 352.5338 
L 96.355866 354.703858 
L 97.033359 357.30595 
L 97.710851 359.396858 
L 99.065837 358.447045 
L 99.74333 359.970703 
L 100.420823 360.544548 
L 101.098315 359.106637 
L 101.775808 359.116531 
L 102.453301 360.709447 
L 103.130794 360.270818 
L 103.808287 358.757053 
L 104.485779 359.677185 
L 105.163272 360.976581 
L 105.840765 359.604629 
L 106.518258 358.651518 
L 107.19575 360.37965 
L 107.873243 360.838067 
L 108.550736 358.862588 
L 109.228229 358.987911 
L 109.905722 361.032647 
L 110.583214 360.244434 
L 111.260707 358.311828 
L 112.615693 361.345953 
L 113.293186 359.281429 
L 113.970678 358.249167 
L 114.648171 360.788598 
L 115.325664 361.055732 
L 116.003157 358.229379 
L 116.68065 358.872482 
L 117.358142 361.692239 
L 118.035635 360.049854 
L 118.713128 357.543403 
L 119.390621 360.161985 
L 120.068114 361.98246 
L 120.745606 358.509706 
L 121.423099 357.711599 
L 122.100592 361.758198 
L 122.778085 361.187651 
L 123.455577 358.064481 
L 124.13307 359.875062 
L 124.810563 363.159832 
L 125.488056 363.931555 
L 126.165549 363.248877 
L 126.843041 362.919081 
L 128.198027 363.601759 
L 128.87552 363.558885 
L 129.553013 363.347816 
L 130.230505 363.255473 
L 132.940477 363.354412 
L 143.102868 363.611653 
L 172.912551 364.086559 
L 202.722234 364.389972 
L 204.07722 364.759343 
L 204.754712 365.290315 
L 205.432205 365.966397 
L 206.109698 366.309385 
L 206.787191 366.457794 
L 208.142176 367.371329 
L 209.497162 367.351541 
L 210.852148 367.971558 
L 212.207133 367.509843 
L 212.884626 367.77368 
L 213.562119 367.842938 
L 214.239611 367.311966 
L 214.917104 366.985468 
L 215.594597 367.196537 
L 216.27209 367.018447 
L 216.949583 366.223638 
L 217.627075 365.847671 
L 218.304568 366.005973 
L 218.982061 365.567344 
L 219.659554 364.558168 
L 220.337047 364.271245 
L 221.014539 364.686788 
L 221.692032 364.5054 
L 222.369525 363.819424 
L 223.047018 363.921661 
L 223.724511 364.495507 
L 224.402003 364.188796 
L 225.079496 363.492926 
L 225.756989 363.793041 
L 226.434482 364.396568 
L 227.111975 363.898575 
L 227.789467 363.215897 
L 229.144453 364.320715 
L 230.499438 363.004828 
L 231.176931 363.766657 
L 231.854424 364.258053 
L 232.531917 363.328028 
L 233.20941 362.85642 
L 233.886902 363.852404 
L 234.564395 364.192094 
L 235.241888 363.044403 
L 235.919381 362.777268 
L 236.596874 363.994216 
L 237.274366 364.066772 
L 237.951859 361.791178 
L 238.629352 362.259489 
L 239.984338 362.12757 
L 240.66183 361.07552 
L 241.339323 361.306378 
L 242.016816 363.064191 
L 242.694309 363.271963 
L 243.371801 361.557023 
L 244.049294 360.89743 
L 245.40428 364.881368 
L 246.081773 362.869611 
L 246.759265 360.37965 
L 247.436758 362.849824 
L 248.114251 366.081826 
L 248.791744 363.703996 
L 249.469237 359.39356 
L 250.824222 365.158397 
L 251.501715 364.251457 
L 252.179208 361.454786 
L 252.856701 363.397285 
L 253.534193 366.454496 
L 254.211686 364.300927 
L 254.889179 361.342655 
L 256.244165 366.589712 
L 257.59915 361.157969 
L 258.276643 364.152519 
L 258.954136 366.635884 
L 259.631628 363.387391 
L 260.309121 361.101904 
L 261.664107 366.424814 
L 262.3416 363.651228 
L 263.019092 361.369039 
L 263.696585 364.32731 
L 264.374078 366.395132 
L 265.051571 363.278559 
L 265.729064 361.395423 
L 266.406556 364.169008 
L 267.084049 365.742136 
L 267.761542 362.800354 
L 268.439035 361.520745 
L 269.116528 363.924959 
L 269.79402 364.089857 
L 270.471513 361.329463 
L 271.149006 361.434998 
L 271.826499 363.35771 
L 272.503992 362.170444 
L 273.181484 360.277414 
L 273.858977 361.421806 
L 274.53647 362.332044 
L 275.213963 360.584124 
L 275.891455 359.851976 
L 276.568948 361.233822 
L 277.246441 361.098606 
L 277.923934 359.52218 
L 278.601427 359.759634 
L 279.278919 360.775406 
L 280.633905 358.984613 
L 281.311398 359.739846 
L 281.988891 360.125707 
L 282.666383 359.093445 
L 283.343876 358.832906 
L 284.021369 359.637609 
L 284.698862 359.446327 
L 285.376355 358.608645 
L 286.053847 358.885674 
L 286.73134 359.423241 
L 287.408833 358.895568 
L 288.086326 359.868466 
L 288.763818 362.035227 
L 289.441311 362.566199 
L 290.118804 361.774688 
L 290.796297 360.706149 
L 292.151282 361.926394 
L 292.828775 360.686361 
L 293.506268 359.753038 
L 294.183761 360.610508 
L 294.861254 361.138182 
L 295.538746 360.086132 
L 296.216239 359.617821 
L 296.893732 360.755618 
L 297.571225 361.289888 
L 298.248718 360.409332 
L 298.92621 360.316989 
L 299.603703 361.613088 
L 300.281196 362.068207 
L 300.958689 361.289888 
L 301.636182 361.48117 
L 302.313674 362.82344 
L 302.991167 363.13015 
L 303.66866 362.414493 
L 304.346153 362.783864 
L 305.023645 363.944747 
L 305.701138 363.753465 
L 306.378631 362.708011 
L 307.056124 362.991636 
L 307.733617 363.961237 
L 308.411109 363.545694 
L 309.088602 362.585987 
L 309.766095 363.047701 
L 310.443588 363.924959 
L 311.121081 363.361008 
L 311.798573 362.526623 
L 313.153559 363.895278 
L 314.508545 362.513432 
L 315.186037 363.248877 
L 315.86353 363.298346 
L 316.541023 362.12757 
L 317.218516 361.853839 
L 317.896008 362.262786 
L 318.573501 362.12757 
L 319.250994 362.12757 
L 319.928487 360.894132 
L 320.60598 362.744289 
L 321.283472 363.545694 
L 322.638458 361.2701 
L 323.315951 362.12757 
L 323.993444 364.152519 
L 324.670936 363.799637 
L 325.348429 360.277414 
L 326.703415 363.938151 
L 327.380908 363.720486 
L 328.0584 360.488483 
L 328.735893 361.243716 
L 329.413386 363.529204 
L 330.090879 362.536517 
L 330.768372 361.220631 
L 331.445864 362.12757 
L 332.123357 362.711309 
L 333.478343 360.864451 
L 334.155835 362.642052 
L 334.833328 362.503538 
L 335.510821 361.896713 
L 336.188314 359.891552 
L 336.865807 362.694819 
L 337.543299 363.077383 
L 338.220792 360.986475 
L 338.898285 359.802507 
L 339.575778 362.797056 
L 340.253271 363.525906 
L 340.930763 360.425822 
L 341.608256 360.673169 
L 342.285749 363.476436 
L 342.963242 363.031212 
L 343.640735 360.138899 
L 344.318227 361.395423 
L 344.99572 363.48633 
L 345.673213 362.055015 
L 346.350706 359.848679 
L 347.028199 361.543831 
L 347.705691 363.595163 
L 349.060677 359.614523 
L 349.73817 361.883521 
L 350.415662 363.703996 
L 351.770648 359.476009 
L 352.448141 362.421089 
L 353.125634 363.542396 
L 353.803126 361.926394 
L 354.480619 358.994506 
L 355.158112 362.249595 
L 355.835605 363.733677 
L 357.19059 359.093445 
L 357.868083 362.335342 
L 358.545576 363.539098 
L 359.900562 359.499095 
L 360.578054 362.622264 
L 361.255547 363.192812 
L 361.93304 361.5933 
L 362.610533 358.783437 
L 363.288025 360.814981 
L 363.965518 363.621547 
L 364.643011 363.070787 
L 365.320504 361.741709 
L 365.997997 363.054297 
L 366.675489 362.965252 
L 368.030475 361.223929 
L 368.707968 362.625562 
L 369.385461 362.12757 
L 370.062953 361.471276 
L 370.740446 361.019455 
L 371.417939 363.011424 
L 372.095432 362.12757 
L 372.772925 360.775406 
L 373.450417 361.085414 
L 374.12791 363.32473 
L 374.805403 362.12757 
L 375.482896 360.069642 
L 376.160389 361.421806 
L 376.837881 363.509416 
L 377.515374 362.12757 
L 378.192867 359.386964 
L 378.87036 361.98246 
L 379.547852 363.568779 
L 380.225345 361.761496 
L 380.902838 358.677902 
L 382.257824 364.277841 
L 383.612809 358.417363 
L 384.290302 361.279994 
L 384.967795 364.69998 
L 385.645288 361.451488 
L 386.32278 359.307813 
L 387.000273 362.642052 
L 387.677766 363.618249 
L 389.032752 359.007698 
L 390.387737 364.251457 
L 391.742723 359.152809 
L 392.420216 362.355129 
L 393.097708 363.746869 
L 393.775201 361.547129 
L 394.452694 358.82631 
L 395.807679 364.416355 
L 397.162665 358.941739 
L 397.840158 361.946182 
L 398.517651 364.010706 
L 399.872636 358.740563 
L 400.550129 361.296484 
L 401.227622 364.548274 
L 401.905115 361.533937 
L 402.582607 359.027486 
L 403.2601 362.078101 
L 403.937593 364.000812 
L 404.615086 361.247014 
L 405.292579 359.02089 
L 406.647564 364.307523 
L 407.325057 361.273398 
L 408.00255 359.403454 
L 408.680042 362.648648 
L 409.357535 363.654526 
L 410.035028 361.07552 
L 410.712521 359.439731 
L 411.390014 362.394705 
L 412.067506 363.862298 
L 412.744999 361.210737 
L 413.422492 359.73325 
L 414.099985 363.097171 
L 414.777478 363.298346 
L 415.45497 360.996369 
L 416.132463 359.532074 
L 416.809956 362.440876 
L 417.487449 363.835914 
L 418.164942 361.388827 
L 418.842434 359.815699 
L 419.519927 363.192812 
L 420.19742 363.120257 
L 421.552406 359.373772 
L 422.229898 362.084697 
L 422.907391 364.014004 
L 423.584884 361.603194 
L 424.262377 359.631013 
L 424.939869 362.994934 
L 425.617362 363.206004 
L 426.294855 361.352549 
L 426.972348 359.152809 
L 428.327333 364.238266 
L 429.682319 359.429837 
L 430.359812 362.691521 
L 431.037305 363.433563 
L 432.39229 359.090147 
L 433.747276 364.317417 
L 434.424769 361.474574 
L 435.102261 359.469413 
L 435.779754 362.770673 
L 436.457247 363.463245 
L 437.13474 361.12499 
L 437.812233 359.291323 
L 438.489725 361.979162 
L 439.167218 364.119539 
L 439.844711 361.293186 
L 440.522204 359.71676 
L 441.199696 363.080681 
L 441.877189 363.275261 
L 442.554682 360.960092 
L 443.232175 359.515584 
L 443.909668 362.358427 
L 444.58716 363.901873 
L 445.264653 361.289888 
L 445.942146 359.914638 
L 446.619639 363.209301 
L 447.297132 363.113661 
L 447.974624 361.049137 
L 448.652117 359.594735 
L 449.32961 362.50024 
L 450.007103 363.746869 
L 450.684596 361.4317 
L 451.362088 359.822295 
L 452.039581 363.215897 
L 452.717074 363.083979 
L 454.072059 359.357282 
L 454.749552 361.985758 
L 455.427045 364.060176 
L 456.104538 361.606492 
L 456.782031 359.654099 
L 457.459523 363.011424 
L 458.137016 363.186216 
L 459.492002 359.202278 
L 460.846987 364.208584 
L 461.52448 361.580108 
L 462.201973 359.52218 
L 462.879466 362.826738 
L 463.556959 363.354412 
L 464.911944 359.222066 
L 466.26693 364.19869 
L 466.944423 361.405316 
L 467.621915 359.621119 
L 468.299408 362.994934 
L 468.976901 363.30824 
L 469.654394 361.039243 
L 470.331886 359.406752 
L 471.009379 362.120974 
L 471.686872 364.033792 
L 472.364365 361.289888 
L 473.041858 359.851976 
L 473.71935 363.136746 
L 474.396843 363.17962 
L 475.074336 361.006263 
L 475.751829 359.614523 
L 476.429322 362.533219 
L 477.106814 363.743571 
L 477.784307 361.316271 
L 478.4618 359.901446 
L 479.139293 363.271963 
L 479.816786 363.074085 
L 480.494278 361.049137 
L 481.171771 359.515584 
L 481.849264 362.292468 
L 482.526757 363.888682 
L 483.20425 361.494361 
L 483.881742 359.815699 
L 484.559235 363.14664 
L 485.236728 363.090575 
L 486.591713 359.36058 
L 487.269206 361.995652 
L 487.946699 364.017302 
L 488.624192 361.583406 
L 489.301685 359.611225 
L 489.979177 362.915783 
L 490.65667 363.262069 
L 492.011656 359.251747 
L 493.366641 364.119539 
L 494.044134 361.504255 
L 494.721627 359.53867 
L 495.39912 362.810248 
L 496.076613 363.390689 
L 497.431598 359.317707 
L 498.109091 361.995652 
L 498.109091 361.995652 
" style="fill:none;stroke:#00bfbf;stroke-linecap:square;stroke-width:1.5;"/>
   </g>
   <g id="line2d_27">
    <path clip-path="url(#p89a947deb2)" d="M 92.290909 362.12757 
L 94.323387 362.180337 
L 95.678373 366.711737 
L 96.355866 366.352259 
L 97.033359 365.161695 
L 97.710851 366.523753 
L 98.388344 367.519737 
L 99.065837 365.781712 
L 99.74333 365.161695 
L 100.420823 367.061321 
L 101.098315 367.081108 
L 101.775808 365.069352 
L 102.453301 365.643197 
L 103.130794 367.585697 
L 103.808287 366.421516 
L 104.485779 364.769237 
L 105.163272 366.523753 
L 105.840765 367.753893 
L 106.518258 365.55745 
L 107.19575 364.970413 
L 107.873243 367.503248 
L 108.550736 367.358137 
L 109.228229 364.756045 
L 109.905722 365.758626 
L 110.583214 368.235395 
L 111.9382 364.386674 
L 112.615693 367.015149 
L 113.293186 368.354122 
L 113.970678 365.138609 
L 114.648171 364.779131 
L 115.325664 368.387101 
L 116.003157 367.605484 
L 116.68065 364.017302 
L 117.358142 366.078528 
L 118.035635 369.303935 
L 118.713128 366.015867 
L 119.390621 363.66442 
L 120.068114 368.067199 
L 120.745606 369.14893 
L 121.423099 364.0206 
L 122.100592 364.627425 
L 122.778085 368.650938 
L 123.455577 366.355557 
L 124.13307 361.979162 
L 124.810563 360.880941 
L 125.488056 361.731815 
L 126.165549 362.183635 
L 127.520534 361.461382 
L 128.198027 361.639472 
L 128.87552 362.051717 
L 129.553013 362.318852 
L 131.585491 362.592583 
L 133.617969 362.948763 
L 154.620246 365.504683 
L 166.137623 366.520455 
L 178.332494 367.368031 
L 190.527364 368.034219 
L 202.044741 368.703706 
L 202.722234 369.122547 
L 203.399727 369.36 
L 204.07722 369.056588 
L 204.754712 368.350824 
L 205.432205 367.922089 
L 206.109698 367.717615 
L 206.787191 367.114088 
L 207.464684 366.329173 
L 208.142176 366.065336 
L 208.819669 365.972993 
L 210.174655 364.627425 
L 211.52964 364.55487 
L 212.884626 363.209301 
L 213.562119 363.3742 
L 214.239611 363.318134 
L 214.917104 362.463962 
L 215.594597 361.979162 
L 216.27209 362.332044 
L 216.949583 362.193529 
L 217.627075 361.230524 
L 218.304568 360.923814 
L 218.982061 361.454786 
L 219.659554 361.41521 
L 220.337047 360.6237 
L 221.014539 360.659977 
L 221.692032 361.524043 
L 222.369525 361.451488 
L 223.047018 360.636891 
L 223.724511 360.933708 
L 224.402003 361.896713 
L 225.079496 361.583406 
L 225.756989 360.716042 
L 226.434482 361.276696 
L 227.111975 362.249595 
L 227.789467 361.639472 
L 228.46696 360.772108 
L 229.821946 362.536517 
L 231.176931 360.814981 
L 231.854424 361.979162 
L 232.531917 362.740991 
L 233.20941 361.467978 
L 233.886902 360.861153 
L 234.564395 362.341938 
L 235.241888 362.863015 
L 235.919381 361.266802 
L 236.596874 360.937006 
L 237.274366 362.714607 
L 237.951859 362.935571 
L 238.629352 361.026051 
L 239.306845 361.029349 
L 239.984338 365.188078 
L 240.66183 365.709156 
L 241.339323 361.566917 
L 242.016816 359.357282 
L 242.694309 364.627425 
L 243.371801 367.64506 
L 244.049294 363.888682 
L 244.726787 358.417363 
L 245.40428 361.781284 
L 246.081773 367.955068 
L 246.759265 364.264649 
L 247.436758 359.317707 
L 248.114251 362.173742 
L 248.791744 368.677322 
L 249.469237 365.108927 
L 250.146729 360.907324 
L 250.824222 361.781284 
L 251.501715 365.870757 
L 252.179208 363.278559 
L 252.856701 358.542686 
L 253.534193 361.243716 
L 254.211686 365.702561 
L 254.889179 362.457366 
L 255.566672 358.100759 
L 256.921657 365.910332 
L 258.276643 357.925967 
L 258.954136 362.371619 
L 259.631628 365.982887 
L 260.986614 358.282147 
L 262.3416 365.570642 
L 263.019092 361.474574 
L 263.696585 358.17991 
L 264.374078 362.50024 
L 265.051571 365.478299 
L 265.729064 361.065626 
L 266.406556 358.816417 
L 267.084049 363.126852 
L 267.761542 364.617531 
L 268.439035 359.977299 
L 269.116528 360.257626 
L 269.79402 364.57136 
L 270.471513 363.232387 
L 271.149006 359.924532 
L 272.503992 364.73296 
L 273.181484 362.005545 
L 273.858977 360.689659 
L 274.53647 363.605057 
L 275.213963 363.974429 
L 275.891455 361.260206 
L 276.568948 361.721921 
L 277.246441 364.010706 
L 277.923934 362.879505 
L 278.601427 361.101904 
L 279.278919 362.572795 
L 279.956412 363.657824 
L 280.633905 361.923096 
L 281.311398 361.359145 
L 281.988891 362.981742 
L 282.666383 362.892697 
L 283.343876 361.342655 
L 284.021369 361.768092 
L 284.698862 362.915783 
L 286.053847 361.167863 
L 286.73134 362.084697 
L 287.408833 362.503538 
L 288.086326 361.293186 
L 288.763818 359.057168 
L 289.441311 359.74974 
L 290.118804 360.871047 
L 291.47379 358.460237 
L 292.828775 360.989773 
L 293.506268 359.934426 
L 294.183761 359.228662 
L 294.861254 360.716042 
L 295.538746 361.672451 
L 296.216239 360.531357 
L 296.893732 360.05645 
L 297.571225 361.547129 
L 298.248718 362.186933 
L 298.92621 360.956794 
L 299.603703 360.692957 
L 300.281196 362.153954 
L 300.958689 362.490346 
L 301.636182 361.217333 
L 302.313674 361.167863 
L 302.991167 362.569497 
L 303.66866 362.562901 
L 304.346153 361.14148 
L 305.023645 361.312974 
L 305.701138 362.724501 
L 306.378631 362.460664 
L 307.056124 361.128288 
L 307.733617 361.557023 
L 308.411109 362.872909 
L 309.088602 362.361725 
L 309.766095 361.138182 
L 310.443588 361.784582 
L 311.121081 362.95206 
L 311.798573 362.226509 
L 312.476066 361.154671 
L 313.831052 362.978444 
L 315.186037 361.184353 
L 315.86353 362.163848 
L 316.541023 363.568779 
L 317.218516 362.539815 
L 317.896008 360.867749 
L 318.573501 362.51673 
L 319.250994 365.643197 
L 319.928487 363.140044 
L 320.60598 359.090147 
L 321.283472 361.573512 
L 321.960965 367.186643 
L 322.638458 365.521173 
L 323.315951 360.39614 
L 323.993444 360.93041 
L 324.670936 366.339067 
L 325.348429 365.36287 
L 326.025922 360.129005 
L 326.703415 360.986475 
L 327.380908 366.029059 
L 328.0584 364.010706 
L 328.735893 359.809103 
L 329.413386 362.325448 
L 330.090879 365.920226 
L 331.445864 360.066344 
L 332.123357 363.050999 
L 332.80085 365.524471 
L 333.478343 361.745006 
L 334.155835 358.918653 
L 335.510821 365.392552 
L 336.188314 360.501675 
L 336.865807 358.420661 
L 337.543299 362.909187 
L 338.220792 364.584551 
L 338.898285 359.881658 
L 339.575778 359.034082 
L 340.253271 362.892697 
L 340.930763 362.876207 
L 341.608256 358.925249 
L 342.285749 359.753038 
L 342.963242 363.209301 
L 343.640735 362.12757 
L 344.318227 358.852694 
L 344.99572 360.185071 
L 345.673213 363.769955 
L 346.350706 362.087995 
L 347.028199 358.790033 
L 347.705691 360.76881 
L 348.383184 364.419653 
L 349.060677 362.084697 
L 349.73817 358.743861 
L 350.415662 361.329463 
L 351.093155 365.244144 
L 352.448141 358.430555 
L 353.125634 361.741709 
L 353.803126 366.813974 
L 354.480619 363.423669 
L 355.158112 358.480024 
L 355.835605 361.068924 
L 356.513098 367.282284 
L 357.868083 358.799927 
L 358.545576 361.784582 
L 359.223069 367.117386 
L 360.578054 357.625852 
L 361.255547 361.870329 
L 361.93304 367.945174 
L 362.610533 364.667001 
L 363.288025 360.683063 
L 363.965518 361.909905 
L 364.643011 363.638036 
L 365.320504 361.273398 
L 365.997997 360.115813 
L 366.675489 362.43428 
L 367.352982 363.671016 
L 368.030475 360.610508 
L 368.707968 360.191667 
L 369.385461 363.440159 
L 370.062953 363.938151 
L 370.740446 359.858572 
L 371.417939 360.211454 
L 372.095432 364.109645 
L 372.772925 363.614951 
L 373.450417 359.208874 
L 374.12791 360.386246 
L 374.805403 364.775833 
L 375.482896 362.994934 
L 376.160389 358.625135 
L 376.837881 360.805087 
L 377.515374 365.580536 
L 378.192867 362.163848 
L 378.87036 358.044693 
L 379.547852 361.46468 
L 380.225345 366.635884 
L 380.902838 362.750885 
L 381.580331 357.655534 
L 382.257824 361.402018 
L 382.935316 366.863443 
L 383.612809 363.245579 
L 384.290302 358.259061 
L 384.967795 361.425104 
L 385.645288 365.554152 
L 386.32278 361.227227 
L 387.000273 358.189804 
L 388.355259 366.46439 
L 389.032752 362.734395 
L 389.710244 358.245869 
L 390.387737 361.632876 
L 391.06523 366.160977 
L 392.420216 358.054587 
L 393.097708 362.068207 
L 393.775201 366.893125 
L 394.452694 363.275261 
L 395.130187 357.988628 
L 395.807679 361.461382 
L 396.485172 366.510561 
L 397.840158 357.843518 
L 398.517651 361.929692 
L 399.195143 366.926104 
L 399.872636 363.225791 
L 400.550129 357.935861 
L 401.227622 361.537235 
L 401.905115 366.25332 
L 403.2601 358.00182 
L 404.615086 366.388537 
L 405.970071 358.272253 
L 407.325057 365.656389 
L 408.00255 361.026051 
L 408.680042 358.456939 
L 409.357535 362.549709 
L 410.035028 365.814691 
L 410.712521 361.570215 
L 411.390014 358.717478 
L 412.744999 365.326593 
L 413.422492 360.584124 
L 414.099985 358.671306 
L 414.777478 362.905889 
L 415.45497 365.867459 
L 416.132463 361.777986 
L 416.809956 358.882376 
L 418.164942 365.333189 
L 418.842434 360.6237 
L 419.519927 358.635029 
L 420.19742 362.919081 
L 420.874913 366.296194 
L 422.229898 358.720776 
L 423.584884 365.676177 
L 424.262377 360.927112 
L 424.939869 358.450343 
L 426.294855 366.685353 
L 426.972348 363.00153 
L 427.649841 358.460237 
L 428.327333 361.741709 
L 429.004826 365.903736 
L 429.682319 361.200843 
L 430.359812 358.288743 
L 431.714797 366.64248 
L 432.39229 362.869611 
L 433.069783 358.410767 
L 434.424769 365.709156 
L 435.102261 360.920516 
L 435.779754 358.410767 
L 436.457247 362.691521 
L 437.13474 366.217043 
L 438.489725 358.654816 
L 439.844711 365.319997 
L 440.522204 360.498377 
L 441.199696 358.644923 
L 441.877189 362.961954 
L 442.554682 365.89714 
L 443.232175 361.797774 
L 443.909668 358.925249 
L 445.264653 365.128715 
L 445.942146 360.488483 
L 446.619639 358.796629 
L 447.297132 362.994934 
L 447.974624 365.89714 
L 448.652117 361.777986 
L 449.32961 358.945037 
L 450.684596 365.432128 
L 451.362088 360.633593 
L 452.039581 358.64822 
L 452.717074 362.971848 
L 453.394567 366.39843 
L 454.749552 358.727372 
L 456.104538 365.656389 
L 456.782031 360.854557 
L 457.459523 358.48662 
L 458.814509 366.622692 
L 460.169495 358.539388 
L 460.846987 361.840647 
L 461.52448 365.758626 
L 462.201973 360.960092 
L 462.879466 358.414065 
L 464.234451 366.457794 
L 465.589437 358.575665 
L 466.944423 365.511279 
L 467.621915 360.620402 
L 468.299408 358.55258 
L 468.976901 362.889399 
L 469.654394 366.098316 
L 470.331886 362.078101 
L 471.009379 358.816417 
L 472.364365 365.174887 
L 473.041858 360.481887 
L 473.71935 358.773543 
L 474.396843 362.98504 
L 475.074336 365.811393 
L 475.751829 361.613088 
L 476.429322 358.981315 
L 477.784307 365.254038 
L 478.4618 360.475291 
L 479.139293 358.760351 
L 479.816786 363.074085 
L 480.494278 366.095018 
L 481.171771 362.12757 
L 481.849264 358.908759 
L 483.20425 365.432128 
L 483.881742 360.706149 
L 484.559235 358.64822 
L 485.236728 362.895995 
L 485.914221 366.401728 
L 487.269206 358.694392 
L 488.624192 365.728944 
L 489.301685 360.96339 
L 489.979177 358.506408 
L 491.334163 366.507263 
L 492.689149 358.559176 
L 494.044134 365.73554 
L 494.721627 360.969985 
L 495.39912 358.489918 
L 496.754105 366.26981 
L 498.109091 358.658114 
L 498.109091 358.658114 
" style="fill:none;stroke:#ff0000;stroke-linecap:square;stroke-width:1.5;"/>
   </g>
   <g id="line2d_28">
    <path clip-path="url(#p89a947deb2)" d="M 92.290909 362.12757 
L 92.968402 66.96 
L 93.645895 214.543785 
L 94.323387 288.543449 
L 95.00088 325.566367 
L 95.678373 345.100194 
L 96.355866 355.910912 
L 97.033359 361.187651 
L 97.710851 363.255473 
L 98.388344 364.87807 
L 99.065837 366.154381 
L 99.74333 365.982887 
L 100.420823 365.570642 
L 101.098315 366.243426 
L 101.775808 366.606202 
L 102.453301 365.827883 
L 103.130794 365.692667 
L 103.808287 366.563328 
L 104.485779 366.4479 
L 105.163272 365.580536 
L 105.840765 365.996079 
L 106.518258 366.810676 
L 107.873243 365.514577 
L 108.550736 366.457794 
L 109.228229 366.850251 
L 109.905722 365.745434 
L 110.583214 365.705858 
L 111.260707 366.935998 
L 111.9382 366.599606 
L 112.615693 365.415638 
L 113.293186 366.193957 
L 113.970678 367.242709 
L 114.648171 366.081826 
L 115.325664 365.359572 
L 116.003157 366.889827 
L 116.68065 367.183345 
L 117.358142 365.448617 
L 118.035635 365.745434 
L 118.713128 367.572505 
L 119.390621 366.645778 
L 120.068114 364.996797 
L 120.745606 366.616096 
L 121.423099 367.892407 
L 122.100592 365.692667 
L 122.778085 365.164993 
L 123.455577 367.044831 
L 124.13307 366.662267 
L 124.810563 364.36029 
L 125.488056 362.793758 
L 126.165549 362.473856 
L 126.843041 362.50024 
L 128.87552 361.896713 
L 131.585491 362.407897 
L 147.167825 364.498804 
L 155.975231 365.432128 
L 168.847594 366.520455 
L 178.332494 367.16026 
L 194.592321 368.004538 
L 201.367248 368.284864 
L 202.044741 367.051427 
L 202.722234 362.12757 
L 498.109091 362.12757 
L 498.109091 362.12757 
" style="fill:none;stroke:#008000;stroke-linecap:square;stroke-width:1.5;"/>
   </g>
   <g id="patch_3">
    <path d="M 72 384.48 
L 72 51.84 
" style="fill:none;stroke:#000000;stroke-linecap:square;stroke-linejoin:miter;stroke-width:0.8;"/>
   </g>
   <g id="patch_4">
    <path d="M 518.4 384.48 
L 518.4 51.84 
" style="fill:none;stroke:#000000;stroke-linecap:square;stroke-linejoin:miter;stroke-width:0.8;"/>
   </g>
   <g id="patch_5">
    <path d="M 72 384.48 
L 518.4 384.48 
" style="fill:none;stroke:#000000;stroke-linecap:square;stroke-linejoin:miter;stroke-width:0.8;"/>
   </g>
   <g id="patch_6">
    <path d="M 72 51.84 
L 518.4 51.84 
" style="fill:none;stroke:#000000;stroke-linecap:square;stroke-linejoin:miter;stroke-width:0.8;"/>
   </g>
   <g id="text_15">
    <!-- $\partial \mathcal{L}/ \partial p^\mathrm{S}_{m}$ -->
    <g transform="translate(271.160167 45.84)scale(0.14 -0.14)">
     <use transform="translate(0 24.62935)scale(0.996264)" xlink:href="#CMMI12-64"/>
     <use transform="translate(56.915564 24.62935)scale(0.996264)" xlink:href="#CMSY10-76"/>
     <use transform="translate(125.630372 24.62935)scale(0.996264)" xlink:href="#CMMI12-61"/>
     <use transform="translate(174.405291 24.62935)scale(0.996264)" xlink:href="#CMMI12-64"/>
     <use transform="translate(231.320856 24.62935)scale(0.996264)" xlink:href="#CMMI12-112"/>
     <use transform="translate(280.28037 60.782989)scale(0.697382)" xlink:href="#CMR17-83"/>
     <use transform="translate(280.28037 0)scale(0.697382)" xlink:href="#CMMI12-109"/>
    </g>
   </g>
   <g id="legend_1">
    <g id="patch_7">
     <path d="M 446.449209 123.325975 
L 511.4 123.325975 
Q 513.4 123.325975 513.4 121.325975 
L 513.4 58.84 
Q 513.4 56.84 511.4 56.84 
L 446.449209 56.84 
Q 444.449209 56.84 444.449209 58.84 
L 444.449209 121.325975 
Q 444.449209 123.325975 446.449209 123.325975 
z
" style="fill:#ffffff;opacity:0.8;stroke:#cccccc;stroke-linejoin:miter;"/>
    </g>
    <g id="line2d_29">
     <path d="M 448.449209 66.274316 
L 468.449209 66.274316 
" style="fill:none;stroke:#bf00bf;stroke-linecap:square;stroke-width:1.5;"/>
    </g>
    <g id="line2d_30"/>
    <g id="text_16">
     <!-- $\partial \mathcal{L}/ \partial p^\mathrm{S}_{1}$ -->
     <g transform="translate(476.449209 69.774316)scale(0.1 -0.1)">
      <use transform="translate(0 24.740171)scale(0.996264)" xlink:href="#CMMI12-64"/>
      <use transform="translate(56.915564 24.740171)scale(0.996264)" xlink:href="#CMSY10-76"/>
      <use transform="translate(125.630372 24.740171)scale(0.996264)" xlink:href="#CMMI12-61"/>
      <use transform="translate(174.405291 24.740171)scale(0.996264)" xlink:href="#CMMI12-64"/>
      <use transform="translate(231.320856 24.740171)scale(0.996264)" xlink:href="#CMMI12-112"/>
      <use transform="translate(280.28037 60.89381)scale(0.697382)" xlink:href="#CMR17-83"/>
      <use transform="translate(280.28037 0)scale(0.697382)" xlink:href="#CMR17-49"/>
     </g>
    </g>
    <g id="line2d_31">
     <path d="M 448.449209 82.145809 
L 468.449209 82.145809 
" style="fill:none;stroke:#00bfbf;stroke-linecap:square;stroke-width:1.5;"/>
    </g>
    <g id="line2d_32"/>
    <g id="text_17">
     <!-- $\partial \mathcal{L}/ \partial p^\mathrm{S}_{2}$ -->
     <g transform="translate(476.449209 85.645809)scale(0.1 -0.1)">
      <use transform="translate(0 24.740171)scale(0.996264)" xlink:href="#CMMI12-64"/>
      <use transform="translate(56.915564 24.740171)scale(0.996264)" xlink:href="#CMSY10-76"/>
      <use transform="translate(125.630372 24.740171)scale(0.996264)" xlink:href="#CMMI12-61"/>
      <use transform="translate(174.405291 24.740171)scale(0.996264)" xlink:href="#CMMI12-64"/>
      <use transform="translate(231.320856 24.740171)scale(0.996264)" xlink:href="#CMMI12-112"/>
      <use transform="translate(280.28037 60.89381)scale(0.697382)" xlink:href="#CMR17-83"/>
      <use transform="translate(280.28037 0)scale(0.697382)" xlink:href="#CMR17-50"/>
     </g>
    </g>
    <g id="line2d_33">
     <path d="M 448.449209 98.017303 
L 468.449209 98.017303 
" style="fill:none;stroke:#ff0000;stroke-linecap:square;stroke-width:1.5;"/>
    </g>
    <g id="line2d_34"/>
    <g id="text_18">
     <!-- $\partial \mathcal{L}/ \partial p^\mathrm{S}_{3}$ -->
     <g transform="translate(476.449209 101.517303)scale(0.1 -0.1)">
      <use transform="translate(0 24.740171)scale(0.996264)" xlink:href="#CMMI12-64"/>
      <use transform="translate(56.915564 24.740171)scale(0.996264)" xlink:href="#CMSY10-76"/>
      <use transform="translate(125.630372 24.740171)scale(0.996264)" xlink:href="#CMMI12-61"/>
      <use transform="translate(174.405291 24.740171)scale(0.996264)" xlink:href="#CMMI12-64"/>
      <use transform="translate(231.320856 24.740171)scale(0.996264)" xlink:href="#CMMI12-112"/>
      <use transform="translate(280.28037 60.89381)scale(0.697382)" xlink:href="#CMR17-83"/>
      <use transform="translate(280.28037 0)scale(0.697382)" xlink:href="#CMR17-51"/>
     </g>
    </g>
    <g id="line2d_35">
     <path d="M 448.449209 113.888797 
L 468.449209 113.888797 
" style="fill:none;stroke:#008000;stroke-linecap:square;stroke-width:1.5;"/>
    </g>
    <g id="line2d_36"/>
    <g id="text_19">
     <!-- $\partial \mathcal{L}/ \partial p^\mathrm{S}_{4}$ -->
     <g transform="translate(476.449209 117.388797)scale(0.1 -0.1)">
      <use transform="translate(0 24.740171)scale(0.996264)" xlink:href="#CMMI12-64"/>
      <use transform="translate(56.915564 24.740171)scale(0.996264)" xlink:href="#CMSY10-76"/>
      <use transform="translate(125.630372 24.740171)scale(0.996264)" xlink:href="#CMMI12-61"/>
      <use transform="translate(174.405291 24.740171)scale(0.996264)" xlink:href="#CMMI12-64"/>
      <use transform="translate(231.320856 24.740171)scale(0.996264)" xlink:href="#CMMI12-112"/>
      <use transform="translate(280.28037 60.89381)scale(0.697382)" xlink:href="#CMR17-83"/>
      <use transform="translate(280.28037 0)scale(0.697382)" xlink:href="#CMR17-52"/>
     </g>
    </g>
   </g>
  </g>
 </g>
 <defs>
  <clipPath id="p89a947deb2">
   <rect height="332.64" width="446.4" x="72" y="51.84"/>
  </clipPath>
 </defs>
</svg>
