<?xml version="1.0" encoding="utf-8" standalone="no"?>
<!DOCTYPE svg PUBLIC "-//W3C//DTD SVG 1.1//EN"
  "http://www.w3.org/Graphics/SVG/1.1/DTD/svg11.dtd">
<!-- Created with matplotlib (http://matplotlib.org/) -->
<svg height="432pt" version="1.1" viewBox="0 0 576 432" width="576pt" xmlns="http://www.w3.org/2000/svg" xmlns:xlink="http://www.w3.org/1999/xlink">
 <defs>
  <style type="text/css">
*{stroke-linecap:butt;stroke-linejoin:round;}
  </style>
 </defs>
 <g id="figure_1">
  <g id="patch_1">
   <path d="M 0 432 
L 576 432 
L 576 0 
L 0 0 
z
" style="fill:#ffffff;"/>
  </g>
  <g id="axes_1">
   <g id="patch_2">
    <path d="M 72 384.48 
L 518.4 384.48 
L 518.4 51.84 
L 72 51.84 
z
" style="fill:#ffffff;"/>
   </g>
   <g id="matplotlib.axis_1">
    <g id="xtick_1">
     <g id="line2d_1">
      <path clip-path="url(#p15cfdd189c)" d="M 92.290909 384.48 
L 92.290909 51.84 
" style="fill:none;stroke:#b0b0b0;stroke-dasharray:5.12,1.28,0.8,1.28;stroke-dashoffset:0;stroke-width:0.8;"/>
     </g>
     <g id="line2d_2">
      <defs>
       <path d="M 0 0 
L 0 3.5 
" id="mf6f31bde49" style="stroke:#000000;stroke-width:0.8;"/>
      </defs>
      <g>
       <use style="stroke:#000000;stroke-width:0.8;" x="92.290909" xlink:href="#mf6f31bde49" y="384.48"/>
      </g>
     </g>
     <g id="text_1">
      <!-- $0$ -->
      <defs>
       <path d="M 42 31.640625 
C 42 37.75 41.90625 48.125 37.703125 56.109375 
C 34 63.109375 28.09375 65.59375 22.90625 65.59375 
C 18.09375 65.59375 12 63.40625 8.203125 56.203125 
C 4.203125 48.71875 3.796875 39.4375 3.796875 31.640625 
C 3.796875 25.953125 3.90625 17.28125 7 9.671875 
C 11.296875 -0.609375 19 -2 22.90625 -2 
C 27.5 -2 34.5 -0.109375 38.59375 9.375 
C 41.59375 16.28125 42 24.359375 42 31.640625 
z
M 22.90625 -0.40625 
C 16.5 -0.40625 12.703125 5.078125 11.296875 12.6875 
C 10.203125 18.5625 10.203125 27.15625 10.203125 32.75 
C 10.203125 40.4375 10.203125 46.828125 11.5 52.921875 
C 13.40625 61.390625 19 64 22.90625 64 
C 27 64 32.296875 61.296875 34.203125 53.125 
C 35.5 47.4375 35.59375 40.734375 35.59375 32.75 
C 35.59375 26.25 35.59375 18.265625 34.40625 12.375 
C 32.296875 1.484375 26.40625 -0.40625 22.90625 -0.40625 
z
" id="CMR17-48"/>
      </defs>
      <g transform="translate(89.800241 398.398498)scale(0.1 -0.1)">
       <use transform="scale(0.996264)" xlink:href="#CMR17-48"/>
      </g>
     </g>
    </g>
    <g id="xtick_2">
     <g id="line2d_3">
      <path clip-path="url(#p15cfdd189c)" d="M 160.040188 384.48 
L 160.040188 51.84 
" style="fill:none;stroke:#b0b0b0;stroke-dasharray:5.12,1.28,0.8,1.28;stroke-dashoffset:0;stroke-width:0.8;"/>
     </g>
     <g id="line2d_4">
      <g>
       <use style="stroke:#000000;stroke-width:0.8;" x="160.040188" xlink:href="#mf6f31bde49" y="384.48"/>
      </g>
     </g>
     <g id="text_2">
      <!-- $100$ -->
      <defs>
       <path d="M 26.59375 63.40625 
C 26.59375 65.5 26.5 65.5 25.09375 65.5 
C 21.203125 61.1875 15.296875 59.796875 9.703125 59.796875 
C 9.40625 59.796875 8.90625 59.796875 8.796875 59.5 
C 8.703125 59.296875 8.703125 59.09375 8.703125 57 
C 11.796875 57 17 57.59375 21 59.984375 
L 21 7.203125 
C 21 3.6875 20.796875 2.5 12.203125 2.5 
L 9.203125 2.5 
L 9.203125 0 
C 14 0 19 0 23.796875 0 
C 28.59375 0 33.59375 0 38.40625 0 
L 38.40625 2.5 
L 35.40625 2.5 
C 26.796875 2.5 26.59375 3.59375 26.59375 7.15625 
z
" id="CMR17-49"/>
      </defs>
      <g transform="translate(152.568185 398.398498)scale(0.1 -0.1)">
       <use transform="scale(0.996264)" xlink:href="#CMR17-49"/>
       <use transform="translate(45.690477 0)scale(0.996264)" xlink:href="#CMR17-48"/>
       <use transform="translate(91.380954 0)scale(0.996264)" xlink:href="#CMR17-48"/>
      </g>
     </g>
    </g>
    <g id="xtick_3">
     <g id="line2d_5">
      <path clip-path="url(#p15cfdd189c)" d="M 227.789467 384.48 
L 227.789467 51.84 
" style="fill:none;stroke:#b0b0b0;stroke-dasharray:5.12,1.28,0.8,1.28;stroke-dashoffset:0;stroke-width:0.8;"/>
     </g>
     <g id="line2d_6">
      <g>
       <use style="stroke:#000000;stroke-width:0.8;" x="227.789467" xlink:href="#mf6f31bde49" y="384.48"/>
      </g>
     </g>
     <g id="text_3">
      <!-- $200$ -->
      <defs>
       <path d="M 41.703125 15.453125 
L 39.90625 15.453125 
C 38.90625 8.375 38.09375 7.171875 37.703125 6.5625 
C 37.203125 5.765625 30 5.765625 28.59375 5.765625 
L 9.40625 5.765625 
C 13 9.671875 20 16.75 28.5 24.953125 
C 34.59375 30.734375 41.703125 37.53125 41.703125 47.421875 
C 41.703125 59.21875 32.296875 66 21.796875 66 
C 10.796875 66 4.09375 56.3125 4.09375 47.34375 
C 4.09375 43.4375 7 42.9375 8.203125 42.9375 
C 9.203125 42.9375 12.203125 43.546875 12.203125 47.03125 
C 12.203125 50.109375 9.59375 51 8.203125 51 
C 7.59375 51 7 50.90625 6.59375 50.703125 
C 8.5 59.21875 14.296875 63.40625 20.40625 63.40625 
C 29.09375 63.40625 34.796875 56.515625 34.796875 47.421875 
C 34.796875 38.734375 29.703125 31.25 24 24.75 
L 4.09375 2.28125 
L 4.09375 0 
L 39.296875 0 
z
" id="CMR17-50"/>
      </defs>
      <g transform="translate(220.317464 398.398498)scale(0.1 -0.1)">
       <use transform="scale(0.996264)" xlink:href="#CMR17-50"/>
       <use transform="translate(45.690477 0)scale(0.996264)" xlink:href="#CMR17-48"/>
       <use transform="translate(91.380954 0)scale(0.996264)" xlink:href="#CMR17-48"/>
      </g>
     </g>
    </g>
    <g id="xtick_4">
     <g id="line2d_7">
      <path clip-path="url(#p15cfdd189c)" d="M 295.538746 384.48 
L 295.538746 51.84 
" style="fill:none;stroke:#b0b0b0;stroke-dasharray:5.12,1.28,0.8,1.28;stroke-dashoffset:0;stroke-width:0.8;"/>
     </g>
     <g id="line2d_8">
      <g>
       <use style="stroke:#000000;stroke-width:0.8;" x="295.538746" xlink:href="#mf6f31bde49" y="384.48"/>
      </g>
     </g>
     <g id="text_4">
      <!-- $300$ -->
      <defs>
       <path d="M 22.09375 33.703125 
C 31 33.703125 34.90625 25.96875 34.90625 17.03125 
C 34.90625 5 28.5 0.390625 22.703125 0.390625 
C 17.40625 0.390625 8.796875 3.03125 6.09375 10.828125 
C 6.59375 10.625 7.09375 10.625 7.59375 10.625 
C 10 10.625 11.796875 12.21875 11.796875 14.8125 
C 11.796875 17.703125 9.59375 19 7.59375 19 
C 5.90625 19 3.296875 18.203125 3.296875 14.46875 
C 3.296875 5.234375 12.296875 -2 22.90625 -2 
C 34 -2 42.5 6.71875 42.5 16.953125 
C 42.5 26.671875 34.5 33.703125 25 34.796875 
C 32.59375 36.375 39.90625 43.0625 39.90625 52.015625 
C 39.90625 59.6875 32 65.296875 23 65.296875 
C 13.90625 65.296875 5.90625 59.828125 5.90625 52.015625 
C 5.90625 48.59375 8.5 48 9.796875 48 
C 11.90625 48 13.703125 49.296875 13.703125 51.890625 
C 13.703125 54.46875 11.90625 55.765625 9.796875 55.765625 
C 9.40625 55.765625 8.90625 55.765625 8.5 55.578125 
C 11.40625 61.859375 19.296875 63 22.796875 63 
C 26.296875 63 32.90625 61.328125 32.90625 51.875 
C 32.90625 49.109375 32.5 44.1875 29.09375 39.84375 
C 26.09375 36 22.703125 36 19.40625 35.6875 
C 18.90625 35.6875 16.59375 35.453125 16.203125 35.453125 
C 15.5 35.359375 15.09375 35.265625 15.09375 34.5 
C 15.09375 33.796875 15.203125 33.703125 17.203125 33.703125 
z
" id="CMR17-51"/>
      </defs>
      <g transform="translate(288.066744 398.398498)scale(0.1 -0.1)">
       <use transform="scale(0.996264)" xlink:href="#CMR17-51"/>
       <use transform="translate(45.690477 0)scale(0.996264)" xlink:href="#CMR17-48"/>
       <use transform="translate(91.380954 0)scale(0.996264)" xlink:href="#CMR17-48"/>
      </g>
     </g>
    </g>
    <g id="xtick_5">
     <g id="line2d_9">
      <path clip-path="url(#p15cfdd189c)" d="M 363.288025 384.48 
L 363.288025 51.84 
" style="fill:none;stroke:#b0b0b0;stroke-dasharray:5.12,1.28,0.8,1.28;stroke-dashoffset:0;stroke-width:0.8;"/>
     </g>
     <g id="line2d_10">
      <g>
       <use style="stroke:#000000;stroke-width:0.8;" x="363.288025" xlink:href="#mf6f31bde49" y="384.48"/>
      </g>
     </g>
     <g id="text_5">
      <!-- $400$ -->
      <defs>
       <path d="M 33.59375 64.40625 
C 33.59375 66.5 33.5 66.5 31.703125 66.5 
L 2 19.59375 
L 2 17 
L 27.796875 17 
L 27.796875 7.140625 
C 27.796875 3.5 27.59375 2.5 20.59375 2.5 
L 18.703125 2.5 
L 18.703125 0 
C 21.90625 0 27.296875 0 30.703125 0 
C 34.09375 0 39.5 0 42.703125 0 
L 42.703125 2.5 
L 40.796875 2.5 
C 33.796875 2.5 33.59375 3.5 33.59375 7.140625 
L 33.59375 17 
L 43.796875 17 
L 43.796875 19.59375 
L 33.59375 19.59375 
z
M 28.09375 57.859375 
L 28.09375 19.59375 
L 4 19.59375 
z
" id="CMR17-52"/>
      </defs>
      <g transform="translate(355.816023 398.398498)scale(0.1 -0.1)">
       <use transform="scale(0.996264)" xlink:href="#CMR17-52"/>
       <use transform="translate(45.690477 0)scale(0.996264)" xlink:href="#CMR17-48"/>
       <use transform="translate(91.380954 0)scale(0.996264)" xlink:href="#CMR17-48"/>
      </g>
     </g>
    </g>
    <g id="xtick_6">
     <g id="line2d_11">
      <path clip-path="url(#p15cfdd189c)" d="M 431.037305 384.48 
L 431.037305 51.84 
" style="fill:none;stroke:#b0b0b0;stroke-dasharray:5.12,1.28,0.8,1.28;stroke-dashoffset:0;stroke-width:0.8;"/>
     </g>
     <g id="line2d_12">
      <g>
       <use style="stroke:#000000;stroke-width:0.8;" x="431.037305" xlink:href="#mf6f31bde49" y="384.48"/>
      </g>
     </g>
     <g id="text_6">
      <!-- $500$ -->
      <defs>
       <path d="M 11.40625 57.6875 
C 12.40625 57.28125 16.5 56 20.703125 56 
C 30 56 35.09375 61.109375 38 64.0625 
C 38 64.953125 38 65.5 37.40625 65.5 
C 37.296875 65.5 37.09375 65.5 36.296875 65.046875 
C 32.796875 63.40625 28.703125 62.078125 23.703125 62.078125 
C 20.703125 62.078125 16.203125 62.484375 11.296875 64.671875 
C 10.203125 65.171875 10 65.171875 9.90625 65.171875 
C 9.40625 65.171875 9.296875 65.0625 9.296875 63.078125 
L 9.296875 34.421875 
C 9.296875 32.640625 9.296875 32.140625 10.296875 32.140625 
C 10.796875 32.140625 11 32.34375 11.5 33.03125 
C 14.703125 37.515625 19.09375 39.40625 24.09375 39.40625 
C 27.59375 39.40625 35.09375 37.21875 35.09375 20.140625 
C 35.09375 16.953125 35.09375 11.171875 32.09375 6.578125 
C 29.59375 2.484375 25.703125 0.390625 21.40625 0.390625 
C 14.796875 0.390625 8.09375 5 6.296875 12.71875 
C 6.703125 12.609375 7.5 12.421875 7.90625 12.421875 
C 9.203125 12.421875 11.703125 13.125 11.703125 16.21875 
C 11.703125 18.90625 9.796875 20 7.90625 20 
C 5.59375 20 4.09375 18.59375 4.09375 15.796875 
C 4.09375 7.09375 11 -2 21.59375 -2 
C 31.90625 -2 41.703125 6.875 41.703125 19.75 
C 41.703125 31.71875 33.90625 41 24.203125 41 
C 19.09375 41 14.796875 39.109375 11.40625 35.53125 
z
" id="CMR17-53"/>
      </defs>
      <g transform="translate(423.565302 398.398498)scale(0.1 -0.1)">
       <use transform="scale(0.996264)" xlink:href="#CMR17-53"/>
       <use transform="translate(45.690477 0)scale(0.996264)" xlink:href="#CMR17-48"/>
       <use transform="translate(91.380954 0)scale(0.996264)" xlink:href="#CMR17-48"/>
      </g>
     </g>
    </g>
    <g id="xtick_7">
     <g id="line2d_13">
      <path clip-path="url(#p15cfdd189c)" d="M 498.786584 384.48 
L 498.786584 51.84 
" style="fill:none;stroke:#b0b0b0;stroke-dasharray:5.12,1.28,0.8,1.28;stroke-dashoffset:0;stroke-width:0.8;"/>
     </g>
     <g id="line2d_14">
      <g>
       <use style="stroke:#000000;stroke-width:0.8;" x="498.786584" xlink:href="#mf6f31bde49" y="384.48"/>
      </g>
     </g>
     <g id="text_7">
      <!-- $600$ -->
      <defs>
       <path d="M 10.59375 34 
C 10.59375 57.65625 21.796875 63 28.296875 63 
C 30.40625 63 35.5 62.640625 37.5 59 
C 35.90625 59 32.90625 59 32.90625 55.515625 
C 32.90625 52.828125 35.09375 51.921875 36.5 51.921875 
C 37.40625 51.921875 40.09375 52.3125 40.09375 55.625 
C 40.09375 61.78125 35.09375 65.296875 28.203125 65.296875 
C 16.296875 65.296875 3.796875 52.96875 3.796875 31 
C 3.796875 3.953125 15.09375 -2 23.09375 -2 
C 32.796875 -2 42 6.671875 42 20.046875 
C 42 32.515625 33.90625 41.59375 23.703125 41.59375 
C 17.59375 41.59375 13.09375 37.609375 10.59375 30.625 
z
M 23.09375 0.390625 
C 10.796875 0.390625 10.796875 18.75 10.796875 22.4375 
C 10.796875 29.625 14.203125 40 23.5 40 
C 25.203125 40 30.09375 40 33.40625 33.125 
C 35.203125 29.21875 35.203125 25.140625 35.203125 20.140625 
C 35.203125 14.75 35.203125 10.78125 33.09375 6.78125 
C 30.90625 2.671875 27.703125 0.390625 23.09375 0.390625 
z
" id="CMR17-54"/>
      </defs>
      <g transform="translate(491.314581 398.398498)scale(0.1 -0.1)">
       <use transform="scale(0.996264)" xlink:href="#CMR17-54"/>
       <use transform="translate(45.690477 0)scale(0.996264)" xlink:href="#CMR17-48"/>
       <use transform="translate(91.380954 0)scale(0.996264)" xlink:href="#CMR17-48"/>
      </g>
     </g>
    </g>
    <g id="text_8">
     <!-- Iteration -->
     <defs>
      <path d="M 17.09375 69 
L 8.703125 69 
L 8.703125 0 
L 17.09375 0 
z
" id="CMSS17-73"/>
      <path d="M 16.703125 37 
L 29.703125 37 
L 29.703125 42.765625 
L 16.703125 42.765625 
L 16.703125 55 
L 9.59375 55 
L 9.59375 42.765625 
L 1.703125 42.765625 
L 1.703125 37 
L 9.40625 37 
L 9.40625 11.703125 
C 9.40625 6 10.703125 -1 17.296875 -1 
C 22.296875 -1 26.90625 0.390625 31.296875 2.6875 
L 29.703125 8.5625 
C 27.296875 6.46875 24.40625 5.265625 21.296875 5.265625 
C 16.90625 5.265625 16.703125 10.875 16.703125 13.375 
z
" id="CMSS17-116"/>
      <path d="M 39.09375 21.515625 
C 39.09375 24.84375 38.90625 31.296875 35.703125 36.640625 
C 32.203125 42.390625 26.5 44 22.203125 44 
C 11.796875 44 3 34.1875 3 21.484375 
C 3 9.09375 12.09375 -1 23.59375 -1 
C 28.09375 -1 33.59375 0.296875 38.59375 3.875 
C 38.59375 4.28125 38.40625 6.46875 38.296875 6.5625 
C 38.296875 6.765625 38 9.84375 38 10.25 
C 33.203125 6.359375 27.703125 5.078125 23.703125 5.078125 
C 17.296875 5.078125 10.40625 10.421875 10.09375 21.515625 
z
M 10.90625 27 
C 12.203125 32.5625 16.59375 37.828125 22.203125 37.828125 
C 23.703125 37.828125 30.703125 37.828125 32.5 27 
z
" id="CMSS17-101"/>
      <path d="M 14.90625 21.296875 
C 14.90625 30.703125 21.796875 37 30.59375 37 
L 30.59375 43.578125 
C 24.203125 43.578125 18.203125 40.390625 14.59375 35.203125 
L 14.59375 43.09375 
L 7.5 43.09375 
L 7.5 0 
L 14.90625 0 
z
" id="CMSS17-114"/>
      <path d="M 37.59375 27.984375 
C 37.59375 37.375 30.90625 43.875 21.90625 43.875 
C 17.5 43.875 12.703125 43.078125 7.203125 39.890625 
L 7.796875 33.359375 
C 10.296875 35.125 14.59375 38 21.796875 38 
C 26.90625 38 30 34.0625 30 27.84375 
L 30 24 
C 14 24 4 19.34375 4 11.34375 
C 4 7.203125 6.5 -1 14.796875 -1 
C 16.296875 -1 24.40625 -1 30.203125 3.390625 
L 30.203125 -0.296875 
L 37.59375 -0.296875 
z
M 30 12.75 
C 30 10.953125 30 8.5625 27 6.78125 
C 24.40625 5.078125 21.09375 5.078125 19.703125 5.078125 
C 14.703125 5.078125 11.296875 7.984375 11.296875 11.625 
C 11.296875 18.921875 26.90625 18.921875 30 18.921875 
z
" id="CMSS17-97"/>
      <path d="M 15.296875 65.359375 
L 6.90625 65.359375 
L 6.90625 57 
L 15.296875 57 
z
M 14.796875 42.796875 
L 7.40625 42.796875 
L 7.40625 0 
L 14.796875 0 
z
" id="CMSS17-105"/>
      <path d="M 44.203125 21.1875 
C 44.203125 34 34.703125 44 23.5 44 
C 12 44 2.703125 33.703125 2.703125 21.1875 
C 2.703125 8.5 12.296875 -1 23.40625 -1 
C 34.796875 -1 44.203125 8.796875 44.203125 21.1875 
z
M 23.5 5.265625 
C 16.40625 5.265625 10.296875 11.078125 10.296875 22 
C 10.296875 33.609375 17.40625 37.921875 23.40625 37.921875 
C 29.90625 37.921875 36.59375 33.21875 36.59375 22 
C 36.59375 10.671875 30.09375 5.265625 23.5 5.265625 
z
" id="CMSS17-111"/>
      <path d="M 40.90625 29.328125 
C 40.90625 35.671875 39.40625 44 28.09375 44 
C 21.703125 44 17.5 40.71875 14.703125 37.328125 
L 14.703125 43.09375 
L 7.40625 43.09375 
L 7.40625 0 
L 15 0 
L 15 24.359375 
C 15 30.6875 17.40625 37.9375 24.203125 37.9375 
C 33 37.9375 33.296875 32 33.296875 28.578125 
L 33.296875 0 
L 40.90625 0 
z
" id="CMSS17-110"/>
     </defs>
     <g transform="translate(271.264003 414.021553)scale(0.14 -0.14)">
      <use transform="scale(0.996264)" xlink:href="#CMSS17-73"/>
      <use transform="translate(25.783926 0)scale(0.996264)" xlink:href="#CMSS17-116"/>
      <use transform="translate(59.615492 0)scale(0.996264)" xlink:href="#CMSS17-101"/>
      <use transform="translate(101.254314 0)scale(0.996264)" xlink:href="#CMSS17-114"/>
      <use transform="translate(133.164087 0)scale(0.996264)" xlink:href="#CMSS17-97"/>
      <use transform="translate(178.086007 0)scale(0.996264)" xlink:href="#CMSS17-116"/>
      <use transform="translate(211.917574 0)scale(0.996264)" xlink:href="#CMSS17-105"/>
      <use transform="translate(234.098297 0)scale(0.996264)" xlink:href="#CMSS17-111"/>
      <use transform="translate(280.941921 0)scale(0.996264)" xlink:href="#CMSS17-110"/>
     </g>
    </g>
   </g>
   <g id="matplotlib.axis_2">
    <g id="ytick_1">
     <g id="line2d_15">
      <path clip-path="url(#p15cfdd189c)" d="M 72 369.36 
L 518.4 369.36 
" style="fill:none;stroke:#b0b0b0;stroke-dasharray:5.12,1.28,0.8,1.28;stroke-dashoffset:0;stroke-width:0.8;"/>
     </g>
     <g id="line2d_16">
      <defs>
       <path d="M 0 0 
L -3.5 0 
" id="m0cb4de2a5c" style="stroke:#000000;stroke-width:0.8;"/>
      </defs>
      <g>
       <use style="stroke:#000000;stroke-width:0.8;" x="72" xlink:href="#m0cb4de2a5c" y="369.36"/>
      </g>
     </g>
     <g id="text_9">
      <!-- $0$ -->
      <g transform="translate(60.018665 372.819249)scale(0.1 -0.1)">
       <use transform="scale(0.996264)" xlink:href="#CMR17-48"/>
      </g>
     </g>
    </g>
    <g id="ytick_2">
     <g id="line2d_17">
      <path clip-path="url(#p15cfdd189c)" d="M 72 311.50544 
L 518.4 311.50544 
" style="fill:none;stroke:#b0b0b0;stroke-dasharray:5.12,1.28,0.8,1.28;stroke-dashoffset:0;stroke-width:0.8;"/>
     </g>
     <g id="line2d_18">
      <g>
       <use style="stroke:#000000;stroke-width:0.8;" x="72" xlink:href="#m0cb4de2a5c" y="311.50544"/>
      </g>
     </g>
     <g id="text_10">
      <!-- $2$ -->
      <g transform="translate(60.018665 314.964689)scale(0.1 -0.1)">
       <use transform="scale(0.996264)" xlink:href="#CMR17-50"/>
      </g>
     </g>
    </g>
    <g id="ytick_3">
     <g id="line2d_19">
      <path clip-path="url(#p15cfdd189c)" d="M 72 253.65088 
L 518.4 253.65088 
" style="fill:none;stroke:#b0b0b0;stroke-dasharray:5.12,1.28,0.8,1.28;stroke-dashoffset:0;stroke-width:0.8;"/>
     </g>
     <g id="line2d_20">
      <g>
       <use style="stroke:#000000;stroke-width:0.8;" x="72" xlink:href="#m0cb4de2a5c" y="253.65088"/>
      </g>
     </g>
     <g id="text_11">
      <!-- $4$ -->
      <g transform="translate(60.018665 257.110129)scale(0.1 -0.1)">
       <use transform="scale(0.996264)" xlink:href="#CMR17-52"/>
      </g>
     </g>
    </g>
    <g id="ytick_4">
     <g id="line2d_21">
      <path clip-path="url(#p15cfdd189c)" d="M 72 195.79632 
L 518.4 195.79632 
" style="fill:none;stroke:#b0b0b0;stroke-dasharray:5.12,1.28,0.8,1.28;stroke-dashoffset:0;stroke-width:0.8;"/>
     </g>
     <g id="line2d_22">
      <g>
       <use style="stroke:#000000;stroke-width:0.8;" x="72" xlink:href="#m0cb4de2a5c" y="195.79632"/>
      </g>
     </g>
     <g id="text_12">
      <!-- $6$ -->
      <g transform="translate(60.018665 199.255569)scale(0.1 -0.1)">
       <use transform="scale(0.996264)" xlink:href="#CMR17-54"/>
      </g>
     </g>
    </g>
    <g id="ytick_5">
     <g id="line2d_23">
      <path clip-path="url(#p15cfdd189c)" d="M 72 137.94176 
L 518.4 137.94176 
" style="fill:none;stroke:#b0b0b0;stroke-dasharray:5.12,1.28,0.8,1.28;stroke-dashoffset:0;stroke-width:0.8;"/>
     </g>
     <g id="line2d_24">
      <g>
       <use style="stroke:#000000;stroke-width:0.8;" x="72" xlink:href="#m0cb4de2a5c" y="137.94176"/>
      </g>
     </g>
     <g id="text_13">
      <!-- $8$ -->
      <defs>
       <path d="M 27.203125 35.375 
C 33.5 38.546875 39.90625 43.328125 39.90625 50.984375 
C 39.90625 60.015625 31.09375 65.296875 23 65.296875 
C 13.90625 65.296875 5.90625 58.734375 5.90625 49.6875 
C 5.90625 47.203125 6.5 42.921875 10.40625 39.140625 
C 11.40625 38.15625 15.59375 35.171875 18.296875 33.28125 
C 13.796875 30.984375 3.296875 25.53125 3.296875 14.59375 
C 3.296875 4.359375 13.09375 -2 22.796875 -2 
C 33.5 -2 42.5 5.65625 42.5 15.78125 
C 42.5 24.84375 36.40625 29.015625 32.40625 31.703125 
z
M 14.09375 44.09375 
C 13.296875 44.59375 9.296875 47.671875 9.296875 52.359375 
C 9.296875 58.421875 15.59375 63 22.796875 63 
C 30.703125 63 36.5 57.4375 36.5 50.96875 
C 36.5 41.703125 26.09375 36.421875 25.59375 36.421875 
C 25.5 36.421875 25.40625 36.421875 24.59375 37.03125 
z
M 32.5 23.734375 
C 34 22.640625 38.796875 19.375 38.796875 13.296875 
C 38.796875 5.953125 31.40625 0.390625 23 0.390625 
C 13.90625 0.390625 7 6.84375 7 14.6875 
C 7 22.546875 13.09375 29.09375 20 32.1875 
z
" id="CMR17-56"/>
      </defs>
      <g transform="translate(60.018665 141.401009)scale(0.1 -0.1)">
       <use transform="scale(0.996264)" xlink:href="#CMR17-56"/>
      </g>
     </g>
    </g>
    <g id="ytick_6">
     <g id="line2d_25">
      <path clip-path="url(#p15cfdd189c)" d="M 72 80.0872 
L 518.4 80.0872 
" style="fill:none;stroke:#b0b0b0;stroke-dasharray:5.12,1.28,0.8,1.28;stroke-dashoffset:0;stroke-width:0.8;"/>
     </g>
     <g id="line2d_26">
      <g>
       <use style="stroke:#000000;stroke-width:0.8;" x="72" xlink:href="#m0cb4de2a5c" y="80.0872"/>
      </g>
     </g>
     <g id="text_14">
      <!-- $10$ -->
      <g transform="translate(55.037329 83.546449)scale(0.1 -0.1)">
       <use transform="scale(0.996264)" xlink:href="#CMR17-49"/>
       <use transform="translate(45.690477 0)scale(0.996264)" xlink:href="#CMR17-48"/>
      </g>
     </g>
    </g>
    <g id="text_15">
     <!-- $\mu^{\overline{P}}_{m}$ -->
     <defs>
      <path d="M 14.40625 2.1875 
C 16.90625 -0.09375 20.59375 -1 24 -1 
C 30.40625 -1 34.796875 3.25 37.09375 6.328125 
C 38.09375 1.078125 42.296875 -1 45.796875 -1 
C 48.796875 -1 51.203125 0.78125 53 4.328125 
C 54.59375 7.703125 56 13.734375 56 14.109375 
C 56 14.609375 55.59375 15 55 15 
C 54.09375 15 54 14.5 53.59375 13.03125 
C 52.09375 7.203125 50.203125 1 46.09375 1 
C 43.203125 1 43 3.578125 43 5.59375 
C 43 7.875 43.90625 11.484375 44.59375 14.46875 
L 47.40625 25.234375 
C 47.796875 27.140625 48.90625 31.609375 49.40625 33.421875 
C 50 35.8125 51.09375 40.109375 51.09375 40.5 
C 51.09375 42 49.90625 43 48.40625 43 
C 47.5 43 45.40625 42.59375 44.59375 39.609375 
L 37.59375 11.875 
C 37.09375 9.875 37.09375 9.671875 35.796875 8.078125 
C 34.59375 6.390625 30.703125 1 24.40625 1 
C 18.796875 1 17 5.09375 17 9.765625 
C 17 12.671875 17.90625 16.15625 18.296875 17.859375 
L 22.796875 35.828125 
C 23.296875 37.71875 24.09375 40.90625 24.09375 41.515625 
C 24.09375 43.109375 22.796875 44 21.5 44 
C 20.59375 44 18.40625 43.703125 17.59375 40.5 
L 3.09375 -17.296875 
C 3 -17.796875 2.796875 -18.390625 2.796875 -19 
C 2.796875 -20.5 4 -21.5 5.5 -21.5 
C 8.40625 -21.5 9 -19.1875 9.703125 -16.40625 
z
" id="CMMI12-22"/>
      <path d="M 29.59375 31.609375 
L 46.40625 31.609375 
C 60.203125 31.609375 74 41.765625 74 53.140625 
C 74 60.90625 67.40625 68 54.796875 68 
L 23.90625 68 
C 22 68 21.09375 68 21.09375 66.109375 
C 21.09375 65.109375 22 65.109375 23.5 65.109375 
C 29.59375 65.109375 29.59375 64.3125 29.59375 63.21875 
C 29.59375 63.03125 29.59375 62.421875 29.203125 60.921875 
L 15.703125 7.375 
C 14.796875 3.890625 14.59375 2.890625 7.59375 2.890625 
C 5.703125 2.890625 4.703125 2.890625 4.703125 1.09375 
C 4.703125 0 5.59375 0 6.203125 0 
C 8.09375 0 10.09375 0 12 0 
L 23.703125 0 
C 25.59375 0 27.703125 0 29.59375 0 
C 30.40625 0 31.5 0 31.5 1.890625 
C 31.5 2.890625 30.59375 2.890625 29.09375 2.890625 
C 23.09375 2.890625 23 3.59375 23 4.578125 
C 23 5.078125 23.09375 5.765625 23.203125 6.265625 
z
M 36.796875 61.40625 
C 37.703125 65.109375 38.09375 65.109375 42 65.109375 
L 51.90625 65.109375 
C 59.40625 65.109375 65.59375 62.703125 65.59375 55.234375 
C 65.59375 52.640625 64.296875 44.171875 59.703125 39.59375 
C 58 37.796875 53.203125 34 44.09375 34 
L 30 34 
z
" id="CMMI12-80"/>
      <path d="M 20.59375 29.234375 
C 20.796875 29.84375 23.296875 34.828125 27 38.015625 
C 29.59375 40.40625 33 42.015625 36.90625 42.015625 
C 40.90625 42.015625 42.296875 39.015625 42.296875 35.03125 
C 42.296875 34.421875 42.296875 32.4375 41.09375 27.734375 
L 38.59375 17.46875 
C 37.796875 14.46875 35.90625 7.078125 35.703125 5.984375 
C 35.296875 4.484375 34.703125 1.890625 34.703125 1.5 
C 34.703125 0.09375 35.796875 -1 37.296875 -1 
C 40.296875 -1 40.796875 1.296875 41.703125 4.890625 
L 47.703125 28.734375 
C 47.90625 29.53125 53.09375 42.015625 64.09375 42.015625 
C 68.09375 42.015625 69.5 39.015625 69.5 35.03125 
C 69.5 29.4375 65.59375 18.5625 63.40625 12.578125 
C 62.5 10.171875 62 8.875 62 7.078125 
C 62 2.59375 65.09375 -1 69.90625 -1 
C 79.203125 -1 82.703125 13.671875 82.703125 14.265625 
C 82.703125 14.765625 82.296875 15.171875 81.703125 15.171875 
C 80.796875 15.171875 80.703125 14.875 80.203125 13.171875 
C 77.90625 5.1875 74.203125 1 70.203125 1 
C 69.203125 1 67.59375 1 67.59375 4.203125 
C 67.59375 6.8125 68.796875 10 69.203125 11.09375 
C 71 15.90625 75.5 27.703125 75.5 33.515625 
C 75.5 39.5 72 44 64.40625 44 
C 57.703125 44 52.296875 40.21875 48.296875 34.328125 
C 48 39.71875 44.703125 44 37.203125 44 
C 28.296875 44 23.59375 37.734375 21.796875 35.234375 
C 21.5 40.90625 17.40625 44 13 44 
C 10.09375 44 7.796875 42.609375 5.90625 38.8125 
C 4.09375 35.21875 2.703125 29.140625 2.703125 28.734375 
C 2.703125 28.34375 3.09375 27.84375 3.796875 27.84375 
C 4.59375 27.84375 4.703125 27.9375 5.296875 30.234375 
C 6.796875 36.125 8.703125 42.015625 12.703125 42.015625 
C 15 42.015625 15.796875 40.40625 15.796875 37.421875 
C 15.796875 35.21875 14.796875 31.328125 14.09375 28.234375 
L 11.296875 17.46875 
C 10.90625 15.5625 9.796875 11.078125 9.296875 9.28125 
C 8.59375 6.6875 7.5 2 7.5 1.5 
C 7.5 0.09375 8.59375 -1 10.09375 -1 
C 11.296875 -1 12.703125 -0.40625 13.5 1.09375 
C 13.703125 1.59375 14.59375 5.09375 15.09375 7.078125 
L 17.296875 16.0625 
z
" id="CMMI12-109"/>
     </defs>
     <g transform="translate(48.325301 226.688618)rotate(-90)scale(0.14 -0.14)">
      <use transform="translate(0 24.62935)scale(0.996264)" xlink:href="#CMMI12-22"/>
      <use transform="translate(58.691421 60.782989)scale(0.697382)" xlink:href="#CMMI12-80"/>
      <use transform="translate(58.691421 0)scale(0.697382)" xlink:href="#CMMI12-109"/>
      <path d="M 58.691421 116.805753 
L 112.687377 116.805753 
L 112.687377 119.595204 
L 58.691421 119.595204 
L 58.691421 116.805753 
z
"/>
     </g>
    </g>
   </g>
   <g id="line2d_27">
    <path clip-path="url(#p15cfdd189c)" d="M 92.290909 369.36 
L 498.109091 369.36 
L 498.109091 369.36 
" style="fill:none;stroke:#bf00bf;stroke-linecap:square;stroke-width:1.5;"/>
   </g>
   <g id="line2d_28">
    <path clip-path="url(#p15cfdd189c)" d="M 92.290909 369.36 
L 242.016816 369.36 
L 242.694309 368.859558 
L 243.371801 369.36 
L 244.726787 369.36 
L 245.40428 368.153732 
L 246.081773 367.826854 
L 246.759265 369.36 
L 247.436758 369.044693 
L 248.114251 367.309056 
L 248.791744 366.617694 
L 249.469237 367.815283 
L 250.146729 367.763214 
L 250.824222 366.432559 
L 251.501715 365.501101 
L 252.179208 365.796159 
L 252.856701 365.240755 
L 253.534193 363.343126 
L 254.211686 362.388526 
L 254.889179 362.73276 
L 255.566672 362.006685 
L 256.244165 360.048309 
L 256.921657 359.299092 
L 257.59915 359.724323 
L 258.276643 358.833363 
L 258.954136 356.85763 
L 259.631628 356.305119 
L 260.309121 356.756384 
L 260.986614 355.984026 
L 261.664107 354.097967 
L 262.3416 353.429747 
L 263.019092 353.762411 
L 263.696585 352.799132 
L 264.374078 350.927537 
L 265.051571 350.424202 
L 265.729064 350.745295 
L 266.406556 349.84855 
L 267.084049 348.263335 
L 267.761542 347.968276 
L 268.439035 348.234407 
L 269.79402 346.585552 
L 271.149006 347.236416 
L 271.826499 346.698369 
L 272.503992 346.67812 
L 273.181484 347.488084 
L 273.858977 347.797605 
L 274.53647 347.710824 
L 275.213963 348.384829 
L 275.891455 349.38282 
L 277.246441 350.227497 
L 278.601427 352.408614 
L 279.278919 353.001623 
L 279.956412 353.956223 
L 280.633905 355.336055 
L 282.666383 358.593266 
L 283.343876 360.03963 
L 284.698862 362.304636 
L 286.053847 365.269683 
L 286.73134 366.455701 
L 288.086326 369.36 
L 320.60598 369.36 
L 321.283472 368.738063 
L 321.960965 368.607891 
L 322.638458 369.36 
L 323.315951 369.36 
L 324.670936 367.73718 
L 325.348429 369.36 
L 326.025922 369.36 
L 327.380908 367.867352 
L 328.735893 369.36 
L 329.413386 368.743849 
L 330.090879 368.5645 
L 330.768372 369.36 
L 331.445864 369.36 
L 332.123357 369.102547 
L 332.80085 369.36 
L 334.155835 369.36 
L 334.833328 369.195115 
L 335.510821 369.36 
L 355.158112 369.36 
L 355.835605 368.654174 
L 356.513098 369.36 
L 357.868083 369.36 
L 358.545576 368.740956 
L 359.223069 369.36 
L 360.578054 369.36 
L 361.255547 368.891378 
L 361.93304 369.36 
L 498.109091 369.36 
L 498.109091 369.36 
" style="fill:none;stroke:#00bfbf;stroke-linecap:square;stroke-width:1.5;"/>
   </g>
   <g id="line2d_29">
    <path clip-path="url(#p15cfdd189c)" d="M 92.290909 369.36 
L 94.323387 369.336858 
L 95.00088 368.301262 
L 96.355866 364.436577 
L 97.033359 363.108815 
L 97.710851 361.179365 
L 98.388344 358.816006 
L 99.74333 355.88278 
L 101.098315 351.546581 
L 101.775808 350.256424 
L 102.453301 348.7146 
L 103.130794 346.322314 
L 103.808287 344.439148 
L 104.485779 343.282057 
L 105.163272 341.352607 
L 105.840765 338.88511 
L 107.19575 336.134126 
L 108.550736 331.48262 
L 109.228229 330.328421 
L 109.905722 328.734528 
L 110.583214 326.058755 
L 111.260707 324.178481 
L 111.9382 323.189168 
L 112.615693 321.045657 
L 113.293186 318.314922 
L 114.648171 315.832961 
L 116.003157 310.683905 
L 116.68065 309.853692 
L 117.358142 308.120948 
L 118.035635 304.97366 
L 118.713128 303.269843 
L 119.390621 302.595838 
L 120.068114 299.98949 
L 120.745606 296.911627 
L 121.423099 296.081414 
L 122.100592 294.98507 
L 122.778085 292.124162 
L 123.455577 290.269924 
L 124.13307 290.333564 
L 124.810563 290.880289 
L 125.488056 291.056746 
L 126.165549 291.030711 
L 126.843041 291.172455 
L 128.198027 291.678682 
L 128.87552 291.713395 
L 130.907998 291.363375 
L 132.262984 290.888967 
L 134.295462 289.807087 
L 135.650448 288.881414 
L 137.682926 287.177597 
L 139.715404 285.11219 
L 141.747883 282.690976 
L 143.780361 279.931314 
L 145.81284 276.847666 
L 148.522811 272.251121 
L 151.232782 267.125207 
L 153.942753 261.501744 
L 156.652724 255.406766 
L 160.040188 247.159598 
L 163.427652 238.258674 
L 166.815116 228.744492 
L 170.20258 218.660442 
L 174.267537 205.857228 
L 178.332494 192.345295 
L 183.074943 175.758393 
L 187.817393 158.358634 
L 193.237335 137.577276 
L 198.657277 115.933885 
L 202.044741 101.933082 
L 204.754712 89.925368 
L 206.109698 84.932519 
L 207.464684 80.902949 
L 208.819669 77.48953 
L 209.497162 76.083664 
L 211.52964 72.843809 
L 212.207133 72.100378 
L 214.239611 70.558554 
L 214.917104 70.408132 
L 215.594597 70.474665 
L 216.949583 70.356063 
L 217.627075 70.749474 
L 218.304568 71.27595 
L 219.659554 71.883423 
L 221.014539 73.188043 
L 222.369525 73.749233 
L 223.724511 74.92368 
L 224.402003 75.024926 
L 225.079496 75.265022 
L 225.756989 75.884066 
L 226.434482 76.257228 
L 227.111975 76.202266 
L 227.789467 76.416328 
L 228.46696 77.009337 
L 229.144453 77.229184 
L 229.821946 77.052728 
L 230.499438 77.284146 
L 231.176931 77.859799 
L 231.854424 77.923439 
L 232.531917 77.654415 
L 233.20941 77.943688 
L 233.886902 78.499092 
L 234.564395 78.403632 
L 235.241888 78.082539 
L 235.919381 78.458594 
L 236.596874 78.982178 
L 237.951859 78.368919 
L 239.306845 79.332198 
L 240.66183 76.419221 
L 241.339323 76.667995 
L 242.016816 77.882941 
L 242.694309 76.783704 
L 243.371801 74.365384 
L 244.049294 73.593025 
L 244.726787 75.218738 
L 245.40428 75.372053 
L 246.081773 72.814881 
L 246.759265 71.877638 
L 247.436758 73.10994 
L 248.114251 73.089691 
L 248.791744 70.217212 
L 249.469237 68.909699 
L 250.146729 69.444853 
L 250.824222 69.595275 
L 251.501715 67.955098 
L 252.179208 67.448871 
L 252.856701 69.022515 
L 253.534193 69.410141 
L 254.211686 67.842282 
L 254.889179 67.697646 
L 255.566672 69.465102 
L 256.244165 69.62131 
L 256.921657 67.960884 
L 257.59915 68.088164 
L 258.276643 69.930832 
L 258.954136 69.823801 
L 259.631628 68.131555 
L 260.309121 68.082378 
L 260.986614 69.768839 
L 261.664107 69.809337 
L 262.3416 68.29644 
L 263.019092 68.58282 
L 263.696585 70.315564 
L 264.374078 70.150679 
L 265.051571 68.681173 
L 265.729064 69.146902 
L 266.406556 70.599052 
L 267.084049 70.16225 
L 267.761542 69.068799 
L 269.116528 70.83047 
L 269.79402 69.760161 
L 270.471513 69.274182 
L 271.149006 70.240354 
L 271.826499 70.173821 
L 272.503992 69.031193 
L 273.181484 69.086155 
L 273.858977 69.71677 
L 274.53647 69.068799 
L 275.213963 68.258835 
L 275.891455 68.637782 
L 276.568948 68.817131 
L 277.246441 67.989811 
L 277.923934 67.66004 
L 278.601427 68.111306 
L 279.278919 67.917493 
L 279.956412 67.243487 
L 280.633905 67.336055 
L 281.311398 67.671611 
L 282.666383 66.96 
L 283.343876 67.304235 
L 284.021369 67.463335 
L 284.698862 67.116207 
L 285.376355 67.142242 
L 286.053847 67.56458 
L 286.73134 67.581937 
L 287.408833 67.417051 
L 288.086326 67.784427 
L 288.763818 69.129546 
L 289.441311 70.173821 
L 290.118804 70.723439 
L 290.796297 71.828461 
L 291.47379 73.436818 
L 292.151282 74.466629 
L 292.828775 74.964178 
L 293.506268 75.927457 
L 294.183761 77.197364 
L 294.861254 77.816408 
L 295.538746 78.016006 
L 296.216239 78.716047 
L 296.893732 79.624363 
L 297.571225 79.878923 
L 298.248718 79.855781 
L 299.603703 80.998409 
L 300.281196 80.986838 
L 300.958689 80.827738 
L 302.313674 81.649273 
L 303.66866 81.261647 
L 305.023645 82.051362 
L 306.378631 81.64638 
L 307.056124 82.083182 
L 307.733617 82.331957 
L 308.411109 82.005078 
L 309.088602 81.903833 
L 309.766095 82.334849 
L 310.443588 82.488164 
L 311.121081 82.12368 
L 311.798573 82.080289 
L 312.476066 82.508413 
L 313.153559 82.572053 
L 313.831052 82.198891 
L 314.508545 82.21914 
L 315.186037 82.6328 
L 315.86353 82.618337 
L 316.541023 81.984829 
L 317.218516 81.802587 
L 317.896008 82.355098 
L 318.573501 82.18732 
L 319.250994 80.645496 
L 319.928487 80.200016 
L 320.60598 81.533564 
L 321.283472 81.776553 
L 321.960965 79.55783 
L 322.638458 78.068076 
L 323.315951 78.828863 
L 323.993444 79.352447 
L 324.670936 77.506886 
L 325.348429 76.086557 
L 326.025922 76.963053 
L 326.703415 77.466388 
L 327.380908 75.753893 
L 328.0584 74.926573 
L 328.735893 75.944813 
L 329.413386 75.858031 
L 330.090879 74.194713 
L 330.768372 73.80998 
L 331.445864 74.715404 
L 332.123357 74.307529 
L 332.80085 72.820667 
L 333.478343 72.988445 
L 334.155835 74.394311 
L 334.833328 74.301744 
L 335.510821 72.869843 
L 336.188314 73.584347 
L 336.865807 75.21006 
L 337.543299 74.865826 
L 338.220792 73.789731 
L 338.898285 74.773258 
L 339.575778 76.129948 
L 340.930763 75.467513 
L 341.608256 76.870486 
L 342.285749 77.911868 
L 342.963242 77.437461 
L 343.640735 77.437461 
L 344.318227 78.875147 
L 344.99572 79.725609 
L 345.673213 79.008212 
L 346.350706 79.025569 
L 347.028199 80.489289 
L 347.705691 81.085191 
L 348.383184 80.078521 
L 349.060677 80.095878 
L 349.73817 81.579847 
L 350.415662 81.93276 
L 351.093155 80.5645 
L 351.770648 80.578963 
L 352.448141 82.198891 
L 353.125634 82.369562 
L 353.803126 80.315725 
L 354.480619 79.745858 
L 355.158112 81.345536 
L 355.835605 81.811266 
L 356.513098 79.549152 
L 357.19059 79.031354 
L 357.868083 80.489289 
L 358.545576 80.639711 
L 359.223069 78.449916 
L 359.900562 78.305279 
L 360.578054 80.27812 
L 361.255547 80.390936 
L 361.93304 77.83955 
L 362.610533 76.72585 
L 363.288025 77.359357 
L 363.965518 77.454817 
L 364.643011 76.792382 
L 365.320504 77.165544 
L 365.997997 78.047826 
L 366.675489 77.911868 
L 367.352982 77.237863 
L 368.030475 77.90319 
L 368.707968 78.750759 
L 369.385461 78.175106 
L 370.062953 77.379606 
L 371.417939 79.216489 
L 372.095432 78.345777 
L 372.772925 77.692021 
L 373.450417 78.973499 
L 374.12791 79.73718 
L 374.805403 78.574303 
L 375.482896 78.195356 
L 376.160389 79.731394 
L 376.837881 80.30994 
L 377.515374 78.79415 
L 378.192867 78.779687 
L 378.87036 80.570285 
L 379.547852 80.859558 
L 380.225345 78.883825 
L 380.902838 78.611908 
L 381.580331 80.573178 
L 382.257824 80.891378 
L 382.935316 78.814399 
L 383.612809 78.322636 
L 384.290302 80.017774 
L 384.967795 80.327296 
L 385.645288 78.82597 
L 386.32278 79.219381 
L 387.000273 80.94634 
L 387.677766 80.888485 
L 388.355259 78.98507 
L 389.032752 78.718939 
L 389.710244 80.422756 
L 390.387737 80.639711 
L 391.06523 78.872254 
L 391.742723 78.990856 
L 392.420216 80.775669 
L 393.097708 80.801703 
L 393.775201 78.713154 
L 394.452694 78.209819 
L 395.130187 80.02356 
L 395.807679 80.315725 
L 396.485172 78.394954 
L 397.162665 78.31685 
L 397.840158 80.194231 
L 398.517651 80.281012 
L 399.195143 78.177999 
L 399.872636 77.694914 
L 400.550129 79.534689 
L 401.227622 79.792141 
L 401.905115 77.984186 
L 402.582607 78.09411 
L 403.2601 79.902065 
L 403.937593 79.887601 
L 404.615086 78.021792 
L 405.292579 77.900297 
L 405.970071 79.592543 
L 406.647564 79.682218 
L 407.325057 78.134608 
L 408.00255 78.617694 
L 408.680042 80.226051 
L 409.357535 80.040916 
L 410.035028 78.423881 
L 410.712521 78.669763 
L 411.390014 80.165303 
L 412.067506 80.0872 
L 412.744999 78.684227 
L 413.422492 79.361125 
L 414.099985 80.876914 
L 414.777478 80.535573 
L 415.45497 78.895396 
L 416.132463 79.04871 
L 416.809956 80.471933 
L 417.487449 80.422756 
L 418.164942 79.01689 
L 418.842434 79.676432 
L 419.519927 81.209578 
L 420.19742 80.862451 
L 420.874913 79.034247 
L 421.552406 78.886718 
L 422.229898 80.379365 
L 422.907391 80.454576 
L 423.584884 78.898288 
L 424.262377 79.427658 
L 424.939869 81.038907 
L 425.617362 80.784347 
L 426.294855 78.785472 
L 426.972348 78.400739 
L 427.649841 80.009096 
L 428.327333 80.176874 
L 429.004826 78.522234 
L 429.682319 78.930108 
L 430.359812 80.613676 
L 431.037305 80.419863 
L 431.714797 78.441237 
L 432.39229 78.114359 
L 433.069783 79.742965 
L 433.747276 79.881816 
L 434.424769 78.311065 
L 435.102261 78.840434 
L 435.779754 80.46904 
L 436.457247 80.223158 
L 437.13474 78.429667 
L 437.812233 78.389168 
L 438.489725 79.913636 
L 439.167218 79.925207 
L 439.844711 78.525127 
L 440.522204 79.23963 
L 441.199696 80.766991 
L 441.877189 80.402507 
L 442.554682 78.747867 
L 443.232175 78.892503 
L 443.909668 80.295476 
L 444.58716 80.228943 
L 445.264653 78.912752 
L 445.942146 79.630149 
L 446.619639 81.090976 
L 447.297132 80.712029 
L 447.974624 79.057389 
L 448.652117 79.210703 
L 449.32961 80.604998 
L 450.007103 80.529787 
L 450.684596 79.08053 
L 451.362088 79.73718 
L 452.039581 81.261647 
L 452.717074 80.891378 
L 453.394567 79.01689 
L 454.072059 78.808614 
L 454.749552 80.301262 
L 455.427045 80.379365 
L 456.104538 78.831756 
L 456.782031 79.390052 
L 457.459523 80.986838 
L 458.137016 80.703351 
L 458.814509 78.733403 
L 459.492002 78.403632 
L 460.169495 79.977276 
L 460.846987 80.104556 
L 461.52448 78.510663 
L 462.201973 79.022676 
L 462.879466 80.651282 
L 463.556959 80.396722 
L 464.234451 78.496199 
L 464.911944 78.296601 
L 465.589437 79.855781 
L 466.26693 79.925207 
L 466.944423 78.441237 
L 467.621915 79.100779 
L 468.299408 80.668638 
L 468.976901 80.333082 
L 469.654394 78.591659 
L 470.331886 78.614801 
L 471.009379 80.066951 
L 471.686872 80.040916 
L 472.364365 78.704476 
L 473.041858 79.427658 
L 473.71935 80.897164 
L 474.396843 80.524002 
L 475.074336 78.906967 
L 475.751829 79.132599 
L 476.429322 80.512431 
L 477.106814 80.396722 
L 477.784307 79.025569 
L 478.4618 79.751643 
L 479.139293 81.229827 
L 479.816786 80.813274 
L 480.494278 79.074745 
L 481.171771 79.074745 
L 481.849264 80.486396 
L 482.526757 80.46904 
L 483.20425 79.019783 
L 483.881742 79.64172 
L 484.559235 81.16908 
L 485.236728 80.830631 
L 485.914221 78.956143 
L 486.591713 78.771008 
L 487.269206 80.27812 
L 487.946699 80.335974 
L 488.624192 78.756545 
L 489.301685 79.268558 
L 489.979177 80.856665 
L 490.65667 80.599213 
L 491.334163 78.678441 
L 492.011656 78.452808 
L 492.689149 80.017774 
L 493.366641 80.092985 
L 494.044134 78.510663 
L 494.721627 79.019783 
L 495.39912 80.613676 
L 496.076613 80.359116 
L 496.754105 78.542483 
L 497.431598 78.487521 
L 498.109091 80.009096 
L 498.109091 80.009096 
" style="fill:none;stroke:#ff0000;stroke-linecap:square;stroke-width:1.5;"/>
   </g>
   <g id="line2d_30">
    <path clip-path="url(#p15cfdd189c)" d="M 92.290909 369.36 
L 498.109091 369.36 
L 498.109091 369.36 
" style="fill:none;stroke:#008000;stroke-linecap:square;stroke-width:1.5;"/>
   </g>
   <g id="patch_3">
    <path d="M 72 384.48 
L 72 51.84 
" style="fill:none;stroke:#000000;stroke-linecap:square;stroke-linejoin:miter;stroke-width:0.8;"/>
   </g>
   <g id="patch_4">
    <path d="M 518.4 384.48 
L 518.4 51.84 
" style="fill:none;stroke:#000000;stroke-linecap:square;stroke-linejoin:miter;stroke-width:0.8;"/>
   </g>
   <g id="patch_5">
    <path d="M 72 384.48 
L 518.4 384.48 
" style="fill:none;stroke:#000000;stroke-linecap:square;stroke-linejoin:miter;stroke-width:0.8;"/>
   </g>
   <g id="patch_6">
    <path d="M 72 51.84 
L 518.4 51.84 
" style="fill:none;stroke:#000000;stroke-linecap:square;stroke-linejoin:miter;stroke-width:0.8;"/>
   </g>
   <g id="text_16">
    <!-- $\mu^{\overline{P}}_{m}$ -->
    <g transform="translate(286.671382 45.84)scale(0.14 -0.14)">
     <use transform="translate(0 24.62935)scale(0.996264)" xlink:href="#CMMI12-22"/>
     <use transform="translate(58.691421 60.782989)scale(0.697382)" xlink:href="#CMMI12-80"/>
     <use transform="translate(58.691421 0)scale(0.697382)" xlink:href="#CMMI12-109"/>
     <path d="M 58.691421 116.805753 
L 112.687377 116.805753 
L 112.687377 119.595204 
L 58.691421 119.595204 
L 58.691421 116.805753 
z
"/>
    </g>
   </g>
   <g id="legend_1">
    <g id="patch_7">
     <path d="M 79 127.717649 
L 123.64577 127.717649 
Q 125.64577 127.717649 125.64577 125.717649 
L 125.64577 58.84 
Q 125.64577 56.84 123.64577 56.84 
L 79 56.84 
Q 77 56.84 77 58.84 
L 77 125.717649 
Q 77 127.717649 79 127.717649 
z
" style="fill:#ffffff;opacity:0.8;stroke:#cccccc;stroke-linejoin:miter;"/>
    </g>
    <g id="line2d_31">
     <path d="M 81 67.372234 
L 101 67.372234 
" style="fill:none;stroke:#bf00bf;stroke-linecap:square;stroke-width:1.5;"/>
    </g>
    <g id="line2d_32"/>
    <g id="text_17">
     <!-- $\mu^{\overline{P}}_{1}$ -->
     <g transform="translate(109 70.872234)scale(0.1 -0.1)">
      <use transform="translate(0 24.740171)scale(0.996264)" xlink:href="#CMMI12-22"/>
      <use transform="translate(58.691421 60.89381)scale(0.697382)" xlink:href="#CMMI12-80"/>
      <use transform="translate(58.691421 0)scale(0.697382)" xlink:href="#CMR17-49"/>
      <path d="M 58.691421 116.916574 
L 112.687377 116.916574 
L 112.687377 119.706025 
L 58.691421 119.706025 
L 58.691421 116.916574 
z
"/>
     </g>
    </g>
    <g id="line2d_33">
     <path d="M 81 84.341646 
L 101 84.341646 
" style="fill:none;stroke:#00bfbf;stroke-linecap:square;stroke-width:1.5;"/>
    </g>
    <g id="line2d_34"/>
    <g id="text_18">
     <!-- $\mu^{\overline{P}}_{2}$ -->
     <g transform="translate(109 87.841646)scale(0.1 -0.1)">
      <use transform="translate(0 24.740171)scale(0.996264)" xlink:href="#CMMI12-22"/>
      <use transform="translate(58.691421 60.89381)scale(0.697382)" xlink:href="#CMMI12-80"/>
      <use transform="translate(58.691421 0)scale(0.697382)" xlink:href="#CMR17-50"/>
      <path d="M 58.691421 116.916574 
L 112.687377 116.916574 
L 112.687377 119.706025 
L 58.691421 119.706025 
L 58.691421 116.916574 
z
"/>
     </g>
    </g>
    <g id="line2d_35">
     <path d="M 81 101.311058 
L 101 101.311058 
" style="fill:none;stroke:#ff0000;stroke-linecap:square;stroke-width:1.5;"/>
    </g>
    <g id="line2d_36"/>
    <g id="text_19">
     <!-- $\mu^{\overline{P}}_{3}$ -->
     <g transform="translate(109 104.811058)scale(0.1 -0.1)">
      <use transform="translate(0 24.740171)scale(0.996264)" xlink:href="#CMMI12-22"/>
      <use transform="translate(58.691421 60.89381)scale(0.697382)" xlink:href="#CMMI12-80"/>
      <use transform="translate(58.691421 0)scale(0.697382)" xlink:href="#CMR17-51"/>
      <path d="M 58.691421 116.916574 
L 112.687377 116.916574 
L 112.687377 119.706025 
L 58.691421 119.706025 
L 58.691421 116.916574 
z
"/>
     </g>
    </g>
    <g id="line2d_37">
     <path d="M 81 118.28047 
L 101 118.28047 
" style="fill:none;stroke:#008000;stroke-linecap:square;stroke-width:1.5;"/>
    </g>
    <g id="line2d_38"/>
    <g id="text_20">
     <!-- $\mu^{\overline{P}}_{4}$ -->
     <g transform="translate(109 121.78047)scale(0.1 -0.1)">
      <use transform="translate(0 24.740171)scale(0.996264)" xlink:href="#CMMI12-22"/>
      <use transform="translate(58.691421 60.89381)scale(0.697382)" xlink:href="#CMMI12-80"/>
      <use transform="translate(58.691421 0)scale(0.697382)" xlink:href="#CMR17-52"/>
      <path d="M 58.691421 116.916574 
L 112.687377 116.916574 
L 112.687377 119.706025 
L 58.691421 119.706025 
L 58.691421 116.916574 
z
"/>
     </g>
    </g>
   </g>
  </g>
 </g>
 <defs>
  <clipPath id="p15cfdd189c">
   <rect height="332.64" width="446.4" x="72" y="51.84"/>
  </clipPath>
 </defs>
</svg>
