<?xml version="1.0" encoding="utf-8" standalone="no"?>
<!DOCTYPE svg PUBLIC "-//W3C//DTD SVG 1.1//EN"
  "http://www.w3.org/Graphics/SVG/1.1/DTD/svg11.dtd">
<!-- Created with matplotlib (http://matplotlib.org/) -->
<svg height="432pt" version="1.1" viewBox="0 0 576 432" width="576pt" xmlns="http://www.w3.org/2000/svg" xmlns:xlink="http://www.w3.org/1999/xlink">
 <defs>
  <style type="text/css">
*{stroke-linecap:butt;stroke-linejoin:round;}
  </style>
 </defs>
 <g id="figure_1">
  <g id="patch_1">
   <path d="M 0 432 
L 576 432 
L 576 0 
L 0 0 
z
" style="fill:#ffffff;"/>
  </g>
  <g id="axes_1">
   <g id="patch_2">
    <path d="M 72 384.48 
L 518.4 384.48 
L 518.4 51.84 
L 72 51.84 
z
" style="fill:#ffffff;"/>
   </g>
   <g id="matplotlib.axis_1">
    <g id="xtick_1">
     <g id="line2d_1">
      <path clip-path="url(#pe80baa5d18)" d="M 92.290909 384.48 
L 92.290909 51.84 
" style="fill:none;stroke:#b0b0b0;stroke-dasharray:5.12,1.28,0.8,1.28;stroke-dashoffset:0;stroke-width:0.8;"/>
     </g>
     <g id="line2d_2">
      <defs>
       <path d="M 0 0 
L 0 3.5 
" id="me7d966cb8c" style="stroke:#000000;stroke-width:0.8;"/>
      </defs>
      <g>
       <use style="stroke:#000000;stroke-width:0.8;" x="92.290909" xlink:href="#me7d966cb8c" y="384.48"/>
      </g>
     </g>
     <g id="text_1">
      <!-- 0 -->
      <defs>
       <path d="M 31.78125 66.40625 
Q 24.171875 66.40625 20.328125 58.90625 
Q 16.5 51.421875 16.5 36.375 
Q 16.5 21.390625 20.328125 13.890625 
Q 24.171875 6.390625 31.78125 6.390625 
Q 39.453125 6.390625 43.28125 13.890625 
Q 47.125 21.390625 47.125 36.375 
Q 47.125 51.421875 43.28125 58.90625 
Q 39.453125 66.40625 31.78125 66.40625 
z
M 31.78125 74.21875 
Q 44.046875 74.21875 50.515625 64.515625 
Q 56.984375 54.828125 56.984375 36.375 
Q 56.984375 17.96875 50.515625 8.265625 
Q 44.046875 -1.421875 31.78125 -1.421875 
Q 19.53125 -1.421875 13.0625 8.265625 
Q 6.59375 17.96875 6.59375 36.375 
Q 6.59375 54.828125 13.0625 64.515625 
Q 19.53125 74.21875 31.78125 74.21875 
z
" id="DejaVuSans-30"/>
      </defs>
      <g transform="translate(89.109659 399.078438)scale(0.1 -0.1)">
       <use xlink:href="#DejaVuSans-30"/>
      </g>
     </g>
    </g>
    <g id="xtick_2">
     <g id="line2d_3">
      <path clip-path="url(#pe80baa5d18)" d="M 159.983683 384.48 
L 159.983683 51.84 
" style="fill:none;stroke:#b0b0b0;stroke-dasharray:5.12,1.28,0.8,1.28;stroke-dashoffset:0;stroke-width:0.8;"/>
     </g>
     <g id="line2d_4">
      <g>
       <use style="stroke:#000000;stroke-width:0.8;" x="159.983683" xlink:href="#me7d966cb8c" y="384.48"/>
      </g>
     </g>
     <g id="text_2">
      <!-- 200 -->
      <defs>
       <path d="M 19.1875 8.296875 
L 53.609375 8.296875 
L 53.609375 0 
L 7.328125 0 
L 7.328125 8.296875 
Q 12.9375 14.109375 22.625 23.890625 
Q 32.328125 33.6875 34.8125 36.53125 
Q 39.546875 41.84375 41.421875 45.53125 
Q 43.3125 49.21875 43.3125 52.78125 
Q 43.3125 58.59375 39.234375 62.25 
Q 35.15625 65.921875 28.609375 65.921875 
Q 23.96875 65.921875 18.8125 64.3125 
Q 13.671875 62.703125 7.8125 59.421875 
L 7.8125 69.390625 
Q 13.765625 71.78125 18.9375 73 
Q 24.125 74.21875 28.421875 74.21875 
Q 39.75 74.21875 46.484375 68.546875 
Q 53.21875 62.890625 53.21875 53.421875 
Q 53.21875 48.921875 51.53125 44.890625 
Q 49.859375 40.875 45.40625 35.40625 
Q 44.1875 33.984375 37.640625 27.21875 
Q 31.109375 20.453125 19.1875 8.296875 
z
" id="DejaVuSans-32"/>
      </defs>
      <g transform="translate(150.439933 399.078438)scale(0.1 -0.1)">
       <use xlink:href="#DejaVuSans-32"/>
       <use x="63.623047" xlink:href="#DejaVuSans-30"/>
       <use x="127.246094" xlink:href="#DejaVuSans-30"/>
      </g>
     </g>
    </g>
    <g id="xtick_3">
     <g id="line2d_5">
      <path clip-path="url(#pe80baa5d18)" d="M 227.676458 384.48 
L 227.676458 51.84 
" style="fill:none;stroke:#b0b0b0;stroke-dasharray:5.12,1.28,0.8,1.28;stroke-dashoffset:0;stroke-width:0.8;"/>
     </g>
     <g id="line2d_6">
      <g>
       <use style="stroke:#000000;stroke-width:0.8;" x="227.676458" xlink:href="#me7d966cb8c" y="384.48"/>
      </g>
     </g>
     <g id="text_3">
      <!-- 400 -->
      <defs>
       <path d="M 37.796875 64.3125 
L 12.890625 25.390625 
L 37.796875 25.390625 
z
M 35.203125 72.90625 
L 47.609375 72.90625 
L 47.609375 25.390625 
L 58.015625 25.390625 
L 58.015625 17.1875 
L 47.609375 17.1875 
L 47.609375 0 
L 37.796875 0 
L 37.796875 17.1875 
L 4.890625 17.1875 
L 4.890625 26.703125 
z
" id="DejaVuSans-34"/>
      </defs>
      <g transform="translate(218.132708 399.078438)scale(0.1 -0.1)">
       <use xlink:href="#DejaVuSans-34"/>
       <use x="63.623047" xlink:href="#DejaVuSans-30"/>
       <use x="127.246094" xlink:href="#DejaVuSans-30"/>
      </g>
     </g>
    </g>
    <g id="xtick_4">
     <g id="line2d_7">
      <path clip-path="url(#pe80baa5d18)" d="M 295.369232 384.48 
L 295.369232 51.84 
" style="fill:none;stroke:#b0b0b0;stroke-dasharray:5.12,1.28,0.8,1.28;stroke-dashoffset:0;stroke-width:0.8;"/>
     </g>
     <g id="line2d_8">
      <g>
       <use style="stroke:#000000;stroke-width:0.8;" x="295.369232" xlink:href="#me7d966cb8c" y="384.48"/>
      </g>
     </g>
     <g id="text_4">
      <!-- 600 -->
      <defs>
       <path d="M 33.015625 40.375 
Q 26.375 40.375 22.484375 35.828125 
Q 18.609375 31.296875 18.609375 23.390625 
Q 18.609375 15.53125 22.484375 10.953125 
Q 26.375 6.390625 33.015625 6.390625 
Q 39.65625 6.390625 43.53125 10.953125 
Q 47.40625 15.53125 47.40625 23.390625 
Q 47.40625 31.296875 43.53125 35.828125 
Q 39.65625 40.375 33.015625 40.375 
z
M 52.59375 71.296875 
L 52.59375 62.3125 
Q 48.875 64.0625 45.09375 64.984375 
Q 41.3125 65.921875 37.59375 65.921875 
Q 27.828125 65.921875 22.671875 59.328125 
Q 17.53125 52.734375 16.796875 39.40625 
Q 19.671875 43.65625 24.015625 45.921875 
Q 28.375 48.1875 33.59375 48.1875 
Q 44.578125 48.1875 50.953125 41.515625 
Q 57.328125 34.859375 57.328125 23.390625 
Q 57.328125 12.15625 50.6875 5.359375 
Q 44.046875 -1.421875 33.015625 -1.421875 
Q 20.359375 -1.421875 13.671875 8.265625 
Q 6.984375 17.96875 6.984375 36.375 
Q 6.984375 53.65625 15.1875 63.9375 
Q 23.390625 74.21875 37.203125 74.21875 
Q 40.921875 74.21875 44.703125 73.484375 
Q 48.484375 72.75 52.59375 71.296875 
z
" id="DejaVuSans-36"/>
      </defs>
      <g transform="translate(285.825482 399.078438)scale(0.1 -0.1)">
       <use xlink:href="#DejaVuSans-36"/>
       <use x="63.623047" xlink:href="#DejaVuSans-30"/>
       <use x="127.246094" xlink:href="#DejaVuSans-30"/>
      </g>
     </g>
    </g>
    <g id="xtick_5">
     <g id="line2d_9">
      <path clip-path="url(#pe80baa5d18)" d="M 363.062006 384.48 
L 363.062006 51.84 
" style="fill:none;stroke:#b0b0b0;stroke-dasharray:5.12,1.28,0.8,1.28;stroke-dashoffset:0;stroke-width:0.8;"/>
     </g>
     <g id="line2d_10">
      <g>
       <use style="stroke:#000000;stroke-width:0.8;" x="363.062006" xlink:href="#me7d966cb8c" y="384.48"/>
      </g>
     </g>
     <g id="text_5">
      <!-- 800 -->
      <defs>
       <path d="M 31.78125 34.625 
Q 24.75 34.625 20.71875 30.859375 
Q 16.703125 27.09375 16.703125 20.515625 
Q 16.703125 13.921875 20.71875 10.15625 
Q 24.75 6.390625 31.78125 6.390625 
Q 38.8125 6.390625 42.859375 10.171875 
Q 46.921875 13.96875 46.921875 20.515625 
Q 46.921875 27.09375 42.890625 30.859375 
Q 38.875 34.625 31.78125 34.625 
z
M 21.921875 38.8125 
Q 15.578125 40.375 12.03125 44.71875 
Q 8.5 49.078125 8.5 55.328125 
Q 8.5 64.0625 14.71875 69.140625 
Q 20.953125 74.21875 31.78125 74.21875 
Q 42.671875 74.21875 48.875 69.140625 
Q 55.078125 64.0625 55.078125 55.328125 
Q 55.078125 49.078125 51.53125 44.71875 
Q 48 40.375 41.703125 38.8125 
Q 48.828125 37.15625 52.796875 32.3125 
Q 56.78125 27.484375 56.78125 20.515625 
Q 56.78125 9.90625 50.3125 4.234375 
Q 43.84375 -1.421875 31.78125 -1.421875 
Q 19.734375 -1.421875 13.25 4.234375 
Q 6.78125 9.90625 6.78125 20.515625 
Q 6.78125 27.484375 10.78125 32.3125 
Q 14.796875 37.15625 21.921875 38.8125 
z
M 18.3125 54.390625 
Q 18.3125 48.734375 21.84375 45.5625 
Q 25.390625 42.390625 31.78125 42.390625 
Q 38.140625 42.390625 41.71875 45.5625 
Q 45.3125 48.734375 45.3125 54.390625 
Q 45.3125 60.0625 41.71875 63.234375 
Q 38.140625 66.40625 31.78125 66.40625 
Q 25.390625 66.40625 21.84375 63.234375 
Q 18.3125 60.0625 18.3125 54.390625 
z
" id="DejaVuSans-38"/>
      </defs>
      <g transform="translate(353.518256 399.078438)scale(0.1 -0.1)">
       <use xlink:href="#DejaVuSans-38"/>
       <use x="63.623047" xlink:href="#DejaVuSans-30"/>
       <use x="127.246094" xlink:href="#DejaVuSans-30"/>
      </g>
     </g>
    </g>
    <g id="xtick_6">
     <g id="line2d_11">
      <path clip-path="url(#pe80baa5d18)" d="M 430.75478 384.48 
L 430.75478 51.84 
" style="fill:none;stroke:#b0b0b0;stroke-dasharray:5.12,1.28,0.8,1.28;stroke-dashoffset:0;stroke-width:0.8;"/>
     </g>
     <g id="line2d_12">
      <g>
       <use style="stroke:#000000;stroke-width:0.8;" x="430.75478" xlink:href="#me7d966cb8c" y="384.48"/>
      </g>
     </g>
     <g id="text_6">
      <!-- 1000 -->
      <defs>
       <path d="M 12.40625 8.296875 
L 28.515625 8.296875 
L 28.515625 63.921875 
L 10.984375 60.40625 
L 10.984375 69.390625 
L 28.421875 72.90625 
L 38.28125 72.90625 
L 38.28125 8.296875 
L 54.390625 8.296875 
L 54.390625 0 
L 12.40625 0 
z
" id="DejaVuSans-31"/>
      </defs>
      <g transform="translate(418.02978 399.078438)scale(0.1 -0.1)">
       <use xlink:href="#DejaVuSans-31"/>
       <use x="63.623047" xlink:href="#DejaVuSans-30"/>
       <use x="127.246094" xlink:href="#DejaVuSans-30"/>
       <use x="190.869141" xlink:href="#DejaVuSans-30"/>
      </g>
     </g>
    </g>
    <g id="xtick_7">
     <g id="line2d_13">
      <path clip-path="url(#pe80baa5d18)" d="M 498.447555 384.48 
L 498.447555 51.84 
" style="fill:none;stroke:#b0b0b0;stroke-dasharray:5.12,1.28,0.8,1.28;stroke-dashoffset:0;stroke-width:0.8;"/>
     </g>
     <g id="line2d_14">
      <g>
       <use style="stroke:#000000;stroke-width:0.8;" x="498.447555" xlink:href="#me7d966cb8c" y="384.48"/>
      </g>
     </g>
     <g id="text_7">
      <!-- 1200 -->
      <g transform="translate(485.722555 399.078438)scale(0.1 -0.1)">
       <use xlink:href="#DejaVuSans-31"/>
       <use x="63.623047" xlink:href="#DejaVuSans-32"/>
       <use x="127.246094" xlink:href="#DejaVuSans-30"/>
       <use x="190.869141" xlink:href="#DejaVuSans-30"/>
      </g>
     </g>
    </g>
    <g id="text_8">
     <!-- Iteration -->
     <defs>
      <path d="M 9.8125 72.90625 
L 19.671875 72.90625 
L 19.671875 0 
L 9.8125 0 
z
" id="DejaVuSans-49"/>
      <path d="M 18.3125 70.21875 
L 18.3125 54.6875 
L 36.8125 54.6875 
L 36.8125 47.703125 
L 18.3125 47.703125 
L 18.3125 18.015625 
Q 18.3125 11.328125 20.140625 9.421875 
Q 21.96875 7.515625 27.59375 7.515625 
L 36.8125 7.515625 
L 36.8125 0 
L 27.59375 0 
Q 17.1875 0 13.234375 3.875 
Q 9.28125 7.765625 9.28125 18.015625 
L 9.28125 47.703125 
L 2.6875 47.703125 
L 2.6875 54.6875 
L 9.28125 54.6875 
L 9.28125 70.21875 
z
" id="DejaVuSans-74"/>
      <path d="M 56.203125 29.59375 
L 56.203125 25.203125 
L 14.890625 25.203125 
Q 15.484375 15.921875 20.484375 11.0625 
Q 25.484375 6.203125 34.421875 6.203125 
Q 39.59375 6.203125 44.453125 7.46875 
Q 49.3125 8.734375 54.109375 11.28125 
L 54.109375 2.78125 
Q 49.265625 0.734375 44.1875 -0.34375 
Q 39.109375 -1.421875 33.890625 -1.421875 
Q 20.796875 -1.421875 13.15625 6.1875 
Q 5.515625 13.8125 5.515625 26.8125 
Q 5.515625 40.234375 12.765625 48.109375 
Q 20.015625 56 32.328125 56 
Q 43.359375 56 49.78125 48.890625 
Q 56.203125 41.796875 56.203125 29.59375 
z
M 47.21875 32.234375 
Q 47.125 39.59375 43.09375 43.984375 
Q 39.0625 48.390625 32.421875 48.390625 
Q 24.90625 48.390625 20.390625 44.140625 
Q 15.875 39.890625 15.1875 32.171875 
z
" id="DejaVuSans-65"/>
      <path d="M 41.109375 46.296875 
Q 39.59375 47.171875 37.8125 47.578125 
Q 36.03125 48 33.890625 48 
Q 26.265625 48 22.1875 43.046875 
Q 18.109375 38.09375 18.109375 28.8125 
L 18.109375 0 
L 9.078125 0 
L 9.078125 54.6875 
L 18.109375 54.6875 
L 18.109375 46.1875 
Q 20.953125 51.171875 25.484375 53.578125 
Q 30.03125 56 36.53125 56 
Q 37.453125 56 38.578125 55.875 
Q 39.703125 55.765625 41.0625 55.515625 
z
" id="DejaVuSans-72"/>
      <path d="M 34.28125 27.484375 
Q 23.390625 27.484375 19.1875 25 
Q 14.984375 22.515625 14.984375 16.5 
Q 14.984375 11.71875 18.140625 8.90625 
Q 21.296875 6.109375 26.703125 6.109375 
Q 34.1875 6.109375 38.703125 11.40625 
Q 43.21875 16.703125 43.21875 25.484375 
L 43.21875 27.484375 
z
M 52.203125 31.203125 
L 52.203125 0 
L 43.21875 0 
L 43.21875 8.296875 
Q 40.140625 3.328125 35.546875 0.953125 
Q 30.953125 -1.421875 24.3125 -1.421875 
Q 15.921875 -1.421875 10.953125 3.296875 
Q 6 8.015625 6 15.921875 
Q 6 25.140625 12.171875 29.828125 
Q 18.359375 34.515625 30.609375 34.515625 
L 43.21875 34.515625 
L 43.21875 35.40625 
Q 43.21875 41.609375 39.140625 45 
Q 35.0625 48.390625 27.6875 48.390625 
Q 23 48.390625 18.546875 47.265625 
Q 14.109375 46.140625 10.015625 43.890625 
L 10.015625 52.203125 
Q 14.9375 54.109375 19.578125 55.046875 
Q 24.21875 56 28.609375 56 
Q 40.484375 56 46.34375 49.84375 
Q 52.203125 43.703125 52.203125 31.203125 
z
" id="DejaVuSans-61"/>
      <path d="M 9.421875 54.6875 
L 18.40625 54.6875 
L 18.40625 0 
L 9.421875 0 
z
M 9.421875 75.984375 
L 18.40625 75.984375 
L 18.40625 64.59375 
L 9.421875 64.59375 
z
" id="DejaVuSans-69"/>
      <path d="M 30.609375 48.390625 
Q 23.390625 48.390625 19.1875 42.75 
Q 14.984375 37.109375 14.984375 27.296875 
Q 14.984375 17.484375 19.15625 11.84375 
Q 23.34375 6.203125 30.609375 6.203125 
Q 37.796875 6.203125 41.984375 11.859375 
Q 46.1875 17.53125 46.1875 27.296875 
Q 46.1875 37.015625 41.984375 42.703125 
Q 37.796875 48.390625 30.609375 48.390625 
z
M 30.609375 56 
Q 42.328125 56 49.015625 48.375 
Q 55.71875 40.765625 55.71875 27.296875 
Q 55.71875 13.875 49.015625 6.21875 
Q 42.328125 -1.421875 30.609375 -1.421875 
Q 18.84375 -1.421875 12.171875 6.21875 
Q 5.515625 13.875 5.515625 27.296875 
Q 5.515625 40.765625 12.171875 48.375 
Q 18.84375 56 30.609375 56 
z
" id="DejaVuSans-6f"/>
      <path d="M 54.890625 33.015625 
L 54.890625 0 
L 45.90625 0 
L 45.90625 32.71875 
Q 45.90625 40.484375 42.875 44.328125 
Q 39.84375 48.1875 33.796875 48.1875 
Q 26.515625 48.1875 22.3125 43.546875 
Q 18.109375 38.921875 18.109375 30.90625 
L 18.109375 0 
L 9.078125 0 
L 9.078125 54.6875 
L 18.109375 54.6875 
L 18.109375 46.1875 
Q 21.34375 51.125 25.703125 53.5625 
Q 30.078125 56 35.796875 56 
Q 45.21875 56 50.046875 50.171875 
Q 54.890625 44.34375 54.890625 33.015625 
z
" id="DejaVuSans-6e"/>
     </defs>
     <g transform="translate(265.507969 415.795938)scale(0.14 -0.14)">
      <use xlink:href="#DejaVuSans-49"/>
      <use x="29.492188" xlink:href="#DejaVuSans-74"/>
      <use x="68.701172" xlink:href="#DejaVuSans-65"/>
      <use x="130.224609" xlink:href="#DejaVuSans-72"/>
      <use x="171.337891" xlink:href="#DejaVuSans-61"/>
      <use x="232.617188" xlink:href="#DejaVuSans-74"/>
      <use x="271.826172" xlink:href="#DejaVuSans-69"/>
      <use x="299.609375" xlink:href="#DejaVuSans-6f"/>
      <use x="360.791016" xlink:href="#DejaVuSans-6e"/>
     </g>
    </g>
   </g>
   <g id="matplotlib.axis_2">
    <g id="ytick_1">
     <g id="line2d_15">
      <path clip-path="url(#pe80baa5d18)" d="M 72 323.884873 
L 518.4 323.884873 
" style="fill:none;stroke:#b0b0b0;stroke-dasharray:5.12,1.28,0.8,1.28;stroke-dashoffset:0;stroke-width:0.8;"/>
     </g>
     <g id="line2d_16">
      <defs>
       <path d="M 0 0 
L -3.5 0 
" id="mbb867c38dc" style="stroke:#000000;stroke-width:0.8;"/>
      </defs>
      <g>
       <use style="stroke:#000000;stroke-width:0.8;" x="72" xlink:href="#mbb867c38dc" y="323.884873"/>
      </g>
     </g>
     <g id="text_9">
      <!-- 0.0 -->
      <defs>
       <path d="M 10.6875 12.40625 
L 21 12.40625 
L 21 0 
L 10.6875 0 
z
" id="DejaVuSans-2e"/>
      </defs>
      <g transform="translate(49.096875 327.684092)scale(0.1 -0.1)">
       <use xlink:href="#DejaVuSans-30"/>
       <use x="63.623047" xlink:href="#DejaVuSans-2e"/>
       <use x="95.410156" xlink:href="#DejaVuSans-30"/>
      </g>
     </g>
    </g>
    <g id="ytick_2">
     <g id="line2d_17">
      <path clip-path="url(#pe80baa5d18)" d="M 72 259.925482 
L 518.4 259.925482 
" style="fill:none;stroke:#b0b0b0;stroke-dasharray:5.12,1.28,0.8,1.28;stroke-dashoffset:0;stroke-width:0.8;"/>
     </g>
     <g id="line2d_18">
      <g>
       <use style="stroke:#000000;stroke-width:0.8;" x="72" xlink:href="#mbb867c38dc" y="259.925482"/>
      </g>
     </g>
     <g id="text_10">
      <!-- 0.1 -->
      <g transform="translate(49.096875 263.724701)scale(0.1 -0.1)">
       <use xlink:href="#DejaVuSans-30"/>
       <use x="63.623047" xlink:href="#DejaVuSans-2e"/>
       <use x="95.410156" xlink:href="#DejaVuSans-31"/>
      </g>
     </g>
    </g>
    <g id="ytick_3">
     <g id="line2d_19">
      <path clip-path="url(#pe80baa5d18)" d="M 72 195.966091 
L 518.4 195.966091 
" style="fill:none;stroke:#b0b0b0;stroke-dasharray:5.12,1.28,0.8,1.28;stroke-dashoffset:0;stroke-width:0.8;"/>
     </g>
     <g id="line2d_20">
      <g>
       <use style="stroke:#000000;stroke-width:0.8;" x="72" xlink:href="#mbb867c38dc" y="195.966091"/>
      </g>
     </g>
     <g id="text_11">
      <!-- 0.2 -->
      <g transform="translate(49.096875 199.76531)scale(0.1 -0.1)">
       <use xlink:href="#DejaVuSans-30"/>
       <use x="63.623047" xlink:href="#DejaVuSans-2e"/>
       <use x="95.410156" xlink:href="#DejaVuSans-32"/>
      </g>
     </g>
    </g>
    <g id="ytick_4">
     <g id="line2d_21">
      <path clip-path="url(#pe80baa5d18)" d="M 72 132.006701 
L 518.4 132.006701 
" style="fill:none;stroke:#b0b0b0;stroke-dasharray:5.12,1.28,0.8,1.28;stroke-dashoffset:0;stroke-width:0.8;"/>
     </g>
     <g id="line2d_22">
      <g>
       <use style="stroke:#000000;stroke-width:0.8;" x="72" xlink:href="#mbb867c38dc" y="132.006701"/>
      </g>
     </g>
     <g id="text_12">
      <!-- 0.3 -->
      <defs>
       <path d="M 40.578125 39.3125 
Q 47.65625 37.796875 51.625 33 
Q 55.609375 28.21875 55.609375 21.1875 
Q 55.609375 10.40625 48.1875 4.484375 
Q 40.765625 -1.421875 27.09375 -1.421875 
Q 22.515625 -1.421875 17.65625 -0.515625 
Q 12.796875 0.390625 7.625 2.203125 
L 7.625 11.71875 
Q 11.71875 9.328125 16.59375 8.109375 
Q 21.484375 6.890625 26.8125 6.890625 
Q 36.078125 6.890625 40.9375 10.546875 
Q 45.796875 14.203125 45.796875 21.1875 
Q 45.796875 27.640625 41.28125 31.265625 
Q 36.765625 34.90625 28.71875 34.90625 
L 20.21875 34.90625 
L 20.21875 43.015625 
L 29.109375 43.015625 
Q 36.375 43.015625 40.234375 45.921875 
Q 44.09375 48.828125 44.09375 54.296875 
Q 44.09375 59.90625 40.109375 62.90625 
Q 36.140625 65.921875 28.71875 65.921875 
Q 24.65625 65.921875 20.015625 65.03125 
Q 15.375 64.15625 9.8125 62.3125 
L 9.8125 71.09375 
Q 15.4375 72.65625 20.34375 73.4375 
Q 25.25 74.21875 29.59375 74.21875 
Q 40.828125 74.21875 47.359375 69.109375 
Q 53.90625 64.015625 53.90625 55.328125 
Q 53.90625 49.265625 50.4375 45.09375 
Q 46.96875 40.921875 40.578125 39.3125 
z
" id="DejaVuSans-33"/>
      </defs>
      <g transform="translate(49.096875 135.805919)scale(0.1 -0.1)">
       <use xlink:href="#DejaVuSans-30"/>
       <use x="63.623047" xlink:href="#DejaVuSans-2e"/>
       <use x="95.410156" xlink:href="#DejaVuSans-33"/>
      </g>
     </g>
    </g>
    <g id="ytick_5">
     <g id="line2d_23">
      <path clip-path="url(#pe80baa5d18)" d="M 72 68.04731 
L 518.4 68.04731 
" style="fill:none;stroke:#b0b0b0;stroke-dasharray:5.12,1.28,0.8,1.28;stroke-dashoffset:0;stroke-width:0.8;"/>
     </g>
     <g id="line2d_24">
      <g>
       <use style="stroke:#000000;stroke-width:0.8;" x="72" xlink:href="#mbb867c38dc" y="68.04731"/>
      </g>
     </g>
     <g id="text_13">
      <!-- 0.4 -->
      <g transform="translate(49.096875 71.846528)scale(0.1 -0.1)">
       <use xlink:href="#DejaVuSans-30"/>
       <use x="63.623047" xlink:href="#DejaVuSans-2e"/>
       <use x="95.410156" xlink:href="#DejaVuSans-34"/>
      </g>
     </g>
    </g>
    <g id="text_14">
     <!-- dif_lambda -->
     <defs>
      <path d="M 45.40625 46.390625 
L 45.40625 75.984375 
L 54.390625 75.984375 
L 54.390625 0 
L 45.40625 0 
L 45.40625 8.203125 
Q 42.578125 3.328125 38.25 0.953125 
Q 33.9375 -1.421875 27.875 -1.421875 
Q 17.96875 -1.421875 11.734375 6.484375 
Q 5.515625 14.40625 5.515625 27.296875 
Q 5.515625 40.1875 11.734375 48.09375 
Q 17.96875 56 27.875 56 
Q 33.9375 56 38.25 53.625 
Q 42.578125 51.265625 45.40625 46.390625 
z
M 14.796875 27.296875 
Q 14.796875 17.390625 18.875 11.75 
Q 22.953125 6.109375 30.078125 6.109375 
Q 37.203125 6.109375 41.296875 11.75 
Q 45.40625 17.390625 45.40625 27.296875 
Q 45.40625 37.203125 41.296875 42.84375 
Q 37.203125 48.484375 30.078125 48.484375 
Q 22.953125 48.484375 18.875 42.84375 
Q 14.796875 37.203125 14.796875 27.296875 
z
" id="DejaVuSans-64"/>
      <path d="M 37.109375 75.984375 
L 37.109375 68.5 
L 28.515625 68.5 
Q 23.6875 68.5 21.796875 66.546875 
Q 19.921875 64.59375 19.921875 59.515625 
L 19.921875 54.6875 
L 34.71875 54.6875 
L 34.71875 47.703125 
L 19.921875 47.703125 
L 19.921875 0 
L 10.890625 0 
L 10.890625 47.703125 
L 2.296875 47.703125 
L 2.296875 54.6875 
L 10.890625 54.6875 
L 10.890625 58.5 
Q 10.890625 67.625 15.140625 71.796875 
Q 19.390625 75.984375 28.609375 75.984375 
z
" id="DejaVuSans-66"/>
      <path d="M 50.984375 -16.609375 
L 50.984375 -23.578125 
L -0.984375 -23.578125 
L -0.984375 -16.609375 
z
" id="DejaVuSans-5f"/>
      <path d="M 9.421875 75.984375 
L 18.40625 75.984375 
L 18.40625 0 
L 9.421875 0 
z
" id="DejaVuSans-6c"/>
      <path d="M 52 44.1875 
Q 55.375 50.25 60.0625 53.125 
Q 64.75 56 71.09375 56 
Q 79.640625 56 84.28125 50.015625 
Q 88.921875 44.046875 88.921875 33.015625 
L 88.921875 0 
L 79.890625 0 
L 79.890625 32.71875 
Q 79.890625 40.578125 77.09375 44.375 
Q 74.3125 48.1875 68.609375 48.1875 
Q 61.625 48.1875 57.5625 43.546875 
Q 53.515625 38.921875 53.515625 30.90625 
L 53.515625 0 
L 44.484375 0 
L 44.484375 32.71875 
Q 44.484375 40.625 41.703125 44.40625 
Q 38.921875 48.1875 33.109375 48.1875 
Q 26.21875 48.1875 22.15625 43.53125 
Q 18.109375 38.875 18.109375 30.90625 
L 18.109375 0 
L 9.078125 0 
L 9.078125 54.6875 
L 18.109375 54.6875 
L 18.109375 46.1875 
Q 21.1875 51.21875 25.484375 53.609375 
Q 29.78125 56 35.6875 56 
Q 41.65625 56 45.828125 52.96875 
Q 50 49.953125 52 44.1875 
z
" id="DejaVuSans-6d"/>
      <path d="M 48.6875 27.296875 
Q 48.6875 37.203125 44.609375 42.84375 
Q 40.53125 48.484375 33.40625 48.484375 
Q 26.265625 48.484375 22.1875 42.84375 
Q 18.109375 37.203125 18.109375 27.296875 
Q 18.109375 17.390625 22.1875 11.75 
Q 26.265625 6.109375 33.40625 6.109375 
Q 40.53125 6.109375 44.609375 11.75 
Q 48.6875 17.390625 48.6875 27.296875 
z
M 18.109375 46.390625 
Q 20.953125 51.265625 25.265625 53.625 
Q 29.59375 56 35.59375 56 
Q 45.5625 56 51.78125 48.09375 
Q 58.015625 40.1875 58.015625 27.296875 
Q 58.015625 14.40625 51.78125 6.484375 
Q 45.5625 -1.421875 35.59375 -1.421875 
Q 29.59375 -1.421875 25.265625 0.953125 
Q 20.953125 3.328125 18.109375 8.203125 
L 18.109375 0 
L 9.078125 0 
L 9.078125 75.984375 
L 18.109375 75.984375 
z
" id="DejaVuSans-62"/>
     </defs>
     <g transform="translate(41.795937 256.743125)rotate(-90)scale(0.14 -0.14)">
      <use xlink:href="#DejaVuSans-64"/>
      <use x="63.476562" xlink:href="#DejaVuSans-69"/>
      <use x="91.259766" xlink:href="#DejaVuSans-66"/>
      <use x="126.464844" xlink:href="#DejaVuSans-5f"/>
      <use x="176.464844" xlink:href="#DejaVuSans-6c"/>
      <use x="204.248047" xlink:href="#DejaVuSans-61"/>
      <use x="265.527344" xlink:href="#DejaVuSans-6d"/>
      <use x="362.939453" xlink:href="#DejaVuSans-62"/>
      <use x="426.416016" xlink:href="#DejaVuSans-64"/>
      <use x="489.892578" xlink:href="#DejaVuSans-61"/>
     </g>
    </g>
   </g>
   <g id="line2d_25">
    <path clip-path="url(#pe80baa5d18)" d="M 92.290909 323.884873 
L 92.629373 323.884873 
L 92.967837 283.910254 
L 93.306301 263.763046 
L 93.644765 254.169137 
L 93.983228 249.62802 
L 94.321692 247.453401 
L 94.660156 246.366091 
L 94.99862 245.918376 
L 95.675548 245.534619 
L 96.690939 245.406701 
L 100.752506 245.342741 
L 101.09097 256.599594 
L 101.767897 286.916345 
L 102.106361 292.288934 
L 102.444825 285.061523 
L 102.783289 262.164061 
L 103.121753 249.436142 
L 103.460217 245.854416 
L 103.798681 249.564061 
L 104.137145 247.773198 
L 104.475608 240.609746 
L 104.814072 236.324467 
L 105.829464 256.535635 
L 106.167928 255.384365 
L 106.506392 250.203655 
L 106.844856 263.187411 
L 107.183319 262.675736 
L 107.860247 244.319391 
L 108.537175 215.729543 
L 109.214103 158.869645 
L 109.552567 185.988426 
L 109.89103 203.193503 
L 110.229494 203.257462 
L 110.906422 249.755939 
L 111.58335 279.624975 
L 111.921814 286.724467 
L 112.260278 283.846294 
L 112.598741 275.339695 
L 112.937205 273.420914 
L 113.275669 273.356954 
L 113.614133 275.531574 
L 113.952597 273.996548 
L 114.291061 270.990457 
L 114.629525 269.839188 
L 115.644916 278.281827 
L 115.98338 278.281827 
L 116.321844 276.107208 
L 116.660308 275.723452 
L 116.998772 275.787411 
L 117.337236 276.299086 
L 118.014163 275.083858 
L 118.352627 274.060508 
L 118.691091 276.299086 
L 119.029555 280.200609 
L 119.368019 285.445279 
L 119.706483 286.212792 
L 120.044947 285.765076 
L 120.38341 287.364061 
L 120.721874 292.800609 
L 121.737266 316.529543 
L 122.07573 319.279797 
L 122.414194 319.919391 
L 122.752658 326.954924 
L 123.429585 334.374213 
L 124.106513 338.019898 
L 124.783441 339.618883 
L 125.121905 340.00264 
L 125.460368 340.194518 
L 126.137296 340.258477 
L 127.152688 339.810761 
L 128.506543 338.979289 
L 130.87579 337.316345 
L 131.891182 336.676751 
L 132.906574 336.037157 
L 136.629676 333.990457 
L 137.983532 333.414822 
L 138.660459 333.095025 
L 143.06049 331.496041 
L 144.075881 331.240203 
L 145.091273 330.920406 
L 146.783592 330.53665 
L 147.46052 330.344772 
L 155.245189 328.937665 
L 155.922117 328.873706 
L 156.937509 328.745787 
L 157.614436 328.681827 
L 158.629828 328.553909 
L 159.64522 328.489949 
L 160.660611 328.36203 
L 161.676003 328.298071 
L 162.691394 328.170152 
L 164.04525 328.106193 
L 164.722178 328.042234 
L 166.076033 327.978274 
L 166.752961 327.914315 
L 168.106816 327.850355 
L 168.783744 327.786396 
L 170.476063 327.722437 
L 171.152991 327.658477 
L 173.522238 327.594518 
L 174.199166 327.530558 
L 177.583805 327.466599 
L 178.260732 327.40264 
L 182.322299 327.33868 
L 182.999227 327.274721 
L 189.768504 327.210761 
L 190.445432 327.146802 
L 201.61474 327.082843 
L 202.291667 327.018883 
L 225.645674 326.954924 
L 226.322602 326.890964 
L 265.584411 326.827005 
L 266.261339 326.763046 
L 314.323209 326.699086 
L 315.000136 326.635127 
L 369.831284 326.571168 
L 370.508211 326.507208 
L 433.124028 326.443249 
L 433.800955 326.379289 
L 480.847433 326.31533 
L 481.862825 326.059492 
L 482.539753 325.419898 
L 483.216681 325.547817 
L 484.232072 325.29198 
L 484.909 324.716345 
L 485.585928 324.908223 
L 486.262855 324.972183 
L 486.939783 324.780305 
L 487.278247 324.524467 
L 487.616711 324.460508 
L 488.632103 324.652386 
L 489.30903 324.588426 
L 489.985958 324.20467 
L 490.662886 324.396548 
L 491.678277 324.396548 
L 492.355205 324.076751 
L 493.032133 324.268629 
L 494.047524 324.20467 
L 494.724452 323.884873 
L 495.40138 324.140711 
L 496.755235 324.076751 
L 497.093699 323.884873 
L 497.770627 324.076751 
L 498.109091 324.076751 
L 498.109091 324.076751 
" style="fill:none;stroke:#bf00bf;stroke-linecap:square;stroke-width:1.5;"/>
   </g>
   <g id="line2d_26">
    <path clip-path="url(#pe80baa5d18)" d="M 92.290909 323.884873 
L 92.629373 323.884873 
L 92.967837 83.653401 
L 93.306301 123.372183 
L 93.644765 142.240203 
L 93.983228 151.194518 
L 94.321692 155.479797 
L 94.660156 157.526497 
L 94.99862 158.485888 
L 95.337084 158.933604 
L 95.675548 159.189442 
L 97.029403 159.38132 
L 100.752506 159.445279 
L 101.09097 137.379289 
L 101.767897 77.705178 
L 102.106361 66.96 
L 102.444825 81.286904 
L 102.783289 126.442234 
L 103.121753 151.322437 
L 103.460217 158.421929 
L 103.798681 151.066599 
L 104.137145 154.584365 
L 104.475608 168.655431 
L 104.814072 176.970152 
L 105.829464 137.507208 
L 106.167928 139.681827 
L 106.506392 149.851371 
L 106.844856 156.631066 
L 107.183319 172.365076 
L 107.860247 218.16 
L 108.537175 283.27066 
L 109.214103 341.729543 
L 109.552567 293.696041 
L 109.89103 275.275736 
L 110.229494 290.817868 
L 110.906422 227.817868 
L 111.58335 187.075736 
L 111.921814 179.27269 
L 112.260278 189.570152 
L 112.598741 209.71736 
L 112.937205 216.433096 
L 113.275669 218.927513 
L 113.614133 216.497056 
L 113.952597 220.846294 
L 114.291061 227.689949 
L 114.629525 230.696041 
L 115.644916 215.921421 
L 115.98338 216.305178 
L 116.321844 220.590457 
L 116.660308 221.549848 
L 116.998772 221.677766 
L 117.337236 220.846294 
L 117.675699 224.747817 
L 118.014163 230.823959 
L 119.029555 267.664569 
L 119.368019 277.00264 
L 120.721874 350.300102 
L 121.060338 353.498071 
L 121.398802 352.858477 
L 121.737266 354.137665 
L 122.07573 360.405685 
L 122.414194 369.36 
L 122.752658 364.627005 
L 123.429585 360.469645 
L 124.106513 358.167107 
L 124.783441 356.76 
L 125.798832 355.224975 
L 130.87579 348.637157 
L 134.598893 344.543756 
L 137.306604 342.113299 
L 141.029707 339.427005 
L 145.091273 337.188426 
L 146.106665 336.740711 
L 146.783592 336.420914 
L 151.86055 334.566091 
L 152.875942 334.310254 
L 153.891334 333.990457 
L 156.260581 333.478782 
L 156.937509 333.286904 
L 162.691394 332.263553 
L 163.368322 332.199594 
L 165.060641 331.943756 
L 166.076033 331.879797 
L 167.429889 331.687919 
L 168.44528 331.623959 
L 169.460672 331.496041 
L 170.476063 331.432081 
L 171.491455 331.304162 
L 172.84531 331.240203 
L 173.522238 331.176244 
L 174.876094 331.112284 
L 175.553021 331.048325 
L 176.906877 330.984365 
L 177.583805 330.920406 
L 179.614588 330.856447 
L 180.291516 330.792487 
L 182.660763 330.728528 
L 183.33769 330.664569 
L 186.045401 330.600609 
L 186.722329 330.53665 
L 190.783896 330.47269 
L 191.460823 330.408731 
L 196.537781 330.344772 
L 197.214709 330.280812 
L 204.999378 330.216853 
L 205.676306 330.152893 
L 216.845614 330.088934 
L 217.522542 330.024975 
L 233.09188 329.961015 
L 233.768807 329.897056 
L 253.399712 329.833096 
L 254.07664 329.769137 
L 275.738327 329.705178 
L 276.415255 329.641218 
L 299.769262 329.577259 
L 300.44619 329.513299 
L 325.492516 329.44934 
L 326.169444 329.385381 
L 352.90809 329.321421 
L 353.585018 329.257462 
L 382.015983 329.193503 
L 382.692911 329.129543 
L 413.154659 329.065584 
L 413.831587 329.001624 
L 446.662582 328.937665 
L 447.33951 328.873706 
L 480.50897 328.809746 
L 481.185897 328.042234 
L 481.524361 327.658477 
L 482.201289 325.164061 
L 482.539753 326.507208 
L 482.878217 327.146802 
L 483.555144 326.571168 
L 483.893608 326.123452 
L 484.232072 324.332589 
L 484.570536 324.012792 
L 484.909 325.675736 
L 485.247464 326.123452 
L 485.585928 326.31533 
L 485.924392 325.931574 
L 486.262855 325.739695 
L 486.601319 325.036142 
L 486.939783 323.756954 
L 487.278247 324.332589 
L 487.616711 325.29198 
L 487.955175 325.611777 
L 488.632103 325.29198 
L 488.970566 325.036142 
L 489.30903 323.820914 
L 489.647494 323.565076 
L 489.985958 324.780305 
L 490.324422 325.164061 
L 490.662886 325.164061 
L 491.339813 324.844264 
L 491.678277 323.884873 
L 492.016741 323.373198 
L 492.355205 324.588426 
L 492.693669 324.908223 
L 493.370597 324.716345 
L 493.709061 324.396548 
L 494.047524 323.309239 
L 494.385988 323.18132 
L 494.724452 324.332589 
L 495.062916 324.652386 
L 495.40138 324.780305 
L 495.739844 324.588426 
L 496.078308 324.524467 
L 496.755235 323.18132 
L 497.093699 324.140711 
L 497.432163 324.588426 
L 497.770627 324.588426 
L 498.109091 324.460508 
L 498.109091 324.460508 
" style="fill:none;stroke:#00bfbf;stroke-linecap:square;stroke-width:1.5;"/>
   </g>
   <g id="line2d_27">
    <path clip-path="url(#pe80baa5d18)" d="M 92.290909 323.884873 
L 92.629373 323.884873 
L 92.967837 283.910254 
L 93.306301 263.763046 
L 93.644765 254.169137 
L 93.983228 249.62802 
L 94.321692 247.453401 
L 94.660156 246.366091 
L 94.99862 245.918376 
L 95.675548 245.534619 
L 96.690939 245.406701 
L 100.752506 245.342741 
L 101.09097 256.599594 
L 101.767897 286.916345 
L 102.106361 292.288934 
L 102.444825 285.061523 
L 102.783289 262.164061 
L 103.121753 249.436142 
L 103.460217 245.854416 
L 103.798681 249.564061 
L 104.137145 247.773198 
L 104.475608 240.609746 
L 104.814072 236.324467 
L 105.829464 256.535635 
L 106.167928 255.384365 
L 106.506392 250.203655 
L 106.844856 249.116345 
L 107.183319 249.180305 
L 107.521783 250.587411 
L 108.198711 257.622944 
L 108.537175 259.285888 
L 108.875639 261.908223 
L 109.214103 267.024975 
L 109.552567 290.370152 
L 109.89103 292.73665 
L 110.229494 276.93868 
L 110.906422 296.382335 
L 111.58335 308.854416 
L 111.921814 309.877766 
L 112.260278 302.330558 
L 112.598741 290.178274 
L 112.937205 285.253401 
L 113.275669 282.822944 
L 113.614133 283.142741 
L 113.952597 280.264569 
L 114.291061 276.171168 
L 114.629525 274.252386 
L 115.644916 281.096041 
L 115.98338 280.712284 
L 116.321844 278.409746 
L 116.660308 277.770152 
L 116.998772 277.642234 
L 117.337236 278.02599 
L 117.675699 286.212792 
L 118.014163 290.434112 
L 119.368019 274.764061 
L 120.38341 253.209746 
L 120.721874 253.84934 
L 121.060338 259.861523 
L 121.737266 274.444264 
L 122.07573 277.706193 
L 122.414194 279.305178 
L 123.091121 295.614822 
L 123.768049 306.551878 
L 124.444977 313.843249 
L 125.121905 318.576244 
L 125.798832 321.710254 
L 126.47576 323.756954 
L 127.152688 325.036142 
L 127.829616 325.803655 
L 128.506543 326.31533 
L 128.845007 326.507208 
L 130.537327 326.763046 
L 132.229646 326.699086 
L 133.921965 326.443249 
L 134.598893 326.379289 
L 136.629676 326.059492 
L 137.306604 325.995533 
L 138.998923 325.739695 
L 140.014315 325.675736 
L 141.36817 325.483858 
L 142.383562 325.419898 
L 143.398954 325.29198 
L 144.414345 325.22802 
L 145.429737 325.100102 
L 146.783592 325.036142 
L 147.46052 324.972183 
L 148.814376 324.908223 
L 149.491303 324.844264 
L 150.845159 324.780305 
L 151.522087 324.716345 
L 153.214406 324.652386 
L 153.891334 324.588426 
L 156.599045 324.524467 
L 157.275972 324.460508 
L 160.322147 324.396548 
L 160.999075 324.332589 
L 165.737569 324.268629 
L 166.414497 324.20467 
L 174.876094 324.140711 
L 175.553021 324.076751 
L 204.660914 324.012792 
L 205.337842 323.948832 
L 480.50897 323.948832 
L 480.847433 324.20467 
L 481.524361 325.036142 
L 482.201289 327.082843 
L 482.539753 325.22802 
L 482.878217 324.20467 
L 483.216681 324.332589 
L 483.893608 324.972183 
L 484.232072 326.635127 
L 484.570536 326.635127 
L 484.909 324.460508 
L 485.247464 323.756954 
L 485.585928 323.501117 
L 485.924392 323.948832 
L 486.262855 324.140711 
L 486.601319 324.908223 
L 486.939783 326.059492 
L 487.278247 325.22802 
L 487.616711 323.948832 
L 487.955175 323.437157 
L 488.970566 324.20467 
L 489.30903 325.419898 
L 489.647494 325.547817 
L 489.985958 323.948832 
L 490.324422 323.437157 
L 490.662886 323.501117 
L 491.339813 323.948832 
L 491.678277 324.972183 
L 492.016741 325.355939 
L 492.355205 323.884873 
L 492.693669 323.437157 
L 493.032133 323.565076 
L 493.709061 324.140711 
L 494.047524 325.22802 
L 494.385988 325.164061 
L 494.724452 323.820914 
L 495.062916 323.373198 
L 495.40138 323.309239 
L 496.078308 323.756954 
L 496.755235 325.100102 
L 497.093699 324.012792 
L 497.432163 323.437157 
L 497.770627 323.437157 
L 498.109091 323.692995 
L 498.109091 323.692995 
" style="fill:none;stroke:#ff0000;stroke-linecap:square;stroke-width:1.5;"/>
   </g>
   <g id="patch_3">
    <path d="M 72 384.48 
L 72 51.84 
" style="fill:none;stroke:#000000;stroke-linecap:square;stroke-linejoin:miter;stroke-width:0.8;"/>
   </g>
   <g id="patch_4">
    <path d="M 518.4 384.48 
L 518.4 51.84 
" style="fill:none;stroke:#000000;stroke-linecap:square;stroke-linejoin:miter;stroke-width:0.8;"/>
   </g>
   <g id="patch_5">
    <path d="M 72 384.48 
L 518.4 384.48 
" style="fill:none;stroke:#000000;stroke-linecap:square;stroke-linejoin:miter;stroke-width:0.8;"/>
   </g>
   <g id="patch_6">
    <path d="M 72 51.84 
L 518.4 51.84 
" style="fill:none;stroke:#000000;stroke-linecap:square;stroke-linejoin:miter;stroke-width:0.8;"/>
   </g>
   <g id="text_15">
    <!-- dif_lambda -->
    <g transform="translate(256.616875 45.84)scale(0.14 -0.14)">
     <use xlink:href="#DejaVuSans-64"/>
     <use x="63.476562" xlink:href="#DejaVuSans-69"/>
     <use x="91.259766" xlink:href="#DejaVuSans-66"/>
     <use x="126.464844" xlink:href="#DejaVuSans-5f"/>
     <use x="176.464844" xlink:href="#DejaVuSans-6c"/>
     <use x="204.248047" xlink:href="#DejaVuSans-61"/>
     <use x="265.527344" xlink:href="#DejaVuSans-6d"/>
     <use x="362.939453" xlink:href="#DejaVuSans-62"/>
     <use x="426.416016" xlink:href="#DejaVuSans-64"/>
     <use x="489.892578" xlink:href="#DejaVuSans-61"/>
    </g>
   </g>
   <g id="legend_1">
    <g id="patch_7">
     <path d="M 417.91875 104.70875 
L 511.4 104.70875 
Q 513.4 104.70875 513.4 102.70875 
L 513.4 58.84 
Q 513.4 56.84 511.4 56.84 
L 417.91875 56.84 
Q 415.91875 56.84 415.91875 58.84 
L 415.91875 102.70875 
Q 415.91875 104.70875 417.91875 104.70875 
z
" style="fill:#ffffff;opacity:0.8;stroke:#cccccc;stroke-linejoin:miter;"/>
    </g>
    <g id="line2d_28">
     <path d="M 419.91875 64.938438 
L 439.91875 64.938438 
" style="fill:none;stroke:#bf00bf;stroke-linecap:square;stroke-width:1.5;"/>
    </g>
    <g id="line2d_29"/>
    <g id="text_16">
     <!-- dif_lambda1 -->
     <g transform="translate(447.91875 68.438438)scale(0.1 -0.1)">
      <use xlink:href="#DejaVuSans-64"/>
      <use x="63.476562" xlink:href="#DejaVuSans-69"/>
      <use x="91.259766" xlink:href="#DejaVuSans-66"/>
      <use x="126.464844" xlink:href="#DejaVuSans-5f"/>
      <use x="176.464844" xlink:href="#DejaVuSans-6c"/>
      <use x="204.248047" xlink:href="#DejaVuSans-61"/>
      <use x="265.527344" xlink:href="#DejaVuSans-6d"/>
      <use x="362.939453" xlink:href="#DejaVuSans-62"/>
      <use x="426.416016" xlink:href="#DejaVuSans-64"/>
      <use x="489.892578" xlink:href="#DejaVuSans-61"/>
      <use x="551.171875" xlink:href="#DejaVuSans-31"/>
     </g>
    </g>
    <g id="line2d_30">
     <path d="M 419.91875 79.894688 
L 439.91875 79.894688 
" style="fill:none;stroke:#00bfbf;stroke-linecap:square;stroke-width:1.5;"/>
    </g>
    <g id="line2d_31"/>
    <g id="text_17">
     <!-- dif_lambda2 -->
     <g transform="translate(447.91875 83.394688)scale(0.1 -0.1)">
      <use xlink:href="#DejaVuSans-64"/>
      <use x="63.476562" xlink:href="#DejaVuSans-69"/>
      <use x="91.259766" xlink:href="#DejaVuSans-66"/>
      <use x="126.464844" xlink:href="#DejaVuSans-5f"/>
      <use x="176.464844" xlink:href="#DejaVuSans-6c"/>
      <use x="204.248047" xlink:href="#DejaVuSans-61"/>
      <use x="265.527344" xlink:href="#DejaVuSans-6d"/>
      <use x="362.939453" xlink:href="#DejaVuSans-62"/>
      <use x="426.416016" xlink:href="#DejaVuSans-64"/>
      <use x="489.892578" xlink:href="#DejaVuSans-61"/>
      <use x="551.171875" xlink:href="#DejaVuSans-32"/>
     </g>
    </g>
    <g id="line2d_32">
     <path d="M 419.91875 94.850938 
L 439.91875 94.850938 
" style="fill:none;stroke:#ff0000;stroke-linecap:square;stroke-width:1.5;"/>
    </g>
    <g id="line2d_33"/>
    <g id="text_18">
     <!-- dif_lambda3 -->
     <g transform="translate(447.91875 98.350938)scale(0.1 -0.1)">
      <use xlink:href="#DejaVuSans-64"/>
      <use x="63.476562" xlink:href="#DejaVuSans-69"/>
      <use x="91.259766" xlink:href="#DejaVuSans-66"/>
      <use x="126.464844" xlink:href="#DejaVuSans-5f"/>
      <use x="176.464844" xlink:href="#DejaVuSans-6c"/>
      <use x="204.248047" xlink:href="#DejaVuSans-61"/>
      <use x="265.527344" xlink:href="#DejaVuSans-6d"/>
      <use x="362.939453" xlink:href="#DejaVuSans-62"/>
      <use x="426.416016" xlink:href="#DejaVuSans-64"/>
      <use x="489.892578" xlink:href="#DejaVuSans-61"/>
      <use x="551.171875" xlink:href="#DejaVuSans-33"/>
     </g>
    </g>
   </g>
  </g>
 </g>
 <defs>
  <clipPath id="pe80baa5d18">
   <rect height="332.64" width="446.4" x="72" y="51.84"/>
  </clipPath>
 </defs>
</svg>
