<?xml version="1.0" encoding="utf-8" standalone="no"?>
<!DOCTYPE svg PUBLIC "-//W3C//DTD SVG 1.1//EN"
  "http://www.w3.org/Graphics/SVG/1.1/DTD/svg11.dtd">
<!-- Created with matplotlib (http://matplotlib.org/) -->
<svg height="432pt" version="1.1" viewBox="0 0 576 432" width="576pt" xmlns="http://www.w3.org/2000/svg" xmlns:xlink="http://www.w3.org/1999/xlink">
 <defs>
  <style type="text/css">
*{stroke-linecap:butt;stroke-linejoin:round;}
  </style>
 </defs>
 <g id="figure_1">
  <g id="patch_1">
   <path d="
M0 432
L576 432
L576 0
L0 0
z
" style="fill:#ffffff;"/>
  </g>
  <g id="axes_1">
   <g id="patch_2">
    <path d="
M72 388.8
L518.4 388.8
L518.4 43.2
L72 43.2
z
" style="fill:#ffffff;"/>
   </g>
   <g id="line2d_1">
    <path clip-path="url(#p7ff5b81e1d)" d="
M86.7907 92.5714
L102.781 216
L106.177 216.087
L107.135 217.692
L107.83 219.13
L108.308 219.984
L108.893 222.956
L109.472 226.494
L112.055 248.829
L112.565 252.198
L113.21 253.169
L113.586 254.993
L114.134 255.831
L114.319 256.581
L114.723 257.294
L115.504 260.089
L115.924 261.055
L116.309 261.774
L117.254 262.445
L117.627 262.418
L118.07 262.166
L119.692 260.182
L119.848 259.688
L120.541 258.575
L121.179 257.958
L122.189 256.811
L122.746 256.444
L122.857 256.12
L123.464 255.6
L124.468 254.911
L124.969 254.111
L125.395 252.617
L125.54 251.877
L126.076 250.217
L126.233 249.314
L126.724 248.376
L127.615 243.171
L127.911 238.657
L128.527 230.959
L128.97 229.01
L129.216 227.067
L129.592 225.131
L129.793 223.461
L130.126 221.718
L131.153 219.986
L131.677 216.524
L131.738 216.595
L131.969 216.127
L132.933 207.127
L133.269 204.348
L133.711 199.984
L134.03 196.93
L134.556 187.25
L135.003 176.6
L135.405 169.519
L135.674 162.601
L136.513 146.372
L136.962 143.346
L137.187 140.402
L137.556 137.543
L137.962 132.09
L138.503 127.003
L138.911 122.377
L139.443 120.257
L139.996 116.311
L140.309 112.725
L140.732 109.432
L141.143 107.848
L141.386 108.412
L141.711 105.766
L141.957 105.353
L144.193 95.4113
L144.883 94.7097
L145.322 91.1194
L145.506 91.1959
L145.654 90.7432
L146.118 90.5329
L147.424 90.7309
L147.97 90.9239
L148.799 91.1268
L149.445 91.3337
L150.233 91.4329
L150.435 91.6462
L151.055 91.6309
L151.84 91.3534
L152.351 91.3347
L153.306 91.5386
L153.83 91.7415
L158.159 92.1345
L158.592 91.4477
L159.159 90.3858
L159.691 89.4897
L159.834 89.2305
L160.849 88.2238
L161.467 88.0776
L161.64 88.8074
L162.406 88.3625
L162.947 88.7348
L163.155 89.1367
L163.465 89.191
L163.986 89.4625
L164.133 89.3129
L165.124 89.4699
L167.536 89.6264
L167.794 89.8002
L168.182 89.7296
L168.35 89.8491
L169.003 89.8456
L169.157 89.7696
L170.131 89.8866
L171.502 89.9863
L176.961 90.2801
L177.169 90.3675
L177.513 90.2604
L177.708 90.3556
L177.883 90.2036
L181.285 90.1152
L181.426 89.7494
L181.579 89.8595
L181.904 89.742
L182.53 89.659
L183.855 89.7044
L190.001 90.3275
L190.172 90.4554
L190.682 90.4297
L194.502 90.6173
L194.686 90.6055
L195.161 90.6963
L196.073 90.7625
L196.883 90.6849
L199.661 90.7852
L200.077 90.8513
L202.309 90.9511
L204.579 90.9955
L206.735 91.1658
L209.302 91.1954
L224.275 91.4211
L224.504 91.4147
L225.03 91.425
L228.918 91.6077
L229.956 91.5796
L231.669 91.5894
L232.003 91.622
L239.394 91.6467
L239.574 91.5055
L239.894 91.6062
L240.377 91.5924
L243.687 91.666
L245.417 91.7099
L247.44 91.7326
L247.571 91.8896
L247.832 91.8496
L253.757 91.7277
L257.195 91.8842
L260.068 92.7531
L260.62 93.312
L260.857 93.5727
L260.967 93.6828
L261.812 93.824
L262.19 93.586
L263.483 92.1804
L264.119 92.0985
L267.65 92.1399
L273.018 92.2954
L334.564 92.5275
L364.923 92.5566
L506.069 92.5709
L506.069 92.5709" style="fill:none;stroke:#bf00bf;stroke-linecap:square;"/>
   </g>
   <g id="line2d_2">
    <path clip-path="url(#p7ff5b81e1d)" d="
M86.8075 92.5714
L103.804 216
L105.952 216
L106.132 216.408
L106.92 219.519
L108.506 223.893
L109.901 235.29
L110.454 240.585
L112.337 255.611
L112.512 256.639
L112.852 257.599
L113.341 258.491
L113.775 260.25
L114.686 261.711
L115.411 264.554
L116.264 266.238
L116.429 266.502
L117.371 266.986
L117.745 266.896
L118.177 266.599
L119.077 265.431
L119.601 265.028
L120.313 263.573
L120.734 263.01
L122.824 261.641
L122.975 261.36
L123.604 260.614
L124.404 260.127
L124.594 259.876
L125.528 257.274
L126.363 254.084
L126.832 253.189
L127.267 250.323
L127.804 247.213
L128.214 241.146
L128.584 237.405
L128.82 235.562
L129.528 233.732
L130.267 228.809
L131.016 227.15
L131.453 225.51
L131.573 226.287
L131.847 225.275
L131.956 222.69
L132.754 217.755
L133.871 206.86
L134.355 192.131
L135.962 160.709
L136.621 148.665
L137.386 140.445
L137.925 137.875
L138.103 135.391
L138.474 132.996
L138.796 128.546
L139.026 126.575
L139.591 124.512
L139.914 122.797
L140.419 117.654
L140.693 116.155
L141.091 114.624
L141.521 111.767
L141.682 111.903
L144.149 101.932
L145.033 99.9722
L145.629 97.6369
L145.73 96.9077
L145.947 96.378
L146 95.9158
L146.248 95.6359
L146.268 95.3831
L146.926 95.082
L147.789 95.4207
L148.348 95.6557
L148.987 95.9657
L149.581 96.4012
L150.07 96.5152
L150.347 96.8011
L151.006 97.039
L151.794 96.6377
L152.31 96.454
L152.963 96.5819
L153.441 96.8238
L154.028 97.2217
L155.881 97.8552
L156.832 98.1316
L158.114 98.2259
L159.419 98.2709
L160.246 98.5765
L161.829 99.6231
L162.647 100.718
L163.108 100.944
L163.574 101.756
L163.949 101.763
L164.546 102.141
L166.131 102.537
L168.142 103.021
L168.621 103.107
L168.777 103.063
L171.935 103.547
L173.671 103.645
L174.359 103.661
L174.72 103.799
L175.505 103.828
L175.972 103.837
L177.111 104.065
L178.269 104.108
L178.6 104.023
L179.275 103.946
L181.355 103.811
L181.509 103.741
L181.602 103.524
L182.881 102.894
L183.662 102.875
L185.919 103.323
L188.108 103.852
L189.154 103.968
L189.412 104.105
L189.895 104.147
L190.327 104.311
L190.789 104.429
L194.627 104.806
L194.81 104.924
L200.907 105.432
L201.995 105.588
L204.571 105.731
L204.716 105.803
L208.12 106.111
L215.138 106.358
L219.254 106.462
L221.014 106.506
L223.618 106.611
L224.01 106.554
L229.605 107.006
L230.95 106.979
L233.54 107.116
L237.056 107.182
L239.213 107.154
L239.32 107.017
L240.137 107.019
L242.474 107.075
L249.977 107.498
L251.39 107.48
L251.513 107.306
L259.707 107.576
L261.824 107.846
L262.207 107.578
L263.399 106.265
L264.076 106.041
L265.655 105.983
L267.569 106.051
L272.842 106.135
L330.685 106.153
L370.426 106.156
L506.354 106.163
L506.354 106.163" style="fill:none;stroke:#00bfbf;stroke-linecap:square;"/>
   </g>
   <g id="line2d_3">
    <path clip-path="url(#p7ff5b81e1d)" d="
M87.8468 92.5714
L105.886 216
L106.151 238.996
L106.408 254.38
L107.096 267.68
L107.384 274.051
L108.485 286.518
L108.708 298.7
L109.062 304.458
L109.343 315.36
L110.286 345.093
L110.687 347.129
L111.043 348.32
L111.351 348.753
L111.697 348.786
L111.872 348.71
L112.003 348.197
L112.49 347.541
L113.327 347.322
L113.478 347.107
L113.96 346.897
L114.892 348.348
L115.097 348.223
L115.274 345.251
L115.46 346.63
L116.081 345.653
L116.246 345.411
L117.034 344.868
L117.806 344.384
L118.883 343.93
L120.035 343.687
L122.674 343.452
L122.694 345.264
L122.719 344.31
L123.411 346.383
L124.423 348.192
L124.725 344.197
L124.847 344.574
L125.273 342.64
L126.087 341.815
L127.016 341.555
L127.189 341.718
L127.713 341.318
L127.842 341.385
L128.115 341.203
L128.674 340.935
L129.689 340.759
L129.803 341.008
L129.956 340.789
L131.376 340.694
L131.909 344.287
L132.101 342.343
L132.234 343.579
L132.41 341.381
L132.6 341.342
L132.726 342.365
L133.054 341.267
L133.226 338.991
L133.338 339.586
L134.335 337.825
L134.806 336.167
L135.338 334.488
L135.825 333.169
L136.151 332.582
L136.264 332.39
L136.663 332.215
L137.672 332.318
L137.811 332.467
L138.198 332.676
L138.249 334.726
L138.515 333.706
L138.868 335.215
L139.751 335.277
L139.955 334.939
L140.079 337.372
L140.742 338.807
L141.188 338.797
L141.43 338.917
L141.86 338.812
L142.169 338.824
L143.022 338.79
L145.109 338.822
L145.281 340.787
L145.445 340.318
L145.606 338.731
L145.757 338.931
L145.935 338.325
L146.067 338.405
L146.157 337.892
L146.306 337.932
L146.862 337.296
L146.984 337.395
L147.145 337.229
L147.298 337.391
L147.515 337.338
L147.877 337.615
L148.674 338.212
L149.036 339.012
L149.251 339.17
L149.386 339.541
L150.322 339.67
L150.54 340.043
L150.752 340.068
L151.324 337.186
L151.854 335.76
L152.033 335.664
L152.244 335.754
L152.45 336.018
L153.101 337.623
L153.727 339.816
L153.929 340.175
L154.918 340.186
L155.264 341.781
L155.429 341.043
L155.629 341.35
L155.759 341.168
L156.174 341.127
L157.5 340.813
L158.011 340.684
L160.087 340.374
L161.428 340.378
L162.341 341.752
L162.871 341.128
L162.984 343.035
L163.226 342.092
L163.338 342.197
L163.778 341.089
L163.895 340.079
L164.013 340.611
L164.208 340.316
L164.358 340.489
L164.466 340.433
L166.196 340.784
L167.478 340.91
L167.632 342.536
L167.859 341.644
L168.04 341.413
L168.208 342.009
L168.476 341.808
L168.954 341.653
L169.1 340.545
L169.403 342.019
L169.573 342
L169.725 341.183
L169.833 341.728
L170.087 341.851
L170.214 341.534
L170.642 341.769
L170.813 341.653
L172.038 341.685
L174.662 341.645
L174.975 342.017
L174.986 341.629
L175.351 341.726
L176.858 341.67
L177.038 342.829
L177.147 342.295
L177.427 341.976
L177.663 342.611
L177.84 342.48
L178.081 340.643
L178.256 341.851
L178.389 341.95
L178.59 341.197
L178.925 341.69
L179.359 341.34
L179.732 341.449
L180.621 343.221
L180.824 342.336
L181.006 340.027
L181.089 340.638
L181.241 340.152
L181.344 340.36
L181.526 340.156
L181.671 340.252
L181.712 340.131
L181.875 340.17
L182.729 340.084
L189.018 340.181
L189.101 341.468
L189.94 340.481
L189.991 340.242
L190.506 340.106
L190.837 340.358
L190.921 340.121
L191.07 340.276
L191.151 340.142
L191.318 340.231
L191.505 340.152
L191.67 340.203
L192.433 340.158
L192.734 340.159
L193.616 340.16
L193.72 341.274
L194.639 340.438
L194.843 340.885
L194.987 340.512
L195.472 340.521
L195.651 339.81
L195.891 340.34
L196.561 339.926
L196.6 340.253
L196.906 340.91
L197.902 339.94
L198.028 340.2
L198.22 339.994
L198.347 340.135
L198.512 340.019
L198.687 340.108
L198.807 340.038
L199.463 340.087
L199.617 340.997
L199.732 340.222
L199.853 340.302
L199.96 340.671
L200.348 340.315
L201.182 340.37
L201.397 340.511
L201.562 339.877
L201.716 340.109
L202.083 340.084
L202.609 340.035
L203.321 340.053
L203.65 340.041
L204.534 340.587
L204.637 340.869
L205.247 340.167
L205.533 340.857
L205.837 340.366
L205.994 340.62
L206.198 340.1
L206.476 340.418
L206.645 340.185
L206.862 340.317
L206.982 340.212
L207.479 340.213
L208.378 340.211
L215.128 340.093
L218.238 340.064
L218.42 339.636
L218.609 340
L218.82 339.706
L219.059 339.966
L219.199 339.76
L219.41 339.946
L219.613 339.802
L219.766 339.937
L220.006 339.837
L220.167 339.935
L220.387 339.865
L220.592 339.937
L221.169 339.908
L221.84 339.955
L222.312 339.963
L224.388 339.966
L224.409 340.32
L224.645 340.412
L224.909 340.392
L225.234 340.517
L225.403 339.857
L226.272 340.286
L226.736 339.993
L227.037 340.104
L227.446 340.407
L227.834 340.486
L228.322 339.625
L228.679 340.262
L228.879 339.717
L229.018 340.401
L229.165 339.793
L229.249 340.169
L229.404 339.846
L229.576 340.123
L229.654 339.889
L229.785 340.092
L229.902 339.921
L230.072 340.07
L230.142 339.945
L230.283 340.056
L230.491 339.965
L230.603 340.046
L230.834 339.981
L231.603 340.205
L231.703 340.288
L231.978 340.074
L233.267 340.269
L233.438 340.059
L233.463 340.079
L233.67 340.239
L233.737 340.09
L234.406 340.14
L234.772 340.12
L235.832 340.095
L237.696 340.083
L237.895 339.733
L238.318 339.835
L238.867 339.86
L239.359 340.142
L239.689 340.022
L240.169 339.985
L240.761 340.006
L241.854 339.995
L243.056 340.005
L243.088 340.165
L243.346 340.059
L243.886 340.095
L244.537 340.068
L245.87 340.067
L245.984 340.012
L248.356 340.084
L249.62 340.084
L253.229 340.028
L258.419 340.03
L258.976 340.048
L261.184 340.176
L261.238 340.122
L262.24 340.049
L263.294 339.854
L263.953 339.781
L264.519 339.59
L264.608 339.73
L264.745 339.587
L265.575 339.883
L266.408 339.553
L266.542 339.886
L266.817 339.637
L267.022 339.778
L267.289 339.649
L269.58 339.644
L273.168 339.607
L276.317 339.588
L276.734 339.409
L277.234 339.624
L277.583 339.398
L278.321 339.631
L278.97 339.373
L279.044 339.659
L279.79 339.667
L279.941 339.405
L280.431 339.737
L280.839 339.352
L280.983 339.681
L281.17 339.628
L281.29 339.342
L281.386 339.781
L281.727 339.343
L281.836 339.832
L282.138 339.354
L282.314 339.847
L282.586 339.377
L282.764 339.83
L282.961 339.426
L283.147 339.774
L283.314 339.467
L283.762 339.662
L284.036 339.502
L284.559 339.525
L285.162 339.537
L286.452 339.544
L287.662 339.54
L287.861 339.442
L288.085 339.528
L288.324 339.453
L289.626 339.491
L292.662 339.553
L293.378 339.473
L293.914 339.5
L295.152 339.484
L298.144 339.554
L298.421 339.437
L298.544 339.539
L298.723 339.448
L298.997 339.457
L299.595 339.515
L300.169 339.474
L300.711 339.478
L303.072 339.525
L304.924 339.511
L342.707 339.467
L348.518 339.445
L358.867 339.455
L507.657 339.429
L507.657 339.429" style="fill:none;stroke:#ff0000;stroke-linecap:square;"/>
   </g>
   <g id="line2d_4">
    <path clip-path="url(#p7ff5b81e1d)" d="
M87.8318 92.5714
L103.925 216
L105.93 216
L106.251 224.311
L106.56 236.438
L107.895 262.084
L108.459 268.424
L110.588 329.583
L110.971 333.889
L111.329 335.762
L111.662 336.272
L112.152 334.726
L112.636 333.142
L113.3 332.608
L113.49 333.319
L114.237 332.643
L114.608 332.524
L115.018 333.925
L115.211 334.086
L115.744 330.188
L116.723 327.52
L117.538 326.109
L117.918 325.623
L119.112 324.706
L120.083 324.266
L120.821 324
L122.802 332.51
L122.941 334.003
L123.246 333.018
L123.705 330.605
L124.412 331.05
L125.515 323.679
L125.876 322.116
L126.326 321.245
L126.792 320.976
L126.885 320.783
L127.215 320.652
L127.773 320.575
L127.854 320.525
L128.599 320.33
L130.039 320.221
L130.97 320.259
L131.357 322.837
L131.436 325.62
L131.783 325.481
L131.919 325.837
L132.049 326.949
L132.223 327.129
L132.432 327.133
L132.652 326.041
L132.737 324.751
L133.238 323.112
L133.508 320.656
L133.995 318.706
L134.821 316.506
L135.07 316.083
L135.176 315.664
L136.106 314.151
L136.473 314.165
L137.566 315.064
L137.706 317.417
L137.937 317.715
L138.339 317.846
L138.461 319.66
L138.652 318.781
L138.939 319.914
L139.322 320.092
L139.704 322.145
L139.901 324.102
L140.092 323.244
L140.223 324.795
L140.403 324.766
L140.607 324.927
L141.057 324.704
L141.241 324.796
L142.068 324.512
L144.963 325
L145.093 326.852
L145.295 326.719
L145.459 325.86
L145.617 326.179
L145.771 325.411
L145.916 325.504
L146.082 324.868
L146.202 324.898
L146.372 324.383
L146.494 324.408
L146.724 324.018
L146.873 324.079
L147.049 323.817
L147.16 323.938
L147.362 323.804
L147.926 324.249
L148.734 325.032
L149.339 326.128
L149.567 326.435
L150.036 326.513
L150.366 328.24
L150.821 328.201
L151.942 322.539
L152.125 322.378
L152.295 322.444
L152.709 323.154
L153.765 326.484
L154.406 326.939
L154.798 327.095
L155.068 328.735
L155.175 328.543
L155.676 329.184
L156.001 329.439
L156.567 329.48
L157.185 329.321
L158.717 328.659
L159.243 328.426
L159.915 328.167
L161.577 327.952
L161.786 329.488
L162.327 329.087
L162.769 330.516
L163.082 330.665
L163.24 331.816
L163.556 329.572
L163.923 329.503
L164.083 328.924
L164.265 328.758
L164.522 328.353
L165.051 328.111
L165.752 328.139
L167.277 328.439
L167.464 329.899
L167.874 329.522
L168.13 330.102
L168.426 330.08
L168.767 329.164
L169.085 329.48
L169.301 329.093
L169.679 329.86
L169.866 329.757
L170.193 330.086
L170.526 330.139
L171.209 330.238
L172.623 330.272
L174.374 330.23
L174.581 331.46
L174.688 331.029
L175.09 330.939
L175.486 330.661
L175.943 330.609
L176.808 332.558
L177.261 331.846
L177.47 332.193
L177.615 332.119
L177.777 330.59
L178.069 331.13
L178.239 331.078
L178.418 330.42
L178.557 330.53
L178.764 330.502
L178.972 330.15
L179.537 329.977
L179.86 329.73
L180.334 329.584
L180.403 330.004
L180.883 330.469
L181.59 327.252
L181.935 326.522
L182.001 326.23
L182.278 325.935
L182.349 325.689
L184.109 323.813
L186.016 322.449
L186.596 322.041
L186.994 321.746
L187.704 321.458
L188.576 321.177
L188.7 322.098
L188.894 321.551
L189.143 321.53
L189.302 321.873
L189.426 321.601
L189.878 321.384
L190.087 322.21
L190.316 321.533
L190.475 321.457
L190.63 321.096
L190.849 320.989
L191.135 320.601
L191.63 320.12
L192.392 319.666
L193.15 319.47
L193.418 320.224
L193.733 319.737
L194.069 319.722
L194.648 320.013
L194.767 319.762
L195.061 319.731
L195.419 319.115
L195.708 319.302
L195.867 318.881
L196.574 318.953
L196.588 318.667
L196.769 318.682
L197.047 318.908
L197.875 318.74
L198.457 318.161
L198.863 317.825
L199.275 317.76
L199.449 318.379
L199.505 317.947
L199.695 317.956
L199.773 318.185
L199.88 317.951
L200.892 317.823
L201.33 318.315
L202.405 317.118
L203.08 316.703
L203.793 316.544
L204.225 316.738
L204.671 317.124
L205.14 317.193
L205.259 317.549
L205.67 317.186
L205.852 317.285
L206.003 316.87
L206.282 316.878
L206.402 316.652
L206.683 316.577
L206.995 316.401
L208.034 315.999
L209.569 315.604
L212.27 315.031
L215.662 314.429
L217.505 314.115
L217.94 314.05
L218.193 313.701
L218.382 313.836
L218.591 313.576
L218.762 313.669
L218.965 313.482
L219.175 313.544
L219.377 313.408
L219.575 313.449
L219.744 313.349
L220.15 313.3
L220.769 313.266
L221.826 313.155
L222.829 313.095
L223.285 313.344
L224.434 313.591
L224.536 313.697
L224.668 313.543
L224.938 313.4
L225.386 313.629
L225.548 313.387
L226.059 313.393
L227.014 313.717
L227.163 313.63
L227.577 313.184
L227.952 313.466
L228.377 313.035
L228.458 313.394
L229.005 313.06
L229.142 313.214
L229.31 312.947
L229.388 313.054
L229.54 312.857
L229.686 312.934
L229.812 312.788
L229.912 312.842
L230.018 312.732
L230.296 312.687
L230.815 312.663
L230.936 312.613
L231.654 312.684
L231.85 312.834
L232.614 312.772
L232.804 312.895
L233.195 312.804
L233.401 312.875
L233.78 312.749
L234.058 312.7
L237.603 312.345
L237.778 312.075
L238.804 311.908
L238.968 312.069
L239.296 312.023
L239.482 312.115
L240.284 312.009
L246.48 311.791
L246.714 311.756
L250.599 311.659
L253.051 311.537
L255.646 311.43
L257.718 311.454
L259.176 311.522
L259.786 311.531
L262.26 311.5
L263.87 311.129
L264.051 310.956
L264.193 310.981
L264.635 310.839
L265.09 310.99
L265.161 310.857
L265.548 310.805
L265.704 310.916
L266.227 310.738
L266.378 310.908
L266.649 310.709
L266.779 310.768
L267.215 310.664
L267.754 310.59
L270.036 310.333
L273.093 310.111
L277.013 310.026
L277.386 309.852
L277.492 309.958
L277.902 309.773
L278.999 309.927
L279.141 309.749
L279.276 309.939
L280.074 309.781
L280.567 309.939
L280.961 309.929
L281.055 309.714
L281.14 309.949
L281.449 309.663
L281.537 309.939
L281.899 309.627
L282.008 309.912
L282.358 309.608
L282.517 309.872
L282.643 309.662
L282.806 309.61
L282.925 309.815
L283.097 309.637
L284.757 309.628
L286.218 309.554
L287.818 309.457
L288.471 309.368
L292.041 309.388
L294.56 309.244
L296.832 309.185
L297.774 309.251
L297.978 309.17
L298.234 309.219
L298.809 309.138
L299.114 309.125
L300.076 309.117
L300.801 309.086
L305.181 309.054
L316.207 308.832
L320.409 308.772
L403.734 308.384
L507.088 308.344
L507.088 308.344" style="fill:none;stroke:#008000;stroke-linecap:square;"/>
   </g>
   <g id="patch_3">
    <path d="
M72 388.8
L72 43.2" style="fill:none;stroke:#000000;stroke-linecap:square;stroke-linejoin:miter;"/>
   </g>
   <g id="patch_4">
    <path d="
M518.4 388.8
L518.4 43.2" style="fill:none;stroke:#000000;stroke-linecap:square;stroke-linejoin:miter;"/>
   </g>
   <g id="patch_5">
    <path d="
M72 388.8
L518.4 388.8" style="fill:none;stroke:#000000;stroke-linecap:square;stroke-linejoin:miter;"/>
   </g>
   <g id="patch_6">
    <path d="
M72 43.2
L518.4 43.2" style="fill:none;stroke:#000000;stroke-linecap:square;stroke-linejoin:miter;"/>
   </g>
   <g id="matplotlib.axis_1">
    <g id="xtick_1">
     <g id="line2d_5">
      <path clip-path="url(#p7ff5b81e1d)" d="
M72 388.8
L72 43.2" style="fill:none;stroke:#000000;stroke-dasharray:3.000000,5.000000,1.000000,5.000000;stroke-dashoffset:0.0;stroke-width:0.5;"/>
     </g>
     <g id="line2d_6">
      <defs>
       <path d="
M0 0
L0 -4" id="mc7db9fdffb" style="stroke:#000000;stroke-width:0.5;"/>
      </defs>
      <g>
       <use style="stroke:#000000;stroke-width:0.5;" x="72.0" xlink:href="#mc7db9fdffb" y="388.8"/>
      </g>
     </g>
     <g id="line2d_7">
      <defs>
       <path d="
M0 0
L0 4" id="m5a7d422ac3" style="stroke:#000000;stroke-width:0.5;"/>
      </defs>
      <g>
       <use style="stroke:#000000;stroke-width:0.5;" x="72.0" xlink:href="#m5a7d422ac3" y="43.2"/>
      </g>
     </g>
     <g id="text_1">
      <!-- 0 -->
      <defs>
       <path d="
M31.7812 66.4062
Q24.1719 66.4062 20.3281 58.9062
Q16.5 51.4219 16.5 36.375
Q16.5 21.3906 20.3281 13.8906
Q24.1719 6.39062 31.7812 6.39062
Q39.4531 6.39062 43.2812 13.8906
Q47.125 21.3906 47.125 36.375
Q47.125 51.4219 43.2812 58.9062
Q39.4531 66.4062 31.7812 66.4062
M31.7812 74.2188
Q44.0469 74.2188 50.5156 64.5156
Q56.9844 54.8281 56.9844 36.375
Q56.9844 17.9688 50.5156 8.26562
Q44.0469 -1.42188 31.7812 -1.42188
Q19.5312 -1.42188 13.0625 8.26562
Q6.59375 17.9688 6.59375 36.375
Q6.59375 54.8281 13.0625 64.5156
Q19.5312 74.2188 31.7812 74.2188" id="DejaVuSans-30"/>
      </defs>
      <g transform="translate(68.9765625 401.918125)scale(0.12 -0.12)">
       <use xlink:href="#DejaVuSans-30"/>
      </g>
     </g>
    </g>
    <g id="xtick_2">
     <g id="line2d_8">
      <path clip-path="url(#p7ff5b81e1d)" d="
M135.771 388.8
L135.771 43.2" style="fill:none;stroke:#000000;stroke-dasharray:3.000000,5.000000,1.000000,5.000000;stroke-dashoffset:0.0;stroke-width:0.5;"/>
     </g>
     <g id="line2d_9">
      <g>
       <use style="stroke:#000000;stroke-width:0.5;" x="135.771428571" xlink:href="#mc7db9fdffb" y="388.8"/>
      </g>
     </g>
     <g id="line2d_10">
      <g>
       <use style="stroke:#000000;stroke-width:0.5;" x="135.771428571" xlink:href="#m5a7d422ac3" y="43.2"/>
      </g>
     </g>
     <g id="text_2">
      <!-- 20 -->
      <defs>
       <path d="
M19.1875 8.29688
L53.6094 8.29688
L53.6094 0
L7.32812 0
L7.32812 8.29688
Q12.9375 14.1094 22.625 23.8906
Q32.3281 33.6875 34.8125 36.5312
Q39.5469 41.8438 41.4219 45.5312
Q43.3125 49.2188 43.3125 52.7812
Q43.3125 58.5938 39.2344 62.25
Q35.1562 65.9219 28.6094 65.9219
Q23.9688 65.9219 18.8125 64.3125
Q13.6719 62.7031 7.8125 59.4219
L7.8125 69.3906
Q13.7656 71.7812 18.9375 73
Q24.125 74.2188 28.4219 74.2188
Q39.75 74.2188 46.4844 68.5469
Q53.2188 62.8906 53.2188 53.4219
Q53.2188 48.9219 51.5312 44.8906
Q49.8594 40.875 45.4062 35.4062
Q44.1875 33.9844 37.6406 27.2188
Q31.1094 20.4531 19.1875 8.29688" id="DejaVuSans-32"/>
      </defs>
      <g transform="translate(128.974553571 401.918125)scale(0.12 -0.12)">
       <use xlink:href="#DejaVuSans-32"/>
       <use x="63.623046875" xlink:href="#DejaVuSans-30"/>
      </g>
     </g>
    </g>
    <g id="xtick_3">
     <g id="line2d_11">
      <path clip-path="url(#p7ff5b81e1d)" d="
M199.543 388.8
L199.543 43.2" style="fill:none;stroke:#000000;stroke-dasharray:3.000000,5.000000,1.000000,5.000000;stroke-dashoffset:0.0;stroke-width:0.5;"/>
     </g>
     <g id="line2d_12">
      <g>
       <use style="stroke:#000000;stroke-width:0.5;" x="199.542857143" xlink:href="#mc7db9fdffb" y="388.8"/>
      </g>
     </g>
     <g id="line2d_13">
      <g>
       <use style="stroke:#000000;stroke-width:0.5;" x="199.542857143" xlink:href="#m5a7d422ac3" y="43.2"/>
      </g>
     </g>
     <g id="text_3">
      <!-- 40 -->
      <defs>
       <path d="
M37.7969 64.3125
L12.8906 25.3906
L37.7969 25.3906
z

M35.2031 72.9062
L47.6094 72.9062
L47.6094 25.3906
L58.0156 25.3906
L58.0156 17.1875
L47.6094 17.1875
L47.6094 0
L37.7969 0
L37.7969 17.1875
L4.89062 17.1875
L4.89062 26.7031
z
" id="DejaVuSans-34"/>
      </defs>
      <g transform="translate(192.599732143 401.918125)scale(0.12 -0.12)">
       <use xlink:href="#DejaVuSans-34"/>
       <use x="63.623046875" xlink:href="#DejaVuSans-30"/>
      </g>
     </g>
    </g>
    <g id="xtick_4">
     <g id="line2d_14">
      <path clip-path="url(#p7ff5b81e1d)" d="
M263.314 388.8
L263.314 43.2" style="fill:none;stroke:#000000;stroke-dasharray:3.000000,5.000000,1.000000,5.000000;stroke-dashoffset:0.0;stroke-width:0.5;"/>
     </g>
     <g id="line2d_15">
      <g>
       <use style="stroke:#000000;stroke-width:0.5;" x="263.314285714" xlink:href="#mc7db9fdffb" y="388.8"/>
      </g>
     </g>
     <g id="line2d_16">
      <g>
       <use style="stroke:#000000;stroke-width:0.5;" x="263.314285714" xlink:href="#m5a7d422ac3" y="43.2"/>
      </g>
     </g>
     <g id="text_4">
      <!-- 60 -->
      <defs>
       <path d="
M33.0156 40.375
Q26.375 40.375 22.4844 35.8281
Q18.6094 31.2969 18.6094 23.3906
Q18.6094 15.5312 22.4844 10.9531
Q26.375 6.39062 33.0156 6.39062
Q39.6562 6.39062 43.5312 10.9531
Q47.4062 15.5312 47.4062 23.3906
Q47.4062 31.2969 43.5312 35.8281
Q39.6562 40.375 33.0156 40.375
M52.5938 71.2969
L52.5938 62.3125
Q48.875 64.0625 45.0938 64.9844
Q41.3125 65.9219 37.5938 65.9219
Q27.8281 65.9219 22.6719 59.3281
Q17.5312 52.7344 16.7969 39.4062
Q19.6719 43.6562 24.0156 45.9219
Q28.375 48.1875 33.5938 48.1875
Q44.5781 48.1875 50.9531 41.5156
Q57.3281 34.8594 57.3281 23.3906
Q57.3281 12.1562 50.6875 5.35938
Q44.0469 -1.42188 33.0156 -1.42188
Q20.3594 -1.42188 13.6719 8.26562
Q6.98438 17.9688 6.98438 36.375
Q6.98438 53.6562 15.1875 63.9375
Q23.3906 74.2188 37.2031 74.2188
Q40.9219 74.2188 44.7031 73.4844
Q48.4844 72.75 52.5938 71.2969" id="DejaVuSans-36"/>
      </defs>
      <g transform="translate(256.496785714 401.918125)scale(0.12 -0.12)">
       <use xlink:href="#DejaVuSans-36"/>
       <use x="63.623046875" xlink:href="#DejaVuSans-30"/>
      </g>
     </g>
    </g>
    <g id="xtick_5">
     <g id="line2d_17">
      <path clip-path="url(#p7ff5b81e1d)" d="
M327.086 388.8
L327.086 43.2" style="fill:none;stroke:#000000;stroke-dasharray:3.000000,5.000000,1.000000,5.000000;stroke-dashoffset:0.0;stroke-width:0.5;"/>
     </g>
     <g id="line2d_18">
      <g>
       <use style="stroke:#000000;stroke-width:0.5;" x="327.085714286" xlink:href="#mc7db9fdffb" y="388.8"/>
      </g>
     </g>
     <g id="line2d_19">
      <g>
       <use style="stroke:#000000;stroke-width:0.5;" x="327.085714286" xlink:href="#m5a7d422ac3" y="43.2"/>
      </g>
     </g>
     <g id="text_5">
      <!-- 80 -->
      <defs>
       <path d="
M31.7812 34.625
Q24.75 34.625 20.7188 30.8594
Q16.7031 27.0938 16.7031 20.5156
Q16.7031 13.9219 20.7188 10.1562
Q24.75 6.39062 31.7812 6.39062
Q38.8125 6.39062 42.8594 10.1719
Q46.9219 13.9688 46.9219 20.5156
Q46.9219 27.0938 42.8906 30.8594
Q38.875 34.625 31.7812 34.625
M21.9219 38.8125
Q15.5781 40.375 12.0312 44.7188
Q8.5 49.0781 8.5 55.3281
Q8.5 64.0625 14.7188 69.1406
Q20.9531 74.2188 31.7812 74.2188
Q42.6719 74.2188 48.875 69.1406
Q55.0781 64.0625 55.0781 55.3281
Q55.0781 49.0781 51.5312 44.7188
Q48 40.375 41.7031 38.8125
Q48.8281 37.1562 52.7969 32.3125
Q56.7812 27.4844 56.7812 20.5156
Q56.7812 9.90625 50.3125 4.23438
Q43.8438 -1.42188 31.7812 -1.42188
Q19.7344 -1.42188 13.25 4.23438
Q6.78125 9.90625 6.78125 20.5156
Q6.78125 27.4844 10.7812 32.3125
Q14.7969 37.1562 21.9219 38.8125
M18.3125 54.3906
Q18.3125 48.7344 21.8438 45.5625
Q25.3906 42.3906 31.7812 42.3906
Q38.1406 42.3906 41.7188 45.5625
Q45.3125 48.7344 45.3125 54.3906
Q45.3125 60.0625 41.7188 63.2344
Q38.1406 66.4062 31.7812 66.4062
Q25.3906 66.4062 21.8438 63.2344
Q18.3125 60.0625 18.3125 54.3906" id="DejaVuSans-38"/>
      </defs>
      <g transform="translate(320.256026786 401.918125)scale(0.12 -0.12)">
       <use xlink:href="#DejaVuSans-38"/>
       <use x="63.623046875" xlink:href="#DejaVuSans-30"/>
      </g>
     </g>
    </g>
    <g id="xtick_6">
     <g id="line2d_20">
      <path clip-path="url(#p7ff5b81e1d)" d="
M390.857 388.8
L390.857 43.2" style="fill:none;stroke:#000000;stroke-dasharray:3.000000,5.000000,1.000000,5.000000;stroke-dashoffset:0.0;stroke-width:0.5;"/>
     </g>
     <g id="line2d_21">
      <g>
       <use style="stroke:#000000;stroke-width:0.5;" x="390.857142857" xlink:href="#mc7db9fdffb" y="388.8"/>
      </g>
     </g>
     <g id="line2d_22">
      <g>
       <use style="stroke:#000000;stroke-width:0.5;" x="390.857142857" xlink:href="#m5a7d422ac3" y="43.2"/>
      </g>
     </g>
     <g id="text_6">
      <!-- 100 -->
      <defs>
       <path d="
M12.4062 8.29688
L28.5156 8.29688
L28.5156 63.9219
L10.9844 60.4062
L10.9844 69.3906
L28.4219 72.9062
L38.2812 72.9062
L38.2812 8.29688
L54.3906 8.29688
L54.3906 0
L12.4062 0
z
" id="DejaVuSans-31"/>
      </defs>
      <g transform="translate(380.462142857 401.918125)scale(0.12 -0.12)">
       <use xlink:href="#DejaVuSans-31"/>
       <use x="63.623046875" xlink:href="#DejaVuSans-30"/>
       <use x="127.24609375" xlink:href="#DejaVuSans-30"/>
      </g>
     </g>
    </g>
    <g id="xtick_7">
     <g id="line2d_23">
      <path clip-path="url(#p7ff5b81e1d)" d="
M454.629 388.8
L454.629 43.2" style="fill:none;stroke:#000000;stroke-dasharray:3.000000,5.000000,1.000000,5.000000;stroke-dashoffset:0.0;stroke-width:0.5;"/>
     </g>
     <g id="line2d_24">
      <g>
       <use style="stroke:#000000;stroke-width:0.5;" x="454.628571429" xlink:href="#mc7db9fdffb" y="388.8"/>
      </g>
     </g>
     <g id="line2d_25">
      <g>
       <use style="stroke:#000000;stroke-width:0.5;" x="454.628571429" xlink:href="#m5a7d422ac3" y="43.2"/>
      </g>
     </g>
     <g id="text_7">
      <!-- 120 -->
      <g transform="translate(444.233571429 401.918125)scale(0.12 -0.12)">
       <use xlink:href="#DejaVuSans-31"/>
       <use x="63.623046875" xlink:href="#DejaVuSans-32"/>
       <use x="127.24609375" xlink:href="#DejaVuSans-30"/>
      </g>
     </g>
    </g>
    <g id="xtick_8">
     <g id="line2d_26">
      <path clip-path="url(#p7ff5b81e1d)" d="
M518.4 388.8
L518.4 43.2" style="fill:none;stroke:#000000;stroke-dasharray:3.000000,5.000000,1.000000,5.000000;stroke-dashoffset:0.0;stroke-width:0.5;"/>
     </g>
     <g id="line2d_27">
      <g>
       <use style="stroke:#000000;stroke-width:0.5;" x="518.4" xlink:href="#mc7db9fdffb" y="388.8"/>
      </g>
     </g>
     <g id="line2d_28">
      <g>
       <use style="stroke:#000000;stroke-width:0.5;" x="518.4" xlink:href="#m5a7d422ac3" y="43.2"/>
      </g>
     </g>
     <g id="text_8">
      <!-- 140 -->
      <g transform="translate(508.005 401.918125)scale(0.12 -0.12)">
       <use xlink:href="#DejaVuSans-31"/>
       <use x="63.623046875" xlink:href="#DejaVuSans-34"/>
       <use x="127.24609375" xlink:href="#DejaVuSans-30"/>
      </g>
     </g>
    </g>
    <g id="text_9">
     <!-- Time -->
     <defs>
      <path d="
M9.42188 54.6875
L18.4062 54.6875
L18.4062 0
L9.42188 0
z

M9.42188 75.9844
L18.4062 75.9844
L18.4062 64.5938
L9.42188 64.5938
z
" id="DejaVuSans-69"/>
      <path d="
M56.2031 29.5938
L56.2031 25.2031
L14.8906 25.2031
Q15.4844 15.9219 20.4844 11.0625
Q25.4844 6.20312 34.4219 6.20312
Q39.5938 6.20312 44.4531 7.46875
Q49.3125 8.73438 54.1094 11.2812
L54.1094 2.78125
Q49.2656 0.734375 44.1875 -0.34375
Q39.1094 -1.42188 33.8906 -1.42188
Q20.7969 -1.42188 13.1562 6.1875
Q5.51562 13.8125 5.51562 26.8125
Q5.51562 40.2344 12.7656 48.1094
Q20.0156 56 32.3281 56
Q43.3594 56 49.7812 48.8906
Q56.2031 41.7969 56.2031 29.5938
M47.2188 32.2344
Q47.125 39.5938 43.0938 43.9844
Q39.0625 48.3906 32.4219 48.3906
Q24.9062 48.3906 20.3906 44.1406
Q15.875 39.8906 15.1875 32.1719
z
" id="DejaVuSans-65"/>
      <path d="
M-0.296875 72.9062
L61.375 72.9062
L61.375 64.5938
L35.5 64.5938
L35.5 0
L25.5938 0
L25.5938 64.5938
L-0.296875 64.5938
z
" id="DejaVuSans-54"/>
      <path d="
M52 44.1875
Q55.375 50.25 60.0625 53.125
Q64.75 56 71.0938 56
Q79.6406 56 84.2812 50.0156
Q88.9219 44.0469 88.9219 33.0156
L88.9219 0
L79.8906 0
L79.8906 32.7188
Q79.8906 40.5781 77.0938 44.375
Q74.3125 48.1875 68.6094 48.1875
Q61.625 48.1875 57.5625 43.5469
Q53.5156 38.9219 53.5156 30.9062
L53.5156 0
L44.4844 0
L44.4844 32.7188
Q44.4844 40.625 41.7031 44.4062
Q38.9219 48.1875 33.1094 48.1875
Q26.2188 48.1875 22.1562 43.5312
Q18.1094 38.875 18.1094 30.9062
L18.1094 0
L9.07812 0
L9.07812 54.6875
L18.1094 54.6875
L18.1094 46.1875
Q21.1875 51.2188 25.4844 53.6094
Q29.7812 56 35.6875 56
Q41.6562 56 45.8281 52.9688
Q50 49.9531 52 44.1875" id="DejaVuSans-6d"/>
     </defs>
     <g transform="translate(278.42515625 420.0515625)scale(0.14 -0.14)">
      <use xlink:href="#DejaVuSans-54"/>
      <use x="57.958984375" xlink:href="#DejaVuSans-69"/>
      <use x="85.7421875" xlink:href="#DejaVuSans-6d"/>
      <use x="183.154296875" xlink:href="#DejaVuSans-65"/>
     </g>
    </g>
   </g>
   <g id="matplotlib.axis_2">
    <g id="ytick_1">
     <g id="line2d_29">
      <path clip-path="url(#p7ff5b81e1d)" d="
M72 388.8
L518.4 388.8" style="fill:none;stroke:#000000;stroke-dasharray:3.000000,5.000000,1.000000,5.000000;stroke-dashoffset:0.0;stroke-width:0.5;"/>
     </g>
     <g id="line2d_30">
      <defs>
       <path d="
M0 0
L4 0" id="md7965d1ba0" style="stroke:#000000;stroke-width:0.5;"/>
      </defs>
      <g>
       <use style="stroke:#000000;stroke-width:0.5;" x="72.0" xlink:href="#md7965d1ba0" y="388.8"/>
      </g>
     </g>
     <g id="line2d_31">
      <defs>
       <path d="
M0 0
L-4 0" id="md9a1c1a7cd" style="stroke:#000000;stroke-width:0.5;"/>
      </defs>
      <g>
       <use style="stroke:#000000;stroke-width:0.5;" x="518.4" xlink:href="#md9a1c1a7cd" y="388.8"/>
      </g>
     </g>
     <g id="text_10">
      <!-- −60 -->
      <defs>
       <path d="
M10.5938 35.5
L73.1875 35.5
L73.1875 27.2031
L10.5938 27.2031
z
" id="DejaVuSans-2212"/>
      </defs>
      <g transform="translate(44.7425 392.11125)scale(0.12 -0.12)">
       <use xlink:href="#DejaVuSans-2212"/>
       <use x="83.7890625" xlink:href="#DejaVuSans-36"/>
       <use x="147.412109375" xlink:href="#DejaVuSans-30"/>
      </g>
     </g>
    </g>
    <g id="ytick_2">
     <g id="line2d_32">
      <path clip-path="url(#p7ff5b81e1d)" d="
M72 339.429
L518.4 339.429" style="fill:none;stroke:#000000;stroke-dasharray:3.000000,5.000000,1.000000,5.000000;stroke-dashoffset:0.0;stroke-width:0.5;"/>
     </g>
     <g id="line2d_33">
      <g>
       <use style="stroke:#000000;stroke-width:0.5;" x="72.0" xlink:href="#md7965d1ba0" y="339.428571429"/>
      </g>
     </g>
     <g id="line2d_34">
      <g>
       <use style="stroke:#000000;stroke-width:0.5;" x="518.4" xlink:href="#md9a1c1a7cd" y="339.428571429"/>
      </g>
     </g>
     <g id="text_11">
      <!-- −50 -->
      <defs>
       <path d="
M10.7969 72.9062
L49.5156 72.9062
L49.5156 64.5938
L19.8281 64.5938
L19.8281 46.7344
Q21.9688 47.4688 24.1094 47.8281
Q26.2656 48.1875 28.4219 48.1875
Q40.625 48.1875 47.75 41.5
Q54.8906 34.8125 54.8906 23.3906
Q54.8906 11.625 47.5625 5.09375
Q40.2344 -1.42188 26.9062 -1.42188
Q22.3125 -1.42188 17.5469 -0.640625
Q12.7969 0.140625 7.71875 1.70312
L7.71875 11.625
Q12.1094 9.23438 16.7969 8.0625
Q21.4844 6.89062 26.7031 6.89062
Q35.1562 6.89062 40.0781 11.3281
Q45.0156 15.7656 45.0156 23.3906
Q45.0156 31 40.0781 35.4375
Q35.1562 39.8906 26.7031 39.8906
Q22.75 39.8906 18.8125 39.0156
Q14.8906 38.1406 10.7969 36.2812
z
" id="DejaVuSans-35"/>
      </defs>
      <g transform="translate(44.7425 342.739821429)scale(0.12 -0.12)">
       <use xlink:href="#DejaVuSans-2212"/>
       <use x="83.7890625" xlink:href="#DejaVuSans-35"/>
       <use x="147.412109375" xlink:href="#DejaVuSans-30"/>
      </g>
     </g>
    </g>
    <g id="ytick_3">
     <g id="line2d_35">
      <path clip-path="url(#p7ff5b81e1d)" d="
M72 290.057
L518.4 290.057" style="fill:none;stroke:#000000;stroke-dasharray:3.000000,5.000000,1.000000,5.000000;stroke-dashoffset:0.0;stroke-width:0.5;"/>
     </g>
     <g id="line2d_36">
      <g>
       <use style="stroke:#000000;stroke-width:0.5;" x="72.0" xlink:href="#md7965d1ba0" y="290.057142857"/>
      </g>
     </g>
     <g id="line2d_37">
      <g>
       <use style="stroke:#000000;stroke-width:0.5;" x="518.4" xlink:href="#md9a1c1a7cd" y="290.057142857"/>
      </g>
     </g>
     <g id="text_12">
      <!-- −40 -->
      <g transform="translate(44.7425 293.368392857)scale(0.12 -0.12)">
       <use xlink:href="#DejaVuSans-2212"/>
       <use x="83.7890625" xlink:href="#DejaVuSans-34"/>
       <use x="147.412109375" xlink:href="#DejaVuSans-30"/>
      </g>
     </g>
    </g>
    <g id="ytick_4">
     <g id="line2d_38">
      <path clip-path="url(#p7ff5b81e1d)" d="
M72 240.686
L518.4 240.686" style="fill:none;stroke:#000000;stroke-dasharray:3.000000,5.000000,1.000000,5.000000;stroke-dashoffset:0.0;stroke-width:0.5;"/>
     </g>
     <g id="line2d_39">
      <g>
       <use style="stroke:#000000;stroke-width:0.5;" x="72.0" xlink:href="#md7965d1ba0" y="240.685714286"/>
      </g>
     </g>
     <g id="line2d_40">
      <g>
       <use style="stroke:#000000;stroke-width:0.5;" x="518.4" xlink:href="#md9a1c1a7cd" y="240.685714286"/>
      </g>
     </g>
     <g id="text_13">
      <!-- −30 -->
      <defs>
       <path d="
M40.5781 39.3125
Q47.6562 37.7969 51.625 33
Q55.6094 28.2188 55.6094 21.1875
Q55.6094 10.4062 48.1875 4.48438
Q40.7656 -1.42188 27.0938 -1.42188
Q22.5156 -1.42188 17.6562 -0.515625
Q12.7969 0.390625 7.625 2.20312
L7.625 11.7188
Q11.7188 9.32812 16.5938 8.10938
Q21.4844 6.89062 26.8125 6.89062
Q36.0781 6.89062 40.9375 10.5469
Q45.7969 14.2031 45.7969 21.1875
Q45.7969 27.6406 41.2812 31.2656
Q36.7656 34.9062 28.7188 34.9062
L20.2188 34.9062
L20.2188 43.0156
L29.1094 43.0156
Q36.375 43.0156 40.2344 45.9219
Q44.0938 48.8281 44.0938 54.2969
Q44.0938 59.9062 40.1094 62.9062
Q36.1406 65.9219 28.7188 65.9219
Q24.6562 65.9219 20.0156 65.0312
Q15.375 64.1562 9.8125 62.3125
L9.8125 71.0938
Q15.4375 72.6562 20.3438 73.4375
Q25.25 74.2188 29.5938 74.2188
Q40.8281 74.2188 47.3594 69.1094
Q53.9062 64.0156 53.9062 55.3281
Q53.9062 49.2656 50.4375 45.0938
Q46.9688 40.9219 40.5781 39.3125" id="DejaVuSans-33"/>
      </defs>
      <g transform="translate(44.7425 243.996964286)scale(0.12 -0.12)">
       <use xlink:href="#DejaVuSans-2212"/>
       <use x="83.7890625" xlink:href="#DejaVuSans-33"/>
       <use x="147.412109375" xlink:href="#DejaVuSans-30"/>
      </g>
     </g>
    </g>
    <g id="ytick_5">
     <g id="line2d_41">
      <path clip-path="url(#p7ff5b81e1d)" d="
M72 191.314
L518.4 191.314" style="fill:none;stroke:#000000;stroke-dasharray:3.000000,5.000000,1.000000,5.000000;stroke-dashoffset:0.0;stroke-width:0.5;"/>
     </g>
     <g id="line2d_42">
      <g>
       <use style="stroke:#000000;stroke-width:0.5;" x="72.0" xlink:href="#md7965d1ba0" y="191.314285714"/>
      </g>
     </g>
     <g id="line2d_43">
      <g>
       <use style="stroke:#000000;stroke-width:0.5;" x="518.4" xlink:href="#md9a1c1a7cd" y="191.314285714"/>
      </g>
     </g>
     <g id="text_14">
      <!-- −20 -->
      <g transform="translate(44.7425 194.625535714)scale(0.12 -0.12)">
       <use xlink:href="#DejaVuSans-2212"/>
       <use x="83.7890625" xlink:href="#DejaVuSans-32"/>
       <use x="147.412109375" xlink:href="#DejaVuSans-30"/>
      </g>
     </g>
    </g>
    <g id="ytick_6">
     <g id="line2d_44">
      <path clip-path="url(#p7ff5b81e1d)" d="
M72 141.943
L518.4 141.943" style="fill:none;stroke:#000000;stroke-dasharray:3.000000,5.000000,1.000000,5.000000;stroke-dashoffset:0.0;stroke-width:0.5;"/>
     </g>
     <g id="line2d_45">
      <g>
       <use style="stroke:#000000;stroke-width:0.5;" x="72.0" xlink:href="#md7965d1ba0" y="141.942857143"/>
      </g>
     </g>
     <g id="line2d_46">
      <g>
       <use style="stroke:#000000;stroke-width:0.5;" x="518.4" xlink:href="#md9a1c1a7cd" y="141.942857143"/>
      </g>
     </g>
     <g id="text_15">
      <!-- −10 -->
      <g transform="translate(44.7425 145.254107143)scale(0.12 -0.12)">
       <use xlink:href="#DejaVuSans-2212"/>
       <use x="83.7890625" xlink:href="#DejaVuSans-31"/>
       <use x="147.412109375" xlink:href="#DejaVuSans-30"/>
      </g>
     </g>
    </g>
    <g id="ytick_7">
     <g id="line2d_47">
      <path clip-path="url(#p7ff5b81e1d)" d="
M72 92.5714
L518.4 92.5714" style="fill:none;stroke:#000000;stroke-dasharray:3.000000,5.000000,1.000000,5.000000;stroke-dashoffset:0.0;stroke-width:0.5;"/>
     </g>
     <g id="line2d_48">
      <g>
       <use style="stroke:#000000;stroke-width:0.5;" x="72.0" xlink:href="#md7965d1ba0" y="92.5714285714"/>
      </g>
     </g>
     <g id="line2d_49">
      <g>
       <use style="stroke:#000000;stroke-width:0.5;" x="518.4" xlink:href="#md9a1c1a7cd" y="92.5714285714"/>
      </g>
     </g>
     <g id="text_16">
      <!-- 0 -->
      <g transform="translate(61.953125 95.8826785714)scale(0.12 -0.12)">
       <use xlink:href="#DejaVuSans-30"/>
      </g>
     </g>
    </g>
    <g id="ytick_8">
     <g id="line2d_50">
      <path clip-path="url(#p7ff5b81e1d)" d="
M72 43.2
L518.4 43.2" style="fill:none;stroke:#000000;stroke-dasharray:3.000000,5.000000,1.000000,5.000000;stroke-dashoffset:0.0;stroke-width:0.5;"/>
     </g>
     <g id="line2d_51">
      <g>
       <use style="stroke:#000000;stroke-width:0.5;" x="72.0" xlink:href="#md7965d1ba0" y="43.2"/>
      </g>
     </g>
     <g id="line2d_52">
      <g>
       <use style="stroke:#000000;stroke-width:0.5;" x="518.4" xlink:href="#md9a1c1a7cd" y="43.2"/>
      </g>
     </g>
     <g id="text_17">
      <!-- 10 -->
      <g transform="translate(54.845 46.51125)scale(0.12 -0.12)">
       <use xlink:href="#DejaVuSans-31"/>
       <use x="63.623046875" xlink:href="#DejaVuSans-30"/>
      </g>
     </g>
    </g>
    <g id="text_18">
     <!-- dif_myu_upper_v -->
     <defs>
      <path d="
M45.4062 46.3906
L45.4062 75.9844
L54.3906 75.9844
L54.3906 0
L45.4062 0
L45.4062 8.20312
Q42.5781 3.32812 38.25 0.953125
Q33.9375 -1.42188 27.875 -1.42188
Q17.9688 -1.42188 11.7344 6.48438
Q5.51562 14.4062 5.51562 27.2969
Q5.51562 40.1875 11.7344 48.0938
Q17.9688 56 27.875 56
Q33.9375 56 38.25 53.625
Q42.5781 51.2656 45.4062 46.3906
M14.7969 27.2969
Q14.7969 17.3906 18.875 11.75
Q22.9531 6.10938 30.0781 6.10938
Q37.2031 6.10938 41.2969 11.75
Q45.4062 17.3906 45.4062 27.2969
Q45.4062 37.2031 41.2969 42.8438
Q37.2031 48.4844 30.0781 48.4844
Q22.9531 48.4844 18.875 42.8438
Q14.7969 37.2031 14.7969 27.2969" id="DejaVuSans-64"/>
      <path d="
M2.98438 54.6875
L12.5 54.6875
L29.5938 8.79688
L46.6875 54.6875
L56.2031 54.6875
L35.6875 0
L23.4844 0
z
" id="DejaVuSans-76"/>
      <path d="
M8.5 21.5781
L8.5 54.6875
L17.4844 54.6875
L17.4844 21.9219
Q17.4844 14.1562 20.5 10.2656
Q23.5312 6.39062 29.5938 6.39062
Q36.8594 6.39062 41.0781 11.0312
Q45.3125 15.6719 45.3125 23.6875
L45.3125 54.6875
L54.2969 54.6875
L54.2969 0
L45.3125 0
L45.3125 8.40625
Q42.0469 3.42188 37.7188 1
Q33.4062 -1.42188 27.6875 -1.42188
Q18.2656 -1.42188 13.375 4.4375
Q8.5 10.2969 8.5 21.5781
M31.1094 56
z
" id="DejaVuSans-75"/>
      <path d="
M41.1094 46.2969
Q39.5938 47.1719 37.8125 47.5781
Q36.0312 48 33.8906 48
Q26.2656 48 22.1875 43.0469
Q18.1094 38.0938 18.1094 28.8125
L18.1094 0
L9.07812 0
L9.07812 54.6875
L18.1094 54.6875
L18.1094 46.1875
Q20.9531 51.1719 25.4844 53.5781
Q30.0312 56 36.5312 56
Q37.4531 56 38.5781 55.875
Q39.7031 55.7656 41.0625 55.5156
z
" id="DejaVuSans-72"/>
      <path d="
M50.9844 -16.6094
L50.9844 -23.5781
L-0.984375 -23.5781
L-0.984375 -16.6094
z
" id="DejaVuSans-5f"/>
      <path d="
M18.1094 8.20312
L18.1094 -20.7969
L9.07812 -20.7969
L9.07812 54.6875
L18.1094 54.6875
L18.1094 46.3906
Q20.9531 51.2656 25.2656 53.625
Q29.5938 56 35.5938 56
Q45.5625 56 51.7812 48.0938
Q58.0156 40.1875 58.0156 27.2969
Q58.0156 14.4062 51.7812 6.48438
Q45.5625 -1.42188 35.5938 -1.42188
Q29.5938 -1.42188 25.2656 0.953125
Q20.9531 3.32812 18.1094 8.20312
M48.6875 27.2969
Q48.6875 37.2031 44.6094 42.8438
Q40.5312 48.4844 33.4062 48.4844
Q26.2656 48.4844 22.1875 42.8438
Q18.1094 37.2031 18.1094 27.2969
Q18.1094 17.3906 22.1875 11.75
Q26.2656 6.10938 33.4062 6.10938
Q40.5312 6.10938 44.6094 11.75
Q48.6875 17.3906 48.6875 27.2969" id="DejaVuSans-70"/>
      <path d="
M32.1719 -5.07812
Q28.375 -14.8438 24.75 -17.8125
Q21.1406 -20.7969 15.0938 -20.7969
L7.90625 -20.7969
L7.90625 -13.2812
L13.1875 -13.2812
Q16.8906 -13.2812 18.9375 -11.5156
Q21 -9.76562 23.4844 -3.21875
L25.0938 0.875
L2.98438 54.6875
L12.5 54.6875
L29.5938 11.9219
L46.6875 54.6875
L56.2031 54.6875
z
" id="DejaVuSans-79"/>
      <path d="
M37.1094 75.9844
L37.1094 68.5
L28.5156 68.5
Q23.6875 68.5 21.7969 66.5469
Q19.9219 64.5938 19.9219 59.5156
L19.9219 54.6875
L34.7188 54.6875
L34.7188 47.7031
L19.9219 47.7031
L19.9219 0
L10.8906 0
L10.8906 47.7031
L2.29688 47.7031
L2.29688 54.6875
L10.8906 54.6875
L10.8906 58.5
Q10.8906 67.625 15.1406 71.7969
Q19.3906 75.9844 28.6094 75.9844
z
" id="DejaVuSans-66"/>
     </defs>
     <g transform="translate(36.4415625 274.80765625)rotate(-90.0)scale(0.14 -0.14)">
      <use xlink:href="#DejaVuSans-64"/>
      <use x="63.4765625" xlink:href="#DejaVuSans-69"/>
      <use x="91.259765625" xlink:href="#DejaVuSans-66"/>
      <use x="126.46484375" xlink:href="#DejaVuSans-5f"/>
      <use x="176.46484375" xlink:href="#DejaVuSans-6d"/>
      <use x="273.876953125" xlink:href="#DejaVuSans-79"/>
      <use x="333.056640625" xlink:href="#DejaVuSans-75"/>
      <use x="396.435546875" xlink:href="#DejaVuSans-5f"/>
      <use x="446.435546875" xlink:href="#DejaVuSans-75"/>
      <use x="509.814453125" xlink:href="#DejaVuSans-70"/>
      <use x="573.291015625" xlink:href="#DejaVuSans-70"/>
      <use x="636.767578125" xlink:href="#DejaVuSans-65"/>
      <use x="698.291015625" xlink:href="#DejaVuSans-72"/>
      <use x="739.404296875" xlink:href="#DejaVuSans-5f"/>
      <use x="789.404296875" xlink:href="#DejaVuSans-76"/>
     </g>
    </g>
   </g>
   <g id="text_19">
    <!-- dif_myu_upper_v -->
    <g transform="translate(236.39234375 38.2)scale(0.14 -0.14)">
     <use xlink:href="#DejaVuSans-64"/>
     <use x="63.4765625" xlink:href="#DejaVuSans-69"/>
     <use x="91.259765625" xlink:href="#DejaVuSans-66"/>
     <use x="126.46484375" xlink:href="#DejaVuSans-5f"/>
     <use x="176.46484375" xlink:href="#DejaVuSans-6d"/>
     <use x="273.876953125" xlink:href="#DejaVuSans-79"/>
     <use x="333.056640625" xlink:href="#DejaVuSans-75"/>
     <use x="396.435546875" xlink:href="#DejaVuSans-5f"/>
     <use x="446.435546875" xlink:href="#DejaVuSans-75"/>
     <use x="509.814453125" xlink:href="#DejaVuSans-70"/>
     <use x="573.291015625" xlink:href="#DejaVuSans-70"/>
     <use x="636.767578125" xlink:href="#DejaVuSans-65"/>
     <use x="698.291015625" xlink:href="#DejaVuSans-72"/>
     <use x="739.404296875" xlink:href="#DejaVuSans-5f"/>
     <use x="789.404296875" xlink:href="#DejaVuSans-76"/>
    </g>
   </g>
   <g id="legend_1">
    <g id="patch_7">
     <path d="
M329.6 261.234
L511.2 261.234
L511.2 170.766
L329.6 170.766
z
" style="fill:#ffffff;stroke:#000000;stroke-linejoin:miter;"/>
    </g>
    <g id="line2d_53">
     <path d="
M339.68 182.428
L359.84 182.428" style="fill:none;stroke:#bf00bf;stroke-linecap:square;"/>
    </g>
    <g id="line2d_54"/>
    <g id="text_20">
     <!-- dif_myu_upper_v1 -->
     <g transform="translate(375.68025 187.46775)scale(0.144 -0.144)">
      <use xlink:href="#DejaVuSans-64"/>
      <use x="63.4765625" xlink:href="#DejaVuSans-69"/>
      <use x="91.259765625" xlink:href="#DejaVuSans-66"/>
      <use x="126.46484375" xlink:href="#DejaVuSans-5f"/>
      <use x="176.46484375" xlink:href="#DejaVuSans-6d"/>
      <use x="273.876953125" xlink:href="#DejaVuSans-79"/>
      <use x="333.056640625" xlink:href="#DejaVuSans-75"/>
      <use x="396.435546875" xlink:href="#DejaVuSans-5f"/>
      <use x="446.435546875" xlink:href="#DejaVuSans-75"/>
      <use x="509.814453125" xlink:href="#DejaVuSans-70"/>
      <use x="573.291015625" xlink:href="#DejaVuSans-70"/>
      <use x="636.767578125" xlink:href="#DejaVuSans-65"/>
      <use x="698.291015625" xlink:href="#DejaVuSans-72"/>
      <use x="739.404296875" xlink:href="#DejaVuSans-5f"/>
      <use x="789.404296875" xlink:href="#DejaVuSans-76"/>
      <use x="848.583984375" xlink:href="#DejaVuSans-31"/>
     </g>
    </g>
    <g id="line2d_55">
     <path d="
M339.68 203.965
L359.84 203.965" style="fill:none;stroke:#00bfbf;stroke-linecap:square;"/>
    </g>
    <g id="line2d_56"/>
    <g id="text_21">
     <!-- dif_myu_upper_v2 -->
     <g transform="translate(375.68025 209.00475)scale(0.144 -0.144)">
      <use xlink:href="#DejaVuSans-64"/>
      <use x="63.4765625" xlink:href="#DejaVuSans-69"/>
      <use x="91.259765625" xlink:href="#DejaVuSans-66"/>
      <use x="126.46484375" xlink:href="#DejaVuSans-5f"/>
      <use x="176.46484375" xlink:href="#DejaVuSans-6d"/>
      <use x="273.876953125" xlink:href="#DejaVuSans-79"/>
      <use x="333.056640625" xlink:href="#DejaVuSans-75"/>
      <use x="396.435546875" xlink:href="#DejaVuSans-5f"/>
      <use x="446.435546875" xlink:href="#DejaVuSans-75"/>
      <use x="509.814453125" xlink:href="#DejaVuSans-70"/>
      <use x="573.291015625" xlink:href="#DejaVuSans-70"/>
      <use x="636.767578125" xlink:href="#DejaVuSans-65"/>
      <use x="698.291015625" xlink:href="#DejaVuSans-72"/>
      <use x="739.404296875" xlink:href="#DejaVuSans-5f"/>
      <use x="789.404296875" xlink:href="#DejaVuSans-76"/>
      <use x="848.583984375" xlink:href="#DejaVuSans-32"/>
     </g>
    </g>
    <g id="line2d_57">
     <path d="
M339.68 225.502
L359.84 225.502" style="fill:none;stroke:#ff0000;stroke-linecap:square;"/>
    </g>
    <g id="line2d_58"/>
    <g id="text_22">
     <!-- dif_myu_upper_v3 -->
     <g transform="translate(375.68025 230.54175)scale(0.144 -0.144)">
      <use xlink:href="#DejaVuSans-64"/>
      <use x="63.4765625" xlink:href="#DejaVuSans-69"/>
      <use x="91.259765625" xlink:href="#DejaVuSans-66"/>
      <use x="126.46484375" xlink:href="#DejaVuSans-5f"/>
      <use x="176.46484375" xlink:href="#DejaVuSans-6d"/>
      <use x="273.876953125" xlink:href="#DejaVuSans-79"/>
      <use x="333.056640625" xlink:href="#DejaVuSans-75"/>
      <use x="396.435546875" xlink:href="#DejaVuSans-5f"/>
      <use x="446.435546875" xlink:href="#DejaVuSans-75"/>
      <use x="509.814453125" xlink:href="#DejaVuSans-70"/>
      <use x="573.291015625" xlink:href="#DejaVuSans-70"/>
      <use x="636.767578125" xlink:href="#DejaVuSans-65"/>
      <use x="698.291015625" xlink:href="#DejaVuSans-72"/>
      <use x="739.404296875" xlink:href="#DejaVuSans-5f"/>
      <use x="789.404296875" xlink:href="#DejaVuSans-76"/>
      <use x="848.583984375" xlink:href="#DejaVuSans-33"/>
     </g>
    </g>
    <g id="line2d_59">
     <path d="
M339.68 247.039
L359.84 247.039" style="fill:none;stroke:#008000;stroke-linecap:square;"/>
    </g>
    <g id="line2d_60"/>
    <g id="text_23">
     <!-- dif_myu_upper_v4 -->
     <g transform="translate(375.68025 252.07875)scale(0.144 -0.144)">
      <use xlink:href="#DejaVuSans-64"/>
      <use x="63.4765625" xlink:href="#DejaVuSans-69"/>
      <use x="91.259765625" xlink:href="#DejaVuSans-66"/>
      <use x="126.46484375" xlink:href="#DejaVuSans-5f"/>
      <use x="176.46484375" xlink:href="#DejaVuSans-6d"/>
      <use x="273.876953125" xlink:href="#DejaVuSans-79"/>
      <use x="333.056640625" xlink:href="#DejaVuSans-75"/>
      <use x="396.435546875" xlink:href="#DejaVuSans-5f"/>
      <use x="446.435546875" xlink:href="#DejaVuSans-75"/>
      <use x="509.814453125" xlink:href="#DejaVuSans-70"/>
      <use x="573.291015625" xlink:href="#DejaVuSans-70"/>
      <use x="636.767578125" xlink:href="#DejaVuSans-65"/>
      <use x="698.291015625" xlink:href="#DejaVuSans-72"/>
      <use x="739.404296875" xlink:href="#DejaVuSans-5f"/>
      <use x="789.404296875" xlink:href="#DejaVuSans-76"/>
      <use x="848.583984375" xlink:href="#DejaVuSans-34"/>
     </g>
    </g>
   </g>
  </g>
 </g>
 <defs>
  <clipPath id="p7ff5b81e1d">
   <rect height="345.6" width="446.4" x="72.0" y="43.2"/>
  </clipPath>
 </defs>
</svg>
