<?xml version="1.0" encoding="utf-8" standalone="no"?>
<!DOCTYPE svg PUBLIC "-//W3C//DTD SVG 1.1//EN"
  "http://www.w3.org/Graphics/SVG/1.1/DTD/svg11.dtd">
<!-- Created with matplotlib (http://matplotlib.org/) -->
<svg height="432pt" version="1.1" viewBox="0 0 576 432" width="576pt" xmlns="http://www.w3.org/2000/svg" xmlns:xlink="http://www.w3.org/1999/xlink">
 <defs>
  <style type="text/css">
*{stroke-linecap:butt;stroke-linejoin:round;}
  </style>
 </defs>
 <g id="figure_1">
  <g id="patch_1">
   <path d="M 0 432 
L 576 432 
L 576 0 
L 0 0 
z
" style="fill:#ffffff;"/>
  </g>
  <g id="axes_1">
   <g id="patch_2">
    <path d="M 72 384.48 
L 518.4 384.48 
L 518.4 51.84 
L 72 51.84 
z
" style="fill:#ffffff;"/>
   </g>
   <g id="matplotlib.axis_1">
    <g id="xtick_1">
     <g id="line2d_1">
      <path clip-path="url(#p55a2b15620)" d="M 92.290909 384.48 
L 92.290909 51.84 
" style="fill:none;stroke:#b0b0b0;stroke-dasharray:5.12,1.28,0.8,1.28;stroke-dashoffset:0;stroke-width:0.8;"/>
     </g>
     <g id="line2d_2">
      <defs>
       <path d="M 0 0 
L 0 3.5 
" id="mca8ce56666" style="stroke:#000000;stroke-width:0.8;"/>
      </defs>
      <g>
       <use style="stroke:#000000;stroke-width:0.8;" x="92.290909" xlink:href="#mca8ce56666" y="384.48"/>
      </g>
     </g>
     <g id="text_1">
      <!-- $0$ -->
      <defs>
       <path d="M 42 31.640625 
C 42 37.75 41.90625 48.125 37.703125 56.109375 
C 34 63.109375 28.09375 65.59375 22.90625 65.59375 
C 18.09375 65.59375 12 63.40625 8.203125 56.203125 
C 4.203125 48.71875 3.796875 39.4375 3.796875 31.640625 
C 3.796875 25.953125 3.90625 17.28125 7 9.671875 
C 11.296875 -0.609375 19 -2 22.90625 -2 
C 27.5 -2 34.5 -0.109375 38.59375 9.375 
C 41.59375 16.28125 42 24.359375 42 31.640625 
z
M 22.90625 -0.40625 
C 16.5 -0.40625 12.703125 5.078125 11.296875 12.6875 
C 10.203125 18.5625 10.203125 27.15625 10.203125 32.75 
C 10.203125 40.4375 10.203125 46.828125 11.5 52.921875 
C 13.40625 61.390625 19 64 22.90625 64 
C 27 64 32.296875 61.296875 34.203125 53.125 
C 35.5 47.4375 35.59375 40.734375 35.59375 32.75 
C 35.59375 26.25 35.59375 18.265625 34.40625 12.375 
C 32.296875 1.484375 26.40625 -0.40625 22.90625 -0.40625 
z
" id="CMR17-48"/>
      </defs>
      <g transform="translate(89.800241 398.398498)scale(0.1 -0.1)">
       <use transform="scale(0.996264)" xlink:href="#CMR17-48"/>
      </g>
     </g>
    </g>
    <g id="xtick_2">
     <g id="line2d_3">
      <path clip-path="url(#p55a2b15620)" d="M 160.176185 384.48 
L 160.176185 51.84 
" style="fill:none;stroke:#b0b0b0;stroke-dasharray:5.12,1.28,0.8,1.28;stroke-dashoffset:0;stroke-width:0.8;"/>
     </g>
     <g id="line2d_4">
      <g>
       <use style="stroke:#000000;stroke-width:0.8;" x="160.176185" xlink:href="#mca8ce56666" y="384.48"/>
      </g>
     </g>
     <g id="text_2">
      <!-- $500$ -->
      <defs>
       <path d="M 11.40625 57.6875 
C 12.40625 57.28125 16.5 56 20.703125 56 
C 30 56 35.09375 61.109375 38 64.0625 
C 38 64.953125 38 65.5 37.40625 65.5 
C 37.296875 65.5 37.09375 65.5 36.296875 65.046875 
C 32.796875 63.40625 28.703125 62.078125 23.703125 62.078125 
C 20.703125 62.078125 16.203125 62.484375 11.296875 64.671875 
C 10.203125 65.171875 10 65.171875 9.90625 65.171875 
C 9.40625 65.171875 9.296875 65.0625 9.296875 63.078125 
L 9.296875 34.421875 
C 9.296875 32.640625 9.296875 32.140625 10.296875 32.140625 
C 10.796875 32.140625 11 32.34375 11.5 33.03125 
C 14.703125 37.515625 19.09375 39.40625 24.09375 39.40625 
C 27.59375 39.40625 35.09375 37.21875 35.09375 20.140625 
C 35.09375 16.953125 35.09375 11.171875 32.09375 6.578125 
C 29.59375 2.484375 25.703125 0.390625 21.40625 0.390625 
C 14.796875 0.390625 8.09375 5 6.296875 12.71875 
C 6.703125 12.609375 7.5 12.421875 7.90625 12.421875 
C 9.203125 12.421875 11.703125 13.125 11.703125 16.21875 
C 11.703125 18.90625 9.796875 20 7.90625 20 
C 5.59375 20 4.09375 18.59375 4.09375 15.796875 
C 4.09375 7.09375 11 -2 21.59375 -2 
C 31.90625 -2 41.703125 6.875 41.703125 19.75 
C 41.703125 31.71875 33.90625 41 24.203125 41 
C 19.09375 41 14.796875 39.109375 11.40625 35.53125 
z
" id="CMR17-53"/>
      </defs>
      <g transform="translate(152.704183 398.398498)scale(0.1 -0.1)">
       <use transform="scale(0.996264)" xlink:href="#CMR17-53"/>
       <use transform="translate(45.690477 0)scale(0.996264)" xlink:href="#CMR17-48"/>
       <use transform="translate(91.380954 0)scale(0.996264)" xlink:href="#CMR17-48"/>
      </g>
     </g>
    </g>
    <g id="xtick_3">
     <g id="line2d_5">
      <path clip-path="url(#p55a2b15620)" d="M 228.061462 384.48 
L 228.061462 51.84 
" style="fill:none;stroke:#b0b0b0;stroke-dasharray:5.12,1.28,0.8,1.28;stroke-dashoffset:0;stroke-width:0.8;"/>
     </g>
     <g id="line2d_6">
      <g>
       <use style="stroke:#000000;stroke-width:0.8;" x="228.061462" xlink:href="#mca8ce56666" y="384.48"/>
      </g>
     </g>
     <g id="text_3">
      <!-- $1000$ -->
      <defs>
       <path d="M 26.59375 63.40625 
C 26.59375 65.5 26.5 65.5 25.09375 65.5 
C 21.203125 61.1875 15.296875 59.796875 9.703125 59.796875 
C 9.40625 59.796875 8.90625 59.796875 8.796875 59.5 
C 8.703125 59.296875 8.703125 59.09375 8.703125 57 
C 11.796875 57 17 57.59375 21 59.984375 
L 21 7.203125 
C 21 3.6875 20.796875 2.5 12.203125 2.5 
L 9.203125 2.5 
L 9.203125 0 
C 14 0 19 0 23.796875 0 
C 28.59375 0 33.59375 0 38.40625 0 
L 38.40625 2.5 
L 35.40625 2.5 
C 26.796875 2.5 26.59375 3.59375 26.59375 7.15625 
z
" id="CMR17-49"/>
      </defs>
      <g transform="translate(218.098791 398.398498)scale(0.1 -0.1)">
       <use transform="scale(0.996264)" xlink:href="#CMR17-49"/>
       <use transform="translate(45.690477 0)scale(0.996264)" xlink:href="#CMR17-48"/>
       <use transform="translate(91.380954 0)scale(0.996264)" xlink:href="#CMR17-48"/>
       <use transform="translate(137.071431 0)scale(0.996264)" xlink:href="#CMR17-48"/>
      </g>
     </g>
    </g>
    <g id="xtick_4">
     <g id="line2d_7">
      <path clip-path="url(#p55a2b15620)" d="M 295.946738 384.48 
L 295.946738 51.84 
" style="fill:none;stroke:#b0b0b0;stroke-dasharray:5.12,1.28,0.8,1.28;stroke-dashoffset:0;stroke-width:0.8;"/>
     </g>
     <g id="line2d_8">
      <g>
       <use style="stroke:#000000;stroke-width:0.8;" x="295.946738" xlink:href="#mca8ce56666" y="384.48"/>
      </g>
     </g>
     <g id="text_4">
      <!-- $1500$ -->
      <g transform="translate(285.984068 398.398498)scale(0.1 -0.1)">
       <use transform="scale(0.996264)" xlink:href="#CMR17-49"/>
       <use transform="translate(45.690477 0)scale(0.996264)" xlink:href="#CMR17-53"/>
       <use transform="translate(91.380954 0)scale(0.996264)" xlink:href="#CMR17-48"/>
       <use transform="translate(137.071431 0)scale(0.996264)" xlink:href="#CMR17-48"/>
      </g>
     </g>
    </g>
    <g id="xtick_5">
     <g id="line2d_9">
      <path clip-path="url(#p55a2b15620)" d="M 363.832014 384.48 
L 363.832014 51.84 
" style="fill:none;stroke:#b0b0b0;stroke-dasharray:5.12,1.28,0.8,1.28;stroke-dashoffset:0;stroke-width:0.8;"/>
     </g>
     <g id="line2d_10">
      <g>
       <use style="stroke:#000000;stroke-width:0.8;" x="363.832014" xlink:href="#mca8ce56666" y="384.48"/>
      </g>
     </g>
     <g id="text_5">
      <!-- $2000$ -->
      <defs>
       <path d="M 41.703125 15.453125 
L 39.90625 15.453125 
C 38.90625 8.375 38.09375 7.171875 37.703125 6.5625 
C 37.203125 5.765625 30 5.765625 28.59375 5.765625 
L 9.40625 5.765625 
C 13 9.671875 20 16.75 28.5 24.953125 
C 34.59375 30.734375 41.703125 37.53125 41.703125 47.421875 
C 41.703125 59.21875 32.296875 66 21.796875 66 
C 10.796875 66 4.09375 56.3125 4.09375 47.34375 
C 4.09375 43.4375 7 42.9375 8.203125 42.9375 
C 9.203125 42.9375 12.203125 43.546875 12.203125 47.03125 
C 12.203125 50.109375 9.59375 51 8.203125 51 
C 7.59375 51 7 50.90625 6.59375 50.703125 
C 8.5 59.21875 14.296875 63.40625 20.40625 63.40625 
C 29.09375 63.40625 34.796875 56.515625 34.796875 47.421875 
C 34.796875 38.734375 29.703125 31.25 24 24.75 
L 4.09375 2.28125 
L 4.09375 0 
L 39.296875 0 
z
" id="CMR17-50"/>
      </defs>
      <g transform="translate(353.869344 398.398498)scale(0.1 -0.1)">
       <use transform="scale(0.996264)" xlink:href="#CMR17-50"/>
       <use transform="translate(45.690477 0)scale(0.996264)" xlink:href="#CMR17-48"/>
       <use transform="translate(91.380954 0)scale(0.996264)" xlink:href="#CMR17-48"/>
       <use transform="translate(137.071431 0)scale(0.996264)" xlink:href="#CMR17-48"/>
      </g>
     </g>
    </g>
    <g id="xtick_6">
     <g id="line2d_11">
      <path clip-path="url(#p55a2b15620)" d="M 431.717291 384.48 
L 431.717291 51.84 
" style="fill:none;stroke:#b0b0b0;stroke-dasharray:5.12,1.28,0.8,1.28;stroke-dashoffset:0;stroke-width:0.8;"/>
     </g>
     <g id="line2d_12">
      <g>
       <use style="stroke:#000000;stroke-width:0.8;" x="431.717291" xlink:href="#mca8ce56666" y="384.48"/>
      </g>
     </g>
     <g id="text_6">
      <!-- $2500$ -->
      <g transform="translate(421.75462 398.398498)scale(0.1 -0.1)">
       <use transform="scale(0.996264)" xlink:href="#CMR17-50"/>
       <use transform="translate(45.690477 0)scale(0.996264)" xlink:href="#CMR17-53"/>
       <use transform="translate(91.380954 0)scale(0.996264)" xlink:href="#CMR17-48"/>
       <use transform="translate(137.071431 0)scale(0.996264)" xlink:href="#CMR17-48"/>
      </g>
     </g>
    </g>
    <g id="xtick_7">
     <g id="line2d_13">
      <path clip-path="url(#p55a2b15620)" d="M 499.602567 384.48 
L 499.602567 51.84 
" style="fill:none;stroke:#b0b0b0;stroke-dasharray:5.12,1.28,0.8,1.28;stroke-dashoffset:0;stroke-width:0.8;"/>
     </g>
     <g id="line2d_14">
      <g>
       <use style="stroke:#000000;stroke-width:0.8;" x="499.602567" xlink:href="#mca8ce56666" y="384.48"/>
      </g>
     </g>
     <g id="text_7">
      <!-- $3000$ -->
      <defs>
       <path d="M 22.09375 33.703125 
C 31 33.703125 34.90625 25.96875 34.90625 17.03125 
C 34.90625 5 28.5 0.390625 22.703125 0.390625 
C 17.40625 0.390625 8.796875 3.03125 6.09375 10.828125 
C 6.59375 10.625 7.09375 10.625 7.59375 10.625 
C 10 10.625 11.796875 12.21875 11.796875 14.8125 
C 11.796875 17.703125 9.59375 19 7.59375 19 
C 5.90625 19 3.296875 18.203125 3.296875 14.46875 
C 3.296875 5.234375 12.296875 -2 22.90625 -2 
C 34 -2 42.5 6.71875 42.5 16.953125 
C 42.5 26.671875 34.5 33.703125 25 34.796875 
C 32.59375 36.375 39.90625 43.0625 39.90625 52.015625 
C 39.90625 59.6875 32 65.296875 23 65.296875 
C 13.90625 65.296875 5.90625 59.828125 5.90625 52.015625 
C 5.90625 48.59375 8.5 48 9.796875 48 
C 11.90625 48 13.703125 49.296875 13.703125 51.890625 
C 13.703125 54.46875 11.90625 55.765625 9.796875 55.765625 
C 9.40625 55.765625 8.90625 55.765625 8.5 55.578125 
C 11.40625 61.859375 19.296875 63 22.796875 63 
C 26.296875 63 32.90625 61.328125 32.90625 51.875 
C 32.90625 49.109375 32.5 44.1875 29.09375 39.84375 
C 26.09375 36 22.703125 36 19.40625 35.6875 
C 18.90625 35.6875 16.59375 35.453125 16.203125 35.453125 
C 15.5 35.359375 15.09375 35.265625 15.09375 34.5 
C 15.09375 33.796875 15.203125 33.703125 17.203125 33.703125 
z
" id="CMR17-51"/>
      </defs>
      <g transform="translate(489.639896 398.398498)scale(0.1 -0.1)">
       <use transform="scale(0.996264)" xlink:href="#CMR17-51"/>
       <use transform="translate(45.690477 0)scale(0.996264)" xlink:href="#CMR17-48"/>
       <use transform="translate(91.380954 0)scale(0.996264)" xlink:href="#CMR17-48"/>
       <use transform="translate(137.071431 0)scale(0.996264)" xlink:href="#CMR17-48"/>
      </g>
     </g>
    </g>
    <g id="text_8">
     <!-- Iteration -->
     <defs>
      <path d="M 17.09375 69 
L 8.703125 69 
L 8.703125 0 
L 17.09375 0 
z
" id="CMSS17-73"/>
      <path d="M 16.703125 37 
L 29.703125 37 
L 29.703125 42.765625 
L 16.703125 42.765625 
L 16.703125 55 
L 9.59375 55 
L 9.59375 42.765625 
L 1.703125 42.765625 
L 1.703125 37 
L 9.40625 37 
L 9.40625 11.703125 
C 9.40625 6 10.703125 -1 17.296875 -1 
C 22.296875 -1 26.90625 0.390625 31.296875 2.6875 
L 29.703125 8.5625 
C 27.296875 6.46875 24.40625 5.265625 21.296875 5.265625 
C 16.90625 5.265625 16.703125 10.875 16.703125 13.375 
z
" id="CMSS17-116"/>
      <path d="M 39.09375 21.515625 
C 39.09375 24.84375 38.90625 31.296875 35.703125 36.640625 
C 32.203125 42.390625 26.5 44 22.203125 44 
C 11.796875 44 3 34.1875 3 21.484375 
C 3 9.09375 12.09375 -1 23.59375 -1 
C 28.09375 -1 33.59375 0.296875 38.59375 3.875 
C 38.59375 4.28125 38.40625 6.46875 38.296875 6.5625 
C 38.296875 6.765625 38 9.84375 38 10.25 
C 33.203125 6.359375 27.703125 5.078125 23.703125 5.078125 
C 17.296875 5.078125 10.40625 10.421875 10.09375 21.515625 
z
M 10.90625 27 
C 12.203125 32.5625 16.59375 37.828125 22.203125 37.828125 
C 23.703125 37.828125 30.703125 37.828125 32.5 27 
z
" id="CMSS17-101"/>
      <path d="M 14.90625 21.296875 
C 14.90625 30.703125 21.796875 37 30.59375 37 
L 30.59375 43.578125 
C 24.203125 43.578125 18.203125 40.390625 14.59375 35.203125 
L 14.59375 43.09375 
L 7.5 43.09375 
L 7.5 0 
L 14.90625 0 
z
" id="CMSS17-114"/>
      <path d="M 37.59375 27.984375 
C 37.59375 37.375 30.90625 43.875 21.90625 43.875 
C 17.5 43.875 12.703125 43.078125 7.203125 39.890625 
L 7.796875 33.359375 
C 10.296875 35.125 14.59375 38 21.796875 38 
C 26.90625 38 30 34.0625 30 27.84375 
L 30 24 
C 14 24 4 19.34375 4 11.34375 
C 4 7.203125 6.5 -1 14.796875 -1 
C 16.296875 -1 24.40625 -1 30.203125 3.390625 
L 30.203125 -0.296875 
L 37.59375 -0.296875 
z
M 30 12.75 
C 30 10.953125 30 8.5625 27 6.78125 
C 24.40625 5.078125 21.09375 5.078125 19.703125 5.078125 
C 14.703125 5.078125 11.296875 7.984375 11.296875 11.625 
C 11.296875 18.921875 26.90625 18.921875 30 18.921875 
z
" id="CMSS17-97"/>
      <path d="M 15.296875 65.359375 
L 6.90625 65.359375 
L 6.90625 57 
L 15.296875 57 
z
M 14.796875 42.796875 
L 7.40625 42.796875 
L 7.40625 0 
L 14.796875 0 
z
" id="CMSS17-105"/>
      <path d="M 44.203125 21.1875 
C 44.203125 34 34.703125 44 23.5 44 
C 12 44 2.703125 33.703125 2.703125 21.1875 
C 2.703125 8.5 12.296875 -1 23.40625 -1 
C 34.796875 -1 44.203125 8.796875 44.203125 21.1875 
z
M 23.5 5.265625 
C 16.40625 5.265625 10.296875 11.078125 10.296875 22 
C 10.296875 33.609375 17.40625 37.921875 23.40625 37.921875 
C 29.90625 37.921875 36.59375 33.21875 36.59375 22 
C 36.59375 10.671875 30.09375 5.265625 23.5 5.265625 
z
" id="CMSS17-111"/>
      <path d="M 40.90625 29.328125 
C 40.90625 35.671875 39.40625 44 28.09375 44 
C 21.703125 44 17.5 40.71875 14.703125 37.328125 
L 14.703125 43.09375 
L 7.40625 43.09375 
L 7.40625 0 
L 15 0 
L 15 24.359375 
C 15 30.6875 17.40625 37.9375 24.203125 37.9375 
C 33 37.9375 33.296875 32 33.296875 28.578125 
L 33.296875 0 
L 40.90625 0 
z
" id="CMSS17-110"/>
     </defs>
     <g transform="translate(271.264003 414.021553)scale(0.14 -0.14)">
      <use transform="scale(0.996264)" xlink:href="#CMSS17-73"/>
      <use transform="translate(25.783926 0)scale(0.996264)" xlink:href="#CMSS17-116"/>
      <use transform="translate(59.615492 0)scale(0.996264)" xlink:href="#CMSS17-101"/>
      <use transform="translate(101.254314 0)scale(0.996264)" xlink:href="#CMSS17-114"/>
      <use transform="translate(133.164087 0)scale(0.996264)" xlink:href="#CMSS17-97"/>
      <use transform="translate(178.086007 0)scale(0.996264)" xlink:href="#CMSS17-116"/>
      <use transform="translate(211.917574 0)scale(0.996264)" xlink:href="#CMSS17-105"/>
      <use transform="translate(234.098297 0)scale(0.996264)" xlink:href="#CMSS17-111"/>
      <use transform="translate(280.941921 0)scale(0.996264)" xlink:href="#CMSS17-110"/>
     </g>
    </g>
   </g>
   <g id="matplotlib.axis_2">
    <g id="ytick_1">
     <g id="line2d_15">
      <path clip-path="url(#p55a2b15620)" d="M 72 363.310457 
L 518.4 363.310457 
" style="fill:none;stroke:#b0b0b0;stroke-dasharray:5.12,1.28,0.8,1.28;stroke-dashoffset:0;stroke-width:0.8;"/>
     </g>
     <g id="line2d_16">
      <defs>
       <path d="M 0 0 
L -3.5 0 
" id="m5143f90bd6" style="stroke:#000000;stroke-width:0.8;"/>
      </defs>
      <g>
       <use style="stroke:#000000;stroke-width:0.8;" x="72" xlink:href="#m5143f90bd6" y="363.310457"/>
      </g>
     </g>
     <g id="text_9">
      <!-- $-10000$ -->
      <defs>
       <path d="M 65.90625 23 
C 67.59375 23 69.40625 23 69.40625 25 
C 69.40625 27 67.59375 27 65.90625 27 
L 11.796875 27 
C 10.09375 27 8.296875 27 8.296875 25 
C 8.296875 23 10.09375 23 11.796875 23 
z
" id="CMSY10-0"/>
      </defs>
      <g transform="translate(32.34458 366.769707)scale(0.1 -0.1)">
       <use transform="scale(0.996264)" xlink:href="#CMSY10-0"/>
       <use transform="translate(77.487468 0)scale(0.996264)" xlink:href="#CMR17-49"/>
       <use transform="translate(123.177945 0)scale(0.996264)" xlink:href="#CMR17-48"/>
       <use transform="translate(168.868422 0)scale(0.996264)" xlink:href="#CMR17-48"/>
       <use transform="translate(214.558899 0)scale(0.996264)" xlink:href="#CMR17-48"/>
       <use transform="translate(260.249376 0)scale(0.996264)" xlink:href="#CMR17-48"/>
      </g>
     </g>
    </g>
    <g id="ytick_2">
     <g id="line2d_17">
      <path clip-path="url(#p55a2b15620)" d="M 72 310.096945 
L 518.4 310.096945 
" style="fill:none;stroke:#b0b0b0;stroke-dasharray:5.12,1.28,0.8,1.28;stroke-dashoffset:0;stroke-width:0.8;"/>
     </g>
     <g id="line2d_18">
      <g>
       <use style="stroke:#000000;stroke-width:0.8;" x="72" xlink:href="#m5143f90bd6" y="310.096945"/>
      </g>
     </g>
     <g id="text_10">
      <!-- $0$ -->
      <g transform="translate(60.018665 313.556194)scale(0.1 -0.1)">
       <use transform="scale(0.996264)" xlink:href="#CMR17-48"/>
      </g>
     </g>
    </g>
    <g id="ytick_3">
     <g id="line2d_19">
      <path clip-path="url(#p55a2b15620)" d="M 72 256.883433 
L 518.4 256.883433 
" style="fill:none;stroke:#b0b0b0;stroke-dasharray:5.12,1.28,0.8,1.28;stroke-dashoffset:0;stroke-width:0.8;"/>
     </g>
     <g id="line2d_20">
      <g>
       <use style="stroke:#000000;stroke-width:0.8;" x="72" xlink:href="#m5143f90bd6" y="256.883433"/>
      </g>
     </g>
     <g id="text_11">
      <!-- $10000$ -->
      <g transform="translate(40.093324 260.342682)scale(0.1 -0.1)">
       <use transform="scale(0.996264)" xlink:href="#CMR17-49"/>
       <use transform="translate(45.690477 0)scale(0.996264)" xlink:href="#CMR17-48"/>
       <use transform="translate(91.380954 0)scale(0.996264)" xlink:href="#CMR17-48"/>
       <use transform="translate(137.071431 0)scale(0.996264)" xlink:href="#CMR17-48"/>
       <use transform="translate(182.761908 0)scale(0.996264)" xlink:href="#CMR17-48"/>
      </g>
     </g>
    </g>
    <g id="ytick_4">
     <g id="line2d_21">
      <path clip-path="url(#p55a2b15620)" d="M 72 203.66992 
L 518.4 203.66992 
" style="fill:none;stroke:#b0b0b0;stroke-dasharray:5.12,1.28,0.8,1.28;stroke-dashoffset:0;stroke-width:0.8;"/>
     </g>
     <g id="line2d_22">
      <g>
       <use style="stroke:#000000;stroke-width:0.8;" x="72" xlink:href="#m5143f90bd6" y="203.66992"/>
      </g>
     </g>
     <g id="text_12">
      <!-- $20000$ -->
      <g transform="translate(40.093324 207.129169)scale(0.1 -0.1)">
       <use transform="scale(0.996264)" xlink:href="#CMR17-50"/>
       <use transform="translate(45.690477 0)scale(0.996264)" xlink:href="#CMR17-48"/>
       <use transform="translate(91.380954 0)scale(0.996264)" xlink:href="#CMR17-48"/>
       <use transform="translate(137.071431 0)scale(0.996264)" xlink:href="#CMR17-48"/>
       <use transform="translate(182.761908 0)scale(0.996264)" xlink:href="#CMR17-48"/>
      </g>
     </g>
    </g>
    <g id="ytick_5">
     <g id="line2d_23">
      <path clip-path="url(#p55a2b15620)" d="M 72 150.456408 
L 518.4 150.456408 
" style="fill:none;stroke:#b0b0b0;stroke-dasharray:5.12,1.28,0.8,1.28;stroke-dashoffset:0;stroke-width:0.8;"/>
     </g>
     <g id="line2d_24">
      <g>
       <use style="stroke:#000000;stroke-width:0.8;" x="72" xlink:href="#m5143f90bd6" y="150.456408"/>
      </g>
     </g>
     <g id="text_13">
      <!-- $30000$ -->
      <g transform="translate(40.093324 153.915657)scale(0.1 -0.1)">
       <use transform="scale(0.996264)" xlink:href="#CMR17-51"/>
       <use transform="translate(45.690477 0)scale(0.996264)" xlink:href="#CMR17-48"/>
       <use transform="translate(91.380954 0)scale(0.996264)" xlink:href="#CMR17-48"/>
       <use transform="translate(137.071431 0)scale(0.996264)" xlink:href="#CMR17-48"/>
       <use transform="translate(182.761908 0)scale(0.996264)" xlink:href="#CMR17-48"/>
      </g>
     </g>
    </g>
    <g id="ytick_6">
     <g id="line2d_25">
      <path clip-path="url(#p55a2b15620)" d="M 72 97.242895 
L 518.4 97.242895 
" style="fill:none;stroke:#b0b0b0;stroke-dasharray:5.12,1.28,0.8,1.28;stroke-dashoffset:0;stroke-width:0.8;"/>
     </g>
     <g id="line2d_26">
      <g>
       <use style="stroke:#000000;stroke-width:0.8;" x="72" xlink:href="#m5143f90bd6" y="97.242895"/>
      </g>
     </g>
     <g id="text_14">
      <!-- $40000$ -->
      <defs>
       <path d="M 33.59375 64.40625 
C 33.59375 66.5 33.5 66.5 31.703125 66.5 
L 2 19.59375 
L 2 17 
L 27.796875 17 
L 27.796875 7.140625 
C 27.796875 3.5 27.59375 2.5 20.59375 2.5 
L 18.703125 2.5 
L 18.703125 0 
C 21.90625 0 27.296875 0 30.703125 0 
C 34.09375 0 39.5 0 42.703125 0 
L 42.703125 2.5 
L 40.796875 2.5 
C 33.796875 2.5 33.59375 3.5 33.59375 7.140625 
L 33.59375 17 
L 43.796875 17 
L 43.796875 19.59375 
L 33.59375 19.59375 
z
M 28.09375 57.859375 
L 28.09375 19.59375 
L 4 19.59375 
z
" id="CMR17-52"/>
      </defs>
      <g transform="translate(40.093324 100.702144)scale(0.1 -0.1)">
       <use transform="scale(0.996264)" xlink:href="#CMR17-52"/>
       <use transform="translate(45.690477 0)scale(0.996264)" xlink:href="#CMR17-48"/>
       <use transform="translate(91.380954 0)scale(0.996264)" xlink:href="#CMR17-48"/>
       <use transform="translate(137.071431 0)scale(0.996264)" xlink:href="#CMR17-48"/>
       <use transform="translate(182.761908 0)scale(0.996264)" xlink:href="#CMR17-48"/>
      </g>
     </g>
    </g>
    <g id="text_15">
     <!-- $\partial \mathcal{L}/ \partial \lambda_{m}$ -->
     <defs>
      <path d="M 45.40625 33.515625 
C 44.796875 39.125 41.296875 45.859375 32.296875 45.859375 
C 18.203125 45.859375 3.796875 31.515625 3.796875 15.5625 
C 3.796875 9.4375 8 -2.09375 21.59375 -2.09375 
C 45.203125 -2.09375 55.296875 32.296875 55.296875 46 
C 55.296875 60.40625 47.203125 71.5 34.40625 71.5 
C 19.90625 71.5 15.59375 58.796875 15.59375 56.09375 
C 15.59375 55.203125 16.203125 53 19 53 
C 22.5 53 24 56.203125 24 57.90625 
C 24 61 20.90625 61 19.59375 61 
C 23.703125 68.40625 31.296875 69.09375 34 69.09375 
C 42.796875 69.09375 48.40625 62.109375 48.40625 50.96875 
C 48.40625 44.578125 46.5 37.1875 45.5 33.515625 
z
M 21.90625 0.59375 
C 12.5 0.59375 10.90625 8.03125 10.90625 12.25 
C 10.90625 16.65625 13.703125 27 15.203125 30.703125 
C 16.5 33.71875 22.203125 43.859375 32.59375 43.859375 
C 41.703125 43.859375 43.796875 35.921875 43.796875 30.515625 
C 43.796875 23.078125 37.296875 0.59375 21.90625 0.59375 
z
" id="CMMI12-64"/>
      <path d="M 18 9.53125 
C 23.40625 17.984375 25.09375 24.40625 26.40625 29.734375 
C 29.90625 43.59375 33.703125 55.65625 39.90625 62.578125 
C 41.09375 63.90625 41.90625 64.796875 45.09375 64.796875 
C 52 64.796875 52.203125 57.875 52.203125 56.453125 
C 52.203125 54.65625 51.703125 53.234375 51.703125 52.734375 
C 51.703125 52.03125 52.296875 52.03125 52.40625 52.03125 
C 54 52.03125 56.703125 53.140625 59.203125 54.953125 
C 61 56.359375 61.90625 57.359375 61.90625 61.46875 
C 61.90625 66.890625 59.09375 71 53.5 71 
C 50.296875 71 41.5 70.203125 31.703125 60.25 
C 23.703125 52.015625 19 33.9375 17.09375 26.40625 
C 15.296875 19.5 14.5 16.375 11.5 10.34375 
C 10.796875 9.15625 8.203125 4.734375 6.796875 3.421875 
C 4.09375 0.921875 3.09375 -0.890625 3.09375 -1.390625 
C 3.09375 -1.59375 3.296875 -2 4 -2 
C 4.40625 -2 6.5 -1.59375 9.09375 0.078125 
C 10.796875 1.0625 11 1.25 13.296875 3.609375 
C 18.296875 3.609375 21.796875 2.703125 28.09375 0.90625 
C 33.203125 -0.5 38.296875 -2 43.40625 -2 
C 51.5 -2 59.703125 4.125 62.90625 8.53125 
C 64.90625 11.234375 65.5 13.75 65.5 14.046875 
C 65.5 14.75 64.90625 14.75 64.796875 14.75 
C 63.203125 14.75 60.796875 13.65625 59.09375 12.4375 
C 56.40625 10.734375 56.203125 10.140625 55.59375 8.421875 
C 55.09375 6.8125 54.5 6.015625 54.09375 5.40625 
C 53.296875 4.203125 53.203125 4.203125 51.703125 4.203125 
C 46.90625 4.203125 41.90625 5.71875 35.296875 7.515625 
C 32.5 8.3125 27 9.9375 22 9.9375 
C 20.703125 9.9375 19.296875 9.828125 18 9.53125 
z
" id="CMSY10-76"/>
      <path d="M 42.90625 71.28125 
C 42.90625 71.390625 43.5 72.90625 43.5 73.09375 
C 43.5 74.296875 42.5 75 41.703125 75 
C 41.203125 75 40.296875 75 39.5 72.796875 
L 6 -21.296875 
C 6 -21.40625 5.40625 -22.890625 5.40625 -23.09375 
C 5.40625 -24.296875 6.40625 -25 7.203125 -25 
C 7.796875 -25 8.703125 -24.890625 9.40625 -22.796875 
z
" id="CMMI12-61"/>
      <path d="M 30.90625 61.953125 
C 28.40625 69 20.5 69 19.203125 69 
C 18.59375 69 17.5 69 17.5 68 
C 17.5 67.21875 18.09375 67.109375 18.59375 67.015625 
C 20.09375 66.8125 21.296875 66.609375 22.90625 63.75 
C 23.90625 61.859375 34.203125 32.171875 34.203125 31.96875 
C 34.203125 31.875 34.09375 31.765625 33.296875 30.96875 
L 7.296875 4.859375 
C 6.09375 3.65625 5.296875 2.859375 5.296875 1.59375 
C 5.296875 0.1875 6.5 -1 8.09375 -1 
C 8.5 -1 9.59375 -0.796875 10.203125 -0.203125 
C 11.796875 1.28125 26.09375 18.65625 35.203125 29.390625 
C 37.796875 21.609375 41 12.453125 44.09375 4.078125 
C 44.59375 2.59375 45.09375 1.1875 46.5 -0.09375 
C 47.5 -1 47.703125 -1 50.5 -1 
L 52.40625 -1 
C 52.796875 -1 53.5 -1 53.5 -0.203125 
C 53.5 0.203125 53.40625 0.296875 53 0.703125 
C 52.09375 1.796875 51.40625 3.578125 51 4.78125 
z
" id="CMMI12-21"/>
      <path d="M 20.59375 29.234375 
C 20.796875 29.84375 23.296875 34.828125 27 38.015625 
C 29.59375 40.40625 33 42.015625 36.90625 42.015625 
C 40.90625 42.015625 42.296875 39.015625 42.296875 35.03125 
C 42.296875 34.421875 42.296875 32.4375 41.09375 27.734375 
L 38.59375 17.46875 
C 37.796875 14.46875 35.90625 7.078125 35.703125 5.984375 
C 35.296875 4.484375 34.703125 1.890625 34.703125 1.5 
C 34.703125 0.09375 35.796875 -1 37.296875 -1 
C 40.296875 -1 40.796875 1.296875 41.703125 4.890625 
L 47.703125 28.734375 
C 47.90625 29.53125 53.09375 42.015625 64.09375 42.015625 
C 68.09375 42.015625 69.5 39.015625 69.5 35.03125 
C 69.5 29.4375 65.59375 18.5625 63.40625 12.578125 
C 62.5 10.171875 62 8.875 62 7.078125 
C 62 2.59375 65.09375 -1 69.90625 -1 
C 79.203125 -1 82.703125 13.671875 82.703125 14.265625 
C 82.703125 14.765625 82.296875 15.171875 81.703125 15.171875 
C 80.796875 15.171875 80.703125 14.875 80.203125 13.171875 
C 77.90625 5.1875 74.203125 1 70.203125 1 
C 69.203125 1 67.59375 1 67.59375 4.203125 
C 67.59375 6.8125 68.796875 10 69.203125 11.09375 
C 71 15.90625 75.5 27.703125 75.5 33.515625 
C 75.5 39.5 72 44 64.40625 44 
C 57.703125 44 52.296875 40.21875 48.296875 34.328125 
C 48 39.71875 44.703125 44 37.203125 44 
C 28.296875 44 23.59375 37.734375 21.796875 35.234375 
C 21.5 40.90625 17.40625 44 13 44 
C 10.09375 44 7.796875 42.609375 5.90625 38.8125 
C 4.09375 35.21875 2.703125 29.140625 2.703125 28.734375 
C 2.703125 28.34375 3.09375 27.84375 3.796875 27.84375 
C 4.59375 27.84375 4.703125 27.9375 5.296875 30.234375 
C 6.796875 36.125 8.703125 42.015625 12.703125 42.015625 
C 15 42.015625 15.796875 40.40625 15.796875 37.421875 
C 15.796875 35.21875 14.796875 31.328125 14.09375 28.234375 
L 11.296875 17.46875 
C 10.90625 15.5625 9.796875 11.078125 9.296875 9.28125 
C 8.59375 6.6875 7.5 2 7.5 1.5 
C 7.5 0.09375 8.59375 -1 10.09375 -1 
C 11.296875 -1 12.703125 -0.40625 13.5 1.09375 
C 13.703125 1.59375 14.59375 5.09375 15.09375 7.078125 
L 17.296875 16.0625 
z
" id="CMMI12-109"/>
     </defs>
     <g transform="translate(25.632552 242.755952)rotate(-90)scale(0.14 -0.14)">
      <use transform="translate(0 14.943915)scale(0.996264)" xlink:href="#CMMI12-64"/>
      <use transform="translate(56.915564 14.943915)scale(0.996264)" xlink:href="#CMSY10-76"/>
      <use transform="translate(125.630372 14.943915)scale(0.996264)" xlink:href="#CMMI12-61"/>
      <use transform="translate(174.405291 14.943915)scale(0.996264)" xlink:href="#CMMI12-64"/>
      <use transform="translate(231.320856 14.943915)scale(0.996264)" xlink:href="#CMMI12-21"/>
      <use transform="translate(288.224927 0)scale(0.697382)" xlink:href="#CMMI12-109"/>
     </g>
    </g>
   </g>
   <g id="line2d_27">
    <path clip-path="url(#p55a2b15620)" d="M 92.290909 310.096945 
L 92.42668 310.096945 
L 92.56245 105.883147 
L 92.833991 172.054061 
L 93.105532 202.200468 
L 93.241303 210.78792 
L 93.377074 207.968751 
L 93.784385 221.697085 
L 94.191697 226.961568 
L 94.599008 229.061639 
L 95.00632 229.91402 
L 95.277861 230.177725 
L 95.956714 164.933518 
L 96.635567 123.974845 
L 97.178649 102.43131 
L 97.721731 87.799685 
L 98.264813 78.164625 
L 98.807896 72.143151 
L 99.350978 68.731317 
L 99.758289 67.438127 
L 100.029831 67.044854 
L 100.301372 66.96 
L 100.572913 67.13587 
L 100.980224 67.801265 
L 101.523307 69.269466 
L 102.33793 72.327126 
L 103.559865 77.999436 
L 105.189112 86.452377 
L 105.596423 112.319739 
L 106.139505 132.297432 
L 106.818358 148.72943 
L 107.497211 160.175013 
L 108.176064 168.466864 
L 108.990687 175.701211 
L 109.80531 181.027146 
L 110.755704 185.751793 
L 111.841869 189.978829 
L 113.199574 194.279343 
L 114.828821 198.672341 
L 117.00115 203.846619 
L 119.58079 209.391499 
L 122.296201 214.716614 
L 122.839283 215.814642 
L 123.246595 217.483328 
L 123.925448 221.626053 
L 124.875842 229.050785 
L 126.505088 243.918712 
L 129.899352 275.421824 
L 130.578205 278.465936 
L 131.664369 282.260043 
L 133.293616 287.149948 
L 134.651322 290.617247 
L 135.737486 292.82252 
L 136.552109 294.059989 
L 137.366733 294.898178 
L 138.045585 295.279348 
L 138.724438 295.374957 
L 139.403291 295.200503 
L 140.082144 294.783542 
L 140.896767 294.018452 
L 141.57562 292.843117 
L 142.118702 292.383257 
L 142.797555 292.104019 
L 143.883719 291.94142 
L 144.01949 291.932644 
L 144.15526 291.01368 
L 144.698342 281.807006 
L 145.241425 275.949721 
L 145.784507 272.026009 
L 146.327589 269.434205 
L 146.870671 267.804384 
L 147.413753 266.885013 
L 147.821065 266.551475 
L 148.228377 266.457821 
L 148.635688 266.558105 
L 149.178771 266.930913 
L 149.857623 267.68902 
L 150.808017 269.131528 
L 152.165723 271.671997 
L 154.202281 276.033731 
L 157.868086 284.520342 
L 165.063925 301.293325 
L 165.742778 302.221091 
L 166.828942 303.248685 
L 168.59396 304.556042 
L 170.358977 305.601461 
L 171.716682 306.16838 
L 172.802847 306.43582 
L 174.160552 306.499893 
L 175.654028 306.952535 
L 178.912522 308.224428 
L 183.39295 310.209996 
L 187.737608 312.37339 
L 192.082265 314.784669 
L 196.426923 317.455965 
L 200.771581 320.396797 
L 205.116238 323.613779 
L 207.96742 325.679807 
L 208.374732 318.599444 
L 208.917814 314.094721 
L 209.460896 311.577687 
L 210.003978 310.093735 
L 210.54706 309.202802 
L 211.090143 308.679278 
L 211.768995 308.353219 
L 212.583619 308.261655 
L 213.534013 308.395009 
L 215.027489 308.861941 
L 218.557523 310.296933 
L 222.902181 311.965245 
L 226.839527 313.234313 
L 230.776873 314.263706 
L 234.714219 315.06155 
L 238.787335 315.656695 
L 242.996223 316.043927 
L 247.34088 316.223871 
L 248.155504 316.036977 
L 253.450555 314.422611 
L 255.487113 314.141837 
L 257.795213 314.068738 
L 261.325247 314.091134 
L 261.732559 313.366346 
L 262.275641 312.769506 
L 262.954494 312.374912 
L 263.904888 312.109618 
L 265.398364 311.967736 
L 268.249545 311.981984 
L 277.617713 312.12258 
L 285.492405 311.449805 
L 290.923228 311.435343 
L 291.194769 311.419892 
L 291.60208 311.150839 
L 292.416704 310.911366 
L 293.91018 310.757414 
L 297.032902 310.718424 
L 309.795334 310.684639 
L 316.448091 310.542906 
L 321.607372 310.431708 
L 323.37239 310.325621 
L 328.938982 310.309623 
L 344.688366 310.249497 
L 413.252496 310.105315 
L 498.109091 310.097553 
L 498.109091 310.097553 
" style="fill:none;stroke:#bf00bf;stroke-linecap:square;stroke-width:1.5;"/>
   </g>
   <g id="line2d_28">
    <path clip-path="url(#p55a2b15620)" d="M 92.290909 310.096945 
L 92.42668 310.096945 
L 92.698221 259.022955 
L 92.969762 243.736299 
L 93.241303 238.570739 
L 93.920156 233.806692 
L 94.327467 233.330935 
L 94.87055 233.14442 
L 95.277861 233.077784 
L 95.685173 256.307351 
L 96.228255 273.262704 
L 96.771337 283.81192 
L 97.31442 290.918189 
L 97.857502 295.695332 
L 98.400584 298.817298 
L 98.943666 300.751561 
L 99.486748 301.83199 
L 99.89406 302.229265 
L 100.301372 302.358618 
L 100.708683 302.279537 
L 101.251766 301.929117 
L 101.930618 301.210928 
L 103.016783 299.666395 
L 104.91757 296.453861 
L 105.189112 295.976074 
L 105.324882 296.318965 
L 105.460653 356.504358 
L 105.867964 326.129471 
L 106.275276 312.54179 
L 106.682588 305.312956 
L 107.22567 299.766767 
L 107.768752 296.315531 
L 108.447605 293.390297 
L 109.262228 290.948879 
L 110.076851 289.165358 
L 111.027245 287.571108 
L 112.24918 285.964476 
L 113.878427 284.231469 
L 116.050756 282.272102 
L 118.901937 280.004114 
L 122.296201 277.587401 
L 123.246595 277.052974 
L 124.46853 276.800738 
L 125.826236 276.440094 
L 127.591253 275.678096 
L 129.35627 274.844577 
L 129.627811 275.142725 
L 130.170893 276.252134 
L 132.343222 281.724455 
L 133.972469 285.465962 
L 135.194404 287.804525 
L 136.280568 289.449882 
L 137.230962 290.518698 
L 138.181356 291.236393 
L 138.995979 291.587935 
L 139.946373 291.730948 
L 141.032537 291.773929 
L 141.57562 292.155743 
L 142.390243 292.365166 
L 144.01949 292.472113 
L 144.15526 293.15239 
L 144.562572 297.659467 
L 145.105654 300.830085 
L 145.648736 302.717039 
L 146.191818 303.926239 
L 146.870671 304.871413 
L 147.549524 305.414746 
L 148.228377 305.694696 
L 149.043 305.802521 
L 150.129165 305.709261 
L 151.758411 305.313098 
L 161.941203 302.402966 
L 164.928155 301.891839 
L 165.607008 302.12929 
L 167.507795 303.19455 
L 169.951665 304.469752 
L 171.716682 305.141544 
L 173.61747 305.821553 
L 175.92557 306.687631 
L 181.084851 308.663903 
L 185.701049 310.677538 
L 190.181478 312.876462 
L 194.526135 315.254055 
L 198.870793 317.886117 
L 203.215451 320.783292 
L 207.560108 323.953773 
L 208.10319 324.241251 
L 208.374732 321.273299 
L 209.868208 313.554263 
L 210.54706 311.279972 
L 211.225913 309.82026 
L 211.904766 308.953889 
L 212.583619 308.494358 
L 213.262471 308.306241 
L 214.077095 308.309904 
L 215.163259 308.541708 
L 216.928276 309.169659 
L 225.481821 312.465924 
L 229.419167 313.645467 
L 233.356513 314.587637 
L 237.293859 315.302423 
L 241.366976 315.817207 
L 245.575863 316.128345 
L 248.019733 316.152012 
L 249.377438 315.854859 
L 253.993637 314.67719 
L 256.301737 314.373395 
L 259.831771 314.177713 
L 261.461018 314.074408 
L 263.090264 312.770587 
L 264.040658 312.338452 
L 265.126823 312.085504 
L 266.756069 311.96079 
L 270.014562 312.00063 
L 278.025025 312.12015 
L 282.233912 311.742045 
L 286.307029 311.525208 
L 291.60208 311.301603 
L 293.638639 310.867825 
L 295.539426 310.736106 
L 299.748314 310.731674 
L 309.795334 310.717463 
L 317.805797 310.562095 
L 322.286225 310.429925 
L 325.137407 310.313065 
L 333.826722 310.320671 
L 350.254959 310.247173 
L 454.526744 310.09972 
L 498.109091 310.097575 
L 498.109091 310.097575 
" style="fill:none;stroke:#00bfbf;stroke-linecap:square;stroke-width:1.5;"/>
   </g>
   <g id="line2d_29">
    <path clip-path="url(#p55a2b15620)" d="M 92.290909 310.096945 
L 92.42668 310.096945 
L 92.56245 305.939639 
L 92.698221 296.308614 
L 92.969762 268.860216 
L 93.377074 250.642653 
L 93.784385 241.162094 
L 94.191697 236.617496 
L 94.599008 234.616022 
L 95.00632 233.750586 
L 95.277861 233.463685 
L 95.549402 239.340141 
L 96.771337 275.447941 
L 97.45019 287.178997 
L 97.993272 293.301103 
L 98.536355 297.39277 
L 99.079437 300.024332 
L 99.622519 301.605607 
L 100.165601 302.431611 
L 100.572913 302.685944 
L 100.980224 302.70365 
L 101.523307 302.448737 
L 102.202159 301.810748 
L 103.152553 300.541612 
L 104.646029 298.105539 
L 105.189112 297.256079 
L 105.460653 311.685789 
L 105.732194 314.331284 
L 105.867964 313.998984 
L 106.275276 310.805855 
L 107.22567 302.583904 
L 107.904523 298.391331 
L 108.719146 294.820349 
L 109.533769 292.29912 
L 110.348393 290.441495 
L 111.298786 288.794582 
L 112.520721 287.160324 
L 114.014198 285.560421 
L 116.050756 283.724634 
L 118.766167 281.582062 
L 122.160431 279.193324 
L 122.839283 278.836995 
L 123.246595 279.222413 
L 124.196989 280.21313 
L 124.875842 280.570987 
L 125.554694 280.681287 
L 126.505088 280.570489 
L 127.862794 280.139924 
L 129.492041 279.573317 
L 129.899352 279.865724 
L 130.442434 280.616105 
L 131.257058 282.20416 
L 134.108239 288.061549 
L 135.194404 289.7264 
L 136.144798 290.814022 
L 136.959421 291.462106 
L 137.774044 291.857484 
L 138.588668 292.025052 
L 139.539061 291.985536 
L 140.760996 291.693192 
L 140.896767 291.652029 
L 142.390243 292.816791 
L 143.340637 293.052825 
L 144.01949 293.126264 
L 144.15526 293.50258 
L 144.562572 295.89882 
L 145.920277 301.616719 
L 146.59913 303.486977 
L 147.277983 304.734491 
L 147.956836 305.524854 
L 148.635688 305.993291 
L 149.450312 306.267666 
L 150.400706 306.334288 
L 151.758411 306.1655 
L 153.93074 305.626615 
L 160.583497 303.883721 
L 164.249302 303.195233 
L 165.335466 303.138398 
L 166.28586 303.404112 
L 168.186648 304.273 
L 170.223206 305.114126 
L 171.852453 305.547375 
L 173.210158 305.892081 
L 174.703635 306.595719 
L 179.048292 308.212137 
L 183.800262 310.130837 
L 188.41646 312.234142 
L 192.896889 314.516545 
L 197.377317 317.048092 
L 201.857745 319.837611 
L 206.338173 322.890655 
L 207.831649 323.967345 
L 207.96742 323.863545 
L 208.238961 318.312899 
L 208.646273 314.163915 
L 209.053584 311.778802 
L 209.596667 309.981574 
L 210.139749 309.018918 
L 210.682831 308.50323 
L 211.361684 308.212412 
L 212.176307 308.158079 
L 213.262471 308.351137 
L 215.027489 308.946561 
L 224.395657 312.442337 
L 228.333003 313.562965 
L 232.270349 314.455782 
L 236.343465 315.150448 
L 240.552353 315.639441 
L 244.89701 315.920934 
L 247.612421 315.948892 
L 249.105897 315.482113 
L 252.09285 314.585462 
L 254.400949 314.124814 
L 256.709048 313.904783 
L 260.510624 313.833915 
L 261.325247 313.806575 
L 262.411412 312.404675 
L 263.090264 312.114487 
L 264.176429 311.926243 
L 266.077216 311.865313 
L 272.458432 312.019888 
L 277.753484 312.028591 
L 284.406241 311.438422 
L 288.750899 311.356398 
L 291.194769 311.325412 
L 291.60208 311.05127 
L 292.416704 310.830498 
L 293.91018 310.710206 
L 297.711755 310.69854 
L 308.980711 310.691701 
L 316.448091 310.523193 
L 321.607372 310.399168 
L 323.37239 310.307466 
L 330.160917 310.305506 
L 345.50299 310.24105 
L 432.260373 310.102883 
L 498.109091 310.097519 
L 498.109091 310.097519 
" style="fill:none;stroke:#ff0000;stroke-linecap:square;stroke-width:1.5;"/>
   </g>
   <g id="line2d_30">
    <path clip-path="url(#p55a2b15620)" d="M 92.290909 310.096945 
L 92.42668 310.096945 
L 92.698221 259.022955 
L 92.969762 243.736299 
L 93.241303 238.570739 
L 93.920156 233.806692 
L 94.327467 233.330935 
L 94.87055 233.14442 
L 95.277861 233.077784 
L 95.685173 256.307351 
L 96.228255 273.262704 
L 96.771337 283.81192 
L 97.31442 290.918189 
L 97.857502 295.695332 
L 98.400584 298.817298 
L 98.943666 300.751561 
L 99.486748 301.83199 
L 99.89406 302.229265 
L 100.301372 302.358618 
L 100.708683 302.279537 
L 101.251766 301.929117 
L 101.930618 301.210928 
L 103.016783 299.666395 
L 104.91757 296.453861 
L 105.324882 295.749658 
L 106.003735 300.595824 
L 106.275276 300.958714 
L 106.546817 300.585708 
L 106.954129 299.276347 
L 108.583375 293.246389 
L 109.397999 291.133684 
L 110.348393 289.283403 
L 111.434557 287.674755 
L 112.792263 286.088657 
L 114.55728 284.386966 
L 117.00115 282.353734 
L 120.123872 280.047152 
L 122.839283 278.229261 
L 123.925448 281.662387 
L 124.46853 282.179567 
L 125.011612 282.379731 
L 125.690465 282.39983 
L 126.776629 282.179059 
L 129.492041 281.452518 
L 129.899352 282.203569 
L 130.985517 284.977142 
L 132.886304 289.693919 
L 134.108239 292.14509 
L 135.058633 293.601956 
L 135.873256 294.490739 
L 136.552109 294.964021 
L 137.230962 295.194579 
L 137.909815 295.193301 
L 138.588668 294.981348 
L 139.403291 294.49322 
L 140.489455 293.564201 
L 141.032537 293.186282 
L 141.71139 293.262241 
L 144.01949 293.236186 
L 144.15526 293.918323 
L 144.562572 298.562523 
L 145.105654 301.778777 
L 145.648736 303.615629 
L 146.191818 304.766179 
L 146.870671 305.660611 
L 147.549524 306.182184 
L 148.364147 306.498671 
L 149.314541 306.602961 
L 150.536476 306.499964 
L 152.573034 306.066448 
L 160.447727 304.203171 
L 164.249302 303.601897 
L 165.063925 303.566171 
L 165.878549 303.951442 
L 169.272812 305.792623 
L 170.766289 306.305344 
L 172.123994 306.537564 
L 173.210158 306.705073 
L 181.492162 309.795845 
L 186.108361 311.840924 
L 190.72456 314.12975 
L 195.204988 316.59546 
L 199.685416 319.309673 
L 204.301615 322.370885 
L 207.96742 324.994155 
L 208.10319 325.384277 
L 208.646273 341.675035 
L 209.189355 351.811548 
L 209.732437 358.472578 
L 210.275519 362.881183 
L 210.818602 365.765508 
L 211.361684 367.589998 
L 211.904766 368.665219 
L 212.447848 369.20517 
L 212.85516 369.350971 
L 213.398242 369.288678 
L 214.077095 368.909697 
L 214.891718 368.154742 
L 215.977883 366.83031 
L 217.607129 364.469994 
L 220.32254 360.087111 
L 225.07451 351.932886 
L 235.393072 334.163666 
L 239.737729 327.175573 
L 243.539305 321.478744 
L 246.933569 316.785224 
L 247.883962 315.667604 
L 248.698586 315.144753 
L 250.192062 314.496553 
L 252.500161 313.743423 
L 254.400949 313.34795 
L 256.165966 313.204877 
L 258.202524 313.281547 
L 261.461018 313.598616 
L 261.732559 314.38171 
L 262.275641 315.83079 
L 262.818723 316.696973 
L 263.361805 317.200409 
L 264.040658 317.5007 
L 264.719511 317.564403 
L 265.669905 317.412771 
L 267.02761 316.935567 
L 269.47148 315.790712 
L 276.80309 312.282007 
L 277.889255 311.902039 
L 279.790042 311.59728 
L 283.455847 311.232187 
L 286.57857 311.143003 
L 291.194769 311.270049 
L 291.330539 311.291447 
L 291.873621 311.879332 
L 292.552474 312.288221 
L 293.367098 312.523422 
L 294.453262 312.603922 
L 296.218279 312.473202 
L 299.884084 311.908615 
L 307.758776 310.699862 
L 311.831893 310.516797 
L 317.398485 310.450866 
L 321.335831 310.550153 
L 322.286225 310.804956 
L 323.779701 310.928056 
L 326.495112 310.873848 
L 343.19489 310.223858 
L 351.476894 310.274956 
L 353.377682 310.370325 
L 358.265422 310.324885 
L 374.829429 310.136298 
L 498.109091 310.097442 
L 498.109091 310.097442 
" style="fill:none;stroke:#008000;stroke-linecap:square;stroke-width:1.5;"/>
   </g>
   <g id="patch_3">
    <path d="M 72 384.48 
L 72 51.84 
" style="fill:none;stroke:#000000;stroke-linecap:square;stroke-linejoin:miter;stroke-width:0.8;"/>
   </g>
   <g id="patch_4">
    <path d="M 518.4 384.48 
L 518.4 51.84 
" style="fill:none;stroke:#000000;stroke-linecap:square;stroke-linejoin:miter;stroke-width:0.8;"/>
   </g>
   <g id="patch_5">
    <path d="M 72 384.48 
L 518.4 384.48 
" style="fill:none;stroke:#000000;stroke-linecap:square;stroke-linejoin:miter;stroke-width:0.8;"/>
   </g>
   <g id="patch_6">
    <path d="M 72 51.84 
L 518.4 51.84 
" style="fill:none;stroke:#000000;stroke-linecap:square;stroke-linejoin:miter;stroke-width:0.8;"/>
   </g>
   <g id="text_16">
    <!-- $\partial \mathcal{L}/ \partial \lambda_{m}$ -->
    <g transform="translate(270.604048 45.84)scale(0.14 -0.14)">
     <use transform="translate(0 14.943915)scale(0.996264)" xlink:href="#CMMI12-64"/>
     <use transform="translate(56.915564 14.943915)scale(0.996264)" xlink:href="#CMSY10-76"/>
     <use transform="translate(125.630372 14.943915)scale(0.996264)" xlink:href="#CMMI12-61"/>
     <use transform="translate(174.405291 14.943915)scale(0.996264)" xlink:href="#CMMI12-64"/>
     <use transform="translate(231.320856 14.943915)scale(0.996264)" xlink:href="#CMMI12-21"/>
     <use transform="translate(288.224927 0)scale(0.697382)" xlink:href="#CMMI12-109"/>
    </g>
   </g>
   <g id="legend_1">
    <g id="patch_7">
     <path d="M 79 379.48 
L 144.320954 379.48 
Q 146.320954 379.48 146.320954 377.48 
L 146.320954 318.62944 
Q 146.320954 316.62944 144.320954 316.62944 
L 79 316.62944 
Q 77 316.62944 77 318.62944 
L 77 377.48 
Q 77 379.48 79 379.48 
z
" style="fill:#ffffff;opacity:0.8;stroke:#cccccc;stroke-linejoin:miter;"/>
    </g>
    <g id="line2d_31">
     <path d="M 81 325.154901 
L 101 325.154901 
" style="fill:none;stroke:#bf00bf;stroke-linecap:square;stroke-width:1.5;"/>
    </g>
    <g id="line2d_32"/>
    <g id="text_17">
     <!-- $\partial \mathcal{L}/ \partial \lambda_{1}$ -->
     <g transform="translate(109 328.654901)scale(0.1 -0.1)">
      <use transform="translate(0 14.943915)scale(0.996264)" xlink:href="#CMMI12-64"/>
      <use transform="translate(56.915564 14.943915)scale(0.996264)" xlink:href="#CMSY10-76"/>
      <use transform="translate(125.630372 14.943915)scale(0.996264)" xlink:href="#CMMI12-61"/>
      <use transform="translate(174.405291 14.943915)scale(0.996264)" xlink:href="#CMMI12-64"/>
      <use transform="translate(231.320856 14.943915)scale(0.996264)" xlink:href="#CMMI12-21"/>
      <use transform="translate(288.224927 0)scale(0.697382)" xlink:href="#CMR17-49"/>
     </g>
    </g>
    <g id="line2d_33">
     <path d="M 81 340.117541 
L 101 340.117541 
" style="fill:none;stroke:#00bfbf;stroke-linecap:square;stroke-width:1.5;"/>
    </g>
    <g id="line2d_34"/>
    <g id="text_18">
     <!-- $\partial \mathcal{L}/ \partial \lambda_{2}$ -->
     <g transform="translate(109 343.617541)scale(0.1 -0.1)">
      <use transform="translate(0 14.943915)scale(0.996264)" xlink:href="#CMMI12-64"/>
      <use transform="translate(56.915564 14.943915)scale(0.996264)" xlink:href="#CMSY10-76"/>
      <use transform="translate(125.630372 14.943915)scale(0.996264)" xlink:href="#CMMI12-61"/>
      <use transform="translate(174.405291 14.943915)scale(0.996264)" xlink:href="#CMMI12-64"/>
      <use transform="translate(231.320856 14.943915)scale(0.996264)" xlink:href="#CMMI12-21"/>
      <use transform="translate(288.224927 0)scale(0.697382)" xlink:href="#CMR17-50"/>
     </g>
    </g>
    <g id="line2d_35">
     <path d="M 81 355.080182 
L 101 355.080182 
" style="fill:none;stroke:#ff0000;stroke-linecap:square;stroke-width:1.5;"/>
    </g>
    <g id="line2d_36"/>
    <g id="text_19">
     <!-- $\partial \mathcal{L}/ \partial \lambda_{3}$ -->
     <g transform="translate(109 358.580182)scale(0.1 -0.1)">
      <use transform="translate(0 14.943915)scale(0.996264)" xlink:href="#CMMI12-64"/>
      <use transform="translate(56.915564 14.943915)scale(0.996264)" xlink:href="#CMSY10-76"/>
      <use transform="translate(125.630372 14.943915)scale(0.996264)" xlink:href="#CMMI12-61"/>
      <use transform="translate(174.405291 14.943915)scale(0.996264)" xlink:href="#CMMI12-64"/>
      <use transform="translate(231.320856 14.943915)scale(0.996264)" xlink:href="#CMMI12-21"/>
      <use transform="translate(288.224927 0)scale(0.697382)" xlink:href="#CMR17-51"/>
     </g>
    </g>
    <g id="line2d_37">
     <path d="M 81 370.042822 
L 101 370.042822 
" style="fill:none;stroke:#008000;stroke-linecap:square;stroke-width:1.5;"/>
    </g>
    <g id="line2d_38"/>
    <g id="text_20">
     <!-- $\partial \mathcal{L}/ \partial \lambda_{4}$ -->
     <g transform="translate(109 373.542822)scale(0.1 -0.1)">
      <use transform="translate(0 14.943915)scale(0.996264)" xlink:href="#CMMI12-64"/>
      <use transform="translate(56.915564 14.943915)scale(0.996264)" xlink:href="#CMSY10-76"/>
      <use transform="translate(125.630372 14.943915)scale(0.996264)" xlink:href="#CMMI12-61"/>
      <use transform="translate(174.405291 14.943915)scale(0.996264)" xlink:href="#CMMI12-64"/>
      <use transform="translate(231.320856 14.943915)scale(0.996264)" xlink:href="#CMMI12-21"/>
      <use transform="translate(288.224927 0)scale(0.697382)" xlink:href="#CMR17-52"/>
     </g>
    </g>
   </g>
  </g>
 </g>
 <defs>
  <clipPath id="p55a2b15620">
   <rect height="332.64" width="446.4" x="72" y="51.84"/>
  </clipPath>
 </defs>
</svg>
