<?xml version="1.0" encoding="utf-8" standalone="no"?>
<!DOCTYPE svg PUBLIC "-//W3C//DTD SVG 1.1//EN"
  "http://www.w3.org/Graphics/SVG/1.1/DTD/svg11.dtd">
<!-- Created with matplotlib (http://matplotlib.org/) -->
<svg height="432pt" version="1.1" viewBox="0 0 576 432" width="576pt" xmlns="http://www.w3.org/2000/svg" xmlns:xlink="http://www.w3.org/1999/xlink">
 <defs>
  <style type="text/css">
*{stroke-linecap:butt;stroke-linejoin:round;}
  </style>
 </defs>
 <g id="figure_1">
  <g id="patch_1">
   <path d="M 0 432 
L 576 432 
L 576 0 
L 0 0 
z
" style="fill:#ffffff;"/>
  </g>
  <g id="axes_1">
   <g id="patch_2">
    <path d="M 72 384.48 
L 518.4 384.48 
L 518.4 51.84 
L 72 51.84 
z
" style="fill:#ffffff;"/>
   </g>
   <g id="matplotlib.axis_1">
    <g id="xtick_1">
     <g id="line2d_1">
      <path clip-path="url(#p6608a61a3e)" d="M 92.290909 384.48 
L 92.290909 51.84 
" style="fill:none;stroke:#b0b0b0;stroke-dasharray:5.12,1.28,0.8,1.28;stroke-dashoffset:0;stroke-width:0.8;"/>
     </g>
     <g id="line2d_2">
      <defs>
       <path d="M 0 0 
L 0 3.5 
" id="mdcd6112fd2" style="stroke:#000000;stroke-width:0.8;"/>
      </defs>
      <g>
       <use style="stroke:#000000;stroke-width:0.8;" x="92.290909" xlink:href="#mdcd6112fd2" y="384.48"/>
      </g>
     </g>
     <g id="text_1">
      <!-- $0$ -->
      <defs>
       <path d="M 42 31.640625 
C 42 37.75 41.90625 48.125 37.703125 56.109375 
C 34 63.109375 28.09375 65.59375 22.90625 65.59375 
C 18.09375 65.59375 12 63.40625 8.203125 56.203125 
C 4.203125 48.71875 3.796875 39.4375 3.796875 31.640625 
C 3.796875 25.953125 3.90625 17.28125 7 9.671875 
C 11.296875 -0.609375 19 -2 22.90625 -2 
C 27.5 -2 34.5 -0.109375 38.59375 9.375 
C 41.59375 16.28125 42 24.359375 42 31.640625 
z
M 22.90625 -0.40625 
C 16.5 -0.40625 12.703125 5.078125 11.296875 12.6875 
C 10.203125 18.5625 10.203125 27.15625 10.203125 32.75 
C 10.203125 40.4375 10.203125 46.828125 11.5 52.921875 
C 13.40625 61.390625 19 64 22.90625 64 
C 27 64 32.296875 61.296875 34.203125 53.125 
C 35.5 47.4375 35.59375 40.734375 35.59375 32.75 
C 35.59375 26.25 35.59375 18.265625 34.40625 12.375 
C 32.296875 1.484375 26.40625 -0.40625 22.90625 -0.40625 
z
" id="CMR17-48"/>
      </defs>
      <g transform="translate(89.800241 398.398498)scale(0.1 -0.1)">
       <use transform="scale(0.996264)" xlink:href="#CMR17-48"/>
      </g>
     </g>
    </g>
    <g id="xtick_2">
     <g id="line2d_3">
      <path clip-path="url(#p6608a61a3e)" d="M 164.629266 384.48 
L 164.629266 51.84 
" style="fill:none;stroke:#b0b0b0;stroke-dasharray:5.12,1.28,0.8,1.28;stroke-dashoffset:0;stroke-width:0.8;"/>
     </g>
     <g id="line2d_4">
      <g>
       <use style="stroke:#000000;stroke-width:0.8;" x="164.629266" xlink:href="#mdcd6112fd2" y="384.48"/>
      </g>
     </g>
     <g id="text_2">
      <!-- $500$ -->
      <defs>
       <path d="M 11.40625 57.6875 
C 12.40625 57.28125 16.5 56 20.703125 56 
C 30 56 35.09375 61.109375 38 64.0625 
C 38 64.953125 38 65.5 37.40625 65.5 
C 37.296875 65.5 37.09375 65.5 36.296875 65.046875 
C 32.796875 63.40625 28.703125 62.078125 23.703125 62.078125 
C 20.703125 62.078125 16.203125 62.484375 11.296875 64.671875 
C 10.203125 65.171875 10 65.171875 9.90625 65.171875 
C 9.40625 65.171875 9.296875 65.0625 9.296875 63.078125 
L 9.296875 34.421875 
C 9.296875 32.640625 9.296875 32.140625 10.296875 32.140625 
C 10.796875 32.140625 11 32.34375 11.5 33.03125 
C 14.703125 37.515625 19.09375 39.40625 24.09375 39.40625 
C 27.59375 39.40625 35.09375 37.21875 35.09375 20.140625 
C 35.09375 16.953125 35.09375 11.171875 32.09375 6.578125 
C 29.59375 2.484375 25.703125 0.390625 21.40625 0.390625 
C 14.796875 0.390625 8.09375 5 6.296875 12.71875 
C 6.703125 12.609375 7.5 12.421875 7.90625 12.421875 
C 9.203125 12.421875 11.703125 13.125 11.703125 16.21875 
C 11.703125 18.90625 9.796875 20 7.90625 20 
C 5.59375 20 4.09375 18.59375 4.09375 15.796875 
C 4.09375 7.09375 11 -2 21.59375 -2 
C 31.90625 -2 41.703125 6.875 41.703125 19.75 
C 41.703125 31.71875 33.90625 41 24.203125 41 
C 19.09375 41 14.796875 39.109375 11.40625 35.53125 
z
" id="CMR17-53"/>
      </defs>
      <g transform="translate(157.157263 398.398498)scale(0.1 -0.1)">
       <use transform="scale(0.996264)" xlink:href="#CMR17-53"/>
       <use transform="translate(45.690477 0)scale(0.996264)" xlink:href="#CMR17-48"/>
       <use transform="translate(91.380954 0)scale(0.996264)" xlink:href="#CMR17-48"/>
      </g>
     </g>
    </g>
    <g id="xtick_3">
     <g id="line2d_5">
      <path clip-path="url(#p6608a61a3e)" d="M 236.967623 384.48 
L 236.967623 51.84 
" style="fill:none;stroke:#b0b0b0;stroke-dasharray:5.12,1.28,0.8,1.28;stroke-dashoffset:0;stroke-width:0.8;"/>
     </g>
     <g id="line2d_6">
      <g>
       <use style="stroke:#000000;stroke-width:0.8;" x="236.967623" xlink:href="#mdcd6112fd2" y="384.48"/>
      </g>
     </g>
     <g id="text_3">
      <!-- $1000$ -->
      <defs>
       <path d="M 26.59375 63.40625 
C 26.59375 65.5 26.5 65.5 25.09375 65.5 
C 21.203125 61.1875 15.296875 59.796875 9.703125 59.796875 
C 9.40625 59.796875 8.90625 59.796875 8.796875 59.5 
C 8.703125 59.296875 8.703125 59.09375 8.703125 57 
C 11.796875 57 17 57.59375 21 59.984375 
L 21 7.203125 
C 21 3.6875 20.796875 2.5 12.203125 2.5 
L 9.203125 2.5 
L 9.203125 0 
C 14 0 19 0 23.796875 0 
C 28.59375 0 33.59375 0 38.40625 0 
L 38.40625 2.5 
L 35.40625 2.5 
C 26.796875 2.5 26.59375 3.59375 26.59375 7.15625 
z
" id="CMR17-49"/>
      </defs>
      <g transform="translate(227.004952 398.398498)scale(0.1 -0.1)">
       <use transform="scale(0.996264)" xlink:href="#CMR17-49"/>
       <use transform="translate(45.690477 0)scale(0.996264)" xlink:href="#CMR17-48"/>
       <use transform="translate(91.380954 0)scale(0.996264)" xlink:href="#CMR17-48"/>
       <use transform="translate(137.071431 0)scale(0.996264)" xlink:href="#CMR17-48"/>
      </g>
     </g>
    </g>
    <g id="xtick_4">
     <g id="line2d_7">
      <path clip-path="url(#p6608a61a3e)" d="M 309.30598 384.48 
L 309.30598 51.84 
" style="fill:none;stroke:#b0b0b0;stroke-dasharray:5.12,1.28,0.8,1.28;stroke-dashoffset:0;stroke-width:0.8;"/>
     </g>
     <g id="line2d_8">
      <g>
       <use style="stroke:#000000;stroke-width:0.8;" x="309.30598" xlink:href="#mdcd6112fd2" y="384.48"/>
      </g>
     </g>
     <g id="text_4">
      <!-- $1500$ -->
      <g transform="translate(299.343309 398.398498)scale(0.1 -0.1)">
       <use transform="scale(0.996264)" xlink:href="#CMR17-49"/>
       <use transform="translate(45.690477 0)scale(0.996264)" xlink:href="#CMR17-53"/>
       <use transform="translate(91.380954 0)scale(0.996264)" xlink:href="#CMR17-48"/>
       <use transform="translate(137.071431 0)scale(0.996264)" xlink:href="#CMR17-48"/>
      </g>
     </g>
    </g>
    <g id="xtick_5">
     <g id="line2d_9">
      <path clip-path="url(#p6608a61a3e)" d="M 381.644336 384.48 
L 381.644336 51.84 
" style="fill:none;stroke:#b0b0b0;stroke-dasharray:5.12,1.28,0.8,1.28;stroke-dashoffset:0;stroke-width:0.8;"/>
     </g>
     <g id="line2d_10">
      <g>
       <use style="stroke:#000000;stroke-width:0.8;" x="381.644336" xlink:href="#mdcd6112fd2" y="384.48"/>
      </g>
     </g>
     <g id="text_5">
      <!-- $2000$ -->
      <defs>
       <path d="M 41.703125 15.453125 
L 39.90625 15.453125 
C 38.90625 8.375 38.09375 7.171875 37.703125 6.5625 
C 37.203125 5.765625 30 5.765625 28.59375 5.765625 
L 9.40625 5.765625 
C 13 9.671875 20 16.75 28.5 24.953125 
C 34.59375 30.734375 41.703125 37.53125 41.703125 47.421875 
C 41.703125 59.21875 32.296875 66 21.796875 66 
C 10.796875 66 4.09375 56.3125 4.09375 47.34375 
C 4.09375 43.4375 7 42.9375 8.203125 42.9375 
C 9.203125 42.9375 12.203125 43.546875 12.203125 47.03125 
C 12.203125 50.109375 9.59375 51 8.203125 51 
C 7.59375 51 7 50.90625 6.59375 50.703125 
C 8.5 59.21875 14.296875 63.40625 20.40625 63.40625 
C 29.09375 63.40625 34.796875 56.515625 34.796875 47.421875 
C 34.796875 38.734375 29.703125 31.25 24 24.75 
L 4.09375 2.28125 
L 4.09375 0 
L 39.296875 0 
z
" id="CMR17-50"/>
      </defs>
      <g transform="translate(371.681666 398.398498)scale(0.1 -0.1)">
       <use transform="scale(0.996264)" xlink:href="#CMR17-50"/>
       <use transform="translate(45.690477 0)scale(0.996264)" xlink:href="#CMR17-48"/>
       <use transform="translate(91.380954 0)scale(0.996264)" xlink:href="#CMR17-48"/>
       <use transform="translate(137.071431 0)scale(0.996264)" xlink:href="#CMR17-48"/>
      </g>
     </g>
    </g>
    <g id="xtick_6">
     <g id="line2d_11">
      <path clip-path="url(#p6608a61a3e)" d="M 453.982693 384.48 
L 453.982693 51.84 
" style="fill:none;stroke:#b0b0b0;stroke-dasharray:5.12,1.28,0.8,1.28;stroke-dashoffset:0;stroke-width:0.8;"/>
     </g>
     <g id="line2d_12">
      <g>
       <use style="stroke:#000000;stroke-width:0.8;" x="453.982693" xlink:href="#mdcd6112fd2" y="384.48"/>
      </g>
     </g>
     <g id="text_6">
      <!-- $2500$ -->
      <g transform="translate(444.020023 398.398498)scale(0.1 -0.1)">
       <use transform="scale(0.996264)" xlink:href="#CMR17-50"/>
       <use transform="translate(45.690477 0)scale(0.996264)" xlink:href="#CMR17-53"/>
       <use transform="translate(91.380954 0)scale(0.996264)" xlink:href="#CMR17-48"/>
       <use transform="translate(137.071431 0)scale(0.996264)" xlink:href="#CMR17-48"/>
      </g>
     </g>
    </g>
    <g id="text_7">
     <!-- Iteration -->
     <defs>
      <path d="M 17.09375 69 
L 8.703125 69 
L 8.703125 0 
L 17.09375 0 
z
" id="CMSS17-73"/>
      <path d="M 16.703125 37 
L 29.703125 37 
L 29.703125 42.765625 
L 16.703125 42.765625 
L 16.703125 55 
L 9.59375 55 
L 9.59375 42.765625 
L 1.703125 42.765625 
L 1.703125 37 
L 9.40625 37 
L 9.40625 11.703125 
C 9.40625 6 10.703125 -1 17.296875 -1 
C 22.296875 -1 26.90625 0.390625 31.296875 2.6875 
L 29.703125 8.5625 
C 27.296875 6.46875 24.40625 5.265625 21.296875 5.265625 
C 16.90625 5.265625 16.703125 10.875 16.703125 13.375 
z
" id="CMSS17-116"/>
      <path d="M 39.09375 21.515625 
C 39.09375 24.84375 38.90625 31.296875 35.703125 36.640625 
C 32.203125 42.390625 26.5 44 22.203125 44 
C 11.796875 44 3 34.1875 3 21.484375 
C 3 9.09375 12.09375 -1 23.59375 -1 
C 28.09375 -1 33.59375 0.296875 38.59375 3.875 
C 38.59375 4.28125 38.40625 6.46875 38.296875 6.5625 
C 38.296875 6.765625 38 9.84375 38 10.25 
C 33.203125 6.359375 27.703125 5.078125 23.703125 5.078125 
C 17.296875 5.078125 10.40625 10.421875 10.09375 21.515625 
z
M 10.90625 27 
C 12.203125 32.5625 16.59375 37.828125 22.203125 37.828125 
C 23.703125 37.828125 30.703125 37.828125 32.5 27 
z
" id="CMSS17-101"/>
      <path d="M 14.90625 21.296875 
C 14.90625 30.703125 21.796875 37 30.59375 37 
L 30.59375 43.578125 
C 24.203125 43.578125 18.203125 40.390625 14.59375 35.203125 
L 14.59375 43.09375 
L 7.5 43.09375 
L 7.5 0 
L 14.90625 0 
z
" id="CMSS17-114"/>
      <path d="M 37.59375 27.984375 
C 37.59375 37.375 30.90625 43.875 21.90625 43.875 
C 17.5 43.875 12.703125 43.078125 7.203125 39.890625 
L 7.796875 33.359375 
C 10.296875 35.125 14.59375 38 21.796875 38 
C 26.90625 38 30 34.0625 30 27.84375 
L 30 24 
C 14 24 4 19.34375 4 11.34375 
C 4 7.203125 6.5 -1 14.796875 -1 
C 16.296875 -1 24.40625 -1 30.203125 3.390625 
L 30.203125 -0.296875 
L 37.59375 -0.296875 
z
M 30 12.75 
C 30 10.953125 30 8.5625 27 6.78125 
C 24.40625 5.078125 21.09375 5.078125 19.703125 5.078125 
C 14.703125 5.078125 11.296875 7.984375 11.296875 11.625 
C 11.296875 18.921875 26.90625 18.921875 30 18.921875 
z
" id="CMSS17-97"/>
      <path d="M 15.296875 65.359375 
L 6.90625 65.359375 
L 6.90625 57 
L 15.296875 57 
z
M 14.796875 42.796875 
L 7.40625 42.796875 
L 7.40625 0 
L 14.796875 0 
z
" id="CMSS17-105"/>
      <path d="M 44.203125 21.1875 
C 44.203125 34 34.703125 44 23.5 44 
C 12 44 2.703125 33.703125 2.703125 21.1875 
C 2.703125 8.5 12.296875 -1 23.40625 -1 
C 34.796875 -1 44.203125 8.796875 44.203125 21.1875 
z
M 23.5 5.265625 
C 16.40625 5.265625 10.296875 11.078125 10.296875 22 
C 10.296875 33.609375 17.40625 37.921875 23.40625 37.921875 
C 29.90625 37.921875 36.59375 33.21875 36.59375 22 
C 36.59375 10.671875 30.09375 5.265625 23.5 5.265625 
z
" id="CMSS17-111"/>
      <path d="M 40.90625 29.328125 
C 40.90625 35.671875 39.40625 44 28.09375 44 
C 21.703125 44 17.5 40.71875 14.703125 37.328125 
L 14.703125 43.09375 
L 7.40625 43.09375 
L 7.40625 0 
L 15 0 
L 15 24.359375 
C 15 30.6875 17.40625 37.9375 24.203125 37.9375 
C 33 37.9375 33.296875 32 33.296875 28.578125 
L 33.296875 0 
L 40.90625 0 
z
" id="CMSS17-110"/>
     </defs>
     <g transform="translate(271.264003 414.021553)scale(0.14 -0.14)">
      <use transform="scale(0.996264)" xlink:href="#CMSS17-73"/>
      <use transform="translate(25.783926 0)scale(0.996264)" xlink:href="#CMSS17-116"/>
      <use transform="translate(59.615492 0)scale(0.996264)" xlink:href="#CMSS17-101"/>
      <use transform="translate(101.254314 0)scale(0.996264)" xlink:href="#CMSS17-114"/>
      <use transform="translate(133.164087 0)scale(0.996264)" xlink:href="#CMSS17-97"/>
      <use transform="translate(178.086007 0)scale(0.996264)" xlink:href="#CMSS17-116"/>
      <use transform="translate(211.917574 0)scale(0.996264)" xlink:href="#CMSS17-105"/>
      <use transform="translate(234.098297 0)scale(0.996264)" xlink:href="#CMSS17-111"/>
      <use transform="translate(280.941921 0)scale(0.996264)" xlink:href="#CMSS17-110"/>
     </g>
    </g>
   </g>
   <g id="matplotlib.axis_2">
    <g id="ytick_1">
     <g id="line2d_13">
      <path clip-path="url(#p6608a61a3e)" d="M 72 374.879878 
L 518.4 374.879878 
" style="fill:none;stroke:#b0b0b0;stroke-dasharray:5.12,1.28,0.8,1.28;stroke-dashoffset:0;stroke-width:0.8;"/>
     </g>
     <g id="line2d_14">
      <defs>
       <path d="M 0 0 
L -3.5 0 
" id="m78a998ef2f" style="stroke:#000000;stroke-width:0.8;"/>
      </defs>
      <g>
       <use style="stroke:#000000;stroke-width:0.8;" x="72" xlink:href="#m78a998ef2f" y="374.879878"/>
      </g>
     </g>
     <g id="text_8">
      <!-- $-3000$ -->
      <defs>
       <path d="M 65.90625 23 
C 67.59375 23 69.40625 23 69.40625 25 
C 69.40625 27 67.59375 27 65.90625 27 
L 11.796875 27 
C 10.09375 27 8.296875 27 8.296875 25 
C 8.296875 23 10.09375 23 11.796875 23 
z
" id="CMSY10-0"/>
       <path d="M 22.09375 33.703125 
C 31 33.703125 34.90625 25.96875 34.90625 17.03125 
C 34.90625 5 28.5 0.390625 22.703125 0.390625 
C 17.40625 0.390625 8.796875 3.03125 6.09375 10.828125 
C 6.59375 10.625 7.09375 10.625 7.59375 10.625 
C 10 10.625 11.796875 12.21875 11.796875 14.8125 
C 11.796875 17.703125 9.59375 19 7.59375 19 
C 5.90625 19 3.296875 18.203125 3.296875 14.46875 
C 3.296875 5.234375 12.296875 -2 22.90625 -2 
C 34 -2 42.5 6.71875 42.5 16.953125 
C 42.5 26.671875 34.5 33.703125 25 34.796875 
C 32.59375 36.375 39.90625 43.0625 39.90625 52.015625 
C 39.90625 59.6875 32 65.296875 23 65.296875 
C 13.90625 65.296875 5.90625 59.828125 5.90625 52.015625 
C 5.90625 48.59375 8.5 48 9.796875 48 
C 11.90625 48 13.703125 49.296875 13.703125 51.890625 
C 13.703125 54.46875 11.90625 55.765625 9.796875 55.765625 
C 9.40625 55.765625 8.90625 55.765625 8.5 55.578125 
C 11.40625 61.859375 19.296875 63 22.796875 63 
C 26.296875 63 32.90625 61.328125 32.90625 51.875 
C 32.90625 49.109375 32.5 44.1875 29.09375 39.84375 
C 26.09375 36 22.703125 36 19.40625 35.6875 
C 18.90625 35.6875 16.59375 35.453125 16.203125 35.453125 
C 15.5 35.359375 15.09375 35.265625 15.09375 34.5 
C 15.09375 33.796875 15.203125 33.703125 17.203125 33.703125 
z
" id="CMR17-51"/>
      </defs>
      <g transform="translate(37.325915 378.339127)scale(0.1 -0.1)">
       <use transform="scale(0.996264)" xlink:href="#CMSY10-0"/>
       <use transform="translate(77.487468 0)scale(0.996264)" xlink:href="#CMR17-51"/>
       <use transform="translate(123.177945 0)scale(0.996264)" xlink:href="#CMR17-48"/>
       <use transform="translate(168.868422 0)scale(0.996264)" xlink:href="#CMR17-48"/>
       <use transform="translate(214.558899 0)scale(0.996264)" xlink:href="#CMR17-48"/>
      </g>
     </g>
    </g>
    <g id="ytick_2">
     <g id="line2d_15">
      <path clip-path="url(#p6608a61a3e)" d="M 72 335.67514 
L 518.4 335.67514 
" style="fill:none;stroke:#b0b0b0;stroke-dasharray:5.12,1.28,0.8,1.28;stroke-dashoffset:0;stroke-width:0.8;"/>
     </g>
     <g id="line2d_16">
      <g>
       <use style="stroke:#000000;stroke-width:0.8;" x="72" xlink:href="#m78a998ef2f" y="335.67514"/>
      </g>
     </g>
     <g id="text_9">
      <!-- $-2500$ -->
      <g transform="translate(37.325915 339.134389)scale(0.1 -0.1)">
       <use transform="scale(0.996264)" xlink:href="#CMSY10-0"/>
       <use transform="translate(77.487468 0)scale(0.996264)" xlink:href="#CMR17-50"/>
       <use transform="translate(123.177945 0)scale(0.996264)" xlink:href="#CMR17-53"/>
       <use transform="translate(168.868422 0)scale(0.996264)" xlink:href="#CMR17-48"/>
       <use transform="translate(214.558899 0)scale(0.996264)" xlink:href="#CMR17-48"/>
      </g>
     </g>
    </g>
    <g id="ytick_3">
     <g id="line2d_17">
      <path clip-path="url(#p6608a61a3e)" d="M 72 296.470402 
L 518.4 296.470402 
" style="fill:none;stroke:#b0b0b0;stroke-dasharray:5.12,1.28,0.8,1.28;stroke-dashoffset:0;stroke-width:0.8;"/>
     </g>
     <g id="line2d_18">
      <g>
       <use style="stroke:#000000;stroke-width:0.8;" x="72" xlink:href="#m78a998ef2f" y="296.470402"/>
      </g>
     </g>
     <g id="text_10">
      <!-- $-2000$ -->
      <g transform="translate(37.325915 299.929651)scale(0.1 -0.1)">
       <use transform="scale(0.996264)" xlink:href="#CMSY10-0"/>
       <use transform="translate(77.487468 0)scale(0.996264)" xlink:href="#CMR17-50"/>
       <use transform="translate(123.177945 0)scale(0.996264)" xlink:href="#CMR17-48"/>
       <use transform="translate(168.868422 0)scale(0.996264)" xlink:href="#CMR17-48"/>
       <use transform="translate(214.558899 0)scale(0.996264)" xlink:href="#CMR17-48"/>
      </g>
     </g>
    </g>
    <g id="ytick_4">
     <g id="line2d_19">
      <path clip-path="url(#p6608a61a3e)" d="M 72 257.265664 
L 518.4 257.265664 
" style="fill:none;stroke:#b0b0b0;stroke-dasharray:5.12,1.28,0.8,1.28;stroke-dashoffset:0;stroke-width:0.8;"/>
     </g>
     <g id="line2d_20">
      <g>
       <use style="stroke:#000000;stroke-width:0.8;" x="72" xlink:href="#m78a998ef2f" y="257.265664"/>
      </g>
     </g>
     <g id="text_11">
      <!-- $-1500$ -->
      <g transform="translate(37.325915 260.724913)scale(0.1 -0.1)">
       <use transform="scale(0.996264)" xlink:href="#CMSY10-0"/>
       <use transform="translate(77.487468 0)scale(0.996264)" xlink:href="#CMR17-49"/>
       <use transform="translate(123.177945 0)scale(0.996264)" xlink:href="#CMR17-53"/>
       <use transform="translate(168.868422 0)scale(0.996264)" xlink:href="#CMR17-48"/>
       <use transform="translate(214.558899 0)scale(0.996264)" xlink:href="#CMR17-48"/>
      </g>
     </g>
    </g>
    <g id="ytick_5">
     <g id="line2d_21">
      <path clip-path="url(#p6608a61a3e)" d="M 72 218.060926 
L 518.4 218.060926 
" style="fill:none;stroke:#b0b0b0;stroke-dasharray:5.12,1.28,0.8,1.28;stroke-dashoffset:0;stroke-width:0.8;"/>
     </g>
     <g id="line2d_22">
      <g>
       <use style="stroke:#000000;stroke-width:0.8;" x="72" xlink:href="#m78a998ef2f" y="218.060926"/>
      </g>
     </g>
     <g id="text_12">
      <!-- $-1000$ -->
      <g transform="translate(37.325915 221.520175)scale(0.1 -0.1)">
       <use transform="scale(0.996264)" xlink:href="#CMSY10-0"/>
       <use transform="translate(77.487468 0)scale(0.996264)" xlink:href="#CMR17-49"/>
       <use transform="translate(123.177945 0)scale(0.996264)" xlink:href="#CMR17-48"/>
       <use transform="translate(168.868422 0)scale(0.996264)" xlink:href="#CMR17-48"/>
       <use transform="translate(214.558899 0)scale(0.996264)" xlink:href="#CMR17-48"/>
      </g>
     </g>
    </g>
    <g id="ytick_6">
     <g id="line2d_23">
      <path clip-path="url(#p6608a61a3e)" d="M 72 178.856188 
L 518.4 178.856188 
" style="fill:none;stroke:#b0b0b0;stroke-dasharray:5.12,1.28,0.8,1.28;stroke-dashoffset:0;stroke-width:0.8;"/>
     </g>
     <g id="line2d_24">
      <g>
       <use style="stroke:#000000;stroke-width:0.8;" x="72" xlink:href="#m78a998ef2f" y="178.856188"/>
      </g>
     </g>
     <g id="text_13">
      <!-- $-500$ -->
      <g transform="translate(42.307251 182.315437)scale(0.1 -0.1)">
       <use transform="scale(0.996264)" xlink:href="#CMSY10-0"/>
       <use transform="translate(77.487468 0)scale(0.996264)" xlink:href="#CMR17-53"/>
       <use transform="translate(123.177945 0)scale(0.996264)" xlink:href="#CMR17-48"/>
       <use transform="translate(168.868422 0)scale(0.996264)" xlink:href="#CMR17-48"/>
      </g>
     </g>
    </g>
    <g id="ytick_7">
     <g id="line2d_25">
      <path clip-path="url(#p6608a61a3e)" d="M 72 139.651449 
L 518.4 139.651449 
" style="fill:none;stroke:#b0b0b0;stroke-dasharray:5.12,1.28,0.8,1.28;stroke-dashoffset:0;stroke-width:0.8;"/>
     </g>
     <g id="line2d_26">
      <g>
       <use style="stroke:#000000;stroke-width:0.8;" x="72" xlink:href="#m78a998ef2f" y="139.651449"/>
      </g>
     </g>
     <g id="text_14">
      <!-- $0$ -->
      <g transform="translate(60.018665 143.110699)scale(0.1 -0.1)">
       <use transform="scale(0.996264)" xlink:href="#CMR17-48"/>
      </g>
     </g>
    </g>
    <g id="ytick_8">
     <g id="line2d_27">
      <path clip-path="url(#p6608a61a3e)" d="M 72 100.446711 
L 518.4 100.446711 
" style="fill:none;stroke:#b0b0b0;stroke-dasharray:5.12,1.28,0.8,1.28;stroke-dashoffset:0;stroke-width:0.8;"/>
     </g>
     <g id="line2d_28">
      <g>
       <use style="stroke:#000000;stroke-width:0.8;" x="72" xlink:href="#m78a998ef2f" y="100.446711"/>
      </g>
     </g>
     <g id="text_15">
      <!-- $500$ -->
      <g transform="translate(50.055994 103.905961)scale(0.1 -0.1)">
       <use transform="scale(0.996264)" xlink:href="#CMR17-53"/>
       <use transform="translate(45.690477 0)scale(0.996264)" xlink:href="#CMR17-48"/>
       <use transform="translate(91.380954 0)scale(0.996264)" xlink:href="#CMR17-48"/>
      </g>
     </g>
    </g>
    <g id="ytick_9">
     <g id="line2d_29">
      <path clip-path="url(#p6608a61a3e)" d="M 72 61.241973 
L 518.4 61.241973 
" style="fill:none;stroke:#b0b0b0;stroke-dasharray:5.12,1.28,0.8,1.28;stroke-dashoffset:0;stroke-width:0.8;"/>
     </g>
     <g id="line2d_30">
      <g>
       <use style="stroke:#000000;stroke-width:0.8;" x="72" xlink:href="#m78a998ef2f" y="61.241973"/>
      </g>
     </g>
     <g id="text_16">
      <!-- $1000$ -->
      <g transform="translate(45.074659 64.701222)scale(0.1 -0.1)">
       <use transform="scale(0.996264)" xlink:href="#CMR17-49"/>
       <use transform="translate(45.690477 0)scale(0.996264)" xlink:href="#CMR17-48"/>
       <use transform="translate(91.380954 0)scale(0.996264)" xlink:href="#CMR17-48"/>
       <use transform="translate(137.071431 0)scale(0.996264)" xlink:href="#CMR17-48"/>
      </g>
     </g>
    </g>
    <g id="text_17">
     <!-- $\partial \mathcal{L}/ \partial u_{m}[m.u/V]$ -->
     <defs>
      <path d="M 45.40625 33.515625 
C 44.796875 39.125 41.296875 45.859375 32.296875 45.859375 
C 18.203125 45.859375 3.796875 31.515625 3.796875 15.5625 
C 3.796875 9.4375 8 -2.09375 21.59375 -2.09375 
C 45.203125 -2.09375 55.296875 32.296875 55.296875 46 
C 55.296875 60.40625 47.203125 71.5 34.40625 71.5 
C 19.90625 71.5 15.59375 58.796875 15.59375 56.09375 
C 15.59375 55.203125 16.203125 53 19 53 
C 22.5 53 24 56.203125 24 57.90625 
C 24 61 20.90625 61 19.59375 61 
C 23.703125 68.40625 31.296875 69.09375 34 69.09375 
C 42.796875 69.09375 48.40625 62.109375 48.40625 50.96875 
C 48.40625 44.578125 46.5 37.1875 45.5 33.515625 
z
M 21.90625 0.59375 
C 12.5 0.59375 10.90625 8.03125 10.90625 12.25 
C 10.90625 16.65625 13.703125 27 15.203125 30.703125 
C 16.5 33.71875 22.203125 43.859375 32.59375 43.859375 
C 41.703125 43.859375 43.796875 35.921875 43.796875 30.515625 
C 43.796875 23.078125 37.296875 0.59375 21.90625 0.59375 
z
" id="CMMI12-64"/>
      <path d="M 18 9.53125 
C 23.40625 17.984375 25.09375 24.40625 26.40625 29.734375 
C 29.90625 43.59375 33.703125 55.65625 39.90625 62.578125 
C 41.09375 63.90625 41.90625 64.796875 45.09375 64.796875 
C 52 64.796875 52.203125 57.875 52.203125 56.453125 
C 52.203125 54.65625 51.703125 53.234375 51.703125 52.734375 
C 51.703125 52.03125 52.296875 52.03125 52.40625 52.03125 
C 54 52.03125 56.703125 53.140625 59.203125 54.953125 
C 61 56.359375 61.90625 57.359375 61.90625 61.46875 
C 61.90625 66.890625 59.09375 71 53.5 71 
C 50.296875 71 41.5 70.203125 31.703125 60.25 
C 23.703125 52.015625 19 33.9375 17.09375 26.40625 
C 15.296875 19.5 14.5 16.375 11.5 10.34375 
C 10.796875 9.15625 8.203125 4.734375 6.796875 3.421875 
C 4.09375 0.921875 3.09375 -0.890625 3.09375 -1.390625 
C 3.09375 -1.59375 3.296875 -2 4 -2 
C 4.40625 -2 6.5 -1.59375 9.09375 0.078125 
C 10.796875 1.0625 11 1.25 13.296875 3.609375 
C 18.296875 3.609375 21.796875 2.703125 28.09375 0.90625 
C 33.203125 -0.5 38.296875 -2 43.40625 -2 
C 51.5 -2 59.703125 4.125 62.90625 8.53125 
C 64.90625 11.234375 65.5 13.75 65.5 14.046875 
C 65.5 14.75 64.90625 14.75 64.796875 14.75 
C 63.203125 14.75 60.796875 13.65625 59.09375 12.4375 
C 56.40625 10.734375 56.203125 10.140625 55.59375 8.421875 
C 55.09375 6.8125 54.5 6.015625 54.09375 5.40625 
C 53.296875 4.203125 53.203125 4.203125 51.703125 4.203125 
C 46.90625 4.203125 41.90625 5.71875 35.296875 7.515625 
C 32.5 8.3125 27 9.9375 22 9.9375 
C 20.703125 9.9375 19.296875 9.828125 18 9.53125 
z
" id="CMSY10-76"/>
      <path d="M 42.90625 71.28125 
C 42.90625 71.390625 43.5 72.90625 43.5 73.09375 
C 43.5 74.296875 42.5 75 41.703125 75 
C 41.203125 75 40.296875 75 39.5 72.796875 
L 6 -21.296875 
C 6 -21.40625 5.40625 -22.890625 5.40625 -23.09375 
C 5.40625 -24.296875 6.40625 -25 7.203125 -25 
C 7.796875 -25 8.703125 -24.890625 9.40625 -22.796875 
z
" id="CMMI12-61"/>
      <path d="M 34.09375 5.78125 
C 35.40625 0.203125 40.203125 -1 42.59375 -1 
C 45.796875 -1 48.203125 1.09375 49.796875 4.484375 
C 51.5 8.078125 52.796875 13.96875 52.796875 14.265625 
C 52.796875 14.765625 52.40625 15.171875 51.796875 15.171875 
C 50.90625 15.171875 50.796875 14.671875 50.40625 13.171875 
C 48.59375 6.28125 46.796875 1 42.796875 1 
C 39.796875 1 39.796875 4.296875 39.796875 5.59375 
C 39.796875 7.890625 40.09375 8.875 41.09375 13.078125 
C 41.796875 15.765625 42.5 18.453125 43.09375 21.25 
L 47.203125 37.515625 
C 47.90625 40.015625 47.90625 40.21875 47.90625 40.515625 
C 47.90625 42.015625 46.703125 43.015625 45.203125 43.015625 
C 42.296875 43.015625 41.59375 40.515625 41 38.015625 
C 40 34.125 34.59375 12.671875 33.90625 9.1875 
C 33.796875 9.1875 29.90625 1 22.59375 1 
C 17.40625 1 16.40625 5.484375 16.40625 9.1875 
C 16.40625 14.875 19.203125 22.84375 21.796875 29.53125 
C 23 32.734375 23.5 34.03125 23.5 36.015625 
C 23.5 40.3125 20.40625 44 15.59375 44 
C 6.40625 44 2.703125 29.53125 2.703125 28.734375 
C 2.703125 28.34375 3.09375 27.84375 3.796875 27.84375 
C 4.703125 27.84375 4.796875 28.234375 5.203125 29.625 
C 7.59375 38.140625 11.5 41.90625 15.296875 41.90625 
C 16.296875 41.90625 17.90625 41.90625 17.90625 38.71875 
C 17.90625 36.125 16.796875 33.234375 15.296875 29.4375 
C 10.90625 17.5625 10.40625 13.765625 10.40625 10.78125 
C 10.40625 0.59375 18.09375 -1 22.203125 -1 
C 28.59375 -1 32.09375 3.390625 34.09375 5.78125 
z
" id="CMMI12-117"/>
      <path d="M 20.59375 29.234375 
C 20.796875 29.84375 23.296875 34.828125 27 38.015625 
C 29.59375 40.40625 33 42.015625 36.90625 42.015625 
C 40.90625 42.015625 42.296875 39.015625 42.296875 35.03125 
C 42.296875 34.421875 42.296875 32.4375 41.09375 27.734375 
L 38.59375 17.46875 
C 37.796875 14.46875 35.90625 7.078125 35.703125 5.984375 
C 35.296875 4.484375 34.703125 1.890625 34.703125 1.5 
C 34.703125 0.09375 35.796875 -1 37.296875 -1 
C 40.296875 -1 40.796875 1.296875 41.703125 4.890625 
L 47.703125 28.734375 
C 47.90625 29.53125 53.09375 42.015625 64.09375 42.015625 
C 68.09375 42.015625 69.5 39.015625 69.5 35.03125 
C 69.5 29.4375 65.59375 18.5625 63.40625 12.578125 
C 62.5 10.171875 62 8.875 62 7.078125 
C 62 2.59375 65.09375 -1 69.90625 -1 
C 79.203125 -1 82.703125 13.671875 82.703125 14.265625 
C 82.703125 14.765625 82.296875 15.171875 81.703125 15.171875 
C 80.796875 15.171875 80.703125 14.875 80.203125 13.171875 
C 77.90625 5.1875 74.203125 1 70.203125 1 
C 69.203125 1 67.59375 1 67.59375 4.203125 
C 67.59375 6.8125 68.796875 10 69.203125 11.09375 
C 71 15.90625 75.5 27.703125 75.5 33.515625 
C 75.5 39.5 72 44 64.40625 44 
C 57.703125 44 52.296875 40.21875 48.296875 34.328125 
C 48 39.71875 44.703125 44 37.203125 44 
C 28.296875 44 23.59375 37.734375 21.796875 35.234375 
C 21.5 40.90625 17.40625 44 13 44 
C 10.09375 44 7.796875 42.609375 5.90625 38.8125 
C 4.09375 35.21875 2.703125 29.140625 2.703125 28.734375 
C 2.703125 28.34375 3.09375 27.84375 3.796875 27.84375 
C 4.59375 27.84375 4.703125 27.9375 5.296875 30.234375 
C 6.796875 36.125 8.703125 42.015625 12.703125 42.015625 
C 15 42.015625 15.796875 40.40625 15.796875 37.421875 
C 15.796875 35.21875 14.796875 31.328125 14.09375 28.234375 
L 11.296875 17.46875 
C 10.90625 15.5625 9.796875 11.078125 9.296875 9.28125 
C 8.59375 6.6875 7.5 2 7.5 1.5 
C 7.5 0.09375 8.59375 -1 10.09375 -1 
C 11.296875 -1 12.703125 -0.40625 13.5 1.09375 
C 13.703125 1.59375 14.59375 5.09375 15.09375 7.078125 
L 17.296875 16.0625 
z
" id="CMMI12-109"/>
      <path d="M 23.5 -25 
L 23.5 -21.515625 
L 14.09375 -21.515625 
L 14.09375 71 
L 23.5 71 
L 23.5 74.484375 
L 10.59375 74.484375 
L 10.59375 -25 
z
" id="CMR17-91"/>
      <path d="M 18.40625 4.796875 
C 18.40625 7.6875 16 9.671875 13.59375 9.671875 
C 10.703125 9.671875 8.703125 7.28125 8.703125 4.890625 
C 8.703125 2 11.09375 0 13.5 0 
C 16.40625 0 18.40625 2.390625 18.40625 4.796875 
z
" id="CMMI12-58"/>
      <path d="M 61.90625 56.875 
C 65.296875 62.25 68.40625 64.625 73.5 65.03125 
C 74.5 65.125 75.296875 65.125 75.296875 66.90625 
C 75.296875 67.3125 75.09375 67.90625 74.203125 67.90625 
C 72.40625 67.90625 68.09375 67.90625 66.296875 67.90625 
C 63.40625 67.90625 60.40625 67.90625 57.59375 67.90625 
C 56.796875 67.90625 55.796875 67.90625 55.796875 66.03125 
C 55.796875 65.125 56.703125 65.03125 57.09375 65.03125 
C 60.796875 64.734375 61.203125 62.953125 61.203125 61.75 
C 61.203125 60.265625 59.796875 57.96875 59.703125 57.875 
L 28.296875 8.4375 
L 21.296875 62.015625 
C 21.296875 65 26.5 65 27.59375 65 
C 29.09375 65 30 65 30 66.90625 
C 30 67.90625 28.90625 67.90625 28.59375 67.90625 
C 26.90625 67.90625 24.90625 67.90625 23.203125 67.90625 
L 17.59375 67.90625 
C 10.296875 67.90625 7.296875 67.90625 7.203125 67.90625 
C 6.59375 67.90625 5.40625 67.90625 5.40625 66.09375 
C 5.40625 65 6.09375 65 7.703125 65 
C 12.796875 65 13.09375 64.09375 13.40625 61.625 
L 21.40625 0.375 
C 21.703125 -1.703125 21.703125 -2 23.09375 -2 
C 24.296875 -2 24.796875 -1.703125 25.796875 -0.125 
z
" id="CMMI12-86"/>
      <path d="M 14.296875 74.484375 
L 1.40625 74.484375 
L 1.40625 71 
L 10.796875 71 
L 10.796875 -21.515625 
L 1.40625 -21.515625 
L 1.40625 -25 
L 14.296875 -25 
z
" id="CMR17-93"/>
     </defs>
     <g transform="translate(30.613887 267.370435)rotate(-90)scale(0.14 -0.14)">
      <use transform="translate(0 14.943915)scale(0.996264)" xlink:href="#CMMI12-64"/>
      <use transform="translate(56.915564 14.943915)scale(0.996264)" xlink:href="#CMSY10-76"/>
      <use transform="translate(125.630372 14.943915)scale(0.996264)" xlink:href="#CMMI12-61"/>
      <use transform="translate(174.405291 14.943915)scale(0.996264)" xlink:href="#CMMI12-64"/>
      <use transform="translate(231.320856 14.943915)scale(0.996264)" xlink:href="#CMMI12-117"/>
      <use transform="translate(286.841185 0)scale(0.697382)" xlink:href="#CMMI12-109"/>
      <use transform="translate(347.068108 14.943915)scale(0.996264)" xlink:href="#CMR17-91"/>
      <use transform="translate(371.939167 14.943915)scale(0.996264)" xlink:href="#CMMI12-109"/>
      <use transform="translate(457.266391 14.943915)scale(0.996264)" xlink:href="#CMMI12-58"/>
      <use transform="translate(484.363568 14.943915)scale(0.996264)" xlink:href="#CMMI12-117"/>
      <use transform="translate(539.883898 14.943915)scale(0.996264)" xlink:href="#CMMI12-61"/>
      <use transform="translate(588.658817 14.943915)scale(0.996264)" xlink:href="#CMMI12-86"/>
      <use transform="translate(667.206137 14.943915)scale(0.996264)" xlink:href="#CMR17-93"/>
     </g>
    </g>
   </g>
   <g id="line2d_31">
    <path clip-path="url(#p6608a61a3e)" d="M 92.290909 139.651449 
L 94.750413 139.750826 
L 95.76315 139.975555 
L 96.775887 140.427962 
L 98.077978 141.093807 
L 99.090715 141.15227 
L 103.865046 141.277827 
L 104.877783 139.954118 
L 105.45649 139.744255 
L 106.613904 139.659863 
L 114.426446 139.651449 
L 116.45192 139.654813 
L 120.936898 139.487291 
L 121.370929 139.485825 
L 122.962372 140.00401 
L 123.396403 140.733751 
L 123.541079 140.739185 
L 124.264463 139.121307 
L 124.553816 139.11327 
L 124.84317 139.418401 
L 125.421877 139.68515 
L 125.855907 140.231311 
L 126.000583 140.301605 
L 126.289937 139.870878 
L 126.723967 139.370712 
L 127.01332 139.336792 
L 127.736704 139.597888 
L 128.315411 140.056262 
L 128.460088 140.048923 
L 129.183471 139.487088 
L 129.617501 139.503914 
L 130.919592 139.748803 
L 132.077005 139.647474 
L 138.587457 139.658522 
L 143.795819 139.544648 
L 145.387263 139.533482 
L 146.4 139.889461 
L 146.689353 139.729655 
L 147.123384 139.475938 
L 147.557414 139.447185 
L 147.846767 139.570319 
L 148.570151 140.102257 
L 148.859504 139.795041 
L 149.293534 139.419412 
L 149.872241 139.417679 
L 150.306271 139.644902 
L 150.884978 140.081447 
L 151.174332 139.851331 
L 151.608362 139.465548 
L 152.042392 139.438058 
L 152.621099 139.590565 
L 153.344482 139.978621 
L 154.212543 139.493635 
L 155.080603 139.621278 
L 155.803986 139.82486 
L 156.816723 139.583421 
L 159.710258 139.657479 
L 172.441808 139.76363 
L 173.020515 139.70763 
L 173.599222 139.546883 
L 174.177929 139.599997 
L 175.045989 139.843263 
L 175.624696 139.537466 
L 176.34808 139.545228 
L 177.505493 139.780025 
L 177.939524 139.56211 
L 178.51823 139.546945 
L 179.241614 139.705309 
L 179.675644 139.824774 
L 181.122411 139.596547 
L 182.713855 139.634529 
L 183.726592 139.641405 
L 186.04142 139.654641 
L 201.087798 139.754589 
L 201.521828 139.706297 
L 202.100535 139.582504 
L 203.113272 139.673796 
L 203.691979 139.762501 
L 204.704716 139.592141 
L 205.862129 139.729153 
L 206.296159 139.691791 
L 207.019543 139.607399 
L 212.517258 139.653112 
L 496.807 139.651418 
L 496.807 139.651418 
" style="fill:none;stroke:#bf00bf;stroke-linecap:square;stroke-width:1.5;"/>
   </g>
   <g id="line2d_32">
    <path clip-path="url(#p6608a61a3e)" d="M 92.290909 139.651449 
L 94.46106 139.751077 
L 95.32912 139.932767 
L 96.341857 140.391823 
L 97.354594 141.088632 
L 98.077978 141.759222 
L 99.524745 144.61535 
L 100.826835 147.866081 
L 102.273602 152.113028 
L 103.865046 157.481553 
L 104.1544 158.394804 
L 104.443753 158.468916 
L 104.733106 158.16831 
L 105.311813 156.979309 
L 108.205348 150.18283 
L 109.652115 147.535789 
L 111.098882 145.365979 
L 112.545649 143.608886 
L 113.269033 142.936642 
L 114.137093 142.488508 
L 115.14983 142.229263 
L 115.728537 142.265496 
L 116.307244 142.583689 
L 116.45192 142.706824 
L 117.175304 143.468925 
L 121.226252 137.032926 
L 121.370929 137.007106 
L 123.396403 141.429102 
L 123.541079 141.377391 
L 123.685756 141.149964 
L 124.264463 139.521345 
L 124.553816 139.043847 
L 124.84317 138.913052 
L 124.987846 138.988395 
L 125.2772 139.503718 
L 125.855907 140.689999 
L 126.14526 140.650747 
L 127.01332 139.427747 
L 127.302674 139.321894 
L 127.592027 139.476338 
L 128.460088 140.376627 
L 128.749441 140.175695 
L 129.472825 139.635846 
L 129.906855 139.580591 
L 130.630238 139.819371 
L 131.208945 139.886529 
L 133.379096 139.944897 
L 137.57472 140.130045 
L 142.783082 140.206024 
L 143.940496 139.788007 
L 144.953233 139.367952 
L 145.242586 139.442951 
L 146.255323 140.026655 
L 146.544677 139.931567 
L 147.412737 139.281074 
L 147.70209 139.425787 
L 148.570151 140.39859 
L 148.859504 140.146982 
L 149.582888 139.357712 
L 149.872241 139.314179 
L 150.161595 139.544452 
L 150.884978 140.385629 
L 151.174332 140.219322 
L 151.897715 139.486852 
L 152.187069 139.391271 
L 152.476422 139.490898 
L 153.344482 140.203484 
L 153.633836 140.045849 
L 154.357219 139.56799 
L 154.791249 139.523164 
L 155.22528 139.727397 
L 155.65931 139.952848 
L 156.09334 139.896487 
L 157.106077 139.655895 
L 158.552844 139.76432 
L 163.761206 139.888842 
L 169.548274 139.875818 
L 171.718425 139.582034 
L 172.586485 139.852444 
L 173.020515 139.750763 
L 173.599222 139.485339 
L 174.033252 139.52474 
L 175.045989 140.010534 
L 176.203403 139.470771 
L 176.637433 139.674227 
L 177.21614 140.033837 
L 177.505493 139.969604 
L 178.373554 139.534416 
L 178.807584 139.552701 
L 179.820321 139.932508 
L 180.977735 139.577799 
L 181.556441 139.679206 
L 182.135148 139.817082 
L 183.003209 139.684719 
L 184.015946 139.666708 
L 187.34351 139.74242 
L 195.879436 139.769652 
L 198.194263 139.646016 
L 198.917647 139.757412 
L 199.496354 139.662591 
L 200.219737 139.558127 
L 200.798444 139.745321 
L 201.232474 139.854946 
L 201.811181 139.697248 
L 202.534565 139.556692 
L 203.113272 139.720128 
L 203.691979 139.846587 
L 205.283422 139.62933 
L 206.151483 139.80071 
L 207.59825 139.622642 
L 209.045017 139.69452 
L 210.491784 139.662991 
L 215.844823 139.713291 
L 223.368012 139.643514 
L 224.525425 139.649191 
L 225.538162 139.696535 
L 226.840253 139.638261 
L 227.708313 139.751633 
L 229.15508 139.628726 
L 230.167817 139.740734 
L 231.469908 139.62323 
L 232.916675 139.681865 
L 234.074088 139.64589 
L 235.520856 139.666849 
L 237.98036 139.669327 
L 273.715508 139.678728 
L 305.833738 139.650477 
L 309.30598 139.660137 
L 313.790958 139.658671 
L 346.632572 139.653935 
L 498.109091 139.651536 
L 498.109091 139.651536 
" style="fill:none;stroke:#00bfbf;stroke-linecap:square;stroke-width:1.5;"/>
   </g>
   <g id="line2d_33">
    <path clip-path="url(#p6608a61a3e)" d="M 92.290909 139.651449 
L 92.435586 139.651449 
L 92.580263 139.651528 
L 92.724939 142.203043 
L 93.158969 143.130117 
L 93.448323 143.246273 
L 93.882353 143.183593 
L 94.02703 143.061093 
L 94.171706 142.552349 
L 94.89509 152.405425 
L 99.090715 219.674828 
L 100.826835 241.859237 
L 102.562956 261.07006 
L 104.1544 276.356395 
L 105.89052 290.733134 
L 107.626641 303.188291 
L 109.362761 313.975161 
L 111.098882 323.31627 
L 112.690326 330.774007 
L 113.413709 346.511549 
L 113.992416 353.458323 
L 114.571123 357.900581 
L 115.294507 361.574754 
L 115.58386 363.121766 
L 116.307244 368.882816 
L 116.45192 369.36 
L 120.647545 71.316728 
L 120.936898 71.065426 
L 121.370929 70.37743 
L 123.107049 66.96 
L 123.830433 91.891391 
L 124.40914 102.315546 
L 125.132523 110.556516 
L 126.289937 120.489569 
L 128.460088 136.309653 
L 130.630238 150.596456 
L 132.366359 160.653671 
L 133.957803 168.570464 
L 135.259893 174.025466 
L 136.417307 178.060308 
L 137.57472 181.307723 
L 138.587457 183.495284 
L 139.455518 184.883516 
L 139.744871 185.305453 
L 140.757608 187.568688 
L 140.902285 187.607814 
L 141.046962 187.510163 
L 141.336315 186.836931 
L 141.625668 185.430187 
L 142.059699 181.752994 
L 142.493729 176.049716 
L 143.072436 165.324978 
L 143.940496 143.93779 
L 145.387263 106.983694 
L 145.821293 99.807784 
L 146.110647 96.950629 
L 146.255323 96.182247 
L 146.544677 102.501863 
L 146.978707 107.066455 
L 147.557414 110.812868 
L 148.425474 114.666137 
L 149.727564 119.175121 
L 151.319008 124.735027 
L 157.39543 145.657184 
L 159.276228 151.105012 
L 160.867671 155.041356 
L 162.314439 158.007163 
L 163.471852 159.927568 
L 164.339912 161.09365 
L 166.510063 163.315343 
L 167.08877 163.964801 
L 167.378123 163.988206 
L 167.667477 163.704121 
L 167.95683 163.049849 
L 168.39086 161.272118 
L 168.824891 158.458182 
L 169.403597 153.097012 
L 170.271658 142.274905 
L 171.718425 123.253048 
L 172.297132 118.576104 
L 172.586485 117.464681 
L 172.875839 120.520659 
L 173.454545 123.445904 
L 174.033252 125.146865 
L 175.045989 127.261788 
L 184.884006 144.379 
L 186.620126 146.810117 
L 188.21157 148.676192 
L 189.658337 150.033962 
L 190.960428 150.961138 
L 192.117842 151.542827 
L 192.696548 151.857312 
L 193.419932 152.327361 
L 193.853962 152.302419 
L 194.143316 152.071511 
L 194.577346 151.330047 
L 195.011376 150.058488 
L 195.590083 147.509138 
L 196.313466 143.111503 
L 198.33894 129.686867 
L 198.77297 128.286388 
L 198.917647 128.049058 
L 199.207 129.641774 
L 199.785707 131.164055 
L 200.364414 132.046107 
L 201.521828 133.271788 
L 206.874866 138.221974 
L 210.491784 141.508256 
L 212.661935 143.194123 
L 214.542732 144.3924 
L 216.278853 145.242947 
L 217.870297 145.788034 
L 220.185124 146.335998 
L 220.619154 146.11174 
L 221.053184 145.6272 
L 221.631891 144.532628 
L 222.210598 142.935772 
L 223.078658 139.834097 
L 224.380749 135.115618 
L 224.959456 133.815291 
L 225.248809 133.505872 
L 225.538162 134.372806 
L 226.116869 135.168231 
L 226.840253 135.720383 
L 228.28702 136.474768 
L 232.916675 138.73805 
L 237.54633 140.945661 
L 240.15051 141.939375 
L 242.465338 142.590707 
L 244.635489 142.972679 
L 246.805639 143.138915 
L 247.384346 142.822078 
L 247.963053 142.233991 
L 248.686437 141.128331 
L 249.84385 138.826503 
L 250.856587 137.005875 
L 251.435294 136.436684 
L 251.579971 136.374231 
L 251.869324 136.856136 
L 252.448031 137.272624 
L 253.460768 137.652863 
L 255.775596 138.242008 
L 264.745552 140.533235 
L 268.073116 141.126002 
L 270.96665 141.42479 
L 273.281478 141.479621 
L 274.004861 141.196524 
L 274.728245 140.686008 
L 275.740982 139.671554 
L 277.187749 138.227134 
L 277.766456 137.93062 
L 277.911133 137.911622 
L 278.200486 138.168326 
L 279.068546 138.45692 
L 281.238697 138.788334 
L 296.140399 140.550187 
L 299.61264 140.626071 
L 300.625377 140.375208 
L 301.78279 139.818454 
L 303.663588 138.831459 
L 304.242295 138.734968 
L 304.676325 138.899009 
L 305.978415 139.071235 
L 314.948371 139.741809 
L 321.6035 140.106428 
L 326.088478 140.159778 
L 327.390569 139.937464 
L 330.573456 139.168533 
L 331.29684 139.280596 
L 334.335051 139.421247 
L 351.262227 139.942223 
L 353.287701 139.854475 
L 357.772679 139.459974 
L 365.151191 139.625606 
L 378.461449 139.802631 
L 381.06563 139.64571 
L 383.525134 139.532847 
L 388.733495 139.605611 
L 406.239378 139.698519 
L 411.592416 139.606325 
L 433.87263 139.644957 
L 438.646962 139.629683 
L 484.94351 139.65991 
L 496.807 139.650407 
L 496.807 139.650407 
" style="fill:none;stroke:#ff0000;stroke-linecap:square;stroke-width:1.5;"/>
   </g>
   <g id="line2d_34">
    <path clip-path="url(#p6608a61a3e)" d="M 92.290909 139.651449 
L 92.435586 139.651449 
L 92.580263 139.651449 
L 92.724939 138.351562 
L 92.869616 138.310655 
L 93.303646 137.727085 
L 93.737676 137.566518 
L 94.02703 137.550428 
L 94.171706 137.776334 
L 94.316383 138.313611 
L 94.750413 144.20065 
L 99.090715 213.323605 
L 100.682158 233.315921 
L 102.273602 250.761402 
L 104.009723 267.297239 
L 105.601167 280.302109 
L 107.337287 292.646035 
L 109.073408 303.333474 
L 110.809528 312.592833 
L 112.545649 320.618921 
L 112.835002 321.848782 
L 113.269033 319.58038 
L 113.558386 319.041644 
L 113.847739 319.020442 
L 114.28177 319.460672 
L 115.294507 320.818277 
L 115.439183 322.071331 
L 116.01789 336.541306 
L 116.45192 343.196749 
L 116.596597 344.513425 
L 117.175304 343.953432 
L 120.647545 76.894826 
L 121.226252 73.577038 
L 121.370929 72.938566 
L 123.107049 67.04763 
L 123.396403 126.912873 
L 123.685756 120.514135 
L 123.975109 117.275565 
L 124.264463 115.75918 
L 124.553816 115.359206 
L 124.698493 115.439458 
L 124.987846 116.009542 
L 125.421877 117.548555 
L 126.14526 121.143457 
L 128.604764 134.944168 
L 130.919592 147.23817 
L 132.655712 155.355229 
L 134.247156 161.746432 
L 135.549246 166.146678 
L 136.851337 169.759575 
L 138.008751 172.293887 
L 139.021488 173.98514 
L 139.600194 174.731841 
L 139.744871 175.287247 
L 140.323578 179.369017 
L 140.757608 181.280601 
L 141.046962 181.934159 
L 141.191638 182.044411 
L 141.336315 181.995429 
L 141.625668 181.37597 
L 141.915022 179.994889 
L 142.349052 176.360877 
L 142.783082 170.763491 
L 143.361789 160.358702 
L 144.229849 139.975006 
L 145.53194 108.709251 
L 146.110647 100.023747 
L 146.255323 98.755717 
L 146.4 126.717305 
L 146.689353 122.51705 
L 147.123384 120.147492 
L 147.412737 119.462703 
L 147.70209 119.216238 
L 147.991444 119.277343 
L 148.425474 119.78045 
L 149.293534 121.456037 
L 150.595625 124.573182 
L 155.65931 138.535675 
L 157.684784 143.800205 
L 159.565581 148.14783 
L 161.157025 151.302016 
L 162.603792 153.688212 
L 163.905882 155.412068 
L 164.484589 156.044432 
L 166.076033 157.370478 
L 166.65474 159.594931 
L 167.08877 160.662327 
L 167.378123 161.057189 
L 167.667477 161.151234 
L 167.95683 160.899484 
L 168.246184 160.260134 
L 168.680214 158.503534 
L 169.114244 155.740086 
L 169.692951 150.535108 
L 170.561011 140.21163 
L 172.007778 122.714493 
L 172.441808 119.50615 
L 172.586485 118.812477 
L 172.731162 130.699338 
L 172.875839 131.878891 
L 173.165192 130.505431 
L 173.599222 129.53647 
L 174.033252 129.218998 
L 174.467282 129.273963 
L 175.045989 129.69256 
L 176.058726 130.753503 
L 177.360817 132.403513 
L 180.543704 136.857649 
L 184.015946 141.626137 
L 186.186096 144.229473 
L 187.922217 145.985485 
L 189.513661 147.290924 
L 190.960428 148.20078 
L 192.262518 148.783276 
L 192.407195 148.833952 
L 193.130579 150.226245 
L 193.564609 150.708236 
L 193.998639 150.860272 
L 194.287992 150.74029 
L 194.577346 150.41747 
L 195.011376 149.515652 
L 195.445406 148.086176 
L 196.024113 145.381826 
L 196.892173 139.996961 
L 198.33894 130.820206 
L 198.77297 129.123895 
L 198.917647 128.75479 
L 199.062324 134.760784 
L 199.207 135.631897 
L 199.496354 134.891728 
L 199.930384 134.374696 
L 200.364414 134.200501 
L 200.943121 134.259826 
L 201.811181 134.647749 
L 203.402625 135.622771 
L 212.661935 142.113389 
L 214.832086 143.236597 
L 216.712883 143.972431 
L 218.59368 144.464153 
L 218.738357 144.491517 
L 219.46174 145.234439 
L 220.040447 145.539593 
L 220.474477 145.553096 
L 220.908508 145.337101 
L 221.342538 144.858474 
L 221.921245 143.785409 
L 222.644628 141.790562 
L 223.946719 137.204878 
L 224.670102 134.960877 
L 225.104132 134.067919 
L 225.248809 133.874647 
L 225.393486 137.279234 
L 225.538162 137.506276 
L 225.972193 137.011912 
L 226.550899 136.784509 
L 227.274283 136.799305 
L 228.576373 137.131941 
L 231.035877 138.002388 
L 239.861157 141.209618 
L 242.465338 141.837992 
L 244.924842 142.208986 
L 245.214195 142.322413 
L 246.082256 142.723705 
L 246.805639 142.78931 
L 247.384346 142.601308 
L 247.963053 142.157722 
L 248.686437 141.237085 
L 249.699174 139.435455 
L 251.001264 137.135948 
L 251.579971 136.566664 
L 251.724648 138.594686 
L 252.448031 138.196264 
L 253.171415 138.11391 
L 254.473505 138.242909 
L 257.80107 138.860321 
L 267.060379 140.607716 
L 270.53262 140.970916 
L 271.834711 141.170108 
L 272.847448 141.331286 
L 273.570831 141.259338 
L 274.294215 140.980365 
L 275.162275 140.361824 
L 276.609042 138.92686 
L 277.477103 138.200929 
L 277.911133 138.071428 
L 278.055809 139.14759 
L 278.345163 138.969295 
L 279.068546 138.843628 
L 280.370637 138.86875 
L 284.421585 139.261472 
L 293.970248 140.204025 
L 299.901993 140.5083 
L 300.91473 140.261993 
L 302.072144 139.727977 
L 303.952941 138.826739 
L 304.097618 138.791784 
L 304.242295 138.891764 
L 304.386971 139.372374 
L 304.821001 139.262146 
L 306.123092 139.216042 
L 310.318717 139.418934 
L 322.905591 140.023385 
L 326.956539 140.025227 
L 328.403306 139.686483 
L 330.42878 139.189147 
L 330.86281 139.466638 
L 332.454254 139.41862 
L 339.398736 139.614856 
L 352.130287 139.906978 
L 354.011084 139.771228 
L 356.904618 139.484163 
L 357.193972 139.551352 
L 359.653476 139.535341 
L 380.776276 139.681661 
L 383.23578 139.575447 
L 383.814487 139.590541 
L 389.312202 139.616236 
L 407.107438 139.666763 
L 410.724356 139.615656 
L 451.667866 139.664215 
L 498.109091 139.651222 
L 498.109091 139.651222 
" style="fill:none;stroke:#008000;stroke-linecap:square;stroke-width:1.5;"/>
   </g>
   <g id="patch_3">
    <path d="M 72 384.48 
L 72 51.84 
" style="fill:none;stroke:#000000;stroke-linecap:square;stroke-linejoin:miter;stroke-width:0.8;"/>
   </g>
   <g id="patch_4">
    <path d="M 518.4 384.48 
L 518.4 51.84 
" style="fill:none;stroke:#000000;stroke-linecap:square;stroke-linejoin:miter;stroke-width:0.8;"/>
   </g>
   <g id="patch_5">
    <path d="M 72 384.48 
L 518.4 384.48 
" style="fill:none;stroke:#000000;stroke-linecap:square;stroke-linejoin:miter;stroke-width:0.8;"/>
   </g>
   <g id="patch_6">
    <path d="M 72 51.84 
L 518.4 51.84 
" style="fill:none;stroke:#000000;stroke-linecap:square;stroke-linejoin:miter;stroke-width:0.8;"/>
   </g>
   <g id="legend_1">
    <g id="patch_7">
     <path d="M 446.187419 119.69056 
L 511.4 119.69056 
Q 513.4 119.69056 513.4 117.69056 
L 513.4 58.84 
Q 513.4 56.84 511.4 56.84 
L 446.187419 56.84 
Q 444.187419 56.84 444.187419 58.84 
L 444.187419 117.69056 
Q 444.187419 119.69056 446.187419 119.69056 
z
" style="fill:#ffffff;opacity:0.8;stroke:#cccccc;stroke-linejoin:miter;"/>
    </g>
    <g id="line2d_35">
     <path d="M 448.187419 65.365462 
L 468.187419 65.365462 
" style="fill:none;stroke:#bf00bf;stroke-linecap:square;stroke-width:1.5;"/>
    </g>
    <g id="line2d_36"/>
    <g id="text_18">
     <!-- $\partial \mathcal{L}/ \partial u_{1}$ -->
     <g transform="translate(476.187419 68.865462)scale(0.1 -0.1)">
      <use transform="translate(0 14.943915)scale(0.996264)" xlink:href="#CMMI12-64"/>
      <use transform="translate(56.915564 14.943915)scale(0.996264)" xlink:href="#CMSY10-76"/>
      <use transform="translate(125.630372 14.943915)scale(0.996264)" xlink:href="#CMMI12-61"/>
      <use transform="translate(174.405291 14.943915)scale(0.996264)" xlink:href="#CMMI12-64"/>
      <use transform="translate(231.320856 14.943915)scale(0.996264)" xlink:href="#CMMI12-117"/>
      <use transform="translate(286.841185 0)scale(0.697382)" xlink:href="#CMR17-49"/>
     </g>
    </g>
    <g id="line2d_37">
     <path d="M 448.187419 80.328102 
L 468.187419 80.328102 
" style="fill:none;stroke:#00bfbf;stroke-linecap:square;stroke-width:1.5;"/>
    </g>
    <g id="line2d_38"/>
    <g id="text_19">
     <!-- $\partial \mathcal{L}/ \partial u_{2}$ -->
     <g transform="translate(476.187419 83.828102)scale(0.1 -0.1)">
      <use transform="translate(0 14.943915)scale(0.996264)" xlink:href="#CMMI12-64"/>
      <use transform="translate(56.915564 14.943915)scale(0.996264)" xlink:href="#CMSY10-76"/>
      <use transform="translate(125.630372 14.943915)scale(0.996264)" xlink:href="#CMMI12-61"/>
      <use transform="translate(174.405291 14.943915)scale(0.996264)" xlink:href="#CMMI12-64"/>
      <use transform="translate(231.320856 14.943915)scale(0.996264)" xlink:href="#CMMI12-117"/>
      <use transform="translate(286.841185 0)scale(0.697382)" xlink:href="#CMR17-50"/>
     </g>
    </g>
    <g id="line2d_39">
     <path d="M 448.187419 95.290742 
L 468.187419 95.290742 
" style="fill:none;stroke:#ff0000;stroke-linecap:square;stroke-width:1.5;"/>
    </g>
    <g id="line2d_40"/>
    <g id="text_20">
     <!-- $\partial \mathcal{L}/ \partial u_{3}$ -->
     <g transform="translate(476.187419 98.790742)scale(0.1 -0.1)">
      <use transform="translate(0 14.943915)scale(0.996264)" xlink:href="#CMMI12-64"/>
      <use transform="translate(56.915564 14.943915)scale(0.996264)" xlink:href="#CMSY10-76"/>
      <use transform="translate(125.630372 14.943915)scale(0.996264)" xlink:href="#CMMI12-61"/>
      <use transform="translate(174.405291 14.943915)scale(0.996264)" xlink:href="#CMMI12-64"/>
      <use transform="translate(231.320856 14.943915)scale(0.996264)" xlink:href="#CMMI12-117"/>
      <use transform="translate(286.841185 0)scale(0.697382)" xlink:href="#CMR17-51"/>
     </g>
    </g>
    <g id="line2d_41">
     <path d="M 448.187419 110.253382 
L 468.187419 110.253382 
" style="fill:none;stroke:#008000;stroke-linecap:square;stroke-width:1.5;"/>
    </g>
    <g id="line2d_42"/>
    <g id="text_21">
     <!-- $\partial \mathcal{L}/ \partial u_{4}$ -->
     <defs>
      <path d="M 33.59375 64.40625 
C 33.59375 66.5 33.5 66.5 31.703125 66.5 
L 2 19.59375 
L 2 17 
L 27.796875 17 
L 27.796875 7.140625 
C 27.796875 3.5 27.59375 2.5 20.59375 2.5 
L 18.703125 2.5 
L 18.703125 0 
C 21.90625 0 27.296875 0 30.703125 0 
C 34.09375 0 39.5 0 42.703125 0 
L 42.703125 2.5 
L 40.796875 2.5 
C 33.796875 2.5 33.59375 3.5 33.59375 7.140625 
L 33.59375 17 
L 43.796875 17 
L 43.796875 19.59375 
L 33.59375 19.59375 
z
M 28.09375 57.859375 
L 28.09375 19.59375 
L 4 19.59375 
z
" id="CMR17-52"/>
     </defs>
     <g transform="translate(476.187419 113.753382)scale(0.1 -0.1)">
      <use transform="translate(0 14.943915)scale(0.996264)" xlink:href="#CMMI12-64"/>
      <use transform="translate(56.915564 14.943915)scale(0.996264)" xlink:href="#CMSY10-76"/>
      <use transform="translate(125.630372 14.943915)scale(0.996264)" xlink:href="#CMMI12-61"/>
      <use transform="translate(174.405291 14.943915)scale(0.996264)" xlink:href="#CMMI12-64"/>
      <use transform="translate(231.320856 14.943915)scale(0.996264)" xlink:href="#CMMI12-117"/>
      <use transform="translate(286.841185 0)scale(0.697382)" xlink:href="#CMR17-52"/>
     </g>
    </g>
   </g>
  </g>
 </g>
 <defs>
  <clipPath id="p6608a61a3e">
   <rect height="332.64" width="446.4" x="72" y="51.84"/>
  </clipPath>
 </defs>
</svg>
