<?xml version="1.0" encoding="utf-8" standalone="no"?>
<!DOCTYPE svg PUBLIC "-//W3C//DTD SVG 1.1//EN"
  "http://www.w3.org/Graphics/SVG/1.1/DTD/svg11.dtd">
<!-- Created with matplotlib (http://matplotlib.org/) -->
<svg height="432pt" version="1.1" viewBox="0 0 576 432" width="576pt" xmlns="http://www.w3.org/2000/svg" xmlns:xlink="http://www.w3.org/1999/xlink">
 <defs>
  <style type="text/css">
*{stroke-linecap:butt;stroke-linejoin:round;}
  </style>
 </defs>
 <g id="figure_1">
  <g id="patch_1">
   <path d="
M0 432
L576 432
L576 0
L0 0
z
" style="fill:#ffffff;"/>
  </g>
  <g id="axes_1">
   <g id="patch_2">
    <path d="
M72 388.8
L518.4 388.8
L518.4 43.2
L72 43.2
z
" style="fill:#ffffff;"/>
   </g>
   <g id="line2d_1">
    <path clip-path="url(#p7ff5b81e1d)" d="
M86.4102 388.8
L119.315 388.8
L119.442 388.678
L119.773 387.105
L121.351 379.387
L121.715 379.004
L123.024 375.319
L123.342 374.714
L123.431 374.416
L123.878 373.828
L124.357 372.962
L125.385 371.83
L127.177 367.724
L127.635 366.382
L129.306 362.215
L129.507 361.53
L129.804 358.742
L130.115 355.012
L130.287 352.105
L130.52 350.548
L131.798 348.931
L132.02 345.579
L132.267 343.936
L132.809 335.004
L133.502 325.936
L134.199 318.989
L134.841 317.887
L136.423 305.508
L136.775 303.556
L139.667 284.894
L140.169 283.986
L141.661 274.973
L142.136 274.076
L144.169 263.289
L144.292 262.39
L144.586 261.491
L145.395 257.016
L145.842 256.126
L146.322 253.466
L146.952 249.953
L147.21 249.082
L149.619 234.783
L150.613 231.575
L151.199 230.783
L151.508 229.995
L151.981 229.211
L152.27 228.431
L152.571 226.798
L153.457 225.991
L153.808 225.191
L154.38 222.834
L155.154 219.783
L155.426 219.036
L155.896 218.295
L157.445 211.174
L157.798 209.808
L158.065 209.131
L158.409 207.791
L158.631 207.127
L159.29 206.467
L160.162 205.811
L160.623 205.159
L161.045 203.867
L162.298 198.844
L164.406 192.287
L164.562 191.709
L165.116 190.563
L165.973 188.304
L166.671 186.089
L167.049 184.998
L167.555 184.457
L168.641 180.736
L169.43 178.663
L169.946 178.151
L171.058 174.628
L171.506 174.133
L172.118 172.177
L172.669 171.693
L173.392 169.304
L174.963 166.502
L175.831 164.218
L176.424 163.767
L177.577 160.656
L178.093 160.218
L178.778 158.484
L179.56 157.2
L179.789 156.775
L184.907 156.352
L186.384 155.93
L187.135 154.258
L187.296 153.844
L187.839 153.431
L188.444 151.794
L189.196 151.388
L190.343 148.585
L191.882 146.233
L192.628 144.307
L193.204 143.925
L194.501 140.913
L195.543 138.335
L196.044 137.608
L196.849 137.246
L197.149 136.885
L197.718 136.525
L197.909 136.165
L198.53 135.807
L200.566 131.237
L201.11 130.891
L201.42 130.203
L202.884 129.518
L203.624 127.821
L204.218 126.812
L204.807 125.478
L205.126 125.146
L205.651 124.815
L206.357 123.171
L207.749 119.935
L208.153 118.977
L208.616 118.341
L208.793 118.025
L209.335 117.393
L209.809 116.45
L211.011 113.96
L211.752 112.729
L212.505 111.506
L212.998 111.202
L215.278 106.694
L215.788 106.397
L218.078 106.101
L218.951 105.805
L219.405 105.509
L221.036 102.578
L222.257 100.261
L222.954 98.8254
L224.01 97.1143
L224.312 96.5467
L224.723 95.9804
L224.879 95.6977
L225.423 95.1334
L226.55 92.8884
L227.479 91.4286
L228.073 91.1294
L228.597 90.7537
L229.467 90.5422
L233.298 90.0956
L234.759 89.3531
L235.862 88.6599
L238.228 86.8583
L239.61 86.2941
L241.49 85.9628
L241.796 85.7458
L242.393 85.5321
L242.551 85.4266
L243.318 85.2182
L243.531 85.1154
L244.224 84.9125
L244.349 84.8125
L245.282 84.518
L245.959 84.2318
L246.763 83.9537
L246.94 83.8627
L247.529 83.6833
L247.86 83.5072
L248.873 83.3343
L251.286 82.203
L252.231 81.828
L253.832 81.1162
L255.908 80.2574
L257.921 79.9453
L260.698 79.8232
L261.902 79.3497
L264.964 79.0099
L266.165 78.6829
L271.963 76.9671
L275.931 76.1749
L277.622 75.9925
L279.272 75.8508
L290.721 73.9318
L292.814 73.7359
L303.21 72.6867
L306.638 72.4442
L308.853 72.3332
L312.884 72.1087
L318.64 71.7633
L325.012 71.5117
L339.398 71.3101
L347.331 71.1037
L391.484 70.6498
L486.271 70.5099
L486.271 70.5099" style="fill:none;stroke:#bf00bf;stroke-linecap:square;"/>
   </g>
   <g id="line2d_2">
    <path clip-path="url(#p7ff5b81e1d)" d="
M86.4333 388.8
L486.344 388.8
L486.344 388.8" style="fill:none;stroke:#00bfbf;stroke-linecap:square;"/>
   </g>
   <g id="line2d_3">
    <path clip-path="url(#p7ff5b81e1d)" d="
M86.4751 388.8
L487.402 388.8
L487.402 388.8" style="fill:none;stroke:#ff0000;stroke-linecap:square;"/>
   </g>
   <g id="line2d_4">
    <path clip-path="url(#p7ff5b81e1d)" d="
M86.4832 388.8
L486.333 388.8
L486.333 388.8" style="fill:none;stroke:#008000;stroke-linecap:square;"/>
   </g>
   <g id="patch_3">
    <path d="
M518.4 388.8
L518.4 43.2" style="fill:none;stroke:#000000;stroke-linecap:square;stroke-linejoin:miter;"/>
   </g>
   <g id="patch_4">
    <path d="
M72 388.8
L72 43.2" style="fill:none;stroke:#000000;stroke-linecap:square;stroke-linejoin:miter;"/>
   </g>
   <g id="patch_5">
    <path d="
M72 388.8
L518.4 388.8" style="fill:none;stroke:#000000;stroke-linecap:square;stroke-linejoin:miter;"/>
   </g>
   <g id="patch_6">
    <path d="
M72 43.2
L518.4 43.2" style="fill:none;stroke:#000000;stroke-linecap:square;stroke-linejoin:miter;"/>
   </g>
   <g id="matplotlib.axis_1">
    <g id="xtick_1">
     <g id="line2d_5">
      <path clip-path="url(#p7ff5b81e1d)" d="
M72 388.8
L72 43.2" style="fill:none;stroke:#000000;stroke-dasharray:3.000000,5.000000,1.000000,5.000000;stroke-dashoffset:0.0;stroke-width:0.5;"/>
     </g>
     <g id="line2d_6">
      <defs>
       <path d="
M0 0
L0 -4" id="mc7db9fdffb" style="stroke:#000000;stroke-width:0.5;"/>
      </defs>
      <g>
       <use style="stroke:#000000;stroke-width:0.5;" x="72.0" xlink:href="#mc7db9fdffb" y="388.8"/>
      </g>
     </g>
     <g id="line2d_7">
      <defs>
       <path d="
M0 0
L0 4" id="m5a7d422ac3" style="stroke:#000000;stroke-width:0.5;"/>
      </defs>
      <g>
       <use style="stroke:#000000;stroke-width:0.5;" x="72.0" xlink:href="#m5a7d422ac3" y="43.2"/>
      </g>
     </g>
     <g id="text_1">
      <!-- 0 -->
      <defs>
       <path d="
M31.7812 66.4062
Q24.1719 66.4062 20.3281 58.9062
Q16.5 51.4219 16.5 36.375
Q16.5 21.3906 20.3281 13.8906
Q24.1719 6.39062 31.7812 6.39062
Q39.4531 6.39062 43.2812 13.8906
Q47.125 21.3906 47.125 36.375
Q47.125 51.4219 43.2812 58.9062
Q39.4531 66.4062 31.7812 66.4062
M31.7812 74.2188
Q44.0469 74.2188 50.5156 64.5156
Q56.9844 54.8281 56.9844 36.375
Q56.9844 17.9688 50.5156 8.26562
Q44.0469 -1.42188 31.7812 -1.42188
Q19.5312 -1.42188 13.0625 8.26562
Q6.59375 17.9688 6.59375 36.375
Q6.59375 54.8281 13.0625 64.5156
Q19.5312 74.2188 31.7812 74.2188" id="DejaVuSans-30"/>
      </defs>
      <g transform="translate(68.9765625 401.918125)scale(0.12 -0.12)">
       <use xlink:href="#DejaVuSans-30"/>
      </g>
     </g>
    </g>
    <g id="xtick_2">
     <g id="line2d_8">
      <path clip-path="url(#p7ff5b81e1d)" d="
M146.4 388.8
L146.4 43.2" style="fill:none;stroke:#000000;stroke-dasharray:3.000000,5.000000,1.000000,5.000000;stroke-dashoffset:0.0;stroke-width:0.5;"/>
     </g>
     <g id="line2d_9">
      <g>
       <use style="stroke:#000000;stroke-width:0.5;" x="146.4" xlink:href="#mc7db9fdffb" y="388.8"/>
      </g>
     </g>
     <g id="line2d_10">
      <g>
       <use style="stroke:#000000;stroke-width:0.5;" x="146.4" xlink:href="#m5a7d422ac3" y="43.2"/>
      </g>
     </g>
     <g id="text_2">
      <!-- 50 -->
      <defs>
       <path d="
M10.7969 72.9062
L49.5156 72.9062
L49.5156 64.5938
L19.8281 64.5938
L19.8281 46.7344
Q21.9688 47.4688 24.1094 47.8281
Q26.2656 48.1875 28.4219 48.1875
Q40.625 48.1875 47.75 41.5
Q54.8906 34.8125 54.8906 23.3906
Q54.8906 11.625 47.5625 5.09375
Q40.2344 -1.42188 26.9062 -1.42188
Q22.3125 -1.42188 17.5469 -0.640625
Q12.7969 0.140625 7.71875 1.70312
L7.71875 11.625
Q12.1094 9.23438 16.7969 8.0625
Q21.4844 6.89062 26.7031 6.89062
Q35.1562 6.89062 40.0781 11.3281
Q45.0156 15.7656 45.0156 23.3906
Q45.0156 31 40.0781 35.4375
Q35.1562 39.8906 26.7031 39.8906
Q22.75 39.8906 18.8125 39.0156
Q14.8906 38.1406 10.7969 36.2812
z
" id="DejaVuSans-35"/>
      </defs>
      <g transform="translate(139.6265625 401.918125)scale(0.12 -0.12)">
       <use xlink:href="#DejaVuSans-35"/>
       <use x="63.623046875" xlink:href="#DejaVuSans-30"/>
      </g>
     </g>
    </g>
    <g id="xtick_3">
     <g id="line2d_11">
      <path clip-path="url(#p7ff5b81e1d)" d="
M220.8 388.8
L220.8 43.2" style="fill:none;stroke:#000000;stroke-dasharray:3.000000,5.000000,1.000000,5.000000;stroke-dashoffset:0.0;stroke-width:0.5;"/>
     </g>
     <g id="line2d_12">
      <g>
       <use style="stroke:#000000;stroke-width:0.5;" x="220.8" xlink:href="#mc7db9fdffb" y="388.8"/>
      </g>
     </g>
     <g id="line2d_13">
      <g>
       <use style="stroke:#000000;stroke-width:0.5;" x="220.8" xlink:href="#m5a7d422ac3" y="43.2"/>
      </g>
     </g>
     <g id="text_3">
      <!-- 100 -->
      <defs>
       <path d="
M12.4062 8.29688
L28.5156 8.29688
L28.5156 63.9219
L10.9844 60.4062
L10.9844 69.3906
L28.4219 72.9062
L38.2812 72.9062
L38.2812 8.29688
L54.3906 8.29688
L54.3906 0
L12.4062 0
z
" id="DejaVuSans-31"/>
      </defs>
      <g transform="translate(210.405 401.918125)scale(0.12 -0.12)">
       <use xlink:href="#DejaVuSans-31"/>
       <use x="63.623046875" xlink:href="#DejaVuSans-30"/>
       <use x="127.24609375" xlink:href="#DejaVuSans-30"/>
      </g>
     </g>
    </g>
    <g id="xtick_4">
     <g id="line2d_14">
      <path clip-path="url(#p7ff5b81e1d)" d="
M295.2 388.8
L295.2 43.2" style="fill:none;stroke:#000000;stroke-dasharray:3.000000,5.000000,1.000000,5.000000;stroke-dashoffset:0.0;stroke-width:0.5;"/>
     </g>
     <g id="line2d_15">
      <g>
       <use style="stroke:#000000;stroke-width:0.5;" x="295.2" xlink:href="#mc7db9fdffb" y="388.8"/>
      </g>
     </g>
     <g id="line2d_16">
      <g>
       <use style="stroke:#000000;stroke-width:0.5;" x="295.2" xlink:href="#m5a7d422ac3" y="43.2"/>
      </g>
     </g>
     <g id="text_4">
      <!-- 150 -->
      <g transform="translate(284.805 401.918125)scale(0.12 -0.12)">
       <use xlink:href="#DejaVuSans-31"/>
       <use x="63.623046875" xlink:href="#DejaVuSans-35"/>
       <use x="127.24609375" xlink:href="#DejaVuSans-30"/>
      </g>
     </g>
    </g>
    <g id="xtick_5">
     <g id="line2d_17">
      <path clip-path="url(#p7ff5b81e1d)" d="
M369.6 388.8
L369.6 43.2" style="fill:none;stroke:#000000;stroke-dasharray:3.000000,5.000000,1.000000,5.000000;stroke-dashoffset:0.0;stroke-width:0.5;"/>
     </g>
     <g id="line2d_18">
      <g>
       <use style="stroke:#000000;stroke-width:0.5;" x="369.6" xlink:href="#mc7db9fdffb" y="388.8"/>
      </g>
     </g>
     <g id="line2d_19">
      <g>
       <use style="stroke:#000000;stroke-width:0.5;" x="369.6" xlink:href="#m5a7d422ac3" y="43.2"/>
      </g>
     </g>
     <g id="text_5">
      <!-- 200 -->
      <defs>
       <path d="
M19.1875 8.29688
L53.6094 8.29688
L53.6094 0
L7.32812 0
L7.32812 8.29688
Q12.9375 14.1094 22.625 23.8906
Q32.3281 33.6875 34.8125 36.5312
Q39.5469 41.8438 41.4219 45.5312
Q43.3125 49.2188 43.3125 52.7812
Q43.3125 58.5938 39.2344 62.25
Q35.1562 65.9219 28.6094 65.9219
Q23.9688 65.9219 18.8125 64.3125
Q13.6719 62.7031 7.8125 59.4219
L7.8125 69.3906
Q13.7656 71.7812 18.9375 73
Q24.125 74.2188 28.4219 74.2188
Q39.75 74.2188 46.4844 68.5469
Q53.2188 62.8906 53.2188 53.4219
Q53.2188 48.9219 51.5312 44.8906
Q49.8594 40.875 45.4062 35.4062
Q44.1875 33.9844 37.6406 27.2188
Q31.1094 20.4531 19.1875 8.29688" id="DejaVuSans-32"/>
      </defs>
      <g transform="translate(358.985625 401.918125)scale(0.12 -0.12)">
       <use xlink:href="#DejaVuSans-32"/>
       <use x="63.623046875" xlink:href="#DejaVuSans-30"/>
       <use x="127.24609375" xlink:href="#DejaVuSans-30"/>
      </g>
     </g>
    </g>
    <g id="xtick_6">
     <g id="line2d_20">
      <path clip-path="url(#p7ff5b81e1d)" d="
M444 388.8
L444 43.2" style="fill:none;stroke:#000000;stroke-dasharray:3.000000,5.000000,1.000000,5.000000;stroke-dashoffset:0.0;stroke-width:0.5;"/>
     </g>
     <g id="line2d_21">
      <g>
       <use style="stroke:#000000;stroke-width:0.5;" x="444.0" xlink:href="#mc7db9fdffb" y="388.8"/>
      </g>
     </g>
     <g id="line2d_22">
      <g>
       <use style="stroke:#000000;stroke-width:0.5;" x="444.0" xlink:href="#m5a7d422ac3" y="43.2"/>
      </g>
     </g>
     <g id="text_6">
      <!-- 250 -->
      <g transform="translate(433.385625 401.918125)scale(0.12 -0.12)">
       <use xlink:href="#DejaVuSans-32"/>
       <use x="63.623046875" xlink:href="#DejaVuSans-35"/>
       <use x="127.24609375" xlink:href="#DejaVuSans-30"/>
      </g>
     </g>
    </g>
    <g id="xtick_7">
     <g id="line2d_23">
      <path clip-path="url(#p7ff5b81e1d)" d="
M518.4 388.8
L518.4 43.2" style="fill:none;stroke:#000000;stroke-dasharray:3.000000,5.000000,1.000000,5.000000;stroke-dashoffset:0.0;stroke-width:0.5;"/>
     </g>
     <g id="line2d_24">
      <g>
       <use style="stroke:#000000;stroke-width:0.5;" x="518.4" xlink:href="#mc7db9fdffb" y="388.8"/>
      </g>
     </g>
     <g id="line2d_25">
      <g>
       <use style="stroke:#000000;stroke-width:0.5;" x="518.4" xlink:href="#m5a7d422ac3" y="43.2"/>
      </g>
     </g>
     <g id="text_7">
      <!-- 300 -->
      <defs>
       <path d="
M40.5781 39.3125
Q47.6562 37.7969 51.625 33
Q55.6094 28.2188 55.6094 21.1875
Q55.6094 10.4062 48.1875 4.48438
Q40.7656 -1.42188 27.0938 -1.42188
Q22.5156 -1.42188 17.6562 -0.515625
Q12.7969 0.390625 7.625 2.20312
L7.625 11.7188
Q11.7188 9.32812 16.5938 8.10938
Q21.4844 6.89062 26.8125 6.89062
Q36.0781 6.89062 40.9375 10.5469
Q45.7969 14.2031 45.7969 21.1875
Q45.7969 27.6406 41.2812 31.2656
Q36.7656 34.9062 28.7188 34.9062
L20.2188 34.9062
L20.2188 43.0156
L29.1094 43.0156
Q36.375 43.0156 40.2344 45.9219
Q44.0938 48.8281 44.0938 54.2969
Q44.0938 59.9062 40.1094 62.9062
Q36.1406 65.9219 28.7188 65.9219
Q24.6562 65.9219 20.0156 65.0312
Q15.375 64.1562 9.8125 62.3125
L9.8125 71.0938
Q15.4375 72.6562 20.3438 73.4375
Q25.25 74.2188 29.5938 74.2188
Q40.8281 74.2188 47.3594 69.1094
Q53.9062 64.0156 53.9062 55.3281
Q53.9062 49.2656 50.4375 45.0938
Q46.9688 40.9219 40.5781 39.3125" id="DejaVuSans-33"/>
      </defs>
      <g transform="translate(507.8034375 401.918125)scale(0.12 -0.12)">
       <use xlink:href="#DejaVuSans-33"/>
       <use x="63.623046875" xlink:href="#DejaVuSans-30"/>
       <use x="127.24609375" xlink:href="#DejaVuSans-30"/>
      </g>
     </g>
    </g>
    <g id="text_8">
     <!-- Time -->
     <defs>
      <path d="
M9.42188 54.6875
L18.4062 54.6875
L18.4062 0
L9.42188 0
z

M9.42188 75.9844
L18.4062 75.9844
L18.4062 64.5938
L9.42188 64.5938
z
" id="DejaVuSans-69"/>
      <path d="
M52 44.1875
Q55.375 50.25 60.0625 53.125
Q64.75 56 71.0938 56
Q79.6406 56 84.2812 50.0156
Q88.9219 44.0469 88.9219 33.0156
L88.9219 0
L79.8906 0
L79.8906 32.7188
Q79.8906 40.5781 77.0938 44.375
Q74.3125 48.1875 68.6094 48.1875
Q61.625 48.1875 57.5625 43.5469
Q53.5156 38.9219 53.5156 30.9062
L53.5156 0
L44.4844 0
L44.4844 32.7188
Q44.4844 40.625 41.7031 44.4062
Q38.9219 48.1875 33.1094 48.1875
Q26.2188 48.1875 22.1562 43.5312
Q18.1094 38.875 18.1094 30.9062
L18.1094 0
L9.07812 0
L9.07812 54.6875
L18.1094 54.6875
L18.1094 46.1875
Q21.1875 51.2188 25.4844 53.6094
Q29.7812 56 35.6875 56
Q41.6562 56 45.8281 52.9688
Q50 49.9531 52 44.1875" id="DejaVuSans-6d"/>
      <path d="
M56.2031 29.5938
L56.2031 25.2031
L14.8906 25.2031
Q15.4844 15.9219 20.4844 11.0625
Q25.4844 6.20312 34.4219 6.20312
Q39.5938 6.20312 44.4531 7.46875
Q49.3125 8.73438 54.1094 11.2812
L54.1094 2.78125
Q49.2656 0.734375 44.1875 -0.34375
Q39.1094 -1.42188 33.8906 -1.42188
Q20.7969 -1.42188 13.1562 6.1875
Q5.51562 13.8125 5.51562 26.8125
Q5.51562 40.2344 12.7656 48.1094
Q20.0156 56 32.3281 56
Q43.3594 56 49.7812 48.8906
Q56.2031 41.7969 56.2031 29.5938
M47.2188 32.2344
Q47.125 39.5938 43.0938 43.9844
Q39.0625 48.3906 32.4219 48.3906
Q24.9062 48.3906 20.3906 44.1406
Q15.875 39.8906 15.1875 32.1719
z
" id="DejaVuSans-65"/>
      <path d="
M-0.296875 72.9062
L61.375 72.9062
L61.375 64.5938
L35.5 64.5938
L35.5 0
L25.5938 0
L25.5938 64.5938
L-0.296875 64.5938
z
" id="DejaVuSans-54"/>
     </defs>
     <g transform="translate(278.42515625 420.0515625)scale(0.14 -0.14)">
      <use xlink:href="#DejaVuSans-54"/>
      <use x="57.958984375" xlink:href="#DejaVuSans-69"/>
      <use x="85.7421875" xlink:href="#DejaVuSans-6d"/>
      <use x="183.154296875" xlink:href="#DejaVuSans-65"/>
     </g>
    </g>
   </g>
   <g id="matplotlib.axis_2">
    <g id="ytick_1">
     <g id="line2d_26">
      <path clip-path="url(#p7ff5b81e1d)" d="
M72 388.8
L518.4 388.8" style="fill:none;stroke:#000000;stroke-dasharray:3.000000,5.000000,1.000000,5.000000;stroke-dashoffset:0.0;stroke-width:0.5;"/>
     </g>
     <g id="line2d_27">
      <defs>
       <path d="
M0 0
L4 0" id="md7965d1ba0" style="stroke:#000000;stroke-width:0.5;"/>
      </defs>
      <g>
       <use style="stroke:#000000;stroke-width:0.5;" x="72.0" xlink:href="#md7965d1ba0" y="388.8"/>
      </g>
     </g>
     <g id="line2d_28">
      <defs>
       <path d="
M0 0
L-4 0" id="md9a1c1a7cd" style="stroke:#000000;stroke-width:0.5;"/>
      </defs>
      <g>
       <use style="stroke:#000000;stroke-width:0.5;" x="518.4" xlink:href="#md9a1c1a7cd" y="388.8"/>
      </g>
     </g>
     <g id="text_9">
      <!-- 0 -->
      <g transform="translate(61.953125 392.11125)scale(0.12 -0.12)">
       <use xlink:href="#DejaVuSans-30"/>
      </g>
     </g>
    </g>
    <g id="ytick_2">
     <g id="line2d_29">
      <path clip-path="url(#p7ff5b81e1d)" d="
M72 331.2
L518.4 331.2" style="fill:none;stroke:#000000;stroke-dasharray:3.000000,5.000000,1.000000,5.000000;stroke-dashoffset:0.0;stroke-width:0.5;"/>
     </g>
     <g id="line2d_30">
      <g>
       <use style="stroke:#000000;stroke-width:0.5;" x="72.0" xlink:href="#md7965d1ba0" y="331.2"/>
      </g>
     </g>
     <g id="line2d_31">
      <g>
       <use style="stroke:#000000;stroke-width:0.5;" x="518.4" xlink:href="#md9a1c1a7cd" y="331.2"/>
      </g>
     </g>
     <g id="text_10">
      <!-- 500 -->
      <g transform="translate(46.818125 334.51125)scale(0.12 -0.12)">
       <use xlink:href="#DejaVuSans-35"/>
       <use x="63.623046875" xlink:href="#DejaVuSans-30"/>
       <use x="127.24609375" xlink:href="#DejaVuSans-30"/>
      </g>
     </g>
    </g>
    <g id="ytick_3">
     <g id="line2d_32">
      <path clip-path="url(#p7ff5b81e1d)" d="
M72 273.6
L518.4 273.6" style="fill:none;stroke:#000000;stroke-dasharray:3.000000,5.000000,1.000000,5.000000;stroke-dashoffset:0.0;stroke-width:0.5;"/>
     </g>
     <g id="line2d_33">
      <g>
       <use style="stroke:#000000;stroke-width:0.5;" x="72.0" xlink:href="#md7965d1ba0" y="273.6"/>
      </g>
     </g>
     <g id="line2d_34">
      <g>
       <use style="stroke:#000000;stroke-width:0.5;" x="518.4" xlink:href="#md9a1c1a7cd" y="273.6"/>
      </g>
     </g>
     <g id="text_11">
      <!-- 1000 -->
      <g transform="translate(39.575 276.91125)scale(0.12 -0.12)">
       <use xlink:href="#DejaVuSans-31"/>
       <use x="63.623046875" xlink:href="#DejaVuSans-30"/>
       <use x="127.24609375" xlink:href="#DejaVuSans-30"/>
       <use x="190.869140625" xlink:href="#DejaVuSans-30"/>
      </g>
     </g>
    </g>
    <g id="ytick_4">
     <g id="line2d_35">
      <path clip-path="url(#p7ff5b81e1d)" d="
M72 216
L518.4 216" style="fill:none;stroke:#000000;stroke-dasharray:3.000000,5.000000,1.000000,5.000000;stroke-dashoffset:0.0;stroke-width:0.5;"/>
     </g>
     <g id="line2d_36">
      <g>
       <use style="stroke:#000000;stroke-width:0.5;" x="72.0" xlink:href="#md7965d1ba0" y="216.0"/>
      </g>
     </g>
     <g id="line2d_37">
      <g>
       <use style="stroke:#000000;stroke-width:0.5;" x="518.4" xlink:href="#md9a1c1a7cd" y="216.0"/>
      </g>
     </g>
     <g id="text_12">
      <!-- 1500 -->
      <g transform="translate(39.575 219.31125)scale(0.12 -0.12)">
       <use xlink:href="#DejaVuSans-31"/>
       <use x="63.623046875" xlink:href="#DejaVuSans-35"/>
       <use x="127.24609375" xlink:href="#DejaVuSans-30"/>
       <use x="190.869140625" xlink:href="#DejaVuSans-30"/>
      </g>
     </g>
    </g>
    <g id="ytick_5">
     <g id="line2d_38">
      <path clip-path="url(#p7ff5b81e1d)" d="
M72 158.4
L518.4 158.4" style="fill:none;stroke:#000000;stroke-dasharray:3.000000,5.000000,1.000000,5.000000;stroke-dashoffset:0.0;stroke-width:0.5;"/>
     </g>
     <g id="line2d_39">
      <g>
       <use style="stroke:#000000;stroke-width:0.5;" x="72.0" xlink:href="#md7965d1ba0" y="158.4"/>
      </g>
     </g>
     <g id="line2d_40">
      <g>
       <use style="stroke:#000000;stroke-width:0.5;" x="518.4" xlink:href="#md9a1c1a7cd" y="158.4"/>
      </g>
     </g>
     <g id="text_13">
      <!-- 2000 -->
      <g transform="translate(39.13625 161.71125)scale(0.12 -0.12)">
       <use xlink:href="#DejaVuSans-32"/>
       <use x="63.623046875" xlink:href="#DejaVuSans-30"/>
       <use x="127.24609375" xlink:href="#DejaVuSans-30"/>
       <use x="190.869140625" xlink:href="#DejaVuSans-30"/>
      </g>
     </g>
    </g>
    <g id="ytick_6">
     <g id="line2d_41">
      <path clip-path="url(#p7ff5b81e1d)" d="
M72 100.8
L518.4 100.8" style="fill:none;stroke:#000000;stroke-dasharray:3.000000,5.000000,1.000000,5.000000;stroke-dashoffset:0.0;stroke-width:0.5;"/>
     </g>
     <g id="line2d_42">
      <g>
       <use style="stroke:#000000;stroke-width:0.5;" x="72.0" xlink:href="#md7965d1ba0" y="100.8"/>
      </g>
     </g>
     <g id="line2d_43">
      <g>
       <use style="stroke:#000000;stroke-width:0.5;" x="518.4" xlink:href="#md9a1c1a7cd" y="100.8"/>
      </g>
     </g>
     <g id="text_14">
      <!-- 2500 -->
      <g transform="translate(39.13625 104.11125)scale(0.12 -0.12)">
       <use xlink:href="#DejaVuSans-32"/>
       <use x="63.623046875" xlink:href="#DejaVuSans-35"/>
       <use x="127.24609375" xlink:href="#DejaVuSans-30"/>
       <use x="190.869140625" xlink:href="#DejaVuSans-30"/>
      </g>
     </g>
    </g>
    <g id="ytick_7">
     <g id="line2d_44">
      <path clip-path="url(#p7ff5b81e1d)" d="
M72 43.2
L518.4 43.2" style="fill:none;stroke:#000000;stroke-dasharray:3.000000,5.000000,1.000000,5.000000;stroke-dashoffset:0.0;stroke-width:0.5;"/>
     </g>
     <g id="line2d_45">
      <g>
       <use style="stroke:#000000;stroke-width:0.5;" x="72.0" xlink:href="#md7965d1ba0" y="43.2"/>
      </g>
     </g>
     <g id="line2d_46">
      <g>
       <use style="stroke:#000000;stroke-width:0.5;" x="518.4" xlink:href="#md9a1c1a7cd" y="43.2"/>
      </g>
     </g>
     <g id="text_15">
      <!-- 3000 -->
      <g transform="translate(39.171875 46.51125)scale(0.12 -0.12)">
       <use xlink:href="#DejaVuSans-33"/>
       <use x="63.623046875" xlink:href="#DejaVuSans-30"/>
       <use x="127.24609375" xlink:href="#DejaVuSans-30"/>
       <use x="190.869140625" xlink:href="#DejaVuSans-30"/>
      </g>
     </g>
    </g>
    <g id="text_16">
     <!-- myu_upper_v -->
     <defs>
      <path d="
M41.1094 46.2969
Q39.5938 47.1719 37.8125 47.5781
Q36.0312 48 33.8906 48
Q26.2656 48 22.1875 43.0469
Q18.1094 38.0938 18.1094 28.8125
L18.1094 0
L9.07812 0
L9.07812 54.6875
L18.1094 54.6875
L18.1094 46.1875
Q20.9531 51.1719 25.4844 53.5781
Q30.0312 56 36.5312 56
Q37.4531 56 38.5781 55.875
Q39.7031 55.7656 41.0625 55.5156
z
" id="DejaVuSans-72"/>
      <path d="
M32.1719 -5.07812
Q28.375 -14.8438 24.75 -17.8125
Q21.1406 -20.7969 15.0938 -20.7969
L7.90625 -20.7969
L7.90625 -13.2812
L13.1875 -13.2812
Q16.8906 -13.2812 18.9375 -11.5156
Q21 -9.76562 23.4844 -3.21875
L25.0938 0.875
L2.98438 54.6875
L12.5 54.6875
L29.5938 11.9219
L46.6875 54.6875
L56.2031 54.6875
z
" id="DejaVuSans-79"/>
      <path d="
M18.1094 8.20312
L18.1094 -20.7969
L9.07812 -20.7969
L9.07812 54.6875
L18.1094 54.6875
L18.1094 46.3906
Q20.9531 51.2656 25.2656 53.625
Q29.5938 56 35.5938 56
Q45.5625 56 51.7812 48.0938
Q58.0156 40.1875 58.0156 27.2969
Q58.0156 14.4062 51.7812 6.48438
Q45.5625 -1.42188 35.5938 -1.42188
Q29.5938 -1.42188 25.2656 0.953125
Q20.9531 3.32812 18.1094 8.20312
M48.6875 27.2969
Q48.6875 37.2031 44.6094 42.8438
Q40.5312 48.4844 33.4062 48.4844
Q26.2656 48.4844 22.1875 42.8438
Q18.1094 37.2031 18.1094 27.2969
Q18.1094 17.3906 22.1875 11.75
Q26.2656 6.10938 33.4062 6.10938
Q40.5312 6.10938 44.6094 11.75
Q48.6875 17.3906 48.6875 27.2969" id="DejaVuSans-70"/>
      <path d="
M8.5 21.5781
L8.5 54.6875
L17.4844 54.6875
L17.4844 21.9219
Q17.4844 14.1562 20.5 10.2656
Q23.5312 6.39062 29.5938 6.39062
Q36.8594 6.39062 41.0781 11.0312
Q45.3125 15.6719 45.3125 23.6875
L45.3125 54.6875
L54.2969 54.6875
L54.2969 0
L45.3125 0
L45.3125 8.40625
Q42.0469 3.42188 37.7188 1
Q33.4062 -1.42188 27.6875 -1.42188
Q18.2656 -1.42188 13.375 4.4375
Q8.5 10.2969 8.5 21.5781
M31.1094 56
z
" id="DejaVuSans-75"/>
      <path d="
M2.98438 54.6875
L12.5 54.6875
L29.5938 8.79688
L46.6875 54.6875
L56.2031 54.6875
L35.6875 0
L23.4844 0
z
" id="DejaVuSans-76"/>
      <path d="
M50.9844 -16.6094
L50.9844 -23.5781
L-0.984375 -23.5781
L-0.984375 -16.6094
z
" id="DejaVuSans-5f"/>
     </defs>
     <g transform="translate(30.8353125 262.20546875)rotate(-90.0)scale(0.14 -0.14)">
      <use xlink:href="#DejaVuSans-6d"/>
      <use x="97.412109375" xlink:href="#DejaVuSans-79"/>
      <use x="156.591796875" xlink:href="#DejaVuSans-75"/>
      <use x="219.970703125" xlink:href="#DejaVuSans-5f"/>
      <use x="269.970703125" xlink:href="#DejaVuSans-75"/>
      <use x="333.349609375" xlink:href="#DejaVuSans-70"/>
      <use x="396.826171875" xlink:href="#DejaVuSans-70"/>
      <use x="460.302734375" xlink:href="#DejaVuSans-65"/>
      <use x="521.826171875" xlink:href="#DejaVuSans-72"/>
      <use x="562.939453125" xlink:href="#DejaVuSans-5f"/>
      <use x="612.939453125" xlink:href="#DejaVuSans-76"/>
     </g>
    </g>
   </g>
   <g id="text_17">
    <!-- myu_upper_v -->
    <g transform="translate(248.99453125 38.2)scale(0.14 -0.14)">
     <use xlink:href="#DejaVuSans-6d"/>
     <use x="97.412109375" xlink:href="#DejaVuSans-79"/>
     <use x="156.591796875" xlink:href="#DejaVuSans-75"/>
     <use x="219.970703125" xlink:href="#DejaVuSans-5f"/>
     <use x="269.970703125" xlink:href="#DejaVuSans-75"/>
     <use x="333.349609375" xlink:href="#DejaVuSans-70"/>
     <use x="396.826171875" xlink:href="#DejaVuSans-70"/>
     <use x="460.302734375" xlink:href="#DejaVuSans-65"/>
     <use x="521.826171875" xlink:href="#DejaVuSans-72"/>
     <use x="562.939453125" xlink:href="#DejaVuSans-5f"/>
     <use x="612.939453125" xlink:href="#DejaVuSans-76"/>
    </g>
   </g>
   <g id="legend_1">
    <g id="patch_7">
     <path d="
M355.525 381.6
L511.2 381.6
L511.2 291.132
L355.525 291.132
z
" style="fill:#ffffff;stroke:#000000;stroke-linejoin:miter;"/>
    </g>
    <g id="line2d_47">
     <path d="
M365.605 302.794
L385.765 302.794" style="fill:none;stroke:#bf00bf;stroke-linecap:square;"/>
    </g>
    <g id="line2d_48"/>
    <g id="text_18">
     <!-- myu_upper_v1 -->
     <g transform="translate(401.60475 307.83375)scale(0.144 -0.144)">
      <use xlink:href="#DejaVuSans-6d"/>
      <use x="97.412109375" xlink:href="#DejaVuSans-79"/>
      <use x="156.591796875" xlink:href="#DejaVuSans-75"/>
      <use x="219.970703125" xlink:href="#DejaVuSans-5f"/>
      <use x="269.970703125" xlink:href="#DejaVuSans-75"/>
      <use x="333.349609375" xlink:href="#DejaVuSans-70"/>
      <use x="396.826171875" xlink:href="#DejaVuSans-70"/>
      <use x="460.302734375" xlink:href="#DejaVuSans-65"/>
      <use x="521.826171875" xlink:href="#DejaVuSans-72"/>
      <use x="562.939453125" xlink:href="#DejaVuSans-5f"/>
      <use x="612.939453125" xlink:href="#DejaVuSans-76"/>
      <use x="672.119140625" xlink:href="#DejaVuSans-31"/>
     </g>
    </g>
    <g id="line2d_49">
     <path d="
M365.605 324.331
L385.765 324.331" style="fill:none;stroke:#00bfbf;stroke-linecap:square;"/>
    </g>
    <g id="line2d_50"/>
    <g id="text_19">
     <!-- myu_upper_v2 -->
     <g transform="translate(401.60475 329.37075)scale(0.144 -0.144)">
      <use xlink:href="#DejaVuSans-6d"/>
      <use x="97.412109375" xlink:href="#DejaVuSans-79"/>
      <use x="156.591796875" xlink:href="#DejaVuSans-75"/>
      <use x="219.970703125" xlink:href="#DejaVuSans-5f"/>
      <use x="269.970703125" xlink:href="#DejaVuSans-75"/>
      <use x="333.349609375" xlink:href="#DejaVuSans-70"/>
      <use x="396.826171875" xlink:href="#DejaVuSans-70"/>
      <use x="460.302734375" xlink:href="#DejaVuSans-65"/>
      <use x="521.826171875" xlink:href="#DejaVuSans-72"/>
      <use x="562.939453125" xlink:href="#DejaVuSans-5f"/>
      <use x="612.939453125" xlink:href="#DejaVuSans-76"/>
      <use x="672.119140625" xlink:href="#DejaVuSans-32"/>
     </g>
    </g>
    <g id="line2d_51">
     <path d="
M365.605 345.868
L385.765 345.868" style="fill:none;stroke:#ff0000;stroke-linecap:square;"/>
    </g>
    <g id="line2d_52"/>
    <g id="text_20">
     <!-- myu_upper_v3 -->
     <g transform="translate(401.60475 350.90775)scale(0.144 -0.144)">
      <use xlink:href="#DejaVuSans-6d"/>
      <use x="97.412109375" xlink:href="#DejaVuSans-79"/>
      <use x="156.591796875" xlink:href="#DejaVuSans-75"/>
      <use x="219.970703125" xlink:href="#DejaVuSans-5f"/>
      <use x="269.970703125" xlink:href="#DejaVuSans-75"/>
      <use x="333.349609375" xlink:href="#DejaVuSans-70"/>
      <use x="396.826171875" xlink:href="#DejaVuSans-70"/>
      <use x="460.302734375" xlink:href="#DejaVuSans-65"/>
      <use x="521.826171875" xlink:href="#DejaVuSans-72"/>
      <use x="562.939453125" xlink:href="#DejaVuSans-5f"/>
      <use x="612.939453125" xlink:href="#DejaVuSans-76"/>
      <use x="672.119140625" xlink:href="#DejaVuSans-33"/>
     </g>
    </g>
    <g id="line2d_53">
     <path d="
M365.605 367.405
L385.765 367.405" style="fill:none;stroke:#008000;stroke-linecap:square;"/>
    </g>
    <g id="line2d_54"/>
    <g id="text_21">
     <!-- myu_upper_v4 -->
     <defs>
      <path d="
M37.7969 64.3125
L12.8906 25.3906
L37.7969 25.3906
z

M35.2031 72.9062
L47.6094 72.9062
L47.6094 25.3906
L58.0156 25.3906
L58.0156 17.1875
L47.6094 17.1875
L47.6094 0
L37.7969 0
L37.7969 17.1875
L4.89062 17.1875
L4.89062 26.7031
z
" id="DejaVuSans-34"/>
     </defs>
     <g transform="translate(401.60475 372.44475)scale(0.144 -0.144)">
      <use xlink:href="#DejaVuSans-6d"/>
      <use x="97.412109375" xlink:href="#DejaVuSans-79"/>
      <use x="156.591796875" xlink:href="#DejaVuSans-75"/>
      <use x="219.970703125" xlink:href="#DejaVuSans-5f"/>
      <use x="269.970703125" xlink:href="#DejaVuSans-75"/>
      <use x="333.349609375" xlink:href="#DejaVuSans-70"/>
      <use x="396.826171875" xlink:href="#DejaVuSans-70"/>
      <use x="460.302734375" xlink:href="#DejaVuSans-65"/>
      <use x="521.826171875" xlink:href="#DejaVuSans-72"/>
      <use x="562.939453125" xlink:href="#DejaVuSans-5f"/>
      <use x="612.939453125" xlink:href="#DejaVuSans-76"/>
      <use x="672.119140625" xlink:href="#DejaVuSans-34"/>
     </g>
    </g>
   </g>
  </g>
 </g>
 <defs>
  <clipPath id="p7ff5b81e1d">
   <rect height="345.6" width="446.4" x="72.0" y="43.2"/>
  </clipPath>
 </defs>
</svg>
