<?xml version="1.0" encoding="utf-8" standalone="no"?>
<!DOCTYPE svg PUBLIC "-//W3C//DTD SVG 1.1//EN"
  "http://www.w3.org/Graphics/SVG/1.1/DTD/svg11.dtd">
<!-- Created with matplotlib (http://matplotlib.org/) -->
<svg height="432pt" version="1.1" viewBox="0 0 576 432" width="576pt" xmlns="http://www.w3.org/2000/svg" xmlns:xlink="http://www.w3.org/1999/xlink">
 <defs>
  <style type="text/css">
*{stroke-linecap:butt;stroke-linejoin:round;}
  </style>
 </defs>
 <g id="figure_1">
  <g id="patch_1">
   <path d="M 0 432 
L 576 432 
L 576 0 
L 0 0 
z
" style="fill:#ffffff;"/>
  </g>
  <g id="axes_1">
   <g id="patch_2">
    <path d="M 72 384.48 
L 518.4 384.48 
L 518.4 51.84 
L 72 51.84 
z
" style="fill:#ffffff;"/>
   </g>
   <g id="matplotlib.axis_1">
    <g id="xtick_1">
     <g id="line2d_1">
      <path clip-path="url(#peeb360ea93)" d="M 92.290909 384.48 
L 92.290909 51.84 
" style="fill:none;stroke:#b0b0b0;stroke-dasharray:5.12,1.28,0.8,1.28;stroke-dashoffset:0;stroke-width:0.8;"/>
     </g>
     <g id="line2d_2">
      <defs>
       <path d="M 0 0 
L 0 3.5 
" id="m25dd3a8af5" style="stroke:#000000;stroke-width:0.8;"/>
      </defs>
      <g>
       <use style="stroke:#000000;stroke-width:0.8;" x="92.290909" xlink:href="#m25dd3a8af5" y="384.48"/>
      </g>
     </g>
     <g id="text_1">
      <!-- $0$ -->
      <defs>
       <path d="M 42 31.640625 
C 42 37.75 41.90625 48.125 37.703125 56.109375 
C 34 63.109375 28.09375 65.59375 22.90625 65.59375 
C 18.09375 65.59375 12 63.40625 8.203125 56.203125 
C 4.203125 48.71875 3.796875 39.4375 3.796875 31.640625 
C 3.796875 25.953125 3.90625 17.28125 7 9.671875 
C 11.296875 -0.609375 19 -2 22.90625 -2 
C 27.5 -2 34.5 -0.109375 38.59375 9.375 
C 41.59375 16.28125 42 24.359375 42 31.640625 
z
M 22.90625 -0.40625 
C 16.5 -0.40625 12.703125 5.078125 11.296875 12.6875 
C 10.203125 18.5625 10.203125 27.15625 10.203125 32.75 
C 10.203125 40.4375 10.203125 46.828125 11.5 52.921875 
C 13.40625 61.390625 19 64 22.90625 64 
C 27 64 32.296875 61.296875 34.203125 53.125 
C 35.5 47.4375 35.59375 40.734375 35.59375 32.75 
C 35.59375 26.25 35.59375 18.265625 34.40625 12.375 
C 32.296875 1.484375 26.40625 -0.40625 22.90625 -0.40625 
z
" id="CMR17-48"/>
      </defs>
      <g transform="translate(89.800241 398.398498)scale(0.1 -0.1)">
       <use transform="scale(0.996264)" xlink:href="#CMR17-48"/>
      </g>
     </g>
    </g>
    <g id="xtick_2">
     <g id="line2d_3">
      <path clip-path="url(#peeb360ea93)" d="M 147.459232 384.48 
L 147.459232 51.84 
" style="fill:none;stroke:#b0b0b0;stroke-dasharray:5.12,1.28,0.8,1.28;stroke-dashoffset:0;stroke-width:0.8;"/>
     </g>
     <g id="line2d_4">
      <g>
       <use style="stroke:#000000;stroke-width:0.8;" x="147.459232" xlink:href="#m25dd3a8af5" y="384.48"/>
      </g>
     </g>
     <g id="text_2">
      <!-- $250$ -->
      <defs>
       <path d="M 41.703125 15.453125 
L 39.90625 15.453125 
C 38.90625 8.375 38.09375 7.171875 37.703125 6.5625 
C 37.203125 5.765625 30 5.765625 28.59375 5.765625 
L 9.40625 5.765625 
C 13 9.671875 20 16.75 28.5 24.953125 
C 34.59375 30.734375 41.703125 37.53125 41.703125 47.421875 
C 41.703125 59.21875 32.296875 66 21.796875 66 
C 10.796875 66 4.09375 56.3125 4.09375 47.34375 
C 4.09375 43.4375 7 42.9375 8.203125 42.9375 
C 9.203125 42.9375 12.203125 43.546875 12.203125 47.03125 
C 12.203125 50.109375 9.59375 51 8.203125 51 
C 7.59375 51 7 50.90625 6.59375 50.703125 
C 8.5 59.21875 14.296875 63.40625 20.40625 63.40625 
C 29.09375 63.40625 34.796875 56.515625 34.796875 47.421875 
C 34.796875 38.734375 29.703125 31.25 24 24.75 
L 4.09375 2.28125 
L 4.09375 0 
L 39.296875 0 
z
" id="CMR17-50"/>
       <path d="M 11.40625 57.6875 
C 12.40625 57.28125 16.5 56 20.703125 56 
C 30 56 35.09375 61.109375 38 64.0625 
C 38 64.953125 38 65.5 37.40625 65.5 
C 37.296875 65.5 37.09375 65.5 36.296875 65.046875 
C 32.796875 63.40625 28.703125 62.078125 23.703125 62.078125 
C 20.703125 62.078125 16.203125 62.484375 11.296875 64.671875 
C 10.203125 65.171875 10 65.171875 9.90625 65.171875 
C 9.40625 65.171875 9.296875 65.0625 9.296875 63.078125 
L 9.296875 34.421875 
C 9.296875 32.640625 9.296875 32.140625 10.296875 32.140625 
C 10.796875 32.140625 11 32.34375 11.5 33.03125 
C 14.703125 37.515625 19.09375 39.40625 24.09375 39.40625 
C 27.59375 39.40625 35.09375 37.21875 35.09375 20.140625 
C 35.09375 16.953125 35.09375 11.171875 32.09375 6.578125 
C 29.59375 2.484375 25.703125 0.390625 21.40625 0.390625 
C 14.796875 0.390625 8.09375 5 6.296875 12.71875 
C 6.703125 12.609375 7.5 12.421875 7.90625 12.421875 
C 9.203125 12.421875 11.703125 13.125 11.703125 16.21875 
C 11.703125 18.90625 9.796875 20 7.90625 20 
C 5.59375 20 4.09375 18.59375 4.09375 15.796875 
C 4.09375 7.09375 11 -2 21.59375 -2 
C 31.90625 -2 41.703125 6.875 41.703125 19.75 
C 41.703125 31.71875 33.90625 41 24.203125 41 
C 19.09375 41 14.796875 39.109375 11.40625 35.53125 
z
" id="CMR17-53"/>
      </defs>
      <g transform="translate(139.987229 398.398498)scale(0.1 -0.1)">
       <use transform="scale(0.996264)" xlink:href="#CMR17-50"/>
       <use transform="translate(45.690477 0)scale(0.996264)" xlink:href="#CMR17-53"/>
       <use transform="translate(91.380954 0)scale(0.996264)" xlink:href="#CMR17-48"/>
      </g>
     </g>
    </g>
    <g id="xtick_3">
     <g id="line2d_5">
      <path clip-path="url(#peeb360ea93)" d="M 202.627555 384.48 
L 202.627555 51.84 
" style="fill:none;stroke:#b0b0b0;stroke-dasharray:5.12,1.28,0.8,1.28;stroke-dashoffset:0;stroke-width:0.8;"/>
     </g>
     <g id="line2d_6">
      <g>
       <use style="stroke:#000000;stroke-width:0.8;" x="202.627555" xlink:href="#m25dd3a8af5" y="384.48"/>
      </g>
     </g>
     <g id="text_3">
      <!-- $500$ -->
      <g transform="translate(195.155552 398.398498)scale(0.1 -0.1)">
       <use transform="scale(0.996264)" xlink:href="#CMR17-53"/>
       <use transform="translate(45.690477 0)scale(0.996264)" xlink:href="#CMR17-48"/>
       <use transform="translate(91.380954 0)scale(0.996264)" xlink:href="#CMR17-48"/>
      </g>
     </g>
    </g>
    <g id="xtick_4">
     <g id="line2d_7">
      <path clip-path="url(#peeb360ea93)" d="M 257.795877 384.48 
L 257.795877 51.84 
" style="fill:none;stroke:#b0b0b0;stroke-dasharray:5.12,1.28,0.8,1.28;stroke-dashoffset:0;stroke-width:0.8;"/>
     </g>
     <g id="line2d_8">
      <g>
       <use style="stroke:#000000;stroke-width:0.8;" x="257.795877" xlink:href="#m25dd3a8af5" y="384.48"/>
      </g>
     </g>
     <g id="text_4">
      <!-- $750$ -->
      <defs>
       <path d="M 45.09375 61.578125 
L 45.09375 63.765625 
L 21.59375 63.765625 
C 9.90625 63.765625 9.703125 65.078125 9.296875 67 
L 7.5 67 
L 4.59375 48.34375 
L 6.40625 48.34375 
C 6.703125 50.234375 7.40625 55.3125 8.59375 57.203125 
C 9.203125 58 16.59375 58 18.296875 58 
L 40.296875 58 
L 29.203125 41.578125 
C 21.796875 30.53125 16.703125 15.609375 16.703125 2.578125 
C 16.703125 1.390625 16.703125 -2 20.296875 -2 
C 23.90625 -2 23.90625 1.390625 23.90625 2.671875 
L 23.90625 7.265625 
C 23.90625 23.5625 26.703125 34.3125 31.296875 41.1875 
z
" id="CMR17-55"/>
      </defs>
      <g transform="translate(250.323874 398.398498)scale(0.1 -0.1)">
       <use transform="scale(0.996264)" xlink:href="#CMR17-55"/>
       <use transform="translate(45.690477 0)scale(0.996264)" xlink:href="#CMR17-53"/>
       <use transform="translate(91.380954 0)scale(0.996264)" xlink:href="#CMR17-48"/>
      </g>
     </g>
    </g>
    <g id="xtick_5">
     <g id="line2d_9">
      <path clip-path="url(#peeb360ea93)" d="M 312.9642 384.48 
L 312.9642 51.84 
" style="fill:none;stroke:#b0b0b0;stroke-dasharray:5.12,1.28,0.8,1.28;stroke-dashoffset:0;stroke-width:0.8;"/>
     </g>
     <g id="line2d_10">
      <g>
       <use style="stroke:#000000;stroke-width:0.8;" x="312.9642" xlink:href="#m25dd3a8af5" y="384.48"/>
      </g>
     </g>
     <g id="text_5">
      <!-- $1000$ -->
      <defs>
       <path d="M 26.59375 63.40625 
C 26.59375 65.5 26.5 65.5 25.09375 65.5 
C 21.203125 61.1875 15.296875 59.796875 9.703125 59.796875 
C 9.40625 59.796875 8.90625 59.796875 8.796875 59.5 
C 8.703125 59.296875 8.703125 59.09375 8.703125 57 
C 11.796875 57 17 57.59375 21 59.984375 
L 21 7.203125 
C 21 3.6875 20.796875 2.5 12.203125 2.5 
L 9.203125 2.5 
L 9.203125 0 
C 14 0 19 0 23.796875 0 
C 28.59375 0 33.59375 0 38.40625 0 
L 38.40625 2.5 
L 35.40625 2.5 
C 26.796875 2.5 26.59375 3.59375 26.59375 7.15625 
z
" id="CMR17-49"/>
      </defs>
      <g transform="translate(303.001529 398.398498)scale(0.1 -0.1)">
       <use transform="scale(0.996264)" xlink:href="#CMR17-49"/>
       <use transform="translate(45.690477 0)scale(0.996264)" xlink:href="#CMR17-48"/>
       <use transform="translate(91.380954 0)scale(0.996264)" xlink:href="#CMR17-48"/>
       <use transform="translate(137.071431 0)scale(0.996264)" xlink:href="#CMR17-48"/>
      </g>
     </g>
    </g>
    <g id="xtick_6">
     <g id="line2d_11">
      <path clip-path="url(#peeb360ea93)" d="M 368.132523 384.48 
L 368.132523 51.84 
" style="fill:none;stroke:#b0b0b0;stroke-dasharray:5.12,1.28,0.8,1.28;stroke-dashoffset:0;stroke-width:0.8;"/>
     </g>
     <g id="line2d_12">
      <g>
       <use style="stroke:#000000;stroke-width:0.8;" x="368.132523" xlink:href="#m25dd3a8af5" y="384.48"/>
      </g>
     </g>
     <g id="text_6">
      <!-- $1250$ -->
      <g transform="translate(358.169852 398.398498)scale(0.1 -0.1)">
       <use transform="scale(0.996264)" xlink:href="#CMR17-49"/>
       <use transform="translate(45.690477 0)scale(0.996264)" xlink:href="#CMR17-50"/>
       <use transform="translate(91.380954 0)scale(0.996264)" xlink:href="#CMR17-53"/>
       <use transform="translate(137.071431 0)scale(0.996264)" xlink:href="#CMR17-48"/>
      </g>
     </g>
    </g>
    <g id="xtick_7">
     <g id="line2d_13">
      <path clip-path="url(#peeb360ea93)" d="M 423.300845 384.48 
L 423.300845 51.84 
" style="fill:none;stroke:#b0b0b0;stroke-dasharray:5.12,1.28,0.8,1.28;stroke-dashoffset:0;stroke-width:0.8;"/>
     </g>
     <g id="line2d_14">
      <g>
       <use style="stroke:#000000;stroke-width:0.8;" x="423.300845" xlink:href="#m25dd3a8af5" y="384.48"/>
      </g>
     </g>
     <g id="text_7">
      <!-- $1500$ -->
      <g transform="translate(413.338175 398.398498)scale(0.1 -0.1)">
       <use transform="scale(0.996264)" xlink:href="#CMR17-49"/>
       <use transform="translate(45.690477 0)scale(0.996264)" xlink:href="#CMR17-53"/>
       <use transform="translate(91.380954 0)scale(0.996264)" xlink:href="#CMR17-48"/>
       <use transform="translate(137.071431 0)scale(0.996264)" xlink:href="#CMR17-48"/>
      </g>
     </g>
    </g>
    <g id="xtick_8">
     <g id="line2d_15">
      <path clip-path="url(#peeb360ea93)" d="M 478.469168 384.48 
L 478.469168 51.84 
" style="fill:none;stroke:#b0b0b0;stroke-dasharray:5.12,1.28,0.8,1.28;stroke-dashoffset:0;stroke-width:0.8;"/>
     </g>
     <g id="line2d_16">
      <g>
       <use style="stroke:#000000;stroke-width:0.8;" x="478.469168" xlink:href="#m25dd3a8af5" y="384.48"/>
      </g>
     </g>
     <g id="text_8">
      <!-- $1750$ -->
      <g transform="translate(468.506498 398.398498)scale(0.1 -0.1)">
       <use transform="scale(0.996264)" xlink:href="#CMR17-49"/>
       <use transform="translate(45.690477 0)scale(0.996264)" xlink:href="#CMR17-55"/>
       <use transform="translate(91.380954 0)scale(0.996264)" xlink:href="#CMR17-53"/>
       <use transform="translate(137.071431 0)scale(0.996264)" xlink:href="#CMR17-48"/>
      </g>
     </g>
    </g>
    <g id="text_9">
     <!-- Iteration -->
     <defs>
      <path d="M 17.09375 69 
L 8.703125 69 
L 8.703125 0 
L 17.09375 0 
z
" id="CMSS17-73"/>
      <path d="M 16.703125 37 
L 29.703125 37 
L 29.703125 42.765625 
L 16.703125 42.765625 
L 16.703125 55 
L 9.59375 55 
L 9.59375 42.765625 
L 1.703125 42.765625 
L 1.703125 37 
L 9.40625 37 
L 9.40625 11.703125 
C 9.40625 6 10.703125 -1 17.296875 -1 
C 22.296875 -1 26.90625 0.390625 31.296875 2.6875 
L 29.703125 8.5625 
C 27.296875 6.46875 24.40625 5.265625 21.296875 5.265625 
C 16.90625 5.265625 16.703125 10.875 16.703125 13.375 
z
" id="CMSS17-116"/>
      <path d="M 39.09375 21.515625 
C 39.09375 24.84375 38.90625 31.296875 35.703125 36.640625 
C 32.203125 42.390625 26.5 44 22.203125 44 
C 11.796875 44 3 34.1875 3 21.484375 
C 3 9.09375 12.09375 -1 23.59375 -1 
C 28.09375 -1 33.59375 0.296875 38.59375 3.875 
C 38.59375 4.28125 38.40625 6.46875 38.296875 6.5625 
C 38.296875 6.765625 38 9.84375 38 10.25 
C 33.203125 6.359375 27.703125 5.078125 23.703125 5.078125 
C 17.296875 5.078125 10.40625 10.421875 10.09375 21.515625 
z
M 10.90625 27 
C 12.203125 32.5625 16.59375 37.828125 22.203125 37.828125 
C 23.703125 37.828125 30.703125 37.828125 32.5 27 
z
" id="CMSS17-101"/>
      <path d="M 14.90625 21.296875 
C 14.90625 30.703125 21.796875 37 30.59375 37 
L 30.59375 43.578125 
C 24.203125 43.578125 18.203125 40.390625 14.59375 35.203125 
L 14.59375 43.09375 
L 7.5 43.09375 
L 7.5 0 
L 14.90625 0 
z
" id="CMSS17-114"/>
      <path d="M 37.59375 27.984375 
C 37.59375 37.375 30.90625 43.875 21.90625 43.875 
C 17.5 43.875 12.703125 43.078125 7.203125 39.890625 
L 7.796875 33.359375 
C 10.296875 35.125 14.59375 38 21.796875 38 
C 26.90625 38 30 34.0625 30 27.84375 
L 30 24 
C 14 24 4 19.34375 4 11.34375 
C 4 7.203125 6.5 -1 14.796875 -1 
C 16.296875 -1 24.40625 -1 30.203125 3.390625 
L 30.203125 -0.296875 
L 37.59375 -0.296875 
z
M 30 12.75 
C 30 10.953125 30 8.5625 27 6.78125 
C 24.40625 5.078125 21.09375 5.078125 19.703125 5.078125 
C 14.703125 5.078125 11.296875 7.984375 11.296875 11.625 
C 11.296875 18.921875 26.90625 18.921875 30 18.921875 
z
" id="CMSS17-97"/>
      <path d="M 15.296875 65.359375 
L 6.90625 65.359375 
L 6.90625 57 
L 15.296875 57 
z
M 14.796875 42.796875 
L 7.40625 42.796875 
L 7.40625 0 
L 14.796875 0 
z
" id="CMSS17-105"/>
      <path d="M 44.203125 21.1875 
C 44.203125 34 34.703125 44 23.5 44 
C 12 44 2.703125 33.703125 2.703125 21.1875 
C 2.703125 8.5 12.296875 -1 23.40625 -1 
C 34.796875 -1 44.203125 8.796875 44.203125 21.1875 
z
M 23.5 5.265625 
C 16.40625 5.265625 10.296875 11.078125 10.296875 22 
C 10.296875 33.609375 17.40625 37.921875 23.40625 37.921875 
C 29.90625 37.921875 36.59375 33.21875 36.59375 22 
C 36.59375 10.671875 30.09375 5.265625 23.5 5.265625 
z
" id="CMSS17-111"/>
      <path d="M 40.90625 29.328125 
C 40.90625 35.671875 39.40625 44 28.09375 44 
C 21.703125 44 17.5 40.71875 14.703125 37.328125 
L 14.703125 43.09375 
L 7.40625 43.09375 
L 7.40625 0 
L 15 0 
L 15 24.359375 
C 15 30.6875 17.40625 37.9375 24.203125 37.9375 
C 33 37.9375 33.296875 32 33.296875 28.578125 
L 33.296875 0 
L 40.90625 0 
z
" id="CMSS17-110"/>
     </defs>
     <g transform="translate(271.264003 414.021553)scale(0.14 -0.14)">
      <use transform="scale(0.996264)" xlink:href="#CMSS17-73"/>
      <use transform="translate(25.783926 0)scale(0.996264)" xlink:href="#CMSS17-116"/>
      <use transform="translate(59.615492 0)scale(0.996264)" xlink:href="#CMSS17-101"/>
      <use transform="translate(101.254314 0)scale(0.996264)" xlink:href="#CMSS17-114"/>
      <use transform="translate(133.164087 0)scale(0.996264)" xlink:href="#CMSS17-97"/>
      <use transform="translate(178.086007 0)scale(0.996264)" xlink:href="#CMSS17-116"/>
      <use transform="translate(211.917574 0)scale(0.996264)" xlink:href="#CMSS17-105"/>
      <use transform="translate(234.098297 0)scale(0.996264)" xlink:href="#CMSS17-111"/>
      <use transform="translate(280.941921 0)scale(0.996264)" xlink:href="#CMSS17-110"/>
     </g>
    </g>
   </g>
   <g id="matplotlib.axis_2">
    <g id="ytick_1">
     <g id="line2d_17">
      <path clip-path="url(#peeb360ea93)" d="M 72 368.020002 
L 518.4 368.020002 
" style="fill:none;stroke:#b0b0b0;stroke-dasharray:5.12,1.28,0.8,1.28;stroke-dashoffset:0;stroke-width:0.8;"/>
     </g>
     <g id="line2d_18">
      <defs>
       <path d="M 0 0 
L -3.5 0 
" id="mf225344529" style="stroke:#000000;stroke-width:0.8;"/>
      </defs>
      <g>
       <use style="stroke:#000000;stroke-width:0.8;" x="72" xlink:href="#mf225344529" y="368.020002"/>
      </g>
     </g>
     <g id="text_10">
      <!-- $-50$ -->
      <defs>
       <path d="M 65.90625 23 
C 67.59375 23 69.40625 23 69.40625 25 
C 69.40625 27 67.59375 27 65.90625 27 
L 11.796875 27 
C 10.09375 27 8.296875 27 8.296875 25 
C 8.296875 23 10.09375 23 11.796875 23 
z
" id="CMSY10-0"/>
      </defs>
      <g transform="translate(47.288586 371.479251)scale(0.1 -0.1)">
       <use transform="scale(0.996264)" xlink:href="#CMSY10-0"/>
       <use transform="translate(77.487468 0)scale(0.996264)" xlink:href="#CMR17-53"/>
       <use transform="translate(123.177945 0)scale(0.996264)" xlink:href="#CMR17-48"/>
      </g>
     </g>
    </g>
    <g id="ytick_2">
     <g id="line2d_19">
      <path clip-path="url(#peeb360ea93)" d="M 72 308.225368 
L 518.4 308.225368 
" style="fill:none;stroke:#b0b0b0;stroke-dasharray:5.12,1.28,0.8,1.28;stroke-dashoffset:0;stroke-width:0.8;"/>
     </g>
     <g id="line2d_20">
      <g>
       <use style="stroke:#000000;stroke-width:0.8;" x="72" xlink:href="#mf225344529" y="308.225368"/>
      </g>
     </g>
     <g id="text_11">
      <!-- $-40$ -->
      <defs>
       <path d="M 33.59375 64.40625 
C 33.59375 66.5 33.5 66.5 31.703125 66.5 
L 2 19.59375 
L 2 17 
L 27.796875 17 
L 27.796875 7.140625 
C 27.796875 3.5 27.59375 2.5 20.59375 2.5 
L 18.703125 2.5 
L 18.703125 0 
C 21.90625 0 27.296875 0 30.703125 0 
C 34.09375 0 39.5 0 42.703125 0 
L 42.703125 2.5 
L 40.796875 2.5 
C 33.796875 2.5 33.59375 3.5 33.59375 7.140625 
L 33.59375 17 
L 43.796875 17 
L 43.796875 19.59375 
L 33.59375 19.59375 
z
M 28.09375 57.859375 
L 28.09375 19.59375 
L 4 19.59375 
z
" id="CMR17-52"/>
      </defs>
      <g transform="translate(47.288586 311.684618)scale(0.1 -0.1)">
       <use transform="scale(0.996264)" xlink:href="#CMSY10-0"/>
       <use transform="translate(77.487468 0)scale(0.996264)" xlink:href="#CMR17-52"/>
       <use transform="translate(123.177945 0)scale(0.996264)" xlink:href="#CMR17-48"/>
      </g>
     </g>
    </g>
    <g id="ytick_3">
     <g id="line2d_21">
      <path clip-path="url(#peeb360ea93)" d="M 72 248.430734 
L 518.4 248.430734 
" style="fill:none;stroke:#b0b0b0;stroke-dasharray:5.12,1.28,0.8,1.28;stroke-dashoffset:0;stroke-width:0.8;"/>
     </g>
     <g id="line2d_22">
      <g>
       <use style="stroke:#000000;stroke-width:0.8;" x="72" xlink:href="#mf225344529" y="248.430734"/>
      </g>
     </g>
     <g id="text_12">
      <!-- $-30$ -->
      <defs>
       <path d="M 22.09375 33.703125 
C 31 33.703125 34.90625 25.96875 34.90625 17.03125 
C 34.90625 5 28.5 0.390625 22.703125 0.390625 
C 17.40625 0.390625 8.796875 3.03125 6.09375 10.828125 
C 6.59375 10.625 7.09375 10.625 7.59375 10.625 
C 10 10.625 11.796875 12.21875 11.796875 14.8125 
C 11.796875 17.703125 9.59375 19 7.59375 19 
C 5.90625 19 3.296875 18.203125 3.296875 14.46875 
C 3.296875 5.234375 12.296875 -2 22.90625 -2 
C 34 -2 42.5 6.71875 42.5 16.953125 
C 42.5 26.671875 34.5 33.703125 25 34.796875 
C 32.59375 36.375 39.90625 43.0625 39.90625 52.015625 
C 39.90625 59.6875 32 65.296875 23 65.296875 
C 13.90625 65.296875 5.90625 59.828125 5.90625 52.015625 
C 5.90625 48.59375 8.5 48 9.796875 48 
C 11.90625 48 13.703125 49.296875 13.703125 51.890625 
C 13.703125 54.46875 11.90625 55.765625 9.796875 55.765625 
C 9.40625 55.765625 8.90625 55.765625 8.5 55.578125 
C 11.40625 61.859375 19.296875 63 22.796875 63 
C 26.296875 63 32.90625 61.328125 32.90625 51.875 
C 32.90625 49.109375 32.5 44.1875 29.09375 39.84375 
C 26.09375 36 22.703125 36 19.40625 35.6875 
C 18.90625 35.6875 16.59375 35.453125 16.203125 35.453125 
C 15.5 35.359375 15.09375 35.265625 15.09375 34.5 
C 15.09375 33.796875 15.203125 33.703125 17.203125 33.703125 
z
" id="CMR17-51"/>
      </defs>
      <g transform="translate(47.288586 251.889984)scale(0.1 -0.1)">
       <use transform="scale(0.996264)" xlink:href="#CMSY10-0"/>
       <use transform="translate(77.487468 0)scale(0.996264)" xlink:href="#CMR17-51"/>
       <use transform="translate(123.177945 0)scale(0.996264)" xlink:href="#CMR17-48"/>
      </g>
     </g>
    </g>
    <g id="ytick_4">
     <g id="line2d_23">
      <path clip-path="url(#peeb360ea93)" d="M 72 188.636101 
L 518.4 188.636101 
" style="fill:none;stroke:#b0b0b0;stroke-dasharray:5.12,1.28,0.8,1.28;stroke-dashoffset:0;stroke-width:0.8;"/>
     </g>
     <g id="line2d_24">
      <g>
       <use style="stroke:#000000;stroke-width:0.8;" x="72" xlink:href="#mf225344529" y="188.636101"/>
      </g>
     </g>
     <g id="text_13">
      <!-- $-20$ -->
      <g transform="translate(47.288586 192.09535)scale(0.1 -0.1)">
       <use transform="scale(0.996264)" xlink:href="#CMSY10-0"/>
       <use transform="translate(77.487468 0)scale(0.996264)" xlink:href="#CMR17-50"/>
       <use transform="translate(123.177945 0)scale(0.996264)" xlink:href="#CMR17-48"/>
      </g>
     </g>
    </g>
    <g id="ytick_5">
     <g id="line2d_25">
      <path clip-path="url(#peeb360ea93)" d="M 72 128.841467 
L 518.4 128.841467 
" style="fill:none;stroke:#b0b0b0;stroke-dasharray:5.12,1.28,0.8,1.28;stroke-dashoffset:0;stroke-width:0.8;"/>
     </g>
     <g id="line2d_26">
      <g>
       <use style="stroke:#000000;stroke-width:0.8;" x="72" xlink:href="#mf225344529" y="128.841467"/>
      </g>
     </g>
     <g id="text_14">
      <!-- $-10$ -->
      <g transform="translate(47.288586 132.300716)scale(0.1 -0.1)">
       <use transform="scale(0.996264)" xlink:href="#CMSY10-0"/>
       <use transform="translate(77.487468 0)scale(0.996264)" xlink:href="#CMR17-49"/>
       <use transform="translate(123.177945 0)scale(0.996264)" xlink:href="#CMR17-48"/>
      </g>
     </g>
    </g>
    <g id="ytick_6">
     <g id="line2d_27">
      <path clip-path="url(#peeb360ea93)" d="M 72 69.046833 
L 518.4 69.046833 
" style="fill:none;stroke:#b0b0b0;stroke-dasharray:5.12,1.28,0.8,1.28;stroke-dashoffset:0;stroke-width:0.8;"/>
     </g>
     <g id="line2d_28">
      <g>
       <use style="stroke:#000000;stroke-width:0.8;" x="72" xlink:href="#mf225344529" y="69.046833"/>
      </g>
     </g>
     <g id="text_15">
      <!-- $0$ -->
      <g transform="translate(60.018665 72.506082)scale(0.1 -0.1)">
       <use transform="scale(0.996264)" xlink:href="#CMR17-48"/>
      </g>
     </g>
    </g>
    <g id="text_16">
     <!-- $\partial \mathcal{L}/ \partial \mu^{\underline{U}}_{m}$ -->
     <defs>
      <path d="M 45.40625 33.515625 
C 44.796875 39.125 41.296875 45.859375 32.296875 45.859375 
C 18.203125 45.859375 3.796875 31.515625 3.796875 15.5625 
C 3.796875 9.4375 8 -2.09375 21.59375 -2.09375 
C 45.203125 -2.09375 55.296875 32.296875 55.296875 46 
C 55.296875 60.40625 47.203125 71.5 34.40625 71.5 
C 19.90625 71.5 15.59375 58.796875 15.59375 56.09375 
C 15.59375 55.203125 16.203125 53 19 53 
C 22.5 53 24 56.203125 24 57.90625 
C 24 61 20.90625 61 19.59375 61 
C 23.703125 68.40625 31.296875 69.09375 34 69.09375 
C 42.796875 69.09375 48.40625 62.109375 48.40625 50.96875 
C 48.40625 44.578125 46.5 37.1875 45.5 33.515625 
z
M 21.90625 0.59375 
C 12.5 0.59375 10.90625 8.03125 10.90625 12.25 
C 10.90625 16.65625 13.703125 27 15.203125 30.703125 
C 16.5 33.71875 22.203125 43.859375 32.59375 43.859375 
C 41.703125 43.859375 43.796875 35.921875 43.796875 30.515625 
C 43.796875 23.078125 37.296875 0.59375 21.90625 0.59375 
z
" id="CMMI12-64"/>
      <path d="M 18 9.53125 
C 23.40625 17.984375 25.09375 24.40625 26.40625 29.734375 
C 29.90625 43.59375 33.703125 55.65625 39.90625 62.578125 
C 41.09375 63.90625 41.90625 64.796875 45.09375 64.796875 
C 52 64.796875 52.203125 57.875 52.203125 56.453125 
C 52.203125 54.65625 51.703125 53.234375 51.703125 52.734375 
C 51.703125 52.03125 52.296875 52.03125 52.40625 52.03125 
C 54 52.03125 56.703125 53.140625 59.203125 54.953125 
C 61 56.359375 61.90625 57.359375 61.90625 61.46875 
C 61.90625 66.890625 59.09375 71 53.5 71 
C 50.296875 71 41.5 70.203125 31.703125 60.25 
C 23.703125 52.015625 19 33.9375 17.09375 26.40625 
C 15.296875 19.5 14.5 16.375 11.5 10.34375 
C 10.796875 9.15625 8.203125 4.734375 6.796875 3.421875 
C 4.09375 0.921875 3.09375 -0.890625 3.09375 -1.390625 
C 3.09375 -1.59375 3.296875 -2 4 -2 
C 4.40625 -2 6.5 -1.59375 9.09375 0.078125 
C 10.796875 1.0625 11 1.25 13.296875 3.609375 
C 18.296875 3.609375 21.796875 2.703125 28.09375 0.90625 
C 33.203125 -0.5 38.296875 -2 43.40625 -2 
C 51.5 -2 59.703125 4.125 62.90625 8.53125 
C 64.90625 11.234375 65.5 13.75 65.5 14.046875 
C 65.5 14.75 64.90625 14.75 64.796875 14.75 
C 63.203125 14.75 60.796875 13.65625 59.09375 12.4375 
C 56.40625 10.734375 56.203125 10.140625 55.59375 8.421875 
C 55.09375 6.8125 54.5 6.015625 54.09375 5.40625 
C 53.296875 4.203125 53.203125 4.203125 51.703125 4.203125 
C 46.90625 4.203125 41.90625 5.71875 35.296875 7.515625 
C 32.5 8.3125 27 9.9375 22 9.9375 
C 20.703125 9.9375 19.296875 9.828125 18 9.53125 
z
" id="CMSY10-76"/>
      <path d="M 42.90625 71.28125 
C 42.90625 71.390625 43.5 72.90625 43.5 73.09375 
C 43.5 74.296875 42.5 75 41.703125 75 
C 41.203125 75 40.296875 75 39.5 72.796875 
L 6 -21.296875 
C 6 -21.40625 5.40625 -22.890625 5.40625 -23.09375 
C 5.40625 -24.296875 6.40625 -25 7.203125 -25 
C 7.796875 -25 8.703125 -24.890625 9.40625 -22.796875 
z
" id="CMMI12-61"/>
      <path d="M 14.40625 2.1875 
C 16.90625 -0.09375 20.59375 -1 24 -1 
C 30.40625 -1 34.796875 3.25 37.09375 6.328125 
C 38.09375 1.078125 42.296875 -1 45.796875 -1 
C 48.796875 -1 51.203125 0.78125 53 4.328125 
C 54.59375 7.703125 56 13.734375 56 14.109375 
C 56 14.609375 55.59375 15 55 15 
C 54.09375 15 54 14.5 53.59375 13.03125 
C 52.09375 7.203125 50.203125 1 46.09375 1 
C 43.203125 1 43 3.578125 43 5.59375 
C 43 7.875 43.90625 11.484375 44.59375 14.46875 
L 47.40625 25.234375 
C 47.796875 27.140625 48.90625 31.609375 49.40625 33.421875 
C 50 35.8125 51.09375 40.109375 51.09375 40.5 
C 51.09375 42 49.90625 43 48.40625 43 
C 47.5 43 45.40625 42.59375 44.59375 39.609375 
L 37.59375 11.875 
C 37.09375 9.875 37.09375 9.671875 35.796875 8.078125 
C 34.59375 6.390625 30.703125 1 24.40625 1 
C 18.796875 1 17 5.09375 17 9.765625 
C 17 12.671875 17.90625 16.15625 18.296875 17.859375 
L 22.796875 35.828125 
C 23.296875 37.71875 24.09375 40.90625 24.09375 41.515625 
C 24.09375 43.109375 22.796875 44 21.5 44 
C 20.59375 44 18.40625 43.703125 17.59375 40.5 
L 3.09375 -17.296875 
C 3 -17.796875 2.796875 -18.390625 2.796875 -19 
C 2.796875 -20.5 4 -21.5 5.5 -21.5 
C 8.40625 -21.5 9 -19.1875 9.703125 -16.40625 
z
" id="CMMI12-22"/>
      <path d="M 50.59375 23.03125 
C 47.09375 9.078125 35.5 0.890625 26.09375 0.890625 
C 18.90625 0.890625 14 5.671875 14 13.921875 
C 14 14.3125 14 17.296875 15.09375 21.671875 
L 24.90625 60.734375 
C 25.796875 64.109375 26 65.109375 33.09375 65.109375 
C 34.90625 65.109375 35.90625 65.109375 35.90625 66.90625 
C 35.90625 68 35 68 34.40625 68 
C 32.59375 68 30.5 68 28.59375 68 
L 16.796875 68 
C 14.90625 68 12.796875 68 10.90625 68 
C 10.203125 68 9 68 9 66.109375 
C 9 65.109375 9.703125 65.109375 11.59375 65.109375 
C 17.59375 65.109375 17.59375 64.3125 17.59375 63.21875 
C 17.59375 62.625 16.90625 59.75 16.40625 58.046875 
L 7.703125 23.25 
C 7.40625 22.15625 6.796875 19.46875 6.796875 16.796875 
C 6.796875 5.84375 14.703125 -2 25.59375 -2 
C 35.703125 -2 46.90625 6 52 18.703125 
C 52.703125 20.390625 53.59375 23.90625 54.203125 26.59375 
C 55.203125 30.203125 57.296875 39 58 41.59375 
L 61.796875 56.609375 
C 63.09375 61.8125 63.90625 65.109375 72.703125 65.109375 
C 73.5 65.203125 73.90625 66 73.90625 66.90625 
C 73.90625 68 73 68 72.59375 68 
C 71.203125 68 69.40625 68 68 68 
L 63.296875 68 
C 57.09375 68 53.90625 68 53.796875 68 
C 53.203125 68 52 68 52 66.109375 
C 52 65.109375 52.796875 65.109375 53.5 65.109375 
C 59.5 65.109375 59.90625 62.8125 59.90625 61.015625 
C 59.90625 60.125 59.90625 59.8125 59.5 58.421875 
z
" id="CMMI12-85"/>
      <path d="M 20.59375 29.234375 
C 20.796875 29.84375 23.296875 34.828125 27 38.015625 
C 29.59375 40.40625 33 42.015625 36.90625 42.015625 
C 40.90625 42.015625 42.296875 39.015625 42.296875 35.03125 
C 42.296875 34.421875 42.296875 32.4375 41.09375 27.734375 
L 38.59375 17.46875 
C 37.796875 14.46875 35.90625 7.078125 35.703125 5.984375 
C 35.296875 4.484375 34.703125 1.890625 34.703125 1.5 
C 34.703125 0.09375 35.796875 -1 37.296875 -1 
C 40.296875 -1 40.796875 1.296875 41.703125 4.890625 
L 47.703125 28.734375 
C 47.90625 29.53125 53.09375 42.015625 64.09375 42.015625 
C 68.09375 42.015625 69.5 39.015625 69.5 35.03125 
C 69.5 29.4375 65.59375 18.5625 63.40625 12.578125 
C 62.5 10.171875 62 8.875 62 7.078125 
C 62 2.59375 65.09375 -1 69.90625 -1 
C 79.203125 -1 82.703125 13.671875 82.703125 14.265625 
C 82.703125 14.765625 82.296875 15.171875 81.703125 15.171875 
C 80.796875 15.171875 80.703125 14.875 80.203125 13.171875 
C 77.90625 5.1875 74.203125 1 70.203125 1 
C 69.203125 1 67.59375 1 67.59375 4.203125 
C 67.59375 6.8125 68.796875 10 69.203125 11.09375 
C 71 15.90625 75.5 27.703125 75.5 33.515625 
C 75.5 39.5 72 44 64.40625 44 
C 57.703125 44 52.296875 40.21875 48.296875 34.328125 
C 48 39.71875 44.703125 44 37.203125 44 
C 28.296875 44 23.59375 37.734375 21.796875 35.234375 
C 21.5 40.90625 17.40625 44 13 44 
C 10.09375 44 7.796875 42.609375 5.90625 38.8125 
C 4.09375 35.21875 2.703125 29.140625 2.703125 28.734375 
C 2.703125 28.34375 3.09375 27.84375 3.796875 27.84375 
C 4.59375 27.84375 4.703125 27.9375 5.296875 30.234375 
C 6.796875 36.125 8.703125 42.015625 12.703125 42.015625 
C 15 42.015625 15.796875 40.40625 15.796875 37.421875 
C 15.796875 35.21875 14.796875 31.328125 14.09375 28.234375 
L 11.296875 17.46875 
C 10.90625 15.5625 9.796875 11.078125 9.296875 9.28125 
C 8.59375 6.6875 7.5 2 7.5 1.5 
C 7.5 0.09375 8.59375 -1 10.09375 -1 
C 11.296875 -1 12.703125 -0.40625 13.5 1.09375 
C 13.703125 1.59375 14.59375 5.09375 15.09375 7.078125 
L 17.296875 16.0625 
z
" id="CMMI12-109"/>
     </defs>
     <g transform="translate(40.576557 242.881062)rotate(-90)scale(0.14 -0.14)">
      <use transform="translate(0 24.62935)scale(0.996264)" xlink:href="#CMMI12-64"/>
      <use transform="translate(56.915564 24.62935)scale(0.996264)" xlink:href="#CMSY10-76"/>
      <use transform="translate(125.630372 24.62935)scale(0.996264)" xlink:href="#CMMI12-61"/>
      <use transform="translate(174.405291 24.62935)scale(0.996264)" xlink:href="#CMMI12-64"/>
      <use transform="translate(231.320856 24.62935)scale(0.996264)" xlink:href="#CMMI12-22"/>
      <use transform="translate(290.012277 60.782989)scale(0.697382)" xlink:href="#CMMI12-85"/>
      <use transform="translate(290.012277 0)scale(0.697382)" xlink:href="#CMMI12-109"/>
      <path d="M 290.012277 49.625185 
L 344.171317 49.625185 
L 344.171317 52.414636 
L 290.012277 52.414636 
L 290.012277 49.625185 
z
"/>
     </g>
    </g>
   </g>
   <g id="line2d_29">
    <path clip-path="url(#peeb360ea93)" d="M 92.290909 69.046833 
L 92.511582 218.533417 
L 92.732256 218.533417 
L 93.173602 218.043101 
L 93.835622 216.573947 
L 94.718315 213.826384 
L 96.042355 208.799449 
L 98.469761 198.523741 
L 104.869287 170.19125 
L 114.578911 126.245782 
L 125.833249 75.116586 
L 126.715942 72.552592 
L 127.377962 71.454165 
L 128.039982 70.835888 
L 128.702002 70.518379 
L 129.584695 70.380851 
L 130.688062 70.469945 
L 132.453448 70.881332 
L 141.28038 73.258169 
L 146.797212 74.595775 
L 151.431351 75.996763 
L 153.858757 76.455986 
L 155.624144 76.796217 
L 158.71357 77.644105 
L 168.643868 80.545341 
L 172.83666 81.467374 
L 177.250126 82.204044 
L 181.884265 82.761928 
L 185.856384 83.02622 
L 190.490524 83.099768 
L 199.096782 82.944302 
L 200.200148 82.923373 
L 200.420822 83.301276 
L 200.862168 85.807269 
L 201.744861 93.298938 
L 203.068901 106.853186 
L 205.496307 132.68387 
L 206.599674 140.107972 
L 207.482367 144.862243 
L 208.36506 148.510911 
L 209.247753 151.080885 
L 210.130446 152.863961 
L 211.895833 155.417192 
L 215.205932 160.352043 
L 224.032864 174.089262 
L 242.56942 202.8158 
L 259.781937 229.106305 
L 280.08388 259.655981 
L 298.620436 287.132811 
L 318.039686 315.510747 
L 338.341628 344.750323 
L 354.892125 368.275923 
L 355.333472 368.521081 
L 356.878185 368.877457 
L 359.305591 369.178822 
L 362.395017 369.338474 
L 366.58781 369.334886 
L 373.428682 369.080759 
L 384.241673 368.591041 
L 385.565713 367.12667 
L 388.434465 361.894042 
L 389.096485 361.186671 
L 389.758505 360.7998 
L 390.199852 360.734026 
L 390.641198 360.825512 
L 391.303218 361.255435 
L 391.965238 361.767875 
L 393.509951 362.514112 
L 401.45419 366.159791 
L 405.867655 368.192809 
L 407.633042 368.359038 
L 410.281121 368.364419 
L 419.770073 367.976352 
L 425.066232 367.754514 
L 428.155658 367.900413 
L 431.907104 368.073817 
L 440.734035 368.036745 
L 455.739819 368.024786 
L 494.798992 368.020002 
L 498.109091 368.019404 
L 498.109091 368.019404 
" style="fill:none;stroke:#bf00bf;stroke-linecap:square;stroke-width:1.5;"/>
   </g>
   <g id="line2d_30">
    <path clip-path="url(#peeb360ea93)" d="M 92.290909 69.046833 
L 92.511582 218.533417 
L 92.732256 218.533417 
L 92.952929 218.404859 
L 93.394276 217.754293 
L 94.056295 216.008888 
L 94.938989 212.885814 
L 96.704375 205.636911 
L 101.338514 185.339622 
L 110.827466 142.764049 
L 120.316417 99.183926 
L 124.950556 77.986728 
L 126.053923 74.323709 
L 126.715942 72.666202 
L 127.377962 71.611425 
L 128.039982 70.990756 
L 128.702002 70.664278 
L 129.584695 70.52376 
L 130.688062 70.624215 
L 132.453448 71.070881 
L 141.28038 73.637267 
L 147.459232 75.198505 
L 151.210678 76.2479 
L 153.638084 76.687391 
L 155.844817 77.059912 
L 159.154916 77.918563 
L 168.202521 80.359977 
L 172.615987 81.264072 
L 177.029453 81.947525 
L 182.104938 82.525739 
L 186.297731 82.770299 
L 190.93187 82.815743 
L 200.641495 82.688381 
L 201.082841 83.110531 
L 201.524188 83.941078 
L 202.186208 85.924466 
L 202.848228 88.669638 
L 203.730921 93.331825 
L 205.054961 101.92252 
L 206.158327 109.05901 
L 207.261694 114.826202 
L 208.144387 118.325982 
L 209.02708 120.843336 
L 209.909773 122.662289 
L 211.01314 124.23429 
L 213.219872 127.474561 
L 218.516031 135.794387 
L 241.466054 171.966552 
L 259.781937 200.348075 
L 276.994454 226.63559 
L 294.648317 253.225666 
L 313.405546 281.082192 
L 332.824796 309.510355 
L 353.126739 338.800756 
L 355.554145 342.094843 
L 356.657511 343.040196 
L 357.981551 343.851011 
L 359.526264 344.509948 
L 361.291651 344.994883 
L 363.27771 345.288474 
L 365.484443 345.383548 
L 368.132523 345.271732 
L 371.883969 344.856159 
L 378.283494 343.877919 
L 385.565713 342.662892 
L 386.227732 342.286186 
L 387.331099 341.32409 
L 389.096485 339.712625 
L 389.979178 339.187628 
L 390.641198 339.004656 
L 391.303218 339.033358 
L 392.406585 339.444147 
L 397.702744 341.701992 
L 407.191695 345.810481 
L 409.177755 346.127991 
L 412.487854 346.395871 
L 419.549399 346.667936 
L 450.664333 347.065571 
L 498.109091 347.124767 
L 498.109091 347.124767 
" style="fill:none;stroke:#00bfbf;stroke-linecap:square;stroke-width:1.5;"/>
   </g>
   <g id="line2d_31">
    <path clip-path="url(#peeb360ea93)" d="M 92.290909 69.046833 
L 92.511582 218.533417 
L 92.732256 218.533417 
L 92.952929 218.266733 
L 93.394276 217.182059 
L 94.056295 214.73885 
L 95.821682 206.78736 
L 100.897167 184.031316 
L 111.268812 137.392099 
L 120.757764 93.679232 
L 124.288536 77.503588 
L 124.950556 75.583582 
L 125.833249 73.705433 
L 126.715942 72.278733 
L 127.598636 71.265214 
L 128.260655 70.81197 
L 129.143349 70.531533 
L 130.026042 70.498048 
L 131.350082 70.699556 
L 133.777488 71.356101 
L 139.29432 72.874287 
L 143.487113 73.790341 
L 152.755391 75.461003 
L 158.05155 76.1026 
L 170.188581 78.132627 
L 175.926086 78.758079 
L 184.532345 79.449903 
L 189.387157 79.537203 
L 197.110722 79.427779 
L 201.082841 79.4218 
L 201.744861 79.75067 
L 202.186208 80.19315 
L 202.848228 81.271846 
L 203.510248 82.862383 
L 204.392941 85.706216 
L 205.496307 90.151947 
L 207.04102 96.477621 
L 207.923713 99.218009 
L 209.02708 101.718023 
L 209.909773 103.315735 
L 212.557853 107.133623 
L 220.943438 120.677107 
L 236.390568 145.292764 
L 253.823758 172.675119 
L 270.374255 198.303697 
L 287.586771 224.593006 
L 307.668041 254.812616 
L 326.425271 282.620708 
L 346.065194 311.320339 
L 355.995492 325.578369 
L 357.319531 327.025399 
L 358.643571 328.148342 
L 359.967611 329.001612 
L 361.512324 329.70958 
L 363.057037 330.162226 
L 364.822423 330.42592 
L 366.808483 330.47256 
L 369.015216 330.29497 
L 371.883969 329.824984 
L 376.076761 328.886208 
L 386.448406 326.287533 
L 387.772445 325.599297 
L 389.758505 324.509241 
L 390.641198 324.250928 
L 391.523891 324.244351 
L 392.406585 324.511035 
L 396.599377 326.297698 
L 404.543616 329.861459 
L 407.191695 331.001742 
L 408.957081 331.472924 
L 411.384488 331.862785 
L 414.91526 332.176109 
L 421.314786 332.499598 
L 430.583064 332.83086 
L 434.99653 332.988718 
L 445.588848 333.0814 
L 481.337921 333.164514 
L 498.109091 333.1687 
L 498.109091 333.1687 
" style="fill:none;stroke:#ff0000;stroke-linecap:square;stroke-width:1.5;"/>
   </g>
   <g id="line2d_32">
    <path clip-path="url(#peeb360ea93)" d="M 92.290909 69.046833 
L 92.511582 218.533417 
L 93.173602 212.772802 
L 94.276969 205.318205 
L 95.601008 198.035817 
L 97.587068 188.516511 
L 103.324574 162.688817 
L 113.254872 117.538487 
L 122.743823 73.334108 
L 123.84719 68.294616 
L 124.288536 67.96156 
L 125.391903 67.617143 
L 127.157289 67.300829 
L 128.922675 67.194395 
L 131.570755 67.320562 
L 144.590479 68.164264 
L 152.976064 68.444103 
L 160.258283 68.650394 
L 173.719353 69.015142 
L 179.236186 69.208278 
L 185.194365 69.409188 
L 191.814563 69.40859 
L 201.524188 69.418755 
L 202.186208 69.67647 
L 202.848228 70.26186 
L 203.510248 71.218574 
L 204.392941 73.044104 
L 205.496307 76.002145 
L 207.04102 80.319915 
L 207.923713 82.092228 
L 208.36506 82.844444 
L 209.468427 84.849359 
L 211.01314 87.153844 
L 215.205932 94.470315 
L 221.164111 104.253913 
L 236.390568 128.718888 
L 255.147798 158.397356 
L 273.243008 186.583949 
L 290.234851 212.672347 
L 307.888714 239.403539 
L 326.204597 266.750614 
L 345.403174 295.009558 
L 356.216165 310.643463 
L 357.760878 312.412787 
L 359.084918 313.613463 
L 360.408957 314.536692 
L 361.732997 315.211175 
L 363.27771 315.730193 
L 364.822423 316.009434 
L 366.58781 316.094342 
L 368.573869 315.962196 
L 371.001275 315.568747 
L 374.311375 314.783644 
L 384.903693 311.891975 
L 387.993119 310.703258 
L 389.758505 310.004857 
L 390.861872 309.826669 
L 391.744565 309.929515 
L 393.068604 310.432986 
L 403.219576 314.89546 
L 407.633042 316.826228 
L 409.619101 317.36139 
L 412.046507 317.76321 
L 415.57728 318.099256 
L 421.976806 318.459818 
L 431.68643 318.884958 
L 436.982589 319.036238 
L 449.11962 319.124734 
L 498.109091 319.21323 
L 498.109091 319.21323 
" style="fill:none;stroke:#008000;stroke-linecap:square;stroke-width:1.5;"/>
   </g>
   <g id="line2d_33">
    <path clip-path="url(#peeb360ea93)" d="M 92.290909 69.046833 
L 92.511582 218.533417 
L 93.835622 206.496758 
L 94.718315 201.020167 
L 96.042355 194.311807 
L 99.131781 180.228975 
L 111.268812 125.379955 
L 120.757764 81.365125 
L 123.626516 67.966942 
L 124.50921 67.535822 
L 126.053923 66.978536 
L 127.377962 66.978536 
L 132.232775 67.141776 
L 153.196737 67.886219 
L 157.830876 68.056634 
L 173.278007 68.616909 
L 188.063117 68.827984 
L 201.082841 68.887181 
L 201.965535 69.198711 
L 202.406881 69.61548 
L 203.068901 70.671453 
L 203.730921 72.192628 
L 204.613614 74.82718 
L 207.482367 84.167102 
L 208.36506 85.908322 
L 209.468427 87.741625 
L 209.909773 88.342561 
L 213.219872 94.893063 
L 216.529972 100.470109 
L 225.79825 115.47916 
L 241.466054 140.48707 
L 258.899244 167.91726 
L 277.4358 196.64619 
L 296.85505 226.281008 
L 314.95026 253.488165 
L 333.486816 280.967984 
L 353.126739 309.670007 
L 355.995492 313.68402 
L 357.319531 315.147793 
L 358.643571 316.310201 
L 359.967611 317.196357 
L 361.291651 317.843335 
L 362.836364 318.343218 
L 364.381077 318.618274 
L 366.146463 318.713347 
L 368.132523 318.607511 
L 370.780602 318.220041 
L 374.311375 317.448093 
L 385.345039 314.647312 
L 386.889752 314.036211 
L 389.979178 312.616088 
L 390.861872 312.498891 
L 391.744565 312.636418 
L 393.730624 313.392821 
L 399.688803 315.960402 
L 407.853715 319.502636 
L 409.839775 319.954684 
L 412.487854 320.312256 
L 416.90132 320.643518 
L 422.859499 320.891666 
L 429.038351 321.113504 
L 434.775856 321.364641 
L 446.030194 321.468086 
L 498.109091 321.557778 
L 498.109091 321.557778 
" style="fill:none;stroke:#0000ff;stroke-linecap:square;stroke-width:1.5;"/>
   </g>
   <g id="line2d_34">
    <path clip-path="url(#peeb360ea93)" d="M 92.290909 69.046833 
L 92.511582 218.533417 
L 93.173602 214.732871 
L 94.497642 208.932791 
L 98.249088 192.973603 
L 105.531307 160.56252 
L 115.020258 117.392588 
L 124.729883 73.162497 
L 125.833249 69.828947 
L 126.274596 68.702416 
L 126.715942 68.33707 
L 127.598636 68.078758 
L 128.922675 67.959168 
L 131.129408 68.051252 
L 144.811152 69.223825 
L 147.679905 69.92103 
L 151.431351 70.787455 
L 159.37559 72.333146 
L 168.202521 74.426556 
L 173.057334 75.291186 
L 177.912146 75.924412 
L 182.987632 76.365696 
L 187.621771 76.537307 
L 193.800623 76.515182 
L 200.641495 76.45479 
L 201.082841 76.836878 
L 201.524188 77.541856 
L 202.186208 79.226869 
L 202.848228 81.64616 
L 203.730921 85.876032 
L 204.834287 92.454638 
L 206.599674 103.037092 
L 207.482367 107.179665 
L 208.36506 110.324264 
L 209.247753 112.589285 
L 210.130446 114.194173 
L 213.881892 120.299803 
L 239.259321 160.527241 
L 255.809818 186.335203 
L 274.787721 215.496448 
L 292.441584 242.227041 
L 310.757467 269.572323 
L 327.528637 294.279466 
L 347.389233 323.142934 
L 355.554145 334.723958 
L 356.657511 335.745849 
L 357.981551 336.63918 
L 359.526264 337.363891 
L 361.070977 337.842846 
L 362.836364 338.166335 
L 365.043097 338.31941 
L 367.470503 338.256027 
L 370.559929 337.948683 
L 375.414741 337.208425 
L 385.565713 335.435514 
L 386.448406 334.944601 
L 387.772445 333.840194 
L 389.317159 332.591084 
L 390.199852 332.152789 
L 390.861872 332.029612 
L 391.523891 332.110933 
L 394.392644 333.199195 
L 399.688803 335.510258 
L 406.971022 338.702095 
L 408.957081 339.078204 
L 411.825834 339.359836 
L 417.342666 339.622933 
L 422.418152 339.707243 
L 427.493638 339.780193 
L 436.320569 340.08096 
L 461.035978 340.172445 
L 498.109091 340.185002 
L 498.109091 340.185002 
" style="fill:none;stroke:#000000;stroke-linecap:square;stroke-width:1.5;"/>
   </g>
   <g id="patch_3">
    <path d="M 72 384.48 
L 72 51.84 
" style="fill:none;stroke:#000000;stroke-linecap:square;stroke-linejoin:miter;stroke-width:0.8;"/>
   </g>
   <g id="patch_4">
    <path d="M 518.4 384.48 
L 518.4 51.84 
" style="fill:none;stroke:#000000;stroke-linecap:square;stroke-linejoin:miter;stroke-width:0.8;"/>
   </g>
   <g id="patch_5">
    <path d="M 72 384.48 
L 518.4 384.48 
" style="fill:none;stroke:#000000;stroke-linecap:square;stroke-linejoin:miter;stroke-width:0.8;"/>
   </g>
   <g id="patch_6">
    <path d="M 72 51.84 
L 518.4 51.84 
" style="fill:none;stroke:#000000;stroke-linecap:square;stroke-linejoin:miter;stroke-width:0.8;"/>
   </g>
   <g id="legend_1">
    <g id="patch_7">
     <path d="M 443.185706 163.330098 
L 511.4 163.330098 
Q 513.4 163.330098 513.4 161.330098 
L 513.4 58.84 
Q 513.4 56.84 511.4 56.84 
L 443.185706 56.84 
Q 441.185706 56.84 441.185706 58.84 
L 441.185706 161.330098 
Q 441.185706 163.330098 443.185706 163.330098 
z
" style="fill:#ffffff;opacity:0.8;stroke:#cccccc;stroke-linejoin:miter;"/>
    </g>
    <g id="line2d_35">
     <path d="M 445.185706 67.651171 
L 465.185706 67.651171 
" style="fill:none;stroke:#bf00bf;stroke-linecap:square;stroke-width:1.5;"/>
    </g>
    <g id="line2d_36"/>
    <g id="text_17">
     <!-- $\partial \mathcal{L}/ \partial \mu^{\underline{U}}_{1}$ -->
     <g transform="translate(473.185706 71.151171)scale(0.1 -0.1)">
      <use transform="translate(0 26.578082)scale(0.996264)" xlink:href="#CMMI12-64"/>
      <use transform="translate(56.915564 26.578082)scale(0.996264)" xlink:href="#CMSY10-76"/>
      <use transform="translate(125.630372 26.578082)scale(0.996264)" xlink:href="#CMMI12-61"/>
      <use transform="translate(174.405291 26.578082)scale(0.996264)" xlink:href="#CMMI12-64"/>
      <use transform="translate(231.320856 26.578082)scale(0.996264)" xlink:href="#CMMI12-22"/>
      <use transform="translate(290.012277 74.841065)scale(0.697382)" xlink:href="#CMMI12-85"/>
      <use transform="translate(290.012277 0)scale(0.697382)" xlink:href="#CMR17-49"/>
      <path d="M 290.012277 63.683261 
L 344.171317 63.683261 
L 344.171317 66.472712 
L 290.012277 66.472712 
L 290.012277 63.683261 
z
"/>
     </g>
    </g>
    <g id="line2d_37">
     <path d="M 445.185706 84.899521 
L 465.185706 84.899521 
" style="fill:none;stroke:#00bfbf;stroke-linecap:square;stroke-width:1.5;"/>
    </g>
    <g id="line2d_38"/>
    <g id="text_18">
     <!-- $\partial \mathcal{L}/ \partial \mu^{\underline{U}}_{2}$ -->
     <g transform="translate(473.185706 88.399521)scale(0.1 -0.1)">
      <use transform="translate(0 26.578082)scale(0.996264)" xlink:href="#CMMI12-64"/>
      <use transform="translate(56.915564 26.578082)scale(0.996264)" xlink:href="#CMSY10-76"/>
      <use transform="translate(125.630372 26.578082)scale(0.996264)" xlink:href="#CMMI12-61"/>
      <use transform="translate(174.405291 26.578082)scale(0.996264)" xlink:href="#CMMI12-64"/>
      <use transform="translate(231.320856 26.578082)scale(0.996264)" xlink:href="#CMMI12-22"/>
      <use transform="translate(290.012277 74.841065)scale(0.697382)" xlink:href="#CMMI12-85"/>
      <use transform="translate(290.012277 0)scale(0.697382)" xlink:href="#CMR17-50"/>
      <path d="M 290.012277 63.683261 
L 344.171317 63.683261 
L 344.171317 66.472712 
L 290.012277 66.472712 
L 290.012277 63.683261 
z
"/>
     </g>
    </g>
    <g id="line2d_39">
     <path d="M 445.185706 102.147871 
L 465.185706 102.147871 
" style="fill:none;stroke:#ff0000;stroke-linecap:square;stroke-width:1.5;"/>
    </g>
    <g id="line2d_40"/>
    <g id="text_19">
     <!-- $\partial \mathcal{L}/ \partial \mu^{\underline{U}}_{3}$ -->
     <g transform="translate(473.185706 105.647871)scale(0.1 -0.1)">
      <use transform="translate(0 26.578082)scale(0.996264)" xlink:href="#CMMI12-64"/>
      <use transform="translate(56.915564 26.578082)scale(0.996264)" xlink:href="#CMSY10-76"/>
      <use transform="translate(125.630372 26.578082)scale(0.996264)" xlink:href="#CMMI12-61"/>
      <use transform="translate(174.405291 26.578082)scale(0.996264)" xlink:href="#CMMI12-64"/>
      <use transform="translate(231.320856 26.578082)scale(0.996264)" xlink:href="#CMMI12-22"/>
      <use transform="translate(290.012277 74.841065)scale(0.697382)" xlink:href="#CMMI12-85"/>
      <use transform="translate(290.012277 0)scale(0.697382)" xlink:href="#CMR17-51"/>
      <path d="M 290.012277 63.683261 
L 344.171317 63.683261 
L 344.171317 66.472712 
L 290.012277 66.472712 
L 290.012277 63.683261 
z
"/>
     </g>
    </g>
    <g id="line2d_41">
     <path d="M 445.185706 119.39622 
L 465.185706 119.39622 
" style="fill:none;stroke:#008000;stroke-linecap:square;stroke-width:1.5;"/>
    </g>
    <g id="line2d_42"/>
    <g id="text_20">
     <!-- $\partial \mathcal{L}/ \partial \mu^{\underline{U}}_{4}$ -->
     <g transform="translate(473.185706 122.89622)scale(0.1 -0.1)">
      <use transform="translate(0 26.578082)scale(0.996264)" xlink:href="#CMMI12-64"/>
      <use transform="translate(56.915564 26.578082)scale(0.996264)" xlink:href="#CMSY10-76"/>
      <use transform="translate(125.630372 26.578082)scale(0.996264)" xlink:href="#CMMI12-61"/>
      <use transform="translate(174.405291 26.578082)scale(0.996264)" xlink:href="#CMMI12-64"/>
      <use transform="translate(231.320856 26.578082)scale(0.996264)" xlink:href="#CMMI12-22"/>
      <use transform="translate(290.012277 74.841065)scale(0.697382)" xlink:href="#CMMI12-85"/>
      <use transform="translate(290.012277 0)scale(0.697382)" xlink:href="#CMR17-52"/>
      <path d="M 290.012277 63.683261 
L 344.171317 63.683261 
L 344.171317 66.472712 
L 290.012277 66.472712 
L 290.012277 63.683261 
z
"/>
     </g>
    </g>
    <g id="line2d_43">
     <path d="M 445.185706 136.64457 
L 465.185706 136.64457 
" style="fill:none;stroke:#0000ff;stroke-linecap:square;stroke-width:1.5;"/>
    </g>
    <g id="line2d_44"/>
    <g id="text_21">
     <!-- $\partial \mathcal{L}/ \partial \mu^{\underline{U}}_{5}$ -->
     <g transform="translate(473.185706 140.14457)scale(0.1 -0.1)">
      <use transform="translate(0 26.578082)scale(0.996264)" xlink:href="#CMMI12-64"/>
      <use transform="translate(56.915564 26.578082)scale(0.996264)" xlink:href="#CMSY10-76"/>
      <use transform="translate(125.630372 26.578082)scale(0.996264)" xlink:href="#CMMI12-61"/>
      <use transform="translate(174.405291 26.578082)scale(0.996264)" xlink:href="#CMMI12-64"/>
      <use transform="translate(231.320856 26.578082)scale(0.996264)" xlink:href="#CMMI12-22"/>
      <use transform="translate(290.012277 74.841065)scale(0.697382)" xlink:href="#CMMI12-85"/>
      <use transform="translate(290.012277 0)scale(0.697382)" xlink:href="#CMR17-53"/>
      <path d="M 290.012277 63.683261 
L 344.171317 63.683261 
L 344.171317 66.472712 
L 290.012277 66.472712 
L 290.012277 63.683261 
z
"/>
     </g>
    </g>
    <g id="line2d_45">
     <path d="M 445.185706 153.89292 
L 465.185706 153.89292 
" style="fill:none;stroke:#000000;stroke-linecap:square;stroke-width:1.5;"/>
    </g>
    <g id="line2d_46"/>
    <g id="text_22">
     <!-- $\partial \mathcal{L}/ \partial \mu^{\underline{U}}_{6}$ -->
     <defs>
      <path d="M 10.59375 34 
C 10.59375 57.65625 21.796875 63 28.296875 63 
C 30.40625 63 35.5 62.640625 37.5 59 
C 35.90625 59 32.90625 59 32.90625 55.515625 
C 32.90625 52.828125 35.09375 51.921875 36.5 51.921875 
C 37.40625 51.921875 40.09375 52.3125 40.09375 55.625 
C 40.09375 61.78125 35.09375 65.296875 28.203125 65.296875 
C 16.296875 65.296875 3.796875 52.96875 3.796875 31 
C 3.796875 3.953125 15.09375 -2 23.09375 -2 
C 32.796875 -2 42 6.671875 42 20.046875 
C 42 32.515625 33.90625 41.59375 23.703125 41.59375 
C 17.59375 41.59375 13.09375 37.609375 10.59375 30.625 
z
M 23.09375 0.390625 
C 10.796875 0.390625 10.796875 18.75 10.796875 22.4375 
C 10.796875 29.625 14.203125 40 23.5 40 
C 25.203125 40 30.09375 40 33.40625 33.125 
C 35.203125 29.21875 35.203125 25.140625 35.203125 20.140625 
C 35.203125 14.75 35.203125 10.78125 33.09375 6.78125 
C 30.90625 2.671875 27.703125 0.390625 23.09375 0.390625 
z
" id="CMR17-54"/>
     </defs>
     <g transform="translate(473.185706 157.39292)scale(0.1 -0.1)">
      <use transform="translate(0 26.578082)scale(0.996264)" xlink:href="#CMMI12-64"/>
      <use transform="translate(56.915564 26.578082)scale(0.996264)" xlink:href="#CMSY10-76"/>
      <use transform="translate(125.630372 26.578082)scale(0.996264)" xlink:href="#CMMI12-61"/>
      <use transform="translate(174.405291 26.578082)scale(0.996264)" xlink:href="#CMMI12-64"/>
      <use transform="translate(231.320856 26.578082)scale(0.996264)" xlink:href="#CMMI12-22"/>
      <use transform="translate(290.012277 74.841065)scale(0.697382)" xlink:href="#CMMI12-85"/>
      <use transform="translate(290.012277 0)scale(0.697382)" xlink:href="#CMR17-54"/>
      <path d="M 290.012277 63.683261 
L 344.171317 63.683261 
L 344.171317 66.472712 
L 290.012277 66.472712 
L 290.012277 63.683261 
z
"/>
     </g>
    </g>
   </g>
  </g>
 </g>
 <defs>
  <clipPath id="peeb360ea93">
   <rect height="332.64" width="446.4" x="72" y="51.84"/>
  </clipPath>
 </defs>
</svg>
