<?xml version="1.0" encoding="utf-8" standalone="no"?>
<!DOCTYPE svg PUBLIC "-//W3C//DTD SVG 1.1//EN"
  "http://www.w3.org/Graphics/SVG/1.1/DTD/svg11.dtd">
<!-- Created with matplotlib (http://matplotlib.org/) -->
<svg height="432pt" version="1.1" viewBox="0 0 576 432" width="576pt" xmlns="http://www.w3.org/2000/svg" xmlns:xlink="http://www.w3.org/1999/xlink">
 <defs>
  <style type="text/css">
*{stroke-linecap:butt;stroke-linejoin:round;}
  </style>
 </defs>
 <g id="figure_1">
  <g id="patch_1">
   <path d="M 0 432 
L 576 432 
L 576 0 
L 0 0 
z
" style="fill:#ffffff;"/>
  </g>
  <g id="axes_1">
   <g id="patch_2">
    <path d="M 72 384.48 
L 518.4 384.48 
L 518.4 51.84 
L 72 51.84 
z
" style="fill:#ffffff;"/>
   </g>
   <g id="matplotlib.axis_1">
    <g id="xtick_1">
     <g id="line2d_1">
      <path clip-path="url(#pf894da6694)" d="M 92.290909 384.48 
L 92.290909 51.84 
" style="fill:none;stroke:#b0b0b0;stroke-dasharray:5.12,1.28,0.8,1.28;stroke-dashoffset:0;stroke-width:0.8;"/>
     </g>
     <g id="line2d_2">
      <defs>
       <path d="M 0 0 
L 0 3.5 
" id="m3565d0ca4a" style="stroke:#000000;stroke-width:0.8;"/>
      </defs>
      <g>
       <use style="stroke:#000000;stroke-width:0.8;" x="92.290909" xlink:href="#m3565d0ca4a" y="384.48"/>
      </g>
     </g>
     <g id="text_1">
      <!-- $0$ -->
      <defs>
       <path d="M 42 31.640625 
C 42 37.75 41.90625 48.125 37.703125 56.109375 
C 34 63.109375 28.09375 65.59375 22.90625 65.59375 
C 18.09375 65.59375 12 63.40625 8.203125 56.203125 
C 4.203125 48.71875 3.796875 39.4375 3.796875 31.640625 
C 3.796875 25.953125 3.90625 17.28125 7 9.671875 
C 11.296875 -0.609375 19 -2 22.90625 -2 
C 27.5 -2 34.5 -0.109375 38.59375 9.375 
C 41.59375 16.28125 42 24.359375 42 31.640625 
z
M 22.90625 -0.40625 
C 16.5 -0.40625 12.703125 5.078125 11.296875 12.6875 
C 10.203125 18.5625 10.203125 27.15625 10.203125 32.75 
C 10.203125 40.4375 10.203125 46.828125 11.5 52.921875 
C 13.40625 61.390625 19 64 22.90625 64 
C 27 64 32.296875 61.296875 34.203125 53.125 
C 35.5 47.4375 35.59375 40.734375 35.59375 32.75 
C 35.59375 26.25 35.59375 18.265625 34.40625 12.375 
C 32.296875 1.484375 26.40625 -0.40625 22.90625 -0.40625 
z
" id="CMR17-48"/>
      </defs>
      <g transform="translate(89.800241 398.398498)scale(0.1 -0.1)">
       <use transform="scale(0.996264)" xlink:href="#CMR17-48"/>
      </g>
     </g>
    </g>
    <g id="xtick_2">
     <g id="line2d_3">
      <path clip-path="url(#pf894da6694)" d="M 165.543288 384.48 
L 165.543288 51.84 
" style="fill:none;stroke:#b0b0b0;stroke-dasharray:5.12,1.28,0.8,1.28;stroke-dashoffset:0;stroke-width:0.8;"/>
     </g>
     <g id="line2d_4">
      <g>
       <use style="stroke:#000000;stroke-width:0.8;" x="165.543288" xlink:href="#m3565d0ca4a" y="384.48"/>
      </g>
     </g>
     <g id="text_2">
      <!-- $500$ -->
      <defs>
       <path d="M 11.40625 57.6875 
C 12.40625 57.28125 16.5 56 20.703125 56 
C 30 56 35.09375 61.109375 38 64.0625 
C 38 64.953125 38 65.5 37.40625 65.5 
C 37.296875 65.5 37.09375 65.5 36.296875 65.046875 
C 32.796875 63.40625 28.703125 62.078125 23.703125 62.078125 
C 20.703125 62.078125 16.203125 62.484375 11.296875 64.671875 
C 10.203125 65.171875 10 65.171875 9.90625 65.171875 
C 9.40625 65.171875 9.296875 65.0625 9.296875 63.078125 
L 9.296875 34.421875 
C 9.296875 32.640625 9.296875 32.140625 10.296875 32.140625 
C 10.796875 32.140625 11 32.34375 11.5 33.03125 
C 14.703125 37.515625 19.09375 39.40625 24.09375 39.40625 
C 27.59375 39.40625 35.09375 37.21875 35.09375 20.140625 
C 35.09375 16.953125 35.09375 11.171875 32.09375 6.578125 
C 29.59375 2.484375 25.703125 0.390625 21.40625 0.390625 
C 14.796875 0.390625 8.09375 5 6.296875 12.71875 
C 6.703125 12.609375 7.5 12.421875 7.90625 12.421875 
C 9.203125 12.421875 11.703125 13.125 11.703125 16.21875 
C 11.703125 18.90625 9.796875 20 7.90625 20 
C 5.59375 20 4.09375 18.59375 4.09375 15.796875 
C 4.09375 7.09375 11 -2 21.59375 -2 
C 31.90625 -2 41.703125 6.875 41.703125 19.75 
C 41.703125 31.71875 33.90625 41 24.203125 41 
C 19.09375 41 14.796875 39.109375 11.40625 35.53125 
z
" id="CMR17-53"/>
      </defs>
      <g transform="translate(158.071286 398.398498)scale(0.1 -0.1)">
       <use transform="scale(0.996264)" xlink:href="#CMR17-53"/>
       <use transform="translate(45.690477 0)scale(0.996264)" xlink:href="#CMR17-48"/>
       <use transform="translate(91.380954 0)scale(0.996264)" xlink:href="#CMR17-48"/>
      </g>
     </g>
    </g>
    <g id="xtick_3">
     <g id="line2d_5">
      <path clip-path="url(#pf894da6694)" d="M 238.795668 384.48 
L 238.795668 51.84 
" style="fill:none;stroke:#b0b0b0;stroke-dasharray:5.12,1.28,0.8,1.28;stroke-dashoffset:0;stroke-width:0.8;"/>
     </g>
     <g id="line2d_6">
      <g>
       <use style="stroke:#000000;stroke-width:0.8;" x="238.795668" xlink:href="#m3565d0ca4a" y="384.48"/>
      </g>
     </g>
     <g id="text_3">
      <!-- $1000$ -->
      <defs>
       <path d="M 26.59375 63.40625 
C 26.59375 65.5 26.5 65.5 25.09375 65.5 
C 21.203125 61.1875 15.296875 59.796875 9.703125 59.796875 
C 9.40625 59.796875 8.90625 59.796875 8.796875 59.5 
C 8.703125 59.296875 8.703125 59.09375 8.703125 57 
C 11.796875 57 17 57.59375 21 59.984375 
L 21 7.203125 
C 21 3.6875 20.796875 2.5 12.203125 2.5 
L 9.203125 2.5 
L 9.203125 0 
C 14 0 19 0 23.796875 0 
C 28.59375 0 33.59375 0 38.40625 0 
L 38.40625 2.5 
L 35.40625 2.5 
C 26.796875 2.5 26.59375 3.59375 26.59375 7.15625 
z
" id="CMR17-49"/>
      </defs>
      <g transform="translate(228.832997 398.398498)scale(0.1 -0.1)">
       <use transform="scale(0.996264)" xlink:href="#CMR17-49"/>
       <use transform="translate(45.690477 0)scale(0.996264)" xlink:href="#CMR17-48"/>
       <use transform="translate(91.380954 0)scale(0.996264)" xlink:href="#CMR17-48"/>
       <use transform="translate(137.071431 0)scale(0.996264)" xlink:href="#CMR17-48"/>
      </g>
     </g>
    </g>
    <g id="xtick_4">
     <g id="line2d_7">
      <path clip-path="url(#pf894da6694)" d="M 312.048047 384.48 
L 312.048047 51.84 
" style="fill:none;stroke:#b0b0b0;stroke-dasharray:5.12,1.28,0.8,1.28;stroke-dashoffset:0;stroke-width:0.8;"/>
     </g>
     <g id="line2d_8">
      <g>
       <use style="stroke:#000000;stroke-width:0.8;" x="312.048047" xlink:href="#m3565d0ca4a" y="384.48"/>
      </g>
     </g>
     <g id="text_4">
      <!-- $1500$ -->
      <g transform="translate(302.085377 398.398498)scale(0.1 -0.1)">
       <use transform="scale(0.996264)" xlink:href="#CMR17-49"/>
       <use transform="translate(45.690477 0)scale(0.996264)" xlink:href="#CMR17-53"/>
       <use transform="translate(91.380954 0)scale(0.996264)" xlink:href="#CMR17-48"/>
       <use transform="translate(137.071431 0)scale(0.996264)" xlink:href="#CMR17-48"/>
      </g>
     </g>
    </g>
    <g id="xtick_5">
     <g id="line2d_9">
      <path clip-path="url(#pf894da6694)" d="M 385.300427 384.48 
L 385.300427 51.84 
" style="fill:none;stroke:#b0b0b0;stroke-dasharray:5.12,1.28,0.8,1.28;stroke-dashoffset:0;stroke-width:0.8;"/>
     </g>
     <g id="line2d_10">
      <g>
       <use style="stroke:#000000;stroke-width:0.8;" x="385.300427" xlink:href="#m3565d0ca4a" y="384.48"/>
      </g>
     </g>
     <g id="text_5">
      <!-- $2000$ -->
      <defs>
       <path d="M 41.703125 15.453125 
L 39.90625 15.453125 
C 38.90625 8.375 38.09375 7.171875 37.703125 6.5625 
C 37.203125 5.765625 30 5.765625 28.59375 5.765625 
L 9.40625 5.765625 
C 13 9.671875 20 16.75 28.5 24.953125 
C 34.59375 30.734375 41.703125 37.53125 41.703125 47.421875 
C 41.703125 59.21875 32.296875 66 21.796875 66 
C 10.796875 66 4.09375 56.3125 4.09375 47.34375 
C 4.09375 43.4375 7 42.9375 8.203125 42.9375 
C 9.203125 42.9375 12.203125 43.546875 12.203125 47.03125 
C 12.203125 50.109375 9.59375 51 8.203125 51 
C 7.59375 51 7 50.90625 6.59375 50.703125 
C 8.5 59.21875 14.296875 63.40625 20.40625 63.40625 
C 29.09375 63.40625 34.796875 56.515625 34.796875 47.421875 
C 34.796875 38.734375 29.703125 31.25 24 24.75 
L 4.09375 2.28125 
L 4.09375 0 
L 39.296875 0 
z
" id="CMR17-50"/>
      </defs>
      <g transform="translate(375.337756 398.398498)scale(0.1 -0.1)">
       <use transform="scale(0.996264)" xlink:href="#CMR17-50"/>
       <use transform="translate(45.690477 0)scale(0.996264)" xlink:href="#CMR17-48"/>
       <use transform="translate(91.380954 0)scale(0.996264)" xlink:href="#CMR17-48"/>
       <use transform="translate(137.071431 0)scale(0.996264)" xlink:href="#CMR17-48"/>
      </g>
     </g>
    </g>
    <g id="xtick_6">
     <g id="line2d_11">
      <path clip-path="url(#pf894da6694)" d="M 458.552806 384.48 
L 458.552806 51.84 
" style="fill:none;stroke:#b0b0b0;stroke-dasharray:5.12,1.28,0.8,1.28;stroke-dashoffset:0;stroke-width:0.8;"/>
     </g>
     <g id="line2d_12">
      <g>
       <use style="stroke:#000000;stroke-width:0.8;" x="458.552806" xlink:href="#m3565d0ca4a" y="384.48"/>
      </g>
     </g>
     <g id="text_6">
      <!-- $2500$ -->
      <g transform="translate(448.590136 398.398498)scale(0.1 -0.1)">
       <use transform="scale(0.996264)" xlink:href="#CMR17-50"/>
       <use transform="translate(45.690477 0)scale(0.996264)" xlink:href="#CMR17-53"/>
       <use transform="translate(91.380954 0)scale(0.996264)" xlink:href="#CMR17-48"/>
       <use transform="translate(137.071431 0)scale(0.996264)" xlink:href="#CMR17-48"/>
      </g>
     </g>
    </g>
    <g id="text_7">
     <!-- Iteration -->
     <defs>
      <path d="M 17.09375 69 
L 8.703125 69 
L 8.703125 0 
L 17.09375 0 
z
" id="CMSS17-73"/>
      <path d="M 16.703125 37 
L 29.703125 37 
L 29.703125 42.765625 
L 16.703125 42.765625 
L 16.703125 55 
L 9.59375 55 
L 9.59375 42.765625 
L 1.703125 42.765625 
L 1.703125 37 
L 9.40625 37 
L 9.40625 11.703125 
C 9.40625 6 10.703125 -1 17.296875 -1 
C 22.296875 -1 26.90625 0.390625 31.296875 2.6875 
L 29.703125 8.5625 
C 27.296875 6.46875 24.40625 5.265625 21.296875 5.265625 
C 16.90625 5.265625 16.703125 10.875 16.703125 13.375 
z
" id="CMSS17-116"/>
      <path d="M 39.09375 21.515625 
C 39.09375 24.84375 38.90625 31.296875 35.703125 36.640625 
C 32.203125 42.390625 26.5 44 22.203125 44 
C 11.796875 44 3 34.1875 3 21.484375 
C 3 9.09375 12.09375 -1 23.59375 -1 
C 28.09375 -1 33.59375 0.296875 38.59375 3.875 
C 38.59375 4.28125 38.40625 6.46875 38.296875 6.5625 
C 38.296875 6.765625 38 9.84375 38 10.25 
C 33.203125 6.359375 27.703125 5.078125 23.703125 5.078125 
C 17.296875 5.078125 10.40625 10.421875 10.09375 21.515625 
z
M 10.90625 27 
C 12.203125 32.5625 16.59375 37.828125 22.203125 37.828125 
C 23.703125 37.828125 30.703125 37.828125 32.5 27 
z
" id="CMSS17-101"/>
      <path d="M 14.90625 21.296875 
C 14.90625 30.703125 21.796875 37 30.59375 37 
L 30.59375 43.578125 
C 24.203125 43.578125 18.203125 40.390625 14.59375 35.203125 
L 14.59375 43.09375 
L 7.5 43.09375 
L 7.5 0 
L 14.90625 0 
z
" id="CMSS17-114"/>
      <path d="M 37.59375 27.984375 
C 37.59375 37.375 30.90625 43.875 21.90625 43.875 
C 17.5 43.875 12.703125 43.078125 7.203125 39.890625 
L 7.796875 33.359375 
C 10.296875 35.125 14.59375 38 21.796875 38 
C 26.90625 38 30 34.0625 30 27.84375 
L 30 24 
C 14 24 4 19.34375 4 11.34375 
C 4 7.203125 6.5 -1 14.796875 -1 
C 16.296875 -1 24.40625 -1 30.203125 3.390625 
L 30.203125 -0.296875 
L 37.59375 -0.296875 
z
M 30 12.75 
C 30 10.953125 30 8.5625 27 6.78125 
C 24.40625 5.078125 21.09375 5.078125 19.703125 5.078125 
C 14.703125 5.078125 11.296875 7.984375 11.296875 11.625 
C 11.296875 18.921875 26.90625 18.921875 30 18.921875 
z
" id="CMSS17-97"/>
      <path d="M 15.296875 65.359375 
L 6.90625 65.359375 
L 6.90625 57 
L 15.296875 57 
z
M 14.796875 42.796875 
L 7.40625 42.796875 
L 7.40625 0 
L 14.796875 0 
z
" id="CMSS17-105"/>
      <path d="M 44.203125 21.1875 
C 44.203125 34 34.703125 44 23.5 44 
C 12 44 2.703125 33.703125 2.703125 21.1875 
C 2.703125 8.5 12.296875 -1 23.40625 -1 
C 34.796875 -1 44.203125 8.796875 44.203125 21.1875 
z
M 23.5 5.265625 
C 16.40625 5.265625 10.296875 11.078125 10.296875 22 
C 10.296875 33.609375 17.40625 37.921875 23.40625 37.921875 
C 29.90625 37.921875 36.59375 33.21875 36.59375 22 
C 36.59375 10.671875 30.09375 5.265625 23.5 5.265625 
z
" id="CMSS17-111"/>
      <path d="M 40.90625 29.328125 
C 40.90625 35.671875 39.40625 44 28.09375 44 
C 21.703125 44 17.5 40.71875 14.703125 37.328125 
L 14.703125 43.09375 
L 7.40625 43.09375 
L 7.40625 0 
L 15 0 
L 15 24.359375 
C 15 30.6875 17.40625 37.9375 24.203125 37.9375 
C 33 37.9375 33.296875 32 33.296875 28.578125 
L 33.296875 0 
L 40.90625 0 
z
" id="CMSS17-110"/>
     </defs>
     <g transform="translate(271.264003 414.021553)scale(0.14 -0.14)">
      <use transform="scale(0.996264)" xlink:href="#CMSS17-73"/>
      <use transform="translate(25.783926 0)scale(0.996264)" xlink:href="#CMSS17-116"/>
      <use transform="translate(59.615492 0)scale(0.996264)" xlink:href="#CMSS17-101"/>
      <use transform="translate(101.254314 0)scale(0.996264)" xlink:href="#CMSS17-114"/>
      <use transform="translate(133.164087 0)scale(0.996264)" xlink:href="#CMSS17-97"/>
      <use transform="translate(178.086007 0)scale(0.996264)" xlink:href="#CMSS17-116"/>
      <use transform="translate(211.917574 0)scale(0.996264)" xlink:href="#CMSS17-105"/>
      <use transform="translate(234.098297 0)scale(0.996264)" xlink:href="#CMSS17-111"/>
      <use transform="translate(280.941921 0)scale(0.996264)" xlink:href="#CMSS17-110"/>
     </g>
    </g>
   </g>
   <g id="matplotlib.axis_2">
    <g id="ytick_1">
     <g id="line2d_13">
      <path clip-path="url(#pf894da6694)" d="M 72 348.27446 
L 518.4 348.27446 
" style="fill:none;stroke:#b0b0b0;stroke-dasharray:5.12,1.28,0.8,1.28;stroke-dashoffset:0;stroke-width:0.8;"/>
     </g>
     <g id="line2d_14">
      <defs>
       <path d="M 0 0 
L -3.5 0 
" id="me925442959" style="stroke:#000000;stroke-width:0.8;"/>
      </defs>
      <g>
       <use style="stroke:#000000;stroke-width:0.8;" x="72" xlink:href="#me925442959" y="348.27446"/>
      </g>
     </g>
     <g id="text_8">
      <!-- $-200$ -->
      <defs>
       <path d="M 65.90625 23 
C 67.59375 23 69.40625 23 69.40625 25 
C 69.40625 27 67.59375 27 65.90625 27 
L 11.796875 27 
C 10.09375 27 8.296875 27 8.296875 25 
C 8.296875 23 10.09375 23 11.796875 23 
z
" id="CMSY10-0"/>
      </defs>
      <g transform="translate(42.307251 351.733709)scale(0.1 -0.1)">
       <use transform="scale(0.996264)" xlink:href="#CMSY10-0"/>
       <use transform="translate(77.487468 0)scale(0.996264)" xlink:href="#CMR17-50"/>
       <use transform="translate(123.177945 0)scale(0.996264)" xlink:href="#CMR17-48"/>
       <use transform="translate(168.868422 0)scale(0.996264)" xlink:href="#CMR17-48"/>
      </g>
     </g>
    </g>
    <g id="ytick_2">
     <g id="line2d_15">
      <path clip-path="url(#pf894da6694)" d="M 72 280.670065 
L 518.4 280.670065 
" style="fill:none;stroke:#b0b0b0;stroke-dasharray:5.12,1.28,0.8,1.28;stroke-dashoffset:0;stroke-width:0.8;"/>
     </g>
     <g id="line2d_16">
      <g>
       <use style="stroke:#000000;stroke-width:0.8;" x="72" xlink:href="#me925442959" y="280.670065"/>
      </g>
     </g>
     <g id="text_9">
      <!-- $-100$ -->
      <g transform="translate(42.307251 284.129315)scale(0.1 -0.1)">
       <use transform="scale(0.996264)" xlink:href="#CMSY10-0"/>
       <use transform="translate(77.487468 0)scale(0.996264)" xlink:href="#CMR17-49"/>
       <use transform="translate(123.177945 0)scale(0.996264)" xlink:href="#CMR17-48"/>
       <use transform="translate(168.868422 0)scale(0.996264)" xlink:href="#CMR17-48"/>
      </g>
     </g>
    </g>
    <g id="ytick_3">
     <g id="line2d_17">
      <path clip-path="url(#pf894da6694)" d="M 72 213.065671 
L 518.4 213.065671 
" style="fill:none;stroke:#b0b0b0;stroke-dasharray:5.12,1.28,0.8,1.28;stroke-dashoffset:0;stroke-width:0.8;"/>
     </g>
     <g id="line2d_18">
      <g>
       <use style="stroke:#000000;stroke-width:0.8;" x="72" xlink:href="#me925442959" y="213.065671"/>
      </g>
     </g>
     <g id="text_10">
      <!-- $0$ -->
      <g transform="translate(60.018665 216.52492)scale(0.1 -0.1)">
       <use transform="scale(0.996264)" xlink:href="#CMR17-48"/>
      </g>
     </g>
    </g>
    <g id="ytick_4">
     <g id="line2d_19">
      <path clip-path="url(#pf894da6694)" d="M 72 145.461276 
L 518.4 145.461276 
" style="fill:none;stroke:#b0b0b0;stroke-dasharray:5.12,1.28,0.8,1.28;stroke-dashoffset:0;stroke-width:0.8;"/>
     </g>
     <g id="line2d_20">
      <g>
       <use style="stroke:#000000;stroke-width:0.8;" x="72" xlink:href="#me925442959" y="145.461276"/>
      </g>
     </g>
     <g id="text_11">
      <!-- $100$ -->
      <g transform="translate(50.055994 148.920526)scale(0.1 -0.1)">
       <use transform="scale(0.996264)" xlink:href="#CMR17-49"/>
       <use transform="translate(45.690477 0)scale(0.996264)" xlink:href="#CMR17-48"/>
       <use transform="translate(91.380954 0)scale(0.996264)" xlink:href="#CMR17-48"/>
      </g>
     </g>
    </g>
    <g id="ytick_5">
     <g id="line2d_21">
      <path clip-path="url(#pf894da6694)" d="M 72 77.856882 
L 518.4 77.856882 
" style="fill:none;stroke:#b0b0b0;stroke-dasharray:5.12,1.28,0.8,1.28;stroke-dashoffset:0;stroke-width:0.8;"/>
     </g>
     <g id="line2d_22">
      <g>
       <use style="stroke:#000000;stroke-width:0.8;" x="72" xlink:href="#me925442959" y="77.856882"/>
      </g>
     </g>
     <g id="text_12">
      <!-- $200$ -->
      <g transform="translate(50.055994 81.316131)scale(0.1 -0.1)">
       <use transform="scale(0.996264)" xlink:href="#CMR17-50"/>
       <use transform="translate(45.690477 0)scale(0.996264)" xlink:href="#CMR17-48"/>
       <use transform="translate(91.380954 0)scale(0.996264)" xlink:href="#CMR17-48"/>
      </g>
     </g>
    </g>
    <g id="text_13">
     <!-- $i_{mn}$ -->
     <defs>
      <path d="M 28.296875 14.265625 
C 28.296875 14.765625 27.90625 15.171875 27.296875 15.171875 
C 26.40625 15.171875 26.296875 14.875 25.796875 13.171875 
C 23.203125 4.09375 19.09375 1 15.796875 1 
C 14.59375 1 13.203125 1.296875 13.203125 4.296875 
C 13.203125 6.984375 14.40625 9.984375 15.5 12.96875 
L 22.5 31.53125 
C 22.796875 32.328125 23.5 34.125 23.5 36.015625 
C 23.5 40.21875 20.5 44 15.59375 44 
C 6.40625 44 2.703125 29.53125 2.703125 28.734375 
C 2.703125 28.34375 3.09375 27.84375 3.796875 27.84375 
C 4.703125 27.84375 4.796875 28.234375 5.203125 29.625 
C 7.59375 37.9375 11.40625 41.90625 15.296875 41.90625 
C 16.203125 41.90625 17.90625 41.90625 17.90625 38.71875 
C 17.90625 36.125 16.59375 32.828125 15.796875 30.640625 
L 8.796875 12.078125 
C 8.203125 10.484375 7.59375 8.875 7.59375 7.078125 
C 7.59375 2.59375 10.703125 -1 15.5 -1 
C 24.703125 -1 28.296875 13.578125 28.296875 14.265625 
z
M 27.5 62.703125 
C 27.5 64.203125 26.296875 66 24.09375 66 
C 21.796875 66 19.203125 63.796875 19.203125 61.203125 
C 19.203125 58.71875 21.296875 57.921875 22.5 57.921875 
C 25.203125 57.921875 27.5 60.515625 27.5 62.703125 
z
" id="CMMI12-105"/>
      <path d="M 20.59375 29.234375 
C 20.796875 29.84375 23.296875 34.828125 27 38.015625 
C 29.59375 40.40625 33 42.015625 36.90625 42.015625 
C 40.90625 42.015625 42.296875 39.015625 42.296875 35.03125 
C 42.296875 34.421875 42.296875 32.4375 41.09375 27.734375 
L 38.59375 17.46875 
C 37.796875 14.46875 35.90625 7.078125 35.703125 5.984375 
C 35.296875 4.484375 34.703125 1.890625 34.703125 1.5 
C 34.703125 0.09375 35.796875 -1 37.296875 -1 
C 40.296875 -1 40.796875 1.296875 41.703125 4.890625 
L 47.703125 28.734375 
C 47.90625 29.53125 53.09375 42.015625 64.09375 42.015625 
C 68.09375 42.015625 69.5 39.015625 69.5 35.03125 
C 69.5 29.4375 65.59375 18.5625 63.40625 12.578125 
C 62.5 10.171875 62 8.875 62 7.078125 
C 62 2.59375 65.09375 -1 69.90625 -1 
C 79.203125 -1 82.703125 13.671875 82.703125 14.265625 
C 82.703125 14.765625 82.296875 15.171875 81.703125 15.171875 
C 80.796875 15.171875 80.703125 14.875 80.203125 13.171875 
C 77.90625 5.1875 74.203125 1 70.203125 1 
C 69.203125 1 67.59375 1 67.59375 4.203125 
C 67.59375 6.8125 68.796875 10 69.203125 11.09375 
C 71 15.90625 75.5 27.703125 75.5 33.515625 
C 75.5 39.5 72 44 64.40625 44 
C 57.703125 44 52.296875 40.21875 48.296875 34.328125 
C 48 39.71875 44.703125 44 37.203125 44 
C 28.296875 44 23.59375 37.734375 21.796875 35.234375 
C 21.5 40.90625 17.40625 44 13 44 
C 10.09375 44 7.796875 42.609375 5.90625 38.8125 
C 4.09375 35.21875 2.703125 29.140625 2.703125 28.734375 
C 2.703125 28.34375 3.09375 27.84375 3.796875 27.84375 
C 4.59375 27.84375 4.703125 27.9375 5.296875 30.234375 
C 6.796875 36.125 8.703125 42.015625 12.703125 42.015625 
C 15 42.015625 15.796875 40.40625 15.796875 37.421875 
C 15.796875 35.21875 14.796875 31.328125 14.09375 28.234375 
L 11.296875 17.46875 
C 10.90625 15.5625 9.796875 11.078125 9.296875 9.28125 
C 8.59375 6.6875 7.5 2 7.5 1.5 
C 7.5 0.09375 8.59375 -1 10.09375 -1 
C 11.296875 -1 12.703125 -0.40625 13.5 1.09375 
C 13.703125 1.59375 14.59375 5.09375 15.09375 7.078125 
L 17.296875 16.0625 
z
" id="CMMI12-109"/>
      <path d="M 20.59375 29.234375 
C 20.796875 29.84375 23.296875 34.828125 27 38.015625 
C 29.59375 40.40625 33 42.015625 36.90625 42.015625 
C 40.90625 42.015625 42.296875 39.015625 42.296875 35.03125 
C 42.296875 29.34375 38.203125 17.96875 36.203125 12.578125 
C 35.296875 10.171875 34.796875 8.875 34.796875 7.078125 
C 34.796875 2.59375 37.90625 -1 42.703125 -1 
C 52 -1 55.5 13.671875 55.5 14.265625 
C 55.5 14.765625 55.09375 15.171875 54.5 15.171875 
C 53.59375 15.171875 53.5 14.875 53 13.171875 
C 50.703125 4.984375 46.90625 1 43 1 
C 42 1 40.40625 1 40.40625 4.203125 
C 40.40625 6.703125 41.5 9.703125 42.09375 11.09375 
C 44.09375 16.609375 48.296875 27.8125 48.296875 33.515625 
C 48.296875 39.5 44.796875 44 37.203125 44 
C 28.296875 44 23.59375 37.734375 21.796875 35.234375 
C 21.5 40.90625 17.40625 44 13 44 
C 9.796875 44 7.59375 42.109375 5.90625 38.71875 
C 4.09375 35.125 2.703125 29.140625 2.703125 28.734375 
C 2.703125 28.34375 3.09375 27.84375 3.796875 27.84375 
C 4.59375 27.84375 4.703125 27.9375 5.296875 30.234375 
C 6.90625 36.328125 8.703125 42.015625 12.703125 42.015625 
C 15 42.015625 15.796875 40.40625 15.796875 37.421875 
C 15.796875 35.21875 14.796875 31.328125 14.09375 28.234375 
L 11.296875 17.46875 
C 10.90625 15.5625 9.796875 11.078125 9.296875 9.28125 
C 8.59375 6.6875 7.5 2 7.5 1.5 
C 7.5 0.09375 8.59375 -1 10.09375 -1 
C 11.296875 -1 12.703125 -0.40625 13.5 1.09375 
C 13.703125 1.59375 14.59375 5.09375 15.09375 7.078125 
L 17.296875 16.0625 
z
" id="CMMI12-110"/>
     </defs>
     <g transform="translate(35.595222 227.936266)rotate(-90)scale(0.14 -0.14)">
      <use transform="translate(0 14.943915)scale(0.996264)" xlink:href="#CMMI12-105"/>
      <use transform="translate(33.278602 0)scale(0.697382)" xlink:href="#CMMI12-109"/>
      <use transform="translate(93.007393 0)scale(0.697382)" xlink:href="#CMMI12-110"/>
     </g>
    </g>
   </g>
   <g id="line2d_23">
    <path clip-path="url(#pf894da6694)" d="M 92.290909 213.065671 
L 92.437414 213.065671 
L 92.583919 211.556673 
L 93.169938 191.388119 
L 93.462947 188.170217 
L 93.755957 186.862343 
L 94.195471 186.087934 
L 94.927995 185.470233 
L 95.514014 185.039593 
L 96.100033 205.016556 
L 96.393042 208.786921 
L 96.686052 210.420987 
L 96.979061 211.028683 
L 97.272071 211.144084 
L 97.711585 210.910781 
L 98.590614 209.993051 
L 101.813718 206.43226 
L 104.304299 204.051909 
L 106.941385 201.852333 
L 109.578471 199.938317 
L 111.776042 198.533363 
L 111.922547 199.144304 
L 112.801575 198.113472 
L 114.559632 197.190469 
L 114.852642 188.285821 
L 115.292156 181.924923 
L 115.73167 178.625085 
L 116.171185 176.766167 
L 116.757204 175.382846 
L 117.343223 174.596269 
L 118.075747 173.975187 
L 119.247785 173.292721 
L 120.566328 172.621612 
L 120.712832 172.773655 
L 121.005842 174.950989 
L 121.445356 180.386923 
L 123.349918 207.514404 
L 123.496423 208.160161 
L 123.935937 213.40687 
L 124.228947 211.968181 
L 124.521956 211.128197 
L 124.96147 209.06011 
L 126.280013 202.120249 
L 126.866032 200.361926 
L 127.305546 199.672091 
L 127.745061 199.434191 
L 128.184575 199.554121 
L 128.477585 199.788235 
L 128.624089 199.112191 
L 128.770594 199.258352 
L 129.356613 201.149315 
L 129.649623 200.616727 
L 130.968165 196.698174 
L 131.11467 196.678839 
L 131.261175 196.807963 
L 131.554184 197.529235 
L 132.286708 200.462589 
L 133.019232 200.64147 
L 133.458746 201.160334 
L 134.044765 202.286218 
L 134.19127 202.62735 
L 134.337775 202.455567 
L 134.923794 200.476245 
L 135.656318 198.654915 
L 136.242337 197.75287 
L 136.828356 197.311684 
L 137.414375 197.183438 
L 138.439908 197.282411 
L 138.732918 197.298095 
L 139.172432 196.98583 
L 140.34447 196.051673 
L 140.783984 195.971494 
L 141.223499 196.112787 
L 141.809518 196.60853 
L 142.542041 197.463861 
L 142.835051 197.140847 
L 143.714079 196.212369 
L 144.446603 195.776455 
L 145.179127 195.623602 
L 146.20466 195.671871 
L 148.109222 195.823914 
L 150.013784 195.587907 
L 151.039317 195.774698 
L 151.771841 195.907405 
L 152.943879 195.610757 
L 154.262422 195.498534 
L 160.415622 195.542071 
L 161.734165 195.513948 
L 164.810765 195.473317 
L 184.295898 195.461757 
L 331.386675 195.461825 
L 331.82619 196.697498 
L 335.195799 207.850871 
L 336.074828 209.924635 
L 337.832885 213.060127 
L 338.418904 213.354342 
L 339.297932 213.495702 
L 341.788513 213.55587 
L 357.025008 213.543972 
L 417.531474 213.543499 
L 417.677978 213.920799 
L 417.824483 213.927965 
L 418.703512 212.9212 
L 419.143026 212.919172 
L 419.729045 213.259763 
L 420.461569 213.756588 
L 421.487102 213.381316 
L 422.805645 213.206288 
L 425.882245 213.114954 
L 437.602626 213.068307 
L 496.790548 213.065671 
L 496.790548 213.065671 
" style="fill:none;stroke:#bf00bf;stroke-linecap:square;stroke-width:1.5;"/>
   </g>
   <g id="line2d_24">
    <path clip-path="url(#pf894da6694)" d="M 92.290909 213.065671 
L 92.437414 213.065671 
L 92.583919 213.065671 
L 92.730423 214.408565 
L 93.169938 226.990554 
L 93.462947 230.408497 
L 93.755957 231.761666 
L 94.048966 232.332044 
L 94.48848 232.72442 
L 95.660519 233.359496 
L 96.246538 218.858624 
L 96.539547 216.347999 
L 96.832557 215.320683 
L 97.125566 215.003551 
L 97.418576 215.0287 
L 97.85809 215.350361 
L 99.030128 216.646405 
L 101.667214 219.548932 
L 104.157795 221.947942 
L 106.648375 224.049492 
L 109.285461 225.993186 
L 111.776042 227.597979 
L 111.922547 226.987038 
L 112.801575 228.01787 
L 114.559632 228.940873 
L 114.852642 237.845521 
L 115.292156 244.206418 
L 115.73167 247.506256 
L 116.171185 249.365174 
L 116.757204 250.748496 
L 117.343223 251.535073 
L 118.075747 252.156154 
L 119.247785 252.838621 
L 120.566328 253.509729 
L 120.859337 253.851132 
L 121.005842 253.61668 
L 121.298851 252.314551 
L 121.738366 248.795878 
L 122.470889 240.534418 
L 123.935937 223.304086 
L 124.228947 221.14514 
L 124.521956 220.474098 
L 124.668461 220.38939 
L 124.814966 220.461389 
L 125.107975 220.976534 
L 125.840499 223.224651 
L 126.573023 225.184299 
L 127.012537 225.872647 
L 127.452051 226.179233 
L 127.891565 226.152868 
L 128.33108 225.858721 
L 128.624089 225.546321 
L 128.770594 225.592495 
L 129.063604 225.06464 
L 129.503118 223.941731 
L 129.649623 223.856481 
L 129.942632 224.078292 
L 130.382146 225.042803 
L 131.40768 227.574588 
L 131.700689 227.830876 
L 131.993699 227.757323 
L 132.286708 227.470274 
L 132.726223 227.629415 
L 133.165737 227.660513 
L 133.605251 227.393003 
L 134.19127 226.687686 
L 134.48428 226.418756 
L 135.216803 227.366772 
L 136.095832 228.422077 
L 136.681851 228.790791 
L 137.26787 228.923972 
L 138.293403 228.879015 
L 139.025927 228.868942 
L 139.611946 229.157207 
L 140.930489 229.914106 
L 141.516508 230.002735 
L 142.102527 229.87503 
L 142.835051 229.606776 
L 144.446603 230.386931 
L 145.325632 230.485633 
L 146.937184 230.351438 
L 148.402232 230.291473 
L 151.039317 230.490704 
L 152.35786 230.478535 
L 154.115917 230.625777 
L 165.982803 230.652346 
L 199.825402 230.669517 
L 331.386675 230.669517 
L 331.82619 229.420932 
L 335.049294 218.695021 
L 336.074828 216.274108 
L 337.68638 213.207505 
L 338.272399 212.83061 
L 339.004923 212.664844 
L 340.76298 212.584801 
L 349.113751 212.58622 
L 410.059731 212.587843 
L 417.531474 212.587843 
L 417.677978 211.829254 
L 417.824483 211.805728 
L 418.996521 213.119687 
L 419.436035 213.139224 
L 420.168559 212.85772 
L 420.754578 212.677081 
L 422.512635 212.921606 
L 425.442731 213.015306 
L 436.430587 213.062426 
L 498.109091 213.065671 
L 498.109091 213.065671 
" style="fill:none;stroke:#00bfbf;stroke-linecap:square;stroke-width:1.5;"/>
   </g>
   <g id="line2d_25">
    <path clip-path="url(#pf894da6694)" d="M 92.290909 213.065671 
L 92.437414 213.065671 
L 92.730423 193.303892 
L 92.876928 191.671652 
L 93.023433 191.578899 
L 93.316442 191.920436 
L 93.755957 192.037459 
L 94.634985 191.918678 
L 95.514014 191.735335 
L 95.807023 199.544792 
L 120.566328 199.544792 
L 120.712832 199.910126 
L 122.17788 209.632517 
L 122.617394 211.288757 
L 122.910404 211.719194 
L 123.349918 210.50387 
L 123.496423 209.59432 
L 123.642927 209.761371 
L 123.789432 210.21601 
L 123.935937 210.124406 
L 124.228947 206.526771 
L 124.96147 203.139994 
L 125.547489 201.36139 
L 126.133508 200.244227 
L 126.719527 199.578459 
L 127.452051 199.139909 
L 128.33108 198.929998 
L 128.477585 198.914313 
L 128.624089 198.071895 
L 128.917099 198.581429 
L 129.210108 199.059933 
L 129.503118 198.321423 
L 130.089137 196.825135 
L 130.382146 196.447632 
L 130.675156 196.42201 
L 130.968165 196.789845 
L 131.261175 197.556209 
L 131.700689 199.362057 
L 132.140203 201.333131 
L 132.579718 201.449343 
L 133.458746 202.085568 
L 134.19127 202.728486 
L 135.070299 200.634913 
L 135.656318 200.026203 
L 136.242337 199.706975 
L 136.974861 199.550944 
L 138.293403 199.552634 
L 138.732918 199.5502 
L 139.758451 199.109082 
L 140.34447 199.097116 
L 140.930489 199.321359 
L 141.809518 199.986113 
L 142.542041 200.546554 
L 142.981556 200.056895 
L 143.714079 199.731042 
L 144.739613 199.545874 
L 146.49767 199.520792 
L 148.548736 199.461503 
L 149.720775 199.459813 
L 151.332327 199.734084 
L 151.771841 199.731583 
L 152.504365 199.613072 
L 154.555432 199.537761 
L 192.06065 199.544792 
L 417.531474 199.544792 
L 417.677978 199.163503 
L 418.263997 199.16783 
L 418.996521 199.418575 
L 420.168559 199.850229 
L 420.461569 199.890048 
L 420.754578 199.707043 
L 421.780112 199.58549 
L 425.149721 199.550944 
L 488.586282 199.544792 
L 498.109091 199.544792 
L 498.109091 199.544792 
" style="fill:none;stroke:#ff0000;stroke-linecap:square;stroke-width:1.5;"/>
   </g>
   <g id="line2d_26">
    <path clip-path="url(#pf894da6694)" d="M 92.290909 213.065671 
L 92.437414 213.065671 
L 92.730423 226.58655 
L 498.109091 226.58655 
L 498.109091 226.58655 
" style="fill:none;stroke:#008000;stroke-linecap:square;stroke-width:1.5;"/>
   </g>
   <g id="line2d_27">
    <path clip-path="url(#pf894da6694)" d="M 92.290909 213.065671 
L 92.437414 213.065671 
L 92.730423 231.318452 
L 92.876928 228.882733 
L 93.169938 231.892683 
L 93.462947 233.172975 
L 93.902461 233.919801 
L 94.634985 234.474766 
L 95.514014 235.039398 
L 96.100033 220.365864 
L 96.393042 217.444002 
L 96.686052 216.138088 
L 96.979061 215.677499 
L 97.272071 215.64728 
L 97.711585 215.964615 
L 98.883623 217.328939 
L 101.374204 220.166566 
L 103.864785 222.650892 
L 106.355366 224.826672 
L 108.992452 226.838849 
L 111.776042 228.681542 
L 112.069052 228.665655 
L 112.655071 229.304517 
L 113.534099 230.120299 
L 115.73167 231.595359 
L 117.050213 232.048985 
L 119.540794 233.009914 
L 120.126813 233.244028 
L 120.273318 236.469231 
L 120.859337 266.22713 
L 122.617394 355.632725 
L 122.910404 365.137768 
L 123.203413 368.754129 
L 123.496423 369.36 
L 123.642927 369.255348 
L 123.789432 367.736954 
L 124.228947 342.136522 
L 124.814966 321.509542 
L 125.25448 312.22854 
L 125.693994 306.737373 
L 126.133508 303.919622 
L 126.426518 303.100189 
L 126.719527 302.898999 
L 127.012537 303.163873 
L 127.452051 304.179561 
L 128.03807 306.249134 
L 128.477585 308.089326 
L 128.917099 311.80608 
L 129.063604 312.503758 
L 129.210108 311.224615 
L 129.796127 299.679948 
L 130.382146 289.690384 
L 130.675156 287.056044 
L 130.821661 286.492494 
L 130.968165 286.466872 
L 131.11467 286.991279 
L 131.40768 289.67443 
L 131.847194 297.369838 
L 132.140203 301.245598 
L 132.726223 305.310583 
L 134.044765 312.658234 
L 134.19127 311.474548 
L 134.630784 304.757984 
L 135.070299 300.831453 
L 135.509813 298.583269 
L 135.949327 297.429668 
L 136.388841 296.932032 
L 136.828356 296.787561 
L 137.707384 296.846715 
L 138.439908 296.839346 
L 138.586413 296.713737 
L 139.025927 295.304253 
L 139.758451 292.928162 
L 140.197965 292.149224 
L 140.490975 292.014826 
L 140.783984 292.212637 
L 141.076994 292.734746 
L 141.516508 294.040998 
L 142.395537 297.552573 
L 142.688546 296.243549 
L 143.12806 294.686282 
L 143.567575 293.804044 
L 144.007089 293.365089 
L 144.446603 293.201892 
L 145.179127 293.237993 
L 147.523203 293.586967 
L 147.816213 293.48218 
L 149.134755 292.53707 
L 149.720775 292.47724 
L 150.306794 292.723794 
L 151.039317 293.349608 
L 151.478832 293.771594 
L 152.504365 292.934111 
L 153.236889 292.756514 
L 154.408927 292.748672 
L 157.192517 292.780581 
L 158.80407 292.583582 
L 159.976108 292.704594 
L 160.855136 292.806136 
L 161.88067 292.655175 
L 164.078241 292.62908 
L 172.575517 292.598049 
L 213.889859 292.594399 
L 332.558713 292.506243 
L 333.730752 292.422346 
L 334.756285 292.609001 
L 336.074828 292.888072 
L 336.953856 292.707095 
L 338.858418 292.630094 
L 354.241418 292.598523 
L 417.531474 292.597103 
L 417.824483 292.050521 
L 418.263997 291.235618 
L 418.557007 291.098719 
L 418.850016 291.29822 
L 419.289531 292.061811 
L 420.315064 294.276396 
L 420.754578 293.578381 
L 421.340597 293.18418 
L 422.219626 292.947294 
L 423.977683 292.783353 
L 428.372826 292.641857 
L 438.628159 292.600213 
L 498.109091 292.603593 
L 498.109091 292.603593 
" style="fill:none;stroke:#0000ff;stroke-linecap:square;stroke-width:1.5;"/>
   </g>
   <g id="line2d_28">
    <path clip-path="url(#pf894da6694)" d="M 92.290909 213.065671 
L 92.437414 213.065671 
L 92.730423 194.81289 
L 93.169938 187.677922 
L 93.462947 185.911487 
L 93.755957 185.113349 
L 94.195471 184.526341 
L 95.514014 183.377877 
L 96.100033 203.306436 
L 96.393042 207.496353 
L 96.686052 209.483449 
L 96.979061 210.297203 
L 97.272071 210.505898 
L 97.56508 210.410508 
L 98.151099 209.853786 
L 102.839252 204.608429 
L 105.329833 202.292843 
L 107.966918 200.15242 
L 110.750509 198.193177 
L 111.922547 197.449799 
L 112.215556 197.465686 
L 112.801575 196.826825 
L 113.680604 196.011043 
L 115.878175 194.535982 
L 117.196718 194.082357 
L 119.687299 193.121428 
L 120.273318 192.887314 
L 120.419823 189.662111 
L 123.203413 70.080484 
L 123.496423 66.96 
L 123.642927 66.987988 
L 123.789432 67.547279 
L 123.935937 68.974003 
L 124.521956 95.660905 
L 125.107975 111.293475 
L 125.547489 117.909849 
L 125.987004 121.512217 
L 126.280013 122.709626 
L 126.573023 123.198744 
L 126.719527 123.232343 
L 127.012537 122.967469 
L 127.452051 121.951781 
L 128.03807 119.882207 
L 128.477585 118.042016 
L 128.917099 114.325261 
L 129.210108 113.142725 
L 129.356613 114.13198 
L 129.796127 121.312716 
L 130.528651 133.283697 
L 130.968165 136.883901 
L 131.11467 137.244165 
L 131.261175 137.151479 
L 131.40768 136.600571 
L 131.700689 134.157213 
L 132.433213 125.532447 
L 133.019232 122.180081 
L 134.19127 116.656869 
L 134.337775 117.44561 
L 134.777289 122.909194 
L 135.216803 126.204232 
L 135.656318 128.029483 
L 136.095832 128.922943 
L 136.535346 129.275094 
L 137.121365 129.344592 
L 138.586413 129.315589 
L 138.732918 129.42308 
L 139.172432 130.602574 
L 140.05146 133.062833 
L 140.490975 133.676749 
L 140.783984 133.758482 
L 141.076994 133.563038 
L 141.516508 132.780314 
L 142.102527 131.057957 
L 142.542041 129.580531 
L 142.688546 129.887793 
L 143.12806 131.44506 
L 143.567575 132.327297 
L 144.007089 132.766253 
L 144.446603 132.92945 
L 145.179127 132.893349 
L 147.523203 132.544375 
L 147.962717 132.631112 
L 149.57427 133.56608 
L 150.160289 133.536943 
L 150.746308 133.262672 
L 151.771841 132.682761 
L 152.35786 133.12895 
L 153.090384 133.356169 
L 154.115917 133.394365 
L 157.485527 133.367661 
L 159.097079 133.532008 
L 160.415622 133.404506 
L 161.148146 133.389633 
L 162.466689 133.501991 
L 168.619888 133.513349 
L 181.805317 133.537146 
L 333.144733 133.639228 
L 334.170266 133.652073 
L 335.488809 133.38436 
L 336.221332 133.28897 
L 337.246866 133.449395 
L 340.030456 133.502127 
L 352.483361 133.532549 
L 417.531474 133.534239 
L 417.677978 133.15295 
L 417.970988 133.677087 
L 418.410502 134.551888 
L 418.703512 134.784717 
L 418.996521 134.706905 
L 419.436035 134.137405 
L 420.461569 132.200201 
L 421.047588 132.789576 
L 421.780112 133.095013 
L 422.95215 133.27288 
L 426.02875 133.437159 
L 432.328454 133.522476 
L 463.973482 133.528222 
L 498.109091 133.527749 
L 498.109091 133.527749 
" style="fill:none;stroke:#000000;stroke-linecap:square;stroke-width:1.5;"/>
   </g>
   <g id="patch_3">
    <path d="M 72 384.48 
L 72 51.84 
" style="fill:none;stroke:#000000;stroke-linecap:square;stroke-linejoin:miter;stroke-width:0.8;"/>
   </g>
   <g id="patch_4">
    <path d="M 518.4 384.48 
L 518.4 51.84 
" style="fill:none;stroke:#000000;stroke-linecap:square;stroke-linejoin:miter;stroke-width:0.8;"/>
   </g>
   <g id="patch_5">
    <path d="M 72 384.48 
L 518.4 384.48 
" style="fill:none;stroke:#000000;stroke-linecap:square;stroke-linejoin:miter;stroke-width:0.8;"/>
   </g>
   <g id="patch_6">
    <path d="M 72 51.84 
L 518.4 51.84 
" style="fill:none;stroke:#000000;stroke-linecap:square;stroke-linejoin:miter;stroke-width:0.8;"/>
   </g>
   <g id="text_14">
    <!-- $i_{mn}$ -->
    <g transform="translate(285.423734 45.84)scale(0.14 -0.14)">
     <use transform="translate(0 14.943915)scale(0.996264)" xlink:href="#CMMI12-105"/>
     <use transform="translate(33.278602 0)scale(0.697382)" xlink:href="#CMMI12-109"/>
     <use transform="translate(93.007393 0)scale(0.697382)" xlink:href="#CMMI12-110"/>
    </g>
   </g>
   <g id="legend_1">
    <g id="patch_7">
     <path d="M 468.025266 379.48 
L 511.4 379.48 
Q 513.4 379.48 513.4 377.48 
L 513.4 294.85693 
Q 513.4 292.85693 511.4 292.85693 
L 468.025266 292.85693 
Q 466.025266 292.85693 466.025266 294.85693 
L 466.025266 377.48 
Q 466.025266 379.48 468.025266 379.48 
z
" style="fill:#ffffff;opacity:0.8;stroke:#cccccc;stroke-linejoin:miter;"/>
    </g>
    <g id="line2d_29">
     <path d="M 470.025266 300.35693 
L 490.025266 300.35693 
" style="fill:none;stroke:#bf00bf;stroke-linecap:square;stroke-width:1.5;"/>
    </g>
    <g id="line2d_30"/>
    <g id="text_15">
     <!-- $i_{12}$ -->
     <g transform="translate(498.025266 303.85693)scale(0.1 -0.1)">
      <use transform="translate(0 14.943915)scale(0.996264)" xlink:href="#CMMI12-105"/>
      <use transform="translate(33.278602 0)scale(0.697382)" xlink:href="#CMR17-49"/>
      <use transform="translate(65.261784 0)scale(0.697382)" xlink:href="#CMR17-50"/>
     </g>
    </g>
    <g id="line2d_31">
     <path d="M 470.025266 314.294108 
L 490.025266 314.294108 
" style="fill:none;stroke:#00bfbf;stroke-linecap:square;stroke-width:1.5;"/>
    </g>
    <g id="line2d_32"/>
    <g id="text_16">
     <!-- $i_{21}$ -->
     <g transform="translate(498.025266 317.794108)scale(0.1 -0.1)">
      <use transform="translate(0 14.943915)scale(0.996264)" xlink:href="#CMMI12-105"/>
      <use transform="translate(33.278602 0)scale(0.697382)" xlink:href="#CMR17-50"/>
      <use transform="translate(65.261784 0)scale(0.697382)" xlink:href="#CMR17-49"/>
     </g>
    </g>
    <g id="line2d_33">
     <path d="M 470.025266 328.231287 
L 490.025266 328.231287 
" style="fill:none;stroke:#ff0000;stroke-linecap:square;stroke-width:1.5;"/>
    </g>
    <g id="line2d_34"/>
    <g id="text_17">
     <!-- $i_{23}$ -->
     <defs>
      <path d="M 22.09375 33.703125 
C 31 33.703125 34.90625 25.96875 34.90625 17.03125 
C 34.90625 5 28.5 0.390625 22.703125 0.390625 
C 17.40625 0.390625 8.796875 3.03125 6.09375 10.828125 
C 6.59375 10.625 7.09375 10.625 7.59375 10.625 
C 10 10.625 11.796875 12.21875 11.796875 14.8125 
C 11.796875 17.703125 9.59375 19 7.59375 19 
C 5.90625 19 3.296875 18.203125 3.296875 14.46875 
C 3.296875 5.234375 12.296875 -2 22.90625 -2 
C 34 -2 42.5 6.71875 42.5 16.953125 
C 42.5 26.671875 34.5 33.703125 25 34.796875 
C 32.59375 36.375 39.90625 43.0625 39.90625 52.015625 
C 39.90625 59.6875 32 65.296875 23 65.296875 
C 13.90625 65.296875 5.90625 59.828125 5.90625 52.015625 
C 5.90625 48.59375 8.5 48 9.796875 48 
C 11.90625 48 13.703125 49.296875 13.703125 51.890625 
C 13.703125 54.46875 11.90625 55.765625 9.796875 55.765625 
C 9.40625 55.765625 8.90625 55.765625 8.5 55.578125 
C 11.40625 61.859375 19.296875 63 22.796875 63 
C 26.296875 63 32.90625 61.328125 32.90625 51.875 
C 32.90625 49.109375 32.5 44.1875 29.09375 39.84375 
C 26.09375 36 22.703125 36 19.40625 35.6875 
C 18.90625 35.6875 16.59375 35.453125 16.203125 35.453125 
C 15.5 35.359375 15.09375 35.265625 15.09375 34.5 
C 15.09375 33.796875 15.203125 33.703125 17.203125 33.703125 
z
" id="CMR17-51"/>
     </defs>
     <g transform="translate(498.025266 331.731287)scale(0.1 -0.1)">
      <use transform="translate(0 14.943915)scale(0.996264)" xlink:href="#CMMI12-105"/>
      <use transform="translate(33.278602 0)scale(0.697382)" xlink:href="#CMR17-50"/>
      <use transform="translate(65.261784 0)scale(0.697382)" xlink:href="#CMR17-51"/>
     </g>
    </g>
    <g id="line2d_35">
     <path d="M 470.025266 342.168465 
L 490.025266 342.168465 
" style="fill:none;stroke:#008000;stroke-linecap:square;stroke-width:1.5;"/>
    </g>
    <g id="line2d_36"/>
    <g id="text_18">
     <!-- $i_{32}$ -->
     <g transform="translate(498.025266 345.668465)scale(0.1 -0.1)">
      <use transform="translate(0 14.943915)scale(0.996264)" xlink:href="#CMMI12-105"/>
      <use transform="translate(33.278602 0)scale(0.697382)" xlink:href="#CMR17-51"/>
      <use transform="translate(65.261784 0)scale(0.697382)" xlink:href="#CMR17-50"/>
     </g>
    </g>
    <g id="line2d_37">
     <path d="M 470.025266 356.105643 
L 490.025266 356.105643 
" style="fill:none;stroke:#0000ff;stroke-linecap:square;stroke-width:1.5;"/>
    </g>
    <g id="line2d_38"/>
    <g id="text_19">
     <!-- $i_{34}$ -->
     <defs>
      <path d="M 33.59375 64.40625 
C 33.59375 66.5 33.5 66.5 31.703125 66.5 
L 2 19.59375 
L 2 17 
L 27.796875 17 
L 27.796875 7.140625 
C 27.796875 3.5 27.59375 2.5 20.59375 2.5 
L 18.703125 2.5 
L 18.703125 0 
C 21.90625 0 27.296875 0 30.703125 0 
C 34.09375 0 39.5 0 42.703125 0 
L 42.703125 2.5 
L 40.796875 2.5 
C 33.796875 2.5 33.59375 3.5 33.59375 7.140625 
L 33.59375 17 
L 43.796875 17 
L 43.796875 19.59375 
L 33.59375 19.59375 
z
M 28.09375 57.859375 
L 28.09375 19.59375 
L 4 19.59375 
z
" id="CMR17-52"/>
     </defs>
     <g transform="translate(498.025266 359.605643)scale(0.1 -0.1)">
      <use transform="translate(0 14.943915)scale(0.996264)" xlink:href="#CMMI12-105"/>
      <use transform="translate(33.278602 0)scale(0.697382)" xlink:href="#CMR17-51"/>
      <use transform="translate(65.261784 0)scale(0.697382)" xlink:href="#CMR17-52"/>
     </g>
    </g>
    <g id="line2d_39">
     <path d="M 470.025266 370.042822 
L 490.025266 370.042822 
" style="fill:none;stroke:#000000;stroke-linecap:square;stroke-width:1.5;"/>
    </g>
    <g id="line2d_40"/>
    <g id="text_20">
     <!-- $i_{43}$ -->
     <g transform="translate(498.025266 373.542822)scale(0.1 -0.1)">
      <use transform="translate(0 14.943915)scale(0.996264)" xlink:href="#CMMI12-105"/>
      <use transform="translate(33.278602 0)scale(0.697382)" xlink:href="#CMR17-52"/>
      <use transform="translate(65.261784 0)scale(0.697382)" xlink:href="#CMR17-51"/>
     </g>
    </g>
   </g>
  </g>
 </g>
 <defs>
  <clipPath id="pf894da6694">
   <rect height="332.64" width="446.4" x="72" y="51.84"/>
  </clipPath>
 </defs>
</svg>
