<?xml version="1.0" encoding="utf-8" standalone="no"?>
<!DOCTYPE svg PUBLIC "-//W3C//DTD SVG 1.1//EN"
  "http://www.w3.org/Graphics/SVG/1.1/DTD/svg11.dtd">
<!-- Created with matplotlib (http://matplotlib.org/) -->
<svg height="432pt" version="1.1" viewBox="0 0 576 432" width="576pt" xmlns="http://www.w3.org/2000/svg" xmlns:xlink="http://www.w3.org/1999/xlink">
 <defs>
  <style type="text/css">
*{stroke-linecap:butt;stroke-linejoin:round;}
  </style>
 </defs>
 <g id="figure_1">
  <g id="patch_1">
   <path d="M 0 432 
L 576 432 
L 576 0 
L 0 0 
z
" style="fill:#ffffff;"/>
  </g>
  <g id="axes_1">
   <g id="patch_2">
    <path d="M 72 384.48 
L 518.4 384.48 
L 518.4 51.84 
L 72 51.84 
z
" style="fill:#ffffff;"/>
   </g>
   <g id="matplotlib.axis_1">
    <g id="xtick_1">
     <g id="line2d_1">
      <path clip-path="url(#p2cbf445f9d)" d="M 92.290909 384.48 
L 92.290909 51.84 
" style="fill:none;stroke:#b0b0b0;stroke-dasharray:5.12,1.28,0.8,1.28;stroke-dashoffset:0;stroke-width:0.8;"/>
     </g>
     <g id="line2d_2">
      <defs>
       <path d="M 0 0 
L 0 3.5 
" id="m186c704742" style="stroke:#000000;stroke-width:0.8;"/>
      </defs>
      <g>
       <use style="stroke:#000000;stroke-width:0.8;" x="92.290909" xlink:href="#m186c704742" y="384.48"/>
      </g>
     </g>
     <g id="text_1">
      <!-- $0$ -->
      <defs>
       <path d="M 42 31.640625 
C 42 37.75 41.90625 48.125 37.703125 56.109375 
C 34 63.109375 28.09375 65.59375 22.90625 65.59375 
C 18.09375 65.59375 12 63.40625 8.203125 56.203125 
C 4.203125 48.71875 3.796875 39.4375 3.796875 31.640625 
C 3.796875 25.953125 3.90625 17.28125 7 9.671875 
C 11.296875 -0.609375 19 -2 22.90625 -2 
C 27.5 -2 34.5 -0.109375 38.59375 9.375 
C 41.59375 16.28125 42 24.359375 42 31.640625 
z
M 22.90625 -0.40625 
C 16.5 -0.40625 12.703125 5.078125 11.296875 12.6875 
C 10.203125 18.5625 10.203125 27.15625 10.203125 32.75 
C 10.203125 40.4375 10.203125 46.828125 11.5 52.921875 
C 13.40625 61.390625 19 64 22.90625 64 
C 27 64 32.296875 61.296875 34.203125 53.125 
C 35.5 47.4375 35.59375 40.734375 35.59375 32.75 
C 35.59375 26.25 35.59375 18.265625 34.40625 12.375 
C 32.296875 1.484375 26.40625 -0.40625 22.90625 -0.40625 
z
" id="CMR17-48"/>
      </defs>
      <g transform="translate(89.800241 398.398498)scale(0.1 -0.1)">
       <use transform="scale(0.996264)" xlink:href="#CMR17-48"/>
      </g>
     </g>
    </g>
    <g id="xtick_2">
     <g id="line2d_3">
      <path clip-path="url(#p2cbf445f9d)" d="M 165.543288 384.48 
L 165.543288 51.84 
" style="fill:none;stroke:#b0b0b0;stroke-dasharray:5.12,1.28,0.8,1.28;stroke-dashoffset:0;stroke-width:0.8;"/>
     </g>
     <g id="line2d_4">
      <g>
       <use style="stroke:#000000;stroke-width:0.8;" x="165.543288" xlink:href="#m186c704742" y="384.48"/>
      </g>
     </g>
     <g id="text_2">
      <!-- $500$ -->
      <defs>
       <path d="M 11.40625 57.6875 
C 12.40625 57.28125 16.5 56 20.703125 56 
C 30 56 35.09375 61.109375 38 64.0625 
C 38 64.953125 38 65.5 37.40625 65.5 
C 37.296875 65.5 37.09375 65.5 36.296875 65.046875 
C 32.796875 63.40625 28.703125 62.078125 23.703125 62.078125 
C 20.703125 62.078125 16.203125 62.484375 11.296875 64.671875 
C 10.203125 65.171875 10 65.171875 9.90625 65.171875 
C 9.40625 65.171875 9.296875 65.0625 9.296875 63.078125 
L 9.296875 34.421875 
C 9.296875 32.640625 9.296875 32.140625 10.296875 32.140625 
C 10.796875 32.140625 11 32.34375 11.5 33.03125 
C 14.703125 37.515625 19.09375 39.40625 24.09375 39.40625 
C 27.59375 39.40625 35.09375 37.21875 35.09375 20.140625 
C 35.09375 16.953125 35.09375 11.171875 32.09375 6.578125 
C 29.59375 2.484375 25.703125 0.390625 21.40625 0.390625 
C 14.796875 0.390625 8.09375 5 6.296875 12.71875 
C 6.703125 12.609375 7.5 12.421875 7.90625 12.421875 
C 9.203125 12.421875 11.703125 13.125 11.703125 16.21875 
C 11.703125 18.90625 9.796875 20 7.90625 20 
C 5.59375 20 4.09375 18.59375 4.09375 15.796875 
C 4.09375 7.09375 11 -2 21.59375 -2 
C 31.90625 -2 41.703125 6.875 41.703125 19.75 
C 41.703125 31.71875 33.90625 41 24.203125 41 
C 19.09375 41 14.796875 39.109375 11.40625 35.53125 
z
" id="CMR17-53"/>
      </defs>
      <g transform="translate(158.071286 398.398498)scale(0.1 -0.1)">
       <use transform="scale(0.996264)" xlink:href="#CMR17-53"/>
       <use transform="translate(45.690477 0)scale(0.996264)" xlink:href="#CMR17-48"/>
       <use transform="translate(91.380954 0)scale(0.996264)" xlink:href="#CMR17-48"/>
      </g>
     </g>
    </g>
    <g id="xtick_3">
     <g id="line2d_5">
      <path clip-path="url(#p2cbf445f9d)" d="M 238.795668 384.48 
L 238.795668 51.84 
" style="fill:none;stroke:#b0b0b0;stroke-dasharray:5.12,1.28,0.8,1.28;stroke-dashoffset:0;stroke-width:0.8;"/>
     </g>
     <g id="line2d_6">
      <g>
       <use style="stroke:#000000;stroke-width:0.8;" x="238.795668" xlink:href="#m186c704742" y="384.48"/>
      </g>
     </g>
     <g id="text_3">
      <!-- $1000$ -->
      <defs>
       <path d="M 26.59375 63.40625 
C 26.59375 65.5 26.5 65.5 25.09375 65.5 
C 21.203125 61.1875 15.296875 59.796875 9.703125 59.796875 
C 9.40625 59.796875 8.90625 59.796875 8.796875 59.5 
C 8.703125 59.296875 8.703125 59.09375 8.703125 57 
C 11.796875 57 17 57.59375 21 59.984375 
L 21 7.203125 
C 21 3.6875 20.796875 2.5 12.203125 2.5 
L 9.203125 2.5 
L 9.203125 0 
C 14 0 19 0 23.796875 0 
C 28.59375 0 33.59375 0 38.40625 0 
L 38.40625 2.5 
L 35.40625 2.5 
C 26.796875 2.5 26.59375 3.59375 26.59375 7.15625 
z
" id="CMR17-49"/>
      </defs>
      <g transform="translate(228.832997 398.398498)scale(0.1 -0.1)">
       <use transform="scale(0.996264)" xlink:href="#CMR17-49"/>
       <use transform="translate(45.690477 0)scale(0.996264)" xlink:href="#CMR17-48"/>
       <use transform="translate(91.380954 0)scale(0.996264)" xlink:href="#CMR17-48"/>
       <use transform="translate(137.071431 0)scale(0.996264)" xlink:href="#CMR17-48"/>
      </g>
     </g>
    </g>
    <g id="xtick_4">
     <g id="line2d_7">
      <path clip-path="url(#p2cbf445f9d)" d="M 312.048047 384.48 
L 312.048047 51.84 
" style="fill:none;stroke:#b0b0b0;stroke-dasharray:5.12,1.28,0.8,1.28;stroke-dashoffset:0;stroke-width:0.8;"/>
     </g>
     <g id="line2d_8">
      <g>
       <use style="stroke:#000000;stroke-width:0.8;" x="312.048047" xlink:href="#m186c704742" y="384.48"/>
      </g>
     </g>
     <g id="text_4">
      <!-- $1500$ -->
      <g transform="translate(302.085377 398.398498)scale(0.1 -0.1)">
       <use transform="scale(0.996264)" xlink:href="#CMR17-49"/>
       <use transform="translate(45.690477 0)scale(0.996264)" xlink:href="#CMR17-53"/>
       <use transform="translate(91.380954 0)scale(0.996264)" xlink:href="#CMR17-48"/>
       <use transform="translate(137.071431 0)scale(0.996264)" xlink:href="#CMR17-48"/>
      </g>
     </g>
    </g>
    <g id="xtick_5">
     <g id="line2d_9">
      <path clip-path="url(#p2cbf445f9d)" d="M 385.300427 384.48 
L 385.300427 51.84 
" style="fill:none;stroke:#b0b0b0;stroke-dasharray:5.12,1.28,0.8,1.28;stroke-dashoffset:0;stroke-width:0.8;"/>
     </g>
     <g id="line2d_10">
      <g>
       <use style="stroke:#000000;stroke-width:0.8;" x="385.300427" xlink:href="#m186c704742" y="384.48"/>
      </g>
     </g>
     <g id="text_5">
      <!-- $2000$ -->
      <defs>
       <path d="M 41.703125 15.453125 
L 39.90625 15.453125 
C 38.90625 8.375 38.09375 7.171875 37.703125 6.5625 
C 37.203125 5.765625 30 5.765625 28.59375 5.765625 
L 9.40625 5.765625 
C 13 9.671875 20 16.75 28.5 24.953125 
C 34.59375 30.734375 41.703125 37.53125 41.703125 47.421875 
C 41.703125 59.21875 32.296875 66 21.796875 66 
C 10.796875 66 4.09375 56.3125 4.09375 47.34375 
C 4.09375 43.4375 7 42.9375 8.203125 42.9375 
C 9.203125 42.9375 12.203125 43.546875 12.203125 47.03125 
C 12.203125 50.109375 9.59375 51 8.203125 51 
C 7.59375 51 7 50.90625 6.59375 50.703125 
C 8.5 59.21875 14.296875 63.40625 20.40625 63.40625 
C 29.09375 63.40625 34.796875 56.515625 34.796875 47.421875 
C 34.796875 38.734375 29.703125 31.25 24 24.75 
L 4.09375 2.28125 
L 4.09375 0 
L 39.296875 0 
z
" id="CMR17-50"/>
      </defs>
      <g transform="translate(375.337756 398.398498)scale(0.1 -0.1)">
       <use transform="scale(0.996264)" xlink:href="#CMR17-50"/>
       <use transform="translate(45.690477 0)scale(0.996264)" xlink:href="#CMR17-48"/>
       <use transform="translate(91.380954 0)scale(0.996264)" xlink:href="#CMR17-48"/>
       <use transform="translate(137.071431 0)scale(0.996264)" xlink:href="#CMR17-48"/>
      </g>
     </g>
    </g>
    <g id="xtick_6">
     <g id="line2d_11">
      <path clip-path="url(#p2cbf445f9d)" d="M 458.552806 384.48 
L 458.552806 51.84 
" style="fill:none;stroke:#b0b0b0;stroke-dasharray:5.12,1.28,0.8,1.28;stroke-dashoffset:0;stroke-width:0.8;"/>
     </g>
     <g id="line2d_12">
      <g>
       <use style="stroke:#000000;stroke-width:0.8;" x="458.552806" xlink:href="#m186c704742" y="384.48"/>
      </g>
     </g>
     <g id="text_6">
      <!-- $2500$ -->
      <g transform="translate(448.590136 398.398498)scale(0.1 -0.1)">
       <use transform="scale(0.996264)" xlink:href="#CMR17-50"/>
       <use transform="translate(45.690477 0)scale(0.996264)" xlink:href="#CMR17-53"/>
       <use transform="translate(91.380954 0)scale(0.996264)" xlink:href="#CMR17-48"/>
       <use transform="translate(137.071431 0)scale(0.996264)" xlink:href="#CMR17-48"/>
      </g>
     </g>
    </g>
    <g id="text_7">
     <!-- Iteration -->
     <defs>
      <path d="M 17.09375 69 
L 8.703125 69 
L 8.703125 0 
L 17.09375 0 
z
" id="CMSS17-73"/>
      <path d="M 16.703125 37 
L 29.703125 37 
L 29.703125 42.765625 
L 16.703125 42.765625 
L 16.703125 55 
L 9.59375 55 
L 9.59375 42.765625 
L 1.703125 42.765625 
L 1.703125 37 
L 9.40625 37 
L 9.40625 11.703125 
C 9.40625 6 10.703125 -1 17.296875 -1 
C 22.296875 -1 26.90625 0.390625 31.296875 2.6875 
L 29.703125 8.5625 
C 27.296875 6.46875 24.40625 5.265625 21.296875 5.265625 
C 16.90625 5.265625 16.703125 10.875 16.703125 13.375 
z
" id="CMSS17-116"/>
      <path d="M 39.09375 21.515625 
C 39.09375 24.84375 38.90625 31.296875 35.703125 36.640625 
C 32.203125 42.390625 26.5 44 22.203125 44 
C 11.796875 44 3 34.1875 3 21.484375 
C 3 9.09375 12.09375 -1 23.59375 -1 
C 28.09375 -1 33.59375 0.296875 38.59375 3.875 
C 38.59375 4.28125 38.40625 6.46875 38.296875 6.5625 
C 38.296875 6.765625 38 9.84375 38 10.25 
C 33.203125 6.359375 27.703125 5.078125 23.703125 5.078125 
C 17.296875 5.078125 10.40625 10.421875 10.09375 21.515625 
z
M 10.90625 27 
C 12.203125 32.5625 16.59375 37.828125 22.203125 37.828125 
C 23.703125 37.828125 30.703125 37.828125 32.5 27 
z
" id="CMSS17-101"/>
      <path d="M 14.90625 21.296875 
C 14.90625 30.703125 21.796875 37 30.59375 37 
L 30.59375 43.578125 
C 24.203125 43.578125 18.203125 40.390625 14.59375 35.203125 
L 14.59375 43.09375 
L 7.5 43.09375 
L 7.5 0 
L 14.90625 0 
z
" id="CMSS17-114"/>
      <path d="M 37.59375 27.984375 
C 37.59375 37.375 30.90625 43.875 21.90625 43.875 
C 17.5 43.875 12.703125 43.078125 7.203125 39.890625 
L 7.796875 33.359375 
C 10.296875 35.125 14.59375 38 21.796875 38 
C 26.90625 38 30 34.0625 30 27.84375 
L 30 24 
C 14 24 4 19.34375 4 11.34375 
C 4 7.203125 6.5 -1 14.796875 -1 
C 16.296875 -1 24.40625 -1 30.203125 3.390625 
L 30.203125 -0.296875 
L 37.59375 -0.296875 
z
M 30 12.75 
C 30 10.953125 30 8.5625 27 6.78125 
C 24.40625 5.078125 21.09375 5.078125 19.703125 5.078125 
C 14.703125 5.078125 11.296875 7.984375 11.296875 11.625 
C 11.296875 18.921875 26.90625 18.921875 30 18.921875 
z
" id="CMSS17-97"/>
      <path d="M 15.296875 65.359375 
L 6.90625 65.359375 
L 6.90625 57 
L 15.296875 57 
z
M 14.796875 42.796875 
L 7.40625 42.796875 
L 7.40625 0 
L 14.796875 0 
z
" id="CMSS17-105"/>
      <path d="M 44.203125 21.1875 
C 44.203125 34 34.703125 44 23.5 44 
C 12 44 2.703125 33.703125 2.703125 21.1875 
C 2.703125 8.5 12.296875 -1 23.40625 -1 
C 34.796875 -1 44.203125 8.796875 44.203125 21.1875 
z
M 23.5 5.265625 
C 16.40625 5.265625 10.296875 11.078125 10.296875 22 
C 10.296875 33.609375 17.40625 37.921875 23.40625 37.921875 
C 29.90625 37.921875 36.59375 33.21875 36.59375 22 
C 36.59375 10.671875 30.09375 5.265625 23.5 5.265625 
z
" id="CMSS17-111"/>
      <path d="M 40.90625 29.328125 
C 40.90625 35.671875 39.40625 44 28.09375 44 
C 21.703125 44 17.5 40.71875 14.703125 37.328125 
L 14.703125 43.09375 
L 7.40625 43.09375 
L 7.40625 0 
L 15 0 
L 15 24.359375 
C 15 30.6875 17.40625 37.9375 24.203125 37.9375 
C 33 37.9375 33.296875 32 33.296875 28.578125 
L 33.296875 0 
L 40.90625 0 
z
" id="CMSS17-110"/>
     </defs>
     <g transform="translate(271.264003 414.021553)scale(0.14 -0.14)">
      <use transform="scale(0.996264)" xlink:href="#CMSS17-73"/>
      <use transform="translate(25.783926 0)scale(0.996264)" xlink:href="#CMSS17-116"/>
      <use transform="translate(59.615492 0)scale(0.996264)" xlink:href="#CMSS17-101"/>
      <use transform="translate(101.254314 0)scale(0.996264)" xlink:href="#CMSS17-114"/>
      <use transform="translate(133.164087 0)scale(0.996264)" xlink:href="#CMSS17-97"/>
      <use transform="translate(178.086007 0)scale(0.996264)" xlink:href="#CMSS17-116"/>
      <use transform="translate(211.917574 0)scale(0.996264)" xlink:href="#CMSS17-105"/>
      <use transform="translate(234.098297 0)scale(0.996264)" xlink:href="#CMSS17-111"/>
      <use transform="translate(280.941921 0)scale(0.996264)" xlink:href="#CMSS17-110"/>
     </g>
    </g>
   </g>
   <g id="matplotlib.axis_2">
    <g id="ytick_1">
     <g id="line2d_13">
      <path clip-path="url(#p2cbf445f9d)" d="M 72 351.720447 
L 518.4 351.720447 
" style="fill:none;stroke:#b0b0b0;stroke-dasharray:5.12,1.28,0.8,1.28;stroke-dashoffset:0;stroke-width:0.8;"/>
     </g>
     <g id="line2d_14">
      <defs>
       <path d="M 0 0 
L -3.5 0 
" id="m0d16657c35" style="stroke:#000000;stroke-width:0.8;"/>
      </defs>
      <g>
       <use style="stroke:#000000;stroke-width:0.8;" x="72" xlink:href="#m0d16657c35" y="351.720447"/>
      </g>
     </g>
     <g id="text_8">
      <!-- $-50$ -->
      <defs>
       <path d="M 65.90625 23 
C 67.59375 23 69.40625 23 69.40625 25 
C 69.40625 27 67.59375 27 65.90625 27 
L 11.796875 27 
C 10.09375 27 8.296875 27 8.296875 25 
C 8.296875 23 10.09375 23 11.796875 23 
z
" id="CMSY10-0"/>
      </defs>
      <g transform="translate(47.288586 355.179696)scale(0.1 -0.1)">
       <use transform="scale(0.996264)" xlink:href="#CMSY10-0"/>
       <use transform="translate(77.487468 0)scale(0.996264)" xlink:href="#CMR17-53"/>
       <use transform="translate(123.177945 0)scale(0.996264)" xlink:href="#CMR17-48"/>
      </g>
     </g>
    </g>
    <g id="ytick_2">
     <g id="line2d_15">
      <path clip-path="url(#p2cbf445f9d)" d="M 72 296.448299 
L 518.4 296.448299 
" style="fill:none;stroke:#b0b0b0;stroke-dasharray:5.12,1.28,0.8,1.28;stroke-dashoffset:0;stroke-width:0.8;"/>
     </g>
     <g id="line2d_16">
      <g>
       <use style="stroke:#000000;stroke-width:0.8;" x="72" xlink:href="#m0d16657c35" y="296.448299"/>
      </g>
     </g>
     <g id="text_9">
      <!-- $-40$ -->
      <defs>
       <path d="M 33.59375 64.40625 
C 33.59375 66.5 33.5 66.5 31.703125 66.5 
L 2 19.59375 
L 2 17 
L 27.796875 17 
L 27.796875 7.140625 
C 27.796875 3.5 27.59375 2.5 20.59375 2.5 
L 18.703125 2.5 
L 18.703125 0 
C 21.90625 0 27.296875 0 30.703125 0 
C 34.09375 0 39.5 0 42.703125 0 
L 42.703125 2.5 
L 40.796875 2.5 
C 33.796875 2.5 33.59375 3.5 33.59375 7.140625 
L 33.59375 17 
L 43.796875 17 
L 43.796875 19.59375 
L 33.59375 19.59375 
z
M 28.09375 57.859375 
L 28.09375 19.59375 
L 4 19.59375 
z
" id="CMR17-52"/>
      </defs>
      <g transform="translate(47.288586 299.907548)scale(0.1 -0.1)">
       <use transform="scale(0.996264)" xlink:href="#CMSY10-0"/>
       <use transform="translate(77.487468 0)scale(0.996264)" xlink:href="#CMR17-52"/>
       <use transform="translate(123.177945 0)scale(0.996264)" xlink:href="#CMR17-48"/>
      </g>
     </g>
    </g>
    <g id="ytick_3">
     <g id="line2d_17">
      <path clip-path="url(#p2cbf445f9d)" d="M 72 241.176151 
L 518.4 241.176151 
" style="fill:none;stroke:#b0b0b0;stroke-dasharray:5.12,1.28,0.8,1.28;stroke-dashoffset:0;stroke-width:0.8;"/>
     </g>
     <g id="line2d_18">
      <g>
       <use style="stroke:#000000;stroke-width:0.8;" x="72" xlink:href="#m0d16657c35" y="241.176151"/>
      </g>
     </g>
     <g id="text_10">
      <!-- $-30$ -->
      <defs>
       <path d="M 22.09375 33.703125 
C 31 33.703125 34.90625 25.96875 34.90625 17.03125 
C 34.90625 5 28.5 0.390625 22.703125 0.390625 
C 17.40625 0.390625 8.796875 3.03125 6.09375 10.828125 
C 6.59375 10.625 7.09375 10.625 7.59375 10.625 
C 10 10.625 11.796875 12.21875 11.796875 14.8125 
C 11.796875 17.703125 9.59375 19 7.59375 19 
C 5.90625 19 3.296875 18.203125 3.296875 14.46875 
C 3.296875 5.234375 12.296875 -2 22.90625 -2 
C 34 -2 42.5 6.71875 42.5 16.953125 
C 42.5 26.671875 34.5 33.703125 25 34.796875 
C 32.59375 36.375 39.90625 43.0625 39.90625 52.015625 
C 39.90625 59.6875 32 65.296875 23 65.296875 
C 13.90625 65.296875 5.90625 59.828125 5.90625 52.015625 
C 5.90625 48.59375 8.5 48 9.796875 48 
C 11.90625 48 13.703125 49.296875 13.703125 51.890625 
C 13.703125 54.46875 11.90625 55.765625 9.796875 55.765625 
C 9.40625 55.765625 8.90625 55.765625 8.5 55.578125 
C 11.40625 61.859375 19.296875 63 22.796875 63 
C 26.296875 63 32.90625 61.328125 32.90625 51.875 
C 32.90625 49.109375 32.5 44.1875 29.09375 39.84375 
C 26.09375 36 22.703125 36 19.40625 35.6875 
C 18.90625 35.6875 16.59375 35.453125 16.203125 35.453125 
C 15.5 35.359375 15.09375 35.265625 15.09375 34.5 
C 15.09375 33.796875 15.203125 33.703125 17.203125 33.703125 
z
" id="CMR17-51"/>
      </defs>
      <g transform="translate(47.288586 244.635401)scale(0.1 -0.1)">
       <use transform="scale(0.996264)" xlink:href="#CMSY10-0"/>
       <use transform="translate(77.487468 0)scale(0.996264)" xlink:href="#CMR17-51"/>
       <use transform="translate(123.177945 0)scale(0.996264)" xlink:href="#CMR17-48"/>
      </g>
     </g>
    </g>
    <g id="ytick_4">
     <g id="line2d_19">
      <path clip-path="url(#p2cbf445f9d)" d="M 72 185.904004 
L 518.4 185.904004 
" style="fill:none;stroke:#b0b0b0;stroke-dasharray:5.12,1.28,0.8,1.28;stroke-dashoffset:0;stroke-width:0.8;"/>
     </g>
     <g id="line2d_20">
      <g>
       <use style="stroke:#000000;stroke-width:0.8;" x="72" xlink:href="#m0d16657c35" y="185.904004"/>
      </g>
     </g>
     <g id="text_11">
      <!-- $-20$ -->
      <g transform="translate(47.288586 189.363253)scale(0.1 -0.1)">
       <use transform="scale(0.996264)" xlink:href="#CMSY10-0"/>
       <use transform="translate(77.487468 0)scale(0.996264)" xlink:href="#CMR17-50"/>
       <use transform="translate(123.177945 0)scale(0.996264)" xlink:href="#CMR17-48"/>
      </g>
     </g>
    </g>
    <g id="ytick_5">
     <g id="line2d_21">
      <path clip-path="url(#p2cbf445f9d)" d="M 72 130.631856 
L 518.4 130.631856 
" style="fill:none;stroke:#b0b0b0;stroke-dasharray:5.12,1.28,0.8,1.28;stroke-dashoffset:0;stroke-width:0.8;"/>
     </g>
     <g id="line2d_22">
      <g>
       <use style="stroke:#000000;stroke-width:0.8;" x="72" xlink:href="#m0d16657c35" y="130.631856"/>
      </g>
     </g>
     <g id="text_12">
      <!-- $-10$ -->
      <g transform="translate(47.288586 134.091105)scale(0.1 -0.1)">
       <use transform="scale(0.996264)" xlink:href="#CMSY10-0"/>
       <use transform="translate(77.487468 0)scale(0.996264)" xlink:href="#CMR17-49"/>
       <use transform="translate(123.177945 0)scale(0.996264)" xlink:href="#CMR17-48"/>
      </g>
     </g>
    </g>
    <g id="ytick_6">
     <g id="line2d_23">
      <path clip-path="url(#p2cbf445f9d)" d="M 72 75.359708 
L 518.4 75.359708 
" style="fill:none;stroke:#b0b0b0;stroke-dasharray:5.12,1.28,0.8,1.28;stroke-dashoffset:0;stroke-width:0.8;"/>
     </g>
     <g id="line2d_24">
      <g>
       <use style="stroke:#000000;stroke-width:0.8;" x="72" xlink:href="#m0d16657c35" y="75.359708"/>
      </g>
     </g>
     <g id="text_13">
      <!-- $0$ -->
      <g transform="translate(60.018665 78.818957)scale(0.1 -0.1)">
       <use transform="scale(0.996264)" xlink:href="#CMR17-48"/>
      </g>
     </g>
    </g>
    <g id="text_14">
     <!-- $\partial \mathcal{L}/ \partial \mu^{\underline{U}}_{m}$ -->
     <defs>
      <path d="M 45.40625 33.515625 
C 44.796875 39.125 41.296875 45.859375 32.296875 45.859375 
C 18.203125 45.859375 3.796875 31.515625 3.796875 15.5625 
C 3.796875 9.4375 8 -2.09375 21.59375 -2.09375 
C 45.203125 -2.09375 55.296875 32.296875 55.296875 46 
C 55.296875 60.40625 47.203125 71.5 34.40625 71.5 
C 19.90625 71.5 15.59375 58.796875 15.59375 56.09375 
C 15.59375 55.203125 16.203125 53 19 53 
C 22.5 53 24 56.203125 24 57.90625 
C 24 61 20.90625 61 19.59375 61 
C 23.703125 68.40625 31.296875 69.09375 34 69.09375 
C 42.796875 69.09375 48.40625 62.109375 48.40625 50.96875 
C 48.40625 44.578125 46.5 37.1875 45.5 33.515625 
z
M 21.90625 0.59375 
C 12.5 0.59375 10.90625 8.03125 10.90625 12.25 
C 10.90625 16.65625 13.703125 27 15.203125 30.703125 
C 16.5 33.71875 22.203125 43.859375 32.59375 43.859375 
C 41.703125 43.859375 43.796875 35.921875 43.796875 30.515625 
C 43.796875 23.078125 37.296875 0.59375 21.90625 0.59375 
z
" id="CMMI12-64"/>
      <path d="M 18 9.53125 
C 23.40625 17.984375 25.09375 24.40625 26.40625 29.734375 
C 29.90625 43.59375 33.703125 55.65625 39.90625 62.578125 
C 41.09375 63.90625 41.90625 64.796875 45.09375 64.796875 
C 52 64.796875 52.203125 57.875 52.203125 56.453125 
C 52.203125 54.65625 51.703125 53.234375 51.703125 52.734375 
C 51.703125 52.03125 52.296875 52.03125 52.40625 52.03125 
C 54 52.03125 56.703125 53.140625 59.203125 54.953125 
C 61 56.359375 61.90625 57.359375 61.90625 61.46875 
C 61.90625 66.890625 59.09375 71 53.5 71 
C 50.296875 71 41.5 70.203125 31.703125 60.25 
C 23.703125 52.015625 19 33.9375 17.09375 26.40625 
C 15.296875 19.5 14.5 16.375 11.5 10.34375 
C 10.796875 9.15625 8.203125 4.734375 6.796875 3.421875 
C 4.09375 0.921875 3.09375 -0.890625 3.09375 -1.390625 
C 3.09375 -1.59375 3.296875 -2 4 -2 
C 4.40625 -2 6.5 -1.59375 9.09375 0.078125 
C 10.796875 1.0625 11 1.25 13.296875 3.609375 
C 18.296875 3.609375 21.796875 2.703125 28.09375 0.90625 
C 33.203125 -0.5 38.296875 -2 43.40625 -2 
C 51.5 -2 59.703125 4.125 62.90625 8.53125 
C 64.90625 11.234375 65.5 13.75 65.5 14.046875 
C 65.5 14.75 64.90625 14.75 64.796875 14.75 
C 63.203125 14.75 60.796875 13.65625 59.09375 12.4375 
C 56.40625 10.734375 56.203125 10.140625 55.59375 8.421875 
C 55.09375 6.8125 54.5 6.015625 54.09375 5.40625 
C 53.296875 4.203125 53.203125 4.203125 51.703125 4.203125 
C 46.90625 4.203125 41.90625 5.71875 35.296875 7.515625 
C 32.5 8.3125 27 9.9375 22 9.9375 
C 20.703125 9.9375 19.296875 9.828125 18 9.53125 
z
" id="CMSY10-76"/>
      <path d="M 42.90625 71.28125 
C 42.90625 71.390625 43.5 72.90625 43.5 73.09375 
C 43.5 74.296875 42.5 75 41.703125 75 
C 41.203125 75 40.296875 75 39.5 72.796875 
L 6 -21.296875 
C 6 -21.40625 5.40625 -22.890625 5.40625 -23.09375 
C 5.40625 -24.296875 6.40625 -25 7.203125 -25 
C 7.796875 -25 8.703125 -24.890625 9.40625 -22.796875 
z
" id="CMMI12-61"/>
      <path d="M 14.40625 2.1875 
C 16.90625 -0.09375 20.59375 -1 24 -1 
C 30.40625 -1 34.796875 3.25 37.09375 6.328125 
C 38.09375 1.078125 42.296875 -1 45.796875 -1 
C 48.796875 -1 51.203125 0.78125 53 4.328125 
C 54.59375 7.703125 56 13.734375 56 14.109375 
C 56 14.609375 55.59375 15 55 15 
C 54.09375 15 54 14.5 53.59375 13.03125 
C 52.09375 7.203125 50.203125 1 46.09375 1 
C 43.203125 1 43 3.578125 43 5.59375 
C 43 7.875 43.90625 11.484375 44.59375 14.46875 
L 47.40625 25.234375 
C 47.796875 27.140625 48.90625 31.609375 49.40625 33.421875 
C 50 35.8125 51.09375 40.109375 51.09375 40.5 
C 51.09375 42 49.90625 43 48.40625 43 
C 47.5 43 45.40625 42.59375 44.59375 39.609375 
L 37.59375 11.875 
C 37.09375 9.875 37.09375 9.671875 35.796875 8.078125 
C 34.59375 6.390625 30.703125 1 24.40625 1 
C 18.796875 1 17 5.09375 17 9.765625 
C 17 12.671875 17.90625 16.15625 18.296875 17.859375 
L 22.796875 35.828125 
C 23.296875 37.71875 24.09375 40.90625 24.09375 41.515625 
C 24.09375 43.109375 22.796875 44 21.5 44 
C 20.59375 44 18.40625 43.703125 17.59375 40.5 
L 3.09375 -17.296875 
C 3 -17.796875 2.796875 -18.390625 2.796875 -19 
C 2.796875 -20.5 4 -21.5 5.5 -21.5 
C 8.40625 -21.5 9 -19.1875 9.703125 -16.40625 
z
" id="CMMI12-22"/>
      <path d="M 50.59375 23.03125 
C 47.09375 9.078125 35.5 0.890625 26.09375 0.890625 
C 18.90625 0.890625 14 5.671875 14 13.921875 
C 14 14.3125 14 17.296875 15.09375 21.671875 
L 24.90625 60.734375 
C 25.796875 64.109375 26 65.109375 33.09375 65.109375 
C 34.90625 65.109375 35.90625 65.109375 35.90625 66.90625 
C 35.90625 68 35 68 34.40625 68 
C 32.59375 68 30.5 68 28.59375 68 
L 16.796875 68 
C 14.90625 68 12.796875 68 10.90625 68 
C 10.203125 68 9 68 9 66.109375 
C 9 65.109375 9.703125 65.109375 11.59375 65.109375 
C 17.59375 65.109375 17.59375 64.3125 17.59375 63.21875 
C 17.59375 62.625 16.90625 59.75 16.40625 58.046875 
L 7.703125 23.25 
C 7.40625 22.15625 6.796875 19.46875 6.796875 16.796875 
C 6.796875 5.84375 14.703125 -2 25.59375 -2 
C 35.703125 -2 46.90625 6 52 18.703125 
C 52.703125 20.390625 53.59375 23.90625 54.203125 26.59375 
C 55.203125 30.203125 57.296875 39 58 41.59375 
L 61.796875 56.609375 
C 63.09375 61.8125 63.90625 65.109375 72.703125 65.109375 
C 73.5 65.203125 73.90625 66 73.90625 66.90625 
C 73.90625 68 73 68 72.59375 68 
C 71.203125 68 69.40625 68 68 68 
L 63.296875 68 
C 57.09375 68 53.90625 68 53.796875 68 
C 53.203125 68 52 68 52 66.109375 
C 52 65.109375 52.796875 65.109375 53.5 65.109375 
C 59.5 65.109375 59.90625 62.8125 59.90625 61.015625 
C 59.90625 60.125 59.90625 59.8125 59.5 58.421875 
z
" id="CMMI12-85"/>
      <path d="M 20.59375 29.234375 
C 20.796875 29.84375 23.296875 34.828125 27 38.015625 
C 29.59375 40.40625 33 42.015625 36.90625 42.015625 
C 40.90625 42.015625 42.296875 39.015625 42.296875 35.03125 
C 42.296875 34.421875 42.296875 32.4375 41.09375 27.734375 
L 38.59375 17.46875 
C 37.796875 14.46875 35.90625 7.078125 35.703125 5.984375 
C 35.296875 4.484375 34.703125 1.890625 34.703125 1.5 
C 34.703125 0.09375 35.796875 -1 37.296875 -1 
C 40.296875 -1 40.796875 1.296875 41.703125 4.890625 
L 47.703125 28.734375 
C 47.90625 29.53125 53.09375 42.015625 64.09375 42.015625 
C 68.09375 42.015625 69.5 39.015625 69.5 35.03125 
C 69.5 29.4375 65.59375 18.5625 63.40625 12.578125 
C 62.5 10.171875 62 8.875 62 7.078125 
C 62 2.59375 65.09375 -1 69.90625 -1 
C 79.203125 -1 82.703125 13.671875 82.703125 14.265625 
C 82.703125 14.765625 82.296875 15.171875 81.703125 15.171875 
C 80.796875 15.171875 80.703125 14.875 80.203125 13.171875 
C 77.90625 5.1875 74.203125 1 70.203125 1 
C 69.203125 1 67.59375 1 67.59375 4.203125 
C 67.59375 6.8125 68.796875 10 69.203125 11.09375 
C 71 15.90625 75.5 27.703125 75.5 33.515625 
C 75.5 39.5 72 44 64.40625 44 
C 57.703125 44 52.296875 40.21875 48.296875 34.328125 
C 48 39.71875 44.703125 44 37.203125 44 
C 28.296875 44 23.59375 37.734375 21.796875 35.234375 
C 21.5 40.90625 17.40625 44 13 44 
C 10.09375 44 7.796875 42.609375 5.90625 38.8125 
C 4.09375 35.21875 2.703125 29.140625 2.703125 28.734375 
C 2.703125 28.34375 3.09375 27.84375 3.796875 27.84375 
C 4.59375 27.84375 4.703125 27.9375 5.296875 30.234375 
C 6.796875 36.125 8.703125 42.015625 12.703125 42.015625 
C 15 42.015625 15.796875 40.40625 15.796875 37.421875 
C 15.796875 35.21875 14.796875 31.328125 14.09375 28.234375 
L 11.296875 17.46875 
C 10.90625 15.5625 9.796875 11.078125 9.296875 9.28125 
C 8.59375 6.6875 7.5 2 7.5 1.5 
C 7.5 0.09375 8.59375 -1 10.09375 -1 
C 11.296875 -1 12.703125 -0.40625 13.5 1.09375 
C 13.703125 1.59375 14.59375 5.09375 15.09375 7.078125 
L 17.296875 16.0625 
z
" id="CMMI12-109"/>
     </defs>
     <g transform="translate(40.576557 242.881062)rotate(-90)scale(0.14 -0.14)">
      <use transform="translate(0 24.62935)scale(0.996264)" xlink:href="#CMMI12-64"/>
      <use transform="translate(56.915564 24.62935)scale(0.996264)" xlink:href="#CMSY10-76"/>
      <use transform="translate(125.630372 24.62935)scale(0.996264)" xlink:href="#CMMI12-61"/>
      <use transform="translate(174.405291 24.62935)scale(0.996264)" xlink:href="#CMMI12-64"/>
      <use transform="translate(231.320856 24.62935)scale(0.996264)" xlink:href="#CMMI12-22"/>
      <use transform="translate(290.012277 60.782989)scale(0.697382)" xlink:href="#CMMI12-85"/>
      <use transform="translate(290.012277 0)scale(0.697382)" xlink:href="#CMMI12-109"/>
      <path d="M 290.012277 49.625185 
L 344.171317 49.625185 
L 344.171317 52.414636 
L 290.012277 52.414636 
L 290.012277 49.625185 
z
"/>
     </g>
    </g>
   </g>
   <g id="line2d_25">
    <path clip-path="url(#p2cbf445f9d)" d="M 92.290909 75.359708 
L 92.437414 213.540078 
L 92.583919 213.540078 
L 92.730423 213.404108 
L 92.876928 212.131743 
L 93.169938 205.638924 
L 93.755957 184.64601 
L 96.100033 92.99484 
L 96.393042 89.912312 
L 96.686052 88.576384 
L 96.979061 88.079488 
L 97.272071 87.984972 
L 97.711585 88.175661 
L 98.590614 88.926257 
L 101.960223 91.95904 
L 104.597309 93.995818 
L 107.380899 95.857937 
L 110.310994 97.54429 
L 111.776042 98.295439 
L 111.922547 97.795778 
L 112.801575 98.638679 
L 114.559632 99.393144 
L 114.852642 106.673591 
L 115.292156 111.874147 
L 115.73167 114.571981 
L 116.171185 116.091965 
L 116.757204 117.222833 
L 117.343223 117.866201 
L 118.222251 118.454849 
L 119.687299 119.108166 
L 120.566328 119.4807 
L 120.712832 119.654807 
L 120.859337 120.058294 
L 121.152347 122.571519 
L 121.445356 127.681981 
L 121.88487 140.534967 
L 122.470889 166.575334 
L 124.375451 263.513284 
L 124.96147 280.327072 
L 125.547489 291.018363 
L 125.987004 295.842516 
L 126.426518 298.550299 
L 126.719527 299.432995 
L 127.012537 299.732017 
L 127.305546 299.562885 
L 127.598556 299.023981 
L 128.03807 297.696897 
L 128.624089 295.289242 
L 129.356613 290.188728 
L 129.649623 288.268574 
L 130.089137 283.640637 
L 131.554184 264.624807 
L 131.847194 263.849339 
L 131.993699 264.236244 
L 132.286708 266.551594 
L 133.165737 276.369586 
L 134.044765 288.5278 
L 134.777289 299.006294 
L 135.363308 303.618755 
L 135.802822 305.567098 
L 136.242337 306.633298 
L 136.681851 307.125773 
L 137.121365 307.282193 
L 137.853889 307.238528 
L 139.318937 306.958298 
L 139.758451 306.322116 
L 141.076994 303.969733 
L 141.370003 303.870243 
L 141.663013 304.083594 
L 141.956022 304.650686 
L 142.395537 306.181724 
L 143.274565 309.772756 
L 143.714079 310.695801 
L 144.153594 311.212042 
L 144.593108 311.445291 
L 145.179127 311.48785 
L 146.351165 311.233599 
L 147.669708 311.020801 
L 148.548736 310.894228 
L 150.599803 310.213275 
L 151.039317 310.383513 
L 151.625336 310.905835 
L 152.211355 311.489509 
L 152.943879 311.85541 
L 153.822908 311.991932 
L 155.43446 311.937213 
L 160.269117 311.777477 
L 163.345717 312.114637 
L 331.386675 312.146142 
L 331.82619 311.116422 
L 333.730752 305.280236 
L 334.756285 302.471858 
L 335.488809 300.966244 
L 336.367837 299.695538 
L 337.832885 297.708504 
L 338.418904 297.482441 
L 339.590942 297.36029 
L 343.400066 297.312203 
L 385.739941 297.360842 
L 417.531474 297.360842 
L 417.824483 296.409609 
L 418.557007 295.677253 
L 419.143026 295.23397 
L 419.58254 295.204676 
L 420.022054 295.503698 
L 420.608074 296.306802 
L 421.194093 296.89324 
L 421.926616 297.229847 
L 423.098654 297.448172 
L 425.589235 297.6162 
L 430.863407 297.725638 
L 448.443978 297.747195 
L 496.790548 297.746089 
L 496.790548 297.746089 
" style="fill:none;stroke:#bf00bf;stroke-linecap:square;stroke-width:1.5;"/>
   </g>
   <g id="line2d_26">
    <path clip-path="url(#p2cbf445f9d)" d="M 92.290909 75.359708 
L 92.437414 213.540078 
L 92.583919 213.540078 
L 92.876928 210.326002 
L 93.462947 187.423435 
L 95.953528 86.844708 
L 96.393042 85.715498 
L 96.686052 85.443559 
L 97.125566 85.381101 
L 97.85809 85.590583 
L 104.597309 88.119836 
L 108.406433 89.216988 
L 111.629537 89.991351 
L 111.922547 96.394077 
L 112.069052 96.653303 
L 112.362061 96.432767 
L 113.534099 96.605769 
L 114.706137 96.81304 
L 114.999147 97.924563 
L 115.438661 98.457386 
L 116.171185 98.939912 
L 117.196718 99.272098 
L 119.247785 99.639105 
L 120.566328 99.917124 
L 120.859337 100.35101 
L 121.005842 100.992167 
L 121.298851 104.620783 
L 121.591861 111.520405 
L 122.031375 127.818504 
L 122.617394 158.801859 
L 124.228947 252.8336 
L 124.814966 273.057126 
L 125.400985 285.120825 
L 125.840499 290.20531 
L 126.280013 292.895405 
L 126.573023 293.719513 
L 126.866032 293.967685 
L 127.159042 293.774785 
L 127.598556 292.890984 
L 128.184575 291.006203 
L 128.624089 289.298294 
L 129.942632 280.654283 
L 130.528651 272.345221 
L 131.40768 259.367321 
L 131.700689 257.299037 
L 131.847194 257.005542 
L 131.993699 257.277481 
L 132.286708 259.538112 
L 133.458746 272.964822 
L 134.337775 286.423037 
L 134.777289 292.515686 
L 135.216803 296.025467 
L 135.656318 298.078275 
L 136.095832 299.146133 
L 136.535346 299.60876 
L 136.974861 299.739203 
L 137.853889 299.659058 
L 138.732918 299.654084 
L 139.025927 299.654084 
L 139.318937 299.439075 
L 139.758451 298.719432 
L 141.076994 295.959693 
L 141.370003 295.793877 
L 141.663013 295.96301 
L 141.956022 296.511862 
L 142.395537 298.063351 
L 143.274565 301.764374 
L 143.714079 302.574111 
L 144.153594 302.984231 
L 144.593108 303.138993 
L 145.325632 303.104724 
L 147.816213 302.743244 
L 148.548736 302.639332 
L 149.427765 302.18997 
L 150.160289 301.864417 
L 150.599803 301.837333 
L 151.039317 301.999834 
L 151.625336 302.532657 
L 152.211355 303.143414 
L 152.797374 303.424197 
L 153.676403 303.558508 
L 155.580965 303.496051 
L 160.708631 303.413142 
L 162.027174 303.629257 
L 164.37125 303.651918 
L 174.626584 303.685081 
L 331.82619 303.575643 
L 332.851723 303.080404 
L 334.756285 302.057869 
L 335.488809 301.924111 
L 349.113751 301.879893 
L 379.586741 301.883762 
L 417.531474 301.883762 
L 417.677978 299.772366 
L 417.970988 298.566328 
L 418.557007 296.226105 
L 418.996521 295.272108 
L 419.289531 295.060968 
L 419.58254 295.17704 
L 419.87555 295.573341 
L 420.461569 296.91148 
L 420.901083 297.813521 
L 421.340597 298.153998 
L 421.926616 298.299363 
L 423.098654 298.262884 
L 427.640302 297.977679 
L 435.112045 297.835077 
L 451.227568 297.763776 
L 485.216672 297.746642 
L 498.109091 297.746089 
L 498.109091 297.746089 
" style="fill:none;stroke:#00bfbf;stroke-linecap:square;stroke-width:1.5;"/>
   </g>
   <g id="line2d_27">
    <path clip-path="url(#p2cbf445f9d)" d="M 92.290909 75.359708 
L 92.437414 213.540078 
L 92.876928 189.712255 
L 95.660519 70.726797 
L 95.807023 68.400392 
L 96.100033 67.501114 
L 96.393042 67.11034 
L 96.832557 66.96 
L 97.418576 67.080493 
L 100.348671 68.226285 
L 103.864785 69.426796 
L 107.820414 70.54053 
L 111.776042 71.449204 
L 111.922547 71.223693 
L 112.215556 71.55809 
L 113.094585 71.859323 
L 115.878175 72.44355 
L 118.80827 72.807793 
L 120.273318 73.010089 
L 120.712832 75.658178 
L 121.005842 78.792661 
L 121.298851 85.35236 
L 121.738366 101.471929 
L 122.324385 133.062725 
L 124.082442 240.486355 
L 124.668461 259.651419 
L 125.107975 268.513203 
L 125.547489 273.922688 
L 125.987004 276.868141 
L 126.280013 277.84701 
L 126.573023 278.246628 
L 126.866032 278.206832 
L 127.159042 277.838167 
L 127.598556 276.853217 
L 128.33108 274.546158 
L 128.477585 274.031021 
L 128.917099 270.992159 
L 129.503118 268.391604 
L 129.942632 263.371235 
L 131.40768 241.571347 
L 131.554184 240.868286 
L 131.700689 240.718498 
L 131.847194 241.170624 
L 132.286708 245.193331 
L 133.165737 255.268338 
L 133.898261 266.167453 
L 134.630784 276.75428 
L 135.070299 279.964486 
L 135.509813 281.802838 
L 135.949327 282.745781 
L 136.388841 283.152584 
L 136.828356 283.270866 
L 138.732918 283.252074 
L 139.025927 283.06857 
L 139.465441 282.360534 
L 141.076994 278.996118 
L 141.370003 279.032598 
L 141.663013 279.451008 
L 141.956022 280.274011 
L 142.395537 282.232303 
L 142.835051 284.219336 
L 143.274565 285.280009 
L 143.714079 285.862577 
L 144.153594 286.132858 
L 144.739613 286.215766 
L 145.911651 286.04387 
L 147.376698 285.889108 
L 148.255727 285.800673 
L 148.988251 285.424822 
L 150.013784 284.910791 
L 150.453298 284.89642 
L 150.892813 285.082687 
L 151.478832 285.654754 
L 151.918346 286.117935 
L 152.504365 286.421379 
L 153.383394 286.577246 
L 155.141451 286.542977 
L 160.562127 286.449568 
L 161.734165 286.640256 
L 163.931736 286.671762 
L 174.919593 286.699398 
L 332.412209 286.595486 
L 334.90279 286.156072 
L 335.781818 286.35063 
L 336.660847 286.574483 
L 338.125894 286.657944 
L 343.253561 286.662918 
L 381.784312 286.697187 
L 417.531474 286.697187 
L 418.703512 284.367466 
L 419.143026 284.0596 
L 419.436035 284.118741 
L 419.87555 284.562024 
L 420.901083 286.00131 
L 421.487102 286.264959 
L 422.512635 286.444593 
L 425.003216 286.586642 
L 431.009911 286.682263 
L 463.094454 286.692212 
L 498.109091 286.69166 
L 498.109091 286.69166 
" style="fill:none;stroke:#ff0000;stroke-linecap:square;stroke-width:1.5;"/>
   </g>
   <g id="line2d_28">
    <path clip-path="url(#p2cbf445f9d)" d="M 92.290909 75.359708 
L 92.437414 213.540078 
L 92.583919 213.540078 
L 92.876928 207.210864 
L 93.462947 186.653494 
L 95.367509 107.691704 
L 95.953528 86.137224 
L 96.246538 81.327995 
L 96.539547 78.939133 
L 96.832557 77.871827 
L 97.125566 77.494871 
L 97.418576 77.470552 
L 97.85809 77.729778 
L 99.030128 78.84517 
L 101.520709 81.165495 
L 104.157795 83.307843 
L 106.941385 85.265583 
L 109.87148 87.03816 
L 111.922547 88.127022 
L 112.215556 88.113756 
L 112.94808 88.768179 
L 113.827109 89.390543 
L 116.171185 90.607083 
L 120.273318 91.857339 
L 120.419823 94.49382 
L 120.859337 112.653485 
L 121.445356 148.281911 
L 122.17788 210.607337 
L 123.496423 327.64003 
L 124.228947 363.485676 
L 124.668461 366.924156 
L 125.107975 368.528707 
L 125.547489 369.217951 
L 125.840499 369.358342 
L 126.280013 369.259957 
L 126.866032 368.775773 
L 127.891565 367.507278 
L 128.477585 366.71578 
L 128.917099 356.930952 
L 129.796127 340.365337 
L 130.968165 308.659022 
L 131.261175 304.835295 
L 131.40768 304.087463 
L 131.554184 304.205192 
L 131.700689 305.232702 
L 131.993699 310.096098 
L 132.579718 320.62102 
L 133.751756 340.889869 
L 134.630784 357.0017 
L 135.070299 358.931804 
L 135.363308 359.39001 
L 135.656318 359.362927 
L 135.949327 358.982102 
L 136.388841 357.98057 
L 139.318937 349.686432 
L 140.490975 344.739022 
L 140.783984 344.128265 
L 141.076994 343.996164 
L 141.370003 344.410153 
L 141.663013 345.396208 
L 142.102527 347.883454 
L 142.981556 353.739538 
L 143.42107 354.404462 
L 143.860584 354.601784 
L 144.300098 354.491792 
L 144.886117 354.073382 
L 147.376698 351.945404 
L 148.402232 351.24787 
L 149.57427 350.076653 
L 150.013784 349.905862 
L 150.453298 350.007563 
L 150.892813 350.408839 
L 151.478832 351.351782 
L 151.918346 352.107905 
L 152.504365 352.354971 
L 153.236889 352.392003 
L 154.555432 352.157097 
L 156.899508 351.737581 
L 158.364555 351.465642 
L 159.390089 351.355098 
L 160.269117 351.499911 
L 161.734165 351.853653 
L 163.785231 351.820489 
L 169.059403 351.709945 
L 332.412209 351.612113 
L 334.170266 351.10969 
L 334.90279 351.180991 
L 335.635313 351.480566 
L 336.514342 351.862496 
L 337.832885 351.895107 
L 349.553266 351.739239 
L 417.677978 351.735923 
L 418.703512 348.368744 
L 418.996521 348.174186 
L 419.289531 348.400249 
L 419.729045 349.358115 
L 420.754578 352.311306 
L 421.194093 352.47049 
L 421.926616 352.466068 
L 427.786807 351.886816 
L 433.207483 351.772955 
L 454.304168 351.724869 
L 484.923663 351.720447 
L 498.109091 351.720447 
L 498.109091 351.720447 
" style="fill:none;stroke:#008000;stroke-linecap:square;stroke-width:1.5;"/>
   </g>
   <g id="patch_3">
    <path d="M 72 384.48 
L 72 51.84 
" style="fill:none;stroke:#000000;stroke-linecap:square;stroke-linejoin:miter;stroke-width:0.8;"/>
   </g>
   <g id="patch_4">
    <path d="M 518.4 384.48 
L 518.4 51.84 
" style="fill:none;stroke:#000000;stroke-linecap:square;stroke-linejoin:miter;stroke-width:0.8;"/>
   </g>
   <g id="patch_5">
    <path d="M 72 384.48 
L 518.4 384.48 
" style="fill:none;stroke:#000000;stroke-linecap:square;stroke-linejoin:miter;stroke-width:0.8;"/>
   </g>
   <g id="patch_6">
    <path d="M 72 51.84 
L 518.4 51.84 
" style="fill:none;stroke:#000000;stroke-linecap:square;stroke-linejoin:miter;stroke-width:0.8;"/>
   </g>
   <g id="text_15">
    <!-- $\partial \mathcal{L}/ \partial \mu^{\underline{U}}_{m}$ -->
    <g transform="translate(270.478938 45.84)scale(0.14 -0.14)">
     <use transform="translate(0 24.62935)scale(0.996264)" xlink:href="#CMMI12-64"/>
     <use transform="translate(56.915564 24.62935)scale(0.996264)" xlink:href="#CMSY10-76"/>
     <use transform="translate(125.630372 24.62935)scale(0.996264)" xlink:href="#CMMI12-61"/>
     <use transform="translate(174.405291 24.62935)scale(0.996264)" xlink:href="#CMMI12-64"/>
     <use transform="translate(231.320856 24.62935)scale(0.996264)" xlink:href="#CMMI12-22"/>
     <use transform="translate(290.012277 60.782989)scale(0.697382)" xlink:href="#CMMI12-85"/>
     <use transform="translate(290.012277 0)scale(0.697382)" xlink:href="#CMMI12-109"/>
     <path d="M 290.012277 49.625185 
L 344.171317 49.625185 
L 344.171317 52.414636 
L 290.012277 52.414636 
L 290.012277 49.625185 
z
"/>
    </g>
   </g>
   <g id="legend_1">
    <g id="patch_7">
     <path d="M 443.185706 128.833399 
L 511.4 128.833399 
Q 513.4 128.833399 513.4 126.833399 
L 513.4 58.84 
Q 513.4 56.84 511.4 56.84 
L 443.185706 56.84 
Q 441.185706 56.84 441.185706 58.84 
L 441.185706 126.833399 
Q 441.185706 128.833399 443.185706 128.833399 
z
" style="fill:#ffffff;opacity:0.8;stroke:#cccccc;stroke-linejoin:miter;"/>
    </g>
    <g id="line2d_29">
     <path d="M 445.185706 67.651171 
L 465.185706 67.651171 
" style="fill:none;stroke:#bf00bf;stroke-linecap:square;stroke-width:1.5;"/>
    </g>
    <g id="line2d_30"/>
    <g id="text_16">
     <!-- $\partial \mathcal{L}/ \partial \mu^{\underline{U}}_{1}$ -->
     <g transform="translate(473.185706 71.151171)scale(0.1 -0.1)">
      <use transform="translate(0 26.578082)scale(0.996264)" xlink:href="#CMMI12-64"/>
      <use transform="translate(56.915564 26.578082)scale(0.996264)" xlink:href="#CMSY10-76"/>
      <use transform="translate(125.630372 26.578082)scale(0.996264)" xlink:href="#CMMI12-61"/>
      <use transform="translate(174.405291 26.578082)scale(0.996264)" xlink:href="#CMMI12-64"/>
      <use transform="translate(231.320856 26.578082)scale(0.996264)" xlink:href="#CMMI12-22"/>
      <use transform="translate(290.012277 74.841065)scale(0.697382)" xlink:href="#CMMI12-85"/>
      <use transform="translate(290.012277 0)scale(0.697382)" xlink:href="#CMR17-49"/>
      <path d="M 290.012277 63.683261 
L 344.171317 63.683261 
L 344.171317 66.472712 
L 290.012277 66.472712 
L 290.012277 63.683261 
z
"/>
     </g>
    </g>
    <g id="line2d_31">
     <path d="M 445.185706 84.899521 
L 465.185706 84.899521 
" style="fill:none;stroke:#00bfbf;stroke-linecap:square;stroke-width:1.5;"/>
    </g>
    <g id="line2d_32"/>
    <g id="text_17">
     <!-- $\partial \mathcal{L}/ \partial \mu^{\underline{U}}_{2}$ -->
     <g transform="translate(473.185706 88.399521)scale(0.1 -0.1)">
      <use transform="translate(0 26.578082)scale(0.996264)" xlink:href="#CMMI12-64"/>
      <use transform="translate(56.915564 26.578082)scale(0.996264)" xlink:href="#CMSY10-76"/>
      <use transform="translate(125.630372 26.578082)scale(0.996264)" xlink:href="#CMMI12-61"/>
      <use transform="translate(174.405291 26.578082)scale(0.996264)" xlink:href="#CMMI12-64"/>
      <use transform="translate(231.320856 26.578082)scale(0.996264)" xlink:href="#CMMI12-22"/>
      <use transform="translate(290.012277 74.841065)scale(0.697382)" xlink:href="#CMMI12-85"/>
      <use transform="translate(290.012277 0)scale(0.697382)" xlink:href="#CMR17-50"/>
      <path d="M 290.012277 63.683261 
L 344.171317 63.683261 
L 344.171317 66.472712 
L 290.012277 66.472712 
L 290.012277 63.683261 
z
"/>
     </g>
    </g>
    <g id="line2d_33">
     <path d="M 445.185706 102.147871 
L 465.185706 102.147871 
" style="fill:none;stroke:#ff0000;stroke-linecap:square;stroke-width:1.5;"/>
    </g>
    <g id="line2d_34"/>
    <g id="text_18">
     <!-- $\partial \mathcal{L}/ \partial \mu^{\underline{U}}_{3}$ -->
     <g transform="translate(473.185706 105.647871)scale(0.1 -0.1)">
      <use transform="translate(0 26.578082)scale(0.996264)" xlink:href="#CMMI12-64"/>
      <use transform="translate(56.915564 26.578082)scale(0.996264)" xlink:href="#CMSY10-76"/>
      <use transform="translate(125.630372 26.578082)scale(0.996264)" xlink:href="#CMMI12-61"/>
      <use transform="translate(174.405291 26.578082)scale(0.996264)" xlink:href="#CMMI12-64"/>
      <use transform="translate(231.320856 26.578082)scale(0.996264)" xlink:href="#CMMI12-22"/>
      <use transform="translate(290.012277 74.841065)scale(0.697382)" xlink:href="#CMMI12-85"/>
      <use transform="translate(290.012277 0)scale(0.697382)" xlink:href="#CMR17-51"/>
      <path d="M 290.012277 63.683261 
L 344.171317 63.683261 
L 344.171317 66.472712 
L 290.012277 66.472712 
L 290.012277 63.683261 
z
"/>
     </g>
    </g>
    <g id="line2d_35">
     <path d="M 445.185706 119.39622 
L 465.185706 119.39622 
" style="fill:none;stroke:#008000;stroke-linecap:square;stroke-width:1.5;"/>
    </g>
    <g id="line2d_36"/>
    <g id="text_19">
     <!-- $\partial \mathcal{L}/ \partial \mu^{\underline{U}}_{4}$ -->
     <g transform="translate(473.185706 122.89622)scale(0.1 -0.1)">
      <use transform="translate(0 26.578082)scale(0.996264)" xlink:href="#CMMI12-64"/>
      <use transform="translate(56.915564 26.578082)scale(0.996264)" xlink:href="#CMSY10-76"/>
      <use transform="translate(125.630372 26.578082)scale(0.996264)" xlink:href="#CMMI12-61"/>
      <use transform="translate(174.405291 26.578082)scale(0.996264)" xlink:href="#CMMI12-64"/>
      <use transform="translate(231.320856 26.578082)scale(0.996264)" xlink:href="#CMMI12-22"/>
      <use transform="translate(290.012277 74.841065)scale(0.697382)" xlink:href="#CMMI12-85"/>
      <use transform="translate(290.012277 0)scale(0.697382)" xlink:href="#CMR17-52"/>
      <path d="M 290.012277 63.683261 
L 344.171317 63.683261 
L 344.171317 66.472712 
L 290.012277 66.472712 
L 290.012277 63.683261 
z
"/>
     </g>
    </g>
   </g>
  </g>
 </g>
 <defs>
  <clipPath id="p2cbf445f9d">
   <rect height="332.64" width="446.4" x="72" y="51.84"/>
  </clipPath>
 </defs>
</svg>
