<?xml version="1.0" encoding="utf-8" standalone="no"?>
<!DOCTYPE svg PUBLIC "-//W3C//DTD SVG 1.1//EN"
  "http://www.w3.org/Graphics/SVG/1.1/DTD/svg11.dtd">
<!-- Created with matplotlib (http://matplotlib.org/) -->
<svg height="432pt" version="1.1" viewBox="0 0 576 432" width="576pt" xmlns="http://www.w3.org/2000/svg" xmlns:xlink="http://www.w3.org/1999/xlink">
 <defs>
  <style type="text/css">
*{stroke-linecap:butt;stroke-linejoin:round;}
  </style>
 </defs>
 <g id="figure_1">
  <g id="patch_1">
   <path d="M 0 432 
L 576 432 
L 576 0 
L 0 0 
z
" style="fill:#ffffff;"/>
  </g>
  <g id="axes_1">
   <g id="patch_2">
    <path d="M 72 384.48 
L 518.4 384.48 
L 518.4 51.84 
L 72 51.84 
z
" style="fill:#ffffff;"/>
   </g>
   <g id="matplotlib.axis_1">
    <g id="xtick_1">
     <g id="line2d_1">
      <path clip-path="url(#p055a79e3e6)" d="M 92.290909 384.48 
L 92.290909 51.84 
" style="fill:none;stroke:#b0b0b0;stroke-dasharray:5.12,1.28,0.8,1.28;stroke-dashoffset:0;stroke-width:0.8;"/>
     </g>
     <g id="line2d_2">
      <defs>
       <path d="M 0 0 
L 0 3.5 
" id="m53bf334376" style="stroke:#000000;stroke-width:0.8;"/>
      </defs>
      <g>
       <use style="stroke:#000000;stroke-width:0.8;" x="92.290909" xlink:href="#m53bf334376" y="384.48"/>
      </g>
     </g>
     <g id="text_1">
      <!-- $0$ -->
      <defs>
       <path d="M 42 31.640625 
C 42 37.75 41.90625 48.125 37.703125 56.109375 
C 34 63.109375 28.09375 65.59375 22.90625 65.59375 
C 18.09375 65.59375 12 63.40625 8.203125 56.203125 
C 4.203125 48.71875 3.796875 39.4375 3.796875 31.640625 
C 3.796875 25.953125 3.90625 17.28125 7 9.671875 
C 11.296875 -0.609375 19 -2 22.90625 -2 
C 27.5 -2 34.5 -0.109375 38.59375 9.375 
C 41.59375 16.28125 42 24.359375 42 31.640625 
z
M 22.90625 -0.40625 
C 16.5 -0.40625 12.703125 5.078125 11.296875 12.6875 
C 10.203125 18.5625 10.203125 27.15625 10.203125 32.75 
C 10.203125 40.4375 10.203125 46.828125 11.5 52.921875 
C 13.40625 61.390625 19 64 22.90625 64 
C 27 64 32.296875 61.296875 34.203125 53.125 
C 35.5 47.4375 35.59375 40.734375 35.59375 32.75 
C 35.59375 26.25 35.59375 18.265625 34.40625 12.375 
C 32.296875 1.484375 26.40625 -0.40625 22.90625 -0.40625 
z
" id="CMR17-48"/>
      </defs>
      <g transform="translate(89.800241 398.398498)scale(0.1 -0.1)">
       <use transform="scale(0.996264)" xlink:href="#CMR17-48"/>
      </g>
     </g>
    </g>
    <g id="xtick_2">
     <g id="line2d_3">
      <path clip-path="url(#p055a79e3e6)" d="M 190.838306 384.48 
L 190.838306 51.84 
" style="fill:none;stroke:#b0b0b0;stroke-dasharray:5.12,1.28,0.8,1.28;stroke-dashoffset:0;stroke-width:0.8;"/>
     </g>
     <g id="line2d_4">
      <g>
       <use style="stroke:#000000;stroke-width:0.8;" x="190.838306" xlink:href="#m53bf334376" y="384.48"/>
      </g>
     </g>
     <g id="text_2">
      <!-- $500$ -->
      <defs>
       <path d="M 11.40625 57.6875 
C 12.40625 57.28125 16.5 56 20.703125 56 
C 30 56 35.09375 61.109375 38 64.0625 
C 38 64.953125 38 65.5 37.40625 65.5 
C 37.296875 65.5 37.09375 65.5 36.296875 65.046875 
C 32.796875 63.40625 28.703125 62.078125 23.703125 62.078125 
C 20.703125 62.078125 16.203125 62.484375 11.296875 64.671875 
C 10.203125 65.171875 10 65.171875 9.90625 65.171875 
C 9.40625 65.171875 9.296875 65.0625 9.296875 63.078125 
L 9.296875 34.421875 
C 9.296875 32.640625 9.296875 32.140625 10.296875 32.140625 
C 10.796875 32.140625 11 32.34375 11.5 33.03125 
C 14.703125 37.515625 19.09375 39.40625 24.09375 39.40625 
C 27.59375 39.40625 35.09375 37.21875 35.09375 20.140625 
C 35.09375 16.953125 35.09375 11.171875 32.09375 6.578125 
C 29.59375 2.484375 25.703125 0.390625 21.40625 0.390625 
C 14.796875 0.390625 8.09375 5 6.296875 12.71875 
C 6.703125 12.609375 7.5 12.421875 7.90625 12.421875 
C 9.203125 12.421875 11.703125 13.125 11.703125 16.21875 
C 11.703125 18.90625 9.796875 20 7.90625 20 
C 5.59375 20 4.09375 18.59375 4.09375 15.796875 
C 4.09375 7.09375 11 -2 21.59375 -2 
C 31.90625 -2 41.703125 6.875 41.703125 19.75 
C 41.703125 31.71875 33.90625 41 24.203125 41 
C 19.09375 41 14.796875 39.109375 11.40625 35.53125 
z
" id="CMR17-53"/>
      </defs>
      <g transform="translate(183.366303 398.398498)scale(0.1 -0.1)">
       <use transform="scale(0.996264)" xlink:href="#CMR17-53"/>
       <use transform="translate(45.690477 0)scale(0.996264)" xlink:href="#CMR17-48"/>
       <use transform="translate(91.380954 0)scale(0.996264)" xlink:href="#CMR17-48"/>
      </g>
     </g>
    </g>
    <g id="xtick_3">
     <g id="line2d_5">
      <path clip-path="url(#p055a79e3e6)" d="M 289.385704 384.48 
L 289.385704 51.84 
" style="fill:none;stroke:#b0b0b0;stroke-dasharray:5.12,1.28,0.8,1.28;stroke-dashoffset:0;stroke-width:0.8;"/>
     </g>
     <g id="line2d_6">
      <g>
       <use style="stroke:#000000;stroke-width:0.8;" x="289.385704" xlink:href="#m53bf334376" y="384.48"/>
      </g>
     </g>
     <g id="text_3">
      <!-- $1000$ -->
      <defs>
       <path d="M 26.59375 63.40625 
C 26.59375 65.5 26.5 65.5 25.09375 65.5 
C 21.203125 61.1875 15.296875 59.796875 9.703125 59.796875 
C 9.40625 59.796875 8.90625 59.796875 8.796875 59.5 
C 8.703125 59.296875 8.703125 59.09375 8.703125 57 
C 11.796875 57 17 57.59375 21 59.984375 
L 21 7.203125 
C 21 3.6875 20.796875 2.5 12.203125 2.5 
L 9.203125 2.5 
L 9.203125 0 
C 14 0 19 0 23.796875 0 
C 28.59375 0 33.59375 0 38.40625 0 
L 38.40625 2.5 
L 35.40625 2.5 
C 26.796875 2.5 26.59375 3.59375 26.59375 7.15625 
z
" id="CMR17-49"/>
      </defs>
      <g transform="translate(279.423033 398.398498)scale(0.1 -0.1)">
       <use transform="scale(0.996264)" xlink:href="#CMR17-49"/>
       <use transform="translate(45.690477 0)scale(0.996264)" xlink:href="#CMR17-48"/>
       <use transform="translate(91.380954 0)scale(0.996264)" xlink:href="#CMR17-48"/>
       <use transform="translate(137.071431 0)scale(0.996264)" xlink:href="#CMR17-48"/>
      </g>
     </g>
    </g>
    <g id="xtick_4">
     <g id="line2d_7">
      <path clip-path="url(#p055a79e3e6)" d="M 387.933101 384.48 
L 387.933101 51.84 
" style="fill:none;stroke:#b0b0b0;stroke-dasharray:5.12,1.28,0.8,1.28;stroke-dashoffset:0;stroke-width:0.8;"/>
     </g>
     <g id="line2d_8">
      <g>
       <use style="stroke:#000000;stroke-width:0.8;" x="387.933101" xlink:href="#m53bf334376" y="384.48"/>
      </g>
     </g>
     <g id="text_4">
      <!-- $1500$ -->
      <g transform="translate(377.97043 398.398498)scale(0.1 -0.1)">
       <use transform="scale(0.996264)" xlink:href="#CMR17-49"/>
       <use transform="translate(45.690477 0)scale(0.996264)" xlink:href="#CMR17-53"/>
       <use transform="translate(91.380954 0)scale(0.996264)" xlink:href="#CMR17-48"/>
       <use transform="translate(137.071431 0)scale(0.996264)" xlink:href="#CMR17-48"/>
      </g>
     </g>
    </g>
    <g id="xtick_5">
     <g id="line2d_9">
      <path clip-path="url(#p055a79e3e6)" d="M 486.480498 384.48 
L 486.480498 51.84 
" style="fill:none;stroke:#b0b0b0;stroke-dasharray:5.12,1.28,0.8,1.28;stroke-dashoffset:0;stroke-width:0.8;"/>
     </g>
     <g id="line2d_10">
      <g>
       <use style="stroke:#000000;stroke-width:0.8;" x="486.480498" xlink:href="#m53bf334376" y="384.48"/>
      </g>
     </g>
     <g id="text_5">
      <!-- $2000$ -->
      <defs>
       <path d="M 41.703125 15.453125 
L 39.90625 15.453125 
C 38.90625 8.375 38.09375 7.171875 37.703125 6.5625 
C 37.203125 5.765625 30 5.765625 28.59375 5.765625 
L 9.40625 5.765625 
C 13 9.671875 20 16.75 28.5 24.953125 
C 34.59375 30.734375 41.703125 37.53125 41.703125 47.421875 
C 41.703125 59.21875 32.296875 66 21.796875 66 
C 10.796875 66 4.09375 56.3125 4.09375 47.34375 
C 4.09375 43.4375 7 42.9375 8.203125 42.9375 
C 9.203125 42.9375 12.203125 43.546875 12.203125 47.03125 
C 12.203125 50.109375 9.59375 51 8.203125 51 
C 7.59375 51 7 50.90625 6.59375 50.703125 
C 8.5 59.21875 14.296875 63.40625 20.40625 63.40625 
C 29.09375 63.40625 34.796875 56.515625 34.796875 47.421875 
C 34.796875 38.734375 29.703125 31.25 24 24.75 
L 4.09375 2.28125 
L 4.09375 0 
L 39.296875 0 
z
" id="CMR17-50"/>
      </defs>
      <g transform="translate(476.517828 398.398498)scale(0.1 -0.1)">
       <use transform="scale(0.996264)" xlink:href="#CMR17-50"/>
       <use transform="translate(45.690477 0)scale(0.996264)" xlink:href="#CMR17-48"/>
       <use transform="translate(91.380954 0)scale(0.996264)" xlink:href="#CMR17-48"/>
       <use transform="translate(137.071431 0)scale(0.996264)" xlink:href="#CMR17-48"/>
      </g>
     </g>
    </g>
    <g id="text_6">
     <!-- Iteration -->
     <defs>
      <path d="M 17.09375 69 
L 8.703125 69 
L 8.703125 0 
L 17.09375 0 
z
" id="CMSS17-73"/>
      <path d="M 16.703125 37 
L 29.703125 37 
L 29.703125 42.765625 
L 16.703125 42.765625 
L 16.703125 55 
L 9.59375 55 
L 9.59375 42.765625 
L 1.703125 42.765625 
L 1.703125 37 
L 9.40625 37 
L 9.40625 11.703125 
C 9.40625 6 10.703125 -1 17.296875 -1 
C 22.296875 -1 26.90625 0.390625 31.296875 2.6875 
L 29.703125 8.5625 
C 27.296875 6.46875 24.40625 5.265625 21.296875 5.265625 
C 16.90625 5.265625 16.703125 10.875 16.703125 13.375 
z
" id="CMSS17-116"/>
      <path d="M 39.09375 21.515625 
C 39.09375 24.84375 38.90625 31.296875 35.703125 36.640625 
C 32.203125 42.390625 26.5 44 22.203125 44 
C 11.796875 44 3 34.1875 3 21.484375 
C 3 9.09375 12.09375 -1 23.59375 -1 
C 28.09375 -1 33.59375 0.296875 38.59375 3.875 
C 38.59375 4.28125 38.40625 6.46875 38.296875 6.5625 
C 38.296875 6.765625 38 9.84375 38 10.25 
C 33.203125 6.359375 27.703125 5.078125 23.703125 5.078125 
C 17.296875 5.078125 10.40625 10.421875 10.09375 21.515625 
z
M 10.90625 27 
C 12.203125 32.5625 16.59375 37.828125 22.203125 37.828125 
C 23.703125 37.828125 30.703125 37.828125 32.5 27 
z
" id="CMSS17-101"/>
      <path d="M 14.90625 21.296875 
C 14.90625 30.703125 21.796875 37 30.59375 37 
L 30.59375 43.578125 
C 24.203125 43.578125 18.203125 40.390625 14.59375 35.203125 
L 14.59375 43.09375 
L 7.5 43.09375 
L 7.5 0 
L 14.90625 0 
z
" id="CMSS17-114"/>
      <path d="M 37.59375 27.984375 
C 37.59375 37.375 30.90625 43.875 21.90625 43.875 
C 17.5 43.875 12.703125 43.078125 7.203125 39.890625 
L 7.796875 33.359375 
C 10.296875 35.125 14.59375 38 21.796875 38 
C 26.90625 38 30 34.0625 30 27.84375 
L 30 24 
C 14 24 4 19.34375 4 11.34375 
C 4 7.203125 6.5 -1 14.796875 -1 
C 16.296875 -1 24.40625 -1 30.203125 3.390625 
L 30.203125 -0.296875 
L 37.59375 -0.296875 
z
M 30 12.75 
C 30 10.953125 30 8.5625 27 6.78125 
C 24.40625 5.078125 21.09375 5.078125 19.703125 5.078125 
C 14.703125 5.078125 11.296875 7.984375 11.296875 11.625 
C 11.296875 18.921875 26.90625 18.921875 30 18.921875 
z
" id="CMSS17-97"/>
      <path d="M 15.296875 65.359375 
L 6.90625 65.359375 
L 6.90625 57 
L 15.296875 57 
z
M 14.796875 42.796875 
L 7.40625 42.796875 
L 7.40625 0 
L 14.796875 0 
z
" id="CMSS17-105"/>
      <path d="M 44.203125 21.1875 
C 44.203125 34 34.703125 44 23.5 44 
C 12 44 2.703125 33.703125 2.703125 21.1875 
C 2.703125 8.5 12.296875 -1 23.40625 -1 
C 34.796875 -1 44.203125 8.796875 44.203125 21.1875 
z
M 23.5 5.265625 
C 16.40625 5.265625 10.296875 11.078125 10.296875 22 
C 10.296875 33.609375 17.40625 37.921875 23.40625 37.921875 
C 29.90625 37.921875 36.59375 33.21875 36.59375 22 
C 36.59375 10.671875 30.09375 5.265625 23.5 5.265625 
z
" id="CMSS17-111"/>
      <path d="M 40.90625 29.328125 
C 40.90625 35.671875 39.40625 44 28.09375 44 
C 21.703125 44 17.5 40.71875 14.703125 37.328125 
L 14.703125 43.09375 
L 7.40625 43.09375 
L 7.40625 0 
L 15 0 
L 15 24.359375 
C 15 30.6875 17.40625 37.9375 24.203125 37.9375 
C 33 37.9375 33.296875 32 33.296875 28.578125 
L 33.296875 0 
L 40.90625 0 
z
" id="CMSS17-110"/>
     </defs>
     <g transform="translate(271.264003 414.021553)scale(0.14 -0.14)">
      <use transform="scale(0.996264)" xlink:href="#CMSS17-73"/>
      <use transform="translate(25.783926 0)scale(0.996264)" xlink:href="#CMSS17-116"/>
      <use transform="translate(59.615492 0)scale(0.996264)" xlink:href="#CMSS17-101"/>
      <use transform="translate(101.254314 0)scale(0.996264)" xlink:href="#CMSS17-114"/>
      <use transform="translate(133.164087 0)scale(0.996264)" xlink:href="#CMSS17-97"/>
      <use transform="translate(178.086007 0)scale(0.996264)" xlink:href="#CMSS17-116"/>
      <use transform="translate(211.917574 0)scale(0.996264)" xlink:href="#CMSS17-105"/>
      <use transform="translate(234.098297 0)scale(0.996264)" xlink:href="#CMSS17-111"/>
      <use transform="translate(280.941921 0)scale(0.996264)" xlink:href="#CMSS17-110"/>
     </g>
    </g>
   </g>
   <g id="matplotlib.axis_2">
    <g id="ytick_1">
     <g id="line2d_11">
      <path clip-path="url(#p055a79e3e6)" d="M 72 337.090756 
L 518.4 337.090756 
" style="fill:none;stroke:#b0b0b0;stroke-dasharray:5.12,1.28,0.8,1.28;stroke-dashoffset:0;stroke-width:0.8;"/>
     </g>
     <g id="line2d_12">
      <defs>
       <path d="M 0 0 
L -3.5 0 
" id="mdbecb2594e" style="stroke:#000000;stroke-width:0.8;"/>
      </defs>
      <g>
       <use style="stroke:#000000;stroke-width:0.8;" x="72" xlink:href="#mdbecb2594e" y="337.090756"/>
      </g>
     </g>
     <g id="text_7">
      <!-- $-100$ -->
      <defs>
       <path d="M 65.90625 23 
C 67.59375 23 69.40625 23 69.40625 25 
C 69.40625 27 67.59375 27 65.90625 27 
L 11.796875 27 
C 10.09375 27 8.296875 27 8.296875 25 
C 8.296875 23 10.09375 23 11.796875 23 
z
" id="CMSY10-0"/>
      </defs>
      <g transform="translate(42.307251 340.550005)scale(0.1 -0.1)">
       <use transform="scale(0.996264)" xlink:href="#CMSY10-0"/>
       <use transform="translate(77.487468 0)scale(0.996264)" xlink:href="#CMR17-49"/>
       <use transform="translate(123.177945 0)scale(0.996264)" xlink:href="#CMR17-48"/>
       <use transform="translate(168.868422 0)scale(0.996264)" xlink:href="#CMR17-48"/>
      </g>
     </g>
    </g>
    <g id="ytick_2">
     <g id="line2d_13">
      <path clip-path="url(#p055a79e3e6)" d="M 72 277.625378 
L 518.4 277.625378 
" style="fill:none;stroke:#b0b0b0;stroke-dasharray:5.12,1.28,0.8,1.28;stroke-dashoffset:0;stroke-width:0.8;"/>
     </g>
     <g id="line2d_14">
      <g>
       <use style="stroke:#000000;stroke-width:0.8;" x="72" xlink:href="#mdbecb2594e" y="277.625378"/>
      </g>
     </g>
     <g id="text_8">
      <!-- $-50$ -->
      <g transform="translate(47.288586 281.084627)scale(0.1 -0.1)">
       <use transform="scale(0.996264)" xlink:href="#CMSY10-0"/>
       <use transform="translate(77.487468 0)scale(0.996264)" xlink:href="#CMR17-53"/>
       <use transform="translate(123.177945 0)scale(0.996264)" xlink:href="#CMR17-48"/>
      </g>
     </g>
    </g>
    <g id="ytick_3">
     <g id="line2d_15">
      <path clip-path="url(#p055a79e3e6)" d="M 72 218.16 
L 518.4 218.16 
" style="fill:none;stroke:#b0b0b0;stroke-dasharray:5.12,1.28,0.8,1.28;stroke-dashoffset:0;stroke-width:0.8;"/>
     </g>
     <g id="line2d_16">
      <g>
       <use style="stroke:#000000;stroke-width:0.8;" x="72" xlink:href="#mdbecb2594e" y="218.16"/>
      </g>
     </g>
     <g id="text_9">
      <!-- $0$ -->
      <g transform="translate(60.018665 221.619249)scale(0.1 -0.1)">
       <use transform="scale(0.996264)" xlink:href="#CMR17-48"/>
      </g>
     </g>
    </g>
    <g id="ytick_4">
     <g id="line2d_17">
      <path clip-path="url(#p055a79e3e6)" d="M 72 158.694622 
L 518.4 158.694622 
" style="fill:none;stroke:#b0b0b0;stroke-dasharray:5.12,1.28,0.8,1.28;stroke-dashoffset:0;stroke-width:0.8;"/>
     </g>
     <g id="line2d_18">
      <g>
       <use style="stroke:#000000;stroke-width:0.8;" x="72" xlink:href="#mdbecb2594e" y="158.694622"/>
      </g>
     </g>
     <g id="text_10">
      <!-- $50$ -->
      <g transform="translate(55.037329 162.153871)scale(0.1 -0.1)">
       <use transform="scale(0.996264)" xlink:href="#CMR17-53"/>
       <use transform="translate(45.690477 0)scale(0.996264)" xlink:href="#CMR17-48"/>
      </g>
     </g>
    </g>
    <g id="ytick_5">
     <g id="line2d_19">
      <path clip-path="url(#p055a79e3e6)" d="M 72 99.229244 
L 518.4 99.229244 
" style="fill:none;stroke:#b0b0b0;stroke-dasharray:5.12,1.28,0.8,1.28;stroke-dashoffset:0;stroke-width:0.8;"/>
     </g>
     <g id="line2d_20">
      <g>
       <use style="stroke:#000000;stroke-width:0.8;" x="72" xlink:href="#mdbecb2594e" y="99.229244"/>
      </g>
     </g>
     <g id="text_11">
      <!-- $100$ -->
      <g transform="translate(50.055994 102.688493)scale(0.1 -0.1)">
       <use transform="scale(0.996264)" xlink:href="#CMR17-49"/>
       <use transform="translate(45.690477 0)scale(0.996264)" xlink:href="#CMR17-48"/>
       <use transform="translate(91.380954 0)scale(0.996264)" xlink:href="#CMR17-48"/>
      </g>
     </g>
    </g>
    <g id="text_12">
     <!-- $i_{mn}[A]$ -->
     <defs>
      <path d="M 28.296875 14.265625 
C 28.296875 14.765625 27.90625 15.171875 27.296875 15.171875 
C 26.40625 15.171875 26.296875 14.875 25.796875 13.171875 
C 23.203125 4.09375 19.09375 1 15.796875 1 
C 14.59375 1 13.203125 1.296875 13.203125 4.296875 
C 13.203125 6.984375 14.40625 9.984375 15.5 12.96875 
L 22.5 31.53125 
C 22.796875 32.328125 23.5 34.125 23.5 36.015625 
C 23.5 40.21875 20.5 44 15.59375 44 
C 6.40625 44 2.703125 29.53125 2.703125 28.734375 
C 2.703125 28.34375 3.09375 27.84375 3.796875 27.84375 
C 4.703125 27.84375 4.796875 28.234375 5.203125 29.625 
C 7.59375 37.9375 11.40625 41.90625 15.296875 41.90625 
C 16.203125 41.90625 17.90625 41.90625 17.90625 38.71875 
C 17.90625 36.125 16.59375 32.828125 15.796875 30.640625 
L 8.796875 12.078125 
C 8.203125 10.484375 7.59375 8.875 7.59375 7.078125 
C 7.59375 2.59375 10.703125 -1 15.5 -1 
C 24.703125 -1 28.296875 13.578125 28.296875 14.265625 
z
M 27.5 62.703125 
C 27.5 64.203125 26.296875 66 24.09375 66 
C 21.796875 66 19.203125 63.796875 19.203125 61.203125 
C 19.203125 58.71875 21.296875 57.921875 22.5 57.921875 
C 25.203125 57.921875 27.5 60.515625 27.5 62.703125 
z
" id="CMMI12-105"/>
      <path d="M 20.59375 29.234375 
C 20.796875 29.84375 23.296875 34.828125 27 38.015625 
C 29.59375 40.40625 33 42.015625 36.90625 42.015625 
C 40.90625 42.015625 42.296875 39.015625 42.296875 35.03125 
C 42.296875 34.421875 42.296875 32.4375 41.09375 27.734375 
L 38.59375 17.46875 
C 37.796875 14.46875 35.90625 7.078125 35.703125 5.984375 
C 35.296875 4.484375 34.703125 1.890625 34.703125 1.5 
C 34.703125 0.09375 35.796875 -1 37.296875 -1 
C 40.296875 -1 40.796875 1.296875 41.703125 4.890625 
L 47.703125 28.734375 
C 47.90625 29.53125 53.09375 42.015625 64.09375 42.015625 
C 68.09375 42.015625 69.5 39.015625 69.5 35.03125 
C 69.5 29.4375 65.59375 18.5625 63.40625 12.578125 
C 62.5 10.171875 62 8.875 62 7.078125 
C 62 2.59375 65.09375 -1 69.90625 -1 
C 79.203125 -1 82.703125 13.671875 82.703125 14.265625 
C 82.703125 14.765625 82.296875 15.171875 81.703125 15.171875 
C 80.796875 15.171875 80.703125 14.875 80.203125 13.171875 
C 77.90625 5.1875 74.203125 1 70.203125 1 
C 69.203125 1 67.59375 1 67.59375 4.203125 
C 67.59375 6.8125 68.796875 10 69.203125 11.09375 
C 71 15.90625 75.5 27.703125 75.5 33.515625 
C 75.5 39.5 72 44 64.40625 44 
C 57.703125 44 52.296875 40.21875 48.296875 34.328125 
C 48 39.71875 44.703125 44 37.203125 44 
C 28.296875 44 23.59375 37.734375 21.796875 35.234375 
C 21.5 40.90625 17.40625 44 13 44 
C 10.09375 44 7.796875 42.609375 5.90625 38.8125 
C 4.09375 35.21875 2.703125 29.140625 2.703125 28.734375 
C 2.703125 28.34375 3.09375 27.84375 3.796875 27.84375 
C 4.59375 27.84375 4.703125 27.9375 5.296875 30.234375 
C 6.796875 36.125 8.703125 42.015625 12.703125 42.015625 
C 15 42.015625 15.796875 40.40625 15.796875 37.421875 
C 15.796875 35.21875 14.796875 31.328125 14.09375 28.234375 
L 11.296875 17.46875 
C 10.90625 15.5625 9.796875 11.078125 9.296875 9.28125 
C 8.59375 6.6875 7.5 2 7.5 1.5 
C 7.5 0.09375 8.59375 -1 10.09375 -1 
C 11.296875 -1 12.703125 -0.40625 13.5 1.09375 
C 13.703125 1.59375 14.59375 5.09375 15.09375 7.078125 
L 17.296875 16.0625 
z
" id="CMMI12-109"/>
      <path d="M 20.59375 29.234375 
C 20.796875 29.84375 23.296875 34.828125 27 38.015625 
C 29.59375 40.40625 33 42.015625 36.90625 42.015625 
C 40.90625 42.015625 42.296875 39.015625 42.296875 35.03125 
C 42.296875 29.34375 38.203125 17.96875 36.203125 12.578125 
C 35.296875 10.171875 34.796875 8.875 34.796875 7.078125 
C 34.796875 2.59375 37.90625 -1 42.703125 -1 
C 52 -1 55.5 13.671875 55.5 14.265625 
C 55.5 14.765625 55.09375 15.171875 54.5 15.171875 
C 53.59375 15.171875 53.5 14.875 53 13.171875 
C 50.703125 4.984375 46.90625 1 43 1 
C 42 1 40.40625 1 40.40625 4.203125 
C 40.40625 6.703125 41.5 9.703125 42.09375 11.09375 
C 44.09375 16.609375 48.296875 27.8125 48.296875 33.515625 
C 48.296875 39.5 44.796875 44 37.203125 44 
C 28.296875 44 23.59375 37.734375 21.796875 35.234375 
C 21.5 40.90625 17.40625 44 13 44 
C 9.796875 44 7.59375 42.109375 5.90625 38.71875 
C 4.09375 35.125 2.703125 29.140625 2.703125 28.734375 
C 2.703125 28.34375 3.09375 27.84375 3.796875 27.84375 
C 4.59375 27.84375 4.703125 27.9375 5.296875 30.234375 
C 6.90625 36.328125 8.703125 42.015625 12.703125 42.015625 
C 15 42.015625 15.796875 40.40625 15.796875 37.421875 
C 15.796875 35.21875 14.796875 31.328125 14.09375 28.234375 
L 11.296875 17.46875 
C 10.90625 15.5625 9.796875 11.078125 9.296875 9.28125 
C 8.59375 6.6875 7.5 2 7.5 1.5 
C 7.5 0.09375 8.59375 -1 10.09375 -1 
C 11.296875 -1 12.703125 -0.40625 13.5 1.09375 
C 13.703125 1.59375 14.59375 5.09375 15.09375 7.078125 
L 17.296875 16.0625 
z
" id="CMMI12-110"/>
      <path d="M 23.5 -25 
L 23.5 -21.515625 
L 14.09375 -21.515625 
L 14.09375 71 
L 23.5 71 
L 23.5 74.484375 
L 10.59375 74.484375 
L 10.59375 -25 
z
" id="CMR17-91"/>
      <path d="M 17 10.796875 
C 13.5 4.90625 10.09375 2.90625 5.296875 2.90625 
C 4.203125 2.8125 3.40625 2.8125 3.40625 0.90625 
C 3.40625 0.375 3.90625 0 4.59375 0 
C 6.40625 0 10.90625 0 12.703125 0 
C 15.59375 0 18.796875 0 21.59375 0 
C 22.203125 0 23.40625 0 23.40625 1.90625 
C 23.40625 2.8125 22.59375 2.90625 22 2.90625 
C 19.703125 2.90625 17.796875 3.6875 17.796875 6.0625 
C 17.796875 7.4375 18.40625 8.53125 19.703125 10.703125 
L 27.296875 23.109375 
L 52.796875 23.109375 
C 52.90625 22.234375 52.90625 21.453125 53 20.5625 
C 53.296875 18 54.5 7.734375 54.5 5.875 
C 54.5 2.90625 49.40625 2.90625 47.796875 2.90625 
C 46.703125 2.90625 45.59375 2.90625 45.59375 1.09375 
C 45.59375 0 46.5 0 47.09375 0 
C 48.796875 0 50.796875 0 52.5 0 
L 58.203125 0 
C 64.296875 0 68.703125 0 68.796875 0 
C 69.5 0 70.59375 0 70.59375 1.90625 
C 70.59375 2.90625 69.703125 2.90625 68.203125 2.90625 
C 62.703125 2.90625 62.59375 3.8125 62.296875 6.78125 
L 56.203125 68.8125 
C 56 70.796875 55.59375 71 54.5 71 
C 53.5 71 52.90625 70.796875 52 69.296875 
z
M 29 26 
L 49.09375 59.671875 
L 52.5 26 
z
" id="CMMI12-65"/>
      <path d="M 14.296875 74.484375 
L 1.40625 74.484375 
L 1.40625 71 
L 10.796875 71 
L 10.796875 -21.515625 
L 1.40625 -21.515625 
L 1.40625 -25 
L 14.296875 -25 
z
" id="CMR17-93"/>
     </defs>
     <g transform="translate(35.595222 237.097886)rotate(-90)scale(0.14 -0.14)">
      <use transform="translate(0 14.943915)scale(0.996264)" xlink:href="#CMMI12-105"/>
      <use transform="translate(33.278602 0)scale(0.697382)" xlink:href="#CMMI12-109"/>
      <use transform="translate(93.007393 0)scale(0.697382)" xlink:href="#CMMI12-110"/>
      <use transform="translate(134.266368 14.943915)scale(0.996264)" xlink:href="#CMR17-91"/>
      <use transform="translate(159.137427 14.943915)scale(0.996264)" xlink:href="#CMMI12-65"/>
      <use transform="translate(232.265312 14.943915)scale(0.996264)" xlink:href="#CMR17-93"/>
     </g>
    </g>
   </g>
   <g id="line2d_21">
    <path clip-path="url(#p055a79e3e6)" d="M 92.290909 218.16 
L 92.488004 218.16 
L 92.882193 186.194624 
L 93.079288 181.496859 
L 93.473478 178.542143 
L 93.867667 177.839025 
L 94.656047 177.277315 
L 97.415374 175.526297 
L 97.809563 194.971476 
L 98.203753 205.770626 
L 98.597943 211.221342 
L 98.992132 213.753853 
L 99.386322 214.697331 
L 99.583416 214.815786 
L 99.977606 214.631443 
L 100.56889 213.779186 
L 101.751459 211.406874 
L 104.313692 206.261929 
L 106.284639 202.786297 
L 108.452682 199.422222 
L 110.620725 196.479042 
L 112.788768 193.902645 
L 115.153905 191.45505 
L 116.927758 189.836997 
L 117.321948 134.723771 
L 117.716138 102.713321 
L 118.110327 88.419866 
L 118.504517 80.527502 
L 118.898706 75.93285 
L 119.292896 73.17663 
L 119.687086 71.486148 
L 120.27837 70.051486 
L 120.869654 69.292708 
L 121.658033 68.720532 
L 123.037697 68.016819 
L 123.234792 68.212698 
L 123.431887 68.653574 
L 124.023171 68.845766 
L 124.614455 68.734566 
L 126.388309 68.010872 
L 128.753446 66.96 
L 129.147636 70.406851 
L 129.541825 72.505028 
L 129.936015 73.770927 
L 130.330204 74.507227 
L 130.724394 74.905764 
L 131.315678 75.125786 
L 132.104058 75.054427 
L 133.286626 74.650895 
L 139.396565 72.28453 
L 142.944271 71.227473 
L 146.886167 70.286136 
L 151.419347 69.442917 
L 156.543812 68.725646 
L 162.653751 68.110893 
L 169.946258 67.615903 
L 172.114301 67.603415 
L 172.90268 68.154897 
L 174.282344 69.544603 
L 177.238766 72.609806 
L 178.421334 73.529854 
L 180.786472 74.922771 
L 185.319652 75.793106 
L 191.035401 76.926397 
L 196.75115 78.297907 
L 202.663994 79.946287 
L 209.168122 81.995821 
L 216.263535 84.466013 
L 224.738611 87.659898 
L 235.973014 92.149415 
L 252.923167 99.082721 
L 253.120261 100.047607 
L 253.711546 105.48964 
L 254.499925 110.545268 
L 255.288304 113.965241 
L 255.879589 115.718161 
L 256.470873 116.913891 
L 257.062157 117.646742 
L 257.653442 117.992949 
L 258.244726 118.01519 
L 258.83601 117.765316 
L 259.427295 117.28662 
L 260.215674 116.354797 
L 261.201148 114.816428 
L 262.580812 112.157017 
L 264.354665 108.193769 
L 269.479129 96.241822 
L 270.464603 95.10532 
L 272.435551 93.331111 
L 274.603594 91.617795 
L 275.786163 90.924428 
L 276.771637 90.562403 
L 277.560016 90.442878 
L 277.757111 90.47713 
L 278.348395 90.942268 
L 279.728059 91.449032 
L 281.699007 91.857797 
L 283.07867 92.104459 
L 283.47286 92.83624 
L 284.261239 94.253538 
L 285.246713 95.503262 
L 286.232187 96.351833 
L 287.217661 96.904743 
L 288.203135 97.231683 
L 289.385704 97.394975 
L 290.765367 97.346095 
L 292.342125 97.058163 
L 294.313073 96.454946 
L 296.875306 95.417038 
L 302.39396 92.849798 
L 304.167813 92.1556 
L 306.335856 91.756349 
L 310.277752 91.218544 
L 312.445795 91.133747 
L 314.613837 91.272063 
L 315.205122 91.401341 
L 315.993501 92.030841 
L 317.17607 92.695307 
L 318.555733 93.206591 
L 320.132492 93.555296 
L 322.103439 93.74832 
L 324.468577 93.737498 
L 327.424999 93.479656 
L 331.366895 92.889283 
L 339.841971 91.541322 
L 345.95191 91.242449 
L 349.499616 91.302747 
L 350.0909 91.440112 
L 351.667659 91.81403 
L 353.835701 92.093042 
L 356.792123 92.23231 
L 360.734019 92.180932 
L 366.843958 91.845428 
L 375.516129 91.365543 
L 383.399921 91.290616 
L 385.370868 91.425959 
L 388.72148 91.611016 
L 394.043039 91.649311 
L 403.50359 91.453789 
L 413.358329 91.299536 
L 420.453742 91.364115 
L 426.760775 91.436068 
L 441.542885 91.325106 
L 454.354047 91.316186 
L 464.997165 91.347822 
L 498.109091 91.319516 
L 498.109091 91.319516 
" style="fill:none;stroke:#bf00bf;stroke-linecap:square;stroke-width:1.5;"/>
   </g>
   <g id="line2d_22">
    <path clip-path="url(#p055a79e3e6)" d="M 92.290909 218.16 
L 92.488004 218.16 
L 92.882193 250.125376 
L 93.079288 254.823141 
L 93.473478 257.777857 
L 93.867667 258.480975 
L 94.656047 259.042685 
L 97.415374 260.793703 
L 97.809563 241.348524 
L 98.203753 230.549374 
L 98.597943 225.098658 
L 98.992132 222.566147 
L 99.386322 221.622669 
L 99.583416 221.504214 
L 99.977606 221.688557 
L 100.56889 222.540814 
L 101.751459 224.913126 
L 104.313692 230.058071 
L 106.284639 233.533703 
L 108.452682 236.897778 
L 110.620725 239.840958 
L 112.788768 242.417355 
L 115.153905 244.86495 
L 116.927758 246.483003 
L 117.321948 301.596229 
L 117.716138 333.606679 
L 118.110327 347.900134 
L 118.504517 355.792498 
L 118.898706 360.38715 
L 119.292896 363.14337 
L 119.687086 364.833852 
L 120.27837 366.268514 
L 120.869654 367.027292 
L 121.658033 367.599468 
L 123.037697 368.303181 
L 123.234792 368.107302 
L 123.431887 367.666426 
L 124.023171 367.474234 
L 124.614455 367.585434 
L 126.388309 368.309128 
L 128.753446 369.36 
L 129.147636 365.913149 
L 129.541825 363.814972 
L 129.936015 362.549073 
L 130.330204 361.812773 
L 130.724394 361.414236 
L 131.315678 361.194214 
L 132.104058 361.265573 
L 133.286626 361.669105 
L 139.396565 364.03547 
L 142.944271 365.092527 
L 146.886167 366.033864 
L 151.419347 366.877083 
L 156.543812 367.594354 
L 162.653751 368.209107 
L 169.946258 368.704097 
L 172.114301 368.716585 
L 172.90268 368.165103 
L 174.282344 366.775397 
L 177.238766 363.710194 
L 178.421334 362.790146 
L 180.786472 361.397229 
L 185.319652 360.526894 
L 191.035401 359.393603 
L 196.75115 358.022093 
L 202.663994 356.373713 
L 209.168122 354.324179 
L 216.263535 351.853987 
L 224.738611 348.660102 
L 235.973014 344.170585 
L 252.923167 337.237279 
L 253.120261 336.272393 
L 253.711546 330.83036 
L 254.499925 325.774732 
L 255.288304 322.354759 
L 255.879589 320.601839 
L 256.470873 319.406109 
L 257.062157 318.673258 
L 257.653442 318.327051 
L 258.244726 318.30481 
L 258.83601 318.554684 
L 259.427295 319.03338 
L 260.215674 319.965203 
L 261.201148 321.503572 
L 262.580812 324.162983 
L 264.354665 328.126231 
L 269.479129 340.078178 
L 270.464603 341.21468 
L 272.435551 342.988889 
L 274.603594 344.702205 
L 275.786163 345.395572 
L 276.771637 345.757597 
L 277.560016 345.877122 
L 277.757111 345.84287 
L 278.348395 345.377732 
L 279.728059 344.870968 
L 281.699007 344.462203 
L 283.07867 344.215541 
L 283.47286 343.48376 
L 284.261239 342.066462 
L 285.246713 340.816738 
L 286.232187 339.968167 
L 287.217661 339.415257 
L 288.203135 339.088317 
L 289.385704 338.925025 
L 290.765367 338.973905 
L 292.342125 339.261837 
L 294.313073 339.865054 
L 296.875306 340.902962 
L 302.39396 343.470202 
L 304.167813 344.1644 
L 306.335856 344.563651 
L 310.277752 345.101456 
L 312.445795 345.186253 
L 314.613837 345.047937 
L 315.205122 344.918659 
L 315.993501 344.289159 
L 317.17607 343.624693 
L 318.555733 343.113409 
L 320.132492 342.764704 
L 322.103439 342.57168 
L 324.468577 342.582502 
L 327.424999 342.840344 
L 331.366895 343.430717 
L 339.841971 344.778678 
L 345.95191 345.077551 
L 349.499616 345.017253 
L 350.0909 344.879888 
L 351.667659 344.50597 
L 353.835701 344.226958 
L 356.792123 344.08769 
L 360.734019 344.139068 
L 366.843958 344.474572 
L 375.516129 344.954457 
L 383.399921 345.029384 
L 385.370868 344.894041 
L 388.72148 344.708984 
L 394.043039 344.670689 
L 403.50359 344.866211 
L 413.358329 345.020464 
L 420.453742 344.955885 
L 426.760775 344.883932 
L 441.542885 344.994894 
L 454.354047 345.003814 
L 464.997165 344.972178 
L 498.109091 345.000484 
L 498.109091 345.000484 
" style="fill:none;stroke:#00bfbf;stroke-linecap:square;stroke-width:1.5;"/>
   </g>
   <g id="line2d_23">
    <path clip-path="url(#p055a79e3e6)" d="M 92.290909 218.16 
L 92.488004 218.16 
L 92.882193 250.125376 
L 93.079288 254.823141 
L 93.473478 257.777857 
L 93.867667 258.480975 
L 94.656047 259.042685 
L 97.415374 260.793703 
L 97.809563 241.348524 
L 98.203753 230.549374 
L 98.597943 225.098658 
L 98.992132 222.566147 
L 99.386322 221.622669 
L 99.583416 221.504214 
L 99.977606 221.688557 
L 100.56889 222.540814 
L 101.751459 224.913126 
L 104.313692 230.058071 
L 106.284639 233.533703 
L 108.452682 236.897778 
L 110.620725 239.840958 
L 112.788768 242.417355 
L 115.153905 244.86495 
L 117.321948 246.819458 
L 117.519043 247.440514 
L 119.095801 233.353642 
L 119.687086 231.280203 
L 120.27837 230.248122 
L 120.869654 229.767642 
L 121.658033 229.512535 
L 123.037697 229.318321 
L 123.234792 228.986742 
L 123.431887 228.411712 
L 124.023171 227.898764 
L 124.614455 227.752122 
L 126.191214 227.755452 
L 128.753446 227.858565 
L 129.147636 224.275657 
L 129.541825 222.154171 
L 129.936015 220.935249 
L 130.330204 220.270307 
L 130.724394 219.94408 
L 131.315678 219.81397 
L 132.104058 219.963228 
L 133.680816 220.586901 
L 137.622712 222.162852 
L 141.170418 223.310534 
L 144.915219 224.286599 
L 149.05421 225.141354 
L 153.784485 225.893353 
L 159.303139 226.542359 
L 165.807267 227.079688 
L 170.931732 227.516164 
L 171.325922 228.31514 
L 172.311396 231.39509 
L 176.844576 246.428889 
L 177.83005 248.864472 
L 178.618429 250.375606 
L 179.209713 251.220966 
L 179.603903 251.434685 
L 180.195187 251.847018 
L 180.983567 252.33725 
L 195.765676 260.437981 
L 202.466899 263.730817 
L 208.773933 266.580754 
L 214.686776 269.013126 
L 220.59962 271.201928 
L 226.315369 273.081153 
L 232.031118 274.727987 
L 237.746867 276.146831 
L 243.659711 277.383235 
L 249.76965 278.426258 
L 253.120261 278.902694 
L 254.105735 280.403363 
L 255.091209 281.86181 
L 255.879589 282.708597 
L 256.667968 283.228325 
L 257.456347 283.442043 
L 258.244726 283.381983 
L 259.033105 283.079067 
L 260.018579 282.400686 
L 261.004053 281.432589 
L 262.186622 279.945955 
L 263.566285 277.843021 
L 265.340139 274.693259 
L 267.705276 269.989548 
L 270.858793 263.717615 
L 273.22393 259.667666 
L 274.603594 257.696627 
L 275.589068 256.606151 
L 276.574542 255.859504 
L 277.362921 255.542434 
L 277.954205 255.495456 
L 278.939679 255.91778 
L 284.064144 257.831494 
L 286.232187 259.051486 
L 287.808945 259.631987 
L 289.385704 259.968085 
L 291.159557 260.100455 
L 292.93341 260.013755 
L 294.904358 259.705367 
L 297.269495 259.104172 
L 300.225917 258.108365 
L 307.912614 255.375931 
L 310.080657 254.872259 
L 311.85451 254.683159 
L 313.628363 254.733586 
L 315.402216 255.003321 
L 317.570259 255.654824 
L 319.935397 256.182757 
L 322.497629 256.517904 
L 325.256956 256.650512 
L 328.410473 256.566309 
L 332.155274 256.224383 
L 337.673928 255.46061 
L 342.601298 254.82992 
L 345.95191 254.589561 
L 348.711237 254.619056 
L 351.273469 254.85216 
L 355.215365 255.193134 
L 359.55145 255.326456 
L 364.675915 255.247843 
L 372.362612 254.869643 
L 379.852214 254.554833 
L 384.385394 254.580165 
L 393.057565 254.81993 
L 401.138452 254.767006 
L 419.862458 254.555903 
L 430.505576 254.633922 
L 498.109091 254.534377 
L 498.109091 254.534377 
" style="fill:none;stroke:#ff0000;stroke-linecap:square;stroke-width:1.5;"/>
   </g>
   <g id="line2d_24">
    <path clip-path="url(#p055a79e3e6)" d="M 92.290909 218.16 
L 92.488004 218.16 
L 92.882193 186.194624 
L 93.079288 181.496859 
L 93.473478 178.542143 
L 93.867667 177.839025 
L 94.656047 177.277315 
L 97.415374 175.526297 
L 97.809563 194.971476 
L 98.203753 205.770626 
L 98.597943 211.221342 
L 98.992132 213.753853 
L 99.386322 214.697331 
L 99.583416 214.815786 
L 99.977606 214.631443 
L 100.56889 213.779186 
L 101.751459 211.406874 
L 104.313692 206.261929 
L 106.284639 202.786297 
L 108.452682 199.422222 
L 110.620725 196.479042 
L 112.788768 193.902645 
L 115.153905 191.45505 
L 117.321948 189.500542 
L 117.519043 188.879486 
L 119.095801 202.966358 
L 119.687086 205.039797 
L 120.27837 206.071878 
L 120.869654 206.552358 
L 121.658033 206.807465 
L 123.037697 207.001679 
L 123.234792 207.333258 
L 123.431887 207.908288 
L 124.023171 208.421236 
L 124.614455 208.567878 
L 126.191214 208.564548 
L 128.753446 208.461435 
L 129.147636 212.044343 
L 129.541825 214.165829 
L 129.936015 215.384751 
L 130.330204 216.049693 
L 130.724394 216.37592 
L 131.315678 216.50603 
L 132.104058 216.356772 
L 133.680816 215.733099 
L 137.622712 214.157148 
L 141.170418 213.009466 
L 144.915219 212.033401 
L 149.05421 211.178646 
L 153.784485 210.426647 
L 159.303139 209.777641 
L 165.807267 209.240312 
L 170.931732 208.803836 
L 171.325922 208.00486 
L 172.311396 204.92491 
L 176.844576 189.891111 
L 177.83005 187.455528 
L 178.618429 185.944394 
L 179.209713 185.099034 
L 179.603903 184.885315 
L 180.195187 184.472982 
L 180.983567 183.98275 
L 195.765676 175.882019 
L 202.466899 172.589183 
L 208.773933 169.739246 
L 214.686776 167.306874 
L 220.59962 165.118072 
L 226.315369 163.238847 
L 232.031118 161.592013 
L 237.746867 160.173169 
L 243.659711 158.936765 
L 249.76965 157.893742 
L 253.120261 157.417306 
L 254.105735 155.916637 
L 255.091209 154.45819 
L 255.879589 153.611403 
L 256.667968 153.091675 
L 257.456347 152.877957 
L 258.244726 152.938017 
L 259.033105 153.240933 
L 260.018579 153.919314 
L 261.004053 154.887411 
L 262.186622 156.374045 
L 263.566285 158.476979 
L 265.340139 161.626741 
L 267.705276 166.330452 
L 270.858793 172.602385 
L 273.22393 176.652334 
L 274.603594 178.623373 
L 275.589068 179.713849 
L 276.574542 180.460496 
L 277.362921 180.777566 
L 277.954205 180.824544 
L 278.939679 180.40222 
L 284.064144 178.488506 
L 286.232187 177.268514 
L 287.808945 176.688013 
L 289.385704 176.351915 
L 291.159557 176.219545 
L 292.93341 176.306245 
L 294.904358 176.614633 
L 297.269495 177.215828 
L 300.225917 178.211635 
L 307.912614 180.944069 
L 310.080657 181.447741 
L 311.85451 181.636841 
L 313.628363 181.586414 
L 315.402216 181.316679 
L 317.570259 180.665176 
L 319.935397 180.137243 
L 322.497629 179.802096 
L 325.256956 179.669488 
L 328.410473 179.753691 
L 332.155274 180.095617 
L 337.673928 180.85939 
L 342.601298 181.49008 
L 345.95191 181.730439 
L 348.711237 181.700944 
L 351.273469 181.46784 
L 355.215365 181.126866 
L 359.55145 180.993544 
L 364.675915 181.072157 
L 372.362612 181.450357 
L 379.852214 181.765167 
L 384.385394 181.739835 
L 393.057565 181.50007 
L 401.138452 181.552994 
L 419.862458 181.764097 
L 430.505576 181.686078 
L 498.109091 181.785623 
L 498.109091 181.785623 
" style="fill:none;stroke:#008000;stroke-linecap:square;stroke-width:1.5;"/>
   </g>
   <g id="patch_3">
    <path d="M 72 384.48 
L 72 51.84 
" style="fill:none;stroke:#000000;stroke-linecap:square;stroke-linejoin:miter;stroke-width:0.8;"/>
   </g>
   <g id="patch_4">
    <path d="M 518.4 384.48 
L 518.4 51.84 
" style="fill:none;stroke:#000000;stroke-linecap:square;stroke-linejoin:miter;stroke-width:0.8;"/>
   </g>
   <g id="patch_5">
    <path d="M 72 384.48 
L 518.4 384.48 
" style="fill:none;stroke:#000000;stroke-linecap:square;stroke-linejoin:miter;stroke-width:0.8;"/>
   </g>
   <g id="patch_6">
    <path d="M 72 51.84 
L 518.4 51.84 
" style="fill:none;stroke:#000000;stroke-linecap:square;stroke-linejoin:miter;stroke-width:0.8;"/>
   </g>
   <g id="legend_1">
    <g id="patch_7">
     <path d="M 468.025266 247.534357 
L 511.4 247.534357 
Q 513.4 247.534357 513.4 245.534357 
L 513.4 190.785643 
Q 513.4 188.785643 511.4 188.785643 
L 468.025266 188.785643 
Q 466.025266 188.785643 466.025266 190.785643 
L 466.025266 245.534357 
Q 466.025266 247.534357 468.025266 247.534357 
z
" style="fill:#ffffff;opacity:0.8;stroke:#cccccc;stroke-linejoin:miter;"/>
    </g>
    <g id="line2d_25">
     <path d="M 470.025266 196.285643 
L 490.025266 196.285643 
" style="fill:none;stroke:#bf00bf;stroke-linecap:square;stroke-width:1.5;"/>
    </g>
    <g id="line2d_26"/>
    <g id="text_13">
     <!-- $i_{12}$ -->
     <g transform="translate(498.025266 199.785643)scale(0.1 -0.1)">
      <use transform="translate(0 14.943915)scale(0.996264)" xlink:href="#CMMI12-105"/>
      <use transform="translate(33.278602 0)scale(0.697382)" xlink:href="#CMR17-49"/>
      <use transform="translate(65.261784 0)scale(0.697382)" xlink:href="#CMR17-50"/>
     </g>
    </g>
    <g id="line2d_27">
     <path d="M 470.025266 210.222822 
L 490.025266 210.222822 
" style="fill:none;stroke:#00bfbf;stroke-linecap:square;stroke-width:1.5;"/>
    </g>
    <g id="line2d_28"/>
    <g id="text_14">
     <!-- $i_{21}$ -->
     <g transform="translate(498.025266 213.722822)scale(0.1 -0.1)">
      <use transform="translate(0 14.943915)scale(0.996264)" xlink:href="#CMMI12-105"/>
      <use transform="translate(33.278602 0)scale(0.697382)" xlink:href="#CMR17-50"/>
      <use transform="translate(65.261784 0)scale(0.697382)" xlink:href="#CMR17-49"/>
     </g>
    </g>
    <g id="line2d_29">
     <path d="M 470.025266 224.16 
L 490.025266 224.16 
" style="fill:none;stroke:#ff0000;stroke-linecap:square;stroke-width:1.5;"/>
    </g>
    <g id="line2d_30"/>
    <g id="text_15">
     <!-- $i_{23}$ -->
     <defs>
      <path d="M 22.09375 33.703125 
C 31 33.703125 34.90625 25.96875 34.90625 17.03125 
C 34.90625 5 28.5 0.390625 22.703125 0.390625 
C 17.40625 0.390625 8.796875 3.03125 6.09375 10.828125 
C 6.59375 10.625 7.09375 10.625 7.59375 10.625 
C 10 10.625 11.796875 12.21875 11.796875 14.8125 
C 11.796875 17.703125 9.59375 19 7.59375 19 
C 5.90625 19 3.296875 18.203125 3.296875 14.46875 
C 3.296875 5.234375 12.296875 -2 22.90625 -2 
C 34 -2 42.5 6.71875 42.5 16.953125 
C 42.5 26.671875 34.5 33.703125 25 34.796875 
C 32.59375 36.375 39.90625 43.0625 39.90625 52.015625 
C 39.90625 59.6875 32 65.296875 23 65.296875 
C 13.90625 65.296875 5.90625 59.828125 5.90625 52.015625 
C 5.90625 48.59375 8.5 48 9.796875 48 
C 11.90625 48 13.703125 49.296875 13.703125 51.890625 
C 13.703125 54.46875 11.90625 55.765625 9.796875 55.765625 
C 9.40625 55.765625 8.90625 55.765625 8.5 55.578125 
C 11.40625 61.859375 19.296875 63 22.796875 63 
C 26.296875 63 32.90625 61.328125 32.90625 51.875 
C 32.90625 49.109375 32.5 44.1875 29.09375 39.84375 
C 26.09375 36 22.703125 36 19.40625 35.6875 
C 18.90625 35.6875 16.59375 35.453125 16.203125 35.453125 
C 15.5 35.359375 15.09375 35.265625 15.09375 34.5 
C 15.09375 33.796875 15.203125 33.703125 17.203125 33.703125 
z
" id="CMR17-51"/>
     </defs>
     <g transform="translate(498.025266 227.66)scale(0.1 -0.1)">
      <use transform="translate(0 14.943915)scale(0.996264)" xlink:href="#CMMI12-105"/>
      <use transform="translate(33.278602 0)scale(0.697382)" xlink:href="#CMR17-50"/>
      <use transform="translate(65.261784 0)scale(0.697382)" xlink:href="#CMR17-51"/>
     </g>
    </g>
    <g id="line2d_31">
     <path d="M 470.025266 238.097178 
L 490.025266 238.097178 
" style="fill:none;stroke:#008000;stroke-linecap:square;stroke-width:1.5;"/>
    </g>
    <g id="line2d_32"/>
    <g id="text_16">
     <!-- $i_{32}$ -->
     <g transform="translate(498.025266 241.597178)scale(0.1 -0.1)">
      <use transform="translate(0 14.943915)scale(0.996264)" xlink:href="#CMMI12-105"/>
      <use transform="translate(33.278602 0)scale(0.697382)" xlink:href="#CMR17-51"/>
      <use transform="translate(65.261784 0)scale(0.697382)" xlink:href="#CMR17-50"/>
     </g>
    </g>
   </g>
  </g>
 </g>
 <defs>
  <clipPath id="p055a79e3e6">
   <rect height="332.64" width="446.4" x="72" y="51.84"/>
  </clipPath>
 </defs>
</svg>
