<?xml version="1.0" encoding="utf-8" standalone="no"?>
<!DOCTYPE svg PUBLIC "-//W3C//DTD SVG 1.1//EN"
  "http://www.w3.org/Graphics/SVG/1.1/DTD/svg11.dtd">
<!-- Created with matplotlib (http://matplotlib.org/) -->
<svg height="432pt" version="1.1" viewBox="0 0 576 432" width="576pt" xmlns="http://www.w3.org/2000/svg" xmlns:xlink="http://www.w3.org/1999/xlink">
 <defs>
  <style type="text/css">
*{stroke-linecap:butt;stroke-linejoin:round;}
  </style>
 </defs>
 <g id="figure_1">
  <g id="patch_1">
   <path d="M 0 432 
L 576 432 
L 576 0 
L 0 0 
z
" style="fill:#ffffff;"/>
  </g>
  <g id="axes_1">
   <g id="patch_2">
    <path d="M 72 384.48 
L 518.4 384.48 
L 518.4 51.84 
L 72 51.84 
z
" style="fill:#ffffff;"/>
   </g>
   <g id="matplotlib.axis_1">
    <g id="xtick_1">
     <g id="line2d_1">
      <path clip-path="url(#pfba2954e14)" d="M 92.290909 384.48 
L 92.290909 51.84 
" style="fill:none;stroke:#b0b0b0;stroke-dasharray:5.12,1.28,0.8,1.28;stroke-dashoffset:0;stroke-width:0.8;"/>
     </g>
     <g id="line2d_2">
      <defs>
       <path d="M 0 0 
L 0 3.5 
" id="mf6b7d931e0" style="stroke:#000000;stroke-width:0.8;"/>
      </defs>
      <g>
       <use style="stroke:#000000;stroke-width:0.8;" x="92.290909" xlink:href="#mf6b7d931e0" y="384.48"/>
      </g>
     </g>
     <g id="text_1">
      <!-- $0$ -->
      <defs>
       <path d="M 42 31.640625 
C 42 37.75 41.90625 48.125 37.703125 56.109375 
C 34 63.109375 28.09375 65.59375 22.90625 65.59375 
C 18.09375 65.59375 12 63.40625 8.203125 56.203125 
C 4.203125 48.71875 3.796875 39.4375 3.796875 31.640625 
C 3.796875 25.953125 3.90625 17.28125 7 9.671875 
C 11.296875 -0.609375 19 -2 22.90625 -2 
C 27.5 -2 34.5 -0.109375 38.59375 9.375 
C 41.59375 16.28125 42 24.359375 42 31.640625 
z
M 22.90625 -0.40625 
C 16.5 -0.40625 12.703125 5.078125 11.296875 12.6875 
C 10.203125 18.5625 10.203125 27.15625 10.203125 32.75 
C 10.203125 40.4375 10.203125 46.828125 11.5 52.921875 
C 13.40625 61.390625 19 64 22.90625 64 
C 27 64 32.296875 61.296875 34.203125 53.125 
C 35.5 47.4375 35.59375 40.734375 35.59375 32.75 
C 35.59375 26.25 35.59375 18.265625 34.40625 12.375 
C 32.296875 1.484375 26.40625 -0.40625 22.90625 -0.40625 
z
" id="CMR17-48"/>
      </defs>
      <g transform="translate(89.800241 398.398498)scale(0.1 -0.1)">
       <use transform="scale(0.996264)" xlink:href="#CMR17-48"/>
      </g>
     </g>
    </g>
    <g id="xtick_2">
     <g id="line2d_3">
      <path clip-path="url(#pfba2954e14)" d="M 190.838306 384.48 
L 190.838306 51.84 
" style="fill:none;stroke:#b0b0b0;stroke-dasharray:5.12,1.28,0.8,1.28;stroke-dashoffset:0;stroke-width:0.8;"/>
     </g>
     <g id="line2d_4">
      <g>
       <use style="stroke:#000000;stroke-width:0.8;" x="190.838306" xlink:href="#mf6b7d931e0" y="384.48"/>
      </g>
     </g>
     <g id="text_2">
      <!-- $500$ -->
      <defs>
       <path d="M 11.40625 57.6875 
C 12.40625 57.28125 16.5 56 20.703125 56 
C 30 56 35.09375 61.109375 38 64.0625 
C 38 64.953125 38 65.5 37.40625 65.5 
C 37.296875 65.5 37.09375 65.5 36.296875 65.046875 
C 32.796875 63.40625 28.703125 62.078125 23.703125 62.078125 
C 20.703125 62.078125 16.203125 62.484375 11.296875 64.671875 
C 10.203125 65.171875 10 65.171875 9.90625 65.171875 
C 9.40625 65.171875 9.296875 65.0625 9.296875 63.078125 
L 9.296875 34.421875 
C 9.296875 32.640625 9.296875 32.140625 10.296875 32.140625 
C 10.796875 32.140625 11 32.34375 11.5 33.03125 
C 14.703125 37.515625 19.09375 39.40625 24.09375 39.40625 
C 27.59375 39.40625 35.09375 37.21875 35.09375 20.140625 
C 35.09375 16.953125 35.09375 11.171875 32.09375 6.578125 
C 29.59375 2.484375 25.703125 0.390625 21.40625 0.390625 
C 14.796875 0.390625 8.09375 5 6.296875 12.71875 
C 6.703125 12.609375 7.5 12.421875 7.90625 12.421875 
C 9.203125 12.421875 11.703125 13.125 11.703125 16.21875 
C 11.703125 18.90625 9.796875 20 7.90625 20 
C 5.59375 20 4.09375 18.59375 4.09375 15.796875 
C 4.09375 7.09375 11 -2 21.59375 -2 
C 31.90625 -2 41.703125 6.875 41.703125 19.75 
C 41.703125 31.71875 33.90625 41 24.203125 41 
C 19.09375 41 14.796875 39.109375 11.40625 35.53125 
z
" id="CMR17-53"/>
      </defs>
      <g transform="translate(183.366303 398.398498)scale(0.1 -0.1)">
       <use transform="scale(0.996264)" xlink:href="#CMR17-53"/>
       <use transform="translate(45.690477 0)scale(0.996264)" xlink:href="#CMR17-48"/>
       <use transform="translate(91.380954 0)scale(0.996264)" xlink:href="#CMR17-48"/>
      </g>
     </g>
    </g>
    <g id="xtick_3">
     <g id="line2d_5">
      <path clip-path="url(#pfba2954e14)" d="M 289.385704 384.48 
L 289.385704 51.84 
" style="fill:none;stroke:#b0b0b0;stroke-dasharray:5.12,1.28,0.8,1.28;stroke-dashoffset:0;stroke-width:0.8;"/>
     </g>
     <g id="line2d_6">
      <g>
       <use style="stroke:#000000;stroke-width:0.8;" x="289.385704" xlink:href="#mf6b7d931e0" y="384.48"/>
      </g>
     </g>
     <g id="text_3">
      <!-- $1000$ -->
      <defs>
       <path d="M 26.59375 63.40625 
C 26.59375 65.5 26.5 65.5 25.09375 65.5 
C 21.203125 61.1875 15.296875 59.796875 9.703125 59.796875 
C 9.40625 59.796875 8.90625 59.796875 8.796875 59.5 
C 8.703125 59.296875 8.703125 59.09375 8.703125 57 
C 11.796875 57 17 57.59375 21 59.984375 
L 21 7.203125 
C 21 3.6875 20.796875 2.5 12.203125 2.5 
L 9.203125 2.5 
L 9.203125 0 
C 14 0 19 0 23.796875 0 
C 28.59375 0 33.59375 0 38.40625 0 
L 38.40625 2.5 
L 35.40625 2.5 
C 26.796875 2.5 26.59375 3.59375 26.59375 7.15625 
z
" id="CMR17-49"/>
      </defs>
      <g transform="translate(279.423033 398.398498)scale(0.1 -0.1)">
       <use transform="scale(0.996264)" xlink:href="#CMR17-49"/>
       <use transform="translate(45.690477 0)scale(0.996264)" xlink:href="#CMR17-48"/>
       <use transform="translate(91.380954 0)scale(0.996264)" xlink:href="#CMR17-48"/>
       <use transform="translate(137.071431 0)scale(0.996264)" xlink:href="#CMR17-48"/>
      </g>
     </g>
    </g>
    <g id="xtick_4">
     <g id="line2d_7">
      <path clip-path="url(#pfba2954e14)" d="M 387.933101 384.48 
L 387.933101 51.84 
" style="fill:none;stroke:#b0b0b0;stroke-dasharray:5.12,1.28,0.8,1.28;stroke-dashoffset:0;stroke-width:0.8;"/>
     </g>
     <g id="line2d_8">
      <g>
       <use style="stroke:#000000;stroke-width:0.8;" x="387.933101" xlink:href="#mf6b7d931e0" y="384.48"/>
      </g>
     </g>
     <g id="text_4">
      <!-- $1500$ -->
      <g transform="translate(377.97043 398.398498)scale(0.1 -0.1)">
       <use transform="scale(0.996264)" xlink:href="#CMR17-49"/>
       <use transform="translate(45.690477 0)scale(0.996264)" xlink:href="#CMR17-53"/>
       <use transform="translate(91.380954 0)scale(0.996264)" xlink:href="#CMR17-48"/>
       <use transform="translate(137.071431 0)scale(0.996264)" xlink:href="#CMR17-48"/>
      </g>
     </g>
    </g>
    <g id="xtick_5">
     <g id="line2d_9">
      <path clip-path="url(#pfba2954e14)" d="M 486.480498 384.48 
L 486.480498 51.84 
" style="fill:none;stroke:#b0b0b0;stroke-dasharray:5.12,1.28,0.8,1.28;stroke-dashoffset:0;stroke-width:0.8;"/>
     </g>
     <g id="line2d_10">
      <g>
       <use style="stroke:#000000;stroke-width:0.8;" x="486.480498" xlink:href="#mf6b7d931e0" y="384.48"/>
      </g>
     </g>
     <g id="text_5">
      <!-- $2000$ -->
      <defs>
       <path d="M 41.703125 15.453125 
L 39.90625 15.453125 
C 38.90625 8.375 38.09375 7.171875 37.703125 6.5625 
C 37.203125 5.765625 30 5.765625 28.59375 5.765625 
L 9.40625 5.765625 
C 13 9.671875 20 16.75 28.5 24.953125 
C 34.59375 30.734375 41.703125 37.53125 41.703125 47.421875 
C 41.703125 59.21875 32.296875 66 21.796875 66 
C 10.796875 66 4.09375 56.3125 4.09375 47.34375 
C 4.09375 43.4375 7 42.9375 8.203125 42.9375 
C 9.203125 42.9375 12.203125 43.546875 12.203125 47.03125 
C 12.203125 50.109375 9.59375 51 8.203125 51 
C 7.59375 51 7 50.90625 6.59375 50.703125 
C 8.5 59.21875 14.296875 63.40625 20.40625 63.40625 
C 29.09375 63.40625 34.796875 56.515625 34.796875 47.421875 
C 34.796875 38.734375 29.703125 31.25 24 24.75 
L 4.09375 2.28125 
L 4.09375 0 
L 39.296875 0 
z
" id="CMR17-50"/>
      </defs>
      <g transform="translate(476.517828 398.398498)scale(0.1 -0.1)">
       <use transform="scale(0.996264)" xlink:href="#CMR17-50"/>
       <use transform="translate(45.690477 0)scale(0.996264)" xlink:href="#CMR17-48"/>
       <use transform="translate(91.380954 0)scale(0.996264)" xlink:href="#CMR17-48"/>
       <use transform="translate(137.071431 0)scale(0.996264)" xlink:href="#CMR17-48"/>
      </g>
     </g>
    </g>
    <g id="text_6">
     <!-- Iteration -->
     <defs>
      <path d="M 17.09375 69 
L 8.703125 69 
L 8.703125 0 
L 17.09375 0 
z
" id="CMSS17-73"/>
      <path d="M 16.703125 37 
L 29.703125 37 
L 29.703125 42.765625 
L 16.703125 42.765625 
L 16.703125 55 
L 9.59375 55 
L 9.59375 42.765625 
L 1.703125 42.765625 
L 1.703125 37 
L 9.40625 37 
L 9.40625 11.703125 
C 9.40625 6 10.703125 -1 17.296875 -1 
C 22.296875 -1 26.90625 0.390625 31.296875 2.6875 
L 29.703125 8.5625 
C 27.296875 6.46875 24.40625 5.265625 21.296875 5.265625 
C 16.90625 5.265625 16.703125 10.875 16.703125 13.375 
z
" id="CMSS17-116"/>
      <path d="M 39.09375 21.515625 
C 39.09375 24.84375 38.90625 31.296875 35.703125 36.640625 
C 32.203125 42.390625 26.5 44 22.203125 44 
C 11.796875 44 3 34.1875 3 21.484375 
C 3 9.09375 12.09375 -1 23.59375 -1 
C 28.09375 -1 33.59375 0.296875 38.59375 3.875 
C 38.59375 4.28125 38.40625 6.46875 38.296875 6.5625 
C 38.296875 6.765625 38 9.84375 38 10.25 
C 33.203125 6.359375 27.703125 5.078125 23.703125 5.078125 
C 17.296875 5.078125 10.40625 10.421875 10.09375 21.515625 
z
M 10.90625 27 
C 12.203125 32.5625 16.59375 37.828125 22.203125 37.828125 
C 23.703125 37.828125 30.703125 37.828125 32.5 27 
z
" id="CMSS17-101"/>
      <path d="M 14.90625 21.296875 
C 14.90625 30.703125 21.796875 37 30.59375 37 
L 30.59375 43.578125 
C 24.203125 43.578125 18.203125 40.390625 14.59375 35.203125 
L 14.59375 43.09375 
L 7.5 43.09375 
L 7.5 0 
L 14.90625 0 
z
" id="CMSS17-114"/>
      <path d="M 37.59375 27.984375 
C 37.59375 37.375 30.90625 43.875 21.90625 43.875 
C 17.5 43.875 12.703125 43.078125 7.203125 39.890625 
L 7.796875 33.359375 
C 10.296875 35.125 14.59375 38 21.796875 38 
C 26.90625 38 30 34.0625 30 27.84375 
L 30 24 
C 14 24 4 19.34375 4 11.34375 
C 4 7.203125 6.5 -1 14.796875 -1 
C 16.296875 -1 24.40625 -1 30.203125 3.390625 
L 30.203125 -0.296875 
L 37.59375 -0.296875 
z
M 30 12.75 
C 30 10.953125 30 8.5625 27 6.78125 
C 24.40625 5.078125 21.09375 5.078125 19.703125 5.078125 
C 14.703125 5.078125 11.296875 7.984375 11.296875 11.625 
C 11.296875 18.921875 26.90625 18.921875 30 18.921875 
z
" id="CMSS17-97"/>
      <path d="M 15.296875 65.359375 
L 6.90625 65.359375 
L 6.90625 57 
L 15.296875 57 
z
M 14.796875 42.796875 
L 7.40625 42.796875 
L 7.40625 0 
L 14.796875 0 
z
" id="CMSS17-105"/>
      <path d="M 44.203125 21.1875 
C 44.203125 34 34.703125 44 23.5 44 
C 12 44 2.703125 33.703125 2.703125 21.1875 
C 2.703125 8.5 12.296875 -1 23.40625 -1 
C 34.796875 -1 44.203125 8.796875 44.203125 21.1875 
z
M 23.5 5.265625 
C 16.40625 5.265625 10.296875 11.078125 10.296875 22 
C 10.296875 33.609375 17.40625 37.921875 23.40625 37.921875 
C 29.90625 37.921875 36.59375 33.21875 36.59375 22 
C 36.59375 10.671875 30.09375 5.265625 23.5 5.265625 
z
" id="CMSS17-111"/>
      <path d="M 40.90625 29.328125 
C 40.90625 35.671875 39.40625 44 28.09375 44 
C 21.703125 44 17.5 40.71875 14.703125 37.328125 
L 14.703125 43.09375 
L 7.40625 43.09375 
L 7.40625 0 
L 15 0 
L 15 24.359375 
C 15 30.6875 17.40625 37.9375 24.203125 37.9375 
C 33 37.9375 33.296875 32 33.296875 28.578125 
L 33.296875 0 
L 40.90625 0 
z
" id="CMSS17-110"/>
     </defs>
     <g transform="translate(271.264003 414.021553)scale(0.14 -0.14)">
      <use transform="scale(0.996264)" xlink:href="#CMSS17-73"/>
      <use transform="translate(25.783926 0)scale(0.996264)" xlink:href="#CMSS17-116"/>
      <use transform="translate(59.615492 0)scale(0.996264)" xlink:href="#CMSS17-101"/>
      <use transform="translate(101.254314 0)scale(0.996264)" xlink:href="#CMSS17-114"/>
      <use transform="translate(133.164087 0)scale(0.996264)" xlink:href="#CMSS17-97"/>
      <use transform="translate(178.086007 0)scale(0.996264)" xlink:href="#CMSS17-116"/>
      <use transform="translate(211.917574 0)scale(0.996264)" xlink:href="#CMSS17-105"/>
      <use transform="translate(234.098297 0)scale(0.996264)" xlink:href="#CMSS17-111"/>
      <use transform="translate(280.941921 0)scale(0.996264)" xlink:href="#CMSS17-110"/>
     </g>
    </g>
   </g>
   <g id="matplotlib.axis_2">
    <g id="ytick_1">
     <g id="line2d_11">
      <path clip-path="url(#pfba2954e14)" d="M 72 359.183222 
L 518.4 359.183222 
" style="fill:none;stroke:#b0b0b0;stroke-dasharray:5.12,1.28,0.8,1.28;stroke-dashoffset:0;stroke-width:0.8;"/>
     </g>
     <g id="line2d_12">
      <defs>
       <path d="M 0 0 
L -3.5 0 
" id="mc71c4ee5b5" style="stroke:#000000;stroke-width:0.8;"/>
      </defs>
      <g>
       <use style="stroke:#000000;stroke-width:0.8;" x="72" xlink:href="#mc71c4ee5b5" y="359.183222"/>
      </g>
     </g>
     <g id="text_7">
      <!-- $-50$ -->
      <defs>
       <path d="M 65.90625 23 
C 67.59375 23 69.40625 23 69.40625 25 
C 69.40625 27 67.59375 27 65.90625 27 
L 11.796875 27 
C 10.09375 27 8.296875 27 8.296875 25 
C 8.296875 23 10.09375 23 11.796875 23 
z
" id="CMSY10-0"/>
      </defs>
      <g transform="translate(47.288586 362.642471)scale(0.1 -0.1)">
       <use transform="scale(0.996264)" xlink:href="#CMSY10-0"/>
       <use transform="translate(77.487468 0)scale(0.996264)" xlink:href="#CMR17-53"/>
       <use transform="translate(123.177945 0)scale(0.996264)" xlink:href="#CMR17-48"/>
      </g>
     </g>
    </g>
    <g id="ytick_2">
     <g id="line2d_13">
      <path clip-path="url(#pfba2954e14)" d="M 72 301.347472 
L 518.4 301.347472 
" style="fill:none;stroke:#b0b0b0;stroke-dasharray:5.12,1.28,0.8,1.28;stroke-dashoffset:0;stroke-width:0.8;"/>
     </g>
     <g id="line2d_14">
      <g>
       <use style="stroke:#000000;stroke-width:0.8;" x="72" xlink:href="#mc71c4ee5b5" y="301.347472"/>
      </g>
     </g>
     <g id="text_8">
      <!-- $-40$ -->
      <defs>
       <path d="M 33.59375 64.40625 
C 33.59375 66.5 33.5 66.5 31.703125 66.5 
L 2 19.59375 
L 2 17 
L 27.796875 17 
L 27.796875 7.140625 
C 27.796875 3.5 27.59375 2.5 20.59375 2.5 
L 18.703125 2.5 
L 18.703125 0 
C 21.90625 0 27.296875 0 30.703125 0 
C 34.09375 0 39.5 0 42.703125 0 
L 42.703125 2.5 
L 40.796875 2.5 
C 33.796875 2.5 33.59375 3.5 33.59375 7.140625 
L 33.59375 17 
L 43.796875 17 
L 43.796875 19.59375 
L 33.59375 19.59375 
z
M 28.09375 57.859375 
L 28.09375 19.59375 
L 4 19.59375 
z
" id="CMR17-52"/>
      </defs>
      <g transform="translate(47.288586 304.806721)scale(0.1 -0.1)">
       <use transform="scale(0.996264)" xlink:href="#CMSY10-0"/>
       <use transform="translate(77.487468 0)scale(0.996264)" xlink:href="#CMR17-52"/>
       <use transform="translate(123.177945 0)scale(0.996264)" xlink:href="#CMR17-48"/>
      </g>
     </g>
    </g>
    <g id="ytick_3">
     <g id="line2d_15">
      <path clip-path="url(#pfba2954e14)" d="M 72 243.511722 
L 518.4 243.511722 
" style="fill:none;stroke:#b0b0b0;stroke-dasharray:5.12,1.28,0.8,1.28;stroke-dashoffset:0;stroke-width:0.8;"/>
     </g>
     <g id="line2d_16">
      <g>
       <use style="stroke:#000000;stroke-width:0.8;" x="72" xlink:href="#mc71c4ee5b5" y="243.511722"/>
      </g>
     </g>
     <g id="text_9">
      <!-- $-30$ -->
      <defs>
       <path d="M 22.09375 33.703125 
C 31 33.703125 34.90625 25.96875 34.90625 17.03125 
C 34.90625 5 28.5 0.390625 22.703125 0.390625 
C 17.40625 0.390625 8.796875 3.03125 6.09375 10.828125 
C 6.59375 10.625 7.09375 10.625 7.59375 10.625 
C 10 10.625 11.796875 12.21875 11.796875 14.8125 
C 11.796875 17.703125 9.59375 19 7.59375 19 
C 5.90625 19 3.296875 18.203125 3.296875 14.46875 
C 3.296875 5.234375 12.296875 -2 22.90625 -2 
C 34 -2 42.5 6.71875 42.5 16.953125 
C 42.5 26.671875 34.5 33.703125 25 34.796875 
C 32.59375 36.375 39.90625 43.0625 39.90625 52.015625 
C 39.90625 59.6875 32 65.296875 23 65.296875 
C 13.90625 65.296875 5.90625 59.828125 5.90625 52.015625 
C 5.90625 48.59375 8.5 48 9.796875 48 
C 11.90625 48 13.703125 49.296875 13.703125 51.890625 
C 13.703125 54.46875 11.90625 55.765625 9.796875 55.765625 
C 9.40625 55.765625 8.90625 55.765625 8.5 55.578125 
C 11.40625 61.859375 19.296875 63 22.796875 63 
C 26.296875 63 32.90625 61.328125 32.90625 51.875 
C 32.90625 49.109375 32.5 44.1875 29.09375 39.84375 
C 26.09375 36 22.703125 36 19.40625 35.6875 
C 18.90625 35.6875 16.59375 35.453125 16.203125 35.453125 
C 15.5 35.359375 15.09375 35.265625 15.09375 34.5 
C 15.09375 33.796875 15.203125 33.703125 17.203125 33.703125 
z
" id="CMR17-51"/>
      </defs>
      <g transform="translate(47.288586 246.970972)scale(0.1 -0.1)">
       <use transform="scale(0.996264)" xlink:href="#CMSY10-0"/>
       <use transform="translate(77.487468 0)scale(0.996264)" xlink:href="#CMR17-51"/>
       <use transform="translate(123.177945 0)scale(0.996264)" xlink:href="#CMR17-48"/>
      </g>
     </g>
    </g>
    <g id="ytick_4">
     <g id="line2d_17">
      <path clip-path="url(#pfba2954e14)" d="M 72 185.675973 
L 518.4 185.675973 
" style="fill:none;stroke:#b0b0b0;stroke-dasharray:5.12,1.28,0.8,1.28;stroke-dashoffset:0;stroke-width:0.8;"/>
     </g>
     <g id="line2d_18">
      <g>
       <use style="stroke:#000000;stroke-width:0.8;" x="72" xlink:href="#mc71c4ee5b5" y="185.675973"/>
      </g>
     </g>
     <g id="text_10">
      <!-- $-20$ -->
      <g transform="translate(47.288586 189.135222)scale(0.1 -0.1)">
       <use transform="scale(0.996264)" xlink:href="#CMSY10-0"/>
       <use transform="translate(77.487468 0)scale(0.996264)" xlink:href="#CMR17-50"/>
       <use transform="translate(123.177945 0)scale(0.996264)" xlink:href="#CMR17-48"/>
      </g>
     </g>
    </g>
    <g id="ytick_5">
     <g id="line2d_19">
      <path clip-path="url(#pfba2954e14)" d="M 72 127.840223 
L 518.4 127.840223 
" style="fill:none;stroke:#b0b0b0;stroke-dasharray:5.12,1.28,0.8,1.28;stroke-dashoffset:0;stroke-width:0.8;"/>
     </g>
     <g id="line2d_20">
      <g>
       <use style="stroke:#000000;stroke-width:0.8;" x="72" xlink:href="#mc71c4ee5b5" y="127.840223"/>
      </g>
     </g>
     <g id="text_11">
      <!-- $-10$ -->
      <g transform="translate(47.288586 131.299473)scale(0.1 -0.1)">
       <use transform="scale(0.996264)" xlink:href="#CMSY10-0"/>
       <use transform="translate(77.487468 0)scale(0.996264)" xlink:href="#CMR17-49"/>
       <use transform="translate(123.177945 0)scale(0.996264)" xlink:href="#CMR17-48"/>
      </g>
     </g>
    </g>
    <g id="ytick_6">
     <g id="line2d_21">
      <path clip-path="url(#pfba2954e14)" d="M 72 70.004474 
L 518.4 70.004474 
" style="fill:none;stroke:#b0b0b0;stroke-dasharray:5.12,1.28,0.8,1.28;stroke-dashoffset:0;stroke-width:0.8;"/>
     </g>
     <g id="line2d_22">
      <g>
       <use style="stroke:#000000;stroke-width:0.8;" x="72" xlink:href="#mc71c4ee5b5" y="70.004474"/>
      </g>
     </g>
     <g id="text_12">
      <!-- $0$ -->
      <g transform="translate(60.018665 73.463723)scale(0.1 -0.1)">
       <use transform="scale(0.996264)" xlink:href="#CMR17-48"/>
      </g>
     </g>
    </g>
    <g id="text_13">
     <!-- $\partial \mathcal{L}/ \partial \mu^{\overline{U}}_{m}[V]$ -->
     <defs>
      <path d="M 45.40625 33.515625 
C 44.796875 39.125 41.296875 45.859375 32.296875 45.859375 
C 18.203125 45.859375 3.796875 31.515625 3.796875 15.5625 
C 3.796875 9.4375 8 -2.09375 21.59375 -2.09375 
C 45.203125 -2.09375 55.296875 32.296875 55.296875 46 
C 55.296875 60.40625 47.203125 71.5 34.40625 71.5 
C 19.90625 71.5 15.59375 58.796875 15.59375 56.09375 
C 15.59375 55.203125 16.203125 53 19 53 
C 22.5 53 24 56.203125 24 57.90625 
C 24 61 20.90625 61 19.59375 61 
C 23.703125 68.40625 31.296875 69.09375 34 69.09375 
C 42.796875 69.09375 48.40625 62.109375 48.40625 50.96875 
C 48.40625 44.578125 46.5 37.1875 45.5 33.515625 
z
M 21.90625 0.59375 
C 12.5 0.59375 10.90625 8.03125 10.90625 12.25 
C 10.90625 16.65625 13.703125 27 15.203125 30.703125 
C 16.5 33.71875 22.203125 43.859375 32.59375 43.859375 
C 41.703125 43.859375 43.796875 35.921875 43.796875 30.515625 
C 43.796875 23.078125 37.296875 0.59375 21.90625 0.59375 
z
" id="CMMI12-64"/>
      <path d="M 18 9.53125 
C 23.40625 17.984375 25.09375 24.40625 26.40625 29.734375 
C 29.90625 43.59375 33.703125 55.65625 39.90625 62.578125 
C 41.09375 63.90625 41.90625 64.796875 45.09375 64.796875 
C 52 64.796875 52.203125 57.875 52.203125 56.453125 
C 52.203125 54.65625 51.703125 53.234375 51.703125 52.734375 
C 51.703125 52.03125 52.296875 52.03125 52.40625 52.03125 
C 54 52.03125 56.703125 53.140625 59.203125 54.953125 
C 61 56.359375 61.90625 57.359375 61.90625 61.46875 
C 61.90625 66.890625 59.09375 71 53.5 71 
C 50.296875 71 41.5 70.203125 31.703125 60.25 
C 23.703125 52.015625 19 33.9375 17.09375 26.40625 
C 15.296875 19.5 14.5 16.375 11.5 10.34375 
C 10.796875 9.15625 8.203125 4.734375 6.796875 3.421875 
C 4.09375 0.921875 3.09375 -0.890625 3.09375 -1.390625 
C 3.09375 -1.59375 3.296875 -2 4 -2 
C 4.40625 -2 6.5 -1.59375 9.09375 0.078125 
C 10.796875 1.0625 11 1.25 13.296875 3.609375 
C 18.296875 3.609375 21.796875 2.703125 28.09375 0.90625 
C 33.203125 -0.5 38.296875 -2 43.40625 -2 
C 51.5 -2 59.703125 4.125 62.90625 8.53125 
C 64.90625 11.234375 65.5 13.75 65.5 14.046875 
C 65.5 14.75 64.90625 14.75 64.796875 14.75 
C 63.203125 14.75 60.796875 13.65625 59.09375 12.4375 
C 56.40625 10.734375 56.203125 10.140625 55.59375 8.421875 
C 55.09375 6.8125 54.5 6.015625 54.09375 5.40625 
C 53.296875 4.203125 53.203125 4.203125 51.703125 4.203125 
C 46.90625 4.203125 41.90625 5.71875 35.296875 7.515625 
C 32.5 8.3125 27 9.9375 22 9.9375 
C 20.703125 9.9375 19.296875 9.828125 18 9.53125 
z
" id="CMSY10-76"/>
      <path d="M 42.90625 71.28125 
C 42.90625 71.390625 43.5 72.90625 43.5 73.09375 
C 43.5 74.296875 42.5 75 41.703125 75 
C 41.203125 75 40.296875 75 39.5 72.796875 
L 6 -21.296875 
C 6 -21.40625 5.40625 -22.890625 5.40625 -23.09375 
C 5.40625 -24.296875 6.40625 -25 7.203125 -25 
C 7.796875 -25 8.703125 -24.890625 9.40625 -22.796875 
z
" id="CMMI12-61"/>
      <path d="M 14.40625 2.1875 
C 16.90625 -0.09375 20.59375 -1 24 -1 
C 30.40625 -1 34.796875 3.25 37.09375 6.328125 
C 38.09375 1.078125 42.296875 -1 45.796875 -1 
C 48.796875 -1 51.203125 0.78125 53 4.328125 
C 54.59375 7.703125 56 13.734375 56 14.109375 
C 56 14.609375 55.59375 15 55 15 
C 54.09375 15 54 14.5 53.59375 13.03125 
C 52.09375 7.203125 50.203125 1 46.09375 1 
C 43.203125 1 43 3.578125 43 5.59375 
C 43 7.875 43.90625 11.484375 44.59375 14.46875 
L 47.40625 25.234375 
C 47.796875 27.140625 48.90625 31.609375 49.40625 33.421875 
C 50 35.8125 51.09375 40.109375 51.09375 40.5 
C 51.09375 42 49.90625 43 48.40625 43 
C 47.5 43 45.40625 42.59375 44.59375 39.609375 
L 37.59375 11.875 
C 37.09375 9.875 37.09375 9.671875 35.796875 8.078125 
C 34.59375 6.390625 30.703125 1 24.40625 1 
C 18.796875 1 17 5.09375 17 9.765625 
C 17 12.671875 17.90625 16.15625 18.296875 17.859375 
L 22.796875 35.828125 
C 23.296875 37.71875 24.09375 40.90625 24.09375 41.515625 
C 24.09375 43.109375 22.796875 44 21.5 44 
C 20.59375 44 18.40625 43.703125 17.59375 40.5 
L 3.09375 -17.296875 
C 3 -17.796875 2.796875 -18.390625 2.796875 -19 
C 2.796875 -20.5 4 -21.5 5.5 -21.5 
C 8.40625 -21.5 9 -19.1875 9.703125 -16.40625 
z
" id="CMMI12-22"/>
      <path d="M 50.59375 23.03125 
C 47.09375 9.078125 35.5 0.890625 26.09375 0.890625 
C 18.90625 0.890625 14 5.671875 14 13.921875 
C 14 14.3125 14 17.296875 15.09375 21.671875 
L 24.90625 60.734375 
C 25.796875 64.109375 26 65.109375 33.09375 65.109375 
C 34.90625 65.109375 35.90625 65.109375 35.90625 66.90625 
C 35.90625 68 35 68 34.40625 68 
C 32.59375 68 30.5 68 28.59375 68 
L 16.796875 68 
C 14.90625 68 12.796875 68 10.90625 68 
C 10.203125 68 9 68 9 66.109375 
C 9 65.109375 9.703125 65.109375 11.59375 65.109375 
C 17.59375 65.109375 17.59375 64.3125 17.59375 63.21875 
C 17.59375 62.625 16.90625 59.75 16.40625 58.046875 
L 7.703125 23.25 
C 7.40625 22.15625 6.796875 19.46875 6.796875 16.796875 
C 6.796875 5.84375 14.703125 -2 25.59375 -2 
C 35.703125 -2 46.90625 6 52 18.703125 
C 52.703125 20.390625 53.59375 23.90625 54.203125 26.59375 
C 55.203125 30.203125 57.296875 39 58 41.59375 
L 61.796875 56.609375 
C 63.09375 61.8125 63.90625 65.109375 72.703125 65.109375 
C 73.5 65.203125 73.90625 66 73.90625 66.90625 
C 73.90625 68 73 68 72.59375 68 
C 71.203125 68 69.40625 68 68 68 
L 63.296875 68 
C 57.09375 68 53.90625 68 53.796875 68 
C 53.203125 68 52 68 52 66.109375 
C 52 65.109375 52.796875 65.109375 53.5 65.109375 
C 59.5 65.109375 59.90625 62.8125 59.90625 61.015625 
C 59.90625 60.125 59.90625 59.8125 59.5 58.421875 
z
" id="CMMI12-85"/>
      <path d="M 20.59375 29.234375 
C 20.796875 29.84375 23.296875 34.828125 27 38.015625 
C 29.59375 40.40625 33 42.015625 36.90625 42.015625 
C 40.90625 42.015625 42.296875 39.015625 42.296875 35.03125 
C 42.296875 34.421875 42.296875 32.4375 41.09375 27.734375 
L 38.59375 17.46875 
C 37.796875 14.46875 35.90625 7.078125 35.703125 5.984375 
C 35.296875 4.484375 34.703125 1.890625 34.703125 1.5 
C 34.703125 0.09375 35.796875 -1 37.296875 -1 
C 40.296875 -1 40.796875 1.296875 41.703125 4.890625 
L 47.703125 28.734375 
C 47.90625 29.53125 53.09375 42.015625 64.09375 42.015625 
C 68.09375 42.015625 69.5 39.015625 69.5 35.03125 
C 69.5 29.4375 65.59375 18.5625 63.40625 12.578125 
C 62.5 10.171875 62 8.875 62 7.078125 
C 62 2.59375 65.09375 -1 69.90625 -1 
C 79.203125 -1 82.703125 13.671875 82.703125 14.265625 
C 82.703125 14.765625 82.296875 15.171875 81.703125 15.171875 
C 80.796875 15.171875 80.703125 14.875 80.203125 13.171875 
C 77.90625 5.1875 74.203125 1 70.203125 1 
C 69.203125 1 67.59375 1 67.59375 4.203125 
C 67.59375 6.8125 68.796875 10 69.203125 11.09375 
C 71 15.90625 75.5 27.703125 75.5 33.515625 
C 75.5 39.5 72 44 64.40625 44 
C 57.703125 44 52.296875 40.21875 48.296875 34.328125 
C 48 39.71875 44.703125 44 37.203125 44 
C 28.296875 44 23.59375 37.734375 21.796875 35.234375 
C 21.5 40.90625 17.40625 44 13 44 
C 10.09375 44 7.796875 42.609375 5.90625 38.8125 
C 4.09375 35.21875 2.703125 29.140625 2.703125 28.734375 
C 2.703125 28.34375 3.09375 27.84375 3.796875 27.84375 
C 4.59375 27.84375 4.703125 27.9375 5.296875 30.234375 
C 6.796875 36.125 8.703125 42.015625 12.703125 42.015625 
C 15 42.015625 15.796875 40.40625 15.796875 37.421875 
C 15.796875 35.21875 14.796875 31.328125 14.09375 28.234375 
L 11.296875 17.46875 
C 10.90625 15.5625 9.796875 11.078125 9.296875 9.28125 
C 8.59375 6.6875 7.5 2 7.5 1.5 
C 7.5 0.09375 8.59375 -1 10.09375 -1 
C 11.296875 -1 12.703125 -0.40625 13.5 1.09375 
C 13.703125 1.59375 14.59375 5.09375 15.09375 7.078125 
L 17.296875 16.0625 
z
" id="CMMI12-109"/>
      <path d="M 23.5 -25 
L 23.5 -21.515625 
L 14.09375 -21.515625 
L 14.09375 71 
L 23.5 71 
L 23.5 74.484375 
L 10.59375 74.484375 
L 10.59375 -25 
z
" id="CMR17-91"/>
      <path d="M 61.90625 56.875 
C 65.296875 62.25 68.40625 64.625 73.5 65.03125 
C 74.5 65.125 75.296875 65.125 75.296875 66.90625 
C 75.296875 67.3125 75.09375 67.90625 74.203125 67.90625 
C 72.40625 67.90625 68.09375 67.90625 66.296875 67.90625 
C 63.40625 67.90625 60.40625 67.90625 57.59375 67.90625 
C 56.796875 67.90625 55.796875 67.90625 55.796875 66.03125 
C 55.796875 65.125 56.703125 65.03125 57.09375 65.03125 
C 60.796875 64.734375 61.203125 62.953125 61.203125 61.75 
C 61.203125 60.265625 59.796875 57.96875 59.703125 57.875 
L 28.296875 8.4375 
L 21.296875 62.015625 
C 21.296875 65 26.5 65 27.59375 65 
C 29.09375 65 30 65 30 66.90625 
C 30 67.90625 28.90625 67.90625 28.59375 67.90625 
C 26.90625 67.90625 24.90625 67.90625 23.203125 67.90625 
L 17.59375 67.90625 
C 10.296875 67.90625 7.296875 67.90625 7.203125 67.90625 
C 6.59375 67.90625 5.40625 67.90625 5.40625 66.09375 
C 5.40625 65 6.09375 65 7.703125 65 
C 12.796875 65 13.09375 64.09375 13.40625 61.625 
L 21.40625 0.375 
C 21.703125 -1.703125 21.703125 -2 23.09375 -2 
C 24.296875 -2 24.796875 -1.703125 25.796875 -0.125 
z
" id="CMMI12-86"/>
      <path d="M 14.296875 74.484375 
L 1.40625 74.484375 
L 1.40625 71 
L 10.796875 71 
L 10.796875 -21.515625 
L 1.40625 -21.515625 
L 1.40625 -25 
L 14.296875 -25 
z
" id="CMR17-93"/>
     </defs>
     <g transform="translate(40.576557 252.422043)rotate(-90)scale(0.14 -0.14)">
      <use transform="translate(0 24.62935)scale(0.996264)" xlink:href="#CMMI12-64"/>
      <use transform="translate(56.915564 24.62935)scale(0.996264)" xlink:href="#CMSY10-76"/>
      <use transform="translate(125.630372 24.62935)scale(0.996264)" xlink:href="#CMMI12-61"/>
      <use transform="translate(174.405291 24.62935)scale(0.996264)" xlink:href="#CMMI12-64"/>
      <use transform="translate(231.320856 24.62935)scale(0.996264)" xlink:href="#CMMI12-22"/>
      <use transform="translate(290.012277 60.782989)scale(0.697382)" xlink:href="#CMMI12-85"/>
      <use transform="translate(290.012277 0)scale(0.697382)" xlink:href="#CMMI12-109"/>
      <use transform="translate(350.2392 24.62935)scale(0.996264)" xlink:href="#CMR17-91"/>
      <use transform="translate(375.110259 24.62935)scale(0.996264)" xlink:href="#CMMI12-86"/>
      <use transform="translate(453.657579 24.62935)scale(0.996264)" xlink:href="#CMR17-93"/>
      <path d="M 290.012277 116.805753 
L 344.171317 116.805753 
L 344.171317 119.595204 
L 290.012277 119.595204 
L 290.012277 116.805753 
z
"/>
     </g>
    </g>
   </g>
   <g id="line2d_23">
    <path clip-path="url(#pfba2954e14)" d="M 92.290909 70.004474 
L 92.488004 214.593848 
L 92.685099 214.593848 
L 92.882193 217.175636 
L 93.473478 230.99491 
L 96.626995 316.241913 
L 97.809563 347.906985 
L 98.203753 353.158471 
L 98.597943 355.809084 
L 98.992132 357.040407 
L 99.386322 357.499044 
L 99.780511 357.53953 
L 100.371796 357.214493 
L 101.554364 356.100576 
L 104.510786 353.218621 
L 106.875924 351.238903 
L 109.438156 349.396834 
L 112.000389 347.823702 
L 114.759716 346.383592 
L 116.927758 345.409638 
L 117.519043 308.979477 
L 118.110327 290.355209 
L 118.898706 274.763848 
L 119.687086 263.727052 
L 120.475465 255.919226 
L 121.066749 252.102645 
L 121.460939 250.5619 
L 121.855128 249.844737 
L 122.052223 249.79789 
L 122.249318 249.95983 
L 122.643507 250.904288 
L 123.037697 252.66076 
L 126.388309 271.976165 
L 129.147636 287.330978 
L 129.541825 288.351779 
L 130.13311 289.171312 
L 130.724394 289.518904 
L 131.512773 289.630527 
L 132.695342 289.504446 
L 144.52103 287.53456 
L 150.039684 286.975867 
L 157.135096 286.479636 
L 166.201457 286.084618 
L 172.311396 285.785607 
L 173.099775 285.359936 
L 173.888154 284.617903 
L 174.873628 283.347252 
L 176.844576 280.651527 
L 177.632955 279.963282 
L 178.224239 279.740036 
L 178.815524 279.826211 
L 179.406808 280.260558 
L 180.195187 280.938971 
L 181.180661 281.572273 
L 182.560325 282.19632 
L 183.939989 282.584398 
L 185.319652 282.7527 
L 186.699316 282.70701 
L 188.078979 282.449062 
L 189.458643 281.979436 
L 190.838306 281.301023 
L 192.415065 280.269811 
L 193.991823 278.968507 
L 195.765676 277.184274 
L 197.539529 275.064594 
L 199.313382 272.613515 
L 201.28433 269.506 
L 203.255278 266.000575 
L 205.423321 261.69239 
L 207.788459 256.46346 
L 210.153596 250.694344 
L 212.715829 243.85064 
L 215.475156 235.810314 
L 218.431578 226.449598 
L 221.585094 215.647037 
L 224.738611 204.037667 
L 228.089222 190.860948 
L 231.636929 176.013354 
L 235.38173 159.402927 
L 239.520721 139.999033 
L 243.856806 118.58766 
L 248.587081 94.078026 
L 253.514451 68.271136 
L 254.30283 67.630895 
L 255.288304 67.208115 
L 256.470873 66.986026 
L 257.850536 66.99181 
L 259.62439 67.261324 
L 262.186622 67.928749 
L 269.479129 70.186656 
L 270.267508 70.773689 
L 271.450077 72.053594 
L 274.01231 75.003218 
L 274.800689 75.609915 
L 275.589068 75.945362 
L 276.180352 75.985269 
L 276.771637 75.825642 
L 277.362921 75.458963 
L 278.348395 74.748162 
L 279.728059 73.614003 
L 281.699007 71.653371 
L 283.669955 69.630855 
L 285.049618 69.40356 
L 287.414756 69.256079 
L 290.962462 69.292516 
L 296.875306 69.608299 
L 305.153287 70.220201 
L 310.080657 71.110872 
L 311.460321 71.066917 
L 312.839984 70.814174 
L 314.416742 70.297123 
L 315.796406 69.854679 
L 318.555733 69.718765 
L 323.877293 69.700258 
L 335.308791 69.944903 
L 340.63035 70.158317 
L 344.769341 70.425518 
L 347.134478 70.338186 
L 349.696711 70.008522 
L 350.682185 69.938541 
L 356.200839 69.883019 
L 374.72775 70.047272 
L 381.034783 70.15022 
L 393.64885 69.961675 
L 451.397625 70.02009 
L 473.078052 70.002739 
L 498.109091 70.00216 
L 498.109091 70.00216 
" style="fill:none;stroke:#bf00bf;stroke-linecap:square;stroke-width:1.5;"/>
   </g>
   <g id="line2d_24">
    <path clip-path="url(#pfba2954e14)" d="M 92.290909 70.004474 
L 92.488004 214.593848 
L 92.882193 232.720728 
L 93.867667 260.959033 
L 97.809563 366.117728 
L 98.203753 367.967894 
L 98.597943 368.879385 
L 98.992132 369.262836 
L 99.386322 369.36 
L 99.977606 369.24028 
L 101.160175 368.674068 
L 105.102071 366.666011 
L 108.058493 365.429482 
L 111.409104 364.272189 
L 115.153905 363.228254 
L 117.124853 362.766725 
L 117.321948 359.914265 
L 117.716138 357.583485 
L 118.504517 348.731145 
L 119.88418 333.099877 
L 120.672559 326.743728 
L 121.263844 323.780803 
L 121.658033 322.771569 
L 121.855128 322.569722 
L 122.052223 322.573192 
L 122.249318 322.783136 
L 122.643507 323.823023 
L 123.234792 326.752982 
L 124.417361 333.402936 
L 129.147636 360.780067 
L 129.73892 361.117827 
L 130.527299 361.2682 
L 131.906963 361.221353 
L 146.294883 360.01837 
L 154.769959 359.654583 
L 167.186931 359.363669 
L 171.523016 359.220236 
L 172.311396 358.944938 
L 172.90268 358.442924 
L 173.691059 357.408242 
L 174.676533 355.684737 
L 177.041671 351.311776 
L 177.83005 350.397971 
L 178.421334 350.065416 
L 178.815524 350.041703 
L 179.406808 350.310639 
L 183.151609 351.806272 
L 184.531273 351.983249 
L 185.910936 351.940451 
L 187.2906 351.678455 
L 188.670264 351.197261 
L 190.049927 350.499184 
L 191.626686 349.436741 
L 193.203444 348.094373 
L 194.780202 346.474394 
L 196.554055 344.322904 
L 198.327909 341.82787 
L 200.298856 338.656736 
L 202.269804 335.072654 
L 204.437847 330.661522 
L 206.802985 325.300148 
L 209.168122 319.379502 
L 211.730355 312.349567 
L 214.489682 304.085416 
L 217.446104 294.458656 
L 220.402525 284.064993 
L 223.556042 272.16818 
L 226.906654 258.656592 
L 230.45436 243.424969 
L 234.199161 226.377882 
L 238.338152 206.45925 
L 242.674237 184.476459 
L 247.404512 159.313282 
L 252.528977 130.807776 
L 253.514451 125.592148 
L 254.105735 123.449333 
L 254.894115 121.421612 
L 255.682494 120.072882 
L 256.470873 119.240047 
L 257.259252 118.808593 
L 258.047631 118.692343 
L 258.83601 118.825943 
L 259.821484 119.26723 
L 261.004053 120.096595 
L 262.383717 121.355101 
L 264.354665 123.480565 
L 269.676224 129.721042 
L 270.858793 131.3977 
L 274.406499 136.807078 
L 275.194878 137.535808 
L 275.786163 137.854483 
L 276.377447 137.948177 
L 276.968732 137.798961 
L 277.560016 137.398738 
L 280.319343 134.610476 
L 282.684481 131.90145 
L 283.867049 130.576433 
L 284.852523 129.867945 
L 286.035092 129.309251 
L 287.414756 128.931006 
L 288.991514 128.747088 
L 290.962462 128.767909 
L 293.327599 129.029326 
L 296.678211 129.652217 
L 304.364908 131.383241 
L 307.124235 132.188893 
L 309.292278 132.730814 
L 310.671941 132.863258 
L 312.051605 132.757419 
L 313.431268 132.399994 
L 315.008027 131.741823 
L 316.190596 131.277402 
L 317.964449 130.862141 
L 320.132492 130.599567 
L 322.891819 130.495463 
L 326.63662 130.593205 
L 331.761084 130.956414 
L 346.543194 132.104453 
L 348.711237 131.8627 
L 352.258943 131.398857 
L 355.806649 131.254268 
L 361.325304 131.278559 
L 372.559707 131.618633 
L 382.020257 131.823371 
L 391.874997 131.522626 
L 404.489064 131.63367 
L 417.89151 131.719845 
L 426.366586 131.6302 
L 498.109091 131.686879 
L 498.109091 131.686879 
" style="fill:none;stroke:#00bfbf;stroke-linecap:square;stroke-width:1.5;"/>
   </g>
   <g id="line2d_25">
    <path clip-path="url(#pfba2954e14)" d="M 92.290909 70.004474 
L 92.488004 214.593848 
L 92.685099 214.593848 
L 92.882193 217.175636 
L 93.473478 230.99491 
L 96.626995 316.241913 
L 97.809563 347.906985 
L 98.203753 353.158471 
L 98.597943 355.809084 
L 98.992132 357.040407 
L 99.386322 357.499044 
L 99.780511 357.53953 
L 100.371796 357.214493 
L 101.554364 356.100576 
L 104.510786 353.218621 
L 106.875924 351.238903 
L 109.438156 349.396834 
L 112.000389 347.823702 
L 114.759716 346.383592 
L 117.321948 345.245963 
L 117.913232 343.51089 
L 118.504517 339.484944 
L 120.869654 319.92605 
L 121.263844 318.214112 
L 121.658033 317.250568 
L 121.855128 317.064915 
L 122.052223 317.082266 
L 122.249318 317.304934 
L 122.643507 318.368533 
L 123.037697 320.248773 
L 125.599929 335.684556 
L 129.147636 356.209307 
L 129.541825 357.241097 
L 129.936015 357.833335 
L 130.527299 358.252066 
L 131.118584 358.374099 
L 132.104058 358.306432 
L 135.060479 357.718242 
L 139.790755 356.881937 
L 145.112314 356.181546 
L 151.222253 355.607815 
L 159.106044 355.116212 
L 169.552069 354.735074 
L 170.931732 354.633283 
L 171.325922 354.244627 
L 171.917206 353.319255 
L 172.705585 351.555843 
L 173.691059 348.660585 
L 175.267818 343.132644 
L 176.844576 337.860916 
L 177.632955 335.863847 
L 178.224239 334.81355 
L 178.815524 334.224204 
L 179.209713 334.112581 
L 182.560325 334.585099 
L 183.939989 334.471162 
L 185.319652 334.145547 
L 186.699316 333.604205 
L 188.276074 332.722788 
L 189.852832 331.562024 
L 191.429591 330.124228 
L 193.203444 328.178633 
L 194.977297 325.888916 
L 196.948245 322.946811 
L 198.919193 319.591181 
L 201.087236 315.430477 
L 203.255278 310.786845 
L 205.620416 305.181982 
L 207.985553 299.028258 
L 210.547786 291.758883 
L 213.307113 283.249509 
L 216.263535 273.378104 
L 219.417052 262.022054 
L 222.767663 249.064533 
L 226.315369 234.39623 
L 230.06017 217.917668 
L 234.002066 199.53978 
L 238.141057 179.189694 
L 242.674237 155.769107 
L 247.601607 129.099886 
L 252.923167 99.039177 
L 253.908641 93.96409 
L 254.69702 91.141705 
L 255.485399 89.152734 
L 256.076683 88.132511 
L 256.667968 87.455833 
L 257.259252 87.074695 
L 257.850536 86.948035 
L 258.441821 87.040572 
L 259.2302 87.454098 
L 260.018579 88.145235 
L 261.004053 89.327398 
L 262.186622 91.113944 
L 263.76338 93.950788 
L 265.931423 98.378114 
L 270.464603 108.297524 
L 274.406499 117.456971 
L 275.194878 118.646074 
L 275.786163 119.245253 
L 276.377447 119.556987 
L 276.968732 119.558722 
L 277.560016 119.238312 
L 278.348395 118.377138 
L 282.487386 113.201417 
L 284.261239 110.909386 
L 285.246713 110.011197 
L 286.429282 109.247765 
L 287.61185 108.756161 
L 288.991514 108.44674 
L 290.568272 108.359408 
L 292.342125 108.517878 
L 294.313073 108.930825 
L 296.678211 109.658399 
L 300.028822 110.942352 
L 306.532951 113.706323 
L 308.898088 114.684325 
L 310.277752 115.010519 
L 311.460321 115.062571 
L 312.642889 114.875762 
L 313.825458 114.461658 
L 315.402216 113.640969 
L 316.78188 112.988581 
L 318.358638 112.466324 
L 320.329586 112.062053 
L 322.497629 111.845168 
L 325.256956 111.815672 
L 328.410473 112.021568 
L 332.352369 112.507388 
L 340.433255 113.778618 
L 344.178056 114.345408 
L 346.149004 114.411341 
L 348.119952 114.230893 
L 355.01827 113.26735 
L 358.763071 113.173656 
L 363.690441 113.2847 
L 371.771328 113.725987 
L 381.034783 114.16149 
L 384.1883 113.993188 
L 388.32729 113.764159 
L 393.845945 113.695912 
L 403.1094 113.831826 
L 417.10313 114.050446 
L 429.914292 113.896603 
L 498.109091 113.997815 
L 498.109091 113.997815 
" style="fill:none;stroke:#ff0000;stroke-linecap:square;stroke-width:1.5;"/>
   </g>
   <g id="patch_3">
    <path d="M 72 384.48 
L 72 51.84 
" style="fill:none;stroke:#000000;stroke-linecap:square;stroke-linejoin:miter;stroke-width:0.8;"/>
   </g>
   <g id="patch_4">
    <path d="M 518.4 384.48 
L 518.4 51.84 
" style="fill:none;stroke:#000000;stroke-linecap:square;stroke-linejoin:miter;stroke-width:0.8;"/>
   </g>
   <g id="patch_5">
    <path d="M 72 384.48 
L 518.4 384.48 
" style="fill:none;stroke:#000000;stroke-linecap:square;stroke-linejoin:miter;stroke-width:0.8;"/>
   </g>
   <g id="patch_6">
    <path d="M 72 51.84 
L 518.4 51.84 
" style="fill:none;stroke:#000000;stroke-linecap:square;stroke-linejoin:miter;stroke-width:0.8;"/>
   </g>
   <g id="legend_1">
    <g id="patch_7">
     <path d="M 443.185706 379.48 
L 511.4 379.48 
Q 513.4 379.48 513.4 377.48 
L 513.4 327.518268 
Q 513.4 325.518268 511.4 325.518268 
L 443.185706 325.518268 
Q 441.185706 325.518268 441.185706 327.518268 
L 441.185706 377.48 
Q 441.185706 379.48 443.185706 379.48 
z
" style="fill:#ffffff;opacity:0.8;stroke:#cccccc;stroke-linejoin:miter;"/>
    </g>
    <g id="line2d_26">
     <path d="M 445.185706 336.068334 
L 465.185706 336.068334 
" style="fill:none;stroke:#bf00bf;stroke-linecap:square;stroke-width:1.5;"/>
    </g>
    <g id="line2d_27"/>
    <g id="text_14">
     <!-- $\partial \mathcal{L}/ \partial \mu^{\overline{U}}_{1}$ -->
     <g transform="translate(473.185706 339.568334)scale(0.1 -0.1)">
      <use transform="translate(0 24.740171)scale(0.996264)" xlink:href="#CMMI12-64"/>
      <use transform="translate(56.915564 24.740171)scale(0.996264)" xlink:href="#CMSY10-76"/>
      <use transform="translate(125.630372 24.740171)scale(0.996264)" xlink:href="#CMMI12-61"/>
      <use transform="translate(174.405291 24.740171)scale(0.996264)" xlink:href="#CMMI12-64"/>
      <use transform="translate(231.320856 24.740171)scale(0.996264)" xlink:href="#CMMI12-22"/>
      <use transform="translate(290.012277 60.89381)scale(0.697382)" xlink:href="#CMMI12-85"/>
      <use transform="translate(290.012277 0)scale(0.697382)" xlink:href="#CMR17-49"/>
      <path d="M 290.012277 116.916574 
L 344.171317 116.916574 
L 344.171317 119.706025 
L 290.012277 119.706025 
L 290.012277 116.916574 
z
"/>
     </g>
    </g>
    <g id="line2d_28">
     <path d="M 445.185706 353.055578 
L 465.185706 353.055578 
" style="fill:none;stroke:#00bfbf;stroke-linecap:square;stroke-width:1.5;"/>
    </g>
    <g id="line2d_29"/>
    <g id="text_15">
     <!-- $\partial \mathcal{L}/ \partial \mu^{\overline{U}}_{2}$ -->
     <g transform="translate(473.185706 356.555578)scale(0.1 -0.1)">
      <use transform="translate(0 24.740171)scale(0.996264)" xlink:href="#CMMI12-64"/>
      <use transform="translate(56.915564 24.740171)scale(0.996264)" xlink:href="#CMSY10-76"/>
      <use transform="translate(125.630372 24.740171)scale(0.996264)" xlink:href="#CMMI12-61"/>
      <use transform="translate(174.405291 24.740171)scale(0.996264)" xlink:href="#CMMI12-64"/>
      <use transform="translate(231.320856 24.740171)scale(0.996264)" xlink:href="#CMMI12-22"/>
      <use transform="translate(290.012277 60.89381)scale(0.697382)" xlink:href="#CMMI12-85"/>
      <use transform="translate(290.012277 0)scale(0.697382)" xlink:href="#CMR17-50"/>
      <path d="M 290.012277 116.916574 
L 344.171317 116.916574 
L 344.171317 119.706025 
L 290.012277 119.706025 
L 290.012277 116.916574 
z
"/>
     </g>
    </g>
    <g id="line2d_30">
     <path d="M 445.185706 370.042822 
L 465.185706 370.042822 
" style="fill:none;stroke:#ff0000;stroke-linecap:square;stroke-width:1.5;"/>
    </g>
    <g id="line2d_31"/>
    <g id="text_16">
     <!-- $\partial \mathcal{L}/ \partial \mu^{\overline{U}}_{3}$ -->
     <g transform="translate(473.185706 373.542822)scale(0.1 -0.1)">
      <use transform="translate(0 24.740171)scale(0.996264)" xlink:href="#CMMI12-64"/>
      <use transform="translate(56.915564 24.740171)scale(0.996264)" xlink:href="#CMSY10-76"/>
      <use transform="translate(125.630372 24.740171)scale(0.996264)" xlink:href="#CMMI12-61"/>
      <use transform="translate(174.405291 24.740171)scale(0.996264)" xlink:href="#CMMI12-64"/>
      <use transform="translate(231.320856 24.740171)scale(0.996264)" xlink:href="#CMMI12-22"/>
      <use transform="translate(290.012277 60.89381)scale(0.697382)" xlink:href="#CMMI12-85"/>
      <use transform="translate(290.012277 0)scale(0.697382)" xlink:href="#CMR17-51"/>
      <path d="M 290.012277 116.916574 
L 344.171317 116.916574 
L 344.171317 119.706025 
L 290.012277 119.706025 
L 290.012277 116.916574 
z
"/>
     </g>
    </g>
   </g>
  </g>
 </g>
 <defs>
  <clipPath id="pfba2954e14">
   <rect height="332.64" width="446.4" x="72" y="51.84"/>
  </clipPath>
 </defs>
</svg>
