<?xml version="1.0" encoding="utf-8" standalone="no"?>
<!DOCTYPE svg PUBLIC "-//W3C//DTD SVG 1.1//EN"
  "http://www.w3.org/Graphics/SVG/1.1/DTD/svg11.dtd">
<!-- Created with matplotlib (http://matplotlib.org/) -->
<svg height="432pt" version="1.1" viewBox="0 0 576 432" width="576pt" xmlns="http://www.w3.org/2000/svg" xmlns:xlink="http://www.w3.org/1999/xlink">
 <defs>
  <style type="text/css">
*{stroke-linecap:butt;stroke-linejoin:round;}
  </style>
 </defs>
 <g id="figure_1">
  <g id="patch_1">
   <path d="M 0 432 
L 576 432 
L 576 0 
L 0 0 
z
" style="fill:#ffffff;"/>
  </g>
  <g id="axes_1">
   <g id="patch_2">
    <path d="M 72 384.48 
L 518.4 384.48 
L 518.4 51.84 
L 72 51.84 
z
" style="fill:#ffffff;"/>
   </g>
   <g id="matplotlib.axis_1">
    <g id="xtick_1">
     <g id="line2d_1">
      <path clip-path="url(#p5e7aeda303)" d="M 92.290909 384.48 
L 92.290909 51.84 
" style="fill:none;stroke:#b0b0b0;stroke-dasharray:5.12,1.28,0.8,1.28;stroke-dashoffset:0;stroke-width:0.8;"/>
     </g>
     <g id="line2d_2">
      <defs>
       <path d="M 0 0 
L 0 3.5 
" id="m089e06884e" style="stroke:#000000;stroke-width:0.8;"/>
      </defs>
      <g>
       <use style="stroke:#000000;stroke-width:0.8;" x="92.290909" xlink:href="#m089e06884e" y="384.48"/>
      </g>
     </g>
     <g id="text_1">
      <!-- 0 -->
      <defs>
       <path d="M 31.78125 66.40625 
Q 24.171875 66.40625 20.328125 58.90625 
Q 16.5 51.421875 16.5 36.375 
Q 16.5 21.390625 20.328125 13.890625 
Q 24.171875 6.390625 31.78125 6.390625 
Q 39.453125 6.390625 43.28125 13.890625 
Q 47.125 21.390625 47.125 36.375 
Q 47.125 51.421875 43.28125 58.90625 
Q 39.453125 66.40625 31.78125 66.40625 
z
M 31.78125 74.21875 
Q 44.046875 74.21875 50.515625 64.515625 
Q 56.984375 54.828125 56.984375 36.375 
Q 56.984375 17.96875 50.515625 8.265625 
Q 44.046875 -1.421875 31.78125 -1.421875 
Q 19.53125 -1.421875 13.0625 8.265625 
Q 6.59375 17.96875 6.59375 36.375 
Q 6.59375 54.828125 13.0625 64.515625 
Q 19.53125 74.21875 31.78125 74.21875 
z
" id="DejaVuSans-30"/>
      </defs>
      <g transform="translate(89.109659 399.078438)scale(0.1 -0.1)">
       <use xlink:href="#DejaVuSans-30"/>
      </g>
     </g>
    </g>
    <g id="xtick_2">
     <g id="line2d_3">
      <path clip-path="url(#p5e7aeda303)" d="M 150.783008 384.48 
L 150.783008 51.84 
" style="fill:none;stroke:#b0b0b0;stroke-dasharray:5.12,1.28,0.8,1.28;stroke-dashoffset:0;stroke-width:0.8;"/>
     </g>
     <g id="line2d_4">
      <g>
       <use style="stroke:#000000;stroke-width:0.8;" x="150.783008" xlink:href="#m089e06884e" y="384.48"/>
      </g>
     </g>
     <g id="text_2">
      <!-- 500 -->
      <defs>
       <path d="M 10.796875 72.90625 
L 49.515625 72.90625 
L 49.515625 64.59375 
L 19.828125 64.59375 
L 19.828125 46.734375 
Q 21.96875 47.46875 24.109375 47.828125 
Q 26.265625 48.1875 28.421875 48.1875 
Q 40.625 48.1875 47.75 41.5 
Q 54.890625 34.8125 54.890625 23.390625 
Q 54.890625 11.625 47.5625 5.09375 
Q 40.234375 -1.421875 26.90625 -1.421875 
Q 22.3125 -1.421875 17.546875 -0.640625 
Q 12.796875 0.140625 7.71875 1.703125 
L 7.71875 11.625 
Q 12.109375 9.234375 16.796875 8.0625 
Q 21.484375 6.890625 26.703125 6.890625 
Q 35.15625 6.890625 40.078125 11.328125 
Q 45.015625 15.765625 45.015625 23.390625 
Q 45.015625 31 40.078125 35.4375 
Q 35.15625 39.890625 26.703125 39.890625 
Q 22.75 39.890625 18.8125 39.015625 
Q 14.890625 38.140625 10.796875 36.28125 
z
" id="DejaVuSans-35"/>
      </defs>
      <g transform="translate(141.239258 399.078438)scale(0.1 -0.1)">
       <use xlink:href="#DejaVuSans-35"/>
       <use x="63.623047" xlink:href="#DejaVuSans-30"/>
       <use x="127.246094" xlink:href="#DejaVuSans-30"/>
      </g>
     </g>
    </g>
    <g id="xtick_3">
     <g id="line2d_5">
      <path clip-path="url(#p5e7aeda303)" d="M 209.275107 384.48 
L 209.275107 51.84 
" style="fill:none;stroke:#b0b0b0;stroke-dasharray:5.12,1.28,0.8,1.28;stroke-dashoffset:0;stroke-width:0.8;"/>
     </g>
     <g id="line2d_6">
      <g>
       <use style="stroke:#000000;stroke-width:0.8;" x="209.275107" xlink:href="#m089e06884e" y="384.48"/>
      </g>
     </g>
     <g id="text_3">
      <!-- 1000 -->
      <defs>
       <path d="M 12.40625 8.296875 
L 28.515625 8.296875 
L 28.515625 63.921875 
L 10.984375 60.40625 
L 10.984375 69.390625 
L 28.421875 72.90625 
L 38.28125 72.90625 
L 38.28125 8.296875 
L 54.390625 8.296875 
L 54.390625 0 
L 12.40625 0 
z
" id="DejaVuSans-31"/>
      </defs>
      <g transform="translate(196.550107 399.078438)scale(0.1 -0.1)">
       <use xlink:href="#DejaVuSans-31"/>
       <use x="63.623047" xlink:href="#DejaVuSans-30"/>
       <use x="127.246094" xlink:href="#DejaVuSans-30"/>
       <use x="190.869141" xlink:href="#DejaVuSans-30"/>
      </g>
     </g>
    </g>
    <g id="xtick_4">
     <g id="line2d_7">
      <path clip-path="url(#p5e7aeda303)" d="M 267.767206 384.48 
L 267.767206 51.84 
" style="fill:none;stroke:#b0b0b0;stroke-dasharray:5.12,1.28,0.8,1.28;stroke-dashoffset:0;stroke-width:0.8;"/>
     </g>
     <g id="line2d_8">
      <g>
       <use style="stroke:#000000;stroke-width:0.8;" x="267.767206" xlink:href="#m089e06884e" y="384.48"/>
      </g>
     </g>
     <g id="text_4">
      <!-- 1500 -->
      <g transform="translate(255.042206 399.078438)scale(0.1 -0.1)">
       <use xlink:href="#DejaVuSans-31"/>
       <use x="63.623047" xlink:href="#DejaVuSans-35"/>
       <use x="127.246094" xlink:href="#DejaVuSans-30"/>
       <use x="190.869141" xlink:href="#DejaVuSans-30"/>
      </g>
     </g>
    </g>
    <g id="xtick_5">
     <g id="line2d_9">
      <path clip-path="url(#p5e7aeda303)" d="M 326.259304 384.48 
L 326.259304 51.84 
" style="fill:none;stroke:#b0b0b0;stroke-dasharray:5.12,1.28,0.8,1.28;stroke-dashoffset:0;stroke-width:0.8;"/>
     </g>
     <g id="line2d_10">
      <g>
       <use style="stroke:#000000;stroke-width:0.8;" x="326.259304" xlink:href="#m089e06884e" y="384.48"/>
      </g>
     </g>
     <g id="text_5">
      <!-- 2000 -->
      <defs>
       <path d="M 19.1875 8.296875 
L 53.609375 8.296875 
L 53.609375 0 
L 7.328125 0 
L 7.328125 8.296875 
Q 12.9375 14.109375 22.625 23.890625 
Q 32.328125 33.6875 34.8125 36.53125 
Q 39.546875 41.84375 41.421875 45.53125 
Q 43.3125 49.21875 43.3125 52.78125 
Q 43.3125 58.59375 39.234375 62.25 
Q 35.15625 65.921875 28.609375 65.921875 
Q 23.96875 65.921875 18.8125 64.3125 
Q 13.671875 62.703125 7.8125 59.421875 
L 7.8125 69.390625 
Q 13.765625 71.78125 18.9375 73 
Q 24.125 74.21875 28.421875 74.21875 
Q 39.75 74.21875 46.484375 68.546875 
Q 53.21875 62.890625 53.21875 53.421875 
Q 53.21875 48.921875 51.53125 44.890625 
Q 49.859375 40.875 45.40625 35.40625 
Q 44.1875 33.984375 37.640625 27.21875 
Q 31.109375 20.453125 19.1875 8.296875 
z
" id="DejaVuSans-32"/>
      </defs>
      <g transform="translate(313.534304 399.078438)scale(0.1 -0.1)">
       <use xlink:href="#DejaVuSans-32"/>
       <use x="63.623047" xlink:href="#DejaVuSans-30"/>
       <use x="127.246094" xlink:href="#DejaVuSans-30"/>
       <use x="190.869141" xlink:href="#DejaVuSans-30"/>
      </g>
     </g>
    </g>
    <g id="xtick_6">
     <g id="line2d_11">
      <path clip-path="url(#p5e7aeda303)" d="M 384.751403 384.48 
L 384.751403 51.84 
" style="fill:none;stroke:#b0b0b0;stroke-dasharray:5.12,1.28,0.8,1.28;stroke-dashoffset:0;stroke-width:0.8;"/>
     </g>
     <g id="line2d_12">
      <g>
       <use style="stroke:#000000;stroke-width:0.8;" x="384.751403" xlink:href="#m089e06884e" y="384.48"/>
      </g>
     </g>
     <g id="text_6">
      <!-- 2500 -->
      <g transform="translate(372.026403 399.078438)scale(0.1 -0.1)">
       <use xlink:href="#DejaVuSans-32"/>
       <use x="63.623047" xlink:href="#DejaVuSans-35"/>
       <use x="127.246094" xlink:href="#DejaVuSans-30"/>
       <use x="190.869141" xlink:href="#DejaVuSans-30"/>
      </g>
     </g>
    </g>
    <g id="xtick_7">
     <g id="line2d_13">
      <path clip-path="url(#p5e7aeda303)" d="M 443.243502 384.48 
L 443.243502 51.84 
" style="fill:none;stroke:#b0b0b0;stroke-dasharray:5.12,1.28,0.8,1.28;stroke-dashoffset:0;stroke-width:0.8;"/>
     </g>
     <g id="line2d_14">
      <g>
       <use style="stroke:#000000;stroke-width:0.8;" x="443.243502" xlink:href="#m089e06884e" y="384.48"/>
      </g>
     </g>
     <g id="text_7">
      <!-- 3000 -->
      <defs>
       <path d="M 40.578125 39.3125 
Q 47.65625 37.796875 51.625 33 
Q 55.609375 28.21875 55.609375 21.1875 
Q 55.609375 10.40625 48.1875 4.484375 
Q 40.765625 -1.421875 27.09375 -1.421875 
Q 22.515625 -1.421875 17.65625 -0.515625 
Q 12.796875 0.390625 7.625 2.203125 
L 7.625 11.71875 
Q 11.71875 9.328125 16.59375 8.109375 
Q 21.484375 6.890625 26.8125 6.890625 
Q 36.078125 6.890625 40.9375 10.546875 
Q 45.796875 14.203125 45.796875 21.1875 
Q 45.796875 27.640625 41.28125 31.265625 
Q 36.765625 34.90625 28.71875 34.90625 
L 20.21875 34.90625 
L 20.21875 43.015625 
L 29.109375 43.015625 
Q 36.375 43.015625 40.234375 45.921875 
Q 44.09375 48.828125 44.09375 54.296875 
Q 44.09375 59.90625 40.109375 62.90625 
Q 36.140625 65.921875 28.71875 65.921875 
Q 24.65625 65.921875 20.015625 65.03125 
Q 15.375 64.15625 9.8125 62.3125 
L 9.8125 71.09375 
Q 15.4375 72.65625 20.34375 73.4375 
Q 25.25 74.21875 29.59375 74.21875 
Q 40.828125 74.21875 47.359375 69.109375 
Q 53.90625 64.015625 53.90625 55.328125 
Q 53.90625 49.265625 50.4375 45.09375 
Q 46.96875 40.921875 40.578125 39.3125 
z
" id="DejaVuSans-33"/>
      </defs>
      <g transform="translate(430.518502 399.078438)scale(0.1 -0.1)">
       <use xlink:href="#DejaVuSans-33"/>
       <use x="63.623047" xlink:href="#DejaVuSans-30"/>
       <use x="127.246094" xlink:href="#DejaVuSans-30"/>
       <use x="190.869141" xlink:href="#DejaVuSans-30"/>
      </g>
     </g>
    </g>
    <g id="xtick_8">
     <g id="line2d_15">
      <path clip-path="url(#p5e7aeda303)" d="M 501.735601 384.48 
L 501.735601 51.84 
" style="fill:none;stroke:#b0b0b0;stroke-dasharray:5.12,1.28,0.8,1.28;stroke-dashoffset:0;stroke-width:0.8;"/>
     </g>
     <g id="line2d_16">
      <g>
       <use style="stroke:#000000;stroke-width:0.8;" x="501.735601" xlink:href="#m089e06884e" y="384.48"/>
      </g>
     </g>
     <g id="text_8">
      <!-- 3500 -->
      <g transform="translate(489.010601 399.078438)scale(0.1 -0.1)">
       <use xlink:href="#DejaVuSans-33"/>
       <use x="63.623047" xlink:href="#DejaVuSans-35"/>
       <use x="127.246094" xlink:href="#DejaVuSans-30"/>
       <use x="190.869141" xlink:href="#DejaVuSans-30"/>
      </g>
     </g>
    </g>
    <g id="text_9">
     <!-- Iteration -->
     <defs>
      <path d="M 9.8125 72.90625 
L 19.671875 72.90625 
L 19.671875 0 
L 9.8125 0 
z
" id="DejaVuSans-49"/>
      <path d="M 18.3125 70.21875 
L 18.3125 54.6875 
L 36.8125 54.6875 
L 36.8125 47.703125 
L 18.3125 47.703125 
L 18.3125 18.015625 
Q 18.3125 11.328125 20.140625 9.421875 
Q 21.96875 7.515625 27.59375 7.515625 
L 36.8125 7.515625 
L 36.8125 0 
L 27.59375 0 
Q 17.1875 0 13.234375 3.875 
Q 9.28125 7.765625 9.28125 18.015625 
L 9.28125 47.703125 
L 2.6875 47.703125 
L 2.6875 54.6875 
L 9.28125 54.6875 
L 9.28125 70.21875 
z
" id="DejaVuSans-74"/>
      <path d="M 56.203125 29.59375 
L 56.203125 25.203125 
L 14.890625 25.203125 
Q 15.484375 15.921875 20.484375 11.0625 
Q 25.484375 6.203125 34.421875 6.203125 
Q 39.59375 6.203125 44.453125 7.46875 
Q 49.3125 8.734375 54.109375 11.28125 
L 54.109375 2.78125 
Q 49.265625 0.734375 44.1875 -0.34375 
Q 39.109375 -1.421875 33.890625 -1.421875 
Q 20.796875 -1.421875 13.15625 6.1875 
Q 5.515625 13.8125 5.515625 26.8125 
Q 5.515625 40.234375 12.765625 48.109375 
Q 20.015625 56 32.328125 56 
Q 43.359375 56 49.78125 48.890625 
Q 56.203125 41.796875 56.203125 29.59375 
z
M 47.21875 32.234375 
Q 47.125 39.59375 43.09375 43.984375 
Q 39.0625 48.390625 32.421875 48.390625 
Q 24.90625 48.390625 20.390625 44.140625 
Q 15.875 39.890625 15.1875 32.171875 
z
" id="DejaVuSans-65"/>
      <path d="M 41.109375 46.296875 
Q 39.59375 47.171875 37.8125 47.578125 
Q 36.03125 48 33.890625 48 
Q 26.265625 48 22.1875 43.046875 
Q 18.109375 38.09375 18.109375 28.8125 
L 18.109375 0 
L 9.078125 0 
L 9.078125 54.6875 
L 18.109375 54.6875 
L 18.109375 46.1875 
Q 20.953125 51.171875 25.484375 53.578125 
Q 30.03125 56 36.53125 56 
Q 37.453125 56 38.578125 55.875 
Q 39.703125 55.765625 41.0625 55.515625 
z
" id="DejaVuSans-72"/>
      <path d="M 34.28125 27.484375 
Q 23.390625 27.484375 19.1875 25 
Q 14.984375 22.515625 14.984375 16.5 
Q 14.984375 11.71875 18.140625 8.90625 
Q 21.296875 6.109375 26.703125 6.109375 
Q 34.1875 6.109375 38.703125 11.40625 
Q 43.21875 16.703125 43.21875 25.484375 
L 43.21875 27.484375 
z
M 52.203125 31.203125 
L 52.203125 0 
L 43.21875 0 
L 43.21875 8.296875 
Q 40.140625 3.328125 35.546875 0.953125 
Q 30.953125 -1.421875 24.3125 -1.421875 
Q 15.921875 -1.421875 10.953125 3.296875 
Q 6 8.015625 6 15.921875 
Q 6 25.140625 12.171875 29.828125 
Q 18.359375 34.515625 30.609375 34.515625 
L 43.21875 34.515625 
L 43.21875 35.40625 
Q 43.21875 41.609375 39.140625 45 
Q 35.0625 48.390625 27.6875 48.390625 
Q 23 48.390625 18.546875 47.265625 
Q 14.109375 46.140625 10.015625 43.890625 
L 10.015625 52.203125 
Q 14.9375 54.109375 19.578125 55.046875 
Q 24.21875 56 28.609375 56 
Q 40.484375 56 46.34375 49.84375 
Q 52.203125 43.703125 52.203125 31.203125 
z
" id="DejaVuSans-61"/>
      <path d="M 9.421875 54.6875 
L 18.40625 54.6875 
L 18.40625 0 
L 9.421875 0 
z
M 9.421875 75.984375 
L 18.40625 75.984375 
L 18.40625 64.59375 
L 9.421875 64.59375 
z
" id="DejaVuSans-69"/>
      <path d="M 30.609375 48.390625 
Q 23.390625 48.390625 19.1875 42.75 
Q 14.984375 37.109375 14.984375 27.296875 
Q 14.984375 17.484375 19.15625 11.84375 
Q 23.34375 6.203125 30.609375 6.203125 
Q 37.796875 6.203125 41.984375 11.859375 
Q 46.1875 17.53125 46.1875 27.296875 
Q 46.1875 37.015625 41.984375 42.703125 
Q 37.796875 48.390625 30.609375 48.390625 
z
M 30.609375 56 
Q 42.328125 56 49.015625 48.375 
Q 55.71875 40.765625 55.71875 27.296875 
Q 55.71875 13.875 49.015625 6.21875 
Q 42.328125 -1.421875 30.609375 -1.421875 
Q 18.84375 -1.421875 12.171875 6.21875 
Q 5.515625 13.875 5.515625 27.296875 
Q 5.515625 40.765625 12.171875 48.375 
Q 18.84375 56 30.609375 56 
z
" id="DejaVuSans-6f"/>
      <path d="M 54.890625 33.015625 
L 54.890625 0 
L 45.90625 0 
L 45.90625 32.71875 
Q 45.90625 40.484375 42.875 44.328125 
Q 39.84375 48.1875 33.796875 48.1875 
Q 26.515625 48.1875 22.3125 43.546875 
Q 18.109375 38.921875 18.109375 30.90625 
L 18.109375 0 
L 9.078125 0 
L 9.078125 54.6875 
L 18.109375 54.6875 
L 18.109375 46.1875 
Q 21.34375 51.125 25.703125 53.5625 
Q 30.078125 56 35.796875 56 
Q 45.21875 56 50.046875 50.171875 
Q 54.890625 44.34375 54.890625 33.015625 
z
" id="DejaVuSans-6e"/>
     </defs>
     <g transform="translate(265.507969 415.795938)scale(0.14 -0.14)">
      <use xlink:href="#DejaVuSans-49"/>
      <use x="29.492188" xlink:href="#DejaVuSans-74"/>
      <use x="68.701172" xlink:href="#DejaVuSans-65"/>
      <use x="130.224609" xlink:href="#DejaVuSans-72"/>
      <use x="171.337891" xlink:href="#DejaVuSans-61"/>
      <use x="232.617188" xlink:href="#DejaVuSans-74"/>
      <use x="271.826172" xlink:href="#DejaVuSans-69"/>
      <use x="299.609375" xlink:href="#DejaVuSans-6f"/>
      <use x="360.791016" xlink:href="#DejaVuSans-6e"/>
     </g>
    </g>
   </g>
   <g id="matplotlib.axis_2">
    <g id="ytick_1">
     <g id="line2d_17">
      <path clip-path="url(#p5e7aeda303)" d="M 72 369.36 
L 518.4 369.36 
" style="fill:none;stroke:#b0b0b0;stroke-dasharray:5.12,1.28,0.8,1.28;stroke-dashoffset:0;stroke-width:0.8;"/>
     </g>
     <g id="line2d_18">
      <defs>
       <path d="M 0 0 
L -3.5 0 
" id="m71c900b602" style="stroke:#000000;stroke-width:0.8;"/>
      </defs>
      <g>
       <use style="stroke:#000000;stroke-width:0.8;" x="72" xlink:href="#m71c900b602" y="369.36"/>
      </g>
     </g>
     <g id="text_10">
      <!-- 0.0 -->
      <defs>
       <path d="M 10.6875 12.40625 
L 21 12.40625 
L 21 0 
L 10.6875 0 
z
" id="DejaVuSans-2e"/>
      </defs>
      <g transform="translate(49.096875 373.159219)scale(0.1 -0.1)">
       <use xlink:href="#DejaVuSans-30"/>
       <use x="63.623047" xlink:href="#DejaVuSans-2e"/>
       <use x="95.410156" xlink:href="#DejaVuSans-30"/>
      </g>
     </g>
    </g>
    <g id="ytick_2">
     <g id="line2d_19">
      <path clip-path="url(#p5e7aeda303)" d="M 72 326.794829 
L 518.4 326.794829 
" style="fill:none;stroke:#b0b0b0;stroke-dasharray:5.12,1.28,0.8,1.28;stroke-dashoffset:0;stroke-width:0.8;"/>
     </g>
     <g id="line2d_20">
      <g>
       <use style="stroke:#000000;stroke-width:0.8;" x="72" xlink:href="#m71c900b602" y="326.794829"/>
      </g>
     </g>
     <g id="text_11">
      <!-- 0.5 -->
      <g transform="translate(49.096875 330.594048)scale(0.1 -0.1)">
       <use xlink:href="#DejaVuSans-30"/>
       <use x="63.623047" xlink:href="#DejaVuSans-2e"/>
       <use x="95.410156" xlink:href="#DejaVuSans-35"/>
      </g>
     </g>
    </g>
    <g id="ytick_3">
     <g id="line2d_21">
      <path clip-path="url(#p5e7aeda303)" d="M 72 284.229658 
L 518.4 284.229658 
" style="fill:none;stroke:#b0b0b0;stroke-dasharray:5.12,1.28,0.8,1.28;stroke-dashoffset:0;stroke-width:0.8;"/>
     </g>
     <g id="line2d_22">
      <g>
       <use style="stroke:#000000;stroke-width:0.8;" x="72" xlink:href="#m71c900b602" y="284.229658"/>
      </g>
     </g>
     <g id="text_12">
      <!-- 1.0 -->
      <g transform="translate(49.096875 288.028877)scale(0.1 -0.1)">
       <use xlink:href="#DejaVuSans-31"/>
       <use x="63.623047" xlink:href="#DejaVuSans-2e"/>
       <use x="95.410156" xlink:href="#DejaVuSans-30"/>
      </g>
     </g>
    </g>
    <g id="ytick_4">
     <g id="line2d_23">
      <path clip-path="url(#p5e7aeda303)" d="M 72 241.664487 
L 518.4 241.664487 
" style="fill:none;stroke:#b0b0b0;stroke-dasharray:5.12,1.28,0.8,1.28;stroke-dashoffset:0;stroke-width:0.8;"/>
     </g>
     <g id="line2d_24">
      <g>
       <use style="stroke:#000000;stroke-width:0.8;" x="72" xlink:href="#m71c900b602" y="241.664487"/>
      </g>
     </g>
     <g id="text_13">
      <!-- 1.5 -->
      <g transform="translate(49.096875 245.463706)scale(0.1 -0.1)">
       <use xlink:href="#DejaVuSans-31"/>
       <use x="63.623047" xlink:href="#DejaVuSans-2e"/>
       <use x="95.410156" xlink:href="#DejaVuSans-35"/>
      </g>
     </g>
    </g>
    <g id="ytick_5">
     <g id="line2d_25">
      <path clip-path="url(#p5e7aeda303)" d="M 72 199.099316 
L 518.4 199.099316 
" style="fill:none;stroke:#b0b0b0;stroke-dasharray:5.12,1.28,0.8,1.28;stroke-dashoffset:0;stroke-width:0.8;"/>
     </g>
     <g id="line2d_26">
      <g>
       <use style="stroke:#000000;stroke-width:0.8;" x="72" xlink:href="#m71c900b602" y="199.099316"/>
      </g>
     </g>
     <g id="text_14">
      <!-- 2.0 -->
      <g transform="translate(49.096875 202.898535)scale(0.1 -0.1)">
       <use xlink:href="#DejaVuSans-32"/>
       <use x="63.623047" xlink:href="#DejaVuSans-2e"/>
       <use x="95.410156" xlink:href="#DejaVuSans-30"/>
      </g>
     </g>
    </g>
    <g id="ytick_6">
     <g id="line2d_27">
      <path clip-path="url(#p5e7aeda303)" d="M 72 156.534146 
L 518.4 156.534146 
" style="fill:none;stroke:#b0b0b0;stroke-dasharray:5.12,1.28,0.8,1.28;stroke-dashoffset:0;stroke-width:0.8;"/>
     </g>
     <g id="line2d_28">
      <g>
       <use style="stroke:#000000;stroke-width:0.8;" x="72" xlink:href="#m71c900b602" y="156.534146"/>
      </g>
     </g>
     <g id="text_15">
      <!-- 2.5 -->
      <g transform="translate(49.096875 160.333364)scale(0.1 -0.1)">
       <use xlink:href="#DejaVuSans-32"/>
       <use x="63.623047" xlink:href="#DejaVuSans-2e"/>
       <use x="95.410156" xlink:href="#DejaVuSans-35"/>
      </g>
     </g>
    </g>
    <g id="ytick_7">
     <g id="line2d_29">
      <path clip-path="url(#p5e7aeda303)" d="M 72 113.968975 
L 518.4 113.968975 
" style="fill:none;stroke:#b0b0b0;stroke-dasharray:5.12,1.28,0.8,1.28;stroke-dashoffset:0;stroke-width:0.8;"/>
     </g>
     <g id="line2d_30">
      <g>
       <use style="stroke:#000000;stroke-width:0.8;" x="72" xlink:href="#m71c900b602" y="113.968975"/>
      </g>
     </g>
     <g id="text_16">
      <!-- 3.0 -->
      <g transform="translate(49.096875 117.768193)scale(0.1 -0.1)">
       <use xlink:href="#DejaVuSans-33"/>
       <use x="63.623047" xlink:href="#DejaVuSans-2e"/>
       <use x="95.410156" xlink:href="#DejaVuSans-30"/>
      </g>
     </g>
    </g>
    <g id="ytick_8">
     <g id="line2d_31">
      <path clip-path="url(#p5e7aeda303)" d="M 72 71.403804 
L 518.4 71.403804 
" style="fill:none;stroke:#b0b0b0;stroke-dasharray:5.12,1.28,0.8,1.28;stroke-dashoffset:0;stroke-width:0.8;"/>
     </g>
     <g id="line2d_32">
      <g>
       <use style="stroke:#000000;stroke-width:0.8;" x="72" xlink:href="#m71c900b602" y="71.403804"/>
      </g>
     </g>
     <g id="text_17">
      <!-- 3.5 -->
      <g transform="translate(49.096875 75.203023)scale(0.1 -0.1)">
       <use xlink:href="#DejaVuSans-33"/>
       <use x="63.623047" xlink:href="#DejaVuSans-2e"/>
       <use x="95.410156" xlink:href="#DejaVuSans-35"/>
      </g>
     </g>
    </g>
    <g id="text_18">
     <!-- $\mu^{P_{\mathrm{max}}}_{m}[m.u/W]$ -->
     <defs>
      <path d="M -1.3125 -20.796875 
L 13.375 54.6875 
L 22.40625 54.6875 
L 15.765625 20.65625 
Q 15.578125 19.625 15.421875 18.359375 
Q 15.28125 17.09375 15.28125 15.828125 
Q 15.28125 11.28125 18.140625 8.828125 
Q 21 6.390625 26.3125 6.390625 
Q 33.546875 6.390625 37.984375 10.484375 
Q 42.4375 14.59375 44 22.796875 
L 50.203125 54.6875 
L 59.1875 54.6875 
L 51.03125 12.640625 
Q 50.828125 11.71875 50.75 11.03125 
Q 50.6875 10.359375 50.6875 9.8125 
Q 50.6875 8.296875 51.296875 7.59375 
Q 51.90625 6.890625 53.21875 6.890625 
Q 53.71875 6.890625 54.5625 7.125 
Q 55.421875 7.375 56.984375 8.015625 
L 55.609375 0.78125 
Q 53.46875 -0.296875 51.515625 -0.859375 
Q 49.5625 -1.421875 47.703125 -1.421875 
Q 44.484375 -1.421875 42.65625 0.625 
Q 40.828125 2.6875 40.828125 6.296875 
Q 38.09375 2.390625 34.296875 0.484375 
Q 30.515625 -1.421875 25.390625 -1.421875 
Q 20.84375 -1.421875 17.453125 0.671875 
Q 14.0625 2.78125 12.984375 6.203125 
L 7.71875 -20.796875 
z
" id="DejaVuSans-Oblique-3bc"/>
      <path d="M 16.890625 72.90625 
L 39.703125 72.90625 
Q 49.65625 72.90625 54.875 68.265625 
Q 60.109375 63.625 60.109375 54.6875 
Q 60.109375 42.671875 52.390625 35.984375 
Q 44.671875 29.296875 30.71875 29.296875 
L 18.3125 29.296875 
L 12.59375 0 
L 2.6875 0 
z
M 25.203125 64.796875 
L 19.921875 37.40625 
L 32.328125 37.40625 
Q 40.71875 37.40625 45.203125 41.703125 
Q 49.703125 46 49.703125 54 
Q 49.703125 59.125 46.65625 61.953125 
Q 43.609375 64.796875 38.09375 64.796875 
z
" id="DejaVuSans-Oblique-50"/>
      <path d="M 52 44.1875 
Q 55.375 50.25 60.0625 53.125 
Q 64.75 56 71.09375 56 
Q 79.640625 56 84.28125 50.015625 
Q 88.921875 44.046875 88.921875 33.015625 
L 88.921875 0 
L 79.890625 0 
L 79.890625 32.71875 
Q 79.890625 40.578125 77.09375 44.375 
Q 74.3125 48.1875 68.609375 48.1875 
Q 61.625 48.1875 57.5625 43.546875 
Q 53.515625 38.921875 53.515625 30.90625 
L 53.515625 0 
L 44.484375 0 
L 44.484375 32.71875 
Q 44.484375 40.625 41.703125 44.40625 
Q 38.921875 48.1875 33.109375 48.1875 
Q 26.21875 48.1875 22.15625 43.53125 
Q 18.109375 38.875 18.109375 30.90625 
L 18.109375 0 
L 9.078125 0 
L 9.078125 54.6875 
L 18.109375 54.6875 
L 18.109375 46.1875 
Q 21.1875 51.21875 25.484375 53.609375 
Q 29.78125 56 35.6875 56 
Q 41.65625 56 45.828125 52.96875 
Q 50 49.953125 52 44.1875 
z
" id="DejaVuSans-6d"/>
      <path d="M 54.890625 54.6875 
L 35.109375 28.078125 
L 55.90625 0 
L 45.3125 0 
L 29.390625 21.484375 
L 13.484375 0 
L 2.875 0 
L 24.125 28.609375 
L 4.6875 54.6875 
L 15.28125 54.6875 
L 29.78125 35.203125 
L 44.28125 54.6875 
z
" id="DejaVuSans-78"/>
      <path d="M 89.796875 33.015625 
L 83.40625 0 
L 74.421875 0 
L 80.71875 32.71875 
Q 81.109375 34.8125 81.296875 36.328125 
Q 81.5 37.84375 81.5 38.921875 
Q 81.5 43.3125 79.046875 45.75 
Q 76.609375 48.1875 72.21875 48.1875 
Q 65.671875 48.1875 60.546875 43.28125 
Q 55.421875 38.375 53.90625 30.515625 
L 47.90625 0 
L 38.921875 0 
L 45.3125 32.71875 
Q 45.703125 34.515625 45.890625 36.046875 
Q 46.09375 37.59375 46.09375 38.8125 
Q 46.09375 43.265625 43.65625 45.71875 
Q 41.21875 48.1875 36.921875 48.1875 
Q 30.28125 48.1875 25.140625 43.28125 
Q 20.015625 38.375 18.5 30.515625 
L 12.5 0 
L 3.515625 0 
L 14.203125 54.6875 
L 23.1875 54.6875 
L 21.484375 46.1875 
Q 25.140625 50.984375 30.046875 53.484375 
Q 34.96875 56 40.578125 56 
Q 46.53125 56 50.359375 52.875 
Q 54.203125 49.75 54.984375 44.1875 
Q 59.078125 49.953125 64.46875 52.96875 
Q 69.875 56 75.875 56 
Q 82.90625 56 86.734375 51.953125 
Q 90.578125 47.90625 90.578125 40.484375 
Q 90.578125 38.875 90.375 36.9375 
Q 90.1875 35.015625 89.796875 33.015625 
z
" id="DejaVuSans-Oblique-6d"/>
      <path d="M 8.59375 75.984375 
L 29.296875 75.984375 
L 29.296875 69 
L 17.578125 69 
L 17.578125 -6.203125 
L 29.296875 -6.203125 
L 29.296875 -13.1875 
L 8.59375 -13.1875 
z
" id="DejaVuSans-5b"/>
      <path d="M 6.6875 21.6875 
L 13.09375 54.6875 
L 22.125 54.6875 
L 15.71875 22.015625 
Q 15.234375 19.625 15.015625 17.921875 
Q 14.796875 16.21875 14.796875 15.09375 
Q 14.796875 10.9375 17.328125 8.65625 
Q 19.875 6.390625 24.515625 6.390625 
Q 31.734375 6.390625 37 11.265625 
Q 42.28125 16.15625 43.890625 24.421875 
L 49.90625 54.6875 
L 58.890625 54.6875 
L 48.296875 0 
L 39.3125 0 
L 41.109375 8.59375 
Q 37.3125 3.8125 32.0625 1.1875 
Q 26.8125 -1.421875 20.90625 -1.421875 
Q 13.71875 -1.421875 9.71875 2.515625 
Q 5.71875 6.453125 5.71875 13.484375 
Q 5.71875 14.9375 5.953125 17.140625 
Q 6.203125 19.34375 6.6875 21.6875 
z
" id="DejaVuSans-Oblique-75"/>
      <path d="M 25.390625 72.90625 
L 33.6875 72.90625 
L 8.296875 -9.28125 
L 0 -9.28125 
z
" id="DejaVuSans-2f"/>
      <path d="M 9.625 72.90625 
L 19.1875 72.90625 
L 22.703125 10.890625 
L 50.203125 72.90625 
L 61.1875 72.90625 
L 64.796875 10.890625 
L 92 72.90625 
L 102 72.90625 
L 69.578125 0 
L 57.171875 0 
L 53.8125 60.796875 
L 26.515625 0 
L 14.109375 0 
z
" id="DejaVuSans-Oblique-57"/>
      <path d="M 30.421875 75.984375 
L 30.421875 -13.1875 
L 9.71875 -13.1875 
L 9.71875 -6.203125 
L 21.390625 -6.203125 
L 21.390625 69 
L 9.71875 69 
L 9.71875 75.984375 
z
" id="DejaVuSans-5d"/>
     </defs>
     <g transform="translate(41.176875 263.31)rotate(-90)scale(0.14 -0.14)">
      <use transform="translate(0 0.684375)" xlink:href="#DejaVuSans-Oblique-3bc"/>
      <use transform="translate(68.089193 38.965625)scale(0.7)" xlink:href="#DejaVuSans-Oblique-50"/>
      <use transform="translate(110.301107 27.48125)scale(0.49)" xlink:href="#DejaVuSans-6d"/>
      <use transform="translate(158.03304 27.48125)scale(0.49)" xlink:href="#DejaVuSans-61"/>
      <use transform="translate(188.059896 27.48125)scale(0.49)" xlink:href="#DejaVuSans-78"/>
      <use transform="translate(63.623047 -26.659375)scale(0.7)" xlink:href="#DejaVuSans-Oblique-6d"/>
      <use transform="translate(221.70638 0.684375)" xlink:href="#DejaVuSans-5b"/>
      <use transform="translate(260.720052 0.684375)" xlink:href="#DejaVuSans-Oblique-6d"/>
      <use transform="translate(358.132161 0.684375)" xlink:href="#DejaVuSans-2e"/>
      <use transform="translate(409.401693 0.684375)" xlink:href="#DejaVuSans-Oblique-75"/>
      <use transform="translate(472.780599 0.684375)" xlink:href="#DejaVuSans-2f"/>
      <use transform="translate(506.472005 0.684375)" xlink:href="#DejaVuSans-Oblique-57"/>
      <use transform="translate(605.348958 0.684375)" xlink:href="#DejaVuSans-5d"/>
     </g>
    </g>
   </g>
   <g id="line2d_33">
    <path clip-path="url(#p5e7aeda303)" d="M 92.290909 369.36 
L 224.834005 369.36 
L 225.301942 367.214715 
L 225.652894 366.508134 
L 226.237815 365.929247 
L 227.290673 365.299283 
L 229.16242 364.465005 
L 232.087025 363.290207 
L 235.362583 361.979199 
L 238.63814 360.676705 
L 241.913698 359.365698 
L 245.189255 358.063204 
L 248.464813 356.752196 
L 251.740371 355.449702 
L 255.015928 354.138695 
L 258.291486 352.836201 
L 261.567043 351.525193 
L 264.842601 350.222699 
L 268.118158 348.911692 
L 271.393716 347.609198 
L 274.669273 346.29819 
L 277.944831 344.995696 
L 281.220388 343.684689 
L 284.495946 342.382195 
L 287.771503 341.071187 
L 291.047061 339.768693 
L 294.322619 338.457686 
L 297.598176 337.155192 
L 300.873734 335.844184 
L 304.149291 334.54169 
L 307.424849 333.230683 
L 310.81739 331.885624 
L 314.092948 330.574616 
L 317.368505 329.272122 
L 320.644063 327.961115 
L 323.919621 326.658621 
L 327.195178 325.347613 
L 330.470736 324.045119 
L 333.746293 322.734112 
L 337.021851 321.431618 
L 340.297408 320.12061 
L 343.572966 318.818116 
L 346.848523 317.507109 
L 350.124081 316.204615 
L 353.399638 314.893607 
L 356.675196 313.591113 
L 359.950753 312.280106 
L 363.226311 310.977612 
L 366.501868 309.666604 
L 369.777426 308.36411 
L 373.052984 307.053103 
L 376.328541 305.750609 
L 379.604099 304.439601 
L 382.879656 303.137107 
L 386.155214 301.8261 
L 389.430771 300.523606 
L 392.706329 299.212598 
L 395.981886 297.910104 
L 399.257444 296.599097 
L 402.533001 295.296603 
L 405.808559 293.985595 
L 409.084116 292.683101 
L 412.359674 291.372094 
L 415.635232 290.0696 
L 418.910789 288.758592 
L 422.186347 287.456098 
L 425.461904 286.145091 
L 428.737462 284.842597 
L 432.013019 283.531589 
L 435.288577 282.229095 
L 438.564134 280.918088 
L 441.839692 279.615594 
L 443.477471 279.019681 
L 446.285091 278.313099 
L 448.975728 277.83637 
L 452.134301 277.487335 
L 456.696685 277.265996 
L 465.587484 277.376666 
L 469.09701 277.521387 
L 471.553678 277.632057 
L 476.233046 277.861909 
L 478.689714 277.972578 
L 483.018129 278.176891 
L 485.82575 278.28756 
L 489.218292 278.423769 
L 492.610834 278.534438 
L 495.30147 278.619569 
L 497.992107 278.696186 
L 497.992107 278.696186 
" style="fill:none;stroke:#bf00bf;stroke-linecap:square;stroke-width:1.5;"/>
   </g>
   <g id="line2d_34">
    <path clip-path="url(#p5e7aeda303)" d="M 92.290909 369.36 
L 93.343767 369.249331 
L 93.811704 368.789627 
L 94.27964 367.878732 
L 96.619324 362.864555 
L 99.894882 356.658553 
L 103.170439 350.469577 
L 119.431243 319.933324 
L 123.408706 312.467393 
L 139.084588 283.037833 
L 143.062051 275.571902 
L 158.737933 246.142343 
L 162.83238 238.463587 
L 178.859215 208.370011 
L 182.836678 200.90408 
L 198.512561 171.474521 
L 202.490023 164.00859 
L 204.010818 161.301445 
L 204.946691 160.254342 
L 206.233518 159.258317 
L 207.40336 158.602813 
L 209.041138 157.989874 
L 211.731775 157.504631 
L 214.305427 157.428014 
L 217.931937 157.538684 
L 224.717021 157.92177 
L 225.067973 157.870692 
L 226.003847 157.376936 
L 230.215278 155.350834 
L 233.724804 153.93767 
L 237.117346 152.592611 
L 240.392903 151.281604 
L 243.668461 149.979109 
L 246.944018 148.668102 
L 250.219576 147.365608 
L 253.495134 146.054601 
L 256.770691 144.752106 
L 260.046249 143.441099 
L 263.321806 142.138605 
L 266.597364 140.827598 
L 269.872921 139.525103 
L 273.148479 138.214096 
L 276.424036 136.911602 
L 279.699594 135.600595 
L 282.975151 134.2981 
L 286.250709 132.987093 
L 289.526266 131.684599 
L 292.801824 130.373592 
L 296.077381 129.071097 
L 299.352939 127.76009 
L 302.628497 126.457596 
L 305.904054 125.146589 
L 309.179612 123.844094 
L 312.455169 122.533087 
L 315.730727 121.230593 
L 319.006284 119.919586 
L 322.281842 118.617091 
L 325.557399 117.306084 
L 328.832957 116.00359 
L 332.108514 114.692583 
L 335.384072 113.390088 
L 338.659629 112.079081 
L 341.935187 110.776587 
L 345.210745 109.46558 
L 348.486302 108.163085 
L 351.76186 106.852078 
L 355.037417 105.549584 
L 358.312975 104.238577 
L 361.588532 102.936082 
L 364.86409 101.625075 
L 368.256631 100.280016 
L 371.532189 98.969009 
L 374.807747 97.666514 
L 378.083304 96.355507 
L 381.358862 95.053013 
L 384.634419 93.742006 
L 387.909977 92.439511 
L 391.185534 91.128504 
L 394.461092 89.82601 
L 397.736649 88.515003 
L 401.012207 87.212508 
L 404.287764 85.901501 
L 407.563322 84.599007 
L 410.838879 83.288 
L 414.114437 81.985505 
L 417.389994 80.674498 
L 420.665552 79.372004 
L 423.94111 78.060997 
L 427.216667 76.758502 
L 430.492225 75.447495 
L 433.767782 74.145001 
L 437.04334 72.833994 
L 440.318897 71.531499 
L 442.775565 70.57804 
L 445.349218 69.939562 
L 447.805886 69.51391 
L 451.198428 69.130824 
L 455.99478 68.892459 
L 469.447962 69.003128 
L 471.670662 69.054206 
L 476.934951 69.164876 
L 479.157651 69.215954 
L 485.006861 69.326624 
L 487.112576 69.369189 
L 494.833533 69.479858 
L 496.705281 69.505397 
L 498.109091 69.522423 
L 498.109091 69.522423 
" style="fill:none;stroke:#00bfbf;stroke-linecap:square;stroke-width:1.5;"/>
   </g>
   <g id="line2d_35">
    <path clip-path="url(#p5e7aeda303)" d="M 92.290909 369.36 
L 93.109798 369.300409 
L 93.577735 368.815166 
L 94.513609 366.97635 
L 97.906151 360.302132 
L 116.038701 326.224456 
L 120.016164 318.758525 
L 135.692046 289.328966 
L 139.669509 281.863035 
L 155.345392 252.433476 
L 159.439839 244.754719 
L 175.466674 214.661143 
L 179.444136 207.195212 
L 195.120019 177.765653 
L 199.097482 170.299722 
L 204.36177 160.569324 
L 205.297644 159.377499 
L 206.350502 158.389987 
L 207.40336 157.666379 
L 208.690186 157.027902 
L 210.327965 156.534146 
L 211.848759 156.304294 
L 214.305427 156.236189 
L 225.184958 156.925745 
L 226.588768 156.508606 
L 229.045436 155.682842 
L 233.022899 154.065366 
L 236.298456 152.762871 
L 239.574014 151.451864 
L 242.849572 150.14937 
L 246.125129 148.838363 
L 249.400687 147.535868 
L 252.676244 146.224861 
L 255.951802 144.922367 
L 259.227359 143.61136 
L 262.502917 142.308865 
L 265.778474 140.997858 
L 269.054032 139.695364 
L 272.329589 138.384357 
L 275.605147 137.081863 
L 278.880704 135.770855 
L 282.156262 134.468361 
L 285.431819 133.157354 
L 288.824361 131.812294 
L 292.099919 130.501287 
L 295.375476 129.198793 
L 298.651034 127.887786 
L 301.926591 126.585291 
L 305.202149 125.274284 
L 308.477706 123.97179 
L 311.753264 122.660783 
L 315.028822 121.358288 
L 318.304379 120.047281 
L 321.579937 118.744787 
L 324.855494 117.43378 
L 328.131052 116.131285 
L 331.406609 114.820278 
L 334.682167 113.517784 
L 337.957724 112.206777 
L 341.233282 110.904282 
L 344.508839 109.593275 
L 347.784397 108.290781 
L 351.059954 106.979774 
L 354.335512 105.677279 
L 357.611069 104.366272 
L 360.886627 103.063778 
L 364.162185 101.752771 
L 367.437742 100.450276 
L 370.7133 99.139269 
L 373.988857 97.836775 
L 377.264415 96.525768 
L 380.539972 95.223273 
L 383.81553 93.912266 
L 387.091087 92.609772 
L 390.366645 91.298765 
L 393.642202 89.99627 
L 396.91776 88.685263 
L 400.193317 87.382769 
L 403.468875 86.071762 
L 406.744433 84.769267 
L 410.01999 83.45826 
L 413.295548 82.155766 
L 416.571105 80.844759 
L 419.846663 79.542265 
L 423.12222 78.231257 
L 426.397778 76.928763 
L 429.673335 75.617756 
L 433.065877 74.272696 
L 436.341435 72.961689 
L 439.616992 71.659195 
L 442.658581 70.450344 
L 444.764297 69.79484 
L 448.975728 68.986102 
L 451.900333 68.67112 
L 456.228748 68.466807 
L 467.108279 68.577476 
L 469.564947 68.645581 
L 473.893362 68.75625 
L 476.35003 68.824354 
L 480.678445 68.935024 
L 483.018129 68.994615 
L 488.165434 69.105285 
L 490.27115 69.14785 
L 497.056233 69.258519 
L 498.109091 69.275545 
L 498.109091 69.275545 
" style="fill:none;stroke:#ff0000;stroke-linecap:square;stroke-width:1.5;"/>
   </g>
   <g id="line2d_36">
    <path clip-path="url(#p5e7aeda303)" d="M 92.290909 369.36 
L 93.226783 369.257844 
L 93.577735 368.781114 
L 94.396625 367.069994 
L 96.50234 362.736859 
L 118.495369 321.355 
L 122.589816 313.676243 
L 138.616651 283.582668 
L 142.594114 276.116737 
L 158.269997 246.687178 
L 162.364444 239.008421 
L 178.391279 208.914845 
L 182.368741 201.448914 
L 198.044624 172.019355 
L 202.022087 164.553424 
L 204.478755 160.118133 
L 205.531612 158.756048 
L 206.467486 157.828127 
L 207.520344 157.044928 
L 208.573202 156.466041 
L 210.093996 155.921207 
L 212.082728 155.589199 
L 214.071459 155.546634 
L 225.53591 156.287268 
L 229.630357 155.291243 
L 232.905915 153.988748 
L 236.181472 152.677741 
L 239.45703 151.375247 
L 242.732587 150.06424 
L 246.008145 148.761745 
L 249.283702 147.450738 
L 252.55926 146.148244 
L 255.834817 144.837237 
L 259.110375 143.534742 
L 262.385933 142.223735 
L 265.778474 140.878676 
L 269.054032 139.567668 
L 272.329589 138.265174 
L 275.605147 136.954167 
L 278.880704 135.651673 
L 282.156262 134.340666 
L 285.431819 133.038171 
L 288.707377 131.727164 
L 291.982935 130.42467 
L 295.258492 129.113663 
L 298.53405 127.811168 
L 301.809607 126.500161 
L 305.085165 125.197667 
L 308.360722 123.88666 
L 311.63628 122.584165 
L 314.911837 121.273158 
L 318.187395 119.970664 
L 321.462952 118.659657 
L 324.73851 117.357162 
L 328.014067 116.046155 
L 331.289625 114.743661 
L 334.565183 113.432654 
L 337.84074 112.130159 
L 341.116298 110.819152 
L 344.391855 109.516658 
L 347.667413 108.205651 
L 350.94297 106.903156 
L 354.218528 105.592149 
L 357.494085 104.289655 
L 360.769643 102.978648 
L 364.0452 101.676153 
L 367.320758 100.365146 
L 370.596315 99.062652 
L 373.871873 97.751645 
L 377.14743 96.44915 
L 380.422988 95.138143 
L 383.698546 93.835649 
L 386.974103 92.524642 
L 390.249661 91.222147 
L 393.525218 89.91114 
L 396.800776 88.608646 
L 400.076333 87.297639 
L 403.351891 85.995144 
L 406.627448 84.684137 
L 410.01999 83.339078 
L 413.295548 82.02807 
L 416.571105 80.725576 
L 419.846663 79.414569 
L 423.12222 78.112075 
L 426.397778 76.801068 
L 429.673335 75.498573 
L 432.948893 74.187566 
L 436.22445 72.885072 
L 439.500008 71.574065 
L 446.168107 69.258519 
L 449.32668 68.679633 
L 452.251285 68.364651 
L 456.345732 68.177364 
L 466.055421 68.288033 
L 468.629073 68.364651 
L 472.489552 68.47532 
L 475.297172 68.568963 
L 479.157651 68.679633 
L 481.731303 68.75625 
L 486.176703 68.86692 
L 488.516387 68.926511 
L 494.131628 69.03718 
L 496.237344 69.079746 
L 498.109091 69.105285 
L 498.109091 69.105285 
" style="fill:none;stroke:#008000;stroke-linecap:square;stroke-width:1.5;"/>
   </g>
   <g id="line2d_37">
    <path clip-path="url(#p5e7aeda303)" d="M 92.290909 369.36 
L 93.460751 369.257844 
L 93.811704 368.976913 
L 94.27964 368.185201 
L 100.94774 355.322007 
L 119.314259 320.801653 
L 123.291721 313.335722 
L 138.967604 283.906163 
L 143.062051 276.227406 
L 159.088886 246.13383 
L 163.066349 238.667899 
L 178.742231 209.23834 
L 182.719694 201.772409 
L 198.395576 172.34285 
L 202.490023 164.664093 
L 204.010818 161.965461 
L 204.829707 161.012002 
L 205.999549 159.964898 
L 207.052407 159.24129 
L 208.573202 158.48363 
L 210.444949 157.913257 
L 212.199712 157.64084 
L 213.603522 157.547197 
L 215.241301 157.538684 
L 218.867811 157.649353 
L 224.950989 157.981361 
L 227.524642 156.610763 
L 231.970041 154.788974 
L 235.362583 153.443914 
L 238.63814 152.132907 
L 241.913698 150.830413 
L 245.189255 149.519405 
L 248.464813 148.216911 
L 251.740371 146.905904 
L 255.015928 145.60341 
L 258.291486 144.292402 
L 261.567043 142.989908 
L 264.842601 141.678901 
L 268.118158 140.376407 
L 271.393716 139.065399 
L 274.669273 137.762905 
L 277.944831 136.451898 
L 281.220388 135.149404 
L 284.495946 133.838396 
L 287.771503 132.535902 
L 291.047061 131.224895 
L 294.322619 129.922401 
L 297.598176 128.611394 
L 300.873734 127.308899 
L 304.149291 125.997892 
L 307.424849 124.695398 
L 310.700406 123.384391 
L 314.092948 122.039331 
L 317.368505 120.728324 
L 320.644063 119.42583 
L 323.919621 118.114822 
L 327.195178 116.812328 
L 330.470736 115.501321 
L 333.746293 114.198827 
L 337.021851 112.887819 
L 340.297408 111.585325 
L 343.572966 110.274318 
L 346.848523 108.971824 
L 350.124081 107.660816 
L 353.399638 106.358322 
L 356.675196 105.047315 
L 359.950753 103.744821 
L 363.226311 102.433813 
L 366.501868 101.131319 
L 369.777426 99.820312 
L 373.052984 98.517818 
L 376.328541 97.20681 
L 379.604099 95.904316 
L 382.879656 94.593309 
L 386.155214 93.290815 
L 389.430771 91.979807 
L 392.706329 90.677313 
L 395.981886 89.366306 
L 399.257444 88.063812 
L 402.533001 86.752804 
L 405.808559 85.45031 
L 409.084116 84.139303 
L 412.359674 82.836809 
L 415.635232 81.525801 
L 418.910789 80.223307 
L 422.186347 78.9123 
L 425.461904 77.609806 
L 428.737462 76.298798 
L 432.013019 74.996304 
L 435.288577 73.685297 
L 438.564134 72.382803 
L 441.839692 71.071796 
L 445.349218 69.90551 
L 447.220965 69.471345 
L 449.677633 69.045693 
L 452.719222 68.713685 
L 457.164622 68.500859 
L 468.161136 68.611529 
L 470.50082 68.67112 
L 474.829236 68.781789 
L 477.285904 68.849894 
L 481.614319 68.960563 
L 483.954003 69.020154 
L 489.218292 69.130824 
L 491.324007 69.173389 
L 498.109091 69.284058 
L 498.109091 69.284058 
" style="fill:none;stroke:#0000ff;stroke-linecap:square;stroke-width:1.5;"/>
   </g>
   <g id="line2d_38">
    <path clip-path="url(#p5e7aeda303)" d="M 92.290909 369.36 
L 93.694719 369.291896 
L 94.162656 368.985426 
L 94.864561 368.134123 
L 95.917419 366.431516 
L 98.491072 361.715295 
L 114.283938 332.064397 
L 118.378385 324.38564 
L 134.522204 294.070726 
L 138.616651 286.391969 
L 154.643486 256.298393 
L 158.620949 248.832462 
L 174.296832 219.402903 
L 178.391279 211.724146 
L 194.418114 181.63057 
L 198.395576 174.164639 
L 204.478755 162.867843 
L 205.882565 160.824715 
L 206.935423 159.598838 
L 208.105265 158.534709 
L 209.626059 157.547197 
L 211.02987 156.942771 
L 212.199712 156.619276 
L 213.837491 156.372398 
L 216.177174 156.312807 
L 225.067973 156.857641 
L 226.822736 156.619276 
L 228.928452 156.21065 
L 233.139883 154.567635 
L 236.298456 153.307706 
L 239.574014 152.005211 
L 242.849572 150.694204 
L 246.125129 149.39171 
L 249.400687 148.080703 
L 252.676244 146.778208 
L 255.951802 145.467201 
L 259.344343 144.122142 
L 262.619901 142.811135 
L 265.895458 141.50864 
L 269.171016 140.197633 
L 272.446574 138.895139 
L 275.722131 137.584132 
L 278.997689 136.281637 
L 282.273246 134.97063 
L 285.548804 133.668136 
L 288.824361 132.357129 
L 292.099919 131.054634 
L 295.375476 129.743627 
L 298.651034 128.441133 
L 301.926591 127.130126 
L 305.202149 125.827631 
L 308.477706 124.516624 
L 311.753264 123.21413 
L 315.028822 121.903123 
L 318.304379 120.600628 
L 321.579937 119.289621 
L 324.855494 117.987127 
L 328.131052 116.67612 
L 331.406609 115.373625 
L 334.682167 114.062618 
L 337.957724 112.760124 
L 341.233282 111.449117 
L 344.508839 110.146622 
L 347.784397 108.835615 
L 351.059954 107.533121 
L 354.335512 106.222114 
L 357.611069 104.919619 
L 360.886627 103.608612 
L 364.162185 102.306118 
L 367.437742 100.995111 
L 370.7133 99.692616 
L 373.988857 98.381609 
L 377.264415 97.079115 
L 380.539972 95.768108 
L 383.81553 94.465613 
L 387.091087 93.154606 
L 390.366645 91.852112 
L 393.642202 90.541105 
L 396.91776 89.23861 
L 400.193317 87.927603 
L 403.585859 86.582544 
L 406.861417 85.271537 
L 410.136974 83.969042 
L 413.412532 82.658035 
L 416.688089 81.355541 
L 419.963647 80.044534 
L 423.239204 78.742039 
L 426.514762 77.431032 
L 429.790319 76.128538 
L 433.065877 74.817531 
L 436.341435 73.515036 
L 439.616992 72.204029 
L 442.89255 70.901535 
L 444.647313 70.254544 
L 446.636044 69.641606 
L 448.741759 69.139337 
L 454.824938 68.364651 
L 458.217479 68.228442 
L 467.927168 68.339112 
L 470.383836 68.407216 
L 474.244315 68.517885 
L 476.934951 68.603016 
L 480.79543 68.713685 
L 483.369082 68.790302 
L 487.814482 68.900972 
L 490.154165 68.960563 
L 496.003375 69.071232 
L 498.109091 69.113798 
L 498.109091 69.113798 
" style="fill:none;stroke:#000000;stroke-linecap:square;stroke-width:1.5;"/>
   </g>
   <g id="line2d_39">
    <path clip-path="url(#p5e7aeda303)" d="M 92.290909 369.36 
L 92.641862 369.36 
L 92.87583 368.815166 
L 94.27964 363.656267 
L 95.215514 361.434365 
L 96.736309 358.480342 
L 101.883613 348.886153 
L 118.027433 318.571238 
L 122.12188 310.892481 
L 138.148715 280.798905 
L 142.126177 273.332974 
L 157.80206 243.903415 
L 161.779523 236.437484 
L 177.455405 207.007925 
L 181.549852 199.329168 
L 197.576687 169.235593 
L 201.55415 161.769662 
L 204.829707 155.776486 
L 205.765581 154.508043 
L 206.701454 153.57161 
L 207.637328 152.890567 
L 208.80717 152.320194 
L 210.561933 151.920081 
L 211.731775 151.86049 
L 213.837491 151.971159 
L 216.645111 152.286142 
L 226.120831 153.57161 
L 229.98131 152.89908 
L 236.649409 151.332682 
L 239.924967 150.021674 
L 243.200524 148.71918 
L 246.476082 147.408173 
L 249.751639 146.105679 
L 253.027197 144.794671 
L 256.302754 143.492177 
L 259.578312 142.18117 
L 262.853869 140.878676 
L 266.129427 139.567668 
L 269.404984 138.265174 
L 272.680542 136.954167 
L 275.956099 135.651673 
L 279.231657 134.340666 
L 282.507215 133.038171 
L 285.782772 131.727164 
L 289.05833 130.42467 
L 292.333887 129.113663 
L 295.609445 127.811168 
L 298.885002 126.500161 
L 302.16056 125.197667 
L 305.436117 123.88666 
L 308.711675 122.584165 
L 311.987232 121.273158 
L 315.26279 119.970664 
L 318.538347 118.659657 
L 321.813905 117.357162 
L 325.089463 116.046155 
L 328.36502 114.743661 
L 331.640578 113.432654 
L 334.916135 112.130159 
L 338.191693 110.819152 
L 341.584234 109.474093 
L 344.859792 108.163085 
L 348.135349 106.860591 
L 351.410907 105.549584 
L 354.686465 104.24709 
L 357.962022 102.936082 
L 361.23758 101.633588 
L 364.513137 100.322581 
L 367.788695 99.020087 
L 371.064252 97.709079 
L 374.33981 96.406585 
L 377.615367 95.095578 
L 380.890925 93.793084 
L 384.166482 92.482076 
L 387.44204 91.179582 
L 390.717597 89.868575 
L 393.993155 88.566081 
L 397.268712 87.255073 
L 400.54427 85.952579 
L 403.819828 84.641572 
L 407.095385 83.339078 
L 410.370943 82.02807 
L 413.6465 80.725576 
L 416.922058 79.414569 
L 420.197615 78.112075 
L 423.473173 76.801068 
L 426.74873 75.498573 
L 430.024288 74.187566 
L 433.299845 72.885072 
L 436.575403 71.574065 
L 439.85096 70.27157 
L 443.009534 69.011641 
L 445.583186 68.185877 
L 449.209696 67.504834 
L 451.54938 67.274982 
L 454.824938 67.147287 
L 461.727005 67.257956 
L 464.885579 67.377139 
L 467.6932 67.487808 
L 471.670662 67.666582 
L 474.361299 67.777251 
L 478.221777 67.947512 
L 481.146382 68.058181 
L 484.187971 68.168851 
L 487.697497 68.27952 
L 490.27115 68.356138 
L 494.716549 68.466807 
L 496.939249 68.517885 
L 498.109091 68.543424 
L 498.109091 68.543424 
" style="fill:none;stroke:#bfbf00;stroke-linecap:square;stroke-width:1.5;"/>
   </g>
   <g id="line2d_40">
    <path clip-path="url(#p5e7aeda303)" d="M 92.290909 369.36 
L 92.87583 369.249331 
L 93.109798 368.576801 
L 94.630593 362.472955 
L 95.449482 360.497931 
L 96.970277 357.543909 
L 107.264886 338.295938 
L 111.242349 330.830007 
L 126.918232 301.400448 
L 130.895694 293.934517 
L 146.571577 264.504958 
L 150.666024 256.826201 
L 166.692859 226.732625 
L 170.670322 219.266694 
L 186.346204 189.837135 
L 190.440651 182.158378 
L 204.478755 155.827564 
L 205.531612 154.193061 
L 206.701454 152.907593 
L 207.754312 152.132907 
L 208.80717 151.630638 
L 209.977012 151.307143 
L 211.497807 151.179447 
L 216.645111 151.66469 
L 223.079242 152.711793 
L 225.067973 153.035289 
L 226.237815 153.09488 
L 227.875594 152.865028 
L 230.449247 152.379785 
L 236.181472 151.239038 
L 237.000362 151.017699 
L 240.392903 149.67264 
L 243.668461 148.361633 
L 246.944018 147.059139 
L 250.219576 145.748131 
L 253.495134 144.445637 
L 256.770691 143.13463 
L 260.046249 141.832136 
L 263.321806 140.521128 
L 266.597364 139.218634 
L 269.872921 137.907627 
L 273.148479 136.605133 
L 276.424036 135.294125 
L 279.699594 133.991631 
L 282.975151 132.680624 
L 286.250709 131.37813 
L 289.526266 130.067122 
L 292.801824 128.764628 
L 296.077381 127.453621 
L 299.352939 126.151127 
L 302.628497 124.840119 
L 305.904054 123.537625 
L 309.179612 122.226618 
L 312.455169 120.924124 
L 315.730727 119.613116 
L 319.006284 118.310622 
L 322.281842 116.999615 
L 325.557399 115.697121 
L 328.832957 114.386113 
L 332.108514 113.083619 
L 335.384072 111.772612 
L 338.659629 110.470118 
L 341.935187 109.15911 
L 345.210745 107.856616 
L 348.486302 106.545609 
L 351.76186 105.243115 
L 355.037417 103.932107 
L 358.312975 102.629613 
L 361.588532 101.318606 
L 364.981074 99.973547 
L 368.256631 98.662539 
L 371.532189 97.360045 
L 374.807747 96.049038 
L 378.083304 94.746544 
L 381.358862 93.435536 
L 384.634419 92.133042 
L 387.909977 90.822035 
L 391.185534 89.519541 
L 394.461092 88.208533 
L 397.736649 86.906039 
L 401.012207 85.595032 
L 404.287764 84.292538 
L 407.563322 82.98153 
L 410.838879 81.679036 
L 414.114437 80.368029 
L 417.389994 79.065535 
L 420.665552 77.754527 
L 423.94111 76.452033 
L 427.216667 75.141026 
L 430.492225 73.838532 
L 433.767782 72.527524 
L 437.04334 71.22503 
L 440.318897 69.914023 
L 446.51906 67.768738 
L 449.092712 67.317547 
L 455.526843 66.96 
L 461.142084 67.070669 
L 464.417642 67.198365 
L 467.108279 67.309034 
L 471.436694 67.513347 
L 473.893362 67.624017 
L 477.870825 67.80279 
L 480.678445 67.91346 
L 484.070987 68.049668 
L 487.463529 68.160338 
L 490.154165 68.245468 
L 494.482581 68.356138 
L 496.705281 68.407216 
L 498.109091 68.441268 
L 498.109091 68.441268 
" style="fill:none;stroke:#bf00bf;stroke-linecap:square;stroke-width:1.5;"/>
   </g>
   <g id="line2d_41">
    <path clip-path="url(#p5e7aeda303)" d="M 92.290909 369.36 
L 92.87583 369.283383 
L 93.226783 368.934348 
L 94.045672 367.546724 
L 99.543929 357.314057 
L 118.378385 321.908348 
L 122.472832 314.229591 
L 138.499667 284.136015 
L 142.47713 276.670084 
L 158.153012 247.240525 
L 162.130475 239.774594 
L 177.806358 210.345035 
L 181.900805 202.666278 
L 197.92764 172.572702 
L 201.905102 165.106771 
L 204.946691 159.556273 
L 206.116533 157.938796 
L 207.286375 156.721432 
L 208.456217 155.84459 
L 209.509075 155.28273 
L 210.795901 154.831539 
L 212.667649 154.533583 
L 214.539396 154.508043 
L 216.645111 154.618713 
L 221.558448 155.08693 
L 224.717021 155.435964 
L 226.237815 155.435964 
L 229.747341 154.814513 
L 232.437978 154.116444 
L 235.83052 152.771384 
L 239.106077 151.460377 
L 242.381635 150.157883 
L 245.657192 148.846876 
L 248.93275 147.544382 
L 252.208307 146.233374 
L 255.483865 144.93088 
L 258.759422 143.619873 
L 262.151964 142.274813 
L 265.427522 140.963806 
L 268.703079 139.661312 
L 271.978637 138.350305 
L 275.254194 137.04781 
L 278.529752 135.736803 
L 281.805309 134.434309 
L 285.080867 133.123302 
L 288.356424 131.820807 
L 291.631982 130.5098 
L 294.90754 129.207306 
L 298.183097 127.896299 
L 301.458655 126.593804 
L 304.734212 125.282797 
L 308.00977 123.980303 
L 311.285327 122.669296 
L 314.560885 121.366801 
L 317.836442 120.055794 
L 321.112 118.7533 
L 324.387557 117.442293 
L 327.663115 116.139798 
L 330.938672 114.828791 
L 334.21423 113.526297 
L 337.489787 112.21529 
L 340.765345 110.912795 
L 344.040903 109.601788 
L 347.31646 108.299294 
L 350.592018 106.988287 
L 353.867575 105.685792 
L 357.143133 104.374785 
L 360.41869 103.072291 
L 363.694248 101.761284 
L 366.969805 100.458789 
L 370.245363 99.147782 
L 373.52092 97.845288 
L 376.796478 96.534281 
L 380.072035 95.231786 
L 383.347593 93.920779 
L 386.623151 92.618285 
L 389.898708 91.307278 
L 393.174266 90.004784 
L 396.449823 88.693776 
L 399.725381 87.391282 
L 403.000938 86.080275 
L 406.39348 84.735215 
L 409.669037 83.424208 
L 412.944595 82.121714 
L 416.220153 80.810707 
L 419.49571 79.508212 
L 422.771268 78.197205 
L 426.046825 76.894711 
L 429.322383 75.583704 
L 432.59794 74.281209 
L 435.873498 72.970202 
L 439.149055 71.667708 
L 442.424613 70.356701 
L 446.285091 69.054206 
L 450.496522 68.245468 
L 457.749543 67.828329 
L 465.002563 67.938999 
L 467.6932 68.024129 
L 471.202725 68.134799 
L 474.361299 68.253981 
L 477.753841 68.364651 
L 480.678445 68.466807 
L 484.42194 68.577476 
L 486.995592 68.654094 
L 491.440992 68.764763 
L 493.663691 68.815841 
L 498.109091 68.900972 
L 498.109091 68.900972 
" style="fill:none;stroke:#00bfbf;stroke-linecap:square;stroke-width:1.5;"/>
   </g>
   <g id="line2d_42">
    <path clip-path="url(#p5e7aeda303)" d="M 92.290909 369.36 
L 93.226783 369.266357 
L 93.694719 368.942861 
L 94.27964 368.278845 
L 95.09853 367.052968 
L 96.50234 364.609727 
L 102.117582 354.164234 
L 119.548227 321.414592 
L 123.52569 313.948661 
L 139.201572 284.519101 
L 143.296019 276.840345 
L 159.439839 246.52543 
L 163.534285 238.846673 
L 179.561121 208.753097 
L 183.538583 201.287166 
L 199.214466 171.857607 
L 203.308913 164.17885 
L 205.297644 160.620402 
L 206.350502 159.113595 
L 207.520344 157.811101 
L 208.690186 156.832102 
L 210.093996 156.023364 
L 211.497807 155.512581 
L 213.603522 155.163547 
L 215.475269 155.138008 
L 217.814953 155.248677 
L 224.366068 155.836077 
L 225.769879 155.946746 
L 227.875594 155.691355 
L 232.20401 154.635739 
L 235.713535 153.248114 
L 238.989093 151.937107 
L 242.264651 150.634613 
L 245.540208 149.323606 
L 248.815766 148.021111 
L 252.091323 146.710104 
L 255.366881 145.40761 
L 258.642438 144.096603 
L 261.917996 142.794108 
L 265.193553 141.483101 
L 268.469111 140.180607 
L 271.744668 138.8696 
L 275.020226 137.567105 
L 278.295783 136.256098 
L 281.571341 134.953604 
L 284.846899 133.642597 
L 288.122456 132.340102 
L 291.398014 131.029095 
L 294.790555 129.684036 
L 298.066113 128.373029 
L 301.34167 127.070534 
L 304.617228 125.759527 
L 307.892785 124.457033 
L 311.168343 123.146026 
L 314.443901 121.843531 
L 317.719458 120.532524 
L 320.995016 119.23003 
L 324.270573 117.919023 
L 327.546131 116.616528 
L 330.821688 115.305521 
L 334.097246 114.003027 
L 337.372803 112.69202 
L 340.648361 111.389525 
L 343.923918 110.078518 
L 347.199476 108.776024 
L 350.475033 107.465017 
L 353.750591 106.162522 
L 357.026148 104.851515 
L 360.301706 103.549021 
L 363.577264 102.238014 
L 366.852821 100.935519 
L 370.128379 99.624512 
L 373.403936 98.322018 
L 376.679494 97.011011 
L 379.955051 95.708516 
L 383.230609 94.397509 
L 386.506166 93.095015 
L 389.781724 91.784008 
L 393.057281 90.481513 
L 396.332839 89.170506 
L 399.608396 87.868012 
L 402.883954 86.557005 
L 406.159512 85.25451 
L 409.435069 83.943503 
L 412.710627 82.641009 
L 415.986184 81.330002 
L 419.261742 80.027507 
L 422.537299 78.7165 
L 425.812857 77.414006 
L 429.088414 76.102999 
L 432.363972 74.800504 
L 435.639529 73.489497 
L 439.032071 72.144438 
L 442.307629 70.833431 
L 447.103981 69.198928 
L 448.858744 68.798815 
L 450.964459 68.449781 
L 453.889064 68.134799 
L 457.632559 67.973051 
L 466.640342 68.083721 
L 469.330978 68.168851 
L 472.957488 68.27952 
L 475.882093 68.381677 
L 479.391619 68.492346 
L 482.19924 68.58599 
L 486.176703 68.696659 
L 488.633371 68.764763 
L 493.546707 68.875433 
L 495.769407 68.926511 
L 498.109091 68.969076 
L 498.109091 68.969076 
" style="fill:none;stroke:#ff0000;stroke-linecap:square;stroke-width:1.5;"/>
   </g>
   <g id="line2d_43">
    <path clip-path="url(#p5e7aeda303)" d="M 92.290909 369.36 
L 93.694719 369.249331 
L 94.162656 368.934348 
L 94.747577 368.270332 
L 95.566467 367.035942 
L 96.853293 364.788501 
L 102.234566 354.768659 
L 119.782196 321.797678 
L 123.876642 314.118921 
L 139.903478 284.025345 
L 143.88094 276.559414 
L 159.556823 247.129855 
L 163.534285 239.663924 
L 179.210168 210.234365 
L 183.304615 202.555608 
L 199.33145 172.462033 
L 203.308913 164.996102 
L 205.18066 161.667505 
L 206.350502 159.981924 
L 207.40336 158.764561 
L 208.924154 157.470579 
L 210.327965 156.670354 
L 211.848759 156.12552 
L 213.135585 155.861616 
L 214.773364 155.725407 
L 218.516858 155.836077 
L 226.471784 156.312807 
L 227.875594 156.108494 
L 231.151152 155.291243 
L 234.777662 153.861053 
L 237.936235 152.601124 
L 241.211793 151.29863 
L 244.48735 149.987622 
L 247.762908 148.685128 
L 251.038465 147.374121 
L 254.314023 146.071627 
L 257.58958 144.760619 
L 260.865138 143.458125 
L 264.140696 142.147118 
L 267.416253 140.844624 
L 270.691811 139.533616 
L 273.967368 138.231122 
L 277.242926 136.920115 
L 280.518483 135.617621 
L 283.794041 134.306613 
L 287.069598 133.004119 
L 290.345156 131.693112 
L 293.620713 130.390618 
L 296.896271 129.07961 
L 300.171828 127.777116 
L 303.447386 126.466109 
L 306.722943 125.163615 
L 309.998501 123.852607 
L 313.274059 122.550113 
L 316.549616 121.239106 
L 319.825174 119.936612 
L 323.100731 118.625604 
L 326.376289 117.32311 
L 329.651846 116.012103 
L 332.927404 114.709609 
L 336.202961 113.398601 
L 339.478519 112.096107 
L 342.754076 110.7851 
L 346.029634 109.482606 
L 349.305191 108.171598 
L 352.697733 106.826539 
L 355.973291 105.515532 
L 359.248848 104.213038 
L 362.524406 102.90203 
L 365.799963 101.599536 
L 369.075521 100.288529 
L 372.351078 98.986035 
L 375.626636 97.675027 
L 378.902193 96.372533 
L 382.177751 95.061526 
L 385.453309 93.759032 
L 388.728866 92.448024 
L 392.004424 91.14553 
L 395.279981 89.834523 
L 398.555539 88.532029 
L 401.831096 87.221021 
L 405.106654 85.918527 
L 408.382211 84.60752 
L 411.657769 83.305026 
L 414.933326 81.994018 
L 418.208884 80.691524 
L 421.484441 79.380517 
L 424.759999 78.078023 
L 428.035556 76.767015 
L 431.311114 75.464521 
L 434.586672 74.153514 
L 437.862229 72.85102 
L 441.137787 71.540012 
L 447.688902 69.267032 
L 451.315412 68.58599 
L 454.123033 68.288033 
L 458.217479 68.100747 
L 467.459231 68.211416 
L 470.032883 68.288033 
L 473.776378 68.398703 
L 476.583999 68.492346 
L 480.210509 68.603016 
L 482.901145 68.688146 
L 487.229561 68.798815 
L 489.686229 68.86692 
L 495.067502 68.977589 
L 497.173217 69.020154 
L 498.109091 69.03718 
L 498.109091 69.03718 
" style="fill:none;stroke:#008000;stroke-linecap:square;stroke-width:1.5;"/>
   </g>
   <g id="line2d_44">
    <path clip-path="url(#p5e7aeda303)" d="M 92.290909 369.36 
L 93.928688 369.266357 
L 94.513609 368.849218 
L 95.332498 367.810628 
L 96.619324 365.65683 
L 98.959008 361.349235 
L 103.287424 353.244826 
L 120.367117 321.1592 
L 124.461563 313.480444 
L 140.488399 283.386868 
L 144.465861 275.920937 
L 160.141744 246.491378 
L 164.119206 239.025447 
L 179.795089 209.595888 
L 183.889536 201.917131 
L 199.916371 171.823555 
L 205.999549 160.943897 
L 207.169391 159.513708 
L 208.222249 158.500656 
L 209.626059 157.504631 
L 210.912886 156.874667 
L 212.550664 156.389424 
L 214.071459 156.159572 
L 216.411143 156.099981 
L 219.101779 156.21065 
L 226.120831 156.619276 
L 227.641626 156.397937 
L 229.630357 156.014851 
L 233.841788 154.371835 
L 237.000362 153.111906 
L 240.275919 151.809412 
L 243.551477 150.498404 
L 246.827034 149.19591 
L 250.102592 147.884903 
L 253.378149 146.582409 
L 256.653707 145.271401 
L 260.046249 143.926342 
L 263.321806 142.615335 
L 266.597364 141.31284 
L 269.872921 140.001833 
L 273.148479 138.699339 
L 276.424036 137.388332 
L 279.699594 136.085838 
L 282.975151 134.77483 
L 286.250709 133.472336 
L 289.526266 132.161329 
L 292.801824 130.858835 
L 296.077381 129.547827 
L 299.352939 128.245333 
L 302.628497 126.934326 
L 305.904054 125.631832 
L 309.179612 124.320824 
L 312.455169 123.01833 
L 315.730727 121.707323 
L 319.006284 120.404829 
L 322.281842 119.093821 
L 325.557399 117.791327 
L 328.832957 116.48032 
L 332.108514 115.177826 
L 335.384072 113.866818 
L 338.659629 112.564324 
L 341.935187 111.253317 
L 345.210745 109.950823 
L 348.486302 108.639815 
L 351.76186 107.337321 
L 355.037417 106.026314 
L 358.312975 104.72382 
L 361.588532 103.412812 
L 364.86409 102.110318 
L 368.139647 100.799311 
L 371.415205 99.496817 
L 374.690762 98.185809 
L 377.96632 96.883315 
L 381.241877 95.572308 
L 384.517435 94.269814 
L 387.792992 92.958806 
L 391.06855 91.656312 
L 394.344108 90.345305 
L 397.619665 89.042811 
L 400.895223 87.731803 
L 404.287764 86.386744 
L 407.563322 85.075737 
L 410.838879 83.773242 
L 414.114437 82.462235 
L 417.389994 81.159741 
L 420.665552 79.848734 
L 423.94111 78.54624 
L 427.216667 77.235232 
L 430.492225 75.932738 
L 433.767782 74.621731 
L 437.04334 73.319237 
L 440.318897 72.008229 
L 444.062392 70.535474 
L 445.466202 70.041718 
L 447.103981 69.556475 
L 449.092712 69.088259 
L 451.432396 68.679633 
L 459.972242 68.168851 
L 467.459231 68.27952 
L 469.915899 68.347625 
L 473.776378 68.458294 
L 476.467014 68.543424 
L 480.210509 68.654094 
L 482.784161 68.730711 
L 486.995592 68.841381 
L 489.335276 68.900972 
L 494.599565 69.011641 
L 496.705281 69.054206 
L 498.109091 69.079746 
L 498.109091 69.079746 
" style="fill:none;stroke:#0000ff;stroke-linecap:square;stroke-width:1.5;"/>
   </g>
   <g id="line2d_45">
    <path clip-path="url(#p5e7aeda303)" d="M 92.290909 369.36 
L 93.694719 369.249331 
L 94.27964 368.840705 
L 94.864561 368.168175 
L 95.917419 366.533673 
L 98.842024 361.213026 
L 114.985843 330.898112 
L 118.963306 323.432181 
L 134.639189 294.002621 
L 138.733636 286.323865 
L 154.760471 256.230289 
L 158.737933 248.764358 
L 174.413816 219.334799 
L 178.508263 211.656042 
L 194.652082 181.341127 
L 198.746529 173.66237 
L 204.946691 162.161261 
L 205.999549 160.58635 
L 207.052407 159.292369 
L 208.222249 158.168648 
L 209.509075 157.266267 
L 210.795901 156.636302 
L 212.43368 156.151059 
L 213.954475 155.92972 
L 216.177174 155.878642 
L 225.886863 156.474554 
L 227.641626 156.244702 
L 230.917183 155.418938 
L 234.660678 153.946183 
L 237.936235 152.635176 
L 241.211793 151.332682 
L 244.370366 150.072753 
L 247.645924 148.770258 
L 250.921481 147.459251 
L 254.197039 146.156757 
L 257.472596 144.84575 
L 260.748154 143.543255 
L 264.023711 142.232248 
L 267.299269 140.929754 
L 270.574826 139.618747 
L 273.850384 138.316252 
L 277.125941 137.005245 
L 280.401499 135.702751 
L 283.677057 134.391744 
L 286.952614 133.089249 
L 290.228172 131.778242 
L 293.503729 130.475748 
L 296.779287 129.164741 
L 300.054844 127.862246 
L 303.330402 126.551239 
L 306.605959 125.248745 
L 309.881517 123.937738 
L 313.157074 122.635244 
L 316.432632 121.324236 
L 319.708189 120.021742 
L 322.983747 118.710735 
L 326.259304 117.408241 
L 329.534862 116.097233 
L 332.81042 114.794739 
L 336.085977 113.483732 
L 339.361535 112.181238 
L 342.637092 110.87023 
L 345.91265 109.567736 
L 349.188207 108.256729 
L 352.463765 106.954235 
L 355.739322 105.643227 
L 359.01488 104.340733 
L 362.290437 103.029726 
L 365.565995 101.727232 
L 368.841552 100.416224 
L 372.11711 99.11373 
L 375.392668 97.802723 
L 378.668225 96.500229 
L 381.943783 95.189221 
L 385.21934 93.886727 
L 388.494898 92.57572 
L 391.887439 91.23066 
L 395.162997 89.919653 
L 398.438554 88.617159 
L 401.714112 87.306152 
L 404.98967 86.003657 
L 408.265227 84.69265 
L 411.540785 83.390156 
L 414.816342 82.079149 
L 418.0919 80.776654 
L 421.367457 79.465647 
L 424.643015 78.163153 
L 427.918572 76.852146 
L 431.19413 75.549651 
L 434.469687 74.238644 
L 437.745245 72.93615 
L 441.020802 71.625143 
L 447.688902 69.309597 
L 451.315412 68.628555 
L 454.240017 68.313572 
L 458.217479 68.134799 
L 467.6932 68.245468 
L 470.266852 68.322085 
L 474.010346 68.432755 
L 476.700983 68.517885 
L 480.327493 68.628555 
L 482.901145 68.705172 
L 486.995592 68.815841 
L 489.335276 68.875433 
L 494.599565 68.986102 
L 496.705281 69.028667 
L 498.109091 69.054206 
L 498.109091 69.054206 
" style="fill:none;stroke:#000000;stroke-linecap:square;stroke-width:1.5;"/>
   </g>
   <g id="line2d_46">
    <path clip-path="url(#p5e7aeda303)" d="M 92.290909 369.36 
L 93.226783 369.266357 
L 93.694719 368.942861 
L 94.396625 368.134123 
L 95.449482 366.499621 
L 97.32123 363.153998 
L 102.35155 353.772634 
L 119.782196 321.022992 
L 123.759658 313.557061 
L 139.435541 284.127502 
L 143.529988 276.448745 
L 159.556823 246.355169 
L 163.534285 238.889238 
L 179.210168 209.459679 
L 183.304615 201.780922 
L 199.448434 171.466008 
L 203.542881 163.787251 
L 205.297644 160.679993 
L 206.350502 159.181699 
L 207.520344 157.887718 
L 208.690186 156.917232 
L 209.743044 156.278755 
L 211.02987 155.73392 
L 212.784633 155.333808 
L 214.422411 155.206112 
L 217.697969 155.316782 
L 224.834005 155.946746 
L 225.886863 155.997824 
L 227.75861 155.759459 
L 232.087025 154.703843 
L 235.128614 153.494992 
L 238.404172 152.192498 
L 241.67973 150.881491 
L 244.955287 149.578997 
L 248.230845 148.267989 
L 251.506402 146.965495 
L 254.78196 145.654488 
L 258.057517 144.351994 
L 261.333075 143.040986 
L 264.725616 141.695927 
L 268.001174 140.38492 
L 271.276732 139.082426 
L 274.552289 137.771418 
L 277.827847 136.468924 
L 281.103404 135.157917 
L 284.378962 133.855423 
L 287.654519 132.544415 
L 290.930077 131.241921 
L 294.205634 129.930914 
L 297.481192 128.62842 
L 300.756749 127.317412 
L 304.032307 126.014918 
L 307.307864 124.703911 
L 310.583422 123.401417 
L 313.85898 122.090409 
L 317.134537 120.787915 
L 320.410095 119.476908 
L 323.685652 118.174414 
L 326.96121 116.863406 
L 330.236767 115.560912 
L 333.512325 114.249905 
L 336.787882 112.947411 
L 340.06344 111.636403 
L 343.338997 110.333909 
L 346.614555 109.022902 
L 349.890112 107.720408 
L 353.16567 106.4094 
L 356.441227 105.106906 
L 359.716785 103.795899 
L 362.992343 102.493405 
L 366.2679 101.182397 
L 369.543458 99.879903 
L 372.819015 98.568896 
L 376.094573 97.266402 
L 379.37013 95.955394 
L 382.645688 94.6529 
L 385.921245 93.341893 
L 389.196803 92.039399 
L 392.47236 90.728391 
L 395.747918 89.425897 
L 399.023475 88.11489 
L 402.299033 86.812396 
L 405.574591 85.501388 
L 408.967132 84.156329 
L 412.24269 82.845322 
L 415.518247 81.542828 
L 418.793805 80.23182 
L 422.069362 78.929326 
L 425.34492 77.618319 
L 428.620477 76.315825 
L 431.896035 75.004817 
L 435.171593 73.702323 
L 438.44715 72.391316 
L 441.722708 71.088822 
L 444.29636 70.084284 
L 446.636044 69.34365 
L 448.741759 68.841381 
L 450.964459 68.466807 
L 453.889064 68.151825 
L 457.632559 67.990077 
L 466.757326 68.100747 
L 469.447962 68.185877 
L 473.074473 68.296546 
L 475.999078 68.398703 
L 479.508603 68.509372 
L 482.19924 68.594503 
L 486.059719 68.705172 
L 488.516387 68.773276 
L 493.429723 68.883946 
L 495.652423 68.935024 
L 498.109091 68.977589 
L 498.109091 68.977589 
" style="fill:none;stroke:#bfbf00;stroke-linecap:square;stroke-width:1.5;"/>
   </g>
   <g id="line2d_47">
    <path clip-path="url(#p5e7aeda303)" d="M 92.290909 369.36 
L 498.109091 369.36 
L 498.109091 369.36 
" style="fill:none;stroke:#bf00bf;stroke-linecap:square;stroke-width:1.5;"/>
   </g>
   <g id="line2d_48">
    <path clip-path="url(#p5e7aeda303)" d="M 92.290909 369.36 
L 498.109091 369.36 
L 498.109091 369.36 
" style="fill:none;stroke:#00bfbf;stroke-linecap:square;stroke-width:1.5;"/>
   </g>
   <g id="patch_3">
    <path d="M 72 384.48 
L 72 51.84 
" style="fill:none;stroke:#000000;stroke-linecap:square;stroke-linejoin:miter;stroke-width:0.8;"/>
   </g>
   <g id="patch_4">
    <path d="M 518.4 384.48 
L 518.4 51.84 
" style="fill:none;stroke:#000000;stroke-linecap:square;stroke-linejoin:miter;stroke-width:0.8;"/>
   </g>
   <g id="patch_5">
    <path d="M 72 384.48 
L 518.4 384.48 
" style="fill:none;stroke:#000000;stroke-linecap:square;stroke-linejoin:miter;stroke-width:0.8;"/>
   </g>
   <g id="patch_6">
    <path d="M 72 51.84 
L 518.4 51.84 
" style="fill:none;stroke:#000000;stroke-linecap:square;stroke-linejoin:miter;stroke-width:0.8;"/>
   </g>
   <g id="text_19">
    <!-- $\mu^{P_{\mathrm{max}}}_{m}$ -->
    <g transform="translate(279.66 45.84)scale(0.14 -0.14)">
     <use transform="translate(0 0.684375)" xlink:href="#DejaVuSans-Oblique-3bc"/>
     <use transform="translate(68.089193 38.965625)scale(0.7)" xlink:href="#DejaVuSans-Oblique-50"/>
     <use transform="translate(110.301107 27.48125)scale(0.49)" xlink:href="#DejaVuSans-6d"/>
     <use transform="translate(158.03304 27.48125)scale(0.49)" xlink:href="#DejaVuSans-61"/>
     <use transform="translate(188.059896 27.48125)scale(0.49)" xlink:href="#DejaVuSans-78"/>
     <use transform="translate(63.623047 -26.659375)scale(0.7)" xlink:href="#DejaVuSans-Oblique-6d"/>
    </g>
   </g>
  </g>
 </g>
 <defs>
  <clipPath id="p5e7aeda303">
   <rect height="332.64" width="446.4" x="72" y="51.84"/>
  </clipPath>
 </defs>
</svg>
