<?xml version="1.0" encoding="utf-8" standalone="no"?>
<!DOCTYPE svg PUBLIC "-//W3C//DTD SVG 1.1//EN"
  "http://www.w3.org/Graphics/SVG/1.1/DTD/svg11.dtd">
<!-- Created with matplotlib (http://matplotlib.org/) -->
<svg height="432pt" version="1.1" viewBox="0 0 576 432" width="576pt" xmlns="http://www.w3.org/2000/svg" xmlns:xlink="http://www.w3.org/1999/xlink">
 <defs>
  <style type="text/css">
*{stroke-linecap:butt;stroke-linejoin:round;}
  </style>
 </defs>
 <g id="figure_1">
  <g id="patch_1">
   <path d="M 0 432 
L 576 432 
L 576 0 
L 0 0 
z
" style="fill:#ffffff;"/>
  </g>
  <g id="axes_1">
   <g id="patch_2">
    <path d="M 72 384.48 
L 518.4 384.48 
L 518.4 51.84 
L 72 51.84 
z
" style="fill:#ffffff;"/>
   </g>
   <g id="matplotlib.axis_1">
    <g id="xtick_1">
     <g id="line2d_1">
      <path clip-path="url(#pd0bdf88c5a)" d="M 92.290909 384.48 
L 92.290909 51.84 
" style="fill:none;stroke:#b0b0b0;stroke-dasharray:5.12,1.28,0.8,1.28;stroke-dashoffset:0;stroke-width:0.8;"/>
     </g>
     <g id="line2d_2">
      <defs>
       <path d="M 0 0 
L 0 3.5 
" id="md55c337a7c" style="stroke:#000000;stroke-width:0.8;"/>
      </defs>
      <g>
       <use style="stroke:#000000;stroke-width:0.8;" x="92.290909" xlink:href="#md55c337a7c" y="384.48"/>
      </g>
     </g>
     <g id="text_1">
      <!-- $0$ -->
      <defs>
       <path d="M 42 31.640625 
C 42 37.75 41.90625 48.125 37.703125 56.109375 
C 34 63.109375 28.09375 65.59375 22.90625 65.59375 
C 18.09375 65.59375 12 63.40625 8.203125 56.203125 
C 4.203125 48.71875 3.796875 39.4375 3.796875 31.640625 
C 3.796875 25.953125 3.90625 17.28125 7 9.671875 
C 11.296875 -0.609375 19 -2 22.90625 -2 
C 27.5 -2 34.5 -0.109375 38.59375 9.375 
C 41.59375 16.28125 42 24.359375 42 31.640625 
z
M 22.90625 -0.40625 
C 16.5 -0.40625 12.703125 5.078125 11.296875 12.6875 
C 10.203125 18.5625 10.203125 27.15625 10.203125 32.75 
C 10.203125 40.4375 10.203125 46.828125 11.5 52.921875 
C 13.40625 61.390625 19 64 22.90625 64 
C 27 64 32.296875 61.296875 34.203125 53.125 
C 35.5 47.4375 35.59375 40.734375 35.59375 32.75 
C 35.59375 26.25 35.59375 18.265625 34.40625 12.375 
C 32.296875 1.484375 26.40625 -0.40625 22.90625 -0.40625 
z
" id="CMR17-48"/>
      </defs>
      <g transform="translate(89.800241 398.398498)scale(0.1 -0.1)">
       <use transform="scale(0.996264)" xlink:href="#CMR17-48"/>
      </g>
     </g>
    </g>
    <g id="xtick_2">
     <g id="line2d_3">
      <path clip-path="url(#pd0bdf88c5a)" d="M 155.522162 384.48 
L 155.522162 51.84 
" style="fill:none;stroke:#b0b0b0;stroke-dasharray:5.12,1.28,0.8,1.28;stroke-dashoffset:0;stroke-width:0.8;"/>
     </g>
     <g id="line2d_4">
      <g>
       <use style="stroke:#000000;stroke-width:0.8;" x="155.522162" xlink:href="#md55c337a7c" y="384.48"/>
      </g>
     </g>
     <g id="text_2">
      <!-- $500$ -->
      <defs>
       <path d="M 11.40625 57.6875 
C 12.40625 57.28125 16.5 56 20.703125 56 
C 30 56 35.09375 61.109375 38 64.0625 
C 38 64.953125 38 65.5 37.40625 65.5 
C 37.296875 65.5 37.09375 65.5 36.296875 65.046875 
C 32.796875 63.40625 28.703125 62.078125 23.703125 62.078125 
C 20.703125 62.078125 16.203125 62.484375 11.296875 64.671875 
C 10.203125 65.171875 10 65.171875 9.90625 65.171875 
C 9.40625 65.171875 9.296875 65.0625 9.296875 63.078125 
L 9.296875 34.421875 
C 9.296875 32.640625 9.296875 32.140625 10.296875 32.140625 
C 10.796875 32.140625 11 32.34375 11.5 33.03125 
C 14.703125 37.515625 19.09375 39.40625 24.09375 39.40625 
C 27.59375 39.40625 35.09375 37.21875 35.09375 20.140625 
C 35.09375 16.953125 35.09375 11.171875 32.09375 6.578125 
C 29.59375 2.484375 25.703125 0.390625 21.40625 0.390625 
C 14.796875 0.390625 8.09375 5 6.296875 12.71875 
C 6.703125 12.609375 7.5 12.421875 7.90625 12.421875 
C 9.203125 12.421875 11.703125 13.125 11.703125 16.21875 
C 11.703125 18.90625 9.796875 20 7.90625 20 
C 5.59375 20 4.09375 18.59375 4.09375 15.796875 
C 4.09375 7.09375 11 -2 21.59375 -2 
C 31.90625 -2 41.703125 6.875 41.703125 19.75 
C 41.703125 31.71875 33.90625 41 24.203125 41 
C 19.09375 41 14.796875 39.109375 11.40625 35.53125 
z
" id="CMR17-53"/>
      </defs>
      <g transform="translate(148.050159 398.398498)scale(0.1 -0.1)">
       <use transform="scale(0.996264)" xlink:href="#CMR17-53"/>
       <use transform="translate(45.690477 0)scale(0.996264)" xlink:href="#CMR17-48"/>
       <use transform="translate(91.380954 0)scale(0.996264)" xlink:href="#CMR17-48"/>
      </g>
     </g>
    </g>
    <g id="xtick_3">
     <g id="line2d_5">
      <path clip-path="url(#pd0bdf88c5a)" d="M 218.753415 384.48 
L 218.753415 51.84 
" style="fill:none;stroke:#b0b0b0;stroke-dasharray:5.12,1.28,0.8,1.28;stroke-dashoffset:0;stroke-width:0.8;"/>
     </g>
     <g id="line2d_6">
      <g>
       <use style="stroke:#000000;stroke-width:0.8;" x="218.753415" xlink:href="#md55c337a7c" y="384.48"/>
      </g>
     </g>
     <g id="text_3">
      <!-- $1000$ -->
      <defs>
       <path d="M 26.59375 63.40625 
C 26.59375 65.5 26.5 65.5 25.09375 65.5 
C 21.203125 61.1875 15.296875 59.796875 9.703125 59.796875 
C 9.40625 59.796875 8.90625 59.796875 8.796875 59.5 
C 8.703125 59.296875 8.703125 59.09375 8.703125 57 
C 11.796875 57 17 57.59375 21 59.984375 
L 21 7.203125 
C 21 3.6875 20.796875 2.5 12.203125 2.5 
L 9.203125 2.5 
L 9.203125 0 
C 14 0 19 0 23.796875 0 
C 28.59375 0 33.59375 0 38.40625 0 
L 38.40625 2.5 
L 35.40625 2.5 
C 26.796875 2.5 26.59375 3.59375 26.59375 7.15625 
z
" id="CMR17-49"/>
      </defs>
      <g transform="translate(208.790745 398.398498)scale(0.1 -0.1)">
       <use transform="scale(0.996264)" xlink:href="#CMR17-49"/>
       <use transform="translate(45.690477 0)scale(0.996264)" xlink:href="#CMR17-48"/>
       <use transform="translate(91.380954 0)scale(0.996264)" xlink:href="#CMR17-48"/>
       <use transform="translate(137.071431 0)scale(0.996264)" xlink:href="#CMR17-48"/>
      </g>
     </g>
    </g>
    <g id="xtick_4">
     <g id="line2d_7">
      <path clip-path="url(#pd0bdf88c5a)" d="M 281.984668 384.48 
L 281.984668 51.84 
" style="fill:none;stroke:#b0b0b0;stroke-dasharray:5.12,1.28,0.8,1.28;stroke-dashoffset:0;stroke-width:0.8;"/>
     </g>
     <g id="line2d_8">
      <g>
       <use style="stroke:#000000;stroke-width:0.8;" x="281.984668" xlink:href="#md55c337a7c" y="384.48"/>
      </g>
     </g>
     <g id="text_4">
      <!-- $1500$ -->
      <g transform="translate(272.021998 398.398498)scale(0.1 -0.1)">
       <use transform="scale(0.996264)" xlink:href="#CMR17-49"/>
       <use transform="translate(45.690477 0)scale(0.996264)" xlink:href="#CMR17-53"/>
       <use transform="translate(91.380954 0)scale(0.996264)" xlink:href="#CMR17-48"/>
       <use transform="translate(137.071431 0)scale(0.996264)" xlink:href="#CMR17-48"/>
      </g>
     </g>
    </g>
    <g id="xtick_5">
     <g id="line2d_9">
      <path clip-path="url(#pd0bdf88c5a)" d="M 345.215921 384.48 
L 345.215921 51.84 
" style="fill:none;stroke:#b0b0b0;stroke-dasharray:5.12,1.28,0.8,1.28;stroke-dashoffset:0;stroke-width:0.8;"/>
     </g>
     <g id="line2d_10">
      <g>
       <use style="stroke:#000000;stroke-width:0.8;" x="345.215921" xlink:href="#md55c337a7c" y="384.48"/>
      </g>
     </g>
     <g id="text_5">
      <!-- $2000$ -->
      <defs>
       <path d="M 41.703125 15.453125 
L 39.90625 15.453125 
C 38.90625 8.375 38.09375 7.171875 37.703125 6.5625 
C 37.203125 5.765625 30 5.765625 28.59375 5.765625 
L 9.40625 5.765625 
C 13 9.671875 20 16.75 28.5 24.953125 
C 34.59375 30.734375 41.703125 37.53125 41.703125 47.421875 
C 41.703125 59.21875 32.296875 66 21.796875 66 
C 10.796875 66 4.09375 56.3125 4.09375 47.34375 
C 4.09375 43.4375 7 42.9375 8.203125 42.9375 
C 9.203125 42.9375 12.203125 43.546875 12.203125 47.03125 
C 12.203125 50.109375 9.59375 51 8.203125 51 
C 7.59375 51 7 50.90625 6.59375 50.703125 
C 8.5 59.21875 14.296875 63.40625 20.40625 63.40625 
C 29.09375 63.40625 34.796875 56.515625 34.796875 47.421875 
C 34.796875 38.734375 29.703125 31.25 24 24.75 
L 4.09375 2.28125 
L 4.09375 0 
L 39.296875 0 
z
" id="CMR17-50"/>
      </defs>
      <g transform="translate(335.253251 398.398498)scale(0.1 -0.1)">
       <use transform="scale(0.996264)" xlink:href="#CMR17-50"/>
       <use transform="translate(45.690477 0)scale(0.996264)" xlink:href="#CMR17-48"/>
       <use transform="translate(91.380954 0)scale(0.996264)" xlink:href="#CMR17-48"/>
       <use transform="translate(137.071431 0)scale(0.996264)" xlink:href="#CMR17-48"/>
      </g>
     </g>
    </g>
    <g id="xtick_6">
     <g id="line2d_11">
      <path clip-path="url(#pd0bdf88c5a)" d="M 408.447174 384.48 
L 408.447174 51.84 
" style="fill:none;stroke:#b0b0b0;stroke-dasharray:5.12,1.28,0.8,1.28;stroke-dashoffset:0;stroke-width:0.8;"/>
     </g>
     <g id="line2d_12">
      <g>
       <use style="stroke:#000000;stroke-width:0.8;" x="408.447174" xlink:href="#md55c337a7c" y="384.48"/>
      </g>
     </g>
     <g id="text_6">
      <!-- $2500$ -->
      <g transform="translate(398.484504 398.398498)scale(0.1 -0.1)">
       <use transform="scale(0.996264)" xlink:href="#CMR17-50"/>
       <use transform="translate(45.690477 0)scale(0.996264)" xlink:href="#CMR17-53"/>
       <use transform="translate(91.380954 0)scale(0.996264)" xlink:href="#CMR17-48"/>
       <use transform="translate(137.071431 0)scale(0.996264)" xlink:href="#CMR17-48"/>
      </g>
     </g>
    </g>
    <g id="xtick_7">
     <g id="line2d_13">
      <path clip-path="url(#pd0bdf88c5a)" d="M 471.678427 384.48 
L 471.678427 51.84 
" style="fill:none;stroke:#b0b0b0;stroke-dasharray:5.12,1.28,0.8,1.28;stroke-dashoffset:0;stroke-width:0.8;"/>
     </g>
     <g id="line2d_14">
      <g>
       <use style="stroke:#000000;stroke-width:0.8;" x="471.678427" xlink:href="#md55c337a7c" y="384.48"/>
      </g>
     </g>
     <g id="text_7">
      <!-- $3000$ -->
      <defs>
       <path d="M 22.09375 33.703125 
C 31 33.703125 34.90625 25.96875 34.90625 17.03125 
C 34.90625 5 28.5 0.390625 22.703125 0.390625 
C 17.40625 0.390625 8.796875 3.03125 6.09375 10.828125 
C 6.59375 10.625 7.09375 10.625 7.59375 10.625 
C 10 10.625 11.796875 12.21875 11.796875 14.8125 
C 11.796875 17.703125 9.59375 19 7.59375 19 
C 5.90625 19 3.296875 18.203125 3.296875 14.46875 
C 3.296875 5.234375 12.296875 -2 22.90625 -2 
C 34 -2 42.5 6.71875 42.5 16.953125 
C 42.5 26.671875 34.5 33.703125 25 34.796875 
C 32.59375 36.375 39.90625 43.0625 39.90625 52.015625 
C 39.90625 59.6875 32 65.296875 23 65.296875 
C 13.90625 65.296875 5.90625 59.828125 5.90625 52.015625 
C 5.90625 48.59375 8.5 48 9.796875 48 
C 11.90625 48 13.703125 49.296875 13.703125 51.890625 
C 13.703125 54.46875 11.90625 55.765625 9.796875 55.765625 
C 9.40625 55.765625 8.90625 55.765625 8.5 55.578125 
C 11.40625 61.859375 19.296875 63 22.796875 63 
C 26.296875 63 32.90625 61.328125 32.90625 51.875 
C 32.90625 49.109375 32.5 44.1875 29.09375 39.84375 
C 26.09375 36 22.703125 36 19.40625 35.6875 
C 18.90625 35.6875 16.59375 35.453125 16.203125 35.453125 
C 15.5 35.359375 15.09375 35.265625 15.09375 34.5 
C 15.09375 33.796875 15.203125 33.703125 17.203125 33.703125 
z
" id="CMR17-51"/>
      </defs>
      <g transform="translate(461.715757 398.398498)scale(0.1 -0.1)">
       <use transform="scale(0.996264)" xlink:href="#CMR17-51"/>
       <use transform="translate(45.690477 0)scale(0.996264)" xlink:href="#CMR17-48"/>
       <use transform="translate(91.380954 0)scale(0.996264)" xlink:href="#CMR17-48"/>
       <use transform="translate(137.071431 0)scale(0.996264)" xlink:href="#CMR17-48"/>
      </g>
     </g>
    </g>
    <g id="text_8">
     <!-- Iteration -->
     <defs>
      <path d="M 17.09375 69 
L 8.703125 69 
L 8.703125 0 
L 17.09375 0 
z
" id="CMSS17-73"/>
      <path d="M 16.703125 37 
L 29.703125 37 
L 29.703125 42.765625 
L 16.703125 42.765625 
L 16.703125 55 
L 9.59375 55 
L 9.59375 42.765625 
L 1.703125 42.765625 
L 1.703125 37 
L 9.40625 37 
L 9.40625 11.703125 
C 9.40625 6 10.703125 -1 17.296875 -1 
C 22.296875 -1 26.90625 0.390625 31.296875 2.6875 
L 29.703125 8.5625 
C 27.296875 6.46875 24.40625 5.265625 21.296875 5.265625 
C 16.90625 5.265625 16.703125 10.875 16.703125 13.375 
z
" id="CMSS17-116"/>
      <path d="M 39.09375 21.515625 
C 39.09375 24.84375 38.90625 31.296875 35.703125 36.640625 
C 32.203125 42.390625 26.5 44 22.203125 44 
C 11.796875 44 3 34.1875 3 21.484375 
C 3 9.09375 12.09375 -1 23.59375 -1 
C 28.09375 -1 33.59375 0.296875 38.59375 3.875 
C 38.59375 4.28125 38.40625 6.46875 38.296875 6.5625 
C 38.296875 6.765625 38 9.84375 38 10.25 
C 33.203125 6.359375 27.703125 5.078125 23.703125 5.078125 
C 17.296875 5.078125 10.40625 10.421875 10.09375 21.515625 
z
M 10.90625 27 
C 12.203125 32.5625 16.59375 37.828125 22.203125 37.828125 
C 23.703125 37.828125 30.703125 37.828125 32.5 27 
z
" id="CMSS17-101"/>
      <path d="M 14.90625 21.296875 
C 14.90625 30.703125 21.796875 37 30.59375 37 
L 30.59375 43.578125 
C 24.203125 43.578125 18.203125 40.390625 14.59375 35.203125 
L 14.59375 43.09375 
L 7.5 43.09375 
L 7.5 0 
L 14.90625 0 
z
" id="CMSS17-114"/>
      <path d="M 37.59375 27.984375 
C 37.59375 37.375 30.90625 43.875 21.90625 43.875 
C 17.5 43.875 12.703125 43.078125 7.203125 39.890625 
L 7.796875 33.359375 
C 10.296875 35.125 14.59375 38 21.796875 38 
C 26.90625 38 30 34.0625 30 27.84375 
L 30 24 
C 14 24 4 19.34375 4 11.34375 
C 4 7.203125 6.5 -1 14.796875 -1 
C 16.296875 -1 24.40625 -1 30.203125 3.390625 
L 30.203125 -0.296875 
L 37.59375 -0.296875 
z
M 30 12.75 
C 30 10.953125 30 8.5625 27 6.78125 
C 24.40625 5.078125 21.09375 5.078125 19.703125 5.078125 
C 14.703125 5.078125 11.296875 7.984375 11.296875 11.625 
C 11.296875 18.921875 26.90625 18.921875 30 18.921875 
z
" id="CMSS17-97"/>
      <path d="M 15.296875 65.359375 
L 6.90625 65.359375 
L 6.90625 57 
L 15.296875 57 
z
M 14.796875 42.796875 
L 7.40625 42.796875 
L 7.40625 0 
L 14.796875 0 
z
" id="CMSS17-105"/>
      <path d="M 44.203125 21.1875 
C 44.203125 34 34.703125 44 23.5 44 
C 12 44 2.703125 33.703125 2.703125 21.1875 
C 2.703125 8.5 12.296875 -1 23.40625 -1 
C 34.796875 -1 44.203125 8.796875 44.203125 21.1875 
z
M 23.5 5.265625 
C 16.40625 5.265625 10.296875 11.078125 10.296875 22 
C 10.296875 33.609375 17.40625 37.921875 23.40625 37.921875 
C 29.90625 37.921875 36.59375 33.21875 36.59375 22 
C 36.59375 10.671875 30.09375 5.265625 23.5 5.265625 
z
" id="CMSS17-111"/>
      <path d="M 40.90625 29.328125 
C 40.90625 35.671875 39.40625 44 28.09375 44 
C 21.703125 44 17.5 40.71875 14.703125 37.328125 
L 14.703125 43.09375 
L 7.40625 43.09375 
L 7.40625 0 
L 15 0 
L 15 24.359375 
C 15 30.6875 17.40625 37.9375 24.203125 37.9375 
C 33 37.9375 33.296875 32 33.296875 28.578125 
L 33.296875 0 
L 40.90625 0 
z
" id="CMSS17-110"/>
     </defs>
     <g transform="translate(271.264003 414.021553)scale(0.14 -0.14)">
      <use transform="scale(0.996264)" xlink:href="#CMSS17-73"/>
      <use transform="translate(25.783926 0)scale(0.996264)" xlink:href="#CMSS17-116"/>
      <use transform="translate(59.615492 0)scale(0.996264)" xlink:href="#CMSS17-101"/>
      <use transform="translate(101.254314 0)scale(0.996264)" xlink:href="#CMSS17-114"/>
      <use transform="translate(133.164087 0)scale(0.996264)" xlink:href="#CMSS17-97"/>
      <use transform="translate(178.086007 0)scale(0.996264)" xlink:href="#CMSS17-116"/>
      <use transform="translate(211.917574 0)scale(0.996264)" xlink:href="#CMSS17-105"/>
      <use transform="translate(234.098297 0)scale(0.996264)" xlink:href="#CMSS17-111"/>
      <use transform="translate(280.941921 0)scale(0.996264)" xlink:href="#CMSS17-110"/>
     </g>
    </g>
   </g>
   <g id="matplotlib.axis_2">
    <g id="ytick_1">
     <g id="line2d_15">
      <path clip-path="url(#pd0bdf88c5a)" d="M 72 338.285602 
L 518.4 338.285602 
" style="fill:none;stroke:#b0b0b0;stroke-dasharray:5.12,1.28,0.8,1.28;stroke-dashoffset:0;stroke-width:0.8;"/>
     </g>
     <g id="line2d_16">
      <defs>
       <path d="M 0 0 
L -3.5 0 
" id="m2227ae862a" style="stroke:#000000;stroke-width:0.8;"/>
      </defs>
      <g>
       <use style="stroke:#000000;stroke-width:0.8;" x="72" xlink:href="#m2227ae862a" y="338.285602"/>
      </g>
     </g>
     <g id="text_9">
      <!-- $-1000$ -->
      <defs>
       <path d="M 65.90625 23 
C 67.59375 23 69.40625 23 69.40625 25 
C 69.40625 27 67.59375 27 65.90625 27 
L 11.796875 27 
C 10.09375 27 8.296875 27 8.296875 25 
C 8.296875 23 10.09375 23 11.796875 23 
z
" id="CMSY10-0"/>
      </defs>
      <g transform="translate(37.325915 341.744851)scale(0.1 -0.1)">
       <use transform="scale(0.996264)" xlink:href="#CMSY10-0"/>
       <use transform="translate(77.487468 0)scale(0.996264)" xlink:href="#CMR17-49"/>
       <use transform="translate(123.177945 0)scale(0.996264)" xlink:href="#CMR17-48"/>
       <use transform="translate(168.868422 0)scale(0.996264)" xlink:href="#CMR17-48"/>
       <use transform="translate(214.558899 0)scale(0.996264)" xlink:href="#CMR17-48"/>
      </g>
     </g>
    </g>
    <g id="ytick_2">
     <g id="line2d_17">
      <path clip-path="url(#pd0bdf88c5a)" d="M 72 291.404451 
L 518.4 291.404451 
" style="fill:none;stroke:#b0b0b0;stroke-dasharray:5.12,1.28,0.8,1.28;stroke-dashoffset:0;stroke-width:0.8;"/>
     </g>
     <g id="line2d_18">
      <g>
       <use style="stroke:#000000;stroke-width:0.8;" x="72" xlink:href="#m2227ae862a" y="291.404451"/>
      </g>
     </g>
     <g id="text_10">
      <!-- $-800$ -->
      <defs>
       <path d="M 27.203125 35.375 
C 33.5 38.546875 39.90625 43.328125 39.90625 50.984375 
C 39.90625 60.015625 31.09375 65.296875 23 65.296875 
C 13.90625 65.296875 5.90625 58.734375 5.90625 49.6875 
C 5.90625 47.203125 6.5 42.921875 10.40625 39.140625 
C 11.40625 38.15625 15.59375 35.171875 18.296875 33.28125 
C 13.796875 30.984375 3.296875 25.53125 3.296875 14.59375 
C 3.296875 4.359375 13.09375 -2 22.796875 -2 
C 33.5 -2 42.5 5.65625 42.5 15.78125 
C 42.5 24.84375 36.40625 29.015625 32.40625 31.703125 
z
M 14.09375 44.09375 
C 13.296875 44.59375 9.296875 47.671875 9.296875 52.359375 
C 9.296875 58.421875 15.59375 63 22.796875 63 
C 30.703125 63 36.5 57.4375 36.5 50.96875 
C 36.5 41.703125 26.09375 36.421875 25.59375 36.421875 
C 25.5 36.421875 25.40625 36.421875 24.59375 37.03125 
z
M 32.5 23.734375 
C 34 22.640625 38.796875 19.375 38.796875 13.296875 
C 38.796875 5.953125 31.40625 0.390625 23 0.390625 
C 13.90625 0.390625 7 6.84375 7 14.6875 
C 7 22.546875 13.09375 29.09375 20 32.1875 
z
" id="CMR17-56"/>
      </defs>
      <g transform="translate(42.307251 294.8637)scale(0.1 -0.1)">
       <use transform="scale(0.996264)" xlink:href="#CMSY10-0"/>
       <use transform="translate(77.487468 0)scale(0.996264)" xlink:href="#CMR17-56"/>
       <use transform="translate(123.177945 0)scale(0.996264)" xlink:href="#CMR17-48"/>
       <use transform="translate(168.868422 0)scale(0.996264)" xlink:href="#CMR17-48"/>
      </g>
     </g>
    </g>
    <g id="ytick_3">
     <g id="line2d_19">
      <path clip-path="url(#pd0bdf88c5a)" d="M 72 244.523299 
L 518.4 244.523299 
" style="fill:none;stroke:#b0b0b0;stroke-dasharray:5.12,1.28,0.8,1.28;stroke-dashoffset:0;stroke-width:0.8;"/>
     </g>
     <g id="line2d_20">
      <g>
       <use style="stroke:#000000;stroke-width:0.8;" x="72" xlink:href="#m2227ae862a" y="244.523299"/>
      </g>
     </g>
     <g id="text_11">
      <!-- $-600$ -->
      <defs>
       <path d="M 10.59375 34 
C 10.59375 57.65625 21.796875 63 28.296875 63 
C 30.40625 63 35.5 62.640625 37.5 59 
C 35.90625 59 32.90625 59 32.90625 55.515625 
C 32.90625 52.828125 35.09375 51.921875 36.5 51.921875 
C 37.40625 51.921875 40.09375 52.3125 40.09375 55.625 
C 40.09375 61.78125 35.09375 65.296875 28.203125 65.296875 
C 16.296875 65.296875 3.796875 52.96875 3.796875 31 
C 3.796875 3.953125 15.09375 -2 23.09375 -2 
C 32.796875 -2 42 6.671875 42 20.046875 
C 42 32.515625 33.90625 41.59375 23.703125 41.59375 
C 17.59375 41.59375 13.09375 37.609375 10.59375 30.625 
z
M 23.09375 0.390625 
C 10.796875 0.390625 10.796875 18.75 10.796875 22.4375 
C 10.796875 29.625 14.203125 40 23.5 40 
C 25.203125 40 30.09375 40 33.40625 33.125 
C 35.203125 29.21875 35.203125 25.140625 35.203125 20.140625 
C 35.203125 14.75 35.203125 10.78125 33.09375 6.78125 
C 30.90625 2.671875 27.703125 0.390625 23.09375 0.390625 
z
" id="CMR17-54"/>
      </defs>
      <g transform="translate(42.307251 247.982548)scale(0.1 -0.1)">
       <use transform="scale(0.996264)" xlink:href="#CMSY10-0"/>
       <use transform="translate(77.487468 0)scale(0.996264)" xlink:href="#CMR17-54"/>
       <use transform="translate(123.177945 0)scale(0.996264)" xlink:href="#CMR17-48"/>
       <use transform="translate(168.868422 0)scale(0.996264)" xlink:href="#CMR17-48"/>
      </g>
     </g>
    </g>
    <g id="ytick_4">
     <g id="line2d_21">
      <path clip-path="url(#pd0bdf88c5a)" d="M 72 197.642148 
L 518.4 197.642148 
" style="fill:none;stroke:#b0b0b0;stroke-dasharray:5.12,1.28,0.8,1.28;stroke-dashoffset:0;stroke-width:0.8;"/>
     </g>
     <g id="line2d_22">
      <g>
       <use style="stroke:#000000;stroke-width:0.8;" x="72" xlink:href="#m2227ae862a" y="197.642148"/>
      </g>
     </g>
     <g id="text_12">
      <!-- $-400$ -->
      <defs>
       <path d="M 33.59375 64.40625 
C 33.59375 66.5 33.5 66.5 31.703125 66.5 
L 2 19.59375 
L 2 17 
L 27.796875 17 
L 27.796875 7.140625 
C 27.796875 3.5 27.59375 2.5 20.59375 2.5 
L 18.703125 2.5 
L 18.703125 0 
C 21.90625 0 27.296875 0 30.703125 0 
C 34.09375 0 39.5 0 42.703125 0 
L 42.703125 2.5 
L 40.796875 2.5 
C 33.796875 2.5 33.59375 3.5 33.59375 7.140625 
L 33.59375 17 
L 43.796875 17 
L 43.796875 19.59375 
L 33.59375 19.59375 
z
M 28.09375 57.859375 
L 28.09375 19.59375 
L 4 19.59375 
z
" id="CMR17-52"/>
      </defs>
      <g transform="translate(42.307251 201.101397)scale(0.1 -0.1)">
       <use transform="scale(0.996264)" xlink:href="#CMSY10-0"/>
       <use transform="translate(77.487468 0)scale(0.996264)" xlink:href="#CMR17-52"/>
       <use transform="translate(123.177945 0)scale(0.996264)" xlink:href="#CMR17-48"/>
       <use transform="translate(168.868422 0)scale(0.996264)" xlink:href="#CMR17-48"/>
      </g>
     </g>
    </g>
    <g id="ytick_5">
     <g id="line2d_23">
      <path clip-path="url(#pd0bdf88c5a)" d="M 72 150.760996 
L 518.4 150.760996 
" style="fill:none;stroke:#b0b0b0;stroke-dasharray:5.12,1.28,0.8,1.28;stroke-dashoffset:0;stroke-width:0.8;"/>
     </g>
     <g id="line2d_24">
      <g>
       <use style="stroke:#000000;stroke-width:0.8;" x="72" xlink:href="#m2227ae862a" y="150.760996"/>
      </g>
     </g>
     <g id="text_13">
      <!-- $-200$ -->
      <g transform="translate(42.307251 154.220245)scale(0.1 -0.1)">
       <use transform="scale(0.996264)" xlink:href="#CMSY10-0"/>
       <use transform="translate(77.487468 0)scale(0.996264)" xlink:href="#CMR17-50"/>
       <use transform="translate(123.177945 0)scale(0.996264)" xlink:href="#CMR17-48"/>
       <use transform="translate(168.868422 0)scale(0.996264)" xlink:href="#CMR17-48"/>
      </g>
     </g>
    </g>
    <g id="ytick_6">
     <g id="line2d_25">
      <path clip-path="url(#pd0bdf88c5a)" d="M 72 103.879844 
L 518.4 103.879844 
" style="fill:none;stroke:#b0b0b0;stroke-dasharray:5.12,1.28,0.8,1.28;stroke-dashoffset:0;stroke-width:0.8;"/>
     </g>
     <g id="line2d_26">
      <g>
       <use style="stroke:#000000;stroke-width:0.8;" x="72" xlink:href="#m2227ae862a" y="103.879844"/>
      </g>
     </g>
     <g id="text_14">
      <!-- $0$ -->
      <g transform="translate(60.018665 107.339094)scale(0.1 -0.1)">
       <use transform="scale(0.996264)" xlink:href="#CMR17-48"/>
      </g>
     </g>
    </g>
    <g id="ytick_7">
     <g id="line2d_27">
      <path clip-path="url(#pd0bdf88c5a)" d="M 72 56.998693 
L 518.4 56.998693 
" style="fill:none;stroke:#b0b0b0;stroke-dasharray:5.12,1.28,0.8,1.28;stroke-dashoffset:0;stroke-width:0.8;"/>
     </g>
     <g id="line2d_28">
      <g>
       <use style="stroke:#000000;stroke-width:0.8;" x="72" xlink:href="#m2227ae862a" y="56.998693"/>
      </g>
     </g>
     <g id="text_15">
      <!-- $200$ -->
      <g transform="translate(50.055994 60.457942)scale(0.1 -0.1)">
       <use transform="scale(0.996264)" xlink:href="#CMR17-50"/>
       <use transform="translate(45.690477 0)scale(0.996264)" xlink:href="#CMR17-48"/>
       <use transform="translate(91.380954 0)scale(0.996264)" xlink:href="#CMR17-48"/>
      </g>
     </g>
    </g>
    <g id="text_16">
     <!-- $\partial \mathcal{L}/ \partial u_{m}$ -->
     <defs>
      <path d="M 45.40625 33.515625 
C 44.796875 39.125 41.296875 45.859375 32.296875 45.859375 
C 18.203125 45.859375 3.796875 31.515625 3.796875 15.5625 
C 3.796875 9.4375 8 -2.09375 21.59375 -2.09375 
C 45.203125 -2.09375 55.296875 32.296875 55.296875 46 
C 55.296875 60.40625 47.203125 71.5 34.40625 71.5 
C 19.90625 71.5 15.59375 58.796875 15.59375 56.09375 
C 15.59375 55.203125 16.203125 53 19 53 
C 22.5 53 24 56.203125 24 57.90625 
C 24 61 20.90625 61 19.59375 61 
C 23.703125 68.40625 31.296875 69.09375 34 69.09375 
C 42.796875 69.09375 48.40625 62.109375 48.40625 50.96875 
C 48.40625 44.578125 46.5 37.1875 45.5 33.515625 
z
M 21.90625 0.59375 
C 12.5 0.59375 10.90625 8.03125 10.90625 12.25 
C 10.90625 16.65625 13.703125 27 15.203125 30.703125 
C 16.5 33.71875 22.203125 43.859375 32.59375 43.859375 
C 41.703125 43.859375 43.796875 35.921875 43.796875 30.515625 
C 43.796875 23.078125 37.296875 0.59375 21.90625 0.59375 
z
" id="CMMI12-64"/>
      <path d="M 18 9.53125 
C 23.40625 17.984375 25.09375 24.40625 26.40625 29.734375 
C 29.90625 43.59375 33.703125 55.65625 39.90625 62.578125 
C 41.09375 63.90625 41.90625 64.796875 45.09375 64.796875 
C 52 64.796875 52.203125 57.875 52.203125 56.453125 
C 52.203125 54.65625 51.703125 53.234375 51.703125 52.734375 
C 51.703125 52.03125 52.296875 52.03125 52.40625 52.03125 
C 54 52.03125 56.703125 53.140625 59.203125 54.953125 
C 61 56.359375 61.90625 57.359375 61.90625 61.46875 
C 61.90625 66.890625 59.09375 71 53.5 71 
C 50.296875 71 41.5 70.203125 31.703125 60.25 
C 23.703125 52.015625 19 33.9375 17.09375 26.40625 
C 15.296875 19.5 14.5 16.375 11.5 10.34375 
C 10.796875 9.15625 8.203125 4.734375 6.796875 3.421875 
C 4.09375 0.921875 3.09375 -0.890625 3.09375 -1.390625 
C 3.09375 -1.59375 3.296875 -2 4 -2 
C 4.40625 -2 6.5 -1.59375 9.09375 0.078125 
C 10.796875 1.0625 11 1.25 13.296875 3.609375 
C 18.296875 3.609375 21.796875 2.703125 28.09375 0.90625 
C 33.203125 -0.5 38.296875 -2 43.40625 -2 
C 51.5 -2 59.703125 4.125 62.90625 8.53125 
C 64.90625 11.234375 65.5 13.75 65.5 14.046875 
C 65.5 14.75 64.90625 14.75 64.796875 14.75 
C 63.203125 14.75 60.796875 13.65625 59.09375 12.4375 
C 56.40625 10.734375 56.203125 10.140625 55.59375 8.421875 
C 55.09375 6.8125 54.5 6.015625 54.09375 5.40625 
C 53.296875 4.203125 53.203125 4.203125 51.703125 4.203125 
C 46.90625 4.203125 41.90625 5.71875 35.296875 7.515625 
C 32.5 8.3125 27 9.9375 22 9.9375 
C 20.703125 9.9375 19.296875 9.828125 18 9.53125 
z
" id="CMSY10-76"/>
      <path d="M 42.90625 71.28125 
C 42.90625 71.390625 43.5 72.90625 43.5 73.09375 
C 43.5 74.296875 42.5 75 41.703125 75 
C 41.203125 75 40.296875 75 39.5 72.796875 
L 6 -21.296875 
C 6 -21.40625 5.40625 -22.890625 5.40625 -23.09375 
C 5.40625 -24.296875 6.40625 -25 7.203125 -25 
C 7.796875 -25 8.703125 -24.890625 9.40625 -22.796875 
z
" id="CMMI12-61"/>
      <path d="M 34.09375 5.78125 
C 35.40625 0.203125 40.203125 -1 42.59375 -1 
C 45.796875 -1 48.203125 1.09375 49.796875 4.484375 
C 51.5 8.078125 52.796875 13.96875 52.796875 14.265625 
C 52.796875 14.765625 52.40625 15.171875 51.796875 15.171875 
C 50.90625 15.171875 50.796875 14.671875 50.40625 13.171875 
C 48.59375 6.28125 46.796875 1 42.796875 1 
C 39.796875 1 39.796875 4.296875 39.796875 5.59375 
C 39.796875 7.890625 40.09375 8.875 41.09375 13.078125 
C 41.796875 15.765625 42.5 18.453125 43.09375 21.25 
L 47.203125 37.515625 
C 47.90625 40.015625 47.90625 40.21875 47.90625 40.515625 
C 47.90625 42.015625 46.703125 43.015625 45.203125 43.015625 
C 42.296875 43.015625 41.59375 40.515625 41 38.015625 
C 40 34.125 34.59375 12.671875 33.90625 9.1875 
C 33.796875 9.1875 29.90625 1 22.59375 1 
C 17.40625 1 16.40625 5.484375 16.40625 9.1875 
C 16.40625 14.875 19.203125 22.84375 21.796875 29.53125 
C 23 32.734375 23.5 34.03125 23.5 36.015625 
C 23.5 40.3125 20.40625 44 15.59375 44 
C 6.40625 44 2.703125 29.53125 2.703125 28.734375 
C 2.703125 28.34375 3.09375 27.84375 3.796875 27.84375 
C 4.703125 27.84375 4.796875 28.234375 5.203125 29.625 
C 7.59375 38.140625 11.5 41.90625 15.296875 41.90625 
C 16.296875 41.90625 17.90625 41.90625 17.90625 38.71875 
C 17.90625 36.125 16.796875 33.234375 15.296875 29.4375 
C 10.90625 17.5625 10.40625 13.765625 10.40625 10.78125 
C 10.40625 0.59375 18.09375 -1 22.203125 -1 
C 28.59375 -1 32.09375 3.390625 34.09375 5.78125 
z
" id="CMMI12-117"/>
      <path d="M 20.59375 29.234375 
C 20.796875 29.84375 23.296875 34.828125 27 38.015625 
C 29.59375 40.40625 33 42.015625 36.90625 42.015625 
C 40.90625 42.015625 42.296875 39.015625 42.296875 35.03125 
C 42.296875 34.421875 42.296875 32.4375 41.09375 27.734375 
L 38.59375 17.46875 
C 37.796875 14.46875 35.90625 7.078125 35.703125 5.984375 
C 35.296875 4.484375 34.703125 1.890625 34.703125 1.5 
C 34.703125 0.09375 35.796875 -1 37.296875 -1 
C 40.296875 -1 40.796875 1.296875 41.703125 4.890625 
L 47.703125 28.734375 
C 47.90625 29.53125 53.09375 42.015625 64.09375 42.015625 
C 68.09375 42.015625 69.5 39.015625 69.5 35.03125 
C 69.5 29.4375 65.59375 18.5625 63.40625 12.578125 
C 62.5 10.171875 62 8.875 62 7.078125 
C 62 2.59375 65.09375 -1 69.90625 -1 
C 79.203125 -1 82.703125 13.671875 82.703125 14.265625 
C 82.703125 14.765625 82.296875 15.171875 81.703125 15.171875 
C 80.796875 15.171875 80.703125 14.875 80.203125 13.171875 
C 77.90625 5.1875 74.203125 1 70.203125 1 
C 69.203125 1 67.59375 1 67.59375 4.203125 
C 67.59375 6.8125 68.796875 10 69.203125 11.09375 
C 71 15.90625 75.5 27.703125 75.5 33.515625 
C 75.5 39.5 72 44 64.40625 44 
C 57.703125 44 52.296875 40.21875 48.296875 34.328125 
C 48 39.71875 44.703125 44 37.203125 44 
C 28.296875 44 23.59375 37.734375 21.796875 35.234375 
C 21.5 40.90625 17.40625 44 13 44 
C 10.09375 44 7.796875 42.609375 5.90625 38.8125 
C 4.09375 35.21875 2.703125 29.140625 2.703125 28.734375 
C 2.703125 28.34375 3.09375 27.84375 3.796875 27.84375 
C 4.59375 27.84375 4.703125 27.9375 5.296875 30.234375 
C 6.796875 36.125 8.703125 42.015625 12.703125 42.015625 
C 15 42.015625 15.796875 40.40625 15.796875 37.421875 
C 15.796875 35.21875 14.796875 31.328125 14.09375 28.234375 
L 11.296875 17.46875 
C 10.90625 15.5625 9.796875 11.078125 9.296875 9.28125 
C 8.59375 6.6875 7.5 2 7.5 1.5 
C 7.5 0.09375 8.59375 -1 10.09375 -1 
C 11.296875 -1 12.703125 -0.40625 13.5 1.09375 
C 13.703125 1.59375 14.59375 5.09375 15.09375 7.078125 
L 17.296875 16.0625 
z
" id="CMMI12-109"/>
     </defs>
     <g transform="translate(30.613887 242.659086)rotate(-90)scale(0.14 -0.14)">
      <use transform="translate(0 14.943915)scale(0.996264)" xlink:href="#CMMI12-64"/>
      <use transform="translate(56.915564 14.943915)scale(0.996264)" xlink:href="#CMSY10-76"/>
      <use transform="translate(125.630372 14.943915)scale(0.996264)" xlink:href="#CMMI12-61"/>
      <use transform="translate(174.405291 14.943915)scale(0.996264)" xlink:href="#CMMI12-64"/>
      <use transform="translate(231.320856 14.943915)scale(0.996264)" xlink:href="#CMMI12-117"/>
      <use transform="translate(286.841185 0)scale(0.697382)" xlink:href="#CMMI12-109"/>
     </g>
    </g>
   </g>
   <g id="line2d_29">
    <path clip-path="url(#pd0bdf88c5a)" d="M 92.290909 103.879844 
L 92.417372 103.879844 
L 92.543834 103.879844 
L 93.049684 119.224374 
L 93.429072 127.724231 
L 93.681997 130.41167 
L 93.934922 131.407449 
L 94.187847 95.151582 
L 94.440772 71.857416 
L 94.567234 72.912734 
L 94.946622 82.821839 
L 95.831859 94.3381 
L 96.970022 109.620512 
L 100.89036 158.055445 
L 102.660835 177.062236 
L 103.293147 183.196635 
L 103.546072 172.065127 
L 103.672535 170.853625 
L 103.92546 172.514085 
L 104.684235 179.604765 
L 106.707635 201.153569 
L 107.845797 211.136348 
L 107.97226 210.879861 
L 108.098722 209.344949 
L 108.225185 205.942643 
L 108.351647 209.673234 
L 108.857497 238.913383 
L 109.110422 241.813522 
L 109.236885 241.208544 
L 109.616272 236.533391 
L 110.50151 221.75017 
L 111.892598 198.773015 
L 113.03076 183.80902 
L 114.168923 171.92357 
L 115.307085 162.533533 
L 116.318785 155.878355 
L 117.330485 150.50915 
L 118.342185 146.182325 
L 119.480348 142.312731 
L 120.61851 139.280271 
L 121.756673 136.903771 
L 122.894836 135.040832 
L 124.032998 133.579945 
L 125.297623 132.32278 
L 126.688711 131.279487 
L 128.206261 130.442846 
L 129.850273 129.793542 
L 131.873673 129.249087 
L 134.276461 128.841432 
L 137.438024 128.539002 
L 142.117136 128.336124 
L 142.370061 128.373699 
L 142.496524 128.625568 
L 142.749449 130.125484 
L 143.128837 133.769368 
L 143.508224 139.827796 
L 144.266999 153.353383 
L 144.519924 155.260274 
L 144.646387 155.478365 
L 144.772849 155.201415 
L 145.025774 153.252753 
L 145.405162 147.526712 
L 146.796249 122.599535 
L 147.175637 119.328122 
L 147.555024 117.494037 
L 148.566724 113.719307 
L 149.072574 110.010329 
L 149.831349 102.099603 
L 150.969512 90.381823 
L 151.728287 84.813515 
L 154.257537 69.450842 
L 154.763387 67.748213 
L 155.142775 67.079899 
L 155.3957 66.96 
L 155.648625 67.109809 
L 155.90155 67.52902 
L 156.280937 68.641697 
L 156.786787 70.91984 
L 157.672025 76.331917 
L 158.93665 83.999001 
L 159.568962 86.439259 
L 159.94835 87.225245 
L 160.201275 87.445727 
L 160.4542 87.423529 
L 160.707125 87.166128 
L 161.086512 86.370273 
L 161.592362 84.657939 
L 162.4776 80.537297 
L 163.615762 75.2236 
L 164.248075 73.245567 
L 164.627463 72.582855 
L 165.00685 72.355505 
L 165.259775 72.448119 
L 165.639163 72.938261 
L 166.145013 74.176861 
L 166.777325 76.433509 
L 168.674263 83.81368 
L 169.180113 84.948954 
L 169.5595 85.403139 
L 169.938888 85.498026 
L 170.318275 85.240813 
L 170.697663 84.659838 
L 171.203513 83.465166 
L 172.08875 80.667369 
L 173.226913 77.126271 
L 173.859225 75.821311 
L 174.365075 75.302313 
L 174.744463 75.246267 
L 175.123851 75.470406 
L 175.629701 76.162958 
L 176.262013 77.521667 
L 178.411876 82.735883 
L 178.917726 83.356636 
L 179.297113 83.564015 
L 179.676501 83.544278 
L 180.055888 83.3072 
L 180.561738 82.693525 
L 181.320513 81.31304 
L 182.964526 78.081405 
L 183.596838 77.335924 
L 184.102688 77.075499 
L 184.482076 77.087009 
L 184.987926 77.363912 
L 185.620239 78.06284 
L 186.631939 79.649767 
L 187.770101 81.347661 
L 188.402414 81.940567 
L 188.908264 82.155658 
L 189.414114 82.127576 
L 189.919964 81.872402 
L 190.552276 81.295365 
L 191.943364 79.584625 
L 192.828601 78.686875 
L 193.460914 78.326241 
L 193.966764 78.243473 
L 194.599076 78.394618 
L 195.231389 78.785489 
L 196.369552 79.825383 
L 197.507714 80.79866 
L 198.266489 81.166888 
L 198.898802 81.238569 
L 199.531114 81.098722 
L 200.289889 80.706796 
L 202.945602 79.086958 
L 203.704377 78.986938 
L 204.463152 79.11436 
L 205.474852 79.547402 
L 207.498252 80.5102 
L 208.38349 80.663079 
L 209.268727 80.584764 
L 210.40689 80.228608 
L 212.556752 79.507623 
L 213.568452 79.434207 
L 214.706615 79.598455 
L 218.121103 80.326684 
L 219.385728 80.240961 
L 223.55899 79.691678 
L 225.329465 79.883469 
L 227.732253 80.136885 
L 229.502728 80.072611 
L 233.423066 79.825008 
L 236.964016 80.02573 
L 238.987416 80.023902 
L 239.240341 76.350974 
L 239.493266 88.40229 
L 239.872654 105.953679 
L 240.252041 112.555084 
L 241.137279 124.252987 
L 241.896054 134.064907 
L 242.528366 139.904165 
L 242.907754 141.758924 
L 243.160679 141.996588 
L 243.287141 141.787522 
L 243.540066 140.704051 
L 243.919454 137.498295 
L 244.425304 130.851087 
L 245.310541 117.644502 
L 245.689929 115.583607 
L 246.069316 111.713708 
L 246.448704 108.287821 
L 246.575166 107.962911 
L 246.701629 107.971303 
L 246.954554 108.75968 
L 247.586866 112.308208 
L 248.345642 118.06001 
L 249.736729 129.206894 
L 250.242579 131.324586 
L 250.495504 131.734328 
L 250.748429 131.69265 
L 251.001354 131.213197 
L 251.380742 129.753083 
L 251.886592 126.735648 
L 253.024754 119.346499 
L 253.783529 116.082493 
L 254.162917 115.150964 
L 254.542304 114.772 
L 254.795229 114.811404 
L 255.048154 115.061726 
L 255.427542 115.774085 
L 256.059854 117.587049 
L 257.450942 121.78467 
L 257.956792 122.561655 
L 258.336179 122.71723 
L 258.589105 122.608044 
L 258.968492 122.139326 
L 259.474342 121.02836 
L 260.35958 118.328662 
L 261.244817 115.81384 
L 261.750667 114.90744 
L 262.130055 114.576436 
L 262.509442 114.555269 
L 262.88883 114.820452 
L 263.39468 115.529482 
L 265.291617 118.755585 
L 265.671005 118.969106 
L 266.050392 118.942594 
L 266.42978 118.680388 
L 266.93563 118.013832 
L 267.820867 116.324962 
L 268.832567 114.489377 
L 269.338418 113.92378 
L 269.844268 113.685858 
L 270.223655 113.722917 
L 270.729505 114.018104 
L 271.48828 114.791222 
L 272.49998 115.812012 
L 273.00583 116.078484 
L 273.51168 116.099229 
L 274.01753 115.867285 
L 274.649843 115.281551 
L 276.799705 112.91778 
L 277.432018 112.691719 
L 278.06433 112.762322 
L 278.823105 113.124034 
L 280.214193 113.845605 
L 280.846506 113.920287 
L 281.478818 113.762297 
L 282.237593 113.310621 
L 284.387456 111.821183 
L 285.146231 111.660569 
L 285.905006 111.734313 
L 288.307793 112.207343 
L 288.813643 112.271383 
L 289.319493 112.784427 
L 289.951806 113.390741 
L 290.457656 113.562443 
L 290.837044 113.457078 
L 291.216431 113.140067 
L 291.469356 112.777582 
L 291.975206 111.53556 
L 292.228131 111.728874 
L 292.607519 111.998207 
L 292.860444 111.936323 
L 293.492756 111.392502 
L 295.136769 110.036816 
L 296.654319 109.01748 
L 298.171869 108.258661 
L 299.942344 107.62021 
L 302.345132 107.015795 
L 304.115607 106.78228 
L 310.565194 106.129343 
L 315.37077 105.587209 
L 322.705595 105.116686 
L 330.672733 104.719955 
L 346.101159 104.281124 
L 365.196997 104.041045 
L 397.065549 103.915216 
L 484.45114 103.880407 
L 498.109091 103.880126 
L 498.109091 103.880126 
" style="fill:none;stroke:#bf00bf;stroke-linecap:square;stroke-width:1.5;"/>
   </g>
   <g id="line2d_30">
    <path clip-path="url(#pd0bdf88c5a)" d="M 92.290909 103.879844 
L 92.417372 103.879844 
L 92.543834 103.879844 
L 93.302609 69.406423 
L 93.555534 67.719943 
L 93.681997 68.513876 
L 93.934922 72.368397 
L 94.314309 84.472009 
L 94.820159 101.416052 
L 95.326009 110.374548 
L 95.958322 116.695886 
L 97.096484 127.596292 
L 99.246347 151.999362 
L 101.775597 179.520848 
L 103.293147 194.305921 
L 103.798997 211.76554 
L 104.304847 221.434543 
L 104.810697 227.178679 
L 105.569472 233.086713 
L 106.707635 240.10093 
L 107.845797 245.84155 
L 107.97226 246.267395 
L 108.225185 244.000809 
L 108.604572 234.821245 
L 109.236885 219.350816 
L 109.869197 209.749791 
L 110.50151 203.511996 
L 111.260285 198.143893 
L 112.271985 192.598931 
L 113.410148 187.639866 
L 114.54831 183.704053 
L 115.686473 180.589433 
L 116.824635 178.131478 
L 117.962798 176.195099 
L 119.10096 174.671297 
L 120.365585 173.35668 
L 121.63021 172.350399 
L 123.021298 171.513875 
L 124.665311 170.795305 
L 126.562248 170.223495 
L 128.838573 169.779671 
L 131.747211 169.448128 
L 135.920474 169.216746 
L 142.243599 169.093284 
L 142.370061 169.188219 
L 142.749449 170.493531 
L 143.002374 172.243018 
L 143.634687 177.642437 
L 143.887612 178.242235 
L 144.014074 178.090152 
L 144.266999 176.940767 
L 144.646387 173.542282 
L 146.037474 158.993654 
L 146.416862 157.147709 
L 146.796249 156.147711 
L 147.807949 154.131259 
L 148.313799 152.078239 
L 149.072574 147.706033 
L 150.084274 141.973218 
L 150.843049 138.927373 
L 154.257537 127.254529 
L 155.016312 124.545572 
L 155.522162 123.329123 
L 155.90155 122.806234 
L 156.280937 122.63915 
L 156.533862 122.723536 
L 156.91325 123.125049 
L 157.4191 124.102521 
L 158.177875 126.204321 
L 159.568962 130.176701 
L 160.201275 131.282089 
L 160.580662 131.605662 
L 160.96005 131.653481 
L 161.339437 131.428475 
L 161.845287 130.740096 
L 162.4776 129.384363 
L 164.753925 123.875757 
L 165.259775 123.311027 
L 165.639163 123.15067 
L 166.01855 123.218296 
L 166.397938 123.500896 
L 166.903788 124.16635 
L 167.662563 125.592967 
L 169.180113 128.56263 
L 169.812425 129.305696 
L 170.318275 129.556581 
L 170.697663 129.532203 
L 171.203513 129.230194 
L 171.835825 128.488863 
L 172.847525 126.822589 
L 173.985688 125.055498 
L 174.618001 124.448668 
L 175.123851 124.238477 
L 175.629701 124.285499 
L 176.135551 124.571638 
L 176.767863 125.198814 
L 179.297113 128.127643 
L 179.929426 128.359494 
L 180.435276 128.318754 
L 181.067588 128.008425 
L 181.826363 127.351713 
L 183.849763 125.429657 
L 184.482076 125.146658 
L 185.114389 125.10545 
L 185.746701 125.296608 
L 186.505476 125.764951 
L 188.908264 127.452039 
L 189.667039 127.608786 
L 190.425814 127.500936 
L 191.311051 127.105494 
L 193.840301 125.773506 
L 194.599076 125.679486 
L 195.484314 125.818043 
L 196.622477 126.271642 
L 198.392952 126.996612 
L 199.278189 127.132216 
L 200.163427 127.064168 
L 201.428052 126.706582 
L 203.451452 126.113184 
L 204.463152 126.050504 
L 205.601314 126.200242 
L 209.015802 126.848069 
L 210.280427 126.76455 
L 214.45369 126.273494 
L 216.350627 126.473254 
L 218.626953 126.682954 
L 220.52389 126.603701 
L 224.06484 126.386876 
L 226.973478 126.543904 
L 229.629191 126.58237 
L 235.825853 126.495406 
L 238.987416 126.549178 
L 239.240341 128.919888 
L 239.366804 128.627514 
L 239.872654 121.820535 
L 239.999116 121.393025 
L 240.125579 121.401862 
L 240.378504 122.151773 
L 240.631429 123.537275 
L 243.160679 141.66617 
L 243.540066 142.565421 
L 243.792991 142.574797 
L 244.045916 142.114002 
L 244.425304 140.616407 
L 244.678229 139.113983 
L 245.057616 134.807879 
L 245.563466 130.907321 
L 246.195779 128.509842 
L 246.701629 127.379772 
L 247.207479 126.724209 
L 247.460404 126.730421 
L 247.713329 126.972726 
L 248.092717 127.690125 
L 248.598567 129.318706 
L 250.621967 136.864016 
L 251.001354 137.320615 
L 251.254279 137.356151 
L 251.507204 137.1818 
L 251.886592 136.561984 
L 252.392442 135.207354 
L 252.898292 132.841871 
L 253.657067 129.569684 
L 254.289379 127.659863 
L 254.795229 126.684196 
L 255.301079 126.192835 
L 255.680467 126.111848 
L 256.059854 126.2362 
L 256.565704 126.634479 
L 258.083254 128.067096 
L 258.589105 128.189339 
L 258.968492 128.080317 
L 259.474342 127.66291 
L 260.106655 126.77245 
L 262.256517 123.291313 
L 262.762367 122.92625 
L 263.268217 122.816431 
L 263.774067 122.924046 
L 264.659305 123.407696 
L 265.544542 123.843503 
L 266.176855 123.893572 
L 266.682705 123.71758 
L 267.315017 123.237189 
L 268.326717 122.082225 
L 269.46488 120.81913 
L 270.223655 120.313423 
L 270.855968 120.157519 
L 271.614743 120.226364 
L 273.51168 120.548368 
L 274.270455 120.345396 
L 275.02923 119.897798 
L 277.811405 117.98786 
L 278.696643 117.826565 
L 280.087731 117.880807 
L 281.225893 117.814939 
L 282.111131 117.541715 
L 283.375756 116.884676 
L 284.893306 116.128061 
L 285.905006 115.85983 
L 287.296093 115.750668 
L 288.687181 115.790915 
L 290.963506 117.050846 
L 291.342894 117.031601 
L 291.469356 116.887161 
L 291.848744 116.016132 
L 292.481056 114.923895 
L 293.113369 114.364134 
L 294.883844 113.185753 
L 296.654319 112.322366 
L 299.310031 111.291426 
L 303.483294 109.931943 
L 306.012544 109.300032 
L 316.88832 107.100322 
L 323.211445 106.274416 
L 329.661033 105.637513 
L 338.260483 105.047748 
L 347.871634 104.619348 
L 360.517884 104.284898 
L 378.222635 104.054289 
L 407.941324 103.922248 
L 490.268416 103.880688 
L 498.109091 103.88043 
L 498.109091 103.88043 
" style="fill:none;stroke:#00bfbf;stroke-linecap:square;stroke-width:1.5;"/>
   </g>
   <g id="line2d_31">
    <path clip-path="url(#pd0bdf88c5a)" d="M 92.290909 103.879844 
L 92.417372 103.879844 
L 92.543834 103.879844 
L 92.923222 83.837004 
L 93.176147 74.061018 
L 93.302609 74.215866 
L 93.555534 82.109644 
L 94.061384 111.207251 
L 95.073084 172.406633 
L 95.831859 204.662999 
L 96.590634 227.019776 
L 97.349409 242.551665 
L 98.108184 253.492671 
L 98.866959 261.308603 
L 99.625734 266.941209 
L 100.384509 270.997742 
L 101.143285 273.874979 
L 101.90206 275.836392 
L 102.534372 276.901813 
L 103.166685 277.529153 
L 104.051922 277.952889 
L 104.557772 277.81827 
L 105.063622 277.457332 
L 105.695935 276.685691 
L 106.45471 275.336592 
L 107.339947 273.282799 
L 108.225185 270.682747 
L 108.47811 269.530807 
L 109.869197 260.768439 
L 111.00736 254.931876 
L 111.892598 251.524601 
L 112.777835 249.033664 
L 113.663073 247.263924 
L 114.54831 246.023637 
L 115.433548 245.158328 
L 116.445248 244.483591 
L 117.58341 243.987166 
L 119.10096 243.585911 
L 121.12436 243.299045 
L 124.285923 243.099354 
L 130.229661 242.984777 
L 142.243599 242.951866 
L 142.370061 239.79489 
L 142.875911 205.699611 
L 143.128837 202.671182 
L 143.508224 192.730972 
L 144.140537 166.441218 
L 144.899312 137.099946 
L 145.278699 129.092598 
L 145.531624 126.622922 
L 145.658087 126.15015 
L 145.784549 126.109457 
L 146.037474 127.043189 
L 147.175637 133.898408 
L 147.302099 133.890978 
L 147.555024 133.190691 
L 147.934412 130.666633 
L 149.451962 117.727201 
L 149.831349 116.568181 
L 150.084274 116.292544 
L 150.337199 116.28298 
L 151.222437 116.588317 
L 151.475362 116.40609 
L 151.854749 115.787305 
L 152.487062 114.083527 
L 153.372299 111.635792 
L 154.004612 110.522599 
L 154.763387 109.590273 
L 155.3957 109.163444 
L 156.028012 109.016331 
L 157.92495 108.818352 
L 158.683725 108.394945 
L 159.568962 107.621734 
L 162.4776 104.78008 
L 163.236375 104.431143 
L 163.99515 104.339092 
L 164.880388 104.501653 
L 167.662563 105.290451 
L 168.5478 105.182508 
L 169.5595 104.802301 
L 172.215213 103.6261 
L 173.10045 103.534565 
L 174.11215 103.671387 
L 177.779563 104.471461 
L 178.917726 104.306182 
L 182.458676 103.552614 
L 183.723301 103.655659 
L 187.517176 104.186588 
L 189.034726 104.028458 
L 191.943364 103.669512 
L 193.587376 103.752679 
L 197.254789 104.04714 
L 199.531114 103.883407 
L 202.060364 103.758704 
L 204.842539 103.90945 
L 207.498252 103.959777 
L 213.94784 103.872343 
L 217.868178 103.909872 
L 223.938378 103.879657 
L 229.629191 103.871054 
L 238.987416 103.878251 
L 239.366804 103.926022 
L 239.619729 103.001503 
L 240.125579 100.798909 
L 240.252041 100.622964 
L 240.378504 100.642209 
L 240.504966 100.846868 
L 240.757891 103.585361 
L 241.137279 104.016269 
L 241.516666 104.46328 
L 242.401904 108.473166 
L 242.654829 108.840902 
L 242.907754 108.764907 
L 243.160679 108.281281 
L 243.540066 106.95124 
L 245.563466 98.479487 
L 245.689929 98.485465 
L 245.942854 98.960558 
L 246.322241 100.299789 
L 246.448704 101.025392 
L 246.701629 102.983383 
L 247.460404 103.203396 
L 248.092717 103.705095 
L 248.977954 105.604485 
L 249.483804 106.208314 
L 249.863192 106.317664 
L 250.242579 106.137102 
L 250.748429 105.526756 
L 251.760129 103.709244 
L 252.518904 102.559531 
L 252.898292 102.342752 
L 253.404142 102.329907 
L 254.036454 102.575283 
L 255.427542 103.433395 
L 256.818629 104.223225 
L 257.450942 104.358618 
L 258.083254 104.269427 
L 258.84203 103.892268 
L 260.738967 102.738171 
L 261.37128 102.638361 
L 262.003592 102.741406 
L 262.88883 103.129816 
L 264.40638 103.820001 
L 265.165155 103.911395 
L 265.92393 103.786434 
L 267.315017 103.252223 
L 268.326717 102.957012 
L 269.211955 102.933689 
L 270.223655 103.160547 
L 272.247055 103.697031 
L 273.258755 103.680693 
L 274.776305 103.361315 
L 276.167393 103.15546 
L 277.305555 103.227235 
L 280.593581 103.636227 
L 282.364056 103.436818 
L 284.008068 103.328874 
L 285.778543 103.478167 
L 287.928406 103.624342 
L 288.307793 103.615411 
L 289.445956 105.448277 
L 290.204731 105.984925 
L 291.089969 106.323267 
L 291.595819 106.333979 
L 291.975206 106.073414 
L 292.860444 105.341247 
L 293.619219 105.077658 
L 294.883844 104.92506 
L 298.551256 104.841963 
L 314.738457 104.38888 
L 329.281645 104.140855 
L 355.332922 103.95687 
L 406.803162 103.886502 
L 498.109091 103.879938 
L 498.109091 103.879938 
" style="fill:none;stroke:#ff0000;stroke-linecap:square;stroke-width:1.5;"/>
   </g>
   <g id="line2d_32">
    <path clip-path="url(#pd0bdf88c5a)" d="M 92.290909 103.879844 
L 92.417372 103.879844 
L 92.543834 103.879844 
L 93.176147 121.054496 
L 93.302609 121.772317 
L 93.429072 121.563204 
L 93.681997 119.467194 
L 93.934922 116.406066 
L 94.061384 128.082169 
L 94.314309 166.443585 
L 94.440772 169.897155 
L 95.073084 149.363985 
L 95.326009 148.793183 
L 95.578934 148.797191 
L 95.705397 149.036848 
L 95.958322 150.303084 
L 96.337709 153.797699 
L 97.096484 163.369986 
L 98.234647 180.780169 
L 99.752197 207.54708 
L 102.534372 261.456185 
L 103.293147 276.374963 
L 103.546072 287.32865 
L 103.672535 288.947738 
L 103.92546 289.253778 
L 104.178385 290.733277 
L 104.93716 298.214079 
L 108.225185 334.096373 
L 108.47811 318.027061 
L 108.857497 292.58173 
L 109.110422 286.614932 
L 109.363347 284.691421 
L 110.122122 281.700802 
L 110.754435 280.024379 
L 112.398448 276.570434 
L 113.663073 274.375505 
L 114.927698 272.623908 
L 116.192323 271.251345 
L 117.456948 270.185104 
L 118.848035 269.290424 
L 120.365585 268.56822 
L 122.136061 267.970391 
L 124.285923 267.488828 
L 126.941636 267.128968 
L 130.609048 266.87056 
L 136.426324 266.712898 
L 142.243599 266.665619 
L 142.370061 266.9669 
L 142.622986 267.988863 
L 142.875911 267.08129 
L 143.128837 266.450176 
L 143.255299 266.27259 
L 143.508224 265.182487 
L 143.887612 261.409046 
L 145.278699 243.719756 
L 145.658087 241.602861 
L 146.037474 240.733169 
L 146.416862 240.548668 
L 146.796249 240.435825 
L 147.049174 240.157398 
L 147.428562 239.236348 
L 147.934412 237.058671 
L 149.704887 228.200571 
L 150.337199 226.572905 
L 152.234137 222.523545 
L 155.3957 214.451877 
L 155.775087 214.071952 
L 156.154475 213.993285 
L 156.533862 214.203899 
L 157.039712 214.879902 
L 157.672025 216.194144 
L 159.4425 220.243457 
L 159.94835 220.896136 
L 160.327737 221.130847 
L 160.707125 221.133003 
L 161.086512 220.905888 
L 161.592362 220.278501 
L 162.224675 219.084367 
L 164.501 214.349652 
L 165.00685 213.868558 
L 165.386238 213.730845 
L 165.765625 213.785344 
L 166.271475 214.135148 
L 166.903788 214.933721 
L 168.168413 217.077737 
L 169.05365 218.348333 
L 169.685963 218.867987 
L 170.191813 218.989456 
L 170.697663 218.844945 
L 171.203513 218.461129 
L 171.962288 217.553627 
L 173.859225 215.065317 
L 174.491538 214.632369 
L 174.997388 214.520323 
L 175.503238 214.618774 
L 176.135551 215.002683 
L 177.020788 215.869024 
L 178.538338 217.404147 
L 179.170651 217.776055 
L 179.802963 217.89961 
L 180.435276 217.770125 
L 181.194051 217.335654 
L 184.102688 215.292831 
L 184.735001 215.230315 
L 185.493776 215.40565 
L 186.379014 215.869539 
L 188.402414 217.053546 
L 189.161189 217.23868 
L 189.919964 217.209215 
L 190.805201 216.939109 
L 193.840301 215.734756 
L 194.725539 215.737053 
L 195.737239 215.973123 
L 198.645877 216.838104 
L 199.657577 216.830415 
L 200.922202 216.577492 
L 203.324989 216.037585 
L 204.589614 216.035053 
L 206.233627 216.304714 
L 208.257027 216.61284 
L 209.648115 216.595236 
L 214.95954 216.235423 
L 219.259265 216.489214 
L 225.708853 216.348079 
L 229.249803 216.422971 
L 236.205241 216.374027 
L 238.987416 216.39421 
L 239.240341 218.211206 
L 239.746191 197.844252 
L 239.872654 196.896995 
L 239.999116 196.978475 
L 240.252041 198.484485 
L 240.757891 203.381385 
L 242.654829 224.757995 
L 243.160679 228.087283 
L 243.413604 228.900929 
L 243.666529 229.078093 
L 243.919454 228.605109 
L 244.172379 227.501948 
L 244.551766 224.789335 
L 244.678229 223.588919 
L 245.310541 214.213674 
L 245.689929 210.792287 
L 246.322241 208.230631 
L 246.828091 205.720028 
L 247.207479 204.655826 
L 247.460404 204.633838 
L 247.713329 205.023046 
L 248.092717 206.211295 
L 248.598567 208.754223 
L 250.495504 219.651793 
L 250.874892 220.586439 
L 251.127817 220.815595 
L 251.380742 220.726497 
L 251.633667 220.332977 
L 252.013054 219.234739 
L 252.771829 216.008729 
L 254.542304 207.188017 
L 255.174617 205.288745 
L 255.680467 204.468184 
L 256.059854 204.206704 
L 256.439242 204.173419 
L 257.071554 204.386986 
L 257.703867 204.55979 
L 258.083254 204.478029 
L 258.462642 204.177122 
L 258.84203 203.618299 
L 259.34788 202.454709 
L 259.980192 200.403776 
L 262.635905 190.91789 
L 263.268217 189.840163 
L 263.774067 189.368351 
L 264.40638 189.093416 
L 265.41808 188.739253 
L 265.92393 188.327543 
L 266.42978 187.647813 
L 267.062092 186.394914 
L 267.94733 184.046801 
L 269.717805 179.194696 
L 270.47658 177.784065 
L 271.108893 177.005815 
L 271.867668 176.411268 
L 273.258755 175.430069 
L 274.01753 174.527911 
L 274.776305 173.254596 
L 276.167393 170.335752 
L 277.432018 167.900862 
L 278.317255 166.681132 
L 279.202493 165.834036 
L 281.225893 164.095754 
L 282.237593 162.785683 
L 284.008068 159.960133 
L 285.272693 158.181485 
L 286.284393 157.120495 
L 288.434256 155.320704 
L 290.331194 153.959838 
L 290.837044 153.26316 
L 291.342894 152.258638 
L 291.848744 150.238435 
L 292.481056 147.454046 
L 293.239831 145.593873 
L 295.263231 141.203758 
L 297.160169 137.711838 
L 299.183569 134.45838 
L 301.333432 131.415301 
L 303.736219 128.393225 
L 305.633157 126.369506 
L 310.059344 122.13724 
L 312.462132 120.13354 
L 315.244307 118.098898 
L 317.773557 116.50304 
L 321.061582 114.710047 
L 324.602533 113.002659 
L 328.143483 111.582418 
L 331.810895 110.361937 
L 336.237083 109.124533 
L 340.789733 108.101562 
L 345.974696 107.180817 
L 351.539046 106.411403 
L 358.115097 105.731908 
L 365.82931 105.162771 
L 375.313998 104.696749 
L 387.327936 104.341085 
L 403.894524 104.089567 
L 429.819338 103.940931 
L 486.47454 103.88397 
L 498.109091 103.882212 
L 498.109091 103.882212 
" style="fill:none;stroke:#008000;stroke-linecap:square;stroke-width:1.5;"/>
   </g>
   <g id="line2d_33">
    <path clip-path="url(#pd0bdf88c5a)" d="M 92.290909 103.879844 
L 92.417372 103.879844 
L 92.543834 103.879844 
L 92.796759 115.082893 
L 93.176147 132.815266 
L 93.429072 150.80333 
L 94.314309 218.862479 
L 95.199547 270.477033 
L 95.958322 302.450845 
L 96.717097 325.029746 
L 97.475872 340.729071 
L 98.234647 351.582222 
L 98.993422 359.010962 
L 99.625734 363.284929 
L 100.258047 366.226112 
L 100.89036 368.101171 
L 101.39621 368.962917 
L 101.775597 369.285412 
L 102.154985 369.357539 
L 102.534372 369.199315 
L 103.040222 368.658775 
L 104.43131 366.380187 
L 105.063622 364.457779 
L 105.822397 361.308186 
L 106.834097 356.109652 
L 108.225185 347.669802 
L 108.604572 343.986936 
L 110.248585 325.618878 
L 110.880897 321.518418 
L 111.51321 318.720668 
L 112.145523 316.820036 
L 112.777835 315.520982 
L 113.53661 314.481229 
L 114.295385 313.805132 
L 115.180623 313.299964 
L 116.318785 312.913078 
L 117.962798 312.621899 
L 120.492048 312.43053 
L 125.424086 312.320312 
L 140.346661 312.294739 
L 142.243599 312.295043 
L 142.370061 315.564277 
L 142.875911 350.826099 
L 143.002374 354.206137 
L 143.128837 354.614073 
L 143.255299 353.250722 
L 143.508224 345.498642 
L 143.887612 323.826049 
L 145.278699 232.118406 
L 145.658087 220.867 
L 146.037474 215.660121 
L 146.416862 213.823997 
L 146.796249 212.522342 
L 147.049174 210.853866 
L 147.428562 206.279531 
L 147.934412 196.322748 
L 149.451962 162.658753 
L 149.957812 156.47609 
L 150.590124 151.79353 
L 151.601824 145.273018 
L 152.613524 136.474481 
L 153.498762 129.300844 
L 154.257537 124.855222 
L 155.016312 121.605116 
L 155.775087 119.395115 
L 156.786787 117.282486 
L 157.798487 115.003968 
L 158.683725 112.395548 
L 160.201275 106.999316 
L 161.4659 102.821409 
L 162.224675 100.960649 
L 162.856987 99.914402 
L 163.362837 99.419642 
L 163.868687 99.204434 
L 164.374538 99.220421 
L 165.133313 99.528688 
L 166.5244 100.190415 
L 167.156713 100.228529 
L 167.789025 99.998109 
L 168.421338 99.494019 
L 169.306575 98.425176 
L 171.329975 95.764858 
L 172.08875 95.204628 
L 172.721063 95.032082 
L 173.353375 95.117265 
L 174.11215 95.485845 
L 176.514938 96.935785 
L 177.147251 97.016702 
L 177.779563 96.904328 
L 178.538338 96.545195 
L 179.929426 95.556612 
L 181.067588 94.865021 
L 181.826363 94.637554 
L 182.585138 94.639382 
L 183.470376 94.895142 
L 186.631939 96.109692 
L 187.517176 96.055216 
L 188.528876 95.754638 
L 191.058126 94.864083 
L 192.069826 94.812444 
L 193.207989 95.010798 
L 196.243089 95.730541 
L 197.381252 95.685863 
L 199.025264 95.35071 
L 200.795739 95.035035 
L 202.060364 95.030254 
L 203.830839 95.281982 
L 205.854239 95.532069 
L 207.37179 95.490064 
L 211.92444 95.161966 
L 217.868178 95.361867 
L 221.53559 95.229288 
L 229.123341 95.289647 
L 232.917216 95.298695 
L 238.228641 95.31065 
L 239.240341 95.369743 
L 239.366804 95.4944 
L 239.493266 95.381323 
L 239.872654 93.738537 
L 240.125579 92.952692 
L 240.252041 92.897021 
L 240.378504 93.084569 
L 240.884354 94.896033 
L 241.516666 99.13505 
L 242.022516 102.375874 
L 242.401904 103.541433 
L 242.528366 103.6092 
L 242.654829 103.505381 
L 242.907754 102.793022 
L 243.287141 100.61115 
L 244.045916 93.997321 
L 244.804691 88.00673 
L 245.310541 85.379769 
L 245.563466 84.987233 
L 245.689929 85.115382 
L 245.942854 86.037183 
L 246.448704 89.434566 
L 246.828091 91.439345 
L 247.460404 94.405633 
L 248.851492 99.608901 
L 249.230879 100.344748 
L 249.483804 100.535601 
L 249.736729 100.474046 
L 249.989654 100.168357 
L 250.369042 99.305627 
L 251.001354 97.121973 
L 252.139517 92.99669 
L 252.645367 91.935113 
L 253.024754 91.675415 
L 253.404142 91.75666 
L 253.783529 92.093829 
L 254.415842 92.985767 
L 256.186317 95.67944 
L 256.818629 96.202564 
L 257.324479 96.309195 
L 257.830329 96.115623 
L 258.336179 95.654734 
L 259.34788 94.300127 
L 260.106655 93.393656 
L 260.612505 93.049408 
L 261.118355 92.982813 
L 261.624205 93.195935 
L 262.256517 93.781176 
L 264.279917 95.99706 
L 264.785767 96.191804 
L 265.291617 96.173075 
L 265.92393 95.896453 
L 268.200255 94.573045 
L 268.832567 94.632772 
L 269.46488 94.939281 
L 270.47658 95.739987 
L 271.614743 96.577988 
L 272.373518 96.843546 
L 273.00583 96.844789 
L 273.891068 96.597608 
L 275.408618 96.120076 
L 276.167393 96.126522 
L 276.926168 96.350474 
L 278.190793 97.010185 
L 279.328955 97.527706 
L 280.214193 97.690923 
L 281.225893 97.623602 
L 283.375756 97.38561 
L 284.387456 97.560851 
L 288.054868 98.508085 
L 288.307793 98.509327 
L 289.319493 101.148736 
L 289.951806 101.970117 
L 290.584119 102.469917 
L 291.216431 102.730881 
L 291.595819 102.768316 
L 292.101669 102.454681 
L 292.860444 101.886341 
L 293.492756 101.718037 
L 294.504456 101.739907 
L 296.527856 102.092993 
L 299.815881 102.607021 
L 303.483294 102.939807 
L 310.565194 103.29744 
L 342.054358 103.770377 
L 376.831548 103.859521 
L 498.109091 103.879774 
L 498.109091 103.879774 
" style="fill:none;stroke:#0000ff;stroke-linecap:square;stroke-width:1.5;"/>
   </g>
   <g id="patch_3">
    <path d="M 72 384.48 
L 72 51.84 
" style="fill:none;stroke:#000000;stroke-linecap:square;stroke-linejoin:miter;stroke-width:0.8;"/>
   </g>
   <g id="patch_4">
    <path d="M 518.4 384.48 
L 518.4 51.84 
" style="fill:none;stroke:#000000;stroke-linecap:square;stroke-linejoin:miter;stroke-width:0.8;"/>
   </g>
   <g id="patch_5">
    <path d="M 72 384.48 
L 518.4 384.48 
" style="fill:none;stroke:#000000;stroke-linecap:square;stroke-linejoin:miter;stroke-width:0.8;"/>
   </g>
   <g id="patch_6">
    <path d="M 72 51.84 
L 518.4 51.84 
" style="fill:none;stroke:#000000;stroke-linecap:square;stroke-linejoin:miter;stroke-width:0.8;"/>
   </g>
   <g id="legend_1">
    <g id="patch_7">
     <path d="M 446.187419 379.48 
L 511.4 379.48 
Q 513.4 379.48 513.4 377.48 
L 513.4 303.6668 
Q 513.4 301.6668 511.4 301.6668 
L 446.187419 301.6668 
Q 444.187419 301.6668 444.187419 303.6668 
L 444.187419 377.48 
Q 444.187419 379.48 446.187419 379.48 
z
" style="fill:#ffffff;opacity:0.8;stroke:#cccccc;stroke-linejoin:miter;"/>
    </g>
    <g id="line2d_34">
     <path d="M 448.187419 310.192261 
L 468.187419 310.192261 
" style="fill:none;stroke:#bf00bf;stroke-linecap:square;stroke-width:1.5;"/>
    </g>
    <g id="line2d_35"/>
    <g id="text_17">
     <!-- $\partial \mathcal{L}/ \partial u_{1}$ -->
     <g transform="translate(476.187419 313.692261)scale(0.1 -0.1)">
      <use transform="translate(0 14.943915)scale(0.996264)" xlink:href="#CMMI12-64"/>
      <use transform="translate(56.915564 14.943915)scale(0.996264)" xlink:href="#CMSY10-76"/>
      <use transform="translate(125.630372 14.943915)scale(0.996264)" xlink:href="#CMMI12-61"/>
      <use transform="translate(174.405291 14.943915)scale(0.996264)" xlink:href="#CMMI12-64"/>
      <use transform="translate(231.320856 14.943915)scale(0.996264)" xlink:href="#CMMI12-117"/>
      <use transform="translate(286.841185 0)scale(0.697382)" xlink:href="#CMR17-49"/>
     </g>
    </g>
    <g id="line2d_36">
     <path d="M 448.187419 325.154901 
L 468.187419 325.154901 
" style="fill:none;stroke:#00bfbf;stroke-linecap:square;stroke-width:1.5;"/>
    </g>
    <g id="line2d_37"/>
    <g id="text_18">
     <!-- $\partial \mathcal{L}/ \partial u_{2}$ -->
     <g transform="translate(476.187419 328.654901)scale(0.1 -0.1)">
      <use transform="translate(0 14.943915)scale(0.996264)" xlink:href="#CMMI12-64"/>
      <use transform="translate(56.915564 14.943915)scale(0.996264)" xlink:href="#CMSY10-76"/>
      <use transform="translate(125.630372 14.943915)scale(0.996264)" xlink:href="#CMMI12-61"/>
      <use transform="translate(174.405291 14.943915)scale(0.996264)" xlink:href="#CMMI12-64"/>
      <use transform="translate(231.320856 14.943915)scale(0.996264)" xlink:href="#CMMI12-117"/>
      <use transform="translate(286.841185 0)scale(0.697382)" xlink:href="#CMR17-50"/>
     </g>
    </g>
    <g id="line2d_38">
     <path d="M 448.187419 340.117541 
L 468.187419 340.117541 
" style="fill:none;stroke:#ff0000;stroke-linecap:square;stroke-width:1.5;"/>
    </g>
    <g id="line2d_39"/>
    <g id="text_19">
     <!-- $\partial \mathcal{L}/ \partial u_{3}$ -->
     <g transform="translate(476.187419 343.617541)scale(0.1 -0.1)">
      <use transform="translate(0 14.943915)scale(0.996264)" xlink:href="#CMMI12-64"/>
      <use transform="translate(56.915564 14.943915)scale(0.996264)" xlink:href="#CMSY10-76"/>
      <use transform="translate(125.630372 14.943915)scale(0.996264)" xlink:href="#CMMI12-61"/>
      <use transform="translate(174.405291 14.943915)scale(0.996264)" xlink:href="#CMMI12-64"/>
      <use transform="translate(231.320856 14.943915)scale(0.996264)" xlink:href="#CMMI12-117"/>
      <use transform="translate(286.841185 0)scale(0.697382)" xlink:href="#CMR17-51"/>
     </g>
    </g>
    <g id="line2d_40">
     <path d="M 448.187419 355.080182 
L 468.187419 355.080182 
" style="fill:none;stroke:#008000;stroke-linecap:square;stroke-width:1.5;"/>
    </g>
    <g id="line2d_41"/>
    <g id="text_20">
     <!-- $\partial \mathcal{L}/ \partial u_{4}$ -->
     <g transform="translate(476.187419 358.580182)scale(0.1 -0.1)">
      <use transform="translate(0 14.943915)scale(0.996264)" xlink:href="#CMMI12-64"/>
      <use transform="translate(56.915564 14.943915)scale(0.996264)" xlink:href="#CMSY10-76"/>
      <use transform="translate(125.630372 14.943915)scale(0.996264)" xlink:href="#CMMI12-61"/>
      <use transform="translate(174.405291 14.943915)scale(0.996264)" xlink:href="#CMMI12-64"/>
      <use transform="translate(231.320856 14.943915)scale(0.996264)" xlink:href="#CMMI12-117"/>
      <use transform="translate(286.841185 0)scale(0.697382)" xlink:href="#CMR17-52"/>
     </g>
    </g>
    <g id="line2d_42">
     <path d="M 448.187419 370.042822 
L 468.187419 370.042822 
" style="fill:none;stroke:#0000ff;stroke-linecap:square;stroke-width:1.5;"/>
    </g>
    <g id="line2d_43"/>
    <g id="text_21">
     <!-- $\partial \mathcal{L}/ \partial u_{5}$ -->
     <g transform="translate(476.187419 373.542822)scale(0.1 -0.1)">
      <use transform="translate(0 14.943915)scale(0.996264)" xlink:href="#CMMI12-64"/>
      <use transform="translate(56.915564 14.943915)scale(0.996264)" xlink:href="#CMSY10-76"/>
      <use transform="translate(125.630372 14.943915)scale(0.996264)" xlink:href="#CMMI12-61"/>
      <use transform="translate(174.405291 14.943915)scale(0.996264)" xlink:href="#CMMI12-64"/>
      <use transform="translate(231.320856 14.943915)scale(0.996264)" xlink:href="#CMMI12-117"/>
      <use transform="translate(286.841185 0)scale(0.697382)" xlink:href="#CMR17-53"/>
     </g>
    </g>
   </g>
  </g>
 </g>
 <defs>
  <clipPath id="pd0bdf88c5a">
   <rect height="332.64" width="446.4" x="72" y="51.84"/>
  </clipPath>
 </defs>
</svg>
