<?xml version="1.0" encoding="utf-8" standalone="no"?>
<!DOCTYPE svg PUBLIC "-//W3C//DTD SVG 1.1//EN"
  "http://www.w3.org/Graphics/SVG/1.1/DTD/svg11.dtd">
<!-- Created with matplotlib (http://matplotlib.org/) -->
<svg height="432pt" version="1.1" viewBox="0 0 576 432" width="576pt" xmlns="http://www.w3.org/2000/svg" xmlns:xlink="http://www.w3.org/1999/xlink">
 <defs>
  <style type="text/css">
*{stroke-linecap:butt;stroke-linejoin:round;}
  </style>
 </defs>
 <g id="figure_1">
  <g id="patch_1">
   <path d="M 0 432 
L 576 432 
L 576 0 
L 0 0 
z
" style="fill:#ffffff;"/>
  </g>
  <g id="axes_1">
   <g id="patch_2">
    <path d="M 72 384.48 
L 518.4 384.48 
L 518.4 51.84 
L 72 51.84 
z
" style="fill:#ffffff;"/>
   </g>
   <g id="matplotlib.axis_1">
    <g id="xtick_1">
     <g id="line2d_1">
      <path clip-path="url(#p43f7b04b15)" d="M 92.290909 384.48 
L 92.290909 51.84 
" style="fill:none;stroke:#b0b0b0;stroke-dasharray:5.12,1.28,0.8,1.28;stroke-dashoffset:0;stroke-width:0.8;"/>
     </g>
     <g id="line2d_2">
      <defs>
       <path d="M 0 0 
L 0 3.5 
" id="m577227199b" style="stroke:#000000;stroke-width:0.8;"/>
      </defs>
      <g>
       <use style="stroke:#000000;stroke-width:0.8;" x="92.290909" xlink:href="#m577227199b" y="384.48"/>
      </g>
     </g>
     <g id="text_1">
      <!-- $0$ -->
      <defs>
       <path d="M 42 31.640625 
C 42 37.75 41.90625 48.125 37.703125 56.109375 
C 34 63.109375 28.09375 65.59375 22.90625 65.59375 
C 18.09375 65.59375 12 63.40625 8.203125 56.203125 
C 4.203125 48.71875 3.796875 39.4375 3.796875 31.640625 
C 3.796875 25.953125 3.90625 17.28125 7 9.671875 
C 11.296875 -0.609375 19 -2 22.90625 -2 
C 27.5 -2 34.5 -0.109375 38.59375 9.375 
C 41.59375 16.28125 42 24.359375 42 31.640625 
z
M 22.90625 -0.40625 
C 16.5 -0.40625 12.703125 5.078125 11.296875 12.6875 
C 10.203125 18.5625 10.203125 27.15625 10.203125 32.75 
C 10.203125 40.4375 10.203125 46.828125 11.5 52.921875 
C 13.40625 61.390625 19 64 22.90625 64 
C 27 64 32.296875 61.296875 34.203125 53.125 
C 35.5 47.4375 35.59375 40.734375 35.59375 32.75 
C 35.59375 26.25 35.59375 18.265625 34.40625 12.375 
C 32.296875 1.484375 26.40625 -0.40625 22.90625 -0.40625 
z
" id="CMR17-48"/>
      </defs>
      <g transform="translate(89.800241 398.398498)scale(0.1 -0.1)">
       <use transform="scale(0.996264)" xlink:href="#CMR17-48"/>
      </g>
     </g>
    </g>
    <g id="xtick_2">
     <g id="line2d_3">
      <path clip-path="url(#p43f7b04b15)" d="M 166.143171 384.48 
L 166.143171 51.84 
" style="fill:none;stroke:#b0b0b0;stroke-dasharray:5.12,1.28,0.8,1.28;stroke-dashoffset:0;stroke-width:0.8;"/>
     </g>
     <g id="line2d_4">
      <g>
       <use style="stroke:#000000;stroke-width:0.8;" x="166.143171" xlink:href="#m577227199b" y="384.48"/>
      </g>
     </g>
     <g id="text_2">
      <!-- $200$ -->
      <defs>
       <path d="M 41.703125 15.453125 
L 39.90625 15.453125 
C 38.90625 8.375 38.09375 7.171875 37.703125 6.5625 
C 37.203125 5.765625 30 5.765625 28.59375 5.765625 
L 9.40625 5.765625 
C 13 9.671875 20 16.75 28.5 24.953125 
C 34.59375 30.734375 41.703125 37.53125 41.703125 47.421875 
C 41.703125 59.21875 32.296875 66 21.796875 66 
C 10.796875 66 4.09375 56.3125 4.09375 47.34375 
C 4.09375 43.4375 7 42.9375 8.203125 42.9375 
C 9.203125 42.9375 12.203125 43.546875 12.203125 47.03125 
C 12.203125 50.109375 9.59375 51 8.203125 51 
C 7.59375 51 7 50.90625 6.59375 50.703125 
C 8.5 59.21875 14.296875 63.40625 20.40625 63.40625 
C 29.09375 63.40625 34.796875 56.515625 34.796875 47.421875 
C 34.796875 38.734375 29.703125 31.25 24 24.75 
L 4.09375 2.28125 
L 4.09375 0 
L 39.296875 0 
z
" id="CMR17-50"/>
      </defs>
      <g transform="translate(158.671169 398.398498)scale(0.1 -0.1)">
       <use transform="scale(0.996264)" xlink:href="#CMR17-50"/>
       <use transform="translate(45.690477 0)scale(0.996264)" xlink:href="#CMR17-48"/>
       <use transform="translate(91.380954 0)scale(0.996264)" xlink:href="#CMR17-48"/>
      </g>
     </g>
    </g>
    <g id="xtick_3">
     <g id="line2d_5">
      <path clip-path="url(#p43f7b04b15)" d="M 239.995434 384.48 
L 239.995434 51.84 
" style="fill:none;stroke:#b0b0b0;stroke-dasharray:5.12,1.28,0.8,1.28;stroke-dashoffset:0;stroke-width:0.8;"/>
     </g>
     <g id="line2d_6">
      <g>
       <use style="stroke:#000000;stroke-width:0.8;" x="239.995434" xlink:href="#m577227199b" y="384.48"/>
      </g>
     </g>
     <g id="text_3">
      <!-- $400$ -->
      <defs>
       <path d="M 33.59375 64.40625 
C 33.59375 66.5 33.5 66.5 31.703125 66.5 
L 2 19.59375 
L 2 17 
L 27.796875 17 
L 27.796875 7.140625 
C 27.796875 3.5 27.59375 2.5 20.59375 2.5 
L 18.703125 2.5 
L 18.703125 0 
C 21.90625 0 27.296875 0 30.703125 0 
C 34.09375 0 39.5 0 42.703125 0 
L 42.703125 2.5 
L 40.796875 2.5 
C 33.796875 2.5 33.59375 3.5 33.59375 7.140625 
L 33.59375 17 
L 43.796875 17 
L 43.796875 19.59375 
L 33.59375 19.59375 
z
M 28.09375 57.859375 
L 28.09375 19.59375 
L 4 19.59375 
z
" id="CMR17-52"/>
      </defs>
      <g transform="translate(232.523431 398.398498)scale(0.1 -0.1)">
       <use transform="scale(0.996264)" xlink:href="#CMR17-52"/>
       <use transform="translate(45.690477 0)scale(0.996264)" xlink:href="#CMR17-48"/>
       <use transform="translate(91.380954 0)scale(0.996264)" xlink:href="#CMR17-48"/>
      </g>
     </g>
    </g>
    <g id="xtick_4">
     <g id="line2d_7">
      <path clip-path="url(#p43f7b04b15)" d="M 313.847696 384.48 
L 313.847696 51.84 
" style="fill:none;stroke:#b0b0b0;stroke-dasharray:5.12,1.28,0.8,1.28;stroke-dashoffset:0;stroke-width:0.8;"/>
     </g>
     <g id="line2d_8">
      <g>
       <use style="stroke:#000000;stroke-width:0.8;" x="313.847696" xlink:href="#m577227199b" y="384.48"/>
      </g>
     </g>
     <g id="text_4">
      <!-- $600$ -->
      <defs>
       <path d="M 10.59375 34 
C 10.59375 57.65625 21.796875 63 28.296875 63 
C 30.40625 63 35.5 62.640625 37.5 59 
C 35.90625 59 32.90625 59 32.90625 55.515625 
C 32.90625 52.828125 35.09375 51.921875 36.5 51.921875 
C 37.40625 51.921875 40.09375 52.3125 40.09375 55.625 
C 40.09375 61.78125 35.09375 65.296875 28.203125 65.296875 
C 16.296875 65.296875 3.796875 52.96875 3.796875 31 
C 3.796875 3.953125 15.09375 -2 23.09375 -2 
C 32.796875 -2 42 6.671875 42 20.046875 
C 42 32.515625 33.90625 41.59375 23.703125 41.59375 
C 17.59375 41.59375 13.09375 37.609375 10.59375 30.625 
z
M 23.09375 0.390625 
C 10.796875 0.390625 10.796875 18.75 10.796875 22.4375 
C 10.796875 29.625 14.203125 40 23.5 40 
C 25.203125 40 30.09375 40 33.40625 33.125 
C 35.203125 29.21875 35.203125 25.140625 35.203125 20.140625 
C 35.203125 14.75 35.203125 10.78125 33.09375 6.78125 
C 30.90625 2.671875 27.703125 0.390625 23.09375 0.390625 
z
" id="CMR17-54"/>
      </defs>
      <g transform="translate(306.375693 398.398498)scale(0.1 -0.1)">
       <use transform="scale(0.996264)" xlink:href="#CMR17-54"/>
       <use transform="translate(45.690477 0)scale(0.996264)" xlink:href="#CMR17-48"/>
       <use transform="translate(91.380954 0)scale(0.996264)" xlink:href="#CMR17-48"/>
      </g>
     </g>
    </g>
    <g id="xtick_5">
     <g id="line2d_9">
      <path clip-path="url(#p43f7b04b15)" d="M 387.699959 384.48 
L 387.699959 51.84 
" style="fill:none;stroke:#b0b0b0;stroke-dasharray:5.12,1.28,0.8,1.28;stroke-dashoffset:0;stroke-width:0.8;"/>
     </g>
     <g id="line2d_10">
      <g>
       <use style="stroke:#000000;stroke-width:0.8;" x="387.699959" xlink:href="#m577227199b" y="384.48"/>
      </g>
     </g>
     <g id="text_5">
      <!-- $800$ -->
      <defs>
       <path d="M 27.203125 35.375 
C 33.5 38.546875 39.90625 43.328125 39.90625 50.984375 
C 39.90625 60.015625 31.09375 65.296875 23 65.296875 
C 13.90625 65.296875 5.90625 58.734375 5.90625 49.6875 
C 5.90625 47.203125 6.5 42.921875 10.40625 39.140625 
C 11.40625 38.15625 15.59375 35.171875 18.296875 33.28125 
C 13.796875 30.984375 3.296875 25.53125 3.296875 14.59375 
C 3.296875 4.359375 13.09375 -2 22.796875 -2 
C 33.5 -2 42.5 5.65625 42.5 15.78125 
C 42.5 24.84375 36.40625 29.015625 32.40625 31.703125 
z
M 14.09375 44.09375 
C 13.296875 44.59375 9.296875 47.671875 9.296875 52.359375 
C 9.296875 58.421875 15.59375 63 22.796875 63 
C 30.703125 63 36.5 57.4375 36.5 50.96875 
C 36.5 41.703125 26.09375 36.421875 25.59375 36.421875 
C 25.5 36.421875 25.40625 36.421875 24.59375 37.03125 
z
M 32.5 23.734375 
C 34 22.640625 38.796875 19.375 38.796875 13.296875 
C 38.796875 5.953125 31.40625 0.390625 23 0.390625 
C 13.90625 0.390625 7 6.84375 7 14.6875 
C 7 22.546875 13.09375 29.09375 20 32.1875 
z
" id="CMR17-56"/>
      </defs>
      <g transform="translate(380.227956 398.398498)scale(0.1 -0.1)">
       <use transform="scale(0.996264)" xlink:href="#CMR17-56"/>
       <use transform="translate(45.690477 0)scale(0.996264)" xlink:href="#CMR17-48"/>
       <use transform="translate(91.380954 0)scale(0.996264)" xlink:href="#CMR17-48"/>
      </g>
     </g>
    </g>
    <g id="xtick_6">
     <g id="line2d_11">
      <path clip-path="url(#p43f7b04b15)" d="M 461.552221 384.48 
L 461.552221 51.84 
" style="fill:none;stroke:#b0b0b0;stroke-dasharray:5.12,1.28,0.8,1.28;stroke-dashoffset:0;stroke-width:0.8;"/>
     </g>
     <g id="line2d_12">
      <g>
       <use style="stroke:#000000;stroke-width:0.8;" x="461.552221" xlink:href="#m577227199b" y="384.48"/>
      </g>
     </g>
     <g id="text_6">
      <!-- $1000$ -->
      <defs>
       <path d="M 26.59375 63.40625 
C 26.59375 65.5 26.5 65.5 25.09375 65.5 
C 21.203125 61.1875 15.296875 59.796875 9.703125 59.796875 
C 9.40625 59.796875 8.90625 59.796875 8.796875 59.5 
C 8.703125 59.296875 8.703125 59.09375 8.703125 57 
C 11.796875 57 17 57.59375 21 59.984375 
L 21 7.203125 
C 21 3.6875 20.796875 2.5 12.203125 2.5 
L 9.203125 2.5 
L 9.203125 0 
C 14 0 19 0 23.796875 0 
C 28.59375 0 33.59375 0 38.40625 0 
L 38.40625 2.5 
L 35.40625 2.5 
C 26.796875 2.5 26.59375 3.59375 26.59375 7.15625 
z
" id="CMR17-49"/>
      </defs>
      <g transform="translate(451.589551 398.398498)scale(0.1 -0.1)">
       <use transform="scale(0.996264)" xlink:href="#CMR17-49"/>
       <use transform="translate(45.690477 0)scale(0.996264)" xlink:href="#CMR17-48"/>
       <use transform="translate(91.380954 0)scale(0.996264)" xlink:href="#CMR17-48"/>
       <use transform="translate(137.071431 0)scale(0.996264)" xlink:href="#CMR17-48"/>
      </g>
     </g>
    </g>
    <g id="text_7">
     <!-- Iteration -->
     <defs>
      <path d="M 17.09375 69 
L 8.703125 69 
L 8.703125 0 
L 17.09375 0 
z
" id="CMSS17-73"/>
      <path d="M 16.703125 37 
L 29.703125 37 
L 29.703125 42.765625 
L 16.703125 42.765625 
L 16.703125 55 
L 9.59375 55 
L 9.59375 42.765625 
L 1.703125 42.765625 
L 1.703125 37 
L 9.40625 37 
L 9.40625 11.703125 
C 9.40625 6 10.703125 -1 17.296875 -1 
C 22.296875 -1 26.90625 0.390625 31.296875 2.6875 
L 29.703125 8.5625 
C 27.296875 6.46875 24.40625 5.265625 21.296875 5.265625 
C 16.90625 5.265625 16.703125 10.875 16.703125 13.375 
z
" id="CMSS17-116"/>
      <path d="M 39.09375 21.515625 
C 39.09375 24.84375 38.90625 31.296875 35.703125 36.640625 
C 32.203125 42.390625 26.5 44 22.203125 44 
C 11.796875 44 3 34.1875 3 21.484375 
C 3 9.09375 12.09375 -1 23.59375 -1 
C 28.09375 -1 33.59375 0.296875 38.59375 3.875 
C 38.59375 4.28125 38.40625 6.46875 38.296875 6.5625 
C 38.296875 6.765625 38 9.84375 38 10.25 
C 33.203125 6.359375 27.703125 5.078125 23.703125 5.078125 
C 17.296875 5.078125 10.40625 10.421875 10.09375 21.515625 
z
M 10.90625 27 
C 12.203125 32.5625 16.59375 37.828125 22.203125 37.828125 
C 23.703125 37.828125 30.703125 37.828125 32.5 27 
z
" id="CMSS17-101"/>
      <path d="M 14.90625 21.296875 
C 14.90625 30.703125 21.796875 37 30.59375 37 
L 30.59375 43.578125 
C 24.203125 43.578125 18.203125 40.390625 14.59375 35.203125 
L 14.59375 43.09375 
L 7.5 43.09375 
L 7.5 0 
L 14.90625 0 
z
" id="CMSS17-114"/>
      <path d="M 37.59375 27.984375 
C 37.59375 37.375 30.90625 43.875 21.90625 43.875 
C 17.5 43.875 12.703125 43.078125 7.203125 39.890625 
L 7.796875 33.359375 
C 10.296875 35.125 14.59375 38 21.796875 38 
C 26.90625 38 30 34.0625 30 27.84375 
L 30 24 
C 14 24 4 19.34375 4 11.34375 
C 4 7.203125 6.5 -1 14.796875 -1 
C 16.296875 -1 24.40625 -1 30.203125 3.390625 
L 30.203125 -0.296875 
L 37.59375 -0.296875 
z
M 30 12.75 
C 30 10.953125 30 8.5625 27 6.78125 
C 24.40625 5.078125 21.09375 5.078125 19.703125 5.078125 
C 14.703125 5.078125 11.296875 7.984375 11.296875 11.625 
C 11.296875 18.921875 26.90625 18.921875 30 18.921875 
z
" id="CMSS17-97"/>
      <path d="M 15.296875 65.359375 
L 6.90625 65.359375 
L 6.90625 57 
L 15.296875 57 
z
M 14.796875 42.796875 
L 7.40625 42.796875 
L 7.40625 0 
L 14.796875 0 
z
" id="CMSS17-105"/>
      <path d="M 44.203125 21.1875 
C 44.203125 34 34.703125 44 23.5 44 
C 12 44 2.703125 33.703125 2.703125 21.1875 
C 2.703125 8.5 12.296875 -1 23.40625 -1 
C 34.796875 -1 44.203125 8.796875 44.203125 21.1875 
z
M 23.5 5.265625 
C 16.40625 5.265625 10.296875 11.078125 10.296875 22 
C 10.296875 33.609375 17.40625 37.921875 23.40625 37.921875 
C 29.90625 37.921875 36.59375 33.21875 36.59375 22 
C 36.59375 10.671875 30.09375 5.265625 23.5 5.265625 
z
" id="CMSS17-111"/>
      <path d="M 40.90625 29.328125 
C 40.90625 35.671875 39.40625 44 28.09375 44 
C 21.703125 44 17.5 40.71875 14.703125 37.328125 
L 14.703125 43.09375 
L 7.40625 43.09375 
L 7.40625 0 
L 15 0 
L 15 24.359375 
C 15 30.6875 17.40625 37.9375 24.203125 37.9375 
C 33 37.9375 33.296875 32 33.296875 28.578125 
L 33.296875 0 
L 40.90625 0 
z
" id="CMSS17-110"/>
     </defs>
     <g transform="translate(271.264003 414.021553)scale(0.14 -0.14)">
      <use transform="scale(0.996264)" xlink:href="#CMSS17-73"/>
      <use transform="translate(25.783926 0)scale(0.996264)" xlink:href="#CMSS17-116"/>
      <use transform="translate(59.615492 0)scale(0.996264)" xlink:href="#CMSS17-101"/>
      <use transform="translate(101.254314 0)scale(0.996264)" xlink:href="#CMSS17-114"/>
      <use transform="translate(133.164087 0)scale(0.996264)" xlink:href="#CMSS17-97"/>
      <use transform="translate(178.086007 0)scale(0.996264)" xlink:href="#CMSS17-116"/>
      <use transform="translate(211.917574 0)scale(0.996264)" xlink:href="#CMSS17-105"/>
      <use transform="translate(234.098297 0)scale(0.996264)" xlink:href="#CMSS17-111"/>
      <use transform="translate(280.941921 0)scale(0.996264)" xlink:href="#CMSS17-110"/>
     </g>
    </g>
   </g>
   <g id="matplotlib.axis_2">
    <g id="ytick_1">
     <g id="line2d_13">
      <path clip-path="url(#p43f7b04b15)" d="M 72 361.802293 
L 518.4 361.802293 
" style="fill:none;stroke:#b0b0b0;stroke-dasharray:5.12,1.28,0.8,1.28;stroke-dashoffset:0;stroke-width:0.8;"/>
     </g>
     <g id="line2d_14">
      <defs>
       <path d="M 0 0 
L -3.5 0 
" id="m1cda318c74" style="stroke:#000000;stroke-width:0.8;"/>
      </defs>
      <g>
       <use style="stroke:#000000;stroke-width:0.8;" x="72" xlink:href="#m1cda318c74" y="361.802293"/>
      </g>
     </g>
     <g id="text_8">
      <!-- $-50$ -->
      <defs>
       <path d="M 65.90625 23 
C 67.59375 23 69.40625 23 69.40625 25 
C 69.40625 27 67.59375 27 65.90625 27 
L 11.796875 27 
C 10.09375 27 8.296875 27 8.296875 25 
C 8.296875 23 10.09375 23 11.796875 23 
z
" id="CMSY10-0"/>
       <path d="M 11.40625 57.6875 
C 12.40625 57.28125 16.5 56 20.703125 56 
C 30 56 35.09375 61.109375 38 64.0625 
C 38 64.953125 38 65.5 37.40625 65.5 
C 37.296875 65.5 37.09375 65.5 36.296875 65.046875 
C 32.796875 63.40625 28.703125 62.078125 23.703125 62.078125 
C 20.703125 62.078125 16.203125 62.484375 11.296875 64.671875 
C 10.203125 65.171875 10 65.171875 9.90625 65.171875 
C 9.40625 65.171875 9.296875 65.0625 9.296875 63.078125 
L 9.296875 34.421875 
C 9.296875 32.640625 9.296875 32.140625 10.296875 32.140625 
C 10.796875 32.140625 11 32.34375 11.5 33.03125 
C 14.703125 37.515625 19.09375 39.40625 24.09375 39.40625 
C 27.59375 39.40625 35.09375 37.21875 35.09375 20.140625 
C 35.09375 16.953125 35.09375 11.171875 32.09375 6.578125 
C 29.59375 2.484375 25.703125 0.390625 21.40625 0.390625 
C 14.796875 0.390625 8.09375 5 6.296875 12.71875 
C 6.703125 12.609375 7.5 12.421875 7.90625 12.421875 
C 9.203125 12.421875 11.703125 13.125 11.703125 16.21875 
C 11.703125 18.90625 9.796875 20 7.90625 20 
C 5.59375 20 4.09375 18.59375 4.09375 15.796875 
C 4.09375 7.09375 11 -2 21.59375 -2 
C 31.90625 -2 41.703125 6.875 41.703125 19.75 
C 41.703125 31.71875 33.90625 41 24.203125 41 
C 19.09375 41 14.796875 39.109375 11.40625 35.53125 
z
" id="CMR17-53"/>
      </defs>
      <g transform="translate(47.288586 365.261542)scale(0.1 -0.1)">
       <use transform="scale(0.996264)" xlink:href="#CMSY10-0"/>
       <use transform="translate(77.487468 0)scale(0.996264)" xlink:href="#CMR17-53"/>
       <use transform="translate(123.177945 0)scale(0.996264)" xlink:href="#CMR17-48"/>
      </g>
     </g>
    </g>
    <g id="ytick_2">
     <g id="line2d_15">
      <path clip-path="url(#p43f7b04b15)" d="M 72 304.486144 
L 518.4 304.486144 
" style="fill:none;stroke:#b0b0b0;stroke-dasharray:5.12,1.28,0.8,1.28;stroke-dashoffset:0;stroke-width:0.8;"/>
     </g>
     <g id="line2d_16">
      <g>
       <use style="stroke:#000000;stroke-width:0.8;" x="72" xlink:href="#m1cda318c74" y="304.486144"/>
      </g>
     </g>
     <g id="text_9">
      <!-- $-40$ -->
      <g transform="translate(47.288586 307.945393)scale(0.1 -0.1)">
       <use transform="scale(0.996264)" xlink:href="#CMSY10-0"/>
       <use transform="translate(77.487468 0)scale(0.996264)" xlink:href="#CMR17-52"/>
       <use transform="translate(123.177945 0)scale(0.996264)" xlink:href="#CMR17-48"/>
      </g>
     </g>
    </g>
    <g id="ytick_3">
     <g id="line2d_17">
      <path clip-path="url(#p43f7b04b15)" d="M 72 247.169995 
L 518.4 247.169995 
" style="fill:none;stroke:#b0b0b0;stroke-dasharray:5.12,1.28,0.8,1.28;stroke-dashoffset:0;stroke-width:0.8;"/>
     </g>
     <g id="line2d_18">
      <g>
       <use style="stroke:#000000;stroke-width:0.8;" x="72" xlink:href="#m1cda318c74" y="247.169995"/>
      </g>
     </g>
     <g id="text_10">
      <!-- $-30$ -->
      <defs>
       <path d="M 22.09375 33.703125 
C 31 33.703125 34.90625 25.96875 34.90625 17.03125 
C 34.90625 5 28.5 0.390625 22.703125 0.390625 
C 17.40625 0.390625 8.796875 3.03125 6.09375 10.828125 
C 6.59375 10.625 7.09375 10.625 7.59375 10.625 
C 10 10.625 11.796875 12.21875 11.796875 14.8125 
C 11.796875 17.703125 9.59375 19 7.59375 19 
C 5.90625 19 3.296875 18.203125 3.296875 14.46875 
C 3.296875 5.234375 12.296875 -2 22.90625 -2 
C 34 -2 42.5 6.71875 42.5 16.953125 
C 42.5 26.671875 34.5 33.703125 25 34.796875 
C 32.59375 36.375 39.90625 43.0625 39.90625 52.015625 
C 39.90625 59.6875 32 65.296875 23 65.296875 
C 13.90625 65.296875 5.90625 59.828125 5.90625 52.015625 
C 5.90625 48.59375 8.5 48 9.796875 48 
C 11.90625 48 13.703125 49.296875 13.703125 51.890625 
C 13.703125 54.46875 11.90625 55.765625 9.796875 55.765625 
C 9.40625 55.765625 8.90625 55.765625 8.5 55.578125 
C 11.40625 61.859375 19.296875 63 22.796875 63 
C 26.296875 63 32.90625 61.328125 32.90625 51.875 
C 32.90625 49.109375 32.5 44.1875 29.09375 39.84375 
C 26.09375 36 22.703125 36 19.40625 35.6875 
C 18.90625 35.6875 16.59375 35.453125 16.203125 35.453125 
C 15.5 35.359375 15.09375 35.265625 15.09375 34.5 
C 15.09375 33.796875 15.203125 33.703125 17.203125 33.703125 
z
" id="CMR17-51"/>
      </defs>
      <g transform="translate(47.288586 250.629245)scale(0.1 -0.1)">
       <use transform="scale(0.996264)" xlink:href="#CMSY10-0"/>
       <use transform="translate(77.487468 0)scale(0.996264)" xlink:href="#CMR17-51"/>
       <use transform="translate(123.177945 0)scale(0.996264)" xlink:href="#CMR17-48"/>
      </g>
     </g>
    </g>
    <g id="ytick_4">
     <g id="line2d_19">
      <path clip-path="url(#p43f7b04b15)" d="M 72 189.853847 
L 518.4 189.853847 
" style="fill:none;stroke:#b0b0b0;stroke-dasharray:5.12,1.28,0.8,1.28;stroke-dashoffset:0;stroke-width:0.8;"/>
     </g>
     <g id="line2d_20">
      <g>
       <use style="stroke:#000000;stroke-width:0.8;" x="72" xlink:href="#m1cda318c74" y="189.853847"/>
      </g>
     </g>
     <g id="text_11">
      <!-- $-20$ -->
      <g transform="translate(47.288586 193.313096)scale(0.1 -0.1)">
       <use transform="scale(0.996264)" xlink:href="#CMSY10-0"/>
       <use transform="translate(77.487468 0)scale(0.996264)" xlink:href="#CMR17-50"/>
       <use transform="translate(123.177945 0)scale(0.996264)" xlink:href="#CMR17-48"/>
      </g>
     </g>
    </g>
    <g id="ytick_5">
     <g id="line2d_21">
      <path clip-path="url(#p43f7b04b15)" d="M 72 132.537698 
L 518.4 132.537698 
" style="fill:none;stroke:#b0b0b0;stroke-dasharray:5.12,1.28,0.8,1.28;stroke-dashoffset:0;stroke-width:0.8;"/>
     </g>
     <g id="line2d_22">
      <g>
       <use style="stroke:#000000;stroke-width:0.8;" x="72" xlink:href="#m1cda318c74" y="132.537698"/>
      </g>
     </g>
     <g id="text_12">
      <!-- $-10$ -->
      <g transform="translate(47.288586 135.996947)scale(0.1 -0.1)">
       <use transform="scale(0.996264)" xlink:href="#CMSY10-0"/>
       <use transform="translate(77.487468 0)scale(0.996264)" xlink:href="#CMR17-49"/>
       <use transform="translate(123.177945 0)scale(0.996264)" xlink:href="#CMR17-48"/>
      </g>
     </g>
    </g>
    <g id="ytick_6">
     <g id="line2d_23">
      <path clip-path="url(#p43f7b04b15)" d="M 72 75.22155 
L 518.4 75.22155 
" style="fill:none;stroke:#b0b0b0;stroke-dasharray:5.12,1.28,0.8,1.28;stroke-dashoffset:0;stroke-width:0.8;"/>
     </g>
     <g id="line2d_24">
      <g>
       <use style="stroke:#000000;stroke-width:0.8;" x="72" xlink:href="#m1cda318c74" y="75.22155"/>
      </g>
     </g>
     <g id="text_13">
      <!-- $0$ -->
      <g transform="translate(60.018665 78.680799)scale(0.1 -0.1)">
       <use transform="scale(0.996264)" xlink:href="#CMR17-48"/>
      </g>
     </g>
    </g>
    <g id="text_14">
     <!-- $\partial \mathcal{L}/ \partial \mu^{\overline{U}}_{m}$ -->
     <defs>
      <path d="M 45.40625 33.515625 
C 44.796875 39.125 41.296875 45.859375 32.296875 45.859375 
C 18.203125 45.859375 3.796875 31.515625 3.796875 15.5625 
C 3.796875 9.4375 8 -2.09375 21.59375 -2.09375 
C 45.203125 -2.09375 55.296875 32.296875 55.296875 46 
C 55.296875 60.40625 47.203125 71.5 34.40625 71.5 
C 19.90625 71.5 15.59375 58.796875 15.59375 56.09375 
C 15.59375 55.203125 16.203125 53 19 53 
C 22.5 53 24 56.203125 24 57.90625 
C 24 61 20.90625 61 19.59375 61 
C 23.703125 68.40625 31.296875 69.09375 34 69.09375 
C 42.796875 69.09375 48.40625 62.109375 48.40625 50.96875 
C 48.40625 44.578125 46.5 37.1875 45.5 33.515625 
z
M 21.90625 0.59375 
C 12.5 0.59375 10.90625 8.03125 10.90625 12.25 
C 10.90625 16.65625 13.703125 27 15.203125 30.703125 
C 16.5 33.71875 22.203125 43.859375 32.59375 43.859375 
C 41.703125 43.859375 43.796875 35.921875 43.796875 30.515625 
C 43.796875 23.078125 37.296875 0.59375 21.90625 0.59375 
z
" id="CMMI12-64"/>
      <path d="M 18 9.53125 
C 23.40625 17.984375 25.09375 24.40625 26.40625 29.734375 
C 29.90625 43.59375 33.703125 55.65625 39.90625 62.578125 
C 41.09375 63.90625 41.90625 64.796875 45.09375 64.796875 
C 52 64.796875 52.203125 57.875 52.203125 56.453125 
C 52.203125 54.65625 51.703125 53.234375 51.703125 52.734375 
C 51.703125 52.03125 52.296875 52.03125 52.40625 52.03125 
C 54 52.03125 56.703125 53.140625 59.203125 54.953125 
C 61 56.359375 61.90625 57.359375 61.90625 61.46875 
C 61.90625 66.890625 59.09375 71 53.5 71 
C 50.296875 71 41.5 70.203125 31.703125 60.25 
C 23.703125 52.015625 19 33.9375 17.09375 26.40625 
C 15.296875 19.5 14.5 16.375 11.5 10.34375 
C 10.796875 9.15625 8.203125 4.734375 6.796875 3.421875 
C 4.09375 0.921875 3.09375 -0.890625 3.09375 -1.390625 
C 3.09375 -1.59375 3.296875 -2 4 -2 
C 4.40625 -2 6.5 -1.59375 9.09375 0.078125 
C 10.796875 1.0625 11 1.25 13.296875 3.609375 
C 18.296875 3.609375 21.796875 2.703125 28.09375 0.90625 
C 33.203125 -0.5 38.296875 -2 43.40625 -2 
C 51.5 -2 59.703125 4.125 62.90625 8.53125 
C 64.90625 11.234375 65.5 13.75 65.5 14.046875 
C 65.5 14.75 64.90625 14.75 64.796875 14.75 
C 63.203125 14.75 60.796875 13.65625 59.09375 12.4375 
C 56.40625 10.734375 56.203125 10.140625 55.59375 8.421875 
C 55.09375 6.8125 54.5 6.015625 54.09375 5.40625 
C 53.296875 4.203125 53.203125 4.203125 51.703125 4.203125 
C 46.90625 4.203125 41.90625 5.71875 35.296875 7.515625 
C 32.5 8.3125 27 9.9375 22 9.9375 
C 20.703125 9.9375 19.296875 9.828125 18 9.53125 
z
" id="CMSY10-76"/>
      <path d="M 42.90625 71.28125 
C 42.90625 71.390625 43.5 72.90625 43.5 73.09375 
C 43.5 74.296875 42.5 75 41.703125 75 
C 41.203125 75 40.296875 75 39.5 72.796875 
L 6 -21.296875 
C 6 -21.40625 5.40625 -22.890625 5.40625 -23.09375 
C 5.40625 -24.296875 6.40625 -25 7.203125 -25 
C 7.796875 -25 8.703125 -24.890625 9.40625 -22.796875 
z
" id="CMMI12-61"/>
      <path d="M 14.40625 2.1875 
C 16.90625 -0.09375 20.59375 -1 24 -1 
C 30.40625 -1 34.796875 3.25 37.09375 6.328125 
C 38.09375 1.078125 42.296875 -1 45.796875 -1 
C 48.796875 -1 51.203125 0.78125 53 4.328125 
C 54.59375 7.703125 56 13.734375 56 14.109375 
C 56 14.609375 55.59375 15 55 15 
C 54.09375 15 54 14.5 53.59375 13.03125 
C 52.09375 7.203125 50.203125 1 46.09375 1 
C 43.203125 1 43 3.578125 43 5.59375 
C 43 7.875 43.90625 11.484375 44.59375 14.46875 
L 47.40625 25.234375 
C 47.796875 27.140625 48.90625 31.609375 49.40625 33.421875 
C 50 35.8125 51.09375 40.109375 51.09375 40.5 
C 51.09375 42 49.90625 43 48.40625 43 
C 47.5 43 45.40625 42.59375 44.59375 39.609375 
L 37.59375 11.875 
C 37.09375 9.875 37.09375 9.671875 35.796875 8.078125 
C 34.59375 6.390625 30.703125 1 24.40625 1 
C 18.796875 1 17 5.09375 17 9.765625 
C 17 12.671875 17.90625 16.15625 18.296875 17.859375 
L 22.796875 35.828125 
C 23.296875 37.71875 24.09375 40.90625 24.09375 41.515625 
C 24.09375 43.109375 22.796875 44 21.5 44 
C 20.59375 44 18.40625 43.703125 17.59375 40.5 
L 3.09375 -17.296875 
C 3 -17.796875 2.796875 -18.390625 2.796875 -19 
C 2.796875 -20.5 4 -21.5 5.5 -21.5 
C 8.40625 -21.5 9 -19.1875 9.703125 -16.40625 
z
" id="CMMI12-22"/>
      <path d="M 50.59375 23.03125 
C 47.09375 9.078125 35.5 0.890625 26.09375 0.890625 
C 18.90625 0.890625 14 5.671875 14 13.921875 
C 14 14.3125 14 17.296875 15.09375 21.671875 
L 24.90625 60.734375 
C 25.796875 64.109375 26 65.109375 33.09375 65.109375 
C 34.90625 65.109375 35.90625 65.109375 35.90625 66.90625 
C 35.90625 68 35 68 34.40625 68 
C 32.59375 68 30.5 68 28.59375 68 
L 16.796875 68 
C 14.90625 68 12.796875 68 10.90625 68 
C 10.203125 68 9 68 9 66.109375 
C 9 65.109375 9.703125 65.109375 11.59375 65.109375 
C 17.59375 65.109375 17.59375 64.3125 17.59375 63.21875 
C 17.59375 62.625 16.90625 59.75 16.40625 58.046875 
L 7.703125 23.25 
C 7.40625 22.15625 6.796875 19.46875 6.796875 16.796875 
C 6.796875 5.84375 14.703125 -2 25.59375 -2 
C 35.703125 -2 46.90625 6 52 18.703125 
C 52.703125 20.390625 53.59375 23.90625 54.203125 26.59375 
C 55.203125 30.203125 57.296875 39 58 41.59375 
L 61.796875 56.609375 
C 63.09375 61.8125 63.90625 65.109375 72.703125 65.109375 
C 73.5 65.203125 73.90625 66 73.90625 66.90625 
C 73.90625 68 73 68 72.59375 68 
C 71.203125 68 69.40625 68 68 68 
L 63.296875 68 
C 57.09375 68 53.90625 68 53.796875 68 
C 53.203125 68 52 68 52 66.109375 
C 52 65.109375 52.796875 65.109375 53.5 65.109375 
C 59.5 65.109375 59.90625 62.8125 59.90625 61.015625 
C 59.90625 60.125 59.90625 59.8125 59.5 58.421875 
z
" id="CMMI12-85"/>
      <path d="M 20.59375 29.234375 
C 20.796875 29.84375 23.296875 34.828125 27 38.015625 
C 29.59375 40.40625 33 42.015625 36.90625 42.015625 
C 40.90625 42.015625 42.296875 39.015625 42.296875 35.03125 
C 42.296875 34.421875 42.296875 32.4375 41.09375 27.734375 
L 38.59375 17.46875 
C 37.796875 14.46875 35.90625 7.078125 35.703125 5.984375 
C 35.296875 4.484375 34.703125 1.890625 34.703125 1.5 
C 34.703125 0.09375 35.796875 -1 37.296875 -1 
C 40.296875 -1 40.796875 1.296875 41.703125 4.890625 
L 47.703125 28.734375 
C 47.90625 29.53125 53.09375 42.015625 64.09375 42.015625 
C 68.09375 42.015625 69.5 39.015625 69.5 35.03125 
C 69.5 29.4375 65.59375 18.5625 63.40625 12.578125 
C 62.5 10.171875 62 8.875 62 7.078125 
C 62 2.59375 65.09375 -1 69.90625 -1 
C 79.203125 -1 82.703125 13.671875 82.703125 14.265625 
C 82.703125 14.765625 82.296875 15.171875 81.703125 15.171875 
C 80.796875 15.171875 80.703125 14.875 80.203125 13.171875 
C 77.90625 5.1875 74.203125 1 70.203125 1 
C 69.203125 1 67.59375 1 67.59375 4.203125 
C 67.59375 6.8125 68.796875 10 69.203125 11.09375 
C 71 15.90625 75.5 27.703125 75.5 33.515625 
C 75.5 39.5 72 44 64.40625 44 
C 57.703125 44 52.296875 40.21875 48.296875 34.328125 
C 48 39.71875 44.703125 44 37.203125 44 
C 28.296875 44 23.59375 37.734375 21.796875 35.234375 
C 21.5 40.90625 17.40625 44 13 44 
C 10.09375 44 7.796875 42.609375 5.90625 38.8125 
C 4.09375 35.21875 2.703125 29.140625 2.703125 28.734375 
C 2.703125 28.34375 3.09375 27.84375 3.796875 27.84375 
C 4.59375 27.84375 4.703125 27.9375 5.296875 30.234375 
C 6.796875 36.125 8.703125 42.015625 12.703125 42.015625 
C 15 42.015625 15.796875 40.40625 15.796875 37.421875 
C 15.796875 35.21875 14.796875 31.328125 14.09375 28.234375 
L 11.296875 17.46875 
C 10.90625 15.5625 9.796875 11.078125 9.296875 9.28125 
C 8.59375 6.6875 7.5 2 7.5 1.5 
C 7.5 0.09375 8.59375 -1 10.09375 -1 
C 11.296875 -1 12.703125 -0.40625 13.5 1.09375 
C 13.703125 1.59375 14.59375 5.09375 15.09375 7.078125 
L 17.296875 16.0625 
z
" id="CMMI12-109"/>
     </defs>
     <g transform="translate(40.576557 242.881062)rotate(-90)scale(0.14 -0.14)">
      <use transform="translate(0 24.62935)scale(0.996264)" xlink:href="#CMMI12-64"/>
      <use transform="translate(56.915564 24.62935)scale(0.996264)" xlink:href="#CMSY10-76"/>
      <use transform="translate(125.630372 24.62935)scale(0.996264)" xlink:href="#CMMI12-61"/>
      <use transform="translate(174.405291 24.62935)scale(0.996264)" xlink:href="#CMMI12-64"/>
      <use transform="translate(231.320856 24.62935)scale(0.996264)" xlink:href="#CMMI12-22"/>
      <use transform="translate(290.012277 60.782989)scale(0.697382)" xlink:href="#CMMI12-85"/>
      <use transform="translate(290.012277 0)scale(0.697382)" xlink:href="#CMMI12-109"/>
      <path d="M 290.012277 116.805753 
L 344.171317 116.805753 
L 344.171317 119.595204 
L 290.012277 119.595204 
L 290.012277 116.805753 
z
"/>
     </g>
    </g>
   </g>
   <g id="line2d_25">
    <path clip-path="url(#p43f7b04b15)" d="M 92.290909 75.22155 
L 92.66017 218.511921 
L 93.398693 236.617519 
L 94.137216 248.513486 
L 94.875738 257.653119 
L 95.983522 268.272082 
L 97.091306 276.541083 
L 102.260965 312.686365 
L 108.907668 360.58891 
L 109.276929 363.297671 
L 109.646191 364.844061 
L 110.753975 366.345744 
L 111.861759 367.441629 
L 112.969543 368.183299 
L 114.077326 368.661889 
L 115.554372 369.047054 
L 117.400678 369.283196 
L 119.985507 369.359427 
L 124.416643 369.209259 
L 137.71005 368.396516 
L 158.757945 367.006026 
L 159.865729 366.208185 
L 160.604252 365.500331 
L 163.189081 360.805565 
L 165.035388 354.303621 
L 168.728001 338.951491 
L 171.682091 327.523224 
L 173.897659 319.798726 
L 175.743966 314.090038 
L 179.067317 304.342281 
L 183.498453 290.684415 
L 187.929589 276.344488 
L 192.729986 260.043202 
L 197.530383 242.958405 
L 202.700041 223.697313 
L 207.8697 203.558711 
L 213.039358 182.50477 
L 215.254926 172.522017 
L 217.470494 161.44911 
L 219.686062 149.280318 
L 223.009414 130.504694 
L 223.747936 128.05271 
L 224.486459 126.411748 
L 225.224981 125.355412 
L 225.963504 124.686532 
L 226.702027 124.280734 
L 227.809811 123.998165 
L 228.917595 123.964349 
L 230.39464 124.147187 
L 232.610208 124.686532 
L 235.933559 125.780124 
L 240.733956 127.623985 
L 249.596228 131.082441 
L 251.442535 131.43207 
L 254.765886 131.788003 
L 258.827761 132.101522 
L 259.197022 131.894038 
L 259.566283 131.961671 
L 260.674067 132.603039 
L 261.781851 133.47539 
L 262.889635 134.539751 
L 263.997419 138.404579 
L 264.735942 141.027939 
L 265.474464 142.957201 
L 266.212987 144.049647 
L 266.582248 144.309289 
L 266.95151 144.415324 
L 267.690032 144.287509 
L 268.428555 143.871967 
L 272.121168 141.225107 
L 273.228952 140.765431 
L 274.705997 140.277098 
L 275.44452 139.943518 
L 276.552304 139.74635 
L 277.290826 139.809398 
L 278.39861 140.198575 
L 279.506394 140.888088 
L 280.983439 142.154775 
L 282.829746 144.100658 
L 287.999404 149.84259 
L 289.47645 151.132203 
L 290.953495 152.114602 
L 292.061279 152.61096 
L 292.43054 152.713556 
L 293.907585 152.440731 
L 294.276847 152.657386 
L 295.015369 153.556676 
L 296.123153 155.593119 
L 297.600199 158.920895 
L 301.662073 168.735139 
L 302.769857 170.480989 
L 303.877641 171.740224 
L 304.985425 172.628052 
L 306.093209 173.149055 
L 307.200993 173.322723 
L 308.308777 173.187457 
L 309.416561 172.777647 
L 310.524344 172.117938 
L 311.632128 171.232976 
L 313.109174 169.741037 
L 314.586219 167.935578 
L 316.432525 165.299609 
L 318.648093 161.67035 
L 321.232922 156.917695 
L 324.187013 150.955669 
L 327.879626 142.919372 
L 330.095194 138.052085 
L 330.833717 136.798008 
L 331.572239 135.899864 
L 332.310762 135.296898 
L 333.418546 134.705395 
L 334.52633 134.319657 
L 335.634114 134.124209 
L 337.111159 134.093259 
L 340.434511 134.307048 
L 346.342692 134.727748 
L 352.989395 134.944976 
L 365.913541 135.119791 
L 396.56223 135.248752 
L 485.184945 135.275691 
L 498.109091 135.275691 
L 498.109091 135.275691 
" style="fill:none;stroke:#bf00bf;stroke-linecap:square;stroke-width:1.5;"/>
   </g>
   <g id="line2d_26">
    <path clip-path="url(#p43f7b04b15)" d="M 92.290909 75.22155 
L 92.66017 218.511921 
L 93.029432 218.511921 
L 93.398693 219.791218 
L 94.137216 224.09738 
L 104.107271 292.34945 
L 110.015452 333.857804 
L 110.753975 337.391918 
L 111.492497 340.132203 
L 112.23102 342.298754 
L 112.969543 344.008494 
L 113.708065 345.337656 
L 114.446588 346.353298 
L 115.554372 347.431988 
L 116.662156 348.132964 
L 117.76994 348.574872 
L 119.246985 348.890684 
L 121.093291 349.007609 
L 123.678121 348.89355 
L 127.739995 348.441325 
L 139.925618 346.743048 
L 159.127207 344.065237 
L 159.496468 343.703572 
L 160.23499 342.49936 
L 160.604252 341.712983 
L 161.342774 339.190499 
L 162.81982 332.804334 
L 164.666126 324.385738 
L 166.143171 318.572734 
L 169.835785 303.422356 
L 172.420614 293.695806 
L 174.636182 286.2235 
L 176.482488 280.76299 
L 179.067317 273.531412 
L 183.129192 261.21933 
L 187.560328 247.10007 
L 192.360725 231.042378 
L 197.161122 214.205759 
L 202.33078 195.216919 
L 207.500438 175.355154 
L 212.300835 156.136476 
L 213.777881 149.314135 
L 215.993449 137.750602 
L 218.209016 125.041892 
L 220.793846 108.898799 
L 221.90163 102.185359 
L 223.009414 97.110587 
L 223.747936 94.424752 
L 224.486459 92.40837 
L 225.224981 91.004697 
L 225.963504 90.088785 
L 226.702027 89.532819 
L 227.440549 89.240506 
L 228.179072 89.141923 
L 229.286856 89.251397 
L 230.39464 89.576379 
L 231.871685 90.233795 
L 233.717992 91.294144 
L 236.302821 93.070945 
L 239.626173 95.680549 
L 244.057308 99.486914 
L 248.488444 103.308182 
L 249.596228 103.810271 
L 251.073273 104.186839 
L 253.658102 104.535894 
L 259.197022 104.992704 
L 259.935545 104.849986 
L 260.674067 105.078678 
L 262.520374 106.008919 
L 263.258897 106.44968 
L 263.997419 107.424628 
L 264.735942 109.713262 
L 265.474464 111.966359 
L 266.212987 113.394105 
L 266.582248 113.793025 
L 266.95151 114.017131 
L 267.690032 114.068716 
L 268.428555 113.767806 
L 269.536339 112.980855 
L 271.382645 111.613865 
L 272.490429 111.059045 
L 273.967475 110.634332 
L 275.075258 110.394177 
L 276.552304 109.996976 
L 277.290826 110.069195 
L 278.39861 110.480725 
L 279.506394 111.176543 
L 280.983439 112.44151 
L 282.829746 114.381662 
L 287.999404 120.114996 
L 289.47645 121.410341 
L 290.953495 122.403057 
L 292.061279 122.910305 
L 292.43054 123.015766 
L 292.799801 122.938963 
L 294.276847 122.147427 
L 294.646108 122.264925 
L 295.015369 122.587615 
L 295.753892 123.735084 
L 296.861676 126.131472 
L 298.707982 130.774654 
L 300.92355 136.491939 
L 302.031334 138.818975 
L 303.139118 140.510375 
L 304.246902 141.65899 
L 305.354686 142.435051 
L 306.46247 142.870654 
L 307.570254 142.970957 
L 308.678038 142.771497 
L 309.785822 142.306663 
L 310.893606 141.602247 
L 312.370651 140.328682 
L 313.847696 138.719245 
L 315.694003 136.30165 
L 317.540309 133.501183 
L 319.755877 129.723475 
L 322.340706 124.850456 
L 325.294797 118.807615 
L 330.095194 108.669534 
L 331.202978 107.222875 
L 332.310762 106.280024 
L 333.418546 105.693107 
L 334.895591 105.187578 
L 336.372636 104.907876 
L 338.588204 104.778341 
L 342.280817 104.826487 
L 353.727918 105.077531 
L 375.145074 105.199615 
L 425.733874 105.246041 
L 498.109091 105.248907 
L 498.109091 105.248907 
" style="fill:none;stroke:#00bfbf;stroke-linecap:square;stroke-width:1.5;"/>
   </g>
   <g id="line2d_27">
    <path clip-path="url(#p43f7b04b15)" d="M 92.290909 75.22155 
L 92.66017 218.511921 
L 93.398693 218.569237 
L 93.767954 218.72743 
L 94.506477 219.375102 
L 95.245 219.58316 
L 95.614261 220.071494 
L 96.352784 225.478699 
L 97.829829 237.156291 
L 110.753975 326.140185 
L 111.492497 328.778447 
L 112.23102 330.734074 
L 113.338804 332.889161 
L 114.077326 333.930596 
L 114.815849 334.702644 
L 115.554372 335.248294 
L 116.662156 335.746371 
L 117.76994 335.973917 
L 119.246985 336.000282 
L 121.093291 335.749237 
L 123.678121 335.114748 
L 128.109256 333.72827 
L 150.264935 326.513313 
L 158.757945 323.804552 
L 159.127207 322.530414 
L 159.865729 317.416667 
L 160.604252 312.078241 
L 160.973513 309.978177 
L 162.081297 300.512989 
L 163.927604 284.931594 
L 164.296865 285.288673 
L 164.666126 284.403712 
L 165.77391 280.008136 
L 169.097262 266.276907 
L 172.051352 254.957541 
L 174.26692 247.331054 
L 176.113227 241.711205 
L 179.80584 231.059572 
L 184.236976 217.425207 
L 189.037373 201.887372 
L 193.83777 185.559721 
L 198.638167 168.454863 
L 203.807825 149.180588 
L 208.977484 129.036828 
L 213.408619 111.004021 
L 215.624187 100.993183 
L 217.839755 89.889898 
L 220.055323 77.6999 
L 221.163107 71.204834 
L 221.532368 69.900892 
L 223.009414 67.811145 
L 223.747936 67.441456 
L 225.224981 67.096986 
L 227.071288 66.962293 
L 229.656117 67.037377 
L 234.456514 67.457504 
L 243.318786 68.498939 
L 249.965489 69.209086 
L 256.242932 69.384473 
L 258.827761 69.437777 
L 259.197022 69.217683 
L 259.566283 69.410839 
L 260.674067 69.44007 
L 261.781851 69.53808 
L 262.889635 69.753589 
L 263.997419 72.121319 
L 264.36668 74.445489 
L 264.735942 75.970099 
L 265.105203 76.618344 
L 265.474464 76.767366 
L 265.843726 76.663624 
L 266.582248 76.121986 
L 269.9056 73.182241 
L 271.382645 72.255439 
L 273.598213 72.062284 
L 275.075258 72.094381 
L 276.183042 72.245695 
L 277.290826 73.157022 
L 278.767872 74.584767 
L 280.614178 76.705465 
L 286.522359 83.86024 
L 287.999404 85.253595 
L 289.47645 86.327127 
L 290.584234 86.88424 
L 291.692018 87.204637 
L 292.061279 87.256221 
L 292.799801 92.670305 
L 293.169063 94.31929 
L 293.538324 95.047779 
L 294.646108 95.777413 
L 295.015369 96.454317 
L 295.753892 98.673025 
L 297.230937 103.834344 
L 298.338721 106.899039 
L 299.446505 109.400889 
L 300.185028 110.716867 
L 300.92355 111.632779 
L 301.662073 112.359548 
L 302.400596 113.129877 
L 303.139118 113.494408 
L 303.877641 113.512749 
L 304.985425 113.27718 
L 306.093209 112.878259 
L 307.200993 112.242623 
L 308.308777 111.36454 
L 309.785822 109.893234 
L 311.262867 108.122165 
L 313.109174 105.538926 
L 315.324742 101.987618 
L 317.909571 97.340998 
L 320.863661 91.514811 
L 324.556274 83.666511 
L 329.356671 73.199436 
L 330.833717 72.811979 
L 332.310762 72.121892 
L 333.049284 72.127624 
L 334.52633 72.614811 
L 336.003375 72.994244 
L 342.280817 74.238005 
L 345.604169 74.53261 
L 351.143089 74.76474 
L 362.959451 74.987127 
L 381.791778 75.141307 
L 420.933477 75.212952 
L 498.109091 75.22155 
L 498.109091 75.22155 
" style="fill:none;stroke:#ff0000;stroke-linecap:square;stroke-width:1.5;"/>
   </g>
   <g id="line2d_28">
    <path clip-path="url(#p43f7b04b15)" d="M 92.290909 75.22155 
L 92.66017 218.511921 
L 93.029432 218.511921 
L 93.398693 219.791218 
L 94.137216 224.09738 
L 96.352784 238.490038 
L 97.829829 247.603306 
L 101.522442 273.170893 
L 107.799884 317.443033 
L 110.015452 332.703457 
L 111.123236 337.957629 
L 111.861759 340.635439 
L 112.600281 342.7206 
L 113.338804 344.303099 
L 114.077326 345.493556 
L 115.18511 346.753365 
L 116.292894 347.5684 
L 117.400678 348.067624 
L 118.508462 348.340449 
L 119.985507 348.467118 
L 121.831814 348.389168 
L 124.416643 348.042978 
L 128.847779 347.194126 
L 158.388684 341.202869 
L 158.757945 340.163727 
L 159.496468 336.31724 
L 160.604252 329.033504 
L 162.450558 311.875342 
L 163.927604 298.059284 
L 164.296865 297.43855 
L 165.404649 292.375242 
L 166.512433 287.972788 
L 170.205046 273.02703 
L 172.789875 263.413965 
L 175.005443 256.053998 
L 176.85175 250.697804 
L 178.328795 246.462141 
L 183.498453 230.753504 
L 187.929589 216.570623 
L 192.729986 200.444152 
L 197.530383 183.537034 
L 202.700041 164.470817 
L 207.8697 144.529956 
L 213.039358 123.726487 
L 215.254926 114.08935 
L 217.470494 103.390717 
L 219.686062 91.599066 
L 222.270891 77.403575 
L 223.378675 72.762687 
L 224.117197 72.368925 
L 225.224981 71.949944 
L 226.702027 71.690302 
L 228.548333 71.631839 
L 231.871685 71.814105 
L 238.518389 72.465789 
L 251.073273 73.726745 
L 258.089238 73.964607 
L 259.197022 73.994984 
L 259.566283 75.556849 
L 263.258897 82.738563 
L 263.628158 86.682487 
L 263.997419 89.19408 
L 264.36668 90.783457 
L 264.735942 91.473544 
L 265.105203 91.624858 
L 265.474464 91.485007 
L 266.212987 90.817274 
L 268.428555 88.542969 
L 269.536339 87.615594 
L 271.382645 86.426857 
L 272.490429 85.967181 
L 273.598213 85.783196 
L 274.705997 85.826183 
L 275.44452 86.34776 
L 277.660088 88.367008 
L 279.506394 90.447011 
L 282.460485 94.231024 
L 285.414575 97.904989 
L 287.260882 99.82336 
L 288.737927 101.020694 
L 289.845711 101.677538 
L 290.953495 102.101104 
L 292.061279 102.273052 
L 292.43054 102.247833 
L 293.169063 101.667221 
L 293.538324 101.765804 
L 293.907585 102.31432 
L 294.646108 104.50265 
L 297.230937 113.772391 
L 299.077244 119.530945 
L 300.185028 122.315363 
L 300.92355 123.69439 
L 301.662073 124.622338 
L 302.400596 125.084306 
L 303.50838 125.319303 
L 304.616163 125.345095 
L 305.723947 125.11755 
L 306.831731 124.600558 
L 307.939515 123.845131 
L 309.416561 122.524567 
L 310.893606 120.880167 
L 312.739912 118.43334 
L 314.586219 115.617398 
L 316.801787 111.836252 
L 319.386616 106.976415 
L 322.709968 100.186745 
L 326.771842 91.298156 
L 329.725933 84.773286 
L 330.464455 83.703766 
L 331.202978 83.201677 
L 331.941501 83.14608 
L 334.895591 83.696315 
L 336.741898 84.31361 
L 338.957465 84.955551 
L 341.911556 85.550493 
L 344.865646 85.887512 
L 349.296782 86.141995 
L 358.159054 86.362663 
L 374.406551 86.556391 
L 410.224899 86.668158 
L 492.20091 86.684779 
L 498.109091 86.684779 
L 498.109091 86.684779 
" style="fill:none;stroke:#008000;stroke-linecap:square;stroke-width:1.5;"/>
   </g>
   <g id="patch_3">
    <path d="M 72 384.48 
L 72 51.84 
" style="fill:none;stroke:#000000;stroke-linecap:square;stroke-linejoin:miter;stroke-width:0.8;"/>
   </g>
   <g id="patch_4">
    <path d="M 518.4 384.48 
L 518.4 51.84 
" style="fill:none;stroke:#000000;stroke-linecap:square;stroke-linejoin:miter;stroke-width:0.8;"/>
   </g>
   <g id="patch_5">
    <path d="M 72 384.48 
L 518.4 384.48 
" style="fill:none;stroke:#000000;stroke-linecap:square;stroke-linejoin:miter;stroke-width:0.8;"/>
   </g>
   <g id="patch_6">
    <path d="M 72 51.84 
L 518.4 51.84 
" style="fill:none;stroke:#000000;stroke-linecap:square;stroke-linejoin:miter;stroke-width:0.8;"/>
   </g>
   <g id="legend_1">
    <g id="patch_7">
     <path d="M 443.185706 379.48 
L 511.4 379.48 
Q 513.4 379.48 513.4 377.48 
L 513.4 310.531024 
Q 513.4 308.531024 511.4 308.531024 
L 443.185706 308.531024 
Q 441.185706 308.531024 441.185706 310.531024 
L 441.185706 377.48 
Q 441.185706 379.48 443.185706 379.48 
z
" style="fill:#ffffff;opacity:0.8;stroke:#cccccc;stroke-linejoin:miter;"/>
    </g>
    <g id="line2d_29">
     <path d="M 445.185706 319.08109 
L 465.185706 319.08109 
" style="fill:none;stroke:#bf00bf;stroke-linecap:square;stroke-width:1.5;"/>
    </g>
    <g id="line2d_30"/>
    <g id="text_15">
     <!-- $\partial \mathcal{L}/ \partial \mu^{\overline{U}}_{1}$ -->
     <g transform="translate(473.185706 322.58109)scale(0.1 -0.1)">
      <use transform="translate(0 24.740171)scale(0.996264)" xlink:href="#CMMI12-64"/>
      <use transform="translate(56.915564 24.740171)scale(0.996264)" xlink:href="#CMSY10-76"/>
      <use transform="translate(125.630372 24.740171)scale(0.996264)" xlink:href="#CMMI12-61"/>
      <use transform="translate(174.405291 24.740171)scale(0.996264)" xlink:href="#CMMI12-64"/>
      <use transform="translate(231.320856 24.740171)scale(0.996264)" xlink:href="#CMMI12-22"/>
      <use transform="translate(290.012277 60.89381)scale(0.697382)" xlink:href="#CMMI12-85"/>
      <use transform="translate(290.012277 0)scale(0.697382)" xlink:href="#CMR17-49"/>
      <path d="M 290.012277 116.916574 
L 344.171317 116.916574 
L 344.171317 119.706025 
L 290.012277 119.706025 
L 290.012277 116.916574 
z
"/>
     </g>
    </g>
    <g id="line2d_31">
     <path d="M 445.185706 336.068334 
L 465.185706 336.068334 
" style="fill:none;stroke:#00bfbf;stroke-linecap:square;stroke-width:1.5;"/>
    </g>
    <g id="line2d_32"/>
    <g id="text_16">
     <!-- $\partial \mathcal{L}/ \partial \mu^{\overline{U}}_{2}$ -->
     <g transform="translate(473.185706 339.568334)scale(0.1 -0.1)">
      <use transform="translate(0 24.740171)scale(0.996264)" xlink:href="#CMMI12-64"/>
      <use transform="translate(56.915564 24.740171)scale(0.996264)" xlink:href="#CMSY10-76"/>
      <use transform="translate(125.630372 24.740171)scale(0.996264)" xlink:href="#CMMI12-61"/>
      <use transform="translate(174.405291 24.740171)scale(0.996264)" xlink:href="#CMMI12-64"/>
      <use transform="translate(231.320856 24.740171)scale(0.996264)" xlink:href="#CMMI12-22"/>
      <use transform="translate(290.012277 60.89381)scale(0.697382)" xlink:href="#CMMI12-85"/>
      <use transform="translate(290.012277 0)scale(0.697382)" xlink:href="#CMR17-50"/>
      <path d="M 290.012277 116.916574 
L 344.171317 116.916574 
L 344.171317 119.706025 
L 290.012277 119.706025 
L 290.012277 116.916574 
z
"/>
     </g>
    </g>
    <g id="line2d_33">
     <path d="M 445.185706 353.055578 
L 465.185706 353.055578 
" style="fill:none;stroke:#ff0000;stroke-linecap:square;stroke-width:1.5;"/>
    </g>
    <g id="line2d_34"/>
    <g id="text_17">
     <!-- $\partial \mathcal{L}/ \partial \mu^{\overline{U}}_{3}$ -->
     <g transform="translate(473.185706 356.555578)scale(0.1 -0.1)">
      <use transform="translate(0 24.740171)scale(0.996264)" xlink:href="#CMMI12-64"/>
      <use transform="translate(56.915564 24.740171)scale(0.996264)" xlink:href="#CMSY10-76"/>
      <use transform="translate(125.630372 24.740171)scale(0.996264)" xlink:href="#CMMI12-61"/>
      <use transform="translate(174.405291 24.740171)scale(0.996264)" xlink:href="#CMMI12-64"/>
      <use transform="translate(231.320856 24.740171)scale(0.996264)" xlink:href="#CMMI12-22"/>
      <use transform="translate(290.012277 60.89381)scale(0.697382)" xlink:href="#CMMI12-85"/>
      <use transform="translate(290.012277 0)scale(0.697382)" xlink:href="#CMR17-51"/>
      <path d="M 290.012277 116.916574 
L 344.171317 116.916574 
L 344.171317 119.706025 
L 290.012277 119.706025 
L 290.012277 116.916574 
z
"/>
     </g>
    </g>
    <g id="line2d_35">
     <path d="M 445.185706 370.042822 
L 465.185706 370.042822 
" style="fill:none;stroke:#008000;stroke-linecap:square;stroke-width:1.5;"/>
    </g>
    <g id="line2d_36"/>
    <g id="text_18">
     <!-- $\partial \mathcal{L}/ \partial \mu^{\overline{U}}_{4}$ -->
     <g transform="translate(473.185706 373.542822)scale(0.1 -0.1)">
      <use transform="translate(0 24.740171)scale(0.996264)" xlink:href="#CMMI12-64"/>
      <use transform="translate(56.915564 24.740171)scale(0.996264)" xlink:href="#CMSY10-76"/>
      <use transform="translate(125.630372 24.740171)scale(0.996264)" xlink:href="#CMMI12-61"/>
      <use transform="translate(174.405291 24.740171)scale(0.996264)" xlink:href="#CMMI12-64"/>
      <use transform="translate(231.320856 24.740171)scale(0.996264)" xlink:href="#CMMI12-22"/>
      <use transform="translate(290.012277 60.89381)scale(0.697382)" xlink:href="#CMMI12-85"/>
      <use transform="translate(290.012277 0)scale(0.697382)" xlink:href="#CMR17-52"/>
      <path d="M 290.012277 116.916574 
L 344.171317 116.916574 
L 344.171317 119.706025 
L 290.012277 119.706025 
L 290.012277 116.916574 
z
"/>
     </g>
    </g>
   </g>
  </g>
 </g>
 <defs>
  <clipPath id="p43f7b04b15">
   <rect height="332.64" width="446.4" x="72" y="51.84"/>
  </clipPath>
 </defs>
</svg>
