<?xml version="1.0" encoding="utf-8" standalone="no"?>
<!DOCTYPE svg PUBLIC "-//W3C//DTD SVG 1.1//EN"
  "http://www.w3.org/Graphics/SVG/1.1/DTD/svg11.dtd">
<!-- Created with matplotlib (http://matplotlib.org/) -->
<svg height="432pt" version="1.1" viewBox="0 0 576 432" width="576pt" xmlns="http://www.w3.org/2000/svg" xmlns:xlink="http://www.w3.org/1999/xlink">
 <defs>
  <style type="text/css">
*{stroke-linecap:butt;stroke-linejoin:round;}
  </style>
 </defs>
 <g id="figure_1">
  <g id="patch_1">
   <path d="M 0 432 
L 576 432 
L 576 0 
L 0 0 
z
" style="fill:#ffffff;"/>
  </g>
  <g id="axes_1">
   <g id="patch_2">
    <path d="M 72 384.48 
L 518.4 384.48 
L 518.4 51.84 
L 72 51.84 
z
" style="fill:#ffffff;"/>
   </g>
   <g id="matplotlib.axis_1">
    <g id="xtick_1">
     <g id="line2d_1">
      <path clip-path="url(#p3d3021ab06)" d="M 92.290909 384.48 
L 92.290909 51.84 
" style="fill:none;stroke:#b0b0b0;stroke-dasharray:5.12,1.28,0.8,1.28;stroke-dashoffset:0;stroke-width:0.8;"/>
     </g>
     <g id="line2d_2">
      <defs>
       <path d="M 0 0 
L 0 3.5 
" id="mc0c595a9b9" style="stroke:#000000;stroke-width:0.8;"/>
      </defs>
      <g>
       <use style="stroke:#000000;stroke-width:0.8;" x="92.290909" xlink:href="#mc0c595a9b9" y="384.48"/>
      </g>
     </g>
     <g id="text_1">
      <!-- 0 -->
      <defs>
       <path d="M 31.78125 66.40625 
Q 24.171875 66.40625 20.328125 58.90625 
Q 16.5 51.421875 16.5 36.375 
Q 16.5 21.390625 20.328125 13.890625 
Q 24.171875 6.390625 31.78125 6.390625 
Q 39.453125 6.390625 43.28125 13.890625 
Q 47.125 21.390625 47.125 36.375 
Q 47.125 51.421875 43.28125 58.90625 
Q 39.453125 66.40625 31.78125 66.40625 
z
M 31.78125 74.21875 
Q 44.046875 74.21875 50.515625 64.515625 
Q 56.984375 54.828125 56.984375 36.375 
Q 56.984375 17.96875 50.515625 8.265625 
Q 44.046875 -1.421875 31.78125 -1.421875 
Q 19.53125 -1.421875 13.0625 8.265625 
Q 6.59375 17.96875 6.59375 36.375 
Q 6.59375 54.828125 13.0625 64.515625 
Q 19.53125 74.21875 31.78125 74.21875 
z
" id="DejaVuSans-30"/>
      </defs>
      <g transform="translate(89.109659 399.078438)scale(0.1 -0.1)">
       <use xlink:href="#DejaVuSans-30"/>
      </g>
     </g>
    </g>
    <g id="xtick_2">
     <g id="line2d_3">
      <path clip-path="url(#p3d3021ab06)" d="M 160.404065 384.48 
L 160.404065 51.84 
" style="fill:none;stroke:#b0b0b0;stroke-dasharray:5.12,1.28,0.8,1.28;stroke-dashoffset:0;stroke-width:0.8;"/>
     </g>
     <g id="line2d_4">
      <g>
       <use style="stroke:#000000;stroke-width:0.8;" x="160.404065" xlink:href="#mc0c595a9b9" y="384.48"/>
      </g>
     </g>
     <g id="text_2">
      <!-- 500 -->
      <defs>
       <path d="M 10.796875 72.90625 
L 49.515625 72.90625 
L 49.515625 64.59375 
L 19.828125 64.59375 
L 19.828125 46.734375 
Q 21.96875 47.46875 24.109375 47.828125 
Q 26.265625 48.1875 28.421875 48.1875 
Q 40.625 48.1875 47.75 41.5 
Q 54.890625 34.8125 54.890625 23.390625 
Q 54.890625 11.625 47.5625 5.09375 
Q 40.234375 -1.421875 26.90625 -1.421875 
Q 22.3125 -1.421875 17.546875 -0.640625 
Q 12.796875 0.140625 7.71875 1.703125 
L 7.71875 11.625 
Q 12.109375 9.234375 16.796875 8.0625 
Q 21.484375 6.890625 26.703125 6.890625 
Q 35.15625 6.890625 40.078125 11.328125 
Q 45.015625 15.765625 45.015625 23.390625 
Q 45.015625 31 40.078125 35.4375 
Q 35.15625 39.890625 26.703125 39.890625 
Q 22.75 39.890625 18.8125 39.015625 
Q 14.890625 38.140625 10.796875 36.28125 
z
" id="DejaVuSans-35"/>
      </defs>
      <g transform="translate(150.860315 399.078438)scale(0.1 -0.1)">
       <use xlink:href="#DejaVuSans-35"/>
       <use x="63.623047" xlink:href="#DejaVuSans-30"/>
       <use x="127.246094" xlink:href="#DejaVuSans-30"/>
      </g>
     </g>
    </g>
    <g id="xtick_3">
     <g id="line2d_5">
      <path clip-path="url(#p3d3021ab06)" d="M 228.517221 384.48 
L 228.517221 51.84 
" style="fill:none;stroke:#b0b0b0;stroke-dasharray:5.12,1.28,0.8,1.28;stroke-dashoffset:0;stroke-width:0.8;"/>
     </g>
     <g id="line2d_6">
      <g>
       <use style="stroke:#000000;stroke-width:0.8;" x="228.517221" xlink:href="#mc0c595a9b9" y="384.48"/>
      </g>
     </g>
     <g id="text_3">
      <!-- 1000 -->
      <defs>
       <path d="M 12.40625 8.296875 
L 28.515625 8.296875 
L 28.515625 63.921875 
L 10.984375 60.40625 
L 10.984375 69.390625 
L 28.421875 72.90625 
L 38.28125 72.90625 
L 38.28125 8.296875 
L 54.390625 8.296875 
L 54.390625 0 
L 12.40625 0 
z
" id="DejaVuSans-31"/>
      </defs>
      <g transform="translate(215.792221 399.078438)scale(0.1 -0.1)">
       <use xlink:href="#DejaVuSans-31"/>
       <use x="63.623047" xlink:href="#DejaVuSans-30"/>
       <use x="127.246094" xlink:href="#DejaVuSans-30"/>
       <use x="190.869141" xlink:href="#DejaVuSans-30"/>
      </g>
     </g>
    </g>
    <g id="xtick_4">
     <g id="line2d_7">
      <path clip-path="url(#p3d3021ab06)" d="M 296.630376 384.48 
L 296.630376 51.84 
" style="fill:none;stroke:#b0b0b0;stroke-dasharray:5.12,1.28,0.8,1.28;stroke-dashoffset:0;stroke-width:0.8;"/>
     </g>
     <g id="line2d_8">
      <g>
       <use style="stroke:#000000;stroke-width:0.8;" x="296.630376" xlink:href="#mc0c595a9b9" y="384.48"/>
      </g>
     </g>
     <g id="text_4">
      <!-- 1500 -->
      <g transform="translate(283.905376 399.078438)scale(0.1 -0.1)">
       <use xlink:href="#DejaVuSans-31"/>
       <use x="63.623047" xlink:href="#DejaVuSans-35"/>
       <use x="127.246094" xlink:href="#DejaVuSans-30"/>
       <use x="190.869141" xlink:href="#DejaVuSans-30"/>
      </g>
     </g>
    </g>
    <g id="xtick_5">
     <g id="line2d_9">
      <path clip-path="url(#p3d3021ab06)" d="M 364.743532 384.48 
L 364.743532 51.84 
" style="fill:none;stroke:#b0b0b0;stroke-dasharray:5.12,1.28,0.8,1.28;stroke-dashoffset:0;stroke-width:0.8;"/>
     </g>
     <g id="line2d_10">
      <g>
       <use style="stroke:#000000;stroke-width:0.8;" x="364.743532" xlink:href="#mc0c595a9b9" y="384.48"/>
      </g>
     </g>
     <g id="text_5">
      <!-- 2000 -->
      <defs>
       <path d="M 19.1875 8.296875 
L 53.609375 8.296875 
L 53.609375 0 
L 7.328125 0 
L 7.328125 8.296875 
Q 12.9375 14.109375 22.625 23.890625 
Q 32.328125 33.6875 34.8125 36.53125 
Q 39.546875 41.84375 41.421875 45.53125 
Q 43.3125 49.21875 43.3125 52.78125 
Q 43.3125 58.59375 39.234375 62.25 
Q 35.15625 65.921875 28.609375 65.921875 
Q 23.96875 65.921875 18.8125 64.3125 
Q 13.671875 62.703125 7.8125 59.421875 
L 7.8125 69.390625 
Q 13.765625 71.78125 18.9375 73 
Q 24.125 74.21875 28.421875 74.21875 
Q 39.75 74.21875 46.484375 68.546875 
Q 53.21875 62.890625 53.21875 53.421875 
Q 53.21875 48.921875 51.53125 44.890625 
Q 49.859375 40.875 45.40625 35.40625 
Q 44.1875 33.984375 37.640625 27.21875 
Q 31.109375 20.453125 19.1875 8.296875 
z
" id="DejaVuSans-32"/>
      </defs>
      <g transform="translate(352.018532 399.078438)scale(0.1 -0.1)">
       <use xlink:href="#DejaVuSans-32"/>
       <use x="63.623047" xlink:href="#DejaVuSans-30"/>
       <use x="127.246094" xlink:href="#DejaVuSans-30"/>
       <use x="190.869141" xlink:href="#DejaVuSans-30"/>
      </g>
     </g>
    </g>
    <g id="xtick_6">
     <g id="line2d_11">
      <path clip-path="url(#p3d3021ab06)" d="M 432.856688 384.48 
L 432.856688 51.84 
" style="fill:none;stroke:#b0b0b0;stroke-dasharray:5.12,1.28,0.8,1.28;stroke-dashoffset:0;stroke-width:0.8;"/>
     </g>
     <g id="line2d_12">
      <g>
       <use style="stroke:#000000;stroke-width:0.8;" x="432.856688" xlink:href="#mc0c595a9b9" y="384.48"/>
      </g>
     </g>
     <g id="text_6">
      <!-- 2500 -->
      <g transform="translate(420.131688 399.078438)scale(0.1 -0.1)">
       <use xlink:href="#DejaVuSans-32"/>
       <use x="63.623047" xlink:href="#DejaVuSans-35"/>
       <use x="127.246094" xlink:href="#DejaVuSans-30"/>
       <use x="190.869141" xlink:href="#DejaVuSans-30"/>
      </g>
     </g>
    </g>
    <g id="xtick_7">
     <g id="line2d_13">
      <path clip-path="url(#p3d3021ab06)" d="M 500.969843 384.48 
L 500.969843 51.84 
" style="fill:none;stroke:#b0b0b0;stroke-dasharray:5.12,1.28,0.8,1.28;stroke-dashoffset:0;stroke-width:0.8;"/>
     </g>
     <g id="line2d_14">
      <g>
       <use style="stroke:#000000;stroke-width:0.8;" x="500.969843" xlink:href="#mc0c595a9b9" y="384.48"/>
      </g>
     </g>
     <g id="text_7">
      <!-- 3000 -->
      <defs>
       <path d="M 40.578125 39.3125 
Q 47.65625 37.796875 51.625 33 
Q 55.609375 28.21875 55.609375 21.1875 
Q 55.609375 10.40625 48.1875 4.484375 
Q 40.765625 -1.421875 27.09375 -1.421875 
Q 22.515625 -1.421875 17.65625 -0.515625 
Q 12.796875 0.390625 7.625 2.203125 
L 7.625 11.71875 
Q 11.71875 9.328125 16.59375 8.109375 
Q 21.484375 6.890625 26.8125 6.890625 
Q 36.078125 6.890625 40.9375 10.546875 
Q 45.796875 14.203125 45.796875 21.1875 
Q 45.796875 27.640625 41.28125 31.265625 
Q 36.765625 34.90625 28.71875 34.90625 
L 20.21875 34.90625 
L 20.21875 43.015625 
L 29.109375 43.015625 
Q 36.375 43.015625 40.234375 45.921875 
Q 44.09375 48.828125 44.09375 54.296875 
Q 44.09375 59.90625 40.109375 62.90625 
Q 36.140625 65.921875 28.71875 65.921875 
Q 24.65625 65.921875 20.015625 65.03125 
Q 15.375 64.15625 9.8125 62.3125 
L 9.8125 71.09375 
Q 15.4375 72.65625 20.34375 73.4375 
Q 25.25 74.21875 29.59375 74.21875 
Q 40.828125 74.21875 47.359375 69.109375 
Q 53.90625 64.015625 53.90625 55.328125 
Q 53.90625 49.265625 50.4375 45.09375 
Q 46.96875 40.921875 40.578125 39.3125 
z
" id="DejaVuSans-33"/>
      </defs>
      <g transform="translate(488.244843 399.078438)scale(0.1 -0.1)">
       <use xlink:href="#DejaVuSans-33"/>
       <use x="63.623047" xlink:href="#DejaVuSans-30"/>
       <use x="127.246094" xlink:href="#DejaVuSans-30"/>
       <use x="190.869141" xlink:href="#DejaVuSans-30"/>
      </g>
     </g>
    </g>
    <g id="text_8">
     <!-- Iteration -->
     <defs>
      <path d="M 9.8125 72.90625 
L 19.671875 72.90625 
L 19.671875 0 
L 9.8125 0 
z
" id="DejaVuSans-49"/>
      <path d="M 18.3125 70.21875 
L 18.3125 54.6875 
L 36.8125 54.6875 
L 36.8125 47.703125 
L 18.3125 47.703125 
L 18.3125 18.015625 
Q 18.3125 11.328125 20.140625 9.421875 
Q 21.96875 7.515625 27.59375 7.515625 
L 36.8125 7.515625 
L 36.8125 0 
L 27.59375 0 
Q 17.1875 0 13.234375 3.875 
Q 9.28125 7.765625 9.28125 18.015625 
L 9.28125 47.703125 
L 2.6875 47.703125 
L 2.6875 54.6875 
L 9.28125 54.6875 
L 9.28125 70.21875 
z
" id="DejaVuSans-74"/>
      <path d="M 56.203125 29.59375 
L 56.203125 25.203125 
L 14.890625 25.203125 
Q 15.484375 15.921875 20.484375 11.0625 
Q 25.484375 6.203125 34.421875 6.203125 
Q 39.59375 6.203125 44.453125 7.46875 
Q 49.3125 8.734375 54.109375 11.28125 
L 54.109375 2.78125 
Q 49.265625 0.734375 44.1875 -0.34375 
Q 39.109375 -1.421875 33.890625 -1.421875 
Q 20.796875 -1.421875 13.15625 6.1875 
Q 5.515625 13.8125 5.515625 26.8125 
Q 5.515625 40.234375 12.765625 48.109375 
Q 20.015625 56 32.328125 56 
Q 43.359375 56 49.78125 48.890625 
Q 56.203125 41.796875 56.203125 29.59375 
z
M 47.21875 32.234375 
Q 47.125 39.59375 43.09375 43.984375 
Q 39.0625 48.390625 32.421875 48.390625 
Q 24.90625 48.390625 20.390625 44.140625 
Q 15.875 39.890625 15.1875 32.171875 
z
" id="DejaVuSans-65"/>
      <path d="M 41.109375 46.296875 
Q 39.59375 47.171875 37.8125 47.578125 
Q 36.03125 48 33.890625 48 
Q 26.265625 48 22.1875 43.046875 
Q 18.109375 38.09375 18.109375 28.8125 
L 18.109375 0 
L 9.078125 0 
L 9.078125 54.6875 
L 18.109375 54.6875 
L 18.109375 46.1875 
Q 20.953125 51.171875 25.484375 53.578125 
Q 30.03125 56 36.53125 56 
Q 37.453125 56 38.578125 55.875 
Q 39.703125 55.765625 41.0625 55.515625 
z
" id="DejaVuSans-72"/>
      <path d="M 34.28125 27.484375 
Q 23.390625 27.484375 19.1875 25 
Q 14.984375 22.515625 14.984375 16.5 
Q 14.984375 11.71875 18.140625 8.90625 
Q 21.296875 6.109375 26.703125 6.109375 
Q 34.1875 6.109375 38.703125 11.40625 
Q 43.21875 16.703125 43.21875 25.484375 
L 43.21875 27.484375 
z
M 52.203125 31.203125 
L 52.203125 0 
L 43.21875 0 
L 43.21875 8.296875 
Q 40.140625 3.328125 35.546875 0.953125 
Q 30.953125 -1.421875 24.3125 -1.421875 
Q 15.921875 -1.421875 10.953125 3.296875 
Q 6 8.015625 6 15.921875 
Q 6 25.140625 12.171875 29.828125 
Q 18.359375 34.515625 30.609375 34.515625 
L 43.21875 34.515625 
L 43.21875 35.40625 
Q 43.21875 41.609375 39.140625 45 
Q 35.0625 48.390625 27.6875 48.390625 
Q 23 48.390625 18.546875 47.265625 
Q 14.109375 46.140625 10.015625 43.890625 
L 10.015625 52.203125 
Q 14.9375 54.109375 19.578125 55.046875 
Q 24.21875 56 28.609375 56 
Q 40.484375 56 46.34375 49.84375 
Q 52.203125 43.703125 52.203125 31.203125 
z
" id="DejaVuSans-61"/>
      <path d="M 9.421875 54.6875 
L 18.40625 54.6875 
L 18.40625 0 
L 9.421875 0 
z
M 9.421875 75.984375 
L 18.40625 75.984375 
L 18.40625 64.59375 
L 9.421875 64.59375 
z
" id="DejaVuSans-69"/>
      <path d="M 30.609375 48.390625 
Q 23.390625 48.390625 19.1875 42.75 
Q 14.984375 37.109375 14.984375 27.296875 
Q 14.984375 17.484375 19.15625 11.84375 
Q 23.34375 6.203125 30.609375 6.203125 
Q 37.796875 6.203125 41.984375 11.859375 
Q 46.1875 17.53125 46.1875 27.296875 
Q 46.1875 37.015625 41.984375 42.703125 
Q 37.796875 48.390625 30.609375 48.390625 
z
M 30.609375 56 
Q 42.328125 56 49.015625 48.375 
Q 55.71875 40.765625 55.71875 27.296875 
Q 55.71875 13.875 49.015625 6.21875 
Q 42.328125 -1.421875 30.609375 -1.421875 
Q 18.84375 -1.421875 12.171875 6.21875 
Q 5.515625 13.875 5.515625 27.296875 
Q 5.515625 40.765625 12.171875 48.375 
Q 18.84375 56 30.609375 56 
z
" id="DejaVuSans-6f"/>
      <path d="M 54.890625 33.015625 
L 54.890625 0 
L 45.90625 0 
L 45.90625 32.71875 
Q 45.90625 40.484375 42.875 44.328125 
Q 39.84375 48.1875 33.796875 48.1875 
Q 26.515625 48.1875 22.3125 43.546875 
Q 18.109375 38.921875 18.109375 30.90625 
L 18.109375 0 
L 9.078125 0 
L 9.078125 54.6875 
L 18.109375 54.6875 
L 18.109375 46.1875 
Q 21.34375 51.125 25.703125 53.5625 
Q 30.078125 56 35.796875 56 
Q 45.21875 56 50.046875 50.171875 
Q 54.890625 44.34375 54.890625 33.015625 
z
" id="DejaVuSans-6e"/>
     </defs>
     <g transform="translate(265.507969 415.795938)scale(0.14 -0.14)">
      <use xlink:href="#DejaVuSans-49"/>
      <use x="29.492188" xlink:href="#DejaVuSans-74"/>
      <use x="68.701172" xlink:href="#DejaVuSans-65"/>
      <use x="130.224609" xlink:href="#DejaVuSans-72"/>
      <use x="171.337891" xlink:href="#DejaVuSans-61"/>
      <use x="232.617188" xlink:href="#DejaVuSans-74"/>
      <use x="271.826172" xlink:href="#DejaVuSans-69"/>
      <use x="299.609375" xlink:href="#DejaVuSans-6f"/>
      <use x="360.791016" xlink:href="#DejaVuSans-6e"/>
     </g>
    </g>
   </g>
   <g id="matplotlib.axis_2">
    <g id="ytick_1">
     <g id="line2d_15">
      <path clip-path="url(#p3d3021ab06)" d="M 72 351.20603 
L 518.4 351.20603 
" style="fill:none;stroke:#b0b0b0;stroke-dasharray:5.12,1.28,0.8,1.28;stroke-dashoffset:0;stroke-width:0.8;"/>
     </g>
     <g id="line2d_16">
      <defs>
       <path d="M 0 0 
L -3.5 0 
" id="mbd7444ce96" style="stroke:#000000;stroke-width:0.8;"/>
      </defs>
      <g>
       <use style="stroke:#000000;stroke-width:0.8;" x="72" xlink:href="#mbd7444ce96" y="351.20603"/>
      </g>
     </g>
     <g id="text_9">
      <!-- −50 -->
      <defs>
       <path d="M 10.59375 35.5 
L 73.1875 35.5 
L 73.1875 27.203125 
L 10.59375 27.203125 
z
" id="DejaVuSans-2212"/>
      </defs>
      <g transform="translate(43.895313 355.005249)scale(0.1 -0.1)">
       <use xlink:href="#DejaVuSans-2212"/>
       <use x="83.789062" xlink:href="#DejaVuSans-35"/>
       <use x="147.412109" xlink:href="#DejaVuSans-30"/>
      </g>
     </g>
    </g>
    <g id="ytick_2">
     <g id="line2d_17">
      <path clip-path="url(#p3d3021ab06)" d="M 72 296.305465 
L 518.4 296.305465 
" style="fill:none;stroke:#b0b0b0;stroke-dasharray:5.12,1.28,0.8,1.28;stroke-dashoffset:0;stroke-width:0.8;"/>
     </g>
     <g id="line2d_18">
      <g>
       <use style="stroke:#000000;stroke-width:0.8;" x="72" xlink:href="#mbd7444ce96" y="296.305465"/>
      </g>
     </g>
     <g id="text_10">
      <!-- −40 -->
      <defs>
       <path d="M 37.796875 64.3125 
L 12.890625 25.390625 
L 37.796875 25.390625 
z
M 35.203125 72.90625 
L 47.609375 72.90625 
L 47.609375 25.390625 
L 58.015625 25.390625 
L 58.015625 17.1875 
L 47.609375 17.1875 
L 47.609375 0 
L 37.796875 0 
L 37.796875 17.1875 
L 4.890625 17.1875 
L 4.890625 26.703125 
z
" id="DejaVuSans-34"/>
      </defs>
      <g transform="translate(43.895313 300.104683)scale(0.1 -0.1)">
       <use xlink:href="#DejaVuSans-2212"/>
       <use x="83.789062" xlink:href="#DejaVuSans-34"/>
       <use x="147.412109" xlink:href="#DejaVuSans-30"/>
      </g>
     </g>
    </g>
    <g id="ytick_3">
     <g id="line2d_19">
      <path clip-path="url(#p3d3021ab06)" d="M 72 241.404899 
L 518.4 241.404899 
" style="fill:none;stroke:#b0b0b0;stroke-dasharray:5.12,1.28,0.8,1.28;stroke-dashoffset:0;stroke-width:0.8;"/>
     </g>
     <g id="line2d_20">
      <g>
       <use style="stroke:#000000;stroke-width:0.8;" x="72" xlink:href="#mbd7444ce96" y="241.404899"/>
      </g>
     </g>
     <g id="text_11">
      <!-- −30 -->
      <g transform="translate(43.895313 245.204118)scale(0.1 -0.1)">
       <use xlink:href="#DejaVuSans-2212"/>
       <use x="83.789062" xlink:href="#DejaVuSans-33"/>
       <use x="147.412109" xlink:href="#DejaVuSans-30"/>
      </g>
     </g>
    </g>
    <g id="ytick_4">
     <g id="line2d_21">
      <path clip-path="url(#p3d3021ab06)" d="M 72 186.504334 
L 518.4 186.504334 
" style="fill:none;stroke:#b0b0b0;stroke-dasharray:5.12,1.28,0.8,1.28;stroke-dashoffset:0;stroke-width:0.8;"/>
     </g>
     <g id="line2d_22">
      <g>
       <use style="stroke:#000000;stroke-width:0.8;" x="72" xlink:href="#mbd7444ce96" y="186.504334"/>
      </g>
     </g>
     <g id="text_12">
      <!-- −20 -->
      <g transform="translate(43.895313 190.303553)scale(0.1 -0.1)">
       <use xlink:href="#DejaVuSans-2212"/>
       <use x="83.789062" xlink:href="#DejaVuSans-32"/>
       <use x="147.412109" xlink:href="#DejaVuSans-30"/>
      </g>
     </g>
    </g>
    <g id="ytick_5">
     <g id="line2d_23">
      <path clip-path="url(#p3d3021ab06)" d="M 72 131.603769 
L 518.4 131.603769 
" style="fill:none;stroke:#b0b0b0;stroke-dasharray:5.12,1.28,0.8,1.28;stroke-dashoffset:0;stroke-width:0.8;"/>
     </g>
     <g id="line2d_24">
      <g>
       <use style="stroke:#000000;stroke-width:0.8;" x="72" xlink:href="#mbd7444ce96" y="131.603769"/>
      </g>
     </g>
     <g id="text_13">
      <!-- −10 -->
      <g transform="translate(43.895313 135.402987)scale(0.1 -0.1)">
       <use xlink:href="#DejaVuSans-2212"/>
       <use x="83.789062" xlink:href="#DejaVuSans-31"/>
       <use x="147.412109" xlink:href="#DejaVuSans-30"/>
      </g>
     </g>
    </g>
    <g id="ytick_6">
     <g id="line2d_25">
      <path clip-path="url(#p3d3021ab06)" d="M 72 76.703203 
L 518.4 76.703203 
" style="fill:none;stroke:#b0b0b0;stroke-dasharray:5.12,1.28,0.8,1.28;stroke-dashoffset:0;stroke-width:0.8;"/>
     </g>
     <g id="line2d_26">
      <g>
       <use style="stroke:#000000;stroke-width:0.8;" x="72" xlink:href="#mbd7444ce96" y="76.703203"/>
      </g>
     </g>
     <g id="text_14">
      <!-- 0 -->
      <g transform="translate(58.6375 80.502422)scale(0.1 -0.1)">
       <use xlink:href="#DejaVuSans-30"/>
      </g>
     </g>
    </g>
    <g id="text_15">
     <!-- $\partial \mathcal{L}/ \partial \mu^{U_{\mathrm{max}}}_{m}[V]$ -->
     <defs>
      <path d="M 21.34375 -1.421875 
Q 14.453125 -1.421875 9.96875 2.734375 
Q 4.640625 7.671875 4.640625 16.609375 
Q 4.640625 25.875 9.328125 33.109375 
Q 14.15625 40.53125 22.859375 40.53125 
Q 28.5625 40.53125 33.0625 36.96875 
Q 35.6875 34.859375 37.5 31.34375 
Q 38.140625 35.296875 38.140625 39.796875 
Q 38.140625 46.390625 36.578125 50.203125 
Q 33.109375 58.640625 23.921875 58.640625 
Q 20.453125 58.640625 15.09375 56.5 
L 15.09375 64.703125 
Q 20.75 66.21875 25.828125 66.21875 
Q 38.921875 66.21875 44.484375 54.203125 
Q 47.078125 48.53125 47.078125 40.09375 
Q 47.078125 34.578125 45.84375 28.171875 
Q 42.78125 12.15625 34.8125 4.546875 
Q 28.5625 -1.421875 21.34375 -1.421875 
z
M 12.984375 15.140625 
Q 12.984375 10.25 15.140625 7.625 
Q 17.4375 4.828125 20.953125 4.828125 
Q 24.078125 4.828125 26.5625 7.03125 
Q 30.078125 10.0625 32.671875 14.984375 
Q 34.8125 19.046875 35.890625 23.390625 
Q 31.546875 33.890625 24.03125 33.890625 
Q 17.578125 33.890625 14.75 25.390625 
Q 12.984375 20.125 12.984375 15.140625 
z
" id="DejaVuSans-2202"/>
      <path d="M 63.59375 14.296875 
L 65.296875 12.5 
Q 52.296875 -0.703125 37.703125 -0.703125 
Q 33.703125 -0.703125 28.90625 0.40625 
Q 21.796875 1.90625 17.90625 1.90625 
Q 15.703125 1.90625 10.5 0.953125 
Q 5.296875 0 3 0 
L 3.59375 2.40625 
Q 9.09375 2.40625 11.40625 11.703125 
L 18.40625 40.09375 
Q 20.09375 47 23.6875 52.390625 
Q 27.296875 57.796875 31.640625 60.84375 
Q 36 63.90625 40.390625 65.453125 
Q 44.796875 67 48.796875 67 
Q 53.796875 67 56.140625 63.796875 
Q 58.5 60.59375 58.5 56 
Q 58.5 52.296875 56.140625 50 
Q 53.796875 47.703125 50.40625 47.703125 
Q 48.203125 47.703125 46.796875 49.203125 
Q 45.40625 50.703125 45.40625 52.796875 
Q 45.40625 54.40625 46.203125 55.5 
Q 47 56.59375 47.890625 56.9375 
Q 48.796875 57.296875 49.59375 57.890625 
Q 50.40625 58.5 50.40625 59.203125 
Q 50.40625 63 44.59375 63 
Q 39.40625 63 36.09375 59.140625 
Q 32.796875 55.296875 31.09375 48.9375 
Q 29.40625 42.59375 28.046875 35.6875 
Q 26.703125 28.796875 24.203125 21.296875 
Q 21.703125 13.796875 18.09375 9.203125 
L 18.09375 8.796875 
Q 21.296875 11 29.5 11 
Q 34.796875 11 38.4375 8.5 
Q 42.09375 6 46.296875 6 
Q 54.796875 6 63.59375 14.296875 
z
" id="STIXNonUnicode-Italic-e238"/>
      <path d="M 25.390625 72.90625 
L 33.6875 72.90625 
L 8.296875 -9.28125 
L 0 -9.28125 
z
" id="DejaVuSans-2f"/>
      <path d="M -1.3125 -20.796875 
L 13.375 54.6875 
L 22.40625 54.6875 
L 15.765625 20.65625 
Q 15.578125 19.625 15.421875 18.359375 
Q 15.28125 17.09375 15.28125 15.828125 
Q 15.28125 11.28125 18.140625 8.828125 
Q 21 6.390625 26.3125 6.390625 
Q 33.546875 6.390625 37.984375 10.484375 
Q 42.4375 14.59375 44 22.796875 
L 50.203125 54.6875 
L 59.1875 54.6875 
L 51.03125 12.640625 
Q 50.828125 11.71875 50.75 11.03125 
Q 50.6875 10.359375 50.6875 9.8125 
Q 50.6875 8.296875 51.296875 7.59375 
Q 51.90625 6.890625 53.21875 6.890625 
Q 53.71875 6.890625 54.5625 7.125 
Q 55.421875 7.375 56.984375 8.015625 
L 55.609375 0.78125 
Q 53.46875 -0.296875 51.515625 -0.859375 
Q 49.5625 -1.421875 47.703125 -1.421875 
Q 44.484375 -1.421875 42.65625 0.625 
Q 40.828125 2.6875 40.828125 6.296875 
Q 38.09375 2.390625 34.296875 0.484375 
Q 30.515625 -1.421875 25.390625 -1.421875 
Q 20.84375 -1.421875 17.453125 0.671875 
Q 14.0625 2.78125 12.984375 6.203125 
L 7.71875 -20.796875 
z
" id="DejaVuSans-Oblique-3bc"/>
      <path d="M 15.484375 72.90625 
L 25.390625 72.90625 
L 16.796875 28.609375 
Q 16.265625 25.640625 16.046875 23.703125 
Q 15.828125 21.78125 15.828125 20.3125 
Q 15.828125 13.578125 19.578125 10.078125 
Q 23.34375 6.59375 30.609375 6.59375 
Q 40.046875 6.59375 45.28125 11.765625 
Q 50.53125 16.9375 52.78125 28.609375 
L 61.375 72.90625 
L 71.296875 72.90625 
L 62.5 27.390625 
Q 59.625 12.640625 51.5625 5.609375 
Q 43.5 -1.421875 29.5 -1.421875 
Q 18.5625 -1.421875 12.1875 4.078125 
Q 5.8125 9.578125 5.8125 19 
Q 5.8125 20.703125 6.046875 22.828125 
Q 6.296875 24.953125 6.78125 27.390625 
z
" id="DejaVuSans-Oblique-55"/>
      <path d="M 52 44.1875 
Q 55.375 50.25 60.0625 53.125 
Q 64.75 56 71.09375 56 
Q 79.640625 56 84.28125 50.015625 
Q 88.921875 44.046875 88.921875 33.015625 
L 88.921875 0 
L 79.890625 0 
L 79.890625 32.71875 
Q 79.890625 40.578125 77.09375 44.375 
Q 74.3125 48.1875 68.609375 48.1875 
Q 61.625 48.1875 57.5625 43.546875 
Q 53.515625 38.921875 53.515625 30.90625 
L 53.515625 0 
L 44.484375 0 
L 44.484375 32.71875 
Q 44.484375 40.625 41.703125 44.40625 
Q 38.921875 48.1875 33.109375 48.1875 
Q 26.21875 48.1875 22.15625 43.53125 
Q 18.109375 38.875 18.109375 30.90625 
L 18.109375 0 
L 9.078125 0 
L 9.078125 54.6875 
L 18.109375 54.6875 
L 18.109375 46.1875 
Q 21.1875 51.21875 25.484375 53.609375 
Q 29.78125 56 35.6875 56 
Q 41.65625 56 45.828125 52.96875 
Q 50 49.953125 52 44.1875 
z
" id="DejaVuSans-6d"/>
      <path d="M 54.890625 54.6875 
L 35.109375 28.078125 
L 55.90625 0 
L 45.3125 0 
L 29.390625 21.484375 
L 13.484375 0 
L 2.875 0 
L 24.125 28.609375 
L 4.6875 54.6875 
L 15.28125 54.6875 
L 29.78125 35.203125 
L 44.28125 54.6875 
z
" id="DejaVuSans-78"/>
      <path d="M 89.796875 33.015625 
L 83.40625 0 
L 74.421875 0 
L 80.71875 32.71875 
Q 81.109375 34.8125 81.296875 36.328125 
Q 81.5 37.84375 81.5 38.921875 
Q 81.5 43.3125 79.046875 45.75 
Q 76.609375 48.1875 72.21875 48.1875 
Q 65.671875 48.1875 60.546875 43.28125 
Q 55.421875 38.375 53.90625 30.515625 
L 47.90625 0 
L 38.921875 0 
L 45.3125 32.71875 
Q 45.703125 34.515625 45.890625 36.046875 
Q 46.09375 37.59375 46.09375 38.8125 
Q 46.09375 43.265625 43.65625 45.71875 
Q 41.21875 48.1875 36.921875 48.1875 
Q 30.28125 48.1875 25.140625 43.28125 
Q 20.015625 38.375 18.5 30.515625 
L 12.5 0 
L 3.515625 0 
L 14.203125 54.6875 
L 23.1875 54.6875 
L 21.484375 46.1875 
Q 25.140625 50.984375 30.046875 53.484375 
Q 34.96875 56 40.578125 56 
Q 46.53125 56 50.359375 52.875 
Q 54.203125 49.75 54.984375 44.1875 
Q 59.078125 49.953125 64.46875 52.96875 
Q 69.875 56 75.875 56 
Q 82.90625 56 86.734375 51.953125 
Q 90.578125 47.90625 90.578125 40.484375 
Q 90.578125 38.875 90.375 36.9375 
Q 90.1875 35.015625 89.796875 33.015625 
z
" id="DejaVuSans-Oblique-6d"/>
      <path d="M 8.59375 75.984375 
L 29.296875 75.984375 
L 29.296875 69 
L 17.578125 69 
L 17.578125 -6.203125 
L 29.296875 -6.203125 
L 29.296875 -13.1875 
L 8.59375 -13.1875 
z
" id="DejaVuSans-5b"/>
      <path d="M 20.609375 0 
L 7.8125 72.90625 
L 17.484375 72.90625 
L 28.078125 10.203125 
L 63.484375 72.90625 
L 74.21875 72.90625 
L 32.078125 0 
z
" id="DejaVuSans-Oblique-56"/>
      <path d="M 30.421875 75.984375 
L 30.421875 -13.1875 
L 9.71875 -13.1875 
L 9.71875 -6.203125 
L 21.390625 -6.203125 
L 21.390625 69 
L 9.71875 69 
L 9.71875 75.984375 
z
" id="DejaVuSans-5d"/>
     </defs>
     <g transform="translate(35.975313 259.04)rotate(-90)scale(0.14 -0.14)">
      <use transform="translate(0 0.684375)" xlink:href="#DejaVuSans-2202"/>
      <use transform="translate(51.708984 0.684375)" xlink:href="#STIXNonUnicode-Italic-e238"/>
      <use transform="translate(121.008972 0.684375)" xlink:href="#DejaVuSans-2f"/>
      <use transform="translate(154.700378 0.684375)" xlink:href="#DejaVuSans-2202"/>
      <use transform="translate(206.409363 0.684375)" xlink:href="#DejaVuSans-Oblique-3bc"/>
      <use transform="translate(274.498556 38.965625)scale(0.7)" xlink:href="#DejaVuSans-Oblique-55"/>
      <use transform="translate(325.733907 27.48125)scale(0.49)" xlink:href="#DejaVuSans-6d"/>
      <use transform="translate(373.465841 27.48125)scale(0.49)" xlink:href="#DejaVuSans-61"/>
      <use transform="translate(403.492696 27.48125)scale(0.49)" xlink:href="#DejaVuSans-78"/>
      <use transform="translate(270.03241 -26.659375)scale(0.7)" xlink:href="#DejaVuSans-Oblique-6d"/>
      <use transform="translate(437.139181 0.684375)" xlink:href="#DejaVuSans-5b"/>
      <use transform="translate(476.152852 0.684375)" xlink:href="#DejaVuSans-Oblique-56"/>
      <use transform="translate(544.561056 0.684375)" xlink:href="#DejaVuSans-5d"/>
     </g>
    </g>
   </g>
   <g id="line2d_27">
    <path clip-path="url(#p3d3021ab06)" d="M 92.290909 76.703203 
L 92.427135 213.954617 
L 94.061851 213.862384 
L 94.606756 213.506628 
L 95.015435 213.014719 
L 95.424114 212.179681 
L 95.832793 210.800579 
L 96.241472 208.649575 
L 96.786377 204.182865 
L 97.331283 197.409233 
L 97.876188 187.851594 
L 98.557319 171.361111 
L 99.238451 149.219164 
L 100.055809 114.555496 
L 100.73694 86.656676 
L 101.145619 80.845451 
L 101.554298 78.514373 
L 101.962977 77.529457 
L 102.371656 77.071037 
L 102.916561 76.802573 
L 103.733919 76.705399 
L 113.133535 76.701556 
L 118.718814 76.773476 
L 118.991266 77.058959 
L 119.672398 78.33924 
L 121.715792 82.429332 
L 121.852019 82.612151 
L 121.988245 82.119693 
L 122.396924 78.754288 
L 122.669377 77.822626 
L 123.078055 77.260993 
L 123.350508 77.178642 
L 123.622961 77.568985 
L 124.848998 79.938494 
L 125.530129 77.476203 
L 125.938808 77.061155 
L 126.347487 76.947511 
L 126.61994 77.271973 
L 127.164845 78.216263 
L 127.301071 78.160813 
L 127.845976 77.153937 
L 128.254655 76.8981 
L 129.072013 76.757555 
L 132.477671 76.702654 
L 141.604834 76.74383 
L 141.877286 76.94257 
L 142.285965 77.612906 
L 142.694644 78.248105 
L 142.967097 78.260183 
L 143.23955 77.859409 
L 143.648229 77.17974 
L 144.056907 76.957393 
L 144.32936 77.18523 
L 145.010492 78.171244 
L 145.146718 78.065286 
L 145.691623 77.136369 
L 146.100302 76.896453 
L 146.372755 76.891512 
L 146.645207 77.19621 
L 147.190113 77.996112 
L 147.326339 77.954387 
L 148.00747 77.013392 
L 148.552376 76.824534 
L 148.824828 76.949707 
L 149.50596 77.62169 
L 149.642186 77.546476 
L 150.050865 77.046332 
L 150.59577 76.816298 
L 151.140676 76.822887 
L 151.821807 77.141859 
L 153.18407 76.735046 
L 156.317275 76.703203 
L 166.670475 76.80971 
L 167.21538 77.270326 
L 167.624059 77.52232 
L 167.896512 77.445459 
L 168.71387 76.853082 
L 168.986322 76.856376 
L 169.395001 77.165466 
L 169.80368 77.449302 
L 170.076133 77.296129 
L 170.484812 76.941472 
L 171.029717 76.786103 
L 171.30217 76.841553 
L 172.119528 77.358716 
L 173.209338 76.780064 
L 173.618017 76.816848 
L 174.435375 77.159427 
L 175.116506 76.811357 
L 175.933864 76.761947 
L 176.751222 76.921159 
L 177.432354 76.750967 
L 179.203296 76.704301 
L 191.463664 76.757006 
L 192.689701 77.095193 
L 193.643285 76.77128 
L 194.051964 76.869552 
L 194.596869 77.092448 
L 194.869322 77.021627 
L 195.414227 76.79873 
L 196.095358 76.773476 
L 197.048943 77.006254 
L 197.593848 76.79324 
L 198.411206 76.761947 
L 199.228564 76.944766 
L 200.045921 76.747124 
L 200.999506 76.77677 
L 201.680637 76.791593 
L 202.770448 76.713085 
L 210.262895 76.703203 
L 216.529305 76.787201 
L 217.346663 76.928296 
L 218.845152 76.792142 
L 219.526284 76.902492 
L 220.752321 76.727909 
L 222.25081 76.766888 
L 223.204394 76.734497 
L 224.157979 76.806416 
L 225.111563 76.717477 
L 231.241747 76.703203 
L 241.731173 76.805867 
L 242.548531 76.772378 
L 243.502115 76.736144 
L 244.591925 76.767437 
L 245.681736 76.724066 
L 246.907773 76.748771 
L 248.133809 76.731203 
L 249.22362 76.73285 
L 250.858336 76.737242 
L 255.626257 76.703203 
L 498.109091 76.703203 
L 498.109091 76.703203 
" style="fill:none;stroke:#bf00bf;stroke-linecap:square;stroke-width:1.5;"/>
   </g>
   <g id="line2d_28">
    <path clip-path="url(#p3d3021ab06)" d="M 92.290909 76.703203 
L 92.427135 213.954617 
L 93.789399 213.87556 
L 94.334304 213.486315 
L 94.742983 212.974093 
L 95.151662 212.111056 
L 95.560341 210.661132 
L 95.96902 208.375072 
L 96.513925 203.614644 
L 97.05883 196.41718 
L 97.603735 186.311633 
L 98.284867 168.981721 
L 98.965998 145.858151 
L 99.783356 109.877419 
L 100.73694 66.96 
L 100.873167 67.157093 
L 101.145619 69.057751 
L 101.826751 74.621374 
L 102.099204 75.47398 
L 102.23543 75.596408 
L 102.507882 75.428412 
L 103.461467 74.113544 
L 103.870146 74.007037 
L 105.504861 73.97739 
L 107.548256 73.668849 
L 112.588629 72.975455 
L 113.542214 72.706442 
L 114.76825 72.447861 
L 116.130514 71.63094 
L 116.539193 71.727016 
L 116.947871 72.087713 
L 117.35655 72.730049 
L 117.901456 74.019115 
L 118.582587 76.24149 
L 118.991266 77.495967 
L 121.170887 82.318433 
L 121.852019 83.516363 
L 121.988245 81.089209 
L 122.396924 69.090142 
L 122.53315 69.331704 
L 122.805603 71.634234 
L 123.350508 77.041391 
L 123.759187 78.569823 
L 124.576545 80.553929 
L 124.712771 80.82404 
L 124.848998 80.130097 
L 125.393903 72.876634 
L 125.530129 73.159921 
L 126.075034 75.838519 
L 126.61994 77.837449 
L 127.028619 78.872874 
L 127.164845 78.675781 
L 127.437297 76.99747 
L 127.70975 75.129753 
L 127.845976 75.086931 
L 128.118429 75.434451 
L 128.799561 76.559364 
L 129.208239 76.724615 
L 129.616918 76.585716 
L 130.434276 76.277175 
L 131.524087 76.210196 
L 137.790497 75.788011 
L 139.15276 75.609584 
L 139.970118 75.773737 
L 140.787476 76.188785 
L 141.604834 76.80971 
L 141.877286 77.303816 
L 142.558418 78.75319 
L 142.694644 78.716956 
L 142.967097 78.133912 
L 143.512002 76.236549 
L 143.784455 76.480856 
L 144.193134 77.210485 
L 144.738039 78.675781 
L 144.874265 78.664252 
L 145.010492 78.367788 
L 145.282944 76.966726 
L 145.555397 75.681504 
L 145.827849 75.953262 
L 146.508981 77.315894 
L 146.91766 78.421591 
L 147.053886 78.502295 
L 147.190113 78.321672 
L 147.462565 77.143506 
L 147.735018 75.718287 
L 147.871244 75.713895 
L 148.279923 76.299684 
L 149.369734 77.966465 
L 149.50596 77.761686 
L 149.778413 76.757006 
L 150.050865 75.925811 
L 150.323318 76.087219 
L 151.549355 77.320835 
L 151.685581 77.3126 
L 151.958034 76.955746 
L 152.230486 76.308468 
L 152.502939 76.276077 
L 153.865202 76.675753 
L 157.134633 76.429799 
L 164.490854 76.181099 
L 165.580665 76.428701 
L 166.534249 76.836063 
L 167.487833 77.745216 
L 167.760286 77.489928 
L 168.441417 76.483052 
L 168.986322 76.912923 
L 169.531228 77.687021 
L 169.667454 77.713923 
L 169.80368 77.600279 
L 170.076133 76.953001 
L 170.348586 76.194824 
L 170.621038 76.294743 
L 171.438396 77.185779 
L 171.847075 77.628278 
L 171.983301 77.568985 
L 172.255754 77.026568 
L 172.528207 76.21349 
L 172.800659 76.251921 
L 173.754243 77.095193 
L 174.026696 77.35103 
L 174.299149 77.291737 
L 174.571601 76.808063 
L 174.844054 76.303527 
L 175.116506 76.36282 
L 176.47877 77.035352 
L 176.751222 76.872846 
L 177.159901 76.469876 
L 177.704806 76.57254 
L 178.522164 76.697164 
L 190.101401 76.515443 
L 191.327438 76.769633 
L 192.281022 77.250562 
L 192.553474 77.122095 
L 193.234606 76.584618 
L 193.779511 76.803671 
L 194.460643 77.232994 
L 194.733095 77.05292 
L 195.278001 76.439681 
L 195.959132 76.748771 
L 196.77649 77.161623 
L 197.048943 76.889316 
L 197.321395 76.450661 
L 197.593848 76.464386 
L 199.092337 77.016137 
L 199.36479 76.767437 
L 199.637243 76.494581 
L 200.182148 76.607127 
L 201.271958 76.881081 
L 201.680637 76.71034 
L 201.95309 76.579677 
L 209.854216 76.597794 
L 215.439495 76.653244 
L 216.529305 76.877238 
L 217.07421 76.993078 
L 217.619116 76.788848 
L 218.027795 76.640617 
L 218.845152 76.876689 
L 219.253831 76.983745 
L 219.526284 76.886022 
L 220.071189 76.564305 
L 221.024773 76.833867 
L 221.433452 76.960138 
L 221.705905 76.891512 
L 222.25081 76.559913 
L 223.204394 76.76579 
L 223.7493 76.890963 
L 224.157979 76.736144 
L 224.430431 76.591755 
L 225.247789 76.696066 
L 226.3376 76.753163 
L 226.882505 76.638421 
L 229.607031 76.676302 
L 240.505136 76.692772 
L 242.548531 76.705948 
L 242.95721 76.682341 
L 244.455699 76.738889 
L 244.864378 76.629637 
L 246.63532 76.750418 
L 247.043999 76.626892 
L 249.087394 76.665871 
L 249.632299 76.664224 
L 251.130788 76.729007 
L 251.948146 76.677949 
L 254.672672 76.687831 
L 265.979456 76.740536 
L 266.93304 76.762496 
L 268.022851 76.709242 
L 269.248888 76.719124 
L 269.793793 76.67191 
L 271.564735 76.691125 
L 272.10964 76.676302 
L 273.744356 76.709242 
L 274.289261 76.676851 
L 277.28624 76.700458 
L 285.187366 76.686184 
L 498.109091 76.703203 
L 498.109091 76.703203 
" style="fill:none;stroke:#00bfbf;stroke-linecap:square;stroke-width:1.5;"/>
   </g>
   <g id="line2d_29">
    <path clip-path="url(#p3d3021ab06)" d="M 92.290909 76.703203 
L 92.427135 213.954617 
L 92.835814 258.441094 
L 94.061851 362.643465 
L 94.47053 367.285857 
L 94.742983 368.596333 
L 95.015435 369.183769 
L 95.287888 369.36 
L 95.560341 369.305099 
L 96.105246 368.86864 
L 97.739962 367.009158 
L 100.055809 364.539181 
L 101.281846 363.472463 
L 103.32524 362.002775 
L 105.504861 360.703279 
L 107.820709 359.572327 
L 110.409009 358.554471 
L 111.635045 358.147658 
L 111.907498 357.651905 
L 112.724856 355.378473 
L 114.223345 350.722356 
L 114.495798 348.684447 
L 114.904477 342.984121 
L 115.449382 331.120109 
L 116.402966 303.095567 
L 117.35655 276.705963 
L 117.765229 269.631476 
L 118.037682 267.185656 
L 118.173908 266.756333 
L 118.310135 266.898526 
L 118.446361 267.641331 
L 118.718814 271.023205 
L 119.263719 283.887506 
L 120.353529 315.604111 
L 121.715792 356.726831 
L 122.124471 357.164937 
L 122.669377 357.458106 
L 123.486734 357.593711 
L 124.576545 357.534418 
L 125.802582 357.264856 
L 127.437297 356.723537 
L 129.480692 355.782541 
L 132.068992 354.302422 
L 136.973139 351.187364 
L 137.245592 350.898038 
L 137.654271 349.865358 
L 138.199176 347.505183 
L 139.016534 342.505937 
L 140.106344 335.769638 
L 140.515023 334.147326 
L 140.787476 333.558792 
L 141.059929 333.447893 
L 141.332381 333.872275 
L 141.604834 334.875857 
L 142.013513 337.525907 
L 142.558418 343.173528 
L 143.375776 353.42566 
L 144.193134 353.877492 
L 145.282944 354.153641 
L 147.190113 354.356774 
L 149.50596 354.320539 
L 151.958034 354.009253 
L 154.818786 353.366916 
L 158.496896 352.265611 
L 162.175007 350.966115 
L 162.583686 350.362757 
L 163.128591 349.072045 
L 164.082175 345.986633 
L 165.035759 343.110393 
L 165.444438 342.382411 
L 165.716891 342.16775 
L 165.989344 342.210572 
L 166.261796 342.53778 
L 166.670475 343.6034 
L 167.079154 345.379982 
L 167.624059 348.779974 
L 168.168965 352.333688 
L 169.531228 352.651562 
L 171.574622 352.804186 
L 174.162922 352.811872 
L 177.296127 352.602151 
L 181.110464 352.110242 
L 186.831969 351.149482 
L 187.240648 350.90243 
L 187.785553 350.302916 
L 188.602911 348.990792 
L 189.828948 346.992961 
L 190.373853 346.532345 
L 190.782532 346.50764 
L 191.191211 346.81673 
L 191.59989 347.492007 
L 192.144795 348.96444 
L 193.09838 351.815426 
L 194.460643 351.969697 
L 197.593848 352.054793 
L 201.95309 351.946639 
L 207.538369 351.545316 
L 211.897611 351.099523 
L 212.578742 350.726748 
L 213.532326 349.903789 
L 214.622137 348.976518 
L 215.167042 348.734956 
L 215.711947 348.758563 
L 216.120626 348.988047 
L 216.665531 349.600189 
L 217.346663 350.821177 
L 217.755342 351.517316 
L 220.479868 351.638098 
L 225.928921 351.618333 
L 232.60401 351.373477 
L 236.963252 351.083053 
L 238.053062 350.643848 
L 239.687778 349.937827 
L 240.36891 349.88622 
L 241.050041 350.095941 
L 241.731173 350.593889 
L 242.684757 351.378418 
L 245.954188 351.441553 
L 253.037957 351.391045 
L 261.892667 351.116542 
L 263.663609 350.686122 
L 264.889646 350.497264 
L 265.707004 350.58236 
L 266.524361 350.887058 
L 267.477946 351.298812 
L 273.335677 351.33285 
L 286.413403 351.17858 
L 288.72925 350.89145 
L 290.091513 350.836549 
L 291.181324 351.004545 
L 292.543587 351.259284 
L 301.943202 351.262029 
L 312.432628 351.116542 
L 315.020928 351.014427 
L 316.655644 351.210422 
L 317.473002 351.235676 
L 335.863554 351.199991 
L 341.312606 351.197246 
L 342.67487 351.223049 
L 498.109091 351.206579 
L 498.109091 351.206579 
" style="fill:none;stroke:#ff0000;stroke-linecap:square;stroke-width:1.5;"/>
   </g>
   <g id="line2d_30">
    <path clip-path="url(#p3d3021ab06)" d="M 92.290909 76.703203 
L 92.427135 213.954617 
L 92.563362 213.954617 
L 92.835814 225.6413 
L 93.38072 263.727469 
L 94.334304 332.793478 
L 94.742983 343.235017 
L 95.015435 346.239725 
L 95.287888 347.631454 
L 95.560341 348.110736 
L 95.832793 348.076698 
L 96.241472 347.534829 
L 97.05883 345.832912 
L 99.238451 341.202049 
L 100.873167 338.252791 
L 102.507882 335.753168 
L 104.278824 333.436913 
L 106.185993 331.324339 
L 108.093161 329.543365 
L 110.136556 327.942464 
L 111.635045 326.938882 
L 111.907498 325.883144 
L 112.316177 322.747773 
L 113.133535 314.139913 
L 114.495798 297.387555 
L 115.040703 285.849652 
L 115.721835 265.36131 
L 117.629003 202.480948 
L 118.037682 196.063071 
L 118.310135 194.560443 
L 118.446361 194.745458 
L 118.718814 197.126495 
L 118.991266 202.324481 
L 120.081077 233.527766 
L 121.170887 270.931521 
L 121.579566 284.81807 
L 121.988245 289.193096 
L 122.396924 291.738836 
L 122.941829 293.648826 
L 123.486734 294.713348 
L 124.03164 295.355685 
L 124.712771 295.820693 
L 125.393903 296.020531 
L 126.075034 296.016688 
L 126.892392 295.782811 
L 127.70975 295.312313 
L 128.663334 294.48057 
L 129.753145 293.19974 
L 130.979182 291.384727 
L 132.477671 288.719305 
L 134.248613 285.090926 
L 136.973139 278.936024 
L 137.381818 277.766642 
L 137.926723 275.301606 
L 138.607855 270.88815 
L 140.378797 258.242903 
L 140.787476 256.751803 
L 141.059929 256.366401 
L 141.196155 256.381774 
L 141.468608 256.863252 
L 141.74106 257.977733 
L 142.149739 260.885816 
L 142.694644 267.012719 
L 143.512002 276.994191 
L 144.056907 278.998061 
L 144.601813 280.211913 
L 145.282944 281.231965 
L 146.236528 282.236646 
L 147.326339 283.086507 
L 148.416149 283.679982 
L 149.50596 284.049463 
L 150.59577 284.187812 
L 151.685581 284.112049 
L 152.775391 283.827115 
L 154.001428 283.27811 
L 155.363691 282.411779 
L 156.998407 281.06946 
L 158.905575 279.18088 
L 161.630102 276.11688 
L 162.175007 275.395486 
L 162.719912 274.186576 
L 163.401044 271.979573 
L 165.308212 265.152139 
L 165.716891 264.518586 
L 165.989344 264.425804 
L 166.261796 264.633329 
L 166.534249 265.164766 
L 166.942928 266.595475 
L 167.487833 269.664416 
L 168.305191 274.860206 
L 168.850096 275.906062 
L 169.531228 276.659846 
L 170.484812 277.310418 
L 171.847075 277.931893 
L 173.345564 278.376038 
L 174.844054 278.601679 
L 176.47877 278.602777 
L 178.113485 278.36396 
L 179.884427 277.862718 
L 181.791596 277.084228 
L 184.107443 275.89014 
L 186.968196 274.159675 
L 187.513101 273.536553 
L 188.194232 272.391327 
L 190.101401 268.815105 
L 190.51008 268.476917 
L 190.918759 268.454957 
L 191.191211 268.642168 
L 191.59989 269.250466 
L 192.144795 270.679528 
L 193.234606 274.031756 
L 193.915737 274.593938 
L 194.869322 275.018869 
L 196.504037 275.445995 
L 198.547432 275.752889 
L 200.590827 275.848416 
L 202.770448 275.728733 
L 205.086295 275.378467 
L 207.810821 274.732837 
L 211.488932 273.621649 
L 212.170063 273.27907 
L 212.987421 272.576342 
L 215.030816 270.610902 
L 215.575721 270.482435 
L 215.9844 270.60102 
L 216.393079 270.925482 
L 216.937984 271.686404 
L 218.027795 273.450359 
L 218.845152 273.785802 
L 220.343642 274.076226 
L 223.068168 274.342494 
L 226.065147 274.402335 
L 229.062126 274.239829 
L 232.60401 273.820389 
L 236.690799 273.134681 
L 237.644383 272.742691 
L 239.960231 271.596367 
L 240.641362 271.59472 
L 241.186268 271.804989 
L 241.867399 272.34576 
L 242.684757 273.099545 
L 243.638341 273.321343 
L 245.681736 273.512946 
L 249.496073 273.649648 
L 253.855314 273.561808 
L 258.623235 273.239541 
L 262.165119 272.832728 
L 265.162098 272.134942 
L 265.979456 272.268899 
L 266.796814 272.637831 
L 267.477946 272.95845 
L 268.976435 273.111623 
L 273.60813 273.244482 
L 279.329635 273.183543 
L 286.413403 272.873354 
L 288.72925 272.530226 
L 290.091513 272.443483 
L 291.181324 272.599401 
L 292.81604 272.923314 
L 296.766603 273.01939 
L 305.34886 272.979313 
L 312.568855 272.731711 
L 315.020928 272.609283 
L 316.519418 272.77618 
L 317.473002 272.857433 
L 322.785828 272.918922 
L 333.41148 272.852492 
L 343.492227 272.840963 
L 356.433727 272.835473 
L 371.418621 272.825591 
L 498.109091 272.791553 
L 498.109091 272.791553 
" style="fill:none;stroke:#008000;stroke-linecap:square;stroke-width:1.5;"/>
   </g>
   <g id="patch_3">
    <path d="M 72 384.48 
L 72 51.84 
" style="fill:none;stroke:#000000;stroke-linecap:square;stroke-linejoin:miter;stroke-width:0.8;"/>
   </g>
   <g id="patch_4">
    <path d="M 518.4 384.48 
L 518.4 51.84 
" style="fill:none;stroke:#000000;stroke-linecap:square;stroke-linejoin:miter;stroke-width:0.8;"/>
   </g>
   <g id="patch_5">
    <path d="M 72 384.48 
L 518.4 384.48 
" style="fill:none;stroke:#000000;stroke-linecap:square;stroke-linejoin:miter;stroke-width:0.8;"/>
   </g>
   <g id="patch_6">
    <path d="M 72 51.84 
L 518.4 51.84 
" style="fill:none;stroke:#000000;stroke-linecap:square;stroke-linejoin:miter;stroke-width:0.8;"/>
   </g>
   <g id="text_16">
    <!-- $\partial \mathcal{L}/ \partial \mu^{U_{\mathrm{max}}}_{m}$ -->
    <g transform="translate(264.54 45.84)scale(0.14 -0.14)">
     <use transform="translate(0 0.684375)" xlink:href="#DejaVuSans-2202"/>
     <use transform="translate(51.708984 0.684375)" xlink:href="#STIXNonUnicode-Italic-e238"/>
     <use transform="translate(121.008972 0.684375)" xlink:href="#DejaVuSans-2f"/>
     <use transform="translate(154.700378 0.684375)" xlink:href="#DejaVuSans-2202"/>
     <use transform="translate(206.409363 0.684375)" xlink:href="#DejaVuSans-Oblique-3bc"/>
     <use transform="translate(274.498556 38.965625)scale(0.7)" xlink:href="#DejaVuSans-Oblique-55"/>
     <use transform="translate(325.733907 27.48125)scale(0.49)" xlink:href="#DejaVuSans-6d"/>
     <use transform="translate(373.465841 27.48125)scale(0.49)" xlink:href="#DejaVuSans-61"/>
     <use transform="translate(403.492696 27.48125)scale(0.49)" xlink:href="#DejaVuSans-78"/>
     <use transform="translate(270.03241 -26.659375)scale(0.7)" xlink:href="#DejaVuSans-Oblique-6d"/>
    </g>
   </g>
   <g id="legend_1">
    <g id="patch_7">
     <path d="M 435.6 255.41 
L 511.4 255.41 
Q 513.4 255.41 513.4 253.41 
L 513.4 182.91 
Q 513.4 180.91 511.4 180.91 
L 435.6 180.91 
Q 433.6 180.91 433.6 182.91 
L 433.6 253.41 
Q 433.6 255.41 435.6 255.41 
z
" style="fill:#ffffff;opacity:0.8;stroke:#cccccc;stroke-linejoin:miter;"/>
    </g>
    <g id="line2d_31">
     <path d="M 437.6 191.41 
L 457.6 191.41 
" style="fill:none;stroke:#bf00bf;stroke-linecap:square;stroke-width:1.5;"/>
    </g>
    <g id="line2d_32"/>
    <g id="text_17">
     <!-- $\partial \mathcal{L}/ \partial \mu^{U_{\mathrm{max}}}_{1}$ -->
     <g transform="translate(465.6 194.91)scale(0.1 -0.1)">
      <use transform="translate(0 0.593906)" xlink:href="#DejaVuSans-2202"/>
      <use transform="translate(51.708984 0.593906)" xlink:href="#STIXNonUnicode-Italic-e238"/>
      <use transform="translate(121.008972 0.593906)" xlink:href="#DejaVuSans-2f"/>
      <use transform="translate(154.700378 0.593906)" xlink:href="#DejaVuSans-2202"/>
      <use transform="translate(206.409363 0.593906)" xlink:href="#DejaVuSans-Oblique-3bc"/>
      <use transform="translate(274.498556 48.965625)scale(0.7)" xlink:href="#DejaVuSans-Oblique-55"/>
      <use transform="translate(325.733907 37.48125)scale(0.49)" xlink:href="#DejaVuSans-6d"/>
      <use transform="translate(373.465841 37.48125)scale(0.49)" xlink:href="#DejaVuSans-61"/>
      <use transform="translate(403.492696 37.48125)scale(0.49)" xlink:href="#DejaVuSans-78"/>
      <use transform="translate(270.03241 -26.749844)scale(0.7)" xlink:href="#DejaVuSans-31"/>
     </g>
    </g>
    <g id="line2d_33">
     <path d="M 437.6 209.31 
L 457.6 209.31 
" style="fill:none;stroke:#00bfbf;stroke-linecap:square;stroke-width:1.5;"/>
    </g>
    <g id="line2d_34"/>
    <g id="text_18">
     <!-- $\partial \mathcal{L}/ \partial \mu^{U_{\mathrm{max}}}_{2}$ -->
     <g transform="translate(465.6 212.81)scale(0.1 -0.1)">
      <use transform="translate(0 0.675156)" xlink:href="#DejaVuSans-2202"/>
      <use transform="translate(51.708984 0.675156)" xlink:href="#STIXNonUnicode-Italic-e238"/>
      <use transform="translate(121.008972 0.675156)" xlink:href="#DejaVuSans-2f"/>
      <use transform="translate(154.700378 0.675156)" xlink:href="#DejaVuSans-2202"/>
      <use transform="translate(206.409363 0.675156)" xlink:href="#DejaVuSans-Oblique-3bc"/>
      <use transform="translate(274.498556 49.965625)scale(0.7)" xlink:href="#DejaVuSans-Oblique-55"/>
      <use transform="translate(325.733907 38.48125)scale(0.49)" xlink:href="#DejaVuSans-6d"/>
      <use transform="translate(373.465841 38.48125)scale(0.49)" xlink:href="#DejaVuSans-61"/>
      <use transform="translate(403.492696 38.48125)scale(0.49)" xlink:href="#DejaVuSans-78"/>
      <use transform="translate(270.03241 -26.668594)scale(0.7)" xlink:href="#DejaVuSans-32"/>
     </g>
    </g>
    <g id="line2d_35">
     <path d="M 437.6 227.21 
L 457.6 227.21 
" style="fill:none;stroke:#ff0000;stroke-linecap:square;stroke-width:1.5;"/>
    </g>
    <g id="line2d_36"/>
    <g id="text_19">
     <!-- $\partial \mathcal{L}/ \partial \mu^{U_{\mathrm{max}}}_{3}$ -->
     <g transform="translate(465.6 230.71)scale(0.1 -0.1)">
      <use transform="translate(0 0.675156)" xlink:href="#DejaVuSans-2202"/>
      <use transform="translate(51.708984 0.675156)" xlink:href="#STIXNonUnicode-Italic-e238"/>
      <use transform="translate(121.008972 0.675156)" xlink:href="#DejaVuSans-2f"/>
      <use transform="translate(154.700378 0.675156)" xlink:href="#DejaVuSans-2202"/>
      <use transform="translate(206.409363 0.675156)" xlink:href="#DejaVuSans-Oblique-3bc"/>
      <use transform="translate(274.498556 49.965625)scale(0.7)" xlink:href="#DejaVuSans-Oblique-55"/>
      <use transform="translate(325.733907 38.48125)scale(0.49)" xlink:href="#DejaVuSans-6d"/>
      <use transform="translate(373.465841 38.48125)scale(0.49)" xlink:href="#DejaVuSans-61"/>
      <use transform="translate(403.492696 38.48125)scale(0.49)" xlink:href="#DejaVuSans-78"/>
      <use transform="translate(270.03241 -26.668594)scale(0.7)" xlink:href="#DejaVuSans-33"/>
     </g>
    </g>
    <g id="line2d_37">
     <path d="M 437.6 245.11 
L 457.6 245.11 
" style="fill:none;stroke:#008000;stroke-linecap:square;stroke-width:1.5;"/>
    </g>
    <g id="line2d_38"/>
    <g id="text_20">
     <!-- $\partial \mathcal{L}/ \partial \mu^{U_{\mathrm{max}}}_{4}$ -->
     <g transform="translate(465.6 248.61)scale(0.1 -0.1)">
      <use transform="translate(0 0.593906)" xlink:href="#DejaVuSans-2202"/>
      <use transform="translate(51.708984 0.593906)" xlink:href="#STIXNonUnicode-Italic-e238"/>
      <use transform="translate(121.008972 0.593906)" xlink:href="#DejaVuSans-2f"/>
      <use transform="translate(154.700378 0.593906)" xlink:href="#DejaVuSans-2202"/>
      <use transform="translate(206.409363 0.593906)" xlink:href="#DejaVuSans-Oblique-3bc"/>
      <use transform="translate(274.498556 48.965625)scale(0.7)" xlink:href="#DejaVuSans-Oblique-55"/>
      <use transform="translate(325.733907 37.48125)scale(0.49)" xlink:href="#DejaVuSans-6d"/>
      <use transform="translate(373.465841 37.48125)scale(0.49)" xlink:href="#DejaVuSans-61"/>
      <use transform="translate(403.492696 37.48125)scale(0.49)" xlink:href="#DejaVuSans-78"/>
      <use transform="translate(270.03241 -26.749844)scale(0.7)" xlink:href="#DejaVuSans-34"/>
     </g>
    </g>
   </g>
  </g>
 </g>
 <defs>
  <clipPath id="p3d3021ab06">
   <rect height="332.64" width="446.4" x="72" y="51.84"/>
  </clipPath>
 </defs>
</svg>
