<?xml version="1.0" encoding="utf-8" standalone="no"?>
<!DOCTYPE svg PUBLIC "-//W3C//DTD SVG 1.1//EN"
  "http://www.w3.org/Graphics/SVG/1.1/DTD/svg11.dtd">
<!-- Created with matplotlib (http://matplotlib.org/) -->
<svg height="432pt" version="1.1" viewBox="0 0 576 432" width="576pt" xmlns="http://www.w3.org/2000/svg" xmlns:xlink="http://www.w3.org/1999/xlink">
 <defs>
  <style type="text/css">
*{stroke-linecap:butt;stroke-linejoin:round;}
  </style>
 </defs>
 <g id="figure_1">
  <g id="patch_1">
   <path d="M 0 432 
L 576 432 
L 576 0 
L 0 0 
z
" style="fill:#ffffff;"/>
  </g>
  <g id="axes_1">
   <g id="patch_2">
    <path d="M 72 384.48 
L 518.4 384.48 
L 518.4 51.84 
L 72 51.84 
z
" style="fill:#ffffff;"/>
   </g>
   <g id="matplotlib.axis_1">
    <g id="xtick_1">
     <g id="line2d_1">
      <path clip-path="url(#p811ce4377e)" d="M 92.290909 384.48 
L 92.290909 51.84 
" style="fill:none;stroke:#b0b0b0;stroke-dasharray:5.12,1.28,0.8,1.28;stroke-dashoffset:0;stroke-width:0.8;"/>
     </g>
     <g id="line2d_2">
      <defs>
       <path d="M 0 0 
L 0 3.5 
" id="m2c65aeae1d" style="stroke:#000000;stroke-width:0.8;"/>
      </defs>
      <g>
       <use style="stroke:#000000;stroke-width:0.8;" x="92.290909" xlink:href="#m2c65aeae1d" y="384.48"/>
      </g>
     </g>
     <g id="text_1">
      <!-- $0$ -->
      <defs>
       <path d="M 42 31.640625 
C 42 37.75 41.90625 48.125 37.703125 56.109375 
C 34 63.109375 28.09375 65.59375 22.90625 65.59375 
C 18.09375 65.59375 12 63.40625 8.203125 56.203125 
C 4.203125 48.71875 3.796875 39.4375 3.796875 31.640625 
C 3.796875 25.953125 3.90625 17.28125 7 9.671875 
C 11.296875 -0.609375 19 -2 22.90625 -2 
C 27.5 -2 34.5 -0.109375 38.59375 9.375 
C 41.59375 16.28125 42 24.359375 42 31.640625 
z
M 22.90625 -0.40625 
C 16.5 -0.40625 12.703125 5.078125 11.296875 12.6875 
C 10.203125 18.5625 10.203125 27.15625 10.203125 32.75 
C 10.203125 40.4375 10.203125 46.828125 11.5 52.921875 
C 13.40625 61.390625 19 64 22.90625 64 
C 27 64 32.296875 61.296875 34.203125 53.125 
C 35.5 47.4375 35.59375 40.734375 35.59375 32.75 
C 35.59375 26.25 35.59375 18.265625 34.40625 12.375 
C 32.296875 1.484375 26.40625 -0.40625 22.90625 -0.40625 
z
" id="CMR17-48"/>
      </defs>
      <g transform="translate(89.800241 398.398498)scale(0.1 -0.1)">
       <use transform="scale(0.996264)" xlink:href="#CMR17-48"/>
      </g>
     </g>
    </g>
    <g id="xtick_2">
     <g id="line2d_3">
      <path clip-path="url(#p811ce4377e)" d="M 143.043558 384.48 
L 143.043558 51.84 
" style="fill:none;stroke:#b0b0b0;stroke-dasharray:5.12,1.28,0.8,1.28;stroke-dashoffset:0;stroke-width:0.8;"/>
     </g>
     <g id="line2d_4">
      <g>
       <use style="stroke:#000000;stroke-width:0.8;" x="143.043558" xlink:href="#m2c65aeae1d" y="384.48"/>
      </g>
     </g>
     <g id="text_2">
      <!-- $250$ -->
      <defs>
       <path d="M 41.703125 15.453125 
L 39.90625 15.453125 
C 38.90625 8.375 38.09375 7.171875 37.703125 6.5625 
C 37.203125 5.765625 30 5.765625 28.59375 5.765625 
L 9.40625 5.765625 
C 13 9.671875 20 16.75 28.5 24.953125 
C 34.59375 30.734375 41.703125 37.53125 41.703125 47.421875 
C 41.703125 59.21875 32.296875 66 21.796875 66 
C 10.796875 66 4.09375 56.3125 4.09375 47.34375 
C 4.09375 43.4375 7 42.9375 8.203125 42.9375 
C 9.203125 42.9375 12.203125 43.546875 12.203125 47.03125 
C 12.203125 50.109375 9.59375 51 8.203125 51 
C 7.59375 51 7 50.90625 6.59375 50.703125 
C 8.5 59.21875 14.296875 63.40625 20.40625 63.40625 
C 29.09375 63.40625 34.796875 56.515625 34.796875 47.421875 
C 34.796875 38.734375 29.703125 31.25 24 24.75 
L 4.09375 2.28125 
L 4.09375 0 
L 39.296875 0 
z
" id="CMR17-50"/>
       <path d="M 11.40625 57.6875 
C 12.40625 57.28125 16.5 56 20.703125 56 
C 30 56 35.09375 61.109375 38 64.0625 
C 38 64.953125 38 65.5 37.40625 65.5 
C 37.296875 65.5 37.09375 65.5 36.296875 65.046875 
C 32.796875 63.40625 28.703125 62.078125 23.703125 62.078125 
C 20.703125 62.078125 16.203125 62.484375 11.296875 64.671875 
C 10.203125 65.171875 10 65.171875 9.90625 65.171875 
C 9.40625 65.171875 9.296875 65.0625 9.296875 63.078125 
L 9.296875 34.421875 
C 9.296875 32.640625 9.296875 32.140625 10.296875 32.140625 
C 10.796875 32.140625 11 32.34375 11.5 33.03125 
C 14.703125 37.515625 19.09375 39.40625 24.09375 39.40625 
C 27.59375 39.40625 35.09375 37.21875 35.09375 20.140625 
C 35.09375 16.953125 35.09375 11.171875 32.09375 6.578125 
C 29.59375 2.484375 25.703125 0.390625 21.40625 0.390625 
C 14.796875 0.390625 8.09375 5 6.296875 12.71875 
C 6.703125 12.609375 7.5 12.421875 7.90625 12.421875 
C 9.203125 12.421875 11.703125 13.125 11.703125 16.21875 
C 11.703125 18.90625 9.796875 20 7.90625 20 
C 5.59375 20 4.09375 18.59375 4.09375 15.796875 
C 4.09375 7.09375 11 -2 21.59375 -2 
C 31.90625 -2 41.703125 6.875 41.703125 19.75 
C 41.703125 31.71875 33.90625 41 24.203125 41 
C 19.09375 41 14.796875 39.109375 11.40625 35.53125 
z
" id="CMR17-53"/>
      </defs>
      <g transform="translate(135.571555 398.398498)scale(0.1 -0.1)">
       <use transform="scale(0.996264)" xlink:href="#CMR17-50"/>
       <use transform="translate(45.690477 0)scale(0.996264)" xlink:href="#CMR17-53"/>
       <use transform="translate(91.380954 0)scale(0.996264)" xlink:href="#CMR17-48"/>
      </g>
     </g>
    </g>
    <g id="xtick_3">
     <g id="line2d_5">
      <path clip-path="url(#p811ce4377e)" d="M 193.796207 384.48 
L 193.796207 51.84 
" style="fill:none;stroke:#b0b0b0;stroke-dasharray:5.12,1.28,0.8,1.28;stroke-dashoffset:0;stroke-width:0.8;"/>
     </g>
     <g id="line2d_6">
      <g>
       <use style="stroke:#000000;stroke-width:0.8;" x="193.796207" xlink:href="#m2c65aeae1d" y="384.48"/>
      </g>
     </g>
     <g id="text_3">
      <!-- $500$ -->
      <g transform="translate(186.324204 398.398498)scale(0.1 -0.1)">
       <use transform="scale(0.996264)" xlink:href="#CMR17-53"/>
       <use transform="translate(45.690477 0)scale(0.996264)" xlink:href="#CMR17-48"/>
       <use transform="translate(91.380954 0)scale(0.996264)" xlink:href="#CMR17-48"/>
      </g>
     </g>
    </g>
    <g id="xtick_4">
     <g id="line2d_7">
      <path clip-path="url(#p811ce4377e)" d="M 244.548856 384.48 
L 244.548856 51.84 
" style="fill:none;stroke:#b0b0b0;stroke-dasharray:5.12,1.28,0.8,1.28;stroke-dashoffset:0;stroke-width:0.8;"/>
     </g>
     <g id="line2d_8">
      <g>
       <use style="stroke:#000000;stroke-width:0.8;" x="244.548856" xlink:href="#m2c65aeae1d" y="384.48"/>
      </g>
     </g>
     <g id="text_4">
      <!-- $750$ -->
      <defs>
       <path d="M 45.09375 61.578125 
L 45.09375 63.765625 
L 21.59375 63.765625 
C 9.90625 63.765625 9.703125 65.078125 9.296875 67 
L 7.5 67 
L 4.59375 48.34375 
L 6.40625 48.34375 
C 6.703125 50.234375 7.40625 55.3125 8.59375 57.203125 
C 9.203125 58 16.59375 58 18.296875 58 
L 40.296875 58 
L 29.203125 41.578125 
C 21.796875 30.53125 16.703125 15.609375 16.703125 2.578125 
C 16.703125 1.390625 16.703125 -2 20.296875 -2 
C 23.90625 -2 23.90625 1.390625 23.90625 2.671875 
L 23.90625 7.265625 
C 23.90625 23.5625 26.703125 34.3125 31.296875 41.1875 
z
" id="CMR17-55"/>
      </defs>
      <g transform="translate(237.076853 398.398498)scale(0.1 -0.1)">
       <use transform="scale(0.996264)" xlink:href="#CMR17-55"/>
       <use transform="translate(45.690477 0)scale(0.996264)" xlink:href="#CMR17-53"/>
       <use transform="translate(91.380954 0)scale(0.996264)" xlink:href="#CMR17-48"/>
      </g>
     </g>
    </g>
    <g id="xtick_5">
     <g id="line2d_9">
      <path clip-path="url(#p811ce4377e)" d="M 295.301505 384.48 
L 295.301505 51.84 
" style="fill:none;stroke:#b0b0b0;stroke-dasharray:5.12,1.28,0.8,1.28;stroke-dashoffset:0;stroke-width:0.8;"/>
     </g>
     <g id="line2d_10">
      <g>
       <use style="stroke:#000000;stroke-width:0.8;" x="295.301505" xlink:href="#m2c65aeae1d" y="384.48"/>
      </g>
     </g>
     <g id="text_5">
      <!-- $1000$ -->
      <defs>
       <path d="M 26.59375 63.40625 
C 26.59375 65.5 26.5 65.5 25.09375 65.5 
C 21.203125 61.1875 15.296875 59.796875 9.703125 59.796875 
C 9.40625 59.796875 8.90625 59.796875 8.796875 59.5 
C 8.703125 59.296875 8.703125 59.09375 8.703125 57 
C 11.796875 57 17 57.59375 21 59.984375 
L 21 7.203125 
C 21 3.6875 20.796875 2.5 12.203125 2.5 
L 9.203125 2.5 
L 9.203125 0 
C 14 0 19 0 23.796875 0 
C 28.59375 0 33.59375 0 38.40625 0 
L 38.40625 2.5 
L 35.40625 2.5 
C 26.796875 2.5 26.59375 3.59375 26.59375 7.15625 
z
" id="CMR17-49"/>
      </defs>
      <g transform="translate(285.338835 398.398498)scale(0.1 -0.1)">
       <use transform="scale(0.996264)" xlink:href="#CMR17-49"/>
       <use transform="translate(45.690477 0)scale(0.996264)" xlink:href="#CMR17-48"/>
       <use transform="translate(91.380954 0)scale(0.996264)" xlink:href="#CMR17-48"/>
       <use transform="translate(137.071431 0)scale(0.996264)" xlink:href="#CMR17-48"/>
      </g>
     </g>
    </g>
    <g id="xtick_6">
     <g id="line2d_11">
      <path clip-path="url(#p811ce4377e)" d="M 346.054154 384.48 
L 346.054154 51.84 
" style="fill:none;stroke:#b0b0b0;stroke-dasharray:5.12,1.28,0.8,1.28;stroke-dashoffset:0;stroke-width:0.8;"/>
     </g>
     <g id="line2d_12">
      <g>
       <use style="stroke:#000000;stroke-width:0.8;" x="346.054154" xlink:href="#m2c65aeae1d" y="384.48"/>
      </g>
     </g>
     <g id="text_6">
      <!-- $1250$ -->
      <g transform="translate(336.091484 398.398498)scale(0.1 -0.1)">
       <use transform="scale(0.996264)" xlink:href="#CMR17-49"/>
       <use transform="translate(45.690477 0)scale(0.996264)" xlink:href="#CMR17-50"/>
       <use transform="translate(91.380954 0)scale(0.996264)" xlink:href="#CMR17-53"/>
       <use transform="translate(137.071431 0)scale(0.996264)" xlink:href="#CMR17-48"/>
      </g>
     </g>
    </g>
    <g id="xtick_7">
     <g id="line2d_13">
      <path clip-path="url(#p811ce4377e)" d="M 396.806803 384.48 
L 396.806803 51.84 
" style="fill:none;stroke:#b0b0b0;stroke-dasharray:5.12,1.28,0.8,1.28;stroke-dashoffset:0;stroke-width:0.8;"/>
     </g>
     <g id="line2d_14">
      <g>
       <use style="stroke:#000000;stroke-width:0.8;" x="396.806803" xlink:href="#m2c65aeae1d" y="384.48"/>
      </g>
     </g>
     <g id="text_7">
      <!-- $1500$ -->
      <g transform="translate(386.844133 398.398498)scale(0.1 -0.1)">
       <use transform="scale(0.996264)" xlink:href="#CMR17-49"/>
       <use transform="translate(45.690477 0)scale(0.996264)" xlink:href="#CMR17-53"/>
       <use transform="translate(91.380954 0)scale(0.996264)" xlink:href="#CMR17-48"/>
       <use transform="translate(137.071431 0)scale(0.996264)" xlink:href="#CMR17-48"/>
      </g>
     </g>
    </g>
    <g id="xtick_8">
     <g id="line2d_15">
      <path clip-path="url(#p811ce4377e)" d="M 447.559452 384.48 
L 447.559452 51.84 
" style="fill:none;stroke:#b0b0b0;stroke-dasharray:5.12,1.28,0.8,1.28;stroke-dashoffset:0;stroke-width:0.8;"/>
     </g>
     <g id="line2d_16">
      <g>
       <use style="stroke:#000000;stroke-width:0.8;" x="447.559452" xlink:href="#m2c65aeae1d" y="384.48"/>
      </g>
     </g>
     <g id="text_8">
      <!-- $1750$ -->
      <g transform="translate(437.596782 398.398498)scale(0.1 -0.1)">
       <use transform="scale(0.996264)" xlink:href="#CMR17-49"/>
       <use transform="translate(45.690477 0)scale(0.996264)" xlink:href="#CMR17-55"/>
       <use transform="translate(91.380954 0)scale(0.996264)" xlink:href="#CMR17-53"/>
       <use transform="translate(137.071431 0)scale(0.996264)" xlink:href="#CMR17-48"/>
      </g>
     </g>
    </g>
    <g id="xtick_9">
     <g id="line2d_17">
      <path clip-path="url(#p811ce4377e)" d="M 498.312102 384.48 
L 498.312102 51.84 
" style="fill:none;stroke:#b0b0b0;stroke-dasharray:5.12,1.28,0.8,1.28;stroke-dashoffset:0;stroke-width:0.8;"/>
     </g>
     <g id="line2d_18">
      <g>
       <use style="stroke:#000000;stroke-width:0.8;" x="498.312102" xlink:href="#m2c65aeae1d" y="384.48"/>
      </g>
     </g>
     <g id="text_9">
      <!-- $2000$ -->
      <g transform="translate(488.349431 398.398498)scale(0.1 -0.1)">
       <use transform="scale(0.996264)" xlink:href="#CMR17-50"/>
       <use transform="translate(45.690477 0)scale(0.996264)" xlink:href="#CMR17-48"/>
       <use transform="translate(91.380954 0)scale(0.996264)" xlink:href="#CMR17-48"/>
       <use transform="translate(137.071431 0)scale(0.996264)" xlink:href="#CMR17-48"/>
      </g>
     </g>
    </g>
    <g id="text_10">
     <!-- Iteration -->
     <defs>
      <path d="M 17.09375 69 
L 8.703125 69 
L 8.703125 0 
L 17.09375 0 
z
" id="CMSS17-73"/>
      <path d="M 16.703125 37 
L 29.703125 37 
L 29.703125 42.765625 
L 16.703125 42.765625 
L 16.703125 55 
L 9.59375 55 
L 9.59375 42.765625 
L 1.703125 42.765625 
L 1.703125 37 
L 9.40625 37 
L 9.40625 11.703125 
C 9.40625 6 10.703125 -1 17.296875 -1 
C 22.296875 -1 26.90625 0.390625 31.296875 2.6875 
L 29.703125 8.5625 
C 27.296875 6.46875 24.40625 5.265625 21.296875 5.265625 
C 16.90625 5.265625 16.703125 10.875 16.703125 13.375 
z
" id="CMSS17-116"/>
      <path d="M 39.09375 21.515625 
C 39.09375 24.84375 38.90625 31.296875 35.703125 36.640625 
C 32.203125 42.390625 26.5 44 22.203125 44 
C 11.796875 44 3 34.1875 3 21.484375 
C 3 9.09375 12.09375 -1 23.59375 -1 
C 28.09375 -1 33.59375 0.296875 38.59375 3.875 
C 38.59375 4.28125 38.40625 6.46875 38.296875 6.5625 
C 38.296875 6.765625 38 9.84375 38 10.25 
C 33.203125 6.359375 27.703125 5.078125 23.703125 5.078125 
C 17.296875 5.078125 10.40625 10.421875 10.09375 21.515625 
z
M 10.90625 27 
C 12.203125 32.5625 16.59375 37.828125 22.203125 37.828125 
C 23.703125 37.828125 30.703125 37.828125 32.5 27 
z
" id="CMSS17-101"/>
      <path d="M 14.90625 21.296875 
C 14.90625 30.703125 21.796875 37 30.59375 37 
L 30.59375 43.578125 
C 24.203125 43.578125 18.203125 40.390625 14.59375 35.203125 
L 14.59375 43.09375 
L 7.5 43.09375 
L 7.5 0 
L 14.90625 0 
z
" id="CMSS17-114"/>
      <path d="M 37.59375 27.984375 
C 37.59375 37.375 30.90625 43.875 21.90625 43.875 
C 17.5 43.875 12.703125 43.078125 7.203125 39.890625 
L 7.796875 33.359375 
C 10.296875 35.125 14.59375 38 21.796875 38 
C 26.90625 38 30 34.0625 30 27.84375 
L 30 24 
C 14 24 4 19.34375 4 11.34375 
C 4 7.203125 6.5 -1 14.796875 -1 
C 16.296875 -1 24.40625 -1 30.203125 3.390625 
L 30.203125 -0.296875 
L 37.59375 -0.296875 
z
M 30 12.75 
C 30 10.953125 30 8.5625 27 6.78125 
C 24.40625 5.078125 21.09375 5.078125 19.703125 5.078125 
C 14.703125 5.078125 11.296875 7.984375 11.296875 11.625 
C 11.296875 18.921875 26.90625 18.921875 30 18.921875 
z
" id="CMSS17-97"/>
      <path d="M 15.296875 65.359375 
L 6.90625 65.359375 
L 6.90625 57 
L 15.296875 57 
z
M 14.796875 42.796875 
L 7.40625 42.796875 
L 7.40625 0 
L 14.796875 0 
z
" id="CMSS17-105"/>
      <path d="M 44.203125 21.1875 
C 44.203125 34 34.703125 44 23.5 44 
C 12 44 2.703125 33.703125 2.703125 21.1875 
C 2.703125 8.5 12.296875 -1 23.40625 -1 
C 34.796875 -1 44.203125 8.796875 44.203125 21.1875 
z
M 23.5 5.265625 
C 16.40625 5.265625 10.296875 11.078125 10.296875 22 
C 10.296875 33.609375 17.40625 37.921875 23.40625 37.921875 
C 29.90625 37.921875 36.59375 33.21875 36.59375 22 
C 36.59375 10.671875 30.09375 5.265625 23.5 5.265625 
z
" id="CMSS17-111"/>
      <path d="M 40.90625 29.328125 
C 40.90625 35.671875 39.40625 44 28.09375 44 
C 21.703125 44 17.5 40.71875 14.703125 37.328125 
L 14.703125 43.09375 
L 7.40625 43.09375 
L 7.40625 0 
L 15 0 
L 15 24.359375 
C 15 30.6875 17.40625 37.9375 24.203125 37.9375 
C 33 37.9375 33.296875 32 33.296875 28.578125 
L 33.296875 0 
L 40.90625 0 
z
" id="CMSS17-110"/>
     </defs>
     <g transform="translate(271.264003 414.021553)scale(0.14 -0.14)">
      <use transform="scale(0.996264)" xlink:href="#CMSS17-73"/>
      <use transform="translate(25.783926 0)scale(0.996264)" xlink:href="#CMSS17-116"/>
      <use transform="translate(59.615492 0)scale(0.996264)" xlink:href="#CMSS17-101"/>
      <use transform="translate(101.254314 0)scale(0.996264)" xlink:href="#CMSS17-114"/>
      <use transform="translate(133.164087 0)scale(0.996264)" xlink:href="#CMSS17-97"/>
      <use transform="translate(178.086007 0)scale(0.996264)" xlink:href="#CMSS17-116"/>
      <use transform="translate(211.917574 0)scale(0.996264)" xlink:href="#CMSS17-105"/>
      <use transform="translate(234.098297 0)scale(0.996264)" xlink:href="#CMSS17-111"/>
      <use transform="translate(280.941921 0)scale(0.996264)" xlink:href="#CMSS17-110"/>
     </g>
    </g>
   </g>
   <g id="matplotlib.axis_2">
    <g id="ytick_1">
     <g id="line2d_19">
      <path clip-path="url(#p811ce4377e)" d="M 72 369.36 
L 518.4 369.36 
" style="fill:none;stroke:#b0b0b0;stroke-dasharray:5.12,1.28,0.8,1.28;stroke-dashoffset:0;stroke-width:0.8;"/>
     </g>
     <g id="line2d_20">
      <defs>
       <path d="M 0 0 
L -3.5 0 
" id="mbaa45517be" style="stroke:#000000;stroke-width:0.8;"/>
      </defs>
      <g>
       <use style="stroke:#000000;stroke-width:0.8;" x="72" xlink:href="#mbaa45517be" y="369.36"/>
      </g>
     </g>
     <g id="text_11">
      <!-- $-2000000$ -->
      <defs>
       <path d="M 65.90625 23 
C 67.59375 23 69.40625 23 69.40625 25 
C 69.40625 27 67.59375 27 65.90625 27 
L 11.796875 27 
C 10.09375 27 8.296875 27 8.296875 25 
C 8.296875 23 10.09375 23 11.796875 23 
z
" id="CMSY10-0"/>
      </defs>
      <g transform="translate(22.38191 372.819249)scale(0.1 -0.1)">
       <use transform="scale(0.996264)" xlink:href="#CMSY10-0"/>
       <use transform="translate(77.487468 0)scale(0.996264)" xlink:href="#CMR17-50"/>
       <use transform="translate(123.177945 0)scale(0.996264)" xlink:href="#CMR17-48"/>
       <use transform="translate(168.868422 0)scale(0.996264)" xlink:href="#CMR17-48"/>
       <use transform="translate(214.558899 0)scale(0.996264)" xlink:href="#CMR17-48"/>
       <use transform="translate(260.249376 0)scale(0.996264)" xlink:href="#CMR17-48"/>
       <use transform="translate(305.939853 0)scale(0.996264)" xlink:href="#CMR17-48"/>
       <use transform="translate(351.63033 0)scale(0.996264)" xlink:href="#CMR17-48"/>
      </g>
     </g>
    </g>
    <g id="ytick_2">
     <g id="line2d_21">
      <path clip-path="url(#p811ce4377e)" d="M 72 331.56 
L 518.4 331.56 
" style="fill:none;stroke:#b0b0b0;stroke-dasharray:5.12,1.28,0.8,1.28;stroke-dashoffset:0;stroke-width:0.8;"/>
     </g>
     <g id="line2d_22">
      <g>
       <use style="stroke:#000000;stroke-width:0.8;" x="72" xlink:href="#mbaa45517be" y="331.56"/>
      </g>
     </g>
     <g id="text_12">
      <!-- $-1750000$ -->
      <g transform="translate(22.38191 335.019249)scale(0.1 -0.1)">
       <use transform="scale(0.996264)" xlink:href="#CMSY10-0"/>
       <use transform="translate(77.487468 0)scale(0.996264)" xlink:href="#CMR17-49"/>
       <use transform="translate(123.177945 0)scale(0.996264)" xlink:href="#CMR17-55"/>
       <use transform="translate(168.868422 0)scale(0.996264)" xlink:href="#CMR17-53"/>
       <use transform="translate(214.558899 0)scale(0.996264)" xlink:href="#CMR17-48"/>
       <use transform="translate(260.249376 0)scale(0.996264)" xlink:href="#CMR17-48"/>
       <use transform="translate(305.939853 0)scale(0.996264)" xlink:href="#CMR17-48"/>
       <use transform="translate(351.63033 0)scale(0.996264)" xlink:href="#CMR17-48"/>
      </g>
     </g>
    </g>
    <g id="ytick_3">
     <g id="line2d_23">
      <path clip-path="url(#p811ce4377e)" d="M 72 293.76 
L 518.4 293.76 
" style="fill:none;stroke:#b0b0b0;stroke-dasharray:5.12,1.28,0.8,1.28;stroke-dashoffset:0;stroke-width:0.8;"/>
     </g>
     <g id="line2d_24">
      <g>
       <use style="stroke:#000000;stroke-width:0.8;" x="72" xlink:href="#mbaa45517be" y="293.76"/>
      </g>
     </g>
     <g id="text_13">
      <!-- $-1500000$ -->
      <g transform="translate(22.38191 297.219249)scale(0.1 -0.1)">
       <use transform="scale(0.996264)" xlink:href="#CMSY10-0"/>
       <use transform="translate(77.487468 0)scale(0.996264)" xlink:href="#CMR17-49"/>
       <use transform="translate(123.177945 0)scale(0.996264)" xlink:href="#CMR17-53"/>
       <use transform="translate(168.868422 0)scale(0.996264)" xlink:href="#CMR17-48"/>
       <use transform="translate(214.558899 0)scale(0.996264)" xlink:href="#CMR17-48"/>
       <use transform="translate(260.249376 0)scale(0.996264)" xlink:href="#CMR17-48"/>
       <use transform="translate(305.939853 0)scale(0.996264)" xlink:href="#CMR17-48"/>
       <use transform="translate(351.63033 0)scale(0.996264)" xlink:href="#CMR17-48"/>
      </g>
     </g>
    </g>
    <g id="ytick_4">
     <g id="line2d_25">
      <path clip-path="url(#p811ce4377e)" d="M 72 255.96 
L 518.4 255.96 
" style="fill:none;stroke:#b0b0b0;stroke-dasharray:5.12,1.28,0.8,1.28;stroke-dashoffset:0;stroke-width:0.8;"/>
     </g>
     <g id="line2d_26">
      <g>
       <use style="stroke:#000000;stroke-width:0.8;" x="72" xlink:href="#mbaa45517be" y="255.96"/>
      </g>
     </g>
     <g id="text_14">
      <!-- $-1250000$ -->
      <g transform="translate(22.38191 259.419249)scale(0.1 -0.1)">
       <use transform="scale(0.996264)" xlink:href="#CMSY10-0"/>
       <use transform="translate(77.487468 0)scale(0.996264)" xlink:href="#CMR17-49"/>
       <use transform="translate(123.177945 0)scale(0.996264)" xlink:href="#CMR17-50"/>
       <use transform="translate(168.868422 0)scale(0.996264)" xlink:href="#CMR17-53"/>
       <use transform="translate(214.558899 0)scale(0.996264)" xlink:href="#CMR17-48"/>
       <use transform="translate(260.249376 0)scale(0.996264)" xlink:href="#CMR17-48"/>
       <use transform="translate(305.939853 0)scale(0.996264)" xlink:href="#CMR17-48"/>
       <use transform="translate(351.63033 0)scale(0.996264)" xlink:href="#CMR17-48"/>
      </g>
     </g>
    </g>
    <g id="ytick_5">
     <g id="line2d_27">
      <path clip-path="url(#p811ce4377e)" d="M 72 218.16 
L 518.4 218.16 
" style="fill:none;stroke:#b0b0b0;stroke-dasharray:5.12,1.28,0.8,1.28;stroke-dashoffset:0;stroke-width:0.8;"/>
     </g>
     <g id="line2d_28">
      <g>
       <use style="stroke:#000000;stroke-width:0.8;" x="72" xlink:href="#mbaa45517be" y="218.16"/>
      </g>
     </g>
     <g id="text_15">
      <!-- $-1000000$ -->
      <g transform="translate(22.38191 221.619249)scale(0.1 -0.1)">
       <use transform="scale(0.996264)" xlink:href="#CMSY10-0"/>
       <use transform="translate(77.487468 0)scale(0.996264)" xlink:href="#CMR17-49"/>
       <use transform="translate(123.177945 0)scale(0.996264)" xlink:href="#CMR17-48"/>
       <use transform="translate(168.868422 0)scale(0.996264)" xlink:href="#CMR17-48"/>
       <use transform="translate(214.558899 0)scale(0.996264)" xlink:href="#CMR17-48"/>
       <use transform="translate(260.249376 0)scale(0.996264)" xlink:href="#CMR17-48"/>
       <use transform="translate(305.939853 0)scale(0.996264)" xlink:href="#CMR17-48"/>
       <use transform="translate(351.63033 0)scale(0.996264)" xlink:href="#CMR17-48"/>
      </g>
     </g>
    </g>
    <g id="ytick_6">
     <g id="line2d_29">
      <path clip-path="url(#p811ce4377e)" d="M 72 180.36 
L 518.4 180.36 
" style="fill:none;stroke:#b0b0b0;stroke-dasharray:5.12,1.28,0.8,1.28;stroke-dashoffset:0;stroke-width:0.8;"/>
     </g>
     <g id="line2d_30">
      <g>
       <use style="stroke:#000000;stroke-width:0.8;" x="72" xlink:href="#mbaa45517be" y="180.36"/>
      </g>
     </g>
     <g id="text_16">
      <!-- $-750000$ -->
      <g transform="translate(27.363245 183.819249)scale(0.1 -0.1)">
       <use transform="scale(0.996264)" xlink:href="#CMSY10-0"/>
       <use transform="translate(77.487468 0)scale(0.996264)" xlink:href="#CMR17-55"/>
       <use transform="translate(123.177945 0)scale(0.996264)" xlink:href="#CMR17-53"/>
       <use transform="translate(168.868422 0)scale(0.996264)" xlink:href="#CMR17-48"/>
       <use transform="translate(214.558899 0)scale(0.996264)" xlink:href="#CMR17-48"/>
       <use transform="translate(260.249376 0)scale(0.996264)" xlink:href="#CMR17-48"/>
       <use transform="translate(305.939853 0)scale(0.996264)" xlink:href="#CMR17-48"/>
      </g>
     </g>
    </g>
    <g id="ytick_7">
     <g id="line2d_31">
      <path clip-path="url(#p811ce4377e)" d="M 72 142.56 
L 518.4 142.56 
" style="fill:none;stroke:#b0b0b0;stroke-dasharray:5.12,1.28,0.8,1.28;stroke-dashoffset:0;stroke-width:0.8;"/>
     </g>
     <g id="line2d_32">
      <g>
       <use style="stroke:#000000;stroke-width:0.8;" x="72" xlink:href="#mbaa45517be" y="142.56"/>
      </g>
     </g>
     <g id="text_17">
      <!-- $-500000$ -->
      <g transform="translate(27.363245 146.019249)scale(0.1 -0.1)">
       <use transform="scale(0.996264)" xlink:href="#CMSY10-0"/>
       <use transform="translate(77.487468 0)scale(0.996264)" xlink:href="#CMR17-53"/>
       <use transform="translate(123.177945 0)scale(0.996264)" xlink:href="#CMR17-48"/>
       <use transform="translate(168.868422 0)scale(0.996264)" xlink:href="#CMR17-48"/>
       <use transform="translate(214.558899 0)scale(0.996264)" xlink:href="#CMR17-48"/>
       <use transform="translate(260.249376 0)scale(0.996264)" xlink:href="#CMR17-48"/>
       <use transform="translate(305.939853 0)scale(0.996264)" xlink:href="#CMR17-48"/>
      </g>
     </g>
    </g>
    <g id="ytick_8">
     <g id="line2d_33">
      <path clip-path="url(#p811ce4377e)" d="M 72 104.76 
L 518.4 104.76 
" style="fill:none;stroke:#b0b0b0;stroke-dasharray:5.12,1.28,0.8,1.28;stroke-dashoffset:0;stroke-width:0.8;"/>
     </g>
     <g id="line2d_34">
      <g>
       <use style="stroke:#000000;stroke-width:0.8;" x="72" xlink:href="#mbaa45517be" y="104.76"/>
      </g>
     </g>
     <g id="text_18">
      <!-- $-250000$ -->
      <g transform="translate(27.363245 108.219249)scale(0.1 -0.1)">
       <use transform="scale(0.996264)" xlink:href="#CMSY10-0"/>
       <use transform="translate(77.487468 0)scale(0.996264)" xlink:href="#CMR17-50"/>
       <use transform="translate(123.177945 0)scale(0.996264)" xlink:href="#CMR17-53"/>
       <use transform="translate(168.868422 0)scale(0.996264)" xlink:href="#CMR17-48"/>
       <use transform="translate(214.558899 0)scale(0.996264)" xlink:href="#CMR17-48"/>
       <use transform="translate(260.249376 0)scale(0.996264)" xlink:href="#CMR17-48"/>
       <use transform="translate(305.939853 0)scale(0.996264)" xlink:href="#CMR17-48"/>
      </g>
     </g>
    </g>
    <g id="ytick_9">
     <g id="line2d_35">
      <path clip-path="url(#p811ce4377e)" d="M 72 66.96 
L 518.4 66.96 
" style="fill:none;stroke:#b0b0b0;stroke-dasharray:5.12,1.28,0.8,1.28;stroke-dashoffset:0;stroke-width:0.8;"/>
     </g>
     <g id="line2d_36">
      <g>
       <use style="stroke:#000000;stroke-width:0.8;" x="72" xlink:href="#mbaa45517be" y="66.96"/>
      </g>
     </g>
     <g id="text_19">
      <!-- $0$ -->
      <g transform="translate(60.018665 70.419249)scale(0.1 -0.1)">
       <use transform="scale(0.996264)" xlink:href="#CMR17-48"/>
      </g>
     </g>
    </g>
    <g id="text_20">
     <!-- $\partial \mathcal{L}/ \partial \mu_{mn}[A]$ -->
     <defs>
      <path d="M 45.40625 33.515625 
C 44.796875 39.125 41.296875 45.859375 32.296875 45.859375 
C 18.203125 45.859375 3.796875 31.515625 3.796875 15.5625 
C 3.796875 9.4375 8 -2.09375 21.59375 -2.09375 
C 45.203125 -2.09375 55.296875 32.296875 55.296875 46 
C 55.296875 60.40625 47.203125 71.5 34.40625 71.5 
C 19.90625 71.5 15.59375 58.796875 15.59375 56.09375 
C 15.59375 55.203125 16.203125 53 19 53 
C 22.5 53 24 56.203125 24 57.90625 
C 24 61 20.90625 61 19.59375 61 
C 23.703125 68.40625 31.296875 69.09375 34 69.09375 
C 42.796875 69.09375 48.40625 62.109375 48.40625 50.96875 
C 48.40625 44.578125 46.5 37.1875 45.5 33.515625 
z
M 21.90625 0.59375 
C 12.5 0.59375 10.90625 8.03125 10.90625 12.25 
C 10.90625 16.65625 13.703125 27 15.203125 30.703125 
C 16.5 33.71875 22.203125 43.859375 32.59375 43.859375 
C 41.703125 43.859375 43.796875 35.921875 43.796875 30.515625 
C 43.796875 23.078125 37.296875 0.59375 21.90625 0.59375 
z
" id="CMMI12-64"/>
      <path d="M 18 9.53125 
C 23.40625 17.984375 25.09375 24.40625 26.40625 29.734375 
C 29.90625 43.59375 33.703125 55.65625 39.90625 62.578125 
C 41.09375 63.90625 41.90625 64.796875 45.09375 64.796875 
C 52 64.796875 52.203125 57.875 52.203125 56.453125 
C 52.203125 54.65625 51.703125 53.234375 51.703125 52.734375 
C 51.703125 52.03125 52.296875 52.03125 52.40625 52.03125 
C 54 52.03125 56.703125 53.140625 59.203125 54.953125 
C 61 56.359375 61.90625 57.359375 61.90625 61.46875 
C 61.90625 66.890625 59.09375 71 53.5 71 
C 50.296875 71 41.5 70.203125 31.703125 60.25 
C 23.703125 52.015625 19 33.9375 17.09375 26.40625 
C 15.296875 19.5 14.5 16.375 11.5 10.34375 
C 10.796875 9.15625 8.203125 4.734375 6.796875 3.421875 
C 4.09375 0.921875 3.09375 -0.890625 3.09375 -1.390625 
C 3.09375 -1.59375 3.296875 -2 4 -2 
C 4.40625 -2 6.5 -1.59375 9.09375 0.078125 
C 10.796875 1.0625 11 1.25 13.296875 3.609375 
C 18.296875 3.609375 21.796875 2.703125 28.09375 0.90625 
C 33.203125 -0.5 38.296875 -2 43.40625 -2 
C 51.5 -2 59.703125 4.125 62.90625 8.53125 
C 64.90625 11.234375 65.5 13.75 65.5 14.046875 
C 65.5 14.75 64.90625 14.75 64.796875 14.75 
C 63.203125 14.75 60.796875 13.65625 59.09375 12.4375 
C 56.40625 10.734375 56.203125 10.140625 55.59375 8.421875 
C 55.09375 6.8125 54.5 6.015625 54.09375 5.40625 
C 53.296875 4.203125 53.203125 4.203125 51.703125 4.203125 
C 46.90625 4.203125 41.90625 5.71875 35.296875 7.515625 
C 32.5 8.3125 27 9.9375 22 9.9375 
C 20.703125 9.9375 19.296875 9.828125 18 9.53125 
z
" id="CMSY10-76"/>
      <path d="M 42.90625 71.28125 
C 42.90625 71.390625 43.5 72.90625 43.5 73.09375 
C 43.5 74.296875 42.5 75 41.703125 75 
C 41.203125 75 40.296875 75 39.5 72.796875 
L 6 -21.296875 
C 6 -21.40625 5.40625 -22.890625 5.40625 -23.09375 
C 5.40625 -24.296875 6.40625 -25 7.203125 -25 
C 7.796875 -25 8.703125 -24.890625 9.40625 -22.796875 
z
" id="CMMI12-61"/>
      <path d="M 14.40625 2.1875 
C 16.90625 -0.09375 20.59375 -1 24 -1 
C 30.40625 -1 34.796875 3.25 37.09375 6.328125 
C 38.09375 1.078125 42.296875 -1 45.796875 -1 
C 48.796875 -1 51.203125 0.78125 53 4.328125 
C 54.59375 7.703125 56 13.734375 56 14.109375 
C 56 14.609375 55.59375 15 55 15 
C 54.09375 15 54 14.5 53.59375 13.03125 
C 52.09375 7.203125 50.203125 1 46.09375 1 
C 43.203125 1 43 3.578125 43 5.59375 
C 43 7.875 43.90625 11.484375 44.59375 14.46875 
L 47.40625 25.234375 
C 47.796875 27.140625 48.90625 31.609375 49.40625 33.421875 
C 50 35.8125 51.09375 40.109375 51.09375 40.5 
C 51.09375 42 49.90625 43 48.40625 43 
C 47.5 43 45.40625 42.59375 44.59375 39.609375 
L 37.59375 11.875 
C 37.09375 9.875 37.09375 9.671875 35.796875 8.078125 
C 34.59375 6.390625 30.703125 1 24.40625 1 
C 18.796875 1 17 5.09375 17 9.765625 
C 17 12.671875 17.90625 16.15625 18.296875 17.859375 
L 22.796875 35.828125 
C 23.296875 37.71875 24.09375 40.90625 24.09375 41.515625 
C 24.09375 43.109375 22.796875 44 21.5 44 
C 20.59375 44 18.40625 43.703125 17.59375 40.5 
L 3.09375 -17.296875 
C 3 -17.796875 2.796875 -18.390625 2.796875 -19 
C 2.796875 -20.5 4 -21.5 5.5 -21.5 
C 8.40625 -21.5 9 -19.1875 9.703125 -16.40625 
z
" id="CMMI12-22"/>
      <path d="M 20.59375 29.234375 
C 20.796875 29.84375 23.296875 34.828125 27 38.015625 
C 29.59375 40.40625 33 42.015625 36.90625 42.015625 
C 40.90625 42.015625 42.296875 39.015625 42.296875 35.03125 
C 42.296875 34.421875 42.296875 32.4375 41.09375 27.734375 
L 38.59375 17.46875 
C 37.796875 14.46875 35.90625 7.078125 35.703125 5.984375 
C 35.296875 4.484375 34.703125 1.890625 34.703125 1.5 
C 34.703125 0.09375 35.796875 -1 37.296875 -1 
C 40.296875 -1 40.796875 1.296875 41.703125 4.890625 
L 47.703125 28.734375 
C 47.90625 29.53125 53.09375 42.015625 64.09375 42.015625 
C 68.09375 42.015625 69.5 39.015625 69.5 35.03125 
C 69.5 29.4375 65.59375 18.5625 63.40625 12.578125 
C 62.5 10.171875 62 8.875 62 7.078125 
C 62 2.59375 65.09375 -1 69.90625 -1 
C 79.203125 -1 82.703125 13.671875 82.703125 14.265625 
C 82.703125 14.765625 82.296875 15.171875 81.703125 15.171875 
C 80.796875 15.171875 80.703125 14.875 80.203125 13.171875 
C 77.90625 5.1875 74.203125 1 70.203125 1 
C 69.203125 1 67.59375 1 67.59375 4.203125 
C 67.59375 6.8125 68.796875 10 69.203125 11.09375 
C 71 15.90625 75.5 27.703125 75.5 33.515625 
C 75.5 39.5 72 44 64.40625 44 
C 57.703125 44 52.296875 40.21875 48.296875 34.328125 
C 48 39.71875 44.703125 44 37.203125 44 
C 28.296875 44 23.59375 37.734375 21.796875 35.234375 
C 21.5 40.90625 17.40625 44 13 44 
C 10.09375 44 7.796875 42.609375 5.90625 38.8125 
C 4.09375 35.21875 2.703125 29.140625 2.703125 28.734375 
C 2.703125 28.34375 3.09375 27.84375 3.796875 27.84375 
C 4.59375 27.84375 4.703125 27.9375 5.296875 30.234375 
C 6.796875 36.125 8.703125 42.015625 12.703125 42.015625 
C 15 42.015625 15.796875 40.40625 15.796875 37.421875 
C 15.796875 35.21875 14.796875 31.328125 14.09375 28.234375 
L 11.296875 17.46875 
C 10.90625 15.5625 9.796875 11.078125 9.296875 9.28125 
C 8.59375 6.6875 7.5 2 7.5 1.5 
C 7.5 0.09375 8.59375 -1 10.09375 -1 
C 11.296875 -1 12.703125 -0.40625 13.5 1.09375 
C 13.703125 1.59375 14.59375 5.09375 15.09375 7.078125 
L 17.296875 16.0625 
z
" id="CMMI12-109"/>
      <path d="M 20.59375 29.234375 
C 20.796875 29.84375 23.296875 34.828125 27 38.015625 
C 29.59375 40.40625 33 42.015625 36.90625 42.015625 
C 40.90625 42.015625 42.296875 39.015625 42.296875 35.03125 
C 42.296875 29.34375 38.203125 17.96875 36.203125 12.578125 
C 35.296875 10.171875 34.796875 8.875 34.796875 7.078125 
C 34.796875 2.59375 37.90625 -1 42.703125 -1 
C 52 -1 55.5 13.671875 55.5 14.265625 
C 55.5 14.765625 55.09375 15.171875 54.5 15.171875 
C 53.59375 15.171875 53.5 14.875 53 13.171875 
C 50.703125 4.984375 46.90625 1 43 1 
C 42 1 40.40625 1 40.40625 4.203125 
C 40.40625 6.703125 41.5 9.703125 42.09375 11.09375 
C 44.09375 16.609375 48.296875 27.8125 48.296875 33.515625 
C 48.296875 39.5 44.796875 44 37.203125 44 
C 28.296875 44 23.59375 37.734375 21.796875 35.234375 
C 21.5 40.90625 17.40625 44 13 44 
C 9.796875 44 7.59375 42.109375 5.90625 38.71875 
C 4.09375 35.125 2.703125 29.140625 2.703125 28.734375 
C 2.703125 28.34375 3.09375 27.84375 3.796875 27.84375 
C 4.59375 27.84375 4.703125 27.9375 5.296875 30.234375 
C 6.90625 36.328125 8.703125 42.015625 12.703125 42.015625 
C 15 42.015625 15.796875 40.40625 15.796875 37.421875 
C 15.796875 35.21875 14.796875 31.328125 14.09375 28.234375 
L 11.296875 17.46875 
C 10.90625 15.5625 9.796875 11.078125 9.296875 9.28125 
C 8.59375 6.6875 7.5 2 7.5 1.5 
C 7.5 0.09375 8.59375 -1 10.09375 -1 
C 11.296875 -1 12.703125 -0.40625 13.5 1.09375 
C 13.703125 1.59375 14.59375 5.09375 15.09375 7.078125 
L 17.296875 16.0625 
z
" id="CMMI12-110"/>
      <path d="M 23.5 -25 
L 23.5 -21.515625 
L 14.09375 -21.515625 
L 14.09375 71 
L 23.5 71 
L 23.5 74.484375 
L 10.59375 74.484375 
L 10.59375 -25 
z
" id="CMR17-91"/>
      <path d="M 17 10.796875 
C 13.5 4.90625 10.09375 2.90625 5.296875 2.90625 
C 4.203125 2.8125 3.40625 2.8125 3.40625 0.90625 
C 3.40625 0.375 3.90625 0 4.59375 0 
C 6.40625 0 10.90625 0 12.703125 0 
C 15.59375 0 18.796875 0 21.59375 0 
C 22.203125 0 23.40625 0 23.40625 1.90625 
C 23.40625 2.8125 22.59375 2.90625 22 2.90625 
C 19.703125 2.90625 17.796875 3.6875 17.796875 6.0625 
C 17.796875 7.4375 18.40625 8.53125 19.703125 10.703125 
L 27.296875 23.109375 
L 52.796875 23.109375 
C 52.90625 22.234375 52.90625 21.453125 53 20.5625 
C 53.296875 18 54.5 7.734375 54.5 5.875 
C 54.5 2.90625 49.40625 2.90625 47.796875 2.90625 
C 46.703125 2.90625 45.59375 2.90625 45.59375 1.09375 
C 45.59375 0 46.5 0 47.09375 0 
C 48.796875 0 50.796875 0 52.5 0 
L 58.203125 0 
C 64.296875 0 68.703125 0 68.796875 0 
C 69.5 0 70.59375 0 70.59375 1.90625 
C 70.59375 2.90625 69.703125 2.90625 68.203125 2.90625 
C 62.703125 2.90625 62.59375 3.8125 62.296875 6.78125 
L 56.203125 68.8125 
C 56 70.796875 55.59375 71 54.5 71 
C 53.5 71 52.90625 70.796875 52 69.296875 
z
M 29 26 
L 49.09375 59.671875 
L 52.5 26 
z
" id="CMMI12-65"/>
      <path d="M 14.296875 74.484375 
L 1.40625 74.484375 
L 1.40625 71 
L 10.796875 71 
L 10.796875 -21.515625 
L 1.40625 -21.515625 
L 1.40625 -25 
L 14.296875 -25 
z
" id="CMR17-93"/>
     </defs>
     <g transform="translate(15.669881 255.069228)rotate(-90)scale(0.14 -0.14)">
      <use transform="translate(0 14.943915)scale(0.996264)" xlink:href="#CMMI12-64"/>
      <use transform="translate(56.915564 14.943915)scale(0.996264)" xlink:href="#CMSY10-76"/>
      <use transform="translate(125.630372 14.943915)scale(0.996264)" xlink:href="#CMMI12-61"/>
      <use transform="translate(174.405291 14.943915)scale(0.996264)" xlink:href="#CMMI12-64"/>
      <use transform="translate(231.320856 14.943915)scale(0.996264)" xlink:href="#CMMI12-22"/>
      <use transform="translate(290.012277 0)scale(0.697382)" xlink:href="#CMMI12-109"/>
      <use transform="translate(349.741068 0)scale(0.697382)" xlink:href="#CMMI12-110"/>
      <use transform="translate(391.000043 14.943915)scale(0.996264)" xlink:href="#CMR17-91"/>
      <use transform="translate(415.871102 14.943915)scale(0.996264)" xlink:href="#CMMI12-65"/>
      <use transform="translate(488.998987 14.943915)scale(0.996264)" xlink:href="#CMR17-93"/>
     </g>
    </g>
   </g>
   <g id="line2d_37">
    <path clip-path="url(#p811ce4377e)" d="M 92.290909 66.96 
L 92.49392 369.36 
L 92.899941 369.2655 
L 94.118004 368.602513 
L 94.930047 368.382386 
L 95.133057 368.461203 
L 95.9451 368.14182 
L 96.757142 367.709753 
L 97.772195 366.333023 
L 98.584238 365.287291 
L 99.193269 364.970576 
L 100.208322 364.744663 
L 101.629397 364.627945 
L 103.456492 364.571606 
L 106.29864 364.551614 
L 107.110683 364.544763 
L 112.794979 364.572636 
L 114.013043 364.636634 
L 120.103361 365.072212 
L 123.35153 364.765313 
L 125.584647 364.612382 
L 126.80271 364.595503 
L 129.238838 364.754552 
L 133.50206 365.07802 
L 142.028505 364.666634 
L 145.479685 364.950114 
L 147.10377 365.026459 
L 149.336887 364.98495 
L 153.397099 364.656667 
L 155.630215 364.656488 
L 161.111501 365.008591 
L 163.95365 364.920719 
L 168.216872 364.668334 
L 170.043967 364.688004 
L 173.901169 364.950731 
L 174.916222 364.988786 
L 177.75837 364.930472 
L 182.224603 364.668927 
L 191.157069 364.947917 
L 198.05943 364.707582 
L 202.931684 364.956656 
L 205.976843 364.903325 
L 211.052108 364.694262 
L 214.300277 364.826665 
L 218.5635 364.947721 
L 227.292956 364.7717 
L 232.774242 364.931611 
L 241.300687 364.775512 
L 246.984983 364.91797 
L 255.308418 364.778466 
L 261.195725 364.904377 
L 269.316149 364.782519 
L 275.609477 364.886869 
L 283.12087 364.779507 
L 290.22624 364.866635 
L 296.722579 364.770236 
L 304.436982 364.857988 
L 310.933321 364.778942 
L 317.835681 364.870429 
L 325.550084 364.7971 
L 332.655455 364.848569 
L 339.151794 364.789291 
L 346.663186 364.846735 
L 353.565546 364.799853 
L 360.873928 364.84144 
L 367.776288 364.805194 
L 374.881659 364.840363 
L 381.98703 364.810206 
L 389.092401 364.835956 
L 396.400782 364.81824 
L 403.100132 364.834916 
L 410.611524 364.821627 
L 416.904852 364.837363 
L 424.822266 364.824555 
L 432.333658 364.816975 
L 439.439029 364.83224 
L 446.950421 364.810699 
L 454.461813 364.841549 
L 462.582237 364.800327 
L 482.274264 364.837371 
L 497.90608 364.845411 
L 498.109091 364.845188 
L 498.109091 364.845188 
" style="fill:none;stroke:#bf00bf;stroke-linecap:square;stroke-width:1.5;"/>
   </g>
   <g id="line2d_38">
    <path clip-path="url(#p811ce4377e)" d="M 92.290909 66.96 
L 92.49392 369.36 
L 93.102951 369.289125 
L 94.524026 368.752961 
L 95.133057 368.626789 
L 95.539079 368.642594 
L 96.554132 368.077328 
L 96.757142 367.939177 
L 97.772195 366.417721 
L 98.381227 365.487264 
L 98.990259 365.071368 
L 99.802301 364.844612 
L 101.629397 364.674223 
L 105.486598 364.620214 
L 111.170895 364.611674 
L 121.118414 364.984359 
L 125.787657 364.665286 
L 134.111092 364.997649 
L 138.780336 364.722142 
L 141.216463 364.670428 
L 144.261622 364.831481 
L 148.118823 364.98119 
L 152.991077 364.730199 
L 155.224194 364.684098 
L 158.269353 364.832223 
L 162.938597 364.945512 
L 171.05902 364.753567 
L 176.743317 364.941538 
L 185.675783 364.786488 
L 190.751048 364.937032 
L 199.277493 364.770431 
L 205.164801 364.915234 
L 213.285224 364.774356 
L 219.375542 364.901521 
L 227.292956 364.778065 
L 233.789295 364.884253 
L 242.721761 364.832163 
L 247.797026 364.880074 
L 255.308418 364.784306 
L 262.210778 364.865753 
L 270.737223 364.828454 
L 276.218509 364.862187 
L 284.947965 364.831963 
L 290.22624 364.860575 
L 297.737632 364.800447 
L 304.639993 364.849778 
L 312.557406 364.820447 
L 318.850734 364.844267 
L 325.753095 364.803825 
L 333.467497 364.831229 
L 339.963836 364.80827 
L 347.678239 364.828032 
L 353.971568 364.809062 
L 361.68597 364.828167 
L 368.182309 364.812898 
L 375.896712 364.824624 
L 382.799072 364.823636 
L 390.716486 364.813621 
L 397.618846 364.833074 
L 404.927227 364.812241 
L 412.438619 364.840319 
L 420.559043 364.801405 
L 438.626986 364.819769 
L 447.356442 364.812398 
L 462.988258 364.805677 
L 498.109091 364.840058 
L 498.109091 364.840058 
" style="fill:none;stroke:#00bfbf;stroke-linecap:square;stroke-width:1.5;"/>
   </g>
   <g id="line2d_39">
    <path clip-path="url(#p811ce4377e)" d="M 92.290909 66.96 
L 92.49392 104.76 
L 92.69693 104.76 
L 93.102951 103.519687 
L 93.508973 102.88519 
L 94.118004 102.367278 
L 95.336068 101.826349 
L 96.14811 101.741762 
L 97.163163 101.413333 
L 97.975206 101.017844 
L 99.39628 100.104455 
L 100.411333 99.758506 
L 102.035418 99.53147 
L 105.689608 99.437141 
L 113.404011 99.62621 
L 115.637128 100.304001 
L 117.464223 100.805283 
L 118.682287 100.946373 
L 120.103361 100.845323 
L 121.727446 100.44511 
L 124.569594 99.66359 
L 126.396689 99.56766 
L 128.020774 99.809117 
L 132.487007 100.836017 
L 133.908081 100.806636 
L 135.532166 100.502834 
L 139.186357 99.669058 
L 140.607431 99.635335 
L 142.231516 99.877228 
L 146.494738 100.775908 
L 147.915812 100.758302 
L 149.539897 100.491452 
L 153.600109 99.694874 
L 155.224194 99.740709 
L 157.051289 100.071769 
L 160.096448 100.682282 
L 161.517522 100.736437 
L 163.141607 100.555617 
L 168.216872 99.725732 
L 169.231925 99.777655 
L 171.05902 100.073916 
L 174.30719 100.658945 
L 175.728264 100.6855 
L 177.352349 100.500176 
L 182.021593 99.771528 
L 183.645677 99.852814 
L 185.878794 100.236606 
L 188.314921 100.616049 
L 189.939006 100.636886 
L 191.563091 100.453103 
L 196.029324 99.816436 
L 197.653409 99.883047 
L 200.089536 100.262741 
L 202.525663 100.589401 
L 204.149748 100.590967 
L 205.976843 100.37612 
L 209.834044 99.861501 
L 211.66114 99.912497 
L 214.097267 100.25498 
L 216.533394 100.553738 
L 218.360489 100.545986 
L 220.593606 100.274878 
L 223.638765 99.905446 
L 225.46586 99.922269 
L 228.104998 100.245824 
L 230.744136 100.529091 
L 232.571231 100.503409 
L 235.007358 100.217546 
L 237.646496 99.937624 
L 239.676602 99.963974 
L 242.51875 100.293719 
L 244.954877 100.508986 
L 246.984983 100.451571 
L 253.481322 99.972488 
L 256.323471 100.259527 
L 259.165619 100.487351 
L 261.195725 100.417486 
L 267.489054 99.991488 
L 270.534213 100.275738 
L 273.17335 100.463428 
L 275.406467 100.385681 
L 281.293774 99.998813 
L 284.338933 100.247837 
L 287.384092 100.445547 
L 289.820219 100.344624 
L 294.895484 100.014766 
L 297.331611 100.148305 
L 301.594834 100.426339 
L 304.233972 100.304288 
L 308.700205 100.03138 
L 311.339342 100.153438 
L 315.602565 100.408852 
L 318.241703 100.298468 
L 322.910946 100.048884 
L 325.753095 100.186949 
L 329.813307 100.391763 
L 332.655455 100.26577 
L 336.918678 100.064562 
L 339.963836 100.20282 
L 343.821038 100.376607 
L 346.866197 100.249819 
L 350.926409 100.077976 
L 354.174578 100.21724 
L 358.03178 100.363965 
L 361.279949 100.22505 
L 365.13715 100.091539 
L 368.588331 100.240041 
L 372.242521 100.350495 
L 375.896712 100.191502 
L 379.550903 100.106932 
L 382.596062 100.238225 
L 386.453263 100.33758 
L 391.122507 100.143155 
L 394.370676 100.137279 
L 401.882068 100.290083 
L 408.378407 100.143589 
L 416.09281 100.277988 
L 422.386139 100.148119 
L 429.897531 100.280623 
L 436.799891 100.166114 
L 443.905262 100.276134 
L 451.010633 100.176472 
L 457.912993 100.271699 
L 465.221374 100.185989 
L 471.920724 100.267361 
L 479.432116 100.194784 
L 485.928455 100.26393 
L 493.845868 100.207205 
L 498.109091 100.281099 
L 498.109091 100.281099 
" style="fill:none;stroke:#ff0000;stroke-linecap:square;stroke-width:1.5;"/>
   </g>
   <g id="line2d_40">
    <path clip-path="url(#p811ce4377e)" d="M 92.290909 66.96 
L 92.49392 104.76 
L 92.69693 104.76 
L 93.102951 103.665867 
L 93.711983 102.84971 
L 94.524026 102.418851 
L 95.742089 102.077829 
L 96.351121 101.892731 
L 96.757142 101.73321 
L 97.366174 101.477028 
L 98.178216 100.887766 
L 99.193269 100.226645 
L 100.208322 99.851195 
L 101.832407 99.608499 
L 105.689608 99.509546 
L 113.404011 99.67957 
L 115.637128 100.290552 
L 117.667234 100.788343 
L 118.885297 100.881121 
L 120.306371 100.758178 
L 122.133467 100.316484 
L 124.569594 99.71973 
L 126.396689 99.628629 
L 128.020774 99.844035 
L 132.690018 100.788697 
L 134.111092 100.734383 
L 135.938187 100.387497 
L 138.983346 99.742747 
L 140.607431 99.689722 
L 142.231516 99.905821 
L 146.697749 100.734412 
L 148.321834 100.67016 
L 150.35194 100.296861 
L 152.991077 99.788021 
L 154.615162 99.732899 
L 156.442257 99.95964 
L 160.70548 100.686646 
L 162.329565 100.637675 
L 164.359671 100.303883 
L 167.201819 99.816749 
L 168.825904 99.78624 
L 170.652999 100.009266 
L 174.713211 100.643992 
L 176.337296 100.605428 
L 178.367402 100.304652 
L 181.412561 99.837706 
L 183.239656 99.846713 
L 185.269762 100.122116 
L 188.517932 100.593499 
L 190.345027 100.579081 
L 192.578144 100.273067 
L 195.420292 99.879242 
L 197.247387 99.879718 
L 199.480504 100.156623 
L 202.525663 100.555023 
L 204.352758 100.547842 
L 206.585875 100.274403 
L 209.631034 99.904077 
L 211.458129 99.924057 
L 213.894256 100.219058 
L 216.736405 100.532118 
L 218.5635 100.504757 
L 221.202638 100.186328 
L 223.841775 99.928653 
L 225.871881 99.979938 
L 229.526072 100.41216 
L 231.556178 100.513104 
L 233.586284 100.391086 
L 238.661549 99.93643 
L 241.300687 100.139328 
L 245.157888 100.487196 
L 247.391005 100.399172 
L 253.075301 99.976939 
L 255.714439 100.187193 
L 259.165619 100.463156 
L 261.398736 100.385671 
L 267.286043 100.003443 
L 270.331202 100.248848 
L 273.376361 100.443445 
L 275.812488 100.340722 
L 280.887753 100.014127 
L 282.714848 100.101735 
L 288.196134 100.417514 
L 290.835272 100.251278 
L 294.489463 100.032549 
L 297.128601 100.137534 
L 301.797844 100.406996 
L 304.639993 100.267353 
L 308.700205 100.049231 
L 311.339342 100.158586 
L 315.805576 100.391302 
L 318.647724 100.264608 
L 322.910946 100.064972 
L 325.347074 100.16225 
L 330.422338 100.368406 
L 333.873519 100.18294 
L 337.324699 100.076813 
L 346.460176 100.272722 
L 351.33243 100.093864 
L 353.768557 100.193212 
L 358.23479 100.349191 
L 362.091991 100.181533 
L 365.543172 100.104324 
L 374.678648 100.257864 
L 379.550903 100.114311 
L 388.88939 100.246866 
L 393.761644 100.129001 
L 403.100132 100.2363 
L 407.769376 100.136267 
L 417.107863 100.236154 
L 421.980117 100.144384 
L 430.506562 100.257229 
L 436.39387 100.160825 
L 444.514294 100.25498 
L 450.604611 100.17064 
L 458.522025 100.252412 
L 464.815353 100.17961 
L 472.529756 100.249706 
L 479.026095 100.187891 
L 486.537487 100.248265 
L 493.236837 100.195116 
L 498.109091 100.275969 
L 498.109091 100.275969 
" style="fill:none;stroke:#008000;stroke-linecap:square;stroke-width:1.5;"/>
   </g>
   <g id="line2d_41">
    <path clip-path="url(#p811ce4377e)" d="M 92.290909 66.96 
L 92.49392 218.16 
L 92.69693 218.16 
L 92.899941 217.404 
L 93.914994 216.940559 
L 94.727036 217.089994 
L 95.336068 217.035009 
L 95.9451 217.180793 
L 97.772195 217.303083 
L 99.39628 217.66551 
L 101.020365 217.850536 
L 103.862513 217.928203 
L 109.343799 217.920007 
L 109.952831 217.920634 
L 111.373905 217.886074 
L 112.388958 217.672852 
L 113.607022 217.089099 
L 116.44917 215.602192 
L 117.464223 215.376578 
L 118.479276 215.410326 
L 119.494329 215.689176 
L 120.915403 216.375184 
L 123.14852 217.52088 
L 123.960562 217.762388 
L 125.381636 217.794269 
L 126.396689 217.592038 
L 127.614753 217.103311 
L 130.659912 215.725714 
L 131.674965 215.540918 
L 132.690018 215.582265 
L 133.705071 215.83507 
L 135.126145 216.440207 
L 137.359261 217.430395 
L 138.577325 217.697266 
L 139.592378 217.68546 
L 140.810442 217.402278 
L 142.434526 216.723382 
L 144.464632 215.884043 
L 145.682696 215.64547 
L 146.697749 215.670674 
L 147.915812 215.95494 
L 149.539897 216.614664 
L 151.570003 217.397099 
L 152.788067 217.606935 
L 153.80312 217.573005 
L 155.021183 217.293024 
L 156.848279 216.575501 
L 158.675374 215.917851 
L 159.893438 215.727414 
L 160.908491 215.774442 
L 162.126554 216.057344 
L 164.15666 216.835273 
L 165.780745 217.365174 
L 166.998808 217.529196 
L 168.216872 217.441782 
L 169.434936 217.129006 
L 173.495148 215.843724 
L 174.713211 215.822808 
L 175.931275 216.038787 
L 177.75837 216.654284 
L 179.788476 217.296877 
L 181.00654 217.455976 
L 182.224603 217.383656 
L 183.645677 217.039581 
L 187.299868 215.946993 
L 188.517932 215.881811 
L 189.735995 216.038241 
L 191.36008 216.497568 
L 193.999218 217.261644 
L 195.217281 217.38185 
L 196.435345 217.291747 
L 197.856419 216.958625 
L 201.307599 216.019888 
L 202.525663 215.952747 
L 203.743726 216.08754 
L 205.570822 216.559973 
L 208.006949 217.197801 
L 209.428023 217.31325 
L 210.849097 217.170574 
L 212.676193 216.708093 
L 215.11232 216.109454 
L 216.533394 216.016225 
L 217.954468 216.171636 
L 219.984574 216.675155 
L 222.01468 217.142431 
L 223.435754 217.248869 
L 224.856828 217.122797 
L 226.886934 216.660196 
L 229.120051 216.168664 
L 230.541125 216.077119 
L 231.962199 216.210968 
L 233.992305 216.663106 
L 236.225422 217.117687 
L 237.646496 217.189144 
L 239.06757 217.050599 
L 241.300687 216.568857 
L 243.330793 216.191784 
L 244.751867 216.134561 
L 246.375952 216.309976 
L 251.451217 217.143375 
L 253.075301 217.020057 
L 255.511428 216.540112 
L 257.541534 216.215879 
L 259.165619 216.197493 
L 260.992715 216.441046 
L 264.849916 217.083367 
L 266.474001 217.058986 
L 268.301096 216.792428 
L 271.752276 216.241035 
L 273.376361 216.249171 
L 275.203456 216.491696 
L 278.857647 217.043871 
L 280.481732 217.026539 
L 282.511838 216.751118 
L 285.760007 216.276133 
L 287.384092 216.279479 
L 289.414198 216.532289 
L 292.865378 217.006144 
L 294.692474 216.981432 
L 296.92559 216.682101 
L 299.767738 216.310929 
L 301.594834 216.322358 
L 303.82795 216.599585 
L 306.873109 216.973453 
L 308.700205 216.954407 
L 310.933321 216.682512 
L 313.97848 216.330848 
L 315.805576 216.362888 
L 318.241703 216.659815 
L 320.88084 216.945471 
L 322.707936 216.929189 
L 325.144063 216.656535 
L 327.986211 216.361513 
L 330.016317 216.400541 
L 333.061476 216.757244 
L 335.497603 216.934165 
L 337.527709 216.843962 
L 343.212006 216.381583 
L 345.445123 216.555551 
L 349.302324 216.906098 
L 351.33243 216.844935 
L 357.828769 216.426951 
L 360.670917 216.691241 
L 363.513066 216.887382 
L 365.746182 216.79978 
L 371.227468 216.422832 
L 373.663595 216.583906 
L 377.520797 216.867848 
L 379.753913 216.788466 
L 385.43821 216.445533 
L 388.280358 216.643958 
L 391.731538 216.849277 
L 394.167666 216.746662 
L 399.03992 216.456465 
L 401.679058 216.59329 
L 405.73927 216.831384 
L 408.378407 216.725964 
L 413.047651 216.472321 
L 415.889799 216.611333 
L 419.950011 216.816263 
L 422.79216 216.692986 
L 427.055382 216.488364 
L 430.100541 216.626335 
L 434.160753 216.799795 
L 437.205912 216.664148 
L 441.266124 216.503977 
L 444.514294 216.652587 
L 448.168484 216.786579 
L 451.416654 216.651345 
L 455.273855 216.516423 
L 458.725035 216.663558 
L 462.379226 216.772931 
L 466.033417 216.617423 
L 469.687607 216.533044 
L 474.559862 216.743562 
L 477.808031 216.726077 
L 484.507381 216.562742 
L 492.018773 216.711814 
L 498.109091 216.559955 
L 498.109091 216.559955 
" style="fill:none;stroke:#0000ff;stroke-linecap:square;stroke-width:1.5;"/>
   </g>
   <g id="line2d_42">
    <path clip-path="url(#p811ce4377e)" d="M 92.290909 66.96 
L 92.49392 218.16 
L 92.69693 218.16 
L 93.102951 217.014187 
L 93.508973 216.682362 
L 94.118004 216.592583 
L 95.133057 216.744405 
L 95.336068 216.660012 
L 95.9451 216.854391 
L 97.569185 217.057118 
L 97.772195 217.017444 
L 98.990259 217.377206 
L 100.208322 217.65999 
L 105.892619 217.853159 
L 106.501651 217.849652 
L 108.937778 217.858303 
L 111.576916 217.824547 
L 112.591969 217.628884 
L 113.810032 217.096264 
L 116.652181 215.695625 
L 117.667234 215.469791 
L 118.682287 215.483941 
L 119.69734 215.72902 
L 121.118414 216.357643 
L 123.554541 217.508665 
L 124.366583 217.693058 
L 126.396689 217.601525 
L 127.614753 217.191762 
L 131.268944 215.708773 
L 132.283997 215.604759 
L 133.29905 215.712095 
L 134.517113 216.081006 
L 138.577325 217.594915 
L 139.592378 217.637856 
L 140.810442 217.431344 
L 142.231516 216.922784 
L 144.870654 215.899199 
L 146.088717 215.705309 
L 147.10377 215.753896 
L 148.321834 216.044092 
L 150.35194 216.838159 
L 151.976024 217.379128 
L 153.194088 217.548935 
L 154.412152 217.462929 
L 155.630215 217.143159 
L 159.690427 215.830295 
L 160.908491 215.804638 
L 162.126554 216.020911 
L 163.750639 216.567309 
L 165.983756 217.301073 
L 167.201819 217.467851 
L 168.419883 217.400855 
L 169.840957 217.054625 
L 173.698158 215.906537 
L 174.916222 215.873458 
L 176.134285 216.063463 
L 177.961381 216.629667 
L 179.991487 217.238429 
L 181.20955 217.399826 
L 182.427614 217.343626 
L 183.848688 217.032999 
L 187.705889 215.977728 
L 188.923953 215.940016 
L 190.345027 216.151172 
L 192.578144 216.800684 
L 194.405239 217.241377 
L 195.826313 217.328628 
L 197.247387 217.152416 
L 199.277493 216.600935 
L 201.307599 216.102043 
L 202.728673 215.998276 
L 204.149748 216.14947 
L 205.976843 216.603588 
L 208.41297 217.180451 
L 209.834044 217.265956 
L 211.255118 217.111062 
L 213.285224 216.612533 
L 215.31533 216.15609 
L 216.736405 216.057878 
L 218.157479 216.192013 
L 220.187585 216.655302 
L 222.420701 217.127001 
L 223.841775 217.206252 
L 225.26285 217.070006 
L 227.495966 216.577227 
L 229.526072 216.184373 
L 230.947146 216.118977 
L 232.571231 216.296595 
L 237.646496 217.155279 
L 239.270581 217.03413 
L 241.503697 216.589334 
L 243.736814 216.209606 
L 245.360899 216.184809 
L 246.984983 216.390764 
L 251.248206 217.09946 
L 252.872291 217.051877 
L 254.902397 216.724575 
L 257.744545 216.251057 
L 259.36863 216.223912 
L 261.195725 216.44297 
L 265.255937 217.060745 
L 266.880022 217.019629 
L 268.910128 216.721904 
L 271.955287 216.273084 
L 273.579372 216.271594 
L 275.609477 216.524817 
L 279.060658 217.013235 
L 280.684742 217.005533 
L 282.714848 216.755385 
L 286.166028 216.294406 
L 287.993124 216.328355 
L 290.22624 216.625156 
L 293.068389 216.978172 
L 294.895484 216.963689 
L 297.128601 216.690366 
L 300.17376 216.327119 
L 302.000855 216.353671 
L 304.436982 216.651949 
L 307.27913 216.957182 
L 309.106226 216.924199 
L 311.542353 216.632362 
L 314.181491 216.355347 
L 316.008586 216.377614 
L 318.647724 216.676862 
L 321.286862 216.930683 
L 323.316968 216.887154 
L 326.159116 216.562064 
L 328.595243 216.371275 
L 330.625349 216.443766 
L 336.715667 216.900607 
L 339.151794 216.690109 
L 342.602974 216.396524 
L 344.836091 216.476746 
L 350.723398 216.879594 
L 353.362536 216.666304 
L 356.610705 216.417624 
L 358.843822 216.488265 
L 364.731129 216.861425 
L 367.370267 216.667475 
L 370.821447 216.434304 
L 373.257574 216.52987 
L 378.332839 216.852662 
L 380.971977 216.702962 
L 385.032189 216.45062 
L 387.671327 216.569929 
L 392.13756 216.835619 
L 394.776697 216.714721 
L 399.242931 216.468887 
L 402.085079 216.607155 
L 406.145291 216.819555 
L 408.987439 216.696732 
L 413.250662 216.483794 
L 416.09281 216.608859 
L 420.356033 216.804318 
L 423.401192 216.667466 
L 427.461403 216.500175 
L 430.709573 216.649684 
L 434.363764 216.790093 
L 437.611933 216.654789 
L 441.469135 216.513147 
L 444.920315 216.660191 
L 448.574505 216.77615 
L 452.228696 216.620753 
L 455.882887 216.529628 
L 460.146109 216.719433 
L 463.394279 216.75059 
L 471.920724 216.608254 
L 476.995989 216.750164 
L 487.146519 216.665908 
L 491.206731 216.737448 
L 498.109091 216.560766 
L 498.109091 216.560766 
" style="fill:none;stroke:#000000;stroke-linecap:square;stroke-width:1.5;"/>
   </g>
   <g id="patch_3">
    <path d="M 72 384.48 
L 72 51.84 
" style="fill:none;stroke:#000000;stroke-linecap:square;stroke-linejoin:miter;stroke-width:0.8;"/>
   </g>
   <g id="patch_4">
    <path d="M 518.4 384.48 
L 518.4 51.84 
" style="fill:none;stroke:#000000;stroke-linecap:square;stroke-linejoin:miter;stroke-width:0.8;"/>
   </g>
   <g id="patch_5">
    <path d="M 72 384.48 
L 518.4 384.48 
" style="fill:none;stroke:#000000;stroke-linecap:square;stroke-linejoin:miter;stroke-width:0.8;"/>
   </g>
   <g id="patch_6">
    <path d="M 72 51.84 
L 518.4 51.84 
" style="fill:none;stroke:#000000;stroke-linecap:square;stroke-linejoin:miter;stroke-width:0.8;"/>
   </g>
   <g id="legend_1">
    <g id="patch_7">
     <path d="M 79 379.48 
L 148.483597 379.48 
Q 150.483597 379.48 150.483597 377.48 
L 150.483597 288.704159 
Q 150.483597 286.704159 148.483597 286.704159 
L 79 286.704159 
Q 77 286.704159 77 288.704159 
L 77 377.48 
Q 77 379.48 79 379.48 
z
" style="fill:#ffffff;opacity:0.8;stroke:#cccccc;stroke-linejoin:miter;"/>
    </g>
    <g id="line2d_43">
     <path d="M 81 295.229621 
L 101 295.229621 
" style="fill:none;stroke:#bf00bf;stroke-linecap:square;stroke-width:1.5;"/>
    </g>
    <g id="line2d_44"/>
    <g id="text_21">
     <!-- $\partial \mathcal{L}/ \partial \mu_{12}$ -->
     <g transform="translate(109 298.729621)scale(0.1 -0.1)">
      <use transform="translate(0 14.943915)scale(0.996264)" xlink:href="#CMMI12-64"/>
      <use transform="translate(56.915564 14.943915)scale(0.996264)" xlink:href="#CMSY10-76"/>
      <use transform="translate(125.630372 14.943915)scale(0.996264)" xlink:href="#CMMI12-61"/>
      <use transform="translate(174.405291 14.943915)scale(0.996264)" xlink:href="#CMMI12-64"/>
      <use transform="translate(231.320856 14.943915)scale(0.996264)" xlink:href="#CMMI12-22"/>
      <use transform="translate(290.012277 0)scale(0.697382)" xlink:href="#CMR17-49"/>
      <use transform="translate(321.995459 0)scale(0.697382)" xlink:href="#CMR17-50"/>
     </g>
    </g>
    <g id="line2d_45">
     <path d="M 81 310.192261 
L 101 310.192261 
" style="fill:none;stroke:#00bfbf;stroke-linecap:square;stroke-width:1.5;"/>
    </g>
    <g id="line2d_46"/>
    <g id="text_22">
     <!-- $\partial \mathcal{L}/ \partial \mu_{21}$ -->
     <g transform="translate(109 313.692261)scale(0.1 -0.1)">
      <use transform="translate(0 14.943915)scale(0.996264)" xlink:href="#CMMI12-64"/>
      <use transform="translate(56.915564 14.943915)scale(0.996264)" xlink:href="#CMSY10-76"/>
      <use transform="translate(125.630372 14.943915)scale(0.996264)" xlink:href="#CMMI12-61"/>
      <use transform="translate(174.405291 14.943915)scale(0.996264)" xlink:href="#CMMI12-64"/>
      <use transform="translate(231.320856 14.943915)scale(0.996264)" xlink:href="#CMMI12-22"/>
      <use transform="translate(290.012277 0)scale(0.697382)" xlink:href="#CMR17-50"/>
      <use transform="translate(321.995459 0)scale(0.697382)" xlink:href="#CMR17-49"/>
     </g>
    </g>
    <g id="line2d_47">
     <path d="M 81 325.154901 
L 101 325.154901 
" style="fill:none;stroke:#ff0000;stroke-linecap:square;stroke-width:1.5;"/>
    </g>
    <g id="line2d_48"/>
    <g id="text_23">
     <!-- $\partial \mathcal{L}/ \partial \mu_{23}$ -->
     <defs>
      <path d="M 22.09375 33.703125 
C 31 33.703125 34.90625 25.96875 34.90625 17.03125 
C 34.90625 5 28.5 0.390625 22.703125 0.390625 
C 17.40625 0.390625 8.796875 3.03125 6.09375 10.828125 
C 6.59375 10.625 7.09375 10.625 7.59375 10.625 
C 10 10.625 11.796875 12.21875 11.796875 14.8125 
C 11.796875 17.703125 9.59375 19 7.59375 19 
C 5.90625 19 3.296875 18.203125 3.296875 14.46875 
C 3.296875 5.234375 12.296875 -2 22.90625 -2 
C 34 -2 42.5 6.71875 42.5 16.953125 
C 42.5 26.671875 34.5 33.703125 25 34.796875 
C 32.59375 36.375 39.90625 43.0625 39.90625 52.015625 
C 39.90625 59.6875 32 65.296875 23 65.296875 
C 13.90625 65.296875 5.90625 59.828125 5.90625 52.015625 
C 5.90625 48.59375 8.5 48 9.796875 48 
C 11.90625 48 13.703125 49.296875 13.703125 51.890625 
C 13.703125 54.46875 11.90625 55.765625 9.796875 55.765625 
C 9.40625 55.765625 8.90625 55.765625 8.5 55.578125 
C 11.40625 61.859375 19.296875 63 22.796875 63 
C 26.296875 63 32.90625 61.328125 32.90625 51.875 
C 32.90625 49.109375 32.5 44.1875 29.09375 39.84375 
C 26.09375 36 22.703125 36 19.40625 35.6875 
C 18.90625 35.6875 16.59375 35.453125 16.203125 35.453125 
C 15.5 35.359375 15.09375 35.265625 15.09375 34.5 
C 15.09375 33.796875 15.203125 33.703125 17.203125 33.703125 
z
" id="CMR17-51"/>
     </defs>
     <g transform="translate(109 328.654901)scale(0.1 -0.1)">
      <use transform="translate(0 14.943915)scale(0.996264)" xlink:href="#CMMI12-64"/>
      <use transform="translate(56.915564 14.943915)scale(0.996264)" xlink:href="#CMSY10-76"/>
      <use transform="translate(125.630372 14.943915)scale(0.996264)" xlink:href="#CMMI12-61"/>
      <use transform="translate(174.405291 14.943915)scale(0.996264)" xlink:href="#CMMI12-64"/>
      <use transform="translate(231.320856 14.943915)scale(0.996264)" xlink:href="#CMMI12-22"/>
      <use transform="translate(290.012277 0)scale(0.697382)" xlink:href="#CMR17-50"/>
      <use transform="translate(321.995459 0)scale(0.697382)" xlink:href="#CMR17-51"/>
     </g>
    </g>
    <g id="line2d_49">
     <path d="M 81 340.117541 
L 101 340.117541 
" style="fill:none;stroke:#008000;stroke-linecap:square;stroke-width:1.5;"/>
    </g>
    <g id="line2d_50"/>
    <g id="text_24">
     <!-- $\partial \mathcal{L}/ \partial \mu_{32}$ -->
     <g transform="translate(109 343.617541)scale(0.1 -0.1)">
      <use transform="translate(0 14.943915)scale(0.996264)" xlink:href="#CMMI12-64"/>
      <use transform="translate(56.915564 14.943915)scale(0.996264)" xlink:href="#CMSY10-76"/>
      <use transform="translate(125.630372 14.943915)scale(0.996264)" xlink:href="#CMMI12-61"/>
      <use transform="translate(174.405291 14.943915)scale(0.996264)" xlink:href="#CMMI12-64"/>
      <use transform="translate(231.320856 14.943915)scale(0.996264)" xlink:href="#CMMI12-22"/>
      <use transform="translate(290.012277 0)scale(0.697382)" xlink:href="#CMR17-51"/>
      <use transform="translate(321.995459 0)scale(0.697382)" xlink:href="#CMR17-50"/>
     </g>
    </g>
    <g id="line2d_51">
     <path d="M 81 355.080182 
L 101 355.080182 
" style="fill:none;stroke:#0000ff;stroke-linecap:square;stroke-width:1.5;"/>
    </g>
    <g id="line2d_52"/>
    <g id="text_25">
     <!-- $\partial \mathcal{L}/ \partial \mu_{34}$ -->
     <defs>
      <path d="M 33.59375 64.40625 
C 33.59375 66.5 33.5 66.5 31.703125 66.5 
L 2 19.59375 
L 2 17 
L 27.796875 17 
L 27.796875 7.140625 
C 27.796875 3.5 27.59375 2.5 20.59375 2.5 
L 18.703125 2.5 
L 18.703125 0 
C 21.90625 0 27.296875 0 30.703125 0 
C 34.09375 0 39.5 0 42.703125 0 
L 42.703125 2.5 
L 40.796875 2.5 
C 33.796875 2.5 33.59375 3.5 33.59375 7.140625 
L 33.59375 17 
L 43.796875 17 
L 43.796875 19.59375 
L 33.59375 19.59375 
z
M 28.09375 57.859375 
L 28.09375 19.59375 
L 4 19.59375 
z
" id="CMR17-52"/>
     </defs>
     <g transform="translate(109 358.580182)scale(0.1 -0.1)">
      <use transform="translate(0 14.943915)scale(0.996264)" xlink:href="#CMMI12-64"/>
      <use transform="translate(56.915564 14.943915)scale(0.996264)" xlink:href="#CMSY10-76"/>
      <use transform="translate(125.630372 14.943915)scale(0.996264)" xlink:href="#CMMI12-61"/>
      <use transform="translate(174.405291 14.943915)scale(0.996264)" xlink:href="#CMMI12-64"/>
      <use transform="translate(231.320856 14.943915)scale(0.996264)" xlink:href="#CMMI12-22"/>
      <use transform="translate(290.012277 0)scale(0.697382)" xlink:href="#CMR17-51"/>
      <use transform="translate(321.995459 0)scale(0.697382)" xlink:href="#CMR17-52"/>
     </g>
    </g>
    <g id="line2d_53">
     <path d="M 81 370.042822 
L 101 370.042822 
" style="fill:none;stroke:#000000;stroke-linecap:square;stroke-width:1.5;"/>
    </g>
    <g id="line2d_54"/>
    <g id="text_26">
     <!-- $\partial \mathcal{L}/ \partial \mu_{43}$ -->
     <g transform="translate(109 373.542822)scale(0.1 -0.1)">
      <use transform="translate(0 14.943915)scale(0.996264)" xlink:href="#CMMI12-64"/>
      <use transform="translate(56.915564 14.943915)scale(0.996264)" xlink:href="#CMSY10-76"/>
      <use transform="translate(125.630372 14.943915)scale(0.996264)" xlink:href="#CMMI12-61"/>
      <use transform="translate(174.405291 14.943915)scale(0.996264)" xlink:href="#CMMI12-64"/>
      <use transform="translate(231.320856 14.943915)scale(0.996264)" xlink:href="#CMMI12-22"/>
      <use transform="translate(290.012277 0)scale(0.697382)" xlink:href="#CMR17-52"/>
      <use transform="translate(321.995459 0)scale(0.697382)" xlink:href="#CMR17-51"/>
     </g>
    </g>
   </g>
  </g>
 </g>
 <defs>
  <clipPath id="p811ce4377e">
   <rect height="332.64" width="446.4" x="72" y="51.84"/>
  </clipPath>
 </defs>
</svg>
