<?xml version="1.0" encoding="utf-8" standalone="no"?>
<!DOCTYPE svg PUBLIC "-//W3C//DTD SVG 1.1//EN"
  "http://www.w3.org/Graphics/SVG/1.1/DTD/svg11.dtd">
<!-- Created with matplotlib (http://matplotlib.org/) -->
<svg height="432pt" version="1.1" viewBox="0 0 576 432" width="576pt" xmlns="http://www.w3.org/2000/svg" xmlns:xlink="http://www.w3.org/1999/xlink">
 <defs>
  <style type="text/css">
*{stroke-linecap:butt;stroke-linejoin:round;}
  </style>
 </defs>
 <g id="figure_1">
  <g id="patch_1">
   <path d="M 0 432 
L 576 432 
L 576 0 
L 0 0 
z
" style="fill:#ffffff;"/>
  </g>
  <g id="axes_1">
   <g id="patch_2">
    <path d="M 72 384.48 
L 518.4 384.48 
L 518.4 51.84 
L 72 51.84 
z
" style="fill:#ffffff;"/>
   </g>
   <g id="matplotlib.axis_1">
    <g id="xtick_1">
     <g id="line2d_1">
      <path clip-path="url(#p6ddf01c3eb)" d="M 92.290909 384.48 
L 92.290909 51.84 
" style="fill:none;stroke:#b0b0b0;stroke-dasharray:5.12,1.28,0.8,1.28;stroke-dashoffset:0;stroke-width:0.8;"/>
     </g>
     <g id="line2d_2">
      <defs>
       <path d="M 0 0 
L 0 3.5 
" id="mc59e496680" style="stroke:#000000;stroke-width:0.8;"/>
      </defs>
      <g>
       <use style="stroke:#000000;stroke-width:0.8;" x="92.290909" xlink:href="#mc59e496680" y="384.48"/>
      </g>
     </g>
     <g id="text_1">
      <!-- $0$ -->
      <defs>
       <path d="M 42 31.640625 
C 42 37.75 41.90625 48.125 37.703125 56.109375 
C 34 63.109375 28.09375 65.59375 22.90625 65.59375 
C 18.09375 65.59375 12 63.40625 8.203125 56.203125 
C 4.203125 48.71875 3.796875 39.4375 3.796875 31.640625 
C 3.796875 25.953125 3.90625 17.28125 7 9.671875 
C 11.296875 -0.609375 19 -2 22.90625 -2 
C 27.5 -2 34.5 -0.109375 38.59375 9.375 
C 41.59375 16.28125 42 24.359375 42 31.640625 
z
M 22.90625 -0.40625 
C 16.5 -0.40625 12.703125 5.078125 11.296875 12.6875 
C 10.203125 18.5625 10.203125 27.15625 10.203125 32.75 
C 10.203125 40.4375 10.203125 46.828125 11.5 52.921875 
C 13.40625 61.390625 19 64 22.90625 64 
C 27 64 32.296875 61.296875 34.203125 53.125 
C 35.5 47.4375 35.59375 40.734375 35.59375 32.75 
C 35.59375 26.25 35.59375 18.265625 34.40625 12.375 
C 32.296875 1.484375 26.40625 -0.40625 22.90625 -0.40625 
z
" id="CMR17-48"/>
      </defs>
      <g transform="translate(89.800241 398.398498)scale(0.1 -0.1)">
       <use transform="scale(0.996264)" xlink:href="#CMR17-48"/>
      </g>
     </g>
    </g>
    <g id="xtick_2">
     <g id="line2d_3">
      <path clip-path="url(#p6ddf01c3eb)" d="M 143.043558 384.48 
L 143.043558 51.84 
" style="fill:none;stroke:#b0b0b0;stroke-dasharray:5.12,1.28,0.8,1.28;stroke-dashoffset:0;stroke-width:0.8;"/>
     </g>
     <g id="line2d_4">
      <g>
       <use style="stroke:#000000;stroke-width:0.8;" x="143.043558" xlink:href="#mc59e496680" y="384.48"/>
      </g>
     </g>
     <g id="text_2">
      <!-- $250$ -->
      <defs>
       <path d="M 41.703125 15.453125 
L 39.90625 15.453125 
C 38.90625 8.375 38.09375 7.171875 37.703125 6.5625 
C 37.203125 5.765625 30 5.765625 28.59375 5.765625 
L 9.40625 5.765625 
C 13 9.671875 20 16.75 28.5 24.953125 
C 34.59375 30.734375 41.703125 37.53125 41.703125 47.421875 
C 41.703125 59.21875 32.296875 66 21.796875 66 
C 10.796875 66 4.09375 56.3125 4.09375 47.34375 
C 4.09375 43.4375 7 42.9375 8.203125 42.9375 
C 9.203125 42.9375 12.203125 43.546875 12.203125 47.03125 
C 12.203125 50.109375 9.59375 51 8.203125 51 
C 7.59375 51 7 50.90625 6.59375 50.703125 
C 8.5 59.21875 14.296875 63.40625 20.40625 63.40625 
C 29.09375 63.40625 34.796875 56.515625 34.796875 47.421875 
C 34.796875 38.734375 29.703125 31.25 24 24.75 
L 4.09375 2.28125 
L 4.09375 0 
L 39.296875 0 
z
" id="CMR17-50"/>
       <path d="M 11.40625 57.6875 
C 12.40625 57.28125 16.5 56 20.703125 56 
C 30 56 35.09375 61.109375 38 64.0625 
C 38 64.953125 38 65.5 37.40625 65.5 
C 37.296875 65.5 37.09375 65.5 36.296875 65.046875 
C 32.796875 63.40625 28.703125 62.078125 23.703125 62.078125 
C 20.703125 62.078125 16.203125 62.484375 11.296875 64.671875 
C 10.203125 65.171875 10 65.171875 9.90625 65.171875 
C 9.40625 65.171875 9.296875 65.0625 9.296875 63.078125 
L 9.296875 34.421875 
C 9.296875 32.640625 9.296875 32.140625 10.296875 32.140625 
C 10.796875 32.140625 11 32.34375 11.5 33.03125 
C 14.703125 37.515625 19.09375 39.40625 24.09375 39.40625 
C 27.59375 39.40625 35.09375 37.21875 35.09375 20.140625 
C 35.09375 16.953125 35.09375 11.171875 32.09375 6.578125 
C 29.59375 2.484375 25.703125 0.390625 21.40625 0.390625 
C 14.796875 0.390625 8.09375 5 6.296875 12.71875 
C 6.703125 12.609375 7.5 12.421875 7.90625 12.421875 
C 9.203125 12.421875 11.703125 13.125 11.703125 16.21875 
C 11.703125 18.90625 9.796875 20 7.90625 20 
C 5.59375 20 4.09375 18.59375 4.09375 15.796875 
C 4.09375 7.09375 11 -2 21.59375 -2 
C 31.90625 -2 41.703125 6.875 41.703125 19.75 
C 41.703125 31.71875 33.90625 41 24.203125 41 
C 19.09375 41 14.796875 39.109375 11.40625 35.53125 
z
" id="CMR17-53"/>
      </defs>
      <g transform="translate(135.571555 398.398498)scale(0.1 -0.1)">
       <use transform="scale(0.996264)" xlink:href="#CMR17-50"/>
       <use transform="translate(45.690477 0)scale(0.996264)" xlink:href="#CMR17-53"/>
       <use transform="translate(91.380954 0)scale(0.996264)" xlink:href="#CMR17-48"/>
      </g>
     </g>
    </g>
    <g id="xtick_3">
     <g id="line2d_5">
      <path clip-path="url(#p6ddf01c3eb)" d="M 193.796207 384.48 
L 193.796207 51.84 
" style="fill:none;stroke:#b0b0b0;stroke-dasharray:5.12,1.28,0.8,1.28;stroke-dashoffset:0;stroke-width:0.8;"/>
     </g>
     <g id="line2d_6">
      <g>
       <use style="stroke:#000000;stroke-width:0.8;" x="193.796207" xlink:href="#mc59e496680" y="384.48"/>
      </g>
     </g>
     <g id="text_3">
      <!-- $500$ -->
      <g transform="translate(186.324204 398.398498)scale(0.1 -0.1)">
       <use transform="scale(0.996264)" xlink:href="#CMR17-53"/>
       <use transform="translate(45.690477 0)scale(0.996264)" xlink:href="#CMR17-48"/>
       <use transform="translate(91.380954 0)scale(0.996264)" xlink:href="#CMR17-48"/>
      </g>
     </g>
    </g>
    <g id="xtick_4">
     <g id="line2d_7">
      <path clip-path="url(#p6ddf01c3eb)" d="M 244.548856 384.48 
L 244.548856 51.84 
" style="fill:none;stroke:#b0b0b0;stroke-dasharray:5.12,1.28,0.8,1.28;stroke-dashoffset:0;stroke-width:0.8;"/>
     </g>
     <g id="line2d_8">
      <g>
       <use style="stroke:#000000;stroke-width:0.8;" x="244.548856" xlink:href="#mc59e496680" y="384.48"/>
      </g>
     </g>
     <g id="text_4">
      <!-- $750$ -->
      <defs>
       <path d="M 45.09375 61.578125 
L 45.09375 63.765625 
L 21.59375 63.765625 
C 9.90625 63.765625 9.703125 65.078125 9.296875 67 
L 7.5 67 
L 4.59375 48.34375 
L 6.40625 48.34375 
C 6.703125 50.234375 7.40625 55.3125 8.59375 57.203125 
C 9.203125 58 16.59375 58 18.296875 58 
L 40.296875 58 
L 29.203125 41.578125 
C 21.796875 30.53125 16.703125 15.609375 16.703125 2.578125 
C 16.703125 1.390625 16.703125 -2 20.296875 -2 
C 23.90625 -2 23.90625 1.390625 23.90625 2.671875 
L 23.90625 7.265625 
C 23.90625 23.5625 26.703125 34.3125 31.296875 41.1875 
z
" id="CMR17-55"/>
      </defs>
      <g transform="translate(237.076853 398.398498)scale(0.1 -0.1)">
       <use transform="scale(0.996264)" xlink:href="#CMR17-55"/>
       <use transform="translate(45.690477 0)scale(0.996264)" xlink:href="#CMR17-53"/>
       <use transform="translate(91.380954 0)scale(0.996264)" xlink:href="#CMR17-48"/>
      </g>
     </g>
    </g>
    <g id="xtick_5">
     <g id="line2d_9">
      <path clip-path="url(#p6ddf01c3eb)" d="M 295.301505 384.48 
L 295.301505 51.84 
" style="fill:none;stroke:#b0b0b0;stroke-dasharray:5.12,1.28,0.8,1.28;stroke-dashoffset:0;stroke-width:0.8;"/>
     </g>
     <g id="line2d_10">
      <g>
       <use style="stroke:#000000;stroke-width:0.8;" x="295.301505" xlink:href="#mc59e496680" y="384.48"/>
      </g>
     </g>
     <g id="text_5">
      <!-- $1000$ -->
      <defs>
       <path d="M 26.59375 63.40625 
C 26.59375 65.5 26.5 65.5 25.09375 65.5 
C 21.203125 61.1875 15.296875 59.796875 9.703125 59.796875 
C 9.40625 59.796875 8.90625 59.796875 8.796875 59.5 
C 8.703125 59.296875 8.703125 59.09375 8.703125 57 
C 11.796875 57 17 57.59375 21 59.984375 
L 21 7.203125 
C 21 3.6875 20.796875 2.5 12.203125 2.5 
L 9.203125 2.5 
L 9.203125 0 
C 14 0 19 0 23.796875 0 
C 28.59375 0 33.59375 0 38.40625 0 
L 38.40625 2.5 
L 35.40625 2.5 
C 26.796875 2.5 26.59375 3.59375 26.59375 7.15625 
z
" id="CMR17-49"/>
      </defs>
      <g transform="translate(285.338835 398.398498)scale(0.1 -0.1)">
       <use transform="scale(0.996264)" xlink:href="#CMR17-49"/>
       <use transform="translate(45.690477 0)scale(0.996264)" xlink:href="#CMR17-48"/>
       <use transform="translate(91.380954 0)scale(0.996264)" xlink:href="#CMR17-48"/>
       <use transform="translate(137.071431 0)scale(0.996264)" xlink:href="#CMR17-48"/>
      </g>
     </g>
    </g>
    <g id="xtick_6">
     <g id="line2d_11">
      <path clip-path="url(#p6ddf01c3eb)" d="M 346.054154 384.48 
L 346.054154 51.84 
" style="fill:none;stroke:#b0b0b0;stroke-dasharray:5.12,1.28,0.8,1.28;stroke-dashoffset:0;stroke-width:0.8;"/>
     </g>
     <g id="line2d_12">
      <g>
       <use style="stroke:#000000;stroke-width:0.8;" x="346.054154" xlink:href="#mc59e496680" y="384.48"/>
      </g>
     </g>
     <g id="text_6">
      <!-- $1250$ -->
      <g transform="translate(336.091484 398.398498)scale(0.1 -0.1)">
       <use transform="scale(0.996264)" xlink:href="#CMR17-49"/>
       <use transform="translate(45.690477 0)scale(0.996264)" xlink:href="#CMR17-50"/>
       <use transform="translate(91.380954 0)scale(0.996264)" xlink:href="#CMR17-53"/>
       <use transform="translate(137.071431 0)scale(0.996264)" xlink:href="#CMR17-48"/>
      </g>
     </g>
    </g>
    <g id="xtick_7">
     <g id="line2d_13">
      <path clip-path="url(#p6ddf01c3eb)" d="M 396.806803 384.48 
L 396.806803 51.84 
" style="fill:none;stroke:#b0b0b0;stroke-dasharray:5.12,1.28,0.8,1.28;stroke-dashoffset:0;stroke-width:0.8;"/>
     </g>
     <g id="line2d_14">
      <g>
       <use style="stroke:#000000;stroke-width:0.8;" x="396.806803" xlink:href="#mc59e496680" y="384.48"/>
      </g>
     </g>
     <g id="text_7">
      <!-- $1500$ -->
      <g transform="translate(386.844133 398.398498)scale(0.1 -0.1)">
       <use transform="scale(0.996264)" xlink:href="#CMR17-49"/>
       <use transform="translate(45.690477 0)scale(0.996264)" xlink:href="#CMR17-53"/>
       <use transform="translate(91.380954 0)scale(0.996264)" xlink:href="#CMR17-48"/>
       <use transform="translate(137.071431 0)scale(0.996264)" xlink:href="#CMR17-48"/>
      </g>
     </g>
    </g>
    <g id="xtick_8">
     <g id="line2d_15">
      <path clip-path="url(#p6ddf01c3eb)" d="M 447.559452 384.48 
L 447.559452 51.84 
" style="fill:none;stroke:#b0b0b0;stroke-dasharray:5.12,1.28,0.8,1.28;stroke-dashoffset:0;stroke-width:0.8;"/>
     </g>
     <g id="line2d_16">
      <g>
       <use style="stroke:#000000;stroke-width:0.8;" x="447.559452" xlink:href="#mc59e496680" y="384.48"/>
      </g>
     </g>
     <g id="text_8">
      <!-- $1750$ -->
      <g transform="translate(437.596782 398.398498)scale(0.1 -0.1)">
       <use transform="scale(0.996264)" xlink:href="#CMR17-49"/>
       <use transform="translate(45.690477 0)scale(0.996264)" xlink:href="#CMR17-55"/>
       <use transform="translate(91.380954 0)scale(0.996264)" xlink:href="#CMR17-53"/>
       <use transform="translate(137.071431 0)scale(0.996264)" xlink:href="#CMR17-48"/>
      </g>
     </g>
    </g>
    <g id="xtick_9">
     <g id="line2d_17">
      <path clip-path="url(#p6ddf01c3eb)" d="M 498.312102 384.48 
L 498.312102 51.84 
" style="fill:none;stroke:#b0b0b0;stroke-dasharray:5.12,1.28,0.8,1.28;stroke-dashoffset:0;stroke-width:0.8;"/>
     </g>
     <g id="line2d_18">
      <g>
       <use style="stroke:#000000;stroke-width:0.8;" x="498.312102" xlink:href="#mc59e496680" y="384.48"/>
      </g>
     </g>
     <g id="text_9">
      <!-- $2000$ -->
      <g transform="translate(488.349431 398.398498)scale(0.1 -0.1)">
       <use transform="scale(0.996264)" xlink:href="#CMR17-50"/>
       <use transform="translate(45.690477 0)scale(0.996264)" xlink:href="#CMR17-48"/>
       <use transform="translate(91.380954 0)scale(0.996264)" xlink:href="#CMR17-48"/>
       <use transform="translate(137.071431 0)scale(0.996264)" xlink:href="#CMR17-48"/>
      </g>
     </g>
    </g>
    <g id="text_10">
     <!-- Iteration -->
     <defs>
      <path d="M 17.09375 69 
L 8.703125 69 
L 8.703125 0 
L 17.09375 0 
z
" id="CMSS17-73"/>
      <path d="M 16.703125 37 
L 29.703125 37 
L 29.703125 42.765625 
L 16.703125 42.765625 
L 16.703125 55 
L 9.59375 55 
L 9.59375 42.765625 
L 1.703125 42.765625 
L 1.703125 37 
L 9.40625 37 
L 9.40625 11.703125 
C 9.40625 6 10.703125 -1 17.296875 -1 
C 22.296875 -1 26.90625 0.390625 31.296875 2.6875 
L 29.703125 8.5625 
C 27.296875 6.46875 24.40625 5.265625 21.296875 5.265625 
C 16.90625 5.265625 16.703125 10.875 16.703125 13.375 
z
" id="CMSS17-116"/>
      <path d="M 39.09375 21.515625 
C 39.09375 24.84375 38.90625 31.296875 35.703125 36.640625 
C 32.203125 42.390625 26.5 44 22.203125 44 
C 11.796875 44 3 34.1875 3 21.484375 
C 3 9.09375 12.09375 -1 23.59375 -1 
C 28.09375 -1 33.59375 0.296875 38.59375 3.875 
C 38.59375 4.28125 38.40625 6.46875 38.296875 6.5625 
C 38.296875 6.765625 38 9.84375 38 10.25 
C 33.203125 6.359375 27.703125 5.078125 23.703125 5.078125 
C 17.296875 5.078125 10.40625 10.421875 10.09375 21.515625 
z
M 10.90625 27 
C 12.203125 32.5625 16.59375 37.828125 22.203125 37.828125 
C 23.703125 37.828125 30.703125 37.828125 32.5 27 
z
" id="CMSS17-101"/>
      <path d="M 14.90625 21.296875 
C 14.90625 30.703125 21.796875 37 30.59375 37 
L 30.59375 43.578125 
C 24.203125 43.578125 18.203125 40.390625 14.59375 35.203125 
L 14.59375 43.09375 
L 7.5 43.09375 
L 7.5 0 
L 14.90625 0 
z
" id="CMSS17-114"/>
      <path d="M 37.59375 27.984375 
C 37.59375 37.375 30.90625 43.875 21.90625 43.875 
C 17.5 43.875 12.703125 43.078125 7.203125 39.890625 
L 7.796875 33.359375 
C 10.296875 35.125 14.59375 38 21.796875 38 
C 26.90625 38 30 34.0625 30 27.84375 
L 30 24 
C 14 24 4 19.34375 4 11.34375 
C 4 7.203125 6.5 -1 14.796875 -1 
C 16.296875 -1 24.40625 -1 30.203125 3.390625 
L 30.203125 -0.296875 
L 37.59375 -0.296875 
z
M 30 12.75 
C 30 10.953125 30 8.5625 27 6.78125 
C 24.40625 5.078125 21.09375 5.078125 19.703125 5.078125 
C 14.703125 5.078125 11.296875 7.984375 11.296875 11.625 
C 11.296875 18.921875 26.90625 18.921875 30 18.921875 
z
" id="CMSS17-97"/>
      <path d="M 15.296875 65.359375 
L 6.90625 65.359375 
L 6.90625 57 
L 15.296875 57 
z
M 14.796875 42.796875 
L 7.40625 42.796875 
L 7.40625 0 
L 14.796875 0 
z
" id="CMSS17-105"/>
      <path d="M 44.203125 21.1875 
C 44.203125 34 34.703125 44 23.5 44 
C 12 44 2.703125 33.703125 2.703125 21.1875 
C 2.703125 8.5 12.296875 -1 23.40625 -1 
C 34.796875 -1 44.203125 8.796875 44.203125 21.1875 
z
M 23.5 5.265625 
C 16.40625 5.265625 10.296875 11.078125 10.296875 22 
C 10.296875 33.609375 17.40625 37.921875 23.40625 37.921875 
C 29.90625 37.921875 36.59375 33.21875 36.59375 22 
C 36.59375 10.671875 30.09375 5.265625 23.5 5.265625 
z
" id="CMSS17-111"/>
      <path d="M 40.90625 29.328125 
C 40.90625 35.671875 39.40625 44 28.09375 44 
C 21.703125 44 17.5 40.71875 14.703125 37.328125 
L 14.703125 43.09375 
L 7.40625 43.09375 
L 7.40625 0 
L 15 0 
L 15 24.359375 
C 15 30.6875 17.40625 37.9375 24.203125 37.9375 
C 33 37.9375 33.296875 32 33.296875 28.578125 
L 33.296875 0 
L 40.90625 0 
z
" id="CMSS17-110"/>
     </defs>
     <g transform="translate(271.264003 414.021553)scale(0.14 -0.14)">
      <use transform="scale(0.996264)" xlink:href="#CMSS17-73"/>
      <use transform="translate(25.783926 0)scale(0.996264)" xlink:href="#CMSS17-116"/>
      <use transform="translate(59.615492 0)scale(0.996264)" xlink:href="#CMSS17-101"/>
      <use transform="translate(101.254314 0)scale(0.996264)" xlink:href="#CMSS17-114"/>
      <use transform="translate(133.164087 0)scale(0.996264)" xlink:href="#CMSS17-97"/>
      <use transform="translate(178.086007 0)scale(0.996264)" xlink:href="#CMSS17-116"/>
      <use transform="translate(211.917574 0)scale(0.996264)" xlink:href="#CMSS17-105"/>
      <use transform="translate(234.098297 0)scale(0.996264)" xlink:href="#CMSS17-111"/>
      <use transform="translate(280.941921 0)scale(0.996264)" xlink:href="#CMSS17-110"/>
     </g>
    </g>
   </g>
   <g id="matplotlib.axis_2">
    <g id="ytick_1">
     <g id="line2d_19">
      <path clip-path="url(#p6ddf01c3eb)" d="M 72 369.36 
L 518.4 369.36 
" style="fill:none;stroke:#b0b0b0;stroke-dasharray:5.12,1.28,0.8,1.28;stroke-dashoffset:0;stroke-width:0.8;"/>
     </g>
     <g id="line2d_20">
      <defs>
       <path d="M 0 0 
L -3.5 0 
" id="me38a2d1759" style="stroke:#000000;stroke-width:0.8;"/>
      </defs>
      <g>
       <use style="stroke:#000000;stroke-width:0.8;" x="72" xlink:href="#me38a2d1759" y="369.36"/>
      </g>
     </g>
     <g id="text_11">
      <!-- $-40000$ -->
      <defs>
       <path d="M 65.90625 23 
C 67.59375 23 69.40625 23 69.40625 25 
C 69.40625 27 67.59375 27 65.90625 27 
L 11.796875 27 
C 10.09375 27 8.296875 27 8.296875 25 
C 8.296875 23 10.09375 23 11.796875 23 
z
" id="CMSY10-0"/>
       <path d="M 33.59375 64.40625 
C 33.59375 66.5 33.5 66.5 31.703125 66.5 
L 2 19.59375 
L 2 17 
L 27.796875 17 
L 27.796875 7.140625 
C 27.796875 3.5 27.59375 2.5 20.59375 2.5 
L 18.703125 2.5 
L 18.703125 0 
C 21.90625 0 27.296875 0 30.703125 0 
C 34.09375 0 39.5 0 42.703125 0 
L 42.703125 2.5 
L 40.796875 2.5 
C 33.796875 2.5 33.59375 3.5 33.59375 7.140625 
L 33.59375 17 
L 43.796875 17 
L 43.796875 19.59375 
L 33.59375 19.59375 
z
M 28.09375 57.859375 
L 28.09375 19.59375 
L 4 19.59375 
z
" id="CMR17-52"/>
      </defs>
      <g transform="translate(32.34458 372.819249)scale(0.1 -0.1)">
       <use transform="scale(0.996264)" xlink:href="#CMSY10-0"/>
       <use transform="translate(77.487468 0)scale(0.996264)" xlink:href="#CMR17-52"/>
       <use transform="translate(123.177945 0)scale(0.996264)" xlink:href="#CMR17-48"/>
       <use transform="translate(168.868422 0)scale(0.996264)" xlink:href="#CMR17-48"/>
       <use transform="translate(214.558899 0)scale(0.996264)" xlink:href="#CMR17-48"/>
       <use transform="translate(260.249376 0)scale(0.996264)" xlink:href="#CMR17-48"/>
      </g>
     </g>
    </g>
    <g id="ytick_2">
     <g id="line2d_21">
      <path clip-path="url(#p6ddf01c3eb)" d="M 72 326.16 
L 518.4 326.16 
" style="fill:none;stroke:#b0b0b0;stroke-dasharray:5.12,1.28,0.8,1.28;stroke-dashoffset:0;stroke-width:0.8;"/>
     </g>
     <g id="line2d_22">
      <g>
       <use style="stroke:#000000;stroke-width:0.8;" x="72" xlink:href="#me38a2d1759" y="326.16"/>
      </g>
     </g>
     <g id="text_12">
      <!-- $-30000$ -->
      <defs>
       <path d="M 22.09375 33.703125 
C 31 33.703125 34.90625 25.96875 34.90625 17.03125 
C 34.90625 5 28.5 0.390625 22.703125 0.390625 
C 17.40625 0.390625 8.796875 3.03125 6.09375 10.828125 
C 6.59375 10.625 7.09375 10.625 7.59375 10.625 
C 10 10.625 11.796875 12.21875 11.796875 14.8125 
C 11.796875 17.703125 9.59375 19 7.59375 19 
C 5.90625 19 3.296875 18.203125 3.296875 14.46875 
C 3.296875 5.234375 12.296875 -2 22.90625 -2 
C 34 -2 42.5 6.71875 42.5 16.953125 
C 42.5 26.671875 34.5 33.703125 25 34.796875 
C 32.59375 36.375 39.90625 43.0625 39.90625 52.015625 
C 39.90625 59.6875 32 65.296875 23 65.296875 
C 13.90625 65.296875 5.90625 59.828125 5.90625 52.015625 
C 5.90625 48.59375 8.5 48 9.796875 48 
C 11.90625 48 13.703125 49.296875 13.703125 51.890625 
C 13.703125 54.46875 11.90625 55.765625 9.796875 55.765625 
C 9.40625 55.765625 8.90625 55.765625 8.5 55.578125 
C 11.40625 61.859375 19.296875 63 22.796875 63 
C 26.296875 63 32.90625 61.328125 32.90625 51.875 
C 32.90625 49.109375 32.5 44.1875 29.09375 39.84375 
C 26.09375 36 22.703125 36 19.40625 35.6875 
C 18.90625 35.6875 16.59375 35.453125 16.203125 35.453125 
C 15.5 35.359375 15.09375 35.265625 15.09375 34.5 
C 15.09375 33.796875 15.203125 33.703125 17.203125 33.703125 
z
" id="CMR17-51"/>
      </defs>
      <g transform="translate(32.34458 329.619249)scale(0.1 -0.1)">
       <use transform="scale(0.996264)" xlink:href="#CMSY10-0"/>
       <use transform="translate(77.487468 0)scale(0.996264)" xlink:href="#CMR17-51"/>
       <use transform="translate(123.177945 0)scale(0.996264)" xlink:href="#CMR17-48"/>
       <use transform="translate(168.868422 0)scale(0.996264)" xlink:href="#CMR17-48"/>
       <use transform="translate(214.558899 0)scale(0.996264)" xlink:href="#CMR17-48"/>
       <use transform="translate(260.249376 0)scale(0.996264)" xlink:href="#CMR17-48"/>
      </g>
     </g>
    </g>
    <g id="ytick_3">
     <g id="line2d_23">
      <path clip-path="url(#p6ddf01c3eb)" d="M 72 282.96 
L 518.4 282.96 
" style="fill:none;stroke:#b0b0b0;stroke-dasharray:5.12,1.28,0.8,1.28;stroke-dashoffset:0;stroke-width:0.8;"/>
     </g>
     <g id="line2d_24">
      <g>
       <use style="stroke:#000000;stroke-width:0.8;" x="72" xlink:href="#me38a2d1759" y="282.96"/>
      </g>
     </g>
     <g id="text_13">
      <!-- $-20000$ -->
      <g transform="translate(32.34458 286.419249)scale(0.1 -0.1)">
       <use transform="scale(0.996264)" xlink:href="#CMSY10-0"/>
       <use transform="translate(77.487468 0)scale(0.996264)" xlink:href="#CMR17-50"/>
       <use transform="translate(123.177945 0)scale(0.996264)" xlink:href="#CMR17-48"/>
       <use transform="translate(168.868422 0)scale(0.996264)" xlink:href="#CMR17-48"/>
       <use transform="translate(214.558899 0)scale(0.996264)" xlink:href="#CMR17-48"/>
       <use transform="translate(260.249376 0)scale(0.996264)" xlink:href="#CMR17-48"/>
      </g>
     </g>
    </g>
    <g id="ytick_4">
     <g id="line2d_25">
      <path clip-path="url(#p6ddf01c3eb)" d="M 72 239.76 
L 518.4 239.76 
" style="fill:none;stroke:#b0b0b0;stroke-dasharray:5.12,1.28,0.8,1.28;stroke-dashoffset:0;stroke-width:0.8;"/>
     </g>
     <g id="line2d_26">
      <g>
       <use style="stroke:#000000;stroke-width:0.8;" x="72" xlink:href="#me38a2d1759" y="239.76"/>
      </g>
     </g>
     <g id="text_14">
      <!-- $-10000$ -->
      <g transform="translate(32.34458 243.219249)scale(0.1 -0.1)">
       <use transform="scale(0.996264)" xlink:href="#CMSY10-0"/>
       <use transform="translate(77.487468 0)scale(0.996264)" xlink:href="#CMR17-49"/>
       <use transform="translate(123.177945 0)scale(0.996264)" xlink:href="#CMR17-48"/>
       <use transform="translate(168.868422 0)scale(0.996264)" xlink:href="#CMR17-48"/>
       <use transform="translate(214.558899 0)scale(0.996264)" xlink:href="#CMR17-48"/>
       <use transform="translate(260.249376 0)scale(0.996264)" xlink:href="#CMR17-48"/>
      </g>
     </g>
    </g>
    <g id="ytick_5">
     <g id="line2d_27">
      <path clip-path="url(#p6ddf01c3eb)" d="M 72 196.56 
L 518.4 196.56 
" style="fill:none;stroke:#b0b0b0;stroke-dasharray:5.12,1.28,0.8,1.28;stroke-dashoffset:0;stroke-width:0.8;"/>
     </g>
     <g id="line2d_28">
      <g>
       <use style="stroke:#000000;stroke-width:0.8;" x="72" xlink:href="#me38a2d1759" y="196.56"/>
      </g>
     </g>
     <g id="text_15">
      <!-- $0$ -->
      <g transform="translate(60.018665 200.019249)scale(0.1 -0.1)">
       <use transform="scale(0.996264)" xlink:href="#CMR17-48"/>
      </g>
     </g>
    </g>
    <g id="ytick_6">
     <g id="line2d_29">
      <path clip-path="url(#p6ddf01c3eb)" d="M 72 153.36 
L 518.4 153.36 
" style="fill:none;stroke:#b0b0b0;stroke-dasharray:5.12,1.28,0.8,1.28;stroke-dashoffset:0;stroke-width:0.8;"/>
     </g>
     <g id="line2d_30">
      <g>
       <use style="stroke:#000000;stroke-width:0.8;" x="72" xlink:href="#me38a2d1759" y="153.36"/>
      </g>
     </g>
     <g id="text_16">
      <!-- $10000$ -->
      <g transform="translate(40.093324 156.819249)scale(0.1 -0.1)">
       <use transform="scale(0.996264)" xlink:href="#CMR17-49"/>
       <use transform="translate(45.690477 0)scale(0.996264)" xlink:href="#CMR17-48"/>
       <use transform="translate(91.380954 0)scale(0.996264)" xlink:href="#CMR17-48"/>
       <use transform="translate(137.071431 0)scale(0.996264)" xlink:href="#CMR17-48"/>
       <use transform="translate(182.761908 0)scale(0.996264)" xlink:href="#CMR17-48"/>
      </g>
     </g>
    </g>
    <g id="ytick_7">
     <g id="line2d_31">
      <path clip-path="url(#p6ddf01c3eb)" d="M 72 110.16 
L 518.4 110.16 
" style="fill:none;stroke:#b0b0b0;stroke-dasharray:5.12,1.28,0.8,1.28;stroke-dashoffset:0;stroke-width:0.8;"/>
     </g>
     <g id="line2d_32">
      <g>
       <use style="stroke:#000000;stroke-width:0.8;" x="72" xlink:href="#me38a2d1759" y="110.16"/>
      </g>
     </g>
     <g id="text_17">
      <!-- $20000$ -->
      <g transform="translate(40.093324 113.619249)scale(0.1 -0.1)">
       <use transform="scale(0.996264)" xlink:href="#CMR17-50"/>
       <use transform="translate(45.690477 0)scale(0.996264)" xlink:href="#CMR17-48"/>
       <use transform="translate(91.380954 0)scale(0.996264)" xlink:href="#CMR17-48"/>
       <use transform="translate(137.071431 0)scale(0.996264)" xlink:href="#CMR17-48"/>
       <use transform="translate(182.761908 0)scale(0.996264)" xlink:href="#CMR17-48"/>
      </g>
     </g>
    </g>
    <g id="ytick_8">
     <g id="line2d_33">
      <path clip-path="url(#p6ddf01c3eb)" d="M 72 66.96 
L 518.4 66.96 
" style="fill:none;stroke:#b0b0b0;stroke-dasharray:5.12,1.28,0.8,1.28;stroke-dashoffset:0;stroke-width:0.8;"/>
     </g>
     <g id="line2d_34">
      <g>
       <use style="stroke:#000000;stroke-width:0.8;" x="72" xlink:href="#me38a2d1759" y="66.96"/>
      </g>
     </g>
     <g id="text_18">
      <!-- $30000$ -->
      <g transform="translate(40.093324 70.419249)scale(0.1 -0.1)">
       <use transform="scale(0.996264)" xlink:href="#CMR17-51"/>
       <use transform="translate(45.690477 0)scale(0.996264)" xlink:href="#CMR17-48"/>
       <use transform="translate(91.380954 0)scale(0.996264)" xlink:href="#CMR17-48"/>
       <use transform="translate(137.071431 0)scale(0.996264)" xlink:href="#CMR17-48"/>
       <use transform="translate(182.761908 0)scale(0.996264)" xlink:href="#CMR17-48"/>
      </g>
     </g>
    </g>
    <g id="text_19">
     <!-- $p^\mathrm{S}_{m}[W]$ -->
     <defs>
      <path d="M 4.296875 -12.328125 
C 3.59375 -15.3125 3.203125 -16.109375 -0.90625 -16.109375 
C -2.09375 -16.109375 -3.09375 -16.109375 -3.09375 -18 
C -3.09375 -18.203125 -3 -19 -1.90625 -19 
C -0.59375 -19 0.796875 -19 2.09375 -19 
L 6.40625 -19 
C 8.5 -19 13.59375 -19 15.703125 -19 
C 16.296875 -19 17.5 -19 17.5 -17.203125 
C 17.5 -16.109375 16.796875 -16.109375 15.09375 -16.109375 
C 10.5 -16.109375 10.203125 -15.421875 10.203125 -14.640625 
C 10.203125 -13.453125 14.703125 3.421875 15.296875 5.6875 
C 16.40625 2.890625 19.09375 -1 24.296875 -1 
C 35.59375 -1 47.796875 13.671875 47.796875 28.34375 
C 47.796875 37.515625 42.59375 44 35.09375 44 
C 28.703125 44 23.296875 37.8125 22.203125 36.421875 
C 21.40625 41.40625 17.5 44 13.5 44 
C 10.59375 44 8.296875 42.609375 6.40625 38.8125 
C 4.59375 35.21875 3.203125 29.140625 3.203125 28.734375 
C 3.203125 28.34375 3.59375 27.84375 4.296875 27.84375 
C 5.09375 27.84375 5.203125 27.9375 5.796875 30.234375 
C 7.296875 36.125 9.203125 42.015625 13.203125 42.015625 
C 15.5 42.015625 16.296875 40.421875 16.296875 37.453125 
C 16.296875 35.078125 16 34.078125 15.59375 32.296875 
z
M 21.59375 31.140625 
C 22.296875 33.921875 25.09375 36.828125 26.703125 38.21875 
C 27.796875 39.21875 31.09375 42.015625 34.90625 42.015625 
C 39.296875 42.015625 41.296875 37.625 41.296875 32.4375 
C 41.296875 27.640625 38.5 16.359375 36 11.171875 
C 33.5 5.78125 28.90625 1 24.296875 1 
C 17.5 1 16.40625 9.578125 16.40625 9.984375 
C 16.40625 10.28125 16.59375 11.078125 16.703125 11.578125 
z
" id="CMMI12-112"/>
      <path d="M 43.796875 67.03125 
C 43.796875 68.8125 43.703125 68.921875 43.09375 68.921875 
C 42.5 68.921875 42.296875 68.515625 41.90625 67.625 
L 38.90625 61.046875 
C 35.09375 66.515625 29.296875 69 23 69 
C 12.796875 69 4.59375 60.953125 4.59375 50.828125 
C 4.59375 47.75 5.296875 43.375 8.703125 39.21875 
C 12.40625 34.65625 15.90625 33.859375 23.90625 31.765625 
C 26.90625 30.96875 31.90625 29.671875 32.90625 29.28125 
C 38.59375 26.90625 41.59375 20.953125 41.59375 15.390625 
C 41.59375 8.234375 36.5 0.59375 27.796875 0.59375 
C 17.09375 0.59375 7.09375 6.546875 6.40625 20.484375 
C 6.296875 22.078125 6.203125 22.171875 5.5 22.171875 
C 4.703125 22.171875 4.59375 22.078125 4.59375 20.078125 
L 4.59375 -0.015625 
C 4.59375 -1.796875 4.703125 -1.90625 5.296875 -1.90625 
C 6 -1.90625 6.203125 -1.40625 7.59375 1.6875 
C 7.703125 1.984375 7.703125 2.1875 9.59375 5.953125 
C 14.59375 -0.609375 23 -2 27.796875 -2 
C 38.703125 -2 46.40625 7.046875 46.40625 17.5625 
C 46.40625 22.71875 44.5 26.6875 43.40625 28.484375 
C 39.203125 34.84375 34.703125 36.03125 29.90625 37.21875 
C 29.203125 37.53125 29 37.53125 23.40625 38.90625 
C 18 40.296875 15.703125 41 13.203125 43.6875 
C 10.40625 46.75 9.40625 49.9375 9.40625 53.109375 
C 9.40625 59.5625 14.59375 66.609375 23.09375 66.609375 
C 33.703125 66.609375 40.296875 59.15625 41.796875 46.765625 
C 42.09375 44.96875 42.203125 44.875 42.90625 44.875 
C 43.796875 44.875 43.796875 45.171875 43.796875 46.859375 
z
" id="CMR17-83"/>
      <path d="M 20.59375 29.234375 
C 20.796875 29.84375 23.296875 34.828125 27 38.015625 
C 29.59375 40.40625 33 42.015625 36.90625 42.015625 
C 40.90625 42.015625 42.296875 39.015625 42.296875 35.03125 
C 42.296875 34.421875 42.296875 32.4375 41.09375 27.734375 
L 38.59375 17.46875 
C 37.796875 14.46875 35.90625 7.078125 35.703125 5.984375 
C 35.296875 4.484375 34.703125 1.890625 34.703125 1.5 
C 34.703125 0.09375 35.796875 -1 37.296875 -1 
C 40.296875 -1 40.796875 1.296875 41.703125 4.890625 
L 47.703125 28.734375 
C 47.90625 29.53125 53.09375 42.015625 64.09375 42.015625 
C 68.09375 42.015625 69.5 39.015625 69.5 35.03125 
C 69.5 29.4375 65.59375 18.5625 63.40625 12.578125 
C 62.5 10.171875 62 8.875 62 7.078125 
C 62 2.59375 65.09375 -1 69.90625 -1 
C 79.203125 -1 82.703125 13.671875 82.703125 14.265625 
C 82.703125 14.765625 82.296875 15.171875 81.703125 15.171875 
C 80.796875 15.171875 80.703125 14.875 80.203125 13.171875 
C 77.90625 5.1875 74.203125 1 70.203125 1 
C 69.203125 1 67.59375 1 67.59375 4.203125 
C 67.59375 6.8125 68.796875 10 69.203125 11.09375 
C 71 15.90625 75.5 27.703125 75.5 33.515625 
C 75.5 39.5 72 44 64.40625 44 
C 57.703125 44 52.296875 40.21875 48.296875 34.328125 
C 48 39.71875 44.703125 44 37.203125 44 
C 28.296875 44 23.59375 37.734375 21.796875 35.234375 
C 21.5 40.90625 17.40625 44 13 44 
C 10.09375 44 7.796875 42.609375 5.90625 38.8125 
C 4.09375 35.21875 2.703125 29.140625 2.703125 28.734375 
C 2.703125 28.34375 3.09375 27.84375 3.796875 27.84375 
C 4.59375 27.84375 4.703125 27.9375 5.296875 30.234375 
C 6.796875 36.125 8.703125 42.015625 12.703125 42.015625 
C 15 42.015625 15.796875 40.40625 15.796875 37.421875 
C 15.796875 35.21875 14.796875 31.328125 14.09375 28.234375 
L 11.296875 17.46875 
C 10.90625 15.5625 9.796875 11.078125 9.296875 9.28125 
C 8.59375 6.6875 7.5 2 7.5 1.5 
C 7.5 0.09375 8.59375 -1 10.09375 -1 
C 11.296875 -1 12.703125 -0.40625 13.5 1.09375 
C 13.703125 1.59375 14.59375 5.09375 15.09375 7.078125 
L 17.296875 16.0625 
z
" id="CMMI12-109"/>
      <path d="M 23.5 -25 
L 23.5 -21.515625 
L 14.09375 -21.515625 
L 14.09375 71 
L 23.5 71 
L 23.5 74.484375 
L 10.59375 74.484375 
L 10.59375 -25 
z
" id="CMR17-91"/>
      <path d="M 90.296875 56.96875 
C 92.59375 60.84375 94.796875 64.515625 100.796875 65.125 
C 101.703125 65.21875 102.59375 65.3125 102.59375 66.90625 
C 102.59375 68 101.703125 68 101.40625 68 
C 101.203125 68 100.5 68 93.90625 68 
C 90.90625 68 87.796875 68 84.90625 68 
C 84.296875 68 83.09375 68 83.09375 66.03125 
C 83.09375 65.09375 83.90625 65 84.5 65 
C 86.5 65 89.703125 64.40625 89.703125 61.328125 
C 89.703125 60.03125 89.296875 59.328125 88.296875 57.65625 
L 61 10.125 
L 57.40625 61.921875 
C 57.40625 63.109375 58.5 65 64.09375 65 
C 65.40625 65 66.40625 65 66.40625 66.96875 
C 66.40625 68 65.40625 68 64.90625 68 
C 61.40625 68 57.703125 68 54.09375 68 
L 48.90625 68 
C 47.40625 68 45.59375 68 44.09375 68 
C 43.5 68 42.296875 68 42.296875 66.03125 
C 42.296875 65 43 65 44.703125 65 
C 49.296875 65 49.296875 64.890625 49.703125 58.9375 
L 50 55.359375 
L 24.09375 10.125 
L 20.40625 61.421875 
C 20.40625 62.53125 20.40625 65 27.203125 65 
C 28.296875 65 29.40625 65 29.40625 66.859375 
C 29.40625 68 28.5 68 27.90625 68 
C 24.40625 68 20.703125 68 17.09375 68 
L 11.90625 68 
C 10.40625 68 8.59375 68 7.09375 68 
C 6.5 68 5.296875 68 5.296875 66.03125 
C 5.296875 65 6.09375 65 7.5 65 
C 12.203125 65 12.296875 64.390625 12.5 61.21875 
L 16.90625 0.28125 
C 17 -1.40625 17.09375 -2 18.296875 -2 
C 19.296875 -2 19.5 -1.609375 20.40625 -0.109375 
L 50.203125 51.671875 
L 53.90625 0.28125 
C 54 -1.40625 54.09375 -2 55.296875 -2 
C 56.296875 -2 56.59375 -1.5 57.40625 -0.109375 
z
" id="CMMI12-87"/>
      <path d="M 14.296875 74.484375 
L 1.40625 74.484375 
L 1.40625 71 
L 10.796875 71 
L 10.796875 -21.515625 
L 1.40625 -21.515625 
L 1.40625 -25 
L 14.296875 -25 
z
" id="CMR17-93"/>
     </defs>
     <g transform="translate(25.632552 237.445171)rotate(-90)scale(0.14 -0.14)">
      <use transform="translate(0 24.62935)scale(0.996264)" xlink:href="#CMMI12-112"/>
      <use transform="translate(48.959514 60.782989)scale(0.697382)" xlink:href="#CMR17-83"/>
      <use transform="translate(48.959514 0)scale(0.697382)" xlink:href="#CMMI12-109"/>
      <use transform="translate(109.186437 24.62935)scale(0.996264)" xlink:href="#CMR17-91"/>
      <use transform="translate(134.057496 24.62935)scale(0.996264)" xlink:href="#CMMI12-87"/>
      <use transform="translate(239.701993 24.62935)scale(0.996264)" xlink:href="#CMR17-93"/>
     </g>
    </g>
   </g>
   <g id="line2d_35">
    <path clip-path="url(#p6ddf01c3eb)" d="M 92.290909 196.56 
L 93.102951 196.56 
L 93.305962 194.380911 
L 93.508973 187.916612 
L 93.711983 196.56 
L 94.118004 196.56 
L 94.321015 194.988543 
L 94.524026 186.050104 
L 94.727036 196.56 
L 95.133057 196.56 
L 95.539079 178.399085 
L 95.742089 179.449477 
L 95.9451 175.185059 
L 96.351121 155.738386 
L 97.366174 93.15781 
L 97.772195 67.341525 
L 97.975206 66.96 
L 115.028096 66.96 
L 115.231106 67.165602 
L 115.434117 67.722235 
L 115.637128 66.96 
L 116.855191 66.96 
L 117.261212 71.300313 
L 117.464223 66.96 
L 118.479276 66.96 
L 118.682287 68.567181 
L 118.885297 71.276324 
L 119.088308 66.96 
L 120.103361 66.96 
L 120.306371 67.687145 
L 120.509382 69.294214 
L 120.712393 66.96 
L 129.238838 66.96 
L 129.441848 67.201778 
L 129.644859 67.75779 
L 129.847869 66.96 
L 131.065933 66.96 
L 131.471954 70.586614 
L 131.674965 66.96 
L 132.690018 66.96 
L 132.893028 67.966593 
L 133.096039 70.208098 
L 133.29905 66.96 
L 134.314103 66.96 
L 134.517113 67.129744 
L 134.720124 68.364025 
L 134.923134 66.96 
L 143.449579 67.070227 
L 143.65259 67.496217 
L 143.855601 66.96 
L 145.073664 66.96 
L 145.276675 68.094781 
L 145.479685 69.977433 
L 145.682696 66.96 
L 146.697749 66.96 
L 146.900759 67.596108 
L 147.10377 69.574037 
L 147.306781 66.96 
L 148.524844 66.96 
L 148.930865 69.299254 
L 149.133876 66.96 
L 157.45731 66.96 
L 157.660321 67.263045 
L 157.863332 67.799125 
L 158.066342 66.96 
L 159.284406 66.96 
L 159.487416 67.993783 
L 159.690427 69.755945 
L 159.893438 66.96 
L 160.908491 66.96 
L 161.111501 67.286769 
L 161.314512 69.002394 
L 161.517522 66.96 
L 162.735586 66.96 
L 163.141607 68.659285 
L 163.344618 66.96 
L 171.465042 66.96 
L 171.668052 67.164196 
L 171.871063 67.600458 
L 172.074073 66.96 
L 173.292137 66.96 
L 173.495148 67.731345 
L 173.698158 69.282029 
L 173.901169 66.96 
L 175.119232 66.998273 
L 175.322243 68.508589 
L 175.525254 66.96 
L 176.743317 66.96 
L 176.946328 67.52693 
L 177.149338 68.431133 
L 177.352349 66.96 
L 185.472773 66.96 
L 185.675783 67.073101 
L 185.878794 67.421551 
L 186.081805 66.96 
L 187.299868 66.96 
L 187.502879 67.492634 
L 187.705889 68.84867 
L 187.9089 66.96 
L 189.126963 66.96 
L 189.532985 69.863362 
L 189.735995 66.96 
L 190.954059 66.96 
L 191.157069 67.225273 
L 191.36008 67.908222 
L 191.563091 66.96 
L 199.683514 67.005071 
L 199.886525 67.277974 
L 200.089536 66.96 
L 201.307599 66.96 
L 201.51061 67.263898 
L 201.71362 68.432763 
L 201.916631 66.96 
L 203.134695 66.96 
L 203.540716 69.420004 
L 203.743726 66.96 
L 204.96179 66.96 
L 205.164801 67.094352 
L 205.367811 67.707004 
L 205.570822 66.96 
L 213.691246 66.974587 
L 213.894256 67.202438 
L 214.097267 66.96 
L 215.31533 66.96 
L 215.518341 67.081464 
L 215.721352 68.097091 
L 215.924362 66.96 
L 217.142426 66.96 
L 217.345436 67.724999 
L 217.548447 69.022698 
L 217.751458 66.96 
L 219.172532 66.96 
L 219.578553 68.064324 
L 219.781564 66.96 
L 227.698977 66.96 
L 227.901987 67.12928 
L 228.104998 67.448321 
L 228.308009 66.96 
L 229.729083 67.026417 
L 229.932093 67.968577 
L 230.135104 66.96 
L 231.353167 66.96 
L 231.556178 67.493528 
L 231.759189 68.601974 
L 231.962199 66.96 
L 233.383273 66.96 
L 233.789295 67.63734 
L 233.992305 66.96 
L 241.706708 66.96 
L 241.909718 67.094037 
L 242.112729 67.36858 
L 242.31574 66.96 
L 243.736814 66.96 
L 244.142835 68.817308 
L 244.345846 66.96 
L 245.563909 66.96 
L 245.76692 67.301154 
L 245.96993 68.248888 
L 246.172941 66.96 
L 247.797026 67.034062 
L 248.000036 67.285156 
L 248.203047 66.96 
L 255.91745 67.057138 
L 256.12046 67.288614 
L 256.323471 66.96 
L 257.744545 66.96 
L 258.150566 68.549 
L 258.353577 66.96 
L 259.57164 66.96 
L 259.774651 67.143832 
L 259.977662 67.980571 
L 260.180672 66.96 
L 261.804757 66.979524 
L 262.007768 67.206047 
L 262.210778 66.96 
L 269.925181 67.025816 
L 270.128191 67.219902 
L 270.331202 66.96 
L 271.752276 66.96 
L 271.955287 67.469112 
L 272.158297 68.312162 
L 272.361308 66.96 
L 273.782382 66.99819 
L 273.985393 67.731011 
L 274.188403 66.96 
L 275.812488 66.96 
L 276.218509 67.333014 
L 276.42152 66.96 
L 283.932912 67.004363 
L 284.135923 67.167929 
L 284.338933 66.96 
L 285.760007 66.96 
L 285.963018 67.354941 
L 286.166028 68.106736 
L 286.369039 66.96 
L 287.790113 66.96 
L 288.196134 68.382654 
L 288.399145 66.96 
L 290.22624 67.011863 
L 290.429251 67.10326 
L 290.632262 66.96 
L 297.940643 66.976995 
L 298.143654 67.109025 
L 298.346664 66.96 
L 299.767738 66.96 
L 299.970749 67.241759 
L 300.17376 67.90307 
L 300.37677 66.96 
L 301.797844 66.96 
L 302.203866 68.187158 
L 302.406876 66.96 
L 304.233972 66.992815 
L 304.436982 67.08197 
L 304.843003 66.96 
L 311.948374 66.964676 
L 312.151385 67.077657 
L 312.557406 66.96 
L 313.77547 66.96 
L 313.97848 67.148066 
L 314.181491 67.733115 
L 314.384501 66.96 
L 315.805576 66.96 
L 316.211597 68.007291 
L 316.414607 66.96 
L 326.159116 67.048798 
L 326.362127 67.211066 
L 326.565137 66.96 
L 327.986211 66.96 
L 328.189222 67.110768 
L 328.392232 67.653894 
L 328.595243 66.96 
L 330.016317 66.96 
L 330.219328 67.240009 
L 330.422338 67.781921 
L 330.625349 66.96 
L 340.166847 67.028517 
L 340.369858 67.16753 
L 340.572868 66.96 
L 342.196953 67.024597 
L 342.399964 67.498645 
L 342.602974 66.96 
L 344.024048 66.96 
L 344.227059 67.150961 
L 344.43007 67.63057 
L 344.63308 66.96 
L 354.174578 67.015534 
L 354.377589 67.140598 
L 354.580599 66.96 
L 356.204684 66.96 
L 356.610705 67.913631 
L 356.813716 66.96 
L 358.437801 67.05553 
L 358.640811 67.458349 
L 358.843822 66.96 
L 368.182309 67.00076 
L 368.38532 67.108062 
L 368.588331 66.96 
L 370.212415 66.96 
L 370.618436 67.789835 
L 370.821447 66.96 
L 372.445532 66.990032 
L 372.648542 67.347737 
L 372.851553 66.96 
L 382.19004 66.99402 
L 382.393051 67.090146 
L 382.799072 66.96 
L 384.220146 66.96 
L 384.626168 67.683571 
L 384.829178 66.96 
L 386.453263 66.96 
L 386.859284 67.645877 
L 387.062295 66.96 
L 396.197772 66.988118 
L 396.400782 67.073508 
L 396.806803 66.96 
L 398.227878 66.96 
L 398.633899 67.575026 
L 398.836909 66.96 
L 400.460994 66.96 
L 400.867015 67.54399 
L 401.070026 66.96 
L 412.235609 66.96 
L 412.438619 67.133214 
L 412.64163 67.477927 
L 412.844641 66.96 
L 414.468725 66.96 
L 414.874746 67.462106 
L 415.077757 66.96 
L 426.24334 66.96 
L 426.44635 67.07731 
L 426.649361 67.378188 
L 426.852372 66.96 
L 428.476456 66.96 
L 428.882478 67.380296 
L 429.085488 66.96 
L 438.423976 67.006528 
L 438.626986 67.089795 
L 439.033007 66.96 
L 440.657092 67.054629 
L 440.860103 67.332244 
L 441.063113 66.96 
L 442.890209 67.04401 
L 443.093219 67.26467 
L 443.29623 66.96 
L 452.431707 66.999382 
L 452.634717 67.073112 
L 453.040739 66.96 
L 454.664823 67.012823 
L 454.867834 67.257389 
L 455.070845 66.96 
L 456.89794 67.005269 
L 457.10095 67.199434 
L 457.303961 66.96 
L 468.672554 66.977302 
L 468.875565 67.193413 
L 469.078576 66.96 
L 470.905671 66.969242 
L 471.108682 67.138382 
L 471.311692 66.96 
L 482.680286 66.96 
L 483.086307 67.394957 
L 483.289317 66.96 
L 485.116413 66.96 
L 485.522434 67.238617 
L 485.725445 66.96 
L 496.688017 66.96 
L 497.094038 67.333514 
L 497.297049 66.96 
L 498.109091 66.96 
L 498.109091 66.96 
" style="fill:none;stroke:#bf00bf;stroke-linecap:square;stroke-width:1.5;"/>
   </g>
   <g id="line2d_36">
    <path clip-path="url(#p6ddf01c3eb)" d="M 92.290909 196.56 
L 93.102951 196.56 
L 93.305962 195.952792 
L 93.508973 186.234568 
L 93.711983 196.56 
L 94.524026 196.56 
L 94.930047 174.494939 
L 95.133057 196.56 
L 95.9451 196.56 
L 96.351121 174.643868 
L 96.554132 196.56 
L 97.569185 196.56 
L 97.975206 193.152818 
L 98.178216 196.56 
L 99.39628 196.56 
L 99.599291 195.817268 
L 99.802301 193.617729 
L 100.005312 196.56 
L 101.020365 196.56 
L 101.223375 195.750197 
L 101.426386 192.768108 
L 101.629397 196.56 
L 102.644449 196.56 
L 102.84746 194.938295 
L 103.050471 191.557862 
L 103.253481 196.56 
L 104.268534 196.56 
L 104.471545 194.521741 
L 104.674555 191.018234 
L 104.877566 196.56 
L 105.892619 196.56 
L 106.09563 194.276634 
L 106.29864 190.729134 
L 106.501651 196.56 
L 107.516704 196.56 
L 107.922725 190.317276 
L 108.125736 196.56 
L 109.140789 196.56 
L 109.54681 189.990973 
L 109.74982 196.56 
L 110.764873 196.56 
L 111.170895 189.836221 
L 111.373905 196.56 
L 112.388958 196.56 
L 112.794979 190.91256 
L 112.99799 196.56 
L 114.216053 196.56 
L 114.622075 195.898596 
L 114.825085 196.56 
L 121.930456 196.56 
L 122.133467 196.359349 
L 122.336477 195.686469 
L 122.539488 196.56 
L 123.554541 196.56 
L 123.757552 195.833976 
L 123.960562 193.32497 
L 124.163573 196.56 
L 125.178626 196.56 
L 125.584647 190.997693 
L 125.787657 196.56 
L 126.80271 196.56 
L 127.208732 192.619957 
L 127.411742 196.56 
L 136.141198 196.56 
L 136.344208 196.238133 
L 136.547219 195.543338 
L 136.75023 196.56 
L 137.765283 196.56 
L 137.968293 196.191744 
L 138.171304 194.027476 
L 138.374314 196.56 
L 139.389367 196.56 
L 139.795389 191.706942 
L 139.998399 196.56 
L 141.013452 196.56 
L 141.216463 195.506841 
L 141.419473 193.62192 
L 141.622484 196.56 
L 150.148929 196.56 
L 150.35194 196.385159 
L 150.55495 195.847247 
L 150.757961 196.56 
L 151.976024 196.56 
L 152.382046 192.336536 
L 152.585056 196.56 
L 153.600109 196.56 
L 153.80312 195.058071 
L 154.00613 192.473245 
L 154.209141 196.56 
L 155.224194 196.56 
L 155.427205 196.026405 
L 155.630215 194.519651 
L 155.833226 196.56 
L 164.359671 196.511259 
L 164.562681 196.109459 
L 164.765692 196.56 
L 165.983756 196.56 
L 166.389777 192.995081 
L 166.592787 196.56 
L 167.60784 196.56 
L 167.810851 195.453677 
L 168.013861 193.150971 
L 168.216872 196.56 
L 169.231925 196.56 
L 169.434936 196.26806 
L 169.637946 194.901119 
L 169.840957 196.56 
L 178.367402 196.56 
L 178.570412 196.251658 
L 178.773423 195.680863 
L 178.976434 196.56 
L 180.194497 196.56 
L 180.600518 193.145629 
L 180.803529 196.56 
L 181.818582 196.56 
L 182.021593 195.772174 
L 182.224603 193.742101 
L 182.427614 196.56 
L 183.645677 196.56 
L 184.051699 194.363629 
L 184.254709 196.56 
L 192.375133 196.56 
L 192.578144 196.37223 
L 192.781154 195.926483 
L 192.984165 196.56 
L 194.202228 196.56 
L 194.405239 195.499061 
L 194.60825 193.744985 
L 194.81126 196.56 
L 195.826313 196.56 
L 196.029324 196.130471 
L 196.232334 194.35556 
L 196.435345 196.56 
L 197.653409 196.56 
L 198.05943 194.64285 
L 198.26244 196.56 
L 206.382864 196.56 
L 206.585875 196.447237 
L 206.788885 196.084491 
L 206.991896 196.56 
L 208.20996 196.56 
L 208.41297 195.770216 
L 208.615981 194.236326 
L 208.818991 196.56 
L 209.834044 196.56 
L 210.037055 196.447774 
L 210.240065 194.903562 
L 210.443076 196.56 
L 211.66114 196.56 
L 212.067161 194.941714 
L 212.270171 196.56 
L 220.593606 196.459359 
L 220.796616 196.146534 
L 220.999627 196.56 
L 222.217691 196.56 
L 222.420701 196.001153 
L 222.623712 194.659409 
L 222.826722 196.56 
L 224.044786 196.56 
L 224.450807 193.62379 
L 224.653818 196.56 
L 225.871881 196.56 
L 226.074892 196.267737 
L 226.277903 195.54859 
L 226.480913 196.56 
L 234.601337 196.496908 
L 234.804348 196.238551 
L 235.007358 196.56 
L 236.225422 196.56 
L 236.428432 196.218845 
L 236.631443 195.055385 
L 236.834454 196.56 
L 238.052517 196.56 
L 238.458538 194.070215 
L 238.661549 196.56 
L 239.879613 196.56 
L 240.082623 196.411549 
L 240.285634 195.776386 
L 240.488644 196.56 
L 248.609068 196.55573 
L 248.812079 196.352594 
L 249.015089 196.56 
L 250.233153 196.56 
L 250.436164 196.411751 
L 250.639174 195.405129 
L 250.842185 196.56 
L 252.060248 196.56 
L 252.263259 195.763226 
L 252.466269 194.451824 
L 252.66928 196.56 
L 254.090354 196.528661 
L 254.293365 195.960288 
L 254.496375 196.56 
L 262.616799 196.56 
L 262.81981 196.400827 
L 263.022821 196.095753 
L 263.225831 196.56 
L 264.443895 196.56 
L 264.646905 196.433644 
L 264.849916 195.471255 
L 265.052926 196.56 
L 266.27099 196.56 
L 266.474001 195.964398 
L 266.677011 194.820001 
L 266.880022 196.56 
L 268.301096 196.56 
L 268.707117 195.800578 
L 268.910128 196.56 
L 276.62453 196.56 
L 277.030552 196.121358 
L 277.233562 196.56 
L 278.654636 196.56 
L 279.060658 194.634821 
L 279.263668 196.56 
L 280.481732 196.56 
L 280.684742 196.156671 
L 280.887753 195.170612 
L 281.090764 196.56 
L 282.511838 196.56 
L 282.714848 196.445056 
L 282.917859 196.162561 
L 283.12087 196.56 
L 290.835272 196.476057 
L 291.038283 196.25175 
L 291.241293 196.56 
L 292.662368 196.56 
L 293.068389 194.922645 
L 293.271399 196.56 
L 294.489463 196.56 
L 294.692474 196.316093 
L 294.895484 195.441672 
L 295.098495 196.56 
L 296.722579 196.491561 
L 296.92559 196.227773 
L 297.128601 196.56 
L 304.843003 196.508709 
L 305.046014 196.322288 
L 305.249025 196.56 
L 306.670099 196.56 
L 306.873109 196.022368 
L 307.07612 195.165545 
L 307.27913 196.56 
L 308.700205 196.461517 
L 308.903215 195.690684 
L 309.106226 196.56 
L 310.730311 196.546763 
L 310.933321 196.310518 
L 311.136332 196.56 
L 318.850734 196.525759 
L 319.053745 196.364138 
L 319.256756 196.56 
L 320.67783 196.56 
L 320.88084 196.133934 
L 321.083851 195.3676 
L 321.286862 196.56 
L 322.707936 196.56 
L 323.113957 195.06729 
L 323.316968 196.56 
L 325.144063 196.47368 
L 325.347074 196.356185 
L 325.550084 196.56 
L 332.858466 196.555971 
L 333.061476 196.430046 
L 333.467497 196.56 
L 334.685561 196.56 
L 334.888572 196.250531 
L 335.091582 195.577384 
L 335.294593 196.56 
L 336.715667 196.56 
L 337.121688 195.275381 
L 337.324699 196.56 
L 339.151794 196.499015 
L 339.354805 196.388506 
L 339.557815 196.56 
L 347.069207 196.45408 
L 347.272218 196.263793 
L 347.475229 196.56 
L 348.896303 196.56 
L 349.099313 196.281382 
L 349.302324 195.646291 
L 349.505334 196.56 
L 350.926409 196.56 
L 351.33243 195.521968 
L 351.53544 196.56 
L 361.076938 196.481323 
L 361.279949 196.32023 
L 361.48296 196.56 
L 362.904034 196.56 
L 363.107044 196.374118 
L 363.310055 195.812188 
L 363.513066 196.56 
L 364.93414 196.56 
L 365.13715 196.240825 
L 365.340161 195.673929 
L 365.543172 196.56 
L 375.08467 196.496839 
L 375.28768 196.355489 
L 375.490691 196.56 
L 377.114776 196.452765 
L 377.317786 195.953801 
L 377.520797 196.56 
L 378.941871 196.56 
L 379.144882 196.324089 
L 379.347892 195.816001 
L 379.550903 196.56 
L 389.092401 196.511802 
L 389.295411 196.389716 
L 389.498422 196.56 
L 391.122507 196.53289 
L 391.325517 196.098249 
L 391.528528 196.56 
L 392.949602 196.56 
L 393.152613 196.410194 
L 393.355623 195.963064 
L 393.558634 196.56 
L 403.100132 196.517209 
L 403.303142 196.406808 
L 403.506153 196.56 
L 405.130238 196.56 
L 405.536259 195.694588 
L 405.73927 196.56 
L 407.363354 196.505354 
L 407.566365 196.133411 
L 407.769376 196.56 
L 417.107863 196.528916 
L 417.310874 196.433712 
L 417.716895 196.56 
L 419.137969 196.56 
L 419.54399 195.810553 
L 419.747001 196.56 
L 421.371086 196.56 
L 421.777107 195.842707 
L 421.980117 196.56 
L 433.1457 196.56 
L 433.551721 195.929729 
L 433.754732 196.56 
L 435.378817 196.56 
L 435.784838 195.943124 
L 435.987848 196.56 
L 447.153431 196.56 
L 447.356442 196.378322 
L 447.559452 196.030209 
L 447.762463 196.56 
L 449.386548 196.56 
L 449.792569 196.033525 
L 449.99558 196.56 
L 461.161162 196.56 
L 461.364173 196.425811 
L 461.567184 196.11575 
L 461.770194 196.56 
L 463.394279 196.56 
L 463.8003 196.117762 
L 464.003311 196.56 
L 475.371904 196.465677 
L 475.574915 196.188011 
L 475.777925 196.56 
L 477.40201 196.56 
L 477.605021 196.442167 
L 477.808031 196.195599 
L 478.011042 196.56 
L 489.379635 196.509905 
L 489.582646 196.267403 
L 489.785656 196.56 
L 491.612752 196.485811 
L 491.815762 196.269547 
L 492.018773 196.56 
L 498.109091 196.56 
L 498.109091 196.56 
" style="fill:none;stroke:#00bfbf;stroke-linecap:square;stroke-width:1.5;"/>
   </g>
   <g id="line2d_37">
    <path clip-path="url(#p6ddf01c3eb)" d="M 92.290909 196.56 
L 92.49392 369.36 
L 498.109091 369.36 
L 498.109091 369.36 
" style="fill:none;stroke:#ff0000;stroke-linecap:square;stroke-width:1.5;"/>
   </g>
   <g id="line2d_38">
    <path clip-path="url(#p6ddf01c3eb)" d="M 92.290909 196.56 
L 93.102951 196.56 
L 93.305962 193.390816 
L 93.508973 183.796692 
L 93.711983 196.56 
L 94.524026 196.56 
L 94.930047 177.219265 
L 95.133057 196.56 
L 95.742089 196.56 
L 95.9451 194.416229 
L 96.14811 184.772478 
L 96.351121 196.56 
L 96.960153 196.56 
L 97.163163 193.319238 
L 97.366174 185.002145 
L 97.569185 196.56 
L 98.178216 196.56 
L 98.381227 195.67349 
L 98.584238 191.561006 
L 98.787248 196.56 
L 99.599291 196.56 
L 99.802301 196.138117 
L 100.005312 193.968079 
L 100.208322 196.56 
L 101.020365 196.56 
L 101.223375 196.351864 
L 101.426386 194.14474 
L 101.629397 196.56 
L 102.441439 196.56 
L 102.644449 195.835094 
L 102.84746 193.374074 
L 103.050471 196.56 
L 103.862513 196.56 
L 104.065524 195.281844 
L 104.268534 192.637506 
L 104.471545 196.56 
L 105.283587 196.56 
L 105.689608 191.959778 
L 105.892619 196.56 
L 106.501651 196.56 
L 106.704661 196.235749 
L 106.907672 193.909678 
L 107.110683 196.56 
L 107.719714 196.56 
L 107.922725 195.329146 
L 108.125736 192.647313 
L 108.328746 196.56 
L 108.937778 196.56 
L 109.343799 191.427453 
L 109.54681 196.56 
L 109.952831 196.56 
L 110.155842 195.01104 
L 110.358852 192.286294 
L 110.561863 196.56 
L 110.764873 196.56 
L 110.967884 195.038779 
L 111.170895 192.146781 
L 111.373905 191.480485 
L 111.779926 187.569131 
L 112.388958 177.52587 
L 115.637128 115.38328 
L 116.246159 109.367146 
L 116.652181 107.156178 
L 116.855191 106.630399 
L 117.058202 106.500487 
L 117.261212 106.76754 
L 117.464223 107.428439 
L 117.870244 109.877317 
L 118.479276 115.935411 
L 119.088308 124.719702 
L 120.103361 143.514287 
L 122.133467 182.052901 
L 122.742499 190.196101 
L 123.35153 195.639728 
L 123.554541 196.56 
L 123.757552 196.56 
L 124.163573 192.066236 
L 124.569594 193.946875 
L 124.772604 193.83752 
L 124.975615 193.031258 
L 125.381636 189.810338 
L 125.990668 182.358178 
L 126.80271 169.864149 
L 129.441848 124.662812 
L 130.05088 117.915333 
L 130.456901 114.884963 
L 130.862922 113.131448 
L 131.065933 112.760207 
L 131.268944 112.733324 
L 131.471954 113.051014 
L 131.877975 114.70138 
L 132.283997 117.570477 
L 132.893028 123.854565 
L 133.705071 135.584605 
L 136.75023 184.031393 
L 137.359261 189.381391 
L 137.765283 191.456353 
L 137.968293 192.004833 
L 138.171304 192.222741 
L 138.374314 192.111967 
L 138.577325 191.690676 
L 138.983346 190.003398 
L 139.389367 187.082011 
L 139.998399 180.564792 
L 141.013452 166.212816 
L 143.449579 128.00593 
L 144.058611 121.630957 
L 144.667643 117.661219 
L 145.073664 116.495581 
L 145.276675 116.379104 
L 145.479685 116.575712 
L 145.682696 117.083015 
L 146.088717 118.991146 
L 146.697749 123.772994 
L 147.306781 130.713188 
L 148.321834 145.622299 
L 150.148929 173.593685 
L 150.960971 182.45453 
L 151.570003 186.696789 
L 151.976024 188.131451 
L 152.179035 188.406935 
L 152.382046 188.385694 
L 152.585056 188.076286 
L 152.991077 186.779373 
L 153.397099 184.488723 
L 154.00613 178.959416 
L 155.021183 166.10529 
L 157.660321 128.877332 
L 158.269353 123.526936 
L 158.675374 121.190701 
L 159.081395 119.914134 
L 159.284406 119.695809 
L 159.487416 119.763367 
L 159.690427 120.116411 
L 160.096448 121.660396 
L 160.502469 124.211158 
L 161.111501 129.659376 
L 161.923544 139.606866 
L 164.765692 177.600116 
L 165.374724 182.36577 
L 165.780745 184.355612 
L 166.186766 185.295434 
L 166.389777 185.361666 
L 166.592787 185.164051 
L 166.998808 184.12953 
L 167.40483 182.17047 
L 168.013861 177.309589 
L 168.825904 168.304799 
L 170.043967 151.684688 
L 171.262031 135.81445 
L 172.074073 127.892515 
L 172.683105 124.159618 
L 173.089126 122.867765 
L 173.292137 122.604939 
L 173.495148 122.603045 
L 173.698158 122.862128 
L 174.104179 124.148706 
L 174.510201 126.369818 
L 175.119232 131.222325 
L 175.931275 140.197373 
L 178.773423 175.19738 
L 179.382455 179.711327 
L 179.788476 181.674011 
L 180.194497 182.663966 
L 180.397508 182.783573 
L 180.600518 182.653243 
L 181.00654 181.705119 
L 181.412561 180.013315 
L 181.818582 177.40351 
L 182.427614 171.895133 
L 183.442667 160.230398 
L 185.269762 137.817248 
L 186.081805 130.48161 
L 186.690836 126.937786 
L 187.096858 125.662686 
L 187.299868 125.373393 
L 187.502879 125.321306 
L 187.705889 125.506757 
L 188.111911 126.579018 
L 188.517932 128.51444 
L 189.126963 132.834822 
L 189.939006 140.913394 
L 192.781154 172.608407 
L 193.390186 176.865372 
L 193.796207 178.761428 
L 194.202228 179.788713 
L 194.405239 179.965353 
L 194.60825 179.916405 
L 194.81126 179.647559 
L 195.217281 178.57264 
L 195.623303 176.738029 
L 196.232334 172.437149 
L 197.044377 164.640332 
L 199.886525 134.450323 
L 200.495557 130.551873 
L 200.901578 128.894976 
L 201.307599 128.060532 
L 201.51061 127.96321 
L 201.71362 128.080747 
L 202.119642 128.95219 
L 202.525663 130.617195 
L 203.134695 134.429935 
L 203.946737 141.646374 
L 206.991896 171.984308 
L 207.600928 175.460256 
L 208.006949 176.86552 
L 208.41297 177.468566 
L 208.615981 177.464024 
L 208.818991 177.259258 
L 209.225013 176.347007 
L 209.631034 174.735042 
L 210.240065 170.91317 
L 211.052108 163.885023 
L 214.097267 135.010783 
L 214.706299 131.902907 
L 215.11232 130.720445 
L 215.518341 130.302016 
L 215.721352 130.384846 
L 215.924362 130.661465 
L 216.330383 131.780516 
L 216.736405 133.585831 
L 217.345436 137.467428 
L 218.157479 144.418563 
L 220.796616 168.785762 
L 221.405648 172.37147 
L 221.811669 174.00421 
L 222.217691 174.938895 
L 222.420701 175.133251 
L 222.623712 175.143692 
L 222.826722 174.972926 
L 223.232744 174.165099 
L 223.638765 172.718645 
L 224.247797 169.288913 
L 225.059839 163.028074 
L 226.277903 151.877572 
L 227.495966 141.200248 
L 228.308009 135.962193 
L 228.91704 133.530706 
L 229.323062 132.719366 
L 229.526072 132.572927 
L 229.729083 132.602959 
L 229.932093 132.80928 
L 230.338115 133.74031 
L 230.744136 135.317044 
L 231.353167 138.734611 
L 232.16521 144.922809 
L 234.804348 167.089384 
L 235.413379 170.42068 
L 236.022411 172.484369 
L 236.428432 173.059342 
L 236.631443 173.097997 
L 236.834454 172.971857 
L 237.240475 172.283114 
L 237.646496 171.007095 
L 238.255528 167.956146 
L 239.06757 162.33653 
L 240.285634 152.24405 
L 241.503697 142.504138 
L 242.31574 137.69353 
L 242.924771 135.436746 
L 243.330793 134.665662 
L 243.533803 134.514965 
L 243.736814 134.524184 
L 243.939824 134.693276 
L 244.345846 135.50227 
L 244.751867 136.899945 
L 245.360899 139.875606 
L 246.172941 145.324226 
L 249.015089 166.735498 
L 249.624121 169.504557 
L 250.030142 170.682239 
L 250.436164 171.273224 
L 250.639174 171.342609 
L 250.842185 171.261177 
L 251.248206 170.68653 
L 251.654227 169.567613 
L 252.263259 166.856359 
L 253.075301 161.801523 
L 254.293365 152.623832 
L 255.511428 143.677725 
L 256.323471 139.217142 
L 256.932503 137.09446 
L 257.338524 136.346991 
L 257.541534 136.187057 
L 257.744545 136.172764 
L 257.947556 136.304221 
L 258.353577 136.997167 
L 258.759598 138.23027 
L 259.36863 140.898326 
L 260.180672 145.826613 
L 263.225831 166.424605 
L 263.834863 168.676181 
L 264.240884 169.543072 
L 264.646905 169.854107 
L 264.849916 169.799386 
L 265.255937 169.283444 
L 265.661958 168.290756 
L 266.27099 165.871126 
L 267.083032 161.222001 
L 268.301096 152.842092 
L 269.51916 144.631303 
L 270.331202 140.55416 
L 270.940234 138.581741 
L 271.346255 137.873051 
L 271.752276 137.686205 
L 271.955287 137.791883 
L 272.361308 138.395564 
L 272.767329 139.493892 
L 273.376361 141.900359 
L 274.188403 146.370856 
L 277.233562 165.223266 
L 277.842594 167.284358 
L 278.248615 168.084707 
L 278.654636 168.381685 
L 278.857647 168.339328 
L 279.263668 167.881147 
L 279.669689 167.028446 
L 280.075711 165.776675 
L 280.684742 163.059587 
L 281.699795 157.093886 
L 283.932912 143.462266 
L 284.541944 140.993411 
L 285.150975 139.451901 
L 285.556997 138.999878 
L 285.760007 138.955481 
L 285.963018 139.033036 
L 286.369039 139.549145 
L 286.77506 140.522541 
L 287.384092 142.694529 
L 288.196134 146.766758 
L 291.241293 163.969297 
L 291.850325 165.92716 
L 292.256346 166.710749 
L 292.662368 167.038157 
L 292.865378 167.028241 
L 293.271399 166.666892 
L 293.677421 165.935987 
L 294.083442 164.833831 
L 294.692474 162.411367 
L 295.707526 157.015117 
L 297.940643 144.501671 
L 298.549675 142.194788 
L 299.158707 140.729035 
L 299.564728 140.276047 
L 299.970749 140.26489 
L 300.37677 140.694721 
L 300.782791 141.544645 
L 301.391823 143.484524 
L 302.203866 147.162021 
L 305.249025 162.934084 
L 305.858056 164.763546 
L 306.264077 165.509478 
L 306.670099 165.841055 
L 307.07612 165.750942 
L 307.482141 165.264996 
L 307.888162 164.464325 
L 308.497194 162.552101 
L 309.309236 158.908931 
L 312.354395 143.83882 
L 312.963427 142.199583 
L 313.369448 141.568779 
L 313.77547 141.335774 
L 314.181491 141.508334 
L 314.587512 142.078551 
L 315.196544 143.598535 
L 315.805576 145.809578 
L 316.820628 150.650144 
L 318.647724 159.731396 
L 319.459766 162.725732 
L 320.068798 164.169898 
L 320.474819 164.677904 
L 320.88084 164.801638 
L 321.286862 164.541942 
L 321.692883 163.960008 
L 322.098904 163.059706 
L 322.707936 161.068901 
L 323.722989 156.608275 
L 326.159116 145.496206 
L 326.768148 143.739017 
L 327.377179 142.696892 
L 327.783201 142.44016 
L 328.189222 142.552872 
L 328.595243 143.030916 
L 329.001264 143.853186 
L 329.610296 145.626784 
L 330.422338 148.840059 
L 333.264487 161.186898 
L 333.873519 162.766655 
L 334.27954 163.428554 
L 334.685561 163.747446 
L 335.091582 163.715241 
L 335.497603 163.347483 
L 335.903625 162.702267 
L 336.512656 161.14201 
L 337.324699 158.144944 
L 340.369858 145.675383 
L 340.978889 144.253458 
L 341.384911 143.675958 
L 341.790932 143.421302 
L 342.196953 143.502781 
L 342.602974 143.91725 
L 343.008995 144.647155 
L 343.618027 146.245494 
L 344.43007 149.158159 
L 347.272218 160.445882 
L 347.88125 161.911351 
L 348.287271 162.543873 
L 348.693292 162.858622 
L 349.099313 162.847964 
L 349.505334 162.518144 
L 350.114366 161.52677 
L 350.723398 159.931426 
L 351.53544 157.032315 
L 354.174578 146.919135 
L 354.78361 145.404958 
L 355.392642 144.49114 
L 355.798663 144.248247 
L 356.204684 144.313552 
L 356.610705 144.684331 
L 357.016727 145.345549 
L 357.625758 146.780155 
L 358.437801 149.372211 
L 361.48296 160.285613 
L 362.091991 161.482628 
L 362.498013 161.942927 
L 362.904034 162.107726 
L 363.310055 161.975557 
L 363.716076 161.561989 
L 364.325108 160.497399 
L 364.93414 158.877965 
L 365.949193 155.3648 
L 368.182309 147.518979 
L 368.791341 146.106169 
L 369.400373 145.241994 
L 369.806394 145.001741 
L 370.212415 145.044097 
L 370.618436 145.367065 
L 371.024458 145.957556 
L 371.633489 147.25574 
L 372.445532 149.620578 
L 375.490691 159.685133 
L 376.099723 160.802001 
L 376.505744 161.237012 
L 376.911765 161.401162 
L 377.317786 161.292471 
L 377.723807 160.922684 
L 378.332839 159.94973 
L 378.941871 158.468962 
L 379.956924 155.246023 
L 382.19004 148.012346 
L 382.799072 146.705256 
L 383.408104 145.901885 
L 383.814125 145.675055 
L 384.220146 145.708031 
L 384.626168 145.999151 
L 385.032189 146.536636 
L 385.641221 147.725833 
L 386.453263 149.899129 
L 389.498422 159.076909 
L 390.107454 160.106426 
L 390.513475 160.513058 
L 390.919496 160.674353 
L 391.325517 160.587735 
L 391.731538 160.261062 
L 392.34057 159.379943 
L 392.949602 158.039852 
L 393.964655 155.113566 
L 396.197772 148.512725 
L 396.806803 147.31674 
L 397.415835 146.578509 
L 397.821856 146.367248 
L 398.227878 146.392365 
L 398.633899 146.652485 
L 399.242931 147.455742 
L 399.851962 148.655936 
L 400.664005 150.768472 
L 403.100132 157.720261 
L 403.912174 159.238574 
L 404.521206 159.876806 
L 404.927227 160.025407 
L 405.333248 159.948099 
L 405.73927 159.651122 
L 406.348301 158.892202 
L 406.957333 157.72278 
L 407.769376 155.635363 
L 410.205503 148.981078 
L 410.814535 147.866453 
L 411.423566 147.168945 
L 411.829588 146.960849 
L 412.235609 146.968976 
L 412.64163 147.192497 
L 413.250662 147.908061 
L 413.859693 148.994569 
L 414.671736 150.919407 
L 417.310874 157.719895 
L 417.919905 158.720793 
L 418.528937 159.321238 
L 418.934958 159.468696 
L 419.34098 159.409239 
L 419.747001 159.147945 
L 420.356033 158.462279 
L 420.965064 157.398319 
L 421.777107 155.493657 
L 424.010223 149.884004 
L 424.822266 148.431778 
L 425.431297 147.771724 
L 425.837319 147.564218 
L 426.24334 147.55243 
L 426.649361 147.736152 
L 427.258393 148.359022 
L 427.867425 149.327161 
L 428.679467 151.058868 
L 431.318605 157.260812 
L 431.927637 158.188413 
L 432.536668 158.753918 
L 432.94269 158.902742 
L 433.348711 158.863994 
L 433.754732 158.641449 
L 434.363764 158.033472 
L 434.972795 157.079312 
L 435.784838 155.362868 
L 438.220965 149.86907 
L 439.033007 148.669428 
L 439.642039 148.17433 
L 440.04806 148.057698 
L 440.454082 148.120557 
L 440.860103 148.360607 
L 441.469135 149.029319 
L 442.281177 150.375551 
L 443.29623 152.577839 
L 444.920315 156.160961 
L 445.732357 157.487889 
L 446.341389 158.132558 
L 446.950421 158.412822 
L 447.356442 158.386634 
L 447.965474 158.040048 
L 448.574505 157.392821 
L 449.386548 156.046656 
L 451.010633 152.593838 
L 452.228696 150.196717 
L 453.040739 149.092594 
L 453.64977 148.632893 
L 454.055792 148.521149 
L 454.461813 148.573178 
L 455.070845 148.95222 
L 455.679876 149.656767 
L 456.491919 150.986303 
L 457.912993 153.926139 
L 459.131056 156.253396 
L 459.943099 157.359296 
L 460.552131 157.845011 
L 461.161162 157.988217 
L 461.567184 157.888837 
L 462.176215 157.47746 
L 462.785247 156.783921 
L 463.59729 155.449491 
L 466.642448 149.897784 
L 467.25148 149.278937 
L 467.860512 148.964027 
L 468.266533 148.937344 
L 468.875565 149.176904 
L 469.484597 149.730701 
L 470.296639 150.860038 
L 471.514703 153.101188 
L 472.935777 155.713899 
L 473.747819 156.826722 
L 474.356851 157.365807 
L 474.965883 157.598658 
L 475.574915 157.509967 
L 476.183947 157.124919 
L 476.792978 156.479863 
L 477.605021 155.249743 
L 480.65018 150.15979 
L 481.259211 149.600255 
L 481.868243 149.320185 
L 482.477275 149.344401 
L 483.086307 149.672953 
L 483.695339 150.275292 
L 484.507381 151.378587 
L 485.928455 153.829077 
L 487.146519 155.768352 
L 487.958561 156.685994 
L 488.567593 157.092083 
L 489.176625 157.214353 
L 489.785656 157.046019 
L 490.394688 156.621827 
L 491.206731 155.687781 
L 492.424794 153.766278 
L 494.25189 150.926779 
L 495.063932 150.091363 
L 495.672964 149.746737 
L 496.281996 149.672035 
L 496.891027 149.877179 
L 497.500059 150.344192 
L 498.109091 151.017071 
L 498.109091 151.017071 
" style="fill:none;stroke:#008000;stroke-linecap:square;stroke-width:1.5;"/>
   </g>
   <g id="patch_3">
    <path d="M 72 384.48 
L 72 51.84 
" style="fill:none;stroke:#000000;stroke-linecap:square;stroke-linejoin:miter;stroke-width:0.8;"/>
   </g>
   <g id="patch_4">
    <path d="M 518.4 384.48 
L 518.4 51.84 
" style="fill:none;stroke:#000000;stroke-linecap:square;stroke-linejoin:miter;stroke-width:0.8;"/>
   </g>
   <g id="patch_5">
    <path d="M 72 384.48 
L 518.4 384.48 
" style="fill:none;stroke:#000000;stroke-linecap:square;stroke-linejoin:miter;stroke-width:0.8;"/>
   </g>
   <g id="patch_6">
    <path d="M 72 51.84 
L 518.4 51.84 
" style="fill:none;stroke:#000000;stroke-linecap:square;stroke-linejoin:miter;stroke-width:0.8;"/>
   </g>
   <g id="legend_1">
    <g id="patch_7">
     <path d="M 79 123.254649 
L 120.41264 123.254649 
Q 122.41264 123.254649 122.41264 121.254649 
L 122.41264 58.84 
Q 122.41264 56.84 120.41264 56.84 
L 79 56.84 
Q 77 56.84 77 58.84 
L 77 121.254649 
Q 77 123.254649 79 123.254649 
z
" style="fill:#ffffff;opacity:0.8;stroke:#cccccc;stroke-linejoin:miter;"/>
    </g>
    <g id="line2d_39">
     <path d="M 81 66.256484 
L 101 66.256484 
" style="fill:none;stroke:#bf00bf;stroke-linecap:square;stroke-width:1.5;"/>
    </g>
    <g id="line2d_40"/>
    <g id="text_20">
     <!-- $p^\mathrm{S}_{1}$ -->
     <g transform="translate(109 69.756484)scale(0.1 -0.1)">
      <use transform="translate(0 24.740171)scale(0.996264)" xlink:href="#CMMI12-112"/>
      <use transform="translate(48.959514 60.89381)scale(0.697382)" xlink:href="#CMR17-83"/>
      <use transform="translate(48.959514 0)scale(0.697382)" xlink:href="#CMR17-49"/>
     </g>
    </g>
    <g id="line2d_41">
     <path d="M 81 82.110146 
L 101 82.110146 
" style="fill:none;stroke:#00bfbf;stroke-linecap:square;stroke-width:1.5;"/>
    </g>
    <g id="line2d_42"/>
    <g id="text_21">
     <!-- $p^\mathrm{S}_{2}$ -->
     <g transform="translate(109 85.610146)scale(0.1 -0.1)">
      <use transform="translate(0 24.740171)scale(0.996264)" xlink:href="#CMMI12-112"/>
      <use transform="translate(48.959514 60.89381)scale(0.697382)" xlink:href="#CMR17-83"/>
      <use transform="translate(48.959514 0)scale(0.697382)" xlink:href="#CMR17-50"/>
     </g>
    </g>
    <g id="line2d_43">
     <path d="M 81 97.963808 
L 101 97.963808 
" style="fill:none;stroke:#ff0000;stroke-linecap:square;stroke-width:1.5;"/>
    </g>
    <g id="line2d_44"/>
    <g id="text_22">
     <!-- $p^\mathrm{S}_{3}$ -->
     <g transform="translate(109 101.463808)scale(0.1 -0.1)">
      <use transform="translate(0 24.740171)scale(0.996264)" xlink:href="#CMMI12-112"/>
      <use transform="translate(48.959514 60.89381)scale(0.697382)" xlink:href="#CMR17-83"/>
      <use transform="translate(48.959514 0)scale(0.697382)" xlink:href="#CMR17-51"/>
     </g>
    </g>
    <g id="line2d_45">
     <path d="M 81 113.81747 
L 101 113.81747 
" style="fill:none;stroke:#008000;stroke-linecap:square;stroke-width:1.5;"/>
    </g>
    <g id="line2d_46"/>
    <g id="text_23">
     <!-- $p^\mathrm{S}_{4}$ -->
     <g transform="translate(109 117.31747)scale(0.1 -0.1)">
      <use transform="translate(0 24.740171)scale(0.996264)" xlink:href="#CMMI12-112"/>
      <use transform="translate(48.959514 60.89381)scale(0.697382)" xlink:href="#CMR17-83"/>
      <use transform="translate(48.959514 0)scale(0.697382)" xlink:href="#CMR17-52"/>
     </g>
    </g>
   </g>
  </g>
 </g>
 <defs>
  <clipPath id="p6ddf01c3eb">
   <rect height="332.64" width="446.4" x="72" y="51.84"/>
  </clipPath>
 </defs>
</svg>
