<?xml version="1.0" encoding="utf-8" standalone="no"?>
<!DOCTYPE svg PUBLIC "-//W3C//DTD SVG 1.1//EN"
  "http://www.w3.org/Graphics/SVG/1.1/DTD/svg11.dtd">
<!-- Created with matplotlib (http://matplotlib.org/) -->
<svg height="432pt" version="1.1" viewBox="0 0 576 432" width="576pt" xmlns="http://www.w3.org/2000/svg" xmlns:xlink="http://www.w3.org/1999/xlink">
 <defs>
  <style type="text/css">
*{stroke-linecap:butt;stroke-linejoin:round;}
  </style>
 </defs>
 <g id="figure_1">
  <g id="patch_1">
   <path d="M 0 432 
L 576 432 
L 576 0 
L 0 0 
z
" style="fill:#ffffff;"/>
  </g>
  <g id="axes_1">
   <g id="patch_2">
    <path d="M 72 384.48 
L 518.4 384.48 
L 518.4 51.84 
L 72 51.84 
z
" style="fill:#ffffff;"/>
   </g>
   <g id="matplotlib.axis_1">
    <g id="xtick_1">
     <g id="line2d_1">
      <path clip-path="url(#p541445c466)" d="M 92.290909 384.48 
L 92.290909 51.84 
" style="fill:none;stroke:#b0b0b0;stroke-dasharray:5.12,1.28,0.8,1.28;stroke-dashoffset:0;stroke-width:0.8;"/>
     </g>
     <g id="line2d_2">
      <defs>
       <path d="M 0 0 
L 0 3.5 
" id="me1c51837ee" style="stroke:#000000;stroke-width:0.8;"/>
      </defs>
      <g>
       <use style="stroke:#000000;stroke-width:0.8;" x="92.290909" xlink:href="#me1c51837ee" y="384.48"/>
      </g>
     </g>
     <g id="text_1">
      <text style="font-family:DejaVu Sans;font-size:10px;font-style:normal;font-weight:400;text-anchor:middle;" transform="rotate(-0, 92.290909, 399.078438)" x="92.290909" y="399.078438">0</text>
     </g>
    </g>
    <g id="xtick_2">
     <g id="line2d_3">
      <path clip-path="url(#p541445c466)" d="M 143.043558 384.48 
L 143.043558 51.84 
" style="fill:none;stroke:#b0b0b0;stroke-dasharray:5.12,1.28,0.8,1.28;stroke-dashoffset:0;stroke-width:0.8;"/>
     </g>
     <g id="line2d_4">
      <g>
       <use style="stroke:#000000;stroke-width:0.8;" x="143.043558" xlink:href="#me1c51837ee" y="384.48"/>
      </g>
     </g>
     <g id="text_2">
      <text style="font-family:DejaVu Sans;font-size:10px;font-style:normal;font-weight:400;text-anchor:middle;" transform="rotate(-0, 143.043558, 399.078438)" x="143.043558" y="399.078438">250</text>
     </g>
    </g>
    <g id="xtick_3">
     <g id="line2d_5">
      <path clip-path="url(#p541445c466)" d="M 193.796207 384.48 
L 193.796207 51.84 
" style="fill:none;stroke:#b0b0b0;stroke-dasharray:5.12,1.28,0.8,1.28;stroke-dashoffset:0;stroke-width:0.8;"/>
     </g>
     <g id="line2d_6">
      <g>
       <use style="stroke:#000000;stroke-width:0.8;" x="193.796207" xlink:href="#me1c51837ee" y="384.48"/>
      </g>
     </g>
     <g id="text_3">
      <text style="font-family:DejaVu Sans;font-size:10px;font-style:normal;font-weight:400;text-anchor:middle;" transform="rotate(-0, 193.796207, 399.078438)" x="193.796207" y="399.078438">500</text>
     </g>
    </g>
    <g id="xtick_4">
     <g id="line2d_7">
      <path clip-path="url(#p541445c466)" d="M 244.548856 384.48 
L 244.548856 51.84 
" style="fill:none;stroke:#b0b0b0;stroke-dasharray:5.12,1.28,0.8,1.28;stroke-dashoffset:0;stroke-width:0.8;"/>
     </g>
     <g id="line2d_8">
      <g>
       <use style="stroke:#000000;stroke-width:0.8;" x="244.548856" xlink:href="#me1c51837ee" y="384.48"/>
      </g>
     </g>
     <g id="text_4">
      <text style="font-family:DejaVu Sans;font-size:10px;font-style:normal;font-weight:400;text-anchor:middle;" transform="rotate(-0, 244.548856, 399.078438)" x="244.548856" y="399.078438">750</text>
     </g>
    </g>
    <g id="xtick_5">
     <g id="line2d_9">
      <path clip-path="url(#p541445c466)" d="M 295.301505 384.48 
L 295.301505 51.84 
" style="fill:none;stroke:#b0b0b0;stroke-dasharray:5.12,1.28,0.8,1.28;stroke-dashoffset:0;stroke-width:0.8;"/>
     </g>
     <g id="line2d_10">
      <g>
       <use style="stroke:#000000;stroke-width:0.8;" x="295.301505" xlink:href="#me1c51837ee" y="384.48"/>
      </g>
     </g>
     <g id="text_5">
      <text style="font-family:DejaVu Sans;font-size:10px;font-style:normal;font-weight:400;text-anchor:middle;" transform="rotate(-0, 295.301505, 399.078438)" x="295.301505" y="399.078438">1000</text>
     </g>
    </g>
    <g id="xtick_6">
     <g id="line2d_11">
      <path clip-path="url(#p541445c466)" d="M 346.054154 384.48 
L 346.054154 51.84 
" style="fill:none;stroke:#b0b0b0;stroke-dasharray:5.12,1.28,0.8,1.28;stroke-dashoffset:0;stroke-width:0.8;"/>
     </g>
     <g id="line2d_12">
      <g>
       <use style="stroke:#000000;stroke-width:0.8;" x="346.054154" xlink:href="#me1c51837ee" y="384.48"/>
      </g>
     </g>
     <g id="text_6">
      <text style="font-family:DejaVu Sans;font-size:10px;font-style:normal;font-weight:400;text-anchor:middle;" transform="rotate(-0, 346.054154, 399.078438)" x="346.054154" y="399.078438">1250</text>
     </g>
    </g>
    <g id="xtick_7">
     <g id="line2d_13">
      <path clip-path="url(#p541445c466)" d="M 396.806803 384.48 
L 396.806803 51.84 
" style="fill:none;stroke:#b0b0b0;stroke-dasharray:5.12,1.28,0.8,1.28;stroke-dashoffset:0;stroke-width:0.8;"/>
     </g>
     <g id="line2d_14">
      <g>
       <use style="stroke:#000000;stroke-width:0.8;" x="396.806803" xlink:href="#me1c51837ee" y="384.48"/>
      </g>
     </g>
     <g id="text_7">
      <text style="font-family:DejaVu Sans;font-size:10px;font-style:normal;font-weight:400;text-anchor:middle;" transform="rotate(-0, 396.806803, 399.078438)" x="396.806803" y="399.078438">1500</text>
     </g>
    </g>
    <g id="xtick_8">
     <g id="line2d_15">
      <path clip-path="url(#p541445c466)" d="M 447.559452 384.48 
L 447.559452 51.84 
" style="fill:none;stroke:#b0b0b0;stroke-dasharray:5.12,1.28,0.8,1.28;stroke-dashoffset:0;stroke-width:0.8;"/>
     </g>
     <g id="line2d_16">
      <g>
       <use style="stroke:#000000;stroke-width:0.8;" x="447.559452" xlink:href="#me1c51837ee" y="384.48"/>
      </g>
     </g>
     <g id="text_8">
      <text style="font-family:DejaVu Sans;font-size:10px;font-style:normal;font-weight:400;text-anchor:middle;" transform="rotate(-0, 447.559452, 399.078438)" x="447.559452" y="399.078438">1750</text>
     </g>
    </g>
    <g id="xtick_9">
     <g id="line2d_17">
      <path clip-path="url(#p541445c466)" d="M 498.312102 384.48 
L 498.312102 51.84 
" style="fill:none;stroke:#b0b0b0;stroke-dasharray:5.12,1.28,0.8,1.28;stroke-dashoffset:0;stroke-width:0.8;"/>
     </g>
     <g id="line2d_18">
      <g>
       <use style="stroke:#000000;stroke-width:0.8;" x="498.312102" xlink:href="#me1c51837ee" y="384.48"/>
      </g>
     </g>
     <g id="text_9">
      <text style="font-family:DejaVu Sans;font-size:10px;font-style:normal;font-weight:400;text-anchor:middle;" transform="rotate(-0, 498.312102, 399.078438)" x="498.312102" y="399.078438">2000</text>
     </g>
    </g>
    <g id="text_10">
     <text style="font-family:DejaVu Sans;font-size:14px;font-style:normal;font-weight:400;text-anchor:middle;" transform="rotate(-0, 295.2, 415.795938)" x="295.2" y="415.795938">Iteration</text>
    </g>
   </g>
   <g id="matplotlib.axis_2">
    <g id="ytick_1">
     <g id="line2d_19">
      <path clip-path="url(#p541445c466)" d="M 72 369.36 
L 518.4 369.36 
" style="fill:none;stroke:#b0b0b0;stroke-dasharray:5.12,1.28,0.8,1.28;stroke-dashoffset:0;stroke-width:0.8;"/>
     </g>
     <g id="line2d_20">
      <defs>
       <path d="M 0 0 
L -3.5 0 
" id="mfbc3f2c181" style="stroke:#000000;stroke-width:0.8;"/>
      </defs>
      <g>
       <use style="stroke:#000000;stroke-width:0.8;" x="72" xlink:href="#mfbc3f2c181" y="369.36"/>
      </g>
     </g>
     <g id="text_11">
      <text style="font-family:DejaVu Sans;font-size:10px;font-style:normal;font-weight:400;text-anchor:end;" transform="rotate(-0, 65, 373.159219)" x="65" y="373.159219">−1000</text>
     </g>
    </g>
    <g id="ytick_2">
     <g id="line2d_21">
      <path clip-path="url(#p541445c466)" d="M 72 308.88 
L 518.4 308.88 
" style="fill:none;stroke:#b0b0b0;stroke-dasharray:5.12,1.28,0.8,1.28;stroke-dashoffset:0;stroke-width:0.8;"/>
     </g>
     <g id="line2d_22">
      <g>
       <use style="stroke:#000000;stroke-width:0.8;" x="72" xlink:href="#mfbc3f2c181" y="308.88"/>
      </g>
     </g>
     <g id="text_12">
      <text style="font-family:DejaVu Sans;font-size:10px;font-style:normal;font-weight:400;text-anchor:end;" transform="rotate(-0, 65, 312.679219)" x="65" y="312.679219">−800</text>
     </g>
    </g>
    <g id="ytick_3">
     <g id="line2d_23">
      <path clip-path="url(#p541445c466)" d="M 72 248.4 
L 518.4 248.4 
" style="fill:none;stroke:#b0b0b0;stroke-dasharray:5.12,1.28,0.8,1.28;stroke-dashoffset:0;stroke-width:0.8;"/>
     </g>
     <g id="line2d_24">
      <g>
       <use style="stroke:#000000;stroke-width:0.8;" x="72" xlink:href="#mfbc3f2c181" y="248.4"/>
      </g>
     </g>
     <g id="text_13">
      <text style="font-family:DejaVu Sans;font-size:10px;font-style:normal;font-weight:400;text-anchor:end;" transform="rotate(-0, 65, 252.199219)" x="65" y="252.199219">−600</text>
     </g>
    </g>
    <g id="ytick_4">
     <g id="line2d_25">
      <path clip-path="url(#p541445c466)" d="M 72 187.92 
L 518.4 187.92 
" style="fill:none;stroke:#b0b0b0;stroke-dasharray:5.12,1.28,0.8,1.28;stroke-dashoffset:0;stroke-width:0.8;"/>
     </g>
     <g id="line2d_26">
      <g>
       <use style="stroke:#000000;stroke-width:0.8;" x="72" xlink:href="#mfbc3f2c181" y="187.92"/>
      </g>
     </g>
     <g id="text_14">
      <text style="font-family:DejaVu Sans;font-size:10px;font-style:normal;font-weight:400;text-anchor:end;" transform="rotate(-0, 65, 191.719219)" x="65" y="191.719219">−400</text>
     </g>
    </g>
    <g id="ytick_5">
     <g id="line2d_27">
      <path clip-path="url(#p541445c466)" d="M 72 127.44 
L 518.4 127.44 
" style="fill:none;stroke:#b0b0b0;stroke-dasharray:5.12,1.28,0.8,1.28;stroke-dashoffset:0;stroke-width:0.8;"/>
     </g>
     <g id="line2d_28">
      <g>
       <use style="stroke:#000000;stroke-width:0.8;" x="72" xlink:href="#mfbc3f2c181" y="127.44"/>
      </g>
     </g>
     <g id="text_15">
      <text style="font-family:DejaVu Sans;font-size:10px;font-style:normal;font-weight:400;text-anchor:end;" transform="rotate(-0, 65, 131.239219)" x="65" y="131.239219">−200</text>
     </g>
    </g>
    <g id="ytick_6">
     <g id="line2d_29">
      <path clip-path="url(#p541445c466)" d="M 72 66.96 
L 518.4 66.96 
" style="fill:none;stroke:#b0b0b0;stroke-dasharray:5.12,1.28,0.8,1.28;stroke-dashoffset:0;stroke-width:0.8;"/>
     </g>
     <g id="line2d_30">
      <g>
       <use style="stroke:#000000;stroke-width:0.8;" x="72" xlink:href="#mfbc3f2c181" y="66.96"/>
      </g>
     </g>
     <g id="text_16">
      <text style="font-family:DejaVu Sans;font-size:10px;font-style:normal;font-weight:400;text-anchor:end;" transform="rotate(-0, 65, 70.759219)" x="65" y="70.759219">0</text>
     </g>
    </g>
    <g id="text_17">
     <text style="font-family:DejaVu Sans;font-size:14px;font-style:normal;font-weight:400;text-anchor:middle;" transform="rotate(-90, 23.869375, 218.16)" x="23.869375" y="218.16">$\partial \mathcal{L}/ \partial \mu_{mn}[A]$</text>
    </g>
   </g>
   <g id="line2d_31">
    <path clip-path="url(#p541445c466)" d="M 92.290909 66.96 
L 92.49392 369.36 
L 92.899941 361.232304 
L 93.102951 360.037824 
L 93.508973 359.286542 
L 94.118004 359.063673 
L 97.569185 358.519716 
L 97.975206 363.463956 
L 98.381227 366.209808 
L 98.787248 367.595738 
L 99.193269 368.239668 
L 99.599291 368.479562 
L 100.208322 368.462809 
L 101.223375 368.056686 
L 106.704661 365.450996 
L 109.952831 364.243059 
L 113.404011 363.192189 
L 117.261212 362.24607 
L 117.667234 362.158435 
L 117.870244 360.743596 
L 118.276265 352.661412 
L 119.088308 332.455074 
L 119.291318 332.462997 
L 119.494329 331.936246 
L 120.103361 331.746611 
L 121.118414 331.616398 
L 124.569594 331.551865 
L 125.178626 331.676152 
L 126.5997 331.575543 
L 130.456901 331.15433 
L 131.065933 332.29329 
L 131.674965 332.81239 
L 132.283997 333.013365 
L 133.29905 333.063956 
L 135.938187 332.839999 
L 143.043558 332.255429 
L 151.366993 331.813169 
L 162.126554 331.480136 
L 172.886116 331.300269 
L 173.089126 331.373903 
L 173.901169 332.244996 
L 176.540307 335.483459 
L 177.75837 336.433872 
L 178.773423 336.74619 
L 181.20955 337.15694 
L 187.9089 338.027943 
L 195.623303 338.804173 
L 204.96179 339.651619 
L 205.773832 340.86252 
L 206.382864 341.441404 
L 206.991896 341.773167 
L 207.600928 341.905285 
L 208.41297 341.83404 
L 209.225013 341.536569 
L 210.240065 340.914442 
L 211.458129 339.892299 
L 213.285224 338.022651 
L 214.300277 337.048983 
L 215.721352 336.173959 
L 217.345436 335.363224 
L 218.157479 335.169084 
L 222.01468 336.008183 
L 227.495966 336.93268 
L 234.398326 337.855212 
L 237.849507 338.334486 
L 238.661549 339.028947 
L 239.473591 339.474413 
L 240.488644 339.757701 
L 241.503697 339.80923 
L 242.721761 339.633143 
L 244.142835 339.170229 
L 245.76692 338.397385 
L 248.812079 336.860921 
L 251.248206 336.171842 
L 252.263259 336.009483 
L 257.135513 336.87846 
L 263.428842 337.757597 
L 264.443895 337.918172 
L 266.067979 338.850864 
L 267.083032 339.146883 
L 268.301096 339.273438 
L 269.72217 339.16908 
L 271.143244 338.844362 
L 272.97034 338.187429 
L 276.42152 336.850004 
L 279.060658 336.302388 
L 280.075711 336.282551 
L 290.02323 337.895915 
L 291.038283 338.479366 
L 292.256346 338.902665 
L 293.47441 339.089972 
L 294.895484 339.070981 
L 296.316558 338.838738 
L 298.143654 338.29596 
L 302.812897 336.718339 
L 305.046014 336.336408 
L 305.858056 336.34929 
L 314.993533 337.774078 
L 316.414607 338.535612 
L 317.632671 338.899732 
L 319.053745 339.056889 
L 320.474819 338.979384 
L 322.098904 338.653336 
L 324.12901 337.984609 
L 327.174169 336.91505 
L 330.016317 336.38331 
L 331.03137 336.353796 
L 338.542762 337.529951 
L 340.166847 337.837401 
L 341.1819 338.401044 
L 342.399964 338.819354 
L 343.618027 339.014856 
L 345.039101 339.015642 
L 346.663186 338.765285 
L 348.490282 338.234482 
L 352.956515 336.762913 
L 355.392642 336.358846 
L 356.204684 336.379379 
L 365.13715 337.804862 
L 366.152203 338.376943 
L 367.370267 338.802994 
L 368.588331 339.005602 
L 370.009405 339.014251 
L 371.633489 338.7723 
L 373.460585 338.249209 
L 378.129829 336.732522 
L 380.362945 336.36565 
L 381.174987 336.371849 
L 390.107454 337.781003 
L 391.122507 338.360553 
L 392.34057 338.793045 
L 393.558634 339.001036 
L 394.979708 339.015279 
L 396.603793 338.778863 
L 398.430888 338.260579 
L 403.100132 336.740324 
L 405.536259 336.352012 
L 406.348301 336.397735 
L 410.611524 337.107679 
L 415.280768 337.89652 
L 416.498831 338.518436 
L 417.716895 338.87681 
L 419.137969 339.033665 
L 420.559043 338.959849 
L 422.183128 338.640998 
L 424.213234 337.983278 
L 427.461403 336.878037 
L 430.303552 336.373271 
L 431.318605 336.392231 
L 437.002901 337.308745 
L 440.251071 337.87012 
L 441.469135 338.503013 
L 442.687198 338.868857 
L 444.108272 339.032485 
L 445.529346 338.964385 
L 447.153431 338.650796 
L 449.183537 337.99737 
L 452.431707 336.886443 
L 455.273855 336.377292 
L 456.288908 336.38709 
L 464.003311 337.580844 
L 465.221374 337.84611 
L 466.236427 338.402072 
L 467.454491 338.815332 
L 468.672554 339.008233 
L 470.093629 339.007749 
L 471.717713 338.757513 
L 473.544809 338.228222 
L 478.011042 336.763276 
L 480.447169 336.361477 
L 481.259211 336.382494 
L 490.191678 337.8247 
L 491.206731 338.388192 
L 492.424794 338.807651 
L 493.642858 339.005481 
L 495.063932 339.009896 
L 496.688017 338.764287 
L 498.109091 338.373677 
L 498.109091 338.373677 
" style="fill:none;stroke:#bf00bf;stroke-linecap:square;stroke-width:1.5;"/>
   </g>
   <g id="line2d_32">
    <path clip-path="url(#p541445c466)" d="M 92.290909 66.96 
L 92.49392 369.36 
L 92.899941 361.232304 
L 93.102951 360.037824 
L 93.508973 359.286542 
L 94.118004 359.063673 
L 97.772195 358.485877 
L 98.178216 360.876259 
L 98.584238 362.148214 
L 98.990259 362.789755 
L 99.39628 363.086924 
L 100.005312 363.209577 
L 101.020365 363.082992 
L 110.561863 361.146362 
L 115.840138 360.454774 
L 117.667234 360.261842 
L 117.870244 358.869835 
L 118.479276 346.161293 
L 119.088308 332.455074 
L 119.291318 332.462997 
L 119.494329 331.936246 
L 120.103361 331.746611 
L 121.118414 331.616398 
L 124.569594 331.551865 
L 125.178626 331.676152 
L 126.5997 331.575543 
L 130.862922 331.185629 
L 131.471954 331.673219 
L 132.283997 331.919675 
L 133.50206 331.979852 
L 138.171304 331.804369 
L 149.336887 331.488301 
L 165.374724 331.27656 
L 172.886116 331.185054 
L 173.901169 332.244996 
L 176.540307 335.483459 
L 177.75837 336.433872 
L 178.773423 336.74619 
L 181.20955 337.15694 
L 187.9089 338.027943 
L 195.623303 338.804173 
L 204.555769 339.480793 
L 205.367811 341.574278 
L 205.976843 342.627296 
L 206.585875 343.27165 
L 207.194907 343.593706 
L 207.803938 343.660203 
L 208.41297 343.519345 
L 209.225013 343.068769 
L 210.240065 342.169402 
L 211.458129 340.725321 
L 213.285224 338.129973 
L 213.894256 337.379023 
L 214.909309 336.647789 
L 216.939415 335.539614 
L 217.954468 335.154024 
L 218.766511 335.318832 
L 222.217691 336.046558 
L 227.698977 336.963102 
L 234.601337 337.879283 
L 237.443485 338.200674 
L 238.052517 339.132731 
L 238.86456 339.98937 
L 239.676602 340.50472 
L 240.488644 340.760308 
L 241.300687 340.813047 
L 242.31574 340.648723 
L 243.533803 340.178067 
L 244.954877 339.340994 
L 246.984983 337.820436 
L 247.797026 337.254011 
L 249.015089 336.7953 
L 251.451217 336.129839 
L 252.466269 336.050338 
L 262.210778 337.602708 
L 264.037873 337.832653 
L 264.646905 338.458651 
L 265.458948 339.178575 
L 266.27099 339.653887 
L 267.286043 339.98308 
L 268.301096 340.080967 
L 269.51916 339.949211 
L 270.737223 339.59126 
L 272.158297 338.948781 
L 274.188403 337.765913 
L 275.406467 337.132416 
L 277.233562 336.655259 
L 279.466679 336.256453 
L 280.075711 336.282551 
L 289.617209 337.825456 
L 290.429251 338.615325 
L 291.444304 339.282691 
L 292.459357 339.670126 
L 293.47441 339.841103 
L 294.692474 339.810651 
L 295.910537 339.561413 
L 297.331611 339.044219 
L 299.158707 338.127009 
L 301.188813 337.107165 
L 303.421929 336.591664 
L 305.452035 336.305745 
L 306.061067 336.379954 
L 309.106226 336.906855 
L 314.790523 337.857934 
L 315.805576 338.748683 
L 316.820628 339.323908 
L 317.835681 339.651498 
L 319.053745 339.787367 
L 320.271809 339.687696 
L 321.692883 339.320491 
L 323.316968 338.64251 
L 326.971158 336.961983 
L 329.813307 336.408651 
L 331.03137 336.353796 
L 338.542762 337.529951 
L 339.760826 337.764311 
L 340.572868 338.521611 
L 341.587921 339.171106 
L 342.602974 339.55845 
L 343.821038 339.755796 
L 345.039101 339.711132 
L 346.460176 339.400264 
L 348.08426 338.772754 
L 350.317377 337.617193 
L 351.33243 337.150378 
L 353.159525 336.720637 
L 355.392642 336.358846 
L 356.204684 336.379379 
L 364.731129 337.713265 
L 365.543172 338.482722 
L 366.558225 339.142438 
L 367.573278 339.538673 
L 368.791341 339.745787 
L 370.009405 339.710376 
L 371.227468 339.46782 
L 372.648542 338.96886 
L 374.475638 338.086034 
L 376.505744 337.106137 
L 378.73886 336.610776 
L 380.768966 336.336287 
L 381.377998 336.403148 
L 384.626168 336.958747 
L 389.701433 337.674649 
L 390.513475 338.455113 
L 391.528528 339.12372 
L 392.543581 339.527061 
L 393.761644 339.741432 
L 394.979708 339.712523 
L 396.197772 339.475774 
L 397.618846 338.982438 
L 399.445941 338.10442 
L 401.476047 337.116207 
L 403.506153 336.657889 
L 405.536259 336.352012 
L 406.348301 336.397735 
L 410.611524 337.107679 
L 414.671736 337.669538 
L 415.889799 338.732958 
L 416.904852 339.296541 
L 417.919905 339.619656 
L 419.137969 339.755977 
L 420.356033 339.660721 
L 421.777107 339.301833 
L 423.401192 338.635646 
L 427.055382 336.969785 
L 429.897531 336.420747 
L 431.115594 336.353917 
L 435.987848 337.162293 
L 439.84505 337.822432 
L 440.860103 338.705772 
L 441.875156 339.279849 
L 442.890209 339.611007 
L 444.108272 339.755221 
L 445.326336 339.666679 
L 446.74741 339.314352 
L 448.371495 338.653578 
L 452.025686 336.978857 
L 454.867834 336.425979 
L 456.085897 336.345299 
L 459.334067 336.909637 
L 464.815353 337.782757 
L 465.627396 338.528294 
L 466.642448 339.169382 
L 467.657501 339.551888 
L 468.875565 339.746149 
L 470.093629 339.700275 
L 471.514703 339.389559 
L 473.138788 338.763773 
L 475.371904 337.612415 
L 476.386957 337.148715 
L 478.417063 336.679965 
L 480.65018 336.345843 
L 481.259211 336.382494 
L 489.785656 337.747406 
L 490.597699 338.504102 
L 491.612752 339.15399 
L 492.627805 339.543239 
L 493.845868 339.744093 
L 495.063932 339.703844 
L 496.485006 339.398692 
L 498.109091 338.777713 
L 498.109091 338.777713 
" style="fill:none;stroke:#00bfbf;stroke-linecap:square;stroke-width:1.5;"/>
   </g>
   <g id="line2d_33">
    <path clip-path="url(#p541445c466)" d="M 92.290909 66.96 
L 92.49392 369.36 
L 92.899941 361.232304 
L 93.102951 360.037824 
L 93.508973 359.286542 
L 94.118004 359.063673 
L 97.772195 358.485877 
L 98.178216 360.876259 
L 98.584238 362.148214 
L 98.990259 362.789755 
L 99.39628 363.086924 
L 100.005312 363.209577 
L 101.020365 363.082992 
L 110.561863 361.146362 
L 115.840138 360.454774 
L 117.870244 360.241642 
L 118.073255 359.967607 
L 118.479276 361.261335 
L 119.088308 363.884352 
L 119.291318 365.567723 
L 120.103361 366.353116 
L 120.915403 366.499992 
L 122.742499 366.464278 
L 124.366583 366.447525 
L 124.975615 366.747808 
L 125.990668 366.847298 
L 130.862922 366.888303 
L 131.471954 367.423854 
L 132.080986 367.678354 
L 133.096039 367.816248 
L 135.126145 367.778085 
L 148.524844 367.243019 
L 162.126554 366.988247 
L 172.480095 366.891539 
L 172.683105 366.440116 
L 174.916222 355.517065 
L 175.931275 351.813966 
L 176.540307 350.317418 
L 176.946328 349.733817 
L 177.352349 349.671583 
L 185.878794 349.932947 
L 191.157069 350.404026 
L 198.668462 351.319965 
L 204.758779 352.141284 
L 205.164801 352.009467 
L 205.773832 352.107415 
L 206.788885 352.519344 
L 207.803938 353.173526 
L 208.818991 354.090977 
L 210.037055 355.520059 
L 211.66114 357.839346 
L 215.11232 362.94906 
L 216.330383 364.383252 
L 217.142426 364.992013 
L 217.751458 365.160269 
L 218.157479 365.100061 
L 218.766511 364.641169 
L 220.999627 362.824168 
L 223.232744 361.314557 
L 225.668871 359.959019 
L 228.104998 358.853324 
L 230.744136 357.887398 
L 233.789295 357.018088 
L 237.037464 356.32529 
L 239.676602 355.959991 
L 240.894666 356.154857 
L 242.112729 356.589618 
L 243.330793 357.251511 
L 244.954877 358.408886 
L 250.030142 362.2914 
L 251.045195 362.730757 
L 251.857238 362.818907 
L 252.466269 362.679258 
L 257.744545 359.665116 
L 260.383683 358.576144 
L 263.225831 357.649832 
L 266.067979 356.927489 
L 267.489054 356.912218 
L 268.707117 357.117003 
L 270.128191 357.606528 
L 271.752276 358.437947 
L 274.391414 360.114543 
L 276.62453 361.443894 
L 278.045605 362.076303 
L 278.857647 362.238208 
L 279.669689 362.175883 
L 280.278721 361.917815 
L 283.729901 359.991708 
L 286.369039 358.845371 
L 289.211187 357.869042 
L 291.647315 357.221089 
L 293.068389 357.170468 
L 294.286452 357.334036 
L 295.707526 357.761267 
L 297.331611 358.507439 
L 299.767738 359.91753 
L 302.203866 361.273612 
L 303.62494 361.880015 
L 304.639993 362.070708 
L 305.452035 361.990784 
L 306.061067 361.7332 
L 309.512247 359.855628 
L 312.151385 358.738896 
L 315.602565 357.548226 
L 317.023639 357.28919 
L 318.444713 357.263002 
L 319.865787 357.493975 
L 321.286862 357.96711 
L 323.113957 358.849967 
L 328.595243 361.7508 
L 329.610296 361.998163 
L 330.422338 361.989121 
L 331.03137 361.826006 
L 336.512656 359.050398 
L 339.151794 358.097203 
L 341.790932 357.352966 
L 343.212006 357.27277 
L 344.63308 357.446105 
L 346.054154 357.866351 
L 347.678239 358.59329 
L 350.317377 360.074506 
L 352.753504 361.356016 
L 354.174578 361.887908 
L 355.189631 362.000884 
L 356.001674 361.847779 
L 356.813716 361.407092 
L 359.249843 360.082277 
L 361.888981 358.921001 
L 364.731129 357.931639 
L 366.558225 357.400806 
L 367.979299 357.277487 
L 369.400373 357.40389 
L 370.821447 357.780892 
L 372.445532 358.46985 
L 374.678648 359.691939 
L 377.723807 361.327923 
L 379.144882 361.869794 
L 380.159935 361.997407 
L 380.971977 361.86054 
L 381.581009 361.556356 
L 384.017136 360.205415 
L 386.453263 359.101655 
L 389.092401 358.138329 
L 391.731538 357.377128 
L 393.152613 357.281479 
L 394.573687 357.43788 
L 395.994761 357.842128 
L 397.618846 358.55419 
L 400.054973 359.906341 
L 402.694111 361.30984 
L 404.115185 361.859149 
L 405.130238 361.996983 
L 405.94228 361.871215 
L 406.551312 361.577585 
L 409.19045 360.123101 
L 411.626577 359.034673 
L 414.468725 358.020575 
L 416.904852 357.354357 
L 418.325927 357.286952 
L 419.747001 357.473352 
L 421.168075 357.904362 
L 422.79216 358.638862 
L 425.634308 360.235655 
L 427.867425 361.387164 
L 429.085488 361.848959 
L 430.100541 361.997014 
L 430.912584 361.882192 
L 431.521615 361.599055 
L 434.363764 360.041998 
L 437.002901 358.888856 
L 440.454082 357.662382 
L 441.875156 357.359498 
L 443.29623 357.285652 
L 444.717304 357.465217 
L 446.138378 357.890119 
L 447.762463 358.619508 
L 450.604611 360.213942 
L 452.837728 361.369534 
L 454.055792 361.838012 
L 455.070845 361.996106 
L 455.882887 361.892141 
L 456.491919 361.619407 
L 459.537078 359.961136 
L 462.176215 358.824203 
L 465.627396 357.613302 
L 467.04847 357.338723 
L 468.469544 357.293847 
L 469.890618 357.503622 
L 471.311692 357.955196 
L 472.935777 358.706508 
L 479.026095 361.82773 
L 480.041148 361.994988 
L 480.85319 361.900971 
L 481.462222 361.637853 
L 484.710392 359.87976 
L 487.349529 358.759187 
L 490.800709 357.568456 
L 492.221784 357.32076 
L 493.642858 357.305882 
L 495.063932 357.546381 
L 496.485006 358.024536 
L 498.109091 358.797047 
L 498.109091 358.797047 
" style="fill:none;stroke:#ff0000;stroke-linecap:square;stroke-width:1.5;"/>
   </g>
   <g id="line2d_34">
    <path clip-path="url(#p541445c466)" d="M 92.290909 66.96 
L 92.49392 369.36 
L 92.899941 361.232304 
L 93.102951 360.037824 
L 93.508973 359.286542 
L 94.118004 359.063673 
L 97.569185 358.519716 
L 97.975206 363.463956 
L 98.381227 366.209808 
L 98.787248 367.595738 
L 99.193269 368.239668 
L 99.599291 368.479562 
L 100.208322 368.462809 
L 101.223375 368.056686 
L 106.704661 365.450996 
L 109.952831 364.243059 
L 113.404011 363.192189 
L 117.261212 362.24607 
L 118.073255 362.072886 
L 118.682287 362.722955 
L 118.885297 363.013622 
L 119.088308 363.884352 
L 119.291318 365.567723 
L 120.103361 366.353116 
L 120.915403 366.499992 
L 122.742499 366.464278 
L 124.366583 366.447525 
L 124.975615 366.747808 
L 125.990668 366.847298 
L 130.456901 366.821806 
L 131.065933 368.011054 
L 131.674965 368.578961 
L 132.283997 368.819823 
L 133.29905 368.906219 
L 135.329155 368.747519 
L 143.449579 368.000954 
L 151.366993 367.535832 
L 161.314512 367.183899 
L 172.480095 366.96726 
L 172.683105 366.514446 
L 175.322243 353.892119 
L 176.134285 351.241583 
L 176.743317 349.979577 
L 176.946328 349.733817 
L 177.352349 349.671583 
L 185.878794 349.932947 
L 191.157069 350.404026 
L 198.668462 351.319965 
L 204.758779 352.141284 
L 205.164801 352.009467 
L 205.773832 352.107415 
L 206.788885 352.519344 
L 207.803938 353.173526 
L 208.818991 354.090977 
L 210.037055 355.520059 
L 211.66114 357.839346 
L 215.11232 362.94906 
L 216.330383 364.383252 
L 217.142426 364.992013 
L 217.751458 365.160269 
L 218.157479 365.100061 
L 218.766511 364.641169 
L 220.999627 362.824168 
L 223.232744 361.314557 
L 225.668871 359.959019 
L 228.104998 358.853324 
L 230.744136 357.887398 
L 233.789295 357.018088 
L 237.037464 356.32529 
L 239.676602 355.959991 
L 240.894666 356.154857 
L 242.112729 356.589618 
L 243.330793 357.251511 
L 244.954877 358.408886 
L 250.030142 362.2914 
L 251.045195 362.730757 
L 251.857238 362.818907 
L 252.466269 362.679258 
L 257.744545 359.665116 
L 260.383683 358.576144 
L 263.225831 357.649832 
L 266.067979 356.927489 
L 267.489054 356.912218 
L 268.707117 357.117003 
L 270.128191 357.606528 
L 271.752276 358.437947 
L 274.391414 360.114543 
L 276.62453 361.443894 
L 278.045605 362.076303 
L 278.857647 362.238208 
L 279.669689 362.175883 
L 280.278721 361.917815 
L 283.729901 359.991708 
L 286.369039 358.845371 
L 289.211187 357.869042 
L 291.647315 357.221089 
L 293.068389 357.170468 
L 294.286452 357.334036 
L 295.707526 357.761267 
L 297.331611 358.507439 
L 299.767738 359.91753 
L 302.203866 361.273612 
L 303.62494 361.880015 
L 304.639993 362.070708 
L 305.452035 361.990784 
L 306.061067 361.7332 
L 309.512247 359.855628 
L 312.151385 358.738896 
L 315.602565 357.548226 
L 317.023639 357.28919 
L 318.444713 357.263002 
L 319.865787 357.493975 
L 321.286862 357.96711 
L 323.113957 358.849967 
L 328.595243 361.7508 
L 329.610296 361.998163 
L 330.422338 361.989121 
L 331.03137 361.826006 
L 336.512656 359.050398 
L 339.151794 358.097203 
L 341.790932 357.352966 
L 343.212006 357.27277 
L 344.63308 357.446105 
L 346.054154 357.866351 
L 347.678239 358.59329 
L 350.317377 360.074506 
L 352.753504 361.356016 
L 354.174578 361.887908 
L 355.189631 362.000884 
L 356.001674 361.847779 
L 356.813716 361.407092 
L 359.249843 360.082277 
L 361.888981 358.921001 
L 364.731129 357.931639 
L 366.558225 357.400806 
L 367.979299 357.277487 
L 369.400373 357.40389 
L 370.821447 357.780892 
L 372.445532 358.46985 
L 374.678648 359.691939 
L 377.723807 361.327923 
L 379.144882 361.869794 
L 380.159935 361.997407 
L 380.971977 361.86054 
L 381.581009 361.556356 
L 384.017136 360.205415 
L 386.453263 359.101655 
L 389.092401 358.138329 
L 391.731538 357.377128 
L 393.152613 357.281479 
L 394.573687 357.43788 
L 395.994761 357.842128 
L 397.618846 358.55419 
L 400.054973 359.906341 
L 402.694111 361.30984 
L 404.115185 361.859149 
L 405.130238 361.996983 
L 405.94228 361.871215 
L 406.551312 361.577585 
L 409.19045 360.123101 
L 411.626577 359.034673 
L 414.468725 358.020575 
L 416.904852 357.354357 
L 418.325927 357.286952 
L 419.747001 357.473352 
L 421.168075 357.904362 
L 422.79216 358.638862 
L 425.634308 360.235655 
L 427.867425 361.387164 
L 429.085488 361.848959 
L 430.100541 361.997014 
L 430.912584 361.882192 
L 431.521615 361.599055 
L 434.363764 360.041998 
L 437.002901 358.888856 
L 440.454082 357.662382 
L 441.875156 357.359498 
L 443.29623 357.285652 
L 444.717304 357.465217 
L 446.138378 357.890119 
L 447.762463 358.619508 
L 450.604611 360.213942 
L 452.837728 361.369534 
L 454.055792 361.838012 
L 455.070845 361.996106 
L 455.882887 361.892141 
L 456.491919 361.619407 
L 459.537078 359.961136 
L 462.176215 358.824203 
L 465.627396 357.613302 
L 467.04847 357.338723 
L 468.469544 357.293847 
L 469.890618 357.503622 
L 471.311692 357.955196 
L 472.935777 358.706508 
L 479.026095 361.82773 
L 480.041148 361.994988 
L 480.85319 361.900971 
L 481.462222 361.637853 
L 484.710392 359.87976 
L 487.349529 358.759187 
L 490.800709 357.568456 
L 492.221784 357.32076 
L 493.642858 357.305882 
L 495.063932 357.546381 
L 496.485006 358.024536 
L 498.109091 358.797047 
L 498.109091 358.797047 
" style="fill:none;stroke:#008000;stroke-linecap:square;stroke-width:1.5;"/>
   </g>
   <g id="patch_3">
    <path d="M 72 384.48 
L 72 51.84 
" style="fill:none;stroke:#000000;stroke-linecap:square;stroke-linejoin:miter;stroke-width:0.8;"/>
   </g>
   <g id="patch_4">
    <path d="M 518.4 384.48 
L 518.4 51.84 
" style="fill:none;stroke:#000000;stroke-linecap:square;stroke-linejoin:miter;stroke-width:0.8;"/>
   </g>
   <g id="patch_5">
    <path d="M 72 384.48 
L 518.4 384.48 
" style="fill:none;stroke:#000000;stroke-linecap:square;stroke-linejoin:miter;stroke-width:0.8;"/>
   </g>
   <g id="patch_6">
    <path d="M 72 51.84 
L 518.4 51.84 
" style="fill:none;stroke:#000000;stroke-linecap:square;stroke-linejoin:miter;stroke-width:0.8;"/>
   </g>
   <g id="legend_1">
    <g id="patch_7">
     <path d="M 270.55625 119.665 
L 511.4 119.665 
Q 513.4 119.665 513.4 117.665 
L 513.4 58.84 
Q 513.4 56.84 511.4 56.84 
L 270.55625 56.84 
Q 268.55625 56.84 268.55625 58.84 
L 268.55625 117.665 
Q 268.55625 119.665 270.55625 119.665 
z
" style="fill:#ffffff;opacity:0.8;stroke:#cccccc;stroke-linejoin:miter;"/>
    </g>
    <g id="line2d_35">
     <path d="M 272.55625 64.938437 
L 292.55625 64.938437 
" style="fill:none;stroke:#bf00bf;stroke-linecap:square;stroke-width:1.5;"/>
    </g>
    <g id="line2d_36"/>
    <g id="text_18">
     <text style="font-family:DejaVu Sans;font-size:10px;font-style:normal;font-weight:400;text-anchor:start;" transform="rotate(-0, 300.55625, 68.438437)" x="300.55625" y="68.438437">$\partial \mathcal{L}/ \partial \mu_{12}$</text>
    </g>
    <g id="line2d_37">
     <path d="M 272.55625 79.894687 
L 292.55625 79.894687 
" style="fill:none;stroke:#00bfbf;stroke-linecap:square;stroke-width:1.5;"/>
    </g>
    <g id="line2d_38"/>
    <g id="text_19">
     <text style="font-family:DejaVu Sans;font-size:10px;font-style:normal;font-weight:400;text-anchor:start;" transform="rotate(-0, 300.55625, 83.394687)" x="300.55625" y="83.394687">$\partial \mathcal{L}/ \partial \mu_{21}$</text>
    </g>
    <g id="line2d_39">
     <path d="M 272.55625 94.850937 
L 292.55625 94.850937 
" style="fill:none;stroke:#ff0000;stroke-linecap:square;stroke-width:1.5;"/>
    </g>
    <g id="line2d_40"/>
    <g id="text_20">
     <text style="font-family:DejaVu Sans;font-size:10px;font-style:normal;font-weight:400;text-anchor:start;" transform="rotate(-0, 300.55625, 98.350937)" x="300.55625" y="98.350937">$\partial \mathcal{L}/ \partial \mu_{23}$</text>
    </g>
    <g id="line2d_41">
     <path d="M 272.55625 109.807187 
L 292.55625 109.807187 
" style="fill:none;stroke:#008000;stroke-linecap:square;stroke-width:1.5;"/>
    </g>
    <g id="line2d_42"/>
    <g id="text_21">
     <text style="font-family:DejaVu Sans;font-size:10px;font-style:normal;font-weight:400;text-anchor:start;" transform="rotate(-0, 300.55625, 113.307187)" x="300.55625" y="113.307187">$\partial \mathcal{L}/ \partial \mu_{32}$</text>
    </g>
   </g>
  </g>
 </g>
 <defs>
  <clipPath id="p541445c466">
   <rect height="332.64" width="446.4" x="72" y="51.84"/>
  </clipPath>
 </defs>
</svg>
