<?xml version="1.0" encoding="utf-8" standalone="no"?>
<!DOCTYPE svg PUBLIC "-//W3C//DTD SVG 1.1//EN"
  "http://www.w3.org/Graphics/SVG/1.1/DTD/svg11.dtd">
<!-- Created with matplotlib (http://matplotlib.org/) -->
<svg height="432pt" version="1.1" viewBox="0 0 576 432" width="576pt" xmlns="http://www.w3.org/2000/svg" xmlns:xlink="http://www.w3.org/1999/xlink">
 <defs>
  <style type="text/css">
*{stroke-linecap:butt;stroke-linejoin:round;}
  </style>
 </defs>
 <g id="figure_1">
  <g id="patch_1">
   <path d="M 0 432 
L 576 432 
L 576 0 
L 0 0 
z
" style="fill:#ffffff;"/>
  </g>
  <g id="axes_1">
   <g id="patch_2">
    <path d="M 72 384.48 
L 518.4 384.48 
L 518.4 51.84 
L 72 51.84 
z
" style="fill:#ffffff;"/>
   </g>
   <g id="matplotlib.axis_1">
    <g id="xtick_1">
     <g id="line2d_1">
      <path clip-path="url(#pff79e5f48d)" d="M 92.290909 384.48 
L 92.290909 51.84 
" style="fill:none;stroke:#b0b0b0;stroke-dasharray:5.12,1.28,0.8,1.28;stroke-dashoffset:0;stroke-width:0.8;"/>
     </g>
     <g id="line2d_2">
      <defs>
       <path d="M 0 0 
L 0 3.5 
" id="m5869e93a79" style="stroke:#000000;stroke-width:0.8;"/>
      </defs>
      <g>
       <use style="stroke:#000000;stroke-width:0.8;" x="92.290909" xlink:href="#m5869e93a79" y="384.48"/>
      </g>
     </g>
     <g id="text_1">
      <!-- 0 -->
      <defs>
       <path d="M 31.78125 66.40625 
Q 24.171875 66.40625 20.328125 58.90625 
Q 16.5 51.421875 16.5 36.375 
Q 16.5 21.390625 20.328125 13.890625 
Q 24.171875 6.390625 31.78125 6.390625 
Q 39.453125 6.390625 43.28125 13.890625 
Q 47.125 21.390625 47.125 36.375 
Q 47.125 51.421875 43.28125 58.90625 
Q 39.453125 66.40625 31.78125 66.40625 
z
M 31.78125 74.21875 
Q 44.046875 74.21875 50.515625 64.515625 
Q 56.984375 54.828125 56.984375 36.375 
Q 56.984375 17.96875 50.515625 8.265625 
Q 44.046875 -1.421875 31.78125 -1.421875 
Q 19.53125 -1.421875 13.0625 8.265625 
Q 6.59375 17.96875 6.59375 36.375 
Q 6.59375 54.828125 13.0625 64.515625 
Q 19.53125 74.21875 31.78125 74.21875 
z
" id="DejaVuSans-30"/>
      </defs>
      <g transform="translate(89.109659 399.078438)scale(0.1 -0.1)">
       <use xlink:href="#DejaVuSans-30"/>
      </g>
     </g>
    </g>
    <g id="xtick_2">
     <g id="line2d_3">
      <path clip-path="url(#pff79e5f48d)" d="M 160.449824 384.48 
L 160.449824 51.84 
" style="fill:none;stroke:#b0b0b0;stroke-dasharray:5.12,1.28,0.8,1.28;stroke-dashoffset:0;stroke-width:0.8;"/>
     </g>
     <g id="line2d_4">
      <g>
       <use style="stroke:#000000;stroke-width:0.8;" x="160.449824" xlink:href="#m5869e93a79" y="384.48"/>
      </g>
     </g>
     <g id="text_2">
      <!-- 500 -->
      <defs>
       <path d="M 10.796875 72.90625 
L 49.515625 72.90625 
L 49.515625 64.59375 
L 19.828125 64.59375 
L 19.828125 46.734375 
Q 21.96875 47.46875 24.109375 47.828125 
Q 26.265625 48.1875 28.421875 48.1875 
Q 40.625 48.1875 47.75 41.5 
Q 54.890625 34.8125 54.890625 23.390625 
Q 54.890625 11.625 47.5625 5.09375 
Q 40.234375 -1.421875 26.90625 -1.421875 
Q 22.3125 -1.421875 17.546875 -0.640625 
Q 12.796875 0.140625 7.71875 1.703125 
L 7.71875 11.625 
Q 12.109375 9.234375 16.796875 8.0625 
Q 21.484375 6.890625 26.703125 6.890625 
Q 35.15625 6.890625 40.078125 11.328125 
Q 45.015625 15.765625 45.015625 23.390625 
Q 45.015625 31 40.078125 35.4375 
Q 35.15625 39.890625 26.703125 39.890625 
Q 22.75 39.890625 18.8125 39.015625 
Q 14.890625 38.140625 10.796875 36.28125 
z
" id="DejaVuSans-35"/>
      </defs>
      <g transform="translate(150.906074 399.078438)scale(0.1 -0.1)">
       <use xlink:href="#DejaVuSans-35"/>
       <use x="63.623047" xlink:href="#DejaVuSans-30"/>
       <use x="127.246094" xlink:href="#DejaVuSans-30"/>
      </g>
     </g>
    </g>
    <g id="xtick_3">
     <g id="line2d_5">
      <path clip-path="url(#pff79e5f48d)" d="M 228.60874 384.48 
L 228.60874 51.84 
" style="fill:none;stroke:#b0b0b0;stroke-dasharray:5.12,1.28,0.8,1.28;stroke-dashoffset:0;stroke-width:0.8;"/>
     </g>
     <g id="line2d_6">
      <g>
       <use style="stroke:#000000;stroke-width:0.8;" x="228.60874" xlink:href="#m5869e93a79" y="384.48"/>
      </g>
     </g>
     <g id="text_3">
      <!-- 1000 -->
      <defs>
       <path d="M 12.40625 8.296875 
L 28.515625 8.296875 
L 28.515625 63.921875 
L 10.984375 60.40625 
L 10.984375 69.390625 
L 28.421875 72.90625 
L 38.28125 72.90625 
L 38.28125 8.296875 
L 54.390625 8.296875 
L 54.390625 0 
L 12.40625 0 
z
" id="DejaVuSans-31"/>
      </defs>
      <g transform="translate(215.88374 399.078438)scale(0.1 -0.1)">
       <use xlink:href="#DejaVuSans-31"/>
       <use x="63.623047" xlink:href="#DejaVuSans-30"/>
       <use x="127.246094" xlink:href="#DejaVuSans-30"/>
       <use x="190.869141" xlink:href="#DejaVuSans-30"/>
      </g>
     </g>
    </g>
    <g id="xtick_4">
     <g id="line2d_7">
      <path clip-path="url(#pff79e5f48d)" d="M 296.767655 384.48 
L 296.767655 51.84 
" style="fill:none;stroke:#b0b0b0;stroke-dasharray:5.12,1.28,0.8,1.28;stroke-dashoffset:0;stroke-width:0.8;"/>
     </g>
     <g id="line2d_8">
      <g>
       <use style="stroke:#000000;stroke-width:0.8;" x="296.767655" xlink:href="#m5869e93a79" y="384.48"/>
      </g>
     </g>
     <g id="text_4">
      <!-- 1500 -->
      <g transform="translate(284.042655 399.078438)scale(0.1 -0.1)">
       <use xlink:href="#DejaVuSans-31"/>
       <use x="63.623047" xlink:href="#DejaVuSans-35"/>
       <use x="127.246094" xlink:href="#DejaVuSans-30"/>
       <use x="190.869141" xlink:href="#DejaVuSans-30"/>
      </g>
     </g>
    </g>
    <g id="xtick_5">
     <g id="line2d_9">
      <path clip-path="url(#pff79e5f48d)" d="M 364.92657 384.48 
L 364.92657 51.84 
" style="fill:none;stroke:#b0b0b0;stroke-dasharray:5.12,1.28,0.8,1.28;stroke-dashoffset:0;stroke-width:0.8;"/>
     </g>
     <g id="line2d_10">
      <g>
       <use style="stroke:#000000;stroke-width:0.8;" x="364.92657" xlink:href="#m5869e93a79" y="384.48"/>
      </g>
     </g>
     <g id="text_5">
      <!-- 2000 -->
      <defs>
       <path d="M 19.1875 8.296875 
L 53.609375 8.296875 
L 53.609375 0 
L 7.328125 0 
L 7.328125 8.296875 
Q 12.9375 14.109375 22.625 23.890625 
Q 32.328125 33.6875 34.8125 36.53125 
Q 39.546875 41.84375 41.421875 45.53125 
Q 43.3125 49.21875 43.3125 52.78125 
Q 43.3125 58.59375 39.234375 62.25 
Q 35.15625 65.921875 28.609375 65.921875 
Q 23.96875 65.921875 18.8125 64.3125 
Q 13.671875 62.703125 7.8125 59.421875 
L 7.8125 69.390625 
Q 13.765625 71.78125 18.9375 73 
Q 24.125 74.21875 28.421875 74.21875 
Q 39.75 74.21875 46.484375 68.546875 
Q 53.21875 62.890625 53.21875 53.421875 
Q 53.21875 48.921875 51.53125 44.890625 
Q 49.859375 40.875 45.40625 35.40625 
Q 44.1875 33.984375 37.640625 27.21875 
Q 31.109375 20.453125 19.1875 8.296875 
z
" id="DejaVuSans-32"/>
      </defs>
      <g transform="translate(352.20157 399.078438)scale(0.1 -0.1)">
       <use xlink:href="#DejaVuSans-32"/>
       <use x="63.623047" xlink:href="#DejaVuSans-30"/>
       <use x="127.246094" xlink:href="#DejaVuSans-30"/>
       <use x="190.869141" xlink:href="#DejaVuSans-30"/>
      </g>
     </g>
    </g>
    <g id="xtick_6">
     <g id="line2d_11">
      <path clip-path="url(#pff79e5f48d)" d="M 433.085486 384.48 
L 433.085486 51.84 
" style="fill:none;stroke:#b0b0b0;stroke-dasharray:5.12,1.28,0.8,1.28;stroke-dashoffset:0;stroke-width:0.8;"/>
     </g>
     <g id="line2d_12">
      <g>
       <use style="stroke:#000000;stroke-width:0.8;" x="433.085486" xlink:href="#m5869e93a79" y="384.48"/>
      </g>
     </g>
     <g id="text_6">
      <!-- 2500 -->
      <g transform="translate(420.360486 399.078438)scale(0.1 -0.1)">
       <use xlink:href="#DejaVuSans-32"/>
       <use x="63.623047" xlink:href="#DejaVuSans-35"/>
       <use x="127.246094" xlink:href="#DejaVuSans-30"/>
       <use x="190.869141" xlink:href="#DejaVuSans-30"/>
      </g>
     </g>
    </g>
    <g id="xtick_7">
     <g id="line2d_13">
      <path clip-path="url(#pff79e5f48d)" d="M 501.244401 384.48 
L 501.244401 51.84 
" style="fill:none;stroke:#b0b0b0;stroke-dasharray:5.12,1.28,0.8,1.28;stroke-dashoffset:0;stroke-width:0.8;"/>
     </g>
     <g id="line2d_14">
      <g>
       <use style="stroke:#000000;stroke-width:0.8;" x="501.244401" xlink:href="#m5869e93a79" y="384.48"/>
      </g>
     </g>
     <g id="text_7">
      <!-- 3000 -->
      <defs>
       <path d="M 40.578125 39.3125 
Q 47.65625 37.796875 51.625 33 
Q 55.609375 28.21875 55.609375 21.1875 
Q 55.609375 10.40625 48.1875 4.484375 
Q 40.765625 -1.421875 27.09375 -1.421875 
Q 22.515625 -1.421875 17.65625 -0.515625 
Q 12.796875 0.390625 7.625 2.203125 
L 7.625 11.71875 
Q 11.71875 9.328125 16.59375 8.109375 
Q 21.484375 6.890625 26.8125 6.890625 
Q 36.078125 6.890625 40.9375 10.546875 
Q 45.796875 14.203125 45.796875 21.1875 
Q 45.796875 27.640625 41.28125 31.265625 
Q 36.765625 34.90625 28.71875 34.90625 
L 20.21875 34.90625 
L 20.21875 43.015625 
L 29.109375 43.015625 
Q 36.375 43.015625 40.234375 45.921875 
Q 44.09375 48.828125 44.09375 54.296875 
Q 44.09375 59.90625 40.109375 62.90625 
Q 36.140625 65.921875 28.71875 65.921875 
Q 24.65625 65.921875 20.015625 65.03125 
Q 15.375 64.15625 9.8125 62.3125 
L 9.8125 71.09375 
Q 15.4375 72.65625 20.34375 73.4375 
Q 25.25 74.21875 29.59375 74.21875 
Q 40.828125 74.21875 47.359375 69.109375 
Q 53.90625 64.015625 53.90625 55.328125 
Q 53.90625 49.265625 50.4375 45.09375 
Q 46.96875 40.921875 40.578125 39.3125 
z
" id="DejaVuSans-33"/>
      </defs>
      <g transform="translate(488.519401 399.078438)scale(0.1 -0.1)">
       <use xlink:href="#DejaVuSans-33"/>
       <use x="63.623047" xlink:href="#DejaVuSans-30"/>
       <use x="127.246094" xlink:href="#DejaVuSans-30"/>
       <use x="190.869141" xlink:href="#DejaVuSans-30"/>
      </g>
     </g>
    </g>
    <g id="text_8">
     <!-- Iteration -->
     <defs>
      <path d="M 9.8125 72.90625 
L 19.671875 72.90625 
L 19.671875 0 
L 9.8125 0 
z
" id="DejaVuSans-49"/>
      <path d="M 18.3125 70.21875 
L 18.3125 54.6875 
L 36.8125 54.6875 
L 36.8125 47.703125 
L 18.3125 47.703125 
L 18.3125 18.015625 
Q 18.3125 11.328125 20.140625 9.421875 
Q 21.96875 7.515625 27.59375 7.515625 
L 36.8125 7.515625 
L 36.8125 0 
L 27.59375 0 
Q 17.1875 0 13.234375 3.875 
Q 9.28125 7.765625 9.28125 18.015625 
L 9.28125 47.703125 
L 2.6875 47.703125 
L 2.6875 54.6875 
L 9.28125 54.6875 
L 9.28125 70.21875 
z
" id="DejaVuSans-74"/>
      <path d="M 56.203125 29.59375 
L 56.203125 25.203125 
L 14.890625 25.203125 
Q 15.484375 15.921875 20.484375 11.0625 
Q 25.484375 6.203125 34.421875 6.203125 
Q 39.59375 6.203125 44.453125 7.46875 
Q 49.3125 8.734375 54.109375 11.28125 
L 54.109375 2.78125 
Q 49.265625 0.734375 44.1875 -0.34375 
Q 39.109375 -1.421875 33.890625 -1.421875 
Q 20.796875 -1.421875 13.15625 6.1875 
Q 5.515625 13.8125 5.515625 26.8125 
Q 5.515625 40.234375 12.765625 48.109375 
Q 20.015625 56 32.328125 56 
Q 43.359375 56 49.78125 48.890625 
Q 56.203125 41.796875 56.203125 29.59375 
z
M 47.21875 32.234375 
Q 47.125 39.59375 43.09375 43.984375 
Q 39.0625 48.390625 32.421875 48.390625 
Q 24.90625 48.390625 20.390625 44.140625 
Q 15.875 39.890625 15.1875 32.171875 
z
" id="DejaVuSans-65"/>
      <path d="M 41.109375 46.296875 
Q 39.59375 47.171875 37.8125 47.578125 
Q 36.03125 48 33.890625 48 
Q 26.265625 48 22.1875 43.046875 
Q 18.109375 38.09375 18.109375 28.8125 
L 18.109375 0 
L 9.078125 0 
L 9.078125 54.6875 
L 18.109375 54.6875 
L 18.109375 46.1875 
Q 20.953125 51.171875 25.484375 53.578125 
Q 30.03125 56 36.53125 56 
Q 37.453125 56 38.578125 55.875 
Q 39.703125 55.765625 41.0625 55.515625 
z
" id="DejaVuSans-72"/>
      <path d="M 34.28125 27.484375 
Q 23.390625 27.484375 19.1875 25 
Q 14.984375 22.515625 14.984375 16.5 
Q 14.984375 11.71875 18.140625 8.90625 
Q 21.296875 6.109375 26.703125 6.109375 
Q 34.1875 6.109375 38.703125 11.40625 
Q 43.21875 16.703125 43.21875 25.484375 
L 43.21875 27.484375 
z
M 52.203125 31.203125 
L 52.203125 0 
L 43.21875 0 
L 43.21875 8.296875 
Q 40.140625 3.328125 35.546875 0.953125 
Q 30.953125 -1.421875 24.3125 -1.421875 
Q 15.921875 -1.421875 10.953125 3.296875 
Q 6 8.015625 6 15.921875 
Q 6 25.140625 12.171875 29.828125 
Q 18.359375 34.515625 30.609375 34.515625 
L 43.21875 34.515625 
L 43.21875 35.40625 
Q 43.21875 41.609375 39.140625 45 
Q 35.0625 48.390625 27.6875 48.390625 
Q 23 48.390625 18.546875 47.265625 
Q 14.109375 46.140625 10.015625 43.890625 
L 10.015625 52.203125 
Q 14.9375 54.109375 19.578125 55.046875 
Q 24.21875 56 28.609375 56 
Q 40.484375 56 46.34375 49.84375 
Q 52.203125 43.703125 52.203125 31.203125 
z
" id="DejaVuSans-61"/>
      <path d="M 9.421875 54.6875 
L 18.40625 54.6875 
L 18.40625 0 
L 9.421875 0 
z
M 9.421875 75.984375 
L 18.40625 75.984375 
L 18.40625 64.59375 
L 9.421875 64.59375 
z
" id="DejaVuSans-69"/>
      <path d="M 30.609375 48.390625 
Q 23.390625 48.390625 19.1875 42.75 
Q 14.984375 37.109375 14.984375 27.296875 
Q 14.984375 17.484375 19.15625 11.84375 
Q 23.34375 6.203125 30.609375 6.203125 
Q 37.796875 6.203125 41.984375 11.859375 
Q 46.1875 17.53125 46.1875 27.296875 
Q 46.1875 37.015625 41.984375 42.703125 
Q 37.796875 48.390625 30.609375 48.390625 
z
M 30.609375 56 
Q 42.328125 56 49.015625 48.375 
Q 55.71875 40.765625 55.71875 27.296875 
Q 55.71875 13.875 49.015625 6.21875 
Q 42.328125 -1.421875 30.609375 -1.421875 
Q 18.84375 -1.421875 12.171875 6.21875 
Q 5.515625 13.875 5.515625 27.296875 
Q 5.515625 40.765625 12.171875 48.375 
Q 18.84375 56 30.609375 56 
z
" id="DejaVuSans-6f"/>
      <path d="M 54.890625 33.015625 
L 54.890625 0 
L 45.90625 0 
L 45.90625 32.71875 
Q 45.90625 40.484375 42.875 44.328125 
Q 39.84375 48.1875 33.796875 48.1875 
Q 26.515625 48.1875 22.3125 43.546875 
Q 18.109375 38.921875 18.109375 30.90625 
L 18.109375 0 
L 9.078125 0 
L 9.078125 54.6875 
L 18.109375 54.6875 
L 18.109375 46.1875 
Q 21.34375 51.125 25.703125 53.5625 
Q 30.078125 56 35.796875 56 
Q 45.21875 56 50.046875 50.171875 
Q 54.890625 44.34375 54.890625 33.015625 
z
" id="DejaVuSans-6e"/>
     </defs>
     <g transform="translate(265.507969 415.795938)scale(0.14 -0.14)">
      <use xlink:href="#DejaVuSans-49"/>
      <use x="29.492188" xlink:href="#DejaVuSans-74"/>
      <use x="68.701172" xlink:href="#DejaVuSans-65"/>
      <use x="130.224609" xlink:href="#DejaVuSans-72"/>
      <use x="171.337891" xlink:href="#DejaVuSans-61"/>
      <use x="232.617188" xlink:href="#DejaVuSans-74"/>
      <use x="271.826172" xlink:href="#DejaVuSans-69"/>
      <use x="299.609375" xlink:href="#DejaVuSans-6f"/>
      <use x="360.791016" xlink:href="#DejaVuSans-6e"/>
     </g>
    </g>
   </g>
   <g id="matplotlib.axis_2">
    <g id="ytick_1">
     <g id="line2d_15">
      <path clip-path="url(#pff79e5f48d)" d="M 72 359.616797 
L 518.4 359.616797 
" style="fill:none;stroke:#b0b0b0;stroke-dasharray:5.12,1.28,0.8,1.28;stroke-dashoffset:0;stroke-width:0.8;"/>
     </g>
     <g id="line2d_16">
      <defs>
       <path d="M 0 0 
L -3.5 0 
" id="m23fe40c970" style="stroke:#000000;stroke-width:0.8;"/>
      </defs>
      <g>
       <use style="stroke:#000000;stroke-width:0.8;" x="72" xlink:href="#m23fe40c970" y="359.616797"/>
      </g>
     </g>
     <g id="text_9">
      <!-- −50 -->
      <defs>
       <path d="M 10.59375 35.5 
L 73.1875 35.5 
L 73.1875 27.203125 
L 10.59375 27.203125 
z
" id="DejaVuSans-2212"/>
      </defs>
      <g transform="translate(43.895313 363.416015)scale(0.1 -0.1)">
       <use xlink:href="#DejaVuSans-2212"/>
       <use x="83.789062" xlink:href="#DejaVuSans-35"/>
       <use x="147.412109" xlink:href="#DejaVuSans-30"/>
      </g>
     </g>
    </g>
    <g id="ytick_2">
     <g id="line2d_17">
      <path clip-path="url(#pff79e5f48d)" d="M 72 304.716231 
L 518.4 304.716231 
" style="fill:none;stroke:#b0b0b0;stroke-dasharray:5.12,1.28,0.8,1.28;stroke-dashoffset:0;stroke-width:0.8;"/>
     </g>
     <g id="line2d_18">
      <g>
       <use style="stroke:#000000;stroke-width:0.8;" x="72" xlink:href="#m23fe40c970" y="304.716231"/>
      </g>
     </g>
     <g id="text_10">
      <!-- −40 -->
      <defs>
       <path d="M 37.796875 64.3125 
L 12.890625 25.390625 
L 37.796875 25.390625 
z
M 35.203125 72.90625 
L 47.609375 72.90625 
L 47.609375 25.390625 
L 58.015625 25.390625 
L 58.015625 17.1875 
L 47.609375 17.1875 
L 47.609375 0 
L 37.796875 0 
L 37.796875 17.1875 
L 4.890625 17.1875 
L 4.890625 26.703125 
z
" id="DejaVuSans-34"/>
      </defs>
      <g transform="translate(43.895313 308.51545)scale(0.1 -0.1)">
       <use xlink:href="#DejaVuSans-2212"/>
       <use x="83.789062" xlink:href="#DejaVuSans-34"/>
       <use x="147.412109" xlink:href="#DejaVuSans-30"/>
      </g>
     </g>
    </g>
    <g id="ytick_3">
     <g id="line2d_19">
      <path clip-path="url(#pff79e5f48d)" d="M 72 249.815666 
L 518.4 249.815666 
" style="fill:none;stroke:#b0b0b0;stroke-dasharray:5.12,1.28,0.8,1.28;stroke-dashoffset:0;stroke-width:0.8;"/>
     </g>
     <g id="line2d_20">
      <g>
       <use style="stroke:#000000;stroke-width:0.8;" x="72" xlink:href="#m23fe40c970" y="249.815666"/>
      </g>
     </g>
     <g id="text_11">
      <!-- −30 -->
      <g transform="translate(43.895313 253.614885)scale(0.1 -0.1)">
       <use xlink:href="#DejaVuSans-2212"/>
       <use x="83.789062" xlink:href="#DejaVuSans-33"/>
       <use x="147.412109" xlink:href="#DejaVuSans-30"/>
      </g>
     </g>
    </g>
    <g id="ytick_4">
     <g id="line2d_21">
      <path clip-path="url(#pff79e5f48d)" d="M 72 194.915101 
L 518.4 194.915101 
" style="fill:none;stroke:#b0b0b0;stroke-dasharray:5.12,1.28,0.8,1.28;stroke-dashoffset:0;stroke-width:0.8;"/>
     </g>
     <g id="line2d_22">
      <g>
       <use style="stroke:#000000;stroke-width:0.8;" x="72" xlink:href="#m23fe40c970" y="194.915101"/>
      </g>
     </g>
     <g id="text_12">
      <!-- −20 -->
      <g transform="translate(43.895313 198.714319)scale(0.1 -0.1)">
       <use xlink:href="#DejaVuSans-2212"/>
       <use x="83.789062" xlink:href="#DejaVuSans-32"/>
       <use x="147.412109" xlink:href="#DejaVuSans-30"/>
      </g>
     </g>
    </g>
    <g id="ytick_5">
     <g id="line2d_23">
      <path clip-path="url(#pff79e5f48d)" d="M 72 140.014535 
L 518.4 140.014535 
" style="fill:none;stroke:#b0b0b0;stroke-dasharray:5.12,1.28,0.8,1.28;stroke-dashoffset:0;stroke-width:0.8;"/>
     </g>
     <g id="line2d_24">
      <g>
       <use style="stroke:#000000;stroke-width:0.8;" x="72" xlink:href="#m23fe40c970" y="140.014535"/>
      </g>
     </g>
     <g id="text_13">
      <!-- −10 -->
      <g transform="translate(43.895313 143.813754)scale(0.1 -0.1)">
       <use xlink:href="#DejaVuSans-2212"/>
       <use x="83.789062" xlink:href="#DejaVuSans-31"/>
       <use x="147.412109" xlink:href="#DejaVuSans-30"/>
      </g>
     </g>
    </g>
    <g id="ytick_6">
     <g id="line2d_25">
      <path clip-path="url(#pff79e5f48d)" d="M 72 85.11397 
L 518.4 85.11397 
" style="fill:none;stroke:#b0b0b0;stroke-dasharray:5.12,1.28,0.8,1.28;stroke-dashoffset:0;stroke-width:0.8;"/>
     </g>
     <g id="line2d_26">
      <g>
       <use style="stroke:#000000;stroke-width:0.8;" x="72" xlink:href="#m23fe40c970" y="85.11397"/>
      </g>
     </g>
     <g id="text_14">
      <!-- 0 -->
      <g transform="translate(58.6375 88.913189)scale(0.1 -0.1)">
       <use xlink:href="#DejaVuSans-30"/>
      </g>
     </g>
    </g>
    <g id="text_15">
     <!-- $\partial \mathcal{L}/ \partial \mu^{U_{\mathrm{min}}}_{m}[V]$ -->
     <defs>
      <path d="M 21.34375 -1.421875 
Q 14.453125 -1.421875 9.96875 2.734375 
Q 4.640625 7.671875 4.640625 16.609375 
Q 4.640625 25.875 9.328125 33.109375 
Q 14.15625 40.53125 22.859375 40.53125 
Q 28.5625 40.53125 33.0625 36.96875 
Q 35.6875 34.859375 37.5 31.34375 
Q 38.140625 35.296875 38.140625 39.796875 
Q 38.140625 46.390625 36.578125 50.203125 
Q 33.109375 58.640625 23.921875 58.640625 
Q 20.453125 58.640625 15.09375 56.5 
L 15.09375 64.703125 
Q 20.75 66.21875 25.828125 66.21875 
Q 38.921875 66.21875 44.484375 54.203125 
Q 47.078125 48.53125 47.078125 40.09375 
Q 47.078125 34.578125 45.84375 28.171875 
Q 42.78125 12.15625 34.8125 4.546875 
Q 28.5625 -1.421875 21.34375 -1.421875 
z
M 12.984375 15.140625 
Q 12.984375 10.25 15.140625 7.625 
Q 17.4375 4.828125 20.953125 4.828125 
Q 24.078125 4.828125 26.5625 7.03125 
Q 30.078125 10.0625 32.671875 14.984375 
Q 34.8125 19.046875 35.890625 23.390625 
Q 31.546875 33.890625 24.03125 33.890625 
Q 17.578125 33.890625 14.75 25.390625 
Q 12.984375 20.125 12.984375 15.140625 
z
" id="DejaVuSans-2202"/>
      <path d="M 63.59375 14.296875 
L 65.296875 12.5 
Q 52.296875 -0.703125 37.703125 -0.703125 
Q 33.703125 -0.703125 28.90625 0.40625 
Q 21.796875 1.90625 17.90625 1.90625 
Q 15.703125 1.90625 10.5 0.953125 
Q 5.296875 0 3 0 
L 3.59375 2.40625 
Q 9.09375 2.40625 11.40625 11.703125 
L 18.40625 40.09375 
Q 20.09375 47 23.6875 52.390625 
Q 27.296875 57.796875 31.640625 60.84375 
Q 36 63.90625 40.390625 65.453125 
Q 44.796875 67 48.796875 67 
Q 53.796875 67 56.140625 63.796875 
Q 58.5 60.59375 58.5 56 
Q 58.5 52.296875 56.140625 50 
Q 53.796875 47.703125 50.40625 47.703125 
Q 48.203125 47.703125 46.796875 49.203125 
Q 45.40625 50.703125 45.40625 52.796875 
Q 45.40625 54.40625 46.203125 55.5 
Q 47 56.59375 47.890625 56.9375 
Q 48.796875 57.296875 49.59375 57.890625 
Q 50.40625 58.5 50.40625 59.203125 
Q 50.40625 63 44.59375 63 
Q 39.40625 63 36.09375 59.140625 
Q 32.796875 55.296875 31.09375 48.9375 
Q 29.40625 42.59375 28.046875 35.6875 
Q 26.703125 28.796875 24.203125 21.296875 
Q 21.703125 13.796875 18.09375 9.203125 
L 18.09375 8.796875 
Q 21.296875 11 29.5 11 
Q 34.796875 11 38.4375 8.5 
Q 42.09375 6 46.296875 6 
Q 54.796875 6 63.59375 14.296875 
z
" id="STIXNonUnicode-Italic-e238"/>
      <path d="M 25.390625 72.90625 
L 33.6875 72.90625 
L 8.296875 -9.28125 
L 0 -9.28125 
z
" id="DejaVuSans-2f"/>
      <path d="M -1.3125 -20.796875 
L 13.375 54.6875 
L 22.40625 54.6875 
L 15.765625 20.65625 
Q 15.578125 19.625 15.421875 18.359375 
Q 15.28125 17.09375 15.28125 15.828125 
Q 15.28125 11.28125 18.140625 8.828125 
Q 21 6.390625 26.3125 6.390625 
Q 33.546875 6.390625 37.984375 10.484375 
Q 42.4375 14.59375 44 22.796875 
L 50.203125 54.6875 
L 59.1875 54.6875 
L 51.03125 12.640625 
Q 50.828125 11.71875 50.75 11.03125 
Q 50.6875 10.359375 50.6875 9.8125 
Q 50.6875 8.296875 51.296875 7.59375 
Q 51.90625 6.890625 53.21875 6.890625 
Q 53.71875 6.890625 54.5625 7.125 
Q 55.421875 7.375 56.984375 8.015625 
L 55.609375 0.78125 
Q 53.46875 -0.296875 51.515625 -0.859375 
Q 49.5625 -1.421875 47.703125 -1.421875 
Q 44.484375 -1.421875 42.65625 0.625 
Q 40.828125 2.6875 40.828125 6.296875 
Q 38.09375 2.390625 34.296875 0.484375 
Q 30.515625 -1.421875 25.390625 -1.421875 
Q 20.84375 -1.421875 17.453125 0.671875 
Q 14.0625 2.78125 12.984375 6.203125 
L 7.71875 -20.796875 
z
" id="DejaVuSans-Oblique-3bc"/>
      <path d="M 15.484375 72.90625 
L 25.390625 72.90625 
L 16.796875 28.609375 
Q 16.265625 25.640625 16.046875 23.703125 
Q 15.828125 21.78125 15.828125 20.3125 
Q 15.828125 13.578125 19.578125 10.078125 
Q 23.34375 6.59375 30.609375 6.59375 
Q 40.046875 6.59375 45.28125 11.765625 
Q 50.53125 16.9375 52.78125 28.609375 
L 61.375 72.90625 
L 71.296875 72.90625 
L 62.5 27.390625 
Q 59.625 12.640625 51.5625 5.609375 
Q 43.5 -1.421875 29.5 -1.421875 
Q 18.5625 -1.421875 12.1875 4.078125 
Q 5.8125 9.578125 5.8125 19 
Q 5.8125 20.703125 6.046875 22.828125 
Q 6.296875 24.953125 6.78125 27.390625 
z
" id="DejaVuSans-Oblique-55"/>
      <path d="M 52 44.1875 
Q 55.375 50.25 60.0625 53.125 
Q 64.75 56 71.09375 56 
Q 79.640625 56 84.28125 50.015625 
Q 88.921875 44.046875 88.921875 33.015625 
L 88.921875 0 
L 79.890625 0 
L 79.890625 32.71875 
Q 79.890625 40.578125 77.09375 44.375 
Q 74.3125 48.1875 68.609375 48.1875 
Q 61.625 48.1875 57.5625 43.546875 
Q 53.515625 38.921875 53.515625 30.90625 
L 53.515625 0 
L 44.484375 0 
L 44.484375 32.71875 
Q 44.484375 40.625 41.703125 44.40625 
Q 38.921875 48.1875 33.109375 48.1875 
Q 26.21875 48.1875 22.15625 43.53125 
Q 18.109375 38.875 18.109375 30.90625 
L 18.109375 0 
L 9.078125 0 
L 9.078125 54.6875 
L 18.109375 54.6875 
L 18.109375 46.1875 
Q 21.1875 51.21875 25.484375 53.609375 
Q 29.78125 56 35.6875 56 
Q 41.65625 56 45.828125 52.96875 
Q 50 49.953125 52 44.1875 
z
" id="DejaVuSans-6d"/>
      <path d="M 89.796875 33.015625 
L 83.40625 0 
L 74.421875 0 
L 80.71875 32.71875 
Q 81.109375 34.8125 81.296875 36.328125 
Q 81.5 37.84375 81.5 38.921875 
Q 81.5 43.3125 79.046875 45.75 
Q 76.609375 48.1875 72.21875 48.1875 
Q 65.671875 48.1875 60.546875 43.28125 
Q 55.421875 38.375 53.90625 30.515625 
L 47.90625 0 
L 38.921875 0 
L 45.3125 32.71875 
Q 45.703125 34.515625 45.890625 36.046875 
Q 46.09375 37.59375 46.09375 38.8125 
Q 46.09375 43.265625 43.65625 45.71875 
Q 41.21875 48.1875 36.921875 48.1875 
Q 30.28125 48.1875 25.140625 43.28125 
Q 20.015625 38.375 18.5 30.515625 
L 12.5 0 
L 3.515625 0 
L 14.203125 54.6875 
L 23.1875 54.6875 
L 21.484375 46.1875 
Q 25.140625 50.984375 30.046875 53.484375 
Q 34.96875 56 40.578125 56 
Q 46.53125 56 50.359375 52.875 
Q 54.203125 49.75 54.984375 44.1875 
Q 59.078125 49.953125 64.46875 52.96875 
Q 69.875 56 75.875 56 
Q 82.90625 56 86.734375 51.953125 
Q 90.578125 47.90625 90.578125 40.484375 
Q 90.578125 38.875 90.375 36.9375 
Q 90.1875 35.015625 89.796875 33.015625 
z
" id="DejaVuSans-Oblique-6d"/>
      <path d="M 8.59375 75.984375 
L 29.296875 75.984375 
L 29.296875 69 
L 17.578125 69 
L 17.578125 -6.203125 
L 29.296875 -6.203125 
L 29.296875 -13.1875 
L 8.59375 -13.1875 
z
" id="DejaVuSans-5b"/>
      <path d="M 20.609375 0 
L 7.8125 72.90625 
L 17.484375 72.90625 
L 28.078125 10.203125 
L 63.484375 72.90625 
L 74.21875 72.90625 
L 32.078125 0 
z
" id="DejaVuSans-Oblique-56"/>
      <path d="M 30.421875 75.984375 
L 30.421875 -13.1875 
L 9.71875 -13.1875 
L 9.71875 -6.203125 
L 21.390625 -6.203125 
L 21.390625 69 
L 9.71875 69 
L 9.71875 75.984375 
z
" id="DejaVuSans-5d"/>
     </defs>
     <g transform="translate(35.975313 258.06)rotate(-90)scale(0.14 -0.14)">
      <use transform="translate(0 0.684375)" xlink:href="#DejaVuSans-2202"/>
      <use transform="translate(51.708984 0.684375)" xlink:href="#STIXNonUnicode-Italic-e238"/>
      <use transform="translate(121.008972 0.684375)" xlink:href="#DejaVuSans-2f"/>
      <use transform="translate(154.700378 0.684375)" xlink:href="#DejaVuSans-2202"/>
      <use transform="translate(206.409363 0.684375)" xlink:href="#DejaVuSans-Oblique-3bc"/>
      <use transform="translate(274.498556 38.965625)scale(0.7)" xlink:href="#DejaVuSans-Oblique-55"/>
      <use transform="translate(325.733907 27.48125)scale(0.49)" xlink:href="#DejaVuSans-6d"/>
      <use transform="translate(373.465841 27.48125)scale(0.49)" xlink:href="#DejaVuSans-69"/>
      <use transform="translate(387.07961 27.48125)scale(0.49)" xlink:href="#DejaVuSans-6e"/>
      <use transform="translate(270.03241 -26.659375)scale(0.7)" xlink:href="#DejaVuSans-Oblique-6d"/>
      <use transform="translate(422.783712 0.684375)" xlink:href="#DejaVuSans-5b"/>
      <use transform="translate(461.797384 0.684375)" xlink:href="#DejaVuSans-Oblique-56"/>
      <use transform="translate(530.205587 0.684375)" xlink:href="#DejaVuSans-5d"/>
     </g>
    </g>
   </g>
   <g id="line2d_27">
    <path clip-path="url(#pff79e5f48d)" d="M 92.290909 85.11397 
L 92.427227 222.365383 
L 94.063041 222.457616 
L 94.608312 222.813372 
L 95.017266 223.305281 
L 95.426219 224.140319 
L 95.835173 225.519421 
L 96.244126 227.670425 
L 96.789398 232.137135 
L 97.334669 238.910767 
L 97.87994 248.468406 
L 98.561529 264.958889 
L 99.243118 287.100836 
L 100.061025 321.764504 
L 100.606297 346.207883 
L 101.01525 354.092702 
L 101.424204 357.245641 
L 101.833157 358.545138 
L 102.242111 359.130927 
L 102.787382 359.472957 
L 103.468971 359.603072 
L 105.786374 359.617895 
L 118.736568 359.546524 
L 119.009204 359.261041 
L 119.690793 357.98076 
L 121.735561 353.890668 
L 121.871878 353.707849 
L 122.008196 354.200307 
L 122.41715 357.565712 
L 122.689785 358.497374 
L 123.098739 359.059007 
L 123.371374 359.141358 
L 123.64401 358.751015 
L 124.870871 356.381506 
L 125.55246 358.843797 
L 125.961413 359.258845 
L 126.370367 359.372489 
L 126.643002 359.048027 
L 127.188274 358.103737 
L 127.324592 358.159187 
L 127.869863 359.166063 
L 128.278816 359.4219 
L 129.096723 359.562445 
L 132.504669 359.617346 
L 141.637964 359.57617 
L 141.910599 359.37743 
L 142.319553 358.707094 
L 142.728506 358.071895 
L 143.001142 358.059817 
L 143.273778 358.460591 
L 143.682731 359.14026 
L 144.091685 359.362607 
L 144.36432 359.13477 
L 145.04591 358.148756 
L 145.182227 358.254714 
L 145.727499 359.183631 
L 146.136452 359.423547 
L 146.409088 359.428488 
L 146.681724 359.12379 
L 147.226995 358.323888 
L 147.363313 358.365613 
L 148.044902 359.306608 
L 148.590173 359.495466 
L 148.862809 359.370293 
L 149.544398 358.69831 
L 149.680716 358.773524 
L 150.089669 359.273668 
L 150.634941 359.503702 
L 151.180212 359.497113 
L 151.861801 359.178141 
L 153.224979 359.584954 
L 156.360289 359.616797 
L 166.720445 359.51029 
L 167.265716 359.049674 
L 167.674669 358.79768 
L 167.947305 358.874541 
L 168.765212 359.466918 
L 169.037848 359.463624 
L 169.446801 359.154534 
L 169.855755 358.870698 
L 170.12839 359.023871 
L 170.537344 359.378528 
L 171.082615 359.533897 
L 171.355251 359.478447 
L 172.173158 358.961284 
L 173.2637 359.539936 
L 173.672654 359.503152 
L 174.490561 359.160573 
L 175.17215 359.508643 
L 175.990057 359.558053 
L 176.807964 359.398841 
L 177.489553 359.569033 
L 179.261685 359.615699 
L 191.53029 359.562994 
L 192.75715 359.224807 
L 193.711375 359.54872 
L 194.120329 359.450448 
L 194.6656 359.227552 
L 194.938236 359.298373 
L 195.483507 359.52127 
L 196.165096 359.546524 
L 197.119321 359.313746 
L 197.664592 359.52676 
L 198.482499 359.558053 
L 199.300406 359.375234 
L 200.118313 359.572876 
L 201.072538 359.54323 
L 201.754127 359.528407 
L 202.84467 359.606915 
L 210.34215 359.616797 
L 216.612771 359.532799 
L 217.158042 359.402135 
L 218.657538 359.575072 
L 219.748081 359.44935 
L 220.702306 359.593738 
L 220.838623 359.592091 
L 221.929166 359.457036 
L 222.33812 359.553112 
L 223.428662 359.56519 
L 224.246569 359.513584 
L 225.200794 359.602523 
L 231.335096 359.616797 
L 241.831569 359.514133 
L 242.649476 359.547622 
L 243.603701 359.583856 
L 244.694244 359.552563 
L 245.784786 359.595934 
L 247.011647 359.571229 
L 248.238507 359.588797 
L 249.32905 359.58715 
L 250.964864 359.582758 
L 255.735988 359.616797 
L 497.972773 359.616797 
L 497.972773 359.616797 
" style="fill:none;stroke:#bf00bf;stroke-linecap:square;stroke-width:1.5;"/>
   </g>
   <g id="line2d_28">
    <path clip-path="url(#pff79e5f48d)" d="M 92.290909 85.11397 
L 92.427227 222.365383 
L 93.790405 222.44444 
L 94.335677 222.833685 
L 94.74463 223.345907 
L 95.153584 224.208944 
L 95.562537 225.658868 
L 95.971491 227.944928 
L 96.516762 232.705356 
L 97.062033 239.90282 
L 97.607304 250.008367 
L 98.288894 267.338279 
L 98.970483 290.461849 
L 99.78839 326.442581 
L 100.742615 369.36 
L 100.878932 369.162907 
L 101.151568 367.262249 
L 101.833157 361.698626 
L 102.105793 360.84602 
L 102.242111 360.723592 
L 102.514746 360.891588 
L 103.468971 362.206456 
L 103.877925 362.312963 
L 105.513739 362.34261 
L 107.558506 362.651151 
L 112.602266 363.344545 
L 113.556491 363.613558 
L 114.783351 363.872139 
L 116.146529 364.68906 
L 116.555483 364.592984 
L 116.964436 364.232287 
L 117.37339 363.589951 
L 117.918661 362.300885 
L 118.60025 360.07851 
L 119.009204 358.824033 
L 121.190289 354.001567 
L 121.871878 352.803637 
L 122.008196 355.230791 
L 122.41715 367.229858 
L 122.553467 366.988296 
L 122.826103 364.685766 
L 123.371374 359.278609 
L 123.780328 357.750177 
L 124.598235 355.766071 
L 124.734553 355.49596 
L 124.870871 356.189903 
L 125.416142 363.443366 
L 125.55246 363.160079 
L 126.097731 360.481481 
L 126.643002 358.482551 
L 127.051956 357.447126 
L 127.188274 357.644219 
L 127.460909 359.32253 
L 127.733545 361.190247 
L 127.869863 361.233069 
L 128.142499 360.885549 
L 128.824088 359.760636 
L 129.233041 359.595385 
L 129.641995 359.734284 
L 130.459902 360.042825 
L 131.550444 360.109804 
L 137.821065 360.531989 
L 139.184243 360.710416 
L 140.00215 360.546263 
L 140.820057 360.131215 
L 141.637964 359.51029 
L 141.910599 359.016184 
L 142.592189 357.56681 
L 142.728506 357.603044 
L 143.001142 358.186088 
L 143.546413 360.083451 
L 143.819049 359.839144 
L 144.228003 359.109515 
L 144.773274 357.644219 
L 144.909592 357.655748 
L 145.04591 357.952212 
L 145.318545 359.353274 
L 145.591181 360.638496 
L 145.863817 360.366738 
L 146.545406 359.004106 
L 146.954359 357.898409 
L 147.090677 357.817705 
L 147.226995 357.998328 
L 147.499631 359.176494 
L 147.772266 360.601713 
L 147.908584 360.606105 
L 148.317537 360.020316 
L 149.40808 358.353535 
L 149.544398 358.558314 
L 149.817034 359.562994 
L 150.089669 360.394189 
L 150.362305 360.232781 
L 151.589165 358.999165 
L 151.725483 359.0074 
L 151.998119 359.364254 
L 152.270755 360.011532 
L 152.54339 360.043923 
L 153.906569 359.644247 
L 157.178196 359.890201 
L 164.539359 360.138901 
L 165.629902 359.891299 
L 166.584127 359.483937 
L 167.538352 358.574784 
L 167.810987 358.830072 
L 168.492576 359.836948 
L 169.037848 359.407077 
L 169.583119 358.632979 
L 169.719437 358.606077 
L 169.855755 358.719721 
L 170.12839 359.366999 
L 170.401026 360.125176 
L 170.673662 360.025257 
L 171.491569 359.134221 
L 171.900522 358.691722 
L 172.03684 358.751015 
L 172.309476 359.293432 
L 172.582111 360.10651 
L 172.854747 360.068079 
L 173.808972 359.224807 
L 174.081607 358.96897 
L 174.354243 359.028263 
L 174.626879 359.511937 
L 174.899514 360.016473 
L 175.17215 359.95718 
L 176.535328 359.284648 
L 176.807964 359.447154 
L 177.216918 359.850124 
L 177.762189 359.74746 
L 178.580096 359.622836 
L 190.167111 359.804557 
L 191.393972 359.550367 
L 192.348197 359.069438 
L 192.620832 359.197905 
L 193.302422 359.735382 
L 193.847693 359.516329 
L 194.529282 359.087006 
L 194.801918 359.26708 
L 195.347189 359.880319 
L 196.028778 359.571229 
L 196.846685 359.158377 
L 197.119321 359.430684 
L 197.391957 359.869339 
L 197.664592 359.855614 
L 199.164088 359.303863 
L 199.436724 359.552563 
L 199.70936 359.825419 
L 200.254631 359.712873 
L 201.345174 359.438919 
L 201.754127 359.60966 
L 202.026763 359.740323 
L 209.933197 359.722206 
L 215.522228 359.666756 
L 216.612771 359.442762 
L 217.158042 359.326922 
L 217.29436 359.350529 
L 218.112267 359.679383 
L 218.657538 359.562445 
L 219.339127 359.336255 
L 219.611763 359.433978 
L 220.157034 359.755695 
L 220.838623 359.592091 
L 221.792848 359.428488 
L 222.33812 359.760087 
L 224.110251 359.503702 
L 224.655523 359.727147 
L 226.563972 359.613503 
L 226.972926 359.681579 
L 229.699282 359.643698 
L 240.604709 359.627228 
L 242.649476 359.614052 
L 243.05843 359.637659 
L 244.421608 359.523466 
L 244.966879 359.690363 
L 246.602693 359.519074 
L 247.284283 359.683775 
L 248.920096 359.558053 
L 249.601686 359.667305 
L 251.373817 359.616248 
L 251.919089 359.647541 
L 254.918081 359.632718 
L 497.972773 359.616797 
L 497.972773 359.616797 
" style="fill:none;stroke:#00bfbf;stroke-linecap:square;stroke-width:1.5;"/>
   </g>
   <g id="line2d_29">
    <path clip-path="url(#pff79e5f48d)" d="M 92.290909 85.11397 
L 92.427227 222.365383 
L 92.83618 177.878906 
L 94.063041 73.676535 
L 94.471994 69.034143 
L 94.74463 67.723667 
L 95.017266 67.136231 
L 95.289901 66.96 
L 95.562537 67.014901 
L 96.107808 67.45136 
L 97.743622 69.310842 
L 100.061025 71.780819 
L 101.287886 72.847537 
L 103.332653 74.317225 
L 105.513739 75.616721 
L 107.831142 76.747673 
L 110.421181 77.765529 
L 111.648041 78.172342 
L 111.920677 78.668095 
L 112.738584 80.941527 
L 114.23808 85.597644 
L 114.510715 87.635553 
L 114.919669 93.335879 
L 115.46494 105.199891 
L 116.419165 133.224433 
L 117.37339 159.614037 
L 117.782343 166.688524 
L 118.054979 169.134344 
L 118.191297 169.563667 
L 118.327615 169.421474 
L 118.463933 168.678669 
L 118.736568 165.296795 
L 119.28184 152.432494 
L 120.372382 120.715889 
L 121.735561 79.593169 
L 122.144514 79.155063 
L 122.689785 78.861894 
L 123.507692 78.726289 
L 124.598235 78.785582 
L 125.825095 79.055144 
L 127.460909 79.596463 
L 129.505677 80.537459 
L 132.095716 82.017578 
L 137.003158 85.132636 
L 137.275793 85.421962 
L 137.684747 86.454642 
L 138.230018 88.814817 
L 139.047925 93.814063 
L 140.138468 100.550362 
L 140.547421 102.172674 
L 140.820057 102.761208 
L 141.092692 102.872107 
L 141.365328 102.447725 
L 141.637964 101.444143 
L 142.046917 98.794093 
L 142.592189 93.146472 
L 143.410096 82.89434 
L 144.228003 82.442508 
L 145.318545 82.166359 
L 147.226995 81.963226 
L 149.544398 81.999461 
L 151.998119 82.310747 
L 154.860793 82.953084 
L 158.541375 84.054389 
L 162.221956 85.353885 
L 162.63091 85.957243 
L 163.176181 87.247955 
L 164.130406 90.333367 
L 165.084631 93.209607 
L 165.493584 93.937589 
L 165.76622 94.15225 
L 166.038855 94.109428 
L 166.311491 93.78222 
L 166.720445 92.7166 
L 167.129398 90.940018 
L 167.674669 87.540026 
L 168.219941 83.986312 
L 169.583119 83.668438 
L 171.627887 83.515814 
L 174.217925 83.508128 
L 177.353235 83.717849 
L 181.170135 84.209758 
L 186.895484 85.170518 
L 187.304437 85.41757 
L 187.849708 86.017084 
L 188.667615 87.329208 
L 189.894476 89.327039 
L 190.439747 89.787655 
L 190.848701 89.81236 
L 191.257654 89.50327 
L 191.666608 88.827993 
L 192.211879 87.35556 
L 193.166104 84.504574 
L 194.529282 84.350303 
L 197.664592 84.265207 
L 202.026763 84.373361 
L 207.615794 84.774684 
L 211.977964 85.220477 
L 212.659554 85.593252 
L 213.613778 86.416211 
L 214.704321 87.343482 
L 215.249592 87.585044 
L 215.794864 87.561437 
L 216.203817 87.331953 
L 216.749088 86.719811 
L 218.112267 84.777429 
L 220.702306 84.679706 
L 226.018701 84.701667 
L 232.698275 84.946523 
L 236.924127 85.20236 
L 237.878352 85.546037 
L 239.786802 86.382173 
L 240.468391 86.43378 
L 241.14998 86.224059 
L 241.831569 85.726111 
L 242.785794 84.941582 
L 246.057422 84.878447 
L 253.145949 84.928955 
L 262.006608 85.203458 
L 263.77874 85.633878 
L 265.005601 85.822736 
L 265.823507 85.73764 
L 266.641414 85.432942 
L 267.595639 85.021188 
L 273.457306 84.98715 
L 286.543818 85.14142 
L 288.861221 85.42855 
L 290.224399 85.483451 
L 291.314942 85.315455 
L 292.67812 85.060716 
L 302.08405 85.057971 
L 312.580523 85.203458 
L 315.170562 85.305573 
L 316.806376 85.109578 
L 317.624283 85.084324 
L 336.02719 85.120009 
L 341.479904 85.122754 
L 342.843082 85.096951 
L 497.972773 85.113421 
L 497.972773 85.113421 
" style="fill:none;stroke:#ff0000;stroke-linecap:square;stroke-width:1.5;"/>
   </g>
   <g id="line2d_30">
    <path clip-path="url(#pff79e5f48d)" d="M 92.290909 85.11397 
L 92.427227 222.365383 
L 92.563545 222.365383 
L 92.83618 210.6787 
L 93.381452 172.592531 
L 94.335677 103.526522 
L 94.74463 93.084983 
L 95.017266 90.080275 
L 95.289901 88.688546 
L 95.562537 88.209264 
L 95.835173 88.243302 
L 96.244126 88.785171 
L 97.062033 90.487088 
L 99.243118 95.117951 
L 100.878932 98.067209 
L 102.514746 100.566832 
L 104.286878 102.883087 
L 106.195328 104.995661 
L 108.103777 106.776635 
L 110.148545 108.377536 
L 111.648041 109.381118 
L 111.920677 110.436856 
L 112.32963 113.572227 
L 113.147537 122.180087 
L 114.510715 138.932445 
L 115.055987 150.470348 
L 115.737576 170.95869 
L 117.646026 233.839052 
L 118.054979 240.256929 
L 118.327615 241.759557 
L 118.463933 241.574542 
L 118.736568 239.193505 
L 119.009204 233.995519 
L 120.099747 202.792234 
L 121.190289 165.388479 
L 121.599243 151.50193 
L 122.008196 147.126904 
L 122.41715 144.581164 
L 122.962421 142.671174 
L 123.507692 141.606652 
L 124.052964 140.964315 
L 124.734553 140.499307 
L 125.416142 140.299469 
L 126.097731 140.303312 
L 126.915638 140.537189 
L 127.733545 141.007687 
L 128.68777 141.83943 
L 129.778313 143.12026 
L 131.005173 144.935273 
L 132.504669 147.600695 
L 134.276801 151.229074 
L 137.003158 157.383976 
L 137.412111 158.553358 
L 137.957382 161.018394 
L 138.638972 165.43185 
L 140.411103 178.077097 
L 140.820057 179.568197 
L 141.092692 179.953599 
L 141.22901 179.938226 
L 141.501646 179.456748 
L 141.774282 178.342267 
L 142.183235 175.434184 
L 142.728506 169.307281 
L 143.546413 159.325809 
L 144.091685 157.321939 
L 144.636956 156.108087 
L 145.318545 155.088035 
L 146.27277 154.083354 
L 147.363313 153.233493 
L 148.453855 152.640018 
L 149.544398 152.270537 
L 150.634941 152.132188 
L 151.725483 152.207951 
L 152.816026 152.492885 
L 154.042886 153.04189 
L 155.406065 153.908221 
L 157.041879 155.25054 
L 158.950328 157.13912 
L 161.676685 160.20312 
L 162.221956 160.924514 
L 162.767228 162.133424 
L 163.448817 164.340427 
L 165.357266 171.167861 
L 165.76622 171.801414 
L 166.038855 171.894196 
L 166.311491 171.686671 
L 166.584127 171.155234 
L 166.99308 169.724525 
L 167.538352 166.655584 
L 168.356259 161.459794 
L 168.90153 160.413938 
L 169.583119 159.660154 
L 170.537344 159.009582 
L 171.900522 158.388107 
L 173.400018 157.943962 
L 174.899514 157.718321 
L 176.535328 157.717223 
L 178.171142 157.95604 
L 179.943274 158.457282 
L 181.851724 159.235772 
L 184.169127 160.42986 
L 187.031801 162.160325 
L 187.577073 162.783447 
L 188.258662 163.928673 
L 190.167111 167.504895 
L 190.576065 167.843083 
L 190.985018 167.865043 
L 191.257654 167.677832 
L 191.666608 167.069534 
L 192.211879 165.640472 
L 193.302422 162.288244 
L 193.984011 161.726062 
L 194.938236 161.301131 
L 196.57405 160.874005 
L 198.618817 160.567111 
L 200.663584 160.471584 
L 202.84467 160.591267 
L 205.162073 160.941533 
L 207.888429 161.587163 
L 211.569011 162.698351 
L 212.2506 163.04093 
L 213.068507 163.743658 
L 215.113274 165.709098 
L 215.658546 165.837565 
L 216.067499 165.71898 
L 216.340135 165.526279 
L 216.885406 164.85759 
L 218.248585 162.793878 
L 218.657538 162.620392 
L 220.293352 162.263538 
L 222.883391 161.995075 
L 225.746065 161.912175 
L 228.881375 162.057112 
L 232.561957 162.479847 
L 236.78781 163.185319 
L 237.742034 163.577309 
L 240.059438 164.723633 
L 240.741027 164.72528 
L 241.286298 164.515011 
L 241.967887 163.97424 
L 242.785794 163.220455 
L 243.740019 162.998657 
L 245.375833 162.835053 
L 249.32905 162.673097 
L 253.691221 162.745565 
L 258.598662 163.069479 
L 262.142926 163.454332 
L 265.550872 164.166941 
L 266.368779 163.953378 
L 268.140911 163.283042 
L 270.458314 163.148536 
L 275.638391 163.071126 
L 281.500058 163.205083 
L 287.361725 163.548212 
L 290.224399 163.876517 
L 291.314942 163.720599 
L 292.950756 163.396686 
L 296.903973 163.30061 
L 305.491996 163.340687 
L 312.716841 163.588289 
L 315.170562 163.710717 
L 316.670058 163.54382 
L 317.624283 163.462567 
L 322.940679 163.401078 
L 333.573469 163.467508 
L 343.660989 163.479037 
L 356.611183 163.484527 
L 371.606144 163.494409 
L 498.109091 163.528447 
L 498.109091 163.528447 
" style="fill:none;stroke:#008000;stroke-linecap:square;stroke-width:1.5;"/>
   </g>
   <g id="patch_3">
    <path d="M 72 384.48 
L 72 51.84 
" style="fill:none;stroke:#000000;stroke-linecap:square;stroke-linejoin:miter;stroke-width:0.8;"/>
   </g>
   <g id="patch_4">
    <path d="M 518.4 384.48 
L 518.4 51.84 
" style="fill:none;stroke:#000000;stroke-linecap:square;stroke-linejoin:miter;stroke-width:0.8;"/>
   </g>
   <g id="patch_5">
    <path d="M 72 384.48 
L 518.4 384.48 
" style="fill:none;stroke:#000000;stroke-linecap:square;stroke-linejoin:miter;stroke-width:0.8;"/>
   </g>
   <g id="patch_6">
    <path d="M 72 51.84 
L 518.4 51.84 
" style="fill:none;stroke:#000000;stroke-linecap:square;stroke-linejoin:miter;stroke-width:0.8;"/>
   </g>
   <g id="text_16">
    <!-- $\partial \mathcal{L}/ \partial \mu^{U_{\mathrm{min}}}_{m}$ -->
    <g transform="translate(265.59 45.84)scale(0.14 -0.14)">
     <use transform="translate(0 0.684375)" xlink:href="#DejaVuSans-2202"/>
     <use transform="translate(51.708984 0.684375)" xlink:href="#STIXNonUnicode-Italic-e238"/>
     <use transform="translate(121.008972 0.684375)" xlink:href="#DejaVuSans-2f"/>
     <use transform="translate(154.700378 0.684375)" xlink:href="#DejaVuSans-2202"/>
     <use transform="translate(206.409363 0.684375)" xlink:href="#DejaVuSans-Oblique-3bc"/>
     <use transform="translate(274.498556 38.965625)scale(0.7)" xlink:href="#DejaVuSans-Oblique-55"/>
     <use transform="translate(325.733907 27.48125)scale(0.49)" xlink:href="#DejaVuSans-6d"/>
     <use transform="translate(373.465841 27.48125)scale(0.49)" xlink:href="#DejaVuSans-69"/>
     <use transform="translate(387.07961 27.48125)scale(0.49)" xlink:href="#DejaVuSans-6e"/>
     <use transform="translate(270.03241 -26.659375)scale(0.7)" xlink:href="#DejaVuSans-Oblique-6d"/>
    </g>
   </g>
   <g id="legend_1">
    <g id="patch_7">
     <path d="M 437.1 255.21 
L 511.4 255.21 
Q 513.4 255.21 513.4 253.21 
L 513.4 183.11 
Q 513.4 181.11 511.4 181.11 
L 437.1 181.11 
Q 435.1 181.11 435.1 183.11 
L 435.1 253.21 
Q 435.1 255.21 437.1 255.21 
z
" style="fill:#ffffff;opacity:0.8;stroke:#cccccc;stroke-linejoin:miter;"/>
    </g>
    <g id="line2d_31">
     <path d="M 439.1 191.51 
L 459.1 191.51 
" style="fill:none;stroke:#bf00bf;stroke-linecap:square;stroke-width:1.5;"/>
    </g>
    <g id="line2d_32"/>
    <g id="text_17">
     <!-- $\partial \mathcal{L}/ \partial \mu^{U_{\mathrm{min}}}_{1}$ -->
     <g transform="translate(467.1 195.01)scale(0.1 -0.1)">
      <use transform="translate(0 0.290625)" xlink:href="#DejaVuSans-2202"/>
      <use transform="translate(51.708984 0.290625)" xlink:href="#STIXNonUnicode-Italic-e238"/>
      <use transform="translate(121.008972 0.290625)" xlink:href="#DejaVuSans-2f"/>
      <use transform="translate(154.700378 0.290625)" xlink:href="#DejaVuSans-2202"/>
      <use transform="translate(206.409363 0.290625)" xlink:href="#DejaVuSans-Oblique-3bc"/>
      <use transform="translate(274.498556 47.965625)scale(0.7)" xlink:href="#DejaVuSans-Oblique-55"/>
      <use transform="translate(325.733907 36.48125)scale(0.49)" xlink:href="#DejaVuSans-6d"/>
      <use transform="translate(373.465841 36.48125)scale(0.49)" xlink:href="#DejaVuSans-69"/>
      <use transform="translate(387.07961 36.48125)scale(0.49)" xlink:href="#DejaVuSans-6e"/>
      <use transform="translate(270.03241 -27.053125)scale(0.7)" xlink:href="#DejaVuSans-31"/>
     </g>
    </g>
    <g id="line2d_33">
     <path d="M 439.1 209.31 
L 459.1 209.31 
" style="fill:none;stroke:#00bfbf;stroke-linecap:square;stroke-width:1.5;"/>
    </g>
    <g id="line2d_34"/>
    <g id="text_18">
     <!-- $\partial \mathcal{L}/ \partial \mu^{U_{\mathrm{min}}}_{2}$ -->
     <g transform="translate(467.1 212.81)scale(0.1 -0.1)">
      <use transform="translate(0 0.371875)" xlink:href="#DejaVuSans-2202"/>
      <use transform="translate(51.708984 0.371875)" xlink:href="#STIXNonUnicode-Italic-e238"/>
      <use transform="translate(121.008972 0.371875)" xlink:href="#DejaVuSans-2f"/>
      <use transform="translate(154.700378 0.371875)" xlink:href="#DejaVuSans-2202"/>
      <use transform="translate(206.409363 0.371875)" xlink:href="#DejaVuSans-Oblique-3bc"/>
      <use transform="translate(274.498556 48.965625)scale(0.7)" xlink:href="#DejaVuSans-Oblique-55"/>
      <use transform="translate(325.733907 37.48125)scale(0.49)" xlink:href="#DejaVuSans-6d"/>
      <use transform="translate(373.465841 37.48125)scale(0.49)" xlink:href="#DejaVuSans-69"/>
      <use transform="translate(387.07961 37.48125)scale(0.49)" xlink:href="#DejaVuSans-6e"/>
      <use transform="translate(270.03241 -26.971875)scale(0.7)" xlink:href="#DejaVuSans-32"/>
     </g>
    </g>
    <g id="line2d_35">
     <path d="M 439.1 227.11 
L 459.1 227.11 
" style="fill:none;stroke:#ff0000;stroke-linecap:square;stroke-width:1.5;"/>
    </g>
    <g id="line2d_36"/>
    <g id="text_19">
     <!-- $\partial \mathcal{L}/ \partial \mu^{U_{\mathrm{min}}}_{3}$ -->
     <g transform="translate(467.1 230.61)scale(0.1 -0.1)">
      <use transform="translate(0 0.371875)" xlink:href="#DejaVuSans-2202"/>
      <use transform="translate(51.708984 0.371875)" xlink:href="#STIXNonUnicode-Italic-e238"/>
      <use transform="translate(121.008972 0.371875)" xlink:href="#DejaVuSans-2f"/>
      <use transform="translate(154.700378 0.371875)" xlink:href="#DejaVuSans-2202"/>
      <use transform="translate(206.409363 0.371875)" xlink:href="#DejaVuSans-Oblique-3bc"/>
      <use transform="translate(274.498556 48.965625)scale(0.7)" xlink:href="#DejaVuSans-Oblique-55"/>
      <use transform="translate(325.733907 37.48125)scale(0.49)" xlink:href="#DejaVuSans-6d"/>
      <use transform="translate(373.465841 37.48125)scale(0.49)" xlink:href="#DejaVuSans-69"/>
      <use transform="translate(387.07961 37.48125)scale(0.49)" xlink:href="#DejaVuSans-6e"/>
      <use transform="translate(270.03241 -26.971875)scale(0.7)" xlink:href="#DejaVuSans-33"/>
     </g>
    </g>
    <g id="line2d_37">
     <path d="M 439.1 244.91 
L 459.1 244.91 
" style="fill:none;stroke:#008000;stroke-linecap:square;stroke-width:1.5;"/>
    </g>
    <g id="line2d_38"/>
    <g id="text_20">
     <!-- $\partial \mathcal{L}/ \partial \mu^{U_{\mathrm{min}}}_{4}$ -->
     <g transform="translate(467.1 248.41)scale(0.1 -0.1)">
      <use transform="translate(0 0.290625)" xlink:href="#DejaVuSans-2202"/>
      <use transform="translate(51.708984 0.290625)" xlink:href="#STIXNonUnicode-Italic-e238"/>
      <use transform="translate(121.008972 0.290625)" xlink:href="#DejaVuSans-2f"/>
      <use transform="translate(154.700378 0.290625)" xlink:href="#DejaVuSans-2202"/>
      <use transform="translate(206.409363 0.290625)" xlink:href="#DejaVuSans-Oblique-3bc"/>
      <use transform="translate(274.498556 47.965625)scale(0.7)" xlink:href="#DejaVuSans-Oblique-55"/>
      <use transform="translate(325.733907 36.48125)scale(0.49)" xlink:href="#DejaVuSans-6d"/>
      <use transform="translate(373.465841 36.48125)scale(0.49)" xlink:href="#DejaVuSans-69"/>
      <use transform="translate(387.07961 36.48125)scale(0.49)" xlink:href="#DejaVuSans-6e"/>
      <use transform="translate(270.03241 -27.053125)scale(0.7)" xlink:href="#DejaVuSans-34"/>
     </g>
    </g>
   </g>
  </g>
 </g>
 <defs>
  <clipPath id="pff79e5f48d">
   <rect height="332.64" width="446.4" x="72" y="51.84"/>
  </clipPath>
 </defs>
</svg>
