<?xml version="1.0" encoding="utf-8" standalone="no"?>
<!DOCTYPE svg PUBLIC "-//W3C//DTD SVG 1.1//EN"
  "http://www.w3.org/Graphics/SVG/1.1/DTD/svg11.dtd">
<!-- Created with matplotlib (http://matplotlib.org/) -->
<svg height="432pt" version="1.1" viewBox="0 0 576 432" width="576pt" xmlns="http://www.w3.org/2000/svg" xmlns:xlink="http://www.w3.org/1999/xlink">
 <defs>
  <style type="text/css">
*{stroke-linecap:butt;stroke-linejoin:round;}
  </style>
 </defs>
 <g id="figure_1">
  <g id="patch_1">
   <path d="M 0 432 
L 576 432 
L 576 0 
L 0 0 
z
" style="fill:#ffffff;"/>
  </g>
  <g id="axes_1">
   <g id="patch_2">
    <path d="M 72 384.48 
L 518.4 384.48 
L 518.4 51.84 
L 72 51.84 
z
" style="fill:#ffffff;"/>
   </g>
   <g id="matplotlib.axis_1">
    <g id="xtick_1">
     <g id="line2d_1">
      <path clip-path="url(#p0e626f0eb2)" d="M 92.290909 384.48 
L 92.290909 51.84 
" style="fill:none;stroke:#b0b0b0;stroke-dasharray:5.12,1.28,0.8,1.28;stroke-dashoffset:0;stroke-width:0.8;"/>
     </g>
     <g id="line2d_2">
      <defs>
       <path d="M 0 0 
L 0 3.5 
" id="m0cb9bbc8b6" style="stroke:#000000;stroke-width:0.8;"/>
      </defs>
      <g>
       <use style="stroke:#000000;stroke-width:0.8;" x="92.290909" xlink:href="#m0cb9bbc8b6" y="384.48"/>
      </g>
     </g>
     <g id="text_1">
      <!-- 0 -->
      <defs>
       <path d="M 31.78125 66.40625 
Q 24.171875 66.40625 20.328125 58.90625 
Q 16.5 51.421875 16.5 36.375 
Q 16.5 21.390625 20.328125 13.890625 
Q 24.171875 6.390625 31.78125 6.390625 
Q 39.453125 6.390625 43.28125 13.890625 
Q 47.125 21.390625 47.125 36.375 
Q 47.125 51.421875 43.28125 58.90625 
Q 39.453125 66.40625 31.78125 66.40625 
z
M 31.78125 74.21875 
Q 44.046875 74.21875 50.515625 64.515625 
Q 56.984375 54.828125 56.984375 36.375 
Q 56.984375 17.96875 50.515625 8.265625 
Q 44.046875 -1.421875 31.78125 -1.421875 
Q 19.53125 -1.421875 13.0625 8.265625 
Q 6.59375 17.96875 6.59375 36.375 
Q 6.59375 54.828125 13.0625 64.515625 
Q 19.53125 74.21875 31.78125 74.21875 
z
" id="DejaVuSans-30"/>
      </defs>
      <g transform="translate(89.109659 399.078438)scale(0.1 -0.1)">
       <use xlink:href="#DejaVuSans-30"/>
      </g>
     </g>
    </g>
    <g id="xtick_2">
     <g id="line2d_3">
      <path clip-path="url(#p0e626f0eb2)" d="M 160.449824 384.48 
L 160.449824 51.84 
" style="fill:none;stroke:#b0b0b0;stroke-dasharray:5.12,1.28,0.8,1.28;stroke-dashoffset:0;stroke-width:0.8;"/>
     </g>
     <g id="line2d_4">
      <g>
       <use style="stroke:#000000;stroke-width:0.8;" x="160.449824" xlink:href="#m0cb9bbc8b6" y="384.48"/>
      </g>
     </g>
     <g id="text_2">
      <!-- 500 -->
      <defs>
       <path d="M 10.796875 72.90625 
L 49.515625 72.90625 
L 49.515625 64.59375 
L 19.828125 64.59375 
L 19.828125 46.734375 
Q 21.96875 47.46875 24.109375 47.828125 
Q 26.265625 48.1875 28.421875 48.1875 
Q 40.625 48.1875 47.75 41.5 
Q 54.890625 34.8125 54.890625 23.390625 
Q 54.890625 11.625 47.5625 5.09375 
Q 40.234375 -1.421875 26.90625 -1.421875 
Q 22.3125 -1.421875 17.546875 -0.640625 
Q 12.796875 0.140625 7.71875 1.703125 
L 7.71875 11.625 
Q 12.109375 9.234375 16.796875 8.0625 
Q 21.484375 6.890625 26.703125 6.890625 
Q 35.15625 6.890625 40.078125 11.328125 
Q 45.015625 15.765625 45.015625 23.390625 
Q 45.015625 31 40.078125 35.4375 
Q 35.15625 39.890625 26.703125 39.890625 
Q 22.75 39.890625 18.8125 39.015625 
Q 14.890625 38.140625 10.796875 36.28125 
z
" id="DejaVuSans-35"/>
      </defs>
      <g transform="translate(150.906074 399.078438)scale(0.1 -0.1)">
       <use xlink:href="#DejaVuSans-35"/>
       <use x="63.623047" xlink:href="#DejaVuSans-30"/>
       <use x="127.246094" xlink:href="#DejaVuSans-30"/>
      </g>
     </g>
    </g>
    <g id="xtick_3">
     <g id="line2d_5">
      <path clip-path="url(#p0e626f0eb2)" d="M 228.60874 384.48 
L 228.60874 51.84 
" style="fill:none;stroke:#b0b0b0;stroke-dasharray:5.12,1.28,0.8,1.28;stroke-dashoffset:0;stroke-width:0.8;"/>
     </g>
     <g id="line2d_6">
      <g>
       <use style="stroke:#000000;stroke-width:0.8;" x="228.60874" xlink:href="#m0cb9bbc8b6" y="384.48"/>
      </g>
     </g>
     <g id="text_3">
      <!-- 1000 -->
      <defs>
       <path d="M 12.40625 8.296875 
L 28.515625 8.296875 
L 28.515625 63.921875 
L 10.984375 60.40625 
L 10.984375 69.390625 
L 28.421875 72.90625 
L 38.28125 72.90625 
L 38.28125 8.296875 
L 54.390625 8.296875 
L 54.390625 0 
L 12.40625 0 
z
" id="DejaVuSans-31"/>
      </defs>
      <g transform="translate(215.88374 399.078438)scale(0.1 -0.1)">
       <use xlink:href="#DejaVuSans-31"/>
       <use x="63.623047" xlink:href="#DejaVuSans-30"/>
       <use x="127.246094" xlink:href="#DejaVuSans-30"/>
       <use x="190.869141" xlink:href="#DejaVuSans-30"/>
      </g>
     </g>
    </g>
    <g id="xtick_4">
     <g id="line2d_7">
      <path clip-path="url(#p0e626f0eb2)" d="M 296.767655 384.48 
L 296.767655 51.84 
" style="fill:none;stroke:#b0b0b0;stroke-dasharray:5.12,1.28,0.8,1.28;stroke-dashoffset:0;stroke-width:0.8;"/>
     </g>
     <g id="line2d_8">
      <g>
       <use style="stroke:#000000;stroke-width:0.8;" x="296.767655" xlink:href="#m0cb9bbc8b6" y="384.48"/>
      </g>
     </g>
     <g id="text_4">
      <!-- 1500 -->
      <g transform="translate(284.042655 399.078438)scale(0.1 -0.1)">
       <use xlink:href="#DejaVuSans-31"/>
       <use x="63.623047" xlink:href="#DejaVuSans-35"/>
       <use x="127.246094" xlink:href="#DejaVuSans-30"/>
       <use x="190.869141" xlink:href="#DejaVuSans-30"/>
      </g>
     </g>
    </g>
    <g id="xtick_5">
     <g id="line2d_9">
      <path clip-path="url(#p0e626f0eb2)" d="M 364.92657 384.48 
L 364.92657 51.84 
" style="fill:none;stroke:#b0b0b0;stroke-dasharray:5.12,1.28,0.8,1.28;stroke-dashoffset:0;stroke-width:0.8;"/>
     </g>
     <g id="line2d_10">
      <g>
       <use style="stroke:#000000;stroke-width:0.8;" x="364.92657" xlink:href="#m0cb9bbc8b6" y="384.48"/>
      </g>
     </g>
     <g id="text_5">
      <!-- 2000 -->
      <defs>
       <path d="M 19.1875 8.296875 
L 53.609375 8.296875 
L 53.609375 0 
L 7.328125 0 
L 7.328125 8.296875 
Q 12.9375 14.109375 22.625 23.890625 
Q 32.328125 33.6875 34.8125 36.53125 
Q 39.546875 41.84375 41.421875 45.53125 
Q 43.3125 49.21875 43.3125 52.78125 
Q 43.3125 58.59375 39.234375 62.25 
Q 35.15625 65.921875 28.609375 65.921875 
Q 23.96875 65.921875 18.8125 64.3125 
Q 13.671875 62.703125 7.8125 59.421875 
L 7.8125 69.390625 
Q 13.765625 71.78125 18.9375 73 
Q 24.125 74.21875 28.421875 74.21875 
Q 39.75 74.21875 46.484375 68.546875 
Q 53.21875 62.890625 53.21875 53.421875 
Q 53.21875 48.921875 51.53125 44.890625 
Q 49.859375 40.875 45.40625 35.40625 
Q 44.1875 33.984375 37.640625 27.21875 
Q 31.109375 20.453125 19.1875 8.296875 
z
" id="DejaVuSans-32"/>
      </defs>
      <g transform="translate(352.20157 399.078438)scale(0.1 -0.1)">
       <use xlink:href="#DejaVuSans-32"/>
       <use x="63.623047" xlink:href="#DejaVuSans-30"/>
       <use x="127.246094" xlink:href="#DejaVuSans-30"/>
       <use x="190.869141" xlink:href="#DejaVuSans-30"/>
      </g>
     </g>
    </g>
    <g id="xtick_6">
     <g id="line2d_11">
      <path clip-path="url(#p0e626f0eb2)" d="M 433.085486 384.48 
L 433.085486 51.84 
" style="fill:none;stroke:#b0b0b0;stroke-dasharray:5.12,1.28,0.8,1.28;stroke-dashoffset:0;stroke-width:0.8;"/>
     </g>
     <g id="line2d_12">
      <g>
       <use style="stroke:#000000;stroke-width:0.8;" x="433.085486" xlink:href="#m0cb9bbc8b6" y="384.48"/>
      </g>
     </g>
     <g id="text_6">
      <!-- 2500 -->
      <g transform="translate(420.360486 399.078438)scale(0.1 -0.1)">
       <use xlink:href="#DejaVuSans-32"/>
       <use x="63.623047" xlink:href="#DejaVuSans-35"/>
       <use x="127.246094" xlink:href="#DejaVuSans-30"/>
       <use x="190.869141" xlink:href="#DejaVuSans-30"/>
      </g>
     </g>
    </g>
    <g id="xtick_7">
     <g id="line2d_13">
      <path clip-path="url(#p0e626f0eb2)" d="M 501.244401 384.48 
L 501.244401 51.84 
" style="fill:none;stroke:#b0b0b0;stroke-dasharray:5.12,1.28,0.8,1.28;stroke-dashoffset:0;stroke-width:0.8;"/>
     </g>
     <g id="line2d_14">
      <g>
       <use style="stroke:#000000;stroke-width:0.8;" x="501.244401" xlink:href="#m0cb9bbc8b6" y="384.48"/>
      </g>
     </g>
     <g id="text_7">
      <!-- 3000 -->
      <defs>
       <path d="M 40.578125 39.3125 
Q 47.65625 37.796875 51.625 33 
Q 55.609375 28.21875 55.609375 21.1875 
Q 55.609375 10.40625 48.1875 4.484375 
Q 40.765625 -1.421875 27.09375 -1.421875 
Q 22.515625 -1.421875 17.65625 -0.515625 
Q 12.796875 0.390625 7.625 2.203125 
L 7.625 11.71875 
Q 11.71875 9.328125 16.59375 8.109375 
Q 21.484375 6.890625 26.8125 6.890625 
Q 36.078125 6.890625 40.9375 10.546875 
Q 45.796875 14.203125 45.796875 21.1875 
Q 45.796875 27.640625 41.28125 31.265625 
Q 36.765625 34.90625 28.71875 34.90625 
L 20.21875 34.90625 
L 20.21875 43.015625 
L 29.109375 43.015625 
Q 36.375 43.015625 40.234375 45.921875 
Q 44.09375 48.828125 44.09375 54.296875 
Q 44.09375 59.90625 40.109375 62.90625 
Q 36.140625 65.921875 28.71875 65.921875 
Q 24.65625 65.921875 20.015625 65.03125 
Q 15.375 64.15625 9.8125 62.3125 
L 9.8125 71.09375 
Q 15.4375 72.65625 20.34375 73.4375 
Q 25.25 74.21875 29.59375 74.21875 
Q 40.828125 74.21875 47.359375 69.109375 
Q 53.90625 64.015625 53.90625 55.328125 
Q 53.90625 49.265625 50.4375 45.09375 
Q 46.96875 40.921875 40.578125 39.3125 
z
" id="DejaVuSans-33"/>
      </defs>
      <g transform="translate(488.519401 399.078438)scale(0.1 -0.1)">
       <use xlink:href="#DejaVuSans-33"/>
       <use x="63.623047" xlink:href="#DejaVuSans-30"/>
       <use x="127.246094" xlink:href="#DejaVuSans-30"/>
       <use x="190.869141" xlink:href="#DejaVuSans-30"/>
      </g>
     </g>
    </g>
    <g id="text_8">
     <!-- Iteration -->
     <defs>
      <path d="M 9.8125 72.90625 
L 19.671875 72.90625 
L 19.671875 0 
L 9.8125 0 
z
" id="DejaVuSans-49"/>
      <path d="M 18.3125 70.21875 
L 18.3125 54.6875 
L 36.8125 54.6875 
L 36.8125 47.703125 
L 18.3125 47.703125 
L 18.3125 18.015625 
Q 18.3125 11.328125 20.140625 9.421875 
Q 21.96875 7.515625 27.59375 7.515625 
L 36.8125 7.515625 
L 36.8125 0 
L 27.59375 0 
Q 17.1875 0 13.234375 3.875 
Q 9.28125 7.765625 9.28125 18.015625 
L 9.28125 47.703125 
L 2.6875 47.703125 
L 2.6875 54.6875 
L 9.28125 54.6875 
L 9.28125 70.21875 
z
" id="DejaVuSans-74"/>
      <path d="M 56.203125 29.59375 
L 56.203125 25.203125 
L 14.890625 25.203125 
Q 15.484375 15.921875 20.484375 11.0625 
Q 25.484375 6.203125 34.421875 6.203125 
Q 39.59375 6.203125 44.453125 7.46875 
Q 49.3125 8.734375 54.109375 11.28125 
L 54.109375 2.78125 
Q 49.265625 0.734375 44.1875 -0.34375 
Q 39.109375 -1.421875 33.890625 -1.421875 
Q 20.796875 -1.421875 13.15625 6.1875 
Q 5.515625 13.8125 5.515625 26.8125 
Q 5.515625 40.234375 12.765625 48.109375 
Q 20.015625 56 32.328125 56 
Q 43.359375 56 49.78125 48.890625 
Q 56.203125 41.796875 56.203125 29.59375 
z
M 47.21875 32.234375 
Q 47.125 39.59375 43.09375 43.984375 
Q 39.0625 48.390625 32.421875 48.390625 
Q 24.90625 48.390625 20.390625 44.140625 
Q 15.875 39.890625 15.1875 32.171875 
z
" id="DejaVuSans-65"/>
      <path d="M 41.109375 46.296875 
Q 39.59375 47.171875 37.8125 47.578125 
Q 36.03125 48 33.890625 48 
Q 26.265625 48 22.1875 43.046875 
Q 18.109375 38.09375 18.109375 28.8125 
L 18.109375 0 
L 9.078125 0 
L 9.078125 54.6875 
L 18.109375 54.6875 
L 18.109375 46.1875 
Q 20.953125 51.171875 25.484375 53.578125 
Q 30.03125 56 36.53125 56 
Q 37.453125 56 38.578125 55.875 
Q 39.703125 55.765625 41.0625 55.515625 
z
" id="DejaVuSans-72"/>
      <path d="M 34.28125 27.484375 
Q 23.390625 27.484375 19.1875 25 
Q 14.984375 22.515625 14.984375 16.5 
Q 14.984375 11.71875 18.140625 8.90625 
Q 21.296875 6.109375 26.703125 6.109375 
Q 34.1875 6.109375 38.703125 11.40625 
Q 43.21875 16.703125 43.21875 25.484375 
L 43.21875 27.484375 
z
M 52.203125 31.203125 
L 52.203125 0 
L 43.21875 0 
L 43.21875 8.296875 
Q 40.140625 3.328125 35.546875 0.953125 
Q 30.953125 -1.421875 24.3125 -1.421875 
Q 15.921875 -1.421875 10.953125 3.296875 
Q 6 8.015625 6 15.921875 
Q 6 25.140625 12.171875 29.828125 
Q 18.359375 34.515625 30.609375 34.515625 
L 43.21875 34.515625 
L 43.21875 35.40625 
Q 43.21875 41.609375 39.140625 45 
Q 35.0625 48.390625 27.6875 48.390625 
Q 23 48.390625 18.546875 47.265625 
Q 14.109375 46.140625 10.015625 43.890625 
L 10.015625 52.203125 
Q 14.9375 54.109375 19.578125 55.046875 
Q 24.21875 56 28.609375 56 
Q 40.484375 56 46.34375 49.84375 
Q 52.203125 43.703125 52.203125 31.203125 
z
" id="DejaVuSans-61"/>
      <path d="M 9.421875 54.6875 
L 18.40625 54.6875 
L 18.40625 0 
L 9.421875 0 
z
M 9.421875 75.984375 
L 18.40625 75.984375 
L 18.40625 64.59375 
L 9.421875 64.59375 
z
" id="DejaVuSans-69"/>
      <path d="M 30.609375 48.390625 
Q 23.390625 48.390625 19.1875 42.75 
Q 14.984375 37.109375 14.984375 27.296875 
Q 14.984375 17.484375 19.15625 11.84375 
Q 23.34375 6.203125 30.609375 6.203125 
Q 37.796875 6.203125 41.984375 11.859375 
Q 46.1875 17.53125 46.1875 27.296875 
Q 46.1875 37.015625 41.984375 42.703125 
Q 37.796875 48.390625 30.609375 48.390625 
z
M 30.609375 56 
Q 42.328125 56 49.015625 48.375 
Q 55.71875 40.765625 55.71875 27.296875 
Q 55.71875 13.875 49.015625 6.21875 
Q 42.328125 -1.421875 30.609375 -1.421875 
Q 18.84375 -1.421875 12.171875 6.21875 
Q 5.515625 13.875 5.515625 27.296875 
Q 5.515625 40.765625 12.171875 48.375 
Q 18.84375 56 30.609375 56 
z
" id="DejaVuSans-6f"/>
      <path d="M 54.890625 33.015625 
L 54.890625 0 
L 45.90625 0 
L 45.90625 32.71875 
Q 45.90625 40.484375 42.875 44.328125 
Q 39.84375 48.1875 33.796875 48.1875 
Q 26.515625 48.1875 22.3125 43.546875 
Q 18.109375 38.921875 18.109375 30.90625 
L 18.109375 0 
L 9.078125 0 
L 9.078125 54.6875 
L 18.109375 54.6875 
L 18.109375 46.1875 
Q 21.34375 51.125 25.703125 53.5625 
Q 30.078125 56 35.796875 56 
Q 45.21875 56 50.046875 50.171875 
Q 54.890625 44.34375 54.890625 33.015625 
z
" id="DejaVuSans-6e"/>
     </defs>
     <g transform="translate(265.507969 415.795938)scale(0.14 -0.14)">
      <use xlink:href="#DejaVuSans-49"/>
      <use x="29.492188" xlink:href="#DejaVuSans-74"/>
      <use x="68.701172" xlink:href="#DejaVuSans-65"/>
      <use x="130.224609" xlink:href="#DejaVuSans-72"/>
      <use x="171.337891" xlink:href="#DejaVuSans-61"/>
      <use x="232.617188" xlink:href="#DejaVuSans-74"/>
      <use x="271.826172" xlink:href="#DejaVuSans-69"/>
      <use x="299.609375" xlink:href="#DejaVuSans-6f"/>
      <use x="360.791016" xlink:href="#DejaVuSans-6e"/>
     </g>
    </g>
   </g>
   <g id="matplotlib.axis_2">
    <g id="ytick_1">
     <g id="line2d_15">
      <path clip-path="url(#p0e626f0eb2)" d="M 72 369.36 
L 518.4 369.36 
" style="fill:none;stroke:#b0b0b0;stroke-dasharray:5.12,1.28,0.8,1.28;stroke-dashoffset:0;stroke-width:0.8;"/>
     </g>
     <g id="line2d_16">
      <defs>
       <path d="M 0 0 
L -3.5 0 
" id="m04f8f68f6f" style="stroke:#000000;stroke-width:0.8;"/>
      </defs>
      <g>
       <use style="stroke:#000000;stroke-width:0.8;" x="72" xlink:href="#m04f8f68f6f" y="369.36"/>
      </g>
     </g>
     <g id="text_9">
      <!-- −30000 -->
      <defs>
       <path d="M 10.59375 35.5 
L 73.1875 35.5 
L 73.1875 27.203125 
L 10.59375 27.203125 
z
" id="DejaVuSans-2212"/>
      </defs>
      <g transform="translate(24.807812 373.159219)scale(0.1 -0.1)">
       <use xlink:href="#DejaVuSans-2212"/>
       <use x="83.789062" xlink:href="#DejaVuSans-33"/>
       <use x="147.412109" xlink:href="#DejaVuSans-30"/>
       <use x="211.035156" xlink:href="#DejaVuSans-30"/>
       <use x="274.658203" xlink:href="#DejaVuSans-30"/>
       <use x="338.28125" xlink:href="#DejaVuSans-30"/>
      </g>
     </g>
    </g>
    <g id="ytick_2">
     <g id="line2d_17">
      <path clip-path="url(#p0e626f0eb2)" d="M 72 319.35749 
L 518.4 319.35749 
" style="fill:none;stroke:#b0b0b0;stroke-dasharray:5.12,1.28,0.8,1.28;stroke-dashoffset:0;stroke-width:0.8;"/>
     </g>
     <g id="line2d_18">
      <g>
       <use style="stroke:#000000;stroke-width:0.8;" x="72" xlink:href="#m04f8f68f6f" y="319.35749"/>
      </g>
     </g>
     <g id="text_10">
      <!-- −20000 -->
      <g transform="translate(24.807812 323.156709)scale(0.1 -0.1)">
       <use xlink:href="#DejaVuSans-2212"/>
       <use x="83.789062" xlink:href="#DejaVuSans-32"/>
       <use x="147.412109" xlink:href="#DejaVuSans-30"/>
       <use x="211.035156" xlink:href="#DejaVuSans-30"/>
       <use x="274.658203" xlink:href="#DejaVuSans-30"/>
       <use x="338.28125" xlink:href="#DejaVuSans-30"/>
      </g>
     </g>
    </g>
    <g id="ytick_3">
     <g id="line2d_19">
      <path clip-path="url(#p0e626f0eb2)" d="M 72 269.35498 
L 518.4 269.35498 
" style="fill:none;stroke:#b0b0b0;stroke-dasharray:5.12,1.28,0.8,1.28;stroke-dashoffset:0;stroke-width:0.8;"/>
     </g>
     <g id="line2d_20">
      <g>
       <use style="stroke:#000000;stroke-width:0.8;" x="72" xlink:href="#m04f8f68f6f" y="269.35498"/>
      </g>
     </g>
     <g id="text_11">
      <!-- −10000 -->
      <g transform="translate(24.807812 273.154199)scale(0.1 -0.1)">
       <use xlink:href="#DejaVuSans-2212"/>
       <use x="83.789062" xlink:href="#DejaVuSans-31"/>
       <use x="147.412109" xlink:href="#DejaVuSans-30"/>
       <use x="211.035156" xlink:href="#DejaVuSans-30"/>
       <use x="274.658203" xlink:href="#DejaVuSans-30"/>
       <use x="338.28125" xlink:href="#DejaVuSans-30"/>
      </g>
     </g>
    </g>
    <g id="ytick_4">
     <g id="line2d_21">
      <path clip-path="url(#p0e626f0eb2)" d="M 72 219.35247 
L 518.4 219.35247 
" style="fill:none;stroke:#b0b0b0;stroke-dasharray:5.12,1.28,0.8,1.28;stroke-dashoffset:0;stroke-width:0.8;"/>
     </g>
     <g id="line2d_22">
      <g>
       <use style="stroke:#000000;stroke-width:0.8;" x="72" xlink:href="#m04f8f68f6f" y="219.35247"/>
      </g>
     </g>
     <g id="text_12">
      <!-- 0 -->
      <g transform="translate(58.6375 223.151689)scale(0.1 -0.1)">
       <use xlink:href="#DejaVuSans-30"/>
      </g>
     </g>
    </g>
    <g id="ytick_5">
     <g id="line2d_23">
      <path clip-path="url(#p0e626f0eb2)" d="M 72 169.34996 
L 518.4 169.34996 
" style="fill:none;stroke:#b0b0b0;stroke-dasharray:5.12,1.28,0.8,1.28;stroke-dashoffset:0;stroke-width:0.8;"/>
     </g>
     <g id="line2d_24">
      <g>
       <use style="stroke:#000000;stroke-width:0.8;" x="72" xlink:href="#m04f8f68f6f" y="169.34996"/>
      </g>
     </g>
     <g id="text_13">
      <!-- 10000 -->
      <g transform="translate(33.1875 173.149179)scale(0.1 -0.1)">
       <use xlink:href="#DejaVuSans-31"/>
       <use x="63.623047" xlink:href="#DejaVuSans-30"/>
       <use x="127.246094" xlink:href="#DejaVuSans-30"/>
       <use x="190.869141" xlink:href="#DejaVuSans-30"/>
       <use x="254.492188" xlink:href="#DejaVuSans-30"/>
      </g>
     </g>
    </g>
    <g id="ytick_6">
     <g id="line2d_25">
      <path clip-path="url(#p0e626f0eb2)" d="M 72 119.347451 
L 518.4 119.347451 
" style="fill:none;stroke:#b0b0b0;stroke-dasharray:5.12,1.28,0.8,1.28;stroke-dashoffset:0;stroke-width:0.8;"/>
     </g>
     <g id="line2d_26">
      <g>
       <use style="stroke:#000000;stroke-width:0.8;" x="72" xlink:href="#m04f8f68f6f" y="119.347451"/>
      </g>
     </g>
     <g id="text_14">
      <!-- 20000 -->
      <g transform="translate(33.1875 123.146669)scale(0.1 -0.1)">
       <use xlink:href="#DejaVuSans-32"/>
       <use x="63.623047" xlink:href="#DejaVuSans-30"/>
       <use x="127.246094" xlink:href="#DejaVuSans-30"/>
       <use x="190.869141" xlink:href="#DejaVuSans-30"/>
       <use x="254.492188" xlink:href="#DejaVuSans-30"/>
      </g>
     </g>
    </g>
    <g id="ytick_7">
     <g id="line2d_27">
      <path clip-path="url(#p0e626f0eb2)" d="M 72 69.344941 
L 518.4 69.344941 
" style="fill:none;stroke:#b0b0b0;stroke-dasharray:5.12,1.28,0.8,1.28;stroke-dashoffset:0;stroke-width:0.8;"/>
     </g>
     <g id="line2d_28">
      <g>
       <use style="stroke:#000000;stroke-width:0.8;" x="72" xlink:href="#m04f8f68f6f" y="69.344941"/>
      </g>
     </g>
     <g id="text_15">
      <!-- 30000 -->
      <g transform="translate(33.1875 73.144159)scale(0.1 -0.1)">
       <use xlink:href="#DejaVuSans-33"/>
       <use x="63.623047" xlink:href="#DejaVuSans-30"/>
       <use x="127.246094" xlink:href="#DejaVuSans-30"/>
       <use x="190.869141" xlink:href="#DejaVuSans-30"/>
       <use x="254.492188" xlink:href="#DejaVuSans-30"/>
      </g>
     </g>
    </g>
    <g id="text_16">
     <!-- $p^\mathrm{S}_{m} original[W]$ -->
     <defs>
      <path d="M 49.609375 33.6875 
Q 49.609375 40.875 46.484375 44.671875 
Q 43.359375 48.484375 37.5 48.484375 
Q 33.5 48.484375 29.859375 46.4375 
Q 26.21875 44.390625 23.390625 40.484375 
Q 20.609375 36.625 18.9375 31.15625 
Q 17.28125 25.6875 17.28125 20.3125 
Q 17.28125 13.484375 20.40625 9.796875 
Q 23.53125 6.109375 29.296875 6.109375 
Q 33.546875 6.109375 37.1875 8.109375 
Q 40.828125 10.109375 43.40625 13.921875 
Q 46.1875 17.921875 47.890625 23.34375 
Q 49.609375 28.765625 49.609375 33.6875 
z
M 21.78125 46.390625 
Q 25.390625 51.125 30.296875 53.5625 
Q 35.203125 56 41.21875 56 
Q 49.609375 56 54.25 50.5 
Q 58.890625 45.015625 58.890625 35.109375 
Q 58.890625 27 56 19.65625 
Q 53.125 12.3125 47.703125 6.5 
Q 44.09375 2.640625 39.546875 0.609375 
Q 35.015625 -1.421875 29.984375 -1.421875 
Q 24.171875 -1.421875 20.21875 1 
Q 16.265625 3.421875 14.3125 8.203125 
L 8.6875 -20.796875 
L -0.296875 -20.796875 
L 14.40625 54.6875 
L 23.390625 54.6875 
z
" id="DejaVuSans-Oblique-70"/>
      <path d="M 53.515625 70.515625 
L 53.515625 60.890625 
Q 47.90625 63.578125 42.921875 64.890625 
Q 37.9375 66.21875 33.296875 66.21875 
Q 25.25 66.21875 20.875 63.09375 
Q 16.5 59.96875 16.5 54.203125 
Q 16.5 49.359375 19.40625 46.890625 
Q 22.3125 44.4375 30.421875 42.921875 
L 36.375 41.703125 
Q 47.40625 39.59375 52.65625 34.296875 
Q 57.90625 29 57.90625 20.125 
Q 57.90625 9.515625 50.796875 4.046875 
Q 43.703125 -1.421875 29.984375 -1.421875 
Q 24.8125 -1.421875 18.96875 -0.25 
Q 13.140625 0.921875 6.890625 3.21875 
L 6.890625 13.375 
Q 12.890625 10.015625 18.65625 8.296875 
Q 24.421875 6.59375 29.984375 6.59375 
Q 38.421875 6.59375 43.015625 9.90625 
Q 47.609375 13.234375 47.609375 19.390625 
Q 47.609375 24.75 44.3125 27.78125 
Q 41.015625 30.8125 33.5 32.328125 
L 27.484375 33.5 
Q 16.453125 35.6875 11.515625 40.375 
Q 6.59375 45.0625 6.59375 53.421875 
Q 6.59375 63.09375 13.40625 68.65625 
Q 20.21875 74.21875 32.171875 74.21875 
Q 37.3125 74.21875 42.625 73.28125 
Q 47.953125 72.359375 53.515625 70.515625 
z
" id="DejaVuSans-53"/>
      <path d="M 89.796875 33.015625 
L 83.40625 0 
L 74.421875 0 
L 80.71875 32.71875 
Q 81.109375 34.8125 81.296875 36.328125 
Q 81.5 37.84375 81.5 38.921875 
Q 81.5 43.3125 79.046875 45.75 
Q 76.609375 48.1875 72.21875 48.1875 
Q 65.671875 48.1875 60.546875 43.28125 
Q 55.421875 38.375 53.90625 30.515625 
L 47.90625 0 
L 38.921875 0 
L 45.3125 32.71875 
Q 45.703125 34.515625 45.890625 36.046875 
Q 46.09375 37.59375 46.09375 38.8125 
Q 46.09375 43.265625 43.65625 45.71875 
Q 41.21875 48.1875 36.921875 48.1875 
Q 30.28125 48.1875 25.140625 43.28125 
Q 20.015625 38.375 18.5 30.515625 
L 12.5 0 
L 3.515625 0 
L 14.203125 54.6875 
L 23.1875 54.6875 
L 21.484375 46.1875 
Q 25.140625 50.984375 30.046875 53.484375 
Q 34.96875 56 40.578125 56 
Q 46.53125 56 50.359375 52.875 
Q 54.203125 49.75 54.984375 44.1875 
Q 59.078125 49.953125 64.46875 52.96875 
Q 69.875 56 75.875 56 
Q 82.90625 56 86.734375 51.953125 
Q 90.578125 47.90625 90.578125 40.484375 
Q 90.578125 38.875 90.375 36.9375 
Q 90.1875 35.015625 89.796875 33.015625 
z
" id="DejaVuSans-Oblique-6d"/>
      <path d="M 25.390625 -1.421875 
Q 15.765625 -1.421875 10.171875 4.515625 
Q 4.59375 10.453125 4.59375 20.703125 
Q 4.59375 26.65625 6.515625 32.828125 
Q 8.453125 39.015625 11.53125 43.21875 
Q 16.359375 49.75 22.3125 52.875 
Q 28.265625 56 35.796875 56 
Q 45.125 56 50.859375 50.1875 
Q 56.59375 44.390625 56.59375 35.015625 
Q 56.59375 28.515625 54.6875 22.0625 
Q 52.78125 15.625 49.703125 11.375 
Q 44.921875 4.828125 38.96875 1.703125 
Q 33.015625 -1.421875 25.390625 -1.421875 
z
M 13.921875 21 
Q 13.921875 13.578125 17.015625 9.890625 
Q 20.125 6.203125 26.421875 6.203125 
Q 35.453125 6.203125 41.375 14.078125 
Q 47.3125 21.96875 47.3125 34.078125 
Q 47.3125 41.15625 44.140625 44.765625 
Q 40.96875 48.390625 34.8125 48.390625 
Q 29.734375 48.390625 25.78125 46.015625 
Q 21.828125 43.65625 18.703125 38.8125 
Q 16.40625 35.203125 15.15625 30.5625 
Q 13.921875 25.921875 13.921875 21 
z
" id="DejaVuSans-Oblique-6f"/>
      <path d="M 44.578125 46.390625 
Q 43.21875 47.125 41.453125 47.515625 
Q 39.703125 47.90625 37.703125 47.90625 
Q 30.515625 47.90625 25.140625 42.453125 
Q 19.78125 37.015625 18.015625 27.875 
L 12.5 0 
L 3.515625 0 
L 14.203125 54.6875 
L 23.1875 54.6875 
L 21.484375 46.1875 
Q 25.046875 50.921875 30 53.453125 
Q 34.96875 56 40.578125 56 
Q 42.046875 56 43.453125 55.828125 
Q 44.875 55.671875 46.296875 55.28125 
z
" id="DejaVuSans-Oblique-72"/>
      <path d="M 18.3125 75.984375 
L 27.296875 75.984375 
L 25.09375 64.59375 
L 16.109375 64.59375 
z
M 14.203125 54.6875 
L 23.1875 54.6875 
L 12.5 0 
L 3.515625 0 
z
" id="DejaVuSans-Oblique-69"/>
      <path d="M 59.625 54.6875 
L 50.296875 6.78125 
Q 47.609375 -7.125 40.015625 -13.953125 
Q 32.421875 -20.796875 19.578125 -20.796875 
Q 14.84375 -20.796875 10.78125 -20.09375 
Q 6.734375 -19.390625 3.21875 -17.921875 
L 4.890625 -9.1875 
Q 8.203125 -11.328125 11.90625 -12.34375 
Q 15.625 -13.375 19.828125 -13.375 
Q 28.375 -13.375 33.859375 -8.703125 
Q 39.359375 -4.046875 41.109375 4.6875 
L 41.890625 8.796875 
Q 38.140625 4.5 33.15625 2.25 
Q 28.171875 0 22.40625 0 
Q 14.109375 0 9.34375 5.484375 
Q 4.59375 10.984375 4.59375 20.609375 
Q 4.59375 28.171875 7.46875 35.421875 
Q 10.359375 42.671875 15.578125 48.296875 
Q 19.046875 52 23.65625 54 
Q 28.265625 56 33.296875 56 
Q 38.8125 56 42.90625 53.4375 
Q 47.015625 50.875 49.03125 46.1875 
L 50.59375 54.6875 
z
M 46.09375 34.625 
Q 46.09375 41.265625 42.96875 44.875 
Q 39.84375 48.484375 34.078125 48.484375 
Q 30.515625 48.484375 27.296875 47.0625 
Q 24.078125 45.65625 21.78125 43.109375 
Q 18.0625 38.921875 15.984375 33.234375 
Q 13.921875 27.546875 13.921875 21.484375 
Q 13.921875 14.75 17.0625 11.125 
Q 20.21875 7.515625 26.125 7.515625 
Q 34.671875 7.515625 40.375 15.25 
Q 46.09375 23 46.09375 34.625 
z
" id="DejaVuSans-Oblique-67"/>
      <path d="M 55.71875 33.015625 
L 49.3125 0 
L 40.28125 0 
L 46.6875 32.671875 
Q 47.125 34.96875 47.359375 36.71875 
Q 47.609375 38.484375 47.609375 39.5 
Q 47.609375 43.609375 45.015625 45.890625 
Q 42.4375 48.1875 37.796875 48.1875 
Q 30.5625 48.1875 25.34375 43.375 
Q 20.125 38.578125 18.5 30.328125 
L 12.5 0 
L 3.515625 0 
L 14.109375 54.6875 
L 23.09375 54.6875 
L 21.296875 46.09375 
Q 25.046875 50.828125 30.3125 53.40625 
Q 35.59375 56 41.40625 56 
Q 48.640625 56 52.609375 52.09375 
Q 56.59375 48.1875 56.59375 41.109375 
Q 56.59375 39.359375 56.375 37.359375 
Q 56.15625 35.359375 55.71875 33.015625 
z
" id="DejaVuSans-Oblique-6e"/>
      <path d="M 53.71875 31.203125 
L 47.609375 0 
L 38.625 0 
L 40.28125 8.296875 
Q 36.328125 3.421875 31.265625 1 
Q 26.21875 -1.421875 20.015625 -1.421875 
Q 13.03125 -1.421875 8.5625 2.84375 
Q 4.109375 7.125 4.109375 13.8125 
Q 4.109375 23.390625 11.75 28.953125 
Q 19.390625 34.515625 32.8125 34.515625 
L 45.3125 34.515625 
L 45.796875 36.921875 
Q 45.90625 37.3125 45.953125 37.765625 
Q 46 38.234375 46 39.203125 
Q 46 43.5625 42.453125 45.96875 
Q 38.921875 48.390625 32.515625 48.390625 
Q 28.125 48.390625 23.5 47.265625 
Q 18.890625 46.140625 14.015625 43.890625 
L 15.578125 52.203125 
Q 20.65625 54.109375 25.515625 55.046875 
Q 30.375 56 34.90625 56 
Q 44.578125 56 49.625 51.796875 
Q 54.6875 47.609375 54.6875 39.59375 
Q 54.6875 37.984375 54.4375 35.8125 
Q 54.203125 33.640625 53.71875 31.203125 
z
M 44 27.484375 
L 35.015625 27.484375 
Q 23.96875 27.484375 18.671875 24.53125 
Q 13.375 21.578125 13.375 15.375 
Q 13.375 11.078125 16.078125 8.640625 
Q 18.796875 6.203125 23.578125 6.203125 
Q 30.90625 6.203125 36.375 11.453125 
Q 41.84375 16.703125 43.609375 25.484375 
z
" id="DejaVuSans-Oblique-61"/>
      <path d="M 18.3125 75.984375 
L 27.296875 75.984375 
L 12.5 0 
L 3.515625 0 
z
" id="DejaVuSans-Oblique-6c"/>
      <path d="M 8.59375 75.984375 
L 29.296875 75.984375 
L 29.296875 69 
L 17.578125 69 
L 17.578125 -6.203125 
L 29.296875 -6.203125 
L 29.296875 -13.1875 
L 8.59375 -13.1875 
z
" id="DejaVuSans-5b"/>
      <path d="M 9.625 72.90625 
L 19.1875 72.90625 
L 22.703125 10.890625 
L 50.203125 72.90625 
L 61.1875 72.90625 
L 64.796875 10.890625 
L 92 72.90625 
L 102 72.90625 
L 69.578125 0 
L 57.171875 0 
L 53.8125 60.796875 
L 26.515625 0 
L 14.109375 0 
z
" id="DejaVuSans-Oblique-57"/>
      <path d="M 30.421875 75.984375 
L 30.421875 -13.1875 
L 9.71875 -13.1875 
L 9.71875 -6.203125 
L 21.390625 -6.203125 
L 21.390625 69 
L 9.71875 69 
L 9.71875 75.984375 
z
" id="DejaVuSans-5d"/>
     </defs>
     <g transform="translate(16.887812 266.18)rotate(-90)scale(0.14 -0.14)">
      <use transform="translate(0 0.765625)" xlink:href="#DejaVuSans-Oblique-70"/>
      <use transform="translate(68.126458 39.046875)scale(0.7)" xlink:href="#DejaVuSans-53"/>
      <use transform="translate(63.476562 -26.578125)scale(0.7)" xlink:href="#DejaVuSans-Oblique-6d"/>
      <use transform="translate(134.399414 0.765625)" xlink:href="#DejaVuSans-Oblique-6f"/>
      <use transform="translate(195.581055 0.765625)" xlink:href="#DejaVuSans-Oblique-72"/>
      <use transform="translate(236.694336 0.765625)" xlink:href="#DejaVuSans-Oblique-69"/>
      <use transform="translate(264.477539 0.765625)" xlink:href="#DejaVuSans-Oblique-67"/>
      <use transform="translate(327.954102 0.765625)" xlink:href="#DejaVuSans-Oblique-69"/>
      <use transform="translate(355.737305 0.765625)" xlink:href="#DejaVuSans-Oblique-6e"/>
      <use transform="translate(419.116211 0.765625)" xlink:href="#DejaVuSans-Oblique-61"/>
      <use transform="translate(480.395508 0.765625)" xlink:href="#DejaVuSans-Oblique-6c"/>
      <use transform="translate(508.178711 0.765625)" xlink:href="#DejaVuSans-5b"/>
      <use transform="translate(547.192383 0.765625)" xlink:href="#DejaVuSans-Oblique-57"/>
      <use transform="translate(646.069336 0.765625)" xlink:href="#DejaVuSans-5d"/>
     </g>
    </g>
   </g>
   <g id="line2d_29">
    <path clip-path="url(#p0e626f0eb2)" d="M 92.290909 219.35247 
L 497.972773 219.35247 
L 497.972773 219.35247 
" style="fill:none;stroke:#bf00bf;stroke-linecap:square;stroke-width:1.5;"/>
   </g>
   <g id="line2d_30">
    <path clip-path="url(#p0e626f0eb2)" d="M 92.290909 219.35247 
L 92.427227 219.35247 
L 92.972498 218.616397 
L 94.608312 214.923184 
L 95.017266 213.331012 
L 95.426219 210.751395 
L 95.971491 205.60292 
L 96.65308 196.414333 
L 97.470987 181.589772 
L 98.425211 159.640459 
L 99.652072 125.420435 
L 100.469979 100.816256 
L 100.606297 103.059446 
L 100.878932 124.037851 
L 101.560522 186.341272 
L 101.833157 199.184623 
L 102.105793 203.902309 
L 102.242111 203.996532 
L 102.514746 201.569765 
L 103.196336 193.487456 
L 103.468971 192.13138 
L 103.741607 191.785751 
L 104.014243 191.971849 
L 104.423196 192.358955 
L 104.695832 192.37384 
L 104.968467 192.153701 
L 105.513739 191.307905 
L 106.331646 190.080036 
L 107.558506 188.778733 
L 109.875909 186.569726 
L 111.920677 184.740274 
L 112.465948 183.033215 
L 113.011219 181.428138 
L 113.420173 180.74116 
L 113.965444 180.319283 
L 114.23808 180.058596 
L 114.510715 179.247182 
L 114.919669 177.048262 
L 115.601258 173.095235 
L 115.873894 172.309228 
L 116.010212 172.201092 
L 116.146529 172.307796 
L 116.419165 173.219273 
L 116.691801 175.124226 
L 117.100754 179.940281 
L 117.646026 190.006287 
L 118.327615 207.892866 
L 118.736568 219.35247 
L 121.735561 219.35247 
L 122.280832 144.033337 
L 122.41715 147.585303 
L 122.826103 182.399819 
L 123.235057 216.403289 
L 123.371374 219.35247 
L 124.598235 219.35247 
L 124.870871 197.60352 
L 125.143506 180.164203 
L 125.279824 179.118667 
L 125.55246 187.578182 
L 126.234049 215.666013 
L 126.506685 219.35247 
L 126.77932 219.35247 
L 126.915638 218.807577 
L 127.597227 199.56028 
L 127.733545 199.644509 
L 128.006181 203.163936 
L 128.68777 213.242348 
L 128.960406 214.60926 
L 129.096723 214.72251 
L 129.233041 214.554678 
L 129.641995 213.100936 
L 130.187266 211.341767 
L 130.59622 210.785483 
L 131.141491 210.593943 
L 131.686762 210.378412 
L 132.640987 209.661364 
L 133.73153 208.953453 
L 135.367344 208.181646 
L 136.86684 207.706747 
L 137.275793 207.494151 
L 137.684747 206.952064 
L 138.502654 205.703067 
L 138.775289 205.526864 
L 139.047925 205.554796 
L 139.320561 205.808828 
L 139.729514 206.634508 
L 140.138468 207.995757 
L 140.683739 210.593226 
L 141.501646 215.846969 
L 142.046917 219.218666 
L 142.183235 219.272471 
L 142.319553 218.7511 
L 142.592189 216.015247 
L 143.13746 209.526931 
L 143.273778 208.856211 
L 143.410096 208.888379 
L 143.682731 211.754271 
L 144.228003 218.688094 
L 144.36432 219.35247 
L 144.500638 219.35247 
L 144.636956 218.351815 
L 144.909592 213.459331 
L 145.318545 204.994336 
L 145.454863 204.326915 
L 145.591181 205.365346 
L 146.545406 218.96304 
L 146.681724 219.274588 
L 146.818041 218.643848 
L 147.090677 214.55822 
L 147.635948 204.711932 
L 147.772266 205.081291 
L 148.18122 210.726759 
L 148.590173 216.098941 
L 148.862809 217.917741 
L 148.999127 217.972342 
L 149.135444 217.28617 
L 149.40808 213.857756 
L 149.817034 207.631223 
L 149.953351 207.101145 
L 150.089669 207.725614 
L 151.180212 216.314479 
L 151.31653 216.354029 
L 151.452848 215.980378 
L 151.725483 214.10109 
L 152.134437 210.749062 
L 152.270755 210.476678 
L 152.407072 210.739076 
L 153.497615 214.458401 
L 153.770251 214.443071 
L 154.179204 213.989162 
L 154.860793 213.224291 
L 155.406065 212.954439 
L 157.450832 212.21765 
L 159.222964 211.65857 
L 161.267731 211.225159 
L 162.221956 210.99935 
L 163.039863 210.321922 
L 163.585135 210.023662 
L 163.994088 210.060548 
L 164.403041 210.365383 
L 164.811995 210.947368 
L 165.357266 212.13847 
L 166.038855 214.207376 
L 166.856762 216.958276 
L 166.99308 217.04855 
L 167.129398 216.855991 
L 167.402034 215.592854 
L 167.947305 212.163925 
L 168.219941 211.653489 
L 168.356259 212.062251 
L 169.174166 217.043219 
L 169.310483 217.127146 
L 169.446801 216.71656 
L 169.719437 214.455443 
L 170.12839 210.022707 
L 170.264708 209.450497 
L 170.401026 209.767307 
L 170.80998 213.119904 
L 171.218933 216.17065 
L 171.491569 217.049198 
L 171.627887 216.842882 
L 171.900522 214.95666 
L 172.445794 209.656627 
L 172.582111 209.664393 
L 172.854747 211.351683 
L 173.400018 215.295514 
L 173.672654 216.338878 
L 173.808972 216.4448 
L 173.94529 216.172074 
L 174.217925 214.517364 
L 174.626879 211.168455 
L 174.763197 210.736721 
L 174.899514 210.924353 
L 175.308468 212.985859 
L 175.717421 214.896932 
L 175.990057 215.528613 
L 176.126375 215.595019 
L 176.262693 215.446214 
L 176.535328 214.526106 
L 176.944282 212.679843 
L 177.0806 212.469899 
L 177.216918 212.577158 
L 177.625871 213.505975 
L 178.034825 214.351454 
L 178.30746 214.599079 
L 178.580096 214.610073 
L 179.125367 214.282328 
L 179.806956 213.915822 
L 180.761181 213.734069 
L 187.713391 212.481855 
L 188.39498 212.258131 
L 188.940251 212.308662 
L 189.485522 212.61312 
L 190.030794 213.172017 
L 190.712383 214.188904 
L 191.802925 215.931508 
L 191.939243 215.840432 
L 192.211879 215.197333 
L 192.75715 213.38862 
L 193.029786 213.092222 
L 193.166104 213.284664 
L 194.120329 215.976367 
L 194.256646 215.788184 
L 194.529282 214.650484 
L 195.074553 211.965429 
L 195.210871 212.088773 
L 195.619825 213.818412 
L 196.028778 215.438025 
L 196.301414 215.926302 
L 196.437732 215.839087 
L 196.710367 214.891343 
L 197.255639 212.082735 
L 197.391957 212.055455 
L 197.664592 212.918491 
L 198.346181 215.329213 
L 198.618817 215.619123 
L 198.755135 215.48598 
L 199.02777 214.634133 
L 199.573042 212.623306 
L 199.70936 212.70605 
L 200.118313 213.782918 
L 200.527267 214.79863 
L 200.799902 215.139216 
L 201.072538 215.104019 
L 201.345174 214.622812 
L 201.890445 213.517532 
L 202.163081 213.699856 
L 202.980988 214.60426 
L 203.389941 214.663612 
L 206.661569 214.080728 
L 210.069515 213.790691 
L 212.386918 213.562603 
L 213.341143 213.404174 
L 214.022732 213.500628 
L 214.704321 213.809569 
L 215.522228 214.435429 
L 216.612771 215.353429 
L 216.885406 215.166557 
L 217.29436 214.413249 
L 217.975949 213.953439 
L 218.657538 215.202193 
L 219.202809 215.02836 
L 219.884399 213.251125 
L 220.293352 213.898763 
L 220.838623 215.097755 
L 221.65653 214.384419 
L 222.065484 213.310084 
L 222.201802 213.300217 
L 222.33812 213.489552 
L 223.156027 215.038603 
L 223.428662 215.189928 
L 223.56498 215.117329 
L 224.110251 213.995849 
L 224.382887 213.596193 
L 224.655523 213.797879 
L 225.47343 214.866612 
L 225.746065 214.956816 
L 226.018701 214.812603 
L 226.70029 214.06931 
L 227.109244 214.26286 
L 227.790833 214.652889 
L 228.336104 214.668147 
L 230.380872 214.434847 
L 238.968895 214.088708 
L 240.195755 214.501132 
L 241.422616 215.04924 
L 241.695251 214.941866 
L 242.649476 214.245347 
L 242.922112 214.438882 
L 243.603701 215.049391 
L 243.876337 214.998491 
L 244.148972 214.662202 
L 244.694244 213.92591 
L 244.966879 214.11377 
L 245.375833 214.645717 
L 246.057422 215.018987 
L 246.330058 214.737576 
L 246.602693 214.281479 
L 247.011647 213.956231 
L 247.4206 214.371025 
L 247.693236 214.674991 
L 248.374825 214.921466 
L 248.783779 214.494689 
L 249.192732 214.109396 
L 249.465368 214.223293 
L 250.283275 214.792621 
L 250.692228 214.814963 
L 251.2375 214.473181 
L 251.510135 214.362966 
L 252.055407 214.524106 
L 252.736996 214.691107 
L 253.691221 214.628252 
L 255.735988 214.544338 
L 263.915058 214.391796 
L 265.278236 214.66982 
L 266.368779 214.868353 
L 267.595639 214.49687 
L 268.549864 214.893023 
L 268.958818 214.669205 
L 269.504089 214.285695 
L 269.913042 214.489565 
L 270.594632 214.872066 
L 270.867267 214.869406 
L 271.276221 214.592554 
L 271.685174 214.298298 
L 271.95781 214.362609 
L 272.912035 214.834736 
L 273.320988 214.760675 
L 274.002577 214.385517 
L 274.547849 214.5724 
L 275.229438 214.771231 
L 275.774709 214.683055 
L 276.456298 214.530979 
L 278.092112 214.68544 
L 281.500058 214.600933 
L 289.270174 214.584116 
L 291.45126 214.728982 
L 292.269167 214.571975 
L 293.632345 214.739008 
L 294.450252 214.499292 
L 295.677112 214.789681 
L 296.903973 214.566889 
L 297.72188 214.773553 
L 298.267151 214.685796 
L 298.94874 214.546282 
L 300.311919 214.73241 
L 301.675097 214.653276 
L 303.038275 214.688762 
L 308.354671 214.633163 
L 314.897927 214.69584 
L 316.261105 214.713334 
L 317.21533 214.648049 
L 318.305872 214.742819 
L 319.396415 214.619786 
L 320.486958 214.746604 
L 321.850136 214.659161 
L 322.804361 214.730973 
L 324.031221 214.653653 
L 325.258082 214.706403 
L 326.484942 214.677469 
L 328.52971 214.685353 
L 339.84409 214.70547 
L 341.479904 214.673923 
L 342.706764 214.72819 
L 343.660989 214.652706 
L 344.478896 214.690699 
L 345.569438 214.695957 
L 346.523663 214.669075 
L 347.886842 214.691601 
L 348.841066 214.678042 
L 350.47688 214.679342 
L 353.61219 214.692101 
L 390.009051 214.709969 
L 422.316377 214.699684 
L 428.995951 214.700354 
L 497.972773 214.702219 
L 497.972773 214.702219 
" style="fill:none;stroke:#00bfbf;stroke-linecap:square;stroke-width:1.5;"/>
   </g>
   <g id="line2d_31">
    <path clip-path="url(#p0e626f0eb2)" d="M 92.290909 219.35247 
L 92.427227 369.36 
L 497.972773 369.36 
L 497.972773 369.36 
" style="fill:none;stroke:#ff0000;stroke-linecap:square;stroke-width:1.5;"/>
   </g>
   <g id="line2d_32">
    <path clip-path="url(#p0e626f0eb2)" d="M 92.290909 219.35247 
L 111.511723 219.35247 
L 111.784359 214.000476 
L 115.873894 117.475412 
L 116.964436 93.616692 
L 117.509708 85.240946 
L 117.918661 81.228278 
L 118.191297 79.790031 
L 118.463933 79.405975 
L 118.60025 79.618798 
L 118.872886 80.85828 
L 120.372382 92.486447 
L 121.462925 101.200515 
L 121.735561 101.652859 
L 122.41715 103.474864 
L 124.052964 108.071052 
L 125.007188 110.025004 
L 125.825095 111.149574 
L 126.506685 111.703007 
L 127.051956 111.901061 
L 127.597227 111.882688 
L 128.142499 111.65285 
L 128.824088 111.080948 
L 129.505677 110.206528 
L 130.323584 108.780398 
L 131.277809 106.635558 
L 132.368351 103.613847 
L 133.73153 99.101988 
L 135.367344 92.83219 
L 137.275793 84.649263 
L 140.274785 70.793947 
L 140.683739 69.899525 
L 141.092692 69.499128 
L 141.365328 69.528664 
L 141.637964 69.801436 
L 142.046917 70.658713 
L 142.592189 72.554074 
L 143.410096 75.60955 
L 144.228003 77.508851 
L 146.409088 82.730102 
L 147.635948 85.093588 
L 148.726491 86.749956 
L 149.680716 87.847531 
L 150.634941 88.606015 
L 151.452848 88.990119 
L 152.270755 89.132517 
L 153.088662 89.037943 
L 153.906569 88.715993 
L 154.860793 88.067197 
L 155.815018 87.143261 
L 156.905561 85.77982 
L 158.132421 83.899398 
L 159.631917 81.185937 
L 161.540367 77.24285 
L 162.767228 74.321282 
L 164.675677 69.640254 
L 165.357266 68.605648 
L 165.76622 68.293005 
L 166.175173 68.248341 
L 166.584127 68.48381 
L 166.99308 68.992662 
L 167.538352 70.040134 
L 168.219941 71.333712 
L 169.174166 72.466063 
L 171.355251 75.115261 
L 172.718429 76.427981 
L 173.94529 77.326874 
L 175.17215 77.947935 
L 176.262693 78.262493 
L 177.353235 78.357074 
L 178.443778 78.237241 
L 179.670639 77.859726 
L 180.897499 77.244116 
L 182.260677 76.310228 
L 183.896491 74.895102 
L 185.804941 72.932561 
L 187.440755 70.994662 
L 189.62184 68.234236 
L 190.303429 67.751341 
L 190.848701 67.621829 
L 191.393972 67.750135 
L 191.939243 68.13207 
L 192.620832 68.896671 
L 192.893468 69.175488 
L 193.847693 69.738088 
L 196.57405 71.43923 
L 198.209863 72.186363 
L 199.845677 72.681199 
L 201.345174 72.905286 
L 202.84467 72.912727 
L 204.480484 72.685792 
L 206.116298 72.235311 
L 208.024747 71.46742 
L 210.205833 70.341885 
L 212.386918 68.990883 
L 214.431685 67.630035 
L 215.249592 67.346818 
L 215.931181 67.326161 
L 216.612771 67.519316 
L 219.475445 68.720305 
L 222.065484 69.510546 
L 224.246569 69.935942 
L 226.291337 70.113913 
L 228.336104 70.079779 
L 230.517189 69.827203 
L 232.97091 69.317231 
L 235.424631 68.629964 
L 238.423624 67.569975 
L 239.786802 67.19846 
L 240.741027 67.155154 
L 241.695251 67.331238 
L 243.331065 67.718853 
L 247.693236 68.418301 
L 250.828546 68.633754 
L 253.691221 68.598629 
L 256.826531 68.334183 
L 260.779748 67.758047 
L 265.550872 67.064453 
L 266.91405 67.231063 
L 268.277228 67.38 
L 273.457306 67.789529 
L 277.410523 67.855727 
L 281.636376 67.69334 
L 286.952771 67.24834 
L 290.088081 67.012558 
L 292.132849 67.139182 
L 302.08405 67.439578 
L 307.945717 67.295945 
L 316.670058 67.046917 
L 321.304865 67.168381 
L 328.666027 67.205277 
L 337.663004 67.007492 
L 341.479904 67.006978 
L 349.931609 67.096592 
L 360.973353 67.009755 
L 368.198198 67.000424 
L 382.647888 67.009218 
L 401.323431 66.999101 
L 498.109091 66.962842 
L 498.109091 66.962842 
" style="fill:none;stroke:#008000;stroke-linecap:square;stroke-width:1.5;"/>
   </g>
   <g id="patch_3">
    <path d="M 72 384.48 
L 72 51.84 
" style="fill:none;stroke:#000000;stroke-linecap:square;stroke-linejoin:miter;stroke-width:0.8;"/>
   </g>
   <g id="patch_4">
    <path d="M 518.4 384.48 
L 518.4 51.84 
" style="fill:none;stroke:#000000;stroke-linecap:square;stroke-linejoin:miter;stroke-width:0.8;"/>
   </g>
   <g id="patch_5">
    <path d="M 72 384.48 
L 518.4 384.48 
" style="fill:none;stroke:#000000;stroke-linecap:square;stroke-linejoin:miter;stroke-width:0.8;"/>
   </g>
   <g id="patch_6">
    <path d="M 72 51.84 
L 518.4 51.84 
" style="fill:none;stroke:#000000;stroke-linecap:square;stroke-linejoin:miter;stroke-width:0.8;"/>
   </g>
   <g id="text_17">
    <!-- $p^\mathrm{S}_{m} original$ -->
    <g transform="translate(259.57 45.84)scale(0.14 -0.14)">
     <use transform="translate(0 0.765625)" xlink:href="#DejaVuSans-Oblique-70"/>
     <use transform="translate(68.126458 39.046875)scale(0.7)" xlink:href="#DejaVuSans-53"/>
     <use transform="translate(63.476562 -26.578125)scale(0.7)" xlink:href="#DejaVuSans-Oblique-6d"/>
     <use transform="translate(134.399414 0.765625)" xlink:href="#DejaVuSans-Oblique-6f"/>
     <use transform="translate(195.581055 0.765625)" xlink:href="#DejaVuSans-Oblique-72"/>
     <use transform="translate(236.694336 0.765625)" xlink:href="#DejaVuSans-Oblique-69"/>
     <use transform="translate(264.477539 0.765625)" xlink:href="#DejaVuSans-Oblique-67"/>
     <use transform="translate(327.954102 0.765625)" xlink:href="#DejaVuSans-Oblique-69"/>
     <use transform="translate(355.737305 0.765625)" xlink:href="#DejaVuSans-Oblique-6e"/>
     <use transform="translate(419.116211 0.765625)" xlink:href="#DejaVuSans-Oblique-61"/>
     <use transform="translate(480.395508 0.765625)" xlink:href="#DejaVuSans-Oblique-6c"/>
    </g>
   </g>
   <g id="legend_1">
    <g id="patch_7">
     <path d="M 79 127.54 
L 160 127.54 
Q 162 127.54 162 125.54 
L 162 58.84 
Q 162 56.84 160 56.84 
L 79 56.84 
Q 77 56.84 77 58.84 
L 77 125.54 
Q 77 127.54 79 127.54 
z
" style="fill:#ffffff;opacity:0.8;stroke:#cccccc;stroke-linejoin:miter;"/>
    </g>
    <g id="line2d_33">
     <path d="M 81 66.44 
L 101 66.44 
" style="fill:none;stroke:#bf00bf;stroke-linecap:square;stroke-width:1.5;"/>
    </g>
    <g id="line2d_34"/>
    <g id="text_18">
     <!-- $p^\mathrm{S}_{1} original$ -->
     <g transform="translate(109 69.94)scale(0.1 -0.1)">
      <use transform="translate(0 0.765625)" xlink:href="#DejaVuSans-Oblique-70"/>
      <use transform="translate(68.126458 39.046875)scale(0.7)" xlink:href="#DejaVuSans-53"/>
      <use transform="translate(63.476562 -26.578125)scale(0.7)" xlink:href="#DejaVuSans-31"/>
      <use transform="translate(115.294427 0.765625)" xlink:href="#DejaVuSans-Oblique-6f"/>
      <use transform="translate(176.476068 0.765625)" xlink:href="#DejaVuSans-Oblique-72"/>
      <use transform="translate(217.589349 0.765625)" xlink:href="#DejaVuSans-Oblique-69"/>
      <use transform="translate(245.372552 0.765625)" xlink:href="#DejaVuSans-Oblique-67"/>
      <use transform="translate(308.849115 0.765625)" xlink:href="#DejaVuSans-Oblique-69"/>
      <use transform="translate(336.632318 0.765625)" xlink:href="#DejaVuSans-Oblique-6e"/>
      <use transform="translate(400.011224 0.765625)" xlink:href="#DejaVuSans-Oblique-61"/>
      <use transform="translate(461.290521 0.765625)" xlink:href="#DejaVuSans-Oblique-6c"/>
     </g>
    </g>
    <g id="line2d_35">
     <path d="M 81 83.34 
L 101 83.34 
" style="fill:none;stroke:#00bfbf;stroke-linecap:square;stroke-width:1.5;"/>
    </g>
    <g id="line2d_36"/>
    <g id="text_19">
     <!-- $p^\mathrm{S}_{2} original$ -->
     <g transform="translate(109 86.84)scale(0.1 -0.1)">
      <use transform="translate(0 0.765625)" xlink:href="#DejaVuSans-Oblique-70"/>
      <use transform="translate(68.126458 39.046875)scale(0.7)" xlink:href="#DejaVuSans-53"/>
      <use transform="translate(63.476562 -26.578125)scale(0.7)" xlink:href="#DejaVuSans-32"/>
      <use transform="translate(115.294427 0.765625)" xlink:href="#DejaVuSans-Oblique-6f"/>
      <use transform="translate(176.476068 0.765625)" xlink:href="#DejaVuSans-Oblique-72"/>
      <use transform="translate(217.589349 0.765625)" xlink:href="#DejaVuSans-Oblique-69"/>
      <use transform="translate(245.372552 0.765625)" xlink:href="#DejaVuSans-Oblique-67"/>
      <use transform="translate(308.849115 0.765625)" xlink:href="#DejaVuSans-Oblique-69"/>
      <use transform="translate(336.632318 0.765625)" xlink:href="#DejaVuSans-Oblique-6e"/>
      <use transform="translate(400.011224 0.765625)" xlink:href="#DejaVuSans-Oblique-61"/>
      <use transform="translate(461.290521 0.765625)" xlink:href="#DejaVuSans-Oblique-6c"/>
     </g>
    </g>
    <g id="line2d_37">
     <path d="M 81 100.24 
L 101 100.24 
" style="fill:none;stroke:#ff0000;stroke-linecap:square;stroke-width:1.5;"/>
    </g>
    <g id="line2d_38"/>
    <g id="text_20">
     <!-- $p^\mathrm{S}_{3} original$ -->
     <g transform="translate(109 103.74)scale(0.1 -0.1)">
      <use transform="translate(0 0.765625)" xlink:href="#DejaVuSans-Oblique-70"/>
      <use transform="translate(68.126458 39.046875)scale(0.7)" xlink:href="#DejaVuSans-53"/>
      <use transform="translate(63.476562 -26.578125)scale(0.7)" xlink:href="#DejaVuSans-33"/>
      <use transform="translate(115.294427 0.765625)" xlink:href="#DejaVuSans-Oblique-6f"/>
      <use transform="translate(176.476068 0.765625)" xlink:href="#DejaVuSans-Oblique-72"/>
      <use transform="translate(217.589349 0.765625)" xlink:href="#DejaVuSans-Oblique-69"/>
      <use transform="translate(245.372552 0.765625)" xlink:href="#DejaVuSans-Oblique-67"/>
      <use transform="translate(308.849115 0.765625)" xlink:href="#DejaVuSans-Oblique-69"/>
      <use transform="translate(336.632318 0.765625)" xlink:href="#DejaVuSans-Oblique-6e"/>
      <use transform="translate(400.011224 0.765625)" xlink:href="#DejaVuSans-Oblique-61"/>
      <use transform="translate(461.290521 0.765625)" xlink:href="#DejaVuSans-Oblique-6c"/>
     </g>
    </g>
    <g id="line2d_39">
     <path d="M 81 117.24 
L 101 117.24 
" style="fill:none;stroke:#008000;stroke-linecap:square;stroke-width:1.5;"/>
    </g>
    <g id="line2d_40"/>
    <g id="text_21">
     <!-- $p^\mathrm{S}_{4} original$ -->
     <defs>
      <path d="M 37.796875 64.3125 
L 12.890625 25.390625 
L 37.796875 25.390625 
z
M 35.203125 72.90625 
L 47.609375 72.90625 
L 47.609375 25.390625 
L 58.015625 25.390625 
L 58.015625 17.1875 
L 47.609375 17.1875 
L 47.609375 0 
L 37.796875 0 
L 37.796875 17.1875 
L 4.890625 17.1875 
L 4.890625 26.703125 
z
" id="DejaVuSans-34"/>
     </defs>
     <g transform="translate(109 120.74)scale(0.1 -0.1)">
      <use transform="translate(0 0.765625)" xlink:href="#DejaVuSans-Oblique-70"/>
      <use transform="translate(68.126458 39.046875)scale(0.7)" xlink:href="#DejaVuSans-53"/>
      <use transform="translate(63.476562 -26.578125)scale(0.7)" xlink:href="#DejaVuSans-34"/>
      <use transform="translate(115.294427 0.765625)" xlink:href="#DejaVuSans-Oblique-6f"/>
      <use transform="translate(176.476068 0.765625)" xlink:href="#DejaVuSans-Oblique-72"/>
      <use transform="translate(217.589349 0.765625)" xlink:href="#DejaVuSans-Oblique-69"/>
      <use transform="translate(245.372552 0.765625)" xlink:href="#DejaVuSans-Oblique-67"/>
      <use transform="translate(308.849115 0.765625)" xlink:href="#DejaVuSans-Oblique-69"/>
      <use transform="translate(336.632318 0.765625)" xlink:href="#DejaVuSans-Oblique-6e"/>
      <use transform="translate(400.011224 0.765625)" xlink:href="#DejaVuSans-Oblique-61"/>
      <use transform="translate(461.290521 0.765625)" xlink:href="#DejaVuSans-Oblique-6c"/>
     </g>
    </g>
   </g>
  </g>
 </g>
 <defs>
  <clipPath id="p0e626f0eb2">
   <rect height="332.64" width="446.4" x="72" y="51.84"/>
  </clipPath>
 </defs>
</svg>
