<?xml version="1.0" encoding="utf-8" standalone="no"?>
<!DOCTYPE svg PUBLIC "-//W3C//DTD SVG 1.1//EN"
  "http://www.w3.org/Graphics/SVG/1.1/DTD/svg11.dtd">
<!-- Created with matplotlib (http://matplotlib.org/) -->
<svg height="432pt" version="1.1" viewBox="0 0 576 432" width="576pt" xmlns="http://www.w3.org/2000/svg" xmlns:xlink="http://www.w3.org/1999/xlink">
 <defs>
  <style type="text/css">
*{stroke-linecap:butt;stroke-linejoin:round;}
  </style>
 </defs>
 <g id="figure_1">
  <g id="patch_1">
   <path d="M 0 432 
L 576 432 
L 576 0 
L 0 0 
z
" style="fill:#ffffff;"/>
  </g>
  <g id="axes_1">
   <g id="patch_2">
    <path d="M 72 384.48 
L 518.4 384.48 
L 518.4 51.84 
L 72 51.84 
z
" style="fill:#ffffff;"/>
   </g>
   <g id="matplotlib.axis_1">
    <g id="xtick_1">
     <g id="line2d_1">
      <path clip-path="url(#p84549a3af5)" d="M 92.290909 384.48 
L 92.290909 51.84 
" style="fill:none;stroke:#b0b0b0;stroke-dasharray:5.12,1.28,0.8,1.28;stroke-dashoffset:0;stroke-width:0.8;"/>
     </g>
     <g id="line2d_2">
      <defs>
       <path d="M 0 0 
L 0 3.5 
" id="mf34fda49c3" style="stroke:#000000;stroke-width:0.8;"/>
      </defs>
      <g>
       <use style="stroke:#000000;stroke-width:0.8;" x="92.290909" xlink:href="#mf34fda49c3" y="384.48"/>
      </g>
     </g>
     <g id="text_1">
      <!-- 0 -->
      <defs>
       <path d="M 31.78125 66.40625 
Q 24.171875 66.40625 20.328125 58.90625 
Q 16.5 51.421875 16.5 36.375 
Q 16.5 21.390625 20.328125 13.890625 
Q 24.171875 6.390625 31.78125 6.390625 
Q 39.453125 6.390625 43.28125 13.890625 
Q 47.125 21.390625 47.125 36.375 
Q 47.125 51.421875 43.28125 58.90625 
Q 39.453125 66.40625 31.78125 66.40625 
z
M 31.78125 74.21875 
Q 44.046875 74.21875 50.515625 64.515625 
Q 56.984375 54.828125 56.984375 36.375 
Q 56.984375 17.96875 50.515625 8.265625 
Q 44.046875 -1.421875 31.78125 -1.421875 
Q 19.53125 -1.421875 13.0625 8.265625 
Q 6.59375 17.96875 6.59375 36.375 
Q 6.59375 54.828125 13.0625 64.515625 
Q 19.53125 74.21875 31.78125 74.21875 
z
" id="DejaVuSans-30"/>
      </defs>
      <g transform="translate(89.109659 399.078438)scale(0.1 -0.1)">
       <use xlink:href="#DejaVuSans-30"/>
      </g>
     </g>
    </g>
    <g id="xtick_2">
     <g id="line2d_3">
      <path clip-path="url(#p84549a3af5)" d="M 155.635665 384.48 
L 155.635665 51.84 
" style="fill:none;stroke:#b0b0b0;stroke-dasharray:5.12,1.28,0.8,1.28;stroke-dashoffset:0;stroke-width:0.8;"/>
     </g>
     <g id="line2d_4">
      <g>
       <use style="stroke:#000000;stroke-width:0.8;" x="155.635665" xlink:href="#mf34fda49c3" y="384.48"/>
      </g>
     </g>
     <g id="text_2">
      <!-- 2000 -->
      <defs>
       <path d="M 19.1875 8.296875 
L 53.609375 8.296875 
L 53.609375 0 
L 7.328125 0 
L 7.328125 8.296875 
Q 12.9375 14.109375 22.625 23.890625 
Q 32.328125 33.6875 34.8125 36.53125 
Q 39.546875 41.84375 41.421875 45.53125 
Q 43.3125 49.21875 43.3125 52.78125 
Q 43.3125 58.59375 39.234375 62.25 
Q 35.15625 65.921875 28.609375 65.921875 
Q 23.96875 65.921875 18.8125 64.3125 
Q 13.671875 62.703125 7.8125 59.421875 
L 7.8125 69.390625 
Q 13.765625 71.78125 18.9375 73 
Q 24.125 74.21875 28.421875 74.21875 
Q 39.75 74.21875 46.484375 68.546875 
Q 53.21875 62.890625 53.21875 53.421875 
Q 53.21875 48.921875 51.53125 44.890625 
Q 49.859375 40.875 45.40625 35.40625 
Q 44.1875 33.984375 37.640625 27.21875 
Q 31.109375 20.453125 19.1875 8.296875 
z
" id="DejaVuSans-32"/>
      </defs>
      <g transform="translate(142.910665 399.078438)scale(0.1 -0.1)">
       <use xlink:href="#DejaVuSans-32"/>
       <use x="63.623047" xlink:href="#DejaVuSans-30"/>
       <use x="127.246094" xlink:href="#DejaVuSans-30"/>
       <use x="190.869141" xlink:href="#DejaVuSans-30"/>
      </g>
     </g>
    </g>
    <g id="xtick_3">
     <g id="line2d_5">
      <path clip-path="url(#p84549a3af5)" d="M 218.980422 384.48 
L 218.980422 51.84 
" style="fill:none;stroke:#b0b0b0;stroke-dasharray:5.12,1.28,0.8,1.28;stroke-dashoffset:0;stroke-width:0.8;"/>
     </g>
     <g id="line2d_6">
      <g>
       <use style="stroke:#000000;stroke-width:0.8;" x="218.980422" xlink:href="#mf34fda49c3" y="384.48"/>
      </g>
     </g>
     <g id="text_3">
      <!-- 4000 -->
      <defs>
       <path d="M 37.796875 64.3125 
L 12.890625 25.390625 
L 37.796875 25.390625 
z
M 35.203125 72.90625 
L 47.609375 72.90625 
L 47.609375 25.390625 
L 58.015625 25.390625 
L 58.015625 17.1875 
L 47.609375 17.1875 
L 47.609375 0 
L 37.796875 0 
L 37.796875 17.1875 
L 4.890625 17.1875 
L 4.890625 26.703125 
z
" id="DejaVuSans-34"/>
      </defs>
      <g transform="translate(206.255422 399.078438)scale(0.1 -0.1)">
       <use xlink:href="#DejaVuSans-34"/>
       <use x="63.623047" xlink:href="#DejaVuSans-30"/>
       <use x="127.246094" xlink:href="#DejaVuSans-30"/>
       <use x="190.869141" xlink:href="#DejaVuSans-30"/>
      </g>
     </g>
    </g>
    <g id="xtick_4">
     <g id="line2d_7">
      <path clip-path="url(#p84549a3af5)" d="M 282.325178 384.48 
L 282.325178 51.84 
" style="fill:none;stroke:#b0b0b0;stroke-dasharray:5.12,1.28,0.8,1.28;stroke-dashoffset:0;stroke-width:0.8;"/>
     </g>
     <g id="line2d_8">
      <g>
       <use style="stroke:#000000;stroke-width:0.8;" x="282.325178" xlink:href="#mf34fda49c3" y="384.48"/>
      </g>
     </g>
     <g id="text_4">
      <!-- 6000 -->
      <defs>
       <path d="M 33.015625 40.375 
Q 26.375 40.375 22.484375 35.828125 
Q 18.609375 31.296875 18.609375 23.390625 
Q 18.609375 15.53125 22.484375 10.953125 
Q 26.375 6.390625 33.015625 6.390625 
Q 39.65625 6.390625 43.53125 10.953125 
Q 47.40625 15.53125 47.40625 23.390625 
Q 47.40625 31.296875 43.53125 35.828125 
Q 39.65625 40.375 33.015625 40.375 
z
M 52.59375 71.296875 
L 52.59375 62.3125 
Q 48.875 64.0625 45.09375 64.984375 
Q 41.3125 65.921875 37.59375 65.921875 
Q 27.828125 65.921875 22.671875 59.328125 
Q 17.53125 52.734375 16.796875 39.40625 
Q 19.671875 43.65625 24.015625 45.921875 
Q 28.375 48.1875 33.59375 48.1875 
Q 44.578125 48.1875 50.953125 41.515625 
Q 57.328125 34.859375 57.328125 23.390625 
Q 57.328125 12.15625 50.6875 5.359375 
Q 44.046875 -1.421875 33.015625 -1.421875 
Q 20.359375 -1.421875 13.671875 8.265625 
Q 6.984375 17.96875 6.984375 36.375 
Q 6.984375 53.65625 15.1875 63.9375 
Q 23.390625 74.21875 37.203125 74.21875 
Q 40.921875 74.21875 44.703125 73.484375 
Q 48.484375 72.75 52.59375 71.296875 
z
" id="DejaVuSans-36"/>
      </defs>
      <g transform="translate(269.600178 399.078438)scale(0.1 -0.1)">
       <use xlink:href="#DejaVuSans-36"/>
       <use x="63.623047" xlink:href="#DejaVuSans-30"/>
       <use x="127.246094" xlink:href="#DejaVuSans-30"/>
       <use x="190.869141" xlink:href="#DejaVuSans-30"/>
      </g>
     </g>
    </g>
    <g id="xtick_5">
     <g id="line2d_9">
      <path clip-path="url(#p84549a3af5)" d="M 345.669935 384.48 
L 345.669935 51.84 
" style="fill:none;stroke:#b0b0b0;stroke-dasharray:5.12,1.28,0.8,1.28;stroke-dashoffset:0;stroke-width:0.8;"/>
     </g>
     <g id="line2d_10">
      <g>
       <use style="stroke:#000000;stroke-width:0.8;" x="345.669935" xlink:href="#mf34fda49c3" y="384.48"/>
      </g>
     </g>
     <g id="text_5">
      <!-- 8000 -->
      <defs>
       <path d="M 31.78125 34.625 
Q 24.75 34.625 20.71875 30.859375 
Q 16.703125 27.09375 16.703125 20.515625 
Q 16.703125 13.921875 20.71875 10.15625 
Q 24.75 6.390625 31.78125 6.390625 
Q 38.8125 6.390625 42.859375 10.171875 
Q 46.921875 13.96875 46.921875 20.515625 
Q 46.921875 27.09375 42.890625 30.859375 
Q 38.875 34.625 31.78125 34.625 
z
M 21.921875 38.8125 
Q 15.578125 40.375 12.03125 44.71875 
Q 8.5 49.078125 8.5 55.328125 
Q 8.5 64.0625 14.71875 69.140625 
Q 20.953125 74.21875 31.78125 74.21875 
Q 42.671875 74.21875 48.875 69.140625 
Q 55.078125 64.0625 55.078125 55.328125 
Q 55.078125 49.078125 51.53125 44.71875 
Q 48 40.375 41.703125 38.8125 
Q 48.828125 37.15625 52.796875 32.3125 
Q 56.78125 27.484375 56.78125 20.515625 
Q 56.78125 9.90625 50.3125 4.234375 
Q 43.84375 -1.421875 31.78125 -1.421875 
Q 19.734375 -1.421875 13.25 4.234375 
Q 6.78125 9.90625 6.78125 20.515625 
Q 6.78125 27.484375 10.78125 32.3125 
Q 14.796875 37.15625 21.921875 38.8125 
z
M 18.3125 54.390625 
Q 18.3125 48.734375 21.84375 45.5625 
Q 25.390625 42.390625 31.78125 42.390625 
Q 38.140625 42.390625 41.71875 45.5625 
Q 45.3125 48.734375 45.3125 54.390625 
Q 45.3125 60.0625 41.71875 63.234375 
Q 38.140625 66.40625 31.78125 66.40625 
Q 25.390625 66.40625 21.84375 63.234375 
Q 18.3125 60.0625 18.3125 54.390625 
z
" id="DejaVuSans-38"/>
      </defs>
      <g transform="translate(332.944935 399.078438)scale(0.1 -0.1)">
       <use xlink:href="#DejaVuSans-38"/>
       <use x="63.623047" xlink:href="#DejaVuSans-30"/>
       <use x="127.246094" xlink:href="#DejaVuSans-30"/>
       <use x="190.869141" xlink:href="#DejaVuSans-30"/>
      </g>
     </g>
    </g>
    <g id="xtick_6">
     <g id="line2d_11">
      <path clip-path="url(#p84549a3af5)" d="M 409.014691 384.48 
L 409.014691 51.84 
" style="fill:none;stroke:#b0b0b0;stroke-dasharray:5.12,1.28,0.8,1.28;stroke-dashoffset:0;stroke-width:0.8;"/>
     </g>
     <g id="line2d_12">
      <g>
       <use style="stroke:#000000;stroke-width:0.8;" x="409.014691" xlink:href="#mf34fda49c3" y="384.48"/>
      </g>
     </g>
     <g id="text_6">
      <!-- 10000 -->
      <defs>
       <path d="M 12.40625 8.296875 
L 28.515625 8.296875 
L 28.515625 63.921875 
L 10.984375 60.40625 
L 10.984375 69.390625 
L 28.421875 72.90625 
L 38.28125 72.90625 
L 38.28125 8.296875 
L 54.390625 8.296875 
L 54.390625 0 
L 12.40625 0 
z
" id="DejaVuSans-31"/>
      </defs>
      <g transform="translate(393.108441 399.078438)scale(0.1 -0.1)">
       <use xlink:href="#DejaVuSans-31"/>
       <use x="63.623047" xlink:href="#DejaVuSans-30"/>
       <use x="127.246094" xlink:href="#DejaVuSans-30"/>
       <use x="190.869141" xlink:href="#DejaVuSans-30"/>
       <use x="254.492188" xlink:href="#DejaVuSans-30"/>
      </g>
     </g>
    </g>
    <g id="xtick_7">
     <g id="line2d_13">
      <path clip-path="url(#p84549a3af5)" d="M 472.359447 384.48 
L 472.359447 51.84 
" style="fill:none;stroke:#b0b0b0;stroke-dasharray:5.12,1.28,0.8,1.28;stroke-dashoffset:0;stroke-width:0.8;"/>
     </g>
     <g id="line2d_14">
      <g>
       <use style="stroke:#000000;stroke-width:0.8;" x="472.359447" xlink:href="#mf34fda49c3" y="384.48"/>
      </g>
     </g>
     <g id="text_7">
      <!-- 12000 -->
      <g transform="translate(456.453197 399.078438)scale(0.1 -0.1)">
       <use xlink:href="#DejaVuSans-31"/>
       <use x="63.623047" xlink:href="#DejaVuSans-32"/>
       <use x="127.246094" xlink:href="#DejaVuSans-30"/>
       <use x="190.869141" xlink:href="#DejaVuSans-30"/>
       <use x="254.492188" xlink:href="#DejaVuSans-30"/>
      </g>
     </g>
    </g>
    <g id="text_8">
     <!-- Iteration -->
     <defs>
      <path d="M 9.8125 72.90625 
L 19.671875 72.90625 
L 19.671875 0 
L 9.8125 0 
z
" id="DejaVuSans-49"/>
      <path d="M 18.3125 70.21875 
L 18.3125 54.6875 
L 36.8125 54.6875 
L 36.8125 47.703125 
L 18.3125 47.703125 
L 18.3125 18.015625 
Q 18.3125 11.328125 20.140625 9.421875 
Q 21.96875 7.515625 27.59375 7.515625 
L 36.8125 7.515625 
L 36.8125 0 
L 27.59375 0 
Q 17.1875 0 13.234375 3.875 
Q 9.28125 7.765625 9.28125 18.015625 
L 9.28125 47.703125 
L 2.6875 47.703125 
L 2.6875 54.6875 
L 9.28125 54.6875 
L 9.28125 70.21875 
z
" id="DejaVuSans-74"/>
      <path d="M 56.203125 29.59375 
L 56.203125 25.203125 
L 14.890625 25.203125 
Q 15.484375 15.921875 20.484375 11.0625 
Q 25.484375 6.203125 34.421875 6.203125 
Q 39.59375 6.203125 44.453125 7.46875 
Q 49.3125 8.734375 54.109375 11.28125 
L 54.109375 2.78125 
Q 49.265625 0.734375 44.1875 -0.34375 
Q 39.109375 -1.421875 33.890625 -1.421875 
Q 20.796875 -1.421875 13.15625 6.1875 
Q 5.515625 13.8125 5.515625 26.8125 
Q 5.515625 40.234375 12.765625 48.109375 
Q 20.015625 56 32.328125 56 
Q 43.359375 56 49.78125 48.890625 
Q 56.203125 41.796875 56.203125 29.59375 
z
M 47.21875 32.234375 
Q 47.125 39.59375 43.09375 43.984375 
Q 39.0625 48.390625 32.421875 48.390625 
Q 24.90625 48.390625 20.390625 44.140625 
Q 15.875 39.890625 15.1875 32.171875 
z
" id="DejaVuSans-65"/>
      <path d="M 41.109375 46.296875 
Q 39.59375 47.171875 37.8125 47.578125 
Q 36.03125 48 33.890625 48 
Q 26.265625 48 22.1875 43.046875 
Q 18.109375 38.09375 18.109375 28.8125 
L 18.109375 0 
L 9.078125 0 
L 9.078125 54.6875 
L 18.109375 54.6875 
L 18.109375 46.1875 
Q 20.953125 51.171875 25.484375 53.578125 
Q 30.03125 56 36.53125 56 
Q 37.453125 56 38.578125 55.875 
Q 39.703125 55.765625 41.0625 55.515625 
z
" id="DejaVuSans-72"/>
      <path d="M 34.28125 27.484375 
Q 23.390625 27.484375 19.1875 25 
Q 14.984375 22.515625 14.984375 16.5 
Q 14.984375 11.71875 18.140625 8.90625 
Q 21.296875 6.109375 26.703125 6.109375 
Q 34.1875 6.109375 38.703125 11.40625 
Q 43.21875 16.703125 43.21875 25.484375 
L 43.21875 27.484375 
z
M 52.203125 31.203125 
L 52.203125 0 
L 43.21875 0 
L 43.21875 8.296875 
Q 40.140625 3.328125 35.546875 0.953125 
Q 30.953125 -1.421875 24.3125 -1.421875 
Q 15.921875 -1.421875 10.953125 3.296875 
Q 6 8.015625 6 15.921875 
Q 6 25.140625 12.171875 29.828125 
Q 18.359375 34.515625 30.609375 34.515625 
L 43.21875 34.515625 
L 43.21875 35.40625 
Q 43.21875 41.609375 39.140625 45 
Q 35.0625 48.390625 27.6875 48.390625 
Q 23 48.390625 18.546875 47.265625 
Q 14.109375 46.140625 10.015625 43.890625 
L 10.015625 52.203125 
Q 14.9375 54.109375 19.578125 55.046875 
Q 24.21875 56 28.609375 56 
Q 40.484375 56 46.34375 49.84375 
Q 52.203125 43.703125 52.203125 31.203125 
z
" id="DejaVuSans-61"/>
      <path d="M 9.421875 54.6875 
L 18.40625 54.6875 
L 18.40625 0 
L 9.421875 0 
z
M 9.421875 75.984375 
L 18.40625 75.984375 
L 18.40625 64.59375 
L 9.421875 64.59375 
z
" id="DejaVuSans-69"/>
      <path d="M 30.609375 48.390625 
Q 23.390625 48.390625 19.1875 42.75 
Q 14.984375 37.109375 14.984375 27.296875 
Q 14.984375 17.484375 19.15625 11.84375 
Q 23.34375 6.203125 30.609375 6.203125 
Q 37.796875 6.203125 41.984375 11.859375 
Q 46.1875 17.53125 46.1875 27.296875 
Q 46.1875 37.015625 41.984375 42.703125 
Q 37.796875 48.390625 30.609375 48.390625 
z
M 30.609375 56 
Q 42.328125 56 49.015625 48.375 
Q 55.71875 40.765625 55.71875 27.296875 
Q 55.71875 13.875 49.015625 6.21875 
Q 42.328125 -1.421875 30.609375 -1.421875 
Q 18.84375 -1.421875 12.171875 6.21875 
Q 5.515625 13.875 5.515625 27.296875 
Q 5.515625 40.765625 12.171875 48.375 
Q 18.84375 56 30.609375 56 
z
" id="DejaVuSans-6f"/>
      <path d="M 54.890625 33.015625 
L 54.890625 0 
L 45.90625 0 
L 45.90625 32.71875 
Q 45.90625 40.484375 42.875 44.328125 
Q 39.84375 48.1875 33.796875 48.1875 
Q 26.515625 48.1875 22.3125 43.546875 
Q 18.109375 38.921875 18.109375 30.90625 
L 18.109375 0 
L 9.078125 0 
L 9.078125 54.6875 
L 18.109375 54.6875 
L 18.109375 46.1875 
Q 21.34375 51.125 25.703125 53.5625 
Q 30.078125 56 35.796875 56 
Q 45.21875 56 50.046875 50.171875 
Q 54.890625 44.34375 54.890625 33.015625 
z
" id="DejaVuSans-6e"/>
     </defs>
     <g transform="translate(265.507969 415.795938)scale(0.14 -0.14)">
      <use xlink:href="#DejaVuSans-49"/>
      <use x="29.492188" xlink:href="#DejaVuSans-74"/>
      <use x="68.701172" xlink:href="#DejaVuSans-65"/>
      <use x="130.224609" xlink:href="#DejaVuSans-72"/>
      <use x="171.337891" xlink:href="#DejaVuSans-61"/>
      <use x="232.617188" xlink:href="#DejaVuSans-74"/>
      <use x="271.826172" xlink:href="#DejaVuSans-69"/>
      <use x="299.609375" xlink:href="#DejaVuSans-6f"/>
      <use x="360.791016" xlink:href="#DejaVuSans-6e"/>
     </g>
    </g>
   </g>
   <g id="matplotlib.axis_2">
    <g id="ytick_1">
     <g id="line2d_15">
      <path clip-path="url(#p84549a3af5)" d="M 72 360.907884 
L 518.4 360.907884 
" style="fill:none;stroke:#b0b0b0;stroke-dasharray:5.12,1.28,0.8,1.28;stroke-dashoffset:0;stroke-width:0.8;"/>
     </g>
     <g id="line2d_16">
      <defs>
       <path d="M 0 0 
L -3.5 0 
" id="mdf1a90aa59" style="stroke:#000000;stroke-width:0.8;"/>
      </defs>
      <g>
       <use style="stroke:#000000;stroke-width:0.8;" x="72" xlink:href="#mdf1a90aa59" y="360.907884"/>
      </g>
     </g>
     <g id="text_9">
      <!-- −1.0 -->
      <defs>
       <path d="M 10.59375 35.5 
L 73.1875 35.5 
L 73.1875 27.203125 
L 10.59375 27.203125 
z
" id="DejaVuSans-2212"/>
       <path d="M 10.6875 12.40625 
L 21 12.40625 
L 21 0 
L 10.6875 0 
z
" id="DejaVuSans-2e"/>
      </defs>
      <g transform="translate(40.717187 364.707103)scale(0.1 -0.1)">
       <use xlink:href="#DejaVuSans-2212"/>
       <use x="83.789062" xlink:href="#DejaVuSans-31"/>
       <use x="147.412109" xlink:href="#DejaVuSans-2e"/>
       <use x="179.199219" xlink:href="#DejaVuSans-30"/>
      </g>
     </g>
    </g>
    <g id="ytick_2">
     <g id="line2d_17">
      <path clip-path="url(#p84549a3af5)" d="M 72 323.755725 
L 518.4 323.755725 
" style="fill:none;stroke:#b0b0b0;stroke-dasharray:5.12,1.28,0.8,1.28;stroke-dashoffset:0;stroke-width:0.8;"/>
     </g>
     <g id="line2d_18">
      <g>
       <use style="stroke:#000000;stroke-width:0.8;" x="72" xlink:href="#mdf1a90aa59" y="323.755725"/>
      </g>
     </g>
     <g id="text_10">
      <!-- −0.8 -->
      <g transform="translate(40.717187 327.554943)scale(0.1 -0.1)">
       <use xlink:href="#DejaVuSans-2212"/>
       <use x="83.789062" xlink:href="#DejaVuSans-30"/>
       <use x="147.412109" xlink:href="#DejaVuSans-2e"/>
       <use x="179.199219" xlink:href="#DejaVuSans-38"/>
      </g>
     </g>
    </g>
    <g id="ytick_3">
     <g id="line2d_19">
      <path clip-path="url(#p84549a3af5)" d="M 72 286.603565 
L 518.4 286.603565 
" style="fill:none;stroke:#b0b0b0;stroke-dasharray:5.12,1.28,0.8,1.28;stroke-dashoffset:0;stroke-width:0.8;"/>
     </g>
     <g id="line2d_20">
      <g>
       <use style="stroke:#000000;stroke-width:0.8;" x="72" xlink:href="#mdf1a90aa59" y="286.603565"/>
      </g>
     </g>
     <g id="text_11">
      <!-- −0.6 -->
      <g transform="translate(40.717187 290.402784)scale(0.1 -0.1)">
       <use xlink:href="#DejaVuSans-2212"/>
       <use x="83.789062" xlink:href="#DejaVuSans-30"/>
       <use x="147.412109" xlink:href="#DejaVuSans-2e"/>
       <use x="179.199219" xlink:href="#DejaVuSans-36"/>
      </g>
     </g>
    </g>
    <g id="ytick_4">
     <g id="line2d_21">
      <path clip-path="url(#p84549a3af5)" d="M 72 249.451406 
L 518.4 249.451406 
" style="fill:none;stroke:#b0b0b0;stroke-dasharray:5.12,1.28,0.8,1.28;stroke-dashoffset:0;stroke-width:0.8;"/>
     </g>
     <g id="line2d_22">
      <g>
       <use style="stroke:#000000;stroke-width:0.8;" x="72" xlink:href="#mdf1a90aa59" y="249.451406"/>
      </g>
     </g>
     <g id="text_12">
      <!-- −0.4 -->
      <g transform="translate(40.717187 253.250625)scale(0.1 -0.1)">
       <use xlink:href="#DejaVuSans-2212"/>
       <use x="83.789062" xlink:href="#DejaVuSans-30"/>
       <use x="147.412109" xlink:href="#DejaVuSans-2e"/>
       <use x="179.199219" xlink:href="#DejaVuSans-34"/>
      </g>
     </g>
    </g>
    <g id="ytick_5">
     <g id="line2d_23">
      <path clip-path="url(#p84549a3af5)" d="M 72 212.299247 
L 518.4 212.299247 
" style="fill:none;stroke:#b0b0b0;stroke-dasharray:5.12,1.28,0.8,1.28;stroke-dashoffset:0;stroke-width:0.8;"/>
     </g>
     <g id="line2d_24">
      <g>
       <use style="stroke:#000000;stroke-width:0.8;" x="72" xlink:href="#mdf1a90aa59" y="212.299247"/>
      </g>
     </g>
     <g id="text_13">
      <!-- −0.2 -->
      <g transform="translate(40.717187 216.098466)scale(0.1 -0.1)">
       <use xlink:href="#DejaVuSans-2212"/>
       <use x="83.789062" xlink:href="#DejaVuSans-30"/>
       <use x="147.412109" xlink:href="#DejaVuSans-2e"/>
       <use x="179.199219" xlink:href="#DejaVuSans-32"/>
      </g>
     </g>
    </g>
    <g id="ytick_6">
     <g id="line2d_25">
      <path clip-path="url(#p84549a3af5)" d="M 72 175.147088 
L 518.4 175.147088 
" style="fill:none;stroke:#b0b0b0;stroke-dasharray:5.12,1.28,0.8,1.28;stroke-dashoffset:0;stroke-width:0.8;"/>
     </g>
     <g id="line2d_26">
      <g>
       <use style="stroke:#000000;stroke-width:0.8;" x="72" xlink:href="#mdf1a90aa59" y="175.147088"/>
      </g>
     </g>
     <g id="text_14">
      <!-- 0.0 -->
      <g transform="translate(49.096875 178.946306)scale(0.1 -0.1)">
       <use xlink:href="#DejaVuSans-30"/>
       <use x="63.623047" xlink:href="#DejaVuSans-2e"/>
       <use x="95.410156" xlink:href="#DejaVuSans-30"/>
      </g>
     </g>
    </g>
    <g id="ytick_7">
     <g id="line2d_27">
      <path clip-path="url(#p84549a3af5)" d="M 72 137.994928 
L 518.4 137.994928 
" style="fill:none;stroke:#b0b0b0;stroke-dasharray:5.12,1.28,0.8,1.28;stroke-dashoffset:0;stroke-width:0.8;"/>
     </g>
     <g id="line2d_28">
      <g>
       <use style="stroke:#000000;stroke-width:0.8;" x="72" xlink:href="#mdf1a90aa59" y="137.994928"/>
      </g>
     </g>
     <g id="text_15">
      <!-- 0.2 -->
      <g transform="translate(49.096875 141.794147)scale(0.1 -0.1)">
       <use xlink:href="#DejaVuSans-30"/>
       <use x="63.623047" xlink:href="#DejaVuSans-2e"/>
       <use x="95.410156" xlink:href="#DejaVuSans-32"/>
      </g>
     </g>
    </g>
    <g id="ytick_8">
     <g id="line2d_29">
      <path clip-path="url(#p84549a3af5)" d="M 72 100.842769 
L 518.4 100.842769 
" style="fill:none;stroke:#b0b0b0;stroke-dasharray:5.12,1.28,0.8,1.28;stroke-dashoffset:0;stroke-width:0.8;"/>
     </g>
     <g id="line2d_30">
      <g>
       <use style="stroke:#000000;stroke-width:0.8;" x="72" xlink:href="#mdf1a90aa59" y="100.842769"/>
      </g>
     </g>
     <g id="text_16">
      <!-- 0.4 -->
      <g transform="translate(49.096875 104.641988)scale(0.1 -0.1)">
       <use xlink:href="#DejaVuSans-30"/>
       <use x="63.623047" xlink:href="#DejaVuSans-2e"/>
       <use x="95.410156" xlink:href="#DejaVuSans-34"/>
      </g>
     </g>
    </g>
    <g id="ytick_9">
     <g id="line2d_31">
      <path clip-path="url(#p84549a3af5)" d="M 72 63.69061 
L 518.4 63.69061 
" style="fill:none;stroke:#b0b0b0;stroke-dasharray:5.12,1.28,0.8,1.28;stroke-dashoffset:0;stroke-width:0.8;"/>
     </g>
     <g id="line2d_32">
      <g>
       <use style="stroke:#000000;stroke-width:0.8;" x="72" xlink:href="#mdf1a90aa59" y="63.69061"/>
      </g>
     </g>
     <g id="text_17">
      <!-- 0.6 -->
      <g transform="translate(49.096875 67.489829)scale(0.1 -0.1)">
       <use xlink:href="#DejaVuSans-30"/>
       <use x="63.623047" xlink:href="#DejaVuSans-2e"/>
       <use x="95.410156" xlink:href="#DejaVuSans-36"/>
      </g>
     </g>
    </g>
    <g id="text_18">
     <!-- $\Delta u_{m}[V]$ -->
     <defs>
      <path d="M 34.1875 63.1875 
L 14.15625 8.203125 
L 54.25 8.203125 
z
M 0.78125 0 
L 28.609375 72.90625 
L 39.796875 72.90625 
L 67.578125 0 
z
" id="DejaVuSans-394"/>
      <path d="M 6.6875 21.6875 
L 13.09375 54.6875 
L 22.125 54.6875 
L 15.71875 22.015625 
Q 15.234375 19.625 15.015625 17.921875 
Q 14.796875 16.21875 14.796875 15.09375 
Q 14.796875 10.9375 17.328125 8.65625 
Q 19.875 6.390625 24.515625 6.390625 
Q 31.734375 6.390625 37 11.265625 
Q 42.28125 16.15625 43.890625 24.421875 
L 49.90625 54.6875 
L 58.890625 54.6875 
L 48.296875 0 
L 39.3125 0 
L 41.109375 8.59375 
Q 37.3125 3.8125 32.0625 1.1875 
Q 26.8125 -1.421875 20.90625 -1.421875 
Q 13.71875 -1.421875 9.71875 2.515625 
Q 5.71875 6.453125 5.71875 13.484375 
Q 5.71875 14.9375 5.953125 17.140625 
Q 6.203125 19.34375 6.6875 21.6875 
z
" id="DejaVuSans-Oblique-75"/>
      <path d="M 89.796875 33.015625 
L 83.40625 0 
L 74.421875 0 
L 80.71875 32.71875 
Q 81.109375 34.8125 81.296875 36.328125 
Q 81.5 37.84375 81.5 38.921875 
Q 81.5 43.3125 79.046875 45.75 
Q 76.609375 48.1875 72.21875 48.1875 
Q 65.671875 48.1875 60.546875 43.28125 
Q 55.421875 38.375 53.90625 30.515625 
L 47.90625 0 
L 38.921875 0 
L 45.3125 32.71875 
Q 45.703125 34.515625 45.890625 36.046875 
Q 46.09375 37.59375 46.09375 38.8125 
Q 46.09375 43.265625 43.65625 45.71875 
Q 41.21875 48.1875 36.921875 48.1875 
Q 30.28125 48.1875 25.140625 43.28125 
Q 20.015625 38.375 18.5 30.515625 
L 12.5 0 
L 3.515625 0 
L 14.203125 54.6875 
L 23.1875 54.6875 
L 21.484375 46.1875 
Q 25.140625 50.984375 30.046875 53.484375 
Q 34.96875 56 40.578125 56 
Q 46.53125 56 50.359375 52.875 
Q 54.203125 49.75 54.984375 44.1875 
Q 59.078125 49.953125 64.46875 52.96875 
Q 69.875 56 75.875 56 
Q 82.90625 56 86.734375 51.953125 
Q 90.578125 47.90625 90.578125 40.484375 
Q 90.578125 38.875 90.375 36.9375 
Q 90.1875 35.015625 89.796875 33.015625 
z
" id="DejaVuSans-Oblique-6d"/>
      <path d="M 8.59375 75.984375 
L 29.296875 75.984375 
L 29.296875 69 
L 17.578125 69 
L 17.578125 -6.203125 
L 29.296875 -6.203125 
L 29.296875 -13.1875 
L 8.59375 -13.1875 
z
" id="DejaVuSans-5b"/>
      <path d="M 20.609375 0 
L 7.8125 72.90625 
L 17.484375 72.90625 
L 28.078125 10.203125 
L 63.484375 72.90625 
L 74.21875 72.90625 
L 32.078125 0 
z
" id="DejaVuSans-Oblique-56"/>
      <path d="M 30.421875 75.984375 
L 30.421875 -13.1875 
L 9.71875 -13.1875 
L 9.71875 -6.203125 
L 21.390625 -6.203125 
L 21.390625 69 
L 9.71875 69 
L 9.71875 75.984375 
z
" id="DejaVuSans-5d"/>
     </defs>
     <g transform="translate(33.805625 242.66)rotate(-90)scale(0.14 -0.14)">
      <use transform="translate(0 0.015625)" xlink:href="#DejaVuSans-394"/>
      <use transform="translate(68.408203 0.015625)" xlink:href="#DejaVuSans-Oblique-75"/>
      <use transform="translate(131.787109 -16.390625)scale(0.7)" xlink:href="#DejaVuSans-Oblique-6d"/>
      <use transform="translate(202.709961 0.015625)" xlink:href="#DejaVuSans-5b"/>
      <use transform="translate(241.723633 0.015625)" xlink:href="#DejaVuSans-Oblique-56"/>
      <use transform="translate(310.131836 0.015625)" xlink:href="#DejaVuSans-5d"/>
     </g>
    </g>
   </g>
   <g id="line2d_33">
    <path clip-path="url(#p84549a3af5)" d="M 92.290909 175.147088 
L 92.322581 175.147088 
L 92.385926 184.47228 
L 92.639305 221.977384 
L 92.797667 223.946449 
L 92.892684 223.612079 
L 93.652821 219.729679 
L 93.969545 219.228125 
L 94.349614 219.116668 
L 95.204768 219.729679 
L 95.23644 219.525342 
L 95.36313 214.026822 
L 95.679854 188.540441 
L 95.996577 172.583589 
L 96.281629 167.660928 
L 96.503335 166.639243 
L 96.598353 166.602091 
L 96.630025 166.639243 
L 96.851732 167.252254 
L 97.390162 169.927209 
L 98.055282 173.568121 
L 98.467023 175.444305 
L 98.56204 175.351425 
L 99.163815 174.218284 
L 99.353849 174.422621 
L 99.797263 175.425729 
L 100.272348 176.280229 
L 100.5574 176.447413 
L 100.810779 176.354533 
L 101.09583 176.075892 
L 101.159175 175.667218 
L 101.475899 173.47524 
L 101.570916 173.252328 
L 101.729278 174.422621 
L 102.109346 167.716656 
L 102.267708 167.382286 
L 102.299381 167.400862 
L 102.394398 167.568047 
L 102.457742 167.456591 
L 102.616104 167.289406 
L 102.711122 167.493743 
L 103.154535 169.778601 
L 103.407914 172.52786 
L 103.787982 179.605347 
L 104.579792 194.670547 
L 104.643137 195.22783 
L 104.674809 195.134949 
L 104.991533 188.540441 
L 105.213239 187.630213 
L 105.276584 187.537333 
L 105.529963 183.784965 
L 106.448462 173.698153 
L 106.701841 173.103719 
L 106.891875 173.047991 
L 107.271944 173.38236 
L 108.063753 174.143979 
L 108.222115 174.32974 
L 109.045597 175.760098 
L 109.07727 175.61149 
L 109.362321 174.738414 
L 109.710717 174.496925 
L 110.660888 174.589805 
L 111.040957 174.701262 
L 111.547715 174.794142 
L 112.181163 175.27712 
L 112.529559 175.518609 
L 112.877955 175.61149 
L 113.226351 175.518609 
L 113.891471 175.239968 
L 114.398229 175.147088 
L 114.68328 175.091359 
L 118.103897 175.18424 
L 118.357276 175.221392 
L 119.782533 175.147088 
L 120.035912 174.589805 
L 120.510998 174.199708 
L 120.796049 174.143979 
L 121.239463 174.23686 
L 122.252979 174.719838 
L 123.076461 174.626957 
L 123.709908 174.366892 
L 124.089977 174.274012 
L 124.311683 174.255436 
L 124.945131 174.348316 
L 125.451889 174.534077 
L 125.800285 174.626957 
L 126.085337 174.682686 
L 126.940491 174.589805 
L 127.288887 174.496925 
L 129.125885 174.589805 
L 129.410936 174.645534 
L 139.799476 174.738414 
L 140.021183 174.75699 
L 149.554569 174.84987 
L 149.586241 174.626957 
L 149.617914 174.645534 
L 149.96631 174.794142 
L 150.409723 174.887023 
L 150.694774 174.942751 
L 152.278393 174.84987 
L 152.531772 174.812718 
L 153.862012 174.905599 
L 154.115391 174.942751 
L 164.693966 174.84987 
L 164.947345 174.812718 
L 165.834171 174.719838 
L 166.08755 174.682686 
L 166.942704 174.589805 
L 167.196084 174.552653 
L 168.019565 174.459773 
L 168.272944 174.422621 
L 169.096426 174.32974 
L 169.349805 174.292588 
L 170.173287 174.199708 
L 170.426666 174.162555 
L 171.218476 174.069675 
L 171.471855 174.032523 
L 172.295336 173.939642 
L 172.548715 173.90249 
L 173.372197 173.80961 
L 173.625576 173.772458 
L 174.449058 173.679577 
L 174.702437 173.642425 
L 175.494247 173.549545 
L 175.747626 173.512393 
L 176.571107 173.419512 
L 176.824486 173.38236 
L 177.647968 173.28948 
L 177.901347 173.252328 
L 178.724829 173.159447 
L 178.978208 173.122295 
L 179.80169 173.029415 
L 180.055069 172.992262 
L 180.878551 172.899382 
L 181.13193 172.86223 
L 181.955412 172.769349 
L 182.208791 172.732197 
L 183.032273 172.639317 
L 183.285652 172.602165 
L 184.140806 172.509284 
L 184.394185 172.472132 
L 185.217667 172.379252 
L 185.471046 172.3421 
L 186.3262 172.249219 
L 186.579579 172.212067 
L 187.434733 172.119187 
L 187.688112 172.082035 
L 188.543266 171.989154 
L 188.796645 171.952002 
L 189.6518 171.859122 
L 189.905179 171.821969 
L 190.792005 171.729089 
L 191.045384 171.691937 
L 191.932211 171.599056 
L 192.18559 171.561904 
L 193.104089 171.469024 
L 193.357468 171.431872 
L 194.244295 171.338991 
L 194.497674 171.301839 
L 195.416172 171.208959 
L 195.669552 171.171807 
L 196.619723 171.078926 
L 196.873102 171.041774 
L 197.823273 170.948894 
L 198.076652 170.911742 
L 199.026824 170.818861 
L 199.280203 170.781709 
L 200.262046 170.688829 
L 200.515425 170.651676 
L 201.497269 170.558796 
L 201.750648 170.521644 
L 202.764164 170.428763 
L 203.017543 170.391611 
L 204.062732 170.298731 
L 204.316111 170.261579 
L 205.361299 170.168698 
L 205.614678 170.131546 
L 206.691539 170.038666 
L 206.944918 170.001514 
L 208.053451 169.908633 
L 208.30683 169.871481 
L 209.447036 169.778601 
L 209.700415 169.741448 
L 210.840621 169.648568 
L 211.094 169.611416 
L 212.29755 169.518536 
L 212.550929 169.481383 
L 213.754479 169.388503 
L 214.007858 169.351351 
L 215.274754 169.25847 
L 215.528133 169.221318 
L 216.8267 169.128438 
L 217.080079 169.091286 
L 218.441991 168.998405 
L 218.69537 168.961253 
L 220.088955 168.868373 
L 220.342334 168.831221 
L 221.767591 168.73834 
L 221.989298 168.719764 
L 223.287865 168.626884 
L 223.509572 168.608308 
L 224.839812 168.515427 
L 225.061518 168.496851 
L 225.726638 168.589732 
L 226.01169 169.852905 
L 226.898516 171.654785 
L 227.595309 172.657893 
L 228.703842 173.791034 
L 231.110943 175.091359 
L 231.427667 175.18424 
L 231.776063 175.27712 
L 232.219476 175.370001 
L 232.5362 175.444305 
L 233.20132 175.537185 
L 233.454699 175.574337 
L 234.468215 175.667218 
L 234.689921 175.685794 
L 237.002005 175.778674 
L 237.223712 175.79725 
L 249.100854 175.70437 
L 249.32256 175.685794 
L 256.480518 175.592914 
L 256.702224 175.574337 
L 262.434925 175.481457 
L 262.688304 175.444305 
L 263.416768 175.351425 
L 263.670148 175.314272 
L 264.36694 175.221392 
L 264.651991 175.165664 
L 265.602163 175.072783 
L 265.855542 175.035631 
L 268.832745 175.128512 
L 269.086124 175.165664 
L 270.416364 175.258544 
L 270.638071 175.27712 
L 274.280394 175.370001 
L 274.502101 175.388577 
L 279.062923 175.295696 
L 279.316302 175.258544 
L 280.773232 175.165664 
L 280.994938 175.147088 
L 287.13938 175.239968 
L 287.361086 175.258544 
L 296.166008 175.165664 
L 296.387714 175.147088 
L 305.984445 175.239968 
L 306.206151 175.258544 
L 311.463766 175.165664 
L 311.685473 175.147088 
L 497.919057 175.147088 
L 497.919057 175.147088 
" style="fill:none;stroke:#bf00bf;stroke-linecap:square;stroke-width:1.5;"/>
   </g>
   <g id="line2d_34">
    <path clip-path="url(#p84549a3af5)" d="M 92.290909 175.147088 
L 92.322581 175.147088 
L 92.354254 175.147088 
L 92.480943 197.512688 
L 92.670978 214.249735 
L 92.861012 216.478865 
L 93.082719 216.64605 
L 93.272753 216.73893 
L 93.874528 217.612006 
L 94.634665 218.72657 
L 95.204768 219.432461 
L 95.23644 219.321005 
L 95.36313 215.995887 
L 95.869888 193.94608 
L 96.218284 173.865338 
L 96.503335 168.088177 
L 96.725042 166.93646 
L 96.820059 166.93646 
L 97.010093 167.438015 
L 97.453507 169.202742 
L 97.516851 169.16559 
L 97.643541 169.202742 
L 97.801903 169.797177 
L 98.086954 172.063458 
L 98.308661 174.162555 
L 98.340333 174.032523 
L 98.720402 170.44734 
L 98.942109 170.131546 
L 99.068798 170.150122 
L 99.353849 170.6331 
L 99.670573 171.654785 
L 100.272348 174.162555 
L 100.747434 175.667218 
L 101.064158 176.150196 
L 101.22252 176.187348 
L 101.412554 175.648642 
L 101.570916 175.054207 
L 101.729278 176.540294 
L 102.077674 165.747591 
L 102.299381 164.317233 
L 102.616104 163.815679 
L 102.711122 163.964288 
L 102.742794 164.057168 
L 102.964501 129.970062 
L 103.186207 122.874 
L 103.249552 122.502478 
L 103.312897 122.651087 
L 103.439586 124.24863 
L 103.692965 131.716214 
L 104.136379 153.357346 
L 104.738154 181.351498 
L 105.213239 183.989302 
L 105.276584 184.193638 
L 105.62498 181.091433 
L 106.005049 176.911815 
L 106.511807 170.335883 
L 106.543479 170.688829 
L 106.733514 171.952002 
L 106.923548 172.063458 
L 107.208599 171.970578 
L 107.461978 171.91485 
L 108.317132 172.509284 
L 108.760546 173.512393 
L 109.298976 174.515501 
L 109.837407 174.311164 
L 111.009285 174.404044 
L 111.262664 174.441197 
L 111.547715 174.534077 
L 112.117818 174.979903 
L 112.592904 175.370001 
L 113.099662 175.555761 
L 113.448058 175.462881 
L 113.859799 175.332848 
L 114.303212 175.239968 
L 114.619936 175.165664 
L 115.380073 175.072783 
L 115.633452 175.035631 
L 117.977208 175.128512 
L 118.262259 175.18424 
L 120.257619 175.091359 
L 120.510998 175.054207 
L 121.112773 175.147088 
L 122.411341 175.79725 
L 123.234823 175.70437 
L 123.836598 175.462881 
L 124.216666 175.370001 
L 124.470045 175.332848 
L 125.135165 175.425729 
L 125.546906 175.555761 
L 126.053664 175.648642 
L 126.275371 175.667218 
L 127.035508 175.574337 
L 127.383904 175.481457 
L 128.080696 175.388577 
L 128.270731 175.370001 
L 128.492437 175.388577 
L 129.157557 175.481457 
L 129.442609 175.537185 
L 131.121245 175.444305 
L 131.374624 175.407153 
L 149.586241 175.314272 
L 149.934637 175.221392 
L 150.473068 175.314272 
L 150.758119 175.370001 
L 152.341738 175.27712 
L 152.595117 175.239968 
L 154.36877 175.332848 
L 154.590477 175.351425 
L 156.015734 175.258544 
L 156.237441 175.239968 
L 164.725638 175.147088 
L 164.979017 175.109935 
L 165.865844 175.017055 
L 166.119223 174.979903 
L 166.974377 174.887023 
L 167.227756 174.84987 
L 168.08291 174.75699 
L 168.336289 174.719838 
L 169.191443 174.626957 
L 169.444822 174.589805 
L 170.331649 174.496925 
L 170.585028 174.459773 
L 171.440182 174.366892 
L 171.693561 174.32974 
L 172.548715 174.23686 
L 172.802094 174.199708 
L 173.657249 174.106827 
L 173.910628 174.069675 
L 174.765782 173.976795 
L 175.019161 173.939642 
L 175.874315 173.846762 
L 176.127694 173.80961 
L 176.951176 173.71673 
L 177.204555 173.679577 
L 178.059709 173.586697 
L 178.313088 173.549545 
L 179.168242 173.456664 
L 179.421622 173.419512 
L 180.276776 173.326632 
L 180.530155 173.28948 
L 181.416981 173.196599 
L 181.67036 173.159447 
L 182.525515 173.066567 
L 182.778894 173.029415 
L 183.634048 172.936534 
L 183.887427 172.899382 
L 184.742581 172.806502 
L 184.99596 172.769349 
L 185.882787 172.676469 
L 186.136166 172.639317 
L 187.022992 172.546437 
L 187.276371 172.509284 
L 188.163198 172.416404 
L 188.416577 172.379252 
L 189.303404 172.286371 
L 189.556783 172.249219 
L 190.443609 172.156339 
L 190.696988 172.119187 
L 191.615487 172.026306 
L 191.868866 171.989154 
L 192.787365 171.896274 
L 193.040744 171.859122 
L 193.959243 171.766241 
L 194.212622 171.729089 
L 195.131121 171.636209 
L 195.3845 171.599056 
L 196.334671 171.506176 
L 196.58805 171.469024 
L 197.538222 171.376143 
L 197.791601 171.338991 
L 198.773445 171.246111 
L 199.026824 171.208959 
L 200.008667 171.116078 
L 200.262046 171.078926 
L 201.275562 170.986046 
L 201.528941 170.948894 
L 202.542458 170.856013 
L 202.795837 170.818861 
L 203.809353 170.725981 
L 204.062732 170.688829 
L 205.139593 170.595948 
L 205.392972 170.558796 
L 206.469832 170.465916 
L 206.723212 170.428763 
L 207.800072 170.335883 
L 208.053451 170.298731 
L 209.161985 170.20585 
L 209.415364 170.168698 
L 210.555569 170.075818 
L 210.808948 170.038666 
L 211.980826 169.945785 
L 212.234205 169.908633 
L 213.437756 169.815753 
L 213.691135 169.778601 
L 214.926357 169.68572 
L 215.179736 169.648568 
L 216.446632 169.555688 
L 216.700011 169.518536 
L 218.030251 169.425655 
L 218.28363 169.388503 
L 219.613869 169.295623 
L 219.835576 169.277047 
L 221.039126 169.184166 
L 221.292505 169.147014 
L 222.717762 169.054134 
L 222.939469 169.035557 
L 224.206364 168.942677 
L 224.428071 168.924101 
L 225.631621 168.831221 
L 225.789983 175.147088 
L 258.444205 175.239968 
L 258.729257 175.295696 
L 263.068372 175.202816 
L 263.321751 175.165664 
L 264.24025 175.072783 
L 264.493629 175.035631 
L 265.602163 174.942751 
L 265.823869 174.924175 
L 267.945919 174.905599 
L 268.10428 175.147088 
L 274.913842 175.239968 
L 275.135548 175.258544 
L 279.221285 175.165664 
L 279.442992 175.147088 
L 281.121628 175.054207 
L 281.343335 175.035631 
L 284.003814 175.017055 
L 284.130504 175.147088 
L 498.077419 175.147088 
L 498.077419 175.147088 
" style="fill:none;stroke:#00bfbf;stroke-linecap:square;stroke-width:1.5;"/>
   </g>
   <g id="line2d_35">
    <path clip-path="url(#p84549a3af5)" d="M 92.290909 175.147088 
L 92.322581 175.147088 
L 92.354254 175.147088 
L 92.449271 186.589953 
L 92.670978 204.1815 
L 92.956029 210.348759 
L 93.36777 214.621257 
L 93.747838 216.590321 
L 94.191252 217.77919 
L 94.602993 218.485081 
L 95.394802 219.48819 
L 95.426475 219.432461 
L 95.489819 218.949483 
L 95.648181 213.13517 
L 95.90156 196.918253 
L 96.281629 176.521718 
L 96.598353 169.16559 
L 96.851732 167.085069 
L 97.010093 166.84358 
L 97.041766 166.862156 
L 97.200128 167.196526 
L 97.516851 167.939569 
L 97.643541 168.106753 
L 97.833575 168.961253 
L 98.181971 171.877698 
L 98.308661 173.066567 
L 98.372006 172.86223 
L 98.783747 170.725981 
L 99.10047 170.243003 
L 99.258832 170.335883 
L 99.448867 170.688829 
L 99.860607 172.193491 
L 100.652417 175.425729 
L 101.032485 176.205924 
L 101.159175 176.261652 
L 101.444226 174.942751 
L 101.602588 66.96 
L 101.634261 86.390579 
L 101.665933 95.715771 
L 101.697605 138.775124 
L 101.792623 136.545994 
L 102.204363 150.515206 
L 102.616104 156.348095 
L 103.059518 159.989007 
L 103.376241 161.902343 
L 103.661293 165.301765 
L 104.041361 173.233751 
L 104.864843 191.846983 
L 104.896516 191.902711 
L 104.95986 191.846983 
L 105.244912 190.67669 
L 105.498291 188.967691 
L 105.878359 185.066714 
L 106.606824 176.335957 
L 107.018565 173.772458 
L 107.398633 172.657893 
L 107.715357 172.323524 
L 107.937064 172.230643 
L 108.127098 172.230643 
L 108.253788 172.304947 
L 108.538839 172.787926 
L 109.07727 174.199708 
L 109.203959 174.125403 
L 109.710717 173.939642 
L 110.914267 174.032523 
L 112.244507 174.924175 
L 112.877955 175.500033 
L 113.258023 175.61149 
L 113.669764 175.518609 
L 114.113178 175.370001 
L 114.461574 175.27712 
L 114.841642 175.165664 
L 115.3484 175.072783 
L 115.633452 175.017055 
L 118.040553 175.109935 
L 118.325604 175.165664 
L 120.352636 175.072783 
L 120.637688 175.017055 
L 121.239463 175.109935 
L 122.696392 175.852979 
L 123.298167 175.760098 
L 124.058304 175.425729 
L 124.438373 175.332848 
L 124.66008 175.314272 
L 125.261855 175.407153 
L 125.73694 175.574337 
L 126.212026 175.667218 
L 126.433733 175.685794 
L 127.130525 175.592914 
L 127.510594 175.481457 
L 128.049024 175.388577 
L 128.270731 175.370001 
L 129.18923 175.462881 
L 129.474281 175.518609 
L 131.374624 175.425729 
L 131.628003 175.388577 
L 133.496673 175.481457 
L 133.71838 175.500033 
L 135.016947 175.407153 
L 135.238654 175.388577 
L 149.586241 175.314272 
L 149.617914 175.165664 
L 149.712931 175.221392 
L 149.902965 175.221392 
L 150.536413 175.314272 
L 150.821464 175.370001 
L 152.468428 175.27712 
L 152.721807 175.239968 
L 154.432115 175.332848 
L 154.653822 175.351425 
L 156.110751 175.258544 
L 156.332458 175.239968 
L 164.788983 175.147088 
L 165.042362 175.109935 
L 165.865844 175.017055 
L 166.119223 174.979903 
L 166.974377 174.887023 
L 167.227756 174.84987 
L 168.08291 174.75699 
L 168.336289 174.719838 
L 169.191443 174.626957 
L 169.444822 174.589805 
L 170.268304 174.496925 
L 170.521683 174.459773 
L 171.376837 174.366892 
L 171.630216 174.32974 
L 172.485371 174.23686 
L 172.73875 174.199708 
L 173.562232 174.106827 
L 173.815611 174.069675 
L 174.670765 173.976795 
L 174.924144 173.939642 
L 175.747626 173.846762 
L 176.001005 173.80961 
L 176.856159 173.71673 
L 177.109538 173.679577 
L 177.93302 173.586697 
L 178.186399 173.549545 
L 179.041553 173.456664 
L 179.294932 173.419512 
L 180.118414 173.326632 
L 180.371793 173.28948 
L 181.226947 173.196599 
L 181.480326 173.159447 
L 182.33548 173.066567 
L 182.588859 173.029415 
L 183.412341 172.936534 
L 183.66572 172.899382 
L 184.520874 172.806502 
L 184.774253 172.769349 
L 185.629408 172.676469 
L 185.882787 172.639317 
L 186.769613 172.546437 
L 187.022992 172.509284 
L 187.878146 172.416404 
L 188.131526 172.379252 
L 189.018352 172.286371 
L 189.271731 172.249219 
L 190.158558 172.156339 
L 190.411937 172.119187 
L 191.298763 172.026306 
L 191.552142 171.989154 
L 192.438969 171.896274 
L 192.692348 171.859122 
L 193.610847 171.766241 
L 193.864226 171.729089 
L 194.782725 171.636209 
L 195.036104 171.599056 
L 195.954603 171.506176 
L 196.207982 171.469024 
L 197.158153 171.376143 
L 197.411532 171.338991 
L 198.361704 171.246111 
L 198.615083 171.208959 
L 199.565254 171.116078 
L 199.818633 171.078926 
L 200.800477 170.986046 
L 201.053856 170.948894 
L 202.067372 170.856013 
L 202.320751 170.818861 
L 203.334267 170.725981 
L 203.587646 170.688829 
L 204.601162 170.595948 
L 204.854541 170.558796 
L 205.89973 170.465916 
L 206.153109 170.428763 
L 207.22997 170.335883 
L 207.483349 170.298731 
L 208.591882 170.20585 
L 208.845261 170.168698 
L 209.953794 170.075818 
L 210.207173 170.038666 
L 211.347379 169.945785 
L 211.600758 169.908633 
L 212.772636 169.815753 
L 213.026015 169.778601 
L 214.229565 169.68572 
L 214.482944 169.648568 
L 215.749839 169.555688 
L 216.003218 169.518536 
L 217.270113 169.425655 
L 217.523492 169.388503 
L 218.82206 169.295623 
L 219.043767 169.277047 
L 220.215645 169.184166 
L 220.469024 169.147014 
L 221.862608 169.054134 
L 222.084315 169.035557 
L 223.319538 168.942677 
L 223.541244 168.924101 
L 224.808139 168.831221 
L 225.029846 168.812645 
L 225.694966 168.756916 
L 226.01169 170.075818 
L 226.55012 171.320415 
L 227.056878 172.230643 
L 227.658653 173.066567 
L 228.608825 174.013947 
L 230.477495 174.998479 
L 230.794219 175.091359 
L 231.174287 175.202816 
L 231.649373 175.295696 
L 231.966097 175.370001 
L 232.726234 175.462881 
L 232.979613 175.500033 
L 234.309853 175.592914 
L 234.53156 175.61149 
L 246.915459 175.518609 
L 247.137166 175.500033 
L 253.566659 175.407153 
L 253.788366 175.388577 
L 262.403252 175.295696 
L 262.656631 175.258544 
L 263.511786 175.165664 
L 263.765165 175.128512 
L 264.588646 175.035631 
L 264.842025 174.998479 
L 266.013903 174.905599 
L 266.23561 174.887023 
L 268.579366 174.979903 
L 268.832745 175.017055 
L 269.941278 175.109935 
L 270.162985 175.128512 
L 273.805309 175.221392 
L 274.027015 175.239968 
L 279.601354 175.147088 
L 279.82306 175.128512 
L 281.470024 175.035631 
L 281.691731 175.017055 
L 285.587433 175.109935 
L 285.80914 175.128512 
L 291.098427 175.221392 
L 291.320134 175.239968 
L 295.152491 175.147088 
L 295.374198 175.128512 
L 497.982401 175.147088 
L 497.982401 175.147088 
" style="fill:none;stroke:#ff0000;stroke-linecap:square;stroke-width:1.5;"/>
   </g>
   <g id="line2d_36">
    <path clip-path="url(#p84549a3af5)" d="M 92.290909 175.147088 
L 92.322581 175.147088 
L 92.480943 224.299394 
L 92.544288 224.968133 
L 92.607633 224.819525 
L 92.892684 222.961917 
L 93.36777 220.361265 
L 93.747838 219.413885 
L 94.001218 219.172396 
L 94.254597 219.135244 
L 94.507976 219.228125 
L 95.014734 219.636798 
L 95.204768 219.822559 
L 95.458147 202.899751 
L 95.743198 180.905672 
L 96.02825 172.583589 
L 96.313301 169.648568 
L 96.535008 169.128438 
L 96.661697 169.202742 
L 96.820059 169.518536 
L 97.421834 171.617633 
L 98.467023 175.27712 
L 98.530368 175.221392 
L 99.132143 174.199708 
L 99.195488 174.23686 
L 99.417194 174.478349 
L 100.462383 176.13162 
L 100.937468 176.038739 
L 101.09583 175.908707 
L 101.190847 175.109935 
L 101.444226 173.828186 
L 101.570916 173.568121 
L 101.665933 174.422621 
L 101.729278 174.23686 
L 101.950984 168.73834 
L 102.172691 167.568047 
L 102.267708 167.586623 
L 102.394398 167.828112 
L 102.42607 167.679504 
L 102.647777 166.992189 
L 102.711122 167.085069 
L 103.122862 168.571155 
L 103.344569 170.280155 
L 103.692965 175.667218 
L 104.643137 193.611711 
L 104.674809 193.463102 
L 104.928188 188.540441 
L 105.149895 187.667365 
L 105.276584 187.537333 
L 105.466618 183.599204 
L 106.2901 174.589805 
L 106.606824 173.753882 
L 106.828531 173.661001 
L 107.050237 173.753882 
L 107.525323 174.143979 
L 107.810374 174.348316 
L 108.095426 174.292588 
L 108.317132 174.534077 
L 109.013925 175.592914 
L 109.045597 175.574337 
L 109.267304 174.831294 
L 109.520683 174.608381 
L 109.837407 174.534077 
L 110.629216 174.626957 
L 111.009285 174.738414 
L 111.294336 174.682686 
L 113.036317 175.592914 
L 113.226351 175.500033 
L 113.47973 175.351425 
L 113.859799 175.258544 
L 114.176522 175.18424 
L 115.000004 175.091359 
L 115.221711 175.072783 
L 118.040553 175.165664 
L 118.293932 175.202816 
L 119.845878 175.128512 
L 120.320964 174.738414 
L 120.764377 174.589805 
L 121.239463 174.682686 
L 122.157962 175.109935 
L 123.171478 175.017055 
L 123.773253 174.775566 
L 124.248339 174.682686 
L 124.470045 174.66411 
L 124.723424 174.701262 
L 125.103493 174.794142 
L 125.578579 174.961327 
L 127.383904 174.868446 
L 127.668956 174.812718 
L 128.999195 174.905599 
L 129.284247 174.961327 
L 149.554569 175.035631 
L 149.586241 174.794142 
L 149.649586 174.868446 
L 150.029655 174.979903 
L 150.536413 175.072783 
L 150.821464 175.128512 
L 152.120032 175.035631 
L 152.373411 174.998479 
L 154.305426 175.091359 
L 154.527132 175.109935 
L 164.21888 175.017055 
L 164.472259 174.979903 
L 165.359086 174.887023 
L 165.612465 174.84987 
L 166.467619 174.75699 
L 166.720998 174.719838 
L 167.54448 174.626957 
L 167.797859 174.589805 
L 168.621341 174.496925 
L 168.87472 174.459773 
L 169.698201 174.366892 
L 169.95158 174.32974 
L 170.74339 174.23686 
L 170.996769 174.199708 
L 171.820251 174.106827 
L 172.07363 174.069675 
L 172.897112 173.976795 
L 173.150491 173.939642 
L 173.9423 173.846762 
L 174.195679 173.80961 
L 175.019161 173.71673 
L 175.27254 173.679577 
L 176.064349 173.586697 
L 176.317728 173.549545 
L 177.14121 173.456664 
L 177.394589 173.419512 
L 178.218071 173.326632 
L 178.47145 173.28948 
L 179.26326 173.196599 
L 179.516639 173.159447 
L 180.34012 173.066567 
L 180.593499 173.029415 
L 181.416981 172.936534 
L 181.67036 172.899382 
L 182.493842 172.806502 
L 182.747221 172.769349 
L 183.570703 172.676469 
L 183.824082 172.639317 
L 184.647564 172.546437 
L 184.900943 172.509284 
L 185.756097 172.416404 
L 186.009476 172.379252 
L 186.832958 172.286371 
L 187.086337 172.249219 
L 187.941491 172.156339 
L 188.19487 172.119187 
L 189.050024 172.026306 
L 189.303404 171.989154 
L 190.158558 171.896274 
L 190.411937 171.859122 
L 191.298763 171.766241 
L 191.552142 171.729089 
L 192.438969 171.636209 
L 192.692348 171.599056 
L 193.579175 171.506176 
L 193.832554 171.469024 
L 194.71938 171.376143 
L 194.972759 171.338991 
L 195.891258 171.246111 
L 196.144637 171.208959 
L 197.063136 171.116078 
L 197.316515 171.078926 
L 198.266687 170.986046 
L 198.520066 170.948894 
L 199.470237 170.856013 
L 199.723616 170.818861 
L 200.70546 170.725981 
L 200.958839 170.688829 
L 201.940682 170.595948 
L 202.194061 170.558796 
L 203.175905 170.465916 
L 203.429284 170.428763 
L 204.474473 170.335883 
L 204.727852 170.298731 
L 205.77304 170.20585 
L 206.026419 170.168698 
L 207.071608 170.075818 
L 207.324987 170.038666 
L 208.43352 169.945785 
L 208.686899 169.908633 
L 209.795432 169.815753 
L 210.048811 169.778601 
L 211.189017 169.68572 
L 211.442396 169.648568 
L 212.614274 169.555688 
L 212.867653 169.518536 
L 214.071203 169.425655 
L 214.324582 169.388503 
L 215.591477 169.295623 
L 215.844856 169.25847 
L 217.111752 169.16559 
L 217.365131 169.128438 
L 218.69537 169.035557 
L 218.917077 169.016981 
L 219.48718 168.961253 
L 220.785747 168.868373 
L 221.007454 168.849797 
L 222.242677 168.756916 
L 222.464383 168.73834 
L 223.731279 168.64546 
L 223.952985 168.626884 
L 225.283225 168.534003 
L 225.504932 168.515427 
L 225.694966 168.496851 
L 226.328414 170.670252 
L 226.930189 171.803393 
L 227.595309 172.750773 
L 228.640497 173.80961 
L 230.952581 175.054207 
L 231.269305 175.147088 
L 231.649373 175.258544 
L 232.124459 175.351425 
L 232.441183 175.425729 
L 233.169647 175.518609 
L 233.423026 175.555761 
L 234.563232 175.648642 
L 234.784939 175.667218 
L 252.299764 175.574337 
L 252.52147 175.555761 
L 261.959839 175.462881 
L 262.213218 175.425729 
L 263.100045 175.332848 
L 263.353424 175.295696 
L 264.050216 175.202816 
L 264.303595 175.165664 
L 265.095405 175.072783 
L 265.348784 175.035631 
L 269.276158 175.128512 
L 269.529537 175.165664 
L 271.461553 175.258544 
L 271.683259 175.27712 
L 280.013095 175.18424 
L 280.234801 175.165664 
L 281.850093 175.072783 
L 282.071799 175.054207 
L 285.365727 175.147088 
L 285.587433 175.165664 
L 290.053239 175.258544 
L 290.274945 175.27712 
L 295.247509 175.18424 
L 295.469215 175.165664 
L 497.919057 175.147088 
L 497.919057 175.147088 
" style="fill:none;stroke:#008000;stroke-linecap:square;stroke-width:1.5;"/>
   </g>
   <g id="line2d_37">
    <path clip-path="url(#p84549a3af5)" d="M 92.290909 175.147088 
L 92.322581 369.36 
L 92.322581 369.36 
L 92.322581 369.36 
L 92.512616 241.872366 
L 92.70265 225.915513 
L 92.924357 222.163145 
L 93.24108 220.361265 
L 93.589477 219.525342 
L 93.842856 219.302429 
L 94.286269 219.395309 
L 94.793027 219.803983 
L 95.173096 220.212657 
L 95.331457 175.147088 
L 102.331053 175.147088 
L 102.394398 172.769349 
L 102.616104 168.422547 
L 102.711122 168.181058 
L 102.742794 168.21821 
L 102.774466 168.292514 
L 102.774466 168.292514 
L 102.774466 168.292514 
L 103.249552 165.431798 
L 103.281224 165.487526 
L 103.439586 166.41633 
L 103.692965 169.815753 
L 104.29474 182.354607 
L 104.611464 187.778822 
L 104.706481 182.614672 
L 104.801498 183.636356 
L 105.118222 185.791181 
L 105.244912 186.218431 
L 105.371601 175.147088 
L 110.977612 175.147088 
L 111.167646 174.794142 
L 111.421026 174.75699 
L 111.642732 174.84987 
L 112.972972 175.518609 
L 113.131334 175.518609 
L 113.258023 175.147088 
L 120.13093 175.054207 
L 120.637688 174.868446 
L 121.20779 174.961327 
L 121.9996 175.314272 
L 123.266495 175.239968 
L 123.424857 175.147088 
L 123.836598 175.054207 
L 124.153322 174.979903 
L 125.071821 175.072783 
L 125.451889 175.18424 
L 126.085337 175.27712 
L 126.275371 175.295696 
L 126.52875 175.258544 
L 127.130525 175.165664 
L 127.447249 175.091359 
L 129.284247 175.18424 
L 129.537626 175.221392 
L 131.0579 175.128512 
L 131.279607 175.109935 
L 149.554569 175.147088 
L 149.586241 174.998479 
L 149.617914 175.017055 
L 151.233205 175.221392 
L 152.215049 175.128512 
L 152.468428 175.091359 
L 154.273753 175.18424 
L 154.49546 175.202816 
L 163.933829 175.109935 
L 164.187208 175.072783 
L 165.169051 174.979903 
L 165.42243 174.942751 
L 166.277585 174.84987 
L 166.530964 174.812718 
L 167.354445 174.719838 
L 167.607824 174.682686 
L 168.431306 174.589805 
L 168.684685 174.552653 
L 169.476495 174.459773 
L 169.729874 174.422621 
L 170.553356 174.32974 
L 170.806735 174.292588 
L 171.598544 174.199708 
L 171.851923 174.162555 
L 172.675405 174.069675 
L 172.928784 174.032523 
L 173.720593 173.939642 
L 173.973972 173.90249 
L 174.797454 173.80961 
L 175.050833 173.772458 
L 175.842643 173.679577 
L 176.096022 173.642425 
L 176.887831 173.549545 
L 177.14121 173.512393 
L 177.964692 173.419512 
L 178.218071 173.38236 
L 179.009881 173.28948 
L 179.26326 173.252328 
L 180.086741 173.159447 
L 180.34012 173.122295 
L 181.13193 173.029415 
L 181.385309 172.992262 
L 182.208791 172.899382 
L 182.46217 172.86223 
L 183.285652 172.769349 
L 183.539031 172.732197 
L 184.362513 172.639317 
L 184.615892 172.602165 
L 185.439373 172.509284 
L 185.692752 172.472132 
L 186.516234 172.379252 
L 186.769613 172.3421 
L 187.624767 172.249219 
L 187.878146 172.212067 
L 188.733301 172.119187 
L 188.98668 172.082035 
L 189.841834 171.989154 
L 190.095213 171.952002 
L 190.950367 171.859122 
L 191.203746 171.821969 
L 192.0589 171.729089 
L 192.248935 171.691937 
L 204.284438 170.391611 
L 205.23461 170.298731 
L 205.487989 170.261579 
L 206.533177 170.168698 
L 206.786556 170.131546 
L 207.831745 170.038666 
L 208.085124 170.001514 
L 209.193657 169.908633 
L 209.447036 169.871481 
L 210.555569 169.778601 
L 210.808948 169.741448 
L 211.949154 169.648568 
L 212.202533 169.611416 
L 213.374411 169.518536 
L 213.62779 169.481383 
L 214.863013 169.388503 
L 215.116392 169.351351 
L 216.351614 169.25847 
L 216.604994 169.221318 
L 217.903561 169.128438 
L 218.15694 169.091286 
L 219.48718 168.998405 
L 219.740559 168.961253 
L 221.102471 168.868373 
L 221.35585 168.831221 
L 222.781107 168.73834 
L 223.002814 168.719764 
L 224.269709 168.626884 
L 224.491416 168.608308 
L 225.663294 168.515427 
L 225.885 169.964361 
L 226.455103 171.599056 
L 227.373602 173.010839 
L 227.626981 173.270904 
L 228.228756 173.80961 
L 230.319133 174.924175 
L 230.635857 175.017055 
L 231.015926 175.128512 
L 231.459339 175.221392 
L 231.776063 175.295696 
L 232.472855 175.388577 
L 232.726234 175.425729 
L 233.73975 175.518609 
L 233.961457 175.537185 
L 236.843643 175.630066 
L 237.06535 175.648642 
L 246.693753 175.555761 
L 246.915459 175.537185 
L 254.801882 175.444305 
L 255.023588 175.425729 
L 262.688304 175.332848 
L 262.941683 175.295696 
L 263.70182 175.202816 
L 263.955199 175.165664 
L 264.747008 175.072783 
L 265.000387 175.035631 
L 266.203938 174.942751 
L 266.425644 174.924175 
L 268.389332 175.017055 
L 268.674383 175.072783 
L 270.004623 175.165664 
L 270.22633 175.18424 
L 274.217049 175.27712 
L 274.438756 175.295696 
L 279.379647 175.202816 
L 279.601354 175.18424 
L 280.994938 175.091359 
L 281.216645 175.072783 
L 286.157536 175.165664 
L 286.379243 175.18424 
L 297.306213 175.091359 
L 297.52792 175.072783 
L 302.278777 175.165664 
L 302.500483 175.18424 
L 498.077419 175.147088 
L 498.077419 175.147088 
" style="fill:none;stroke:#0000ff;stroke-linecap:square;stroke-width:1.5;"/>
   </g>
   <g id="line2d_38">
    <path clip-path="url(#p84549a3af5)" d="M 92.290909 175.147088 
L 92.322581 317.718499 
L 92.322581 317.718499 
L 92.322581 317.718499 
L 92.512616 229.742186 
L 92.70265 220.695635 
L 92.892684 219.451038 
L 93.209408 219.116668 
L 93.494459 218.949483 
L 94.127907 219.042364 
L 94.729682 219.506766 
L 95.204768 220.026896 
L 95.268113 219.432461 
L 95.394802 215.401452 
L 95.553164 175.147088 
L 98.086954 175.147088 
L 98.213644 174.571229 
L 98.245316 174.589805 
L 98.340333 174.775566 
L 98.372006 174.738414 
L 99.10047 173.178023 
L 99.132143 173.196599 
L 99.258832 173.28948 
L 99.512211 173.735306 
L 100.5574 175.908707 
L 100.937468 176.038739 
L 101.064158 176.001587 
L 101.285864 174.051099 
L 101.539244 173.549545 
L 101.570916 175.147088 
L 101.602588 174.887023 
L 101.602588 174.887023 
L 101.697605 170.02009 
L 101.824295 160.434833 
L 101.919312 160.230496 
L 101.950984 160.249072 
L 102.109346 160.73205 
L 102.679449 163.48131 
L 103.407914 168.868373 
L 103.75631 174.794142 
L 104.674809 193.574559 
L 104.706481 193.203037 
L 105.023205 189.859343 
L 105.371601 187.500181 
L 105.75167 182.930465 
L 105.878359 175.147088 
L 107.715357 175.147088 
L 107.810374 174.459773 
L 108.032081 173.865338 
L 108.253788 173.958219 
L 108.633856 174.571229 
L 108.982252 175.18424 
L 109.013925 175.054207 
L 109.108942 174.274012 
L 109.140614 174.292588 
L 110.787578 174.385468 
L 111.135974 174.478349 
L 111.48437 174.571229 
L 112.086145 175.035631 
L 112.561231 175.425729 
L 113.067989 175.61149 
L 113.321368 175.518609 
L 113.796454 175.351425 
L 114.14485 175.258544 
L 114.493246 175.165664 
L 115.190039 175.072783 
L 115.443418 175.035631 
L 117.913863 175.128512 
L 118.198914 175.18424 
L 119.972568 175.091359 
L 120.66936 174.794142 
L 121.239463 174.887023 
L 122.316324 175.407153 
L 123.20315 175.314272 
L 123.86827 175.035631 
L 124.311683 174.942751 
L 124.53339 174.924175 
L 125.071821 175.017055 
L 125.546906 175.18424 
L 125.990319 175.27712 
L 126.243699 175.314272 
L 126.972163 175.221392 
L 127.320559 175.128512 
L 127.890662 175.035631 
L 128.112369 175.017055 
L 128.935851 175.109935 
L 129.220902 175.165664 
L 149.522896 175.147088 
L 149.554569 174.404044 
L 149.617914 175.072783 
L 150.473068 175.165664 
L 150.758119 175.221392 
L 152.246721 175.128512 
L 152.5001 175.091359 
L 154.273753 175.18424 
L 154.49546 175.202816 
L 156.142424 175.109935 
L 156.36413 175.091359 
L 165.010689 174.998479 
L 165.264068 174.961327 
L 166.08755 174.868446 
L 166.340929 174.831294 
L 167.196084 174.738414 
L 167.449463 174.701262 
L 168.241272 174.608381 
L 168.494651 174.571229 
L 169.318133 174.478349 
L 169.571512 174.441197 
L 170.394994 174.348316 
L 170.648373 174.311164 
L 171.440182 174.218284 
L 171.693561 174.181132 
L 172.517043 174.088251 
L 172.770422 174.051099 
L 173.562232 173.958219 
L 173.815611 173.921066 
L 174.639092 173.828186 
L 174.892471 173.791034 
L 175.684281 173.698153 
L 175.93766 173.661001 
L 176.761142 173.568121 
L 177.014521 173.530969 
L 177.80633 173.438088 
L 178.059709 173.400936 
L 178.883191 173.308056 
L 179.13657 173.270904 
L 179.92838 173.178023 
L 180.181759 173.140871 
L 181.00524 173.047991 
L 181.258619 173.010839 
L 182.082101 172.917958 
L 182.33548 172.880806 
L 183.158962 172.787926 
L 183.412341 172.750773 
L 184.235823 172.657893 
L 184.489202 172.620741 
L 185.312684 172.52786 
L 185.566063 172.490708 
L 186.389545 172.397828 
L 186.642924 172.360676 
L 187.498078 172.267795 
L 187.751457 172.230643 
L 188.606611 172.137763 
L 188.85999 172.100611 
L 189.715144 172.00773 
L 189.968523 171.970578 
L 190.823678 171.877698 
L 191.077057 171.840545 
L 191.932211 171.747665 
L 192.18559 171.710513 
L 193.072417 171.617633 
L 193.325796 171.58048 
L 194.212622 171.4876 
L 194.466001 171.450448 
L 195.3845 171.357567 
L 195.637879 171.320415 
L 196.524706 171.227535 
L 196.778085 171.190383 
L 197.728256 171.097502 
L 197.981635 171.06035 
L 198.900134 170.96747 
L 199.153513 170.930318 
L 200.103684 170.837437 
L 200.357063 170.800285 
L 201.338907 170.707405 
L 201.592286 170.670252 
L 202.57413 170.577372 
L 202.827509 170.54022 
L 203.841025 170.44734 
L 204.094404 170.410187 
L 205.10792 170.317307 
L 205.361299 170.280155 
L 206.406488 170.187274 
L 206.659867 170.150122 
L 207.736728 170.057242 
L 207.990107 170.02009 
L 209.066967 169.927209 
L 209.320347 169.890057 
L 210.42888 169.797177 
L 210.682259 169.760025 
L 211.822464 169.667144 
L 212.075843 169.629992 
L 213.247721 169.537112 
L 213.5011 169.499959 
L 214.736323 169.407079 
L 214.989702 169.369927 
L 216.224925 169.277047 
L 216.478304 169.239894 
L 217.745199 169.147014 
L 217.966906 169.128438 
L 219.107111 169.035557 
L 219.36049 168.998405 
L 220.722403 168.905525 
L 220.944109 168.886949 
L 222.14766 168.794068 
L 222.369366 168.775492 
L 223.636261 168.682612 
L 223.857968 168.664036 
L 225.156536 168.571155 
L 225.378242 168.552579 
L 225.694966 168.589732 
L 226.075035 170.075818 
L 226.898516 171.729089 
L 227.626981 172.787926 
L 228.703842 173.883914 
L 230.920908 175.072783 
L 231.269305 175.165664 
L 231.649373 175.27712 
L 232.124459 175.370001 
L 232.40951 175.425729 
L 233.07463 175.518609 
L 233.328009 175.555761 
L 234.53156 175.648642 
L 234.753266 175.667218 
L 249.607612 175.574337 
L 249.829318 175.555761 
L 256.575535 175.462881 
L 256.797241 175.444305 
L 262.561614 175.351425 
L 262.814993 175.314272 
L 263.606803 175.221392 
L 263.860182 175.18424 
L 264.588646 175.091359 
L 264.842025 175.054207 
L 265.887214 174.961327 
L 266.108921 174.942751 
L 268.706056 175.035631 
L 268.959435 175.072783 
L 270.131313 175.165664 
L 270.353019 175.18424 
L 273.868653 175.27712 
L 274.09036 175.295696 
L 279.411319 175.202816 
L 279.633026 175.18424 
L 281.026611 175.091359 
L 281.248317 175.072783 
L 286.252553 175.165664 
L 286.47426 175.18424 
L 297.274541 175.091359 
L 297.496247 175.072783 
L 302.215432 175.165664 
L 302.437138 175.18424 
L 498.109091 175.147088 
L 498.109091 175.147088 
" style="fill:none;stroke:#000000;stroke-linecap:square;stroke-width:1.5;"/>
   </g>
   <g id="line2d_39">
    <path clip-path="url(#p84549a3af5)" d="M 92.290909 175.147088 
L 92.322581 175.147088 
L 92.480943 216.2188 
L 92.607633 216.887539 
L 92.639305 216.868962 
L 93.082719 216.701778 
L 93.336098 216.943267 
L 94.349614 218.503657 
L 95.173096 219.543918 
L 95.679854 202.658262 
L 96.154939 174.775566 
L 96.439991 170.335883 
L 96.661697 169.388503 
L 96.788387 169.369927 
L 96.978421 169.741448 
L 97.295145 170.818861 
L 97.35849 170.6331 
L 97.580196 169.890057 
L 97.675213 170.001514 
L 97.865248 170.893165 
L 98.276989 174.181132 
L 98.340333 173.252328 
L 98.593712 171.171807 
L 98.847091 170.6331 
L 99.037126 170.614524 
L 99.22716 170.818861 
L 99.543884 171.599056 
L 99.987297 173.233751 
L 100.620745 175.388577 
L 101.000813 176.038739 
L 101.190847 176.075892 
L 101.317537 175.778674 
L 101.539244 175.054207 
L 101.634261 176.243076 
L 101.665933 176.038739 
L 101.697605 175.760098 
L 101.919312 166.490635 
L 102.141019 164.354385 
L 102.299381 164.09432 
L 102.394398 164.00144 
L 102.584432 163.57419 
L 102.616104 163.592766 
L 102.711122 163.797103 
L 102.742794 163.927136 
L 103.21788 146.075523 
L 103.344569 145.239599 
L 103.376241 145.258176 
L 103.471259 145.796882 
L 103.661293 148.769055 
L 103.978017 157.945638 
L 104.769826 182.558943 
L 105.213239 185.196747 
L 105.244912 185.308203 
L 105.434946 183.171954 
L 106.005049 178.379326 
L 106.606824 173.010839 
L 107.050237 172.43498 
L 107.588668 172.230643 
L 108.348805 172.787926 
L 108.855563 173.90249 
L 109.235631 174.515501 
L 109.552355 174.422621 
L 109.900751 174.32974 
L 110.94594 174.422621 
L 111.167646 174.441197 
L 111.516043 174.534077 
L 112.14949 175.017055 
L 112.624576 175.407153 
L 113.067989 175.555761 
L 113.384713 175.462881 
L 113.764782 175.351425 
L 114.176522 175.258544 
L 114.493246 175.18424 
L 115.221711 175.091359 
L 115.47509 175.054207 
L 118.072225 175.147088 
L 118.325604 175.18424 
L 120.225947 175.091359 
L 120.510998 175.035631 
L 121.112773 175.128512 
L 122.379668 175.760098 
L 123.266495 175.667218 
L 123.899943 175.407153 
L 125.483561 175.500033 
L 125.86363 175.61149 
L 127.162197 175.518609 
L 127.510594 175.425729 
L 129.600971 175.518609 
L 129.822677 175.537185 
L 130.962883 175.444305 
L 131.216262 175.407153 
L 149.111156 175.314272 
L 149.269517 175.295696 
L 164.155535 175.202816 
L 164.408914 175.165664 
L 165.264068 175.072783 
L 165.517447 175.035631 
L 166.372602 174.942751 
L 166.625981 174.905599 
L 167.481135 174.812718 
L 167.734514 174.775566 
L 168.557996 174.682686 
L 168.811375 174.645534 
L 169.666529 174.552653 
L 169.919908 174.515501 
L 170.74339 174.422621 
L 170.996769 174.385468 
L 171.851923 174.292588 
L 172.105302 174.255436 
L 172.928784 174.162555 
L 173.182163 174.125403 
L 174.005645 174.032523 
L 174.259024 173.995371 
L 175.114178 173.90249 
L 175.367557 173.865338 
L 176.191039 173.772458 
L 176.444418 173.735306 
L 177.2679 173.642425 
L 177.521279 173.605273 
L 178.376433 173.512393 
L 178.629812 173.47524 
L 179.453294 173.38236 
L 179.706673 173.345208 
L 180.561827 173.252328 
L 180.815206 173.215175 
L 181.638688 173.122295 
L 181.892067 173.085143 
L 182.747221 172.992262 
L 183.0006 172.95511 
L 183.824082 172.86223 
L 184.077461 172.825078 
L 184.932615 172.732197 
L 185.185994 172.695045 
L 186.041149 172.602165 
L 186.294528 172.565013 
L 187.181354 172.472132 
L 187.434733 172.43498 
L 188.289887 172.3421 
L 188.543266 172.304947 
L 189.430093 172.212067 
L 189.683472 172.174915 
L 190.538626 172.082035 
L 190.792005 172.044882 
L 191.678832 171.952002 
L 191.932211 171.91485 
L 192.85071 171.821969 
L 193.104089 171.784817 
L 193.990915 171.691937 
L 194.244295 171.654785 
L 195.162793 171.561904 
L 195.416172 171.524752 
L 196.366344 171.431872 
L 196.619723 171.39472 
L 197.538222 171.301839 
L 197.791601 171.264687 
L 198.741772 171.171807 
L 198.995151 171.134654 
L 199.976995 171.041774 
L 200.230374 171.004622 
L 201.212218 170.911742 
L 201.465597 170.874589 
L 202.479113 170.781709 
L 202.732492 170.744557 
L 203.746008 170.651676 
L 203.999387 170.614524 
L 205.012903 170.521644 
L 205.266282 170.484492 
L 206.343143 170.391611 
L 206.596522 170.354459 
L 207.673383 170.261579 
L 207.926762 170.224427 
L 209.003623 170.131546 
L 209.257002 170.094394 
L 210.397207 170.001514 
L 210.650586 169.964361 
L 211.790792 169.871481 
L 212.044171 169.834329 
L 213.247721 169.741448 
L 213.5011 169.704296 
L 214.704651 169.611416 
L 214.95803 169.574264 
L 216.193253 169.481383 
L 216.446632 169.444231 
L 217.745199 169.351351 
L 217.998578 169.314199 
L 219.328818 169.221318 
L 219.582197 169.184166 
L 220.944109 169.091286 
L 221.165816 169.07271 
L 222.401039 168.979829 
L 222.654418 168.942677 
L 224.111347 168.849797 
L 224.333054 168.831221 
L 225.631621 168.73834 
L 225.821656 171.524752 
L 226.233396 172.936534 
L 226.866844 173.828186 
L 227.278585 174.143979 
L 228.355446 174.66411 
L 228.67217 174.75699 
L 229.052238 174.868446 
L 229.527324 174.961327 
L 229.844048 175.035631 
L 230.54084 175.128512 
L 230.794219 175.165664 
L 231.87108 175.258544 
L 232.092786 175.27712 
L 234.911628 175.370001 
L 235.133335 175.388577 
L 251.064541 175.295696 
L 251.286248 175.27712 
L 259.679428 175.370001 
L 259.901135 175.388577 
L 262.276563 175.295696 
L 262.529942 175.258544 
L 263.480113 175.165664 
L 263.733492 175.128512 
L 264.588646 175.035631 
L 264.842025 174.998479 
L 266.203938 174.905599 
L 266.425644 174.887023 
L 268.009263 174.979903 
L 268.325987 175.054207 
L 270.258002 175.147088 
L 270.479709 175.165664 
L 275.167221 175.258544 
L 275.388927 175.27712 
L 278.999579 175.18424 
L 279.221285 175.165664 
L 280.773232 175.072783 
L 280.994938 175.054207 
L 286.410915 175.147088 
L 286.632622 175.165664 
L 297.432903 175.072783 
L 297.654609 175.054207 
L 302.373794 175.147088 
L 302.5955 175.165664 
L 497.982401 175.147088 
L 497.982401 175.147088 
" style="fill:none;stroke:#bfbf00;stroke-linecap:square;stroke-width:1.5;"/>
   </g>
   <g id="line2d_40">
    <path clip-path="url(#p84549a3af5)" d="M 92.290909 175.147088 
L 92.322581 286.603565 
L 92.322581 286.603565 
L 92.322581 286.603565 
L 92.512616 221.290069 
L 92.70265 214.435496 
L 92.797667 214.138279 
L 92.82934 214.175431 
L 93.019374 214.84417 
L 93.589477 216.998995 
L 94.096235 218.169288 
L 94.919716 219.395309 
L 95.173096 219.711103 
L 95.204768 219.655374 
L 95.331457 217.890647 
L 95.584836 210.980345 
L 95.648181 208.676911 
L 95.806543 175.147088 
L 97.2318 175.147088 
L 97.263472 174.979903 
L 97.453507 170.150122 
L 97.611869 169.611416 
L 97.706886 169.834329 
L 97.928592 171.153231 
L 98.245316 173.791034 
L 98.403678 170.837437 
L 98.498695 170.763133 
L 99.005453 170.094394 
L 99.132143 170.168698 
L 99.385522 170.6331 
L 99.828935 172.267795 
L 100.589072 175.332848 
L 100.969141 176.13162 
L 101.127503 176.243076 
L 101.159175 176.187348 
L 101.380882 175.425729 
L 101.507571 174.905599 
L 101.539244 176.744631 
L 101.570916 176.447413 
L 101.570916 176.447413 
L 101.665933 170.614524 
L 101.792623 158.484344 
L 101.919312 157.852758 
L 101.950984 157.871334 
L 102.077674 158.149975 
L 102.42607 159.766094 
L 102.742794 161.363637 
L 102.774466 161.103571 
L 103.344569 154.527639 
L 103.376241 154.546215 
L 103.471259 154.936313 
L 103.661293 157.202595 
L 103.978017 164.577298 
L 104.833171 186.348464 
L 105.08655 187.110083 
L 105.244912 187.277268 
L 106.131738 179.103793 
L 106.701841 173.865338 
L 107.050237 172.620741 
L 107.366961 172.137763 
L 107.74703 172.026306 
L 108.348805 172.472132 
L 108.728873 173.363784 
L 109.140614 174.292588 
L 109.298976 174.292588 
L 109.774062 174.125403 
L 110.914267 174.218284 
L 111.262664 174.311164 
L 111.48437 174.404044 
L 112.022801 174.831294 
L 112.656248 175.407153 
L 113.131334 175.592914 
L 113.47973 175.500033 
L 113.796454 175.407153 
L 114.176522 175.295696 
L 114.556591 175.202816 
L 114.873315 175.128512 
L 115.665124 175.035631 
L 115.886831 175.017055 
L 117.945535 175.109935 
L 118.230587 175.165664 
L 120.320964 175.072783 
L 120.574343 175.035631 
L 121.112773 175.128512 
L 122.53803 175.852979 
L 123.20315 175.760098 
L 123.899943 175.462881 
L 124.248339 175.370001 
L 124.501718 175.332848 
L 125.135165 175.425729 
L 125.546906 175.555761 
L 125.926975 175.648642 
L 126.180354 175.685794 
L 127.06718 175.592914 
L 127.447249 175.481457 
L 138.722616 175.388577 
L 138.944322 175.370001 
L 149.554569 175.314272 
L 149.712931 175.221392 
L 150.441395 175.314272 
L 150.726447 175.370001 
L 152.405083 175.27712 
L 152.658462 175.239968 
L 154.273753 175.332848 
L 154.49546 175.351425 
L 156.110751 175.258544 
L 156.332458 175.239968 
L 164.75731 175.147088 
L 165.010689 175.109935 
L 165.834171 175.017055 
L 166.08755 174.979903 
L 166.911032 174.887023 
L 167.164411 174.84987 
L 167.987893 174.75699 
L 168.241272 174.719838 
L 169.096426 174.626957 
L 169.349805 174.589805 
L 170.173287 174.496925 
L 170.426666 174.459773 
L 171.250148 174.366892 
L 171.503527 174.32974 
L 172.327009 174.23686 
L 172.580388 174.199708 
L 173.40387 174.106827 
L 173.657249 174.069675 
L 174.480731 173.976795 
L 174.73411 173.939642 
L 175.557591 173.846762 
L 175.81097 173.80961 
L 176.634452 173.71673 
L 176.887831 173.679577 
L 177.711313 173.586697 
L 177.964692 173.549545 
L 178.788174 173.456664 
L 179.041553 173.419512 
L 179.865035 173.326632 
L 180.118414 173.28948 
L 180.973568 173.196599 
L 181.226947 173.159447 
L 182.050429 173.066567 
L 182.303808 173.029415 
L 183.12729 172.936534 
L 183.380669 172.899382 
L 184.235823 172.806502 
L 184.489202 172.769349 
L 185.312684 172.676469 
L 185.566063 172.639317 
L 186.421217 172.546437 
L 186.674596 172.509284 
L 187.52975 172.416404 
L 187.783129 172.379252 
L 188.638284 172.286371 
L 188.891663 172.249219 
L 189.778489 172.156339 
L 190.031868 172.119187 
L 190.887022 172.026306 
L 191.140401 171.989154 
L 192.027228 171.896274 
L 192.217262 171.859122 
L 203.619318 170.6331 
L 204.56949 170.54022 
L 204.822869 170.503068 
L 205.836385 170.410187 
L 206.089764 170.373035 
L 207.166625 170.280155 
L 207.420004 170.243003 
L 208.496865 170.150122 
L 208.750244 170.11297 
L 209.858777 170.02009 
L 210.112156 169.982938 
L 211.252362 169.890057 
L 211.505741 169.852905 
L 212.645946 169.760025 
L 212.899325 169.722872 
L 214.102876 169.629992 
L 214.356255 169.59284 
L 215.559805 169.499959 
L 215.813184 169.462807 
L 217.080079 169.369927 
L 217.333458 169.332775 
L 218.632026 169.239894 
L 218.853732 169.221318 
L 219.423835 169.16559 
L 220.69073 169.07271 
L 220.912437 169.054134 
L 222.115987 168.961253 
L 222.337694 168.942677 
L 223.572917 168.849797 
L 223.794623 168.831221 
L 225.061518 168.73834 
L 225.283225 168.719764 
L 225.631621 168.682612 
L 225.821656 170.280155 
L 226.55012 172.453556 
L 227.246913 173.456664 
L 227.848688 173.995371 
L 229.432307 174.812718 
L 229.74903 174.905599 
L 230.129099 175.017055 
L 230.572512 175.109935 
L 230.889236 175.18424 
L 231.554356 175.27712 
L 231.807735 175.314272 
L 232.884596 175.407153 
L 233.106303 175.425729 
L 253.693348 175.332848 
L 253.915055 175.314272 
L 262.941683 175.221392 
L 263.195062 175.18424 
L 264.050216 175.091359 
L 264.303595 175.054207 
L 265.253766 174.961327 
L 265.507145 174.924175 
L 268.516021 175.017055 
L 268.7694 175.054207 
L 270.448036 175.147088 
L 270.669743 175.165664 
L 275.198893 175.258544 
L 275.4206 175.27712 
L 278.967906 175.18424 
L 279.189613 175.165664 
L 280.678215 175.072783 
L 280.899921 175.054207 
L 286.47426 175.147088 
L 286.695966 175.165664 
L 297.211196 175.072783 
L 297.432903 175.054207 
L 302.247104 175.147088 
L 302.468811 175.165664 
L 498.077419 175.147088 
L 498.077419 175.147088 
" style="fill:none;stroke:#bf00bf;stroke-linecap:square;stroke-width:1.5;"/>
   </g>
   <g id="line2d_41">
    <path clip-path="url(#p84549a3af5)" d="M 92.290909 175.147088 
L 92.322581 175.147088 
L 92.480943 205.444674 
L 92.892684 211.351867 
L 93.304425 214.992778 
L 93.747838 216.961843 
L 94.254597 218.11356 
L 94.919716 219.06094 
L 95.299785 219.469614 
L 95.331457 219.395309 
L 95.426475 218.72657 
L 95.711526 204.868815 
L 95.996577 185.438236 
L 96.376646 173.568121 
L 96.69337 169.741448 
L 96.915076 168.998405 
L 97.010093 168.961253 
L 97.041766 168.998405 
L 97.2318 169.351351 
L 97.295145 169.537112 
L 97.35849 169.407079 
L 97.548524 169.016981 
L 97.675213 169.184166 
L 97.89692 170.261579 
L 98.276989 173.252328 
L 98.340333 172.750773 
L 98.688729 171.190383 
L 99.005453 170.54022 
L 99.163815 170.54022 
L 99.322177 170.725981 
L 99.575556 171.376143 
L 100.240676 174.106827 
L 100.747434 175.741522 
L 101.09583 176.2245 
L 101.127503 176.187348 
L 101.475899 174.719838 
L 101.602588 154.880585 
L 101.697605 121.369337 
L 101.76095 135.784375 
L 101.982657 148.453261 
L 102.299381 154.28615 
L 102.742794 158.874442 
L 102.964501 160.044735 
L 103.312897 161.103571 
L 103.534603 163.016908 
L 103.819655 167.716656 
L 104.389758 182.391759 
L 104.801498 190.788147 
L 104.896516 190.955331 
L 104.928188 190.936755 
L 105.118222 190.398049 
L 105.371601 189.20918 
L 105.783342 185.661149 
L 106.036721 181.611563 
L 106.606824 175.852979 
L 107.018565 173.679577 
L 107.366961 172.825078 
L 107.652013 172.546437 
L 108.127098 172.360676 
L 108.348805 172.583589 
L 108.792218 173.586697 
L 109.045597 174.23686 
L 109.140614 174.162555 
L 109.552355 174.032523 
L 110.977612 174.125403 
L 112.27618 174.998479 
L 112.846283 175.500033 
L 113.226351 175.61149 
L 113.60642 175.518609 
L 114.049833 175.370001 
L 114.398229 175.27712 
L 114.778298 175.165664 
L 115.316728 175.072783 
L 115.570107 175.035631 
L 118.103897 175.128512 
L 118.388949 175.18424 
L 120.225947 175.091359 
L 120.54267 175.017055 
L 121.239463 175.109935 
L 122.633047 175.815827 
L 123.266495 175.722946 
L 124.026632 175.388577 
L 124.470045 175.295696 
L 124.691752 175.27712 
L 125.19851 175.370001 
L 125.641923 175.518609 
L 126.021992 175.61149 
L 126.275371 175.648642 
L 127.130525 175.555761 
L 127.510594 175.444305 
L 128.112369 175.351425 
L 128.334075 175.332848 
L 129.094213 175.425729 
L 129.379264 175.481457 
L 131.469641 175.388577 
L 131.72302 175.351425 
L 133.211622 175.444305 
L 133.433328 175.462881 
L 135.238654 175.370001 
L 135.460361 175.351425 
L 149.522896 175.295696 
L 149.586241 175.147088 
L 149.617914 175.239968 
L 149.96631 175.221392 
L 150.599757 175.314272 
L 150.884809 175.370001 
L 152.341738 175.27712 
L 152.595117 175.239968 
L 164.693966 175.147088 
L 164.947345 175.109935 
L 165.770827 175.017055 
L 166.024206 174.979903 
L 166.847687 174.887023 
L 167.101066 174.84987 
L 167.956221 174.75699 
L 168.2096 174.719838 
L 169.033081 174.626957 
L 169.28646 174.589805 
L 170.141615 174.496925 
L 170.394994 174.459773 
L 171.218476 174.366892 
L 171.471855 174.32974 
L 172.295336 174.23686 
L 172.548715 174.199708 
L 173.40387 174.106827 
L 173.657249 174.069675 
L 174.480731 173.976795 
L 174.73411 173.939642 
L 175.557591 173.846762 
L 175.81097 173.80961 
L 176.634452 173.71673 
L 176.887831 173.679577 
L 177.711313 173.586697 
L 177.964692 173.549545 
L 178.788174 173.456664 
L 179.041553 173.419512 
L 179.896707 173.326632 
L 180.150086 173.28948 
L 180.973568 173.196599 
L 181.226947 173.159447 
L 182.050429 173.066567 
L 182.303808 173.029415 
L 183.158962 172.936534 
L 183.412341 172.899382 
L 184.267495 172.806502 
L 184.520874 172.769349 
L 185.344356 172.676469 
L 185.597735 172.639317 
L 186.452889 172.546437 
L 186.706268 172.509284 
L 187.561423 172.416404 
L 187.814802 172.379252 
L 188.701628 172.286371 
L 188.955007 172.249219 
L 189.810162 172.156339 
L 190.063541 172.119187 
L 190.950367 172.026306 
L 191.203746 171.989154 
L 192.090573 171.896274 
L 192.217262 171.877698 
L 200.895494 170.930318 
L 201.148873 170.893165 
L 202.130717 170.800285 
L 202.384096 170.763133 
L 203.397612 170.670252 
L 203.650991 170.6331 
L 204.664507 170.54022 
L 204.917886 170.503068 
L 205.963074 170.410187 
L 206.216453 170.373035 
L 207.293314 170.280155 
L 207.546693 170.243003 
L 208.623554 170.150122 
L 208.876933 170.11297 
L 210.017139 170.02009 
L 210.270518 169.982938 
L 211.410723 169.890057 
L 211.664103 169.852905 
L 212.835981 169.760025 
L 213.08936 169.722872 
L 214.261238 169.629992 
L 214.514617 169.59284 
L 215.749839 169.499959 
L 216.003218 169.462807 
L 217.270113 169.369927 
L 217.523492 169.332775 
L 218.853732 169.239894 
L 219.075439 169.221318 
L 219.645542 169.16559 
L 220.912437 169.07271 
L 221.134144 169.054134 
L 222.337694 168.961253 
L 222.559401 168.942677 
L 223.826296 168.849797 
L 224.048002 168.831221 
L 225.314898 168.73834 
L 225.536604 168.719764 
L 225.663294 168.701188 
L 225.980017 170.075818 
L 226.581793 171.524752 
L 227.626981 173.140871 
L 228.450463 173.939642 
L 230.445823 174.998479 
L 230.794219 175.091359 
L 231.174287 175.202816 
L 231.649373 175.295696 
L 231.934425 175.351425 
L 232.631217 175.444305 
L 232.884596 175.481457 
L 234.183163 175.574337 
L 234.40487 175.592914 
L 247.675597 175.500033 
L 247.897303 175.481457 
L 254.801882 175.388577 
L 255.023588 175.370001 
L 262.624959 175.27712 
L 262.878338 175.239968 
L 263.70182 175.147088 
L 263.955199 175.109935 
L 264.778681 175.017055 
L 265.03206 174.979903 
L 266.488989 174.887023 
L 266.710696 174.868446 
L 268.389332 174.961327 
L 268.674383 175.017055 
L 269.846261 175.109935 
L 270.067968 175.128512 
L 273.583602 175.221392 
L 273.805309 175.239968 
L 279.664698 175.147088 
L 279.886405 175.128512 
L 281.501696 175.035631 
L 281.723403 175.017055 
L 285.460744 175.109935 
L 285.68245 175.128512 
L 290.813376 175.221392 
L 291.035082 175.239968 
L 295.184164 175.147088 
L 295.40587 175.128512 
L 497.982401 175.147088 
L 497.982401 175.147088 
" style="fill:none;stroke:#00bfbf;stroke-linecap:square;stroke-width:1.5;"/>
   </g>
   <g id="patch_3">
    <path d="M 72 384.48 
L 72 51.84 
" style="fill:none;stroke:#000000;stroke-linecap:square;stroke-linejoin:miter;stroke-width:0.8;"/>
   </g>
   <g id="patch_4">
    <path d="M 518.4 384.48 
L 518.4 51.84 
" style="fill:none;stroke:#000000;stroke-linecap:square;stroke-linejoin:miter;stroke-width:0.8;"/>
   </g>
   <g id="patch_5">
    <path d="M 72 384.48 
L 518.4 384.48 
" style="fill:none;stroke:#000000;stroke-linecap:square;stroke-linejoin:miter;stroke-width:0.8;"/>
   </g>
   <g id="patch_6">
    <path d="M 72 51.84 
L 518.4 51.84 
" style="fill:none;stroke:#000000;stroke-linecap:square;stroke-linejoin:miter;stroke-width:0.8;"/>
   </g>
   <g id="text_19">
    <!-- $\Delta u_{m}$ -->
    <g transform="translate(280.99 45.84)scale(0.14 -0.14)">
     <use transform="translate(0 0.09375)" xlink:href="#DejaVuSans-394"/>
     <use transform="translate(68.408203 0.09375)" xlink:href="#DejaVuSans-Oblique-75"/>
     <use transform="translate(131.787109 -16.3125)scale(0.7)" xlink:href="#DejaVuSans-Oblique-6d"/>
    </g>
   </g>
   <g id="legend_1">
    <g id="patch_7">
     <path d="M 461.4 379.48 
L 511.4 379.48 
Q 513.4 379.48 513.4 377.48 
L 513.4 246.376875 
Q 513.4 244.376875 511.4 244.376875 
L 461.4 244.376875 
Q 459.4 244.376875 459.4 246.376875 
L 459.4 377.48 
Q 459.4 379.48 461.4 379.48 
z
" style="fill:#ffffff;opacity:0.8;stroke:#cccccc;stroke-linejoin:miter;"/>
    </g>
    <g id="line2d_42">
     <path d="M 463.4 252.475313 
L 483.4 252.475313 
" style="fill:none;stroke:#bf00bf;stroke-linecap:square;stroke-width:1.5;"/>
    </g>
    <g id="line2d_43"/>
    <g id="text_20">
     <!-- $\Delta u_{1}$ -->
     <g transform="translate(491.4 255.975313)scale(0.1 -0.1)">
      <use transform="translate(0 0.09375)" xlink:href="#DejaVuSans-394"/>
      <use transform="translate(68.408203 0.09375)" xlink:href="#DejaVuSans-Oblique-75"/>
      <use transform="translate(131.787109 -16.3125)scale(0.7)" xlink:href="#DejaVuSans-31"/>
     </g>
    </g>
    <g id="line2d_44">
     <path d="M 463.4 267.153438 
L 483.4 267.153438 
" style="fill:none;stroke:#00bfbf;stroke-linecap:square;stroke-width:1.5;"/>
    </g>
    <g id="line2d_45"/>
    <g id="text_21">
     <!-- $\Delta u_{2}$ -->
     <g transform="translate(491.4 270.653438)scale(0.1 -0.1)">
      <use transform="translate(0 0.09375)" xlink:href="#DejaVuSans-394"/>
      <use transform="translate(68.408203 0.09375)" xlink:href="#DejaVuSans-Oblique-75"/>
      <use transform="translate(131.787109 -16.3125)scale(0.7)" xlink:href="#DejaVuSans-32"/>
     </g>
    </g>
    <g id="line2d_46">
     <path d="M 463.4 281.831563 
L 483.4 281.831563 
" style="fill:none;stroke:#ff0000;stroke-linecap:square;stroke-width:1.5;"/>
    </g>
    <g id="line2d_47"/>
    <g id="text_22">
     <!-- $\Delta u_{3}$ -->
     <defs>
      <path d="M 40.578125 39.3125 
Q 47.65625 37.796875 51.625 33 
Q 55.609375 28.21875 55.609375 21.1875 
Q 55.609375 10.40625 48.1875 4.484375 
Q 40.765625 -1.421875 27.09375 -1.421875 
Q 22.515625 -1.421875 17.65625 -0.515625 
Q 12.796875 0.390625 7.625 2.203125 
L 7.625 11.71875 
Q 11.71875 9.328125 16.59375 8.109375 
Q 21.484375 6.890625 26.8125 6.890625 
Q 36.078125 6.890625 40.9375 10.546875 
Q 45.796875 14.203125 45.796875 21.1875 
Q 45.796875 27.640625 41.28125 31.265625 
Q 36.765625 34.90625 28.71875 34.90625 
L 20.21875 34.90625 
L 20.21875 43.015625 
L 29.109375 43.015625 
Q 36.375 43.015625 40.234375 45.921875 
Q 44.09375 48.828125 44.09375 54.296875 
Q 44.09375 59.90625 40.109375 62.90625 
Q 36.140625 65.921875 28.71875 65.921875 
Q 24.65625 65.921875 20.015625 65.03125 
Q 15.375 64.15625 9.8125 62.3125 
L 9.8125 71.09375 
Q 15.4375 72.65625 20.34375 73.4375 
Q 25.25 74.21875 29.59375 74.21875 
Q 40.828125 74.21875 47.359375 69.109375 
Q 53.90625 64.015625 53.90625 55.328125 
Q 53.90625 49.265625 50.4375 45.09375 
Q 46.96875 40.921875 40.578125 39.3125 
z
" id="DejaVuSans-33"/>
     </defs>
     <g transform="translate(491.4 285.331563)scale(0.1 -0.1)">
      <use transform="translate(0 0.09375)" xlink:href="#DejaVuSans-394"/>
      <use transform="translate(68.408203 0.09375)" xlink:href="#DejaVuSans-Oblique-75"/>
      <use transform="translate(131.787109 -16.3125)scale(0.7)" xlink:href="#DejaVuSans-33"/>
     </g>
    </g>
    <g id="line2d_48">
     <path d="M 463.4 296.509688 
L 483.4 296.509688 
" style="fill:none;stroke:#008000;stroke-linecap:square;stroke-width:1.5;"/>
    </g>
    <g id="line2d_49"/>
    <g id="text_23">
     <!-- $\Delta u_{4}$ -->
     <g transform="translate(491.4 300.009688)scale(0.1 -0.1)">
      <use transform="translate(0 0.09375)" xlink:href="#DejaVuSans-394"/>
      <use transform="translate(68.408203 0.09375)" xlink:href="#DejaVuSans-Oblique-75"/>
      <use transform="translate(131.787109 -16.3125)scale(0.7)" xlink:href="#DejaVuSans-34"/>
     </g>
    </g>
    <g id="line2d_50">
     <path d="M 463.4 311.187813 
L 483.4 311.187813 
" style="fill:none;stroke:#0000ff;stroke-linecap:square;stroke-width:1.5;"/>
    </g>
    <g id="line2d_51"/>
    <g id="text_24">
     <!-- $\Delta u_{5}$ -->
     <defs>
      <path d="M 10.796875 72.90625 
L 49.515625 72.90625 
L 49.515625 64.59375 
L 19.828125 64.59375 
L 19.828125 46.734375 
Q 21.96875 47.46875 24.109375 47.828125 
Q 26.265625 48.1875 28.421875 48.1875 
Q 40.625 48.1875 47.75 41.5 
Q 54.890625 34.8125 54.890625 23.390625 
Q 54.890625 11.625 47.5625 5.09375 
Q 40.234375 -1.421875 26.90625 -1.421875 
Q 22.3125 -1.421875 17.546875 -0.640625 
Q 12.796875 0.140625 7.71875 1.703125 
L 7.71875 11.625 
Q 12.109375 9.234375 16.796875 8.0625 
Q 21.484375 6.890625 26.703125 6.890625 
Q 35.15625 6.890625 40.078125 11.328125 
Q 45.015625 15.765625 45.015625 23.390625 
Q 45.015625 31 40.078125 35.4375 
Q 35.15625 39.890625 26.703125 39.890625 
Q 22.75 39.890625 18.8125 39.015625 
Q 14.890625 38.140625 10.796875 36.28125 
z
" id="DejaVuSans-35"/>
     </defs>
     <g transform="translate(491.4 314.687813)scale(0.1 -0.1)">
      <use transform="translate(0 0.09375)" xlink:href="#DejaVuSans-394"/>
      <use transform="translate(68.408203 0.09375)" xlink:href="#DejaVuSans-Oblique-75"/>
      <use transform="translate(131.787109 -16.3125)scale(0.7)" xlink:href="#DejaVuSans-35"/>
     </g>
    </g>
    <g id="line2d_52">
     <path d="M 463.4 325.865938 
L 483.4 325.865938 
" style="fill:none;stroke:#000000;stroke-linecap:square;stroke-width:1.5;"/>
    </g>
    <g id="line2d_53"/>
    <g id="text_25">
     <!-- $\Delta u_{6}$ -->
     <g transform="translate(491.4 329.365938)scale(0.1 -0.1)">
      <use transform="translate(0 0.09375)" xlink:href="#DejaVuSans-394"/>
      <use transform="translate(68.408203 0.09375)" xlink:href="#DejaVuSans-Oblique-75"/>
      <use transform="translate(131.787109 -16.3125)scale(0.7)" xlink:href="#DejaVuSans-36"/>
     </g>
    </g>
    <g id="line2d_54">
     <path d="M 463.4 340.544062 
L 483.4 340.544062 
" style="fill:none;stroke:#bfbf00;stroke-linecap:square;stroke-width:1.5;"/>
    </g>
    <g id="line2d_55"/>
    <g id="text_26">
     <!-- $\Delta u_{7}$ -->
     <defs>
      <path d="M 8.203125 72.90625 
L 55.078125 72.90625 
L 55.078125 68.703125 
L 28.609375 0 
L 18.3125 0 
L 43.21875 64.59375 
L 8.203125 64.59375 
z
" id="DejaVuSans-37"/>
     </defs>
     <g transform="translate(491.4 344.044062)scale(0.1 -0.1)">
      <use transform="translate(0 0.09375)" xlink:href="#DejaVuSans-394"/>
      <use transform="translate(68.408203 0.09375)" xlink:href="#DejaVuSans-Oblique-75"/>
      <use transform="translate(131.787109 -16.3125)scale(0.7)" xlink:href="#DejaVuSans-37"/>
     </g>
    </g>
    <g id="line2d_56">
     <path d="M 463.4 355.222188 
L 483.4 355.222188 
" style="fill:none;stroke:#bf00bf;stroke-linecap:square;stroke-width:1.5;"/>
    </g>
    <g id="line2d_57"/>
    <g id="text_27">
     <!-- $\Delta u_{8}$ -->
     <g transform="translate(491.4 358.722188)scale(0.1 -0.1)">
      <use transform="translate(0 0.09375)" xlink:href="#DejaVuSans-394"/>
      <use transform="translate(68.408203 0.09375)" xlink:href="#DejaVuSans-Oblique-75"/>
      <use transform="translate(131.787109 -16.3125)scale(0.7)" xlink:href="#DejaVuSans-38"/>
     </g>
    </g>
    <g id="line2d_58">
     <path d="M 463.4 369.900313 
L 483.4 369.900313 
" style="fill:none;stroke:#00bfbf;stroke-linecap:square;stroke-width:1.5;"/>
    </g>
    <g id="line2d_59"/>
    <g id="text_28">
     <!-- $\Delta u_{9}$ -->
     <defs>
      <path d="M 10.984375 1.515625 
L 10.984375 10.5 
Q 14.703125 8.734375 18.5 7.8125 
Q 22.3125 6.890625 25.984375 6.890625 
Q 35.75 6.890625 40.890625 13.453125 
Q 46.046875 20.015625 46.78125 33.40625 
Q 43.953125 29.203125 39.59375 26.953125 
Q 35.25 24.703125 29.984375 24.703125 
Q 19.046875 24.703125 12.671875 31.3125 
Q 6.296875 37.9375 6.296875 49.421875 
Q 6.296875 60.640625 12.9375 67.421875 
Q 19.578125 74.21875 30.609375 74.21875 
Q 43.265625 74.21875 49.921875 64.515625 
Q 56.59375 54.828125 56.59375 36.375 
Q 56.59375 19.140625 48.40625 8.859375 
Q 40.234375 -1.421875 26.421875 -1.421875 
Q 22.703125 -1.421875 18.890625 -0.6875 
Q 15.09375 0.046875 10.984375 1.515625 
z
M 30.609375 32.421875 
Q 37.25 32.421875 41.125 36.953125 
Q 45.015625 41.5 45.015625 49.421875 
Q 45.015625 57.28125 41.125 61.84375 
Q 37.25 66.40625 30.609375 66.40625 
Q 23.96875 66.40625 20.09375 61.84375 
Q 16.21875 57.28125 16.21875 49.421875 
Q 16.21875 41.5 20.09375 36.953125 
Q 23.96875 32.421875 30.609375 32.421875 
z
" id="DejaVuSans-39"/>
     </defs>
     <g transform="translate(491.4 373.400313)scale(0.1 -0.1)">
      <use transform="translate(0 0.09375)" xlink:href="#DejaVuSans-394"/>
      <use transform="translate(68.408203 0.09375)" xlink:href="#DejaVuSans-Oblique-75"/>
      <use transform="translate(131.787109 -16.3125)scale(0.7)" xlink:href="#DejaVuSans-39"/>
     </g>
    </g>
   </g>
  </g>
 </g>
 <defs>
  <clipPath id="p84549a3af5">
   <rect height="332.64" width="446.4" x="72" y="51.84"/>
  </clipPath>
 </defs>
</svg>
