<?xml version="1.0" encoding="utf-8" standalone="no"?>
<!DOCTYPE svg PUBLIC "-//W3C//DTD SVG 1.1//EN"
  "http://www.w3.org/Graphics/SVG/1.1/DTD/svg11.dtd">
<!-- Created with matplotlib (http://matplotlib.org/) -->
<svg height="432pt" version="1.1" viewBox="0 0 576 432" width="576pt" xmlns="http://www.w3.org/2000/svg" xmlns:xlink="http://www.w3.org/1999/xlink">
 <defs>
  <style type="text/css">
*{stroke-linecap:butt;stroke-linejoin:round;}
  </style>
 </defs>
 <g id="figure_1">
  <g id="patch_1">
   <path d="M 0 432 
L 576 432 
L 576 0 
L 0 0 
z
" style="fill:#ffffff;"/>
  </g>
  <g id="axes_1">
   <g id="patch_2">
    <path d="M 72 384.48 
L 518.4 384.48 
L 518.4 51.84 
L 72 51.84 
z
" style="fill:#ffffff;"/>
   </g>
   <g id="matplotlib.axis_1">
    <g id="xtick_1">
     <g id="line2d_1">
      <path clip-path="url(#p808cf005ff)" d="M 76.1545 384.48 
L 76.1545 51.84 
" style="fill:none;stroke:#b0b0b0;stroke-dasharray:5.12,1.28,0.8,1.28;stroke-dashoffset:0;stroke-width:0.8;"/>
     </g>
     <g id="line2d_2">
      <defs>
       <path d="M 0 0 
L 0 3.5 
" id="mdc3c45008f" style="stroke:#000000;stroke-width:0.8;"/>
      </defs>
      <g>
       <use style="stroke:#000000;stroke-width:0.8;" x="76.1545" xlink:href="#mdc3c45008f" y="384.48"/>
      </g>
     </g>
     <g id="text_1">
      <text style="font-family:DejaVu Sans;font-size:10px;font-style:normal;font-weight:400;text-anchor:middle;" transform="rotate(-0, 76.1545, 399.078438)" x="76.1545" y="399.078438">0</text>
     </g>
    </g>
    <g id="xtick_2">
     <g id="line2d_3">
      <path clip-path="url(#p808cf005ff)" d="M 162.874065 384.48 
L 162.874065 51.84 
" style="fill:none;stroke:#b0b0b0;stroke-dasharray:5.12,1.28,0.8,1.28;stroke-dashoffset:0;stroke-width:0.8;"/>
     </g>
     <g id="line2d_4">
      <g>
       <use style="stroke:#000000;stroke-width:0.8;" x="162.874065" xlink:href="#mdc3c45008f" y="384.48"/>
      </g>
     </g>
     <g id="text_2">
      <text style="font-family:DejaVu Sans;font-size:10px;font-style:normal;font-weight:400;text-anchor:middle;" transform="rotate(-0, 162.874065, 399.078438)" x="162.874065" y="399.078438">10</text>
     </g>
    </g>
    <g id="xtick_3">
     <g id="line2d_5">
      <path clip-path="url(#p808cf005ff)" d="M 249.59363 384.48 
L 249.59363 51.84 
" style="fill:none;stroke:#b0b0b0;stroke-dasharray:5.12,1.28,0.8,1.28;stroke-dashoffset:0;stroke-width:0.8;"/>
     </g>
     <g id="line2d_6">
      <g>
       <use style="stroke:#000000;stroke-width:0.8;" x="249.59363" xlink:href="#mdc3c45008f" y="384.48"/>
      </g>
     </g>
     <g id="text_3">
      <text style="font-family:DejaVu Sans;font-size:10px;font-style:normal;font-weight:400;text-anchor:middle;" transform="rotate(-0, 249.59363, 399.078438)" x="249.59363" y="399.078438">20</text>
     </g>
    </g>
    <g id="xtick_4">
     <g id="line2d_7">
      <path clip-path="url(#p808cf005ff)" d="M 336.313195 384.48 
L 336.313195 51.84 
" style="fill:none;stroke:#b0b0b0;stroke-dasharray:5.12,1.28,0.8,1.28;stroke-dashoffset:0;stroke-width:0.8;"/>
     </g>
     <g id="line2d_8">
      <g>
       <use style="stroke:#000000;stroke-width:0.8;" x="336.313195" xlink:href="#mdc3c45008f" y="384.48"/>
      </g>
     </g>
     <g id="text_4">
      <text style="font-family:DejaVu Sans;font-size:10px;font-style:normal;font-weight:400;text-anchor:middle;" transform="rotate(-0, 336.313195, 399.078438)" x="336.313195" y="399.078438">30</text>
     </g>
    </g>
    <g id="xtick_5">
     <g id="line2d_9">
      <path clip-path="url(#p808cf005ff)" d="M 423.03276 384.48 
L 423.03276 51.84 
" style="fill:none;stroke:#b0b0b0;stroke-dasharray:5.12,1.28,0.8,1.28;stroke-dashoffset:0;stroke-width:0.8;"/>
     </g>
     <g id="line2d_10">
      <g>
       <use style="stroke:#000000;stroke-width:0.8;" x="423.03276" xlink:href="#mdc3c45008f" y="384.48"/>
      </g>
     </g>
     <g id="text_5">
      <text style="font-family:DejaVu Sans;font-size:10px;font-style:normal;font-weight:400;text-anchor:middle;" transform="rotate(-0, 423.03276, 399.078438)" x="423.03276" y="399.078438">40</text>
     </g>
    </g>
    <g id="xtick_6">
     <g id="line2d_11">
      <path clip-path="url(#p808cf005ff)" d="M 509.752325 384.48 
L 509.752325 51.84 
" style="fill:none;stroke:#b0b0b0;stroke-dasharray:5.12,1.28,0.8,1.28;stroke-dashoffset:0;stroke-width:0.8;"/>
     </g>
     <g id="line2d_12">
      <g>
       <use style="stroke:#000000;stroke-width:0.8;" x="509.752325" xlink:href="#mdc3c45008f" y="384.48"/>
      </g>
     </g>
     <g id="text_6">
      <text style="font-family:DejaVu Sans;font-size:10px;font-style:normal;font-weight:400;text-anchor:middle;" transform="rotate(-0, 509.752325, 399.078438)" x="509.752325" y="399.078438">50</text>
     </g>
    </g>
    <g id="text_7">
     <text style="font-family:DejaVu Sans;font-size:14px;font-style:normal;font-weight:400;text-anchor:middle;" transform="rotate(-0, 295.2, 415.795938)" x="295.2" y="415.795938">Time</text>
    </g>
   </g>
   <g id="matplotlib.axis_2">
    <g id="ytick_1">
     <g id="line2d_13">
      <path clip-path="url(#p808cf005ff)" d="M 72 329.578481 
L 518.4 329.578481 
" style="fill:none;stroke:#b0b0b0;stroke-dasharray:5.12,1.28,0.8,1.28;stroke-dashoffset:0;stroke-width:0.8;"/>
     </g>
     <g id="line2d_14">
      <defs>
       <path d="M 0 0 
L -3.5 0 
" id="mfeea210817" style="stroke:#000000;stroke-width:0.8;"/>
      </defs>
      <g>
       <use style="stroke:#000000;stroke-width:0.8;" x="72" xlink:href="#mfeea210817" y="329.578481"/>
      </g>
     </g>
     <g id="text_8">
      <text style="font-family:DejaVu Sans;font-size:10px;font-style:normal;font-weight:400;text-anchor:end;" transform="rotate(-0, 65, 333.3777)" x="65" y="333.3777">−5</text>
     </g>
    </g>
    <g id="ytick_2">
     <g id="line2d_15">
      <path clip-path="url(#p808cf005ff)" d="M 72 266.336846 
L 518.4 266.336846 
" style="fill:none;stroke:#b0b0b0;stroke-dasharray:5.12,1.28,0.8,1.28;stroke-dashoffset:0;stroke-width:0.8;"/>
     </g>
     <g id="line2d_16">
      <g>
       <use style="stroke:#000000;stroke-width:0.8;" x="72" xlink:href="#mfeea210817" y="266.336846"/>
      </g>
     </g>
     <g id="text_9">
      <text style="font-family:DejaVu Sans;font-size:10px;font-style:normal;font-weight:400;text-anchor:end;" transform="rotate(-0, 65, 270.136064)" x="65" y="270.136064">0</text>
     </g>
    </g>
    <g id="ytick_3">
     <g id="line2d_17">
      <path clip-path="url(#p808cf005ff)" d="M 72 203.09521 
L 518.4 203.09521 
" style="fill:none;stroke:#b0b0b0;stroke-dasharray:5.12,1.28,0.8,1.28;stroke-dashoffset:0;stroke-width:0.8;"/>
     </g>
     <g id="line2d_18">
      <g>
       <use style="stroke:#000000;stroke-width:0.8;" x="72" xlink:href="#mfeea210817" y="203.09521"/>
      </g>
     </g>
     <g id="text_10">
      <text style="font-family:DejaVu Sans;font-size:10px;font-style:normal;font-weight:400;text-anchor:end;" transform="rotate(-0, 65, 206.894429)" x="65" y="206.894429">5</text>
     </g>
    </g>
    <g id="ytick_4">
     <g id="line2d_19">
      <path clip-path="url(#p808cf005ff)" d="M 72 139.853574 
L 518.4 139.853574 
" style="fill:none;stroke:#b0b0b0;stroke-dasharray:5.12,1.28,0.8,1.28;stroke-dashoffset:0;stroke-width:0.8;"/>
     </g>
     <g id="line2d_20">
      <g>
       <use style="stroke:#000000;stroke-width:0.8;" x="72" xlink:href="#mfeea210817" y="139.853574"/>
      </g>
     </g>
     <g id="text_11">
      <text style="font-family:DejaVu Sans;font-size:10px;font-style:normal;font-weight:400;text-anchor:end;" transform="rotate(-0, 65, 143.652793)" x="65" y="143.652793">10</text>
     </g>
    </g>
    <g id="ytick_5">
     <g id="line2d_21">
      <path clip-path="url(#p808cf005ff)" d="M 72 76.611938 
L 518.4 76.611938 
" style="fill:none;stroke:#b0b0b0;stroke-dasharray:5.12,1.28,0.8,1.28;stroke-dashoffset:0;stroke-width:0.8;"/>
     </g>
     <g id="line2d_22">
      <g>
       <use style="stroke:#000000;stroke-width:0.8;" x="72" xlink:href="#mfeea210817" y="76.611938"/>
      </g>
     </g>
     <g id="text_12">
      <text style="font-family:DejaVu Sans;font-size:10px;font-style:normal;font-weight:400;text-anchor:end;" transform="rotate(-0, 65, 80.411157)" x="65" y="80.411157">15</text>
     </g>
    </g>
    <g id="text_13">
     <text style="font-family:DejaVu Sans;font-size:14px;font-style:normal;font-weight:400;text-anchor:middle;" transform="rotate(-90, 42.956875, 218.16)" x="42.956875" y="218.16">$\partial \mathcal{L}/ \partial u_{m} modified[m.u/V]$</text>
    </g>
   </g>
   <g id="line2d_23">
    <path clip-path="url(#p808cf005ff)" d="M 97.767611 266.336846 
L 102.144023 266.336846 
L 103.037002 266.441827 
L 105.358962 266.589812 
L 106.834225 266.709971 
L 107.488689 267.031239 
L 108.33146 267.672509 
L 109.806357 269.113154 
L 111.676996 271.071115 
L 114.847471 273.870189 
L 116.979983 275.33613 
L 119.117391 276.542781 
L 120.615874 277.268795 
L 122.104535 277.927773 
L 122.313486 276.818514 
L 122.541414 276.737565 
L 122.95099 276.139299 
L 123.382648 275.898981 
L 124.452439 275.781352 
L 125.496937 275.580243 
L 128.485536 274.747983 
L 129.753231 274.765691 
L 130.413435 274.498811 
L 131.034338 274.560788 
L 132.103074 274.984507 
L 138.256111 277.91133 
L 148.720816 282.381249 
L 149.358533 283.044021 
L 150.202046 284.350593 
L 151.803715 287.444374 
L 153.280165 290.529301 
L 154.971268 293.540868 
L 157.509495 297.392283 
L 158.999057 299.450166 
L 160.477653 301.438483 
L 176.634274 321.937627 
L 182.59734 328.475547 
L 185.153393 330.98877 
L 192.382838 337.283842 
L 197.285641 340.961976 
L 201.325297 343.714252 
L 208.996782 348.358718 
L 211.590227 349.769006 
L 214.345639 351.232418 
L 217.95274 353.055041 
L 226.922704 357.199898 
L 236.034287 361.046255 
L 239.459263 362.292115 
L 241.171608 362.524844 
L 249.086912 363.080106 
L 259.535494 364.844547 
L 266.813831 365.747638 
L 276.209064 366.648199 
L 286.471099 367.379272 
L 299.218538 368.023072 
L 313.500457 368.497384 
L 328.159631 368.811063 
L 351.811871 369.09565 
L 404.246851 369.309407 
L 498.105619 369.36 
L 498.105619 369.36 
" style="fill:none;stroke:#bf00bf;stroke-linecap:square;stroke-width:1.5;"/>
   </g>
   <g id="line2d_24">
    <path clip-path="url(#p808cf005ff)" d="M 92.290909 266.336846 
L 103.562426 266.438032 
L 105.689039 266.545543 
L 106.319071 266.650524 
L 106.948129 266.980646 
L 107.813947 267.7016 
L 109.488435 269.689917 
L 114.098271 275.291861 
L 117.294065 278.316076 
L 120.045208 280.484 
L 122.211392 281.933498 
L 122.433979 283.347581 
L 123.06735 284.905855 
L 123.710434 285.759617 
L 124.338423 286.250372 
L 125.188583 286.581758 
L 126.256736 286.674091 
L 127.73317 286.787926 
L 128.588457 287.090221 
L 129.660987 287.70493 
L 130.513403 288.688969 
L 131.362286 289.194903 
L 134.102043 290.220682 
L 136.444228 291.21737 
L 142.864008 294.369333 
L 146.264728 296.123656 
L 148.609181 297.131728 
L 149.244028 296.949592 
L 149.888605 296.485398 
L 151.481516 294.741194 
L 152.533358 293.611698 
L 153.601515 292.867977 
L 154.653239 292.449317 
L 155.920158 292.249474 
L 157.395182 292.281094 
L 159.309498 292.559358 
L 162.509239 293.296755 
L 168.860658 295.162383 
L 171.453261 295.849187 
L 173.564409 296.188163 
L 176.563183 296.443659 
L 180.804316 296.600498 
L 189.116954 296.689036 
L 207.003171 296.704214 
L 228.086142 296.689036 
L 239.141424 296.787693 
L 240.647975 297.168408 
L 244.473013 298.418063 
L 246.834666 298.883521 
L 248.954028 299.08463 
L 252.808443 299.166844 
L 268.418475 299.373011 
L 286.586072 299.589298 
L 304.872813 299.713251 
L 339.798534 299.822027 
L 497.992154 299.87768 
L 497.992154 299.87768 
" style="fill:none;stroke:#00bfbf;stroke-linecap:square;stroke-width:1.5;"/>
   </g>
   <g id="line2d_25">
    <path clip-path="url(#p808cf005ff)" d="M 97.777877 266.336846 
L 102.208295 266.336846 
L 102.476215 266.341905 
L 102.826914 266.992029 
L 104.726507 266.851633 
L 105.790382 266.656848 
L 105.998403 266.550602 
L 106.425229 265.897949 
L 107.063928 264.56861 
L 108.123133 262.004794 
L 111.313477 253.667016 
L 111.906534 252.039177 
L 113.797835 247.359296 
L 115.697027 242.977915 
L 120.813965 232.605022 
L 122.963145 228.906651 
L 123.818512 227.963086 
L 124.449554 227.608933 
L 125.091993 227.576047 
L 125.935021 227.902374 
L 127.001627 228.414631 
L 127.636255 228.496845 
L 128.279786 228.485462 
L 128.685833 228.380481 
L 129.12535 228.023798 
L 129.986079 226.930982 
L 131.683059 224.754205 
L 135.260087 220.710535 
L 136.337931 219.503885 
L 151.156674 201.813934 
L 155.398936 197.12267 
L 157.720571 193.912524 
L 160.491214 189.615888 
L 166.220681 179.976598 
L 167.497533 177.601242 
L 168.550799 174.802167 
L 173.879384 160.07066 
L 176.431447 153.880569 
L 179.612747 146.880985 
L 182.381963 141.376433 
L 185.149756 136.328485 
L 191.32247 126.475439 
L 193.246194 123.764902 
L 195.568334 120.649619 
L 198.340243 117.224452 
L 202.390276 112.669789 
L 205.594305 109.407786 
L 209.46203 105.834633 
L 212.85561 102.930578 
L 218.590943 98.52896 
L 222.64463 95.746328 
L 225.863797 93.707417 
L 232.433327 89.856002 
L 236.889198 87.479381 
L 242.64232 84.42228 
L 247.365771 81.643443 
L 250.148403 80.273629 
L 253.757575 78.812747 
L 258.886786 77.125461 
L 266.817321 74.967656 
L 273.018547 73.587723 
L 285.626966 71.471658 
L 293.052724 70.549595 
L 307.317968 69.277174 
L 319.879406 68.534717 
L 333.916429 67.98072 
L 356.083804 67.474787 
L 375.220371 67.242058 
L 434.577215 66.99921 
L 498.109091 66.96 
L 498.109091 66.96 
" style="fill:none;stroke:#ff0000;stroke-linecap:square;stroke-width:1.5;"/>
   </g>
   <g id="line2d_26">
    <path clip-path="url(#p808cf005ff)" d="M 97.7847 266.336846 
L 102.1544 266.336846 
L 102.335158 266.336846 
L 102.722839 265.935894 
L 103.151106 265.956131 
L 104.186478 265.913127 
L 105.901431 266.050994 
L 106.327672 266.94776 
L 107.375637 269.81893 
L 109.075402 273.403466 
L 109.894048 274.745454 
L 111.565435 276.970294 
L 115.150438 280.957047 
L 118.772564 284.48593 
L 119.63484 285.238506 
L 120.914256 286.297171 
L 122.21449 287.159787 
L 122.847263 287.488643 
L 123.276483 287.491173 
L 123.721388 287.312831 
L 124.349028 286.71836 
L 126.883251 283.24007 
L 127.511207 282.944099 
L 128.793865 282.932716 
L 129.645832 283.366553 
L 130.711328 283.850984 
L 132.211509 284.195019 
L 139.222355 285.490208 
L 144.799662 287.002947 
L 148.812217 288.15521 
L 149.892266 288.27031 
L 150.823822 288.142562 
L 151.698952 287.81497 
L 155.279828 285.99867 
L 156.751318 285.590129 
L 158.661681 285.371313 
L 160.802437 285.395345 
L 163.98654 285.706494 
L 167.178569 286.198514 
L 168.031549 286.862551 
L 171.232814 290.726615 
L 172.285588 291.980064 
L 176.742047 296.571407 
L 181.84165 300.851601 
L 186.952447 304.431077 
L 193.966966 308.448186 
L 201.854873 311.927741 
L 205.917791 313.365856 
L 208.668827 314.233531 
L 213.789401 315.617258 
L 220.17897 317.008574 
L 227.440763 318.224078 
L 234.443092 319.11705 
L 241.282402 320.006227 
L 243.378287 320.696826 
L 248.310001 322.414469 
L 251.521715 323.198665 
L 255.797796 323.918355 
L 260.073027 324.495119 
L 269.688151 325.606907 
L 276.737721 326.251971 
L 284.446881 326.813557 
L 302.072935 327.703999 
L 322.336476 328.279498 
L 348.938246 328.653889 
L 414.662489 328.91065 
L 497.988904 328.94733 
L 497.988904 328.94733 
" style="fill:none;stroke:#008000;stroke-linecap:square;stroke-width:1.5;"/>
   </g>
   <g id="patch_3">
    <path d="M 72 384.48 
L 72 51.84 
" style="fill:none;stroke:#000000;stroke-linecap:square;stroke-linejoin:miter;stroke-width:0.8;"/>
   </g>
   <g id="patch_4">
    <path d="M 518.4 384.48 
L 518.4 51.84 
" style="fill:none;stroke:#000000;stroke-linecap:square;stroke-linejoin:miter;stroke-width:0.8;"/>
   </g>
   <g id="patch_5">
    <path d="M 72 384.48 
L 518.4 384.48 
" style="fill:none;stroke:#000000;stroke-linecap:square;stroke-linejoin:miter;stroke-width:0.8;"/>
   </g>
   <g id="patch_6">
    <path d="M 72 51.84 
L 518.4 51.84 
" style="fill:none;stroke:#000000;stroke-linecap:square;stroke-linejoin:miter;stroke-width:0.8;"/>
   </g>
   <g id="legend_1">
    <g id="patch_7">
     <path d="M 243.064062 249.5725 
L 511.4 249.5725 
Q 513.4 249.5725 513.4 247.5725 
L 513.4 188.7475 
Q 513.4 186.7475 511.4 186.7475 
L 243.064062 186.7475 
Q 241.064062 186.7475 241.064062 188.7475 
L 241.064062 247.5725 
Q 241.064062 249.5725 243.064062 249.5725 
z
" style="fill:#ffffff;opacity:0.8;stroke:#cccccc;stroke-linejoin:miter;"/>
    </g>
    <g id="line2d_27">
     <path d="M 245.064062 194.845937 
L 265.064062 194.845937 
" style="fill:none;stroke:#bf00bf;stroke-linecap:square;stroke-width:1.5;"/>
    </g>
    <g id="line2d_28"/>
    <g id="text_14">
     <text style="font-family:DejaVu Sans;font-size:10px;font-style:normal;font-weight:400;text-anchor:start;" transform="rotate(-0, 273.064062, 198.345937)" x="273.064062" y="198.345937">$\partial \mathcal{L}/ \partial u_{1} modified$</text>
    </g>
    <g id="line2d_29">
     <path d="M 245.064062 209.802188 
L 265.064062 209.802188 
" style="fill:none;stroke:#00bfbf;stroke-linecap:square;stroke-width:1.5;"/>
    </g>
    <g id="line2d_30"/>
    <g id="text_15">
     <text style="font-family:DejaVu Sans;font-size:10px;font-style:normal;font-weight:400;text-anchor:start;" transform="rotate(-0, 273.064062, 213.302188)" x="273.064062" y="213.302188">$\partial \mathcal{L}/ \partial u_{2} modified$</text>
    </g>
    <g id="line2d_31">
     <path d="M 245.064062 224.758437 
L 265.064062 224.758437 
" style="fill:none;stroke:#ff0000;stroke-linecap:square;stroke-width:1.5;"/>
    </g>
    <g id="line2d_32"/>
    <g id="text_16">
     <text style="font-family:DejaVu Sans;font-size:10px;font-style:normal;font-weight:400;text-anchor:start;" transform="rotate(-0, 273.064062, 228.258437)" x="273.064062" y="228.258437">$\partial \mathcal{L}/ \partial u_{3} modified$</text>
    </g>
    <g id="line2d_33">
     <path d="M 245.064062 239.714687 
L 265.064062 239.714687 
" style="fill:none;stroke:#008000;stroke-linecap:square;stroke-width:1.5;"/>
    </g>
    <g id="line2d_34"/>
    <g id="text_17">
     <text style="font-family:DejaVu Sans;font-size:10px;font-style:normal;font-weight:400;text-anchor:start;" transform="rotate(-0, 273.064062, 243.214687)" x="273.064062" y="243.214687">$\partial \mathcal{L}/ \partial u_{4} modified$</text>
    </g>
   </g>
  </g>
 </g>
 <defs>
  <clipPath id="p808cf005ff">
   <rect height="332.64" width="446.4" x="72" y="51.84"/>
  </clipPath>
 </defs>
</svg>
