<?xml version="1.0" encoding="utf-8" standalone="no"?>
<!DOCTYPE svg PUBLIC "-//W3C//DTD SVG 1.1//EN"
  "http://www.w3.org/Graphics/SVG/1.1/DTD/svg11.dtd">
<!-- Created with matplotlib (http://matplotlib.org/) -->
<svg height="432pt" version="1.1" viewBox="0 0 576 432" width="576pt" xmlns="http://www.w3.org/2000/svg" xmlns:xlink="http://www.w3.org/1999/xlink">
 <defs>
  <style type="text/css">
*{stroke-linecap:butt;stroke-linejoin:round;}
  </style>
 </defs>
 <g id="figure_1">
  <g id="patch_1">
   <path d="M 0 432 
L 576 432 
L 576 0 
L 0 0 
z
" style="fill:#ffffff;"/>
  </g>
  <g id="axes_1">
   <g id="patch_2">
    <path d="M 72 384.48 
L 518.4 384.48 
L 518.4 51.84 
L 72 51.84 
z
" style="fill:#ffffff;"/>
   </g>
   <g id="matplotlib.axis_1">
    <g id="xtick_1">
     <g id="line2d_1">
      <path clip-path="url(#p4e5a96180f)" d="M 92.290909 384.48 
L 92.290909 51.84 
" style="fill:none;stroke:#b0b0b0;stroke-dasharray:5.12,1.28,0.8,1.28;stroke-dashoffset:0;stroke-width:0.8;"/>
     </g>
     <g id="line2d_2">
      <defs>
       <path d="M 0 0 
L 0 3.5 
" id="m9bfa3398c5" style="stroke:#000000;stroke-width:0.8;"/>
      </defs>
      <g>
       <use style="stroke:#000000;stroke-width:0.8;" x="92.290909" xlink:href="#m9bfa3398c5" y="384.48"/>
      </g>
     </g>
     <g id="text_1">
      <!-- 0 -->
      <defs>
       <path d="M 31.78125 66.40625 
Q 24.171875 66.40625 20.328125 58.90625 
Q 16.5 51.421875 16.5 36.375 
Q 16.5 21.390625 20.328125 13.890625 
Q 24.171875 6.390625 31.78125 6.390625 
Q 39.453125 6.390625 43.28125 13.890625 
Q 47.125 21.390625 47.125 36.375 
Q 47.125 51.421875 43.28125 58.90625 
Q 39.453125 66.40625 31.78125 66.40625 
z
M 31.78125 74.21875 
Q 44.046875 74.21875 50.515625 64.515625 
Q 56.984375 54.828125 56.984375 36.375 
Q 56.984375 17.96875 50.515625 8.265625 
Q 44.046875 -1.421875 31.78125 -1.421875 
Q 19.53125 -1.421875 13.0625 8.265625 
Q 6.59375 17.96875 6.59375 36.375 
Q 6.59375 54.828125 13.0625 64.515625 
Q 19.53125 74.21875 31.78125 74.21875 
z
" id="DejaVuSans-30"/>
      </defs>
      <g transform="translate(89.109659 399.078438)scale(0.1 -0.1)">
       <use xlink:href="#DejaVuSans-30"/>
      </g>
     </g>
    </g>
    <g id="xtick_2">
     <g id="line2d_3">
      <path clip-path="url(#p4e5a96180f)" d="M 157.766576 384.48 
L 157.766576 51.84 
" style="fill:none;stroke:#b0b0b0;stroke-dasharray:5.12,1.28,0.8,1.28;stroke-dashoffset:0;stroke-width:0.8;"/>
     </g>
     <g id="line2d_4">
      <g>
       <use style="stroke:#000000;stroke-width:0.8;" x="157.766576" xlink:href="#m9bfa3398c5" y="384.48"/>
      </g>
     </g>
     <g id="text_2">
      <!-- 500 -->
      <defs>
       <path d="M 10.796875 72.90625 
L 49.515625 72.90625 
L 49.515625 64.59375 
L 19.828125 64.59375 
L 19.828125 46.734375 
Q 21.96875 47.46875 24.109375 47.828125 
Q 26.265625 48.1875 28.421875 48.1875 
Q 40.625 48.1875 47.75 41.5 
Q 54.890625 34.8125 54.890625 23.390625 
Q 54.890625 11.625 47.5625 5.09375 
Q 40.234375 -1.421875 26.90625 -1.421875 
Q 22.3125 -1.421875 17.546875 -0.640625 
Q 12.796875 0.140625 7.71875 1.703125 
L 7.71875 11.625 
Q 12.109375 9.234375 16.796875 8.0625 
Q 21.484375 6.890625 26.703125 6.890625 
Q 35.15625 6.890625 40.078125 11.328125 
Q 45.015625 15.765625 45.015625 23.390625 
Q 45.015625 31 40.078125 35.4375 
Q 35.15625 39.890625 26.703125 39.890625 
Q 22.75 39.890625 18.8125 39.015625 
Q 14.890625 38.140625 10.796875 36.28125 
z
" id="DejaVuSans-35"/>
      </defs>
      <g transform="translate(148.222826 399.078438)scale(0.1 -0.1)">
       <use xlink:href="#DejaVuSans-35"/>
       <use x="63.623047" xlink:href="#DejaVuSans-30"/>
       <use x="127.246094" xlink:href="#DejaVuSans-30"/>
      </g>
     </g>
    </g>
    <g id="xtick_3">
     <g id="line2d_5">
      <path clip-path="url(#p4e5a96180f)" d="M 223.242242 384.48 
L 223.242242 51.84 
" style="fill:none;stroke:#b0b0b0;stroke-dasharray:5.12,1.28,0.8,1.28;stroke-dashoffset:0;stroke-width:0.8;"/>
     </g>
     <g id="line2d_6">
      <g>
       <use style="stroke:#000000;stroke-width:0.8;" x="223.242242" xlink:href="#m9bfa3398c5" y="384.48"/>
      </g>
     </g>
     <g id="text_3">
      <!-- 1000 -->
      <defs>
       <path d="M 12.40625 8.296875 
L 28.515625 8.296875 
L 28.515625 63.921875 
L 10.984375 60.40625 
L 10.984375 69.390625 
L 28.421875 72.90625 
L 38.28125 72.90625 
L 38.28125 8.296875 
L 54.390625 8.296875 
L 54.390625 0 
L 12.40625 0 
z
" id="DejaVuSans-31"/>
      </defs>
      <g transform="translate(210.517242 399.078438)scale(0.1 -0.1)">
       <use xlink:href="#DejaVuSans-31"/>
       <use x="63.623047" xlink:href="#DejaVuSans-30"/>
       <use x="127.246094" xlink:href="#DejaVuSans-30"/>
       <use x="190.869141" xlink:href="#DejaVuSans-30"/>
      </g>
     </g>
    </g>
    <g id="xtick_4">
     <g id="line2d_7">
      <path clip-path="url(#p4e5a96180f)" d="M 288.717909 384.48 
L 288.717909 51.84 
" style="fill:none;stroke:#b0b0b0;stroke-dasharray:5.12,1.28,0.8,1.28;stroke-dashoffset:0;stroke-width:0.8;"/>
     </g>
     <g id="line2d_8">
      <g>
       <use style="stroke:#000000;stroke-width:0.8;" x="288.717909" xlink:href="#m9bfa3398c5" y="384.48"/>
      </g>
     </g>
     <g id="text_4">
      <!-- 1500 -->
      <g transform="translate(275.992909 399.078438)scale(0.1 -0.1)">
       <use xlink:href="#DejaVuSans-31"/>
       <use x="63.623047" xlink:href="#DejaVuSans-35"/>
       <use x="127.246094" xlink:href="#DejaVuSans-30"/>
       <use x="190.869141" xlink:href="#DejaVuSans-30"/>
      </g>
     </g>
    </g>
    <g id="xtick_5">
     <g id="line2d_9">
      <path clip-path="url(#p4e5a96180f)" d="M 354.193576 384.48 
L 354.193576 51.84 
" style="fill:none;stroke:#b0b0b0;stroke-dasharray:5.12,1.28,0.8,1.28;stroke-dashoffset:0;stroke-width:0.8;"/>
     </g>
     <g id="line2d_10">
      <g>
       <use style="stroke:#000000;stroke-width:0.8;" x="354.193576" xlink:href="#m9bfa3398c5" y="384.48"/>
      </g>
     </g>
     <g id="text_5">
      <!-- 2000 -->
      <defs>
       <path d="M 19.1875 8.296875 
L 53.609375 8.296875 
L 53.609375 0 
L 7.328125 0 
L 7.328125 8.296875 
Q 12.9375 14.109375 22.625 23.890625 
Q 32.328125 33.6875 34.8125 36.53125 
Q 39.546875 41.84375 41.421875 45.53125 
Q 43.3125 49.21875 43.3125 52.78125 
Q 43.3125 58.59375 39.234375 62.25 
Q 35.15625 65.921875 28.609375 65.921875 
Q 23.96875 65.921875 18.8125 64.3125 
Q 13.671875 62.703125 7.8125 59.421875 
L 7.8125 69.390625 
Q 13.765625 71.78125 18.9375 73 
Q 24.125 74.21875 28.421875 74.21875 
Q 39.75 74.21875 46.484375 68.546875 
Q 53.21875 62.890625 53.21875 53.421875 
Q 53.21875 48.921875 51.53125 44.890625 
Q 49.859375 40.875 45.40625 35.40625 
Q 44.1875 33.984375 37.640625 27.21875 
Q 31.109375 20.453125 19.1875 8.296875 
z
" id="DejaVuSans-32"/>
      </defs>
      <g transform="translate(341.468576 399.078438)scale(0.1 -0.1)">
       <use xlink:href="#DejaVuSans-32"/>
       <use x="63.623047" xlink:href="#DejaVuSans-30"/>
       <use x="127.246094" xlink:href="#DejaVuSans-30"/>
       <use x="190.869141" xlink:href="#DejaVuSans-30"/>
      </g>
     </g>
    </g>
    <g id="xtick_6">
     <g id="line2d_11">
      <path clip-path="url(#p4e5a96180f)" d="M 419.669242 384.48 
L 419.669242 51.84 
" style="fill:none;stroke:#b0b0b0;stroke-dasharray:5.12,1.28,0.8,1.28;stroke-dashoffset:0;stroke-width:0.8;"/>
     </g>
     <g id="line2d_12">
      <g>
       <use style="stroke:#000000;stroke-width:0.8;" x="419.669242" xlink:href="#m9bfa3398c5" y="384.48"/>
      </g>
     </g>
     <g id="text_6">
      <!-- 2500 -->
      <g transform="translate(406.944242 399.078438)scale(0.1 -0.1)">
       <use xlink:href="#DejaVuSans-32"/>
       <use x="63.623047" xlink:href="#DejaVuSans-35"/>
       <use x="127.246094" xlink:href="#DejaVuSans-30"/>
       <use x="190.869141" xlink:href="#DejaVuSans-30"/>
      </g>
     </g>
    </g>
    <g id="xtick_7">
     <g id="line2d_13">
      <path clip-path="url(#p4e5a96180f)" d="M 485.144909 384.48 
L 485.144909 51.84 
" style="fill:none;stroke:#b0b0b0;stroke-dasharray:5.12,1.28,0.8,1.28;stroke-dashoffset:0;stroke-width:0.8;"/>
     </g>
     <g id="line2d_14">
      <g>
       <use style="stroke:#000000;stroke-width:0.8;" x="485.144909" xlink:href="#m9bfa3398c5" y="384.48"/>
      </g>
     </g>
     <g id="text_7">
      <!-- 3000 -->
      <defs>
       <path d="M 40.578125 39.3125 
Q 47.65625 37.796875 51.625 33 
Q 55.609375 28.21875 55.609375 21.1875 
Q 55.609375 10.40625 48.1875 4.484375 
Q 40.765625 -1.421875 27.09375 -1.421875 
Q 22.515625 -1.421875 17.65625 -0.515625 
Q 12.796875 0.390625 7.625 2.203125 
L 7.625 11.71875 
Q 11.71875 9.328125 16.59375 8.109375 
Q 21.484375 6.890625 26.8125 6.890625 
Q 36.078125 6.890625 40.9375 10.546875 
Q 45.796875 14.203125 45.796875 21.1875 
Q 45.796875 27.640625 41.28125 31.265625 
Q 36.765625 34.90625 28.71875 34.90625 
L 20.21875 34.90625 
L 20.21875 43.015625 
L 29.109375 43.015625 
Q 36.375 43.015625 40.234375 45.921875 
Q 44.09375 48.828125 44.09375 54.296875 
Q 44.09375 59.90625 40.109375 62.90625 
Q 36.140625 65.921875 28.71875 65.921875 
Q 24.65625 65.921875 20.015625 65.03125 
Q 15.375 64.15625 9.8125 62.3125 
L 9.8125 71.09375 
Q 15.4375 72.65625 20.34375 73.4375 
Q 25.25 74.21875 29.59375 74.21875 
Q 40.828125 74.21875 47.359375 69.109375 
Q 53.90625 64.015625 53.90625 55.328125 
Q 53.90625 49.265625 50.4375 45.09375 
Q 46.96875 40.921875 40.578125 39.3125 
z
" id="DejaVuSans-33"/>
      </defs>
      <g transform="translate(472.419909 399.078438)scale(0.1 -0.1)">
       <use xlink:href="#DejaVuSans-33"/>
       <use x="63.623047" xlink:href="#DejaVuSans-30"/>
       <use x="127.246094" xlink:href="#DejaVuSans-30"/>
       <use x="190.869141" xlink:href="#DejaVuSans-30"/>
      </g>
     </g>
    </g>
    <g id="text_8">
     <!-- Iteration -->
     <defs>
      <path d="M 9.8125 72.90625 
L 19.671875 72.90625 
L 19.671875 0 
L 9.8125 0 
z
" id="DejaVuSans-49"/>
      <path d="M 18.3125 70.21875 
L 18.3125 54.6875 
L 36.8125 54.6875 
L 36.8125 47.703125 
L 18.3125 47.703125 
L 18.3125 18.015625 
Q 18.3125 11.328125 20.140625 9.421875 
Q 21.96875 7.515625 27.59375 7.515625 
L 36.8125 7.515625 
L 36.8125 0 
L 27.59375 0 
Q 17.1875 0 13.234375 3.875 
Q 9.28125 7.765625 9.28125 18.015625 
L 9.28125 47.703125 
L 2.6875 47.703125 
L 2.6875 54.6875 
L 9.28125 54.6875 
L 9.28125 70.21875 
z
" id="DejaVuSans-74"/>
      <path d="M 56.203125 29.59375 
L 56.203125 25.203125 
L 14.890625 25.203125 
Q 15.484375 15.921875 20.484375 11.0625 
Q 25.484375 6.203125 34.421875 6.203125 
Q 39.59375 6.203125 44.453125 7.46875 
Q 49.3125 8.734375 54.109375 11.28125 
L 54.109375 2.78125 
Q 49.265625 0.734375 44.1875 -0.34375 
Q 39.109375 -1.421875 33.890625 -1.421875 
Q 20.796875 -1.421875 13.15625 6.1875 
Q 5.515625 13.8125 5.515625 26.8125 
Q 5.515625 40.234375 12.765625 48.109375 
Q 20.015625 56 32.328125 56 
Q 43.359375 56 49.78125 48.890625 
Q 56.203125 41.796875 56.203125 29.59375 
z
M 47.21875 32.234375 
Q 47.125 39.59375 43.09375 43.984375 
Q 39.0625 48.390625 32.421875 48.390625 
Q 24.90625 48.390625 20.390625 44.140625 
Q 15.875 39.890625 15.1875 32.171875 
z
" id="DejaVuSans-65"/>
      <path d="M 41.109375 46.296875 
Q 39.59375 47.171875 37.8125 47.578125 
Q 36.03125 48 33.890625 48 
Q 26.265625 48 22.1875 43.046875 
Q 18.109375 38.09375 18.109375 28.8125 
L 18.109375 0 
L 9.078125 0 
L 9.078125 54.6875 
L 18.109375 54.6875 
L 18.109375 46.1875 
Q 20.953125 51.171875 25.484375 53.578125 
Q 30.03125 56 36.53125 56 
Q 37.453125 56 38.578125 55.875 
Q 39.703125 55.765625 41.0625 55.515625 
z
" id="DejaVuSans-72"/>
      <path d="M 34.28125 27.484375 
Q 23.390625 27.484375 19.1875 25 
Q 14.984375 22.515625 14.984375 16.5 
Q 14.984375 11.71875 18.140625 8.90625 
Q 21.296875 6.109375 26.703125 6.109375 
Q 34.1875 6.109375 38.703125 11.40625 
Q 43.21875 16.703125 43.21875 25.484375 
L 43.21875 27.484375 
z
M 52.203125 31.203125 
L 52.203125 0 
L 43.21875 0 
L 43.21875 8.296875 
Q 40.140625 3.328125 35.546875 0.953125 
Q 30.953125 -1.421875 24.3125 -1.421875 
Q 15.921875 -1.421875 10.953125 3.296875 
Q 6 8.015625 6 15.921875 
Q 6 25.140625 12.171875 29.828125 
Q 18.359375 34.515625 30.609375 34.515625 
L 43.21875 34.515625 
L 43.21875 35.40625 
Q 43.21875 41.609375 39.140625 45 
Q 35.0625 48.390625 27.6875 48.390625 
Q 23 48.390625 18.546875 47.265625 
Q 14.109375 46.140625 10.015625 43.890625 
L 10.015625 52.203125 
Q 14.9375 54.109375 19.578125 55.046875 
Q 24.21875 56 28.609375 56 
Q 40.484375 56 46.34375 49.84375 
Q 52.203125 43.703125 52.203125 31.203125 
z
" id="DejaVuSans-61"/>
      <path d="M 9.421875 54.6875 
L 18.40625 54.6875 
L 18.40625 0 
L 9.421875 0 
z
M 9.421875 75.984375 
L 18.40625 75.984375 
L 18.40625 64.59375 
L 9.421875 64.59375 
z
" id="DejaVuSans-69"/>
      <path d="M 30.609375 48.390625 
Q 23.390625 48.390625 19.1875 42.75 
Q 14.984375 37.109375 14.984375 27.296875 
Q 14.984375 17.484375 19.15625 11.84375 
Q 23.34375 6.203125 30.609375 6.203125 
Q 37.796875 6.203125 41.984375 11.859375 
Q 46.1875 17.53125 46.1875 27.296875 
Q 46.1875 37.015625 41.984375 42.703125 
Q 37.796875 48.390625 30.609375 48.390625 
z
M 30.609375 56 
Q 42.328125 56 49.015625 48.375 
Q 55.71875 40.765625 55.71875 27.296875 
Q 55.71875 13.875 49.015625 6.21875 
Q 42.328125 -1.421875 30.609375 -1.421875 
Q 18.84375 -1.421875 12.171875 6.21875 
Q 5.515625 13.875 5.515625 27.296875 
Q 5.515625 40.765625 12.171875 48.375 
Q 18.84375 56 30.609375 56 
z
" id="DejaVuSans-6f"/>
      <path d="M 54.890625 33.015625 
L 54.890625 0 
L 45.90625 0 
L 45.90625 32.71875 
Q 45.90625 40.484375 42.875 44.328125 
Q 39.84375 48.1875 33.796875 48.1875 
Q 26.515625 48.1875 22.3125 43.546875 
Q 18.109375 38.921875 18.109375 30.90625 
L 18.109375 0 
L 9.078125 0 
L 9.078125 54.6875 
L 18.109375 54.6875 
L 18.109375 46.1875 
Q 21.34375 51.125 25.703125 53.5625 
Q 30.078125 56 35.796875 56 
Q 45.21875 56 50.046875 50.171875 
Q 54.890625 44.34375 54.890625 33.015625 
z
" id="DejaVuSans-6e"/>
     </defs>
     <g transform="translate(265.507969 415.795938)scale(0.14 -0.14)">
      <use xlink:href="#DejaVuSans-49"/>
      <use x="29.492188" xlink:href="#DejaVuSans-74"/>
      <use x="68.701172" xlink:href="#DejaVuSans-65"/>
      <use x="130.224609" xlink:href="#DejaVuSans-72"/>
      <use x="171.337891" xlink:href="#DejaVuSans-61"/>
      <use x="232.617188" xlink:href="#DejaVuSans-74"/>
      <use x="271.826172" xlink:href="#DejaVuSans-69"/>
      <use x="299.609375" xlink:href="#DejaVuSans-6f"/>
      <use x="360.791016" xlink:href="#DejaVuSans-6e"/>
     </g>
    </g>
   </g>
   <g id="matplotlib.axis_2">
    <g id="ytick_1">
     <g id="line2d_15">
      <path clip-path="url(#p4e5a96180f)" d="M 72 367.974699 
L 518.4 367.974699 
" style="fill:none;stroke:#b0b0b0;stroke-dasharray:5.12,1.28,0.8,1.28;stroke-dashoffset:0;stroke-width:0.8;"/>
     </g>
     <g id="line2d_16">
      <defs>
       <path d="M 0 0 
L -3.5 0 
" id="m1f422dc804" style="stroke:#000000;stroke-width:0.8;"/>
      </defs>
      <g>
       <use style="stroke:#000000;stroke-width:0.8;" x="72" xlink:href="#m1f422dc804" y="367.974699"/>
      </g>
     </g>
     <g id="text_9">
      <!-- −50 -->
      <defs>
       <path d="M 10.59375 35.5 
L 73.1875 35.5 
L 73.1875 27.203125 
L 10.59375 27.203125 
z
" id="DejaVuSans-2212"/>
      </defs>
      <g transform="translate(43.895313 371.773918)scale(0.1 -0.1)">
       <use xlink:href="#DejaVuSans-2212"/>
       <use x="83.789062" xlink:href="#DejaVuSans-35"/>
       <use x="147.412109" xlink:href="#DejaVuSans-30"/>
      </g>
     </g>
    </g>
    <g id="ytick_2">
     <g id="line2d_17">
      <path clip-path="url(#p4e5a96180f)" d="M 72 309.200788 
L 518.4 309.200788 
" style="fill:none;stroke:#b0b0b0;stroke-dasharray:5.12,1.28,0.8,1.28;stroke-dashoffset:0;stroke-width:0.8;"/>
     </g>
     <g id="line2d_18">
      <g>
       <use style="stroke:#000000;stroke-width:0.8;" x="72" xlink:href="#m1f422dc804" y="309.200788"/>
      </g>
     </g>
     <g id="text_10">
      <!-- −40 -->
      <defs>
       <path d="M 37.796875 64.3125 
L 12.890625 25.390625 
L 37.796875 25.390625 
z
M 35.203125 72.90625 
L 47.609375 72.90625 
L 47.609375 25.390625 
L 58.015625 25.390625 
L 58.015625 17.1875 
L 47.609375 17.1875 
L 47.609375 0 
L 37.796875 0 
L 37.796875 17.1875 
L 4.890625 17.1875 
L 4.890625 26.703125 
z
" id="DejaVuSans-34"/>
      </defs>
      <g transform="translate(43.895313 313.000007)scale(0.1 -0.1)">
       <use xlink:href="#DejaVuSans-2212"/>
       <use x="83.789062" xlink:href="#DejaVuSans-34"/>
       <use x="147.412109" xlink:href="#DejaVuSans-30"/>
      </g>
     </g>
    </g>
    <g id="ytick_3">
     <g id="line2d_19">
      <path clip-path="url(#p4e5a96180f)" d="M 72 250.426877 
L 518.4 250.426877 
" style="fill:none;stroke:#b0b0b0;stroke-dasharray:5.12,1.28,0.8,1.28;stroke-dashoffset:0;stroke-width:0.8;"/>
     </g>
     <g id="line2d_20">
      <g>
       <use style="stroke:#000000;stroke-width:0.8;" x="72" xlink:href="#m1f422dc804" y="250.426877"/>
      </g>
     </g>
     <g id="text_11">
      <!-- −30 -->
      <g transform="translate(43.895313 254.226096)scale(0.1 -0.1)">
       <use xlink:href="#DejaVuSans-2212"/>
       <use x="83.789062" xlink:href="#DejaVuSans-33"/>
       <use x="147.412109" xlink:href="#DejaVuSans-30"/>
      </g>
     </g>
    </g>
    <g id="ytick_4">
     <g id="line2d_21">
      <path clip-path="url(#p4e5a96180f)" d="M 72 191.652966 
L 518.4 191.652966 
" style="fill:none;stroke:#b0b0b0;stroke-dasharray:5.12,1.28,0.8,1.28;stroke-dashoffset:0;stroke-width:0.8;"/>
     </g>
     <g id="line2d_22">
      <g>
       <use style="stroke:#000000;stroke-width:0.8;" x="72" xlink:href="#m1f422dc804" y="191.652966"/>
      </g>
     </g>
     <g id="text_12">
      <!-- −20 -->
      <g transform="translate(43.895313 195.452185)scale(0.1 -0.1)">
       <use xlink:href="#DejaVuSans-2212"/>
       <use x="83.789062" xlink:href="#DejaVuSans-32"/>
       <use x="147.412109" xlink:href="#DejaVuSans-30"/>
      </g>
     </g>
    </g>
    <g id="ytick_5">
     <g id="line2d_23">
      <path clip-path="url(#p4e5a96180f)" d="M 72 132.879055 
L 518.4 132.879055 
" style="fill:none;stroke:#b0b0b0;stroke-dasharray:5.12,1.28,0.8,1.28;stroke-dashoffset:0;stroke-width:0.8;"/>
     </g>
     <g id="line2d_24">
      <g>
       <use style="stroke:#000000;stroke-width:0.8;" x="72" xlink:href="#m1f422dc804" y="132.879055"/>
      </g>
     </g>
     <g id="text_13">
      <!-- −10 -->
      <g transform="translate(43.895313 136.678274)scale(0.1 -0.1)">
       <use xlink:href="#DejaVuSans-2212"/>
       <use x="83.789062" xlink:href="#DejaVuSans-31"/>
       <use x="147.412109" xlink:href="#DejaVuSans-30"/>
      </g>
     </g>
    </g>
    <g id="ytick_6">
     <g id="line2d_25">
      <path clip-path="url(#p4e5a96180f)" d="M 72 74.105144 
L 518.4 74.105144 
" style="fill:none;stroke:#b0b0b0;stroke-dasharray:5.12,1.28,0.8,1.28;stroke-dashoffset:0;stroke-width:0.8;"/>
     </g>
     <g id="line2d_26">
      <g>
       <use style="stroke:#000000;stroke-width:0.8;" x="72" xlink:href="#m1f422dc804" y="74.105144"/>
      </g>
     </g>
     <g id="text_14">
      <!-- 0 -->
      <g transform="translate(58.6375 77.904363)scale(0.1 -0.1)">
       <use xlink:href="#DejaVuSans-30"/>
      </g>
     </g>
    </g>
    <g id="text_15">
     <!-- $\partial \mathcal{L}/ \partial \mu^{U_{\mathrm{max}}}_{m}[V]$ -->
     <defs>
      <path d="M 21.34375 -1.421875 
Q 14.453125 -1.421875 9.96875 2.734375 
Q 4.640625 7.671875 4.640625 16.609375 
Q 4.640625 25.875 9.328125 33.109375 
Q 14.15625 40.53125 22.859375 40.53125 
Q 28.5625 40.53125 33.0625 36.96875 
Q 35.6875 34.859375 37.5 31.34375 
Q 38.140625 35.296875 38.140625 39.796875 
Q 38.140625 46.390625 36.578125 50.203125 
Q 33.109375 58.640625 23.921875 58.640625 
Q 20.453125 58.640625 15.09375 56.5 
L 15.09375 64.703125 
Q 20.75 66.21875 25.828125 66.21875 
Q 38.921875 66.21875 44.484375 54.203125 
Q 47.078125 48.53125 47.078125 40.09375 
Q 47.078125 34.578125 45.84375 28.171875 
Q 42.78125 12.15625 34.8125 4.546875 
Q 28.5625 -1.421875 21.34375 -1.421875 
z
M 12.984375 15.140625 
Q 12.984375 10.25 15.140625 7.625 
Q 17.4375 4.828125 20.953125 4.828125 
Q 24.078125 4.828125 26.5625 7.03125 
Q 30.078125 10.0625 32.671875 14.984375 
Q 34.8125 19.046875 35.890625 23.390625 
Q 31.546875 33.890625 24.03125 33.890625 
Q 17.578125 33.890625 14.75 25.390625 
Q 12.984375 20.125 12.984375 15.140625 
z
" id="DejaVuSans-2202"/>
      <path d="M 63.59375 14.296875 
L 65.296875 12.5 
Q 52.296875 -0.703125 37.703125 -0.703125 
Q 33.703125 -0.703125 28.90625 0.40625 
Q 21.796875 1.90625 17.90625 1.90625 
Q 15.703125 1.90625 10.5 0.953125 
Q 5.296875 0 3 0 
L 3.59375 2.40625 
Q 9.09375 2.40625 11.40625 11.703125 
L 18.40625 40.09375 
Q 20.09375 47 23.6875 52.390625 
Q 27.296875 57.796875 31.640625 60.84375 
Q 36 63.90625 40.390625 65.453125 
Q 44.796875 67 48.796875 67 
Q 53.796875 67 56.140625 63.796875 
Q 58.5 60.59375 58.5 56 
Q 58.5 52.296875 56.140625 50 
Q 53.796875 47.703125 50.40625 47.703125 
Q 48.203125 47.703125 46.796875 49.203125 
Q 45.40625 50.703125 45.40625 52.796875 
Q 45.40625 54.40625 46.203125 55.5 
Q 47 56.59375 47.890625 56.9375 
Q 48.796875 57.296875 49.59375 57.890625 
Q 50.40625 58.5 50.40625 59.203125 
Q 50.40625 63 44.59375 63 
Q 39.40625 63 36.09375 59.140625 
Q 32.796875 55.296875 31.09375 48.9375 
Q 29.40625 42.59375 28.046875 35.6875 
Q 26.703125 28.796875 24.203125 21.296875 
Q 21.703125 13.796875 18.09375 9.203125 
L 18.09375 8.796875 
Q 21.296875 11 29.5 11 
Q 34.796875 11 38.4375 8.5 
Q 42.09375 6 46.296875 6 
Q 54.796875 6 63.59375 14.296875 
z
" id="STIXNonUnicode-Italic-e238"/>
      <path d="M 25.390625 72.90625 
L 33.6875 72.90625 
L 8.296875 -9.28125 
L 0 -9.28125 
z
" id="DejaVuSans-2f"/>
      <path d="M -1.3125 -20.796875 
L 13.375 54.6875 
L 22.40625 54.6875 
L 15.765625 20.65625 
Q 15.578125 19.625 15.421875 18.359375 
Q 15.28125 17.09375 15.28125 15.828125 
Q 15.28125 11.28125 18.140625 8.828125 
Q 21 6.390625 26.3125 6.390625 
Q 33.546875 6.390625 37.984375 10.484375 
Q 42.4375 14.59375 44 22.796875 
L 50.203125 54.6875 
L 59.1875 54.6875 
L 51.03125 12.640625 
Q 50.828125 11.71875 50.75 11.03125 
Q 50.6875 10.359375 50.6875 9.8125 
Q 50.6875 8.296875 51.296875 7.59375 
Q 51.90625 6.890625 53.21875 6.890625 
Q 53.71875 6.890625 54.5625 7.125 
Q 55.421875 7.375 56.984375 8.015625 
L 55.609375 0.78125 
Q 53.46875 -0.296875 51.515625 -0.859375 
Q 49.5625 -1.421875 47.703125 -1.421875 
Q 44.484375 -1.421875 42.65625 0.625 
Q 40.828125 2.6875 40.828125 6.296875 
Q 38.09375 2.390625 34.296875 0.484375 
Q 30.515625 -1.421875 25.390625 -1.421875 
Q 20.84375 -1.421875 17.453125 0.671875 
Q 14.0625 2.78125 12.984375 6.203125 
L 7.71875 -20.796875 
z
" id="DejaVuSans-Oblique-3bc"/>
      <path d="M 15.484375 72.90625 
L 25.390625 72.90625 
L 16.796875 28.609375 
Q 16.265625 25.640625 16.046875 23.703125 
Q 15.828125 21.78125 15.828125 20.3125 
Q 15.828125 13.578125 19.578125 10.078125 
Q 23.34375 6.59375 30.609375 6.59375 
Q 40.046875 6.59375 45.28125 11.765625 
Q 50.53125 16.9375 52.78125 28.609375 
L 61.375 72.90625 
L 71.296875 72.90625 
L 62.5 27.390625 
Q 59.625 12.640625 51.5625 5.609375 
Q 43.5 -1.421875 29.5 -1.421875 
Q 18.5625 -1.421875 12.1875 4.078125 
Q 5.8125 9.578125 5.8125 19 
Q 5.8125 20.703125 6.046875 22.828125 
Q 6.296875 24.953125 6.78125 27.390625 
z
" id="DejaVuSans-Oblique-55"/>
      <path d="M 52 44.1875 
Q 55.375 50.25 60.0625 53.125 
Q 64.75 56 71.09375 56 
Q 79.640625 56 84.28125 50.015625 
Q 88.921875 44.046875 88.921875 33.015625 
L 88.921875 0 
L 79.890625 0 
L 79.890625 32.71875 
Q 79.890625 40.578125 77.09375 44.375 
Q 74.3125 48.1875 68.609375 48.1875 
Q 61.625 48.1875 57.5625 43.546875 
Q 53.515625 38.921875 53.515625 30.90625 
L 53.515625 0 
L 44.484375 0 
L 44.484375 32.71875 
Q 44.484375 40.625 41.703125 44.40625 
Q 38.921875 48.1875 33.109375 48.1875 
Q 26.21875 48.1875 22.15625 43.53125 
Q 18.109375 38.875 18.109375 30.90625 
L 18.109375 0 
L 9.078125 0 
L 9.078125 54.6875 
L 18.109375 54.6875 
L 18.109375 46.1875 
Q 21.1875 51.21875 25.484375 53.609375 
Q 29.78125 56 35.6875 56 
Q 41.65625 56 45.828125 52.96875 
Q 50 49.953125 52 44.1875 
z
" id="DejaVuSans-6d"/>
      <path d="M 54.890625 54.6875 
L 35.109375 28.078125 
L 55.90625 0 
L 45.3125 0 
L 29.390625 21.484375 
L 13.484375 0 
L 2.875 0 
L 24.125 28.609375 
L 4.6875 54.6875 
L 15.28125 54.6875 
L 29.78125 35.203125 
L 44.28125 54.6875 
z
" id="DejaVuSans-78"/>
      <path d="M 89.796875 33.015625 
L 83.40625 0 
L 74.421875 0 
L 80.71875 32.71875 
Q 81.109375 34.8125 81.296875 36.328125 
Q 81.5 37.84375 81.5 38.921875 
Q 81.5 43.3125 79.046875 45.75 
Q 76.609375 48.1875 72.21875 48.1875 
Q 65.671875 48.1875 60.546875 43.28125 
Q 55.421875 38.375 53.90625 30.515625 
L 47.90625 0 
L 38.921875 0 
L 45.3125 32.71875 
Q 45.703125 34.515625 45.890625 36.046875 
Q 46.09375 37.59375 46.09375 38.8125 
Q 46.09375 43.265625 43.65625 45.71875 
Q 41.21875 48.1875 36.921875 48.1875 
Q 30.28125 48.1875 25.140625 43.28125 
Q 20.015625 38.375 18.5 30.515625 
L 12.5 0 
L 3.515625 0 
L 14.203125 54.6875 
L 23.1875 54.6875 
L 21.484375 46.1875 
Q 25.140625 50.984375 30.046875 53.484375 
Q 34.96875 56 40.578125 56 
Q 46.53125 56 50.359375 52.875 
Q 54.203125 49.75 54.984375 44.1875 
Q 59.078125 49.953125 64.46875 52.96875 
Q 69.875 56 75.875 56 
Q 82.90625 56 86.734375 51.953125 
Q 90.578125 47.90625 90.578125 40.484375 
Q 90.578125 38.875 90.375 36.9375 
Q 90.1875 35.015625 89.796875 33.015625 
z
" id="DejaVuSans-Oblique-6d"/>
      <path d="M 8.59375 75.984375 
L 29.296875 75.984375 
L 29.296875 69 
L 17.578125 69 
L 17.578125 -6.203125 
L 29.296875 -6.203125 
L 29.296875 -13.1875 
L 8.59375 -13.1875 
z
" id="DejaVuSans-5b"/>
      <path d="M 20.609375 0 
L 7.8125 72.90625 
L 17.484375 72.90625 
L 28.078125 10.203125 
L 63.484375 72.90625 
L 74.21875 72.90625 
L 32.078125 0 
z
" id="DejaVuSans-Oblique-56"/>
      <path d="M 30.421875 75.984375 
L 30.421875 -13.1875 
L 9.71875 -13.1875 
L 9.71875 -6.203125 
L 21.390625 -6.203125 
L 21.390625 69 
L 9.71875 69 
L 9.71875 75.984375 
z
" id="DejaVuSans-5d"/>
     </defs>
     <g transform="translate(35.975313 259.04)rotate(-90)scale(0.14 -0.14)">
      <use transform="translate(0 0.684375)" xlink:href="#DejaVuSans-2202"/>
      <use transform="translate(51.708984 0.684375)" xlink:href="#STIXNonUnicode-Italic-e238"/>
      <use transform="translate(121.008972 0.684375)" xlink:href="#DejaVuSans-2f"/>
      <use transform="translate(154.700378 0.684375)" xlink:href="#DejaVuSans-2202"/>
      <use transform="translate(206.409363 0.684375)" xlink:href="#DejaVuSans-Oblique-3bc"/>
      <use transform="translate(274.498556 38.965625)scale(0.7)" xlink:href="#DejaVuSans-Oblique-55"/>
      <use transform="translate(325.733907 27.48125)scale(0.49)" xlink:href="#DejaVuSans-6d"/>
      <use transform="translate(373.465841 27.48125)scale(0.49)" xlink:href="#DejaVuSans-61"/>
      <use transform="translate(403.492696 27.48125)scale(0.49)" xlink:href="#DejaVuSans-78"/>
      <use transform="translate(270.03241 -26.659375)scale(0.7)" xlink:href="#DejaVuSans-Oblique-6d"/>
      <use transform="translate(437.139181 0.684375)" xlink:href="#DejaVuSans-5b"/>
      <use transform="translate(476.152852 0.684375)" xlink:href="#DejaVuSans-Oblique-56"/>
      <use transform="translate(544.561056 0.684375)" xlink:href="#DejaVuSans-5d"/>
     </g>
    </g>
   </g>
   <g id="line2d_27">
    <path clip-path="url(#p4e5a96180f)" d="M 92.290909 74.105144 
L 92.42186 221.039922 
L 92.683763 221.143951 
L 92.945666 221.685847 
L 94.909936 227.76542 
L 96.219449 233.987226 
L 101.719405 262.490222 
L 116.124052 338.265075 
L 116.90976 341.982525 
L 117.302614 342.653723 
L 117.695468 342.907038 
L 117.826419 342.949355 
L 118.481176 342.695452 
L 121.100202 342.152969 
L 124.112083 341.763886 
L 128.040623 341.48706 
L 137.076265 341.144996 
L 141.921464 341.275474 
L 144.933345 341.138531 
L 150.826155 341.212586 
L 153.183279 341.14676 
L 158.421332 341.249614 
L 161.17131 341.147935 
L 166.540315 341.241973 
L 169.159342 341.150874 
L 174.528346 341.240798 
L 177.147373 341.155576 
L 182.647329 341.227868 
L 185.135404 341.160865 
L 190.373458 341.238447 
L 193.123436 341.168506 
L 197.968635 341.253728 
L 200.980516 341.17262 
L 205.694764 341.256667 
L 211.456622 340.811161 
L 213.420892 340.275142 
L 215.385162 339.506967 
L 217.349432 338.507223 
L 219.444654 337.185398 
L 221.539875 335.600266 
L 223.766048 333.628401 
L 225.99222 331.360316 
L 228.349344 328.637908 
L 230.706468 325.587542 
L 233.194544 322.014088 
L 235.81357 317.862299 
L 238.563548 313.077515 
L 241.444478 307.602138 
L 244.325407 301.660095 
L 245.63492 298.62501 
L 246.813482 295.241396 
L 248.122996 290.730499 
L 249.56346 284.859573 
L 251.134876 277.399988 
L 252.837244 268.121938 
L 254.670562 256.802671 
L 256.634832 243.226485 
L 257.027686 239.469657 
L 257.813394 229.246523 
L 259.253859 206.959456 
L 262.134788 160.928317 
L 265.27762 114.536305 
L 268.15855 70.516409 
L 268.551404 69.141688 
L 269.20616 67.647067 
L 269.729966 66.96 
L 269.991868 67.59417 
L 270.515674 68.143119 
L 271.432333 68.677374 
L 272.08709 69.043535 
L 273.1347 70.576359 
L 275.491824 74.616477 
L 276.01563 76.332088 
L 277.06324 79.844417 
L 277.456094 80.556757 
L 277.717997 80.755412 
L 277.9799 80.714271 
L 278.241802 80.430393 
L 278.634656 79.56289 
L 279.158462 77.733258 
L 279.94417 74.146286 
L 280.206072 73.14184 
L 280.729878 72.382481 
L 281.253683 71.940501 
L 281.777488 71.768881 
L 282.301294 71.859393 
L 282.825099 72.178536 
L 283.610807 72.966106 
L 284.789369 74.466016 
L 285.444126 76.077597 
L 286.098882 77.442327 
L 286.491736 77.743249 
L 286.753639 77.662729 
L 287.015542 77.347701 
L 287.408396 76.466092 
L 288.063152 74.212701 
L 288.325055 73.396919 
L 288.84886 72.770389 
L 289.503617 72.339576 
L 290.027422 72.234371 
L 290.551228 72.333699 
L 291.205984 72.701623 
L 292.122644 73.509765 
L 293.039303 74.50657 
L 294.479768 76.938635 
L 294.74167 77.007988 
L 295.003573 76.892203 
L 295.396427 76.376168 
L 295.920232 75.147206 
L 296.574989 73.452754 
L 297.229746 72.910271 
L 297.884502 72.642262 
L 298.277356 72.659894 
L 299.848772 73.316986 
L 301.158286 74.255606 
L 301.813042 75.170128 
L 302.467799 76.000603 
L 302.860653 76.212777 
L 303.253507 76.133432 
L 303.646361 75.753753 
L 304.170166 74.855099 
L 304.824923 73.626725 
L 305.47968 73.232352 
L 306.003485 73.060144 
L 308.229658 73.589697 
L 309.670122 74.34553 
L 310.979636 75.479278 
L 311.37249 75.53864 
L 311.765344 75.393468 
L 312.289149 74.902119 
L 313.33676 73.691964 
L 314.253419 73.409261 
L 315.170078 73.378699 
L 316.217689 73.610856 
L 317.789105 74.218578 
L 319.491472 75.235367 
L 320.015278 75.106064 
L 320.539083 74.706989 
L 321.586694 73.767782 
L 322.634304 73.532686 
L 323.550964 73.539152 
L 324.729526 73.7813 
L 326.300942 74.333187 
L 327.479504 74.952076 
L 328.003309 74.965594 
L 328.527114 74.755184 
L 329.312822 74.11925 
L 329.705676 73.878865 
L 330.753287 73.666103 
L 331.800898 73.656112 
L 333.110411 73.873575 
L 334.681827 74.330836 
L 335.729438 74.756359 
L 336.384194 74.752833 
L 337.038951 74.483648 
L 338.217513 73.875338 
L 339.527026 73.73722 
L 340.83654 73.831846 
L 342.80081 74.213288 
L 344.241274 74.630583 
L 344.896031 74.557703 
L 345.681739 74.222104 
L 346.336496 73.955859 
L 347.77696 73.818915 
L 349.348376 73.915892 
L 351.443598 74.283817 
L 352.491208 74.50657 
L 353.276916 74.437805 
L 354.193576 74.107495 
L 354.717381 73.979368 
L 356.419748 73.884154 
L 358.384018 74.03344 
L 360.348288 74.361986 
L 361.264948 74.404891 
L 362.181607 74.215052 
L 363.229218 73.991123 
L 365.062536 73.941165 
L 367.681563 74.139821 
L 369.645833 74.331424 
L 370.693444 74.145698 
L 371.610103 74.014045 
L 373.836276 73.993474 
L 376.848156 74.236798 
L 378.026718 74.275589 
L 382.610015 74.035203 
L 387.324263 74.136882 
L 388.633776 74.041081 
L 391.514706 74.070468 
L 395.574197 74.140409 
L 397.407516 74.048721 
L 401.205104 74.122777 
L 403.562228 74.158629 
L 406.574109 74.060476 
L 438.657186 74.09339 
L 459.871302 74.108671 
L 471.52597 74.102793 
L 494.835308 74.109259 
L 498.109091 74.102793 
L 498.109091 74.102793 
" style="fill:none;stroke:#bf00bf;stroke-linecap:square;stroke-width:1.5;"/>
   </g>
   <g id="line2d_28">
    <path clip-path="url(#p4e5a96180f)" d="M 92.290909 74.105144 
L 92.42186 221.039922 
L 92.552812 221.039922 
L 92.945666 222.610361 
L 93.600422 225.068873 
L 94.255179 226.650479 
L 94.648033 227.318151 
L 94.909936 228.969698 
L 95.433741 232.0183 
L 98.707524 248.846447 
L 111.147901 313.975581 
L 116.778808 343.595281 
L 116.90976 343.629957 
L 117.564516 342.669004 
L 117.826419 342.614344 
L 118.743078 342.636678 
L 123.457326 342.324589 
L 130.397747 342.154732 
L 135.111995 341.984876 
L 137.207216 341.961366 
L 142.052416 342.072449 
L 145.195248 341.959015 
L 150.564252 342.043649 
L 153.31423 341.962541 
L 158.421332 342.058343 
L 161.302262 341.963717 
L 166.540315 342.05129 
L 169.290293 341.966656 
L 174.790249 342.033658 
L 177.409276 341.974884 
L 182.385426 342.054229 
L 185.397307 341.980174 
L 190.111555 342.063045 
L 193.254387 341.982525 
L 198.099586 342.053641 
L 201.242418 341.991341 
L 205.694764 342.063633 
L 211.325671 341.665733 
L 213.289941 341.167918 
L 215.254211 340.439709 
L 217.349432 339.407052 
L 219.313702 338.200423 
L 221.408924 336.658784 
L 223.504145 334.855012 
L 225.730318 332.652166 
L 228.087442 329.999112 
L 230.444566 327.018099 
L 232.932641 323.518113 
L 235.551668 319.444493 
L 238.301646 314.741405 
L 241.051624 309.606916 
L 243.932553 303.771254 
L 245.63492 299.925089 
L 246.813482 296.578503 
L 248.122996 292.104633 
L 249.432509 286.842017 
L 251.003925 279.512322 
L 252.706292 270.371216 
L 254.539611 259.191243 
L 256.503881 245.756702 
L 257.551492 237.4255 
L 258.730054 225.764169 
L 260.039567 210.266664 
L 262.003837 183.508665 
L 264.622864 145.201593 
L 267.503793 99.718227 
L 268.420452 86.267817 
L 269.20616 78.145851 
L 269.860917 73.526809 
L 269.991868 73.472149 
L 270.646625 74.011694 
L 272.348992 75.514543 
L 272.872798 77.001523 
L 273.527554 79.576995 
L 274.706116 85.337426 
L 277.194192 97.507152 
L 277.717997 98.800766 
L 277.9799 99.070538 
L 278.241802 99.067012 
L 278.503705 98.786073 
L 278.896559 97.863322 
L 279.420364 95.826806 
L 281.384634 86.815003 
L 282.039391 85.015933 
L 282.563196 84.067322 
L 283.087002 83.508382 
L 283.610807 83.264471 
L 284.265564 83.263883 
L 284.789369 83.423748 
L 286.491736 84.349437 
L 286.88459 84.074375 
L 287.277444 83.457837 
L 287.80125 82.12602 
L 289.110763 78.387999 
L 289.76552 77.163151 
L 290.289325 76.549551 
L 290.81313 76.252155 
L 291.336936 76.232172 
L 291.860741 76.432003 
L 292.7774 77.091447 
L 293.563108 77.956011 
L 294.348816 78.775319 
L 294.74167 78.948115 
L 295.134524 78.867594 
L 295.527378 78.506135 
L 296.051184 77.616298 
L 297.098794 75.572729 
L 297.753551 74.706401 
L 298.277356 74.284993 
L 298.932113 74.370802 
L 299.979724 74.658207 
L 301.027334 75.388767 
L 302.074945 76.426126 
L 302.729702 76.953328 
L 303.253507 77.073815 
L 303.646361 76.929819 
L 304.170166 76.424951 
L 305.741582 74.511272 
L 306.265388 74.226806 
L 308.229658 74.546536 
L 309.40822 75.157785 
L 311.37249 76.359712 
L 311.896295 76.322684 
L 312.4201 76.037631 
L 314.38437 74.570634 
L 315.170078 74.386084 
L 315.955786 74.456025 
L 316.872446 74.778693 
L 318.31291 75.552158 
L 319.360521 76.102282 
L 319.884326 76.175161 
L 320.408132 76.050561 
L 321.062888 75.643845 
L 321.848596 75.135451 
L 322.765256 74.764 
L 323.550964 74.668786 
L 324.467623 74.799264 
L 325.777136 75.262403 
L 328.13426 76.131081 
L 328.789017 75.989436 
L 331.408044 74.977349 
L 332.324703 74.996745 
L 333.503265 75.26299 
L 336.646097 76.09229 
L 337.431805 75.861309 
L 338.741318 75.371134 
L 339.788929 75.200102 
L 340.83654 75.247121 
L 342.407956 75.57508 
L 344.76508 76.079948 
L 345.550788 75.943005 
L 347.515058 75.420504 
L 348.69362 75.369371 
L 350.134084 75.548044 
L 353.276916 76.029402 
L 354.193576 75.847791 
L 355.503089 75.569202 
L 356.812602 75.481629 
L 358.51497 75.630915 
L 361.657802 75.985322 
L 362.967315 75.762569 
L 364.538731 75.574492 
L 366.110147 75.607993 
L 370.562492 75.885994 
L 372.919616 75.626801 
L 374.883886 75.682048 
L 378.812426 75.873064 
L 381.824307 75.657951 
L 384.574285 75.793131 
L 386.931409 75.866011 
L 390.9909 75.698505 
L 396.490856 75.764332 
L 399.109883 75.708497 
L 405.395547 75.740822 
L 408.407428 75.739059 
L 413.252627 75.759042 
L 417.050216 75.748463 
L 422.550172 75.738471 
L 427.395371 75.783727 
L 432.109619 75.73612 
L 462.228426 75.760805 
L 489.859157 75.747875 
L 498.109091 75.748463 
L 498.109091 75.748463 
" style="fill:none;stroke:#00bfbf;stroke-linecap:square;stroke-width:1.5;"/>
   </g>
   <g id="line2d_29">
    <path clip-path="url(#p4e5a96180f)" d="M 92.290909 74.105144 
L 92.42186 221.039922 
L 92.814714 231.833163 
L 93.33852 240.571668 
L 93.993276 248.181126 
L 94.648033 253.533078 
L 95.564692 258.041037 
L 102.374162 293.398247 
L 116.90976 369.056727 
L 117.171662 369.320034 
L 117.564516 369.33649 
L 120.052592 368.759331 
L 123.326375 368.372011 
L 127.77872 368.102826 
L 137.861973 367.848335 
L 141.135756 367.960593 
L 146.111907 367.857151 
L 149.254739 367.958242 
L 154.23089 367.859502 
L 157.24277 367.958242 
L 162.480824 367.87302 
L 165.230802 367.956479 
L 170.730758 367.888889 
L 173.349784 367.948838 
L 178.718789 367.890652 
L 181.468767 367.940022 
L 186.052064 367.857739 
L 189.325847 367.938259 
L 194.171046 367.872432 
L 197.313878 367.930618 
L 201.766224 367.861853 
L 205.170958 367.926504 
L 210.801866 367.592668 
L 212.635184 367.188892 
L 214.599454 366.532975 
L 216.563724 365.645489 
L 218.658946 364.442975 
L 220.754167 362.977741 
L 222.849388 361.249788 
L 225.075561 359.126287 
L 227.432685 356.557279 
L 229.92076 353.488105 
L 232.408836 350.054533 
L 235.027862 346.050267 
L 237.646889 341.648689 
L 240.396867 336.604712 
L 243.277796 330.861325 
L 245.373018 326.254626 
L 246.55158 322.978568 
L 247.730142 319.054822 
L 249.039655 313.939728 
L 250.48012 307.417 
L 252.051536 299.267997 
L 253.753903 289.27173 
L 255.587222 277.211912 
L 257.289589 264.737737 
L 258.3372 255.260444 
L 259.515762 242.528251 
L 260.825275 225.873488 
L 263.31335 190.708469 
L 266.063328 148.583444 
L 268.813306 106.297379 
L 269.468063 100.007395 
L 269.860917 97.636455 
L 270.12282 97.12571 
L 270.384722 97.078691 
L 270.777576 97.472476 
L 272.08709 99.355004 
L 272.610895 100.722085 
L 273.265652 103.32577 
L 274.182311 108.064122 
L 276.932289 122.927457 
L 277.456094 124.710657 
L 277.848948 125.416532 
L 278.110851 125.542896 
L 278.372754 125.383031 
L 278.634656 124.9387 
L 279.02751 123.769099 
L 279.551316 121.428722 
L 281.384634 112.350504 
L 282.039391 110.419193 
L 282.563196 109.418861 
L 283.087002 108.845815 
L 283.610807 108.617185 
L 284.134612 108.629527 
L 284.92032 108.880492 
L 286.360785 109.621631 
L 286.753639 109.4218 
L 287.146493 108.892247 
L 287.670298 107.661521 
L 289.634568 102.118554 
L 290.158374 101.382116 
L 290.682179 101.003025 
L 291.205984 100.942488 
L 291.72979 101.13938 
L 292.515498 101.743576 
L 293.563108 102.830893 
L 294.348816 103.631982 
L 294.74167 103.797724 
L 295.134524 103.712502 
L 295.527378 103.345165 
L 296.051184 102.4471 
L 297.360697 99.805212 
L 298.015454 99.03645 
L 298.408308 98.855426 
L 298.932113 98.907735 
L 299.848772 99.255089 
L 300.63448 99.831661 
L 302.074945 101.208146 
L 302.729702 101.734172 
L 303.253507 101.856422 
L 303.646361 101.713601 
L 304.170166 101.208733 
L 306.003485 98.937122 
L 306.52729 98.828978 
L 307.44395 98.997071 
L 308.360609 99.320328 
L 309.670122 100.131408 
L 311.241538 101.132327 
L 311.765344 101.159951 
L 312.289149 100.937198 
L 312.943906 100.35945 
L 313.729614 99.654751 
L 314.515322 99.219236 
L 315.170078 99.084644 
L 315.824835 99.146357 
L 316.741494 99.489009 
L 318.443862 100.461129 
L 319.360521 100.933084 
L 320.015278 100.997147 
L 320.539083 100.826115 
L 321.324791 100.271289 
L 322.24145 99.708823 
L 323.027158 99.460797 
L 323.812866 99.445516 
L 324.729526 99.672383 
L 326.300942 100.355924 
L 327.741406 100.961295 
L 328.396163 100.969524 
L 329.05092 100.737367 
L 330.884238 99.866337 
L 331.800898 99.764071 
L 332.717557 99.888084 
L 334.158022 100.347108 
L 336.253243 100.995384 
L 336.908 100.932496 
L 337.693708 100.629223 
L 338.741318 100.216042 
L 339.788929 100.036782 
L 340.83654 100.099082 
L 342.407956 100.472296 
L 344.634128 100.984805 
L 345.419836 100.883714 
L 348.169814 100.227797 
L 349.348376 100.304203 
L 351.443598 100.725024 
L 352.884062 100.955418 
L 353.800722 100.86138 
L 356.419748 100.365915 
L 357.860213 100.444085 
L 361.919704 100.875485 
L 365.324439 100.460541 
L 367.288709 100.642153 
L 370.038687 100.863731 
L 371.872006 100.606889 
L 373.574373 100.522254 
L 375.800546 100.677417 
L 378.419572 100.827291 
L 383.13382 100.614529 
L 387.193312 100.769692 
L 390.467095 100.59866 
L 397.80037 100.622757 
L 400.550348 100.672128 
L 404.216985 100.716796 
L 407.490768 100.636863 
L 414.300238 100.648618 
L 418.359729 100.700339 
L 421.502561 100.680356 
L 425.30015 100.667426 
L 430.931057 100.659785 
L 436.16911 100.699751 
L 455.026102 100.673303 
L 467.59743 100.670952 
L 491.823427 100.668601 
L 498.109091 100.668013 
L 498.109091 100.668013 
" style="fill:none;stroke:#ff0000;stroke-linecap:square;stroke-width:1.5;"/>
   </g>
   <g id="line2d_30">
    <path clip-path="url(#p4e5a96180f)" d="M 92.290909 74.105144 
L 92.42186 221.039922 
L 92.552812 221.039922 
L 92.814714 223.873412 
L 94.38613 246.696497 
L 94.909936 251.25794 
L 96.612303 259.583852 
L 108.790777 322.852204 
L 116.90976 365.011318 
L 117.564516 366.823906 
L 117.826419 367.043132 
L 118.088322 366.996113 
L 119.659738 366.058082 
L 121.362105 365.373953 
L 123.457326 364.777398 
L 125.945402 364.304268 
L 128.957282 363.950449 
L 134.58819 363.581349 
L 136.945314 363.512584 
L 142.44527 363.604271 
L 145.064296 363.51611 
L 150.695204 363.594867 
L 153.183279 363.519636 
L 158.552284 363.608973 
L 161.302262 363.524926 
L 166.540315 363.611324 
L 169.290293 363.527865 
L 174.790249 363.594279 
L 177.409276 363.535505 
L 182.254475 363.621903 
L 185.397307 363.541383 
L 190.242506 363.615438 
L 193.385338 363.548436 
L 197.837684 363.62778 
L 201.242418 363.551962 
L 205.694764 363.623666 
L 211.19472 363.252803 
L 213.15899 362.773796 
L 215.12326 362.064982 
L 217.08753 361.125775 
L 219.0518 359.956762 
L 221.147021 358.456852 
L 223.373194 356.576674 
L 225.599366 354.402627 
L 227.95649 351.781899 
L 230.444566 348.661592 
L 233.063592 344.985871 
L 235.682619 340.913427 
L 238.432597 336.213277 
L 241.313526 330.829587 
L 244.325407 324.703582 
L 245.111115 322.855731 
L 246.158726 319.669597 
L 247.468239 314.851312 
L 248.908704 308.618339 
L 250.48012 300.771434 
L 252.182487 291.090195 
L 254.015806 279.358335 
L 255.980076 265.364267 
L 257.551492 252.894794 
L 258.599102 242.619939 
L 259.777664 228.952066 
L 261.218129 209.412679 
L 263.837156 170.616608 
L 266.718085 124.634251 
L 268.813306 91.730852 
L 269.468063 85.141122 
L 269.860917 82.301754 
L 270.253771 81.489499 
L 270.515674 81.520649 
L 270.908528 82.044324 
L 271.956138 84.101999 
L 272.348992 85.061189 
L 272.872798 86.952534 
L 273.658506 90.855121 
L 275.229922 100.342994 
L 277.06324 110.720703 
L 277.587046 112.584424 
L 277.9799 113.301466 
L 278.241802 113.413724 
L 278.503705 113.223884 
L 278.765608 112.736061 
L 279.158462 111.483001 
L 279.813218 108.299806 
L 281.122732 101.355668 
L 281.777488 99.025283 
L 282.432245 97.513618 
L 282.95605 96.843595 
L 283.479856 96.570884 
L 284.003661 96.592043 
L 284.789369 96.925291 
L 285.313174 97.303207 
L 286.229834 98.014371 
L 286.622688 98.028477 
L 287.015542 97.72344 
L 287.408396 97.056944 
L 287.932201 95.636379 
L 289.241714 91.576277 
L 289.896471 90.333797 
L 290.420276 89.772506 
L 290.944082 89.574438 
L 291.467887 89.689047 
L 292.122644 90.160414 
L 293.170254 91.277706 
L 294.610719 92.962166 
L 295.003573 93.064433 
L 295.396427 92.88047 
L 295.789281 92.399112 
L 296.313086 91.361165 
L 297.229746 89.427503 
L 297.884502 88.542956 
L 298.408308 88.199716 
L 298.932113 88.255551 
L 299.848772 88.701645 
L 300.63448 89.364615 
L 302.074945 90.913307 
L 302.860653 91.640928 
L 303.253507 91.775521 
L 303.646361 91.698527 
L 304.039215 91.401131 
L 304.56302 90.713476 
L 305.47968 89.417511 
L 306.134436 88.843878 
L 306.658242 88.7757 
L 307.574901 89.026077 
L 308.360609 89.378721 
L 309.539171 90.199792 
L 311.503441 91.542188 
L 312.027246 91.505748 
L 312.551052 91.206589 
L 314.515322 89.647317 
L 315.170078 89.510374 
L 315.824835 89.582666 
L 316.610543 89.892405 
L 318.051008 90.75932 
L 319.491472 91.633288 
L 320.015278 91.710869 
L 320.539083 91.57804 
L 321.19384 91.149579 
L 322.110499 90.508355 
L 322.896207 90.206257 
L 323.681915 90.150422 
L 324.467623 90.316752 
L 325.646185 90.828085 
L 328.003309 91.899534 
L 328.658066 91.849576 
L 329.312822 91.554531 
L 330.622336 90.868051 
L 331.538995 90.681738 
L 332.455654 90.749916 
L 333.634216 91.10491 
L 336.384194 92.050583 
L 337.038951 91.97594 
L 337.824659 91.651508 
L 338.87227 91.235976 
L 339.788929 91.080225 
L 340.83654 91.143113 
L 342.277004 91.505161 
L 344.76508 92.126989 
L 345.550788 92.011792 
L 348.038863 91.361165 
L 349.217425 91.413473 
L 351.050744 91.7861 
L 353.015014 92.153437 
L 353.931673 92.045881 
L 356.288797 91.555119 
L 357.59831 91.595672 
L 359.824483 91.955957 
L 361.395899 92.150498 
L 362.44351 92.027661 
L 364.40778 91.694413 
L 365.848244 91.704992 
L 368.33632 92.011204 
L 369.907736 92.128752 
L 371.217249 91.956544 
L 372.919616 91.769643 
L 374.621984 91.814311 
L 378.943378 92.054697 
L 381.824307 91.820777 
L 384.181431 91.94714 
L 387.06236 92.059399 
L 390.9909 91.877787 
L 396.228954 91.981817 
L 398.717029 91.89013 
L 414.824043 91.923631 
L 418.883534 91.996511 
L 421.895415 91.954781 
L 425.823955 91.960071 
L 431.062008 91.943614 
L 436.038159 91.985931 
L 455.026102 91.960658 
L 467.59743 91.958308 
L 491.823427 91.955957 
L 498.109091 91.955957 
L 498.109091 91.955957 
" style="fill:none;stroke:#008000;stroke-linecap:square;stroke-width:1.5;"/>
   </g>
   <g id="patch_3">
    <path d="M 72 384.48 
L 72 51.84 
" style="fill:none;stroke:#000000;stroke-linecap:square;stroke-linejoin:miter;stroke-width:0.8;"/>
   </g>
   <g id="patch_4">
    <path d="M 518.4 384.48 
L 518.4 51.84 
" style="fill:none;stroke:#000000;stroke-linecap:square;stroke-linejoin:miter;stroke-width:0.8;"/>
   </g>
   <g id="patch_5">
    <path d="M 72 384.48 
L 518.4 384.48 
" style="fill:none;stroke:#000000;stroke-linecap:square;stroke-linejoin:miter;stroke-width:0.8;"/>
   </g>
   <g id="patch_6">
    <path d="M 72 51.84 
L 518.4 51.84 
" style="fill:none;stroke:#000000;stroke-linecap:square;stroke-linejoin:miter;stroke-width:0.8;"/>
   </g>
   <g id="text_16">
    <!-- $\partial \mathcal{L}/ \partial \mu^{U_{\mathrm{max}}}_{m}$ -->
    <g transform="translate(264.54 45.84)scale(0.14 -0.14)">
     <use transform="translate(0 0.684375)" xlink:href="#DejaVuSans-2202"/>
     <use transform="translate(51.708984 0.684375)" xlink:href="#STIXNonUnicode-Italic-e238"/>
     <use transform="translate(121.008972 0.684375)" xlink:href="#DejaVuSans-2f"/>
     <use transform="translate(154.700378 0.684375)" xlink:href="#DejaVuSans-2202"/>
     <use transform="translate(206.409363 0.684375)" xlink:href="#DejaVuSans-Oblique-3bc"/>
     <use transform="translate(274.498556 38.965625)scale(0.7)" xlink:href="#DejaVuSans-Oblique-55"/>
     <use transform="translate(325.733907 27.48125)scale(0.49)" xlink:href="#DejaVuSans-6d"/>
     <use transform="translate(373.465841 27.48125)scale(0.49)" xlink:href="#DejaVuSans-61"/>
     <use transform="translate(403.492696 27.48125)scale(0.49)" xlink:href="#DejaVuSans-78"/>
     <use transform="translate(270.03241 -26.659375)scale(0.7)" xlink:href="#DejaVuSans-Oblique-6d"/>
    </g>
   </g>
   <g id="legend_1">
    <g id="patch_7">
     <path d="M 435.6 379.48 
L 511.4 379.48 
Q 513.4 379.48 513.4 377.48 
L 513.4 306.98 
Q 513.4 304.98 511.4 304.98 
L 435.6 304.98 
Q 433.6 304.98 433.6 306.98 
L 433.6 377.48 
Q 433.6 379.48 435.6 379.48 
z
" style="fill:#ffffff;opacity:0.8;stroke:#cccccc;stroke-linejoin:miter;"/>
    </g>
    <g id="line2d_31">
     <path d="M 437.6 315.48 
L 457.6 315.48 
" style="fill:none;stroke:#bf00bf;stroke-linecap:square;stroke-width:1.5;"/>
    </g>
    <g id="line2d_32"/>
    <g id="text_17">
     <!-- $\partial \mathcal{L}/ \partial \mu^{U_{\mathrm{max}}}_{1}$ -->
     <g transform="translate(465.6 318.98)scale(0.1 -0.1)">
      <use transform="translate(0 0.593906)" xlink:href="#DejaVuSans-2202"/>
      <use transform="translate(51.708984 0.593906)" xlink:href="#STIXNonUnicode-Italic-e238"/>
      <use transform="translate(121.008972 0.593906)" xlink:href="#DejaVuSans-2f"/>
      <use transform="translate(154.700378 0.593906)" xlink:href="#DejaVuSans-2202"/>
      <use transform="translate(206.409363 0.593906)" xlink:href="#DejaVuSans-Oblique-3bc"/>
      <use transform="translate(274.498556 48.965625)scale(0.7)" xlink:href="#DejaVuSans-Oblique-55"/>
      <use transform="translate(325.733907 37.48125)scale(0.49)" xlink:href="#DejaVuSans-6d"/>
      <use transform="translate(373.465841 37.48125)scale(0.49)" xlink:href="#DejaVuSans-61"/>
      <use transform="translate(403.492696 37.48125)scale(0.49)" xlink:href="#DejaVuSans-78"/>
      <use transform="translate(270.03241 -26.749844)scale(0.7)" xlink:href="#DejaVuSans-31"/>
     </g>
    </g>
    <g id="line2d_33">
     <path d="M 437.6 333.38 
L 457.6 333.38 
" style="fill:none;stroke:#00bfbf;stroke-linecap:square;stroke-width:1.5;"/>
    </g>
    <g id="line2d_34"/>
    <g id="text_18">
     <!-- $\partial \mathcal{L}/ \partial \mu^{U_{\mathrm{max}}}_{2}$ -->
     <g transform="translate(465.6 336.88)scale(0.1 -0.1)">
      <use transform="translate(0 0.675156)" xlink:href="#DejaVuSans-2202"/>
      <use transform="translate(51.708984 0.675156)" xlink:href="#STIXNonUnicode-Italic-e238"/>
      <use transform="translate(121.008972 0.675156)" xlink:href="#DejaVuSans-2f"/>
      <use transform="translate(154.700378 0.675156)" xlink:href="#DejaVuSans-2202"/>
      <use transform="translate(206.409363 0.675156)" xlink:href="#DejaVuSans-Oblique-3bc"/>
      <use transform="translate(274.498556 49.965625)scale(0.7)" xlink:href="#DejaVuSans-Oblique-55"/>
      <use transform="translate(325.733907 38.48125)scale(0.49)" xlink:href="#DejaVuSans-6d"/>
      <use transform="translate(373.465841 38.48125)scale(0.49)" xlink:href="#DejaVuSans-61"/>
      <use transform="translate(403.492696 38.48125)scale(0.49)" xlink:href="#DejaVuSans-78"/>
      <use transform="translate(270.03241 -26.668594)scale(0.7)" xlink:href="#DejaVuSans-32"/>
     </g>
    </g>
    <g id="line2d_35">
     <path d="M 437.6 351.28 
L 457.6 351.28 
" style="fill:none;stroke:#ff0000;stroke-linecap:square;stroke-width:1.5;"/>
    </g>
    <g id="line2d_36"/>
    <g id="text_19">
     <!-- $\partial \mathcal{L}/ \partial \mu^{U_{\mathrm{max}}}_{3}$ -->
     <g transform="translate(465.6 354.78)scale(0.1 -0.1)">
      <use transform="translate(0 0.675156)" xlink:href="#DejaVuSans-2202"/>
      <use transform="translate(51.708984 0.675156)" xlink:href="#STIXNonUnicode-Italic-e238"/>
      <use transform="translate(121.008972 0.675156)" xlink:href="#DejaVuSans-2f"/>
      <use transform="translate(154.700378 0.675156)" xlink:href="#DejaVuSans-2202"/>
      <use transform="translate(206.409363 0.675156)" xlink:href="#DejaVuSans-Oblique-3bc"/>
      <use transform="translate(274.498556 49.965625)scale(0.7)" xlink:href="#DejaVuSans-Oblique-55"/>
      <use transform="translate(325.733907 38.48125)scale(0.49)" xlink:href="#DejaVuSans-6d"/>
      <use transform="translate(373.465841 38.48125)scale(0.49)" xlink:href="#DejaVuSans-61"/>
      <use transform="translate(403.492696 38.48125)scale(0.49)" xlink:href="#DejaVuSans-78"/>
      <use transform="translate(270.03241 -26.668594)scale(0.7)" xlink:href="#DejaVuSans-33"/>
     </g>
    </g>
    <g id="line2d_37">
     <path d="M 437.6 369.18 
L 457.6 369.18 
" style="fill:none;stroke:#008000;stroke-linecap:square;stroke-width:1.5;"/>
    </g>
    <g id="line2d_38"/>
    <g id="text_20">
     <!-- $\partial \mathcal{L}/ \partial \mu^{U_{\mathrm{max}}}_{4}$ -->
     <g transform="translate(465.6 372.68)scale(0.1 -0.1)">
      <use transform="translate(0 0.593906)" xlink:href="#DejaVuSans-2202"/>
      <use transform="translate(51.708984 0.593906)" xlink:href="#STIXNonUnicode-Italic-e238"/>
      <use transform="translate(121.008972 0.593906)" xlink:href="#DejaVuSans-2f"/>
      <use transform="translate(154.700378 0.593906)" xlink:href="#DejaVuSans-2202"/>
      <use transform="translate(206.409363 0.593906)" xlink:href="#DejaVuSans-Oblique-3bc"/>
      <use transform="translate(274.498556 48.965625)scale(0.7)" xlink:href="#DejaVuSans-Oblique-55"/>
      <use transform="translate(325.733907 37.48125)scale(0.49)" xlink:href="#DejaVuSans-6d"/>
      <use transform="translate(373.465841 37.48125)scale(0.49)" xlink:href="#DejaVuSans-61"/>
      <use transform="translate(403.492696 37.48125)scale(0.49)" xlink:href="#DejaVuSans-78"/>
      <use transform="translate(270.03241 -26.749844)scale(0.7)" xlink:href="#DejaVuSans-34"/>
     </g>
    </g>
   </g>
  </g>
 </g>
 <defs>
  <clipPath id="p4e5a96180f">
   <rect height="332.64" width="446.4" x="72" y="51.84"/>
  </clipPath>
 </defs>
</svg>
