<?xml version="1.0" encoding="utf-8" standalone="no"?>
<!DOCTYPE svg PUBLIC "-//W3C//DTD SVG 1.1//EN"
  "http://www.w3.org/Graphics/SVG/1.1/DTD/svg11.dtd">
<!-- Created with matplotlib (http://matplotlib.org/) -->
<svg height="432pt" version="1.1" viewBox="0 0 576 432" width="576pt" xmlns="http://www.w3.org/2000/svg" xmlns:xlink="http://www.w3.org/1999/xlink">
 <defs>
  <style type="text/css">
*{stroke-linecap:butt;stroke-linejoin:round;}
  </style>
 </defs>
 <g id="figure_1">
  <g id="patch_1">
   <path d="M 0 432 
L 576 432 
L 576 0 
L 0 0 
z
" style="fill:#ffffff;"/>
  </g>
  <g id="axes_1">
   <g id="patch_2">
    <path d="M 72 384.48 
L 518.4 384.48 
L 518.4 51.84 
L 72 51.84 
z
" style="fill:#ffffff;"/>
   </g>
   <g id="matplotlib.axis_1">
    <g id="xtick_1">
     <g id="line2d_1">
      <path clip-path="url(#pac70b6c6bd)" d="M 92.290909 384.48 
L 92.290909 51.84 
" style="fill:none;stroke:#b0b0b0;stroke-dasharray:5.12,1.28,0.8,1.28;stroke-dashoffset:0;stroke-width:0.8;"/>
     </g>
     <g id="line2d_2">
      <defs>
       <path d="M 0 0 
L 0 3.5 
" id="m38f99212dc" style="stroke:#000000;stroke-width:0.8;"/>
      </defs>
      <g>
       <use style="stroke:#000000;stroke-width:0.8;" x="92.290909" xlink:href="#m38f99212dc" y="384.48"/>
      </g>
     </g>
     <g id="text_1">
      <!-- 0 -->
      <defs>
       <path d="M 31.78125 66.40625 
Q 24.171875 66.40625 20.328125 58.90625 
Q 16.5 51.421875 16.5 36.375 
Q 16.5 21.390625 20.328125 13.890625 
Q 24.171875 6.390625 31.78125 6.390625 
Q 39.453125 6.390625 43.28125 13.890625 
Q 47.125 21.390625 47.125 36.375 
Q 47.125 51.421875 43.28125 58.90625 
Q 39.453125 66.40625 31.78125 66.40625 
z
M 31.78125 74.21875 
Q 44.046875 74.21875 50.515625 64.515625 
Q 56.984375 54.828125 56.984375 36.375 
Q 56.984375 17.96875 50.515625 8.265625 
Q 44.046875 -1.421875 31.78125 -1.421875 
Q 19.53125 -1.421875 13.0625 8.265625 
Q 6.59375 17.96875 6.59375 36.375 
Q 6.59375 54.828125 13.0625 64.515625 
Q 19.53125 74.21875 31.78125 74.21875 
z
" id="DejaVuSans-30"/>
      </defs>
      <g transform="translate(89.109659 399.078438)scale(0.1 -0.1)">
       <use xlink:href="#DejaVuSans-30"/>
      </g>
     </g>
    </g>
    <g id="xtick_2">
     <g id="line2d_3">
      <path clip-path="url(#pac70b6c6bd)" d="M 155.635665 384.48 
L 155.635665 51.84 
" style="fill:none;stroke:#b0b0b0;stroke-dasharray:5.12,1.28,0.8,1.28;stroke-dashoffset:0;stroke-width:0.8;"/>
     </g>
     <g id="line2d_4">
      <g>
       <use style="stroke:#000000;stroke-width:0.8;" x="155.635665" xlink:href="#m38f99212dc" y="384.48"/>
      </g>
     </g>
     <g id="text_2">
      <!-- 2000 -->
      <defs>
       <path d="M 19.1875 8.296875 
L 53.609375 8.296875 
L 53.609375 0 
L 7.328125 0 
L 7.328125 8.296875 
Q 12.9375 14.109375 22.625 23.890625 
Q 32.328125 33.6875 34.8125 36.53125 
Q 39.546875 41.84375 41.421875 45.53125 
Q 43.3125 49.21875 43.3125 52.78125 
Q 43.3125 58.59375 39.234375 62.25 
Q 35.15625 65.921875 28.609375 65.921875 
Q 23.96875 65.921875 18.8125 64.3125 
Q 13.671875 62.703125 7.8125 59.421875 
L 7.8125 69.390625 
Q 13.765625 71.78125 18.9375 73 
Q 24.125 74.21875 28.421875 74.21875 
Q 39.75 74.21875 46.484375 68.546875 
Q 53.21875 62.890625 53.21875 53.421875 
Q 53.21875 48.921875 51.53125 44.890625 
Q 49.859375 40.875 45.40625 35.40625 
Q 44.1875 33.984375 37.640625 27.21875 
Q 31.109375 20.453125 19.1875 8.296875 
z
" id="DejaVuSans-32"/>
      </defs>
      <g transform="translate(142.910665 399.078438)scale(0.1 -0.1)">
       <use xlink:href="#DejaVuSans-32"/>
       <use x="63.623047" xlink:href="#DejaVuSans-30"/>
       <use x="127.246094" xlink:href="#DejaVuSans-30"/>
       <use x="190.869141" xlink:href="#DejaVuSans-30"/>
      </g>
     </g>
    </g>
    <g id="xtick_3">
     <g id="line2d_5">
      <path clip-path="url(#pac70b6c6bd)" d="M 218.980422 384.48 
L 218.980422 51.84 
" style="fill:none;stroke:#b0b0b0;stroke-dasharray:5.12,1.28,0.8,1.28;stroke-dashoffset:0;stroke-width:0.8;"/>
     </g>
     <g id="line2d_6">
      <g>
       <use style="stroke:#000000;stroke-width:0.8;" x="218.980422" xlink:href="#m38f99212dc" y="384.48"/>
      </g>
     </g>
     <g id="text_3">
      <!-- 4000 -->
      <defs>
       <path d="M 37.796875 64.3125 
L 12.890625 25.390625 
L 37.796875 25.390625 
z
M 35.203125 72.90625 
L 47.609375 72.90625 
L 47.609375 25.390625 
L 58.015625 25.390625 
L 58.015625 17.1875 
L 47.609375 17.1875 
L 47.609375 0 
L 37.796875 0 
L 37.796875 17.1875 
L 4.890625 17.1875 
L 4.890625 26.703125 
z
" id="DejaVuSans-34"/>
      </defs>
      <g transform="translate(206.255422 399.078438)scale(0.1 -0.1)">
       <use xlink:href="#DejaVuSans-34"/>
       <use x="63.623047" xlink:href="#DejaVuSans-30"/>
       <use x="127.246094" xlink:href="#DejaVuSans-30"/>
       <use x="190.869141" xlink:href="#DejaVuSans-30"/>
      </g>
     </g>
    </g>
    <g id="xtick_4">
     <g id="line2d_7">
      <path clip-path="url(#pac70b6c6bd)" d="M 282.325178 384.48 
L 282.325178 51.84 
" style="fill:none;stroke:#b0b0b0;stroke-dasharray:5.12,1.28,0.8,1.28;stroke-dashoffset:0;stroke-width:0.8;"/>
     </g>
     <g id="line2d_8">
      <g>
       <use style="stroke:#000000;stroke-width:0.8;" x="282.325178" xlink:href="#m38f99212dc" y="384.48"/>
      </g>
     </g>
     <g id="text_4">
      <!-- 6000 -->
      <defs>
       <path d="M 33.015625 40.375 
Q 26.375 40.375 22.484375 35.828125 
Q 18.609375 31.296875 18.609375 23.390625 
Q 18.609375 15.53125 22.484375 10.953125 
Q 26.375 6.390625 33.015625 6.390625 
Q 39.65625 6.390625 43.53125 10.953125 
Q 47.40625 15.53125 47.40625 23.390625 
Q 47.40625 31.296875 43.53125 35.828125 
Q 39.65625 40.375 33.015625 40.375 
z
M 52.59375 71.296875 
L 52.59375 62.3125 
Q 48.875 64.0625 45.09375 64.984375 
Q 41.3125 65.921875 37.59375 65.921875 
Q 27.828125 65.921875 22.671875 59.328125 
Q 17.53125 52.734375 16.796875 39.40625 
Q 19.671875 43.65625 24.015625 45.921875 
Q 28.375 48.1875 33.59375 48.1875 
Q 44.578125 48.1875 50.953125 41.515625 
Q 57.328125 34.859375 57.328125 23.390625 
Q 57.328125 12.15625 50.6875 5.359375 
Q 44.046875 -1.421875 33.015625 -1.421875 
Q 20.359375 -1.421875 13.671875 8.265625 
Q 6.984375 17.96875 6.984375 36.375 
Q 6.984375 53.65625 15.1875 63.9375 
Q 23.390625 74.21875 37.203125 74.21875 
Q 40.921875 74.21875 44.703125 73.484375 
Q 48.484375 72.75 52.59375 71.296875 
z
" id="DejaVuSans-36"/>
      </defs>
      <g transform="translate(269.600178 399.078438)scale(0.1 -0.1)">
       <use xlink:href="#DejaVuSans-36"/>
       <use x="63.623047" xlink:href="#DejaVuSans-30"/>
       <use x="127.246094" xlink:href="#DejaVuSans-30"/>
       <use x="190.869141" xlink:href="#DejaVuSans-30"/>
      </g>
     </g>
    </g>
    <g id="xtick_5">
     <g id="line2d_9">
      <path clip-path="url(#pac70b6c6bd)" d="M 345.669935 384.48 
L 345.669935 51.84 
" style="fill:none;stroke:#b0b0b0;stroke-dasharray:5.12,1.28,0.8,1.28;stroke-dashoffset:0;stroke-width:0.8;"/>
     </g>
     <g id="line2d_10">
      <g>
       <use style="stroke:#000000;stroke-width:0.8;" x="345.669935" xlink:href="#m38f99212dc" y="384.48"/>
      </g>
     </g>
     <g id="text_5">
      <!-- 8000 -->
      <defs>
       <path d="M 31.78125 34.625 
Q 24.75 34.625 20.71875 30.859375 
Q 16.703125 27.09375 16.703125 20.515625 
Q 16.703125 13.921875 20.71875 10.15625 
Q 24.75 6.390625 31.78125 6.390625 
Q 38.8125 6.390625 42.859375 10.171875 
Q 46.921875 13.96875 46.921875 20.515625 
Q 46.921875 27.09375 42.890625 30.859375 
Q 38.875 34.625 31.78125 34.625 
z
M 21.921875 38.8125 
Q 15.578125 40.375 12.03125 44.71875 
Q 8.5 49.078125 8.5 55.328125 
Q 8.5 64.0625 14.71875 69.140625 
Q 20.953125 74.21875 31.78125 74.21875 
Q 42.671875 74.21875 48.875 69.140625 
Q 55.078125 64.0625 55.078125 55.328125 
Q 55.078125 49.078125 51.53125 44.71875 
Q 48 40.375 41.703125 38.8125 
Q 48.828125 37.15625 52.796875 32.3125 
Q 56.78125 27.484375 56.78125 20.515625 
Q 56.78125 9.90625 50.3125 4.234375 
Q 43.84375 -1.421875 31.78125 -1.421875 
Q 19.734375 -1.421875 13.25 4.234375 
Q 6.78125 9.90625 6.78125 20.515625 
Q 6.78125 27.484375 10.78125 32.3125 
Q 14.796875 37.15625 21.921875 38.8125 
z
M 18.3125 54.390625 
Q 18.3125 48.734375 21.84375 45.5625 
Q 25.390625 42.390625 31.78125 42.390625 
Q 38.140625 42.390625 41.71875 45.5625 
Q 45.3125 48.734375 45.3125 54.390625 
Q 45.3125 60.0625 41.71875 63.234375 
Q 38.140625 66.40625 31.78125 66.40625 
Q 25.390625 66.40625 21.84375 63.234375 
Q 18.3125 60.0625 18.3125 54.390625 
z
" id="DejaVuSans-38"/>
      </defs>
      <g transform="translate(332.944935 399.078438)scale(0.1 -0.1)">
       <use xlink:href="#DejaVuSans-38"/>
       <use x="63.623047" xlink:href="#DejaVuSans-30"/>
       <use x="127.246094" xlink:href="#DejaVuSans-30"/>
       <use x="190.869141" xlink:href="#DejaVuSans-30"/>
      </g>
     </g>
    </g>
    <g id="xtick_6">
     <g id="line2d_11">
      <path clip-path="url(#pac70b6c6bd)" d="M 409.014691 384.48 
L 409.014691 51.84 
" style="fill:none;stroke:#b0b0b0;stroke-dasharray:5.12,1.28,0.8,1.28;stroke-dashoffset:0;stroke-width:0.8;"/>
     </g>
     <g id="line2d_12">
      <g>
       <use style="stroke:#000000;stroke-width:0.8;" x="409.014691" xlink:href="#m38f99212dc" y="384.48"/>
      </g>
     </g>
     <g id="text_6">
      <!-- 10000 -->
      <defs>
       <path d="M 12.40625 8.296875 
L 28.515625 8.296875 
L 28.515625 63.921875 
L 10.984375 60.40625 
L 10.984375 69.390625 
L 28.421875 72.90625 
L 38.28125 72.90625 
L 38.28125 8.296875 
L 54.390625 8.296875 
L 54.390625 0 
L 12.40625 0 
z
" id="DejaVuSans-31"/>
      </defs>
      <g transform="translate(393.108441 399.078438)scale(0.1 -0.1)">
       <use xlink:href="#DejaVuSans-31"/>
       <use x="63.623047" xlink:href="#DejaVuSans-30"/>
       <use x="127.246094" xlink:href="#DejaVuSans-30"/>
       <use x="190.869141" xlink:href="#DejaVuSans-30"/>
       <use x="254.492188" xlink:href="#DejaVuSans-30"/>
      </g>
     </g>
    </g>
    <g id="xtick_7">
     <g id="line2d_13">
      <path clip-path="url(#pac70b6c6bd)" d="M 472.359447 384.48 
L 472.359447 51.84 
" style="fill:none;stroke:#b0b0b0;stroke-dasharray:5.12,1.28,0.8,1.28;stroke-dashoffset:0;stroke-width:0.8;"/>
     </g>
     <g id="line2d_14">
      <g>
       <use style="stroke:#000000;stroke-width:0.8;" x="472.359447" xlink:href="#m38f99212dc" y="384.48"/>
      </g>
     </g>
     <g id="text_7">
      <!-- 12000 -->
      <g transform="translate(456.453197 399.078438)scale(0.1 -0.1)">
       <use xlink:href="#DejaVuSans-31"/>
       <use x="63.623047" xlink:href="#DejaVuSans-32"/>
       <use x="127.246094" xlink:href="#DejaVuSans-30"/>
       <use x="190.869141" xlink:href="#DejaVuSans-30"/>
       <use x="254.492188" xlink:href="#DejaVuSans-30"/>
      </g>
     </g>
    </g>
    <g id="text_8">
     <!-- Iteration -->
     <defs>
      <path d="M 9.8125 72.90625 
L 19.671875 72.90625 
L 19.671875 0 
L 9.8125 0 
z
" id="DejaVuSans-49"/>
      <path d="M 18.3125 70.21875 
L 18.3125 54.6875 
L 36.8125 54.6875 
L 36.8125 47.703125 
L 18.3125 47.703125 
L 18.3125 18.015625 
Q 18.3125 11.328125 20.140625 9.421875 
Q 21.96875 7.515625 27.59375 7.515625 
L 36.8125 7.515625 
L 36.8125 0 
L 27.59375 0 
Q 17.1875 0 13.234375 3.875 
Q 9.28125 7.765625 9.28125 18.015625 
L 9.28125 47.703125 
L 2.6875 47.703125 
L 2.6875 54.6875 
L 9.28125 54.6875 
L 9.28125 70.21875 
z
" id="DejaVuSans-74"/>
      <path d="M 56.203125 29.59375 
L 56.203125 25.203125 
L 14.890625 25.203125 
Q 15.484375 15.921875 20.484375 11.0625 
Q 25.484375 6.203125 34.421875 6.203125 
Q 39.59375 6.203125 44.453125 7.46875 
Q 49.3125 8.734375 54.109375 11.28125 
L 54.109375 2.78125 
Q 49.265625 0.734375 44.1875 -0.34375 
Q 39.109375 -1.421875 33.890625 -1.421875 
Q 20.796875 -1.421875 13.15625 6.1875 
Q 5.515625 13.8125 5.515625 26.8125 
Q 5.515625 40.234375 12.765625 48.109375 
Q 20.015625 56 32.328125 56 
Q 43.359375 56 49.78125 48.890625 
Q 56.203125 41.796875 56.203125 29.59375 
z
M 47.21875 32.234375 
Q 47.125 39.59375 43.09375 43.984375 
Q 39.0625 48.390625 32.421875 48.390625 
Q 24.90625 48.390625 20.390625 44.140625 
Q 15.875 39.890625 15.1875 32.171875 
z
" id="DejaVuSans-65"/>
      <path d="M 41.109375 46.296875 
Q 39.59375 47.171875 37.8125 47.578125 
Q 36.03125 48 33.890625 48 
Q 26.265625 48 22.1875 43.046875 
Q 18.109375 38.09375 18.109375 28.8125 
L 18.109375 0 
L 9.078125 0 
L 9.078125 54.6875 
L 18.109375 54.6875 
L 18.109375 46.1875 
Q 20.953125 51.171875 25.484375 53.578125 
Q 30.03125 56 36.53125 56 
Q 37.453125 56 38.578125 55.875 
Q 39.703125 55.765625 41.0625 55.515625 
z
" id="DejaVuSans-72"/>
      <path d="M 34.28125 27.484375 
Q 23.390625 27.484375 19.1875 25 
Q 14.984375 22.515625 14.984375 16.5 
Q 14.984375 11.71875 18.140625 8.90625 
Q 21.296875 6.109375 26.703125 6.109375 
Q 34.1875 6.109375 38.703125 11.40625 
Q 43.21875 16.703125 43.21875 25.484375 
L 43.21875 27.484375 
z
M 52.203125 31.203125 
L 52.203125 0 
L 43.21875 0 
L 43.21875 8.296875 
Q 40.140625 3.328125 35.546875 0.953125 
Q 30.953125 -1.421875 24.3125 -1.421875 
Q 15.921875 -1.421875 10.953125 3.296875 
Q 6 8.015625 6 15.921875 
Q 6 25.140625 12.171875 29.828125 
Q 18.359375 34.515625 30.609375 34.515625 
L 43.21875 34.515625 
L 43.21875 35.40625 
Q 43.21875 41.609375 39.140625 45 
Q 35.0625 48.390625 27.6875 48.390625 
Q 23 48.390625 18.546875 47.265625 
Q 14.109375 46.140625 10.015625 43.890625 
L 10.015625 52.203125 
Q 14.9375 54.109375 19.578125 55.046875 
Q 24.21875 56 28.609375 56 
Q 40.484375 56 46.34375 49.84375 
Q 52.203125 43.703125 52.203125 31.203125 
z
" id="DejaVuSans-61"/>
      <path d="M 9.421875 54.6875 
L 18.40625 54.6875 
L 18.40625 0 
L 9.421875 0 
z
M 9.421875 75.984375 
L 18.40625 75.984375 
L 18.40625 64.59375 
L 9.421875 64.59375 
z
" id="DejaVuSans-69"/>
      <path d="M 30.609375 48.390625 
Q 23.390625 48.390625 19.1875 42.75 
Q 14.984375 37.109375 14.984375 27.296875 
Q 14.984375 17.484375 19.15625 11.84375 
Q 23.34375 6.203125 30.609375 6.203125 
Q 37.796875 6.203125 41.984375 11.859375 
Q 46.1875 17.53125 46.1875 27.296875 
Q 46.1875 37.015625 41.984375 42.703125 
Q 37.796875 48.390625 30.609375 48.390625 
z
M 30.609375 56 
Q 42.328125 56 49.015625 48.375 
Q 55.71875 40.765625 55.71875 27.296875 
Q 55.71875 13.875 49.015625 6.21875 
Q 42.328125 -1.421875 30.609375 -1.421875 
Q 18.84375 -1.421875 12.171875 6.21875 
Q 5.515625 13.875 5.515625 27.296875 
Q 5.515625 40.765625 12.171875 48.375 
Q 18.84375 56 30.609375 56 
z
" id="DejaVuSans-6f"/>
      <path d="M 54.890625 33.015625 
L 54.890625 0 
L 45.90625 0 
L 45.90625 32.71875 
Q 45.90625 40.484375 42.875 44.328125 
Q 39.84375 48.1875 33.796875 48.1875 
Q 26.515625 48.1875 22.3125 43.546875 
Q 18.109375 38.921875 18.109375 30.90625 
L 18.109375 0 
L 9.078125 0 
L 9.078125 54.6875 
L 18.109375 54.6875 
L 18.109375 46.1875 
Q 21.34375 51.125 25.703125 53.5625 
Q 30.078125 56 35.796875 56 
Q 45.21875 56 50.046875 50.171875 
Q 54.890625 44.34375 54.890625 33.015625 
z
" id="DejaVuSans-6e"/>
     </defs>
     <g transform="translate(265.507969 415.795938)scale(0.14 -0.14)">
      <use xlink:href="#DejaVuSans-49"/>
      <use x="29.492188" xlink:href="#DejaVuSans-74"/>
      <use x="68.701172" xlink:href="#DejaVuSans-65"/>
      <use x="130.224609" xlink:href="#DejaVuSans-72"/>
      <use x="171.337891" xlink:href="#DejaVuSans-61"/>
      <use x="232.617188" xlink:href="#DejaVuSans-74"/>
      <use x="271.826172" xlink:href="#DejaVuSans-69"/>
      <use x="299.609375" xlink:href="#DejaVuSans-6f"/>
      <use x="360.791016" xlink:href="#DejaVuSans-6e"/>
     </g>
    </g>
   </g>
   <g id="matplotlib.axis_2">
    <g id="ytick_1">
     <g id="line2d_15">
      <path clip-path="url(#pac70b6c6bd)" d="M 72 346.360521 
L 518.4 346.360521 
" style="fill:none;stroke:#b0b0b0;stroke-dasharray:5.12,1.28,0.8,1.28;stroke-dashoffset:0;stroke-width:0.8;"/>
     </g>
     <g id="line2d_16">
      <defs>
       <path d="M 0 0 
L -3.5 0 
" id="mcc341fe8ab" style="stroke:#000000;stroke-width:0.8;"/>
      </defs>
      <g>
       <use style="stroke:#000000;stroke-width:0.8;" x="72" xlink:href="#mcc341fe8ab" y="346.360521"/>
      </g>
     </g>
     <g id="text_9">
      <!-- −250 -->
      <defs>
       <path d="M 10.59375 35.5 
L 73.1875 35.5 
L 73.1875 27.203125 
L 10.59375 27.203125 
z
" id="DejaVuSans-2212"/>
       <path d="M 10.796875 72.90625 
L 49.515625 72.90625 
L 49.515625 64.59375 
L 19.828125 64.59375 
L 19.828125 46.734375 
Q 21.96875 47.46875 24.109375 47.828125 
Q 26.265625 48.1875 28.421875 48.1875 
Q 40.625 48.1875 47.75 41.5 
Q 54.890625 34.8125 54.890625 23.390625 
Q 54.890625 11.625 47.5625 5.09375 
Q 40.234375 -1.421875 26.90625 -1.421875 
Q 22.3125 -1.421875 17.546875 -0.640625 
Q 12.796875 0.140625 7.71875 1.703125 
L 7.71875 11.625 
Q 12.109375 9.234375 16.796875 8.0625 
Q 21.484375 6.890625 26.703125 6.890625 
Q 35.15625 6.890625 40.078125 11.328125 
Q 45.015625 15.765625 45.015625 23.390625 
Q 45.015625 31 40.078125 35.4375 
Q 35.15625 39.890625 26.703125 39.890625 
Q 22.75 39.890625 18.8125 39.015625 
Q 14.890625 38.140625 10.796875 36.28125 
z
" id="DejaVuSans-35"/>
      </defs>
      <g transform="translate(37.532812 350.15974)scale(0.1 -0.1)">
       <use xlink:href="#DejaVuSans-2212"/>
       <use x="83.789062" xlink:href="#DejaVuSans-32"/>
       <use x="147.412109" xlink:href="#DejaVuSans-35"/>
       <use x="211.035156" xlink:href="#DejaVuSans-30"/>
      </g>
     </g>
    </g>
    <g id="ytick_2">
     <g id="line2d_17">
      <path clip-path="url(#pac70b6c6bd)" d="M 72 297.682522 
L 518.4 297.682522 
" style="fill:none;stroke:#b0b0b0;stroke-dasharray:5.12,1.28,0.8,1.28;stroke-dashoffset:0;stroke-width:0.8;"/>
     </g>
     <g id="line2d_18">
      <g>
       <use style="stroke:#000000;stroke-width:0.8;" x="72" xlink:href="#mcc341fe8ab" y="297.682522"/>
      </g>
     </g>
     <g id="text_10">
      <!-- −200 -->
      <g transform="translate(37.532812 301.481741)scale(0.1 -0.1)">
       <use xlink:href="#DejaVuSans-2212"/>
       <use x="83.789062" xlink:href="#DejaVuSans-32"/>
       <use x="147.412109" xlink:href="#DejaVuSans-30"/>
       <use x="211.035156" xlink:href="#DejaVuSans-30"/>
      </g>
     </g>
    </g>
    <g id="ytick_3">
     <g id="line2d_19">
      <path clip-path="url(#pac70b6c6bd)" d="M 72 249.004522 
L 518.4 249.004522 
" style="fill:none;stroke:#b0b0b0;stroke-dasharray:5.12,1.28,0.8,1.28;stroke-dashoffset:0;stroke-width:0.8;"/>
     </g>
     <g id="line2d_20">
      <g>
       <use style="stroke:#000000;stroke-width:0.8;" x="72" xlink:href="#mcc341fe8ab" y="249.004522"/>
      </g>
     </g>
     <g id="text_11">
      <!-- −150 -->
      <g transform="translate(37.532812 252.803741)scale(0.1 -0.1)">
       <use xlink:href="#DejaVuSans-2212"/>
       <use x="83.789062" xlink:href="#DejaVuSans-31"/>
       <use x="147.412109" xlink:href="#DejaVuSans-35"/>
       <use x="211.035156" xlink:href="#DejaVuSans-30"/>
      </g>
     </g>
    </g>
    <g id="ytick_4">
     <g id="line2d_21">
      <path clip-path="url(#pac70b6c6bd)" d="M 72 200.326523 
L 518.4 200.326523 
" style="fill:none;stroke:#b0b0b0;stroke-dasharray:5.12,1.28,0.8,1.28;stroke-dashoffset:0;stroke-width:0.8;"/>
     </g>
     <g id="line2d_22">
      <g>
       <use style="stroke:#000000;stroke-width:0.8;" x="72" xlink:href="#mcc341fe8ab" y="200.326523"/>
      </g>
     </g>
     <g id="text_12">
      <!-- −100 -->
      <g transform="translate(37.532812 204.125742)scale(0.1 -0.1)">
       <use xlink:href="#DejaVuSans-2212"/>
       <use x="83.789062" xlink:href="#DejaVuSans-31"/>
       <use x="147.412109" xlink:href="#DejaVuSans-30"/>
       <use x="211.035156" xlink:href="#DejaVuSans-30"/>
      </g>
     </g>
    </g>
    <g id="ytick_5">
     <g id="line2d_23">
      <path clip-path="url(#pac70b6c6bd)" d="M 72 151.648523 
L 518.4 151.648523 
" style="fill:none;stroke:#b0b0b0;stroke-dasharray:5.12,1.28,0.8,1.28;stroke-dashoffset:0;stroke-width:0.8;"/>
     </g>
     <g id="line2d_24">
      <g>
       <use style="stroke:#000000;stroke-width:0.8;" x="72" xlink:href="#mcc341fe8ab" y="151.648523"/>
      </g>
     </g>
     <g id="text_13">
      <!-- −50 -->
      <g transform="translate(43.895313 155.447742)scale(0.1 -0.1)">
       <use xlink:href="#DejaVuSans-2212"/>
       <use x="83.789062" xlink:href="#DejaVuSans-35"/>
       <use x="147.412109" xlink:href="#DejaVuSans-30"/>
      </g>
     </g>
    </g>
    <g id="ytick_6">
     <g id="line2d_25">
      <path clip-path="url(#pac70b6c6bd)" d="M 72 102.970524 
L 518.4 102.970524 
" style="fill:none;stroke:#b0b0b0;stroke-dasharray:5.12,1.28,0.8,1.28;stroke-dashoffset:0;stroke-width:0.8;"/>
     </g>
     <g id="line2d_26">
      <g>
       <use style="stroke:#000000;stroke-width:0.8;" x="72" xlink:href="#mcc341fe8ab" y="102.970524"/>
      </g>
     </g>
     <g id="text_14">
      <!-- 0 -->
      <g transform="translate(58.6375 106.769742)scale(0.1 -0.1)">
       <use xlink:href="#DejaVuSans-30"/>
      </g>
     </g>
    </g>
    <g id="ytick_7">
     <g id="line2d_27">
      <path clip-path="url(#pac70b6c6bd)" d="M 72 54.292524 
L 518.4 54.292524 
" style="fill:none;stroke:#b0b0b0;stroke-dasharray:5.12,1.28,0.8,1.28;stroke-dashoffset:0;stroke-width:0.8;"/>
     </g>
     <g id="line2d_28">
      <g>
       <use style="stroke:#000000;stroke-width:0.8;" x="72" xlink:href="#mcc341fe8ab" y="54.292524"/>
      </g>
     </g>
     <g id="text_15">
      <!-- 50 -->
      <g transform="translate(52.275 58.091743)scale(0.1 -0.1)">
       <use xlink:href="#DejaVuSans-35"/>
       <use x="63.623047" xlink:href="#DejaVuSans-30"/>
      </g>
     </g>
    </g>
    <g id="text_16">
     <!-- $\partial \mathcal{L}/ \partial u_{m}[m.u/V]$ -->
     <defs>
      <path d="M 21.34375 -1.421875 
Q 14.453125 -1.421875 9.96875 2.734375 
Q 4.640625 7.671875 4.640625 16.609375 
Q 4.640625 25.875 9.328125 33.109375 
Q 14.15625 40.53125 22.859375 40.53125 
Q 28.5625 40.53125 33.0625 36.96875 
Q 35.6875 34.859375 37.5 31.34375 
Q 38.140625 35.296875 38.140625 39.796875 
Q 38.140625 46.390625 36.578125 50.203125 
Q 33.109375 58.640625 23.921875 58.640625 
Q 20.453125 58.640625 15.09375 56.5 
L 15.09375 64.703125 
Q 20.75 66.21875 25.828125 66.21875 
Q 38.921875 66.21875 44.484375 54.203125 
Q 47.078125 48.53125 47.078125 40.09375 
Q 47.078125 34.578125 45.84375 28.171875 
Q 42.78125 12.15625 34.8125 4.546875 
Q 28.5625 -1.421875 21.34375 -1.421875 
z
M 12.984375 15.140625 
Q 12.984375 10.25 15.140625 7.625 
Q 17.4375 4.828125 20.953125 4.828125 
Q 24.078125 4.828125 26.5625 7.03125 
Q 30.078125 10.0625 32.671875 14.984375 
Q 34.8125 19.046875 35.890625 23.390625 
Q 31.546875 33.890625 24.03125 33.890625 
Q 17.578125 33.890625 14.75 25.390625 
Q 12.984375 20.125 12.984375 15.140625 
z
" id="DejaVuSans-2202"/>
      <path d="M 63.59375 14.296875 
L 65.296875 12.5 
Q 52.296875 -0.703125 37.703125 -0.703125 
Q 33.703125 -0.703125 28.90625 0.40625 
Q 21.796875 1.90625 17.90625 1.90625 
Q 15.703125 1.90625 10.5 0.953125 
Q 5.296875 0 3 0 
L 3.59375 2.40625 
Q 9.09375 2.40625 11.40625 11.703125 
L 18.40625 40.09375 
Q 20.09375 47 23.6875 52.390625 
Q 27.296875 57.796875 31.640625 60.84375 
Q 36 63.90625 40.390625 65.453125 
Q 44.796875 67 48.796875 67 
Q 53.796875 67 56.140625 63.796875 
Q 58.5 60.59375 58.5 56 
Q 58.5 52.296875 56.140625 50 
Q 53.796875 47.703125 50.40625 47.703125 
Q 48.203125 47.703125 46.796875 49.203125 
Q 45.40625 50.703125 45.40625 52.796875 
Q 45.40625 54.40625 46.203125 55.5 
Q 47 56.59375 47.890625 56.9375 
Q 48.796875 57.296875 49.59375 57.890625 
Q 50.40625 58.5 50.40625 59.203125 
Q 50.40625 63 44.59375 63 
Q 39.40625 63 36.09375 59.140625 
Q 32.796875 55.296875 31.09375 48.9375 
Q 29.40625 42.59375 28.046875 35.6875 
Q 26.703125 28.796875 24.203125 21.296875 
Q 21.703125 13.796875 18.09375 9.203125 
L 18.09375 8.796875 
Q 21.296875 11 29.5 11 
Q 34.796875 11 38.4375 8.5 
Q 42.09375 6 46.296875 6 
Q 54.796875 6 63.59375 14.296875 
z
" id="STIXNonUnicode-Italic-e238"/>
      <path d="M 25.390625 72.90625 
L 33.6875 72.90625 
L 8.296875 -9.28125 
L 0 -9.28125 
z
" id="DejaVuSans-2f"/>
      <path d="M 6.6875 21.6875 
L 13.09375 54.6875 
L 22.125 54.6875 
L 15.71875 22.015625 
Q 15.234375 19.625 15.015625 17.921875 
Q 14.796875 16.21875 14.796875 15.09375 
Q 14.796875 10.9375 17.328125 8.65625 
Q 19.875 6.390625 24.515625 6.390625 
Q 31.734375 6.390625 37 11.265625 
Q 42.28125 16.15625 43.890625 24.421875 
L 49.90625 54.6875 
L 58.890625 54.6875 
L 48.296875 0 
L 39.3125 0 
L 41.109375 8.59375 
Q 37.3125 3.8125 32.0625 1.1875 
Q 26.8125 -1.421875 20.90625 -1.421875 
Q 13.71875 -1.421875 9.71875 2.515625 
Q 5.71875 6.453125 5.71875 13.484375 
Q 5.71875 14.9375 5.953125 17.140625 
Q 6.203125 19.34375 6.6875 21.6875 
z
" id="DejaVuSans-Oblique-75"/>
      <path d="M 89.796875 33.015625 
L 83.40625 0 
L 74.421875 0 
L 80.71875 32.71875 
Q 81.109375 34.8125 81.296875 36.328125 
Q 81.5 37.84375 81.5 38.921875 
Q 81.5 43.3125 79.046875 45.75 
Q 76.609375 48.1875 72.21875 48.1875 
Q 65.671875 48.1875 60.546875 43.28125 
Q 55.421875 38.375 53.90625 30.515625 
L 47.90625 0 
L 38.921875 0 
L 45.3125 32.71875 
Q 45.703125 34.515625 45.890625 36.046875 
Q 46.09375 37.59375 46.09375 38.8125 
Q 46.09375 43.265625 43.65625 45.71875 
Q 41.21875 48.1875 36.921875 48.1875 
Q 30.28125 48.1875 25.140625 43.28125 
Q 20.015625 38.375 18.5 30.515625 
L 12.5 0 
L 3.515625 0 
L 14.203125 54.6875 
L 23.1875 54.6875 
L 21.484375 46.1875 
Q 25.140625 50.984375 30.046875 53.484375 
Q 34.96875 56 40.578125 56 
Q 46.53125 56 50.359375 52.875 
Q 54.203125 49.75 54.984375 44.1875 
Q 59.078125 49.953125 64.46875 52.96875 
Q 69.875 56 75.875 56 
Q 82.90625 56 86.734375 51.953125 
Q 90.578125 47.90625 90.578125 40.484375 
Q 90.578125 38.875 90.375 36.9375 
Q 90.1875 35.015625 89.796875 33.015625 
z
" id="DejaVuSans-Oblique-6d"/>
      <path d="M 8.59375 75.984375 
L 29.296875 75.984375 
L 29.296875 69 
L 17.578125 69 
L 17.578125 -6.203125 
L 29.296875 -6.203125 
L 29.296875 -13.1875 
L 8.59375 -13.1875 
z
" id="DejaVuSans-5b"/>
      <path d="M 10.6875 12.40625 
L 21 12.40625 
L 21 0 
L 10.6875 0 
z
" id="DejaVuSans-2e"/>
      <path d="M 20.609375 0 
L 7.8125 72.90625 
L 17.484375 72.90625 
L 28.078125 10.203125 
L 63.484375 72.90625 
L 74.21875 72.90625 
L 32.078125 0 
z
" id="DejaVuSans-Oblique-56"/>
      <path d="M 30.421875 75.984375 
L 30.421875 -13.1875 
L 9.71875 -13.1875 
L 9.71875 -6.203125 
L 21.390625 -6.203125 
L 21.390625 69 
L 9.71875 69 
L 9.71875 75.984375 
z
" id="DejaVuSans-5d"/>
     </defs>
     <g transform="translate(30.62125 269.47)rotate(-90)scale(0.14 -0.14)">
      <use transform="translate(0 0.015625)" xlink:href="#DejaVuSans-2202"/>
      <use transform="translate(51.708984 0.015625)" xlink:href="#STIXNonUnicode-Italic-e238"/>
      <use transform="translate(121.008972 0.015625)" xlink:href="#DejaVuSans-2f"/>
      <use transform="translate(154.700378 0.015625)" xlink:href="#DejaVuSans-2202"/>
      <use transform="translate(206.409363 0.015625)" xlink:href="#DejaVuSans-Oblique-75"/>
      <use transform="translate(269.788269 -16.390625)scale(0.7)" xlink:href="#DejaVuSans-Oblique-6d"/>
      <use transform="translate(340.711121 0.015625)" xlink:href="#DejaVuSans-5b"/>
      <use transform="translate(379.724792 0.015625)" xlink:href="#DejaVuSans-Oblique-6d"/>
      <use transform="translate(477.136902 0.015625)" xlink:href="#DejaVuSans-2e"/>
      <use transform="translate(528.406433 0.015625)" xlink:href="#DejaVuSans-Oblique-75"/>
      <use transform="translate(591.785339 0.015625)" xlink:href="#DejaVuSans-2f"/>
      <use transform="translate(625.476746 0.015625)" xlink:href="#DejaVuSans-Oblique-56"/>
      <use transform="translate(693.884949 0.015625)" xlink:href="#DejaVuSans-5d"/>
     </g>
    </g>
   </g>
   <g id="line2d_29">
    <path clip-path="url(#pac70b6c6bd)" d="M 92.290909 102.970524 
L 92.322581 102.970524 
L 92.417599 121.793819 
L 92.480943 119.592892 
L 92.734322 109.40225 
L 92.956029 107.875806 
L 93.114391 107.833164 
L 93.36777 108.242059 
L 93.969545 109.199555 
L 94.381286 109.447034 
L 94.888044 109.466603 
L 95.204768 109.400206 
L 95.331457 107.483948 
L 95.36313 107.817879 
L 95.584836 114.479171 
L 96.123267 157.385128 
L 96.788387 199.87849 
L 97.295145 219.442179 
L 97.706886 228.319488 
L 97.960265 230.366008 
L 98.02361 230.424422 
L 98.055282 230.389179 
L 98.181971 229.857323 
L 98.56204 227.103511 
L 98.657057 227.2549 
L 99.132143 228.569011 
L 99.163815 228.550416 
L 99.290505 228.279377 
L 99.512211 227.096405 
L 99.923952 223.315682 
L 100.652417 216.893885 
L 101.000813 215.551249 
L 101.09583 215.408719 
L 101.127503 215.525157 
L 101.570916 222.513176 
L 101.634261 221.801114 
L 101.729278 220.617752 
L 102.109346 230.731191 
L 102.362725 232.405227 
L 102.521087 233.140168 
L 102.584432 232.971644 
L 102.711122 231.485408 
L 103.059518 222.774674 
L 103.344569 209.410227 
L 103.724638 179.154708 
L 104.674809 96.248287 
L 105.08655 103.854419 
L 105.276584 104.55032 
L 105.434946 107.437898 
L 105.688325 109.079321 
L 105.783342 110.058819 
L 105.973376 113.578531 
L 106.385117 119.925558 
L 107.113582 130.957745 
L 107.62034 135.465814 
L 108.063753 137.597619 
L 108.190443 137.58652 
L 108.348805 137.195149 
L 108.633856 135.736756 
L 109.045597 132.980121 
L 109.108942 133.338683 
L 109.393993 134.402103 
L 109.932424 135.472727 
L 110.439182 136.051216 
L 110.882595 136.249725 
L 111.326008 136.234051 
L 111.579387 135.832749 
L 112.086145 134.491768 
L 112.687921 133.090133 
L 113.004644 132.813837 
L 113.194679 132.88812 
L 113.416385 133.036003 
L 114.366557 133.531545 
L 115.760141 134.254122 
L 116.710313 134.480961 
L 117.153726 134.490502 
L 117.755501 134.239908 
L 118.642328 133.887382 
L 119.149086 133.921748 
L 119.814206 134.037797 
L 120.257619 133.577205 
L 120.637688 133.212802 
L 121.017756 132.515441 
L 121.714548 130.62654 
L 122.347996 129.175254 
L 122.759737 128.740949 
L 123.108133 128.677473 
L 124.311683 128.728974 
L 124.691752 128.349091 
L 125.293527 127.367158 
L 126.085337 126.160723 
L 126.560422 125.815109 
L 127.130525 125.710062 
L 127.827317 125.562275 
L 128.334075 125.184437 
L 129.125885 124.233269 
L 129.886022 123.459094 
L 130.487797 123.15875 
L 131.786365 122.638091 
L 132.609847 121.920674 
L 133.623363 121.111062 
L 134.510189 120.733613 
L 135.523705 120.244691 
L 138.057496 118.737133 
L 139.419408 118.086503 
L 141.319751 117.094543 
L 143.663507 116.054781 
L 145.31047 115.380103 
L 149.554569 113.779571 
L 149.586241 114.289035 
L 149.617914 114.211247 
L 149.96631 113.820655 
L 151.201533 112.935397 
L 151.771635 112.894605 
L 152.848496 112.884577 
L 153.481944 112.573525 
L 154.653822 111.954049 
L 155.413959 111.87558 
L 156.36413 111.754663 
L 157.314302 111.341582 
L 158.264473 111.019042 
L 160.766591 110.461873 
L 161.906796 110.167858 
L 164.503931 109.884844 
L 171.94694 110.459731 
L 190.538626 111.720199 
L 205.392972 112.52251 
L 219.645542 113.06858 
L 225.694966 113.229996 
L 226.138379 109.136663 
L 226.55012 107.699494 
L 227.056878 106.723111 
L 227.721998 105.936377 
L 228.798859 105.038949 
L 230.857564 103.65075 
L 233.771422 101.944002 
L 236.463575 100.613438 
L 239.155727 99.526653 
L 241.942896 98.641589 
L 244.856755 97.948999 
L 248.023993 97.429118 
L 251.476282 97.094992 
L 255.150278 96.956844 
L 260.597927 96.996175 
L 261.801477 97.33147 
L 263.385096 98.028733 
L 265.982231 99.179092 
L 267.185781 99.449839 
L 268.072608 99.461424 
L 268.516021 99.331064 
L 269.814589 99.238868 
L 275.388927 99.195253 
L 277.004219 99.345765 
L 278.809544 99.749598 
L 282.546885 100.648875 
L 284.067159 100.738345 
L 284.668934 100.643521 
L 286.886001 100.59679 
L 292.523684 100.688012 
L 295.025802 101.066825 
L 298.19304 101.510378 
L 299.808331 101.517388 
L 301.645329 101.469976 
L 308.391546 101.560225 
L 315.707865 102.03503 
L 321.725617 102.016435 
L 325.114561 102.157114 
L 330.910606 102.44042 
L 332.430881 102.39661 
L 341.109112 102.453174 
L 347.095192 102.600279 
L 355.4567 102.633477 
L 362.773019 102.724895 
L 384.721977 102.835978 
L 396.187378 102.865963 
L 462.287631 102.958062 
L 497.919057 102.965753 
L 497.919057 102.965753 
" style="fill:none;stroke:#bf00bf;stroke-linecap:square;stroke-width:1.5;"/>
   </g>
   <g id="line2d_30">
    <path clip-path="url(#pac70b6c6bd)" d="M 92.290909 102.970524 
L 92.322581 102.970524 
L 92.354254 102.970524 
L 92.449271 117.840192 
L 92.480943 117.414162 
L 92.765995 111.110556 
L 92.956029 110.725903 
L 93.779511 110.635848 
L 95.23644 109.617699 
L 95.331457 108.785013 
L 95.36313 108.939615 
L 95.521492 111.43261 
L 95.869888 120.249753 
L 96.249956 147.115239 
L 96.883404 186.561748 
L 97.390162 205.108844 
L 97.706886 210.70253 
L 97.801903 211.055349 
L 97.833575 211.039869 
L 97.928592 210.632239 
L 98.118627 208.490505 
L 98.308661 205.231123 
L 98.372006 205.829765 
L 98.878764 215.70215 
L 99.258832 218.960364 
L 99.512211 219.625889 
L 99.638901 219.536516 
L 99.828935 218.948292 
L 100.177331 216.867696 
L 101.09583 211.063721 
L 101.22252 210.764546 
L 101.254192 210.794921 
L 101.380882 211.30643 
L 101.570916 212.613239 
L 101.729278 208.81801 
L 101.76095 210.445803 
L 102.014329 219.104061 
L 102.236036 220.584359 
L 102.521087 221.0873 
L 102.55276 221.057704 
L 102.647777 220.648419 
L 102.774466 219.323209 
L 103.122862 194.748316 
L 103.819655 152.385995 
L 104.674809 99.022154 
L 104.738154 99.424818 
L 105.023205 101.17265 
L 105.276584 101.966005 
L 105.466618 103.950412 
L 105.783342 106.274981 
L 106.068394 109.844636 
L 107.652013 129.098635 
L 108.158771 131.788289 
L 108.41215 132.278768 
L 108.570511 132.206043 
L 108.792218 131.697261 
L 109.267304 130.298353 
L 109.298976 130.316364 
L 109.552355 130.669668 
L 110.312492 131.756551 
L 110.81925 132.101873 
L 111.326008 132.191051 
L 111.61106 131.932376 
L 112.022801 131.180787 
L 112.846283 129.648793 
L 113.163006 129.469756 
L 113.448058 129.572564 
L 114.239867 129.917009 
L 115.886831 130.63647 
L 116.963692 130.836245 
L 117.533795 130.748429 
L 119.085741 130.339632 
L 120.732705 130.586137 
L 121.049428 130.261357 
L 121.524514 129.380675 
L 122.53803 127.431316 
L 122.949771 127.126202 
L 123.32984 127.108581 
L 124.026632 127.206229 
L 124.438373 127.0821 
L 124.850114 126.709713 
L 125.546906 125.706557 
L 126.275371 124.801633 
L 126.782129 124.513557 
L 127.668956 124.364407 
L 128.207386 124.120141 
L 128.809161 123.573974 
L 130.076056 122.360334 
L 130.772849 122.071771 
L 131.849709 121.653627 
L 132.704864 120.996766 
L 133.781725 120.227459 
L 134.858585 119.804155 
L 135.808757 119.3275 
L 137.867461 118.160396 
L 139.736132 117.327321 
L 141.44644 116.514982 
L 144.170265 115.37543 
L 146.894089 114.365167 
L 149.522896 113.450021 
L 149.617914 113.468616 
L 149.83962 113.543483 
L 150.378051 113.175672 
L 151.201533 112.66095 
L 151.771635 112.572454 
L 153.101875 112.48902 
L 153.893685 112.077691 
L 154.780511 111.686612 
L 155.635665 111.595876 
L 156.585837 111.436504 
L 159.182972 110.689784 
L 160.291505 110.448633 
L 162.22352 109.941797 
L 164.75731 109.701133 
L 195.891258 112.07847 
L 208.718571 112.756262 
L 221.48254 113.194753 
L 225.663294 113.287047 
L 225.885 122.886056 
L 226.106707 124.231906 
L 226.328414 124.472083 
L 226.581793 124.399747 
L 227.025206 123.965442 
L 227.943705 122.673626 
L 234.9433 112.220317 
L 237.255384 109.381027 
L 239.535795 106.927072 
L 241.816207 104.796241 
L 244.096618 102.963125 
L 246.440374 101.362008 
L 248.78413 100.020442 
L 251.286248 98.845453 
L 253.915055 97.865759 
L 256.543862 97.115826 
L 258.317516 96.781895 
L 259.17267 96.957136 
L 260.629599 97.318716 
L 262.023184 97.912685 
L 265.507145 99.518085 
L 266.647351 99.721754 
L 267.787557 99.688458 
L 268.009263 99.75797 
L 268.199298 99.98111 
L 268.611039 99.990359 
L 270.669743 99.65857 
L 274.027015 99.211901 
L 277.447632 99.708222 
L 282.293506 100.860332 
L 283.782108 100.862572 
L 284.067159 100.92264 
L 284.288866 101.017465 
L 285.112348 100.97677 
L 290.053239 100.632227 
L 292.301977 100.823629 
L 295.500888 101.378072 
L 297.654609 101.626524 
L 300.885192 101.686203 
L 305.889428 101.505024 
L 308.676597 101.709666 
L 313.490798 102.131704 
L 317.798242 102.101232 
L 321.725617 102.054988 
L 325.36794 102.266153 
L 329.833746 102.484912 
L 335.724808 102.410337 
L 339.557166 102.43896 
L 348.552121 102.632796 
L 354.79158 102.647399 
L 362.012882 102.759261 
L 369.804287 102.774157 
L 377.31064 102.824684 
L 385.450442 102.860414 
L 395.110517 102.868105 
L 498.077419 102.966337 
L 498.077419 102.966337 
" style="fill:none;stroke:#00bfbf;stroke-linecap:square;stroke-width:1.5;"/>
   </g>
   <g id="line2d_31">
    <path clip-path="url(#pac70b6c6bd)" d="M 92.290909 102.970524 
L 92.322581 102.970524 
L 92.354254 102.970524 
L 92.512616 112.460884 
L 92.57596 112.504305 
L 92.861012 113.248007 
L 92.924357 113.195338 
L 93.114391 112.693759 
L 93.842856 110.548325 
L 94.317941 109.916777 
L 94.951389 109.484127 
L 95.299785 109.249888 
L 95.489819 108.215286 
L 95.553164 107.740189 
L 95.584836 107.907836 
L 95.743198 111.066162 
L 95.869888 115.386334 
L 96.249956 141.673136 
L 97.010093 191.786552 
L 97.485179 209.581866 
L 97.770231 214.514018 
L 97.89692 214.970228 
L 97.928592 214.931188 
L 98.055282 214.236748 
L 98.308661 210.896269 
L 98.403678 211.667231 
L 99.037126 220.188996 
L 99.322177 221.682145 
L 99.480539 221.798778 
L 99.607228 221.560061 
L 99.828935 220.555055 
L 100.304021 216.984134 
L 100.937468 212.711082 
L 101.159175 212.015473 
L 101.444226 214.637076 
L 101.475899 214.958448 
L 101.507571 221.709697 
L 101.665933 322.623084 
L 101.792623 223.550212 
L 101.982657 218.059431 
L 102.046002 217.91184 
L 102.077674 217.969085 
L 102.236036 218.899711 
L 102.774466 222.194822 
L 102.837811 222.234933 
L 102.996173 222.675761 
L 103.059518 222.579086 
L 103.186207 221.518977 
L 103.376241 217.319136 
L 103.661293 204.629463 
L 104.104706 171.871798 
L 104.896516 112.634372 
L 105.181567 108.204188 
L 105.339929 107.209209 
L 105.403274 107.299653 
L 105.62498 108.199417 
L 105.815015 109.444308 
L 106.005049 111.878403 
L 106.480135 117.950789 
L 107.145254 125.844413 
L 107.74703 130.712895 
L 108.190443 132.837592 
L 108.380477 132.979634 
L 108.538839 132.764867 
L 108.792218 131.943182 
L 109.07727 130.67181 
L 109.140614 130.795258 
L 110.502527 133.556176 
L 111.009285 133.98834 
L 111.547715 134.151314 
L 111.832766 133.91688 
L 112.244507 133.199172 
L 113.067989 131.744771 
L 113.353041 131.627846 
L 113.954816 131.804547 
L 116.837002 132.849956 
L 117.533795 132.870303 
L 118.325604 132.601601 
L 119.085741 132.430936 
L 119.87755 132.524884 
L 120.922739 132.672865 
L 121.271135 132.271175 
L 121.777893 131.266363 
L 122.66472 129.502857 
L 123.076461 129.122974 
L 123.488202 129.044213 
L 124.470045 128.997774 
L 124.881786 128.686624 
L 125.451889 127.917025 
L 126.433733 126.576141 
L 126.940491 126.248051 
L 127.795645 126.040683 
L 128.365748 125.758837 
L 128.999195 125.155327 
L 130.234418 123.921145 
L 130.93121 123.588967 
L 132.039744 123.091283 
L 132.958243 122.338916 
L 133.971759 121.590832 
L 135.206982 121.045249 
L 136.188825 120.462573 
L 137.835789 119.451239 
L 140.369579 118.187753 
L 141.794836 117.513173 
L 144.10692 116.46241 
L 146.10228 115.657958 
L 149.586241 114.312984 
L 149.617914 114.62209 
L 149.712931 114.479171 
L 149.83962 114.468754 
L 150.188016 114.271608 
L 151.549929 113.402803 
L 152.215049 113.360453 
L 153.101875 113.27624 
L 153.798668 112.942893 
L 154.938873 112.392053 
L 155.8257 112.278341 
L 156.744199 112.091905 
L 159.214644 111.317632 
L 160.418195 111.042991 
L 162.35021 110.501886 
L 164.820655 110.218775 
L 171.915268 110.809629 
L 190.918695 112.275615 
L 203.872697 113.040834 
L 216.8267 113.567237 
L 225.694966 113.786775 
L 225.980017 110.737975 
L 226.360086 108.992771 
L 226.803499 108.002855 
L 227.436947 107.176108 
L 229.052238 105.545298 
L 231.07927 103.766117 
L 233.042958 102.334789 
L 235.228352 101.021943 
L 237.60378 99.861265 
L 240.074226 98.895396 
L 242.734706 98.087439 
L 245.680237 97.432428 
L 248.78413 96.972713 
L 252.204747 96.693982 
L 255.910415 96.610354 
L 260.756289 96.73604 
L 261.991511 97.133642 
L 263.638475 97.923783 
L 265.918886 98.988469 
L 267.122437 99.29368 
L 268.072608 99.321134 
L 268.579366 99.188535 
L 270.036296 99.100817 
L 275.483945 99.027411 
L 277.067563 99.194863 
L 278.841217 99.615149 
L 282.515213 100.55113 
L 284.067159 100.65384 
L 284.4789 100.578292 
L 286.220881 100.51725 
L 291.985254 100.53896 
L 294.170648 100.830931 
L 298.478091 101.474065 
L 300.06171 101.450797 
L 303.133931 101.410394 
L 308.423218 101.504148 
L 315.549503 102.008549 
L 320.648756 101.978466 
L 323.911011 102.047784 
L 325.906371 102.181453 
L 325.938043 101.979342 
L 326.001388 102.070857 
L 326.286439 102.138909 
L 330.308831 102.423578 
L 334.077844 102.370519 
L 341.61587 102.456971 
L 346.905157 102.590446 
L 354.79158 102.603686 
L 365.116775 102.715354 
L 384.341908 102.826145 
L 396.314067 102.862264 
L 463.459509 102.957575 
L 497.982401 102.965656 
L 497.982401 102.965656 
" style="fill:none;stroke:#ff0000;stroke-linecap:square;stroke-width:1.5;"/>
   </g>
   <g id="line2d_32">
    <path clip-path="url(#pac70b6c6bd)" d="M 92.290909 102.970524 
L 92.322581 102.970524 
L 92.354254 102.970524 
L 92.512616 74.629219 
L 92.734322 73.565312 
L 92.797667 73.482949 
L 92.861012 73.554895 
L 93.019374 74.291783 
L 94.096235 80.823202 
L 94.476303 81.553372 
L 94.856372 81.854884 
L 95.204768 81.943478 
L 95.268113 83.632604 
L 95.458147 100.839304 
L 95.806543 164.415886 
L 96.503335 271.677566 
L 97.041766 324.16384 
L 97.516851 350.462616 
L 97.833575 358.63059 
L 97.960265 359.322986 
L 97.991937 359.266909 
L 98.118627 358.198719 
L 98.340333 353.679843 
L 98.530368 351.488554 
L 98.625385 351.918575 
L 99.10047 355.266551 
L 99.132143 355.240362 
L 99.258832 354.686309 
L 99.480539 352.118837 
L 99.89228 343.885927 
L 100.589072 330.653591 
L 100.937468 327.760658 
L 101.09583 327.374447 
L 101.159175 329.495542 
L 101.539244 343.65899 
L 101.570916 344.3177 
L 101.570916 344.3177 
L 101.570916 344.3177 
L 101.729278 338.577688 
L 101.982657 359.979944 
L 102.236036 367.194413 
L 102.521087 369.36 
L 102.616104 368.133022 
L 102.774466 362.022278 
L 103.21788 330.953156 
L 103.566276 279.234923 
L 104.674809 71.553353 
L 104.738154 78.807544 
L 104.991533 93.103104 
L 105.244912 96.684539 
L 105.276584 96.88334 
L 105.434946 103.592044 
L 105.719997 110.42994 
L 105.815015 116.201204 
L 106.986893 158.529061 
L 107.461978 167.635157 
L 107.937064 172.799017 
L 108.063753 173.193016 
L 108.095426 173.184546 
L 108.190443 172.923048 
L 108.380477 171.48325 
L 108.760546 166.309168 
L 109.045597 162.119356 
L 109.07727 162.763074 
L 109.362321 165.99023 
L 109.774062 168.064594 
L 110.217475 169.313769 
L 110.597544 169.831606 
L 110.914267 169.936069 
L 111.294336 169.824304 
L 111.516043 169.106985 
L 111.927784 166.814543 
L 112.656248 162.875422 
L 112.9413 162.283498 
L 113.131334 162.284764 
L 113.194679 162.494468 
L 113.448058 162.884671 
L 115.886831 165.726882 
L 116.551951 166.022747 
L 117.122054 166.065778 
L 117.502122 165.761833 
L 118.610655 164.718761 
L 118.990724 164.717495 
L 119.814206 165.096307 
L 120.00424 165.403563 
L 120.352636 165.403563 
L 120.574343 165.082775 
L 120.859394 164.219227 
L 121.302808 161.986659 
L 122.347996 156.421596 
L 122.696392 155.66991 
L 122.949771 155.543445 
L 123.20315 155.673707 
L 123.99496 156.234672 
L 124.216666 156.124368 
L 124.501718 155.679256 
L 124.881786 154.597923 
L 126.275371 150.142621 
L 126.623767 149.80022 
L 127.003836 149.735088 
L 127.637283 149.675896 
L 127.985679 149.356568 
L 128.39742 148.606927 
L 129.220902 146.447474 
L 129.85435 145.130929 
L 130.329435 144.626235 
L 131.089572 144.24567 
L 131.564658 143.845245 
L 132.071416 143.086842 
L 133.813397 140.152824 
L 134.605206 139.569857 
L 135.270326 138.970241 
L 135.998791 137.955013 
L 137.202341 136.280392 
L 138.025823 135.577871 
L 139.007667 134.706146 
L 141.794836 131.81769 
L 142.935042 130.799833 
L 144.803712 129.050346 
L 147.369175 126.972866 
L 148.857777 125.873133 
L 149.554569 125.386353 
L 149.586241 126.590257 
L 149.649586 126.258079 
L 150.029655 125.398425 
L 150.979826 123.741426 
L 151.359894 123.508259 
L 151.739963 123.533474 
L 152.62679 123.701802 
L 153.006858 123.477981 
L 153.513616 122.868045 
L 154.463787 121.696755 
L 154.938873 121.481209 
L 155.69901 121.466898 
L 156.205768 121.336538 
L 156.712526 120.962983 
L 158.201128 119.692682 
L 158.929593 119.534381 
L 159.68973 119.308905 
L 160.418195 118.808495 
L 161.495055 118.07297 
L 162.35021 117.81264 
L 163.300381 117.467903 
L 163.933829 117.232983 
L 164.472259 117.415915 
L 169.476495 118.640069 
L 184.774253 122.147222 
L 196.873102 124.674486 
L 207.071608 126.568158 
L 217.396803 128.232945 
L 225.694966 129.378631 
L 226.201724 119.23618 
L 226.67681 115.649974 
L 227.278585 112.863548 
L 228.038722 110.410859 
L 229.020566 107.996527 
L 230.224116 105.621528 
L 231.681046 103.24536 
L 233.296337 101.029927 
L 235.06999 98.968997 
L 236.970333 97.104435 
L 238.93402 95.49076 
L 240.897708 94.152796 
L 242.956412 93.011102 
L 245.078462 92.082229 
L 247.3272 91.341155 
L 249.702629 90.797032 
L 252.204747 90.454242 
L 254.960244 90.310252 
L 257.937447 90.383951 
L 258.602567 90.316288 
L 259.521066 90.193522 
L 260.312875 90.315509 
L 261.104685 90.669593 
L 261.991511 91.323923 
L 263.131717 92.46367 
L 265.760524 95.186717 
L 266.679023 95.763941 
L 267.470833 96.002171 
L 268.040936 95.988638 
L 268.357659 95.696473 
L 269.022779 95.4598 
L 270.353019 95.265673 
L 272.728448 95.170264 
L 276.62415 95.262947 
L 277.732683 95.69141 
L 279.15794 96.506183 
L 281.755075 98.027078 
L 282.863609 98.392066 
L 283.877125 98.49429 
L 284.225521 98.383109 
L 284.827296 98.222958 
L 286.379243 98.085784 
L 290.971738 97.984339 
L 292.33365 98.156562 
L 293.790579 98.575095 
L 298.256384 100.053056 
L 299.52328 100.125879 
L 300.283417 99.965826 
L 302.342121 99.867107 
L 307.25134 99.870125 
L 309.056665 100.158882 
L 314.155918 101.159021 
L 315.296124 101.107227 
L 316.97476 101.022722 
L 322.644116 101.009677 
L 324.892855 101.252288 
L 326.064733 101.318782 
L 326.571491 101.382258 
L 329.865418 101.900581 
L 331.132313 101.876437 
L 332.652587 101.794074 
L 338.733684 101.75114 
L 341.330819 101.917132 
L 346.018331 102.269268 
L 352.1311 102.17717 
L 355.393355 102.266542 
L 360.904349 102.496497 
L 364.071586 102.46067 
L 371.071182 102.571364 
L 375.315281 102.656648 
L 380.826274 102.631627 
L 386.527303 102.742516 
L 392.164986 102.753225 
L 401.761716 102.834517 
L 418.738111 102.880177 
L 441.510551 102.919022 
L 468.337055 102.945503 
L 497.919057 102.960593 
L 497.919057 102.960593 
" style="fill:none;stroke:#008000;stroke-linecap:square;stroke-width:1.5;"/>
   </g>
   <g id="line2d_33">
    <path clip-path="url(#pac70b6c6bd)" d="M 92.290909 102.970524 
L 92.322581 102.970524 
L 92.544288 128.040083 
L 92.607633 128.276171 
L 92.639305 128.225351 
L 93.304425 126.188567 
L 93.747838 126.073297 
L 94.444631 125.824942 
L 95.204768 125.36805 
L 95.268113 124.033494 
L 95.268113 124.033494 
L 95.268113 124.033494 
L 96.249956 188.129958 
L 96.883404 225.255695 
L 97.35849 241.793363 
L 97.706886 248.092199 
L 97.865248 248.830547 
L 97.89692 248.817988 
L 97.991937 248.48581 
L 98.181971 246.699424 
L 98.372006 244.590791 
L 98.43535 244.837199 
L 99.163815 249.03003 
L 99.195488 249.020294 
L 99.322177 248.764832 
L 99.543884 247.560636 
L 99.955625 243.646243 
L 100.684089 236.928679 
L 101.032485 235.546905 
L 101.09583 235.445363 
L 101.127503 235.502316 
L 101.349209 238.741545 
L 101.570916 241.735631 
L 101.602588 241.3428 
L 101.729278 238.445485 
L 101.76095 239.712184 
L 102.046002 251.256269 
L 102.236036 252.47799 
L 102.331053 252.160317 
L 102.394398 251.532468 
L 102.774466 233.651384 
L 103.027845 218.500746 
L 103.439586 174.787221 
L 104.326413 76.661428 
L 104.579792 67.252068 
L 104.611464 66.96 
L 104.95986 103.127656 
L 105.213239 106.888713 
L 105.276584 107.353393 
L 105.371601 101.019704 
L 105.403274 101.389852 
L 105.75167 109.68468 
L 106.796858 134.97845 
L 107.303616 140.465434 
L 107.715357 142.83323 
L 108.095426 143.898012 
L 108.222115 143.707194 
L 108.443822 142.716597 
L 108.887235 139.299499 
L 109.07727 138.030561 
L 109.108942 138.120128 
L 109.584028 139.579008 
L 109.995769 140.136858 
L 110.375837 140.301876 
L 110.755906 140.212406 
L 111.040957 139.955289 
L 111.737749 137.583502 
L 112.339524 135.683502 
L 112.656248 135.312479 
L 112.877955 135.370308 
L 113.131334 135.718453 
L 113.163006 135.779398 
L 113.163006 135.779398 
L 113.163006 135.779398 
L 113.226351 135.633656 
L 113.289696 135.679803 
L 114.524919 136.910577 
L 115.3484 137.443504 
L 116.108537 137.681637 
L 116.773657 137.687868 
L 117.533795 137.225719 
L 118.262259 136.838826 
L 118.737345 136.842233 
L 119.87755 137.216957 
L 120.099257 137.363867 
L 120.352636 137.158933 
L 120.66936 136.549873 
L 121.176118 134.948659 
L 121.967927 132.506095 
L 122.347996 131.975602 
L 122.633047 131.900638 
L 122.981444 132.071595 
L 123.709908 132.476012 
L 124.026632 132.353927 
L 124.375028 131.937925 
L 124.913459 130.851529 
L 125.73694 129.250121 
L 126.148681 128.881239 
L 126.560422 128.804035 
L 127.573938 128.757694 
L 127.985679 128.407991 
L 128.587455 127.550966 
L 129.474281 126.353585 
L 129.981039 126.031531 
L 130.836193 125.833704 
L 131.406296 125.54923 
L 132.039744 124.937834 
L 133.243294 123.72731 
L 133.940086 123.394741 
L 135.04862 122.905917 
L 135.935446 122.181491 
L 136.980635 121.403519 
L 138.184185 120.878089 
L 139.166029 120.304273 
L 140.812992 119.288071 
L 143.4418 117.980677 
L 144.835385 117.334428 
L 146.957434 116.375569 
L 148.794432 115.625927 
L 149.554569 115.326266 
L 149.586241 115.641018 
L 149.617914 115.59896 
L 150.726447 114.487057 
L 151.16986 114.364194 
L 151.771635 114.468657 
L 152.405083 114.518503 
L 152.880169 114.323791 
L 153.862012 113.564414 
L 154.463787 113.292012 
L 155.128907 113.263389 
L 155.984062 113.195727 
L 156.649182 112.882727 
L 157.852732 112.292458 
L 158.739559 112.190234 
L 159.626385 112.014993 
L 162.160175 111.230401 
L 163.300381 110.969293 
L 163.870484 110.886443 
L 164.345569 110.983993 
L 166.942704 111.112406 
L 181.543671 111.584875 
L 196.746412 111.847833 
L 209.320347 111.853188 
L 224.269709 111.604638 
L 225.663294 111.568129 
L 225.853328 109.028501 
L 226.106707 108.652707 
L 226.835172 107.906278 
L 228.798859 105.610526 
L 230.477495 104.082037 
L 232.599544 102.449377 
L 234.9433 100.925464 
L 237.350401 99.626053 
L 239.789174 98.555137 
L 242.417982 97.646514 
L 245.141806 96.940488 
L 248.087337 96.409606 
L 251.19123 96.071683 
L 254.833554 95.914064 
L 259.647755 95.965662 
L 260.882978 96.211583 
L 262.213218 96.718029 
L 266.774041 98.690462 
L 267.914246 98.793659 
L 268.737728 98.675372 
L 273.29855 98.604107 
L 276.497461 98.74391 
L 278.207769 99.115421 
L 282.736919 100.240856 
L 284.067159 100.274249 
L 284.637262 100.245821 
L 291.066755 100.237254 
L 293.157132 100.455039 
L 299.364918 101.281105 
L 308.961648 101.41974 
L 314.631004 101.901944 
L 325.621319 102.079132 
L 330.403848 102.336541 
L 402.87025 102.893807 
L 459.373772 102.956407 
L 498.077419 102.965169 
L 498.077419 102.965169 
" style="fill:none;stroke:#0000ff;stroke-linecap:square;stroke-width:1.5;"/>
   </g>
   <g id="line2d_34">
    <path clip-path="url(#pac70b6c6bd)" d="M 92.290909 102.970524 
L 92.322581 102.970524 
L 92.544288 125.431332 
L 92.734322 126.721688 
L 92.861012 126.579353 
L 93.36777 125.846263 
L 93.937873 125.542415 
L 95.078078 124.905707 
L 95.204768 124.82237 
L 95.458147 122.478427 
L 95.489819 122.626505 
L 97.041766 218.913828 
L 97.516851 232.566935 
L 97.801903 236.169984 
L 97.928592 236.454555 
L 97.960265 236.404514 
L 98.086954 235.765177 
L 98.276989 233.446352 
L 98.467023 232.202532 
L 98.56204 232.270486 
L 98.815419 232.552721 
L 98.847091 232.528285 
L 98.973781 232.217427 
L 99.195488 230.821342 
L 99.575556 226.56192 
L 100.335693 218.083186 
L 100.684089 216.441959 
L 100.874124 216.231767 
L 101.032485 216.366118 
L 101.064158 216.421611 
L 101.444226 228.535131 
L 101.507571 229.422239 
L 101.539244 229.211464 
L 101.697605 218.271181 
L 101.824295 229.722583 
L 101.950984 230.658076 
L 102.55276 236.19812 
L 102.584432 236.249913 
L 102.616104 236.23015 
L 102.711122 235.733537 
L 102.996173 231.934608 
L 103.21788 226.053819 
L 103.502931 211.357736 
L 103.946344 174.83658 
L 104.706481 112.73718 
L 105.149895 111.334183 
L 105.276584 111.006969 
L 105.434946 112.39069 
L 105.593308 112.681687 
L 105.75167 113.378075 
L 105.783342 113.313625 
L 105.846687 109.35182 
L 105.910032 110.230555 
L 106.95522 132.689124 
L 107.430306 137.171199 
L 107.778702 138.862078 
L 108.063753 137.777533 
L 108.41215 135.29145 
L 108.982252 130.544761 
L 109.013925 130.790877 
L 109.172287 134.480474 
L 109.48901 136.030284 
L 109.964096 137.167403 
L 110.502527 137.934568 
L 110.977612 138.264897 
L 111.389353 138.314743 
L 111.674405 137.959394 
L 112.181163 136.844862 
L 112.81461 135.610193 
L 113.131334 135.396984 
L 113.353041 135.48548 
L 114.14485 135.762263 
L 116.393589 136.734947 
L 117.248743 136.821399 
L 117.913863 136.585993 
L 118.80069 136.308528 
L 119.46581 136.36957 
L 120.54267 136.40491 
L 120.891067 135.983067 
L 121.366152 134.978937 
L 122.53803 132.290743 
L 122.949771 131.915825 
L 123.32984 131.848844 
L 123.931615 131.855465 
L 124.343356 131.710307 
L 124.755097 131.307934 
L 125.388544 130.302539 
L 126.212026 129.072349 
L 126.718784 128.68789 
L 127.415577 128.483053 
L 128.017352 128.22097 
L 128.587455 127.694177 
L 130.266091 125.912562 
L 131.152917 125.52051 
L 131.913054 125.073354 
L 132.894898 124.164438 
L 133.813397 123.436215 
L 135.111964 122.791037 
L 136.093808 122.121617 
L 137.550738 121.121284 
L 146.007263 116.825937 
L 149.522896 115.333178 
L 149.554569 117.464398 
L 149.617914 115.867078 
L 150.061327 115.315362 
L 151.043171 114.508086 
L 151.613273 114.334987 
L 153.291909 114.063558 
L 155.097235 113.190957 
L 156.775871 112.84067 
L 158.581197 112.148761 
L 160.35485 111.7349 
L 162.033486 111.209859 
L 164.598949 110.840004 
L 179.009881 111.349176 
L 192.0589 111.639394 
L 207.863417 111.723023 
L 220.088955 111.574652 
L 225.663294 111.447797 
L 225.758311 110.401804 
L 226.043362 108.049586 
L 226.423431 106.716977 
L 226.835172 106.050381 
L 227.373602 105.629316 
L 228.893876 104.886587 
L 231.015926 103.688135 
L 236.526919 100.4786 
L 239.250744 99.213069 
L 241.942896 98.214099 
L 244.698393 97.431649 
L 247.612252 96.837388 
L 250.747817 96.427811 
L 254.263451 96.204379 
L 259.869462 96.142461 
L 261.073012 96.36784 
L 262.403252 96.85793 
L 266.964075 98.761532 
L 268.040936 98.841461 
L 268.484349 98.725023 
L 269.719572 98.684913 
L 276.655823 98.834744 
L 278.429476 99.208298 
L 282.958626 100.290897 
L 284.225521 100.30959 
L 285.270709 100.259549 
L 291.985254 100.349019 
L 294.233992 100.653938 
L 298.509764 101.277406 
L 300.156727 101.262315 
L 304.210792 101.273219 
L 308.708269 101.410491 
L 315.074417 101.909733 
L 316.879743 101.88773 
L 324.734493 102.022374 
L 330.973951 102.336834 
L 332.905966 102.311618 
L 341.869249 102.421339 
L 346.93683 102.544202 
L 355.805096 102.599987 
L 363.089743 102.690917 
L 383.360065 102.801708 
L 396.757481 102.855449 
L 425.737707 102.922527 
L 474.576514 102.961567 
L 498.109091 102.965266 
L 498.109091 102.965266 
" style="fill:none;stroke:#000000;stroke-linecap:square;stroke-width:1.5;"/>
   </g>
   <g id="line2d_35">
    <path clip-path="url(#pac70b6c6bd)" d="M 92.290909 102.970524 
L 92.322581 102.970524 
L 92.354254 104.128573 
L 92.512616 86.917298 
L 92.924357 88.456789 
L 93.209408 88.862471 
L 93.431115 88.830441 
L 93.811183 88.433813 
L 94.539648 87.716202 
L 95.173096 87.385386 
L 95.23644 88.27522 
L 95.426475 97.218731 
L 95.743198 120.654073 
L 97.136783 300.07524 
L 97.580196 322.779243 
L 97.738558 324.634362 
L 97.770231 324.540705 
L 97.89692 322.833568 
L 98.150299 314.701324 
L 98.276989 309.349762 
L 98.308661 310.781674 
L 98.688729 329.95662 
L 99.068798 338.77756 
L 99.353849 341.278538 
L 99.448867 341.375797 
L 99.480539 341.330818 
L 99.607228 340.787572 
L 99.828935 338.622764 
L 100.272348 331.533105 
L 100.937468 321.712903 
L 101.159175 320.08365 
L 101.190847 320.122496 
L 101.317537 321.281519 
L 101.539244 324.858086 
L 101.697605 314.897496 
L 101.919312 340.386465 
L 102.172691 347.071026 
L 102.457742 348.751001 
L 102.521087 348.654034 
L 102.647777 347.008718 
L 102.742794 344.431899 
L 102.837811 348.728706 
L 102.869483 348.061915 
L 103.027845 339.074983 
L 103.344569 306.796504 
L 103.787982 236.071849 
L 104.643137 91.913998 
L 104.95986 95.031726 
L 105.244912 96.151417 
L 105.403274 100.387669 
L 105.719997 107.122173 
L 106.036721 118.124666 
L 106.796858 142.30887 
L 107.398633 155.740396 
L 107.905392 162.374915 
L 108.222115 164.657037 
L 108.348805 164.859148 
L 108.380477 164.84289 
L 108.507167 164.527067 
L 108.728873 163.150453 
L 109.203959 159.420063 
L 109.267304 159.495319 
L 109.520683 160.33005 
L 110.185803 162.445206 
L 110.629216 163.151621 
L 111.072629 163.414093 
L 111.262664 163.364442 
L 111.48437 162.964893 
L 111.801094 161.819402 
L 112.909627 157.254671 
L 113.131334 157.072518 
L 113.321368 157.265672 
L 113.828126 157.756249 
L 115.665124 159.691005 
L 116.393589 160.073906 
L 117.090381 160.201345 
L 117.502122 159.993977 
L 118.864034 159.05712 
L 119.275775 159.157397 
L 120.00424 159.490841 
L 120.415981 159.820975 
L 120.637688 159.710574 
L 120.891067 159.247646 
L 121.239463 158.052796 
L 122.696392 152.282895 
L 122.981444 152.042912 
L 123.266495 152.092369 
L 123.646564 152.328165 
L 124.058304 152.474102 
L 124.311683 152.346663 
L 124.596735 151.942052 
L 125.008476 150.908131 
L 126.338716 147.200133 
L 126.718784 146.826286 
L 127.162197 146.714716 
L 127.763973 146.562938 
L 128.144041 146.186754 
L 128.619127 145.3308 
L 130.076056 142.387923 
L 130.582814 141.972895 
L 131.691348 141.234547 
L 132.26145 140.421722 
L 133.750052 138.104551 
L 134.446844 137.553614 
L 135.365343 136.808062 
L 136.157153 135.795851 
L 137.297359 134.373188 
L 138.215857 133.637371 
L 139.229374 132.750653 
L 141.541457 130.472425 
L 143.093404 129.205532 
L 144.898729 127.649588 
L 149.554569 124.283894 
L 149.586241 124.382905 
L 149.744603 124.615099 
L 150.029655 124.288956 
L 151.233205 122.617743 
L 151.644946 122.507731 
L 153.006858 122.454575 
L 153.513616 121.951536 
L 154.622149 120.764961 
L 155.128907 120.585534 
L 156.459147 120.306901 
L 157.124267 119.758982 
L 158.074439 119.005544 
L 158.739559 118.786785 
L 159.848092 118.465997 
L 160.734918 117.87524 
L 161.68509 117.330728 
L 163.933829 116.583229 
L 168.526323 117.642073 
L 182.398825 120.811692 
L 192.438969 122.920131 
L 201.90901 124.699604 
L 211.189017 126.212906 
L 219.898921 127.412916 
L 225.631621 128.08623 
L 225.694966 119.639331 
L 225.758311 121.027433 
L 225.980017 123.721371 
L 226.075035 123.789617 
L 226.106707 123.747073 
L 226.296741 123.103452 
L 226.835172 120.064874 
L 228.00705 113.668488 
L 228.957221 109.710966 
L 229.939065 106.546604 
L 230.984253 103.916435 
L 232.092786 101.712976 
L 233.328009 99.755147 
L 234.658249 98.058329 
L 236.146851 96.51806 
L 237.793815 95.134242 
L 239.567468 93.927709 
L 241.531155 92.86205 
L 243.58986 91.995095 
L 245.838599 91.294813 
L 248.150682 90.804237 
L 250.684472 90.495034 
L 253.408297 90.387942 
L 256.353828 90.489679 
L 259.869462 90.848436 
L 260.724616 91.2548 
L 261.674788 91.972411 
L 262.91001 93.217205 
L 265.222094 95.577796 
L 266.140593 96.178872 
L 266.932402 96.445141 
L 267.69254 96.468603 
L 267.945919 96.428201 
L 268.009263 96.110625 
L 268.072608 96.149957 
L 268.325987 96.211876 
L 269.022779 96.026704 
L 270.669743 95.637767 
L 272.475069 95.460774 
L 275.198893 95.445684 
L 276.339099 95.678267 
L 277.510977 96.157064 
L 279.094596 97.079318 
L 281.248317 98.302693 
L 282.356851 98.674885 
L 283.370367 98.788207 
L 284.003814 98.744495 
L 284.067159 98.580547 
L 284.130504 98.607612 
L 284.510572 98.619489 
L 288.34293 98.235907 
L 291.225117 98.284974 
L 292.618701 98.572856 
L 294.392354 99.188925 
L 297.052834 100.100274 
L 298.383074 100.301606 
L 299.491607 100.284374 
L 299.618297 100.205613 
L 300.156727 100.197922 
L 303.450655 99.984226 
L 306.776254 100.021903 
L 308.58158 100.298588 
L 313.839195 101.284999 
L 315.391141 101.228728 
L 320.902135 101.06809 
L 323.309236 101.199618 
L 328.313471 101.849567 
L 330.118797 102.000858 
L 331.797433 101.916937 
L 335.503101 101.810819 
L 340.000579 101.892501 
L 346.588434 102.28874 
L 354.12646 102.260117 
L 362.297933 102.500586 
L 368.632409 102.514216 
L 376.962244 102.659861 
L 384.183547 102.704255 
L 390.613039 102.771139 
L 398.626151 102.800248 
L 406.639263 102.835004 
L 425.64269 102.887674 
L 450.94892 102.932263 
L 479.960818 102.954168 
L 497.982401 102.961567 
L 497.982401 102.961567 
" style="fill:none;stroke:#bfbf00;stroke-linecap:square;stroke-width:1.5;"/>
   </g>
   <g id="line2d_36">
    <path clip-path="url(#pac70b6c6bd)" d="M 92.290909 102.970524 
L 92.322581 102.970524 
L 92.512616 130.975269 
L 92.734322 135.364954 
L 92.956029 136.299571 
L 93.146063 136.392546 
L 93.36777 136.203481 
L 95.173096 133.874336 
L 95.394802 132.183165 
L 95.489819 132.367362 
L 95.584836 133.215333 
L 95.774871 137.285203 
L 96.123267 170.016485 
L 96.915076 243.645756 
L 97.35849 267.222361 
L 97.548524 270.270675 
L 97.580196 270.29735 
L 97.611869 270.204473 
L 97.738558 268.773437 
L 97.991937 262.241531 
L 98.245316 253.637208 
L 98.43535 273.798953 
L 98.815419 284.334138 
L 99.195488 289.753947 
L 99.448867 291.081006 
L 99.543884 291.1328 
L 99.575556 291.100088 
L 99.733918 290.594713 
L 100.018969 288.542059 
L 101.127503 278.848809 
L 101.159175 278.907417 
L 101.317537 279.971519 
L 101.475899 281.728113 
L 101.507571 281.043311 
L 101.665933 260.759091 
L 101.792623 280.680075 
L 102.172691 284.276601 
L 102.616104 287.604716 
L 102.679449 287.435511 
L 102.742794 286.973167 
L 102.837811 288.666285 
L 102.869483 288.5332 
L 102.996173 284.950694 
L 103.281224 266.871101 
L 103.724638 222.904353 
L 104.738154 115.023488 
L 104.95986 112.201625 
L 105.181567 111.62041 
L 105.244912 111.583609 
L 105.434946 113.381482 
L 105.75167 115.899011 
L 106.005049 119.928868 
L 107.778702 146.460033 
L 108.190443 149.630431 
L 108.41215 150.14963 
L 108.538839 150.070772 
L 108.728873 149.530836 
L 109.140614 147.8531 
L 109.203959 147.921541 
L 109.457338 148.57441 
L 110.28082 150.765894 
L 110.787578 151.524589 
L 111.294336 151.885001 
L 111.516043 151.765935 
L 111.801094 151.285872 
L 112.339524 149.793599 
L 112.877955 148.527387 
L 113.163006 148.288086 
L 113.954816 148.574702 
L 116.67864 150.029882 
L 117.248743 150.093943 
L 117.787174 149.898549 
L 118.864034 149.446331 
L 119.434137 149.506302 
L 120.13093 149.747453 
L 120.510998 149.884627 
L 120.764377 149.749302 
L 121.049428 149.322786 
L 121.461169 148.254888 
L 122.696392 144.785023 
L 123.076461 144.39628 
L 123.456529 144.316546 
L 124.311683 144.140429 
L 124.691752 143.712257 
L 125.19851 142.731395 
L 126.370388 140.328747 
L 126.877146 139.848976 
L 128.39742 138.816029 
L 129.094213 137.694001 
L 130.012712 136.292367 
L 130.646159 135.738801 
L 131.976399 134.741291 
L 132.894898 133.559779 
L 133.813397 132.509015 
L 134.763568 131.812238 
L 135.71374 131.028036 
L 138.057496 128.836455 
L 139.57777 127.672953 
L 141.44644 126.149429 
L 144.075247 124.272211 
L 145.722211 123.217846 
L 149.554569 120.879257 
L 149.586241 121.092759 
L 149.681258 121.077571 
L 149.807948 121.039018 
L 150.188016 120.675004 
L 151.264877 119.599902 
L 151.771635 119.440141 
L 153.101875 119.195485 
L 153.766995 118.675409 
L 154.717167 117.960135 
L 155.382286 117.758218 
L 156.49082 117.467319 
L 157.345974 116.931569 
L 158.327818 116.393385 
L 161.526728 115.125907 
L 162.761951 114.758583 
L 164.503931 114.381134 
L 170.014925 114.728889 
L 182.398825 115.45536 
L 194.149277 115.922474 
L 205.10792 116.114655 
L 215.338098 116.067047 
L 225.631621 115.803797 
L 225.726638 111.79273 
L 225.789983 111.885218 
L 226.423431 112.801922 
L 226.645137 112.645081 
L 227.025206 112.006134 
L 228.102067 109.526574 
L 229.432307 106.737811 
L 230.730874 104.527733 
L 232.124459 102.592004 
L 233.676405 100.821779 
L 235.355041 99.240134 
L 237.192039 97.807735 
L 239.187399 96.530132 
L 241.277776 95.447339 
L 243.46317 94.552735 
L 245.806926 93.825972 
L 248.372389 93.268998 
L 251.096213 92.911118 
L 254.010072 92.75233 
L 257.303999 92.801884 
L 259.964479 93.035344 
L 261.04134 93.447647 
L 262.24489 94.166913 
L 266.267283 96.82259 
L 267.249126 97.065785 
L 267.945919 97.091292 
L 268.10428 96.945064 
L 269.497865 96.908847 
L 272.570086 96.736722 
L 275.578962 96.807792 
L 276.972546 97.104435 
L 278.556165 97.682243 
L 281.94511 98.991779 
L 283.243677 99.201581 
L 284.035487 99.150274 
L 284.35221 99.147256 
L 286.062519 99.096047 
L 290.116583 99.032668 
L 292.048598 99.20752 
L 294.012286 99.633355 
L 297.749626 100.498947 
L 299.364918 100.594161 
L 307.758098 100.624244 
L 310.545267 101.052611 
L 313.332437 101.421103 
L 315.169434 101.440185 
L 319.793602 101.400171 
L 323.625959 101.522645 
L 331.385692 102.056838 
L 341.045767 102.137643 
L 346.208365 102.382493 
L 347.000175 102.36828 
L 355.361682 102.426498 
L 361.411107 102.576621 
L 371.071182 102.657816 
L 376.930572 102.708831 
L 385.387097 102.767634 
L 392.988468 102.79723 
L 427.067947 102.908313 
L 450.125438 102.93898 
L 498.077419 102.963027 
L 498.077419 102.963027 
" style="fill:none;stroke:#bf00bf;stroke-linecap:square;stroke-width:1.5;"/>
   </g>
   <g id="line2d_37">
    <path clip-path="url(#pac70b6c6bd)" d="M 92.290909 102.970524 
L 92.322581 102.970524 
L 92.354254 102.970524 
L 92.417599 93.408023 
L 92.480943 94.896985 
L 92.70265 100.751683 
L 92.765995 100.979009 
L 92.82934 100.889734 
L 93.019374 99.664119 
L 93.652821 95.195771 
L 94.064562 93.871437 
L 94.476303 93.238721 
L 95.014734 92.833914 
L 95.23644 92.68642 
L 95.394802 91.858602 
L 95.426475 91.915166 
L 95.489819 93.216718 
L 95.711526 106.348193 
L 96.123267 160.426919 
L 96.883404 255.859553 
L 97.35849 290.114748 
L 97.675213 302.081845 
L 97.801903 303.229185 
L 97.833575 303.212732 
L 97.928592 302.506706 
L 98.118627 298.638558 
L 98.276989 293.745056 
L 98.308661 294.644431 
L 98.847091 309.864094 
L 99.195488 314.493956 
L 99.353849 314.991348 
L 99.385522 314.975284 
L 99.512211 314.554414 
L 99.733918 312.626765 
L 100.177331 306.044818 
L 100.842451 296.754427 
L 101.09583 294.913036 
L 101.127503 295.039696 
L 101.475899 301.939705 
L 101.507571 296.276993 
L 101.570916 248.854302 
L 101.634261 252.789626 
L 101.665933 246.168055 
L 101.697605 349.604131 
L 101.792623 329.447545 
L 102.014329 321.60367 
L 102.109346 321.175303 
L 102.141019 321.209281 
L 102.299381 321.928839 
L 102.679449 323.83283 
L 102.711122 323.753972 
L 102.774466 323.340306 
L 102.869483 323.512529 
L 102.932828 323.541151 
L 103.027845 322.876405 
L 103.186207 319.052358 
L 103.407914 306.784529 
L 103.724638 274.342881 
L 104.263068 189.965216 
L 104.801498 113.802644 
L 105.054878 105.211756 
L 105.276584 102.806187 
L 105.308257 102.821666 
L 105.62498 106.413324 
L 105.783342 109.07309 
L 105.973376 114.444318 
L 107.430306 150.296833 
L 107.968736 156.617866 
L 108.222115 157.74038 
L 108.317132 157.734441 
L 108.443822 157.395643 
L 108.697201 155.801633 
L 109.045597 152.617215 
L 109.108942 152.970423 
L 110.059113 156.972144 
L 110.565871 158.193475 
L 110.977612 158.693593 
L 111.421026 158.907971 
L 111.61106 158.714427 
L 111.896111 158.001392 
L 112.466214 155.70564 
L 113.004644 153.951674 
L 113.258023 153.68268 
L 113.574747 153.819465 
L 114.303212 154.444393 
L 115.791814 155.731731 
L 116.583623 156.113561 
L 117.312088 156.245868 
L 117.755501 156.045412 
L 119.022396 155.303073 
L 119.46581 155.387286 
L 120.067585 155.658325 
L 120.606015 155.998973 
L 120.827722 155.865888 
L 121.081101 155.425157 
L 121.461169 154.225829 
L 122.823082 149.325122 
L 123.139805 148.999369 
L 123.424857 148.990412 
L 124.311683 149.15952 
L 124.596735 148.927228 
L 124.945131 148.325958 
L 125.515234 146.7963 
L 126.338716 144.702075 
L 126.782129 144.132251 
L 127.225542 143.921378 
L 128.017352 143.633885 
L 128.429093 143.173976 
L 128.999195 142.127885 
L 130.076056 140.096552 
L 130.614487 139.566157 
L 132.134761 138.400806 
L 132.989915 137.084553 
L 133.813397 135.969534 
L 134.541862 135.373326 
L 135.58705 134.546871 
L 136.505549 133.439544 
L 137.550738 132.285973 
L 138.880977 131.278825 
L 139.894494 130.30877 
L 141.288078 129.005173 
L 148.572725 123.611845 
L 149.522896 123.028975 
L 149.586241 123.648646 
L 149.617914 123.265939 
L 149.712931 123.428135 
L 149.744603 123.370402 
L 150.029655 123.13003 
L 151.613273 121.319793 
L 152.120032 121.312394 
L 152.848496 121.309473 
L 153.291909 121.064136 
L 153.957029 120.384104 
L 154.748839 119.664644 
L 155.287269 119.471684 
L 156.649182 119.143594 
L 157.440991 118.531907 
L 158.296145 117.959453 
L 159.087955 117.736898 
L 160.038126 117.434218 
L 161.146659 116.752434 
L 162.033486 116.350743 
L 164.345569 115.752198 
L 167.861203 116.42561 
L 185.724425 119.881942 
L 196.366344 121.699676 
L 205.994747 123.126428 
L 214.704651 124.219444 
L 224.396399 125.210236 
L 225.663294 125.322585 
L 225.948345 119.47295 
L 226.328414 116.188937 
L 226.835172 113.833603 
L 227.595309 111.468534 
L 228.735514 108.673249 
L 230.034082 106.056319 
L 231.427667 103.749761 
L 232.916268 101.714242 
L 234.53156 99.874603 
L 236.305213 98.1883 
L 238.205555 96.685999 
L 240.200915 95.386589 
L 242.291292 94.284811 
L 244.540031 93.356229 
L 246.915459 92.626936 
L 249.417577 92.101213 
L 252.109729 91.774097 
L 254.991916 91.655128 
L 260.312875 91.748687 
L 261.16803 92.111241 
L 262.149873 92.785431 
L 263.480113 94.000045 
L 265.57049 95.901018 
L 266.552334 96.485446 
L 267.407488 96.738572 
L 268.009263 96.728641 
L 268.421004 96.4724 
L 269.276158 96.282459 
L 271.334863 96.095632 
L 275.673979 95.991364 
L 276.845857 96.21762 
L 278.08108 96.694469 
L 279.94975 97.694997 
L 281.755075 98.576458 
L 282.926953 98.905229 
L 284.003814 98.981459 
L 284.320538 98.856746 
L 285.302382 98.721713 
L 288.089551 98.609754 
L 292.048598 98.671185 
L 293.568873 99.022543 
L 298.604781 100.412397 
L 299.649969 100.396821 
L 300.410106 100.303359 
L 303.513999 100.213597 
L 307.853115 100.298004 
L 309.943492 100.671267 
L 313.427454 101.309046 
L 315.011073 101.354901 
L 315.866227 101.284318 
L 319.761929 101.227267 
L 323.879338 101.33689 
L 325.874698 101.587971 
L 325.906371 101.150064 
L 325.969715 101.351591 
L 326.191422 101.495191 
L 328.313471 101.858426 
L 330.340504 102.039216 
L 331.670743 101.962208 
L 335.914842 101.903113 
L 340.95075 102.012346 
L 346.335055 102.336249 
L 348.013691 102.292342 
L 354.728235 102.319796 
L 362.171244 102.529112 
L 369.740942 102.569612 
L 375.885383 102.685368 
L 385.228735 102.739011 
L 391.404849 102.780095 
L 402.838577 102.855936 
L 469.952347 102.95115 
L 497.982401 102.961859 
L 497.982401 102.961859 
" style="fill:none;stroke:#00bfbf;stroke-linecap:square;stroke-width:1.5;"/>
   </g>
   <g id="patch_3">
    <path d="M 72 384.48 
L 72 51.84 
" style="fill:none;stroke:#000000;stroke-linecap:square;stroke-linejoin:miter;stroke-width:0.8;"/>
   </g>
   <g id="patch_4">
    <path d="M 518.4 384.48 
L 518.4 51.84 
" style="fill:none;stroke:#000000;stroke-linecap:square;stroke-linejoin:miter;stroke-width:0.8;"/>
   </g>
   <g id="patch_5">
    <path d="M 72 384.48 
L 518.4 384.48 
" style="fill:none;stroke:#000000;stroke-linecap:square;stroke-linejoin:miter;stroke-width:0.8;"/>
   </g>
   <g id="patch_6">
    <path d="M 72 51.84 
L 518.4 51.84 
" style="fill:none;stroke:#000000;stroke-linecap:square;stroke-linejoin:miter;stroke-width:0.8;"/>
   </g>
   <g id="text_17">
    <!-- $\partial\mathcal{L} / \partial u_{m}$ -->
    <g transform="translate(271.33 45.84)scale(0.14 -0.14)">
     <use transform="translate(0 0.09375)" xlink:href="#DejaVuSans-2202"/>
     <use transform="translate(51.708984 0.09375)" xlink:href="#STIXNonUnicode-Italic-e238"/>
     <use transform="translate(121.008972 0.09375)" xlink:href="#DejaVuSans-2f"/>
     <use transform="translate(154.700378 0.09375)" xlink:href="#DejaVuSans-2202"/>
     <use transform="translate(206.409363 0.09375)" xlink:href="#DejaVuSans-Oblique-75"/>
     <use transform="translate(269.788269 -16.3125)scale(0.7)" xlink:href="#DejaVuSans-Oblique-6d"/>
    </g>
   </g>
   <g id="legend_1">
    <g id="patch_7">
     <path d="M 447.6 379.48 
L 511.4 379.48 
Q 513.4 379.48 513.4 377.48 
L 513.4 246.376875 
Q 513.4 244.376875 511.4 244.376875 
L 447.6 244.376875 
Q 445.6 244.376875 445.6 246.376875 
L 445.6 377.48 
Q 445.6 379.48 447.6 379.48 
z
" style="fill:#ffffff;opacity:0.8;stroke:#cccccc;stroke-linejoin:miter;"/>
    </g>
    <g id="line2d_38">
     <path d="M 449.6 252.475313 
L 469.6 252.475313 
" style="fill:none;stroke:#bf00bf;stroke-linecap:square;stroke-width:1.5;"/>
    </g>
    <g id="line2d_39"/>
    <g id="text_18">
     <!-- $\partial\mathcal{L} / \partial u_{1}$ -->
     <g transform="translate(477.6 255.975313)scale(0.1 -0.1)">
      <use transform="translate(0 0.09375)" xlink:href="#DejaVuSans-2202"/>
      <use transform="translate(51.708984 0.09375)" xlink:href="#STIXNonUnicode-Italic-e238"/>
      <use transform="translate(121.008972 0.09375)" xlink:href="#DejaVuSans-2f"/>
      <use transform="translate(154.700378 0.09375)" xlink:href="#DejaVuSans-2202"/>
      <use transform="translate(206.409363 0.09375)" xlink:href="#DejaVuSans-Oblique-75"/>
      <use transform="translate(269.788269 -16.3125)scale(0.7)" xlink:href="#DejaVuSans-31"/>
     </g>
    </g>
    <g id="line2d_40">
     <path d="M 449.6 267.153438 
L 469.6 267.153438 
" style="fill:none;stroke:#00bfbf;stroke-linecap:square;stroke-width:1.5;"/>
    </g>
    <g id="line2d_41"/>
    <g id="text_19">
     <!-- $\partial\mathcal{L} / \partial u_{2}$ -->
     <g transform="translate(477.6 270.653438)scale(0.1 -0.1)">
      <use transform="translate(0 0.09375)" xlink:href="#DejaVuSans-2202"/>
      <use transform="translate(51.708984 0.09375)" xlink:href="#STIXNonUnicode-Italic-e238"/>
      <use transform="translate(121.008972 0.09375)" xlink:href="#DejaVuSans-2f"/>
      <use transform="translate(154.700378 0.09375)" xlink:href="#DejaVuSans-2202"/>
      <use transform="translate(206.409363 0.09375)" xlink:href="#DejaVuSans-Oblique-75"/>
      <use transform="translate(269.788269 -16.3125)scale(0.7)" xlink:href="#DejaVuSans-32"/>
     </g>
    </g>
    <g id="line2d_42">
     <path d="M 449.6 281.831563 
L 469.6 281.831563 
" style="fill:none;stroke:#ff0000;stroke-linecap:square;stroke-width:1.5;"/>
    </g>
    <g id="line2d_43"/>
    <g id="text_20">
     <!-- $\partial\mathcal{L} / \partial u_{3}$ -->
     <defs>
      <path d="M 40.578125 39.3125 
Q 47.65625 37.796875 51.625 33 
Q 55.609375 28.21875 55.609375 21.1875 
Q 55.609375 10.40625 48.1875 4.484375 
Q 40.765625 -1.421875 27.09375 -1.421875 
Q 22.515625 -1.421875 17.65625 -0.515625 
Q 12.796875 0.390625 7.625 2.203125 
L 7.625 11.71875 
Q 11.71875 9.328125 16.59375 8.109375 
Q 21.484375 6.890625 26.8125 6.890625 
Q 36.078125 6.890625 40.9375 10.546875 
Q 45.796875 14.203125 45.796875 21.1875 
Q 45.796875 27.640625 41.28125 31.265625 
Q 36.765625 34.90625 28.71875 34.90625 
L 20.21875 34.90625 
L 20.21875 43.015625 
L 29.109375 43.015625 
Q 36.375 43.015625 40.234375 45.921875 
Q 44.09375 48.828125 44.09375 54.296875 
Q 44.09375 59.90625 40.109375 62.90625 
Q 36.140625 65.921875 28.71875 65.921875 
Q 24.65625 65.921875 20.015625 65.03125 
Q 15.375 64.15625 9.8125 62.3125 
L 9.8125 71.09375 
Q 15.4375 72.65625 20.34375 73.4375 
Q 25.25 74.21875 29.59375 74.21875 
Q 40.828125 74.21875 47.359375 69.109375 
Q 53.90625 64.015625 53.90625 55.328125 
Q 53.90625 49.265625 50.4375 45.09375 
Q 46.96875 40.921875 40.578125 39.3125 
z
" id="DejaVuSans-33"/>
     </defs>
     <g transform="translate(477.6 285.331563)scale(0.1 -0.1)">
      <use transform="translate(0 0.09375)" xlink:href="#DejaVuSans-2202"/>
      <use transform="translate(51.708984 0.09375)" xlink:href="#STIXNonUnicode-Italic-e238"/>
      <use transform="translate(121.008972 0.09375)" xlink:href="#DejaVuSans-2f"/>
      <use transform="translate(154.700378 0.09375)" xlink:href="#DejaVuSans-2202"/>
      <use transform="translate(206.409363 0.09375)" xlink:href="#DejaVuSans-Oblique-75"/>
      <use transform="translate(269.788269 -16.3125)scale(0.7)" xlink:href="#DejaVuSans-33"/>
     </g>
    </g>
    <g id="line2d_44">
     <path d="M 449.6 296.509688 
L 469.6 296.509688 
" style="fill:none;stroke:#008000;stroke-linecap:square;stroke-width:1.5;"/>
    </g>
    <g id="line2d_45"/>
    <g id="text_21">
     <!-- $\partial\mathcal{L} / \partial u_{4}$ -->
     <g transform="translate(477.6 300.009688)scale(0.1 -0.1)">
      <use transform="translate(0 0.09375)" xlink:href="#DejaVuSans-2202"/>
      <use transform="translate(51.708984 0.09375)" xlink:href="#STIXNonUnicode-Italic-e238"/>
      <use transform="translate(121.008972 0.09375)" xlink:href="#DejaVuSans-2f"/>
      <use transform="translate(154.700378 0.09375)" xlink:href="#DejaVuSans-2202"/>
      <use transform="translate(206.409363 0.09375)" xlink:href="#DejaVuSans-Oblique-75"/>
      <use transform="translate(269.788269 -16.3125)scale(0.7)" xlink:href="#DejaVuSans-34"/>
     </g>
    </g>
    <g id="line2d_46">
     <path d="M 449.6 311.187813 
L 469.6 311.187813 
" style="fill:none;stroke:#0000ff;stroke-linecap:square;stroke-width:1.5;"/>
    </g>
    <g id="line2d_47"/>
    <g id="text_22">
     <!-- $\partial\mathcal{L} / \partial u_{5}$ -->
     <g transform="translate(477.6 314.687813)scale(0.1 -0.1)">
      <use transform="translate(0 0.09375)" xlink:href="#DejaVuSans-2202"/>
      <use transform="translate(51.708984 0.09375)" xlink:href="#STIXNonUnicode-Italic-e238"/>
      <use transform="translate(121.008972 0.09375)" xlink:href="#DejaVuSans-2f"/>
      <use transform="translate(154.700378 0.09375)" xlink:href="#DejaVuSans-2202"/>
      <use transform="translate(206.409363 0.09375)" xlink:href="#DejaVuSans-Oblique-75"/>
      <use transform="translate(269.788269 -16.3125)scale(0.7)" xlink:href="#DejaVuSans-35"/>
     </g>
    </g>
    <g id="line2d_48">
     <path d="M 449.6 325.865938 
L 469.6 325.865938 
" style="fill:none;stroke:#000000;stroke-linecap:square;stroke-width:1.5;"/>
    </g>
    <g id="line2d_49"/>
    <g id="text_23">
     <!-- $\partial\mathcal{L} / \partial u_{6}$ -->
     <g transform="translate(477.6 329.365938)scale(0.1 -0.1)">
      <use transform="translate(0 0.09375)" xlink:href="#DejaVuSans-2202"/>
      <use transform="translate(51.708984 0.09375)" xlink:href="#STIXNonUnicode-Italic-e238"/>
      <use transform="translate(121.008972 0.09375)" xlink:href="#DejaVuSans-2f"/>
      <use transform="translate(154.700378 0.09375)" xlink:href="#DejaVuSans-2202"/>
      <use transform="translate(206.409363 0.09375)" xlink:href="#DejaVuSans-Oblique-75"/>
      <use transform="translate(269.788269 -16.3125)scale(0.7)" xlink:href="#DejaVuSans-36"/>
     </g>
    </g>
    <g id="line2d_50">
     <path d="M 449.6 340.544062 
L 469.6 340.544062 
" style="fill:none;stroke:#bfbf00;stroke-linecap:square;stroke-width:1.5;"/>
    </g>
    <g id="line2d_51"/>
    <g id="text_24">
     <!-- $\partial\mathcal{L} / \partial u_{7}$ -->
     <defs>
      <path d="M 8.203125 72.90625 
L 55.078125 72.90625 
L 55.078125 68.703125 
L 28.609375 0 
L 18.3125 0 
L 43.21875 64.59375 
L 8.203125 64.59375 
z
" id="DejaVuSans-37"/>
     </defs>
     <g transform="translate(477.6 344.044062)scale(0.1 -0.1)">
      <use transform="translate(0 0.09375)" xlink:href="#DejaVuSans-2202"/>
      <use transform="translate(51.708984 0.09375)" xlink:href="#STIXNonUnicode-Italic-e238"/>
      <use transform="translate(121.008972 0.09375)" xlink:href="#DejaVuSans-2f"/>
      <use transform="translate(154.700378 0.09375)" xlink:href="#DejaVuSans-2202"/>
      <use transform="translate(206.409363 0.09375)" xlink:href="#DejaVuSans-Oblique-75"/>
      <use transform="translate(269.788269 -16.3125)scale(0.7)" xlink:href="#DejaVuSans-37"/>
     </g>
    </g>
    <g id="line2d_52">
     <path d="M 449.6 355.222188 
L 469.6 355.222188 
" style="fill:none;stroke:#bf00bf;stroke-linecap:square;stroke-width:1.5;"/>
    </g>
    <g id="line2d_53"/>
    <g id="text_25">
     <!-- $\partial\mathcal{L} / \partial u_{8}$ -->
     <g transform="translate(477.6 358.722188)scale(0.1 -0.1)">
      <use transform="translate(0 0.09375)" xlink:href="#DejaVuSans-2202"/>
      <use transform="translate(51.708984 0.09375)" xlink:href="#STIXNonUnicode-Italic-e238"/>
      <use transform="translate(121.008972 0.09375)" xlink:href="#DejaVuSans-2f"/>
      <use transform="translate(154.700378 0.09375)" xlink:href="#DejaVuSans-2202"/>
      <use transform="translate(206.409363 0.09375)" xlink:href="#DejaVuSans-Oblique-75"/>
      <use transform="translate(269.788269 -16.3125)scale(0.7)" xlink:href="#DejaVuSans-38"/>
     </g>
    </g>
    <g id="line2d_54">
     <path d="M 449.6 369.900313 
L 469.6 369.900313 
" style="fill:none;stroke:#00bfbf;stroke-linecap:square;stroke-width:1.5;"/>
    </g>
    <g id="line2d_55"/>
    <g id="text_26">
     <!-- $\partial\mathcal{L} / \partial u_{9}$ -->
     <defs>
      <path d="M 10.984375 1.515625 
L 10.984375 10.5 
Q 14.703125 8.734375 18.5 7.8125 
Q 22.3125 6.890625 25.984375 6.890625 
Q 35.75 6.890625 40.890625 13.453125 
Q 46.046875 20.015625 46.78125 33.40625 
Q 43.953125 29.203125 39.59375 26.953125 
Q 35.25 24.703125 29.984375 24.703125 
Q 19.046875 24.703125 12.671875 31.3125 
Q 6.296875 37.9375 6.296875 49.421875 
Q 6.296875 60.640625 12.9375 67.421875 
Q 19.578125 74.21875 30.609375 74.21875 
Q 43.265625 74.21875 49.921875 64.515625 
Q 56.59375 54.828125 56.59375 36.375 
Q 56.59375 19.140625 48.40625 8.859375 
Q 40.234375 -1.421875 26.421875 -1.421875 
Q 22.703125 -1.421875 18.890625 -0.6875 
Q 15.09375 0.046875 10.984375 1.515625 
z
M 30.609375 32.421875 
Q 37.25 32.421875 41.125 36.953125 
Q 45.015625 41.5 45.015625 49.421875 
Q 45.015625 57.28125 41.125 61.84375 
Q 37.25 66.40625 30.609375 66.40625 
Q 23.96875 66.40625 20.09375 61.84375 
Q 16.21875 57.28125 16.21875 49.421875 
Q 16.21875 41.5 20.09375 36.953125 
Q 23.96875 32.421875 30.609375 32.421875 
z
" id="DejaVuSans-39"/>
     </defs>
     <g transform="translate(477.6 373.400313)scale(0.1 -0.1)">
      <use transform="translate(0 0.09375)" xlink:href="#DejaVuSans-2202"/>
      <use transform="translate(51.708984 0.09375)" xlink:href="#STIXNonUnicode-Italic-e238"/>
      <use transform="translate(121.008972 0.09375)" xlink:href="#DejaVuSans-2f"/>
      <use transform="translate(154.700378 0.09375)" xlink:href="#DejaVuSans-2202"/>
      <use transform="translate(206.409363 0.09375)" xlink:href="#DejaVuSans-Oblique-75"/>
      <use transform="translate(269.788269 -16.3125)scale(0.7)" xlink:href="#DejaVuSans-39"/>
     </g>
    </g>
   </g>
  </g>
 </g>
 <defs>
  <clipPath id="pac70b6c6bd">
   <rect height="332.64" width="446.4" x="72" y="51.84"/>
  </clipPath>
 </defs>
</svg>
