<?xml version="1.0" encoding="utf-8" standalone="no"?>
<!DOCTYPE svg PUBLIC "-//W3C//DTD SVG 1.1//EN"
  "http://www.w3.org/Graphics/SVG/1.1/DTD/svg11.dtd">
<!-- Created with matplotlib (http://matplotlib.org/) -->
<svg height="432pt" version="1.1" viewBox="0 0 576 432" width="576pt" xmlns="http://www.w3.org/2000/svg" xmlns:xlink="http://www.w3.org/1999/xlink">
 <defs>
  <style type="text/css">
*{stroke-linecap:butt;stroke-linejoin:round;}
  </style>
 </defs>
 <g id="figure_1">
  <g id="patch_1">
   <path d="M 0 432 
L 576 432 
L 576 0 
L 0 0 
z
" style="fill:#ffffff;"/>
  </g>
  <g id="axes_1">
   <g id="patch_2">
    <path d="M 72 384.48 
L 518.4 384.48 
L 518.4 51.84 
L 72 51.84 
z
" style="fill:#ffffff;"/>
   </g>
   <g id="matplotlib.axis_1">
    <g id="xtick_1">
     <g id="line2d_1">
      <path clip-path="url(#p1852b2059b)" d="M 92.290909 384.48 
L 92.290909 51.84 
" style="fill:none;stroke:#b0b0b0;stroke-dasharray:5.12,1.28,0.8,1.28;stroke-dashoffset:0;stroke-width:0.8;"/>
     </g>
     <g id="line2d_2">
      <defs>
       <path d="M 0 0 
L 0 3.5 
" id="ma256e333da" style="stroke:#000000;stroke-width:0.8;"/>
      </defs>
      <g>
       <use style="stroke:#000000;stroke-width:0.8;" x="92.290909" xlink:href="#ma256e333da" y="384.48"/>
      </g>
     </g>
     <g id="text_1">
      <text style="font-family:DejaVu Sans;font-size:10px;font-style:normal;font-weight:400;text-anchor:middle;" transform="rotate(-0, 92.290909, 399.078438)" x="92.290909" y="399.078438">0</text>
     </g>
    </g>
    <g id="xtick_2">
     <g id="line2d_3">
      <path clip-path="url(#p1852b2059b)" d="M 187.1304 384.48 
L 187.1304 51.84 
" style="fill:none;stroke:#b0b0b0;stroke-dasharray:5.12,1.28,0.8,1.28;stroke-dashoffset:0;stroke-width:0.8;"/>
     </g>
     <g id="line2d_4">
      <g>
       <use style="stroke:#000000;stroke-width:0.8;" x="187.1304" xlink:href="#ma256e333da" y="384.48"/>
      </g>
     </g>
     <g id="text_2">
      <text style="font-family:DejaVu Sans;font-size:10px;font-style:normal;font-weight:400;text-anchor:middle;" transform="rotate(-0, 187.1304, 399.078438)" x="187.1304" y="399.078438">1000</text>
     </g>
    </g>
    <g id="xtick_3">
     <g id="line2d_5">
      <path clip-path="url(#p1852b2059b)" d="M 281.969891 384.48 
L 281.969891 51.84 
" style="fill:none;stroke:#b0b0b0;stroke-dasharray:5.12,1.28,0.8,1.28;stroke-dashoffset:0;stroke-width:0.8;"/>
     </g>
     <g id="line2d_6">
      <g>
       <use style="stroke:#000000;stroke-width:0.8;" x="281.969891" xlink:href="#ma256e333da" y="384.48"/>
      </g>
     </g>
     <g id="text_3">
      <text style="font-family:DejaVu Sans;font-size:10px;font-style:normal;font-weight:400;text-anchor:middle;" transform="rotate(-0, 281.969891, 399.078438)" x="281.969891" y="399.078438">2000</text>
     </g>
    </g>
    <g id="xtick_4">
     <g id="line2d_7">
      <path clip-path="url(#p1852b2059b)" d="M 376.809382 384.48 
L 376.809382 51.84 
" style="fill:none;stroke:#b0b0b0;stroke-dasharray:5.12,1.28,0.8,1.28;stroke-dashoffset:0;stroke-width:0.8;"/>
     </g>
     <g id="line2d_8">
      <g>
       <use style="stroke:#000000;stroke-width:0.8;" x="376.809382" xlink:href="#ma256e333da" y="384.48"/>
      </g>
     </g>
     <g id="text_4">
      <text style="font-family:DejaVu Sans;font-size:10px;font-style:normal;font-weight:400;text-anchor:middle;" transform="rotate(-0, 376.809382, 399.078438)" x="376.809382" y="399.078438">3000</text>
     </g>
    </g>
    <g id="xtick_5">
     <g id="line2d_9">
      <path clip-path="url(#p1852b2059b)" d="M 471.648873 384.48 
L 471.648873 51.84 
" style="fill:none;stroke:#b0b0b0;stroke-dasharray:5.12,1.28,0.8,1.28;stroke-dashoffset:0;stroke-width:0.8;"/>
     </g>
     <g id="line2d_10">
      <g>
       <use style="stroke:#000000;stroke-width:0.8;" x="471.648873" xlink:href="#ma256e333da" y="384.48"/>
      </g>
     </g>
     <g id="text_5">
      <text style="font-family:DejaVu Sans;font-size:10px;font-style:normal;font-weight:400;text-anchor:middle;" transform="rotate(-0, 471.648873, 399.078438)" x="471.648873" y="399.078438">4000</text>
     </g>
    </g>
    <g id="text_6">
     <text style="font-family:DejaVu Sans;font-size:14px;font-style:normal;font-weight:400;text-anchor:middle;" transform="rotate(-0, 295.2, 415.795938)" x="295.2" y="415.795938">Iteration</text>
    </g>
   </g>
   <g id="matplotlib.axis_2">
    <g id="ytick_1">
     <g id="line2d_11">
      <path clip-path="url(#p1852b2059b)" d="M 72 369.36 
L 518.4 369.36 
" style="fill:none;stroke:#b0b0b0;stroke-dasharray:5.12,1.28,0.8,1.28;stroke-dashoffset:0;stroke-width:0.8;"/>
     </g>
     <g id="line2d_12">
      <defs>
       <path d="M 0 0 
L -3.5 0 
" id="mfc7ff2ca02" style="stroke:#000000;stroke-width:0.8;"/>
      </defs>
      <g>
       <use style="stroke:#000000;stroke-width:0.8;" x="72" xlink:href="#mfc7ff2ca02" y="369.36"/>
      </g>
     </g>
     <g id="text_7">
      <text style="font-family:DejaVu Sans;font-size:10px;font-style:normal;font-weight:400;text-anchor:end;" transform="rotate(-0, 65, 373.159219)" x="65" y="373.159219">0</text>
     </g>
    </g>
    <g id="ytick_2">
     <g id="line2d_13">
      <path clip-path="url(#p1852b2059b)" d="M 72 324.419419 
L 518.4 324.419419 
" style="fill:none;stroke:#b0b0b0;stroke-dasharray:5.12,1.28,0.8,1.28;stroke-dashoffset:0;stroke-width:0.8;"/>
     </g>
     <g id="line2d_14">
      <g>
       <use style="stroke:#000000;stroke-width:0.8;" x="72" xlink:href="#mfc7ff2ca02" y="324.419419"/>
      </g>
     </g>
     <g id="text_8">
      <text style="font-family:DejaVu Sans;font-size:10px;font-style:normal;font-weight:400;text-anchor:end;" transform="rotate(-0, 65, 328.218638)" x="65" y="328.218638">20</text>
     </g>
    </g>
    <g id="ytick_3">
     <g id="line2d_15">
      <path clip-path="url(#p1852b2059b)" d="M 72 279.478838 
L 518.4 279.478838 
" style="fill:none;stroke:#b0b0b0;stroke-dasharray:5.12,1.28,0.8,1.28;stroke-dashoffset:0;stroke-width:0.8;"/>
     </g>
     <g id="line2d_16">
      <g>
       <use style="stroke:#000000;stroke-width:0.8;" x="72" xlink:href="#mfc7ff2ca02" y="279.478838"/>
      </g>
     </g>
     <g id="text_9">
      <text style="font-family:DejaVu Sans;font-size:10px;font-style:normal;font-weight:400;text-anchor:end;" transform="rotate(-0, 65, 283.278057)" x="65" y="283.278057">40</text>
     </g>
    </g>
    <g id="ytick_4">
     <g id="line2d_17">
      <path clip-path="url(#p1852b2059b)" d="M 72 234.538258 
L 518.4 234.538258 
" style="fill:none;stroke:#b0b0b0;stroke-dasharray:5.12,1.28,0.8,1.28;stroke-dashoffset:0;stroke-width:0.8;"/>
     </g>
     <g id="line2d_18">
      <g>
       <use style="stroke:#000000;stroke-width:0.8;" x="72" xlink:href="#mfc7ff2ca02" y="234.538258"/>
      </g>
     </g>
     <g id="text_10">
      <text style="font-family:DejaVu Sans;font-size:10px;font-style:normal;font-weight:400;text-anchor:end;" transform="rotate(-0, 65, 238.337476)" x="65" y="238.337476">60</text>
     </g>
    </g>
    <g id="ytick_5">
     <g id="line2d_19">
      <path clip-path="url(#p1852b2059b)" d="M 72 189.597677 
L 518.4 189.597677 
" style="fill:none;stroke:#b0b0b0;stroke-dasharray:5.12,1.28,0.8,1.28;stroke-dashoffset:0;stroke-width:0.8;"/>
     </g>
     <g id="line2d_20">
      <g>
       <use style="stroke:#000000;stroke-width:0.8;" x="72" xlink:href="#mfc7ff2ca02" y="189.597677"/>
      </g>
     </g>
     <g id="text_11">
      <text style="font-family:DejaVu Sans;font-size:10px;font-style:normal;font-weight:400;text-anchor:end;" transform="rotate(-0, 65, 193.396896)" x="65" y="193.396896">80</text>
     </g>
    </g>
    <g id="ytick_6">
     <g id="line2d_21">
      <path clip-path="url(#p1852b2059b)" d="M 72 144.657096 
L 518.4 144.657096 
" style="fill:none;stroke:#b0b0b0;stroke-dasharray:5.12,1.28,0.8,1.28;stroke-dashoffset:0;stroke-width:0.8;"/>
     </g>
     <g id="line2d_22">
      <g>
       <use style="stroke:#000000;stroke-width:0.8;" x="72" xlink:href="#mfc7ff2ca02" y="144.657096"/>
      </g>
     </g>
     <g id="text_12">
      <text style="font-family:DejaVu Sans;font-size:10px;font-style:normal;font-weight:400;text-anchor:end;" transform="rotate(-0, 65, 148.456315)" x="65" y="148.456315">100</text>
     </g>
    </g>
    <g id="ytick_7">
     <g id="line2d_23">
      <path clip-path="url(#p1852b2059b)" d="M 72 99.716515 
L 518.4 99.716515 
" style="fill:none;stroke:#b0b0b0;stroke-dasharray:5.12,1.28,0.8,1.28;stroke-dashoffset:0;stroke-width:0.8;"/>
     </g>
     <g id="line2d_24">
      <g>
       <use style="stroke:#000000;stroke-width:0.8;" x="72" xlink:href="#mfc7ff2ca02" y="99.716515"/>
      </g>
     </g>
     <g id="text_13">
      <text style="font-family:DejaVu Sans;font-size:10px;font-style:normal;font-weight:400;text-anchor:end;" transform="rotate(-0, 65, 103.515734)" x="65" y="103.515734">120</text>
     </g>
    </g>
    <g id="ytick_8">
     <g id="line2d_25">
      <path clip-path="url(#p1852b2059b)" d="M 72 54.775934 
L 518.4 54.775934 
" style="fill:none;stroke:#b0b0b0;stroke-dasharray:5.12,1.28,0.8,1.28;stroke-dashoffset:0;stroke-width:0.8;"/>
     </g>
     <g id="line2d_26">
      <g>
       <use style="stroke:#000000;stroke-width:0.8;" x="72" xlink:href="#mfc7ff2ca02" y="54.775934"/>
      </g>
     </g>
     <g id="text_14">
      <text style="font-family:DejaVu Sans;font-size:10px;font-style:normal;font-weight:400;text-anchor:end;" transform="rotate(-0, 65, 58.575153)" x="65" y="58.575153">140</text>
     </g>
    </g>
    <g id="text_15">
     <text style="font-family:DejaVu Sans;font-size:14px;font-style:normal;font-weight:400;text-anchor:middle;" transform="rotate(-90, 38.611562, 218.16)" x="38.611562" y="218.16">$\mu^{\underline{U}}_{m}[m.u/V]$</text>
    </g>
   </g>
   <g id="line2d_27">
    <path clip-path="url(#p1852b2059b)" d="M 92.290909 369.36 
L 498.109091 369.36 
L 498.109091 369.36 
" style="fill:none;stroke:#bf00bf;stroke-linecap:square;stroke-width:1.5;"/>
   </g>
   <g id="line2d_28">
    <path clip-path="url(#p1852b2059b)" d="M 92.290909 369.36 
L 498.109091 369.36 
L 498.109091 369.36 
" style="fill:none;stroke:#00bfbf;stroke-linecap:square;stroke-width:1.5;"/>
   </g>
   <g id="line2d_29">
    <path clip-path="url(#p1852b2059b)" d="M 92.290909 369.36 
L 109.836215 369.36 
L 110.025894 361.194971 
L 110.500091 324.25651 
L 111.353647 262.933289 
L 112.302042 210.812777 
L 113.250437 170.699039 
L 114.198832 140.028441 
L 115.052387 118.869966 
L 115.905942 102.627092 
L 116.759498 90.373368 
L 117.613053 81.357614 
L 118.371769 75.566346 
L 119.130485 71.498999 
L 119.794361 69.123215 
L 120.363398 67.83387 
L 120.837596 67.21751 
L 121.311793 66.968988 
L 121.691151 67.023816 
L 121.97567 67.337276 
L 122.260188 68.023294 
L 122.639546 69.649918 
L 123.113744 72.903167 
L 123.77762 79.353489 
L 125.295052 94.77777 
L 125.769249 97.611049 
L 126.148607 98.927134 
L 126.527965 99.527315 
L 126.907323 99.653374 
L 127.47636 99.687978 
L 127.760879 99.929309 
L 128.045397 100.482527 
L 128.424755 101.858608 
L 128.898953 104.739075 
L 129.46799 109.756016 
L 131.364779 128.136714 
L 131.838977 130.490701 
L 132.218335 131.507257 
L 132.597693 131.937339 
L 133.16673 132.091934 
L 133.546088 132.339108 
L 133.830606 132.817949 
L 134.209964 134.03539 
L 134.684162 136.660594 
L 135.253198 141.373063 
L 137.339667 160.859524 
L 137.813865 162.931284 
L 138.193223 163.794144 
L 138.572581 164.164903 
L 139.426136 164.71947 
L 139.710655 165.276509 
L 140.090013 166.590796 
L 140.56421 169.305207 
L 141.133247 174.049359 
L 143.124876 192.473425 
L 143.599074 194.671244 
L 143.978432 195.648027 
L 144.35779 196.126195 
L 145.211345 196.831088 
L 145.590703 197.658669 
L 145.970061 199.127552 
L 146.444258 202.005771 
L 147.108135 207.764232 
L 148.720406 222.882244 
L 149.289443 225.9782 
L 149.763641 227.371583 
L 150.237838 228.016481 
L 150.996554 228.804514 
L 151.375912 229.690742 
L 151.75527 231.195353 
L 152.229467 234.078066 
L 152.893344 239.767768 
L 154.505615 254.550748 
L 155.074652 257.584462 
L 155.54885 258.983237 
L 156.023047 259.688355 
L 156.686923 260.484702 
L 157.066281 261.348235 
L 157.445639 262.781615 
L 157.919837 265.528383 
L 158.583713 271.003494 
L 160.290824 286.250935 
L 160.859861 289.139715 
L 161.334059 290.490404 
L 161.903095 291.349668 
L 162.472132 292.208033 
L 162.85149 293.21605 
L 163.325688 295.293878 
L 163.894725 299.130006 
L 164.74828 306.875066 
L 165.791515 316.074403 
L 166.360552 319.469888 
L 166.834749 321.222346 
L 167.308946 322.235756 
L 168.257341 323.863055 
L 168.636699 325.05825 
L 169.110897 327.376285 
L 169.679934 331.426555 
L 170.818008 341.824906 
L 171.671563 348.514986 
L 172.2406 351.370735 
L 172.714797 352.797374 
L 173.378674 354.011668 
L 173.947711 355.217424 
L 174.421908 356.92202 
L 174.896106 359.530147 
L 175.559982 364.638992 
L 176.129019 369.36 
L 498.109091 369.36 
L 498.109091 369.36 
" style="fill:none;stroke:#ff0000;stroke-linecap:square;stroke-width:1.5;"/>
   </g>
   <g id="line2d_30">
    <path clip-path="url(#p1852b2059b)" d="M 92.290909 369.36 
L 498.109091 369.36 
L 498.109091 369.36 
" style="fill:none;stroke:#008000;stroke-linecap:square;stroke-width:1.5;"/>
   </g>
   <g id="patch_3">
    <path d="M 72 384.48 
L 72 51.84 
" style="fill:none;stroke:#000000;stroke-linecap:square;stroke-linejoin:miter;stroke-width:0.8;"/>
   </g>
   <g id="patch_4">
    <path d="M 518.4 384.48 
L 518.4 51.84 
" style="fill:none;stroke:#000000;stroke-linecap:square;stroke-linejoin:miter;stroke-width:0.8;"/>
   </g>
   <g id="patch_5">
    <path d="M 72 384.48 
L 518.4 384.48 
" style="fill:none;stroke:#000000;stroke-linecap:square;stroke-linejoin:miter;stroke-width:0.8;"/>
   </g>
   <g id="patch_6">
    <path d="M 72 51.84 
L 518.4 51.84 
" style="fill:none;stroke:#000000;stroke-linecap:square;stroke-linejoin:miter;stroke-width:0.8;"/>
   </g>
   <g id="legend_1">
    <g id="patch_7">
     <path d="M 331.289062 164.665 
L 511.4 164.665 
Q 513.4 164.665 513.4 162.665 
L 513.4 58.84 
Q 513.4 56.84 511.4 56.84 
L 331.289062 56.84 
Q 329.289062 56.84 329.289062 58.84 
L 329.289062 162.665 
Q 329.289062 164.665 331.289062 164.665 
z
" style="fill:#ffffff;opacity:0.8;stroke:#cccccc;stroke-linejoin:miter;"/>
    </g>
    <g id="line2d_31">
     <path d="M 333.289062 64.938437 
L 353.289062 64.938437 
" style="fill:none;stroke:#bf00bf;stroke-linecap:square;stroke-width:1.5;"/>
    </g>
    <g id="line2d_32"/>
    <g id="text_16">
     <text style="font-family:DejaVu Sans;font-size:10px;font-style:normal;font-weight:400;text-anchor:start;" transform="rotate(-0, 361.289062, 68.438437)" x="361.289062" y="68.438437">$\mu^{\underline{U}}_{1}$</text>
    </g>
    <g id="line2d_33">
     <path d="M 333.289062 94.894687 
L 353.289062 94.894687 
" style="fill:none;stroke:#00bfbf;stroke-linecap:square;stroke-width:1.5;"/>
    </g>
    <g id="line2d_34"/>
    <g id="text_17">
     <text style="font-family:DejaVu Sans;font-size:10px;font-style:normal;font-weight:400;text-anchor:start;" transform="rotate(-0, 361.289062, 98.394687)" x="361.289062" y="98.394687">$\mu^{\underline{U}}_{2}$</text>
    </g>
    <g id="line2d_35">
     <path d="M 333.289062 124.850937 
L 353.289062 124.850937 
" style="fill:none;stroke:#ff0000;stroke-linecap:square;stroke-width:1.5;"/>
    </g>
    <g id="line2d_36"/>
    <g id="text_18">
     <text style="font-family:DejaVu Sans;font-size:10px;font-style:normal;font-weight:400;text-anchor:start;" transform="rotate(-0, 361.289062, 128.350937)" x="361.289062" y="128.350937">$\mu^{\underline{U}}_{3}$</text>
    </g>
    <g id="line2d_37">
     <path d="M 333.289062 154.807187 
L 353.289062 154.807187 
" style="fill:none;stroke:#008000;stroke-linecap:square;stroke-width:1.5;"/>
    </g>
    <g id="line2d_38"/>
    <g id="text_19">
     <text style="font-family:DejaVu Sans;font-size:10px;font-style:normal;font-weight:400;text-anchor:start;" transform="rotate(-0, 361.289062, 158.307187)" x="361.289062" y="158.307187">$\mu^{\underline{U}}_{4}$</text>
    </g>
   </g>
  </g>
 </g>
 <defs>
  <clipPath id="p1852b2059b">
   <rect height="332.64" width="446.4" x="72" y="51.84"/>
  </clipPath>
 </defs>
</svg>
