<?xml version="1.0" encoding="utf-8" standalone="no"?>
<!DOCTYPE svg PUBLIC "-//W3C//DTD SVG 1.1//EN"
  "http://www.w3.org/Graphics/SVG/1.1/DTD/svg11.dtd">
<!-- Created with matplotlib (http://matplotlib.org/) -->
<svg height="432pt" version="1.1" viewBox="0 0 576 432" width="576pt" xmlns="http://www.w3.org/2000/svg" xmlns:xlink="http://www.w3.org/1999/xlink">
 <defs>
  <style type="text/css">
*{stroke-linecap:butt;stroke-linejoin:round;}
  </style>
 </defs>
 <g id="figure_1">
  <g id="patch_1">
   <path d="M 0 432 
L 576 432 
L 576 0 
L 0 0 
z
" style="fill:#ffffff;"/>
  </g>
  <g id="axes_1">
   <g id="patch_2">
    <path d="M 72 384.48 
L 518.4 384.48 
L 518.4 51.84 
L 72 51.84 
z
" style="fill:#ffffff;"/>
   </g>
   <g id="matplotlib.axis_1">
    <g id="xtick_1">
     <g id="line2d_1">
      <path clip-path="url(#p6aed13672b)" d="M 92.290909 384.48 
L 92.290909 51.84 
" style="fill:none;stroke:#b0b0b0;stroke-dasharray:5.12,1.28,0.8,1.28;stroke-dashoffset:0;stroke-width:0.8;"/>
     </g>
     <g id="line2d_2">
      <defs>
       <path d="M 0 0 
L 0 3.5 
" id="m71f642c6a9" style="stroke:#000000;stroke-width:0.8;"/>
      </defs>
      <g>
       <use style="stroke:#000000;stroke-width:0.8;" x="92.290909" xlink:href="#m71f642c6a9" y="384.48"/>
      </g>
     </g>
     <g id="text_1">
      <text style="font-family:DejaVu Sans;font-size:10px;font-style:normal;font-weight:400;text-anchor:middle;" transform="rotate(-0, 92.290909, 399.078438)" x="92.290909" y="399.078438">0</text>
     </g>
    </g>
    <g id="xtick_2">
     <g id="line2d_3">
      <path clip-path="url(#p6aed13672b)" d="M 143.043558 384.48 
L 143.043558 51.84 
" style="fill:none;stroke:#b0b0b0;stroke-dasharray:5.12,1.28,0.8,1.28;stroke-dashoffset:0;stroke-width:0.8;"/>
     </g>
     <g id="line2d_4">
      <g>
       <use style="stroke:#000000;stroke-width:0.8;" x="143.043558" xlink:href="#m71f642c6a9" y="384.48"/>
      </g>
     </g>
     <g id="text_2">
      <text style="font-family:DejaVu Sans;font-size:10px;font-style:normal;font-weight:400;text-anchor:middle;" transform="rotate(-0, 143.043558, 399.078438)" x="143.043558" y="399.078438">250</text>
     </g>
    </g>
    <g id="xtick_3">
     <g id="line2d_5">
      <path clip-path="url(#p6aed13672b)" d="M 193.796207 384.48 
L 193.796207 51.84 
" style="fill:none;stroke:#b0b0b0;stroke-dasharray:5.12,1.28,0.8,1.28;stroke-dashoffset:0;stroke-width:0.8;"/>
     </g>
     <g id="line2d_6">
      <g>
       <use style="stroke:#000000;stroke-width:0.8;" x="193.796207" xlink:href="#m71f642c6a9" y="384.48"/>
      </g>
     </g>
     <g id="text_3">
      <text style="font-family:DejaVu Sans;font-size:10px;font-style:normal;font-weight:400;text-anchor:middle;" transform="rotate(-0, 193.796207, 399.078438)" x="193.796207" y="399.078438">500</text>
     </g>
    </g>
    <g id="xtick_4">
     <g id="line2d_7">
      <path clip-path="url(#p6aed13672b)" d="M 244.548856 384.48 
L 244.548856 51.84 
" style="fill:none;stroke:#b0b0b0;stroke-dasharray:5.12,1.28,0.8,1.28;stroke-dashoffset:0;stroke-width:0.8;"/>
     </g>
     <g id="line2d_8">
      <g>
       <use style="stroke:#000000;stroke-width:0.8;" x="244.548856" xlink:href="#m71f642c6a9" y="384.48"/>
      </g>
     </g>
     <g id="text_4">
      <text style="font-family:DejaVu Sans;font-size:10px;font-style:normal;font-weight:400;text-anchor:middle;" transform="rotate(-0, 244.548856, 399.078438)" x="244.548856" y="399.078438">750</text>
     </g>
    </g>
    <g id="xtick_5">
     <g id="line2d_9">
      <path clip-path="url(#p6aed13672b)" d="M 295.301505 384.48 
L 295.301505 51.84 
" style="fill:none;stroke:#b0b0b0;stroke-dasharray:5.12,1.28,0.8,1.28;stroke-dashoffset:0;stroke-width:0.8;"/>
     </g>
     <g id="line2d_10">
      <g>
       <use style="stroke:#000000;stroke-width:0.8;" x="295.301505" xlink:href="#m71f642c6a9" y="384.48"/>
      </g>
     </g>
     <g id="text_5">
      <text style="font-family:DejaVu Sans;font-size:10px;font-style:normal;font-weight:400;text-anchor:middle;" transform="rotate(-0, 295.301505, 399.078438)" x="295.301505" y="399.078438">1000</text>
     </g>
    </g>
    <g id="xtick_6">
     <g id="line2d_11">
      <path clip-path="url(#p6aed13672b)" d="M 346.054154 384.48 
L 346.054154 51.84 
" style="fill:none;stroke:#b0b0b0;stroke-dasharray:5.12,1.28,0.8,1.28;stroke-dashoffset:0;stroke-width:0.8;"/>
     </g>
     <g id="line2d_12">
      <g>
       <use style="stroke:#000000;stroke-width:0.8;" x="346.054154" xlink:href="#m71f642c6a9" y="384.48"/>
      </g>
     </g>
     <g id="text_6">
      <text style="font-family:DejaVu Sans;font-size:10px;font-style:normal;font-weight:400;text-anchor:middle;" transform="rotate(-0, 346.054154, 399.078438)" x="346.054154" y="399.078438">1250</text>
     </g>
    </g>
    <g id="xtick_7">
     <g id="line2d_13">
      <path clip-path="url(#p6aed13672b)" d="M 396.806803 384.48 
L 396.806803 51.84 
" style="fill:none;stroke:#b0b0b0;stroke-dasharray:5.12,1.28,0.8,1.28;stroke-dashoffset:0;stroke-width:0.8;"/>
     </g>
     <g id="line2d_14">
      <g>
       <use style="stroke:#000000;stroke-width:0.8;" x="396.806803" xlink:href="#m71f642c6a9" y="384.48"/>
      </g>
     </g>
     <g id="text_7">
      <text style="font-family:DejaVu Sans;font-size:10px;font-style:normal;font-weight:400;text-anchor:middle;" transform="rotate(-0, 396.806803, 399.078438)" x="396.806803" y="399.078438">1500</text>
     </g>
    </g>
    <g id="xtick_8">
     <g id="line2d_15">
      <path clip-path="url(#p6aed13672b)" d="M 447.559452 384.48 
L 447.559452 51.84 
" style="fill:none;stroke:#b0b0b0;stroke-dasharray:5.12,1.28,0.8,1.28;stroke-dashoffset:0;stroke-width:0.8;"/>
     </g>
     <g id="line2d_16">
      <g>
       <use style="stroke:#000000;stroke-width:0.8;" x="447.559452" xlink:href="#m71f642c6a9" y="384.48"/>
      </g>
     </g>
     <g id="text_8">
      <text style="font-family:DejaVu Sans;font-size:10px;font-style:normal;font-weight:400;text-anchor:middle;" transform="rotate(-0, 447.559452, 399.078438)" x="447.559452" y="399.078438">1750</text>
     </g>
    </g>
    <g id="xtick_9">
     <g id="line2d_17">
      <path clip-path="url(#p6aed13672b)" d="M 498.312102 384.48 
L 498.312102 51.84 
" style="fill:none;stroke:#b0b0b0;stroke-dasharray:5.12,1.28,0.8,1.28;stroke-dashoffset:0;stroke-width:0.8;"/>
     </g>
     <g id="line2d_18">
      <g>
       <use style="stroke:#000000;stroke-width:0.8;" x="498.312102" xlink:href="#m71f642c6a9" y="384.48"/>
      </g>
     </g>
     <g id="text_9">
      <text style="font-family:DejaVu Sans;font-size:10px;font-style:normal;font-weight:400;text-anchor:middle;" transform="rotate(-0, 498.312102, 399.078438)" x="498.312102" y="399.078438">2000</text>
     </g>
    </g>
    <g id="text_10">
     <text style="font-family:DejaVu Sans;font-size:14px;font-style:normal;font-weight:400;text-anchor:middle;" transform="rotate(-0, 295.2, 415.795938)" x="295.2" y="415.795938">Iteration</text>
    </g>
   </g>
   <g id="matplotlib.axis_2">
    <g id="ytick_1">
     <g id="line2d_19">
      <path clip-path="url(#p6aed13672b)" d="M 72 347.430229 
L 518.4 347.430229 
" style="fill:none;stroke:#b0b0b0;stroke-dasharray:5.12,1.28,0.8,1.28;stroke-dashoffset:0;stroke-width:0.8;"/>
     </g>
     <g id="line2d_20">
      <defs>
       <path d="M 0 0 
L -3.5 0 
" id="m057f3a2ef9" style="stroke:#000000;stroke-width:0.8;"/>
      </defs>
      <g>
       <use style="stroke:#000000;stroke-width:0.8;" x="72" xlink:href="#m057f3a2ef9" y="347.430229"/>
      </g>
     </g>
     <g id="text_11">
      <text style="font-family:DejaVu Sans;font-size:10px;font-style:normal;font-weight:400;text-anchor:end;" transform="rotate(-0, 65, 351.229448)" x="65" y="351.229448">0.00</text>
     </g>
    </g>
    <g id="ytick_2">
     <g id="line2d_21">
      <path clip-path="url(#p6aed13672b)" d="M 72 301.26229 
L 518.4 301.26229 
" style="fill:none;stroke:#b0b0b0;stroke-dasharray:5.12,1.28,0.8,1.28;stroke-dashoffset:0;stroke-width:0.8;"/>
     </g>
     <g id="line2d_22">
      <g>
       <use style="stroke:#000000;stroke-width:0.8;" x="72" xlink:href="#m057f3a2ef9" y="301.26229"/>
      </g>
     </g>
     <g id="text_12">
      <text style="font-family:DejaVu Sans;font-size:10px;font-style:normal;font-weight:400;text-anchor:end;" transform="rotate(-0, 65, 305.061509)" x="65" y="305.061509">0.02</text>
     </g>
    </g>
    <g id="ytick_3">
     <g id="line2d_23">
      <path clip-path="url(#p6aed13672b)" d="M 72 255.094351 
L 518.4 255.094351 
" style="fill:none;stroke:#b0b0b0;stroke-dasharray:5.12,1.28,0.8,1.28;stroke-dashoffset:0;stroke-width:0.8;"/>
     </g>
     <g id="line2d_24">
      <g>
       <use style="stroke:#000000;stroke-width:0.8;" x="72" xlink:href="#m057f3a2ef9" y="255.094351"/>
      </g>
     </g>
     <g id="text_13">
      <text style="font-family:DejaVu Sans;font-size:10px;font-style:normal;font-weight:400;text-anchor:end;" transform="rotate(-0, 65, 258.89357)" x="65" y="258.89357">0.04</text>
     </g>
    </g>
    <g id="ytick_4">
     <g id="line2d_25">
      <path clip-path="url(#p6aed13672b)" d="M 72 208.926412 
L 518.4 208.926412 
" style="fill:none;stroke:#b0b0b0;stroke-dasharray:5.12,1.28,0.8,1.28;stroke-dashoffset:0;stroke-width:0.8;"/>
     </g>
     <g id="line2d_26">
      <g>
       <use style="stroke:#000000;stroke-width:0.8;" x="72" xlink:href="#m057f3a2ef9" y="208.926412"/>
      </g>
     </g>
     <g id="text_14">
      <text style="font-family:DejaVu Sans;font-size:10px;font-style:normal;font-weight:400;text-anchor:end;" transform="rotate(-0, 65, 212.725631)" x="65" y="212.725631">0.06</text>
     </g>
    </g>
    <g id="ytick_5">
     <g id="line2d_27">
      <path clip-path="url(#p6aed13672b)" d="M 72 162.758473 
L 518.4 162.758473 
" style="fill:none;stroke:#b0b0b0;stroke-dasharray:5.12,1.28,0.8,1.28;stroke-dashoffset:0;stroke-width:0.8;"/>
     </g>
     <g id="line2d_28">
      <g>
       <use style="stroke:#000000;stroke-width:0.8;" x="72" xlink:href="#m057f3a2ef9" y="162.758473"/>
      </g>
     </g>
     <g id="text_15">
      <text style="font-family:DejaVu Sans;font-size:10px;font-style:normal;font-weight:400;text-anchor:end;" transform="rotate(-0, 65, 166.557692)" x="65" y="166.557692">0.08</text>
     </g>
    </g>
    <g id="ytick_6">
     <g id="line2d_29">
      <path clip-path="url(#p6aed13672b)" d="M 72 116.590534 
L 518.4 116.590534 
" style="fill:none;stroke:#b0b0b0;stroke-dasharray:5.12,1.28,0.8,1.28;stroke-dashoffset:0;stroke-width:0.8;"/>
     </g>
     <g id="line2d_30">
      <g>
       <use style="stroke:#000000;stroke-width:0.8;" x="72" xlink:href="#m057f3a2ef9" y="116.590534"/>
      </g>
     </g>
     <g id="text_16">
      <text style="font-family:DejaVu Sans;font-size:10px;font-style:normal;font-weight:400;text-anchor:end;" transform="rotate(-0, 65, 120.389753)" x="65" y="120.389753">0.10</text>
     </g>
    </g>
    <g id="ytick_7">
     <g id="line2d_31">
      <path clip-path="url(#p6aed13672b)" d="M 72 70.422595 
L 518.4 70.422595 
" style="fill:none;stroke:#b0b0b0;stroke-dasharray:5.12,1.28,0.8,1.28;stroke-dashoffset:0;stroke-width:0.8;"/>
     </g>
     <g id="line2d_32">
      <g>
       <use style="stroke:#000000;stroke-width:0.8;" x="72" xlink:href="#m057f3a2ef9" y="70.422595"/>
      </g>
     </g>
     <g id="text_17">
      <text style="font-family:DejaVu Sans;font-size:10px;font-style:normal;font-weight:400;text-anchor:end;" transform="rotate(-0, 65, 74.221814)" x="65" y="74.221814">0.12</text>
     </g>
    </g>
    <g id="text_18">
     <text style="font-family:DejaVu Sans;font-size:14px;font-style:normal;font-weight:400;text-anchor:middle;" transform="rotate(-90, 35.433437, 218.16)" x="35.433437" y="218.16">$\Delta \lambda_{m}[m.u/W]$</text>
    </g>
   </g>
   <g id="line2d_33">
    <path clip-path="url(#p6aed13672b)" d="M 92.290909 347.430229 
L 92.49392 347.430229 
L 92.69693 333.118168 
L 92.899941 333.118168 
L 93.305962 333.810687 
L 93.508973 334.041527 
L 97.569185 334.041527 
L 97.772195 340.043359 
L 97.975206 342.120916 
L 98.178216 342.351756 
L 98.381227 341.659237 
L 98.787248 339.12 
L 99.599291 330.809771 
L 104.268534 278.87084 
L 107.719714 248.4 
L 109.343799 236.165496 
L 112.388958 216.082443 
L 115.434117 199.231145 
L 117.464223 189.535878 
L 117.667234 344.198473 
L 117.870244 347.430229 
L 118.682287 347.430229 
L 118.885297 66.96 
L 119.088308 184.226565 
L 119.291318 181.225649 
L 119.494329 195.076031 
L 119.69734 194.614351 
L 120.103361 199.692824 
L 120.712393 209.849771 
L 121.321424 224.623511 
L 122.133467 250.477557 
L 123.14852 289.027786 
L 124.366583 337.965802 
L 124.569594 339.581679 
L 125.178626 340.735878 
L 125.381636 340.966718 
L 130.05088 340.966718 
L 130.253891 340.735878 
L 130.456901 340.735878 
L 130.659912 336.119084 
L 131.268944 339.35084 
L 131.674965 340.043359 
L 132.080986 340.043359 
L 132.487007 339.581679 
L 133.705071 337.042443 
L 133.908081 336.811603 
L 137.562272 328.732214 
L 137.765283 328.501374 
L 138.780336 326.423817 
L 138.983346 326.192977 
L 139.795389 324.577099 
L 139.998399 324.34626 
L 140.607431 323.192061 
L 141.013452 322.730382 
L 141.622484 321.576183 
L 142.028505 321.114504 
L 142.434526 320.421985 
L 142.637537 320.191145 
L 143.043558 319.498626 
L 143.449579 319.036947 
L 143.855601 318.344427 
L 144.667643 317.421069 
L 145.073664 316.72855 
L 149.742908 311.419237 
L 149.945918 311.419237 
L 150.757961 310.495878 
L 150.960971 310.495878 
L 151.773014 309.572519 
L 151.976024 309.572519 
L 152.585056 308.88 
L 152.788067 308.88 
L 153.397099 308.187481 
L 153.600109 308.187481 
L 154.00613 307.725802 
L 154.209141 307.725802 
L 154.615162 307.264122 
L 154.818173 307.264122 
L 155.021183 307.033282 
L 155.224194 307.033282 
L 155.630215 306.571603 
L 155.833226 306.571603 
L 156.239247 306.109924 
L 156.442257 306.109924 
L 156.645268 305.879084 
L 156.848279 305.879084 
L 157.051289 305.648244 
L 157.2543 305.648244 
L 157.660321 305.186565 
L 157.863332 305.186565 
L 158.066342 304.955725 
L 158.269353 304.955725 
L 158.472363 304.724885 
L 158.675374 304.724885 
L 158.878385 304.494046 
L 159.081395 304.494046 
L 159.284406 304.263206 
L 159.487416 304.263206 
L 159.690427 304.032366 
L 159.893438 304.032366 
L 160.096448 303.801527 
L 160.299459 303.801527 
L 160.502469 303.570687 
L 160.70548 303.570687 
L 160.908491 303.339847 
L 161.314512 303.339847 
L 161.517522 303.109008 
L 161.720533 303.109008 
L 161.923544 302.878168 
L 162.126554 302.878168 
L 162.329565 302.647328 
L 162.735586 302.647328 
L 162.938597 302.416489 
L 163.141607 302.416489 
L 163.344618 302.185649 
L 163.750639 302.185649 
L 163.95365 301.954809 
L 164.15666 301.954809 
L 164.359671 301.723969 
L 164.765692 301.723969 
L 164.968703 301.49313 
L 165.374724 301.49313 
L 165.577734 301.26229 
L 165.983756 301.26229 
L 166.186766 301.03145 
L 166.592787 301.03145 
L 166.795798 300.800611 
L 167.201819 300.800611 
L 167.40483 300.569771 
L 167.810851 300.569771 
L 168.013861 300.338931 
L 168.419883 300.338931 
L 168.622893 300.108092 
L 169.231925 300.108092 
L 169.434936 299.877252 
L 170.043967 299.877252 
L 170.246978 299.646412 
L 170.652999 299.646412 
L 170.85601 299.415573 
L 171.465042 299.415573 
L 171.668052 299.184733 
L 172.480095 299.184733 
L 172.683105 298.953893 
L 172.886116 302.647328 
L 173.089126 302.416489 
L 173.292137 299.877252 
L 173.495148 299.415573 
L 173.698158 298.492214 
L 173.901169 298.723053 
L 174.104179 298.723053 
L 174.713211 301.954809 
L 175.119232 305.417405 
L 175.931275 316.959389 
L 176.743317 334.503206 
L 176.946328 339.812519 
L 177.75837 343.044275 
L 178.164391 344.198473 
L 178.570412 344.890992 
L 178.976434 345.352672 
L 179.179444 345.352672 
L 179.382455 345.583511 
L 179.585465 345.583511 
L 179.788476 345.814351 
L 180.397508 345.814351 
L 180.600518 346.045191 
L 181.615571 346.045191 
L 181.818582 346.276031 
L 183.239656 346.276031 
L 183.442667 346.50687 
L 185.066752 346.50687 
L 185.269762 346.73771 
L 187.096858 346.73771 
L 187.299868 346.96855 
L 189.532985 346.96855 
L 189.735995 347.199389 
L 192.578144 347.199389 
L 192.781154 347.430229 
L 196.841366 347.430229 
L 197.044377 347.661069 
L 204.555769 347.661069 
L 204.758779 339.35084 
L 204.96179 339.12 
L 205.164801 339.581679 
L 205.773832 344.429313 
L 206.788885 352.739542 
L 207.803938 358.972214 
L 208.41297 361.97313 
L 209.022002 364.281527 
L 209.834044 366.820763 
L 210.646087 368.436641 
L 211.255118 369.12916 
L 211.458129 369.12916 
L 211.66114 369.36 
L 211.86415 369.36 
L 212.067161 369.12916 
L 212.473182 369.12916 
L 213.082214 368.436641 
L 213.488235 367.744122 
L 214.097267 364.281527 
L 215.518341 355.740458 
L 215.924362 352.508702 
L 216.939415 342.351756 
L 217.751458 331.963969 
L 218.360489 338.196641 
L 218.5635 338.88916 
L 219.172532 339.581679 
L 219.375542 339.581679 
L 219.578553 339.812519 
L 219.781564 339.812519 
L 219.984574 340.043359 
L 220.187585 340.043359 
L 220.390595 340.274198 
L 220.593606 340.274198 
L 220.796616 340.505038 
L 220.999627 340.505038 
L 221.202638 340.735878 
L 221.608659 340.735878 
L 221.811669 340.966718 
L 222.01468 340.966718 
L 222.217691 341.197557 
L 222.623712 341.197557 
L 222.826722 341.428397 
L 223.232744 341.428397 
L 223.435754 341.659237 
L 223.841775 341.659237 
L 224.044786 341.890076 
L 224.450807 341.890076 
L 224.653818 342.120916 
L 225.059839 342.120916 
L 225.26285 342.351756 
L 225.668871 342.351756 
L 225.871881 342.582595 
L 226.480913 342.582595 
L 226.683924 342.813435 
L 227.089945 342.813435 
L 227.292956 343.044275 
L 227.901987 343.044275 
L 228.104998 343.275115 
L 228.71403 343.275115 
L 228.91704 343.505954 
L 229.729083 343.505954 
L 229.932093 343.736794 
L 230.541125 343.736794 
L 230.744136 343.967634 
L 231.556178 343.967634 
L 231.759189 344.198473 
L 232.774242 344.198473 
L 232.977252 344.429313 
L 233.789295 344.429313 
L 233.992305 344.660153 
L 235.007358 344.660153 
L 235.210369 344.890992 
L 236.428432 344.890992 
L 236.631443 345.121832 
L 237.443485 345.121832 
L 237.646496 340.043359 
L 237.849507 340.966718 
L 238.052517 341.197557 
L 238.458538 342.813435 
L 239.879613 348.815267 
L 241.097676 352.739542 
L 243.127782 357.125496 
L 243.330793 357.356336 
L 243.736814 358.048855 
L 244.142835 358.510534 
L 244.345846 358.510534 
L 244.751867 358.972214 
L 244.954877 358.972214 
L 245.157888 359.203053 
L 246.172941 359.203053 
L 246.375952 358.972214 
L 246.578962 358.972214 
L 246.781973 358.741374 
L 246.984983 358.741374 
L 247.391005 358.279695 
L 248.203047 355.740458 
L 248.812079 354.12458 
L 249.624121 351.123664 
L 250.639174 346.045191 
L 252.060248 336.119084 
L 252.263259 338.88916 
L 252.66928 340.505038 
L 253.075301 340.966718 
L 253.278312 340.966718 
L 253.481322 341.197557 
L 253.684333 341.197557 
L 253.887344 341.428397 
L 254.090354 341.428397 
L 254.293365 341.659237 
L 254.699386 341.659237 
L 254.902397 341.890076 
L 255.308418 341.890076 
L 255.511428 342.120916 
L 255.91745 342.120916 
L 256.12046 342.351756 
L 256.526481 342.351756 
L 256.729492 342.582595 
L 257.338524 342.582595 
L 257.541534 342.813435 
L 257.947556 342.813435 
L 258.150566 343.044275 
L 258.759598 343.044275 
L 258.962609 343.275115 
L 259.57164 343.275115 
L 259.774651 343.505954 
L 260.586693 343.505954 
L 260.789704 343.736794 
L 261.398736 343.736794 
L 261.601746 343.967634 
L 262.413789 343.967634 
L 262.616799 344.198473 
L 263.428842 344.198473 
L 263.631852 344.429313 
L 264.037873 344.429313 
L 264.443895 341.197557 
L 264.646905 341.428397 
L 265.255937 343.044275 
L 266.474001 346.96855 
L 267.286043 349.046107 
L 267.692064 350.200305 
L 268.910128 352.739542 
L 269.113138 352.970382 
L 269.72217 354.12458 
L 270.128191 354.58626 
L 270.534213 355.278779 
L 270.940234 355.740458 
L 271.143244 355.740458 
L 271.549266 356.202137 
L 271.752276 356.202137 
L 271.955287 356.432977 
L 272.158297 356.432977 
L 272.361308 356.663817 
L 273.579372 356.663817 
L 273.782382 356.432977 
L 274.188403 356.432977 
L 274.391414 356.202137 
L 274.594424 356.202137 
L 274.797435 355.971298 
L 275.203456 354.817099 
L 276.827541 350.892824 
L 277.639583 347.891908 
L 278.857647 341.890076 
L 279.669689 337.504122 
L 279.8727 340.274198 
L 280.075711 340.505038 
L 280.278721 341.197557 
L 280.481732 341.197557 
L 280.684742 341.428397 
L 280.887753 341.428397 
L 281.090764 341.659237 
L 281.293774 341.659237 
L 281.496785 341.890076 
L 281.902806 341.890076 
L 282.105817 342.120916 
L 282.511838 342.120916 
L 282.714848 342.351756 
L 283.12087 342.351756 
L 283.32388 342.582595 
L 283.932912 342.582595 
L 284.135923 342.813435 
L 284.541944 342.813435 
L 284.744954 343.044275 
L 285.353986 343.044275 
L 285.556997 343.275115 
L 286.166028 343.275115 
L 286.369039 343.505954 
L 287.181081 343.505954 
L 287.384092 343.736794 
L 287.993124 343.736794 
L 288.196134 343.967634 
L 289.008177 343.967634 
L 289.211187 344.198473 
L 289.414198 344.198473 
L 289.820219 341.197557 
L 290.02323 341.428397 
L 291.038283 343.967634 
L 291.647315 345.814351 
L 294.692474 352.508702 
L 294.895484 352.739542 
L 295.301505 353.432061 
L 296.92559 355.278779 
L 297.128601 355.278779 
L 297.331611 355.509618 
L 297.534622 355.509618 
L 297.737632 355.740458 
L 298.143654 355.740458 
L 298.346664 355.971298 
L 299.158707 355.971298 
L 299.361717 355.740458 
L 299.767738 355.740458 
L 299.970749 355.509618 
L 300.17376 355.509618 
L 300.579781 355.047939 
L 302.812897 349.738626 
L 303.62494 346.73771 
L 305.046014 339.812519 
L 305.452035 337.734962 
L 305.655046 340.505038 
L 305.858056 340.735878 
L 306.264077 341.428397 
L 306.467088 341.659237 
L 306.873109 341.659237 
L 307.07612 341.890076 
L 307.27913 341.890076 
L 307.482141 342.120916 
L 307.888162 342.120916 
L 308.091173 342.351756 
L 308.700205 342.351756 
L 308.903215 342.582595 
L 309.309236 342.582595 
L 309.512247 342.813435 
L 310.121279 342.813435 
L 310.324289 343.044275 
L 310.933321 343.044275 
L 311.136332 343.275115 
L 311.745364 343.275115 
L 311.948374 343.505954 
L 312.557406 343.505954 
L 312.760417 343.736794 
L 313.572459 343.736794 
L 313.77547 343.967634 
L 314.384501 343.967634 
L 314.587512 344.198473 
L 314.790523 341.890076 
L 314.993533 341.428397 
L 315.399554 341.890076 
L 316.008586 343.505954 
L 316.617618 345.352672 
L 319.459766 351.585344 
L 319.662777 351.816183 
L 320.271809 352.970382 
L 322.098904 355.047939 
L 322.301915 355.047939 
L 322.504925 355.278779 
L 322.707936 355.278779 
L 322.910946 355.509618 
L 323.316968 355.509618 
L 323.519978 355.740458 
L 324.332021 355.740458 
L 324.535031 355.509618 
L 324.941052 355.509618 
L 325.144063 355.278779 
L 325.347074 355.278779 
L 325.550084 355.047939 
L 325.753095 355.047939 
L 325.956105 354.35542 
L 326.159116 354.12458 
L 327.986211 349.738626 
L 329.001264 346.045191 
L 330.422338 339.12 
L 330.625349 337.965802 
L 330.82836 339.812519 
L 331.234381 341.197557 
L 331.640402 341.659237 
L 332.046423 341.659237 
L 332.249434 341.890076 
L 332.452444 341.890076 
L 332.655455 342.120916 
L 333.061476 342.120916 
L 333.264487 342.351756 
L 333.873519 342.351756 
L 334.076529 342.582595 
L 334.48255 342.582595 
L 334.685561 342.813435 
L 335.294593 342.813435 
L 335.497603 343.044275 
L 335.903625 343.044275 
L 336.106635 343.275115 
L 336.918678 343.275115 
L 337.121688 343.505954 
L 337.73072 343.505954 
L 337.933731 343.736794 
L 338.542762 343.736794 
L 338.745773 343.967634 
L 339.557815 343.967634 
L 339.760826 343.044275 
L 339.963836 341.197557 
L 341.993942 346.045191 
L 342.399964 347.199389 
L 344.024048 350.661985 
L 344.227059 350.892824 
L 344.836091 352.047023 
L 345.039101 352.277863 
L 345.445123 352.970382 
L 345.851144 353.432061 
L 346.257165 354.12458 
L 346.460176 354.35542 
L 346.663186 354.35542 
L 347.272218 355.047939 
L 347.475229 355.047939 
L 347.678239 355.278779 
L 347.88125 355.278779 
L 348.08426 355.509618 
L 349.911356 355.509618 
L 350.114366 355.278779 
L 350.317377 355.278779 
L 350.520387 355.047939 
L 350.723398 355.047939 
L 353.362536 348.815267 
L 353.971568 346.50687 
L 355.798663 338.196641 
L 356.001674 340.505038 
L 356.204684 340.735878 
L 356.407695 341.428397 
L 356.610705 341.428397 
L 356.813716 341.659237 
L 357.016727 341.659237 
L 357.219737 341.890076 
L 357.625758 341.890076 
L 357.828769 342.120916 
L 358.23479 342.120916 
L 358.437801 342.351756 
L 358.843822 342.351756 
L 359.046833 342.582595 
L 359.452854 342.582595 
L 359.655864 342.813435 
L 360.264896 342.813435 
L 360.467907 343.044275 
L 361.076938 343.044275 
L 361.279949 343.275115 
L 361.888981 343.275115 
L 362.091991 343.505954 
L 362.701023 343.505954 
L 362.904034 343.736794 
L 363.716076 343.736794 
L 363.919087 343.967634 
L 364.528119 343.967634 
L 364.731129 343.505954 
L 364.93414 341.197557 
L 365.13715 341.659237 
L 365.340161 341.659237 
L 366.152203 343.736794 
L 366.761235 345.583511 
L 369.400373 351.354504 
L 369.603384 351.585344 
L 370.009405 352.277863 
L 370.212415 352.508702 
L 370.618436 353.201221 
L 372.039511 354.817099 
L 372.242521 354.817099 
L 372.648542 355.278779 
L 372.851553 355.278779 
L 373.054564 355.509618 
L 374.881659 355.509618 
L 375.08467 355.278779 
L 375.490691 355.278779 
L 375.896712 354.817099 
L 376.099723 354.12458 
L 376.302733 353.89374 
L 378.332839 349.046107 
L 378.941871 346.73771 
L 380.565956 338.88916 
L 380.768966 337.734962 
L 380.971977 340.274198 
L 381.581009 341.428397 
L 381.784019 341.659237 
L 381.98703 341.659237 
L 382.19004 341.890076 
L 382.596062 341.890076 
L 382.799072 342.120916 
L 383.205093 342.120916 
L 383.408104 342.351756 
L 383.814125 342.351756 
L 384.017136 342.582595 
L 384.626168 342.582595 
L 384.829178 342.813435 
L 385.235199 342.813435 
L 385.43821 343.044275 
L 386.047242 343.044275 
L 386.250252 343.275115 
L 386.859284 343.275115 
L 387.062295 343.505954 
L 387.671327 343.505954 
L 387.874337 343.736794 
L 388.68638 343.736794 
L 388.88939 343.967634 
L 389.701433 343.967634 
L 389.904443 340.966718 
L 390.107454 341.659237 
L 390.310464 341.659237 
L 391.325517 344.198473 
L 391.731538 345.352672 
L 394.573687 351.585344 
L 394.776697 351.816183 
L 395.182719 352.508702 
L 395.385729 352.739542 
L 395.79175 353.432061 
L 397.009814 354.817099 
L 397.212825 354.817099 
L 397.618846 355.278779 
L 398.024867 355.278779 
L 398.227878 355.509618 
L 399.851962 355.509618 
L 400.054973 355.278779 
L 400.460994 355.278779 
L 400.867015 354.817099 
L 403.303142 349.046107 
L 404.115185 346.045191 
L 405.536259 339.12 
L 405.73927 337.965802 
L 406.145291 340.735878 
L 406.551312 341.428397 
L 406.754323 341.659237 
L 406.957333 341.659237 
L 407.160344 341.890076 
L 407.566365 341.890076 
L 407.769376 342.120916 
L 408.175397 342.120916 
L 408.378407 342.351756 
L 408.784429 342.351756 
L 408.987439 342.582595 
L 409.596471 342.582595 
L 409.799482 342.813435 
L 410.205503 342.813435 
L 410.408513 343.044275 
L 411.017545 343.044275 
L 411.220556 343.275115 
L 411.829588 343.275115 
L 412.032598 343.505954 
L 412.844641 343.505954 
L 413.047651 343.736794 
L 413.656683 343.736794 
L 413.859693 343.967634 
L 414.671736 343.967634 
L 414.874746 341.659237 
L 415.077757 341.428397 
L 415.280768 341.659237 
L 416.498831 344.660153 
L 416.904852 345.814351 
L 419.54399 351.585344 
L 419.747001 351.816183 
L 420.153022 352.508702 
L 420.559043 352.970382 
L 420.965064 353.662901 
L 421.777107 354.58626 
L 421.980117 354.58626 
L 422.386139 355.047939 
L 422.589149 355.047939 
L 422.79216 355.278779 
L 422.99517 355.278779 
L 423.198181 355.509618 
L 424.822266 355.509618 
L 425.025276 355.278779 
L 425.431297 355.278779 
L 425.634308 355.047939 
L 425.837319 355.047939 
L 426.24334 353.89374 
L 426.44635 353.662901 
L 428.273446 349.276947 
L 429.085488 346.276031 
L 430.506562 339.35084 
L 430.709573 338.196641 
L 431.115594 340.505038 
L 431.521615 341.428397 
L 431.724626 341.428397 
L 431.927637 341.659237 
L 432.130647 341.659237 
L 432.333658 341.890076 
L 432.536668 341.890076 
L 432.739679 342.120916 
L 433.1457 342.120916 
L 433.348711 342.351756 
L 433.957743 342.351756 
L 434.160753 342.582595 
L 434.566774 342.582595 
L 434.769785 342.813435 
L 435.378817 342.813435 
L 435.581827 343.044275 
L 435.987848 343.044275 
L 436.190859 343.275115 
L 436.799891 343.275115 
L 437.002901 343.505954 
L 437.814944 343.505954 
L 438.017954 343.736794 
L 438.626986 343.736794 
L 438.829997 343.967634 
L 439.642039 343.967634 
L 439.84505 342.120916 
L 440.04806 341.428397 
L 440.454082 341.890076 
L 441.266124 343.967634 
L 441.875156 345.814351 
L 444.311283 351.123664 
L 444.514294 351.354504 
L 445.123325 352.508702 
L 445.732357 353.201221 
L 446.138378 353.89374 
L 446.74741 354.58626 
L 446.950421 354.58626 
L 447.356442 355.047939 
L 447.559452 355.047939 
L 447.762463 355.278779 
L 447.965474 355.278779 
L 448.168484 355.509618 
L 449.99558 355.509618 
L 450.19859 355.278779 
L 450.401601 355.278779 
L 450.604611 355.047939 
L 450.807622 355.047939 
L 453.243749 349.276947 
L 454.258802 345.583511 
L 455.476866 339.581679 
L 455.679876 338.427481 
L 455.882887 338.658321 
L 456.085897 340.505038 
L 456.491919 341.428397 
L 456.694929 341.428397 
L 456.89794 341.659237 
L 457.10095 341.659237 
L 457.303961 341.890076 
L 457.506972 341.890076 
L 457.709982 342.120916 
L 458.116003 342.120916 
L 458.319014 342.351756 
L 458.928046 342.351756 
L 459.131056 342.582595 
L 459.537078 342.582595 
L 459.740088 342.813435 
L 460.34912 342.813435 
L 460.552131 343.044275 
L 461.161162 343.044275 
L 461.364173 343.275115 
L 461.973205 343.275115 
L 462.176215 343.505954 
L 462.785247 343.505954 
L 462.988258 343.736794 
L 463.8003 343.736794 
L 464.003311 343.967634 
L 464.612343 343.967634 
L 465.018364 341.197557 
L 467.04847 346.045191 
L 467.454491 347.199389 
L 469.078576 350.661985 
L 469.281586 350.892824 
L 469.890618 352.047023 
L 470.093629 352.277863 
L 470.49965 352.970382 
L 471.108682 353.662901 
L 471.311692 354.12458 
L 471.514703 354.12458 
L 472.326745 355.047939 
L 472.529756 355.047939 
L 472.732766 355.278779 
L 472.935777 355.278779 
L 473.138788 355.509618 
L 474.965883 355.509618 
L 475.168894 355.278779 
L 475.371904 355.278779 
L 475.574915 355.047939 
L 475.777925 355.047939 
L 478.417063 348.815267 
L 479.026095 346.50687 
L 480.85319 338.196641 
L 481.056201 340.505038 
L 481.259211 340.735878 
L 481.462222 341.428397 
L 481.665233 341.428397 
L 481.868243 341.659237 
L 482.071254 341.659237 
L 482.274264 341.890076 
L 482.680286 341.890076 
L 482.883296 342.120916 
L 483.289317 342.120916 
L 483.492328 342.351756 
L 483.898349 342.351756 
L 484.10136 342.582595 
L 484.507381 342.582595 
L 484.710392 342.813435 
L 485.319423 342.813435 
L 485.522434 343.044275 
L 486.131466 343.044275 
L 486.334476 343.275115 
L 486.943508 343.275115 
L 487.146519 343.505954 
L 487.755551 343.505954 
L 487.958561 343.736794 
L 488.770603 343.736794 
L 488.973614 343.967634 
L 489.582646 343.967634 
L 489.785656 343.044275 
L 489.988667 341.197557 
L 492.424794 346.96855 
L 492.830815 348.122748 
L 494.048879 350.661985 
L 494.25189 350.892824 
L 494.860921 352.047023 
L 495.063932 352.277863 
L 495.469953 352.970382 
L 497.297049 355.047939 
L 497.500059 355.047939 
L 497.70307 355.278779 
L 497.90608 355.278779 
L 498.109091 355.509618 
L 498.109091 355.509618 
" style="fill:none;stroke:#bf00bf;stroke-linecap:square;stroke-width:1.5;"/>
   </g>
   <g id="line2d_34">
    <path clip-path="url(#p6aed13672b)" d="M 92.290909 347.430229 
L 92.49392 347.430229 
L 92.69693 347.430229 
L 93.102951 336.580763 
L 93.305962 334.964885 
L 93.508973 334.272366 
L 93.914994 333.810687 
L 95.742089 333.810687 
L 95.9451 333.579847 
L 97.569185 333.579847 
L 98.178216 336.119084 
L 98.381227 335.888244 
L 98.787248 333.810687 
L 99.802301 323.65374 
L 103.659502 280.948397 
L 105.283587 265.251298 
L 107.516704 245.860763 
L 109.54681 230.394504 
L 112.591969 210.31145 
L 115.434117 194.614351 
L 117.667234 183.995725 
L 117.870244 215.620763 
L 118.073255 221.853435 
L 118.276265 224.161832 
L 118.479276 224.623511 
L 118.682287 224.392672 
L 118.885297 225.54687 
L 119.088308 167.375267 
L 119.291318 191.151756 
L 119.494329 183.764885 
L 119.69734 189.535878 
L 119.90035 191.151756 
L 120.712393 209.388092 
L 121.524435 235.472977 
L 122.539488 275.408244 
L 124.163573 343.967634 
L 124.569594 340.735878 
L 124.772604 340.505038 
L 125.178626 339.812519 
L 125.381636 339.812519 
L 125.584647 339.581679 
L 126.193679 339.581679 
L 126.396689 339.35084 
L 129.035827 339.35084 
L 129.238838 339.12 
L 130.456901 339.12 
L 130.659912 345.583511 
L 130.862922 345.121832 
L 131.471954 342.120916 
L 133.096039 336.811603 
L 133.908081 334.734046 
L 134.314103 333.579847 
L 138.577325 324.11542 
L 138.780336 323.88458 
L 139.795389 321.807023 
L 139.998399 321.576183 
L 140.607431 320.421985 
L 140.810442 320.191145 
L 141.419473 319.036947 
L 141.622484 318.806107 
L 142.028505 318.113588 
L 142.231516 317.882748 
L 142.840548 316.72855 
L 143.449579 316.036031 
L 143.855601 315.343511 
L 144.058611 315.112672 
L 144.464632 314.420153 
L 145.276675 313.496794 
L 145.682696 312.804275 
L 147.306781 310.957557 
L 147.712802 310.265038 
L 148.321834 309.572519 
L 148.524844 309.572519 
L 150.55495 307.264122 
L 150.757961 307.264122 
L 151.773014 306.109924 
L 151.976024 306.109924 
L 152.788067 305.186565 
L 152.991077 305.186565 
L 153.397099 304.724885 
L 153.600109 304.724885 
L 154.209141 304.032366 
L 154.412152 304.032366 
L 154.818173 303.570687 
L 155.021183 303.570687 
L 155.427205 303.109008 
L 155.630215 303.109008 
L 156.036236 302.647328 
L 156.239247 302.647328 
L 156.442257 302.416489 
L 156.645268 302.416489 
L 157.051289 301.954809 
L 157.2543 301.954809 
L 157.45731 301.723969 
L 157.660321 301.723969 
L 158.066342 301.26229 
L 158.269353 301.26229 
L 158.472363 301.03145 
L 158.675374 301.03145 
L 158.878385 300.800611 
L 159.081395 300.800611 
L 159.284406 300.569771 
L 159.487416 300.569771 
L 159.690427 300.338931 
L 159.893438 300.338931 
L 160.096448 300.108092 
L 160.299459 300.108092 
L 160.502469 299.877252 
L 160.70548 299.877252 
L 160.908491 299.646412 
L 161.111501 299.646412 
L 161.314512 299.415573 
L 161.517522 299.415573 
L 161.720533 299.184733 
L 161.923544 299.184733 
L 162.126554 298.953893 
L 162.532575 298.953893 
L 162.735586 298.723053 
L 162.938597 298.723053 
L 163.141607 298.492214 
L 163.547628 298.492214 
L 163.750639 298.261374 
L 163.95365 298.261374 
L 164.15666 298.030534 
L 164.562681 298.030534 
L 164.765692 297.799695 
L 164.968703 297.799695 
L 165.171713 297.568855 
L 165.577734 297.568855 
L 165.780745 297.338015 
L 166.186766 297.338015 
L 166.389777 297.107176 
L 166.795798 297.107176 
L 166.998808 296.876336 
L 167.40483 296.876336 
L 167.60784 296.645496 
L 168.013861 296.645496 
L 168.216872 296.414656 
L 168.622893 296.414656 
L 168.825904 296.183817 
L 169.231925 296.183817 
L 169.434936 295.952977 
L 170.043967 295.952977 
L 170.246978 295.722137 
L 170.652999 295.722137 
L 170.85601 295.491298 
L 171.465042 295.491298 
L 171.668052 295.260458 
L 172.277084 295.260458 
L 172.480095 295.029618 
L 172.683105 302.647328 
L 173.089126 300.569771 
L 173.292137 302.416489 
L 173.495148 302.878168 
L 174.510201 310.495878 
L 175.119232 317.882748 
L 175.931275 332.194809 
L 176.743317 351.123664 
L 177.352349 348.815267 
L 177.555359 348.353588 
L 177.75837 348.353588 
L 177.961381 348.122748 
L 180.803529 348.122748 
L 181.00654 348.353588 
L 183.036646 348.353588 
L 183.239656 348.584427 
L 185.878794 348.584427 
L 186.081805 348.815267 
L 190.548038 348.815267 
L 190.751048 349.046107 
L 204.555769 349.046107 
L 204.758779 354.12458 
L 204.96179 353.201221 
L 205.164801 353.201221 
L 205.367811 352.970382 
L 205.976843 352.970382 
L 207.194907 354.35542 
L 207.803938 355.509618 
L 208.006949 355.740458 
L 208.41297 356.432977 
L 208.615981 356.663817 
L 209.022002 357.356336 
L 210.443076 358.972214 
L 210.646087 358.972214 
L 210.849097 359.203053 
L 211.052108 359.203053 
L 211.255118 359.433893 
L 212.270171 359.433893 
L 212.473182 359.203053 
L 212.676193 359.203053 
L 212.879203 358.972214 
L 213.082214 358.972214 
L 213.488235 358.510534 
L 213.691246 358.972214 
L 214.097267 358.972214 
L 214.503288 358.510534 
L 215.31533 356.432977 
L 215.924362 354.12458 
L 216.939415 348.122748 
L 217.954468 339.581679 
L 218.157479 339.581679 
L 218.360489 340.043359 
L 218.5635 340.043359 
L 218.766511 340.274198 
L 218.969521 340.274198 
L 219.172532 340.505038 
L 219.578553 340.505038 
L 219.781564 340.735878 
L 219.984574 340.735878 
L 220.187585 340.966718 
L 220.390595 340.966718 
L 220.593606 341.197557 
L 220.796616 341.197557 
L 220.999627 341.428397 
L 221.202638 341.428397 
L 221.405648 341.659237 
L 221.811669 341.659237 
L 222.01468 341.890076 
L 222.217691 341.890076 
L 222.420701 342.120916 
L 222.826722 342.120916 
L 223.029733 342.351756 
L 223.232744 342.351756 
L 223.435754 342.582595 
L 223.841775 342.582595 
L 224.044786 342.813435 
L 224.450807 342.813435 
L 224.653818 343.044275 
L 225.059839 343.044275 
L 225.26285 343.275115 
L 225.668871 343.275115 
L 225.871881 343.505954 
L 226.277903 343.505954 
L 226.480913 343.736794 
L 227.089945 343.736794 
L 227.292956 343.967634 
L 227.698977 343.967634 
L 227.901987 344.198473 
L 228.511019 344.198473 
L 228.71403 344.429313 
L 229.323062 344.429313 
L 229.526072 344.660153 
L 230.338115 344.660153 
L 230.541125 344.890992 
L 231.150157 344.890992 
L 231.353167 345.121832 
L 232.16521 345.121832 
L 232.36822 345.352672 
L 233.383273 345.352672 
L 233.586284 345.583511 
L 234.398326 345.583511 
L 234.601337 345.814351 
L 235.819401 345.814351 
L 236.022411 346.045191 
L 237.037464 346.045191 
L 237.240475 346.276031 
L 237.443485 346.276031 
L 237.646496 349.507786 
L 237.849507 348.122748 
L 238.052517 348.584427 
L 238.255528 348.353588 
L 238.458538 348.353588 
L 238.661549 348.584427 
L 238.86456 348.584427 
L 239.270581 349.046107 
L 239.473591 349.046107 
L 242.112729 352.047023 
L 242.31574 352.047023 
L 242.924771 352.739542 
L 243.127782 352.739542 
L 243.533803 353.201221 
L 243.736814 353.201221 
L 243.939824 353.432061 
L 244.142835 353.432061 
L 244.345846 353.662901 
L 244.954877 353.662901 
L 245.157888 353.89374 
L 246.172941 353.89374 
L 246.375952 353.662901 
L 246.984983 353.662901 
L 247.187994 353.432061 
L 247.594015 353.432061 
L 247.797026 353.662901 
L 248.000036 353.662901 
L 248.203047 353.432061 
L 248.406058 353.432061 
L 249.015089 352.739542 
L 250.436164 349.276947 
L 251.045195 346.96855 
L 252.263259 341.197557 
L 252.466269 341.659237 
L 252.66928 341.659237 
L 252.872291 341.890076 
L 253.075301 341.890076 
L 253.278312 342.120916 
L 253.684333 342.120916 
L 253.887344 342.351756 
L 254.293365 342.351756 
L 254.496375 342.582595 
L 254.902397 342.582595 
L 255.105407 342.813435 
L 255.511428 342.813435 
L 255.714439 343.044275 
L 256.12046 343.044275 
L 256.323471 343.275115 
L 256.729492 343.275115 
L 256.932503 343.505954 
L 257.338524 343.505954 
L 257.541534 343.736794 
L 257.947556 343.736794 
L 258.150566 343.967634 
L 258.759598 343.967634 
L 258.962609 344.198473 
L 259.57164 344.198473 
L 259.774651 344.429313 
L 260.383683 344.429313 
L 260.586693 344.660153 
L 261.195725 344.660153 
L 261.398736 344.890992 
L 262.210778 344.890992 
L 262.413789 345.121832 
L 263.225831 345.121832 
L 263.428842 345.352672 
L 264.037873 345.352672 
L 264.443895 347.430229 
L 264.646905 346.96855 
L 264.849916 347.199389 
L 265.255937 347.199389 
L 265.458948 347.430229 
L 265.661958 347.430229 
L 266.067979 347.891908 
L 266.27099 347.891908 
L 267.083032 348.815267 
L 267.286043 348.815267 
L 268.504107 350.200305 
L 268.707117 350.200305 
L 269.316149 350.892824 
L 269.51916 350.892824 
L 269.925181 351.354504 
L 270.128191 351.354504 
L 270.534213 351.816183 
L 270.737223 351.816183 
L 270.940234 352.047023 
L 271.346255 352.047023 
L 271.549266 352.277863 
L 272.158297 352.277863 
L 272.361308 352.508702 
L 273.782382 352.508702 
L 273.985393 352.277863 
L 274.594424 352.277863 
L 274.797435 352.047023 
L 275.000446 352.277863 
L 275.406467 352.277863 
L 275.609477 352.047023 
L 275.812488 352.047023 
L 276.827541 350.892824 
L 278.451626 346.96855 
L 279.466679 343.275115 
L 279.8727 341.659237 
L 280.075711 342.351756 
L 280.278721 342.120916 
L 280.481732 342.351756 
L 280.684742 342.351756 
L 280.887753 342.582595 
L 281.496785 342.582595 
L 281.699795 342.813435 
L 281.902806 342.813435 
L 282.105817 343.044275 
L 282.511838 343.044275 
L 282.714848 343.275115 
L 283.32388 343.275115 
L 283.526891 343.505954 
L 283.932912 343.505954 
L 284.135923 343.736794 
L 284.541944 343.736794 
L 284.744954 343.967634 
L 285.353986 343.967634 
L 285.556997 344.198473 
L 286.166028 344.198473 
L 286.369039 344.429313 
L 286.978071 344.429313 
L 287.181081 344.660153 
L 287.790113 344.660153 
L 287.993124 344.890992 
L 288.805166 344.890992 
L 289.008177 345.121832 
L 289.414198 345.121832 
L 289.820219 346.96855 
L 290.02323 346.50687 
L 290.22624 346.73771 
L 290.632262 346.73771 
L 290.835272 346.96855 
L 291.038283 346.96855 
L 291.444304 347.430229 
L 291.647315 347.430229 
L 292.256346 348.122748 
L 292.459357 348.122748 
L 293.47441 349.276947 
L 293.677421 349.276947 
L 294.489463 350.200305 
L 294.692474 350.200305 
L 295.098495 350.661985 
L 295.301505 350.661985 
L 295.707526 351.123664 
L 295.910537 351.123664 
L 296.113548 351.354504 
L 296.316558 351.354504 
L 296.519569 351.585344 
L 296.92559 351.585344 
L 297.128601 351.816183 
L 297.534622 351.816183 
L 297.737632 352.047023 
L 299.767738 352.047023 
L 299.970749 351.816183 
L 301.391823 351.816183 
L 301.797844 351.354504 
L 302.000855 351.354504 
L 302.406876 350.892824 
L 304.436982 346.045191 
L 305.655046 341.890076 
L 305.858056 342.351756 
L 306.061067 342.351756 
L 306.264077 342.582595 
L 306.873109 342.582595 
L 307.07612 342.813435 
L 307.482141 342.813435 
L 307.685152 343.044275 
L 308.091173 343.044275 
L 308.294183 343.275115 
L 308.700205 343.275115 
L 308.903215 343.505954 
L 309.309236 343.505954 
L 309.512247 343.736794 
L 310.121279 343.736794 
L 310.324289 343.967634 
L 310.730311 343.967634 
L 310.933321 344.198473 
L 311.542353 344.198473 
L 311.745364 344.429313 
L 312.354395 344.429313 
L 312.557406 344.660153 
L 313.369448 344.660153 
L 313.572459 344.890992 
L 314.181491 344.890992 
L 314.384501 345.121832 
L 314.587512 345.121832 
L 314.790523 346.50687 
L 315.399554 346.50687 
L 315.602565 346.73771 
L 315.805576 346.73771 
L 316.008586 346.96855 
L 316.211597 346.96855 
L 316.414607 347.199389 
L 316.617618 347.199389 
L 317.22665 347.891908 
L 317.42966 347.891908 
L 318.241703 348.815267 
L 318.444713 348.815267 
L 319.256756 349.738626 
L 319.459766 349.738626 
L 320.068798 350.431145 
L 320.271809 350.431145 
L 320.474819 350.661985 
L 320.67783 350.661985 
L 321.083851 351.123664 
L 321.286862 351.123664 
L 321.489872 351.354504 
L 321.692883 351.354504 
L 321.895893 351.585344 
L 322.301915 351.585344 
L 322.504925 351.816183 
L 323.519978 351.816183 
L 323.722989 352.047023 
L 324.12901 352.047023 
L 324.332021 351.816183 
L 325.347074 351.816183 
L 325.550084 351.585344 
L 325.753095 351.585344 
L 325.956105 351.816183 
L 326.362127 351.816183 
L 326.565137 351.585344 
L 326.768148 351.585344 
L 327.986211 350.200305 
L 329.610296 346.276031 
L 330.82836 341.890076 
L 331.03137 342.351756 
L 331.437391 342.351756 
L 331.640402 342.582595 
L 332.046423 342.582595 
L 332.249434 342.813435 
L 332.655455 342.813435 
L 332.858466 343.044275 
L 333.264487 343.044275 
L 333.467497 343.275115 
L 333.873519 343.275115 
L 334.076529 343.505954 
L 334.48255 343.505954 
L 334.685561 343.736794 
L 335.294593 343.736794 
L 335.497603 343.967634 
L 335.903625 343.967634 
L 336.106635 344.198473 
L 336.715667 344.198473 
L 336.918678 344.429313 
L 337.527709 344.429313 
L 337.73072 344.660153 
L 338.542762 344.660153 
L 338.745773 344.890992 
L 339.354805 344.890992 
L 339.557815 345.121832 
L 339.963836 346.73771 
L 340.166847 346.50687 
L 340.572868 346.50687 
L 340.775879 346.73771 
L 340.978889 346.73771 
L 341.1819 346.96855 
L 341.384911 346.96855 
L 341.790932 347.430229 
L 341.993942 347.430229 
L 342.602974 348.122748 
L 342.805985 348.122748 
L 343.821038 349.276947 
L 344.024048 349.276947 
L 344.63308 349.969466 
L 344.836091 349.969466 
L 345.242112 350.431145 
L 345.445123 350.431145 
L 345.851144 350.892824 
L 346.054154 350.892824 
L 346.257165 351.123664 
L 346.460176 351.123664 
L 346.663186 351.354504 
L 346.866197 351.354504 
L 347.069207 351.585344 
L 347.475229 351.585344 
L 347.678239 351.816183 
L 350.317377 351.816183 
L 350.520387 351.585344 
L 350.926409 351.585344 
L 351.129419 351.816183 
L 351.33243 351.585344 
L 351.738451 351.585344 
L 351.941462 351.354504 
L 352.144472 351.354504 
L 352.753504 350.661985 
L 353.362536 349.507786 
L 353.565546 349.276947 
L 354.377589 347.199389 
L 356.001674 341.890076 
L 356.204684 342.351756 
L 356.407695 342.351756 
L 356.610705 342.582595 
L 357.016727 342.582595 
L 357.219737 342.813435 
L 357.625758 342.813435 
L 357.828769 343.044275 
L 358.23479 343.044275 
L 358.437801 343.275115 
L 358.843822 343.275115 
L 359.046833 343.505954 
L 359.655864 343.505954 
L 359.858875 343.736794 
L 360.264896 343.736794 
L 360.467907 343.967634 
L 361.076938 343.967634 
L 361.279949 344.198473 
L 361.888981 344.198473 
L 362.091991 344.429313 
L 362.701023 344.429313 
L 362.904034 344.660153 
L 363.513066 344.660153 
L 363.716076 344.890992 
L 364.528119 344.890992 
L 364.731129 345.352672 
L 364.93414 346.96855 
L 365.13715 346.276031 
L 365.340161 346.50687 
L 365.543172 346.50687 
L 365.746182 346.73771 
L 365.949193 346.73771 
L 366.152203 346.96855 
L 366.355214 346.96855 
L 366.558225 347.199389 
L 366.761235 347.199389 
L 367.370267 347.891908 
L 367.573278 347.891908 
L 368.38532 348.815267 
L 368.588331 348.815267 
L 369.400373 349.738626 
L 369.603384 349.738626 
L 370.212415 350.431145 
L 370.415426 350.431145 
L 370.618436 350.661985 
L 370.821447 350.661985 
L 371.227468 351.123664 
L 371.430479 351.123664 
L 371.633489 351.354504 
L 372.039511 351.354504 
L 372.242521 351.585344 
L 372.648542 351.585344 
L 372.851553 351.816183 
L 375.28768 351.816183 
L 375.490691 351.585344 
L 375.896712 351.585344 
L 376.099723 351.816183 
L 376.302733 351.585344 
L 376.708754 351.585344 
L 376.911765 351.354504 
L 377.114776 351.354504 
L 377.926818 350.431145 
L 379.956924 345.583511 
L 380.971977 341.890076 
L 381.174987 342.351756 
L 381.377998 342.351756 
L 381.581009 342.582595 
L 381.98703 342.582595 
L 382.19004 342.813435 
L 382.596062 342.813435 
L 382.799072 343.044275 
L 383.205093 343.044275 
L 383.408104 343.275115 
L 384.017136 343.275115 
L 384.220146 343.505954 
L 384.626168 343.505954 
L 384.829178 343.736794 
L 385.235199 343.736794 
L 385.43821 343.967634 
L 386.047242 343.967634 
L 386.250252 344.198473 
L 386.859284 344.198473 
L 387.062295 344.429313 
L 387.671327 344.429313 
L 387.874337 344.660153 
L 388.483369 344.660153 
L 388.68638 344.890992 
L 389.498422 344.890992 
L 389.701433 345.121832 
L 389.904443 346.96855 
L 390.107454 346.276031 
L 390.310464 346.50687 
L 390.513475 346.50687 
L 390.716486 346.73771 
L 391.122507 346.73771 
L 391.528528 347.199389 
L 391.731538 347.199389 
L 392.13756 347.661069 
L 392.34057 347.661069 
L 393.152613 348.584427 
L 393.355623 348.584427 
L 394.167666 349.507786 
L 394.370676 349.507786 
L 394.979708 350.200305 
L 395.182719 350.200305 
L 395.58874 350.661985 
L 395.79175 350.661985 
L 395.994761 350.892824 
L 396.197772 350.892824 
L 396.400782 351.123664 
L 396.603793 351.123664 
L 396.806803 351.354504 
L 397.009814 351.354504 
L 397.212825 351.585344 
L 397.618846 351.585344 
L 397.821856 351.816183 
L 400.257984 351.816183 
L 400.460994 351.585344 
L 400.867015 351.585344 
L 401.070026 351.816183 
L 401.273037 351.585344 
L 401.882068 351.585344 
L 403.100132 350.200305 
L 404.724217 346.276031 
L 405.94228 342.120916 
L 406.145291 342.351756 
L 406.348301 342.351756 
L 406.551312 342.582595 
L 407.160344 342.582595 
L 407.363354 342.813435 
L 407.769376 342.813435 
L 407.972386 343.044275 
L 408.378407 343.044275 
L 408.581418 343.275115 
L 408.987439 343.275115 
L 409.19045 343.505954 
L 409.596471 343.505954 
L 409.799482 343.736794 
L 410.205503 343.736794 
L 410.408513 343.967634 
L 411.017545 343.967634 
L 411.220556 344.198473 
L 411.829588 344.198473 
L 412.032598 344.429313 
L 412.64163 344.429313 
L 412.844641 344.660153 
L 413.453672 344.660153 
L 413.656683 344.890992 
L 414.468725 344.890992 
L 414.671736 345.121832 
L 414.874746 346.73771 
L 415.077757 346.50687 
L 415.686789 346.50687 
L 415.889799 346.73771 
L 416.09281 346.73771 
L 416.295821 346.96855 
L 416.498831 346.96855 
L 417.107863 347.661069 
L 417.310874 347.661069 
L 418.122916 348.584427 
L 418.325927 348.584427 
L 419.137969 349.507786 
L 419.34098 349.507786 
L 419.950011 350.200305 
L 420.153022 350.200305 
L 420.559043 350.661985 
L 420.762054 350.661985 
L 420.965064 350.892824 
L 421.168075 350.892824 
L 421.371086 351.123664 
L 421.574096 351.123664 
L 421.777107 351.354504 
L 421.980117 351.354504 
L 422.183128 351.585344 
L 422.589149 351.585344 
L 422.79216 351.816183 
L 425.228287 351.816183 
L 425.431297 351.585344 
L 425.837319 351.585344 
L 426.040329 351.816183 
L 426.24334 351.585344 
L 426.852372 351.585344 
L 428.070435 350.200305 
L 429.897531 345.814351 
L 430.912584 342.120916 
L 431.115594 342.120916 
L 431.318605 342.351756 
L 431.521615 342.351756 
L 431.724626 342.582595 
L 432.130647 342.582595 
L 432.333658 342.813435 
L 432.739679 342.813435 
L 432.94269 343.044275 
L 433.348711 343.044275 
L 433.551721 343.275115 
L 433.957743 343.275115 
L 434.160753 343.505954 
L 434.566774 343.505954 
L 434.769785 343.736794 
L 435.378817 343.736794 
L 435.581827 343.967634 
L 435.987848 343.967634 
L 436.190859 344.198473 
L 436.799891 344.198473 
L 437.002901 344.429313 
L 437.611933 344.429313 
L 437.814944 344.660153 
L 438.626986 344.660153 
L 438.829997 344.890992 
L 439.439029 344.890992 
L 439.642039 345.121832 
L 439.84505 346.276031 
L 440.04806 346.50687 
L 440.657092 346.50687 
L 440.860103 346.73771 
L 441.063113 346.73771 
L 441.266124 346.96855 
L 441.469135 346.96855 
L 441.875156 347.430229 
L 442.078166 347.430229 
L 442.890209 348.353588 
L 443.093219 348.353588 
L 443.905262 349.276947 
L 444.108272 349.276947 
L 444.717304 349.969466 
L 444.920315 349.969466 
L 445.326336 350.431145 
L 445.529346 350.431145 
L 445.935368 350.892824 
L 446.138378 350.892824 
L 446.341389 351.123664 
L 446.544399 351.123664 
L 446.74741 351.354504 
L 446.950421 351.354504 
L 447.153431 351.585344 
L 447.762463 351.585344 
L 447.965474 351.816183 
L 450.19859 351.816183 
L 450.401601 351.585344 
L 451.822675 351.585344 
L 452.228696 351.123664 
L 452.431707 351.123664 
L 452.634717 350.892824 
L 453.040739 350.200305 
L 453.243749 349.969466 
L 454.664823 346.50687 
L 455.882887 342.351756 
L 456.085897 342.120916 
L 456.288908 342.351756 
L 456.491919 342.351756 
L 456.694929 342.582595 
L 457.10095 342.582595 
L 457.303961 342.813435 
L 457.709982 342.813435 
L 457.912993 343.044275 
L 458.319014 343.044275 
L 458.522025 343.275115 
L 458.928046 343.275115 
L 459.131056 343.505954 
L 459.537078 343.505954 
L 459.740088 343.736794 
L 460.34912 343.736794 
L 460.552131 343.967634 
L 461.161162 343.967634 
L 461.364173 344.198473 
L 461.770194 344.198473 
L 461.973205 344.429313 
L 462.582237 344.429313 
L 462.785247 344.660153 
L 463.59729 344.660153 
L 463.8003 344.890992 
L 464.409332 344.890992 
L 464.612343 345.121832 
L 465.018364 346.73771 
L 465.221374 346.50687 
L 465.627396 346.50687 
L 465.830406 346.73771 
L 466.033417 346.73771 
L 466.236427 346.96855 
L 466.439438 346.96855 
L 466.845459 347.430229 
L 467.04847 347.430229 
L 467.657501 348.122748 
L 467.860512 348.122748 
L 468.672554 349.046107 
L 468.875565 349.046107 
L 469.687607 349.969466 
L 469.890618 349.969466 
L 470.296639 350.431145 
L 470.49965 350.431145 
L 470.905671 350.892824 
L 471.108682 350.892824 
L 471.311692 351.123664 
L 471.514703 351.123664 
L 471.717713 351.354504 
L 472.123735 351.354504 
L 472.326745 351.585344 
L 472.732766 351.585344 
L 472.935777 351.816183 
L 475.168894 351.816183 
L 475.371904 351.585344 
L 476.792978 351.585344 
L 476.995989 351.354504 
L 477.198999 351.354504 
L 477.808031 350.661985 
L 478.417063 349.507786 
L 478.620074 349.276947 
L 479.432116 347.199389 
L 481.056201 341.890076 
L 481.259211 342.351756 
L 481.462222 342.351756 
L 481.665233 342.582595 
L 482.071254 342.582595 
L 482.274264 342.813435 
L 482.680286 342.813435 
L 482.883296 343.044275 
L 483.289317 343.044275 
L 483.492328 343.275115 
L 483.898349 343.275115 
L 484.10136 343.505954 
L 484.710392 343.505954 
L 484.913402 343.736794 
L 485.319423 343.736794 
L 485.522434 343.967634 
L 486.131466 343.967634 
L 486.334476 344.198473 
L 486.943508 344.198473 
L 487.146519 344.429313 
L 487.755551 344.429313 
L 487.958561 344.660153 
L 488.567593 344.660153 
L 488.770603 344.890992 
L 489.582646 344.890992 
L 489.785656 345.583511 
L 489.988667 346.73771 
L 490.191678 346.50687 
L 490.597699 346.50687 
L 490.800709 346.73771 
L 491.00372 346.73771 
L 491.206731 346.96855 
L 491.409741 346.96855 
L 491.612752 347.199389 
L 491.815762 347.199389 
L 492.424794 347.891908 
L 492.627805 347.891908 
L 493.642858 349.046107 
L 493.845868 349.046107 
L 494.4549 349.738626 
L 494.657911 349.738626 
L 495.266943 350.431145 
L 495.469953 350.431145 
L 495.672964 350.661985 
L 495.875974 350.661985 
L 496.281996 351.123664 
L 496.485006 351.123664 
L 496.688017 351.354504 
L 497.094038 351.354504 
L 497.297049 351.585344 
L 497.70307 351.585344 
L 497.90608 351.816183 
L 498.109091 351.816183 
L 498.109091 351.816183 
" style="fill:none;stroke:#00bfbf;stroke-linecap:square;stroke-width:1.5;"/>
   </g>
   <g id="line2d_35">
    <path clip-path="url(#p6aed13672b)" d="M 92.290909 347.430229 
L 92.49392 347.430229 
L 92.69693 333.118168 
L 92.899941 333.118168 
L 93.305962 333.810687 
L 93.508973 334.041527 
L 97.569185 334.041527 
L 97.772195 340.043359 
L 97.975206 342.120916 
L 98.178216 342.351756 
L 98.381227 341.659237 
L 98.787248 339.12 
L 99.599291 330.809771 
L 104.268534 278.87084 
L 107.719714 248.4 
L 109.343799 236.165496 
L 112.388958 216.082443 
L 115.434117 199.231145 
L 117.870244 187.92 
L 118.276265 212.158168 
L 118.682287 220.006718 
L 118.885297 220.699237 
L 119.088308 217.005802 
L 119.291318 179.378931 
L 119.494329 183.995725 
L 119.69734 181.456489 
L 120.712393 199.923664 
L 121.321424 216.313282 
L 122.133467 244.014046 
L 123.35153 293.182901 
L 124.366583 335.888244 
L 124.569594 337.504122 
L 125.381636 339.12 
L 125.584647 339.35084 
L 125.787657 339.35084 
L 125.990668 339.581679 
L 128.020774 339.581679 
L 128.223785 339.35084 
L 130.456901 339.35084 
L 130.659912 334.041527 
L 131.471954 338.196641 
L 131.877975 338.88916 
L 132.283997 338.88916 
L 132.690018 338.427481 
L 137.968293 326.654656 
L 138.171304 326.423817 
L 139.592378 323.422901 
L 139.795389 323.192061 
L 140.607431 321.576183 
L 140.810442 321.345344 
L 141.419473 320.191145 
L 141.622484 319.960305 
L 142.231516 318.806107 
L 142.637537 318.344427 
L 143.246569 317.190229 
L 143.855601 316.49771 
L 144.261622 315.805191 
L 144.464632 315.574351 
L 144.870654 314.881832 
L 145.479685 314.189313 
L 145.885706 313.496794 
L 147.10377 312.111756 
L 147.509791 311.419237 
L 149.539897 309.11084 
L 149.742908 309.11084 
L 151.366993 307.264122 
L 151.570003 307.264122 
L 152.382046 306.340763 
L 152.585056 306.340763 
L 153.397099 305.417405 
L 153.600109 305.417405 
L 154.00613 304.955725 
L 154.209141 304.955725 
L 154.818173 304.263206 
L 155.021183 304.263206 
L 155.427205 303.801527 
L 155.630215 303.801527 
L 156.036236 303.339847 
L 156.239247 303.339847 
L 156.442257 303.109008 
L 156.645268 303.109008 
L 157.051289 302.647328 
L 157.2543 302.647328 
L 157.660321 302.185649 
L 157.863332 302.185649 
L 158.066342 301.954809 
L 158.269353 301.954809 
L 158.472363 301.723969 
L 158.675374 301.723969 
L 158.878385 301.49313 
L 159.081395 301.49313 
L 159.487416 301.03145 
L 159.690427 301.03145 
L 159.893438 300.800611 
L 160.096448 300.800611 
L 160.299459 300.569771 
L 160.502469 300.569771 
L 160.70548 300.338931 
L 160.908491 300.338931 
L 161.111501 300.108092 
L 161.314512 300.108092 
L 161.517522 299.877252 
L 161.720533 299.877252 
L 161.923544 299.646412 
L 162.329565 299.646412 
L 162.532575 299.415573 
L 162.735586 299.415573 
L 162.938597 299.184733 
L 163.141607 299.184733 
L 163.344618 298.953893 
L 163.750639 298.953893 
L 163.95365 298.723053 
L 164.15666 298.723053 
L 164.359671 298.492214 
L 164.765692 298.492214 
L 164.968703 298.261374 
L 165.171713 298.261374 
L 165.374724 298.030534 
L 165.780745 298.030534 
L 165.983756 297.799695 
L 166.389777 297.799695 
L 166.592787 297.568855 
L 166.795798 297.568855 
L 166.998808 297.338015 
L 167.40483 297.338015 
L 167.60784 297.107176 
L 168.013861 297.107176 
L 168.216872 296.876336 
L 168.825904 296.876336 
L 169.028914 296.645496 
L 169.434936 296.645496 
L 169.637946 296.414656 
L 170.043967 296.414656 
L 170.246978 296.183817 
L 170.85601 296.183817 
L 171.05902 295.952977 
L 171.668052 295.952977 
L 171.871063 295.722137 
L 172.277084 295.722137 
L 172.480095 344.660153 
L 172.683105 347.430229 
L 498.109091 347.430229 
L 498.109091 347.430229 
" style="fill:none;stroke:#ff0000;stroke-linecap:square;stroke-width:1.5;"/>
   </g>
   <g id="patch_3">
    <path d="M 72 384.48 
L 72 51.84 
" style="fill:none;stroke:#000000;stroke-linecap:square;stroke-linejoin:miter;stroke-width:0.8;"/>
   </g>
   <g id="patch_4">
    <path d="M 518.4 384.48 
L 518.4 51.84 
" style="fill:none;stroke:#000000;stroke-linecap:square;stroke-linejoin:miter;stroke-width:0.8;"/>
   </g>
   <g id="patch_5">
    <path d="M 72 384.48 
L 518.4 384.48 
" style="fill:none;stroke:#000000;stroke-linecap:square;stroke-linejoin:miter;stroke-width:0.8;"/>
   </g>
   <g id="patch_6">
    <path d="M 72 51.84 
L 518.4 51.84 
" style="fill:none;stroke:#000000;stroke-linecap:square;stroke-linejoin:miter;stroke-width:0.8;"/>
   </g>
   <g id="legend_1">
    <g id="patch_7">
     <path d="M 368.520312 104.70875 
L 511.4 104.70875 
Q 513.4 104.70875 513.4 102.70875 
L 513.4 58.84 
Q 513.4 56.84 511.4 56.84 
L 368.520312 56.84 
Q 366.520312 56.84 366.520312 58.84 
L 366.520312 102.70875 
Q 366.520312 104.70875 368.520312 104.70875 
z
" style="fill:#ffffff;opacity:0.8;stroke:#cccccc;stroke-linejoin:miter;"/>
    </g>
    <g id="line2d_36">
     <path d="M 370.520312 64.938438 
L 390.520312 64.938438 
" style="fill:none;stroke:#bf00bf;stroke-linecap:square;stroke-width:1.5;"/>
    </g>
    <g id="line2d_37"/>
    <g id="text_19">
     <text style="font-family:DejaVu Sans;font-size:10px;font-style:normal;font-weight:400;text-anchor:start;" transform="rotate(-0, 398.520312, 68.438438)" x="398.520312" y="68.438438">$\Delta \lambda_{1}$</text>
    </g>
    <g id="line2d_38">
     <path d="M 370.520312 79.894688 
L 390.520312 79.894688 
" style="fill:none;stroke:#00bfbf;stroke-linecap:square;stroke-width:1.5;"/>
    </g>
    <g id="line2d_39"/>
    <g id="text_20">
     <text style="font-family:DejaVu Sans;font-size:10px;font-style:normal;font-weight:400;text-anchor:start;" transform="rotate(-0, 398.520312, 83.394688)" x="398.520312" y="83.394688">$\Delta \lambda_{2}$</text>
    </g>
    <g id="line2d_40">
     <path d="M 370.520312 94.850938 
L 390.520312 94.850938 
" style="fill:none;stroke:#ff0000;stroke-linecap:square;stroke-width:1.5;"/>
    </g>
    <g id="line2d_41"/>
    <g id="text_21">
     <text style="font-family:DejaVu Sans;font-size:10px;font-style:normal;font-weight:400;text-anchor:start;" transform="rotate(-0, 398.520312, 98.350938)" x="398.520312" y="98.350938">$\Delta \lambda_{3}$</text>
    </g>
   </g>
  </g>
 </g>
 <defs>
  <clipPath id="p6aed13672b">
   <rect height="332.64" width="446.4" x="72" y="51.84"/>
  </clipPath>
 </defs>
</svg>
