<?xml version="1.0" encoding="utf-8" standalone="no"?>
<!DOCTYPE svg PUBLIC "-//W3C//DTD SVG 1.1//EN"
  "http://www.w3.org/Graphics/SVG/1.1/DTD/svg11.dtd">
<!-- Created with matplotlib (http://matplotlib.org/) -->
<svg height="432pt" version="1.1" viewBox="0 0 576 432" width="576pt" xmlns="http://www.w3.org/2000/svg" xmlns:xlink="http://www.w3.org/1999/xlink">
 <defs>
  <style type="text/css">
*{stroke-linecap:butt;stroke-linejoin:round;}
  </style>
 </defs>
 <g id="figure_1">
  <g id="patch_1">
   <path d="M 0 432 
L 576 432 
L 576 0 
L 0 0 
z
" style="fill:#ffffff;"/>
  </g>
  <g id="axes_1">
   <g id="patch_2">
    <path d="M 72 384.48 
L 518.4 384.48 
L 518.4 51.84 
L 72 51.84 
z
" style="fill:#ffffff;"/>
   </g>
   <g id="matplotlib.axis_1">
    <g id="xtick_1">
     <g id="line2d_1">
      <path clip-path="url(#p78c6c0360f)" d="M 92.290909 384.48 
L 92.290909 51.84 
" style="fill:none;stroke:#b0b0b0;stroke-dasharray:5.12,1.28,0.8,1.28;stroke-dashoffset:0;stroke-width:0.8;"/>
     </g>
     <g id="line2d_2">
      <defs>
       <path d="M 0 0 
L 0 3.5 
" id="m668cb72a82" style="stroke:#000000;stroke-width:0.8;"/>
      </defs>
      <g>
       <use style="stroke:#000000;stroke-width:0.8;" x="92.290909" xlink:href="#m668cb72a82" y="384.48"/>
      </g>
     </g>
     <g id="text_1">
      <!-- 0 -->
      <defs>
       <path d="M 31.78125 66.40625 
Q 24.171875 66.40625 20.328125 58.90625 
Q 16.5 51.421875 16.5 36.375 
Q 16.5 21.390625 20.328125 13.890625 
Q 24.171875 6.390625 31.78125 6.390625 
Q 39.453125 6.390625 43.28125 13.890625 
Q 47.125 21.390625 47.125 36.375 
Q 47.125 51.421875 43.28125 58.90625 
Q 39.453125 66.40625 31.78125 66.40625 
z
M 31.78125 74.21875 
Q 44.046875 74.21875 50.515625 64.515625 
Q 56.984375 54.828125 56.984375 36.375 
Q 56.984375 17.96875 50.515625 8.265625 
Q 44.046875 -1.421875 31.78125 -1.421875 
Q 19.53125 -1.421875 13.0625 8.265625 
Q 6.59375 17.96875 6.59375 36.375 
Q 6.59375 54.828125 13.0625 64.515625 
Q 19.53125 74.21875 31.78125 74.21875 
z
" id="DejaVuSans-30"/>
      </defs>
      <g transform="translate(89.109659 399.078438)scale(0.1 -0.1)">
       <use xlink:href="#DejaVuSans-30"/>
      </g>
     </g>
    </g>
    <g id="xtick_2">
     <g id="line2d_3">
      <path clip-path="url(#p78c6c0360f)" d="M 157.766576 384.48 
L 157.766576 51.84 
" style="fill:none;stroke:#b0b0b0;stroke-dasharray:5.12,1.28,0.8,1.28;stroke-dashoffset:0;stroke-width:0.8;"/>
     </g>
     <g id="line2d_4">
      <g>
       <use style="stroke:#000000;stroke-width:0.8;" x="157.766576" xlink:href="#m668cb72a82" y="384.48"/>
      </g>
     </g>
     <g id="text_2">
      <!-- 500 -->
      <defs>
       <path d="M 10.796875 72.90625 
L 49.515625 72.90625 
L 49.515625 64.59375 
L 19.828125 64.59375 
L 19.828125 46.734375 
Q 21.96875 47.46875 24.109375 47.828125 
Q 26.265625 48.1875 28.421875 48.1875 
Q 40.625 48.1875 47.75 41.5 
Q 54.890625 34.8125 54.890625 23.390625 
Q 54.890625 11.625 47.5625 5.09375 
Q 40.234375 -1.421875 26.90625 -1.421875 
Q 22.3125 -1.421875 17.546875 -0.640625 
Q 12.796875 0.140625 7.71875 1.703125 
L 7.71875 11.625 
Q 12.109375 9.234375 16.796875 8.0625 
Q 21.484375 6.890625 26.703125 6.890625 
Q 35.15625 6.890625 40.078125 11.328125 
Q 45.015625 15.765625 45.015625 23.390625 
Q 45.015625 31 40.078125 35.4375 
Q 35.15625 39.890625 26.703125 39.890625 
Q 22.75 39.890625 18.8125 39.015625 
Q 14.890625 38.140625 10.796875 36.28125 
z
" id="DejaVuSans-35"/>
      </defs>
      <g transform="translate(148.222826 399.078438)scale(0.1 -0.1)">
       <use xlink:href="#DejaVuSans-35"/>
       <use x="63.623047" xlink:href="#DejaVuSans-30"/>
       <use x="127.246094" xlink:href="#DejaVuSans-30"/>
      </g>
     </g>
    </g>
    <g id="xtick_3">
     <g id="line2d_5">
      <path clip-path="url(#p78c6c0360f)" d="M 223.242242 384.48 
L 223.242242 51.84 
" style="fill:none;stroke:#b0b0b0;stroke-dasharray:5.12,1.28,0.8,1.28;stroke-dashoffset:0;stroke-width:0.8;"/>
     </g>
     <g id="line2d_6">
      <g>
       <use style="stroke:#000000;stroke-width:0.8;" x="223.242242" xlink:href="#m668cb72a82" y="384.48"/>
      </g>
     </g>
     <g id="text_3">
      <!-- 1000 -->
      <defs>
       <path d="M 12.40625 8.296875 
L 28.515625 8.296875 
L 28.515625 63.921875 
L 10.984375 60.40625 
L 10.984375 69.390625 
L 28.421875 72.90625 
L 38.28125 72.90625 
L 38.28125 8.296875 
L 54.390625 8.296875 
L 54.390625 0 
L 12.40625 0 
z
" id="DejaVuSans-31"/>
      </defs>
      <g transform="translate(210.517242 399.078438)scale(0.1 -0.1)">
       <use xlink:href="#DejaVuSans-31"/>
       <use x="63.623047" xlink:href="#DejaVuSans-30"/>
       <use x="127.246094" xlink:href="#DejaVuSans-30"/>
       <use x="190.869141" xlink:href="#DejaVuSans-30"/>
      </g>
     </g>
    </g>
    <g id="xtick_4">
     <g id="line2d_7">
      <path clip-path="url(#p78c6c0360f)" d="M 288.717909 384.48 
L 288.717909 51.84 
" style="fill:none;stroke:#b0b0b0;stroke-dasharray:5.12,1.28,0.8,1.28;stroke-dashoffset:0;stroke-width:0.8;"/>
     </g>
     <g id="line2d_8">
      <g>
       <use style="stroke:#000000;stroke-width:0.8;" x="288.717909" xlink:href="#m668cb72a82" y="384.48"/>
      </g>
     </g>
     <g id="text_4">
      <!-- 1500 -->
      <g transform="translate(275.992909 399.078438)scale(0.1 -0.1)">
       <use xlink:href="#DejaVuSans-31"/>
       <use x="63.623047" xlink:href="#DejaVuSans-35"/>
       <use x="127.246094" xlink:href="#DejaVuSans-30"/>
       <use x="190.869141" xlink:href="#DejaVuSans-30"/>
      </g>
     </g>
    </g>
    <g id="xtick_5">
     <g id="line2d_9">
      <path clip-path="url(#p78c6c0360f)" d="M 354.193576 384.48 
L 354.193576 51.84 
" style="fill:none;stroke:#b0b0b0;stroke-dasharray:5.12,1.28,0.8,1.28;stroke-dashoffset:0;stroke-width:0.8;"/>
     </g>
     <g id="line2d_10">
      <g>
       <use style="stroke:#000000;stroke-width:0.8;" x="354.193576" xlink:href="#m668cb72a82" y="384.48"/>
      </g>
     </g>
     <g id="text_5">
      <!-- 2000 -->
      <defs>
       <path d="M 19.1875 8.296875 
L 53.609375 8.296875 
L 53.609375 0 
L 7.328125 0 
L 7.328125 8.296875 
Q 12.9375 14.109375 22.625 23.890625 
Q 32.328125 33.6875 34.8125 36.53125 
Q 39.546875 41.84375 41.421875 45.53125 
Q 43.3125 49.21875 43.3125 52.78125 
Q 43.3125 58.59375 39.234375 62.25 
Q 35.15625 65.921875 28.609375 65.921875 
Q 23.96875 65.921875 18.8125 64.3125 
Q 13.671875 62.703125 7.8125 59.421875 
L 7.8125 69.390625 
Q 13.765625 71.78125 18.9375 73 
Q 24.125 74.21875 28.421875 74.21875 
Q 39.75 74.21875 46.484375 68.546875 
Q 53.21875 62.890625 53.21875 53.421875 
Q 53.21875 48.921875 51.53125 44.890625 
Q 49.859375 40.875 45.40625 35.40625 
Q 44.1875 33.984375 37.640625 27.21875 
Q 31.109375 20.453125 19.1875 8.296875 
z
" id="DejaVuSans-32"/>
      </defs>
      <g transform="translate(341.468576 399.078438)scale(0.1 -0.1)">
       <use xlink:href="#DejaVuSans-32"/>
       <use x="63.623047" xlink:href="#DejaVuSans-30"/>
       <use x="127.246094" xlink:href="#DejaVuSans-30"/>
       <use x="190.869141" xlink:href="#DejaVuSans-30"/>
      </g>
     </g>
    </g>
    <g id="xtick_6">
     <g id="line2d_11">
      <path clip-path="url(#p78c6c0360f)" d="M 419.669242 384.48 
L 419.669242 51.84 
" style="fill:none;stroke:#b0b0b0;stroke-dasharray:5.12,1.28,0.8,1.28;stroke-dashoffset:0;stroke-width:0.8;"/>
     </g>
     <g id="line2d_12">
      <g>
       <use style="stroke:#000000;stroke-width:0.8;" x="419.669242" xlink:href="#m668cb72a82" y="384.48"/>
      </g>
     </g>
     <g id="text_6">
      <!-- 2500 -->
      <g transform="translate(406.944242 399.078438)scale(0.1 -0.1)">
       <use xlink:href="#DejaVuSans-32"/>
       <use x="63.623047" xlink:href="#DejaVuSans-35"/>
       <use x="127.246094" xlink:href="#DejaVuSans-30"/>
       <use x="190.869141" xlink:href="#DejaVuSans-30"/>
      </g>
     </g>
    </g>
    <g id="xtick_7">
     <g id="line2d_13">
      <path clip-path="url(#p78c6c0360f)" d="M 485.144909 384.48 
L 485.144909 51.84 
" style="fill:none;stroke:#b0b0b0;stroke-dasharray:5.12,1.28,0.8,1.28;stroke-dashoffset:0;stroke-width:0.8;"/>
     </g>
     <g id="line2d_14">
      <g>
       <use style="stroke:#000000;stroke-width:0.8;" x="485.144909" xlink:href="#m668cb72a82" y="384.48"/>
      </g>
     </g>
     <g id="text_7">
      <!-- 3000 -->
      <defs>
       <path d="M 40.578125 39.3125 
Q 47.65625 37.796875 51.625 33 
Q 55.609375 28.21875 55.609375 21.1875 
Q 55.609375 10.40625 48.1875 4.484375 
Q 40.765625 -1.421875 27.09375 -1.421875 
Q 22.515625 -1.421875 17.65625 -0.515625 
Q 12.796875 0.390625 7.625 2.203125 
L 7.625 11.71875 
Q 11.71875 9.328125 16.59375 8.109375 
Q 21.484375 6.890625 26.8125 6.890625 
Q 36.078125 6.890625 40.9375 10.546875 
Q 45.796875 14.203125 45.796875 21.1875 
Q 45.796875 27.640625 41.28125 31.265625 
Q 36.765625 34.90625 28.71875 34.90625 
L 20.21875 34.90625 
L 20.21875 43.015625 
L 29.109375 43.015625 
Q 36.375 43.015625 40.234375 45.921875 
Q 44.09375 48.828125 44.09375 54.296875 
Q 44.09375 59.90625 40.109375 62.90625 
Q 36.140625 65.921875 28.71875 65.921875 
Q 24.65625 65.921875 20.015625 65.03125 
Q 15.375 64.15625 9.8125 62.3125 
L 9.8125 71.09375 
Q 15.4375 72.65625 20.34375 73.4375 
Q 25.25 74.21875 29.59375 74.21875 
Q 40.828125 74.21875 47.359375 69.109375 
Q 53.90625 64.015625 53.90625 55.328125 
Q 53.90625 49.265625 50.4375 45.09375 
Q 46.96875 40.921875 40.578125 39.3125 
z
" id="DejaVuSans-33"/>
      </defs>
      <g transform="translate(472.419909 399.078438)scale(0.1 -0.1)">
       <use xlink:href="#DejaVuSans-33"/>
       <use x="63.623047" xlink:href="#DejaVuSans-30"/>
       <use x="127.246094" xlink:href="#DejaVuSans-30"/>
       <use x="190.869141" xlink:href="#DejaVuSans-30"/>
      </g>
     </g>
    </g>
    <g id="text_8">
     <!-- Iteration -->
     <defs>
      <path d="M 9.8125 72.90625 
L 19.671875 72.90625 
L 19.671875 0 
L 9.8125 0 
z
" id="DejaVuSans-49"/>
      <path d="M 18.3125 70.21875 
L 18.3125 54.6875 
L 36.8125 54.6875 
L 36.8125 47.703125 
L 18.3125 47.703125 
L 18.3125 18.015625 
Q 18.3125 11.328125 20.140625 9.421875 
Q 21.96875 7.515625 27.59375 7.515625 
L 36.8125 7.515625 
L 36.8125 0 
L 27.59375 0 
Q 17.1875 0 13.234375 3.875 
Q 9.28125 7.765625 9.28125 18.015625 
L 9.28125 47.703125 
L 2.6875 47.703125 
L 2.6875 54.6875 
L 9.28125 54.6875 
L 9.28125 70.21875 
z
" id="DejaVuSans-74"/>
      <path d="M 56.203125 29.59375 
L 56.203125 25.203125 
L 14.890625 25.203125 
Q 15.484375 15.921875 20.484375 11.0625 
Q 25.484375 6.203125 34.421875 6.203125 
Q 39.59375 6.203125 44.453125 7.46875 
Q 49.3125 8.734375 54.109375 11.28125 
L 54.109375 2.78125 
Q 49.265625 0.734375 44.1875 -0.34375 
Q 39.109375 -1.421875 33.890625 -1.421875 
Q 20.796875 -1.421875 13.15625 6.1875 
Q 5.515625 13.8125 5.515625 26.8125 
Q 5.515625 40.234375 12.765625 48.109375 
Q 20.015625 56 32.328125 56 
Q 43.359375 56 49.78125 48.890625 
Q 56.203125 41.796875 56.203125 29.59375 
z
M 47.21875 32.234375 
Q 47.125 39.59375 43.09375 43.984375 
Q 39.0625 48.390625 32.421875 48.390625 
Q 24.90625 48.390625 20.390625 44.140625 
Q 15.875 39.890625 15.1875 32.171875 
z
" id="DejaVuSans-65"/>
      <path d="M 41.109375 46.296875 
Q 39.59375 47.171875 37.8125 47.578125 
Q 36.03125 48 33.890625 48 
Q 26.265625 48 22.1875 43.046875 
Q 18.109375 38.09375 18.109375 28.8125 
L 18.109375 0 
L 9.078125 0 
L 9.078125 54.6875 
L 18.109375 54.6875 
L 18.109375 46.1875 
Q 20.953125 51.171875 25.484375 53.578125 
Q 30.03125 56 36.53125 56 
Q 37.453125 56 38.578125 55.875 
Q 39.703125 55.765625 41.0625 55.515625 
z
" id="DejaVuSans-72"/>
      <path d="M 34.28125 27.484375 
Q 23.390625 27.484375 19.1875 25 
Q 14.984375 22.515625 14.984375 16.5 
Q 14.984375 11.71875 18.140625 8.90625 
Q 21.296875 6.109375 26.703125 6.109375 
Q 34.1875 6.109375 38.703125 11.40625 
Q 43.21875 16.703125 43.21875 25.484375 
L 43.21875 27.484375 
z
M 52.203125 31.203125 
L 52.203125 0 
L 43.21875 0 
L 43.21875 8.296875 
Q 40.140625 3.328125 35.546875 0.953125 
Q 30.953125 -1.421875 24.3125 -1.421875 
Q 15.921875 -1.421875 10.953125 3.296875 
Q 6 8.015625 6 15.921875 
Q 6 25.140625 12.171875 29.828125 
Q 18.359375 34.515625 30.609375 34.515625 
L 43.21875 34.515625 
L 43.21875 35.40625 
Q 43.21875 41.609375 39.140625 45 
Q 35.0625 48.390625 27.6875 48.390625 
Q 23 48.390625 18.546875 47.265625 
Q 14.109375 46.140625 10.015625 43.890625 
L 10.015625 52.203125 
Q 14.9375 54.109375 19.578125 55.046875 
Q 24.21875 56 28.609375 56 
Q 40.484375 56 46.34375 49.84375 
Q 52.203125 43.703125 52.203125 31.203125 
z
" id="DejaVuSans-61"/>
      <path d="M 9.421875 54.6875 
L 18.40625 54.6875 
L 18.40625 0 
L 9.421875 0 
z
M 9.421875 75.984375 
L 18.40625 75.984375 
L 18.40625 64.59375 
L 9.421875 64.59375 
z
" id="DejaVuSans-69"/>
      <path d="M 30.609375 48.390625 
Q 23.390625 48.390625 19.1875 42.75 
Q 14.984375 37.109375 14.984375 27.296875 
Q 14.984375 17.484375 19.15625 11.84375 
Q 23.34375 6.203125 30.609375 6.203125 
Q 37.796875 6.203125 41.984375 11.859375 
Q 46.1875 17.53125 46.1875 27.296875 
Q 46.1875 37.015625 41.984375 42.703125 
Q 37.796875 48.390625 30.609375 48.390625 
z
M 30.609375 56 
Q 42.328125 56 49.015625 48.375 
Q 55.71875 40.765625 55.71875 27.296875 
Q 55.71875 13.875 49.015625 6.21875 
Q 42.328125 -1.421875 30.609375 -1.421875 
Q 18.84375 -1.421875 12.171875 6.21875 
Q 5.515625 13.875 5.515625 27.296875 
Q 5.515625 40.765625 12.171875 48.375 
Q 18.84375 56 30.609375 56 
z
" id="DejaVuSans-6f"/>
      <path d="M 54.890625 33.015625 
L 54.890625 0 
L 45.90625 0 
L 45.90625 32.71875 
Q 45.90625 40.484375 42.875 44.328125 
Q 39.84375 48.1875 33.796875 48.1875 
Q 26.515625 48.1875 22.3125 43.546875 
Q 18.109375 38.921875 18.109375 30.90625 
L 18.109375 0 
L 9.078125 0 
L 9.078125 54.6875 
L 18.109375 54.6875 
L 18.109375 46.1875 
Q 21.34375 51.125 25.703125 53.5625 
Q 30.078125 56 35.796875 56 
Q 45.21875 56 50.046875 50.171875 
Q 54.890625 44.34375 54.890625 33.015625 
z
" id="DejaVuSans-6e"/>
     </defs>
     <g transform="translate(265.507969 415.795938)scale(0.14 -0.14)">
      <use xlink:href="#DejaVuSans-49"/>
      <use x="29.492188" xlink:href="#DejaVuSans-74"/>
      <use x="68.701172" xlink:href="#DejaVuSans-65"/>
      <use x="130.224609" xlink:href="#DejaVuSans-72"/>
      <use x="171.337891" xlink:href="#DejaVuSans-61"/>
      <use x="232.617188" xlink:href="#DejaVuSans-74"/>
      <use x="271.826172" xlink:href="#DejaVuSans-69"/>
      <use x="299.609375" xlink:href="#DejaVuSans-6f"/>
      <use x="360.791016" xlink:href="#DejaVuSans-6e"/>
     </g>
    </g>
   </g>
   <g id="matplotlib.axis_2">
    <g id="ytick_1">
     <g id="line2d_15">
      <path clip-path="url(#p78c6c0360f)" d="M 72 362.214856 
L 518.4 362.214856 
" style="fill:none;stroke:#b0b0b0;stroke-dasharray:5.12,1.28,0.8,1.28;stroke-dashoffset:0;stroke-width:0.8;"/>
     </g>
     <g id="line2d_16">
      <defs>
       <path d="M 0 0 
L -3.5 0 
" id="m432532c212" style="stroke:#000000;stroke-width:0.8;"/>
      </defs>
      <g>
       <use style="stroke:#000000;stroke-width:0.8;" x="72" xlink:href="#m432532c212" y="362.214856"/>
      </g>
     </g>
     <g id="text_9">
      <!-- −50 -->
      <defs>
       <path d="M 10.59375 35.5 
L 73.1875 35.5 
L 73.1875 27.203125 
L 10.59375 27.203125 
z
" id="DejaVuSans-2212"/>
      </defs>
      <g transform="translate(43.895313 366.014074)scale(0.1 -0.1)">
       <use xlink:href="#DejaVuSans-2212"/>
       <use x="83.789062" xlink:href="#DejaVuSans-35"/>
       <use x="147.412109" xlink:href="#DejaVuSans-30"/>
      </g>
     </g>
    </g>
    <g id="ytick_2">
     <g id="line2d_17">
      <path clip-path="url(#p78c6c0360f)" d="M 72 303.440945 
L 518.4 303.440945 
" style="fill:none;stroke:#b0b0b0;stroke-dasharray:5.12,1.28,0.8,1.28;stroke-dashoffset:0;stroke-width:0.8;"/>
     </g>
     <g id="line2d_18">
      <g>
       <use style="stroke:#000000;stroke-width:0.8;" x="72" xlink:href="#m432532c212" y="303.440945"/>
      </g>
     </g>
     <g id="text_10">
      <!-- −40 -->
      <defs>
       <path d="M 37.796875 64.3125 
L 12.890625 25.390625 
L 37.796875 25.390625 
z
M 35.203125 72.90625 
L 47.609375 72.90625 
L 47.609375 25.390625 
L 58.015625 25.390625 
L 58.015625 17.1875 
L 47.609375 17.1875 
L 47.609375 0 
L 37.796875 0 
L 37.796875 17.1875 
L 4.890625 17.1875 
L 4.890625 26.703125 
z
" id="DejaVuSans-34"/>
      </defs>
      <g transform="translate(43.895313 307.240163)scale(0.1 -0.1)">
       <use xlink:href="#DejaVuSans-2212"/>
       <use x="83.789062" xlink:href="#DejaVuSans-34"/>
       <use x="147.412109" xlink:href="#DejaVuSans-30"/>
      </g>
     </g>
    </g>
    <g id="ytick_3">
     <g id="line2d_19">
      <path clip-path="url(#p78c6c0360f)" d="M 72 244.667034 
L 518.4 244.667034 
" style="fill:none;stroke:#b0b0b0;stroke-dasharray:5.12,1.28,0.8,1.28;stroke-dashoffset:0;stroke-width:0.8;"/>
     </g>
     <g id="line2d_20">
      <g>
       <use style="stroke:#000000;stroke-width:0.8;" x="72" xlink:href="#m432532c212" y="244.667034"/>
      </g>
     </g>
     <g id="text_11">
      <!-- −30 -->
      <g transform="translate(43.895313 248.466253)scale(0.1 -0.1)">
       <use xlink:href="#DejaVuSans-2212"/>
       <use x="83.789062" xlink:href="#DejaVuSans-33"/>
       <use x="147.412109" xlink:href="#DejaVuSans-30"/>
      </g>
     </g>
    </g>
    <g id="ytick_4">
     <g id="line2d_21">
      <path clip-path="url(#p78c6c0360f)" d="M 72 185.893123 
L 518.4 185.893123 
" style="fill:none;stroke:#b0b0b0;stroke-dasharray:5.12,1.28,0.8,1.28;stroke-dashoffset:0;stroke-width:0.8;"/>
     </g>
     <g id="line2d_22">
      <g>
       <use style="stroke:#000000;stroke-width:0.8;" x="72" xlink:href="#m432532c212" y="185.893123"/>
      </g>
     </g>
     <g id="text_12">
      <!-- −20 -->
      <g transform="translate(43.895313 189.692342)scale(0.1 -0.1)">
       <use xlink:href="#DejaVuSans-2212"/>
       <use x="83.789062" xlink:href="#DejaVuSans-32"/>
       <use x="147.412109" xlink:href="#DejaVuSans-30"/>
      </g>
     </g>
    </g>
    <g id="ytick_5">
     <g id="line2d_23">
      <path clip-path="url(#p78c6c0360f)" d="M 72 127.119212 
L 518.4 127.119212 
" style="fill:none;stroke:#b0b0b0;stroke-dasharray:5.12,1.28,0.8,1.28;stroke-dashoffset:0;stroke-width:0.8;"/>
     </g>
     <g id="line2d_24">
      <g>
       <use style="stroke:#000000;stroke-width:0.8;" x="72" xlink:href="#m432532c212" y="127.119212"/>
      </g>
     </g>
     <g id="text_13">
      <!-- −10 -->
      <g transform="translate(43.895313 130.918431)scale(0.1 -0.1)">
       <use xlink:href="#DejaVuSans-2212"/>
       <use x="83.789062" xlink:href="#DejaVuSans-31"/>
       <use x="147.412109" xlink:href="#DejaVuSans-30"/>
      </g>
     </g>
    </g>
    <g id="ytick_6">
     <g id="line2d_25">
      <path clip-path="url(#p78c6c0360f)" d="M 72 68.345301 
L 518.4 68.345301 
" style="fill:none;stroke:#b0b0b0;stroke-dasharray:5.12,1.28,0.8,1.28;stroke-dashoffset:0;stroke-width:0.8;"/>
     </g>
     <g id="line2d_26">
      <g>
       <use style="stroke:#000000;stroke-width:0.8;" x="72" xlink:href="#m432532c212" y="68.345301"/>
      </g>
     </g>
     <g id="text_14">
      <!-- 0 -->
      <g transform="translate(58.6375 72.14452)scale(0.1 -0.1)">
       <use xlink:href="#DejaVuSans-30"/>
      </g>
     </g>
    </g>
    <g id="text_15">
     <!-- $\partial \mathcal{L}/ \partial \mu^{U_{\mathrm{min}}}_{m}[V]$ -->
     <defs>
      <path d="M 21.34375 -1.421875 
Q 14.453125 -1.421875 9.96875 2.734375 
Q 4.640625 7.671875 4.640625 16.609375 
Q 4.640625 25.875 9.328125 33.109375 
Q 14.15625 40.53125 22.859375 40.53125 
Q 28.5625 40.53125 33.0625 36.96875 
Q 35.6875 34.859375 37.5 31.34375 
Q 38.140625 35.296875 38.140625 39.796875 
Q 38.140625 46.390625 36.578125 50.203125 
Q 33.109375 58.640625 23.921875 58.640625 
Q 20.453125 58.640625 15.09375 56.5 
L 15.09375 64.703125 
Q 20.75 66.21875 25.828125 66.21875 
Q 38.921875 66.21875 44.484375 54.203125 
Q 47.078125 48.53125 47.078125 40.09375 
Q 47.078125 34.578125 45.84375 28.171875 
Q 42.78125 12.15625 34.8125 4.546875 
Q 28.5625 -1.421875 21.34375 -1.421875 
z
M 12.984375 15.140625 
Q 12.984375 10.25 15.140625 7.625 
Q 17.4375 4.828125 20.953125 4.828125 
Q 24.078125 4.828125 26.5625 7.03125 
Q 30.078125 10.0625 32.671875 14.984375 
Q 34.8125 19.046875 35.890625 23.390625 
Q 31.546875 33.890625 24.03125 33.890625 
Q 17.578125 33.890625 14.75 25.390625 
Q 12.984375 20.125 12.984375 15.140625 
z
" id="DejaVuSans-2202"/>
      <path d="M 63.59375 14.296875 
L 65.296875 12.5 
Q 52.296875 -0.703125 37.703125 -0.703125 
Q 33.703125 -0.703125 28.90625 0.40625 
Q 21.796875 1.90625 17.90625 1.90625 
Q 15.703125 1.90625 10.5 0.953125 
Q 5.296875 0 3 0 
L 3.59375 2.40625 
Q 9.09375 2.40625 11.40625 11.703125 
L 18.40625 40.09375 
Q 20.09375 47 23.6875 52.390625 
Q 27.296875 57.796875 31.640625 60.84375 
Q 36 63.90625 40.390625 65.453125 
Q 44.796875 67 48.796875 67 
Q 53.796875 67 56.140625 63.796875 
Q 58.5 60.59375 58.5 56 
Q 58.5 52.296875 56.140625 50 
Q 53.796875 47.703125 50.40625 47.703125 
Q 48.203125 47.703125 46.796875 49.203125 
Q 45.40625 50.703125 45.40625 52.796875 
Q 45.40625 54.40625 46.203125 55.5 
Q 47 56.59375 47.890625 56.9375 
Q 48.796875 57.296875 49.59375 57.890625 
Q 50.40625 58.5 50.40625 59.203125 
Q 50.40625 63 44.59375 63 
Q 39.40625 63 36.09375 59.140625 
Q 32.796875 55.296875 31.09375 48.9375 
Q 29.40625 42.59375 28.046875 35.6875 
Q 26.703125 28.796875 24.203125 21.296875 
Q 21.703125 13.796875 18.09375 9.203125 
L 18.09375 8.796875 
Q 21.296875 11 29.5 11 
Q 34.796875 11 38.4375 8.5 
Q 42.09375 6 46.296875 6 
Q 54.796875 6 63.59375 14.296875 
z
" id="STIXNonUnicode-Italic-e238"/>
      <path d="M 25.390625 72.90625 
L 33.6875 72.90625 
L 8.296875 -9.28125 
L 0 -9.28125 
z
" id="DejaVuSans-2f"/>
      <path d="M -1.3125 -20.796875 
L 13.375 54.6875 
L 22.40625 54.6875 
L 15.765625 20.65625 
Q 15.578125 19.625 15.421875 18.359375 
Q 15.28125 17.09375 15.28125 15.828125 
Q 15.28125 11.28125 18.140625 8.828125 
Q 21 6.390625 26.3125 6.390625 
Q 33.546875 6.390625 37.984375 10.484375 
Q 42.4375 14.59375 44 22.796875 
L 50.203125 54.6875 
L 59.1875 54.6875 
L 51.03125 12.640625 
Q 50.828125 11.71875 50.75 11.03125 
Q 50.6875 10.359375 50.6875 9.8125 
Q 50.6875 8.296875 51.296875 7.59375 
Q 51.90625 6.890625 53.21875 6.890625 
Q 53.71875 6.890625 54.5625 7.125 
Q 55.421875 7.375 56.984375 8.015625 
L 55.609375 0.78125 
Q 53.46875 -0.296875 51.515625 -0.859375 
Q 49.5625 -1.421875 47.703125 -1.421875 
Q 44.484375 -1.421875 42.65625 0.625 
Q 40.828125 2.6875 40.828125 6.296875 
Q 38.09375 2.390625 34.296875 0.484375 
Q 30.515625 -1.421875 25.390625 -1.421875 
Q 20.84375 -1.421875 17.453125 0.671875 
Q 14.0625 2.78125 12.984375 6.203125 
L 7.71875 -20.796875 
z
" id="DejaVuSans-Oblique-3bc"/>
      <path d="M 15.484375 72.90625 
L 25.390625 72.90625 
L 16.796875 28.609375 
Q 16.265625 25.640625 16.046875 23.703125 
Q 15.828125 21.78125 15.828125 20.3125 
Q 15.828125 13.578125 19.578125 10.078125 
Q 23.34375 6.59375 30.609375 6.59375 
Q 40.046875 6.59375 45.28125 11.765625 
Q 50.53125 16.9375 52.78125 28.609375 
L 61.375 72.90625 
L 71.296875 72.90625 
L 62.5 27.390625 
Q 59.625 12.640625 51.5625 5.609375 
Q 43.5 -1.421875 29.5 -1.421875 
Q 18.5625 -1.421875 12.1875 4.078125 
Q 5.8125 9.578125 5.8125 19 
Q 5.8125 20.703125 6.046875 22.828125 
Q 6.296875 24.953125 6.78125 27.390625 
z
" id="DejaVuSans-Oblique-55"/>
      <path d="M 52 44.1875 
Q 55.375 50.25 60.0625 53.125 
Q 64.75 56 71.09375 56 
Q 79.640625 56 84.28125 50.015625 
Q 88.921875 44.046875 88.921875 33.015625 
L 88.921875 0 
L 79.890625 0 
L 79.890625 32.71875 
Q 79.890625 40.578125 77.09375 44.375 
Q 74.3125 48.1875 68.609375 48.1875 
Q 61.625 48.1875 57.5625 43.546875 
Q 53.515625 38.921875 53.515625 30.90625 
L 53.515625 0 
L 44.484375 0 
L 44.484375 32.71875 
Q 44.484375 40.625 41.703125 44.40625 
Q 38.921875 48.1875 33.109375 48.1875 
Q 26.21875 48.1875 22.15625 43.53125 
Q 18.109375 38.875 18.109375 30.90625 
L 18.109375 0 
L 9.078125 0 
L 9.078125 54.6875 
L 18.109375 54.6875 
L 18.109375 46.1875 
Q 21.1875 51.21875 25.484375 53.609375 
Q 29.78125 56 35.6875 56 
Q 41.65625 56 45.828125 52.96875 
Q 50 49.953125 52 44.1875 
z
" id="DejaVuSans-6d"/>
      <path d="M 89.796875 33.015625 
L 83.40625 0 
L 74.421875 0 
L 80.71875 32.71875 
Q 81.109375 34.8125 81.296875 36.328125 
Q 81.5 37.84375 81.5 38.921875 
Q 81.5 43.3125 79.046875 45.75 
Q 76.609375 48.1875 72.21875 48.1875 
Q 65.671875 48.1875 60.546875 43.28125 
Q 55.421875 38.375 53.90625 30.515625 
L 47.90625 0 
L 38.921875 0 
L 45.3125 32.71875 
Q 45.703125 34.515625 45.890625 36.046875 
Q 46.09375 37.59375 46.09375 38.8125 
Q 46.09375 43.265625 43.65625 45.71875 
Q 41.21875 48.1875 36.921875 48.1875 
Q 30.28125 48.1875 25.140625 43.28125 
Q 20.015625 38.375 18.5 30.515625 
L 12.5 0 
L 3.515625 0 
L 14.203125 54.6875 
L 23.1875 54.6875 
L 21.484375 46.1875 
Q 25.140625 50.984375 30.046875 53.484375 
Q 34.96875 56 40.578125 56 
Q 46.53125 56 50.359375 52.875 
Q 54.203125 49.75 54.984375 44.1875 
Q 59.078125 49.953125 64.46875 52.96875 
Q 69.875 56 75.875 56 
Q 82.90625 56 86.734375 51.953125 
Q 90.578125 47.90625 90.578125 40.484375 
Q 90.578125 38.875 90.375 36.9375 
Q 90.1875 35.015625 89.796875 33.015625 
z
" id="DejaVuSans-Oblique-6d"/>
      <path d="M 8.59375 75.984375 
L 29.296875 75.984375 
L 29.296875 69 
L 17.578125 69 
L 17.578125 -6.203125 
L 29.296875 -6.203125 
L 29.296875 -13.1875 
L 8.59375 -13.1875 
z
" id="DejaVuSans-5b"/>
      <path d="M 20.609375 0 
L 7.8125 72.90625 
L 17.484375 72.90625 
L 28.078125 10.203125 
L 63.484375 72.90625 
L 74.21875 72.90625 
L 32.078125 0 
z
" id="DejaVuSans-Oblique-56"/>
      <path d="M 30.421875 75.984375 
L 30.421875 -13.1875 
L 9.71875 -13.1875 
L 9.71875 -6.203125 
L 21.390625 -6.203125 
L 21.390625 69 
L 9.71875 69 
L 9.71875 75.984375 
z
" id="DejaVuSans-5d"/>
     </defs>
     <g transform="translate(35.975313 258.06)rotate(-90)scale(0.14 -0.14)">
      <use transform="translate(0 0.684375)" xlink:href="#DejaVuSans-2202"/>
      <use transform="translate(51.708984 0.684375)" xlink:href="#STIXNonUnicode-Italic-e238"/>
      <use transform="translate(121.008972 0.684375)" xlink:href="#DejaVuSans-2f"/>
      <use transform="translate(154.700378 0.684375)" xlink:href="#DejaVuSans-2202"/>
      <use transform="translate(206.409363 0.684375)" xlink:href="#DejaVuSans-Oblique-3bc"/>
      <use transform="translate(274.498556 38.965625)scale(0.7)" xlink:href="#DejaVuSans-Oblique-55"/>
      <use transform="translate(325.733907 27.48125)scale(0.49)" xlink:href="#DejaVuSans-6d"/>
      <use transform="translate(373.465841 27.48125)scale(0.49)" xlink:href="#DejaVuSans-69"/>
      <use transform="translate(387.07961 27.48125)scale(0.49)" xlink:href="#DejaVuSans-6e"/>
      <use transform="translate(270.03241 -26.659375)scale(0.7)" xlink:href="#DejaVuSans-Oblique-6d"/>
      <use transform="translate(422.783712 0.684375)" xlink:href="#DejaVuSans-5b"/>
      <use transform="translate(461.797384 0.684375)" xlink:href="#DejaVuSans-Oblique-56"/>
      <use transform="translate(530.205587 0.684375)" xlink:href="#DejaVuSans-5d"/>
     </g>
    </g>
   </g>
   <g id="line2d_27">
    <path clip-path="url(#p78c6c0360f)" d="M 92.290909 68.345301 
L 92.42186 215.280078 
L 92.683763 215.176049 
L 92.945666 214.634153 
L 94.909936 208.55458 
L 96.219449 202.332774 
L 101.719405 173.829778 
L 116.124052 98.054925 
L 116.90976 94.337475 
L 117.302614 93.666277 
L 117.695468 93.412962 
L 117.826419 93.370645 
L 118.481176 93.624548 
L 121.100202 94.167031 
L 124.112083 94.556114 
L 128.040623 94.83294 
L 137.076265 95.175004 
L 141.921464 95.044526 
L 144.933345 95.181469 
L 150.826155 95.107414 
L 153.183279 95.17324 
L 158.421332 95.070386 
L 161.17131 95.172065 
L 166.540315 95.078027 
L 169.159342 95.169126 
L 174.528346 95.079202 
L 177.147373 95.164424 
L 182.647329 95.092132 
L 185.135404 95.159135 
L 190.373458 95.081553 
L 193.123436 95.151494 
L 197.968635 95.066272 
L 200.980516 95.14738 
L 205.694764 95.063333 
L 211.456622 95.508839 
L 213.420892 96.044858 
L 215.385162 96.813033 
L 217.349432 97.812777 
L 219.444654 99.134602 
L 221.539875 100.719734 
L 223.766048 102.691599 
L 225.99222 104.959684 
L 228.349344 107.682092 
L 230.706468 110.732458 
L 233.194544 114.305912 
L 235.81357 118.457701 
L 238.563548 123.242485 
L 241.444478 128.717862 
L 244.325407 134.659905 
L 245.63492 137.69499 
L 246.813482 141.078604 
L 248.122996 145.589501 
L 249.56346 151.460427 
L 251.134876 158.920012 
L 252.837244 168.198062 
L 254.670562 179.517329 
L 256.634832 193.093515 
L 257.027686 196.850343 
L 257.813394 207.073477 
L 259.253859 229.360544 
L 262.134788 275.391683 
L 265.27762 321.783695 
L 268.15855 365.803591 
L 268.551404 367.178312 
L 269.20616 368.672933 
L 269.729966 369.36 
L 269.991868 368.72583 
L 270.515674 368.176881 
L 271.432333 367.642626 
L 272.08709 367.276465 
L 273.1347 365.743641 
L 275.491824 361.703523 
L 276.01563 359.987912 
L 277.06324 356.475583 
L 277.456094 355.763243 
L 277.717997 355.564588 
L 277.9799 355.605729 
L 278.241802 355.889607 
L 278.634656 356.75711 
L 279.158462 358.586742 
L 279.94417 362.173714 
L 280.206072 363.17816 
L 280.729878 363.937519 
L 281.253683 364.379499 
L 281.777488 364.551119 
L 282.301294 364.460607 
L 282.825099 364.141464 
L 283.610807 363.353894 
L 284.789369 361.853984 
L 285.444126 360.242403 
L 286.098882 358.877673 
L 286.491736 358.576751 
L 286.753639 358.657271 
L 287.015542 358.972299 
L 287.408396 359.853908 
L 288.063152 362.107299 
L 288.325055 362.923081 
L 288.84886 363.549611 
L 289.503617 363.980424 
L 290.027422 364.085629 
L 290.551228 363.986301 
L 291.205984 363.618377 
L 292.122644 362.810235 
L 293.039303 361.81343 
L 294.479768 359.381365 
L 294.74167 359.312012 
L 295.003573 359.427797 
L 295.396427 359.943832 
L 295.920232 361.172794 
L 296.574989 362.867246 
L 297.229746 363.409729 
L 297.884502 363.677738 
L 298.277356 363.660106 
L 299.848772 363.003014 
L 301.158286 362.064394 
L 301.813042 361.149872 
L 302.467799 360.319397 
L 302.860653 360.107223 
L 303.253507 360.186568 
L 303.646361 360.566247 
L 304.170166 361.464901 
L 304.824923 362.693275 
L 305.47968 363.087648 
L 306.003485 363.259856 
L 308.229658 362.730303 
L 309.670122 361.97447 
L 310.979636 360.840722 
L 311.37249 360.78136 
L 311.765344 360.926532 
L 312.289149 361.417881 
L 313.33676 362.628036 
L 314.253419 362.910739 
L 315.170078 362.941301 
L 316.217689 362.709144 
L 317.789105 362.101422 
L 319.491472 361.084633 
L 320.015278 361.213936 
L 320.539083 361.613011 
L 321.586694 362.552218 
L 322.634304 362.787314 
L 323.550964 362.780848 
L 324.729526 362.5387 
L 326.300942 361.986813 
L 327.479504 361.367924 
L 328.003309 361.354406 
L 328.527114 361.564816 
L 329.312822 362.20075 
L 329.705676 362.441135 
L 330.753287 362.653897 
L 331.800898 362.663888 
L 333.110411 362.446425 
L 334.681827 361.989164 
L 335.729438 361.563641 
L 336.384194 361.567167 
L 337.038951 361.836352 
L 338.217513 362.444662 
L 339.527026 362.58278 
L 340.83654 362.488154 
L 342.80081 362.106712 
L 344.241274 361.689417 
L 344.896031 361.762297 
L 345.681739 362.097896 
L 346.336496 362.364141 
L 347.77696 362.501085 
L 349.348376 362.404108 
L 351.443598 362.036183 
L 352.491208 361.81343 
L 353.276916 361.882195 
L 354.193576 362.212505 
L 354.717381 362.340632 
L 356.419748 362.435846 
L 358.384018 362.28656 
L 360.348288 361.958014 
L 361.264948 361.915109 
L 362.181607 362.104948 
L 363.229218 362.328877 
L 365.062536 362.378835 
L 367.681563 362.180179 
L 369.645833 361.988576 
L 370.693444 362.174302 
L 371.610103 362.305955 
L 373.836276 362.326526 
L 376.848156 362.083202 
L 378.026718 362.044411 
L 382.610015 362.284797 
L 387.324263 362.183118 
L 388.633776 362.278919 
L 391.514706 362.249532 
L 395.574197 362.179591 
L 397.407516 362.271279 
L 401.205104 362.197223 
L 403.562228 362.161371 
L 406.574109 362.259524 
L 438.657186 362.22661 
L 459.871302 362.211329 
L 471.52597 362.217207 
L 494.835308 362.210741 
L 498.109091 362.217207 
L 498.109091 362.217207 
" style="fill:none;stroke:#bf00bf;stroke-linecap:square;stroke-width:1.5;"/>
   </g>
   <g id="line2d_28">
    <path clip-path="url(#p78c6c0360f)" d="M 92.290909 68.345301 
L 92.42186 215.280078 
L 92.552812 215.280078 
L 92.945666 213.709639 
L 93.600422 211.251127 
L 94.255179 209.669521 
L 94.648033 209.001849 
L 94.909936 207.350302 
L 95.433741 204.3017 
L 98.707524 187.473553 
L 111.147901 122.344419 
L 116.778808 92.724719 
L 116.90976 92.690043 
L 117.564516 93.650996 
L 117.826419 93.705656 
L 118.743078 93.683322 
L 123.457326 93.995411 
L 130.397747 94.165268 
L 135.111995 94.335124 
L 137.207216 94.358634 
L 142.052416 94.247551 
L 145.195248 94.360985 
L 150.564252 94.276351 
L 153.31423 94.357459 
L 158.421332 94.261657 
L 161.302262 94.356283 
L 166.540315 94.26871 
L 169.290293 94.353344 
L 174.790249 94.286342 
L 177.409276 94.345116 
L 182.385426 94.265771 
L 185.397307 94.339826 
L 190.111555 94.256955 
L 193.254387 94.337475 
L 198.099586 94.266359 
L 201.242418 94.328659 
L 205.694764 94.256367 
L 211.325671 94.654267 
L 213.289941 95.152082 
L 215.254211 95.880291 
L 217.349432 96.912948 
L 219.313702 98.119577 
L 221.408924 99.661216 
L 223.504145 101.464988 
L 225.730318 103.667834 
L 228.087442 106.320888 
L 230.444566 109.301901 
L 232.932641 112.801887 
L 235.551668 116.875507 
L 238.301646 121.578595 
L 241.051624 126.713084 
L 243.932553 132.548746 
L 245.63492 136.394911 
L 246.813482 139.741497 
L 248.122996 144.215367 
L 249.432509 149.477983 
L 251.003925 156.807678 
L 252.706292 165.948784 
L 254.539611 177.128757 
L 256.503881 190.563298 
L 257.551492 198.8945 
L 258.730054 210.555831 
L 260.039567 226.053336 
L 262.003837 252.811335 
L 264.622864 291.118407 
L 267.503793 336.601773 
L 268.420452 350.052183 
L 269.20616 358.174149 
L 269.860917 362.793191 
L 269.991868 362.847851 
L 270.646625 362.308306 
L 272.348992 360.805457 
L 272.872798 359.318477 
L 273.527554 356.743005 
L 274.706116 350.982574 
L 277.194192 338.812848 
L 277.717997 337.519234 
L 277.9799 337.249462 
L 278.241802 337.252988 
L 278.503705 337.533927 
L 278.896559 338.456678 
L 279.420364 340.493194 
L 281.384634 349.504997 
L 282.039391 351.304067 
L 282.563196 352.252678 
L 283.087002 352.811618 
L 283.610807 353.055529 
L 284.265564 353.056117 
L 284.789369 352.896252 
L 286.491736 351.970563 
L 286.88459 352.245625 
L 287.277444 352.862163 
L 287.80125 354.19398 
L 289.110763 357.932001 
L 289.76552 359.156849 
L 290.289325 359.770449 
L 290.81313 360.067845 
L 291.336936 360.087828 
L 291.860741 359.887997 
L 292.7774 359.228553 
L 293.563108 358.363989 
L 294.348816 357.544681 
L 294.74167 357.371885 
L 295.134524 357.452406 
L 295.527378 357.813865 
L 296.051184 358.703702 
L 297.098794 360.747271 
L 297.753551 361.613599 
L 298.277356 362.035007 
L 298.932113 361.949198 
L 299.979724 361.661793 
L 301.027334 360.931233 
L 302.074945 359.893874 
L 302.729702 359.366672 
L 303.253507 359.246185 
L 303.646361 359.390181 
L 304.170166 359.895049 
L 305.741582 361.808728 
L 306.265388 362.093194 
L 308.229658 361.773464 
L 309.40822 361.162215 
L 311.37249 359.960288 
L 311.896295 359.997316 
L 312.4201 360.282369 
L 314.38437 361.749366 
L 315.170078 361.933916 
L 315.955786 361.863975 
L 316.872446 361.541307 
L 318.31291 360.767842 
L 319.360521 360.217718 
L 319.884326 360.144839 
L 320.408132 360.269439 
L 321.062888 360.676155 
L 321.848596 361.184549 
L 322.765256 361.556 
L 323.550964 361.651214 
L 324.467623 361.520736 
L 325.777136 361.057597 
L 328.13426 360.188919 
L 328.789017 360.330564 
L 331.408044 361.342651 
L 332.324703 361.323255 
L 333.503265 361.05701 
L 336.646097 360.22771 
L 337.431805 360.458691 
L 338.741318 360.948866 
L 339.788929 361.119898 
L 340.83654 361.072879 
L 342.407956 360.74492 
L 344.76508 360.240052 
L 345.550788 360.376995 
L 347.515058 360.899496 
L 348.69362 360.950629 
L 350.134084 360.771956 
L 353.276916 360.290598 
L 354.193576 360.472209 
L 355.503089 360.750798 
L 356.812602 360.838371 
L 358.51497 360.689085 
L 361.657802 360.334678 
L 362.967315 360.557431 
L 364.538731 360.745508 
L 366.110147 360.712007 
L 370.562492 360.434006 
L 372.919616 360.693199 
L 374.883886 360.637952 
L 378.812426 360.446936 
L 381.824307 360.662049 
L 384.574285 360.526869 
L 386.931409 360.453989 
L 390.9909 360.621495 
L 396.490856 360.555668 
L 399.109883 360.611503 
L 405.395547 360.579178 
L 408.407428 360.580941 
L 413.252627 360.560958 
L 417.050216 360.571537 
L 422.550172 360.581529 
L 427.395371 360.536273 
L 432.109619 360.58388 
L 462.228426 360.559195 
L 489.859157 360.572125 
L 498.109091 360.571537 
L 498.109091 360.571537 
" style="fill:none;stroke:#00bfbf;stroke-linecap:square;stroke-width:1.5;"/>
   </g>
   <g id="line2d_29">
    <path clip-path="url(#p78c6c0360f)" d="M 92.290909 68.345301 
L 92.42186 215.280078 
L 92.814714 204.486837 
L 93.33852 195.748332 
L 93.993276 188.138874 
L 94.648033 182.786922 
L 95.564692 178.278963 
L 102.374162 142.921753 
L 116.90976 67.263273 
L 117.171662 66.999966 
L 117.564516 66.98351 
L 120.052592 67.560669 
L 123.326375 67.947989 
L 127.77872 68.217174 
L 137.861973 68.471665 
L 141.135756 68.359407 
L 146.111907 68.462849 
L 149.254739 68.361758 
L 154.23089 68.460498 
L 157.24277 68.361758 
L 162.480824 68.44698 
L 165.230802 68.363521 
L 170.730758 68.431111 
L 173.349784 68.371162 
L 178.718789 68.429348 
L 181.468767 68.379978 
L 186.052064 68.462261 
L 189.325847 68.381741 
L 194.171046 68.447568 
L 197.313878 68.389382 
L 201.766224 68.458147 
L 205.170958 68.393496 
L 210.801866 68.727332 
L 212.635184 69.131108 
L 214.599454 69.787025 
L 216.563724 70.674511 
L 218.658946 71.877025 
L 220.754167 73.342259 
L 222.849388 75.070212 
L 225.075561 77.193713 
L 227.432685 79.762721 
L 229.92076 82.831895 
L 232.408836 86.265467 
L 235.027862 90.269733 
L 237.646889 94.671311 
L 240.396867 99.715288 
L 243.277796 105.458675 
L 245.373018 110.065374 
L 246.55158 113.341432 
L 247.730142 117.265178 
L 249.039655 122.380272 
L 250.48012 128.903 
L 252.051536 137.052003 
L 253.753903 147.04827 
L 255.587222 159.108088 
L 257.289589 171.582263 
L 258.3372 181.059556 
L 259.515762 193.791749 
L 260.825275 210.446512 
L 263.31335 245.611531 
L 266.063328 287.736556 
L 268.813306 330.022621 
L 269.468063 336.312605 
L 269.860917 338.683545 
L 270.12282 339.19429 
L 270.384722 339.241309 
L 270.777576 338.847524 
L 272.08709 336.964996 
L 272.610895 335.597915 
L 273.265652 332.99423 
L 274.182311 328.255878 
L 276.932289 313.392543 
L 277.456094 311.609343 
L 277.848948 310.903468 
L 278.110851 310.777104 
L 278.372754 310.936969 
L 278.634656 311.3813 
L 279.02751 312.550901 
L 279.551316 314.891278 
L 281.384634 323.969496 
L 282.039391 325.900807 
L 282.563196 326.901139 
L 283.087002 327.474185 
L 283.610807 327.702815 
L 284.134612 327.690473 
L 284.92032 327.439508 
L 286.360785 326.698369 
L 286.753639 326.8982 
L 287.146493 327.427753 
L 287.670298 328.658479 
L 289.634568 334.201446 
L 290.158374 334.937884 
L 290.682179 335.316975 
L 291.205984 335.377512 
L 291.72979 335.18062 
L 292.515498 334.576424 
L 293.563108 333.489107 
L 294.348816 332.688018 
L 294.74167 332.522276 
L 295.134524 332.607498 
L 295.527378 332.974835 
L 296.051184 333.8729 
L 297.360697 336.514788 
L 298.015454 337.28355 
L 298.408308 337.464574 
L 298.932113 337.412265 
L 299.848772 337.064911 
L 300.63448 336.488339 
L 302.074945 335.111854 
L 302.729702 334.585828 
L 303.253507 334.463578 
L 303.646361 334.606399 
L 304.170166 335.111267 
L 306.003485 337.382878 
L 306.52729 337.491022 
L 307.44395 337.322929 
L 308.360609 336.999672 
L 309.670122 336.188592 
L 311.241538 335.187673 
L 311.765344 335.160049 
L 312.289149 335.382802 
L 312.943906 335.96055 
L 313.729614 336.665249 
L 314.515322 337.100764 
L 315.170078 337.235356 
L 315.824835 337.173643 
L 316.741494 336.830991 
L 318.443862 335.858871 
L 319.360521 335.386916 
L 320.015278 335.322853 
L 320.539083 335.493885 
L 321.324791 336.048711 
L 322.24145 336.611177 
L 323.027158 336.859203 
L 323.812866 336.874484 
L 324.729526 336.647617 
L 326.300942 335.964076 
L 327.741406 335.358705 
L 328.396163 335.350476 
L 329.05092 335.582633 
L 330.884238 336.453663 
L 331.800898 336.555929 
L 332.717557 336.431916 
L 334.158022 335.972892 
L 336.253243 335.324616 
L 336.908 335.387504 
L 337.693708 335.690777 
L 338.741318 336.103958 
L 339.788929 336.283218 
L 340.83654 336.220918 
L 342.407956 335.847704 
L 344.634128 335.335195 
L 345.419836 335.436286 
L 348.169814 336.092203 
L 349.348376 336.015797 
L 351.443598 335.594976 
L 352.884062 335.364582 
L 353.800722 335.45862 
L 356.419748 335.954085 
L 357.860213 335.875915 
L 361.919704 335.444515 
L 365.324439 335.859459 
L 367.288709 335.677847 
L 370.038687 335.456269 
L 371.872006 335.713111 
L 373.574373 335.797746 
L 375.800546 335.642583 
L 378.419572 335.492709 
L 383.13382 335.705471 
L 387.193312 335.550308 
L 390.467095 335.72134 
L 397.80037 335.697243 
L 400.550348 335.647872 
L 404.216985 335.603204 
L 407.490768 335.683137 
L 414.300238 335.671382 
L 418.359729 335.619661 
L 421.502561 335.639644 
L 425.30015 335.652574 
L 430.931057 335.660215 
L 436.16911 335.620249 
L 455.026102 335.646697 
L 467.59743 335.649048 
L 491.823427 335.651399 
L 498.109091 335.651987 
L 498.109091 335.651987 
" style="fill:none;stroke:#ff0000;stroke-linecap:square;stroke-width:1.5;"/>
   </g>
   <g id="line2d_30">
    <path clip-path="url(#p78c6c0360f)" d="M 92.290909 68.345301 
L 92.42186 215.280078 
L 92.552812 215.280078 
L 92.814714 212.446588 
L 94.38613 189.623503 
L 94.909936 185.06206 
L 96.612303 176.736148 
L 108.790777 113.467796 
L 116.90976 71.308682 
L 117.564516 69.496094 
L 117.826419 69.276868 
L 118.088322 69.323887 
L 119.659738 70.261918 
L 121.362105 70.946047 
L 123.457326 71.542602 
L 125.945402 72.015732 
L 128.957282 72.369551 
L 134.58819 72.738651 
L 136.945314 72.807416 
L 142.44527 72.715729 
L 145.064296 72.80389 
L 150.695204 72.725133 
L 153.183279 72.800364 
L 158.552284 72.711027 
L 161.302262 72.795074 
L 166.540315 72.708676 
L 169.290293 72.792135 
L 174.790249 72.725721 
L 177.409276 72.784495 
L 182.254475 72.698097 
L 185.397307 72.778617 
L 190.242506 72.704562 
L 193.385338 72.771564 
L 197.837684 72.69222 
L 201.242418 72.768038 
L 205.694764 72.696334 
L 211.19472 73.067197 
L 213.15899 73.546204 
L 215.12326 74.255018 
L 217.08753 75.194225 
L 219.0518 76.363238 
L 221.147021 77.863148 
L 223.373194 79.743326 
L 225.599366 81.917373 
L 227.95649 84.538101 
L 230.444566 87.658408 
L 233.063592 91.334129 
L 235.682619 95.406573 
L 238.432597 100.106723 
L 241.313526 105.490413 
L 244.325407 111.616418 
L 245.111115 113.464269 
L 246.158726 116.650403 
L 247.468239 121.468688 
L 248.908704 127.701661 
L 250.48012 135.548566 
L 252.182487 145.229805 
L 254.015806 156.961665 
L 255.980076 170.955733 
L 257.551492 183.425206 
L 258.599102 193.700061 
L 259.777664 207.367934 
L 261.218129 226.907321 
L 263.837156 265.703392 
L 266.718085 311.685749 
L 268.813306 344.589148 
L 269.468063 351.178878 
L 269.860917 354.018246 
L 270.253771 354.830501 
L 270.515674 354.799351 
L 270.908528 354.275676 
L 271.956138 352.218001 
L 272.348992 351.258811 
L 272.872798 349.367466 
L 273.658506 345.464879 
L 275.229922 335.977006 
L 277.06324 325.599297 
L 277.587046 323.735576 
L 277.9799 323.018534 
L 278.241802 322.906276 
L 278.503705 323.096116 
L 278.765608 323.583939 
L 279.158462 324.836999 
L 279.813218 328.020194 
L 281.122732 334.964332 
L 281.777488 337.294717 
L 282.432245 338.806382 
L 282.95605 339.476405 
L 283.479856 339.749116 
L 284.003661 339.727957 
L 284.789369 339.394709 
L 285.313174 339.016793 
L 286.229834 338.305629 
L 286.622688 338.291523 
L 287.015542 338.59656 
L 287.408396 339.263056 
L 287.932201 340.683621 
L 289.241714 344.743723 
L 289.896471 345.986203 
L 290.420276 346.547494 
L 290.944082 346.745562 
L 291.467887 346.630953 
L 292.122644 346.159586 
L 293.170254 345.042294 
L 294.610719 343.357834 
L 295.003573 343.255567 
L 295.396427 343.43953 
L 295.789281 343.920888 
L 296.313086 344.958835 
L 297.229746 346.892497 
L 297.884502 347.777044 
L 298.408308 348.120284 
L 298.932113 348.064449 
L 299.848772 347.618355 
L 300.63448 346.955385 
L 302.074945 345.406693 
L 302.860653 344.679072 
L 303.253507 344.544479 
L 303.646361 344.621473 
L 304.039215 344.918869 
L 304.56302 345.606524 
L 305.47968 346.902489 
L 306.134436 347.476122 
L 306.658242 347.5443 
L 307.574901 347.293923 
L 308.360609 346.941279 
L 309.539171 346.120208 
L 311.503441 344.777812 
L 312.027246 344.814252 
L 312.551052 345.113411 
L 314.515322 346.672683 
L 315.170078 346.809626 
L 315.824835 346.737334 
L 316.610543 346.427595 
L 318.051008 345.56068 
L 319.491472 344.686712 
L 320.015278 344.609131 
L 320.539083 344.74196 
L 321.19384 345.170421 
L 322.110499 345.811645 
L 322.896207 346.113743 
L 323.681915 346.169578 
L 324.467623 346.003248 
L 325.646185 345.491915 
L 328.003309 344.420466 
L 328.658066 344.470424 
L 329.312822 344.765469 
L 330.622336 345.451949 
L 331.538995 345.638262 
L 332.455654 345.570084 
L 333.634216 345.21509 
L 336.384194 344.269417 
L 337.038951 344.34406 
L 337.824659 344.668492 
L 338.87227 345.084024 
L 339.788929 345.239775 
L 340.83654 345.176887 
L 342.277004 344.814839 
L 344.76508 344.193011 
L 345.550788 344.308208 
L 348.038863 344.958835 
L 349.217425 344.906527 
L 351.050744 344.5339 
L 353.015014 344.166563 
L 353.931673 344.274119 
L 356.288797 344.764881 
L 357.59831 344.724328 
L 359.824483 344.364043 
L 361.395899 344.169502 
L 362.44351 344.292339 
L 364.40778 344.625587 
L 365.848244 344.615008 
L 368.33632 344.308796 
L 369.907736 344.191248 
L 371.217249 344.363456 
L 372.919616 344.550357 
L 374.621984 344.505689 
L 378.943378 344.265303 
L 381.824307 344.499223 
L 384.181431 344.37286 
L 387.06236 344.260601 
L 390.9909 344.442213 
L 396.228954 344.338183 
L 398.717029 344.42987 
L 414.824043 344.396369 
L 418.883534 344.323489 
L 421.895415 344.365219 
L 425.823955 344.359929 
L 431.062008 344.376386 
L 436.038159 344.334069 
L 455.026102 344.359342 
L 467.59743 344.361692 
L 491.823427 344.364043 
L 498.109091 344.364043 
L 498.109091 344.364043 
" style="fill:none;stroke:#008000;stroke-linecap:square;stroke-width:1.5;"/>
   </g>
   <g id="patch_3">
    <path d="M 72 384.48 
L 72 51.84 
" style="fill:none;stroke:#000000;stroke-linecap:square;stroke-linejoin:miter;stroke-width:0.8;"/>
   </g>
   <g id="patch_4">
    <path d="M 518.4 384.48 
L 518.4 51.84 
" style="fill:none;stroke:#000000;stroke-linecap:square;stroke-linejoin:miter;stroke-width:0.8;"/>
   </g>
   <g id="patch_5">
    <path d="M 72 384.48 
L 518.4 384.48 
" style="fill:none;stroke:#000000;stroke-linecap:square;stroke-linejoin:miter;stroke-width:0.8;"/>
   </g>
   <g id="patch_6">
    <path d="M 72 51.84 
L 518.4 51.84 
" style="fill:none;stroke:#000000;stroke-linecap:square;stroke-linejoin:miter;stroke-width:0.8;"/>
   </g>
   <g id="text_16">
    <!-- $\partial \mathcal{L}/ \partial \mu^{U_{\mathrm{min}}}_{m}$ -->
    <g transform="translate(265.59 45.84)scale(0.14 -0.14)">
     <use transform="translate(0 0.684375)" xlink:href="#DejaVuSans-2202"/>
     <use transform="translate(51.708984 0.684375)" xlink:href="#STIXNonUnicode-Italic-e238"/>
     <use transform="translate(121.008972 0.684375)" xlink:href="#DejaVuSans-2f"/>
     <use transform="translate(154.700378 0.684375)" xlink:href="#DejaVuSans-2202"/>
     <use transform="translate(206.409363 0.684375)" xlink:href="#DejaVuSans-Oblique-3bc"/>
     <use transform="translate(274.498556 38.965625)scale(0.7)" xlink:href="#DejaVuSans-Oblique-55"/>
     <use transform="translate(325.733907 27.48125)scale(0.49)" xlink:href="#DejaVuSans-6d"/>
     <use transform="translate(373.465841 27.48125)scale(0.49)" xlink:href="#DejaVuSans-69"/>
     <use transform="translate(387.07961 27.48125)scale(0.49)" xlink:href="#DejaVuSans-6e"/>
     <use transform="translate(270.03241 -26.659375)scale(0.7)" xlink:href="#DejaVuSans-Oblique-6d"/>
    </g>
   </g>
   <g id="legend_1">
    <g id="patch_7">
     <path d="M 437.1 130.94 
L 511.4 130.94 
Q 513.4 130.94 513.4 128.94 
L 513.4 58.84 
Q 513.4 56.84 511.4 56.84 
L 437.1 56.84 
Q 435.1 56.84 435.1 58.84 
L 435.1 128.94 
Q 435.1 130.94 437.1 130.94 
z
" style="fill:#ffffff;opacity:0.8;stroke:#cccccc;stroke-linejoin:miter;"/>
    </g>
    <g id="line2d_31">
     <path d="M 439.1 67.24 
L 459.1 67.24 
" style="fill:none;stroke:#bf00bf;stroke-linecap:square;stroke-width:1.5;"/>
    </g>
    <g id="line2d_32"/>
    <g id="text_17">
     <!-- $\partial \mathcal{L}/ \partial \mu^{U_{\mathrm{min}}}_{1}$ -->
     <g transform="translate(467.1 70.74)scale(0.1 -0.1)">
      <use transform="translate(0 0.290625)" xlink:href="#DejaVuSans-2202"/>
      <use transform="translate(51.708984 0.290625)" xlink:href="#STIXNonUnicode-Italic-e238"/>
      <use transform="translate(121.008972 0.290625)" xlink:href="#DejaVuSans-2f"/>
      <use transform="translate(154.700378 0.290625)" xlink:href="#DejaVuSans-2202"/>
      <use transform="translate(206.409363 0.290625)" xlink:href="#DejaVuSans-Oblique-3bc"/>
      <use transform="translate(274.498556 47.965625)scale(0.7)" xlink:href="#DejaVuSans-Oblique-55"/>
      <use transform="translate(325.733907 36.48125)scale(0.49)" xlink:href="#DejaVuSans-6d"/>
      <use transform="translate(373.465841 36.48125)scale(0.49)" xlink:href="#DejaVuSans-69"/>
      <use transform="translate(387.07961 36.48125)scale(0.49)" xlink:href="#DejaVuSans-6e"/>
      <use transform="translate(270.03241 -27.053125)scale(0.7)" xlink:href="#DejaVuSans-31"/>
     </g>
    </g>
    <g id="line2d_33">
     <path d="M 439.1 85.04 
L 459.1 85.04 
" style="fill:none;stroke:#00bfbf;stroke-linecap:square;stroke-width:1.5;"/>
    </g>
    <g id="line2d_34"/>
    <g id="text_18">
     <!-- $\partial \mathcal{L}/ \partial \mu^{U_{\mathrm{min}}}_{2}$ -->
     <g transform="translate(467.1 88.54)scale(0.1 -0.1)">
      <use transform="translate(0 0.371875)" xlink:href="#DejaVuSans-2202"/>
      <use transform="translate(51.708984 0.371875)" xlink:href="#STIXNonUnicode-Italic-e238"/>
      <use transform="translate(121.008972 0.371875)" xlink:href="#DejaVuSans-2f"/>
      <use transform="translate(154.700378 0.371875)" xlink:href="#DejaVuSans-2202"/>
      <use transform="translate(206.409363 0.371875)" xlink:href="#DejaVuSans-Oblique-3bc"/>
      <use transform="translate(274.498556 48.965625)scale(0.7)" xlink:href="#DejaVuSans-Oblique-55"/>
      <use transform="translate(325.733907 37.48125)scale(0.49)" xlink:href="#DejaVuSans-6d"/>
      <use transform="translate(373.465841 37.48125)scale(0.49)" xlink:href="#DejaVuSans-69"/>
      <use transform="translate(387.07961 37.48125)scale(0.49)" xlink:href="#DejaVuSans-6e"/>
      <use transform="translate(270.03241 -26.971875)scale(0.7)" xlink:href="#DejaVuSans-32"/>
     </g>
    </g>
    <g id="line2d_35">
     <path d="M 439.1 102.84 
L 459.1 102.84 
" style="fill:none;stroke:#ff0000;stroke-linecap:square;stroke-width:1.5;"/>
    </g>
    <g id="line2d_36"/>
    <g id="text_19">
     <!-- $\partial \mathcal{L}/ \partial \mu^{U_{\mathrm{min}}}_{3}$ -->
     <g transform="translate(467.1 106.34)scale(0.1 -0.1)">
      <use transform="translate(0 0.371875)" xlink:href="#DejaVuSans-2202"/>
      <use transform="translate(51.708984 0.371875)" xlink:href="#STIXNonUnicode-Italic-e238"/>
      <use transform="translate(121.008972 0.371875)" xlink:href="#DejaVuSans-2f"/>
      <use transform="translate(154.700378 0.371875)" xlink:href="#DejaVuSans-2202"/>
      <use transform="translate(206.409363 0.371875)" xlink:href="#DejaVuSans-Oblique-3bc"/>
      <use transform="translate(274.498556 48.965625)scale(0.7)" xlink:href="#DejaVuSans-Oblique-55"/>
      <use transform="translate(325.733907 37.48125)scale(0.49)" xlink:href="#DejaVuSans-6d"/>
      <use transform="translate(373.465841 37.48125)scale(0.49)" xlink:href="#DejaVuSans-69"/>
      <use transform="translate(387.07961 37.48125)scale(0.49)" xlink:href="#DejaVuSans-6e"/>
      <use transform="translate(270.03241 -26.971875)scale(0.7)" xlink:href="#DejaVuSans-33"/>
     </g>
    </g>
    <g id="line2d_37">
     <path d="M 439.1 120.64 
L 459.1 120.64 
" style="fill:none;stroke:#008000;stroke-linecap:square;stroke-width:1.5;"/>
    </g>
    <g id="line2d_38"/>
    <g id="text_20">
     <!-- $\partial \mathcal{L}/ \partial \mu^{U_{\mathrm{min}}}_{4}$ -->
     <g transform="translate(467.1 124.14)scale(0.1 -0.1)">
      <use transform="translate(0 0.290625)" xlink:href="#DejaVuSans-2202"/>
      <use transform="translate(51.708984 0.290625)" xlink:href="#STIXNonUnicode-Italic-e238"/>
      <use transform="translate(121.008972 0.290625)" xlink:href="#DejaVuSans-2f"/>
      <use transform="translate(154.700378 0.290625)" xlink:href="#DejaVuSans-2202"/>
      <use transform="translate(206.409363 0.290625)" xlink:href="#DejaVuSans-Oblique-3bc"/>
      <use transform="translate(274.498556 47.965625)scale(0.7)" xlink:href="#DejaVuSans-Oblique-55"/>
      <use transform="translate(325.733907 36.48125)scale(0.49)" xlink:href="#DejaVuSans-6d"/>
      <use transform="translate(373.465841 36.48125)scale(0.49)" xlink:href="#DejaVuSans-69"/>
      <use transform="translate(387.07961 36.48125)scale(0.49)" xlink:href="#DejaVuSans-6e"/>
      <use transform="translate(270.03241 -27.053125)scale(0.7)" xlink:href="#DejaVuSans-34"/>
     </g>
    </g>
   </g>
  </g>
 </g>
 <defs>
  <clipPath id="p78c6c0360f">
   <rect height="332.64" width="446.4" x="72" y="51.84"/>
  </clipPath>
 </defs>
</svg>
