<?xml version="1.0" encoding="utf-8" standalone="no"?>
<!DOCTYPE svg PUBLIC "-//W3C//DTD SVG 1.1//EN"
  "http://www.w3.org/Graphics/SVG/1.1/DTD/svg11.dtd">
<!-- Created with matplotlib (http://matplotlib.org/) -->
<svg height="432pt" version="1.1" viewBox="0 0 576 432" width="576pt" xmlns="http://www.w3.org/2000/svg" xmlns:xlink="http://www.w3.org/1999/xlink">
 <defs>
  <style type="text/css">
*{stroke-linecap:butt;stroke-linejoin:round;}
  </style>
 </defs>
 <g id="figure_1">
  <g id="patch_1">
   <path d="M 0 432 
L 576 432 
L 576 0 
L 0 0 
z
" style="fill:#ffffff;"/>
  </g>
  <g id="axes_1">
   <g id="patch_2">
    <path d="M 72 384.48 
L 518.4 384.48 
L 518.4 51.84 
L 72 51.84 
z
" style="fill:#ffffff;"/>
   </g>
   <g id="matplotlib.axis_1">
    <g id="xtick_1">
     <g id="line2d_1">
      <path clip-path="url(#p3a0c85ca40)" d="M 92.290909 384.48 
L 92.290909 51.84 
" style="fill:none;stroke:#b0b0b0;stroke-dasharray:5.12,1.28,0.8,1.28;stroke-dashoffset:0;stroke-width:0.8;"/>
     </g>
     <g id="line2d_2">
      <defs>
       <path d="M 0 0 
L 0 3.5 
" id="madc14ee45d" style="stroke:#000000;stroke-width:0.8;"/>
      </defs>
      <g>
       <use style="stroke:#000000;stroke-width:0.8;" x="92.290909" xlink:href="#madc14ee45d" y="384.48"/>
      </g>
     </g>
     <g id="text_1">
      <text style="font-family:DejaVu Sans;font-size:10px;font-style:normal;font-weight:400;text-anchor:middle;" transform="rotate(-0, 92.290909, 399.078438)" x="92.290909" y="399.078438">0</text>
     </g>
    </g>
    <g id="xtick_2">
     <g id="line2d_3">
      <path clip-path="url(#p3a0c85ca40)" d="M 187.1304 384.48 
L 187.1304 51.84 
" style="fill:none;stroke:#b0b0b0;stroke-dasharray:5.12,1.28,0.8,1.28;stroke-dashoffset:0;stroke-width:0.8;"/>
     </g>
     <g id="line2d_4">
      <g>
       <use style="stroke:#000000;stroke-width:0.8;" x="187.1304" xlink:href="#madc14ee45d" y="384.48"/>
      </g>
     </g>
     <g id="text_2">
      <text style="font-family:DejaVu Sans;font-size:10px;font-style:normal;font-weight:400;text-anchor:middle;" transform="rotate(-0, 187.1304, 399.078438)" x="187.1304" y="399.078438">1000</text>
     </g>
    </g>
    <g id="xtick_3">
     <g id="line2d_5">
      <path clip-path="url(#p3a0c85ca40)" d="M 281.969891 384.48 
L 281.969891 51.84 
" style="fill:none;stroke:#b0b0b0;stroke-dasharray:5.12,1.28,0.8,1.28;stroke-dashoffset:0;stroke-width:0.8;"/>
     </g>
     <g id="line2d_6">
      <g>
       <use style="stroke:#000000;stroke-width:0.8;" x="281.969891" xlink:href="#madc14ee45d" y="384.48"/>
      </g>
     </g>
     <g id="text_3">
      <text style="font-family:DejaVu Sans;font-size:10px;font-style:normal;font-weight:400;text-anchor:middle;" transform="rotate(-0, 281.969891, 399.078438)" x="281.969891" y="399.078438">2000</text>
     </g>
    </g>
    <g id="xtick_4">
     <g id="line2d_7">
      <path clip-path="url(#p3a0c85ca40)" d="M 376.809382 384.48 
L 376.809382 51.84 
" style="fill:none;stroke:#b0b0b0;stroke-dasharray:5.12,1.28,0.8,1.28;stroke-dashoffset:0;stroke-width:0.8;"/>
     </g>
     <g id="line2d_8">
      <g>
       <use style="stroke:#000000;stroke-width:0.8;" x="376.809382" xlink:href="#madc14ee45d" y="384.48"/>
      </g>
     </g>
     <g id="text_4">
      <text style="font-family:DejaVu Sans;font-size:10px;font-style:normal;font-weight:400;text-anchor:middle;" transform="rotate(-0, 376.809382, 399.078438)" x="376.809382" y="399.078438">3000</text>
     </g>
    </g>
    <g id="xtick_5">
     <g id="line2d_9">
      <path clip-path="url(#p3a0c85ca40)" d="M 471.648873 384.48 
L 471.648873 51.84 
" style="fill:none;stroke:#b0b0b0;stroke-dasharray:5.12,1.28,0.8,1.28;stroke-dashoffset:0;stroke-width:0.8;"/>
     </g>
     <g id="line2d_10">
      <g>
       <use style="stroke:#000000;stroke-width:0.8;" x="471.648873" xlink:href="#madc14ee45d" y="384.48"/>
      </g>
     </g>
     <g id="text_5">
      <text style="font-family:DejaVu Sans;font-size:10px;font-style:normal;font-weight:400;text-anchor:middle;" transform="rotate(-0, 471.648873, 399.078438)" x="471.648873" y="399.078438">4000</text>
     </g>
    </g>
    <g id="text_6">
     <text style="font-family:DejaVu Sans;font-size:14px;font-style:normal;font-weight:400;text-anchor:middle;" transform="rotate(-0, 295.2, 415.795938)" x="295.2" y="415.795938">Iteration</text>
    </g>
   </g>
   <g id="matplotlib.axis_2">
    <g id="ytick_1">
     <g id="line2d_11">
      <path clip-path="url(#p3a0c85ca40)" d="M 72 340.293826 
L 518.4 340.293826 
" style="fill:none;stroke:#b0b0b0;stroke-dasharray:5.12,1.28,0.8,1.28;stroke-dashoffset:0;stroke-width:0.8;"/>
     </g>
     <g id="line2d_12">
      <defs>
       <path d="M 0 0 
L -3.5 0 
" id="mf51b4a800d" style="stroke:#000000;stroke-width:0.8;"/>
      </defs>
      <g>
       <use style="stroke:#000000;stroke-width:0.8;" x="72" xlink:href="#mf51b4a800d" y="340.293826"/>
      </g>
     </g>
     <g id="text_7">
      <text style="font-family:DejaVu Sans;font-size:10px;font-style:normal;font-weight:400;text-anchor:end;" transform="rotate(-0, 65, 344.093045)" x="65" y="344.093045">−1</text>
     </g>
    </g>
    <g id="ytick_2">
     <g id="line2d_13">
      <path clip-path="url(#p3a0c85ca40)" d="M 72 284.397338 
L 518.4 284.397338 
" style="fill:none;stroke:#b0b0b0;stroke-dasharray:5.12,1.28,0.8,1.28;stroke-dashoffset:0;stroke-width:0.8;"/>
     </g>
     <g id="line2d_14">
      <g>
       <use style="stroke:#000000;stroke-width:0.8;" x="72" xlink:href="#mf51b4a800d" y="284.397338"/>
      </g>
     </g>
     <g id="text_8">
      <text style="font-family:DejaVu Sans;font-size:10px;font-style:normal;font-weight:400;text-anchor:end;" transform="rotate(-0, 65, 288.196557)" x="65" y="288.196557">0</text>
     </g>
    </g>
    <g id="ytick_3">
     <g id="line2d_15">
      <path clip-path="url(#p3a0c85ca40)" d="M 72 228.50085 
L 518.4 228.50085 
" style="fill:none;stroke:#b0b0b0;stroke-dasharray:5.12,1.28,0.8,1.28;stroke-dashoffset:0;stroke-width:0.8;"/>
     </g>
     <g id="line2d_16">
      <g>
       <use style="stroke:#000000;stroke-width:0.8;" x="72" xlink:href="#mf51b4a800d" y="228.50085"/>
      </g>
     </g>
     <g id="text_9">
      <text style="font-family:DejaVu Sans;font-size:10px;font-style:normal;font-weight:400;text-anchor:end;" transform="rotate(-0, 65, 232.300069)" x="65" y="232.300069">1</text>
     </g>
    </g>
    <g id="ytick_4">
     <g id="line2d_17">
      <path clip-path="url(#p3a0c85ca40)" d="M 72 172.604362 
L 518.4 172.604362 
" style="fill:none;stroke:#b0b0b0;stroke-dasharray:5.12,1.28,0.8,1.28;stroke-dashoffset:0;stroke-width:0.8;"/>
     </g>
     <g id="line2d_18">
      <g>
       <use style="stroke:#000000;stroke-width:0.8;" x="72" xlink:href="#mf51b4a800d" y="172.604362"/>
      </g>
     </g>
     <g id="text_10">
      <text style="font-family:DejaVu Sans;font-size:10px;font-style:normal;font-weight:400;text-anchor:end;" transform="rotate(-0, 65, 176.403581)" x="65" y="176.403581">2</text>
     </g>
    </g>
    <g id="ytick_5">
     <g id="line2d_19">
      <path clip-path="url(#p3a0c85ca40)" d="M 72 116.707874 
L 518.4 116.707874 
" style="fill:none;stroke:#b0b0b0;stroke-dasharray:5.12,1.28,0.8,1.28;stroke-dashoffset:0;stroke-width:0.8;"/>
     </g>
     <g id="line2d_20">
      <g>
       <use style="stroke:#000000;stroke-width:0.8;" x="72" xlink:href="#mf51b4a800d" y="116.707874"/>
      </g>
     </g>
     <g id="text_11">
      <text style="font-family:DejaVu Sans;font-size:10px;font-style:normal;font-weight:400;text-anchor:end;" transform="rotate(-0, 65, 120.507093)" x="65" y="120.507093">3</text>
     </g>
    </g>
    <g id="ytick_6">
     <g id="line2d_21">
      <path clip-path="url(#p3a0c85ca40)" d="M 72 60.811386 
L 518.4 60.811386 
" style="fill:none;stroke:#b0b0b0;stroke-dasharray:5.12,1.28,0.8,1.28;stroke-dashoffset:0;stroke-width:0.8;"/>
     </g>
     <g id="line2d_22">
      <g>
       <use style="stroke:#000000;stroke-width:0.8;" x="72" xlink:href="#mf51b4a800d" y="60.811386"/>
      </g>
     </g>
     <g id="text_12">
      <text style="font-family:DejaVu Sans;font-size:10px;font-style:normal;font-weight:400;text-anchor:end;" transform="rotate(-0, 65, 64.610605)" x="65" y="64.610605">4</text>
     </g>
    </g>
    <g id="text_13">
     <text style="font-family:DejaVu Sans;font-size:14px;font-style:normal;font-weight:400;text-anchor:middle;" transform="rotate(-90, 42.956875, 218.16)" x="42.956875" y="218.16">$\Delta \lambda_{m}[m.u/W]$</text>
    </g>
    <g id="text_14">
     <text style="font-family:DejaVu Sans;font-size:10px;font-style:normal;font-weight:400;text-anchor:start;" transform="rotate(-0, 72, 48.84)" x="72" y="48.84">1e−2</text>
    </g>
   </g>
   <g id="line2d_23">
    <path clip-path="url(#p3a0c85ca40)" d="M 92.290909 284.397338 
L 92.385749 284.397338 
L 92.670267 283.279409 
L 92.765107 283.279409 
L 93.049625 284.397338 
L 93.618662 284.397338 
L 93.713501 284.956303 
L 94.092859 283.279409 
L 94.377378 284.397338 
L 109.836215 284.397338 
L 110.025894 285.515268 
L 110.310412 285.515268 
L 110.500091 284.956303 
L 110.594931 284.956303 
L 110.68977 284.397338 
L 110.879449 273.777006 
L 111.069128 273.777006 
L 111.448486 270.982181 
L 111.733005 268.746322 
L 112.396881 264.274603 
L 112.6814 262.038743 
L 113.629795 257.008059 
L 113.724634 257.008059 
L 114.38851 253.65427 
L 114.48335 253.65427 
L 114.862708 251.977375 
L 114.957547 251.977375 
L 115.242066 250.859445 
L 115.336905 250.859445 
L 115.621424 249.741516 
L 115.716263 249.741516 
L 116.000782 248.623586 
L 116.095621 248.623586 
L 116.38014 247.505656 
L 116.569819 247.505656 
L 116.854337 246.387726 
L 117.044016 246.387726 
L 117.233695 245.828762 
L 117.328535 245.828762 
L 117.518214 245.269797 
L 117.707893 245.269797 
L 117.897572 244.710832 
L 117.992411 244.710832 
L 118.18209 244.151867 
L 118.371769 244.151867 
L 118.561448 243.592902 
L 118.751127 243.592902 
L 118.940806 243.033937 
L 119.225325 243.033937 
L 119.415004 242.474972 
L 119.699522 242.474972 
L 119.889201 241.916007 
L 120.268559 241.916007 
L 120.458238 241.357043 
L 120.932435 241.357043 
L 121.122114 240.798078 
L 121.691151 240.798078 
L 121.88083 240.239113 
L 122.165349 240.239113 
L 122.355028 239.680148 
L 123.682781 239.680148 
L 123.87246 240.239113 
L 124.156978 240.239113 
L 124.346657 240.798078 
L 124.631176 240.798078 
L 124.820854 241.357043 
L 125.295052 241.357043 
L 125.484731 241.916007 
L 126.433126 241.916007 
L 126.622805 241.357043 
L 127.097002 241.357043 
L 127.286681 240.798078 
L 127.5712 240.798078 
L 127.760879 240.239113 
L 128.140237 240.239113 
L 128.329916 239.680148 
L 129.562829 239.680148 
L 129.752508 240.239113 
L 130.131866 240.239113 
L 130.321545 240.798078 
L 130.606063 240.798078 
L 130.795742 241.357043 
L 131.1751 241.357043 
L 131.364779 241.916007 
L 132.313174 241.916007 
L 132.502853 241.357043 
L 132.977051 241.357043 
L 133.16673 240.798078 
L 133.451248 240.798078 
L 133.640927 240.239113 
L 134.020285 240.239113 
L 134.209964 239.680148 
L 135.348038 239.680148 
L 135.537717 240.239113 
L 135.917075 240.239113 
L 136.106754 240.798078 
L 136.486112 240.798078 
L 136.675791 241.357043 
L 137.149988 241.357043 
L 137.339667 241.916007 
L 138.098383 241.916007 
L 138.288062 241.357043 
L 138.76226 241.357043 
L 138.951939 240.798078 
L 139.331297 240.798078 
L 139.520976 240.239113 
L 139.900334 240.239113 
L 140.090013 239.680148 
L 141.133247 239.680148 
L 141.322926 240.239113 
L 141.797123 240.239113 
L 141.986802 240.798078 
L 142.271321 240.798078 
L 142.461 241.357043 
L 143.030037 241.357043 
L 143.219716 241.916007 
L 143.883592 241.916007 
L 144.073271 241.357043 
L 144.547469 241.357043 
L 144.737148 240.798078 
L 145.116506 240.798078 
L 145.306185 240.239113 
L 145.780382 240.239113 
L 145.970061 239.680148 
L 146.918456 239.680148 
L 147.108135 240.239113 
L 147.582332 240.239113 
L 147.772011 240.798078 
L 148.151369 240.798078 
L 148.341048 241.357043 
L 148.815246 241.357043 
L 149.004925 241.916007 
L 149.668801 241.916007 
L 149.85848 241.357043 
L 150.332678 241.357043 
L 150.522357 240.798078 
L 150.901715 240.798078 
L 151.091393 240.239113 
L 151.565591 240.239113 
L 151.75527 239.680148 
L 152.703665 239.680148 
L 152.893344 240.239113 
L 153.367541 240.239113 
L 153.55722 240.798078 
L 153.841739 240.798078 
L 154.031418 241.357043 
L 154.695294 241.357043 
L 154.884973 241.916007 
L 155.264331 241.916007 
L 155.45401 241.357043 
L 156.117887 241.357043 
L 156.307565 240.798078 
L 156.686923 240.798078 
L 156.876602 240.239113 
L 157.3508 240.239113 
L 157.540479 239.680148 
L 158.394034 239.680148 
L 158.583713 240.239113 
L 159.057911 240.239113 
L 159.24759 240.798078 
L 159.626948 240.798078 
L 159.816627 241.357043 
L 160.575343 241.357043 
L 160.765022 241.916007 
L 160.954701 241.916007 
L 161.14438 241.357043 
L 161.808256 241.357043 
L 161.997935 240.798078 
L 162.377293 240.798078 
L 162.566972 240.239113 
L 163.136009 240.239113 
L 163.325688 239.680148 
L 163.989564 239.680148 
L 164.179243 240.239113 
L 164.74828 240.239113 
L 164.937959 240.798078 
L 165.317317 240.798078 
L 165.506996 241.357043 
L 167.498625 241.357043 
L 167.688304 240.798078 
L 168.067662 240.798078 
L 168.257341 240.239113 
L 168.921218 240.239113 
L 169.110897 239.680148 
L 169.585094 239.680148 
L 169.774773 240.239113 
L 170.43865 240.239113 
L 170.628329 240.798078 
L 171.007687 240.798078 
L 171.197366 241.357043 
L 173.094155 241.357043 
L 173.283834 240.798078 
L 173.758032 240.798078 
L 173.947711 240.239113 
L 174.706427 240.239113 
L 174.896106 239.680148 
L 175.085785 239.680148 
L 175.275464 240.239113 
L 176.03418 240.239113 
L 176.223859 240.798078 
L 176.413538 240.798078 
L 176.603217 240.239113 
L 176.887735 240.239113 
L 177.077414 239.680148 
L 177.361932 239.680148 
L 177.551611 239.121183 
L 177.74129 239.121183 
L 177.930969 238.562218 
L 178.120648 238.562218 
L 178.310327 238.003253 
L 178.594846 238.003253 
L 178.784525 237.444288 
L 178.974204 237.444288 
L 179.163883 236.885323 
L 179.353562 236.885323 
L 179.543241 236.326359 
L 179.827759 236.326359 
L 180.017438 235.767394 
L 180.207117 235.767394 
L 180.396796 235.208429 
L 180.586475 235.208429 
L 180.776154 234.649464 
L 180.965833 234.649464 
L 181.155512 234.090499 
L 181.440031 234.090499 
L 181.62971 233.531534 
L 181.819389 233.531534 
L 182.009068 232.972569 
L 182.198747 232.972569 
L 182.388426 232.413604 
L 182.672944 232.413604 
L 182.862623 231.85464 
L 183.052302 231.85464 
L 183.241981 231.295675 
L 183.43166 231.295675 
L 183.621339 230.73671 
L 183.811018 230.73671 
L 184.000697 230.177745 
L 184.285215 230.177745 
L 184.474894 229.61878 
L 184.664573 229.61878 
L 184.854252 229.059815 
L 185.043931 229.059815 
L 185.23361 228.50085 
L 185.423289 228.50085 
L 185.612968 227.941885 
L 185.897487 227.941885 
L 186.087166 227.382921 
L 186.276845 227.382921 
L 186.466524 226.823956 
L 186.656203 226.823956 
L 186.845882 226.264991 
L 187.035561 226.264991 
L 187.22524 225.706026 
L 187.509758 225.706026 
L 187.699437 225.147061 
L 187.889116 225.147061 
L 188.078795 224.588096 
L 188.268474 224.588096 
L 188.458153 224.029131 
L 188.647832 224.029131 
L 188.837511 223.470166 
L 189.122029 223.470166 
L 189.311708 222.911201 
L 189.501387 222.911201 
L 189.691066 222.352237 
L 189.880745 222.352237 
L 190.070424 221.793272 
L 190.260103 221.793272 
L 190.449782 221.234307 
L 190.734301 221.234307 
L 190.92398 220.675342 
L 191.113659 220.675342 
L 191.303338 220.116377 
L 191.493017 220.116377 
L 191.682696 219.557412 
L 191.872375 219.557412 
L 192.062054 218.998447 
L 192.346572 218.998447 
L 192.536251 218.439482 
L 192.72593 218.439482 
L 192.915609 217.880518 
L 193.105288 217.880518 
L 193.294967 217.321553 
L 193.484646 217.321553 
L 193.674325 216.762588 
L 193.958843 216.762588 
L 194.148522 216.203623 
L 194.338201 216.203623 
L 194.52788 215.644658 
L 194.717559 215.644658 
L 194.907238 215.085693 
L 195.191757 215.085693 
L 195.381436 214.526728 
L 195.571115 214.526728 
L 195.760794 213.967763 
L 195.950473 213.967763 
L 196.140152 213.408799 
L 196.42467 213.408799 
L 196.614349 212.849834 
L 196.804028 212.849834 
L 196.993707 212.290869 
L 197.183386 212.290869 
L 197.373065 211.731904 
L 197.657584 211.731904 
L 197.847263 211.172939 
L 198.036942 211.172939 
L 198.22662 210.613974 
L 198.416299 210.613974 
L 198.605978 210.055009 
L 198.890497 210.055009 
L 199.080176 209.496044 
L 199.269855 209.496044 
L 199.459534 208.937079 
L 199.744052 208.937079 
L 199.933731 208.378115 
L 200.12341 208.378115 
L 200.313089 207.81915 
L 200.502768 207.81915 
L 200.692447 207.260185 
L 200.976966 207.260185 
L 201.166645 206.70122 
L 201.356324 206.70122 
L 201.546003 206.142255 
L 201.830521 206.142255 
L 202.0202 205.58329 
L 202.209879 205.58329 
L 202.399558 205.024325 
L 202.589237 205.024325 
L 203.727311 197.757782 
L 204.011829 195.521922 
L 205.149903 188.255379 
L 205.434422 186.019519 
L 210.460915 156.953346 
L 210.555754 156.953346 
L 211.31447 153.040591 
L 211.40931 154.717486 
L 211.788668 173.722292 
L 212.262865 183.224695 
L 212.737063 187.696414 
L 213.590618 192.168133 
L 213.685458 192.168133 
L 214.064815 193.845028 
L 215.01321 168.691608 
L 215.771926 160.8661 
L 216.340963 156.953346 
L 216.625482 154.717486 
L 219.375827 138.507505 
L 219.755185 66.96 
L 220.324222 66.96 
L 220.513901 68.07793 
L 220.60874 78.139298 
L 220.798419 127.887172 
L 221.082938 153.040591 
L 221.462296 164.219889 
L 222.031333 172.604362 
L 223.548765 189.373309 
L 223.738444 191.050203 
L 224.591999 199.993641 
L 224.781678 201.670536 
L 225.540394 209.496044 
L 225.730073 211.172939 
L 226.29911 216.762588 
L 226.488789 218.439482 
L 227.057826 224.029131 
L 227.342344 226.264991 
L 227.911381 231.85464 
L 228.1959 234.090499 
L 228.670097 238.562218 
L 228.954616 240.798078 
L 229.333974 244.151867 
L 229.618492 246.387726 
L 229.99785 249.741516 
L 230.282368 251.977375 
L 230.661726 255.331165 
L 231.041084 258.125989 
L 231.420442 261.479778 
L 231.7998 264.274603 
L 232.084319 266.510462 
L 232.463677 269.305287 
L 232.748195 271.541146 
L 233.127553 274.33597 
L 233.412072 276.57183 
L 233.981109 280.484584 
L 234.265627 282.720444 
L 235.024343 287.751128 
L 235.308861 289.986987 
L 236.446935 297.25353 
L 236.731454 299.48939 
L 237.205651 302.284214 
L 237.49017 305.638004 
L 238.343725 314.581442 
L 238.628244 316.817301 
L 239.007602 320.171091 
L 239.38696 322.965915 
L 239.671478 325.201774 
L 241.18891 333.586248 
L 241.283749 333.586248 
L 241.568268 334.704177 
L 241.663107 334.704177 
L 241.852786 335.263142 
L 241.947626 335.263142 
L 243.180539 343.088651 
L 243.465058 345.32451 
L 245.077329 354.267948 
L 245.172169 354.267948 
L 245.836045 357.621738 
L 245.930884 357.621738 
L 246.310242 359.298632 
L 246.405082 359.298632 
L 246.78444 360.975527 
L 246.879279 360.975527 
L 247.163798 362.093457 
L 247.258637 362.093457 
L 247.543156 363.211386 
L 247.637995 363.211386 
L 247.922514 364.329316 
L 248.017353 364.329316 
L 248.207032 364.888281 
L 248.301872 364.888281 
L 248.491551 365.447246 
L 248.58639 365.447246 
L 248.776069 366.006211 
L 248.870909 366.006211 
L 249.060588 366.565176 
L 249.155427 366.565176 
L 249.345106 367.12414 
L 249.534785 367.12414 
L 249.724464 367.683105 
L 250.008983 367.683105 
L 250.198662 368.24207 
L 250.48318 368.24207 
L 250.672859 368.801035 
L 251.241896 368.801035 
L 251.431575 369.36 
L 254.940636 369.36 
L 255.130315 368.801035 
L 255.98387 368.801035 
L 256.173549 368.24207 
L 256.837426 368.24207 
L 257.027105 367.683105 
L 257.596142 367.683105 
L 257.785821 367.12414 
L 258.260018 367.12414 
L 258.449697 366.565176 
L 259.018734 366.565176 
L 259.208413 366.006211 
L 259.682611 366.006211 
L 259.87229 365.447246 
L 260.346487 365.447246 
L 260.536166 364.888281 
L 261.010364 364.888281 
L 261.200042 364.329316 
L 261.769079 364.329316 
L 262.432956 359.857597 
L 262.907153 347.001405 
L 263.47619 338.616932 
L 265.088462 318.494196 
L 265.657499 310.109723 
L 266.131696 303.402144 
L 266.795572 293.340776 
L 267.364609 285.515268 
L 267.838807 278.807689 
L 268.976881 266.510462 
L 269.545918 262.597708 
L 269.735597 261.479778 
L 270.209794 259.243919 
L 270.304634 259.243919 
L 270.494313 258.684954 
L 271.06335 258.684954 
L 271.158189 259.243919 
L 271.253029 257.008059 
L 271.442708 241.357043 
L 271.632386 239.121183 
L 271.727226 239.121183 
L 271.916905 239.680148 
L 272.011744 239.680148 
L 272.296263 240.798078 
L 272.391102 240.798078 
L 273.529176 248.064621 
L 273.813695 258.684954 
L 274.477571 265.392532 
L 278.46083 289.428022 
L 278.745348 291.663882 
L 279.219546 295.017671 
L 279.504064 297.25353 
L 281.780212 310.109723 
L 281.875052 310.109723 
L 282.254409 311.786617 
L 282.349249 311.786617 
L 282.633767 312.904547 
L 282.728607 312.904547 
L 283.013125 314.022477 
L 283.202804 314.022477 
L 283.392483 314.581442 
L 283.582162 314.581442 
L 283.771841 315.140407 
L 285.384113 315.140407 
L 285.573792 314.581442 
L 285.85831 314.581442 
L 286.047989 314.022477 
L 286.142829 314.022477 
L 286.332508 312.345582 
L 286.617026 308.991793 
L 286.901545 306.755933 
L 288.039618 300.60732 
L 288.134458 300.60732 
L 292.686753 274.33597 
L 292.781593 274.33597 
L 293.160951 272.659076 
L 293.25579 272.659076 
L 293.445469 272.100111 
L 293.540309 272.100111 
L 293.729988 271.541146 
L 293.824827 271.541146 
L 294.014506 270.982181 
L 294.962901 270.982181 
L 295.057741 269.864251 
L 295.24742 263.156673 
L 295.531938 262.038743 
L 295.721617 262.597708 
L 296.006136 262.597708 
L 296.195815 263.156673 
L 296.290654 263.156673 
L 296.480333 263.715638 
L 296.575173 263.715638 
L 296.859691 264.833567 
L 296.954531 264.833567 
L 297.239049 265.951497 
L 297.333889 265.951497 
L 297.808086 268.187357 
L 297.902925 268.187357 
L 298.187444 272.100111 
L 298.756481 274.894935 
L 298.85132 274.894935 
L 299.230678 276.57183 
L 299.325518 276.57183 
L 299.610036 277.68976 
L 299.704876 277.68976 
L 300.084234 279.366654 
L 300.179073 279.366654 
L 300.463592 280.484584 
L 300.558431 280.484584 
L 301.032629 282.720444 
L 301.127468 282.720444 
L 301.791345 286.074233 
L 301.886184 286.074233 
L 302.455221 288.869057 
L 302.550061 288.869057 
L 302.929419 290.545952 
L 303.024258 290.545952 
L 303.403616 292.222847 
L 303.498455 292.222847 
L 303.782974 293.340776 
L 303.877813 293.340776 
L 304.162332 294.458706 
L 304.257171 294.458706 
L 304.54169 295.576636 
L 304.636529 295.576636 
L 304.826208 296.135601 
L 304.921048 296.135601 
L 305.205566 297.25353 
L 305.395245 297.25353 
L 305.584924 297.812495 
L 305.774603 297.812495 
L 305.964282 298.37146 
L 306.153961 298.37146 
L 306.34364 298.930425 
L 306.628159 298.930425 
L 306.817838 299.48939 
L 309.188825 299.48939 
L 309.378504 298.930425 
L 309.568183 298.930425 
L 309.852701 296.694566 
L 310.13722 295.576636 
L 310.232059 295.576636 
L 310.516578 294.458706 
L 310.611417 294.458706 
L 310.895936 293.340776 
L 311.085615 293.340776 
L 311.370133 292.222847 
L 311.464973 292.222847 
L 311.749491 291.104917 
L 311.844331 291.104917 
L 312.128849 289.986987 
L 312.223689 289.986987 
L 312.508207 288.869057 
L 312.603047 288.869057 
L 312.887565 287.751128 
L 312.982405 287.751128 
L 313.266923 286.633198 
L 313.361763 286.633198 
L 313.646281 285.515268 
L 313.74112 285.515268 
L 314.025639 284.397338 
L 314.120478 284.397338 
L 314.404997 283.279409 
L 314.499836 283.279409 
L 314.784355 282.161479 
L 314.879194 282.161479 
L 315.163713 281.043549 
L 315.258552 281.043549 
L 315.448231 280.484584 
L 315.543071 280.484584 
L 315.73275 279.925619 
L 315.827589 279.925619 
L 316.017268 279.366654 
L 316.112108 279.366654 
L 316.301787 278.807689 
L 316.396626 278.807689 
L 316.586305 278.248725 
L 316.870824 278.248725 
L 317.060503 277.68976 
L 318.293416 277.68976 
L 318.483095 273.777006 
L 318.672774 273.218041 
L 319.052132 273.218041 
L 319.241811 273.777006 
L 319.716008 273.777006 
L 319.905687 274.33597 
L 320.095366 274.33597 
L 320.285045 274.894935 
L 320.474724 274.894935 
L 320.664403 275.4539 
L 320.759243 275.4539 
L 320.948922 276.012865 
L 321.043761 276.012865 
L 321.23344 276.57183 
L 321.32828 276.57183 
L 321.517959 277.130795 
L 321.612798 277.130795 
L 321.802477 277.68976 
L 321.897317 277.68976 
L 322.181835 278.807689 
L 322.371514 278.807689 
L 322.656033 279.925619 
L 322.845712 279.925619 
L 323.13023 281.043549 
L 323.22507 281.043549 
L 323.414749 281.602514 
L 323.509588 281.602514 
L 323.794107 282.720444 
L 323.888946 282.720444 
L 324.078625 283.279409 
L 324.173464 283.279409 
L 324.457983 284.397338 
L 324.647662 284.397338 
L 324.93218 285.515268 
L 325.121859 285.515268 
L 325.311538 286.074233 
L 325.406378 286.074233 
L 325.690896 287.192163 
L 325.880575 287.192163 
L 326.070254 287.751128 
L 326.165094 287.751128 
L 326.354773 288.310092 
L 326.544452 288.310092 
L 326.734131 288.869057 
L 326.82897 288.869057 
L 327.018649 289.428022 
L 327.208328 289.428022 
L 327.398007 289.986987 
L 327.587686 289.986987 
L 327.777365 290.545952 
L 328.061884 290.545952 
L 328.251563 291.104917 
L 328.536081 291.104917 
L 328.72576 291.663882 
L 329.294797 291.663882 
L 329.484476 292.222847 
L 332.51934 292.222847 
L 332.898698 290.545952 
L 333.088377 290.545952 
L 333.278056 289.986987 
L 333.467735 289.986987 
L 333.657414 289.428022 
L 333.847093 289.428022 
L 334.036772 288.869057 
L 334.32129 288.869057 
L 334.510969 288.310092 
L 334.700648 288.310092 
L 334.890327 287.751128 
L 335.080006 287.751128 
L 335.269685 287.192163 
L 335.364524 287.192163 
L 335.554203 286.633198 
L 335.743882 286.633198 
L 335.933561 286.074233 
L 336.12324 286.074233 
L 336.312919 285.515268 
L 336.407759 285.515268 
L 336.597438 284.956303 
L 336.787117 284.956303 
L 336.976796 284.397338 
L 337.166475 284.397338 
L 337.356154 283.838373 
L 337.450993 283.838373 
L 337.640672 283.279409 
L 337.830351 283.279409 
L 338.02003 282.720444 
L 338.304549 282.720444 
L 338.494228 282.161479 
L 338.778746 282.161479 
L 338.968425 281.602514 
L 339.347783 281.602514 
L 339.537462 281.043549 
L 341.244573 281.043549 
L 341.434252 278.807689 
L 342.856844 278.807689 
L 343.046523 279.366654 
L 343.520721 279.366654 
L 343.7104 279.925619 
L 344.089758 279.925619 
L 344.279437 280.484584 
L 344.563955 280.484584 
L 344.753634 281.043549 
L 345.038152 281.043549 
L 345.227831 281.602514 
L 345.51235 281.602514 
L 345.702029 282.161479 
L 345.986547 282.161479 
L 346.176226 282.720444 
L 346.365905 282.720444 
L 346.555584 283.279409 
L 346.840103 283.279409 
L 347.029782 283.838373 
L 347.219461 283.838373 
L 347.40914 284.397338 
L 347.693658 284.397338 
L 347.883337 284.956303 
L 348.167856 284.956303 
L 348.357535 285.515268 
L 348.736893 285.515268 
L 348.926572 286.074233 
L 349.21109 286.074233 
L 349.400769 286.633198 
L 349.874967 286.633198 
L 350.064646 287.192163 
L 350.538843 287.192163 
L 350.728522 287.751128 
L 351.487238 287.751128 
L 351.676917 288.310092 
L 353.384028 288.310092 
L 353.573707 288.869057 
L 354.332423 288.869057 
L 354.522102 288.310092 
L 355.660175 288.310092 
L 355.849854 287.751128 
L 356.134373 287.751128 
L 356.324052 287.192163 
L 356.893089 287.192163 
L 357.082768 286.633198 
L 357.651805 286.633198 
L 357.841484 286.074233 
L 358.315681 286.074233 
L 358.50536 285.515268 
L 358.979558 285.515268 
L 359.169237 284.956303 
L 359.643434 284.956303 
L 359.833113 284.397338 
L 360.307311 284.397338 
L 360.49699 283.838373 
L 361.066026 283.838373 
L 361.255705 283.279409 
L 362.014421 283.279409 
L 362.2041 282.720444 
L 364.19573 282.720444 
L 364.480248 281.602514 
L 366.471877 281.602514 
L 366.661556 282.161479 
L 367.515112 282.161479 
L 367.704791 282.720444 
L 368.368667 282.720444 
L 368.558346 283.279409 
L 369.222223 283.279409 
L 369.411902 283.838373 
L 370.075778 283.838373 
L 370.265457 284.397338 
L 370.929334 284.397338 
L 371.119013 284.956303 
L 371.972568 284.956303 
L 372.162247 285.515268 
L 373.110642 285.515268 
L 373.300321 286.074233 
L 374.817753 286.074233 
L 375.007432 286.633198 
L 378.611332 286.633198 
L 378.801011 286.074233 
L 379.654567 286.074233 
L 379.844246 285.515268 
L 381.077159 285.515268 
L 381.266838 284.956303 
L 382.404912 284.956303 
L 382.594591 284.397338 
L 383.732665 284.397338 
L 383.922344 283.838373 
L 385.534615 283.838373 
L 385.724294 283.279409 
L 387.431405 283.279409 
L 387.621084 282.720444 
L 389.043676 282.720444 
L 389.233355 283.279409 
L 391.130145 283.279409 
L 391.319824 283.838373 
L 392.742416 283.838373 
L 392.932095 284.397338 
L 394.449527 284.397338 
L 394.639206 284.956303 
L 396.725675 284.956303 
L 396.915354 285.515268 
L 402.131526 285.515268 
L 402.321205 284.956303 
L 404.881871 284.956303 
L 405.07155 284.397338 
L 407.442538 284.397338 
L 407.632217 283.838373 
L 415.029697 283.838373 
L 415.219376 284.397338 
L 418.443919 284.397338 
L 418.633597 284.956303 
L 426.694954 284.956303 
L 426.884633 284.397338 
L 433.333719 284.397338 
L 433.523398 283.838373 
L 436.558261 283.838373 
L 436.74794 284.397338 
L 444.3351 284.397338 
L 444.524779 284.956303 
L 447.749321 284.956303 
L 447.939 284.397338 
L 498.109091 284.397338 
L 498.109091 284.397338 
" style="fill:none;stroke:#bf00bf;stroke-linecap:square;stroke-width:1.5;"/>
   </g>
   <g id="line2d_24">
    <path clip-path="url(#p3a0c85ca40)" d="M 92.290909 284.397338 
L 110.68977 284.397338 
L 110.78461 264.274603 
L 110.974289 274.33597 
L 111.353647 270.982181 
L 111.733005 268.187357 
L 112.017523 265.951497 
L 113.914313 255.331165 
L 114.009153 255.331165 
L 114.48335 253.095305 
L 114.578189 253.095305 
L 114.957547 251.41841 
L 115.052387 251.41841 
L 115.431745 249.741516 
L 115.526584 249.741516 
L 115.716263 249.182551 
L 115.811103 249.182551 
L 116.095621 248.064621 
L 116.190461 248.064621 
L 116.38014 247.505656 
L 116.474979 247.505656 
L 116.759498 246.387726 
L 116.949177 246.387726 
L 117.138856 245.828762 
L 117.233695 245.828762 
L 117.423374 245.269797 
L 117.518214 245.269797 
L 117.707893 244.710832 
L 117.897572 244.710832 
L 118.087251 244.151867 
L 118.18209 244.151867 
L 118.371769 243.592902 
L 118.656288 243.592902 
L 118.845967 243.033937 
L 119.035646 243.033937 
L 119.225325 242.474972 
L 119.509843 242.474972 
L 119.699522 241.916007 
L 120.07888 241.916007 
L 120.268559 241.357043 
L 120.742756 241.357043 
L 120.932435 240.798078 
L 121.501472 240.798078 
L 121.691151 240.239113 
L 121.97567 240.239113 
L 122.165349 239.680148 
L 123.682781 239.680148 
L 123.87246 240.239113 
L 124.156978 240.239113 
L 124.346657 240.798078 
L 124.631176 240.798078 
L 124.820854 241.357043 
L 125.295052 241.357043 
L 125.484731 241.916007 
L 126.338286 241.916007 
L 126.527965 241.357043 
L 126.907323 241.357043 
L 127.097002 240.798078 
L 127.381521 240.798078 
L 127.5712 240.239113 
L 127.950558 240.239113 
L 128.140237 239.680148 
L 129.562829 239.680148 
L 129.752508 240.239113 
L 130.037026 240.239113 
L 130.226705 240.798078 
L 130.511224 240.798078 
L 130.700903 241.357043 
L 131.1751 241.357043 
L 131.364779 241.916007 
L 132.123495 241.916007 
L 132.313174 241.357043 
L 132.787372 241.357043 
L 132.977051 240.798078 
L 133.261569 240.798078 
L 133.451248 240.239113 
L 133.830606 240.239113 
L 134.020285 239.680148 
L 135.348038 239.680148 
L 135.537717 240.239113 
L 135.917075 240.239113 
L 136.106754 240.798078 
L 136.391272 240.798078 
L 136.580951 241.357043 
L 137.149988 241.357043 
L 137.339667 241.916007 
L 137.908704 241.916007 
L 138.098383 241.357043 
L 138.66742 241.357043 
L 138.857099 240.798078 
L 139.141618 240.798078 
L 139.331297 240.239113 
L 139.710655 240.239113 
L 139.900334 239.680148 
L 141.228086 239.680148 
L 141.417765 240.239113 
L 141.797123 240.239113 
L 141.986802 240.798078 
L 142.271321 240.798078 
L 142.461 241.357043 
L 143.030037 241.357043 
L 143.219716 241.916007 
L 143.693913 241.916007 
L 143.883592 241.357043 
L 144.452629 241.357043 
L 144.642308 240.798078 
L 144.926827 240.798078 
L 145.116506 240.239113 
L 145.495864 240.239113 
L 145.685543 239.680148 
L 147.013295 239.680148 
L 147.202974 240.239113 
L 147.582332 240.239113 
L 147.772011 240.798078 
L 148.05653 240.798078 
L 148.246209 241.357043 
L 148.910085 241.357043 
L 149.099764 241.916007 
L 149.384283 241.916007 
L 149.573962 241.357043 
L 150.237838 241.357043 
L 150.427517 240.798078 
L 150.712036 240.798078 
L 150.901715 240.239113 
L 151.375912 240.239113 
L 151.565591 239.680148 
L 152.703665 239.680148 
L 152.893344 240.239113 
L 153.367541 240.239113 
L 153.55722 240.798078 
L 153.841739 240.798078 
L 154.031418 241.357043 
L 154.790134 241.357043 
L 154.979813 241.916007 
L 155.169492 241.357043 
L 155.928208 241.357043 
L 156.117887 240.798078 
L 156.497244 240.798078 
L 156.686923 240.239113 
L 157.066281 240.239113 
L 157.25596 239.680148 
L 158.394034 239.680148 
L 158.583713 240.239113 
L 159.057911 240.239113 
L 159.24759 240.798078 
L 159.626948 240.798078 
L 159.816627 241.357043 
L 161.618577 241.357043 
L 161.808256 240.798078 
L 162.187614 240.798078 
L 162.377293 240.239113 
L 162.85149 240.239113 
L 163.041169 239.680148 
L 164.084404 239.680148 
L 164.274083 240.239113 
L 164.74828 240.239113 
L 164.937959 240.798078 
L 165.317317 240.798078 
L 165.506996 241.357043 
L 167.308946 241.357043 
L 167.498625 240.798078 
L 167.877983 240.798078 
L 168.067662 240.239113 
L 168.54186 240.239113 
L 168.731539 239.680148 
L 169.774773 239.680148 
L 169.964452 240.239113 
L 170.43865 240.239113 
L 170.628329 240.798078 
L 171.007687 240.798078 
L 171.197366 241.357043 
L 172.999316 241.357043 
L 173.188995 240.798078 
L 173.568353 240.798078 
L 173.758032 240.239113 
L 174.232229 240.239113 
L 174.421908 239.680148 
L 175.275464 239.680148 
L 175.465143 240.239113 
L 176.03418 240.239113 
L 176.223859 240.798078 
L 176.413538 240.798078 
L 176.603217 240.239113 
L 176.792896 240.239113 
L 176.982575 239.680148 
L 177.172254 239.680148 
L 177.361932 239.121183 
L 177.551611 239.121183 
L 177.74129 238.562218 
L 177.930969 238.562218 
L 178.120648 238.003253 
L 178.405167 238.003253 
L 178.594846 237.444288 
L 178.784525 237.444288 
L 178.974204 236.885323 
L 179.163883 236.885323 
L 179.353562 236.326359 
L 179.63808 236.326359 
L 179.827759 235.767394 
L 180.017438 235.767394 
L 180.207117 235.208429 
L 180.396796 235.208429 
L 180.586475 234.649464 
L 180.776154 234.649464 
L 180.965833 234.090499 
L 181.250352 234.090499 
L 181.440031 233.531534 
L 181.62971 233.531534 
L 181.819389 232.972569 
L 182.009068 232.972569 
L 182.198747 232.413604 
L 182.388426 232.413604 
L 182.578104 231.85464 
L 182.862623 231.85464 
L 183.052302 231.295675 
L 183.241981 231.295675 
L 183.43166 230.73671 
L 183.621339 230.73671 
L 183.811018 230.177745 
L 184.000697 230.177745 
L 184.190376 229.61878 
L 184.474894 229.61878 
L 184.664573 229.059815 
L 184.854252 229.059815 
L 185.043931 228.50085 
L 185.23361 228.50085 
L 185.423289 227.941885 
L 185.612968 227.941885 
L 185.802647 227.382921 
L 186.087166 227.382921 
L 186.276845 226.823956 
L 186.466524 226.823956 
L 186.656203 226.264991 
L 186.845882 226.264991 
L 187.035561 225.706026 
L 187.22524 225.706026 
L 187.414919 225.147061 
L 187.699437 225.147061 
L 187.889116 224.588096 
L 188.078795 224.588096 
L 188.268474 224.029131 
L 188.458153 224.029131 
L 188.647832 223.470166 
L 188.837511 223.470166 
L 189.02719 222.911201 
L 189.311708 222.911201 
L 189.501387 222.352237 
L 189.691066 222.352237 
L 189.880745 221.793272 
L 190.070424 221.793272 
L 190.260103 221.234307 
L 190.449782 221.234307 
L 190.639461 220.675342 
L 190.92398 220.675342 
L 191.113659 220.116377 
L 191.303338 220.116377 
L 191.493017 219.557412 
L 191.682696 219.557412 
L 191.872375 218.998447 
L 192.062054 218.998447 
L 192.251733 218.439482 
L 192.536251 218.439482 
L 192.72593 217.880518 
L 192.915609 217.880518 
L 193.105288 217.321553 
L 193.294967 217.321553 
L 193.484646 216.762588 
L 193.674325 216.762588 
L 193.864004 216.203623 
L 194.148522 216.203623 
L 194.338201 215.644658 
L 194.52788 215.644658 
L 194.717559 215.085693 
L 194.907238 215.085693 
L 195.096917 214.526728 
L 195.381436 214.526728 
L 195.571115 213.967763 
L 195.760794 213.967763 
L 195.950473 213.408799 
L 196.140152 213.408799 
L 196.329831 212.849834 
L 196.614349 212.849834 
L 196.804028 212.290869 
L 196.993707 212.290869 
L 197.183386 211.731904 
L 197.373065 211.731904 
L 197.562744 211.172939 
L 197.847263 211.172939 
L 198.036942 210.613974 
L 198.22662 210.613974 
L 198.416299 210.055009 
L 198.605978 210.055009 
L 198.795657 209.496044 
L 199.080176 209.496044 
L 199.269855 208.937079 
L 199.459534 208.937079 
L 199.649213 208.378115 
L 199.838892 208.378115 
L 200.028571 207.81915 
L 200.313089 207.81915 
L 200.502768 207.260185 
L 200.692447 207.260185 
L 200.882126 206.70122 
L 201.166645 206.70122 
L 201.356324 206.142255 
L 201.546003 206.142255 
L 201.735682 205.58329 
L 202.0202 205.58329 
L 202.209879 205.024325 
L 202.399558 205.024325 
L 202.589237 204.46536 
L 202.684077 204.46536 
L 203.158274 201.111571 
L 203.442792 198.875712 
L 204.296348 193.286063 
L 204.580866 191.050203 
L 206.477656 179.311941 
L 206.762175 177.076081 
L 209.51252 161.425065 
L 209.607359 161.425065 
L 210.840273 154.717486 
L 210.935112 154.717486 
L 211.40931 151.363697 
L 211.693828 144.656118 
L 211.788668 144.656118 
L 211.978347 144.097153 
L 212.073186 144.097153 
L 214.064815 156.394381 
L 214.539013 163.101959 
L 214.728692 163.660924 
L 214.918371 163.660924 
L 219.375827 137.94854 
L 219.660345 170.368503 
L 220.039703 159.189205 
L 220.70358 143.538189 
L 220.798419 137.94854 
L 220.988098 151.922662 
L 221.557135 163.660924 
L 223.833283 189.373309 
L 224.022962 191.050203 
L 224.876517 199.993641 
L 225.066196 201.670536 
L 225.824912 209.496044 
L 226.109431 211.731904 
L 226.773307 218.439482 
L 226.962986 220.116377 
L 227.437184 224.588096 
L 227.721702 226.823956 
L 228.290739 232.413604 
L 228.575258 234.649464 
L 229.049455 239.121183 
L 229.428813 241.916007 
L 229.90301 246.387726 
L 230.282368 249.182551 
L 230.661726 252.53634 
L 230.946245 254.7722 
L 231.325603 258.125989 
L 231.7998 261.479778 
L 232.179158 264.833567 
L 232.748195 268.746322 
L 233.032714 270.982181 
L 233.506911 274.33597 
L 233.79143 276.57183 
L 234.360467 280.484584 
L 234.644985 282.720444 
L 235.49854 288.310092 
L 235.783059 290.545952 
L 237.585009 301.72525 
L 237.869528 303.961109 
L 238.628244 308.991793 
L 238.912762 311.227652 
L 241.09407 323.52488 
L 241.18891 323.52488 
L 241.663107 325.760739 
L 241.757947 325.760739 
L 246.025724 350.355194 
L 246.120563 350.355194 
L 246.78444 353.708983 
L 246.879279 353.708983 
L 247.353477 355.944843 
L 247.448316 355.944843 
L 247.827674 357.621738 
L 247.922514 357.621738 
L 248.301872 359.298632 
L 248.396711 359.298632 
L 248.68123 360.416562 
L 248.776069 360.416562 
L 249.060588 361.534492 
L 249.250267 361.534492 
L 249.534785 362.652421 
L 249.724464 362.652421 
L 250.008983 363.770351 
L 250.198662 363.770351 
L 250.388341 364.329316 
L 250.48318 364.329316 
L 250.672859 364.888281 
L 250.767698 364.888281 
L 250.957377 365.447246 
L 251.147056 365.447246 
L 251.336735 366.006211 
L 251.526414 366.006211 
L 251.716093 366.565176 
L 252.000612 366.565176 
L 252.190291 367.12414 
L 252.569649 367.12414 
L 252.759328 367.683105 
L 253.423204 367.683105 
L 253.612883 368.24207 
L 257.216784 368.24207 
L 257.406463 367.683105 
L 258.354858 367.683105 
L 258.544537 367.12414 
L 259.303253 367.12414 
L 259.492932 366.565176 
L 260.061969 366.565176 
L 260.251648 366.006211 
L 260.915524 366.006211 
L 261.105203 365.447246 
L 261.67424 365.447246 
L 261.863919 364.888281 
L 262.053598 364.888281 
L 262.432956 363.211386 
L 262.622635 364.888281 
L 262.812314 364.888281 
L 263.286511 361.534492 
L 264.424585 347.001405 
L 269.07172 266.510462 
L 270.114955 255.331165 
L 270.873671 251.41841 
L 271.158189 251.41841 
L 271.253029 252.53634 
L 271.442708 260.920813 
L 271.727226 258.684954 
L 272.201423 256.449094 
L 272.296263 256.449094 
L 272.580781 255.331165 
L 273.624016 255.331165 
L 273.718855 254.7722 
L 273.908534 258.125989 
L 274.572411 262.597708 
L 274.856929 264.833567 
L 281.400854 302.843179 
L 281.495694 302.843179 
L 282.15957 306.196969 
L 282.254409 306.196969 
L 282.633767 307.873863 
L 282.728607 307.873863 
L 283.107965 309.550758 
L 283.202804 309.550758 
L 283.392483 310.109723 
L 283.487323 310.109723 
L 283.771841 311.227652 
L 283.96152 311.227652 
L 284.151199 311.786617 
L 284.340878 311.786617 
L 284.530557 312.345582 
L 284.909915 312.345582 
L 285.099594 312.904547 
L 286.142829 312.904547 
L 286.237668 312.345582 
L 286.427347 314.022477 
L 286.711866 314.022477 
L 286.996384 312.904547 
L 287.091224 312.904547 
L 287.66026 310.109723 
L 287.7551 310.109723 
L 289.082853 301.72525 
L 289.367371 299.48939 
L 289.746729 296.694566 
L 290.126087 293.340776 
L 290.600285 289.986987 
L 290.979643 286.633198 
L 291.45384 283.279409 
L 291.833198 279.925619 
L 293.729988 269.305287 
L 293.824827 269.305287 
L 294.109346 268.187357 
L 294.204185 268.187357 
L 294.393864 267.628392 
L 294.488704 267.628392 
L 294.678383 267.069427 
L 294.962901 267.069427 
L 295.057741 268.187357 
L 295.24742 271.541146 
L 295.531938 270.423216 
L 295.721617 270.423216 
L 295.911296 269.864251 
L 296.100975 269.864251 
L 296.290654 269.305287 
L 297.333889 269.305287 
L 297.523568 269.864251 
L 297.713247 269.864251 
L 297.902925 270.423216 
L 298.092604 270.423216 
L 298.661641 273.218041 
L 298.756481 273.218041 
L 299.040999 274.33597 
L 299.135839 274.33597 
L 299.515197 276.012865 
L 299.610036 276.012865 
L 299.894555 277.130795 
L 299.989394 277.130795 
L 300.273913 278.248725 
L 300.368752 278.248725 
L 300.74811 279.925619 
L 300.84295 279.925619 
L 301.127468 281.043549 
L 301.222308 281.043549 
L 301.601666 282.720444 
L 301.696505 282.720444 
L 302.075863 284.397338 
L 302.170703 284.397338 
L 302.550061 286.074233 
L 302.6449 286.074233 
L 303.024258 287.751128 
L 303.119097 287.751128 
L 303.403616 288.869057 
L 303.498455 288.869057 
L 303.782974 289.986987 
L 303.877813 289.986987 
L 304.162332 291.104917 
L 304.257171 291.104917 
L 304.54169 292.222847 
L 304.636529 292.222847 
L 304.921048 293.340776 
L 305.015887 293.340776 
L 305.205566 293.899741 
L 305.300406 293.899741 
L 305.490085 294.458706 
L 305.584924 294.458706 
L 305.869443 295.576636 
L 306.153961 295.576636 
L 306.34364 296.135601 
L 306.43848 296.135601 
L 306.628159 296.694566 
L 306.817838 296.694566 
L 307.007517 297.25353 
L 307.292035 297.25353 
L 307.481714 297.812495 
L 308.050751 297.812495 
L 308.24043 298.37146 
L 309.568183 298.37146 
L 309.757862 298.930425 
L 310.13722 298.930425 
L 310.326899 298.37146 
L 310.516578 298.37146 
L 310.801096 297.25353 
L 310.990775 297.25353 
L 311.275294 296.135601 
L 311.370133 296.135601 
L 311.654652 295.017671 
L 311.749491 295.017671 
L 312.128849 293.340776 
L 312.223689 293.340776 
L 312.603047 291.663882 
L 312.697886 291.663882 
L 313.077244 289.986987 
L 313.172084 289.986987 
L 313.646281 287.751128 
L 313.74112 287.751128 
L 314.215318 285.515268 
L 314.310157 285.515268 
L 314.784355 283.279409 
L 314.879194 283.279409 
L 315.258552 281.602514 
L 315.353392 281.602514 
L 315.73275 279.925619 
L 315.827589 279.925619 
L 316.112108 278.807689 
L 316.206947 278.807689 
L 316.491466 277.68976 
L 316.681145 277.68976 
L 316.870824 277.130795 
L 316.965663 277.130795 
L 317.155342 276.57183 
L 317.345021 276.57183 
L 317.5347 276.012865 
L 318.293416 276.012865 
L 318.483095 278.248725 
L 318.672774 277.68976 
L 318.767614 277.68976 
L 318.957292 277.130795 
L 319.526329 277.130795 
L 319.716008 276.57183 
L 320.474724 276.57183 
L 320.664403 277.130795 
L 321.23344 277.130795 
L 321.423119 277.68976 
L 321.707638 277.68976 
L 321.897317 278.248725 
L 322.086996 278.248725 
L 322.276675 278.807689 
L 322.466354 278.807689 
L 322.656033 279.366654 
L 322.845712 279.366654 
L 323.035391 279.925619 
L 323.13023 279.925619 
L 323.319909 280.484584 
L 323.414749 280.484584 
L 323.604428 281.043549 
L 323.699267 281.043549 
L 323.888946 281.602514 
L 323.983786 281.602514 
L 324.173464 282.161479 
L 324.268304 282.161479 
L 324.457983 282.720444 
L 324.552822 282.720444 
L 324.742501 283.279409 
L 324.837341 283.279409 
L 325.02702 283.838373 
L 325.121859 283.838373 
L 325.311538 284.397338 
L 325.406378 284.397338 
L 325.596057 284.956303 
L 325.690896 284.956303 
L 325.880575 285.515268 
L 325.975415 285.515268 
L 326.165094 286.074233 
L 326.354773 286.074233 
L 326.544452 286.633198 
L 326.639291 286.633198 
L 326.82897 287.192163 
L 326.92381 287.192163 
L 327.113489 287.751128 
L 327.303168 287.751128 
L 327.492847 288.310092 
L 327.682526 288.310092 
L 327.872205 288.869057 
L 328.061884 288.869057 
L 328.251563 289.428022 
L 328.536081 289.428022 
L 328.72576 289.986987 
L 329.010279 289.986987 
L 329.199958 290.545952 
L 329.674155 290.545952 
L 329.863834 291.104917 
L 330.62255 291.104917 
L 330.812229 291.663882 
L 332.709019 291.663882 
L 332.898698 292.222847 
L 333.088377 291.663882 
L 333.657414 291.663882 
L 333.847093 291.104917 
L 334.036772 291.104917 
L 334.226451 290.545952 
L 334.41613 290.545952 
L 334.605808 289.986987 
L 334.795487 289.986987 
L 334.985166 289.428022 
L 335.080006 289.428022 
L 335.269685 288.869057 
L 335.364524 288.869057 
L 335.554203 288.310092 
L 335.649043 288.310092 
L 335.838722 287.751128 
L 335.933561 287.751128 
L 336.12324 287.192163 
L 336.21808 287.192163 
L 336.407759 286.633198 
L 336.502598 286.633198 
L 336.692277 286.074233 
L 336.787117 286.074233 
L 336.976796 285.515268 
L 337.071635 285.515268 
L 337.356154 284.397338 
L 337.545833 284.397338 
L 337.735512 283.838373 
L 337.830351 283.838373 
L 338.02003 283.279409 
L 338.11487 283.279409 
L 338.304549 282.720444 
L 338.494228 282.720444 
L 338.683907 282.161479 
L 338.778746 282.161479 
L 338.968425 281.602514 
L 339.158104 281.602514 
L 339.347783 281.043549 
L 339.632302 281.043549 
L 339.82198 280.484584 
L 340.201338 280.484584 
L 340.391017 279.925619 
L 341.244573 279.925619 
L 341.434252 281.043549 
L 341.71877 281.043549 
L 341.908449 280.484584 
L 344.279437 280.484584 
L 344.469116 281.043549 
L 345.132992 281.043549 
L 345.322671 281.602514 
L 345.796868 281.602514 
L 345.986547 282.161479 
L 346.365905 282.161479 
L 346.555584 282.720444 
L 346.934942 282.720444 
L 347.124621 283.279409 
L 347.503979 283.279409 
L 347.693658 283.838373 
L 347.978177 283.838373 
L 348.167856 284.397338 
L 348.547214 284.397338 
L 348.736893 284.956303 
L 349.116251 284.956303 
L 349.30593 285.515268 
L 349.685288 285.515268 
L 349.874967 286.074233 
L 350.349164 286.074233 
L 350.538843 286.633198 
L 351.10788 286.633198 
L 351.297559 287.192163 
L 352.056275 287.192163 
L 352.245954 287.751128 
L 353.478867 287.751128 
L 353.668546 288.310092 
L 356.70341 288.310092 
L 356.893089 287.751128 
L 357.462126 287.751128 
L 357.651805 287.192163 
L 358.031163 287.192163 
L 358.220842 286.633198 
L 358.6002 286.633198 
L 358.789879 286.074233 
L 359.169237 286.074233 
L 359.358916 285.515268 
L 359.738274 285.515268 
L 359.927953 284.956303 
L 360.212471 284.956303 
L 360.40215 284.397338 
L 360.781508 284.397338 
L 360.971187 283.838373 
L 361.350545 283.838373 
L 361.540224 283.279409 
L 361.919582 283.279409 
L 362.109261 282.720444 
L 362.773137 282.720444 
L 362.962816 282.161479 
L 364.290569 282.161479 
L 364.480248 282.720444 
L 365.049285 282.720444 
L 365.238964 282.161479 
L 366.946075 282.161479 
L 367.135754 282.720444 
L 368.558346 282.720444 
L 368.748025 283.279409 
L 369.69642 283.279409 
L 369.886099 283.838373 
L 370.739655 283.838373 
L 370.929334 284.397338 
L 371.782889 284.397338 
L 371.972568 284.956303 
L 373.015802 284.956303 
L 373.205481 285.515268 
L 374.438395 285.515268 
L 374.628074 286.074233 
L 377.283579 286.074233 
L 377.473258 286.633198 
L 379.464888 286.633198 
L 379.654567 286.074233 
L 380.88748 286.074233 
L 381.077159 285.515268 
L 382.025554 285.515268 
L 382.215233 284.956303 
L 383.068788 284.956303 
L 383.258467 284.397338 
L 384.017183 284.397338 
L 384.206862 283.838373 
L 385.344936 283.838373 
L 385.534615 283.279409 
L 391.130145 283.279409 
L 391.319824 283.838373 
L 393.311453 283.838373 
L 393.501132 284.397338 
L 395.397922 284.397338 
L 395.587601 284.956303 
L 398.243107 284.956303 
L 398.432786 285.515268 
L 403.459279 285.515268 
L 403.648958 284.956303 
L 405.640587 284.956303 
L 405.830266 284.397338 
L 407.632217 284.397338 
L 407.821896 283.838373 
L 415.409055 283.838373 
L 415.598734 284.397338 
L 419.581992 284.397338 
L 419.771671 284.956303 
L 427.738189 284.956303 
L 427.927868 284.397338 
L 432.100805 284.397338 
L 432.290484 283.838373 
L 433.428558 283.838373 
L 433.618237 284.397338 
L 434.471792 284.397338 
L 434.661471 283.838373 
L 435.704706 283.838373 
L 435.894385 284.397338 
L 447.844161 284.397338 
L 448.03384 284.956303 
L 448.318358 284.956303 
L 448.508037 284.397338 
L 498.109091 284.397338 
L 498.109091 284.397338 
" style="fill:none;stroke:#00bfbf;stroke-linecap:square;stroke-width:1.5;"/>
   </g>
   <g id="line2d_25">
    <path clip-path="url(#p3a0c85ca40)" d="M 92.290909 284.397338 
L 92.385749 284.397338 
L 92.480588 284.397338 
L 92.670267 280.484584 
L 92.765107 281.043549 
L 93.428983 284.397338 
L 93.618662 284.397338 
L 93.808341 284.956303 
L 93.99802 259.243919 
L 94.187699 241.916007 
L 94.756736 250.859445 
L 94.946415 251.41841 
L 95.041254 251.41841 
L 95.230933 250.859445 
L 95.515452 250.859445 
L 95.705131 250.300481 
L 96.179328 250.300481 
L 96.369007 249.741516 
L 96.748365 249.741516 
L 96.938044 249.182551 
L 97.412242 249.182551 
L 97.601921 248.623586 
L 97.981279 248.623586 
L 98.170958 248.064621 
L 98.645155 248.064621 
L 98.834834 247.505656 
L 99.214192 247.505656 
L 99.403871 246.946691 
L 99.783229 246.946691 
L 99.972908 246.387726 
L 100.352266 246.387726 
L 100.541945 245.828762 
L 100.921303 245.828762 
L 101.110982 245.269797 
L 101.49034 245.269797 
L 101.680019 244.710832 
L 102.059377 244.710832 
L 102.249056 244.151867 
L 102.628414 244.151867 
L 102.818093 243.592902 
L 103.197451 243.592902 
L 103.38713 243.033937 
L 103.671648 243.033937 
L 103.861327 242.474972 
L 104.240685 242.474972 
L 104.430364 241.916007 
L 104.714882 241.916007 
L 104.904561 241.357043 
L 105.283919 241.357043 
L 105.473598 240.798078 
L 105.758117 240.798078 
L 105.947796 240.239113 
L 106.327154 240.239113 
L 106.516833 239.680148 
L 106.801351 239.680148 
L 106.99103 239.121183 
L 107.275549 239.121183 
L 107.465228 238.562218 
L 107.749746 238.562218 
L 107.939425 238.003253 
L 108.223944 238.003253 
L 108.413623 237.444288 
L 108.698141 237.444288 
L 108.88782 236.885323 
L 109.172338 236.885323 
L 109.362017 236.326359 
L 109.646536 236.326359 
L 109.836215 235.767394 
L 110.215573 277.68976 
L 110.310412 277.130795 
L 110.68977 258.125989 
L 110.879449 246.387726 
L 111.163968 241.916007 
L 112.112363 226.823956 
L 114.009153 205.58329 
L 114.38851 202.788466 
L 114.767868 199.434677 
L 117.044016 186.578484 
L 117.138856 186.578484 
L 117.613053 184.342625 
L 117.707893 184.342625 
L 118.087251 182.66573 
L 118.18209 182.66573 
L 118.466609 181.5478 
L 118.561448 181.5478 
L 118.845967 180.429871 
L 119.035646 180.429871 
L 119.320164 179.311941 
L 119.415004 179.311941 
L 119.604682 178.752976 
L 119.699522 178.752976 
L 119.889201 178.194011 
L 119.98404 178.194011 
L 120.173719 177.635046 
L 120.268559 177.635046 
L 120.458238 177.076081 
L 120.553077 177.076081 
L 120.742756 176.517116 
L 120.837596 176.517116 
L 121.027275 175.958152 
L 121.216954 175.958152 
L 121.406633 175.399187 
L 121.88083 175.399187 
L 122.070509 174.840222 
L 123.113744 174.840222 
L 123.303423 175.399187 
L 123.87246 175.399187 
L 124.062139 175.958152 
L 124.536336 175.958152 
L 124.726015 176.517116 
L 126.433126 176.517116 
L 126.622805 175.958152 
L 127.191842 175.958152 
L 127.381521 175.399187 
L 127.950558 175.399187 
L 128.140237 174.840222 
L 128.993792 174.840222 
L 129.183471 175.399187 
L 129.752508 175.399187 
L 129.942187 175.958152 
L 130.416384 175.958152 
L 130.606063 176.517116 
L 132.313174 176.517116 
L 132.502853 175.958152 
L 133.07189 175.958152 
L 133.261569 175.399187 
L 133.830606 175.399187 
L 134.020285 174.840222 
L 134.779001 174.840222 
L 134.96868 175.399187 
L 135.632556 175.399187 
L 135.822235 175.958152 
L 136.296433 175.958152 
L 136.486112 176.517116 
L 138.193223 176.517116 
L 138.382902 175.958152 
L 138.857099 175.958152 
L 139.046778 175.399187 
L 139.805494 175.399187 
L 139.995173 174.840222 
L 140.56421 174.840222 
L 140.753889 175.399187 
L 141.417765 175.399187 
L 141.607444 175.958152 
L 142.176481 175.958152 
L 142.36616 176.517116 
L 143.978432 176.517116 
L 144.168111 175.958152 
L 144.737148 175.958152 
L 144.926827 175.399187 
L 145.685543 175.399187 
L 145.875221 174.840222 
L 146.254579 174.840222 
L 146.444258 175.399187 
L 147.297814 175.399187 
L 147.487493 175.958152 
L 147.96169 175.958152 
L 148.151369 176.517116 
L 149.763641 176.517116 
L 149.95332 175.958152 
L 150.522357 175.958152 
L 150.712036 175.399187 
L 151.66043 175.399187 
L 151.850109 174.840222 
L 152.039788 175.399187 
L 152.988183 175.399187 
L 153.177862 175.958152 
L 153.841739 175.958152 
L 154.031418 176.517116 
L 155.45401 176.517116 
L 155.643689 175.958152 
L 156.307565 175.958152 
L 156.497244 175.399187 
L 158.773392 175.399187 
L 158.963071 175.958152 
L 159.532108 175.958152 
L 159.721787 176.517116 
L 161.14438 176.517116 
L 161.334059 175.958152 
L 161.997935 175.958152 
L 162.187614 175.399187 
L 164.463762 175.399187 
L 164.653441 175.958152 
L 165.317317 175.958152 
L 165.506996 176.517116 
L 166.834749 176.517116 
L 167.024428 175.958152 
L 167.688304 175.958152 
L 167.877983 175.399187 
L 170.154131 175.399187 
L 170.34381 175.958152 
L 171.007687 175.958152 
L 171.197366 176.517116 
L 172.430279 176.517116 
L 172.619958 175.958152 
L 173.378674 175.958152 
L 173.568353 175.399187 
L 175.749661 175.399187 
L 175.93934 175.958152 
L 176.223859 175.958152 
L 176.413538 175.399187 
L 176.792896 175.399187 
L 176.982575 174.840222 
L 177.361932 174.840222 
L 177.551611 174.281257 
L 177.930969 174.281257 
L 178.120648 173.722292 
L 178.594846 173.722292 
L 178.784525 173.163327 
L 179.258722 173.163327 
L 179.448401 172.604362 
L 179.827759 172.604362 
L 180.017438 172.045397 
L 180.491636 172.045397 
L 180.681315 171.486433 
L 181.155512 171.486433 
L 181.345191 170.927468 
L 181.819389 170.927468 
L 182.009068 170.368503 
L 182.483265 170.368503 
L 182.672944 169.809538 
L 183.147141 169.809538 
L 183.33682 169.250573 
L 183.905857 169.250573 
L 184.095536 168.691608 
L 184.569734 168.691608 
L 184.759413 168.132643 
L 185.32845 168.132643 
L 185.518129 167.573678 
L 186.087166 167.573678 
L 186.276845 167.014713 
L 186.845882 167.014713 
L 187.035561 166.455749 
L 187.604598 166.455749 
L 187.794276 165.896784 
L 188.363313 165.896784 
L 188.552992 165.337819 
L 189.122029 165.337819 
L 189.311708 164.778854 
L 189.975585 164.778854 
L 190.165264 164.219889 
L 190.82914 164.219889 
L 191.018819 163.660924 
L 191.682696 163.660924 
L 191.872375 163.101959 
L 192.536251 163.101959 
L 192.72593 162.542994 
L 193.484646 162.542994 
L 193.674325 161.98403 
L 194.433041 161.98403 
L 194.62272 161.425065 
L 195.381436 161.425065 
L 195.571115 160.8661 
L 196.42467 160.8661 
L 196.614349 160.307135 
L 197.467905 160.307135 
L 197.657584 159.74817 
L 198.605978 159.74817 
L 198.795657 159.189205 
L 199.744052 159.189205 
L 199.933731 158.63024 
L 200.976966 158.63024 
L 201.166645 158.071275 
L 202.304719 158.071275 
L 202.494398 157.512311 
L 202.589237 157.512311 
L 202.873756 156.394381 
L 203.158274 156.394381 
L 203.347953 156.953346 
L 203.537632 156.953346 
L 203.727311 157.512311 
L 203.82215 157.512311 
L 204.011829 158.071275 
L 204.106669 158.071275 
L 204.296348 158.63024 
L 204.391187 158.63024 
L 204.675706 159.74817 
L 204.770545 159.74817 
L 204.960224 160.307135 
L 205.055064 160.307135 
L 205.339582 161.425065 
L 205.434422 161.425065 
L 205.71894 162.542994 
L 205.81378 162.542994 
L 206.003459 163.101959 
L 206.098298 163.101959 
L 206.382817 164.219889 
L 206.477656 164.219889 
L 206.762175 165.337819 
L 206.857014 165.337819 
L 207.141533 166.455749 
L 207.236372 166.455749 
L 207.520891 167.573678 
L 207.61573 167.573678 
L 207.900249 168.691608 
L 207.995088 168.691608 
L 208.279607 169.809538 
L 208.374446 169.809538 
L 208.658964 170.927468 
L 208.753804 170.927468 
L 209.038322 172.045397 
L 209.133162 172.045397 
L 209.41768 173.163327 
L 209.51252 173.163327 
L 209.797038 174.281257 
L 209.891878 174.281257 
L 210.271236 175.958152 
L 210.366075 175.958152 
L 210.650594 177.076081 
L 210.745433 177.076081 
L 211.029952 178.194011 
L 211.124791 178.194011 
L 211.31447 178.752976 
L 211.40931 178.752976 
L 211.504149 178.194011 
L 212.073186 167.014713 
L 212.737063 156.953346 
L 213.400939 148.009908 
L 213.780297 142.979224 
L 214.254494 138.507505 
L 215.01321 142.420259 
L 215.10805 142.420259 
L 215.771926 145.774048 
L 215.866766 145.774048 
L 216.530642 149.127837 
L 216.625482 149.127837 
L 217.289358 152.481627 
L 217.384198 152.481627 
L 218.048074 155.835416 
L 218.142914 155.835416 
L 218.80679 159.189205 
L 218.90163 159.189205 
L 219.375827 161.425065 
L 219.470666 165.896784 
L 219.850024 208.378115 
L 220.513901 239.121183 
L 220.60874 250.859445 
L 220.798419 287.192163 
L 220.893259 290.545952 
L 221.272617 316.258336 
L 221.557135 322.40695 
L 221.936493 325.760739 
L 222.031333 325.760739 
L 222.315851 326.878669 
L 222.410691 326.878669 
L 222.60037 327.437634 
L 222.884888 327.437634 
L 223.074567 327.996599 
L 225.350715 327.996599 
L 225.540394 327.437634 
L 227.152665 327.437634 
L 227.342344 326.878669 
L 228.480418 326.878669 
L 228.670097 326.319704 
L 229.713331 326.319704 
L 229.90301 325.760739 
L 230.756566 325.760739 
L 230.946245 325.201774 
L 231.704961 325.201774 
L 231.89464 324.64281 
L 232.653356 324.64281 
L 232.843035 324.083845 
L 233.506911 324.083845 
L 233.69659 323.52488 
L 234.360467 323.52488 
L 234.550146 322.965915 
L 235.214022 322.965915 
L 235.403701 322.40695 
L 235.972738 322.40695 
L 236.162417 321.847985 
L 236.731454 321.847985 
L 236.921133 321.28902 
L 237.205651 321.28902 
L 237.39533 321.847985 
L 237.585009 321.847985 
L 237.774688 322.40695 
L 237.964367 322.40695 
L 238.154046 322.965915 
L 239.197281 322.965915 
L 239.38696 322.40695 
L 239.671478 322.40695 
L 239.861157 321.847985 
L 239.955997 321.847985 
L 240.145675 321.28902 
L 240.240515 321.28902 
L 240.525033 320.171091 
L 240.714712 320.171091 
L 240.999231 319.053161 
L 241.09407 319.053161 
L 241.378589 317.935231 
L 241.473428 317.935231 
L 241.852786 316.258336 
L 241.947626 316.258336 
L 242.137305 315.699372 
L 242.516663 315.699372 
L 242.706342 315.140407 
L 242.896021 315.140407 
L 243.0857 314.581442 
L 243.275379 314.581442 
L 243.465058 314.022477 
L 243.654737 314.022477 
L 243.844416 313.463512 
L 243.939255 313.463512 
L 244.128934 312.904547 
L 244.223774 312.904547 
L 244.413453 312.345582 
L 244.508292 312.345582 
L 244.792811 311.227652 
L 244.98249 311.227652 
L 245.172169 310.668688 
L 245.267008 310.668688 
L 245.551526 309.550758 
L 245.741205 309.550758 
L 246.025724 308.432828 
L 246.215403 308.432828 
L 246.499921 307.314898 
L 246.594761 307.314898 
L 246.78444 306.755933 
L 246.879279 306.755933 
L 247.163798 305.638004 
L 247.353477 305.638004 
L 247.637995 304.520074 
L 247.732835 304.520074 
L 247.922514 303.961109 
L 248.017353 303.961109 
L 248.301872 302.843179 
L 248.491551 302.843179 
L 248.776069 301.72525 
L 248.965748 301.72525 
L 249.250267 300.60732 
L 249.439946 300.60732 
L 249.724464 299.48939 
L 249.914143 299.48939 
L 250.103822 298.930425 
L 250.198662 298.930425 
L 250.388341 298.37146 
L 250.48318 298.37146 
L 250.672859 297.812495 
L 250.767698 297.812495 
L 251.052217 296.694566 
L 251.241896 296.694566 
L 251.431575 296.135601 
L 251.621254 296.135601 
L 251.810933 295.576636 
L 251.905772 295.576636 
L 252.095451 295.017671 
L 252.190291 295.017671 
L 252.37997 294.458706 
L 252.569649 294.458706 
L 252.759328 293.899741 
L 252.854167 293.899741 
L 253.043846 293.340776 
L 253.233525 293.340776 
L 253.423204 292.781811 
L 253.612883 292.781811 
L 253.802562 292.222847 
L 253.992241 292.222847 
L 254.18192 291.663882 
L 254.371599 291.663882 
L 254.561278 291.104917 
L 254.845797 291.104917 
L 255.035476 290.545952 
L 255.319994 290.545952 
L 255.509673 289.986987 
L 255.889031 289.986987 
L 256.07871 289.428022 
L 256.458068 289.428022 
L 256.647747 288.869057 
L 257.121944 288.869057 
L 257.311623 288.310092 
L 257.785821 288.310092 
L 257.9755 287.751128 
L 258.734216 287.751128 
L 258.923895 287.192163 
L 259.77745 287.192163 
L 259.967129 286.633198 
L 261.200042 286.633198 
L 261.389721 286.074233 
L 262.148437 286.074233 
L 262.432956 284.956303 
L 262.717474 287.192163 
L 263.191672 291.663882 
L 264.140067 296.694566 
L 264.329746 296.694566 
L 264.519425 297.25353 
L 264.898783 297.25353 
L 265.088462 296.694566 
L 265.183301 296.694566 
L 265.657499 294.458706 
L 265.752338 294.458706 
L 266.416214 289.986987 
L 266.890412 285.515268 
L 267.080091 283.838373 
L 269.925276 251.41841 
L 270.209794 249.182551 
L 270.589152 245.828762 
L 271.253029 242.474972 
L 271.442708 249.182551 
L 271.727226 255.331165 
L 273.529176 277.68976 
L 273.718855 283.838373 
L 274.382732 291.104917 
L 274.477571 291.104917 
L 274.76209 292.222847 
L 274.951769 292.222847 
L 275.141448 292.781811 
L 275.331127 292.781811 
L 275.520806 293.340776 
L 275.900164 293.340776 
L 276.089843 293.899741 
L 276.56404 293.899741 
L 276.753719 294.458706 
L 277.322756 294.458706 
L 277.512435 295.017671 
L 278.081472 295.017671 
L 278.36599 296.135601 
L 278.46083 296.135601 
L 278.650509 296.694566 
L 278.745348 296.694566 
L 278.935027 297.25353 
L 279.029867 297.25353 
L 279.219546 297.812495 
L 279.409225 297.812495 
L 279.598904 298.37146 
L 280.26278 298.37146 
L 280.452459 298.930425 
L 280.736978 298.930425 
L 280.926657 298.37146 
L 281.685373 298.37146 
L 281.875052 297.812495 
L 282.15957 297.812495 
L 282.349249 297.25353 
L 282.538928 297.25353 
L 282.728607 296.694566 
L 282.918286 296.694566 
L 283.107965 296.135601 
L 283.202804 296.135601 
L 283.392483 295.576636 
L 283.487323 295.576636 
L 283.677002 295.017671 
L 283.771841 295.017671 
L 283.96152 294.458706 
L 284.05636 294.458706 
L 284.246039 293.899741 
L 284.340878 293.899741 
L 284.530557 293.340776 
L 284.625397 293.340776 
L 284.909915 292.222847 
L 285.099594 292.222847 
L 285.289273 291.663882 
L 285.384113 291.663882 
L 285.668631 290.545952 
L 285.85831 290.545952 
L 286.047989 289.986987 
L 286.142829 289.986987 
L 286.332508 289.428022 
L 286.806705 291.663882 
L 286.996384 291.663882 
L 287.280903 292.781811 
L 287.565421 292.781811 
L 287.7551 293.340776 
L 288.608655 293.340776 
L 288.798334 292.781811 
L 288.988013 292.781811 
L 289.177692 292.222847 
L 289.272532 292.222847 
L 289.55705 291.104917 
L 289.65189 291.104917 
L 290.031248 289.428022 
L 290.126087 289.428022 
L 290.979643 284.956303 
L 291.074482 284.956303 
L 293.824827 269.305287 
L 293.919667 269.305287 
L 294.393864 267.069427 
L 294.488704 267.069427 
L 294.773222 265.951497 
L 294.868062 265.951497 
L 295.057741 265.392532 
L 295.721617 272.100111 
L 297.428728 281.602514 
L 297.523568 281.602514 
L 298.756481 288.310092 
L 299.040999 288.310092 
L 299.230678 288.869057 
L 299.894555 288.869057 
L 300.084234 289.428022 
L 300.74811 289.428022 
L 300.937789 289.986987 
L 301.127468 289.986987 
L 301.317147 290.545952 
L 301.601666 290.545952 
L 301.791345 291.104917 
L 302.265542 291.104917 
L 302.455221 291.663882 
L 304.731369 291.663882 
L 304.921048 291.104917 
L 305.490085 291.104917 
L 305.679764 290.545952 
L 306.153961 290.545952 
L 306.34364 289.986987 
L 306.722998 289.986987 
L 306.912677 289.428022 
L 307.197196 289.428022 
L 307.386875 288.869057 
L 307.671393 288.869057 
L 307.861072 288.310092 
L 308.145591 288.310092 
L 308.335269 287.751128 
L 308.619788 287.751128 
L 308.809467 287.192163 
L 309.188825 287.192163 
L 309.378504 286.633198 
L 309.757862 286.633198 
L 309.947541 287.192163 
L 310.13722 287.192163 
L 310.326899 287.751128 
L 310.611417 287.751128 
L 310.801096 288.310092 
L 312.128849 288.310092 
L 312.318528 287.751128 
L 312.697886 287.751128 
L 312.887565 287.192163 
L 312.982405 287.192163 
L 313.172084 286.633198 
L 313.361763 286.633198 
L 313.646281 285.515268 
L 313.83596 285.515268 
L 314.120478 284.397338 
L 314.310157 284.397338 
L 314.594676 283.279409 
L 314.689515 283.279409 
L 314.974034 282.161479 
L 315.068873 282.161479 
L 315.353392 281.043549 
L 315.448231 281.043549 
L 315.73275 279.925619 
L 315.827589 279.925619 
L 316.112108 278.807689 
L 316.301787 278.807689 
L 316.586305 277.68976 
L 316.681145 277.68976 
L 316.965663 276.57183 
L 317.155342 276.57183 
L 317.345021 276.012865 
L 317.439861 276.012865 
L 317.62954 275.4539 
L 317.724379 275.4539 
L 317.914058 274.894935 
L 318.103737 274.894935 
L 318.293416 274.33597 
L 319.052132 278.248725 
L 319.146971 278.248725 
L 319.43149 279.366654 
L 319.526329 279.366654 
L 319.810848 280.484584 
L 319.905687 280.484584 
L 320.190206 281.602514 
L 320.379885 281.602514 
L 320.664403 282.720444 
L 320.854082 282.720444 
L 321.043761 283.279409 
L 321.138601 283.279409 
L 321.32828 283.838373 
L 321.423119 283.838373 
L 321.612798 284.397338 
L 321.707638 284.397338 
L 321.897317 284.956303 
L 321.992156 284.956303 
L 322.181835 285.515268 
L 322.371514 285.515268 
L 322.561193 286.074233 
L 322.845712 286.074233 
L 323.035391 286.633198 
L 323.319909 286.633198 
L 323.509588 287.192163 
L 323.983786 287.192163 
L 324.173464 287.751128 
L 324.93218 287.751128 
L 325.121859 288.310092 
L 327.587686 288.310092 
L 327.777365 287.751128 
L 328.915439 287.751128 
L 329.105118 287.192163 
L 329.863834 287.192163 
L 330.053513 286.633198 
L 330.812229 286.633198 
L 331.001908 286.074233 
L 331.665784 286.074233 
L 331.855463 285.515268 
L 333.088377 285.515268 
L 333.278056 286.074233 
L 335.649043 286.074233 
L 335.838722 285.515268 
L 336.312919 285.515268 
L 336.502598 284.956303 
L 336.787117 284.956303 
L 336.976796 284.397338 
L 337.166475 284.397338 
L 337.356154 283.838373 
L 337.640672 283.838373 
L 337.830351 283.279409 
L 338.02003 283.279409 
L 338.209709 282.720444 
L 338.399388 282.720444 
L 338.589067 282.161479 
L 338.683907 282.161479 
L 338.873586 281.602514 
L 339.063265 281.602514 
L 339.252944 281.043549 
L 339.537462 281.043549 
L 339.727141 280.484584 
L 339.91682 280.484584 
L 340.106499 279.925619 
L 340.485857 279.925619 
L 340.675536 279.366654 
L 341.339412 279.366654 
L 341.623931 280.484584 
L 341.81361 280.484584 
L 342.003289 281.043549 
L 342.098128 281.043549 
L 342.287807 281.602514 
L 342.477486 281.602514 
L 342.667165 282.161479 
L 342.951684 282.161479 
L 343.141363 282.720444 
L 343.331042 282.720444 
L 343.520721 283.279409 
L 343.805239 283.279409 
L 343.994918 283.838373 
L 344.279437 283.838373 
L 344.469116 284.397338 
L 344.943313 284.397338 
L 345.132992 284.956303 
L 345.607189 284.956303 
L 345.796868 285.515268 
L 346.650424 285.515268 
L 346.840103 286.074233 
L 352.435633 286.074233 
L 352.625312 285.515268 
L 354.142744 285.515268 
L 354.332423 284.956303 
L 356.70341 284.956303 
L 356.893089 285.515268 
L 358.126002 285.515268 
L 358.315681 284.956303 
L 359.548595 284.956303 
L 359.738274 284.397338 
L 360.40215 284.397338 
L 360.591829 283.838373 
L 361.066026 283.838373 
L 361.255705 283.279409 
L 361.824742 283.279409 
L 362.014421 282.720444 
L 362.583458 282.720444 
L 362.773137 282.161479 
L 363.531853 282.161479 
L 363.721532 281.602514 
L 364.385409 281.602514 
L 364.575088 282.161479 
L 364.764767 282.161479 
L 364.954446 282.720444 
L 365.428643 282.720444 
L 365.618322 283.279409 
L 366.187359 283.279409 
L 366.377038 283.838373 
L 367.135754 283.838373 
L 367.325433 284.397338 
L 368.273828 284.397338 
L 368.463507 284.956303 
L 370.265457 284.956303 
L 370.455136 285.515268 
L 374.533234 285.515268 
L 374.722913 284.956303 
L 378.137135 284.956303 
L 378.326814 284.397338 
L 378.895851 284.397338 
L 379.08553 284.956303 
L 382.025554 284.956303 
L 382.215233 284.397338 
L 383.732665 284.397338 
L 383.922344 283.838373 
L 385.155257 283.838373 
L 385.344936 283.279409 
L 386.957208 283.279409 
L 387.146886 282.720444 
L 387.336565 282.720444 
L 387.526244 283.279409 
L 388.190121 283.279409 
L 388.3798 283.838373 
L 389.707553 283.838373 
L 389.897232 284.397338 
L 392.07854 284.397338 
L 392.268219 284.956303 
L 399.57086 284.956303 
L 399.760539 284.397338 
L 407.442538 284.397338 
L 407.632217 283.838373 
L 411.994833 283.838373 
L 412.184512 284.397338 
L 431.816287 284.397338 
L 432.005966 283.838373 
L 433.807916 283.838373 
L 433.997595 284.397338 
L 498.109091 284.397338 
L 498.109091 284.397338 
" style="fill:none;stroke:#ff0000;stroke-linecap:square;stroke-width:1.5;"/>
   </g>
   <g id="line2d_26">
    <path clip-path="url(#p3a0c85ca40)" d="M 92.290909 284.397338 
L 92.385749 284.397338 
L 92.575428 277.130795 
L 93.144465 282.720444 
L 93.713501 285.515268 
L 93.808341 285.515268 
L 93.90318 286.074233 
L 93.99802 281.602514 
L 94.377378 246.946691 
L 94.472217 246.387726 
L 94.946415 250.859445 
L 95.041254 250.859445 
L 95.230933 251.41841 
L 95.420612 250.859445 
L 95.79997 250.859445 
L 95.989649 250.300481 
L 96.463847 250.300481 
L 96.653526 249.741516 
L 97.127723 249.741516 
L 97.317402 249.182551 
L 97.69676 249.182551 
L 97.886439 248.623586 
L 98.360637 248.623586 
L 98.550315 248.064621 
L 98.929673 248.064621 
L 99.119352 247.505656 
L 99.59355 247.505656 
L 99.783229 246.946691 
L 100.162587 246.946691 
L 100.352266 246.387726 
L 100.731624 246.387726 
L 100.921303 245.828762 
L 101.300661 245.828762 
L 101.49034 245.269797 
L 101.869698 245.269797 
L 102.059377 244.710832 
L 102.438735 244.710832 
L 102.628414 244.151867 
L 103.007772 244.151867 
L 103.197451 243.592902 
L 103.576809 243.592902 
L 103.766487 243.033937 
L 104.051006 243.033937 
L 104.240685 242.474972 
L 104.620043 242.474972 
L 104.809722 241.916007 
L 105.09424 241.916007 
L 105.283919 241.357043 
L 105.663277 241.357043 
L 105.852956 240.798078 
L 106.137475 240.798078 
L 106.327154 240.239113 
L 106.706512 240.239113 
L 106.896191 239.680148 
L 107.180709 239.680148 
L 107.370388 239.121183 
L 107.654907 239.121183 
L 107.844586 238.562218 
L 108.129104 238.562218 
L 108.318783 238.003253 
L 108.603302 238.003253 
L 108.792981 237.444288 
L 109.077499 237.444288 
L 109.267178 236.885323 
L 109.551696 236.885323 
L 109.741375 236.326359 
L 109.836215 236.326359 
L 109.931054 235.208429 
L 110.025894 239.680148 
L 110.405252 272.100111 
L 110.500091 272.100111 
L 110.78461 262.038743 
L 111.069128 248.623586 
L 111.638165 237.444288 
L 112.017523 231.85464 
L 112.58656 223.470166 
L 114.009153 207.81915 
L 114.293671 205.58329 
L 114.673029 202.229501 
L 115.242066 198.316747 
L 115.526584 196.080887 
L 116.854337 188.814344 
L 116.949177 188.814344 
L 117.518214 186.019519 
L 117.613053 186.019519 
L 117.992411 184.342625 
L 118.087251 184.342625 
L 118.466609 182.66573 
L 118.561448 182.66573 
L 118.845967 181.5478 
L 118.940806 181.5478 
L 119.130485 180.988835 
L 119.225325 180.988835 
L 119.509843 179.870906 
L 119.604682 179.870906 
L 119.794361 179.311941 
L 119.889201 179.311941 
L 120.07888 178.752976 
L 120.173719 178.752976 
L 120.363398 178.194011 
L 120.458238 178.194011 
L 120.647917 177.635046 
L 120.742756 177.635046 
L 120.932435 177.076081 
L 121.122114 177.076081 
L 121.311793 176.517116 
L 121.406633 176.517116 
L 121.596312 175.958152 
L 121.97567 175.958152 
L 122.165349 175.399187 
L 123.398262 175.399187 
L 123.587941 175.958152 
L 124.156978 175.958152 
L 124.346657 176.517116 
L 124.820854 176.517116 
L 125.010533 177.076081 
L 126.527965 177.076081 
L 126.717644 176.517116 
L 127.286681 176.517116 
L 127.47636 175.958152 
L 127.950558 175.958152 
L 128.140237 175.399187 
L 129.278311 175.399187 
L 129.46799 175.958152 
L 130.037026 175.958152 
L 130.226705 176.517116 
L 130.700903 176.517116 
L 130.890582 177.076081 
L 132.408014 177.076081 
L 132.597693 176.517116 
L 133.07189 176.517116 
L 133.261569 175.958152 
L 133.925446 175.958152 
L 134.115125 175.399187 
L 135.06352 175.399187 
L 135.253198 175.958152 
L 135.917075 175.958152 
L 136.106754 176.517116 
L 136.580951 176.517116 
L 136.77063 177.076081 
L 138.193223 177.076081 
L 138.382902 176.517116 
L 138.951939 176.517116 
L 139.141618 175.958152 
L 139.805494 175.958152 
L 139.995173 175.399187 
L 140.848728 175.399187 
L 141.038407 175.958152 
L 141.702284 175.958152 
L 141.891963 176.517116 
L 142.461 176.517116 
L 142.650679 177.076081 
L 143.978432 177.076081 
L 144.168111 176.517116 
L 144.831987 176.517116 
L 145.021666 175.958152 
L 145.685543 175.958152 
L 145.875221 175.399187 
L 146.633937 175.399187 
L 146.823616 175.958152 
L 147.487493 175.958152 
L 147.677172 176.517116 
L 148.341048 176.517116 
L 148.530727 177.076081 
L 149.763641 177.076081 
L 149.95332 176.517116 
L 150.617196 176.517116 
L 150.806875 175.958152 
L 151.565591 175.958152 
L 151.75527 175.399187 
L 152.324307 175.399187 
L 152.513986 175.958152 
L 153.272702 175.958152 
L 153.462381 176.517116 
L 154.126257 176.517116 
L 154.315936 177.076081 
L 155.45401 177.076081 
L 155.643689 176.517116 
L 156.307565 176.517116 
L 156.497244 175.958152 
L 157.3508 175.958152 
L 157.540479 175.399187 
L 157.919837 175.399187 
L 158.109516 175.958152 
L 159.057911 175.958152 
L 159.24759 176.517116 
L 159.911466 176.517116 
L 160.101145 177.076081 
L 161.14438 177.076081 
L 161.334059 176.517116 
L 162.092774 176.517116 
L 162.282453 175.958152 
L 163.230848 175.958152 
L 163.420527 175.399187 
L 163.515367 175.399187 
L 163.705046 175.958152 
L 164.74828 175.958152 
L 164.937959 176.517116 
L 165.601836 176.517116 
L 165.791515 177.076081 
L 166.834749 177.076081 
L 167.024428 176.517116 
L 167.783144 176.517116 
L 167.972823 175.958152 
L 170.34381 175.958152 
L 170.533489 176.517116 
L 171.387045 176.517116 
L 171.576724 177.076081 
L 172.430279 177.076081 
L 172.619958 176.517116 
L 173.378674 176.517116 
L 173.568353 175.958152 
L 176.03418 175.958152 
L 176.223859 176.517116 
L 176.413538 175.958152 
L 176.792896 175.958152 
L 176.982575 175.399187 
L 177.456772 175.399187 
L 177.646451 174.840222 
L 178.025809 174.840222 
L 178.215488 174.281257 
L 178.689685 174.281257 
L 178.879364 173.722292 
L 179.258722 173.722292 
L 179.448401 173.163327 
L 179.922599 173.163327 
L 180.112278 172.604362 
L 180.586475 172.604362 
L 180.776154 172.045397 
L 181.250352 172.045397 
L 181.440031 171.486433 
L 181.819389 171.486433 
L 182.009068 170.927468 
L 182.578104 170.927468 
L 182.767783 170.368503 
L 183.241981 170.368503 
L 183.43166 169.809538 
L 183.905857 169.809538 
L 184.095536 169.250573 
L 184.569734 169.250573 
L 184.759413 168.691608 
L 185.32845 168.691608 
L 185.518129 168.132643 
L 185.992326 168.132643 
L 186.182005 167.573678 
L 186.751042 167.573678 
L 186.940721 167.014713 
L 187.509758 167.014713 
L 187.699437 166.455749 
L 188.268474 166.455749 
L 188.458153 165.896784 
L 189.02719 165.896784 
L 189.216869 165.337819 
L 189.880745 165.337819 
L 190.070424 164.778854 
L 190.734301 164.778854 
L 190.92398 164.219889 
L 191.493017 164.219889 
L 191.682696 163.660924 
L 192.441412 163.660924 
L 192.631091 163.101959 
L 193.294967 163.101959 
L 193.484646 162.542994 
L 194.243362 162.542994 
L 194.433041 161.98403 
L 195.191757 161.98403 
L 195.381436 161.425065 
L 196.140152 161.425065 
L 196.329831 160.8661 
L 197.183386 160.8661 
L 197.373065 160.307135 
L 198.22662 160.307135 
L 198.416299 159.74817 
L 199.364694 159.74817 
L 199.554373 159.189205 
L 200.502768 159.189205 
L 200.692447 158.63024 
L 201.735682 158.63024 
L 201.925361 158.071275 
L 202.684077 158.071275 
L 202.873756 159.74817 
L 203.158274 161.98403 
L 203.727311 164.778854 
L 203.82215 164.778854 
L 204.201508 166.455749 
L 204.296348 166.455749 
L 204.486027 167.014713 
L 204.580866 167.014713 
L 204.865385 168.132643 
L 204.960224 168.132643 
L 205.244743 169.250573 
L 205.434422 169.250573 
L 205.71894 170.368503 
L 205.81378 170.368503 
L 206.003459 170.927468 
L 206.098298 170.927468 
L 206.382817 172.045397 
L 206.477656 172.045397 
L 206.762175 173.163327 
L 206.951854 173.163327 
L 207.236372 174.281257 
L 207.331212 174.281257 
L 207.61573 175.399187 
L 207.805409 175.399187 
L 208.089928 176.517116 
L 208.184767 176.517116 
L 208.469286 177.635046 
L 208.564125 177.635046 
L 208.753804 178.194011 
L 208.848643 178.194011 
L 209.133162 179.311941 
L 209.228001 179.311941 
L 209.51252 180.429871 
L 209.607359 180.429871 
L 209.797038 180.988835 
L 209.891878 180.988835 
L 210.176396 182.106765 
L 210.271236 182.106765 
L 210.555754 183.224695 
L 210.650594 183.224695 
L 210.935112 184.342625 
L 211.029952 184.342625 
L 211.31447 185.460555 
L 211.504149 185.460555 
L 211.693828 182.106765 
L 212.547384 168.691608 
L 213.3061 158.63024 
L 213.685458 153.599556 
L 214.349334 146.891978 
L 214.823531 149.127837 
L 214.918371 149.127837 
L 215.297729 150.804732 
L 215.392568 150.804732 
L 215.866766 153.040591 
L 215.961605 153.040591 
L 216.340963 154.717486 
L 216.435803 154.717486 
L 216.91 156.953346 
L 217.00484 156.953346 
L 217.479037 159.189205 
L 217.573877 159.189205 
L 218.048074 161.425065 
L 218.142914 161.425065 
L 218.522272 163.101959 
L 218.617111 163.101959 
L 219.091309 165.337819 
L 219.186148 165.337819 
L 219.470666 166.455749 
L 219.565506 171.486433 
L 219.944864 209.496044 
L 220.60874 238.562218 
L 220.70358 253.65427 
L 220.893259 294.458706 
L 221.367456 322.965915 
L 221.651975 325.201774 
L 222.126172 325.201774 
L 222.315851 324.64281 
L 222.60037 324.64281 
L 222.790049 324.083845 
L 223.548765 324.083845 
L 223.738444 323.52488 
L 226.20427 323.52488 
L 226.393949 322.965915 
L 228.1959 322.965915 
L 228.385579 322.40695 
L 229.618492 322.40695 
L 229.808171 321.847985 
L 230.946245 321.847985 
L 231.135924 321.28902 
L 232.084319 321.28902 
L 232.273998 320.730055 
L 233.127553 320.730055 
L 233.317232 320.171091 
L 234.170788 320.171091 
L 234.360467 319.612126 
L 235.119182 319.612126 
L 235.308861 319.053161 
L 235.972738 319.053161 
L 236.162417 318.494196 
L 236.826293 318.494196 
L 237.015972 317.935231 
L 237.300491 317.935231 
L 237.585009 319.053161 
L 237.679849 319.053161 
L 237.869528 319.612126 
L 238.059207 319.612126 
L 238.248886 320.171091 
L 239.576639 320.171091 
L 239.766318 319.612126 
L 239.955997 319.612126 
L 240.145675 319.053161 
L 240.240515 319.053161 
L 240.430194 318.494196 
L 240.525033 318.494196 
L 240.714712 317.935231 
L 240.809552 317.935231 
L 241.09407 316.817301 
L 241.18891 316.817301 
L 241.473428 315.699372 
L 241.568268 315.699372 
L 241.852786 314.581442 
L 241.947626 314.581442 
L 242.137305 314.022477 
L 242.326984 314.022477 
L 242.516663 313.463512 
L 242.896021 313.463512 
L 243.0857 312.904547 
L 243.275379 312.904547 
L 243.465058 312.345582 
L 243.654737 312.345582 
L 243.844416 311.786617 
L 243.939255 311.786617 
L 244.128934 311.227652 
L 244.223774 311.227652 
L 244.413453 310.668688 
L 244.603132 310.668688 
L 244.792811 310.109723 
L 244.88765 310.109723 
L 245.172169 308.991793 
L 245.361848 308.991793 
L 245.551526 308.432828 
L 245.646366 308.432828 
L 245.836045 307.873863 
L 245.930884 307.873863 
L 246.215403 306.755933 
L 246.405082 306.755933 
L 246.6896 305.638004 
L 246.879279 305.638004 
L 247.068958 305.079039 
L 247.163798 305.079039 
L 247.448316 303.961109 
L 247.637995 303.961109 
L 247.922514 302.843179 
L 248.112193 302.843179 
L 248.396711 301.72525 
L 248.58639 301.72525 
L 248.776069 301.166285 
L 248.870909 301.166285 
L 249.155427 300.048355 
L 249.345106 300.048355 
L 249.534785 299.48939 
L 249.629625 299.48939 
L 249.819304 298.930425 
L 249.914143 298.930425 
L 250.103822 298.37146 
L 250.198662 298.37146 
L 250.48318 297.25353 
L 250.672859 297.25353 
L 250.862538 296.694566 
L 251.052217 296.694566 
L 251.241896 296.135601 
L 251.336735 296.135601 
L 251.526414 295.576636 
L 251.621254 295.576636 
L 251.810933 295.017671 
L 251.905772 295.017671 
L 252.095451 294.458706 
L 252.28513 294.458706 
L 252.474809 293.899741 
L 252.664488 293.899741 
L 252.854167 293.340776 
L 252.949007 293.340776 
L 253.138686 292.781811 
L 253.328365 292.781811 
L 253.518044 292.222847 
L 253.802562 292.222847 
L 253.992241 291.663882 
L 254.18192 291.663882 
L 254.371599 291.104917 
L 254.656118 291.104917 
L 254.845797 290.545952 
L 255.130315 290.545952 
L 255.319994 289.986987 
L 255.604513 289.986987 
L 255.794192 289.428022 
L 256.268389 289.428022 
L 256.458068 288.869057 
L 256.837426 288.869057 
L 257.027105 288.310092 
L 257.596142 288.310092 
L 257.785821 287.751128 
L 258.449697 287.751128 
L 258.639376 287.192163 
L 259.492932 287.192163 
L 259.682611 286.633198 
L 260.915524 286.633198 
L 261.105203 286.074233 
L 262.243277 286.074233 
L 262.527795 284.956303 
L 262.812314 287.192163 
L 263.191672 290.545952 
L 264.140067 295.576636 
L 264.234906 295.576636 
L 264.424585 296.135601 
L 265.183301 296.135601 
L 265.46782 295.017671 
L 265.562659 295.017671 
L 266.890412 286.633198 
L 267.459449 281.043549 
L 267.649128 279.366654 
L 269.545918 258.125989 
L 269.735597 256.449094 
L 270.304634 250.859445 
L 271.347868 244.710832 
L 271.822065 256.449094 
L 273.624016 277.68976 
L 273.813695 284.956303 
L 274.193053 290.545952 
L 274.287892 290.545952 
L 274.572411 291.663882 
L 275.236287 291.663882 
L 275.425966 292.222847 
L 275.995003 292.222847 
L 276.184682 292.781811 
L 276.753719 292.781811 
L 276.943398 293.340776 
L 277.607274 293.340776 
L 277.796953 293.899741 
L 278.176311 293.899741 
L 278.46083 295.017671 
L 278.555669 295.017671 
L 278.840188 296.135601 
L 279.029867 296.135601 
L 279.219546 296.694566 
L 279.409225 296.694566 
L 279.598904 297.25353 
L 279.883422 297.25353 
L 280.073101 297.812495 
L 281.495694 297.812495 
L 281.685373 297.25353 
L 282.064731 297.25353 
L 282.254409 296.694566 
L 282.538928 296.694566 
L 282.728607 296.135601 
L 282.918286 296.135601 
L 283.107965 295.576636 
L 283.297644 295.576636 
L 283.487323 295.017671 
L 283.582162 295.017671 
L 283.771841 294.458706 
L 283.866681 294.458706 
L 284.05636 293.899741 
L 284.151199 293.899741 
L 284.340878 293.340776 
L 284.435718 293.340776 
L 284.625397 292.781811 
L 284.720236 292.781811 
L 284.909915 292.222847 
L 285.004755 292.222847 
L 285.194434 291.663882 
L 285.289273 291.663882 
L 285.478952 291.104917 
L 285.573792 291.104917 
L 285.763471 290.545952 
L 285.85831 290.545952 
L 286.142829 289.428022 
L 286.427347 289.428022 
L 286.711866 290.545952 
L 286.806705 290.545952 
L 287.091224 291.663882 
L 287.280903 291.663882 
L 287.470581 292.222847 
L 287.565421 292.222847 
L 287.7551 292.781811 
L 288.798334 292.781811 
L 288.988013 292.222847 
L 289.177692 292.222847 
L 289.367371 291.663882 
L 289.462211 291.663882 
L 289.746729 290.545952 
L 289.841569 290.545952 
L 290.220927 288.869057 
L 290.315766 288.869057 
L 290.979643 285.515268 
L 291.074482 285.515268 
L 293.160951 273.777006 
L 293.25579 273.777006 
L 294.109346 269.305287 
L 294.204185 269.305287 
L 294.583543 267.628392 
L 294.678383 267.628392 
L 294.962901 266.510462 
L 295.15258 266.510462 
L 295.721617 272.100111 
L 297.14421 279.925619 
L 297.239049 279.925619 
L 297.808086 282.720444 
L 297.902925 282.720444 
L 297.997765 283.279409 
L 298.187444 286.074233 
L 298.282283 286.074233 
L 298.471962 287.192163 
L 298.661641 287.751128 
L 298.756481 287.751128 
L 298.94616 288.310092 
L 299.894555 288.310092 
L 300.084234 288.869057 
L 300.84295 288.869057 
L 301.032629 289.428022 
L 301.222308 289.428022 
L 301.411987 289.986987 
L 301.601666 289.986987 
L 301.791345 290.545952 
L 302.170703 290.545952 
L 302.360382 291.104917 
L 305.110727 291.104917 
L 305.300406 290.545952 
L 305.869443 290.545952 
L 306.059122 289.986987 
L 306.533319 289.986987 
L 306.722998 289.428022 
L 307.102356 289.428022 
L 307.292035 288.869057 
L 307.576554 288.869057 
L 307.766233 288.310092 
L 308.145591 288.310092 
L 308.335269 287.751128 
L 308.619788 287.751128 
L 308.809467 287.192163 
L 309.093985 287.192163 
L 309.283664 286.633198 
L 309.947541 286.633198 
L 310.13722 287.192163 
L 310.326899 287.192163 
L 310.516578 287.751128 
L 310.990775 287.751128 
L 311.180454 288.310092 
L 311.93917 288.310092 
L 312.128849 287.751128 
L 312.603047 287.751128 
L 312.792726 287.192163 
L 313.077244 287.192163 
L 313.266923 286.633198 
L 313.361763 286.633198 
L 313.551442 286.074233 
L 313.646281 286.074233 
L 313.83596 285.515268 
L 313.930799 285.515268 
L 314.120478 284.956303 
L 314.215318 284.956303 
L 314.499836 283.838373 
L 314.594676 283.838373 
L 314.784355 283.279409 
L 314.879194 283.279409 
L 315.163713 282.161479 
L 315.258552 282.161479 
L 315.543071 281.043549 
L 315.63791 281.043549 
L 315.922429 279.925619 
L 316.112108 279.925619 
L 316.396626 278.807689 
L 316.491466 278.807689 
L 316.775984 277.68976 
L 316.965663 277.68976 
L 317.155342 277.130795 
L 317.250182 277.130795 
L 317.439861 276.57183 
L 317.5347 276.57183 
L 317.724379 276.012865 
L 317.819219 276.012865 
L 318.008898 275.4539 
L 318.198577 275.4539 
L 318.388256 274.894935 
L 319.052132 278.248725 
L 319.146971 278.248725 
L 319.43149 279.366654 
L 319.526329 279.366654 
L 319.810848 280.484584 
L 320.000527 280.484584 
L 320.285045 281.602514 
L 320.474724 281.602514 
L 320.759243 282.720444 
L 320.948922 282.720444 
L 321.138601 283.279409 
L 321.23344 283.279409 
L 321.423119 283.838373 
L 321.517959 283.838373 
L 321.707638 284.397338 
L 321.802477 284.397338 
L 321.992156 284.956303 
L 322.181835 284.956303 
L 322.371514 285.515268 
L 322.561193 285.515268 
L 322.750872 286.074233 
L 323.035391 286.074233 
L 323.22507 286.633198 
L 323.604428 286.633198 
L 323.794107 287.192163 
L 324.363143 287.192163 
L 324.552822 287.751128 
L 325.975415 287.751128 
L 326.165094 288.310092 
L 326.734131 288.310092 
L 326.92381 287.751128 
L 328.630921 287.751128 
L 328.8206 287.192163 
L 329.768994 287.192163 
L 329.958673 286.633198 
L 330.717389 286.633198 
L 330.907068 286.074233 
L 331.665784 286.074233 
L 331.855463 285.515268 
L 333.278056 285.515268 
L 333.467735 286.074233 
L 335.649043 286.074233 
L 335.838722 285.515268 
L 336.312919 285.515268 
L 336.502598 284.956303 
L 336.881956 284.956303 
L 337.071635 284.397338 
L 337.356154 284.397338 
L 337.545833 283.838373 
L 337.735512 283.838373 
L 337.925191 283.279409 
L 338.209709 283.279409 
L 338.399388 282.720444 
L 338.589067 282.720444 
L 338.778746 282.161479 
L 338.968425 282.161479 
L 339.158104 281.602514 
L 339.347783 281.602514 
L 339.537462 281.043549 
L 339.82198 281.043549 
L 340.011659 280.484584 
L 340.296178 280.484584 
L 340.485857 279.925619 
L 340.865215 279.925619 
L 341.054894 279.366654 
L 341.434252 279.366654 
L 341.71877 280.484584 
L 341.81361 280.484584 
L 342.003289 281.043549 
L 342.192968 281.043549 
L 342.382647 281.602514 
L 342.572326 281.602514 
L 342.762005 282.161479 
L 342.951684 282.161479 
L 343.141363 282.720444 
L 343.425881 282.720444 
L 343.61556 283.279409 
L 343.900079 283.279409 
L 344.089758 283.838373 
L 344.469116 283.838373 
L 344.658795 284.397338 
L 345.132992 284.397338 
L 345.322671 284.956303 
L 345.891708 284.956303 
L 346.081387 285.515268 
L 346.934942 285.515268 
L 347.124621 286.074233 
L 352.245954 286.074233 
L 352.435633 285.515268 
L 354.142744 285.515268 
L 354.332423 284.956303 
L 357.082768 284.956303 
L 357.272447 285.515268 
L 357.936323 285.515268 
L 358.126002 284.956303 
L 359.548595 284.956303 
L 359.738274 284.397338 
L 360.49699 284.397338 
L 360.686669 283.838373 
L 361.255705 283.838373 
L 361.445384 283.279409 
L 362.014421 283.279409 
L 362.2041 282.720444 
L 362.867977 282.720444 
L 363.057656 282.161479 
L 364.006051 282.161479 
L 364.19573 281.602514 
L 364.385409 281.602514 
L 364.575088 282.161479 
L 364.764767 282.161479 
L 364.954446 282.720444 
L 365.428643 282.720444 
L 365.618322 283.279409 
L 366.282198 283.279409 
L 366.471877 283.838373 
L 367.230593 283.838373 
L 367.420272 284.397338 
L 368.463507 284.397338 
L 368.653186 284.956303 
L 370.739655 284.956303 
L 370.929334 285.515268 
L 374.248716 285.515268 
L 374.438395 284.956303 
L 378.137135 284.956303 
L 378.326814 284.397338 
L 379.08553 284.397338 
L 379.275209 284.956303 
L 382.025554 284.956303 
L 382.215233 284.397338 
L 383.922344 284.397338 
L 384.112023 283.838373 
L 385.439776 283.838373 
L 385.629455 283.279409 
L 388.190121 283.279409 
L 388.3798 283.838373 
L 389.802392 283.838373 
L 389.992071 284.397338 
L 392.363058 284.397338 
L 392.552737 284.956303 
L 399.47602 284.956303 
L 399.665699 284.397338 
L 407.632217 284.397338 
L 407.821896 283.838373 
L 412.089673 283.838373 
L 412.279352 284.397338 
L 432.100805 284.397338 
L 432.290484 283.838373 
L 433.807916 283.838373 
L 433.997595 284.397338 
L 498.109091 284.397338 
L 498.109091 284.397338 
" style="fill:none;stroke:#008000;stroke-linecap:square;stroke-width:1.5;"/>
   </g>
   <g id="patch_3">
    <path d="M 72 384.48 
L 72 51.84 
" style="fill:none;stroke:#000000;stroke-linecap:square;stroke-linejoin:miter;stroke-width:0.8;"/>
   </g>
   <g id="patch_4">
    <path d="M 518.4 384.48 
L 518.4 51.84 
" style="fill:none;stroke:#000000;stroke-linecap:square;stroke-linejoin:miter;stroke-width:0.8;"/>
   </g>
   <g id="patch_5">
    <path d="M 72 384.48 
L 518.4 384.48 
" style="fill:none;stroke:#000000;stroke-linecap:square;stroke-linejoin:miter;stroke-width:0.8;"/>
   </g>
   <g id="patch_6">
    <path d="M 72 51.84 
L 518.4 51.84 
" style="fill:none;stroke:#000000;stroke-linecap:square;stroke-linejoin:miter;stroke-width:0.8;"/>
   </g>
   <g id="legend_1">
    <g id="patch_7">
     <path d="M 368.520312 164.665 
L 511.4 164.665 
Q 513.4 164.665 513.4 162.665 
L 513.4 58.84 
Q 513.4 56.84 511.4 56.84 
L 368.520312 56.84 
Q 366.520312 56.84 366.520312 58.84 
L 366.520312 162.665 
Q 366.520312 164.665 368.520312 164.665 
z
" style="fill:#ffffff;opacity:0.8;stroke:#cccccc;stroke-linejoin:miter;"/>
    </g>
    <g id="line2d_27">
     <path d="M 370.520312 64.938437 
L 390.520312 64.938437 
" style="fill:none;stroke:#bf00bf;stroke-linecap:square;stroke-width:1.5;"/>
    </g>
    <g id="line2d_28"/>
    <g id="text_15">
     <text style="font-family:DejaVu Sans;font-size:10px;font-style:normal;font-weight:400;text-anchor:start;" transform="rotate(-0, 398.520312, 68.438437)" x="398.520312" y="68.438437">$\Delta \lambda_{1}$</text>
    </g>
    <g id="line2d_29">
     <path d="M 370.520312 94.894687 
L 390.520312 94.894687 
" style="fill:none;stroke:#00bfbf;stroke-linecap:square;stroke-width:1.5;"/>
    </g>
    <g id="line2d_30"/>
    <g id="text_16">
     <text style="font-family:DejaVu Sans;font-size:10px;font-style:normal;font-weight:400;text-anchor:start;" transform="rotate(-0, 398.520312, 98.394687)" x="398.520312" y="98.394687">$\Delta \lambda_{2}$</text>
    </g>
    <g id="line2d_31">
     <path d="M 370.520312 124.850937 
L 390.520312 124.850937 
" style="fill:none;stroke:#ff0000;stroke-linecap:square;stroke-width:1.5;"/>
    </g>
    <g id="line2d_32"/>
    <g id="text_17">
     <text style="font-family:DejaVu Sans;font-size:10px;font-style:normal;font-weight:400;text-anchor:start;" transform="rotate(-0, 398.520312, 128.350937)" x="398.520312" y="128.350937">$\Delta \lambda_{3}$</text>
    </g>
    <g id="line2d_33">
     <path d="M 370.520312 154.807187 
L 390.520312 154.807187 
" style="fill:none;stroke:#008000;stroke-linecap:square;stroke-width:1.5;"/>
    </g>
    <g id="line2d_34"/>
    <g id="text_18">
     <text style="font-family:DejaVu Sans;font-size:10px;font-style:normal;font-weight:400;text-anchor:start;" transform="rotate(-0, 398.520312, 158.307187)" x="398.520312" y="158.307187">$\Delta \lambda_{4}$</text>
    </g>
   </g>
  </g>
 </g>
 <defs>
  <clipPath id="p3a0c85ca40">
   <rect height="332.64" width="446.4" x="72" y="51.84"/>
  </clipPath>
 </defs>
</svg>
