<?xml version="1.0" encoding="utf-8" standalone="no"?>
<!DOCTYPE svg PUBLIC "-//W3C//DTD SVG 1.1//EN"
  "http://www.w3.org/Graphics/SVG/1.1/DTD/svg11.dtd">
<!-- Created with matplotlib (http://matplotlib.org/) -->
<svg height="432pt" version="1.1" viewBox="0 0 576 432" width="576pt" xmlns="http://www.w3.org/2000/svg" xmlns:xlink="http://www.w3.org/1999/xlink">
 <defs>
  <style type="text/css">
*{stroke-linecap:butt;stroke-linejoin:round;}
  </style>
 </defs>
 <g id="figure_1">
  <g id="patch_1">
   <path d="M 0 432 
L 576 432 
L 576 0 
L 0 0 
z
" style="fill:#ffffff;"/>
  </g>
  <g id="axes_1">
   <g id="patch_2">
    <path d="M 72 384.48 
L 518.4 384.48 
L 518.4 51.84 
L 72 51.84 
z
" style="fill:#ffffff;"/>
   </g>
   <g id="matplotlib.axis_1">
    <g id="xtick_1">
     <g id="line2d_1">
      <path clip-path="url(#pac8ac9294d)" d="M 92.290909 384.48 
L 92.290909 51.84 
" style="fill:none;stroke:#b0b0b0;stroke-dasharray:5.12,1.28,0.8,1.28;stroke-dashoffset:0;stroke-width:0.8;"/>
     </g>
     <g id="line2d_2">
      <defs>
       <path d="M 0 0 
L 0 3.5 
" id="mdbd0eab30f" style="stroke:#000000;stroke-width:0.8;"/>
      </defs>
      <g>
       <use style="stroke:#000000;stroke-width:0.8;" x="92.290909" xlink:href="#mdbd0eab30f" y="384.48"/>
      </g>
     </g>
     <g id="text_1">
      <text style="font-family:DejaVu Sans;font-size:10px;font-style:normal;font-weight:400;text-anchor:middle;" transform="rotate(-0, 92.290909, 399.078438)" x="92.290909" y="399.078438">0</text>
     </g>
    </g>
    <g id="xtick_2">
     <g id="line2d_3">
      <path clip-path="url(#pac8ac9294d)" d="M 143.043558 384.48 
L 143.043558 51.84 
" style="fill:none;stroke:#b0b0b0;stroke-dasharray:5.12,1.28,0.8,1.28;stroke-dashoffset:0;stroke-width:0.8;"/>
     </g>
     <g id="line2d_4">
      <g>
       <use style="stroke:#000000;stroke-width:0.8;" x="143.043558" xlink:href="#mdbd0eab30f" y="384.48"/>
      </g>
     </g>
     <g id="text_2">
      <text style="font-family:DejaVu Sans;font-size:10px;font-style:normal;font-weight:400;text-anchor:middle;" transform="rotate(-0, 143.043558, 399.078438)" x="143.043558" y="399.078438">250</text>
     </g>
    </g>
    <g id="xtick_3">
     <g id="line2d_5">
      <path clip-path="url(#pac8ac9294d)" d="M 193.796207 384.48 
L 193.796207 51.84 
" style="fill:none;stroke:#b0b0b0;stroke-dasharray:5.12,1.28,0.8,1.28;stroke-dashoffset:0;stroke-width:0.8;"/>
     </g>
     <g id="line2d_6">
      <g>
       <use style="stroke:#000000;stroke-width:0.8;" x="193.796207" xlink:href="#mdbd0eab30f" y="384.48"/>
      </g>
     </g>
     <g id="text_3">
      <text style="font-family:DejaVu Sans;font-size:10px;font-style:normal;font-weight:400;text-anchor:middle;" transform="rotate(-0, 193.796207, 399.078438)" x="193.796207" y="399.078438">500</text>
     </g>
    </g>
    <g id="xtick_4">
     <g id="line2d_7">
      <path clip-path="url(#pac8ac9294d)" d="M 244.548856 384.48 
L 244.548856 51.84 
" style="fill:none;stroke:#b0b0b0;stroke-dasharray:5.12,1.28,0.8,1.28;stroke-dashoffset:0;stroke-width:0.8;"/>
     </g>
     <g id="line2d_8">
      <g>
       <use style="stroke:#000000;stroke-width:0.8;" x="244.548856" xlink:href="#mdbd0eab30f" y="384.48"/>
      </g>
     </g>
     <g id="text_4">
      <text style="font-family:DejaVu Sans;font-size:10px;font-style:normal;font-weight:400;text-anchor:middle;" transform="rotate(-0, 244.548856, 399.078438)" x="244.548856" y="399.078438">750</text>
     </g>
    </g>
    <g id="xtick_5">
     <g id="line2d_9">
      <path clip-path="url(#pac8ac9294d)" d="M 295.301505 384.48 
L 295.301505 51.84 
" style="fill:none;stroke:#b0b0b0;stroke-dasharray:5.12,1.28,0.8,1.28;stroke-dashoffset:0;stroke-width:0.8;"/>
     </g>
     <g id="line2d_10">
      <g>
       <use style="stroke:#000000;stroke-width:0.8;" x="295.301505" xlink:href="#mdbd0eab30f" y="384.48"/>
      </g>
     </g>
     <g id="text_5">
      <text style="font-family:DejaVu Sans;font-size:10px;font-style:normal;font-weight:400;text-anchor:middle;" transform="rotate(-0, 295.301505, 399.078438)" x="295.301505" y="399.078438">1000</text>
     </g>
    </g>
    <g id="xtick_6">
     <g id="line2d_11">
      <path clip-path="url(#pac8ac9294d)" d="M 346.054154 384.48 
L 346.054154 51.84 
" style="fill:none;stroke:#b0b0b0;stroke-dasharray:5.12,1.28,0.8,1.28;stroke-dashoffset:0;stroke-width:0.8;"/>
     </g>
     <g id="line2d_12">
      <g>
       <use style="stroke:#000000;stroke-width:0.8;" x="346.054154" xlink:href="#mdbd0eab30f" y="384.48"/>
      </g>
     </g>
     <g id="text_6">
      <text style="font-family:DejaVu Sans;font-size:10px;font-style:normal;font-weight:400;text-anchor:middle;" transform="rotate(-0, 346.054154, 399.078438)" x="346.054154" y="399.078438">1250</text>
     </g>
    </g>
    <g id="xtick_7">
     <g id="line2d_13">
      <path clip-path="url(#pac8ac9294d)" d="M 396.806803 384.48 
L 396.806803 51.84 
" style="fill:none;stroke:#b0b0b0;stroke-dasharray:5.12,1.28,0.8,1.28;stroke-dashoffset:0;stroke-width:0.8;"/>
     </g>
     <g id="line2d_14">
      <g>
       <use style="stroke:#000000;stroke-width:0.8;" x="396.806803" xlink:href="#mdbd0eab30f" y="384.48"/>
      </g>
     </g>
     <g id="text_7">
      <text style="font-family:DejaVu Sans;font-size:10px;font-style:normal;font-weight:400;text-anchor:middle;" transform="rotate(-0, 396.806803, 399.078438)" x="396.806803" y="399.078438">1500</text>
     </g>
    </g>
    <g id="xtick_8">
     <g id="line2d_15">
      <path clip-path="url(#pac8ac9294d)" d="M 447.559452 384.48 
L 447.559452 51.84 
" style="fill:none;stroke:#b0b0b0;stroke-dasharray:5.12,1.28,0.8,1.28;stroke-dashoffset:0;stroke-width:0.8;"/>
     </g>
     <g id="line2d_16">
      <g>
       <use style="stroke:#000000;stroke-width:0.8;" x="447.559452" xlink:href="#mdbd0eab30f" y="384.48"/>
      </g>
     </g>
     <g id="text_8">
      <text style="font-family:DejaVu Sans;font-size:10px;font-style:normal;font-weight:400;text-anchor:middle;" transform="rotate(-0, 447.559452, 399.078438)" x="447.559452" y="399.078438">1750</text>
     </g>
    </g>
    <g id="xtick_9">
     <g id="line2d_17">
      <path clip-path="url(#pac8ac9294d)" d="M 498.312102 384.48 
L 498.312102 51.84 
" style="fill:none;stroke:#b0b0b0;stroke-dasharray:5.12,1.28,0.8,1.28;stroke-dashoffset:0;stroke-width:0.8;"/>
     </g>
     <g id="line2d_18">
      <g>
       <use style="stroke:#000000;stroke-width:0.8;" x="498.312102" xlink:href="#mdbd0eab30f" y="384.48"/>
      </g>
     </g>
     <g id="text_9">
      <text style="font-family:DejaVu Sans;font-size:10px;font-style:normal;font-weight:400;text-anchor:middle;" transform="rotate(-0, 498.312102, 399.078438)" x="498.312102" y="399.078438">2000</text>
     </g>
    </g>
    <g id="text_10">
     <text style="font-family:DejaVu Sans;font-size:14px;font-style:normal;font-weight:400;text-anchor:middle;" transform="rotate(-0, 295.2, 415.795938)" x="295.2" y="415.795938">Iteration</text>
    </g>
   </g>
   <g id="matplotlib.axis_2">
    <g id="ytick_1">
     <g id="line2d_19">
      <path clip-path="url(#pac8ac9294d)" d="M 72 337.835641 
L 518.4 337.835641 
" style="fill:none;stroke:#b0b0b0;stroke-dasharray:5.12,1.28,0.8,1.28;stroke-dashoffset:0;stroke-width:0.8;"/>
     </g>
     <g id="line2d_20">
      <defs>
       <path d="M 0 0 
L -3.5 0 
" id="m714f6c7024" style="stroke:#000000;stroke-width:0.8;"/>
      </defs>
      <g>
       <use style="stroke:#000000;stroke-width:0.8;" x="72" xlink:href="#m714f6c7024" y="337.835641"/>
      </g>
     </g>
     <g id="text_11">
      <text style="font-family:DejaVu Sans;font-size:10px;font-style:normal;font-weight:400;text-anchor:end;" transform="rotate(-0, 65, 341.63486)" x="65" y="341.63486">−100</text>
     </g>
    </g>
    <g id="ytick_2">
     <g id="line2d_21">
      <path clip-path="url(#pac8ac9294d)" d="M 72 277.997821 
L 518.4 277.997821 
" style="fill:none;stroke:#b0b0b0;stroke-dasharray:5.12,1.28,0.8,1.28;stroke-dashoffset:0;stroke-width:0.8;"/>
     </g>
     <g id="line2d_22">
      <g>
       <use style="stroke:#000000;stroke-width:0.8;" x="72" xlink:href="#m714f6c7024" y="277.997821"/>
      </g>
     </g>
     <g id="text_12">
      <text style="font-family:DejaVu Sans;font-size:10px;font-style:normal;font-weight:400;text-anchor:end;" transform="rotate(-0, 65, 281.797039)" x="65" y="281.797039">−50</text>
     </g>
    </g>
    <g id="ytick_3">
     <g id="line2d_23">
      <path clip-path="url(#pac8ac9294d)" d="M 72 218.16 
L 518.4 218.16 
" style="fill:none;stroke:#b0b0b0;stroke-dasharray:5.12,1.28,0.8,1.28;stroke-dashoffset:0;stroke-width:0.8;"/>
     </g>
     <g id="line2d_24">
      <g>
       <use style="stroke:#000000;stroke-width:0.8;" x="72" xlink:href="#m714f6c7024" y="218.16"/>
      </g>
     </g>
     <g id="text_13">
      <text style="font-family:DejaVu Sans;font-size:10px;font-style:normal;font-weight:400;text-anchor:end;" transform="rotate(-0, 65, 221.959219)" x="65" y="221.959219">0</text>
     </g>
    </g>
    <g id="ytick_4">
     <g id="line2d_25">
      <path clip-path="url(#pac8ac9294d)" d="M 72 158.322179 
L 518.4 158.322179 
" style="fill:none;stroke:#b0b0b0;stroke-dasharray:5.12,1.28,0.8,1.28;stroke-dashoffset:0;stroke-width:0.8;"/>
     </g>
     <g id="line2d_26">
      <g>
       <use style="stroke:#000000;stroke-width:0.8;" x="72" xlink:href="#m714f6c7024" y="158.322179"/>
      </g>
     </g>
     <g id="text_14">
      <text style="font-family:DejaVu Sans;font-size:10px;font-style:normal;font-weight:400;text-anchor:end;" transform="rotate(-0, 65, 162.121398)" x="65" y="162.121398">50</text>
     </g>
    </g>
    <g id="ytick_5">
     <g id="line2d_27">
      <path clip-path="url(#pac8ac9294d)" d="M 72 98.484359 
L 518.4 98.484359 
" style="fill:none;stroke:#b0b0b0;stroke-dasharray:5.12,1.28,0.8,1.28;stroke-dashoffset:0;stroke-width:0.8;"/>
     </g>
     <g id="line2d_28">
      <g>
       <use style="stroke:#000000;stroke-width:0.8;" x="72" xlink:href="#m714f6c7024" y="98.484359"/>
      </g>
     </g>
     <g id="text_15">
      <text style="font-family:DejaVu Sans;font-size:10px;font-style:normal;font-weight:400;text-anchor:end;" transform="rotate(-0, 65, 102.283578)" x="65" y="102.283578">100</text>
     </g>
    </g>
    <g id="text_16">
     <text style="font-family:DejaVu Sans;font-size:14px;font-style:normal;font-weight:400;text-anchor:middle;" transform="rotate(-90, 30.231875, 218.16)" x="30.231875" y="218.16">$i_{mn}[A]$</text>
    </g>
   </g>
   <g id="line2d_29">
    <path clip-path="url(#pac8ac9294d)" d="M 92.290909 218.16 
L 92.49392 218.16 
L 92.899941 185.994419 
L 93.102951 181.267231 
L 93.305962 179.216589 
L 93.711983 177.842234 
L 94.118004 177.412 
L 95.742089 176.413666 
L 97.569185 175.259275 
L 97.975206 194.826242 
L 98.381227 205.693029 
L 98.787248 211.177884 
L 99.193269 213.726257 
L 99.599291 214.675644 
L 99.802301 214.794841 
L 100.005312 214.758818 
L 100.411333 214.377412 
L 101.020365 213.387335 
L 103.050471 209.299575 
L 105.283587 205.093215 
L 107.313693 201.721354 
L 109.54681 198.45756 
L 111.779926 195.60174 
L 114.013043 193.101237 
L 116.44917 190.725436 
L 117.667234 189.659605 
L 117.870244 184.060341 
L 118.276265 152.074872 
L 119.088308 72.107728 
L 119.291318 72.139083 
L 119.494329 70.054453 
L 119.69734 69.931187 
L 119.90035 69.462178 
L 120.712393 68.907601 
L 121.524435 68.71983 
L 123.554541 68.381148 
L 124.366583 68.095602 
L 124.772604 68.836155 
L 125.178626 69.025123 
L 125.787657 68.934648 
L 127.411742 68.281219 
L 130.456901 66.96 
L 131.065933 71.467463 
L 131.471954 73.027076 
L 131.877975 73.882637 
L 132.283997 74.31718 
L 132.690018 74.500642 
L 133.29905 74.517397 
L 134.314103 74.248007 
L 142.231516 71.537474 
L 146.291728 70.533874 
L 150.757961 69.668978 
L 155.833226 68.920766 
L 161.720533 68.285767 
L 168.825904 67.756322 
L 172.886116 67.537555 
L 173.089126 67.828965 
L 173.901169 71.276341 
L 176.337296 83.327439 
L 177.352349 86.943678 
L 177.961381 88.178132 
L 178.570412 88.904324 
L 179.585465 89.708664 
L 181.615571 90.949581 
L 185.269762 92.901849 
L 189.126963 94.705481 
L 193.187175 96.353654 
L 197.450398 97.847924 
L 202.322652 99.312514 
L 204.555769 99.912209 
L 205.367811 108.197234 
L 205.976843 112.364579 
L 206.585875 114.914628 
L 206.991896 115.888069 
L 207.397917 116.3785 
L 207.803938 116.45234 
L 208.20996 116.162366 
L 208.615981 115.551901 
L 209.225013 114.111724 
L 210.037055 111.365407 
L 211.052108 106.883435 
L 212.473182 99.282476 
L 213.894256 91.594393 
L 214.706299 89.201479 
L 216.127373 85.940198 
L 217.345436 83.616815 
L 217.954468 82.788899 
L 218.157479 82.848497 
L 220.390595 84.892677 
L 223.029733 86.914238 
L 226.074892 88.957699 
L 229.526072 90.993382 
L 233.180263 92.894429 
L 237.240475 94.758856 
L 237.443485 94.8461 
L 238.052517 98.534742 
L 238.661549 101.217272 
L 239.270581 103.091512 
L 239.879613 104.303108 
L 240.488644 104.975925 
L 240.894666 105.170158 
L 241.300687 105.184639 
L 241.706708 105.035523 
L 242.31574 104.534322 
L 242.924771 103.734529 
L 243.736814 102.264793 
L 244.751867 99.892223 
L 246.172941 95.859752 
L 247.797026 91.099654 
L 248.609068 89.812782 
L 250.233153 87.834902 
L 251.451217 86.650712 
L 252.263259 86.174403 
L 254.902397 88.153838 
L 257.947556 90.110295 
L 261.398736 92.056341 
L 264.037873 93.389647 
L 264.443895 95.002875 
L 265.255937 98.103431 
L 266.067979 100.205414 
L 266.677011 101.242284 
L 267.286043 101.900021 
L 267.895075 102.230326 
L 268.504107 102.270298 
L 269.113138 102.04806 
L 269.72217 101.587309 
L 270.534213 100.640196 
L 271.549266 98.996092 
L 272.767329 96.496666 
L 274.594424 92.119769 
L 275.203456 90.898958 
L 276.015499 89.912591 
L 277.639583 88.36722 
L 278.857647 87.447991 
L 279.669689 87.087767 
L 279.8727 87.061558 
L 280.684742 87.695002 
L 282.511838 88.972419 
L 285.556997 90.84271 
L 289.008177 92.710727 
L 289.414198 92.915612 
L 289.617209 93.361164 
L 290.429251 96.487092 
L 291.241293 98.699057 
L 292.053336 100.161972 
L 292.662368 100.859561 
L 293.271399 101.263467 
L 293.880431 101.403368 
L 294.489463 101.301763 
L 295.098495 100.977921 
L 295.910537 100.231264 
L 296.722579 99.165074 
L 297.737632 97.456704 
L 299.158707 94.55457 
L 300.985802 90.76528 
L 302.000855 89.696696 
L 303.82795 88.169755 
L 304.843003 87.553665 
L 305.655046 87.330948 
L 306.467088 87.952783 
L 308.294183 89.210215 
L 311.542353 91.170981 
L 314.587512 92.798928 
L 316.211597 98.061066 
L 317.023639 99.620919 
L 317.632671 100.395579 
L 318.241703 100.880385 
L 318.850734 101.104657 
L 319.459766 101.090416 
L 320.068798 100.855492 
L 320.88084 100.227674 
L 321.692883 99.277808 
L 322.707936 97.70563 
L 323.925999 95.385957 
L 326.362127 90.567337 
L 327.377179 89.577739 
L 329.204275 88.12344 
L 330.219328 87.567308 
L 330.82836 87.405506 
L 337.73072 91.756793 
L 339.557815 92.717669 
L 339.760826 93.11918 
L 340.572868 96.116217 
L 341.384911 98.264874 
L 342.196953 99.713547 
L 342.805985 100.423583 
L 343.415017 100.854655 
L 344.024048 101.03345 
L 344.63308 100.979955 
L 345.242112 100.711283 
L 346.054154 100.046246 
L 346.866197 99.067538 
L 347.88125 97.471305 
L 349.302324 94.719962 
L 351.33243 90.689525 
L 352.347483 89.676471 
L 354.174578 88.214633 
L 355.189631 87.635403 
L 355.798663 87.449427 
L 356.001674 87.459719 
L 357.016727 88.223848 
L 359.655864 89.95735 
L 363.107044 91.937383 
L 364.731129 92.917168 
L 365.340161 95.292251 
L 366.152203 97.670924 
L 366.964246 99.310001 
L 367.573278 100.141268 
L 368.182309 100.681484 
L 368.791341 100.960927 
L 369.400373 101.001377 
L 370.009405 100.820787 
L 370.618436 100.435192 
L 371.430479 99.630373 
L 372.445532 98.216286 
L 373.663595 96.044292 
L 375.490691 92.200909 
L 376.099723 91.029165 
L 376.911765 90.09737 
L 378.53585 88.710569 
L 379.753913 87.870446 
L 380.565956 87.517403 
L 380.971977 87.436502 
L 382.19004 88.336224 
L 384.626168 89.931141 
L 387.874337 91.805022 
L 389.701433 92.764342 
L 390.310464 95.175926 
L 391.122507 97.58368 
L 391.934549 99.24777 
L 392.746591 100.311088 
L 393.355623 100.776028 
L 393.964655 100.987255 
L 394.573687 100.965235 
L 395.182719 100.726841 
L 395.994761 100.1001 
L 396.806803 99.156577 
L 397.821856 97.598759 
L 399.03992 95.30362 
L 401.476047 90.554292 
L 402.4911 89.579534 
L 404.318195 88.145341 
L 405.333248 87.599381 
L 405.94228 87.442486 
L 413.047651 91.894539 
L 414.671736 92.744117 
L 415.686789 96.367536 
L 416.498831 98.419854 
L 417.310874 99.795525 
L 417.919905 100.46176 
L 418.528937 100.855373 
L 419.137969 101.001257 
L 419.747001 100.918801 
L 420.356033 100.624279 
L 421.168075 99.929562 
L 421.980117 98.9268 
L 422.99517 97.308426 
L 424.416244 94.541884 
L 426.24334 90.842112 
L 427.055382 89.974823 
L 428.882478 88.458652 
L 430.100541 87.701344 
L 430.912584 87.447752 
L 431.521615 87.834065 
L 433.551721 89.243844 
L 436.59688 91.087208 
L 439.642039 92.724849 
L 440.251071 94.901869 
L 441.063113 97.389566 
L 441.875156 99.116964 
L 442.687198 100.231384 
L 443.29623 100.729474 
L 443.905262 100.970979 
L 444.514294 100.976844 
L 445.123325 100.764419 
L 445.732357 100.349624 
L 446.544399 99.510219 
L 447.559452 98.060348 
L 448.777516 95.858197 
L 450.604611 91.99758 
L 451.213643 90.896564 
L 452.025686 90.010725 
L 453.852781 88.487015 
L 455.070845 87.719774 
L 455.882887 87.454454 
L 456.085897 87.503401 
L 457.506972 88.543502 
L 460.34912 90.356348 
L 463.8003 92.287076 
L 464.612343 92.706778 
L 464.815353 93.192182 
L 465.627396 96.142666 
L 466.439438 98.263557 
L 467.25148 99.69404 
L 467.860512 100.394861 
L 468.469544 100.81959 
L 469.078576 100.994077 
L 469.687607 100.937949 
L 470.296639 100.66808 
L 471.108682 100.003163 
L 471.920724 99.02637 
L 472.935777 97.434684 
L 474.356851 94.692795 
L 476.386957 90.682943 
L 477.40201 89.675633 
L 479.229105 88.220737 
L 480.244158 87.645097 
L 480.85319 87.461036 
L 481.056201 87.472525 
L 482.071254 88.235816 
L 484.710392 89.968121 
L 487.958561 91.837694 
L 489.582646 92.690502 
L 489.785656 93.052282 
L 490.597699 96.046925 
L 491.409741 98.196419 
L 492.221784 99.64988 
L 492.830815 100.365421 
L 493.439847 100.803194 
L 494.048879 100.989888 
L 494.657911 100.94501 
L 495.266943 100.685673 
L 496.078985 100.03356 
L 496.891027 99.068017 
L 497.90608 97.48782 
L 498.109091 97.12975 
L 498.109091 97.12975 
" style="fill:none;stroke:#bf00bf;stroke-linecap:square;stroke-width:1.5;"/>
   </g>
   <g id="line2d_30">
    <path clip-path="url(#pac8ac9294d)" d="M 92.290909 218.16 
L 92.49392 218.16 
L 92.899941 250.325581 
L 93.102951 255.052769 
L 93.305962 257.103411 
L 93.711983 258.477766 
L 94.118004 258.908 
L 95.742089 259.906334 
L 97.569185 261.060725 
L 97.975206 241.493758 
L 98.381227 230.626971 
L 98.787248 225.142116 
L 99.193269 222.593743 
L 99.599291 221.644356 
L 99.802301 221.525159 
L 100.005312 221.561182 
L 100.411333 221.942588 
L 101.020365 222.932665 
L 103.050471 227.020425 
L 105.283587 231.226785 
L 107.313693 234.598646 
L 109.54681 237.86244 
L 111.779926 240.71826 
L 114.013043 243.218763 
L 116.44917 245.594564 
L 117.667234 246.660395 
L 117.870244 252.259659 
L 118.276265 284.245128 
L 119.088308 364.212272 
L 119.291318 364.180917 
L 119.494329 366.265547 
L 119.69734 366.388813 
L 119.90035 366.857822 
L 120.712393 367.412399 
L 121.524435 367.60017 
L 123.554541 367.938852 
L 124.366583 368.224398 
L 124.772604 367.483845 
L 125.178626 367.294877 
L 125.787657 367.385352 
L 127.411742 368.038781 
L 130.456901 369.36 
L 131.065933 364.852537 
L 131.471954 363.292924 
L 131.877975 362.437363 
L 132.283997 362.00282 
L 132.690018 361.819358 
L 133.29905 361.802603 
L 134.314103 362.071993 
L 142.231516 364.782526 
L 146.291728 365.786126 
L 150.757961 366.651022 
L 155.833226 367.399234 
L 161.720533 368.034233 
L 168.825904 368.563678 
L 172.886116 368.782445 
L 173.089126 368.491035 
L 173.901169 365.043659 
L 176.337296 352.992561 
L 177.352349 349.376322 
L 177.961381 348.141868 
L 178.570412 347.415676 
L 179.585465 346.611336 
L 181.615571 345.370419 
L 185.269762 343.418151 
L 189.126963 341.614519 
L 193.187175 339.966346 
L 197.450398 338.472076 
L 202.322652 337.007486 
L 204.555769 336.407791 
L 205.367811 328.122766 
L 205.976843 323.955421 
L 206.585875 321.405372 
L 206.991896 320.431931 
L 207.397917 319.9415 
L 207.803938 319.86766 
L 208.20996 320.157634 
L 208.615981 320.768099 
L 209.225013 322.208276 
L 210.037055 324.954593 
L 211.052108 329.436565 
L 212.473182 337.037524 
L 213.894256 344.725607 
L 214.706299 347.118521 
L 216.127373 350.379802 
L 217.345436 352.703185 
L 217.954468 353.531101 
L 218.157479 353.471503 
L 220.390595 351.427323 
L 223.029733 349.405762 
L 226.074892 347.362301 
L 229.526072 345.326618 
L 233.180263 343.425571 
L 237.240475 341.561144 
L 237.443485 341.4739 
L 238.052517 337.785258 
L 238.661549 335.102728 
L 239.270581 333.228488 
L 239.879613 332.016892 
L 240.488644 331.344075 
L 240.894666 331.149842 
L 241.300687 331.135361 
L 241.706708 331.284477 
L 242.31574 331.785678 
L 242.924771 332.585471 
L 243.736814 334.055207 
L 244.751867 336.427777 
L 246.172941 340.460248 
L 247.797026 345.220346 
L 248.609068 346.507218 
L 250.233153 348.485098 
L 251.451217 349.669288 
L 252.263259 350.145597 
L 254.902397 348.166162 
L 257.947556 346.209705 
L 261.398736 344.263659 
L 264.037873 342.930353 
L 264.443895 341.317125 
L 265.255937 338.216569 
L 266.067979 336.114586 
L 266.677011 335.077716 
L 267.286043 334.419979 
L 267.895075 334.089674 
L 268.504107 334.049702 
L 269.113138 334.27194 
L 269.72217 334.732691 
L 270.534213 335.679804 
L 271.549266 337.323908 
L 272.767329 339.823334 
L 274.594424 344.200231 
L 275.203456 345.421042 
L 276.015499 346.407409 
L 277.639583 347.95278 
L 278.857647 348.872009 
L 279.669689 349.232233 
L 279.8727 349.258442 
L 280.684742 348.624998 
L 282.511838 347.347581 
L 285.556997 345.47729 
L 289.008177 343.609273 
L 289.414198 343.404388 
L 289.617209 342.958836 
L 290.429251 339.832908 
L 291.241293 337.620943 
L 292.053336 336.158028 
L 292.662368 335.460439 
L 293.271399 335.056533 
L 293.880431 334.916632 
L 294.489463 335.018237 
L 295.098495 335.342079 
L 295.910537 336.088736 
L 296.722579 337.154926 
L 297.737632 338.863296 
L 299.158707 341.76543 
L 300.985802 345.55472 
L 302.000855 346.623304 
L 303.82795 348.150245 
L 304.843003 348.766335 
L 305.655046 348.989052 
L 306.467088 348.367217 
L 308.294183 347.109785 
L 311.542353 345.149019 
L 314.587512 343.521072 
L 316.211597 338.258934 
L 317.023639 336.699081 
L 317.632671 335.924421 
L 318.241703 335.439615 
L 318.850734 335.215343 
L 319.459766 335.229584 
L 320.068798 335.464508 
L 320.88084 336.092326 
L 321.692883 337.042192 
L 322.707936 338.61437 
L 323.925999 340.934043 
L 326.362127 345.752663 
L 327.377179 346.742261 
L 329.204275 348.19656 
L 330.219328 348.752692 
L 330.82836 348.914494 
L 337.73072 344.563207 
L 339.557815 343.602331 
L 339.760826 343.20082 
L 340.572868 340.203783 
L 341.384911 338.055126 
L 342.196953 336.606453 
L 342.805985 335.896417 
L 343.415017 335.465345 
L 344.024048 335.28655 
L 344.63308 335.340045 
L 345.242112 335.608717 
L 346.054154 336.273754 
L 346.866197 337.252462 
L 347.88125 338.848695 
L 349.302324 341.600038 
L 351.33243 345.630475 
L 352.347483 346.643529 
L 354.174578 348.105367 
L 355.189631 348.684597 
L 355.798663 348.870573 
L 356.001674 348.860281 
L 357.016727 348.096152 
L 359.655864 346.36265 
L 363.107044 344.382617 
L 364.731129 343.402832 
L 365.340161 341.027749 
L 366.152203 338.649076 
L 366.964246 337.009999 
L 367.573278 336.178732 
L 368.182309 335.638516 
L 368.791341 335.359073 
L 369.400373 335.318623 
L 370.009405 335.499213 
L 370.618436 335.884808 
L 371.430479 336.689627 
L 372.445532 338.103714 
L 373.663595 340.275708 
L 375.490691 344.119091 
L 376.099723 345.290835 
L 376.911765 346.22263 
L 378.53585 347.609431 
L 379.753913 348.449554 
L 380.565956 348.802597 
L 380.971977 348.883498 
L 382.19004 347.983776 
L 384.626168 346.388859 
L 387.874337 344.514978 
L 389.701433 343.555658 
L 390.310464 341.144074 
L 391.122507 338.73632 
L 391.934549 337.07223 
L 392.746591 336.008912 
L 393.355623 335.543972 
L 393.964655 335.332745 
L 394.573687 335.354765 
L 395.182719 335.593159 
L 395.994761 336.2199 
L 396.806803 337.163423 
L 397.821856 338.721241 
L 399.03992 341.01638 
L 401.476047 345.765708 
L 402.4911 346.740466 
L 404.318195 348.174659 
L 405.333248 348.720619 
L 405.94228 348.877514 
L 413.047651 344.425461 
L 414.671736 343.575883 
L 415.686789 339.952464 
L 416.498831 337.900146 
L 417.310874 336.524475 
L 417.919905 335.85824 
L 418.528937 335.464627 
L 419.137969 335.318743 
L 419.747001 335.401199 
L 420.356033 335.695721 
L 421.168075 336.390438 
L 421.980117 337.3932 
L 422.99517 339.011574 
L 424.416244 341.778116 
L 426.24334 345.477888 
L 427.055382 346.345177 
L 428.882478 347.861348 
L 430.100541 348.618656 
L 430.912584 348.872248 
L 431.521615 348.485935 
L 433.551721 347.076156 
L 436.59688 345.232792 
L 439.642039 343.595151 
L 440.251071 341.418131 
L 441.063113 338.930434 
L 441.875156 337.203036 
L 442.687198 336.088616 
L 443.29623 335.590526 
L 443.905262 335.349021 
L 444.514294 335.343156 
L 445.123325 335.555581 
L 445.732357 335.970376 
L 446.544399 336.809781 
L 447.559452 338.259652 
L 448.777516 340.461803 
L 450.604611 344.32242 
L 451.213643 345.423436 
L 452.025686 346.309275 
L 453.852781 347.832985 
L 455.070845 348.600226 
L 455.882887 348.865546 
L 456.085897 348.816599 
L 457.506972 347.776498 
L 460.34912 345.963652 
L 463.8003 344.032924 
L 464.612343 343.613222 
L 464.815353 343.127818 
L 465.627396 340.177334 
L 466.439438 338.056443 
L 467.25148 336.62596 
L 467.860512 335.925139 
L 468.469544 335.50041 
L 469.078576 335.325923 
L 469.687607 335.382051 
L 470.296639 335.65192 
L 471.108682 336.316837 
L 471.920724 337.29363 
L 472.935777 338.885316 
L 474.356851 341.627205 
L 476.386957 345.637057 
L 477.40201 346.644367 
L 479.229105 348.099263 
L 480.244158 348.674903 
L 480.85319 348.858964 
L 481.056201 348.847475 
L 482.071254 348.084184 
L 484.710392 346.351879 
L 487.958561 344.482306 
L 489.582646 343.629498 
L 489.785656 343.267718 
L 490.597699 340.273075 
L 491.409741 338.123581 
L 492.221784 336.67012 
L 492.830815 335.954579 
L 493.439847 335.516806 
L 494.048879 335.330112 
L 494.657911 335.37499 
L 495.266943 335.634327 
L 496.078985 336.28644 
L 496.891027 337.251983 
L 497.90608 338.83218 
L 498.109091 339.19025 
L 498.109091 339.19025 
" style="fill:none;stroke:#00bfbf;stroke-linecap:square;stroke-width:1.5;"/>
   </g>
   <g id="line2d_31">
    <path clip-path="url(#pac8ac9294d)" d="M 92.290909 218.16 
L 92.49392 218.16 
L 92.899941 250.325581 
L 93.102951 255.052769 
L 93.305962 257.103411 
L 93.711983 258.477766 
L 94.118004 258.908 
L 95.742089 259.906334 
L 97.569185 261.060725 
L 97.975206 241.493758 
L 98.381227 230.626971 
L 98.787248 225.142116 
L 99.193269 222.593743 
L 99.599291 221.644356 
L 99.802301 221.525159 
L 100.005312 221.561182 
L 100.411333 221.942588 
L 101.020365 222.932665 
L 103.050471 227.020425 
L 105.283587 231.226785 
L 107.313693 234.598646 
L 109.54681 237.86244 
L 111.779926 240.71826 
L 114.013043 243.218763 
L 116.44917 245.594564 
L 118.073255 246.998957 
L 118.479276 245.372685 
L 118.885297 243.275968 
L 119.088308 239.830027 
L 119.291318 233.168043 
L 119.494329 232.36119 
L 119.69734 230.960148 
L 120.306371 229.82646 
L 120.712393 229.543188 
L 121.321424 229.440506 
L 122.539488 229.589981 
L 123.960562 229.706186 
L 124.366583 229.6862 
L 124.772604 228.731667 
L 125.178626 228.333985 
L 125.787657 228.12922 
L 127.005721 228.082188 
L 130.456901 228.204975 
L 131.065933 223.498491 
L 131.471954 221.80891 
L 131.877975 220.831519 
L 132.283997 220.297766 
L 132.690018 220.040703 
L 133.29905 219.955853 
L 134.111092 220.122561 
L 135.735177 220.754329 
L 139.998399 222.434096 
L 143.449579 223.538463 
L 147.306781 224.539549 
L 151.570003 225.416293 
L 156.442257 226.188081 
L 162.126554 226.854435 
L 168.825904 227.406379 
L 172.480095 227.629335 
L 172.683105 229.421358 
L 175.322243 279.374569 
L 176.134285 289.864139 
L 176.743317 294.858563 
L 176.946328 295.831166 
L 177.149338 296.082246 
L 178.164391 295.947372 
L 179.991487 295.900937 
L 182.224603 295.761635 
L 184.45772 295.389204 
L 186.893847 294.750136 
L 189.735995 293.75647 
L 192.984165 292.372899 
L 197.247387 290.290424 
L 204.352758 286.521359 
L 204.758779 286.303549 
L 204.96179 286.744075 
L 205.164801 286.825215 
L 205.570822 286.640077 
L 206.179854 285.897131 
L 206.788885 284.807364 
L 207.600928 282.818236 
L 208.41297 280.165386 
L 209.428023 275.922765 
L 210.646087 269.662532 
L 212.473182 258.787606 
L 214.503288 246.810707 
L 215.924362 239.543644 
L 216.736405 236.465107 
L 217.345436 235.100207 
L 217.751458 234.780553 
L 217.954468 234.825551 
L 218.157479 235.018827 
L 218.5635 236.151916 
L 220.999627 244.025736 
L 222.623712 248.479704 
L 224.450807 252.818544 
L 226.277903 256.543927 
L 228.104998 259.740464 
L 229.932093 262.478044 
L 231.759189 264.815429 
L 233.586284 266.802404 
L 235.413379 268.481333 
L 237.443485 270.030415 
L 237.646496 270.16864 
L 237.849507 270.641479 
L 238.458538 271.093972 
L 239.06757 271.247037 
L 239.676602 271.190909 
L 240.285634 270.920921 
L 240.894666 270.41972 
L 241.706708 269.378063 
L 242.51875 267.919336 
L 243.533803 265.566513 
L 244.751867 262.122847 
L 246.781973 255.570964 
L 248.609068 249.90899 
L 250.030142 246.134181 
L 250.842185 244.644219 
L 251.248206 244.206326 
L 251.654227 244.026813 
L 252.060248 244.145531 
L 252.466269 244.599221 
L 253.684333 247.712463 
L 255.511428 252.050945 
L 257.338524 255.775011 
L 259.165619 258.968077 
L 260.992715 261.701349 
L 262.81981 264.034067 
L 265.458948 267.037686 
L 266.27099 267.432376 
L 266.880022 267.523449 
L 267.489054 267.422443 
L 268.098085 267.119305 
L 268.910128 266.398259 
L 269.72217 265.329795 
L 270.737223 263.556202 
L 271.955287 260.912088 
L 273.782382 256.326596 
L 276.015499 250.840426 
L 277.436573 247.896884 
L 278.248615 246.755776 
L 278.857647 246.344691 
L 279.263668 246.341818 
L 279.669689 246.591342 
L 280.075711 247.129523 
L 282.917859 253.623722 
L 284.744954 257.101137 
L 286.57205 260.080582 
L 288.399145 262.627758 
L 291.038283 265.828603 
L 291.850325 266.287918 
L 292.459357 266.436077 
L 293.068389 266.400413 
L 293.677421 266.173149 
L 294.489463 265.570941 
L 295.301505 264.641181 
L 296.316558 263.065173 
L 297.534622 260.681713 
L 299.361717 256.496895 
L 301.594834 251.418818 
L 303.015908 248.655268 
L 303.82795 247.528163 
L 304.436982 247.06801 
L 304.843003 246.999436 
L 305.249025 247.154416 
L 305.655046 247.55892 
L 306.061067 248.343274 
L 308.903215 254.606139 
L 310.730311 257.936832 
L 312.557406 260.789181 
L 314.384501 263.225658 
L 314.993533 264.100367 
L 315.602565 264.905425 
L 316.414607 265.59715 
L 317.22665 266.005125 
L 317.835681 266.111875 
L 318.444713 266.034206 
L 319.053745 265.767329 
L 319.865787 265.120123 
L 320.67783 264.157572 
L 321.692883 262.561219 
L 322.910946 260.186495 
L 324.941052 255.6095 
L 326.971158 251.186049 
L 328.189222 248.893064 
L 329.001264 247.770267 
L 329.610296 247.294676 
L 330.016317 247.205278 
L 330.422338 247.330459 
L 330.82836 247.695829 
L 331.234381 248.399043 
L 334.076529 254.637375 
L 335.903625 257.961844 
L 337.73072 260.808569 
L 339.557815 263.240139 
L 339.963836 263.803452 
L 340.369858 264.448503 
L 341.1819 265.264811 
L 341.993942 265.781092 
L 342.805985 266.003928 
L 343.415017 265.960246 
L 344.024048 265.728674 
L 344.836091 265.129219 
L 345.648133 264.2137 
L 346.663186 262.672397 
L 347.88125 260.3544 
L 349.708345 256.306371 
L 351.941462 251.424922 
L 353.362536 248.784757 
L 354.174578 247.731013 
L 354.78361 247.322082 
L 355.189631 247.283905 
L 355.595652 247.464855 
L 356.001674 247.889823 
L 356.407695 248.686025 
L 359.046833 254.479044 
L 360.873928 257.825414 
L 362.701023 260.691287 
L 364.528119 263.139491 
L 364.93414 263.665107 
L 365.340161 264.348335 
L 366.152203 265.187142 
L 366.964246 265.721733 
L 367.776288 265.965273 
L 368.38532 265.938226 
L 368.994352 265.723887 
L 369.806394 265.147409 
L 370.618436 264.25415 
L 371.633489 262.738458 
L 372.851553 260.445952 
L 374.678648 256.421619 
L 376.911765 251.540169 
L 378.332839 248.884567 
L 379.144882 247.802699 
L 379.753913 247.362173 
L 380.159935 247.297668 
L 380.565956 247.448339 
L 380.971977 247.83932 
L 381.377998 248.585258 
L 384.423157 255.181181 
L 386.250252 258.427024 
L 388.077348 261.205653 
L 390.716486 264.767678 
L 391.528528 265.454138 
L 392.34057 265.860556 
L 392.949602 265.96623 
L 393.558634 265.88856 
L 394.167666 265.622881 
L 394.979708 264.980342 
L 395.79175 264.026048 
L 396.806803 262.445373 
L 398.024867 260.09602 
L 400.054973 255.573119 
L 401.882068 251.616283 
L 403.303142 248.947157 
L 404.115185 247.844825 
L 404.724217 247.381919 
L 405.130238 247.299343 
L 405.536259 247.429191 
L 405.94228 247.797074 
L 406.348301 248.498972 
L 409.19045 254.715284 
L 411.017545 258.027666 
L 412.844641 260.864098 
L 414.671736 263.286573 
L 415.077757 263.941438 
L 415.686789 264.727348 
L 416.498831 265.427091 
L 417.310874 265.846554 
L 417.919905 265.962879 
L 418.528937 265.896459 
L 419.137969 265.642268 
L 419.950011 265.014569 
L 420.762054 264.074038 
L 421.777107 262.508083 
L 422.99517 260.172014 
L 425.025276 255.65761 
L 427.055382 251.282268 
L 428.476456 248.686982 
L 429.288499 247.683622 
L 429.897531 247.324954 
L 430.303552 247.325911 
L 430.709573 247.550064 
L 431.115594 248.021705 
L 431.724626 249.347352 
L 433.551721 253.415247 
L 435.378817 256.913007 
L 437.205912 259.910283 
L 439.033007 262.472778 
L 441.266124 265.248655 
L 442.078166 265.751891 
L 442.890209 265.960366 
L 443.499241 265.905554 
L 444.108272 265.663092 
L 444.920315 265.050472 
L 445.732357 264.124063 
L 446.74741 262.573186 
L 447.965474 260.250402 
L 449.792569 256.209434 
L 452.025686 251.358502 
L 453.44676 248.746222 
L 454.258802 247.720242 
L 454.867834 247.337879 
L 455.273855 247.319688 
L 455.679876 247.522419 
L 456.085897 247.970364 
L 456.694929 249.261186 
L 458.522025 253.340929 
L 460.34912 256.84922 
L 462.176215 259.855711 
L 464.003311 262.426224 
L 466.236427 265.219454 
L 467.04847 265.734538 
L 467.860512 265.956417 
L 468.469544 265.912137 
L 469.078576 265.680445 
L 469.890618 265.081947 
L 470.70266 264.168462 
L 471.717713 262.631708 
L 472.935777 260.321489 
L 474.762872 256.288899 
L 476.995989 251.428751 
L 478.417063 248.801512 
L 479.229105 247.754948 
L 479.838137 247.350684 
L 480.244158 247.31514 
L 480.65018 247.498005 
L 481.056201 247.92417 
L 481.462222 248.720611 
L 484.10136 254.506689 
L 485.928455 257.848751 
L 487.755551 260.711033 
L 489.582646 263.156007 
L 489.988667 263.712139 
L 490.394688 264.366885 
L 491.206731 265.192647 
L 492.018773 265.718501 
L 492.830815 265.952228 
L 493.439847 265.917522 
L 494.048879 265.695524 
L 494.860921 265.109472 
L 495.672964 264.207836 
L 496.688017 262.683647 
L 497.90608 260.384797 
L 498.109091 259.96318 
L 498.109091 259.96318 
" style="fill:none;stroke:#ff0000;stroke-linecap:square;stroke-width:1.5;"/>
   </g>
   <g id="line2d_32">
    <path clip-path="url(#pac8ac9294d)" d="M 92.290909 218.16 
L 92.49392 218.16 
L 92.899941 185.994419 
L 93.102951 181.267231 
L 93.305962 179.216589 
L 93.711983 177.842234 
L 94.118004 177.412 
L 95.742089 176.413666 
L 97.569185 175.259275 
L 97.975206 194.826242 
L 98.381227 205.693029 
L 98.787248 211.177884 
L 99.193269 213.726257 
L 99.599291 214.675644 
L 99.802301 214.794841 
L 100.005312 214.758818 
L 100.411333 214.377412 
L 101.020365 213.387335 
L 103.050471 209.299575 
L 105.283587 205.093215 
L 107.313693 201.721354 
L 109.54681 198.45756 
L 111.779926 195.60174 
L 114.013043 193.101237 
L 116.44917 190.725436 
L 118.073255 189.321043 
L 118.479276 190.947315 
L 118.885297 193.044032 
L 119.088308 196.489973 
L 119.291318 203.151957 
L 119.494329 203.95881 
L 119.69734 205.359852 
L 120.306371 206.49354 
L 120.712393 206.776812 
L 121.321424 206.879494 
L 122.539488 206.730019 
L 123.960562 206.613814 
L 124.366583 206.6338 
L 124.772604 207.588333 
L 125.178626 207.986015 
L 125.787657 208.19078 
L 127.005721 208.237812 
L 130.456901 208.115025 
L 131.065933 212.821509 
L 131.471954 214.51109 
L 131.877975 215.488481 
L 132.283997 216.022234 
L 132.690018 216.279297 
L 133.29905 216.364147 
L 134.111092 216.197439 
L 135.735177 215.565671 
L 139.998399 213.885904 
L 143.449579 212.781537 
L 147.306781 211.780451 
L 151.570003 210.903707 
L 156.442257 210.131919 
L 162.126554 209.465565 
L 168.825904 208.913621 
L 172.480095 208.690665 
L 172.683105 206.898642 
L 175.322243 156.945431 
L 176.134285 146.455861 
L 176.743317 141.461437 
L 176.946328 140.488834 
L 177.149338 140.237754 
L 178.164391 140.372628 
L 179.991487 140.419063 
L 182.224603 140.558365 
L 184.45772 140.930796 
L 186.893847 141.569864 
L 189.735995 142.56353 
L 192.984165 143.947101 
L 197.247387 146.029576 
L 204.352758 149.798641 
L 204.758779 150.016451 
L 204.96179 149.575925 
L 205.164801 149.494785 
L 205.570822 149.679923 
L 206.179854 150.422869 
L 206.788885 151.512636 
L 207.600928 153.501764 
L 208.41297 156.154614 
L 209.428023 160.397235 
L 210.646087 166.657468 
L 212.473182 177.532394 
L 214.503288 189.509293 
L 215.924362 196.776356 
L 216.736405 199.854893 
L 217.345436 201.219793 
L 217.751458 201.539447 
L 217.954468 201.494449 
L 218.157479 201.301173 
L 218.5635 200.168084 
L 220.999627 192.294264 
L 222.623712 187.840296 
L 224.450807 183.501456 
L 226.277903 179.776073 
L 228.104998 176.579536 
L 229.932093 173.841956 
L 231.759189 171.504571 
L 233.586284 169.517596 
L 235.413379 167.838667 
L 237.443485 166.289585 
L 237.646496 166.15136 
L 237.849507 165.678521 
L 238.458538 165.226028 
L 239.06757 165.072963 
L 239.676602 165.129091 
L 240.285634 165.399079 
L 240.894666 165.90028 
L 241.706708 166.941937 
L 242.51875 168.400664 
L 243.533803 170.753487 
L 244.751867 174.197153 
L 246.781973 180.749036 
L 248.609068 186.41101 
L 250.030142 190.185819 
L 250.842185 191.675781 
L 251.248206 192.113674 
L 251.654227 192.293187 
L 252.060248 192.174469 
L 252.466269 191.720779 
L 253.684333 188.607537 
L 255.511428 184.269055 
L 257.338524 180.544989 
L 259.165619 177.351923 
L 260.992715 174.618651 
L 262.81981 172.285933 
L 265.458948 169.282314 
L 266.27099 168.887624 
L 266.880022 168.796551 
L 267.489054 168.897557 
L 268.098085 169.200695 
L 268.910128 169.921741 
L 269.72217 170.990205 
L 270.737223 172.763798 
L 271.955287 175.407912 
L 273.782382 179.993404 
L 276.015499 185.479574 
L 277.436573 188.423116 
L 278.248615 189.564224 
L 278.857647 189.975309 
L 279.263668 189.978182 
L 279.669689 189.728658 
L 280.075711 189.190477 
L 282.917859 182.696278 
L 284.744954 179.218863 
L 286.57205 176.239418 
L 288.399145 173.692242 
L 291.038283 170.491397 
L 291.850325 170.032082 
L 292.459357 169.883923 
L 293.068389 169.919587 
L 293.677421 170.146851 
L 294.489463 170.749059 
L 295.301505 171.678819 
L 296.316558 173.254827 
L 297.534622 175.638287 
L 299.361717 179.823105 
L 301.594834 184.901182 
L 303.015908 187.664732 
L 303.82795 188.791837 
L 304.436982 189.25199 
L 304.843003 189.320564 
L 305.249025 189.165584 
L 305.655046 188.76108 
L 306.061067 187.976726 
L 308.903215 181.713861 
L 310.730311 178.383168 
L 312.557406 175.530819 
L 314.384501 173.094342 
L 314.993533 172.219633 
L 315.602565 171.414575 
L 316.414607 170.72285 
L 317.22665 170.314875 
L 317.835681 170.208125 
L 318.444713 170.285794 
L 319.053745 170.552671 
L 319.865787 171.199877 
L 320.67783 172.162428 
L 321.692883 173.758781 
L 322.910946 176.133505 
L 324.941052 180.7105 
L 326.971158 185.133951 
L 328.189222 187.426936 
L 329.001264 188.549733 
L 329.610296 189.025324 
L 330.016317 189.114722 
L 330.422338 188.989541 
L 330.82836 188.624171 
L 331.234381 187.920957 
L 334.076529 181.682625 
L 335.903625 178.358156 
L 337.73072 175.511431 
L 339.557815 173.079861 
L 339.963836 172.516548 
L 340.369858 171.871497 
L 341.1819 171.055189 
L 341.993942 170.538908 
L 342.805985 170.316072 
L 343.415017 170.359754 
L 344.024048 170.591326 
L 344.836091 171.190781 
L 345.648133 172.1063 
L 346.663186 173.647603 
L 347.88125 175.9656 
L 349.708345 180.013629 
L 351.941462 184.895078 
L 353.362536 187.535243 
L 354.174578 188.588987 
L 354.78361 188.997918 
L 355.189631 189.036095 
L 355.595652 188.855145 
L 356.001674 188.430177 
L 356.407695 187.633975 
L 359.046833 181.840956 
L 360.873928 178.494586 
L 362.701023 175.628713 
L 364.528119 173.180509 
L 364.93414 172.654893 
L 365.340161 171.971665 
L 366.152203 171.132858 
L 366.964246 170.598267 
L 367.776288 170.354727 
L 368.38532 170.381774 
L 368.994352 170.596113 
L 369.806394 171.172591 
L 370.618436 172.06585 
L 371.633489 173.581542 
L 372.851553 175.874048 
L 374.678648 179.898381 
L 376.911765 184.779831 
L 378.332839 187.435433 
L 379.144882 188.517301 
L 379.753913 188.957827 
L 380.159935 189.022332 
L 380.565956 188.871661 
L 380.971977 188.48068 
L 381.377998 187.734742 
L 384.423157 181.138819 
L 386.250252 177.892976 
L 388.077348 175.114347 
L 390.716486 171.552322 
L 391.528528 170.865862 
L 392.34057 170.459444 
L 392.949602 170.35377 
L 393.558634 170.43144 
L 394.167666 170.697119 
L 394.979708 171.339658 
L 395.79175 172.293952 
L 396.806803 173.874627 
L 398.024867 176.22398 
L 400.054973 180.746881 
L 401.882068 184.703717 
L 403.303142 187.372843 
L 404.115185 188.475175 
L 404.724217 188.938081 
L 405.130238 189.020657 
L 405.536259 188.890809 
L 405.94228 188.522926 
L 406.348301 187.821028 
L 409.19045 181.604716 
L 411.017545 178.292334 
L 412.844641 175.455902 
L 414.671736 173.033427 
L 415.077757 172.378562 
L 415.686789 171.592652 
L 416.498831 170.892909 
L 417.310874 170.473446 
L 417.919905 170.357121 
L 418.528937 170.423541 
L 419.137969 170.677732 
L 419.950011 171.305431 
L 420.762054 172.245962 
L 421.777107 173.811917 
L 422.99517 176.147986 
L 425.025276 180.66239 
L 427.055382 185.037732 
L 428.476456 187.633018 
L 429.288499 188.636378 
L 429.897531 188.995046 
L 430.303552 188.994089 
L 430.709573 188.769936 
L 431.115594 188.298295 
L 431.724626 186.972648 
L 433.551721 182.904753 
L 435.378817 179.406993 
L 437.205912 176.409717 
L 439.033007 173.847222 
L 441.266124 171.071345 
L 442.078166 170.568109 
L 442.890209 170.359634 
L 443.499241 170.414446 
L 444.108272 170.656908 
L 444.920315 171.269528 
L 445.732357 172.195937 
L 446.74741 173.746814 
L 447.965474 176.069598 
L 449.792569 180.110566 
L 452.025686 184.961498 
L 453.44676 187.573778 
L 454.258802 188.599758 
L 454.867834 188.982121 
L 455.273855 189.000312 
L 455.679876 188.797581 
L 456.085897 188.349636 
L 456.694929 187.058814 
L 458.522025 182.979071 
L 460.34912 179.47078 
L 462.176215 176.464289 
L 464.003311 173.893776 
L 466.236427 171.100546 
L 467.04847 170.585462 
L 467.860512 170.363583 
L 468.469544 170.407863 
L 469.078576 170.639555 
L 469.890618 171.238053 
L 470.70266 172.151538 
L 471.717713 173.688292 
L 472.935777 175.998511 
L 474.762872 180.031101 
L 476.995989 184.891249 
L 478.417063 187.518488 
L 479.229105 188.565052 
L 479.838137 188.969316 
L 480.244158 189.00486 
L 480.65018 188.821995 
L 481.056201 188.39583 
L 481.462222 187.599389 
L 484.10136 181.813311 
L 485.928455 178.471249 
L 487.755551 175.608967 
L 489.582646 173.163993 
L 489.988667 172.607861 
L 490.394688 171.953115 
L 491.206731 171.127353 
L 492.018773 170.601499 
L 492.830815 170.367772 
L 493.439847 170.402478 
L 494.048879 170.624476 
L 494.860921 171.210528 
L 495.672964 172.112164 
L 496.688017 173.636353 
L 497.90608 175.935203 
L 498.109091 176.35682 
L 498.109091 176.35682 
" style="fill:none;stroke:#008000;stroke-linecap:square;stroke-width:1.5;"/>
   </g>
   <g id="patch_3">
    <path d="M 72 384.48 
L 72 51.84 
" style="fill:none;stroke:#000000;stroke-linecap:square;stroke-linejoin:miter;stroke-width:0.8;"/>
   </g>
   <g id="patch_4">
    <path d="M 518.4 384.48 
L 518.4 51.84 
" style="fill:none;stroke:#000000;stroke-linecap:square;stroke-linejoin:miter;stroke-width:0.8;"/>
   </g>
   <g id="patch_5">
    <path d="M 72 384.48 
L 518.4 384.48 
" style="fill:none;stroke:#000000;stroke-linecap:square;stroke-linejoin:miter;stroke-width:0.8;"/>
   </g>
   <g id="patch_6">
    <path d="M 72 51.84 
L 518.4 51.84 
" style="fill:none;stroke:#000000;stroke-linecap:square;stroke-linejoin:miter;stroke-width:0.8;"/>
   </g>
   <g id="legend_1">
    <g id="patch_7">
     <path d="M 433.446875 249.5725 
L 511.4 249.5725 
Q 513.4 249.5725 513.4 247.5725 
L 513.4 188.7475 
Q 513.4 186.7475 511.4 186.7475 
L 433.446875 186.7475 
Q 431.446875 186.7475 431.446875 188.7475 
L 431.446875 247.5725 
Q 431.446875 249.5725 433.446875 249.5725 
z
" style="fill:#ffffff;opacity:0.8;stroke:#cccccc;stroke-linejoin:miter;"/>
    </g>
    <g id="line2d_33">
     <path d="M 435.446875 194.845937 
L 455.446875 194.845937 
" style="fill:none;stroke:#bf00bf;stroke-linecap:square;stroke-width:1.5;"/>
    </g>
    <g id="line2d_34"/>
    <g id="text_17">
     <text style="font-family:DejaVu Sans;font-size:10px;font-style:normal;font-weight:400;text-anchor:start;" transform="rotate(-0, 463.446875, 198.345937)" x="463.446875" y="198.345937">$i_{12}$</text>
    </g>
    <g id="line2d_35">
     <path d="M 435.446875 209.802188 
L 455.446875 209.802188 
" style="fill:none;stroke:#00bfbf;stroke-linecap:square;stroke-width:1.5;"/>
    </g>
    <g id="line2d_36"/>
    <g id="text_18">
     <text style="font-family:DejaVu Sans;font-size:10px;font-style:normal;font-weight:400;text-anchor:start;" transform="rotate(-0, 463.446875, 213.302188)" x="463.446875" y="213.302188">$i_{21}$</text>
    </g>
    <g id="line2d_37">
     <path d="M 435.446875 224.758437 
L 455.446875 224.758437 
" style="fill:none;stroke:#ff0000;stroke-linecap:square;stroke-width:1.5;"/>
    </g>
    <g id="line2d_38"/>
    <g id="text_19">
     <text style="font-family:DejaVu Sans;font-size:10px;font-style:normal;font-weight:400;text-anchor:start;" transform="rotate(-0, 463.446875, 228.258437)" x="463.446875" y="228.258437">$i_{23}$</text>
    </g>
    <g id="line2d_39">
     <path d="M 435.446875 239.714687 
L 455.446875 239.714687 
" style="fill:none;stroke:#008000;stroke-linecap:square;stroke-width:1.5;"/>
    </g>
    <g id="line2d_40"/>
    <g id="text_20">
     <text style="font-family:DejaVu Sans;font-size:10px;font-style:normal;font-weight:400;text-anchor:start;" transform="rotate(-0, 463.446875, 243.214687)" x="463.446875" y="243.214687">$i_{32}$</text>
    </g>
   </g>
  </g>
 </g>
 <defs>
  <clipPath id="pac8ac9294d">
   <rect height="332.64" width="446.4" x="72" y="51.84"/>
  </clipPath>
 </defs>
</svg>
