<?xml version="1.0" encoding="utf-8" standalone="no"?>
<!DOCTYPE svg PUBLIC "-//W3C//DTD SVG 1.1//EN"
  "http://www.w3.org/Graphics/SVG/1.1/DTD/svg11.dtd">
<!-- Created with matplotlib (http://matplotlib.org/) -->
<svg height="432pt" version="1.1" viewBox="0 0 576 432" width="576pt" xmlns="http://www.w3.org/2000/svg" xmlns:xlink="http://www.w3.org/1999/xlink">
 <defs>
  <style type="text/css">
*{stroke-linecap:butt;stroke-linejoin:round;}
  </style>
 </defs>
 <g id="figure_1">
  <g id="patch_1">
   <path d="M 0 432 
L 576 432 
L 576 0 
L 0 0 
z
" style="fill:#ffffff;"/>
  </g>
  <g id="axes_1">
   <g id="patch_2">
    <path d="M 72 384.48 
L 518.4 384.48 
L 518.4 51.84 
L 72 51.84 
z
" style="fill:#ffffff;"/>
   </g>
   <g id="matplotlib.axis_1">
    <g id="xtick_1">
     <g id="line2d_1">
      <path clip-path="url(#p9b06637bd9)" d="M 76.1545 384.48 
L 76.1545 51.84 
" style="fill:none;stroke:#b0b0b0;stroke-dasharray:5.12,1.28,0.8,1.28;stroke-dashoffset:0;stroke-width:0.8;"/>
     </g>
     <g id="line2d_2">
      <defs>
       <path d="M 0 0 
L 0 3.5 
" id="m71f818131c" style="stroke:#000000;stroke-width:0.8;"/>
      </defs>
      <g>
       <use style="stroke:#000000;stroke-width:0.8;" x="76.1545" xlink:href="#m71f818131c" y="384.48"/>
      </g>
     </g>
     <g id="text_1">
      <text style="font-family:DejaVu Sans;font-size:10px;font-style:normal;font-weight:400;text-anchor:middle;" transform="rotate(-0, 76.1545, 399.078438)" x="76.1545" y="399.078438">0</text>
     </g>
    </g>
    <g id="xtick_2">
     <g id="line2d_3">
      <path clip-path="url(#p9b06637bd9)" d="M 162.874065 384.48 
L 162.874065 51.84 
" style="fill:none;stroke:#b0b0b0;stroke-dasharray:5.12,1.28,0.8,1.28;stroke-dashoffset:0;stroke-width:0.8;"/>
     </g>
     <g id="line2d_4">
      <g>
       <use style="stroke:#000000;stroke-width:0.8;" x="162.874065" xlink:href="#m71f818131c" y="384.48"/>
      </g>
     </g>
     <g id="text_2">
      <text style="font-family:DejaVu Sans;font-size:10px;font-style:normal;font-weight:400;text-anchor:middle;" transform="rotate(-0, 162.874065, 399.078438)" x="162.874065" y="399.078438">10</text>
     </g>
    </g>
    <g id="xtick_3">
     <g id="line2d_5">
      <path clip-path="url(#p9b06637bd9)" d="M 249.59363 384.48 
L 249.59363 51.84 
" style="fill:none;stroke:#b0b0b0;stroke-dasharray:5.12,1.28,0.8,1.28;stroke-dashoffset:0;stroke-width:0.8;"/>
     </g>
     <g id="line2d_6">
      <g>
       <use style="stroke:#000000;stroke-width:0.8;" x="249.59363" xlink:href="#m71f818131c" y="384.48"/>
      </g>
     </g>
     <g id="text_3">
      <text style="font-family:DejaVu Sans;font-size:10px;font-style:normal;font-weight:400;text-anchor:middle;" transform="rotate(-0, 249.59363, 399.078438)" x="249.59363" y="399.078438">20</text>
     </g>
    </g>
    <g id="xtick_4">
     <g id="line2d_7">
      <path clip-path="url(#p9b06637bd9)" d="M 336.313195 384.48 
L 336.313195 51.84 
" style="fill:none;stroke:#b0b0b0;stroke-dasharray:5.12,1.28,0.8,1.28;stroke-dashoffset:0;stroke-width:0.8;"/>
     </g>
     <g id="line2d_8">
      <g>
       <use style="stroke:#000000;stroke-width:0.8;" x="336.313195" xlink:href="#m71f818131c" y="384.48"/>
      </g>
     </g>
     <g id="text_4">
      <text style="font-family:DejaVu Sans;font-size:10px;font-style:normal;font-weight:400;text-anchor:middle;" transform="rotate(-0, 336.313195, 399.078438)" x="336.313195" y="399.078438">30</text>
     </g>
    </g>
    <g id="xtick_5">
     <g id="line2d_9">
      <path clip-path="url(#p9b06637bd9)" d="M 423.03276 384.48 
L 423.03276 51.84 
" style="fill:none;stroke:#b0b0b0;stroke-dasharray:5.12,1.28,0.8,1.28;stroke-dashoffset:0;stroke-width:0.8;"/>
     </g>
     <g id="line2d_10">
      <g>
       <use style="stroke:#000000;stroke-width:0.8;" x="423.03276" xlink:href="#m71f818131c" y="384.48"/>
      </g>
     </g>
     <g id="text_5">
      <text style="font-family:DejaVu Sans;font-size:10px;font-style:normal;font-weight:400;text-anchor:middle;" transform="rotate(-0, 423.03276, 399.078438)" x="423.03276" y="399.078438">40</text>
     </g>
    </g>
    <g id="xtick_6">
     <g id="line2d_11">
      <path clip-path="url(#p9b06637bd9)" d="M 509.752325 384.48 
L 509.752325 51.84 
" style="fill:none;stroke:#b0b0b0;stroke-dasharray:5.12,1.28,0.8,1.28;stroke-dashoffset:0;stroke-width:0.8;"/>
     </g>
     <g id="line2d_12">
      <g>
       <use style="stroke:#000000;stroke-width:0.8;" x="509.752325" xlink:href="#m71f818131c" y="384.48"/>
      </g>
     </g>
     <g id="text_6">
      <text style="font-family:DejaVu Sans;font-size:10px;font-style:normal;font-weight:400;text-anchor:middle;" transform="rotate(-0, 509.752325, 399.078438)" x="509.752325" y="399.078438">50</text>
     </g>
    </g>
    <g id="text_7">
     <text style="font-family:DejaVu Sans;font-size:14px;font-style:normal;font-weight:400;text-anchor:middle;" transform="rotate(-0, 295.2, 415.795938)" x="295.2" y="415.795938">Time</text>
    </g>
   </g>
   <g id="matplotlib.axis_2">
    <g id="ytick_1">
     <g id="line2d_13">
      <path clip-path="url(#p9b06637bd9)" d="M 72 364.18067 
L 518.4 364.18067 
" style="fill:none;stroke:#b0b0b0;stroke-dasharray:5.12,1.28,0.8,1.28;stroke-dashoffset:0;stroke-width:0.8;"/>
     </g>
     <g id="line2d_14">
      <defs>
       <path d="M 0 0 
L -3.5 0 
" id="mce2279f83c" style="stroke:#000000;stroke-width:0.8;"/>
      </defs>
      <g>
       <use style="stroke:#000000;stroke-width:0.8;" x="72" xlink:href="#mce2279f83c" y="364.18067"/>
      </g>
     </g>
     <g id="text_8">
      <text style="font-family:DejaVu Sans;font-size:10px;font-style:normal;font-weight:400;text-anchor:end;" transform="rotate(-0, 65, 367.979889)" x="65" y="367.979889">−50</text>
     </g>
    </g>
    <g id="ytick_2">
     <g id="line2d_15">
      <path clip-path="url(#p9b06637bd9)" d="M 72 306.823755 
L 518.4 306.823755 
" style="fill:none;stroke:#b0b0b0;stroke-dasharray:5.12,1.28,0.8,1.28;stroke-dashoffset:0;stroke-width:0.8;"/>
     </g>
     <g id="line2d_16">
      <g>
       <use style="stroke:#000000;stroke-width:0.8;" x="72" xlink:href="#mce2279f83c" y="306.823755"/>
      </g>
     </g>
     <g id="text_9">
      <text style="font-family:DejaVu Sans;font-size:10px;font-style:normal;font-weight:400;text-anchor:end;" transform="rotate(-0, 65, 310.622973)" x="65" y="310.622973">−40</text>
     </g>
    </g>
    <g id="ytick_3">
     <g id="line2d_17">
      <path clip-path="url(#p9b06637bd9)" d="M 72 249.466839 
L 518.4 249.466839 
" style="fill:none;stroke:#b0b0b0;stroke-dasharray:5.12,1.28,0.8,1.28;stroke-dashoffset:0;stroke-width:0.8;"/>
     </g>
     <g id="line2d_18">
      <g>
       <use style="stroke:#000000;stroke-width:0.8;" x="72" xlink:href="#mce2279f83c" y="249.466839"/>
      </g>
     </g>
     <g id="text_10">
      <text style="font-family:DejaVu Sans;font-size:10px;font-style:normal;font-weight:400;text-anchor:end;" transform="rotate(-0, 65, 253.266057)" x="65" y="253.266057">−30</text>
     </g>
    </g>
    <g id="ytick_4">
     <g id="line2d_19">
      <path clip-path="url(#p9b06637bd9)" d="M 72 192.109923 
L 518.4 192.109923 
" style="fill:none;stroke:#b0b0b0;stroke-dasharray:5.12,1.28,0.8,1.28;stroke-dashoffset:0;stroke-width:0.8;"/>
     </g>
     <g id="line2d_20">
      <g>
       <use style="stroke:#000000;stroke-width:0.8;" x="72" xlink:href="#mce2279f83c" y="192.109923"/>
      </g>
     </g>
     <g id="text_11">
      <text style="font-family:DejaVu Sans;font-size:10px;font-style:normal;font-weight:400;text-anchor:end;" transform="rotate(-0, 65, 195.909141)" x="65" y="195.909141">−20</text>
     </g>
    </g>
    <g id="ytick_5">
     <g id="line2d_21">
      <path clip-path="url(#p9b06637bd9)" d="M 72 134.753007 
L 518.4 134.753007 
" style="fill:none;stroke:#b0b0b0;stroke-dasharray:5.12,1.28,0.8,1.28;stroke-dashoffset:0;stroke-width:0.8;"/>
     </g>
     <g id="line2d_22">
      <g>
       <use style="stroke:#000000;stroke-width:0.8;" x="72" xlink:href="#mce2279f83c" y="134.753007"/>
      </g>
     </g>
     <g id="text_12">
      <text style="font-family:DejaVu Sans;font-size:10px;font-style:normal;font-weight:400;text-anchor:end;" transform="rotate(-0, 65, 138.552226)" x="65" y="138.552226">−10</text>
     </g>
    </g>
    <g id="ytick_6">
     <g id="line2d_23">
      <path clip-path="url(#p9b06637bd9)" d="M 72 77.396091 
L 518.4 77.396091 
" style="fill:none;stroke:#b0b0b0;stroke-dasharray:5.12,1.28,0.8,1.28;stroke-dashoffset:0;stroke-width:0.8;"/>
     </g>
     <g id="line2d_24">
      <g>
       <use style="stroke:#000000;stroke-width:0.8;" x="72" xlink:href="#mce2279f83c" y="77.396091"/>
      </g>
     </g>
     <g id="text_13">
      <text style="font-family:DejaVu Sans;font-size:10px;font-style:normal;font-weight:400;text-anchor:end;" transform="rotate(-0, 65, 81.19531)" x="65" y="81.19531">0</text>
     </g>
    </g>
    <g id="text_14">
     <text style="font-family:DejaVu Sans;font-size:14px;font-style:normal;font-weight:400;text-anchor:middle;" transform="rotate(-90, 36.594375, 218.16)" x="36.594375" y="218.16">$\partial \mathcal{L}/ \partial \mu^{\underline{U}}_{m}[V]$</text>
    </g>
   </g>
   <g id="line2d_25">
    <path clip-path="url(#p9b06637bd9)" d="M 97.767611 77.396091 
L 102.144023 220.788381 
L 102.61347 220.687433 
L 103.037002 220.032417 
L 103.450621 218.771138 
L 104.092806 215.83389 
L 104.932781 210.177351 
L 105.570337 204.744504 
L 107.709006 185.447917 
L 108.33146 181.32969 
L 108.966051 178.332792 
L 109.59992 176.498517 
L 110.001507 175.915771 
L 110.435932 175.829162 
L 110.855168 176.217468 
L 111.270546 177.0566 
L 111.902889 179.097933 
L 112.537672 181.989868 
L 113.588431 188.41499 
L 115.256543 201.820449 
L 116.560726 213.470785 
L 118.257459 229.905262 
L 121.436336 259.818041 
L 122.541414 270.171538 
L 125.088228 320.199387 
L 126.155581 336.40329 
L 126.77292 344.091411 
L 127.633034 352.049109 
L 128.897764 360.437558 
L 129.753231 364.898206 
L 129.973155 365.356487 
L 130.413435 365.497012 
L 131.462794 365.487835 
L 136.76149 365.07888 
L 142.756617 365.001448 
L 147.866132 364.992844 
L 149.144312 367.525152 
L 149.986909 368.619522 
L 150.705155 369.148353 
L 151.163104 369.36 
L 152.43272 368.544958 
L 153.910457 367.953035 
L 155.602317 367.580788 
L 157.921089 367.338742 
L 161.95331 367.202806 
L 169.615388 367.200512 
L 173.251137 367.104726 
L 197.912873 365.853772 
L 213.485482 365.479805 
L 234.117603 365.238332 
L 238.182659 365.101823 
L 239.685323 364.613715 
L 241.171608 364.37511 
L 243.059235 364.320048 
L 248.216369 364.5598 
L 252.478668 364.61773 
L 350.118297 364.201319 
L 498.105619 364.18067 
L 498.105619 364.18067 
" style="fill:none;stroke:#bf00bf;stroke-linecap:square;stroke-width:1.5;"/>
   </g>
   <g id="line2d_26">
    <path clip-path="url(#p9b06637bd9)" d="M 92.290909 77.396091 
L 96.661198 220.788381 
L 102.328432 220.788381 
L 102.712038 219.57012 
L 103.140012 217.604498 
L 103.780754 213.683006 
L 104.833553 204.979094 
L 106.948129 184.230803 
L 107.813947 177.961692 
L 108.428569 174.362546 
L 109.065285 171.811884 
L 109.705348 170.337237 
L 110.120063 169.943195 
L 110.318011 169.918532 
L 110.542706 170.004567 
L 110.960018 170.501278 
L 111.374573 171.409812 
L 112.002717 173.487279 
L 112.647554 176.339639 
L 113.693035 182.551393 
L 114.745666 190.202805 
L 117.719878 215.896983 
L 121.126288 246.099414 
L 122.211392 254.732777 
L 122.850958 272.813971 
L 124.13314 299.432742 
L 125.188583 317.770896 
L 126.256736 332.32636 
L 126.886671 339.072107 
L 127.73317 345.96354 
L 129.225252 354.520619 
L 129.870201 357.282928 
L 130.305103 358.107147 
L 130.731166 358.526426 
L 131.148273 358.709968 
L 131.780711 358.752412 
L 133.041745 358.555104 
L 136.019213 358.124927 
L 139.025556 357.956872 
L 145.422708 357.876572 
L 148.832605 357.761284 
L 149.470593 357.427467 
L 150.612756 356.413397 
L 153.380051 353.238118 
L 154.653239 352.385794 
L 156.128138 351.783547 
L 157.820908 351.402697 
L 159.949384 351.167533 
L 163.566796 351.0207 
L 168.860658 351.020126 
L 171.656853 350.996036 
L 174.609703 350.739651 
L 180.374482 350.024984 
L 189.299373 349.036724 
L 198.66769 348.300835 
L 208.057576 347.797241 
L 220.609638 347.361902 
L 235.296827 347.067087 
L 239.562405 347.09634 
L 241.27155 347.408935 
L 245.73706 348.332955 
L 248.323748 348.548617 
L 251.327861 348.580163 
L 269.477118 348.439638 
L 497.992154 348.390312 
L 497.992154 348.390312 
" style="fill:none;stroke:#00bfbf;stroke-linecap:square;stroke-width:1.5;"/>
   </g>
   <g id="line2d_27">
    <path clip-path="url(#p9b06637bd9)" d="M 97.777877 77.396091 
L 102.208295 220.788381 
L 103.249501 165.63225 
L 105.141137 92.998319 
L 105.790382 70.257449 
L 105.998403 68.548787 
L 106.425229 67.293244 
L 106.847096 66.96 
L 107.282484 67.173941 
L 107.916621 67.95801 
L 109.603492 70.311365 
L 110.646243 71.442443 
L 111.906534 72.520753 
L 113.585675 73.709762 
L 116.139482 75.223984 
L 118.467306 76.370549 
L 122.092216 77.860682 
L 122.317171 78.064299 
L 122.751709 79.07206 
L 124.657344 85.251694 
L 125.091993 85.64803 
L 125.292474 85.622793 
L 125.74616 85.130671 
L 126.362527 83.443804 
L 128.279786 76.815065 
L 128.910868 76.992872 
L 130.201238 77.36053 
L 131.475815 77.35422 
L 138.693792 76.940677 
L 147.23437 76.887335 
L 149.568096 76.806462 
L 151.37766 76.417008 
L 154.557908 75.545757 
L 156.659893 75.233162 
L 159.633751 75.030692 
L 164.959602 74.930317 
L 167.497533 75.011764 
L 170.483916 75.487253 
L 174.942575 75.86122 
L 181.3145 76.09581 
L 193.664268 76.314913 
L 224.341495 76.536884 
L 242.218939 76.739354 
L 249.073071 77.096688 
L 257.388451 77.16781 
L 381.611013 77.390929 
L 498.109091 77.396091 
L 498.109091 77.396091 
" style="fill:none;stroke:#ff0000;stroke-linecap:square;stroke-width:1.5;"/>
   </g>
   <g id="line2d_28">
    <path clip-path="url(#p9b06637bd9)" d="M 97.7847 77.396091 
L 102.1544 220.788381 
L 102.335158 220.788381 
L 102.722839 211.130623 
L 103.994938 164.10082 
L 104.818944 131.589773 
L 106.114455 89.852292 
L 106.516692 84.681566 
L 106.94425 82.733152 
L 107.179693 82.508886 
L 107.375637 82.612702 
L 107.61427 82.951682 
L 108.217976 84.736629 
L 110.333108 91.144544 
L 110.944474 92.505623 
L 112.011748 94.287129 
L 113.277493 95.868459 
L 114.534939 97.063204 
L 115.369919 97.706748 
L 117.929869 99.091918 
L 119.411232 99.585187 
L 121.136458 99.90868 
L 121.755637 100.041748 
L 122.436925 100.39392 
L 122.847263 101.044347 
L 123.721388 103.315108 
L 124.130034 104.385961 
L 124.540256 105.093746 
L 124.756667 105.257213 
L 124.967518 105.273846 
L 125.198675 105.13619 
L 125.606881 104.393991 
L 126.058131 103.075356 
L 126.883251 99.243914 
L 127.964951 94.229772 
L 128.365891 93.165228 
L 128.793865 92.767744 
L 129.221133 92.648442 
L 130.084125 92.75742 
L 131.144506 92.860089 
L 132.631672 92.729889 
L 136.429143 92.213103 
L 139.871641 92.016369 
L 146.472621 91.930333 
L 149.892266 91.835121 
L 151.246881 91.492127 
L 152.544475 90.904792 
L 154.213085 90.060498 
L 156.751318 89.164009 
L 159.087449 88.734406 
L 161.844042 88.50039 
L 166.763621 88.374205 
L 167.178569 88.437297 
L 168.031549 88.933434 
L 174.389827 94.22461 
L 177.161147 96.039383 
L 181.84165 98.574558 
L 186.549741 100.618759 
L 189.946381 101.867993 
L 195.659535 103.612216 
L 201.001222 104.898158 
L 206.363417 105.932877 
L 209.765845 106.486371 
L 216.345892 107.363359 
L 223.364842 108.07229 
L 231.474094 108.674538 
L 242.120949 109.384616 
L 250.693313 110.692354 
L 255.995214 111.147768 
L 266.295751 111.767796 
L 274.833385 112.171015 
L 289.54169 112.657976 
L 315.509422 113.126582 
L 351.485143 113.383541 
L 390.905223 113.473017 
L 497.988904 113.509726 
L 497.988904 113.509726 
" style="fill:none;stroke:#008000;stroke-linecap:square;stroke-width:1.5;"/>
   </g>
   <g id="patch_3">
    <path d="M 72 384.48 
L 72 51.84 
" style="fill:none;stroke:#000000;stroke-linecap:square;stroke-linejoin:miter;stroke-width:0.8;"/>
   </g>
   <g id="patch_4">
    <path d="M 518.4 384.48 
L 518.4 51.84 
" style="fill:none;stroke:#000000;stroke-linecap:square;stroke-linejoin:miter;stroke-width:0.8;"/>
   </g>
   <g id="patch_5">
    <path d="M 72 384.48 
L 518.4 384.48 
" style="fill:none;stroke:#000000;stroke-linecap:square;stroke-linejoin:miter;stroke-width:0.8;"/>
   </g>
   <g id="patch_6">
    <path d="M 72 51.84 
L 518.4 51.84 
" style="fill:none;stroke:#000000;stroke-linecap:square;stroke-linejoin:miter;stroke-width:0.8;"/>
   </g>
   <g id="legend_1">
    <g id="patch_7">
     <path d="M 185.067187 249.5725 
L 511.4 249.5725 
Q 513.4 249.5725 513.4 247.5725 
L 513.4 188.7475 
Q 513.4 186.7475 511.4 186.7475 
L 185.067187 186.7475 
Q 183.067187 186.7475 183.067187 188.7475 
L 183.067187 247.5725 
Q 183.067187 249.5725 185.067187 249.5725 
z
" style="fill:#ffffff;opacity:0.8;stroke:#cccccc;stroke-linejoin:miter;"/>
    </g>
    <g id="line2d_29">
     <path d="M 187.067187 194.845937 
L 207.067187 194.845937 
" style="fill:none;stroke:#bf00bf;stroke-linecap:square;stroke-width:1.5;"/>
    </g>
    <g id="line2d_30"/>
    <g id="text_15">
     <text style="font-family:DejaVu Sans;font-size:10px;font-style:normal;font-weight:400;text-anchor:start;" transform="rotate(-0, 215.067187, 198.345937)" x="215.067187" y="198.345937">$\partial \mathcal{L}/ \partial \mu^{\underline{U}}_{1}$</text>
    </g>
    <g id="line2d_31">
     <path d="M 187.067187 209.802188 
L 207.067187 209.802188 
" style="fill:none;stroke:#00bfbf;stroke-linecap:square;stroke-width:1.5;"/>
    </g>
    <g id="line2d_32"/>
    <g id="text_16">
     <text style="font-family:DejaVu Sans;font-size:10px;font-style:normal;font-weight:400;text-anchor:start;" transform="rotate(-0, 215.067187, 213.302188)" x="215.067187" y="213.302188">$\partial \mathcal{L}/ \partial \mu^{\underline{U}}_{2}$</text>
    </g>
    <g id="line2d_33">
     <path d="M 187.067187 224.758437 
L 207.067187 224.758437 
" style="fill:none;stroke:#ff0000;stroke-linecap:square;stroke-width:1.5;"/>
    </g>
    <g id="line2d_34"/>
    <g id="text_17">
     <text style="font-family:DejaVu Sans;font-size:10px;font-style:normal;font-weight:400;text-anchor:start;" transform="rotate(-0, 215.067187, 228.258437)" x="215.067187" y="228.258437">$\partial \mathcal{L}/ \partial \mu^{\underline{U}}_{3}$</text>
    </g>
    <g id="line2d_35">
     <path d="M 187.067187 239.714687 
L 207.067187 239.714687 
" style="fill:none;stroke:#008000;stroke-linecap:square;stroke-width:1.5;"/>
    </g>
    <g id="line2d_36"/>
    <g id="text_18">
     <text style="font-family:DejaVu Sans;font-size:10px;font-style:normal;font-weight:400;text-anchor:start;" transform="rotate(-0, 215.067187, 243.214687)" x="215.067187" y="243.214687">$\partial \mathcal{L}/ \partial \mu^{\underline{U}}_{4}$</text>
    </g>
   </g>
  </g>
 </g>
 <defs>
  <clipPath id="p9b06637bd9">
   <rect height="332.64" width="446.4" x="72" y="51.84"/>
  </clipPath>
 </defs>
</svg>
