<?xml version="1.0" encoding="utf-8" standalone="no"?>
<!DOCTYPE svg PUBLIC "-//W3C//DTD SVG 1.1//EN"
  "http://www.w3.org/Graphics/SVG/1.1/DTD/svg11.dtd">
<!-- Created with matplotlib (http://matplotlib.org/) -->
<svg height="432pt" version="1.1" viewBox="0 0 576 432" width="576pt" xmlns="http://www.w3.org/2000/svg" xmlns:xlink="http://www.w3.org/1999/xlink">
 <defs>
  <style type="text/css">
*{stroke-linecap:butt;stroke-linejoin:round;}
  </style>
 </defs>
 <g id="figure_1">
  <g id="patch_1">
   <path d="M 0 432 
L 576 432 
L 576 0 
L 0 0 
z
" style="fill:#ffffff;"/>
  </g>
  <g id="axes_1">
   <g id="patch_2">
    <path d="M 72 384.48 
L 518.4 384.48 
L 518.4 51.84 
L 72 51.84 
z
" style="fill:#ffffff;"/>
   </g>
   <g id="matplotlib.axis_1">
    <g id="xtick_1">
     <g id="line2d_1">
      <path clip-path="url(#pd778e03801)" d="M 92.290909 384.48 
L 92.290909 51.84 
" style="fill:none;stroke:#b0b0b0;stroke-dasharray:5.12,1.28,0.8,1.28;stroke-dashoffset:0;stroke-width:0.8;"/>
     </g>
     <g id="line2d_2">
      <defs>
       <path d="M 0 0 
L 0 3.5 
" id="mfc75d86e3a" style="stroke:#000000;stroke-width:0.8;"/>
      </defs>
      <g>
       <use style="stroke:#000000;stroke-width:0.8;" x="92.290909" xlink:href="#mfc75d86e3a" y="384.48"/>
      </g>
     </g>
     <g id="text_1">
      <!-- 0 -->
      <defs>
       <path d="M 31.78125 66.40625 
Q 24.171875 66.40625 20.328125 58.90625 
Q 16.5 51.421875 16.5 36.375 
Q 16.5 21.390625 20.328125 13.890625 
Q 24.171875 6.390625 31.78125 6.390625 
Q 39.453125 6.390625 43.28125 13.890625 
Q 47.125 21.390625 47.125 36.375 
Q 47.125 51.421875 43.28125 58.90625 
Q 39.453125 66.40625 31.78125 66.40625 
z
M 31.78125 74.21875 
Q 44.046875 74.21875 50.515625 64.515625 
Q 56.984375 54.828125 56.984375 36.375 
Q 56.984375 17.96875 50.515625 8.265625 
Q 44.046875 -1.421875 31.78125 -1.421875 
Q 19.53125 -1.421875 13.0625 8.265625 
Q 6.59375 17.96875 6.59375 36.375 
Q 6.59375 54.828125 13.0625 64.515625 
Q 19.53125 74.21875 31.78125 74.21875 
z
" id="DejaVuSans-30"/>
      </defs>
      <g transform="translate(89.109659 399.078438)scale(0.1 -0.1)">
       <use xlink:href="#DejaVuSans-30"/>
      </g>
     </g>
    </g>
    <g id="xtick_2">
     <g id="line2d_3">
      <path clip-path="url(#pd778e03801)" d="M 160.449824 384.48 
L 160.449824 51.84 
" style="fill:none;stroke:#b0b0b0;stroke-dasharray:5.12,1.28,0.8,1.28;stroke-dashoffset:0;stroke-width:0.8;"/>
     </g>
     <g id="line2d_4">
      <g>
       <use style="stroke:#000000;stroke-width:0.8;" x="160.449824" xlink:href="#mfc75d86e3a" y="384.48"/>
      </g>
     </g>
     <g id="text_2">
      <!-- 500 -->
      <defs>
       <path d="M 10.796875 72.90625 
L 49.515625 72.90625 
L 49.515625 64.59375 
L 19.828125 64.59375 
L 19.828125 46.734375 
Q 21.96875 47.46875 24.109375 47.828125 
Q 26.265625 48.1875 28.421875 48.1875 
Q 40.625 48.1875 47.75 41.5 
Q 54.890625 34.8125 54.890625 23.390625 
Q 54.890625 11.625 47.5625 5.09375 
Q 40.234375 -1.421875 26.90625 -1.421875 
Q 22.3125 -1.421875 17.546875 -0.640625 
Q 12.796875 0.140625 7.71875 1.703125 
L 7.71875 11.625 
Q 12.109375 9.234375 16.796875 8.0625 
Q 21.484375 6.890625 26.703125 6.890625 
Q 35.15625 6.890625 40.078125 11.328125 
Q 45.015625 15.765625 45.015625 23.390625 
Q 45.015625 31 40.078125 35.4375 
Q 35.15625 39.890625 26.703125 39.890625 
Q 22.75 39.890625 18.8125 39.015625 
Q 14.890625 38.140625 10.796875 36.28125 
z
" id="DejaVuSans-35"/>
      </defs>
      <g transform="translate(150.906074 399.078438)scale(0.1 -0.1)">
       <use xlink:href="#DejaVuSans-35"/>
       <use x="63.623047" xlink:href="#DejaVuSans-30"/>
       <use x="127.246094" xlink:href="#DejaVuSans-30"/>
      </g>
     </g>
    </g>
    <g id="xtick_3">
     <g id="line2d_5">
      <path clip-path="url(#pd778e03801)" d="M 228.60874 384.48 
L 228.60874 51.84 
" style="fill:none;stroke:#b0b0b0;stroke-dasharray:5.12,1.28,0.8,1.28;stroke-dashoffset:0;stroke-width:0.8;"/>
     </g>
     <g id="line2d_6">
      <g>
       <use style="stroke:#000000;stroke-width:0.8;" x="228.60874" xlink:href="#mfc75d86e3a" y="384.48"/>
      </g>
     </g>
     <g id="text_3">
      <!-- 1000 -->
      <defs>
       <path d="M 12.40625 8.296875 
L 28.515625 8.296875 
L 28.515625 63.921875 
L 10.984375 60.40625 
L 10.984375 69.390625 
L 28.421875 72.90625 
L 38.28125 72.90625 
L 38.28125 8.296875 
L 54.390625 8.296875 
L 54.390625 0 
L 12.40625 0 
z
" id="DejaVuSans-31"/>
      </defs>
      <g transform="translate(215.88374 399.078438)scale(0.1 -0.1)">
       <use xlink:href="#DejaVuSans-31"/>
       <use x="63.623047" xlink:href="#DejaVuSans-30"/>
       <use x="127.246094" xlink:href="#DejaVuSans-30"/>
       <use x="190.869141" xlink:href="#DejaVuSans-30"/>
      </g>
     </g>
    </g>
    <g id="xtick_4">
     <g id="line2d_7">
      <path clip-path="url(#pd778e03801)" d="M 296.767655 384.48 
L 296.767655 51.84 
" style="fill:none;stroke:#b0b0b0;stroke-dasharray:5.12,1.28,0.8,1.28;stroke-dashoffset:0;stroke-width:0.8;"/>
     </g>
     <g id="line2d_8">
      <g>
       <use style="stroke:#000000;stroke-width:0.8;" x="296.767655" xlink:href="#mfc75d86e3a" y="384.48"/>
      </g>
     </g>
     <g id="text_4">
      <!-- 1500 -->
      <g transform="translate(284.042655 399.078438)scale(0.1 -0.1)">
       <use xlink:href="#DejaVuSans-31"/>
       <use x="63.623047" xlink:href="#DejaVuSans-35"/>
       <use x="127.246094" xlink:href="#DejaVuSans-30"/>
       <use x="190.869141" xlink:href="#DejaVuSans-30"/>
      </g>
     </g>
    </g>
    <g id="xtick_5">
     <g id="line2d_9">
      <path clip-path="url(#pd778e03801)" d="M 364.92657 384.48 
L 364.92657 51.84 
" style="fill:none;stroke:#b0b0b0;stroke-dasharray:5.12,1.28,0.8,1.28;stroke-dashoffset:0;stroke-width:0.8;"/>
     </g>
     <g id="line2d_10">
      <g>
       <use style="stroke:#000000;stroke-width:0.8;" x="364.92657" xlink:href="#mfc75d86e3a" y="384.48"/>
      </g>
     </g>
     <g id="text_5">
      <!-- 2000 -->
      <defs>
       <path d="M 19.1875 8.296875 
L 53.609375 8.296875 
L 53.609375 0 
L 7.328125 0 
L 7.328125 8.296875 
Q 12.9375 14.109375 22.625 23.890625 
Q 32.328125 33.6875 34.8125 36.53125 
Q 39.546875 41.84375 41.421875 45.53125 
Q 43.3125 49.21875 43.3125 52.78125 
Q 43.3125 58.59375 39.234375 62.25 
Q 35.15625 65.921875 28.609375 65.921875 
Q 23.96875 65.921875 18.8125 64.3125 
Q 13.671875 62.703125 7.8125 59.421875 
L 7.8125 69.390625 
Q 13.765625 71.78125 18.9375 73 
Q 24.125 74.21875 28.421875 74.21875 
Q 39.75 74.21875 46.484375 68.546875 
Q 53.21875 62.890625 53.21875 53.421875 
Q 53.21875 48.921875 51.53125 44.890625 
Q 49.859375 40.875 45.40625 35.40625 
Q 44.1875 33.984375 37.640625 27.21875 
Q 31.109375 20.453125 19.1875 8.296875 
z
" id="DejaVuSans-32"/>
      </defs>
      <g transform="translate(352.20157 399.078438)scale(0.1 -0.1)">
       <use xlink:href="#DejaVuSans-32"/>
       <use x="63.623047" xlink:href="#DejaVuSans-30"/>
       <use x="127.246094" xlink:href="#DejaVuSans-30"/>
       <use x="190.869141" xlink:href="#DejaVuSans-30"/>
      </g>
     </g>
    </g>
    <g id="xtick_6">
     <g id="line2d_11">
      <path clip-path="url(#pd778e03801)" d="M 433.085486 384.48 
L 433.085486 51.84 
" style="fill:none;stroke:#b0b0b0;stroke-dasharray:5.12,1.28,0.8,1.28;stroke-dashoffset:0;stroke-width:0.8;"/>
     </g>
     <g id="line2d_12">
      <g>
       <use style="stroke:#000000;stroke-width:0.8;" x="433.085486" xlink:href="#mfc75d86e3a" y="384.48"/>
      </g>
     </g>
     <g id="text_6">
      <!-- 2500 -->
      <g transform="translate(420.360486 399.078438)scale(0.1 -0.1)">
       <use xlink:href="#DejaVuSans-32"/>
       <use x="63.623047" xlink:href="#DejaVuSans-35"/>
       <use x="127.246094" xlink:href="#DejaVuSans-30"/>
       <use x="190.869141" xlink:href="#DejaVuSans-30"/>
      </g>
     </g>
    </g>
    <g id="xtick_7">
     <g id="line2d_13">
      <path clip-path="url(#pd778e03801)" d="M 501.244401 384.48 
L 501.244401 51.84 
" style="fill:none;stroke:#b0b0b0;stroke-dasharray:5.12,1.28,0.8,1.28;stroke-dashoffset:0;stroke-width:0.8;"/>
     </g>
     <g id="line2d_14">
      <g>
       <use style="stroke:#000000;stroke-width:0.8;" x="501.244401" xlink:href="#mfc75d86e3a" y="384.48"/>
      </g>
     </g>
     <g id="text_7">
      <!-- 3000 -->
      <defs>
       <path d="M 40.578125 39.3125 
Q 47.65625 37.796875 51.625 33 
Q 55.609375 28.21875 55.609375 21.1875 
Q 55.609375 10.40625 48.1875 4.484375 
Q 40.765625 -1.421875 27.09375 -1.421875 
Q 22.515625 -1.421875 17.65625 -0.515625 
Q 12.796875 0.390625 7.625 2.203125 
L 7.625 11.71875 
Q 11.71875 9.328125 16.59375 8.109375 
Q 21.484375 6.890625 26.8125 6.890625 
Q 36.078125 6.890625 40.9375 10.546875 
Q 45.796875 14.203125 45.796875 21.1875 
Q 45.796875 27.640625 41.28125 31.265625 
Q 36.765625 34.90625 28.71875 34.90625 
L 20.21875 34.90625 
L 20.21875 43.015625 
L 29.109375 43.015625 
Q 36.375 43.015625 40.234375 45.921875 
Q 44.09375 48.828125 44.09375 54.296875 
Q 44.09375 59.90625 40.109375 62.90625 
Q 36.140625 65.921875 28.71875 65.921875 
Q 24.65625 65.921875 20.015625 65.03125 
Q 15.375 64.15625 9.8125 62.3125 
L 9.8125 71.09375 
Q 15.4375 72.65625 20.34375 73.4375 
Q 25.25 74.21875 29.59375 74.21875 
Q 40.828125 74.21875 47.359375 69.109375 
Q 53.90625 64.015625 53.90625 55.328125 
Q 53.90625 49.265625 50.4375 45.09375 
Q 46.96875 40.921875 40.578125 39.3125 
z
" id="DejaVuSans-33"/>
      </defs>
      <g transform="translate(488.519401 399.078438)scale(0.1 -0.1)">
       <use xlink:href="#DejaVuSans-33"/>
       <use x="63.623047" xlink:href="#DejaVuSans-30"/>
       <use x="127.246094" xlink:href="#DejaVuSans-30"/>
       <use x="190.869141" xlink:href="#DejaVuSans-30"/>
      </g>
     </g>
    </g>
    <g id="text_8">
     <!-- Iteration -->
     <defs>
      <path d="M 9.8125 72.90625 
L 19.671875 72.90625 
L 19.671875 0 
L 9.8125 0 
z
" id="DejaVuSans-49"/>
      <path d="M 18.3125 70.21875 
L 18.3125 54.6875 
L 36.8125 54.6875 
L 36.8125 47.703125 
L 18.3125 47.703125 
L 18.3125 18.015625 
Q 18.3125 11.328125 20.140625 9.421875 
Q 21.96875 7.515625 27.59375 7.515625 
L 36.8125 7.515625 
L 36.8125 0 
L 27.59375 0 
Q 17.1875 0 13.234375 3.875 
Q 9.28125 7.765625 9.28125 18.015625 
L 9.28125 47.703125 
L 2.6875 47.703125 
L 2.6875 54.6875 
L 9.28125 54.6875 
L 9.28125 70.21875 
z
" id="DejaVuSans-74"/>
      <path d="M 56.203125 29.59375 
L 56.203125 25.203125 
L 14.890625 25.203125 
Q 15.484375 15.921875 20.484375 11.0625 
Q 25.484375 6.203125 34.421875 6.203125 
Q 39.59375 6.203125 44.453125 7.46875 
Q 49.3125 8.734375 54.109375 11.28125 
L 54.109375 2.78125 
Q 49.265625 0.734375 44.1875 -0.34375 
Q 39.109375 -1.421875 33.890625 -1.421875 
Q 20.796875 -1.421875 13.15625 6.1875 
Q 5.515625 13.8125 5.515625 26.8125 
Q 5.515625 40.234375 12.765625 48.109375 
Q 20.015625 56 32.328125 56 
Q 43.359375 56 49.78125 48.890625 
Q 56.203125 41.796875 56.203125 29.59375 
z
M 47.21875 32.234375 
Q 47.125 39.59375 43.09375 43.984375 
Q 39.0625 48.390625 32.421875 48.390625 
Q 24.90625 48.390625 20.390625 44.140625 
Q 15.875 39.890625 15.1875 32.171875 
z
" id="DejaVuSans-65"/>
      <path d="M 41.109375 46.296875 
Q 39.59375 47.171875 37.8125 47.578125 
Q 36.03125 48 33.890625 48 
Q 26.265625 48 22.1875 43.046875 
Q 18.109375 38.09375 18.109375 28.8125 
L 18.109375 0 
L 9.078125 0 
L 9.078125 54.6875 
L 18.109375 54.6875 
L 18.109375 46.1875 
Q 20.953125 51.171875 25.484375 53.578125 
Q 30.03125 56 36.53125 56 
Q 37.453125 56 38.578125 55.875 
Q 39.703125 55.765625 41.0625 55.515625 
z
" id="DejaVuSans-72"/>
      <path d="M 34.28125 27.484375 
Q 23.390625 27.484375 19.1875 25 
Q 14.984375 22.515625 14.984375 16.5 
Q 14.984375 11.71875 18.140625 8.90625 
Q 21.296875 6.109375 26.703125 6.109375 
Q 34.1875 6.109375 38.703125 11.40625 
Q 43.21875 16.703125 43.21875 25.484375 
L 43.21875 27.484375 
z
M 52.203125 31.203125 
L 52.203125 0 
L 43.21875 0 
L 43.21875 8.296875 
Q 40.140625 3.328125 35.546875 0.953125 
Q 30.953125 -1.421875 24.3125 -1.421875 
Q 15.921875 -1.421875 10.953125 3.296875 
Q 6 8.015625 6 15.921875 
Q 6 25.140625 12.171875 29.828125 
Q 18.359375 34.515625 30.609375 34.515625 
L 43.21875 34.515625 
L 43.21875 35.40625 
Q 43.21875 41.609375 39.140625 45 
Q 35.0625 48.390625 27.6875 48.390625 
Q 23 48.390625 18.546875 47.265625 
Q 14.109375 46.140625 10.015625 43.890625 
L 10.015625 52.203125 
Q 14.9375 54.109375 19.578125 55.046875 
Q 24.21875 56 28.609375 56 
Q 40.484375 56 46.34375 49.84375 
Q 52.203125 43.703125 52.203125 31.203125 
z
" id="DejaVuSans-61"/>
      <path d="M 9.421875 54.6875 
L 18.40625 54.6875 
L 18.40625 0 
L 9.421875 0 
z
M 9.421875 75.984375 
L 18.40625 75.984375 
L 18.40625 64.59375 
L 9.421875 64.59375 
z
" id="DejaVuSans-69"/>
      <path d="M 30.609375 48.390625 
Q 23.390625 48.390625 19.1875 42.75 
Q 14.984375 37.109375 14.984375 27.296875 
Q 14.984375 17.484375 19.15625 11.84375 
Q 23.34375 6.203125 30.609375 6.203125 
Q 37.796875 6.203125 41.984375 11.859375 
Q 46.1875 17.53125 46.1875 27.296875 
Q 46.1875 37.015625 41.984375 42.703125 
Q 37.796875 48.390625 30.609375 48.390625 
z
M 30.609375 56 
Q 42.328125 56 49.015625 48.375 
Q 55.71875 40.765625 55.71875 27.296875 
Q 55.71875 13.875 49.015625 6.21875 
Q 42.328125 -1.421875 30.609375 -1.421875 
Q 18.84375 -1.421875 12.171875 6.21875 
Q 5.515625 13.875 5.515625 27.296875 
Q 5.515625 40.765625 12.171875 48.375 
Q 18.84375 56 30.609375 56 
z
" id="DejaVuSans-6f"/>
      <path d="M 54.890625 33.015625 
L 54.890625 0 
L 45.90625 0 
L 45.90625 32.71875 
Q 45.90625 40.484375 42.875 44.328125 
Q 39.84375 48.1875 33.796875 48.1875 
Q 26.515625 48.1875 22.3125 43.546875 
Q 18.109375 38.921875 18.109375 30.90625 
L 18.109375 0 
L 9.078125 0 
L 9.078125 54.6875 
L 18.109375 54.6875 
L 18.109375 46.1875 
Q 21.34375 51.125 25.703125 53.5625 
Q 30.078125 56 35.796875 56 
Q 45.21875 56 50.046875 50.171875 
Q 54.890625 44.34375 54.890625 33.015625 
z
" id="DejaVuSans-6e"/>
     </defs>
     <g transform="translate(265.507969 415.795938)scale(0.14 -0.14)">
      <use xlink:href="#DejaVuSans-49"/>
      <use x="29.492188" xlink:href="#DejaVuSans-74"/>
      <use x="68.701172" xlink:href="#DejaVuSans-65"/>
      <use x="130.224609" xlink:href="#DejaVuSans-72"/>
      <use x="171.337891" xlink:href="#DejaVuSans-61"/>
      <use x="232.617188" xlink:href="#DejaVuSans-74"/>
      <use x="271.826172" xlink:href="#DejaVuSans-69"/>
      <use x="299.609375" xlink:href="#DejaVuSans-6f"/>
      <use x="360.791016" xlink:href="#DejaVuSans-6e"/>
     </g>
    </g>
   </g>
   <g id="matplotlib.axis_2">
    <g id="ytick_1">
     <g id="line2d_15">
      <path clip-path="url(#pd778e03801)" d="M 72 369.36 
L 518.4 369.36 
" style="fill:none;stroke:#b0b0b0;stroke-dasharray:5.12,1.28,0.8,1.28;stroke-dashoffset:0;stroke-width:0.8;"/>
     </g>
     <g id="line2d_16">
      <defs>
       <path d="M 0 0 
L -3.5 0 
" id="m4f9d9700a2" style="stroke:#000000;stroke-width:0.8;"/>
      </defs>
      <g>
       <use style="stroke:#000000;stroke-width:0.8;" x="72" xlink:href="#m4f9d9700a2" y="369.36"/>
      </g>
     </g>
     <g id="text_9">
      <!-- −80000 -->
      <defs>
       <path d="M 10.59375 35.5 
L 73.1875 35.5 
L 73.1875 27.203125 
L 10.59375 27.203125 
z
" id="DejaVuSans-2212"/>
       <path d="M 31.78125 34.625 
Q 24.75 34.625 20.71875 30.859375 
Q 16.703125 27.09375 16.703125 20.515625 
Q 16.703125 13.921875 20.71875 10.15625 
Q 24.75 6.390625 31.78125 6.390625 
Q 38.8125 6.390625 42.859375 10.171875 
Q 46.921875 13.96875 46.921875 20.515625 
Q 46.921875 27.09375 42.890625 30.859375 
Q 38.875 34.625 31.78125 34.625 
z
M 21.921875 38.8125 
Q 15.578125 40.375 12.03125 44.71875 
Q 8.5 49.078125 8.5 55.328125 
Q 8.5 64.0625 14.71875 69.140625 
Q 20.953125 74.21875 31.78125 74.21875 
Q 42.671875 74.21875 48.875 69.140625 
Q 55.078125 64.0625 55.078125 55.328125 
Q 55.078125 49.078125 51.53125 44.71875 
Q 48 40.375 41.703125 38.8125 
Q 48.828125 37.15625 52.796875 32.3125 
Q 56.78125 27.484375 56.78125 20.515625 
Q 56.78125 9.90625 50.3125 4.234375 
Q 43.84375 -1.421875 31.78125 -1.421875 
Q 19.734375 -1.421875 13.25 4.234375 
Q 6.78125 9.90625 6.78125 20.515625 
Q 6.78125 27.484375 10.78125 32.3125 
Q 14.796875 37.15625 21.921875 38.8125 
z
M 18.3125 54.390625 
Q 18.3125 48.734375 21.84375 45.5625 
Q 25.390625 42.390625 31.78125 42.390625 
Q 38.140625 42.390625 41.71875 45.5625 
Q 45.3125 48.734375 45.3125 54.390625 
Q 45.3125 60.0625 41.71875 63.234375 
Q 38.140625 66.40625 31.78125 66.40625 
Q 25.390625 66.40625 21.84375 63.234375 
Q 18.3125 60.0625 18.3125 54.390625 
z
" id="DejaVuSans-38"/>
      </defs>
      <g transform="translate(24.807812 373.159219)scale(0.1 -0.1)">
       <use xlink:href="#DejaVuSans-2212"/>
       <use x="83.789062" xlink:href="#DejaVuSans-38"/>
       <use x="147.412109" xlink:href="#DejaVuSans-30"/>
       <use x="211.035156" xlink:href="#DejaVuSans-30"/>
       <use x="274.658203" xlink:href="#DejaVuSans-30"/>
       <use x="338.28125" xlink:href="#DejaVuSans-30"/>
      </g>
     </g>
    </g>
    <g id="ytick_2">
     <g id="line2d_17">
      <path clip-path="url(#pd778e03801)" d="M 72 314.378182 
L 518.4 314.378182 
" style="fill:none;stroke:#b0b0b0;stroke-dasharray:5.12,1.28,0.8,1.28;stroke-dashoffset:0;stroke-width:0.8;"/>
     </g>
     <g id="line2d_18">
      <g>
       <use style="stroke:#000000;stroke-width:0.8;" x="72" xlink:href="#m4f9d9700a2" y="314.378182"/>
      </g>
     </g>
     <g id="text_10">
      <!-- −60000 -->
      <defs>
       <path d="M 33.015625 40.375 
Q 26.375 40.375 22.484375 35.828125 
Q 18.609375 31.296875 18.609375 23.390625 
Q 18.609375 15.53125 22.484375 10.953125 
Q 26.375 6.390625 33.015625 6.390625 
Q 39.65625 6.390625 43.53125 10.953125 
Q 47.40625 15.53125 47.40625 23.390625 
Q 47.40625 31.296875 43.53125 35.828125 
Q 39.65625 40.375 33.015625 40.375 
z
M 52.59375 71.296875 
L 52.59375 62.3125 
Q 48.875 64.0625 45.09375 64.984375 
Q 41.3125 65.921875 37.59375 65.921875 
Q 27.828125 65.921875 22.671875 59.328125 
Q 17.53125 52.734375 16.796875 39.40625 
Q 19.671875 43.65625 24.015625 45.921875 
Q 28.375 48.1875 33.59375 48.1875 
Q 44.578125 48.1875 50.953125 41.515625 
Q 57.328125 34.859375 57.328125 23.390625 
Q 57.328125 12.15625 50.6875 5.359375 
Q 44.046875 -1.421875 33.015625 -1.421875 
Q 20.359375 -1.421875 13.671875 8.265625 
Q 6.984375 17.96875 6.984375 36.375 
Q 6.984375 53.65625 15.1875 63.9375 
Q 23.390625 74.21875 37.203125 74.21875 
Q 40.921875 74.21875 44.703125 73.484375 
Q 48.484375 72.75 52.59375 71.296875 
z
" id="DejaVuSans-36"/>
      </defs>
      <g transform="translate(24.807812 318.177401)scale(0.1 -0.1)">
       <use xlink:href="#DejaVuSans-2212"/>
       <use x="83.789062" xlink:href="#DejaVuSans-36"/>
       <use x="147.412109" xlink:href="#DejaVuSans-30"/>
       <use x="211.035156" xlink:href="#DejaVuSans-30"/>
       <use x="274.658203" xlink:href="#DejaVuSans-30"/>
       <use x="338.28125" xlink:href="#DejaVuSans-30"/>
      </g>
     </g>
    </g>
    <g id="ytick_3">
     <g id="line2d_19">
      <path clip-path="url(#pd778e03801)" d="M 72 259.396364 
L 518.4 259.396364 
" style="fill:none;stroke:#b0b0b0;stroke-dasharray:5.12,1.28,0.8,1.28;stroke-dashoffset:0;stroke-width:0.8;"/>
     </g>
     <g id="line2d_20">
      <g>
       <use style="stroke:#000000;stroke-width:0.8;" x="72" xlink:href="#m4f9d9700a2" y="259.396364"/>
      </g>
     </g>
     <g id="text_11">
      <!-- −40000 -->
      <defs>
       <path d="M 37.796875 64.3125 
L 12.890625 25.390625 
L 37.796875 25.390625 
z
M 35.203125 72.90625 
L 47.609375 72.90625 
L 47.609375 25.390625 
L 58.015625 25.390625 
L 58.015625 17.1875 
L 47.609375 17.1875 
L 47.609375 0 
L 37.796875 0 
L 37.796875 17.1875 
L 4.890625 17.1875 
L 4.890625 26.703125 
z
" id="DejaVuSans-34"/>
      </defs>
      <g transform="translate(24.807812 263.195582)scale(0.1 -0.1)">
       <use xlink:href="#DejaVuSans-2212"/>
       <use x="83.789062" xlink:href="#DejaVuSans-34"/>
       <use x="147.412109" xlink:href="#DejaVuSans-30"/>
       <use x="211.035156" xlink:href="#DejaVuSans-30"/>
       <use x="274.658203" xlink:href="#DejaVuSans-30"/>
       <use x="338.28125" xlink:href="#DejaVuSans-30"/>
      </g>
     </g>
    </g>
    <g id="ytick_4">
     <g id="line2d_21">
      <path clip-path="url(#pd778e03801)" d="M 72 204.414545 
L 518.4 204.414545 
" style="fill:none;stroke:#b0b0b0;stroke-dasharray:5.12,1.28,0.8,1.28;stroke-dashoffset:0;stroke-width:0.8;"/>
     </g>
     <g id="line2d_22">
      <g>
       <use style="stroke:#000000;stroke-width:0.8;" x="72" xlink:href="#m4f9d9700a2" y="204.414545"/>
      </g>
     </g>
     <g id="text_12">
      <!-- −20000 -->
      <g transform="translate(24.807812 208.213764)scale(0.1 -0.1)">
       <use xlink:href="#DejaVuSans-2212"/>
       <use x="83.789062" xlink:href="#DejaVuSans-32"/>
       <use x="147.412109" xlink:href="#DejaVuSans-30"/>
       <use x="211.035156" xlink:href="#DejaVuSans-30"/>
       <use x="274.658203" xlink:href="#DejaVuSans-30"/>
       <use x="338.28125" xlink:href="#DejaVuSans-30"/>
      </g>
     </g>
    </g>
    <g id="ytick_5">
     <g id="line2d_23">
      <path clip-path="url(#pd778e03801)" d="M 72 149.432727 
L 518.4 149.432727 
" style="fill:none;stroke:#b0b0b0;stroke-dasharray:5.12,1.28,0.8,1.28;stroke-dashoffset:0;stroke-width:0.8;"/>
     </g>
     <g id="line2d_24">
      <g>
       <use style="stroke:#000000;stroke-width:0.8;" x="72" xlink:href="#m4f9d9700a2" y="149.432727"/>
      </g>
     </g>
     <g id="text_13">
      <!-- 0 -->
      <g transform="translate(58.6375 153.231946)scale(0.1 -0.1)">
       <use xlink:href="#DejaVuSans-30"/>
      </g>
     </g>
    </g>
    <g id="ytick_6">
     <g id="line2d_25">
      <path clip-path="url(#pd778e03801)" d="M 72 94.450909 
L 518.4 94.450909 
" style="fill:none;stroke:#b0b0b0;stroke-dasharray:5.12,1.28,0.8,1.28;stroke-dashoffset:0;stroke-width:0.8;"/>
     </g>
     <g id="line2d_26">
      <g>
       <use style="stroke:#000000;stroke-width:0.8;" x="72" xlink:href="#m4f9d9700a2" y="94.450909"/>
      </g>
     </g>
     <g id="text_14">
      <!-- 20000 -->
      <g transform="translate(33.1875 98.250128)scale(0.1 -0.1)">
       <use xlink:href="#DejaVuSans-32"/>
       <use x="63.623047" xlink:href="#DejaVuSans-30"/>
       <use x="127.246094" xlink:href="#DejaVuSans-30"/>
       <use x="190.869141" xlink:href="#DejaVuSans-30"/>
       <use x="254.492188" xlink:href="#DejaVuSans-30"/>
      </g>
     </g>
    </g>
    <g id="text_15">
     <!-- $\partial \mathcal{L}/ \partial \mu^{P_{\mathrm{max}}}_{m}[W]$ -->
     <defs>
      <path d="M 21.34375 -1.421875 
Q 14.453125 -1.421875 9.96875 2.734375 
Q 4.640625 7.671875 4.640625 16.609375 
Q 4.640625 25.875 9.328125 33.109375 
Q 14.15625 40.53125 22.859375 40.53125 
Q 28.5625 40.53125 33.0625 36.96875 
Q 35.6875 34.859375 37.5 31.34375 
Q 38.140625 35.296875 38.140625 39.796875 
Q 38.140625 46.390625 36.578125 50.203125 
Q 33.109375 58.640625 23.921875 58.640625 
Q 20.453125 58.640625 15.09375 56.5 
L 15.09375 64.703125 
Q 20.75 66.21875 25.828125 66.21875 
Q 38.921875 66.21875 44.484375 54.203125 
Q 47.078125 48.53125 47.078125 40.09375 
Q 47.078125 34.578125 45.84375 28.171875 
Q 42.78125 12.15625 34.8125 4.546875 
Q 28.5625 -1.421875 21.34375 -1.421875 
z
M 12.984375 15.140625 
Q 12.984375 10.25 15.140625 7.625 
Q 17.4375 4.828125 20.953125 4.828125 
Q 24.078125 4.828125 26.5625 7.03125 
Q 30.078125 10.0625 32.671875 14.984375 
Q 34.8125 19.046875 35.890625 23.390625 
Q 31.546875 33.890625 24.03125 33.890625 
Q 17.578125 33.890625 14.75 25.390625 
Q 12.984375 20.125 12.984375 15.140625 
z
" id="DejaVuSans-2202"/>
      <path d="M 63.59375 14.296875 
L 65.296875 12.5 
Q 52.296875 -0.703125 37.703125 -0.703125 
Q 33.703125 -0.703125 28.90625 0.40625 
Q 21.796875 1.90625 17.90625 1.90625 
Q 15.703125 1.90625 10.5 0.953125 
Q 5.296875 0 3 0 
L 3.59375 2.40625 
Q 9.09375 2.40625 11.40625 11.703125 
L 18.40625 40.09375 
Q 20.09375 47 23.6875 52.390625 
Q 27.296875 57.796875 31.640625 60.84375 
Q 36 63.90625 40.390625 65.453125 
Q 44.796875 67 48.796875 67 
Q 53.796875 67 56.140625 63.796875 
Q 58.5 60.59375 58.5 56 
Q 58.5 52.296875 56.140625 50 
Q 53.796875 47.703125 50.40625 47.703125 
Q 48.203125 47.703125 46.796875 49.203125 
Q 45.40625 50.703125 45.40625 52.796875 
Q 45.40625 54.40625 46.203125 55.5 
Q 47 56.59375 47.890625 56.9375 
Q 48.796875 57.296875 49.59375 57.890625 
Q 50.40625 58.5 50.40625 59.203125 
Q 50.40625 63 44.59375 63 
Q 39.40625 63 36.09375 59.140625 
Q 32.796875 55.296875 31.09375 48.9375 
Q 29.40625 42.59375 28.046875 35.6875 
Q 26.703125 28.796875 24.203125 21.296875 
Q 21.703125 13.796875 18.09375 9.203125 
L 18.09375 8.796875 
Q 21.296875 11 29.5 11 
Q 34.796875 11 38.4375 8.5 
Q 42.09375 6 46.296875 6 
Q 54.796875 6 63.59375 14.296875 
z
" id="STIXNonUnicode-Italic-e238"/>
      <path d="M 25.390625 72.90625 
L 33.6875 72.90625 
L 8.296875 -9.28125 
L 0 -9.28125 
z
" id="DejaVuSans-2f"/>
      <path d="M -1.3125 -20.796875 
L 13.375 54.6875 
L 22.40625 54.6875 
L 15.765625 20.65625 
Q 15.578125 19.625 15.421875 18.359375 
Q 15.28125 17.09375 15.28125 15.828125 
Q 15.28125 11.28125 18.140625 8.828125 
Q 21 6.390625 26.3125 6.390625 
Q 33.546875 6.390625 37.984375 10.484375 
Q 42.4375 14.59375 44 22.796875 
L 50.203125 54.6875 
L 59.1875 54.6875 
L 51.03125 12.640625 
Q 50.828125 11.71875 50.75 11.03125 
Q 50.6875 10.359375 50.6875 9.8125 
Q 50.6875 8.296875 51.296875 7.59375 
Q 51.90625 6.890625 53.21875 6.890625 
Q 53.71875 6.890625 54.5625 7.125 
Q 55.421875 7.375 56.984375 8.015625 
L 55.609375 0.78125 
Q 53.46875 -0.296875 51.515625 -0.859375 
Q 49.5625 -1.421875 47.703125 -1.421875 
Q 44.484375 -1.421875 42.65625 0.625 
Q 40.828125 2.6875 40.828125 6.296875 
Q 38.09375 2.390625 34.296875 0.484375 
Q 30.515625 -1.421875 25.390625 -1.421875 
Q 20.84375 -1.421875 17.453125 0.671875 
Q 14.0625 2.78125 12.984375 6.203125 
L 7.71875 -20.796875 
z
" id="DejaVuSans-Oblique-3bc"/>
      <path d="M 16.890625 72.90625 
L 39.703125 72.90625 
Q 49.65625 72.90625 54.875 68.265625 
Q 60.109375 63.625 60.109375 54.6875 
Q 60.109375 42.671875 52.390625 35.984375 
Q 44.671875 29.296875 30.71875 29.296875 
L 18.3125 29.296875 
L 12.59375 0 
L 2.6875 0 
z
M 25.203125 64.796875 
L 19.921875 37.40625 
L 32.328125 37.40625 
Q 40.71875 37.40625 45.203125 41.703125 
Q 49.703125 46 49.703125 54 
Q 49.703125 59.125 46.65625 61.953125 
Q 43.609375 64.796875 38.09375 64.796875 
z
" id="DejaVuSans-Oblique-50"/>
      <path d="M 52 44.1875 
Q 55.375 50.25 60.0625 53.125 
Q 64.75 56 71.09375 56 
Q 79.640625 56 84.28125 50.015625 
Q 88.921875 44.046875 88.921875 33.015625 
L 88.921875 0 
L 79.890625 0 
L 79.890625 32.71875 
Q 79.890625 40.578125 77.09375 44.375 
Q 74.3125 48.1875 68.609375 48.1875 
Q 61.625 48.1875 57.5625 43.546875 
Q 53.515625 38.921875 53.515625 30.90625 
L 53.515625 0 
L 44.484375 0 
L 44.484375 32.71875 
Q 44.484375 40.625 41.703125 44.40625 
Q 38.921875 48.1875 33.109375 48.1875 
Q 26.21875 48.1875 22.15625 43.53125 
Q 18.109375 38.875 18.109375 30.90625 
L 18.109375 0 
L 9.078125 0 
L 9.078125 54.6875 
L 18.109375 54.6875 
L 18.109375 46.1875 
Q 21.1875 51.21875 25.484375 53.609375 
Q 29.78125 56 35.6875 56 
Q 41.65625 56 45.828125 52.96875 
Q 50 49.953125 52 44.1875 
z
" id="DejaVuSans-6d"/>
      <path d="M 54.890625 54.6875 
L 35.109375 28.078125 
L 55.90625 0 
L 45.3125 0 
L 29.390625 21.484375 
L 13.484375 0 
L 2.875 0 
L 24.125 28.609375 
L 4.6875 54.6875 
L 15.28125 54.6875 
L 29.78125 35.203125 
L 44.28125 54.6875 
z
" id="DejaVuSans-78"/>
      <path d="M 89.796875 33.015625 
L 83.40625 0 
L 74.421875 0 
L 80.71875 32.71875 
Q 81.109375 34.8125 81.296875 36.328125 
Q 81.5 37.84375 81.5 38.921875 
Q 81.5 43.3125 79.046875 45.75 
Q 76.609375 48.1875 72.21875 48.1875 
Q 65.671875 48.1875 60.546875 43.28125 
Q 55.421875 38.375 53.90625 30.515625 
L 47.90625 0 
L 38.921875 0 
L 45.3125 32.71875 
Q 45.703125 34.515625 45.890625 36.046875 
Q 46.09375 37.59375 46.09375 38.8125 
Q 46.09375 43.265625 43.65625 45.71875 
Q 41.21875 48.1875 36.921875 48.1875 
Q 30.28125 48.1875 25.140625 43.28125 
Q 20.015625 38.375 18.5 30.515625 
L 12.5 0 
L 3.515625 0 
L 14.203125 54.6875 
L 23.1875 54.6875 
L 21.484375 46.1875 
Q 25.140625 50.984375 30.046875 53.484375 
Q 34.96875 56 40.578125 56 
Q 46.53125 56 50.359375 52.875 
Q 54.203125 49.75 54.984375 44.1875 
Q 59.078125 49.953125 64.46875 52.96875 
Q 69.875 56 75.875 56 
Q 82.90625 56 86.734375 51.953125 
Q 90.578125 47.90625 90.578125 40.484375 
Q 90.578125 38.875 90.375 36.9375 
Q 90.1875 35.015625 89.796875 33.015625 
z
" id="DejaVuSans-Oblique-6d"/>
      <path d="M 8.59375 75.984375 
L 29.296875 75.984375 
L 29.296875 69 
L 17.578125 69 
L 17.578125 -6.203125 
L 29.296875 -6.203125 
L 29.296875 -13.1875 
L 8.59375 -13.1875 
z
" id="DejaVuSans-5b"/>
      <path d="M 9.625 72.90625 
L 19.1875 72.90625 
L 22.703125 10.890625 
L 50.203125 72.90625 
L 61.1875 72.90625 
L 64.796875 10.890625 
L 92 72.90625 
L 102 72.90625 
L 69.578125 0 
L 57.171875 0 
L 53.8125 60.796875 
L 26.515625 0 
L 14.109375 0 
z
" id="DejaVuSans-Oblique-57"/>
      <path d="M 30.421875 75.984375 
L 30.421875 -13.1875 
L 9.71875 -13.1875 
L 9.71875 -6.203125 
L 21.390625 -6.203125 
L 21.390625 69 
L 9.71875 69 
L 9.71875 75.984375 
z
" id="DejaVuSans-5d"/>
     </defs>
     <g transform="translate(16.887812 260.58)rotate(-90)scale(0.14 -0.14)">
      <use transform="translate(0 0.684375)" xlink:href="#DejaVuSans-2202"/>
      <use transform="translate(51.708984 0.684375)" xlink:href="#STIXNonUnicode-Italic-e238"/>
      <use transform="translate(121.008972 0.684375)" xlink:href="#DejaVuSans-2f"/>
      <use transform="translate(154.700378 0.684375)" xlink:href="#DejaVuSans-2202"/>
      <use transform="translate(206.409363 0.684375)" xlink:href="#DejaVuSans-Oblique-3bc"/>
      <use transform="translate(274.498556 38.965625)scale(0.7)" xlink:href="#DejaVuSans-Oblique-50"/>
      <use transform="translate(316.71047 27.48125)scale(0.49)" xlink:href="#DejaVuSans-6d"/>
      <use transform="translate(364.442403 27.48125)scale(0.49)" xlink:href="#DejaVuSans-61"/>
      <use transform="translate(394.469259 27.48125)scale(0.49)" xlink:href="#DejaVuSans-78"/>
      <use transform="translate(270.03241 -26.659375)scale(0.7)" xlink:href="#DejaVuSans-Oblique-6d"/>
      <use transform="translate(428.115743 0.684375)" xlink:href="#DejaVuSans-5b"/>
      <use transform="translate(467.129415 0.684375)" xlink:href="#DejaVuSans-Oblique-57"/>
      <use transform="translate(566.006368 0.684375)" xlink:href="#DejaVuSans-5d"/>
     </g>
    </g>
   </g>
   <g id="line2d_27">
    <path clip-path="url(#pd778e03801)" d="M 92.290909 149.432727 
L 92.427227 204.414545 
L 497.972773 204.414545 
L 497.972773 204.414545 
" style="fill:none;stroke:#bf00bf;stroke-linecap:square;stroke-width:1.5;"/>
   </g>
   <g id="line2d_28">
    <path clip-path="url(#pd778e03801)" d="M 92.290909 149.432727 
L 92.427227 369.36 
L 92.699863 369.279331 
L 93.108816 368.955314 
L 94.880948 366.686195 
L 95.289901 365.641481 
L 95.698855 364.025685 
L 96.244126 360.92309 
L 96.925715 355.543486 
L 97.743622 347.034056 
L 98.697847 334.60752 
L 99.924708 315.44165 
L 100.606297 304.189905 
L 100.742615 305.42319 
L 101.01525 316.95692 
L 101.696839 351.210754 
L 101.969475 358.271907 
L 102.242111 360.865647 
L 102.378429 360.917449 
L 102.651064 359.583236 
L 103.332653 355.139658 
L 103.605289 354.394101 
L 103.877925 354.204077 
L 104.286878 354.390599 
L 104.695832 354.540472 
L 105.104785 354.406373 
L 105.922692 353.690619 
L 106.876917 353.011267 
L 109.875909 351.400777 
L 112.056995 350.330541 
L 112.602266 349.392015 
L 113.283855 348.356589 
L 113.829126 347.990901 
L 114.374398 347.756598 
L 114.647033 347.31049 
L 115.055987 346.101545 
L 115.737576 343.928208 
L 116.010212 343.496068 
L 116.282847 343.495281 
L 116.555483 343.996403 
L 116.828119 345.043728 
L 117.237072 347.691549 
L 117.782343 353.225745 
L 118.463933 363.059618 
L 118.872886 369.36 
L 121.871878 369.36 
L 122.41715 327.95025 
L 122.553467 329.903087 
L 122.962421 349.04378 
L 123.371374 367.738568 
L 123.507692 369.36 
L 124.734553 369.36 
L 125.007188 357.402632 
L 125.279824 347.81466 
L 125.416142 347.239834 
L 125.688778 351.890795 
L 126.370367 367.333221 
L 126.643002 369.36 
L 126.915638 369.36 
L 127.051956 369.060423 
L 127.733545 358.47844 
L 127.869863 358.524748 
L 128.142499 360.459696 
L 128.824088 366.000712 
L 129.096723 366.752227 
L 129.233041 366.814492 
L 129.505677 366.511014 
L 130.323584 364.955791 
L 130.732537 364.649951 
L 136.048933 363.108018 
L 137.548429 362.759389 
L 139.047925 361.751516 
L 139.456878 361.913833 
L 139.865832 362.367784 
L 140.411103 363.429038 
L 141.092692 365.424754 
L 142.319553 369.316017 
L 142.455871 369.029372 
L 142.728506 367.525226 
L 143.273778 363.958011 
L 143.410096 363.589256 
L 143.546413 363.606941 
L 143.819049 365.182582 
L 144.36432 368.994732 
L 144.500638 369.36 
L 144.636956 369.36 
L 144.773274 368.809849 
L 145.04591 366.120008 
L 145.454863 361.466033 
L 145.591181 361.099091 
L 145.727499 361.670011 
L 146.681724 369.145895 
L 146.818041 369.317181 
L 146.954359 368.970406 
L 147.226995 366.724166 
L 147.772266 361.31077 
L 147.908584 361.51384 
L 148.317537 364.617665 
L 148.726491 367.57124 
L 148.999127 368.571199 
L 149.135444 368.601218 
L 149.271762 368.223968 
L 149.544398 366.339058 
L 149.953351 362.915769 
L 150.089669 362.624337 
L 150.225987 362.967664 
L 151.31653 367.689741 
L 151.452848 367.711485 
L 151.589165 367.506055 
L 151.861801 366.472841 
L 152.270755 364.629927 
L 152.407072 364.480173 
L 152.679708 364.902276 
L 153.361297 366.441033 
L 153.633933 366.669287 
L 153.906569 366.660858 
L 154.45184 366.310612 
L 155.133429 365.940431 
L 156.223972 365.73116 
L 161.131414 364.915994 
L 162.494592 364.717632 
L 163.85777 364.222293 
L 164.403041 364.346227 
L 164.948313 364.738954 
L 165.629902 365.595102 
L 166.447809 367.059201 
L 166.99308 368.043695 
L 167.129398 368.093326 
L 167.265716 367.987459 
L 167.538352 367.292998 
L 168.083623 365.407805 
L 168.356259 365.127172 
L 168.492576 365.351906 
L 169.310483 368.090396 
L 169.446801 368.136538 
L 169.583119 367.910801 
L 169.855755 366.66766 
L 170.264708 364.230584 
L 170.401026 363.915988 
L 170.537344 364.090167 
L 170.946297 365.933393 
L 171.355251 367.610665 
L 171.627887 368.093682 
L 171.764204 367.980252 
L 172.03684 366.943225 
L 172.582111 364.029316 
L 172.718429 364.033586 
L 172.991065 364.961242 
L 173.672654 367.473832 
L 173.94529 367.76139 
L 174.081607 367.611448 
L 174.354243 366.701704 
L 174.899514 364.623142 
L 175.035832 364.726301 
L 175.444786 365.859697 
L 175.853739 366.910387 
L 176.126375 367.257679 
L 176.262693 367.294189 
L 176.535328 367.010037 
L 177.216918 365.576027 
L 177.489553 365.774146 
L 178.30746 366.69702 
L 178.716414 366.752675 
L 181.715406 366.183604 
L 185.25967 365.860987 
L 187.713391 365.618327 
L 188.667615 365.454127 
L 189.349205 365.553233 
L 190.030794 365.872645 
L 190.848701 366.52112 
L 191.939243 367.479187 
L 192.211879 367.291951 
L 193.166104 365.918174 
L 193.438739 366.260692 
L 194.120329 367.466902 
L 194.256646 367.50385 
L 194.392964 367.400389 
L 194.6656 366.774892 
L 195.210871 365.298674 
L 195.347189 365.366488 
L 195.756143 366.317427 
L 196.301414 367.392252 
L 196.437732 367.476325 
L 196.57405 367.428375 
L 196.846685 366.907314 
L 197.391957 365.363168 
L 197.528274 365.348169 
L 197.80091 365.822659 
L 198.482499 367.148051 
L 198.755135 367.307441 
L 199.02777 367.048377 
L 199.70936 365.660369 
L 199.981995 365.864812 
L 200.799902 366.970282 
L 201.072538 367.065189 
L 201.345174 366.919144 
L 202.026763 366.152006 
L 202.299398 366.252246 
L 203.117305 366.749479 
L 203.662577 366.7662 
L 205.707344 366.525604 
L 214.431685 366.196763 
L 215.38591 366.526798 
L 216.885406 367.133067 
L 217.29436 366.797613 
L 217.975949 366.332731 
L 218.248585 366.519445 
L 218.657538 366.960638 
L 219.202809 367.11707 
L 219.475445 366.782081 
L 219.884399 366.102375 
L 220.157034 366.044896 
L 220.838623 366.889548 
L 221.65653 366.854064 
L 222.201802 366.037953 
L 222.33812 366.032528 
L 223.428662 367.053519 
L 223.56498 367.071473 
L 223.973933 366.780892 
L 224.519205 366.195253 
L 224.79184 366.306138 
L 225.609747 366.893717 
L 226.018701 366.920774 
L 226.427654 366.675552 
L 226.836608 366.455368 
L 227.381879 366.616875 
L 228.063468 366.790816 
L 229.017693 366.72753 
L 230.926143 366.644982 
L 238.968895 366.452687 
L 240.604709 366.765711 
L 241.695251 366.976918 
L 242.240523 366.711561 
L 242.785794 366.552152 
L 243.194748 366.739983 
L 243.740019 366.994208 
L 244.012655 366.966223 
L 244.421608 366.651837 
L 244.830562 366.376528 
L 245.103197 366.479812 
L 245.921104 366.974273 
L 246.19374 366.977492 
L 246.602693 366.700934 
L 247.147965 366.393199 
L 248.511143 366.923875 
L 249.056414 366.591232 
L 249.32905 366.477407 
L 249.738003 366.599965 
L 250.55591 366.873164 
L 251.101182 366.787681 
L 251.782771 366.626468 
L 253.418585 366.786523 
L 256.826531 366.699361 
L 264.460329 366.666365 
L 266.777732 366.835563 
L 267.595639 366.669128 
L 268.958818 366.845415 
L 269.776725 366.592222 
L 271.003585 366.895254 
L 271.685174 366.615007 
L 272.094128 366.616621 
L 273.18467 366.879442 
L 273.729942 366.738346 
L 274.275213 366.639863 
L 275.774709 366.818162 
L 276.728934 366.72113 
L 278.364748 366.789877 
L 283.544825 366.733323 
L 290.224399 366.795194 
L 291.587577 366.81805 
L 292.541802 366.744452 
L 293.632345 366.847212 
L 294.859205 366.743108 
L 295.81343 366.851421 
L 297.176609 366.754739 
L 298.130833 366.835532 
L 299.494012 366.767318 
L 300.584554 366.810177 
L 301.811415 366.776427 
L 303.856182 366.786196 
L 315.034244 366.799828 
L 316.806376 366.775139 
L 318.033237 366.829131 
L 318.987461 366.75476 
L 319.669051 366.773201 
L 320.895911 366.800681 
L 321.850136 366.765898 
L 323.213314 366.795934 
L 324.303857 366.78622 
L 325.803353 366.781342 
L 328.120756 366.797936 
L 339.980407 366.805123 
L 343.660989 366.785933 
L 344.751531 366.804382 
L 347.34157 366.813256 
L 355.248004 366.795933 
L 423.815873 366.803563 
L 460.621687 366.802093 
L 497.972773 366.803242 
L 497.972773 366.803242 
" style="fill:none;stroke:#00bfbf;stroke-linecap:square;stroke-width:1.5;"/>
   </g>
   <g id="line2d_29">
    <path clip-path="url(#pd778e03801)" d="M 92.290909 149.432727 
L 92.427227 66.96 
L 92.563545 149.432727 
L 497.972773 149.432727 
L 497.972773 149.432727 
" style="fill:none;stroke:#ff0000;stroke-linecap:square;stroke-width:1.5;"/>
   </g>
   <g id="line2d_30">
    <path clip-path="url(#pd778e03801)" d="M 92.290909 149.432727 
L 92.427227 245.650909 
L 111.648041 245.650909 
L 111.920677 242.708433 
L 116.010212 189.639862 
L 117.100754 176.522562 
L 117.646026 171.917656 
L 118.054979 169.711529 
L 118.327615 168.920794 
L 118.60025 168.709644 
L 118.736568 168.826652 
L 119.009204 169.508107 
L 120.5087 175.901164 
L 121.599243 180.692076 
L 122.008196 181.112603 
L 122.962421 182.618489 
L 124.325599 184.644985 
L 125.279824 185.666082 
L 126.097731 186.238055 
L 126.915638 186.535471 
L 127.733545 186.565035 
L 128.551452 186.333388 
L 129.369359 185.855216 
L 130.323584 185.00517 
L 131.414126 183.680212 
L 132.640987 181.789817 
L 134.004165 179.268779 
L 135.776297 175.477386 
L 137.684747 170.867449 
L 140.138468 164.435473 
L 140.683739 163.618423 
L 141.092692 163.304381 
L 141.501646 163.279191 
L 141.910599 163.554025 
L 142.319553 164.11989 
L 142.864824 165.263901 
L 143.410096 166.482076 
L 144.228003 167.479923 
L 146.818041 170.849581 
L 148.18122 172.205585 
L 149.40808 173.114606 
L 150.498623 173.667476 
L 151.589165 173.978916 
L 152.679708 174.054082 
L 153.770251 173.900758 
L 154.860793 173.531995 
L 156.087654 172.879329 
L 157.450832 171.890307 
L 159.086646 170.394003 
L 160.995096 168.321934 
L 162.767228 166.107519 
L 164.948313 163.202347 
L 165.629902 162.698857 
L 166.175173 162.566484 
L 166.720445 162.70474 
L 167.265716 163.108684 
L 167.947305 163.913852 
L 168.219941 164.20338 
L 169.174166 164.798246 
L 171.900522 166.585416 
L 173.536336 167.365388 
L 175.035832 167.845696 
L 176.535328 168.094086 
L 178.034825 168.114412 
L 179.534321 167.917386 
L 181.170135 167.47594 
L 182.942266 166.766216 
L 185.123352 165.631632 
L 187.440755 164.184273 
L 189.894476 162.500793 
L 190.712383 162.249259 
L 191.393972 162.270252 
L 192.075561 162.511357 
L 193.984011 163.394331 
L 197.255639 164.481641 
L 199.436724 164.937729 
L 201.481491 165.135626 
L 203.526259 165.112629 
L 205.707344 164.862558 
L 208.161065 164.345101 
L 211.160057 163.467079 
L 213.477461 162.605578 
L 214.976957 162.140194 
L 215.931181 162.061108 
L 216.885406 162.208911 
L 219.202809 162.755002 
L 222.33812 163.287623 
L 225.337112 163.563462 
L 228.199786 163.591193 
L 231.062461 163.404956 
L 234.334089 162.983728 
L 238.423624 162.229471 
L 240.195755 161.979177 
L 241.422616 162.015592 
L 247.693236 162.660268 
L 251.782771 162.793803 
L 255.735988 162.693113 
L 260.64343 162.330742 
L 266.096143 161.939444 
L 275.502073 162.356182 
L 280.954787 162.296331 
L 287.906996 161.976327 
L 290.905988 161.906122 
L 301.811415 162.131482 
L 309.854167 162.009138 
L 317.351647 161.923284 
L 330.165524 161.992818 
L 350.340562 161.942359 
L 408.139323 161.880278 
L 469.482346 161.869285 
L 498.109091 161.86852 
L 498.109091 161.86852 
" style="fill:none;stroke:#008000;stroke-linecap:square;stroke-width:1.5;"/>
   </g>
   <g id="patch_3">
    <path d="M 72 384.48 
L 72 51.84 
" style="fill:none;stroke:#000000;stroke-linecap:square;stroke-linejoin:miter;stroke-width:0.8;"/>
   </g>
   <g id="patch_4">
    <path d="M 518.4 384.48 
L 518.4 51.84 
" style="fill:none;stroke:#000000;stroke-linecap:square;stroke-linejoin:miter;stroke-width:0.8;"/>
   </g>
   <g id="patch_5">
    <path d="M 72 384.48 
L 518.4 384.48 
" style="fill:none;stroke:#000000;stroke-linecap:square;stroke-linejoin:miter;stroke-width:0.8;"/>
   </g>
   <g id="patch_6">
    <path d="M 72 51.84 
L 518.4 51.84 
" style="fill:none;stroke:#000000;stroke-linecap:square;stroke-linejoin:miter;stroke-width:0.8;"/>
   </g>
   <g id="text_16">
    <!-- $\partial \mathcal{L}/ \partial \mu^{P_{\mathrm{max}}}_{m}$ -->
    <g transform="translate(265.17 45.84)scale(0.14 -0.14)">
     <use transform="translate(0 0.684375)" xlink:href="#DejaVuSans-2202"/>
     <use transform="translate(51.708984 0.684375)" xlink:href="#STIXNonUnicode-Italic-e238"/>
     <use transform="translate(121.008972 0.684375)" xlink:href="#DejaVuSans-2f"/>
     <use transform="translate(154.700378 0.684375)" xlink:href="#DejaVuSans-2202"/>
     <use transform="translate(206.409363 0.684375)" xlink:href="#DejaVuSans-Oblique-3bc"/>
     <use transform="translate(274.498556 38.965625)scale(0.7)" xlink:href="#DejaVuSans-Oblique-50"/>
     <use transform="translate(316.71047 27.48125)scale(0.49)" xlink:href="#DejaVuSans-6d"/>
     <use transform="translate(364.442403 27.48125)scale(0.49)" xlink:href="#DejaVuSans-61"/>
     <use transform="translate(394.469259 27.48125)scale(0.49)" xlink:href="#DejaVuSans-78"/>
     <use transform="translate(270.03241 -26.659375)scale(0.7)" xlink:href="#DejaVuSans-Oblique-6d"/>
    </g>
   </g>
   <g id="legend_1">
    <g id="patch_7">
     <path d="M 436.5 131.34 
L 511.4 131.34 
Q 513.4 131.34 513.4 129.34 
L 513.4 58.84 
Q 513.4 56.84 511.4 56.84 
L 436.5 56.84 
Q 434.5 56.84 434.5 58.84 
L 434.5 129.34 
Q 434.5 131.34 436.5 131.34 
z
" style="fill:#ffffff;opacity:0.8;stroke:#cccccc;stroke-linejoin:miter;"/>
    </g>
    <g id="line2d_31">
     <path d="M 438.5 67.34 
L 458.5 67.34 
" style="fill:none;stroke:#bf00bf;stroke-linecap:square;stroke-width:1.5;"/>
    </g>
    <g id="line2d_32"/>
    <g id="text_17">
     <!-- $\partial \mathcal{L}/ \partial \mu^{P_{\mathrm{max}}}_{1}$ -->
     <g transform="translate(466.5 70.84)scale(0.1 -0.1)">
      <use transform="translate(0 0.593906)" xlink:href="#DejaVuSans-2202"/>
      <use transform="translate(51.708984 0.593906)" xlink:href="#STIXNonUnicode-Italic-e238"/>
      <use transform="translate(121.008972 0.593906)" xlink:href="#DejaVuSans-2f"/>
      <use transform="translate(154.700378 0.593906)" xlink:href="#DejaVuSans-2202"/>
      <use transform="translate(206.409363 0.593906)" xlink:href="#DejaVuSans-Oblique-3bc"/>
      <use transform="translate(274.498556 48.965625)scale(0.7)" xlink:href="#DejaVuSans-Oblique-50"/>
      <use transform="translate(316.71047 37.48125)scale(0.49)" xlink:href="#DejaVuSans-6d"/>
      <use transform="translate(364.442403 37.48125)scale(0.49)" xlink:href="#DejaVuSans-61"/>
      <use transform="translate(394.469259 37.48125)scale(0.49)" xlink:href="#DejaVuSans-78"/>
      <use transform="translate(270.03241 -26.749844)scale(0.7)" xlink:href="#DejaVuSans-31"/>
     </g>
    </g>
    <g id="line2d_33">
     <path d="M 438.5 85.24 
L 458.5 85.24 
" style="fill:none;stroke:#00bfbf;stroke-linecap:square;stroke-width:1.5;"/>
    </g>
    <g id="line2d_34"/>
    <g id="text_18">
     <!-- $\partial \mathcal{L}/ \partial \mu^{P_{\mathrm{max}}}_{2}$ -->
     <g transform="translate(466.5 88.74)scale(0.1 -0.1)">
      <use transform="translate(0 0.675156)" xlink:href="#DejaVuSans-2202"/>
      <use transform="translate(51.708984 0.675156)" xlink:href="#STIXNonUnicode-Italic-e238"/>
      <use transform="translate(121.008972 0.675156)" xlink:href="#DejaVuSans-2f"/>
      <use transform="translate(154.700378 0.675156)" xlink:href="#DejaVuSans-2202"/>
      <use transform="translate(206.409363 0.675156)" xlink:href="#DejaVuSans-Oblique-3bc"/>
      <use transform="translate(274.498556 49.965625)scale(0.7)" xlink:href="#DejaVuSans-Oblique-50"/>
      <use transform="translate(316.71047 38.48125)scale(0.49)" xlink:href="#DejaVuSans-6d"/>
      <use transform="translate(364.442403 38.48125)scale(0.49)" xlink:href="#DejaVuSans-61"/>
      <use transform="translate(394.469259 38.48125)scale(0.49)" xlink:href="#DejaVuSans-78"/>
      <use transform="translate(270.03241 -26.668594)scale(0.7)" xlink:href="#DejaVuSans-32"/>
     </g>
    </g>
    <g id="line2d_35">
     <path d="M 438.5 103.14 
L 458.5 103.14 
" style="fill:none;stroke:#ff0000;stroke-linecap:square;stroke-width:1.5;"/>
    </g>
    <g id="line2d_36"/>
    <g id="text_19">
     <!-- $\partial \mathcal{L}/ \partial \mu^{P_{\mathrm{max}}}_{3}$ -->
     <g transform="translate(466.5 106.64)scale(0.1 -0.1)">
      <use transform="translate(0 0.675156)" xlink:href="#DejaVuSans-2202"/>
      <use transform="translate(51.708984 0.675156)" xlink:href="#STIXNonUnicode-Italic-e238"/>
      <use transform="translate(121.008972 0.675156)" xlink:href="#DejaVuSans-2f"/>
      <use transform="translate(154.700378 0.675156)" xlink:href="#DejaVuSans-2202"/>
      <use transform="translate(206.409363 0.675156)" xlink:href="#DejaVuSans-Oblique-3bc"/>
      <use transform="translate(274.498556 49.965625)scale(0.7)" xlink:href="#DejaVuSans-Oblique-50"/>
      <use transform="translate(316.71047 38.48125)scale(0.49)" xlink:href="#DejaVuSans-6d"/>
      <use transform="translate(364.442403 38.48125)scale(0.49)" xlink:href="#DejaVuSans-61"/>
      <use transform="translate(394.469259 38.48125)scale(0.49)" xlink:href="#DejaVuSans-78"/>
      <use transform="translate(270.03241 -26.668594)scale(0.7)" xlink:href="#DejaVuSans-33"/>
     </g>
    </g>
    <g id="line2d_37">
     <path d="M 438.5 121.04 
L 458.5 121.04 
" style="fill:none;stroke:#008000;stroke-linecap:square;stroke-width:1.5;"/>
    </g>
    <g id="line2d_38"/>
    <g id="text_20">
     <!-- $\partial \mathcal{L}/ \partial \mu^{P_{\mathrm{max}}}_{4}$ -->
     <g transform="translate(466.5 124.54)scale(0.1 -0.1)">
      <use transform="translate(0 0.593906)" xlink:href="#DejaVuSans-2202"/>
      <use transform="translate(51.708984 0.593906)" xlink:href="#STIXNonUnicode-Italic-e238"/>
      <use transform="translate(121.008972 0.593906)" xlink:href="#DejaVuSans-2f"/>
      <use transform="translate(154.700378 0.593906)" xlink:href="#DejaVuSans-2202"/>
      <use transform="translate(206.409363 0.593906)" xlink:href="#DejaVuSans-Oblique-3bc"/>
      <use transform="translate(274.498556 48.965625)scale(0.7)" xlink:href="#DejaVuSans-Oblique-50"/>
      <use transform="translate(316.71047 37.48125)scale(0.49)" xlink:href="#DejaVuSans-6d"/>
      <use transform="translate(364.442403 37.48125)scale(0.49)" xlink:href="#DejaVuSans-61"/>
      <use transform="translate(394.469259 37.48125)scale(0.49)" xlink:href="#DejaVuSans-78"/>
      <use transform="translate(270.03241 -26.749844)scale(0.7)" xlink:href="#DejaVuSans-34"/>
     </g>
    </g>
   </g>
  </g>
 </g>
 <defs>
  <clipPath id="pd778e03801">
   <rect height="332.64" width="446.4" x="72" y="51.84"/>
  </clipPath>
 </defs>
</svg>
