<?xml version="1.0" encoding="utf-8" standalone="no"?>
<!DOCTYPE svg PUBLIC "-//W3C//DTD SVG 1.1//EN"
  "http://www.w3.org/Graphics/SVG/1.1/DTD/svg11.dtd">
<!-- Created with matplotlib (http://matplotlib.org/) -->
<svg height="432pt" version="1.1" viewBox="0 0 576 432" width="576pt" xmlns="http://www.w3.org/2000/svg" xmlns:xlink="http://www.w3.org/1999/xlink">
 <defs>
  <style type="text/css">
*{stroke-linecap:butt;stroke-linejoin:round;}
  </style>
 </defs>
 <g id="figure_1">
  <g id="patch_1">
   <path d="M 0 432 
L 576 432 
L 576 0 
L 0 0 
z
" style="fill:#ffffff;"/>
  </g>
  <g id="axes_1">
   <g id="patch_2">
    <path d="M 72 384.48 
L 518.4 384.48 
L 518.4 51.84 
L 72 51.84 
z
" style="fill:#ffffff;"/>
   </g>
   <g id="matplotlib.axis_1">
    <g id="xtick_1">
     <g id="line2d_1">
      <path clip-path="url(#p217086c07f)" d="M 92.290909 384.48 
L 92.290909 51.84 
" style="fill:none;stroke:#b0b0b0;stroke-dasharray:5.12,1.28,0.8,1.28;stroke-dashoffset:0;stroke-width:0.8;"/>
     </g>
     <g id="line2d_2">
      <defs>
       <path d="M 0 0 
L 0 3.5 
" id="mafde7c3d9d" style="stroke:#000000;stroke-width:0.8;"/>
      </defs>
      <g>
       <use style="stroke:#000000;stroke-width:0.8;" x="92.290909" xlink:href="#mafde7c3d9d" y="384.48"/>
      </g>
     </g>
     <g id="text_1">
      <!-- 0 -->
      <defs>
       <path d="M 31.78125 66.40625 
Q 24.171875 66.40625 20.328125 58.90625 
Q 16.5 51.421875 16.5 36.375 
Q 16.5 21.390625 20.328125 13.890625 
Q 24.171875 6.390625 31.78125 6.390625 
Q 39.453125 6.390625 43.28125 13.890625 
Q 47.125 21.390625 47.125 36.375 
Q 47.125 51.421875 43.28125 58.90625 
Q 39.453125 66.40625 31.78125 66.40625 
z
M 31.78125 74.21875 
Q 44.046875 74.21875 50.515625 64.515625 
Q 56.984375 54.828125 56.984375 36.375 
Q 56.984375 17.96875 50.515625 8.265625 
Q 44.046875 -1.421875 31.78125 -1.421875 
Q 19.53125 -1.421875 13.0625 8.265625 
Q 6.59375 17.96875 6.59375 36.375 
Q 6.59375 54.828125 13.0625 64.515625 
Q 19.53125 74.21875 31.78125 74.21875 
z
" id="DejaVuSans-30"/>
      </defs>
      <g transform="translate(89.109659 399.078438)scale(0.1 -0.1)">
       <use xlink:href="#DejaVuSans-30"/>
      </g>
     </g>
    </g>
    <g id="xtick_2">
     <g id="line2d_3">
      <path clip-path="url(#p217086c07f)" d="M 155.635665 384.48 
L 155.635665 51.84 
" style="fill:none;stroke:#b0b0b0;stroke-dasharray:5.12,1.28,0.8,1.28;stroke-dashoffset:0;stroke-width:0.8;"/>
     </g>
     <g id="line2d_4">
      <g>
       <use style="stroke:#000000;stroke-width:0.8;" x="155.635665" xlink:href="#mafde7c3d9d" y="384.48"/>
      </g>
     </g>
     <g id="text_2">
      <!-- 2000 -->
      <defs>
       <path d="M 19.1875 8.296875 
L 53.609375 8.296875 
L 53.609375 0 
L 7.328125 0 
L 7.328125 8.296875 
Q 12.9375 14.109375 22.625 23.890625 
Q 32.328125 33.6875 34.8125 36.53125 
Q 39.546875 41.84375 41.421875 45.53125 
Q 43.3125 49.21875 43.3125 52.78125 
Q 43.3125 58.59375 39.234375 62.25 
Q 35.15625 65.921875 28.609375 65.921875 
Q 23.96875 65.921875 18.8125 64.3125 
Q 13.671875 62.703125 7.8125 59.421875 
L 7.8125 69.390625 
Q 13.765625 71.78125 18.9375 73 
Q 24.125 74.21875 28.421875 74.21875 
Q 39.75 74.21875 46.484375 68.546875 
Q 53.21875 62.890625 53.21875 53.421875 
Q 53.21875 48.921875 51.53125 44.890625 
Q 49.859375 40.875 45.40625 35.40625 
Q 44.1875 33.984375 37.640625 27.21875 
Q 31.109375 20.453125 19.1875 8.296875 
z
" id="DejaVuSans-32"/>
      </defs>
      <g transform="translate(142.910665 399.078438)scale(0.1 -0.1)">
       <use xlink:href="#DejaVuSans-32"/>
       <use x="63.623047" xlink:href="#DejaVuSans-30"/>
       <use x="127.246094" xlink:href="#DejaVuSans-30"/>
       <use x="190.869141" xlink:href="#DejaVuSans-30"/>
      </g>
     </g>
    </g>
    <g id="xtick_3">
     <g id="line2d_5">
      <path clip-path="url(#p217086c07f)" d="M 218.980422 384.48 
L 218.980422 51.84 
" style="fill:none;stroke:#b0b0b0;stroke-dasharray:5.12,1.28,0.8,1.28;stroke-dashoffset:0;stroke-width:0.8;"/>
     </g>
     <g id="line2d_6">
      <g>
       <use style="stroke:#000000;stroke-width:0.8;" x="218.980422" xlink:href="#mafde7c3d9d" y="384.48"/>
      </g>
     </g>
     <g id="text_3">
      <!-- 4000 -->
      <defs>
       <path d="M 37.796875 64.3125 
L 12.890625 25.390625 
L 37.796875 25.390625 
z
M 35.203125 72.90625 
L 47.609375 72.90625 
L 47.609375 25.390625 
L 58.015625 25.390625 
L 58.015625 17.1875 
L 47.609375 17.1875 
L 47.609375 0 
L 37.796875 0 
L 37.796875 17.1875 
L 4.890625 17.1875 
L 4.890625 26.703125 
z
" id="DejaVuSans-34"/>
      </defs>
      <g transform="translate(206.255422 399.078438)scale(0.1 -0.1)">
       <use xlink:href="#DejaVuSans-34"/>
       <use x="63.623047" xlink:href="#DejaVuSans-30"/>
       <use x="127.246094" xlink:href="#DejaVuSans-30"/>
       <use x="190.869141" xlink:href="#DejaVuSans-30"/>
      </g>
     </g>
    </g>
    <g id="xtick_4">
     <g id="line2d_7">
      <path clip-path="url(#p217086c07f)" d="M 282.325178 384.48 
L 282.325178 51.84 
" style="fill:none;stroke:#b0b0b0;stroke-dasharray:5.12,1.28,0.8,1.28;stroke-dashoffset:0;stroke-width:0.8;"/>
     </g>
     <g id="line2d_8">
      <g>
       <use style="stroke:#000000;stroke-width:0.8;" x="282.325178" xlink:href="#mafde7c3d9d" y="384.48"/>
      </g>
     </g>
     <g id="text_4">
      <!-- 6000 -->
      <defs>
       <path d="M 33.015625 40.375 
Q 26.375 40.375 22.484375 35.828125 
Q 18.609375 31.296875 18.609375 23.390625 
Q 18.609375 15.53125 22.484375 10.953125 
Q 26.375 6.390625 33.015625 6.390625 
Q 39.65625 6.390625 43.53125 10.953125 
Q 47.40625 15.53125 47.40625 23.390625 
Q 47.40625 31.296875 43.53125 35.828125 
Q 39.65625 40.375 33.015625 40.375 
z
M 52.59375 71.296875 
L 52.59375 62.3125 
Q 48.875 64.0625 45.09375 64.984375 
Q 41.3125 65.921875 37.59375 65.921875 
Q 27.828125 65.921875 22.671875 59.328125 
Q 17.53125 52.734375 16.796875 39.40625 
Q 19.671875 43.65625 24.015625 45.921875 
Q 28.375 48.1875 33.59375 48.1875 
Q 44.578125 48.1875 50.953125 41.515625 
Q 57.328125 34.859375 57.328125 23.390625 
Q 57.328125 12.15625 50.6875 5.359375 
Q 44.046875 -1.421875 33.015625 -1.421875 
Q 20.359375 -1.421875 13.671875 8.265625 
Q 6.984375 17.96875 6.984375 36.375 
Q 6.984375 53.65625 15.1875 63.9375 
Q 23.390625 74.21875 37.203125 74.21875 
Q 40.921875 74.21875 44.703125 73.484375 
Q 48.484375 72.75 52.59375 71.296875 
z
" id="DejaVuSans-36"/>
      </defs>
      <g transform="translate(269.600178 399.078438)scale(0.1 -0.1)">
       <use xlink:href="#DejaVuSans-36"/>
       <use x="63.623047" xlink:href="#DejaVuSans-30"/>
       <use x="127.246094" xlink:href="#DejaVuSans-30"/>
       <use x="190.869141" xlink:href="#DejaVuSans-30"/>
      </g>
     </g>
    </g>
    <g id="xtick_5">
     <g id="line2d_9">
      <path clip-path="url(#p217086c07f)" d="M 345.669935 384.48 
L 345.669935 51.84 
" style="fill:none;stroke:#b0b0b0;stroke-dasharray:5.12,1.28,0.8,1.28;stroke-dashoffset:0;stroke-width:0.8;"/>
     </g>
     <g id="line2d_10">
      <g>
       <use style="stroke:#000000;stroke-width:0.8;" x="345.669935" xlink:href="#mafde7c3d9d" y="384.48"/>
      </g>
     </g>
     <g id="text_5">
      <!-- 8000 -->
      <defs>
       <path d="M 31.78125 34.625 
Q 24.75 34.625 20.71875 30.859375 
Q 16.703125 27.09375 16.703125 20.515625 
Q 16.703125 13.921875 20.71875 10.15625 
Q 24.75 6.390625 31.78125 6.390625 
Q 38.8125 6.390625 42.859375 10.171875 
Q 46.921875 13.96875 46.921875 20.515625 
Q 46.921875 27.09375 42.890625 30.859375 
Q 38.875 34.625 31.78125 34.625 
z
M 21.921875 38.8125 
Q 15.578125 40.375 12.03125 44.71875 
Q 8.5 49.078125 8.5 55.328125 
Q 8.5 64.0625 14.71875 69.140625 
Q 20.953125 74.21875 31.78125 74.21875 
Q 42.671875 74.21875 48.875 69.140625 
Q 55.078125 64.0625 55.078125 55.328125 
Q 55.078125 49.078125 51.53125 44.71875 
Q 48 40.375 41.703125 38.8125 
Q 48.828125 37.15625 52.796875 32.3125 
Q 56.78125 27.484375 56.78125 20.515625 
Q 56.78125 9.90625 50.3125 4.234375 
Q 43.84375 -1.421875 31.78125 -1.421875 
Q 19.734375 -1.421875 13.25 4.234375 
Q 6.78125 9.90625 6.78125 20.515625 
Q 6.78125 27.484375 10.78125 32.3125 
Q 14.796875 37.15625 21.921875 38.8125 
z
M 18.3125 54.390625 
Q 18.3125 48.734375 21.84375 45.5625 
Q 25.390625 42.390625 31.78125 42.390625 
Q 38.140625 42.390625 41.71875 45.5625 
Q 45.3125 48.734375 45.3125 54.390625 
Q 45.3125 60.0625 41.71875 63.234375 
Q 38.140625 66.40625 31.78125 66.40625 
Q 25.390625 66.40625 21.84375 63.234375 
Q 18.3125 60.0625 18.3125 54.390625 
z
" id="DejaVuSans-38"/>
      </defs>
      <g transform="translate(332.944935 399.078438)scale(0.1 -0.1)">
       <use xlink:href="#DejaVuSans-38"/>
       <use x="63.623047" xlink:href="#DejaVuSans-30"/>
       <use x="127.246094" xlink:href="#DejaVuSans-30"/>
       <use x="190.869141" xlink:href="#DejaVuSans-30"/>
      </g>
     </g>
    </g>
    <g id="xtick_6">
     <g id="line2d_11">
      <path clip-path="url(#p217086c07f)" d="M 409.014691 384.48 
L 409.014691 51.84 
" style="fill:none;stroke:#b0b0b0;stroke-dasharray:5.12,1.28,0.8,1.28;stroke-dashoffset:0;stroke-width:0.8;"/>
     </g>
     <g id="line2d_12">
      <g>
       <use style="stroke:#000000;stroke-width:0.8;" x="409.014691" xlink:href="#mafde7c3d9d" y="384.48"/>
      </g>
     </g>
     <g id="text_6">
      <!-- 10000 -->
      <defs>
       <path d="M 12.40625 8.296875 
L 28.515625 8.296875 
L 28.515625 63.921875 
L 10.984375 60.40625 
L 10.984375 69.390625 
L 28.421875 72.90625 
L 38.28125 72.90625 
L 38.28125 8.296875 
L 54.390625 8.296875 
L 54.390625 0 
L 12.40625 0 
z
" id="DejaVuSans-31"/>
      </defs>
      <g transform="translate(393.108441 399.078438)scale(0.1 -0.1)">
       <use xlink:href="#DejaVuSans-31"/>
       <use x="63.623047" xlink:href="#DejaVuSans-30"/>
       <use x="127.246094" xlink:href="#DejaVuSans-30"/>
       <use x="190.869141" xlink:href="#DejaVuSans-30"/>
       <use x="254.492188" xlink:href="#DejaVuSans-30"/>
      </g>
     </g>
    </g>
    <g id="xtick_7">
     <g id="line2d_13">
      <path clip-path="url(#p217086c07f)" d="M 472.359447 384.48 
L 472.359447 51.84 
" style="fill:none;stroke:#b0b0b0;stroke-dasharray:5.12,1.28,0.8,1.28;stroke-dashoffset:0;stroke-width:0.8;"/>
     </g>
     <g id="line2d_14">
      <g>
       <use style="stroke:#000000;stroke-width:0.8;" x="472.359447" xlink:href="#mafde7c3d9d" y="384.48"/>
      </g>
     </g>
     <g id="text_7">
      <!-- 12000 -->
      <g transform="translate(456.453197 399.078438)scale(0.1 -0.1)">
       <use xlink:href="#DejaVuSans-31"/>
       <use x="63.623047" xlink:href="#DejaVuSans-32"/>
       <use x="127.246094" xlink:href="#DejaVuSans-30"/>
       <use x="190.869141" xlink:href="#DejaVuSans-30"/>
       <use x="254.492188" xlink:href="#DejaVuSans-30"/>
      </g>
     </g>
    </g>
    <g id="text_8">
     <!-- Iteration -->
     <defs>
      <path d="M 9.8125 72.90625 
L 19.671875 72.90625 
L 19.671875 0 
L 9.8125 0 
z
" id="DejaVuSans-49"/>
      <path d="M 18.3125 70.21875 
L 18.3125 54.6875 
L 36.8125 54.6875 
L 36.8125 47.703125 
L 18.3125 47.703125 
L 18.3125 18.015625 
Q 18.3125 11.328125 20.140625 9.421875 
Q 21.96875 7.515625 27.59375 7.515625 
L 36.8125 7.515625 
L 36.8125 0 
L 27.59375 0 
Q 17.1875 0 13.234375 3.875 
Q 9.28125 7.765625 9.28125 18.015625 
L 9.28125 47.703125 
L 2.6875 47.703125 
L 2.6875 54.6875 
L 9.28125 54.6875 
L 9.28125 70.21875 
z
" id="DejaVuSans-74"/>
      <path d="M 56.203125 29.59375 
L 56.203125 25.203125 
L 14.890625 25.203125 
Q 15.484375 15.921875 20.484375 11.0625 
Q 25.484375 6.203125 34.421875 6.203125 
Q 39.59375 6.203125 44.453125 7.46875 
Q 49.3125 8.734375 54.109375 11.28125 
L 54.109375 2.78125 
Q 49.265625 0.734375 44.1875 -0.34375 
Q 39.109375 -1.421875 33.890625 -1.421875 
Q 20.796875 -1.421875 13.15625 6.1875 
Q 5.515625 13.8125 5.515625 26.8125 
Q 5.515625 40.234375 12.765625 48.109375 
Q 20.015625 56 32.328125 56 
Q 43.359375 56 49.78125 48.890625 
Q 56.203125 41.796875 56.203125 29.59375 
z
M 47.21875 32.234375 
Q 47.125 39.59375 43.09375 43.984375 
Q 39.0625 48.390625 32.421875 48.390625 
Q 24.90625 48.390625 20.390625 44.140625 
Q 15.875 39.890625 15.1875 32.171875 
z
" id="DejaVuSans-65"/>
      <path d="M 41.109375 46.296875 
Q 39.59375 47.171875 37.8125 47.578125 
Q 36.03125 48 33.890625 48 
Q 26.265625 48 22.1875 43.046875 
Q 18.109375 38.09375 18.109375 28.8125 
L 18.109375 0 
L 9.078125 0 
L 9.078125 54.6875 
L 18.109375 54.6875 
L 18.109375 46.1875 
Q 20.953125 51.171875 25.484375 53.578125 
Q 30.03125 56 36.53125 56 
Q 37.453125 56 38.578125 55.875 
Q 39.703125 55.765625 41.0625 55.515625 
z
" id="DejaVuSans-72"/>
      <path d="M 34.28125 27.484375 
Q 23.390625 27.484375 19.1875 25 
Q 14.984375 22.515625 14.984375 16.5 
Q 14.984375 11.71875 18.140625 8.90625 
Q 21.296875 6.109375 26.703125 6.109375 
Q 34.1875 6.109375 38.703125 11.40625 
Q 43.21875 16.703125 43.21875 25.484375 
L 43.21875 27.484375 
z
M 52.203125 31.203125 
L 52.203125 0 
L 43.21875 0 
L 43.21875 8.296875 
Q 40.140625 3.328125 35.546875 0.953125 
Q 30.953125 -1.421875 24.3125 -1.421875 
Q 15.921875 -1.421875 10.953125 3.296875 
Q 6 8.015625 6 15.921875 
Q 6 25.140625 12.171875 29.828125 
Q 18.359375 34.515625 30.609375 34.515625 
L 43.21875 34.515625 
L 43.21875 35.40625 
Q 43.21875 41.609375 39.140625 45 
Q 35.0625 48.390625 27.6875 48.390625 
Q 23 48.390625 18.546875 47.265625 
Q 14.109375 46.140625 10.015625 43.890625 
L 10.015625 52.203125 
Q 14.9375 54.109375 19.578125 55.046875 
Q 24.21875 56 28.609375 56 
Q 40.484375 56 46.34375 49.84375 
Q 52.203125 43.703125 52.203125 31.203125 
z
" id="DejaVuSans-61"/>
      <path d="M 9.421875 54.6875 
L 18.40625 54.6875 
L 18.40625 0 
L 9.421875 0 
z
M 9.421875 75.984375 
L 18.40625 75.984375 
L 18.40625 64.59375 
L 9.421875 64.59375 
z
" id="DejaVuSans-69"/>
      <path d="M 30.609375 48.390625 
Q 23.390625 48.390625 19.1875 42.75 
Q 14.984375 37.109375 14.984375 27.296875 
Q 14.984375 17.484375 19.15625 11.84375 
Q 23.34375 6.203125 30.609375 6.203125 
Q 37.796875 6.203125 41.984375 11.859375 
Q 46.1875 17.53125 46.1875 27.296875 
Q 46.1875 37.015625 41.984375 42.703125 
Q 37.796875 48.390625 30.609375 48.390625 
z
M 30.609375 56 
Q 42.328125 56 49.015625 48.375 
Q 55.71875 40.765625 55.71875 27.296875 
Q 55.71875 13.875 49.015625 6.21875 
Q 42.328125 -1.421875 30.609375 -1.421875 
Q 18.84375 -1.421875 12.171875 6.21875 
Q 5.515625 13.875 5.515625 27.296875 
Q 5.515625 40.765625 12.171875 48.375 
Q 18.84375 56 30.609375 56 
z
" id="DejaVuSans-6f"/>
      <path d="M 54.890625 33.015625 
L 54.890625 0 
L 45.90625 0 
L 45.90625 32.71875 
Q 45.90625 40.484375 42.875 44.328125 
Q 39.84375 48.1875 33.796875 48.1875 
Q 26.515625 48.1875 22.3125 43.546875 
Q 18.109375 38.921875 18.109375 30.90625 
L 18.109375 0 
L 9.078125 0 
L 9.078125 54.6875 
L 18.109375 54.6875 
L 18.109375 46.1875 
Q 21.34375 51.125 25.703125 53.5625 
Q 30.078125 56 35.796875 56 
Q 45.21875 56 50.046875 50.171875 
Q 54.890625 44.34375 54.890625 33.015625 
z
" id="DejaVuSans-6e"/>
     </defs>
     <g transform="translate(265.507969 415.795938)scale(0.14 -0.14)">
      <use xlink:href="#DejaVuSans-49"/>
      <use x="29.492188" xlink:href="#DejaVuSans-74"/>
      <use x="68.701172" xlink:href="#DejaVuSans-65"/>
      <use x="130.224609" xlink:href="#DejaVuSans-72"/>
      <use x="171.337891" xlink:href="#DejaVuSans-61"/>
      <use x="232.617188" xlink:href="#DejaVuSans-74"/>
      <use x="271.826172" xlink:href="#DejaVuSans-69"/>
      <use x="299.609375" xlink:href="#DejaVuSans-6f"/>
      <use x="360.791016" xlink:href="#DejaVuSans-6e"/>
     </g>
    </g>
   </g>
   <g id="matplotlib.axis_2">
    <g id="ytick_1">
     <g id="line2d_15">
      <path clip-path="url(#p217086c07f)" d="M 72 367.944522 
L 518.4 367.944522 
" style="fill:none;stroke:#b0b0b0;stroke-dasharray:5.12,1.28,0.8,1.28;stroke-dashoffset:0;stroke-width:0.8;"/>
     </g>
     <g id="line2d_16">
      <defs>
       <path d="M 0 0 
L -3.5 0 
" id="me214f143ea" style="stroke:#000000;stroke-width:0.8;"/>
      </defs>
      <g>
       <use style="stroke:#000000;stroke-width:0.8;" x="72" xlink:href="#me214f143ea" y="367.944522"/>
      </g>
     </g>
     <g id="text_9">
      <!-- −50 -->
      <defs>
       <path d="M 10.59375 35.5 
L 73.1875 35.5 
L 73.1875 27.203125 
L 10.59375 27.203125 
z
" id="DejaVuSans-2212"/>
       <path d="M 10.796875 72.90625 
L 49.515625 72.90625 
L 49.515625 64.59375 
L 19.828125 64.59375 
L 19.828125 46.734375 
Q 21.96875 47.46875 24.109375 47.828125 
Q 26.265625 48.1875 28.421875 48.1875 
Q 40.625 48.1875 47.75 41.5 
Q 54.890625 34.8125 54.890625 23.390625 
Q 54.890625 11.625 47.5625 5.09375 
Q 40.234375 -1.421875 26.90625 -1.421875 
Q 22.3125 -1.421875 17.546875 -0.640625 
Q 12.796875 0.140625 7.71875 1.703125 
L 7.71875 11.625 
Q 12.109375 9.234375 16.796875 8.0625 
Q 21.484375 6.890625 26.703125 6.890625 
Q 35.15625 6.890625 40.078125 11.328125 
Q 45.015625 15.765625 45.015625 23.390625 
Q 45.015625 31 40.078125 35.4375 
Q 35.15625 39.890625 26.703125 39.890625 
Q 22.75 39.890625 18.8125 39.015625 
Q 14.890625 38.140625 10.796875 36.28125 
z
" id="DejaVuSans-35"/>
      </defs>
      <g transform="translate(43.895313 371.743741)scale(0.1 -0.1)">
       <use xlink:href="#DejaVuSans-2212"/>
       <use x="83.789062" xlink:href="#DejaVuSans-35"/>
       <use x="147.412109" xlink:href="#DejaVuSans-30"/>
      </g>
     </g>
    </g>
    <g id="ytick_2">
     <g id="line2d_17">
      <path clip-path="url(#p217086c07f)" d="M 72 308.7195 
L 518.4 308.7195 
" style="fill:none;stroke:#b0b0b0;stroke-dasharray:5.12,1.28,0.8,1.28;stroke-dashoffset:0;stroke-width:0.8;"/>
     </g>
     <g id="line2d_18">
      <g>
       <use style="stroke:#000000;stroke-width:0.8;" x="72" xlink:href="#me214f143ea" y="308.7195"/>
      </g>
     </g>
     <g id="text_10">
      <!-- −40 -->
      <g transform="translate(43.895313 312.518719)scale(0.1 -0.1)">
       <use xlink:href="#DejaVuSans-2212"/>
       <use x="83.789062" xlink:href="#DejaVuSans-34"/>
       <use x="147.412109" xlink:href="#DejaVuSans-30"/>
      </g>
     </g>
    </g>
    <g id="ytick_3">
     <g id="line2d_19">
      <path clip-path="url(#p217086c07f)" d="M 72 249.494478 
L 518.4 249.494478 
" style="fill:none;stroke:#b0b0b0;stroke-dasharray:5.12,1.28,0.8,1.28;stroke-dashoffset:0;stroke-width:0.8;"/>
     </g>
     <g id="line2d_20">
      <g>
       <use style="stroke:#000000;stroke-width:0.8;" x="72" xlink:href="#me214f143ea" y="249.494478"/>
      </g>
     </g>
     <g id="text_11">
      <!-- −30 -->
      <defs>
       <path d="M 40.578125 39.3125 
Q 47.65625 37.796875 51.625 33 
Q 55.609375 28.21875 55.609375 21.1875 
Q 55.609375 10.40625 48.1875 4.484375 
Q 40.765625 -1.421875 27.09375 -1.421875 
Q 22.515625 -1.421875 17.65625 -0.515625 
Q 12.796875 0.390625 7.625 2.203125 
L 7.625 11.71875 
Q 11.71875 9.328125 16.59375 8.109375 
Q 21.484375 6.890625 26.8125 6.890625 
Q 36.078125 6.890625 40.9375 10.546875 
Q 45.796875 14.203125 45.796875 21.1875 
Q 45.796875 27.640625 41.28125 31.265625 
Q 36.765625 34.90625 28.71875 34.90625 
L 20.21875 34.90625 
L 20.21875 43.015625 
L 29.109375 43.015625 
Q 36.375 43.015625 40.234375 45.921875 
Q 44.09375 48.828125 44.09375 54.296875 
Q 44.09375 59.90625 40.109375 62.90625 
Q 36.140625 65.921875 28.71875 65.921875 
Q 24.65625 65.921875 20.015625 65.03125 
Q 15.375 64.15625 9.8125 62.3125 
L 9.8125 71.09375 
Q 15.4375 72.65625 20.34375 73.4375 
Q 25.25 74.21875 29.59375 74.21875 
Q 40.828125 74.21875 47.359375 69.109375 
Q 53.90625 64.015625 53.90625 55.328125 
Q 53.90625 49.265625 50.4375 45.09375 
Q 46.96875 40.921875 40.578125 39.3125 
z
" id="DejaVuSans-33"/>
      </defs>
      <g transform="translate(43.895313 253.293697)scale(0.1 -0.1)">
       <use xlink:href="#DejaVuSans-2212"/>
       <use x="83.789062" xlink:href="#DejaVuSans-33"/>
       <use x="147.412109" xlink:href="#DejaVuSans-30"/>
      </g>
     </g>
    </g>
    <g id="ytick_4">
     <g id="line2d_21">
      <path clip-path="url(#p217086c07f)" d="M 72 190.269457 
L 518.4 190.269457 
" style="fill:none;stroke:#b0b0b0;stroke-dasharray:5.12,1.28,0.8,1.28;stroke-dashoffset:0;stroke-width:0.8;"/>
     </g>
     <g id="line2d_22">
      <g>
       <use style="stroke:#000000;stroke-width:0.8;" x="72" xlink:href="#me214f143ea" y="190.269457"/>
      </g>
     </g>
     <g id="text_12">
      <!-- −20 -->
      <g transform="translate(43.895313 194.068675)scale(0.1 -0.1)">
       <use xlink:href="#DejaVuSans-2212"/>
       <use x="83.789062" xlink:href="#DejaVuSans-32"/>
       <use x="147.412109" xlink:href="#DejaVuSans-30"/>
      </g>
     </g>
    </g>
    <g id="ytick_5">
     <g id="line2d_23">
      <path clip-path="url(#p217086c07f)" d="M 72 131.044435 
L 518.4 131.044435 
" style="fill:none;stroke:#b0b0b0;stroke-dasharray:5.12,1.28,0.8,1.28;stroke-dashoffset:0;stroke-width:0.8;"/>
     </g>
     <g id="line2d_24">
      <g>
       <use style="stroke:#000000;stroke-width:0.8;" x="72" xlink:href="#me214f143ea" y="131.044435"/>
      </g>
     </g>
     <g id="text_13">
      <!-- −10 -->
      <g transform="translate(43.895313 134.843654)scale(0.1 -0.1)">
       <use xlink:href="#DejaVuSans-2212"/>
       <use x="83.789062" xlink:href="#DejaVuSans-31"/>
       <use x="147.412109" xlink:href="#DejaVuSans-30"/>
      </g>
     </g>
    </g>
    <g id="ytick_6">
     <g id="line2d_25">
      <path clip-path="url(#p217086c07f)" d="M 72 71.819413 
L 518.4 71.819413 
" style="fill:none;stroke:#b0b0b0;stroke-dasharray:5.12,1.28,0.8,1.28;stroke-dashoffset:0;stroke-width:0.8;"/>
     </g>
     <g id="line2d_26">
      <g>
       <use style="stroke:#000000;stroke-width:0.8;" x="72" xlink:href="#me214f143ea" y="71.819413"/>
      </g>
     </g>
     <g id="text_14">
      <!-- 0 -->
      <g transform="translate(58.6375 75.618632)scale(0.1 -0.1)">
       <use xlink:href="#DejaVuSans-30"/>
      </g>
     </g>
    </g>
    <g id="text_15">
     <!-- $\partial \mathcal{L}/ \partial \mu^{U_{\mathrm{min}}}_{m}[V]$ -->
     <defs>
      <path d="M 21.34375 -1.421875 
Q 14.453125 -1.421875 9.96875 2.734375 
Q 4.640625 7.671875 4.640625 16.609375 
Q 4.640625 25.875 9.328125 33.109375 
Q 14.15625 40.53125 22.859375 40.53125 
Q 28.5625 40.53125 33.0625 36.96875 
Q 35.6875 34.859375 37.5 31.34375 
Q 38.140625 35.296875 38.140625 39.796875 
Q 38.140625 46.390625 36.578125 50.203125 
Q 33.109375 58.640625 23.921875 58.640625 
Q 20.453125 58.640625 15.09375 56.5 
L 15.09375 64.703125 
Q 20.75 66.21875 25.828125 66.21875 
Q 38.921875 66.21875 44.484375 54.203125 
Q 47.078125 48.53125 47.078125 40.09375 
Q 47.078125 34.578125 45.84375 28.171875 
Q 42.78125 12.15625 34.8125 4.546875 
Q 28.5625 -1.421875 21.34375 -1.421875 
z
M 12.984375 15.140625 
Q 12.984375 10.25 15.140625 7.625 
Q 17.4375 4.828125 20.953125 4.828125 
Q 24.078125 4.828125 26.5625 7.03125 
Q 30.078125 10.0625 32.671875 14.984375 
Q 34.8125 19.046875 35.890625 23.390625 
Q 31.546875 33.890625 24.03125 33.890625 
Q 17.578125 33.890625 14.75 25.390625 
Q 12.984375 20.125 12.984375 15.140625 
z
" id="DejaVuSans-2202"/>
      <path d="M 63.59375 14.296875 
L 65.296875 12.5 
Q 52.296875 -0.703125 37.703125 -0.703125 
Q 33.703125 -0.703125 28.90625 0.40625 
Q 21.796875 1.90625 17.90625 1.90625 
Q 15.703125 1.90625 10.5 0.953125 
Q 5.296875 0 3 0 
L 3.59375 2.40625 
Q 9.09375 2.40625 11.40625 11.703125 
L 18.40625 40.09375 
Q 20.09375 47 23.6875 52.390625 
Q 27.296875 57.796875 31.640625 60.84375 
Q 36 63.90625 40.390625 65.453125 
Q 44.796875 67 48.796875 67 
Q 53.796875 67 56.140625 63.796875 
Q 58.5 60.59375 58.5 56 
Q 58.5 52.296875 56.140625 50 
Q 53.796875 47.703125 50.40625 47.703125 
Q 48.203125 47.703125 46.796875 49.203125 
Q 45.40625 50.703125 45.40625 52.796875 
Q 45.40625 54.40625 46.203125 55.5 
Q 47 56.59375 47.890625 56.9375 
Q 48.796875 57.296875 49.59375 57.890625 
Q 50.40625 58.5 50.40625 59.203125 
Q 50.40625 63 44.59375 63 
Q 39.40625 63 36.09375 59.140625 
Q 32.796875 55.296875 31.09375 48.9375 
Q 29.40625 42.59375 28.046875 35.6875 
Q 26.703125 28.796875 24.203125 21.296875 
Q 21.703125 13.796875 18.09375 9.203125 
L 18.09375 8.796875 
Q 21.296875 11 29.5 11 
Q 34.796875 11 38.4375 8.5 
Q 42.09375 6 46.296875 6 
Q 54.796875 6 63.59375 14.296875 
z
" id="STIXNonUnicode-Italic-e238"/>
      <path d="M 25.390625 72.90625 
L 33.6875 72.90625 
L 8.296875 -9.28125 
L 0 -9.28125 
z
" id="DejaVuSans-2f"/>
      <path d="M -1.3125 -20.796875 
L 13.375 54.6875 
L 22.40625 54.6875 
L 15.765625 20.65625 
Q 15.578125 19.625 15.421875 18.359375 
Q 15.28125 17.09375 15.28125 15.828125 
Q 15.28125 11.28125 18.140625 8.828125 
Q 21 6.390625 26.3125 6.390625 
Q 33.546875 6.390625 37.984375 10.484375 
Q 42.4375 14.59375 44 22.796875 
L 50.203125 54.6875 
L 59.1875 54.6875 
L 51.03125 12.640625 
Q 50.828125 11.71875 50.75 11.03125 
Q 50.6875 10.359375 50.6875 9.8125 
Q 50.6875 8.296875 51.296875 7.59375 
Q 51.90625 6.890625 53.21875 6.890625 
Q 53.71875 6.890625 54.5625 7.125 
Q 55.421875 7.375 56.984375 8.015625 
L 55.609375 0.78125 
Q 53.46875 -0.296875 51.515625 -0.859375 
Q 49.5625 -1.421875 47.703125 -1.421875 
Q 44.484375 -1.421875 42.65625 0.625 
Q 40.828125 2.6875 40.828125 6.296875 
Q 38.09375 2.390625 34.296875 0.484375 
Q 30.515625 -1.421875 25.390625 -1.421875 
Q 20.84375 -1.421875 17.453125 0.671875 
Q 14.0625 2.78125 12.984375 6.203125 
L 7.71875 -20.796875 
z
" id="DejaVuSans-Oblique-3bc"/>
      <path d="M 15.484375 72.90625 
L 25.390625 72.90625 
L 16.796875 28.609375 
Q 16.265625 25.640625 16.046875 23.703125 
Q 15.828125 21.78125 15.828125 20.3125 
Q 15.828125 13.578125 19.578125 10.078125 
Q 23.34375 6.59375 30.609375 6.59375 
Q 40.046875 6.59375 45.28125 11.765625 
Q 50.53125 16.9375 52.78125 28.609375 
L 61.375 72.90625 
L 71.296875 72.90625 
L 62.5 27.390625 
Q 59.625 12.640625 51.5625 5.609375 
Q 43.5 -1.421875 29.5 -1.421875 
Q 18.5625 -1.421875 12.1875 4.078125 
Q 5.8125 9.578125 5.8125 19 
Q 5.8125 20.703125 6.046875 22.828125 
Q 6.296875 24.953125 6.78125 27.390625 
z
" id="DejaVuSans-Oblique-55"/>
      <path d="M 52 44.1875 
Q 55.375 50.25 60.0625 53.125 
Q 64.75 56 71.09375 56 
Q 79.640625 56 84.28125 50.015625 
Q 88.921875 44.046875 88.921875 33.015625 
L 88.921875 0 
L 79.890625 0 
L 79.890625 32.71875 
Q 79.890625 40.578125 77.09375 44.375 
Q 74.3125 48.1875 68.609375 48.1875 
Q 61.625 48.1875 57.5625 43.546875 
Q 53.515625 38.921875 53.515625 30.90625 
L 53.515625 0 
L 44.484375 0 
L 44.484375 32.71875 
Q 44.484375 40.625 41.703125 44.40625 
Q 38.921875 48.1875 33.109375 48.1875 
Q 26.21875 48.1875 22.15625 43.53125 
Q 18.109375 38.875 18.109375 30.90625 
L 18.109375 0 
L 9.078125 0 
L 9.078125 54.6875 
L 18.109375 54.6875 
L 18.109375 46.1875 
Q 21.1875 51.21875 25.484375 53.609375 
Q 29.78125 56 35.6875 56 
Q 41.65625 56 45.828125 52.96875 
Q 50 49.953125 52 44.1875 
z
" id="DejaVuSans-6d"/>
      <path d="M 89.796875 33.015625 
L 83.40625 0 
L 74.421875 0 
L 80.71875 32.71875 
Q 81.109375 34.8125 81.296875 36.328125 
Q 81.5 37.84375 81.5 38.921875 
Q 81.5 43.3125 79.046875 45.75 
Q 76.609375 48.1875 72.21875 48.1875 
Q 65.671875 48.1875 60.546875 43.28125 
Q 55.421875 38.375 53.90625 30.515625 
L 47.90625 0 
L 38.921875 0 
L 45.3125 32.71875 
Q 45.703125 34.515625 45.890625 36.046875 
Q 46.09375 37.59375 46.09375 38.8125 
Q 46.09375 43.265625 43.65625 45.71875 
Q 41.21875 48.1875 36.921875 48.1875 
Q 30.28125 48.1875 25.140625 43.28125 
Q 20.015625 38.375 18.5 30.515625 
L 12.5 0 
L 3.515625 0 
L 14.203125 54.6875 
L 23.1875 54.6875 
L 21.484375 46.1875 
Q 25.140625 50.984375 30.046875 53.484375 
Q 34.96875 56 40.578125 56 
Q 46.53125 56 50.359375 52.875 
Q 54.203125 49.75 54.984375 44.1875 
Q 59.078125 49.953125 64.46875 52.96875 
Q 69.875 56 75.875 56 
Q 82.90625 56 86.734375 51.953125 
Q 90.578125 47.90625 90.578125 40.484375 
Q 90.578125 38.875 90.375 36.9375 
Q 90.1875 35.015625 89.796875 33.015625 
z
" id="DejaVuSans-Oblique-6d"/>
      <path d="M 8.59375 75.984375 
L 29.296875 75.984375 
L 29.296875 69 
L 17.578125 69 
L 17.578125 -6.203125 
L 29.296875 -6.203125 
L 29.296875 -13.1875 
L 8.59375 -13.1875 
z
" id="DejaVuSans-5b"/>
      <path d="M 20.609375 0 
L 7.8125 72.90625 
L 17.484375 72.90625 
L 28.078125 10.203125 
L 63.484375 72.90625 
L 74.21875 72.90625 
L 32.078125 0 
z
" id="DejaVuSans-Oblique-56"/>
      <path d="M 30.421875 75.984375 
L 30.421875 -13.1875 
L 9.71875 -13.1875 
L 9.71875 -6.203125 
L 21.390625 -6.203125 
L 21.390625 69 
L 9.71875 69 
L 9.71875 75.984375 
z
" id="DejaVuSans-5d"/>
     </defs>
     <g transform="translate(35.975313 258.06)rotate(-90)scale(0.14 -0.14)">
      <use transform="translate(0 0.684375)" xlink:href="#DejaVuSans-2202"/>
      <use transform="translate(51.708984 0.684375)" xlink:href="#STIXNonUnicode-Italic-e238"/>
      <use transform="translate(121.008972 0.684375)" xlink:href="#DejaVuSans-2f"/>
      <use transform="translate(154.700378 0.684375)" xlink:href="#DejaVuSans-2202"/>
      <use transform="translate(206.409363 0.684375)" xlink:href="#DejaVuSans-Oblique-3bc"/>
      <use transform="translate(274.498556 38.965625)scale(0.7)" xlink:href="#DejaVuSans-Oblique-55"/>
      <use transform="translate(325.733907 27.48125)scale(0.49)" xlink:href="#DejaVuSans-6d"/>
      <use transform="translate(373.465841 27.48125)scale(0.49)" xlink:href="#DejaVuSans-69"/>
      <use transform="translate(387.07961 27.48125)scale(0.49)" xlink:href="#DejaVuSans-6e"/>
      <use transform="translate(270.03241 -26.659375)scale(0.7)" xlink:href="#DejaVuSans-Oblique-6d"/>
      <use transform="translate(422.783712 0.684375)" xlink:href="#DejaVuSans-5b"/>
      <use transform="translate(461.797384 0.684375)" xlink:href="#DejaVuSans-Oblique-56"/>
      <use transform="translate(530.205587 0.684375)" xlink:href="#DejaVuSans-5d"/>
     </g>
    </g>
   </g>
   <g id="line2d_27">
    <path clip-path="url(#p217086c07f)" d="M 92.290909 71.819413 
L 92.322581 219.881968 
L 92.354254 219.881968 
L 92.354254 219.881968 
L 92.417599 219.500558 
L 92.544288 215.955941 
L 93.209408 184.348139 
L 95.426475 85.74973 
L 95.743198 78.355486 
L 95.933233 77.512714 
L 96.02825 77.664923 
L 96.218284 78.629698 
L 96.788387 83.300184 
L 97.421834 87.606435 
L 97.89692 89.481499 
L 98.213644 90.016301 
L 98.467023 90.053613 
L 98.815419 90.051836 
L 99.195488 90.356845 
L 99.638901 90.628688 
L 99.923952 90.574201 
L 100.304021 90.238395 
L 101.285864 89.225647 
L 101.507571 89.502228 
L 101.919312 90.356845 
L 102.267708 92.7981 
L 103.281224 99.860684 
L 103.566276 100.586783 
L 103.661293 100.532888 
L 103.819655 100.037175 
L 104.041361 98.413225 
L 104.358085 94.225423 
L 105.498291 77.083333 
L 105.910032 74.322855 
L 106.163411 73.843132 
L 106.321773 73.872152 
L 106.575152 74.217434 
L 107.937064 76.542016 
L 108.475494 76.983835 
L 108.823891 76.994495 
L 109.425666 76.899143 
L 110.217475 77.402556 
L 111.294336 77.978815 
L 111.991128 78.173666 
L 112.529559 78.077129 
L 114.176522 77.60096 
L 115.411745 77.66433 
L 118.198914 77.865696 
L 120.067585 77.868065 
L 120.606015 78.315213 
L 121.87291 79.420352 
L 123.044788 79.951009 
L 123.804925 80.454421 
L 125.958647 82.090216 
L 127.668956 83.043147 
L 129.569298 84.259037 
L 131.976399 85.551919 
L 133.59169 86.362709 
L 141.604802 89.838626 
L 145.120436 91.100119 
L 150.758119 92.8822 
L 153.03853 93.462013 
L 154.463787 93.825654 
L 156.585837 94.333805 
L 158.802903 94.800498 
L 165.929188 96.507363 
L 167.354445 97.265444 
L 168.811375 98.29359 
L 170.236632 99.54916 
L 171.851923 101.272609 
L 173.467214 103.31528 
L 175.209195 105.876762 
L 177.14121 109.15309 
L 179.073225 112.885451 
L 181.163602 117.436302 
L 183.412341 122.922908 
L 185.692752 129.107184 
L 188.004836 136.008676 
L 190.506954 144.184098 
L 193.040744 153.199331 
L 195.764569 163.701704 
L 198.58341 175.433589 
L 201.655631 189.192746 
L 204.822869 204.4041 
L 208.116796 221.286785 
L 211.727447 240.982658 
L 215.369771 262.04663 
L 219.392163 286.620276 
L 223.794623 314.983731 
L 226.391758 331.439403 
L 227.120223 334.210542 
L 227.848688 336.167337 
L 228.577152 337.507007 
L 229.273945 338.346817 
L 229.970737 338.856745 
L 230.699202 339.122665 
L 231.554356 339.175375 
L 232.5362 338.991186 
L 233.803095 338.499026 
L 235.481731 337.592883 
L 238.585624 335.607068 
L 244.318324 331.881814 
L 248.910819 329.178192 
L 253.883383 326.607826 
L 257.462361 324.989798 
L 260.819633 323.489628 
L 262.783321 322.72681 
L 264.113561 322.465035 
L 265.475473 322.447268 
L 267.375816 322.700751 
L 268.959435 322.857697 
L 270.76476 322.714965 
L 273.013499 322.310458 
L 276.117392 321.560077 
L 279.126268 320.886689 
L 280.899921 320.764685 
L 283.085315 320.874844 
L 285.555761 320.948875 
L 288.437947 320.67644 
L 296.672766 319.709295 
L 299.554952 319.819454 
L 301.708674 319.791026 
L 306.364513 319.419093 
L 310.545267 319.061373 
L 313.427454 319.06315 
L 318.336672 319.044198 
L 328.503506 318.582835 
L 335.123033 318.596457 
L 344.751436 318.34712 
L 350.00905 318.334682 
L 364.356638 318.177144 
L 379.749414 318.066393 
L 388.332628 318.016644 
L 452.247487 317.905893 
L 458.423601 317.901155 
L 497.919057 317.890495 
L 497.919057 317.890495 
" style="fill:none;stroke:#bf00bf;stroke-linecap:square;stroke-width:1.5;"/>
   </g>
   <g id="line2d_28">
    <path clip-path="url(#p217086c07f)" d="M 92.290909 71.819413 
L 92.322581 219.881968 
L 92.385926 219.881968 
L 92.385926 219.881968 
L 92.449271 219.485752 
L 92.607633 215.290252 
L 93.462787 180.022343 
L 95.933233 79.904221 
L 96.154939 78.183142 
L 96.218284 78.154121 
L 96.249956 78.194987 
L 96.408318 78.811519 
L 96.788387 81.656689 
L 97.548524 87.046166 
L 98.118627 89.907919 
L 98.43535 90.47411 
L 98.688729 91.400982 
L 99.987297 96.896472 
L 100.335693 97.422982 
L 100.620745 97.505897 
L 100.937468 97.33296 
L 101.792623 96.686815 
L 101.88764 96.968134 
L 102.109346 98.683291 
L 102.806139 106.620036 
L 103.027845 115.292948 
L 104.136379 164.074822 
L 104.42143 168.333693 
L 104.579792 168.829406 
L 104.674809 168.551641 
L 105.054878 165.908428 
L 105.846687 160.203874 
L 106.100066 159.598595 
L 106.226755 159.612809 
L 106.385117 159.928478 
L 108.728873 167.139124 
L 109.140614 167.649052 
L 110.660888 168.863757 
L 111.769422 169.639013 
L 112.307852 169.772269 
L 112.846283 169.668625 
L 114.176522 169.284847 
L 115.253383 169.271817 
L 117.122054 169.486212 
L 118.420621 169.546029 
L 120.796049 169.521747 
L 121.619531 169.473775 
L 122.252979 169.188902 
L 123.99496 168.24071 
L 126.307043 167.482629 
L 127.542266 166.93539 
L 135.650395 164.472222 
L 145.785556 162.121581 
L 153.101875 160.864233 
L 154.875528 160.589429 
L 156.807543 160.338315 
L 158.992938 160.022646 
L 164.21888 159.448755 
L 165.54912 159.480737 
L 166.847687 159.71053 
L 168.304617 160.203282 
L 169.793219 160.963731 
L 171.250148 161.959896 
L 172.73875 163.236195 
L 174.417386 164.989256 
L 176.222711 167.246914 
L 178.059709 169.940468 
L 179.896707 173.032606 
L 181.892067 176.84196 
L 184.045789 181.478687 
L 186.231183 186.737276 
L 188.416577 192.548435 
L 190.823678 199.582591 
L 193.230778 207.271184 
L 195.859586 216.404866 
L 198.520066 226.415672 
L 201.433924 238.244686 
L 204.4428 251.383164 
L 207.515021 265.733979 
L 210.903965 282.621402 
L 214.704651 302.820688 
L 218.441991 323.914272 
L 222.401039 347.511297 
L 225.916673 368.449119 
L 226.423431 368.790848 
L 227.34193 369.101187 
L 228.767187 369.309659 
L 230.825891 369.354077 
L 236.051834 369.047884 
L 246.440374 368.382195 
L 254.073417 368.064749 
L 259.521066 367.75441 
L 263.195062 367.110634 
L 264.588646 367.169266 
L 266.045576 367.441702 
L 268.674383 367.97295 
L 273.361895 367.950444 
L 275.547289 367.799421 
L 279.569681 367.458877 
L 281.311662 367.568443 
L 285.80914 367.962289 
L 290.971738 367.853315 
L 295.247509 367.643067 
L 297.939661 367.803566 
L 300.72683 367.955182 
L 307.219668 367.845616 
L 310.798646 367.755594 
L 314.916055 367.943337 
L 317.006432 367.951037 
L 324.16439 367.840286 
L 328.978591 367.861015 
L 334.299551 367.94926 
L 498.077419 367.94393 
L 498.077419 367.94393 
" style="fill:none;stroke:#00bfbf;stroke-linecap:square;stroke-width:1.5;"/>
   </g>
   <g id="line2d_29">
    <path clip-path="url(#p217086c07f)" d="M 92.290909 71.819413 
L 92.322581 219.881968 
L 92.385926 219.881968 
L 92.385926 219.881968 
L 92.449271 219.610717 
L 92.607633 216.625776 
L 93.082719 201.083353 
L 94.191252 155.885778 
L 96.02825 81.761517 
L 96.281629 79.847957 
L 96.376646 79.815975 
L 96.503335 80.164219 
L 96.788387 81.953407 
L 98.086954 91.296154 
L 98.43535 92.310678 
L 98.783747 93.582832 
L 100.082314 98.903016 
L 100.43071 99.339504 
L 100.684089 99.357864 
L 101.000813 99.133993 
L 101.444226 98.812993 
L 101.475899 98.818916 
L 101.570916 103.824615 
L 101.855967 121.86811 
L 102.331053 135.370823 
L 102.964501 147.342569 
L 103.692965 157.141941 
L 104.009689 159.230807 
L 104.136379 159.421512 
L 104.168051 159.404337 
L 104.29474 159.062608 
L 104.484775 157.727676 
L 104.801498 153.488941 
L 105.846687 138.017589 
L 106.258428 134.82003 
L 106.575152 133.793068 
L 106.796858 133.636714 
L 106.986893 133.762271 
L 107.303616 134.325501 
L 107.968736 136.133049 
L 108.823891 138.322006 
L 109.267304 138.852069 
L 110.407509 140.229643 
L 111.516043 141.443756 
L 112.117818 141.841156 
L 112.592904 141.900381 
L 113.163006 141.715599 
L 114.239867 141.32886 
L 115.158366 141.269043 
L 116.583623 141.456786 
L 118.388949 141.652821 
L 122.094617 141.479884 
L 122.949771 140.924945 
L 123.86827 140.407911 
L 124.786769 140.199439 
L 125.768613 139.928188 
L 128.714144 138.780407 
L 129.886022 138.3836 
L 131.59633 137.76529 
L 144.075247 134.61215 
L 149.776276 133.550838 
L 151.043171 133.362502 
L 152.816824 133.011298 
L 155.065563 132.692075 
L 156.902561 132.458728 
L 159.056282 132.14602 
L 164.313897 131.569761 
L 165.802499 131.62484 
L 167.196084 131.918004 
L 168.621341 132.456952 
L 170.07827 133.257674 
L 171.535199 134.310695 
L 173.182163 135.807311 
L 174.670765 137.438368 
L 176.444418 139.729192 
L 178.249744 142.448213 
L 180.055069 145.557526 
L 182.018757 149.381094 
L 184.014116 153.73591 
L 186.167838 158.964295 
L 188.511594 165.272352 
L 190.85535 172.216485 
L 193.420813 180.538193 
L 196.017948 189.715703 
L 198.836789 200.517754 
L 201.718976 212.445082 
L 204.886214 226.551889 
L 208.148469 242.138731 
L 211.537413 259.421184 
L 215.084719 278.647403 
L 218.82206 300.095153 
L 222.781107 324.068849 
L 226.486776 346.464199 
L 227.183568 348.800626 
L 227.848688 350.329816 
L 228.513808 351.35737 
L 229.178928 352.015952 
L 229.907392 352.42579 
L 230.635857 352.599319 
L 231.554356 352.579775 
L 232.757906 352.290756 
L 234.436542 351.609669 
L 237.762142 349.932416 
L 243.209791 347.305786 
L 247.073821 345.764751 
L 250.11437 344.746081 
L 253.344952 343.8352 
L 256.923931 343.01138 
L 263.670148 341.735081 
L 264.968715 341.844055 
L 266.710696 342.248562 
L 269.086124 342.800539 
L 270.89145 342.85858 
L 273.615274 342.696895 
L 280.646542 342.14551 
L 283.402039 342.513298 
L 285.587433 342.729469 
L 288.627982 342.676759 
L 292.080271 342.436897 
L 294.804095 342.291204 
L 297.337886 342.401362 
L 301.581984 342.686827 
L 306.016117 342.576668 
L 310.925336 342.410246 
L 314.662676 342.59029 
L 317.766569 342.654845 
L 322.70746 342.544687 
L 327.553334 342.474209 
L 330.372176 342.583775 
L 333.507741 342.648923 
L 340.855733 342.538172 
L 344.94147 342.572523 
L 349.248913 342.622864 
L 497.982401 342.603912 
L 497.982401 342.603912 
" style="fill:none;stroke:#ff0000;stroke-linecap:square;stroke-width:1.5;"/>
   </g>
   <g id="line2d_30">
    <path clip-path="url(#p217086c07f)" d="M 92.290909 71.819413 
L 92.322581 219.881968 
L 92.354254 219.881968 
L 92.354254 219.881968 
L 92.480943 214.998272 
L 94.222924 134.239033 
L 95.584836 78.149976 
L 95.838215 75.978194 
L 95.933233 75.871589 
L 95.964905 75.891726 
L 96.123267 76.29031 
L 96.471663 78.103188 
L 97.35849 82.777819 
L 97.833575 84.192112 
L 98.181971 84.657029 
L 98.467023 84.707962 
L 98.815419 84.762449 
L 99.322177 85.193607 
L 99.733918 85.394973 
L 100.050642 85.320349 
L 100.525727 84.929464 
L 101.254192 84.342544 
L 101.507571 84.604318 
L 101.88764 85.361807 
L 102.267708 88.040554 
L 103.471259 96.430371 
L 103.692965 96.818295 
L 103.819655 96.631736 
L 104.009689 95.708418 
L 104.29474 92.831859 
L 104.769826 84.999349 
L 105.403274 76.832219 
L 105.815015 73.877483 
L 106.068394 73.285232 
L 106.258428 73.243183 
L 106.511807 73.4558 
L 108.253788 75.4428 
L 108.665529 75.612776 
L 109.07727 75.517423 
L 109.362321 75.56125 
L 110.312492 76.108489 
L 111.642732 76.733905 
L 112.181163 76.806752 
L 112.751265 76.651583 
L 113.859799 76.312223 
L 114.93666 76.300378 
L 118.80069 76.482199 
L 120.099257 76.469169 
L 120.701032 76.725614 
L 121.746221 77.191715 
L 122.474686 77.248571 
L 123.488202 77.332078 
L 124.406701 77.699865 
L 125.515234 78.119771 
L 140.274562 81.04371 
L 154.938873 82.852442 
L 156.934233 83.075128 
L 160.861608 83.40442 
L 165.074034 83.83084 
L 166.372602 84.234754 
L 167.797859 84.90992 
L 169.223116 85.832053 
L 170.680045 87.030768 
L 172.263664 88.629843 
L 173.847283 90.537481 
L 175.620936 93.040331 
L 177.362917 95.875432 
L 179.294932 99.456177 
L 181.226947 103.494139 
L 183.317324 108.374873 
L 185.566063 114.216829 
L 187.846474 120.759418 
L 190.31692 128.54277 
L 192.819037 137.151127 
L 195.542862 147.337831 
L 198.330031 158.620789 
L 201.338907 171.752161 
L 204.474473 186.452996 
L 207.705055 202.645117 
L 211.062327 220.550026 
L 214.577961 240.420021 
L 218.537009 264.093446 
L 222.749435 290.690811 
L 226.486776 314.230388 
L 227.21524 316.81023 
L 227.943705 318.610671 
L 228.640497 319.784511 
L 229.33729 320.551475 
L 230.065754 321.022314 
L 230.825891 321.243223 
L 231.712718 321.247961 
L 232.789579 321.000401 
L 234.214836 320.40815 
L 236.241868 319.301235 
L 241.46781 316.143949 
L 245.236823 314.017771 
L 249.924335 311.687266 
L 253.344952 310.210194 
L 256.923931 308.857494 
L 263.258407 306.72184 
L 264.620319 306.629449 
L 266.140593 306.79291 
L 269.339503 307.282701 
L 271.176501 307.173727 
L 274.185377 306.725394 
L 276.75084 306.181708 
L 279.316302 305.764764 
L 281.1533 305.736928 
L 283.243677 305.925264 
L 285.397399 306.05852 
L 288.152896 305.89802 
L 292.301977 305.398753 
L 295.152491 305.135794 
L 297.337886 305.163038 
L 301.898708 305.309916 
L 306.427858 305.029781 
L 310.608612 304.750239 
L 313.680833 304.803542 
L 317.829914 304.848553 
L 322.422409 304.651926 
L 327.521662 304.476027 
L 331.987467 304.586778 
L 335.439756 304.541175 
L 350.642498 304.367646 
L 366.225308 304.256895 
L 374.396782 304.214253 
L 379.781086 304.204185 
L 496.715506 304.093434 
L 497.919057 304.092841 
L 497.919057 304.092841 
" style="fill:none;stroke:#008000;stroke-linecap:square;stroke-width:1.5;"/>
   </g>
   <g id="line2d_31">
    <path clip-path="url(#p217086c07f)" d="M 92.290909 71.819413 
L 92.322581 219.881968 
L 92.322581 219.881968 
L 92.322581 219.881968 
L 92.544288 195.048916 
L 93.114391 166.330703 
L 95.299785 69.882755 
L 95.679854 67.400042 
L 95.90156 66.968292 
L 96.059922 67.015672 
L 96.344973 67.449791 
L 97.516851 69.516152 
L 98.02361 69.962709 
L 99.923952 70.659195 
L 100.5574 70.581018 
L 101.380882 70.467306 
L 101.88764 70.716643 
L 102.489415 72.167656 
L 102.869483 74.698934 
L 103.439586 79.913697 
L 103.819655 82.377458 
L 103.978017 82.642786 
L 104.009689 82.631533 
L 104.136379 82.364428 
L 104.326413 81.303708 
L 104.643137 77.990068 
L 105.308257 71.4765 
L 105.529963 70.916231 
L 105.910032 70.472044 
L 106.226755 70.428217 
L 106.670169 70.629582 
L 108.158771 71.395362 
L 108.823891 71.521511 
L 109.837407 71.629301 
L 112.561231 72.036177 
L 113.796454 71.774994 
L 116.01352 71.801646 
L 120.891067 72.000049 
L 121.682876 72.113761 
L 122.506358 71.972214 
L 123.583219 71.818229 
L 124.565062 71.943193 
L 125.610251 72.008341 
L 128.207386 71.923057 
L 129.569298 71.942009 
L 131.628003 71.896406 
L 133.306639 71.912989 
L 136.347187 71.909435 
L 165.327413 72.017817 
L 166.657653 72.379089 
L 168.051238 72.98733 
L 169.476495 73.855569 
L 170.901752 74.972553 
L 172.485371 76.508258 
L 174.06899 78.354302 
L 175.652609 80.510093 
L 177.426262 83.293077 
L 179.326604 86.706215 
L 181.226947 90.564132 
L 183.317324 95.319902 
L 185.566063 101.029786 
L 187.846474 107.443856 
L 190.285247 114.989124 
L 192.945727 124.017978 
L 195.637879 133.985549 
L 198.393376 145.033977 
L 201.402252 158.051045 
L 204.506145 172.489513 
L 207.89509 189.382266 
L 211.442396 208.272086 
L 214.95803 228.151557 
L 218.885405 251.646123 
L 223.066159 278.052192 
L 226.328414 298.442774 
L 226.993534 300.591458 
L 227.721998 302.200602 
L 228.450463 303.279682 
L 229.178928 303.97143 
L 229.939065 304.385413 
L 230.730874 304.57138 
L 231.712718 304.554204 
L 232.916268 304.285915 
L 234.468215 303.706102 
L 237.223712 302.400783 
L 243.273136 299.469736 
L 247.612252 297.643829 
L 251.44461 296.257963 
L 255.467002 295.019568 
L 263.511786 292.875622 
L 264.810353 292.885098 
L 266.3623 293.140358 
L 269.086124 293.64081 
L 270.923122 293.599944 
L 274.343739 293.232749 
L 280.266474 292.454532 
L 282.230161 292.599042 
L 285.239037 292.883914 
L 288.184568 292.773755 
L 291.351806 292.487106 
L 294.424027 292.194535 
L 296.926145 292.209341 
L 302.437138 292.408929 
L 306.174479 292.228885 
L 310.893663 291.98547 
L 314.187591 292.095037 
L 317.10145 292.148931 
L 324.449441 291.900779 
L 328.408489 291.863467 
L 337.118393 291.915585 
L 346.335055 291.853398 
L 351.180928 291.833262 
L 359.954177 291.779367 
L 365.623533 291.775221 
L 373.604972 291.736725 
L 498.077419 291.67217 
L 498.077419 291.67217 
" style="fill:none;stroke:#0000ff;stroke-linecap:square;stroke-width:1.5;"/>
   </g>
   <g id="line2d_32">
    <path clip-path="url(#p217086c07f)" d="M 92.290909 71.819413 
L 92.322581 219.881968 
L 92.322581 219.881968 
L 92.322581 219.881968 
L 92.57596 199.414392 
L 93.652821 151.121125 
L 95.584836 69.862026 
L 95.869888 68.948776 
L 96.059922 68.887774 
L 96.281629 69.11283 
L 96.820059 70.135646 
L 97.516851 71.283427 
L 98.02361 71.772625 
L 98.752074 72.277222 
L 99.353849 73.388876 
L 99.797263 73.963951 
L 100.113987 74.07411 
L 100.462383 73.946184 
L 101.254192 73.519171 
L 101.697605 74.114975 
L 101.792623 75.104625 
L 102.932828 90.073157 
L 103.502931 94.750157 
L 103.75631 95.528966 
L 103.851327 95.498169 
L 103.978017 95.144003 
L 104.199723 93.617182 
L 104.516447 89.503412 
L 105.593308 73.551153 
L 105.910032 71.381148 
L 106.226755 71.232493 
L 106.638496 71.304155 
L 107.905392 71.917727 
L 108.855563 72.797218 
L 109.235631 72.971932 
L 111.674405 74.89023 
L 112.212835 75.02171 
L 112.751265 74.907998 
L 114.176522 74.462034 
L 115.253383 74.468548 
L 118.895707 74.702487 
L 120.225947 74.685904 
L 121.112773 74.9613 
L 121.841238 75.065536 
L 122.569703 74.916289 
L 123.583219 74.720847 
L 124.406701 74.829229 
L 125.578579 74.982621 
L 128.555782 74.922212 
L 129.72766 74.923989 
L 131.469641 74.870686 
L 133.908414 74.896745 
L 135.523705 74.914513 
L 137.487393 74.91392 
L 142.459956 74.931688 
L 149.30119 74.948863 
L 165.42243 75.155559 
L 166.784343 75.545259 
L 168.2096 76.193773 
L 169.793219 77.205929 
L 171.218476 78.379769 
L 172.802094 79.97766 
L 174.385713 81.885298 
L 176.159367 84.389332 
L 177.901347 87.226802 
L 179.80169 90.748915 
L 181.733705 94.784507 
L 183.824082 99.664649 
L 186.072821 105.506605 
L 188.353232 112.051563 
L 190.823678 119.839061 
L 193.325796 128.45334 
L 196.017948 138.525147 
L 198.805117 149.808698 
L 201.813993 162.942439 
L 205.10792 178.41853 
L 208.528537 195.658341 
L 211.917482 213.859967 
L 215.654822 235.163208 
L 219.645542 259.252393 
L 223.921313 286.495311 
L 226.391758 301.915137 
L 227.120223 304.632974 
L 227.848688 306.523436 
L 228.577152 307.793221 
L 229.273945 308.572622 
L 229.970737 309.032801 
L 230.699202 309.258448 
L 231.554356 309.279769 
L 232.631217 309.048791 
L 233.993129 308.50096 
L 235.893472 307.492358 
L 244.983444 302.349257 
L 248.625768 300.633508 
L 252.869867 298.927827 
L 256.290483 297.767017 
L 262.846666 295.797785 
L 264.145233 295.689995 
L 265.443801 295.797785 
L 267.597522 296.271585 
L 269.022779 296.504339 
L 270.796433 296.494863 
L 273.836981 296.156689 
L 276.370771 295.713093 
L 279.126268 295.310363 
L 281.058283 295.311548 
L 283.845452 295.630178 
L 285.460744 295.729676 
L 287.582793 295.659791 
L 292.428667 295.18599 
L 295.152491 294.989363 
L 297.432903 295.057472 
L 301.645329 295.261206 
L 305.826083 295.073463 
L 310.988681 294.798067 
L 314.187591 294.908225 
L 317.259811 294.969819 
L 323.752649 294.737657 
L 328.408489 294.673102 
L 337.150065 294.726997 
L 343.294506 294.60677 
L 351.149256 294.642897 
L 370.659441 294.532146 
L 375.283608 294.555836 
L 380.446206 294.541622 
L 498.109091 294.476475 
L 498.109091 294.476475 
" style="fill:none;stroke:#000000;stroke-linecap:square;stroke-width:1.5;"/>
   </g>
   <g id="line2d_33">
    <path clip-path="url(#p217086c07f)" d="M 92.290909 71.819413 
L 92.322581 219.881968 
L 92.354254 219.881968 
L 92.354254 219.881968 
L 92.57596 211.527094 
L 95.869888 77.818908 
L 96.091594 76.380924 
L 96.186612 76.33236 
L 96.218284 76.367895 
L 96.376646 76.827481 
L 96.788387 79.03539 
L 97.706886 83.734303 
L 98.150299 85.444129 
L 98.625385 86.62863 
L 100.018969 91.915055 
L 100.367366 92.32963 
L 100.652417 92.36102 
L 101.000813 92.146033 
L 101.539244 91.790683 
L 101.665933 91.711913 
L 101.729278 91.664533 
L 101.76095 91.718428 
L 101.919312 92.671951 
L 102.42607 98.024116 
L 102.964501 105.267929 
L 103.407914 117.544683 
L 104.009689 132.60383 
L 104.326413 136.038289 
L 104.453102 136.340336 
L 104.484775 136.322569 
L 104.611464 135.899702 
L 104.991533 133.016628 
L 105.878359 125.954044 
L 106.195083 124.978016 
L 106.385117 124.882664 
L 106.543479 125.075145 
L 107.08191 126.373357 
L 108.792218 130.789175 
L 109.203959 131.188944 
L 110.217475 131.958869 
L 111.642732 133.020182 
L 112.212835 133.207925 
L 112.719593 133.143962 
L 114.429901 132.709842 
L 115.633452 132.749523 
L 118.578983 132.972802 
L 120.510998 132.936082 
L 121.556187 132.949704 
L 122.189634 132.697997 
L 124.121649 131.739144 
L 125.926975 131.258237 
L 127.827317 130.488312 
L 130.044384 129.838613 
L 131.532986 129.368367 
L 133.876742 128.730513 
L 135.618722 128.290471 
L 146.133952 126.044066 
L 153.671978 124.887402 
L 158.169456 124.272054 
L 160.196488 124.043445 
L 165.42243 123.663813 
L 166.87936 123.934471 
L 168.336289 124.457428 
L 169.761546 125.214324 
L 171.218476 126.238917 
L 172.707077 127.548974 
L 174.322369 129.27183 
L 175.93766 131.309171 
L 177.742985 133.957714 
L 179.548311 136.998326 
L 181.511998 140.750231 
L 183.634048 145.322995 
L 185.78777 150.511107 
L 188.099853 156.688869 
L 190.633643 164.174912 
L 193.167434 172.398899 
L 195.922931 182.165697 
L 198.741772 193.025789 
L 201.623959 205.015303 
L 204.759524 219.046895 
L 208.021779 234.70066 
L 211.600758 253.061601 
L 215.148064 272.428184 
L 219.107111 295.341752 
L 223.097831 319.738908 
L 226.01169 337.376711 
L 226.518448 338.511463 
L 227.151895 339.389178 
L 227.912033 340.050721 
L 228.798859 340.499055 
L 229.780703 340.732993 
L 230.984253 340.779781 
L 232.5362 340.612174 
L 235.260024 340.043022 
L 243.938256 338.047731 
L 248.404061 337.242271 
L 255.593691 336.278087 
L 259.996152 335.675769 
L 262.688304 335.133268 
L 263.986871 335.09714 
L 265.285439 335.255271 
L 267.217454 335.729071 
L 268.706056 336.00506 
L 270.954794 336.021643 
L 274.787152 335.841599 
L 279.82306 335.385566 
L 281.660058 335.529483 
L 285.492416 335.919776 
L 290.243273 335.810802 
L 295.437543 335.531852 
L 297.939661 335.688206 
L 300.980209 335.861735 
L 306.554548 335.750985 
L 310.893663 335.618321 
L 314.884383 335.803695 
L 317.228139 335.825608 
L 323.214219 335.71545 
L 327.521662 335.664516 
L 338.575322 335.761053 
L 342.819421 335.712488 
L 497.982401 335.765199 
L 497.982401 335.765199 
" style="fill:none;stroke:#bfbf00;stroke-linecap:square;stroke-width:1.5;"/>
   </g>
   <g id="line2d_34">
    <path clip-path="url(#p217086c07f)" d="M 92.290909 71.819413 
L 92.322581 219.881968 
L 92.322581 219.881968 
L 92.322581 219.881968 
L 92.57596 203.234406 
L 95.806543 70.385575 
L 96.02825 69.867949 
L 96.186612 69.857288 
L 96.408318 70.119655 
L 97.326817 71.878638 
L 97.516851 72.69239 
L 98.150299 75.538744 
L 98.43535 76.402837 
L 100.145659 83.407381 
L 100.462383 83.687515 
L 100.715762 83.653757 
L 101.09583 83.330981 
L 101.444226 83.079866 
L 101.665933 83.097634 
L 101.729278 83.657903 
L 103.154535 106.777574 
L 104.073034 122.649288 
L 104.29474 123.7106 
L 104.389758 123.679803 
L 104.516447 123.190605 
L 104.769826 120.918733 
L 106.068394 107.851324 
L 106.385117 106.868781 
L 106.575152 106.788235 
L 106.765186 106.980716 
L 107.113582 107.734059 
L 107.968736 110.332852 
L 108.728873 112.338212 
L 109.140614 112.865907 
L 110.312492 114.018426 
L 111.516043 115.141924 
L 112.117818 115.451671 
L 112.592904 115.457001 
L 113.353041 115.173906 
L 114.239867 114.937598 
L 115.158366 114.909762 
L 116.741985 115.108166 
L 118.357276 115.242015 
L 122.062945 115.003338 
L 122.949771 114.414049 
L 123.804925 113.951501 
L 124.786769 113.71697 
L 125.73694 113.413146 
L 128.270731 112.345911 
L 129.695988 111.886325 
L 131.818037 111.131206 
L 133.655035 110.573306 
L 135.58705 110.004746 
L 147.464192 107.231238 
L 153.576961 106.200723 
L 155.128907 105.91585 
L 156.934233 105.690203 
L 162.033486 105.006746 
L 164.693966 104.767477 
L 166.024206 104.874674 
L 167.449463 105.225879 
L 168.87472 105.821683 
L 170.299977 106.662678 
L 171.756906 107.775516 
L 173.372197 109.310629 
L 174.987489 111.162003 
L 176.60278 113.330231 
L 178.376433 116.076495 
L 180.308448 119.50207 
L 182.272136 123.446457 
L 184.394185 128.230654 
L 186.674596 133.971928 
L 188.98668 140.422125 
L 191.330436 147.598421 
L 194.022588 156.623722 
L 196.778085 166.710927 
L 199.786961 178.685042 
L 202.827509 191.774957 
L 205.994747 206.434334 
L 209.257002 222.58559 
L 212.899325 241.826615 
L 216.700011 263.19441 
L 220.722403 287.159816 
L 224.808139 312.829717 
L 226.106707 320.46323 
L 226.67681 322.250049 
L 227.310257 323.541746 
L 228.00705 324.470395 
L 228.735514 325.078043 
L 229.495651 325.436355 
L 230.382478 325.605146 
L 231.427667 325.573757 
L 232.726234 325.320274 
L 234.816611 324.659915 
L 245.205151 321.086869 
L 249.575939 319.975216 
L 254.073417 319.079141 
L 263.986871 317.5233 
L 265.380456 317.710451 
L 267.407488 318.238738 
L 268.801073 318.517688 
L 270.543054 318.570398 
L 274.312067 318.389762 
L 280.456508 317.926622 
L 282.293506 318.138648 
L 285.334054 318.485114 
L 288.722999 318.437734 
L 292.555356 318.184251 
L 295.279181 318.090675 
L 297.812971 318.247029 
L 301.296933 318.462016 
L 306.332841 318.35245 
L 310.798646 318.210902 
L 314.631004 318.392723 
L 316.816398 318.444841 
L 323.024184 318.33409 
L 327.458317 318.279011 
L 338.828701 318.382062 
L 342.882765 318.341197 
L 352.257789 318.405753 
L 359.067351 318.388577 
L 366.193636 318.411083 
L 372.971525 318.3945 
L 379.939448 318.414044 
L 498.077419 318.414044 
L 498.077419 318.414044 
" style="fill:none;stroke:#bf00bf;stroke-linecap:square;stroke-width:1.5;"/>
   </g>
   <g id="line2d_35">
    <path clip-path="url(#p217086c07f)" d="M 92.290909 71.819413 
L 92.322581 219.881968 
L 92.354254 219.881968 
L 92.354254 219.881968 
L 92.512616 215.873618 
L 93.24108 189.811055 
L 94.793027 123.922626 
L 95.869888 81.253959 
L 96.154939 78.215123 
L 96.313301 77.860365 
L 96.344973 77.868657 
L 96.471663 78.104372 
L 96.725042 79.230832 
L 98.340333 87.672175 
L 98.688729 88.789751 
L 100.177331 94.290571 
L 100.494055 94.527471 
L 100.779106 94.452255 
L 101.507571 94.029388 
L 101.602588 94.502004 
L 101.729278 98.865704 
L 102.109346 110.736175 
L 102.742794 123.329191 
L 103.62962 136.080338 
L 103.978017 138.860953 
L 104.136379 139.210973 
L 104.168051 139.201497 
L 104.29474 138.887604 
L 104.484775 137.585838 
L 104.801498 133.437126 
L 105.815015 119.143167 
L 106.195083 116.405194 
L 106.511807 115.410214 
L 106.733514 115.246753 
L 106.923548 115.35395 
L 107.240272 115.863877 
L 107.905392 117.528693 
L 108.823891 119.760291 
L 109.298976 120.285025 
L 110.502527 121.677998 
L 111.547715 122.740495 
L 112.14949 123.089922 
L 112.624576 123.113612 
L 113.289696 122.865459 
L 114.239867 122.557489 
L 115.158366 122.509517 
L 116.615296 122.700222 
L 118.325604 122.879081 
L 122.157962 122.699037 
L 123.108133 122.096126 
L 123.899943 121.717086 
L 124.850114 121.544741 
L 125.800285 121.290666 
L 128.492437 120.298055 
L 129.664315 119.968171 
L 131.881382 119.255694 
L 133.71838 118.765903 
L 135.682067 118.255976 
L 145.658866 116.129798 
L 153.545289 114.915092 
L 155.16058 114.653318 
L 156.680854 114.479788 
L 158.676214 114.220975 
L 161.051642 113.97756 
L 164.979017 113.648269 
L 166.277585 113.802846 
L 167.702842 114.206169 
L 169.128099 114.852906 
L 170.585028 115.766156 
L 172.041957 116.934666 
L 173.498887 118.359027 
L 175.114178 120.23883 
L 176.761142 122.479904 
L 178.534795 125.260519 
L 180.34012 128.480584 
L 182.272136 132.361007 
L 184.394185 137.139282 
L 186.547907 142.536458 
L 188.85999 148.939867 
L 191.39378 156.672879 
L 193.927571 165.143241 
L 196.683068 175.177144 
L 199.501909 186.307895 
L 202.57413 199.411431 
L 205.741368 213.948805 
L 209.003623 229.973911 
L 212.42424 247.875859 
L 216.224925 269.022745 
L 219.993938 291.225021 
L 224.301381 318.004207 
L 226.328414 330.222329 
L 227.025206 332.668322 
L 227.721998 334.326623 
L 228.387118 335.386159 
L 229.052238 336.073169 
L 229.74903 336.498404 
L 230.572512 336.718129 
L 231.491011 336.711022 
L 232.662889 336.450432 
L 234.088146 335.912077 
L 236.621937 334.701517 
L 242.322965 331.947554 
L 245.648564 330.57531 
L 248.752457 329.473725 
L 253.18659 328.18025 
L 256.892259 327.324449 
L 263.828509 326.010245 
L 265.158749 326.144094 
L 267.090764 326.617894 
L 268.991107 327.037799 
L 270.76476 327.09584 
L 274.407084 326.849464 
L 280.139784 326.317031 
L 282.008454 326.495298 
L 285.524088 326.911058 
L 287.8045 326.886183 
L 291.826892 326.625593 
L 294.86744 326.450879 
L 296.894472 326.522542 
L 302.437138 326.826958 
L 307.853115 326.614933 
L 311.970524 326.569922 
L 319.698585 326.749374 
L 329.833746 326.66942 
L 333.34938 326.757073 
L 340.602354 326.646322 
L 344.94147 326.675342 
L 352.162772 326.699625 
L 359.19404 326.678304 
L 366.161963 326.697848 
L 497.982401 326.688964 
L 497.982401 326.688964 
" style="fill:none;stroke:#00bfbf;stroke-linecap:square;stroke-width:1.5;"/>
   </g>
   <g id="patch_3">
    <path d="M 72 384.48 
L 72 51.84 
" style="fill:none;stroke:#000000;stroke-linecap:square;stroke-linejoin:miter;stroke-width:0.8;"/>
   </g>
   <g id="patch_4">
    <path d="M 518.4 384.48 
L 518.4 51.84 
" style="fill:none;stroke:#000000;stroke-linecap:square;stroke-linejoin:miter;stroke-width:0.8;"/>
   </g>
   <g id="patch_5">
    <path d="M 72 384.48 
L 518.4 384.48 
" style="fill:none;stroke:#000000;stroke-linecap:square;stroke-linejoin:miter;stroke-width:0.8;"/>
   </g>
   <g id="patch_6">
    <path d="M 72 51.84 
L 518.4 51.84 
" style="fill:none;stroke:#000000;stroke-linecap:square;stroke-linejoin:miter;stroke-width:0.8;"/>
   </g>
   <g id="text_16">
    <!-- $\partial \mathcal{L}/ \partial \mu^{U_{\mathrm{min}}}_{m}$ -->
    <g transform="translate(265.59 45.84)scale(0.14 -0.14)">
     <use transform="translate(0 0.684375)" xlink:href="#DejaVuSans-2202"/>
     <use transform="translate(51.708984 0.684375)" xlink:href="#STIXNonUnicode-Italic-e238"/>
     <use transform="translate(121.008972 0.684375)" xlink:href="#DejaVuSans-2f"/>
     <use transform="translate(154.700378 0.684375)" xlink:href="#DejaVuSans-2202"/>
     <use transform="translate(206.409363 0.684375)" xlink:href="#DejaVuSans-Oblique-3bc"/>
     <use transform="translate(274.498556 38.965625)scale(0.7)" xlink:href="#DejaVuSans-Oblique-55"/>
     <use transform="translate(325.733907 27.48125)scale(0.49)" xlink:href="#DejaVuSans-6d"/>
     <use transform="translate(373.465841 27.48125)scale(0.49)" xlink:href="#DejaVuSans-69"/>
     <use transform="translate(387.07961 27.48125)scale(0.49)" xlink:href="#DejaVuSans-6e"/>
     <use transform="translate(270.03241 -26.659375)scale(0.7)" xlink:href="#DejaVuSans-Oblique-6d"/>
    </g>
   </g>
   <g id="legend_1">
    <g id="patch_7">
     <path d="M 437.1 220.14 
L 511.4 220.14 
Q 513.4 220.14 513.4 218.14 
L 513.4 58.84 
Q 513.4 56.84 511.4 56.84 
L 437.1 56.84 
Q 435.1 56.84 435.1 58.84 
L 435.1 218.14 
Q 435.1 220.14 437.1 220.14 
z
" style="fill:#ffffff;opacity:0.8;stroke:#cccccc;stroke-linejoin:miter;"/>
    </g>
    <g id="line2d_36">
     <path d="M 439.1 67.24 
L 459.1 67.24 
" style="fill:none;stroke:#bf00bf;stroke-linecap:square;stroke-width:1.5;"/>
    </g>
    <g id="line2d_37"/>
    <g id="text_17">
     <!-- $\partial \mathcal{L}/ \partial \mu^{U_{\mathrm{min}}}_{1}$ -->
     <g transform="translate(467.1 70.74)scale(0.1 -0.1)">
      <use transform="translate(0 0.290625)" xlink:href="#DejaVuSans-2202"/>
      <use transform="translate(51.708984 0.290625)" xlink:href="#STIXNonUnicode-Italic-e238"/>
      <use transform="translate(121.008972 0.290625)" xlink:href="#DejaVuSans-2f"/>
      <use transform="translate(154.700378 0.290625)" xlink:href="#DejaVuSans-2202"/>
      <use transform="translate(206.409363 0.290625)" xlink:href="#DejaVuSans-Oblique-3bc"/>
      <use transform="translate(274.498556 47.965625)scale(0.7)" xlink:href="#DejaVuSans-Oblique-55"/>
      <use transform="translate(325.733907 36.48125)scale(0.49)" xlink:href="#DejaVuSans-6d"/>
      <use transform="translate(373.465841 36.48125)scale(0.49)" xlink:href="#DejaVuSans-69"/>
      <use transform="translate(387.07961 36.48125)scale(0.49)" xlink:href="#DejaVuSans-6e"/>
      <use transform="translate(270.03241 -27.053125)scale(0.7)" xlink:href="#DejaVuSans-31"/>
     </g>
    </g>
    <g id="line2d_38">
     <path d="M 439.1 85.04 
L 459.1 85.04 
" style="fill:none;stroke:#00bfbf;stroke-linecap:square;stroke-width:1.5;"/>
    </g>
    <g id="line2d_39"/>
    <g id="text_18">
     <!-- $\partial \mathcal{L}/ \partial \mu^{U_{\mathrm{min}}}_{2}$ -->
     <g transform="translate(467.1 88.54)scale(0.1 -0.1)">
      <use transform="translate(0 0.371875)" xlink:href="#DejaVuSans-2202"/>
      <use transform="translate(51.708984 0.371875)" xlink:href="#STIXNonUnicode-Italic-e238"/>
      <use transform="translate(121.008972 0.371875)" xlink:href="#DejaVuSans-2f"/>
      <use transform="translate(154.700378 0.371875)" xlink:href="#DejaVuSans-2202"/>
      <use transform="translate(206.409363 0.371875)" xlink:href="#DejaVuSans-Oblique-3bc"/>
      <use transform="translate(274.498556 48.965625)scale(0.7)" xlink:href="#DejaVuSans-Oblique-55"/>
      <use transform="translate(325.733907 37.48125)scale(0.49)" xlink:href="#DejaVuSans-6d"/>
      <use transform="translate(373.465841 37.48125)scale(0.49)" xlink:href="#DejaVuSans-69"/>
      <use transform="translate(387.07961 37.48125)scale(0.49)" xlink:href="#DejaVuSans-6e"/>
      <use transform="translate(270.03241 -26.971875)scale(0.7)" xlink:href="#DejaVuSans-32"/>
     </g>
    </g>
    <g id="line2d_40">
     <path d="M 439.1 102.84 
L 459.1 102.84 
" style="fill:none;stroke:#ff0000;stroke-linecap:square;stroke-width:1.5;"/>
    </g>
    <g id="line2d_41"/>
    <g id="text_19">
     <!-- $\partial \mathcal{L}/ \partial \mu^{U_{\mathrm{min}}}_{3}$ -->
     <g transform="translate(467.1 106.34)scale(0.1 -0.1)">
      <use transform="translate(0 0.371875)" xlink:href="#DejaVuSans-2202"/>
      <use transform="translate(51.708984 0.371875)" xlink:href="#STIXNonUnicode-Italic-e238"/>
      <use transform="translate(121.008972 0.371875)" xlink:href="#DejaVuSans-2f"/>
      <use transform="translate(154.700378 0.371875)" xlink:href="#DejaVuSans-2202"/>
      <use transform="translate(206.409363 0.371875)" xlink:href="#DejaVuSans-Oblique-3bc"/>
      <use transform="translate(274.498556 48.965625)scale(0.7)" xlink:href="#DejaVuSans-Oblique-55"/>
      <use transform="translate(325.733907 37.48125)scale(0.49)" xlink:href="#DejaVuSans-6d"/>
      <use transform="translate(373.465841 37.48125)scale(0.49)" xlink:href="#DejaVuSans-69"/>
      <use transform="translate(387.07961 37.48125)scale(0.49)" xlink:href="#DejaVuSans-6e"/>
      <use transform="translate(270.03241 -26.971875)scale(0.7)" xlink:href="#DejaVuSans-33"/>
     </g>
    </g>
    <g id="line2d_42">
     <path d="M 439.1 120.64 
L 459.1 120.64 
" style="fill:none;stroke:#008000;stroke-linecap:square;stroke-width:1.5;"/>
    </g>
    <g id="line2d_43"/>
    <g id="text_20">
     <!-- $\partial \mathcal{L}/ \partial \mu^{U_{\mathrm{min}}}_{4}$ -->
     <g transform="translate(467.1 124.14)scale(0.1 -0.1)">
      <use transform="translate(0 0.290625)" xlink:href="#DejaVuSans-2202"/>
      <use transform="translate(51.708984 0.290625)" xlink:href="#STIXNonUnicode-Italic-e238"/>
      <use transform="translate(121.008972 0.290625)" xlink:href="#DejaVuSans-2f"/>
      <use transform="translate(154.700378 0.290625)" xlink:href="#DejaVuSans-2202"/>
      <use transform="translate(206.409363 0.290625)" xlink:href="#DejaVuSans-Oblique-3bc"/>
      <use transform="translate(274.498556 47.965625)scale(0.7)" xlink:href="#DejaVuSans-Oblique-55"/>
      <use transform="translate(325.733907 36.48125)scale(0.49)" xlink:href="#DejaVuSans-6d"/>
      <use transform="translate(373.465841 36.48125)scale(0.49)" xlink:href="#DejaVuSans-69"/>
      <use transform="translate(387.07961 36.48125)scale(0.49)" xlink:href="#DejaVuSans-6e"/>
      <use transform="translate(270.03241 -27.053125)scale(0.7)" xlink:href="#DejaVuSans-34"/>
     </g>
    </g>
    <g id="line2d_44">
     <path d="M 439.1 138.34 
L 459.1 138.34 
" style="fill:none;stroke:#0000ff;stroke-linecap:square;stroke-width:1.5;"/>
    </g>
    <g id="line2d_45"/>
    <g id="text_21">
     <!-- $\partial \mathcal{L}/ \partial \mu^{U_{\mathrm{min}}}_{5}$ -->
     <g transform="translate(467.1 141.84)scale(0.1 -0.1)">
      <use transform="translate(0 0.290625)" xlink:href="#DejaVuSans-2202"/>
      <use transform="translate(51.708984 0.290625)" xlink:href="#STIXNonUnicode-Italic-e238"/>
      <use transform="translate(121.008972 0.290625)" xlink:href="#DejaVuSans-2f"/>
      <use transform="translate(154.700378 0.290625)" xlink:href="#DejaVuSans-2202"/>
      <use transform="translate(206.409363 0.290625)" xlink:href="#DejaVuSans-Oblique-3bc"/>
      <use transform="translate(274.498556 47.965625)scale(0.7)" xlink:href="#DejaVuSans-Oblique-55"/>
      <use transform="translate(325.733907 36.48125)scale(0.49)" xlink:href="#DejaVuSans-6d"/>
      <use transform="translate(373.465841 36.48125)scale(0.49)" xlink:href="#DejaVuSans-69"/>
      <use transform="translate(387.07961 36.48125)scale(0.49)" xlink:href="#DejaVuSans-6e"/>
      <use transform="translate(270.03241 -27.053125)scale(0.7)" xlink:href="#DejaVuSans-35"/>
     </g>
    </g>
    <g id="line2d_46">
     <path d="M 439.1 156.24 
L 459.1 156.24 
" style="fill:none;stroke:#000000;stroke-linecap:square;stroke-width:1.5;"/>
    </g>
    <g id="line2d_47"/>
    <g id="text_22">
     <!-- $\partial \mathcal{L}/ \partial \mu^{U_{\mathrm{min}}}_{6}$ -->
     <g transform="translate(467.1 159.74)scale(0.1 -0.1)">
      <use transform="translate(0 0.371875)" xlink:href="#DejaVuSans-2202"/>
      <use transform="translate(51.708984 0.371875)" xlink:href="#STIXNonUnicode-Italic-e238"/>
      <use transform="translate(121.008972 0.371875)" xlink:href="#DejaVuSans-2f"/>
      <use transform="translate(154.700378 0.371875)" xlink:href="#DejaVuSans-2202"/>
      <use transform="translate(206.409363 0.371875)" xlink:href="#DejaVuSans-Oblique-3bc"/>
      <use transform="translate(274.498556 48.965625)scale(0.7)" xlink:href="#DejaVuSans-Oblique-55"/>
      <use transform="translate(325.733907 37.48125)scale(0.49)" xlink:href="#DejaVuSans-6d"/>
      <use transform="translate(373.465841 37.48125)scale(0.49)" xlink:href="#DejaVuSans-69"/>
      <use transform="translate(387.07961 37.48125)scale(0.49)" xlink:href="#DejaVuSans-6e"/>
      <use transform="translate(270.03241 -26.971875)scale(0.7)" xlink:href="#DejaVuSans-36"/>
     </g>
    </g>
    <g id="line2d_48">
     <path d="M 439.1 174.04 
L 459.1 174.04 
" style="fill:none;stroke:#bfbf00;stroke-linecap:square;stroke-width:1.5;"/>
    </g>
    <g id="line2d_49"/>
    <g id="text_23">
     <!-- $\partial \mathcal{L}/ \partial \mu^{U_{\mathrm{min}}}_{7}$ -->
     <defs>
      <path d="M 8.203125 72.90625 
L 55.078125 72.90625 
L 55.078125 68.703125 
L 28.609375 0 
L 18.3125 0 
L 43.21875 64.59375 
L 8.203125 64.59375 
z
" id="DejaVuSans-37"/>
     </defs>
     <g transform="translate(467.1 177.54)scale(0.1 -0.1)">
      <use transform="translate(0 0.290625)" xlink:href="#DejaVuSans-2202"/>
      <use transform="translate(51.708984 0.290625)" xlink:href="#STIXNonUnicode-Italic-e238"/>
      <use transform="translate(121.008972 0.290625)" xlink:href="#DejaVuSans-2f"/>
      <use transform="translate(154.700378 0.290625)" xlink:href="#DejaVuSans-2202"/>
      <use transform="translate(206.409363 0.290625)" xlink:href="#DejaVuSans-Oblique-3bc"/>
      <use transform="translate(274.498556 47.965625)scale(0.7)" xlink:href="#DejaVuSans-Oblique-55"/>
      <use transform="translate(325.733907 36.48125)scale(0.49)" xlink:href="#DejaVuSans-6d"/>
      <use transform="translate(373.465841 36.48125)scale(0.49)" xlink:href="#DejaVuSans-69"/>
      <use transform="translate(387.07961 36.48125)scale(0.49)" xlink:href="#DejaVuSans-6e"/>
      <use transform="translate(270.03241 -27.053125)scale(0.7)" xlink:href="#DejaVuSans-37"/>
     </g>
    </g>
    <g id="line2d_50">
     <path d="M 439.1 191.84 
L 459.1 191.84 
" style="fill:none;stroke:#bf00bf;stroke-linecap:square;stroke-width:1.5;"/>
    </g>
    <g id="line2d_51"/>
    <g id="text_24">
     <!-- $\partial \mathcal{L}/ \partial \mu^{U_{\mathrm{min}}}_{8}$ -->
     <g transform="translate(467.1 195.34)scale(0.1 -0.1)">
      <use transform="translate(0 0.371875)" xlink:href="#DejaVuSans-2202"/>
      <use transform="translate(51.708984 0.371875)" xlink:href="#STIXNonUnicode-Italic-e238"/>
      <use transform="translate(121.008972 0.371875)" xlink:href="#DejaVuSans-2f"/>
      <use transform="translate(154.700378 0.371875)" xlink:href="#DejaVuSans-2202"/>
      <use transform="translate(206.409363 0.371875)" xlink:href="#DejaVuSans-Oblique-3bc"/>
      <use transform="translate(274.498556 48.965625)scale(0.7)" xlink:href="#DejaVuSans-Oblique-55"/>
      <use transform="translate(325.733907 37.48125)scale(0.49)" xlink:href="#DejaVuSans-6d"/>
      <use transform="translate(373.465841 37.48125)scale(0.49)" xlink:href="#DejaVuSans-69"/>
      <use transform="translate(387.07961 37.48125)scale(0.49)" xlink:href="#DejaVuSans-6e"/>
      <use transform="translate(270.03241 -26.971875)scale(0.7)" xlink:href="#DejaVuSans-38"/>
     </g>
    </g>
    <g id="line2d_52">
     <path d="M 439.1 209.74 
L 459.1 209.74 
" style="fill:none;stroke:#00bfbf;stroke-linecap:square;stroke-width:1.5;"/>
    </g>
    <g id="line2d_53"/>
    <g id="text_25">
     <!-- $\partial \mathcal{L}/ \partial \mu^{U_{\mathrm{min}}}_{9}$ -->
     <defs>
      <path d="M 10.984375 1.515625 
L 10.984375 10.5 
Q 14.703125 8.734375 18.5 7.8125 
Q 22.3125 6.890625 25.984375 6.890625 
Q 35.75 6.890625 40.890625 13.453125 
Q 46.046875 20.015625 46.78125 33.40625 
Q 43.953125 29.203125 39.59375 26.953125 
Q 35.25 24.703125 29.984375 24.703125 
Q 19.046875 24.703125 12.671875 31.3125 
Q 6.296875 37.9375 6.296875 49.421875 
Q 6.296875 60.640625 12.9375 67.421875 
Q 19.578125 74.21875 30.609375 74.21875 
Q 43.265625 74.21875 49.921875 64.515625 
Q 56.59375 54.828125 56.59375 36.375 
Q 56.59375 19.140625 48.40625 8.859375 
Q 40.234375 -1.421875 26.421875 -1.421875 
Q 22.703125 -1.421875 18.890625 -0.6875 
Q 15.09375 0.046875 10.984375 1.515625 
z
M 30.609375 32.421875 
Q 37.25 32.421875 41.125 36.953125 
Q 45.015625 41.5 45.015625 49.421875 
Q 45.015625 57.28125 41.125 61.84375 
Q 37.25 66.40625 30.609375 66.40625 
Q 23.96875 66.40625 20.09375 61.84375 
Q 16.21875 57.28125 16.21875 49.421875 
Q 16.21875 41.5 20.09375 36.953125 
Q 23.96875 32.421875 30.609375 32.421875 
z
" id="DejaVuSans-39"/>
     </defs>
     <g transform="translate(467.1 213.24)scale(0.1 -0.1)">
      <use transform="translate(0 0.371875)" xlink:href="#DejaVuSans-2202"/>
      <use transform="translate(51.708984 0.371875)" xlink:href="#STIXNonUnicode-Italic-e238"/>
      <use transform="translate(121.008972 0.371875)" xlink:href="#DejaVuSans-2f"/>
      <use transform="translate(154.700378 0.371875)" xlink:href="#DejaVuSans-2202"/>
      <use transform="translate(206.409363 0.371875)" xlink:href="#DejaVuSans-Oblique-3bc"/>
      <use transform="translate(274.498556 48.965625)scale(0.7)" xlink:href="#DejaVuSans-Oblique-55"/>
      <use transform="translate(325.733907 37.48125)scale(0.49)" xlink:href="#DejaVuSans-6d"/>
      <use transform="translate(373.465841 37.48125)scale(0.49)" xlink:href="#DejaVuSans-69"/>
      <use transform="translate(387.07961 37.48125)scale(0.49)" xlink:href="#DejaVuSans-6e"/>
      <use transform="translate(270.03241 -26.971875)scale(0.7)" xlink:href="#DejaVuSans-39"/>
     </g>
    </g>
   </g>
  </g>
 </g>
 <defs>
  <clipPath id="p217086c07f">
   <rect height="332.64" width="446.4" x="72" y="51.84"/>
  </clipPath>
 </defs>
</svg>
