<?xml version="1.0" encoding="utf-8" standalone="no"?>
<!DOCTYPE svg PUBLIC "-//W3C//DTD SVG 1.1//EN"
  "http://www.w3.org/Graphics/SVG/1.1/DTD/svg11.dtd">
<!-- Created with matplotlib (http://matplotlib.org/) -->
<svg height="432pt" version="1.1" viewBox="0 0 576 432" width="576pt" xmlns="http://www.w3.org/2000/svg" xmlns:xlink="http://www.w3.org/1999/xlink">
 <defs>
  <style type="text/css">
*{stroke-linecap:butt;stroke-linejoin:round;}
  </style>
 </defs>
 <g id="figure_1">
  <g id="patch_1">
   <path d="M 0 432 
L 576 432 
L 576 0 
L 0 0 
z
" style="fill:#ffffff;"/>
  </g>
  <g id="axes_1">
   <g id="patch_2">
    <path d="M 72 384.48 
L 518.4 384.48 
L 518.4 51.84 
L 72 51.84 
z
" style="fill:#ffffff;"/>
   </g>
   <g id="matplotlib.axis_1">
    <g id="xtick_1">
     <g id="line2d_1">
      <path clip-path="url(#pb8f352814e)" d="M 92.290909 384.48 
L 92.290909 51.84 
" style="fill:none;stroke:#b0b0b0;stroke-dasharray:5.12,1.28,0.8,1.28;stroke-dashoffset:0;stroke-width:0.8;"/>
     </g>
     <g id="line2d_2">
      <defs>
       <path d="M 0 0 
L 0 3.5 
" id="m543c4cd5a8" style="stroke:#000000;stroke-width:0.8;"/>
      </defs>
      <g>
       <use style="stroke:#000000;stroke-width:0.8;" x="92.290909" xlink:href="#m543c4cd5a8" y="384.48"/>
      </g>
     </g>
     <g id="text_1">
      <!-- 0 -->
      <defs>
       <path d="M 31.78125 66.40625 
Q 24.171875 66.40625 20.328125 58.90625 
Q 16.5 51.421875 16.5 36.375 
Q 16.5 21.390625 20.328125 13.890625 
Q 24.171875 6.390625 31.78125 6.390625 
Q 39.453125 6.390625 43.28125 13.890625 
Q 47.125 21.390625 47.125 36.375 
Q 47.125 51.421875 43.28125 58.90625 
Q 39.453125 66.40625 31.78125 66.40625 
z
M 31.78125 74.21875 
Q 44.046875 74.21875 50.515625 64.515625 
Q 56.984375 54.828125 56.984375 36.375 
Q 56.984375 17.96875 50.515625 8.265625 
Q 44.046875 -1.421875 31.78125 -1.421875 
Q 19.53125 -1.421875 13.0625 8.265625 
Q 6.59375 17.96875 6.59375 36.375 
Q 6.59375 54.828125 13.0625 64.515625 
Q 19.53125 74.21875 31.78125 74.21875 
z
" id="DejaVuSans-30"/>
      </defs>
      <g transform="translate(89.109659 399.078438)scale(0.1 -0.1)">
       <use xlink:href="#DejaVuSans-30"/>
      </g>
     </g>
    </g>
    <g id="xtick_2">
     <g id="line2d_3">
      <path clip-path="url(#pb8f352814e)" d="M 160.449824 384.48 
L 160.449824 51.84 
" style="fill:none;stroke:#b0b0b0;stroke-dasharray:5.12,1.28,0.8,1.28;stroke-dashoffset:0;stroke-width:0.8;"/>
     </g>
     <g id="line2d_4">
      <g>
       <use style="stroke:#000000;stroke-width:0.8;" x="160.449824" xlink:href="#m543c4cd5a8" y="384.48"/>
      </g>
     </g>
     <g id="text_2">
      <!-- 500 -->
      <defs>
       <path d="M 10.796875 72.90625 
L 49.515625 72.90625 
L 49.515625 64.59375 
L 19.828125 64.59375 
L 19.828125 46.734375 
Q 21.96875 47.46875 24.109375 47.828125 
Q 26.265625 48.1875 28.421875 48.1875 
Q 40.625 48.1875 47.75 41.5 
Q 54.890625 34.8125 54.890625 23.390625 
Q 54.890625 11.625 47.5625 5.09375 
Q 40.234375 -1.421875 26.90625 -1.421875 
Q 22.3125 -1.421875 17.546875 -0.640625 
Q 12.796875 0.140625 7.71875 1.703125 
L 7.71875 11.625 
Q 12.109375 9.234375 16.796875 8.0625 
Q 21.484375 6.890625 26.703125 6.890625 
Q 35.15625 6.890625 40.078125 11.328125 
Q 45.015625 15.765625 45.015625 23.390625 
Q 45.015625 31 40.078125 35.4375 
Q 35.15625 39.890625 26.703125 39.890625 
Q 22.75 39.890625 18.8125 39.015625 
Q 14.890625 38.140625 10.796875 36.28125 
z
" id="DejaVuSans-35"/>
      </defs>
      <g transform="translate(150.906074 399.078438)scale(0.1 -0.1)">
       <use xlink:href="#DejaVuSans-35"/>
       <use x="63.623047" xlink:href="#DejaVuSans-30"/>
       <use x="127.246094" xlink:href="#DejaVuSans-30"/>
      </g>
     </g>
    </g>
    <g id="xtick_3">
     <g id="line2d_5">
      <path clip-path="url(#pb8f352814e)" d="M 228.60874 384.48 
L 228.60874 51.84 
" style="fill:none;stroke:#b0b0b0;stroke-dasharray:5.12,1.28,0.8,1.28;stroke-dashoffset:0;stroke-width:0.8;"/>
     </g>
     <g id="line2d_6">
      <g>
       <use style="stroke:#000000;stroke-width:0.8;" x="228.60874" xlink:href="#m543c4cd5a8" y="384.48"/>
      </g>
     </g>
     <g id="text_3">
      <!-- 1000 -->
      <defs>
       <path d="M 12.40625 8.296875 
L 28.515625 8.296875 
L 28.515625 63.921875 
L 10.984375 60.40625 
L 10.984375 69.390625 
L 28.421875 72.90625 
L 38.28125 72.90625 
L 38.28125 8.296875 
L 54.390625 8.296875 
L 54.390625 0 
L 12.40625 0 
z
" id="DejaVuSans-31"/>
      </defs>
      <g transform="translate(215.88374 399.078438)scale(0.1 -0.1)">
       <use xlink:href="#DejaVuSans-31"/>
       <use x="63.623047" xlink:href="#DejaVuSans-30"/>
       <use x="127.246094" xlink:href="#DejaVuSans-30"/>
       <use x="190.869141" xlink:href="#DejaVuSans-30"/>
      </g>
     </g>
    </g>
    <g id="xtick_4">
     <g id="line2d_7">
      <path clip-path="url(#pb8f352814e)" d="M 296.767655 384.48 
L 296.767655 51.84 
" style="fill:none;stroke:#b0b0b0;stroke-dasharray:5.12,1.28,0.8,1.28;stroke-dashoffset:0;stroke-width:0.8;"/>
     </g>
     <g id="line2d_8">
      <g>
       <use style="stroke:#000000;stroke-width:0.8;" x="296.767655" xlink:href="#m543c4cd5a8" y="384.48"/>
      </g>
     </g>
     <g id="text_4">
      <!-- 1500 -->
      <g transform="translate(284.042655 399.078438)scale(0.1 -0.1)">
       <use xlink:href="#DejaVuSans-31"/>
       <use x="63.623047" xlink:href="#DejaVuSans-35"/>
       <use x="127.246094" xlink:href="#DejaVuSans-30"/>
       <use x="190.869141" xlink:href="#DejaVuSans-30"/>
      </g>
     </g>
    </g>
    <g id="xtick_5">
     <g id="line2d_9">
      <path clip-path="url(#pb8f352814e)" d="M 364.92657 384.48 
L 364.92657 51.84 
" style="fill:none;stroke:#b0b0b0;stroke-dasharray:5.12,1.28,0.8,1.28;stroke-dashoffset:0;stroke-width:0.8;"/>
     </g>
     <g id="line2d_10">
      <g>
       <use style="stroke:#000000;stroke-width:0.8;" x="364.92657" xlink:href="#m543c4cd5a8" y="384.48"/>
      </g>
     </g>
     <g id="text_5">
      <!-- 2000 -->
      <defs>
       <path d="M 19.1875 8.296875 
L 53.609375 8.296875 
L 53.609375 0 
L 7.328125 0 
L 7.328125 8.296875 
Q 12.9375 14.109375 22.625 23.890625 
Q 32.328125 33.6875 34.8125 36.53125 
Q 39.546875 41.84375 41.421875 45.53125 
Q 43.3125 49.21875 43.3125 52.78125 
Q 43.3125 58.59375 39.234375 62.25 
Q 35.15625 65.921875 28.609375 65.921875 
Q 23.96875 65.921875 18.8125 64.3125 
Q 13.671875 62.703125 7.8125 59.421875 
L 7.8125 69.390625 
Q 13.765625 71.78125 18.9375 73 
Q 24.125 74.21875 28.421875 74.21875 
Q 39.75 74.21875 46.484375 68.546875 
Q 53.21875 62.890625 53.21875 53.421875 
Q 53.21875 48.921875 51.53125 44.890625 
Q 49.859375 40.875 45.40625 35.40625 
Q 44.1875 33.984375 37.640625 27.21875 
Q 31.109375 20.453125 19.1875 8.296875 
z
" id="DejaVuSans-32"/>
      </defs>
      <g transform="translate(352.20157 399.078438)scale(0.1 -0.1)">
       <use xlink:href="#DejaVuSans-32"/>
       <use x="63.623047" xlink:href="#DejaVuSans-30"/>
       <use x="127.246094" xlink:href="#DejaVuSans-30"/>
       <use x="190.869141" xlink:href="#DejaVuSans-30"/>
      </g>
     </g>
    </g>
    <g id="xtick_6">
     <g id="line2d_11">
      <path clip-path="url(#pb8f352814e)" d="M 433.085486 384.48 
L 433.085486 51.84 
" style="fill:none;stroke:#b0b0b0;stroke-dasharray:5.12,1.28,0.8,1.28;stroke-dashoffset:0;stroke-width:0.8;"/>
     </g>
     <g id="line2d_12">
      <g>
       <use style="stroke:#000000;stroke-width:0.8;" x="433.085486" xlink:href="#m543c4cd5a8" y="384.48"/>
      </g>
     </g>
     <g id="text_6">
      <!-- 2500 -->
      <g transform="translate(420.360486 399.078438)scale(0.1 -0.1)">
       <use xlink:href="#DejaVuSans-32"/>
       <use x="63.623047" xlink:href="#DejaVuSans-35"/>
       <use x="127.246094" xlink:href="#DejaVuSans-30"/>
       <use x="190.869141" xlink:href="#DejaVuSans-30"/>
      </g>
     </g>
    </g>
    <g id="xtick_7">
     <g id="line2d_13">
      <path clip-path="url(#pb8f352814e)" d="M 501.244401 384.48 
L 501.244401 51.84 
" style="fill:none;stroke:#b0b0b0;stroke-dasharray:5.12,1.28,0.8,1.28;stroke-dashoffset:0;stroke-width:0.8;"/>
     </g>
     <g id="line2d_14">
      <g>
       <use style="stroke:#000000;stroke-width:0.8;" x="501.244401" xlink:href="#m543c4cd5a8" y="384.48"/>
      </g>
     </g>
     <g id="text_7">
      <!-- 3000 -->
      <defs>
       <path d="M 40.578125 39.3125 
Q 47.65625 37.796875 51.625 33 
Q 55.609375 28.21875 55.609375 21.1875 
Q 55.609375 10.40625 48.1875 4.484375 
Q 40.765625 -1.421875 27.09375 -1.421875 
Q 22.515625 -1.421875 17.65625 -0.515625 
Q 12.796875 0.390625 7.625 2.203125 
L 7.625 11.71875 
Q 11.71875 9.328125 16.59375 8.109375 
Q 21.484375 6.890625 26.8125 6.890625 
Q 36.078125 6.890625 40.9375 10.546875 
Q 45.796875 14.203125 45.796875 21.1875 
Q 45.796875 27.640625 41.28125 31.265625 
Q 36.765625 34.90625 28.71875 34.90625 
L 20.21875 34.90625 
L 20.21875 43.015625 
L 29.109375 43.015625 
Q 36.375 43.015625 40.234375 45.921875 
Q 44.09375 48.828125 44.09375 54.296875 
Q 44.09375 59.90625 40.109375 62.90625 
Q 36.140625 65.921875 28.71875 65.921875 
Q 24.65625 65.921875 20.015625 65.03125 
Q 15.375 64.15625 9.8125 62.3125 
L 9.8125 71.09375 
Q 15.4375 72.65625 20.34375 73.4375 
Q 25.25 74.21875 29.59375 74.21875 
Q 40.828125 74.21875 47.359375 69.109375 
Q 53.90625 64.015625 53.90625 55.328125 
Q 53.90625 49.265625 50.4375 45.09375 
Q 46.96875 40.921875 40.578125 39.3125 
z
" id="DejaVuSans-33"/>
      </defs>
      <g transform="translate(488.519401 399.078438)scale(0.1 -0.1)">
       <use xlink:href="#DejaVuSans-33"/>
       <use x="63.623047" xlink:href="#DejaVuSans-30"/>
       <use x="127.246094" xlink:href="#DejaVuSans-30"/>
       <use x="190.869141" xlink:href="#DejaVuSans-30"/>
      </g>
     </g>
    </g>
    <g id="text_8">
     <!-- Iteration -->
     <defs>
      <path d="M 9.8125 72.90625 
L 19.671875 72.90625 
L 19.671875 0 
L 9.8125 0 
z
" id="DejaVuSans-49"/>
      <path d="M 18.3125 70.21875 
L 18.3125 54.6875 
L 36.8125 54.6875 
L 36.8125 47.703125 
L 18.3125 47.703125 
L 18.3125 18.015625 
Q 18.3125 11.328125 20.140625 9.421875 
Q 21.96875 7.515625 27.59375 7.515625 
L 36.8125 7.515625 
L 36.8125 0 
L 27.59375 0 
Q 17.1875 0 13.234375 3.875 
Q 9.28125 7.765625 9.28125 18.015625 
L 9.28125 47.703125 
L 2.6875 47.703125 
L 2.6875 54.6875 
L 9.28125 54.6875 
L 9.28125 70.21875 
z
" id="DejaVuSans-74"/>
      <path d="M 56.203125 29.59375 
L 56.203125 25.203125 
L 14.890625 25.203125 
Q 15.484375 15.921875 20.484375 11.0625 
Q 25.484375 6.203125 34.421875 6.203125 
Q 39.59375 6.203125 44.453125 7.46875 
Q 49.3125 8.734375 54.109375 11.28125 
L 54.109375 2.78125 
Q 49.265625 0.734375 44.1875 -0.34375 
Q 39.109375 -1.421875 33.890625 -1.421875 
Q 20.796875 -1.421875 13.15625 6.1875 
Q 5.515625 13.8125 5.515625 26.8125 
Q 5.515625 40.234375 12.765625 48.109375 
Q 20.015625 56 32.328125 56 
Q 43.359375 56 49.78125 48.890625 
Q 56.203125 41.796875 56.203125 29.59375 
z
M 47.21875 32.234375 
Q 47.125 39.59375 43.09375 43.984375 
Q 39.0625 48.390625 32.421875 48.390625 
Q 24.90625 48.390625 20.390625 44.140625 
Q 15.875 39.890625 15.1875 32.171875 
z
" id="DejaVuSans-65"/>
      <path d="M 41.109375 46.296875 
Q 39.59375 47.171875 37.8125 47.578125 
Q 36.03125 48 33.890625 48 
Q 26.265625 48 22.1875 43.046875 
Q 18.109375 38.09375 18.109375 28.8125 
L 18.109375 0 
L 9.078125 0 
L 9.078125 54.6875 
L 18.109375 54.6875 
L 18.109375 46.1875 
Q 20.953125 51.171875 25.484375 53.578125 
Q 30.03125 56 36.53125 56 
Q 37.453125 56 38.578125 55.875 
Q 39.703125 55.765625 41.0625 55.515625 
z
" id="DejaVuSans-72"/>
      <path d="M 34.28125 27.484375 
Q 23.390625 27.484375 19.1875 25 
Q 14.984375 22.515625 14.984375 16.5 
Q 14.984375 11.71875 18.140625 8.90625 
Q 21.296875 6.109375 26.703125 6.109375 
Q 34.1875 6.109375 38.703125 11.40625 
Q 43.21875 16.703125 43.21875 25.484375 
L 43.21875 27.484375 
z
M 52.203125 31.203125 
L 52.203125 0 
L 43.21875 0 
L 43.21875 8.296875 
Q 40.140625 3.328125 35.546875 0.953125 
Q 30.953125 -1.421875 24.3125 -1.421875 
Q 15.921875 -1.421875 10.953125 3.296875 
Q 6 8.015625 6 15.921875 
Q 6 25.140625 12.171875 29.828125 
Q 18.359375 34.515625 30.609375 34.515625 
L 43.21875 34.515625 
L 43.21875 35.40625 
Q 43.21875 41.609375 39.140625 45 
Q 35.0625 48.390625 27.6875 48.390625 
Q 23 48.390625 18.546875 47.265625 
Q 14.109375 46.140625 10.015625 43.890625 
L 10.015625 52.203125 
Q 14.9375 54.109375 19.578125 55.046875 
Q 24.21875 56 28.609375 56 
Q 40.484375 56 46.34375 49.84375 
Q 52.203125 43.703125 52.203125 31.203125 
z
" id="DejaVuSans-61"/>
      <path d="M 9.421875 54.6875 
L 18.40625 54.6875 
L 18.40625 0 
L 9.421875 0 
z
M 9.421875 75.984375 
L 18.40625 75.984375 
L 18.40625 64.59375 
L 9.421875 64.59375 
z
" id="DejaVuSans-69"/>
      <path d="M 30.609375 48.390625 
Q 23.390625 48.390625 19.1875 42.75 
Q 14.984375 37.109375 14.984375 27.296875 
Q 14.984375 17.484375 19.15625 11.84375 
Q 23.34375 6.203125 30.609375 6.203125 
Q 37.796875 6.203125 41.984375 11.859375 
Q 46.1875 17.53125 46.1875 27.296875 
Q 46.1875 37.015625 41.984375 42.703125 
Q 37.796875 48.390625 30.609375 48.390625 
z
M 30.609375 56 
Q 42.328125 56 49.015625 48.375 
Q 55.71875 40.765625 55.71875 27.296875 
Q 55.71875 13.875 49.015625 6.21875 
Q 42.328125 -1.421875 30.609375 -1.421875 
Q 18.84375 -1.421875 12.171875 6.21875 
Q 5.515625 13.875 5.515625 27.296875 
Q 5.515625 40.765625 12.171875 48.375 
Q 18.84375 56 30.609375 56 
z
" id="DejaVuSans-6f"/>
      <path d="M 54.890625 33.015625 
L 54.890625 0 
L 45.90625 0 
L 45.90625 32.71875 
Q 45.90625 40.484375 42.875 44.328125 
Q 39.84375 48.1875 33.796875 48.1875 
Q 26.515625 48.1875 22.3125 43.546875 
Q 18.109375 38.921875 18.109375 30.90625 
L 18.109375 0 
L 9.078125 0 
L 9.078125 54.6875 
L 18.109375 54.6875 
L 18.109375 46.1875 
Q 21.34375 51.125 25.703125 53.5625 
Q 30.078125 56 35.796875 56 
Q 45.21875 56 50.046875 50.171875 
Q 54.890625 44.34375 54.890625 33.015625 
z
" id="DejaVuSans-6e"/>
     </defs>
     <g transform="translate(265.507969 415.795938)scale(0.14 -0.14)">
      <use xlink:href="#DejaVuSans-49"/>
      <use x="29.492188" xlink:href="#DejaVuSans-74"/>
      <use x="68.701172" xlink:href="#DejaVuSans-65"/>
      <use x="130.224609" xlink:href="#DejaVuSans-72"/>
      <use x="171.337891" xlink:href="#DejaVuSans-61"/>
      <use x="232.617188" xlink:href="#DejaVuSans-74"/>
      <use x="271.826172" xlink:href="#DejaVuSans-69"/>
      <use x="299.609375" xlink:href="#DejaVuSans-6f"/>
      <use x="360.791016" xlink:href="#DejaVuSans-6e"/>
     </g>
    </g>
   </g>
   <g id="matplotlib.axis_2">
    <g id="ytick_1">
     <g id="line2d_15">
      <path clip-path="url(#pb8f352814e)" d="M 72 361.180887 
L 518.4 361.180887 
" style="fill:none;stroke:#b0b0b0;stroke-dasharray:5.12,1.28,0.8,1.28;stroke-dashoffset:0;stroke-width:0.8;"/>
     </g>
     <g id="line2d_16">
      <defs>
       <path d="M 0 0 
L -3.5 0 
" id="m3a228db13d" style="stroke:#000000;stroke-width:0.8;"/>
      </defs>
      <g>
       <use style="stroke:#000000;stroke-width:0.8;" x="72" xlink:href="#m3a228db13d" y="361.180887"/>
      </g>
     </g>
     <g id="text_9">
      <!-- −2 -->
      <defs>
       <path d="M 10.59375 35.5 
L 73.1875 35.5 
L 73.1875 27.203125 
L 10.59375 27.203125 
z
" id="DejaVuSans-2212"/>
      </defs>
      <g transform="translate(50.257812 364.980105)scale(0.1 -0.1)">
       <use xlink:href="#DejaVuSans-2212"/>
       <use x="83.789062" xlink:href="#DejaVuSans-32"/>
      </g>
     </g>
    </g>
    <g id="ytick_2">
     <g id="line2d_17">
      <path clip-path="url(#pb8f352814e)" d="M 72 296.267288 
L 518.4 296.267288 
" style="fill:none;stroke:#b0b0b0;stroke-dasharray:5.12,1.28,0.8,1.28;stroke-dashoffset:0;stroke-width:0.8;"/>
     </g>
     <g id="line2d_18">
      <g>
       <use style="stroke:#000000;stroke-width:0.8;" x="72" xlink:href="#m3a228db13d" y="296.267288"/>
      </g>
     </g>
     <g id="text_10">
      <!-- 0 -->
      <g transform="translate(58.6375 300.066507)scale(0.1 -0.1)">
       <use xlink:href="#DejaVuSans-30"/>
      </g>
     </g>
    </g>
    <g id="ytick_3">
     <g id="line2d_19">
      <path clip-path="url(#pb8f352814e)" d="M 72 231.353689 
L 518.4 231.353689 
" style="fill:none;stroke:#b0b0b0;stroke-dasharray:5.12,1.28,0.8,1.28;stroke-dashoffset:0;stroke-width:0.8;"/>
     </g>
     <g id="line2d_20">
      <g>
       <use style="stroke:#000000;stroke-width:0.8;" x="72" xlink:href="#m3a228db13d" y="231.353689"/>
      </g>
     </g>
     <g id="text_11">
      <!-- 2 -->
      <g transform="translate(58.6375 235.152908)scale(0.1 -0.1)">
       <use xlink:href="#DejaVuSans-32"/>
      </g>
     </g>
    </g>
    <g id="ytick_4">
     <g id="line2d_21">
      <path clip-path="url(#pb8f352814e)" d="M 72 166.44009 
L 518.4 166.44009 
" style="fill:none;stroke:#b0b0b0;stroke-dasharray:5.12,1.28,0.8,1.28;stroke-dashoffset:0;stroke-width:0.8;"/>
     </g>
     <g id="line2d_22">
      <g>
       <use style="stroke:#000000;stroke-width:0.8;" x="72" xlink:href="#m3a228db13d" y="166.44009"/>
      </g>
     </g>
     <g id="text_12">
      <!-- 4 -->
      <defs>
       <path d="M 37.796875 64.3125 
L 12.890625 25.390625 
L 37.796875 25.390625 
z
M 35.203125 72.90625 
L 47.609375 72.90625 
L 47.609375 25.390625 
L 58.015625 25.390625 
L 58.015625 17.1875 
L 47.609375 17.1875 
L 47.609375 0 
L 37.796875 0 
L 37.796875 17.1875 
L 4.890625 17.1875 
L 4.890625 26.703125 
z
" id="DejaVuSans-34"/>
      </defs>
      <g transform="translate(58.6375 170.239309)scale(0.1 -0.1)">
       <use xlink:href="#DejaVuSans-34"/>
      </g>
     </g>
    </g>
    <g id="ytick_5">
     <g id="line2d_23">
      <path clip-path="url(#pb8f352814e)" d="M 72 101.526491 
L 518.4 101.526491 
" style="fill:none;stroke:#b0b0b0;stroke-dasharray:5.12,1.28,0.8,1.28;stroke-dashoffset:0;stroke-width:0.8;"/>
     </g>
     <g id="line2d_24">
      <g>
       <use style="stroke:#000000;stroke-width:0.8;" x="72" xlink:href="#m3a228db13d" y="101.526491"/>
      </g>
     </g>
     <g id="text_13">
      <!-- 6 -->
      <defs>
       <path d="M 33.015625 40.375 
Q 26.375 40.375 22.484375 35.828125 
Q 18.609375 31.296875 18.609375 23.390625 
Q 18.609375 15.53125 22.484375 10.953125 
Q 26.375 6.390625 33.015625 6.390625 
Q 39.65625 6.390625 43.53125 10.953125 
Q 47.40625 15.53125 47.40625 23.390625 
Q 47.40625 31.296875 43.53125 35.828125 
Q 39.65625 40.375 33.015625 40.375 
z
M 52.59375 71.296875 
L 52.59375 62.3125 
Q 48.875 64.0625 45.09375 64.984375 
Q 41.3125 65.921875 37.59375 65.921875 
Q 27.828125 65.921875 22.671875 59.328125 
Q 17.53125 52.734375 16.796875 39.40625 
Q 19.671875 43.65625 24.015625 45.921875 
Q 28.375 48.1875 33.59375 48.1875 
Q 44.578125 48.1875 50.953125 41.515625 
Q 57.328125 34.859375 57.328125 23.390625 
Q 57.328125 12.15625 50.6875 5.359375 
Q 44.046875 -1.421875 33.015625 -1.421875 
Q 20.359375 -1.421875 13.671875 8.265625 
Q 6.984375 17.96875 6.984375 36.375 
Q 6.984375 53.65625 15.1875 63.9375 
Q 23.390625 74.21875 37.203125 74.21875 
Q 40.921875 74.21875 44.703125 73.484375 
Q 48.484375 72.75 52.59375 71.296875 
z
" id="DejaVuSans-36"/>
      </defs>
      <g transform="translate(58.6375 105.32571)scale(0.1 -0.1)">
       <use xlink:href="#DejaVuSans-36"/>
      </g>
     </g>
    </g>
    <g id="text_14">
     <!-- $\Delta \lambda_{m}[m.u/W]$ -->
     <defs>
      <path d="M 34.1875 63.1875 
L 14.15625 8.203125 
L 54.25 8.203125 
z
M 0.78125 0 
L 28.609375 72.90625 
L 39.796875 72.90625 
L 67.578125 0 
z
" id="DejaVuSans-394"/>
      <path d="M 36.71875 67.4375 
L 48.828125 0 
L 39.3125 0 
L 31.84375 40.4375 
L 5.125 0 
L -4.390625 0 
L 29.734375 52.4375 
L 28.03125 62.109375 
Q 26.953125 68.265625 21.734375 68.265625 
L 17.046875 68.265625 
L 18.5 75.984375 
L 24.21875 75.875 
Q 35.203125 75.734375 36.71875 67.4375 
z
" id="DejaVuSans-Oblique-3bb"/>
      <path d="M 89.796875 33.015625 
L 83.40625 0 
L 74.421875 0 
L 80.71875 32.71875 
Q 81.109375 34.8125 81.296875 36.328125 
Q 81.5 37.84375 81.5 38.921875 
Q 81.5 43.3125 79.046875 45.75 
Q 76.609375 48.1875 72.21875 48.1875 
Q 65.671875 48.1875 60.546875 43.28125 
Q 55.421875 38.375 53.90625 30.515625 
L 47.90625 0 
L 38.921875 0 
L 45.3125 32.71875 
Q 45.703125 34.515625 45.890625 36.046875 
Q 46.09375 37.59375 46.09375 38.8125 
Q 46.09375 43.265625 43.65625 45.71875 
Q 41.21875 48.1875 36.921875 48.1875 
Q 30.28125 48.1875 25.140625 43.28125 
Q 20.015625 38.375 18.5 30.515625 
L 12.5 0 
L 3.515625 0 
L 14.203125 54.6875 
L 23.1875 54.6875 
L 21.484375 46.1875 
Q 25.140625 50.984375 30.046875 53.484375 
Q 34.96875 56 40.578125 56 
Q 46.53125 56 50.359375 52.875 
Q 54.203125 49.75 54.984375 44.1875 
Q 59.078125 49.953125 64.46875 52.96875 
Q 69.875 56 75.875 56 
Q 82.90625 56 86.734375 51.953125 
Q 90.578125 47.90625 90.578125 40.484375 
Q 90.578125 38.875 90.375 36.9375 
Q 90.1875 35.015625 89.796875 33.015625 
z
" id="DejaVuSans-Oblique-6d"/>
      <path d="M 8.59375 75.984375 
L 29.296875 75.984375 
L 29.296875 69 
L 17.578125 69 
L 17.578125 -6.203125 
L 29.296875 -6.203125 
L 29.296875 -13.1875 
L 8.59375 -13.1875 
z
" id="DejaVuSans-5b"/>
      <path d="M 10.6875 12.40625 
L 21 12.40625 
L 21 0 
L 10.6875 0 
z
" id="DejaVuSans-2e"/>
      <path d="M 6.6875 21.6875 
L 13.09375 54.6875 
L 22.125 54.6875 
L 15.71875 22.015625 
Q 15.234375 19.625 15.015625 17.921875 
Q 14.796875 16.21875 14.796875 15.09375 
Q 14.796875 10.9375 17.328125 8.65625 
Q 19.875 6.390625 24.515625 6.390625 
Q 31.734375 6.390625 37 11.265625 
Q 42.28125 16.15625 43.890625 24.421875 
L 49.90625 54.6875 
L 58.890625 54.6875 
L 48.296875 0 
L 39.3125 0 
L 41.109375 8.59375 
Q 37.3125 3.8125 32.0625 1.1875 
Q 26.8125 -1.421875 20.90625 -1.421875 
Q 13.71875 -1.421875 9.71875 2.515625 
Q 5.71875 6.453125 5.71875 13.484375 
Q 5.71875 14.9375 5.953125 17.140625 
Q 6.203125 19.34375 6.6875 21.6875 
z
" id="DejaVuSans-Oblique-75"/>
      <path d="M 25.390625 72.90625 
L 33.6875 72.90625 
L 8.296875 -9.28125 
L 0 -9.28125 
z
" id="DejaVuSans-2f"/>
      <path d="M 9.625 72.90625 
L 19.1875 72.90625 
L 22.703125 10.890625 
L 50.203125 72.90625 
L 61.1875 72.90625 
L 64.796875 10.890625 
L 92 72.90625 
L 102 72.90625 
L 69.578125 0 
L 57.171875 0 
L 53.8125 60.796875 
L 26.515625 0 
L 14.109375 0 
z
" id="DejaVuSans-Oblique-57"/>
      <path d="M 30.421875 75.984375 
L 30.421875 -13.1875 
L 9.71875 -13.1875 
L 9.71875 -6.203125 
L 21.390625 -6.203125 
L 21.390625 69 
L 9.71875 69 
L 9.71875 75.984375 
z
" id="DejaVuSans-5d"/>
     </defs>
     <g transform="translate(43.34625 261.7)rotate(-90)scale(0.14 -0.14)">
      <use transform="translate(0 0.015625)" xlink:href="#DejaVuSans-394"/>
      <use transform="translate(68.408203 0.015625)" xlink:href="#DejaVuSans-Oblique-3bb"/>
      <use transform="translate(127.587891 -16.390625)scale(0.7)" xlink:href="#DejaVuSans-Oblique-6d"/>
      <use transform="translate(198.510742 0.015625)" xlink:href="#DejaVuSans-5b"/>
      <use transform="translate(237.524414 0.015625)" xlink:href="#DejaVuSans-Oblique-6d"/>
      <use transform="translate(334.936523 0.015625)" xlink:href="#DejaVuSans-2e"/>
      <use transform="translate(386.206055 0.015625)" xlink:href="#DejaVuSans-Oblique-75"/>
      <use transform="translate(449.584961 0.015625)" xlink:href="#DejaVuSans-2f"/>
      <use transform="translate(483.276367 0.015625)" xlink:href="#DejaVuSans-Oblique-57"/>
      <use transform="translate(582.15332 0.015625)" xlink:href="#DejaVuSans-5d"/>
     </g>
    </g>
    <g id="text_15">
     <!-- 1e−1 -->
     <g transform="translate(72 48.84)scale(0.1 -0.1)">
      <use xlink:href="#DejaVuSans-31"/>
      <use x="63.623047" xlink:href="#DejaVuSans-65"/>
      <use x="125.146484" xlink:href="#DejaVuSans-2212"/>
      <use x="208.935547" xlink:href="#DejaVuSans-31"/>
     </g>
    </g>
   </g>
   <g id="line2d_25">
    <path clip-path="url(#pb8f352814e)" d="M 92.290909 296.267288 
L 96.380444 296.169917 
L 96.925715 296.137461 
L 99.243118 296.04009 
L 99.78839 296.007633 
L 100.197343 296.007633 
L 100.469979 294.839189 
L 100.606297 295.066386 
L 101.01525 297.013794 
L 101.287886 297.533103 
L 101.424204 297.56556 
L 101.696839 297.305905 
L 102.378429 296.267288 
L 102.787382 296.04009 
L 103.332653 296.105004 
L 103.741607 296.234831 
L 116.555483 296.332201 
L 119.009204 296.981337 
L 119.418157 297.370819 
L 119.827111 297.468189 
L 120.236064 297.240992 
L 120.781336 296.462029 
L 121.326607 295.1313 
L 121.871878 293.183892 
L 122.008196 293.50846 
L 122.144514 293.476003 
L 122.962421 297.695387 
L 123.098739 297.727844 
L 123.64401 297.111165 
L 123.916646 296.85151 
L 124.189281 296.397115 
L 124.734553 295.066386 
L 125.143506 295.1313 
L 125.825095 296.916424 
L 126.097731 296.948881 
L 126.643002 296.429572 
L 127.188274 295.975177 
L 127.597227 295.877806 
L 128.278816 296.526942 
L 128.824088 296.429572 
L 129.369359 296.267288 
L 130.050948 296.202374 
L 139.865832 296.299745 
L 140.411103 296.332201 
L 142.319553 296.234831 
L 143.001142 296.169917 
L 144.228003 296.364658 
L 144.773274 296.137461 
L 145.04591 296.072547 
L 145.454863 296.072547 
L 146.000134 296.494485 
L 146.27277 296.494485 
L 147.363313 296.072547 
L 147.635948 296.04009 
L 148.453855 296.494485 
L 149.40808 296.137461 
L 149.953351 296.105004 
L 150.498623 296.397115 
L 150.907576 296.397115 
L 152.270755 296.169917 
L 152.816026 296.332201 
L 167.265716 296.234831 
L 167.810987 296.202374 
L 168.765212 296.364658 
L 170.12839 296.137461 
L 170.401026 296.202374 
L 170.80998 296.397115 
L 171.491569 296.299745 
L 172.445794 296.137461 
L 173.127383 296.364658 
L 173.400018 296.364658 
L 174.626879 296.169917 
L 175.035832 296.267288 
L 175.717421 296.332201 
L 176.807964 296.234831 
L 177.216918 296.234831 
L 177.898507 296.299745 
L 497.972773 296.267288 
L 497.972773 296.267288 
" style="fill:none;stroke:#bf00bf;stroke-linecap:square;stroke-width:1.5;"/>
   </g>
   <g id="line2d_26">
    <path clip-path="url(#pb8f352814e)" d="M 92.290909 296.267288 
L 95.289901 296.169917 
L 96.244126 296.04009 
L 97.198351 295.94272 
L 98.016258 295.845349 
L 99.652072 295.747979 
L 100.197343 295.715522 
L 100.333661 295.715522 
L 100.469979 295.845349 
L 100.878932 297.825214 
L 101.151568 298.084869 
L 101.424204 297.792757 
L 102.378429 296.137461 
L 102.787382 296.007633 
L 104.286878 296.299745 
L 104.968467 296.234831 
L 116.419165 296.332201 
L 118.872886 296.916424 
L 119.145522 297.338362 
L 119.554475 297.500646 
L 119.827111 297.468189 
L 120.372382 296.948881 
L 120.781336 296.202374 
L 121.326607 294.774275 
L 121.871878 292.145274 
L 122.144514 293.865485 
L 122.553467 297.468189 
L 122.826103 298.019955 
L 122.962421 297.955041 
L 123.235057 297.500646 
L 123.371374 297.176078 
L 123.64401 297.078708 
L 124.052964 296.429572 
L 124.461917 295.390954 
L 124.734553 294.514621 
L 124.870871 294.514621 
L 125.143506 295.390954 
L 125.416142 296.689226 
L 125.688778 297.078708 
L 125.961413 297.046251 
L 126.370367 296.656769 
L 127.324592 295.650609 
L 127.597227 295.975177 
L 127.869863 296.462029 
L 128.278816 296.591856 
L 128.960406 296.332201 
L 129.369359 296.202374 
L 139.729514 296.299745 
L 140.274785 296.332201 
L 142.183235 296.267288 
L 142.864824 296.007633 
L 143.273778 296.169917 
L 143.955367 296.526942 
L 144.36432 296.364658 
L 145.182227 295.877806 
L 145.454863 296.169917 
L 145.727499 296.526942 
L 146.136452 296.559399 
L 146.545406 296.397115 
L 147.363313 295.877806 
L 147.635948 296.105004 
L 148.044902 296.526942 
L 148.317537 296.526942 
L 148.999127 296.267288 
L 149.544398 295.975177 
L 149.817034 296.04009 
L 150.225987 296.429572 
L 150.634941 296.429572 
L 151.180212 296.332201 
L 151.861801 296.105004 
L 152.134437 296.137461 
L 152.54339 296.332201 
L 167.129398 296.234831 
L 167.810987 296.137461 
L 168.492576 296.364658 
L 168.90153 296.397115 
L 170.12839 296.105004 
L 170.673662 296.429572 
L 171.355251 296.332201 
L 172.445794 296.169917 
L 172.854747 296.397115 
L 173.672654 296.332201 
L 174.354243 296.105004 
L 174.763197 296.202374 
L 175.17215 296.364658 
L 176.126375 296.267288 
L 176.807964 296.169917 
L 177.762189 296.299745 
L 194.392964 296.202374 
L 194.938236 296.169917 
L 195.483507 296.332201 
L 195.89246 296.332201 
L 196.57405 296.234831 
L 197.119321 296.169917 
L 198.209863 296.332201 
L 199.300406 296.169917 
L 200.254631 296.332201 
L 200.93622 296.267288 
L 497.972773 296.267288 
L 497.972773 296.267288 
" style="fill:none;stroke:#00bfbf;stroke-linecap:square;stroke-width:1.5;"/>
   </g>
   <g id="line2d_27">
    <path clip-path="url(#pb8f352814e)" d="M 92.290909 296.267288 
L 92.427227 296.267288 
L 92.563545 296.267288 
L 92.972498 293.118978 
L 93.245134 292.826867 
L 93.654087 292.729497 
L 93.926723 292.761953 
L 94.063041 293.50846 
L 94.74463 283.67405 
L 98.561529 218.046401 
L 100.061025 197.111766 
L 101.424204 180.623711 
L 102.9237 164.622509 
L 104.423196 150.601172 
L 105.922692 138.300045 
L 107.558506 126.615597 
L 109.058002 117.268039 
L 110.830134 107.72574 
L 111.511723 104.447603 
L 112.465948 84.876153 
L 113.011219 79.261127 
L 113.692809 74.782089 
L 114.374398 71.0171 
L 114.919669 67.187198 
L 115.055987 66.96 
L 115.192305 67.219654 
L 115.46494 69.524087 
L 115.737576 74.684718 
L 116.146529 88.673599 
L 116.555483 110.97142 
L 117.100754 153.944222 
L 117.782343 226.322885 
L 119.009204 362.154591 
L 119.418157 362.966011 
L 120.099747 365.010789 
L 121.326607 369.36 
L 121.599243 358.324688 
L 122.144514 341.544523 
L 122.689785 332.067137 
L 123.371374 324.277506 
L 124.461917 314.767663 
L 126.77932 296.883967 
L 128.68777 283.609136 
L 130.323584 273.709812 
L 131.959398 265.368415 
L 133.322576 259.656018 
L 134.549437 255.598918 
L 135.639979 252.807633 
L 136.457886 251.249707 
L 137.003158 250.438287 
L 137.957382 248.198768 
L 138.0937 248.166311 
L 138.366336 248.490879 
L 138.638972 249.529497 
L 138.911607 251.314621 
L 139.320561 255.631375 
L 139.865832 264.524538 
L 140.547421 280.233629 
L 142.728506 335.89704 
L 143.13746 339.856769 
L 143.410096 333.917175 
L 143.955367 328.074951 
L 144.500638 324.666987 
L 145.454863 320.415147 
L 151.452848 297.987498 
L 154.45184 287.666236 
L 156.087654 282.927543 
L 157.58715 279.259925 
L 158.950328 276.598467 
L 159.631917 275.494936 
L 160.72246 274.066837 
L 162.221956 272.508911 
L 162.63091 271.957145 
L 163.039863 271.794861 
L 163.312499 272.086972 
L 163.585135 272.703651 
L 163.994088 274.456319 
L 164.403041 277.247603 
L 164.948313 282.570518 
L 165.76622 293.313719 
L 167.265716 313.923787 
L 167.674669 317.299294 
L 167.947305 318.500195 
L 168.492576 313.956243 
L 169.037848 311.684267 
L 169.855755 309.607032 
L 170.946297 307.49734 
L 172.173158 305.257821 
L 179.261685 291.98299 
L 180.761181 289.678557 
L 182.260677 287.698693 
L 183.760173 286.075853 
L 186.48653 284.258272 
L 187.031801 283.901247 
L 187.440755 283.609136 
L 187.849708 283.511766 
L 188.122344 283.641593 
L 188.39498 283.933704 
L 188.803933 284.842494 
L 189.349205 286.887273 
L 189.894476 289.873298 
L 190.712383 295.715522 
L 191.939243 304.706056 
L 192.484515 307.270143 
L 192.75715 307.886822 
L 193.302422 305.517476 
L 193.847693 304.349031 
L 194.392964 303.602524 
L 195.619825 302.304252 
L 199.845677 298.149782 
L 200.799902 297.176078 
L 205.298391 293.021608 
L 208.024747 291.204027 
L 210.478468 290.132953 
L 211.977964 289.678557 
L 212.523236 289.516273 
L 212.932189 289.581187 
L 213.341143 289.873298 
L 213.750096 290.457521 
L 214.295368 291.658422 
L 214.976957 293.865485 
L 215.794864 297.111165 
L 216.749088 300.746326 
L 217.158042 301.849857 
L 217.975949 301.363005 
L 218.52122 300.648956 
L 220.157034 299.610338 
L 223.428662 297.955041 
L 225.746065 296.689226 
L 231.880368 293.865485 
L 237.333081 292.664583 
L 237.878352 292.761953 
L 238.559941 293.183892 
L 238.968895 293.638287 
L 239.92312 295.293584 
L 240.877344 297.338362 
L 241.695251 298.896289 
L 242.104205 299.38314 
L 242.376841 299.545424 
L 242.785794 298.961202 
L 243.740019 298.409437 
L 246.466376 297.66293 
L 249.874321 296.689226 
L 252.46436 295.975177 
L 253.009631 295.812893 
L 257.50812 294.839189 
L 258.326027 294.741818 
L 259.416569 294.579534 
L 260.916066 294.482164 
L 261.87029 294.352337 
L 262.960833 294.449707 
L 263.915058 294.969016 
L 265.278236 296.397115 
L 266.505097 297.695387 
L 267.050368 297.987498 
L 267.186686 298.019955 
L 267.595639 297.695387 
L 268.277228 297.468189 
L 269.776725 297.208535 
L 270.594632 297.111165 
L 271.821492 296.916424 
L 272.503081 296.819053 
L 273.729942 296.624313 
L 274.411531 296.526942 
L 275.638391 296.332201 
L 276.456298 296.234831 
L 277.683159 296.04009 
L 278.501066 295.94272 
L 279.591608 295.780436 
L 280.682151 295.683065 
L 281.500058 295.585695 
L 282.726918 295.488325 
L 283.408508 295.423411 
L 285.453275 295.326041 
L 285.998546 295.293584 
L 288.179632 295.390954 
L 288.861221 295.650609 
L 290.088081 296.332201 
L 291.178624 296.981337 
L 291.723895 297.176078 
L 292.269167 297.078708 
L 292.67812 296.981337 
L 293.632345 296.85151 
L 294.995523 296.75414 
L 295.677112 296.689226 
L 297.040291 296.591856 
L 297.72188 296.526942 
L 299.085058 296.429572 
L 299.766647 296.364658 
L 301.129826 296.267288 
L 301.811415 296.202374 
L 303.174593 296.105004 
L 303.856182 296.04009 
L 305.764632 295.94272 
L 306.309903 295.910263 
L 308.627306 295.812893 
L 309.172578 295.780436 
L 313.39843 295.877806 
L 315.170562 296.397115 
L 315.852151 296.624313 
L 316.806376 296.75414 
L 317.760601 296.624313 
L 319.941686 296.526942 
L 320.486958 296.494485 
L 323.076996 296.397115 
L 323.622268 296.364658 
L 326.075989 296.267288 
L 326.62126 296.234831 
L 329.483934 296.137461 
L 330.029206 296.105004 
L 335.209283 296.007633 
L 335.754555 295.975177 
L 338.344593 296.072547 
L 339.84409 296.332201 
L 340.525679 296.429572 
L 341.343586 296.526942 
L 344.069942 296.429572 
L 344.615214 296.397115 
L 349.795291 296.299745 
L 350.340562 296.267288 
L 356.474865 296.169917 
L 357.020136 296.137461 
L 364.108663 296.234831 
L 364.92657 296.332201 
L 379.785214 296.234831 
L 380.330485 296.202374 
L 390.009051 296.299745 
L 390.554323 296.332201 
L 497.972773 296.267288 
L 497.972773 296.267288 
" style="fill:none;stroke:#ff0000;stroke-linecap:square;stroke-width:1.5;"/>
   </g>
   <g id="line2d_28">
    <path clip-path="url(#pb8f352814e)" d="M 92.290909 296.267288 
L 92.427227 296.267288 
L 92.563545 293.865485 
L 92.83618 293.897941 
L 93.108816 292.859324 
L 93.381452 292.79441 
L 93.926723 292.924237 
L 94.199359 294.741818 
L 94.471994 292.469842 
L 95.017266 283.933704 
L 98.288894 227.199219 
L 99.78839 205.972472 
L 101.287886 187.63438 
L 102.9237 170.464733 
L 104.423196 156.800421 
L 105.922692 144.856319 
L 107.558506 133.528896 
L 109.19432 123.726942 
L 110.966452 114.606582 
L 111.648041 111.458272 
L 112.465948 115.223261 
L 112.738584 115.418002 
L 113.011219 115.418002 
L 113.965444 115.158347 
L 114.101762 114.833779 
L 114.647033 101.429121 
L 115.055987 95.976379 
L 115.328622 94.775477 
L 115.46494 95.002675 
L 115.737576 97.436935 
L 116.010212 102.727393 
L 116.419165 116.716273 
L 116.828119 138.397415 
L 117.37339 179.260526 
L 118.191297 261.798167 
L 119.009204 353.975477 
L 119.554475 357.513268 
L 120.5087 361.992307 
L 121.326607 365.497641 
L 121.599243 307.205229 
L 121.871878 314.540466 
L 122.280832 319.019504 
L 122.553467 320.123035 
L 122.689785 320.285319 
L 122.826103 320.252863 
L 123.098739 319.733554 
L 123.507692 318.305455 
L 124.325599 314.150984 
L 125.55246 306.815748 
L 127.597227 294.806732 
L 129.91463 282.700346 
L 131.414126 276.046702 
L 132.777305 270.983441 
L 134.004165 267.250909 
L 135.231026 264.329797 
L 136.048933 262.804328 
L 137.003158 261.278858 
L 137.548429 257.351585 
L 137.957382 255.534005 
L 138.230018 254.949782 
L 138.366336 254.852412 
L 138.502654 254.917325 
L 138.775289 255.566461 
L 139.047925 256.929647 
L 139.456878 260.467438 
L 140.00215 268.094786 
L 140.683739 281.888926 
L 143.001142 334.111916 
L 143.13746 335.410188 
L 143.273778 312.593058 
L 143.410096 311.164959 
L 143.819049 314.70275 
L 144.228003 316.098392 
L 144.500638 316.42296 
L 144.773274 316.390503 
L 145.04591 316.130849 
L 145.591181 315.189602 
L 146.27277 313.696589 
L 147.363313 310.872847 
L 154.724476 290.165409 
L 156.632925 285.881112 
L 157.723468 283.803877 
L 159.359282 281.272246 
L 160.177189 280.266086 
L 160.995096 279.454666 
L 161.676685 278.935357 
L 161.813003 278.837986 
L 162.494592 276.338813 
L 162.903545 275.494936 
L 163.176181 275.267739 
L 163.448817 275.332652 
L 163.721452 275.787047 
L 164.130406 277.150233 
L 164.539359 279.487122 
L 165.084631 284.095988 
L 165.902538 293.60583 
L 167.402034 312.300947 
L 167.810987 315.481713 
L 167.947305 316.195763 
L 168.219941 303.505154 
L 168.492576 305.095537 
L 168.90153 306.166612 
L 169.310483 306.523636 
L 169.583119 306.556093 
L 170.12839 306.231525 
L 171.355251 304.933253 
L 180.21591 292.437385 
L 182.260677 290.165409 
L 183.760173 288.867137 
L 185.668623 287.633779 
L 186.622848 287.244298 
L 187.440755 285.751285 
L 187.849708 285.361803 
L 188.258662 285.361803 
L 188.531298 285.556544 
L 188.940251 286.270594 
L 189.349205 287.471495 
L 189.894476 289.840841 
L 190.712383 294.806732 
L 192.211879 304.641142 
L 192.620832 306.328896 
L 192.75715 306.68592 
L 193.029786 299.99982 
L 193.302422 300.843696 
L 193.711375 301.427919 
L 194.120329 301.62266 
L 194.801918 301.525289 
L 195.347189 301.298092 
L 202.708352 295.910263 
L 203.389941 295.390954 
L 205.843662 293.768114 
L 210.069515 291.853163 
L 211.432693 291.496138 
L 212.523236 290.554891 
L 213.068507 290.489977 
L 213.613778 290.847002 
L 214.022732 291.366311 
L 214.704321 292.891781 
L 215.522228 295.520781 
L 217.158042 301.070894 
L 217.29436 301.363005 
L 217.975949 298.539264 
L 218.384902 298.928745 
L 218.657538 299.058573 
L 219.748081 299.026116 
L 220.838623 298.701548 
L 222.883391 297.955041 
L 224.382887 297.338362 
L 225.064476 297.078708 
L 226.70029 296.397115 
L 227.381879 296.137461 
L 228.60874 295.650609 
L 229.562965 295.326041 
L 230.380872 295.033929 
L 232.698275 294.384793 
L 233.107228 294.254966 
L 236.515174 293.573373 
L 237.060445 293.313719 
L 237.878352 293.216349 
L 238.559941 293.476003 
L 238.968895 293.800571 
L 239.92312 295.1313 
L 241.967887 298.831375 
L 242.376841 299.220856 
L 242.513158 297.598017 
L 242.649476 297.338362 
L 243.05843 297.630473 
L 243.467383 297.760301 
L 245.103197 297.66293 
L 247.4206 297.208535 
L 247.693236 297.176078 
L 252.873314 296.04009 
L 253.418585 295.94272 
L 255.463352 295.553238 
L 256.144942 295.455868 
L 257.371802 295.261127 
L 258.326027 295.163757 
L 259.143934 295.066386 
L 260.370794 294.969016 
L 262.142926 294.644448 
L 263.233469 294.741818 
L 263.77874 294.969016 
L 264.324011 295.326041 
L 265.005601 295.94272 
L 267.050368 297.792757 
L 267.186686 297.857671 
L 267.323004 296.85151 
L 267.595639 296.916424 
L 268.004593 297.013794 
L 268.686182 297.078708 
L 270.321996 296.981337 
L 271.139903 296.883967 
L 272.230446 296.786597 
L 273.18467 296.656769 
L 274.138895 296.559399 
L 274.956802 296.462029 
L 275.911027 296.364658 
L 276.865252 296.234831 
L 277.955794 296.137461 
L 278.910019 296.007633 
L 280.13688 295.910263 
L 280.818469 295.845349 
L 282.181647 295.747979 
L 282.863236 295.683065 
L 285.044322 295.585695 
L 285.589593 295.553238 
L 286.4075 295.455868 
L 287.089089 295.390954 
L 288.31595 295.488325 
L 289.133857 295.780436 
L 291.996531 297.078708 
L 292.132849 296.526942 
L 292.541802 296.656769 
L 296.903973 296.559399 
L 297.585562 296.494485 
L 299.494012 296.397115 
L 300.175601 296.332201 
L 302.220368 296.234831 
L 302.901957 296.169917 
L 305.219361 296.072547 
L 305.764632 296.04009 
L 308.627306 295.94272 
L 309.172578 295.910263 
L 313.943702 296.007633 
L 316.806376 296.656769 
L 316.942694 296.397115 
L 317.760601 296.494485 
L 322.804361 296.397115 
L 323.349632 296.364658 
L 326.62126 296.267288 
L 327.166531 296.234831 
L 331.392384 296.137461 
L 331.937655 296.105004 
L 339.298818 296.202374 
L 340.661997 296.429572 
L 348.159477 296.332201 
L 348.704749 296.299745 
L 356.474865 296.202374 
L 357.020136 296.169917 
L 364.653935 296.267288 
L 365.471842 296.364658 
L 377.604129 296.267288 
L 378.1494 296.234831 
L 498.109091 296.267288 
L 498.109091 296.267288 
" style="fill:none;stroke:#008000;stroke-linecap:square;stroke-width:1.5;"/>
   </g>
   <g id="patch_3">
    <path d="M 72 384.48 
L 72 51.84 
" style="fill:none;stroke:#000000;stroke-linecap:square;stroke-linejoin:miter;stroke-width:0.8;"/>
   </g>
   <g id="patch_4">
    <path d="M 518.4 384.48 
L 518.4 51.84 
" style="fill:none;stroke:#000000;stroke-linecap:square;stroke-linejoin:miter;stroke-width:0.8;"/>
   </g>
   <g id="patch_5">
    <path d="M 72 384.48 
L 518.4 384.48 
" style="fill:none;stroke:#000000;stroke-linecap:square;stroke-linejoin:miter;stroke-width:0.8;"/>
   </g>
   <g id="patch_6">
    <path d="M 72 51.84 
L 518.4 51.84 
" style="fill:none;stroke:#000000;stroke-linecap:square;stroke-linejoin:miter;stroke-width:0.8;"/>
   </g>
   <g id="text_16">
    <!-- $\Delta \lambda_{m}$ -->
    <g transform="translate(281.27 45.84)scale(0.14 -0.14)">
     <use transform="translate(0 0.015625)" xlink:href="#DejaVuSans-394"/>
     <use transform="translate(68.408203 0.015625)" xlink:href="#DejaVuSans-Oblique-3bb"/>
     <use transform="translate(127.587891 -16.390625)scale(0.7)" xlink:href="#DejaVuSans-Oblique-6d"/>
    </g>
   </g>
   <g id="legend_1">
    <g id="patch_7">
     <path d="M 461.9 118.5525 
L 511.4 118.5525 
Q 513.4 118.5525 513.4 116.5525 
L 513.4 58.84 
Q 513.4 56.84 511.4 56.84 
L 461.9 56.84 
Q 459.9 56.84 459.9 58.84 
L 459.9 116.5525 
Q 459.9 118.5525 461.9 118.5525 
z
" style="fill:#ffffff;opacity:0.8;stroke:#cccccc;stroke-linejoin:miter;"/>
    </g>
    <g id="line2d_29">
     <path d="M 463.9 64.938438 
L 483.9 64.938438 
" style="fill:none;stroke:#bf00bf;stroke-linecap:square;stroke-width:1.5;"/>
    </g>
    <g id="line2d_30"/>
    <g id="text_17">
     <!-- $\Delta \lambda_{1}$ -->
     <g transform="translate(491.9 68.438438)scale(0.1 -0.1)">
      <use transform="translate(0 0.015625)" xlink:href="#DejaVuSans-394"/>
      <use transform="translate(68.408203 0.015625)" xlink:href="#DejaVuSans-Oblique-3bb"/>
      <use transform="translate(127.587891 -16.390625)scale(0.7)" xlink:href="#DejaVuSans-31"/>
     </g>
    </g>
    <g id="line2d_31">
     <path d="M 463.9 79.616563 
L 483.9 79.616563 
" style="fill:none;stroke:#00bfbf;stroke-linecap:square;stroke-width:1.5;"/>
    </g>
    <g id="line2d_32"/>
    <g id="text_18">
     <!-- $\Delta \lambda_{2}$ -->
     <g transform="translate(491.9 83.116563)scale(0.1 -0.1)">
      <use transform="translate(0 0.015625)" xlink:href="#DejaVuSans-394"/>
      <use transform="translate(68.408203 0.015625)" xlink:href="#DejaVuSans-Oblique-3bb"/>
      <use transform="translate(127.587891 -16.390625)scale(0.7)" xlink:href="#DejaVuSans-32"/>
     </g>
    </g>
    <g id="line2d_33">
     <path d="M 463.9 94.294688 
L 483.9 94.294688 
" style="fill:none;stroke:#ff0000;stroke-linecap:square;stroke-width:1.5;"/>
    </g>
    <g id="line2d_34"/>
    <g id="text_19">
     <!-- $\Delta \lambda_{3}$ -->
     <g transform="translate(491.9 97.794688)scale(0.1 -0.1)">
      <use transform="translate(0 0.015625)" xlink:href="#DejaVuSans-394"/>
      <use transform="translate(68.408203 0.015625)" xlink:href="#DejaVuSans-Oblique-3bb"/>
      <use transform="translate(127.587891 -16.390625)scale(0.7)" xlink:href="#DejaVuSans-33"/>
     </g>
    </g>
    <g id="line2d_35">
     <path d="M 463.9 108.972813 
L 483.9 108.972813 
" style="fill:none;stroke:#008000;stroke-linecap:square;stroke-width:1.5;"/>
    </g>
    <g id="line2d_36"/>
    <g id="text_20">
     <!-- $\Delta \lambda_{4}$ -->
     <g transform="translate(491.9 112.472813)scale(0.1 -0.1)">
      <use transform="translate(0 0.015625)" xlink:href="#DejaVuSans-394"/>
      <use transform="translate(68.408203 0.015625)" xlink:href="#DejaVuSans-Oblique-3bb"/>
      <use transform="translate(127.587891 -16.390625)scale(0.7)" xlink:href="#DejaVuSans-34"/>
     </g>
    </g>
   </g>
  </g>
 </g>
 <defs>
  <clipPath id="pb8f352814e">
   <rect height="332.64" width="446.4" x="72" y="51.84"/>
  </clipPath>
 </defs>
</svg>
