<?xml version="1.0" encoding="utf-8" standalone="no"?>
<!DOCTYPE svg PUBLIC "-//W3C//DTD SVG 1.1//EN"
  "http://www.w3.org/Graphics/SVG/1.1/DTD/svg11.dtd">
<!-- Created with matplotlib (http://matplotlib.org/) -->
<svg height="432pt" version="1.1" viewBox="0 0 576 432" width="576pt" xmlns="http://www.w3.org/2000/svg" xmlns:xlink="http://www.w3.org/1999/xlink">
 <defs>
  <style type="text/css">
*{stroke-linecap:butt;stroke-linejoin:round;}
  </style>
 </defs>
 <g id="figure_1">
  <g id="patch_1">
   <path d="M 0 432 
L 576 432 
L 576 0 
L 0 0 
z
" style="fill:#ffffff;"/>
  </g>
  <g id="axes_1">
   <g id="patch_2">
    <path d="M 72 384.48 
L 518.4 384.48 
L 518.4 51.84 
L 72 51.84 
z
" style="fill:#ffffff;"/>
   </g>
   <g id="matplotlib.axis_1">
    <g id="xtick_1">
     <g id="line2d_1">
      <path clip-path="url(#pff4fc6f031)" d="M 92.290909 384.48 
L 92.290909 51.84 
" style="fill:none;stroke:#b0b0b0;stroke-dasharray:5.12,1.28,0.8,1.28;stroke-dashoffset:0;stroke-width:0.8;"/>
     </g>
     <g id="line2d_2">
      <defs>
       <path d="M 0 0 
L 0 3.5 
" id="m304756b7ac" style="stroke:#000000;stroke-width:0.8;"/>
      </defs>
      <g>
       <use style="stroke:#000000;stroke-width:0.8;" x="92.290909" xlink:href="#m304756b7ac" y="384.48"/>
      </g>
     </g>
     <g id="text_1">
      <!-- 0 -->
      <defs>
       <path d="M 31.78125 66.40625 
Q 24.171875 66.40625 20.328125 58.90625 
Q 16.5 51.421875 16.5 36.375 
Q 16.5 21.390625 20.328125 13.890625 
Q 24.171875 6.390625 31.78125 6.390625 
Q 39.453125 6.390625 43.28125 13.890625 
Q 47.125 21.390625 47.125 36.375 
Q 47.125 51.421875 43.28125 58.90625 
Q 39.453125 66.40625 31.78125 66.40625 
z
M 31.78125 74.21875 
Q 44.046875 74.21875 50.515625 64.515625 
Q 56.984375 54.828125 56.984375 36.375 
Q 56.984375 17.96875 50.515625 8.265625 
Q 44.046875 -1.421875 31.78125 -1.421875 
Q 19.53125 -1.421875 13.0625 8.265625 
Q 6.59375 17.96875 6.59375 36.375 
Q 6.59375 54.828125 13.0625 64.515625 
Q 19.53125 74.21875 31.78125 74.21875 
z
" id="DejaVuSans-30"/>
      </defs>
      <g transform="translate(89.109659 399.078438)scale(0.1 -0.1)">
       <use xlink:href="#DejaVuSans-30"/>
      </g>
     </g>
    </g>
    <g id="xtick_2">
     <g id="line2d_3">
      <path clip-path="url(#pff4fc6f031)" d="M 146.436097 384.48 
L 146.436097 51.84 
" style="fill:none;stroke:#b0b0b0;stroke-dasharray:5.12,1.28,0.8,1.28;stroke-dashoffset:0;stroke-width:0.8;"/>
     </g>
     <g id="line2d_4">
      <g>
       <use style="stroke:#000000;stroke-width:0.8;" x="146.436097" xlink:href="#m304756b7ac" y="384.48"/>
      </g>
     </g>
     <g id="text_2">
      <!-- 200 -->
      <defs>
       <path d="M 19.1875 8.296875 
L 53.609375 8.296875 
L 53.609375 0 
L 7.328125 0 
L 7.328125 8.296875 
Q 12.9375 14.109375 22.625 23.890625 
Q 32.328125 33.6875 34.8125 36.53125 
Q 39.546875 41.84375 41.421875 45.53125 
Q 43.3125 49.21875 43.3125 52.78125 
Q 43.3125 58.59375 39.234375 62.25 
Q 35.15625 65.921875 28.609375 65.921875 
Q 23.96875 65.921875 18.8125 64.3125 
Q 13.671875 62.703125 7.8125 59.421875 
L 7.8125 69.390625 
Q 13.765625 71.78125 18.9375 73 
Q 24.125 74.21875 28.421875 74.21875 
Q 39.75 74.21875 46.484375 68.546875 
Q 53.21875 62.890625 53.21875 53.421875 
Q 53.21875 48.921875 51.53125 44.890625 
Q 49.859375 40.875 45.40625 35.40625 
Q 44.1875 33.984375 37.640625 27.21875 
Q 31.109375 20.453125 19.1875 8.296875 
z
" id="DejaVuSans-32"/>
      </defs>
      <g transform="translate(136.892347 399.078438)scale(0.1 -0.1)">
       <use xlink:href="#DejaVuSans-32"/>
       <use x="63.623047" xlink:href="#DejaVuSans-30"/>
       <use x="127.246094" xlink:href="#DejaVuSans-30"/>
      </g>
     </g>
    </g>
    <g id="xtick_3">
     <g id="line2d_5">
      <path clip-path="url(#pff4fc6f031)" d="M 200.581284 384.48 
L 200.581284 51.84 
" style="fill:none;stroke:#b0b0b0;stroke-dasharray:5.12,1.28,0.8,1.28;stroke-dashoffset:0;stroke-width:0.8;"/>
     </g>
     <g id="line2d_6">
      <g>
       <use style="stroke:#000000;stroke-width:0.8;" x="200.581284" xlink:href="#m304756b7ac" y="384.48"/>
      </g>
     </g>
     <g id="text_3">
      <!-- 400 -->
      <defs>
       <path d="M 37.796875 64.3125 
L 12.890625 25.390625 
L 37.796875 25.390625 
z
M 35.203125 72.90625 
L 47.609375 72.90625 
L 47.609375 25.390625 
L 58.015625 25.390625 
L 58.015625 17.1875 
L 47.609375 17.1875 
L 47.609375 0 
L 37.796875 0 
L 37.796875 17.1875 
L 4.890625 17.1875 
L 4.890625 26.703125 
z
" id="DejaVuSans-34"/>
      </defs>
      <g transform="translate(191.037534 399.078438)scale(0.1 -0.1)">
       <use xlink:href="#DejaVuSans-34"/>
       <use x="63.623047" xlink:href="#DejaVuSans-30"/>
       <use x="127.246094" xlink:href="#DejaVuSans-30"/>
      </g>
     </g>
    </g>
    <g id="xtick_4">
     <g id="line2d_7">
      <path clip-path="url(#pff4fc6f031)" d="M 254.726472 384.48 
L 254.726472 51.84 
" style="fill:none;stroke:#b0b0b0;stroke-dasharray:5.12,1.28,0.8,1.28;stroke-dashoffset:0;stroke-width:0.8;"/>
     </g>
     <g id="line2d_8">
      <g>
       <use style="stroke:#000000;stroke-width:0.8;" x="254.726472" xlink:href="#m304756b7ac" y="384.48"/>
      </g>
     </g>
     <g id="text_4">
      <!-- 600 -->
      <defs>
       <path d="M 33.015625 40.375 
Q 26.375 40.375 22.484375 35.828125 
Q 18.609375 31.296875 18.609375 23.390625 
Q 18.609375 15.53125 22.484375 10.953125 
Q 26.375 6.390625 33.015625 6.390625 
Q 39.65625 6.390625 43.53125 10.953125 
Q 47.40625 15.53125 47.40625 23.390625 
Q 47.40625 31.296875 43.53125 35.828125 
Q 39.65625 40.375 33.015625 40.375 
z
M 52.59375 71.296875 
L 52.59375 62.3125 
Q 48.875 64.0625 45.09375 64.984375 
Q 41.3125 65.921875 37.59375 65.921875 
Q 27.828125 65.921875 22.671875 59.328125 
Q 17.53125 52.734375 16.796875 39.40625 
Q 19.671875 43.65625 24.015625 45.921875 
Q 28.375 48.1875 33.59375 48.1875 
Q 44.578125 48.1875 50.953125 41.515625 
Q 57.328125 34.859375 57.328125 23.390625 
Q 57.328125 12.15625 50.6875 5.359375 
Q 44.046875 -1.421875 33.015625 -1.421875 
Q 20.359375 -1.421875 13.671875 8.265625 
Q 6.984375 17.96875 6.984375 36.375 
Q 6.984375 53.65625 15.1875 63.9375 
Q 23.390625 74.21875 37.203125 74.21875 
Q 40.921875 74.21875 44.703125 73.484375 
Q 48.484375 72.75 52.59375 71.296875 
z
" id="DejaVuSans-36"/>
      </defs>
      <g transform="translate(245.182722 399.078438)scale(0.1 -0.1)">
       <use xlink:href="#DejaVuSans-36"/>
       <use x="63.623047" xlink:href="#DejaVuSans-30"/>
       <use x="127.246094" xlink:href="#DejaVuSans-30"/>
      </g>
     </g>
    </g>
    <g id="xtick_5">
     <g id="line2d_9">
      <path clip-path="url(#pff4fc6f031)" d="M 308.87166 384.48 
L 308.87166 51.84 
" style="fill:none;stroke:#b0b0b0;stroke-dasharray:5.12,1.28,0.8,1.28;stroke-dashoffset:0;stroke-width:0.8;"/>
     </g>
     <g id="line2d_10">
      <g>
       <use style="stroke:#000000;stroke-width:0.8;" x="308.87166" xlink:href="#m304756b7ac" y="384.48"/>
      </g>
     </g>
     <g id="text_5">
      <!-- 800 -->
      <defs>
       <path d="M 31.78125 34.625 
Q 24.75 34.625 20.71875 30.859375 
Q 16.703125 27.09375 16.703125 20.515625 
Q 16.703125 13.921875 20.71875 10.15625 
Q 24.75 6.390625 31.78125 6.390625 
Q 38.8125 6.390625 42.859375 10.171875 
Q 46.921875 13.96875 46.921875 20.515625 
Q 46.921875 27.09375 42.890625 30.859375 
Q 38.875 34.625 31.78125 34.625 
z
M 21.921875 38.8125 
Q 15.578125 40.375 12.03125 44.71875 
Q 8.5 49.078125 8.5 55.328125 
Q 8.5 64.0625 14.71875 69.140625 
Q 20.953125 74.21875 31.78125 74.21875 
Q 42.671875 74.21875 48.875 69.140625 
Q 55.078125 64.0625 55.078125 55.328125 
Q 55.078125 49.078125 51.53125 44.71875 
Q 48 40.375 41.703125 38.8125 
Q 48.828125 37.15625 52.796875 32.3125 
Q 56.78125 27.484375 56.78125 20.515625 
Q 56.78125 9.90625 50.3125 4.234375 
Q 43.84375 -1.421875 31.78125 -1.421875 
Q 19.734375 -1.421875 13.25 4.234375 
Q 6.78125 9.90625 6.78125 20.515625 
Q 6.78125 27.484375 10.78125 32.3125 
Q 14.796875 37.15625 21.921875 38.8125 
z
M 18.3125 54.390625 
Q 18.3125 48.734375 21.84375 45.5625 
Q 25.390625 42.390625 31.78125 42.390625 
Q 38.140625 42.390625 41.71875 45.5625 
Q 45.3125 48.734375 45.3125 54.390625 
Q 45.3125 60.0625 41.71875 63.234375 
Q 38.140625 66.40625 31.78125 66.40625 
Q 25.390625 66.40625 21.84375 63.234375 
Q 18.3125 60.0625 18.3125 54.390625 
z
" id="DejaVuSans-38"/>
      </defs>
      <g transform="translate(299.32791 399.078438)scale(0.1 -0.1)">
       <use xlink:href="#DejaVuSans-38"/>
       <use x="63.623047" xlink:href="#DejaVuSans-30"/>
       <use x="127.246094" xlink:href="#DejaVuSans-30"/>
      </g>
     </g>
    </g>
    <g id="xtick_6">
     <g id="line2d_11">
      <path clip-path="url(#pff4fc6f031)" d="M 363.016848 384.48 
L 363.016848 51.84 
" style="fill:none;stroke:#b0b0b0;stroke-dasharray:5.12,1.28,0.8,1.28;stroke-dashoffset:0;stroke-width:0.8;"/>
     </g>
     <g id="line2d_12">
      <g>
       <use style="stroke:#000000;stroke-width:0.8;" x="363.016848" xlink:href="#m304756b7ac" y="384.48"/>
      </g>
     </g>
     <g id="text_6">
      <!-- 1000 -->
      <defs>
       <path d="M 12.40625 8.296875 
L 28.515625 8.296875 
L 28.515625 63.921875 
L 10.984375 60.40625 
L 10.984375 69.390625 
L 28.421875 72.90625 
L 38.28125 72.90625 
L 38.28125 8.296875 
L 54.390625 8.296875 
L 54.390625 0 
L 12.40625 0 
z
" id="DejaVuSans-31"/>
      </defs>
      <g transform="translate(350.291848 399.078438)scale(0.1 -0.1)">
       <use xlink:href="#DejaVuSans-31"/>
       <use x="63.623047" xlink:href="#DejaVuSans-30"/>
       <use x="127.246094" xlink:href="#DejaVuSans-30"/>
       <use x="190.869141" xlink:href="#DejaVuSans-30"/>
      </g>
     </g>
    </g>
    <g id="xtick_7">
     <g id="line2d_13">
      <path clip-path="url(#pff4fc6f031)" d="M 417.162035 384.48 
L 417.162035 51.84 
" style="fill:none;stroke:#b0b0b0;stroke-dasharray:5.12,1.28,0.8,1.28;stroke-dashoffset:0;stroke-width:0.8;"/>
     </g>
     <g id="line2d_14">
      <g>
       <use style="stroke:#000000;stroke-width:0.8;" x="417.162035" xlink:href="#m304756b7ac" y="384.48"/>
      </g>
     </g>
     <g id="text_7">
      <!-- 1200 -->
      <g transform="translate(404.437035 399.078438)scale(0.1 -0.1)">
       <use xlink:href="#DejaVuSans-31"/>
       <use x="63.623047" xlink:href="#DejaVuSans-32"/>
       <use x="127.246094" xlink:href="#DejaVuSans-30"/>
       <use x="190.869141" xlink:href="#DejaVuSans-30"/>
      </g>
     </g>
    </g>
    <g id="xtick_8">
     <g id="line2d_15">
      <path clip-path="url(#pff4fc6f031)" d="M 471.307223 384.48 
L 471.307223 51.84 
" style="fill:none;stroke:#b0b0b0;stroke-dasharray:5.12,1.28,0.8,1.28;stroke-dashoffset:0;stroke-width:0.8;"/>
     </g>
     <g id="line2d_16">
      <g>
       <use style="stroke:#000000;stroke-width:0.8;" x="471.307223" xlink:href="#m304756b7ac" y="384.48"/>
      </g>
     </g>
     <g id="text_8">
      <!-- 1400 -->
      <g transform="translate(458.582223 399.078438)scale(0.1 -0.1)">
       <use xlink:href="#DejaVuSans-31"/>
       <use x="63.623047" xlink:href="#DejaVuSans-34"/>
       <use x="127.246094" xlink:href="#DejaVuSans-30"/>
       <use x="190.869141" xlink:href="#DejaVuSans-30"/>
      </g>
     </g>
    </g>
    <g id="text_9">
     <!-- Iteration -->
     <defs>
      <path d="M 9.8125 72.90625 
L 19.671875 72.90625 
L 19.671875 0 
L 9.8125 0 
z
" id="DejaVuSans-49"/>
      <path d="M 18.3125 70.21875 
L 18.3125 54.6875 
L 36.8125 54.6875 
L 36.8125 47.703125 
L 18.3125 47.703125 
L 18.3125 18.015625 
Q 18.3125 11.328125 20.140625 9.421875 
Q 21.96875 7.515625 27.59375 7.515625 
L 36.8125 7.515625 
L 36.8125 0 
L 27.59375 0 
Q 17.1875 0 13.234375 3.875 
Q 9.28125 7.765625 9.28125 18.015625 
L 9.28125 47.703125 
L 2.6875 47.703125 
L 2.6875 54.6875 
L 9.28125 54.6875 
L 9.28125 70.21875 
z
" id="DejaVuSans-74"/>
      <path d="M 56.203125 29.59375 
L 56.203125 25.203125 
L 14.890625 25.203125 
Q 15.484375 15.921875 20.484375 11.0625 
Q 25.484375 6.203125 34.421875 6.203125 
Q 39.59375 6.203125 44.453125 7.46875 
Q 49.3125 8.734375 54.109375 11.28125 
L 54.109375 2.78125 
Q 49.265625 0.734375 44.1875 -0.34375 
Q 39.109375 -1.421875 33.890625 -1.421875 
Q 20.796875 -1.421875 13.15625 6.1875 
Q 5.515625 13.8125 5.515625 26.8125 
Q 5.515625 40.234375 12.765625 48.109375 
Q 20.015625 56 32.328125 56 
Q 43.359375 56 49.78125 48.890625 
Q 56.203125 41.796875 56.203125 29.59375 
z
M 47.21875 32.234375 
Q 47.125 39.59375 43.09375 43.984375 
Q 39.0625 48.390625 32.421875 48.390625 
Q 24.90625 48.390625 20.390625 44.140625 
Q 15.875 39.890625 15.1875 32.171875 
z
" id="DejaVuSans-65"/>
      <path d="M 41.109375 46.296875 
Q 39.59375 47.171875 37.8125 47.578125 
Q 36.03125 48 33.890625 48 
Q 26.265625 48 22.1875 43.046875 
Q 18.109375 38.09375 18.109375 28.8125 
L 18.109375 0 
L 9.078125 0 
L 9.078125 54.6875 
L 18.109375 54.6875 
L 18.109375 46.1875 
Q 20.953125 51.171875 25.484375 53.578125 
Q 30.03125 56 36.53125 56 
Q 37.453125 56 38.578125 55.875 
Q 39.703125 55.765625 41.0625 55.515625 
z
" id="DejaVuSans-72"/>
      <path d="M 34.28125 27.484375 
Q 23.390625 27.484375 19.1875 25 
Q 14.984375 22.515625 14.984375 16.5 
Q 14.984375 11.71875 18.140625 8.90625 
Q 21.296875 6.109375 26.703125 6.109375 
Q 34.1875 6.109375 38.703125 11.40625 
Q 43.21875 16.703125 43.21875 25.484375 
L 43.21875 27.484375 
z
M 52.203125 31.203125 
L 52.203125 0 
L 43.21875 0 
L 43.21875 8.296875 
Q 40.140625 3.328125 35.546875 0.953125 
Q 30.953125 -1.421875 24.3125 -1.421875 
Q 15.921875 -1.421875 10.953125 3.296875 
Q 6 8.015625 6 15.921875 
Q 6 25.140625 12.171875 29.828125 
Q 18.359375 34.515625 30.609375 34.515625 
L 43.21875 34.515625 
L 43.21875 35.40625 
Q 43.21875 41.609375 39.140625 45 
Q 35.0625 48.390625 27.6875 48.390625 
Q 23 48.390625 18.546875 47.265625 
Q 14.109375 46.140625 10.015625 43.890625 
L 10.015625 52.203125 
Q 14.9375 54.109375 19.578125 55.046875 
Q 24.21875 56 28.609375 56 
Q 40.484375 56 46.34375 49.84375 
Q 52.203125 43.703125 52.203125 31.203125 
z
" id="DejaVuSans-61"/>
      <path d="M 9.421875 54.6875 
L 18.40625 54.6875 
L 18.40625 0 
L 9.421875 0 
z
M 9.421875 75.984375 
L 18.40625 75.984375 
L 18.40625 64.59375 
L 9.421875 64.59375 
z
" id="DejaVuSans-69"/>
      <path d="M 30.609375 48.390625 
Q 23.390625 48.390625 19.1875 42.75 
Q 14.984375 37.109375 14.984375 27.296875 
Q 14.984375 17.484375 19.15625 11.84375 
Q 23.34375 6.203125 30.609375 6.203125 
Q 37.796875 6.203125 41.984375 11.859375 
Q 46.1875 17.53125 46.1875 27.296875 
Q 46.1875 37.015625 41.984375 42.703125 
Q 37.796875 48.390625 30.609375 48.390625 
z
M 30.609375 56 
Q 42.328125 56 49.015625 48.375 
Q 55.71875 40.765625 55.71875 27.296875 
Q 55.71875 13.875 49.015625 6.21875 
Q 42.328125 -1.421875 30.609375 -1.421875 
Q 18.84375 -1.421875 12.171875 6.21875 
Q 5.515625 13.875 5.515625 27.296875 
Q 5.515625 40.765625 12.171875 48.375 
Q 18.84375 56 30.609375 56 
z
" id="DejaVuSans-6f"/>
      <path d="M 54.890625 33.015625 
L 54.890625 0 
L 45.90625 0 
L 45.90625 32.71875 
Q 45.90625 40.484375 42.875 44.328125 
Q 39.84375 48.1875 33.796875 48.1875 
Q 26.515625 48.1875 22.3125 43.546875 
Q 18.109375 38.921875 18.109375 30.90625 
L 18.109375 0 
L 9.078125 0 
L 9.078125 54.6875 
L 18.109375 54.6875 
L 18.109375 46.1875 
Q 21.34375 51.125 25.703125 53.5625 
Q 30.078125 56 35.796875 56 
Q 45.21875 56 50.046875 50.171875 
Q 54.890625 44.34375 54.890625 33.015625 
z
" id="DejaVuSans-6e"/>
     </defs>
     <g transform="translate(265.507969 415.795938)scale(0.14 -0.14)">
      <use xlink:href="#DejaVuSans-49"/>
      <use x="29.492188" xlink:href="#DejaVuSans-74"/>
      <use x="68.701172" xlink:href="#DejaVuSans-65"/>
      <use x="130.224609" xlink:href="#DejaVuSans-72"/>
      <use x="171.337891" xlink:href="#DejaVuSans-61"/>
      <use x="232.617188" xlink:href="#DejaVuSans-74"/>
      <use x="271.826172" xlink:href="#DejaVuSans-69"/>
      <use x="299.609375" xlink:href="#DejaVuSans-6f"/>
      <use x="360.791016" xlink:href="#DejaVuSans-6e"/>
     </g>
    </g>
   </g>
   <g id="matplotlib.axis_2">
    <g id="ytick_1">
     <g id="line2d_17">
      <path clip-path="url(#pff4fc6f031)" d="M 72 346.313349 
L 518.4 346.313349 
" style="fill:none;stroke:#b0b0b0;stroke-dasharray:5.12,1.28,0.8,1.28;stroke-dashoffset:0;stroke-width:0.8;"/>
     </g>
     <g id="line2d_18">
      <defs>
       <path d="M 0 0 
L -3.5 0 
" id="m77ab53f410" style="stroke:#000000;stroke-width:0.8;"/>
      </defs>
      <g>
       <use style="stroke:#000000;stroke-width:0.8;" x="72" xlink:href="#m77ab53f410" y="346.313349"/>
      </g>
     </g>
     <g id="text_10">
      <!-- 0.92 -->
      <defs>
       <path d="M 10.6875 12.40625 
L 21 12.40625 
L 21 0 
L 10.6875 0 
z
" id="DejaVuSans-2e"/>
       <path d="M 10.984375 1.515625 
L 10.984375 10.5 
Q 14.703125 8.734375 18.5 7.8125 
Q 22.3125 6.890625 25.984375 6.890625 
Q 35.75 6.890625 40.890625 13.453125 
Q 46.046875 20.015625 46.78125 33.40625 
Q 43.953125 29.203125 39.59375 26.953125 
Q 35.25 24.703125 29.984375 24.703125 
Q 19.046875 24.703125 12.671875 31.3125 
Q 6.296875 37.9375 6.296875 49.421875 
Q 6.296875 60.640625 12.9375 67.421875 
Q 19.578125 74.21875 30.609375 74.21875 
Q 43.265625 74.21875 49.921875 64.515625 
Q 56.59375 54.828125 56.59375 36.375 
Q 56.59375 19.140625 48.40625 8.859375 
Q 40.234375 -1.421875 26.421875 -1.421875 
Q 22.703125 -1.421875 18.890625 -0.6875 
Q 15.09375 0.046875 10.984375 1.515625 
z
M 30.609375 32.421875 
Q 37.25 32.421875 41.125 36.953125 
Q 45.015625 41.5 45.015625 49.421875 
Q 45.015625 57.28125 41.125 61.84375 
Q 37.25 66.40625 30.609375 66.40625 
Q 23.96875 66.40625 20.09375 61.84375 
Q 16.21875 57.28125 16.21875 49.421875 
Q 16.21875 41.5 20.09375 36.953125 
Q 23.96875 32.421875 30.609375 32.421875 
z
" id="DejaVuSans-39"/>
      </defs>
      <g transform="translate(42.734375 350.112567)scale(0.1 -0.1)">
       <use xlink:href="#DejaVuSans-30"/>
       <use x="63.623047" xlink:href="#DejaVuSans-2e"/>
       <use x="95.410156" xlink:href="#DejaVuSans-39"/>
       <use x="159.033203" xlink:href="#DejaVuSans-32"/>
      </g>
     </g>
    </g>
    <g id="ytick_2">
     <g id="line2d_19">
      <path clip-path="url(#pff4fc6f031)" d="M 72 276.475012 
L 518.4 276.475012 
" style="fill:none;stroke:#b0b0b0;stroke-dasharray:5.12,1.28,0.8,1.28;stroke-dashoffset:0;stroke-width:0.8;"/>
     </g>
     <g id="line2d_20">
      <g>
       <use style="stroke:#000000;stroke-width:0.8;" x="72" xlink:href="#m77ab53f410" y="276.475012"/>
      </g>
     </g>
     <g id="text_11">
      <!-- 0.94 -->
      <g transform="translate(42.734375 280.27423)scale(0.1 -0.1)">
       <use xlink:href="#DejaVuSans-30"/>
       <use x="63.623047" xlink:href="#DejaVuSans-2e"/>
       <use x="95.410156" xlink:href="#DejaVuSans-39"/>
       <use x="159.033203" xlink:href="#DejaVuSans-34"/>
      </g>
     </g>
    </g>
    <g id="ytick_3">
     <g id="line2d_21">
      <path clip-path="url(#pff4fc6f031)" d="M 72 206.636674 
L 518.4 206.636674 
" style="fill:none;stroke:#b0b0b0;stroke-dasharray:5.12,1.28,0.8,1.28;stroke-dashoffset:0;stroke-width:0.8;"/>
     </g>
     <g id="line2d_22">
      <g>
       <use style="stroke:#000000;stroke-width:0.8;" x="72" xlink:href="#m77ab53f410" y="206.636674"/>
      </g>
     </g>
     <g id="text_12">
      <!-- 0.96 -->
      <g transform="translate(42.734375 210.435893)scale(0.1 -0.1)">
       <use xlink:href="#DejaVuSans-30"/>
       <use x="63.623047" xlink:href="#DejaVuSans-2e"/>
       <use x="95.410156" xlink:href="#DejaVuSans-39"/>
       <use x="159.033203" xlink:href="#DejaVuSans-36"/>
      </g>
     </g>
    </g>
    <g id="ytick_4">
     <g id="line2d_23">
      <path clip-path="url(#pff4fc6f031)" d="M 72 136.798337 
L 518.4 136.798337 
" style="fill:none;stroke:#b0b0b0;stroke-dasharray:5.12,1.28,0.8,1.28;stroke-dashoffset:0;stroke-width:0.8;"/>
     </g>
     <g id="line2d_24">
      <g>
       <use style="stroke:#000000;stroke-width:0.8;" x="72" xlink:href="#m77ab53f410" y="136.798337"/>
      </g>
     </g>
     <g id="text_13">
      <!-- 0.98 -->
      <g transform="translate(42.734375 140.597556)scale(0.1 -0.1)">
       <use xlink:href="#DejaVuSans-30"/>
       <use x="63.623047" xlink:href="#DejaVuSans-2e"/>
       <use x="95.410156" xlink:href="#DejaVuSans-39"/>
       <use x="159.033203" xlink:href="#DejaVuSans-38"/>
      </g>
     </g>
    </g>
    <g id="ytick_5">
     <g id="line2d_25">
      <path clip-path="url(#pff4fc6f031)" d="M 72 66.96 
L 518.4 66.96 
" style="fill:none;stroke:#b0b0b0;stroke-dasharray:5.12,1.28,0.8,1.28;stroke-dashoffset:0;stroke-width:0.8;"/>
     </g>
     <g id="line2d_26">
      <g>
       <use style="stroke:#000000;stroke-width:0.8;" x="72" xlink:href="#m77ab53f410" y="66.96"/>
      </g>
     </g>
     <g id="text_14">
      <!-- 1.00 -->
      <g transform="translate(42.734375 70.759219)scale(0.1 -0.1)">
       <use xlink:href="#DejaVuSans-31"/>
       <use x="63.623047" xlink:href="#DejaVuSans-2e"/>
       <use x="95.410156" xlink:href="#DejaVuSans-30"/>
       <use x="159.033203" xlink:href="#DejaVuSans-30"/>
      </g>
     </g>
    </g>
    <g id="text_15">
     <!-- $u_{m}[V]$ -->
     <defs>
      <path d="M 6.6875 21.6875 
L 13.09375 54.6875 
L 22.125 54.6875 
L 15.71875 22.015625 
Q 15.234375 19.625 15.015625 17.921875 
Q 14.796875 16.21875 14.796875 15.09375 
Q 14.796875 10.9375 17.328125 8.65625 
Q 19.875 6.390625 24.515625 6.390625 
Q 31.734375 6.390625 37 11.265625 
Q 42.28125 16.15625 43.890625 24.421875 
L 49.90625 54.6875 
L 58.890625 54.6875 
L 48.296875 0 
L 39.3125 0 
L 41.109375 8.59375 
Q 37.3125 3.8125 32.0625 1.1875 
Q 26.8125 -1.421875 20.90625 -1.421875 
Q 13.71875 -1.421875 9.71875 2.515625 
Q 5.71875 6.453125 5.71875 13.484375 
Q 5.71875 14.9375 5.953125 17.140625 
Q 6.203125 19.34375 6.6875 21.6875 
z
" id="DejaVuSans-Oblique-75"/>
      <path d="M 89.796875 33.015625 
L 83.40625 0 
L 74.421875 0 
L 80.71875 32.71875 
Q 81.109375 34.8125 81.296875 36.328125 
Q 81.5 37.84375 81.5 38.921875 
Q 81.5 43.3125 79.046875 45.75 
Q 76.609375 48.1875 72.21875 48.1875 
Q 65.671875 48.1875 60.546875 43.28125 
Q 55.421875 38.375 53.90625 30.515625 
L 47.90625 0 
L 38.921875 0 
L 45.3125 32.71875 
Q 45.703125 34.515625 45.890625 36.046875 
Q 46.09375 37.59375 46.09375 38.8125 
Q 46.09375 43.265625 43.65625 45.71875 
Q 41.21875 48.1875 36.921875 48.1875 
Q 30.28125 48.1875 25.140625 43.28125 
Q 20.015625 38.375 18.5 30.515625 
L 12.5 0 
L 3.515625 0 
L 14.203125 54.6875 
L 23.1875 54.6875 
L 21.484375 46.1875 
Q 25.140625 50.984375 30.046875 53.484375 
Q 34.96875 56 40.578125 56 
Q 46.53125 56 50.359375 52.875 
Q 54.203125 49.75 54.984375 44.1875 
Q 59.078125 49.953125 64.46875 52.96875 
Q 69.875 56 75.875 56 
Q 82.90625 56 86.734375 51.953125 
Q 90.578125 47.90625 90.578125 40.484375 
Q 90.578125 38.875 90.375 36.9375 
Q 90.1875 35.015625 89.796875 33.015625 
z
" id="DejaVuSans-Oblique-6d"/>
      <path d="M 8.59375 75.984375 
L 29.296875 75.984375 
L 29.296875 69 
L 17.578125 69 
L 17.578125 -6.203125 
L 29.296875 -6.203125 
L 29.296875 -13.1875 
L 8.59375 -13.1875 
z
" id="DejaVuSans-5b"/>
      <path d="M 20.609375 0 
L 7.8125 72.90625 
L 17.484375 72.90625 
L 28.078125 10.203125 
L 63.484375 72.90625 
L 74.21875 72.90625 
L 32.078125 0 
z
" id="DejaVuSans-Oblique-56"/>
      <path d="M 30.421875 75.984375 
L 30.421875 -13.1875 
L 9.71875 -13.1875 
L 9.71875 -6.203125 
L 21.390625 -6.203125 
L 21.390625 69 
L 9.71875 69 
L 9.71875 75.984375 
z
" id="DejaVuSans-5d"/>
     </defs>
     <g transform="translate(35.822812 237.83)rotate(-90)scale(0.14 -0.14)">
      <use transform="translate(0 0.015625)" xlink:href="#DejaVuSans-Oblique-75"/>
      <use transform="translate(63.378906 -16.390625)scale(0.7)" xlink:href="#DejaVuSans-Oblique-6d"/>
      <use transform="translate(134.301758 0.015625)" xlink:href="#DejaVuSans-5b"/>
      <use transform="translate(173.31543 0.015625)" xlink:href="#DejaVuSans-Oblique-56"/>
      <use transform="translate(241.723633 0.015625)" xlink:href="#DejaVuSans-5d"/>
     </g>
    </g>
   </g>
   <g id="line2d_27">
    <path clip-path="url(#pff4fc6f031)" d="M 92.290909 66.96 
L 92.561635 66.96 
L 92.832361 66.96 
L 93.373813 67.658383 
L 93.644539 68.356767 
L 95.53962 76.038984 
L 97.976154 88.959076 
L 98.788332 93.498568 
L 100.412687 102.22836 
L 101.495591 108.513811 
L 102.307769 113.053303 
L 103.661399 121.084711 
L 104.473576 125.624203 
L 106.097932 135.40157 
L 106.91011 139.941062 
L 108.534465 149.71843 
L 109.346643 154.257921 
L 110.970999 164.035289 
L 111.783177 168.574781 
L 113.407532 178.352148 
L 114.21971 182.89164 
L 115.844066 192.669007 
L 116.656244 197.208499 
L 118.280599 206.985866 
L 119.092777 211.525358 
L 120.717133 221.302725 
L 121.52931 225.842217 
L 123.153666 235.619584 
L 123.965844 240.159076 
L 125.5902 249.936443 
L 126.131651 253.079169 
L 127.485281 261.110577 
L 128.297459 265.650069 
L 129.921815 275.427436 
L 130.733992 279.966928 
L 132.358348 289.744296 
L 133.170526 294.283788 
L 134.794881 304.061155 
L 135.607059 308.600647 
L 137.231415 318.378014 
L 138.043593 322.917506 
L 139.397222 330.948915 
L 140.480126 334.790023 
L 141.292304 335.837598 
L 141.56303 335.488406 
L 141.833756 335.488406 
L 142.104482 335.139215 
L 142.375208 334.440831 
L 142.645934 334.09164 
L 144.541015 326.409423 
L 146.977549 309.997413 
L 148.331178 297.077321 
L 149.143356 285.204804 
L 150.496986 256.920277 
L 151.038438 244.000185 
L 151.309164 245.396952 
L 151.850616 238.762309 
L 152.662793 230.381709 
L 153.745697 221.302725 
L 155.099327 213.271316 
L 156.994408 206.287483 
L 157.265134 205.589099 
L 157.806586 203.843141 
L 158.077312 203.144758 
L 158.618764 201.398799 
L 160.784572 195.811732 
L 161.055297 195.46254 
L 161.596749 194.065774 
L 161.867475 193.716582 
L 162.138201 193.018199 
L 162.408927 192.669007 
L 162.679653 191.970624 
L 162.950379 191.621432 
L 163.221105 190.923048 
L 164.574735 189.17709 
L 164.845461 188.478707 
L 165.116187 188.478707 
L 166.19909 187.08194 
L 166.469816 187.08194 
L 167.011268 186.383557 
L 167.281994 186.383557 
L 167.55272 186.034365 
L 168.094172 186.034365 
L 168.364898 185.685173 
L 171.342883 185.685173 
L 171.613609 186.034365 
L 171.884335 186.034365 
L 172.155061 186.383557 
L 172.425787 186.383557 
L 172.696513 186.732748 
L 172.967239 186.732748 
L 173.779417 187.780323 
L 174.050143 187.780323 
L 175.133046 189.17709 
L 175.403772 189.875473 
L 176.21595 190.923048 
L 176.486676 191.621432 
L 177.028128 192.319815 
L 177.298854 193.018199 
L 177.56958 193.36739 
L 178.381758 195.46254 
L 178.652483 195.811732 
L 180.547565 200.700416 
L 181.089017 202.446374 
L 181.359743 203.144758 
L 182.171921 205.938291 
L 182.442647 206.636674 
L 184.067002 212.572933 
L 184.337728 213.271316 
L 186.774262 222.3503 
L 187.044988 223.048684 
L 187.586439 224.794642 
L 188.398617 226.889792 
L 188.940069 227.588176 
L 189.210795 228.286559 
L 189.752247 228.984942 
L 190.022973 228.984942 
L 190.293699 229.334134 
L 191.647329 229.334134 
L 193.54241 226.889792 
L 193.813136 226.191409 
L 194.083862 225.842217 
L 194.89604 223.747067 
L 195.166766 223.397875 
L 197.332573 217.810808 
L 197.603299 217.461617 
L 198.144751 216.06485 
L 198.415477 215.715658 
L 198.686203 215.017275 
L 198.956929 214.668083 
L 199.227655 213.9697 
L 200.581284 212.223741 
L 200.85201 212.223741 
L 201.122736 211.87455 
L 201.393462 211.87455 
L 201.664188 211.525358 
L 202.747092 211.525358 
L 203.017818 211.87455 
L 203.288544 211.87455 
L 203.55927 212.223741 
L 203.829996 212.223741 
L 204.371448 212.922125 
L 204.642174 212.922125 
L 205.454351 213.9697 
L 205.725077 214.668083 
L 206.807981 216.06485 
L 207.078707 216.763233 
L 207.890885 217.810808 
L 208.161611 218.509192 
L 211.139596 222.3503 
L 211.410322 222.3503 
L 211.681048 222.699492 
L 211.951774 222.699492 
L 212.2225 223.048684 
L 212.763952 223.048684 
L 213.034678 223.397875 
L 213.846855 223.397875 
L 214.117581 223.048684 
L 214.929759 223.048684 
L 215.200485 222.699492 
L 215.471211 222.699492 
L 215.741937 222.3503 
L 216.012663 222.3503 
L 216.554115 221.651917 
L 216.824841 221.651917 
L 217.637019 220.604342 
L 217.907745 220.604342 
L 218.990648 219.207575 
L 219.261374 219.207575 
L 220.344278 217.810808 
L 220.615004 217.810808 
L 221.156456 217.112425 
L 221.427182 217.112425 
L 221.968634 216.414042 
L 222.510086 216.414042 
L 222.780811 216.06485 
L 223.051537 216.06485 
L 223.322263 215.715658 
L 226.300249 215.715658 
L 226.570975 216.06485 
L 227.112426 216.06485 
L 227.383152 216.414042 
L 227.653878 216.414042 
L 227.924604 216.763233 
L 228.19533 216.763233 
L 228.466056 217.112425 
L 228.736782 217.112425 
L 229.007508 217.461617 
L 229.278234 217.461617 
L 229.54896 217.810808 
L 229.819686 217.810808 
L 230.090412 218.16 
L 230.361138 218.16 
L 230.631864 218.509192 
L 230.90259 218.509192 
L 231.173316 218.858383 
L 231.444041 218.858383 
L 231.714767 219.207575 
L 231.985493 219.207575 
L 232.256219 219.556767 
L 232.526945 219.556767 
L 232.797671 219.905958 
L 233.339123 219.905958 
L 233.609849 220.25515 
L 234.422027 220.25515 
L 234.692753 220.604342 
L 237.670738 220.604342 
L 237.941464 220.25515 
L 238.753642 220.25515 
L 239.024368 219.905958 
L 239.56582 219.905958 
L 239.836546 219.556767 
L 240.377997 219.556767 
L 240.648723 219.207575 
L 241.190175 219.207575 
L 241.460901 218.858383 
L 242.002353 218.858383 
L 242.273079 218.509192 
L 242.814531 218.509192 
L 243.085257 218.16 
L 243.626709 218.16 
L 243.897435 217.810808 
L 244.980338 217.810808 
L 245.251064 217.461617 
L 249.853405 217.461617 
L 250.124131 217.810808 
L 251.207035 217.810808 
L 251.477761 218.16 
L 252.289939 218.16 
L 252.560665 218.509192 
L 253.643568 218.509192 
L 253.914294 218.858383 
L 254.997198 218.858383 
L 255.267924 219.207575 
L 256.89228 219.207575 
L 257.163006 219.556767 
L 260.411717 219.556767 
L 260.682443 219.207575 
L 262.577524 219.207575 
L 262.84825 218.858383 
L 264.472606 218.858383 
L 264.743332 218.509192 
L 266.638413 218.509192 
L 266.909139 218.16 
L 273.677288 218.16 
L 273.948014 218.509192 
L 276.384547 218.509192 
L 276.655273 218.858383 
L 286.672133 218.858383 
L 286.942859 218.509192 
L 299.396252 218.509192 
L 299.666978 218.858383 
L 308.600934 218.858383 
L 308.87166 218.509192 
L 323.490861 218.509192 
L 323.761587 218.858383 
L 329.717557 218.858383 
L 329.988283 218.509192 
L 498.109091 218.509192 
L 498.109091 218.509192 
" style="fill:none;stroke:#bf00bf;stroke-linecap:square;stroke-width:1.5;"/>
   </g>
   <g id="line2d_28">
    <path clip-path="url(#pff4fc6f031)" d="M 92.290909 66.96 
L 92.561635 66.96 
L 92.832361 66.96 
L 93.373813 67.658383 
L 93.915265 69.05515 
L 95.268894 74.642217 
L 97.705428 87.562309 
L 98.24688 90.705035 
L 98.517606 90.705035 
L 99.600509 96.990485 
L 100.412687 101.529977 
L 102.037043 111.307344 
L 102.849221 115.846836 
L 104.473576 125.624203 
L 105.015028 128.766928 
L 106.368658 136.798337 
L 106.91011 139.941062 
L 108.263739 147.972471 
L 109.075917 152.511963 
L 110.700273 162.28933 
L 111.512451 166.828822 
L 113.136806 176.606189 
L 113.948984 181.145681 
L 115.57334 190.923048 
L 116.385518 195.46254 
L 118.009873 205.239908 
L 118.551325 208.382633 
L 119.904955 216.414042 
L 120.717133 220.953533 
L 122.341488 230.730901 
L 123.153666 235.270393 
L 124.778022 245.04776 
L 125.5902 249.587252 
L 127.214555 259.364619 
L 128.026733 263.904111 
L 129.651089 273.681478 
L 130.463266 278.22097 
L 132.087622 287.998337 
L 132.8998 292.537829 
L 134.524155 302.315196 
L 135.336333 306.854688 
L 136.960689 316.632055 
L 137.502141 319.774781 
L 138.585045 326.060231 
L 139.126496 327.806189 
L 139.667948 327.806189 
L 140.2094 326.409423 
L 141.833756 317.67963 
L 142.91666 309.997413 
L 144.541015 296.728129 
L 145.894645 283.808037 
L 148.331178 257.618661 
L 149.955534 239.809885 
L 150.767712 232.476859 
L 151.309164 228.635751 
L 151.850616 226.191409 
L 152.392067 224.44545 
L 152.933519 223.747067 
L 153.474971 223.747067 
L 154.287149 224.794642 
L 154.557875 225.493025 
L 154.828601 225.493025 
L 155.099327 225.842217 
L 155.370053 225.842217 
L 155.640779 225.493025 
L 155.911505 225.493025 
L 156.182231 225.143834 
L 156.452957 224.44545 
L 156.723682 224.096259 
L 156.994408 223.397875 
L 157.265134 223.048684 
L 157.53586 222.3503 
L 157.806586 222.001109 
L 158.348038 220.604342 
L 158.88949 219.905958 
L 159.160216 219.207575 
L 159.701668 218.509192 
L 159.972394 217.810808 
L 161.326023 216.06485 
L 161.596749 216.06485 
L 162.408927 215.017275 
L 162.679653 215.017275 
L 162.950379 214.668083 
L 163.221105 214.668083 
L 163.491831 214.318891 
L 164.033283 214.318891 
L 164.304009 213.9697 
L 167.011268 213.9697 
L 167.281994 214.318891 
L 167.55272 214.318891 
L 167.823446 214.668083 
L 168.094172 214.668083 
L 168.364898 215.017275 
L 168.635624 215.017275 
L 169.177076 215.715658 
L 169.447802 215.715658 
L 171.613609 218.509192 
L 171.884335 219.207575 
L 172.425787 219.905958 
L 172.696513 220.604342 
L 172.967239 220.953533 
L 173.237965 221.651917 
L 173.508691 222.001109 
L 174.050143 223.397875 
L 174.320868 223.747067 
L 176.486676 229.334134 
L 177.028128 231.080092 
L 177.298854 231.778476 
L 178.111032 234.572009 
L 178.381758 235.270393 
L 182.713373 252.380785 
L 183.52555 256.221894 
L 185.420632 263.205727 
L 185.691358 263.904111 
L 185.962084 264.253303 
L 186.23281 264.951686 
L 186.503536 265.300878 
L 186.774262 265.300878 
L 187.044988 265.650069 
L 187.857165 265.650069 
L 188.940069 264.253303 
L 190.293699 260.761386 
L 193.271684 249.587252 
L 193.54241 248.888868 
L 194.89604 244.000185 
L 196.520395 239.809885 
L 197.874025 238.063926 
L 199.227655 238.063926 
L 199.498381 238.413118 
L 199.769107 238.413118 
L 201.122736 240.159076 
L 201.393462 240.85746 
L 201.664188 241.206651 
L 202.476366 243.301801 
L 202.747092 243.650993 
L 205.454351 250.634827 
L 205.725077 250.984018 
L 206.266529 252.380785 
L 206.537255 252.729977 
L 206.807981 253.42836 
L 208.432337 255.52351 
L 208.703063 255.52351 
L 208.973789 255.872702 
L 209.244515 255.872702 
L 209.51524 256.221894 
L 210.327418 256.221894 
L 210.598144 255.872702 
L 211.139596 255.872702 
L 211.681048 255.174319 
L 211.951774 255.174319 
L 213.846855 252.729977 
L 214.117581 252.031594 
L 214.929759 250.984018 
L 215.200485 250.285635 
L 216.012663 249.23806 
L 216.283389 248.539677 
L 218.990648 245.04776 
L 219.261374 245.04776 
L 219.5321 244.698568 
L 219.802826 244.698568 
L 220.073552 244.349376 
L 222.510086 244.349376 
L 222.780811 244.698568 
L 223.051537 244.698568 
L 223.322263 245.04776 
L 223.592989 245.04776 
L 223.863715 245.396952 
L 224.134441 245.396952 
L 224.946619 246.444527 
L 225.217345 246.444527 
L 226.570975 248.190485 
L 226.841701 248.190485 
L 227.924604 249.587252 
L 228.19533 249.587252 
L 228.736782 250.285635 
L 229.007508 250.285635 
L 229.54896 250.984018 
L 229.819686 250.984018 
L 230.090412 251.33321 
L 230.361138 251.33321 
L 230.631864 251.682402 
L 231.444041 251.682402 
L 231.714767 252.031594 
L 233.609849 252.031594 
L 233.880575 251.682402 
L 234.692753 251.682402 
L 234.963479 251.33321 
L 235.234205 251.33321 
L 235.504931 250.984018 
L 235.775656 250.984018 
L 236.046382 250.634827 
L 236.317108 250.634827 
L 236.587834 250.285635 
L 236.85856 250.285635 
L 237.129286 249.936443 
L 237.400012 249.936443 
L 237.670738 249.587252 
L 237.941464 249.587252 
L 238.21219 249.23806 
L 238.482916 249.23806 
L 238.753642 248.888868 
L 239.024368 248.888868 
L 239.56582 248.190485 
L 240.107272 248.190485 
L 240.377997 247.841293 
L 240.648723 247.841293 
L 240.919449 247.492102 
L 241.460901 247.492102 
L 241.731627 247.14291 
L 242.814531 247.14291 
L 243.085257 246.793718 
L 244.709612 246.793718 
L 244.980338 247.14291 
L 246.063242 247.14291 
L 246.333968 247.492102 
L 247.146146 247.492102 
L 247.416872 247.841293 
L 247.958324 247.841293 
L 248.22905 248.190485 
L 248.770502 248.190485 
L 249.041227 248.539677 
L 249.311953 248.539677 
L 249.582679 248.888868 
L 250.124131 248.888868 
L 250.394857 249.23806 
L 250.936309 249.23806 
L 251.207035 249.587252 
L 252.019213 249.587252 
L 252.289939 249.936443 
L 253.372843 249.936443 
L 253.643568 250.285635 
L 256.621554 250.285635 
L 256.89228 249.936443 
L 258.245909 249.936443 
L 258.516635 249.587252 
L 259.599539 249.587252 
L 259.870265 249.23806 
L 260.682443 249.23806 
L 260.953169 248.888868 
L 262.036073 248.888868 
L 262.306798 248.539677 
L 263.389702 248.539677 
L 263.660428 248.190485 
L 269.616399 248.190485 
L 269.887125 248.539677 
L 271.51148 248.539677 
L 271.782206 248.888868 
L 273.135836 248.888868 
L 273.406562 249.23806 
L 275.843095 249.23806 
L 276.113821 249.587252 
L 279.633259 249.587252 
L 279.903984 249.23806 
L 282.88197 249.23806 
L 283.152696 248.888868 
L 285.589229 248.888868 
L 285.859955 248.539677 
L 292.628104 248.539677 
L 292.89883 248.888868 
L 296.959719 248.888868 
L 297.230445 249.23806 
L 303.998593 249.23806 
L 304.269319 248.888868 
L 498.109091 248.888868 
L 498.109091 248.888868 
" style="fill:none;stroke:#00bfbf;stroke-linecap:square;stroke-width:1.5;"/>
   </g>
   <g id="line2d_29">
    <path clip-path="url(#pff4fc6f031)" d="M 92.290909 66.96 
L 92.561635 66.96 
L 92.832361 66.96 
L 93.103087 67.309192 
L 93.373813 68.007575 
L 93.915265 70.451917 
L 95.268894 77.784942 
L 98.517606 98.03806 
L 99.600509 103.974319 
L 100.954139 112.005727 
L 101.495591 115.148453 
L 102.849221 123.179861 
L 103.390673 126.322587 
L 104.744302 134.353995 
L 105.285754 137.496721 
L 106.639384 145.528129 
L 107.180836 148.670855 
L 108.534465 156.702263 
L 109.346643 161.241755 
L 110.970999 171.019122 
L 111.783177 175.558614 
L 113.407532 185.335982 
L 114.21971 189.875473 
L 115.844066 199.652841 
L 116.656244 204.192333 
L 118.280599 213.9697 
L 119.092777 218.509192 
L 120.717133 228.286559 
L 121.52931 232.826051 
L 123.153666 242.603418 
L 123.965844 247.14291 
L 125.5902 256.920277 
L 126.131651 260.063002 
L 127.485281 268.094411 
L 128.297459 272.633903 
L 129.921815 282.41127 
L 130.733992 286.950762 
L 132.358348 296.728129 
L 133.170526 301.267621 
L 134.794881 311.044988 
L 135.607059 315.58448 
L 137.231415 325.361848 
L 138.043593 329.901339 
L 138.855771 334.440831 
L 139.397222 335.139215 
L 139.667948 334.790023 
L 140.2094 333.393256 
L 140.750852 330.948915 
L 141.56303 326.409423 
L 143.187386 315.235289 
L 144.270289 306.156305 
L 146.165371 288.347529 
L 148.331178 264.951686 
L 149.955534 246.793718 
L 151.038438 237.714734 
L 151.850616 233.175242 
L 152.662793 231.080092 
L 152.933519 231.080092 
L 153.204245 230.730901 
L 153.474971 231.080092 
L 153.745697 231.080092 
L 154.016423 231.778476 
L 154.828601 232.826051 
L 155.640779 232.826051 
L 156.452957 231.778476 
L 156.723682 231.080092 
L 156.994408 230.730901 
L 157.265134 230.032517 
L 157.53586 229.683326 
L 158.077312 228.286559 
L 158.348038 227.937367 
L 158.618764 227.238984 
L 159.160216 226.5406 
L 159.430942 225.842217 
L 162.138201 222.3503 
L 162.408927 222.3503 
L 162.679653 222.001109 
L 162.950379 222.001109 
L 163.221105 221.651917 
L 163.491831 221.651917 
L 163.762557 221.302725 
L 164.304009 221.302725 
L 164.574735 220.953533 
L 166.469816 220.953533 
L 166.740542 221.302725 
L 167.281994 221.302725 
L 167.55272 221.651917 
L 168.094172 221.651917 
L 168.635624 222.3503 
L 168.90635 222.3503 
L 169.447802 223.048684 
L 169.718528 223.048684 
L 171.072157 224.794642 
L 171.342883 225.493025 
L 172.155061 226.5406 
L 172.425787 227.238984 
L 172.696513 227.588176 
L 172.967239 228.286559 
L 173.237965 228.635751 
L 173.508691 229.334134 
L 173.779417 229.683326 
L 174.591594 231.778476 
L 174.86232 232.127667 
L 175.674498 234.222818 
L 176.21595 235.968776 
L 177.028128 238.063926 
L 177.840306 240.85746 
L 178.111032 241.555843 
L 179.735387 247.492102 
L 180.006113 248.190485 
L 181.901195 255.872702 
L 182.713373 259.713811 
L 183.52555 263.205727 
L 184.067002 265.650069 
L 185.149906 269.491178 
L 185.962084 271.586328 
L 186.774262 272.633903 
L 187.857165 272.633903 
L 188.127891 272.284711 
L 188.398617 272.284711 
L 188.669343 271.586328 
L 188.940069 271.237136 
L 189.210795 270.538753 
L 189.481521 270.189561 
L 190.022973 268.792794 
L 191.105877 264.951686 
L 191.376603 264.253303 
L 194.625314 252.031594 
L 194.89604 251.33321 
L 195.437492 249.587252 
L 196.249669 247.492102 
L 196.791121 246.793718 
L 197.061847 246.095335 
L 197.603299 245.396952 
L 197.874025 245.396952 
L 198.144751 245.04776 
L 199.227655 245.04776 
L 199.769107 245.746143 
L 200.039833 245.746143 
L 200.581284 246.444527 
L 200.85201 247.14291 
L 201.393462 247.841293 
L 201.664188 248.539677 
L 201.934914 248.888868 
L 204.100722 254.475935 
L 204.371448 254.825127 
L 205.725077 258.317044 
L 205.995803 258.666236 
L 206.537255 260.063002 
L 207.349433 261.110577 
L 207.620159 261.808961 
L 207.890885 262.158152 
L 208.161611 262.158152 
L 208.703063 262.856536 
L 208.973789 262.856536 
L 209.244515 263.205727 
L 210.598144 263.205727 
L 210.86887 262.856536 
L 211.410322 262.856536 
L 212.493226 261.459769 
L 212.763952 261.459769 
L 213.034678 260.761386 
L 214.388307 259.015427 
L 214.659033 258.317044 
L 215.200485 257.618661 
L 215.471211 256.920277 
L 216.283389 255.872702 
L 216.554115 255.174319 
L 218.449196 252.729977 
L 218.719922 252.729977 
L 219.261374 252.031594 
L 219.5321 252.031594 
L 219.802826 251.682402 
L 220.073552 251.682402 
L 220.344278 251.33321 
L 222.23936 251.33321 
L 222.510086 251.682402 
L 222.780811 251.682402 
L 223.051537 252.031594 
L 223.322263 252.031594 
L 223.592989 252.380785 
L 223.863715 252.380785 
L 224.405167 253.079169 
L 224.675893 253.079169 
L 225.488071 254.126744 
L 225.758797 254.126744 
L 227.112426 255.872702 
L 227.383152 255.872702 
L 228.466056 257.269469 
L 228.736782 257.269469 
L 229.278234 257.967852 
L 229.54896 257.967852 
L 229.819686 258.317044 
L 230.090412 258.317044 
L 230.361138 258.666236 
L 230.90259 258.666236 
L 231.173316 259.015427 
L 234.151301 259.015427 
L 234.422027 258.666236 
L 234.963479 258.666236 
L 235.234205 258.317044 
L 235.504931 258.317044 
L 235.775656 257.967852 
L 236.046382 257.967852 
L 236.317108 257.618661 
L 236.587834 257.618661 
L 236.85856 257.269469 
L 237.129286 257.269469 
L 237.400012 256.920277 
L 237.670738 256.920277 
L 237.941464 256.571085 
L 238.21219 256.571085 
L 238.753642 255.872702 
L 239.024368 255.872702 
L 239.295094 255.52351 
L 239.56582 255.52351 
L 239.836546 255.174319 
L 240.377997 255.174319 
L 240.648723 254.825127 
L 240.919449 254.825127 
L 241.190175 254.475935 
L 242.002353 254.475935 
L 242.273079 254.126744 
L 245.792516 254.126744 
L 246.063242 254.475935 
L 246.604694 254.475935 
L 246.87542 254.825127 
L 247.687598 254.825127 
L 247.958324 255.174319 
L 248.499776 255.174319 
L 248.770502 255.52351 
L 249.041227 255.52351 
L 249.311953 255.872702 
L 249.853405 255.872702 
L 250.124131 256.221894 
L 250.665583 256.221894 
L 250.936309 256.571085 
L 251.477761 256.571085 
L 251.748487 256.920277 
L 252.831391 256.920277 
L 253.102117 257.269469 
L 257.433732 257.269469 
L 257.704458 256.920277 
L 258.787361 256.920277 
L 259.058087 256.571085 
L 260.140991 256.571085 
L 260.411717 256.221894 
L 261.223895 256.221894 
L 261.494621 255.872702 
L 262.577524 255.872702 
L 262.84825 255.52351 
L 264.20188 255.52351 
L 264.472606 255.174319 
L 268.533495 255.174319 
L 268.804221 255.52351 
L 270.699303 255.52351 
L 270.970029 255.872702 
L 272.594384 255.872702 
L 272.86511 256.221894 
L 274.489466 256.221894 
L 274.760192 256.571085 
L 280.986888 256.571085 
L 281.257614 256.221894 
L 283.964874 256.221894 
L 284.235599 255.872702 
L 287.755037 255.872702 
L 288.025763 255.52351 
L 290.19157 255.52351 
L 290.462296 255.872702 
L 295.064637 255.872702 
L 295.335363 256.221894 
L 306.435126 256.221894 
L 306.705852 255.872702 
L 317.53489 255.872702 
L 317.805616 256.221894 
L 329.176105 256.221894 
L 329.446831 255.872702 
L 340.005143 255.872702 
L 340.275869 256.221894 
L 352.18781 256.221894 
L 352.458536 255.872702 
L 362.20467 255.872702 
L 362.475396 256.221894 
L 375.740967 256.221894 
L 376.011693 255.872702 
L 383.592019 255.872702 
L 383.862745 256.221894 
L 498.109091 256.221894 
L 498.109091 256.221894 
" style="fill:none;stroke:#ff0000;stroke-linecap:square;stroke-width:1.5;"/>
   </g>
   <g id="line2d_30">
    <path clip-path="url(#pff4fc6f031)" d="M 92.290909 66.96 
L 92.561635 66.96 
L 93.644539 79.530901 
L 94.727443 89.65746 
L 97.434702 109.910577 
L 100.954139 131.909654 
L 101.495591 135.052379 
L 102.849221 143.083788 
L 103.390673 146.226513 
L 104.744302 154.257921 
L 105.55648 158.797413 
L 107.180836 168.574781 
L 107.993014 173.114273 
L 109.617369 182.89164 
L 110.158821 186.034365 
L 111.512451 194.065774 
L 112.324629 198.605266 
L 113.948984 208.382633 
L 114.761162 212.922125 
L 116.385518 222.699492 
L 117.197695 227.238984 
L 118.822051 237.016351 
L 119.634229 241.555843 
L 121.258585 251.33321 
L 122.070762 255.872702 
L 123.695118 265.650069 
L 124.507296 270.189561 
L 126.131651 279.966928 
L 126.943829 284.50642 
L 128.568185 294.283788 
L 129.109637 297.426513 
L 130.463266 305.457921 
L 131.275444 309.997413 
L 132.8998 319.774781 
L 133.711978 324.314273 
L 135.336333 334.09164 
L 136.148511 338.631132 
L 137.772867 348.408499 
L 138.585045 352.947991 
L 139.126496 356.090716 
L 140.2094 360.281016 
L 140.480126 360.630208 
L 140.750852 361.328591 
L 141.021578 361.328591 
L 141.292304 361.677783 
L 141.56303 361.677783 
L 142.645934 360.281016 
L 142.91666 359.582633 
L 144.811741 351.900416 
L 145.353193 348.757691 
L 146.977549 337.583557 
L 148.331178 326.409423 
L 150.22626 308.600647 
L 151.309164 298.474088 
L 152.392067 289.395104 
L 153.204245 283.808037 
L 154.287149 278.570162 
L 155.099327 275.776628 
L 155.640779 274.379861 
L 156.182231 272.633903 
L 157.53586 269.141986 
L 158.077312 267.396028 
L 159.160216 264.602494 
L 159.430942 264.253303 
L 160.24312 262.158152 
L 160.513846 261.808961 
L 161.055297 260.412194 
L 161.596749 259.713811 
L 161.867475 259.015427 
L 162.408927 258.317044 
L 162.679653 257.618661 
L 164.845461 254.825127 
L 165.116187 254.825127 
L 165.657638 254.126744 
L 165.928364 254.126744 
L 166.19909 253.777552 
L 166.469816 253.777552 
L 166.740542 253.42836 
L 167.281994 253.42836 
L 167.55272 253.079169 
L 169.718528 253.079169 
L 169.989253 253.42836 
L 170.530705 253.42836 
L 170.801431 253.777552 
L 171.072157 253.777552 
L 171.342883 254.126744 
L 171.613609 254.126744 
L 172.155061 254.825127 
L 172.425787 254.825127 
L 174.86232 257.967852 
L 175.133046 258.666236 
L 175.674498 259.364619 
L 175.945224 260.063002 
L 176.21595 260.412194 
L 176.757402 261.808961 
L 177.028128 262.158152 
L 177.840306 264.253303 
L 178.111032 264.602494 
L 178.923209 266.697644 
L 179.464661 268.443603 
L 180.006113 269.84037 
L 180.547565 271.586328 
L 180.818291 272.284711 
L 181.901195 276.12582 
L 182.171921 276.824203 
L 185.962084 291.141062 
L 186.503536 292.537829 
L 187.044988 294.283788 
L 187.315714 294.632979 
L 187.857165 296.029746 
L 188.940069 297.426513 
L 189.481521 297.426513 
L 189.752247 297.775704 
L 190.022973 297.775704 
L 190.293699 297.426513 
L 190.564425 297.426513 
L 190.835151 297.077321 
L 191.105877 297.077321 
L 191.647329 296.378938 
L 191.918054 295.680554 
L 192.459506 294.982171 
L 193.000958 293.585404 
L 193.271684 293.236212 
L 196.791121 284.157229 
L 197.061847 283.808037 
L 197.603299 282.41127 
L 198.144751 281.712887 
L 198.415477 281.014503 
L 199.498381 279.617737 
L 199.769107 279.617737 
L 200.039833 279.268545 
L 200.310559 279.268545 
L 200.581284 278.919353 
L 201.664188 278.919353 
L 201.934914 279.268545 
L 202.20564 279.268545 
L 202.476366 279.617737 
L 202.747092 279.617737 
L 203.55927 280.665312 
L 203.829996 280.665312 
L 204.100722 281.363695 
L 205.183625 282.760462 
L 205.454351 283.458845 
L 206.266529 284.50642 
L 206.537255 285.204804 
L 207.078707 285.903187 
L 207.349433 286.60157 
L 208.432337 287.998337 
L 208.703063 288.696721 
L 209.244515 289.395104 
L 209.51524 289.395104 
L 210.327418 290.442679 
L 210.598144 290.442679 
L 210.86887 290.791871 
L 211.139596 290.791871 
L 211.410322 291.141062 
L 213.305404 291.141062 
L 213.57613 290.791871 
L 214.117581 290.791871 
L 214.388307 290.442679 
L 214.659033 290.442679 
L 215.200485 289.744296 
L 215.471211 289.744296 
L 216.283389 288.696721 
L 216.554115 288.696721 
L 218.17847 286.60157 
L 218.449196 286.60157 
L 219.5321 285.204804 
L 219.802826 285.204804 
L 220.344278 284.50642 
L 220.615004 284.50642 
L 220.88573 284.157229 
L 221.156456 284.157229 
L 221.427182 283.808037 
L 221.697908 283.808037 
L 221.968634 283.458845 
L 222.510086 283.458845 
L 222.780811 283.109654 
L 224.675893 283.109654 
L 224.946619 283.458845 
L 225.488071 283.458845 
L 225.758797 283.808037 
L 226.300249 283.808037 
L 226.570975 284.157229 
L 226.841701 284.157229 
L 227.112426 284.50642 
L 227.383152 284.50642 
L 227.653878 284.855612 
L 227.924604 284.855612 
L 228.19533 285.204804 
L 228.466056 285.204804 
L 228.736782 285.553995 
L 229.007508 285.553995 
L 229.54896 286.252379 
L 229.819686 286.252379 
L 230.090412 286.60157 
L 230.361138 286.60157 
L 230.631864 286.950762 
L 230.90259 286.950762 
L 231.173316 287.299954 
L 231.444041 287.299954 
L 231.714767 287.649145 
L 232.256219 287.649145 
L 232.526945 287.998337 
L 233.068397 287.998337 
L 233.339123 288.347529 
L 236.587834 288.347529 
L 236.85856 287.998337 
L 237.670738 287.998337 
L 237.941464 287.649145 
L 238.753642 287.649145 
L 239.024368 287.299954 
L 239.295094 287.299954 
L 239.56582 286.950762 
L 240.107272 286.950762 
L 240.377997 286.60157 
L 240.919449 286.60157 
L 241.190175 286.252379 
L 241.731627 286.252379 
L 242.002353 285.903187 
L 242.543805 285.903187 
L 242.814531 285.553995 
L 243.626709 285.553995 
L 243.897435 285.204804 
L 245.251064 285.204804 
L 245.52179 284.855612 
L 247.146146 284.855612 
L 247.416872 285.204804 
L 249.041227 285.204804 
L 249.311953 285.553995 
L 250.394857 285.553995 
L 250.665583 285.903187 
L 251.477761 285.903187 
L 251.748487 286.252379 
L 252.560665 286.252379 
L 252.831391 286.60157 
L 253.914294 286.60157 
L 254.18502 286.950762 
L 255.809376 286.950762 
L 256.080102 287.299954 
L 259.328813 287.299954 
L 259.599539 286.950762 
L 261.494621 286.950762 
L 261.765347 286.60157 
L 263.118976 286.60157 
L 263.389702 286.252379 
L 265.014058 286.252379 
L 265.284784 285.903187 
L 272.86511 285.903187 
L 273.135836 286.252379 
L 275.572369 286.252379 
L 275.843095 286.60157 
L 285.318503 286.60157 
L 285.589229 286.252379 
L 299.396252 286.252379 
L 299.666978 286.60157 
L 306.435126 286.60157 
L 306.705852 286.252379 
L 498.109091 286.252379 
L 498.109091 286.252379 
" style="fill:none;stroke:#008000;stroke-linecap:square;stroke-width:1.5;"/>
   </g>
   <g id="line2d_31">
    <path clip-path="url(#pff4fc6f031)" d="M 92.290909 66.96 
L 92.561635 66.96 
L 93.915265 84.768776 
L 94.998168 94.895335 
L 95.810346 101.529977 
L 96.89325 109.212194 
L 100.683413 132.957229 
L 101.495591 137.496721 
L 103.119947 147.274088 
L 103.932124 151.81358 
L 105.55648 161.590947 
L 106.368658 166.130439 
L 107.993014 175.907806 
L 108.805191 180.447298 
L 110.429547 190.224665 
L 111.241725 194.764157 
L 112.86608 204.541524 
L 113.678258 209.081016 
L 115.302614 218.858383 
L 116.114792 223.397875 
L 117.739147 233.175242 
L 118.551325 237.714734 
L 120.175681 247.492102 
L 120.987859 252.031594 
L 122.612214 261.808961 
L 123.424392 266.348453 
L 125.048748 276.12582 
L 125.860925 280.665312 
L 127.485281 290.442679 
L 128.297459 294.982171 
L 129.921815 304.759538 
L 130.733992 309.29903 
L 132.358348 319.076397 
L 133.170526 323.615889 
L 134.794881 333.393256 
L 135.607059 337.932748 
L 137.231415 347.710115 
L 138.043593 352.249607 
L 139.397222 360.281016 
L 140.480126 365.518891 
L 140.750852 366.217275 
L 141.292304 367.963233 
L 141.56303 368.661617 
L 141.833756 369.010808 
L 142.104482 369.010808 
L 142.375208 369.36 
L 142.645934 369.36 
L 142.91666 369.010808 
L 143.187386 369.010808 
L 143.458111 368.312425 
L 143.728837 367.963233 
L 144.270289 366.566467 
L 145.623919 360.9794 
L 146.436097 356.439908 
L 148.060452 345.265774 
L 149.143356 336.18679 
L 150.496986 323.266697 
L 153.204245 296.029746 
L 154.287149 288.347529 
L 155.099327 283.808037 
L 155.640779 281.363695 
L 157.265134 275.427436 
L 157.53586 274.729053 
L 158.077312 272.983095 
L 158.348038 272.284711 
L 158.88949 270.538753 
L 160.784572 265.650069 
L 161.055297 265.300878 
L 161.596749 263.904111 
L 161.867475 263.554919 
L 162.408927 262.158152 
L 162.950379 261.459769 
L 163.221105 260.761386 
L 163.762557 260.063002 
L 164.033283 259.364619 
L 165.657638 257.269469 
L 165.928364 257.269469 
L 166.740542 256.221894 
L 167.011268 256.221894 
L 167.281994 255.872702 
L 167.55272 255.872702 
L 167.823446 255.52351 
L 168.364898 255.52351 
L 168.635624 255.174319 
L 171.342883 255.174319 
L 171.613609 255.52351 
L 171.884335 255.52351 
L 172.155061 255.872702 
L 172.425787 255.872702 
L 172.696513 256.221894 
L 172.967239 256.221894 
L 173.508691 256.920277 
L 173.779417 256.920277 
L 175.945224 259.713811 
L 176.21595 260.412194 
L 176.757402 261.110577 
L 177.028128 261.808961 
L 177.298854 262.158152 
L 177.56958 262.856536 
L 177.840306 263.205727 
L 178.652483 265.300878 
L 178.923209 265.650069 
L 180.547565 269.84037 
L 181.089017 271.586328 
L 181.359743 272.284711 
L 181.901195 274.03067 
L 182.171921 274.729053 
L 183.52555 279.617737 
L 183.796276 280.31612 
L 186.503536 290.442679 
L 186.774262 291.141062 
L 187.315714 292.887021 
L 188.669343 296.378938 
L 188.940069 296.728129 
L 189.210795 297.426513 
L 189.752247 298.124896 
L 190.022973 298.124896 
L 190.293699 298.474088 
L 190.564425 298.474088 
L 190.835151 298.823279 
L 191.376603 298.823279 
L 191.647329 298.474088 
L 191.918054 298.474088 
L 193.813136 296.029746 
L 194.354588 294.632979 
L 194.625314 294.283788 
L 195.437492 292.188637 
L 195.708218 291.839446 
L 197.332573 287.649145 
L 197.603299 287.299954 
L 198.144751 285.903187 
L 198.415477 285.553995 
L 198.686203 284.855612 
L 198.956929 284.50642 
L 199.227655 283.808037 
L 200.85201 281.712887 
L 201.122736 281.712887 
L 201.393462 281.363695 
L 201.934914 281.363695 
L 202.20564 281.014503 
L 202.476366 281.014503 
L 202.747092 281.363695 
L 203.288544 281.363695 
L 203.55927 281.712887 
L 203.829996 281.712887 
L 204.100722 282.062079 
L 204.371448 282.062079 
L 206.266529 284.50642 
L 206.537255 285.204804 
L 207.620159 286.60157 
L 207.890885 287.299954 
L 208.973789 288.696721 
L 209.244515 289.395104 
L 210.598144 291.141062 
L 210.86887 291.141062 
L 211.410322 291.839446 
L 211.681048 291.839446 
L 211.951774 292.188637 
L 212.2225 292.188637 
L 212.493226 292.537829 
L 214.929759 292.537829 
L 215.200485 292.188637 
L 215.471211 292.188637 
L 215.741937 291.839446 
L 216.012663 291.839446 
L 216.283389 291.490254 
L 216.554115 291.490254 
L 217.366293 290.442679 
L 217.637019 290.442679 
L 218.449196 289.395104 
L 218.719922 289.395104 
L 219.802826 287.998337 
L 220.073552 287.998337 
L 220.88573 286.950762 
L 221.156456 286.950762 
L 221.697908 286.252379 
L 221.968634 286.252379 
L 222.23936 285.903187 
L 222.510086 285.903187 
L 222.780811 285.553995 
L 223.322263 285.553995 
L 223.592989 285.204804 
L 226.300249 285.204804 
L 226.570975 285.553995 
L 227.112426 285.553995 
L 227.383152 285.903187 
L 227.924604 285.903187 
L 228.19533 286.252379 
L 228.466056 286.252379 
L 228.736782 286.60157 
L 229.007508 286.60157 
L 229.278234 286.950762 
L 229.54896 286.950762 
L 229.819686 287.299954 
L 230.090412 287.299954 
L 230.361138 287.649145 
L 230.631864 287.649145 
L 231.173316 288.347529 
L 231.444041 288.347529 
L 231.714767 288.696721 
L 232.256219 288.696721 
L 232.526945 289.045912 
L 232.797671 289.045912 
L 233.068397 289.395104 
L 233.609849 289.395104 
L 233.880575 289.744296 
L 234.692753 289.744296 
L 234.963479 290.093487 
L 237.670738 290.093487 
L 237.941464 289.744296 
L 238.753642 289.744296 
L 239.024368 289.395104 
L 239.836546 289.395104 
L 240.107272 289.045912 
L 240.648723 289.045912 
L 240.919449 288.696721 
L 241.460901 288.696721 
L 241.731627 288.347529 
L 242.273079 288.347529 
L 242.543805 287.998337 
L 243.085257 287.998337 
L 243.355983 287.649145 
L 243.897435 287.649145 
L 244.168161 287.299954 
L 244.980338 287.299954 
L 245.251064 286.950762 
L 249.853405 286.950762 
L 250.124131 287.299954 
L 251.207035 287.299954 
L 251.477761 287.649145 
L 252.560665 287.649145 
L 252.831391 287.998337 
L 253.643568 287.998337 
L 253.914294 288.347529 
L 254.997198 288.347529 
L 255.267924 288.696721 
L 257.163006 288.696721 
L 257.433732 289.045912 
L 260.411717 289.045912 
L 260.682443 288.696721 
L 262.84825 288.696721 
L 263.118976 288.347529 
L 264.472606 288.347529 
L 264.743332 287.998337 
L 266.638413 287.998337 
L 266.909139 287.649145 
L 273.677288 287.649145 
L 273.948014 287.998337 
L 276.655273 287.998337 
L 276.925999 288.347529 
L 286.942859 288.347529 
L 287.213585 287.998337 
L 299.937704 287.998337 
L 300.20843 288.347529 
L 308.600934 288.347529 
L 308.87166 287.998337 
L 324.303038 287.998337 
L 324.573764 288.347529 
L 329.176105 288.347529 
L 329.446831 287.998337 
L 498.109091 287.998337 
L 498.109091 287.998337 
" style="fill:none;stroke:#0000ff;stroke-linecap:square;stroke-width:1.5;"/>
   </g>
   <g id="line2d_32">
    <path clip-path="url(#pff4fc6f031)" d="M 92.290909 66.96 
L 92.561635 66.96 
L 93.103087 71.499492 
L 96.351798 91.75261 
L 96.89325 94.895335 
L 98.517606 104.672702 
L 100.141961 113.402494 
L 101.495591 121.433903 
L 102.307769 125.973395 
L 103.661399 134.004804 
L 104.473576 138.544296 
L 106.097932 148.321663 
L 106.91011 152.861155 
L 108.534465 162.638522 
L 109.346643 167.178014 
L 110.970999 176.955381 
L 111.783177 181.494873 
L 113.407532 191.27224 
L 114.21971 195.811732 
L 115.844066 205.589099 
L 116.656244 210.128591 
L 118.280599 219.905958 
L 119.092777 224.44545 
L 120.717133 234.222818 
L 121.52931 238.762309 
L 123.153666 248.539677 
L 123.965844 253.079169 
L 125.5902 262.856536 
L 126.402377 267.396028 
L 128.026733 277.173395 
L 128.838911 281.712887 
L 130.463266 291.490254 
L 131.275444 296.029746 
L 132.8998 305.807113 
L 133.711978 310.346605 
L 135.336333 320.123972 
L 136.148511 324.663464 
L 137.772867 334.440831 
L 138.585045 338.980323 
L 139.397222 343.869007 
L 140.750852 349.106882 
L 141.021578 349.456074 
L 141.292304 350.154457 
L 141.56303 350.154457 
L 141.833756 350.503649 
L 142.104482 350.503649 
L 142.91666 349.456074 
L 143.728837 347.360924 
L 144.811741 342.821432 
L 145.894645 336.885173 
L 147.248275 327.456998 
L 148.601904 316.282864 
L 150.22626 298.474088 
L 151.038438 287.998337 
L 151.850616 278.570162 
L 152.933519 268.094411 
L 154.016423 260.412194 
L 155.370053 253.777552 
L 156.452957 249.936443 
L 156.723682 249.23806 
L 157.53586 246.444527 
L 158.618764 243.650993 
L 159.160216 241.905035 
L 159.972394 239.809885 
L 160.24312 239.460693 
L 161.055297 237.365543 
L 161.326023 237.016351 
L 161.867475 235.619584 
L 162.408927 234.921201 
L 162.679653 234.222818 
L 163.221105 233.524434 
L 163.491831 232.826051 
L 165.657638 230.032517 
L 165.928364 230.032517 
L 166.469816 229.334134 
L 166.740542 229.334134 
L 167.011268 228.984942 
L 167.281994 228.984942 
L 167.55272 228.635751 
L 168.094172 228.635751 
L 168.364898 228.286559 
L 170.530705 228.286559 
L 170.801431 228.635751 
L 171.342883 228.635751 
L 171.613609 228.984942 
L 171.884335 228.984942 
L 172.155061 229.334134 
L 172.425787 229.334134 
L 172.967239 230.032517 
L 173.237965 230.032517 
L 175.674498 233.175242 
L 175.945224 233.873626 
L 176.486676 234.572009 
L 176.757402 235.270393 
L 177.028128 235.619584 
L 177.56958 237.016351 
L 177.840306 237.365543 
L 178.652483 239.460693 
L 178.923209 239.809885 
L 179.735387 241.905035 
L 180.276839 243.650993 
L 180.818291 245.04776 
L 181.359743 246.793718 
L 181.630469 247.492102 
L 182.984098 252.380785 
L 183.254824 253.079169 
L 186.23281 264.253303 
L 186.503536 264.951686 
L 187.044988 266.697644 
L 188.398617 270.189561 
L 189.752247 271.93552 
L 190.022973 271.93552 
L 190.293699 272.284711 
L 190.835151 272.284711 
L 191.105877 271.93552 
L 191.376603 271.93552 
L 191.647329 271.586328 
L 191.918054 271.586328 
L 192.730232 270.538753 
L 193.000958 269.84037 
L 193.54241 269.141986 
L 194.083862 267.745219 
L 194.354588 267.396028 
L 196.520395 261.808961 
L 196.791121 261.459769 
L 197.603299 259.364619 
L 197.874025 259.015427 
L 198.415477 257.618661 
L 199.227655 256.571085 
L 199.498381 255.872702 
L 199.769107 255.52351 
L 200.039833 255.52351 
L 200.581284 254.825127 
L 200.85201 254.825127 
L 201.122736 254.475935 
L 202.747092 254.475935 
L 203.017818 254.825127 
L 203.288544 254.825127 
L 203.55927 255.174319 
L 203.829996 255.174319 
L 205.995803 257.967852 
L 206.266529 258.666236 
L 207.078707 259.713811 
L 207.349433 260.412194 
L 208.432337 261.808961 
L 208.703063 262.507344 
L 210.327418 264.602494 
L 210.598144 264.602494 
L 211.139596 265.300878 
L 211.410322 265.300878 
L 211.681048 265.650069 
L 211.951774 265.650069 
L 212.2225 265.999261 
L 214.117581 265.999261 
L 214.388307 265.650069 
L 214.929759 265.650069 
L 215.200485 265.300878 
L 215.471211 265.300878 
L 215.741937 264.951686 
L 216.012663 264.951686 
L 216.824841 263.904111 
L 217.095567 263.904111 
L 218.17847 262.507344 
L 218.449196 262.507344 
L 219.5321 261.110577 
L 219.802826 261.110577 
L 220.615004 260.063002 
L 220.88573 260.063002 
L 221.427182 259.364619 
L 221.697908 259.364619 
L 221.968634 259.015427 
L 222.510086 259.015427 
L 222.780811 258.666236 
L 223.322263 258.666236 
L 223.592989 258.317044 
L 225.488071 258.317044 
L 225.758797 258.666236 
L 226.570975 258.666236 
L 226.841701 259.015427 
L 227.112426 259.015427 
L 227.383152 259.364619 
L 227.924604 259.364619 
L 228.19533 259.713811 
L 228.466056 259.713811 
L 229.007508 260.412194 
L 229.278234 260.412194 
L 229.54896 260.761386 
L 229.819686 260.761386 
L 230.090412 261.110577 
L 230.361138 261.110577 
L 230.631864 261.459769 
L 230.90259 261.459769 
L 231.173316 261.808961 
L 231.444041 261.808961 
L 231.714767 262.158152 
L 231.985493 262.158152 
L 232.256219 262.507344 
L 232.797671 262.507344 
L 233.068397 262.856536 
L 233.609849 262.856536 
L 233.880575 263.205727 
L 235.504931 263.205727 
L 235.775656 263.554919 
L 236.046382 263.554919 
L 236.317108 263.205727 
L 237.941464 263.205727 
L 238.21219 262.856536 
L 239.024368 262.856536 
L 239.295094 262.507344 
L 239.836546 262.507344 
L 240.107272 262.158152 
L 240.648723 262.158152 
L 240.919449 261.808961 
L 241.190175 261.808961 
L 241.460901 261.459769 
L 242.002353 261.459769 
L 242.273079 261.110577 
L 242.814531 261.110577 
L 243.085257 260.761386 
L 243.897435 260.761386 
L 244.168161 260.412194 
L 245.251064 260.412194 
L 245.52179 260.063002 
L 248.770502 260.063002 
L 249.041227 260.412194 
L 250.394857 260.412194 
L 250.665583 260.761386 
L 251.477761 260.761386 
L 251.748487 261.110577 
L 252.831391 261.110577 
L 253.102117 261.459769 
L 253.914294 261.459769 
L 254.18502 261.808961 
L 255.53865 261.808961 
L 255.809376 262.158152 
L 261.223895 262.158152 
L 261.494621 261.808961 
L 263.118976 261.808961 
L 263.389702 261.459769 
L 265.014058 261.459769 
L 265.284784 261.110577 
L 267.450591 261.110577 
L 267.721317 260.761386 
L 271.782206 260.761386 
L 272.052932 261.110577 
L 274.760192 261.110577 
L 275.030918 261.459769 
L 278.008903 261.459769 
L 278.279629 261.808961 
L 284.235599 261.808961 
L 284.506325 261.459769 
L 288.567215 261.459769 
L 288.83794 261.110577 
L 296.418267 261.110577 
L 296.688993 261.459769 
L 498.109091 261.459769 
L 498.109091 261.459769 
" style="fill:none;stroke:#000000;stroke-linecap:square;stroke-width:1.5;"/>
   </g>
   <g id="patch_3">
    <path d="M 72 384.48 
L 72 51.84 
" style="fill:none;stroke:#000000;stroke-linecap:square;stroke-linejoin:miter;stroke-width:0.8;"/>
   </g>
   <g id="patch_4">
    <path d="M 518.4 384.48 
L 518.4 51.84 
" style="fill:none;stroke:#000000;stroke-linecap:square;stroke-linejoin:miter;stroke-width:0.8;"/>
   </g>
   <g id="patch_5">
    <path d="M 72 384.48 
L 518.4 384.48 
" style="fill:none;stroke:#000000;stroke-linecap:square;stroke-linejoin:miter;stroke-width:0.8;"/>
   </g>
   <g id="patch_6">
    <path d="M 72 51.84 
L 518.4 51.84 
" style="fill:none;stroke:#000000;stroke-linecap:square;stroke-linejoin:miter;stroke-width:0.8;"/>
   </g>
   <g id="text_16">
    <!-- $u_{m}$ -->
    <g transform="translate(285.75 45.84)scale(0.14 -0.14)">
     <use transform="translate(0 0.3125)" xlink:href="#DejaVuSans-Oblique-75"/>
     <use transform="translate(63.378906 -16.09375)scale(0.7)" xlink:href="#DejaVuSans-Oblique-6d"/>
    </g>
   </g>
   <g id="legend_1">
    <g id="patch_7">
     <path d="M 468.3 147.90875 
L 511.4 147.90875 
Q 513.4 147.90875 513.4 145.90875 
L 513.4 58.84 
Q 513.4 56.84 511.4 56.84 
L 468.3 56.84 
Q 466.3 56.84 466.3 58.84 
L 466.3 145.90875 
Q 466.3 147.90875 468.3 147.90875 
z
" style="fill:#ffffff;opacity:0.8;stroke:#cccccc;stroke-linejoin:miter;"/>
    </g>
    <g id="line2d_33">
     <path d="M 470.3 64.938437 
L 490.3 64.938437 
" style="fill:none;stroke:#bf00bf;stroke-linecap:square;stroke-width:1.5;"/>
    </g>
    <g id="line2d_34"/>
    <g id="text_17">
     <!-- $u_{1}$ -->
     <g transform="translate(498.3 68.438437)scale(0.1 -0.1)">
      <use transform="translate(0 0.3125)" xlink:href="#DejaVuSans-Oblique-75"/>
      <use transform="translate(63.378906 -16.09375)scale(0.7)" xlink:href="#DejaVuSans-31"/>
     </g>
    </g>
    <g id="line2d_35">
     <path d="M 470.3 79.616562 
L 490.3 79.616562 
" style="fill:none;stroke:#00bfbf;stroke-linecap:square;stroke-width:1.5;"/>
    </g>
    <g id="line2d_36"/>
    <g id="text_18">
     <!-- $u_{2}$ -->
     <g transform="translate(498.3 83.116562)scale(0.1 -0.1)">
      <use transform="translate(0 0.3125)" xlink:href="#DejaVuSans-Oblique-75"/>
      <use transform="translate(63.378906 -16.09375)scale(0.7)" xlink:href="#DejaVuSans-32"/>
     </g>
    </g>
    <g id="line2d_37">
     <path d="M 470.3 94.294687 
L 490.3 94.294687 
" style="fill:none;stroke:#ff0000;stroke-linecap:square;stroke-width:1.5;"/>
    </g>
    <g id="line2d_38"/>
    <g id="text_19">
     <!-- $u_{3}$ -->
     <defs>
      <path d="M 40.578125 39.3125 
Q 47.65625 37.796875 51.625 33 
Q 55.609375 28.21875 55.609375 21.1875 
Q 55.609375 10.40625 48.1875 4.484375 
Q 40.765625 -1.421875 27.09375 -1.421875 
Q 22.515625 -1.421875 17.65625 -0.515625 
Q 12.796875 0.390625 7.625 2.203125 
L 7.625 11.71875 
Q 11.71875 9.328125 16.59375 8.109375 
Q 21.484375 6.890625 26.8125 6.890625 
Q 36.078125 6.890625 40.9375 10.546875 
Q 45.796875 14.203125 45.796875 21.1875 
Q 45.796875 27.640625 41.28125 31.265625 
Q 36.765625 34.90625 28.71875 34.90625 
L 20.21875 34.90625 
L 20.21875 43.015625 
L 29.109375 43.015625 
Q 36.375 43.015625 40.234375 45.921875 
Q 44.09375 48.828125 44.09375 54.296875 
Q 44.09375 59.90625 40.109375 62.90625 
Q 36.140625 65.921875 28.71875 65.921875 
Q 24.65625 65.921875 20.015625 65.03125 
Q 15.375 64.15625 9.8125 62.3125 
L 9.8125 71.09375 
Q 15.4375 72.65625 20.34375 73.4375 
Q 25.25 74.21875 29.59375 74.21875 
Q 40.828125 74.21875 47.359375 69.109375 
Q 53.90625 64.015625 53.90625 55.328125 
Q 53.90625 49.265625 50.4375 45.09375 
Q 46.96875 40.921875 40.578125 39.3125 
z
" id="DejaVuSans-33"/>
     </defs>
     <g transform="translate(498.3 97.794687)scale(0.1 -0.1)">
      <use transform="translate(0 0.3125)" xlink:href="#DejaVuSans-Oblique-75"/>
      <use transform="translate(63.378906 -16.09375)scale(0.7)" xlink:href="#DejaVuSans-33"/>
     </g>
    </g>
    <g id="line2d_39">
     <path d="M 470.3 108.972812 
L 490.3 108.972812 
" style="fill:none;stroke:#008000;stroke-linecap:square;stroke-width:1.5;"/>
    </g>
    <g id="line2d_40"/>
    <g id="text_20">
     <!-- $u_{4}$ -->
     <g transform="translate(498.3 112.472812)scale(0.1 -0.1)">
      <use transform="translate(0 0.3125)" xlink:href="#DejaVuSans-Oblique-75"/>
      <use transform="translate(63.378906 -16.09375)scale(0.7)" xlink:href="#DejaVuSans-34"/>
     </g>
    </g>
    <g id="line2d_41">
     <path d="M 470.3 123.650937 
L 490.3 123.650937 
" style="fill:none;stroke:#0000ff;stroke-linecap:square;stroke-width:1.5;"/>
    </g>
    <g id="line2d_42"/>
    <g id="text_21">
     <!-- $u_{5}$ -->
     <defs>
      <path d="M 10.796875 72.90625 
L 49.515625 72.90625 
L 49.515625 64.59375 
L 19.828125 64.59375 
L 19.828125 46.734375 
Q 21.96875 47.46875 24.109375 47.828125 
Q 26.265625 48.1875 28.421875 48.1875 
Q 40.625 48.1875 47.75 41.5 
Q 54.890625 34.8125 54.890625 23.390625 
Q 54.890625 11.625 47.5625 5.09375 
Q 40.234375 -1.421875 26.90625 -1.421875 
Q 22.3125 -1.421875 17.546875 -0.640625 
Q 12.796875 0.140625 7.71875 1.703125 
L 7.71875 11.625 
Q 12.109375 9.234375 16.796875 8.0625 
Q 21.484375 6.890625 26.703125 6.890625 
Q 35.15625 6.890625 40.078125 11.328125 
Q 45.015625 15.765625 45.015625 23.390625 
Q 45.015625 31 40.078125 35.4375 
Q 35.15625 39.890625 26.703125 39.890625 
Q 22.75 39.890625 18.8125 39.015625 
Q 14.890625 38.140625 10.796875 36.28125 
z
" id="DejaVuSans-35"/>
     </defs>
     <g transform="translate(498.3 127.150937)scale(0.1 -0.1)">
      <use transform="translate(0 0.3125)" xlink:href="#DejaVuSans-Oblique-75"/>
      <use transform="translate(63.378906 -16.09375)scale(0.7)" xlink:href="#DejaVuSans-35"/>
     </g>
    </g>
    <g id="line2d_43">
     <path d="M 470.3 138.329062 
L 490.3 138.329062 
" style="fill:none;stroke:#000000;stroke-linecap:square;stroke-width:1.5;"/>
    </g>
    <g id="line2d_44"/>
    <g id="text_22">
     <!-- $u_{6}$ -->
     <g transform="translate(498.3 141.829062)scale(0.1 -0.1)">
      <use transform="translate(0 0.3125)" xlink:href="#DejaVuSans-Oblique-75"/>
      <use transform="translate(63.378906 -16.09375)scale(0.7)" xlink:href="#DejaVuSans-36"/>
     </g>
    </g>
   </g>
  </g>
 </g>
 <defs>
  <clipPath id="pff4fc6f031">
   <rect height="332.64" width="446.4" x="72" y="51.84"/>
  </clipPath>
 </defs>
</svg>
