<?xml version="1.0" encoding="utf-8" standalone="no"?>
<!DOCTYPE svg PUBLIC "-//W3C//DTD SVG 1.1//EN"
  "http://www.w3.org/Graphics/SVG/1.1/DTD/svg11.dtd">
<!-- Created with matplotlib (http://matplotlib.org/) -->
<svg height="432pt" version="1.1" viewBox="0 0 576 432" width="576pt" xmlns="http://www.w3.org/2000/svg" xmlns:xlink="http://www.w3.org/1999/xlink">
 <defs>
  <style type="text/css">
*{stroke-linecap:butt;stroke-linejoin:round;}
  </style>
 </defs>
 <g id="figure_1">
  <g id="patch_1">
   <path d="M 0 432 
L 576 432 
L 576 0 
L 0 0 
z
" style="fill:#ffffff;"/>
  </g>
  <g id="axes_1">
   <g id="patch_2">
    <path d="M 72 384.48 
L 518.4 384.48 
L 518.4 51.84 
L 72 51.84 
z
" style="fill:#ffffff;"/>
   </g>
   <g id="matplotlib.axis_1">
    <g id="xtick_1">
     <g id="line2d_1">
      <path clip-path="url(#p5e7352de60)" d="M 92.290909 384.48 
L 92.290909 51.84 
" style="fill:none;stroke:#b0b0b0;stroke-dasharray:5.12,1.28,0.8,1.28;stroke-dashoffset:0;stroke-width:0.8;"/>
     </g>
     <g id="line2d_2">
      <defs>
       <path d="M 0 0 
L 0 3.5 
" id="m4ac767da81" style="stroke:#000000;stroke-width:0.8;"/>
      </defs>
      <g>
       <use style="stroke:#000000;stroke-width:0.8;" x="92.290909" xlink:href="#m4ac767da81" y="384.48"/>
      </g>
     </g>
     <g id="text_1">
      <!-- 0 -->
      <defs>
       <path d="M 31.78125 66.40625 
Q 24.171875 66.40625 20.328125 58.90625 
Q 16.5 51.421875 16.5 36.375 
Q 16.5 21.390625 20.328125 13.890625 
Q 24.171875 6.390625 31.78125 6.390625 
Q 39.453125 6.390625 43.28125 13.890625 
Q 47.125 21.390625 47.125 36.375 
Q 47.125 51.421875 43.28125 58.90625 
Q 39.453125 66.40625 31.78125 66.40625 
z
M 31.78125 74.21875 
Q 44.046875 74.21875 50.515625 64.515625 
Q 56.984375 54.828125 56.984375 36.375 
Q 56.984375 17.96875 50.515625 8.265625 
Q 44.046875 -1.421875 31.78125 -1.421875 
Q 19.53125 -1.421875 13.0625 8.265625 
Q 6.59375 17.96875 6.59375 36.375 
Q 6.59375 54.828125 13.0625 64.515625 
Q 19.53125 74.21875 31.78125 74.21875 
z
" id="DejaVuSans-30"/>
      </defs>
      <g transform="translate(89.109659 399.078438)scale(0.1 -0.1)">
       <use xlink:href="#DejaVuSans-30"/>
      </g>
     </g>
    </g>
    <g id="xtick_2">
     <g id="line2d_3">
      <path clip-path="url(#p5e7352de60)" d="M 173.53579 384.48 
L 173.53579 51.84 
" style="fill:none;stroke:#b0b0b0;stroke-dasharray:5.12,1.28,0.8,1.28;stroke-dashoffset:0;stroke-width:0.8;"/>
     </g>
     <g id="line2d_4">
      <g>
       <use style="stroke:#000000;stroke-width:0.8;" x="173.53579" xlink:href="#m4ac767da81" y="384.48"/>
      </g>
     </g>
     <g id="text_2">
      <!-- 200 -->
      <defs>
       <path d="M 19.1875 8.296875 
L 53.609375 8.296875 
L 53.609375 0 
L 7.328125 0 
L 7.328125 8.296875 
Q 12.9375 14.109375 22.625 23.890625 
Q 32.328125 33.6875 34.8125 36.53125 
Q 39.546875 41.84375 41.421875 45.53125 
Q 43.3125 49.21875 43.3125 52.78125 
Q 43.3125 58.59375 39.234375 62.25 
Q 35.15625 65.921875 28.609375 65.921875 
Q 23.96875 65.921875 18.8125 64.3125 
Q 13.671875 62.703125 7.8125 59.421875 
L 7.8125 69.390625 
Q 13.765625 71.78125 18.9375 73 
Q 24.125 74.21875 28.421875 74.21875 
Q 39.75 74.21875 46.484375 68.546875 
Q 53.21875 62.890625 53.21875 53.421875 
Q 53.21875 48.921875 51.53125 44.890625 
Q 49.859375 40.875 45.40625 35.40625 
Q 44.1875 33.984375 37.640625 27.21875 
Q 31.109375 20.453125 19.1875 8.296875 
z
" id="DejaVuSans-32"/>
      </defs>
      <g transform="translate(163.99204 399.078438)scale(0.1 -0.1)">
       <use xlink:href="#DejaVuSans-32"/>
       <use x="63.623047" xlink:href="#DejaVuSans-30"/>
       <use x="127.246094" xlink:href="#DejaVuSans-30"/>
      </g>
     </g>
    </g>
    <g id="xtick_3">
     <g id="line2d_5">
      <path clip-path="url(#p5e7352de60)" d="M 254.780672 384.48 
L 254.780672 51.84 
" style="fill:none;stroke:#b0b0b0;stroke-dasharray:5.12,1.28,0.8,1.28;stroke-dashoffset:0;stroke-width:0.8;"/>
     </g>
     <g id="line2d_6">
      <g>
       <use style="stroke:#000000;stroke-width:0.8;" x="254.780672" xlink:href="#m4ac767da81" y="384.48"/>
      </g>
     </g>
     <g id="text_3">
      <!-- 400 -->
      <defs>
       <path d="M 37.796875 64.3125 
L 12.890625 25.390625 
L 37.796875 25.390625 
z
M 35.203125 72.90625 
L 47.609375 72.90625 
L 47.609375 25.390625 
L 58.015625 25.390625 
L 58.015625 17.1875 
L 47.609375 17.1875 
L 47.609375 0 
L 37.796875 0 
L 37.796875 17.1875 
L 4.890625 17.1875 
L 4.890625 26.703125 
z
" id="DejaVuSans-34"/>
      </defs>
      <g transform="translate(245.236922 399.078438)scale(0.1 -0.1)">
       <use xlink:href="#DejaVuSans-34"/>
       <use x="63.623047" xlink:href="#DejaVuSans-30"/>
       <use x="127.246094" xlink:href="#DejaVuSans-30"/>
      </g>
     </g>
    </g>
    <g id="xtick_4">
     <g id="line2d_7">
      <path clip-path="url(#p5e7352de60)" d="M 336.025553 384.48 
L 336.025553 51.84 
" style="fill:none;stroke:#b0b0b0;stroke-dasharray:5.12,1.28,0.8,1.28;stroke-dashoffset:0;stroke-width:0.8;"/>
     </g>
     <g id="line2d_8">
      <g>
       <use style="stroke:#000000;stroke-width:0.8;" x="336.025553" xlink:href="#m4ac767da81" y="384.48"/>
      </g>
     </g>
     <g id="text_4">
      <!-- 600 -->
      <defs>
       <path d="M 33.015625 40.375 
Q 26.375 40.375 22.484375 35.828125 
Q 18.609375 31.296875 18.609375 23.390625 
Q 18.609375 15.53125 22.484375 10.953125 
Q 26.375 6.390625 33.015625 6.390625 
Q 39.65625 6.390625 43.53125 10.953125 
Q 47.40625 15.53125 47.40625 23.390625 
Q 47.40625 31.296875 43.53125 35.828125 
Q 39.65625 40.375 33.015625 40.375 
z
M 52.59375 71.296875 
L 52.59375 62.3125 
Q 48.875 64.0625 45.09375 64.984375 
Q 41.3125 65.921875 37.59375 65.921875 
Q 27.828125 65.921875 22.671875 59.328125 
Q 17.53125 52.734375 16.796875 39.40625 
Q 19.671875 43.65625 24.015625 45.921875 
Q 28.375 48.1875 33.59375 48.1875 
Q 44.578125 48.1875 50.953125 41.515625 
Q 57.328125 34.859375 57.328125 23.390625 
Q 57.328125 12.15625 50.6875 5.359375 
Q 44.046875 -1.421875 33.015625 -1.421875 
Q 20.359375 -1.421875 13.671875 8.265625 
Q 6.984375 17.96875 6.984375 36.375 
Q 6.984375 53.65625 15.1875 63.9375 
Q 23.390625 74.21875 37.203125 74.21875 
Q 40.921875 74.21875 44.703125 73.484375 
Q 48.484375 72.75 52.59375 71.296875 
z
" id="DejaVuSans-36"/>
      </defs>
      <g transform="translate(326.481803 399.078438)scale(0.1 -0.1)">
       <use xlink:href="#DejaVuSans-36"/>
       <use x="63.623047" xlink:href="#DejaVuSans-30"/>
       <use x="127.246094" xlink:href="#DejaVuSans-30"/>
      </g>
     </g>
    </g>
    <g id="xtick_5">
     <g id="line2d_9">
      <path clip-path="url(#p5e7352de60)" d="M 417.270434 384.48 
L 417.270434 51.84 
" style="fill:none;stroke:#b0b0b0;stroke-dasharray:5.12,1.28,0.8,1.28;stroke-dashoffset:0;stroke-width:0.8;"/>
     </g>
     <g id="line2d_10">
      <g>
       <use style="stroke:#000000;stroke-width:0.8;" x="417.270434" xlink:href="#m4ac767da81" y="384.48"/>
      </g>
     </g>
     <g id="text_5">
      <!-- 800 -->
      <defs>
       <path d="M 31.78125 34.625 
Q 24.75 34.625 20.71875 30.859375 
Q 16.703125 27.09375 16.703125 20.515625 
Q 16.703125 13.921875 20.71875 10.15625 
Q 24.75 6.390625 31.78125 6.390625 
Q 38.8125 6.390625 42.859375 10.171875 
Q 46.921875 13.96875 46.921875 20.515625 
Q 46.921875 27.09375 42.890625 30.859375 
Q 38.875 34.625 31.78125 34.625 
z
M 21.921875 38.8125 
Q 15.578125 40.375 12.03125 44.71875 
Q 8.5 49.078125 8.5 55.328125 
Q 8.5 64.0625 14.71875 69.140625 
Q 20.953125 74.21875 31.78125 74.21875 
Q 42.671875 74.21875 48.875 69.140625 
Q 55.078125 64.0625 55.078125 55.328125 
Q 55.078125 49.078125 51.53125 44.71875 
Q 48 40.375 41.703125 38.8125 
Q 48.828125 37.15625 52.796875 32.3125 
Q 56.78125 27.484375 56.78125 20.515625 
Q 56.78125 9.90625 50.3125 4.234375 
Q 43.84375 -1.421875 31.78125 -1.421875 
Q 19.734375 -1.421875 13.25 4.234375 
Q 6.78125 9.90625 6.78125 20.515625 
Q 6.78125 27.484375 10.78125 32.3125 
Q 14.796875 37.15625 21.921875 38.8125 
z
M 18.3125 54.390625 
Q 18.3125 48.734375 21.84375 45.5625 
Q 25.390625 42.390625 31.78125 42.390625 
Q 38.140625 42.390625 41.71875 45.5625 
Q 45.3125 48.734375 45.3125 54.390625 
Q 45.3125 60.0625 41.71875 63.234375 
Q 38.140625 66.40625 31.78125 66.40625 
Q 25.390625 66.40625 21.84375 63.234375 
Q 18.3125 60.0625 18.3125 54.390625 
z
" id="DejaVuSans-38"/>
      </defs>
      <g transform="translate(407.726684 399.078438)scale(0.1 -0.1)">
       <use xlink:href="#DejaVuSans-38"/>
       <use x="63.623047" xlink:href="#DejaVuSans-30"/>
       <use x="127.246094" xlink:href="#DejaVuSans-30"/>
      </g>
     </g>
    </g>
    <g id="xtick_6">
     <g id="line2d_11">
      <path clip-path="url(#p5e7352de60)" d="M 498.515315 384.48 
L 498.515315 51.84 
" style="fill:none;stroke:#b0b0b0;stroke-dasharray:5.12,1.28,0.8,1.28;stroke-dashoffset:0;stroke-width:0.8;"/>
     </g>
     <g id="line2d_12">
      <g>
       <use style="stroke:#000000;stroke-width:0.8;" x="498.515315" xlink:href="#m4ac767da81" y="384.48"/>
      </g>
     </g>
     <g id="text_6">
      <!-- 1000 -->
      <defs>
       <path d="M 12.40625 8.296875 
L 28.515625 8.296875 
L 28.515625 63.921875 
L 10.984375 60.40625 
L 10.984375 69.390625 
L 28.421875 72.90625 
L 38.28125 72.90625 
L 38.28125 8.296875 
L 54.390625 8.296875 
L 54.390625 0 
L 12.40625 0 
z
" id="DejaVuSans-31"/>
      </defs>
      <g transform="translate(485.790315 399.078438)scale(0.1 -0.1)">
       <use xlink:href="#DejaVuSans-31"/>
       <use x="63.623047" xlink:href="#DejaVuSans-30"/>
       <use x="127.246094" xlink:href="#DejaVuSans-30"/>
       <use x="190.869141" xlink:href="#DejaVuSans-30"/>
      </g>
     </g>
    </g>
    <g id="text_7">
     <!-- Iteration -->
     <defs>
      <path d="M 9.8125 72.90625 
L 19.671875 72.90625 
L 19.671875 0 
L 9.8125 0 
z
" id="DejaVuSans-49"/>
      <path d="M 18.3125 70.21875 
L 18.3125 54.6875 
L 36.8125 54.6875 
L 36.8125 47.703125 
L 18.3125 47.703125 
L 18.3125 18.015625 
Q 18.3125 11.328125 20.140625 9.421875 
Q 21.96875 7.515625 27.59375 7.515625 
L 36.8125 7.515625 
L 36.8125 0 
L 27.59375 0 
Q 17.1875 0 13.234375 3.875 
Q 9.28125 7.765625 9.28125 18.015625 
L 9.28125 47.703125 
L 2.6875 47.703125 
L 2.6875 54.6875 
L 9.28125 54.6875 
L 9.28125 70.21875 
z
" id="DejaVuSans-74"/>
      <path d="M 56.203125 29.59375 
L 56.203125 25.203125 
L 14.890625 25.203125 
Q 15.484375 15.921875 20.484375 11.0625 
Q 25.484375 6.203125 34.421875 6.203125 
Q 39.59375 6.203125 44.453125 7.46875 
Q 49.3125 8.734375 54.109375 11.28125 
L 54.109375 2.78125 
Q 49.265625 0.734375 44.1875 -0.34375 
Q 39.109375 -1.421875 33.890625 -1.421875 
Q 20.796875 -1.421875 13.15625 6.1875 
Q 5.515625 13.8125 5.515625 26.8125 
Q 5.515625 40.234375 12.765625 48.109375 
Q 20.015625 56 32.328125 56 
Q 43.359375 56 49.78125 48.890625 
Q 56.203125 41.796875 56.203125 29.59375 
z
M 47.21875 32.234375 
Q 47.125 39.59375 43.09375 43.984375 
Q 39.0625 48.390625 32.421875 48.390625 
Q 24.90625 48.390625 20.390625 44.140625 
Q 15.875 39.890625 15.1875 32.171875 
z
" id="DejaVuSans-65"/>
      <path d="M 41.109375 46.296875 
Q 39.59375 47.171875 37.8125 47.578125 
Q 36.03125 48 33.890625 48 
Q 26.265625 48 22.1875 43.046875 
Q 18.109375 38.09375 18.109375 28.8125 
L 18.109375 0 
L 9.078125 0 
L 9.078125 54.6875 
L 18.109375 54.6875 
L 18.109375 46.1875 
Q 20.953125 51.171875 25.484375 53.578125 
Q 30.03125 56 36.53125 56 
Q 37.453125 56 38.578125 55.875 
Q 39.703125 55.765625 41.0625 55.515625 
z
" id="DejaVuSans-72"/>
      <path d="M 34.28125 27.484375 
Q 23.390625 27.484375 19.1875 25 
Q 14.984375 22.515625 14.984375 16.5 
Q 14.984375 11.71875 18.140625 8.90625 
Q 21.296875 6.109375 26.703125 6.109375 
Q 34.1875 6.109375 38.703125 11.40625 
Q 43.21875 16.703125 43.21875 25.484375 
L 43.21875 27.484375 
z
M 52.203125 31.203125 
L 52.203125 0 
L 43.21875 0 
L 43.21875 8.296875 
Q 40.140625 3.328125 35.546875 0.953125 
Q 30.953125 -1.421875 24.3125 -1.421875 
Q 15.921875 -1.421875 10.953125 3.296875 
Q 6 8.015625 6 15.921875 
Q 6 25.140625 12.171875 29.828125 
Q 18.359375 34.515625 30.609375 34.515625 
L 43.21875 34.515625 
L 43.21875 35.40625 
Q 43.21875 41.609375 39.140625 45 
Q 35.0625 48.390625 27.6875 48.390625 
Q 23 48.390625 18.546875 47.265625 
Q 14.109375 46.140625 10.015625 43.890625 
L 10.015625 52.203125 
Q 14.9375 54.109375 19.578125 55.046875 
Q 24.21875 56 28.609375 56 
Q 40.484375 56 46.34375 49.84375 
Q 52.203125 43.703125 52.203125 31.203125 
z
" id="DejaVuSans-61"/>
      <path d="M 9.421875 54.6875 
L 18.40625 54.6875 
L 18.40625 0 
L 9.421875 0 
z
M 9.421875 75.984375 
L 18.40625 75.984375 
L 18.40625 64.59375 
L 9.421875 64.59375 
z
" id="DejaVuSans-69"/>
      <path d="M 30.609375 48.390625 
Q 23.390625 48.390625 19.1875 42.75 
Q 14.984375 37.109375 14.984375 27.296875 
Q 14.984375 17.484375 19.15625 11.84375 
Q 23.34375 6.203125 30.609375 6.203125 
Q 37.796875 6.203125 41.984375 11.859375 
Q 46.1875 17.53125 46.1875 27.296875 
Q 46.1875 37.015625 41.984375 42.703125 
Q 37.796875 48.390625 30.609375 48.390625 
z
M 30.609375 56 
Q 42.328125 56 49.015625 48.375 
Q 55.71875 40.765625 55.71875 27.296875 
Q 55.71875 13.875 49.015625 6.21875 
Q 42.328125 -1.421875 30.609375 -1.421875 
Q 18.84375 -1.421875 12.171875 6.21875 
Q 5.515625 13.875 5.515625 27.296875 
Q 5.515625 40.765625 12.171875 48.375 
Q 18.84375 56 30.609375 56 
z
" id="DejaVuSans-6f"/>
      <path d="M 54.890625 33.015625 
L 54.890625 0 
L 45.90625 0 
L 45.90625 32.71875 
Q 45.90625 40.484375 42.875 44.328125 
Q 39.84375 48.1875 33.796875 48.1875 
Q 26.515625 48.1875 22.3125 43.546875 
Q 18.109375 38.921875 18.109375 30.90625 
L 18.109375 0 
L 9.078125 0 
L 9.078125 54.6875 
L 18.109375 54.6875 
L 18.109375 46.1875 
Q 21.34375 51.125 25.703125 53.5625 
Q 30.078125 56 35.796875 56 
Q 45.21875 56 50.046875 50.171875 
Q 54.890625 44.34375 54.890625 33.015625 
z
" id="DejaVuSans-6e"/>
     </defs>
     <g transform="translate(265.507969 415.795938)scale(0.14 -0.14)">
      <use xlink:href="#DejaVuSans-49"/>
      <use x="29.492188" xlink:href="#DejaVuSans-74"/>
      <use x="68.701172" xlink:href="#DejaVuSans-65"/>
      <use x="130.224609" xlink:href="#DejaVuSans-72"/>
      <use x="171.337891" xlink:href="#DejaVuSans-61"/>
      <use x="232.617188" xlink:href="#DejaVuSans-74"/>
      <use x="271.826172" xlink:href="#DejaVuSans-69"/>
      <use x="299.609375" xlink:href="#DejaVuSans-6f"/>
      <use x="360.791016" xlink:href="#DejaVuSans-6e"/>
     </g>
    </g>
   </g>
   <g id="matplotlib.axis_2">
    <g id="ytick_1">
     <g id="line2d_13">
      <path clip-path="url(#p5e7352de60)" d="M 72 369.36 
L 518.4 369.36 
" style="fill:none;stroke:#b0b0b0;stroke-dasharray:5.12,1.28,0.8,1.28;stroke-dashoffset:0;stroke-width:0.8;"/>
     </g>
     <g id="line2d_14">
      <defs>
       <path d="M 0 0 
L -3.5 0 
" id="m8371bdb756" style="stroke:#000000;stroke-width:0.8;"/>
      </defs>
      <g>
       <use style="stroke:#000000;stroke-width:0.8;" x="72" xlink:href="#m8371bdb756" y="369.36"/>
      </g>
     </g>
     <g id="text_8">
      <!-- −0.4 -->
      <defs>
       <path d="M 10.59375 35.5 
L 73.1875 35.5 
L 73.1875 27.203125 
L 10.59375 27.203125 
z
" id="DejaVuSans-2212"/>
       <path d="M 10.6875 12.40625 
L 21 12.40625 
L 21 0 
L 10.6875 0 
z
" id="DejaVuSans-2e"/>
      </defs>
      <g transform="translate(40.717187 373.159219)scale(0.1 -0.1)">
       <use xlink:href="#DejaVuSans-2212"/>
       <use x="83.789062" xlink:href="#DejaVuSans-30"/>
       <use x="147.412109" xlink:href="#DejaVuSans-2e"/>
       <use x="179.199219" xlink:href="#DejaVuSans-34"/>
      </g>
     </g>
    </g>
    <g id="ytick_2">
     <g id="line2d_15">
      <path clip-path="url(#p5e7352de60)" d="M 72 318.493726 
L 518.4 318.493726 
" style="fill:none;stroke:#b0b0b0;stroke-dasharray:5.12,1.28,0.8,1.28;stroke-dashoffset:0;stroke-width:0.8;"/>
     </g>
     <g id="line2d_16">
      <g>
       <use style="stroke:#000000;stroke-width:0.8;" x="72" xlink:href="#m8371bdb756" y="318.493726"/>
      </g>
     </g>
     <g id="text_9">
      <!-- −0.3 -->
      <defs>
       <path d="M 40.578125 39.3125 
Q 47.65625 37.796875 51.625 33 
Q 55.609375 28.21875 55.609375 21.1875 
Q 55.609375 10.40625 48.1875 4.484375 
Q 40.765625 -1.421875 27.09375 -1.421875 
Q 22.515625 -1.421875 17.65625 -0.515625 
Q 12.796875 0.390625 7.625 2.203125 
L 7.625 11.71875 
Q 11.71875 9.328125 16.59375 8.109375 
Q 21.484375 6.890625 26.8125 6.890625 
Q 36.078125 6.890625 40.9375 10.546875 
Q 45.796875 14.203125 45.796875 21.1875 
Q 45.796875 27.640625 41.28125 31.265625 
Q 36.765625 34.90625 28.71875 34.90625 
L 20.21875 34.90625 
L 20.21875 43.015625 
L 29.109375 43.015625 
Q 36.375 43.015625 40.234375 45.921875 
Q 44.09375 48.828125 44.09375 54.296875 
Q 44.09375 59.90625 40.109375 62.90625 
Q 36.140625 65.921875 28.71875 65.921875 
Q 24.65625 65.921875 20.015625 65.03125 
Q 15.375 64.15625 9.8125 62.3125 
L 9.8125 71.09375 
Q 15.4375 72.65625 20.34375 73.4375 
Q 25.25 74.21875 29.59375 74.21875 
Q 40.828125 74.21875 47.359375 69.109375 
Q 53.90625 64.015625 53.90625 55.328125 
Q 53.90625 49.265625 50.4375 45.09375 
Q 46.96875 40.921875 40.578125 39.3125 
z
" id="DejaVuSans-33"/>
      </defs>
      <g transform="translate(40.717187 322.292945)scale(0.1 -0.1)">
       <use xlink:href="#DejaVuSans-2212"/>
       <use x="83.789062" xlink:href="#DejaVuSans-30"/>
       <use x="147.412109" xlink:href="#DejaVuSans-2e"/>
       <use x="179.199219" xlink:href="#DejaVuSans-33"/>
      </g>
     </g>
    </g>
    <g id="ytick_3">
     <g id="line2d_17">
      <path clip-path="url(#p5e7352de60)" d="M 72 267.627452 
L 518.4 267.627452 
" style="fill:none;stroke:#b0b0b0;stroke-dasharray:5.12,1.28,0.8,1.28;stroke-dashoffset:0;stroke-width:0.8;"/>
     </g>
     <g id="line2d_18">
      <g>
       <use style="stroke:#000000;stroke-width:0.8;" x="72" xlink:href="#m8371bdb756" y="267.627452"/>
      </g>
     </g>
     <g id="text_10">
      <!-- −0.2 -->
      <g transform="translate(40.717187 271.42667)scale(0.1 -0.1)">
       <use xlink:href="#DejaVuSans-2212"/>
       <use x="83.789062" xlink:href="#DejaVuSans-30"/>
       <use x="147.412109" xlink:href="#DejaVuSans-2e"/>
       <use x="179.199219" xlink:href="#DejaVuSans-32"/>
      </g>
     </g>
    </g>
    <g id="ytick_4">
     <g id="line2d_19">
      <path clip-path="url(#p5e7352de60)" d="M 72 216.761177 
L 518.4 216.761177 
" style="fill:none;stroke:#b0b0b0;stroke-dasharray:5.12,1.28,0.8,1.28;stroke-dashoffset:0;stroke-width:0.8;"/>
     </g>
     <g id="line2d_20">
      <g>
       <use style="stroke:#000000;stroke-width:0.8;" x="72" xlink:href="#m8371bdb756" y="216.761177"/>
      </g>
     </g>
     <g id="text_11">
      <!-- −0.1 -->
      <g transform="translate(40.717187 220.560396)scale(0.1 -0.1)">
       <use xlink:href="#DejaVuSans-2212"/>
       <use x="83.789062" xlink:href="#DejaVuSans-30"/>
       <use x="147.412109" xlink:href="#DejaVuSans-2e"/>
       <use x="179.199219" xlink:href="#DejaVuSans-31"/>
      </g>
     </g>
    </g>
    <g id="ytick_5">
     <g id="line2d_21">
      <path clip-path="url(#p5e7352de60)" d="M 72 165.894903 
L 518.4 165.894903 
" style="fill:none;stroke:#b0b0b0;stroke-dasharray:5.12,1.28,0.8,1.28;stroke-dashoffset:0;stroke-width:0.8;"/>
     </g>
     <g id="line2d_22">
      <g>
       <use style="stroke:#000000;stroke-width:0.8;" x="72" xlink:href="#m8371bdb756" y="165.894903"/>
      </g>
     </g>
     <g id="text_12">
      <!-- 0.0 -->
      <g transform="translate(49.096875 169.694122)scale(0.1 -0.1)">
       <use xlink:href="#DejaVuSans-30"/>
       <use x="63.623047" xlink:href="#DejaVuSans-2e"/>
       <use x="95.410156" xlink:href="#DejaVuSans-30"/>
      </g>
     </g>
    </g>
    <g id="ytick_6">
     <g id="line2d_23">
      <path clip-path="url(#p5e7352de60)" d="M 72 115.028629 
L 518.4 115.028629 
" style="fill:none;stroke:#b0b0b0;stroke-dasharray:5.12,1.28,0.8,1.28;stroke-dashoffset:0;stroke-width:0.8;"/>
     </g>
     <g id="line2d_24">
      <g>
       <use style="stroke:#000000;stroke-width:0.8;" x="72" xlink:href="#m8371bdb756" y="115.028629"/>
      </g>
     </g>
     <g id="text_13">
      <!-- 0.1 -->
      <g transform="translate(49.096875 118.827848)scale(0.1 -0.1)">
       <use xlink:href="#DejaVuSans-30"/>
       <use x="63.623047" xlink:href="#DejaVuSans-2e"/>
       <use x="95.410156" xlink:href="#DejaVuSans-31"/>
      </g>
     </g>
    </g>
    <g id="ytick_7">
     <g id="line2d_25">
      <path clip-path="url(#p5e7352de60)" d="M 72 64.162355 
L 518.4 64.162355 
" style="fill:none;stroke:#b0b0b0;stroke-dasharray:5.12,1.28,0.8,1.28;stroke-dashoffset:0;stroke-width:0.8;"/>
     </g>
     <g id="line2d_26">
      <g>
       <use style="stroke:#000000;stroke-width:0.8;" x="72" xlink:href="#m8371bdb756" y="64.162355"/>
      </g>
     </g>
     <g id="text_14">
      <!-- 0.2 -->
      <g transform="translate(49.096875 67.961574)scale(0.1 -0.1)">
       <use xlink:href="#DejaVuSans-30"/>
       <use x="63.623047" xlink:href="#DejaVuSans-2e"/>
       <use x="95.410156" xlink:href="#DejaVuSans-32"/>
      </g>
     </g>
    </g>
    <g id="text_15">
     <!-- $\Delta p^\mathrm{S}_{m}[W]$ -->
     <defs>
      <path d="M 34.1875 63.1875 
L 14.15625 8.203125 
L 54.25 8.203125 
z
M 0.78125 0 
L 28.609375 72.90625 
L 39.796875 72.90625 
L 67.578125 0 
z
" id="DejaVuSans-394"/>
      <path d="M 49.609375 33.6875 
Q 49.609375 40.875 46.484375 44.671875 
Q 43.359375 48.484375 37.5 48.484375 
Q 33.5 48.484375 29.859375 46.4375 
Q 26.21875 44.390625 23.390625 40.484375 
Q 20.609375 36.625 18.9375 31.15625 
Q 17.28125 25.6875 17.28125 20.3125 
Q 17.28125 13.484375 20.40625 9.796875 
Q 23.53125 6.109375 29.296875 6.109375 
Q 33.546875 6.109375 37.1875 8.109375 
Q 40.828125 10.109375 43.40625 13.921875 
Q 46.1875 17.921875 47.890625 23.34375 
Q 49.609375 28.765625 49.609375 33.6875 
z
M 21.78125 46.390625 
Q 25.390625 51.125 30.296875 53.5625 
Q 35.203125 56 41.21875 56 
Q 49.609375 56 54.25 50.5 
Q 58.890625 45.015625 58.890625 35.109375 
Q 58.890625 27 56 19.65625 
Q 53.125 12.3125 47.703125 6.5 
Q 44.09375 2.640625 39.546875 0.609375 
Q 35.015625 -1.421875 29.984375 -1.421875 
Q 24.171875 -1.421875 20.21875 1 
Q 16.265625 3.421875 14.3125 8.203125 
L 8.6875 -20.796875 
L -0.296875 -20.796875 
L 14.40625 54.6875 
L 23.390625 54.6875 
z
" id="DejaVuSans-Oblique-70"/>
      <path d="M 53.515625 70.515625 
L 53.515625 60.890625 
Q 47.90625 63.578125 42.921875 64.890625 
Q 37.9375 66.21875 33.296875 66.21875 
Q 25.25 66.21875 20.875 63.09375 
Q 16.5 59.96875 16.5 54.203125 
Q 16.5 49.359375 19.40625 46.890625 
Q 22.3125 44.4375 30.421875 42.921875 
L 36.375 41.703125 
Q 47.40625 39.59375 52.65625 34.296875 
Q 57.90625 29 57.90625 20.125 
Q 57.90625 9.515625 50.796875 4.046875 
Q 43.703125 -1.421875 29.984375 -1.421875 
Q 24.8125 -1.421875 18.96875 -0.25 
Q 13.140625 0.921875 6.890625 3.21875 
L 6.890625 13.375 
Q 12.890625 10.015625 18.65625 8.296875 
Q 24.421875 6.59375 29.984375 6.59375 
Q 38.421875 6.59375 43.015625 9.90625 
Q 47.609375 13.234375 47.609375 19.390625 
Q 47.609375 24.75 44.3125 27.78125 
Q 41.015625 30.8125 33.5 32.328125 
L 27.484375 33.5 
Q 16.453125 35.6875 11.515625 40.375 
Q 6.59375 45.0625 6.59375 53.421875 
Q 6.59375 63.09375 13.40625 68.65625 
Q 20.21875 74.21875 32.171875 74.21875 
Q 37.3125 74.21875 42.625 73.28125 
Q 47.953125 72.359375 53.515625 70.515625 
z
" id="DejaVuSans-53"/>
      <path d="M 89.796875 33.015625 
L 83.40625 0 
L 74.421875 0 
L 80.71875 32.71875 
Q 81.109375 34.8125 81.296875 36.328125 
Q 81.5 37.84375 81.5 38.921875 
Q 81.5 43.3125 79.046875 45.75 
Q 76.609375 48.1875 72.21875 48.1875 
Q 65.671875 48.1875 60.546875 43.28125 
Q 55.421875 38.375 53.90625 30.515625 
L 47.90625 0 
L 38.921875 0 
L 45.3125 32.71875 
Q 45.703125 34.515625 45.890625 36.046875 
Q 46.09375 37.59375 46.09375 38.8125 
Q 46.09375 43.265625 43.65625 45.71875 
Q 41.21875 48.1875 36.921875 48.1875 
Q 30.28125 48.1875 25.140625 43.28125 
Q 20.015625 38.375 18.5 30.515625 
L 12.5 0 
L 3.515625 0 
L 14.203125 54.6875 
L 23.1875 54.6875 
L 21.484375 46.1875 
Q 25.140625 50.984375 30.046875 53.484375 
Q 34.96875 56 40.578125 56 
Q 46.53125 56 50.359375 52.875 
Q 54.203125 49.75 54.984375 44.1875 
Q 59.078125 49.953125 64.46875 52.96875 
Q 69.875 56 75.875 56 
Q 82.90625 56 86.734375 51.953125 
Q 90.578125 47.90625 90.578125 40.484375 
Q 90.578125 38.875 90.375 36.9375 
Q 90.1875 35.015625 89.796875 33.015625 
z
" id="DejaVuSans-Oblique-6d"/>
      <path d="M 8.59375 75.984375 
L 29.296875 75.984375 
L 29.296875 69 
L 17.578125 69 
L 17.578125 -6.203125 
L 29.296875 -6.203125 
L 29.296875 -13.1875 
L 8.59375 -13.1875 
z
" id="DejaVuSans-5b"/>
      <path d="M 9.625 72.90625 
L 19.1875 72.90625 
L 22.703125 10.890625 
L 50.203125 72.90625 
L 61.1875 72.90625 
L 64.796875 10.890625 
L 92 72.90625 
L 102 72.90625 
L 69.578125 0 
L 57.171875 0 
L 53.8125 60.796875 
L 26.515625 0 
L 14.109375 0 
z
" id="DejaVuSans-Oblique-57"/>
      <path d="M 30.421875 75.984375 
L 30.421875 -13.1875 
L 9.71875 -13.1875 
L 9.71875 -6.203125 
L 21.390625 -6.203125 
L 21.390625 69 
L 9.71875 69 
L 9.71875 75.984375 
z
" id="DejaVuSans-5d"/>
     </defs>
     <g transform="translate(32.797187 244.76)rotate(-90)scale(0.14 -0.14)">
      <use transform="translate(0 0.765625)" xlink:href="#DejaVuSans-394"/>
      <use transform="translate(68.408203 0.765625)" xlink:href="#DejaVuSans-Oblique-70"/>
      <use transform="translate(136.534661 39.046875)scale(0.7)" xlink:href="#DejaVuSans-53"/>
      <use transform="translate(131.884766 -26.578125)scale(0.7)" xlink:href="#DejaVuSans-Oblique-6d"/>
      <use transform="translate(202.807617 0.765625)" xlink:href="#DejaVuSans-5b"/>
      <use transform="translate(241.821289 0.765625)" xlink:href="#DejaVuSans-Oblique-57"/>
      <use transform="translate(340.698242 0.765625)" xlink:href="#DejaVuSans-5d"/>
     </g>
    </g>
   </g>
   <g id="line2d_27">
    <path clip-path="url(#p5e7352de60)" d="M 92.290909 165.894903 
L 109.758559 165.894903 
L 110.164783 155.97598 
L 110.571007 158.112363 
L 110.977232 159.231421 
L 111.383456 159.892683 
L 112.195905 160.604811 
L 113.008354 161.062607 
L 115.4457 161.876468 
L 116.258149 162.130799 
L 116.664373 163.35159 
L 117.070598 163.961985 
L 117.883047 202.213423 
L 118.289271 202.772952 
L 118.695495 165.894903 
L 125.60131 165.894903 
L 126.007535 163.097258 
L 126.413759 161.215206 
L 126.819984 162.38513 
L 127.226208 167.827822 
L 127.632432 174.999966 
L 128.038657 165.894903 
L 134.132023 165.894903 
L 134.538247 162.029066 
L 134.944472 159.892683 
L 135.350696 161.469537 
L 135.756921 166.75963 
L 136.163145 174.796501 
L 136.975594 165.894903 
L 142.256511 165.894903 
L 142.662735 162.842927 
L 143.06896 161.673003 
L 143.475184 159.689218 
L 143.881409 160.248747 
L 144.287633 164.114584 
L 145.100082 178.865803 
L 145.506306 169.150345 
L 145.912531 165.894903 
L 150.380999 165.894903 
L 150.787224 163.249857 
L 151.193448 162.893793 
L 151.599672 160.553944 
L 152.005897 159.333154 
L 152.412121 158.671892 
L 152.818346 160.808276 
L 153.22457 165.437107 
L 154.037019 179.832262 
L 154.443243 176.068158 
L 154.849468 165.894903 
L 158.911712 165.894903 
L 159.317936 163.097258 
L 159.724161 162.588595 
L 160.130385 160.553944 
L 160.536609 159.485753 
L 160.942834 158.875357 
L 161.349058 159.231421 
L 161.755283 162.029066 
L 162.161507 166.963095 
L 162.973956 180.798722 
L 163.38018 177.797611 
L 163.786405 165.894903 
L 167.442424 165.894903 
L 167.848649 162.639462 
L 168.254873 162.944659 
L 168.661097 160.859142 
L 169.067322 159.740084 
L 169.473546 159.078823 
L 169.879771 158.722759 
L 170.285995 159.689218 
L 170.692219 162.842927 
L 171.504668 174.389571 
L 171.910893 181.409117 
L 172.317117 180.493524 
L 172.723342 165.894903 
L 176.379361 165.894903 
L 176.785586 162.792061 
L 177.598034 160.045282 
L 178.410483 158.926224 
L 178.816708 158.621026 
L 179.222932 159.943549 
L 179.629156 163.402456 
L 180.441605 175.101699 
L 180.84783 181.968646 
L 181.254054 180.646123 
L 181.660278 165.894903 
L 184.910074 165.894903 
L 185.316298 161.9782 
L 185.722523 163.35159 
L 186.128747 161.113474 
L 186.534971 159.994415 
L 186.941196 159.333154 
L 187.753645 158.621026 
L 188.159869 160.147014 
L 188.566093 163.707653 
L 189.378542 175.457763 
L 189.784767 182.32471 
L 190.190991 182.629907 
L 190.597215 165.894903 
L 193.847011 165.894903 
L 194.253235 162.029066 
L 194.659459 162.842927 
L 195.065684 160.910008 
L 195.471908 159.892683 
L 195.878133 159.282288 
L 196.690581 158.621026 
L 197.096806 160.248747 
L 197.50303 163.911119 
L 198.315479 175.76296 
L 198.721704 182.579041 
L 199.127928 182.426442 
L 199.534152 165.894903 
L 202.783948 165.894903 
L 203.190172 162.130799 
L 203.596396 162.537729 
L 204.002621 160.75741 
L 204.408845 159.79095 
L 204.81507 159.231421 
L 205.627518 158.621026 
L 206.033743 160.248747 
L 206.439967 163.961985 
L 207.252416 175.864693 
L 207.65864 182.680774 
L 208.064865 182.528175 
L 208.471089 165.894903 
L 211.720885 165.894903 
L 212.127109 162.181665 
L 212.533333 162.435997 
L 212.939558 160.706543 
L 213.345782 159.79095 
L 213.752007 159.231421 
L 214.564455 158.621026 
L 214.97068 160.299613 
L 215.376904 164.012851 
L 216.189353 175.915559 
L 216.595577 182.73164 
L 217.001802 182.528175 
L 217.408026 165.894903 
L 220.657821 165.894903 
L 221.064046 162.181665 
L 221.47027 162.38513 
L 221.876495 160.655677 
L 222.282719 159.79095 
L 222.688943 159.231421 
L 223.501392 158.621026 
L 223.907617 160.299613 
L 224.313841 164.012851 
L 225.12629 175.915559 
L 225.532514 182.73164 
L 225.938739 182.528175 
L 226.344963 165.894903 
L 229.594758 165.894903 
L 230.000983 162.181665 
L 230.407207 162.334264 
L 230.813432 160.655677 
L 231.219656 159.740084 
L 232.032105 158.875357 
L 232.438329 158.621026 
L 232.844554 160.299613 
L 233.250778 164.012851 
L 234.063227 175.966426 
L 234.469451 182.73164 
L 234.875676 182.528175 
L 235.2819 165.894903 
L 238.531695 165.894903 
L 238.93792 162.181665 
L 239.344144 162.334264 
L 239.750369 160.655677 
L 240.156593 159.740084 
L 240.969042 158.875357 
L 241.375266 158.621026 
L 241.781491 160.299613 
L 242.187715 164.012851 
L 243.000164 175.966426 
L 243.406388 182.782506 
L 243.812613 182.528175 
L 244.218837 165.894903 
L 247.468632 165.894903 
L 247.874857 162.181665 
L 248.281081 162.334264 
L 248.687305 160.655677 
L 249.09353 159.740084 
L 249.905979 158.875357 
L 250.312203 158.621026 
L 250.718428 160.299613 
L 251.124652 164.063717 
L 251.937101 175.966426 
L 252.343325 182.782506 
L 252.74955 182.528175 
L 253.155774 165.894903 
L 256.405569 165.894903 
L 256.811794 162.181665 
L 257.218018 162.283398 
L 257.624242 160.655677 
L 258.030467 159.740084 
L 258.842916 158.875357 
L 259.24914 158.621026 
L 259.655364 160.299613 
L 260.061589 164.063717 
L 260.874038 175.966426 
L 261.280262 182.782506 
L 261.686486 182.528175 
L 262.092711 165.894903 
L 265.342506 165.894903 
L 265.748731 162.181665 
L 266.154955 162.283398 
L 266.561179 160.655677 
L 266.967404 159.740084 
L 267.779853 158.875357 
L 268.186077 158.621026 
L 268.592301 160.299613 
L 268.998526 164.063717 
L 269.810975 175.966426 
L 270.217199 182.782506 
L 270.623423 182.528175 
L 271.029648 165.894903 
L 274.279443 165.894903 
L 274.685667 162.181665 
L 275.091892 162.283398 
L 275.498116 160.655677 
L 275.904341 159.740084 
L 276.71679 158.875357 
L 277.123014 158.621026 
L 277.529238 160.299613 
L 277.935463 164.063717 
L 278.747912 175.966426 
L 279.154136 182.782506 
L 279.56036 182.528175 
L 279.966585 165.894903 
L 283.21638 165.894903 
L 283.622604 162.181665 
L 284.028829 162.283398 
L 284.435053 160.655677 
L 284.841278 159.740084 
L 285.653726 158.875357 
L 286.059951 158.621026 
L 286.466175 160.299613 
L 286.8724 164.063717 
L 287.684848 175.966426 
L 288.091073 182.782506 
L 288.497297 182.528175 
L 288.903522 165.894903 
L 292.153317 165.894903 
L 292.559541 162.181665 
L 292.965766 162.283398 
L 293.37199 160.655677 
L 293.778215 159.740084 
L 294.590663 158.875357 
L 294.996888 158.621026 
L 295.403112 160.299613 
L 295.809337 164.063717 
L 296.621785 175.966426 
L 297.02801 182.782506 
L 297.434234 182.528175 
L 297.840459 165.894903 
L 301.090254 165.894903 
L 301.496478 162.181665 
L 301.902703 162.283398 
L 302.308927 160.655677 
L 302.715152 159.740084 
L 303.5276 158.875357 
L 303.933825 158.621026 
L 304.340049 160.299613 
L 304.746274 164.063717 
L 305.558722 175.966426 
L 305.964947 182.782506 
L 306.371171 182.528175 
L 306.777396 165.894903 
L 310.027191 165.894903 
L 310.433415 162.181665 
L 310.83964 162.283398 
L 311.245864 160.655677 
L 311.652088 159.740084 
L 312.464537 158.875357 
L 312.870762 158.621026 
L 313.276986 160.299613 
L 313.68321 164.063717 
L 314.495659 175.966426 
L 314.901884 182.782506 
L 315.308108 182.528175 
L 315.714333 165.894903 
L 318.964128 165.894903 
L 319.370352 162.181665 
L 319.776577 162.283398 
L 320.182801 160.655677 
L 320.589025 159.740084 
L 321.401474 158.875357 
L 321.807699 158.621026 
L 322.213923 160.299613 
L 322.620147 164.063717 
L 323.432596 175.966426 
L 323.838821 182.782506 
L 324.245045 182.528175 
L 324.651269 165.894903 
L 327.901065 165.894903 
L 328.307289 162.181665 
L 328.713514 162.283398 
L 329.119738 160.655677 
L 329.525962 159.740084 
L 330.338411 158.875357 
L 330.744636 158.621026 
L 331.15086 160.299613 
L 331.557084 164.063717 
L 332.369533 175.966426 
L 332.775758 182.782506 
L 333.181982 182.528175 
L 333.588206 165.894903 
L 336.838002 165.894903 
L 337.244226 162.181665 
L 337.65045 162.283398 
L 338.056675 160.655677 
L 338.462899 159.740084 
L 339.275348 158.875357 
L 339.681572 158.621026 
L 340.087797 160.299613 
L 340.494021 164.063717 
L 341.30647 175.966426 
L 341.712695 182.782506 
L 342.118919 182.528175 
L 342.525143 165.894903 
L 345.774939 165.894903 
L 346.181163 162.181665 
L 346.587387 162.283398 
L 346.993612 160.655677 
L 347.399836 159.740084 
L 348.212285 158.875357 
L 348.618509 158.621026 
L 349.024734 160.299613 
L 349.430958 164.063717 
L 350.243407 175.966426 
L 350.649631 182.782506 
L 351.055856 182.528175 
L 351.46208 165.894903 
L 354.711876 165.894903 
L 355.1181 162.181665 
L 355.524324 162.283398 
L 355.930549 160.655677 
L 356.336773 159.740084 
L 357.149222 158.875357 
L 357.555446 158.621026 
L 357.961671 160.299613 
L 358.367895 164.063717 
L 359.180344 175.966426 
L 359.586568 182.782506 
L 359.992793 182.528175 
L 360.399017 165.894903 
L 363.648812 165.894903 
L 364.055037 162.181665 
L 364.461261 162.283398 
L 364.867486 160.655677 
L 365.27371 159.740084 
L 366.086159 158.875357 
L 366.492383 158.621026 
L 366.898608 160.299613 
L 367.304832 164.063717 
L 368.117281 175.966426 
L 368.523505 182.782506 
L 368.92973 182.528175 
L 369.335954 165.894903 
L 372.585749 165.894903 
L 372.991974 162.181665 
L 373.398198 162.283398 
L 373.804423 160.655677 
L 374.210647 159.740084 
L 375.023096 158.875357 
L 375.42932 158.621026 
L 375.835545 160.299613 
L 376.241769 164.063717 
L 377.054218 175.966426 
L 377.460442 182.782506 
L 377.866667 182.528175 
L 378.272891 165.894903 
L 381.522686 165.894903 
L 381.928911 162.181665 
L 382.335135 162.283398 
L 382.74136 160.655677 
L 383.147584 159.740084 
L 383.960033 158.875357 
L 384.366257 158.621026 
L 384.772482 160.299613 
L 385.178706 164.063717 
L 385.991155 175.966426 
L 386.397379 182.782506 
L 386.803604 182.528175 
L 387.209828 165.894903 
L 390.459623 165.894903 
L 390.865848 162.181665 
L 391.272072 162.283398 
L 391.678296 160.655677 
L 392.084521 159.740084 
L 392.89697 158.875357 
L 393.303194 158.621026 
L 393.709419 160.299613 
L 394.115643 164.063717 
L 394.928092 175.966426 
L 395.334316 182.782506 
L 395.740541 182.528175 
L 396.146765 165.894903 
L 399.39656 165.894903 
L 399.802785 162.181665 
L 400.209009 162.283398 
L 400.615233 160.655677 
L 401.021458 159.740084 
L 401.833907 158.875357 
L 402.240131 158.621026 
L 402.646355 160.299613 
L 403.05258 164.063717 
L 403.865029 175.966426 
L 404.271253 182.782506 
L 404.677477 182.528175 
L 405.083702 165.894903 
L 408.333497 165.894903 
L 408.739722 162.181665 
L 409.145946 162.283398 
L 409.55217 160.655677 
L 409.958395 159.740084 
L 410.770844 158.875357 
L 411.177068 158.621026 
L 411.583292 160.299613 
L 411.989517 164.063717 
L 412.801966 175.966426 
L 413.20819 182.782506 
L 413.614414 182.528175 
L 414.020639 165.894903 
L 417.270434 165.894903 
L 417.676658 162.181665 
L 418.082883 162.283398 
L 418.489107 160.655677 
L 418.895332 159.740084 
L 419.707781 158.875357 
L 420.114005 158.621026 
L 420.520229 160.299613 
L 420.926454 164.063717 
L 421.738903 175.966426 
L 422.145127 182.782506 
L 422.551351 182.528175 
L 422.957576 165.894903 
L 426.207371 165.894903 
L 426.613595 162.181665 
L 427.01982 162.283398 
L 427.426044 160.655677 
L 427.832269 159.740084 
L 428.644717 158.875357 
L 429.050942 158.621026 
L 429.457166 160.299613 
L 429.863391 164.063717 
L 430.675839 175.966426 
L 431.082064 182.782506 
L 431.488288 182.528175 
L 431.894513 165.894903 
L 435.144308 165.894903 
L 435.550532 162.181665 
L 435.956757 162.283398 
L 436.362981 160.655677 
L 436.769206 159.740084 
L 437.581654 158.875357 
L 437.987879 158.621026 
L 438.394103 160.299613 
L 438.800328 164.063717 
L 439.612776 175.966426 
L 440.019001 182.782506 
L 440.425225 182.528175 
L 440.83145 165.894903 
L 444.081245 165.894903 
L 444.487469 162.181665 
L 444.893694 162.283398 
L 445.299918 160.655677 
L 445.706143 159.740084 
L 446.518591 158.875357 
L 446.924816 158.621026 
L 447.33104 160.299613 
L 447.737265 164.063717 
L 448.549713 175.966426 
L 448.955938 182.782506 
L 449.362162 182.528175 
L 449.768387 165.894903 
L 453.018182 165.894903 
L 453.424406 162.181665 
L 453.830631 162.283398 
L 454.236855 160.655677 
L 454.643079 159.740084 
L 455.455528 158.875357 
L 455.861753 158.621026 
L 456.267977 160.299613 
L 456.674201 164.063717 
L 457.48665 175.966426 
L 457.892875 182.782506 
L 458.299099 182.528175 
L 458.705324 165.894903 
L 461.955119 165.894903 
L 462.361343 162.181665 
L 462.767568 162.283398 
L 463.173792 160.655677 
L 463.580016 159.740084 
L 464.392465 158.875357 
L 464.79869 158.621026 
L 465.204914 160.299613 
L 465.611138 164.063717 
L 466.423587 175.966426 
L 466.829812 182.782506 
L 467.236036 182.528175 
L 467.64226 165.894903 
L 470.892056 165.894903 
L 471.29828 162.181665 
L 471.704505 162.283398 
L 472.110729 160.655677 
L 472.516953 159.740084 
L 473.329402 158.875357 
L 473.735627 158.621026 
L 474.141851 160.299613 
L 474.548075 164.063717 
L 475.360524 175.966426 
L 475.766749 182.782506 
L 476.172973 182.528175 
L 476.579197 165.894903 
L 479.828993 165.894903 
L 480.235217 162.181665 
L 480.641441 162.283398 
L 481.047666 160.655677 
L 481.45389 159.740084 
L 482.266339 158.875357 
L 482.672563 158.621026 
L 483.078788 160.299613 
L 483.485012 164.063717 
L 484.297461 175.966426 
L 484.703686 182.782506 
L 485.10991 182.528175 
L 485.516134 165.894903 
L 488.76593 165.894903 
L 489.172154 162.181665 
L 489.578378 162.283398 
L 489.984603 160.655677 
L 490.390827 159.740084 
L 491.203276 158.875357 
L 491.6095 158.621026 
L 492.015725 160.299613 
L 492.421949 164.063717 
L 493.234398 175.966426 
L 493.640622 182.782506 
L 494.046847 182.528175 
L 494.453071 165.894903 
L 497.702867 165.894903 
L 498.109091 162.181665 
L 498.109091 162.181665 
" style="fill:none;stroke:#bf00bf;stroke-linecap:square;stroke-width:1.5;"/>
   </g>
   <g id="line2d_28">
    <path clip-path="url(#p5e7352de60)" d="M 92.290909 165.894903 
L 498.109091 165.894903 
L 498.109091 165.894903 
" style="fill:none;stroke:#00bfbf;stroke-linecap:square;stroke-width:1.5;"/>
   </g>
   <g id="line2d_29">
    <path clip-path="url(#p5e7352de60)" d="M 92.290909 165.894903 
L 92.697133 369.36 
L 93.103358 165.894903 
L 498.109091 165.894903 
L 498.109091 165.894903 
" style="fill:none;stroke:#ff0000;stroke-linecap:square;stroke-width:1.5;"/>
   </g>
   <g id="line2d_30">
    <path clip-path="url(#p5e7352de60)" d="M 92.290909 165.894903 
L 117.476822 165.894903 
L 117.883047 109.789403 
L 118.289271 99.209218 
L 118.695495 77.489319 
L 119.10172 66.96 
L 119.507944 89.442893 
L 119.914169 165.894903 
L 121.132842 165.894903 
L 121.539066 261.269167 
L 121.945291 218.795828 
L 123.163964 195.244743 
L 123.976413 185.274954 
L 124.788862 178.713204 
L 125.60131 174.084373 
L 126.413759 170.778066 
L 126.819984 165.386241 
L 127.632432 145.59926 
L 128.444881 123.930227 
L 128.851106 118.233204 
L 129.25733 119.555728 
L 129.663554 130.288511 
L 130.069779 151.804945 
L 130.882228 210.809823 
L 131.288452 207.605248 
L 132.100901 192.345366 
L 132.91335 182.375576 
L 133.725799 176.271623 
L 134.538247 172.253188 
L 134.944472 170.727199 
L 135.350696 165.844037 
L 136.163145 147.379579 
L 136.975594 126.575273 
L 137.381818 120.06439 
L 137.788043 120.522187 
L 138.194267 129.932447 
L 138.600491 149.821161 
L 139.41294 208.571707 
L 139.819165 206.028394 
L 140.631613 191.378907 
L 141.444062 181.765181 
L 142.256511 175.915559 
L 143.06896 172.049722 
L 143.475184 170.727199 
L 143.881409 167.726089 
L 144.287633 161.520404 
L 145.912531 126.778738 
L 146.318755 124.03196 
L 146.72498 129.016854 
L 147.131204 143.157679 
L 147.537428 166.963095 
L 147.943653 199.517511 
L 148.349877 203.383347 
L 149.56855 185.32582 
L 150.380999 178.001077 
L 151.193448 173.473978 
L 151.599672 171.897124 
L 152.005897 170.778066 
L 152.412121 170.065938 
L 152.818346 166.200101 
L 153.630794 151.550614 
L 154.443243 134.866476 
L 154.849468 129.525517 
L 155.255692 128.711657 
L 155.661916 135.476871 
L 156.068141 150.838486 
L 156.88059 200.48397 
L 157.286814 198.856249 
L 158.099263 186.800942 
L 158.911712 178.764071 
L 159.724161 173.931775 
L 160.130385 172.304054 
L 160.536609 171.184996 
L 160.942834 170.472868 
L 161.349058 168.896013 
L 161.755283 164.57238 
L 162.567731 150.329823 
L 163.38018 135.62947 
L 163.786405 131.763633 
L 164.192629 132.62836 
L 164.598853 140.970429 
L 165.005078 157.451102 
L 165.411302 181.714315 
L 165.817527 197.991522 
L 166.223751 195.092145 
L 167.0362 184.206762 
L 167.848649 177.13635 
L 168.661097 172.965315 
L 169.067322 171.744525 
L 169.473546 170.879798 
L 169.879771 170.320269 
L 170.285995 168.234752 
L 170.692219 163.605921 
L 171.504668 149.617696 
L 172.317117 136.0364 
L 172.723342 133.03529 
L 173.129566 134.866476 
L 173.53579 144.124138 
L 173.942015 161.266072 
L 174.348239 185.73275 
L 174.754464 196.567267 
L 175.160688 192.904895 
L 175.973137 182.680774 
L 176.785586 176.220757 
L 177.19181 174.033507 
L 177.598034 172.507519 
L 178.004259 171.439327 
L 178.816708 170.218537 
L 179.222932 167.776955 
L 179.629156 162.944659 
L 181.254054 135.985534 
L 181.660278 133.594819 
L 182.066503 136.087267 
L 182.472727 146.057056 
L 182.878952 163.860252 
L 183.285176 188.73386 
L 183.6914 195.855139 
L 184.503849 186.292279 
L 185.316298 178.35714 
L 186.128747 173.626577 
L 186.534971 172.253188 
L 187.34742 170.676333 
L 187.753645 170.218537 
L 188.159869 167.57349 
L 188.566093 162.588595 
L 190.190991 135.934668 
L 190.597215 133.798284 
L 191.00344 136.646796 
L 191.409664 147.023516 
L 191.815889 165.131909 
L 192.222113 190.208982 
L 192.628337 195.499075 
L 194.253235 178.001077 
L 195.065684 173.473978 
L 195.471908 172.151455 
L 196.284357 170.625467 
L 196.690581 170.16767 
L 197.096806 167.420892 
L 197.50303 162.38513 
L 199.127928 135.832935 
L 199.534152 133.849151 
L 199.940377 136.951993 
L 200.346601 147.583045 
L 200.752826 166.047502 
L 201.15905 191.32804 
L 201.565274 195.346476 
L 203.190172 177.797611 
L 204.002621 173.372246 
L 204.408845 172.100589 
L 205.221294 170.625467 
L 205.627518 170.16767 
L 206.033743 167.370025 
L 206.439967 162.283398 
L 208.064865 135.832935 
L 208.471089 133.950883 
L 208.877314 137.104592 
L 209.283538 147.837376 
L 209.689762 166.3527 
L 210.095987 191.684104 
L 210.502211 195.244743 
L 211.720885 181.002187 
L 212.533333 175.203431 
L 212.939558 173.321379 
L 213.345782 172.049722 
L 214.158231 170.625467 
L 214.564455 170.16767 
L 214.97068 167.319159 
L 215.376904 162.232532 
L 217.001802 135.782069 
L 217.408026 133.950883 
L 217.814251 137.155458 
L 218.220475 147.989975 
L 218.626699 166.505299 
L 219.032924 191.938436 
L 219.439148 195.244743 
L 220.657821 180.95132 
L 221.47027 175.152565 
L 221.876495 173.321379 
L 222.282719 172.049722 
L 222.688943 171.184996 
L 223.501392 170.16767 
L 223.907617 167.319159 
L 224.313841 162.232532 
L 225.938739 135.782069 
L 226.344963 133.950883 
L 226.751188 137.206325 
L 227.157412 148.040841 
L 227.563636 166.607031 
L 227.969861 191.989302 
L 228.376085 195.193877 
L 229.594758 180.900454 
L 230.407207 175.152565 
L 230.813432 173.321379 
L 231.219656 172.049722 
L 231.62588 171.184996 
L 232.438329 170.16767 
L 232.844554 167.319159 
L 233.250778 162.181665 
L 234.875676 135.782069 
L 235.2819 133.950883 
L 235.688124 137.206325 
L 236.094349 148.091707 
L 236.500573 166.657897 
L 236.906798 192.091034 
L 237.313022 195.193877 
L 238.531695 180.900454 
L 239.344144 175.152565 
L 239.750369 173.270513 
L 240.156593 172.049722 
L 240.562817 171.184996 
L 241.375266 170.16767 
L 241.781491 167.319159 
L 242.187715 162.181665 
L 243.812613 135.782069 
L 244.218837 133.950883 
L 244.625061 137.257191 
L 245.031286 148.091707 
L 245.43751 166.657897 
L 245.843735 192.091034 
L 246.249959 195.193877 
L 247.468632 180.900454 
L 248.281081 175.152565 
L 248.687305 173.270513 
L 249.09353 172.049722 
L 249.499754 171.184996 
L 250.312203 170.16767 
L 250.718428 167.319159 
L 251.124652 162.181665 
L 252.74955 135.782069 
L 253.155774 133.950883 
L 253.561998 137.257191 
L 253.968223 148.091707 
L 254.374447 166.708764 
L 254.780672 192.091034 
L 255.186896 195.193877 
L 256.405569 180.900454 
L 257.218018 175.152565 
L 257.624242 173.270513 
L 258.030467 172.049722 
L 258.436691 171.184996 
L 259.24914 170.16767 
L 259.655364 167.319159 
L 260.061589 162.181665 
L 261.686486 135.782069 
L 262.092711 133.950883 
L 262.498935 137.257191 
L 262.90516 148.091707 
L 263.311384 166.708764 
L 263.717609 192.091034 
L 264.123833 195.193877 
L 265.342506 180.900454 
L 266.154955 175.152565 
L 266.561179 173.270513 
L 266.967404 172.049722 
L 267.373628 171.184996 
L 268.186077 170.16767 
L 268.592301 167.319159 
L 268.998526 162.181665 
L 270.623423 135.782069 
L 271.029648 134.001749 
L 271.435872 137.257191 
L 271.842097 148.091707 
L 272.248321 166.708764 
L 272.654545 192.091034 
L 273.06077 195.193877 
L 274.279443 180.900454 
L 275.091892 175.152565 
L 275.498116 173.270513 
L 275.904341 172.049722 
L 276.310565 171.184996 
L 277.123014 170.16767 
L 277.529238 167.319159 
L 277.935463 162.181665 
L 279.56036 135.782069 
L 279.966585 134.001749 
L 280.372809 137.257191 
L 280.779034 148.091707 
L 281.185258 166.708764 
L 281.591482 192.141901 
L 281.997707 195.193877 
L 283.21638 180.900454 
L 284.028829 175.152565 
L 284.435053 173.270513 
L 284.841278 172.049722 
L 285.247502 171.184996 
L 286.059951 170.16767 
L 286.466175 167.319159 
L 286.8724 162.181665 
L 288.497297 135.782069 
L 288.903522 134.001749 
L 289.309746 137.257191 
L 289.715971 148.091707 
L 290.122195 166.708764 
L 290.528419 192.141901 
L 290.934644 195.193877 
L 292.153317 180.900454 
L 292.965766 175.152565 
L 293.37199 173.270513 
L 293.778215 172.049722 
L 294.184439 171.184996 
L 294.996888 170.16767 
L 295.403112 167.319159 
L 295.809337 162.181665 
L 297.434234 135.782069 
L 297.840459 134.001749 
L 298.246683 137.257191 
L 298.652907 148.091707 
L 299.059132 166.708764 
L 299.465356 192.141901 
L 299.871581 195.193877 
L 301.090254 180.900454 
L 301.902703 175.152565 
L 302.308927 173.270513 
L 302.715152 172.049722 
L 303.121376 171.184996 
L 303.933825 170.16767 
L 304.340049 167.319159 
L 304.746274 162.181665 
L 306.371171 135.782069 
L 306.777396 134.001749 
L 307.18362 137.257191 
L 307.589844 148.091707 
L 307.996069 166.708764 
L 308.402293 192.141901 
L 308.808518 195.193877 
L 310.027191 180.900454 
L 310.83964 175.152565 
L 311.245864 173.270513 
L 311.652088 172.049722 
L 312.058313 171.184996 
L 312.870762 170.16767 
L 313.276986 167.319159 
L 313.68321 162.181665 
L 315.308108 135.782069 
L 315.714333 134.001749 
L 316.120557 137.257191 
L 316.526781 148.091707 
L 316.933006 166.708764 
L 317.33923 192.141901 
L 317.745455 195.193877 
L 318.964128 180.900454 
L 319.776577 175.152565 
L 320.182801 173.270513 
L 320.589025 172.049722 
L 320.99525 171.184996 
L 321.807699 170.16767 
L 322.213923 167.319159 
L 322.620147 162.181665 
L 324.245045 135.782069 
L 324.651269 134.001749 
L 325.057494 137.257191 
L 325.463718 148.091707 
L 325.869943 166.708764 
L 326.276167 192.141901 
L 326.682391 195.193877 
L 327.901065 180.900454 
L 328.713514 175.152565 
L 329.119738 173.270513 
L 329.525962 172.049722 
L 329.932187 171.184996 
L 330.744636 170.16767 
L 331.15086 167.319159 
L 331.557084 162.181665 
L 333.181982 135.782069 
L 333.588206 134.001749 
L 333.994431 137.257191 
L 334.400655 148.091707 
L 334.80688 166.708764 
L 335.213104 192.141901 
L 335.619328 195.193877 
L 336.838002 180.900454 
L 337.65045 175.152565 
L 338.056675 173.270513 
L 338.462899 172.049722 
L 338.869124 171.184996 
L 339.681572 170.16767 
L 340.087797 167.319159 
L 340.494021 162.181665 
L 342.118919 135.782069 
L 342.525143 134.001749 
L 342.931368 137.257191 
L 343.337592 148.091707 
L 343.743817 166.708764 
L 344.150041 192.141901 
L 344.556265 195.193877 
L 345.774939 180.900454 
L 346.587387 175.152565 
L 346.993612 173.270513 
L 347.399836 172.049722 
L 347.806061 171.184996 
L 348.618509 170.16767 
L 349.024734 167.319159 
L 349.430958 162.181665 
L 351.055856 135.782069 
L 351.46208 134.001749 
L 351.868305 137.257191 
L 352.274529 148.091707 
L 352.680753 166.708764 
L 353.086978 192.141901 
L 353.493202 195.193877 
L 354.711876 180.900454 
L 355.524324 175.152565 
L 355.930549 173.270513 
L 356.336773 172.049722 
L 356.742998 171.184996 
L 357.555446 170.16767 
L 357.961671 167.319159 
L 358.367895 162.181665 
L 359.992793 135.782069 
L 360.399017 134.001749 
L 360.805242 137.257191 
L 361.211466 148.091707 
L 361.61769 166.708764 
L 362.023915 192.141901 
L 362.430139 195.193877 
L 363.648812 180.900454 
L 364.461261 175.152565 
L 364.867486 173.270513 
L 365.27371 172.049722 
L 365.679934 171.184996 
L 366.492383 170.16767 
L 366.898608 167.319159 
L 367.304832 162.181665 
L 368.92973 135.782069 
L 369.335954 134.001749 
L 369.742179 137.257191 
L 370.148403 148.091707 
L 370.554627 166.708764 
L 370.960852 192.141901 
L 371.367076 195.193877 
L 372.585749 180.900454 
L 373.398198 175.152565 
L 373.804423 173.270513 
L 374.210647 172.049722 
L 374.616871 171.184996 
L 375.42932 170.16767 
L 375.835545 167.319159 
L 376.241769 162.181665 
L 377.866667 135.782069 
L 378.272891 134.001749 
L 378.679115 137.257191 
L 379.08534 148.091707 
L 379.491564 166.708764 
L 379.897789 192.141901 
L 380.304013 195.193877 
L 381.522686 180.900454 
L 382.335135 175.152565 
L 382.74136 173.270513 
L 383.147584 172.049722 
L 383.553808 171.184996 
L 384.366257 170.16767 
L 384.772482 167.319159 
L 385.178706 162.181665 
L 386.803604 135.782069 
L 387.209828 134.001749 
L 387.616052 137.257191 
L 388.022277 148.091707 
L 388.428501 166.708764 
L 388.834726 192.141901 
L 389.24095 195.193877 
L 390.459623 180.900454 
L 391.272072 175.152565 
L 391.678296 173.270513 
L 392.084521 172.049722 
L 392.490745 171.184996 
L 393.303194 170.16767 
L 393.709419 167.319159 
L 394.115643 162.181665 
L 395.740541 135.782069 
L 396.146765 134.001749 
L 396.552989 137.257191 
L 396.959214 148.091707 
L 397.365438 166.708764 
L 397.771663 192.141901 
L 398.177887 195.193877 
L 399.39656 180.900454 
L 400.209009 175.152565 
L 400.615233 173.270513 
L 401.021458 172.049722 
L 401.427682 171.184996 
L 402.240131 170.16767 
L 402.646355 167.319159 
L 403.05258 162.181665 
L 404.677477 135.782069 
L 405.083702 134.001749 
L 405.489926 137.257191 
L 405.896151 148.091707 
L 406.302375 166.708764 
L 406.7086 192.141901 
L 407.114824 195.193877 
L 408.333497 180.900454 
L 409.145946 175.152565 
L 409.55217 173.270513 
L 409.958395 172.049722 
L 410.364619 171.184996 
L 411.177068 170.16767 
L 411.583292 167.319159 
L 411.989517 162.181665 
L 413.614414 135.782069 
L 414.020639 134.001749 
L 414.426863 137.257191 
L 414.833088 148.091707 
L 415.239312 166.708764 
L 415.645536 192.141901 
L 416.051761 195.193877 
L 417.270434 180.900454 
L 418.082883 175.152565 
L 418.489107 173.270513 
L 418.895332 172.049722 
L 419.301556 171.184996 
L 420.114005 170.16767 
L 420.520229 167.319159 
L 420.926454 162.181665 
L 422.551351 135.782069 
L 422.957576 134.001749 
L 423.3638 137.257191 
L 423.770025 148.091707 
L 424.176249 166.708764 
L 424.582473 192.141901 
L 424.988698 195.193877 
L 426.207371 180.900454 
L 427.01982 175.152565 
L 427.426044 173.270513 
L 427.832269 172.049722 
L 428.238493 171.184996 
L 429.050942 170.16767 
L 429.457166 167.319159 
L 429.863391 162.181665 
L 431.488288 135.782069 
L 431.894513 134.001749 
L 432.300737 137.257191 
L 432.706962 148.091707 
L 433.113186 166.708764 
L 433.51941 192.141901 
L 433.925635 195.193877 
L 435.144308 180.900454 
L 435.956757 175.152565 
L 436.362981 173.270513 
L 436.769206 172.049722 
L 437.17543 171.184996 
L 437.987879 170.16767 
L 438.394103 167.319159 
L 438.800328 162.181665 
L 440.425225 135.782069 
L 440.83145 134.001749 
L 441.237674 137.257191 
L 441.643898 148.091707 
L 442.050123 166.708764 
L 442.456347 192.141901 
L 442.862572 195.193877 
L 444.081245 180.900454 
L 444.893694 175.152565 
L 445.299918 173.270513 
L 445.706143 172.049722 
L 446.112367 171.184996 
L 446.924816 170.16767 
L 447.33104 167.319159 
L 447.737265 162.181665 
L 449.362162 135.782069 
L 449.768387 134.001749 
L 450.174611 137.257191 
L 450.580835 148.091707 
L 450.98706 166.708764 
L 451.393284 192.141901 
L 451.799509 195.193877 
L 453.018182 180.900454 
L 453.830631 175.152565 
L 454.236855 173.270513 
L 454.643079 172.049722 
L 455.049304 171.184996 
L 455.861753 170.16767 
L 456.267977 167.319159 
L 456.674201 162.181665 
L 458.299099 135.782069 
L 458.705324 134.001749 
L 459.111548 137.257191 
L 459.517772 148.091707 
L 459.923997 166.708764 
L 460.330221 192.141901 
L 460.736446 195.193877 
L 461.955119 180.900454 
L 462.767568 175.152565 
L 463.173792 173.270513 
L 463.580016 172.049722 
L 463.986241 171.184996 
L 464.79869 170.16767 
L 465.204914 167.319159 
L 465.611138 162.181665 
L 467.236036 135.782069 
L 467.64226 134.001749 
L 468.048485 137.257191 
L 468.454709 148.091707 
L 468.860934 166.708764 
L 469.267158 192.141901 
L 469.673382 195.193877 
L 470.892056 180.900454 
L 471.704505 175.152565 
L 472.110729 173.270513 
L 472.516953 172.049722 
L 472.923178 171.184996 
L 473.735627 170.16767 
L 474.141851 167.319159 
L 474.548075 162.181665 
L 476.172973 135.782069 
L 476.579197 134.001749 
L 476.985422 137.257191 
L 477.391646 148.091707 
L 477.797871 166.708764 
L 478.204095 192.141901 
L 478.610319 195.193877 
L 479.828993 180.900454 
L 480.641441 175.152565 
L 481.047666 173.270513 
L 481.45389 172.049722 
L 481.860115 171.184996 
L 482.672563 170.16767 
L 483.078788 167.319159 
L 483.485012 162.181665 
L 485.10991 135.782069 
L 485.516134 134.001749 
L 485.922359 137.257191 
L 486.328583 148.091707 
L 486.734808 166.708764 
L 487.141032 192.141901 
L 487.547256 195.193877 
L 488.76593 180.900454 
L 489.578378 175.152565 
L 489.984603 173.270513 
L 490.390827 172.049722 
L 490.797052 171.184996 
L 491.6095 170.16767 
L 492.015725 167.319159 
L 492.421949 162.181665 
L 494.046847 135.782069 
L 494.453071 134.001749 
L 494.859296 137.257191 
L 495.26552 148.091707 
L 495.671744 166.708764 
L 496.077969 192.141901 
L 496.484193 195.193877 
L 497.702867 180.900454 
L 498.109091 177.645013 
L 498.109091 177.645013 
" style="fill:none;stroke:#008000;stroke-linecap:square;stroke-width:1.5;"/>
   </g>
   <g id="patch_3">
    <path d="M 72 384.48 
L 72 51.84 
" style="fill:none;stroke:#000000;stroke-linecap:square;stroke-linejoin:miter;stroke-width:0.8;"/>
   </g>
   <g id="patch_4">
    <path d="M 518.4 384.48 
L 518.4 51.84 
" style="fill:none;stroke:#000000;stroke-linecap:square;stroke-linejoin:miter;stroke-width:0.8;"/>
   </g>
   <g id="patch_5">
    <path d="M 72 384.48 
L 518.4 384.48 
" style="fill:none;stroke:#000000;stroke-linecap:square;stroke-linejoin:miter;stroke-width:0.8;"/>
   </g>
   <g id="patch_6">
    <path d="M 72 51.84 
L 518.4 51.84 
" style="fill:none;stroke:#000000;stroke-linecap:square;stroke-linejoin:miter;stroke-width:0.8;"/>
   </g>
   <g id="text_16">
    <!-- $\Delta p^\mathrm{S}_{m}$ -->
    <g transform="translate(280.99 45.84)scale(0.14 -0.14)">
     <use transform="translate(0 0.765625)" xlink:href="#DejaVuSans-394"/>
     <use transform="translate(68.408203 0.765625)" xlink:href="#DejaVuSans-Oblique-70"/>
     <use transform="translate(136.534661 39.046875)scale(0.7)" xlink:href="#DejaVuSans-53"/>
     <use transform="translate(131.884766 -26.578125)scale(0.7)" xlink:href="#DejaVuSans-Oblique-6d"/>
    </g>
   </g>
   <g id="legend_1">
    <g id="patch_7">
     <path d="M 461 127.54 
L 511.4 127.54 
Q 513.4 127.54 513.4 125.54 
L 513.4 58.84 
Q 513.4 56.84 511.4 56.84 
L 461 56.84 
Q 459 56.84 459 58.84 
L 459 125.54 
Q 459 127.54 461 127.54 
z
" style="fill:#ffffff;opacity:0.8;stroke:#cccccc;stroke-linejoin:miter;"/>
    </g>
    <g id="line2d_31">
     <path d="M 463 66.44 
L 483 66.44 
" style="fill:none;stroke:#bf00bf;stroke-linecap:square;stroke-width:1.5;"/>
    </g>
    <g id="line2d_32"/>
    <g id="text_17">
     <!-- $\Delta p^\mathrm{S}_{1}$ -->
     <g transform="translate(491 69.94)scale(0.1 -0.1)">
      <use transform="translate(0 0.765625)" xlink:href="#DejaVuSans-394"/>
      <use transform="translate(68.408203 0.765625)" xlink:href="#DejaVuSans-Oblique-70"/>
      <use transform="translate(136.534661 39.046875)scale(0.7)" xlink:href="#DejaVuSans-53"/>
      <use transform="translate(131.884766 -26.578125)scale(0.7)" xlink:href="#DejaVuSans-31"/>
     </g>
    </g>
    <g id="line2d_33">
     <path d="M 463 83.34 
L 483 83.34 
" style="fill:none;stroke:#00bfbf;stroke-linecap:square;stroke-width:1.5;"/>
    </g>
    <g id="line2d_34"/>
    <g id="text_18">
     <!-- $\Delta p^\mathrm{S}_{2}$ -->
     <g transform="translate(491 86.84)scale(0.1 -0.1)">
      <use transform="translate(0 0.765625)" xlink:href="#DejaVuSans-394"/>
      <use transform="translate(68.408203 0.765625)" xlink:href="#DejaVuSans-Oblique-70"/>
      <use transform="translate(136.534661 39.046875)scale(0.7)" xlink:href="#DejaVuSans-53"/>
      <use transform="translate(131.884766 -26.578125)scale(0.7)" xlink:href="#DejaVuSans-32"/>
     </g>
    </g>
    <g id="line2d_35">
     <path d="M 463 100.24 
L 483 100.24 
" style="fill:none;stroke:#ff0000;stroke-linecap:square;stroke-width:1.5;"/>
    </g>
    <g id="line2d_36"/>
    <g id="text_19">
     <!-- $\Delta p^\mathrm{S}_{3}$ -->
     <g transform="translate(491 103.74)scale(0.1 -0.1)">
      <use transform="translate(0 0.765625)" xlink:href="#DejaVuSans-394"/>
      <use transform="translate(68.408203 0.765625)" xlink:href="#DejaVuSans-Oblique-70"/>
      <use transform="translate(136.534661 39.046875)scale(0.7)" xlink:href="#DejaVuSans-53"/>
      <use transform="translate(131.884766 -26.578125)scale(0.7)" xlink:href="#DejaVuSans-33"/>
     </g>
    </g>
    <g id="line2d_37">
     <path d="M 463 117.24 
L 483 117.24 
" style="fill:none;stroke:#008000;stroke-linecap:square;stroke-width:1.5;"/>
    </g>
    <g id="line2d_38"/>
    <g id="text_20">
     <!-- $\Delta p^\mathrm{S}_{4}$ -->
     <g transform="translate(491 120.74)scale(0.1 -0.1)">
      <use transform="translate(0 0.765625)" xlink:href="#DejaVuSans-394"/>
      <use transform="translate(68.408203 0.765625)" xlink:href="#DejaVuSans-Oblique-70"/>
      <use transform="translate(136.534661 39.046875)scale(0.7)" xlink:href="#DejaVuSans-53"/>
      <use transform="translate(131.884766 -26.578125)scale(0.7)" xlink:href="#DejaVuSans-34"/>
     </g>
    </g>
   </g>
  </g>
 </g>
 <defs>
  <clipPath id="p5e7352de60">
   <rect height="332.64" width="446.4" x="72" y="51.84"/>
  </clipPath>
 </defs>
</svg>
