<?xml version="1.0" encoding="utf-8" standalone="no"?>
<!DOCTYPE svg PUBLIC "-//W3C//DTD SVG 1.1//EN"
  "http://www.w3.org/Graphics/SVG/1.1/DTD/svg11.dtd">
<!-- Created with matplotlib (http://matplotlib.org/) -->
<svg height="432pt" version="1.1" viewBox="0 0 576 432" width="576pt" xmlns="http://www.w3.org/2000/svg" xmlns:xlink="http://www.w3.org/1999/xlink">
 <defs>
  <style type="text/css">
*{stroke-linecap:butt;stroke-linejoin:round;}
  </style>
 </defs>
 <g id="figure_1">
  <g id="patch_1">
   <path d="M 0 432 
L 576 432 
L 576 0 
L 0 0 
z
" style="fill:#ffffff;"/>
  </g>
  <g id="axes_1">
   <g id="patch_2">
    <path d="M 72 384.48 
L 518.4 384.48 
L 518.4 51.84 
L 72 51.84 
z
" style="fill:#ffffff;"/>
   </g>
   <g id="matplotlib.axis_1">
    <g id="xtick_1">
     <g id="line2d_1">
      <path clip-path="url(#pfac90f7f26)" d="M 92.290909 384.48 
L 92.290909 51.84 
" style="fill:none;stroke:#b0b0b0;stroke-dasharray:5.12,1.28,0.8,1.28;stroke-dashoffset:0;stroke-width:0.8;"/>
     </g>
     <g id="line2d_2">
      <defs>
       <path d="M 0 0 
L 0 3.5 
" id="m14b08e5a71" style="stroke:#000000;stroke-width:0.8;"/>
      </defs>
      <g>
       <use style="stroke:#000000;stroke-width:0.8;" x="92.290909" xlink:href="#m14b08e5a71" y="384.48"/>
      </g>
     </g>
     <g id="text_1">
      <text style="font-family:DejaVu Sans;font-size:10px;font-style:normal;font-weight:400;text-anchor:middle;" transform="rotate(-0, 92.290909, 399.078438)" x="92.290909" y="399.078438">0</text>
     </g>
    </g>
    <g id="xtick_2">
     <g id="line2d_3">
      <path clip-path="url(#pfac90f7f26)" d="M 164.244487 384.48 
L 164.244487 51.84 
" style="fill:none;stroke:#b0b0b0;stroke-dasharray:5.12,1.28,0.8,1.28;stroke-dashoffset:0;stroke-width:0.8;"/>
     </g>
     <g id="line2d_4">
      <g>
       <use style="stroke:#000000;stroke-width:0.8;" x="164.244487" xlink:href="#m14b08e5a71" y="384.48"/>
      </g>
     </g>
     <g id="text_2">
      <text style="font-family:DejaVu Sans;font-size:10px;font-style:normal;font-weight:400;text-anchor:middle;" transform="rotate(-0, 164.244487, 399.078438)" x="164.244487" y="399.078438">200</text>
     </g>
    </g>
    <g id="xtick_3">
     <g id="line2d_5">
      <path clip-path="url(#pfac90f7f26)" d="M 236.198066 384.48 
L 236.198066 51.84 
" style="fill:none;stroke:#b0b0b0;stroke-dasharray:5.12,1.28,0.8,1.28;stroke-dashoffset:0;stroke-width:0.8;"/>
     </g>
     <g id="line2d_6">
      <g>
       <use style="stroke:#000000;stroke-width:0.8;" x="236.198066" xlink:href="#m14b08e5a71" y="384.48"/>
      </g>
     </g>
     <g id="text_3">
      <text style="font-family:DejaVu Sans;font-size:10px;font-style:normal;font-weight:400;text-anchor:middle;" transform="rotate(-0, 236.198066, 399.078438)" x="236.198066" y="399.078438">400</text>
     </g>
    </g>
    <g id="xtick_4">
     <g id="line2d_7">
      <path clip-path="url(#pfac90f7f26)" d="M 308.151644 384.48 
L 308.151644 51.84 
" style="fill:none;stroke:#b0b0b0;stroke-dasharray:5.12,1.28,0.8,1.28;stroke-dashoffset:0;stroke-width:0.8;"/>
     </g>
     <g id="line2d_8">
      <g>
       <use style="stroke:#000000;stroke-width:0.8;" x="308.151644" xlink:href="#m14b08e5a71" y="384.48"/>
      </g>
     </g>
     <g id="text_4">
      <text style="font-family:DejaVu Sans;font-size:10px;font-style:normal;font-weight:400;text-anchor:middle;" transform="rotate(-0, 308.151644, 399.078438)" x="308.151644" y="399.078438">600</text>
     </g>
    </g>
    <g id="xtick_5">
     <g id="line2d_9">
      <path clip-path="url(#pfac90f7f26)" d="M 380.105222 384.48 
L 380.105222 51.84 
" style="fill:none;stroke:#b0b0b0;stroke-dasharray:5.12,1.28,0.8,1.28;stroke-dashoffset:0;stroke-width:0.8;"/>
     </g>
     <g id="line2d_10">
      <g>
       <use style="stroke:#000000;stroke-width:0.8;" x="380.105222" xlink:href="#m14b08e5a71" y="384.48"/>
      </g>
     </g>
     <g id="text_5">
      <text style="font-family:DejaVu Sans;font-size:10px;font-style:normal;font-weight:400;text-anchor:middle;" transform="rotate(-0, 380.105222, 399.078438)" x="380.105222" y="399.078438">800</text>
     </g>
    </g>
    <g id="xtick_6">
     <g id="line2d_11">
      <path clip-path="url(#pfac90f7f26)" d="M 452.058801 384.48 
L 452.058801 51.84 
" style="fill:none;stroke:#b0b0b0;stroke-dasharray:5.12,1.28,0.8,1.28;stroke-dashoffset:0;stroke-width:0.8;"/>
     </g>
     <g id="line2d_12">
      <g>
       <use style="stroke:#000000;stroke-width:0.8;" x="452.058801" xlink:href="#m14b08e5a71" y="384.48"/>
      </g>
     </g>
     <g id="text_6">
      <text style="font-family:DejaVu Sans;font-size:10px;font-style:normal;font-weight:400;text-anchor:middle;" transform="rotate(-0, 452.058801, 399.078438)" x="452.058801" y="399.078438">1000</text>
     </g>
    </g>
    <g id="text_7">
     <text style="font-family:DejaVu Sans;font-size:14px;font-style:normal;font-weight:400;text-anchor:middle;" transform="rotate(-0, 295.2, 415.795938)" x="295.2" y="415.795938">Iteration</text>
    </g>
   </g>
   <g id="matplotlib.axis_2">
    <g id="ytick_1">
     <g id="line2d_13">
      <path clip-path="url(#pfac90f7f26)" d="M 72 366.902763 
L 518.4 366.902763 
" style="fill:none;stroke:#b0b0b0;stroke-dasharray:5.12,1.28,0.8,1.28;stroke-dashoffset:0;stroke-width:0.8;"/>
     </g>
     <g id="line2d_14">
      <defs>
       <path d="M 0 0 
L -3.5 0 
" id="m7daaa4f0b2" style="stroke:#000000;stroke-width:0.8;"/>
      </defs>
      <g>
       <use style="stroke:#000000;stroke-width:0.8;" x="72" xlink:href="#m7daaa4f0b2" y="366.902763"/>
      </g>
     </g>
     <g id="text_8">
      <text style="font-family:DejaVu Sans;font-size:10px;font-style:normal;font-weight:400;text-anchor:end;" transform="rotate(-0, 65, 370.701982)" x="65" y="370.701982">0.0</text>
     </g>
    </g>
    <g id="ytick_2">
     <g id="line2d_15">
      <path clip-path="url(#pfac90f7f26)" d="M 72 323.457983 
L 518.4 323.457983 
" style="fill:none;stroke:#b0b0b0;stroke-dasharray:5.12,1.28,0.8,1.28;stroke-dashoffset:0;stroke-width:0.8;"/>
     </g>
     <g id="line2d_16">
      <g>
       <use style="stroke:#000000;stroke-width:0.8;" x="72" xlink:href="#m7daaa4f0b2" y="323.457983"/>
      </g>
     </g>
     <g id="text_9">
      <text style="font-family:DejaVu Sans;font-size:10px;font-style:normal;font-weight:400;text-anchor:end;" transform="rotate(-0, 65, 327.257202)" x="65" y="327.257202">2.5</text>
     </g>
    </g>
    <g id="ytick_3">
     <g id="line2d_17">
      <path clip-path="url(#pfac90f7f26)" d="M 72 280.013203 
L 518.4 280.013203 
" style="fill:none;stroke:#b0b0b0;stroke-dasharray:5.12,1.28,0.8,1.28;stroke-dashoffset:0;stroke-width:0.8;"/>
     </g>
     <g id="line2d_18">
      <g>
       <use style="stroke:#000000;stroke-width:0.8;" x="72" xlink:href="#m7daaa4f0b2" y="280.013203"/>
      </g>
     </g>
     <g id="text_10">
      <text style="font-family:DejaVu Sans;font-size:10px;font-style:normal;font-weight:400;text-anchor:end;" transform="rotate(-0, 65, 283.812421)" x="65" y="283.812421">5.0</text>
     </g>
    </g>
    <g id="ytick_4">
     <g id="line2d_19">
      <path clip-path="url(#pfac90f7f26)" d="M 72 236.568422 
L 518.4 236.568422 
" style="fill:none;stroke:#b0b0b0;stroke-dasharray:5.12,1.28,0.8,1.28;stroke-dashoffset:0;stroke-width:0.8;"/>
     </g>
     <g id="line2d_20">
      <g>
       <use style="stroke:#000000;stroke-width:0.8;" x="72" xlink:href="#m7daaa4f0b2" y="236.568422"/>
      </g>
     </g>
     <g id="text_11">
      <text style="font-family:DejaVu Sans;font-size:10px;font-style:normal;font-weight:400;text-anchor:end;" transform="rotate(-0, 65, 240.367641)" x="65" y="240.367641">7.5</text>
     </g>
    </g>
    <g id="ytick_5">
     <g id="line2d_21">
      <path clip-path="url(#pfac90f7f26)" d="M 72 193.123642 
L 518.4 193.123642 
" style="fill:none;stroke:#b0b0b0;stroke-dasharray:5.12,1.28,0.8,1.28;stroke-dashoffset:0;stroke-width:0.8;"/>
     </g>
     <g id="line2d_22">
      <g>
       <use style="stroke:#000000;stroke-width:0.8;" x="72" xlink:href="#m7daaa4f0b2" y="193.123642"/>
      </g>
     </g>
     <g id="text_12">
      <text style="font-family:DejaVu Sans;font-size:10px;font-style:normal;font-weight:400;text-anchor:end;" transform="rotate(-0, 65, 196.922861)" x="65" y="196.922861">10.0</text>
     </g>
    </g>
    <g id="ytick_6">
     <g id="line2d_23">
      <path clip-path="url(#pfac90f7f26)" d="M 72 149.678862 
L 518.4 149.678862 
" style="fill:none;stroke:#b0b0b0;stroke-dasharray:5.12,1.28,0.8,1.28;stroke-dashoffset:0;stroke-width:0.8;"/>
     </g>
     <g id="line2d_24">
      <g>
       <use style="stroke:#000000;stroke-width:0.8;" x="72" xlink:href="#m7daaa4f0b2" y="149.678862"/>
      </g>
     </g>
     <g id="text_13">
      <text style="font-family:DejaVu Sans;font-size:10px;font-style:normal;font-weight:400;text-anchor:end;" transform="rotate(-0, 65, 153.47808)" x="65" y="153.47808">12.5</text>
     </g>
    </g>
    <g id="ytick_7">
     <g id="line2d_25">
      <path clip-path="url(#pfac90f7f26)" d="M 72 106.234081 
L 518.4 106.234081 
" style="fill:none;stroke:#b0b0b0;stroke-dasharray:5.12,1.28,0.8,1.28;stroke-dashoffset:0;stroke-width:0.8;"/>
     </g>
     <g id="line2d_26">
      <g>
       <use style="stroke:#000000;stroke-width:0.8;" x="72" xlink:href="#m7daaa4f0b2" y="106.234081"/>
      </g>
     </g>
     <g id="text_14">
      <text style="font-family:DejaVu Sans;font-size:10px;font-style:normal;font-weight:400;text-anchor:end;" transform="rotate(-0, 65, 110.0333)" x="65" y="110.0333">15.0</text>
     </g>
    </g>
    <g id="ytick_8">
     <g id="line2d_27">
      <path clip-path="url(#pfac90f7f26)" d="M 72 62.789301 
L 518.4 62.789301 
" style="fill:none;stroke:#b0b0b0;stroke-dasharray:5.12,1.28,0.8,1.28;stroke-dashoffset:0;stroke-width:0.8;"/>
     </g>
     <g id="line2d_28">
      <g>
       <use style="stroke:#000000;stroke-width:0.8;" x="72" xlink:href="#m7daaa4f0b2" y="62.789301"/>
      </g>
     </g>
     <g id="text_15">
      <text style="font-family:DejaVu Sans;font-size:10px;font-style:normal;font-weight:400;text-anchor:end;" transform="rotate(-0, 65, 66.58852)" x="65" y="66.58852">17.5</text>
     </g>
    </g>
    <g id="text_16">
     <text style="font-family:DejaVu Sans;font-size:14px;font-style:normal;font-weight:400;text-anchor:middle;" transform="rotate(-90, 35.433437, 218.16)" x="35.433437" y="218.16">$\partial \mathcal{L}/ \partial p^\mathrm{S}_{m}[m.u/W]$</text>
    </g>
   </g>
   <g id="line2d_29">
    <path clip-path="url(#pfac90f7f26)" d="M 92.290909 366.902763 
L 92.650677 297.391115 
L 93.010445 332.146939 
L 93.370213 349.524851 
L 93.729981 358.213807 
L 94.089749 363.102214 
L 94.449516 365.844448 
L 94.809284 367.378918 
L 95.169052 368.240862 
L 95.52882 368.727444 
L 96.248356 369.165367 
L 97.32766 369.340884 
L 99.846035 369.330458 
L 107.041393 369.229666 
L 115.316054 369.220977 
L 116.03559 366.902763 
L 494.87118 366.902763 
L 494.87118 366.902763 
" style="fill:none;stroke:#bf00bf;stroke-linecap:square;stroke-width:1.5;"/>
   </g>
   <g id="line2d_30">
    <path clip-path="url(#pfac90f7f26)" d="M 92.290909 366.902763 
L 92.650677 66.96 
L 93.010445 216.931382 
L 93.370213 291.917072 
L 93.729981 330.278813 
L 94.089749 349.458815 
L 94.449516 359.091392 
L 94.809284 363.960683 
L 95.169052 366.447462 
L 95.52882 367.735165 
L 95.888588 368.414642 
L 96.248356 368.779578 
L 96.967892 369.095856 
L 98.047195 369.222714 
L 101.285106 369.24183 
L 115.675822 369.219239 
L 117.474662 367.77861 
L 118.553965 367.434527 
L 120.352805 367.163432 
L 122.87118 366.939257 
L 123.230948 367.06264 
L 123.950484 366.313652 
L 124.670019 365.952191 
L 125.749323 365.807955 
L 127.90793 365.86704 
L 132.225145 366.167678 
L 135.103288 366.525663 
L 138.700967 366.722033 
L 145.896325 366.857581 
L 161.726112 366.901025 
L 165.683559 366.815874 
L 167.122631 366.569107 
L 168.92147 366.609077 
L 175.397292 367.123463 
L 180.074275 367.382394 
L 186.190329 367.483185 
L 195.904062 367.37718 
L 236.917602 366.690753 
L 266.058801 366.800234 
L 320.023985 366.953159 
L 355.641006 366.890599 
L 498.109091 366.901025 
L 498.109091 366.901025 
" style="fill:none;stroke:#00bfbf;stroke-linecap:square;stroke-width:1.5;"/>
   </g>
   <g id="line2d_31">
    <path clip-path="url(#pfac90f7f26)" d="M 92.290909 366.902763 
L 93.729981 366.902763 
L 94.809284 368.103577 
L 95.52882 368.49458 
L 96.608124 368.744822 
L 99.126499 368.996802 
L 103.083946 369.161892 
L 111.358607 369.217501 
L 116.395358 369.146252 
L 117.834429 368.5415 
L 119.633269 367.870713 
L 121.432108 367.422363 
L 123.230948 367.18081 
L 123.590716 367.431052 
L 124.670019 367.61352 
L 134.383752 368.22696 
L 139.060735 368.619701 
L 144.457253 368.805645 
L 154.530754 368.892534 
L 164.964023 368.859516 
L 166.043327 368.162662 
L 167.122631 367.754281 
L 168.561702 367.488399 
L 171.799613 367.21209 
L 176.476596 367.045262 
L 188.708704 366.857581 
L 206.697099 366.791545 
L 246.991103 366.901025 
L 276.49207 366.934043 
L 498.109091 366.902763 
L 498.109091 366.902763 
" style="fill:none;stroke:#ff0000;stroke-linecap:square;stroke-width:1.5;"/>
   </g>
   <g id="line2d_32">
    <path clip-path="url(#pfac90f7f26)" d="M 92.290909 366.902763 
L 92.650677 196.251666 
L 93.010445 281.577215 
L 93.370213 324.239989 
L 93.729981 346.440272 
L 94.089749 357.539544 
L 94.449516 363.076147 
L 94.809284 365.825333 
L 95.169052 367.182548 
L 95.52882 367.853335 
L 95.888588 368.192204 
L 96.608124 368.475464 
L 98.406963 368.755249 
L 101.644874 369.054149 
L 105.962089 369.184483 
L 115.675822 369.219239 
L 116.755126 369.182745 
L 117.834429 368.833449 
L 120.352805 367.816841 
L 122.151644 367.349376 
L 123.590716 367.113036 
L 125.029787 367.507515 
L 126.828627 367.669129 
L 134.74352 368.186991 
L 139.780271 368.617963 
L 145.536557 368.812596 
L 159.207737 368.901223 
L 164.244487 368.904699 
L 164.604255 368.718755 
L 164.964023 366.902763 
L 498.109091 366.902763 
L 498.109091 366.902763 
" style="fill:none;stroke:#008000;stroke-linecap:square;stroke-width:1.5;"/>
   </g>
   <g id="patch_3">
    <path d="M 72 384.48 
L 72 51.84 
" style="fill:none;stroke:#000000;stroke-linecap:square;stroke-linejoin:miter;stroke-width:0.8;"/>
   </g>
   <g id="patch_4">
    <path d="M 518.4 384.48 
L 518.4 51.84 
" style="fill:none;stroke:#000000;stroke-linecap:square;stroke-linejoin:miter;stroke-width:0.8;"/>
   </g>
   <g id="patch_5">
    <path d="M 72 384.48 
L 518.4 384.48 
" style="fill:none;stroke:#000000;stroke-linecap:square;stroke-linejoin:miter;stroke-width:0.8;"/>
   </g>
   <g id="patch_6">
    <path d="M 72 51.84 
L 518.4 51.84 
" style="fill:none;stroke:#000000;stroke-linecap:square;stroke-linejoin:miter;stroke-width:0.8;"/>
   </g>
   <g id="legend_1">
    <g id="patch_7">
     <path d="M 219.21875 164.665 
L 511.4 164.665 
Q 513.4 164.665 513.4 162.665 
L 513.4 58.84 
Q 513.4 56.84 511.4 56.84 
L 219.21875 56.84 
Q 217.21875 56.84 217.21875 58.84 
L 217.21875 162.665 
Q 217.21875 164.665 219.21875 164.665 
z
" style="fill:#ffffff;opacity:0.8;stroke:#cccccc;stroke-linejoin:miter;"/>
    </g>
    <g id="line2d_33">
     <path d="M 221.21875 64.938437 
L 241.21875 64.938437 
" style="fill:none;stroke:#bf00bf;stroke-linecap:square;stroke-width:1.5;"/>
    </g>
    <g id="line2d_34"/>
    <g id="text_17">
     <text style="font-family:DejaVu Sans;font-size:10px;font-style:normal;font-weight:400;text-anchor:start;" transform="rotate(-0, 249.21875, 68.438437)" x="249.21875" y="68.438437">$\partial \mathcal{L}/ \partial p^\mathrm{S}_{1}$</text>
    </g>
    <g id="line2d_35">
     <path d="M 221.21875 94.894687 
L 241.21875 94.894687 
" style="fill:none;stroke:#00bfbf;stroke-linecap:square;stroke-width:1.5;"/>
    </g>
    <g id="line2d_36"/>
    <g id="text_18">
     <text style="font-family:DejaVu Sans;font-size:10px;font-style:normal;font-weight:400;text-anchor:start;" transform="rotate(-0, 249.21875, 98.394687)" x="249.21875" y="98.394687">$\partial \mathcal{L}/ \partial p^\mathrm{S}_{2}$</text>
    </g>
    <g id="line2d_37">
     <path d="M 221.21875 124.850937 
L 241.21875 124.850937 
" style="fill:none;stroke:#ff0000;stroke-linecap:square;stroke-width:1.5;"/>
    </g>
    <g id="line2d_38"/>
    <g id="text_19">
     <text style="font-family:DejaVu Sans;font-size:10px;font-style:normal;font-weight:400;text-anchor:start;" transform="rotate(-0, 249.21875, 128.350937)" x="249.21875" y="128.350937">$\partial \mathcal{L}/ \partial p^\mathrm{S}_{3}$</text>
    </g>
    <g id="line2d_39">
     <path d="M 221.21875 154.807187 
L 241.21875 154.807187 
" style="fill:none;stroke:#008000;stroke-linecap:square;stroke-width:1.5;"/>
    </g>
    <g id="line2d_40"/>
    <g id="text_20">
     <text style="font-family:DejaVu Sans;font-size:10px;font-style:normal;font-weight:400;text-anchor:start;" transform="rotate(-0, 249.21875, 158.307187)" x="249.21875" y="158.307187">$\partial \mathcal{L}/ \partial p^\mathrm{S}_{4}$</text>
    </g>
   </g>
  </g>
 </g>
 <defs>
  <clipPath id="pfac90f7f26">
   <rect height="332.64" width="446.4" x="72" y="51.84"/>
  </clipPath>
 </defs>
</svg>
