<?xml version="1.0" encoding="utf-8" standalone="no"?>
<!DOCTYPE svg PUBLIC "-//W3C//DTD SVG 1.1//EN"
  "http://www.w3.org/Graphics/SVG/1.1/DTD/svg11.dtd">
<!-- Created with matplotlib (http://matplotlib.org/) -->
<svg height="432pt" version="1.1" viewBox="0 0 576 432" width="576pt" xmlns="http://www.w3.org/2000/svg" xmlns:xlink="http://www.w3.org/1999/xlink">
 <defs>
  <style type="text/css">
*{stroke-linecap:butt;stroke-linejoin:round;}
  </style>
 </defs>
 <g id="figure_1">
  <g id="patch_1">
   <path d="M 0 432 
L 576 432 
L 576 0 
L 0 0 
z
" style="fill:#ffffff;"/>
  </g>
  <g id="axes_1">
   <g id="patch_2">
    <path d="M 72 384.48 
L 518.4 384.48 
L 518.4 51.84 
L 72 51.84 
z
" style="fill:#ffffff;"/>
   </g>
   <g id="matplotlib.axis_1">
    <g id="xtick_1">
     <g id="line2d_1">
      <path clip-path="url(#pf603c6cc99)" d="M 92.290909 384.48 
L 92.290909 51.84 
" style="fill:none;stroke:#b0b0b0;stroke-dasharray:5.12,1.28,0.8,1.28;stroke-dashoffset:0;stroke-width:0.8;"/>
     </g>
     <g id="line2d_2">
      <defs>
       <path d="M 0 0 
L 0 3.5 
" id="mc883812124" style="stroke:#000000;stroke-width:0.8;"/>
      </defs>
      <g>
       <use style="stroke:#000000;stroke-width:0.8;" x="92.290909" xlink:href="#mc883812124" y="384.48"/>
      </g>
     </g>
     <g id="text_1">
      <!-- 0 -->
      <defs>
       <path d="M 31.78125 66.40625 
Q 24.171875 66.40625 20.328125 58.90625 
Q 16.5 51.421875 16.5 36.375 
Q 16.5 21.390625 20.328125 13.890625 
Q 24.171875 6.390625 31.78125 6.390625 
Q 39.453125 6.390625 43.28125 13.890625 
Q 47.125 21.390625 47.125 36.375 
Q 47.125 51.421875 43.28125 58.90625 
Q 39.453125 66.40625 31.78125 66.40625 
z
M 31.78125 74.21875 
Q 44.046875 74.21875 50.515625 64.515625 
Q 56.984375 54.828125 56.984375 36.375 
Q 56.984375 17.96875 50.515625 8.265625 
Q 44.046875 -1.421875 31.78125 -1.421875 
Q 19.53125 -1.421875 13.0625 8.265625 
Q 6.59375 17.96875 6.59375 36.375 
Q 6.59375 54.828125 13.0625 64.515625 
Q 19.53125 74.21875 31.78125 74.21875 
z
" id="DejaVuSans-30"/>
      </defs>
      <g transform="translate(89.109659 399.078438)scale(0.1 -0.1)">
       <use xlink:href="#DejaVuSans-30"/>
      </g>
     </g>
    </g>
    <g id="xtick_2">
     <g id="line2d_3">
      <path clip-path="url(#pf603c6cc99)" d="M 173.53579 384.48 
L 173.53579 51.84 
" style="fill:none;stroke:#b0b0b0;stroke-dasharray:5.12,1.28,0.8,1.28;stroke-dashoffset:0;stroke-width:0.8;"/>
     </g>
     <g id="line2d_4">
      <g>
       <use style="stroke:#000000;stroke-width:0.8;" x="173.53579" xlink:href="#mc883812124" y="384.48"/>
      </g>
     </g>
     <g id="text_2">
      <!-- 200 -->
      <defs>
       <path d="M 19.1875 8.296875 
L 53.609375 8.296875 
L 53.609375 0 
L 7.328125 0 
L 7.328125 8.296875 
Q 12.9375 14.109375 22.625 23.890625 
Q 32.328125 33.6875 34.8125 36.53125 
Q 39.546875 41.84375 41.421875 45.53125 
Q 43.3125 49.21875 43.3125 52.78125 
Q 43.3125 58.59375 39.234375 62.25 
Q 35.15625 65.921875 28.609375 65.921875 
Q 23.96875 65.921875 18.8125 64.3125 
Q 13.671875 62.703125 7.8125 59.421875 
L 7.8125 69.390625 
Q 13.765625 71.78125 18.9375 73 
Q 24.125 74.21875 28.421875 74.21875 
Q 39.75 74.21875 46.484375 68.546875 
Q 53.21875 62.890625 53.21875 53.421875 
Q 53.21875 48.921875 51.53125 44.890625 
Q 49.859375 40.875 45.40625 35.40625 
Q 44.1875 33.984375 37.640625 27.21875 
Q 31.109375 20.453125 19.1875 8.296875 
z
" id="DejaVuSans-32"/>
      </defs>
      <g transform="translate(163.99204 399.078438)scale(0.1 -0.1)">
       <use xlink:href="#DejaVuSans-32"/>
       <use x="63.623047" xlink:href="#DejaVuSans-30"/>
       <use x="127.246094" xlink:href="#DejaVuSans-30"/>
      </g>
     </g>
    </g>
    <g id="xtick_3">
     <g id="line2d_5">
      <path clip-path="url(#pf603c6cc99)" d="M 254.780672 384.48 
L 254.780672 51.84 
" style="fill:none;stroke:#b0b0b0;stroke-dasharray:5.12,1.28,0.8,1.28;stroke-dashoffset:0;stroke-width:0.8;"/>
     </g>
     <g id="line2d_6">
      <g>
       <use style="stroke:#000000;stroke-width:0.8;" x="254.780672" xlink:href="#mc883812124" y="384.48"/>
      </g>
     </g>
     <g id="text_3">
      <!-- 400 -->
      <defs>
       <path d="M 37.796875 64.3125 
L 12.890625 25.390625 
L 37.796875 25.390625 
z
M 35.203125 72.90625 
L 47.609375 72.90625 
L 47.609375 25.390625 
L 58.015625 25.390625 
L 58.015625 17.1875 
L 47.609375 17.1875 
L 47.609375 0 
L 37.796875 0 
L 37.796875 17.1875 
L 4.890625 17.1875 
L 4.890625 26.703125 
z
" id="DejaVuSans-34"/>
      </defs>
      <g transform="translate(245.236922 399.078438)scale(0.1 -0.1)">
       <use xlink:href="#DejaVuSans-34"/>
       <use x="63.623047" xlink:href="#DejaVuSans-30"/>
       <use x="127.246094" xlink:href="#DejaVuSans-30"/>
      </g>
     </g>
    </g>
    <g id="xtick_4">
     <g id="line2d_7">
      <path clip-path="url(#pf603c6cc99)" d="M 336.025553 384.48 
L 336.025553 51.84 
" style="fill:none;stroke:#b0b0b0;stroke-dasharray:5.12,1.28,0.8,1.28;stroke-dashoffset:0;stroke-width:0.8;"/>
     </g>
     <g id="line2d_8">
      <g>
       <use style="stroke:#000000;stroke-width:0.8;" x="336.025553" xlink:href="#mc883812124" y="384.48"/>
      </g>
     </g>
     <g id="text_4">
      <!-- 600 -->
      <defs>
       <path d="M 33.015625 40.375 
Q 26.375 40.375 22.484375 35.828125 
Q 18.609375 31.296875 18.609375 23.390625 
Q 18.609375 15.53125 22.484375 10.953125 
Q 26.375 6.390625 33.015625 6.390625 
Q 39.65625 6.390625 43.53125 10.953125 
Q 47.40625 15.53125 47.40625 23.390625 
Q 47.40625 31.296875 43.53125 35.828125 
Q 39.65625 40.375 33.015625 40.375 
z
M 52.59375 71.296875 
L 52.59375 62.3125 
Q 48.875 64.0625 45.09375 64.984375 
Q 41.3125 65.921875 37.59375 65.921875 
Q 27.828125 65.921875 22.671875 59.328125 
Q 17.53125 52.734375 16.796875 39.40625 
Q 19.671875 43.65625 24.015625 45.921875 
Q 28.375 48.1875 33.59375 48.1875 
Q 44.578125 48.1875 50.953125 41.515625 
Q 57.328125 34.859375 57.328125 23.390625 
Q 57.328125 12.15625 50.6875 5.359375 
Q 44.046875 -1.421875 33.015625 -1.421875 
Q 20.359375 -1.421875 13.671875 8.265625 
Q 6.984375 17.96875 6.984375 36.375 
Q 6.984375 53.65625 15.1875 63.9375 
Q 23.390625 74.21875 37.203125 74.21875 
Q 40.921875 74.21875 44.703125 73.484375 
Q 48.484375 72.75 52.59375 71.296875 
z
" id="DejaVuSans-36"/>
      </defs>
      <g transform="translate(326.481803 399.078438)scale(0.1 -0.1)">
       <use xlink:href="#DejaVuSans-36"/>
       <use x="63.623047" xlink:href="#DejaVuSans-30"/>
       <use x="127.246094" xlink:href="#DejaVuSans-30"/>
      </g>
     </g>
    </g>
    <g id="xtick_5">
     <g id="line2d_9">
      <path clip-path="url(#pf603c6cc99)" d="M 417.270434 384.48 
L 417.270434 51.84 
" style="fill:none;stroke:#b0b0b0;stroke-dasharray:5.12,1.28,0.8,1.28;stroke-dashoffset:0;stroke-width:0.8;"/>
     </g>
     <g id="line2d_10">
      <g>
       <use style="stroke:#000000;stroke-width:0.8;" x="417.270434" xlink:href="#mc883812124" y="384.48"/>
      </g>
     </g>
     <g id="text_5">
      <!-- 800 -->
      <defs>
       <path d="M 31.78125 34.625 
Q 24.75 34.625 20.71875 30.859375 
Q 16.703125 27.09375 16.703125 20.515625 
Q 16.703125 13.921875 20.71875 10.15625 
Q 24.75 6.390625 31.78125 6.390625 
Q 38.8125 6.390625 42.859375 10.171875 
Q 46.921875 13.96875 46.921875 20.515625 
Q 46.921875 27.09375 42.890625 30.859375 
Q 38.875 34.625 31.78125 34.625 
z
M 21.921875 38.8125 
Q 15.578125 40.375 12.03125 44.71875 
Q 8.5 49.078125 8.5 55.328125 
Q 8.5 64.0625 14.71875 69.140625 
Q 20.953125 74.21875 31.78125 74.21875 
Q 42.671875 74.21875 48.875 69.140625 
Q 55.078125 64.0625 55.078125 55.328125 
Q 55.078125 49.078125 51.53125 44.71875 
Q 48 40.375 41.703125 38.8125 
Q 48.828125 37.15625 52.796875 32.3125 
Q 56.78125 27.484375 56.78125 20.515625 
Q 56.78125 9.90625 50.3125 4.234375 
Q 43.84375 -1.421875 31.78125 -1.421875 
Q 19.734375 -1.421875 13.25 4.234375 
Q 6.78125 9.90625 6.78125 20.515625 
Q 6.78125 27.484375 10.78125 32.3125 
Q 14.796875 37.15625 21.921875 38.8125 
z
M 18.3125 54.390625 
Q 18.3125 48.734375 21.84375 45.5625 
Q 25.390625 42.390625 31.78125 42.390625 
Q 38.140625 42.390625 41.71875 45.5625 
Q 45.3125 48.734375 45.3125 54.390625 
Q 45.3125 60.0625 41.71875 63.234375 
Q 38.140625 66.40625 31.78125 66.40625 
Q 25.390625 66.40625 21.84375 63.234375 
Q 18.3125 60.0625 18.3125 54.390625 
z
" id="DejaVuSans-38"/>
      </defs>
      <g transform="translate(407.726684 399.078438)scale(0.1 -0.1)">
       <use xlink:href="#DejaVuSans-38"/>
       <use x="63.623047" xlink:href="#DejaVuSans-30"/>
       <use x="127.246094" xlink:href="#DejaVuSans-30"/>
      </g>
     </g>
    </g>
    <g id="xtick_6">
     <g id="line2d_11">
      <path clip-path="url(#pf603c6cc99)" d="M 498.515315 384.48 
L 498.515315 51.84 
" style="fill:none;stroke:#b0b0b0;stroke-dasharray:5.12,1.28,0.8,1.28;stroke-dashoffset:0;stroke-width:0.8;"/>
     </g>
     <g id="line2d_12">
      <g>
       <use style="stroke:#000000;stroke-width:0.8;" x="498.515315" xlink:href="#mc883812124" y="384.48"/>
      </g>
     </g>
     <g id="text_6">
      <!-- 1000 -->
      <defs>
       <path d="M 12.40625 8.296875 
L 28.515625 8.296875 
L 28.515625 63.921875 
L 10.984375 60.40625 
L 10.984375 69.390625 
L 28.421875 72.90625 
L 38.28125 72.90625 
L 38.28125 8.296875 
L 54.390625 8.296875 
L 54.390625 0 
L 12.40625 0 
z
" id="DejaVuSans-31"/>
      </defs>
      <g transform="translate(485.790315 399.078438)scale(0.1 -0.1)">
       <use xlink:href="#DejaVuSans-31"/>
       <use x="63.623047" xlink:href="#DejaVuSans-30"/>
       <use x="127.246094" xlink:href="#DejaVuSans-30"/>
       <use x="190.869141" xlink:href="#DejaVuSans-30"/>
      </g>
     </g>
    </g>
    <g id="text_7">
     <!-- Iteration -->
     <defs>
      <path d="M 9.8125 72.90625 
L 19.671875 72.90625 
L 19.671875 0 
L 9.8125 0 
z
" id="DejaVuSans-49"/>
      <path d="M 18.3125 70.21875 
L 18.3125 54.6875 
L 36.8125 54.6875 
L 36.8125 47.703125 
L 18.3125 47.703125 
L 18.3125 18.015625 
Q 18.3125 11.328125 20.140625 9.421875 
Q 21.96875 7.515625 27.59375 7.515625 
L 36.8125 7.515625 
L 36.8125 0 
L 27.59375 0 
Q 17.1875 0 13.234375 3.875 
Q 9.28125 7.765625 9.28125 18.015625 
L 9.28125 47.703125 
L 2.6875 47.703125 
L 2.6875 54.6875 
L 9.28125 54.6875 
L 9.28125 70.21875 
z
" id="DejaVuSans-74"/>
      <path d="M 56.203125 29.59375 
L 56.203125 25.203125 
L 14.890625 25.203125 
Q 15.484375 15.921875 20.484375 11.0625 
Q 25.484375 6.203125 34.421875 6.203125 
Q 39.59375 6.203125 44.453125 7.46875 
Q 49.3125 8.734375 54.109375 11.28125 
L 54.109375 2.78125 
Q 49.265625 0.734375 44.1875 -0.34375 
Q 39.109375 -1.421875 33.890625 -1.421875 
Q 20.796875 -1.421875 13.15625 6.1875 
Q 5.515625 13.8125 5.515625 26.8125 
Q 5.515625 40.234375 12.765625 48.109375 
Q 20.015625 56 32.328125 56 
Q 43.359375 56 49.78125 48.890625 
Q 56.203125 41.796875 56.203125 29.59375 
z
M 47.21875 32.234375 
Q 47.125 39.59375 43.09375 43.984375 
Q 39.0625 48.390625 32.421875 48.390625 
Q 24.90625 48.390625 20.390625 44.140625 
Q 15.875 39.890625 15.1875 32.171875 
z
" id="DejaVuSans-65"/>
      <path d="M 41.109375 46.296875 
Q 39.59375 47.171875 37.8125 47.578125 
Q 36.03125 48 33.890625 48 
Q 26.265625 48 22.1875 43.046875 
Q 18.109375 38.09375 18.109375 28.8125 
L 18.109375 0 
L 9.078125 0 
L 9.078125 54.6875 
L 18.109375 54.6875 
L 18.109375 46.1875 
Q 20.953125 51.171875 25.484375 53.578125 
Q 30.03125 56 36.53125 56 
Q 37.453125 56 38.578125 55.875 
Q 39.703125 55.765625 41.0625 55.515625 
z
" id="DejaVuSans-72"/>
      <path d="M 34.28125 27.484375 
Q 23.390625 27.484375 19.1875 25 
Q 14.984375 22.515625 14.984375 16.5 
Q 14.984375 11.71875 18.140625 8.90625 
Q 21.296875 6.109375 26.703125 6.109375 
Q 34.1875 6.109375 38.703125 11.40625 
Q 43.21875 16.703125 43.21875 25.484375 
L 43.21875 27.484375 
z
M 52.203125 31.203125 
L 52.203125 0 
L 43.21875 0 
L 43.21875 8.296875 
Q 40.140625 3.328125 35.546875 0.953125 
Q 30.953125 -1.421875 24.3125 -1.421875 
Q 15.921875 -1.421875 10.953125 3.296875 
Q 6 8.015625 6 15.921875 
Q 6 25.140625 12.171875 29.828125 
Q 18.359375 34.515625 30.609375 34.515625 
L 43.21875 34.515625 
L 43.21875 35.40625 
Q 43.21875 41.609375 39.140625 45 
Q 35.0625 48.390625 27.6875 48.390625 
Q 23 48.390625 18.546875 47.265625 
Q 14.109375 46.140625 10.015625 43.890625 
L 10.015625 52.203125 
Q 14.9375 54.109375 19.578125 55.046875 
Q 24.21875 56 28.609375 56 
Q 40.484375 56 46.34375 49.84375 
Q 52.203125 43.703125 52.203125 31.203125 
z
" id="DejaVuSans-61"/>
      <path d="M 9.421875 54.6875 
L 18.40625 54.6875 
L 18.40625 0 
L 9.421875 0 
z
M 9.421875 75.984375 
L 18.40625 75.984375 
L 18.40625 64.59375 
L 9.421875 64.59375 
z
" id="DejaVuSans-69"/>
      <path d="M 30.609375 48.390625 
Q 23.390625 48.390625 19.1875 42.75 
Q 14.984375 37.109375 14.984375 27.296875 
Q 14.984375 17.484375 19.15625 11.84375 
Q 23.34375 6.203125 30.609375 6.203125 
Q 37.796875 6.203125 41.984375 11.859375 
Q 46.1875 17.53125 46.1875 27.296875 
Q 46.1875 37.015625 41.984375 42.703125 
Q 37.796875 48.390625 30.609375 48.390625 
z
M 30.609375 56 
Q 42.328125 56 49.015625 48.375 
Q 55.71875 40.765625 55.71875 27.296875 
Q 55.71875 13.875 49.015625 6.21875 
Q 42.328125 -1.421875 30.609375 -1.421875 
Q 18.84375 -1.421875 12.171875 6.21875 
Q 5.515625 13.875 5.515625 27.296875 
Q 5.515625 40.765625 12.171875 48.375 
Q 18.84375 56 30.609375 56 
z
" id="DejaVuSans-6f"/>
      <path d="M 54.890625 33.015625 
L 54.890625 0 
L 45.90625 0 
L 45.90625 32.71875 
Q 45.90625 40.484375 42.875 44.328125 
Q 39.84375 48.1875 33.796875 48.1875 
Q 26.515625 48.1875 22.3125 43.546875 
Q 18.109375 38.921875 18.109375 30.90625 
L 18.109375 0 
L 9.078125 0 
L 9.078125 54.6875 
L 18.109375 54.6875 
L 18.109375 46.1875 
Q 21.34375 51.125 25.703125 53.5625 
Q 30.078125 56 35.796875 56 
Q 45.21875 56 50.046875 50.171875 
Q 54.890625 44.34375 54.890625 33.015625 
z
" id="DejaVuSans-6e"/>
     </defs>
     <g transform="translate(265.507969 415.795938)scale(0.14 -0.14)">
      <use xlink:href="#DejaVuSans-49"/>
      <use x="29.492188" xlink:href="#DejaVuSans-74"/>
      <use x="68.701172" xlink:href="#DejaVuSans-65"/>
      <use x="130.224609" xlink:href="#DejaVuSans-72"/>
      <use x="171.337891" xlink:href="#DejaVuSans-61"/>
      <use x="232.617188" xlink:href="#DejaVuSans-74"/>
      <use x="271.826172" xlink:href="#DejaVuSans-69"/>
      <use x="299.609375" xlink:href="#DejaVuSans-6f"/>
      <use x="360.791016" xlink:href="#DejaVuSans-6e"/>
     </g>
    </g>
   </g>
   <g id="matplotlib.axis_2">
    <g id="ytick_1">
     <g id="line2d_13">
      <path clip-path="url(#pf603c6cc99)" d="M 72 341.059252 
L 518.4 341.059252 
" style="fill:none;stroke:#b0b0b0;stroke-dasharray:5.12,1.28,0.8,1.28;stroke-dashoffset:0;stroke-width:0.8;"/>
     </g>
     <g id="line2d_14">
      <defs>
       <path d="M 0 0 
L -3.5 0 
" id="m531e2847f2" style="stroke:#000000;stroke-width:0.8;"/>
      </defs>
      <g>
       <use style="stroke:#000000;stroke-width:0.8;" x="72" xlink:href="#m531e2847f2" y="341.059252"/>
      </g>
     </g>
     <g id="text_8">
      <!-- −0.4 -->
      <defs>
       <path d="M 10.59375 35.5 
L 73.1875 35.5 
L 73.1875 27.203125 
L 10.59375 27.203125 
z
" id="DejaVuSans-2212"/>
       <path d="M 10.6875 12.40625 
L 21 12.40625 
L 21 0 
L 10.6875 0 
z
" id="DejaVuSans-2e"/>
      </defs>
      <g transform="translate(40.717187 344.858471)scale(0.1 -0.1)">
       <use xlink:href="#DejaVuSans-2212"/>
       <use x="83.789062" xlink:href="#DejaVuSans-30"/>
       <use x="147.412109" xlink:href="#DejaVuSans-2e"/>
       <use x="179.199219" xlink:href="#DejaVuSans-34"/>
      </g>
     </g>
    </g>
    <g id="ytick_2">
     <g id="line2d_15">
      <path clip-path="url(#pf603c6cc99)" d="M 72 272.534439 
L 518.4 272.534439 
" style="fill:none;stroke:#b0b0b0;stroke-dasharray:5.12,1.28,0.8,1.28;stroke-dashoffset:0;stroke-width:0.8;"/>
     </g>
     <g id="line2d_16">
      <g>
       <use style="stroke:#000000;stroke-width:0.8;" x="72" xlink:href="#m531e2847f2" y="272.534439"/>
      </g>
     </g>
     <g id="text_9">
      <!-- −0.2 -->
      <g transform="translate(40.717187 276.333658)scale(0.1 -0.1)">
       <use xlink:href="#DejaVuSans-2212"/>
       <use x="83.789062" xlink:href="#DejaVuSans-30"/>
       <use x="147.412109" xlink:href="#DejaVuSans-2e"/>
       <use x="179.199219" xlink:href="#DejaVuSans-32"/>
      </g>
     </g>
    </g>
    <g id="ytick_3">
     <g id="line2d_17">
      <path clip-path="url(#pf603c6cc99)" d="M 72 204.009626 
L 518.4 204.009626 
" style="fill:none;stroke:#b0b0b0;stroke-dasharray:5.12,1.28,0.8,1.28;stroke-dashoffset:0;stroke-width:0.8;"/>
     </g>
     <g id="line2d_18">
      <g>
       <use style="stroke:#000000;stroke-width:0.8;" x="72" xlink:href="#m531e2847f2" y="204.009626"/>
      </g>
     </g>
     <g id="text_10">
      <!-- 0.0 -->
      <g transform="translate(49.096875 207.808845)scale(0.1 -0.1)">
       <use xlink:href="#DejaVuSans-30"/>
       <use x="63.623047" xlink:href="#DejaVuSans-2e"/>
       <use x="95.410156" xlink:href="#DejaVuSans-30"/>
      </g>
     </g>
    </g>
    <g id="ytick_4">
     <g id="line2d_19">
      <path clip-path="url(#pf603c6cc99)" d="M 72 135.484813 
L 518.4 135.484813 
" style="fill:none;stroke:#b0b0b0;stroke-dasharray:5.12,1.28,0.8,1.28;stroke-dashoffset:0;stroke-width:0.8;"/>
     </g>
     <g id="line2d_20">
      <g>
       <use style="stroke:#000000;stroke-width:0.8;" x="72" xlink:href="#m531e2847f2" y="135.484813"/>
      </g>
     </g>
     <g id="text_11">
      <!-- 0.2 -->
      <g transform="translate(49.096875 139.284032)scale(0.1 -0.1)">
       <use xlink:href="#DejaVuSans-30"/>
       <use x="63.623047" xlink:href="#DejaVuSans-2e"/>
       <use x="95.410156" xlink:href="#DejaVuSans-32"/>
      </g>
     </g>
    </g>
    <g id="ytick_5">
     <g id="line2d_21">
      <path clip-path="url(#pf603c6cc99)" d="M 72 66.96 
L 518.4 66.96 
" style="fill:none;stroke:#b0b0b0;stroke-dasharray:5.12,1.28,0.8,1.28;stroke-dashoffset:0;stroke-width:0.8;"/>
     </g>
     <g id="line2d_22">
      <g>
       <use style="stroke:#000000;stroke-width:0.8;" x="72" xlink:href="#m531e2847f2" y="66.96"/>
      </g>
     </g>
     <g id="text_12">
      <!-- 0.4 -->
      <g transform="translate(49.096875 70.759219)scale(0.1 -0.1)">
       <use xlink:href="#DejaVuSans-30"/>
       <use x="63.623047" xlink:href="#DejaVuSans-2e"/>
       <use x="95.410156" xlink:href="#DejaVuSans-34"/>
      </g>
     </g>
    </g>
    <g id="text_13">
     <!-- $\partial \mathcal{L}/ \partial \lambda_{m}[W]$ -->
     <defs>
      <path d="M 21.34375 -1.421875 
Q 14.453125 -1.421875 9.96875 2.734375 
Q 4.640625 7.671875 4.640625 16.609375 
Q 4.640625 25.875 9.328125 33.109375 
Q 14.15625 40.53125 22.859375 40.53125 
Q 28.5625 40.53125 33.0625 36.96875 
Q 35.6875 34.859375 37.5 31.34375 
Q 38.140625 35.296875 38.140625 39.796875 
Q 38.140625 46.390625 36.578125 50.203125 
Q 33.109375 58.640625 23.921875 58.640625 
Q 20.453125 58.640625 15.09375 56.5 
L 15.09375 64.703125 
Q 20.75 66.21875 25.828125 66.21875 
Q 38.921875 66.21875 44.484375 54.203125 
Q 47.078125 48.53125 47.078125 40.09375 
Q 47.078125 34.578125 45.84375 28.171875 
Q 42.78125 12.15625 34.8125 4.546875 
Q 28.5625 -1.421875 21.34375 -1.421875 
z
M 12.984375 15.140625 
Q 12.984375 10.25 15.140625 7.625 
Q 17.4375 4.828125 20.953125 4.828125 
Q 24.078125 4.828125 26.5625 7.03125 
Q 30.078125 10.0625 32.671875 14.984375 
Q 34.8125 19.046875 35.890625 23.390625 
Q 31.546875 33.890625 24.03125 33.890625 
Q 17.578125 33.890625 14.75 25.390625 
Q 12.984375 20.125 12.984375 15.140625 
z
" id="DejaVuSans-2202"/>
      <path d="M 63.59375 14.296875 
L 65.296875 12.5 
Q 52.296875 -0.703125 37.703125 -0.703125 
Q 33.703125 -0.703125 28.90625 0.40625 
Q 21.796875 1.90625 17.90625 1.90625 
Q 15.703125 1.90625 10.5 0.953125 
Q 5.296875 0 3 0 
L 3.59375 2.40625 
Q 9.09375 2.40625 11.40625 11.703125 
L 18.40625 40.09375 
Q 20.09375 47 23.6875 52.390625 
Q 27.296875 57.796875 31.640625 60.84375 
Q 36 63.90625 40.390625 65.453125 
Q 44.796875 67 48.796875 67 
Q 53.796875 67 56.140625 63.796875 
Q 58.5 60.59375 58.5 56 
Q 58.5 52.296875 56.140625 50 
Q 53.796875 47.703125 50.40625 47.703125 
Q 48.203125 47.703125 46.796875 49.203125 
Q 45.40625 50.703125 45.40625 52.796875 
Q 45.40625 54.40625 46.203125 55.5 
Q 47 56.59375 47.890625 56.9375 
Q 48.796875 57.296875 49.59375 57.890625 
Q 50.40625 58.5 50.40625 59.203125 
Q 50.40625 63 44.59375 63 
Q 39.40625 63 36.09375 59.140625 
Q 32.796875 55.296875 31.09375 48.9375 
Q 29.40625 42.59375 28.046875 35.6875 
Q 26.703125 28.796875 24.203125 21.296875 
Q 21.703125 13.796875 18.09375 9.203125 
L 18.09375 8.796875 
Q 21.296875 11 29.5 11 
Q 34.796875 11 38.4375 8.5 
Q 42.09375 6 46.296875 6 
Q 54.796875 6 63.59375 14.296875 
z
" id="STIXNonUnicode-Italic-e238"/>
      <path d="M 25.390625 72.90625 
L 33.6875 72.90625 
L 8.296875 -9.28125 
L 0 -9.28125 
z
" id="DejaVuSans-2f"/>
      <path d="M 36.71875 67.4375 
L 48.828125 0 
L 39.3125 0 
L 31.84375 40.4375 
L 5.125 0 
L -4.390625 0 
L 29.734375 52.4375 
L 28.03125 62.109375 
Q 26.953125 68.265625 21.734375 68.265625 
L 17.046875 68.265625 
L 18.5 75.984375 
L 24.21875 75.875 
Q 35.203125 75.734375 36.71875 67.4375 
z
" id="DejaVuSans-Oblique-3bb"/>
      <path d="M 89.796875 33.015625 
L 83.40625 0 
L 74.421875 0 
L 80.71875 32.71875 
Q 81.109375 34.8125 81.296875 36.328125 
Q 81.5 37.84375 81.5 38.921875 
Q 81.5 43.3125 79.046875 45.75 
Q 76.609375 48.1875 72.21875 48.1875 
Q 65.671875 48.1875 60.546875 43.28125 
Q 55.421875 38.375 53.90625 30.515625 
L 47.90625 0 
L 38.921875 0 
L 45.3125 32.71875 
Q 45.703125 34.515625 45.890625 36.046875 
Q 46.09375 37.59375 46.09375 38.8125 
Q 46.09375 43.265625 43.65625 45.71875 
Q 41.21875 48.1875 36.921875 48.1875 
Q 30.28125 48.1875 25.140625 43.28125 
Q 20.015625 38.375 18.5 30.515625 
L 12.5 0 
L 3.515625 0 
L 14.203125 54.6875 
L 23.1875 54.6875 
L 21.484375 46.1875 
Q 25.140625 50.984375 30.046875 53.484375 
Q 34.96875 56 40.578125 56 
Q 46.53125 56 50.359375 52.875 
Q 54.203125 49.75 54.984375 44.1875 
Q 59.078125 49.953125 64.46875 52.96875 
Q 69.875 56 75.875 56 
Q 82.90625 56 86.734375 51.953125 
Q 90.578125 47.90625 90.578125 40.484375 
Q 90.578125 38.875 90.375 36.9375 
Q 90.1875 35.015625 89.796875 33.015625 
z
" id="DejaVuSans-Oblique-6d"/>
      <path d="M 8.59375 75.984375 
L 29.296875 75.984375 
L 29.296875 69 
L 17.578125 69 
L 17.578125 -6.203125 
L 29.296875 -6.203125 
L 29.296875 -13.1875 
L 8.59375 -13.1875 
z
" id="DejaVuSans-5b"/>
      <path d="M 9.625 72.90625 
L 19.1875 72.90625 
L 22.703125 10.890625 
L 50.203125 72.90625 
L 61.1875 72.90625 
L 64.796875 10.890625 
L 92 72.90625 
L 102 72.90625 
L 69.578125 0 
L 57.171875 0 
L 53.8125 60.796875 
L 26.515625 0 
L 14.109375 0 
z
" id="DejaVuSans-Oblique-57"/>
      <path d="M 30.421875 75.984375 
L 30.421875 -13.1875 
L 9.71875 -13.1875 
L 9.71875 -6.203125 
L 21.390625 -6.203125 
L 21.390625 69 
L 9.71875 69 
L 9.71875 75.984375 
z
" id="DejaVuSans-5d"/>
     </defs>
     <g transform="translate(33.805625 254.14)rotate(-90)scale(0.14 -0.14)">
      <use transform="translate(0 0.015625)" xlink:href="#DejaVuSans-2202"/>
      <use transform="translate(51.708984 0.015625)" xlink:href="#STIXNonUnicode-Italic-e238"/>
      <use transform="translate(121.008972 0.015625)" xlink:href="#DejaVuSans-2f"/>
      <use transform="translate(154.700378 0.015625)" xlink:href="#DejaVuSans-2202"/>
      <use transform="translate(206.409363 0.015625)" xlink:href="#DejaVuSans-Oblique-3bb"/>
      <use transform="translate(265.58905 -16.390625)scale(0.7)" xlink:href="#DejaVuSans-Oblique-6d"/>
      <use transform="translate(336.511902 0.015625)" xlink:href="#DejaVuSans-5b"/>
      <use transform="translate(375.525574 0.015625)" xlink:href="#DejaVuSans-Oblique-57"/>
      <use transform="translate(474.402527 0.015625)" xlink:href="#DejaVuSans-5d"/>
     </g>
    </g>
   </g>
   <g id="line2d_23">
    <path clip-path="url(#pf603c6cc99)" d="M 92.290909 204.009626 
L 92.697133 204.009626 
L 93.103358 204.009626 
L 93.509582 201.851094 
L 94.728256 193.833691 
L 95.540704 189.859252 
L 96.353153 186.741373 
L 97.165602 184.41153 
L 97.978051 182.698409 
L 98.7905 181.464963 
L 100.009173 180.197254 
L 101.227846 179.374956 
L 103.258968 178.621183 
L 104.883866 178.312821 
L 106.508763 178.141509 
L 109.758559 177.970197 
L 110.164783 177.970197 
L 110.571007 184.651366 
L 110.977232 188.420231 
L 111.383456 190.784337 
L 112.195905 193.593855 
L 113.008354 195.341237 
L 113.820803 196.608946 
L 114.633251 197.636818 
L 115.851925 198.80174 
L 116.258149 199.110102 
L 116.664373 202.50208 
L 117.476822 197.910918 
L 117.883047 184.000381 
L 118.289271 159.948171 
L 118.695495 142.679918 
L 121.539066 238.306295 
L 121.945291 247.180258 
L 122.351515 252.353882 
L 122.75774 254.169789 
L 123.163964 253.210442 
L 123.570188 250.229613 
L 124.382637 240.738926 
L 126.007535 219.290659 
L 126.413759 216.583929 
L 126.819984 215.144908 
L 127.226208 212.74654 
L 127.632432 206.921931 
L 128.038657 197.671081 
L 128.444881 197.294194 
L 128.851106 197.910918 
L 129.25733 199.898137 
L 129.663554 203.35864 
L 130.476003 214.151298 
L 131.288452 225.766254 
L 131.694676 229.398069 
L 132.100901 230.97414 
L 132.507125 230.665778 
L 132.91335 228.918396 
L 133.725799 222.819687 
L 134.538247 215.487532 
L 134.944472 214.562447 
L 135.350696 214.630972 
L 135.756921 213.089164 
L 136.163145 207.984065 
L 136.569369 198.733215 
L 136.975594 195.032876 
L 137.381818 196.197797 
L 137.788043 198.459116 
L 138.194267 202.022407 
L 139.006716 212.712277 
L 139.819165 224.361496 
L 140.225389 228.13036 
L 140.631613 229.877743 
L 141.037838 229.843481 
L 141.444062 228.370197 
L 142.256511 222.785425 
L 142.662735 219.393447 
L 143.475184 216.960816 
L 143.881409 216.892291 
L 144.287633 215.932944 
L 144.693857 212.266866 
L 145.100082 204.968973 
L 145.506306 194.107791 
L 145.912531 193.079918 
L 146.318755 195.581074 
L 146.72498 198.973052 
L 147.537428 208.703576 
L 148.349877 219.975908 
L 148.756102 224.155921 
L 149.162326 226.55429 
L 149.56855 227.171013 
L 149.974775 226.348715 
L 150.380999 224.498545 
L 150.787224 221.963127 
L 151.599672 219.393447 
L 152.005897 219.15361 
L 152.818346 219.119347 
L 153.22457 217.269177 
L 153.630794 212.472441 
L 154.037019 204.35225 
L 154.443243 193.285493 
L 154.849468 188.180394 
L 155.661916 196.883046 
L 157.693038 222.202964 
L 158.099263 224.087396 
L 158.505487 224.395758 
L 158.911712 223.436411 
L 159.317936 221.620503 
L 159.724161 221.175092 
L 160.130385 220.284269 
L 161.349058 220.284269 
L 161.755283 219.564759 
L 162.161507 216.789504 
L 162.567731 211.170469 
L 162.973956 202.604867 
L 163.38018 191.606635 
L 163.786405 186.090387 
L 165.005078 201.851094 
L 166.223751 217.817376 
L 166.629975 220.935255 
L 167.0362 222.442801 
L 167.442424 222.511326 
L 167.848649 221.483453 
L 168.254873 221.86034 
L 168.661097 221.072305 
L 169.879771 221.209354 
L 170.285995 220.969517 
L 170.692219 219.770333 
L 171.098444 216.412617 
L 171.504668 210.279646 
L 172.723342 183.623494 
L 175.160688 217.16639 
L 175.566912 220.044432 
L 175.973137 221.346404 
L 176.379361 221.312141 
L 176.785586 220.250007 
L 178.410483 221.654765 
L 178.816708 221.551978 
L 179.222932 221.243617 
L 179.629156 219.770333 
L 180.035381 216.035731 
L 180.441605 209.560136 
L 181.660278 182.903984 
L 183.6914 212.780802 
L 184.097625 217.063603 
L 184.503849 219.804596 
L 184.910074 220.935255 
L 185.316298 220.798205 
L 185.722523 222.340014 
L 186.128747 221.654765 
L 186.941196 222.031652 
L 187.34742 222.031652 
L 187.753645 221.791815 
L 188.159869 221.414929 
L 188.566093 219.736071 
L 188.972318 215.795894 
L 189.378542 209.148987 
L 190.597215 181.156601 
L 192.222113 206.887668 
L 193.034562 216.789504 
L 193.440786 219.496234 
L 193.847011 220.592631 
L 194.253235 220.455581 
L 194.659459 221.928865 
L 195.065684 221.620503 
L 195.878133 222.100177 
L 196.284357 222.100177 
L 196.690581 221.86034 
L 197.096806 221.449191 
L 197.50303 219.667546 
L 197.909255 215.59032 
L 198.315479 208.840625 
L 199.534152 181.019551 
L 201.15905 206.990455 
L 201.971499 216.858029 
L 202.377723 219.496234 
L 202.783948 220.558368 
L 203.190172 220.352794 
L 203.596396 221.757553 
L 204.002621 221.654765 
L 204.81507 222.202964 
L 205.221294 222.168702 
L 205.627518 221.894602 
L 206.033743 221.483453 
L 206.439967 219.667546 
L 206.846192 215.556057 
L 207.252416 208.737838 
L 208.471089 180.848239 
L 210.095987 206.956193 
L 210.908436 216.823766 
L 211.31466 219.427709 
L 211.720885 220.489844 
L 212.127109 220.284269 
L 212.533333 221.654765 
L 212.939558 221.620503 
L 213.752007 222.237226 
L 214.158231 222.202964 
L 214.564455 221.928865 
L 214.97068 221.483453 
L 215.376904 219.667546 
L 215.783129 215.521795 
L 216.189353 208.703576 
L 217.408026 180.813977 
L 219.032924 206.990455 
L 219.845373 216.823766 
L 220.251597 219.427709 
L 220.657821 220.455581 
L 221.064046 220.250007 
L 221.47027 221.620503 
L 221.876495 221.654765 
L 222.282719 222.031652 
L 222.688943 222.237226 
L 223.095168 222.202964 
L 223.501392 221.928865 
L 223.907617 221.483453 
L 224.313841 219.667546 
L 224.720066 215.521795 
L 225.12629 208.669313 
L 226.344963 180.779714 
L 227.969861 206.990455 
L 228.78231 216.823766 
L 229.188534 219.427709 
L 229.594758 220.455581 
L 230.000983 220.250007 
L 230.407207 221.620503 
L 230.813432 221.654765 
L 231.219656 222.031652 
L 231.62588 222.237226 
L 232.032105 222.202964 
L 232.438329 221.928865 
L 232.844554 221.483453 
L 233.250778 219.667546 
L 233.657002 215.487532 
L 234.063227 208.635051 
L 235.2819 180.779714 
L 236.906798 206.990455 
L 237.719247 216.823766 
L 238.125471 219.427709 
L 238.531695 220.455581 
L 238.93792 220.215744 
L 239.344144 221.586241 
L 239.750369 221.654765 
L 240.562817 222.271489 
L 240.969042 222.202964 
L 241.375266 221.963127 
L 241.781491 221.483453 
L 242.187715 219.667546 
L 242.593939 215.487532 
L 243.000164 208.635051 
L 244.218837 180.745452 
L 245.843735 206.990455 
L 246.656183 216.823766 
L 247.062408 219.427709 
L 247.468632 220.455581 
L 247.874857 220.215744 
L 248.281081 221.586241 
L 248.687305 221.654765 
L 249.499754 222.271489 
L 249.905979 222.202964 
L 250.312203 221.963127 
L 250.718428 221.483453 
L 251.124652 219.667546 
L 251.530876 215.487532 
L 251.937101 208.635051 
L 253.155774 180.745452 
L 254.780672 206.990455 
L 255.59312 216.823766 
L 255.999345 219.393447 
L 256.405569 220.455581 
L 256.811794 220.215744 
L 257.218018 221.586241 
L 257.624242 221.654765 
L 258.436691 222.271489 
L 258.842916 222.237226 
L 259.24914 221.963127 
L 259.655364 221.483453 
L 260.061589 219.667546 
L 260.467813 215.487532 
L 260.874038 208.635051 
L 262.092711 180.745452 
L 263.717609 206.990455 
L 264.530057 216.823766 
L 264.936282 219.393447 
L 265.342506 220.455581 
L 265.748731 220.215744 
L 266.154955 221.586241 
L 266.561179 221.654765 
L 267.373628 222.271489 
L 267.779853 222.237226 
L 268.186077 221.963127 
L 268.592301 221.483453 
L 268.998526 219.667546 
L 269.40475 215.487532 
L 269.810975 208.635051 
L 271.029648 180.745452 
L 272.654545 206.990455 
L 273.466994 216.823766 
L 273.873219 219.393447 
L 274.279443 220.455581 
L 274.685667 220.215744 
L 275.091892 221.586241 
L 275.498116 221.654765 
L 276.310565 222.271489 
L 276.71679 222.237226 
L 277.123014 221.963127 
L 277.529238 221.483453 
L 277.935463 219.667546 
L 278.341687 215.487532 
L 278.747912 208.635051 
L 279.966585 180.745452 
L 281.591482 206.990455 
L 282.403931 216.823766 
L 282.810156 219.393447 
L 283.21638 220.455581 
L 283.622604 220.215744 
L 284.028829 221.586241 
L 284.435053 221.654765 
L 285.247502 222.271489 
L 285.653726 222.237226 
L 286.059951 221.963127 
L 286.466175 221.483453 
L 286.8724 219.667546 
L 287.278624 215.487532 
L 287.684848 208.635051 
L 288.903522 180.745452 
L 290.528419 206.990455 
L 291.340868 216.823766 
L 291.747093 219.393447 
L 292.153317 220.455581 
L 292.559541 220.215744 
L 292.965766 221.586241 
L 293.37199 221.654765 
L 294.184439 222.271489 
L 294.590663 222.237226 
L 294.996888 221.963127 
L 295.403112 221.483453 
L 295.809337 219.667546 
L 296.215561 215.487532 
L 296.621785 208.635051 
L 297.840459 180.745452 
L 299.465356 206.990455 
L 300.277805 216.823766 
L 300.684029 219.393447 
L 301.090254 220.455581 
L 301.496478 220.215744 
L 301.902703 221.586241 
L 302.308927 221.654765 
L 303.121376 222.271489 
L 303.5276 222.237226 
L 303.933825 221.963127 
L 304.340049 221.483453 
L 304.746274 219.667546 
L 305.152498 215.487532 
L 305.558722 208.635051 
L 306.777396 180.745452 
L 308.402293 206.990455 
L 309.214742 216.823766 
L 309.620966 219.393447 
L 310.027191 220.455581 
L 310.433415 220.215744 
L 310.83964 221.586241 
L 311.245864 221.654765 
L 312.058313 222.271489 
L 312.464537 222.237226 
L 312.870762 221.963127 
L 313.276986 221.483453 
L 313.68321 219.667546 
L 314.089435 215.487532 
L 314.495659 208.635051 
L 315.714333 180.745452 
L 317.33923 206.990455 
L 318.151679 216.823766 
L 318.557903 219.393447 
L 318.964128 220.455581 
L 319.370352 220.215744 
L 319.776577 221.586241 
L 320.182801 221.654765 
L 320.99525 222.271489 
L 321.401474 222.237226 
L 321.807699 221.963127 
L 322.213923 221.483453 
L 322.620147 219.667546 
L 323.026372 215.487532 
L 323.432596 208.635051 
L 324.651269 180.745452 
L 326.276167 206.990455 
L 327.088616 216.823766 
L 327.49484 219.393447 
L 327.901065 220.455581 
L 328.307289 220.215744 
L 328.713514 221.586241 
L 329.119738 221.654765 
L 329.932187 222.271489 
L 330.338411 222.237226 
L 330.744636 221.963127 
L 331.15086 221.483453 
L 331.557084 219.667546 
L 331.963309 215.487532 
L 332.369533 208.635051 
L 333.588206 180.745452 
L 335.213104 206.990455 
L 336.025553 216.823766 
L 336.431777 219.393447 
L 336.838002 220.455581 
L 337.244226 220.215744 
L 337.65045 221.586241 
L 338.056675 221.654765 
L 338.869124 222.271489 
L 339.275348 222.237226 
L 339.681572 221.963127 
L 340.087797 221.483453 
L 340.494021 219.667546 
L 340.900246 215.487532 
L 341.30647 208.635051 
L 342.525143 180.745452 
L 344.150041 206.990455 
L 344.96249 216.823766 
L 345.368714 219.393447 
L 345.774939 220.455581 
L 346.181163 220.215744 
L 346.587387 221.586241 
L 346.993612 221.654765 
L 347.806061 222.271489 
L 348.212285 222.237226 
L 348.618509 221.963127 
L 349.024734 221.483453 
L 349.430958 219.667546 
L 349.837183 215.487532 
L 350.243407 208.635051 
L 351.46208 180.745452 
L 353.086978 206.990455 
L 353.899427 216.823766 
L 354.305651 219.393447 
L 354.711876 220.455581 
L 355.1181 220.215744 
L 355.524324 221.586241 
L 355.930549 221.654765 
L 356.742998 222.271489 
L 357.149222 222.237226 
L 357.555446 221.963127 
L 357.961671 221.483453 
L 358.367895 219.667546 
L 358.77412 215.487532 
L 359.180344 208.635051 
L 360.399017 180.745452 
L 362.023915 206.990455 
L 362.836364 216.823766 
L 363.242588 219.393447 
L 363.648812 220.455581 
L 364.055037 220.215744 
L 364.461261 221.586241 
L 364.867486 221.654765 
L 365.679934 222.271489 
L 366.086159 222.237226 
L 366.492383 221.963127 
L 366.898608 221.483453 
L 367.304832 219.667546 
L 367.711057 215.487532 
L 368.117281 208.635051 
L 369.335954 180.745452 
L 370.960852 206.990455 
L 371.773301 216.823766 
L 372.179525 219.393447 
L 372.585749 220.455581 
L 372.991974 220.215744 
L 373.398198 221.586241 
L 373.804423 221.654765 
L 374.616871 222.271489 
L 375.023096 222.237226 
L 375.42932 221.963127 
L 375.835545 221.483453 
L 376.241769 219.667546 
L 376.647993 215.487532 
L 377.054218 208.635051 
L 378.272891 180.745452 
L 379.897789 206.990455 
L 380.710238 216.823766 
L 381.116462 219.393447 
L 381.522686 220.455581 
L 381.928911 220.215744 
L 382.335135 221.586241 
L 382.74136 221.654765 
L 383.553808 222.271489 
L 383.960033 222.237226 
L 384.366257 221.963127 
L 384.772482 221.483453 
L 385.178706 219.667546 
L 385.58493 215.487532 
L 385.991155 208.635051 
L 387.209828 180.745452 
L 388.834726 206.990455 
L 389.647174 216.823766 
L 390.053399 219.393447 
L 390.459623 220.455581 
L 390.865848 220.215744 
L 391.272072 221.586241 
L 391.678296 221.654765 
L 392.490745 222.271489 
L 392.89697 222.237226 
L 393.303194 221.963127 
L 393.709419 221.483453 
L 394.115643 219.667546 
L 394.521867 215.487532 
L 394.928092 208.635051 
L 396.146765 180.745452 
L 397.771663 206.990455 
L 398.584111 216.823766 
L 398.990336 219.393447 
L 399.39656 220.455581 
L 399.802785 220.215744 
L 400.209009 221.586241 
L 400.615233 221.654765 
L 401.427682 222.271489 
L 401.833907 222.237226 
L 402.240131 221.963127 
L 402.646355 221.483453 
L 403.05258 219.667546 
L 403.458804 215.487532 
L 403.865029 208.635051 
L 405.083702 180.745452 
L 406.7086 206.990455 
L 407.521048 216.823766 
L 407.927273 219.393447 
L 408.333497 220.455581 
L 408.739722 220.215744 
L 409.145946 221.586241 
L 409.55217 221.654765 
L 410.364619 222.271489 
L 410.770844 222.237226 
L 411.177068 221.963127 
L 411.583292 221.483453 
L 411.989517 219.667546 
L 412.395741 215.487532 
L 412.801966 208.635051 
L 414.020639 180.745452 
L 415.645536 206.990455 
L 416.457985 216.823766 
L 416.86421 219.393447 
L 417.270434 220.455581 
L 417.676658 220.215744 
L 418.082883 221.586241 
L 418.489107 221.654765 
L 419.301556 222.271489 
L 419.707781 222.237226 
L 420.114005 221.963127 
L 420.520229 221.483453 
L 420.926454 219.667546 
L 421.332678 215.487532 
L 421.738903 208.635051 
L 422.957576 180.745452 
L 424.582473 206.990455 
L 425.394922 216.823766 
L 425.801147 219.393447 
L 426.207371 220.455581 
L 426.613595 220.215744 
L 427.01982 221.586241 
L 427.426044 221.654765 
L 428.238493 222.271489 
L 428.644717 222.237226 
L 429.050942 221.963127 
L 429.457166 221.483453 
L 429.863391 219.667546 
L 430.269615 215.487532 
L 430.675839 208.635051 
L 431.894513 180.745452 
L 433.51941 206.990455 
L 434.331859 216.823766 
L 434.738084 219.393447 
L 435.144308 220.455581 
L 435.550532 220.215744 
L 435.956757 221.586241 
L 436.362981 221.654765 
L 437.17543 222.271489 
L 437.581654 222.237226 
L 437.987879 221.963127 
L 438.394103 221.483453 
L 438.800328 219.667546 
L 439.206552 215.487532 
L 439.612776 208.635051 
L 440.83145 180.745452 
L 442.456347 206.990455 
L 443.268796 216.823766 
L 443.67502 219.393447 
L 444.081245 220.455581 
L 444.487469 220.215744 
L 444.893694 221.586241 
L 445.299918 221.654765 
L 446.112367 222.271489 
L 446.518591 222.237226 
L 446.924816 221.963127 
L 447.33104 221.483453 
L 447.737265 219.667546 
L 448.143489 215.487532 
L 448.549713 208.635051 
L 449.768387 180.745452 
L 451.393284 206.990455 
L 452.205733 216.823766 
L 452.611957 219.393447 
L 453.018182 220.455581 
L 453.424406 220.215744 
L 453.830631 221.586241 
L 454.236855 221.654765 
L 455.049304 222.271489 
L 455.455528 222.237226 
L 455.861753 221.963127 
L 456.267977 221.483453 
L 456.674201 219.667546 
L 457.080426 215.487532 
L 457.48665 208.635051 
L 458.705324 180.745452 
L 460.330221 206.990455 
L 461.14267 216.823766 
L 461.548894 219.393447 
L 461.955119 220.455581 
L 462.361343 220.215744 
L 462.767568 221.586241 
L 463.173792 221.654765 
L 463.986241 222.271489 
L 464.392465 222.237226 
L 464.79869 221.963127 
L 465.204914 221.483453 
L 465.611138 219.667546 
L 466.017363 215.487532 
L 466.423587 208.635051 
L 467.64226 180.745452 
L 469.267158 206.990455 
L 470.079607 216.823766 
L 470.485831 219.393447 
L 470.892056 220.455581 
L 471.29828 220.215744 
L 471.704505 221.586241 
L 472.110729 221.654765 
L 472.923178 222.271489 
L 473.329402 222.237226 
L 473.735627 221.963127 
L 474.141851 221.483453 
L 474.548075 219.667546 
L 474.9543 215.487532 
L 475.360524 208.635051 
L 476.579197 180.745452 
L 478.204095 206.990455 
L 479.016544 216.823766 
L 479.422768 219.393447 
L 479.828993 220.455581 
L 480.235217 220.215744 
L 480.641441 221.586241 
L 481.047666 221.654765 
L 481.860115 222.271489 
L 482.266339 222.237226 
L 482.672563 221.963127 
L 483.078788 221.483453 
L 483.485012 219.667546 
L 483.891237 215.487532 
L 484.297461 208.635051 
L 485.516134 180.745452 
L 487.141032 206.990455 
L 487.953481 216.823766 
L 488.359705 219.393447 
L 488.76593 220.455581 
L 489.172154 220.215744 
L 489.578378 221.586241 
L 489.984603 221.654765 
L 490.797052 222.271489 
L 491.203276 222.237226 
L 491.6095 221.963127 
L 492.015725 221.483453 
L 492.421949 219.667546 
L 492.828174 215.487532 
L 493.234398 208.635051 
L 494.453071 180.745452 
L 496.077969 206.990455 
L 496.890418 216.823766 
L 497.296642 219.393447 
L 497.702867 220.455581 
L 498.109091 220.215744 
L 498.109091 220.215744 
" style="fill:none;stroke:#bf00bf;stroke-linecap:square;stroke-width:1.5;"/>
   </g>
   <g id="line2d_24">
    <path clip-path="url(#pf603c6cc99)" d="M 92.290909 204.009626 
L 92.697133 204.009626 
L 93.103358 204.009626 
L 93.509582 186.878423 
L 93.915807 177.524786 
L 94.322031 172.111326 
L 94.728256 168.787872 
L 95.946929 162.415065 
L 96.759378 159.399973 
L 97.571826 157.447016 
L 98.384275 156.042257 
L 99.196724 155.014385 
L 100.415397 153.883725 
L 101.63407 153.164215 
L 103.258968 152.581754 
L 105.29009 152.170605 
L 110.164783 151.862243 
L 110.571007 151.862243 
L 110.977232 153.506839 
L 113.008354 164.230972 
L 114.227027 169.061971 
L 115.4457 172.967886 
L 116.664373 176.257077 
L 117.070598 172.214113 
L 117.883047 178.518396 
L 118.289271 178.038722 
L 118.695495 172.762311 
L 119.507944 155.80242 
L 120.320393 143.12533 
L 122.351515 101.941917 
L 122.75774 95.980258 
L 123.163964 92.314181 
L 123.570188 90.772373 
L 123.976413 90.909422 
L 124.382637 92.279918 
L 125.195086 97.213705 
L 126.819984 109.342597 
L 128.038657 119.92968 
L 129.25733 123.390184 
L 129.663554 123.869857 
L 130.069779 123.561496 
L 130.476003 122.156737 
L 130.882228 119.484269 
L 132.507125 104.580122 
L 132.91335 103.278151 
L 133.319574 103.141101 
L 133.725799 103.929137 
L 134.132023 105.299633 
L 134.944472 109.034235 
L 135.350696 111.706703 
L 136.569369 122.156737 
L 136.975594 123.458708 
L 137.788043 124.520843 
L 138.194267 124.692155 
L 138.600491 124.212481 
L 139.006716 122.739198 
L 139.41294 120.169517 
L 141.037838 105.368158 
L 141.444062 103.963399 
L 141.850287 103.6893 
L 142.256511 104.340286 
L 142.662735 105.573732 
L 143.06896 107.218328 
L 143.475184 109.548171 
L 144.287633 116.229341 
L 145.100082 124.212481 
L 145.506306 126.679375 
L 145.912531 126.679375 
L 146.72498 125.959864 
L 147.131204 125.308878 
L 147.537428 124.006907 
L 147.943653 121.77985 
L 148.349877 118.627709 
L 149.162326 110.644568 
L 149.56855 107.698001 
L 149.974775 105.950619 
L 150.380999 105.333895 
L 150.787224 105.573732 
L 151.193448 106.464555 
L 151.599672 108.2462 
L 152.005897 110.644568 
L 152.818346 117.702624 
L 154.037019 130.585289 
L 154.443243 132.778083 
L 154.849468 132.332672 
L 156.88059 122.225262 
L 158.505487 108.623086 
L 158.911712 107.218328 
L 159.317936 106.807179 
L 159.724161 107.184065 
L 160.130385 108.554562 
L 160.536609 110.713093 
L 161.349058 117.462787 
L 162.973956 134.491203 
L 163.38018 136.170061 
L 163.786405 135.073664 
L 164.598853 130.002828 
L 165.411302 125.206091 
L 166.223751 118.422135 
L 167.0362 111.364079 
L 167.442424 109.205547 
L 167.848649 108.074888 
L 168.254873 107.835051 
L 168.661097 108.828661 
L 169.067322 110.610306 
L 169.473546 113.317036 
L 170.285995 120.957553 
L 171.504668 134.799565 
L 171.910893 138.088756 
L 172.317117 139.390727 
L 172.723342 137.917444 
L 173.53579 131.441849 
L 174.348239 125.720027 
L 176.379361 109.616696 
L 176.785586 108.657349 
L 177.19181 108.486037 
L 177.598034 109.479646 
L 178.004259 111.535391 
L 178.816708 118.250823 
L 180.84783 139.664827 
L 181.254054 140.692699 
L 181.660278 138.945316 
L 182.472727 131.88726 
L 183.6914 122.259524 
L 184.503849 114.51622 
L 184.910074 111.603916 
L 185.316298 109.753746 
L 185.722523 108.862923 
L 186.128747 109.411122 
L 186.534971 110.850143 
L 186.941196 113.248511 
L 187.753645 120.375092 
L 189.784767 141.823358 
L 190.190991 142.748443 
L 190.597215 140.795486 
L 191.409664 132.88087 
L 192.628337 122.533623 
L 193.440786 114.65327 
L 193.847011 111.740965 
L 194.253235 109.890795 
L 194.659459 109.034235 
L 195.065684 109.616696 
L 195.471908 111.124242 
L 195.878133 113.591135 
L 196.690581 120.889028 
L 198.721704 142.303032 
L 199.127928 143.091067 
L 199.534152 141.035323 
L 200.346601 132.983657 
L 201.565274 122.465099 
L 202.377723 114.550483 
L 202.783948 111.706703 
L 203.190172 109.890795 
L 203.596396 109.068498 
L 204.002621 109.650959 
L 204.408845 111.192767 
L 204.81507 113.728185 
L 205.627518 121.094602 
L 207.65864 142.542869 
L 208.064865 143.330904 
L 208.471089 141.206635 
L 209.283538 133.086445 
L 210.502211 122.465099 
L 211.31466 114.550483 
L 211.720885 111.706703 
L 212.127109 109.890795 
L 212.533333 109.10276 
L 212.939558 109.685221 
L 213.345782 111.261292 
L 213.752007 113.79671 
L 214.564455 121.231652 
L 216.595577 142.679918 
L 217.001802 143.433691 
L 217.408026 141.27516 
L 218.220475 133.120707 
L 219.439148 122.465099 
L 220.251597 114.550483 
L 220.657821 111.706703 
L 221.064046 109.925058 
L 221.47027 109.10276 
L 221.876495 109.685221 
L 222.282719 111.261292 
L 222.688943 113.830972 
L 223.501392 121.265914 
L 225.532514 142.748443 
L 225.938739 143.467954 
L 226.344963 141.309422 
L 227.157412 133.120707 
L 228.376085 122.465099 
L 229.188534 114.550483 
L 229.594758 111.706703 
L 230.000983 109.925058 
L 230.407207 109.10276 
L 230.813432 109.685221 
L 231.219656 111.295554 
L 231.62588 113.865235 
L 232.438329 121.300177 
L 234.469451 142.748443 
L 234.875676 143.502216 
L 235.2819 141.343685 
L 236.094349 133.154969 
L 237.313022 122.465099 
L 238.125471 114.550483 
L 238.531695 111.706703 
L 238.93792 109.925058 
L 239.344144 109.10276 
L 239.750369 109.685221 
L 240.156593 111.295554 
L 240.562817 113.865235 
L 241.375266 121.300177 
L 243.406388 142.782706 
L 243.812613 143.502216 
L 244.218837 141.343685 
L 245.031286 133.154969 
L 246.249959 122.465099 
L 247.062408 114.550483 
L 247.468632 111.706703 
L 247.874857 109.925058 
L 248.281081 109.10276 
L 248.687305 109.685221 
L 249.09353 111.295554 
L 249.499754 113.865235 
L 250.312203 121.334439 
L 252.343325 142.782706 
L 252.74955 143.502216 
L 253.155774 141.343685 
L 253.968223 133.154969 
L 255.186896 122.465099 
L 255.999345 114.51622 
L 256.405569 111.706703 
L 256.811794 109.925058 
L 257.218018 109.10276 
L 257.624242 109.685221 
L 258.030467 111.295554 
L 258.436691 113.899497 
L 259.24914 121.334439 
L 261.280262 142.782706 
L 261.686486 143.536479 
L 262.092711 141.343685 
L 262.90516 133.154969 
L 264.123833 122.465099 
L 264.936282 114.51622 
L 265.342506 111.706703 
L 265.748731 109.925058 
L 266.154955 109.10276 
L 266.561179 109.685221 
L 266.967404 111.295554 
L 267.373628 113.899497 
L 268.186077 121.334439 
L 270.217199 142.782706 
L 270.623423 143.536479 
L 271.029648 141.343685 
L 271.842097 133.154969 
L 273.06077 122.465099 
L 273.873219 114.51622 
L 274.279443 111.706703 
L 274.685667 109.925058 
L 275.091892 109.10276 
L 275.498116 109.685221 
L 275.904341 111.295554 
L 276.310565 113.899497 
L 277.123014 121.334439 
L 279.154136 142.782706 
L 279.56036 143.536479 
L 279.966585 141.343685 
L 280.779034 133.154969 
L 281.997707 122.465099 
L 282.810156 114.51622 
L 283.21638 111.672441 
L 283.622604 109.925058 
L 284.028829 109.10276 
L 284.435053 109.685221 
L 284.841278 111.295554 
L 285.247502 113.899497 
L 286.059951 121.334439 
L 288.091073 142.782706 
L 288.497297 143.536479 
L 288.903522 141.343685 
L 289.715971 133.154969 
L 290.934644 122.465099 
L 291.747093 114.51622 
L 292.153317 111.672441 
L 292.559541 109.925058 
L 292.965766 109.10276 
L 293.37199 109.685221 
L 293.778215 111.295554 
L 294.184439 113.899497 
L 294.996888 121.334439 
L 297.02801 142.782706 
L 297.434234 143.536479 
L 297.840459 141.343685 
L 298.652907 133.154969 
L 299.871581 122.465099 
L 300.684029 114.51622 
L 301.090254 111.672441 
L 301.496478 109.925058 
L 301.902703 109.10276 
L 302.308927 109.685221 
L 302.715152 111.295554 
L 303.121376 113.899497 
L 303.933825 121.334439 
L 305.964947 142.782706 
L 306.371171 143.536479 
L 306.777396 141.343685 
L 307.589844 133.154969 
L 308.808518 122.465099 
L 309.620966 114.51622 
L 310.027191 111.672441 
L 310.433415 109.925058 
L 310.83964 109.10276 
L 311.245864 109.685221 
L 311.652088 111.295554 
L 312.058313 113.899497 
L 312.870762 121.334439 
L 314.901884 142.782706 
L 315.308108 143.536479 
L 315.714333 141.343685 
L 316.526781 133.154969 
L 317.745455 122.465099 
L 318.557903 114.51622 
L 318.964128 111.672441 
L 319.370352 109.925058 
L 319.776577 109.10276 
L 320.182801 109.685221 
L 320.589025 111.295554 
L 320.99525 113.899497 
L 321.807699 121.334439 
L 323.838821 142.782706 
L 324.245045 143.536479 
L 324.651269 141.343685 
L 325.463718 133.154969 
L 326.682391 122.465099 
L 327.49484 114.51622 
L 327.901065 111.672441 
L 328.307289 109.925058 
L 328.713514 109.10276 
L 329.119738 109.685221 
L 329.525962 111.295554 
L 329.932187 113.899497 
L 330.744636 121.334439 
L 332.775758 142.782706 
L 333.181982 143.536479 
L 333.588206 141.343685 
L 334.400655 133.154969 
L 335.619328 122.465099 
L 336.431777 114.51622 
L 336.838002 111.672441 
L 337.244226 109.925058 
L 337.65045 109.10276 
L 338.056675 109.685221 
L 338.462899 111.295554 
L 338.869124 113.899497 
L 339.681572 121.334439 
L 341.712695 142.782706 
L 342.118919 143.536479 
L 342.525143 141.343685 
L 343.337592 133.154969 
L 344.556265 122.465099 
L 345.368714 114.51622 
L 345.774939 111.672441 
L 346.181163 109.925058 
L 346.587387 109.10276 
L 346.993612 109.685221 
L 347.399836 111.295554 
L 347.806061 113.899497 
L 348.618509 121.334439 
L 350.649631 142.782706 
L 351.055856 143.536479 
L 351.46208 141.343685 
L 352.274529 133.154969 
L 353.493202 122.465099 
L 354.305651 114.51622 
L 354.711876 111.672441 
L 355.1181 109.925058 
L 355.524324 109.10276 
L 355.930549 109.685221 
L 356.336773 111.295554 
L 356.742998 113.899497 
L 357.555446 121.334439 
L 359.586568 142.782706 
L 359.992793 143.536479 
L 360.399017 141.343685 
L 361.211466 133.154969 
L 362.430139 122.465099 
L 363.242588 114.51622 
L 363.648812 111.672441 
L 364.055037 109.925058 
L 364.461261 109.10276 
L 364.867486 109.685221 
L 365.27371 111.295554 
L 365.679934 113.899497 
L 366.492383 121.334439 
L 368.523505 142.782706 
L 368.92973 143.536479 
L 369.335954 141.343685 
L 370.148403 133.154969 
L 371.367076 122.465099 
L 372.179525 114.51622 
L 372.585749 111.672441 
L 372.991974 109.925058 
L 373.398198 109.10276 
L 373.804423 109.685221 
L 374.210647 111.295554 
L 374.616871 113.899497 
L 375.42932 121.334439 
L 377.460442 142.782706 
L 377.866667 143.536479 
L 378.272891 141.343685 
L 379.08534 133.154969 
L 380.304013 122.465099 
L 381.116462 114.51622 
L 381.522686 111.672441 
L 381.928911 109.925058 
L 382.335135 109.10276 
L 382.74136 109.685221 
L 383.147584 111.295554 
L 383.553808 113.899497 
L 384.366257 121.334439 
L 386.397379 142.782706 
L 386.803604 143.536479 
L 387.209828 141.343685 
L 388.022277 133.154969 
L 389.24095 122.465099 
L 390.053399 114.51622 
L 390.459623 111.672441 
L 390.865848 109.925058 
L 391.272072 109.10276 
L 391.678296 109.685221 
L 392.084521 111.295554 
L 392.490745 113.899497 
L 393.303194 121.334439 
L 395.334316 142.782706 
L 395.740541 143.536479 
L 396.146765 141.343685 
L 396.959214 133.154969 
L 398.177887 122.465099 
L 398.990336 114.51622 
L 399.39656 111.672441 
L 399.802785 109.925058 
L 400.209009 109.10276 
L 400.615233 109.685221 
L 401.021458 111.295554 
L 401.427682 113.899497 
L 402.240131 121.334439 
L 404.271253 142.782706 
L 404.677477 143.536479 
L 405.083702 141.343685 
L 405.896151 133.154969 
L 407.114824 122.465099 
L 407.927273 114.51622 
L 408.333497 111.672441 
L 408.739722 109.925058 
L 409.145946 109.10276 
L 409.55217 109.685221 
L 409.958395 111.295554 
L 410.364619 113.899497 
L 411.177068 121.334439 
L 413.20819 142.782706 
L 413.614414 143.536479 
L 414.020639 141.343685 
L 414.833088 133.154969 
L 416.051761 122.465099 
L 416.86421 114.51622 
L 417.270434 111.672441 
L 417.676658 109.925058 
L 418.082883 109.10276 
L 418.489107 109.685221 
L 418.895332 111.295554 
L 419.301556 113.899497 
L 420.114005 121.334439 
L 422.145127 142.782706 
L 422.551351 143.536479 
L 422.957576 141.343685 
L 423.770025 133.154969 
L 424.988698 122.465099 
L 425.801147 114.51622 
L 426.207371 111.672441 
L 426.613595 109.925058 
L 427.01982 109.10276 
L 427.426044 109.685221 
L 427.832269 111.295554 
L 428.238493 113.899497 
L 429.050942 121.334439 
L 431.082064 142.782706 
L 431.488288 143.536479 
L 431.894513 141.343685 
L 432.706962 133.154969 
L 433.925635 122.465099 
L 434.738084 114.51622 
L 435.144308 111.672441 
L 435.550532 109.925058 
L 435.956757 109.10276 
L 436.362981 109.685221 
L 436.769206 111.295554 
L 437.17543 113.899497 
L 437.987879 121.334439 
L 440.019001 142.782706 
L 440.425225 143.536479 
L 440.83145 141.343685 
L 441.643898 133.154969 
L 442.862572 122.465099 
L 443.67502 114.51622 
L 444.081245 111.672441 
L 444.487469 109.925058 
L 444.893694 109.10276 
L 445.299918 109.685221 
L 445.706143 111.295554 
L 446.112367 113.899497 
L 446.924816 121.334439 
L 448.955938 142.782706 
L 449.362162 143.536479 
L 449.768387 141.343685 
L 450.580835 133.154969 
L 451.799509 122.465099 
L 452.611957 114.51622 
L 453.018182 111.672441 
L 453.424406 109.925058 
L 453.830631 109.10276 
L 454.236855 109.685221 
L 454.643079 111.295554 
L 455.049304 113.899497 
L 455.861753 121.334439 
L 457.892875 142.782706 
L 458.299099 143.536479 
L 458.705324 141.343685 
L 459.517772 133.154969 
L 460.736446 122.465099 
L 461.548894 114.51622 
L 461.955119 111.672441 
L 462.361343 109.925058 
L 462.767568 109.10276 
L 463.173792 109.685221 
L 463.580016 111.295554 
L 463.986241 113.899497 
L 464.79869 121.334439 
L 466.829812 142.782706 
L 467.236036 143.536479 
L 467.64226 141.343685 
L 468.454709 133.154969 
L 469.673382 122.465099 
L 470.485831 114.51622 
L 470.892056 111.672441 
L 471.29828 109.925058 
L 471.704505 109.10276 
L 472.110729 109.685221 
L 472.516953 111.295554 
L 472.923178 113.899497 
L 473.735627 121.334439 
L 475.766749 142.782706 
L 476.172973 143.536479 
L 476.579197 141.343685 
L 477.391646 133.154969 
L 478.610319 122.465099 
L 479.422768 114.51622 
L 479.828993 111.672441 
L 480.235217 109.925058 
L 480.641441 109.10276 
L 481.047666 109.685221 
L 481.45389 111.295554 
L 481.860115 113.899497 
L 482.672563 121.334439 
L 484.703686 142.782706 
L 485.10991 143.536479 
L 485.516134 141.343685 
L 486.328583 133.154969 
L 487.547256 122.465099 
L 488.359705 114.51622 
L 488.76593 111.672441 
L 489.172154 109.925058 
L 489.578378 109.10276 
L 489.984603 109.685221 
L 490.390827 111.295554 
L 490.797052 113.899497 
L 491.6095 121.334439 
L 493.640622 142.782706 
L 494.046847 143.536479 
L 494.453071 141.343685 
L 495.26552 133.154969 
L 496.484193 122.465099 
L 497.296642 114.51622 
L 497.702867 111.672441 
L 498.109091 109.925058 
L 498.109091 109.925058 
" style="fill:none;stroke:#00bfbf;stroke-linecap:square;stroke-width:1.5;"/>
   </g>
   <g id="line2d_25">
    <path clip-path="url(#pf603c6cc99)" d="M 92.290909 204.009626 
L 92.697133 204.009626 
L 93.103358 66.96 
L 93.509582 99.098137 
L 93.915807 117.702624 
L 94.322031 128.803644 
L 94.728256 135.656125 
L 95.13448 140.007451 
L 95.540704 134.833827 
L 95.946929 138.705479 
L 96.759378 143.330904 
L 97.571826 145.934847 
L 98.384275 147.579443 
L 99.196724 148.710102 
L 100.415397 149.806499 
L 101.63407 150.52601 
L 102.852744 150.971421 
L 104.883866 151.38257 
L 106.508763 151.588144 
L 108.94611 151.690931 
L 110.977232 151.965031 
L 111.383456 152.410442 
L 112.195905 153.849463 
L 113.414578 156.79603 
L 116.258149 164.470809 
L 116.664373 168.61656 
L 117.070598 167.931312 
L 117.476822 167.485901 
L 117.883047 167.211801 
L 118.289271 176.462651 
L 118.695495 193.765167 
L 119.10172 220.01017 
L 119.914169 288.980394 
L 120.320393 312.038994 
L 120.726618 327.148715 
L 121.132842 337.050551 
L 121.539066 343.59467 
L 121.945291 331.808402 
L 124.382637 233.372508 
L 125.195086 212.472441 
L 126.007535 197.808131 
L 126.819984 188.009082 
L 127.226208 185.199565 
L 127.632432 184.959728 
L 128.038657 188.180394 
L 128.444881 195.683861 
L 128.851106 207.641441 
L 129.663554 241.766798 
L 130.476003 273.870673 
L 130.882228 280.106431 
L 131.288452 276.611666 
L 132.100901 255.506023 
L 133.319574 221.517716 
L 134.132023 204.900449 
L 134.944472 193.25123 
L 135.350696 188.96843 
L 135.756921 186.158912 
L 136.163145 185.713501 
L 136.569369 188.523018 
L 136.975594 195.341237 
L 137.381818 206.442257 
L 138.194267 238.923018 
L 139.006716 270.650007 
L 139.41294 277.536751 
L 139.819165 274.898545 
L 140.225389 266.401468 
L 141.850287 223.025262 
L 142.662735 207.093243 
L 143.475184 195.889436 
L 144.287633 188.762855 
L 144.693857 187.495146 
L 145.100082 188.865642 
L 145.506306 193.593855 
L 145.912531 202.090931 
L 146.72498 229.26102 
L 147.537428 259.720299 
L 147.943653 268.971149 
L 148.349877 269.382298 
L 148.756102 263.317852 
L 151.193448 209.799973 
L 152.005897 199.178627 
L 152.818346 191.880734 
L 153.22457 189.653678 
L 153.630794 189.208266 
L 154.037019 191.366798 
L 154.443243 196.643209 
L 154.849468 205.34586 
L 155.661916 231.213977 
L 156.474365 257.45898 
L 156.88059 263.797525 
L 157.286814 262.084405 
L 157.693038 255.437498 
L 159.724161 213.397525 
L 160.536609 202.50208 
L 161.349058 194.861564 
L 161.755283 192.052046 
L 162.161507 190.441713 
L 162.567731 190.715812 
L 162.973956 193.491067 
L 163.38018 199.281414 
L 163.786405 208.18964 
L 165.411302 255.711598 
L 165.817527 259.514725 
L 166.223751 256.60242 
L 167.0362 241.355649 
L 168.254873 217.543277 
L 169.067322 206.06537 
L 169.879771 197.876655 
L 170.692219 192.154833 
L 171.098444 190.921387 
L 171.504668 191.572373 
L 171.910893 194.758776 
L 172.317117 200.823222 
L 173.129566 221.312141 
L 173.942015 246.083861 
L 174.348239 254.717988 
L 174.754464 257.082094 
L 175.160688 253.450279 
L 175.973137 238.340557 
L 177.19181 215.864419 
L 178.004259 205.174548 
L 178.816708 197.499769 
L 179.629156 192.120571 
L 180.035381 191.092699 
L 180.441605 192.017784 
L 180.84783 195.478287 
L 181.254054 201.851094 
L 182.066503 222.545588 
L 182.878952 246.700585 
L 183.285176 254.615201 
L 183.6914 255.985697 
L 184.097625 251.839946 
L 185.316298 228.747084 
L 186.128747 214.973596 
L 186.941196 204.729137 
L 187.753645 197.294194 
L 188.566093 192.086309 
L 188.972318 191.195486 
L 189.378542 192.257621 
L 189.784767 195.855173 
L 190.190991 202.365031 
L 191.00344 223.162311 
L 191.815889 247.008946 
L 192.222113 254.580938 
L 192.628337 255.471761 
L 193.034562 251.086173 
L 195.471908 209.080462 
L 196.284357 200.549123 
L 197.096806 194.210578 
L 197.50303 192.017784 
L 197.909255 191.195486 
L 198.315479 192.360408 
L 198.721704 196.09501 
L 199.127928 202.707655 
L 199.940377 223.676247 
L 200.752826 247.385833 
L 201.15905 254.75225 
L 201.565274 255.334711 
L 201.971499 250.709286 
L 204.408845 208.943413 
L 205.221294 200.446336 
L 206.033743 194.176315 
L 206.439967 192.017784 
L 206.846192 191.229748 
L 207.252416 192.428933 
L 207.65864 196.163535 
L 208.064865 202.810442 
L 208.877314 223.813297 
L 209.689762 247.454358 
L 210.095987 254.75225 
L 210.502211 255.163399 
L 210.908436 250.503712 
L 213.345782 208.840625 
L 214.158231 200.412073 
L 214.97068 194.176315 
L 215.376904 192.017784 
L 215.783129 191.229748 
L 216.189353 192.428933 
L 216.595577 196.23206 
L 217.001802 202.913229 
L 217.814251 223.916084 
L 218.626699 247.522882 
L 219.032924 254.75225 
L 219.439148 255.129137 
L 219.845373 250.435187 
L 222.282719 208.806363 
L 223.095168 200.412073 
L 223.907617 194.176315 
L 224.313841 192.017784 
L 224.720066 191.229748 
L 225.12629 192.463195 
L 225.532514 196.266322 
L 225.938739 202.947492 
L 226.751188 223.950347 
L 227.563636 247.557145 
L 227.969861 254.75225 
L 228.376085 255.094874 
L 228.78231 250.366662 
L 231.219656 208.772101 
L 232.032105 200.377811 
L 232.844554 194.142053 
L 233.250778 192.017784 
L 233.657002 191.229748 
L 234.063227 192.463195 
L 234.469451 196.266322 
L 234.875676 202.947492 
L 235.688124 223.984609 
L 236.500573 247.557145 
L 236.906798 254.75225 
L 237.313022 255.060612 
L 237.719247 250.3324 
L 240.156593 208.772101 
L 240.969042 200.377811 
L 241.781491 194.142053 
L 242.187715 192.017784 
L 242.593939 191.229748 
L 243.000164 192.463195 
L 243.406388 196.266322 
L 243.812613 202.947492 
L 244.625061 223.984609 
L 245.43751 247.591407 
L 245.843735 254.75225 
L 246.249959 255.060612 
L 246.656183 250.3324 
L 249.09353 208.772101 
L 249.905979 200.377811 
L 250.718428 194.142053 
L 251.124652 192.017784 
L 251.530876 191.229748 
L 251.937101 192.463195 
L 252.343325 196.266322 
L 252.74955 202.947492 
L 253.561998 223.984609 
L 254.374447 247.591407 
L 254.780672 254.75225 
L 255.186896 255.060612 
L 255.59312 250.3324 
L 258.030467 208.772101 
L 258.842916 200.377811 
L 259.655364 194.142053 
L 260.061589 192.017784 
L 260.467813 191.229748 
L 260.874038 192.463195 
L 261.280262 196.266322 
L 261.686486 202.981754 
L 262.498935 224.018872 
L 263.311384 247.591407 
L 263.717609 254.75225 
L 264.123833 255.060612 
L 264.530057 250.3324 
L 266.967404 208.772101 
L 267.779853 200.377811 
L 268.592301 194.142053 
L 268.998526 192.017784 
L 269.40475 191.229748 
L 269.810975 192.463195 
L 270.217199 196.266322 
L 270.623423 202.981754 
L 271.435872 224.018872 
L 272.248321 247.591407 
L 272.654545 254.75225 
L 273.06077 255.060612 
L 273.466994 250.3324 
L 275.904341 208.772101 
L 276.71679 200.377811 
L 277.529238 194.142053 
L 277.935463 192.017784 
L 278.341687 191.229748 
L 278.747912 192.463195 
L 279.154136 196.266322 
L 279.56036 202.981754 
L 280.372809 224.018872 
L 281.185258 247.591407 
L 281.591482 254.75225 
L 281.997707 255.060612 
L 282.403931 250.3324 
L 284.841278 208.772101 
L 285.653726 200.377811 
L 286.466175 194.142053 
L 286.8724 192.017784 
L 287.278624 191.229748 
L 287.684848 192.463195 
L 288.091073 196.266322 
L 288.497297 202.981754 
L 289.309746 224.018872 
L 290.122195 247.591407 
L 290.528419 254.75225 
L 290.934644 255.060612 
L 291.340868 250.3324 
L 293.778215 208.772101 
L 294.590663 200.377811 
L 295.403112 194.142053 
L 295.809337 192.017784 
L 296.215561 191.229748 
L 296.621785 192.463195 
L 297.02801 196.266322 
L 297.434234 202.981754 
L 298.246683 224.018872 
L 299.059132 247.591407 
L 299.465356 254.75225 
L 299.871581 255.060612 
L 300.277805 250.3324 
L 302.715152 208.772101 
L 303.5276 200.377811 
L 304.340049 194.142053 
L 304.746274 192.017784 
L 305.152498 191.229748 
L 305.558722 192.463195 
L 305.964947 196.266322 
L 306.371171 202.981754 
L 307.18362 224.018872 
L 307.996069 247.591407 
L 308.402293 254.75225 
L 308.808518 255.060612 
L 309.214742 250.3324 
L 311.652088 208.772101 
L 312.464537 200.377811 
L 313.276986 194.142053 
L 313.68321 192.017784 
L 314.089435 191.229748 
L 314.495659 192.463195 
L 314.901884 196.266322 
L 315.308108 202.981754 
L 316.120557 224.018872 
L 316.933006 247.591407 
L 317.33923 254.75225 
L 317.745455 255.060612 
L 318.151679 250.3324 
L 320.589025 208.772101 
L 321.401474 200.377811 
L 322.213923 194.142053 
L 322.620147 192.017784 
L 323.026372 191.229748 
L 323.432596 192.463195 
L 323.838821 196.266322 
L 324.245045 202.981754 
L 325.057494 224.018872 
L 325.869943 247.591407 
L 326.276167 254.75225 
L 326.682391 255.060612 
L 327.088616 250.3324 
L 329.525962 208.772101 
L 330.338411 200.377811 
L 331.15086 194.142053 
L 331.557084 192.017784 
L 331.963309 191.229748 
L 332.369533 192.463195 
L 332.775758 196.266322 
L 333.181982 202.981754 
L 333.994431 224.018872 
L 334.80688 247.591407 
L 335.213104 254.75225 
L 335.619328 255.060612 
L 336.025553 250.3324 
L 338.462899 208.772101 
L 339.275348 200.377811 
L 340.087797 194.142053 
L 340.494021 192.017784 
L 340.900246 191.229748 
L 341.30647 192.463195 
L 341.712695 196.266322 
L 342.118919 202.981754 
L 342.931368 224.018872 
L 343.743817 247.591407 
L 344.150041 254.75225 
L 344.556265 255.060612 
L 344.96249 250.3324 
L 347.399836 208.772101 
L 348.212285 200.377811 
L 349.024734 194.142053 
L 349.430958 192.017784 
L 349.837183 191.229748 
L 350.243407 192.463195 
L 350.649631 196.266322 
L 351.055856 202.981754 
L 351.868305 224.018872 
L 352.680753 247.591407 
L 353.086978 254.75225 
L 353.493202 255.060612 
L 353.899427 250.3324 
L 356.336773 208.772101 
L 357.149222 200.377811 
L 357.961671 194.142053 
L 358.367895 192.017784 
L 358.77412 191.229748 
L 359.180344 192.463195 
L 359.586568 196.266322 
L 359.992793 202.981754 
L 360.805242 224.018872 
L 361.61769 247.591407 
L 362.023915 254.75225 
L 362.430139 255.060612 
L 362.836364 250.3324 
L 365.27371 208.772101 
L 366.086159 200.377811 
L 366.898608 194.142053 
L 367.304832 192.017784 
L 367.711057 191.229748 
L 368.117281 192.463195 
L 368.523505 196.266322 
L 368.92973 202.981754 
L 369.742179 224.018872 
L 370.554627 247.591407 
L 370.960852 254.75225 
L 371.367076 255.060612 
L 371.773301 250.3324 
L 374.210647 208.772101 
L 375.023096 200.377811 
L 375.835545 194.142053 
L 376.241769 192.017784 
L 376.647993 191.229748 
L 377.054218 192.463195 
L 377.460442 196.266322 
L 377.866667 202.981754 
L 378.679115 224.018872 
L 379.491564 247.591407 
L 379.897789 254.75225 
L 380.304013 255.060612 
L 380.710238 250.3324 
L 383.147584 208.772101 
L 383.960033 200.377811 
L 384.772482 194.142053 
L 385.178706 192.017784 
L 385.58493 191.229748 
L 385.991155 192.463195 
L 386.397379 196.266322 
L 386.803604 202.981754 
L 387.616052 224.018872 
L 388.428501 247.591407 
L 388.834726 254.75225 
L 389.24095 255.060612 
L 389.647174 250.3324 
L 392.084521 208.772101 
L 392.89697 200.377811 
L 393.709419 194.142053 
L 394.115643 192.017784 
L 394.521867 191.229748 
L 394.928092 192.463195 
L 395.334316 196.266322 
L 395.740541 202.981754 
L 396.552989 224.018872 
L 397.365438 247.591407 
L 397.771663 254.75225 
L 398.177887 255.060612 
L 398.584111 250.3324 
L 401.021458 208.772101 
L 401.833907 200.377811 
L 402.646355 194.142053 
L 403.05258 192.017784 
L 403.458804 191.229748 
L 403.865029 192.463195 
L 404.271253 196.266322 
L 404.677477 202.981754 
L 405.489926 224.018872 
L 406.302375 247.591407 
L 406.7086 254.75225 
L 407.114824 255.060612 
L 407.521048 250.3324 
L 409.958395 208.772101 
L 410.770844 200.377811 
L 411.583292 194.142053 
L 411.989517 192.017784 
L 412.395741 191.229748 
L 412.801966 192.463195 
L 413.20819 196.266322 
L 413.614414 202.981754 
L 414.426863 224.018872 
L 415.239312 247.591407 
L 415.645536 254.75225 
L 416.051761 255.060612 
L 416.457985 250.3324 
L 418.895332 208.772101 
L 419.707781 200.377811 
L 420.520229 194.142053 
L 420.926454 192.017784 
L 421.332678 191.229748 
L 421.738903 192.463195 
L 422.145127 196.266322 
L 422.551351 202.981754 
L 423.3638 224.018872 
L 424.176249 247.591407 
L 424.582473 254.75225 
L 424.988698 255.060612 
L 425.394922 250.3324 
L 427.832269 208.772101 
L 428.644717 200.377811 
L 429.457166 194.142053 
L 429.863391 192.017784 
L 430.269615 191.229748 
L 430.675839 192.463195 
L 431.082064 196.266322 
L 431.488288 202.981754 
L 432.300737 224.018872 
L 433.113186 247.591407 
L 433.51941 254.75225 
L 433.925635 255.060612 
L 434.331859 250.3324 
L 436.769206 208.772101 
L 437.581654 200.377811 
L 438.394103 194.142053 
L 438.800328 192.017784 
L 439.206552 191.229748 
L 439.612776 192.463195 
L 440.019001 196.266322 
L 440.425225 202.981754 
L 441.237674 224.018872 
L 442.050123 247.591407 
L 442.456347 254.75225 
L 442.862572 255.060612 
L 443.268796 250.3324 
L 445.706143 208.772101 
L 446.518591 200.377811 
L 447.33104 194.142053 
L 447.737265 192.017784 
L 448.143489 191.229748 
L 448.549713 192.463195 
L 448.955938 196.266322 
L 449.362162 202.981754 
L 450.174611 224.018872 
L 450.98706 247.591407 
L 451.393284 254.75225 
L 451.799509 255.060612 
L 452.205733 250.3324 
L 454.643079 208.772101 
L 455.455528 200.377811 
L 456.267977 194.142053 
L 456.674201 192.017784 
L 457.080426 191.229748 
L 457.48665 192.463195 
L 457.892875 196.266322 
L 458.299099 202.981754 
L 459.111548 224.018872 
L 459.923997 247.591407 
L 460.330221 254.75225 
L 460.736446 255.060612 
L 461.14267 250.3324 
L 463.580016 208.772101 
L 464.392465 200.377811 
L 465.204914 194.142053 
L 465.611138 192.017784 
L 466.017363 191.229748 
L 466.423587 192.463195 
L 466.829812 196.266322 
L 467.236036 202.981754 
L 468.048485 224.018872 
L 468.860934 247.591407 
L 469.267158 254.75225 
L 469.673382 255.060612 
L 470.079607 250.3324 
L 472.516953 208.772101 
L 473.329402 200.377811 
L 474.141851 194.142053 
L 474.548075 192.017784 
L 474.9543 191.229748 
L 475.360524 192.463195 
L 475.766749 196.266322 
L 476.172973 202.981754 
L 476.985422 224.018872 
L 477.797871 247.591407 
L 478.204095 254.75225 
L 478.610319 255.060612 
L 479.016544 250.3324 
L 481.45389 208.772101 
L 482.266339 200.377811 
L 483.078788 194.142053 
L 483.485012 192.017784 
L 483.891237 191.229748 
L 484.297461 192.463195 
L 484.703686 196.266322 
L 485.10991 202.981754 
L 485.922359 224.018872 
L 486.734808 247.591407 
L 487.141032 254.75225 
L 487.547256 255.060612 
L 487.953481 250.3324 
L 490.390827 208.772101 
L 491.203276 200.377811 
L 492.015725 194.142053 
L 492.421949 192.017784 
L 492.828174 191.229748 
L 493.234398 192.463195 
L 493.640622 196.266322 
L 494.046847 202.981754 
L 494.859296 224.018872 
L 495.671744 247.591407 
L 496.077969 254.75225 
L 496.484193 255.060612 
L 496.890418 250.3324 
L 498.109091 227.342325 
L 498.109091 227.342325 
" style="fill:none;stroke:#ff0000;stroke-linecap:square;stroke-width:1.5;"/>
   </g>
   <g id="line2d_26">
    <path clip-path="url(#pf603c6cc99)" d="M 92.290909 204.009626 
L 92.697133 204.009626 
L 93.103358 204.009626 
L 93.509582 186.878423 
L 93.915807 178.038722 
L 94.322031 173.755921 
L 94.728256 171.905751 
L 95.13448 171.391815 
L 95.540704 171.563127 
L 95.946929 171.014929 
L 96.353153 171.117716 
L 96.759378 171.494602 
L 99.196724 174.749531 
L 100.415397 175.811666 
L 101.63407 176.531176 
L 103.258968 177.147899 
L 104.883866 177.456261 
L 106.914988 177.696098 
L 109.758559 177.833148 
L 111.383456 177.901672 
L 112.195905 178.107247 
L 113.008354 178.58692 
L 113.820803 179.272169 
L 115.039476 180.608402 
L 116.664373 182.664147 
L 117.070598 183.589232 
L 117.883047 184.582842 
L 119.10172 303.850279 
L 119.507944 347.534847 
L 119.914169 369.36 
L 120.320393 338.660884 
L 120.726618 318.480326 
L 121.132842 305.255037 
L 121.539066 296.586649 
L 121.945291 226.657077 
L 122.351515 201.337158 
L 122.75774 185.884813 
L 123.163964 177.559048 
L 123.570188 173.721659 
L 123.976413 172.419687 
L 124.382637 172.556737 
L 124.788862 173.481822 
L 125.60131 176.188552 
L 126.819984 180.642665 
L 127.226208 184.822678 
L 127.632432 193.559592 
L 128.038657 207.470129 
L 128.851106 247.728457 
L 129.663554 286.684813 
L 130.069779 294.702216 
L 130.476003 288.500721 
L 130.882228 263.797525 
L 131.288452 228.096098 
L 131.694676 203.050279 
L 132.100901 188.523018 
L 132.507125 181.019551 
L 132.91335 177.661835 
L 133.319574 176.633963 
L 133.725799 176.8738 
L 134.132023 177.73036 
L 135.350696 181.533487 
L 135.756921 185.302352 
L 136.163145 193.285493 
L 136.569369 206.133895 
L 137.381818 244.028117 
L 138.194267 282.641849 
L 138.600491 291.550075 
L 139.006716 287.027437 
L 139.41294 264.962447 
L 139.819165 230.186105 
L 140.225389 205.448647 
L 140.631613 191.024174 
L 141.037838 183.520707 
L 141.444062 180.128729 
L 141.850287 179.032332 
L 142.256511 179.169381 
L 142.662735 179.923154 
L 143.881409 183.41792 
L 144.287633 185.816288 
L 144.693857 191.401061 
L 145.100082 201.234371 
L 145.912531 232.721523 
L 146.72498 269.210986 
L 147.131204 280.928729 
L 147.537428 282.162175 
L 147.943653 268.868362 
L 148.756102 212.506703 
L 149.162326 196.643209 
L 149.56855 188.077607 
L 149.974775 183.966118 
L 150.380999 182.390048 
L 150.787224 182.218736 
L 151.193448 182.801196 
L 152.818346 186.330224 
L 153.22457 189.036954 
L 153.630794 195.135663 
L 154.037019 205.174548 
L 154.849468 235.119891 
L 155.661916 266.70983 
L 156.068141 274.898545 
L 156.474365 272.500177 
L 156.88059 256.019959 
L 157.286814 227.171013 
L 157.693038 206.442257 
L 158.099263 194.279103 
L 158.505487 187.940557 
L 158.911712 185.096778 
L 159.317936 184.205955 
L 159.724161 184.343005 
L 160.130385 184.99399 
L 160.942834 186.638586 
L 161.349058 187.221047 
L 161.755283 188.248919 
L 162.161507 191.606635 
L 162.567731 198.253542 
L 162.973956 208.532264 
L 163.786405 237.24416 
L 164.598853 264.72261 
L 165.005078 269.964759 
L 165.411302 264.379986 
L 165.817527 245.090252 
L 166.223751 220.14722 
L 166.629975 203.016016 
L 167.0362 193.216968 
L 167.442424 188.283182 
L 167.848649 186.158912 
L 168.254873 185.610714 
L 168.661097 185.919075 
L 169.879771 187.803508 
L 170.285995 188.111869 
L 170.692219 189.379579 
L 171.098444 193.079918 
L 171.504668 200.069449 
L 172.317117 223.744772 
L 173.129566 252.730768 
L 173.53579 263.591951 
L 173.942015 267.120979 
L 174.348239 259.686037 
L 175.566912 201.028797 
L 175.973137 192.600245 
L 176.379361 188.420231 
L 176.785586 186.741373 
L 177.19181 186.433012 
L 177.598034 186.809898 
L 178.410483 187.97482 
L 178.816708 188.351706 
L 179.222932 188.557281 
L 179.629156 189.962039 
L 180.035381 193.970741 
L 180.441605 201.268634 
L 181.254054 225.183793 
L 182.066503 253.484541 
L 182.472727 263.523426 
L 182.878952 265.887532 
L 183.285176 257.116356 
L 184.097625 213.431788 
L 184.503849 199.692563 
L 184.910074 192.154833 
L 185.316298 188.488756 
L 185.722523 187.083997 
L 186.128747 186.912685 
L 186.534971 187.323834 
L 187.34742 188.351706 
L 187.753645 188.660068 
L 188.159869 188.762855 
L 188.566093 190.236139 
L 188.972318 194.416152 
L 189.378542 201.851094 
L 190.190991 225.903304 
L 191.00344 253.861428 
L 191.409664 263.489164 
L 191.815889 265.305071 
L 192.222113 255.848647 
L 193.034562 212.129816 
L 193.440786 199.041577 
L 193.847011 191.914997 
L 194.253235 188.488756 
L 194.659459 187.221047 
L 195.065684 187.083997 
L 196.690581 188.762855 
L 197.096806 188.83138 
L 197.50303 190.373188 
L 197.909255 194.655989 
L 198.315479 202.262243 
L 199.127928 226.520027 
L 199.940377 254.341101 
L 200.346601 263.694738 
L 200.752826 265.099497 
L 201.15905 255.163399 
L 201.971499 211.273256 
L 202.377723 198.596166 
L 202.783948 191.743685 
L 203.190172 188.488756 
L 203.596396 187.289572 
L 204.002621 187.221047 
L 205.221294 188.591543 
L 205.627518 188.83138 
L 206.033743 188.865642 
L 206.439967 190.441713 
L 206.846192 194.758776 
L 207.252416 202.399293 
L 208.064865 226.657077 
L 208.877314 254.409626 
L 209.283538 263.660476 
L 209.689762 264.962447 
L 210.095987 254.855037 
L 210.908436 210.964895 
L 211.31466 198.424854 
L 211.720885 191.67516 
L 212.127109 188.488756 
L 212.533333 187.358097 
L 212.939558 187.289572 
L 214.158231 188.625806 
L 214.564455 188.865642 
L 214.97068 188.899905 
L 215.376904 190.475976 
L 215.783129 194.827301 
L 216.189353 202.50208 
L 217.001802 226.794126 
L 217.814251 254.478151 
L 218.220475 263.694738 
L 218.626699 264.893923 
L 219.032924 254.683725 
L 219.845373 210.75932 
L 220.251597 198.356329 
L 220.657821 191.640897 
L 221.064046 188.488756 
L 221.47027 187.358097 
L 221.876495 187.323834 
L 223.095168 188.660068 
L 223.501392 188.865642 
L 223.907617 188.899905 
L 224.313841 190.510238 
L 224.720066 194.861564 
L 225.12629 202.536343 
L 225.938739 226.828389 
L 226.751188 254.512413 
L 227.157412 263.694738 
L 227.563636 264.85966 
L 227.969861 254.615201 
L 228.78231 210.690795 
L 229.188534 198.287804 
L 229.594758 191.640897 
L 230.000983 188.488756 
L 230.407207 187.358097 
L 230.813432 187.323834 
L 232.032105 188.660068 
L 232.438329 188.865642 
L 232.844554 188.934167 
L 233.250778 190.510238 
L 233.657002 194.861564 
L 234.063227 202.536343 
L 234.875676 226.862651 
L 235.688124 254.512413 
L 236.094349 263.694738 
L 236.500573 264.825398 
L 236.906798 254.580938 
L 237.719247 210.622271 
L 238.125471 198.287804 
L 238.531695 191.640897 
L 238.93792 188.488756 
L 239.344144 187.392359 
L 239.750369 187.358097 
L 241.375266 188.865642 
L 241.781491 188.934167 
L 242.187715 190.510238 
L 242.593939 194.895826 
L 243.000164 202.570605 
L 243.812613 226.862651 
L 244.625061 254.546676 
L 245.031286 263.694738 
L 245.43751 264.825398 
L 245.843735 254.546676 
L 246.656183 210.622271 
L 247.062408 198.253542 
L 247.468632 191.640897 
L 247.874857 188.488756 
L 248.281081 187.392359 
L 248.687305 187.358097 
L 249.905979 188.660068 
L 250.312203 188.899905 
L 250.718428 188.934167 
L 251.124652 190.510238 
L 251.530876 194.895826 
L 251.937101 202.570605 
L 252.74955 226.896914 
L 253.561998 254.546676 
L 253.968223 263.694738 
L 254.374447 264.825398 
L 254.780672 254.546676 
L 255.59312 210.588008 
L 255.999345 198.253542 
L 256.405569 191.640897 
L 256.811794 188.488756 
L 257.218018 187.392359 
L 257.624242 187.358097 
L 258.842916 188.69433 
L 259.24914 188.899905 
L 259.655364 188.934167 
L 260.061589 190.510238 
L 260.467813 194.895826 
L 260.874038 202.570605 
L 261.686486 226.896914 
L 262.498935 254.546676 
L 262.90516 263.694738 
L 263.311384 264.825398 
L 263.717609 254.546676 
L 264.530057 210.588008 
L 264.936282 198.253542 
L 265.342506 191.606635 
L 265.748731 188.488756 
L 266.154955 187.392359 
L 266.561179 187.358097 
L 267.779853 188.69433 
L 268.186077 188.899905 
L 268.592301 188.934167 
L 268.998526 190.510238 
L 269.40475 194.895826 
L 269.810975 202.570605 
L 270.623423 226.896914 
L 271.435872 254.546676 
L 271.842097 263.694738 
L 272.248321 264.825398 
L 272.654545 254.512413 
L 273.466994 210.588008 
L 273.873219 198.253542 
L 274.279443 191.606635 
L 274.685667 188.488756 
L 275.091892 187.392359 
L 275.498116 187.358097 
L 276.71679 188.69433 
L 277.123014 188.899905 
L 277.529238 188.934167 
L 277.935463 190.510238 
L 278.341687 194.895826 
L 278.747912 202.570605 
L 279.56036 226.896914 
L 280.372809 254.546676 
L 280.779034 263.694738 
L 281.185258 264.825398 
L 281.591482 254.512413 
L 282.403931 210.588008 
L 282.810156 198.253542 
L 283.21638 191.606635 
L 283.622604 188.488756 
L 284.028829 187.392359 
L 284.435053 187.358097 
L 285.653726 188.69433 
L 286.059951 188.899905 
L 286.466175 188.934167 
L 286.8724 190.510238 
L 287.278624 194.895826 
L 287.684848 202.570605 
L 288.497297 226.896914 
L 289.309746 254.546676 
L 289.715971 263.694738 
L 290.122195 264.825398 
L 290.528419 254.512413 
L 291.340868 210.588008 
L 291.747093 198.253542 
L 292.153317 191.606635 
L 292.559541 188.488756 
L 292.965766 187.392359 
L 293.37199 187.358097 
L 294.590663 188.69433 
L 294.996888 188.899905 
L 295.403112 188.934167 
L 295.809337 190.510238 
L 296.215561 194.895826 
L 296.621785 202.570605 
L 297.434234 226.896914 
L 298.246683 254.546676 
L 298.652907 263.694738 
L 299.059132 264.825398 
L 299.465356 254.512413 
L 300.277805 210.588008 
L 300.684029 198.253542 
L 301.090254 191.606635 
L 301.496478 188.488756 
L 301.902703 187.392359 
L 302.308927 187.358097 
L 303.5276 188.69433 
L 303.933825 188.899905 
L 304.340049 188.934167 
L 304.746274 190.510238 
L 305.152498 194.895826 
L 305.558722 202.570605 
L 306.371171 226.896914 
L 307.18362 254.546676 
L 307.589844 263.694738 
L 307.996069 264.825398 
L 308.402293 254.512413 
L 309.214742 210.588008 
L 309.620966 198.253542 
L 310.027191 191.606635 
L 310.433415 188.488756 
L 310.83964 187.392359 
L 311.245864 187.358097 
L 312.464537 188.69433 
L 312.870762 188.899905 
L 313.276986 188.934167 
L 313.68321 190.510238 
L 314.089435 194.895826 
L 314.495659 202.570605 
L 315.308108 226.896914 
L 316.120557 254.546676 
L 316.526781 263.694738 
L 316.933006 264.825398 
L 317.33923 254.512413 
L 318.151679 210.588008 
L 318.557903 198.253542 
L 318.964128 191.606635 
L 319.370352 188.488756 
L 319.776577 187.392359 
L 320.182801 187.358097 
L 321.401474 188.69433 
L 321.807699 188.899905 
L 322.213923 188.934167 
L 322.620147 190.510238 
L 323.026372 194.895826 
L 323.432596 202.570605 
L 324.245045 226.896914 
L 325.057494 254.546676 
L 325.463718 263.694738 
L 325.869943 264.825398 
L 326.276167 254.512413 
L 327.088616 210.588008 
L 327.49484 198.253542 
L 327.901065 191.606635 
L 328.307289 188.488756 
L 328.713514 187.392359 
L 329.119738 187.358097 
L 330.338411 188.69433 
L 330.744636 188.899905 
L 331.15086 188.934167 
L 331.557084 190.510238 
L 331.963309 194.895826 
L 332.369533 202.570605 
L 333.181982 226.896914 
L 333.994431 254.546676 
L 334.400655 263.694738 
L 334.80688 264.825398 
L 335.213104 254.512413 
L 336.025553 210.588008 
L 336.431777 198.253542 
L 336.838002 191.606635 
L 337.244226 188.488756 
L 337.65045 187.392359 
L 338.056675 187.358097 
L 339.275348 188.69433 
L 339.681572 188.899905 
L 340.087797 188.934167 
L 340.494021 190.510238 
L 340.900246 194.895826 
L 341.30647 202.570605 
L 342.118919 226.896914 
L 342.931368 254.546676 
L 343.337592 263.694738 
L 343.743817 264.825398 
L 344.150041 254.512413 
L 344.96249 210.588008 
L 345.368714 198.253542 
L 345.774939 191.606635 
L 346.181163 188.488756 
L 346.587387 187.392359 
L 346.993612 187.358097 
L 348.212285 188.69433 
L 348.618509 188.899905 
L 349.024734 188.934167 
L 349.430958 190.510238 
L 349.837183 194.895826 
L 350.243407 202.570605 
L 351.055856 226.896914 
L 351.868305 254.546676 
L 352.274529 263.694738 
L 352.680753 264.825398 
L 353.086978 254.512413 
L 353.899427 210.588008 
L 354.305651 198.253542 
L 354.711876 191.606635 
L 355.1181 188.488756 
L 355.524324 187.392359 
L 355.930549 187.358097 
L 357.149222 188.69433 
L 357.555446 188.899905 
L 357.961671 188.934167 
L 358.367895 190.510238 
L 358.77412 194.895826 
L 359.180344 202.570605 
L 359.992793 226.896914 
L 360.805242 254.546676 
L 361.211466 263.694738 
L 361.61769 264.825398 
L 362.023915 254.512413 
L 362.836364 210.588008 
L 363.242588 198.253542 
L 363.648812 191.606635 
L 364.055037 188.488756 
L 364.461261 187.392359 
L 364.867486 187.358097 
L 366.086159 188.69433 
L 366.492383 188.899905 
L 366.898608 188.934167 
L 367.304832 190.510238 
L 367.711057 194.895826 
L 368.117281 202.570605 
L 368.92973 226.896914 
L 369.742179 254.546676 
L 370.148403 263.694738 
L 370.554627 264.825398 
L 370.960852 254.512413 
L 371.773301 210.588008 
L 372.179525 198.253542 
L 372.585749 191.606635 
L 372.991974 188.488756 
L 373.398198 187.392359 
L 373.804423 187.358097 
L 375.023096 188.69433 
L 375.42932 188.899905 
L 375.835545 188.934167 
L 376.241769 190.510238 
L 376.647993 194.895826 
L 377.054218 202.570605 
L 377.866667 226.896914 
L 378.679115 254.546676 
L 379.08534 263.694738 
L 379.491564 264.825398 
L 379.897789 254.512413 
L 380.710238 210.588008 
L 381.116462 198.253542 
L 381.522686 191.606635 
L 381.928911 188.488756 
L 382.335135 187.392359 
L 382.74136 187.358097 
L 383.960033 188.69433 
L 384.366257 188.899905 
L 384.772482 188.934167 
L 385.178706 190.510238 
L 385.58493 194.895826 
L 385.991155 202.570605 
L 386.803604 226.896914 
L 387.616052 254.546676 
L 388.022277 263.694738 
L 388.428501 264.825398 
L 388.834726 254.512413 
L 389.647174 210.588008 
L 390.053399 198.253542 
L 390.459623 191.606635 
L 390.865848 188.488756 
L 391.272072 187.392359 
L 391.678296 187.358097 
L 392.89697 188.69433 
L 393.303194 188.899905 
L 393.709419 188.934167 
L 394.115643 190.510238 
L 394.521867 194.895826 
L 394.928092 202.570605 
L 395.740541 226.896914 
L 396.552989 254.546676 
L 396.959214 263.694738 
L 397.365438 264.825398 
L 397.771663 254.512413 
L 398.584111 210.588008 
L 398.990336 198.253542 
L 399.39656 191.606635 
L 399.802785 188.488756 
L 400.209009 187.392359 
L 400.615233 187.358097 
L 401.833907 188.69433 
L 402.240131 188.899905 
L 402.646355 188.934167 
L 403.05258 190.510238 
L 403.458804 194.895826 
L 403.865029 202.570605 
L 404.677477 226.896914 
L 405.489926 254.546676 
L 405.896151 263.694738 
L 406.302375 264.825398 
L 406.7086 254.512413 
L 407.521048 210.588008 
L 407.927273 198.253542 
L 408.333497 191.606635 
L 408.739722 188.488756 
L 409.145946 187.392359 
L 409.55217 187.358097 
L 410.770844 188.69433 
L 411.177068 188.899905 
L 411.583292 188.934167 
L 411.989517 190.510238 
L 412.395741 194.895826 
L 412.801966 202.570605 
L 413.614414 226.896914 
L 414.426863 254.546676 
L 414.833088 263.694738 
L 415.239312 264.825398 
L 415.645536 254.512413 
L 416.457985 210.588008 
L 416.86421 198.253542 
L 417.270434 191.606635 
L 417.676658 188.488756 
L 418.082883 187.392359 
L 418.489107 187.358097 
L 419.707781 188.69433 
L 420.114005 188.899905 
L 420.520229 188.934167 
L 420.926454 190.510238 
L 421.332678 194.895826 
L 421.738903 202.570605 
L 422.551351 226.896914 
L 423.3638 254.546676 
L 423.770025 263.694738 
L 424.176249 264.825398 
L 424.582473 254.512413 
L 425.394922 210.588008 
L 425.801147 198.253542 
L 426.207371 191.606635 
L 426.613595 188.488756 
L 427.01982 187.392359 
L 427.426044 187.358097 
L 428.644717 188.69433 
L 429.050942 188.899905 
L 429.457166 188.934167 
L 429.863391 190.510238 
L 430.269615 194.895826 
L 430.675839 202.570605 
L 431.488288 226.896914 
L 432.300737 254.546676 
L 432.706962 263.694738 
L 433.113186 264.825398 
L 433.51941 254.512413 
L 434.331859 210.588008 
L 434.738084 198.253542 
L 435.144308 191.606635 
L 435.550532 188.488756 
L 435.956757 187.392359 
L 436.362981 187.358097 
L 437.581654 188.69433 
L 437.987879 188.899905 
L 438.394103 188.934167 
L 438.800328 190.510238 
L 439.206552 194.895826 
L 439.612776 202.570605 
L 440.425225 226.896914 
L 441.237674 254.546676 
L 441.643898 263.694738 
L 442.050123 264.825398 
L 442.456347 254.512413 
L 443.268796 210.588008 
L 443.67502 198.253542 
L 444.081245 191.606635 
L 444.487469 188.488756 
L 444.893694 187.392359 
L 445.299918 187.358097 
L 446.518591 188.69433 
L 446.924816 188.899905 
L 447.33104 188.934167 
L 447.737265 190.510238 
L 448.143489 194.895826 
L 448.549713 202.570605 
L 449.362162 226.896914 
L 450.174611 254.546676 
L 450.580835 263.694738 
L 450.98706 264.825398 
L 451.393284 254.512413 
L 452.205733 210.588008 
L 452.611957 198.253542 
L 453.018182 191.606635 
L 453.424406 188.488756 
L 453.830631 187.392359 
L 454.236855 187.358097 
L 455.455528 188.69433 
L 455.861753 188.899905 
L 456.267977 188.934167 
L 456.674201 190.510238 
L 457.080426 194.895826 
L 457.48665 202.570605 
L 458.299099 226.896914 
L 459.111548 254.546676 
L 459.517772 263.694738 
L 459.923997 264.825398 
L 460.330221 254.512413 
L 461.14267 210.588008 
L 461.548894 198.253542 
L 461.955119 191.606635 
L 462.361343 188.488756 
L 462.767568 187.392359 
L 463.173792 187.358097 
L 464.392465 188.69433 
L 464.79869 188.899905 
L 465.204914 188.934167 
L 465.611138 190.510238 
L 466.017363 194.895826 
L 466.423587 202.570605 
L 467.236036 226.896914 
L 468.048485 254.546676 
L 468.454709 263.694738 
L 468.860934 264.825398 
L 469.267158 254.512413 
L 470.079607 210.588008 
L 470.485831 198.253542 
L 470.892056 191.606635 
L 471.29828 188.488756 
L 471.704505 187.392359 
L 472.110729 187.358097 
L 473.329402 188.69433 
L 473.735627 188.899905 
L 474.141851 188.934167 
L 474.548075 190.510238 
L 474.9543 194.895826 
L 475.360524 202.570605 
L 476.172973 226.896914 
L 476.985422 254.546676 
L 477.391646 263.694738 
L 477.797871 264.825398 
L 478.204095 254.512413 
L 479.016544 210.588008 
L 479.422768 198.253542 
L 479.828993 191.606635 
L 480.235217 188.488756 
L 480.641441 187.392359 
L 481.047666 187.358097 
L 482.266339 188.69433 
L 482.672563 188.899905 
L 483.078788 188.934167 
L 483.485012 190.510238 
L 483.891237 194.895826 
L 484.297461 202.570605 
L 485.10991 226.896914 
L 485.922359 254.546676 
L 486.328583 263.694738 
L 486.734808 264.825398 
L 487.141032 254.512413 
L 487.953481 210.588008 
L 488.359705 198.253542 
L 488.76593 191.606635 
L 489.172154 188.488756 
L 489.578378 187.392359 
L 489.984603 187.358097 
L 491.203276 188.69433 
L 491.6095 188.899905 
L 492.015725 188.934167 
L 492.421949 190.510238 
L 492.828174 194.895826 
L 493.234398 202.570605 
L 494.046847 226.896914 
L 494.859296 254.546676 
L 495.26552 263.694738 
L 495.671744 264.825398 
L 496.077969 254.512413 
L 496.890418 210.588008 
L 497.296642 198.253542 
L 497.702867 191.606635 
L 498.109091 188.488756 
L 498.109091 188.488756 
" style="fill:none;stroke:#008000;stroke-linecap:square;stroke-width:1.5;"/>
   </g>
   <g id="patch_3">
    <path d="M 72 384.48 
L 72 51.84 
" style="fill:none;stroke:#000000;stroke-linecap:square;stroke-linejoin:miter;stroke-width:0.8;"/>
   </g>
   <g id="patch_4">
    <path d="M 518.4 384.48 
L 518.4 51.84 
" style="fill:none;stroke:#000000;stroke-linecap:square;stroke-linejoin:miter;stroke-width:0.8;"/>
   </g>
   <g id="patch_5">
    <path d="M 72 384.48 
L 518.4 384.48 
" style="fill:none;stroke:#000000;stroke-linecap:square;stroke-linejoin:miter;stroke-width:0.8;"/>
   </g>
   <g id="patch_6">
    <path d="M 72 51.84 
L 518.4 51.84 
" style="fill:none;stroke:#000000;stroke-linecap:square;stroke-linejoin:miter;stroke-width:0.8;"/>
   </g>
   <g id="text_14">
    <!-- $\partial\mathcal{L} / \partial\lambda_{m}$ -->
    <g transform="translate(271.61 45.84)scale(0.14 -0.14)">
     <use transform="translate(0 0.015625)" xlink:href="#DejaVuSans-2202"/>
     <use transform="translate(51.708984 0.015625)" xlink:href="#STIXNonUnicode-Italic-e238"/>
     <use transform="translate(121.008972 0.015625)" xlink:href="#DejaVuSans-2f"/>
     <use transform="translate(154.700378 0.015625)" xlink:href="#DejaVuSans-2202"/>
     <use transform="translate(206.409363 0.015625)" xlink:href="#DejaVuSans-Oblique-3bb"/>
     <use transform="translate(265.58905 -16.390625)scale(0.7)" xlink:href="#DejaVuSans-Oblique-6d"/>
    </g>
   </g>
   <g id="legend_1">
    <g id="patch_7">
     <path d="M 448.1 379.48 
L 511.4 379.48 
Q 513.4 379.48 513.4 377.48 
L 513.4 319.7675 
Q 513.4 317.7675 511.4 317.7675 
L 448.1 317.7675 
Q 446.1 317.7675 446.1 319.7675 
L 446.1 377.48 
Q 446.1 379.48 448.1 379.48 
z
" style="fill:#ffffff;opacity:0.8;stroke:#cccccc;stroke-linejoin:miter;"/>
    </g>
    <g id="line2d_27">
     <path d="M 450.1 325.865937 
L 470.1 325.865937 
" style="fill:none;stroke:#bf00bf;stroke-linecap:square;stroke-width:1.5;"/>
    </g>
    <g id="line2d_28"/>
    <g id="text_15">
     <!-- $\partial\mathcal{L} / \partial\lambda_{1}$ -->
     <g transform="translate(478.1 329.365937)scale(0.1 -0.1)">
      <use transform="translate(0 0.015625)" xlink:href="#DejaVuSans-2202"/>
      <use transform="translate(51.708984 0.015625)" xlink:href="#STIXNonUnicode-Italic-e238"/>
      <use transform="translate(121.008972 0.015625)" xlink:href="#DejaVuSans-2f"/>
      <use transform="translate(154.700378 0.015625)" xlink:href="#DejaVuSans-2202"/>
      <use transform="translate(206.409363 0.015625)" xlink:href="#DejaVuSans-Oblique-3bb"/>
      <use transform="translate(265.58905 -16.390625)scale(0.7)" xlink:href="#DejaVuSans-31"/>
     </g>
    </g>
    <g id="line2d_29">
     <path d="M 450.1 340.544062 
L 470.1 340.544062 
" style="fill:none;stroke:#00bfbf;stroke-linecap:square;stroke-width:1.5;"/>
    </g>
    <g id="line2d_30"/>
    <g id="text_16">
     <!-- $\partial\mathcal{L} / \partial\lambda_{2}$ -->
     <g transform="translate(478.1 344.044062)scale(0.1 -0.1)">
      <use transform="translate(0 0.015625)" xlink:href="#DejaVuSans-2202"/>
      <use transform="translate(51.708984 0.015625)" xlink:href="#STIXNonUnicode-Italic-e238"/>
      <use transform="translate(121.008972 0.015625)" xlink:href="#DejaVuSans-2f"/>
      <use transform="translate(154.700378 0.015625)" xlink:href="#DejaVuSans-2202"/>
      <use transform="translate(206.409363 0.015625)" xlink:href="#DejaVuSans-Oblique-3bb"/>
      <use transform="translate(265.58905 -16.390625)scale(0.7)" xlink:href="#DejaVuSans-32"/>
     </g>
    </g>
    <g id="line2d_31">
     <path d="M 450.1 355.222188 
L 470.1 355.222188 
" style="fill:none;stroke:#ff0000;stroke-linecap:square;stroke-width:1.5;"/>
    </g>
    <g id="line2d_32"/>
    <g id="text_17">
     <!-- $\partial\mathcal{L} / \partial\lambda_{3}$ -->
     <defs>
      <path d="M 40.578125 39.3125 
Q 47.65625 37.796875 51.625 33 
Q 55.609375 28.21875 55.609375 21.1875 
Q 55.609375 10.40625 48.1875 4.484375 
Q 40.765625 -1.421875 27.09375 -1.421875 
Q 22.515625 -1.421875 17.65625 -0.515625 
Q 12.796875 0.390625 7.625 2.203125 
L 7.625 11.71875 
Q 11.71875 9.328125 16.59375 8.109375 
Q 21.484375 6.890625 26.8125 6.890625 
Q 36.078125 6.890625 40.9375 10.546875 
Q 45.796875 14.203125 45.796875 21.1875 
Q 45.796875 27.640625 41.28125 31.265625 
Q 36.765625 34.90625 28.71875 34.90625 
L 20.21875 34.90625 
L 20.21875 43.015625 
L 29.109375 43.015625 
Q 36.375 43.015625 40.234375 45.921875 
Q 44.09375 48.828125 44.09375 54.296875 
Q 44.09375 59.90625 40.109375 62.90625 
Q 36.140625 65.921875 28.71875 65.921875 
Q 24.65625 65.921875 20.015625 65.03125 
Q 15.375 64.15625 9.8125 62.3125 
L 9.8125 71.09375 
Q 15.4375 72.65625 20.34375 73.4375 
Q 25.25 74.21875 29.59375 74.21875 
Q 40.828125 74.21875 47.359375 69.109375 
Q 53.90625 64.015625 53.90625 55.328125 
Q 53.90625 49.265625 50.4375 45.09375 
Q 46.96875 40.921875 40.578125 39.3125 
z
" id="DejaVuSans-33"/>
     </defs>
     <g transform="translate(478.1 358.722188)scale(0.1 -0.1)">
      <use transform="translate(0 0.015625)" xlink:href="#DejaVuSans-2202"/>
      <use transform="translate(51.708984 0.015625)" xlink:href="#STIXNonUnicode-Italic-e238"/>
      <use transform="translate(121.008972 0.015625)" xlink:href="#DejaVuSans-2f"/>
      <use transform="translate(154.700378 0.015625)" xlink:href="#DejaVuSans-2202"/>
      <use transform="translate(206.409363 0.015625)" xlink:href="#DejaVuSans-Oblique-3bb"/>
      <use transform="translate(265.58905 -16.390625)scale(0.7)" xlink:href="#DejaVuSans-33"/>
     </g>
    </g>
    <g id="line2d_33">
     <path d="M 450.1 369.900312 
L 470.1 369.900312 
" style="fill:none;stroke:#008000;stroke-linecap:square;stroke-width:1.5;"/>
    </g>
    <g id="line2d_34"/>
    <g id="text_18">
     <!-- $\partial\mathcal{L} / \partial\lambda_{4}$ -->
     <g transform="translate(478.1 373.400312)scale(0.1 -0.1)">
      <use transform="translate(0 0.015625)" xlink:href="#DejaVuSans-2202"/>
      <use transform="translate(51.708984 0.015625)" xlink:href="#STIXNonUnicode-Italic-e238"/>
      <use transform="translate(121.008972 0.015625)" xlink:href="#DejaVuSans-2f"/>
      <use transform="translate(154.700378 0.015625)" xlink:href="#DejaVuSans-2202"/>
      <use transform="translate(206.409363 0.015625)" xlink:href="#DejaVuSans-Oblique-3bb"/>
      <use transform="translate(265.58905 -16.390625)scale(0.7)" xlink:href="#DejaVuSans-34"/>
     </g>
    </g>
   </g>
  </g>
 </g>
 <defs>
  <clipPath id="pf603c6cc99">
   <rect height="332.64" width="446.4" x="72" y="51.84"/>
  </clipPath>
 </defs>
</svg>
