<?xml version="1.0" encoding="utf-8" standalone="no"?>
<!DOCTYPE svg PUBLIC "-//W3C//DTD SVG 1.1//EN"
  "http://www.w3.org/Graphics/SVG/1.1/DTD/svg11.dtd">
<!-- Created with matplotlib (http://matplotlib.org/) -->
<svg height="432pt" version="1.1" viewBox="0 0 576 432" width="576pt" xmlns="http://www.w3.org/2000/svg" xmlns:xlink="http://www.w3.org/1999/xlink">
 <defs>
  <style type="text/css">
*{stroke-linecap:butt;stroke-linejoin:round;}
  </style>
 </defs>
 <g id="figure_1">
  <g id="patch_1">
   <path d="M 0 432 
L 576 432 
L 576 0 
L 0 0 
z
" style="fill:#ffffff;"/>
  </g>
  <g id="axes_1">
   <g id="patch_2">
    <path d="M 72 384.48 
L 518.4 384.48 
L 518.4 51.84 
L 72 51.84 
z
" style="fill:#ffffff;"/>
   </g>
   <g id="matplotlib.axis_1">
    <g id="xtick_1">
     <g id="line2d_1">
      <path clip-path="url(#pa94e479fa9)" d="M 92.290909 384.48 
L 92.290909 51.84 
" style="fill:none;stroke:#b0b0b0;stroke-dasharray:5.12,1.28,0.8,1.28;stroke-dashoffset:0;stroke-width:0.8;"/>
     </g>
     <g id="line2d_2">
      <defs>
       <path d="M 0 0 
L 0 3.5 
" id="md6828153e7" style="stroke:#000000;stroke-width:0.8;"/>
      </defs>
      <g>
       <use style="stroke:#000000;stroke-width:0.8;" x="92.290909" xlink:href="#md6828153e7" y="384.48"/>
      </g>
     </g>
     <g id="text_1">
      <!-- 0 -->
      <defs>
       <path d="M 31.78125 66.40625 
Q 24.171875 66.40625 20.328125 58.90625 
Q 16.5 51.421875 16.5 36.375 
Q 16.5 21.390625 20.328125 13.890625 
Q 24.171875 6.390625 31.78125 6.390625 
Q 39.453125 6.390625 43.28125 13.890625 
Q 47.125 21.390625 47.125 36.375 
Q 47.125 51.421875 43.28125 58.90625 
Q 39.453125 66.40625 31.78125 66.40625 
z
M 31.78125 74.21875 
Q 44.046875 74.21875 50.515625 64.515625 
Q 56.984375 54.828125 56.984375 36.375 
Q 56.984375 17.96875 50.515625 8.265625 
Q 44.046875 -1.421875 31.78125 -1.421875 
Q 19.53125 -1.421875 13.0625 8.265625 
Q 6.59375 17.96875 6.59375 36.375 
Q 6.59375 54.828125 13.0625 64.515625 
Q 19.53125 74.21875 31.78125 74.21875 
z
" id="DejaVuSans-30"/>
      </defs>
      <g transform="translate(89.109659 399.078438)scale(0.1 -0.1)">
       <use xlink:href="#DejaVuSans-30"/>
      </g>
     </g>
    </g>
    <g id="xtick_2">
     <g id="line2d_3">
      <path clip-path="url(#pa94e479fa9)" d="M 173.53579 384.48 
L 173.53579 51.84 
" style="fill:none;stroke:#b0b0b0;stroke-dasharray:5.12,1.28,0.8,1.28;stroke-dashoffset:0;stroke-width:0.8;"/>
     </g>
     <g id="line2d_4">
      <g>
       <use style="stroke:#000000;stroke-width:0.8;" x="173.53579" xlink:href="#md6828153e7" y="384.48"/>
      </g>
     </g>
     <g id="text_2">
      <!-- 200 -->
      <defs>
       <path d="M 19.1875 8.296875 
L 53.609375 8.296875 
L 53.609375 0 
L 7.328125 0 
L 7.328125 8.296875 
Q 12.9375 14.109375 22.625 23.890625 
Q 32.328125 33.6875 34.8125 36.53125 
Q 39.546875 41.84375 41.421875 45.53125 
Q 43.3125 49.21875 43.3125 52.78125 
Q 43.3125 58.59375 39.234375 62.25 
Q 35.15625 65.921875 28.609375 65.921875 
Q 23.96875 65.921875 18.8125 64.3125 
Q 13.671875 62.703125 7.8125 59.421875 
L 7.8125 69.390625 
Q 13.765625 71.78125 18.9375 73 
Q 24.125 74.21875 28.421875 74.21875 
Q 39.75 74.21875 46.484375 68.546875 
Q 53.21875 62.890625 53.21875 53.421875 
Q 53.21875 48.921875 51.53125 44.890625 
Q 49.859375 40.875 45.40625 35.40625 
Q 44.1875 33.984375 37.640625 27.21875 
Q 31.109375 20.453125 19.1875 8.296875 
z
" id="DejaVuSans-32"/>
      </defs>
      <g transform="translate(163.99204 399.078438)scale(0.1 -0.1)">
       <use xlink:href="#DejaVuSans-32"/>
       <use x="63.623047" xlink:href="#DejaVuSans-30"/>
       <use x="127.246094" xlink:href="#DejaVuSans-30"/>
      </g>
     </g>
    </g>
    <g id="xtick_3">
     <g id="line2d_5">
      <path clip-path="url(#pa94e479fa9)" d="M 254.780672 384.48 
L 254.780672 51.84 
" style="fill:none;stroke:#b0b0b0;stroke-dasharray:5.12,1.28,0.8,1.28;stroke-dashoffset:0;stroke-width:0.8;"/>
     </g>
     <g id="line2d_6">
      <g>
       <use style="stroke:#000000;stroke-width:0.8;" x="254.780672" xlink:href="#md6828153e7" y="384.48"/>
      </g>
     </g>
     <g id="text_3">
      <!-- 400 -->
      <defs>
       <path d="M 37.796875 64.3125 
L 12.890625 25.390625 
L 37.796875 25.390625 
z
M 35.203125 72.90625 
L 47.609375 72.90625 
L 47.609375 25.390625 
L 58.015625 25.390625 
L 58.015625 17.1875 
L 47.609375 17.1875 
L 47.609375 0 
L 37.796875 0 
L 37.796875 17.1875 
L 4.890625 17.1875 
L 4.890625 26.703125 
z
" id="DejaVuSans-34"/>
      </defs>
      <g transform="translate(245.236922 399.078438)scale(0.1 -0.1)">
       <use xlink:href="#DejaVuSans-34"/>
       <use x="63.623047" xlink:href="#DejaVuSans-30"/>
       <use x="127.246094" xlink:href="#DejaVuSans-30"/>
      </g>
     </g>
    </g>
    <g id="xtick_4">
     <g id="line2d_7">
      <path clip-path="url(#pa94e479fa9)" d="M 336.025553 384.48 
L 336.025553 51.84 
" style="fill:none;stroke:#b0b0b0;stroke-dasharray:5.12,1.28,0.8,1.28;stroke-dashoffset:0;stroke-width:0.8;"/>
     </g>
     <g id="line2d_8">
      <g>
       <use style="stroke:#000000;stroke-width:0.8;" x="336.025553" xlink:href="#md6828153e7" y="384.48"/>
      </g>
     </g>
     <g id="text_4">
      <!-- 600 -->
      <defs>
       <path d="M 33.015625 40.375 
Q 26.375 40.375 22.484375 35.828125 
Q 18.609375 31.296875 18.609375 23.390625 
Q 18.609375 15.53125 22.484375 10.953125 
Q 26.375 6.390625 33.015625 6.390625 
Q 39.65625 6.390625 43.53125 10.953125 
Q 47.40625 15.53125 47.40625 23.390625 
Q 47.40625 31.296875 43.53125 35.828125 
Q 39.65625 40.375 33.015625 40.375 
z
M 52.59375 71.296875 
L 52.59375 62.3125 
Q 48.875 64.0625 45.09375 64.984375 
Q 41.3125 65.921875 37.59375 65.921875 
Q 27.828125 65.921875 22.671875 59.328125 
Q 17.53125 52.734375 16.796875 39.40625 
Q 19.671875 43.65625 24.015625 45.921875 
Q 28.375 48.1875 33.59375 48.1875 
Q 44.578125 48.1875 50.953125 41.515625 
Q 57.328125 34.859375 57.328125 23.390625 
Q 57.328125 12.15625 50.6875 5.359375 
Q 44.046875 -1.421875 33.015625 -1.421875 
Q 20.359375 -1.421875 13.671875 8.265625 
Q 6.984375 17.96875 6.984375 36.375 
Q 6.984375 53.65625 15.1875 63.9375 
Q 23.390625 74.21875 37.203125 74.21875 
Q 40.921875 74.21875 44.703125 73.484375 
Q 48.484375 72.75 52.59375 71.296875 
z
" id="DejaVuSans-36"/>
      </defs>
      <g transform="translate(326.481803 399.078438)scale(0.1 -0.1)">
       <use xlink:href="#DejaVuSans-36"/>
       <use x="63.623047" xlink:href="#DejaVuSans-30"/>
       <use x="127.246094" xlink:href="#DejaVuSans-30"/>
      </g>
     </g>
    </g>
    <g id="xtick_5">
     <g id="line2d_9">
      <path clip-path="url(#pa94e479fa9)" d="M 417.270434 384.48 
L 417.270434 51.84 
" style="fill:none;stroke:#b0b0b0;stroke-dasharray:5.12,1.28,0.8,1.28;stroke-dashoffset:0;stroke-width:0.8;"/>
     </g>
     <g id="line2d_10">
      <g>
       <use style="stroke:#000000;stroke-width:0.8;" x="417.270434" xlink:href="#md6828153e7" y="384.48"/>
      </g>
     </g>
     <g id="text_5">
      <!-- 800 -->
      <defs>
       <path d="M 31.78125 34.625 
Q 24.75 34.625 20.71875 30.859375 
Q 16.703125 27.09375 16.703125 20.515625 
Q 16.703125 13.921875 20.71875 10.15625 
Q 24.75 6.390625 31.78125 6.390625 
Q 38.8125 6.390625 42.859375 10.171875 
Q 46.921875 13.96875 46.921875 20.515625 
Q 46.921875 27.09375 42.890625 30.859375 
Q 38.875 34.625 31.78125 34.625 
z
M 21.921875 38.8125 
Q 15.578125 40.375 12.03125 44.71875 
Q 8.5 49.078125 8.5 55.328125 
Q 8.5 64.0625 14.71875 69.140625 
Q 20.953125 74.21875 31.78125 74.21875 
Q 42.671875 74.21875 48.875 69.140625 
Q 55.078125 64.0625 55.078125 55.328125 
Q 55.078125 49.078125 51.53125 44.71875 
Q 48 40.375 41.703125 38.8125 
Q 48.828125 37.15625 52.796875 32.3125 
Q 56.78125 27.484375 56.78125 20.515625 
Q 56.78125 9.90625 50.3125 4.234375 
Q 43.84375 -1.421875 31.78125 -1.421875 
Q 19.734375 -1.421875 13.25 4.234375 
Q 6.78125 9.90625 6.78125 20.515625 
Q 6.78125 27.484375 10.78125 32.3125 
Q 14.796875 37.15625 21.921875 38.8125 
z
M 18.3125 54.390625 
Q 18.3125 48.734375 21.84375 45.5625 
Q 25.390625 42.390625 31.78125 42.390625 
Q 38.140625 42.390625 41.71875 45.5625 
Q 45.3125 48.734375 45.3125 54.390625 
Q 45.3125 60.0625 41.71875 63.234375 
Q 38.140625 66.40625 31.78125 66.40625 
Q 25.390625 66.40625 21.84375 63.234375 
Q 18.3125 60.0625 18.3125 54.390625 
z
" id="DejaVuSans-38"/>
      </defs>
      <g transform="translate(407.726684 399.078438)scale(0.1 -0.1)">
       <use xlink:href="#DejaVuSans-38"/>
       <use x="63.623047" xlink:href="#DejaVuSans-30"/>
       <use x="127.246094" xlink:href="#DejaVuSans-30"/>
      </g>
     </g>
    </g>
    <g id="xtick_6">
     <g id="line2d_11">
      <path clip-path="url(#pa94e479fa9)" d="M 498.515315 384.48 
L 498.515315 51.84 
" style="fill:none;stroke:#b0b0b0;stroke-dasharray:5.12,1.28,0.8,1.28;stroke-dashoffset:0;stroke-width:0.8;"/>
     </g>
     <g id="line2d_12">
      <g>
       <use style="stroke:#000000;stroke-width:0.8;" x="498.515315" xlink:href="#md6828153e7" y="384.48"/>
      </g>
     </g>
     <g id="text_6">
      <!-- 1000 -->
      <defs>
       <path d="M 12.40625 8.296875 
L 28.515625 8.296875 
L 28.515625 63.921875 
L 10.984375 60.40625 
L 10.984375 69.390625 
L 28.421875 72.90625 
L 38.28125 72.90625 
L 38.28125 8.296875 
L 54.390625 8.296875 
L 54.390625 0 
L 12.40625 0 
z
" id="DejaVuSans-31"/>
      </defs>
      <g transform="translate(485.790315 399.078438)scale(0.1 -0.1)">
       <use xlink:href="#DejaVuSans-31"/>
       <use x="63.623047" xlink:href="#DejaVuSans-30"/>
       <use x="127.246094" xlink:href="#DejaVuSans-30"/>
       <use x="190.869141" xlink:href="#DejaVuSans-30"/>
      </g>
     </g>
    </g>
    <g id="text_7">
     <!-- Iteration -->
     <defs>
      <path d="M 9.8125 72.90625 
L 19.671875 72.90625 
L 19.671875 0 
L 9.8125 0 
z
" id="DejaVuSans-49"/>
      <path d="M 18.3125 70.21875 
L 18.3125 54.6875 
L 36.8125 54.6875 
L 36.8125 47.703125 
L 18.3125 47.703125 
L 18.3125 18.015625 
Q 18.3125 11.328125 20.140625 9.421875 
Q 21.96875 7.515625 27.59375 7.515625 
L 36.8125 7.515625 
L 36.8125 0 
L 27.59375 0 
Q 17.1875 0 13.234375 3.875 
Q 9.28125 7.765625 9.28125 18.015625 
L 9.28125 47.703125 
L 2.6875 47.703125 
L 2.6875 54.6875 
L 9.28125 54.6875 
L 9.28125 70.21875 
z
" id="DejaVuSans-74"/>
      <path d="M 56.203125 29.59375 
L 56.203125 25.203125 
L 14.890625 25.203125 
Q 15.484375 15.921875 20.484375 11.0625 
Q 25.484375 6.203125 34.421875 6.203125 
Q 39.59375 6.203125 44.453125 7.46875 
Q 49.3125 8.734375 54.109375 11.28125 
L 54.109375 2.78125 
Q 49.265625 0.734375 44.1875 -0.34375 
Q 39.109375 -1.421875 33.890625 -1.421875 
Q 20.796875 -1.421875 13.15625 6.1875 
Q 5.515625 13.8125 5.515625 26.8125 
Q 5.515625 40.234375 12.765625 48.109375 
Q 20.015625 56 32.328125 56 
Q 43.359375 56 49.78125 48.890625 
Q 56.203125 41.796875 56.203125 29.59375 
z
M 47.21875 32.234375 
Q 47.125 39.59375 43.09375 43.984375 
Q 39.0625 48.390625 32.421875 48.390625 
Q 24.90625 48.390625 20.390625 44.140625 
Q 15.875 39.890625 15.1875 32.171875 
z
" id="DejaVuSans-65"/>
      <path d="M 41.109375 46.296875 
Q 39.59375 47.171875 37.8125 47.578125 
Q 36.03125 48 33.890625 48 
Q 26.265625 48 22.1875 43.046875 
Q 18.109375 38.09375 18.109375 28.8125 
L 18.109375 0 
L 9.078125 0 
L 9.078125 54.6875 
L 18.109375 54.6875 
L 18.109375 46.1875 
Q 20.953125 51.171875 25.484375 53.578125 
Q 30.03125 56 36.53125 56 
Q 37.453125 56 38.578125 55.875 
Q 39.703125 55.765625 41.0625 55.515625 
z
" id="DejaVuSans-72"/>
      <path d="M 34.28125 27.484375 
Q 23.390625 27.484375 19.1875 25 
Q 14.984375 22.515625 14.984375 16.5 
Q 14.984375 11.71875 18.140625 8.90625 
Q 21.296875 6.109375 26.703125 6.109375 
Q 34.1875 6.109375 38.703125 11.40625 
Q 43.21875 16.703125 43.21875 25.484375 
L 43.21875 27.484375 
z
M 52.203125 31.203125 
L 52.203125 0 
L 43.21875 0 
L 43.21875 8.296875 
Q 40.140625 3.328125 35.546875 0.953125 
Q 30.953125 -1.421875 24.3125 -1.421875 
Q 15.921875 -1.421875 10.953125 3.296875 
Q 6 8.015625 6 15.921875 
Q 6 25.140625 12.171875 29.828125 
Q 18.359375 34.515625 30.609375 34.515625 
L 43.21875 34.515625 
L 43.21875 35.40625 
Q 43.21875 41.609375 39.140625 45 
Q 35.0625 48.390625 27.6875 48.390625 
Q 23 48.390625 18.546875 47.265625 
Q 14.109375 46.140625 10.015625 43.890625 
L 10.015625 52.203125 
Q 14.9375 54.109375 19.578125 55.046875 
Q 24.21875 56 28.609375 56 
Q 40.484375 56 46.34375 49.84375 
Q 52.203125 43.703125 52.203125 31.203125 
z
" id="DejaVuSans-61"/>
      <path d="M 9.421875 54.6875 
L 18.40625 54.6875 
L 18.40625 0 
L 9.421875 0 
z
M 9.421875 75.984375 
L 18.40625 75.984375 
L 18.40625 64.59375 
L 9.421875 64.59375 
z
" id="DejaVuSans-69"/>
      <path d="M 30.609375 48.390625 
Q 23.390625 48.390625 19.1875 42.75 
Q 14.984375 37.109375 14.984375 27.296875 
Q 14.984375 17.484375 19.15625 11.84375 
Q 23.34375 6.203125 30.609375 6.203125 
Q 37.796875 6.203125 41.984375 11.859375 
Q 46.1875 17.53125 46.1875 27.296875 
Q 46.1875 37.015625 41.984375 42.703125 
Q 37.796875 48.390625 30.609375 48.390625 
z
M 30.609375 56 
Q 42.328125 56 49.015625 48.375 
Q 55.71875 40.765625 55.71875 27.296875 
Q 55.71875 13.875 49.015625 6.21875 
Q 42.328125 -1.421875 30.609375 -1.421875 
Q 18.84375 -1.421875 12.171875 6.21875 
Q 5.515625 13.875 5.515625 27.296875 
Q 5.515625 40.765625 12.171875 48.375 
Q 18.84375 56 30.609375 56 
z
" id="DejaVuSans-6f"/>
      <path d="M 54.890625 33.015625 
L 54.890625 0 
L 45.90625 0 
L 45.90625 32.71875 
Q 45.90625 40.484375 42.875 44.328125 
Q 39.84375 48.1875 33.796875 48.1875 
Q 26.515625 48.1875 22.3125 43.546875 
Q 18.109375 38.921875 18.109375 30.90625 
L 18.109375 0 
L 9.078125 0 
L 9.078125 54.6875 
L 18.109375 54.6875 
L 18.109375 46.1875 
Q 21.34375 51.125 25.703125 53.5625 
Q 30.078125 56 35.796875 56 
Q 45.21875 56 50.046875 50.171875 
Q 54.890625 44.34375 54.890625 33.015625 
z
" id="DejaVuSans-6e"/>
     </defs>
     <g transform="translate(265.507969 415.795938)scale(0.14 -0.14)">
      <use xlink:href="#DejaVuSans-49"/>
      <use x="29.492188" xlink:href="#DejaVuSans-74"/>
      <use x="68.701172" xlink:href="#DejaVuSans-65"/>
      <use x="130.224609" xlink:href="#DejaVuSans-72"/>
      <use x="171.337891" xlink:href="#DejaVuSans-61"/>
      <use x="232.617188" xlink:href="#DejaVuSans-74"/>
      <use x="271.826172" xlink:href="#DejaVuSans-69"/>
      <use x="299.609375" xlink:href="#DejaVuSans-6f"/>
      <use x="360.791016" xlink:href="#DejaVuSans-6e"/>
     </g>
    </g>
   </g>
   <g id="matplotlib.axis_2">
    <g id="ytick_1">
     <g id="line2d_13">
      <path clip-path="url(#pa94e479fa9)" d="M 72 382.501586 
L 518.4 382.501586 
" style="fill:none;stroke:#b0b0b0;stroke-dasharray:5.12,1.28,0.8,1.28;stroke-dashoffset:0;stroke-width:0.8;"/>
     </g>
     <g id="line2d_14">
      <defs>
       <path d="M 0 0 
L -3.5 0 
" id="m0a4b51570d" style="stroke:#000000;stroke-width:0.8;"/>
      </defs>
      <g>
       <use style="stroke:#000000;stroke-width:0.8;" x="72" xlink:href="#m0a4b51570d" y="382.501586"/>
      </g>
     </g>
     <g id="text_8">
      <!-- −0.8 -->
      <defs>
       <path d="M 10.59375 35.5 
L 73.1875 35.5 
L 73.1875 27.203125 
L 10.59375 27.203125 
z
" id="DejaVuSans-2212"/>
       <path d="M 10.6875 12.40625 
L 21 12.40625 
L 21 0 
L 10.6875 0 
z
" id="DejaVuSans-2e"/>
      </defs>
      <g transform="translate(40.717187 386.300805)scale(0.1 -0.1)">
       <use xlink:href="#DejaVuSans-2212"/>
       <use x="83.789062" xlink:href="#DejaVuSans-30"/>
       <use x="147.412109" xlink:href="#DejaVuSans-2e"/>
       <use x="179.199219" xlink:href="#DejaVuSans-38"/>
      </g>
     </g>
    </g>
    <g id="ytick_2">
     <g id="line2d_15">
      <path clip-path="url(#pa94e479fa9)" d="M 72 341.498197 
L 518.4 341.498197 
" style="fill:none;stroke:#b0b0b0;stroke-dasharray:5.12,1.28,0.8,1.28;stroke-dashoffset:0;stroke-width:0.8;"/>
     </g>
     <g id="line2d_16">
      <g>
       <use style="stroke:#000000;stroke-width:0.8;" x="72" xlink:href="#m0a4b51570d" y="341.498197"/>
      </g>
     </g>
     <g id="text_9">
      <!-- −0.6 -->
      <g transform="translate(40.717187 345.297415)scale(0.1 -0.1)">
       <use xlink:href="#DejaVuSans-2212"/>
       <use x="83.789062" xlink:href="#DejaVuSans-30"/>
       <use x="147.412109" xlink:href="#DejaVuSans-2e"/>
       <use x="179.199219" xlink:href="#DejaVuSans-36"/>
      </g>
     </g>
    </g>
    <g id="ytick_3">
     <g id="line2d_17">
      <path clip-path="url(#pa94e479fa9)" d="M 72 300.494807 
L 518.4 300.494807 
" style="fill:none;stroke:#b0b0b0;stroke-dasharray:5.12,1.28,0.8,1.28;stroke-dashoffset:0;stroke-width:0.8;"/>
     </g>
     <g id="line2d_18">
      <g>
       <use style="stroke:#000000;stroke-width:0.8;" x="72" xlink:href="#m0a4b51570d" y="300.494807"/>
      </g>
     </g>
     <g id="text_10">
      <!-- −0.4 -->
      <g transform="translate(40.717187 304.294026)scale(0.1 -0.1)">
       <use xlink:href="#DejaVuSans-2212"/>
       <use x="83.789062" xlink:href="#DejaVuSans-30"/>
       <use x="147.412109" xlink:href="#DejaVuSans-2e"/>
       <use x="179.199219" xlink:href="#DejaVuSans-34"/>
      </g>
     </g>
    </g>
    <g id="ytick_4">
     <g id="line2d_19">
      <path clip-path="url(#pa94e479fa9)" d="M 72 259.491417 
L 518.4 259.491417 
" style="fill:none;stroke:#b0b0b0;stroke-dasharray:5.12,1.28,0.8,1.28;stroke-dashoffset:0;stroke-width:0.8;"/>
     </g>
     <g id="line2d_20">
      <g>
       <use style="stroke:#000000;stroke-width:0.8;" x="72" xlink:href="#m0a4b51570d" y="259.491417"/>
      </g>
     </g>
     <g id="text_11">
      <!-- −0.2 -->
      <g transform="translate(40.717187 263.290636)scale(0.1 -0.1)">
       <use xlink:href="#DejaVuSans-2212"/>
       <use x="83.789062" xlink:href="#DejaVuSans-30"/>
       <use x="147.412109" xlink:href="#DejaVuSans-2e"/>
       <use x="179.199219" xlink:href="#DejaVuSans-32"/>
      </g>
     </g>
    </g>
    <g id="ytick_5">
     <g id="line2d_21">
      <path clip-path="url(#pa94e479fa9)" d="M 72 218.488027 
L 518.4 218.488027 
" style="fill:none;stroke:#b0b0b0;stroke-dasharray:5.12,1.28,0.8,1.28;stroke-dashoffset:0;stroke-width:0.8;"/>
     </g>
     <g id="line2d_22">
      <g>
       <use style="stroke:#000000;stroke-width:0.8;" x="72" xlink:href="#m0a4b51570d" y="218.488027"/>
      </g>
     </g>
     <g id="text_12">
      <!-- 0.0 -->
      <g transform="translate(49.096875 222.287246)scale(0.1 -0.1)">
       <use xlink:href="#DejaVuSans-30"/>
       <use x="63.623047" xlink:href="#DejaVuSans-2e"/>
       <use x="95.410156" xlink:href="#DejaVuSans-30"/>
      </g>
     </g>
    </g>
    <g id="ytick_6">
     <g id="line2d_23">
      <path clip-path="url(#pa94e479fa9)" d="M 72 177.484637 
L 518.4 177.484637 
" style="fill:none;stroke:#b0b0b0;stroke-dasharray:5.12,1.28,0.8,1.28;stroke-dashoffset:0;stroke-width:0.8;"/>
     </g>
     <g id="line2d_24">
      <g>
       <use style="stroke:#000000;stroke-width:0.8;" x="72" xlink:href="#m0a4b51570d" y="177.484637"/>
      </g>
     </g>
     <g id="text_13">
      <!-- 0.2 -->
      <g transform="translate(49.096875 181.283856)scale(0.1 -0.1)">
       <use xlink:href="#DejaVuSans-30"/>
       <use x="63.623047" xlink:href="#DejaVuSans-2e"/>
       <use x="95.410156" xlink:href="#DejaVuSans-32"/>
      </g>
     </g>
    </g>
    <g id="ytick_7">
     <g id="line2d_25">
      <path clip-path="url(#pa94e479fa9)" d="M 72 136.481247 
L 518.4 136.481247 
" style="fill:none;stroke:#b0b0b0;stroke-dasharray:5.12,1.28,0.8,1.28;stroke-dashoffset:0;stroke-width:0.8;"/>
     </g>
     <g id="line2d_26">
      <g>
       <use style="stroke:#000000;stroke-width:0.8;" x="72" xlink:href="#m0a4b51570d" y="136.481247"/>
      </g>
     </g>
     <g id="text_14">
      <!-- 0.4 -->
      <g transform="translate(49.096875 140.280466)scale(0.1 -0.1)">
       <use xlink:href="#DejaVuSans-30"/>
       <use x="63.623047" xlink:href="#DejaVuSans-2e"/>
       <use x="95.410156" xlink:href="#DejaVuSans-34"/>
      </g>
     </g>
    </g>
    <g id="ytick_8">
     <g id="line2d_27">
      <path clip-path="url(#pa94e479fa9)" d="M 72 95.477858 
L 518.4 95.477858 
" style="fill:none;stroke:#b0b0b0;stroke-dasharray:5.12,1.28,0.8,1.28;stroke-dashoffset:0;stroke-width:0.8;"/>
     </g>
     <g id="line2d_28">
      <g>
       <use style="stroke:#000000;stroke-width:0.8;" x="72" xlink:href="#m0a4b51570d" y="95.477858"/>
      </g>
     </g>
     <g id="text_15">
      <!-- 0.6 -->
      <g transform="translate(49.096875 99.277076)scale(0.1 -0.1)">
       <use xlink:href="#DejaVuSans-30"/>
       <use x="63.623047" xlink:href="#DejaVuSans-2e"/>
       <use x="95.410156" xlink:href="#DejaVuSans-36"/>
      </g>
     </g>
    </g>
    <g id="ytick_9">
     <g id="line2d_29">
      <path clip-path="url(#pa94e479fa9)" d="M 72 54.474468 
L 518.4 54.474468 
" style="fill:none;stroke:#b0b0b0;stroke-dasharray:5.12,1.28,0.8,1.28;stroke-dashoffset:0;stroke-width:0.8;"/>
     </g>
     <g id="line2d_30">
      <g>
       <use style="stroke:#000000;stroke-width:0.8;" x="72" xlink:href="#m0a4b51570d" y="54.474468"/>
      </g>
     </g>
     <g id="text_16">
      <!-- 0.8 -->
      <g transform="translate(49.096875 58.273687)scale(0.1 -0.1)">
       <use xlink:href="#DejaVuSans-30"/>
       <use x="63.623047" xlink:href="#DejaVuSans-2e"/>
       <use x="95.410156" xlink:href="#DejaVuSans-38"/>
      </g>
     </g>
    </g>
    <g id="text_17">
     <!-- $\Delta \lambda_{m}[m.u/W]$ -->
     <defs>
      <path d="M 34.1875 63.1875 
L 14.15625 8.203125 
L 54.25 8.203125 
z
M 0.78125 0 
L 28.609375 72.90625 
L 39.796875 72.90625 
L 67.578125 0 
z
" id="DejaVuSans-394"/>
      <path d="M 36.71875 67.4375 
L 48.828125 0 
L 39.3125 0 
L 31.84375 40.4375 
L 5.125 0 
L -4.390625 0 
L 29.734375 52.4375 
L 28.03125 62.109375 
Q 26.953125 68.265625 21.734375 68.265625 
L 17.046875 68.265625 
L 18.5 75.984375 
L 24.21875 75.875 
Q 35.203125 75.734375 36.71875 67.4375 
z
" id="DejaVuSans-Oblique-3bb"/>
      <path d="M 89.796875 33.015625 
L 83.40625 0 
L 74.421875 0 
L 80.71875 32.71875 
Q 81.109375 34.8125 81.296875 36.328125 
Q 81.5 37.84375 81.5 38.921875 
Q 81.5 43.3125 79.046875 45.75 
Q 76.609375 48.1875 72.21875 48.1875 
Q 65.671875 48.1875 60.546875 43.28125 
Q 55.421875 38.375 53.90625 30.515625 
L 47.90625 0 
L 38.921875 0 
L 45.3125 32.71875 
Q 45.703125 34.515625 45.890625 36.046875 
Q 46.09375 37.59375 46.09375 38.8125 
Q 46.09375 43.265625 43.65625 45.71875 
Q 41.21875 48.1875 36.921875 48.1875 
Q 30.28125 48.1875 25.140625 43.28125 
Q 20.015625 38.375 18.5 30.515625 
L 12.5 0 
L 3.515625 0 
L 14.203125 54.6875 
L 23.1875 54.6875 
L 21.484375 46.1875 
Q 25.140625 50.984375 30.046875 53.484375 
Q 34.96875 56 40.578125 56 
Q 46.53125 56 50.359375 52.875 
Q 54.203125 49.75 54.984375 44.1875 
Q 59.078125 49.953125 64.46875 52.96875 
Q 69.875 56 75.875 56 
Q 82.90625 56 86.734375 51.953125 
Q 90.578125 47.90625 90.578125 40.484375 
Q 90.578125 38.875 90.375 36.9375 
Q 90.1875 35.015625 89.796875 33.015625 
z
" id="DejaVuSans-Oblique-6d"/>
      <path d="M 8.59375 75.984375 
L 29.296875 75.984375 
L 29.296875 69 
L 17.578125 69 
L 17.578125 -6.203125 
L 29.296875 -6.203125 
L 29.296875 -13.1875 
L 8.59375 -13.1875 
z
" id="DejaVuSans-5b"/>
      <path d="M 6.6875 21.6875 
L 13.09375 54.6875 
L 22.125 54.6875 
L 15.71875 22.015625 
Q 15.234375 19.625 15.015625 17.921875 
Q 14.796875 16.21875 14.796875 15.09375 
Q 14.796875 10.9375 17.328125 8.65625 
Q 19.875 6.390625 24.515625 6.390625 
Q 31.734375 6.390625 37 11.265625 
Q 42.28125 16.15625 43.890625 24.421875 
L 49.90625 54.6875 
L 58.890625 54.6875 
L 48.296875 0 
L 39.3125 0 
L 41.109375 8.59375 
Q 37.3125 3.8125 32.0625 1.1875 
Q 26.8125 -1.421875 20.90625 -1.421875 
Q 13.71875 -1.421875 9.71875 2.515625 
Q 5.71875 6.453125 5.71875 13.484375 
Q 5.71875 14.9375 5.953125 17.140625 
Q 6.203125 19.34375 6.6875 21.6875 
z
" id="DejaVuSans-Oblique-75"/>
      <path d="M 25.390625 72.90625 
L 33.6875 72.90625 
L 8.296875 -9.28125 
L 0 -9.28125 
z
" id="DejaVuSans-2f"/>
      <path d="M 9.625 72.90625 
L 19.1875 72.90625 
L 22.703125 10.890625 
L 50.203125 72.90625 
L 61.1875 72.90625 
L 64.796875 10.890625 
L 92 72.90625 
L 102 72.90625 
L 69.578125 0 
L 57.171875 0 
L 53.8125 60.796875 
L 26.515625 0 
L 14.109375 0 
z
" id="DejaVuSans-Oblique-57"/>
      <path d="M 30.421875 75.984375 
L 30.421875 -13.1875 
L 9.71875 -13.1875 
L 9.71875 -6.203125 
L 21.390625 -6.203125 
L 21.390625 69 
L 9.71875 69 
L 9.71875 75.984375 
z
" id="DejaVuSans-5d"/>
     </defs>
     <g transform="translate(33.805625 261.7)rotate(-90)scale(0.14 -0.14)">
      <use transform="translate(0 0.015625)" xlink:href="#DejaVuSans-394"/>
      <use transform="translate(68.408203 0.015625)" xlink:href="#DejaVuSans-Oblique-3bb"/>
      <use transform="translate(127.587891 -16.390625)scale(0.7)" xlink:href="#DejaVuSans-Oblique-6d"/>
      <use transform="translate(198.510742 0.015625)" xlink:href="#DejaVuSans-5b"/>
      <use transform="translate(237.524414 0.015625)" xlink:href="#DejaVuSans-Oblique-6d"/>
      <use transform="translate(334.936523 0.015625)" xlink:href="#DejaVuSans-2e"/>
      <use transform="translate(386.206055 0.015625)" xlink:href="#DejaVuSans-Oblique-75"/>
      <use transform="translate(449.584961 0.015625)" xlink:href="#DejaVuSans-2f"/>
      <use transform="translate(483.276367 0.015625)" xlink:href="#DejaVuSans-Oblique-57"/>
      <use transform="translate(582.15332 0.015625)" xlink:href="#DejaVuSans-5d"/>
     </g>
    </g>
   </g>
   <g id="line2d_31">
    <path clip-path="url(#pa94e479fa9)" d="M 92.290909 218.488027 
L 92.697133 218.488027 
L 93.103358 218.488027 
L 93.915807 217.831973 
L 94.728256 217.544949 
L 97.165602 217.257925 
L 109.758559 217.278427 
L 110.164783 218.365017 
L 110.977232 218.447024 
L 113.414578 218.467525 
L 117.476822 218.570034 
L 118.289271 218.652041 
L 118.695495 333.543539 
L 119.507944 307.731905 
L 119.914169 283.519403 
L 120.320393 237.226576 
L 120.726618 173.691824 
L 121.132842 150.094373 
L 121.539066 159.873681 
L 122.351515 184.352705 
L 122.75774 191.30278 
L 123.163964 195.977166 
L 123.976413 201.779146 
L 124.788862 205.407946 
L 125.60131 208.032163 
L 126.007535 214.797722 
L 126.413759 218.467525 
L 127.632432 218.529031 
L 128.038657 245.140231 
L 128.444881 252.930875 
L 128.851106 258.466332 
L 129.25733 258.671349 
L 129.663554 251.106224 
L 130.069779 234.13082 
L 130.882228 184.803742 
L 131.288452 187.284447 
L 132.100901 197.760814 
L 132.507125 201.184597 
L 133.319574 205.551458 
L 134.132023 208.319186 
L 134.538247 217.770468 
L 134.944472 218.467525 
L 136.569369 218.508529 
L 136.975594 259.060881 
L 137.381818 259.921953 
L 137.788043 258.855864 
L 138.194267 251.557261 
L 138.600491 235.709451 
L 139.41294 186.546386 
L 139.819165 188.514549 
L 140.631613 198.621885 
L 141.037838 201.943159 
L 141.850287 206.166508 
L 142.256511 207.601627 
L 143.06896 218.467525 
L 145.506306 218.508529 
L 145.912531 262.894698 
L 146.318755 258.568841 
L 146.72498 252.746359 
L 147.131204 240.916881 
L 147.537428 221.194251 
L 147.943653 193.619471 
L 148.349877 190.3392 
L 149.56855 202.640217 
L 150.380999 206.843064 
L 150.787224 211.414942 
L 151.193448 218.467525 
L 154.443243 218.529031 
L 154.849468 261.234061 
L 155.661916 247.43642 
L 156.068141 234.315336 
L 156.88059 192.286861 
L 157.286814 193.516963 
L 158.099263 201.881654 
L 158.911712 206.658549 
L 159.724161 218.467525 
L 163.38018 218.549532 
L 163.786405 260.290983 
L 164.598853 242.987553 
L 165.005078 228.677369 
L 165.411302 208.011661 
L 165.817527 194.111512 
L 166.223751 196.223186 
L 167.0362 203.603797 
L 167.442424 206.002495 
L 167.848649 211.004908 
L 168.254873 218.467525 
L 172.317117 218.549532 
L 172.723342 259.819444 
L 173.53579 240.445342 
L 173.942015 225.4176 
L 174.348239 204.464868 
L 174.754464 195.136597 
L 175.160688 197.781315 
L 175.973137 204.587878 
L 176.379361 206.761058 
L 176.785586 216.786386 
L 177.19181 218.467525 
L 181.254054 218.549532 
L 181.660278 260.044963 
L 182.472727 238.948719 
L 182.878952 223.264922 
L 183.285176 201.881654 
L 183.6914 195.669641 
L 184.910074 205.182427 
L 185.316298 208.913736 
L 185.722523 218.467525 
L 190.190991 218.570034 
L 190.597215 260.208976 
L 191.409664 238.251661 
L 191.815889 222.239837 
L 192.222113 200.610549 
L 192.628337 195.936163 
L 193.847011 205.469451 
L 194.253235 210.717885 
L 194.659459 218.467525 
L 199.127928 218.570034 
L 199.534152 260.496 
L 200.346601 237.821125 
L 200.752826 221.522278 
L 201.15905 199.646969 
L 201.565274 196.059173 
L 202.783948 205.633464 
L 203.596396 218.467525 
L 208.064865 218.570034 
L 208.471089 260.496 
L 209.283538 237.657112 
L 209.689762 221.255756 
L 210.095987 199.339444 
L 210.502211 196.120678 
L 211.720885 205.715471 
L 212.533333 218.467525 
L 217.001802 218.570034 
L 217.408026 260.537003 
L 218.220475 237.554603 
L 218.626699 221.112244 
L 219.032924 199.134427 
L 219.439148 196.161681 
L 220.657821 205.756475 
L 221.47027 218.467525 
L 225.938739 218.570034 
L 226.344963 260.557505 
L 227.157412 237.5136 
L 227.563636 221.030237 
L 227.969861 199.05242 
L 228.376085 196.182183 
L 229.594758 205.776976 
L 230.407207 218.467525 
L 234.875676 218.570034 
L 235.2819 260.557505 
L 236.094349 237.472597 
L 236.500573 220.989234 
L 236.906798 199.011417 
L 237.313022 196.182183 
L 238.531695 205.776976 
L 239.344144 218.467525 
L 243.812613 218.570034 
L 244.218837 260.578007 
L 245.031286 237.472597 
L 245.43751 220.989234 
L 245.843735 198.990915 
L 246.249959 196.182183 
L 247.468632 205.797478 
L 248.281081 218.467525 
L 252.74955 218.570034 
L 253.155774 260.578007 
L 253.968223 237.472597 
L 254.374447 220.968732 
L 254.780672 198.970414 
L 255.186896 196.182183 
L 256.405569 205.797478 
L 257.218018 218.467525 
L 261.686486 218.570034 
L 262.092711 260.578007 
L 262.90516 237.452095 
L 263.311384 220.968732 
L 263.717609 198.970414 
L 264.123833 196.182183 
L 265.342506 205.797478 
L 266.154955 218.467525 
L 270.623423 218.570034 
L 271.029648 260.578007 
L 271.842097 237.452095 
L 272.248321 220.968732 
L 272.654545 198.970414 
L 273.06077 196.182183 
L 274.279443 205.797478 
L 275.091892 218.467525 
L 279.56036 218.570034 
L 279.966585 260.578007 
L 280.779034 237.452095 
L 281.185258 220.968732 
L 281.591482 198.970414 
L 281.997707 196.182183 
L 283.21638 205.797478 
L 284.028829 218.467525 
L 288.497297 218.570034 
L 288.903522 260.578007 
L 289.715971 237.452095 
L 290.122195 220.968732 
L 290.528419 198.970414 
L 290.934644 196.182183 
L 292.153317 205.797478 
L 292.965766 218.467525 
L 297.434234 218.570034 
L 297.840459 260.578007 
L 298.652907 237.452095 
L 299.059132 220.968732 
L 299.465356 198.970414 
L 299.871581 196.182183 
L 301.090254 205.797478 
L 301.902703 218.467525 
L 306.371171 218.570034 
L 306.777396 260.578007 
L 307.589844 237.452095 
L 307.996069 220.968732 
L 308.402293 198.970414 
L 308.808518 196.182183 
L 310.027191 205.797478 
L 310.83964 218.467525 
L 315.308108 218.570034 
L 315.714333 260.578007 
L 316.526781 237.452095 
L 316.933006 220.968732 
L 317.33923 198.970414 
L 317.745455 196.182183 
L 318.964128 205.797478 
L 319.776577 218.467525 
L 324.245045 218.570034 
L 324.651269 260.578007 
L 325.463718 237.452095 
L 325.869943 220.968732 
L 326.276167 198.970414 
L 326.682391 196.182183 
L 327.901065 205.797478 
L 328.713514 218.467525 
L 333.181982 218.570034 
L 333.588206 260.578007 
L 334.400655 237.452095 
L 334.80688 220.968732 
L 335.213104 198.970414 
L 335.619328 196.182183 
L 336.838002 205.797478 
L 337.65045 218.467525 
L 342.118919 218.570034 
L 342.525143 260.578007 
L 343.337592 237.452095 
L 343.743817 220.968732 
L 344.150041 198.970414 
L 344.556265 196.182183 
L 345.774939 205.797478 
L 346.587387 218.467525 
L 351.055856 218.570034 
L 351.46208 260.578007 
L 352.274529 237.452095 
L 352.680753 220.968732 
L 353.086978 198.970414 
L 353.493202 196.182183 
L 354.711876 205.797478 
L 355.524324 218.467525 
L 359.992793 218.570034 
L 360.399017 260.578007 
L 361.211466 237.452095 
L 361.61769 220.968732 
L 362.023915 198.970414 
L 362.430139 196.182183 
L 363.648812 205.797478 
L 364.461261 218.467525 
L 368.92973 218.570034 
L 369.335954 260.578007 
L 370.148403 237.452095 
L 370.554627 220.968732 
L 370.960852 198.970414 
L 371.367076 196.182183 
L 372.585749 205.797478 
L 373.398198 218.467525 
L 377.866667 218.570034 
L 378.272891 260.578007 
L 379.08534 237.452095 
L 379.491564 220.968732 
L 379.897789 198.970414 
L 380.304013 196.182183 
L 381.522686 205.797478 
L 382.335135 218.467525 
L 386.803604 218.570034 
L 387.209828 260.578007 
L 388.022277 237.452095 
L 388.428501 220.968732 
L 388.834726 198.970414 
L 389.24095 196.182183 
L 390.459623 205.797478 
L 391.272072 218.467525 
L 395.740541 218.570034 
L 396.146765 260.578007 
L 396.959214 237.452095 
L 397.365438 220.968732 
L 397.771663 198.970414 
L 398.177887 196.182183 
L 399.39656 205.797478 
L 400.209009 218.467525 
L 404.677477 218.570034 
L 405.083702 260.578007 
L 405.896151 237.452095 
L 406.302375 220.968732 
L 406.7086 198.970414 
L 407.114824 196.182183 
L 408.333497 205.797478 
L 409.145946 218.467525 
L 413.614414 218.570034 
L 414.020639 260.578007 
L 414.833088 237.452095 
L 415.239312 220.968732 
L 415.645536 198.970414 
L 416.051761 196.182183 
L 417.270434 205.797478 
L 418.082883 218.467525 
L 422.551351 218.570034 
L 422.957576 260.578007 
L 423.770025 237.452095 
L 424.176249 220.968732 
L 424.582473 198.970414 
L 424.988698 196.182183 
L 426.207371 205.797478 
L 427.01982 218.467525 
L 431.488288 218.570034 
L 431.894513 260.578007 
L 432.706962 237.452095 
L 433.113186 220.968732 
L 433.51941 198.970414 
L 433.925635 196.182183 
L 435.144308 205.797478 
L 435.956757 218.467525 
L 440.425225 218.570034 
L 440.83145 260.578007 
L 441.643898 237.452095 
L 442.050123 220.968732 
L 442.456347 198.970414 
L 442.862572 196.182183 
L 444.081245 205.797478 
L 444.893694 218.467525 
L 449.362162 218.570034 
L 449.768387 260.578007 
L 450.580835 237.452095 
L 450.98706 220.968732 
L 451.393284 198.970414 
L 451.799509 196.182183 
L 453.018182 205.797478 
L 453.830631 218.467525 
L 458.299099 218.570034 
L 458.705324 260.578007 
L 459.517772 237.452095 
L 459.923997 220.968732 
L 460.330221 198.970414 
L 460.736446 196.182183 
L 461.955119 205.797478 
L 462.767568 218.467525 
L 467.236036 218.570034 
L 467.64226 260.578007 
L 468.454709 237.452095 
L 468.860934 220.968732 
L 469.267158 198.970414 
L 469.673382 196.182183 
L 470.892056 205.797478 
L 471.704505 218.467525 
L 476.172973 218.570034 
L 476.579197 260.578007 
L 477.391646 237.452095 
L 477.797871 220.968732 
L 478.204095 198.970414 
L 478.610319 196.182183 
L 479.828993 205.797478 
L 480.641441 218.467525 
L 485.10991 218.570034 
L 485.516134 260.578007 
L 486.328583 237.452095 
L 486.734808 220.968732 
L 487.141032 198.970414 
L 487.547256 196.182183 
L 488.76593 205.797478 
L 489.578378 218.467525 
L 494.046847 218.570034 
L 494.453071 260.578007 
L 495.26552 237.452095 
L 495.671744 220.968732 
L 496.077969 198.970414 
L 496.484193 196.182183 
L 497.702867 205.797478 
L 498.109091 212.788556 
L 498.109091 212.788556 
" style="fill:none;stroke:#bf00bf;stroke-linecap:square;stroke-width:1.5;"/>
   </g>
   <g id="line2d_32">
    <path clip-path="url(#pa94e479fa9)" d="M 92.290909 218.488027 
L 92.697133 218.488027 
L 93.103358 218.488027 
L 93.509582 217.893478 
L 94.322031 217.667959 
L 97.165602 217.319431 
L 100.009173 217.278427 
L 110.164783 217.278427 
L 111.383456 217.954983 
L 112.602129 218.201003 
L 115.851925 218.426522 
L 116.664373 218.467525 
L 117.070598 221.932312 
L 117.476822 262.587173 
L 117.883047 277.717424 
L 118.289271 283.068366 
L 118.695495 286.512651 
L 119.10172 305.804746 
L 119.507944 294.323797 
L 119.914169 258.302319 
L 120.726618 109.152488 
L 121.132842 125.594847 
L 121.539066 168.894427 
L 121.945291 187.366454 
L 122.351515 194.419037 
L 122.75774 198.150346 
L 123.570188 202.804231 
L 124.382637 206.105003 
L 125.195086 208.60621 
L 126.007535 210.533369 
L 126.413759 212.768054 
L 128.444881 260.74202 
L 128.851106 263.940285 
L 129.25733 258.732854 
L 129.663554 243.295078 
L 130.069779 216.82739 
L 130.476003 180.231864 
L 130.882228 161.800841 
L 131.288452 189.396122 
L 131.694676 198.519376 
L 132.100901 202.373695 
L 132.91335 206.289519 
L 133.725799 208.811227 
L 134.538247 210.697383 
L 134.944472 213.588122 
L 135.756921 232.203661 
L 136.569369 248.974047 
L 136.975594 252.520841 
L 137.381818 260.701017 
L 137.788043 257.625763 
L 138.194267 244.012637 
L 138.600491 219.513112 
L 139.006716 184.967756 
L 139.41294 162.149369 
L 139.819165 190.113681 
L 140.225389 199.277939 
L 140.631613 203.091254 
L 141.444062 206.843064 
L 142.256511 209.262264 
L 142.662735 210.225844 
L 143.475184 214.715715 
L 143.881409 219.820637 
L 145.100082 244.094644 
L 145.506306 248.543512 
L 145.912531 248.625519 
L 146.318755 254.058468 
L 146.72498 246.698359 
L 147.131204 228.779878 
L 147.537428 201.10259 
L 147.943653 165.634658 
L 148.349877 186.669397 
L 148.756102 199.011417 
L 149.162326 203.624298 
L 149.56855 205.961492 
L 150.380999 208.770224 
L 150.787224 209.81581 
L 151.193448 211.517451 
L 151.599672 214.264678 
L 152.005897 215.86381 
L 152.412121 216.888895 
L 154.037019 243.725614 
L 154.443243 246.472841 
L 154.849468 244.914712 
L 155.255692 248.482007 
L 155.661916 239.563769 
L 156.068141 220.82522 
L 156.88059 170.063024 
L 157.286814 194.398536 
L 157.693038 202.31219 
L 158.099263 205.571959 
L 158.505487 207.417112 
L 159.317936 209.81581 
L 160.536609 215.98682 
L 160.942834 216.9504 
L 161.349058 219.431105 
L 162.973956 242.987553 
L 163.38018 244.422671 
L 163.786405 241.511431 
L 164.192629 243.705112 
L 164.598853 233.454264 
L 165.005078 213.977654 
L 165.411302 186.95642 
L 165.817527 179.801329 
L 166.223751 198.027336 
L 166.629975 204.136841 
L 167.0362 206.802061 
L 168.254873 211.353437 
L 168.661097 214.203173 
L 169.067322 215.843308 
L 169.473546 216.868393 
L 169.879771 217.544949 
L 170.285995 220.927729 
L 171.504668 238.84621 
L 171.910893 242.577519 
L 172.317117 243.233573 
L 172.723342 239.543268 
L 173.129566 240.916881 
L 173.53579 229.907471 
L 173.942015 209.979824 
L 174.348239 183.0816 
L 174.754464 185.439295 
L 175.160688 200.098007 
L 175.566912 205.182427 
L 175.973137 207.51962 
L 176.785586 210.041329 
L 177.19181 213.07558 
L 177.598034 215.166753 
L 178.004259 216.437858 
L 178.816708 217.831973 
L 179.222932 221.829803 
L 180.441605 239.194739 
L 180.84783 242.516014 
L 181.254054 242.659525 
L 181.660278 238.415675 
L 182.066503 239.276746 
L 182.472727 227.611281 
L 182.878952 207.171092 
L 183.285176 180.047349 
L 183.6914 189.088597 
L 184.097625 201.430617 
L 184.503849 205.838481 
L 184.910074 207.929654 
L 185.722523 210.758888 
L 186.128747 213.895647 
L 186.534971 215.679295 
L 186.941196 216.765885 
L 187.753645 217.975485 
L 188.159869 222.301342 
L 189.378542 239.379254 
L 189.784767 242.516014 
L 190.190991 242.393003 
L 190.597215 237.862129 
L 191.00344 238.47718 
L 191.409664 226.483688 
L 191.815889 205.776976 
L 192.222113 178.550725 
L 193.034562 202.066169 
L 193.440786 206.125505 
L 193.847011 208.134671 
L 194.253235 209.426278 
L 194.659459 211.271431 
L 195.065684 214.203173 
L 195.471908 215.843308 
L 195.878133 216.888895 
L 196.690581 218.03699 
L 197.096806 222.567864 
L 198.315479 239.563769 
L 198.721704 242.577519 
L 199.127928 242.290495 
L 199.534152 237.534102 
L 199.940377 238.005641 
L 200.346601 225.725125 
L 200.752826 204.751892 
L 201.15905 177.341125 
L 201.565274 192.081844 
L 201.971499 202.476203 
L 202.377723 206.330522 
L 202.783948 208.257681 
L 203.190172 209.528786 
L 203.596396 211.599458 
L 204.002621 214.367186 
L 204.408845 215.966319 
L 204.81507 216.9504 
L 205.627518 218.077993 
L 206.033743 222.690875 
L 207.252416 239.604773 
L 207.65864 242.557017 
L 208.064865 242.208488 
L 208.471089 237.39059 
L 208.877314 237.800624 
L 209.283538 225.458603 
L 209.689762 204.423864 
L 210.095987 176.992597 
L 210.502211 192.51238 
L 210.908436 202.640217 
L 211.31466 206.412529 
L 211.720885 208.298685 
L 212.127109 209.56979 
L 213.345782 216.007322 
L 213.752007 216.991403 
L 214.158231 217.647458 
L 214.564455 218.077993 
L 214.97068 222.75238 
L 216.189353 239.645776 
L 216.595577 242.557017 
L 217.001802 242.187986 
L 217.408026 237.329085 
L 217.814251 237.677614 
L 218.220475 225.29459 
L 218.626699 204.198346 
L 219.032924 176.746576 
L 219.439148 192.778902 
L 219.845373 202.742725 
L 220.251597 206.453532 
L 220.657821 208.319186 
L 221.064046 209.590292 
L 222.282719 216.027824 
L 222.688943 217.011905 
L 223.501392 218.098495 
L 223.907617 222.772881 
L 225.12629 239.645776 
L 225.532514 242.557017 
L 225.938739 242.167485 
L 226.344963 237.288081 
L 226.751188 237.63661 
L 227.157412 225.212583 
L 227.563636 204.116339 
L 227.969861 176.644068 
L 228.376085 192.901912 
L 228.78231 202.783729 
L 229.188534 206.474034 
L 229.594758 208.339688 
L 230.000983 209.610793 
L 231.219656 216.048325 
L 231.62588 217.011905 
L 232.438329 218.098495 
L 233.250778 228.759376 
L 234.063227 239.645776 
L 234.469451 242.557017 
L 234.875676 242.167485 
L 235.2819 237.26758 
L 235.688124 237.595607 
L 236.094349 225.17158 
L 236.500573 204.054834 
L 236.906798 176.582563 
L 237.313022 192.963417 
L 237.719247 202.804231 
L 238.125471 206.474034 
L 238.531695 208.339688 
L 238.93792 209.610793 
L 240.156593 216.048325 
L 240.562817 217.011905 
L 241.375266 218.098495 
L 242.187715 228.759376 
L 243.000164 239.666278 
L 243.406388 242.557017 
L 243.812613 242.146983 
L 244.218837 237.26758 
L 244.625061 237.595607 
L 245.031286 225.17158 
L 245.43751 204.034332 
L 245.843735 176.562061 
L 246.249959 193.00442 
L 246.656183 202.804231 
L 247.062408 206.494536 
L 247.468632 208.36019 
L 247.874857 209.610793 
L 249.09353 216.048325 
L 249.499754 217.011905 
L 249.905979 217.667959 
L 250.312203 218.098495 
L 251.124652 228.759376 
L 251.937101 239.666278 
L 252.343325 242.557017 
L 252.74955 242.146983 
L 253.155774 237.247078 
L 253.561998 237.595607 
L 253.968223 225.151078 
L 254.374447 204.034332 
L 254.780672 176.541559 
L 255.186896 193.00442 
L 255.59312 202.824732 
L 255.999345 206.494536 
L 256.405569 208.36019 
L 256.811794 209.610793 
L 258.030467 216.048325 
L 258.436691 217.011905 
L 258.842916 217.667959 
L 259.24914 218.098495 
L 260.061589 228.759376 
L 260.874038 239.666278 
L 261.280262 242.557017 
L 261.686486 242.146983 
L 262.092711 237.247078 
L 262.498935 237.575105 
L 262.90516 225.151078 
L 263.311384 204.013831 
L 263.717609 176.541559 
L 264.123833 193.024922 
L 264.530057 202.824732 
L 264.936282 206.494536 
L 265.342506 208.36019 
L 265.748731 209.610793 
L 266.967404 216.048325 
L 267.373628 217.011905 
L 267.779853 217.667959 
L 268.186077 218.098495 
L 268.998526 228.759376 
L 269.810975 239.666278 
L 270.217199 242.557017 
L 270.623423 242.146983 
L 271.029648 237.247078 
L 271.435872 237.575105 
L 271.842097 225.151078 
L 272.248321 204.013831 
L 272.654545 176.541559 
L 273.06077 193.024922 
L 273.466994 202.824732 
L 273.873219 206.494536 
L 274.279443 208.36019 
L 274.685667 209.610793 
L 275.904341 216.048325 
L 276.310565 217.011905 
L 276.71679 217.667959 
L 277.123014 218.098495 
L 277.935463 228.759376 
L 278.747912 239.666278 
L 279.154136 242.557017 
L 279.56036 242.146983 
L 279.966585 237.247078 
L 280.372809 237.575105 
L 280.779034 225.151078 
L 281.185258 204.013831 
L 281.591482 176.541559 
L 281.997707 193.024922 
L 282.403931 202.824732 
L 282.810156 206.494536 
L 283.21638 208.36019 
L 283.622604 209.610793 
L 284.841278 216.048325 
L 285.247502 217.011905 
L 285.653726 217.667959 
L 286.059951 218.098495 
L 286.8724 228.779878 
L 287.684848 239.666278 
L 288.091073 242.557017 
L 288.497297 242.146983 
L 288.903522 237.247078 
L 289.309746 237.575105 
L 289.715971 225.151078 
L 290.122195 204.013831 
L 290.528419 176.541559 
L 290.934644 193.024922 
L 291.340868 202.824732 
L 291.747093 206.494536 
L 292.153317 208.36019 
L 292.559541 209.610793 
L 293.778215 216.048325 
L 294.184439 217.011905 
L 294.590663 217.667959 
L 294.996888 218.098495 
L 295.809337 228.779878 
L 296.621785 239.666278 
L 297.02801 242.557017 
L 297.434234 242.146983 
L 297.840459 237.247078 
L 298.246683 237.575105 
L 298.652907 225.151078 
L 299.059132 204.013831 
L 299.465356 176.541559 
L 299.871581 193.024922 
L 300.277805 202.824732 
L 300.684029 206.494536 
L 301.090254 208.36019 
L 301.496478 209.610793 
L 302.715152 216.048325 
L 303.121376 217.011905 
L 303.5276 217.667959 
L 303.933825 218.098495 
L 304.746274 228.779878 
L 305.558722 239.666278 
L 305.964947 242.557017 
L 306.371171 242.146983 
L 306.777396 237.247078 
L 307.18362 237.575105 
L 307.589844 225.151078 
L 307.996069 204.013831 
L 308.402293 176.541559 
L 308.808518 193.024922 
L 309.214742 202.824732 
L 309.620966 206.494536 
L 310.027191 208.36019 
L 310.433415 209.610793 
L 311.652088 216.048325 
L 312.058313 217.011905 
L 312.464537 217.667959 
L 312.870762 218.098495 
L 313.68321 228.779878 
L 314.495659 239.666278 
L 314.901884 242.557017 
L 315.308108 242.146983 
L 315.714333 237.247078 
L 316.120557 237.575105 
L 316.526781 225.151078 
L 316.933006 204.013831 
L 317.33923 176.541559 
L 317.745455 193.024922 
L 318.151679 202.824732 
L 318.557903 206.494536 
L 318.964128 208.36019 
L 319.370352 209.610793 
L 320.589025 216.048325 
L 320.99525 217.011905 
L 321.401474 217.667959 
L 321.807699 218.098495 
L 322.620147 228.779878 
L 323.432596 239.666278 
L 323.838821 242.557017 
L 324.245045 242.146983 
L 324.651269 237.247078 
L 325.057494 237.575105 
L 325.463718 225.151078 
L 325.869943 204.013831 
L 326.276167 176.541559 
L 326.682391 193.024922 
L 327.088616 202.824732 
L 327.49484 206.494536 
L 327.901065 208.36019 
L 328.307289 209.610793 
L 329.525962 216.048325 
L 329.932187 217.011905 
L 330.338411 217.667959 
L 330.744636 218.098495 
L 331.557084 228.779878 
L 332.369533 239.666278 
L 332.775758 242.557017 
L 333.181982 242.146983 
L 333.588206 237.247078 
L 333.994431 237.575105 
L 334.400655 225.151078 
L 334.80688 204.013831 
L 335.213104 176.541559 
L 335.619328 193.024922 
L 336.025553 202.824732 
L 336.431777 206.494536 
L 336.838002 208.36019 
L 337.244226 209.610793 
L 338.462899 216.048325 
L 338.869124 217.011905 
L 339.275348 217.667959 
L 339.681572 218.098495 
L 340.494021 228.779878 
L 341.30647 239.666278 
L 341.712695 242.557017 
L 342.118919 242.146983 
L 342.525143 237.247078 
L 342.931368 237.575105 
L 343.337592 225.151078 
L 343.743817 204.013831 
L 344.150041 176.541559 
L 344.556265 193.024922 
L 344.96249 202.824732 
L 345.368714 206.494536 
L 345.774939 208.36019 
L 346.181163 209.610793 
L 347.399836 216.048325 
L 347.806061 217.011905 
L 348.212285 217.667959 
L 348.618509 218.098495 
L 349.430958 228.779878 
L 350.243407 239.666278 
L 350.649631 242.557017 
L 351.055856 242.146983 
L 351.46208 237.247078 
L 351.868305 237.575105 
L 352.274529 225.151078 
L 352.680753 204.013831 
L 353.086978 176.541559 
L 353.493202 193.024922 
L 353.899427 202.824732 
L 354.305651 206.494536 
L 354.711876 208.36019 
L 355.1181 209.610793 
L 356.336773 216.048325 
L 356.742998 217.011905 
L 357.149222 217.667959 
L 357.555446 218.098495 
L 358.367895 228.779878 
L 359.180344 239.666278 
L 359.586568 242.557017 
L 359.992793 242.146983 
L 360.399017 237.247078 
L 360.805242 237.575105 
L 361.211466 225.151078 
L 361.61769 204.013831 
L 362.023915 176.541559 
L 362.430139 193.024922 
L 362.836364 202.824732 
L 363.242588 206.494536 
L 363.648812 208.36019 
L 364.055037 209.610793 
L 365.27371 216.048325 
L 365.679934 217.011905 
L 366.086159 217.667959 
L 366.492383 218.098495 
L 367.304832 228.779878 
L 368.117281 239.666278 
L 368.523505 242.557017 
L 368.92973 242.146983 
L 369.335954 237.247078 
L 369.742179 237.575105 
L 370.148403 225.151078 
L 370.554627 204.013831 
L 370.960852 176.541559 
L 371.367076 193.024922 
L 371.773301 202.824732 
L 372.179525 206.494536 
L 372.585749 208.36019 
L 372.991974 209.610793 
L 374.210647 216.048325 
L 374.616871 217.011905 
L 375.023096 217.667959 
L 375.42932 218.098495 
L 376.241769 228.779878 
L 377.054218 239.666278 
L 377.460442 242.557017 
L 377.866667 242.146983 
L 378.272891 237.247078 
L 378.679115 237.575105 
L 379.08534 225.151078 
L 379.491564 204.013831 
L 379.897789 176.541559 
L 380.304013 193.024922 
L 380.710238 202.824732 
L 381.116462 206.494536 
L 381.522686 208.36019 
L 381.928911 209.610793 
L 383.147584 216.048325 
L 383.553808 217.011905 
L 383.960033 217.667959 
L 384.366257 218.098495 
L 385.178706 228.779878 
L 385.991155 239.666278 
L 386.397379 242.557017 
L 386.803604 242.146983 
L 387.209828 237.247078 
L 387.616052 237.575105 
L 388.022277 225.151078 
L 388.428501 204.013831 
L 388.834726 176.541559 
L 389.24095 193.024922 
L 389.647174 202.824732 
L 390.053399 206.494536 
L 390.459623 208.36019 
L 390.865848 209.610793 
L 392.084521 216.048325 
L 392.490745 217.011905 
L 392.89697 217.667959 
L 393.303194 218.098495 
L 394.115643 228.779878 
L 394.928092 239.666278 
L 395.334316 242.557017 
L 395.740541 242.146983 
L 396.146765 237.247078 
L 396.552989 237.575105 
L 396.959214 225.151078 
L 397.365438 204.013831 
L 397.771663 176.541559 
L 398.177887 193.024922 
L 398.584111 202.824732 
L 398.990336 206.494536 
L 399.39656 208.36019 
L 399.802785 209.610793 
L 401.021458 216.048325 
L 401.427682 217.011905 
L 401.833907 217.667959 
L 402.240131 218.098495 
L 403.05258 228.779878 
L 403.865029 239.666278 
L 404.271253 242.557017 
L 404.677477 242.146983 
L 405.083702 237.247078 
L 405.489926 237.575105 
L 405.896151 225.151078 
L 406.302375 204.013831 
L 406.7086 176.541559 
L 407.114824 193.024922 
L 407.521048 202.824732 
L 407.927273 206.494536 
L 408.333497 208.36019 
L 408.739722 209.610793 
L 409.958395 216.048325 
L 410.364619 217.011905 
L 410.770844 217.667959 
L 411.177068 218.098495 
L 411.989517 228.779878 
L 412.801966 239.666278 
L 413.20819 242.557017 
L 413.614414 242.146983 
L 414.020639 237.247078 
L 414.426863 237.575105 
L 414.833088 225.151078 
L 415.239312 204.013831 
L 415.645536 176.541559 
L 416.051761 193.024922 
L 416.457985 202.824732 
L 416.86421 206.494536 
L 417.270434 208.36019 
L 417.676658 209.610793 
L 418.895332 216.048325 
L 419.301556 217.011905 
L 419.707781 217.667959 
L 420.114005 218.098495 
L 420.926454 228.779878 
L 421.738903 239.666278 
L 422.145127 242.557017 
L 422.551351 242.146983 
L 422.957576 237.247078 
L 423.3638 237.575105 
L 423.770025 225.151078 
L 424.176249 204.013831 
L 424.582473 176.541559 
L 424.988698 193.024922 
L 425.394922 202.824732 
L 425.801147 206.494536 
L 426.207371 208.36019 
L 426.613595 209.610793 
L 427.832269 216.048325 
L 428.238493 217.011905 
L 428.644717 217.667959 
L 429.050942 218.098495 
L 429.863391 228.779878 
L 430.675839 239.666278 
L 431.082064 242.557017 
L 431.488288 242.146983 
L 431.894513 237.247078 
L 432.300737 237.575105 
L 432.706962 225.151078 
L 433.113186 204.013831 
L 433.51941 176.541559 
L 433.925635 193.024922 
L 434.331859 202.824732 
L 434.738084 206.494536 
L 435.144308 208.36019 
L 435.550532 209.610793 
L 436.769206 216.048325 
L 437.17543 217.011905 
L 437.581654 217.667959 
L 437.987879 218.098495 
L 438.800328 228.779878 
L 439.612776 239.666278 
L 440.019001 242.557017 
L 440.425225 242.146983 
L 440.83145 237.247078 
L 441.237674 237.575105 
L 441.643898 225.151078 
L 442.050123 204.013831 
L 442.456347 176.541559 
L 442.862572 193.024922 
L 443.268796 202.824732 
L 443.67502 206.494536 
L 444.081245 208.36019 
L 444.487469 209.610793 
L 445.706143 216.048325 
L 446.112367 217.011905 
L 446.518591 217.667959 
L 446.924816 218.098495 
L 447.737265 228.779878 
L 448.549713 239.666278 
L 448.955938 242.557017 
L 449.362162 242.146983 
L 449.768387 237.247078 
L 450.174611 237.575105 
L 450.580835 225.151078 
L 450.98706 204.013831 
L 451.393284 176.541559 
L 451.799509 193.024922 
L 452.205733 202.824732 
L 452.611957 206.494536 
L 453.018182 208.36019 
L 453.424406 209.610793 
L 454.643079 216.048325 
L 455.049304 217.011905 
L 455.455528 217.667959 
L 455.861753 218.098495 
L 456.674201 228.779878 
L 457.48665 239.666278 
L 457.892875 242.557017 
L 458.299099 242.146983 
L 458.705324 237.247078 
L 459.111548 237.575105 
L 459.517772 225.151078 
L 459.923997 204.013831 
L 460.330221 176.541559 
L 460.736446 193.024922 
L 461.14267 202.824732 
L 461.548894 206.494536 
L 461.955119 208.36019 
L 462.361343 209.610793 
L 463.580016 216.048325 
L 463.986241 217.011905 
L 464.392465 217.667959 
L 464.79869 218.098495 
L 465.611138 228.779878 
L 466.423587 239.666278 
L 466.829812 242.557017 
L 467.236036 242.146983 
L 467.64226 237.247078 
L 468.048485 237.575105 
L 468.454709 225.151078 
L 468.860934 204.013831 
L 469.267158 176.541559 
L 469.673382 193.024922 
L 470.079607 202.824732 
L 470.485831 206.494536 
L 470.892056 208.36019 
L 471.29828 209.610793 
L 472.516953 216.048325 
L 472.923178 217.011905 
L 473.329402 217.667959 
L 473.735627 218.098495 
L 474.548075 228.779878 
L 475.360524 239.666278 
L 475.766749 242.557017 
L 476.172973 242.146983 
L 476.579197 237.247078 
L 476.985422 237.575105 
L 477.391646 225.151078 
L 477.797871 204.013831 
L 478.204095 176.541559 
L 478.610319 193.024922 
L 479.016544 202.824732 
L 479.422768 206.494536 
L 479.828993 208.36019 
L 480.235217 209.610793 
L 481.45389 216.048325 
L 481.860115 217.011905 
L 482.266339 217.667959 
L 482.672563 218.098495 
L 483.485012 228.779878 
L 484.297461 239.666278 
L 484.703686 242.557017 
L 485.10991 242.146983 
L 485.516134 237.247078 
L 485.922359 237.575105 
L 486.328583 225.151078 
L 486.734808 204.013831 
L 487.141032 176.541559 
L 487.547256 193.024922 
L 487.953481 202.824732 
L 488.359705 206.494536 
L 488.76593 208.36019 
L 489.172154 209.610793 
L 490.390827 216.048325 
L 490.797052 217.011905 
L 491.203276 217.667959 
L 491.6095 218.098495 
L 492.421949 228.779878 
L 493.234398 239.666278 
L 493.640622 242.557017 
L 494.046847 242.146983 
L 494.453071 237.247078 
L 494.859296 237.575105 
L 495.26552 225.151078 
L 495.671744 204.013831 
L 496.077969 176.541559 
L 496.484193 193.024922 
L 496.890418 202.824732 
L 497.296642 206.494536 
L 497.702867 208.36019 
L 498.109091 209.610793 
L 498.109091 209.610793 
" style="fill:none;stroke:#00bfbf;stroke-linecap:square;stroke-width:1.5;"/>
   </g>
   <g id="line2d_33">
    <path clip-path="url(#pa94e479fa9)" d="M 92.290909 218.488027 
L 92.697133 218.488027 
L 93.103358 218.488027 
L 93.509582 218.344515 
L 94.322031 217.91398 
L 96.353153 217.483444 
L 101.63407 217.319431 
L 110.571007 217.360434 
L 115.4457 218.262508 
L 116.258149 218.324014 
L 116.664373 213.506115 
L 117.070598 159.13562 
L 117.476822 133.898034 
L 117.883047 122.519593 
L 118.289271 124.364746 
L 118.695495 140.130549 
L 119.10172 180.313871 
L 119.507944 240.855376 
L 119.914169 282.207295 
L 120.320393 369.36 
L 120.726618 336.065247 
L 121.132842 275.441736 
L 121.945291 230.13299 
L 122.351515 220.230671 
L 122.75774 215.843308 
L 123.163964 213.998156 
L 123.570188 213.342102 
L 123.976413 213.280597 
L 124.382637 213.465112 
L 126.007535 214.756719 
L 126.819984 194.152515 
L 127.632432 176.07002 
L 128.038657 173.199783 
L 128.444881 179.063268 
L 128.851106 194.624054 
L 129.25733 220.476692 
L 130.069779 296.948014 
L 130.476003 305.353708 
L 130.882228 249.691607 
L 131.288452 228.615864 
L 131.694676 220.005153 
L 132.100901 216.376353 
L 132.507125 214.859227 
L 132.91335 214.326183 
L 133.319574 214.264678 
L 134.132023 214.633708 
L 134.538247 214.879729 
L 134.944472 206.781559 
L 135.756921 186.115851 
L 136.163145 178.509722 
L 136.569369 175.331959 
L 136.975594 178.755742 
L 137.381818 193.209437 
L 137.788043 217.585953 
L 138.600491 290.633492 
L 139.006716 306.235281 
L 139.41294 250.122142 
L 139.819165 228.943892 
L 140.225389 220.312678 
L 140.631613 216.642875 
L 141.037838 215.125749 
L 141.444062 214.592705 
L 141.850287 214.490197 
L 142.662735 214.838725 
L 143.06896 215.392271 
L 143.475184 211.291932 
L 144.693857 185.090766 
L 145.100082 180.580393 
L 145.506306 181.236447 
L 145.912531 188.904081 
L 146.318755 207.663132 
L 147.131204 269.08621 
L 147.537428 306.153275 
L 147.943653 260.024461 
L 148.349877 232.92122 
L 148.756102 222.178332 
L 149.162326 217.688461 
L 149.56855 215.802305 
L 149.974775 215.064244 
L 150.380999 214.859227 
L 150.787224 214.920732 
L 151.193448 215.289763 
L 152.005897 216.806888 
L 152.818346 201.061586 
L 153.630794 186.874414 
L 154.037019 184.127186 
L 154.443243 186.546386 
L 154.849468 195.669641 
L 155.255692 215.125749 
L 156.474365 294.139281 
L 156.88059 245.693776 
L 157.286814 227.488271 
L 157.693038 220.107661 
L 158.099263 216.970902 
L 158.505487 215.658793 
L 158.911712 215.187254 
L 159.317936 215.105247 
L 159.724161 215.49478 
L 160.536609 216.991403 
L 160.942834 215.125749 
L 162.567731 188.330034 
L 162.973956 187.058929 
L 163.38018 190.995254 
L 163.786405 201.410115 
L 164.192629 221.563281 
L 165.005078 278.578495 
L 165.411302 275.892773 
L 165.817527 238.907715 
L 166.223751 224.843553 
L 166.629975 219.082576 
L 167.0362 216.663376 
L 167.442424 215.658793 
L 167.848649 215.330766 
L 168.254873 215.515281 
L 169.473546 217.524447 
L 169.879771 214.100664 
L 171.098444 193.311946 
L 171.504668 189.150102 
L 171.910893 188.740068 
L 172.317117 193.557966 
L 172.723342 204.751892 
L 173.129566 225.315092 
L 173.942015 281.243715 
L 174.348239 265.313898 
L 174.754464 234.950888 
L 175.160688 223.305925 
L 175.566912 218.488027 
L 175.973137 216.478861 
L 176.379361 215.658793 
L 176.785586 215.412773 
L 177.19181 215.945817 
L 178.004259 217.298929 
L 178.410483 217.811471 
L 178.816708 213.362603 
L 180.035381 193.086427 
L 180.441605 189.396122 
L 180.84783 189.560136 
L 181.254054 195.034088 
L 181.660278 206.863566 
L 182.472727 254.57101 
L 182.878952 283.785925 
L 183.6914 232.388176 
L 184.097625 222.280841 
L 184.503849 218.098495 
L 184.910074 216.335349 
L 185.316298 215.658793 
L 185.722523 215.556285 
L 186.941196 217.503946 
L 187.34742 217.954983 
L 187.753645 212.993573 
L 188.972318 192.963417 
L 189.378542 189.498631 
L 189.784767 189.949668 
L 190.190991 195.751647 
L 190.597215 207.909153 
L 191.409664 255.985627 
L 191.815889 285.077532 
L 192.628337 231.137573 
L 193.034562 221.7888 
L 193.440786 217.91398 
L 193.847011 216.273844 
L 194.253235 215.638292 
L 194.659459 215.679295 
L 195.878133 217.585953 
L 196.284357 218.016488 
L 196.690581 212.706549 
L 197.909255 192.778902 
L 198.315479 189.457627 
L 198.721704 190.113681 
L 199.127928 196.182183 
L 199.534152 208.60621 
L 200.346601 257.11322 
L 200.752826 286.225627 
L 201.15905 252.725858 
L 201.565274 230.276502 
L 201.971499 221.460773 
L 202.377723 217.770468 
L 202.783948 216.232841 
L 203.190172 215.638292 
L 203.596396 215.7408 
L 204.81507 217.626956 
L 205.221294 218.03699 
L 205.627518 212.624542 
L 206.846192 192.7584 
L 207.252416 189.498631 
L 207.65864 190.21619 
L 208.064865 196.346197 
L 208.471089 208.852231 
L 209.283538 257.441247 
L 209.689762 286.492149 
L 210.095987 251.90579 
L 210.502211 229.968976 
L 210.908436 221.337763 
L 211.31466 217.729464 
L 211.720885 216.212339 
L 212.127109 215.638292 
L 212.533333 215.781803 
L 213.752007 217.647458 
L 214.158231 218.057492 
L 214.564455 212.563037 
L 215.783129 192.737898 
L 216.189353 189.498631 
L 216.595577 190.277695 
L 217.001802 196.448705 
L 217.408026 209.016244 
L 218.220475 257.687268 
L 218.626699 286.738169 
L 219.032924 251.393247 
L 219.439148 229.784461 
L 219.845373 221.255756 
L 220.251597 217.688461 
L 220.657821 216.212339 
L 221.064046 215.638292 
L 221.47027 215.781803 
L 222.688943 217.667959 
L 223.095168 218.077993 
L 223.501392 212.542536 
L 224.720066 192.717397 
L 225.12629 189.498631 
L 225.532514 190.298197 
L 225.938739 196.489708 
L 226.344963 209.077749 
L 227.157412 257.769275 
L 227.563636 286.820176 
L 227.969861 251.167729 
L 228.376085 229.702454 
L 228.78231 221.214753 
L 229.188534 217.688461 
L 229.594758 216.191837 
L 230.000983 215.638292 
L 230.407207 215.802305 
L 231.62588 217.667959 
L 232.032105 218.077993 
L 232.438329 212.522034 
L 233.657002 192.717397 
L 234.063227 189.498631 
L 234.469451 190.298197 
L 234.875676 196.530712 
L 235.2819 209.118753 
L 236.094349 257.83078 
L 236.500573 286.86118 
L 236.906798 251.044719 
L 237.313022 229.661451 
L 237.719247 221.214753 
L 238.125471 217.667959 
L 238.531695 216.191837 
L 238.93792 215.638292 
L 239.344144 215.802305 
L 240.562817 217.667959 
L 240.969042 218.077993 
L 241.375266 212.522034 
L 242.593939 192.717397 
L 243.000164 189.498631 
L 243.406388 190.318698 
L 243.812613 196.530712 
L 244.218837 209.139254 
L 245.031286 257.851281 
L 245.43751 286.902183 
L 245.843735 250.983214 
L 246.249959 229.640949 
L 246.656183 221.194251 
L 247.062408 217.667959 
L 247.468632 216.191837 
L 247.874857 215.638292 
L 248.281081 215.802305 
L 249.499754 217.667959 
L 249.905979 218.077993 
L 250.312203 212.522034 
L 251.530876 192.717397 
L 251.937101 189.498631 
L 252.343325 190.318698 
L 252.74955 196.530712 
L 253.155774 209.139254 
L 253.968223 257.871783 
L 254.374447 286.902183 
L 254.780672 250.962712 
L 255.186896 229.620447 
L 255.59312 221.194251 
L 255.999345 217.667959 
L 256.405569 216.191837 
L 256.811794 215.638292 
L 257.218018 215.802305 
L 258.436691 217.667959 
L 258.842916 218.077993 
L 259.24914 212.522034 
L 260.467813 192.717397 
L 260.874038 189.498631 
L 261.280262 190.318698 
L 261.686486 196.551214 
L 262.092711 209.139254 
L 262.90516 257.871783 
L 263.311384 286.902183 
L 263.717609 250.94221 
L 264.123833 229.620447 
L 264.530057 221.194251 
L 264.936282 217.667959 
L 265.342506 216.191837 
L 265.748731 215.638292 
L 266.154955 215.802305 
L 267.373628 217.667959 
L 267.779853 218.077993 
L 268.186077 212.522034 
L 269.40475 192.717397 
L 269.810975 189.498631 
L 270.217199 190.318698 
L 270.623423 196.551214 
L 271.029648 209.139254 
L 271.842097 257.871783 
L 272.248321 286.922685 
L 272.654545 250.94221 
L 273.06077 229.620447 
L 273.466994 221.194251 
L 273.873219 217.667959 
L 274.279443 216.191837 
L 274.685667 215.638292 
L 275.091892 215.802305 
L 276.310565 217.667959 
L 276.71679 218.077993 
L 277.123014 212.522034 
L 278.341687 192.717397 
L 278.747912 189.498631 
L 279.154136 190.318698 
L 279.56036 196.551214 
L 279.966585 209.139254 
L 280.779034 257.871783 
L 281.185258 286.922685 
L 281.591482 250.94221 
L 281.997707 229.620447 
L 282.403931 221.194251 
L 282.810156 217.667959 
L 283.21638 216.191837 
L 283.622604 215.638292 
L 284.028829 215.802305 
L 285.247502 217.667959 
L 285.653726 218.077993 
L 286.059951 212.522034 
L 287.278624 192.717397 
L 287.684848 189.498631 
L 288.091073 190.318698 
L 288.497297 196.551214 
L 288.903522 209.139254 
L 289.715971 257.871783 
L 290.122195 286.922685 
L 290.528419 250.94221 
L 290.934644 229.620447 
L 291.340868 221.194251 
L 291.747093 217.667959 
L 292.153317 216.191837 
L 292.559541 215.638292 
L 292.965766 215.802305 
L 294.184439 217.667959 
L 294.590663 218.077993 
L 294.996888 212.522034 
L 296.215561 192.717397 
L 296.621785 189.498631 
L 297.02801 190.318698 
L 297.434234 196.551214 
L 297.840459 209.139254 
L 298.652907 257.871783 
L 299.059132 286.922685 
L 299.465356 250.94221 
L 299.871581 229.620447 
L 300.277805 221.194251 
L 300.684029 217.667959 
L 301.090254 216.191837 
L 301.496478 215.638292 
L 301.902703 215.802305 
L 303.121376 217.667959 
L 303.5276 218.077993 
L 303.933825 212.522034 
L 305.152498 192.717397 
L 305.558722 189.498631 
L 305.964947 190.318698 
L 306.371171 196.551214 
L 306.777396 209.139254 
L 307.589844 257.871783 
L 307.996069 286.922685 
L 308.402293 250.94221 
L 308.808518 229.620447 
L 309.214742 221.194251 
L 309.620966 217.667959 
L 310.027191 216.191837 
L 310.433415 215.638292 
L 310.83964 215.802305 
L 312.058313 217.667959 
L 312.464537 218.077993 
L 312.870762 212.522034 
L 314.089435 192.717397 
L 314.495659 189.498631 
L 314.901884 190.318698 
L 315.308108 196.551214 
L 315.714333 209.139254 
L 316.526781 257.871783 
L 316.933006 286.922685 
L 317.33923 250.94221 
L 317.745455 229.620447 
L 318.151679 221.194251 
L 318.557903 217.667959 
L 318.964128 216.191837 
L 319.370352 215.638292 
L 319.776577 215.802305 
L 320.99525 217.667959 
L 321.401474 218.077993 
L 321.807699 212.522034 
L 323.026372 192.717397 
L 323.432596 189.498631 
L 323.838821 190.318698 
L 324.245045 196.551214 
L 324.651269 209.139254 
L 325.463718 257.871783 
L 325.869943 286.922685 
L 326.276167 250.94221 
L 326.682391 229.620447 
L 327.088616 221.194251 
L 327.49484 217.667959 
L 327.901065 216.191837 
L 328.307289 215.638292 
L 328.713514 215.802305 
L 329.932187 217.667959 
L 330.338411 218.077993 
L 330.744636 212.522034 
L 331.963309 192.717397 
L 332.369533 189.498631 
L 332.775758 190.318698 
L 333.181982 196.551214 
L 333.588206 209.139254 
L 334.400655 257.871783 
L 334.80688 286.922685 
L 335.213104 250.94221 
L 335.619328 229.620447 
L 336.025553 221.194251 
L 336.431777 217.667959 
L 336.838002 216.191837 
L 337.244226 215.638292 
L 337.65045 215.802305 
L 338.869124 217.667959 
L 339.275348 218.077993 
L 339.681572 212.522034 
L 340.900246 192.717397 
L 341.30647 189.498631 
L 341.712695 190.318698 
L 342.118919 196.551214 
L 342.525143 209.139254 
L 343.337592 257.871783 
L 343.743817 286.922685 
L 344.150041 250.94221 
L 344.556265 229.620447 
L 344.96249 221.194251 
L 345.368714 217.667959 
L 345.774939 216.191837 
L 346.181163 215.638292 
L 346.587387 215.802305 
L 347.806061 217.667959 
L 348.212285 218.077993 
L 348.618509 212.522034 
L 349.837183 192.717397 
L 350.243407 189.498631 
L 350.649631 190.318698 
L 351.055856 196.551214 
L 351.46208 209.139254 
L 352.274529 257.871783 
L 352.680753 286.922685 
L 353.086978 250.94221 
L 353.493202 229.620447 
L 353.899427 221.194251 
L 354.305651 217.667959 
L 354.711876 216.191837 
L 355.1181 215.638292 
L 355.524324 215.802305 
L 356.742998 217.667959 
L 357.149222 218.077993 
L 357.555446 212.522034 
L 358.77412 192.717397 
L 359.180344 189.498631 
L 359.586568 190.318698 
L 359.992793 196.551214 
L 360.399017 209.139254 
L 361.211466 257.871783 
L 361.61769 286.922685 
L 362.023915 250.94221 
L 362.430139 229.620447 
L 362.836364 221.194251 
L 363.242588 217.667959 
L 363.648812 216.191837 
L 364.055037 215.638292 
L 364.461261 215.802305 
L 365.679934 217.667959 
L 366.086159 218.077993 
L 366.492383 212.522034 
L 367.711057 192.717397 
L 368.117281 189.498631 
L 368.523505 190.318698 
L 368.92973 196.551214 
L 369.335954 209.139254 
L 370.148403 257.871783 
L 370.554627 286.922685 
L 370.960852 250.94221 
L 371.367076 229.620447 
L 371.773301 221.194251 
L 372.179525 217.667959 
L 372.585749 216.191837 
L 372.991974 215.638292 
L 373.398198 215.802305 
L 374.616871 217.667959 
L 375.023096 218.077993 
L 375.42932 212.522034 
L 376.647993 192.717397 
L 377.054218 189.498631 
L 377.460442 190.318698 
L 377.866667 196.551214 
L 378.272891 209.139254 
L 379.08534 257.871783 
L 379.491564 286.922685 
L 379.897789 250.94221 
L 380.304013 229.620447 
L 380.710238 221.194251 
L 381.116462 217.667959 
L 381.522686 216.191837 
L 381.928911 215.638292 
L 382.335135 215.802305 
L 383.553808 217.667959 
L 383.960033 218.077993 
L 384.366257 212.522034 
L 385.58493 192.717397 
L 385.991155 189.498631 
L 386.397379 190.318698 
L 386.803604 196.551214 
L 387.209828 209.139254 
L 388.022277 257.871783 
L 388.428501 286.922685 
L 388.834726 250.94221 
L 389.24095 229.620447 
L 389.647174 221.194251 
L 390.053399 217.667959 
L 390.459623 216.191837 
L 390.865848 215.638292 
L 391.272072 215.802305 
L 392.490745 217.667959 
L 392.89697 218.077993 
L 393.303194 212.522034 
L 394.521867 192.717397 
L 394.928092 189.498631 
L 395.334316 190.318698 
L 395.740541 196.551214 
L 396.146765 209.139254 
L 396.959214 257.871783 
L 397.365438 286.922685 
L 397.771663 250.94221 
L 398.177887 229.620447 
L 398.584111 221.194251 
L 398.990336 217.667959 
L 399.39656 216.191837 
L 399.802785 215.638292 
L 400.209009 215.802305 
L 401.427682 217.667959 
L 401.833907 218.077993 
L 402.240131 212.522034 
L 403.458804 192.717397 
L 403.865029 189.498631 
L 404.271253 190.318698 
L 404.677477 196.551214 
L 405.083702 209.139254 
L 405.896151 257.871783 
L 406.302375 286.922685 
L 406.7086 250.94221 
L 407.114824 229.620447 
L 407.521048 221.194251 
L 407.927273 217.667959 
L 408.333497 216.191837 
L 408.739722 215.638292 
L 409.145946 215.802305 
L 410.364619 217.667959 
L 410.770844 218.077993 
L 411.177068 212.522034 
L 412.395741 192.717397 
L 412.801966 189.498631 
L 413.20819 190.318698 
L 413.614414 196.551214 
L 414.020639 209.139254 
L 414.833088 257.871783 
L 415.239312 286.922685 
L 415.645536 250.94221 
L 416.051761 229.620447 
L 416.457985 221.194251 
L 416.86421 217.667959 
L 417.270434 216.191837 
L 417.676658 215.638292 
L 418.082883 215.802305 
L 419.301556 217.667959 
L 419.707781 218.077993 
L 420.114005 212.522034 
L 421.332678 192.717397 
L 421.738903 189.498631 
L 422.145127 190.318698 
L 422.551351 196.551214 
L 422.957576 209.139254 
L 423.770025 257.871783 
L 424.176249 286.922685 
L 424.582473 250.94221 
L 424.988698 229.620447 
L 425.394922 221.194251 
L 425.801147 217.667959 
L 426.207371 216.191837 
L 426.613595 215.638292 
L 427.01982 215.802305 
L 428.238493 217.667959 
L 428.644717 218.077993 
L 429.050942 212.522034 
L 430.269615 192.717397 
L 430.675839 189.498631 
L 431.082064 190.318698 
L 431.488288 196.551214 
L 431.894513 209.139254 
L 432.706962 257.871783 
L 433.113186 286.922685 
L 433.51941 250.94221 
L 433.925635 229.620447 
L 434.331859 221.194251 
L 434.738084 217.667959 
L 435.144308 216.191837 
L 435.550532 215.638292 
L 435.956757 215.802305 
L 437.17543 217.667959 
L 437.581654 218.077993 
L 437.987879 212.522034 
L 439.206552 192.717397 
L 439.612776 189.498631 
L 440.019001 190.318698 
L 440.425225 196.551214 
L 440.83145 209.139254 
L 441.643898 257.871783 
L 442.050123 286.922685 
L 442.456347 250.94221 
L 442.862572 229.620447 
L 443.268796 221.194251 
L 443.67502 217.667959 
L 444.081245 216.191837 
L 444.487469 215.638292 
L 444.893694 215.802305 
L 446.112367 217.667959 
L 446.518591 218.077993 
L 446.924816 212.522034 
L 448.143489 192.717397 
L 448.549713 189.498631 
L 448.955938 190.318698 
L 449.362162 196.551214 
L 449.768387 209.139254 
L 450.580835 257.871783 
L 450.98706 286.922685 
L 451.393284 250.94221 
L 451.799509 229.620447 
L 452.205733 221.194251 
L 452.611957 217.667959 
L 453.018182 216.191837 
L 453.424406 215.638292 
L 453.830631 215.802305 
L 455.049304 217.667959 
L 455.455528 218.077993 
L 455.861753 212.522034 
L 457.080426 192.717397 
L 457.48665 189.498631 
L 457.892875 190.318698 
L 458.299099 196.551214 
L 458.705324 209.139254 
L 459.517772 257.871783 
L 459.923997 286.922685 
L 460.330221 250.94221 
L 460.736446 229.620447 
L 461.14267 221.194251 
L 461.548894 217.667959 
L 461.955119 216.191837 
L 462.361343 215.638292 
L 462.767568 215.802305 
L 463.986241 217.667959 
L 464.392465 218.077993 
L 464.79869 212.522034 
L 466.017363 192.717397 
L 466.423587 189.498631 
L 466.829812 190.318698 
L 467.236036 196.551214 
L 467.64226 209.139254 
L 468.454709 257.871783 
L 468.860934 286.922685 
L 469.267158 250.94221 
L 469.673382 229.620447 
L 470.079607 221.194251 
L 470.485831 217.667959 
L 470.892056 216.191837 
L 471.29828 215.638292 
L 471.704505 215.802305 
L 472.923178 217.667959 
L 473.329402 218.077993 
L 473.735627 212.522034 
L 474.9543 192.717397 
L 475.360524 189.498631 
L 475.766749 190.318698 
L 476.172973 196.551214 
L 476.579197 209.139254 
L 477.391646 257.871783 
L 477.797871 286.922685 
L 478.204095 250.94221 
L 478.610319 229.620447 
L 479.016544 221.194251 
L 479.422768 217.667959 
L 479.828993 216.191837 
L 480.235217 215.638292 
L 480.641441 215.802305 
L 481.860115 217.667959 
L 482.266339 218.077993 
L 482.672563 212.522034 
L 483.891237 192.717397 
L 484.297461 189.498631 
L 484.703686 190.318698 
L 485.10991 196.551214 
L 485.516134 209.139254 
L 486.328583 257.871783 
L 486.734808 286.922685 
L 487.141032 250.94221 
L 487.547256 229.620447 
L 487.953481 221.194251 
L 488.359705 217.667959 
L 488.76593 216.191837 
L 489.172154 215.638292 
L 489.578378 215.802305 
L 490.797052 217.667959 
L 491.203276 218.077993 
L 491.6095 212.522034 
L 492.828174 192.717397 
L 493.234398 189.498631 
L 493.640622 190.318698 
L 494.046847 196.551214 
L 494.453071 209.139254 
L 495.26552 257.871783 
L 495.671744 286.922685 
L 496.077969 250.94221 
L 496.484193 229.620447 
L 496.890418 221.194251 
L 497.296642 217.667959 
L 497.702867 216.191837 
L 498.109091 215.638292 
L 498.109091 215.638292 
" style="fill:none;stroke:#ff0000;stroke-linecap:square;stroke-width:1.5;"/>
   </g>
   <g id="line2d_34">
    <path clip-path="url(#pa94e479fa9)" d="M 92.290909 218.488027 
L 92.697133 218.488027 
L 93.103358 218.488027 
L 93.509582 217.893478 
L 94.322031 217.790969 
L 95.540704 217.770468 
L 96.353153 217.565451 
L 103.258968 217.319431 
L 111.383456 217.380936 
L 114.227027 218.016488 
L 116.664373 218.324014 
L 117.070598 215.945817 
L 117.476822 187.571471 
L 117.883047 180.272868 
L 118.289271 206.966075 
L 118.695495 203.214264 
L 119.10172 201.389614 
L 119.507944 205.284936 
L 119.914169 66.96 
L 120.726618 271.976949 
L 121.132842 304.021098 
L 121.539066 291.392054 
L 121.945291 227.631783 
L 123.163964 223.572447 
L 123.976413 221.850305 
L 124.788862 220.70221 
L 125.60131 219.902644 
L 126.413759 219.328597 
L 126.819984 218.40602 
L 127.632432 214.982237 
L 128.444881 211.230427 
L 128.851106 210.246346 
L 129.25733 210.492366 
L 129.663554 212.337519 
L 130.069779 216.048325 
L 130.882228 226.258169 
L 131.288452 225.704624 
L 132.100901 223.059905 
L 132.91335 221.337763 
L 133.725799 220.292176 
L 134.538247 219.595119 
L 134.944472 219.328597 
L 135.350696 218.488027 
L 136.163145 215.289763 
L 136.975594 211.701966 
L 137.381818 210.574373 
L 137.788043 210.635878 
L 138.194267 212.276014 
L 138.600491 215.720298 
L 139.41294 225.868637 
L 139.819165 225.4176 
L 140.631613 222.895892 
L 141.444062 221.235254 
L 142.256511 220.210169 
L 143.06896 219.554115 
L 143.475184 219.328597 
L 143.881409 218.795553 
L 144.287633 217.729464 
L 145.912531 211.722468 
L 146.318755 211.250929 
L 146.72498 212.112 
L 147.131204 214.551702 
L 147.537428 218.672542 
L 147.943653 224.290007 
L 148.349877 224.966563 
L 149.56855 221.850305 
L 150.380999 220.5792 
L 151.193448 219.800136 
L 152.005897 219.328597 
L 152.412121 219.205586 
L 152.818346 218.549532 
L 153.630794 216.007322 
L 154.443243 213.137085 
L 154.849468 212.194007 
L 155.255692 212.070997 
L 155.661916 213.239593 
L 156.068141 215.884312 
L 156.88059 224.474522 
L 157.286814 224.187498 
L 158.099263 222.096325 
L 158.911712 220.722712 
L 159.724161 219.882142 
L 160.536609 219.410603 
L 160.942834 219.267092 
L 161.349058 219.000569 
L 161.755283 218.262508 
L 162.567731 215.802305 
L 163.38018 213.260095 
L 163.786405 212.583539 
L 164.192629 212.747553 
L 164.598853 214.182671 
L 165.005078 217.032407 
L 165.411302 221.235254 
L 165.817527 224.023485 
L 166.223751 223.531444 
L 167.0362 221.645288 
L 167.848649 220.435688 
L 168.661097 219.718129 
L 169.473546 219.349098 
L 169.879771 219.24659 
L 170.285995 218.898061 
L 170.692219 218.098495 
L 171.504668 215.679295 
L 172.317117 213.3216 
L 172.723342 212.809058 
L 173.129566 213.137085 
L 173.53579 214.736217 
L 173.942015 217.688461 
L 174.348239 221.91181 
L 174.754464 223.777464 
L 175.160688 223.162414 
L 175.973137 221.399268 
L 176.785586 220.271675 
L 177.598034 219.636122 
L 178.410483 219.328597 
L 178.816708 219.226088 
L 179.222932 218.816054 
L 179.629156 217.975485 
L 181.254054 213.3216 
L 181.660278 212.911566 
L 182.066503 213.342102 
L 182.472727 215.064244 
L 182.878952 218.139498 
L 183.285176 222.424353 
L 183.6914 223.654454 
L 184.503849 222.014319 
L 185.316298 220.640705 
L 186.128747 219.820637 
L 186.941196 219.431105 
L 187.753645 219.226088 
L 188.159869 218.775051 
L 188.566093 217.91398 
L 190.190991 213.3216 
L 190.597215 212.952569 
L 191.00344 213.44461 
L 191.409664 215.228258 
L 191.815889 218.365017 
L 192.222113 222.690875 
L 192.628337 223.613451 
L 194.253235 220.5792 
L 195.065684 219.800136 
L 195.878133 219.410603 
L 196.690581 219.226088 
L 197.096806 218.754549 
L 197.50303 217.872976 
L 199.127928 213.280597 
L 199.534152 212.952569 
L 199.940377 213.485614 
L 200.346601 215.330766 
L 200.752826 218.508529 
L 201.15905 222.87539 
L 201.565274 223.572447 
L 203.190172 220.558698 
L 204.002621 219.779634 
L 204.81507 219.410603 
L 205.627518 219.226088 
L 206.033743 218.734047 
L 206.439967 217.872976 
L 208.064865 213.301098 
L 208.471089 212.973071 
L 208.877314 213.506115 
L 209.283538 215.371769 
L 209.689762 218.570034 
L 210.095987 222.936895 
L 210.502211 223.572447 
L 212.127109 220.538197 
L 212.939558 219.779634 
L 213.752007 219.410603 
L 214.564455 219.226088 
L 214.97068 218.734047 
L 215.376904 217.852475 
L 217.001802 213.280597 
L 217.408026 212.973071 
L 217.814251 213.526617 
L 218.220475 215.392271 
L 218.626699 218.590536 
L 219.032924 222.977898 
L 219.439148 223.551946 
L 221.064046 220.517695 
L 221.876495 219.779634 
L 222.688943 219.410603 
L 223.501392 219.226088 
L 223.907617 218.734047 
L 224.313841 217.852475 
L 225.938739 213.280597 
L 226.344963 212.973071 
L 226.751188 213.526617 
L 227.157412 215.392271 
L 227.563636 218.611037 
L 227.969861 222.9984 
L 228.376085 223.551946 
L 230.000983 220.517695 
L 230.813432 219.759132 
L 231.62588 219.410603 
L 232.438329 219.226088 
L 232.844554 218.734047 
L 233.250778 217.852475 
L 234.875676 213.280597 
L 235.2819 212.973071 
L 235.688124 213.526617 
L 236.094349 215.412773 
L 236.500573 218.611037 
L 236.906798 223.018902 
L 237.313022 223.551946 
L 238.531695 221.091742 
L 239.344144 220.087159 
L 240.156593 219.554115 
L 241.375266 219.226088 
L 241.781491 218.734047 
L 242.187715 217.852475 
L 243.812613 213.280597 
L 244.218837 212.973071 
L 244.625061 213.526617 
L 245.031286 215.412773 
L 245.43751 218.631539 
L 245.843735 223.018902 
L 246.249959 223.551946 
L 247.468632 221.071241 
L 248.281081 220.087159 
L 249.09353 219.554115 
L 250.312203 219.226088 
L 250.718428 218.734047 
L 251.124652 217.852475 
L 252.74955 213.280597 
L 253.155774 212.973071 
L 253.561998 213.526617 
L 253.968223 215.412773 
L 254.374447 218.631539 
L 254.780672 223.018902 
L 255.186896 223.551946 
L 256.405569 221.071241 
L 257.218018 220.087159 
L 258.030467 219.554115 
L 259.24914 219.226088 
L 259.655364 218.734047 
L 260.061589 217.852475 
L 261.686486 213.280597 
L 262.092711 212.973071 
L 262.498935 213.547119 
L 262.90516 215.412773 
L 263.311384 218.631539 
L 263.717609 223.018902 
L 264.123833 223.551946 
L 265.342506 221.071241 
L 266.154955 220.087159 
L 266.967404 219.554115 
L 268.186077 219.226088 
L 268.592301 218.734047 
L 268.998526 217.852475 
L 270.623423 213.280597 
L 271.029648 212.973071 
L 271.435872 213.547119 
L 271.842097 215.412773 
L 272.248321 218.631539 
L 272.654545 223.018902 
L 273.06077 223.551946 
L 274.279443 221.071241 
L 275.091892 220.087159 
L 275.904341 219.554115 
L 277.123014 219.226088 
L 277.529238 218.734047 
L 277.935463 217.852475 
L 279.56036 213.280597 
L 279.966585 212.973071 
L 280.372809 213.547119 
L 280.779034 215.412773 
L 281.185258 218.631539 
L 281.591482 223.018902 
L 281.997707 223.551946 
L 283.21638 221.071241 
L 284.028829 220.087159 
L 284.841278 219.554115 
L 286.059951 219.226088 
L 286.466175 218.734047 
L 286.8724 217.852475 
L 288.497297 213.280597 
L 288.903522 212.973071 
L 289.309746 213.547119 
L 289.715971 215.412773 
L 290.122195 218.631539 
L 290.528419 223.018902 
L 290.934644 223.551946 
L 292.153317 221.071241 
L 292.965766 220.087159 
L 293.778215 219.554115 
L 294.996888 219.226088 
L 295.403112 218.734047 
L 295.809337 217.852475 
L 297.434234 213.280597 
L 297.840459 212.973071 
L 298.246683 213.547119 
L 298.652907 215.412773 
L 299.059132 218.631539 
L 299.465356 223.018902 
L 299.871581 223.551946 
L 301.090254 221.071241 
L 301.902703 220.087159 
L 302.715152 219.554115 
L 303.933825 219.226088 
L 304.340049 218.734047 
L 304.746274 217.852475 
L 306.371171 213.280597 
L 306.777396 212.973071 
L 307.18362 213.547119 
L 307.589844 215.412773 
L 307.996069 218.631539 
L 308.402293 223.018902 
L 308.808518 223.551946 
L 310.027191 221.071241 
L 310.83964 220.087159 
L 311.652088 219.554115 
L 312.870762 219.226088 
L 313.276986 218.734047 
L 313.68321 217.852475 
L 315.308108 213.280597 
L 315.714333 212.973071 
L 316.120557 213.547119 
L 316.526781 215.412773 
L 316.933006 218.631539 
L 317.33923 223.018902 
L 317.745455 223.551946 
L 318.964128 221.071241 
L 319.776577 220.087159 
L 320.589025 219.554115 
L 321.807699 219.226088 
L 322.213923 218.734047 
L 322.620147 217.852475 
L 324.245045 213.280597 
L 324.651269 212.973071 
L 325.057494 213.547119 
L 325.463718 215.412773 
L 325.869943 218.631539 
L 326.276167 223.018902 
L 326.682391 223.551946 
L 327.901065 221.071241 
L 328.713514 220.087159 
L 329.525962 219.554115 
L 330.744636 219.226088 
L 331.15086 218.734047 
L 331.557084 217.852475 
L 333.181982 213.280597 
L 333.588206 212.973071 
L 333.994431 213.547119 
L 334.400655 215.412773 
L 334.80688 218.631539 
L 335.213104 223.018902 
L 335.619328 223.551946 
L 336.838002 221.071241 
L 337.65045 220.087159 
L 338.462899 219.554115 
L 339.681572 219.226088 
L 340.087797 218.734047 
L 340.494021 217.852475 
L 342.118919 213.280597 
L 342.525143 212.973071 
L 342.931368 213.547119 
L 343.337592 215.412773 
L 343.743817 218.631539 
L 344.150041 223.018902 
L 344.556265 223.551946 
L 345.774939 221.071241 
L 346.587387 220.087159 
L 347.399836 219.554115 
L 348.618509 219.226088 
L 349.024734 218.734047 
L 349.430958 217.852475 
L 351.055856 213.280597 
L 351.46208 212.973071 
L 351.868305 213.547119 
L 352.274529 215.412773 
L 352.680753 218.631539 
L 353.086978 223.018902 
L 353.493202 223.551946 
L 354.711876 221.071241 
L 355.524324 220.087159 
L 356.336773 219.554115 
L 357.555446 219.226088 
L 357.961671 218.734047 
L 358.367895 217.852475 
L 359.992793 213.280597 
L 360.399017 212.973071 
L 360.805242 213.547119 
L 361.211466 215.412773 
L 361.61769 218.631539 
L 362.023915 223.018902 
L 362.430139 223.551946 
L 363.648812 221.071241 
L 364.461261 220.087159 
L 365.27371 219.554115 
L 366.492383 219.226088 
L 366.898608 218.734047 
L 367.304832 217.852475 
L 368.92973 213.280597 
L 369.335954 212.973071 
L 369.742179 213.547119 
L 370.148403 215.412773 
L 370.554627 218.631539 
L 370.960852 223.018902 
L 371.367076 223.551946 
L 372.585749 221.071241 
L 373.398198 220.087159 
L 374.210647 219.554115 
L 375.42932 219.226088 
L 375.835545 218.734047 
L 376.241769 217.852475 
L 377.866667 213.280597 
L 378.272891 212.973071 
L 378.679115 213.547119 
L 379.08534 215.412773 
L 379.491564 218.631539 
L 379.897789 223.018902 
L 380.304013 223.551946 
L 381.522686 221.071241 
L 382.335135 220.087159 
L 383.147584 219.554115 
L 384.366257 219.226088 
L 384.772482 218.734047 
L 385.178706 217.852475 
L 386.803604 213.280597 
L 387.209828 212.973071 
L 387.616052 213.547119 
L 388.022277 215.412773 
L 388.428501 218.631539 
L 388.834726 223.018902 
L 389.24095 223.551946 
L 390.459623 221.071241 
L 391.272072 220.087159 
L 392.084521 219.554115 
L 393.303194 219.226088 
L 393.709419 218.734047 
L 394.115643 217.852475 
L 395.740541 213.280597 
L 396.146765 212.973071 
L 396.552989 213.547119 
L 396.959214 215.412773 
L 397.365438 218.631539 
L 397.771663 223.018902 
L 398.177887 223.551946 
L 399.39656 221.071241 
L 400.209009 220.087159 
L 401.021458 219.554115 
L 402.240131 219.226088 
L 402.646355 218.734047 
L 403.05258 217.852475 
L 404.677477 213.280597 
L 405.083702 212.973071 
L 405.489926 213.547119 
L 405.896151 215.412773 
L 406.302375 218.631539 
L 406.7086 223.018902 
L 407.114824 223.551946 
L 408.333497 221.071241 
L 409.145946 220.087159 
L 409.958395 219.554115 
L 411.177068 219.226088 
L 411.583292 218.734047 
L 411.989517 217.852475 
L 413.614414 213.280597 
L 414.020639 212.973071 
L 414.426863 213.547119 
L 414.833088 215.412773 
L 415.239312 218.631539 
L 415.645536 223.018902 
L 416.051761 223.551946 
L 417.270434 221.071241 
L 418.082883 220.087159 
L 418.895332 219.554115 
L 420.114005 219.226088 
L 420.520229 218.734047 
L 420.926454 217.852475 
L 422.551351 213.280597 
L 422.957576 212.973071 
L 423.3638 213.547119 
L 423.770025 215.412773 
L 424.176249 218.631539 
L 424.582473 223.018902 
L 424.988698 223.551946 
L 426.207371 221.071241 
L 427.01982 220.087159 
L 427.832269 219.554115 
L 429.050942 219.226088 
L 429.457166 218.734047 
L 429.863391 217.852475 
L 431.488288 213.280597 
L 431.894513 212.973071 
L 432.300737 213.547119 
L 432.706962 215.412773 
L 433.113186 218.631539 
L 433.51941 223.018902 
L 433.925635 223.551946 
L 435.144308 221.071241 
L 435.956757 220.087159 
L 436.769206 219.554115 
L 437.987879 219.226088 
L 438.394103 218.734047 
L 438.800328 217.852475 
L 440.425225 213.280597 
L 440.83145 212.973071 
L 441.237674 213.547119 
L 441.643898 215.412773 
L 442.050123 218.631539 
L 442.456347 223.018902 
L 442.862572 223.551946 
L 444.081245 221.071241 
L 444.893694 220.087159 
L 445.706143 219.554115 
L 446.924816 219.226088 
L 447.33104 218.734047 
L 447.737265 217.852475 
L 449.362162 213.280597 
L 449.768387 212.973071 
L 450.174611 213.547119 
L 450.580835 215.412773 
L 450.98706 218.631539 
L 451.393284 223.018902 
L 451.799509 223.551946 
L 453.018182 221.071241 
L 453.830631 220.087159 
L 454.643079 219.554115 
L 455.861753 219.226088 
L 456.267977 218.734047 
L 456.674201 217.852475 
L 458.299099 213.280597 
L 458.705324 212.973071 
L 459.111548 213.547119 
L 459.517772 215.412773 
L 459.923997 218.631539 
L 460.330221 223.018902 
L 460.736446 223.551946 
L 461.955119 221.071241 
L 462.767568 220.087159 
L 463.580016 219.554115 
L 464.79869 219.226088 
L 465.204914 218.734047 
L 465.611138 217.852475 
L 467.236036 213.280597 
L 467.64226 212.973071 
L 468.048485 213.547119 
L 468.454709 215.412773 
L 468.860934 218.631539 
L 469.267158 223.018902 
L 469.673382 223.551946 
L 470.892056 221.071241 
L 471.704505 220.087159 
L 472.516953 219.554115 
L 473.735627 219.226088 
L 474.141851 218.734047 
L 474.548075 217.852475 
L 476.172973 213.280597 
L 476.579197 212.973071 
L 476.985422 213.547119 
L 477.391646 215.412773 
L 477.797871 218.631539 
L 478.204095 223.018902 
L 478.610319 223.551946 
L 479.828993 221.071241 
L 480.641441 220.087159 
L 481.45389 219.554115 
L 482.672563 219.226088 
L 483.078788 218.734047 
L 483.485012 217.852475 
L 485.10991 213.280597 
L 485.516134 212.973071 
L 485.922359 213.547119 
L 486.328583 215.412773 
L 486.734808 218.631539 
L 487.141032 223.018902 
L 487.547256 223.551946 
L 488.76593 221.071241 
L 489.578378 220.087159 
L 490.390827 219.554115 
L 491.6095 219.226088 
L 492.015725 218.734047 
L 492.421949 217.852475 
L 494.046847 213.280597 
L 494.453071 212.973071 
L 494.859296 213.547119 
L 495.26552 215.412773 
L 495.671744 218.631539 
L 496.077969 223.018902 
L 496.484193 223.551946 
L 497.702867 221.071241 
L 498.109091 220.517695 
L 498.109091 220.517695 
" style="fill:none;stroke:#008000;stroke-linecap:square;stroke-width:1.5;"/>
   </g>
   <g id="patch_3">
    <path d="M 72 384.48 
L 72 51.84 
" style="fill:none;stroke:#000000;stroke-linecap:square;stroke-linejoin:miter;stroke-width:0.8;"/>
   </g>
   <g id="patch_4">
    <path d="M 518.4 384.48 
L 518.4 51.84 
" style="fill:none;stroke:#000000;stroke-linecap:square;stroke-linejoin:miter;stroke-width:0.8;"/>
   </g>
   <g id="patch_5">
    <path d="M 72 384.48 
L 518.4 384.48 
" style="fill:none;stroke:#000000;stroke-linecap:square;stroke-linejoin:miter;stroke-width:0.8;"/>
   </g>
   <g id="patch_6">
    <path d="M 72 51.84 
L 518.4 51.84 
" style="fill:none;stroke:#000000;stroke-linecap:square;stroke-linejoin:miter;stroke-width:0.8;"/>
   </g>
   <g id="text_18">
    <!-- $\Delta \lambda_{m}$ -->
    <g transform="translate(281.27 45.84)scale(0.14 -0.14)">
     <use transform="translate(0 0.015625)" xlink:href="#DejaVuSans-394"/>
     <use transform="translate(68.408203 0.015625)" xlink:href="#DejaVuSans-Oblique-3bb"/>
     <use transform="translate(127.587891 -16.390625)scale(0.7)" xlink:href="#DejaVuSans-Oblique-6d"/>
    </g>
   </g>
   <g id="legend_1">
    <g id="patch_7">
     <path d="M 461.9 118.5525 
L 511.4 118.5525 
Q 513.4 118.5525 513.4 116.5525 
L 513.4 58.84 
Q 513.4 56.84 511.4 56.84 
L 461.9 56.84 
Q 459.9 56.84 459.9 58.84 
L 459.9 116.5525 
Q 459.9 118.5525 461.9 118.5525 
z
" style="fill:#ffffff;opacity:0.8;stroke:#cccccc;stroke-linejoin:miter;"/>
    </g>
    <g id="line2d_35">
     <path d="M 463.9 64.938438 
L 483.9 64.938438 
" style="fill:none;stroke:#bf00bf;stroke-linecap:square;stroke-width:1.5;"/>
    </g>
    <g id="line2d_36"/>
    <g id="text_19">
     <!-- $\Delta \lambda_{1}$ -->
     <g transform="translate(491.9 68.438438)scale(0.1 -0.1)">
      <use transform="translate(0 0.015625)" xlink:href="#DejaVuSans-394"/>
      <use transform="translate(68.408203 0.015625)" xlink:href="#DejaVuSans-Oblique-3bb"/>
      <use transform="translate(127.587891 -16.390625)scale(0.7)" xlink:href="#DejaVuSans-31"/>
     </g>
    </g>
    <g id="line2d_37">
     <path d="M 463.9 79.616563 
L 483.9 79.616563 
" style="fill:none;stroke:#00bfbf;stroke-linecap:square;stroke-width:1.5;"/>
    </g>
    <g id="line2d_38"/>
    <g id="text_20">
     <!-- $\Delta \lambda_{2}$ -->
     <g transform="translate(491.9 83.116563)scale(0.1 -0.1)">
      <use transform="translate(0 0.015625)" xlink:href="#DejaVuSans-394"/>
      <use transform="translate(68.408203 0.015625)" xlink:href="#DejaVuSans-Oblique-3bb"/>
      <use transform="translate(127.587891 -16.390625)scale(0.7)" xlink:href="#DejaVuSans-32"/>
     </g>
    </g>
    <g id="line2d_39">
     <path d="M 463.9 94.294688 
L 483.9 94.294688 
" style="fill:none;stroke:#ff0000;stroke-linecap:square;stroke-width:1.5;"/>
    </g>
    <g id="line2d_40"/>
    <g id="text_21">
     <!-- $\Delta \lambda_{3}$ -->
     <defs>
      <path d="M 40.578125 39.3125 
Q 47.65625 37.796875 51.625 33 
Q 55.609375 28.21875 55.609375 21.1875 
Q 55.609375 10.40625 48.1875 4.484375 
Q 40.765625 -1.421875 27.09375 -1.421875 
Q 22.515625 -1.421875 17.65625 -0.515625 
Q 12.796875 0.390625 7.625 2.203125 
L 7.625 11.71875 
Q 11.71875 9.328125 16.59375 8.109375 
Q 21.484375 6.890625 26.8125 6.890625 
Q 36.078125 6.890625 40.9375 10.546875 
Q 45.796875 14.203125 45.796875 21.1875 
Q 45.796875 27.640625 41.28125 31.265625 
Q 36.765625 34.90625 28.71875 34.90625 
L 20.21875 34.90625 
L 20.21875 43.015625 
L 29.109375 43.015625 
Q 36.375 43.015625 40.234375 45.921875 
Q 44.09375 48.828125 44.09375 54.296875 
Q 44.09375 59.90625 40.109375 62.90625 
Q 36.140625 65.921875 28.71875 65.921875 
Q 24.65625 65.921875 20.015625 65.03125 
Q 15.375 64.15625 9.8125 62.3125 
L 9.8125 71.09375 
Q 15.4375 72.65625 20.34375 73.4375 
Q 25.25 74.21875 29.59375 74.21875 
Q 40.828125 74.21875 47.359375 69.109375 
Q 53.90625 64.015625 53.90625 55.328125 
Q 53.90625 49.265625 50.4375 45.09375 
Q 46.96875 40.921875 40.578125 39.3125 
z
" id="DejaVuSans-33"/>
     </defs>
     <g transform="translate(491.9 97.794688)scale(0.1 -0.1)">
      <use transform="translate(0 0.015625)" xlink:href="#DejaVuSans-394"/>
      <use transform="translate(68.408203 0.015625)" xlink:href="#DejaVuSans-Oblique-3bb"/>
      <use transform="translate(127.587891 -16.390625)scale(0.7)" xlink:href="#DejaVuSans-33"/>
     </g>
    </g>
    <g id="line2d_41">
     <path d="M 463.9 108.972813 
L 483.9 108.972813 
" style="fill:none;stroke:#008000;stroke-linecap:square;stroke-width:1.5;"/>
    </g>
    <g id="line2d_42"/>
    <g id="text_22">
     <!-- $\Delta \lambda_{4}$ -->
     <g transform="translate(491.9 112.472813)scale(0.1 -0.1)">
      <use transform="translate(0 0.015625)" xlink:href="#DejaVuSans-394"/>
      <use transform="translate(68.408203 0.015625)" xlink:href="#DejaVuSans-Oblique-3bb"/>
      <use transform="translate(127.587891 -16.390625)scale(0.7)" xlink:href="#DejaVuSans-34"/>
     </g>
    </g>
   </g>
  </g>
 </g>
 <defs>
  <clipPath id="pa94e479fa9">
   <rect height="332.64" width="446.4" x="72" y="51.84"/>
  </clipPath>
 </defs>
</svg>
