<?xml version="1.0" encoding="utf-8" standalone="no"?>
<!DOCTYPE svg PUBLIC "-//W3C//DTD SVG 1.1//EN"
  "http://www.w3.org/Graphics/SVG/1.1/DTD/svg11.dtd">
<!-- Created with matplotlib (http://matplotlib.org/) -->
<svg height="432pt" version="1.1" viewBox="0 0 576 432" width="576pt" xmlns="http://www.w3.org/2000/svg" xmlns:xlink="http://www.w3.org/1999/xlink">
 <defs>
  <style type="text/css">
*{stroke-linecap:butt;stroke-linejoin:round;}
  </style>
 </defs>
 <g id="figure_1">
  <g id="patch_1">
   <path d="M 0 432 
L 576 432 
L 576 0 
L 0 0 
z
" style="fill:#ffffff;"/>
  </g>
  <g id="axes_1">
   <g id="patch_2">
    <path d="M 72 384.48 
L 518.4 384.48 
L 518.4 51.84 
L 72 51.84 
z
" style="fill:#ffffff;"/>
   </g>
   <g id="matplotlib.axis_1">
    <g id="xtick_1">
     <g id="line2d_1">
      <path clip-path="url(#p1759ece98a)" d="M 92.290909 384.48 
L 92.290909 51.84 
" style="fill:none;stroke:#b0b0b0;stroke-dasharray:5.12,1.28,0.8,1.28;stroke-dashoffset:0;stroke-width:0.8;"/>
     </g>
     <g id="line2d_2">
      <defs>
       <path d="M 0 0 
L 0 3.5 
" id="mfa68d66e7f" style="stroke:#000000;stroke-width:0.8;"/>
      </defs>
      <g>
       <use style="stroke:#000000;stroke-width:0.8;" x="92.290909" xlink:href="#mfa68d66e7f" y="384.48"/>
      </g>
     </g>
     <g id="text_1">
      <!-- 0 -->
      <defs>
       <path d="M 31.78125 66.40625 
Q 24.171875 66.40625 20.328125 58.90625 
Q 16.5 51.421875 16.5 36.375 
Q 16.5 21.390625 20.328125 13.890625 
Q 24.171875 6.390625 31.78125 6.390625 
Q 39.453125 6.390625 43.28125 13.890625 
Q 47.125 21.390625 47.125 36.375 
Q 47.125 51.421875 43.28125 58.90625 
Q 39.453125 66.40625 31.78125 66.40625 
z
M 31.78125 74.21875 
Q 44.046875 74.21875 50.515625 64.515625 
Q 56.984375 54.828125 56.984375 36.375 
Q 56.984375 17.96875 50.515625 8.265625 
Q 44.046875 -1.421875 31.78125 -1.421875 
Q 19.53125 -1.421875 13.0625 8.265625 
Q 6.59375 17.96875 6.59375 36.375 
Q 6.59375 54.828125 13.0625 64.515625 
Q 19.53125 74.21875 31.78125 74.21875 
z
" id="DejaVuSans-30"/>
      </defs>
      <g transform="translate(89.109659 399.078438)scale(0.1 -0.1)">
       <use xlink:href="#DejaVuSans-30"/>
      </g>
     </g>
    </g>
    <g id="xtick_2">
     <g id="line2d_3">
      <path clip-path="url(#p1759ece98a)" d="M 143.018182 384.48 
L 143.018182 51.84 
" style="fill:none;stroke:#b0b0b0;stroke-dasharray:5.12,1.28,0.8,1.28;stroke-dashoffset:0;stroke-width:0.8;"/>
     </g>
     <g id="line2d_4">
      <g>
       <use style="stroke:#000000;stroke-width:0.8;" x="143.018182" xlink:href="#mfa68d66e7f" y="384.48"/>
      </g>
     </g>
     <g id="text_2">
      <!-- 2500 -->
      <defs>
       <path d="M 19.1875 8.296875 
L 53.609375 8.296875 
L 53.609375 0 
L 7.328125 0 
L 7.328125 8.296875 
Q 12.9375 14.109375 22.625 23.890625 
Q 32.328125 33.6875 34.8125 36.53125 
Q 39.546875 41.84375 41.421875 45.53125 
Q 43.3125 49.21875 43.3125 52.78125 
Q 43.3125 58.59375 39.234375 62.25 
Q 35.15625 65.921875 28.609375 65.921875 
Q 23.96875 65.921875 18.8125 64.3125 
Q 13.671875 62.703125 7.8125 59.421875 
L 7.8125 69.390625 
Q 13.765625 71.78125 18.9375 73 
Q 24.125 74.21875 28.421875 74.21875 
Q 39.75 74.21875 46.484375 68.546875 
Q 53.21875 62.890625 53.21875 53.421875 
Q 53.21875 48.921875 51.53125 44.890625 
Q 49.859375 40.875 45.40625 35.40625 
Q 44.1875 33.984375 37.640625 27.21875 
Q 31.109375 20.453125 19.1875 8.296875 
z
" id="DejaVuSans-32"/>
       <path d="M 10.796875 72.90625 
L 49.515625 72.90625 
L 49.515625 64.59375 
L 19.828125 64.59375 
L 19.828125 46.734375 
Q 21.96875 47.46875 24.109375 47.828125 
Q 26.265625 48.1875 28.421875 48.1875 
Q 40.625 48.1875 47.75 41.5 
Q 54.890625 34.8125 54.890625 23.390625 
Q 54.890625 11.625 47.5625 5.09375 
Q 40.234375 -1.421875 26.90625 -1.421875 
Q 22.3125 -1.421875 17.546875 -0.640625 
Q 12.796875 0.140625 7.71875 1.703125 
L 7.71875 11.625 
Q 12.109375 9.234375 16.796875 8.0625 
Q 21.484375 6.890625 26.703125 6.890625 
Q 35.15625 6.890625 40.078125 11.328125 
Q 45.015625 15.765625 45.015625 23.390625 
Q 45.015625 31 40.078125 35.4375 
Q 35.15625 39.890625 26.703125 39.890625 
Q 22.75 39.890625 18.8125 39.015625 
Q 14.890625 38.140625 10.796875 36.28125 
z
" id="DejaVuSans-35"/>
      </defs>
      <g transform="translate(130.293182 399.078438)scale(0.1 -0.1)">
       <use xlink:href="#DejaVuSans-32"/>
       <use x="63.623047" xlink:href="#DejaVuSans-35"/>
       <use x="127.246094" xlink:href="#DejaVuSans-30"/>
       <use x="190.869141" xlink:href="#DejaVuSans-30"/>
      </g>
     </g>
    </g>
    <g id="xtick_3">
     <g id="line2d_5">
      <path clip-path="url(#p1759ece98a)" d="M 193.745455 384.48 
L 193.745455 51.84 
" style="fill:none;stroke:#b0b0b0;stroke-dasharray:5.12,1.28,0.8,1.28;stroke-dashoffset:0;stroke-width:0.8;"/>
     </g>
     <g id="line2d_6">
      <g>
       <use style="stroke:#000000;stroke-width:0.8;" x="193.745455" xlink:href="#mfa68d66e7f" y="384.48"/>
      </g>
     </g>
     <g id="text_3">
      <!-- 5000 -->
      <g transform="translate(181.020455 399.078438)scale(0.1 -0.1)">
       <use xlink:href="#DejaVuSans-35"/>
       <use x="63.623047" xlink:href="#DejaVuSans-30"/>
       <use x="127.246094" xlink:href="#DejaVuSans-30"/>
       <use x="190.869141" xlink:href="#DejaVuSans-30"/>
      </g>
     </g>
    </g>
    <g id="xtick_4">
     <g id="line2d_7">
      <path clip-path="url(#p1759ece98a)" d="M 244.472727 384.48 
L 244.472727 51.84 
" style="fill:none;stroke:#b0b0b0;stroke-dasharray:5.12,1.28,0.8,1.28;stroke-dashoffset:0;stroke-width:0.8;"/>
     </g>
     <g id="line2d_8">
      <g>
       <use style="stroke:#000000;stroke-width:0.8;" x="244.472727" xlink:href="#mfa68d66e7f" y="384.48"/>
      </g>
     </g>
     <g id="text_4">
      <!-- 7500 -->
      <defs>
       <path d="M 8.203125 72.90625 
L 55.078125 72.90625 
L 55.078125 68.703125 
L 28.609375 0 
L 18.3125 0 
L 43.21875 64.59375 
L 8.203125 64.59375 
z
" id="DejaVuSans-37"/>
      </defs>
      <g transform="translate(231.747727 399.078438)scale(0.1 -0.1)">
       <use xlink:href="#DejaVuSans-37"/>
       <use x="63.623047" xlink:href="#DejaVuSans-35"/>
       <use x="127.246094" xlink:href="#DejaVuSans-30"/>
       <use x="190.869141" xlink:href="#DejaVuSans-30"/>
      </g>
     </g>
    </g>
    <g id="xtick_5">
     <g id="line2d_9">
      <path clip-path="url(#p1759ece98a)" d="M 295.2 384.48 
L 295.2 51.84 
" style="fill:none;stroke:#b0b0b0;stroke-dasharray:5.12,1.28,0.8,1.28;stroke-dashoffset:0;stroke-width:0.8;"/>
     </g>
     <g id="line2d_10">
      <g>
       <use style="stroke:#000000;stroke-width:0.8;" x="295.2" xlink:href="#mfa68d66e7f" y="384.48"/>
      </g>
     </g>
     <g id="text_5">
      <!-- 10000 -->
      <defs>
       <path d="M 12.40625 8.296875 
L 28.515625 8.296875 
L 28.515625 63.921875 
L 10.984375 60.40625 
L 10.984375 69.390625 
L 28.421875 72.90625 
L 38.28125 72.90625 
L 38.28125 8.296875 
L 54.390625 8.296875 
L 54.390625 0 
L 12.40625 0 
z
" id="DejaVuSans-31"/>
      </defs>
      <g transform="translate(279.29375 399.078438)scale(0.1 -0.1)">
       <use xlink:href="#DejaVuSans-31"/>
       <use x="63.623047" xlink:href="#DejaVuSans-30"/>
       <use x="127.246094" xlink:href="#DejaVuSans-30"/>
       <use x="190.869141" xlink:href="#DejaVuSans-30"/>
       <use x="254.492188" xlink:href="#DejaVuSans-30"/>
      </g>
     </g>
    </g>
    <g id="xtick_6">
     <g id="line2d_11">
      <path clip-path="url(#p1759ece98a)" d="M 345.927273 384.48 
L 345.927273 51.84 
" style="fill:none;stroke:#b0b0b0;stroke-dasharray:5.12,1.28,0.8,1.28;stroke-dashoffset:0;stroke-width:0.8;"/>
     </g>
     <g id="line2d_12">
      <g>
       <use style="stroke:#000000;stroke-width:0.8;" x="345.927273" xlink:href="#mfa68d66e7f" y="384.48"/>
      </g>
     </g>
     <g id="text_6">
      <!-- 12500 -->
      <g transform="translate(330.021023 399.078438)scale(0.1 -0.1)">
       <use xlink:href="#DejaVuSans-31"/>
       <use x="63.623047" xlink:href="#DejaVuSans-32"/>
       <use x="127.246094" xlink:href="#DejaVuSans-35"/>
       <use x="190.869141" xlink:href="#DejaVuSans-30"/>
       <use x="254.492188" xlink:href="#DejaVuSans-30"/>
      </g>
     </g>
    </g>
    <g id="xtick_7">
     <g id="line2d_13">
      <path clip-path="url(#p1759ece98a)" d="M 396.654545 384.48 
L 396.654545 51.84 
" style="fill:none;stroke:#b0b0b0;stroke-dasharray:5.12,1.28,0.8,1.28;stroke-dashoffset:0;stroke-width:0.8;"/>
     </g>
     <g id="line2d_14">
      <g>
       <use style="stroke:#000000;stroke-width:0.8;" x="396.654545" xlink:href="#mfa68d66e7f" y="384.48"/>
      </g>
     </g>
     <g id="text_7">
      <!-- 15000 -->
      <g transform="translate(380.748295 399.078438)scale(0.1 -0.1)">
       <use xlink:href="#DejaVuSans-31"/>
       <use x="63.623047" xlink:href="#DejaVuSans-35"/>
       <use x="127.246094" xlink:href="#DejaVuSans-30"/>
       <use x="190.869141" xlink:href="#DejaVuSans-30"/>
       <use x="254.492188" xlink:href="#DejaVuSans-30"/>
      </g>
     </g>
    </g>
    <g id="xtick_8">
     <g id="line2d_15">
      <path clip-path="url(#p1759ece98a)" d="M 447.381818 384.48 
L 447.381818 51.84 
" style="fill:none;stroke:#b0b0b0;stroke-dasharray:5.12,1.28,0.8,1.28;stroke-dashoffset:0;stroke-width:0.8;"/>
     </g>
     <g id="line2d_16">
      <g>
       <use style="stroke:#000000;stroke-width:0.8;" x="447.381818" xlink:href="#mfa68d66e7f" y="384.48"/>
      </g>
     </g>
     <g id="text_8">
      <!-- 17500 -->
      <g transform="translate(431.475568 399.078438)scale(0.1 -0.1)">
       <use xlink:href="#DejaVuSans-31"/>
       <use x="63.623047" xlink:href="#DejaVuSans-37"/>
       <use x="127.246094" xlink:href="#DejaVuSans-35"/>
       <use x="190.869141" xlink:href="#DejaVuSans-30"/>
       <use x="254.492188" xlink:href="#DejaVuSans-30"/>
      </g>
     </g>
    </g>
    <g id="xtick_9">
     <g id="line2d_17">
      <path clip-path="url(#p1759ece98a)" d="M 498.109091 384.48 
L 498.109091 51.84 
" style="fill:none;stroke:#b0b0b0;stroke-dasharray:5.12,1.28,0.8,1.28;stroke-dashoffset:0;stroke-width:0.8;"/>
     </g>
     <g id="line2d_18">
      <g>
       <use style="stroke:#000000;stroke-width:0.8;" x="498.109091" xlink:href="#mfa68d66e7f" y="384.48"/>
      </g>
     </g>
     <g id="text_9">
      <!-- 20000 -->
      <g transform="translate(482.202841 399.078438)scale(0.1 -0.1)">
       <use xlink:href="#DejaVuSans-32"/>
       <use x="63.623047" xlink:href="#DejaVuSans-30"/>
       <use x="127.246094" xlink:href="#DejaVuSans-30"/>
       <use x="190.869141" xlink:href="#DejaVuSans-30"/>
       <use x="254.492188" xlink:href="#DejaVuSans-30"/>
      </g>
     </g>
    </g>
    <g id="text_10">
     <!-- Iteration -->
     <defs>
      <path d="M 9.8125 72.90625 
L 19.671875 72.90625 
L 19.671875 0 
L 9.8125 0 
z
" id="DejaVuSans-49"/>
      <path d="M 18.3125 70.21875 
L 18.3125 54.6875 
L 36.8125 54.6875 
L 36.8125 47.703125 
L 18.3125 47.703125 
L 18.3125 18.015625 
Q 18.3125 11.328125 20.140625 9.421875 
Q 21.96875 7.515625 27.59375 7.515625 
L 36.8125 7.515625 
L 36.8125 0 
L 27.59375 0 
Q 17.1875 0 13.234375 3.875 
Q 9.28125 7.765625 9.28125 18.015625 
L 9.28125 47.703125 
L 2.6875 47.703125 
L 2.6875 54.6875 
L 9.28125 54.6875 
L 9.28125 70.21875 
z
" id="DejaVuSans-74"/>
      <path d="M 56.203125 29.59375 
L 56.203125 25.203125 
L 14.890625 25.203125 
Q 15.484375 15.921875 20.484375 11.0625 
Q 25.484375 6.203125 34.421875 6.203125 
Q 39.59375 6.203125 44.453125 7.46875 
Q 49.3125 8.734375 54.109375 11.28125 
L 54.109375 2.78125 
Q 49.265625 0.734375 44.1875 -0.34375 
Q 39.109375 -1.421875 33.890625 -1.421875 
Q 20.796875 -1.421875 13.15625 6.1875 
Q 5.515625 13.8125 5.515625 26.8125 
Q 5.515625 40.234375 12.765625 48.109375 
Q 20.015625 56 32.328125 56 
Q 43.359375 56 49.78125 48.890625 
Q 56.203125 41.796875 56.203125 29.59375 
z
M 47.21875 32.234375 
Q 47.125 39.59375 43.09375 43.984375 
Q 39.0625 48.390625 32.421875 48.390625 
Q 24.90625 48.390625 20.390625 44.140625 
Q 15.875 39.890625 15.1875 32.171875 
z
" id="DejaVuSans-65"/>
      <path d="M 41.109375 46.296875 
Q 39.59375 47.171875 37.8125 47.578125 
Q 36.03125 48 33.890625 48 
Q 26.265625 48 22.1875 43.046875 
Q 18.109375 38.09375 18.109375 28.8125 
L 18.109375 0 
L 9.078125 0 
L 9.078125 54.6875 
L 18.109375 54.6875 
L 18.109375 46.1875 
Q 20.953125 51.171875 25.484375 53.578125 
Q 30.03125 56 36.53125 56 
Q 37.453125 56 38.578125 55.875 
Q 39.703125 55.765625 41.0625 55.515625 
z
" id="DejaVuSans-72"/>
      <path d="M 34.28125 27.484375 
Q 23.390625 27.484375 19.1875 25 
Q 14.984375 22.515625 14.984375 16.5 
Q 14.984375 11.71875 18.140625 8.90625 
Q 21.296875 6.109375 26.703125 6.109375 
Q 34.1875 6.109375 38.703125 11.40625 
Q 43.21875 16.703125 43.21875 25.484375 
L 43.21875 27.484375 
z
M 52.203125 31.203125 
L 52.203125 0 
L 43.21875 0 
L 43.21875 8.296875 
Q 40.140625 3.328125 35.546875 0.953125 
Q 30.953125 -1.421875 24.3125 -1.421875 
Q 15.921875 -1.421875 10.953125 3.296875 
Q 6 8.015625 6 15.921875 
Q 6 25.140625 12.171875 29.828125 
Q 18.359375 34.515625 30.609375 34.515625 
L 43.21875 34.515625 
L 43.21875 35.40625 
Q 43.21875 41.609375 39.140625 45 
Q 35.0625 48.390625 27.6875 48.390625 
Q 23 48.390625 18.546875 47.265625 
Q 14.109375 46.140625 10.015625 43.890625 
L 10.015625 52.203125 
Q 14.9375 54.109375 19.578125 55.046875 
Q 24.21875 56 28.609375 56 
Q 40.484375 56 46.34375 49.84375 
Q 52.203125 43.703125 52.203125 31.203125 
z
" id="DejaVuSans-61"/>
      <path d="M 9.421875 54.6875 
L 18.40625 54.6875 
L 18.40625 0 
L 9.421875 0 
z
M 9.421875 75.984375 
L 18.40625 75.984375 
L 18.40625 64.59375 
L 9.421875 64.59375 
z
" id="DejaVuSans-69"/>
      <path d="M 30.609375 48.390625 
Q 23.390625 48.390625 19.1875 42.75 
Q 14.984375 37.109375 14.984375 27.296875 
Q 14.984375 17.484375 19.15625 11.84375 
Q 23.34375 6.203125 30.609375 6.203125 
Q 37.796875 6.203125 41.984375 11.859375 
Q 46.1875 17.53125 46.1875 27.296875 
Q 46.1875 37.015625 41.984375 42.703125 
Q 37.796875 48.390625 30.609375 48.390625 
z
M 30.609375 56 
Q 42.328125 56 49.015625 48.375 
Q 55.71875 40.765625 55.71875 27.296875 
Q 55.71875 13.875 49.015625 6.21875 
Q 42.328125 -1.421875 30.609375 -1.421875 
Q 18.84375 -1.421875 12.171875 6.21875 
Q 5.515625 13.875 5.515625 27.296875 
Q 5.515625 40.765625 12.171875 48.375 
Q 18.84375 56 30.609375 56 
z
" id="DejaVuSans-6f"/>
      <path d="M 54.890625 33.015625 
L 54.890625 0 
L 45.90625 0 
L 45.90625 32.71875 
Q 45.90625 40.484375 42.875 44.328125 
Q 39.84375 48.1875 33.796875 48.1875 
Q 26.515625 48.1875 22.3125 43.546875 
Q 18.109375 38.921875 18.109375 30.90625 
L 18.109375 0 
L 9.078125 0 
L 9.078125 54.6875 
L 18.109375 54.6875 
L 18.109375 46.1875 
Q 21.34375 51.125 25.703125 53.5625 
Q 30.078125 56 35.796875 56 
Q 45.21875 56 50.046875 50.171875 
Q 54.890625 44.34375 54.890625 33.015625 
z
" id="DejaVuSans-6e"/>
     </defs>
     <g transform="translate(265.507969 415.795938)scale(0.14 -0.14)">
      <use xlink:href="#DejaVuSans-49"/>
      <use x="29.492188" xlink:href="#DejaVuSans-74"/>
      <use x="68.701172" xlink:href="#DejaVuSans-65"/>
      <use x="130.224609" xlink:href="#DejaVuSans-72"/>
      <use x="171.337891" xlink:href="#DejaVuSans-61"/>
      <use x="232.617188" xlink:href="#DejaVuSans-74"/>
      <use x="271.826172" xlink:href="#DejaVuSans-69"/>
      <use x="299.609375" xlink:href="#DejaVuSans-6f"/>
      <use x="360.791016" xlink:href="#DejaVuSans-6e"/>
     </g>
    </g>
   </g>
   <g id="matplotlib.axis_2">
    <g id="ytick_1">
     <g id="line2d_19">
      <path clip-path="url(#p1759ece98a)" d="M 72 363.873167 
L 518.4 363.873167 
" style="fill:none;stroke:#b0b0b0;stroke-dasharray:5.12,1.28,0.8,1.28;stroke-dashoffset:0;stroke-width:0.8;"/>
     </g>
     <g id="line2d_20">
      <defs>
       <path d="M 0 0 
L -3.5 0 
" id="m5533b665d3" style="stroke:#000000;stroke-width:0.8;"/>
      </defs>
      <g>
       <use style="stroke:#000000;stroke-width:0.8;" x="72" xlink:href="#m5533b665d3" y="363.873167"/>
      </g>
     </g>
     <g id="text_11">
      <!-- 0 -->
      <g transform="translate(58.6375 367.672386)scale(0.1 -0.1)">
       <use xlink:href="#DejaVuSans-30"/>
      </g>
     </g>
    </g>
    <g id="ytick_2">
     <g id="line2d_21">
      <path clip-path="url(#p1759ece98a)" d="M 72 294.207947 
L 518.4 294.207947 
" style="fill:none;stroke:#b0b0b0;stroke-dasharray:5.12,1.28,0.8,1.28;stroke-dashoffset:0;stroke-width:0.8;"/>
     </g>
     <g id="line2d_22">
      <g>
       <use style="stroke:#000000;stroke-width:0.8;" x="72" xlink:href="#m5533b665d3" y="294.207947"/>
      </g>
     </g>
     <g id="text_12">
      <!-- 5 -->
      <g transform="translate(58.6375 298.007166)scale(0.1 -0.1)">
       <use xlink:href="#DejaVuSans-35"/>
      </g>
     </g>
    </g>
    <g id="ytick_3">
     <g id="line2d_23">
      <path clip-path="url(#p1759ece98a)" d="M 72 224.542727 
L 518.4 224.542727 
" style="fill:none;stroke:#b0b0b0;stroke-dasharray:5.12,1.28,0.8,1.28;stroke-dashoffset:0;stroke-width:0.8;"/>
     </g>
     <g id="line2d_24">
      <g>
       <use style="stroke:#000000;stroke-width:0.8;" x="72" xlink:href="#m5533b665d3" y="224.542727"/>
      </g>
     </g>
     <g id="text_13">
      <!-- 10 -->
      <g transform="translate(52.275 228.341946)scale(0.1 -0.1)">
       <use xlink:href="#DejaVuSans-31"/>
       <use x="63.623047" xlink:href="#DejaVuSans-30"/>
      </g>
     </g>
    </g>
    <g id="ytick_4">
     <g id="line2d_25">
      <path clip-path="url(#p1759ece98a)" d="M 72 154.877508 
L 518.4 154.877508 
" style="fill:none;stroke:#b0b0b0;stroke-dasharray:5.12,1.28,0.8,1.28;stroke-dashoffset:0;stroke-width:0.8;"/>
     </g>
     <g id="line2d_26">
      <g>
       <use style="stroke:#000000;stroke-width:0.8;" x="72" xlink:href="#m5533b665d3" y="154.877508"/>
      </g>
     </g>
     <g id="text_14">
      <!-- 15 -->
      <g transform="translate(52.275 158.676726)scale(0.1 -0.1)">
       <use xlink:href="#DejaVuSans-31"/>
       <use x="63.623047" xlink:href="#DejaVuSans-35"/>
      </g>
     </g>
    </g>
    <g id="ytick_5">
     <g id="line2d_27">
      <path clip-path="url(#p1759ece98a)" d="M 72 85.212288 
L 518.4 85.212288 
" style="fill:none;stroke:#b0b0b0;stroke-dasharray:5.12,1.28,0.8,1.28;stroke-dashoffset:0;stroke-width:0.8;"/>
     </g>
     <g id="line2d_28">
      <g>
       <use style="stroke:#000000;stroke-width:0.8;" x="72" xlink:href="#m5533b665d3" y="85.212288"/>
      </g>
     </g>
     <g id="text_15">
      <!-- 20 -->
      <g transform="translate(52.275 89.011506)scale(0.1 -0.1)">
       <use xlink:href="#DejaVuSans-32"/>
       <use x="63.623047" xlink:href="#DejaVuSans-30"/>
      </g>
     </g>
    </g>
    <g id="text_16">
     <!-- $\partial \mathcal{L}/ \partial p^\mathrm{S}_{m}[m.u/W]$ -->
     <defs>
      <path d="M 21.34375 -1.421875 
Q 14.453125 -1.421875 9.96875 2.734375 
Q 4.640625 7.671875 4.640625 16.609375 
Q 4.640625 25.875 9.328125 33.109375 
Q 14.15625 40.53125 22.859375 40.53125 
Q 28.5625 40.53125 33.0625 36.96875 
Q 35.6875 34.859375 37.5 31.34375 
Q 38.140625 35.296875 38.140625 39.796875 
Q 38.140625 46.390625 36.578125 50.203125 
Q 33.109375 58.640625 23.921875 58.640625 
Q 20.453125 58.640625 15.09375 56.5 
L 15.09375 64.703125 
Q 20.75 66.21875 25.828125 66.21875 
Q 38.921875 66.21875 44.484375 54.203125 
Q 47.078125 48.53125 47.078125 40.09375 
Q 47.078125 34.578125 45.84375 28.171875 
Q 42.78125 12.15625 34.8125 4.546875 
Q 28.5625 -1.421875 21.34375 -1.421875 
z
M 12.984375 15.140625 
Q 12.984375 10.25 15.140625 7.625 
Q 17.4375 4.828125 20.953125 4.828125 
Q 24.078125 4.828125 26.5625 7.03125 
Q 30.078125 10.0625 32.671875 14.984375 
Q 34.8125 19.046875 35.890625 23.390625 
Q 31.546875 33.890625 24.03125 33.890625 
Q 17.578125 33.890625 14.75 25.390625 
Q 12.984375 20.125 12.984375 15.140625 
z
" id="DejaVuSans-2202"/>
      <path d="M 63.59375 14.296875 
L 65.296875 12.5 
Q 52.296875 -0.703125 37.703125 -0.703125 
Q 33.703125 -0.703125 28.90625 0.40625 
Q 21.796875 1.90625 17.90625 1.90625 
Q 15.703125 1.90625 10.5 0.953125 
Q 5.296875 0 3 0 
L 3.59375 2.40625 
Q 9.09375 2.40625 11.40625 11.703125 
L 18.40625 40.09375 
Q 20.09375 47 23.6875 52.390625 
Q 27.296875 57.796875 31.640625 60.84375 
Q 36 63.90625 40.390625 65.453125 
Q 44.796875 67 48.796875 67 
Q 53.796875 67 56.140625 63.796875 
Q 58.5 60.59375 58.5 56 
Q 58.5 52.296875 56.140625 50 
Q 53.796875 47.703125 50.40625 47.703125 
Q 48.203125 47.703125 46.796875 49.203125 
Q 45.40625 50.703125 45.40625 52.796875 
Q 45.40625 54.40625 46.203125 55.5 
Q 47 56.59375 47.890625 56.9375 
Q 48.796875 57.296875 49.59375 57.890625 
Q 50.40625 58.5 50.40625 59.203125 
Q 50.40625 63 44.59375 63 
Q 39.40625 63 36.09375 59.140625 
Q 32.796875 55.296875 31.09375 48.9375 
Q 29.40625 42.59375 28.046875 35.6875 
Q 26.703125 28.796875 24.203125 21.296875 
Q 21.703125 13.796875 18.09375 9.203125 
L 18.09375 8.796875 
Q 21.296875 11 29.5 11 
Q 34.796875 11 38.4375 8.5 
Q 42.09375 6 46.296875 6 
Q 54.796875 6 63.59375 14.296875 
z
" id="STIXNonUnicode-Italic-e238"/>
      <path d="M 25.390625 72.90625 
L 33.6875 72.90625 
L 8.296875 -9.28125 
L 0 -9.28125 
z
" id="DejaVuSans-2f"/>
      <path d="M 49.609375 33.6875 
Q 49.609375 40.875 46.484375 44.671875 
Q 43.359375 48.484375 37.5 48.484375 
Q 33.5 48.484375 29.859375 46.4375 
Q 26.21875 44.390625 23.390625 40.484375 
Q 20.609375 36.625 18.9375 31.15625 
Q 17.28125 25.6875 17.28125 20.3125 
Q 17.28125 13.484375 20.40625 9.796875 
Q 23.53125 6.109375 29.296875 6.109375 
Q 33.546875 6.109375 37.1875 8.109375 
Q 40.828125 10.109375 43.40625 13.921875 
Q 46.1875 17.921875 47.890625 23.34375 
Q 49.609375 28.765625 49.609375 33.6875 
z
M 21.78125 46.390625 
Q 25.390625 51.125 30.296875 53.5625 
Q 35.203125 56 41.21875 56 
Q 49.609375 56 54.25 50.5 
Q 58.890625 45.015625 58.890625 35.109375 
Q 58.890625 27 56 19.65625 
Q 53.125 12.3125 47.703125 6.5 
Q 44.09375 2.640625 39.546875 0.609375 
Q 35.015625 -1.421875 29.984375 -1.421875 
Q 24.171875 -1.421875 20.21875 1 
Q 16.265625 3.421875 14.3125 8.203125 
L 8.6875 -20.796875 
L -0.296875 -20.796875 
L 14.40625 54.6875 
L 23.390625 54.6875 
z
" id="DejaVuSans-Oblique-70"/>
      <path d="M 53.515625 70.515625 
L 53.515625 60.890625 
Q 47.90625 63.578125 42.921875 64.890625 
Q 37.9375 66.21875 33.296875 66.21875 
Q 25.25 66.21875 20.875 63.09375 
Q 16.5 59.96875 16.5 54.203125 
Q 16.5 49.359375 19.40625 46.890625 
Q 22.3125 44.4375 30.421875 42.921875 
L 36.375 41.703125 
Q 47.40625 39.59375 52.65625 34.296875 
Q 57.90625 29 57.90625 20.125 
Q 57.90625 9.515625 50.796875 4.046875 
Q 43.703125 -1.421875 29.984375 -1.421875 
Q 24.8125 -1.421875 18.96875 -0.25 
Q 13.140625 0.921875 6.890625 3.21875 
L 6.890625 13.375 
Q 12.890625 10.015625 18.65625 8.296875 
Q 24.421875 6.59375 29.984375 6.59375 
Q 38.421875 6.59375 43.015625 9.90625 
Q 47.609375 13.234375 47.609375 19.390625 
Q 47.609375 24.75 44.3125 27.78125 
Q 41.015625 30.8125 33.5 32.328125 
L 27.484375 33.5 
Q 16.453125 35.6875 11.515625 40.375 
Q 6.59375 45.0625 6.59375 53.421875 
Q 6.59375 63.09375 13.40625 68.65625 
Q 20.21875 74.21875 32.171875 74.21875 
Q 37.3125 74.21875 42.625 73.28125 
Q 47.953125 72.359375 53.515625 70.515625 
z
" id="DejaVuSans-53"/>
      <path d="M 89.796875 33.015625 
L 83.40625 0 
L 74.421875 0 
L 80.71875 32.71875 
Q 81.109375 34.8125 81.296875 36.328125 
Q 81.5 37.84375 81.5 38.921875 
Q 81.5 43.3125 79.046875 45.75 
Q 76.609375 48.1875 72.21875 48.1875 
Q 65.671875 48.1875 60.546875 43.28125 
Q 55.421875 38.375 53.90625 30.515625 
L 47.90625 0 
L 38.921875 0 
L 45.3125 32.71875 
Q 45.703125 34.515625 45.890625 36.046875 
Q 46.09375 37.59375 46.09375 38.8125 
Q 46.09375 43.265625 43.65625 45.71875 
Q 41.21875 48.1875 36.921875 48.1875 
Q 30.28125 48.1875 25.140625 43.28125 
Q 20.015625 38.375 18.5 30.515625 
L 12.5 0 
L 3.515625 0 
L 14.203125 54.6875 
L 23.1875 54.6875 
L 21.484375 46.1875 
Q 25.140625 50.984375 30.046875 53.484375 
Q 34.96875 56 40.578125 56 
Q 46.53125 56 50.359375 52.875 
Q 54.203125 49.75 54.984375 44.1875 
Q 59.078125 49.953125 64.46875 52.96875 
Q 69.875 56 75.875 56 
Q 82.90625 56 86.734375 51.953125 
Q 90.578125 47.90625 90.578125 40.484375 
Q 90.578125 38.875 90.375 36.9375 
Q 90.1875 35.015625 89.796875 33.015625 
z
" id="DejaVuSans-Oblique-6d"/>
      <path d="M 8.59375 75.984375 
L 29.296875 75.984375 
L 29.296875 69 
L 17.578125 69 
L 17.578125 -6.203125 
L 29.296875 -6.203125 
L 29.296875 -13.1875 
L 8.59375 -13.1875 
z
" id="DejaVuSans-5b"/>
      <path d="M 10.6875 12.40625 
L 21 12.40625 
L 21 0 
L 10.6875 0 
z
" id="DejaVuSans-2e"/>
      <path d="M 6.6875 21.6875 
L 13.09375 54.6875 
L 22.125 54.6875 
L 15.71875 22.015625 
Q 15.234375 19.625 15.015625 17.921875 
Q 14.796875 16.21875 14.796875 15.09375 
Q 14.796875 10.9375 17.328125 8.65625 
Q 19.875 6.390625 24.515625 6.390625 
Q 31.734375 6.390625 37 11.265625 
Q 42.28125 16.15625 43.890625 24.421875 
L 49.90625 54.6875 
L 58.890625 54.6875 
L 48.296875 0 
L 39.3125 0 
L 41.109375 8.59375 
Q 37.3125 3.8125 32.0625 1.1875 
Q 26.8125 -1.421875 20.90625 -1.421875 
Q 13.71875 -1.421875 9.71875 2.515625 
Q 5.71875 6.453125 5.71875 13.484375 
Q 5.71875 14.9375 5.953125 17.140625 
Q 6.203125 19.34375 6.6875 21.6875 
z
" id="DejaVuSans-Oblique-75"/>
      <path d="M 9.625 72.90625 
L 19.1875 72.90625 
L 22.703125 10.890625 
L 50.203125 72.90625 
L 61.1875 72.90625 
L 64.796875 10.890625 
L 92 72.90625 
L 102 72.90625 
L 69.578125 0 
L 57.171875 0 
L 53.8125 60.796875 
L 26.515625 0 
L 14.109375 0 
z
" id="DejaVuSans-Oblique-57"/>
      <path d="M 30.421875 75.984375 
L 30.421875 -13.1875 
L 9.71875 -13.1875 
L 9.71875 -6.203125 
L 21.390625 -6.203125 
L 21.390625 69 
L 9.71875 69 
L 9.71875 75.984375 
z
" id="DejaVuSans-5d"/>
     </defs>
     <g transform="translate(44.355 271.64)rotate(-90)scale(0.14 -0.14)">
      <use transform="translate(0 0.765625)" xlink:href="#DejaVuSans-2202"/>
      <use transform="translate(51.708984 0.765625)" xlink:href="#STIXNonUnicode-Italic-e238"/>
      <use transform="translate(121.008972 0.765625)" xlink:href="#DejaVuSans-2f"/>
      <use transform="translate(154.700378 0.765625)" xlink:href="#DejaVuSans-2202"/>
      <use transform="translate(206.409363 0.765625)" xlink:href="#DejaVuSans-Oblique-70"/>
      <use transform="translate(274.535821 39.046875)scale(0.7)" xlink:href="#DejaVuSans-53"/>
      <use transform="translate(269.885925 -26.578125)scale(0.7)" xlink:href="#DejaVuSans-Oblique-6d"/>
      <use transform="translate(340.808777 0.765625)" xlink:href="#DejaVuSans-5b"/>
      <use transform="translate(379.822449 0.765625)" xlink:href="#DejaVuSans-Oblique-6d"/>
      <use transform="translate(477.234558 0.765625)" xlink:href="#DejaVuSans-2e"/>
      <use transform="translate(528.504089 0.765625)" xlink:href="#DejaVuSans-Oblique-75"/>
      <use transform="translate(591.882996 0.765625)" xlink:href="#DejaVuSans-2f"/>
      <use transform="translate(625.574402 0.765625)" xlink:href="#DejaVuSans-Oblique-57"/>
      <use transform="translate(724.451355 0.765625)" xlink:href="#DejaVuSans-5d"/>
     </g>
    </g>
   </g>
   <g id="line2d_29">
    <path clip-path="url(#p1759ece98a)" d="M 92.290909 363.873167 
L 92.372073 363.940046 
L 92.696727 364.8861 
L 93.061964 365.122961 
L 93.670691 365.226066 
L 95.943273 365.272045 
L 96.612873 365.182873 
L 96.856364 363.921933 
L 96.9984 363.841121 
L 97.181018 364.449995 
L 99.0072 364.465322 
L 117.938618 364.355251 
L 124.066473 364.325991 
L 169.599273 364.21592 
L 177.1272 364.197807 
L 244.066909 364.087736 
L 245.710473 364.08495 
L 337.952945 363.974879 
L 343.045964 363.969305 
L 497.926473 363.868987 
L 497.926473 363.868987 
" style="fill:none;stroke:#bf00bf;stroke-linecap:square;stroke-width:1.5;"/>
   </g>
   <g id="line2d_30">
    <path clip-path="url(#p1759ece98a)" d="M 92.290909 363.873167 
L 92.372073 363.970699 
L 92.615564 364.898639 
L 92.960509 365.187053 
L 93.447491 365.302698 
L 95.537455 365.336137 
L 96.349091 365.239999 
L 96.592582 363.927506 
L 96.694036 363.843908 
L 96.856364 364.533594 
L 97.870909 364.526627 
L 106.981527 364.463928 
L 107.164145 364.147648 
L 107.367055 364.263293 
L 111.973091 364.310665 
L 179.420073 364.200594 
L 184.878327 364.186661 
L 253.542764 364.07659 
L 255.186327 364.073803 
L 350.573891 363.963732 
L 352.217455 363.960945 
L 498.007636 363.868987 
L 498.007636 363.868987 
" style="fill:none;stroke:#00bfbf;stroke-linecap:square;stroke-width:1.5;"/>
   </g>
   <g id="line2d_31">
    <path clip-path="url(#p1759ece98a)" d="M 92.290909 363.873167 
L 92.372073 363.955372 
L 92.717018 365.533986 
L 93.001091 366.027216 
L 93.4272 366.291944 
L 93.995345 366.342103 
L 94.421455 366.176299 
L 94.9896 365.026823 
L 95.009891 365.060263 
L 95.172218 365.153614 
L 95.415709 365.121568 
L 95.780945 364.86102 
L 96.795491 364.551707 
L 97.018691 364.437456 
L 97.424509 364.587932 
L 100.3464 364.525234 
L 100.529018 364.348284 
L 100.934836 364.39705 
L 136.707709 364.016678 
L 361.206327 363.906607 
L 362.809309 363.905213 
L 497.825018 363.871774 
L 497.825018 363.871774 
" style="fill:none;stroke:#ff0000;stroke-linecap:square;stroke-width:1.5;"/>
   </g>
   <g id="line2d_32">
    <path clip-path="url(#p1759ece98a)" d="M 92.290909 363.873167 
L 92.392364 363.909393 
L 93.001091 365.942224 
L 93.447491 366.244571 
L 94.015636 366.289157 
L 94.482327 365.967304 
L 94.7664 365.330564 
L 95.131636 365.184267 
L 95.476582 365.075589 
L 95.760655 364.819221 
L 96.3288 364.774635 
L 96.389673 364.703577 
L 96.673745 364.104456 
L 96.734618 364.111422 
L 96.754909 364.174121 
L 96.917236 364.37197 
L 107.022109 364.288372 
L 107.245309 364.168548 
L 107.651127 364.190841 
L 109.314982 364.195021 
L 174.550255 364.08495 
L 176.193818 364.082163 
L 302.443855 363.972092 
L 304.067127 363.970699 
L 497.946764 363.870381 
L 497.946764 363.870381 
" style="fill:none;stroke:#008000;stroke-linecap:square;stroke-width:1.5;"/>
   </g>
   <g id="line2d_33">
    <path clip-path="url(#p1759ece98a)" d="M 92.290909 363.873167 
L 92.412655 363.962339 
L 92.919927 365.67889 
L 93.346036 366.020249 
L 93.8736 366.120567 
L 94.340291 366.010496 
L 94.462036 365.904605 
L 94.806982 365.255325 
L 95.2128 365.170334 
L 95.476582 365.082555 
L 95.780945 364.847087 
L 96.491127 364.813648 
L 96.653455 364.723083 
L 96.937527 364.023644 
L 97.038982 364.023644 
L 97.241891 364.325991 
L 98.134691 364.337138 
L 118.405309 364.227067 
L 120.109745 364.2201 
L 173.028436 364.110029 
L 174.692291 364.105849 
L 285.500945 363.995778 
L 287.144509 363.992991 
L 456.086618 363.88292 
L 457.709891 363.881527 
L 497.906182 363.870381 
L 497.906182 363.870381 
" style="fill:none;stroke:#0000ff;stroke-linecap:square;stroke-width:1.5;"/>
   </g>
   <g id="line2d_34">
    <path clip-path="url(#p1759ece98a)" d="M 92.290909 363.873167 
L 92.412655 363.970699 
L 92.879345 365.99099 
L 93.285164 366.461927 
L 93.711273 366.612404 
L 94.0968 366.551098 
L 94.482327 366.188839 
L 94.7664 365.308271 
L 95.070764 365.146647 
L 95.476582 364.996171 
L 95.760655 364.638091 
L 96.186764 364.580966 
L 96.409964 364.504334 
L 96.694036 364.195021 
L 96.795491 364.254933 
L 96.978109 364.253539 
L 97.404218 364.292552 
L 107.082982 364.193627 
L 107.285891 364.162975 
L 108.949745 364.167155 
L 173.941527 364.057083 
L 175.585091 364.054297 
L 327.442255 363.944226 
L 329.045236 363.942832 
L 497.926473 363.870381 
L 497.926473 363.870381 
" style="fill:none;stroke:#000000;stroke-linecap:square;stroke-width:1.5;"/>
   </g>
   <g id="line2d_35">
    <path clip-path="url(#p1759ece98a)" d="M 92.290909 363.873167 
L 92.351782 363.873167 
L 92.676436 366.408981 
L 92.9808 367.024822 
L 93.366327 367.29373 
L 94.035927 367.388474 
L 95.334545 367.349462 
L 95.496873 363.945619 
L 95.699782 363.874561 
L 104.1408 363.873167 
L 104.303127 364.238213 
L 105.906109 364.238213 
L 149.490982 364.128142 
L 151.175127 364.122569 
L 230.9184 364.012498 
L 232.561964 364.009711 
L 397.993745 363.89964 
L 399.617018 363.898247 
L 497.987345 363.868987 
L 497.987345 363.868987 
" style="fill:none;stroke:#bfbf00;stroke-linecap:square;stroke-width:1.5;"/>
   </g>
   <g id="line2d_36">
    <path clip-path="url(#p1759ece98a)" d="M 92.290909 363.873167 
L 92.392364 363.921933 
L 92.9808 366.617977 
L 93.346036 367.016462 
L 93.792436 367.148826 
L 94.117091 367.068014 
L 94.482327 366.718295 
L 94.7664 365.869772 
L 95.091055 365.688643 
L 95.375127 365.560459 
L 95.618618 364.366397 
L 95.862109 364.235426 
L 97.383927 364.135109 
L 98.763709 364.121175 
L 100.955127 364.08077 
L 104.445164 364.190841 
L 106.068436 364.192234 
L 135.469964 364.082163 
L 137.113527 364.077983 
L 270.749455 363.967912 
L 272.352436 363.966519 
L 497.967055 363.870381 
L 497.967055 363.870381 
" style="fill:none;stroke:#bf00bf;stroke-linecap:square;stroke-width:1.5;"/>
   </g>
   <g id="line2d_37">
    <path clip-path="url(#p1759ece98a)" d="M 92.290909 363.873167 
L 92.372073 363.923326 
L 92.899636 366.45914 
L 93.346036 366.987203 
L 93.792436 367.10424 
L 94.015636 367.038755 
L 94.421455 366.637483 
L 94.705527 365.348677 
L 95.009891 365.056083 
L 95.395418 364.993384 
L 95.699782 364.40541 
L 96.1056 364.328778 
L 97.018691 364.2201 
L 97.607127 364.249359 
L 102.334909 364.139288 
L 104.181382 364.119782 
L 104.8104 364.185267 
L 110.146909 364.112816 
L 154.644873 364.002745 
L 158.013164 363.997171 
L 423.499418 363.8871 
L 426.766255 363.885707 
L 498.068509 363.870381 
L 498.068509 363.870381 
" style="fill:none;stroke:#00bfbf;stroke-linecap:square;stroke-width:1.5;"/>
   </g>
   <g id="line2d_38">
    <path clip-path="url(#p1759ece98a)" d="M 92.290909 363.873167 
L 92.372073 363.91636 
L 92.9808 366.516266 
L 93.366327 366.925897 
L 93.812727 367.035968 
L 94.035927 366.957943 
L 94.441745 366.478647 
L 94.725818 365.292944 
L 94.9896 365.096489 
L 95.436 364.893066 
L 95.699782 364.427702 
L 96.024436 364.349677 
L 96.856364 364.186661 
L 97.201309 364.199201 
L 98.094109 364.210347 
L 100.244945 364.172728 
L 136.159855 364.062657 
L 139.589018 364.05569 
L 302.727927 363.945619 
L 304.3512 363.944226 
L 498.109091 363.870381 
L 498.109091 363.870381 
" style="fill:none;stroke:#ff0000;stroke-linecap:square;stroke-width:1.5;"/>
   </g>
   <g id="line2d_39">
    <path clip-path="url(#p1759ece98a)" d="M 92.290909 363.873167 
L 92.331491 363.873167 
L 92.554691 365.67471 
L 93.021382 367.557064 
L 93.346036 367.916537 
L 93.751855 367.991775 
L 93.893891 367.970876 
L 94.177964 367.26029 
L 94.32 367.201771 
L 94.664945 364.618585 
L 94.928727 364.424916 
L 95.578036 364.196414 
L 95.943273 364.08495 
L 96.369382 364.153221 
L 96.572291 364.422129 
L 97.972364 364.316238 
L 104.364 364.091916 
L 106.048145 364.073803 
L 124.0056 363.963732 
L 142.571782 363.933079 
L 188.774182 364.04315 
L 189.484364 364.065443 
L 200.705236 364.022251 
L 317.337382 363.91218 
L 428.714182 363.881527 
L 497.906182 363.871774 
L 497.906182 363.871774 
" style="fill:none;stroke:#008000;stroke-linecap:square;stroke-width:1.5;"/>
   </g>
   <g id="line2d_40">
    <path clip-path="url(#p1759ece98a)" d="M 92.290909 363.873167 
L 92.331491 363.873167 
L 92.635855 366.565031 
L 92.7576 367.102847 
L 92.859055 366.735015 
L 92.879345 366.744768 
L 93.366327 367.250537 
L 93.812727 367.321596 
L 94.218545 367.198985 
L 94.360582 367.047115 
L 94.604073 364.667351 
L 94.827273 364.452782 
L 95.293964 364.38869 
L 95.476582 364.282799 
L 95.760655 364.100276 
L 96.389673 364.07241 
L 99.392727 364.015284 
L 109.923709 363.980452 
L 124.249091 364.013891 
L 124.776655 364.130929 
L 129.504436 364.101669 
L 129.849382 363.958159 
L 188.814764 364.066837 
L 190.093091 364.075196 
L 198.757309 364.037577 
L 283.735636 363.927506 
L 295.666691 363.92054 
L 498.048218 363.871774 
L 498.048218 363.871774 
" style="fill:none;stroke:#0000ff;stroke-linecap:square;stroke-width:1.5;"/>
   </g>
   <g id="line2d_41">
    <path clip-path="url(#p1759ece98a)" d="M 92.290909 363.873167 
L 92.351782 363.873167 
L 92.635855 367.915143 
L 92.879345 368.820791 
L 93.163418 369.230423 
L 93.528655 369.346067 
L 94.035927 369.270829 
L 94.32 369.18723 
L 94.522909 363.938653 
L 94.705527 363.881527 
L 188.571273 363.991598 
L 188.652436 364.174121 
L 189.504655 364.181088 
L 201.212509 364.090523 
L 221.3208 364.004138 
L 358.020655 363.894067 
L 369.708218 363.889887 
L 498.007636 363.871774 
L 498.007636 363.871774 
" style="fill:none;stroke:#000000;stroke-linecap:square;stroke-width:1.5;"/>
   </g>
   <g id="line2d_42">
    <path clip-path="url(#p1759ece98a)" d="M 92.290909 363.873167 
L 92.351782 363.951192 
L 92.717018 366.757307 
L 93.001091 367.515265 
L 93.305455 367.760487 
L 93.6504 367.777206 
L 93.8736 367.679675 
L 94.076509 365.977057 
L 94.421455 365.393262 
L 94.644655 364.366397 
L 94.827273 364.23264 
L 96.186764 363.995778 
L 96.267927 363.994385 
L 96.369382 364.547527 
L 96.491127 364.986417 
L 96.754909 364.980844 
L 97.708582 364.824794 
L 100.671055 364.477861 
L 108.1584 364.073803 
L 117.289309 363.963732 
L 178.222909 363.864807 
L 497.967055 363.871774 
L 497.967055 363.871774 
" style="fill:none;stroke:#bfbf00;stroke-linecap:square;stroke-width:1.5;"/>
   </g>
   <g id="line2d_43">
    <path clip-path="url(#p1759ece98a)" d="M 92.290909 363.873167 
L 92.351782 363.873167 
L 92.595273 365.791747 
L 92.899636 366.056475 
L 93.548945 366.208345 
L 94.238836 366.152613 
L 94.685236 366.060655 
L 94.867855 364.154615 
L 94.888145 364.328778 
L 95.050473 365.20238 
L 96.146182 365.092309 
L 97.160727 365.064443 
L 100.326109 364.894459 
L 100.447855 364.268866 
L 100.488436 364.483435 
L 100.630473 364.622765 
L 104.5872 364.512694 
L 108.239564 364.37197 
L 111.161455 364.261899 
L 114.347127 364.153221 
L 118.4256 364.04315 
L 125.385382 363.914966 
L 498.0888 363.873167 
L 498.0888 363.873167 
" style="fill:none;stroke:#bf00bf;stroke-linecap:square;stroke-width:1.5;"/>
   </g>
   <g id="line2d_44">
    <path clip-path="url(#p1759ece98a)" d="M 92.290909 363.873167 
L 92.351782 363.873167 
L 92.7576 367.380114 
L 93.001091 367.587717 
L 93.386618 367.566817 
L 93.833018 367.370361 
L 93.893891 365.458748 
L 94.056218 363.909393 
L 94.380873 363.889887 
L 96.267927 363.880134 
L 96.430255 365.871166 
L 96.815782 365.766668 
L 98.479636 365.311057 
L 102.618982 364.571213 
L 105.520582 364.284192 
L 110.796218 364.032004 
L 116.579127 363.944226 
L 149.490982 363.834155 
L 152.838982 363.829975 
L 497.906182 363.873167 
L 497.906182 363.873167 
" style="fill:none;stroke:#00bfbf;stroke-linecap:square;stroke-width:1.5;"/>
   </g>
   <g id="line2d_45">
    <path clip-path="url(#p1759ece98a)" d="M 92.290909 363.873167 
L 92.372073 363.88292 
L 92.7576 367.243571 
L 93.102545 367.339709 
L 93.224291 367.26865 
L 93.589527 365.049116 
L 93.8736 364.969698 
L 94.117091 363.884314 
L 95.273673 363.875954 
L 96.288218 363.875954 
L 96.612873 364.511301 
L 98.865164 364.313451 
L 104.566909 364.032004 
L 111.181745 363.921933 
L 113.007927 363.906607 
L 114.245673 363.953979 
L 114.408 364.189447 
L 116.132727 364.137895 
L 121.002545 364.027824 
L 125.973818 363.967912 
L 149.917091 363.857841 
L 151.560655 363.855054 
L 498.027927 363.873167 
L 498.027927 363.873167 
" style="fill:none;stroke:#ff0000;stroke-linecap:square;stroke-width:1.5;"/>
   </g>
   <g id="line2d_46">
    <path clip-path="url(#p1759ece98a)" d="M 92.290909 363.873167 
L 92.351782 363.873167 
L 92.5344 367.200378 
L 92.777891 367.253324 
L 93.224291 367.228244 
L 93.4272 363.91218 
L 93.731564 363.8871 
L 114.123927 363.873167 
L 114.408 364.365004 
L 118.872 364.168548 
L 127.049236 363.995778 
L 141.881891 363.888494 
L 497.926473 363.873167 
L 497.926473 363.873167 
" style="fill:none;stroke:#008000;stroke-linecap:square;stroke-width:1.5;"/>
   </g>
   <g id="line2d_47">
    <path clip-path="url(#p1759ece98a)" d="M 92.290909 363.873167 
L 92.392364 363.959552 
L 92.7576 367.515265 
L 92.818473 367.105633 
L 92.9808 366.070408 
L 93.204 366.018856 
L 93.853309 365.890672 
L 93.893891 365.595292 
L 94.0968 363.951192 
L 94.299709 363.884314 
L 96.288218 363.877347 
L 96.552 365.001744 
L 97.140436 364.911179 
L 102.497236 364.286979 
L 107.833745 364.030611 
L 114.103636 363.92054 
L 119.683636 363.90382 
L 124.249091 363.884314 
L 124.472291 364.213134 
L 126.095564 364.214527 
L 129.565309 364.139288 
L 129.8088 363.908 
L 131.716145 363.8871 
L 498.068509 363.873167 
L 498.068509 363.873167 
" style="fill:none;stroke:#0000ff;stroke-linecap:square;stroke-width:1.5;"/>
   </g>
   <g id="line2d_48">
    <path clip-path="url(#p1759ece98a)" d="M 92.290909 363.873167 
L 92.351782 363.873167 
L 92.392364 364.186661 
L 92.717018 367.722867 
L 92.7576 367.655989 
L 92.960509 364.706363 
L 93.122836 364.636698 
L 93.8736 364.579573 
L 94.137382 363.896853 
L 94.563491 363.875954 
L 96.349091 363.963732 
L 96.552 364.268866 
L 97.282473 364.234033 
L 101.604436 364.04733 
L 107.103273 363.937259 
L 114.022473 363.889887 
L 124.208509 363.877347 
L 124.452 364.497368 
L 125.811491 364.480648 
L 129.504436 364.40541 
L 129.788509 363.885707 
L 140.015127 363.868987 
L 498.109091 363.873167 
L 498.109091 363.873167 
" style="fill:none;stroke:#000000;stroke-linecap:square;stroke-width:1.5;"/>
   </g>
   <g id="line2d_49">
    <path clip-path="url(#p1759ece98a)" d="M 92.290909 363.873167 
L 92.3112 291.83933 
L 92.3112 291.83933 
L 92.3112 291.83933 
L 92.412655 362.226281 
L 92.574982 366.581751 
L 92.7576 366.814433 
L 93.183709 366.877132 
L 93.264873 366.427094 
L 93.447491 364.636698 
L 93.6504 364.600472 
L 93.853309 364.604652 
L 94.035927 363.873167 
L 498.068509 363.873167 
L 498.068509 363.873167 
" style="fill:none;stroke:#bfbf00;stroke-linecap:square;stroke-width:1.5;"/>
   </g>
   <g id="line2d_50">
    <path clip-path="url(#p1759ece98a)" d="M 92.290909 363.873167 
L 92.3112 308.140991 
L 92.3112 308.140991 
L 92.3112 308.140991 
L 92.453236 364.147648 
L 92.656145 366.80886 
L 92.859055 367.008102 
L 93.183709 367.056868 
L 93.204 366.896638 
L 93.325745 363.873167 
L 498.109091 363.873167 
L 498.109091 363.873167 
" style="fill:none;stroke:#bf00bf;stroke-linecap:square;stroke-width:1.5;"/>
   </g>
   <g id="line2d_51">
    <path clip-path="url(#p1759ece98a)" d="M 92.290909 363.873167 
L 92.3112 333.359801 
L 92.3112 333.359801 
L 92.3112 333.359801 
L 92.432945 365.214919 
L 92.656145 367.908177 
L 92.717018 368.164545 
L 92.859055 363.873167 
L 124.208509 363.873167 
L 124.350545 364.663171 
L 128.855127 364.5531 
L 129.484145 364.507121 
L 129.666764 363.873167 
L 131.777018 363.873167 
L 498.048218 363.873167 
L 498.048218 363.873167 
" style="fill:none;stroke:#00bfbf;stroke-linecap:square;stroke-width:1.5;"/>
   </g>
   <g id="line2d_52">
    <path clip-path="url(#p1759ece98a)" d="M 92.290909 363.873167 
L 92.3112 66.96 
L 92.3112 66.96 
L 92.3112 66.96 
L 92.412655 355.364257 
L 92.554691 364.54474 
L 92.879345 364.901426 
L 93.447491 365.051903 
L 94.32 365.02543 
L 94.685236 364.893066 
L 94.888145 364.182481 
L 95.070764 364.519661 
L 95.720073 364.456962 
L 98.702836 364.359431 
L 100.386982 364.243786 
L 100.488436 364.125355 
L 100.508727 364.151828 
L 100.975418 364.20338 
L 109.071491 364.094703 
L 128.124655 363.914966 
L 497.804727 363.871774 
L 497.804727 363.871774 
" style="fill:none;stroke:#ff0000;stroke-linecap:square;stroke-width:1.5;"/>
   </g>
   <g id="line2d_53">
    <path clip-path="url(#p1759ece98a)" d="M 92.290909 363.873167 
L 92.453236 363.873167 
L 92.5344 364.752342 
L 92.574982 364.951585 
L 92.656145 364.930685 
L 94.238836 365.252539 
L 96.633164 365.219099 
L 96.978109 363.740803 
L 97.018691 363.728264 
L 97.038982 363.809075 
L 97.241891 364.434669 
L 97.728873 364.456962 
L 119.521309 364.346891 
L 121.266327 364.337138 
L 164.830909 364.227067 
L 166.494764 364.222887 
L 227.002255 364.112816 
L 285.683564 364.032004 
L 400.246036 363.921933 
L 401.869309 363.92054 
L 498.068509 363.864807 
L 498.068509 363.864807 
" style="fill:none;stroke:#008000;stroke-linecap:square;stroke-width:1.5;"/>
   </g>
   <g id="line2d_54">
    <path clip-path="url(#p1759ece98a)" d="M 92.290909 363.873167 
L 92.3112 66.96 
L 92.3112 66.96 
L 92.3112 66.96 
L 92.453236 362.270867 
L 92.635855 364.951585 
L 92.960509 365.196806 
L 93.508364 365.309664 
L 95.496873 365.336137 
L 96.369382 365.281798 
L 96.673745 363.76031 
L 96.714327 363.732444 
L 96.734618 363.816042 
L 96.937527 364.519661 
L 97.525964 364.529414 
L 106.961236 364.469502 
L 107.123564 363.873167 
L 107.184436 364.391477 
L 107.285891 364.307878 
L 107.569964 364.267472 
L 201.841527 364.157401 
L 205.270691 364.150435 
L 280.671709 364.040364 
L 284.060291 364.034791 
L 397.100945 363.92472 
L 398.724218 363.923326 
L 497.906182 363.864807 
L 497.906182 363.864807 
" style="fill:none;stroke:#0000ff;stroke-linecap:square;stroke-width:1.5;"/>
   </g>
   <g id="line2d_55">
    <path clip-path="url(#p1759ece98a)" d="M 92.290909 363.873167 
L 92.3112 123.388828 
L 92.3112 123.388828 
L 92.3112 123.388828 
L 92.453236 363.614013 
L 92.635855 366.346283 
L 92.940218 367.001136 
L 93.305455 367.278403 
L 93.833018 367.378721 
L 95.192509 367.363395 
L 95.334545 367.343889 
L 95.456291 363.873167 
L 104.1408 363.873167 
L 104.262545 364.239606 
L 148.983709 364.129535 
L 150.667855 364.123962 
L 229.315418 364.013891 
L 230.938691 364.011104 
L 394.909527 363.901033 
L 396.5328 363.89964 
L 497.8656 363.864807 
L 497.8656 363.864807 
" style="fill:none;stroke:#000000;stroke-linecap:square;stroke-width:1.5;"/>
   </g>
   <g id="line2d_56">
    <path clip-path="url(#p1759ece98a)" d="M 92.290909 363.873167 
L 92.3112 118.372932 
L 92.3112 118.372932 
L 92.3112 118.372932 
L 92.453236 364.841514 
L 92.635855 368.030788 
L 92.940218 369.003314 
L 93.244582 369.305661 
L 93.630109 369.35582 
L 94.32 369.19559 
L 94.502618 363.873167 
L 188.550982 363.873167 
L 188.672727 364.189447 
L 203.2416 364.079376 
L 204.986618 364.069623 
L 244.168364 363.959552 
L 245.811927 363.956766 
L 497.885891 363.870381 
L 497.885891 363.870381 
" style="fill:none;stroke:#bfbf00;stroke-linecap:square;stroke-width:1.5;"/>
   </g>
   <g id="line2d_57">
    <path clip-path="url(#p1759ece98a)" d="M 92.290909 363.873167 
L 92.3112 75.459157 
L 92.3112 75.459157 
L 92.3112 75.459157 
L 92.412655 356.159834 
L 92.554691 365.69143 
L 92.7576 365.979844 
L 93.305455 366.183266 
L 94.117091 366.184659 
L 94.685236 366.067622 
L 94.888145 364.079376 
L 94.908436 364.104456 
L 95.172218 365.184267 
L 95.6592 365.148041 
L 97.627418 365.053296 
L 100.204364 364.951585 
L 100.407273 363.873167 
L 100.488436 364.88192 
L 100.508727 364.87774 
L 100.731927 364.632518 
L 102.192873 364.590719 
L 110.268655 364.295339 
L 113.555782 364.179694 
L 123.701236 363.940046 
L 135.287345 363.828582 
L 159.778473 363.750556 
L 232.318473 363.842515 
L 232.663418 363.873167 
L 497.825018 363.873167 
L 497.825018 363.873167 
" style="fill:none;stroke:#bf00bf;stroke-linecap:square;stroke-width:1.5;"/>
   </g>
   <g id="line2d_58">
    <path clip-path="url(#p1759ece98a)" d="M 92.290909 363.873167 
L 92.3112 236.803806 
L 92.3112 236.803806 
L 92.3112 236.803806 
L 92.453236 364.957158 
L 92.615564 367.084734 
L 92.859055 367.543131 
L 93.163418 367.625336 
L 93.589527 367.499939 
L 93.833018 367.382901 
L 94.076509 363.873167 
L 96.288218 363.874561 
L 96.369382 365.919931 
L 96.450545 365.896245 
L 98.459345 365.320811 
L 101.056582 364.810861 
L 105.906109 364.256326 
L 110.775927 364.030611 
L 120.272073 363.92054 
L 126.826036 363.919146 
L 144.032727 363.809075 
L 147.583636 363.797929 
L 498.068509 363.871774 
L 498.068509 363.871774 
" style="fill:none;stroke:#00bfbf;stroke-linecap:square;stroke-width:1.5;"/>
   </g>
   <g id="line2d_59">
    <path clip-path="url(#p1759ece98a)" d="M 92.290909 363.873167 
L 92.3112 291.83933 
L 92.3112 291.83933 
L 92.3112 291.83933 
L 92.453236 366.496759 
L 92.615564 367.26865 
L 93.224291 367.229638 
L 93.346036 363.873167 
L 114.205091 363.873167 
L 114.306545 364.374757 
L 114.326836 364.373364 
L 118.912582 364.168548 
L 123.193964 364.058477 
L 128.773964 363.977665 
L 148.212655 363.867594 
L 149.876509 363.863414 
L 498.109091 363.873167 
L 498.109091 363.873167 
" style="fill:none;stroke:#ff0000;stroke-linecap:square;stroke-width:1.5;"/>
   </g>
   <g id="line2d_60">
    <path clip-path="url(#p1759ece98a)" d="M 92.290909 363.873167 
L 92.3112 239.172424 
L 92.3112 239.172424 
L 92.3112 239.172424 
L 92.453236 364.862413 
L 92.656145 367.902604 
L 92.737309 368.227244 
L 92.7576 367.915143 
L 92.940218 363.549921 
L 93.711273 363.866201 
L 97.140436 363.873167 
L 124.2288 363.873167 
L 124.391127 364.658991 
L 125.608582 364.632518 
L 129.463855 364.54056 
L 129.605891 363.873167 
L 497.967055 363.873167 
L 497.967055 363.873167 
" style="fill:none;stroke:#008000;stroke-linecap:square;stroke-width:1.5;"/>
   </g>
   <g id="line2d_61">
    <path clip-path="url(#p1759ece98a)" d="M 92.290909 363.873167 
L 92.3112 227.050675 
L 92.3112 227.050675 
L 92.3112 227.050675 
L 92.453236 363.385511 
L 92.656145 364.795535 
L 92.899636 365.058869 
L 93.346036 365.192627 
L 94.644655 365.263685 
L 96.592582 365.256719 
L 96.795491 363.873167 
L 96.978109 363.873167 
L 97.038982 364.904213 
L 97.120145 364.621372 
L 97.262182 364.468108 
L 98.134691 364.459748 
L 118.973455 364.349677 
L 120.718473 364.339924 
L 163.613455 364.229853 
L 165.277309 364.225673 
L 225.216655 364.115602 
L 226.860218 364.112816 
L 311.250109 364.002745 
L 312.873382 363.999958 
L 450.080509 363.889887 
L 453.387927 363.8871 
L 497.8656 363.864807 
L 497.8656 363.864807 
" style="fill:none;stroke:#0000ff;stroke-linecap:square;stroke-width:1.5;"/>
   </g>
   <g id="line2d_62">
    <path clip-path="url(#p1759ece98a)" d="M 92.290909 363.873167 
L 92.3112 227.050675 
L 92.3112 227.050675 
L 92.3112 227.050675 
L 92.453236 363.520661 
L 92.635855 364.954371 
L 92.960509 365.196806 
L 93.508364 365.309664 
L 95.496873 365.336137 
L 96.3288 365.32499 
L 96.511418 363.873167 
L 96.694036 363.873167 
L 96.734618 365.053296 
L 96.815782 364.732836 
L 96.978109 364.54892 
L 97.952073 364.525234 
L 107.022109 364.433276 
L 107.164145 364.05569 
L 107.225018 364.143468 
L 107.427927 364.259113 
L 109.477309 364.289765 
L 188.429236 364.179694 
L 190.093091 364.175514 
L 261.598255 364.065443 
L 263.201236 364.062657 
L 362.849891 363.952586 
L 364.493455 363.949799 
L 497.825018 363.864807 
L 497.825018 363.864807 
" style="fill:none;stroke:#000000;stroke-linecap:square;stroke-width:1.5;"/>
   </g>
   <g id="line2d_63">
    <path clip-path="url(#p1759ece98a)" d="M 92.290909 363.873167 
L 92.3112 236.803806 
L 92.3112 236.803806 
L 92.3112 236.803806 
L 92.412655 361.202203 
L 92.554691 365.730442 
L 92.859055 366.041149 
L 93.447491 366.201379 
L 94.218545 366.16376 
L 94.685236 366.060655 
L 94.827273 363.873167 
L 94.888145 364.930685 
L 95.050473 365.32499 
L 95.070764 365.290158 
L 95.415709 365.174514 
L 97.282473 365.061656 
L 100.204364 364.951585 
L 100.488436 364.274439 
L 100.508727 364.335744 
L 100.731927 364.614405 
L 102.334909 364.587932 
L 124.959273 363.92054 
L 135.287345 363.828582 
L 159.778473 363.750556 
L 232.501091 363.860628 
L 233.333018 363.873167 
L 497.906182 363.873167 
L 497.906182 363.873167 
" style="fill:none;stroke:#bfbf00;stroke-linecap:square;stroke-width:1.5;"/>
   </g>
   <g id="patch_3">
    <path d="M 72 384.48 
L 72 51.84 
" style="fill:none;stroke:#000000;stroke-linecap:square;stroke-linejoin:miter;stroke-width:0.8;"/>
   </g>
   <g id="patch_4">
    <path d="M 518.4 384.48 
L 518.4 51.84 
" style="fill:none;stroke:#000000;stroke-linecap:square;stroke-linejoin:miter;stroke-width:0.8;"/>
   </g>
   <g id="patch_5">
    <path d="M 72 384.48 
L 518.4 384.48 
" style="fill:none;stroke:#000000;stroke-linecap:square;stroke-linejoin:miter;stroke-width:0.8;"/>
   </g>
   <g id="patch_6">
    <path d="M 72 51.84 
L 518.4 51.84 
" style="fill:none;stroke:#000000;stroke-linecap:square;stroke-linejoin:miter;stroke-width:0.8;"/>
   </g>
   <g id="text_17">
    <!-- $\partial \mathcal{L}/ \partial p^\mathrm{S}_{m}$ -->
    <g transform="translate(271.33 45.84)scale(0.14 -0.14)">
     <use transform="translate(0 0.765625)" xlink:href="#DejaVuSans-2202"/>
     <use transform="translate(51.708984 0.765625)" xlink:href="#STIXNonUnicode-Italic-e238"/>
     <use transform="translate(121.008972 0.765625)" xlink:href="#DejaVuSans-2f"/>
     <use transform="translate(154.700378 0.765625)" xlink:href="#DejaVuSans-2202"/>
     <use transform="translate(206.409363 0.765625)" xlink:href="#DejaVuSans-Oblique-70"/>
     <use transform="translate(274.535821 39.046875)scale(0.7)" xlink:href="#DejaVuSans-53"/>
     <use transform="translate(269.885925 -26.578125)scale(0.7)" xlink:href="#DejaVuSans-Oblique-6d"/>
    </g>
   </g>
  </g>
 </g>
 <defs>
  <clipPath id="p1759ece98a">
   <rect height="332.64" width="446.4" x="72" y="51.84"/>
  </clipPath>
 </defs>
</svg>
