<?xml version="1.0" encoding="utf-8" standalone="no"?>
<!DOCTYPE svg PUBLIC "-//W3C//DTD SVG 1.1//EN"
  "http://www.w3.org/Graphics/SVG/1.1/DTD/svg11.dtd">
<!-- Created with matplotlib (http://matplotlib.org/) -->
<svg height="432pt" version="1.1" viewBox="0 0 576 432" width="576pt" xmlns="http://www.w3.org/2000/svg" xmlns:xlink="http://www.w3.org/1999/xlink">
 <defs>
  <style type="text/css">
*{stroke-linecap:butt;stroke-linejoin:round;}
  </style>
 </defs>
 <g id="figure_1">
  <g id="patch_1">
   <path d="M 0 432 
L 576 432 
L 576 0 
L 0 0 
z
" style="fill:#ffffff;"/>
  </g>
  <g id="axes_1">
   <g id="patch_2">
    <path d="M 72 384.48 
L 518.4 384.48 
L 518.4 51.84 
L 72 51.84 
z
" style="fill:#ffffff;"/>
   </g>
   <g id="matplotlib.axis_1">
    <g id="xtick_1">
     <g id="line2d_1">
      <path clip-path="url(#p141f309bcc)" d="M 92.290909 384.48 
L 92.290909 51.84 
" style="fill:none;stroke:#b0b0b0;stroke-dasharray:5.12,1.28,0.8,1.28;stroke-dashoffset:0;stroke-width:0.8;"/>
     </g>
     <g id="line2d_2">
      <defs>
       <path d="M 0 0 
L 0 3.5 
" id="m7eb6a1dcbf" style="stroke:#000000;stroke-width:0.8;"/>
      </defs>
      <g>
       <use style="stroke:#000000;stroke-width:0.8;" x="92.290909" xlink:href="#m7eb6a1dcbf" y="384.48"/>
      </g>
     </g>
     <g id="text_1">
      <!-- 0 -->
      <defs>
       <path d="M 31.78125 66.40625 
Q 24.171875 66.40625 20.328125 58.90625 
Q 16.5 51.421875 16.5 36.375 
Q 16.5 21.390625 20.328125 13.890625 
Q 24.171875 6.390625 31.78125 6.390625 
Q 39.453125 6.390625 43.28125 13.890625 
Q 47.125 21.390625 47.125 36.375 
Q 47.125 51.421875 43.28125 58.90625 
Q 39.453125 66.40625 31.78125 66.40625 
z
M 31.78125 74.21875 
Q 44.046875 74.21875 50.515625 64.515625 
Q 56.984375 54.828125 56.984375 36.375 
Q 56.984375 17.96875 50.515625 8.265625 
Q 44.046875 -1.421875 31.78125 -1.421875 
Q 19.53125 -1.421875 13.0625 8.265625 
Q 6.59375 17.96875 6.59375 36.375 
Q 6.59375 54.828125 13.0625 64.515625 
Q 19.53125 74.21875 31.78125 74.21875 
z
" id="DejaVuSans-30"/>
      </defs>
      <g transform="translate(89.109659 399.078438)scale(0.1 -0.1)">
       <use xlink:href="#DejaVuSans-30"/>
      </g>
     </g>
    </g>
    <g id="xtick_2">
     <g id="line2d_3">
      <path clip-path="url(#p141f309bcc)" d="M 143.018182 384.48 
L 143.018182 51.84 
" style="fill:none;stroke:#b0b0b0;stroke-dasharray:5.12,1.28,0.8,1.28;stroke-dashoffset:0;stroke-width:0.8;"/>
     </g>
     <g id="line2d_4">
      <g>
       <use style="stroke:#000000;stroke-width:0.8;" x="143.018182" xlink:href="#m7eb6a1dcbf" y="384.48"/>
      </g>
     </g>
     <g id="text_2">
      <!-- 2500 -->
      <defs>
       <path d="M 19.1875 8.296875 
L 53.609375 8.296875 
L 53.609375 0 
L 7.328125 0 
L 7.328125 8.296875 
Q 12.9375 14.109375 22.625 23.890625 
Q 32.328125 33.6875 34.8125 36.53125 
Q 39.546875 41.84375 41.421875 45.53125 
Q 43.3125 49.21875 43.3125 52.78125 
Q 43.3125 58.59375 39.234375 62.25 
Q 35.15625 65.921875 28.609375 65.921875 
Q 23.96875 65.921875 18.8125 64.3125 
Q 13.671875 62.703125 7.8125 59.421875 
L 7.8125 69.390625 
Q 13.765625 71.78125 18.9375 73 
Q 24.125 74.21875 28.421875 74.21875 
Q 39.75 74.21875 46.484375 68.546875 
Q 53.21875 62.890625 53.21875 53.421875 
Q 53.21875 48.921875 51.53125 44.890625 
Q 49.859375 40.875 45.40625 35.40625 
Q 44.1875 33.984375 37.640625 27.21875 
Q 31.109375 20.453125 19.1875 8.296875 
z
" id="DejaVuSans-32"/>
       <path d="M 10.796875 72.90625 
L 49.515625 72.90625 
L 49.515625 64.59375 
L 19.828125 64.59375 
L 19.828125 46.734375 
Q 21.96875 47.46875 24.109375 47.828125 
Q 26.265625 48.1875 28.421875 48.1875 
Q 40.625 48.1875 47.75 41.5 
Q 54.890625 34.8125 54.890625 23.390625 
Q 54.890625 11.625 47.5625 5.09375 
Q 40.234375 -1.421875 26.90625 -1.421875 
Q 22.3125 -1.421875 17.546875 -0.640625 
Q 12.796875 0.140625 7.71875 1.703125 
L 7.71875 11.625 
Q 12.109375 9.234375 16.796875 8.0625 
Q 21.484375 6.890625 26.703125 6.890625 
Q 35.15625 6.890625 40.078125 11.328125 
Q 45.015625 15.765625 45.015625 23.390625 
Q 45.015625 31 40.078125 35.4375 
Q 35.15625 39.890625 26.703125 39.890625 
Q 22.75 39.890625 18.8125 39.015625 
Q 14.890625 38.140625 10.796875 36.28125 
z
" id="DejaVuSans-35"/>
      </defs>
      <g transform="translate(130.293182 399.078438)scale(0.1 -0.1)">
       <use xlink:href="#DejaVuSans-32"/>
       <use x="63.623047" xlink:href="#DejaVuSans-35"/>
       <use x="127.246094" xlink:href="#DejaVuSans-30"/>
       <use x="190.869141" xlink:href="#DejaVuSans-30"/>
      </g>
     </g>
    </g>
    <g id="xtick_3">
     <g id="line2d_5">
      <path clip-path="url(#p141f309bcc)" d="M 193.745455 384.48 
L 193.745455 51.84 
" style="fill:none;stroke:#b0b0b0;stroke-dasharray:5.12,1.28,0.8,1.28;stroke-dashoffset:0;stroke-width:0.8;"/>
     </g>
     <g id="line2d_6">
      <g>
       <use style="stroke:#000000;stroke-width:0.8;" x="193.745455" xlink:href="#m7eb6a1dcbf" y="384.48"/>
      </g>
     </g>
     <g id="text_3">
      <!-- 5000 -->
      <g transform="translate(181.020455 399.078438)scale(0.1 -0.1)">
       <use xlink:href="#DejaVuSans-35"/>
       <use x="63.623047" xlink:href="#DejaVuSans-30"/>
       <use x="127.246094" xlink:href="#DejaVuSans-30"/>
       <use x="190.869141" xlink:href="#DejaVuSans-30"/>
      </g>
     </g>
    </g>
    <g id="xtick_4">
     <g id="line2d_7">
      <path clip-path="url(#p141f309bcc)" d="M 244.472727 384.48 
L 244.472727 51.84 
" style="fill:none;stroke:#b0b0b0;stroke-dasharray:5.12,1.28,0.8,1.28;stroke-dashoffset:0;stroke-width:0.8;"/>
     </g>
     <g id="line2d_8">
      <g>
       <use style="stroke:#000000;stroke-width:0.8;" x="244.472727" xlink:href="#m7eb6a1dcbf" y="384.48"/>
      </g>
     </g>
     <g id="text_4">
      <!-- 7500 -->
      <defs>
       <path d="M 8.203125 72.90625 
L 55.078125 72.90625 
L 55.078125 68.703125 
L 28.609375 0 
L 18.3125 0 
L 43.21875 64.59375 
L 8.203125 64.59375 
z
" id="DejaVuSans-37"/>
      </defs>
      <g transform="translate(231.747727 399.078438)scale(0.1 -0.1)">
       <use xlink:href="#DejaVuSans-37"/>
       <use x="63.623047" xlink:href="#DejaVuSans-35"/>
       <use x="127.246094" xlink:href="#DejaVuSans-30"/>
       <use x="190.869141" xlink:href="#DejaVuSans-30"/>
      </g>
     </g>
    </g>
    <g id="xtick_5">
     <g id="line2d_9">
      <path clip-path="url(#p141f309bcc)" d="M 295.2 384.48 
L 295.2 51.84 
" style="fill:none;stroke:#b0b0b0;stroke-dasharray:5.12,1.28,0.8,1.28;stroke-dashoffset:0;stroke-width:0.8;"/>
     </g>
     <g id="line2d_10">
      <g>
       <use style="stroke:#000000;stroke-width:0.8;" x="295.2" xlink:href="#m7eb6a1dcbf" y="384.48"/>
      </g>
     </g>
     <g id="text_5">
      <!-- 10000 -->
      <defs>
       <path d="M 12.40625 8.296875 
L 28.515625 8.296875 
L 28.515625 63.921875 
L 10.984375 60.40625 
L 10.984375 69.390625 
L 28.421875 72.90625 
L 38.28125 72.90625 
L 38.28125 8.296875 
L 54.390625 8.296875 
L 54.390625 0 
L 12.40625 0 
z
" id="DejaVuSans-31"/>
      </defs>
      <g transform="translate(279.29375 399.078438)scale(0.1 -0.1)">
       <use xlink:href="#DejaVuSans-31"/>
       <use x="63.623047" xlink:href="#DejaVuSans-30"/>
       <use x="127.246094" xlink:href="#DejaVuSans-30"/>
       <use x="190.869141" xlink:href="#DejaVuSans-30"/>
       <use x="254.492188" xlink:href="#DejaVuSans-30"/>
      </g>
     </g>
    </g>
    <g id="xtick_6">
     <g id="line2d_11">
      <path clip-path="url(#p141f309bcc)" d="M 345.927273 384.48 
L 345.927273 51.84 
" style="fill:none;stroke:#b0b0b0;stroke-dasharray:5.12,1.28,0.8,1.28;stroke-dashoffset:0;stroke-width:0.8;"/>
     </g>
     <g id="line2d_12">
      <g>
       <use style="stroke:#000000;stroke-width:0.8;" x="345.927273" xlink:href="#m7eb6a1dcbf" y="384.48"/>
      </g>
     </g>
     <g id="text_6">
      <!-- 12500 -->
      <g transform="translate(330.021023 399.078438)scale(0.1 -0.1)">
       <use xlink:href="#DejaVuSans-31"/>
       <use x="63.623047" xlink:href="#DejaVuSans-32"/>
       <use x="127.246094" xlink:href="#DejaVuSans-35"/>
       <use x="190.869141" xlink:href="#DejaVuSans-30"/>
       <use x="254.492188" xlink:href="#DejaVuSans-30"/>
      </g>
     </g>
    </g>
    <g id="xtick_7">
     <g id="line2d_13">
      <path clip-path="url(#p141f309bcc)" d="M 396.654545 384.48 
L 396.654545 51.84 
" style="fill:none;stroke:#b0b0b0;stroke-dasharray:5.12,1.28,0.8,1.28;stroke-dashoffset:0;stroke-width:0.8;"/>
     </g>
     <g id="line2d_14">
      <g>
       <use style="stroke:#000000;stroke-width:0.8;" x="396.654545" xlink:href="#m7eb6a1dcbf" y="384.48"/>
      </g>
     </g>
     <g id="text_7">
      <!-- 15000 -->
      <g transform="translate(380.748295 399.078438)scale(0.1 -0.1)">
       <use xlink:href="#DejaVuSans-31"/>
       <use x="63.623047" xlink:href="#DejaVuSans-35"/>
       <use x="127.246094" xlink:href="#DejaVuSans-30"/>
       <use x="190.869141" xlink:href="#DejaVuSans-30"/>
       <use x="254.492188" xlink:href="#DejaVuSans-30"/>
      </g>
     </g>
    </g>
    <g id="xtick_8">
     <g id="line2d_15">
      <path clip-path="url(#p141f309bcc)" d="M 447.381818 384.48 
L 447.381818 51.84 
" style="fill:none;stroke:#b0b0b0;stroke-dasharray:5.12,1.28,0.8,1.28;stroke-dashoffset:0;stroke-width:0.8;"/>
     </g>
     <g id="line2d_16">
      <g>
       <use style="stroke:#000000;stroke-width:0.8;" x="447.381818" xlink:href="#m7eb6a1dcbf" y="384.48"/>
      </g>
     </g>
     <g id="text_8">
      <!-- 17500 -->
      <g transform="translate(431.475568 399.078438)scale(0.1 -0.1)">
       <use xlink:href="#DejaVuSans-31"/>
       <use x="63.623047" xlink:href="#DejaVuSans-37"/>
       <use x="127.246094" xlink:href="#DejaVuSans-35"/>
       <use x="190.869141" xlink:href="#DejaVuSans-30"/>
       <use x="254.492188" xlink:href="#DejaVuSans-30"/>
      </g>
     </g>
    </g>
    <g id="xtick_9">
     <g id="line2d_17">
      <path clip-path="url(#p141f309bcc)" d="M 498.109091 384.48 
L 498.109091 51.84 
" style="fill:none;stroke:#b0b0b0;stroke-dasharray:5.12,1.28,0.8,1.28;stroke-dashoffset:0;stroke-width:0.8;"/>
     </g>
     <g id="line2d_18">
      <g>
       <use style="stroke:#000000;stroke-width:0.8;" x="498.109091" xlink:href="#m7eb6a1dcbf" y="384.48"/>
      </g>
     </g>
     <g id="text_9">
      <!-- 20000 -->
      <g transform="translate(482.202841 399.078438)scale(0.1 -0.1)">
       <use xlink:href="#DejaVuSans-32"/>
       <use x="63.623047" xlink:href="#DejaVuSans-30"/>
       <use x="127.246094" xlink:href="#DejaVuSans-30"/>
       <use x="190.869141" xlink:href="#DejaVuSans-30"/>
       <use x="254.492188" xlink:href="#DejaVuSans-30"/>
      </g>
     </g>
    </g>
    <g id="text_10">
     <!-- Iteration -->
     <defs>
      <path d="M 9.8125 72.90625 
L 19.671875 72.90625 
L 19.671875 0 
L 9.8125 0 
z
" id="DejaVuSans-49"/>
      <path d="M 18.3125 70.21875 
L 18.3125 54.6875 
L 36.8125 54.6875 
L 36.8125 47.703125 
L 18.3125 47.703125 
L 18.3125 18.015625 
Q 18.3125 11.328125 20.140625 9.421875 
Q 21.96875 7.515625 27.59375 7.515625 
L 36.8125 7.515625 
L 36.8125 0 
L 27.59375 0 
Q 17.1875 0 13.234375 3.875 
Q 9.28125 7.765625 9.28125 18.015625 
L 9.28125 47.703125 
L 2.6875 47.703125 
L 2.6875 54.6875 
L 9.28125 54.6875 
L 9.28125 70.21875 
z
" id="DejaVuSans-74"/>
      <path d="M 56.203125 29.59375 
L 56.203125 25.203125 
L 14.890625 25.203125 
Q 15.484375 15.921875 20.484375 11.0625 
Q 25.484375 6.203125 34.421875 6.203125 
Q 39.59375 6.203125 44.453125 7.46875 
Q 49.3125 8.734375 54.109375 11.28125 
L 54.109375 2.78125 
Q 49.265625 0.734375 44.1875 -0.34375 
Q 39.109375 -1.421875 33.890625 -1.421875 
Q 20.796875 -1.421875 13.15625 6.1875 
Q 5.515625 13.8125 5.515625 26.8125 
Q 5.515625 40.234375 12.765625 48.109375 
Q 20.015625 56 32.328125 56 
Q 43.359375 56 49.78125 48.890625 
Q 56.203125 41.796875 56.203125 29.59375 
z
M 47.21875 32.234375 
Q 47.125 39.59375 43.09375 43.984375 
Q 39.0625 48.390625 32.421875 48.390625 
Q 24.90625 48.390625 20.390625 44.140625 
Q 15.875 39.890625 15.1875 32.171875 
z
" id="DejaVuSans-65"/>
      <path d="M 41.109375 46.296875 
Q 39.59375 47.171875 37.8125 47.578125 
Q 36.03125 48 33.890625 48 
Q 26.265625 48 22.1875 43.046875 
Q 18.109375 38.09375 18.109375 28.8125 
L 18.109375 0 
L 9.078125 0 
L 9.078125 54.6875 
L 18.109375 54.6875 
L 18.109375 46.1875 
Q 20.953125 51.171875 25.484375 53.578125 
Q 30.03125 56 36.53125 56 
Q 37.453125 56 38.578125 55.875 
Q 39.703125 55.765625 41.0625 55.515625 
z
" id="DejaVuSans-72"/>
      <path d="M 34.28125 27.484375 
Q 23.390625 27.484375 19.1875 25 
Q 14.984375 22.515625 14.984375 16.5 
Q 14.984375 11.71875 18.140625 8.90625 
Q 21.296875 6.109375 26.703125 6.109375 
Q 34.1875 6.109375 38.703125 11.40625 
Q 43.21875 16.703125 43.21875 25.484375 
L 43.21875 27.484375 
z
M 52.203125 31.203125 
L 52.203125 0 
L 43.21875 0 
L 43.21875 8.296875 
Q 40.140625 3.328125 35.546875 0.953125 
Q 30.953125 -1.421875 24.3125 -1.421875 
Q 15.921875 -1.421875 10.953125 3.296875 
Q 6 8.015625 6 15.921875 
Q 6 25.140625 12.171875 29.828125 
Q 18.359375 34.515625 30.609375 34.515625 
L 43.21875 34.515625 
L 43.21875 35.40625 
Q 43.21875 41.609375 39.140625 45 
Q 35.0625 48.390625 27.6875 48.390625 
Q 23 48.390625 18.546875 47.265625 
Q 14.109375 46.140625 10.015625 43.890625 
L 10.015625 52.203125 
Q 14.9375 54.109375 19.578125 55.046875 
Q 24.21875 56 28.609375 56 
Q 40.484375 56 46.34375 49.84375 
Q 52.203125 43.703125 52.203125 31.203125 
z
" id="DejaVuSans-61"/>
      <path d="M 9.421875 54.6875 
L 18.40625 54.6875 
L 18.40625 0 
L 9.421875 0 
z
M 9.421875 75.984375 
L 18.40625 75.984375 
L 18.40625 64.59375 
L 9.421875 64.59375 
z
" id="DejaVuSans-69"/>
      <path d="M 30.609375 48.390625 
Q 23.390625 48.390625 19.1875 42.75 
Q 14.984375 37.109375 14.984375 27.296875 
Q 14.984375 17.484375 19.15625 11.84375 
Q 23.34375 6.203125 30.609375 6.203125 
Q 37.796875 6.203125 41.984375 11.859375 
Q 46.1875 17.53125 46.1875 27.296875 
Q 46.1875 37.015625 41.984375 42.703125 
Q 37.796875 48.390625 30.609375 48.390625 
z
M 30.609375 56 
Q 42.328125 56 49.015625 48.375 
Q 55.71875 40.765625 55.71875 27.296875 
Q 55.71875 13.875 49.015625 6.21875 
Q 42.328125 -1.421875 30.609375 -1.421875 
Q 18.84375 -1.421875 12.171875 6.21875 
Q 5.515625 13.875 5.515625 27.296875 
Q 5.515625 40.765625 12.171875 48.375 
Q 18.84375 56 30.609375 56 
z
" id="DejaVuSans-6f"/>
      <path d="M 54.890625 33.015625 
L 54.890625 0 
L 45.90625 0 
L 45.90625 32.71875 
Q 45.90625 40.484375 42.875 44.328125 
Q 39.84375 48.1875 33.796875 48.1875 
Q 26.515625 48.1875 22.3125 43.546875 
Q 18.109375 38.921875 18.109375 30.90625 
L 18.109375 0 
L 9.078125 0 
L 9.078125 54.6875 
L 18.109375 54.6875 
L 18.109375 46.1875 
Q 21.34375 51.125 25.703125 53.5625 
Q 30.078125 56 35.796875 56 
Q 45.21875 56 50.046875 50.171875 
Q 54.890625 44.34375 54.890625 33.015625 
z
" id="DejaVuSans-6e"/>
     </defs>
     <g transform="translate(265.507969 415.795938)scale(0.14 -0.14)">
      <use xlink:href="#DejaVuSans-49"/>
      <use x="29.492188" xlink:href="#DejaVuSans-74"/>
      <use x="68.701172" xlink:href="#DejaVuSans-65"/>
      <use x="130.224609" xlink:href="#DejaVuSans-72"/>
      <use x="171.337891" xlink:href="#DejaVuSans-61"/>
      <use x="232.617188" xlink:href="#DejaVuSans-74"/>
      <use x="271.826172" xlink:href="#DejaVuSans-69"/>
      <use x="299.609375" xlink:href="#DejaVuSans-6f"/>
      <use x="360.791016" xlink:href="#DejaVuSans-6e"/>
     </g>
    </g>
   </g>
   <g id="matplotlib.axis_2">
    <g id="ytick_1">
     <g id="line2d_19">
      <path clip-path="url(#p141f309bcc)" d="M 72 369.36 
L 518.4 369.36 
" style="fill:none;stroke:#b0b0b0;stroke-dasharray:5.12,1.28,0.8,1.28;stroke-dashoffset:0;stroke-width:0.8;"/>
     </g>
     <g id="line2d_20">
      <defs>
       <path d="M 0 0 
L -3.5 0 
" id="mffe9b1dd39" style="stroke:#000000;stroke-width:0.8;"/>
      </defs>
      <g>
       <use style="stroke:#000000;stroke-width:0.8;" x="72" xlink:href="#mffe9b1dd39" y="369.36"/>
      </g>
     </g>
     <g id="text_11">
      <!-- 0 -->
      <g transform="translate(58.6375 373.159219)scale(0.1 -0.1)">
       <use xlink:href="#DejaVuSans-30"/>
      </g>
     </g>
    </g>
    <g id="ytick_2">
     <g id="line2d_21">
      <path clip-path="url(#p141f309bcc)" d="M 72 326.58146 
L 518.4 326.58146 
" style="fill:none;stroke:#b0b0b0;stroke-dasharray:5.12,1.28,0.8,1.28;stroke-dashoffset:0;stroke-width:0.8;"/>
     </g>
     <g id="line2d_22">
      <g>
       <use style="stroke:#000000;stroke-width:0.8;" x="72" xlink:href="#mffe9b1dd39" y="326.58146"/>
      </g>
     </g>
     <g id="text_12">
      <!-- 20 -->
      <g transform="translate(52.275 330.380679)scale(0.1 -0.1)">
       <use xlink:href="#DejaVuSans-32"/>
       <use x="63.623047" xlink:href="#DejaVuSans-30"/>
      </g>
     </g>
    </g>
    <g id="ytick_3">
     <g id="line2d_23">
      <path clip-path="url(#p141f309bcc)" d="M 72 283.802921 
L 518.4 283.802921 
" style="fill:none;stroke:#b0b0b0;stroke-dasharray:5.12,1.28,0.8,1.28;stroke-dashoffset:0;stroke-width:0.8;"/>
     </g>
     <g id="line2d_24">
      <g>
       <use style="stroke:#000000;stroke-width:0.8;" x="72" xlink:href="#mffe9b1dd39" y="283.802921"/>
      </g>
     </g>
     <g id="text_13">
      <!-- 40 -->
      <defs>
       <path d="M 37.796875 64.3125 
L 12.890625 25.390625 
L 37.796875 25.390625 
z
M 35.203125 72.90625 
L 47.609375 72.90625 
L 47.609375 25.390625 
L 58.015625 25.390625 
L 58.015625 17.1875 
L 47.609375 17.1875 
L 47.609375 0 
L 37.796875 0 
L 37.796875 17.1875 
L 4.890625 17.1875 
L 4.890625 26.703125 
z
" id="DejaVuSans-34"/>
      </defs>
      <g transform="translate(52.275 287.602139)scale(0.1 -0.1)">
       <use xlink:href="#DejaVuSans-34"/>
       <use x="63.623047" xlink:href="#DejaVuSans-30"/>
      </g>
     </g>
    </g>
    <g id="ytick_4">
     <g id="line2d_25">
      <path clip-path="url(#p141f309bcc)" d="M 72 241.024381 
L 518.4 241.024381 
" style="fill:none;stroke:#b0b0b0;stroke-dasharray:5.12,1.28,0.8,1.28;stroke-dashoffset:0;stroke-width:0.8;"/>
     </g>
     <g id="line2d_26">
      <g>
       <use style="stroke:#000000;stroke-width:0.8;" x="72" xlink:href="#mffe9b1dd39" y="241.024381"/>
      </g>
     </g>
     <g id="text_14">
      <!-- 60 -->
      <defs>
       <path d="M 33.015625 40.375 
Q 26.375 40.375 22.484375 35.828125 
Q 18.609375 31.296875 18.609375 23.390625 
Q 18.609375 15.53125 22.484375 10.953125 
Q 26.375 6.390625 33.015625 6.390625 
Q 39.65625 6.390625 43.53125 10.953125 
Q 47.40625 15.53125 47.40625 23.390625 
Q 47.40625 31.296875 43.53125 35.828125 
Q 39.65625 40.375 33.015625 40.375 
z
M 52.59375 71.296875 
L 52.59375 62.3125 
Q 48.875 64.0625 45.09375 64.984375 
Q 41.3125 65.921875 37.59375 65.921875 
Q 27.828125 65.921875 22.671875 59.328125 
Q 17.53125 52.734375 16.796875 39.40625 
Q 19.671875 43.65625 24.015625 45.921875 
Q 28.375 48.1875 33.59375 48.1875 
Q 44.578125 48.1875 50.953125 41.515625 
Q 57.328125 34.859375 57.328125 23.390625 
Q 57.328125 12.15625 50.6875 5.359375 
Q 44.046875 -1.421875 33.015625 -1.421875 
Q 20.359375 -1.421875 13.671875 8.265625 
Q 6.984375 17.96875 6.984375 36.375 
Q 6.984375 53.65625 15.1875 63.9375 
Q 23.390625 74.21875 37.203125 74.21875 
Q 40.921875 74.21875 44.703125 73.484375 
Q 48.484375 72.75 52.59375 71.296875 
z
" id="DejaVuSans-36"/>
      </defs>
      <g transform="translate(52.275 244.8236)scale(0.1 -0.1)">
       <use xlink:href="#DejaVuSans-36"/>
       <use x="63.623047" xlink:href="#DejaVuSans-30"/>
      </g>
     </g>
    </g>
    <g id="ytick_5">
     <g id="line2d_27">
      <path clip-path="url(#p141f309bcc)" d="M 72 198.245841 
L 518.4 198.245841 
" style="fill:none;stroke:#b0b0b0;stroke-dasharray:5.12,1.28,0.8,1.28;stroke-dashoffset:0;stroke-width:0.8;"/>
     </g>
     <g id="line2d_28">
      <g>
       <use style="stroke:#000000;stroke-width:0.8;" x="72" xlink:href="#mffe9b1dd39" y="198.245841"/>
      </g>
     </g>
     <g id="text_15">
      <!-- 80 -->
      <defs>
       <path d="M 31.78125 34.625 
Q 24.75 34.625 20.71875 30.859375 
Q 16.703125 27.09375 16.703125 20.515625 
Q 16.703125 13.921875 20.71875 10.15625 
Q 24.75 6.390625 31.78125 6.390625 
Q 38.8125 6.390625 42.859375 10.171875 
Q 46.921875 13.96875 46.921875 20.515625 
Q 46.921875 27.09375 42.890625 30.859375 
Q 38.875 34.625 31.78125 34.625 
z
M 21.921875 38.8125 
Q 15.578125 40.375 12.03125 44.71875 
Q 8.5 49.078125 8.5 55.328125 
Q 8.5 64.0625 14.71875 69.140625 
Q 20.953125 74.21875 31.78125 74.21875 
Q 42.671875 74.21875 48.875 69.140625 
Q 55.078125 64.0625 55.078125 55.328125 
Q 55.078125 49.078125 51.53125 44.71875 
Q 48 40.375 41.703125 38.8125 
Q 48.828125 37.15625 52.796875 32.3125 
Q 56.78125 27.484375 56.78125 20.515625 
Q 56.78125 9.90625 50.3125 4.234375 
Q 43.84375 -1.421875 31.78125 -1.421875 
Q 19.734375 -1.421875 13.25 4.234375 
Q 6.78125 9.90625 6.78125 20.515625 
Q 6.78125 27.484375 10.78125 32.3125 
Q 14.796875 37.15625 21.921875 38.8125 
z
M 18.3125 54.390625 
Q 18.3125 48.734375 21.84375 45.5625 
Q 25.390625 42.390625 31.78125 42.390625 
Q 38.140625 42.390625 41.71875 45.5625 
Q 45.3125 48.734375 45.3125 54.390625 
Q 45.3125 60.0625 41.71875 63.234375 
Q 38.140625 66.40625 31.78125 66.40625 
Q 25.390625 66.40625 21.84375 63.234375 
Q 18.3125 60.0625 18.3125 54.390625 
z
" id="DejaVuSans-38"/>
      </defs>
      <g transform="translate(52.275 202.04506)scale(0.1 -0.1)">
       <use xlink:href="#DejaVuSans-38"/>
       <use x="63.623047" xlink:href="#DejaVuSans-30"/>
      </g>
     </g>
    </g>
    <g id="ytick_6">
     <g id="line2d_29">
      <path clip-path="url(#p141f309bcc)" d="M 72 155.467301 
L 518.4 155.467301 
" style="fill:none;stroke:#b0b0b0;stroke-dasharray:5.12,1.28,0.8,1.28;stroke-dashoffset:0;stroke-width:0.8;"/>
     </g>
     <g id="line2d_30">
      <g>
       <use style="stroke:#000000;stroke-width:0.8;" x="72" xlink:href="#mffe9b1dd39" y="155.467301"/>
      </g>
     </g>
     <g id="text_16">
      <!-- 100 -->
      <g transform="translate(45.9125 159.26652)scale(0.1 -0.1)">
       <use xlink:href="#DejaVuSans-31"/>
       <use x="63.623047" xlink:href="#DejaVuSans-30"/>
       <use x="127.246094" xlink:href="#DejaVuSans-30"/>
      </g>
     </g>
    </g>
    <g id="ytick_7">
     <g id="line2d_31">
      <path clip-path="url(#p141f309bcc)" d="M 72 112.688762 
L 518.4 112.688762 
" style="fill:none;stroke:#b0b0b0;stroke-dasharray:5.12,1.28,0.8,1.28;stroke-dashoffset:0;stroke-width:0.8;"/>
     </g>
     <g id="line2d_32">
      <g>
       <use style="stroke:#000000;stroke-width:0.8;" x="72" xlink:href="#mffe9b1dd39" y="112.688762"/>
      </g>
     </g>
     <g id="text_17">
      <!-- 120 -->
      <g transform="translate(45.9125 116.48798)scale(0.1 -0.1)">
       <use xlink:href="#DejaVuSans-31"/>
       <use x="63.623047" xlink:href="#DejaVuSans-32"/>
       <use x="127.246094" xlink:href="#DejaVuSans-30"/>
      </g>
     </g>
    </g>
    <g id="ytick_8">
     <g id="line2d_33">
      <path clip-path="url(#p141f309bcc)" d="M 72 69.910222 
L 518.4 69.910222 
" style="fill:none;stroke:#b0b0b0;stroke-dasharray:5.12,1.28,0.8,1.28;stroke-dashoffset:0;stroke-width:0.8;"/>
     </g>
     <g id="line2d_34">
      <g>
       <use style="stroke:#000000;stroke-width:0.8;" x="72" xlink:href="#mffe9b1dd39" y="69.910222"/>
      </g>
     </g>
     <g id="text_18">
      <!-- 140 -->
      <g transform="translate(45.9125 73.709441)scale(0.1 -0.1)">
       <use xlink:href="#DejaVuSans-31"/>
       <use x="63.623047" xlink:href="#DejaVuSans-34"/>
       <use x="127.246094" xlink:href="#DejaVuSans-30"/>
      </g>
     </g>
    </g>
    <g id="text_19">
     <!-- $\lambda_{m} original[m.u/W]$ -->
     <defs>
      <path d="M 36.71875 67.4375 
L 48.828125 0 
L 39.3125 0 
L 31.84375 40.4375 
L 5.125 0 
L -4.390625 0 
L 29.734375 52.4375 
L 28.03125 62.109375 
Q 26.953125 68.265625 21.734375 68.265625 
L 17.046875 68.265625 
L 18.5 75.984375 
L 24.21875 75.875 
Q 35.203125 75.734375 36.71875 67.4375 
z
" id="DejaVuSans-Oblique-3bb"/>
      <path d="M 89.796875 33.015625 
L 83.40625 0 
L 74.421875 0 
L 80.71875 32.71875 
Q 81.109375 34.8125 81.296875 36.328125 
Q 81.5 37.84375 81.5 38.921875 
Q 81.5 43.3125 79.046875 45.75 
Q 76.609375 48.1875 72.21875 48.1875 
Q 65.671875 48.1875 60.546875 43.28125 
Q 55.421875 38.375 53.90625 30.515625 
L 47.90625 0 
L 38.921875 0 
L 45.3125 32.71875 
Q 45.703125 34.515625 45.890625 36.046875 
Q 46.09375 37.59375 46.09375 38.8125 
Q 46.09375 43.265625 43.65625 45.71875 
Q 41.21875 48.1875 36.921875 48.1875 
Q 30.28125 48.1875 25.140625 43.28125 
Q 20.015625 38.375 18.5 30.515625 
L 12.5 0 
L 3.515625 0 
L 14.203125 54.6875 
L 23.1875 54.6875 
L 21.484375 46.1875 
Q 25.140625 50.984375 30.046875 53.484375 
Q 34.96875 56 40.578125 56 
Q 46.53125 56 50.359375 52.875 
Q 54.203125 49.75 54.984375 44.1875 
Q 59.078125 49.953125 64.46875 52.96875 
Q 69.875 56 75.875 56 
Q 82.90625 56 86.734375 51.953125 
Q 90.578125 47.90625 90.578125 40.484375 
Q 90.578125 38.875 90.375 36.9375 
Q 90.1875 35.015625 89.796875 33.015625 
z
" id="DejaVuSans-Oblique-6d"/>
      <path d="M 25.390625 -1.421875 
Q 15.765625 -1.421875 10.171875 4.515625 
Q 4.59375 10.453125 4.59375 20.703125 
Q 4.59375 26.65625 6.515625 32.828125 
Q 8.453125 39.015625 11.53125 43.21875 
Q 16.359375 49.75 22.3125 52.875 
Q 28.265625 56 35.796875 56 
Q 45.125 56 50.859375 50.1875 
Q 56.59375 44.390625 56.59375 35.015625 
Q 56.59375 28.515625 54.6875 22.0625 
Q 52.78125 15.625 49.703125 11.375 
Q 44.921875 4.828125 38.96875 1.703125 
Q 33.015625 -1.421875 25.390625 -1.421875 
z
M 13.921875 21 
Q 13.921875 13.578125 17.015625 9.890625 
Q 20.125 6.203125 26.421875 6.203125 
Q 35.453125 6.203125 41.375 14.078125 
Q 47.3125 21.96875 47.3125 34.078125 
Q 47.3125 41.15625 44.140625 44.765625 
Q 40.96875 48.390625 34.8125 48.390625 
Q 29.734375 48.390625 25.78125 46.015625 
Q 21.828125 43.65625 18.703125 38.8125 
Q 16.40625 35.203125 15.15625 30.5625 
Q 13.921875 25.921875 13.921875 21 
z
" id="DejaVuSans-Oblique-6f"/>
      <path d="M 44.578125 46.390625 
Q 43.21875 47.125 41.453125 47.515625 
Q 39.703125 47.90625 37.703125 47.90625 
Q 30.515625 47.90625 25.140625 42.453125 
Q 19.78125 37.015625 18.015625 27.875 
L 12.5 0 
L 3.515625 0 
L 14.203125 54.6875 
L 23.1875 54.6875 
L 21.484375 46.1875 
Q 25.046875 50.921875 30 53.453125 
Q 34.96875 56 40.578125 56 
Q 42.046875 56 43.453125 55.828125 
Q 44.875 55.671875 46.296875 55.28125 
z
" id="DejaVuSans-Oblique-72"/>
      <path d="M 18.3125 75.984375 
L 27.296875 75.984375 
L 25.09375 64.59375 
L 16.109375 64.59375 
z
M 14.203125 54.6875 
L 23.1875 54.6875 
L 12.5 0 
L 3.515625 0 
z
" id="DejaVuSans-Oblique-69"/>
      <path d="M 59.625 54.6875 
L 50.296875 6.78125 
Q 47.609375 -7.125 40.015625 -13.953125 
Q 32.421875 -20.796875 19.578125 -20.796875 
Q 14.84375 -20.796875 10.78125 -20.09375 
Q 6.734375 -19.390625 3.21875 -17.921875 
L 4.890625 -9.1875 
Q 8.203125 -11.328125 11.90625 -12.34375 
Q 15.625 -13.375 19.828125 -13.375 
Q 28.375 -13.375 33.859375 -8.703125 
Q 39.359375 -4.046875 41.109375 4.6875 
L 41.890625 8.796875 
Q 38.140625 4.5 33.15625 2.25 
Q 28.171875 0 22.40625 0 
Q 14.109375 0 9.34375 5.484375 
Q 4.59375 10.984375 4.59375 20.609375 
Q 4.59375 28.171875 7.46875 35.421875 
Q 10.359375 42.671875 15.578125 48.296875 
Q 19.046875 52 23.65625 54 
Q 28.265625 56 33.296875 56 
Q 38.8125 56 42.90625 53.4375 
Q 47.015625 50.875 49.03125 46.1875 
L 50.59375 54.6875 
z
M 46.09375 34.625 
Q 46.09375 41.265625 42.96875 44.875 
Q 39.84375 48.484375 34.078125 48.484375 
Q 30.515625 48.484375 27.296875 47.0625 
Q 24.078125 45.65625 21.78125 43.109375 
Q 18.0625 38.921875 15.984375 33.234375 
Q 13.921875 27.546875 13.921875 21.484375 
Q 13.921875 14.75 17.0625 11.125 
Q 20.21875 7.515625 26.125 7.515625 
Q 34.671875 7.515625 40.375 15.25 
Q 46.09375 23 46.09375 34.625 
z
" id="DejaVuSans-Oblique-67"/>
      <path d="M 55.71875 33.015625 
L 49.3125 0 
L 40.28125 0 
L 46.6875 32.671875 
Q 47.125 34.96875 47.359375 36.71875 
Q 47.609375 38.484375 47.609375 39.5 
Q 47.609375 43.609375 45.015625 45.890625 
Q 42.4375 48.1875 37.796875 48.1875 
Q 30.5625 48.1875 25.34375 43.375 
Q 20.125 38.578125 18.5 30.328125 
L 12.5 0 
L 3.515625 0 
L 14.109375 54.6875 
L 23.09375 54.6875 
L 21.296875 46.09375 
Q 25.046875 50.828125 30.3125 53.40625 
Q 35.59375 56 41.40625 56 
Q 48.640625 56 52.609375 52.09375 
Q 56.59375 48.1875 56.59375 41.109375 
Q 56.59375 39.359375 56.375 37.359375 
Q 56.15625 35.359375 55.71875 33.015625 
z
" id="DejaVuSans-Oblique-6e"/>
      <path d="M 53.71875 31.203125 
L 47.609375 0 
L 38.625 0 
L 40.28125 8.296875 
Q 36.328125 3.421875 31.265625 1 
Q 26.21875 -1.421875 20.015625 -1.421875 
Q 13.03125 -1.421875 8.5625 2.84375 
Q 4.109375 7.125 4.109375 13.8125 
Q 4.109375 23.390625 11.75 28.953125 
Q 19.390625 34.515625 32.8125 34.515625 
L 45.3125 34.515625 
L 45.796875 36.921875 
Q 45.90625 37.3125 45.953125 37.765625 
Q 46 38.234375 46 39.203125 
Q 46 43.5625 42.453125 45.96875 
Q 38.921875 48.390625 32.515625 48.390625 
Q 28.125 48.390625 23.5 47.265625 
Q 18.890625 46.140625 14.015625 43.890625 
L 15.578125 52.203125 
Q 20.65625 54.109375 25.515625 55.046875 
Q 30.375 56 34.90625 56 
Q 44.578125 56 49.625 51.796875 
Q 54.6875 47.609375 54.6875 39.59375 
Q 54.6875 37.984375 54.4375 35.8125 
Q 54.203125 33.640625 53.71875 31.203125 
z
M 44 27.484375 
L 35.015625 27.484375 
Q 23.96875 27.484375 18.671875 24.53125 
Q 13.375 21.578125 13.375 15.375 
Q 13.375 11.078125 16.078125 8.640625 
Q 18.796875 6.203125 23.578125 6.203125 
Q 30.90625 6.203125 36.375 11.453125 
Q 41.84375 16.703125 43.609375 25.484375 
z
" id="DejaVuSans-Oblique-61"/>
      <path d="M 18.3125 75.984375 
L 27.296875 75.984375 
L 12.5 0 
L 3.515625 0 
z
" id="DejaVuSans-Oblique-6c"/>
      <path d="M 8.59375 75.984375 
L 29.296875 75.984375 
L 29.296875 69 
L 17.578125 69 
L 17.578125 -6.203125 
L 29.296875 -6.203125 
L 29.296875 -13.1875 
L 8.59375 -13.1875 
z
" id="DejaVuSans-5b"/>
      <path d="M 10.6875 12.40625 
L 21 12.40625 
L 21 0 
L 10.6875 0 
z
" id="DejaVuSans-2e"/>
      <path d="M 6.6875 21.6875 
L 13.09375 54.6875 
L 22.125 54.6875 
L 15.71875 22.015625 
Q 15.234375 19.625 15.015625 17.921875 
Q 14.796875 16.21875 14.796875 15.09375 
Q 14.796875 10.9375 17.328125 8.65625 
Q 19.875 6.390625 24.515625 6.390625 
Q 31.734375 6.390625 37 11.265625 
Q 42.28125 16.15625 43.890625 24.421875 
L 49.90625 54.6875 
L 58.890625 54.6875 
L 48.296875 0 
L 39.3125 0 
L 41.109375 8.59375 
Q 37.3125 3.8125 32.0625 1.1875 
Q 26.8125 -1.421875 20.90625 -1.421875 
Q 13.71875 -1.421875 9.71875 2.515625 
Q 5.71875 6.453125 5.71875 13.484375 
Q 5.71875 14.9375 5.953125 17.140625 
Q 6.203125 19.34375 6.6875 21.6875 
z
" id="DejaVuSans-Oblique-75"/>
      <path d="M 25.390625 72.90625 
L 33.6875 72.90625 
L 8.296875 -9.28125 
L 0 -9.28125 
z
" id="DejaVuSans-2f"/>
      <path d="M 9.625 72.90625 
L 19.1875 72.90625 
L 22.703125 10.890625 
L 50.203125 72.90625 
L 61.1875 72.90625 
L 64.796875 10.890625 
L 92 72.90625 
L 102 72.90625 
L 69.578125 0 
L 57.171875 0 
L 53.8125 60.796875 
L 26.515625 0 
L 14.109375 0 
z
" id="DejaVuSans-Oblique-57"/>
      <path d="M 30.421875 75.984375 
L 30.421875 -13.1875 
L 9.71875 -13.1875 
L 9.71875 -6.203125 
L 21.390625 -6.203125 
L 21.390625 69 
L 9.71875 69 
L 9.71875 75.984375 
z
" id="DejaVuSans-5d"/>
     </defs>
     <g transform="translate(38.9725 283.05)rotate(-90)scale(0.14 -0.14)">
      <use transform="translate(0 0.015625)" xlink:href="#DejaVuSans-Oblique-3bb"/>
      <use transform="translate(59.179688 -16.390625)scale(0.7)" xlink:href="#DejaVuSans-Oblique-6d"/>
      <use transform="translate(130.102539 0.015625)" xlink:href="#DejaVuSans-Oblique-6f"/>
      <use transform="translate(191.28418 0.015625)" xlink:href="#DejaVuSans-Oblique-72"/>
      <use transform="translate(232.397461 0.015625)" xlink:href="#DejaVuSans-Oblique-69"/>
      <use transform="translate(260.180664 0.015625)" xlink:href="#DejaVuSans-Oblique-67"/>
      <use transform="translate(323.657227 0.015625)" xlink:href="#DejaVuSans-Oblique-69"/>
      <use transform="translate(351.44043 0.015625)" xlink:href="#DejaVuSans-Oblique-6e"/>
      <use transform="translate(414.819336 0.015625)" xlink:href="#DejaVuSans-Oblique-61"/>
      <use transform="translate(476.098633 0.015625)" xlink:href="#DejaVuSans-Oblique-6c"/>
      <use transform="translate(503.881836 0.015625)" xlink:href="#DejaVuSans-5b"/>
      <use transform="translate(542.895508 0.015625)" xlink:href="#DejaVuSans-Oblique-6d"/>
      <use transform="translate(640.307617 0.015625)" xlink:href="#DejaVuSans-2e"/>
      <use transform="translate(691.577148 0.015625)" xlink:href="#DejaVuSans-Oblique-75"/>
      <use transform="translate(754.956055 0.015625)" xlink:href="#DejaVuSans-2f"/>
      <use transform="translate(788.647461 0.015625)" xlink:href="#DejaVuSans-Oblique-57"/>
      <use transform="translate(887.524414 0.015625)" xlink:href="#DejaVuSans-5d"/>
     </g>
    </g>
   </g>
   <g id="line2d_35">
    <path clip-path="url(#p141f309bcc)" d="M 92.290909 369.36 
L 92.432945 369.250487 
L 92.574982 368.911681 
L 93.082255 366.715858 
L 94.847564 357.625633 
L 96.754909 348.124733 
L 97.120145 347.851806 
L 102.274036 336.284489 
L 110.1672 318.670639 
L 113.434036 312.108411 
L 117.654545 304.164008 
L 122.6664 295.254736 
L 128.956582 284.601168 
L 135.977236 273.195982 
L 143.829818 260.986345 
L 150.809891 250.592657 
L 157.911709 240.45671 
L 165.054109 230.70855 
L 172.2168 221.378764 
L 179.501236 212.343295 
L 186.907418 203.616687 
L 195.348436 194.173538 
L 203.119855 185.858673 
L 210.911564 177.887748 
L 217.810473 171.135369 
L 224.770255 164.611428 
L 231.872073 158.248548 
L 239.237673 151.951333 
L 246.948218 145.674652 
L 252.954327 141.004947 
L 260.8272 135.169098 
L 269.065309 129.400412 
L 277.546909 123.811824 
L 286.332873 118.386008 
L 295.4232 113.148203 
L 302.362691 109.39845 
L 309.565964 105.726768 
L 319.894036 100.841673 
L 327.381382 97.569329 
L 335.355709 94.323935 
L 343.8576 91.126667 
L 352.602982 88.110138 
L 358.913455 86.098691 
L 367.983491 83.441716 
L 377.844873 80.853828 
L 384.764073 79.217335 
L 395.335636 76.990712 
L 402.7824 75.612387 
L 414.551127 73.739971 
L 422.566036 72.669224 
L 431.047636 71.708204 
L 439.935055 70.882792 
L 449.268873 70.206891 
L 459.109964 69.695688 
L 469.458327 69.370143 
L 480.435709 69.24908 
L 490.256509 69.325439 
L 497.926473 69.499976 
L 497.926473 69.499976 
" style="fill:none;stroke:#bf00bf;stroke-linecap:square;stroke-width:1.5;"/>
   </g>
   <g id="line2d_36">
    <path clip-path="url(#p141f309bcc)" d="M 92.290909 369.36 
L 92.392364 369.275726 
L 92.737309 367.982317 
L 93.589527 363.553669 
L 96.511418 348.10591 
L 96.734618 347.992761 
L 101.218909 337.068192 
L 106.230764 325.466224 
L 107.164145 323.578835 
L 109.599055 319.853465 
L 113.170255 313.999436 
L 119.196655 303.617512 
L 134.130764 277.865259 
L 140.9688 266.620065 
L 147.258982 256.685818 
L 154.462255 245.802958 
L 160.6104 236.926411 
L 166.961455 228.146757 
L 173.495127 219.517256 
L 180.231709 211.034486 
L 187.191491 202.698873 
L 193.684582 195.272305 
L 201.963273 186.18764 
L 208.578109 179.238053 
L 216.958255 170.827364 
L 225.419564 162.775587 
L 232.217018 156.621039 
L 239.298545 150.498146 
L 246.704727 144.396857 
L 254.374691 138.393531 
L 261.780873 132.892424 
L 269.187055 127.67387 
L 276.694691 122.664075 
L 283.187782 118.55263 
L 289.782327 114.581498 
L 296.559491 110.709399 
L 303.539564 106.936973 
L 310.661673 103.306572 
L 317.398255 100.070162 
L 325.5552 96.400405 
L 333.752727 92.977908 
L 341.970545 89.804596 
L 350.573891 86.748497 
L 359.501891 83.853673 
L 368.835709 81.11606 
L 378.595636 78.555551 
L 386.610545 76.673723 
L 396.025527 74.70698 
L 405.785455 72.933809 
L 414.814909 71.523187 
L 424.331345 70.264214 
L 431.737527 69.439016 
L 442.613455 68.461527 
L 454.057527 67.71825 
L 465.176945 67.260091 
L 475.038327 67.059246 
L 486.2592 67.051974 
L 498.007636 67.282122 
L 498.007636 67.282122 
" style="fill:none;stroke:#00bfbf;stroke-linecap:square;stroke-width:1.5;"/>
   </g>
   <g id="line2d_37">
    <path clip-path="url(#p141f309bcc)" d="M 92.290909 369.36 
L 92.392364 369.282357 
L 92.635855 368.265297 
L 93.041673 365.213048 
L 95.050473 349.023724 
L 95.963564 345.147988 
L 96.937527 342.006332 
L 97.465091 340.649397 
L 100.3464 333.170853 
L 101.705891 330.509172 
L 105.0336 324.295161 
L 107.569964 319.836354 
L 109.862836 316.307125 
L 112.196291 313.106434 
L 114.610909 310.164554 
L 117.269018 307.295611 
L 119.967709 304.709862 
L 122.930182 302.18764 
L 130.072582 296.606324 
L 133.704655 294.358097 
L 137.884582 292.034367 
L 142.267418 289.853517 
L 147.360436 287.583474 
L 152.981018 285.333965 
L 159.595855 282.94243 
L 166.271564 280.734416 
L 175.240145 277.99937 
L 187.516145 274.556125 
L 189.504655 273.907175 
L 198.047127 270.470561 
L 206.3664 267.334252 
L 216.532145 263.731444 
L 227.002255 260.251409 
L 234.854836 257.61561 
L 244.574182 254.088947 
L 254.963127 250.589662 
L 264.702764 247.552172 
L 274.949673 244.596389 
L 286.637236 241.508206 
L 297.634909 238.861498 
L 308.287636 236.523437 
L 318.656291 234.449319 
L 330.567055 232.298842 
L 342.193745 230.425142 
L 354.550909 228.663736 
L 367.435636 227.064246 
L 379.5696 225.765704 
L 392.393455 224.598491 
L 404.933236 223.64838 
L 419.5224 222.765217 
L 434.334764 222.095733 
L 457.973673 221.459188 
L 469.661236 221.32358 
L 488.815855 221.333205 
L 497.825018 221.430099 
L 497.825018 221.430099 
" style="fill:none;stroke:#ff0000;stroke-linecap:square;stroke-width:1.5;"/>
   </g>
   <g id="line2d_38">
    <path clip-path="url(#p141f309bcc)" d="M 92.290909 369.36 
L 92.412655 369.312302 
L 92.595273 368.674474 
L 92.940218 366.364433 
L 93.833018 358.503876 
L 94.705527 351.436647 
L 95.618618 347.031955 
L 96.491127 344.194241 
L 97.262182 342.968422 
L 100.508727 337.045733 
L 103.6944 331.889849 
L 106.291636 327.632529 
L 107.427927 325.986411 
L 125.223055 304.429449 
L 130.113164 298.268056 
L 136.180145 291.528297 
L 143.079055 284.272843 
L 149.2272 278.144175 
L 155.9232 271.80461 
L 161.685818 266.609584 
L 168.503564 260.756196 
L 174.245891 256.058685 
L 180.9216 250.851253 
L 188.104582 245.538586 
L 189.4032 244.474898 
L 195.084655 239.414197 
L 201.395127 234.106022 
L 208.517236 228.467596 
L 214.807418 223.76709 
L 220.8744 219.459505 
L 229.396582 213.753703 
L 237.654982 208.532155 
L 244.3104 204.523164 
L 251.533964 200.387977 
L 259.0416 196.320807 
L 266.873891 192.318019 
L 275.051127 188.390307 
L 283.634182 184.531255 
L 292.602764 180.775086 
L 302.078618 177.098912 
L 311.980582 173.563479 
L 320.563636 170.74031 
L 329.5728 168.007189 
L 339.048655 165.375667 
L 348.9912 162.870342 
L 357.371345 160.952794 
L 366.015273 159.152887 
L 375.065018 157.453509 
L 390.222327 155.009357 
L 399.718473 153.720226 
L 410.452364 152.474301 
L 421.247127 151.435638 
L 433.340509 150.512905 
L 447.138327 149.751447 
L 461.017309 149.277247 
L 476.154327 149.068915 
L 492.691418 149.179712 
L 497.946764 149.284091 
L 497.946764 149.284091 
" style="fill:none;stroke:#008000;stroke-linecap:square;stroke-width:1.5;"/>
   </g>
   <g id="line2d_39">
    <path clip-path="url(#p141f309bcc)" d="M 92.290909 369.36 
L 92.453236 369.262679 
L 92.635855 368.643032 
L 93.021382 366.142198 
L 94.0968 357.269715 
L 94.7664 352.554878 
L 95.780945 347.893301 
L 96.795491 344.597856 
L 97.262182 344.080022 
L 102.700145 334.815046 
L 106.8192 327.872731 
L 109.152655 324.106936 
L 112.6224 318.899076 
L 116.497964 313.455935 
L 121.144582 307.276147 
L 133.522036 291.408731 
L 140.035418 283.889975 
L 146.467636 276.802426 
L 153.386836 269.525369 
L 160.691564 262.214303 
L 166.758545 256.421447 
L 174.631418 249.26973 
L 182.788364 242.280145 
L 190.661236 235.581667 
L 196.809382 229.836937 
L 203.343055 224.063332 
L 210.627491 217.989421 
L 216.937964 213.009785 
L 223.776 207.886627 
L 231.202473 202.621872 
L 240.008727 196.722497 
L 246.948218 192.31973 
L 253.948582 188.096633 
L 262.146109 183.42158 
L 270.343636 179.02694 
L 279.068727 174.644707 
L 287.245964 170.802552 
L 295.788436 167.051516 
L 303.275782 163.975525 
L 314.415491 159.749861 
L 320.908582 157.472332 
L 330.749673 154.269716 
L 341.483564 151.104104 
L 352.765309 148.126932 
L 360.557018 146.269915 
L 368.693673 144.496745 
L 377.175273 142.821965 
L 386.022109 141.256057 
L 395.315345 139.801159 
L 405.054982 138.475879 
L 421.247127 136.698217 
L 432.934691 135.724578 
L 443.668582 135.043757 
L 456.330109 134.487636 
L 469.904727 134.16915 
L 484.595345 134.125088 
L 497.906182 134.334917 
L 497.906182 134.334917 
" style="fill:none;stroke:#0000ff;stroke-linecap:square;stroke-width:1.5;"/>
   </g>
   <g id="line2d_40">
    <path clip-path="url(#p141f309bcc)" d="M 92.290909 369.36 
L 92.412655 369.319574 
L 92.574982 368.799173 
L 92.859055 366.872214 
L 93.548945 360.283891 
L 94.685236 349.641018 
L 95.517164 345.667747 
L 96.146182 343.867199 
L 96.653455 342.818911 
L 97.262182 341.941095 
L 100.589891 336.918894 
L 103.369745 333.210637 
L 105.581455 330.185766 
L 107.4888 327.642796 
L 115.219636 319.170934 
L 122.909891 311.064614 
L 125.486836 308.245723 
L 130.234909 302.795309 
L 136.585964 296.658513 
L 142.774691 291.003832 
L 149.795345 284.935269 
L 155.862327 279.963974 
L 162.335127 274.920385 
L 169.234036 269.822252 
L 176.640218 264.649471 
L 183.478255 260.134196 
L 189.565527 256.089058 
L 194.841164 251.537849 
L 200.847273 246.680559 
L 207.076582 241.961873 
L 214.259564 236.874007 
L 220.671491 232.615189 
L 227.874764 228.115315 
L 236.396945 223.123701 
L 244.229236 218.793015 
L 251.8992 214.795147 
L 259.893818 210.874494 
L 268.253673 207.03127 
L 277.1208 203.226547 
L 286.4952 199.492622 
L 296.397164 195.853451 
L 303.478691 193.433255 
L 314.273455 190.022522 
L 325.879855 186.71125 
L 335.213673 184.300893 
L 346.820073 181.600711 
L 357.330764 179.424353 
L 365.548582 177.891598 
L 375.3288 176.251469 
L 385.880073 174.695186 
L 397.060364 173.274938 
L 408.930545 172.010191 
L 421.247127 170.946502 
L 433.969527 170.097348 
L 442.917818 169.642612 
L 457.506982 169.138467 
L 466.475564 168.965856 
L 483.012655 168.902543 
L 492.975491 169.013554 
L 497.926473 169.108094 
L 497.926473 169.108094 
" style="fill:none;stroke:#000000;stroke-linecap:square;stroke-width:1.5;"/>
   </g>
   <g id="line2d_41">
    <path clip-path="url(#p141f309bcc)" d="M 92.290909 369.36 
L 92.372073 369.254765 
L 92.574982 367.815481 
L 93.041673 362.655533 
L 94.888145 338.347484 
L 95.436 332.457307 
L 96.450545 332.449179 
L 104.181382 332.363408 
L 112.033964 321.626636 
L 117.816873 314.068737 
L 123.498327 306.981189 
L 130.965382 298.103359 
L 136.525091 291.826677 
L 142.267418 285.695443 
L 147.177818 280.731208 
L 153.183927 274.998669 
L 158.885673 269.889842 
L 163.836655 265.705459 
L 169.477527 261.210504 
L 175.463345 256.742927 
L 181.185382 252.747412 
L 187.252364 248.788258 
L 204.215564 238.368689 
L 214.848 232.109547 
L 222.558545 227.767098 
L 232.4808 222.454858 
L 242.240727 217.538107 
L 252.365891 212.75183 
L 262.146109 208.431839 
L 271.398764 204.616421 
L 279.576 201.460435 
L 286.799564 198.837682 
L 295.6464 195.831206 
L 304.980218 192.897882 
L 312.8328 190.613294 
L 325.088509 187.369397 
L 333.306327 185.404579 
L 342.031418 183.494945 
L 351.162327 181.683274 
L 360.739636 179.978763 
L 377.094109 177.505094 
L 386.610545 176.303659 
L 398.460436 175.036558 
L 411.162545 173.942925 
L 424.534255 173.067462 
L 439.042255 172.41402 
L 454.057527 172.036927 
L 468.443782 171.937681 
L 493.320436 172.31071 
L 497.987345 172.451023 
L 497.987345 172.451023 
" style="fill:none;stroke:#bfbf00;stroke-linecap:square;stroke-width:1.5;"/>
   </g>
   <g id="line2d_42">
    <path clip-path="url(#p141f309bcc)" d="M 92.290909 369.36 
L 92.412655 369.296688 
L 92.595273 368.468067 
L 92.919927 365.604258 
L 93.751855 355.809042 
L 94.725818 345.07334 
L 95.476582 340.275513 
L 95.862109 339.640465 
L 96.978109 338.317539 
L 98.398473 336.943064 
L 100.650764 334.934612 
L 103.4712 332.845522 
L 104.465455 332.026313 
L 108.1584 327.683222 
L 112.520945 323.15276 
L 117.471927 318.351725 
L 122.22 313.99965 
L 125.689745 310.746128 
L 130.234909 306.254382 
L 135.246764 302.172453 
L 140.786182 297.934383 
L 145.8792 294.260562 
L 152.1288 290.014792 
L 159.108873 285.583363 
L 165.399055 281.845802 
L 172.500873 277.893707 
L 179.541818 274.234217 
L 188.449527 269.944813 
L 189.200291 269.477671 
L 196.5456 264.349166 
L 203.363345 259.954526 
L 209.734691 256.122211 
L 217.059709 252.003707 
L 223.207855 248.758955 
L 231.060436 244.868247 
L 240.800073 240.319818 
L 252.264436 235.365422 
L 258.615491 232.807479 
L 268.213091 229.182212 
L 278.967273 225.44572 
L 290.350473 221.842484 
L 302.5656 218.35261 
L 310.905164 216.180744 
L 321.395564 213.677772 
L 334.544073 210.880911 
L 344.506909 208.998655 
L 355.342255 207.169445 
L 366.867491 205.459159 
L 379.184073 203.883411 
L 392.373164 202.46573 
L 406.5768 201.229644 
L 421.247127 200.245952 
L 435.268145 199.563206 
L 447.544145 199.156596 
L 467.571273 198.845382 
L 489.485455 198.956393 
L 497.967055 199.114032 
L 497.967055 199.114032 
" style="fill:none;stroke:#bf00bf;stroke-linecap:square;stroke-width:1.5;"/>
   </g>
   <g id="line2d_43">
    <path clip-path="url(#p141f309bcc)" d="M 92.290909 369.36 
L 92.392364 369.293693 
L 92.554691 368.616295 
L 92.838764 366.28187 
L 93.569236 358.003795 
L 94.604073 346.724805 
L 95.253382 343.627853 
L 95.638909 342.382569 
L 96.592582 340.720195 
L 98.033236 338.705112 
L 100.163782 335.92793 
L 101.584145 334.365229 
L 104.059636 331.940756 
L 104.850982 331.056951 
L 107.407636 328.206617 
L 111.06 324.816846 
L 114.955855 321.51477 
L 119.845964 317.685449 
L 125.7912 313.081837 
L 129.910255 309.454644 
L 134.536582 306.450949 
L 140.400655 302.934553 
L 145.838618 299.909469 
L 152.331709 296.544723 
L 160.164 292.788125 
L 166.961455 289.756838 
L 174.712582 286.525989 
L 183.1536 283.250436 
L 189.261164 280.817406 
L 194.049818 277.471697 
L 199.467491 273.96899 
L 205.0272 270.641675 
L 210.586909 267.546006 
L 217.019127 264.213772 
L 224.607927 260.57781 
L 234.428727 256.248194 
L 243.295855 252.536728 
L 249.849818 249.962101 
L 259.345964 246.476934 
L 269.937818 242.909417 
L 279.636873 239.916417 
L 289.599709 237.094744 
L 298.263927 234.835182 
L 312.873382 231.406268 
L 322.450691 229.399954 
L 333.164291 227.367118 
L 344.689527 225.414278 
L 357.046691 223.572662 
L 370.316945 221.866012 
L 384.642327 220.316573 
L 393.1848 219.527737 
L 408.342109 218.360952 
L 417.777382 217.775742 
L 435.775418 216.938352 
L 446.245527 216.607888 
L 468.159709 216.25689 
L 493.543636 216.3679 
L 498.068509 216.44041 
L 498.068509 216.44041 
" style="fill:none;stroke:#00bfbf;stroke-linecap:square;stroke-width:1.5;"/>
   </g>
   <g id="line2d_44">
    <path clip-path="url(#p141f309bcc)" d="M 92.290909 369.36 
L 92.412655 369.259898 
L 92.615564 368.318984 
L 92.9808 365.051987 
L 93.954764 353.78027 
L 94.604073 347.301032 
L 95.293964 344.000882 
L 95.6592 342.862117 
L 96.673745 341.047879 
L 97.952073 339.457801 
L 100.143491 336.819648 
L 102.152291 334.700827 
L 105.764073 330.928615 
L 107.894618 328.622852 
L 111.770182 324.937695 
L 116.376218 320.863253 
L 122.179418 316.023075 
L 125.182473 313.444599 
L 129.910255 308.817244 
L 134.455418 305.410789 
L 140.420945 301.208867 
L 146.285018 297.324148 
L 153.041891 293.110247 
L 160.732145 288.618929 
L 168.341236 284.46278 
L 176.254691 280.416999 
L 183.8232 276.79109 
L 189.18 274.18823 
L 195.084655 269.599162 
L 199.8936 266.136881 
L 205.534473 262.347344 
L 211.155055 258.824745 
L 217.404655 255.166538 
L 223.390473 251.886708 
L 231.161891 247.916217 
L 240.658036 243.384901 
L 249.423709 239.487562 
L 256.829891 236.407507 
L 266.163709 232.788229 
L 276.248291 229.184992 
L 287.185091 225.612984 
L 296.052218 222.956009 
L 307.131055 219.917663 
L 317.377964 217.368918 
L 328.050982 214.964764 
L 340.042909 212.549488 
L 350.634764 210.652687 
L 361.957091 208.855347 
L 374.050473 207.182706 
L 383.850982 206.003302 
L 393.935564 204.945388 
L 408.240655 203.699249 
L 419.806473 202.896296 
L 432.082473 202.230876 
L 450.364582 201.570589 
L 464.446473 201.310496 
L 480.293673 201.254242 
L 498.109091 201.464498 
L 498.109091 201.464498 
" style="fill:none;stroke:#ff0000;stroke-linecap:square;stroke-width:1.5;"/>
   </g>
   <g id="line2d_45">
    <path clip-path="url(#p141f309bcc)" d="M 92.290909 369.36 
L 92.331491 369.318933 
L 92.656145 366.980444 
L 93.102545 361.201491 
L 94.482327 342.218942 
L 94.827273 341.26113 
L 95.578036 339.879597 
L 96.612873 338.714096 
L 97.870909 336.441914 
L 99.352145 334.158823 
L 100.873964 332.210047 
L 102.537818 330.501686 
L 104.364 328.973422 
L 106.778618 327.069991 
L 108.442473 326.012292 
L 111.06 324.590547 
L 114.387709 323.058861 
L 119.135782 321.120352 
L 124.2288 319.27018 
L 125.527418 318.708926 
L 130.945091 316.408937 
L 135.145309 315.113175 
L 140.5224 313.709398 
L 146.467636 312.381552 
L 153.163636 311.083009 
L 162.822109 309.464911 
L 174.286473 307.804248 
L 188.977091 305.723928 
L 194.130982 302.165181 
L 198.371782 299.536226 
L 202.957527 296.954541 
L 207.9288 294.416704 
L 213.305891 291.929774 
L 219.068509 289.513856 
L 225.926836 286.918054 
L 232.9272 284.526092 
L 243.843709 281.037288 
L 252.589091 278.479559 
L 261.780873 276.025996 
L 271.9872 273.558102 
L 286.4952 270.459225 
L 296.458036 268.576113 
L 308.186182 266.586269 
L 321.415855 264.606693 
L 335.335418 262.796305 
L 349.295564 261.234032 
L 361.510691 260.056125 
L 376.586836 258.825601 
L 391.926764 257.804905 
L 403.066473 257.198519 
L 420.131127 256.471925 
L 439.468364 255.919441 
L 458.440364 255.629616 
L 479.867564 255.571223 
L 494.720509 255.681378 
L 497.906182 255.720093 
L 497.906182 255.720093 
" style="fill:none;stroke:#008000;stroke-linecap:square;stroke-width:1.5;"/>
   </g>
   <g id="line2d_46">
    <path clip-path="url(#p141f309bcc)" d="M 92.290909 369.36 
L 92.351782 369.262679 
L 92.473527 368.573517 
L 92.7576 365.580944 
L 93.548945 355.960478 
L 94.482327 344.962115 
L 94.827273 344.065263 
L 95.578036 342.71282 
L 96.491127 341.986868 
L 97.4448 341.423261 
L 100.184073 339.905906 
L 102.558109 338.817834 
L 106.109018 337.18241 
L 108.665673 336.037229 
L 114.123927 333.89873 
L 121.469236 331.306778 
L 124.249091 330.371211 
L 129.504436 325.499163 
L 130.620436 325.126348 
L 138.330982 322.856733 
L 147.279273 320.477604 
L 156.897164 318.15858 
L 167.468727 315.843191 
L 179.115709 313.531867 
L 188.936509 311.557209 
L 193.501964 308.174496 
L 197.621018 305.417847 
L 202.044436 302.723869 
L 206.893964 300.040371 
L 212.129018 297.412057 
L 217.465527 294.975392 
L 223.431055 292.496375 
L 230.0256 290.009873 
L 237.999927 287.269266 
L 246.643855 284.560956 
L 255.125455 282.142685 
L 264.357818 279.746659 
L 273.7728 277.528592 
L 283.958836 275.356084 
L 295.118836 273.218226 
L 306.36 271.293834 
L 318.778036 269.407728 
L 331.865673 267.665358 
L 345.075055 266.137309 
L 360.658473 264.60434 
L 374.638909 263.454239 
L 391.277455 262.337719 
L 403.066473 261.698821 
L 420.131127 260.978431 
L 435.714545 260.514497 
L 453.874909 260.1866 
L 473.922327 260.064681 
L 494.679927 260.175691 
L 498.048218 260.21462 
L 498.048218 260.21462 
" style="fill:none;stroke:#0000ff;stroke-linecap:square;stroke-width:1.5;"/>
   </g>
   <g id="line2d_47">
    <path clip-path="url(#p141f309bcc)" d="M 92.290909 369.36 
L 92.351782 369.288774 
L 92.514109 367.540415 
L 92.960509 359.768196 
L 94.482327 331.744402 
L 95.8824 331.722157 
L 138.0672 331.611147 
L 188.652436 331.432547 
L 191.432291 328.259662 
L 194.516509 325.045069 
L 197.925382 321.82085 
L 201.456 318.799402 
L 205.209818 315.895167 
L 208.862182 313.334444 
L 213.346473 310.499082 
L 217.445236 308.164016 
L 222.010691 305.810768 
L 227.002255 303.49431 
L 232.460509 301.2217 
L 238.385455 299.007911 
L 244.797382 296.846097 
L 252.183273 294.605144 
L 259.9344 292.496803 
L 269.552291 290.174998 
L 278.622327 288.239911 
L 288.0576 286.450698 
L 298.081309 284.765865 
L 309.139855 283.129372 
L 321.923127 281.488388 
L 333.854182 280.166103 
L 356.620582 278.117225 
L 372.163418 277.023164 
L 388.457018 276.103853 
L 404.933236 275.384104 
L 423.702327 274.793118 
L 442.572873 274.417737 
L 472.258473 274.215822 
L 493.543636 274.326405 
L 498.007636 274.373675 
L 498.007636 274.373675 
" style="fill:none;stroke:#000000;stroke-linecap:square;stroke-width:1.5;"/>
   </g>
   <g id="line2d_48">
    <path clip-path="url(#p141f309bcc)" d="M 92.290909 369.36 
L 92.351782 369.308666 
L 92.473527 368.674902 
L 92.777891 365.615594 
L 93.6504 353.118058 
L 94.076509 348.094788 
L 94.5432 345.325519 
L 95.050473 344.605129 
L 95.760655 343.940992 
L 96.349091 343.538018 
L 99.270982 333.214059 
L 100.508727 330.014438 
L 101.705891 327.49029 
L 102.903055 325.43029 
L 104.242255 323.55552 
L 105.9264 321.574232 
L 107.407636 320.17516 
L 109.152655 318.874051 
L 111.120873 317.706624 
L 113.373164 316.659834 
L 116.437091 315.522566 
L 120.535855 314.191726 
L 124.208509 313.2414 
L 125.831782 312.759714 
L 132.568364 310.722814 
L 135.693164 310.201344 
L 139.4064 309.818048 
L 144.032727 309.586188 
L 149.2272 309.546618 
L 156.268145 309.731849 
L 166.778836 310.280698 
L 188.977091 311.535392 
L 196.890545 309.312619 
L 203.403927 307.744786 
L 211.337673 306.099951 
L 219.7584 304.596713 
L 229.538618 303.079786 
L 242.037818 301.122882 
L 257.519782 298.623973 
L 269.552291 296.895079 
L 283.025455 295.181157 
L 300.597382 293.254411 
L 316.404 291.780049 
L 332.941091 290.467175 
L 351.933382 289.216117 
L 370.276364 288.239911 
L 389.715055 287.42883 
L 408.971127 286.829074 
L 429.3432 286.393161 
L 459.536073 286.079808 
L 497.967055 286.171996 
L 497.967055 286.171996 
" style="fill:none;stroke:#bfbf00;stroke-linecap:square;stroke-width:1.5;"/>
   </g>
   <g id="line2d_49">
    <path clip-path="url(#p141f309bcc)" d="M 92.290909 369.36 
L 92.351782 369.318077 
L 92.5344 368.210968 
L 93.325745 361.659649 
L 94.806982 349.557172 
L 94.888145 349.387769 
L 97.769455 335.982472 
L 100.326109 325.128273 
L 101.320364 322.438145 
L 103.816145 315.793568 
L 105.865527 310.927081 
L 107.752582 306.981189 
L 109.578764 303.661574 
L 111.2832 300.99476 
L 113.028218 298.674452 
L 114.732655 296.781716 
L 116.376218 295.2742 
L 118.060364 294.015014 
L 119.825673 292.969506 
L 121.651855 292.149014 
L 123.5592 291.541986 
L 125.608582 291.136873 
L 127.901455 290.922339 
L 130.721891 290.913997 
L 133.359709 291.121259 
L 136.200436 291.562092 
L 139.649891 292.363762 
L 143.241382 293.453117 
L 147.583636 295.034212 
L 152.615782 297.11603 
L 159.7176 300.30624 
L 176.822836 308.117601 
L 184.066691 311.203217 
L 191.696073 314.21996 
L 199.041382 316.812767 
L 205.270691 318.758121 
L 211.844945 320.583481 
L 220.996145 322.784651 
L 228.584945 324.351201 
L 232.886618 325.054908 
L 498.0888 325.067742 
L 498.0888 325.067742 
" style="fill:none;stroke:#bf00bf;stroke-linecap:square;stroke-width:1.5;"/>
   </g>
   <g id="line2d_50">
    <path clip-path="url(#p141f309bcc)" d="M 92.290909 369.36 
L 92.351782 369.32321 
L 92.432945 368.84516 
L 92.818473 364.165402 
L 93.954764 349.939826 
L 94.928727 349.886995 
L 96.267927 349.847639 
L 98.905745 333.279938 
L 100.143491 327.608573 
L 101.300073 323.275963 
L 102.416073 319.906511 
L 103.613236 316.993292 
L 104.8104 314.655445 
L 106.027855 312.74303 
L 107.326473 311.112526 
L 108.665673 309.782542 
L 110.045455 308.709014 
L 111.5064 307.834193 
L 113.149964 307.106102 
L 115.219636 306.460788 
L 118.831418 305.525863 
L 121.753309 305.001826 
L 124.654909 304.715851 
L 126.9072 304.398649 
L 132.791564 303.454954 
L 135.003273 303.471638 
L 137.823709 303.731517 
L 140.806473 304.22069 
L 144.276218 304.991559 
L 148.3344 306.089684 
L 154.604291 308.055358 
L 166.819418 312.293 
L 183.3768 317.93549 
L 191.980145 320.546906 
L 197.803636 322.002232 
L 204.986618 323.554023 
L 210.728945 324.651293 
L 220.062764 326.211212 
L 227.834182 327.327732 
L 234.611345 328.145444 
L 239.075345 328.434199 
L 244.777091 328.625419 
L 257.113964 328.800383 
L 277.648364 328.905832 
L 497.906182 328.948825 
L 497.906182 328.948825 
" style="fill:none;stroke:#00bfbf;stroke-linecap:square;stroke-width:1.5;"/>
   </g>
   <g id="line2d_51">
    <path clip-path="url(#p141f309bcc)" d="M 92.290909 369.36 
L 92.372073 369.324922 
L 92.473527 368.607739 
L 93.163418 359.846694 
L 93.4272 357.817922 
L 93.975055 355.798347 
L 95.070764 355.775675 
L 96.349091 355.670226 
L 98.297018 351.521777 
L 99.555055 349.459637 
L 100.894255 347.674703 
L 102.192873 346.317767 
L 103.532073 345.224562 
L 105.0336 344.280226 
L 106.758327 343.468075 
L 108.706255 342.805863 
L 110.958545 342.280329 
L 113.576073 341.89575 
L 114.326836 341.71223 
L 116.092145 339.759817 
L 117.816873 338.184284 
L 119.643055 336.813445 
L 121.590982 335.631688 
L 123.701236 334.622329 
L 126.785455 333.473297 
L 130.397236 332.371536 
L 132.791564 331.866749 
L 135.530836 331.515537 
L 138.716509 331.34592 
L 142.165964 331.383993 
L 146.285018 331.653712 
L 150.708436 332.137751 
L 156.795709 333.019417 
L 165.216436 334.462978 
L 193.136727 339.353635 
L 202.409673 340.609827 
L 217.465527 342.244181 
L 229.842982 343.307014 
L 236.376655 343.746991 
L 244.350982 344.05628 
L 255.713891 344.304609 
L 270.790036 344.511657 
L 310.255855 344.816668 
L 362.565818 344.981366 
L 446.225236 345.092376 
L 458.237455 345.108418 
L 498.027927 345.170447 
L 498.027927 345.170447 
" style="fill:none;stroke:#ff0000;stroke-linecap:square;stroke-width:1.5;"/>
   </g>
   <g id="line2d_52">
    <path clip-path="url(#p141f309bcc)" d="M 92.290909 369.36 
L 92.351782 369.273587 
L 92.5344 367.161183 
L 93.325745 358.317576 
L 94.259127 358.281214 
L 114.123927 358.182609 
L 114.367418 357.852573 
L 115.828364 355.357728 
L 117.289309 353.250885 
L 119.135782 351.040518 
L 120.8808 349.329163 
L 122.706982 347.856084 
L 124.715782 346.541285 
L 126.643418 345.519092 
L 129.118909 344.463959 
L 131.736436 343.588497 
L 134.455418 342.90404 
L 137.478764 342.375297 
L 140.806473 342.025583 
L 144.438545 341.86281 
L 148.922836 341.897461 
L 154.178182 342.170602 
L 161.117673 342.772924 
L 172.297964 344.023768 
L 202.024145 347.360494 
L 214.746545 348.428674 
L 228.828436 349.381139 
L 242.118982 350.058109 
L 252.183273 350.374884 
L 272.129236 350.778286 
L 304.939636 351.186393 
L 349.052073 351.48242 
L 430.580945 351.715136 
L 497.926473 351.820585 
L 497.926473 351.820585 
" style="fill:none;stroke:#008000;stroke-linecap:square;stroke-width:1.5;"/>
   </g>
   <g id="line2d_53">
    <path clip-path="url(#p141f309bcc)" d="M 92.290909 369.36 
L 92.412655 369.25284 
L 92.574982 367.987237 
L 93.305455 360.891988 
L 93.975055 356.253297 
L 94.259127 356.201749 
L 96.349091 356.01994 
L 97.140436 352.775616 
L 98.357891 348.48065 
L 99.595636 344.900728 
L 100.894255 341.831796 
L 102.050836 339.652871 
L 103.288582 337.790079 
L 104.546618 336.286414 
L 105.885818 335.021024 
L 107.346764 333.945358 
L 108.949745 333.046153 
L 110.694764 332.322126 
L 112.744145 331.726435 
L 114.935564 331.308703 
L 120.637309 330.518797 
L 124.431709 330.056789 
L 129.260945 323.923416 
L 129.727636 323.528784 
L 131.837891 323.350397 
L 135.064145 323.324088 
L 138.878836 323.554879 
L 142.9776 324.011326 
L 148.638764 324.869249 
L 156.349309 326.281797 
L 175.402473 330.099353 
L 185.710255 332.050697 
L 194.070109 333.436935 
L 203.667709 334.690774 
L 215.314691 335.929855 
L 227.773309 337.000388 
L 234.854836 337.486352 
L 243.153818 337.72527 
L 268.984145 337.886545 
L 498.068509 337.913709 
L 498.068509 337.913709 
" style="fill:none;stroke:#0000ff;stroke-linecap:square;stroke-width:1.5;"/>
   </g>
   <g id="line2d_54">
    <path clip-path="url(#p141f309bcc)" d="M 92.290909 369.36 
L 92.372073 369.303105 
L 92.473527 368.745486 
L 93.082255 364.030008 
L 93.8736 361.812368 
L 94.177964 361.666066 
L 96.389673 361.570456 
L 98.499927 358.787926 
L 99.920291 357.377517 
L 101.381236 356.232336 
L 102.882764 355.341259 
L 104.648073 354.566539 
L 106.636582 353.944753 
L 109.010618 353.44018 
L 111.770182 353.070574 
L 115.909527 352.77476 
L 121.7736 352.514667 
L 124.249091 352.394673 
L 129.545018 340.697951 
L 129.788509 340.657311 
L 134.800364 340.584374 
L 140.847055 340.737735 
L 149.247491 341.171295 
L 165.135273 342.263003 
L 192.446836 344.095422 
L 206.934545 344.748009 
L 226.170327 345.380703 
L 239.826109 345.653631 
L 259.569164 345.716301 
L 498.109091 345.708815 
L 498.109091 345.708815 
" style="fill:none;stroke:#000000;stroke-linecap:square;stroke-width:1.5;"/>
   </g>
   <g id="line2d_55">
    <path clip-path="url(#p141f309bcc)" d="M 92.290909 369.36 
L 92.392364 369.249417 
L 92.574982 367.587685 
L 93.4272 359.448426 
L 93.893891 358.301747 
L 498.068509 358.299822 
L 498.068509 358.299822 
" style="fill:none;stroke:#bfbf00;stroke-linecap:square;stroke-width:1.5;"/>
   </g>
   <g id="line2d_56">
    <path clip-path="url(#p141f309bcc)" d="M 92.290909 369.36 
L 92.412655 369.295191 
L 92.574982 367.976114 
L 93.325745 360.804292 
L 498.109091 360.804078 
L 498.109091 360.804078 
" style="fill:none;stroke:#bf00bf;stroke-linecap:square;stroke-width:1.5;"/>
   </g>
   <g id="line2d_57">
    <path clip-path="url(#p141f309bcc)" d="M 92.290909 369.36 
L 92.331491 369.305457 
L 92.432945 368.608381 
L 92.899636 364.671258 
L 103.755273 364.667836 
L 124.208509 364.575648 
L 125.446255 360.931344 
L 128.165236 353.455367 
L 129.484145 350.097679 
L 130.275491 350.083134 
L 498.048218 349.99608 
L 498.048218 349.99608 
" style="fill:none;stroke:#00bfbf;stroke-linecap:square;stroke-width:1.5;"/>
   </g>
   <g id="line2d_58">
    <path clip-path="url(#p141f309bcc)" d="M 92.290909 369.36 
L 92.351782 369.312516 
L 92.554691 368.429567 
L 93.021382 365.034234 
L 95.070764 348.844696 
L 96.349091 343.077507 
L 97.850618 337.29941 
L 100.386982 328.175603 
L 101.624727 325.161427 
L 104.1408 319.268683 
L 106.738036 313.779768 
L 108.564218 310.413525 
L 110.491855 307.299247 
L 112.3992 304.632647 
L 114.265964 302.394046 
L 116.132727 300.487621 
L 118.161818 298.742684 
L 120.089455 297.359654 
L 122.179418 296.123354 
L 124.411418 295.063943 
L 127.1304 293.979507 
L 129.565309 293.215697 
L 132.527782 292.580649 
L 135.287345 292.185162 
L 138.716509 291.923785 
L 142.348582 291.881006 
L 146.366182 292.055756 
L 151.053382 292.478622 
L 156.876873 293.224038 
L 168.219491 295.010042 
L 184.411636 297.59515 
L 190.0728 298.330727 
L 199.609527 298.976041 
L 209.0448 299.386715 
L 219.656945 299.613655 
L 231.202473 299.636114 
L 233.211273 299.512484 
L 251.128145 297.074535 
L 263.972291 295.516326 
L 279.312218 293.848605 
L 296.356582 292.222593 
L 312.771927 290.863305 
L 336.471709 289.2251 
L 357.553964 288.058102 
L 381.963927 287.010669 
L 401.301164 286.387814 
L 446.428145 285.546788 
L 484.047491 285.393427 
L 497.804727 285.441339 
L 497.804727 285.441339 
" style="fill:none;stroke:#ff0000;stroke-linecap:square;stroke-width:1.5;"/>
   </g>
   <g id="line2d_59">
    <path clip-path="url(#p141f309bcc)" d="M 92.290909 369.36 
L 92.453236 369.290913 
L 92.737309 368.203268 
L 93.589527 364.084337 
L 96.836073 347.881965 
L 96.856364 347.887526 
L 97.079564 347.87897 
L 97.789745 346.337445 
L 103.998764 332.323624 
L 109.781673 319.431455 
L 113.210836 312.495771 
L 116.944364 305.417847 
L 121.590982 297.077743 
L 127.272436 287.358673 
L 133.866982 276.521799 
L 140.319491 266.323823 
L 147.279273 255.743621 
L 153.224509 247.043321 
L 159.697309 237.923365 
L 166.230982 229.089596 
L 172.237091 221.296629 
L 178.263491 213.78921 
L 185.649382 205.008059 
L 192.629455 197.108574 
L 200.522618 188.537038 
L 207.462109 181.310673 
L 214.361018 174.414558 
L 221.3208 167.747095 
L 228.341455 161.312561 
L 235.504145 155.043152 
L 243.092945 148.709362 
L 250.864364 142.544118 
L 258.8184 136.563251 
L 265.007127 132.134603 
L 273.265527 126.523769 
L 279.657164 122.409543 
L 287.428582 117.668398 
L 295.321745 113.137936 
L 302.362691 109.331502 
L 309.586255 105.649767 
L 317.033018 102.083748 
L 324.743564 98.629381 
L 332.738182 95.294794 
L 341.037164 92.090039 
L 347.083855 89.914109 
L 355.585745 87.074255 
L 364.8384 84.264133 
L 374.496873 81.629831 
L 382.836436 79.590578 
L 391.581818 77.676024 
L 402.843273 75.533675 
L 414.530836 73.674947 
L 422.566036 72.60142 
L 431.027345 71.642539 
L 442.268509 70.62826 
L 454.057527 69.865732 
L 465.258109 69.410141 
L 474.916582 69.215499 
L 486.218618 69.207371 
L 498.068509 69.438589 
L 498.068509 69.438589 
" style="fill:none;stroke:#008000;stroke-linecap:square;stroke-width:1.5;"/>
   </g>
   <g id="line2d_60">
    <path clip-path="url(#p141f309bcc)" d="M 92.290909 369.36 
L 92.372073 369.286421 
L 92.635855 368.343796 
L 93.346036 364.765371 
L 96.552 347.850309 
L 96.7752 347.816514 
L 97.586836 345.813622 
L 102.050836 335.050756 
L 106.961236 323.762996 
L 107.204727 323.499266 
L 108.483055 321.559474 
L 111.810764 316.235043 
L 116.660291 307.995254 
L 136.342473 274.137965 
L 143.119636 263.134255 
L 149.348945 253.427591 
L 155.4768 244.263358 
L 161.685818 235.361358 
L 168.077455 226.591543 
L 174.631418 218.002896 
L 180.272291 210.928823 
L 186.034909 203.997416 
L 191.959855 197.160763 
L 199.426909 188.866219 
L 206.914255 180.900427 
L 213.569673 174.115109 
L 220.265673 167.56657 
L 227.002255 161.255666 
L 234.306982 154.721244 
L 241.165309 148.868284 
L 248.632364 142.794373 
L 254.557309 138.189905 
L 262.146109 132.563457 
L 269.836364 127.16395 
L 279.007855 121.109931 
L 287.6112 115.799831 
L 296.620364 110.608655 
L 304.270036 106.487157 
L 312.345818 102.412073 
L 320.665091 98.500403 
L 328.436509 95.09951 
L 336.471709 91.831657 
L 344.831564 88.690215 
L 353.191418 85.802663 
L 361.916509 83.049009 
L 372.163418 80.140282 
L 381.963927 77.672174 
L 392.413745 75.362347 
L 403.147636 73.318602 
L 412.927855 71.731732 
L 422.971855 70.361749 
L 431.473745 69.398163 
L 440.320582 68.577243 
L 449.593527 67.906689 
L 459.333164 67.401902 
L 469.620655 67.079138 
L 480.516873 66.960214 
L 492.123273 67.07101 
L 497.906182 67.213035 
L 497.906182 67.213035 
" style="fill:none;stroke:#0000ff;stroke-linecap:square;stroke-width:1.5;"/>
   </g>
   <g id="line2d_61">
    <path clip-path="url(#p141f309bcc)" d="M 92.290909 369.36 
L 92.351782 369.287063 
L 92.574982 367.634741 
L 93.102545 361.640826 
L 95.517164 332.43934 
L 104.221964 332.27892 
L 112.074545 321.541934 
L 118.932873 312.61662 
L 124.837527 305.325659 
L 132.284291 296.547717 
L 137.823709 290.370924 
L 143.261673 284.630044 
L 149.166327 278.751203 
L 155.233309 273.083046 
L 161.077091 267.965236 
L 167.184655 262.958222 
L 172.480582 258.885063 
L 177.999709 254.892542 
L 183.234764 251.331014 
L 190.336582 246.822156 
L 211.865236 233.78946 
L 222.457091 227.776937 
L 229.437164 224.004083 
L 238.913018 219.134816 
L 248.9976 214.26234 
L 259.082182 209.707067 
L 266.041964 206.747006 
L 276.126545 202.72069 
L 286.7184 198.819501 
L 295.626109 195.791209 
L 304.980218 192.851039 
L 316.951855 189.433248 
L 329.248145 186.30742 
L 337.628291 184.389444 
L 351.710182 181.533763 
L 360.780218 179.925504 
L 370.398109 178.407079 
L 381.761018 176.848657 
L 392.758691 175.569365 
L 404.7912 174.412633 
L 417.696218 173.435571 
L 431.615782 172.666413 
L 439.975636 172.337019 
L 454.057527 171.992437 
L 468.423491 171.893619 
L 481.247345 172.004629 
L 491.8392 172.227292 
L 497.8656 172.404181 
L 497.8656 172.404181 
" style="fill:none;stroke:#000000;stroke-linecap:square;stroke-width:1.5;"/>
   </g>
   <g id="line2d_62">
    <path clip-path="url(#p141f309bcc)" d="M 92.290909 369.36 
L 92.331491 369.36 
L 92.453236 368.086697 
L 92.899636 360.54484 
L 94.482327 331.654353 
L 97.323055 331.64537 
L 188.591564 331.553824 
L 191.533745 328.190789 
L 194.557091 325.040363 
L 198.006545 321.77743 
L 201.598036 318.707856 
L 205.270691 315.869286 
L 209.166545 313.14579 
L 213.245018 310.569453 
L 217.5264 308.125729 
L 221.665745 305.982738 
L 226.413818 303.753762 
L 230.877818 301.8514 
L 237.512945 299.312922 
L 244.330691 296.986625 
L 251.736873 294.721929 
L 260.685164 292.290397 
L 269.633455 290.140989 
L 276.755564 288.603101 
L 284.526982 287.077832 
L 298.750909 284.641594 
L 309.200727 283.101566 
L 322.004291 281.45887 
L 333.164291 280.217651 
L 345.663491 279.011724 
L 355.808945 278.160645 
L 370.398109 277.116207 
L 386.651127 276.175079 
L 403.147636 275.432871 
L 421.247127 274.838036 
L 440.969891 274.422442 
L 472.846909 274.197427 
L 493.604509 274.308438 
L 497.885891 274.353997 
L 497.885891 274.353997 
" style="fill:none;stroke:#bfbf00;stroke-linecap:square;stroke-width:1.5;"/>
   </g>
   <g id="line2d_63">
    <path clip-path="url(#p141f309bcc)" d="M 92.290909 369.36 
L 92.351782 369.275726 
L 92.717018 366.658749 
L 94.076509 354.857861 
L 94.827273 349.14714 
L 94.908436 349.060941 
L 96.288218 342.509622 
L 99.6768 327.607717 
L 100.488436 324.689579 
L 101.198618 322.64284 
L 103.734982 315.853886 
L 105.906109 310.683885 
L 107.712 306.900551 
L 109.578764 303.494952 
L 111.080291 301.119673 
L 112.906473 298.647288 
L 114.550036 296.788132 
L 116.274764 295.176665 
L 117.999491 293.872133 
L 119.744509 292.827267 
L 121.570691 291.995653 
L 123.437455 291.389481 
L 125.425964 290.980946 
L 127.739127 290.750155 
L 130.356655 290.724702 
L 133.136509 290.923409 
L 135.287345 291.227778 
L 138.330982 291.8609 
L 141.881891 292.854646 
L 145.919782 294.246873 
L 150.647564 296.13191 
L 157.059491 298.955935 
L 182.504291 310.457373 
L 189.606109 313.333802 
L 196.038327 315.712717 
L 202.612582 317.88223 
L 209.0448 319.766411 
L 216.248073 321.628347 
L 223.431055 323.256712 
L 231.669164 324.880158 
L 232.785164 324.99181 
L 497.825018 324.99181 
L 497.825018 324.99181 
" style="fill:none;stroke:#bf00bf;stroke-linecap:square;stroke-width:1.5;"/>
   </g>
   <g id="line2d_64">
    <path clip-path="url(#p141f309bcc)" d="M 92.290909 369.36 
L 92.351782 369.285565 
L 92.473527 368.276633 
L 93.041673 360.716596 
L 93.914182 349.848708 
L 96.267927 349.848494 
L 96.592582 347.268307 
L 97.789745 339.242839 
L 99.0072 332.553344 
L 100.265236 326.874707 
L 101.381236 322.763262 
L 102.537818 319.331139 
L 103.6944 316.567432 
L 104.891564 314.264663 
L 106.129309 312.355029 
L 107.367055 310.825055 
L 108.706255 309.51047 
L 110.106327 308.438012 
L 111.628145 307.549502 
L 113.271709 306.84772 
L 115.321091 306.230426 
L 118.851709 305.339776 
L 121.875055 304.815525 
L 129.342109 303.762318 
L 131.472655 303.409823 
L 133.582909 303.303518 
L 136.119273 303.414314 
L 138.939709 303.763173 
L 142.328291 304.411054 
L 146.427055 305.432178 
L 151.4592 306.924935 
L 158.358109 309.221715 
L 188.226327 319.38996 
L 193.4208 320.862611 
L 200.887855 322.637279 
L 210.769527 324.607231 
L 220.285964 326.200303 
L 232.419927 327.878933 
L 235.991127 328.219664 
L 241.104436 328.485747 
L 249.565745 328.687234 
L 279.3528 328.890218 
L 498.068509 328.943263 
L 498.068509 328.943263 
" style="fill:none;stroke:#00bfbf;stroke-linecap:square;stroke-width:1.5;"/>
   </g>
   <g id="line2d_65">
    <path clip-path="url(#p141f309bcc)" d="M 92.290909 369.36 
L 92.331491 369.36 
L 92.574982 366.363149 
L 93.305455 358.300464 
L 104.019055 358.298539 
L 114.225382 358.196512 
L 115.503709 355.934597 
L 117.045818 353.618781 
L 118.669091 351.581881 
L 120.393818 349.785182 
L 122.240291 348.203873 
L 124.167927 346.859771 
L 126.278182 345.676517 
L 128.489891 344.680205 
L 131.188582 343.717688 
L 134.130764 342.932915 
L 137.1744 342.372089 
L 140.420945 342.005263 
L 143.910982 341.821957 
L 147.705382 341.812759 
L 152.940436 342.034138 
L 159.453818 342.55732 
L 168.462982 343.523473 
L 203.0184 347.419101 
L 222.700582 348.96747 
L 232.135855 349.552681 
L 246.258327 350.186017 
L 262.775127 350.597332 
L 284.953091 350.953892 
L 341.503855 351.439 
L 366.725455 351.550011 
L 411.304582 351.674068 
L 475.565891 351.785079 
L 486.2592 351.801121 
L 498.109091 351.81866 
L 498.109091 351.81866 
" style="fill:none;stroke:#ff0000;stroke-linecap:square;stroke-width:1.5;"/>
   </g>
   <g id="line2d_66">
    <path clip-path="url(#p141f309bcc)" d="M 92.290909 369.36 
L 92.351782 369.319146 
L 92.453236 368.574372 
L 92.798182 364.276198 
L 92.899636 364.403037 
L 93.204 364.608801 
L 93.833018 364.661633 
L 104.850982 364.66698 
L 124.249091 364.563884 
L 127.455055 355.445424 
L 129.504436 350.216603 
L 497.967055 350.214678 
L 497.967055 350.214678 
" style="fill:none;stroke:#008000;stroke-linecap:square;stroke-width:1.5;"/>
   </g>
   <g id="line2d_67">
    <path clip-path="url(#p141f309bcc)" d="M 92.290909 369.36 
L 92.372073 369.281715 
L 92.7576 368.113433 
L 93.630109 363.876647 
L 96.754909 348.340978 
L 96.978109 348.331781 
L 97.241891 347.548078 
L 105.459709 328.999089 
L 109.781673 319.431455 
L 113.210836 312.495771 
L 116.944364 305.417847 
L 121.590982 297.077743 
L 127.272436 287.358673 
L 133.866982 276.521799 
L 140.319491 266.323823 
L 147.279273 255.743621 
L 154.076727 245.821566 
L 160.306036 237.084691 
L 166.839709 228.285573 
L 173.413964 219.806011 
L 180.738982 210.79514 
L 186.866836 203.604495 
L 193.644 195.986065 
L 200.542909 188.515434 
L 209.227418 179.51868 
L 216.653891 172.18601 
L 223.938327 165.314066 
L 231.932945 158.132618 
L 239.257964 151.871123 
L 246.968509 145.594656 
L 254.8008 139.54299 
L 262.146109 134.157814 
L 269.836364 128.812635 
L 277.506327 123.77204 
L 285.115418 119.050144 
L 293.008582 114.436479 
L 299.988655 110.590688 
L 307.151345 106.865961 
L 314.537236 103.253313 
L 322.126036 99.775418 
L 330.059782 96.384363 
L 338.237018 93.142605 
L 346.738909 90.034744 
L 355.606036 87.067839 
L 361.977382 85.102593 
L 370.377818 82.716833 
L 379.529018 80.373853 
L 388.0512 78.421868 
L 399.069164 76.212356 
L 406.5768 74.900553 
L 418.609309 73.109843 
L 428.085164 71.956533 
L 435.673964 71.188231 
L 444.561382 70.456504 
L 454.057527 69.865732 
L 465.258109 69.410141 
L 474.916582 69.215499 
L 486.218618 69.207371 
L 497.8656 69.4326 
L 497.8656 69.4326 
" style="fill:none;stroke:#0000ff;stroke-linecap:square;stroke-width:1.5;"/>
   </g>
   <g id="line2d_68">
    <path clip-path="url(#p141f309bcc)" d="M 92.290909 369.36 
L 92.372073 369.286421 
L 92.635855 368.343796 
L 93.346036 364.765371 
L 96.450545 348.342476 
L 96.694036 348.219701 
L 96.917236 347.486049 
L 100.001455 339.921092 
L 104.8104 328.649161 
L 107.164145 323.510389 
L 107.569964 322.941648 
L 110.491855 318.390653 
L 114.448582 311.798908 
L 122.098255 298.515744 
L 131.858182 281.660144 
L 138.817964 270.06609 
L 145.229891 259.801807 
L 151.378036 250.350958 
L 157.526182 241.282763 
L 163.796073 232.422258 
L 170.228291 223.728376 
L 176.863418 215.169031 
L 183.701455 206.76861 
L 190.904727 198.360702 
L 198.615273 189.750879 
L 205.270691 182.618841 
L 212.433382 175.253873 
L 220.285964 167.547105 
L 226.981964 161.274274 
L 234.286691 154.738997 
L 241.165309 148.868284 
L 248.632364 142.794373 
L 254.557309 138.189905 
L 262.146109 132.563457 
L 269.836364 127.16395 
L 279.007855 121.109931 
L 287.6112 115.799831 
L 296.620364 110.608655 
L 304.270036 106.487157 
L 312.345818 102.412073 
L 320.665091 98.500403 
L 328.436509 95.09951 
L 336.471709 91.831657 
L 344.831564 88.690215 
L 353.191418 85.802663 
L 361.916509 83.049009 
L 372.163418 80.140282 
L 381.963927 77.672174 
L 392.413745 75.362347 
L 403.147636 73.318602 
L 412.927855 71.731732 
L 422.971855 70.361749 
L 431.473745 69.398163 
L 440.320582 68.577243 
L 449.593527 67.906689 
L 459.333164 67.401902 
L 469.620655 67.079138 
L 480.516873 66.960214 
L 492.102982 67.070796 
L 497.825018 67.210682 
L 497.825018 67.210682 
" style="fill:none;stroke:#000000;stroke-linecap:square;stroke-width:1.5;"/>
   </g>
   <g id="line2d_69">
    <path clip-path="url(#p141f309bcc)" d="M 92.290909 369.36 
L 92.351782 369.275726 
L 92.717018 366.658749 
L 94.076509 354.857861 
L 94.685236 349.851489 
L 94.827273 349.848708 
L 95.415709 346.630692 
L 97.302764 337.918843 
L 100.163782 325.601404 
L 100.508727 324.564452 
L 105.337964 311.972803 
L 107.103273 308.122093 
L 109.071491 304.369987 
L 110.958545 301.300627 
L 112.581818 299.054753 
L 114.408 296.935718 
L 116.092145 295.332165 
L 117.938618 293.913415 
L 119.683636 292.859351 
L 121.469236 292.035223 
L 123.396873 291.400175 
L 125.405673 290.98394 
L 127.718836 290.751225 
L 130.356655 290.724702 
L 133.1568 290.925547 
L 136.038109 291.362958 
L 139.122327 292.060462 
L 142.612364 293.088003 
L 146.528509 294.476166 
L 151.520073 296.50173 
L 158.134909 299.44746 
L 181.611491 310.08135 
L 189.606109 313.333802 
L 196.038327 315.712717 
L 202.612582 317.88223 
L 209.0448 319.766411 
L 216.248073 321.628347 
L 223.431055 323.256712 
L 231.648873 324.876308 
L 232.785164 325.014055 
L 301.6728 325.048277 
L 497.906182 325.061539 
L 497.906182 325.061539 
" style="fill:none;stroke:#bfbf00;stroke-linecap:square;stroke-width:1.5;"/>
   </g>
   <g id="patch_3">
    <path d="M 72 384.48 
L 72 51.84 
" style="fill:none;stroke:#000000;stroke-linecap:square;stroke-linejoin:miter;stroke-width:0.8;"/>
   </g>
   <g id="patch_4">
    <path d="M 518.4 384.48 
L 518.4 51.84 
" style="fill:none;stroke:#000000;stroke-linecap:square;stroke-linejoin:miter;stroke-width:0.8;"/>
   </g>
   <g id="patch_5">
    <path d="M 72 384.48 
L 518.4 384.48 
" style="fill:none;stroke:#000000;stroke-linecap:square;stroke-linejoin:miter;stroke-width:0.8;"/>
   </g>
   <g id="patch_6">
    <path d="M 72 51.84 
L 518.4 51.84 
" style="fill:none;stroke:#000000;stroke-linecap:square;stroke-linejoin:miter;stroke-width:0.8;"/>
   </g>
   <g id="text_20">
    <!-- $\lambda_{m} original$ -->
    <g transform="translate(259.92 45.84)scale(0.14 -0.14)">
     <use transform="translate(0 0.015625)" xlink:href="#DejaVuSans-Oblique-3bb"/>
     <use transform="translate(59.179688 -16.390625)scale(0.7)" xlink:href="#DejaVuSans-Oblique-6d"/>
     <use transform="translate(130.102539 0.015625)" xlink:href="#DejaVuSans-Oblique-6f"/>
     <use transform="translate(191.28418 0.015625)" xlink:href="#DejaVuSans-Oblique-72"/>
     <use transform="translate(232.397461 0.015625)" xlink:href="#DejaVuSans-Oblique-69"/>
     <use transform="translate(260.180664 0.015625)" xlink:href="#DejaVuSans-Oblique-67"/>
     <use transform="translate(323.657227 0.015625)" xlink:href="#DejaVuSans-Oblique-69"/>
     <use transform="translate(351.44043 0.015625)" xlink:href="#DejaVuSans-Oblique-6e"/>
     <use transform="translate(414.819336 0.015625)" xlink:href="#DejaVuSans-Oblique-61"/>
     <use transform="translate(476.098633 0.015625)" xlink:href="#DejaVuSans-Oblique-6c"/>
    </g>
   </g>
  </g>
 </g>
 <defs>
  <clipPath id="p141f309bcc">
   <rect height="332.64" width="446.4" x="72" y="51.84"/>
  </clipPath>
 </defs>
</svg>
