<?xml version="1.0" encoding="utf-8" standalone="no"?>
<!DOCTYPE svg PUBLIC "-//W3C//DTD SVG 1.1//EN"
  "http://www.w3.org/Graphics/SVG/1.1/DTD/svg11.dtd">
<!-- Created with matplotlib (http://matplotlib.org/) -->
<svg height="432pt" version="1.1" viewBox="0 0 576 432" width="576pt" xmlns="http://www.w3.org/2000/svg" xmlns:xlink="http://www.w3.org/1999/xlink">
 <defs>
  <style type="text/css">
*{stroke-linecap:butt;stroke-linejoin:round;}
  </style>
 </defs>
 <g id="figure_1">
  <g id="patch_1">
   <path d="M 0 432 
L 576 432 
L 576 0 
L 0 0 
z
" style="fill:#ffffff;"/>
  </g>
  <g id="axes_1">
   <g id="patch_2">
    <path d="M 72 384.48 
L 518.4 384.48 
L 518.4 51.84 
L 72 51.84 
z
" style="fill:#ffffff;"/>
   </g>
   <g id="matplotlib.axis_1">
    <g id="xtick_1">
     <g id="line2d_1">
      <path clip-path="url(#p66c889360d)" d="M 92.290909 384.48 
L 92.290909 51.84 
" style="fill:none;stroke:#b0b0b0;stroke-dasharray:5.12,1.28,0.8,1.28;stroke-dashoffset:0;stroke-width:0.8;"/>
     </g>
     <g id="line2d_2">
      <defs>
       <path d="M 0 0 
L 0 3.5 
" id="m17c48bb8f4" style="stroke:#000000;stroke-width:0.8;"/>
      </defs>
      <g>
       <use style="stroke:#000000;stroke-width:0.8;" x="92.290909" xlink:href="#m17c48bb8f4" y="384.48"/>
      </g>
     </g>
     <g id="text_1">
      <!-- 0 -->
      <defs>
       <path d="M 31.78125 66.40625 
Q 24.171875 66.40625 20.328125 58.90625 
Q 16.5 51.421875 16.5 36.375 
Q 16.5 21.390625 20.328125 13.890625 
Q 24.171875 6.390625 31.78125 6.390625 
Q 39.453125 6.390625 43.28125 13.890625 
Q 47.125 21.390625 47.125 36.375 
Q 47.125 51.421875 43.28125 58.90625 
Q 39.453125 66.40625 31.78125 66.40625 
z
M 31.78125 74.21875 
Q 44.046875 74.21875 50.515625 64.515625 
Q 56.984375 54.828125 56.984375 36.375 
Q 56.984375 17.96875 50.515625 8.265625 
Q 44.046875 -1.421875 31.78125 -1.421875 
Q 19.53125 -1.421875 13.0625 8.265625 
Q 6.59375 17.96875 6.59375 36.375 
Q 6.59375 54.828125 13.0625 64.515625 
Q 19.53125 74.21875 31.78125 74.21875 
z
" id="DejaVuSans-30"/>
      </defs>
      <g transform="translate(89.109659 399.078438)scale(0.1 -0.1)">
       <use xlink:href="#DejaVuSans-30"/>
      </g>
     </g>
    </g>
    <g id="xtick_2">
     <g id="line2d_3">
      <path clip-path="url(#p66c889360d)" d="M 146.436097 384.48 
L 146.436097 51.84 
" style="fill:none;stroke:#b0b0b0;stroke-dasharray:5.12,1.28,0.8,1.28;stroke-dashoffset:0;stroke-width:0.8;"/>
     </g>
     <g id="line2d_4">
      <g>
       <use style="stroke:#000000;stroke-width:0.8;" x="146.436097" xlink:href="#m17c48bb8f4" y="384.48"/>
      </g>
     </g>
     <g id="text_2">
      <!-- 200 -->
      <defs>
       <path d="M 19.1875 8.296875 
L 53.609375 8.296875 
L 53.609375 0 
L 7.328125 0 
L 7.328125 8.296875 
Q 12.9375 14.109375 22.625 23.890625 
Q 32.328125 33.6875 34.8125 36.53125 
Q 39.546875 41.84375 41.421875 45.53125 
Q 43.3125 49.21875 43.3125 52.78125 
Q 43.3125 58.59375 39.234375 62.25 
Q 35.15625 65.921875 28.609375 65.921875 
Q 23.96875 65.921875 18.8125 64.3125 
Q 13.671875 62.703125 7.8125 59.421875 
L 7.8125 69.390625 
Q 13.765625 71.78125 18.9375 73 
Q 24.125 74.21875 28.421875 74.21875 
Q 39.75 74.21875 46.484375 68.546875 
Q 53.21875 62.890625 53.21875 53.421875 
Q 53.21875 48.921875 51.53125 44.890625 
Q 49.859375 40.875 45.40625 35.40625 
Q 44.1875 33.984375 37.640625 27.21875 
Q 31.109375 20.453125 19.1875 8.296875 
z
" id="DejaVuSans-32"/>
      </defs>
      <g transform="translate(136.892347 399.078438)scale(0.1 -0.1)">
       <use xlink:href="#DejaVuSans-32"/>
       <use x="63.623047" xlink:href="#DejaVuSans-30"/>
       <use x="127.246094" xlink:href="#DejaVuSans-30"/>
      </g>
     </g>
    </g>
    <g id="xtick_3">
     <g id="line2d_5">
      <path clip-path="url(#p66c889360d)" d="M 200.581284 384.48 
L 200.581284 51.84 
" style="fill:none;stroke:#b0b0b0;stroke-dasharray:5.12,1.28,0.8,1.28;stroke-dashoffset:0;stroke-width:0.8;"/>
     </g>
     <g id="line2d_6">
      <g>
       <use style="stroke:#000000;stroke-width:0.8;" x="200.581284" xlink:href="#m17c48bb8f4" y="384.48"/>
      </g>
     </g>
     <g id="text_3">
      <!-- 400 -->
      <defs>
       <path d="M 37.796875 64.3125 
L 12.890625 25.390625 
L 37.796875 25.390625 
z
M 35.203125 72.90625 
L 47.609375 72.90625 
L 47.609375 25.390625 
L 58.015625 25.390625 
L 58.015625 17.1875 
L 47.609375 17.1875 
L 47.609375 0 
L 37.796875 0 
L 37.796875 17.1875 
L 4.890625 17.1875 
L 4.890625 26.703125 
z
" id="DejaVuSans-34"/>
      </defs>
      <g transform="translate(191.037534 399.078438)scale(0.1 -0.1)">
       <use xlink:href="#DejaVuSans-34"/>
       <use x="63.623047" xlink:href="#DejaVuSans-30"/>
       <use x="127.246094" xlink:href="#DejaVuSans-30"/>
      </g>
     </g>
    </g>
    <g id="xtick_4">
     <g id="line2d_7">
      <path clip-path="url(#p66c889360d)" d="M 254.726472 384.48 
L 254.726472 51.84 
" style="fill:none;stroke:#b0b0b0;stroke-dasharray:5.12,1.28,0.8,1.28;stroke-dashoffset:0;stroke-width:0.8;"/>
     </g>
     <g id="line2d_8">
      <g>
       <use style="stroke:#000000;stroke-width:0.8;" x="254.726472" xlink:href="#m17c48bb8f4" y="384.48"/>
      </g>
     </g>
     <g id="text_4">
      <!-- 600 -->
      <defs>
       <path d="M 33.015625 40.375 
Q 26.375 40.375 22.484375 35.828125 
Q 18.609375 31.296875 18.609375 23.390625 
Q 18.609375 15.53125 22.484375 10.953125 
Q 26.375 6.390625 33.015625 6.390625 
Q 39.65625 6.390625 43.53125 10.953125 
Q 47.40625 15.53125 47.40625 23.390625 
Q 47.40625 31.296875 43.53125 35.828125 
Q 39.65625 40.375 33.015625 40.375 
z
M 52.59375 71.296875 
L 52.59375 62.3125 
Q 48.875 64.0625 45.09375 64.984375 
Q 41.3125 65.921875 37.59375 65.921875 
Q 27.828125 65.921875 22.671875 59.328125 
Q 17.53125 52.734375 16.796875 39.40625 
Q 19.671875 43.65625 24.015625 45.921875 
Q 28.375 48.1875 33.59375 48.1875 
Q 44.578125 48.1875 50.953125 41.515625 
Q 57.328125 34.859375 57.328125 23.390625 
Q 57.328125 12.15625 50.6875 5.359375 
Q 44.046875 -1.421875 33.015625 -1.421875 
Q 20.359375 -1.421875 13.671875 8.265625 
Q 6.984375 17.96875 6.984375 36.375 
Q 6.984375 53.65625 15.1875 63.9375 
Q 23.390625 74.21875 37.203125 74.21875 
Q 40.921875 74.21875 44.703125 73.484375 
Q 48.484375 72.75 52.59375 71.296875 
z
" id="DejaVuSans-36"/>
      </defs>
      <g transform="translate(245.182722 399.078438)scale(0.1 -0.1)">
       <use xlink:href="#DejaVuSans-36"/>
       <use x="63.623047" xlink:href="#DejaVuSans-30"/>
       <use x="127.246094" xlink:href="#DejaVuSans-30"/>
      </g>
     </g>
    </g>
    <g id="xtick_5">
     <g id="line2d_9">
      <path clip-path="url(#p66c889360d)" d="M 308.87166 384.48 
L 308.87166 51.84 
" style="fill:none;stroke:#b0b0b0;stroke-dasharray:5.12,1.28,0.8,1.28;stroke-dashoffset:0;stroke-width:0.8;"/>
     </g>
     <g id="line2d_10">
      <g>
       <use style="stroke:#000000;stroke-width:0.8;" x="308.87166" xlink:href="#m17c48bb8f4" y="384.48"/>
      </g>
     </g>
     <g id="text_5">
      <!-- 800 -->
      <defs>
       <path d="M 31.78125 34.625 
Q 24.75 34.625 20.71875 30.859375 
Q 16.703125 27.09375 16.703125 20.515625 
Q 16.703125 13.921875 20.71875 10.15625 
Q 24.75 6.390625 31.78125 6.390625 
Q 38.8125 6.390625 42.859375 10.171875 
Q 46.921875 13.96875 46.921875 20.515625 
Q 46.921875 27.09375 42.890625 30.859375 
Q 38.875 34.625 31.78125 34.625 
z
M 21.921875 38.8125 
Q 15.578125 40.375 12.03125 44.71875 
Q 8.5 49.078125 8.5 55.328125 
Q 8.5 64.0625 14.71875 69.140625 
Q 20.953125 74.21875 31.78125 74.21875 
Q 42.671875 74.21875 48.875 69.140625 
Q 55.078125 64.0625 55.078125 55.328125 
Q 55.078125 49.078125 51.53125 44.71875 
Q 48 40.375 41.703125 38.8125 
Q 48.828125 37.15625 52.796875 32.3125 
Q 56.78125 27.484375 56.78125 20.515625 
Q 56.78125 9.90625 50.3125 4.234375 
Q 43.84375 -1.421875 31.78125 -1.421875 
Q 19.734375 -1.421875 13.25 4.234375 
Q 6.78125 9.90625 6.78125 20.515625 
Q 6.78125 27.484375 10.78125 32.3125 
Q 14.796875 37.15625 21.921875 38.8125 
z
M 18.3125 54.390625 
Q 18.3125 48.734375 21.84375 45.5625 
Q 25.390625 42.390625 31.78125 42.390625 
Q 38.140625 42.390625 41.71875 45.5625 
Q 45.3125 48.734375 45.3125 54.390625 
Q 45.3125 60.0625 41.71875 63.234375 
Q 38.140625 66.40625 31.78125 66.40625 
Q 25.390625 66.40625 21.84375 63.234375 
Q 18.3125 60.0625 18.3125 54.390625 
z
" id="DejaVuSans-38"/>
      </defs>
      <g transform="translate(299.32791 399.078438)scale(0.1 -0.1)">
       <use xlink:href="#DejaVuSans-38"/>
       <use x="63.623047" xlink:href="#DejaVuSans-30"/>
       <use x="127.246094" xlink:href="#DejaVuSans-30"/>
      </g>
     </g>
    </g>
    <g id="xtick_6">
     <g id="line2d_11">
      <path clip-path="url(#p66c889360d)" d="M 363.016848 384.48 
L 363.016848 51.84 
" style="fill:none;stroke:#b0b0b0;stroke-dasharray:5.12,1.28,0.8,1.28;stroke-dashoffset:0;stroke-width:0.8;"/>
     </g>
     <g id="line2d_12">
      <g>
       <use style="stroke:#000000;stroke-width:0.8;" x="363.016848" xlink:href="#m17c48bb8f4" y="384.48"/>
      </g>
     </g>
     <g id="text_6">
      <!-- 1000 -->
      <defs>
       <path d="M 12.40625 8.296875 
L 28.515625 8.296875 
L 28.515625 63.921875 
L 10.984375 60.40625 
L 10.984375 69.390625 
L 28.421875 72.90625 
L 38.28125 72.90625 
L 38.28125 8.296875 
L 54.390625 8.296875 
L 54.390625 0 
L 12.40625 0 
z
" id="DejaVuSans-31"/>
      </defs>
      <g transform="translate(350.291848 399.078438)scale(0.1 -0.1)">
       <use xlink:href="#DejaVuSans-31"/>
       <use x="63.623047" xlink:href="#DejaVuSans-30"/>
       <use x="127.246094" xlink:href="#DejaVuSans-30"/>
       <use x="190.869141" xlink:href="#DejaVuSans-30"/>
      </g>
     </g>
    </g>
    <g id="xtick_7">
     <g id="line2d_13">
      <path clip-path="url(#p66c889360d)" d="M 417.162035 384.48 
L 417.162035 51.84 
" style="fill:none;stroke:#b0b0b0;stroke-dasharray:5.12,1.28,0.8,1.28;stroke-dashoffset:0;stroke-width:0.8;"/>
     </g>
     <g id="line2d_14">
      <g>
       <use style="stroke:#000000;stroke-width:0.8;" x="417.162035" xlink:href="#m17c48bb8f4" y="384.48"/>
      </g>
     </g>
     <g id="text_7">
      <!-- 1200 -->
      <g transform="translate(404.437035 399.078438)scale(0.1 -0.1)">
       <use xlink:href="#DejaVuSans-31"/>
       <use x="63.623047" xlink:href="#DejaVuSans-32"/>
       <use x="127.246094" xlink:href="#DejaVuSans-30"/>
       <use x="190.869141" xlink:href="#DejaVuSans-30"/>
      </g>
     </g>
    </g>
    <g id="xtick_8">
     <g id="line2d_15">
      <path clip-path="url(#p66c889360d)" d="M 471.307223 384.48 
L 471.307223 51.84 
" style="fill:none;stroke:#b0b0b0;stroke-dasharray:5.12,1.28,0.8,1.28;stroke-dashoffset:0;stroke-width:0.8;"/>
     </g>
     <g id="line2d_16">
      <g>
       <use style="stroke:#000000;stroke-width:0.8;" x="471.307223" xlink:href="#m17c48bb8f4" y="384.48"/>
      </g>
     </g>
     <g id="text_8">
      <!-- 1400 -->
      <g transform="translate(458.582223 399.078438)scale(0.1 -0.1)">
       <use xlink:href="#DejaVuSans-31"/>
       <use x="63.623047" xlink:href="#DejaVuSans-34"/>
       <use x="127.246094" xlink:href="#DejaVuSans-30"/>
       <use x="190.869141" xlink:href="#DejaVuSans-30"/>
      </g>
     </g>
    </g>
    <g id="text_9">
     <!-- Iteration -->
     <defs>
      <path d="M 9.8125 72.90625 
L 19.671875 72.90625 
L 19.671875 0 
L 9.8125 0 
z
" id="DejaVuSans-49"/>
      <path d="M 18.3125 70.21875 
L 18.3125 54.6875 
L 36.8125 54.6875 
L 36.8125 47.703125 
L 18.3125 47.703125 
L 18.3125 18.015625 
Q 18.3125 11.328125 20.140625 9.421875 
Q 21.96875 7.515625 27.59375 7.515625 
L 36.8125 7.515625 
L 36.8125 0 
L 27.59375 0 
Q 17.1875 0 13.234375 3.875 
Q 9.28125 7.765625 9.28125 18.015625 
L 9.28125 47.703125 
L 2.6875 47.703125 
L 2.6875 54.6875 
L 9.28125 54.6875 
L 9.28125 70.21875 
z
" id="DejaVuSans-74"/>
      <path d="M 56.203125 29.59375 
L 56.203125 25.203125 
L 14.890625 25.203125 
Q 15.484375 15.921875 20.484375 11.0625 
Q 25.484375 6.203125 34.421875 6.203125 
Q 39.59375 6.203125 44.453125 7.46875 
Q 49.3125 8.734375 54.109375 11.28125 
L 54.109375 2.78125 
Q 49.265625 0.734375 44.1875 -0.34375 
Q 39.109375 -1.421875 33.890625 -1.421875 
Q 20.796875 -1.421875 13.15625 6.1875 
Q 5.515625 13.8125 5.515625 26.8125 
Q 5.515625 40.234375 12.765625 48.109375 
Q 20.015625 56 32.328125 56 
Q 43.359375 56 49.78125 48.890625 
Q 56.203125 41.796875 56.203125 29.59375 
z
M 47.21875 32.234375 
Q 47.125 39.59375 43.09375 43.984375 
Q 39.0625 48.390625 32.421875 48.390625 
Q 24.90625 48.390625 20.390625 44.140625 
Q 15.875 39.890625 15.1875 32.171875 
z
" id="DejaVuSans-65"/>
      <path d="M 41.109375 46.296875 
Q 39.59375 47.171875 37.8125 47.578125 
Q 36.03125 48 33.890625 48 
Q 26.265625 48 22.1875 43.046875 
Q 18.109375 38.09375 18.109375 28.8125 
L 18.109375 0 
L 9.078125 0 
L 9.078125 54.6875 
L 18.109375 54.6875 
L 18.109375 46.1875 
Q 20.953125 51.171875 25.484375 53.578125 
Q 30.03125 56 36.53125 56 
Q 37.453125 56 38.578125 55.875 
Q 39.703125 55.765625 41.0625 55.515625 
z
" id="DejaVuSans-72"/>
      <path d="M 34.28125 27.484375 
Q 23.390625 27.484375 19.1875 25 
Q 14.984375 22.515625 14.984375 16.5 
Q 14.984375 11.71875 18.140625 8.90625 
Q 21.296875 6.109375 26.703125 6.109375 
Q 34.1875 6.109375 38.703125 11.40625 
Q 43.21875 16.703125 43.21875 25.484375 
L 43.21875 27.484375 
z
M 52.203125 31.203125 
L 52.203125 0 
L 43.21875 0 
L 43.21875 8.296875 
Q 40.140625 3.328125 35.546875 0.953125 
Q 30.953125 -1.421875 24.3125 -1.421875 
Q 15.921875 -1.421875 10.953125 3.296875 
Q 6 8.015625 6 15.921875 
Q 6 25.140625 12.171875 29.828125 
Q 18.359375 34.515625 30.609375 34.515625 
L 43.21875 34.515625 
L 43.21875 35.40625 
Q 43.21875 41.609375 39.140625 45 
Q 35.0625 48.390625 27.6875 48.390625 
Q 23 48.390625 18.546875 47.265625 
Q 14.109375 46.140625 10.015625 43.890625 
L 10.015625 52.203125 
Q 14.9375 54.109375 19.578125 55.046875 
Q 24.21875 56 28.609375 56 
Q 40.484375 56 46.34375 49.84375 
Q 52.203125 43.703125 52.203125 31.203125 
z
" id="DejaVuSans-61"/>
      <path d="M 9.421875 54.6875 
L 18.40625 54.6875 
L 18.40625 0 
L 9.421875 0 
z
M 9.421875 75.984375 
L 18.40625 75.984375 
L 18.40625 64.59375 
L 9.421875 64.59375 
z
" id="DejaVuSans-69"/>
      <path d="M 30.609375 48.390625 
Q 23.390625 48.390625 19.1875 42.75 
Q 14.984375 37.109375 14.984375 27.296875 
Q 14.984375 17.484375 19.15625 11.84375 
Q 23.34375 6.203125 30.609375 6.203125 
Q 37.796875 6.203125 41.984375 11.859375 
Q 46.1875 17.53125 46.1875 27.296875 
Q 46.1875 37.015625 41.984375 42.703125 
Q 37.796875 48.390625 30.609375 48.390625 
z
M 30.609375 56 
Q 42.328125 56 49.015625 48.375 
Q 55.71875 40.765625 55.71875 27.296875 
Q 55.71875 13.875 49.015625 6.21875 
Q 42.328125 -1.421875 30.609375 -1.421875 
Q 18.84375 -1.421875 12.171875 6.21875 
Q 5.515625 13.875 5.515625 27.296875 
Q 5.515625 40.765625 12.171875 48.375 
Q 18.84375 56 30.609375 56 
z
" id="DejaVuSans-6f"/>
      <path d="M 54.890625 33.015625 
L 54.890625 0 
L 45.90625 0 
L 45.90625 32.71875 
Q 45.90625 40.484375 42.875 44.328125 
Q 39.84375 48.1875 33.796875 48.1875 
Q 26.515625 48.1875 22.3125 43.546875 
Q 18.109375 38.921875 18.109375 30.90625 
L 18.109375 0 
L 9.078125 0 
L 9.078125 54.6875 
L 18.109375 54.6875 
L 18.109375 46.1875 
Q 21.34375 51.125 25.703125 53.5625 
Q 30.078125 56 35.796875 56 
Q 45.21875 56 50.046875 50.171875 
Q 54.890625 44.34375 54.890625 33.015625 
z
" id="DejaVuSans-6e"/>
     </defs>
     <g transform="translate(265.507969 415.795938)scale(0.14 -0.14)">
      <use xlink:href="#DejaVuSans-49"/>
      <use x="29.492188" xlink:href="#DejaVuSans-74"/>
      <use x="68.701172" xlink:href="#DejaVuSans-65"/>
      <use x="130.224609" xlink:href="#DejaVuSans-72"/>
      <use x="171.337891" xlink:href="#DejaVuSans-61"/>
      <use x="232.617188" xlink:href="#DejaVuSans-74"/>
      <use x="271.826172" xlink:href="#DejaVuSans-69"/>
      <use x="299.609375" xlink:href="#DejaVuSans-6f"/>
      <use x="360.791016" xlink:href="#DejaVuSans-6e"/>
     </g>
    </g>
   </g>
   <g id="matplotlib.axis_2">
    <g id="ytick_1">
     <g id="line2d_17">
      <path clip-path="url(#p66c889360d)" d="M 72 369.36 
L 518.4 369.36 
" style="fill:none;stroke:#b0b0b0;stroke-dasharray:5.12,1.28,0.8,1.28;stroke-dashoffset:0;stroke-width:0.8;"/>
     </g>
     <g id="line2d_18">
      <defs>
       <path d="M 0 0 
L -3.5 0 
" id="m6404bfed04" style="stroke:#000000;stroke-width:0.8;"/>
      </defs>
      <g>
       <use style="stroke:#000000;stroke-width:0.8;" x="72" xlink:href="#m6404bfed04" y="369.36"/>
      </g>
     </g>
     <g id="text_10">
      <!-- 0 -->
      <g transform="translate(58.6375 373.159219)scale(0.1 -0.1)">
       <use xlink:href="#DejaVuSans-30"/>
      </g>
     </g>
    </g>
    <g id="ytick_2">
     <g id="line2d_19">
      <path clip-path="url(#p66c889360d)" d="M 72 313.704753 
L 518.4 313.704753 
" style="fill:none;stroke:#b0b0b0;stroke-dasharray:5.12,1.28,0.8,1.28;stroke-dashoffset:0;stroke-width:0.8;"/>
     </g>
     <g id="line2d_20">
      <g>
       <use style="stroke:#000000;stroke-width:0.8;" x="72" xlink:href="#m6404bfed04" y="313.704753"/>
      </g>
     </g>
     <g id="text_11">
      <!-- 2 -->
      <g transform="translate(58.6375 317.503972)scale(0.1 -0.1)">
       <use xlink:href="#DejaVuSans-32"/>
      </g>
     </g>
    </g>
    <g id="ytick_3">
     <g id="line2d_21">
      <path clip-path="url(#p66c889360d)" d="M 72 258.049507 
L 518.4 258.049507 
" style="fill:none;stroke:#b0b0b0;stroke-dasharray:5.12,1.28,0.8,1.28;stroke-dashoffset:0;stroke-width:0.8;"/>
     </g>
     <g id="line2d_22">
      <g>
       <use style="stroke:#000000;stroke-width:0.8;" x="72" xlink:href="#m6404bfed04" y="258.049507"/>
      </g>
     </g>
     <g id="text_12">
      <!-- 4 -->
      <g transform="translate(58.6375 261.848725)scale(0.1 -0.1)">
       <use xlink:href="#DejaVuSans-34"/>
      </g>
     </g>
    </g>
    <g id="ytick_4">
     <g id="line2d_23">
      <path clip-path="url(#p66c889360d)" d="M 72 202.39426 
L 518.4 202.39426 
" style="fill:none;stroke:#b0b0b0;stroke-dasharray:5.12,1.28,0.8,1.28;stroke-dashoffset:0;stroke-width:0.8;"/>
     </g>
     <g id="line2d_24">
      <g>
       <use style="stroke:#000000;stroke-width:0.8;" x="72" xlink:href="#m6404bfed04" y="202.39426"/>
      </g>
     </g>
     <g id="text_13">
      <!-- 6 -->
      <g transform="translate(58.6375 206.193479)scale(0.1 -0.1)">
       <use xlink:href="#DejaVuSans-36"/>
      </g>
     </g>
    </g>
    <g id="ytick_5">
     <g id="line2d_25">
      <path clip-path="url(#p66c889360d)" d="M 72 146.739013 
L 518.4 146.739013 
" style="fill:none;stroke:#b0b0b0;stroke-dasharray:5.12,1.28,0.8,1.28;stroke-dashoffset:0;stroke-width:0.8;"/>
     </g>
     <g id="line2d_26">
      <g>
       <use style="stroke:#000000;stroke-width:0.8;" x="72" xlink:href="#m6404bfed04" y="146.739013"/>
      </g>
     </g>
     <g id="text_14">
      <!-- 8 -->
      <g transform="translate(58.6375 150.538232)scale(0.1 -0.1)">
       <use xlink:href="#DejaVuSans-38"/>
      </g>
     </g>
    </g>
    <g id="ytick_6">
     <g id="line2d_27">
      <path clip-path="url(#p66c889360d)" d="M 72 91.083767 
L 518.4 91.083767 
" style="fill:none;stroke:#b0b0b0;stroke-dasharray:5.12,1.28,0.8,1.28;stroke-dashoffset:0;stroke-width:0.8;"/>
     </g>
     <g id="line2d_28">
      <g>
       <use style="stroke:#000000;stroke-width:0.8;" x="72" xlink:href="#m6404bfed04" y="91.083767"/>
      </g>
     </g>
     <g id="text_15">
      <!-- 10 -->
      <g transform="translate(52.275 94.882985)scale(0.1 -0.1)">
       <use xlink:href="#DejaVuSans-31"/>
       <use x="63.623047" xlink:href="#DejaVuSans-30"/>
      </g>
     </g>
    </g>
    <g id="text_16">
     <!-- $\lambda_{m} [m.u/W]$ -->
     <defs>
      <path d="M 36.71875 67.4375 
L 48.828125 0 
L 39.3125 0 
L 31.84375 40.4375 
L 5.125 0 
L -4.390625 0 
L 29.734375 52.4375 
L 28.03125 62.109375 
Q 26.953125 68.265625 21.734375 68.265625 
L 17.046875 68.265625 
L 18.5 75.984375 
L 24.21875 75.875 
Q 35.203125 75.734375 36.71875 67.4375 
z
" id="DejaVuSans-Oblique-3bb"/>
      <path d="M 89.796875 33.015625 
L 83.40625 0 
L 74.421875 0 
L 80.71875 32.71875 
Q 81.109375 34.8125 81.296875 36.328125 
Q 81.5 37.84375 81.5 38.921875 
Q 81.5 43.3125 79.046875 45.75 
Q 76.609375 48.1875 72.21875 48.1875 
Q 65.671875 48.1875 60.546875 43.28125 
Q 55.421875 38.375 53.90625 30.515625 
L 47.90625 0 
L 38.921875 0 
L 45.3125 32.71875 
Q 45.703125 34.515625 45.890625 36.046875 
Q 46.09375 37.59375 46.09375 38.8125 
Q 46.09375 43.265625 43.65625 45.71875 
Q 41.21875 48.1875 36.921875 48.1875 
Q 30.28125 48.1875 25.140625 43.28125 
Q 20.015625 38.375 18.5 30.515625 
L 12.5 0 
L 3.515625 0 
L 14.203125 54.6875 
L 23.1875 54.6875 
L 21.484375 46.1875 
Q 25.140625 50.984375 30.046875 53.484375 
Q 34.96875 56 40.578125 56 
Q 46.53125 56 50.359375 52.875 
Q 54.203125 49.75 54.984375 44.1875 
Q 59.078125 49.953125 64.46875 52.96875 
Q 69.875 56 75.875 56 
Q 82.90625 56 86.734375 51.953125 
Q 90.578125 47.90625 90.578125 40.484375 
Q 90.578125 38.875 90.375 36.9375 
Q 90.1875 35.015625 89.796875 33.015625 
z
" id="DejaVuSans-Oblique-6d"/>
      <path d="M 8.59375 75.984375 
L 29.296875 75.984375 
L 29.296875 69 
L 17.578125 69 
L 17.578125 -6.203125 
L 29.296875 -6.203125 
L 29.296875 -13.1875 
L 8.59375 -13.1875 
z
" id="DejaVuSans-5b"/>
      <path d="M 10.6875 12.40625 
L 21 12.40625 
L 21 0 
L 10.6875 0 
z
" id="DejaVuSans-2e"/>
      <path d="M 6.6875 21.6875 
L 13.09375 54.6875 
L 22.125 54.6875 
L 15.71875 22.015625 
Q 15.234375 19.625 15.015625 17.921875 
Q 14.796875 16.21875 14.796875 15.09375 
Q 14.796875 10.9375 17.328125 8.65625 
Q 19.875 6.390625 24.515625 6.390625 
Q 31.734375 6.390625 37 11.265625 
Q 42.28125 16.15625 43.890625 24.421875 
L 49.90625 54.6875 
L 58.890625 54.6875 
L 48.296875 0 
L 39.3125 0 
L 41.109375 8.59375 
Q 37.3125 3.8125 32.0625 1.1875 
Q 26.8125 -1.421875 20.90625 -1.421875 
Q 13.71875 -1.421875 9.71875 2.515625 
Q 5.71875 6.453125 5.71875 13.484375 
Q 5.71875 14.9375 5.953125 17.140625 
Q 6.203125 19.34375 6.6875 21.6875 
z
" id="DejaVuSans-Oblique-75"/>
      <path d="M 25.390625 72.90625 
L 33.6875 72.90625 
L 8.296875 -9.28125 
L 0 -9.28125 
z
" id="DejaVuSans-2f"/>
      <path d="M 9.625 72.90625 
L 19.1875 72.90625 
L 22.703125 10.890625 
L 50.203125 72.90625 
L 61.1875 72.90625 
L 64.796875 10.890625 
L 92 72.90625 
L 102 72.90625 
L 69.578125 0 
L 57.171875 0 
L 53.8125 60.796875 
L 26.515625 0 
L 14.109375 0 
z
" id="DejaVuSans-Oblique-57"/>
      <path d="M 30.421875 75.984375 
L 30.421875 -13.1875 
L 9.71875 -13.1875 
L 9.71875 -6.203125 
L 21.390625 -6.203125 
L 21.390625 69 
L 9.71875 69 
L 9.71875 75.984375 
z
" id="DejaVuSans-5d"/>
     </defs>
     <g transform="translate(45.363437 256.87)rotate(-90)scale(0.14 -0.14)">
      <use transform="translate(0 0.015625)" xlink:href="#DejaVuSans-Oblique-3bb"/>
      <use transform="translate(59.179688 -16.390625)scale(0.7)" xlink:href="#DejaVuSans-Oblique-6d"/>
      <use transform="translate(130.102539 0.015625)" xlink:href="#DejaVuSans-5b"/>
      <use transform="translate(169.116211 0.015625)" xlink:href="#DejaVuSans-Oblique-6d"/>
      <use transform="translate(266.52832 0.015625)" xlink:href="#DejaVuSans-2e"/>
      <use transform="translate(317.797852 0.015625)" xlink:href="#DejaVuSans-Oblique-75"/>
      <use transform="translate(381.176758 0.015625)" xlink:href="#DejaVuSans-2f"/>
      <use transform="translate(414.868164 0.015625)" xlink:href="#DejaVuSans-Oblique-57"/>
      <use transform="translate(513.745117 0.015625)" xlink:href="#DejaVuSans-5d"/>
     </g>
    </g>
   </g>
   <g id="line2d_29">
    <path clip-path="url(#p66c889360d)" d="M 92.290909 369.36 
L 92.561635 369.36 
L 92.832361 369.36 
L 93.103087 366.493755 
L 93.644539 354.769977 
L 94.727443 323.600256 
L 95.810346 289.163572 
L 96.081072 282.760436 
L 96.89325 258.322217 
L 97.434702 243.081028 
L 97.705428 238.239022 
L 97.976154 236.321698 
L 98.788332 225.752767 
L 99.059058 224.130417 
L 99.329783 223.55995 
L 99.600509 223.963451 
L 99.871235 225.349266 
L 100.141961 225.065425 
L 100.683413 222.716773 
L 100.954139 222.366145 
L 101.224865 222.691728 
L 101.495591 223.493164 
L 102.037043 226.081133 
L 102.849221 231.529782 
L 105.015028 249.514775 
L 107.993014 275.091143 
L 108.534465 278.302451 
L 109.075917 280.325519 
L 109.346643 280.779109 
L 109.617369 280.865375 
L 109.888095 280.59823 
L 110.158821 280.002719 
L 110.700273 278.038089 
L 111.241725 275.068881 
L 113.948984 258.514228 
L 114.21971 258.327783 
L 114.761162 257.52913 
L 115.031888 257.36773 
L 115.302614 257.487389 
L 115.57334 257.960458 
L 116.114792 259.908392 
L 116.926969 263.773649 
L 118.822051 274.016997 
L 119.363503 275.745092 
L 119.904955 276.582704 
L 120.175681 276.707928 
L 120.446407 276.691232 
L 120.717133 276.404607 
L 121.258585 275.032705 
L 122.070762 271.77409 
L 124.23657 262.234781 
L 124.778022 260.846183 
L 125.048748 260.459379 
L 125.319474 260.425986 
L 125.5902 260.573472 
L 125.860925 260.976973 
L 126.402377 262.571495 
L 127.214555 266.275352 
L 128.026733 269.892943 
L 128.568185 271.309369 
L 128.838911 271.557035 
L 129.109637 271.456856 
L 129.380363 270.992134 
L 129.921815 269.088725 
L 130.19254 267.92553 
L 130.733992 264.182715 
L 132.087622 253.2882 
L 132.358348 252.486765 
L 133.441252 246.144849 
L 133.982704 244.475192 
L 134.25343 244.413971 
L 134.524155 245.131924 
L 135.877785 246.200505 
L 137.231415 247.747721 
L 137.502141 247.589103 
L 138.043593 246.843323 
L 139.126496 244.580937 
L 139.397222 244.522499 
L 140.480126 242.310203 
L 140.750852 242.070885 
L 141.021578 242.040275 
L 141.292304 242.229503 
L 141.56303 242.646917 
L 142.104482 244.166305 
L 142.645934 245.983449 
L 143.187386 246.968547 
L 143.999563 250.382996 
L 144.270289 251.137125 
L 145.353193 255.417013 
L 146.165371 258.533707 
L 147.789726 265.379303 
L 148.601904 269.614667 
L 149.684808 275.388899 
L 150.22626 277.492667 
L 150.496986 278.193923 
L 150.767712 278.580727 
L 151.038438 278.655862 
L 151.309164 278.48333 
L 151.57989 278.118789 
L 152.121342 276.510352 
L 153.204245 271.28989 
L 154.557875 263.464762 
L 155.099327 261.383256 
L 155.370053 260.768265 
L 155.911505 260.506686 
L 156.182231 260.562341 
L 156.452957 260.835052 
L 156.994408 261.906415 
L 158.077312 264.39977 
L 158.348038 264.722571 
L 158.618764 264.82275 
L 158.88949 264.722571 
L 159.160216 264.48047 
L 159.430942 263.770866 
L 159.972394 261.338732 
L 160.784572 255.892866 
L 162.138201 246.445388 
L 162.950379 240.985608 
L 163.221105 240.465231 
L 164.033283 238.152756 
L 164.304009 237.857783 
L 164.574735 237.849435 
L 164.845461 238.099883 
L 165.116187 238.687046 
L 165.657638 240.557063 
L 167.281994 244.992786 
L 167.823446 245.877704 
L 168.364898 246.350774 
L 168.90635 246.540002 
L 169.989253 246.51774 
L 170.530705 246.943502 
L 171.072157 247.967559 
L 172.696513 251.574019 
L 173.779417 255.138737 
L 174.86232 259.532719 
L 175.674498 263.620597 
L 176.757402 271.045007 
L 177.56958 276.362866 
L 178.111032 278.602989 
L 178.652483 279.766184 
L 178.923209 279.88306 
L 179.193935 279.638177 
L 179.735387 278.230099 
L 180.276839 275.951017 
L 181.359743 269.553446 
L 182.442647 262.769072 
L 182.984098 260.464944 
L 183.254824 259.838823 
L 183.796276 259.666292 
L 184.067002 259.758123 
L 184.337728 260.09762 
L 184.87918 261.411084 
L 185.962084 264.61126 
L 186.23281 265.106592 
L 186.503536 265.362606 
L 186.774262 265.337561 
L 187.315714 264.675264 
L 187.857165 262.371137 
L 188.398617 258.803635 
L 189.210795 252.609206 
L 189.481521 251.56567 
L 191.105877 239.57753 
L 191.376603 239.249164 
L 191.918054 237.971876 
L 192.18878 237.632379 
L 192.459506 237.590638 
L 192.730232 237.838304 
L 193.271684 239.04324 
L 194.354588 242.947455 
L 195.166766 245.37959 
L 195.708218 246.434257 
L 196.249669 246.95185 
L 196.791121 247.068726 
L 198.144751 246.779319 
L 198.415477 246.929588 
L 198.686203 247.232909 
L 200.039833 249.70122 
L 201.393462 253.830839 
L 202.476366 258.068986 
L 203.55927 263.292231 
L 204.371448 268.615655 
L 205.454351 275.987193 
L 205.995803 278.45272 
L 206.537255 279.668787 
L 206.807981 279.896974 
L 207.078707 279.774532 
L 207.349433 279.295897 
L 207.890885 277.464839 
L 208.432337 274.860174 
L 209.51524 268.078582 
L 210.327418 262.941603 
L 210.86887 260.63191 
L 211.139596 260.008571 
L 211.951774 259.799864 
L 212.2225 260.061444 
L 212.763952 261.227421 
L 213.846855 264.263415 
L 214.388307 265.025892 
L 214.659033 265.025892 
L 214.929759 264.811619 
L 215.200485 264.213325 
L 215.741937 262.001029 
L 216.283389 258.661714 
L 216.824841 254.84933 
L 217.095567 253.655525 
L 218.719922 241.055177 
L 218.990648 240.484711 
L 219.802826 237.938483 
L 220.073552 237.596204 
L 220.344278 237.560028 
L 220.615004 237.802128 
L 220.88573 238.417118 
L 221.427182 240.395662 
L 223.051537 245.237669 
L 223.592989 246.231115 
L 224.134441 246.737578 
L 224.675893 246.879499 
L 225.758797 246.690271 
L 226.029523 246.773754 
L 226.300249 246.979678 
L 226.841701 247.856248 
L 227.653878 249.492512 
L 227.924604 249.890448 
L 229.278234 254.039546 
L 230.361138 258.258214 
L 231.444041 263.478676 
L 232.256219 268.818797 
L 233.339123 276.140245 
L 233.880575 278.5529 
L 234.422027 279.710529 
L 234.692753 279.908105 
L 234.963479 279.755053 
L 235.234205 279.245807 
L 235.775656 277.359094 
L 236.317108 274.71547 
L 237.400012 267.936661 
L 238.21219 262.802465 
L 238.753642 260.526165 
L 239.024368 259.925088 
L 239.836546 259.788733 
L 240.107272 260.075358 
L 240.648723 261.274728 
L 241.731627 264.321853 
L 242.002353 264.806054 
L 242.273079 265.056502 
L 242.543805 265.042588 
L 242.814531 264.814402 
L 243.085257 264.191063 
L 243.626709 261.93146 
L 244.168161 258.544838 
L 244.709612 254.710192 
L 244.980338 253.521952 
L 246.604694 240.952215 
L 246.87542 240.398445 
L 247.687598 237.916221 
L 247.958324 237.593421 
L 248.22905 237.579507 
L 248.499776 237.841087 
L 248.770502 238.464425 
L 249.582679 241.302843 
L 250.936309 245.315586 
L 251.477761 246.295119 
L 252.019213 246.784885 
L 252.560665 246.910109 
L 253.643568 246.70975 
L 253.914294 246.796016 
L 254.18502 247.004723 
L 254.726472 247.895207 
L 255.53865 249.537037 
L 255.809376 249.948886 
L 257.163006 254.114681 
L 258.245909 258.355611 
L 259.328813 263.601118 
L 260.140991 268.963501 
L 261.223895 276.254338 
L 261.765347 278.628034 
L 262.306798 279.741139 
L 262.577524 279.916453 
L 262.84825 279.738356 
L 263.118976 279.209631 
L 263.660428 277.28396 
L 264.20188 274.609725 
L 265.55551 265.958117 
L 266.367688 261.252466 
L 266.638413 260.281282 
L 266.909139 259.769254 
L 267.721317 259.930654 
L 267.992043 260.297979 
L 268.533495 261.611442 
L 269.616399 264.672481 
L 269.887125 265.117723 
L 270.157851 265.318082 
L 270.428577 265.24573 
L 270.699303 264.967454 
L 270.970029 264.26898 
L 271.51148 261.836846 
L 272.323658 256.218449 
L 273.677288 246.303467 
L 274.21874 242.148803 
L 274.489466 240.640546 
L 274.760192 240.136866 
L 275.572369 237.790997 
L 275.843095 237.515503 
L 276.113821 237.546114 
L 276.384547 237.846652 
L 276.655273 238.492253 
L 277.467451 241.358498 
L 278.550355 244.669985 
L 279.091807 245.844311 
L 279.633259 246.506609 
L 280.17471 246.787668 
L 280.716162 246.693054 
L 281.52834 246.523305 
L 281.799066 246.612353 
L 282.069792 246.834974 
L 282.611244 247.769983 
L 283.423422 249.381202 
L 283.694148 249.815313 
L 285.047777 253.97276 
L 286.130681 258.216472 
L 286.942859 261.998246 
L 287.755037 267.023915 
L 289.108666 276.265469 
L 289.650118 278.538986 
L 290.19157 279.741139 
L 290.462296 279.877494 
L 290.733022 279.654873 
L 291.003748 279.098321 
L 291.5452 277.292308 
L 292.086652 274.534591 
L 294.523185 260.531731 
L 294.793911 259.894478 
L 295.335363 259.699685 
L 295.606089 259.772037 
L 295.876815 260.09762 
L 296.418267 261.383256 
L 297.50117 264.550039 
L 297.771896 265.045371 
L 298.042622 265.304168 
L 298.313348 265.279123 
L 298.8548 264.636305 
L 299.396252 262.348874 
L 299.937704 258.803635 
L 300.749882 252.625903 
L 301.020608 251.582367 
L 302.644963 239.57753 
L 302.915689 239.243599 
L 303.457141 237.949614 
L 303.727867 237.596204 
L 303.998593 237.548897 
L 304.269319 237.785431 
L 304.540045 238.266849 
L 304.810771 238.982019 
L 305.893675 242.880669 
L 306.705852 245.318369 
L 307.247304 246.38695 
L 307.788756 246.918457 
L 308.330208 247.043682 
L 309.683838 246.79045 
L 309.954564 246.946285 
L 310.22529 247.252389 
L 311.578919 249.712351 
L 312.932549 253.822491 
L 314.015453 258.049507 
L 315.098356 263.275534 
L 315.910534 268.612872 
L 316.993438 276.001106 
L 317.53489 278.469417 
L 318.076342 279.688267 
L 318.347068 279.91367 
L 318.617794 279.791229 
L 318.88852 279.309811 
L 319.429971 277.473188 
L 319.971423 274.865739 
L 321.054327 268.075799 
L 321.866505 262.927689 
L 322.407957 260.615214 
L 322.678683 259.991875 
L 323.490861 259.783168 
L 323.761587 260.04753 
L 324.303038 261.21629 
L 325.385942 264.26898 
L 325.927394 265.039806 
L 326.19812 265.042588 
L 326.468846 264.828316 
L 326.739572 264.230022 
L 327.281024 262.026074 
L 327.822476 258.686759 
L 328.363927 254.874375 
L 328.634653 253.675004 
L 330.259009 241.066308 
L 330.529735 240.493059 
L 331.341913 237.944049 
L 331.612639 237.598986 
L 331.883365 237.56281 
L 332.154091 237.804911 
L 332.424817 238.422684 
L 332.966268 240.401228 
L 334.590624 245.2488 
L 335.132076 246.242246 
L 335.673528 246.745926 
L 336.21498 246.887847 
L 337.297883 246.690271 
L 337.568609 246.770971 
L 337.839335 246.974113 
L 338.380787 247.845117 
L 338.922239 248.999964 
L 339.734417 250.661273 
L 340.817321 254.031198 
L 341.900224 258.252648 
L 342.983128 263.467545 
L 343.795306 268.8021 
L 344.87821 276.123548 
L 345.419662 278.538986 
L 345.961113 279.70218 
L 346.231839 279.902539 
L 346.502565 279.75227 
L 346.773291 279.245807 
L 347.314743 277.367443 
L 347.856195 274.729384 
L 349.209825 266.077776 
L 349.751277 262.819161 
L 350.292728 260.540079 
L 350.563454 259.93622 
L 351.375632 259.794299 
L 351.646358 260.07814 
L 352.18781 261.274728 
L 353.270714 264.31907 
L 353.54144 264.800488 
L 353.812166 265.053719 
L 354.082892 265.039806 
L 354.353618 264.814402 
L 354.624344 264.191063 
L 355.165795 261.934243 
L 355.707247 258.553187 
L 356.248699 254.724106 
L 356.519425 253.533083 
L 358.143781 240.963346 
L 358.414507 240.406793 
L 359.226684 237.919004 
L 359.49741 237.596204 
L 359.768136 237.579507 
L 360.038862 237.838304 
L 360.309588 238.461643 
L 361.121766 241.297277 
L 362.475396 245.304455 
L 363.016848 246.28677 
L 363.558299 246.776536 
L 364.099751 246.904544 
L 365.182655 246.706967 
L 365.453381 246.793233 
L 365.724107 247.00194 
L 366.265559 247.892424 
L 367.077737 249.531471 
L 367.348463 249.940537 
L 368.702092 254.106332 
L 369.784996 258.347262 
L 370.8679 263.587204 
L 371.680078 268.949587 
L 372.762981 276.240424 
L 373.304433 278.619686 
L 373.845885 279.738356 
L 374.116611 279.91367 
L 374.387337 279.741139 
L 374.658063 279.212414 
L 375.199515 277.292308 
L 375.740967 274.620856 
L 377.094596 265.969248 
L 377.906774 261.263597 
L 378.1775 260.28963 
L 378.448226 259.774819 
L 379.260404 259.930654 
L 379.53113 260.297979 
L 380.072582 261.605877 
L 381.155485 264.666915 
L 381.426211 265.11494 
L 381.696937 265.318082 
L 381.967663 265.248513 
L 382.238389 264.970237 
L 382.509115 264.271763 
L 383.050567 261.847977 
L 383.862745 256.235146 
L 385.216375 246.320163 
L 385.757826 242.162717 
L 386.028552 240.654459 
L 386.299278 240.147997 
L 387.111456 237.799345 
L 387.382182 237.518286 
L 387.652908 237.546114 
L 387.923634 237.846652 
L 388.19436 238.48947 
L 389.006538 241.355715 
L 390.089441 244.66442 
L 390.630893 245.838746 
L 391.172345 246.503826 
L 391.713797 246.784885 
L 392.255249 246.690271 
L 393.067427 246.520522 
L 393.338153 246.609571 
L 393.608879 246.829409 
L 394.150331 247.761634 
L 394.962508 249.375636 
L 395.233234 249.806965 
L 396.586864 253.964412 
L 397.669768 258.205341 
L 398.481946 261.984333 
L 399.294123 267.007219 
L 400.647753 276.251555 
L 401.189205 278.530637 
L 401.730657 279.735574 
L 402.001383 279.877494 
L 402.272109 279.654873 
L 402.542835 279.103886 
L 403.084286 277.303439 
L 403.625738 274.545722 
L 406.062272 260.542862 
L 406.332998 259.900044 
L 406.87445 259.702467 
L 407.145176 259.774819 
L 407.415902 260.09762 
L 407.957353 261.380473 
L 409.040257 264.547257 
L 409.310983 265.045371 
L 409.581709 265.304168 
L 409.852435 265.284689 
L 410.393887 264.641871 
L 410.935339 262.360006 
L 411.476791 258.817549 
L 412.288968 252.645382 
L 412.559694 251.599064 
L 414.18405 239.585879 
L 414.454776 239.251947 
L 414.996228 237.952397 
L 415.266954 237.598986 
L 415.53768 237.548897 
L 415.808406 237.782649 
L 416.079132 238.264066 
L 416.349857 238.976454 
L 417.432761 242.875104 
L 418.244939 245.312803 
L 418.786391 246.381384 
L 419.327843 246.912892 
L 419.869295 247.040899 
L 421.222924 246.784885 
L 421.49365 246.940719 
L 421.764376 247.244041 
L 423.118006 249.704002 
L 424.471636 253.81136 
L 425.554539 258.035593 
L 426.637443 263.258838 
L 427.449621 268.59061 
L 428.532525 275.981627 
L 429.073977 278.455503 
L 429.615428 279.682701 
L 429.886154 279.910888 
L 430.15688 279.791229 
L 430.427606 279.315376 
L 430.969058 277.484319 
L 431.51051 274.882436 
L 432.86414 266.219697 
L 433.676318 261.66988 
L 434.217769 260.003006 
L 435.029947 259.783168 
L 435.300673 260.044747 
L 435.842125 261.210725 
L 436.925029 264.266198 
L 437.466481 265.039806 
L 437.737207 265.045371 
L 438.007933 264.833881 
L 438.278658 264.48047 
L 438.549384 263.587204 
L 439.090836 260.707045 
L 440.985918 247.308044 
L 441.798096 241.102484 
L 442.068822 239.747279 
L 442.339548 239.382737 
L 442.880999 238.019183 
L 443.151725 237.632379 
L 443.422451 237.546114 
L 443.693177 237.749255 
L 443.963903 238.200063 
L 444.234629 238.895754 
L 445.317533 242.766576 
L 446.129711 245.226538 
L 446.671163 246.334077 
L 447.212614 246.918457 
L 447.754066 247.079858 
L 448.295518 247.029768 
L 448.83697 246.912892 
L 449.107696 246.949068 
L 449.378422 247.099337 
L 449.649148 247.39431 
L 450.1906 248.507415 
L 451.544229 251.251218 
L 452.897859 255.93739 
L 453.980763 260.567907 
L 454.792941 264.992499 
L 456.688022 277.464839 
L 457.229474 279.262504 
L 457.5002 279.713311 
L 457.770926 279.922019 
L 458.041652 279.780098 
L 458.312378 279.284766 
L 458.85383 277.417533 
L 459.395282 274.787822 
L 460.748911 266.1223 
L 461.290363 262.852554 
L 461.831815 260.556776 
L 462.102541 259.947351 
L 462.914719 259.780385 
L 463.185445 260.055878 
L 463.726897 261.244118 
L 464.8098 264.291243 
L 465.351252 265.037023 
L 465.621978 265.031457 
L 465.892704 264.808836 
L 466.16343 264.196629 
L 466.704882 261.956505 
L 467.246334 258.589363 
L 467.787786 254.763064 
L 468.058512 253.572042 
L 469.682867 240.982825 
L 469.953593 240.420707 
L 470.765771 237.913438 
L 471.036497 237.579507 
L 471.307223 237.557245 
L 471.577949 237.813259 
L 471.848675 238.433815 
L 472.660853 241.26945 
L 474.014482 245.284976 
L 474.555934 246.272856 
L 475.097386 246.770971 
L 475.638838 246.904544 
L 476.721742 246.712533 
L 476.992468 246.796016 
L 477.263194 247.00194 
L 477.804646 247.886859 
L 478.616823 249.525906 
L 478.887549 249.932189 
L 480.241179 254.092419 
L 481.324083 258.325 
L 482.406986 263.562159 
L 483.219164 268.921759 
L 484.302068 276.223727 
L 484.84352 278.608555 
L 485.384972 279.735574 
L 485.655698 279.916453 
L 485.926424 279.746705 
L 486.19715 279.220762 
L 486.738601 277.306222 
L 487.280053 274.640336 
L 488.633683 265.985945 
L 489.445861 261.277511 
L 489.716587 260.300761 
L 489.987313 259.783168 
L 490.799491 259.930654 
L 491.070217 260.292413 
L 491.611668 261.597529 
L 492.694572 264.66135 
L 492.965298 265.112157 
L 493.236024 265.318082 
L 493.50675 265.251296 
L 493.777476 264.975802 
L 494.048202 264.282894 
L 494.589654 261.867457 
L 495.401832 256.265756 
L 496.755461 246.347991 
L 497.296913 242.187761 
L 497.567639 240.676721 
L 497.838365 240.167476 
L 498.109091 239.25473 
L 498.109091 239.25473 
" style="fill:none;stroke:#bf00bf;stroke-linecap:square;stroke-width:1.5;"/>
   </g>
   <g id="line2d_30">
    <path clip-path="url(#p66c889360d)" d="M 92.290909 369.36 
L 92.561635 369.36 
L 92.832361 369.36 
L 93.373813 358.512792 
L 94.727443 321.897206 
L 95.810346 289.931615 
L 96.081072 285.178657 
L 96.89325 255.706421 
L 97.705428 236.513709 
L 97.976154 234.29863 
L 98.517606 221.458965 
L 99.059058 215.453764 
L 99.329783 214.131952 
L 99.600509 213.987248 
L 99.871235 215.117049 
L 100.954139 223.175929 
L 102.849221 240.562628 
L 105.285754 262.126253 
L 108.534465 289.823087 
L 109.075917 292.572456 
L 109.346643 293.229188 
L 109.617369 293.410068 
L 109.888095 293.117878 
L 110.158821 292.377663 
L 110.700273 289.795259 
L 111.512451 283.536827 
L 112.053903 278.6336 
L 113.407532 266.358835 
L 113.678258 264.441512 
L 113.948984 263.372931 
L 114.21971 263.2004 
L 114.490436 262.042771 
L 114.761162 261.469522 
L 115.031888 261.322035 
L 115.302614 261.561353 
L 115.57334 262.24313 
L 116.114792 264.714222 
L 116.926969 269.945816 
L 118.551325 282.317977 
L 119.092777 285.298315 
L 119.634229 287.137721 
L 119.904955 287.605225 
L 120.175681 287.816715 
L 120.446407 287.800019 
L 120.717133 287.368691 
L 121.258585 285.559895 
L 122.070762 281.235482 
L 124.23657 268.220503 
L 124.778022 266.267004 
L 125.048748 265.777238 
L 125.5902 265.774455 
L 125.860925 266.197435 
L 126.402377 267.992316 
L 127.214555 272.144198 
L 128.026733 276.070676 
L 128.568185 277.420315 
L 128.838911 277.512146 
L 129.109637 277.158736 
L 129.380363 276.343386 
L 129.921815 273.530014 
L 130.19254 271.95497 
L 131.275444 260.169972 
L 132.087622 251.493319 
L 132.358348 250.572224 
L 132.8998 244.439016 
L 133.441252 240.2927 
L 133.982704 237.512721 
L 134.25343 237.312362 
L 134.524155 238.155539 
L 134.794881 237.348538 
L 135.065607 237.137048 
L 135.336333 237.176006 
L 136.148511 237.777083 
L 136.419237 237.980225 
L 136.689963 238.336418 
L 136.960689 238.948626 
L 137.772867 237.994139 
L 138.314319 236.833727 
L 138.855771 235.325469 
L 139.126496 235.027714 
L 139.397222 235.269814 
L 139.938674 233.499977 
L 140.480126 232.720804 
L 140.750852 232.651235 
L 141.021578 232.840463 
L 141.292304 233.319098 
L 141.833756 235.189114 
L 142.375208 238.261284 
L 143.458111 245.104096 
L 148.060452 273.858379 
L 149.955534 287.427129 
L 150.496986 289.69508 
L 150.767712 290.234936 
L 151.038438 290.393553 
L 151.309164 290.223805 
L 151.57989 289.759083 
L 152.121342 287.577398 
L 152.933519 282.465463 
L 153.474971 278.294103 
L 154.557875 269.862333 
L 155.099327 266.765118 
L 155.370053 265.83011 
L 155.640779 265.529572 
L 155.911505 264.864492 
L 156.182231 264.63074 
L 156.452957 264.689178 
L 156.994408 265.382085 
L 157.806586 266.781815 
L 158.077312 267.043395 
L 158.348038 267.085136 
L 158.618764 266.848601 
L 159.160216 265.838458 
L 159.701668 262.724547 
L 160.24312 258.327783 
L 161.055297 250.524917 
L 161.326023 249.242064 
L 162.138201 239.098895 
L 162.950379 231.499171 
L 163.221105 230.981577 
L 163.762557 227.475297 
L 164.304009 226.008781 
L 164.574735 225.816771 
L 164.845461 225.94756 
L 165.116187 226.612641 
L 165.386912 227.967846 
L 165.657638 228.574488 
L 166.740542 232.598362 
L 167.55272 235.253118 
L 168.364898 237.036868 
L 168.90635 237.835521 
L 169.718528 238.817836 
L 170.259979 239.880851 
L 170.801431 241.622861 
L 171.342883 244.263702 
L 174.320868 262.198605 
L 175.674498 271.601559 
L 177.840306 288.824075 
L 178.381758 291.203337 
L 178.652483 291.876766 
L 178.923209 292.035383 
L 179.193935 291.74041 
L 179.464661 291.02524 
L 180.006113 288.626499 
L 180.818291 282.729826 
L 181.359743 278.216185 
L 182.442647 268.969066 
L 182.984098 265.590793 
L 183.254824 264.69196 
L 183.52555 264.508298 
L 183.796276 263.793128 
L 184.067002 263.601118 
L 184.337728 263.759735 
L 184.87918 264.77266 
L 185.962084 267.321671 
L 186.23281 267.58325 
L 186.503536 267.547075 
L 186.774262 267.160271 
L 187.315714 265.810631 
L 187.857165 262.006595 
L 188.669343 253.933801 
L 189.210795 248.443411 
L 189.481521 247.269085 
L 190.293699 236.758592 
L 190.835151 231.401775 
L 191.105877 229.548455 
L 191.376603 229.272961 
L 191.647329 227.419642 
L 191.918054 226.337147 
L 192.18878 225.744419 
L 192.459506 225.54406 
L 192.730232 225.691546 
L 193.000958 226.147919 
L 193.271684 226.929875 
L 193.813136 229.242351 
L 195.437492 235.85976 
L 195.978944 237.265055 
L 196.791121 238.531212 
L 197.603299 239.221337 
L 198.144751 239.997727 
L 198.686203 241.419719 
L 199.227655 243.757239 
L 201.664188 258.319435 
L 203.288544 269.133249 
L 204.642174 279.96376 
L 205.725077 288.492927 
L 206.266529 291.030806 
L 206.537255 291.734845 
L 206.807981 292.085473 
L 207.078707 291.92129 
L 207.349433 291.306299 
L 207.890885 288.9493 
L 208.432337 285.412409 
L 209.51524 276.207031 
L 210.327418 269.264039 
L 210.86887 265.852372 
L 211.139596 264.92293 
L 211.410322 264.708657 
L 211.681048 263.910004 
L 211.951774 263.634511 
L 212.2225 263.70408 
L 212.493226 264.029663 
L 213.034678 265.16503 
L 213.846855 266.884777 
L 214.117581 267.138008 
L 214.388307 267.112964 
L 214.659033 266.759553 
L 214.929759 266.205783 
L 215.471211 263.487024 
L 216.012663 259.287836 
L 216.824841 251.462708 
L 217.095567 250.05463 
L 217.907745 239.641534 
L 218.719922 231.691182 
L 218.990648 231.126281 
L 219.5321 227.369552 
L 220.073552 225.761115 
L 220.344278 225.530146 
L 220.615004 225.649805 
L 220.88573 226.353844 
L 221.156456 227.775835 
L 221.427182 228.421436 
L 222.23936 231.643875 
L 223.322263 235.659401 
L 223.863715 237.006258 
L 224.405167 237.988573 
L 225.758797 239.499613 
L 226.300249 240.68507 
L 226.841701 242.660831 
L 227.653878 247.191168 
L 230.361138 263.787563 
L 231.714767 273.474358 
L 233.609849 288.671023 
L 234.151301 291.133768 
L 234.422027 291.798848 
L 234.692753 292.107735 
L 234.963479 291.899028 
L 235.234205 291.242296 
L 235.775656 288.812944 
L 236.317108 285.217615 
L 237.400012 276.003889 
L 238.21219 269.074811 
L 238.753642 265.69932 
L 239.024368 264.797705 
L 239.295094 264.605695 
L 239.56582 263.840435 
L 239.836546 263.595552 
L 240.107272 263.692949 
L 240.648723 264.572302 
L 241.731627 266.929301 
L 242.002353 267.171402 
L 242.273079 267.126877 
L 242.543805 266.75677 
L 242.814531 266.186304 
L 243.355983 263.403541 
L 243.897435 259.145915 
L 244.709612 251.27348 
L 244.980338 249.879316 
L 245.792516 239.452306 
L 246.604694 231.546478 
L 246.87542 231.001057 
L 247.416872 227.299983 
L 247.958324 225.749984 
L 248.22905 225.546843 
L 248.499776 225.694329 
L 248.770502 226.403933 
L 249.041227 227.823142 
L 249.311953 228.493788 
L 250.394857 232.876639 
L 251.207035 235.767929 
L 251.748487 237.100872 
L 252.289939 238.063708 
L 253.643568 239.555268 
L 254.18502 240.749073 
L 254.726472 242.744314 
L 255.53865 247.29413 
L 258.245909 263.926701 
L 259.599539 273.632976 
L 261.494621 288.79903 
L 262.036073 291.208903 
L 262.306798 291.843372 
L 262.577524 292.118866 
L 262.84825 291.879548 
L 263.118976 291.194989 
L 263.660428 288.709982 
L 264.20188 285.075694 
L 265.284784 275.856403 
L 266.096962 268.77149 
L 266.638413 265.48783 
L 266.909139 264.666915 
L 267.179865 264.552822 
L 267.450591 263.904439 
L 267.721317 263.762518 
L 267.992043 263.954528 
L 268.533495 264.973019 
L 269.345673 266.923736 
L 269.616399 267.355064 
L 269.887125 267.549857 
L 270.157851 267.444112 
L 270.699303 266.378314 
L 271.240754 263.375714 
L 271.782206 258.90938 
L 272.594384 250.847718 
L 272.86511 249.484164 
L 273.677288 238.937495 
L 274.489466 231.109585 
L 274.760192 230.625384 
L 275.301644 227.021707 
L 275.572369 226.103395 
L 275.843095 225.588584 
L 276.113821 225.441098 
L 276.384547 225.635891 
L 276.655273 226.367758 
L 276.925999 227.784184 
L 277.467451 229.503931 
L 278.821081 234.871879 
L 279.362533 236.39405 
L 280.17471 237.902307 
L 281.257614 238.920798 
L 281.799066 239.830762 
L 282.340518 241.439198 
L 282.88197 243.990991 
L 285.589229 260.303544 
L 287.213585 271.456856 
L 289.379392 288.709982 
L 289.920844 291.139334 
L 290.19157 291.84059 
L 290.462296 292.027035 
L 290.733022 291.75989 
L 291.003748 291.069765 
L 291.5452 288.71833 
L 292.357378 282.85505 
L 292.89883 278.344192 
L 293.981733 269.088725 
L 294.523185 265.685407 
L 294.793911 264.769878 
L 295.064637 264.577867 
L 295.335363 263.837652 
L 295.606089 263.626162 
L 295.876815 263.7653 
L 296.418267 264.739267 
L 297.50117 267.246536 
L 297.771896 267.505333 
L 298.042622 267.469157 
L 298.313348 267.087919 
L 298.8548 265.757758 
L 299.396252 261.970419 
L 300.20843 253.931018 
L 300.749882 248.451759 
L 301.020608 247.277434 
L 301.832785 236.76694 
L 302.374237 231.396209 
L 302.644963 229.534541 
L 302.915689 229.256265 
L 303.457141 226.295406 
L 303.727867 225.688763 
L 303.998593 225.474491 
L 304.269319 225.610846 
L 304.540045 226.058871 
L 304.810771 226.838044 
L 305.352223 229.147737 
L 306.976578 235.77906 
L 307.51803 237.201051 
L 308.059482 238.11658 
L 308.600934 238.717657 
L 309.413112 239.549703 
L 309.954564 240.621066 
L 310.496016 242.485517 
L 311.037467 245.340631 
L 314.286179 265.379303 
L 315.369082 273.260086 
L 317.264164 288.515189 
L 317.805616 291.053068 
L 318.076342 291.75989 
L 318.347068 292.110518 
L 318.617794 291.943552 
L 318.88852 291.325779 
L 319.429971 288.963213 
L 319.971423 285.417974 
L 321.054327 276.201465 
L 321.866505 269.250125 
L 322.407957 265.83011 
L 322.678683 264.90345 
L 322.949409 264.689178 
L 323.220135 263.890525 
L 323.490861 263.615031 
L 323.761587 263.6846 
L 324.032312 264.012966 
L 324.573764 265.156682 
L 325.385942 266.893125 
L 325.656668 267.151922 
L 325.927394 267.132443 
L 326.19812 266.781815 
L 326.468846 266.225262 
L 327.010298 263.517635 
L 327.55175 259.324012 
L 328.363927 251.498884 
L 328.634653 250.085241 
L 329.446831 239.666579 
L 330.259009 231.710661 
L 330.529735 231.142978 
L 331.071187 227.383466 
L 331.612639 225.769464 
L 331.883365 225.538494 
L 332.154091 225.658153 
L 332.424817 226.364975 
L 332.695542 227.786966 
L 332.966268 228.432567 
L 333.778446 231.657789 
L 334.86135 235.676098 
L 335.402802 237.020172 
L 335.944254 238.002487 
L 337.297883 239.49683 
L 337.839335 240.673939 
L 338.380787 242.644134 
L 339.192965 247.174471 
L 341.629498 261.998246 
L 342.983128 271.33998 
L 345.419662 290.079101 
L 345.961113 291.784934 
L 346.231839 292.099387 
L 346.502565 291.893462 
L 346.773291 291.242296 
L 347.314743 288.821293 
L 347.856195 285.234312 
L 348.939099 276.023369 
L 349.751277 269.097073 
L 350.292728 265.7188 
L 350.563454 264.814402 
L 350.83418 264.619609 
L 351.104906 263.851566 
L 351.375632 263.6039 
L 351.646358 263.698514 
L 352.18781 264.575084 
L 353.270714 266.926519 
L 353.54144 267.168619 
L 353.812166 267.126877 
L 354.082892 266.75677 
L 354.353618 266.189086 
L 354.895069 263.409107 
L 355.436521 259.157046 
L 356.248699 251.290177 
L 356.519425 249.89323 
L 357.331603 239.469003 
L 358.143781 231.563175 
L 358.414507 231.014971 
L 358.955959 227.311114 
L 359.49741 225.752767 
L 359.768136 225.549625 
L 360.038862 225.691546 
L 360.309588 226.401151 
L 360.580314 227.820359 
L 360.85104 228.488222 
L 361.933944 232.865508 
L 362.746122 235.754015 
L 363.287574 237.086958 
L 363.829025 238.052577 
L 365.182655 239.54692 
L 365.724107 240.740725 
L 366.265559 242.735966 
L 367.077737 247.282999 
L 369.784996 263.912787 
L 371.138626 273.616279 
L 373.033707 288.785117 
L 373.575159 291.200554 
L 373.845885 291.837807 
L 374.116611 292.118866 
L 374.387337 291.882331 
L 374.658063 291.200554 
L 375.199515 288.721113 
L 375.740967 285.089608 
L 376.82387 275.873099 
L 377.636048 268.785404 
L 378.1775 265.498961 
L 378.448226 264.678047 
L 378.718952 264.561171 
L 378.989678 263.910004 
L 379.260404 263.768083 
L 379.53113 263.957311 
L 380.072582 264.973019 
L 380.88476 266.920953 
L 381.155485 267.355064 
L 381.426211 267.55264 
L 381.696937 267.446895 
L 382.238389 266.38388 
L 382.779841 263.389628 
L 383.321293 258.92886 
L 384.133471 250.872763 
L 384.404197 249.506426 
L 385.216375 238.96254 
L 386.028552 231.131847 
L 386.299278 230.64208 
L 386.84073 227.03562 
L 387.111456 226.114526 
L 387.382182 225.59415 
L 387.652908 225.446663 
L 387.923634 225.638674 
L 388.19436 226.367758 
L 388.465086 227.786966 
L 389.006538 229.501148 
L 390.360167 234.866314 
L 390.901619 236.385702 
L 391.713797 237.896742 
L 392.796701 238.915233 
L 393.338153 239.825196 
L 393.879605 241.43085 
L 394.421056 243.977078 
L 397.128316 260.286848 
L 398.752671 271.437376 
L 400.918479 288.693285 
L 401.459931 291.128203 
L 401.730657 291.832241 
L 402.001383 292.024252 
L 402.272109 291.75989 
L 402.542835 291.07533 
L 403.084286 288.732244 
L 403.896464 282.871747 
L 404.437916 278.360889 
L 405.52082 269.105421 
L 406.062272 265.69932 
L 406.332998 264.783792 
L 406.603724 264.586215 
L 406.87445 263.846001 
L 407.145176 263.631728 
L 407.415902 263.768083 
L 407.957353 264.739267 
L 409.040257 267.246536 
L 409.310983 267.508116 
L 409.581709 267.474723 
L 409.852435 267.096267 
L 410.393887 265.768889 
L 410.935339 261.989898 
L 411.747517 253.956063 
L 412.288968 248.476804 
L 412.559694 247.299696 
L 413.371872 236.789202 
L 413.913324 231.415688 
L 414.18405 229.551238 
L 414.454776 229.270179 
L 414.996228 226.303754 
L 415.266954 225.694329 
L 415.53768 225.477274 
L 415.808406 225.608063 
L 416.079132 226.056088 
L 416.349857 226.835262 
L 416.891309 229.142172 
L 418.515665 235.767929 
L 419.057117 237.18992 
L 419.869295 238.481122 
L 420.952198 239.538572 
L 421.49365 240.609935 
L 422.035102 242.46882 
L 422.576554 245.323935 
L 425.825265 265.357041 
L 426.908169 273.237823 
L 428.803251 288.495709 
L 429.344703 291.041937 
L 429.615428 291.751541 
L 429.886154 292.107735 
L 430.15688 291.943552 
L 430.427606 291.331344 
L 430.969058 288.977127 
L 431.51051 285.440236 
L 432.593414 276.223727 
L 433.405592 269.269604 
L 433.947043 265.849589 
L 434.217769 264.917364 
L 434.488495 264.703091 
L 434.759221 263.898873 
L 435.029947 263.617814 
L 435.300673 263.687383 
L 435.571399 264.012966 
L 436.112851 265.153899 
L 436.925029 266.893125 
L 437.195755 267.154705 
L 437.466481 267.138008 
L 437.737207 266.790163 
L 438.278658 265.554617 
L 438.82011 261.903632 
L 439.632288 254.067374 
L 440.17374 248.657684 
L 440.444466 247.469444 
L 441.256644 237.036868 
L 441.798096 231.64944 
L 442.068822 229.757162 
L 442.339548 229.439927 
L 442.880999 226.398368 
L 443.151725 225.747202 
L 443.422451 225.488405 
L 443.693177 225.580236 
L 443.963903 225.989302 
L 444.234629 226.757344 
L 444.776081 229.036427 
L 446.671163 236.502578 
L 447.212614 237.715862 
L 448.024792 238.898536 
L 448.566244 239.402216 
L 449.107696 240.209217 
L 449.649148 241.622861 
L 450.1906 243.921422 
L 452.356407 256.716564 
L 454.251489 269.241777 
L 455.605119 280.102898 
L 456.688022 288.612585 
L 457.229474 291.111506 
L 457.5002 291.796065 
L 457.770926 292.121649 
L 458.041652 291.932421 
L 458.312378 291.295168 
L 458.85383 288.890862 
L 459.395282 285.315012 
L 460.478185 276.090155 
L 461.290363 269.141597 
L 461.831815 265.746627 
L 462.102541 264.833881 
L 462.373267 264.633522 
L 462.643993 263.851566 
L 462.914719 263.592769 
L 463.185445 263.676252 
L 463.456171 264.018532 
L 463.997623 265.173378 
L 464.8098 266.895908 
L 465.080526 267.143574 
L 465.351252 267.110181 
L 465.621978 266.748422 
L 465.892704 266.186304 
L 466.434156 263.428586 
L 466.975608 259.196005 
L 467.787786 251.340267 
L 468.058512 249.940537 
L 468.87069 239.513527 
L 469.682867 231.58822 
L 469.953593 231.03445 
L 470.495045 227.308331 
L 471.036497 225.73607 
L 471.307223 225.521798 
L 471.577949 225.658153 
L 471.848675 226.367758 
L 472.119401 227.789749 
L 472.390127 228.452046 
L 473.202305 231.702313 
L 474.014482 234.866314 
L 474.555934 236.463619 
L 475.368112 238.041445 
L 476.721742 239.544137 
L 477.263194 240.737942 
L 477.804646 242.724834 
L 478.616823 247.266303 
L 481.324083 263.887742 
L 482.677712 273.591234 
L 484.572794 288.765637 
L 485.114246 291.192206 
L 485.384972 291.835024 
L 485.655698 292.118866 
L 485.926424 291.890679 
L 486.19715 291.211685 
L 486.738601 288.740592 
L 487.280053 285.114653 
L 488.362957 275.895362 
L 489.175135 268.807666 
L 489.716587 265.515658 
L 489.987313 264.69196 
L 490.258039 264.569519 
L 490.528765 263.91557 
L 490.799491 263.768083 
L 491.070217 263.954528 
L 491.611668 264.967454 
L 492.423846 266.91817 
L 492.694572 267.352281 
L 492.965298 267.55264 
L 493.236024 267.452461 
L 493.777476 266.395011 
L 494.318928 263.41189 
L 494.86038 258.962253 
L 495.672557 250.914504 
L 495.943283 249.545385 
L 496.755461 239.004281 
L 497.567639 231.16524 
L 497.838365 230.672691 
L 498.109091 228.474309 
L 498.109091 228.474309 
" style="fill:none;stroke:#00bfbf;stroke-linecap:square;stroke-width:1.5;"/>
   </g>
   <g id="line2d_31">
    <path clip-path="url(#p66c889360d)" d="M 92.290909 369.36 
L 92.561635 369.36 
L 92.832361 369.36 
L 93.103087 368.160629 
L 93.644539 358.980296 
L 94.727443 334.561557 
L 98.517606 234.9331 
L 99.059058 224.834455 
L 99.600509 218.178088 
L 100.141961 214.25161 
L 100.683413 211.953049 
L 101.224865 211.290751 
L 101.495591 211.140482 
L 101.766317 211.137699 
L 102.307769 211.454934 
L 102.578495 211.819476 
L 103.119947 212.751701 
L 104.20285 214.287786 
L 108.534465 222.076738 
L 108.805191 222.257618 
L 109.075917 222.196397 
L 109.346643 221.881945 
L 109.617369 221.278085 
L 110.158821 219.132575 
L 110.700273 215.720909 
L 111.512451 207.648115 
L 112.595354 194.118325 
L 114.21971 171.614126 
L 115.031888 162.141603 
L 115.844066 155.732901 
L 116.385518 152.404717 
L 116.926969 150.403911 
L 117.197695 150.075545 
L 117.739147 149.101579 
L 118.280599 148.511633 
L 118.551325 148.430933 
L 119.092777 147.857684 
L 119.634229 146.830844 
L 120.175681 145.528512 
L 120.717133 142.88767 
L 121.52931 137.277621 
L 122.341488 129.40797 
L 123.424392 117.294605 
L 125.048748 98.49148 
L 125.860925 92.230265 
L 126.402377 89.820393 
L 126.673103 89.146964 
L 126.943829 88.790771 
L 127.214555 88.704505 
L 127.485281 88.832512 
L 128.026733 89.469765 
L 128.568185 90.162672 
L 128.838911 90.360248 
L 129.109637 90.385293 
L 129.380363 90.193283 
L 129.651089 89.745258 
L 130.19254 88.231435 
L 130.733992 85.515459 
L 131.54617 79.82471 
L 132.087622 75.828664 
L 133.711978 67.666822 
L 133.982704 67.065745 
L 134.25343 66.96 
L 134.794881 68.045277 
L 135.336333 69.926425 
L 136.148511 74.289796 
L 138.585045 89.400195 
L 139.938674 95.074248 
L 141.292304 99.724244 
L 142.104482 103.519932 
L 144.811741 118.580241 
L 145.623919 121.491011 
L 146.436097 123.425031 
L 146.977549 124.257076 
L 148.331178 125.706896 
L 148.87263 126.717038 
L 149.955534 128.16964 
L 150.22626 128.147378 
L 150.496986 127.880233 
L 151.038438 126.764345 
L 151.309164 126.024131 
L 151.850616 123.082751 
L 152.662793 116.893887 
L 153.474971 107.933393 
L 155.370053 86.202802 
L 156.182231 80.400742 
L 156.723682 78.188446 
L 157.265134 77.214479 
L 157.53586 77.100386 
L 157.806586 77.172738 
L 158.348038 77.640242 
L 159.160216 78.441677 
L 159.430942 78.488984 
L 159.701668 78.358195 
L 159.972394 78.029829 
L 160.513846 76.783151 
L 162.138201 71.139709 
L 162.950379 68.273464 
L 163.491831 67.850484 
L 163.762557 67.869963 
L 164.033283 68.184415 
L 164.304009 68.810537 
L 164.845461 71.008919 
L 165.386912 74.673817 
L 166.19909 81.652985 
L 168.364898 101.435643 
L 169.177076 106.892639 
L 169.989253 110.972169 
L 171.613609 117.453223 
L 172.696513 121.226648 
L 173.508691 123.213541 
L 174.050143 124.101242 
L 174.591594 124.666143 
L 175.133046 125.125298 
L 175.674498 126.107613 
L 176.757402 127.919192 
L 177.298854 129.062907 
L 177.840306 129.605546 
L 178.381758 129.878256 
L 178.652483 129.505366 
L 179.193935 127.79675 
L 179.735387 125.200433 
L 180.276839 120.864889 
L 181.089017 112.427554 
L 183.254824 85.846608 
L 184.067002 79.819145 
L 184.608454 77.612414 
L 184.87918 77.041948 
L 185.149906 76.780368 
L 185.420632 76.783151 
L 185.691358 76.994641 
L 186.503536 78.23297 
L 187.315714 79.254244 
L 187.586439 79.25981 
L 187.857165 79.02884 
L 188.127891 78.561336 
L 188.669343 76.944551 
L 189.210795 74.838 
L 189.481521 74.178485 
L 191.105877 67.811525 
L 191.647329 67.652908 
L 191.918054 67.864398 
L 192.18878 68.401471 
L 192.730232 70.477412 
L 193.271684 73.841771 
L 194.083862 80.940598 
L 196.249669 101.524691 
L 197.061847 107.073519 
L 197.874025 111.064 
L 199.227655 116.006186 
L 200.581284 120.66453 
L 201.393462 122.690381 
L 201.934914 123.63652 
L 202.476366 124.265425 
L 203.017818 124.713449 
L 203.55927 125.445316 
L 204.100722 126.469372 
L 204.9129 127.87745 
L 205.454351 128.957162 
L 205.995803 129.293876 
L 206.537255 129.22709 
L 206.807981 128.637144 
L 207.349433 126.44711 
L 207.890885 123.355461 
L 208.432337 118.516238 
L 209.51524 105.952066 
L 210.86887 89.035654 
L 211.410322 83.848585 
L 211.951774 79.991676 
L 212.493226 77.637459 
L 212.763952 76.994641 
L 213.034678 76.660709 
L 213.305404 76.596706 
L 213.57613 76.744192 
L 214.117581 77.445448 
L 214.929759 78.60586 
L 215.200485 78.783957 
L 215.471211 78.781174 
L 215.741937 78.57525 
L 216.012663 78.155053 
L 216.554115 76.682972 
L 217.637019 72.995812 
L 218.719922 68.607395 
L 219.261374 67.972925 
L 219.5321 67.878312 
L 219.802826 68.081453 
L 220.073552 68.607395 
L 220.615004 70.641595 
L 221.156456 74.236924 
L 221.968634 81.230005 
L 224.134441 101.427294 
L 224.946619 106.926033 
L 225.758797 110.95269 
L 227.112426 116.086886 
L 228.466056 120.831496 
L 229.278234 122.851781 
L 229.819686 123.784007 
L 230.361138 124.396215 
L 230.90259 124.838674 
L 231.444041 125.578889 
L 231.985493 126.602945 
L 232.797671 128.013806 
L 233.068397 128.701148 
L 233.609849 129.313356 
L 234.151301 129.380142 
L 234.422027 129.27718 
L 234.692753 128.659406 
L 235.234205 126.405369 
L 235.775656 123.246934 
L 236.317108 118.340924 
L 237.400012 105.709965 
L 238.753642 88.81025 
L 239.295094 83.667705 
L 239.836546 79.866452 
L 240.377997 77.576238 
L 240.648723 76.961248 
L 240.919449 76.655144 
L 241.190175 76.613403 
L 241.460901 76.783151 
L 242.002353 77.509452 
L 242.814531 78.675429 
L 243.085257 78.845178 
L 243.355983 78.831264 
L 243.626709 78.608643 
L 243.897435 78.171749 
L 244.438887 76.663492 
L 245.52179 72.948505 
L 246.604694 68.574002 
L 247.146146 67.96736 
L 247.416872 67.889443 
L 247.687598 68.114846 
L 247.958324 68.663051 
L 248.499776 70.741774 
L 249.041227 74.367713 
L 249.853405 81.402537 
L 252.019213 101.588694 
L 252.831391 107.048474 
L 253.643568 111.036173 
L 255.267924 117.155467 
L 256.350828 120.856541 
L 257.163006 122.865695 
L 257.704458 123.789572 
L 258.245909 124.393432 
L 258.787361 124.835891 
L 259.328813 125.581671 
L 259.870265 126.605728 
L 260.682443 128.019371 
L 260.953169 128.703931 
L 261.494621 129.305007 
L 262.036073 129.343966 
L 262.306798 129.224307 
L 262.577524 128.587055 
L 263.118976 126.282927 
L 263.660428 123.077185 
L 264.20188 118.126651 
L 265.284784 105.453951 
L 266.367688 91.453874 
L 267.179865 83.325425 
L 267.721317 79.646613 
L 268.262769 77.495538 
L 268.533495 76.950117 
L 268.804221 76.708016 
L 269.074947 76.72193 
L 269.616399 77.278483 
L 270.699303 78.811785 
L 270.970029 78.937009 
L 271.240754 78.864657 
L 271.51148 78.578033 
L 272.052932 77.339704 
L 273.406562 72.547787 
L 274.21874 69.00533 
L 274.489466 68.156588 
L 275.030918 67.616732 
L 275.301644 67.583339 
L 275.572369 67.861615 
L 275.843095 68.465474 
L 276.384547 70.666639 
L 276.925999 74.389975 
L 277.738177 81.54724 
L 279.903984 101.758443 
L 280.716162 107.170916 
L 281.52834 111.108524 
L 283.152696 117.255646 
L 284.235599 120.970634 
L 285.047777 122.968657 
L 285.589229 123.878621 
L 286.130681 124.468566 
L 286.672133 124.916591 
L 287.213585 125.901689 
L 288.296489 127.707702 
L 288.83794 128.856983 
L 289.379392 129.410752 
L 289.920844 129.714073 
L 290.19157 129.35788 
L 290.462296 128.676103 
L 291.003748 126.494417 
L 291.274474 125.139212 
L 291.815926 120.84541 
L 292.628104 112.452599 
L 294.793911 85.891132 
L 295.606089 79.827493 
L 296.147541 77.587369 
L 296.418267 77.000206 
L 296.688993 76.724713 
L 296.959719 76.713582 
L 297.230445 76.911158 
L 297.771896 77.681983 
L 298.584074 78.864657 
L 298.8548 79.148499 
L 299.125526 79.15963 
L 299.396252 78.934226 
L 299.666978 78.477853 
L 300.20843 76.88333 
L 300.749882 74.796259 
L 301.020608 74.145092 
L 302.644963 67.808743 
L 303.186415 67.647342 
L 303.457141 67.856049 
L 303.727867 68.387557 
L 304.269319 70.452367 
L 304.810771 73.808378 
L 305.622949 80.901639 
L 307.788756 101.521908 
L 308.600934 107.095781 
L 309.413112 111.116873 
L 310.496016 115.129616 
L 312.391097 121.491011 
L 313.203275 123.26363 
L 313.744727 124.040021 
L 315.098356 125.492623 
L 315.639808 126.516679 
L 316.451986 127.92754 
L 316.993438 129.007252 
L 317.53489 129.346749 
L 318.076342 129.279962 
L 318.347068 128.6928 
L 318.88852 126.499983 
L 319.429971 123.402768 
L 319.971423 118.560762 
L 321.054327 105.985459 
L 322.407957 89.049567 
L 322.949409 83.856933 
L 323.490861 79.994459 
L 324.032312 77.640242 
L 324.303038 76.994641 
L 324.573764 76.663492 
L 324.84449 76.599489 
L 325.115216 76.752541 
L 325.656668 77.459362 
L 326.468846 78.628122 
L 326.739572 78.809002 
L 327.010298 78.806219 
L 327.281024 78.603078 
L 327.55175 78.18288 
L 328.093202 76.713582 
L 329.176105 73.018074 
L 330.259009 68.618526 
L 330.800461 67.975708 
L 331.071187 67.878312 
L 331.341913 68.07867 
L 331.612639 68.60183 
L 332.154091 70.630464 
L 332.695542 74.22301 
L 333.50772 81.213309 
L 335.673528 101.410598 
L 336.485706 106.909336 
L 337.297883 110.93321 
L 338.651513 116.059059 
L 340.005143 120.803668 
L 340.817321 122.829519 
L 341.358773 123.764528 
L 341.900224 124.379518 
L 342.441676 124.82476 
L 342.983128 125.562192 
L 343.52458 126.586249 
L 344.336758 127.997109 
L 344.607484 128.684451 
L 345.148936 129.296659 
L 345.690388 129.366228 
L 345.961113 129.266049 
L 346.231839 128.651058 
L 346.773291 126.402586 
L 347.314743 123.249716 
L 347.856195 118.354838 
L 348.939099 105.732228 
L 350.292728 88.832512 
L 350.83418 83.687184 
L 351.375632 79.883148 
L 351.917084 77.584587 
L 352.18781 76.966813 
L 352.458536 76.660709 
L 352.729262 76.616185 
L 352.999988 76.783151 
L 353.54144 77.506669 
L 354.353618 78.669864 
L 354.624344 78.839612 
L 354.895069 78.825699 
L 355.165795 78.603078 
L 355.436521 78.166184 
L 355.977973 76.663492 
L 357.060877 72.951287 
L 358.143781 68.576785 
L 358.685233 67.96736 
L 358.955959 67.889443 
L 359.226684 68.112064 
L 359.49741 68.657485 
L 360.038862 70.733426 
L 360.580314 74.356582 
L 361.392492 81.38584 
L 363.558299 101.571998 
L 364.370477 107.03456 
L 365.182655 111.025042 
L 366.536285 116.128628 
L 367.889914 120.853758 
L 368.702092 122.862913 
L 369.243544 123.789572 
L 369.784996 124.393432 
L 370.326448 124.835891 
L 370.8679 125.581671 
L 371.409352 126.605728 
L 372.22153 128.019371 
L 372.492255 128.703931 
L 373.033707 129.305007 
L 373.575159 129.346749 
L 373.845885 129.229873 
L 374.116611 128.595403 
L 374.658063 126.296841 
L 375.199515 123.096665 
L 375.740967 118.148913 
L 376.82387 105.481779 
L 377.906774 91.481702 
L 378.718952 83.347687 
L 379.260404 79.66331 
L 379.801856 77.506669 
L 380.072582 76.958465 
L 380.343308 76.716365 
L 380.614034 76.724713 
L 381.155485 77.278483 
L 382.238389 78.811785 
L 382.509115 78.937009 
L 382.779841 78.864657 
L 383.050567 78.580816 
L 383.592019 77.345269 
L 384.945649 72.556135 
L 385.757826 69.013679 
L 386.028552 68.162153 
L 386.570004 67.616732 
L 386.84073 67.583339 
L 387.111456 67.861615 
L 387.382182 68.462692 
L 387.923634 70.658291 
L 388.465086 74.376062 
L 389.277264 81.527761 
L 391.443071 101.738964 
L 392.255249 107.151436 
L 393.067427 111.094611 
L 394.691782 117.241733 
L 395.774686 120.959503 
L 396.586864 122.963092 
L 397.128316 123.873055 
L 397.669768 124.465784 
L 398.21122 124.911026 
L 398.752671 125.896123 
L 399.835575 127.699353 
L 400.377027 128.851417 
L 400.918479 129.40797 
L 401.459931 129.714073 
L 401.730657 129.360663 
L 402.001383 128.681669 
L 402.542835 126.505548 
L 402.813561 125.150343 
L 403.355012 120.864889 
L 404.16719 112.477643 
L 406.332998 85.916177 
L 407.145176 79.841407 
L 407.686627 77.5985 
L 407.957353 77.008555 
L 408.228079 76.730279 
L 408.498805 76.716365 
L 408.769531 76.911158 
L 409.310983 77.681983 
L 410.123161 78.861874 
L 410.393887 79.148499 
L 410.664613 79.15963 
L 410.935339 78.937009 
L 411.206065 78.480636 
L 411.747517 76.888896 
L 412.288968 74.804607 
L 412.559694 74.153441 
L 414.18405 67.808743 
L 414.725502 67.64456 
L 414.996228 67.850484 
L 415.266954 68.379209 
L 415.808406 70.438453 
L 416.349857 73.788899 
L 417.162035 80.88216 
L 419.327843 101.499646 
L 420.140021 107.079085 
L 420.952198 111.100176 
L 422.035102 115.118485 
L 423.930184 121.485445 
L 424.742362 123.260848 
L 425.283813 124.037238 
L 426.637443 125.48984 
L 427.178895 126.513897 
L 427.991073 127.924757 
L 428.532525 129.004469 
L 429.073977 129.346749 
L 429.615428 129.285528 
L 429.886154 128.701148 
L 430.427606 126.513897 
L 430.969058 123.425031 
L 431.51051 118.58859 
L 432.593414 106.021635 
L 433.947043 89.085743 
L 434.488495 83.884761 
L 435.029947 80.016721 
L 435.571399 77.654156 
L 435.842125 77.005772 
L 436.112851 76.669058 
L 436.383577 76.605054 
L 436.654303 76.752541 
L 437.195755 77.459362 
L 438.007933 78.62534 
L 438.278658 78.928661 
L 438.549384 78.967619 
L 438.82011 78.783957 
L 439.090836 78.372108 
L 439.632288 76.880548 
L 440.17374 74.890873 
L 440.444466 74.267534 
L 442.068822 68.036929 
L 442.610274 67.847701 
L 442.880999 68.031363 
L 443.151725 68.532261 
L 443.693177 70.524719 
L 444.234629 73.808378 
L 445.046807 80.826505 
L 447.48334 103.486538 
L 448.295518 108.606821 
L 449.107696 112.291198 
L 451.273504 120.032843 
L 452.085681 122.247922 
L 452.897859 123.733917 
L 453.439311 124.334994 
L 453.980763 124.77467 
L 454.522215 125.517668 
L 455.063667 126.538942 
L 455.875845 127.949802 
L 456.14657 128.639927 
L 456.688022 129.260483 
L 457.229474 129.346749 
L 457.5002 129.2577 
L 457.770926 128.653841 
L 458.312378 126.427631 
L 458.85383 123.294241 
L 459.395282 118.416058 
L 460.478185 105.804579 
L 461.831815 88.882602 
L 462.373267 83.720578 
L 462.914719 79.894279 
L 463.456171 77.576238 
L 463.726897 76.950117 
L 463.997623 76.632882 
L 464.268349 76.582792 
L 464.539075 76.746975 
L 465.080526 77.464928 
L 465.892704 78.636471 
L 466.16343 78.811785 
L 466.434156 78.803436 
L 466.704882 78.589164 
L 466.975608 78.160618 
L 467.51706 76.669058 
L 468.599964 72.967984 
L 469.682867 68.587916 
L 470.224319 67.970143 
L 470.495045 67.88666 
L 470.765771 68.103715 
L 471.036497 68.640788 
L 471.577949 70.705598 
L 472.119401 74.320406 
L 472.931579 81.341316 
L 475.097386 101.546953 
L 475.909564 107.023429 
L 476.721742 111.025042 
L 478.075371 116.136976 
L 479.429001 120.862106 
L 480.241179 122.871261 
L 480.782631 123.795138 
L 481.324083 124.398997 
L 481.865535 124.841457 
L 482.406986 125.587237 
L 482.948438 126.611293 
L 483.760616 128.024937 
L 484.031342 128.709496 
L 484.572794 129.313356 
L 485.114246 129.360663 
L 485.384972 129.243787 
L 485.655698 128.612099 
L 486.19715 126.324669 
L 486.738601 123.130058 
L 487.280053 118.190655 
L 488.362957 105.529086 
L 489.445861 91.526226 
L 490.258039 83.381081 
L 490.799491 79.688355 
L 491.340942 77.523366 
L 491.611668 76.972379 
L 491.882394 76.724713 
L 492.15312 76.730279 
L 492.694572 77.281265 
L 493.777476 78.811785 
L 494.048202 78.939792 
L 494.318928 78.870223 
L 494.589654 78.586381 
L 495.131106 77.359183 
L 496.484735 72.572832 
L 497.296913 69.027592 
L 497.567639 68.173284 
L 498.109091 67.622297 
L 498.109091 67.622297 
" style="fill:none;stroke:#ff0000;stroke-linecap:square;stroke-width:1.5;"/>
   </g>
   <g id="line2d_32">
    <path clip-path="url(#p66c889360d)" d="M 92.290909 369.36 
L 92.561635 369.36 
L 92.832361 369.36 
L 93.373813 361.51261 
L 94.727443 333.220266 
L 96.89325 278.494462 
L 98.24688 242.543955 
L 99.059058 224.979159 
L 99.329783 221.584189 
L 99.871235 212.04488 
L 100.412687 207.30027 
L 100.683413 205.975675 
L 100.954139 205.689051 
L 101.224865 204.350542 
L 101.495591 203.654851 
L 101.766317 203.318137 
L 102.037043 203.201261 
L 102.307769 203.234654 
L 102.578495 203.752248 
L 102.849221 204.712301 
L 103.119947 204.344976 
L 103.390673 204.43959 
L 103.932124 205.096322 
L 104.20285 205.505388 
L 104.473576 206.206644 
L 104.744302 207.278008 
L 105.015028 207.211222 
L 105.55648 207.88465 
L 106.097932 208.805744 
L 106.368658 209.509783 
L 106.639384 210.581147 
L 106.91011 210.581147 
L 107.451562 211.307448 
L 107.993014 212.248021 
L 108.263739 212.927015 
L 108.534465 213.962203 
L 108.805191 213.903765 
L 109.346643 214.109689 
L 109.617369 214.020641 
L 110.429547 213.08285 
L 111.512451 204.998926 
L 112.053903 200.154136 
L 112.324629 198.189506 
L 113.407532 181.882519 
L 115.302614 157.886759 
L 115.57334 156.333978 
L 116.114792 149.933624 
L 116.656244 146.034974 
L 116.926969 145.300325 
L 117.197695 145.266932 
L 117.468421 143.268909 
L 118.009873 141.50742 
L 118.280599 141.090006 
L 118.551325 141.368282 
L 119.092777 140.447188 
L 119.634229 139.807152 
L 119.904955 139.851677 
L 120.175681 140.107691 
L 120.987859 136.033727 
L 121.52931 133.746296 
L 123.153666 118.99209 
L 124.778022 99.546147 
L 125.5902 93.08179 
L 126.131651 90.3519 
L 126.673103 88.982781 
L 126.943829 88.737898 
L 127.214555 88.737898 
L 127.485281 88.938257 
L 128.026733 89.756389 
L 128.838911 91.211774 
L 129.380363 91.73215 
L 129.651089 91.73215 
L 129.921815 91.526226 
L 130.463266 90.566173 
L 131.004718 88.765726 
L 131.816896 84.783593 
L 132.629074 80.951729 
L 133.441252 78.174532 
L 133.982704 76.994641 
L 134.25343 76.74141 
L 134.524155 76.82211 
L 135.065607 78.060439 
L 135.607059 79.913759 
L 136.419237 83.584222 
L 138.314319 92.867517 
L 139.126496 95.41931 
L 140.2094 98.085197 
L 141.833756 101.204673 
L 142.645934 103.762032 
L 144.270289 109.881326 
L 145.082467 112.046315 
L 145.894645 113.485003 
L 146.436097 114.047121 
L 146.977549 114.344877 
L 147.519001 114.420012 
L 147.789726 114.734464 
L 148.331178 116.173152 
L 148.601904 117.40035 
L 148.87263 117.572881 
L 149.414082 118.471714 
L 149.955534 120.483651 
L 150.22626 120.08015 
L 150.767712 119.86866 
L 151.038438 120.052323 
L 151.309164 120.380689 
L 152.121342 116.326204 
L 152.662793 114.45897 
L 153.745697 103.336269 
L 154.016423 101.338246 
L 155.370053 88.028294 
L 155.911505 84.772462 
L 156.452957 82.721566 
L 156.994408 81.714206 
L 157.265134 81.572285 
L 157.53586 81.636289 
L 158.077312 82.234582 
L 159.701668 84.694544 
L 159.972394 84.775244 
L 160.24312 84.686196 
L 160.513846 84.421834 
L 161.055297 83.425605 
L 163.221105 78.488984 
L 163.491831 78.349846 
L 163.762557 78.369326 
L 164.033283 78.547422 
L 164.304009 78.911964 
L 164.845461 80.292214 
L 165.386912 82.590776 
L 166.19909 87.64149 
L 168.364898 101.791836 
L 169.177076 105.465082 
L 169.989253 107.916696 
L 170.801431 109.564091 
L 173.237965 113.702059 
L 173.779417 114.161215 
L 174.320868 114.383836 
L 174.86232 114.495146 
L 175.133046 115.018305 
L 175.403772 115.906007 
L 175.674498 117.18886 
L 175.945224 117.314084 
L 176.486676 118.237962 
L 177.028128 120.478085 
L 177.298854 120.294423 
L 177.840306 120.8955 
L 178.381758 122.576288 
L 178.923209 121.630149 
L 179.464661 120.889934 
L 179.735387 120.728534 
L 181.089017 110.184647 
L 183.254824 87.772279 
L 183.796276 84.32722 
L 184.337728 82.21232 
L 184.87918 81.235571 
L 185.149906 81.146522 
L 185.420632 81.28566 
L 185.962084 82.095444 
L 187.315714 84.878207 
L 187.857165 85.448673 
L 188.127891 85.434759 
L 188.398617 85.212138 
L 188.940069 84.19643 
L 190.835151 79.25981 
L 191.376603 78.160618 
L 191.647329 78.110529 
L 191.918054 78.246884 
L 192.18878 78.569684 
L 192.730232 79.866452 
L 193.271684 82.092662 
L 193.813136 85.214921 
L 196.791121 104.538423 
L 197.603299 107.390754 
L 198.415477 109.113284 
L 201.122736 113.312472 
L 201.664188 113.813369 
L 202.20564 114.091646 
L 202.747092 114.161215 
L 203.017818 114.548019 
L 203.55927 115.981141 
L 203.829996 117.186077 
L 204.100722 117.355826 
L 204.642174 118.268572 
L 205.183625 120.464171 
L 205.454351 120.272161 
L 205.995803 120.778624 
L 206.537255 122.250705 
L 207.349433 120.272161 
L 207.890885 119.440115 
L 209.244515 107.738599 
L 209.785966 101.811315 
L 210.327418 96.515719 
L 211.139596 88.181346 
L 211.681048 84.560972 
L 212.2225 82.323631 
L 212.763952 81.235571 
L 213.034678 81.088084 
L 213.305404 81.17435 
L 213.846855 81.88952 
L 215.471211 84.936645 
L 215.741937 85.109176 
L 216.012663 85.10361 
L 216.283389 84.917165 
L 216.824841 84.021116 
L 217.907745 81.625157 
L 218.990648 78.672647 
L 219.261374 78.450026 
L 219.5321 78.386022 
L 219.802826 78.477853 
L 220.073552 78.761695 
L 220.344278 79.265375 
L 220.88573 80.982339 
L 221.427182 83.767884 
L 222.510086 91.092115 
L 223.863715 100.250186 
L 224.675893 104.421547 
L 225.488071 107.262747 
L 226.300249 109.040932 
L 229.007508 113.437696 
L 229.54896 113.92468 
L 230.090412 114.189042 
L 230.631864 114.241915 
L 231.173316 115.30493 
L 231.444041 116.123062 
L 231.714767 117.316867 
L 231.985493 117.497747 
L 232.526945 118.416058 
L 233.068397 120.597744 
L 233.339123 120.411299 
L 233.880575 120.906631 
L 234.422027 122.342536 
L 235.234205 120.294423 
L 235.775656 119.403939 
L 237.400012 104.32415 
L 239.295094 86.005225 
L 239.836546 83.202984 
L 240.377997 81.594547 
L 240.648723 81.213309 
L 240.919449 81.088084 
L 241.190175 81.196612 
L 241.731627 81.942392 
L 243.355983 84.9923 
L 243.626709 85.156483 
L 243.897435 85.137004 
L 244.168161 84.933862 
L 244.709612 84.009985 
L 246.063242 80.781981 
L 246.87542 78.647602 
L 247.146146 78.436112 
L 247.416872 78.386022 
L 247.687598 78.491767 
L 247.958324 78.789523 
L 248.499776 80.066811 
L 249.041227 82.315283 
L 249.853405 87.393824 
L 252.019213 101.897581 
L 252.831391 105.595872 
L 253.643568 107.994613 
L 254.455746 109.525133 
L 257.163006 113.707624 
L 257.704458 114.077732 
L 258.245909 114.228001 
L 258.516635 114.228001 
L 259.058087 115.324409 
L 259.328813 116.136976 
L 259.599539 117.325215 
L 259.870265 117.511661 
L 260.411717 118.427189 
L 260.953169 120.606092 
L 261.223895 120.416864 
L 261.765347 120.903848 
L 262.306798 122.320274 
L 263.118976 120.216506 
L 263.660428 119.287063 
L 265.284784 104.095963 
L 265.826236 97.998931 
L 266.638413 90.243372 
L 267.179865 85.799301 
L 267.721317 83.019321 
L 268.262769 81.505499 
L 268.533495 81.179916 
L 268.804221 81.113129 
L 269.074947 81.271747 
L 269.616399 82.089879 
L 270.970029 84.783593 
L 271.240754 85.075783 
L 271.51148 85.192659 
L 271.782206 85.12309 
L 272.052932 84.864293 
L 272.594384 83.826323 
L 273.948014 80.478659 
L 274.760192 78.358195 
L 275.030918 78.174532 
L 275.301644 78.155053 
L 275.572369 78.299757 
L 275.843095 78.639254 
L 276.384547 80.008373 
L 276.925999 82.345893 
L 277.738177 87.516265 
L 279.903984 102.042285 
L 280.716162 105.698834 
L 281.52834 108.047486 
L 282.340518 109.555743 
L 283.694148 111.871001 
L 284.506325 113.181682 
L 285.047777 113.777193 
L 285.589229 114.13617 
L 286.130681 114.275308 
L 286.401407 114.292005 
L 286.672133 114.792902 
L 286.942859 115.691734 
L 287.213585 116.991284 
L 287.484311 117.097029 
L 288.025763 118.015341 
L 288.567215 120.269378 
L 288.83794 120.08015 
L 289.379392 120.686792 
L 289.920844 122.392626 
L 290.462296 121.465966 
L 291.003748 120.76471 
L 291.274474 120.625572 
L 292.628104 110.184647 
L 294.793911 87.811238 
L 295.335363 84.352265 
L 295.876815 82.215103 
L 296.418267 81.213309 
L 296.688993 81.110346 
L 296.959719 81.238354 
L 297.50117 82.028658 
L 299.125526 85.178745 
L 299.396252 85.379104 
L 299.666978 85.370756 
L 299.937704 85.156483 
L 300.479156 84.160254 
L 302.644963 78.616991 
L 302.915689 78.168967 
L 303.186415 78.116094 
L 303.457141 78.25245 
L 303.727867 78.572467 
L 304.269319 79.860886 
L 304.810771 82.073182 
L 305.352223 85.192659 
L 308.330208 104.546771 
L 309.142386 107.418582 
L 309.683838 108.670825 
L 310.766741 110.401703 
L 312.932549 113.635273 
L 313.474001 114.016511 
L 314.015453 114.177911 
L 314.286179 114.18626 
L 314.827631 115.215882 
L 315.098356 116.036797 
L 315.369082 117.236167 
L 315.639808 117.411481 
L 316.18126 118.324227 
L 316.722712 120.514261 
L 316.993438 120.325033 
L 317.53489 120.831496 
L 318.076342 122.300795 
L 318.88852 120.327816 
L 319.429971 119.490205 
L 320.783601 107.780341 
L 321.325053 101.844709 
L 321.866505 96.540764 
L 322.678683 88.189694 
L 323.220135 84.560972 
L 323.761587 82.323631 
L 324.303038 81.232788 
L 324.573764 81.088084 
L 324.84449 81.17435 
L 325.385942 81.892303 
L 327.010298 84.950558 
L 327.281024 85.125873 
L 327.55175 85.12309 
L 327.822476 84.936645 
L 328.363927 84.040595 
L 329.446831 81.641854 
L 330.529735 78.675429 
L 330.800461 78.452808 
L 331.071187 78.386022 
L 331.341913 78.475071 
L 331.612639 78.75613 
L 331.883365 79.257027 
L 332.424817 80.971208 
L 332.966268 83.756753 
L 334.049172 91.078201 
L 335.402802 100.241838 
L 336.21498 104.413198 
L 337.027157 107.251616 
L 337.839335 109.027018 
L 340.546595 113.421 
L 341.088047 113.913549 
L 341.629498 114.177911 
L 342.17095 114.233567 
L 342.712402 115.285451 
L 342.983128 116.103583 
L 343.253854 117.297388 
L 343.52458 117.478267 
L 344.066032 118.396579 
L 344.607484 120.581047 
L 344.87821 120.39182 
L 345.419662 120.889934 
L 345.961113 122.328622 
L 346.773291 120.286075 
L 347.314743 119.401156 
L 348.939099 104.340846 
L 350.83418 86.021922 
L 351.375632 83.214115 
L 351.917084 81.602895 
L 352.18781 81.218874 
L 352.458536 81.090867 
L 352.729262 81.196612 
L 353.270714 81.93961 
L 354.895069 84.986734 
L 355.165795 85.150917 
L 355.436521 85.134221 
L 355.707247 84.931079 
L 356.248699 84.009985 
L 357.602329 80.781981 
L 358.414507 78.650385 
L 358.685233 78.438895 
L 358.955959 78.386022 
L 359.226684 78.488984 
L 359.49741 78.78674 
L 360.038862 80.061245 
L 360.580314 82.306934 
L 361.392492 87.382693 
L 363.558299 101.883667 
L 364.370477 105.587524 
L 365.182655 107.989048 
L 365.994833 109.52235 
L 368.702092 113.707624 
L 369.243544 114.080515 
L 369.784996 114.230784 
L 370.055722 114.230784 
L 370.597174 115.324409 
L 370.8679 116.136976 
L 371.138626 117.322433 
L 371.409352 117.511661 
L 371.950804 118.427189 
L 372.492255 120.606092 
L 372.762981 120.416864 
L 373.304433 120.903848 
L 373.845885 122.323057 
L 374.658063 120.224854 
L 375.199515 119.300977 
L 376.82387 104.118225 
L 377.365322 98.026759 
L 378.1775 90.265635 
L 378.718952 85.815998 
L 379.260404 83.030452 
L 379.801856 81.513847 
L 380.072582 81.185481 
L 380.343308 81.115912 
L 380.614034 81.271747 
L 381.155485 82.087096 
L 382.509115 84.78081 
L 382.779841 85.075783 
L 383.050567 85.192659 
L 383.321293 85.12309 
L 383.592019 84.864293 
L 384.133471 83.831888 
L 385.4871 80.484225 
L 386.299278 78.36376 
L 386.570004 78.174532 
L 386.84073 78.155053 
L 387.111456 78.296974 
L 387.382182 78.636471 
L 387.923634 80.002807 
L 388.465086 82.334762 
L 389.277264 87.502352 
L 391.443071 102.028371 
L 392.255249 105.684921 
L 392.796701 107.379623 
L 393.608879 109.09937 
L 396.316138 113.504483 
L 396.85759 113.983118 
L 397.399042 114.230784 
L 397.940494 114.283656 
L 398.21122 114.784553 
L 398.481946 115.686168 
L 398.752671 116.985718 
L 399.023397 117.091463 
L 399.564849 118.009775 
L 400.106301 120.263812 
L 400.377027 120.074585 
L 400.918479 120.678444 
L 401.459931 122.389843 
L 402.001383 121.465966 
L 402.542835 120.770275 
L 402.813561 120.631137 
L 404.16719 110.204127 
L 406.332998 87.827935 
L 406.87445 84.363396 
L 407.415902 82.226234 
L 407.957353 81.218874 
L 408.228079 81.113129 
L 408.498805 81.241136 
L 409.040257 82.025875 
L 410.664613 85.175962 
L 410.935339 85.376321 
L 411.206065 85.370756 
L 411.476791 85.156483 
L 412.018242 84.163037 
L 414.18405 78.616991 
L 414.454776 78.168967 
L 414.725502 78.113311 
L 414.996228 78.249667 
L 415.266954 78.566902 
L 415.808406 79.852538 
L 416.349857 82.062051 
L 416.891309 85.178745 
L 419.869295 104.532857 
L 420.681472 107.410233 
L 421.49365 109.155025 
L 424.20091 113.359779 
L 424.742362 113.852328 
L 425.283813 114.122256 
L 425.825265 114.18626 
L 426.095991 114.595326 
L 426.637443 116.031231 
L 426.908169 117.230602 
L 427.178895 117.405916 
L 427.720347 118.318662 
L 428.261799 120.508696 
L 428.532525 120.319468 
L 429.073977 120.828713 
L 429.615428 122.303577 
L 430.427606 120.336164 
L 430.969058 119.506901 
L 432.322688 107.810951 
L 432.86414 101.878102 
L 433.405592 96.574157 
L 434.217769 88.211956 
L 434.759221 84.580451 
L 435.300673 82.337545 
L 435.842125 81.238354 
L 436.112851 81.090867 
L 436.383577 81.17435 
L 436.925029 81.88952 
L 438.549384 85.008996 
L 438.82011 85.2344 
L 439.090836 85.259445 
L 439.361562 85.084131 
L 439.903014 84.171385 
L 442.068822 78.795088 
L 442.339548 78.341498 
L 442.610274 78.277494 
L 442.880999 78.397153 
L 443.151725 78.694909 
L 443.693177 79.927672 
L 444.234629 82.081531 
L 444.776081 85.1537 
L 447.754066 104.491116 
L 448.566244 107.438061 
L 449.107696 108.732045 
L 449.919874 110.084468 
L 451.002778 111.809781 
L 451.814955 113.114896 
L 452.356407 113.696493 
L 452.897859 114.047121 
L 453.439311 114.191825 
L 453.710037 114.191825 
L 454.251489 115.25484 
L 454.522215 116.072972 
L 454.792941 117.261212 
L 455.063667 117.442091 
L 455.605119 118.354838 
L 456.14657 120.539306 
L 456.417296 120.350078 
L 456.958748 120.850975 
L 457.5002 122.303577 
L 458.312378 120.288857 
L 458.85383 119.423418 
L 460.20746 107.632854 
L 460.748911 101.680526 
L 461.290363 96.384929 
L 462.102541 88.072818 
L 462.643993 84.474706 
L 463.185445 82.265193 
L 463.726897 81.20496 
L 463.997623 81.071388 
L 464.268349 81.171567 
L 464.8098 81.906216 
L 466.434156 84.964472 
L 466.704882 85.134221 
L 466.975608 85.12309 
L 467.246334 84.928296 
L 467.787786 84.018333 
L 469.141415 80.798677 
L 469.953593 78.658733 
L 470.224319 78.44446 
L 470.495045 78.388805 
L 470.765771 78.488984 
L 471.036497 78.781174 
L 471.307223 79.293203 
L 471.848675 81.032429 
L 472.390127 83.831888 
L 473.473031 91.175598 
L 474.82666 100.336451 
L 475.638838 104.493898 
L 476.451016 107.312837 
L 477.263194 109.074325 
L 479.970453 113.443262 
L 480.511905 113.927463 
L 481.053357 114.18626 
L 481.594809 114.236349 
L 482.136261 115.327192 
L 482.406986 116.142541 
L 482.677712 117.327998 
L 482.948438 117.514443 
L 483.48989 118.429972 
L 484.031342 120.608875 
L 484.302068 120.42243 
L 484.84352 120.912196 
L 485.384972 122.331405 
L 486.19715 120.244333 
L 486.738601 119.326022 
L 488.362957 104.16275 
L 488.904409 98.071283 
L 489.716587 90.30181 
L 490.258039 85.841042 
L 490.799491 83.049932 
L 491.340942 81.524978 
L 491.611668 81.193829 
L 491.882394 81.121478 
L 492.15312 81.274529 
L 492.694572 82.084313 
L 494.048202 84.778027 
L 494.318928 85.073 
L 494.589654 85.192659 
L 494.86038 85.125873 
L 495.131106 84.869858 
L 495.672557 83.840236 
L 497.026187 80.492573 
L 497.838365 78.369326 
L 498.109091 78.180098 
L 498.109091 78.180098 
" style="fill:none;stroke:#008000;stroke-linecap:square;stroke-width:1.5;"/>
   </g>
   <g id="patch_3">
    <path d="M 72 384.48 
L 72 51.84 
" style="fill:none;stroke:#000000;stroke-linecap:square;stroke-linejoin:miter;stroke-width:0.8;"/>
   </g>
   <g id="patch_4">
    <path d="M 518.4 384.48 
L 518.4 51.84 
" style="fill:none;stroke:#000000;stroke-linecap:square;stroke-linejoin:miter;stroke-width:0.8;"/>
   </g>
   <g id="patch_5">
    <path d="M 72 384.48 
L 518.4 384.48 
" style="fill:none;stroke:#000000;stroke-linecap:square;stroke-linejoin:miter;stroke-width:0.8;"/>
   </g>
   <g id="patch_6">
    <path d="M 72 51.84 
L 518.4 51.84 
" style="fill:none;stroke:#000000;stroke-linecap:square;stroke-linejoin:miter;stroke-width:0.8;"/>
   </g>
   <g id="text_17">
    <!-- $\lambda_{m}$ -->
    <g transform="translate(286.03 45.84)scale(0.14 -0.14)">
     <use transform="translate(0 0.015625)" xlink:href="#DejaVuSans-Oblique-3bb"/>
     <use transform="translate(59.179688 -16.390625)scale(0.7)" xlink:href="#DejaVuSans-Oblique-6d"/>
    </g>
   </g>
   <g id="legend_1">
    <g id="patch_7">
     <path d="M 468.7 379.48 
L 511.4 379.48 
Q 513.4 379.48 513.4 377.48 
L 513.4 319.7675 
Q 513.4 317.7675 511.4 317.7675 
L 468.7 317.7675 
Q 466.7 317.7675 466.7 319.7675 
L 466.7 377.48 
Q 466.7 379.48 468.7 379.48 
z
" style="fill:#ffffff;opacity:0.8;stroke:#cccccc;stroke-linejoin:miter;"/>
    </g>
    <g id="line2d_33">
     <path d="M 470.7 325.865937 
L 490.7 325.865937 
" style="fill:none;stroke:#bf00bf;stroke-linecap:square;stroke-width:1.5;"/>
    </g>
    <g id="line2d_34"/>
    <g id="text_18">
     <!-- $\lambda_{1}$ -->
     <g transform="translate(498.7 329.365937)scale(0.1 -0.1)">
      <use transform="translate(0 0.015625)" xlink:href="#DejaVuSans-Oblique-3bb"/>
      <use transform="translate(59.179688 -16.390625)scale(0.7)" xlink:href="#DejaVuSans-31"/>
     </g>
    </g>
    <g id="line2d_35">
     <path d="M 470.7 340.544062 
L 490.7 340.544062 
" style="fill:none;stroke:#00bfbf;stroke-linecap:square;stroke-width:1.5;"/>
    </g>
    <g id="line2d_36"/>
    <g id="text_19">
     <!-- $\lambda_{2}$ -->
     <g transform="translate(498.7 344.044062)scale(0.1 -0.1)">
      <use transform="translate(0 0.015625)" xlink:href="#DejaVuSans-Oblique-3bb"/>
      <use transform="translate(59.179688 -16.390625)scale(0.7)" xlink:href="#DejaVuSans-32"/>
     </g>
    </g>
    <g id="line2d_37">
     <path d="M 470.7 355.222188 
L 490.7 355.222188 
" style="fill:none;stroke:#ff0000;stroke-linecap:square;stroke-width:1.5;"/>
    </g>
    <g id="line2d_38"/>
    <g id="text_20">
     <!-- $\lambda_{3}$ -->
     <defs>
      <path d="M 40.578125 39.3125 
Q 47.65625 37.796875 51.625 33 
Q 55.609375 28.21875 55.609375 21.1875 
Q 55.609375 10.40625 48.1875 4.484375 
Q 40.765625 -1.421875 27.09375 -1.421875 
Q 22.515625 -1.421875 17.65625 -0.515625 
Q 12.796875 0.390625 7.625 2.203125 
L 7.625 11.71875 
Q 11.71875 9.328125 16.59375 8.109375 
Q 21.484375 6.890625 26.8125 6.890625 
Q 36.078125 6.890625 40.9375 10.546875 
Q 45.796875 14.203125 45.796875 21.1875 
Q 45.796875 27.640625 41.28125 31.265625 
Q 36.765625 34.90625 28.71875 34.90625 
L 20.21875 34.90625 
L 20.21875 43.015625 
L 29.109375 43.015625 
Q 36.375 43.015625 40.234375 45.921875 
Q 44.09375 48.828125 44.09375 54.296875 
Q 44.09375 59.90625 40.109375 62.90625 
Q 36.140625 65.921875 28.71875 65.921875 
Q 24.65625 65.921875 20.015625 65.03125 
Q 15.375 64.15625 9.8125 62.3125 
L 9.8125 71.09375 
Q 15.4375 72.65625 20.34375 73.4375 
Q 25.25 74.21875 29.59375 74.21875 
Q 40.828125 74.21875 47.359375 69.109375 
Q 53.90625 64.015625 53.90625 55.328125 
Q 53.90625 49.265625 50.4375 45.09375 
Q 46.96875 40.921875 40.578125 39.3125 
z
" id="DejaVuSans-33"/>
     </defs>
     <g transform="translate(498.7 358.722188)scale(0.1 -0.1)">
      <use transform="translate(0 0.015625)" xlink:href="#DejaVuSans-Oblique-3bb"/>
      <use transform="translate(59.179688 -16.390625)scale(0.7)" xlink:href="#DejaVuSans-33"/>
     </g>
    </g>
    <g id="line2d_39">
     <path d="M 470.7 369.900312 
L 490.7 369.900312 
" style="fill:none;stroke:#008000;stroke-linecap:square;stroke-width:1.5;"/>
    </g>
    <g id="line2d_40"/>
    <g id="text_21">
     <!-- $\lambda_{4}$ -->
     <g transform="translate(498.7 373.400312)scale(0.1 -0.1)">
      <use transform="translate(0 0.015625)" xlink:href="#DejaVuSans-Oblique-3bb"/>
      <use transform="translate(59.179688 -16.390625)scale(0.7)" xlink:href="#DejaVuSans-34"/>
     </g>
    </g>
   </g>
  </g>
 </g>
 <defs>
  <clipPath id="p66c889360d">
   <rect height="332.64" width="446.4" x="72" y="51.84"/>
  </clipPath>
 </defs>
</svg>
