<?xml version="1.0" encoding="utf-8" standalone="no"?>
<!DOCTYPE svg PUBLIC "-//W3C//DTD SVG 1.1//EN"
  "http://www.w3.org/Graphics/SVG/1.1/DTD/svg11.dtd">
<!-- Created with matplotlib (http://matplotlib.org/) -->
<svg height="432pt" version="1.1" viewBox="0 0 576 432" width="576pt" xmlns="http://www.w3.org/2000/svg" xmlns:xlink="http://www.w3.org/1999/xlink">
 <defs>
  <style type="text/css">
*{stroke-linecap:butt;stroke-linejoin:round;}
  </style>
 </defs>
 <g id="figure_1">
  <g id="patch_1">
   <path d="M 0 432 
L 576 432 
L 576 0 
L 0 0 
z
" style="fill:#ffffff;"/>
  </g>
  <g id="axes_1">
   <g id="patch_2">
    <path d="M 72 384.48 
L 518.4 384.48 
L 518.4 51.84 
L 72 51.84 
z
" style="fill:#ffffff;"/>
   </g>
   <g id="matplotlib.axis_1">
    <g id="xtick_1">
     <g id="line2d_1">
      <path clip-path="url(#p02ac596100)" d="M 92.290909 384.48 
L 92.290909 51.84 
" style="fill:none;stroke:#b0b0b0;stroke-dasharray:5.12,1.28,0.8,1.28;stroke-dashoffset:0;stroke-width:0.8;"/>
     </g>
     <g id="line2d_2">
      <defs>
       <path d="M 0 0 
L 0 3.5 
" id="m57ec3a1603" style="stroke:#000000;stroke-width:0.8;"/>
      </defs>
      <g>
       <use style="stroke:#000000;stroke-width:0.8;" x="92.290909" xlink:href="#m57ec3a1603" y="384.48"/>
      </g>
     </g>
     <g id="text_1">
      <!-- 0 -->
      <defs>
       <path d="M 31.78125 66.40625 
Q 24.171875 66.40625 20.328125 58.90625 
Q 16.5 51.421875 16.5 36.375 
Q 16.5 21.390625 20.328125 13.890625 
Q 24.171875 6.390625 31.78125 6.390625 
Q 39.453125 6.390625 43.28125 13.890625 
Q 47.125 21.390625 47.125 36.375 
Q 47.125 51.421875 43.28125 58.90625 
Q 39.453125 66.40625 31.78125 66.40625 
z
M 31.78125 74.21875 
Q 44.046875 74.21875 50.515625 64.515625 
Q 56.984375 54.828125 56.984375 36.375 
Q 56.984375 17.96875 50.515625 8.265625 
Q 44.046875 -1.421875 31.78125 -1.421875 
Q 19.53125 -1.421875 13.0625 8.265625 
Q 6.59375 17.96875 6.59375 36.375 
Q 6.59375 54.828125 13.0625 64.515625 
Q 19.53125 74.21875 31.78125 74.21875 
z
" id="DejaVuSans-30"/>
      </defs>
      <g transform="translate(89.109659 399.078438)scale(0.1 -0.1)">
       <use xlink:href="#DejaVuSans-30"/>
      </g>
     </g>
    </g>
    <g id="xtick_2">
     <g id="line2d_3">
      <path clip-path="url(#p02ac596100)" d="M 180.60825 384.48 
L 180.60825 51.84 
" style="fill:none;stroke:#b0b0b0;stroke-dasharray:5.12,1.28,0.8,1.28;stroke-dashoffset:0;stroke-width:0.8;"/>
     </g>
     <g id="line2d_4">
      <g>
       <use style="stroke:#000000;stroke-width:0.8;" x="180.60825" xlink:href="#m57ec3a1603" y="384.48"/>
      </g>
     </g>
     <g id="text_2">
      <!-- 200 -->
      <defs>
       <path d="M 19.1875 8.296875 
L 53.609375 8.296875 
L 53.609375 0 
L 7.328125 0 
L 7.328125 8.296875 
Q 12.9375 14.109375 22.625 23.890625 
Q 32.328125 33.6875 34.8125 36.53125 
Q 39.546875 41.84375 41.421875 45.53125 
Q 43.3125 49.21875 43.3125 52.78125 
Q 43.3125 58.59375 39.234375 62.25 
Q 35.15625 65.921875 28.609375 65.921875 
Q 23.96875 65.921875 18.8125 64.3125 
Q 13.671875 62.703125 7.8125 59.421875 
L 7.8125 69.390625 
Q 13.765625 71.78125 18.9375 73 
Q 24.125 74.21875 28.421875 74.21875 
Q 39.75 74.21875 46.484375 68.546875 
Q 53.21875 62.890625 53.21875 53.421875 
Q 53.21875 48.921875 51.53125 44.890625 
Q 49.859375 40.875 45.40625 35.40625 
Q 44.1875 33.984375 37.640625 27.21875 
Q 31.109375 20.453125 19.1875 8.296875 
z
" id="DejaVuSans-32"/>
      </defs>
      <g transform="translate(171.0645 399.078438)scale(0.1 -0.1)">
       <use xlink:href="#DejaVuSans-32"/>
       <use x="63.623047" xlink:href="#DejaVuSans-30"/>
       <use x="127.246094" xlink:href="#DejaVuSans-30"/>
      </g>
     </g>
    </g>
    <g id="xtick_3">
     <g id="line2d_5">
      <path clip-path="url(#p02ac596100)" d="M 268.925591 384.48 
L 268.925591 51.84 
" style="fill:none;stroke:#b0b0b0;stroke-dasharray:5.12,1.28,0.8,1.28;stroke-dashoffset:0;stroke-width:0.8;"/>
     </g>
     <g id="line2d_6">
      <g>
       <use style="stroke:#000000;stroke-width:0.8;" x="268.925591" xlink:href="#m57ec3a1603" y="384.48"/>
      </g>
     </g>
     <g id="text_3">
      <!-- 400 -->
      <defs>
       <path d="M 37.796875 64.3125 
L 12.890625 25.390625 
L 37.796875 25.390625 
z
M 35.203125 72.90625 
L 47.609375 72.90625 
L 47.609375 25.390625 
L 58.015625 25.390625 
L 58.015625 17.1875 
L 47.609375 17.1875 
L 47.609375 0 
L 37.796875 0 
L 37.796875 17.1875 
L 4.890625 17.1875 
L 4.890625 26.703125 
z
" id="DejaVuSans-34"/>
      </defs>
      <g transform="translate(259.381841 399.078438)scale(0.1 -0.1)">
       <use xlink:href="#DejaVuSans-34"/>
       <use x="63.623047" xlink:href="#DejaVuSans-30"/>
       <use x="127.246094" xlink:href="#DejaVuSans-30"/>
      </g>
     </g>
    </g>
    <g id="xtick_4">
     <g id="line2d_7">
      <path clip-path="url(#p02ac596100)" d="M 357.242932 384.48 
L 357.242932 51.84 
" style="fill:none;stroke:#b0b0b0;stroke-dasharray:5.12,1.28,0.8,1.28;stroke-dashoffset:0;stroke-width:0.8;"/>
     </g>
     <g id="line2d_8">
      <g>
       <use style="stroke:#000000;stroke-width:0.8;" x="357.242932" xlink:href="#m57ec3a1603" y="384.48"/>
      </g>
     </g>
     <g id="text_4">
      <!-- 600 -->
      <defs>
       <path d="M 33.015625 40.375 
Q 26.375 40.375 22.484375 35.828125 
Q 18.609375 31.296875 18.609375 23.390625 
Q 18.609375 15.53125 22.484375 10.953125 
Q 26.375 6.390625 33.015625 6.390625 
Q 39.65625 6.390625 43.53125 10.953125 
Q 47.40625 15.53125 47.40625 23.390625 
Q 47.40625 31.296875 43.53125 35.828125 
Q 39.65625 40.375 33.015625 40.375 
z
M 52.59375 71.296875 
L 52.59375 62.3125 
Q 48.875 64.0625 45.09375 64.984375 
Q 41.3125 65.921875 37.59375 65.921875 
Q 27.828125 65.921875 22.671875 59.328125 
Q 17.53125 52.734375 16.796875 39.40625 
Q 19.671875 43.65625 24.015625 45.921875 
Q 28.375 48.1875 33.59375 48.1875 
Q 44.578125 48.1875 50.953125 41.515625 
Q 57.328125 34.859375 57.328125 23.390625 
Q 57.328125 12.15625 50.6875 5.359375 
Q 44.046875 -1.421875 33.015625 -1.421875 
Q 20.359375 -1.421875 13.671875 8.265625 
Q 6.984375 17.96875 6.984375 36.375 
Q 6.984375 53.65625 15.1875 63.9375 
Q 23.390625 74.21875 37.203125 74.21875 
Q 40.921875 74.21875 44.703125 73.484375 
Q 48.484375 72.75 52.59375 71.296875 
z
" id="DejaVuSans-36"/>
      </defs>
      <g transform="translate(347.699182 399.078438)scale(0.1 -0.1)">
       <use xlink:href="#DejaVuSans-36"/>
       <use x="63.623047" xlink:href="#DejaVuSans-30"/>
       <use x="127.246094" xlink:href="#DejaVuSans-30"/>
      </g>
     </g>
    </g>
    <g id="xtick_5">
     <g id="line2d_9">
      <path clip-path="url(#p02ac596100)" d="M 445.560273 384.48 
L 445.560273 51.84 
" style="fill:none;stroke:#b0b0b0;stroke-dasharray:5.12,1.28,0.8,1.28;stroke-dashoffset:0;stroke-width:0.8;"/>
     </g>
     <g id="line2d_10">
      <g>
       <use style="stroke:#000000;stroke-width:0.8;" x="445.560273" xlink:href="#m57ec3a1603" y="384.48"/>
      </g>
     </g>
     <g id="text_5">
      <!-- 800 -->
      <defs>
       <path d="M 31.78125 34.625 
Q 24.75 34.625 20.71875 30.859375 
Q 16.703125 27.09375 16.703125 20.515625 
Q 16.703125 13.921875 20.71875 10.15625 
Q 24.75 6.390625 31.78125 6.390625 
Q 38.8125 6.390625 42.859375 10.171875 
Q 46.921875 13.96875 46.921875 20.515625 
Q 46.921875 27.09375 42.890625 30.859375 
Q 38.875 34.625 31.78125 34.625 
z
M 21.921875 38.8125 
Q 15.578125 40.375 12.03125 44.71875 
Q 8.5 49.078125 8.5 55.328125 
Q 8.5 64.0625 14.71875 69.140625 
Q 20.953125 74.21875 31.78125 74.21875 
Q 42.671875 74.21875 48.875 69.140625 
Q 55.078125 64.0625 55.078125 55.328125 
Q 55.078125 49.078125 51.53125 44.71875 
Q 48 40.375 41.703125 38.8125 
Q 48.828125 37.15625 52.796875 32.3125 
Q 56.78125 27.484375 56.78125 20.515625 
Q 56.78125 9.90625 50.3125 4.234375 
Q 43.84375 -1.421875 31.78125 -1.421875 
Q 19.734375 -1.421875 13.25 4.234375 
Q 6.78125 9.90625 6.78125 20.515625 
Q 6.78125 27.484375 10.78125 32.3125 
Q 14.796875 37.15625 21.921875 38.8125 
z
M 18.3125 54.390625 
Q 18.3125 48.734375 21.84375 45.5625 
Q 25.390625 42.390625 31.78125 42.390625 
Q 38.140625 42.390625 41.71875 45.5625 
Q 45.3125 48.734375 45.3125 54.390625 
Q 45.3125 60.0625 41.71875 63.234375 
Q 38.140625 66.40625 31.78125 66.40625 
Q 25.390625 66.40625 21.84375 63.234375 
Q 18.3125 60.0625 18.3125 54.390625 
z
" id="DejaVuSans-38"/>
      </defs>
      <g transform="translate(436.016523 399.078438)scale(0.1 -0.1)">
       <use xlink:href="#DejaVuSans-38"/>
       <use x="63.623047" xlink:href="#DejaVuSans-30"/>
       <use x="127.246094" xlink:href="#DejaVuSans-30"/>
      </g>
     </g>
    </g>
    <g id="text_6">
     <!-- Iteration -->
     <defs>
      <path d="M 9.8125 72.90625 
L 19.671875 72.90625 
L 19.671875 0 
L 9.8125 0 
z
" id="DejaVuSans-49"/>
      <path d="M 18.3125 70.21875 
L 18.3125 54.6875 
L 36.8125 54.6875 
L 36.8125 47.703125 
L 18.3125 47.703125 
L 18.3125 18.015625 
Q 18.3125 11.328125 20.140625 9.421875 
Q 21.96875 7.515625 27.59375 7.515625 
L 36.8125 7.515625 
L 36.8125 0 
L 27.59375 0 
Q 17.1875 0 13.234375 3.875 
Q 9.28125 7.765625 9.28125 18.015625 
L 9.28125 47.703125 
L 2.6875 47.703125 
L 2.6875 54.6875 
L 9.28125 54.6875 
L 9.28125 70.21875 
z
" id="DejaVuSans-74"/>
      <path d="M 56.203125 29.59375 
L 56.203125 25.203125 
L 14.890625 25.203125 
Q 15.484375 15.921875 20.484375 11.0625 
Q 25.484375 6.203125 34.421875 6.203125 
Q 39.59375 6.203125 44.453125 7.46875 
Q 49.3125 8.734375 54.109375 11.28125 
L 54.109375 2.78125 
Q 49.265625 0.734375 44.1875 -0.34375 
Q 39.109375 -1.421875 33.890625 -1.421875 
Q 20.796875 -1.421875 13.15625 6.1875 
Q 5.515625 13.8125 5.515625 26.8125 
Q 5.515625 40.234375 12.765625 48.109375 
Q 20.015625 56 32.328125 56 
Q 43.359375 56 49.78125 48.890625 
Q 56.203125 41.796875 56.203125 29.59375 
z
M 47.21875 32.234375 
Q 47.125 39.59375 43.09375 43.984375 
Q 39.0625 48.390625 32.421875 48.390625 
Q 24.90625 48.390625 20.390625 44.140625 
Q 15.875 39.890625 15.1875 32.171875 
z
" id="DejaVuSans-65"/>
      <path d="M 41.109375 46.296875 
Q 39.59375 47.171875 37.8125 47.578125 
Q 36.03125 48 33.890625 48 
Q 26.265625 48 22.1875 43.046875 
Q 18.109375 38.09375 18.109375 28.8125 
L 18.109375 0 
L 9.078125 0 
L 9.078125 54.6875 
L 18.109375 54.6875 
L 18.109375 46.1875 
Q 20.953125 51.171875 25.484375 53.578125 
Q 30.03125 56 36.53125 56 
Q 37.453125 56 38.578125 55.875 
Q 39.703125 55.765625 41.0625 55.515625 
z
" id="DejaVuSans-72"/>
      <path d="M 34.28125 27.484375 
Q 23.390625 27.484375 19.1875 25 
Q 14.984375 22.515625 14.984375 16.5 
Q 14.984375 11.71875 18.140625 8.90625 
Q 21.296875 6.109375 26.703125 6.109375 
Q 34.1875 6.109375 38.703125 11.40625 
Q 43.21875 16.703125 43.21875 25.484375 
L 43.21875 27.484375 
z
M 52.203125 31.203125 
L 52.203125 0 
L 43.21875 0 
L 43.21875 8.296875 
Q 40.140625 3.328125 35.546875 0.953125 
Q 30.953125 -1.421875 24.3125 -1.421875 
Q 15.921875 -1.421875 10.953125 3.296875 
Q 6 8.015625 6 15.921875 
Q 6 25.140625 12.171875 29.828125 
Q 18.359375 34.515625 30.609375 34.515625 
L 43.21875 34.515625 
L 43.21875 35.40625 
Q 43.21875 41.609375 39.140625 45 
Q 35.0625 48.390625 27.6875 48.390625 
Q 23 48.390625 18.546875 47.265625 
Q 14.109375 46.140625 10.015625 43.890625 
L 10.015625 52.203125 
Q 14.9375 54.109375 19.578125 55.046875 
Q 24.21875 56 28.609375 56 
Q 40.484375 56 46.34375 49.84375 
Q 52.203125 43.703125 52.203125 31.203125 
z
" id="DejaVuSans-61"/>
      <path d="M 9.421875 54.6875 
L 18.40625 54.6875 
L 18.40625 0 
L 9.421875 0 
z
M 9.421875 75.984375 
L 18.40625 75.984375 
L 18.40625 64.59375 
L 9.421875 64.59375 
z
" id="DejaVuSans-69"/>
      <path d="M 30.609375 48.390625 
Q 23.390625 48.390625 19.1875 42.75 
Q 14.984375 37.109375 14.984375 27.296875 
Q 14.984375 17.484375 19.15625 11.84375 
Q 23.34375 6.203125 30.609375 6.203125 
Q 37.796875 6.203125 41.984375 11.859375 
Q 46.1875 17.53125 46.1875 27.296875 
Q 46.1875 37.015625 41.984375 42.703125 
Q 37.796875 48.390625 30.609375 48.390625 
z
M 30.609375 56 
Q 42.328125 56 49.015625 48.375 
Q 55.71875 40.765625 55.71875 27.296875 
Q 55.71875 13.875 49.015625 6.21875 
Q 42.328125 -1.421875 30.609375 -1.421875 
Q 18.84375 -1.421875 12.171875 6.21875 
Q 5.515625 13.875 5.515625 27.296875 
Q 5.515625 40.765625 12.171875 48.375 
Q 18.84375 56 30.609375 56 
z
" id="DejaVuSans-6f"/>
      <path d="M 54.890625 33.015625 
L 54.890625 0 
L 45.90625 0 
L 45.90625 32.71875 
Q 45.90625 40.484375 42.875 44.328125 
Q 39.84375 48.1875 33.796875 48.1875 
Q 26.515625 48.1875 22.3125 43.546875 
Q 18.109375 38.921875 18.109375 30.90625 
L 18.109375 0 
L 9.078125 0 
L 9.078125 54.6875 
L 18.109375 54.6875 
L 18.109375 46.1875 
Q 21.34375 51.125 25.703125 53.5625 
Q 30.078125 56 35.796875 56 
Q 45.21875 56 50.046875 50.171875 
Q 54.890625 44.34375 54.890625 33.015625 
z
" id="DejaVuSans-6e"/>
     </defs>
     <g transform="translate(265.507969 415.795938)scale(0.14 -0.14)">
      <use xlink:href="#DejaVuSans-49"/>
      <use x="29.492188" xlink:href="#DejaVuSans-74"/>
      <use x="68.701172" xlink:href="#DejaVuSans-65"/>
      <use x="130.224609" xlink:href="#DejaVuSans-72"/>
      <use x="171.337891" xlink:href="#DejaVuSans-61"/>
      <use x="232.617188" xlink:href="#DejaVuSans-74"/>
      <use x="271.826172" xlink:href="#DejaVuSans-69"/>
      <use x="299.609375" xlink:href="#DejaVuSans-6f"/>
      <use x="360.791016" xlink:href="#DejaVuSans-6e"/>
     </g>
    </g>
   </g>
   <g id="matplotlib.axis_2">
    <g id="ytick_1">
     <g id="line2d_11">
      <path clip-path="url(#p02ac596100)" d="M 72 349.661154 
L 518.4 349.661154 
" style="fill:none;stroke:#b0b0b0;stroke-dasharray:5.12,1.28,0.8,1.28;stroke-dashoffset:0;stroke-width:0.8;"/>
     </g>
     <g id="line2d_12">
      <defs>
       <path d="M 0 0 
L -3.5 0 
" id="m59647586cc" style="stroke:#000000;stroke-width:0.8;"/>
      </defs>
      <g>
       <use style="stroke:#000000;stroke-width:0.8;" x="72" xlink:href="#m59647586cc" y="349.661154"/>
      </g>
     </g>
     <g id="text_7">
      <!-- −2000 -->
      <defs>
       <path d="M 10.59375 35.5 
L 73.1875 35.5 
L 73.1875 27.203125 
L 10.59375 27.203125 
z
" id="DejaVuSans-2212"/>
      </defs>
      <g transform="translate(31.170313 353.460372)scale(0.1 -0.1)">
       <use xlink:href="#DejaVuSans-2212"/>
       <use x="83.789062" xlink:href="#DejaVuSans-32"/>
       <use x="147.412109" xlink:href="#DejaVuSans-30"/>
       <use x="211.035156" xlink:href="#DejaVuSans-30"/>
       <use x="274.658203" xlink:href="#DejaVuSans-30"/>
      </g>
     </g>
    </g>
    <g id="ytick_2">
     <g id="line2d_13">
      <path clip-path="url(#p02ac596100)" d="M 72 283.910577 
L 518.4 283.910577 
" style="fill:none;stroke:#b0b0b0;stroke-dasharray:5.12,1.28,0.8,1.28;stroke-dashoffset:0;stroke-width:0.8;"/>
     </g>
     <g id="line2d_14">
      <g>
       <use style="stroke:#000000;stroke-width:0.8;" x="72" xlink:href="#m59647586cc" y="283.910577"/>
      </g>
     </g>
     <g id="text_8">
      <!-- −1000 -->
      <defs>
       <path d="M 12.40625 8.296875 
L 28.515625 8.296875 
L 28.515625 63.921875 
L 10.984375 60.40625 
L 10.984375 69.390625 
L 28.421875 72.90625 
L 38.28125 72.90625 
L 38.28125 8.296875 
L 54.390625 8.296875 
L 54.390625 0 
L 12.40625 0 
z
" id="DejaVuSans-31"/>
      </defs>
      <g transform="translate(31.170313 287.709796)scale(0.1 -0.1)">
       <use xlink:href="#DejaVuSans-2212"/>
       <use x="83.789062" xlink:href="#DejaVuSans-31"/>
       <use x="147.412109" xlink:href="#DejaVuSans-30"/>
       <use x="211.035156" xlink:href="#DejaVuSans-30"/>
       <use x="274.658203" xlink:href="#DejaVuSans-30"/>
      </g>
     </g>
    </g>
    <g id="ytick_3">
     <g id="line2d_15">
      <path clip-path="url(#p02ac596100)" d="M 72 218.16 
L 518.4 218.16 
" style="fill:none;stroke:#b0b0b0;stroke-dasharray:5.12,1.28,0.8,1.28;stroke-dashoffset:0;stroke-width:0.8;"/>
     </g>
     <g id="line2d_16">
      <g>
       <use style="stroke:#000000;stroke-width:0.8;" x="72" xlink:href="#m59647586cc" y="218.16"/>
      </g>
     </g>
     <g id="text_9">
      <!-- 0 -->
      <g transform="translate(58.6375 221.959219)scale(0.1 -0.1)">
       <use xlink:href="#DejaVuSans-30"/>
      </g>
     </g>
    </g>
    <g id="ytick_4">
     <g id="line2d_17">
      <path clip-path="url(#p02ac596100)" d="M 72 152.409423 
L 518.4 152.409423 
" style="fill:none;stroke:#b0b0b0;stroke-dasharray:5.12,1.28,0.8,1.28;stroke-dashoffset:0;stroke-width:0.8;"/>
     </g>
     <g id="line2d_18">
      <g>
       <use style="stroke:#000000;stroke-width:0.8;" x="72" xlink:href="#m59647586cc" y="152.409423"/>
      </g>
     </g>
     <g id="text_10">
      <!-- 1000 -->
      <g transform="translate(39.55 156.208642)scale(0.1 -0.1)">
       <use xlink:href="#DejaVuSans-31"/>
       <use x="63.623047" xlink:href="#DejaVuSans-30"/>
       <use x="127.246094" xlink:href="#DejaVuSans-30"/>
       <use x="190.869141" xlink:href="#DejaVuSans-30"/>
      </g>
     </g>
    </g>
    <g id="ytick_5">
     <g id="line2d_19">
      <path clip-path="url(#p02ac596100)" d="M 72 86.658846 
L 518.4 86.658846 
" style="fill:none;stroke:#b0b0b0;stroke-dasharray:5.12,1.28,0.8,1.28;stroke-dashoffset:0;stroke-width:0.8;"/>
     </g>
     <g id="line2d_20">
      <g>
       <use style="stroke:#000000;stroke-width:0.8;" x="72" xlink:href="#m59647586cc" y="86.658846"/>
      </g>
     </g>
     <g id="text_11">
      <!-- 2000 -->
      <g transform="translate(39.55 90.458065)scale(0.1 -0.1)">
       <use xlink:href="#DejaVuSans-32"/>
       <use x="63.623047" xlink:href="#DejaVuSans-30"/>
       <use x="127.246094" xlink:href="#DejaVuSans-30"/>
       <use x="190.869141" xlink:href="#DejaVuSans-30"/>
      </g>
     </g>
    </g>
    <g id="text_12">
     <!-- $\partial \mathcal{L}/ \partial u_{m} modified[m.u/V]$ -->
     <defs>
      <path d="M 21.34375 -1.421875 
Q 14.453125 -1.421875 9.96875 2.734375 
Q 4.640625 7.671875 4.640625 16.609375 
Q 4.640625 25.875 9.328125 33.109375 
Q 14.15625 40.53125 22.859375 40.53125 
Q 28.5625 40.53125 33.0625 36.96875 
Q 35.6875 34.859375 37.5 31.34375 
Q 38.140625 35.296875 38.140625 39.796875 
Q 38.140625 46.390625 36.578125 50.203125 
Q 33.109375 58.640625 23.921875 58.640625 
Q 20.453125 58.640625 15.09375 56.5 
L 15.09375 64.703125 
Q 20.75 66.21875 25.828125 66.21875 
Q 38.921875 66.21875 44.484375 54.203125 
Q 47.078125 48.53125 47.078125 40.09375 
Q 47.078125 34.578125 45.84375 28.171875 
Q 42.78125 12.15625 34.8125 4.546875 
Q 28.5625 -1.421875 21.34375 -1.421875 
z
M 12.984375 15.140625 
Q 12.984375 10.25 15.140625 7.625 
Q 17.4375 4.828125 20.953125 4.828125 
Q 24.078125 4.828125 26.5625 7.03125 
Q 30.078125 10.0625 32.671875 14.984375 
Q 34.8125 19.046875 35.890625 23.390625 
Q 31.546875 33.890625 24.03125 33.890625 
Q 17.578125 33.890625 14.75 25.390625 
Q 12.984375 20.125 12.984375 15.140625 
z
" id="DejaVuSans-2202"/>
      <path d="M 63.59375 14.296875 
L 65.296875 12.5 
Q 52.296875 -0.703125 37.703125 -0.703125 
Q 33.703125 -0.703125 28.90625 0.40625 
Q 21.796875 1.90625 17.90625 1.90625 
Q 15.703125 1.90625 10.5 0.953125 
Q 5.296875 0 3 0 
L 3.59375 2.40625 
Q 9.09375 2.40625 11.40625 11.703125 
L 18.40625 40.09375 
Q 20.09375 47 23.6875 52.390625 
Q 27.296875 57.796875 31.640625 60.84375 
Q 36 63.90625 40.390625 65.453125 
Q 44.796875 67 48.796875 67 
Q 53.796875 67 56.140625 63.796875 
Q 58.5 60.59375 58.5 56 
Q 58.5 52.296875 56.140625 50 
Q 53.796875 47.703125 50.40625 47.703125 
Q 48.203125 47.703125 46.796875 49.203125 
Q 45.40625 50.703125 45.40625 52.796875 
Q 45.40625 54.40625 46.203125 55.5 
Q 47 56.59375 47.890625 56.9375 
Q 48.796875 57.296875 49.59375 57.890625 
Q 50.40625 58.5 50.40625 59.203125 
Q 50.40625 63 44.59375 63 
Q 39.40625 63 36.09375 59.140625 
Q 32.796875 55.296875 31.09375 48.9375 
Q 29.40625 42.59375 28.046875 35.6875 
Q 26.703125 28.796875 24.203125 21.296875 
Q 21.703125 13.796875 18.09375 9.203125 
L 18.09375 8.796875 
Q 21.296875 11 29.5 11 
Q 34.796875 11 38.4375 8.5 
Q 42.09375 6 46.296875 6 
Q 54.796875 6 63.59375 14.296875 
z
" id="STIXNonUnicode-Italic-e238"/>
      <path d="M 25.390625 72.90625 
L 33.6875 72.90625 
L 8.296875 -9.28125 
L 0 -9.28125 
z
" id="DejaVuSans-2f"/>
      <path d="M 6.6875 21.6875 
L 13.09375 54.6875 
L 22.125 54.6875 
L 15.71875 22.015625 
Q 15.234375 19.625 15.015625 17.921875 
Q 14.796875 16.21875 14.796875 15.09375 
Q 14.796875 10.9375 17.328125 8.65625 
Q 19.875 6.390625 24.515625 6.390625 
Q 31.734375 6.390625 37 11.265625 
Q 42.28125 16.15625 43.890625 24.421875 
L 49.90625 54.6875 
L 58.890625 54.6875 
L 48.296875 0 
L 39.3125 0 
L 41.109375 8.59375 
Q 37.3125 3.8125 32.0625 1.1875 
Q 26.8125 -1.421875 20.90625 -1.421875 
Q 13.71875 -1.421875 9.71875 2.515625 
Q 5.71875 6.453125 5.71875 13.484375 
Q 5.71875 14.9375 5.953125 17.140625 
Q 6.203125 19.34375 6.6875 21.6875 
z
" id="DejaVuSans-Oblique-75"/>
      <path d="M 89.796875 33.015625 
L 83.40625 0 
L 74.421875 0 
L 80.71875 32.71875 
Q 81.109375 34.8125 81.296875 36.328125 
Q 81.5 37.84375 81.5 38.921875 
Q 81.5 43.3125 79.046875 45.75 
Q 76.609375 48.1875 72.21875 48.1875 
Q 65.671875 48.1875 60.546875 43.28125 
Q 55.421875 38.375 53.90625 30.515625 
L 47.90625 0 
L 38.921875 0 
L 45.3125 32.71875 
Q 45.703125 34.515625 45.890625 36.046875 
Q 46.09375 37.59375 46.09375 38.8125 
Q 46.09375 43.265625 43.65625 45.71875 
Q 41.21875 48.1875 36.921875 48.1875 
Q 30.28125 48.1875 25.140625 43.28125 
Q 20.015625 38.375 18.5 30.515625 
L 12.5 0 
L 3.515625 0 
L 14.203125 54.6875 
L 23.1875 54.6875 
L 21.484375 46.1875 
Q 25.140625 50.984375 30.046875 53.484375 
Q 34.96875 56 40.578125 56 
Q 46.53125 56 50.359375 52.875 
Q 54.203125 49.75 54.984375 44.1875 
Q 59.078125 49.953125 64.46875 52.96875 
Q 69.875 56 75.875 56 
Q 82.90625 56 86.734375 51.953125 
Q 90.578125 47.90625 90.578125 40.484375 
Q 90.578125 38.875 90.375 36.9375 
Q 90.1875 35.015625 89.796875 33.015625 
z
" id="DejaVuSans-Oblique-6d"/>
      <path d="M 25.390625 -1.421875 
Q 15.765625 -1.421875 10.171875 4.515625 
Q 4.59375 10.453125 4.59375 20.703125 
Q 4.59375 26.65625 6.515625 32.828125 
Q 8.453125 39.015625 11.53125 43.21875 
Q 16.359375 49.75 22.3125 52.875 
Q 28.265625 56 35.796875 56 
Q 45.125 56 50.859375 50.1875 
Q 56.59375 44.390625 56.59375 35.015625 
Q 56.59375 28.515625 54.6875 22.0625 
Q 52.78125 15.625 49.703125 11.375 
Q 44.921875 4.828125 38.96875 1.703125 
Q 33.015625 -1.421875 25.390625 -1.421875 
z
M 13.921875 21 
Q 13.921875 13.578125 17.015625 9.890625 
Q 20.125 6.203125 26.421875 6.203125 
Q 35.453125 6.203125 41.375 14.078125 
Q 47.3125 21.96875 47.3125 34.078125 
Q 47.3125 41.15625 44.140625 44.765625 
Q 40.96875 48.390625 34.8125 48.390625 
Q 29.734375 48.390625 25.78125 46.015625 
Q 21.828125 43.65625 18.703125 38.8125 
Q 16.40625 35.203125 15.15625 30.5625 
Q 13.921875 25.921875 13.921875 21 
z
" id="DejaVuSans-Oblique-6f"/>
      <path d="M 41.796875 8.203125 
Q 38.1875 3.46875 33.25 1.015625 
Q 28.328125 -1.421875 22.3125 -1.421875 
Q 14.109375 -1.421875 9.34375 4.171875 
Q 4.59375 9.765625 4.59375 19.484375 
Q 4.59375 27.59375 7.46875 34.9375 
Q 10.359375 42.28125 15.828125 48.09375 
Q 19.4375 51.953125 23.96875 53.96875 
Q 28.515625 56 33.5 56 
Q 38.765625 56 42.796875 53.453125 
Q 46.828125 50.921875 49.03125 46.1875 
L 54.890625 75.984375 
L 63.921875 75.984375 
L 49.125 0 
L 40.09375 0 
z
M 13.921875 21.09375 
Q 13.921875 14.015625 17.109375 10.0625 
Q 20.3125 6.109375 25.984375 6.109375 
Q 30.171875 6.109375 33.765625 8.125 
Q 37.359375 10.15625 40.09375 14.109375 
Q 42.96875 18.21875 44.625 23.578125 
Q 46.296875 28.953125 46.296875 34.1875 
Q 46.296875 40.96875 43.09375 44.765625 
Q 39.890625 48.578125 34.28125 48.578125 
Q 30.03125 48.578125 26.359375 46.578125 
Q 22.703125 44.578125 20.125 40.828125 
Q 17.28125 36.765625 15.59375 31.390625 
Q 13.921875 26.03125 13.921875 21.09375 
z
" id="DejaVuSans-Oblique-64"/>
      <path d="M 18.3125 75.984375 
L 27.296875 75.984375 
L 25.09375 64.59375 
L 16.109375 64.59375 
z
M 14.203125 54.6875 
L 23.1875 54.6875 
L 12.5 0 
L 3.515625 0 
z
" id="DejaVuSans-Oblique-69"/>
      <path d="M 47.796875 75.984375 
L 46.390625 68.5 
L 37.796875 68.5 
Q 32.90625 68.5 30.6875 66.578125 
Q 28.46875 64.65625 27.390625 59.515625 
L 26.421875 54.6875 
L 41.21875 54.6875 
L 39.890625 47.703125 
L 25.09375 47.703125 
L 15.828125 0 
L 6.78125 0 
L 16.109375 47.703125 
L 7.515625 47.703125 
L 8.796875 54.6875 
L 17.390625 54.6875 
L 18.109375 58.5 
Q 19.96875 68.171875 24.625 72.078125 
Q 29.296875 75.984375 39.3125 75.984375 
z
" id="DejaVuSans-Oblique-66"/>
      <path d="M 48.09375 32.234375 
Q 48.25 33.015625 48.3125 33.84375 
Q 48.390625 34.671875 48.390625 35.5 
Q 48.390625 41.453125 44.890625 44.921875 
Q 41.40625 48.390625 35.40625 48.390625 
Q 28.71875 48.390625 23.578125 44.15625 
Q 18.453125 39.9375 15.828125 32.171875 
z
M 55.90625 25.203125 
L 14.109375 25.203125 
Q 13.8125 23.34375 13.71875 22.265625 
Q 13.625 21.1875 13.625 20.40625 
Q 13.625 13.625 17.796875 9.90625 
Q 21.96875 6.203125 29.59375 6.203125 
Q 35.453125 6.203125 40.671875 7.515625 
Q 45.90625 8.84375 50.390625 11.375 
L 48.6875 2.484375 
Q 43.84375 0.53125 38.6875 -0.4375 
Q 33.546875 -1.421875 28.21875 -1.421875 
Q 16.84375 -1.421875 10.71875 4.015625 
Q 4.59375 9.46875 4.59375 19.484375 
Q 4.59375 28.03125 7.640625 35.375 
Q 10.6875 42.71875 16.609375 48.484375 
Q 20.40625 52.09375 25.65625 54.046875 
Q 30.90625 56 36.8125 56 
Q 46.09375 56 51.578125 50.4375 
Q 57.078125 44.875 57.078125 35.5 
Q 57.078125 33.25 56.78125 30.6875 
Q 56.5 28.125 55.90625 25.203125 
z
" id="DejaVuSans-Oblique-65"/>
      <path d="M 8.59375 75.984375 
L 29.296875 75.984375 
L 29.296875 69 
L 17.578125 69 
L 17.578125 -6.203125 
L 29.296875 -6.203125 
L 29.296875 -13.1875 
L 8.59375 -13.1875 
z
" id="DejaVuSans-5b"/>
      <path d="M 10.6875 12.40625 
L 21 12.40625 
L 21 0 
L 10.6875 0 
z
" id="DejaVuSans-2e"/>
      <path d="M 20.609375 0 
L 7.8125 72.90625 
L 17.484375 72.90625 
L 28.078125 10.203125 
L 63.484375 72.90625 
L 74.21875 72.90625 
L 32.078125 0 
z
" id="DejaVuSans-Oblique-56"/>
      <path d="M 30.421875 75.984375 
L 30.421875 -13.1875 
L 9.71875 -13.1875 
L 9.71875 -6.203125 
L 21.390625 -6.203125 
L 21.390625 69 
L 9.71875 69 
L 9.71875 75.984375 
z
" id="DejaVuSans-5d"/>
     </defs>
     <g transform="translate(24.25875 300.13)rotate(-90)scale(0.14 -0.14)">
      <use transform="translate(0 0.015625)" xlink:href="#DejaVuSans-2202"/>
      <use transform="translate(51.708984 0.015625)" xlink:href="#STIXNonUnicode-Italic-e238"/>
      <use transform="translate(121.008972 0.015625)" xlink:href="#DejaVuSans-2f"/>
      <use transform="translate(154.700378 0.015625)" xlink:href="#DejaVuSans-2202"/>
      <use transform="translate(206.409363 0.015625)" xlink:href="#DejaVuSans-Oblique-75"/>
      <use transform="translate(269.788269 -16.390625)scale(0.7)" xlink:href="#DejaVuSans-Oblique-6d"/>
      <use transform="translate(340.711121 0.015625)" xlink:href="#DejaVuSans-Oblique-6d"/>
      <use transform="translate(438.12323 0.015625)" xlink:href="#DejaVuSans-Oblique-6f"/>
      <use transform="translate(499.304871 0.015625)" xlink:href="#DejaVuSans-Oblique-64"/>
      <use transform="translate(562.781433 0.015625)" xlink:href="#DejaVuSans-Oblique-69"/>
      <use transform="translate(590.564636 0.015625)" xlink:href="#DejaVuSans-Oblique-66"/>
      <use transform="translate(625.769714 0.015625)" xlink:href="#DejaVuSans-Oblique-69"/>
      <use transform="translate(653.552917 0.015625)" xlink:href="#DejaVuSans-Oblique-65"/>
      <use transform="translate(715.076355 0.015625)" xlink:href="#DejaVuSans-Oblique-64"/>
      <use transform="translate(778.552917 0.015625)" xlink:href="#DejaVuSans-5b"/>
      <use transform="translate(817.566589 0.015625)" xlink:href="#DejaVuSans-Oblique-6d"/>
      <use transform="translate(914.978699 0.015625)" xlink:href="#DejaVuSans-2e"/>
      <use transform="translate(966.24823 0.015625)" xlink:href="#DejaVuSans-Oblique-75"/>
      <use transform="translate(1029.627136 0.015625)" xlink:href="#DejaVuSans-2f"/>
      <use transform="translate(1063.318542 0.015625)" xlink:href="#DejaVuSans-Oblique-56"/>
      <use transform="translate(1131.726746 0.015625)" xlink:href="#DejaVuSans-5d"/>
     </g>
    </g>
   </g>
   <g id="line2d_21">
    <path clip-path="url(#p02ac596100)" d="M 92.290909 218.16 
L 92.732496 218.16 
L 93.174083 218.16 
L 93.615669 229.666351 
L 94.057256 237.037609 
L 94.498843 241.737342 
L 94.940429 243.822141 
L 95.382016 244.262992 
L 95.823603 243.80717 
L 96.706776 241.82074 
L 98.473123 237.533841 
L 99.356296 235.832736 
L 100.23947 234.460009 
L 101.122643 233.37592 
L 102.447403 232.185722 
L 103.772163 231.385459 
L 105.096924 230.854609 
L 106.86327 230.418123 
L 109.071204 230.127453 
L 111.279137 229.985024 
L 111.720724 237.224584 
L 112.603898 263.549556 
L 113.487071 279.429971 
L 114.370244 290.147361 
L 115.253418 297.663579 
L 116.136591 302.828878 
L 117.019765 306.125724 
L 117.461351 307.184966 
L 117.902938 307.901601 
L 118.344525 308.309255 
L 118.786111 311.747339 
L 119.227698 309.08928 
L 120.110872 296.897256 
L 122.318805 258.140066 
L 124.968325 212.674765 
L 127.176259 177.934178 
L 128.059432 165.786556 
L 128.942606 155.789391 
L 129.825779 147.693108 
L 130.708952 141.114585 
L 131.592126 135.733381 
L 132.475299 131.304987 
L 133.358473 127.643962 
L 134.683233 123.28727 
L 136.007993 119.981278 
L 137.332753 117.465793 
L 138.657513 115.548894 
L 139.982273 114.086923 
L 141.307033 112.971392 
L 142.631793 112.119995 
L 144.39814 111.289624 
L 146.164487 110.710269 
L 148.372421 110.225727 
L 151.021941 109.869905 
L 154.996221 109.593956 
L 160.736848 109.441395 
L 161.178435 108.632308 
L 161.620022 106.6936 
L 162.503195 100.701552 
L 164.269542 87.448235 
L 165.594302 79.473702 
L 166.477476 75.331988 
L 167.360649 72.052658 
L 168.243822 69.543228 
L 169.126996 67.804356 
L 169.568582 67.274584 
L 170.010169 66.991225 
L 170.451756 66.96 
L 170.893343 67.180843 
L 171.334929 67.649454 
L 171.776516 68.358534 
L 172.659689 70.459653 
L 173.542863 73.397652 
L 174.426036 77.079389 
L 175.750796 83.796717 
L 177.075556 91.694223 
L 178.841903 103.626565 
L 181.049837 120.099629 
L 185.024117 151.874864 
L 190.323158 194.087747 
L 193.414265 217.01717 
L 196.063785 235.156951 
L 198.713305 251.675955 
L 200.921239 264.105497 
L 203.129172 275.269886 
L 205.337106 285.146398 
L 207.103452 292.117459 
L 208.869799 298.267551 
L 210.636146 303.608187 
L 212.402493 308.155859 
L 213.727253 311.058602 
L 215.052013 313.537109 
L 216.376773 315.602611 
L 217.701533 317.267284 
L 219.026293 318.544108 
L 220.351054 319.446811 
L 221.675814 319.98972 
L 223.000574 320.187728 
L 224.325334 320.056154 
L 225.650094 319.610701 
L 226.974854 318.867357 
L 228.299614 317.842345 
L 229.624374 316.552036 
L 231.390721 314.447387 
L 233.157068 311.939436 
L 234.923415 309.067122 
L 237.131348 305.023047 
L 239.780869 299.602267 
L 242.871975 292.651531 
L 246.404669 284.111149 
L 252.145296 269.516717 
L 259.65227 250.5024 
L 263.626551 241.015052 
L 267.159244 233.133911 
L 270.250351 226.752575 
L 273.341458 220.909222 
L 275.990978 216.359296 
L 278.640499 212.250897 
L 281.290019 208.593896 
L 283.497952 205.893868 
L 285.705886 203.508602 
L 287.913819 201.434296 
L 290.121753 199.664751 
L 292.329686 198.191635 
L 294.53762 197.004693 
L 296.745553 196.092002 
L 298.953487 195.440197 
L 301.161421 195.0347 
L 303.369354 194.859942 
L 305.577288 194.899563 
L 307.785221 195.13662 
L 310.434741 195.657299 
L 313.084262 196.407013 
L 316.175368 197.530697 
L 319.708062 199.085179 
L 323.682342 201.096686 
L 328.981383 204.058355 
L 344.436918 212.900072 
L 349.294371 215.344731 
L 353.710238 217.320648 
L 357.684519 218.871829 
L 361.658799 220.194356 
L 365.633079 221.283363 
L 369.60736 222.140967 
L 373.58164 222.775243 
L 377.55592 223.199203 
L 381.971788 223.444315 
L 386.829241 223.471101 
L 392.128282 223.256478 
L 397.868909 222.798992 
L 405.375883 221.96014 
L 421.273004 219.867266 
L 431.429498 218.669048 
L 439.819646 217.89586 
L 447.768207 217.378311 
L 456.158354 217.057863 
L 464.990088 216.942661 
L 475.588169 217.036309 
L 490.602117 217.419063 
L 498.109091 217.648592 
L 498.109091 217.648592 
" style="fill:none;stroke:#bf00bf;stroke-linecap:square;stroke-width:1.5;"/>
   </g>
   <g id="line2d_22">
    <path clip-path="url(#p02ac596100)" d="M 92.290909 218.16 
L 93.615669 218.16 
L 94.057256 205.215355 
L 94.940429 196.078188 
L 95.382016 193.516901 
L 96.265189 190.229286 
L 98.91471 181.92773 
L 100.23947 178.661354 
L 101.122643 176.979901 
L 102.005817 175.654547 
L 102.88899 174.627391 
L 104.21375 173.519764 
L 105.53851 172.786822 
L 106.86327 172.305692 
L 108.629617 171.912918 
L 110.837551 171.652631 
L 111.279137 171.619427 
L 111.720724 161.913682 
L 112.162311 142.725468 
L 112.603898 133.513457 
L 113.045484 129.704875 
L 113.487071 128.756981 
L 113.928658 129.269501 
L 114.811831 132.019663 
L 117.902938 143.403396 
L 118.344525 128.418399 
L 118.786111 128.010745 
L 119.227698 124.572661 
L 119.669285 127.23072 
L 120.552458 139.422744 
L 122.760392 178.179934 
L 125.409912 223.645235 
L 127.617845 258.385822 
L 128.501019 270.533444 
L 129.384192 280.530609 
L 130.267366 288.626892 
L 131.150539 295.205415 
L 132.033713 300.586619 
L 132.916886 305.015013 
L 133.800059 308.676038 
L 135.124819 313.03273 
L 136.44958 316.338722 
L 137.77434 318.854207 
L 139.0991 320.771106 
L 140.42386 322.233077 
L 141.74862 323.348608 
L 143.07338 324.200005 
L 144.839727 325.030376 
L 146.606074 325.609731 
L 148.814007 326.094273 
L 151.463528 326.450095 
L 155.437808 326.726044 
L 161.178435 326.878605 
L 161.620022 327.687692 
L 162.061608 329.6264 
L 162.944782 335.618448 
L 164.711129 348.871765 
L 166.035889 356.846298 
L 166.919062 360.988012 
L 167.802236 364.267342 
L 168.685409 366.776772 
L 169.568582 368.515644 
L 170.010169 369.045416 
L 170.451756 369.328775 
L 170.893343 369.36 
L 171.334929 369.139157 
L 171.776516 368.670546 
L 172.218103 367.961466 
L 173.101276 365.860347 
L 173.98445 362.922348 
L 174.867623 359.240611 
L 176.192383 352.523283 
L 177.517143 344.625777 
L 179.28349 332.693435 
L 181.491423 316.220371 
L 185.465704 284.445136 
L 190.764744 242.232253 
L 193.855851 219.30283 
L 196.505371 201.163049 
L 199.154892 184.644045 
L 201.362825 172.214503 
L 203.570759 161.050114 
L 205.778692 151.173602 
L 207.545039 144.202541 
L 209.311386 138.052449 
L 211.077733 132.711813 
L 212.84408 128.164141 
L 214.16884 125.261398 
L 215.4936 122.782891 
L 216.81836 120.717389 
L 218.14312 119.052716 
L 219.46788 117.775892 
L 220.79264 116.873189 
L 222.1174 116.33028 
L 223.44216 116.132272 
L 224.766921 116.263846 
L 226.091681 116.709299 
L 227.416441 117.452643 
L 228.741201 118.477655 
L 230.065961 119.767964 
L 231.832308 121.872613 
L 233.598655 124.380564 
L 235.365001 127.252878 
L 237.572935 131.296953 
L 240.222455 136.717733 
L 243.313562 143.668469 
L 246.846256 152.208851 
L 252.586883 166.803283 
L 260.093857 185.8176 
L 264.068137 195.304948 
L 267.600831 203.186089 
L 270.691938 209.567425 
L 273.783045 215.410778 
L 276.432565 219.960704 
L 279.082085 224.069103 
L 281.731606 227.726104 
L 283.939539 230.426132 
L 286.147473 232.811398 
L 288.355406 234.885704 
L 290.56334 236.655249 
L 292.771273 238.128365 
L 294.979207 239.315307 
L 297.18714 240.227998 
L 299.395074 240.879803 
L 301.603007 241.2853 
L 303.810941 241.460058 
L 306.018874 241.420437 
L 308.226808 241.18338 
L 310.876328 240.662701 
L 313.525848 239.912987 
L 316.616955 238.789303 
L 320.149649 237.234821 
L 324.123929 235.223314 
L 329.42297 232.261645 
L 344.878504 223.419928 
L 349.735958 220.975269 
L 354.151825 218.999352 
L 358.126105 217.448171 
L 362.100386 216.125644 
L 366.074666 215.036637 
L 370.048946 214.179033 
L 374.023227 213.544757 
L 377.997507 213.120797 
L 382.413374 212.875685 
L 387.270828 212.848899 
L 392.569868 213.063522 
L 398.310496 213.521008 
L 405.81747 214.35986 
L 421.714591 216.452734 
L 431.871085 217.650952 
L 440.261233 218.42414 
L 448.209793 218.941689 
L 456.599941 219.262137 
L 465.431675 219.377339 
L 476.029756 219.283691 
L 491.043704 218.900937 
L 498.109091 218.684867 
L 498.109091 218.684867 
" style="fill:none;stroke:#00bfbf;stroke-linecap:square;stroke-width:1.5;"/>
   </g>
   <g id="line2d_23">
    <path clip-path="url(#p02ac596100)" d="M 92.290909 218.16 
L 92.732496 218.16 
L 93.174083 218.16 
L 93.615669 229.666351 
L 94.057256 263.106687 
L 94.498843 273.686007 
L 94.940429 281.386202 
L 95.382016 286.719455 
L 96.265189 293.384242 
L 97.148363 297.588564 
L 98.031536 300.704326 
L 98.91471 303.158894 
L 99.797883 305.109943 
L 100.681056 306.647974 
L 101.56423 307.846686 
L 102.447403 308.771534 
L 103.772163 309.767366 
L 105.096924 310.426482 
L 106.421684 310.859476 
L 108.18803 311.213228 
L 110.837551 311.477729 
L 111.279137 311.503668 
L 111.720724 309.106901 
L 112.603898 293.136422 
L 113.928658 269.757594 
L 114.811831 257.483388 
L 115.695004 247.527922 
L 116.578178 239.462036 
L 117.461351 232.931544 
L 117.902938 230.151814 
L 118.344525 243.797294 
L 118.786111 243.413528 
L 119.669285 238.937616 
L 120.110872 237.702603 
L 120.552458 236.971372 
L 120.994045 236.539417 
L 121.877218 236.103891 
L 123.643565 235.713813 
L 127.176259 234.949028 
L 128.059432 234.693739 
L 128.942606 234.236917 
L 130.267366 233.235969 
L 132.916886 231.180179 
L 134.683233 230.142484 
L 136.44958 229.382834 
L 138.657513 228.733173 
L 141.307033 228.251103 
L 144.39814 227.935086 
L 148.814007 227.721061 
L 156.762568 227.603354 
L 160.295262 227.588442 
L 161.178435 202.269374 
L 162.061608 184.025628 
L 162.944782 170.808322 
L 163.827955 160.522979 
L 165.152715 148.401551 
L 166.477476 138.920318 
L 167.802236 131.471113 
L 168.685409 127.490579 
L 169.568582 124.20282 
L 170.893343 120.25816 
L 172.218103 117.136027 
L 173.542863 114.608595 
L 174.867623 112.570662 
L 176.192383 110.972101 
L 177.517143 109.784994 
L 178.841903 108.989807 
L 179.725077 108.669141 
L 180.60825 108.510518 
L 181.491423 108.509223 
L 182.374597 108.660521 
L 183.699357 109.163027 
L 185.024117 109.981497 
L 186.348877 111.099112 
L 187.673637 112.498803 
L 189.439984 114.77401 
L 191.206331 117.47889 
L 192.972678 120.572297 
L 195.180611 124.923164 
L 197.830132 130.750552 
L 200.921239 138.218397 
L 204.453932 147.390511 
L 210.194559 163.05957 
L 217.701533 183.469009 
L 221.675814 193.651117 
L 225.208507 202.108818 
L 228.299614 208.956609 
L 231.390721 215.226781 
L 234.040241 220.108794 
L 236.689762 224.516851 
L 239.339282 228.440366 
L 241.547215 231.337001 
L 243.755149 233.895796 
L 245.963082 236.120855 
L 248.171016 238.018824 
L 250.378949 239.598673 
L 252.586883 240.871406 
L 254.794817 241.849834 
L 257.00275 242.548303 
L 259.210684 242.982467 
L 261.418617 243.169047 
L 263.626551 243.125606 
L 265.834484 242.870316 
L 268.484004 242.310548 
L 271.133525 241.505051 
L 274.224632 240.29818 
L 277.315738 238.85216 
L 281.290019 236.721105 
L 286.147473 233.83572 
L 303.810941 223.057846 
L 308.226808 220.731439 
L 312.642675 218.66626 
L 316.616955 217.055555 
L 320.591236 215.692151 
L 324.565516 214.579487 
L 328.539796 213.713775 
L 332.514077 213.085061 
L 336.488357 212.678322 
L 340.904224 212.463554 
L 345.320091 212.469136 
L 350.177545 212.69038 
L 355.918172 213.181754 
L 362.983559 214.023828 
L 375.789574 215.832673 
L 387.270828 217.358132 
L 395.660975 218.249526 
L 403.609536 218.868259 
L 411.558097 219.260342 
L 419.948244 219.448323 
L 429.663152 219.429512 
L 442.027579 219.159691 
L 486.627837 217.968942 
L 498.109091 217.87409 
L 498.109091 217.87409 
" style="fill:none;stroke:#ff0000;stroke-linecap:square;stroke-width:1.5;"/>
   </g>
   <g id="line2d_24">
    <path clip-path="url(#p02ac596100)" d="M 92.290909 218.16 
L 93.615669 218.16 
L 94.057256 209.530237 
L 94.940429 205.913436 
L 95.382016 205.353556 
L 95.823603 205.813607 
L 96.265189 206.96843 
L 97.148363 210.310078 
L 98.91471 217.293289 
L 99.797883 220.10264 
L 100.681056 222.369017 
L 101.56423 224.150851 
L 102.447403 225.529469 
L 103.330577 226.58522 
L 104.21375 227.388317 
L 105.53851 228.242312 
L 106.86327 228.801862 
L 108.629617 229.258191 
L 110.837551 229.56042 
L 111.720724 229.632371 
L 112.162311 229.056501 
L 112.603898 226.922829 
L 113.487071 220.096085 
L 114.811831 209.741875 
L 115.695004 204.435271 
L 116.578178 200.458525 
L 117.461351 197.593305 
L 118.344525 195.614417 
L 118.786111 195.136121 
L 119.669285 202.73383 
L 120.110872 204.851755 
L 120.552458 206.083144 
L 120.994045 206.79542 
L 121.877218 207.501654 
L 123.201978 208.026889 
L 125.851499 209.058417 
L 127.617845 209.910341 
L 128.501019 210.596442 
L 129.384192 211.721092 
L 133.800059 218.337494 
L 135.124819 219.72752 
L 136.44958 220.819098 
L 137.77434 221.665301 
L 139.540687 222.498295 
L 141.307033 223.082562 
L 143.514967 223.572443 
L 146.164487 223.932618 
L 150.138767 224.212071 
L 156.320981 224.372581 
L 160.736848 224.410322 
L 162.061608 252.294372 
L 162.944782 265.511678 
L 163.827955 275.797021 
L 165.152715 287.918449 
L 166.477476 297.399682 
L 167.802236 304.848887 
L 168.685409 308.829421 
L 169.568582 312.11718 
L 170.893343 316.06184 
L 172.218103 319.183973 
L 173.542863 321.711405 
L 174.867623 323.749338 
L 176.192383 325.347899 
L 177.517143 326.535006 
L 178.841903 327.330193 
L 179.725077 327.650859 
L 180.60825 327.809482 
L 181.491423 327.810777 
L 182.374597 327.659479 
L 183.699357 327.156973 
L 185.024117 326.338503 
L 186.348877 325.220888 
L 187.673637 323.821197 
L 189.439984 321.54599 
L 191.206331 318.84111 
L 192.972678 315.747703 
L 195.180611 311.396836 
L 197.830132 305.569448 
L 200.921239 298.101603 
L 204.453932 288.929489 
L 210.194559 273.26043 
L 217.701533 252.850991 
L 221.675814 242.668883 
L 225.208507 234.211182 
L 228.299614 227.363391 
L 231.390721 221.093219 
L 234.040241 216.211206 
L 236.689762 211.803149 
L 239.339282 207.879634 
L 241.547215 204.982999 
L 243.755149 202.424204 
L 245.963082 200.199145 
L 248.171016 198.301176 
L 250.378949 196.721327 
L 252.586883 195.448594 
L 254.794817 194.470166 
L 257.00275 193.771697 
L 259.210684 193.337533 
L 261.418617 193.150953 
L 263.626551 193.194394 
L 265.834484 193.449684 
L 268.484004 194.009452 
L 271.133525 194.814949 
L 274.224632 196.02182 
L 277.315738 197.46784 
L 281.290019 199.598895 
L 286.147473 202.48428 
L 303.810941 213.262154 
L 308.226808 215.588561 
L 312.642675 217.65374 
L 316.616955 219.264445 
L 320.591236 220.627849 
L 324.565516 221.740513 
L 328.539796 222.606225 
L 332.514077 223.234939 
L 336.488357 223.641678 
L 340.904224 223.856446 
L 345.320091 223.850864 
L 350.177545 223.62962 
L 355.918172 223.138246 
L 362.983559 222.296172 
L 375.789574 220.487327 
L 387.270828 218.961868 
L 395.660975 218.070474 
L 403.609536 217.451741 
L 411.558097 217.059658 
L 419.948244 216.871677 
L 429.663152 216.890488 
L 442.027579 217.160309 
L 486.627837 218.351058 
L 498.109091 218.44591 
L 498.109091 218.44591 
" style="fill:none;stroke:#008000;stroke-linecap:square;stroke-width:1.5;"/>
   </g>
   <g id="patch_3">
    <path d="M 72 384.48 
L 72 51.84 
" style="fill:none;stroke:#000000;stroke-linecap:square;stroke-linejoin:miter;stroke-width:0.8;"/>
   </g>
   <g id="patch_4">
    <path d="M 518.4 384.48 
L 518.4 51.84 
" style="fill:none;stroke:#000000;stroke-linecap:square;stroke-linejoin:miter;stroke-width:0.8;"/>
   </g>
   <g id="patch_5">
    <path d="M 72 384.48 
L 518.4 384.48 
" style="fill:none;stroke:#000000;stroke-linecap:square;stroke-linejoin:miter;stroke-width:0.8;"/>
   </g>
   <g id="patch_6">
    <path d="M 72 51.84 
L 518.4 51.84 
" style="fill:none;stroke:#000000;stroke-linecap:square;stroke-linejoin:miter;stroke-width:0.8;"/>
   </g>
   <g id="text_13">
    <!-- $\partial \mathcal{L}/ \partial u_{m} modified$ -->
    <g transform="translate(240.67 45.84)scale(0.14 -0.14)">
     <use transform="translate(0 0.015625)" xlink:href="#DejaVuSans-2202"/>
     <use transform="translate(51.708984 0.015625)" xlink:href="#STIXNonUnicode-Italic-e238"/>
     <use transform="translate(121.008972 0.015625)" xlink:href="#DejaVuSans-2f"/>
     <use transform="translate(154.700378 0.015625)" xlink:href="#DejaVuSans-2202"/>
     <use transform="translate(206.409363 0.015625)" xlink:href="#DejaVuSans-Oblique-75"/>
     <use transform="translate(269.788269 -16.390625)scale(0.7)" xlink:href="#DejaVuSans-Oblique-6d"/>
     <use transform="translate(340.711121 0.015625)" xlink:href="#DejaVuSans-Oblique-6d"/>
     <use transform="translate(438.12323 0.015625)" xlink:href="#DejaVuSans-Oblique-6f"/>
     <use transform="translate(499.304871 0.015625)" xlink:href="#DejaVuSans-Oblique-64"/>
     <use transform="translate(562.781433 0.015625)" xlink:href="#DejaVuSans-Oblique-69"/>
     <use transform="translate(590.564636 0.015625)" xlink:href="#DejaVuSans-Oblique-66"/>
     <use transform="translate(625.769714 0.015625)" xlink:href="#DejaVuSans-Oblique-69"/>
     <use transform="translate(653.552917 0.015625)" xlink:href="#DejaVuSans-Oblique-65"/>
     <use transform="translate(715.076355 0.015625)" xlink:href="#DejaVuSans-Oblique-64"/>
    </g>
   </g>
   <g id="legend_1">
    <g id="patch_7">
     <path d="M 403.9 118.5525 
L 511.4 118.5525 
Q 513.4 118.5525 513.4 116.5525 
L 513.4 58.84 
Q 513.4 56.84 511.4 56.84 
L 403.9 56.84 
Q 401.9 56.84 401.9 58.84 
L 401.9 116.5525 
Q 401.9 118.5525 403.9 118.5525 
z
" style="fill:#ffffff;opacity:0.8;stroke:#cccccc;stroke-linejoin:miter;"/>
    </g>
    <g id="line2d_25">
     <path d="M 405.9 64.938438 
L 425.9 64.938438 
" style="fill:none;stroke:#bf00bf;stroke-linecap:square;stroke-width:1.5;"/>
    </g>
    <g id="line2d_26"/>
    <g id="text_14">
     <!-- $\partial \mathcal{L}/ \partial u_{1} modified$ -->
     <g transform="translate(433.9 68.438438)scale(0.1 -0.1)">
      <use transform="translate(0 0.015625)" xlink:href="#DejaVuSans-2202"/>
      <use transform="translate(51.708984 0.015625)" xlink:href="#STIXNonUnicode-Italic-e238"/>
      <use transform="translate(121.008972 0.015625)" xlink:href="#DejaVuSans-2f"/>
      <use transform="translate(154.700378 0.015625)" xlink:href="#DejaVuSans-2202"/>
      <use transform="translate(206.409363 0.015625)" xlink:href="#DejaVuSans-Oblique-75"/>
      <use transform="translate(269.788269 -16.390625)scale(0.7)" xlink:href="#DejaVuSans-31"/>
      <use transform="translate(317.058777 0.015625)" xlink:href="#DejaVuSans-Oblique-6d"/>
      <use transform="translate(414.470886 0.015625)" xlink:href="#DejaVuSans-Oblique-6f"/>
      <use transform="translate(475.652527 0.015625)" xlink:href="#DejaVuSans-Oblique-64"/>
      <use transform="translate(539.129089 0.015625)" xlink:href="#DejaVuSans-Oblique-69"/>
      <use transform="translate(566.912292 0.015625)" xlink:href="#DejaVuSans-Oblique-66"/>
      <use transform="translate(602.117371 0.015625)" xlink:href="#DejaVuSans-Oblique-69"/>
      <use transform="translate(629.900574 0.015625)" xlink:href="#DejaVuSans-Oblique-65"/>
      <use transform="translate(691.424011 0.015625)" xlink:href="#DejaVuSans-Oblique-64"/>
     </g>
    </g>
    <g id="line2d_27">
     <path d="M 405.9 79.616563 
L 425.9 79.616563 
" style="fill:none;stroke:#00bfbf;stroke-linecap:square;stroke-width:1.5;"/>
    </g>
    <g id="line2d_28"/>
    <g id="text_15">
     <!-- $\partial \mathcal{L}/ \partial u_{2} modified$ -->
     <g transform="translate(433.9 83.116563)scale(0.1 -0.1)">
      <use transform="translate(0 0.015625)" xlink:href="#DejaVuSans-2202"/>
      <use transform="translate(51.708984 0.015625)" xlink:href="#STIXNonUnicode-Italic-e238"/>
      <use transform="translate(121.008972 0.015625)" xlink:href="#DejaVuSans-2f"/>
      <use transform="translate(154.700378 0.015625)" xlink:href="#DejaVuSans-2202"/>
      <use transform="translate(206.409363 0.015625)" xlink:href="#DejaVuSans-Oblique-75"/>
      <use transform="translate(269.788269 -16.390625)scale(0.7)" xlink:href="#DejaVuSans-32"/>
      <use transform="translate(317.058777 0.015625)" xlink:href="#DejaVuSans-Oblique-6d"/>
      <use transform="translate(414.470886 0.015625)" xlink:href="#DejaVuSans-Oblique-6f"/>
      <use transform="translate(475.652527 0.015625)" xlink:href="#DejaVuSans-Oblique-64"/>
      <use transform="translate(539.129089 0.015625)" xlink:href="#DejaVuSans-Oblique-69"/>
      <use transform="translate(566.912292 0.015625)" xlink:href="#DejaVuSans-Oblique-66"/>
      <use transform="translate(602.117371 0.015625)" xlink:href="#DejaVuSans-Oblique-69"/>
      <use transform="translate(629.900574 0.015625)" xlink:href="#DejaVuSans-Oblique-65"/>
      <use transform="translate(691.424011 0.015625)" xlink:href="#DejaVuSans-Oblique-64"/>
     </g>
    </g>
    <g id="line2d_29">
     <path d="M 405.9 94.294688 
L 425.9 94.294688 
" style="fill:none;stroke:#ff0000;stroke-linecap:square;stroke-width:1.5;"/>
    </g>
    <g id="line2d_30"/>
    <g id="text_16">
     <!-- $\partial \mathcal{L}/ \partial u_{3} modified$ -->
     <defs>
      <path d="M 40.578125 39.3125 
Q 47.65625 37.796875 51.625 33 
Q 55.609375 28.21875 55.609375 21.1875 
Q 55.609375 10.40625 48.1875 4.484375 
Q 40.765625 -1.421875 27.09375 -1.421875 
Q 22.515625 -1.421875 17.65625 -0.515625 
Q 12.796875 0.390625 7.625 2.203125 
L 7.625 11.71875 
Q 11.71875 9.328125 16.59375 8.109375 
Q 21.484375 6.890625 26.8125 6.890625 
Q 36.078125 6.890625 40.9375 10.546875 
Q 45.796875 14.203125 45.796875 21.1875 
Q 45.796875 27.640625 41.28125 31.265625 
Q 36.765625 34.90625 28.71875 34.90625 
L 20.21875 34.90625 
L 20.21875 43.015625 
L 29.109375 43.015625 
Q 36.375 43.015625 40.234375 45.921875 
Q 44.09375 48.828125 44.09375 54.296875 
Q 44.09375 59.90625 40.109375 62.90625 
Q 36.140625 65.921875 28.71875 65.921875 
Q 24.65625 65.921875 20.015625 65.03125 
Q 15.375 64.15625 9.8125 62.3125 
L 9.8125 71.09375 
Q 15.4375 72.65625 20.34375 73.4375 
Q 25.25 74.21875 29.59375 74.21875 
Q 40.828125 74.21875 47.359375 69.109375 
Q 53.90625 64.015625 53.90625 55.328125 
Q 53.90625 49.265625 50.4375 45.09375 
Q 46.96875 40.921875 40.578125 39.3125 
z
" id="DejaVuSans-33"/>
     </defs>
     <g transform="translate(433.9 97.794688)scale(0.1 -0.1)">
      <use transform="translate(0 0.015625)" xlink:href="#DejaVuSans-2202"/>
      <use transform="translate(51.708984 0.015625)" xlink:href="#STIXNonUnicode-Italic-e238"/>
      <use transform="translate(121.008972 0.015625)" xlink:href="#DejaVuSans-2f"/>
      <use transform="translate(154.700378 0.015625)" xlink:href="#DejaVuSans-2202"/>
      <use transform="translate(206.409363 0.015625)" xlink:href="#DejaVuSans-Oblique-75"/>
      <use transform="translate(269.788269 -16.390625)scale(0.7)" xlink:href="#DejaVuSans-33"/>
      <use transform="translate(317.058777 0.015625)" xlink:href="#DejaVuSans-Oblique-6d"/>
      <use transform="translate(414.470886 0.015625)" xlink:href="#DejaVuSans-Oblique-6f"/>
      <use transform="translate(475.652527 0.015625)" xlink:href="#DejaVuSans-Oblique-64"/>
      <use transform="translate(539.129089 0.015625)" xlink:href="#DejaVuSans-Oblique-69"/>
      <use transform="translate(566.912292 0.015625)" xlink:href="#DejaVuSans-Oblique-66"/>
      <use transform="translate(602.117371 0.015625)" xlink:href="#DejaVuSans-Oblique-69"/>
      <use transform="translate(629.900574 0.015625)" xlink:href="#DejaVuSans-Oblique-65"/>
      <use transform="translate(691.424011 0.015625)" xlink:href="#DejaVuSans-Oblique-64"/>
     </g>
    </g>
    <g id="line2d_31">
     <path d="M 405.9 108.972813 
L 425.9 108.972813 
" style="fill:none;stroke:#008000;stroke-linecap:square;stroke-width:1.5;"/>
    </g>
    <g id="line2d_32"/>
    <g id="text_17">
     <!-- $\partial \mathcal{L}/ \partial u_{4} modified$ -->
     <g transform="translate(433.9 112.472813)scale(0.1 -0.1)">
      <use transform="translate(0 0.015625)" xlink:href="#DejaVuSans-2202"/>
      <use transform="translate(51.708984 0.015625)" xlink:href="#STIXNonUnicode-Italic-e238"/>
      <use transform="translate(121.008972 0.015625)" xlink:href="#DejaVuSans-2f"/>
      <use transform="translate(154.700378 0.015625)" xlink:href="#DejaVuSans-2202"/>
      <use transform="translate(206.409363 0.015625)" xlink:href="#DejaVuSans-Oblique-75"/>
      <use transform="translate(269.788269 -16.390625)scale(0.7)" xlink:href="#DejaVuSans-34"/>
      <use transform="translate(317.058777 0.015625)" xlink:href="#DejaVuSans-Oblique-6d"/>
      <use transform="translate(414.470886 0.015625)" xlink:href="#DejaVuSans-Oblique-6f"/>
      <use transform="translate(475.652527 0.015625)" xlink:href="#DejaVuSans-Oblique-64"/>
      <use transform="translate(539.129089 0.015625)" xlink:href="#DejaVuSans-Oblique-69"/>
      <use transform="translate(566.912292 0.015625)" xlink:href="#DejaVuSans-Oblique-66"/>
      <use transform="translate(602.117371 0.015625)" xlink:href="#DejaVuSans-Oblique-69"/>
      <use transform="translate(629.900574 0.015625)" xlink:href="#DejaVuSans-Oblique-65"/>
      <use transform="translate(691.424011 0.015625)" xlink:href="#DejaVuSans-Oblique-64"/>
     </g>
    </g>
   </g>
  </g>
 </g>
 <defs>
  <clipPath id="p02ac596100">
   <rect height="332.64" width="446.4" x="72" y="51.84"/>
  </clipPath>
 </defs>
</svg>
