<?xml version="1.0" encoding="utf-8" standalone="no"?>
<!DOCTYPE svg PUBLIC "-//W3C//DTD SVG 1.1//EN"
  "http://www.w3.org/Graphics/SVG/1.1/DTD/svg11.dtd">
<!-- Created with matplotlib (http://matplotlib.org/) -->
<svg height="432pt" version="1.1" viewBox="0 0 576 432" width="576pt" xmlns="http://www.w3.org/2000/svg" xmlns:xlink="http://www.w3.org/1999/xlink">
 <defs>
  <style type="text/css">
*{stroke-linecap:butt;stroke-linejoin:round;}
  </style>
 </defs>
 <g id="figure_1">
  <g id="patch_1">
   <path d="M 0 432 
L 576 432 
L 576 0 
L 0 0 
z
" style="fill:#ffffff;"/>
  </g>
  <g id="axes_1">
   <g id="patch_2">
    <path d="M 72 384.48 
L 518.4 384.48 
L 518.4 51.84 
L 72 51.84 
z
" style="fill:#ffffff;"/>
   </g>
   <g id="matplotlib.axis_1">
    <g id="xtick_1">
     <g id="line2d_1">
      <path clip-path="url(#p8ac13d3862)" d="M 92.290909 384.48 
L 92.290909 51.84 
" style="fill:none;stroke:#b0b0b0;stroke-dasharray:5.12,1.28,0.8,1.28;stroke-dashoffset:0;stroke-width:0.8;"/>
     </g>
     <g id="line2d_2">
      <defs>
       <path d="M 0 0 
L 0 3.5 
" id="mce3dcce4dd" style="stroke:#000000;stroke-width:0.8;"/>
      </defs>
      <g>
       <use style="stroke:#000000;stroke-width:0.8;" x="92.290909" xlink:href="#mce3dcce4dd" y="384.48"/>
      </g>
     </g>
     <g id="text_1">
      <!-- 0 -->
      <defs>
       <path d="M 31.78125 66.40625 
Q 24.171875 66.40625 20.328125 58.90625 
Q 16.5 51.421875 16.5 36.375 
Q 16.5 21.390625 20.328125 13.890625 
Q 24.171875 6.390625 31.78125 6.390625 
Q 39.453125 6.390625 43.28125 13.890625 
Q 47.125 21.390625 47.125 36.375 
Q 47.125 51.421875 43.28125 58.90625 
Q 39.453125 66.40625 31.78125 66.40625 
z
M 31.78125 74.21875 
Q 44.046875 74.21875 50.515625 64.515625 
Q 56.984375 54.828125 56.984375 36.375 
Q 56.984375 17.96875 50.515625 8.265625 
Q 44.046875 -1.421875 31.78125 -1.421875 
Q 19.53125 -1.421875 13.0625 8.265625 
Q 6.59375 17.96875 6.59375 36.375 
Q 6.59375 54.828125 13.0625 64.515625 
Q 19.53125 74.21875 31.78125 74.21875 
z
" id="DejaVuSans-30"/>
      </defs>
      <g transform="translate(89.109659 399.078438)scale(0.1 -0.1)">
       <use xlink:href="#DejaVuSans-30"/>
      </g>
     </g>
    </g>
    <g id="xtick_2">
     <g id="line2d_3">
      <path clip-path="url(#p8ac13d3862)" d="M 173.495148 384.48 
L 173.495148 51.84 
" style="fill:none;stroke:#b0b0b0;stroke-dasharray:5.12,1.28,0.8,1.28;stroke-dashoffset:0;stroke-width:0.8;"/>
     </g>
     <g id="line2d_4">
      <g>
       <use style="stroke:#000000;stroke-width:0.8;" x="173.495148" xlink:href="#mce3dcce4dd" y="384.48"/>
      </g>
     </g>
     <g id="text_2">
      <!-- 2000 -->
      <defs>
       <path d="M 19.1875 8.296875 
L 53.609375 8.296875 
L 53.609375 0 
L 7.328125 0 
L 7.328125 8.296875 
Q 12.9375 14.109375 22.625 23.890625 
Q 32.328125 33.6875 34.8125 36.53125 
Q 39.546875 41.84375 41.421875 45.53125 
Q 43.3125 49.21875 43.3125 52.78125 
Q 43.3125 58.59375 39.234375 62.25 
Q 35.15625 65.921875 28.609375 65.921875 
Q 23.96875 65.921875 18.8125 64.3125 
Q 13.671875 62.703125 7.8125 59.421875 
L 7.8125 69.390625 
Q 13.765625 71.78125 18.9375 73 
Q 24.125 74.21875 28.421875 74.21875 
Q 39.75 74.21875 46.484375 68.546875 
Q 53.21875 62.890625 53.21875 53.421875 
Q 53.21875 48.921875 51.53125 44.890625 
Q 49.859375 40.875 45.40625 35.40625 
Q 44.1875 33.984375 37.640625 27.21875 
Q 31.109375 20.453125 19.1875 8.296875 
z
" id="DejaVuSans-32"/>
      </defs>
      <g transform="translate(160.770148 399.078438)scale(0.1 -0.1)">
       <use xlink:href="#DejaVuSans-32"/>
       <use x="63.623047" xlink:href="#DejaVuSans-30"/>
       <use x="127.246094" xlink:href="#DejaVuSans-30"/>
       <use x="190.869141" xlink:href="#DejaVuSans-30"/>
      </g>
     </g>
    </g>
    <g id="xtick_3">
     <g id="line2d_5">
      <path clip-path="url(#p8ac13d3862)" d="M 254.699386 384.48 
L 254.699386 51.84 
" style="fill:none;stroke:#b0b0b0;stroke-dasharray:5.12,1.28,0.8,1.28;stroke-dashoffset:0;stroke-width:0.8;"/>
     </g>
     <g id="line2d_6">
      <g>
       <use style="stroke:#000000;stroke-width:0.8;" x="254.699386" xlink:href="#mce3dcce4dd" y="384.48"/>
      </g>
     </g>
     <g id="text_3">
      <!-- 4000 -->
      <defs>
       <path d="M 37.796875 64.3125 
L 12.890625 25.390625 
L 37.796875 25.390625 
z
M 35.203125 72.90625 
L 47.609375 72.90625 
L 47.609375 25.390625 
L 58.015625 25.390625 
L 58.015625 17.1875 
L 47.609375 17.1875 
L 47.609375 0 
L 37.796875 0 
L 37.796875 17.1875 
L 4.890625 17.1875 
L 4.890625 26.703125 
z
" id="DejaVuSans-34"/>
      </defs>
      <g transform="translate(241.974386 399.078438)scale(0.1 -0.1)">
       <use xlink:href="#DejaVuSans-34"/>
       <use x="63.623047" xlink:href="#DejaVuSans-30"/>
       <use x="127.246094" xlink:href="#DejaVuSans-30"/>
       <use x="190.869141" xlink:href="#DejaVuSans-30"/>
      </g>
     </g>
    </g>
    <g id="xtick_4">
     <g id="line2d_7">
      <path clip-path="url(#p8ac13d3862)" d="M 335.903625 384.48 
L 335.903625 51.84 
" style="fill:none;stroke:#b0b0b0;stroke-dasharray:5.12,1.28,0.8,1.28;stroke-dashoffset:0;stroke-width:0.8;"/>
     </g>
     <g id="line2d_8">
      <g>
       <use style="stroke:#000000;stroke-width:0.8;" x="335.903625" xlink:href="#mce3dcce4dd" y="384.48"/>
      </g>
     </g>
     <g id="text_4">
      <!-- 6000 -->
      <defs>
       <path d="M 33.015625 40.375 
Q 26.375 40.375 22.484375 35.828125 
Q 18.609375 31.296875 18.609375 23.390625 
Q 18.609375 15.53125 22.484375 10.953125 
Q 26.375 6.390625 33.015625 6.390625 
Q 39.65625 6.390625 43.53125 10.953125 
Q 47.40625 15.53125 47.40625 23.390625 
Q 47.40625 31.296875 43.53125 35.828125 
Q 39.65625 40.375 33.015625 40.375 
z
M 52.59375 71.296875 
L 52.59375 62.3125 
Q 48.875 64.0625 45.09375 64.984375 
Q 41.3125 65.921875 37.59375 65.921875 
Q 27.828125 65.921875 22.671875 59.328125 
Q 17.53125 52.734375 16.796875 39.40625 
Q 19.671875 43.65625 24.015625 45.921875 
Q 28.375 48.1875 33.59375 48.1875 
Q 44.578125 48.1875 50.953125 41.515625 
Q 57.328125 34.859375 57.328125 23.390625 
Q 57.328125 12.15625 50.6875 5.359375 
Q 44.046875 -1.421875 33.015625 -1.421875 
Q 20.359375 -1.421875 13.671875 8.265625 
Q 6.984375 17.96875 6.984375 36.375 
Q 6.984375 53.65625 15.1875 63.9375 
Q 23.390625 74.21875 37.203125 74.21875 
Q 40.921875 74.21875 44.703125 73.484375 
Q 48.484375 72.75 52.59375 71.296875 
z
" id="DejaVuSans-36"/>
      </defs>
      <g transform="translate(323.178625 399.078438)scale(0.1 -0.1)">
       <use xlink:href="#DejaVuSans-36"/>
       <use x="63.623047" xlink:href="#DejaVuSans-30"/>
       <use x="127.246094" xlink:href="#DejaVuSans-30"/>
       <use x="190.869141" xlink:href="#DejaVuSans-30"/>
      </g>
     </g>
    </g>
    <g id="xtick_5">
     <g id="line2d_9">
      <path clip-path="url(#p8ac13d3862)" d="M 417.107863 384.48 
L 417.107863 51.84 
" style="fill:none;stroke:#b0b0b0;stroke-dasharray:5.12,1.28,0.8,1.28;stroke-dashoffset:0;stroke-width:0.8;"/>
     </g>
     <g id="line2d_10">
      <g>
       <use style="stroke:#000000;stroke-width:0.8;" x="417.107863" xlink:href="#mce3dcce4dd" y="384.48"/>
      </g>
     </g>
     <g id="text_5">
      <!-- 8000 -->
      <defs>
       <path d="M 31.78125 34.625 
Q 24.75 34.625 20.71875 30.859375 
Q 16.703125 27.09375 16.703125 20.515625 
Q 16.703125 13.921875 20.71875 10.15625 
Q 24.75 6.390625 31.78125 6.390625 
Q 38.8125 6.390625 42.859375 10.171875 
Q 46.921875 13.96875 46.921875 20.515625 
Q 46.921875 27.09375 42.890625 30.859375 
Q 38.875 34.625 31.78125 34.625 
z
M 21.921875 38.8125 
Q 15.578125 40.375 12.03125 44.71875 
Q 8.5 49.078125 8.5 55.328125 
Q 8.5 64.0625 14.71875 69.140625 
Q 20.953125 74.21875 31.78125 74.21875 
Q 42.671875 74.21875 48.875 69.140625 
Q 55.078125 64.0625 55.078125 55.328125 
Q 55.078125 49.078125 51.53125 44.71875 
Q 48 40.375 41.703125 38.8125 
Q 48.828125 37.15625 52.796875 32.3125 
Q 56.78125 27.484375 56.78125 20.515625 
Q 56.78125 9.90625 50.3125 4.234375 
Q 43.84375 -1.421875 31.78125 -1.421875 
Q 19.734375 -1.421875 13.25 4.234375 
Q 6.78125 9.90625 6.78125 20.515625 
Q 6.78125 27.484375 10.78125 32.3125 
Q 14.796875 37.15625 21.921875 38.8125 
z
M 18.3125 54.390625 
Q 18.3125 48.734375 21.84375 45.5625 
Q 25.390625 42.390625 31.78125 42.390625 
Q 38.140625 42.390625 41.71875 45.5625 
Q 45.3125 48.734375 45.3125 54.390625 
Q 45.3125 60.0625 41.71875 63.234375 
Q 38.140625 66.40625 31.78125 66.40625 
Q 25.390625 66.40625 21.84375 63.234375 
Q 18.3125 60.0625 18.3125 54.390625 
z
" id="DejaVuSans-38"/>
      </defs>
      <g transform="translate(404.382863 399.078438)scale(0.1 -0.1)">
       <use xlink:href="#DejaVuSans-38"/>
       <use x="63.623047" xlink:href="#DejaVuSans-30"/>
       <use x="127.246094" xlink:href="#DejaVuSans-30"/>
       <use x="190.869141" xlink:href="#DejaVuSans-30"/>
      </g>
     </g>
    </g>
    <g id="xtick_6">
     <g id="line2d_11">
      <path clip-path="url(#p8ac13d3862)" d="M 498.312102 384.48 
L 498.312102 51.84 
" style="fill:none;stroke:#b0b0b0;stroke-dasharray:5.12,1.28,0.8,1.28;stroke-dashoffset:0;stroke-width:0.8;"/>
     </g>
     <g id="line2d_12">
      <g>
       <use style="stroke:#000000;stroke-width:0.8;" x="498.312102" xlink:href="#mce3dcce4dd" y="384.48"/>
      </g>
     </g>
     <g id="text_6">
      <!-- 10000 -->
      <defs>
       <path d="M 12.40625 8.296875 
L 28.515625 8.296875 
L 28.515625 63.921875 
L 10.984375 60.40625 
L 10.984375 69.390625 
L 28.421875 72.90625 
L 38.28125 72.90625 
L 38.28125 8.296875 
L 54.390625 8.296875 
L 54.390625 0 
L 12.40625 0 
z
" id="DejaVuSans-31"/>
      </defs>
      <g transform="translate(482.405852 399.078438)scale(0.1 -0.1)">
       <use xlink:href="#DejaVuSans-31"/>
       <use x="63.623047" xlink:href="#DejaVuSans-30"/>
       <use x="127.246094" xlink:href="#DejaVuSans-30"/>
       <use x="190.869141" xlink:href="#DejaVuSans-30"/>
       <use x="254.492188" xlink:href="#DejaVuSans-30"/>
      </g>
     </g>
    </g>
    <g id="text_7">
     <!-- Iteration -->
     <defs>
      <path d="M 9.8125 72.90625 
L 19.671875 72.90625 
L 19.671875 0 
L 9.8125 0 
z
" id="DejaVuSans-49"/>
      <path d="M 18.3125 70.21875 
L 18.3125 54.6875 
L 36.8125 54.6875 
L 36.8125 47.703125 
L 18.3125 47.703125 
L 18.3125 18.015625 
Q 18.3125 11.328125 20.140625 9.421875 
Q 21.96875 7.515625 27.59375 7.515625 
L 36.8125 7.515625 
L 36.8125 0 
L 27.59375 0 
Q 17.1875 0 13.234375 3.875 
Q 9.28125 7.765625 9.28125 18.015625 
L 9.28125 47.703125 
L 2.6875 47.703125 
L 2.6875 54.6875 
L 9.28125 54.6875 
L 9.28125 70.21875 
z
" id="DejaVuSans-74"/>
      <path d="M 56.203125 29.59375 
L 56.203125 25.203125 
L 14.890625 25.203125 
Q 15.484375 15.921875 20.484375 11.0625 
Q 25.484375 6.203125 34.421875 6.203125 
Q 39.59375 6.203125 44.453125 7.46875 
Q 49.3125 8.734375 54.109375 11.28125 
L 54.109375 2.78125 
Q 49.265625 0.734375 44.1875 -0.34375 
Q 39.109375 -1.421875 33.890625 -1.421875 
Q 20.796875 -1.421875 13.15625 6.1875 
Q 5.515625 13.8125 5.515625 26.8125 
Q 5.515625 40.234375 12.765625 48.109375 
Q 20.015625 56 32.328125 56 
Q 43.359375 56 49.78125 48.890625 
Q 56.203125 41.796875 56.203125 29.59375 
z
M 47.21875 32.234375 
Q 47.125 39.59375 43.09375 43.984375 
Q 39.0625 48.390625 32.421875 48.390625 
Q 24.90625 48.390625 20.390625 44.140625 
Q 15.875 39.890625 15.1875 32.171875 
z
" id="DejaVuSans-65"/>
      <path d="M 41.109375 46.296875 
Q 39.59375 47.171875 37.8125 47.578125 
Q 36.03125 48 33.890625 48 
Q 26.265625 48 22.1875 43.046875 
Q 18.109375 38.09375 18.109375 28.8125 
L 18.109375 0 
L 9.078125 0 
L 9.078125 54.6875 
L 18.109375 54.6875 
L 18.109375 46.1875 
Q 20.953125 51.171875 25.484375 53.578125 
Q 30.03125 56 36.53125 56 
Q 37.453125 56 38.578125 55.875 
Q 39.703125 55.765625 41.0625 55.515625 
z
" id="DejaVuSans-72"/>
      <path d="M 34.28125 27.484375 
Q 23.390625 27.484375 19.1875 25 
Q 14.984375 22.515625 14.984375 16.5 
Q 14.984375 11.71875 18.140625 8.90625 
Q 21.296875 6.109375 26.703125 6.109375 
Q 34.1875 6.109375 38.703125 11.40625 
Q 43.21875 16.703125 43.21875 25.484375 
L 43.21875 27.484375 
z
M 52.203125 31.203125 
L 52.203125 0 
L 43.21875 0 
L 43.21875 8.296875 
Q 40.140625 3.328125 35.546875 0.953125 
Q 30.953125 -1.421875 24.3125 -1.421875 
Q 15.921875 -1.421875 10.953125 3.296875 
Q 6 8.015625 6 15.921875 
Q 6 25.140625 12.171875 29.828125 
Q 18.359375 34.515625 30.609375 34.515625 
L 43.21875 34.515625 
L 43.21875 35.40625 
Q 43.21875 41.609375 39.140625 45 
Q 35.0625 48.390625 27.6875 48.390625 
Q 23 48.390625 18.546875 47.265625 
Q 14.109375 46.140625 10.015625 43.890625 
L 10.015625 52.203125 
Q 14.9375 54.109375 19.578125 55.046875 
Q 24.21875 56 28.609375 56 
Q 40.484375 56 46.34375 49.84375 
Q 52.203125 43.703125 52.203125 31.203125 
z
" id="DejaVuSans-61"/>
      <path d="M 9.421875 54.6875 
L 18.40625 54.6875 
L 18.40625 0 
L 9.421875 0 
z
M 9.421875 75.984375 
L 18.40625 75.984375 
L 18.40625 64.59375 
L 9.421875 64.59375 
z
" id="DejaVuSans-69"/>
      <path d="M 30.609375 48.390625 
Q 23.390625 48.390625 19.1875 42.75 
Q 14.984375 37.109375 14.984375 27.296875 
Q 14.984375 17.484375 19.15625 11.84375 
Q 23.34375 6.203125 30.609375 6.203125 
Q 37.796875 6.203125 41.984375 11.859375 
Q 46.1875 17.53125 46.1875 27.296875 
Q 46.1875 37.015625 41.984375 42.703125 
Q 37.796875 48.390625 30.609375 48.390625 
z
M 30.609375 56 
Q 42.328125 56 49.015625 48.375 
Q 55.71875 40.765625 55.71875 27.296875 
Q 55.71875 13.875 49.015625 6.21875 
Q 42.328125 -1.421875 30.609375 -1.421875 
Q 18.84375 -1.421875 12.171875 6.21875 
Q 5.515625 13.875 5.515625 27.296875 
Q 5.515625 40.765625 12.171875 48.375 
Q 18.84375 56 30.609375 56 
z
" id="DejaVuSans-6f"/>
      <path d="M 54.890625 33.015625 
L 54.890625 0 
L 45.90625 0 
L 45.90625 32.71875 
Q 45.90625 40.484375 42.875 44.328125 
Q 39.84375 48.1875 33.796875 48.1875 
Q 26.515625 48.1875 22.3125 43.546875 
Q 18.109375 38.921875 18.109375 30.90625 
L 18.109375 0 
L 9.078125 0 
L 9.078125 54.6875 
L 18.109375 54.6875 
L 18.109375 46.1875 
Q 21.34375 51.125 25.703125 53.5625 
Q 30.078125 56 35.796875 56 
Q 45.21875 56 50.046875 50.171875 
Q 54.890625 44.34375 54.890625 33.015625 
z
" id="DejaVuSans-6e"/>
     </defs>
     <g transform="translate(265.507969 415.795938)scale(0.14 -0.14)">
      <use xlink:href="#DejaVuSans-49"/>
      <use x="29.492188" xlink:href="#DejaVuSans-74"/>
      <use x="68.701172" xlink:href="#DejaVuSans-65"/>
      <use x="130.224609" xlink:href="#DejaVuSans-72"/>
      <use x="171.337891" xlink:href="#DejaVuSans-61"/>
      <use x="232.617188" xlink:href="#DejaVuSans-74"/>
      <use x="271.826172" xlink:href="#DejaVuSans-69"/>
      <use x="299.609375" xlink:href="#DejaVuSans-6f"/>
      <use x="360.791016" xlink:href="#DejaVuSans-6e"/>
     </g>
    </g>
   </g>
   <g id="matplotlib.axis_2">
    <g id="ytick_1">
     <g id="line2d_13">
      <path clip-path="url(#p8ac13d3862)" d="M 72 354.512892 
L 518.4 354.512892 
" style="fill:none;stroke:#b0b0b0;stroke-dasharray:5.12,1.28,0.8,1.28;stroke-dashoffset:0;stroke-width:0.8;"/>
     </g>
     <g id="line2d_14">
      <defs>
       <path d="M 0 0 
L -3.5 0 
" id="m54f2f08e6c" style="stroke:#000000;stroke-width:0.8;"/>
      </defs>
      <g>
       <use style="stroke:#000000;stroke-width:0.8;" x="72" xlink:href="#m54f2f08e6c" y="354.512892"/>
      </g>
     </g>
     <g id="text_8">
      <!-- −30 -->
      <defs>
       <path d="M 10.59375 35.5 
L 73.1875 35.5 
L 73.1875 27.203125 
L 10.59375 27.203125 
z
" id="DejaVuSans-2212"/>
       <path d="M 40.578125 39.3125 
Q 47.65625 37.796875 51.625 33 
Q 55.609375 28.21875 55.609375 21.1875 
Q 55.609375 10.40625 48.1875 4.484375 
Q 40.765625 -1.421875 27.09375 -1.421875 
Q 22.515625 -1.421875 17.65625 -0.515625 
Q 12.796875 0.390625 7.625 2.203125 
L 7.625 11.71875 
Q 11.71875 9.328125 16.59375 8.109375 
Q 21.484375 6.890625 26.8125 6.890625 
Q 36.078125 6.890625 40.9375 10.546875 
Q 45.796875 14.203125 45.796875 21.1875 
Q 45.796875 27.640625 41.28125 31.265625 
Q 36.765625 34.90625 28.71875 34.90625 
L 20.21875 34.90625 
L 20.21875 43.015625 
L 29.109375 43.015625 
Q 36.375 43.015625 40.234375 45.921875 
Q 44.09375 48.828125 44.09375 54.296875 
Q 44.09375 59.90625 40.109375 62.90625 
Q 36.140625 65.921875 28.71875 65.921875 
Q 24.65625 65.921875 20.015625 65.03125 
Q 15.375 64.15625 9.8125 62.3125 
L 9.8125 71.09375 
Q 15.4375 72.65625 20.34375 73.4375 
Q 25.25 74.21875 29.59375 74.21875 
Q 40.828125 74.21875 47.359375 69.109375 
Q 53.90625 64.015625 53.90625 55.328125 
Q 53.90625 49.265625 50.4375 45.09375 
Q 46.96875 40.921875 40.578125 39.3125 
z
" id="DejaVuSans-33"/>
      </defs>
      <g transform="translate(43.895313 358.312111)scale(0.1 -0.1)">
       <use xlink:href="#DejaVuSans-2212"/>
       <use x="83.789062" xlink:href="#DejaVuSans-33"/>
       <use x="147.412109" xlink:href="#DejaVuSans-30"/>
      </g>
     </g>
    </g>
    <g id="ytick_2">
     <g id="line2d_15">
      <path clip-path="url(#p8ac13d3862)" d="M 72 310.049823 
L 518.4 310.049823 
" style="fill:none;stroke:#b0b0b0;stroke-dasharray:5.12,1.28,0.8,1.28;stroke-dashoffset:0;stroke-width:0.8;"/>
     </g>
     <g id="line2d_16">
      <g>
       <use style="stroke:#000000;stroke-width:0.8;" x="72" xlink:href="#m54f2f08e6c" y="310.049823"/>
      </g>
     </g>
     <g id="text_9">
      <!-- −20 -->
      <g transform="translate(43.895313 313.849042)scale(0.1 -0.1)">
       <use xlink:href="#DejaVuSans-2212"/>
       <use x="83.789062" xlink:href="#DejaVuSans-32"/>
       <use x="147.412109" xlink:href="#DejaVuSans-30"/>
      </g>
     </g>
    </g>
    <g id="ytick_3">
     <g id="line2d_17">
      <path clip-path="url(#p8ac13d3862)" d="M 72 265.586755 
L 518.4 265.586755 
" style="fill:none;stroke:#b0b0b0;stroke-dasharray:5.12,1.28,0.8,1.28;stroke-dashoffset:0;stroke-width:0.8;"/>
     </g>
     <g id="line2d_18">
      <g>
       <use style="stroke:#000000;stroke-width:0.8;" x="72" xlink:href="#m54f2f08e6c" y="265.586755"/>
      </g>
     </g>
     <g id="text_10">
      <!-- −10 -->
      <g transform="translate(43.895313 269.385973)scale(0.1 -0.1)">
       <use xlink:href="#DejaVuSans-2212"/>
       <use x="83.789062" xlink:href="#DejaVuSans-31"/>
       <use x="147.412109" xlink:href="#DejaVuSans-30"/>
      </g>
     </g>
    </g>
    <g id="ytick_4">
     <g id="line2d_19">
      <path clip-path="url(#p8ac13d3862)" d="M 72 221.123686 
L 518.4 221.123686 
" style="fill:none;stroke:#b0b0b0;stroke-dasharray:5.12,1.28,0.8,1.28;stroke-dashoffset:0;stroke-width:0.8;"/>
     </g>
     <g id="line2d_20">
      <g>
       <use style="stroke:#000000;stroke-width:0.8;" x="72" xlink:href="#m54f2f08e6c" y="221.123686"/>
      </g>
     </g>
     <g id="text_11">
      <!-- 0 -->
      <g transform="translate(58.6375 224.922905)scale(0.1 -0.1)">
       <use xlink:href="#DejaVuSans-30"/>
      </g>
     </g>
    </g>
    <g id="ytick_5">
     <g id="line2d_21">
      <path clip-path="url(#p8ac13d3862)" d="M 72 176.660617 
L 518.4 176.660617 
" style="fill:none;stroke:#b0b0b0;stroke-dasharray:5.12,1.28,0.8,1.28;stroke-dashoffset:0;stroke-width:0.8;"/>
     </g>
     <g id="line2d_22">
      <g>
       <use style="stroke:#000000;stroke-width:0.8;" x="72" xlink:href="#m54f2f08e6c" y="176.660617"/>
      </g>
     </g>
     <g id="text_12">
      <!-- 10 -->
      <g transform="translate(52.275 180.459836)scale(0.1 -0.1)">
       <use xlink:href="#DejaVuSans-31"/>
       <use x="63.623047" xlink:href="#DejaVuSans-30"/>
      </g>
     </g>
    </g>
    <g id="ytick_6">
     <g id="line2d_23">
      <path clip-path="url(#p8ac13d3862)" d="M 72 132.197548 
L 518.4 132.197548 
" style="fill:none;stroke:#b0b0b0;stroke-dasharray:5.12,1.28,0.8,1.28;stroke-dashoffset:0;stroke-width:0.8;"/>
     </g>
     <g id="line2d_24">
      <g>
       <use style="stroke:#000000;stroke-width:0.8;" x="72" xlink:href="#m54f2f08e6c" y="132.197548"/>
      </g>
     </g>
     <g id="text_13">
      <!-- 20 -->
      <g transform="translate(52.275 135.996767)scale(0.1 -0.1)">
       <use xlink:href="#DejaVuSans-32"/>
       <use x="63.623047" xlink:href="#DejaVuSans-30"/>
      </g>
     </g>
    </g>
    <g id="ytick_7">
     <g id="line2d_25">
      <path clip-path="url(#p8ac13d3862)" d="M 72 87.73448 
L 518.4 87.73448 
" style="fill:none;stroke:#b0b0b0;stroke-dasharray:5.12,1.28,0.8,1.28;stroke-dashoffset:0;stroke-width:0.8;"/>
     </g>
     <g id="line2d_26">
      <g>
       <use style="stroke:#000000;stroke-width:0.8;" x="72" xlink:href="#m54f2f08e6c" y="87.73448"/>
      </g>
     </g>
     <g id="text_14">
      <!-- 30 -->
      <g transform="translate(52.275 91.533698)scale(0.1 -0.1)">
       <use xlink:href="#DejaVuSans-33"/>
       <use x="63.623047" xlink:href="#DejaVuSans-30"/>
      </g>
     </g>
    </g>
    <g id="text_15">
     <!-- $p_{mn}[W]$ -->
     <defs>
      <path d="M 49.609375 33.6875 
Q 49.609375 40.875 46.484375 44.671875 
Q 43.359375 48.484375 37.5 48.484375 
Q 33.5 48.484375 29.859375 46.4375 
Q 26.21875 44.390625 23.390625 40.484375 
Q 20.609375 36.625 18.9375 31.15625 
Q 17.28125 25.6875 17.28125 20.3125 
Q 17.28125 13.484375 20.40625 9.796875 
Q 23.53125 6.109375 29.296875 6.109375 
Q 33.546875 6.109375 37.1875 8.109375 
Q 40.828125 10.109375 43.40625 13.921875 
Q 46.1875 17.921875 47.890625 23.34375 
Q 49.609375 28.765625 49.609375 33.6875 
z
M 21.78125 46.390625 
Q 25.390625 51.125 30.296875 53.5625 
Q 35.203125 56 41.21875 56 
Q 49.609375 56 54.25 50.5 
Q 58.890625 45.015625 58.890625 35.109375 
Q 58.890625 27 56 19.65625 
Q 53.125 12.3125 47.703125 6.5 
Q 44.09375 2.640625 39.546875 0.609375 
Q 35.015625 -1.421875 29.984375 -1.421875 
Q 24.171875 -1.421875 20.21875 1 
Q 16.265625 3.421875 14.3125 8.203125 
L 8.6875 -20.796875 
L -0.296875 -20.796875 
L 14.40625 54.6875 
L 23.390625 54.6875 
z
" id="DejaVuSans-Oblique-70"/>
      <path d="M 89.796875 33.015625 
L 83.40625 0 
L 74.421875 0 
L 80.71875 32.71875 
Q 81.109375 34.8125 81.296875 36.328125 
Q 81.5 37.84375 81.5 38.921875 
Q 81.5 43.3125 79.046875 45.75 
Q 76.609375 48.1875 72.21875 48.1875 
Q 65.671875 48.1875 60.546875 43.28125 
Q 55.421875 38.375 53.90625 30.515625 
L 47.90625 0 
L 38.921875 0 
L 45.3125 32.71875 
Q 45.703125 34.515625 45.890625 36.046875 
Q 46.09375 37.59375 46.09375 38.8125 
Q 46.09375 43.265625 43.65625 45.71875 
Q 41.21875 48.1875 36.921875 48.1875 
Q 30.28125 48.1875 25.140625 43.28125 
Q 20.015625 38.375 18.5 30.515625 
L 12.5 0 
L 3.515625 0 
L 14.203125 54.6875 
L 23.1875 54.6875 
L 21.484375 46.1875 
Q 25.140625 50.984375 30.046875 53.484375 
Q 34.96875 56 40.578125 56 
Q 46.53125 56 50.359375 52.875 
Q 54.203125 49.75 54.984375 44.1875 
Q 59.078125 49.953125 64.46875 52.96875 
Q 69.875 56 75.875 56 
Q 82.90625 56 86.734375 51.953125 
Q 90.578125 47.90625 90.578125 40.484375 
Q 90.578125 38.875 90.375 36.9375 
Q 90.1875 35.015625 89.796875 33.015625 
z
" id="DejaVuSans-Oblique-6d"/>
      <path d="M 55.71875 33.015625 
L 49.3125 0 
L 40.28125 0 
L 46.6875 32.671875 
Q 47.125 34.96875 47.359375 36.71875 
Q 47.609375 38.484375 47.609375 39.5 
Q 47.609375 43.609375 45.015625 45.890625 
Q 42.4375 48.1875 37.796875 48.1875 
Q 30.5625 48.1875 25.34375 43.375 
Q 20.125 38.578125 18.5 30.328125 
L 12.5 0 
L 3.515625 0 
L 14.109375 54.6875 
L 23.09375 54.6875 
L 21.296875 46.09375 
Q 25.046875 50.828125 30.3125 53.40625 
Q 35.59375 56 41.40625 56 
Q 48.640625 56 52.609375 52.09375 
Q 56.59375 48.1875 56.59375 41.109375 
Q 56.59375 39.359375 56.375 37.359375 
Q 56.15625 35.359375 55.71875 33.015625 
z
" id="DejaVuSans-Oblique-6e"/>
      <path d="M 8.59375 75.984375 
L 29.296875 75.984375 
L 29.296875 69 
L 17.578125 69 
L 17.578125 -6.203125 
L 29.296875 -6.203125 
L 29.296875 -13.1875 
L 8.59375 -13.1875 
z
" id="DejaVuSans-5b"/>
      <path d="M 9.625 72.90625 
L 19.1875 72.90625 
L 22.703125 10.890625 
L 50.203125 72.90625 
L 61.1875 72.90625 
L 64.796875 10.890625 
L 92 72.90625 
L 102 72.90625 
L 69.578125 0 
L 57.171875 0 
L 53.8125 60.796875 
L 26.515625 0 
L 14.109375 0 
z
" id="DejaVuSans-Oblique-57"/>
      <path d="M 30.421875 75.984375 
L 30.421875 -13.1875 
L 9.71875 -13.1875 
L 9.71875 -6.203125 
L 21.390625 -6.203125 
L 21.390625 69 
L 9.71875 69 
L 9.71875 75.984375 
z
" id="DejaVuSans-5d"/>
     </defs>
     <g transform="translate(36.955312 243.08)rotate(-90)scale(0.14 -0.14)">
      <use transform="translate(0 0.015625)" xlink:href="#DejaVuSans-Oblique-70"/>
      <use transform="translate(63.476562 -16.390625)scale(0.7)" xlink:href="#DejaVuSans-Oblique-6d"/>
      <use transform="translate(131.665039 -16.390625)scale(0.7)" xlink:href="#DejaVuSans-Oblique-6e"/>
      <use transform="translate(178.764648 0.015625)" xlink:href="#DejaVuSans-5b"/>
      <use transform="translate(217.77832 0.015625)" xlink:href="#DejaVuSans-Oblique-57"/>
      <use transform="translate(316.655273 0.015625)" xlink:href="#DejaVuSans-5d"/>
     </g>
    </g>
   </g>
   <g id="line2d_27">
    <path clip-path="url(#p8ac13d3862)" d="M 92.290909 221.123686 
L 92.331511 221.123686 
L 92.372113 221.123686 
L 92.615726 185.4523 
L 92.899941 174.096432 
L 93.224758 169.399798 
L 93.549575 167.457651 
L 93.914994 166.509699 
L 94.321015 166.044615 
L 94.889445 165.764497 
L 95.823293 165.599539 
L 97.894002 165.527065 
L 108.734767 165.519061 
L 116.083751 165.519061 
L 116.286762 164.696939 
L 116.530374 164.524422 
L 117.261212 164.447057 
L 120.346973 164.388365 
L 498.027887 164.386142 
L 498.027887 164.386142 
" style="fill:none;stroke:#bf00bf;stroke-linecap:square;stroke-width:1.5;"/>
   </g>
   <g id="line2d_28">
    <path clip-path="url(#p8ac13d3862)" d="M 92.290909 221.123686 
L 92.331511 221.123686 
L 92.412715 211.241769 
L 92.656328 190.449504 
L 92.899941 184.920077 
L 93.143554 183.3572 
L 93.346564 183.06152 
L 93.549575 183.109096 
L 94.0368 183.592854 
L 94.80824 184.245572 
L 95.539079 184.565261 
L 96.554132 184.751117 
L 98.503033 184.834263 
L 109.628014 184.845379 
L 116.611579 184.94053 
L 117.504825 185.210865 
L 118.925899 185.334473 
L 123.270326 185.366041 
L 498.027887 185.366486 
L 498.027887 185.366486 
" style="fill:none;stroke:#00bfbf;stroke-linecap:square;stroke-width:1.5;"/>
   </g>
   <g id="line2d_29">
    <path clip-path="url(#p8ac13d3862)" d="M 92.290909 221.123686 
L 92.331511 221.123686 
L 92.372113 221.123686 
L 92.615726 256.795072 
L 92.899941 268.15094 
L 93.224758 272.847574 
L 93.549575 274.789721 
L 93.914994 275.737673 
L 94.321015 276.202757 
L 94.889445 276.482874 
L 95.823293 276.647832 
L 97.894002 276.720307 
L 108.734767 276.72831 
L 116.083751 276.72831 
L 116.286762 277.550433 
L 116.530374 277.722949 
L 117.261212 277.800315 
L 120.346973 277.859006 
L 498.027887 277.861229 
L 498.027887 277.861229 
" style="fill:none;stroke:#ff0000;stroke-linecap:square;stroke-width:1.5;"/>
   </g>
   <g id="line2d_30">
    <path clip-path="url(#p8ac13d3862)" d="M 92.290909 221.123686 
L 92.331511 221.123686 
L 92.372113 221.123686 
L 92.575124 131.34119 
L 92.859339 95.71071 
L 93.184156 81.716848 
L 93.508973 76.638721 
L 93.83379 74.659225 
L 94.199209 73.754846 
L 94.60523 73.335559 
L 95.17366 73.09368 
L 96.14811 72.951843 
L 98.746646 72.891373 
L 109.221993 72.887372 
L 115.88074 72.887372 
L 116.083751 66.96 
L 116.164955 67.370394 
L 116.408568 67.71854 
L 116.814589 67.803909 
L 118.519878 67.767894 
L 124.285379 67.752332 
L 498.027887 67.752332 
L 498.027887 67.752332 
" style="fill:none;stroke:#008000;stroke-linecap:square;stroke-width:1.5;"/>
   </g>
   <g id="line2d_31">
    <path clip-path="url(#p8ac13d3862)" d="M 92.290909 221.123686 
L 92.331511 221.123686 
L 92.534522 189.926174 
L 92.818737 172.783882 
L 93.102951 167.318037 
L 93.387166 165.531956 
L 93.671381 164.982392 
L 93.955596 164.884129 
L 94.442821 165.027744 
L 95.701487 165.446587 
L 96.960153 165.598206 
L 99.96471 165.65334 
L 116.530374 165.758717 
L 117.301815 166.04995 
L 118.479276 166.194455 
L 121.402629 166.243365 
L 498.027887 166.245143 
L 498.027887 166.245143 
" style="fill:none;stroke:#0000ff;stroke-linecap:square;stroke-width:1.5;"/>
   </g>
   <g id="line2d_32">
    <path clip-path="url(#p8ac13d3862)" d="M 92.290909 221.123686 
L 92.331511 221.123686 
L 92.372113 219.01169 
L 92.372113 219.01169 
L 92.372113 219.01169 
L 92.575124 227.084405 
L 92.940543 232.38796 
L 93.387166 235.946784 
L 93.83379 237.839132 
L 94.321015 238.95471 
L 94.848843 239.616321 
L 95.457874 240.021824 
L 96.269917 240.273485 
L 97.569185 240.407319 
L 101.060967 240.449559 
L 116.083751 240.450448 
L 116.286762 241.24278 
L 116.611579 241.558468 
L 117.261212 241.837696 
L 118.276265 242.016437 
L 120.184565 242.093358 
L 131.268944 242.104029 
L 498.027887 242.104029 
L 498.027887 242.104029 
" style="fill:none;stroke:#000000;stroke-linecap:square;stroke-width:1.5;"/>
   </g>
   <g id="line2d_33">
    <path clip-path="url(#p8ac13d3862)" d="M 92.290909 221.123686 
L 92.331511 221.123686 
L 92.372113 221.123686 
L 92.534522 298.635264 
L 92.778135 320.833451 
L 93.021747 326.060085 
L 93.26536 327.580722 
L 93.549575 328.090713 
L 93.874392 328.188088 
L 94.645832 328.055143 
L 96.066906 327.886628 
L 99.030861 327.834606 
L 109.343799 327.832383 
L 116.083751 327.832383 
L 116.246159 328.288574 
L 116.489772 328.269455 
L 117.383019 328.126729 
L 119.575533 328.067148 
L 498.027887 328.061812 
L 498.027887 328.061812 
" style="fill:none;stroke:#bfbf00;stroke-linecap:square;stroke-width:1.5;"/>
   </g>
   <g id="line2d_34">
    <path clip-path="url(#p8ac13d3862)" d="M 92.290909 221.123686 
L 92.331511 221.123686 
L 92.372113 221.123686 
L 92.575124 310.906182 
L 92.859339 346.536662 
L 93.184156 360.530524 
L 93.508973 365.608651 
L 93.83379 367.588147 
L 94.199209 368.492526 
L 94.60523 368.911812 
L 95.17366 369.153691 
L 96.14811 369.295529 
L 98.746646 369.355998 
L 109.221993 369.36 
L 116.083751 369.36 
L 116.286762 368.586343 
L 116.570976 368.427165 
L 117.261212 368.418717 
L 120.549984 368.488968 
L 498.027887 368.491192 
L 498.027887 368.491192 
" style="fill:none;stroke:#bf00bf;stroke-linecap:square;stroke-width:1.5;"/>
   </g>
   <g id="line2d_35">
    <path clip-path="url(#p8ac13d3862)" d="M 92.290909 221.123686 
L 92.331511 221.123686 
L 92.372113 210.391635 
L 92.575124 275.941759 
L 92.859339 296.990575 
L 93.184156 306.000127 
L 93.508973 309.694119 
L 93.874392 311.497985 
L 94.280413 312.446827 
L 94.767638 313.0453 
L 95.37667 313.445913 
L 96.229315 313.710468 
L 97.569185 313.848303 
L 100.330129 313.889209 
L 110.643067 313.891432 
L 116.083751 313.891432 
L 116.286762 313.107549 
L 116.489772 313.061307 
L 119.088308 313.575745 
L 123.595143 313.612649 
L 498.027887 313.613094 
L 498.027887 313.613094 
" style="fill:none;stroke:#00bfbf;stroke-linecap:square;stroke-width:1.5;"/>
   </g>
   <g id="line2d_36">
    <path clip-path="url(#p8ac13d3862)" d="M 92.290909 221.123686 
L 92.331511 221.123686 
L 92.372113 221.123686 
L 92.534522 335.466692 
L 92.656328 342.998736 
L 92.69693 342.827108 
L 92.940543 337.084258 
L 93.26536 331.815385 
L 93.590177 329.674933 
L 93.914994 328.79901 
L 94.321015 328.338373 
L 94.889445 328.077375 
L 95.863896 327.915084 
L 97.975206 327.840386 
L 116.205557 327.921309 
L 116.530374 328.157853 
L 117.098804 328.153406 
L 119.656737 328.067593 
L 498.027887 328.061812 
L 498.027887 328.061812 
" style="fill:none;stroke:#ff0000;stroke-linecap:square;stroke-width:1.5;"/>
   </g>
   <g id="line2d_37">
    <path clip-path="url(#p8ac13d3862)" d="M 92.290909 221.123686 
L 92.331511 221.123686 
L 92.372113 221.123686 
L 92.778135 260.98127 
L 93.062349 268.076242 
L 93.346564 270.370981 
L 93.630779 271.121517 
L 93.914994 271.315376 
L 94.321015 271.26869 
L 96.229315 270.779152 
L 97.934604 270.683556 
L 103.862513 270.664437 
L 116.002547 270.664437 
L 116.124353 270.367868 
L 116.164955 270.435008 
L 116.367966 270.51015 
L 118.56048 270.041509 
L 122.052262 269.998825 
L 498.109091 269.997936 
L 498.109091 269.997936 
" style="fill:none;stroke:#008000;stroke-linecap:square;stroke-width:1.5;"/>
   </g>
   <g id="line2d_38">
    <path clip-path="url(#p8ac13d3862)" d="M 92.290909 221.123686 
L 92.331511 221.123686 
L 92.372113 221.123686 
L 92.575124 157.720239 
L 92.859339 138.487294 
L 93.184156 129.961501 
L 93.508973 126.417349 
L 93.874392 124.695295 
L 94.280413 123.796696 
L 94.767638 123.232015 
L 95.417272 122.835405 
L 96.269917 122.594415 
L 97.609787 122.467695 
L 101.020365 122.429457 
L 116.124353 122.428123 
L 116.327364 123.098181 
L 116.530374 123.139977 
L 119.047706 122.667779 
L 123.554541 122.630874 
L 498.109091 122.63043 
L 498.109091 122.63043 
" style="fill:none;stroke:#0000ff;stroke-linecap:square;stroke-width:1.5;"/>
   </g>
   <g id="line2d_39">
    <path clip-path="url(#p8ac13d3862)" d="M 92.290909 221.123686 
L 92.331511 221.123686 
L 92.372113 219.01169 
L 92.69693 265.083433 
L 92.981145 278.481934 
L 93.305962 284.50579 
L 93.671381 287.330084 
L 94.0368 288.5875 
L 94.442821 289.25 
L 94.930047 289.6226 
L 95.620283 289.842248 
L 96.838346 289.956963 
L 101.223375 289.990755 
L 116.124353 289.972525 
L 116.327364 290.697273 
L 116.611579 290.85067 
L 117.910846 290.938707 
L 122.498886 290.978279 
L 498.109091 290.978279 
L 498.109091 290.978279 
" style="fill:none;stroke:#000000;stroke-linecap:square;stroke-width:1.5;"/>
   </g>
   <g id="line2d_40">
    <path clip-path="url(#p8ac13d3862)" d="M 92.290909 221.123686 
L 92.331511 221.123686 
L 92.372113 221.123686 
L 92.615726 262.196001 
L 92.859339 272.277113 
L 93.102951 274.528722 
L 93.346564 274.959125 
L 93.671381 274.991138 
L 94.402219 275.052497 
L 96.757142 275.456222 
L 99.842903 275.515802 
L 116.002547 275.518026 
L 116.124353 269.590654 
L 116.205557 270.083749 
L 116.44917 270.635536 
L 116.855191 270.896534 
L 117.667234 271.092616 
L 119.291318 271.194437 
L 125.219228 271.213556 
L 498.109091 271.213556 
L 498.109091 271.213556 
" style="fill:none;stroke:#bfbf00;stroke-linecap:square;stroke-width:1.5;"/>
   </g>
   <g id="line2d_41">
    <path clip-path="url(#p8ac13d3862)" d="M 92.290909 221.123686 
L 92.331511 221.123686 
L 92.372113 221.123686 
L 92.778135 233.108706 
L 93.062349 234.972598 
L 93.752585 237.573687 
L 94.361617 239.088544 
L 94.930047 239.927118 
L 95.539079 240.432218 
L 96.269917 240.739458 
L 97.325572 240.916866 
L 99.436882 240.992008 
L 110.31825 241.000456 
L 116.124353 241.000456 
L 116.367966 242.023107 
L 116.733385 242.493971 
L 117.342417 242.870573 
L 118.154459 243.097334 
L 119.453727 243.215606 
L 123.91996 243.252066 
L 498.109091 243.252066 
L 498.109091 243.252066 
" style="fill:none;stroke:#bf00bf;stroke-linecap:square;stroke-width:1.5;"/>
   </g>
   <g id="line2d_42">
    <path clip-path="url(#p8ac13d3862)" d="M 92.290909 221.123686 
L 92.331511 221.123686 
L 92.372113 221.123686 
L 92.615726 245.898508 
L 92.859339 251.736509 
L 93.102951 253.217129 
L 93.305962 253.42655 
L 93.508973 253.316726 
L 95.17366 251.872566 
L 96.066906 251.628019 
L 97.609787 251.503522 
L 101.873009 251.474621 
L 116.408568 251.367021 
L 117.504825 251.025989 
L 118.885297 250.909051 
L 123.229724 250.877038 
L 498.027887 250.877038 
L 498.027887 250.877038 
" style="fill:none;stroke:#00bfbf;stroke-linecap:square;stroke-width:1.5;"/>
   </g>
   <g id="line2d_43">
    <path clip-path="url(#p8ac13d3862)" d="M 92.290909 221.123686 
L 92.331511 221.123686 
L 92.372113 221.123686 
L 92.575124 211.328472 
L 92.899941 205.12454 
L 93.305962 201.055724 
L 93.711983 198.91216 
L 94.158607 197.649853 
L 94.645832 196.893981 
L 95.214262 196.416003 
L 95.904498 196.126104 
L 96.960153 195.950919 
L 99.030861 195.878 
L 109.912229 195.869552 
L 116.043149 195.869552 
L 116.44917 194.780652 
L 116.936395 194.505425 
L 117.78904 194.283999 
L 119.250716 194.168395 
L 123.513939 194.139494 
L 498.027887 194.139494 
L 498.027887 194.139494 
" style="fill:none;stroke:#ff0000;stroke-linecap:square;stroke-width:1.5;"/>
   </g>
   <g id="line2d_44">
    <path clip-path="url(#p8ac13d3862)" d="M 92.290909 221.123686 
L 92.331511 221.123686 
L 92.372113 221.123686 
L 92.69693 172.653161 
L 92.981145 158.419199 
L 93.305962 152.003622 
L 93.671381 149.023707 
L 94.0368 147.722273 
L 94.442821 147.050436 
L 94.930047 146.681838 
L 95.620283 146.46886 
L 96.878949 146.359036 
L 101.142171 146.329245 
L 116.124353 146.328801 
L 116.327364 145.525353 
L 116.570976 145.378625 
L 117.586029 145.313264 
L 121.199618 145.266134 
L 498.027887 145.265244 
L 498.027887 145.265244 
" style="fill:none;stroke:#008000;stroke-linecap:square;stroke-width:1.5;"/>
   </g>
   <g id="line2d_45">
    <path clip-path="url(#p8ac13d3862)" d="M 92.290909 221.123686 
L 92.331511 221.123686 
L 92.372113 221.123686 
L 92.615726 216.483075 
L 92.69693 216.296775 
L 92.737532 216.33279 
L 92.899941 216.983285 
L 93.346564 220.323351 
L 94.0368 224.919053 
L 94.564628 227.003037 
L 95.092455 228.21021 
L 95.620283 228.894052 
L 96.229315 229.321342 
L 97.000755 229.578783 
L 98.218819 229.722399 
L 101.142171 229.772197 
L 116.205557 229.838892 
L 117.22061 231.247482 
L 117.870244 231.603187 
L 118.763491 231.815275 
L 120.387576 231.920653 
L 126.396689 231.941995 
L 498.027887 231.941995 
L 498.027887 231.941995 
" style="fill:none;stroke:#0000ff;stroke-linecap:square;stroke-width:1.5;"/>
   </g>
   <g id="line2d_46">
    <path clip-path="url(#p8ac13d3862)" d="M 92.290909 221.123686 
L 92.331511 221.123686 
L 92.372113 219.01169 
L 92.412715 219.901841 
L 92.575124 221.658132 
L 92.656328 221.590993 
L 92.859339 220.409164 
L 94.199209 210.624177 
L 94.727036 208.853213 
L 95.254864 207.843901 
L 95.823293 207.24365 
L 96.472927 206.889279 
L 97.325572 206.681192 
L 98.868452 206.570923 
L 103.009869 206.545579 
L 116.164955 206.476662 
L 117.139406 205.050731 
L 117.78904 204.667015 
L 118.682287 204.438475 
L 120.225167 204.326428 
L 126.396689 204.301528 
L 498.109091 204.301528 
L 498.109091 204.301528 
" style="fill:none;stroke:#000000;stroke-linecap:square;stroke-width:1.5;"/>
   </g>
   <g id="line2d_47">
    <path clip-path="url(#p8ac13d3862)" d="M 92.290909 221.123686 
L 92.331511 221.123686 
L 92.372113 219.178427 
L 92.412715 220.039676 
L 92.534522 221.109458 
L 92.575124 221.0521 
L 92.778135 219.894727 
L 93.26536 217.340323 
L 93.630779 216.451507 
L 94.0368 216.009988 
L 94.564628 215.799678 
L 95.498477 215.727648 
L 100.127118 215.73654 
L 116.773987 215.842807 
L 118.235663 215.909946 
L 129.27944 215.920173 
L 498.109091 215.920173 
L 498.109091 215.920173 
" style="fill:none;stroke:#bfbf00;stroke-linecap:square;stroke-width:1.5;"/>
   </g>
   <g id="line2d_48">
    <path clip-path="url(#p8ac13d3862)" d="M 92.290909 221.123686 
L 92.331511 221.123686 
L 92.372113 221.123686 
L 92.534522 216.079795 
L 92.818737 213.624545 
L 93.021747 213.172355 
L 93.184156 213.195921 
L 93.508973 213.616541 
L 94.321015 214.696549 
L 94.930047 215.126063 
L 95.742089 215.394175 
L 97.000755 215.5329 
L 100.573741 215.578252 
L 116.570976 215.685408 
L 117.586029 215.902388 
L 119.250716 215.993537 
L 125.097421 216.011322 
L 498.109091 216.011322 
L 498.109091 216.011322 
" style="fill:none;stroke:#bf00bf;stroke-linecap:square;stroke-width:1.5;"/>
   </g>
   <g id="line2d_49">
    <path clip-path="url(#p8ac13d3862)" d="M 92.290909 221.123686 
L 92.331511 221.123686 
L 92.372113 221.123686 
L 92.737532 205.501142 
L 93.021747 201.754684 
L 93.26536 200.728032 
L 93.508973 200.483929 
L 93.793188 200.56085 
L 95.37667 201.357629 
L 96.513529 201.523031 
L 99.193269 201.588392 
L 109.668616 201.592394 
L 116.570976 201.695103 
L 117.586029 201.897855 
L 119.372523 201.983669 
L 130.741116 201.997452 
L 498.109091 201.997452 
L 498.109091 201.997452 
" style="fill:none;stroke:#00bfbf;stroke-linecap:square;stroke-width:1.5;"/>
   </g>
   <g id="line2d_50">
    <path clip-path="url(#p8ac13d3862)" d="M 92.290909 221.123686 
L 92.331511 221.123686 
L 92.372113 221.123686 
L 92.615726 180.051371 
L 92.859339 169.970259 
L 93.102951 167.718649 
L 93.346564 167.288247 
L 93.671381 167.256233 
L 94.402219 167.194874 
L 96.757142 166.79115 
L 99.842903 166.731569 
L 116.124353 166.729346 
L 116.327364 165.799623 
L 116.611579 165.468818 
L 117.139406 165.252283 
L 118.154459 165.097996 
L 120.387576 165.035303 
L 498.027887 165.029968 
L 498.027887 165.029968 
" style="fill:none;stroke:#ff0000;stroke-linecap:square;stroke-width:1.5;"/>
   </g>
   <g id="line2d_51">
    <path clip-path="url(#p8ac13d3862)" d="M 92.290909 221.123686 
L 92.412715 221.123686 
L 92.656328 231.993128 
L 92.940543 238.261531 
L 93.184156 239.49627 
L 93.387166 239.647445 
L 93.711983 239.49138 
L 94.483424 239.103662 
L 95.37667 238.956933 
L 97.447378 238.909358 
L 107.841521 238.906246 
L 116.327364 239.013402 
L 116.733385 239.130784 
L 118.519878 239.138787 
L 128.914021 239.135675 
L 498.027887 239.135675 
L 498.027887 239.135675 
" style="fill:none;stroke:#008000;stroke-linecap:square;stroke-width:1.5;"/>
   </g>
   <g id="line2d_52">
    <path clip-path="url(#p8ac13d3862)" d="M 92.290909 221.123686 
L 92.331511 221.123686 
L 92.372113 221.123686 
L 92.615726 189.266786 
L 92.859339 182.679138 
L 93.062349 181.744969 
L 93.184156 181.858794 
L 93.468371 182.736495 
L 94.158607 184.782686 
L 94.645832 185.576796 
L 95.214262 186.075227 
L 95.904498 186.364682 
L 96.919551 186.528751 
L 99.274474 186.600336 
L 109.912229 186.606116 
L 116.570976 186.70438 
L 117.545427 186.991611 
L 118.925899 187.120999 
L 123.432735 187.157903 
L 498.027887 187.158348 
L 498.027887 187.158348 
" style="fill:none;stroke:#0000ff;stroke-linecap:square;stroke-width:1.5;"/>
   </g>
   <g id="line2d_53">
    <path clip-path="url(#p8ac13d3862)" d="M 92.290909 221.123686 
L 92.412715 221.123686 
L 92.656328 206.631393 
L 92.940543 198.273226 
L 93.184156 196.626758 
L 93.387166 196.42534 
L 93.630779 196.563176 
L 94.483424 197.150088 
L 95.214262 197.327496 
L 96.757142 197.403973 
L 107.760317 197.413754 
L 116.286762 197.307932 
L 116.652181 197.124744 
L 117.586029 197.099845 
L 497.987285 197.107849 
L 497.987285 197.107849 
" style="fill:none;stroke:#000000;stroke-linecap:square;stroke-width:1.5;"/>
   </g>
   <g id="line2d_54">
    <path clip-path="url(#p8ac13d3862)" d="M 92.290909 221.123686 
L 92.331511 221.123686 
L 92.49392 206.464657 
L 92.737532 202.364273 
L 93.021747 201.019709 
L 94.077402 197.747672 
L 94.645832 196.706792 
L 95.214262 196.093201 
L 95.863896 195.70993 
L 96.71654 195.476499 
L 98.137614 195.353336 
L 101.426386 195.319989 
L 116.083751 195.319099 
L 116.327364 194.243093 
L 116.692783 193.763336 
L 117.261212 193.39785 
L 118.073255 193.155971 
L 119.331921 193.031919 
L 122.783101 192.991902 
L 498.068489 192.991013 
L 498.068489 192.991013 
" style="fill:none;stroke:#bfbf00;stroke-linecap:square;stroke-width:1.5;"/>
   </g>
   <g id="line2d_55">
    <path clip-path="url(#p8ac13d3862)" d="M 92.290909 221.123686 
L 92.331511 221.123686 
L 92.372113 221.123686 
L 92.615726 247.668138 
L 92.859339 253.445669 
L 93.062349 254.284243 
L 93.184156 254.177531 
L 93.468371 253.365191 
L 94.158607 251.454613 
L 94.686434 250.658724 
L 95.254864 250.204756 
L 95.985702 249.92864 
L 97.081959 249.777021 
L 99.680495 249.717441 
L 116.408568 249.608506 
L 117.464223 249.265251 
L 118.682287 249.133196 
L 121.524435 249.087399 
L 131.837373 249.085176 
L 498.068489 249.085176 
L 498.068489 249.085176 
" style="fill:none;stroke:#bf00bf;stroke-linecap:square;stroke-width:1.5;"/>
   </g>
   <g id="line2d_56">
    <path clip-path="url(#p8ac13d3862)" d="M 92.290909 221.123686 
L 92.331511 221.123686 
L 92.372113 216.121591 
L 92.412715 220.160616 
L 92.69693 234.587103 
L 93.021747 240.582503 
L 93.387166 243.607326 
L 93.83379 245.496562 
L 94.321015 246.59391 
L 94.848843 247.230621 
L 95.457874 247.608113 
L 96.269917 247.83443 
L 97.690991 247.956259 
L 102.035418 247.988272 
L 116.286762 248.096762 
L 116.895793 248.459581 
L 117.748438 248.666334 
L 119.291318 248.774824 
L 123.392132 248.799278 
L 498.068489 248.799723 
L 498.068489 248.799723 
" style="fill:none;stroke:#00bfbf;stroke-linecap:square;stroke-width:1.5;"/>
   </g>
   <g id="line2d_57">
    <path clip-path="url(#p8ac13d3862)" d="M 92.290909 221.123686 
L 92.331511 221.123686 
L 92.372113 221.123686 
L 92.412715 213.955795 
L 92.49392 215.65873 
L 92.859339 218.506145 
L 93.671381 223.783022 
L 94.158607 225.531754 
L 94.645832 226.520169 
L 95.17366 227.105302 
L 95.782691 227.452559 
L 96.635336 227.665982 
L 98.178216 227.775361 
L 104.349739 227.799816 
L 116.286762 227.908306 
L 116.936395 228.316476 
L 117.78904 228.5588 
L 119.12891 228.683741 
L 123.635745 228.721535 
L 498.068489 228.721535 
L 498.068489 228.721535 
" style="fill:none;stroke:#ff0000;stroke-linecap:square;stroke-width:1.5;"/>
   </g>
   <g id="line2d_58">
    <path clip-path="url(#p8ac13d3862)" d="M 92.290909 221.123686 
L 92.331511 221.123686 
L 92.372113 221.123686 
L 92.656328 203.082796 
L 92.981145 196.362203 
L 93.346564 193.090166 
L 93.793188 191.059982 
L 94.280413 189.869261 
L 94.80824 189.17208 
L 95.417272 188.755016 
L 96.229315 188.503355 
L 97.528582 188.372634 
L 100.979763 188.332173 
L 116.246159 188.246359 
L 116.855191 187.828851 
L 117.667234 187.600755 
L 119.088308 187.477148 
L 122.336477 187.44469 
L 498.027887 187.443801 
L 498.027887 187.443801 
" style="fill:none;stroke:#008000;stroke-linecap:square;stroke-width:1.5;"/>
   </g>
   <g id="line2d_59">
    <path clip-path="url(#p8ac13d3862)" d="M 92.290909 221.123686 
L 92.331511 221.123686 
L 92.372113 221.123686 
L 92.615726 231.345301 
L 92.940543 238.900021 
L 93.305962 242.564222 
L 93.711983 244.42678 
L 94.118004 245.34761 
L 94.60523 245.9074 
L 95.17366 246.218642 
L 96.026304 246.407165 
L 97.690991 246.496981 
L 103.456492 246.512987 
L 116.773987 246.621922 
L 118.235663 246.751754 
L 121.565037 246.787769 
L 498.027887 246.788658 
L 498.027887 246.788658 
" style="fill:none;stroke:#0000ff;stroke-linecap:square;stroke-width:1.5;"/>
   </g>
   <g id="line2d_60">
    <path clip-path="url(#p8ac13d3862)" d="M 92.290909 221.123686 
L 92.331511 221.123686 
L 92.372113 221.123686 
L 92.575124 217.164694 
L 92.615726 217.089107 
L 92.656328 217.113117 
L 92.818737 217.671129 
L 93.387166 219.721765 
L 93.752585 220.280221 
L 94.158607 220.532327 
L 94.767638 220.629701 
L 96.635336 220.6008 
L 102.482041 220.583015 
L 116.611579 220.474525 
L 117.586029 220.362923 
L 120.996607 220.323795 
L 497.987285 220.323351 
L 497.987285 220.323351 
" style="fill:none;stroke:#000000;stroke-linecap:square;stroke-width:1.5;"/>
   </g>
   <g id="line2d_61">
    <path clip-path="url(#p8ac13d3862)" d="M 92.290909 221.123686 
L 92.331511 221.123686 
L 92.372113 221.123686 
L 92.69693 203.739071 
L 93.021747 196.970902 
L 93.387166 193.63217 
L 93.793188 191.883883 
L 94.239811 190.929705 
L 94.727036 190.404596 
L 95.336068 190.089353 
L 96.229315 189.905721 
L 98.015808 189.820352 
L 103.700105 189.806568 
L 116.611579 189.70208 
L 117.667234 189.536233 
L 119.737942 189.463313 
L 497.987285 189.454421 
L 497.987285 189.454421 
" style="fill:none;stroke:#bfbf00;stroke-linecap:square;stroke-width:1.5;"/>
   </g>
   <g id="line2d_62">
    <path clip-path="url(#p8ac13d3862)" d="M 92.290909 221.123686 
L 92.453318 221.189047 
L 92.981145 223.981327 
L 93.143554 223.86928 
L 93.508973 223.172989 
L 94.199209 221.954256 
L 94.767638 221.389575 
L 95.417272 221.056102 
L 96.351121 220.85335 
L 98.05641 220.758199 
L 103.903115 220.740859 
L 116.530374 220.631924 
L 117.504825 220.372705 
L 118.966501 220.260658 
L 123.189122 220.232646 
L 498.068489 220.232201 
L 498.068489 220.232201 
" style="fill:none;stroke:#bf00bf;stroke-linecap:square;stroke-width:1.5;"/>
   </g>
   <g id="line2d_63">
    <path clip-path="url(#p8ac13d3862)" d="M 92.290909 221.123686 
L 92.331511 221.123686 
L 92.372113 221.123686 
L 92.69693 208.506845 
L 93.021747 204.608324 
L 93.346564 202.98142 
L 93.711983 202.151294 
L 94.158607 201.686655 
L 94.727036 201.427436 
L 95.660885 201.276706 
L 97.609787 201.216681 
L 108.369348 201.209567 
L 498.068489 201.105968 
L 498.068489 201.105968 
" style="fill:none;stroke:#00bfbf;stroke-linecap:square;stroke-width:1.5;"/>
   </g>
   <g id="line2d_64">
    <path clip-path="url(#p8ac13d3862)" d="M 92.290909 221.123686 
L 92.331511 221.123686 
L 92.372113 217.757832 
L 92.412715 219.801799 
L 92.69693 231.319512 
L 92.981145 235.118881 
L 93.224758 236.07706 
L 93.427768 236.23446 
L 93.671381 236.123302 
L 95.133057 235.081977 
L 96.066906 234.857439 
L 97.731593 234.748949 
L 103.740707 234.727606 
L 116.489772 234.620895 
L 117.464223 234.375903 
L 118.966501 234.270526 
L 125.138024 234.246071 
L 497.987285 234.246071 
L 497.987285 234.246071 
" style="fill:none;stroke:#ff0000;stroke-linecap:square;stroke-width:1.5;"/>
   </g>
   <g id="line2d_65">
    <path clip-path="url(#p8ac13d3862)" d="M 92.290909 221.123686 
L 92.331511 221.123686 
L 92.372113 217.733377 
L 92.412715 219.736438 
L 92.656328 228.277349 
L 92.981145 232.265686 
L 93.305962 233.793882 
L 93.671381 234.491952 
L 94.118004 234.833428 
L 94.767638 235.010836 
L 96.14811 235.095316 
L 101.873009 235.110433 
L 497.987285 235.137556 
L 497.987285 235.137556 
" style="fill:none;stroke:#008000;stroke-linecap:square;stroke-width:1.5;"/>
   </g>
   <g id="line2d_66">
    <path clip-path="url(#p8ac13d3862)" d="M 92.290909 221.123686 
L 92.331511 221.123686 
L 92.372113 221.123686 
L 92.534522 205.185899 
L 92.899941 194.289335 
L 93.26536 189.438414 
L 93.671381 186.864891 
L 94.118004 185.447409 
L 94.564628 184.708433 
L 95.092455 184.254909 
L 95.782691 183.979683 
L 96.838346 183.827619 
L 99.030861 183.768039 
L 116.489772 183.667107 
L 117.464223 183.432787 
L 119.12891 183.322074 
L 125.219228 183.299398 
L 497.987285 183.299398 
L 497.987285 183.299398 
" style="fill:none;stroke:#0000ff;stroke-linecap:square;stroke-width:1.5;"/>
   </g>
   <g id="line2d_67">
    <path clip-path="url(#p8ac13d3862)" d="M 92.290909 221.123686 
L 92.331511 221.123686 
L 92.372113 221.123686 
L 92.575124 218.455012 
L 92.818737 217.674686 
L 93.305962 214.69566 
L 93.874392 211.828681 
L 94.361617 210.399194 
L 94.848843 209.588187 
L 95.37667 209.103984 
L 96.066906 208.788297 
L 97.081959 208.607332 
L 98.990259 208.530856 
L 110.074637 208.520184 
L 116.246159 208.43526 
L 116.895793 207.975067 
L 117.707836 207.711846 
L 119.007104 207.56823 
L 121.849252 207.523767 
L 498.068489 207.521544 
L 498.068489 207.521544 
" style="fill:none;stroke:#000000;stroke-linecap:square;stroke-width:1.5;"/>
   </g>
   <g id="line2d_68">
    <path clip-path="url(#p8ac13d3862)" d="M 92.290909 221.123686 
L 92.331511 221.123686 
L 92.372113 221.123686 
L 92.737532 237.560793 
L 93.102951 245.18532 
L 93.468371 248.54406 
L 93.874392 250.357264 
L 94.321015 251.362574 
L 94.80824 251.920141 
L 95.417272 252.255837 
L 96.310519 252.451475 
L 97.975206 252.54129 
L 109.54681 252.557297 
L 116.611579 252.660007 
L 117.667234 252.848975 
L 119.616135 252.932121 
L 130.82232 252.944126 
L 498.068489 252.944126 
L 498.068489 252.944126 
" style="fill:none;stroke:#bfbf00;stroke-linecap:square;stroke-width:1.5;"/>
   </g>
   <g id="line2d_69">
    <path clip-path="url(#p8ac13d3862)" d="M 92.290909 221.123686 
L 92.331511 221.123686 
L 92.372113 221.123686 
L 92.575124 138.793645 
L 92.818737 115.93607 
L 93.062349 110.329277 
L 93.305962 108.659689 
L 93.549575 108.143028 
L 93.83379 108.014085 
L 94.361617 108.112349 
L 95.701487 108.381795 
L 97.528582 108.4725 
L 109.018982 108.487617 
L 116.002547 108.487617 
L 116.367966 107.8638 
L 117.667234 108.119018 
L 119.859748 108.176375 
L 498.109091 108.181711 
L 498.109091 108.181711 
" style="fill:none;stroke:#bf00bf;stroke-linecap:square;stroke-width:1.5;"/>
   </g>
   <g id="line2d_70">
    <path clip-path="url(#p8ac13d3862)" d="M 92.290909 221.123686 
L 92.331511 221.123686 
L 92.372113 221.123686 
L 92.534522 98.308687 
L 92.656328 88.265369 
L 92.69693 88.494353 
L 92.940543 96.151339 
L 93.26536 103.176503 
L 93.590177 106.030588 
L 93.914994 107.198633 
L 94.280413 107.772206 
L 94.767638 108.110125 
L 95.539079 108.330662 
L 96.960153 108.45427 
L 101.345182 108.487617 
L 116.164955 108.436929 
L 116.489772 108.066996 
L 116.895793 108.039874 
L 119.69734 108.174152 
L 498.027887 108.181711 
L 498.027887 108.181711 
" style="fill:none;stroke:#00bfbf;stroke-linecap:square;stroke-width:1.5;"/>
   </g>
   <g id="patch_3">
    <path d="M 72 384.48 
L 72 51.84 
" style="fill:none;stroke:#000000;stroke-linecap:square;stroke-linejoin:miter;stroke-width:0.8;"/>
   </g>
   <g id="patch_4">
    <path d="M 518.4 384.48 
L 518.4 51.84 
" style="fill:none;stroke:#000000;stroke-linecap:square;stroke-linejoin:miter;stroke-width:0.8;"/>
   </g>
   <g id="patch_5">
    <path d="M 72 384.48 
L 518.4 384.48 
" style="fill:none;stroke:#000000;stroke-linecap:square;stroke-linejoin:miter;stroke-width:0.8;"/>
   </g>
   <g id="patch_6">
    <path d="M 72 51.84 
L 518.4 51.84 
" style="fill:none;stroke:#000000;stroke-linecap:square;stroke-linejoin:miter;stroke-width:0.8;"/>
   </g>
   <g id="text_16">
    <!-- $p_{mn}$ -->
    <g transform="translate(282.67 45.84)scale(0.14 -0.14)">
     <use xlink:href="#DejaVuSans-Oblique-70"/>
     <use transform="translate(63.476562 -16.40625)scale(0.7)" xlink:href="#DejaVuSans-Oblique-6d"/>
     <use transform="translate(131.665039 -16.40625)scale(0.7)" xlink:href="#DejaVuSans-Oblique-6e"/>
    </g>
   </g>
  </g>
 </g>
 <defs>
  <clipPath id="p8ac13d3862">
   <rect height="332.64" width="446.4" x="72" y="51.84"/>
  </clipPath>
 </defs>
</svg>
