<?xml version="1.0" encoding="utf-8" standalone="no"?>
<!DOCTYPE svg PUBLIC "-//W3C//DTD SVG 1.1//EN"
  "http://www.w3.org/Graphics/SVG/1.1/DTD/svg11.dtd">
<!-- Created with matplotlib (http://matplotlib.org/) -->
<svg height="432pt" version="1.1" viewBox="0 0 576 432" width="576pt" xmlns="http://www.w3.org/2000/svg" xmlns:xlink="http://www.w3.org/1999/xlink">
 <defs>
  <style type="text/css">
*{stroke-linecap:butt;stroke-linejoin:round;}
  </style>
 </defs>
 <g id="figure_1">
  <g id="patch_1">
   <path d="M 0 432 
L 576 432 
L 576 0 
L 0 0 
z
" style="fill:#ffffff;"/>
  </g>
  <g id="axes_1">
   <g id="patch_2">
    <path d="M 72 384.48 
L 518.4 384.48 
L 518.4 51.84 
L 72 51.84 
z
" style="fill:#ffffff;"/>
   </g>
   <g id="matplotlib.axis_1">
    <g id="xtick_1">
     <g id="line2d_1">
      <path clip-path="url(#p9d2888aacd)" d="M 92.290909 384.48 
L 92.290909 51.84 
" style="fill:none;stroke:#b0b0b0;stroke-dasharray:5.12,1.28,0.8,1.28;stroke-dashoffset:0;stroke-width:0.8;"/>
     </g>
     <g id="line2d_2">
      <defs>
       <path d="M 0 0 
L 0 3.5 
" id="md98fd4734b" style="stroke:#000000;stroke-width:0.8;"/>
      </defs>
      <g>
       <use style="stroke:#000000;stroke-width:0.8;" x="92.290909" xlink:href="#md98fd4734b" y="384.48"/>
      </g>
     </g>
     <g id="text_1">
      <!-- 0 -->
      <defs>
       <path d="M 31.78125 66.40625 
Q 24.171875 66.40625 20.328125 58.90625 
Q 16.5 51.421875 16.5 36.375 
Q 16.5 21.390625 20.328125 13.890625 
Q 24.171875 6.390625 31.78125 6.390625 
Q 39.453125 6.390625 43.28125 13.890625 
Q 47.125 21.390625 47.125 36.375 
Q 47.125 51.421875 43.28125 58.90625 
Q 39.453125 66.40625 31.78125 66.40625 
z
M 31.78125 74.21875 
Q 44.046875 74.21875 50.515625 64.515625 
Q 56.984375 54.828125 56.984375 36.375 
Q 56.984375 17.96875 50.515625 8.265625 
Q 44.046875 -1.421875 31.78125 -1.421875 
Q 19.53125 -1.421875 13.0625 8.265625 
Q 6.59375 17.96875 6.59375 36.375 
Q 6.59375 54.828125 13.0625 64.515625 
Q 19.53125 74.21875 31.78125 74.21875 
z
" id="DejaVuSans-30"/>
      </defs>
      <g transform="translate(89.109659 399.078438)scale(0.1 -0.1)">
       <use xlink:href="#DejaVuSans-30"/>
      </g>
     </g>
    </g>
    <g id="xtick_2">
     <g id="line2d_3">
      <path clip-path="url(#p9d2888aacd)" d="M 173.53579 384.48 
L 173.53579 51.84 
" style="fill:none;stroke:#b0b0b0;stroke-dasharray:5.12,1.28,0.8,1.28;stroke-dashoffset:0;stroke-width:0.8;"/>
     </g>
     <g id="line2d_4">
      <g>
       <use style="stroke:#000000;stroke-width:0.8;" x="173.53579" xlink:href="#md98fd4734b" y="384.48"/>
      </g>
     </g>
     <g id="text_2">
      <!-- 200 -->
      <defs>
       <path d="M 19.1875 8.296875 
L 53.609375 8.296875 
L 53.609375 0 
L 7.328125 0 
L 7.328125 8.296875 
Q 12.9375 14.109375 22.625 23.890625 
Q 32.328125 33.6875 34.8125 36.53125 
Q 39.546875 41.84375 41.421875 45.53125 
Q 43.3125 49.21875 43.3125 52.78125 
Q 43.3125 58.59375 39.234375 62.25 
Q 35.15625 65.921875 28.609375 65.921875 
Q 23.96875 65.921875 18.8125 64.3125 
Q 13.671875 62.703125 7.8125 59.421875 
L 7.8125 69.390625 
Q 13.765625 71.78125 18.9375 73 
Q 24.125 74.21875 28.421875 74.21875 
Q 39.75 74.21875 46.484375 68.546875 
Q 53.21875 62.890625 53.21875 53.421875 
Q 53.21875 48.921875 51.53125 44.890625 
Q 49.859375 40.875 45.40625 35.40625 
Q 44.1875 33.984375 37.640625 27.21875 
Q 31.109375 20.453125 19.1875 8.296875 
z
" id="DejaVuSans-32"/>
      </defs>
      <g transform="translate(163.99204 399.078438)scale(0.1 -0.1)">
       <use xlink:href="#DejaVuSans-32"/>
       <use x="63.623047" xlink:href="#DejaVuSans-30"/>
       <use x="127.246094" xlink:href="#DejaVuSans-30"/>
      </g>
     </g>
    </g>
    <g id="xtick_3">
     <g id="line2d_5">
      <path clip-path="url(#p9d2888aacd)" d="M 254.780672 384.48 
L 254.780672 51.84 
" style="fill:none;stroke:#b0b0b0;stroke-dasharray:5.12,1.28,0.8,1.28;stroke-dashoffset:0;stroke-width:0.8;"/>
     </g>
     <g id="line2d_6">
      <g>
       <use style="stroke:#000000;stroke-width:0.8;" x="254.780672" xlink:href="#md98fd4734b" y="384.48"/>
      </g>
     </g>
     <g id="text_3">
      <!-- 400 -->
      <defs>
       <path d="M 37.796875 64.3125 
L 12.890625 25.390625 
L 37.796875 25.390625 
z
M 35.203125 72.90625 
L 47.609375 72.90625 
L 47.609375 25.390625 
L 58.015625 25.390625 
L 58.015625 17.1875 
L 47.609375 17.1875 
L 47.609375 0 
L 37.796875 0 
L 37.796875 17.1875 
L 4.890625 17.1875 
L 4.890625 26.703125 
z
" id="DejaVuSans-34"/>
      </defs>
      <g transform="translate(245.236922 399.078438)scale(0.1 -0.1)">
       <use xlink:href="#DejaVuSans-34"/>
       <use x="63.623047" xlink:href="#DejaVuSans-30"/>
       <use x="127.246094" xlink:href="#DejaVuSans-30"/>
      </g>
     </g>
    </g>
    <g id="xtick_4">
     <g id="line2d_7">
      <path clip-path="url(#p9d2888aacd)" d="M 336.025553 384.48 
L 336.025553 51.84 
" style="fill:none;stroke:#b0b0b0;stroke-dasharray:5.12,1.28,0.8,1.28;stroke-dashoffset:0;stroke-width:0.8;"/>
     </g>
     <g id="line2d_8">
      <g>
       <use style="stroke:#000000;stroke-width:0.8;" x="336.025553" xlink:href="#md98fd4734b" y="384.48"/>
      </g>
     </g>
     <g id="text_4">
      <!-- 600 -->
      <defs>
       <path d="M 33.015625 40.375 
Q 26.375 40.375 22.484375 35.828125 
Q 18.609375 31.296875 18.609375 23.390625 
Q 18.609375 15.53125 22.484375 10.953125 
Q 26.375 6.390625 33.015625 6.390625 
Q 39.65625 6.390625 43.53125 10.953125 
Q 47.40625 15.53125 47.40625 23.390625 
Q 47.40625 31.296875 43.53125 35.828125 
Q 39.65625 40.375 33.015625 40.375 
z
M 52.59375 71.296875 
L 52.59375 62.3125 
Q 48.875 64.0625 45.09375 64.984375 
Q 41.3125 65.921875 37.59375 65.921875 
Q 27.828125 65.921875 22.671875 59.328125 
Q 17.53125 52.734375 16.796875 39.40625 
Q 19.671875 43.65625 24.015625 45.921875 
Q 28.375 48.1875 33.59375 48.1875 
Q 44.578125 48.1875 50.953125 41.515625 
Q 57.328125 34.859375 57.328125 23.390625 
Q 57.328125 12.15625 50.6875 5.359375 
Q 44.046875 -1.421875 33.015625 -1.421875 
Q 20.359375 -1.421875 13.671875 8.265625 
Q 6.984375 17.96875 6.984375 36.375 
Q 6.984375 53.65625 15.1875 63.9375 
Q 23.390625 74.21875 37.203125 74.21875 
Q 40.921875 74.21875 44.703125 73.484375 
Q 48.484375 72.75 52.59375 71.296875 
z
" id="DejaVuSans-36"/>
      </defs>
      <g transform="translate(326.481803 399.078438)scale(0.1 -0.1)">
       <use xlink:href="#DejaVuSans-36"/>
       <use x="63.623047" xlink:href="#DejaVuSans-30"/>
       <use x="127.246094" xlink:href="#DejaVuSans-30"/>
      </g>
     </g>
    </g>
    <g id="xtick_5">
     <g id="line2d_9">
      <path clip-path="url(#p9d2888aacd)" d="M 417.270434 384.48 
L 417.270434 51.84 
" style="fill:none;stroke:#b0b0b0;stroke-dasharray:5.12,1.28,0.8,1.28;stroke-dashoffset:0;stroke-width:0.8;"/>
     </g>
     <g id="line2d_10">
      <g>
       <use style="stroke:#000000;stroke-width:0.8;" x="417.270434" xlink:href="#md98fd4734b" y="384.48"/>
      </g>
     </g>
     <g id="text_5">
      <!-- 800 -->
      <defs>
       <path d="M 31.78125 34.625 
Q 24.75 34.625 20.71875 30.859375 
Q 16.703125 27.09375 16.703125 20.515625 
Q 16.703125 13.921875 20.71875 10.15625 
Q 24.75 6.390625 31.78125 6.390625 
Q 38.8125 6.390625 42.859375 10.171875 
Q 46.921875 13.96875 46.921875 20.515625 
Q 46.921875 27.09375 42.890625 30.859375 
Q 38.875 34.625 31.78125 34.625 
z
M 21.921875 38.8125 
Q 15.578125 40.375 12.03125 44.71875 
Q 8.5 49.078125 8.5 55.328125 
Q 8.5 64.0625 14.71875 69.140625 
Q 20.953125 74.21875 31.78125 74.21875 
Q 42.671875 74.21875 48.875 69.140625 
Q 55.078125 64.0625 55.078125 55.328125 
Q 55.078125 49.078125 51.53125 44.71875 
Q 48 40.375 41.703125 38.8125 
Q 48.828125 37.15625 52.796875 32.3125 
Q 56.78125 27.484375 56.78125 20.515625 
Q 56.78125 9.90625 50.3125 4.234375 
Q 43.84375 -1.421875 31.78125 -1.421875 
Q 19.734375 -1.421875 13.25 4.234375 
Q 6.78125 9.90625 6.78125 20.515625 
Q 6.78125 27.484375 10.78125 32.3125 
Q 14.796875 37.15625 21.921875 38.8125 
z
M 18.3125 54.390625 
Q 18.3125 48.734375 21.84375 45.5625 
Q 25.390625 42.390625 31.78125 42.390625 
Q 38.140625 42.390625 41.71875 45.5625 
Q 45.3125 48.734375 45.3125 54.390625 
Q 45.3125 60.0625 41.71875 63.234375 
Q 38.140625 66.40625 31.78125 66.40625 
Q 25.390625 66.40625 21.84375 63.234375 
Q 18.3125 60.0625 18.3125 54.390625 
z
" id="DejaVuSans-38"/>
      </defs>
      <g transform="translate(407.726684 399.078438)scale(0.1 -0.1)">
       <use xlink:href="#DejaVuSans-38"/>
       <use x="63.623047" xlink:href="#DejaVuSans-30"/>
       <use x="127.246094" xlink:href="#DejaVuSans-30"/>
      </g>
     </g>
    </g>
    <g id="xtick_6">
     <g id="line2d_11">
      <path clip-path="url(#p9d2888aacd)" d="M 498.515315 384.48 
L 498.515315 51.84 
" style="fill:none;stroke:#b0b0b0;stroke-dasharray:5.12,1.28,0.8,1.28;stroke-dashoffset:0;stroke-width:0.8;"/>
     </g>
     <g id="line2d_12">
      <g>
       <use style="stroke:#000000;stroke-width:0.8;" x="498.515315" xlink:href="#md98fd4734b" y="384.48"/>
      </g>
     </g>
     <g id="text_6">
      <!-- 1000 -->
      <defs>
       <path d="M 12.40625 8.296875 
L 28.515625 8.296875 
L 28.515625 63.921875 
L 10.984375 60.40625 
L 10.984375 69.390625 
L 28.421875 72.90625 
L 38.28125 72.90625 
L 38.28125 8.296875 
L 54.390625 8.296875 
L 54.390625 0 
L 12.40625 0 
z
" id="DejaVuSans-31"/>
      </defs>
      <g transform="translate(485.790315 399.078438)scale(0.1 -0.1)">
       <use xlink:href="#DejaVuSans-31"/>
       <use x="63.623047" xlink:href="#DejaVuSans-30"/>
       <use x="127.246094" xlink:href="#DejaVuSans-30"/>
       <use x="190.869141" xlink:href="#DejaVuSans-30"/>
      </g>
     </g>
    </g>
    <g id="text_7">
     <!-- Iteration -->
     <defs>
      <path d="M 9.8125 72.90625 
L 19.671875 72.90625 
L 19.671875 0 
L 9.8125 0 
z
" id="DejaVuSans-49"/>
      <path d="M 18.3125 70.21875 
L 18.3125 54.6875 
L 36.8125 54.6875 
L 36.8125 47.703125 
L 18.3125 47.703125 
L 18.3125 18.015625 
Q 18.3125 11.328125 20.140625 9.421875 
Q 21.96875 7.515625 27.59375 7.515625 
L 36.8125 7.515625 
L 36.8125 0 
L 27.59375 0 
Q 17.1875 0 13.234375 3.875 
Q 9.28125 7.765625 9.28125 18.015625 
L 9.28125 47.703125 
L 2.6875 47.703125 
L 2.6875 54.6875 
L 9.28125 54.6875 
L 9.28125 70.21875 
z
" id="DejaVuSans-74"/>
      <path d="M 56.203125 29.59375 
L 56.203125 25.203125 
L 14.890625 25.203125 
Q 15.484375 15.921875 20.484375 11.0625 
Q 25.484375 6.203125 34.421875 6.203125 
Q 39.59375 6.203125 44.453125 7.46875 
Q 49.3125 8.734375 54.109375 11.28125 
L 54.109375 2.78125 
Q 49.265625 0.734375 44.1875 -0.34375 
Q 39.109375 -1.421875 33.890625 -1.421875 
Q 20.796875 -1.421875 13.15625 6.1875 
Q 5.515625 13.8125 5.515625 26.8125 
Q 5.515625 40.234375 12.765625 48.109375 
Q 20.015625 56 32.328125 56 
Q 43.359375 56 49.78125 48.890625 
Q 56.203125 41.796875 56.203125 29.59375 
z
M 47.21875 32.234375 
Q 47.125 39.59375 43.09375 43.984375 
Q 39.0625 48.390625 32.421875 48.390625 
Q 24.90625 48.390625 20.390625 44.140625 
Q 15.875 39.890625 15.1875 32.171875 
z
" id="DejaVuSans-65"/>
      <path d="M 41.109375 46.296875 
Q 39.59375 47.171875 37.8125 47.578125 
Q 36.03125 48 33.890625 48 
Q 26.265625 48 22.1875 43.046875 
Q 18.109375 38.09375 18.109375 28.8125 
L 18.109375 0 
L 9.078125 0 
L 9.078125 54.6875 
L 18.109375 54.6875 
L 18.109375 46.1875 
Q 20.953125 51.171875 25.484375 53.578125 
Q 30.03125 56 36.53125 56 
Q 37.453125 56 38.578125 55.875 
Q 39.703125 55.765625 41.0625 55.515625 
z
" id="DejaVuSans-72"/>
      <path d="M 34.28125 27.484375 
Q 23.390625 27.484375 19.1875 25 
Q 14.984375 22.515625 14.984375 16.5 
Q 14.984375 11.71875 18.140625 8.90625 
Q 21.296875 6.109375 26.703125 6.109375 
Q 34.1875 6.109375 38.703125 11.40625 
Q 43.21875 16.703125 43.21875 25.484375 
L 43.21875 27.484375 
z
M 52.203125 31.203125 
L 52.203125 0 
L 43.21875 0 
L 43.21875 8.296875 
Q 40.140625 3.328125 35.546875 0.953125 
Q 30.953125 -1.421875 24.3125 -1.421875 
Q 15.921875 -1.421875 10.953125 3.296875 
Q 6 8.015625 6 15.921875 
Q 6 25.140625 12.171875 29.828125 
Q 18.359375 34.515625 30.609375 34.515625 
L 43.21875 34.515625 
L 43.21875 35.40625 
Q 43.21875 41.609375 39.140625 45 
Q 35.0625 48.390625 27.6875 48.390625 
Q 23 48.390625 18.546875 47.265625 
Q 14.109375 46.140625 10.015625 43.890625 
L 10.015625 52.203125 
Q 14.9375 54.109375 19.578125 55.046875 
Q 24.21875 56 28.609375 56 
Q 40.484375 56 46.34375 49.84375 
Q 52.203125 43.703125 52.203125 31.203125 
z
" id="DejaVuSans-61"/>
      <path d="M 9.421875 54.6875 
L 18.40625 54.6875 
L 18.40625 0 
L 9.421875 0 
z
M 9.421875 75.984375 
L 18.40625 75.984375 
L 18.40625 64.59375 
L 9.421875 64.59375 
z
" id="DejaVuSans-69"/>
      <path d="M 30.609375 48.390625 
Q 23.390625 48.390625 19.1875 42.75 
Q 14.984375 37.109375 14.984375 27.296875 
Q 14.984375 17.484375 19.15625 11.84375 
Q 23.34375 6.203125 30.609375 6.203125 
Q 37.796875 6.203125 41.984375 11.859375 
Q 46.1875 17.53125 46.1875 27.296875 
Q 46.1875 37.015625 41.984375 42.703125 
Q 37.796875 48.390625 30.609375 48.390625 
z
M 30.609375 56 
Q 42.328125 56 49.015625 48.375 
Q 55.71875 40.765625 55.71875 27.296875 
Q 55.71875 13.875 49.015625 6.21875 
Q 42.328125 -1.421875 30.609375 -1.421875 
Q 18.84375 -1.421875 12.171875 6.21875 
Q 5.515625 13.875 5.515625 27.296875 
Q 5.515625 40.765625 12.171875 48.375 
Q 18.84375 56 30.609375 56 
z
" id="DejaVuSans-6f"/>
      <path d="M 54.890625 33.015625 
L 54.890625 0 
L 45.90625 0 
L 45.90625 32.71875 
Q 45.90625 40.484375 42.875 44.328125 
Q 39.84375 48.1875 33.796875 48.1875 
Q 26.515625 48.1875 22.3125 43.546875 
Q 18.109375 38.921875 18.109375 30.90625 
L 18.109375 0 
L 9.078125 0 
L 9.078125 54.6875 
L 18.109375 54.6875 
L 18.109375 46.1875 
Q 21.34375 51.125 25.703125 53.5625 
Q 30.078125 56 35.796875 56 
Q 45.21875 56 50.046875 50.171875 
Q 54.890625 44.34375 54.890625 33.015625 
z
" id="DejaVuSans-6e"/>
     </defs>
     <g transform="translate(265.507969 415.795938)scale(0.14 -0.14)">
      <use xlink:href="#DejaVuSans-49"/>
      <use x="29.492188" xlink:href="#DejaVuSans-74"/>
      <use x="68.701172" xlink:href="#DejaVuSans-65"/>
      <use x="130.224609" xlink:href="#DejaVuSans-72"/>
      <use x="171.337891" xlink:href="#DejaVuSans-61"/>
      <use x="232.617188" xlink:href="#DejaVuSans-74"/>
      <use x="271.826172" xlink:href="#DejaVuSans-69"/>
      <use x="299.609375" xlink:href="#DejaVuSans-6f"/>
      <use x="360.791016" xlink:href="#DejaVuSans-6e"/>
     </g>
    </g>
   </g>
   <g id="matplotlib.axis_2">
    <g id="ytick_1">
     <g id="line2d_13">
      <path clip-path="url(#p9d2888aacd)" d="M 72 345.486316 
L 518.4 345.486316 
" style="fill:none;stroke:#b0b0b0;stroke-dasharray:5.12,1.28,0.8,1.28;stroke-dashoffset:0;stroke-width:0.8;"/>
     </g>
     <g id="line2d_14">
      <defs>
       <path d="M 0 0 
L -3.5 0 
" id="mb7c1f62356" style="stroke:#000000;stroke-width:0.8;"/>
      </defs>
      <g>
       <use style="stroke:#000000;stroke-width:0.8;" x="72" xlink:href="#mb7c1f62356" y="345.486316"/>
      </g>
     </g>
     <g id="text_8">
      <!-- −0.7 -->
      <defs>
       <path d="M 10.59375 35.5 
L 73.1875 35.5 
L 73.1875 27.203125 
L 10.59375 27.203125 
z
" id="DejaVuSans-2212"/>
       <path d="M 10.6875 12.40625 
L 21 12.40625 
L 21 0 
L 10.6875 0 
z
" id="DejaVuSans-2e"/>
       <path d="M 8.203125 72.90625 
L 55.078125 72.90625 
L 55.078125 68.703125 
L 28.609375 0 
L 18.3125 0 
L 43.21875 64.59375 
L 8.203125 64.59375 
z
" id="DejaVuSans-37"/>
      </defs>
      <g transform="translate(40.717187 349.285535)scale(0.1 -0.1)">
       <use xlink:href="#DejaVuSans-2212"/>
       <use x="83.789062" xlink:href="#DejaVuSans-30"/>
       <use x="147.412109" xlink:href="#DejaVuSans-2e"/>
       <use x="179.199219" xlink:href="#DejaVuSans-37"/>
      </g>
     </g>
    </g>
    <g id="ytick_2">
     <g id="line2d_15">
      <path clip-path="url(#p9d2888aacd)" d="M 72 305.696842 
L 518.4 305.696842 
" style="fill:none;stroke:#b0b0b0;stroke-dasharray:5.12,1.28,0.8,1.28;stroke-dashoffset:0;stroke-width:0.8;"/>
     </g>
     <g id="line2d_16">
      <g>
       <use style="stroke:#000000;stroke-width:0.8;" x="72" xlink:href="#mb7c1f62356" y="305.696842"/>
      </g>
     </g>
     <g id="text_9">
      <!-- −0.6 -->
      <g transform="translate(40.717187 309.496061)scale(0.1 -0.1)">
       <use xlink:href="#DejaVuSans-2212"/>
       <use x="83.789062" xlink:href="#DejaVuSans-30"/>
       <use x="147.412109" xlink:href="#DejaVuSans-2e"/>
       <use x="179.199219" xlink:href="#DejaVuSans-36"/>
      </g>
     </g>
    </g>
    <g id="ytick_3">
     <g id="line2d_17">
      <path clip-path="url(#p9d2888aacd)" d="M 72 265.907368 
L 518.4 265.907368 
" style="fill:none;stroke:#b0b0b0;stroke-dasharray:5.12,1.28,0.8,1.28;stroke-dashoffset:0;stroke-width:0.8;"/>
     </g>
     <g id="line2d_18">
      <g>
       <use style="stroke:#000000;stroke-width:0.8;" x="72" xlink:href="#mb7c1f62356" y="265.907368"/>
      </g>
     </g>
     <g id="text_10">
      <!-- −0.5 -->
      <defs>
       <path d="M 10.796875 72.90625 
L 49.515625 72.90625 
L 49.515625 64.59375 
L 19.828125 64.59375 
L 19.828125 46.734375 
Q 21.96875 47.46875 24.109375 47.828125 
Q 26.265625 48.1875 28.421875 48.1875 
Q 40.625 48.1875 47.75 41.5 
Q 54.890625 34.8125 54.890625 23.390625 
Q 54.890625 11.625 47.5625 5.09375 
Q 40.234375 -1.421875 26.90625 -1.421875 
Q 22.3125 -1.421875 17.546875 -0.640625 
Q 12.796875 0.140625 7.71875 1.703125 
L 7.71875 11.625 
Q 12.109375 9.234375 16.796875 8.0625 
Q 21.484375 6.890625 26.703125 6.890625 
Q 35.15625 6.890625 40.078125 11.328125 
Q 45.015625 15.765625 45.015625 23.390625 
Q 45.015625 31 40.078125 35.4375 
Q 35.15625 39.890625 26.703125 39.890625 
Q 22.75 39.890625 18.8125 39.015625 
Q 14.890625 38.140625 10.796875 36.28125 
z
" id="DejaVuSans-35"/>
      </defs>
      <g transform="translate(40.717187 269.706587)scale(0.1 -0.1)">
       <use xlink:href="#DejaVuSans-2212"/>
       <use x="83.789062" xlink:href="#DejaVuSans-30"/>
       <use x="147.412109" xlink:href="#DejaVuSans-2e"/>
       <use x="179.199219" xlink:href="#DejaVuSans-35"/>
      </g>
     </g>
    </g>
    <g id="ytick_4">
     <g id="line2d_19">
      <path clip-path="url(#p9d2888aacd)" d="M 72 226.117895 
L 518.4 226.117895 
" style="fill:none;stroke:#b0b0b0;stroke-dasharray:5.12,1.28,0.8,1.28;stroke-dashoffset:0;stroke-width:0.8;"/>
     </g>
     <g id="line2d_20">
      <g>
       <use style="stroke:#000000;stroke-width:0.8;" x="72" xlink:href="#mb7c1f62356" y="226.117895"/>
      </g>
     </g>
     <g id="text_11">
      <!-- −0.4 -->
      <g transform="translate(40.717187 229.917113)scale(0.1 -0.1)">
       <use xlink:href="#DejaVuSans-2212"/>
       <use x="83.789062" xlink:href="#DejaVuSans-30"/>
       <use x="147.412109" xlink:href="#DejaVuSans-2e"/>
       <use x="179.199219" xlink:href="#DejaVuSans-34"/>
      </g>
     </g>
    </g>
    <g id="ytick_5">
     <g id="line2d_21">
      <path clip-path="url(#p9d2888aacd)" d="M 72 186.328421 
L 518.4 186.328421 
" style="fill:none;stroke:#b0b0b0;stroke-dasharray:5.12,1.28,0.8,1.28;stroke-dashoffset:0;stroke-width:0.8;"/>
     </g>
     <g id="line2d_22">
      <g>
       <use style="stroke:#000000;stroke-width:0.8;" x="72" xlink:href="#mb7c1f62356" y="186.328421"/>
      </g>
     </g>
     <g id="text_12">
      <!-- −0.3 -->
      <defs>
       <path d="M 40.578125 39.3125 
Q 47.65625 37.796875 51.625 33 
Q 55.609375 28.21875 55.609375 21.1875 
Q 55.609375 10.40625 48.1875 4.484375 
Q 40.765625 -1.421875 27.09375 -1.421875 
Q 22.515625 -1.421875 17.65625 -0.515625 
Q 12.796875 0.390625 7.625 2.203125 
L 7.625 11.71875 
Q 11.71875 9.328125 16.59375 8.109375 
Q 21.484375 6.890625 26.8125 6.890625 
Q 36.078125 6.890625 40.9375 10.546875 
Q 45.796875 14.203125 45.796875 21.1875 
Q 45.796875 27.640625 41.28125 31.265625 
Q 36.765625 34.90625 28.71875 34.90625 
L 20.21875 34.90625 
L 20.21875 43.015625 
L 29.109375 43.015625 
Q 36.375 43.015625 40.234375 45.921875 
Q 44.09375 48.828125 44.09375 54.296875 
Q 44.09375 59.90625 40.109375 62.90625 
Q 36.140625 65.921875 28.71875 65.921875 
Q 24.65625 65.921875 20.015625 65.03125 
Q 15.375 64.15625 9.8125 62.3125 
L 9.8125 71.09375 
Q 15.4375 72.65625 20.34375 73.4375 
Q 25.25 74.21875 29.59375 74.21875 
Q 40.828125 74.21875 47.359375 69.109375 
Q 53.90625 64.015625 53.90625 55.328125 
Q 53.90625 49.265625 50.4375 45.09375 
Q 46.96875 40.921875 40.578125 39.3125 
z
" id="DejaVuSans-33"/>
      </defs>
      <g transform="translate(40.717187 190.12764)scale(0.1 -0.1)">
       <use xlink:href="#DejaVuSans-2212"/>
       <use x="83.789062" xlink:href="#DejaVuSans-30"/>
       <use x="147.412109" xlink:href="#DejaVuSans-2e"/>
       <use x="179.199219" xlink:href="#DejaVuSans-33"/>
      </g>
     </g>
    </g>
    <g id="ytick_6">
     <g id="line2d_23">
      <path clip-path="url(#p9d2888aacd)" d="M 72 146.538947 
L 518.4 146.538947 
" style="fill:none;stroke:#b0b0b0;stroke-dasharray:5.12,1.28,0.8,1.28;stroke-dashoffset:0;stroke-width:0.8;"/>
     </g>
     <g id="line2d_24">
      <g>
       <use style="stroke:#000000;stroke-width:0.8;" x="72" xlink:href="#mb7c1f62356" y="146.538947"/>
      </g>
     </g>
     <g id="text_13">
      <!-- −0.2 -->
      <g transform="translate(40.717187 150.338166)scale(0.1 -0.1)">
       <use xlink:href="#DejaVuSans-2212"/>
       <use x="83.789062" xlink:href="#DejaVuSans-30"/>
       <use x="147.412109" xlink:href="#DejaVuSans-2e"/>
       <use x="179.199219" xlink:href="#DejaVuSans-32"/>
      </g>
     </g>
    </g>
    <g id="ytick_7">
     <g id="line2d_25">
      <path clip-path="url(#p9d2888aacd)" d="M 72 106.749474 
L 518.4 106.749474 
" style="fill:none;stroke:#b0b0b0;stroke-dasharray:5.12,1.28,0.8,1.28;stroke-dashoffset:0;stroke-width:0.8;"/>
     </g>
     <g id="line2d_26">
      <g>
       <use style="stroke:#000000;stroke-width:0.8;" x="72" xlink:href="#mb7c1f62356" y="106.749474"/>
      </g>
     </g>
     <g id="text_14">
      <!-- −0.1 -->
      <g transform="translate(40.717187 110.548692)scale(0.1 -0.1)">
       <use xlink:href="#DejaVuSans-2212"/>
       <use x="83.789062" xlink:href="#DejaVuSans-30"/>
       <use x="147.412109" xlink:href="#DejaVuSans-2e"/>
       <use x="179.199219" xlink:href="#DejaVuSans-31"/>
      </g>
     </g>
    </g>
    <g id="ytick_8">
     <g id="line2d_27">
      <path clip-path="url(#p9d2888aacd)" d="M 72 66.96 
L 518.4 66.96 
" style="fill:none;stroke:#b0b0b0;stroke-dasharray:5.12,1.28,0.8,1.28;stroke-dashoffset:0;stroke-width:0.8;"/>
     </g>
     <g id="line2d_28">
      <g>
       <use style="stroke:#000000;stroke-width:0.8;" x="72" xlink:href="#mb7c1f62356" y="66.96"/>
      </g>
     </g>
     <g id="text_15">
      <!-- 0.0 -->
      <g transform="translate(49.096875 70.759219)scale(0.1 -0.1)">
       <use xlink:href="#DejaVuSans-30"/>
       <use x="63.623047" xlink:href="#DejaVuSans-2e"/>
       <use x="95.410156" xlink:href="#DejaVuSans-30"/>
      </g>
     </g>
    </g>
    <g id="text_16">
     <!-- $\partial \mathcal{L}/ \partial \mu^{P_{\mathrm{min}}}_{m}[W]$ -->
     <defs>
      <path d="M 21.34375 -1.421875 
Q 14.453125 -1.421875 9.96875 2.734375 
Q 4.640625 7.671875 4.640625 16.609375 
Q 4.640625 25.875 9.328125 33.109375 
Q 14.15625 40.53125 22.859375 40.53125 
Q 28.5625 40.53125 33.0625 36.96875 
Q 35.6875 34.859375 37.5 31.34375 
Q 38.140625 35.296875 38.140625 39.796875 
Q 38.140625 46.390625 36.578125 50.203125 
Q 33.109375 58.640625 23.921875 58.640625 
Q 20.453125 58.640625 15.09375 56.5 
L 15.09375 64.703125 
Q 20.75 66.21875 25.828125 66.21875 
Q 38.921875 66.21875 44.484375 54.203125 
Q 47.078125 48.53125 47.078125 40.09375 
Q 47.078125 34.578125 45.84375 28.171875 
Q 42.78125 12.15625 34.8125 4.546875 
Q 28.5625 -1.421875 21.34375 -1.421875 
z
M 12.984375 15.140625 
Q 12.984375 10.25 15.140625 7.625 
Q 17.4375 4.828125 20.953125 4.828125 
Q 24.078125 4.828125 26.5625 7.03125 
Q 30.078125 10.0625 32.671875 14.984375 
Q 34.8125 19.046875 35.890625 23.390625 
Q 31.546875 33.890625 24.03125 33.890625 
Q 17.578125 33.890625 14.75 25.390625 
Q 12.984375 20.125 12.984375 15.140625 
z
" id="DejaVuSans-2202"/>
      <path d="M 63.59375 14.296875 
L 65.296875 12.5 
Q 52.296875 -0.703125 37.703125 -0.703125 
Q 33.703125 -0.703125 28.90625 0.40625 
Q 21.796875 1.90625 17.90625 1.90625 
Q 15.703125 1.90625 10.5 0.953125 
Q 5.296875 0 3 0 
L 3.59375 2.40625 
Q 9.09375 2.40625 11.40625 11.703125 
L 18.40625 40.09375 
Q 20.09375 47 23.6875 52.390625 
Q 27.296875 57.796875 31.640625 60.84375 
Q 36 63.90625 40.390625 65.453125 
Q 44.796875 67 48.796875 67 
Q 53.796875 67 56.140625 63.796875 
Q 58.5 60.59375 58.5 56 
Q 58.5 52.296875 56.140625 50 
Q 53.796875 47.703125 50.40625 47.703125 
Q 48.203125 47.703125 46.796875 49.203125 
Q 45.40625 50.703125 45.40625 52.796875 
Q 45.40625 54.40625 46.203125 55.5 
Q 47 56.59375 47.890625 56.9375 
Q 48.796875 57.296875 49.59375 57.890625 
Q 50.40625 58.5 50.40625 59.203125 
Q 50.40625 63 44.59375 63 
Q 39.40625 63 36.09375 59.140625 
Q 32.796875 55.296875 31.09375 48.9375 
Q 29.40625 42.59375 28.046875 35.6875 
Q 26.703125 28.796875 24.203125 21.296875 
Q 21.703125 13.796875 18.09375 9.203125 
L 18.09375 8.796875 
Q 21.296875 11 29.5 11 
Q 34.796875 11 38.4375 8.5 
Q 42.09375 6 46.296875 6 
Q 54.796875 6 63.59375 14.296875 
z
" id="STIXNonUnicode-Italic-e238"/>
      <path d="M 25.390625 72.90625 
L 33.6875 72.90625 
L 8.296875 -9.28125 
L 0 -9.28125 
z
" id="DejaVuSans-2f"/>
      <path d="M -1.3125 -20.796875 
L 13.375 54.6875 
L 22.40625 54.6875 
L 15.765625 20.65625 
Q 15.578125 19.625 15.421875 18.359375 
Q 15.28125 17.09375 15.28125 15.828125 
Q 15.28125 11.28125 18.140625 8.828125 
Q 21 6.390625 26.3125 6.390625 
Q 33.546875 6.390625 37.984375 10.484375 
Q 42.4375 14.59375 44 22.796875 
L 50.203125 54.6875 
L 59.1875 54.6875 
L 51.03125 12.640625 
Q 50.828125 11.71875 50.75 11.03125 
Q 50.6875 10.359375 50.6875 9.8125 
Q 50.6875 8.296875 51.296875 7.59375 
Q 51.90625 6.890625 53.21875 6.890625 
Q 53.71875 6.890625 54.5625 7.125 
Q 55.421875 7.375 56.984375 8.015625 
L 55.609375 0.78125 
Q 53.46875 -0.296875 51.515625 -0.859375 
Q 49.5625 -1.421875 47.703125 -1.421875 
Q 44.484375 -1.421875 42.65625 0.625 
Q 40.828125 2.6875 40.828125 6.296875 
Q 38.09375 2.390625 34.296875 0.484375 
Q 30.515625 -1.421875 25.390625 -1.421875 
Q 20.84375 -1.421875 17.453125 0.671875 
Q 14.0625 2.78125 12.984375 6.203125 
L 7.71875 -20.796875 
z
" id="DejaVuSans-Oblique-3bc"/>
      <path d="M 16.890625 72.90625 
L 39.703125 72.90625 
Q 49.65625 72.90625 54.875 68.265625 
Q 60.109375 63.625 60.109375 54.6875 
Q 60.109375 42.671875 52.390625 35.984375 
Q 44.671875 29.296875 30.71875 29.296875 
L 18.3125 29.296875 
L 12.59375 0 
L 2.6875 0 
z
M 25.203125 64.796875 
L 19.921875 37.40625 
L 32.328125 37.40625 
Q 40.71875 37.40625 45.203125 41.703125 
Q 49.703125 46 49.703125 54 
Q 49.703125 59.125 46.65625 61.953125 
Q 43.609375 64.796875 38.09375 64.796875 
z
" id="DejaVuSans-Oblique-50"/>
      <path d="M 52 44.1875 
Q 55.375 50.25 60.0625 53.125 
Q 64.75 56 71.09375 56 
Q 79.640625 56 84.28125 50.015625 
Q 88.921875 44.046875 88.921875 33.015625 
L 88.921875 0 
L 79.890625 0 
L 79.890625 32.71875 
Q 79.890625 40.578125 77.09375 44.375 
Q 74.3125 48.1875 68.609375 48.1875 
Q 61.625 48.1875 57.5625 43.546875 
Q 53.515625 38.921875 53.515625 30.90625 
L 53.515625 0 
L 44.484375 0 
L 44.484375 32.71875 
Q 44.484375 40.625 41.703125 44.40625 
Q 38.921875 48.1875 33.109375 48.1875 
Q 26.21875 48.1875 22.15625 43.53125 
Q 18.109375 38.875 18.109375 30.90625 
L 18.109375 0 
L 9.078125 0 
L 9.078125 54.6875 
L 18.109375 54.6875 
L 18.109375 46.1875 
Q 21.1875 51.21875 25.484375 53.609375 
Q 29.78125 56 35.6875 56 
Q 41.65625 56 45.828125 52.96875 
Q 50 49.953125 52 44.1875 
z
" id="DejaVuSans-6d"/>
      <path d="M 89.796875 33.015625 
L 83.40625 0 
L 74.421875 0 
L 80.71875 32.71875 
Q 81.109375 34.8125 81.296875 36.328125 
Q 81.5 37.84375 81.5 38.921875 
Q 81.5 43.3125 79.046875 45.75 
Q 76.609375 48.1875 72.21875 48.1875 
Q 65.671875 48.1875 60.546875 43.28125 
Q 55.421875 38.375 53.90625 30.515625 
L 47.90625 0 
L 38.921875 0 
L 45.3125 32.71875 
Q 45.703125 34.515625 45.890625 36.046875 
Q 46.09375 37.59375 46.09375 38.8125 
Q 46.09375 43.265625 43.65625 45.71875 
Q 41.21875 48.1875 36.921875 48.1875 
Q 30.28125 48.1875 25.140625 43.28125 
Q 20.015625 38.375 18.5 30.515625 
L 12.5 0 
L 3.515625 0 
L 14.203125 54.6875 
L 23.1875 54.6875 
L 21.484375 46.1875 
Q 25.140625 50.984375 30.046875 53.484375 
Q 34.96875 56 40.578125 56 
Q 46.53125 56 50.359375 52.875 
Q 54.203125 49.75 54.984375 44.1875 
Q 59.078125 49.953125 64.46875 52.96875 
Q 69.875 56 75.875 56 
Q 82.90625 56 86.734375 51.953125 
Q 90.578125 47.90625 90.578125 40.484375 
Q 90.578125 38.875 90.375 36.9375 
Q 90.1875 35.015625 89.796875 33.015625 
z
" id="DejaVuSans-Oblique-6d"/>
      <path d="M 8.59375 75.984375 
L 29.296875 75.984375 
L 29.296875 69 
L 17.578125 69 
L 17.578125 -6.203125 
L 29.296875 -6.203125 
L 29.296875 -13.1875 
L 8.59375 -13.1875 
z
" id="DejaVuSans-5b"/>
      <path d="M 9.625 72.90625 
L 19.1875 72.90625 
L 22.703125 10.890625 
L 50.203125 72.90625 
L 61.1875 72.90625 
L 64.796875 10.890625 
L 92 72.90625 
L 102 72.90625 
L 69.578125 0 
L 57.171875 0 
L 53.8125 60.796875 
L 26.515625 0 
L 14.109375 0 
z
" id="DejaVuSans-Oblique-57"/>
      <path d="M 30.421875 75.984375 
L 30.421875 -13.1875 
L 9.71875 -13.1875 
L 9.71875 -6.203125 
L 21.390625 -6.203125 
L 21.390625 69 
L 9.71875 69 
L 9.71875 75.984375 
z
" id="DejaVuSans-5d"/>
     </defs>
     <g transform="translate(32.797187 259.53)rotate(-90)scale(0.14 -0.14)">
      <use transform="translate(0 0.684375)" xlink:href="#DejaVuSans-2202"/>
      <use transform="translate(51.708984 0.684375)" xlink:href="#STIXNonUnicode-Italic-e238"/>
      <use transform="translate(121.008972 0.684375)" xlink:href="#DejaVuSans-2f"/>
      <use transform="translate(154.700378 0.684375)" xlink:href="#DejaVuSans-2202"/>
      <use transform="translate(206.409363 0.684375)" xlink:href="#DejaVuSans-Oblique-3bc"/>
      <use transform="translate(274.498556 38.965625)scale(0.7)" xlink:href="#DejaVuSans-Oblique-50"/>
      <use transform="translate(316.71047 27.48125)scale(0.49)" xlink:href="#DejaVuSans-6d"/>
      <use transform="translate(364.442403 27.48125)scale(0.49)" xlink:href="#DejaVuSans-69"/>
      <use transform="translate(378.056173 27.48125)scale(0.49)" xlink:href="#DejaVuSans-6e"/>
      <use transform="translate(270.03241 -26.659375)scale(0.7)" xlink:href="#DejaVuSans-Oblique-6d"/>
      <use transform="translate(413.760274 0.684375)" xlink:href="#DejaVuSans-5b"/>
      <use transform="translate(452.773946 0.684375)" xlink:href="#DejaVuSans-Oblique-57"/>
      <use transform="translate(551.650899 0.684375)" xlink:href="#DejaVuSans-5d"/>
     </g>
    </g>
   </g>
   <g id="line2d_29">
    <path clip-path="url(#p9d2888aacd)" d="M 92.290909 66.96 
L 110.164783 66.96 
L 110.977232 80.806737 
L 112.195905 95.130947 
L 113.820803 110.648842 
L 115.4457 124.177263 
L 116.664373 133.328842 
L 117.476822 136.790526 
L 117.883047 124.177263 
L 118.695495 66.96 
L 126.007535 66.96 
L 126.413759 69.148421 
L 127.226208 75.594316 
L 127.632432 74.082316 
L 128.038657 66.96 
L 134.538247 66.96 
L 134.944472 69.984 
L 135.756921 78.180632 
L 136.163145 77.504211 
L 136.569369 70.541053 
L 136.975594 66.96 
L 142.662735 66.96 
L 143.06896 69.347368 
L 143.475184 72.649895 
L 144.287633 81.920842 
L 144.693857 83.313474 
L 145.100082 79.652842 
L 145.506306 69.506526 
L 145.912531 66.96 
L 150.787224 66.96 
L 151.599672 71.376632 
L 152.412121 80.687368 
L 152.818346 86.337474 
L 153.22457 90.316421 
L 153.630794 90.674526 
L 154.037019 85.86 
L 154.849468 66.96 
L 159.317936 66.96 
L 160.130385 71.774526 
L 160.942834 81.005684 
L 161.755283 91.709053 
L 162.161507 94.693263 
L 162.567731 93.857684 
L 162.973956 87.929053 
L 163.786405 66.96 
L 167.848649 66.96 
L 168.661097 71.774526 
L 169.473546 80.568 
L 170.692219 96.364421 
L 171.098444 98.751789 
L 171.504668 97.160211 
L 171.910893 90.515368 
L 172.723342 66.96 
L 176.785586 66.96 
L 177.19181 69.387158 
L 177.598034 72.968211 
L 178.410483 82.637053 
L 179.629156 98.433474 
L 180.035381 100.422947 
L 180.441605 98.274316 
L 180.84783 91.112211 
L 181.660278 66.96 
L 185.316298 66.96 
L 185.722523 70.023789 
L 186.128747 72.013263 
L 186.941196 80.369053 
L 188.566093 101.099368 
L 188.972318 102.850105 
L 189.378542 100.422947 
L 189.784767 92.902737 
L 190.597215 66.96 
L 194.253235 66.96 
L 195.471908 76.270737 
L 196.690581 91.629474 
L 197.50303 101.736 
L 197.909255 103.287789 
L 198.315479 100.661684 
L 198.721704 92.942526 
L 199.534152 66.96 
L 203.190172 66.96 
L 204.408845 76.509474 
L 205.627518 91.987579 
L 206.439967 102.054316 
L 206.846192 103.566316 
L 207.252416 100.860632 
L 207.65864 93.101684 
L 208.471089 66.96 
L 212.127109 66.96 
L 212.939558 72.610105 
L 213.752007 81.443368 
L 215.376904 102.213474 
L 215.783129 103.685684 
L 216.189353 100.940211 
L 216.595577 93.141474 
L 217.408026 66.96 
L 221.064046 66.96 
L 221.876495 72.610105 
L 222.688943 81.522947 
L 224.313841 102.293053 
L 224.720066 103.765263 
L 225.12629 101.019789 
L 225.532514 93.141474 
L 226.344963 66.96 
L 230.000983 66.96 
L 230.813432 72.649895 
L 231.62588 81.562737 
L 233.250778 102.332842 
L 233.657002 103.805053 
L 234.063227 101.019789 
L 234.469451 93.181263 
L 235.2819 66.96 
L 238.93792 66.96 
L 239.750369 72.649895 
L 240.562817 81.562737 
L 242.187715 102.332842 
L 242.593939 103.805053 
L 243.000164 101.019789 
L 243.406388 93.181263 
L 244.218837 66.96 
L 247.874857 66.96 
L 248.687305 72.649895 
L 249.499754 81.562737 
L 251.124652 102.372632 
L 251.530876 103.805053 
L 251.937101 101.059579 
L 252.343325 93.181263 
L 253.155774 66.96 
L 256.811794 66.96 
L 257.624242 72.649895 
L 258.436691 81.562737 
L 260.061589 102.372632 
L 260.467813 103.805053 
L 260.874038 101.059579 
L 261.280262 93.181263 
L 262.092711 66.96 
L 265.748731 66.96 
L 266.561179 72.649895 
L 267.373628 81.562737 
L 268.998526 102.372632 
L 269.40475 103.805053 
L 269.810975 101.059579 
L 270.217199 93.181263 
L 271.029648 66.96 
L 274.685667 66.96 
L 275.498116 72.649895 
L 276.310565 81.602526 
L 277.935463 102.372632 
L 278.341687 103.805053 
L 278.747912 101.059579 
L 279.154136 93.181263 
L 279.966585 66.96 
L 283.622604 66.96 
L 284.435053 72.649895 
L 285.247502 81.602526 
L 286.8724 102.372632 
L 287.278624 103.805053 
L 287.684848 101.059579 
L 288.091073 93.181263 
L 288.903522 66.96 
L 292.559541 66.96 
L 293.37199 72.649895 
L 294.184439 81.602526 
L 295.809337 102.372632 
L 296.215561 103.805053 
L 296.621785 101.059579 
L 297.02801 93.181263 
L 297.840459 66.96 
L 301.496478 66.96 
L 302.308927 72.649895 
L 303.121376 81.602526 
L 304.746274 102.372632 
L 305.152498 103.805053 
L 305.558722 101.059579 
L 305.964947 93.181263 
L 306.777396 66.96 
L 310.433415 66.96 
L 311.245864 72.649895 
L 312.058313 81.602526 
L 313.68321 102.372632 
L 314.089435 103.805053 
L 314.495659 101.059579 
L 314.901884 93.181263 
L 315.714333 66.96 
L 319.370352 66.96 
L 320.182801 72.649895 
L 320.99525 81.602526 
L 322.620147 102.372632 
L 323.026372 103.805053 
L 323.432596 101.059579 
L 323.838821 93.181263 
L 324.651269 66.96 
L 328.307289 66.96 
L 329.119738 72.649895 
L 329.932187 81.602526 
L 331.557084 102.372632 
L 331.963309 103.805053 
L 332.369533 101.059579 
L 332.775758 93.181263 
L 333.588206 66.96 
L 337.244226 66.96 
L 338.056675 72.649895 
L 338.869124 81.602526 
L 340.494021 102.372632 
L 340.900246 103.805053 
L 341.30647 101.059579 
L 341.712695 93.181263 
L 342.525143 66.96 
L 346.181163 66.96 
L 346.993612 72.649895 
L 347.806061 81.602526 
L 349.430958 102.372632 
L 349.837183 103.805053 
L 350.243407 101.059579 
L 350.649631 93.181263 
L 351.46208 66.96 
L 355.1181 66.96 
L 355.930549 72.649895 
L 356.742998 81.602526 
L 358.367895 102.372632 
L 358.77412 103.805053 
L 359.180344 101.059579 
L 359.586568 93.181263 
L 360.399017 66.96 
L 364.055037 66.96 
L 364.867486 72.649895 
L 365.679934 81.602526 
L 367.304832 102.372632 
L 367.711057 103.805053 
L 368.117281 101.059579 
L 368.523505 93.181263 
L 369.335954 66.96 
L 372.991974 66.96 
L 373.804423 72.649895 
L 374.616871 81.602526 
L 376.241769 102.372632 
L 376.647993 103.805053 
L 377.054218 101.059579 
L 377.460442 93.181263 
L 378.272891 66.96 
L 381.928911 66.96 
L 382.74136 72.649895 
L 383.553808 81.602526 
L 385.178706 102.372632 
L 385.58493 103.805053 
L 385.991155 101.059579 
L 386.397379 93.181263 
L 387.209828 66.96 
L 390.865848 66.96 
L 391.678296 72.649895 
L 392.490745 81.602526 
L 394.115643 102.372632 
L 394.521867 103.805053 
L 394.928092 101.059579 
L 395.334316 93.181263 
L 396.146765 66.96 
L 399.802785 66.96 
L 400.615233 72.649895 
L 401.427682 81.602526 
L 403.05258 102.372632 
L 403.458804 103.805053 
L 403.865029 101.059579 
L 404.271253 93.181263 
L 405.083702 66.96 
L 408.739722 66.96 
L 409.55217 72.649895 
L 410.364619 81.602526 
L 411.989517 102.372632 
L 412.395741 103.805053 
L 412.801966 101.059579 
L 413.20819 93.181263 
L 414.020639 66.96 
L 417.676658 66.96 
L 418.489107 72.649895 
L 419.301556 81.602526 
L 420.926454 102.372632 
L 421.332678 103.805053 
L 421.738903 101.059579 
L 422.145127 93.181263 
L 422.957576 66.96 
L 426.613595 66.96 
L 427.426044 72.649895 
L 428.238493 81.602526 
L 429.863391 102.372632 
L 430.269615 103.805053 
L 430.675839 101.059579 
L 431.082064 93.181263 
L 431.894513 66.96 
L 435.550532 66.96 
L 436.362981 72.649895 
L 437.17543 81.602526 
L 438.800328 102.372632 
L 439.206552 103.805053 
L 439.612776 101.059579 
L 440.019001 93.181263 
L 440.83145 66.96 
L 444.487469 66.96 
L 445.299918 72.649895 
L 446.112367 81.602526 
L 447.737265 102.372632 
L 448.143489 103.805053 
L 448.549713 101.059579 
L 448.955938 93.181263 
L 449.768387 66.96 
L 453.424406 66.96 
L 454.236855 72.649895 
L 455.049304 81.602526 
L 456.674201 102.372632 
L 457.080426 103.805053 
L 457.48665 101.059579 
L 457.892875 93.181263 
L 458.705324 66.96 
L 462.361343 66.96 
L 463.173792 72.649895 
L 463.986241 81.602526 
L 465.611138 102.372632 
L 466.017363 103.805053 
L 466.423587 101.059579 
L 466.829812 93.181263 
L 467.64226 66.96 
L 471.29828 66.96 
L 472.110729 72.649895 
L 472.923178 81.602526 
L 474.548075 102.372632 
L 474.9543 103.805053 
L 475.360524 101.059579 
L 475.766749 93.181263 
L 476.579197 66.96 
L 480.235217 66.96 
L 481.047666 72.649895 
L 481.860115 81.602526 
L 483.485012 102.372632 
L 483.891237 103.805053 
L 484.297461 101.059579 
L 484.703686 93.181263 
L 485.516134 66.96 
L 489.172154 66.96 
L 489.984603 72.649895 
L 490.797052 81.602526 
L 492.421949 102.372632 
L 492.828174 103.805053 
L 493.234398 101.059579 
L 493.640622 93.181263 
L 494.453071 66.96 
L 498.109091 66.96 
L 498.109091 66.96 
" style="fill:none;stroke:#bf00bf;stroke-linecap:square;stroke-width:1.5;"/>
   </g>
   <g id="line2d_30">
    <path clip-path="url(#p9d2888aacd)" d="M 92.290909 66.96 
L 498.109091 66.96 
L 498.109091 66.96 
" style="fill:none;stroke:#00bfbf;stroke-linecap:square;stroke-width:1.5;"/>
   </g>
   <g id="line2d_31">
    <path clip-path="url(#p9d2888aacd)" d="M 92.290909 66.96 
L 92.697133 226.117895 
L 93.103358 66.96 
L 498.109091 66.96 
L 498.109091 66.96 
" style="fill:none;stroke:#ff0000;stroke-linecap:square;stroke-width:1.5;"/>
   </g>
   <g id="line2d_32">
    <path clip-path="url(#p9d2888aacd)" d="M 92.290909 66.96 
L 117.883047 66.96 
L 118.695495 163.011789 
L 119.914169 369.36 
L 121.539066 369.36 
L 121.945291 294.754737 
L 122.75774 218.518105 
L 123.570188 167.189684 
L 124.382637 133.328842 
L 125.195086 111.006947 
L 126.007535 96.523579 
L 126.819984 87.690316 
L 127.226208 88.088211 
L 127.632432 95.409474 
L 128.038657 111.285474 
L 128.444881 136.153895 
L 130.069779 270.324 
L 130.476003 281.345684 
L 130.882228 267.101053 
L 131.694676 199.299789 
L 132.507125 152.268632 
L 133.319574 123.142737 
L 134.132023 104.76 
L 134.944472 93.380211 
L 135.350696 89.600211 
L 135.756921 89.64 
L 136.163145 96.046105 
L 136.569369 110.529474 
L 136.975594 133.567579 
L 137.788043 200.175158 
L 138.600491 263.798526 
L 139.006716 276.332211 
L 139.41294 265.111579 
L 140.225389 200.374105 
L 141.037838 155.014105 
L 141.850287 126.922737 
L 142.662735 109.256211 
L 143.475184 98.274316 
L 143.881409 94.494316 
L 144.287633 93.061895 
L 144.693857 96.523579 
L 145.100082 106.669895 
L 145.506306 124.376211 
L 146.318755 180.001895 
L 147.131204 241.635789 
L 147.537428 259.381895 
L 147.943653 258.546316 
L 149.56855 158.993053 
L 150.380999 131.856632 
L 151.193448 114.866526 
L 152.005897 104.242737 
L 152.818346 97.160211 
L 153.22457 96.921474 
L 153.630794 101.736 
L 154.037019 112.956632 
L 154.443243 131.021053 
L 155.255692 183.742105 
L 156.068141 236.622316 
L 156.474365 248.360211 
L 156.88059 241.357263 
L 158.099263 167.587579 
L 158.911712 138.461684 
L 159.724161 120.397263 
L 160.536609 109.097053 
L 161.349058 101.377895 
L 161.755283 99.070105 
L 162.161507 100.064842 
L 162.567731 106.192421 
L 162.973956 118.368 
L 163.38018 136.790526 
L 165.005078 232.683158 
L 165.411302 239.288211 
L 165.817527 226.873895 
L 166.629975 178.967368 
L 167.442424 146.34 
L 168.254873 126.325895 
L 169.067322 113.871789 
L 169.879771 105.396632 
L 170.285995 101.934947 
L 170.692219 100.144421 
L 171.098444 101.895158 
L 171.504668 108.778737 
L 171.910893 121.511368 
L 172.723342 163.489263 
L 173.53579 213.425053 
L 173.942015 230.454947 
L 174.348239 234.075789 
L 174.754464 218.518105 
L 175.566912 173.396842 
L 176.379361 143.435368 
L 177.19181 125.092421 
L 178.004259 113.593263 
L 178.816708 105.436421 
L 179.222932 102.054316 
L 179.629156 100.582105 
L 180.035381 102.889895 
L 180.441605 110.330526 
L 180.84783 123.620211 
L 181.660278 165.996 
L 182.472727 214.578947 
L 182.878952 230.096842 
L 183.285176 231.688421 
L 183.6914 213.822947 
L 184.503849 170.253474 
L 185.316298 141.883579 
L 186.128747 124.495579 
L 186.941196 113.434105 
L 187.753645 105.476211 
L 188.159869 102.094105 
L 188.566093 100.820842 
L 188.972318 103.367368 
L 189.378542 111.126316 
L 189.784767 124.654737 
L 190.597215 167.229474 
L 191.409664 215.175789 
L 191.815889 229.937684 
L 192.222113 230.534526 
L 193.847011 153.144 
L 194.659459 131.578105 
L 195.471908 118.208842 
L 196.284357 109.097053 
L 197.096806 102.054316 
L 197.50303 100.860632 
L 197.909255 103.606105 
L 198.315479 111.603789 
L 198.721704 125.370947 
L 199.534152 168.264 
L 200.346601 215.931789 
L 200.752826 230.256 
L 201.15905 230.136632 
L 202.783948 152.547158 
L 203.596396 131.299579 
L 204.408845 118.129263 
L 205.221294 109.097053 
L 206.033743 102.054316 
L 206.439967 100.900421 
L 206.846192 103.725474 
L 207.252416 111.762947 
L 207.65864 125.609684 
L 208.471089 168.542526 
L 209.283538 216.051158 
L 209.689762 230.176421 
L 210.095987 229.818316 
L 211.720885 152.268632 
L 212.533333 131.180211 
L 213.345782 118.089474 
L 214.158231 109.097053 
L 214.97068 102.054316 
L 215.376904 100.940211 
L 215.783129 103.805053 
L 216.189353 111.882316 
L 216.595577 125.768842 
L 217.408026 168.741474 
L 218.220475 216.210316 
L 218.626699 230.216211 
L 219.032924 229.738737 
L 220.657821 152.109474 
L 221.47027 131.100632 
L 222.282719 118.049684 
L 223.095168 109.097053 
L 223.907617 102.054316 
L 224.313841 100.940211 
L 224.720066 103.844842 
L 225.12629 111.922105 
L 225.532514 125.848421 
L 226.344963 168.821053 
L 227.157412 216.250105 
L 227.563636 230.216211 
L 227.969861 229.659158 
L 229.594758 152.029895 
L 230.407207 131.100632 
L 231.219656 118.049684 
L 232.032105 109.097053 
L 232.844554 102.054316 
L 233.250778 100.940211 
L 233.657002 103.844842 
L 234.063227 111.961895 
L 234.469451 125.888211 
L 235.2819 168.860842 
L 236.094349 216.250105 
L 236.500573 230.216211 
L 236.906798 229.619368 
L 238.531695 152.029895 
L 239.344144 131.060842 
L 240.156593 118.049684 
L 240.969042 109.057263 
L 241.781491 102.054316 
L 242.187715 100.940211 
L 242.593939 103.844842 
L 243.000164 111.961895 
L 243.406388 125.888211 
L 244.218837 168.900632 
L 245.031286 216.289895 
L 245.43751 230.216211 
L 245.843735 229.619368 
L 247.468632 151.990105 
L 248.281081 131.060842 
L 249.09353 118.049684 
L 249.905979 109.057263 
L 250.718428 102.054316 
L 251.124652 100.940211 
L 251.530876 103.844842 
L 251.937101 112.001684 
L 252.343325 125.928 
L 253.155774 168.900632 
L 253.968223 216.289895 
L 254.374447 230.216211 
L 254.780672 229.579579 
L 256.405569 151.990105 
L 257.218018 131.060842 
L 258.030467 118.049684 
L 258.842916 109.057263 
L 259.655364 102.054316 
L 260.061589 100.98 
L 260.467813 103.844842 
L 260.874038 112.001684 
L 261.280262 125.928 
L 262.092711 168.900632 
L 262.90516 216.289895 
L 263.311384 230.216211 
L 263.717609 229.579579 
L 265.342506 151.990105 
L 266.154955 131.060842 
L 266.967404 118.049684 
L 267.779853 109.057263 
L 268.592301 102.054316 
L 268.998526 100.98 
L 269.40475 103.844842 
L 269.810975 112.001684 
L 270.217199 125.928 
L 271.029648 168.900632 
L 271.842097 216.289895 
L 272.248321 230.216211 
L 272.654545 229.579579 
L 274.279443 151.990105 
L 275.091892 131.060842 
L 275.904341 118.049684 
L 276.71679 109.057263 
L 277.529238 102.054316 
L 277.935463 100.98 
L 278.341687 103.844842 
L 278.747912 112.001684 
L 279.154136 125.928 
L 279.966585 168.900632 
L 280.779034 216.289895 
L 281.185258 230.216211 
L 281.591482 229.579579 
L 283.21638 151.990105 
L 284.028829 131.060842 
L 284.841278 118.049684 
L 285.653726 109.057263 
L 286.466175 102.054316 
L 286.8724 100.98 
L 287.278624 103.844842 
L 287.684848 112.001684 
L 288.091073 125.928 
L 288.903522 168.900632 
L 289.715971 216.289895 
L 290.122195 230.216211 
L 290.528419 229.579579 
L 292.153317 151.990105 
L 292.965766 131.060842 
L 293.778215 118.049684 
L 294.590663 109.057263 
L 295.403112 102.054316 
L 295.809337 100.98 
L 296.215561 103.844842 
L 296.621785 112.001684 
L 297.02801 125.928 
L 297.840459 168.900632 
L 298.652907 216.289895 
L 299.059132 230.216211 
L 299.465356 229.579579 
L 301.090254 151.990105 
L 301.902703 131.060842 
L 302.715152 118.049684 
L 303.5276 109.057263 
L 304.340049 102.054316 
L 304.746274 100.98 
L 305.152498 103.844842 
L 305.558722 112.001684 
L 305.964947 125.928 
L 306.777396 168.900632 
L 307.589844 216.289895 
L 307.996069 230.216211 
L 308.402293 229.579579 
L 310.027191 151.990105 
L 310.83964 131.060842 
L 311.652088 118.049684 
L 312.464537 109.057263 
L 313.276986 102.054316 
L 313.68321 100.98 
L 314.089435 103.844842 
L 314.495659 112.001684 
L 314.901884 125.928 
L 315.714333 168.900632 
L 316.526781 216.289895 
L 316.933006 230.216211 
L 317.33923 229.579579 
L 318.964128 151.990105 
L 319.776577 131.060842 
L 320.589025 118.049684 
L 321.401474 109.057263 
L 322.213923 102.054316 
L 322.620147 100.98 
L 323.026372 103.844842 
L 323.432596 112.001684 
L 323.838821 125.928 
L 324.651269 168.900632 
L 325.463718 216.289895 
L 325.869943 230.216211 
L 326.276167 229.579579 
L 327.901065 151.990105 
L 328.713514 131.060842 
L 329.525962 118.049684 
L 330.338411 109.057263 
L 331.15086 102.054316 
L 331.557084 100.98 
L 331.963309 103.844842 
L 332.369533 112.001684 
L 332.775758 125.928 
L 333.588206 168.900632 
L 334.400655 216.289895 
L 334.80688 230.216211 
L 335.213104 229.579579 
L 336.838002 151.990105 
L 337.65045 131.060842 
L 338.462899 118.049684 
L 339.275348 109.057263 
L 340.087797 102.054316 
L 340.494021 100.98 
L 340.900246 103.844842 
L 341.30647 112.001684 
L 341.712695 125.928 
L 342.525143 168.900632 
L 343.337592 216.289895 
L 343.743817 230.216211 
L 344.150041 229.579579 
L 345.774939 151.990105 
L 346.587387 131.060842 
L 347.399836 118.049684 
L 348.212285 109.057263 
L 349.024734 102.054316 
L 349.430958 100.98 
L 349.837183 103.844842 
L 350.243407 112.001684 
L 350.649631 125.928 
L 351.46208 168.900632 
L 352.274529 216.289895 
L 352.680753 230.216211 
L 353.086978 229.579579 
L 354.711876 151.990105 
L 355.524324 131.060842 
L 356.336773 118.049684 
L 357.149222 109.057263 
L 357.961671 102.054316 
L 358.367895 100.98 
L 358.77412 103.844842 
L 359.180344 112.001684 
L 359.586568 125.928 
L 360.399017 168.900632 
L 361.211466 216.289895 
L 361.61769 230.216211 
L 362.023915 229.579579 
L 363.648812 151.990105 
L 364.461261 131.060842 
L 365.27371 118.049684 
L 366.086159 109.057263 
L 366.898608 102.054316 
L 367.304832 100.98 
L 367.711057 103.844842 
L 368.117281 112.001684 
L 368.523505 125.928 
L 369.335954 168.900632 
L 370.148403 216.289895 
L 370.554627 230.216211 
L 370.960852 229.579579 
L 372.585749 151.990105 
L 373.398198 131.060842 
L 374.210647 118.049684 
L 375.023096 109.057263 
L 375.835545 102.054316 
L 376.241769 100.98 
L 376.647993 103.844842 
L 377.054218 112.001684 
L 377.460442 125.928 
L 378.272891 168.900632 
L 379.08534 216.289895 
L 379.491564 230.216211 
L 379.897789 229.579579 
L 381.522686 151.990105 
L 382.335135 131.060842 
L 383.147584 118.049684 
L 383.960033 109.057263 
L 384.772482 102.054316 
L 385.178706 100.98 
L 385.58493 103.844842 
L 385.991155 112.001684 
L 386.397379 125.928 
L 387.209828 168.900632 
L 388.022277 216.289895 
L 388.428501 230.216211 
L 388.834726 229.579579 
L 390.459623 151.990105 
L 391.272072 131.060842 
L 392.084521 118.049684 
L 392.89697 109.057263 
L 393.709419 102.054316 
L 394.115643 100.98 
L 394.521867 103.844842 
L 394.928092 112.001684 
L 395.334316 125.928 
L 396.146765 168.900632 
L 396.959214 216.289895 
L 397.365438 230.216211 
L 397.771663 229.579579 
L 399.39656 151.990105 
L 400.209009 131.060842 
L 401.021458 118.049684 
L 401.833907 109.057263 
L 402.646355 102.054316 
L 403.05258 100.98 
L 403.458804 103.844842 
L 403.865029 112.001684 
L 404.271253 125.928 
L 405.083702 168.900632 
L 405.896151 216.289895 
L 406.302375 230.216211 
L 406.7086 229.579579 
L 408.333497 151.990105 
L 409.145946 131.060842 
L 409.958395 118.049684 
L 410.770844 109.057263 
L 411.583292 102.054316 
L 411.989517 100.98 
L 412.395741 103.844842 
L 412.801966 112.001684 
L 413.20819 125.928 
L 414.020639 168.900632 
L 414.833088 216.289895 
L 415.239312 230.216211 
L 415.645536 229.579579 
L 417.270434 151.990105 
L 418.082883 131.060842 
L 418.895332 118.049684 
L 419.707781 109.057263 
L 420.520229 102.054316 
L 420.926454 100.98 
L 421.332678 103.844842 
L 421.738903 112.001684 
L 422.145127 125.928 
L 422.957576 168.900632 
L 423.770025 216.289895 
L 424.176249 230.216211 
L 424.582473 229.579579 
L 426.207371 151.990105 
L 427.01982 131.060842 
L 427.832269 118.049684 
L 428.644717 109.057263 
L 429.457166 102.054316 
L 429.863391 100.98 
L 430.269615 103.844842 
L 430.675839 112.001684 
L 431.082064 125.928 
L 431.894513 168.900632 
L 432.706962 216.289895 
L 433.113186 230.216211 
L 433.51941 229.579579 
L 435.144308 151.990105 
L 435.956757 131.060842 
L 436.769206 118.049684 
L 437.581654 109.057263 
L 438.394103 102.054316 
L 438.800328 100.98 
L 439.206552 103.844842 
L 439.612776 112.001684 
L 440.019001 125.928 
L 440.83145 168.900632 
L 441.643898 216.289895 
L 442.050123 230.216211 
L 442.456347 229.579579 
L 444.081245 151.990105 
L 444.893694 131.060842 
L 445.706143 118.049684 
L 446.518591 109.057263 
L 447.33104 102.054316 
L 447.737265 100.98 
L 448.143489 103.844842 
L 448.549713 112.001684 
L 448.955938 125.928 
L 449.768387 168.900632 
L 450.580835 216.289895 
L 450.98706 230.216211 
L 451.393284 229.579579 
L 453.018182 151.990105 
L 453.830631 131.060842 
L 454.643079 118.049684 
L 455.455528 109.057263 
L 456.267977 102.054316 
L 456.674201 100.98 
L 457.080426 103.844842 
L 457.48665 112.001684 
L 457.892875 125.928 
L 458.705324 168.900632 
L 459.517772 216.289895 
L 459.923997 230.216211 
L 460.330221 229.579579 
L 461.955119 151.990105 
L 462.767568 131.060842 
L 463.580016 118.049684 
L 464.392465 109.057263 
L 465.204914 102.054316 
L 465.611138 100.98 
L 466.017363 103.844842 
L 466.423587 112.001684 
L 466.829812 125.928 
L 467.64226 168.900632 
L 468.454709 216.289895 
L 468.860934 230.216211 
L 469.267158 229.579579 
L 470.892056 151.990105 
L 471.704505 131.060842 
L 472.516953 118.049684 
L 473.329402 109.057263 
L 474.141851 102.054316 
L 474.548075 100.98 
L 474.9543 103.844842 
L 475.360524 112.001684 
L 475.766749 125.928 
L 476.579197 168.900632 
L 477.391646 216.289895 
L 477.797871 230.216211 
L 478.204095 229.579579 
L 479.828993 151.990105 
L 480.641441 131.060842 
L 481.45389 118.049684 
L 482.266339 109.057263 
L 483.078788 102.054316 
L 483.485012 100.98 
L 483.891237 103.844842 
L 484.297461 112.001684 
L 484.703686 125.928 
L 485.516134 168.900632 
L 486.328583 216.289895 
L 486.734808 230.216211 
L 487.141032 229.579579 
L 488.76593 151.990105 
L 489.578378 131.060842 
L 490.390827 118.049684 
L 491.203276 109.057263 
L 492.015725 102.054316 
L 492.421949 100.98 
L 492.828174 103.844842 
L 493.234398 112.001684 
L 493.640622 125.928 
L 494.453071 168.900632 
L 495.26552 216.289895 
L 495.671744 230.216211 
L 496.077969 229.579579 
L 497.702867 151.990105 
L 498.109091 140.252211 
L 498.109091 140.252211 
" style="fill:none;stroke:#008000;stroke-linecap:square;stroke-width:1.5;"/>
   </g>
   <g id="patch_3">
    <path d="M 72 384.48 
L 72 51.84 
" style="fill:none;stroke:#000000;stroke-linecap:square;stroke-linejoin:miter;stroke-width:0.8;"/>
   </g>
   <g id="patch_4">
    <path d="M 518.4 384.48 
L 518.4 51.84 
" style="fill:none;stroke:#000000;stroke-linecap:square;stroke-linejoin:miter;stroke-width:0.8;"/>
   </g>
   <g id="patch_5">
    <path d="M 72 384.48 
L 518.4 384.48 
" style="fill:none;stroke:#000000;stroke-linecap:square;stroke-linejoin:miter;stroke-width:0.8;"/>
   </g>
   <g id="patch_6">
    <path d="M 72 51.84 
L 518.4 51.84 
" style="fill:none;stroke:#000000;stroke-linecap:square;stroke-linejoin:miter;stroke-width:0.8;"/>
   </g>
   <g id="text_17">
    <!-- $\partial \mathcal{L}/ \partial \mu^{P_{\mathrm{min}}}_{m}$ -->
    <g transform="translate(266.22 45.84)scale(0.14 -0.14)">
     <use transform="translate(0 0.684375)" xlink:href="#DejaVuSans-2202"/>
     <use transform="translate(51.708984 0.684375)" xlink:href="#STIXNonUnicode-Italic-e238"/>
     <use transform="translate(121.008972 0.684375)" xlink:href="#DejaVuSans-2f"/>
     <use transform="translate(154.700378 0.684375)" xlink:href="#DejaVuSans-2202"/>
     <use transform="translate(206.409363 0.684375)" xlink:href="#DejaVuSans-Oblique-3bc"/>
     <use transform="translate(274.498556 38.965625)scale(0.7)" xlink:href="#DejaVuSans-Oblique-50"/>
     <use transform="translate(316.71047 27.48125)scale(0.49)" xlink:href="#DejaVuSans-6d"/>
     <use transform="translate(364.442403 27.48125)scale(0.49)" xlink:href="#DejaVuSans-69"/>
     <use transform="translate(378.056173 27.48125)scale(0.49)" xlink:href="#DejaVuSans-6e"/>
     <use transform="translate(270.03241 -26.659375)scale(0.7)" xlink:href="#DejaVuSans-Oblique-6d"/>
    </g>
   </g>
   <g id="legend_1">
    <g id="patch_7">
     <path d="M 438 379.48 
L 511.4 379.48 
Q 513.4 379.48 513.4 377.48 
L 513.4 307.38 
Q 513.4 305.38 511.4 305.38 
L 438 305.38 
Q 436 305.38 436 307.38 
L 436 377.48 
Q 436 379.48 438 379.48 
z
" style="fill:#ffffff;opacity:0.8;stroke:#cccccc;stroke-linejoin:miter;"/>
    </g>
    <g id="line2d_33">
     <path d="M 440 315.78 
L 460 315.78 
" style="fill:none;stroke:#bf00bf;stroke-linecap:square;stroke-width:1.5;"/>
    </g>
    <g id="line2d_34"/>
    <g id="text_18">
     <!-- $\partial \mathcal{L}/ \partial \mu^{P_{\mathrm{min}}}_{1}$ -->
     <g transform="translate(468 319.28)scale(0.1 -0.1)">
      <use transform="translate(0 0.290625)" xlink:href="#DejaVuSans-2202"/>
      <use transform="translate(51.708984 0.290625)" xlink:href="#STIXNonUnicode-Italic-e238"/>
      <use transform="translate(121.008972 0.290625)" xlink:href="#DejaVuSans-2f"/>
      <use transform="translate(154.700378 0.290625)" xlink:href="#DejaVuSans-2202"/>
      <use transform="translate(206.409363 0.290625)" xlink:href="#DejaVuSans-Oblique-3bc"/>
      <use transform="translate(274.498556 47.965625)scale(0.7)" xlink:href="#DejaVuSans-Oblique-50"/>
      <use transform="translate(316.71047 36.48125)scale(0.49)" xlink:href="#DejaVuSans-6d"/>
      <use transform="translate(364.442403 36.48125)scale(0.49)" xlink:href="#DejaVuSans-69"/>
      <use transform="translate(378.056173 36.48125)scale(0.49)" xlink:href="#DejaVuSans-6e"/>
      <use transform="translate(270.03241 -27.053125)scale(0.7)" xlink:href="#DejaVuSans-31"/>
     </g>
    </g>
    <g id="line2d_35">
     <path d="M 440 333.58 
L 460 333.58 
" style="fill:none;stroke:#00bfbf;stroke-linecap:square;stroke-width:1.5;"/>
    </g>
    <g id="line2d_36"/>
    <g id="text_19">
     <!-- $\partial \mathcal{L}/ \partial \mu^{P_{\mathrm{min}}}_{2}$ -->
     <g transform="translate(468 337.08)scale(0.1 -0.1)">
      <use transform="translate(0 0.371875)" xlink:href="#DejaVuSans-2202"/>
      <use transform="translate(51.708984 0.371875)" xlink:href="#STIXNonUnicode-Italic-e238"/>
      <use transform="translate(121.008972 0.371875)" xlink:href="#DejaVuSans-2f"/>
      <use transform="translate(154.700378 0.371875)" xlink:href="#DejaVuSans-2202"/>
      <use transform="translate(206.409363 0.371875)" xlink:href="#DejaVuSans-Oblique-3bc"/>
      <use transform="translate(274.498556 48.965625)scale(0.7)" xlink:href="#DejaVuSans-Oblique-50"/>
      <use transform="translate(316.71047 37.48125)scale(0.49)" xlink:href="#DejaVuSans-6d"/>
      <use transform="translate(364.442403 37.48125)scale(0.49)" xlink:href="#DejaVuSans-69"/>
      <use transform="translate(378.056173 37.48125)scale(0.49)" xlink:href="#DejaVuSans-6e"/>
      <use transform="translate(270.03241 -26.971875)scale(0.7)" xlink:href="#DejaVuSans-32"/>
     </g>
    </g>
    <g id="line2d_37">
     <path d="M 440 351.38 
L 460 351.38 
" style="fill:none;stroke:#ff0000;stroke-linecap:square;stroke-width:1.5;"/>
    </g>
    <g id="line2d_38"/>
    <g id="text_20">
     <!-- $\partial \mathcal{L}/ \partial \mu^{P_{\mathrm{min}}}_{3}$ -->
     <g transform="translate(468 354.88)scale(0.1 -0.1)">
      <use transform="translate(0 0.371875)" xlink:href="#DejaVuSans-2202"/>
      <use transform="translate(51.708984 0.371875)" xlink:href="#STIXNonUnicode-Italic-e238"/>
      <use transform="translate(121.008972 0.371875)" xlink:href="#DejaVuSans-2f"/>
      <use transform="translate(154.700378 0.371875)" xlink:href="#DejaVuSans-2202"/>
      <use transform="translate(206.409363 0.371875)" xlink:href="#DejaVuSans-Oblique-3bc"/>
      <use transform="translate(274.498556 48.965625)scale(0.7)" xlink:href="#DejaVuSans-Oblique-50"/>
      <use transform="translate(316.71047 37.48125)scale(0.49)" xlink:href="#DejaVuSans-6d"/>
      <use transform="translate(364.442403 37.48125)scale(0.49)" xlink:href="#DejaVuSans-69"/>
      <use transform="translate(378.056173 37.48125)scale(0.49)" xlink:href="#DejaVuSans-6e"/>
      <use transform="translate(270.03241 -26.971875)scale(0.7)" xlink:href="#DejaVuSans-33"/>
     </g>
    </g>
    <g id="line2d_39">
     <path d="M 440 369.18 
L 460 369.18 
" style="fill:none;stroke:#008000;stroke-linecap:square;stroke-width:1.5;"/>
    </g>
    <g id="line2d_40"/>
    <g id="text_21">
     <!-- $\partial \mathcal{L}/ \partial \mu^{P_{\mathrm{min}}}_{4}$ -->
     <g transform="translate(468 372.68)scale(0.1 -0.1)">
      <use transform="translate(0 0.290625)" xlink:href="#DejaVuSans-2202"/>
      <use transform="translate(51.708984 0.290625)" xlink:href="#STIXNonUnicode-Italic-e238"/>
      <use transform="translate(121.008972 0.290625)" xlink:href="#DejaVuSans-2f"/>
      <use transform="translate(154.700378 0.290625)" xlink:href="#DejaVuSans-2202"/>
      <use transform="translate(206.409363 0.290625)" xlink:href="#DejaVuSans-Oblique-3bc"/>
      <use transform="translate(274.498556 47.965625)scale(0.7)" xlink:href="#DejaVuSans-Oblique-50"/>
      <use transform="translate(316.71047 36.48125)scale(0.49)" xlink:href="#DejaVuSans-6d"/>
      <use transform="translate(364.442403 36.48125)scale(0.49)" xlink:href="#DejaVuSans-69"/>
      <use transform="translate(378.056173 36.48125)scale(0.49)" xlink:href="#DejaVuSans-6e"/>
      <use transform="translate(270.03241 -27.053125)scale(0.7)" xlink:href="#DejaVuSans-34"/>
     </g>
    </g>
   </g>
  </g>
 </g>
 <defs>
  <clipPath id="p9d2888aacd">
   <rect height="332.64" width="446.4" x="72" y="51.84"/>
  </clipPath>
 </defs>
</svg>
