<?xml version="1.0" encoding="utf-8" standalone="no"?>
<!DOCTYPE svg PUBLIC "-//W3C//DTD SVG 1.1//EN"
  "http://www.w3.org/Graphics/SVG/1.1/DTD/svg11.dtd">
<!-- Created with matplotlib (http://matplotlib.org/) -->
<svg height="432pt" version="1.1" viewBox="0 0 576 432" width="576pt" xmlns="http://www.w3.org/2000/svg" xmlns:xlink="http://www.w3.org/1999/xlink">
 <defs>
  <style type="text/css">
*{stroke-linecap:butt;stroke-linejoin:round;}
  </style>
 </defs>
 <g id="figure_1">
  <g id="patch_1">
   <path d="M 0 432 
L 576 432 
L 576 0 
L 0 0 
z
" style="fill:#ffffff;"/>
  </g>
  <g id="axes_1">
   <g id="patch_2">
    <path d="M 72 384.48 
L 518.4 384.48 
L 518.4 51.84 
L 72 51.84 
z
" style="fill:#ffffff;"/>
   </g>
   <g id="matplotlib.axis_1">
    <g id="xtick_1">
     <g id="line2d_1">
      <path clip-path="url(#p3c9accdb8f)" d="M 92.290909 384.48 
L 92.290909 51.84 
" style="fill:none;stroke:#b0b0b0;stroke-dasharray:5.12,1.28,0.8,1.28;stroke-dashoffset:0;stroke-width:0.8;"/>
     </g>
     <g id="line2d_2">
      <defs>
       <path d="M 0 0 
L 0 3.5 
" id="m0b5212a0e9" style="stroke:#000000;stroke-width:0.8;"/>
      </defs>
      <g>
       <use style="stroke:#000000;stroke-width:0.8;" x="92.290909" xlink:href="#m0b5212a0e9" y="384.48"/>
      </g>
     </g>
     <g id="text_1">
      <!-- 0 -->
      <defs>
       <path d="M 31.78125 66.40625 
Q 24.171875 66.40625 20.328125 58.90625 
Q 16.5 51.421875 16.5 36.375 
Q 16.5 21.390625 20.328125 13.890625 
Q 24.171875 6.390625 31.78125 6.390625 
Q 39.453125 6.390625 43.28125 13.890625 
Q 47.125 21.390625 47.125 36.375 
Q 47.125 51.421875 43.28125 58.90625 
Q 39.453125 66.40625 31.78125 66.40625 
z
M 31.78125 74.21875 
Q 44.046875 74.21875 50.515625 64.515625 
Q 56.984375 54.828125 56.984375 36.375 
Q 56.984375 17.96875 50.515625 8.265625 
Q 44.046875 -1.421875 31.78125 -1.421875 
Q 19.53125 -1.421875 13.0625 8.265625 
Q 6.59375 17.96875 6.59375 36.375 
Q 6.59375 54.828125 13.0625 64.515625 
Q 19.53125 74.21875 31.78125 74.21875 
z
" id="DejaVuSans-30"/>
      </defs>
      <g transform="translate(89.109659 399.078438)scale(0.1 -0.1)">
       <use xlink:href="#DejaVuSans-30"/>
      </g>
     </g>
    </g>
    <g id="xtick_2">
     <g id="line2d_3">
      <path clip-path="url(#p3c9accdb8f)" d="M 174.27438 384.48 
L 174.27438 51.84 
" style="fill:none;stroke:#b0b0b0;stroke-dasharray:5.12,1.28,0.8,1.28;stroke-dashoffset:0;stroke-width:0.8;"/>
     </g>
     <g id="line2d_4">
      <g>
       <use style="stroke:#000000;stroke-width:0.8;" x="174.27438" xlink:href="#m0b5212a0e9" y="384.48"/>
      </g>
     </g>
     <g id="text_2">
      <!-- 20 -->
      <defs>
       <path d="M 19.1875 8.296875 
L 53.609375 8.296875 
L 53.609375 0 
L 7.328125 0 
L 7.328125 8.296875 
Q 12.9375 14.109375 22.625 23.890625 
Q 32.328125 33.6875 34.8125 36.53125 
Q 39.546875 41.84375 41.421875 45.53125 
Q 43.3125 49.21875 43.3125 52.78125 
Q 43.3125 58.59375 39.234375 62.25 
Q 35.15625 65.921875 28.609375 65.921875 
Q 23.96875 65.921875 18.8125 64.3125 
Q 13.671875 62.703125 7.8125 59.421875 
L 7.8125 69.390625 
Q 13.765625 71.78125 18.9375 73 
Q 24.125 74.21875 28.421875 74.21875 
Q 39.75 74.21875 46.484375 68.546875 
Q 53.21875 62.890625 53.21875 53.421875 
Q 53.21875 48.921875 51.53125 44.890625 
Q 49.859375 40.875 45.40625 35.40625 
Q 44.1875 33.984375 37.640625 27.21875 
Q 31.109375 20.453125 19.1875 8.296875 
z
" id="DejaVuSans-32"/>
      </defs>
      <g transform="translate(167.91188 399.078438)scale(0.1 -0.1)">
       <use xlink:href="#DejaVuSans-32"/>
       <use x="63.623047" xlink:href="#DejaVuSans-30"/>
      </g>
     </g>
    </g>
    <g id="xtick_3">
     <g id="line2d_5">
      <path clip-path="url(#p3c9accdb8f)" d="M 256.257851 384.48 
L 256.257851 51.84 
" style="fill:none;stroke:#b0b0b0;stroke-dasharray:5.12,1.28,0.8,1.28;stroke-dashoffset:0;stroke-width:0.8;"/>
     </g>
     <g id="line2d_6">
      <g>
       <use style="stroke:#000000;stroke-width:0.8;" x="256.257851" xlink:href="#m0b5212a0e9" y="384.48"/>
      </g>
     </g>
     <g id="text_3">
      <!-- 40 -->
      <defs>
       <path d="M 37.796875 64.3125 
L 12.890625 25.390625 
L 37.796875 25.390625 
z
M 35.203125 72.90625 
L 47.609375 72.90625 
L 47.609375 25.390625 
L 58.015625 25.390625 
L 58.015625 17.1875 
L 47.609375 17.1875 
L 47.609375 0 
L 37.796875 0 
L 37.796875 17.1875 
L 4.890625 17.1875 
L 4.890625 26.703125 
z
" id="DejaVuSans-34"/>
      </defs>
      <g transform="translate(249.895351 399.078438)scale(0.1 -0.1)">
       <use xlink:href="#DejaVuSans-34"/>
       <use x="63.623047" xlink:href="#DejaVuSans-30"/>
      </g>
     </g>
    </g>
    <g id="xtick_4">
     <g id="line2d_7">
      <path clip-path="url(#p3c9accdb8f)" d="M 338.241322 384.48 
L 338.241322 51.84 
" style="fill:none;stroke:#b0b0b0;stroke-dasharray:5.12,1.28,0.8,1.28;stroke-dashoffset:0;stroke-width:0.8;"/>
     </g>
     <g id="line2d_8">
      <g>
       <use style="stroke:#000000;stroke-width:0.8;" x="338.241322" xlink:href="#m0b5212a0e9" y="384.48"/>
      </g>
     </g>
     <g id="text_4">
      <!-- 60 -->
      <defs>
       <path d="M 33.015625 40.375 
Q 26.375 40.375 22.484375 35.828125 
Q 18.609375 31.296875 18.609375 23.390625 
Q 18.609375 15.53125 22.484375 10.953125 
Q 26.375 6.390625 33.015625 6.390625 
Q 39.65625 6.390625 43.53125 10.953125 
Q 47.40625 15.53125 47.40625 23.390625 
Q 47.40625 31.296875 43.53125 35.828125 
Q 39.65625 40.375 33.015625 40.375 
z
M 52.59375 71.296875 
L 52.59375 62.3125 
Q 48.875 64.0625 45.09375 64.984375 
Q 41.3125 65.921875 37.59375 65.921875 
Q 27.828125 65.921875 22.671875 59.328125 
Q 17.53125 52.734375 16.796875 39.40625 
Q 19.671875 43.65625 24.015625 45.921875 
Q 28.375 48.1875 33.59375 48.1875 
Q 44.578125 48.1875 50.953125 41.515625 
Q 57.328125 34.859375 57.328125 23.390625 
Q 57.328125 12.15625 50.6875 5.359375 
Q 44.046875 -1.421875 33.015625 -1.421875 
Q 20.359375 -1.421875 13.671875 8.265625 
Q 6.984375 17.96875 6.984375 36.375 
Q 6.984375 53.65625 15.1875 63.9375 
Q 23.390625 74.21875 37.203125 74.21875 
Q 40.921875 74.21875 44.703125 73.484375 
Q 48.484375 72.75 52.59375 71.296875 
z
" id="DejaVuSans-36"/>
      </defs>
      <g transform="translate(331.878822 399.078438)scale(0.1 -0.1)">
       <use xlink:href="#DejaVuSans-36"/>
       <use x="63.623047" xlink:href="#DejaVuSans-30"/>
      </g>
     </g>
    </g>
    <g id="xtick_5">
     <g id="line2d_9">
      <path clip-path="url(#p3c9accdb8f)" d="M 420.224793 384.48 
L 420.224793 51.84 
" style="fill:none;stroke:#b0b0b0;stroke-dasharray:5.12,1.28,0.8,1.28;stroke-dashoffset:0;stroke-width:0.8;"/>
     </g>
     <g id="line2d_10">
      <g>
       <use style="stroke:#000000;stroke-width:0.8;" x="420.224793" xlink:href="#m0b5212a0e9" y="384.48"/>
      </g>
     </g>
     <g id="text_5">
      <!-- 80 -->
      <defs>
       <path d="M 31.78125 34.625 
Q 24.75 34.625 20.71875 30.859375 
Q 16.703125 27.09375 16.703125 20.515625 
Q 16.703125 13.921875 20.71875 10.15625 
Q 24.75 6.390625 31.78125 6.390625 
Q 38.8125 6.390625 42.859375 10.171875 
Q 46.921875 13.96875 46.921875 20.515625 
Q 46.921875 27.09375 42.890625 30.859375 
Q 38.875 34.625 31.78125 34.625 
z
M 21.921875 38.8125 
Q 15.578125 40.375 12.03125 44.71875 
Q 8.5 49.078125 8.5 55.328125 
Q 8.5 64.0625 14.71875 69.140625 
Q 20.953125 74.21875 31.78125 74.21875 
Q 42.671875 74.21875 48.875 69.140625 
Q 55.078125 64.0625 55.078125 55.328125 
Q 55.078125 49.078125 51.53125 44.71875 
Q 48 40.375 41.703125 38.8125 
Q 48.828125 37.15625 52.796875 32.3125 
Q 56.78125 27.484375 56.78125 20.515625 
Q 56.78125 9.90625 50.3125 4.234375 
Q 43.84375 -1.421875 31.78125 -1.421875 
Q 19.734375 -1.421875 13.25 4.234375 
Q 6.78125 9.90625 6.78125 20.515625 
Q 6.78125 27.484375 10.78125 32.3125 
Q 14.796875 37.15625 21.921875 38.8125 
z
M 18.3125 54.390625 
Q 18.3125 48.734375 21.84375 45.5625 
Q 25.390625 42.390625 31.78125 42.390625 
Q 38.140625 42.390625 41.71875 45.5625 
Q 45.3125 48.734375 45.3125 54.390625 
Q 45.3125 60.0625 41.71875 63.234375 
Q 38.140625 66.40625 31.78125 66.40625 
Q 25.390625 66.40625 21.84375 63.234375 
Q 18.3125 60.0625 18.3125 54.390625 
z
" id="DejaVuSans-38"/>
      </defs>
      <g transform="translate(413.862293 399.078438)scale(0.1 -0.1)">
       <use xlink:href="#DejaVuSans-38"/>
       <use x="63.623047" xlink:href="#DejaVuSans-30"/>
      </g>
     </g>
    </g>
    <g id="xtick_6">
     <g id="line2d_11">
      <path clip-path="url(#p3c9accdb8f)" d="M 502.208264 384.48 
L 502.208264 51.84 
" style="fill:none;stroke:#b0b0b0;stroke-dasharray:5.12,1.28,0.8,1.28;stroke-dashoffset:0;stroke-width:0.8;"/>
     </g>
     <g id="line2d_12">
      <g>
       <use style="stroke:#000000;stroke-width:0.8;" x="502.208264" xlink:href="#m0b5212a0e9" y="384.48"/>
      </g>
     </g>
     <g id="text_6">
      <!-- 100 -->
      <defs>
       <path d="M 12.40625 8.296875 
L 28.515625 8.296875 
L 28.515625 63.921875 
L 10.984375 60.40625 
L 10.984375 69.390625 
L 28.421875 72.90625 
L 38.28125 72.90625 
L 38.28125 8.296875 
L 54.390625 8.296875 
L 54.390625 0 
L 12.40625 0 
z
" id="DejaVuSans-31"/>
      </defs>
      <g transform="translate(492.664514 399.078438)scale(0.1 -0.1)">
       <use xlink:href="#DejaVuSans-31"/>
       <use x="63.623047" xlink:href="#DejaVuSans-30"/>
       <use x="127.246094" xlink:href="#DejaVuSans-30"/>
      </g>
     </g>
    </g>
    <g id="text_7">
     <!-- Iteration -->
     <defs>
      <path d="M 9.8125 72.90625 
L 19.671875 72.90625 
L 19.671875 0 
L 9.8125 0 
z
" id="DejaVuSans-49"/>
      <path d="M 18.3125 70.21875 
L 18.3125 54.6875 
L 36.8125 54.6875 
L 36.8125 47.703125 
L 18.3125 47.703125 
L 18.3125 18.015625 
Q 18.3125 11.328125 20.140625 9.421875 
Q 21.96875 7.515625 27.59375 7.515625 
L 36.8125 7.515625 
L 36.8125 0 
L 27.59375 0 
Q 17.1875 0 13.234375 3.875 
Q 9.28125 7.765625 9.28125 18.015625 
L 9.28125 47.703125 
L 2.6875 47.703125 
L 2.6875 54.6875 
L 9.28125 54.6875 
L 9.28125 70.21875 
z
" id="DejaVuSans-74"/>
      <path d="M 56.203125 29.59375 
L 56.203125 25.203125 
L 14.890625 25.203125 
Q 15.484375 15.921875 20.484375 11.0625 
Q 25.484375 6.203125 34.421875 6.203125 
Q 39.59375 6.203125 44.453125 7.46875 
Q 49.3125 8.734375 54.109375 11.28125 
L 54.109375 2.78125 
Q 49.265625 0.734375 44.1875 -0.34375 
Q 39.109375 -1.421875 33.890625 -1.421875 
Q 20.796875 -1.421875 13.15625 6.1875 
Q 5.515625 13.8125 5.515625 26.8125 
Q 5.515625 40.234375 12.765625 48.109375 
Q 20.015625 56 32.328125 56 
Q 43.359375 56 49.78125 48.890625 
Q 56.203125 41.796875 56.203125 29.59375 
z
M 47.21875 32.234375 
Q 47.125 39.59375 43.09375 43.984375 
Q 39.0625 48.390625 32.421875 48.390625 
Q 24.90625 48.390625 20.390625 44.140625 
Q 15.875 39.890625 15.1875 32.171875 
z
" id="DejaVuSans-65"/>
      <path d="M 41.109375 46.296875 
Q 39.59375 47.171875 37.8125 47.578125 
Q 36.03125 48 33.890625 48 
Q 26.265625 48 22.1875 43.046875 
Q 18.109375 38.09375 18.109375 28.8125 
L 18.109375 0 
L 9.078125 0 
L 9.078125 54.6875 
L 18.109375 54.6875 
L 18.109375 46.1875 
Q 20.953125 51.171875 25.484375 53.578125 
Q 30.03125 56 36.53125 56 
Q 37.453125 56 38.578125 55.875 
Q 39.703125 55.765625 41.0625 55.515625 
z
" id="DejaVuSans-72"/>
      <path d="M 34.28125 27.484375 
Q 23.390625 27.484375 19.1875 25 
Q 14.984375 22.515625 14.984375 16.5 
Q 14.984375 11.71875 18.140625 8.90625 
Q 21.296875 6.109375 26.703125 6.109375 
Q 34.1875 6.109375 38.703125 11.40625 
Q 43.21875 16.703125 43.21875 25.484375 
L 43.21875 27.484375 
z
M 52.203125 31.203125 
L 52.203125 0 
L 43.21875 0 
L 43.21875 8.296875 
Q 40.140625 3.328125 35.546875 0.953125 
Q 30.953125 -1.421875 24.3125 -1.421875 
Q 15.921875 -1.421875 10.953125 3.296875 
Q 6 8.015625 6 15.921875 
Q 6 25.140625 12.171875 29.828125 
Q 18.359375 34.515625 30.609375 34.515625 
L 43.21875 34.515625 
L 43.21875 35.40625 
Q 43.21875 41.609375 39.140625 45 
Q 35.0625 48.390625 27.6875 48.390625 
Q 23 48.390625 18.546875 47.265625 
Q 14.109375 46.140625 10.015625 43.890625 
L 10.015625 52.203125 
Q 14.9375 54.109375 19.578125 55.046875 
Q 24.21875 56 28.609375 56 
Q 40.484375 56 46.34375 49.84375 
Q 52.203125 43.703125 52.203125 31.203125 
z
" id="DejaVuSans-61"/>
      <path d="M 9.421875 54.6875 
L 18.40625 54.6875 
L 18.40625 0 
L 9.421875 0 
z
M 9.421875 75.984375 
L 18.40625 75.984375 
L 18.40625 64.59375 
L 9.421875 64.59375 
z
" id="DejaVuSans-69"/>
      <path d="M 30.609375 48.390625 
Q 23.390625 48.390625 19.1875 42.75 
Q 14.984375 37.109375 14.984375 27.296875 
Q 14.984375 17.484375 19.15625 11.84375 
Q 23.34375 6.203125 30.609375 6.203125 
Q 37.796875 6.203125 41.984375 11.859375 
Q 46.1875 17.53125 46.1875 27.296875 
Q 46.1875 37.015625 41.984375 42.703125 
Q 37.796875 48.390625 30.609375 48.390625 
z
M 30.609375 56 
Q 42.328125 56 49.015625 48.375 
Q 55.71875 40.765625 55.71875 27.296875 
Q 55.71875 13.875 49.015625 6.21875 
Q 42.328125 -1.421875 30.609375 -1.421875 
Q 18.84375 -1.421875 12.171875 6.21875 
Q 5.515625 13.875 5.515625 27.296875 
Q 5.515625 40.765625 12.171875 48.375 
Q 18.84375 56 30.609375 56 
z
" id="DejaVuSans-6f"/>
      <path d="M 54.890625 33.015625 
L 54.890625 0 
L 45.90625 0 
L 45.90625 32.71875 
Q 45.90625 40.484375 42.875 44.328125 
Q 39.84375 48.1875 33.796875 48.1875 
Q 26.515625 48.1875 22.3125 43.546875 
Q 18.109375 38.921875 18.109375 30.90625 
L 18.109375 0 
L 9.078125 0 
L 9.078125 54.6875 
L 18.109375 54.6875 
L 18.109375 46.1875 
Q 21.34375 51.125 25.703125 53.5625 
Q 30.078125 56 35.796875 56 
Q 45.21875 56 50.046875 50.171875 
Q 54.890625 44.34375 54.890625 33.015625 
z
" id="DejaVuSans-6e"/>
     </defs>
     <g transform="translate(265.507969 415.795938)scale(0.14 -0.14)">
      <use xlink:href="#DejaVuSans-49"/>
      <use x="29.492188" xlink:href="#DejaVuSans-74"/>
      <use x="68.701172" xlink:href="#DejaVuSans-65"/>
      <use x="130.224609" xlink:href="#DejaVuSans-72"/>
      <use x="171.337891" xlink:href="#DejaVuSans-61"/>
      <use x="232.617188" xlink:href="#DejaVuSans-74"/>
      <use x="271.826172" xlink:href="#DejaVuSans-69"/>
      <use x="299.609375" xlink:href="#DejaVuSans-6f"/>
      <use x="360.791016" xlink:href="#DejaVuSans-6e"/>
     </g>
    </g>
   </g>
   <g id="matplotlib.axis_2">
    <g id="ytick_1">
     <g id="line2d_13">
      <path clip-path="url(#p3c9accdb8f)" d="M 72 350.335094 
L 518.4 350.335094 
" style="fill:none;stroke:#b0b0b0;stroke-dasharray:5.12,1.28,0.8,1.28;stroke-dashoffset:0;stroke-width:0.8;"/>
     </g>
     <g id="line2d_14">
      <defs>
       <path d="M 0 0 
L -3.5 0 
" id="m3c4375bf85" style="stroke:#000000;stroke-width:0.8;"/>
      </defs>
      <g>
       <use style="stroke:#000000;stroke-width:0.8;" x="72" xlink:href="#m3c4375bf85" y="350.335094"/>
      </g>
     </g>
     <g id="text_8">
      <!-- −100 -->
      <defs>
       <path d="M 10.59375 35.5 
L 73.1875 35.5 
L 73.1875 27.203125 
L 10.59375 27.203125 
z
" id="DejaVuSans-2212"/>
      </defs>
      <g transform="translate(37.532812 354.134312)scale(0.1 -0.1)">
       <use xlink:href="#DejaVuSans-2212"/>
       <use x="83.789062" xlink:href="#DejaVuSans-31"/>
       <use x="147.412109" xlink:href="#DejaVuSans-30"/>
       <use x="211.035156" xlink:href="#DejaVuSans-30"/>
      </g>
     </g>
    </g>
    <g id="ytick_2">
     <g id="line2d_15">
      <path clip-path="url(#p3c9accdb8f)" d="M 72 310.217458 
L 518.4 310.217458 
" style="fill:none;stroke:#b0b0b0;stroke-dasharray:5.12,1.28,0.8,1.28;stroke-dashoffset:0;stroke-width:0.8;"/>
     </g>
     <g id="line2d_16">
      <g>
       <use style="stroke:#000000;stroke-width:0.8;" x="72" xlink:href="#m3c4375bf85" y="310.217458"/>
      </g>
     </g>
     <g id="text_9">
      <!-- −75 -->
      <defs>
       <path d="M 8.203125 72.90625 
L 55.078125 72.90625 
L 55.078125 68.703125 
L 28.609375 0 
L 18.3125 0 
L 43.21875 64.59375 
L 8.203125 64.59375 
z
" id="DejaVuSans-37"/>
       <path d="M 10.796875 72.90625 
L 49.515625 72.90625 
L 49.515625 64.59375 
L 19.828125 64.59375 
L 19.828125 46.734375 
Q 21.96875 47.46875 24.109375 47.828125 
Q 26.265625 48.1875 28.421875 48.1875 
Q 40.625 48.1875 47.75 41.5 
Q 54.890625 34.8125 54.890625 23.390625 
Q 54.890625 11.625 47.5625 5.09375 
Q 40.234375 -1.421875 26.90625 -1.421875 
Q 22.3125 -1.421875 17.546875 -0.640625 
Q 12.796875 0.140625 7.71875 1.703125 
L 7.71875 11.625 
Q 12.109375 9.234375 16.796875 8.0625 
Q 21.484375 6.890625 26.703125 6.890625 
Q 35.15625 6.890625 40.078125 11.328125 
Q 45.015625 15.765625 45.015625 23.390625 
Q 45.015625 31 40.078125 35.4375 
Q 35.15625 39.890625 26.703125 39.890625 
Q 22.75 39.890625 18.8125 39.015625 
Q 14.890625 38.140625 10.796875 36.28125 
z
" id="DejaVuSans-35"/>
      </defs>
      <g transform="translate(43.895313 314.016677)scale(0.1 -0.1)">
       <use xlink:href="#DejaVuSans-2212"/>
       <use x="83.789062" xlink:href="#DejaVuSans-37"/>
       <use x="147.412109" xlink:href="#DejaVuSans-35"/>
      </g>
     </g>
    </g>
    <g id="ytick_3">
     <g id="line2d_17">
      <path clip-path="url(#p3c9accdb8f)" d="M 72 270.099822 
L 518.4 270.099822 
" style="fill:none;stroke:#b0b0b0;stroke-dasharray:5.12,1.28,0.8,1.28;stroke-dashoffset:0;stroke-width:0.8;"/>
     </g>
     <g id="line2d_18">
      <g>
       <use style="stroke:#000000;stroke-width:0.8;" x="72" xlink:href="#m3c4375bf85" y="270.099822"/>
      </g>
     </g>
     <g id="text_10">
      <!-- −50 -->
      <g transform="translate(43.895313 273.899041)scale(0.1 -0.1)">
       <use xlink:href="#DejaVuSans-2212"/>
       <use x="83.789062" xlink:href="#DejaVuSans-35"/>
       <use x="147.412109" xlink:href="#DejaVuSans-30"/>
      </g>
     </g>
    </g>
    <g id="ytick_4">
     <g id="line2d_19">
      <path clip-path="url(#p3c9accdb8f)" d="M 72 229.982186 
L 518.4 229.982186 
" style="fill:none;stroke:#b0b0b0;stroke-dasharray:5.12,1.28,0.8,1.28;stroke-dashoffset:0;stroke-width:0.8;"/>
     </g>
     <g id="line2d_20">
      <g>
       <use style="stroke:#000000;stroke-width:0.8;" x="72" xlink:href="#m3c4375bf85" y="229.982186"/>
      </g>
     </g>
     <g id="text_11">
      <!-- −25 -->
      <g transform="translate(43.895313 233.781405)scale(0.1 -0.1)">
       <use xlink:href="#DejaVuSans-2212"/>
       <use x="83.789062" xlink:href="#DejaVuSans-32"/>
       <use x="147.412109" xlink:href="#DejaVuSans-35"/>
      </g>
     </g>
    </g>
    <g id="ytick_5">
     <g id="line2d_21">
      <path clip-path="url(#p3c9accdb8f)" d="M 72 189.86455 
L 518.4 189.86455 
" style="fill:none;stroke:#b0b0b0;stroke-dasharray:5.12,1.28,0.8,1.28;stroke-dashoffset:0;stroke-width:0.8;"/>
     </g>
     <g id="line2d_22">
      <g>
       <use style="stroke:#000000;stroke-width:0.8;" x="72" xlink:href="#m3c4375bf85" y="189.86455"/>
      </g>
     </g>
     <g id="text_12">
      <!-- 0 -->
      <g transform="translate(58.6375 193.663769)scale(0.1 -0.1)">
       <use xlink:href="#DejaVuSans-30"/>
      </g>
     </g>
    </g>
    <g id="ytick_6">
     <g id="line2d_23">
      <path clip-path="url(#p3c9accdb8f)" d="M 72 149.746914 
L 518.4 149.746914 
" style="fill:none;stroke:#b0b0b0;stroke-dasharray:5.12,1.28,0.8,1.28;stroke-dashoffset:0;stroke-width:0.8;"/>
     </g>
     <g id="line2d_24">
      <g>
       <use style="stroke:#000000;stroke-width:0.8;" x="72" xlink:href="#m3c4375bf85" y="149.746914"/>
      </g>
     </g>
     <g id="text_13">
      <!-- 25 -->
      <g transform="translate(52.275 153.546133)scale(0.1 -0.1)">
       <use xlink:href="#DejaVuSans-32"/>
       <use x="63.623047" xlink:href="#DejaVuSans-35"/>
      </g>
     </g>
    </g>
    <g id="ytick_7">
     <g id="line2d_25">
      <path clip-path="url(#p3c9accdb8f)" d="M 72 109.629278 
L 518.4 109.629278 
" style="fill:none;stroke:#b0b0b0;stroke-dasharray:5.12,1.28,0.8,1.28;stroke-dashoffset:0;stroke-width:0.8;"/>
     </g>
     <g id="line2d_26">
      <g>
       <use style="stroke:#000000;stroke-width:0.8;" x="72" xlink:href="#m3c4375bf85" y="109.629278"/>
      </g>
     </g>
     <g id="text_14">
      <!-- 50 -->
      <g transform="translate(52.275 113.428497)scale(0.1 -0.1)">
       <use xlink:href="#DejaVuSans-35"/>
       <use x="63.623047" xlink:href="#DejaVuSans-30"/>
      </g>
     </g>
    </g>
    <g id="ytick_8">
     <g id="line2d_27">
      <path clip-path="url(#p3c9accdb8f)" d="M 72 69.511642 
L 518.4 69.511642 
" style="fill:none;stroke:#b0b0b0;stroke-dasharray:5.12,1.28,0.8,1.28;stroke-dashoffset:0;stroke-width:0.8;"/>
     </g>
     <g id="line2d_28">
      <g>
       <use style="stroke:#000000;stroke-width:0.8;" x="72" xlink:href="#m3c4375bf85" y="69.511642"/>
      </g>
     </g>
     <g id="text_15">
      <!-- 75 -->
      <g transform="translate(52.275 73.310861)scale(0.1 -0.1)">
       <use xlink:href="#DejaVuSans-37"/>
       <use x="63.623047" xlink:href="#DejaVuSans-35"/>
      </g>
     </g>
    </g>
    <g id="text_16">
     <!-- $\Delta \lambda_{m}[m.u/W]$ -->
     <defs>
      <path d="M 34.1875 63.1875 
L 14.15625 8.203125 
L 54.25 8.203125 
z
M 0.78125 0 
L 28.609375 72.90625 
L 39.796875 72.90625 
L 67.578125 0 
z
" id="DejaVuSans-394"/>
      <path d="M 36.71875 67.4375 
L 48.828125 0 
L 39.3125 0 
L 31.84375 40.4375 
L 5.125 0 
L -4.390625 0 
L 29.734375 52.4375 
L 28.03125 62.109375 
Q 26.953125 68.265625 21.734375 68.265625 
L 17.046875 68.265625 
L 18.5 75.984375 
L 24.21875 75.875 
Q 35.203125 75.734375 36.71875 67.4375 
z
" id="DejaVuSans-Oblique-3bb"/>
      <path d="M 89.796875 33.015625 
L 83.40625 0 
L 74.421875 0 
L 80.71875 32.71875 
Q 81.109375 34.8125 81.296875 36.328125 
Q 81.5 37.84375 81.5 38.921875 
Q 81.5 43.3125 79.046875 45.75 
Q 76.609375 48.1875 72.21875 48.1875 
Q 65.671875 48.1875 60.546875 43.28125 
Q 55.421875 38.375 53.90625 30.515625 
L 47.90625 0 
L 38.921875 0 
L 45.3125 32.71875 
Q 45.703125 34.515625 45.890625 36.046875 
Q 46.09375 37.59375 46.09375 38.8125 
Q 46.09375 43.265625 43.65625 45.71875 
Q 41.21875 48.1875 36.921875 48.1875 
Q 30.28125 48.1875 25.140625 43.28125 
Q 20.015625 38.375 18.5 30.515625 
L 12.5 0 
L 3.515625 0 
L 14.203125 54.6875 
L 23.1875 54.6875 
L 21.484375 46.1875 
Q 25.140625 50.984375 30.046875 53.484375 
Q 34.96875 56 40.578125 56 
Q 46.53125 56 50.359375 52.875 
Q 54.203125 49.75 54.984375 44.1875 
Q 59.078125 49.953125 64.46875 52.96875 
Q 69.875 56 75.875 56 
Q 82.90625 56 86.734375 51.953125 
Q 90.578125 47.90625 90.578125 40.484375 
Q 90.578125 38.875 90.375 36.9375 
Q 90.1875 35.015625 89.796875 33.015625 
z
" id="DejaVuSans-Oblique-6d"/>
      <path d="M 8.59375 75.984375 
L 29.296875 75.984375 
L 29.296875 69 
L 17.578125 69 
L 17.578125 -6.203125 
L 29.296875 -6.203125 
L 29.296875 -13.1875 
L 8.59375 -13.1875 
z
" id="DejaVuSans-5b"/>
      <path d="M 10.6875 12.40625 
L 21 12.40625 
L 21 0 
L 10.6875 0 
z
" id="DejaVuSans-2e"/>
      <path d="M 6.6875 21.6875 
L 13.09375 54.6875 
L 22.125 54.6875 
L 15.71875 22.015625 
Q 15.234375 19.625 15.015625 17.921875 
Q 14.796875 16.21875 14.796875 15.09375 
Q 14.796875 10.9375 17.328125 8.65625 
Q 19.875 6.390625 24.515625 6.390625 
Q 31.734375 6.390625 37 11.265625 
Q 42.28125 16.15625 43.890625 24.421875 
L 49.90625 54.6875 
L 58.890625 54.6875 
L 48.296875 0 
L 39.3125 0 
L 41.109375 8.59375 
Q 37.3125 3.8125 32.0625 1.1875 
Q 26.8125 -1.421875 20.90625 -1.421875 
Q 13.71875 -1.421875 9.71875 2.515625 
Q 5.71875 6.453125 5.71875 13.484375 
Q 5.71875 14.9375 5.953125 17.140625 
Q 6.203125 19.34375 6.6875 21.6875 
z
" id="DejaVuSans-Oblique-75"/>
      <path d="M 25.390625 72.90625 
L 33.6875 72.90625 
L 8.296875 -9.28125 
L 0 -9.28125 
z
" id="DejaVuSans-2f"/>
      <path d="M 9.625 72.90625 
L 19.1875 72.90625 
L 22.703125 10.890625 
L 50.203125 72.90625 
L 61.1875 72.90625 
L 64.796875 10.890625 
L 92 72.90625 
L 102 72.90625 
L 69.578125 0 
L 57.171875 0 
L 53.8125 60.796875 
L 26.515625 0 
L 14.109375 0 
z
" id="DejaVuSans-Oblique-57"/>
      <path d="M 30.421875 75.984375 
L 30.421875 -13.1875 
L 9.71875 -13.1875 
L 9.71875 -6.203125 
L 21.390625 -6.203125 
L 21.390625 69 
L 9.71875 69 
L 9.71875 75.984375 
z
" id="DejaVuSans-5d"/>
     </defs>
     <g transform="translate(30.62125 261.7)rotate(-90)scale(0.14 -0.14)">
      <use transform="translate(0 0.015625)" xlink:href="#DejaVuSans-394"/>
      <use transform="translate(68.408203 0.015625)" xlink:href="#DejaVuSans-Oblique-3bb"/>
      <use transform="translate(127.587891 -16.390625)scale(0.7)" xlink:href="#DejaVuSans-Oblique-6d"/>
      <use transform="translate(198.510742 0.015625)" xlink:href="#DejaVuSans-5b"/>
      <use transform="translate(237.524414 0.015625)" xlink:href="#DejaVuSans-Oblique-6d"/>
      <use transform="translate(334.936523 0.015625)" xlink:href="#DejaVuSans-2e"/>
      <use transform="translate(386.206055 0.015625)" xlink:href="#DejaVuSans-Oblique-75"/>
      <use transform="translate(449.584961 0.015625)" xlink:href="#DejaVuSans-2f"/>
      <use transform="translate(483.276367 0.015625)" xlink:href="#DejaVuSans-Oblique-57"/>
      <use transform="translate(582.15332 0.015625)" xlink:href="#DejaVuSans-5d"/>
     </g>
    </g>
   </g>
   <g id="line2d_29">
    <path clip-path="url(#p3c9accdb8f)" d="M 92.290909 189.86455 
L 96.390083 189.86455 
L 100.489256 189.86455 
L 104.58843 189.060432 
L 108.687603 187.729329 
L 112.786777 186.076803 
L 116.88595 184.243909 
L 120.985124 211.446073 
L 125.084298 268.021247 
L 129.183471 188.089104 
L 133.282645 183.433372 
L 137.381818 179.569723 
L 141.480992 176.374112 
L 145.580165 184.429252 
L 149.679339 202.623402 
L 153.778512 197.907975 
L 157.877686 189.856526 
L 161.97686 183.436581 
L 166.076033 178.336346 
L 170.175207 187.5082 
L 174.27438 206.592962 
L 178.373554 202.117439 
L 182.472727 192.312528 
L 186.571901 184.566775 
L 190.671074 178.475153 
L 194.770248 189.136174 
L 198.869421 207.187506 
L 202.968595 201.006341 
L 207.067769 190.840692 
L 211.166942 182.84942 
L 215.266116 176.601018 
L 219.365289 192.963557 
L 223.464463 209.659715 
L 227.563636 197.216187 
L 231.66281 187.427805 
L 235.761983 179.766781 
L 239.861157 181.894459 
L 243.960331 200.718136 
L 248.059504 213.953425 
L 252.158678 200.106261 
L 256.257851 189.222507 
L 260.357025 180.712754 
L 264.456198 174.102491 
L 268.555372 191.810897 
L 272.654545 208.003177 
L 276.753719 195.203244 
L 280.852893 185.173996 
L 284.952066 177.362611 
L 289.05124 180.22701 
L 293.150413 198.839828 
L 297.249587 211.140377 
L 301.34876 197.406024 
L 305.447934 186.646153 
L 309.547107 178.267183 
L 313.646281 173.826161 
L 317.745455 193.143445 
L 321.844628 208.662711 
L 325.943802 195.35184 
L 330.042975 184.941153 
L 334.142149 176.85087 
L 338.241322 175.416103 
L 342.340496 194.827583 
L 346.439669 209.892397 
L 350.538843 196.226886 
L 354.638017 185.541153 
L 358.73719 177.239209 
L 362.836364 172.272004 
L 366.935537 191.165003 
L 371.034711 207.017728 
L 375.133884 193.98752 
L 379.233058 183.813527 
L 383.332231 175.924153 
L 387.431405 175.436162 
L 391.530579 194.818276 
L 395.629752 209.868968 
L 399.728926 196.201211 
L 403.828099 185.521896 
L 407.927273 177.233111 
L 412.026446 170.854086 
L 416.12562 188.681561 
L 420.224793 205.138297 
L 424.323967 192.595438 
L 428.42314 182.814918 
L 432.522314 175.243276 
L 436.621488 177.399198 
L 440.720661 196.444805 
L 444.819835 210.292771 
L 448.919008 196.6271 
L 453.018182 185.951476 
L 457.117355 177.667505 
L 461.216529 171.293775 
L 465.315702 187.960406 
L 469.414876 204.688177 
L 473.51405 192.362434 
L 477.613223 182.755705 
L 481.712397 175.32287 
L 485.81157 178.011072 
L 489.910744 197.048495 
L 494.009917 209.564235 
L 498.109091 196.193508 
" style="fill:none;stroke:#bf00bf;stroke-linecap:square;stroke-width:1.5;"/>
   </g>
   <g id="line2d_30">
    <path clip-path="url(#p3c9accdb8f)" d="M 92.290909 189.86455 
L 96.390083 189.86455 
L 100.489256 189.86455 
L 104.58843 179.760683 
L 108.687603 172.759353 
L 112.786777 168.06222 
L 116.88595 164.916676 
L 120.985124 221.766415 
L 125.084298 280.577425 
L 129.183471 177.534796 
L 133.282645 136.184906 
L 137.381818 142.858235 
L 141.480992 148.369435 
L 145.580165 253.731987 
L 149.679339 351.897435 
L 153.778512 141.832346 
L 157.877686 110.36664 
L 161.97686 124.352771 
L 166.076033 135.367951 
L 170.175207 268.589152 
L 174.27438 364.76637 
L 178.373554 148.689092 
L 182.472727 98.384786 
L 186.571901 115.773695 
L 190.671074 129.346936 
L 194.770248 285.418661 
L 198.869421 357.970924 
L 202.968595 135.065143 
L 207.067769 96.715892 
L 211.166942 114.804132 
L 215.266116 128.871782 
L 219.365289 339.914779 
L 223.464463 347.403457 
L 227.563636 77.889649 
L 231.66281 100.286843 
L 235.761983 117.731596 
L 239.861157 207.544713 
L 243.960331 365.132724 
L 248.059504 317.762622 
L 252.158678 66.96 
L 256.257851 91.977037 
L 260.357025 111.463296 
L 264.456198 126.583312 
L 268.555372 353.361247 
L 272.654545 343.564039 
L 276.753719 75.135332 
L 280.852893 98.357185 
L 284.952066 116.424564 
L 289.05124 214.407717 
L 293.150413 363.135027 
L 297.249587 308.784456 
L 301.34876 67.486664 
L 305.447934 92.509157 
L 309.547107 111.986751 
L 313.646281 146.28059 
L 317.745455 368.355454 
L 321.844628 337.560355 
L 325.943802 70.579574 
L 330.042975 94.933386 
L 334.142149 113.883352 
L 338.241322 173.862909 
L 342.340496 369.36 
L 346.439669 333.556936 
L 350.538843 67.503514 
L 354.638017 92.586985 
L 358.73719 112.109671 
L 362.836364 140.730074 
L 366.935537 363.604082 
L 371.034711 339.797314 
L 375.133884 72.36208 
L 379.233058 96.357401 
L 383.332231 115.0251 
L 387.431405 182.098899 
L 391.530579 368.678963 
L 395.629752 333.064131 
L 399.728926 67.160107 
L 403.828099 92.361845 
L 407.927273 111.978246 
L 412.026446 127.187163 
L 416.12562 352.916102 
L 420.224793 344.478882 
L 424.323967 76.02129 
L 428.42314 99.213296 
L 432.522314 117.251468 
L 436.621488 206.356108 
L 440.720661 365.634837 
L 444.819835 321.886555 
L 448.919008 67.092067 
L 453.018182 92.341305 
L 457.117355 111.99654 
L 461.216529 127.23739 
L 465.315702 341.989342 
L 469.414876 346.723704 
L 473.51405 77.797057 
L 477.613223 100.620783 
L 481.712397 118.370269 
L 485.81157 211.229438 
L 489.910744 365.576265 
L 494.009917 309.36905 
L 498.109091 69.545662 
" style="fill:none;stroke:#00bfbf;stroke-linecap:square;stroke-width:1.5;"/>
   </g>
   <g id="line2d_31">
    <path clip-path="url(#p3c9accdb8f)" d="M 92.290909 189.86455 
L 96.390083 189.86455 
L 100.489256 94.545047 
L 104.58843 113.948664 
L 108.687603 128.861673 
L 112.786777 138.313548 
L 116.88595 148.746862 
L 120.985124 162.908066 
L 125.084298 180.71452 
L 129.183471 184.647653 
L 133.282645 183.092372 
L 137.381818 181.825939 
L 141.480992 180.78288 
L 145.580165 190.599184 
L 149.679339 209.422379 
L 153.778512 203.67994 
L 157.877686 194.967513 
L 161.97686 188.460593 
L 166.076033 183.644551 
L 170.175207 193.321567 
L 174.27438 212.048319 
L 178.373554 205.786116 
L 182.472727 194.78554 
L 186.571901 186.741793 
L 190.671074 180.947683 
L 194.770248 192.277706 
L 198.869421 210.065063 
L 202.968595 202.313052 
L 207.067769 191.309427 
L 211.166942 183.387477 
L 215.266116 177.795881 
L 219.365289 195.167299 
L 223.464463 211.484265 
L 227.563636 197.50038 
L 231.66281 187.384959 
L 235.761983 180.202137 
L 239.861157 183.310131 
L 243.960331 202.797513 
L 248.059504 215.196911 
L 252.158678 199.701555 
L 256.257851 188.5174 
L 260.357025 180.598981 
L 264.456198 175.134156 
L 268.555372 194.29466 
L 272.654545 210.383116 
L 276.753719 196.312577 
L 280.852893 186.207587 
L 284.952066 179.098902 
L 289.05124 183.136662 
L 293.150413 202.512196 
L 297.249587 214.067841 
L 301.34876 198.821053 
L 305.447934 187.854335 
L 309.547107 180.123988 
L 313.646281 176.853759 
L 317.745455 197.471656 
L 321.844628 212.631148 
L 325.943802 197.879412 
L 330.042975 187.280974 
L 334.142149 179.820538 
L 338.241322 179.511472 
L 342.340496 199.95574 
L 346.439669 214.427455 
L 350.538843 199.15772 
L 354.638017 188.172549 
L 358.73719 180.425994 
L 362.836364 176.536188 
L 366.935537 196.681339 
L 371.034711 212.155674 
L 375.133884 197.63341 
L 379.233058 187.198974 
L 383.332231 179.852151 
L 387.431405 180.393578 
L 391.530579 200.650096 
L 395.629752 214.971771 
L 399.728926 199.581844 
L 403.828099 188.500069 
L 407.927273 180.675525 
L 412.026446 175.292862 
L 416.12562 194.405064 
L 420.224793 210.584025 
L 424.323967 196.581366 
L 428.42314 186.524356 
L 432.522314 179.446481 
L 436.621488 182.562177 
L 440.720661 202.224152 
L 444.819835 215.151659 
L 448.919008 199.69305 
L 453.018182 188.554629 
L 457.117355 180.683388 
L 461.216529 175.262212 
L 465.315702 193.176181 
L 469.414876 209.680416 
L 473.51405 195.918462 
L 477.613223 186.037167 
L 481.712397 179.085262 
L 485.81157 182.711575 
L 489.910744 202.306634 
L 494.009917 213.853773 
L 498.109091 198.748681 
" style="fill:none;stroke:#ff0000;stroke-linecap:square;stroke-width:1.5;"/>
   </g>
   <g id="line2d_32">
    <path clip-path="url(#p3c9accdb8f)" d="M 92.290909 189.86455 
L 96.390083 189.86455 
L 100.489256 189.86455 
L 104.58843 179.760683 
L 108.687603 172.012202 
L 112.786777 166.132722 
L 116.88595 179.704037 
L 120.985124 174.563684 
L 125.084298 171.105864 
L 129.183471 169.517045 
L 133.282645 168.5807 
L 137.381818 167.801936 
L 141.480992 167.167436 
L 145.580165 166.663558 
L 149.679339 167.127158 
L 153.778512 169.217928 
L 157.877686 170.898697 
L 161.97686 171.927153 
L 166.076033 172.486713 
L 170.175207 172.716026 
L 174.27438 173.770799 
L 178.373554 176.331106 
L 182.472727 178.341 
L 186.571901 179.431718 
L 190.671074 179.864507 
L 194.770248 179.837548 
L 198.869421 180.72816 
L 202.968595 183.0131 
L 207.067769 184.601918 
L 211.166942 185.255194 
L 215.266116 185.249578 
L 219.365289 184.794002 
L 223.464463 185.733717 
L 227.563636 187.932485 
L 231.66281 188.928204 
L 235.761983 189.068937 
L 239.861157 188.619459 
L 243.960331 188.422241 
L 248.059504 189.773082 
L 252.158678 192.049998 
L 256.257851 192.994207 
L 260.357025 192.994528 
L 264.456198 192.346066 
L 268.555372 191.270914 
L 272.654545 191.748153 
L 276.753719 193.477865 
L 280.852893 194.010948 
L 284.952066 193.705091 
L 289.05124 192.830687 
L 293.150413 192.298728 
L 297.249587 193.320283 
L 301.34876 195.215119 
L 305.447934 195.814316 
L 309.547107 195.503645 
L 313.646281 194.575163 
L 317.745455 193.409826 
L 321.844628 193.921245 
L 325.943802 195.61437 
L 330.042975 196.062243 
L 334.142149 195.638922 
L 338.241322 194.626995 
L 342.340496 193.620684 
L 346.439669 194.274601 
L 350.538843 196.052936 
L 354.638017 196.543334 
L 358.73719 196.131727 
L 362.836364 195.109851 
L 366.935537 193.810039 
L 371.034711 194.159223 
L 375.133884 195.726058 
L 379.233058 196.075241 
L 383.332231 195.574734 
L 387.431405 194.502149 
L 391.530579 193.509478 
L 395.629752 194.165642 
L 399.728926 195.937879 
L 403.828099 196.416241 
L 407.927273 195.988587 
L 412.026446 194.947936 
L 416.12562 193.513971 
L 420.224793 193.654543 
L 424.323967 195.079522 
L 428.42314 195.336756 
L 432.522314 194.781046 
L 436.621488 193.680219 
L 440.720661 192.868077 
L 444.819835 193.653741 
L 448.919008 195.441383 
L 453.018182 195.930978 
L 457.117355 195.511027 
L 461.216529 194.475511 
L 465.315702 193.044595 
L 469.414876 193.093859 
L 473.51405 194.457859 
L 477.613223 194.677062 
L 481.712397 194.099849 
L 485.81157 192.989714 
L 489.910744 192.210629 
L 494.009917 193.023734 
L 498.109091 194.729214 
" style="fill:none;stroke:#008000;stroke-linecap:square;stroke-width:1.5;"/>
   </g>
   <g id="patch_3">
    <path d="M 72 384.48 
L 72 51.84 
" style="fill:none;stroke:#000000;stroke-linecap:square;stroke-linejoin:miter;stroke-width:0.8;"/>
   </g>
   <g id="patch_4">
    <path d="M 518.4 384.48 
L 518.4 51.84 
" style="fill:none;stroke:#000000;stroke-linecap:square;stroke-linejoin:miter;stroke-width:0.8;"/>
   </g>
   <g id="patch_5">
    <path d="M 72 384.48 
L 518.4 384.48 
" style="fill:none;stroke:#000000;stroke-linecap:square;stroke-linejoin:miter;stroke-width:0.8;"/>
   </g>
   <g id="patch_6">
    <path d="M 72 51.84 
L 518.4 51.84 
" style="fill:none;stroke:#000000;stroke-linecap:square;stroke-linejoin:miter;stroke-width:0.8;"/>
   </g>
   <g id="text_17">
    <!-- $\Delta \lambda_{m}$ -->
    <g transform="translate(281.27 45.84)scale(0.14 -0.14)">
     <use transform="translate(0 0.015625)" xlink:href="#DejaVuSans-394"/>
     <use transform="translate(68.408203 0.015625)" xlink:href="#DejaVuSans-Oblique-3bb"/>
     <use transform="translate(127.587891 -16.390625)scale(0.7)" xlink:href="#DejaVuSans-Oblique-6d"/>
    </g>
   </g>
   <g id="legend_1">
    <g id="patch_7">
     <path d="M 79 379.48 
L 128.5 379.48 
Q 130.5 379.48 130.5 377.48 
L 130.5 319.7675 
Q 130.5 317.7675 128.5 317.7675 
L 79 317.7675 
Q 77 317.7675 77 319.7675 
L 77 377.48 
Q 77 379.48 79 379.48 
z
" style="fill:#ffffff;opacity:0.8;stroke:#cccccc;stroke-linejoin:miter;"/>
    </g>
    <g id="line2d_33">
     <path d="M 81 325.865937 
L 101 325.865937 
" style="fill:none;stroke:#bf00bf;stroke-linecap:square;stroke-width:1.5;"/>
    </g>
    <g id="line2d_34"/>
    <g id="text_18">
     <!-- $\Delta \lambda_{1}$ -->
     <g transform="translate(109 329.365937)scale(0.1 -0.1)">
      <use transform="translate(0 0.015625)" xlink:href="#DejaVuSans-394"/>
      <use transform="translate(68.408203 0.015625)" xlink:href="#DejaVuSans-Oblique-3bb"/>
      <use transform="translate(127.587891 -16.390625)scale(0.7)" xlink:href="#DejaVuSans-31"/>
     </g>
    </g>
    <g id="line2d_35">
     <path d="M 81 340.544062 
L 101 340.544062 
" style="fill:none;stroke:#00bfbf;stroke-linecap:square;stroke-width:1.5;"/>
    </g>
    <g id="line2d_36"/>
    <g id="text_19">
     <!-- $\Delta \lambda_{2}$ -->
     <g transform="translate(109 344.044062)scale(0.1 -0.1)">
      <use transform="translate(0 0.015625)" xlink:href="#DejaVuSans-394"/>
      <use transform="translate(68.408203 0.015625)" xlink:href="#DejaVuSans-Oblique-3bb"/>
      <use transform="translate(127.587891 -16.390625)scale(0.7)" xlink:href="#DejaVuSans-32"/>
     </g>
    </g>
    <g id="line2d_37">
     <path d="M 81 355.222188 
L 101 355.222188 
" style="fill:none;stroke:#ff0000;stroke-linecap:square;stroke-width:1.5;"/>
    </g>
    <g id="line2d_38"/>
    <g id="text_20">
     <!-- $\Delta \lambda_{3}$ -->
     <defs>
      <path d="M 40.578125 39.3125 
Q 47.65625 37.796875 51.625 33 
Q 55.609375 28.21875 55.609375 21.1875 
Q 55.609375 10.40625 48.1875 4.484375 
Q 40.765625 -1.421875 27.09375 -1.421875 
Q 22.515625 -1.421875 17.65625 -0.515625 
Q 12.796875 0.390625 7.625 2.203125 
L 7.625 11.71875 
Q 11.71875 9.328125 16.59375 8.109375 
Q 21.484375 6.890625 26.8125 6.890625 
Q 36.078125 6.890625 40.9375 10.546875 
Q 45.796875 14.203125 45.796875 21.1875 
Q 45.796875 27.640625 41.28125 31.265625 
Q 36.765625 34.90625 28.71875 34.90625 
L 20.21875 34.90625 
L 20.21875 43.015625 
L 29.109375 43.015625 
Q 36.375 43.015625 40.234375 45.921875 
Q 44.09375 48.828125 44.09375 54.296875 
Q 44.09375 59.90625 40.109375 62.90625 
Q 36.140625 65.921875 28.71875 65.921875 
Q 24.65625 65.921875 20.015625 65.03125 
Q 15.375 64.15625 9.8125 62.3125 
L 9.8125 71.09375 
Q 15.4375 72.65625 20.34375 73.4375 
Q 25.25 74.21875 29.59375 74.21875 
Q 40.828125 74.21875 47.359375 69.109375 
Q 53.90625 64.015625 53.90625 55.328125 
Q 53.90625 49.265625 50.4375 45.09375 
Q 46.96875 40.921875 40.578125 39.3125 
z
" id="DejaVuSans-33"/>
     </defs>
     <g transform="translate(109 358.722188)scale(0.1 -0.1)">
      <use transform="translate(0 0.015625)" xlink:href="#DejaVuSans-394"/>
      <use transform="translate(68.408203 0.015625)" xlink:href="#DejaVuSans-Oblique-3bb"/>
      <use transform="translate(127.587891 -16.390625)scale(0.7)" xlink:href="#DejaVuSans-33"/>
     </g>
    </g>
    <g id="line2d_39">
     <path d="M 81 369.900312 
L 101 369.900312 
" style="fill:none;stroke:#008000;stroke-linecap:square;stroke-width:1.5;"/>
    </g>
    <g id="line2d_40"/>
    <g id="text_21">
     <!-- $\Delta \lambda_{4}$ -->
     <g transform="translate(109 373.400312)scale(0.1 -0.1)">
      <use transform="translate(0 0.015625)" xlink:href="#DejaVuSans-394"/>
      <use transform="translate(68.408203 0.015625)" xlink:href="#DejaVuSans-Oblique-3bb"/>
      <use transform="translate(127.587891 -16.390625)scale(0.7)" xlink:href="#DejaVuSans-34"/>
     </g>
    </g>
   </g>
  </g>
 </g>
 <defs>
  <clipPath id="p3c9accdb8f">
   <rect height="332.64" width="446.4" x="72" y="51.84"/>
  </clipPath>
 </defs>
</svg>
