<?xml version="1.0" encoding="utf-8" standalone="no"?>
<!DOCTYPE svg PUBLIC "-//W3C//DTD SVG 1.1//EN"
  "http://www.w3.org/Graphics/SVG/1.1/DTD/svg11.dtd">
<!-- Created with matplotlib (http://matplotlib.org/) -->
<svg height="432pt" version="1.1" viewBox="0 0 576 432" width="576pt" xmlns="http://www.w3.org/2000/svg" xmlns:xlink="http://www.w3.org/1999/xlink">
 <defs>
  <style type="text/css">
*{stroke-linecap:butt;stroke-linejoin:round;}
  </style>
 </defs>
 <g id="figure_1">
  <g id="patch_1">
   <path d="M 0 432 
L 576 432 
L 576 0 
L 0 0 
z
" style="fill:#ffffff;"/>
  </g>
  <g id="axes_1">
   <g id="patch_2">
    <path d="M 72 384.48 
L 518.4 384.48 
L 518.4 51.84 
L 72 51.84 
z
" style="fill:#ffffff;"/>
   </g>
   <g id="matplotlib.axis_1">
    <g id="xtick_1">
     <g id="line2d_1">
      <path clip-path="url(#pc3c6a9e542)" d="M 92.290909 384.48 
L 92.290909 51.84 
" style="fill:none;stroke:#b0b0b0;stroke-dasharray:5.12,1.28,0.8,1.28;stroke-dashoffset:0;stroke-width:0.8;"/>
     </g>
     <g id="line2d_2">
      <defs>
       <path d="M 0 0 
L 0 3.5 
" id="mf038bed15e" style="stroke:#000000;stroke-width:0.8;"/>
      </defs>
      <g>
       <use style="stroke:#000000;stroke-width:0.8;" x="92.290909" xlink:href="#mf038bed15e" y="384.48"/>
      </g>
     </g>
     <g id="text_1">
      <!-- 0 -->
      <defs>
       <path d="M 31.78125 66.40625 
Q 24.171875 66.40625 20.328125 58.90625 
Q 16.5 51.421875 16.5 36.375 
Q 16.5 21.390625 20.328125 13.890625 
Q 24.171875 6.390625 31.78125 6.390625 
Q 39.453125 6.390625 43.28125 13.890625 
Q 47.125 21.390625 47.125 36.375 
Q 47.125 51.421875 43.28125 58.90625 
Q 39.453125 66.40625 31.78125 66.40625 
z
M 31.78125 74.21875 
Q 44.046875 74.21875 50.515625 64.515625 
Q 56.984375 54.828125 56.984375 36.375 
Q 56.984375 17.96875 50.515625 8.265625 
Q 44.046875 -1.421875 31.78125 -1.421875 
Q 19.53125 -1.421875 13.0625 8.265625 
Q 6.59375 17.96875 6.59375 36.375 
Q 6.59375 54.828125 13.0625 64.515625 
Q 19.53125 74.21875 31.78125 74.21875 
z
" id="DejaVuSans-30"/>
      </defs>
      <g transform="translate(89.109659 399.078438)scale(0.1 -0.1)">
       <use xlink:href="#DejaVuSans-30"/>
      </g>
     </g>
    </g>
    <g id="xtick_2">
     <g id="line2d_3">
      <path clip-path="url(#pc3c6a9e542)" d="M 173.53579 384.48 
L 173.53579 51.84 
" style="fill:none;stroke:#b0b0b0;stroke-dasharray:5.12,1.28,0.8,1.28;stroke-dashoffset:0;stroke-width:0.8;"/>
     </g>
     <g id="line2d_4">
      <g>
       <use style="stroke:#000000;stroke-width:0.8;" x="173.53579" xlink:href="#mf038bed15e" y="384.48"/>
      </g>
     </g>
     <g id="text_2">
      <!-- 200 -->
      <defs>
       <path d="M 19.1875 8.296875 
L 53.609375 8.296875 
L 53.609375 0 
L 7.328125 0 
L 7.328125 8.296875 
Q 12.9375 14.109375 22.625 23.890625 
Q 32.328125 33.6875 34.8125 36.53125 
Q 39.546875 41.84375 41.421875 45.53125 
Q 43.3125 49.21875 43.3125 52.78125 
Q 43.3125 58.59375 39.234375 62.25 
Q 35.15625 65.921875 28.609375 65.921875 
Q 23.96875 65.921875 18.8125 64.3125 
Q 13.671875 62.703125 7.8125 59.421875 
L 7.8125 69.390625 
Q 13.765625 71.78125 18.9375 73 
Q 24.125 74.21875 28.421875 74.21875 
Q 39.75 74.21875 46.484375 68.546875 
Q 53.21875 62.890625 53.21875 53.421875 
Q 53.21875 48.921875 51.53125 44.890625 
Q 49.859375 40.875 45.40625 35.40625 
Q 44.1875 33.984375 37.640625 27.21875 
Q 31.109375 20.453125 19.1875 8.296875 
z
" id="DejaVuSans-32"/>
      </defs>
      <g transform="translate(163.99204 399.078438)scale(0.1 -0.1)">
       <use xlink:href="#DejaVuSans-32"/>
       <use x="63.623047" xlink:href="#DejaVuSans-30"/>
       <use x="127.246094" xlink:href="#DejaVuSans-30"/>
      </g>
     </g>
    </g>
    <g id="xtick_3">
     <g id="line2d_5">
      <path clip-path="url(#pc3c6a9e542)" d="M 254.780672 384.48 
L 254.780672 51.84 
" style="fill:none;stroke:#b0b0b0;stroke-dasharray:5.12,1.28,0.8,1.28;stroke-dashoffset:0;stroke-width:0.8;"/>
     </g>
     <g id="line2d_6">
      <g>
       <use style="stroke:#000000;stroke-width:0.8;" x="254.780672" xlink:href="#mf038bed15e" y="384.48"/>
      </g>
     </g>
     <g id="text_3">
      <!-- 400 -->
      <defs>
       <path d="M 37.796875 64.3125 
L 12.890625 25.390625 
L 37.796875 25.390625 
z
M 35.203125 72.90625 
L 47.609375 72.90625 
L 47.609375 25.390625 
L 58.015625 25.390625 
L 58.015625 17.1875 
L 47.609375 17.1875 
L 47.609375 0 
L 37.796875 0 
L 37.796875 17.1875 
L 4.890625 17.1875 
L 4.890625 26.703125 
z
" id="DejaVuSans-34"/>
      </defs>
      <g transform="translate(245.236922 399.078438)scale(0.1 -0.1)">
       <use xlink:href="#DejaVuSans-34"/>
       <use x="63.623047" xlink:href="#DejaVuSans-30"/>
       <use x="127.246094" xlink:href="#DejaVuSans-30"/>
      </g>
     </g>
    </g>
    <g id="xtick_4">
     <g id="line2d_7">
      <path clip-path="url(#pc3c6a9e542)" d="M 336.025553 384.48 
L 336.025553 51.84 
" style="fill:none;stroke:#b0b0b0;stroke-dasharray:5.12,1.28,0.8,1.28;stroke-dashoffset:0;stroke-width:0.8;"/>
     </g>
     <g id="line2d_8">
      <g>
       <use style="stroke:#000000;stroke-width:0.8;" x="336.025553" xlink:href="#mf038bed15e" y="384.48"/>
      </g>
     </g>
     <g id="text_4">
      <!-- 600 -->
      <defs>
       <path d="M 33.015625 40.375 
Q 26.375 40.375 22.484375 35.828125 
Q 18.609375 31.296875 18.609375 23.390625 
Q 18.609375 15.53125 22.484375 10.953125 
Q 26.375 6.390625 33.015625 6.390625 
Q 39.65625 6.390625 43.53125 10.953125 
Q 47.40625 15.53125 47.40625 23.390625 
Q 47.40625 31.296875 43.53125 35.828125 
Q 39.65625 40.375 33.015625 40.375 
z
M 52.59375 71.296875 
L 52.59375 62.3125 
Q 48.875 64.0625 45.09375 64.984375 
Q 41.3125 65.921875 37.59375 65.921875 
Q 27.828125 65.921875 22.671875 59.328125 
Q 17.53125 52.734375 16.796875 39.40625 
Q 19.671875 43.65625 24.015625 45.921875 
Q 28.375 48.1875 33.59375 48.1875 
Q 44.578125 48.1875 50.953125 41.515625 
Q 57.328125 34.859375 57.328125 23.390625 
Q 57.328125 12.15625 50.6875 5.359375 
Q 44.046875 -1.421875 33.015625 -1.421875 
Q 20.359375 -1.421875 13.671875 8.265625 
Q 6.984375 17.96875 6.984375 36.375 
Q 6.984375 53.65625 15.1875 63.9375 
Q 23.390625 74.21875 37.203125 74.21875 
Q 40.921875 74.21875 44.703125 73.484375 
Q 48.484375 72.75 52.59375 71.296875 
z
" id="DejaVuSans-36"/>
      </defs>
      <g transform="translate(326.481803 399.078438)scale(0.1 -0.1)">
       <use xlink:href="#DejaVuSans-36"/>
       <use x="63.623047" xlink:href="#DejaVuSans-30"/>
       <use x="127.246094" xlink:href="#DejaVuSans-30"/>
      </g>
     </g>
    </g>
    <g id="xtick_5">
     <g id="line2d_9">
      <path clip-path="url(#pc3c6a9e542)" d="M 417.270434 384.48 
L 417.270434 51.84 
" style="fill:none;stroke:#b0b0b0;stroke-dasharray:5.12,1.28,0.8,1.28;stroke-dashoffset:0;stroke-width:0.8;"/>
     </g>
     <g id="line2d_10">
      <g>
       <use style="stroke:#000000;stroke-width:0.8;" x="417.270434" xlink:href="#mf038bed15e" y="384.48"/>
      </g>
     </g>
     <g id="text_5">
      <!-- 800 -->
      <defs>
       <path d="M 31.78125 34.625 
Q 24.75 34.625 20.71875 30.859375 
Q 16.703125 27.09375 16.703125 20.515625 
Q 16.703125 13.921875 20.71875 10.15625 
Q 24.75 6.390625 31.78125 6.390625 
Q 38.8125 6.390625 42.859375 10.171875 
Q 46.921875 13.96875 46.921875 20.515625 
Q 46.921875 27.09375 42.890625 30.859375 
Q 38.875 34.625 31.78125 34.625 
z
M 21.921875 38.8125 
Q 15.578125 40.375 12.03125 44.71875 
Q 8.5 49.078125 8.5 55.328125 
Q 8.5 64.0625 14.71875 69.140625 
Q 20.953125 74.21875 31.78125 74.21875 
Q 42.671875 74.21875 48.875 69.140625 
Q 55.078125 64.0625 55.078125 55.328125 
Q 55.078125 49.078125 51.53125 44.71875 
Q 48 40.375 41.703125 38.8125 
Q 48.828125 37.15625 52.796875 32.3125 
Q 56.78125 27.484375 56.78125 20.515625 
Q 56.78125 9.90625 50.3125 4.234375 
Q 43.84375 -1.421875 31.78125 -1.421875 
Q 19.734375 -1.421875 13.25 4.234375 
Q 6.78125 9.90625 6.78125 20.515625 
Q 6.78125 27.484375 10.78125 32.3125 
Q 14.796875 37.15625 21.921875 38.8125 
z
M 18.3125 54.390625 
Q 18.3125 48.734375 21.84375 45.5625 
Q 25.390625 42.390625 31.78125 42.390625 
Q 38.140625 42.390625 41.71875 45.5625 
Q 45.3125 48.734375 45.3125 54.390625 
Q 45.3125 60.0625 41.71875 63.234375 
Q 38.140625 66.40625 31.78125 66.40625 
Q 25.390625 66.40625 21.84375 63.234375 
Q 18.3125 60.0625 18.3125 54.390625 
z
" id="DejaVuSans-38"/>
      </defs>
      <g transform="translate(407.726684 399.078438)scale(0.1 -0.1)">
       <use xlink:href="#DejaVuSans-38"/>
       <use x="63.623047" xlink:href="#DejaVuSans-30"/>
       <use x="127.246094" xlink:href="#DejaVuSans-30"/>
      </g>
     </g>
    </g>
    <g id="xtick_6">
     <g id="line2d_11">
      <path clip-path="url(#pc3c6a9e542)" d="M 498.515315 384.48 
L 498.515315 51.84 
" style="fill:none;stroke:#b0b0b0;stroke-dasharray:5.12,1.28,0.8,1.28;stroke-dashoffset:0;stroke-width:0.8;"/>
     </g>
     <g id="line2d_12">
      <g>
       <use style="stroke:#000000;stroke-width:0.8;" x="498.515315" xlink:href="#mf038bed15e" y="384.48"/>
      </g>
     </g>
     <g id="text_6">
      <!-- 1000 -->
      <defs>
       <path d="M 12.40625 8.296875 
L 28.515625 8.296875 
L 28.515625 63.921875 
L 10.984375 60.40625 
L 10.984375 69.390625 
L 28.421875 72.90625 
L 38.28125 72.90625 
L 38.28125 8.296875 
L 54.390625 8.296875 
L 54.390625 0 
L 12.40625 0 
z
" id="DejaVuSans-31"/>
      </defs>
      <g transform="translate(485.790315 399.078438)scale(0.1 -0.1)">
       <use xlink:href="#DejaVuSans-31"/>
       <use x="63.623047" xlink:href="#DejaVuSans-30"/>
       <use x="127.246094" xlink:href="#DejaVuSans-30"/>
       <use x="190.869141" xlink:href="#DejaVuSans-30"/>
      </g>
     </g>
    </g>
    <g id="text_7">
     <!-- Iteration -->
     <defs>
      <path d="M 9.8125 72.90625 
L 19.671875 72.90625 
L 19.671875 0 
L 9.8125 0 
z
" id="DejaVuSans-49"/>
      <path d="M 18.3125 70.21875 
L 18.3125 54.6875 
L 36.8125 54.6875 
L 36.8125 47.703125 
L 18.3125 47.703125 
L 18.3125 18.015625 
Q 18.3125 11.328125 20.140625 9.421875 
Q 21.96875 7.515625 27.59375 7.515625 
L 36.8125 7.515625 
L 36.8125 0 
L 27.59375 0 
Q 17.1875 0 13.234375 3.875 
Q 9.28125 7.765625 9.28125 18.015625 
L 9.28125 47.703125 
L 2.6875 47.703125 
L 2.6875 54.6875 
L 9.28125 54.6875 
L 9.28125 70.21875 
z
" id="DejaVuSans-74"/>
      <path d="M 56.203125 29.59375 
L 56.203125 25.203125 
L 14.890625 25.203125 
Q 15.484375 15.921875 20.484375 11.0625 
Q 25.484375 6.203125 34.421875 6.203125 
Q 39.59375 6.203125 44.453125 7.46875 
Q 49.3125 8.734375 54.109375 11.28125 
L 54.109375 2.78125 
Q 49.265625 0.734375 44.1875 -0.34375 
Q 39.109375 -1.421875 33.890625 -1.421875 
Q 20.796875 -1.421875 13.15625 6.1875 
Q 5.515625 13.8125 5.515625 26.8125 
Q 5.515625 40.234375 12.765625 48.109375 
Q 20.015625 56 32.328125 56 
Q 43.359375 56 49.78125 48.890625 
Q 56.203125 41.796875 56.203125 29.59375 
z
M 47.21875 32.234375 
Q 47.125 39.59375 43.09375 43.984375 
Q 39.0625 48.390625 32.421875 48.390625 
Q 24.90625 48.390625 20.390625 44.140625 
Q 15.875 39.890625 15.1875 32.171875 
z
" id="DejaVuSans-65"/>
      <path d="M 41.109375 46.296875 
Q 39.59375 47.171875 37.8125 47.578125 
Q 36.03125 48 33.890625 48 
Q 26.265625 48 22.1875 43.046875 
Q 18.109375 38.09375 18.109375 28.8125 
L 18.109375 0 
L 9.078125 0 
L 9.078125 54.6875 
L 18.109375 54.6875 
L 18.109375 46.1875 
Q 20.953125 51.171875 25.484375 53.578125 
Q 30.03125 56 36.53125 56 
Q 37.453125 56 38.578125 55.875 
Q 39.703125 55.765625 41.0625 55.515625 
z
" id="DejaVuSans-72"/>
      <path d="M 34.28125 27.484375 
Q 23.390625 27.484375 19.1875 25 
Q 14.984375 22.515625 14.984375 16.5 
Q 14.984375 11.71875 18.140625 8.90625 
Q 21.296875 6.109375 26.703125 6.109375 
Q 34.1875 6.109375 38.703125 11.40625 
Q 43.21875 16.703125 43.21875 25.484375 
L 43.21875 27.484375 
z
M 52.203125 31.203125 
L 52.203125 0 
L 43.21875 0 
L 43.21875 8.296875 
Q 40.140625 3.328125 35.546875 0.953125 
Q 30.953125 -1.421875 24.3125 -1.421875 
Q 15.921875 -1.421875 10.953125 3.296875 
Q 6 8.015625 6 15.921875 
Q 6 25.140625 12.171875 29.828125 
Q 18.359375 34.515625 30.609375 34.515625 
L 43.21875 34.515625 
L 43.21875 35.40625 
Q 43.21875 41.609375 39.140625 45 
Q 35.0625 48.390625 27.6875 48.390625 
Q 23 48.390625 18.546875 47.265625 
Q 14.109375 46.140625 10.015625 43.890625 
L 10.015625 52.203125 
Q 14.9375 54.109375 19.578125 55.046875 
Q 24.21875 56 28.609375 56 
Q 40.484375 56 46.34375 49.84375 
Q 52.203125 43.703125 52.203125 31.203125 
z
" id="DejaVuSans-61"/>
      <path d="M 9.421875 54.6875 
L 18.40625 54.6875 
L 18.40625 0 
L 9.421875 0 
z
M 9.421875 75.984375 
L 18.40625 75.984375 
L 18.40625 64.59375 
L 9.421875 64.59375 
z
" id="DejaVuSans-69"/>
      <path d="M 30.609375 48.390625 
Q 23.390625 48.390625 19.1875 42.75 
Q 14.984375 37.109375 14.984375 27.296875 
Q 14.984375 17.484375 19.15625 11.84375 
Q 23.34375 6.203125 30.609375 6.203125 
Q 37.796875 6.203125 41.984375 11.859375 
Q 46.1875 17.53125 46.1875 27.296875 
Q 46.1875 37.015625 41.984375 42.703125 
Q 37.796875 48.390625 30.609375 48.390625 
z
M 30.609375 56 
Q 42.328125 56 49.015625 48.375 
Q 55.71875 40.765625 55.71875 27.296875 
Q 55.71875 13.875 49.015625 6.21875 
Q 42.328125 -1.421875 30.609375 -1.421875 
Q 18.84375 -1.421875 12.171875 6.21875 
Q 5.515625 13.875 5.515625 27.296875 
Q 5.515625 40.765625 12.171875 48.375 
Q 18.84375 56 30.609375 56 
z
" id="DejaVuSans-6f"/>
      <path d="M 54.890625 33.015625 
L 54.890625 0 
L 45.90625 0 
L 45.90625 32.71875 
Q 45.90625 40.484375 42.875 44.328125 
Q 39.84375 48.1875 33.796875 48.1875 
Q 26.515625 48.1875 22.3125 43.546875 
Q 18.109375 38.921875 18.109375 30.90625 
L 18.109375 0 
L 9.078125 0 
L 9.078125 54.6875 
L 18.109375 54.6875 
L 18.109375 46.1875 
Q 21.34375 51.125 25.703125 53.5625 
Q 30.078125 56 35.796875 56 
Q 45.21875 56 50.046875 50.171875 
Q 54.890625 44.34375 54.890625 33.015625 
z
" id="DejaVuSans-6e"/>
     </defs>
     <g transform="translate(265.507969 415.795938)scale(0.14 -0.14)">
      <use xlink:href="#DejaVuSans-49"/>
      <use x="29.492188" xlink:href="#DejaVuSans-74"/>
      <use x="68.701172" xlink:href="#DejaVuSans-65"/>
      <use x="130.224609" xlink:href="#DejaVuSans-72"/>
      <use x="171.337891" xlink:href="#DejaVuSans-61"/>
      <use x="232.617188" xlink:href="#DejaVuSans-74"/>
      <use x="271.826172" xlink:href="#DejaVuSans-69"/>
      <use x="299.609375" xlink:href="#DejaVuSans-6f"/>
      <use x="360.791016" xlink:href="#DejaVuSans-6e"/>
     </g>
    </g>
   </g>
   <g id="matplotlib.axis_2">
    <g id="ytick_1">
     <g id="line2d_13">
      <path clip-path="url(#pc3c6a9e542)" d="M 72 367.57846 
L 518.4 367.57846 
" style="fill:none;stroke:#b0b0b0;stroke-dasharray:5.12,1.28,0.8,1.28;stroke-dashoffset:0;stroke-width:0.8;"/>
     </g>
     <g id="line2d_14">
      <defs>
       <path d="M 0 0 
L -3.5 0 
" id="m9de8198701" style="stroke:#000000;stroke-width:0.8;"/>
      </defs>
      <g>
       <use style="stroke:#000000;stroke-width:0.8;" x="72" xlink:href="#m9de8198701" y="367.57846"/>
      </g>
     </g>
     <g id="text_8">
      <!-- 0.9 -->
      <defs>
       <path d="M 10.6875 12.40625 
L 21 12.40625 
L 21 0 
L 10.6875 0 
z
" id="DejaVuSans-2e"/>
       <path d="M 10.984375 1.515625 
L 10.984375 10.5 
Q 14.703125 8.734375 18.5 7.8125 
Q 22.3125 6.890625 25.984375 6.890625 
Q 35.75 6.890625 40.890625 13.453125 
Q 46.046875 20.015625 46.78125 33.40625 
Q 43.953125 29.203125 39.59375 26.953125 
Q 35.25 24.703125 29.984375 24.703125 
Q 19.046875 24.703125 12.671875 31.3125 
Q 6.296875 37.9375 6.296875 49.421875 
Q 6.296875 60.640625 12.9375 67.421875 
Q 19.578125 74.21875 30.609375 74.21875 
Q 43.265625 74.21875 49.921875 64.515625 
Q 56.59375 54.828125 56.59375 36.375 
Q 56.59375 19.140625 48.40625 8.859375 
Q 40.234375 -1.421875 26.421875 -1.421875 
Q 22.703125 -1.421875 18.890625 -0.6875 
Q 15.09375 0.046875 10.984375 1.515625 
z
M 30.609375 32.421875 
Q 37.25 32.421875 41.125 36.953125 
Q 45.015625 41.5 45.015625 49.421875 
Q 45.015625 57.28125 41.125 61.84375 
Q 37.25 66.40625 30.609375 66.40625 
Q 23.96875 66.40625 20.09375 61.84375 
Q 16.21875 57.28125 16.21875 49.421875 
Q 16.21875 41.5 20.09375 36.953125 
Q 23.96875 32.421875 30.609375 32.421875 
z
" id="DejaVuSans-39"/>
      </defs>
      <g transform="translate(49.096875 371.377678)scale(0.1 -0.1)">
       <use xlink:href="#DejaVuSans-30"/>
       <use x="63.623047" xlink:href="#DejaVuSans-2e"/>
       <use x="95.410156" xlink:href="#DejaVuSans-39"/>
      </g>
     </g>
    </g>
    <g id="ytick_2">
     <g id="line2d_15">
      <path clip-path="url(#pc3c6a9e542)" d="M 72 301.595479 
L 518.4 301.595479 
" style="fill:none;stroke:#b0b0b0;stroke-dasharray:5.12,1.28,0.8,1.28;stroke-dashoffset:0;stroke-width:0.8;"/>
     </g>
     <g id="line2d_16">
      <g>
       <use style="stroke:#000000;stroke-width:0.8;" x="72" xlink:href="#m9de8198701" y="301.595479"/>
      </g>
     </g>
     <g id="text_9">
      <!-- 1.0 -->
      <g transform="translate(49.096875 305.394698)scale(0.1 -0.1)">
       <use xlink:href="#DejaVuSans-31"/>
       <use x="63.623047" xlink:href="#DejaVuSans-2e"/>
       <use x="95.410156" xlink:href="#DejaVuSans-30"/>
      </g>
     </g>
    </g>
    <g id="ytick_3">
     <g id="line2d_17">
      <path clip-path="url(#pc3c6a9e542)" d="M 72 235.612498 
L 518.4 235.612498 
" style="fill:none;stroke:#b0b0b0;stroke-dasharray:5.12,1.28,0.8,1.28;stroke-dashoffset:0;stroke-width:0.8;"/>
     </g>
     <g id="line2d_18">
      <g>
       <use style="stroke:#000000;stroke-width:0.8;" x="72" xlink:href="#m9de8198701" y="235.612498"/>
      </g>
     </g>
     <g id="text_10">
      <!-- 1.1 -->
      <g transform="translate(49.096875 239.411717)scale(0.1 -0.1)">
       <use xlink:href="#DejaVuSans-31"/>
       <use x="63.623047" xlink:href="#DejaVuSans-2e"/>
       <use x="95.410156" xlink:href="#DejaVuSans-31"/>
      </g>
     </g>
    </g>
    <g id="ytick_4">
     <g id="line2d_19">
      <path clip-path="url(#pc3c6a9e542)" d="M 72 169.629518 
L 518.4 169.629518 
" style="fill:none;stroke:#b0b0b0;stroke-dasharray:5.12,1.28,0.8,1.28;stroke-dashoffset:0;stroke-width:0.8;"/>
     </g>
     <g id="line2d_20">
      <g>
       <use style="stroke:#000000;stroke-width:0.8;" x="72" xlink:href="#m9de8198701" y="169.629518"/>
      </g>
     </g>
     <g id="text_11">
      <!-- 1.2 -->
      <g transform="translate(49.096875 173.428737)scale(0.1 -0.1)">
       <use xlink:href="#DejaVuSans-31"/>
       <use x="63.623047" xlink:href="#DejaVuSans-2e"/>
       <use x="95.410156" xlink:href="#DejaVuSans-32"/>
      </g>
     </g>
    </g>
    <g id="ytick_5">
     <g id="line2d_21">
      <path clip-path="url(#pc3c6a9e542)" d="M 72 103.646537 
L 518.4 103.646537 
" style="fill:none;stroke:#b0b0b0;stroke-dasharray:5.12,1.28,0.8,1.28;stroke-dashoffset:0;stroke-width:0.8;"/>
     </g>
     <g id="line2d_22">
      <g>
       <use style="stroke:#000000;stroke-width:0.8;" x="72" xlink:href="#m9de8198701" y="103.646537"/>
      </g>
     </g>
     <g id="text_12">
      <!-- 1.3 -->
      <defs>
       <path d="M 40.578125 39.3125 
Q 47.65625 37.796875 51.625 33 
Q 55.609375 28.21875 55.609375 21.1875 
Q 55.609375 10.40625 48.1875 4.484375 
Q 40.765625 -1.421875 27.09375 -1.421875 
Q 22.515625 -1.421875 17.65625 -0.515625 
Q 12.796875 0.390625 7.625 2.203125 
L 7.625 11.71875 
Q 11.71875 9.328125 16.59375 8.109375 
Q 21.484375 6.890625 26.8125 6.890625 
Q 36.078125 6.890625 40.9375 10.546875 
Q 45.796875 14.203125 45.796875 21.1875 
Q 45.796875 27.640625 41.28125 31.265625 
Q 36.765625 34.90625 28.71875 34.90625 
L 20.21875 34.90625 
L 20.21875 43.015625 
L 29.109375 43.015625 
Q 36.375 43.015625 40.234375 45.921875 
Q 44.09375 48.828125 44.09375 54.296875 
Q 44.09375 59.90625 40.109375 62.90625 
Q 36.140625 65.921875 28.71875 65.921875 
Q 24.65625 65.921875 20.015625 65.03125 
Q 15.375 64.15625 9.8125 62.3125 
L 9.8125 71.09375 
Q 15.4375 72.65625 20.34375 73.4375 
Q 25.25 74.21875 29.59375 74.21875 
Q 40.828125 74.21875 47.359375 69.109375 
Q 53.90625 64.015625 53.90625 55.328125 
Q 53.90625 49.265625 50.4375 45.09375 
Q 46.96875 40.921875 40.578125 39.3125 
z
" id="DejaVuSans-33"/>
      </defs>
      <g transform="translate(49.096875 107.445756)scale(0.1 -0.1)">
       <use xlink:href="#DejaVuSans-31"/>
       <use x="63.623047" xlink:href="#DejaVuSans-2e"/>
       <use x="95.410156" xlink:href="#DejaVuSans-33"/>
      </g>
     </g>
    </g>
    <g id="text_13">
     <!-- $u_{m}[V]$ -->
     <defs>
      <path d="M 6.6875 21.6875 
L 13.09375 54.6875 
L 22.125 54.6875 
L 15.71875 22.015625 
Q 15.234375 19.625 15.015625 17.921875 
Q 14.796875 16.21875 14.796875 15.09375 
Q 14.796875 10.9375 17.328125 8.65625 
Q 19.875 6.390625 24.515625 6.390625 
Q 31.734375 6.390625 37 11.265625 
Q 42.28125 16.15625 43.890625 24.421875 
L 49.90625 54.6875 
L 58.890625 54.6875 
L 48.296875 0 
L 39.3125 0 
L 41.109375 8.59375 
Q 37.3125 3.8125 32.0625 1.1875 
Q 26.8125 -1.421875 20.90625 -1.421875 
Q 13.71875 -1.421875 9.71875 2.515625 
Q 5.71875 6.453125 5.71875 13.484375 
Q 5.71875 14.9375 5.953125 17.140625 
Q 6.203125 19.34375 6.6875 21.6875 
z
" id="DejaVuSans-Oblique-75"/>
      <path d="M 89.796875 33.015625 
L 83.40625 0 
L 74.421875 0 
L 80.71875 32.71875 
Q 81.109375 34.8125 81.296875 36.328125 
Q 81.5 37.84375 81.5 38.921875 
Q 81.5 43.3125 79.046875 45.75 
Q 76.609375 48.1875 72.21875 48.1875 
Q 65.671875 48.1875 60.546875 43.28125 
Q 55.421875 38.375 53.90625 30.515625 
L 47.90625 0 
L 38.921875 0 
L 45.3125 32.71875 
Q 45.703125 34.515625 45.890625 36.046875 
Q 46.09375 37.59375 46.09375 38.8125 
Q 46.09375 43.265625 43.65625 45.71875 
Q 41.21875 48.1875 36.921875 48.1875 
Q 30.28125 48.1875 25.140625 43.28125 
Q 20.015625 38.375 18.5 30.515625 
L 12.5 0 
L 3.515625 0 
L 14.203125 54.6875 
L 23.1875 54.6875 
L 21.484375 46.1875 
Q 25.140625 50.984375 30.046875 53.484375 
Q 34.96875 56 40.578125 56 
Q 46.53125 56 50.359375 52.875 
Q 54.203125 49.75 54.984375 44.1875 
Q 59.078125 49.953125 64.46875 52.96875 
Q 69.875 56 75.875 56 
Q 82.90625 56 86.734375 51.953125 
Q 90.578125 47.90625 90.578125 40.484375 
Q 90.578125 38.875 90.375 36.9375 
Q 90.1875 35.015625 89.796875 33.015625 
z
" id="DejaVuSans-Oblique-6d"/>
      <path d="M 8.59375 75.984375 
L 29.296875 75.984375 
L 29.296875 69 
L 17.578125 69 
L 17.578125 -6.203125 
L 29.296875 -6.203125 
L 29.296875 -13.1875 
L 8.59375 -13.1875 
z
" id="DejaVuSans-5b"/>
      <path d="M 20.609375 0 
L 7.8125 72.90625 
L 17.484375 72.90625 
L 28.078125 10.203125 
L 63.484375 72.90625 
L 74.21875 72.90625 
L 32.078125 0 
z
" id="DejaVuSans-Oblique-56"/>
      <path d="M 30.421875 75.984375 
L 30.421875 -13.1875 
L 9.71875 -13.1875 
L 9.71875 -6.203125 
L 21.390625 -6.203125 
L 21.390625 69 
L 9.71875 69 
L 9.71875 75.984375 
z
" id="DejaVuSans-5d"/>
     </defs>
     <g transform="translate(42.185312 237.83)rotate(-90)scale(0.14 -0.14)">
      <use transform="translate(0 0.015625)" xlink:href="#DejaVuSans-Oblique-75"/>
      <use transform="translate(63.378906 -16.390625)scale(0.7)" xlink:href="#DejaVuSans-Oblique-6d"/>
      <use transform="translate(134.301758 0.015625)" xlink:href="#DejaVuSans-5b"/>
      <use transform="translate(173.31543 0.015625)" xlink:href="#DejaVuSans-Oblique-56"/>
      <use transform="translate(241.723633 0.015625)" xlink:href="#DejaVuSans-5d"/>
     </g>
    </g>
   </g>
   <g id="line2d_23">
    <path clip-path="url(#pc3c6a9e542)" d="M 92.290909 301.595479 
L 93.509582 301.661462 
L 93.915807 301.859411 
L 94.728256 302.585224 
L 95.540704 303.640951 
L 96.353153 304.894628 
L 97.571826 307.204032 
L 100.009173 312.548654 
L 109.352334 335.576714 
L 110.164783 337.622186 
L 110.977232 339.007829 
L 111.789681 339.997574 
L 113.414578 341.449199 
L 115.851925 342.900825 
L 116.258149 343.098774 
L 117.070598 343.296723 
L 117.476822 343.560655 
L 117.883047 344.35245 
L 118.289271 346.068008 
L 119.10172 350.356902 
L 119.507944 351.676561 
L 119.914169 352.402374 
L 120.320393 352.53434 
L 120.726618 352.072459 
L 121.132842 351.148697 
L 121.539066 349.829038 
L 122.75774 344.286467 
L 123.976413 338.875863 
L 124.788862 336.170561 
L 125.60131 334.38902 
L 126.413759 333.26731 
L 127.226208 332.541497 
L 127.632432 332.409531 
L 129.25733 333.333293 
L 129.663554 333.333293 
L 130.069779 333.201327 
L 130.476003 332.805429 
L 131.288452 331.28782 
L 133.725799 325.613284 
L 134.132023 324.953454 
L 135.756921 323.369863 
L 136.163145 323.171914 
L 136.569369 323.369863 
L 137.381818 324.029692 
L 137.788043 324.293624 
L 138.194267 324.359607 
L 138.600491 324.227641 
L 139.006716 323.897726 
L 139.41294 323.30388 
L 140.225389 321.588322 
L 141.444062 318.553105 
L 142.256511 316.969513 
L 143.475184 315.319939 
L 144.287633 314.330194 
L 144.693857 314.000279 
L 145.100082 314.000279 
L 146.318755 315.12199 
L 146.72498 315.319939 
L 147.131204 315.385922 
L 147.537428 315.187973 
L 147.943653 314.792075 
L 148.756102 313.340449 
L 150.787224 309.183522 
L 152.818346 306.082322 
L 153.22457 305.554458 
L 153.630794 305.224543 
L 154.037019 305.224543 
L 155.661916 307.006083 
L 156.068141 307.072066 
L 156.474365 306.9401 
L 156.88059 306.610185 
L 157.693038 305.290526 
L 159.317936 302.255309 
L 161.755283 298.428296 
L 162.161507 297.900432 
L 162.567731 297.6365 
L 162.973956 297.702483 
L 163.38018 298.164364 
L 163.786405 298.890177 
L 164.598853 299.681973 
L 165.005078 299.747955 
L 165.411302 299.61599 
L 165.817527 299.286075 
L 166.629975 298.032398 
L 169.067322 293.87547 
L 171.098444 290.708287 
L 171.504668 290.510338 
L 171.910893 290.576321 
L 172.317117 291.104185 
L 173.129566 292.489828 
L 173.53579 292.819743 
L 173.942015 292.951708 
L 174.348239 292.819743 
L 174.754464 292.489828 
L 175.566912 291.368117 
L 177.19181 288.662815 
L 180.035381 284.175972 
L 180.441605 283.978023 
L 180.84783 284.109989 
L 181.254054 284.637853 
L 181.660278 285.495632 
L 182.066503 286.089479 
L 182.472727 286.419393 
L 182.878952 286.551359 
L 183.285176 286.419393 
L 183.6914 286.089479 
L 184.503849 284.967768 
L 187.753645 279.359214 
L 188.566093 278.105538 
L 188.972318 277.643657 
L 189.378542 277.445708 
L 189.784767 277.577674 
L 190.190991 278.171521 
L 190.597215 279.095283 
L 191.00344 279.689129 
L 191.409664 280.085027 
L 191.815889 280.216993 
L 192.222113 280.085027 
L 193.034562 279.293232 
L 196.690581 273.156814 
L 197.50303 271.837155 
L 197.909255 271.375274 
L 198.315479 271.177325 
L 198.721704 271.375274 
L 199.127928 271.969121 
L 199.940377 273.552712 
L 200.346601 273.882627 
L 200.752826 274.014593 
L 201.15905 273.94861 
L 201.565274 273.618695 
L 202.377723 272.496985 
L 205.221294 267.680227 
L 206.439967 265.634755 
L 206.846192 265.172874 
L 207.252416 265.040908 
L 207.65864 265.172874 
L 209.283538 267.74621 
L 209.689762 267.878176 
L 210.095987 267.74621 
L 210.502211 267.416295 
L 211.31466 266.294584 
L 214.564455 260.817997 
L 215.376904 259.498337 
L 215.783129 259.036456 
L 216.189353 258.838508 
L 216.595577 259.036456 
L 218.220475 261.609793 
L 218.626699 261.741759 
L 219.032924 261.609793 
L 219.439148 261.279878 
L 220.251597 260.158167 
L 223.501392 254.68158 
L 224.313841 253.36192 
L 224.720066 252.900039 
L 225.12629 252.70209 
L 225.532514 252.900039 
L 225.938739 253.493886 
L 226.751188 255.077478 
L 227.157412 255.473376 
L 227.563636 255.605341 
L 227.969861 255.473376 
L 228.376085 255.143461 
L 229.188534 254.02175 
L 232.438329 248.545163 
L 233.250778 247.225503 
L 233.657002 246.763622 
L 234.063227 246.565673 
L 234.469451 246.763622 
L 236.094349 249.336958 
L 236.500573 249.468924 
L 236.906798 249.336958 
L 237.313022 249.007043 
L 238.125471 247.885333 
L 241.375266 242.408745 
L 242.187715 241.089086 
L 242.593939 240.627205 
L 243.000164 240.429256 
L 243.406388 240.627205 
L 245.031286 243.200541 
L 245.43751 243.332507 
L 245.843735 243.200541 
L 246.249959 242.870626 
L 247.468632 241.155069 
L 249.499754 237.657971 
L 251.124652 234.952669 
L 251.530876 234.490788 
L 251.937101 234.292839 
L 252.343325 234.490788 
L 252.74955 235.150617 
L 253.155774 236.074379 
L 253.561998 236.668226 
L 253.968223 237.064124 
L 254.374447 237.19609 
L 254.780672 237.064124 
L 255.59312 236.272328 
L 259.24914 230.135911 
L 260.061589 228.816251 
L 260.467813 228.35437 
L 260.874038 228.222405 
L 261.280262 228.35437 
L 261.686486 229.0142 
L 262.092711 229.937962 
L 262.498935 230.531809 
L 262.90516 230.927707 
L 263.311384 231.059673 
L 263.717609 230.927707 
L 264.530057 230.135911 
L 265.748731 228.222405 
L 267.779853 224.725307 
L 268.998526 222.679834 
L 269.40475 222.217953 
L 269.810975 222.085987 
L 270.217199 222.217953 
L 270.623423 222.877783 
L 271.435872 224.461375 
L 271.842097 224.79129 
L 272.248321 224.923256 
L 272.654545 224.857273 
L 273.466994 223.999494 
L 274.685667 222.085987 
L 276.71679 218.588889 
L 277.935463 216.543417 
L 278.341687 216.147519 
L 278.747912 215.94957 
L 279.154136 216.147519 
L 279.56036 216.741366 
L 280.372809 218.324957 
L 280.779034 218.720855 
L 281.185258 218.786838 
L 281.591482 218.720855 
L 281.997707 218.39094 
L 282.810156 217.26923 
L 285.653726 212.452472 
L 286.8724 210.472983 
L 287.278624 210.011102 
L 287.684848 209.813153 
L 288.091073 210.011102 
L 288.497297 210.604949 
L 289.309746 212.18854 
L 289.715971 212.584438 
L 290.122195 212.716404 
L 290.528419 212.584438 
L 290.934644 212.254523 
L 291.747093 211.132813 
L 294.590663 206.316055 
L 295.809337 204.336566 
L 296.215561 203.874685 
L 296.621785 203.676736 
L 297.02801 203.874685 
L 297.434234 204.468532 
L 298.246683 206.052123 
L 298.652907 206.448021 
L 299.059132 206.579987 
L 299.465356 206.448021 
L 299.871581 206.118106 
L 300.684029 204.996395 
L 303.5276 200.179638 
L 304.746274 198.200148 
L 305.152498 197.738268 
L 305.558722 197.540319 
L 305.964947 197.738268 
L 306.371171 198.332114 
L 307.18362 199.915706 
L 307.589844 200.311604 
L 307.996069 200.44357 
L 308.402293 200.311604 
L 308.808518 199.981689 
L 309.620966 198.859978 
L 312.870762 193.383391 
L 313.68321 192.063731 
L 314.089435 191.60185 
L 314.495659 191.403901 
L 314.901884 191.60185 
L 316.526781 194.175187 
L 316.933006 194.307153 
L 317.33923 194.175187 
L 317.745455 193.845272 
L 318.964128 192.129714 
L 320.99525 188.632616 
L 322.620147 185.927314 
L 323.026372 185.465433 
L 323.432596 185.267484 
L 323.838821 185.465433 
L 324.245045 186.125263 
L 324.651269 187.049025 
L 325.057494 187.642871 
L 325.463718 188.038769 
L 325.869943 188.170735 
L 326.276167 188.038769 
L 327.088616 187.246974 
L 330.744636 181.110556 
L 331.557084 179.790897 
L 331.963309 179.329016 
L 332.369533 179.19705 
L 332.775758 179.329016 
L 333.181982 179.988846 
L 333.588206 180.912607 
L 333.994431 181.506454 
L 334.400655 181.902352 
L 334.80688 182.034318 
L 335.213104 181.902352 
L 336.025553 181.110556 
L 337.244226 179.19705 
L 339.275348 175.699952 
L 340.494021 173.65448 
L 340.900246 173.192599 
L 341.30647 173.060633 
L 341.712695 173.192599 
L 342.118919 173.852429 
L 342.931368 175.43602 
L 343.337592 175.765935 
L 343.743817 175.897901 
L 344.150041 175.831918 
L 344.96249 174.974139 
L 346.181163 173.060633 
L 348.212285 169.563535 
L 349.430958 167.518062 
L 349.837183 167.122165 
L 350.243407 166.924216 
L 350.649631 167.122165 
L 351.055856 167.716011 
L 351.868305 169.299603 
L 352.274529 169.695501 
L 352.680753 169.827467 
L 353.086978 169.695501 
L 353.493202 169.365586 
L 354.305651 168.243875 
L 357.149222 163.427118 
L 358.367895 161.447628 
L 358.77412 160.985747 
L 359.180344 160.787798 
L 359.586568 160.985747 
L 359.992793 161.579594 
L 360.805242 163.163186 
L 361.211466 163.559084 
L 361.61769 163.69105 
L 362.023915 163.559084 
L 362.430139 163.229169 
L 363.242588 162.107458 
L 366.086159 157.2907 
L 367.304832 155.311211 
L 367.711057 154.84933 
L 368.117281 154.651381 
L 368.523505 154.84933 
L 368.92973 155.443177 
L 369.742179 157.026768 
L 370.148403 157.422666 
L 370.554627 157.554632 
L 370.960852 157.422666 
L 371.367076 157.092751 
L 372.179525 155.971041 
L 375.42932 150.494453 
L 376.241769 149.174794 
L 376.647993 148.712913 
L 377.054218 148.514964 
L 377.460442 148.712913 
L 377.866667 149.30676 
L 378.679115 150.890351 
L 379.08534 151.286249 
L 379.491564 151.418215 
L 379.897789 151.286249 
L 380.304013 150.956334 
L 381.116462 149.834624 
L 384.366257 144.358036 
L 385.178706 143.038377 
L 385.58493 142.576496 
L 385.991155 142.378547 
L 386.397379 142.576496 
L 388.022277 145.149832 
L 388.428501 145.281798 
L 388.834726 145.149832 
L 389.24095 144.819917 
L 390.459623 143.10436 
L 392.490745 139.607262 
L 394.115643 136.901959 
L 394.521867 136.440079 
L 394.928092 136.24213 
L 395.334316 136.440079 
L 395.740541 137.099908 
L 396.146765 138.02367 
L 396.552989 138.617517 
L 396.959214 139.013415 
L 397.365438 139.145381 
L 397.771663 139.013415 
L 398.584111 138.221619 
L 402.240131 132.085202 
L 403.05258 130.765542 
L 403.458804 130.303661 
L 403.865029 130.171695 
L 404.271253 130.303661 
L 404.677477 130.963491 
L 405.083702 131.887253 
L 405.489926 132.4811 
L 405.896151 132.876998 
L 406.302375 133.008964 
L 406.7086 132.876998 
L 407.521048 132.085202 
L 408.739722 130.171695 
L 410.770844 126.674597 
L 411.989517 124.629125 
L 412.395741 124.167244 
L 412.801966 124.035278 
L 413.20819 124.233227 
L 413.614414 124.827074 
L 414.426863 126.410666 
L 414.833088 126.74058 
L 415.239312 126.872546 
L 415.645536 126.806563 
L 416.051761 126.476648 
L 416.86421 125.354938 
L 419.707781 120.53818 
L 420.926454 118.492708 
L 421.332678 118.09681 
L 421.738903 117.898861 
L 422.145127 118.09681 
L 422.551351 118.690657 
L 423.3638 120.274248 
L 423.770025 120.670146 
L 424.176249 120.802112 
L 424.582473 120.670146 
L 424.988698 120.340231 
L 425.801147 119.218521 
L 428.644717 114.401763 
L 429.863391 112.422274 
L 430.269615 111.960393 
L 430.675839 111.762444 
L 431.082064 111.960393 
L 431.488288 112.55424 
L 432.300737 114.137831 
L 432.706962 114.533729 
L 433.113186 114.665695 
L 433.51941 114.533729 
L 433.925635 114.203814 
L 434.738084 113.082103 
L 437.581654 108.265346 
L 438.800328 106.285856 
L 439.206552 105.823976 
L 439.612776 105.626027 
L 440.019001 105.823976 
L 440.425225 106.417822 
L 441.237674 108.001414 
L 441.643898 108.397312 
L 442.050123 108.529278 
L 442.456347 108.397312 
L 442.862572 108.067397 
L 443.67502 106.945686 
L 446.924816 101.469099 
L 447.737265 100.149439 
L 448.143489 99.687558 
L 448.549713 99.489609 
L 448.955938 99.687558 
L 449.362162 100.281405 
L 450.174611 101.864997 
L 450.580835 102.260895 
L 450.98706 102.392861 
L 451.393284 102.260895 
L 451.799509 101.93098 
L 452.611957 100.809269 
L 455.861753 95.332682 
L 456.674201 94.013022 
L 457.080426 93.551141 
L 457.48665 93.353192 
L 457.892875 93.551141 
L 459.517772 96.124477 
L 459.923997 96.256443 
L 460.330221 96.124477 
L 461.14267 95.332682 
L 464.79869 89.196264 
L 465.611138 87.876605 
L 466.017363 87.414724 
L 466.423587 87.216775 
L 466.829812 87.414724 
L 467.236036 88.074554 
L 467.64226 88.998316 
L 468.048485 89.592162 
L 468.454709 89.98806 
L 468.860934 90.120026 
L 469.267158 89.98806 
L 470.079607 89.196264 
L 473.735627 83.059847 
L 474.548075 81.740188 
L 474.9543 81.278307 
L 475.360524 81.146341 
L 475.766749 81.278307 
L 476.172973 81.938137 
L 476.579197 82.861898 
L 476.985422 83.455745 
L 477.391646 83.851643 
L 477.797871 83.983609 
L 478.204095 83.917626 
L 479.016544 83.059847 
L 480.235217 81.146341 
L 482.266339 77.649243 
L 483.485012 75.60377 
L 483.891237 75.14189 
L 484.297461 75.009924 
L 484.703686 75.207873 
L 485.10991 75.801719 
L 485.922359 77.385311 
L 486.328583 77.715226 
L 486.734808 77.847192 
L 487.141032 77.781209 
L 487.547256 77.451294 
L 488.359705 76.329583 
L 491.203276 71.512826 
L 492.421949 69.467353 
L 492.828174 69.071455 
L 493.234398 68.873506 
L 493.640622 69.071455 
L 494.046847 69.665302 
L 494.859296 71.248894 
L 495.26552 71.644792 
L 495.671744 71.776758 
L 496.077969 71.644792 
L 496.484193 71.314877 
L 497.296642 70.193166 
L 498.109091 68.873506 
L 498.109091 68.873506 
" style="fill:none;stroke:#bf00bf;stroke-linecap:square;stroke-width:1.5;"/>
   </g>
   <g id="line2d_24">
    <path clip-path="url(#pc3c6a9e542)" d="M 92.290909 301.595479 
L 92.697133 301.595479 
L 93.103358 301.595479 
L 93.509582 301.925394 
L 94.322031 303.047105 
L 95.946929 306.082322 
L 97.978051 310.569164 
L 100.415397 316.375667 
L 106.508763 331.485769 
L 110.571007 341.779114 
L 112.195905 345.474161 
L 113.820803 348.509378 
L 116.258149 352.270408 
L 116.664373 352.336391 
L 118.695495 355.701523 
L 119.10172 355.899472 
L 119.507944 355.569557 
L 119.914169 354.579812 
L 120.726618 350.818782 
L 123.163964 336.500476 
L 123.976413 333.927139 
L 124.382637 333.069361 
L 125.195086 332.145599 
L 125.60131 332.013633 
L 126.413759 332.079616 
L 127.632432 333.003378 
L 128.444881 333.72919 
L 128.851106 333.861156 
L 129.25733 333.795173 
L 129.663554 333.399276 
L 130.069779 332.673463 
L 130.882228 330.232093 
L 132.100901 326.009182 
L 132.91335 324.227641 
L 133.319574 323.699777 
L 134.132023 323.171914 
L 134.538247 323.171914 
L 135.350696 323.501828 
L 136.163145 324.161658 
L 136.975594 324.821488 
L 137.381818 324.953454 
L 137.788043 324.953454 
L 138.194267 324.557556 
L 138.600491 323.897726 
L 139.41294 321.588322 
L 140.631613 317.497377 
L 141.444062 315.715837 
L 141.850287 315.12199 
L 142.662735 314.594126 
L 143.06896 314.528143 
L 143.881409 314.726092 
L 145.912531 316.111735 
L 146.318755 316.111735 
L 146.72498 315.913786 
L 147.131204 315.451905 
L 147.943653 313.538398 
L 149.162326 309.777369 
L 149.974775 308.061811 
L 150.787224 307.006083 
L 151.599672 306.676168 
L 152.412121 306.742151 
L 153.22457 307.204032 
L 154.849468 308.127794 
L 155.255692 308.127794 
L 155.661916 307.863862 
L 156.068141 307.335998 
L 156.474365 306.544202 
L 158.505487 301.331547 
L 159.317936 300.143853 
L 159.724161 299.813938 
L 160.536609 299.61599 
L 160.942834 299.61599 
L 161.755283 299.945904 
L 162.567731 300.407785 
L 163.38018 300.869666 
L 163.786405 301.001632 
L 164.192629 300.869666 
L 164.598853 300.605734 
L 165.005078 300.011887 
L 165.411302 299.220092 
L 167.0362 295.129147 
L 167.848649 293.87547 
L 168.661097 293.149657 
L 169.067322 293.017691 
L 169.879771 293.017691 
L 170.692219 293.347606 
L 172.317117 294.271368 
L 172.723342 294.337351 
L 173.129566 294.205385 
L 173.53579 293.87547 
L 173.942015 293.281623 
L 174.754464 291.4341 
L 175.973137 288.596832 
L 176.785586 287.409138 
L 177.598034 286.815291 
L 178.004259 286.683325 
L 178.816708 286.749308 
L 179.629156 287.079223 
L 180.441605 287.541104 
L 181.254054 287.937002 
L 181.660278 288.002985 
L 182.066503 287.871019 
L 182.472727 287.475121 
L 182.878952 286.881274 
L 183.6914 285.033751 
L 184.910074 282.262466 
L 185.722523 281.140755 
L 186.534971 280.612891 
L 186.941196 280.480925 
L 187.753645 280.546908 
L 188.566093 280.876823 
L 189.378542 281.338704 
L 190.190991 281.734602 
L 190.597215 281.734602 
L 191.00344 281.602636 
L 191.409664 281.206738 
L 191.815889 280.612891 
L 192.628337 278.765368 
L 193.847011 276.060065 
L 194.659459 274.938355 
L 195.471908 274.410491 
L 196.284357 274.278525 
L 197.50303 274.674423 
L 199.127928 275.598185 
L 199.534152 275.598185 
L 199.940377 275.466219 
L 200.346601 275.070321 
L 201.15905 273.552712 
L 202.783948 269.857665 
L 203.596396 268.801938 
L 204.408845 268.274074 
L 204.81507 268.142108 
L 205.627518 268.208091 
L 206.439967 268.538006 
L 207.65864 269.263818 
L 208.471089 269.461767 
L 208.877314 269.263818 
L 209.283538 268.867921 
L 209.689762 268.274074 
L 210.502211 266.42655 
L 211.720885 263.721248 
L 212.533333 262.66552 
L 213.345782 262.137657 
L 213.752007 262.005691 
L 214.564455 262.071674 
L 215.376904 262.401588 
L 216.595577 263.127401 
L 217.408026 263.32535 
L 217.814251 263.127401 
L 218.220475 262.731503 
L 218.626699 262.137657 
L 219.439148 260.290133 
L 220.251597 258.376627 
L 221.064046 256.990984 
L 221.876495 256.199188 
L 222.688943 255.869273 
L 223.501392 255.935256 
L 224.313841 256.265171 
L 225.532514 256.990984 
L 226.344963 257.188933 
L 226.751188 256.990984 
L 227.157412 256.595086 
L 227.563636 256.001239 
L 228.376085 254.153716 
L 229.188534 252.240209 
L 230.000983 250.854567 
L 230.813432 250.062771 
L 231.62588 249.732856 
L 232.438329 249.798839 
L 234.875676 251.052516 
L 235.2819 251.052516 
L 235.688124 250.854567 
L 236.094349 250.458669 
L 236.500573 249.864822 
L 237.313022 248.017299 
L 238.531695 245.311997 
L 239.344144 244.256269 
L 240.156593 243.728405 
L 240.969042 243.596439 
L 242.187715 244.05832 
L 243.812613 244.916099 
L 244.218837 244.916099 
L 244.625061 244.784133 
L 245.031286 244.388235 
L 245.843735 242.870626 
L 247.468632 239.175579 
L 248.281081 238.119852 
L 249.09353 237.591988 
L 249.905979 237.526005 
L 250.718428 237.723954 
L 251.937101 238.383784 
L 252.74955 238.779681 
L 253.155774 238.779681 
L 253.561998 238.647715 
L 253.968223 238.251818 
L 254.780672 236.734209 
L 256.405569 233.039162 
L 257.218018 231.983434 
L 258.030467 231.455571 
L 258.842916 231.389588 
L 259.655364 231.587537 
L 260.874038 232.247366 
L 261.686486 232.643264 
L 262.092711 232.643264 
L 262.498935 232.511298 
L 262.90516 232.1154 
L 263.717609 230.597792 
L 265.342506 226.902745 
L 266.154955 225.847017 
L 266.967404 225.319153 
L 267.779853 225.25317 
L 268.592301 225.451119 
L 269.810975 226.110949 
L 270.623423 226.506847 
L 271.029648 226.506847 
L 271.435872 226.374881 
L 271.842097 225.978983 
L 272.654545 224.461375 
L 273.873219 221.558123 
L 274.685667 220.172481 
L 275.498116 219.380685 
L 275.904341 219.182736 
L 276.71679 219.116753 
L 277.529238 219.314702 
L 278.747912 219.974532 
L 279.56036 220.37043 
L 279.966585 220.37043 
L 280.372809 220.238464 
L 280.779034 219.842566 
L 281.591482 218.324957 
L 282.810156 215.421706 
L 283.622604 214.036064 
L 284.028829 213.574183 
L 284.841278 213.112302 
L 285.247502 212.980336 
L 286.059951 213.046319 
L 286.8724 213.376234 
L 288.091073 214.102047 
L 288.903522 214.299996 
L 289.309746 214.102047 
L 289.715971 213.706149 
L 290.122195 213.112302 
L 290.934644 211.198796 
L 291.747093 209.285289 
L 292.559541 207.96563 
L 293.37199 207.173834 
L 294.184439 206.843919 
L 294.996888 206.909902 
L 295.809337 207.239817 
L 297.02801 207.96563 
L 297.840459 208.163578 
L 298.246683 207.96563 
L 298.652907 207.569732 
L 299.059132 206.975885 
L 299.871581 205.128361 
L 300.684029 203.214855 
L 301.496478 201.829212 
L 302.308927 201.037417 
L 303.121376 200.707502 
L 303.933825 200.773485 
L 306.371171 202.027161 
L 306.777396 202.027161 
L 307.18362 201.829212 
L 307.589844 201.433314 
L 307.996069 200.839468 
L 308.808518 198.991944 
L 309.620966 197.078438 
L 310.433415 195.692795 
L 311.245864 194.900999 
L 311.652088 194.70305 
L 312.464537 194.571084 
L 313.68321 195.032965 
L 315.308108 195.890744 
L 315.714333 195.890744 
L 316.120557 195.692795 
L 316.526781 195.36288 
L 317.33923 193.845272 
L 318.964128 190.150225 
L 319.776577 189.094497 
L 320.589025 188.566633 
L 321.401474 188.50065 
L 322.213923 188.698599 
L 323.432596 189.358429 
L 324.245045 189.754327 
L 324.651269 189.754327 
L 325.057494 189.622361 
L 325.463718 189.226463 
L 326.276167 187.708854 
L 327.901065 184.013808 
L 328.713514 182.95808 
L 329.525962 182.430216 
L 330.338411 182.364233 
L 331.15086 182.562182 
L 332.369533 183.222012 
L 333.181982 183.61791 
L 333.588206 183.61791 
L 333.994431 183.485944 
L 334.400655 183.090046 
L 335.213104 181.572437 
L 336.838002 177.87739 
L 337.65045 176.821663 
L 338.462899 176.293799 
L 339.275348 176.227816 
L 340.087797 176.425765 
L 341.30647 177.085595 
L 342.118919 177.481492 
L 342.525143 177.481492 
L 342.931368 177.349527 
L 343.337592 176.953629 
L 344.150041 175.43602 
L 345.368714 172.532769 
L 346.181163 171.147126 
L 346.993612 170.355331 
L 347.399836 170.157382 
L 348.212285 170.091399 
L 349.024734 170.289348 
L 350.243407 170.949177 
L 351.055856 171.345075 
L 351.46208 171.411058 
L 351.868305 171.213109 
L 352.274529 170.817211 
L 353.086978 169.299603 
L 354.305651 166.396352 
L 355.1181 165.010709 
L 355.524324 164.548828 
L 356.336773 164.086947 
L 356.742998 163.954981 
L 357.555446 164.020964 
L 358.367895 164.350879 
L 359.586568 165.076692 
L 360.399017 165.274641 
L 360.805242 165.076692 
L 361.211466 164.680794 
L 361.61769 164.086947 
L 362.430139 162.173441 
L 363.242588 160.259935 
L 364.055037 158.940275 
L 364.867486 158.148479 
L 365.679934 157.818564 
L 366.492383 157.884547 
L 367.304832 158.214462 
L 368.523505 158.940275 
L 369.335954 159.138224 
L 369.742179 158.940275 
L 370.148403 158.544377 
L 370.554627 157.95053 
L 371.367076 156.103007 
L 372.179525 154.1895 
L 372.991974 152.803858 
L 373.804423 152.012062 
L 374.616871 151.682147 
L 375.42932 151.74813 
L 377.866667 153.001807 
L 378.272891 153.001807 
L 378.679115 152.803858 
L 379.08534 152.40796 
L 379.491564 151.814113 
L 380.304013 149.96659 
L 381.116462 148.053083 
L 381.928911 146.667441 
L 382.74136 145.875645 
L 383.147584 145.677696 
L 383.960033 145.54573 
L 385.178706 146.007611 
L 386.803604 146.865389 
L 387.209828 146.865389 
L 387.616052 146.733424 
L 388.022277 146.337526 
L 388.834726 144.819917 
L 390.459623 141.12487 
L 391.272072 140.069142 
L 392.084521 139.541279 
L 392.89697 139.475296 
L 393.709419 139.673245 
L 394.928092 140.333074 
L 395.740541 140.728972 
L 396.146765 140.728972 
L 396.552989 140.597006 
L 396.959214 140.201108 
L 397.771663 138.6835 
L 399.39656 134.988453 
L 400.209009 133.932725 
L 401.021458 133.404861 
L 401.833907 133.338878 
L 402.646355 133.536827 
L 403.865029 134.196657 
L 404.677477 134.592555 
L 405.083702 134.592555 
L 405.489926 134.460589 
L 405.896151 134.064691 
L 406.7086 132.547083 
L 408.333497 128.852036 
L 409.145946 127.796308 
L 409.958395 127.268444 
L 410.770844 127.202461 
L 411.583292 127.40041 
L 412.801966 128.06024 
L 413.614414 128.456138 
L 414.020639 128.456138 
L 414.426863 128.324172 
L 414.833088 127.928274 
L 415.645536 126.410666 
L 416.86421 123.507414 
L 417.676658 122.121772 
L 418.489107 121.329976 
L 418.895332 121.132027 
L 419.707781 121.066044 
L 420.520229 121.263993 
L 421.738903 121.923823 
L 422.551351 122.319721 
L 422.957576 122.385704 
L 423.3638 122.187755 
L 423.770025 121.791857 
L 424.582473 120.274248 
L 425.801147 117.370997 
L 426.613595 115.985355 
L 427.01982 115.523474 
L 427.832269 115.061593 
L 428.238493 114.929627 
L 429.050942 114.99561 
L 429.863391 115.325525 
L 431.082064 116.051338 
L 431.894513 116.249286 
L 432.300737 116.051338 
L 432.706962 115.65544 
L 433.113186 115.061593 
L 433.925635 113.148086 
L 434.738084 111.23458 
L 435.550532 109.91492 
L 436.362981 109.123125 
L 437.17543 108.79321 
L 437.987879 108.859193 
L 438.800328 109.189108 
L 440.019001 109.91492 
L 440.83145 110.112869 
L 441.237674 109.91492 
L 441.643898 109.519022 
L 442.050123 108.925176 
L 442.862572 107.077652 
L 443.67502 105.164146 
L 444.487469 103.778503 
L 445.299918 102.986707 
L 446.112367 102.656792 
L 446.924816 102.722775 
L 449.362162 103.976452 
L 449.768387 103.976452 
L 450.174611 103.778503 
L 450.580835 103.382605 
L 450.98706 102.788758 
L 451.799509 100.941235 
L 452.611957 99.027729 
L 453.424406 97.642086 
L 454.236855 96.85029 
L 454.643079 96.652341 
L 455.455528 96.586358 
L 456.267977 96.784307 
L 458.299099 97.840035 
L 458.705324 97.840035 
L 459.111548 97.708069 
L 459.517772 97.312171 
L 460.330221 95.794563 
L 461.955119 92.099516 
L 462.767568 91.043788 
L 463.580016 90.515924 
L 464.392465 90.449941 
L 465.204914 90.64789 
L 466.423587 91.30772 
L 467.236036 91.703618 
L 467.64226 91.703618 
L 468.048485 91.571652 
L 468.454709 91.175754 
L 469.267158 89.658145 
L 470.892056 85.963098 
L 471.704505 84.907371 
L 472.516953 84.379507 
L 473.329402 84.313524 
L 474.141851 84.511473 
L 475.360524 85.171303 
L 476.172973 85.567201 
L 476.579197 85.567201 
L 476.985422 85.435235 
L 477.391646 85.039337 
L 478.204095 83.521728 
L 479.828993 79.826681 
L 480.641441 78.770954 
L 481.45389 78.24309 
L 482.266339 78.177107 
L 483.078788 78.375056 
L 484.297461 79.034885 
L 485.10991 79.430783 
L 485.516134 79.430783 
L 485.922359 79.298817 
L 486.328583 78.902919 
L 487.141032 77.385311 
L 488.359705 74.48206 
L 489.172154 73.096417 
L 489.578378 72.634536 
L 490.390827 72.172655 
L 490.797052 72.04069 
L 491.6095 72.106672 
L 492.421949 72.436587 
L 493.640622 73.1624 
L 494.453071 73.360349 
L 494.859296 73.1624 
L 495.26552 72.766502 
L 496.077969 71.248894 
L 497.296642 68.345643 
L 498.109091 66.96 
L 498.109091 66.96 
" style="fill:none;stroke:#00bfbf;stroke-linecap:square;stroke-width:1.5;"/>
   </g>
   <g id="line2d_25">
    <path clip-path="url(#pc3c6a9e542)" d="M 92.290909 301.595479 
L 92.697133 301.595479 
L 93.509582 306.346254 
L 94.322031 309.513437 
L 95.946929 314.792075 
L 98.7905 322.841999 
L 108.539885 347.915531 
L 114.633251 362.563753 
L 117.476822 367.908374 
L 118.289271 369.162051 
L 118.695495 369.36 
L 119.10172 369.030085 
L 119.507944 368.106323 
L 120.320393 364.27931 
L 122.75774 349.961004 
L 123.570188 347.387667 
L 123.976413 346.529889 
L 124.788862 345.606127 
L 125.195086 345.474161 
L 126.007535 345.540144 
L 127.226208 346.463906 
L 128.038657 347.189719 
L 128.444881 347.321684 
L 128.851106 347.255702 
L 129.25733 346.859804 
L 129.663554 346.133991 
L 130.476003 343.692621 
L 131.694676 339.535693 
L 132.507125 337.688169 
L 132.91335 337.160305 
L 133.725799 336.632442 
L 134.132023 336.632442 
L 134.944472 336.962357 
L 136.569369 338.282016 
L 136.975594 338.413982 
L 137.381818 338.413982 
L 137.788043 338.084067 
L 138.194267 337.358254 
L 138.600491 336.36851 
L 140.631613 329.968161 
L 141.444062 328.582518 
L 142.256511 328.054654 
L 142.662735 327.988671 
L 143.475184 328.18662 
L 145.506306 329.572263 
L 145.912531 329.572263 
L 146.318755 329.374314 
L 146.72498 328.912433 
L 147.537428 326.998926 
L 149.162326 322.248152 
L 149.974775 320.928492 
L 150.787224 320.268662 
L 151.193448 320.136696 
L 151.599672 320.136696 
L 152.412121 320.400628 
L 154.443243 321.588322 
L 154.849468 321.588322 
L 155.255692 321.32439 
L 155.661916 320.796526 
L 156.068141 320.004731 
L 158.099263 314.792075 
L 158.911712 313.604381 
L 159.724161 313.142501 
L 160.536609 313.076518 
L 161.349058 313.406432 
L 162.161507 313.868313 
L 162.973956 314.330194 
L 163.38018 314.46216 
L 163.786405 314.330194 
L 164.192629 314.066262 
L 164.598853 313.472415 
L 165.005078 312.68062 
L 166.629975 308.589675 
L 167.442424 307.335998 
L 168.254873 306.676168 
L 168.661097 306.47822 
L 169.473546 306.47822 
L 170.285995 306.808134 
L 171.910893 307.731896 
L 172.317117 307.797879 
L 172.723342 307.665913 
L 173.129566 307.335998 
L 173.53579 306.742151 
L 173.942015 305.950356 
L 175.160688 302.915139 
L 175.973137 301.39753 
L 176.379361 300.869666 
L 177.19181 300.275819 
L 177.598034 300.143853 
L 178.410483 300.209836 
L 179.222932 300.539751 
L 180.035381 301.001632 
L 180.84783 301.39753 
L 181.254054 301.463513 
L 181.660278 301.331547 
L 182.066503 300.935649 
L 182.472727 300.341802 
L 183.285176 298.494279 
L 184.503849 295.722994 
L 185.316298 294.601283 
L 186.128747 294.073419 
L 186.534971 293.941453 
L 187.34742 294.007436 
L 188.159869 294.337351 
L 188.972318 294.799232 
L 189.784767 295.19513 
L 190.190991 295.261113 
L 190.597215 295.063164 
L 191.00344 294.733249 
L 191.815889 293.21564 
L 193.440786 289.520593 
L 194.253235 288.398883 
L 195.065684 287.871019 
L 195.878133 287.805036 
L 196.690581 288.002985 
L 198.721704 289.058713 
L 199.127928 289.058713 
L 199.534152 288.926747 
L 199.940377 288.530849 
L 200.752826 287.01324 
L 202.377723 283.318193 
L 203.190172 282.262466 
L 204.002621 281.734602 
L 204.408845 281.602636 
L 205.221294 281.668619 
L 206.033743 281.998534 
L 207.65864 282.922295 
L 208.064865 282.922295 
L 208.471089 282.724346 
L 208.877314 282.394432 
L 209.689762 280.876823 
L 211.31466 277.181776 
L 212.127109 276.126048 
L 212.939558 275.598185 
L 213.345782 275.466219 
L 214.158231 275.532202 
L 214.97068 275.862117 
L 216.595577 276.785878 
L 217.001802 276.785878 
L 217.408026 276.587929 
L 217.814251 276.192031 
L 218.220475 275.598185 
L 219.032924 273.750661 
L 220.251597 271.045359 
L 221.064046 269.989631 
L 221.876495 269.461767 
L 222.282719 269.329801 
L 223.095168 269.395784 
L 225.532514 270.649461 
L 225.938739 270.649461 
L 226.344963 270.451512 
L 226.751188 270.055614 
L 227.157412 269.461767 
L 227.969861 267.614244 
L 229.188534 264.908942 
L 230.000983 263.853214 
L 230.813432 263.32535 
L 231.62588 263.193384 
L 232.844554 263.655265 
L 234.469451 264.513044 
L 234.875676 264.513044 
L 235.2819 264.315095 
L 235.688124 263.98518 
L 236.500573 262.467571 
L 238.125471 258.772525 
L 238.93792 257.716797 
L 239.750369 257.188933 
L 240.562817 257.12295 
L 241.375266 257.320899 
L 243.406388 258.376627 
L 243.812613 258.376627 
L 244.218837 258.244661 
L 244.625061 257.848763 
L 245.43751 256.331154 
L 247.062408 252.636107 
L 247.874857 251.58038 
L 248.687305 251.052516 
L 249.499754 250.986533 
L 250.312203 251.184482 
L 251.530876 251.844312 
L 252.343325 252.240209 
L 252.74955 252.240209 
L 253.155774 252.108244 
L 253.561998 251.712346 
L 254.374447 250.194737 
L 255.999345 246.49969 
L 256.811794 245.443962 
L 257.624242 244.916099 
L 258.436691 244.850116 
L 259.24914 245.048065 
L 260.467813 245.707894 
L 261.280262 246.103792 
L 261.686486 246.103792 
L 262.092711 245.971826 
L 262.498935 245.575928 
L 263.311384 244.05832 
L 264.936282 240.363273 
L 265.748731 239.307545 
L 266.561179 238.779681 
L 267.373628 238.713698 
L 268.186077 238.911647 
L 269.40475 239.571477 
L 270.217199 239.967375 
L 270.623423 239.967375 
L 271.029648 239.835409 
L 271.435872 239.439511 
L 272.248321 237.921903 
L 273.466994 235.018652 
L 274.279443 233.633009 
L 274.685667 233.171128 
L 275.498116 232.709247 
L 275.904341 232.577281 
L 276.71679 232.643264 
L 277.529238 232.973179 
L 278.747912 233.698992 
L 279.56036 233.896941 
L 279.966585 233.698992 
L 280.372809 233.303094 
L 281.185258 231.785485 
L 282.403931 228.882234 
L 283.21638 227.496592 
L 284.028829 226.770779 
L 284.841278 226.440864 
L 285.653726 226.506847 
L 286.466175 226.836762 
L 287.684848 227.562575 
L 288.497297 227.760524 
L 288.903522 227.562575 
L 289.309746 227.166677 
L 289.715971 226.57283 
L 290.528419 224.659324 
L 291.340868 222.745817 
L 292.153317 221.426158 
L 292.965766 220.634362 
L 293.778215 220.304447 
L 294.590663 220.37043 
L 295.403112 220.700345 
L 297.02801 221.624106 
L 297.434234 221.624106 
L 297.840459 221.426158 
L 298.246683 221.03026 
L 298.652907 220.436413 
L 299.465356 218.588889 
L 300.277805 216.675383 
L 301.090254 215.28974 
L 301.902703 214.497945 
L 302.308927 214.299996 
L 303.121376 214.16803 
L 304.340049 214.629911 
L 305.964947 215.487689 
L 306.371171 215.487689 
L 306.777396 215.28974 
L 307.18362 214.893842 
L 307.589844 214.299996 
L 308.402293 212.452472 
L 309.620966 209.74717 
L 310.433415 208.691442 
L 311.245864 208.163578 
L 312.058313 208.097595 
L 312.870762 208.295544 
L 314.901884 209.351272 
L 315.308108 209.351272 
L 315.714333 209.219306 
L 316.120557 208.823408 
L 316.933006 207.3058 
L 318.557903 203.610753 
L 319.370352 202.555025 
L 320.182801 202.027161 
L 320.99525 201.961178 
L 321.807699 202.159127 
L 323.026372 202.818957 
L 323.838821 203.214855 
L 324.245045 203.214855 
L 324.651269 203.082889 
L 325.057494 202.686991 
L 325.869943 201.169383 
L 327.49484 197.474336 
L 328.307289 196.418608 
L 329.119738 195.890744 
L 329.932187 195.824761 
L 330.744636 196.02271 
L 331.963309 196.68254 
L 332.775758 197.078438 
L 333.181982 197.078438 
L 333.588206 196.946472 
L 333.994431 196.550574 
L 334.80688 195.032965 
L 336.431777 191.337918 
L 337.244226 190.282191 
L 338.056675 189.754327 
L 338.869124 189.688344 
L 339.681572 189.886293 
L 340.900246 190.546123 
L 341.712695 190.942021 
L 342.118919 190.942021 
L 342.525143 190.810055 
L 342.931368 190.414157 
L 343.743817 188.896548 
L 344.96249 185.993297 
L 345.774939 184.607654 
L 346.181163 184.145774 
L 346.993612 183.683893 
L 347.399836 183.551927 
L 348.212285 183.61791 
L 349.024734 183.947825 
L 350.243407 184.673637 
L 351.055856 184.871586 
L 351.46208 184.673637 
L 351.868305 184.277739 
L 352.680753 182.760131 
L 353.899427 179.85688 
L 354.711876 178.471237 
L 355.524324 177.745424 
L 356.336773 177.415509 
L 357.149222 177.481492 
L 357.961671 177.811407 
L 359.180344 178.53722 
L 359.992793 178.735169 
L 360.399017 178.53722 
L 360.805242 178.141322 
L 361.211466 177.547475 
L 362.023915 175.699952 
L 362.836364 173.786446 
L 363.648812 172.400803 
L 364.461261 171.609007 
L 365.27371 171.279092 
L 366.086159 171.345075 
L 366.898608 171.67499 
L 368.523505 172.598752 
L 368.92973 172.598752 
L 369.335954 172.400803 
L 369.742179 172.004905 
L 370.148403 171.411058 
L 370.960852 169.563535 
L 371.773301 167.650028 
L 372.585749 166.264386 
L 373.398198 165.47259 
L 373.804423 165.274641 
L 374.616871 165.142675 
L 375.835545 165.604556 
L 377.460442 166.462335 
L 377.866667 166.462335 
L 378.272891 166.264386 
L 378.679115 165.934471 
L 379.491564 164.416862 
L 381.116462 160.721815 
L 381.928911 159.666088 
L 382.74136 159.138224 
L 383.553808 159.072241 
L 384.366257 159.27019 
L 386.397379 160.325918 
L 386.803604 160.325918 
L 387.209828 160.193952 
L 387.616052 159.798054 
L 388.428501 158.280445 
L 390.053399 154.585398 
L 390.865848 153.529671 
L 391.678296 153.001807 
L 392.490745 152.935824 
L 393.303194 153.133773 
L 394.521867 153.793602 
L 395.334316 154.1895 
L 395.740541 154.1895 
L 396.146765 154.057534 
L 396.552989 153.661636 
L 397.365438 152.144028 
L 398.990336 148.448981 
L 399.802785 147.393253 
L 400.615233 146.865389 
L 401.427682 146.799407 
L 402.240131 146.997355 
L 403.458804 147.657185 
L 404.271253 148.053083 
L 404.677477 148.053083 
L 405.083702 147.921117 
L 405.489926 147.525219 
L 406.302375 146.007611 
L 407.521048 143.10436 
L 408.333497 141.718717 
L 409.145946 140.926921 
L 409.55217 140.728972 
L 410.364619 140.662989 
L 411.177068 140.860938 
L 412.395741 141.520768 
L 413.20819 141.916666 
L 413.614414 141.916666 
L 414.020639 141.7847 
L 414.426863 141.388802 
L 415.239312 139.871194 
L 416.457985 136.967942 
L 417.270434 135.5823 
L 417.676658 135.120419 
L 418.489107 134.658538 
L 418.895332 134.526572 
L 419.707781 134.592555 
L 420.520229 134.92247 
L 421.738903 135.648283 
L 422.551351 135.846232 
L 422.957576 135.648283 
L 423.3638 135.252385 
L 424.176249 133.800759 
L 425.394922 130.831525 
L 426.207371 129.445883 
L 427.01982 128.72007 
L 427.832269 128.390155 
L 428.644717 128.456138 
L 429.457166 128.786053 
L 430.675839 129.511866 
L 431.488288 129.709815 
L 431.894513 129.511866 
L 432.300737 129.115968 
L 432.706962 128.522121 
L 433.51941 126.674597 
L 434.331859 124.761091 
L 435.144308 123.375448 
L 435.956757 122.583653 
L 436.769206 122.253738 
L 437.581654 122.319721 
L 438.394103 122.649636 
L 440.019001 123.573397 
L 440.425225 123.573397 
L 440.83145 123.375448 
L 441.237674 122.979551 
L 441.643898 122.385704 
L 442.456347 120.53818 
L 443.268796 118.624674 
L 444.081245 117.239031 
L 444.893694 116.447235 
L 445.299918 116.249286 
L 446.112367 116.117321 
L 447.33104 116.579201 
L 448.955938 117.43698 
L 449.362162 117.43698 
L 449.768387 117.239031 
L 450.174611 116.909116 
L 450.98706 115.391508 
L 452.611957 111.696461 
L 453.424406 110.640733 
L 454.236855 110.112869 
L 455.049304 110.046886 
L 455.861753 110.244835 
L 457.080426 110.904665 
L 457.892875 111.300563 
L 458.299099 111.300563 
L 458.705324 111.168597 
L 459.111548 110.772699 
L 459.923997 109.255091 
L 461.548894 105.560044 
L 462.361343 104.504316 
L 463.173792 103.976452 
L 463.986241 103.910469 
L 464.79869 104.108418 
L 466.017363 104.768248 
L 466.829812 105.164146 
L 467.236036 105.164146 
L 467.64226 105.03218 
L 468.048485 104.636282 
L 468.860934 103.118673 
L 470.485831 99.423626 
L 471.29828 98.367899 
L 472.110729 97.840035 
L 472.923178 97.774052 
L 473.735627 97.972001 
L 474.9543 98.631831 
L 475.766749 99.027729 
L 476.172973 99.027729 
L 476.579197 98.895763 
L 476.985422 98.499865 
L 477.797871 96.982256 
L 479.016544 94.079005 
L 479.828993 92.693362 
L 480.641441 91.901567 
L 481.047666 91.703618 
L 481.860115 91.637635 
L 482.672563 91.835584 
L 483.891237 92.495413 
L 484.703686 92.891311 
L 485.10991 92.891311 
L 485.516134 92.759345 
L 485.922359 92.363448 
L 486.734808 90.845839 
L 487.953481 87.942588 
L 488.76593 86.556945 
L 489.172154 86.095064 
L 489.984603 85.633184 
L 490.390827 85.501218 
L 491.203276 85.567201 
L 492.015725 85.897115 
L 493.234398 86.622928 
L 494.046847 86.820877 
L 494.453071 86.622928 
L 494.859296 86.22703 
L 495.26552 85.633184 
L 496.077969 83.719677 
L 496.890418 81.806171 
L 497.702867 80.486511 
L 498.109091 80.02463 
L 498.109091 80.02463 
" style="fill:none;stroke:#ff0000;stroke-linecap:square;stroke-width:1.5;"/>
   </g>
   <g id="line2d_26">
    <path clip-path="url(#pc3c6a9e542)" d="M 92.290909 301.595479 
L 92.697133 301.595479 
L 93.103358 301.595479 
L 93.509582 302.255309 
L 94.322031 304.49873 
L 99.602948 320.532594 
L 102.446519 328.120637 
L 109.758559 346.859804 
L 116.258149 362.431787 
L 117.476822 364.873157 
L 117.883047 365.59897 
L 118.289271 364.873157 
L 118.695495 362.695719 
L 119.10172 358.802723 
L 120.726618 336.830391 
L 121.539066 329.242348 
L 121.945291 328.318586 
L 122.351515 328.450552 
L 122.75774 329.176365 
L 123.570188 331.419786 
L 126.007535 338.347999 
L 126.819984 340.261506 
L 127.226208 340.987318 
L 127.632432 341.383216 
L 128.038657 341.25125 
L 128.444881 340.393472 
L 128.851106 338.677914 
L 129.663554 332.871412 
L 130.476003 326.009182 
L 130.882228 323.633794 
L 131.288452 322.710033 
L 131.694676 322.710033 
L 132.100901 323.30388 
L 133.319574 326.339097 
L 134.944472 330.364058 
L 135.756921 332.013633 
L 136.163145 332.409531 
L 136.569369 332.343548 
L 136.975594 331.551752 
L 137.381818 329.968161 
L 137.788043 327.592773 
L 139.41294 315.385922 
L 139.819165 314.330194 
L 140.225389 314.330194 
L 140.631613 314.792075 
L 141.850287 317.56336 
L 143.881409 322.050203 
L 144.287633 322.776016 
L 144.693857 323.237897 
L 145.100082 323.369863 
L 145.506306 322.907982 
L 145.912531 321.786271 
L 146.318755 319.938748 
L 147.131204 314.330194 
L 147.943653 308.721641 
L 148.349877 307.335998 
L 148.756102 307.006083 
L 149.162326 307.335998 
L 149.56855 307.929845 
L 153.22457 314.858058 
L 153.630794 315.187973 
L 154.037019 315.12199 
L 154.443243 314.528143 
L 154.849468 313.340449 
L 155.661916 308.985573 
L 156.474365 303.508985 
L 156.88059 301.463513 
L 157.286814 300.539751 
L 157.693038 300.473768 
L 158.099263 300.803683 
L 159.317936 302.981122 
L 160.536609 305.224543 
L 162.161507 307.665913 
L 162.567731 307.863862 
L 162.973956 307.731896 
L 163.38018 307.006083 
L 163.786405 305.686424 
L 164.598853 301.39753 
L 165.411302 296.448806 
L 165.817527 294.865215 
L 166.223751 294.205385 
L 166.629975 294.271368 
L 167.0362 294.667266 
L 167.848649 295.986926 
L 169.879771 299.418041 
L 170.692219 300.605734 
L 171.098444 301.001632 
L 171.504668 301.199581 
L 171.910893 300.935649 
L 172.317117 300.143853 
L 172.723342 298.824194 
L 173.53579 294.5353 
L 174.348239 289.850508 
L 174.754464 288.530849 
L 175.160688 288.002985 
L 175.566912 288.134951 
L 176.379361 289.190679 
L 178.004259 291.895981 
L 179.629156 294.337351 
L 180.035381 294.733249 
L 180.441605 294.799232 
L 180.84783 294.5353 
L 181.254054 293.677521 
L 181.660278 292.291879 
L 182.472727 288.002985 
L 183.285176 283.450159 
L 183.6914 282.262466 
L 184.097625 281.866568 
L 184.503849 282.064517 
L 185.316298 283.120244 
L 188.159869 287.541104 
L 188.566093 288.134951 
L 188.972318 288.464866 
L 189.378542 288.596832 
L 189.784767 288.266917 
L 190.190991 287.409138 
L 190.597215 285.957513 
L 191.409664 281.668619 
L 192.222113 277.181776 
L 192.628337 276.060065 
L 193.034562 275.730151 
L 193.440786 275.928099 
L 194.253235 277.04981 
L 197.096806 281.47067 
L 197.50303 281.998534 
L 197.909255 282.328449 
L 198.315479 282.394432 
L 198.721704 282.064517 
L 199.127928 281.140755 
L 199.534152 279.689129 
L 200.346601 275.400236 
L 201.15905 270.979376 
L 201.565274 269.923648 
L 201.971499 269.593733 
L 202.377723 269.857665 
L 203.190172 270.913393 
L 205.627518 274.674423 
L 206.439967 275.796134 
L 206.846192 276.192031 
L 207.252416 276.258014 
L 207.65864 275.862117 
L 208.064865 275.004338 
L 208.471089 273.552712 
L 209.283538 269.197835 
L 210.095987 264.842959 
L 210.502211 263.787231 
L 210.908436 263.457316 
L 211.31466 263.721248 
L 212.127109 264.776976 
L 214.564455 268.538006 
L 215.376904 269.725699 
L 215.783129 270.055614 
L 216.189353 270.121597 
L 216.595577 269.725699 
L 217.001802 268.867921 
L 217.408026 267.416295 
L 218.220475 263.061418 
L 219.032924 258.640559 
L 219.439148 257.650814 
L 219.845373 257.320899 
L 220.251597 257.584831 
L 221.064046 258.640559 
L 223.907617 263.061418 
L 224.313841 263.589282 
L 224.720066 263.919197 
L 225.12629 263.98518 
L 225.532514 263.589282 
L 225.938739 262.731503 
L 226.344963 261.213895 
L 227.157412 256.925001 
L 227.969861 252.504141 
L 228.376085 251.514397 
L 228.78231 251.250465 
L 229.188534 251.448414 
L 229.594758 251.910295 
L 232.438329 256.331154 
L 233.250778 257.452865 
L 233.657002 257.78278 
L 234.063227 257.848763 
L 234.469451 257.452865 
L 234.875676 256.595086 
L 235.2819 255.143461 
L 236.094349 250.788584 
L 236.906798 246.433707 
L 237.313022 245.377979 
L 237.719247 245.114048 
L 238.125471 245.311997 
L 238.93792 246.433707 
L 241.375266 250.194737 
L 242.187715 251.316448 
L 242.593939 251.646363 
L 243.000164 251.712346 
L 243.406388 251.316448 
L 243.812613 250.458669 
L 244.218837 249.007043 
L 245.031286 244.652167 
L 245.843735 240.29729 
L 246.249959 239.241562 
L 246.656183 238.97763 
L 247.062408 239.175579 
L 247.874857 240.29729 
L 250.312203 244.05832 
L 251.124652 245.180031 
L 251.530876 245.509945 
L 251.937101 245.575928 
L 252.343325 245.246014 
L 252.74955 244.322252 
L 253.155774 242.870626 
L 253.968223 238.51575 
L 254.780672 234.160873 
L 255.186896 233.105145 
L 255.59312 232.841213 
L 255.999345 233.039162 
L 256.811794 234.160873 
L 259.24914 237.921903 
L 260.061589 239.043613 
L 260.467813 239.373528 
L 260.874038 239.439511 
L 261.280262 239.109596 
L 261.686486 238.185835 
L 262.092711 236.734209 
L 262.90516 232.379332 
L 263.717609 228.024456 
L 264.123833 226.968728 
L 264.530057 226.704796 
L 264.936282 226.968728 
L 265.748731 228.024456 
L 268.186077 231.785485 
L 268.998526 232.907196 
L 269.40475 233.303094 
L 269.810975 233.303094 
L 270.217199 232.973179 
L 270.623423 232.049417 
L 271.029648 230.597792 
L 271.842097 226.242915 
L 272.654545 221.888038 
L 273.06077 220.832311 
L 273.466994 220.568379 
L 273.873219 220.832311 
L 274.685667 221.888038 
L 277.123014 225.649068 
L 277.935463 226.770779 
L 278.341687 227.166677 
L 278.747912 227.23266 
L 279.154136 226.836762 
L 279.56036 225.913 
L 279.966585 224.461375 
L 280.779034 220.106498 
L 281.591482 215.751621 
L 281.997707 214.695894 
L 282.403931 214.431962 
L 282.810156 214.695894 
L 283.622604 215.751621 
L 286.059951 219.512651 
L 286.8724 220.634362 
L 287.278624 221.03026 
L 287.684848 221.096243 
L 288.091073 220.700345 
L 288.497297 219.776583 
L 288.903522 218.324957 
L 289.715971 214.036064 
L 290.528419 209.615204 
L 290.934644 208.559476 
L 291.340868 208.295544 
L 291.747093 208.559476 
L 292.153317 209.021357 
L 294.996888 213.442217 
L 295.809337 214.563928 
L 296.215561 214.893842 
L 296.621785 214.959825 
L 297.02801 214.563928 
L 297.434234 213.706149 
L 297.840459 212.18854 
L 298.652907 207.899647 
L 299.465356 203.478787 
L 299.871581 202.489042 
L 300.277805 202.22511 
L 300.684029 202.423059 
L 301.090254 202.88494 
L 303.933825 207.3058 
L 304.746274 208.42751 
L 305.152498 208.757425 
L 305.558722 208.823408 
L 305.964947 208.42751 
L 306.371171 207.569732 
L 306.777396 206.052123 
L 307.589844 201.763229 
L 308.402293 197.34237 
L 308.808518 196.352625 
L 309.214742 196.088693 
L 309.620966 196.286642 
L 310.433415 197.408353 
L 312.870762 201.169383 
L 313.68321 202.291093 
L 314.089435 202.621008 
L 314.495659 202.686991 
L 314.901884 202.291093 
L 315.308108 201.433314 
L 315.714333 199.981689 
L 316.526781 195.626812 
L 317.33923 191.271935 
L 317.745455 190.216208 
L 318.151679 189.952276 
L 318.557903 190.150225 
L 319.370352 191.271935 
L 321.807699 195.032965 
L 322.620147 196.154676 
L 323.026372 196.484591 
L 323.432596 196.550574 
L 323.838821 196.220659 
L 324.245045 195.296897 
L 324.651269 193.845272 
L 325.463718 189.490395 
L 326.276167 185.135518 
L 326.682391 184.079791 
L 327.088616 183.815859 
L 327.49484 184.013808 
L 328.307289 185.135518 
L 330.744636 188.896548 
L 331.557084 190.018259 
L 331.963309 190.348174 
L 332.369533 190.414157 
L 332.775758 190.084242 
L 333.181982 189.16048 
L 333.588206 187.708854 
L 334.400655 183.353978 
L 335.213104 178.999101 
L 335.619328 177.943373 
L 336.025553 177.679441 
L 336.431777 177.943373 
L 337.244226 178.999101 
L 339.681572 182.760131 
L 340.494021 183.881842 
L 340.900246 184.277739 
L 341.30647 184.277739 
L 341.712695 183.947825 
L 342.118919 183.024063 
L 342.525143 181.572437 
L 343.337592 177.217561 
L 344.150041 172.862684 
L 344.556265 171.806956 
L 344.96249 171.543024 
L 345.368714 171.806956 
L 346.181163 172.862684 
L 348.618509 176.623714 
L 349.430958 177.745424 
L 349.837183 178.141322 
L 350.243407 178.207305 
L 350.649631 177.811407 
L 351.055856 176.887646 
L 351.46208 175.43602 
L 352.274529 171.081143 
L 353.086978 166.726267 
L 353.493202 165.670539 
L 353.899427 165.406607 
L 354.305651 165.670539 
L 355.1181 166.726267 
L 357.555446 170.487297 
L 358.367895 171.609007 
L 358.77412 172.004905 
L 359.180344 172.070888 
L 359.586568 171.67499 
L 359.992793 170.751228 
L 360.399017 169.299603 
L 361.211466 165.010709 
L 362.023915 160.589849 
L 362.430139 159.534122 
L 362.836364 159.336173 
L 363.242588 159.534122 
L 363.648812 159.996003 
L 366.492383 164.416862 
L 367.304832 165.538573 
L 367.711057 165.868488 
L 368.117281 165.934471 
L 368.523505 165.538573 
L 368.92973 164.680794 
L 369.335954 163.163186 
L 370.148403 158.874292 
L 370.960852 154.453432 
L 371.367076 153.463688 
L 371.773301 153.199756 
L 372.179525 153.397705 
L 372.585749 153.859585 
L 375.42932 158.280445 
L 376.241769 159.402156 
L 376.647993 159.732071 
L 377.054218 159.798054 
L 377.460442 159.402156 
L 377.866667 158.544377 
L 378.272891 157.026768 
L 379.08534 152.737875 
L 379.897789 148.382998 
L 380.304013 147.32727 
L 380.710238 147.063338 
L 381.116462 147.261287 
L 381.928911 148.382998 
L 384.366257 152.144028 
L 385.178706 153.265739 
L 385.58493 153.595654 
L 385.991155 153.661636 
L 386.397379 153.265739 
L 386.803604 152.40796 
L 387.209828 150.956334 
L 388.022277 146.601458 
L 388.834726 142.246581 
L 389.24095 141.190853 
L 389.647174 140.926921 
L 390.053399 141.12487 
L 390.865848 142.246581 
L 393.303194 146.007611 
L 394.115643 147.129321 
L 394.521867 147.459236 
L 394.928092 147.525219 
L 395.334316 147.195304 
L 395.740541 146.271543 
L 396.146765 144.819917 
L 396.959214 140.46504 
L 397.771663 136.110164 
L 398.177887 135.054436 
L 398.584111 134.790504 
L 398.990336 134.988453 
L 399.802785 136.110164 
L 402.240131 139.871194 
L 403.05258 140.992904 
L 403.458804 141.322819 
L 403.865029 141.388802 
L 404.271253 141.058887 
L 404.677477 140.135125 
L 405.083702 138.6835 
L 405.896151 134.328623 
L 406.7086 129.973746 
L 407.114824 128.918019 
L 407.521048 128.654087 
L 407.927273 128.918019 
L 408.739722 129.973746 
L 411.177068 133.734776 
L 411.989517 134.856487 
L 412.395741 135.252385 
L 412.801966 135.252385 
L 413.20819 134.92247 
L 413.614414 133.998708 
L 414.020639 132.547083 
L 414.833088 128.192206 
L 415.645536 123.837329 
L 416.051761 122.781602 
L 416.457985 122.51767 
L 416.86421 122.781602 
L 417.676658 123.837329 
L 420.114005 127.598359 
L 420.926454 128.72007 
L 421.332678 129.115968 
L 421.738903 129.181951 
L 422.145127 128.786053 
L 422.551351 127.862291 
L 422.957576 126.410666 
L 423.770025 122.055789 
L 424.582473 117.700912 
L 424.988698 116.645184 
L 425.394922 116.381252 
L 425.801147 116.645184 
L 426.613595 117.700912 
L 429.050942 121.461942 
L 429.863391 122.583653 
L 430.269615 122.979551 
L 430.675839 123.045533 
L 431.082064 122.649636 
L 431.488288 121.725874 
L 431.894513 120.274248 
L 432.706962 115.985355 
L 433.51941 111.564495 
L 433.925635 110.508767 
L 434.331859 110.310818 
L 434.738084 110.508767 
L 435.144308 110.970648 
L 437.987879 115.391508 
L 438.800328 116.513218 
L 439.206552 116.843133 
L 439.612776 116.909116 
L 440.019001 116.513218 
L 440.425225 115.65544 
L 440.83145 114.137831 
L 441.643898 109.848937 
L 442.456347 105.428078 
L 442.862572 104.438333 
L 443.268796 104.174401 
L 443.67502 104.37235 
L 444.081245 104.834231 
L 446.924816 109.255091 
L 447.737265 110.376801 
L 448.143489 110.706716 
L 448.549713 110.772699 
L 448.955938 110.376801 
L 449.362162 109.519022 
L 449.768387 108.001414 
L 450.580835 103.71252 
L 451.393284 99.357643 
L 451.799509 98.301916 
L 452.205733 98.037984 
L 452.611957 98.235933 
L 453.424406 99.357643 
L 455.861753 103.118673 
L 456.674201 104.240384 
L 457.080426 104.570299 
L 457.48665 104.636282 
L 457.892875 104.240384 
L 458.299099 103.382605 
L 458.705324 101.93098 
L 459.517772 97.576103 
L 460.330221 93.221226 
L 460.736446 92.165499 
L 461.14267 91.901567 
L 461.548894 92.099516 
L 462.361343 93.221226 
L 464.79869 96.982256 
L 465.611138 98.103967 
L 466.017363 98.433882 
L 466.423587 98.499865 
L 466.829812 98.16995 
L 467.236036 97.246188 
L 467.64226 95.794563 
L 468.454709 91.439686 
L 469.267158 87.084809 
L 469.673382 86.029081 
L 470.079607 85.765149 
L 470.485831 85.963098 
L 471.29828 87.084809 
L 473.735627 90.845839 
L 474.548075 91.96755 
L 474.9543 92.363448 
L 475.360524 92.363448 
L 475.766749 92.033533 
L 476.172973 91.109771 
L 476.579197 89.658145 
L 477.391646 85.303269 
L 478.204095 80.948392 
L 478.610319 79.892664 
L 479.016544 79.628732 
L 479.422768 79.892664 
L 480.235217 80.948392 
L 482.672563 84.709422 
L 483.485012 85.831132 
L 483.891237 86.22703 
L 484.297461 86.22703 
L 484.703686 85.897115 
L 485.10991 84.973354 
L 485.516134 83.521728 
L 486.328583 79.166851 
L 487.141032 74.811975 
L 487.547256 73.756247 
L 487.953481 73.492315 
L 488.359705 73.756247 
L 489.172154 74.811975 
L 491.6095 78.573005 
L 492.421949 79.694715 
L 492.828174 80.090613 
L 493.234398 80.156596 
L 493.640622 79.760698 
L 494.046847 78.836937 
L 494.453071 77.385311 
L 495.26552 73.030434 
L 496.077969 68.675557 
L 496.484193 67.61983 
L 496.890418 67.355898 
L 497.296642 67.61983 
L 498.109091 68.675557 
L 498.109091 68.675557 
" style="fill:none;stroke:#008000;stroke-linecap:square;stroke-width:1.5;"/>
   </g>
   <g id="patch_3">
    <path d="M 72 384.48 
L 72 51.84 
" style="fill:none;stroke:#000000;stroke-linecap:square;stroke-linejoin:miter;stroke-width:0.8;"/>
   </g>
   <g id="patch_4">
    <path d="M 518.4 384.48 
L 518.4 51.84 
" style="fill:none;stroke:#000000;stroke-linecap:square;stroke-linejoin:miter;stroke-width:0.8;"/>
   </g>
   <g id="patch_5">
    <path d="M 72 384.48 
L 518.4 384.48 
" style="fill:none;stroke:#000000;stroke-linecap:square;stroke-linejoin:miter;stroke-width:0.8;"/>
   </g>
   <g id="patch_6">
    <path d="M 72 51.84 
L 518.4 51.84 
" style="fill:none;stroke:#000000;stroke-linecap:square;stroke-linejoin:miter;stroke-width:0.8;"/>
   </g>
   <g id="text_14">
    <!-- $u_{m}$ -->
    <g transform="translate(285.75 45.84)scale(0.14 -0.14)">
     <use transform="translate(0 0.3125)" xlink:href="#DejaVuSans-Oblique-75"/>
     <use transform="translate(63.378906 -16.09375)scale(0.7)" xlink:href="#DejaVuSans-Oblique-6d"/>
    </g>
   </g>
   <g id="legend_1">
    <g id="patch_7">
     <path d="M 79 118.5525 
L 122.1 118.5525 
Q 124.1 118.5525 124.1 116.5525 
L 124.1 58.84 
Q 124.1 56.84 122.1 56.84 
L 79 56.84 
Q 77 56.84 77 58.84 
L 77 116.5525 
Q 77 118.5525 79 118.5525 
z
" style="fill:#ffffff;opacity:0.8;stroke:#cccccc;stroke-linejoin:miter;"/>
    </g>
    <g id="line2d_27">
     <path d="M 81 64.938438 
L 101 64.938438 
" style="fill:none;stroke:#bf00bf;stroke-linecap:square;stroke-width:1.5;"/>
    </g>
    <g id="line2d_28"/>
    <g id="text_15">
     <!-- $u_{1}$ -->
     <g transform="translate(109 68.438438)scale(0.1 -0.1)">
      <use transform="translate(0 0.3125)" xlink:href="#DejaVuSans-Oblique-75"/>
      <use transform="translate(63.378906 -16.09375)scale(0.7)" xlink:href="#DejaVuSans-31"/>
     </g>
    </g>
    <g id="line2d_29">
     <path d="M 81 79.616563 
L 101 79.616563 
" style="fill:none;stroke:#00bfbf;stroke-linecap:square;stroke-width:1.5;"/>
    </g>
    <g id="line2d_30"/>
    <g id="text_16">
     <!-- $u_{2}$ -->
     <g transform="translate(109 83.116563)scale(0.1 -0.1)">
      <use transform="translate(0 0.3125)" xlink:href="#DejaVuSans-Oblique-75"/>
      <use transform="translate(63.378906 -16.09375)scale(0.7)" xlink:href="#DejaVuSans-32"/>
     </g>
    </g>
    <g id="line2d_31">
     <path d="M 81 94.294688 
L 101 94.294688 
" style="fill:none;stroke:#ff0000;stroke-linecap:square;stroke-width:1.5;"/>
    </g>
    <g id="line2d_32"/>
    <g id="text_17">
     <!-- $u_{3}$ -->
     <g transform="translate(109 97.794688)scale(0.1 -0.1)">
      <use transform="translate(0 0.3125)" xlink:href="#DejaVuSans-Oblique-75"/>
      <use transform="translate(63.378906 -16.09375)scale(0.7)" xlink:href="#DejaVuSans-33"/>
     </g>
    </g>
    <g id="line2d_33">
     <path d="M 81 108.972813 
L 101 108.972813 
" style="fill:none;stroke:#008000;stroke-linecap:square;stroke-width:1.5;"/>
    </g>
    <g id="line2d_34"/>
    <g id="text_18">
     <!-- $u_{4}$ -->
     <g transform="translate(109 112.472813)scale(0.1 -0.1)">
      <use transform="translate(0 0.3125)" xlink:href="#DejaVuSans-Oblique-75"/>
      <use transform="translate(63.378906 -16.09375)scale(0.7)" xlink:href="#DejaVuSans-34"/>
     </g>
    </g>
   </g>
  </g>
 </g>
 <defs>
  <clipPath id="pc3c6a9e542">
   <rect height="332.64" width="446.4" x="72" y="51.84"/>
  </clipPath>
 </defs>
</svg>
