<?xml version="1.0" encoding="utf-8" standalone="no"?>
<!DOCTYPE svg PUBLIC "-//W3C//DTD SVG 1.1//EN"
  "http://www.w3.org/Graphics/SVG/1.1/DTD/svg11.dtd">
<!-- Created with matplotlib (http://matplotlib.org/) -->
<svg height="432pt" version="1.1" viewBox="0 0 576 432" width="576pt" xmlns="http://www.w3.org/2000/svg" xmlns:xlink="http://www.w3.org/1999/xlink">
 <defs>
  <style type="text/css">
*{stroke-linecap:butt;stroke-linejoin:round;}
  </style>
 </defs>
 <g id="figure_1">
  <g id="patch_1">
   <path d="M 0 432 
L 576 432 
L 576 0 
L 0 0 
z
" style="fill:#ffffff;"/>
  </g>
  <g id="axes_1">
   <g id="patch_2">
    <path d="M 72 384.48 
L 518.4 384.48 
L 518.4 51.84 
L 72 51.84 
z
" style="fill:#ffffff;"/>
   </g>
   <g id="matplotlib.axis_1">
    <g id="xtick_1">
     <g id="line2d_1">
      <path clip-path="url(#pac2ba873d5)" d="M 92.290909 384.48 
L 92.290909 51.84 
" style="fill:none;stroke:#b0b0b0;stroke-dasharray:5.12,1.28,0.8,1.28;stroke-dashoffset:0;stroke-width:0.8;"/>
     </g>
     <g id="line2d_2">
      <defs>
       <path d="M 0 0 
L 0 3.5 
" id="m2a09f7b54c" style="stroke:#000000;stroke-width:0.8;"/>
      </defs>
      <g>
       <use style="stroke:#000000;stroke-width:0.8;" x="92.290909" xlink:href="#m2a09f7b54c" y="384.48"/>
      </g>
     </g>
     <g id="text_1">
      <!-- 0 -->
      <defs>
       <path d="M 31.78125 66.40625 
Q 24.171875 66.40625 20.328125 58.90625 
Q 16.5 51.421875 16.5 36.375 
Q 16.5 21.390625 20.328125 13.890625 
Q 24.171875 6.390625 31.78125 6.390625 
Q 39.453125 6.390625 43.28125 13.890625 
Q 47.125 21.390625 47.125 36.375 
Q 47.125 51.421875 43.28125 58.90625 
Q 39.453125 66.40625 31.78125 66.40625 
z
M 31.78125 74.21875 
Q 44.046875 74.21875 50.515625 64.515625 
Q 56.984375 54.828125 56.984375 36.375 
Q 56.984375 17.96875 50.515625 8.265625 
Q 44.046875 -1.421875 31.78125 -1.421875 
Q 19.53125 -1.421875 13.0625 8.265625 
Q 6.59375 17.96875 6.59375 36.375 
Q 6.59375 54.828125 13.0625 64.515625 
Q 19.53125 74.21875 31.78125 74.21875 
z
" id="DejaVuSans-30"/>
      </defs>
      <g transform="translate(89.109659 399.078438)scale(0.1 -0.1)">
       <use xlink:href="#DejaVuSans-30"/>
      </g>
     </g>
    </g>
    <g id="xtick_2">
     <g id="line2d_3">
      <path clip-path="url(#pac2ba873d5)" d="M 180.60825 384.48 
L 180.60825 51.84 
" style="fill:none;stroke:#b0b0b0;stroke-dasharray:5.12,1.28,0.8,1.28;stroke-dashoffset:0;stroke-width:0.8;"/>
     </g>
     <g id="line2d_4">
      <g>
       <use style="stroke:#000000;stroke-width:0.8;" x="180.60825" xlink:href="#m2a09f7b54c" y="384.48"/>
      </g>
     </g>
     <g id="text_2">
      <!-- 200 -->
      <defs>
       <path d="M 19.1875 8.296875 
L 53.609375 8.296875 
L 53.609375 0 
L 7.328125 0 
L 7.328125 8.296875 
Q 12.9375 14.109375 22.625 23.890625 
Q 32.328125 33.6875 34.8125 36.53125 
Q 39.546875 41.84375 41.421875 45.53125 
Q 43.3125 49.21875 43.3125 52.78125 
Q 43.3125 58.59375 39.234375 62.25 
Q 35.15625 65.921875 28.609375 65.921875 
Q 23.96875 65.921875 18.8125 64.3125 
Q 13.671875 62.703125 7.8125 59.421875 
L 7.8125 69.390625 
Q 13.765625 71.78125 18.9375 73 
Q 24.125 74.21875 28.421875 74.21875 
Q 39.75 74.21875 46.484375 68.546875 
Q 53.21875 62.890625 53.21875 53.421875 
Q 53.21875 48.921875 51.53125 44.890625 
Q 49.859375 40.875 45.40625 35.40625 
Q 44.1875 33.984375 37.640625 27.21875 
Q 31.109375 20.453125 19.1875 8.296875 
z
" id="DejaVuSans-32"/>
      </defs>
      <g transform="translate(171.0645 399.078438)scale(0.1 -0.1)">
       <use xlink:href="#DejaVuSans-32"/>
       <use x="63.623047" xlink:href="#DejaVuSans-30"/>
       <use x="127.246094" xlink:href="#DejaVuSans-30"/>
      </g>
     </g>
    </g>
    <g id="xtick_3">
     <g id="line2d_5">
      <path clip-path="url(#pac2ba873d5)" d="M 268.925591 384.48 
L 268.925591 51.84 
" style="fill:none;stroke:#b0b0b0;stroke-dasharray:5.12,1.28,0.8,1.28;stroke-dashoffset:0;stroke-width:0.8;"/>
     </g>
     <g id="line2d_6">
      <g>
       <use style="stroke:#000000;stroke-width:0.8;" x="268.925591" xlink:href="#m2a09f7b54c" y="384.48"/>
      </g>
     </g>
     <g id="text_3">
      <!-- 400 -->
      <defs>
       <path d="M 37.796875 64.3125 
L 12.890625 25.390625 
L 37.796875 25.390625 
z
M 35.203125 72.90625 
L 47.609375 72.90625 
L 47.609375 25.390625 
L 58.015625 25.390625 
L 58.015625 17.1875 
L 47.609375 17.1875 
L 47.609375 0 
L 37.796875 0 
L 37.796875 17.1875 
L 4.890625 17.1875 
L 4.890625 26.703125 
z
" id="DejaVuSans-34"/>
      </defs>
      <g transform="translate(259.381841 399.078438)scale(0.1 -0.1)">
       <use xlink:href="#DejaVuSans-34"/>
       <use x="63.623047" xlink:href="#DejaVuSans-30"/>
       <use x="127.246094" xlink:href="#DejaVuSans-30"/>
      </g>
     </g>
    </g>
    <g id="xtick_4">
     <g id="line2d_7">
      <path clip-path="url(#pac2ba873d5)" d="M 357.242932 384.48 
L 357.242932 51.84 
" style="fill:none;stroke:#b0b0b0;stroke-dasharray:5.12,1.28,0.8,1.28;stroke-dashoffset:0;stroke-width:0.8;"/>
     </g>
     <g id="line2d_8">
      <g>
       <use style="stroke:#000000;stroke-width:0.8;" x="357.242932" xlink:href="#m2a09f7b54c" y="384.48"/>
      </g>
     </g>
     <g id="text_4">
      <!-- 600 -->
      <defs>
       <path d="M 33.015625 40.375 
Q 26.375 40.375 22.484375 35.828125 
Q 18.609375 31.296875 18.609375 23.390625 
Q 18.609375 15.53125 22.484375 10.953125 
Q 26.375 6.390625 33.015625 6.390625 
Q 39.65625 6.390625 43.53125 10.953125 
Q 47.40625 15.53125 47.40625 23.390625 
Q 47.40625 31.296875 43.53125 35.828125 
Q 39.65625 40.375 33.015625 40.375 
z
M 52.59375 71.296875 
L 52.59375 62.3125 
Q 48.875 64.0625 45.09375 64.984375 
Q 41.3125 65.921875 37.59375 65.921875 
Q 27.828125 65.921875 22.671875 59.328125 
Q 17.53125 52.734375 16.796875 39.40625 
Q 19.671875 43.65625 24.015625 45.921875 
Q 28.375 48.1875 33.59375 48.1875 
Q 44.578125 48.1875 50.953125 41.515625 
Q 57.328125 34.859375 57.328125 23.390625 
Q 57.328125 12.15625 50.6875 5.359375 
Q 44.046875 -1.421875 33.015625 -1.421875 
Q 20.359375 -1.421875 13.671875 8.265625 
Q 6.984375 17.96875 6.984375 36.375 
Q 6.984375 53.65625 15.1875 63.9375 
Q 23.390625 74.21875 37.203125 74.21875 
Q 40.921875 74.21875 44.703125 73.484375 
Q 48.484375 72.75 52.59375 71.296875 
z
" id="DejaVuSans-36"/>
      </defs>
      <g transform="translate(347.699182 399.078438)scale(0.1 -0.1)">
       <use xlink:href="#DejaVuSans-36"/>
       <use x="63.623047" xlink:href="#DejaVuSans-30"/>
       <use x="127.246094" xlink:href="#DejaVuSans-30"/>
      </g>
     </g>
    </g>
    <g id="xtick_5">
     <g id="line2d_9">
      <path clip-path="url(#pac2ba873d5)" d="M 445.560273 384.48 
L 445.560273 51.84 
" style="fill:none;stroke:#b0b0b0;stroke-dasharray:5.12,1.28,0.8,1.28;stroke-dashoffset:0;stroke-width:0.8;"/>
     </g>
     <g id="line2d_10">
      <g>
       <use style="stroke:#000000;stroke-width:0.8;" x="445.560273" xlink:href="#m2a09f7b54c" y="384.48"/>
      </g>
     </g>
     <g id="text_5">
      <!-- 800 -->
      <defs>
       <path d="M 31.78125 34.625 
Q 24.75 34.625 20.71875 30.859375 
Q 16.703125 27.09375 16.703125 20.515625 
Q 16.703125 13.921875 20.71875 10.15625 
Q 24.75 6.390625 31.78125 6.390625 
Q 38.8125 6.390625 42.859375 10.171875 
Q 46.921875 13.96875 46.921875 20.515625 
Q 46.921875 27.09375 42.890625 30.859375 
Q 38.875 34.625 31.78125 34.625 
z
M 21.921875 38.8125 
Q 15.578125 40.375 12.03125 44.71875 
Q 8.5 49.078125 8.5 55.328125 
Q 8.5 64.0625 14.71875 69.140625 
Q 20.953125 74.21875 31.78125 74.21875 
Q 42.671875 74.21875 48.875 69.140625 
Q 55.078125 64.0625 55.078125 55.328125 
Q 55.078125 49.078125 51.53125 44.71875 
Q 48 40.375 41.703125 38.8125 
Q 48.828125 37.15625 52.796875 32.3125 
Q 56.78125 27.484375 56.78125 20.515625 
Q 56.78125 9.90625 50.3125 4.234375 
Q 43.84375 -1.421875 31.78125 -1.421875 
Q 19.734375 -1.421875 13.25 4.234375 
Q 6.78125 9.90625 6.78125 20.515625 
Q 6.78125 27.484375 10.78125 32.3125 
Q 14.796875 37.15625 21.921875 38.8125 
z
M 18.3125 54.390625 
Q 18.3125 48.734375 21.84375 45.5625 
Q 25.390625 42.390625 31.78125 42.390625 
Q 38.140625 42.390625 41.71875 45.5625 
Q 45.3125 48.734375 45.3125 54.390625 
Q 45.3125 60.0625 41.71875 63.234375 
Q 38.140625 66.40625 31.78125 66.40625 
Q 25.390625 66.40625 21.84375 63.234375 
Q 18.3125 60.0625 18.3125 54.390625 
z
" id="DejaVuSans-38"/>
      </defs>
      <g transform="translate(436.016523 399.078438)scale(0.1 -0.1)">
       <use xlink:href="#DejaVuSans-38"/>
       <use x="63.623047" xlink:href="#DejaVuSans-30"/>
       <use x="127.246094" xlink:href="#DejaVuSans-30"/>
      </g>
     </g>
    </g>
    <g id="text_6">
     <!-- Iteration -->
     <defs>
      <path d="M 9.8125 72.90625 
L 19.671875 72.90625 
L 19.671875 0 
L 9.8125 0 
z
" id="DejaVuSans-49"/>
      <path d="M 18.3125 70.21875 
L 18.3125 54.6875 
L 36.8125 54.6875 
L 36.8125 47.703125 
L 18.3125 47.703125 
L 18.3125 18.015625 
Q 18.3125 11.328125 20.140625 9.421875 
Q 21.96875 7.515625 27.59375 7.515625 
L 36.8125 7.515625 
L 36.8125 0 
L 27.59375 0 
Q 17.1875 0 13.234375 3.875 
Q 9.28125 7.765625 9.28125 18.015625 
L 9.28125 47.703125 
L 2.6875 47.703125 
L 2.6875 54.6875 
L 9.28125 54.6875 
L 9.28125 70.21875 
z
" id="DejaVuSans-74"/>
      <path d="M 56.203125 29.59375 
L 56.203125 25.203125 
L 14.890625 25.203125 
Q 15.484375 15.921875 20.484375 11.0625 
Q 25.484375 6.203125 34.421875 6.203125 
Q 39.59375 6.203125 44.453125 7.46875 
Q 49.3125 8.734375 54.109375 11.28125 
L 54.109375 2.78125 
Q 49.265625 0.734375 44.1875 -0.34375 
Q 39.109375 -1.421875 33.890625 -1.421875 
Q 20.796875 -1.421875 13.15625 6.1875 
Q 5.515625 13.8125 5.515625 26.8125 
Q 5.515625 40.234375 12.765625 48.109375 
Q 20.015625 56 32.328125 56 
Q 43.359375 56 49.78125 48.890625 
Q 56.203125 41.796875 56.203125 29.59375 
z
M 47.21875 32.234375 
Q 47.125 39.59375 43.09375 43.984375 
Q 39.0625 48.390625 32.421875 48.390625 
Q 24.90625 48.390625 20.390625 44.140625 
Q 15.875 39.890625 15.1875 32.171875 
z
" id="DejaVuSans-65"/>
      <path d="M 41.109375 46.296875 
Q 39.59375 47.171875 37.8125 47.578125 
Q 36.03125 48 33.890625 48 
Q 26.265625 48 22.1875 43.046875 
Q 18.109375 38.09375 18.109375 28.8125 
L 18.109375 0 
L 9.078125 0 
L 9.078125 54.6875 
L 18.109375 54.6875 
L 18.109375 46.1875 
Q 20.953125 51.171875 25.484375 53.578125 
Q 30.03125 56 36.53125 56 
Q 37.453125 56 38.578125 55.875 
Q 39.703125 55.765625 41.0625 55.515625 
z
" id="DejaVuSans-72"/>
      <path d="M 34.28125 27.484375 
Q 23.390625 27.484375 19.1875 25 
Q 14.984375 22.515625 14.984375 16.5 
Q 14.984375 11.71875 18.140625 8.90625 
Q 21.296875 6.109375 26.703125 6.109375 
Q 34.1875 6.109375 38.703125 11.40625 
Q 43.21875 16.703125 43.21875 25.484375 
L 43.21875 27.484375 
z
M 52.203125 31.203125 
L 52.203125 0 
L 43.21875 0 
L 43.21875 8.296875 
Q 40.140625 3.328125 35.546875 0.953125 
Q 30.953125 -1.421875 24.3125 -1.421875 
Q 15.921875 -1.421875 10.953125 3.296875 
Q 6 8.015625 6 15.921875 
Q 6 25.140625 12.171875 29.828125 
Q 18.359375 34.515625 30.609375 34.515625 
L 43.21875 34.515625 
L 43.21875 35.40625 
Q 43.21875 41.609375 39.140625 45 
Q 35.0625 48.390625 27.6875 48.390625 
Q 23 48.390625 18.546875 47.265625 
Q 14.109375 46.140625 10.015625 43.890625 
L 10.015625 52.203125 
Q 14.9375 54.109375 19.578125 55.046875 
Q 24.21875 56 28.609375 56 
Q 40.484375 56 46.34375 49.84375 
Q 52.203125 43.703125 52.203125 31.203125 
z
" id="DejaVuSans-61"/>
      <path d="M 9.421875 54.6875 
L 18.40625 54.6875 
L 18.40625 0 
L 9.421875 0 
z
M 9.421875 75.984375 
L 18.40625 75.984375 
L 18.40625 64.59375 
L 9.421875 64.59375 
z
" id="DejaVuSans-69"/>
      <path d="M 30.609375 48.390625 
Q 23.390625 48.390625 19.1875 42.75 
Q 14.984375 37.109375 14.984375 27.296875 
Q 14.984375 17.484375 19.15625 11.84375 
Q 23.34375 6.203125 30.609375 6.203125 
Q 37.796875 6.203125 41.984375 11.859375 
Q 46.1875 17.53125 46.1875 27.296875 
Q 46.1875 37.015625 41.984375 42.703125 
Q 37.796875 48.390625 30.609375 48.390625 
z
M 30.609375 56 
Q 42.328125 56 49.015625 48.375 
Q 55.71875 40.765625 55.71875 27.296875 
Q 55.71875 13.875 49.015625 6.21875 
Q 42.328125 -1.421875 30.609375 -1.421875 
Q 18.84375 -1.421875 12.171875 6.21875 
Q 5.515625 13.875 5.515625 27.296875 
Q 5.515625 40.765625 12.171875 48.375 
Q 18.84375 56 30.609375 56 
z
" id="DejaVuSans-6f"/>
      <path d="M 54.890625 33.015625 
L 54.890625 0 
L 45.90625 0 
L 45.90625 32.71875 
Q 45.90625 40.484375 42.875 44.328125 
Q 39.84375 48.1875 33.796875 48.1875 
Q 26.515625 48.1875 22.3125 43.546875 
Q 18.109375 38.921875 18.109375 30.90625 
L 18.109375 0 
L 9.078125 0 
L 9.078125 54.6875 
L 18.109375 54.6875 
L 18.109375 46.1875 
Q 21.34375 51.125 25.703125 53.5625 
Q 30.078125 56 35.796875 56 
Q 45.21875 56 50.046875 50.171875 
Q 54.890625 44.34375 54.890625 33.015625 
z
" id="DejaVuSans-6e"/>
     </defs>
     <g transform="translate(265.507969 415.795938)scale(0.14 -0.14)">
      <use xlink:href="#DejaVuSans-49"/>
      <use x="29.492188" xlink:href="#DejaVuSans-74"/>
      <use x="68.701172" xlink:href="#DejaVuSans-65"/>
      <use x="130.224609" xlink:href="#DejaVuSans-72"/>
      <use x="171.337891" xlink:href="#DejaVuSans-61"/>
      <use x="232.617188" xlink:href="#DejaVuSans-74"/>
      <use x="271.826172" xlink:href="#DejaVuSans-69"/>
      <use x="299.609375" xlink:href="#DejaVuSans-6f"/>
      <use x="360.791016" xlink:href="#DejaVuSans-6e"/>
     </g>
    </g>
   </g>
   <g id="matplotlib.axis_2">
    <g id="ytick_1">
     <g id="line2d_11">
      <path clip-path="url(#pac2ba873d5)" d="M 72 356.558212 
L 518.4 356.558212 
" style="fill:none;stroke:#b0b0b0;stroke-dasharray:5.12,1.28,0.8,1.28;stroke-dashoffset:0;stroke-width:0.8;"/>
     </g>
     <g id="line2d_12">
      <defs>
       <path d="M 0 0 
L -3.5 0 
" id="mdbbeaacf88" style="stroke:#000000;stroke-width:0.8;"/>
      </defs>
      <g>
       <use style="stroke:#000000;stroke-width:0.8;" x="72" xlink:href="#mdbbeaacf88" y="356.558212"/>
      </g>
     </g>
     <g id="text_7">
      <!-- −1500 -->
      <defs>
       <path d="M 10.59375 35.5 
L 73.1875 35.5 
L 73.1875 27.203125 
L 10.59375 27.203125 
z
" id="DejaVuSans-2212"/>
       <path d="M 12.40625 8.296875 
L 28.515625 8.296875 
L 28.515625 63.921875 
L 10.984375 60.40625 
L 10.984375 69.390625 
L 28.421875 72.90625 
L 38.28125 72.90625 
L 38.28125 8.296875 
L 54.390625 8.296875 
L 54.390625 0 
L 12.40625 0 
z
" id="DejaVuSans-31"/>
       <path d="M 10.796875 72.90625 
L 49.515625 72.90625 
L 49.515625 64.59375 
L 19.828125 64.59375 
L 19.828125 46.734375 
Q 21.96875 47.46875 24.109375 47.828125 
Q 26.265625 48.1875 28.421875 48.1875 
Q 40.625 48.1875 47.75 41.5 
Q 54.890625 34.8125 54.890625 23.390625 
Q 54.890625 11.625 47.5625 5.09375 
Q 40.234375 -1.421875 26.90625 -1.421875 
Q 22.3125 -1.421875 17.546875 -0.640625 
Q 12.796875 0.140625 7.71875 1.703125 
L 7.71875 11.625 
Q 12.109375 9.234375 16.796875 8.0625 
Q 21.484375 6.890625 26.703125 6.890625 
Q 35.15625 6.890625 40.078125 11.328125 
Q 45.015625 15.765625 45.015625 23.390625 
Q 45.015625 31 40.078125 35.4375 
Q 35.15625 39.890625 26.703125 39.890625 
Q 22.75 39.890625 18.8125 39.015625 
Q 14.890625 38.140625 10.796875 36.28125 
z
" id="DejaVuSans-35"/>
      </defs>
      <g transform="translate(31.170313 360.357431)scale(0.1 -0.1)">
       <use xlink:href="#DejaVuSans-2212"/>
       <use x="83.789062" xlink:href="#DejaVuSans-31"/>
       <use x="147.412109" xlink:href="#DejaVuSans-35"/>
       <use x="211.035156" xlink:href="#DejaVuSans-30"/>
       <use x="274.658203" xlink:href="#DejaVuSans-30"/>
      </g>
     </g>
    </g>
    <g id="ytick_2">
     <g id="line2d_13">
      <path clip-path="url(#pac2ba873d5)" d="M 72 318.449169 
L 518.4 318.449169 
" style="fill:none;stroke:#b0b0b0;stroke-dasharray:5.12,1.28,0.8,1.28;stroke-dashoffset:0;stroke-width:0.8;"/>
     </g>
     <g id="line2d_14">
      <g>
       <use style="stroke:#000000;stroke-width:0.8;" x="72" xlink:href="#mdbbeaacf88" y="318.449169"/>
      </g>
     </g>
     <g id="text_8">
      <!-- −1000 -->
      <g transform="translate(31.170313 322.248387)scale(0.1 -0.1)">
       <use xlink:href="#DejaVuSans-2212"/>
       <use x="83.789062" xlink:href="#DejaVuSans-31"/>
       <use x="147.412109" xlink:href="#DejaVuSans-30"/>
       <use x="211.035156" xlink:href="#DejaVuSans-30"/>
       <use x="274.658203" xlink:href="#DejaVuSans-30"/>
      </g>
     </g>
    </g>
    <g id="ytick_3">
     <g id="line2d_15">
      <path clip-path="url(#pac2ba873d5)" d="M 72 280.340125 
L 518.4 280.340125 
" style="fill:none;stroke:#b0b0b0;stroke-dasharray:5.12,1.28,0.8,1.28;stroke-dashoffset:0;stroke-width:0.8;"/>
     </g>
     <g id="line2d_16">
      <g>
       <use style="stroke:#000000;stroke-width:0.8;" x="72" xlink:href="#mdbbeaacf88" y="280.340125"/>
      </g>
     </g>
     <g id="text_9">
      <!-- −500 -->
      <g transform="translate(37.532812 284.139344)scale(0.1 -0.1)">
       <use xlink:href="#DejaVuSans-2212"/>
       <use x="83.789062" xlink:href="#DejaVuSans-35"/>
       <use x="147.412109" xlink:href="#DejaVuSans-30"/>
       <use x="211.035156" xlink:href="#DejaVuSans-30"/>
      </g>
     </g>
    </g>
    <g id="ytick_4">
     <g id="line2d_17">
      <path clip-path="url(#pac2ba873d5)" d="M 72 242.231082 
L 518.4 242.231082 
" style="fill:none;stroke:#b0b0b0;stroke-dasharray:5.12,1.28,0.8,1.28;stroke-dashoffset:0;stroke-width:0.8;"/>
     </g>
     <g id="line2d_18">
      <g>
       <use style="stroke:#000000;stroke-width:0.8;" x="72" xlink:href="#mdbbeaacf88" y="242.231082"/>
      </g>
     </g>
     <g id="text_10">
      <!-- 0 -->
      <g transform="translate(58.6375 246.030301)scale(0.1 -0.1)">
       <use xlink:href="#DejaVuSans-30"/>
      </g>
     </g>
    </g>
    <g id="ytick_5">
     <g id="line2d_19">
      <path clip-path="url(#pac2ba873d5)" d="M 72 204.122038 
L 518.4 204.122038 
" style="fill:none;stroke:#b0b0b0;stroke-dasharray:5.12,1.28,0.8,1.28;stroke-dashoffset:0;stroke-width:0.8;"/>
     </g>
     <g id="line2d_20">
      <g>
       <use style="stroke:#000000;stroke-width:0.8;" x="72" xlink:href="#mdbbeaacf88" y="204.122038"/>
      </g>
     </g>
     <g id="text_11">
      <!-- 500 -->
      <g transform="translate(45.9125 207.921257)scale(0.1 -0.1)">
       <use xlink:href="#DejaVuSans-35"/>
       <use x="63.623047" xlink:href="#DejaVuSans-30"/>
       <use x="127.246094" xlink:href="#DejaVuSans-30"/>
      </g>
     </g>
    </g>
    <g id="ytick_6">
     <g id="line2d_21">
      <path clip-path="url(#pac2ba873d5)" d="M 72 166.012995 
L 518.4 166.012995 
" style="fill:none;stroke:#b0b0b0;stroke-dasharray:5.12,1.28,0.8,1.28;stroke-dashoffset:0;stroke-width:0.8;"/>
     </g>
     <g id="line2d_22">
      <g>
       <use style="stroke:#000000;stroke-width:0.8;" x="72" xlink:href="#mdbbeaacf88" y="166.012995"/>
      </g>
     </g>
     <g id="text_12">
      <!-- 1000 -->
      <g transform="translate(39.55 169.812214)scale(0.1 -0.1)">
       <use xlink:href="#DejaVuSans-31"/>
       <use x="63.623047" xlink:href="#DejaVuSans-30"/>
       <use x="127.246094" xlink:href="#DejaVuSans-30"/>
       <use x="190.869141" xlink:href="#DejaVuSans-30"/>
      </g>
     </g>
    </g>
    <g id="ytick_7">
     <g id="line2d_23">
      <path clip-path="url(#pac2ba873d5)" d="M 72 127.903952 
L 518.4 127.903952 
" style="fill:none;stroke:#b0b0b0;stroke-dasharray:5.12,1.28,0.8,1.28;stroke-dashoffset:0;stroke-width:0.8;"/>
     </g>
     <g id="line2d_24">
      <g>
       <use style="stroke:#000000;stroke-width:0.8;" x="72" xlink:href="#mdbbeaacf88" y="127.903952"/>
      </g>
     </g>
     <g id="text_13">
      <!-- 1500 -->
      <g transform="translate(39.55 131.70317)scale(0.1 -0.1)">
       <use xlink:href="#DejaVuSans-31"/>
       <use x="63.623047" xlink:href="#DejaVuSans-35"/>
       <use x="127.246094" xlink:href="#DejaVuSans-30"/>
       <use x="190.869141" xlink:href="#DejaVuSans-30"/>
      </g>
     </g>
    </g>
    <g id="ytick_8">
     <g id="line2d_25">
      <path clip-path="url(#pac2ba873d5)" d="M 72 89.794908 
L 518.4 89.794908 
" style="fill:none;stroke:#b0b0b0;stroke-dasharray:5.12,1.28,0.8,1.28;stroke-dashoffset:0;stroke-width:0.8;"/>
     </g>
     <g id="line2d_26">
      <g>
       <use style="stroke:#000000;stroke-width:0.8;" x="72" xlink:href="#mdbbeaacf88" y="89.794908"/>
      </g>
     </g>
     <g id="text_14">
      <!-- 2000 -->
      <g transform="translate(39.55 93.594127)scale(0.1 -0.1)">
       <use xlink:href="#DejaVuSans-32"/>
       <use x="63.623047" xlink:href="#DejaVuSans-30"/>
       <use x="127.246094" xlink:href="#DejaVuSans-30"/>
       <use x="190.869141" xlink:href="#DejaVuSans-30"/>
      </g>
     </g>
    </g>
    <g id="ytick_9">
     <g id="line2d_27">
      <path clip-path="url(#pac2ba873d5)" d="M 72 51.685865 
L 518.4 51.685865 
" style="fill:none;stroke:#b0b0b0;stroke-dasharray:5.12,1.28,0.8,1.28;stroke-dashoffset:0;stroke-width:0.8;"/>
     </g>
     <g id="line2d_28">
      <g>
       <use style="stroke:#000000;stroke-width:0.8;" x="72" xlink:href="#mdbbeaacf88" y="51.685865"/>
      </g>
     </g>
     <g id="text_15">
      <!-- 2500 -->
      <g transform="translate(39.55 55.485084)scale(0.1 -0.1)">
       <use xlink:href="#DejaVuSans-32"/>
       <use x="63.623047" xlink:href="#DejaVuSans-35"/>
       <use x="127.246094" xlink:href="#DejaVuSans-30"/>
       <use x="190.869141" xlink:href="#DejaVuSans-30"/>
      </g>
     </g>
    </g>
    <g id="text_16">
     <!-- $\partial \mathcal{L}/ \partial u_{m}[m.u/V]$ -->
     <defs>
      <path d="M 21.34375 -1.421875 
Q 14.453125 -1.421875 9.96875 2.734375 
Q 4.640625 7.671875 4.640625 16.609375 
Q 4.640625 25.875 9.328125 33.109375 
Q 14.15625 40.53125 22.859375 40.53125 
Q 28.5625 40.53125 33.0625 36.96875 
Q 35.6875 34.859375 37.5 31.34375 
Q 38.140625 35.296875 38.140625 39.796875 
Q 38.140625 46.390625 36.578125 50.203125 
Q 33.109375 58.640625 23.921875 58.640625 
Q 20.453125 58.640625 15.09375 56.5 
L 15.09375 64.703125 
Q 20.75 66.21875 25.828125 66.21875 
Q 38.921875 66.21875 44.484375 54.203125 
Q 47.078125 48.53125 47.078125 40.09375 
Q 47.078125 34.578125 45.84375 28.171875 
Q 42.78125 12.15625 34.8125 4.546875 
Q 28.5625 -1.421875 21.34375 -1.421875 
z
M 12.984375 15.140625 
Q 12.984375 10.25 15.140625 7.625 
Q 17.4375 4.828125 20.953125 4.828125 
Q 24.078125 4.828125 26.5625 7.03125 
Q 30.078125 10.0625 32.671875 14.984375 
Q 34.8125 19.046875 35.890625 23.390625 
Q 31.546875 33.890625 24.03125 33.890625 
Q 17.578125 33.890625 14.75 25.390625 
Q 12.984375 20.125 12.984375 15.140625 
z
" id="DejaVuSans-2202"/>
      <path d="M 63.59375 14.296875 
L 65.296875 12.5 
Q 52.296875 -0.703125 37.703125 -0.703125 
Q 33.703125 -0.703125 28.90625 0.40625 
Q 21.796875 1.90625 17.90625 1.90625 
Q 15.703125 1.90625 10.5 0.953125 
Q 5.296875 0 3 0 
L 3.59375 2.40625 
Q 9.09375 2.40625 11.40625 11.703125 
L 18.40625 40.09375 
Q 20.09375 47 23.6875 52.390625 
Q 27.296875 57.796875 31.640625 60.84375 
Q 36 63.90625 40.390625 65.453125 
Q 44.796875 67 48.796875 67 
Q 53.796875 67 56.140625 63.796875 
Q 58.5 60.59375 58.5 56 
Q 58.5 52.296875 56.140625 50 
Q 53.796875 47.703125 50.40625 47.703125 
Q 48.203125 47.703125 46.796875 49.203125 
Q 45.40625 50.703125 45.40625 52.796875 
Q 45.40625 54.40625 46.203125 55.5 
Q 47 56.59375 47.890625 56.9375 
Q 48.796875 57.296875 49.59375 57.890625 
Q 50.40625 58.5 50.40625 59.203125 
Q 50.40625 63 44.59375 63 
Q 39.40625 63 36.09375 59.140625 
Q 32.796875 55.296875 31.09375 48.9375 
Q 29.40625 42.59375 28.046875 35.6875 
Q 26.703125 28.796875 24.203125 21.296875 
Q 21.703125 13.796875 18.09375 9.203125 
L 18.09375 8.796875 
Q 21.296875 11 29.5 11 
Q 34.796875 11 38.4375 8.5 
Q 42.09375 6 46.296875 6 
Q 54.796875 6 63.59375 14.296875 
z
" id="STIXNonUnicode-Italic-e238"/>
      <path d="M 25.390625 72.90625 
L 33.6875 72.90625 
L 8.296875 -9.28125 
L 0 -9.28125 
z
" id="DejaVuSans-2f"/>
      <path d="M 6.6875 21.6875 
L 13.09375 54.6875 
L 22.125 54.6875 
L 15.71875 22.015625 
Q 15.234375 19.625 15.015625 17.921875 
Q 14.796875 16.21875 14.796875 15.09375 
Q 14.796875 10.9375 17.328125 8.65625 
Q 19.875 6.390625 24.515625 6.390625 
Q 31.734375 6.390625 37 11.265625 
Q 42.28125 16.15625 43.890625 24.421875 
L 49.90625 54.6875 
L 58.890625 54.6875 
L 48.296875 0 
L 39.3125 0 
L 41.109375 8.59375 
Q 37.3125 3.8125 32.0625 1.1875 
Q 26.8125 -1.421875 20.90625 -1.421875 
Q 13.71875 -1.421875 9.71875 2.515625 
Q 5.71875 6.453125 5.71875 13.484375 
Q 5.71875 14.9375 5.953125 17.140625 
Q 6.203125 19.34375 6.6875 21.6875 
z
" id="DejaVuSans-Oblique-75"/>
      <path d="M 89.796875 33.015625 
L 83.40625 0 
L 74.421875 0 
L 80.71875 32.71875 
Q 81.109375 34.8125 81.296875 36.328125 
Q 81.5 37.84375 81.5 38.921875 
Q 81.5 43.3125 79.046875 45.75 
Q 76.609375 48.1875 72.21875 48.1875 
Q 65.671875 48.1875 60.546875 43.28125 
Q 55.421875 38.375 53.90625 30.515625 
L 47.90625 0 
L 38.921875 0 
L 45.3125 32.71875 
Q 45.703125 34.515625 45.890625 36.046875 
Q 46.09375 37.59375 46.09375 38.8125 
Q 46.09375 43.265625 43.65625 45.71875 
Q 41.21875 48.1875 36.921875 48.1875 
Q 30.28125 48.1875 25.140625 43.28125 
Q 20.015625 38.375 18.5 30.515625 
L 12.5 0 
L 3.515625 0 
L 14.203125 54.6875 
L 23.1875 54.6875 
L 21.484375 46.1875 
Q 25.140625 50.984375 30.046875 53.484375 
Q 34.96875 56 40.578125 56 
Q 46.53125 56 50.359375 52.875 
Q 54.203125 49.75 54.984375 44.1875 
Q 59.078125 49.953125 64.46875 52.96875 
Q 69.875 56 75.875 56 
Q 82.90625 56 86.734375 51.953125 
Q 90.578125 47.90625 90.578125 40.484375 
Q 90.578125 38.875 90.375 36.9375 
Q 90.1875 35.015625 89.796875 33.015625 
z
" id="DejaVuSans-Oblique-6d"/>
      <path d="M 8.59375 75.984375 
L 29.296875 75.984375 
L 29.296875 69 
L 17.578125 69 
L 17.578125 -6.203125 
L 29.296875 -6.203125 
L 29.296875 -13.1875 
L 8.59375 -13.1875 
z
" id="DejaVuSans-5b"/>
      <path d="M 10.6875 12.40625 
L 21 12.40625 
L 21 0 
L 10.6875 0 
z
" id="DejaVuSans-2e"/>
      <path d="M 20.609375 0 
L 7.8125 72.90625 
L 17.484375 72.90625 
L 28.078125 10.203125 
L 63.484375 72.90625 
L 74.21875 72.90625 
L 32.078125 0 
z
" id="DejaVuSans-Oblique-56"/>
      <path d="M 30.421875 75.984375 
L 30.421875 -13.1875 
L 9.71875 -13.1875 
L 9.71875 -6.203125 
L 21.390625 -6.203125 
L 21.390625 69 
L 9.71875 69 
L 9.71875 75.984375 
z
" id="DejaVuSans-5d"/>
     </defs>
     <g transform="translate(24.25875 269.47)rotate(-90)scale(0.14 -0.14)">
      <use transform="translate(0 0.015625)" xlink:href="#DejaVuSans-2202"/>
      <use transform="translate(51.708984 0.015625)" xlink:href="#STIXNonUnicode-Italic-e238"/>
      <use transform="translate(121.008972 0.015625)" xlink:href="#DejaVuSans-2f"/>
      <use transform="translate(154.700378 0.015625)" xlink:href="#DejaVuSans-2202"/>
      <use transform="translate(206.409363 0.015625)" xlink:href="#DejaVuSans-Oblique-75"/>
      <use transform="translate(269.788269 -16.390625)scale(0.7)" xlink:href="#DejaVuSans-Oblique-6d"/>
      <use transform="translate(340.711121 0.015625)" xlink:href="#DejaVuSans-5b"/>
      <use transform="translate(379.724792 0.015625)" xlink:href="#DejaVuSans-Oblique-6d"/>
      <use transform="translate(477.136902 0.015625)" xlink:href="#DejaVuSans-2e"/>
      <use transform="translate(528.406433 0.015625)" xlink:href="#DejaVuSans-Oblique-75"/>
      <use transform="translate(591.785339 0.015625)" xlink:href="#DejaVuSans-2f"/>
      <use transform="translate(625.476746 0.015625)" xlink:href="#DejaVuSans-Oblique-56"/>
      <use transform="translate(693.884949 0.015625)" xlink:href="#DejaVuSans-5d"/>
     </g>
    </g>
   </g>
   <g id="line2d_29">
    <path clip-path="url(#pac2ba873d5)" d="M 92.290909 242.231082 
L 92.732496 242.231082 
L 93.174083 242.231082 
L 93.615669 255.569247 
L 94.057256 264.114011 
L 94.498843 269.561943 
L 94.940429 271.978643 
L 95.382016 272.489678 
L 95.823603 271.961288 
L 96.706776 269.658618 
L 98.473123 264.689244 
L 99.356296 262.717322 
L 100.23947 261.126056 
L 101.122643 259.86938 
L 102.005817 258.891327 
L 103.330577 257.830485 
L 104.655337 257.124104 
L 105.980097 256.658297 
L 107.746444 256.27678 
L 110.395964 255.991 
L 111.279137 255.938653 
L 111.720724 264.330752 
L 112.603898 294.846668 
L 113.487071 313.255249 
L 114.370244 325.67885 
L 115.253418 334.391652 
L 116.136591 340.379269 
L 117.019765 344.200974 
L 117.461351 345.428847 
L 117.902938 346.259571 
L 118.344525 346.732123 
L 118.786111 350.717551 
L 119.227698 347.636329 
L 120.110872 333.503331 
L 122.318805 288.575985 
L 124.968325 235.872596 
L 127.176259 195.601298 
L 128.059432 181.519771 
L 128.942606 169.931054 
L 129.825779 160.545841 
L 130.708952 152.920016 
L 131.592126 146.682122 
L 132.475299 141.548727 
L 133.358473 137.304866 
L 134.683233 132.254587 
L 136.007993 128.42228 
L 137.332753 125.506329 
L 138.657513 123.284259 
L 139.982273 121.589542 
L 141.307033 120.296419 
L 142.631793 119.309478 
L 143.956554 118.556108 
L 145.7229 117.821282 
L 147.930834 117.20672 
L 150.580354 116.755433 
L 154.113048 116.431857 
L 158.970502 116.238941 
L 160.736848 116.204445 
L 161.178435 115.266551 
L 161.620022 113.0192 
L 162.503195 106.073217 
L 164.269542 90.709967 
L 165.594302 81.465887 
L 166.477476 76.664811 
L 167.360649 72.863411 
L 168.243822 69.954479 
L 169.126996 67.938777 
L 169.568582 67.324665 
L 170.010169 66.996196 
L 170.451756 66.96 
L 170.893343 67.216001 
L 171.334929 67.759215 
L 171.776516 68.581182 
L 172.659689 71.016799 
L 173.542863 74.422528 
L 174.426036 78.690398 
L 175.750796 86.477127 
L 177.075556 95.631918 
L 178.841903 109.463893 
L 181.049837 128.559473 
L 185.024117 165.393334 
L 190.323158 214.32652 
L 193.414265 240.906312 
L 196.063785 261.933953 
L 198.713305 281.082787 
L 200.921239 295.491115 
L 203.129172 308.432877 
L 205.337106 319.881733 
L 207.103452 327.962588 
L 208.869799 335.091777 
L 210.636146 341.282644 
L 212.402493 346.554306 
L 213.727253 349.919167 
L 215.052013 352.792253 
L 216.376773 355.186584 
L 217.701533 357.116273 
L 219.026293 358.596367 
L 220.351054 359.642781 
L 221.234227 360.107627 
L 222.1174 360.392188 
L 223.000574 360.501652 
L 223.883747 360.441302 
L 224.766921 360.216528 
L 226.091681 359.582972 
L 227.416441 358.610361 
L 228.741201 357.317535 
L 230.065961 355.723532 
L 231.832308 353.162704 
L 233.598655 350.145679 
L 235.365001 346.717504 
L 237.572935 341.921938 
L 240.222455 335.531265 
L 243.313562 327.378796 
L 246.846256 317.406757 
L 253.02847 299.13113 
L 259.65227 279.7224 
L 263.626551 268.724664 
L 267.159244 259.588844 
L 270.250351 252.191597 
L 273.341458 245.417981 
L 275.990978 240.143705 
L 278.640499 235.381248 
L 280.848432 231.811993 
L 283.056366 228.608875 
L 285.264299 225.771161 
L 287.472233 223.295018 
L 289.680166 221.173808 
L 291.8881 219.39833 
L 294.096033 217.957123 
L 296.303967 216.83674 
L 298.5119 216.021991 
L 300.719834 215.496254 
L 302.927767 215.241663 
L 305.135701 215.239445 
L 307.343634 215.470066 
L 309.551568 215.91351 
L 312.201088 216.698 
L 314.850608 217.724513 
L 317.941715 219.181421 
L 321.474409 221.122094 
L 325.448689 223.56416 
L 331.189316 227.374751 
L 342.228984 234.754293 
L 347.086438 237.716898 
L 351.502305 240.149642 
L 355.476585 242.08927 
L 359.450866 243.770862 
L 362.983559 245.040214 
L 366.516253 246.09556 
L 370.048946 246.940072 
L 374.023227 247.647391 
L 377.997507 248.1129 
L 381.971788 248.356661 
L 386.387655 248.395921 
L 391.245108 248.198295 
L 396.544149 247.750979 
L 403.167949 246.946238 
L 412.882857 245.500327 
L 427.896805 243.271908 
L 436.286952 242.270494 
L 443.793926 241.593975 
L 451.3009 241.136925 
L 459.249461 240.879186 
L 468.081195 240.825666 
L 478.679276 241.000099 
L 495.017984 241.528519 
L 498.109091 241.638258 
L 498.109091 241.638258 
" style="fill:none;stroke:#bf00bf;stroke-linecap:square;stroke-width:1.5;"/>
   </g>
   <g id="line2d_30">
    <path clip-path="url(#pac2ba873d5)" d="M 92.290909 242.231082 
L 93.615669 242.231082 
L 94.057256 227.225646 
L 94.940429 216.63384 
L 95.382016 213.664794 
L 96.265189 209.853791 
L 98.91471 200.230625 
L 100.23947 196.44424 
L 101.122643 194.4951 
L 102.005817 192.958749 
L 102.88899 191.76807 
L 103.772163 190.855351 
L 105.096924 189.879233 
L 106.421684 189.237103 
L 108.18803 188.712228 
L 110.395964 188.364147 
L 111.279137 188.281237 
L 111.720724 177.030335 
L 112.162311 154.787351 
L 112.603898 144.108786 
L 113.045484 139.693876 
L 113.487071 138.595078 
L 113.928658 139.18919 
L 114.811831 142.377179 
L 118.344525 157.38699 
L 118.786111 158.360387 
L 119.227698 140.643973 
L 119.669285 137.745406 
L 120.110872 141.23201 
L 120.994045 155.459732 
L 126.734672 263.981513 
L 128.059432 285.23091 
L 128.942606 295.683786 
L 129.825779 302.943872 
L 130.708952 307.985058 
L 131.592126 311.572697 
L 132.475299 314.20703 
L 133.358473 316.200689 
L 134.241646 317.748938 
L 135.566406 319.496108 
L 136.891166 320.768447 
L 138.215926 321.713848 
L 139.540687 322.424666 
L 141.307033 323.111597 
L 143.514967 323.682882 
L 146.164487 324.101258 
L 149.697181 324.400925 
L 154.996221 324.588612 
L 160.736848 324.655203 
L 161.178435 320.933627 
L 161.620022 316.159554 
L 162.061608 312.655169 
L 162.503195 310.483258 
L 162.944782 309.251963 
L 163.386369 308.589665 
L 164.269542 308.019432 
L 165.594302 307.461889 
L 166.919062 306.581601 
L 168.685409 305.005548 
L 169.568582 303.978959 
L 170.451756 302.341116 
L 171.334929 299.87274 
L 172.218103 296.532604 
L 173.101276 292.367537 
L 174.426036 284.762703 
L 175.750796 275.824859 
L 177.517143 262.387504 
L 180.166663 240.285935 
L 186.790464 184.029099 
L 189.439984 163.644632 
L 191.647918 148.202269 
L 193.855851 134.350599 
L 195.622198 124.487034 
L 197.388545 115.739438 
L 199.154892 108.120206 
L 200.921239 101.627469 
L 202.245999 97.489338 
L 203.570759 93.967925 
L 204.895519 91.051089 
L 206.220279 88.724395 
L 207.545039 86.971402 
L 208.428212 86.112569 
L 209.311386 85.49492 
L 210.194559 85.112458 
L 211.077733 84.958947 
L 211.960906 85.027947 
L 212.84408 85.312835 
L 213.727253 85.806835 
L 214.610426 86.503026 
L 215.935186 87.911056 
L 217.259947 89.734102 
L 218.584707 91.947719 
L 219.909467 94.527244 
L 221.675814 98.492932 
L 223.44216 103.006308 
L 225.650094 109.329345 
L 227.858028 116.304656 
L 230.507548 125.381918 
L 234.040241 138.386545 
L 238.897695 157.26684 
L 248.171016 193.464517 
L 252.145296 208.003932 
L 255.67799 220.063402 
L 258.769097 229.814591 
L 261.418617 237.511437 
L 264.068137 244.556961 
L 266.717658 250.924463 
L 268.925591 255.70102 
L 271.133525 259.991664 
L 273.341458 263.797028 
L 275.549392 267.121889 
L 277.757325 269.974778 
L 279.523672 271.925206 
L 281.290019 273.588689 
L 283.056366 274.973899 
L 284.822712 276.090494 
L 286.589059 276.949045 
L 288.355406 277.560878 
L 290.121753 277.937998 
L 291.8881 278.092949 
L 293.654447 278.038751 
L 295.420793 277.788755 
L 297.628727 277.221677 
L 299.83666 276.396883 
L 302.044594 275.341423 
L 304.694114 273.808334 
L 307.343634 272.027804 
L 310.434741 269.697367 
L 314.409022 266.404829 
L 320.149649 261.313446 
L 329.864556 252.679514 
L 334.280423 249.04988 
L 338.254704 246.050324 
L 341.787397 243.636307 
L 345.320091 241.484046 
L 348.852785 239.608196 
L 351.943892 238.199214 
L 355.034999 237.007536 
L 358.126105 236.029788 
L 361.217212 235.259398 
L 364.749906 234.620797 
L 368.2826 234.223251 
L 371.815293 234.046151 
L 375.789574 234.081905 
L 379.763854 234.332975 
L 384.621308 234.879939 
L 389.920348 235.705769 
L 396.985735 237.043153 
L 417.740311 241.125272 
L 424.805698 242.215419 
L 431.429498 243.013895 
L 438.053299 243.585089 
L 444.6771 243.937087 
L 451.742487 244.095895 
L 459.691048 244.054318 
L 469.405955 243.776602 
L 485.744663 243.046981 
L 498.109091 242.503775 
L 498.109091 242.503775 
" style="fill:none;stroke:#00bfbf;stroke-linecap:square;stroke-width:1.5;"/>
   </g>
   <g id="line2d_31">
    <path clip-path="url(#pac2ba873d5)" d="M 92.290909 242.231082 
L 92.732496 242.231082 
L 93.174083 242.231082 
L 93.615669 255.569247 
L 94.057256 294.333293 
L 94.498843 306.596845 
L 94.940429 315.522912 
L 95.382016 321.705221 
L 96.265189 329.431044 
L 97.148363 334.304695 
L 98.031536 337.916487 
L 98.91471 340.761823 
L 99.797883 343.02348 
L 100.681056 344.806366 
L 101.56423 346.195913 
L 102.447403 347.267997 
L 103.330577 348.088637 
L 104.655337 348.966266 
L 105.980097 349.544006 
L 107.746444 350.016627 
L 109.954377 350.330287 
L 111.279137 350.435087 
L 111.720724 347.656755 
L 112.603898 329.14377 
L 113.928658 302.043027 
L 114.811831 287.814764 
L 115.695004 276.274386 
L 116.578178 266.924408 
L 117.461351 259.35426 
L 117.902938 256.131996 
L 118.344525 254.348957 
L 118.786111 272.063801 
L 119.227698 276.155966 
L 119.669285 276.865045 
L 121.435632 276.809223 
L 122.318805 277.161404 
L 123.201978 277.734221 
L 124.526739 278.88484 
L 126.293085 280.779736 
L 127.176259 281.826424 
L 127.617845 282.641294 
L 128.501019 285.285421 
L 132.475299 299.687736 
L 133.800059 303.161551 
L 135.124819 305.89717 
L 136.44958 308.020949 
L 137.77434 309.657252 
L 139.0991 310.912785 
L 140.42386 311.873987 
L 142.190207 312.813184 
L 143.956554 313.469163 
L 146.164487 314.018062 
L 148.814007 314.421241 
L 152.346701 314.710351 
L 157.645741 314.891491 
L 160.295262 314.930378 
L 161.178435 288.385272 
L 161.620022 280.669525 
L 162.503195 270.724893 
L 163.386369 264.761743 
L 164.269542 260.880893 
L 165.152715 258.052051 
L 166.477476 254.712533 
L 168.243822 251.027327 
L 169.126996 249.489567 
L 170.010169 248.303232 
L 170.893343 247.411861 
L 172.218103 246.411918 
L 173.98445 245.378241 
L 177.075556 243.859908 
L 181.049837 242.144254 
L 185.024117 240.653924 
L 188.998397 239.39942 
L 192.972678 238.385978 
L 196.946958 237.610444 
L 200.921239 237.062817 
L 204.895519 236.727808 
L 209.311386 236.581416 
L 214.16884 236.659685 
L 219.46788 236.980883 
L 225.650094 237.590711 
L 234.040241 238.67018 
L 256.119577 241.634157 
L 264.509724 242.468516 
L 272.458285 243.031898 
L 280.406845 243.373317 
L 289.238579 243.519312 
L 299.395074 243.447904 
L 313.084262 243.102582 
L 347.969611 242.129285 
L 364.749906 241.950706 
L 385.062894 241.975256 
L 463.223741 242.292666 
L 498.109091 242.239085 
L 498.109091 242.239085 
" style="fill:none;stroke:#ff0000;stroke-linecap:square;stroke-width:1.5;"/>
   </g>
   <g id="line2d_32">
    <path clip-path="url(#pac2ba873d5)" d="M 92.290909 242.231082 
L 93.615669 242.231082 
L 94.057256 232.227458 
L 94.940429 228.034861 
L 95.382016 227.385849 
L 95.823603 227.919139 
L 96.265189 229.257811 
L 97.148363 233.13145 
L 98.91471 241.22639 
L 99.797883 244.482991 
L 100.681056 247.110175 
L 101.56423 249.175678 
L 102.447403 250.773773 
L 103.330577 251.997599 
L 104.21375 252.928549 
L 105.53851 253.9185 
L 106.86327 254.567132 
L 108.629617 255.096108 
L 110.837551 255.446452 
L 111.720724 255.529858 
L 112.162311 254.862309 
L 112.603898 252.388956 
L 113.487071 244.475392 
L 114.811831 232.472789 
L 115.695004 226.321372 
L 116.578178 221.711527 
L 117.461351 218.390163 
L 118.344525 216.096235 
L 118.786111 215.541794 
L 119.669285 224.349061 
L 120.110872 226.80416 
L 120.552458 228.231588 
L 120.994045 229.057258 
L 121.435632 229.553369 
L 122.318805 230.110996 
L 126.734672 232.158412 
L 128.059432 233.001102 
L 128.942606 234.059977 
L 130.267366 236.380437 
L 132.475299 240.43514 
L 133.800059 242.436833 
L 135.124819 244.048152 
L 136.44958 245.313509 
L 137.77434 246.294428 
L 139.0991 247.049597 
L 140.865447 247.789934 
L 143.07338 248.41102 
L 145.7229 248.867764 
L 149.255594 249.195441 
L 154.113048 249.390826 
L 160.736848 249.476457 
L 162.061608 281.799656 
L 162.944782 297.12116 
L 163.827955 309.043933 
L 165.152715 323.095095 
L 166.477476 334.085744 
L 167.802236 342.720864 
L 168.685409 347.335099 
L 169.568582 351.146271 
L 170.893343 355.718921 
L 172.218103 359.338099 
L 173.542863 362.267899 
L 174.867623 364.630271 
L 176.192383 366.483324 
L 177.517143 367.859418 
L 178.400317 368.523194 
L 179.28349 368.990876 
L 180.166663 369.267997 
L 181.049837 369.36 
L 181.93301 369.272364 
L 182.816184 369.010624 
L 183.699357 368.580403 
L 185.024117 367.631633 
L 186.348877 366.336093 
L 187.673637 364.71357 
L 188.998397 362.784064 
L 190.764744 359.768609 
L 192.531091 356.290869 
L 194.739025 351.365923 
L 196.946958 345.884418 
L 199.596478 338.697906 
L 202.687585 329.66264 
L 207.103452 315.962614 
L 219.026293 278.432348 
L 223.000574 266.880804 
L 226.091681 258.504893 
L 229.182788 250.752157 
L 231.832308 244.650686 
L 234.481828 239.081811 
L 237.131348 234.064977 
L 239.339282 230.314079 
L 241.547215 226.956299 
L 243.755149 223.990142 
L 245.963082 221.410854 
L 248.171016 219.210727 
L 250.378949 217.379367 
L 252.145296 216.171287 
L 253.911643 215.183585 
L 255.67799 214.407997 
L 257.444337 213.835592 
L 259.210684 213.456871 
L 261.418617 213.240587 
L 263.626551 213.290945 
L 265.834484 213.586877 
L 268.042418 214.106814 
L 270.691938 214.995692 
L 273.341458 216.137934 
L 276.432565 217.740907 
L 279.965259 219.858528 
L 283.939539 222.506344 
L 290.121753 226.936497 
L 299.83666 233.909957 
L 304.694114 237.114859 
L 309.109981 239.754619 
L 313.084262 241.865509 
L 316.616955 243.511355 
L 320.149649 244.930566 
L 323.682342 246.120003 
L 327.215036 247.08186 
L 330.74773 247.822959 
L 334.280423 248.354054 
L 338.254704 248.718011 
L 342.228984 248.857589 
L 346.644851 248.781843 
L 351.502305 248.462848 
L 356.801345 247.893766 
L 363.866733 246.889333 
L 377.997507 244.56722 
L 387.712415 243.099785 
L 395.660975 242.127303 
L 403.167949 241.442949 
L 410.674923 240.993536 
L 418.623484 240.755866 
L 427.013631 240.729052 
L 437.170126 240.922257 
L 453.067247 241.477346 
L 475.588169 242.231189 
L 491.043704 242.508668 
L 498.109091 242.562509 
L 498.109091 242.562509 
" style="fill:none;stroke:#008000;stroke-linecap:square;stroke-width:1.5;"/>
   </g>
   <g id="patch_3">
    <path d="M 72 384.48 
L 72 51.84 
" style="fill:none;stroke:#000000;stroke-linecap:square;stroke-linejoin:miter;stroke-width:0.8;"/>
   </g>
   <g id="patch_4">
    <path d="M 518.4 384.48 
L 518.4 51.84 
" style="fill:none;stroke:#000000;stroke-linecap:square;stroke-linejoin:miter;stroke-width:0.8;"/>
   </g>
   <g id="patch_5">
    <path d="M 72 384.48 
L 518.4 384.48 
" style="fill:none;stroke:#000000;stroke-linecap:square;stroke-linejoin:miter;stroke-width:0.8;"/>
   </g>
   <g id="patch_6">
    <path d="M 72 51.84 
L 518.4 51.84 
" style="fill:none;stroke:#000000;stroke-linecap:square;stroke-linejoin:miter;stroke-width:0.8;"/>
   </g>
   <g id="text_17">
    <!-- $\partial\mathcal{L} / \partial u_{m}$ -->
    <g transform="translate(271.33 45.84)scale(0.14 -0.14)">
     <use transform="translate(0 0.09375)" xlink:href="#DejaVuSans-2202"/>
     <use transform="translate(51.708984 0.09375)" xlink:href="#STIXNonUnicode-Italic-e238"/>
     <use transform="translate(121.008972 0.09375)" xlink:href="#DejaVuSans-2f"/>
     <use transform="translate(154.700378 0.09375)" xlink:href="#DejaVuSans-2202"/>
     <use transform="translate(206.409363 0.09375)" xlink:href="#DejaVuSans-Oblique-75"/>
     <use transform="translate(269.788269 -16.3125)scale(0.7)" xlink:href="#DejaVuSans-Oblique-6d"/>
    </g>
   </g>
   <g id="legend_1">
    <g id="patch_7">
     <path d="M 447.6 118.5525 
L 511.4 118.5525 
Q 513.4 118.5525 513.4 116.5525 
L 513.4 58.84 
Q 513.4 56.84 511.4 56.84 
L 447.6 56.84 
Q 445.6 56.84 445.6 58.84 
L 445.6 116.5525 
Q 445.6 118.5525 447.6 118.5525 
z
" style="fill:#ffffff;opacity:0.8;stroke:#cccccc;stroke-linejoin:miter;"/>
    </g>
    <g id="line2d_33">
     <path d="M 449.6 64.938438 
L 469.6 64.938438 
" style="fill:none;stroke:#bf00bf;stroke-linecap:square;stroke-width:1.5;"/>
    </g>
    <g id="line2d_34"/>
    <g id="text_18">
     <!-- $\partial\mathcal{L} / \partial u_{1}$ -->
     <g transform="translate(477.6 68.438438)scale(0.1 -0.1)">
      <use transform="translate(0 0.09375)" xlink:href="#DejaVuSans-2202"/>
      <use transform="translate(51.708984 0.09375)" xlink:href="#STIXNonUnicode-Italic-e238"/>
      <use transform="translate(121.008972 0.09375)" xlink:href="#DejaVuSans-2f"/>
      <use transform="translate(154.700378 0.09375)" xlink:href="#DejaVuSans-2202"/>
      <use transform="translate(206.409363 0.09375)" xlink:href="#DejaVuSans-Oblique-75"/>
      <use transform="translate(269.788269 -16.3125)scale(0.7)" xlink:href="#DejaVuSans-31"/>
     </g>
    </g>
    <g id="line2d_35">
     <path d="M 449.6 79.616563 
L 469.6 79.616563 
" style="fill:none;stroke:#00bfbf;stroke-linecap:square;stroke-width:1.5;"/>
    </g>
    <g id="line2d_36"/>
    <g id="text_19">
     <!-- $\partial\mathcal{L} / \partial u_{2}$ -->
     <g transform="translate(477.6 83.116563)scale(0.1 -0.1)">
      <use transform="translate(0 0.09375)" xlink:href="#DejaVuSans-2202"/>
      <use transform="translate(51.708984 0.09375)" xlink:href="#STIXNonUnicode-Italic-e238"/>
      <use transform="translate(121.008972 0.09375)" xlink:href="#DejaVuSans-2f"/>
      <use transform="translate(154.700378 0.09375)" xlink:href="#DejaVuSans-2202"/>
      <use transform="translate(206.409363 0.09375)" xlink:href="#DejaVuSans-Oblique-75"/>
      <use transform="translate(269.788269 -16.3125)scale(0.7)" xlink:href="#DejaVuSans-32"/>
     </g>
    </g>
    <g id="line2d_37">
     <path d="M 449.6 94.294688 
L 469.6 94.294688 
" style="fill:none;stroke:#ff0000;stroke-linecap:square;stroke-width:1.5;"/>
    </g>
    <g id="line2d_38"/>
    <g id="text_20">
     <!-- $\partial\mathcal{L} / \partial u_{3}$ -->
     <defs>
      <path d="M 40.578125 39.3125 
Q 47.65625 37.796875 51.625 33 
Q 55.609375 28.21875 55.609375 21.1875 
Q 55.609375 10.40625 48.1875 4.484375 
Q 40.765625 -1.421875 27.09375 -1.421875 
Q 22.515625 -1.421875 17.65625 -0.515625 
Q 12.796875 0.390625 7.625 2.203125 
L 7.625 11.71875 
Q 11.71875 9.328125 16.59375 8.109375 
Q 21.484375 6.890625 26.8125 6.890625 
Q 36.078125 6.890625 40.9375 10.546875 
Q 45.796875 14.203125 45.796875 21.1875 
Q 45.796875 27.640625 41.28125 31.265625 
Q 36.765625 34.90625 28.71875 34.90625 
L 20.21875 34.90625 
L 20.21875 43.015625 
L 29.109375 43.015625 
Q 36.375 43.015625 40.234375 45.921875 
Q 44.09375 48.828125 44.09375 54.296875 
Q 44.09375 59.90625 40.109375 62.90625 
Q 36.140625 65.921875 28.71875 65.921875 
Q 24.65625 65.921875 20.015625 65.03125 
Q 15.375 64.15625 9.8125 62.3125 
L 9.8125 71.09375 
Q 15.4375 72.65625 20.34375 73.4375 
Q 25.25 74.21875 29.59375 74.21875 
Q 40.828125 74.21875 47.359375 69.109375 
Q 53.90625 64.015625 53.90625 55.328125 
Q 53.90625 49.265625 50.4375 45.09375 
Q 46.96875 40.921875 40.578125 39.3125 
z
" id="DejaVuSans-33"/>
     </defs>
     <g transform="translate(477.6 97.794688)scale(0.1 -0.1)">
      <use transform="translate(0 0.09375)" xlink:href="#DejaVuSans-2202"/>
      <use transform="translate(51.708984 0.09375)" xlink:href="#STIXNonUnicode-Italic-e238"/>
      <use transform="translate(121.008972 0.09375)" xlink:href="#DejaVuSans-2f"/>
      <use transform="translate(154.700378 0.09375)" xlink:href="#DejaVuSans-2202"/>
      <use transform="translate(206.409363 0.09375)" xlink:href="#DejaVuSans-Oblique-75"/>
      <use transform="translate(269.788269 -16.3125)scale(0.7)" xlink:href="#DejaVuSans-33"/>
     </g>
    </g>
    <g id="line2d_39">
     <path d="M 449.6 108.972813 
L 469.6 108.972813 
" style="fill:none;stroke:#008000;stroke-linecap:square;stroke-width:1.5;"/>
    </g>
    <g id="line2d_40"/>
    <g id="text_21">
     <!-- $\partial\mathcal{L} / \partial u_{4}$ -->
     <g transform="translate(477.6 112.472813)scale(0.1 -0.1)">
      <use transform="translate(0 0.09375)" xlink:href="#DejaVuSans-2202"/>
      <use transform="translate(51.708984 0.09375)" xlink:href="#STIXNonUnicode-Italic-e238"/>
      <use transform="translate(121.008972 0.09375)" xlink:href="#DejaVuSans-2f"/>
      <use transform="translate(154.700378 0.09375)" xlink:href="#DejaVuSans-2202"/>
      <use transform="translate(206.409363 0.09375)" xlink:href="#DejaVuSans-Oblique-75"/>
      <use transform="translate(269.788269 -16.3125)scale(0.7)" xlink:href="#DejaVuSans-34"/>
     </g>
    </g>
   </g>
  </g>
 </g>
 <defs>
  <clipPath id="pac2ba873d5">
   <rect height="332.64" width="446.4" x="72" y="51.84"/>
  </clipPath>
 </defs>
</svg>
