<?xml version="1.0" encoding="utf-8" standalone="no"?>
<!DOCTYPE svg PUBLIC "-//W3C//DTD SVG 1.1//EN"
  "http://www.w3.org/Graphics/SVG/1.1/DTD/svg11.dtd">
<!-- Created with matplotlib (http://matplotlib.org/) -->
<svg height="432pt" version="1.1" viewBox="0 0 576 432" width="576pt" xmlns="http://www.w3.org/2000/svg" xmlns:xlink="http://www.w3.org/1999/xlink">
 <defs>
  <style type="text/css">
*{stroke-linecap:butt;stroke-linejoin:round;}
  </style>
 </defs>
 <g id="figure_1">
  <g id="patch_1">
   <path d="M 0 432 
L 576 432 
L 576 0 
L 0 0 
z
" style="fill:#ffffff;"/>
  </g>
  <g id="axes_1">
   <g id="patch_2">
    <path d="M 72 384.48 
L 518.4 384.48 
L 518.4 51.84 
L 72 51.84 
z
" style="fill:#ffffff;"/>
   </g>
   <g id="matplotlib.axis_1">
    <g id="xtick_1">
     <g id="line2d_1">
      <path clip-path="url(#p85497ed427)" d="M 92.290909 384.48 
L 92.290909 51.84 
" style="fill:none;stroke:#b0b0b0;stroke-dasharray:5.12,1.28,0.8,1.28;stroke-dashoffset:0;stroke-width:0.8;"/>
     </g>
     <g id="line2d_2">
      <defs>
       <path d="M 0 0 
L 0 3.5 
" id="ma2d28851b3" style="stroke:#000000;stroke-width:0.8;"/>
      </defs>
      <g>
       <use style="stroke:#000000;stroke-width:0.8;" x="92.290909" xlink:href="#ma2d28851b3" y="384.48"/>
      </g>
     </g>
     <g id="text_1">
      <!-- 0 -->
      <defs>
       <path d="M 31.78125 66.40625 
Q 24.171875 66.40625 20.328125 58.90625 
Q 16.5 51.421875 16.5 36.375 
Q 16.5 21.390625 20.328125 13.890625 
Q 24.171875 6.390625 31.78125 6.390625 
Q 39.453125 6.390625 43.28125 13.890625 
Q 47.125 21.390625 47.125 36.375 
Q 47.125 51.421875 43.28125 58.90625 
Q 39.453125 66.40625 31.78125 66.40625 
z
M 31.78125 74.21875 
Q 44.046875 74.21875 50.515625 64.515625 
Q 56.984375 54.828125 56.984375 36.375 
Q 56.984375 17.96875 50.515625 8.265625 
Q 44.046875 -1.421875 31.78125 -1.421875 
Q 19.53125 -1.421875 13.0625 8.265625 
Q 6.59375 17.96875 6.59375 36.375 
Q 6.59375 54.828125 13.0625 64.515625 
Q 19.53125 74.21875 31.78125 74.21875 
z
" id="DejaVuSans-30"/>
      </defs>
      <g transform="translate(89.109659 399.078438)scale(0.1 -0.1)">
       <use xlink:href="#DejaVuSans-30"/>
      </g>
     </g>
    </g>
    <g id="xtick_2">
     <g id="line2d_3">
      <path clip-path="url(#p85497ed427)" d="M 173.53579 384.48 
L 173.53579 51.84 
" style="fill:none;stroke:#b0b0b0;stroke-dasharray:5.12,1.28,0.8,1.28;stroke-dashoffset:0;stroke-width:0.8;"/>
     </g>
     <g id="line2d_4">
      <g>
       <use style="stroke:#000000;stroke-width:0.8;" x="173.53579" xlink:href="#ma2d28851b3" y="384.48"/>
      </g>
     </g>
     <g id="text_2">
      <!-- 200 -->
      <defs>
       <path d="M 19.1875 8.296875 
L 53.609375 8.296875 
L 53.609375 0 
L 7.328125 0 
L 7.328125 8.296875 
Q 12.9375 14.109375 22.625 23.890625 
Q 32.328125 33.6875 34.8125 36.53125 
Q 39.546875 41.84375 41.421875 45.53125 
Q 43.3125 49.21875 43.3125 52.78125 
Q 43.3125 58.59375 39.234375 62.25 
Q 35.15625 65.921875 28.609375 65.921875 
Q 23.96875 65.921875 18.8125 64.3125 
Q 13.671875 62.703125 7.8125 59.421875 
L 7.8125 69.390625 
Q 13.765625 71.78125 18.9375 73 
Q 24.125 74.21875 28.421875 74.21875 
Q 39.75 74.21875 46.484375 68.546875 
Q 53.21875 62.890625 53.21875 53.421875 
Q 53.21875 48.921875 51.53125 44.890625 
Q 49.859375 40.875 45.40625 35.40625 
Q 44.1875 33.984375 37.640625 27.21875 
Q 31.109375 20.453125 19.1875 8.296875 
z
" id="DejaVuSans-32"/>
      </defs>
      <g transform="translate(163.99204 399.078438)scale(0.1 -0.1)">
       <use xlink:href="#DejaVuSans-32"/>
       <use x="63.623047" xlink:href="#DejaVuSans-30"/>
       <use x="127.246094" xlink:href="#DejaVuSans-30"/>
      </g>
     </g>
    </g>
    <g id="xtick_3">
     <g id="line2d_5">
      <path clip-path="url(#p85497ed427)" d="M 254.780672 384.48 
L 254.780672 51.84 
" style="fill:none;stroke:#b0b0b0;stroke-dasharray:5.12,1.28,0.8,1.28;stroke-dashoffset:0;stroke-width:0.8;"/>
     </g>
     <g id="line2d_6">
      <g>
       <use style="stroke:#000000;stroke-width:0.8;" x="254.780672" xlink:href="#ma2d28851b3" y="384.48"/>
      </g>
     </g>
     <g id="text_3">
      <!-- 400 -->
      <defs>
       <path d="M 37.796875 64.3125 
L 12.890625 25.390625 
L 37.796875 25.390625 
z
M 35.203125 72.90625 
L 47.609375 72.90625 
L 47.609375 25.390625 
L 58.015625 25.390625 
L 58.015625 17.1875 
L 47.609375 17.1875 
L 47.609375 0 
L 37.796875 0 
L 37.796875 17.1875 
L 4.890625 17.1875 
L 4.890625 26.703125 
z
" id="DejaVuSans-34"/>
      </defs>
      <g transform="translate(245.236922 399.078438)scale(0.1 -0.1)">
       <use xlink:href="#DejaVuSans-34"/>
       <use x="63.623047" xlink:href="#DejaVuSans-30"/>
       <use x="127.246094" xlink:href="#DejaVuSans-30"/>
      </g>
     </g>
    </g>
    <g id="xtick_4">
     <g id="line2d_7">
      <path clip-path="url(#p85497ed427)" d="M 336.025553 384.48 
L 336.025553 51.84 
" style="fill:none;stroke:#b0b0b0;stroke-dasharray:5.12,1.28,0.8,1.28;stroke-dashoffset:0;stroke-width:0.8;"/>
     </g>
     <g id="line2d_8">
      <g>
       <use style="stroke:#000000;stroke-width:0.8;" x="336.025553" xlink:href="#ma2d28851b3" y="384.48"/>
      </g>
     </g>
     <g id="text_4">
      <!-- 600 -->
      <defs>
       <path d="M 33.015625 40.375 
Q 26.375 40.375 22.484375 35.828125 
Q 18.609375 31.296875 18.609375 23.390625 
Q 18.609375 15.53125 22.484375 10.953125 
Q 26.375 6.390625 33.015625 6.390625 
Q 39.65625 6.390625 43.53125 10.953125 
Q 47.40625 15.53125 47.40625 23.390625 
Q 47.40625 31.296875 43.53125 35.828125 
Q 39.65625 40.375 33.015625 40.375 
z
M 52.59375 71.296875 
L 52.59375 62.3125 
Q 48.875 64.0625 45.09375 64.984375 
Q 41.3125 65.921875 37.59375 65.921875 
Q 27.828125 65.921875 22.671875 59.328125 
Q 17.53125 52.734375 16.796875 39.40625 
Q 19.671875 43.65625 24.015625 45.921875 
Q 28.375 48.1875 33.59375 48.1875 
Q 44.578125 48.1875 50.953125 41.515625 
Q 57.328125 34.859375 57.328125 23.390625 
Q 57.328125 12.15625 50.6875 5.359375 
Q 44.046875 -1.421875 33.015625 -1.421875 
Q 20.359375 -1.421875 13.671875 8.265625 
Q 6.984375 17.96875 6.984375 36.375 
Q 6.984375 53.65625 15.1875 63.9375 
Q 23.390625 74.21875 37.203125 74.21875 
Q 40.921875 74.21875 44.703125 73.484375 
Q 48.484375 72.75 52.59375 71.296875 
z
" id="DejaVuSans-36"/>
      </defs>
      <g transform="translate(326.481803 399.078438)scale(0.1 -0.1)">
       <use xlink:href="#DejaVuSans-36"/>
       <use x="63.623047" xlink:href="#DejaVuSans-30"/>
       <use x="127.246094" xlink:href="#DejaVuSans-30"/>
      </g>
     </g>
    </g>
    <g id="xtick_5">
     <g id="line2d_9">
      <path clip-path="url(#p85497ed427)" d="M 417.270434 384.48 
L 417.270434 51.84 
" style="fill:none;stroke:#b0b0b0;stroke-dasharray:5.12,1.28,0.8,1.28;stroke-dashoffset:0;stroke-width:0.8;"/>
     </g>
     <g id="line2d_10">
      <g>
       <use style="stroke:#000000;stroke-width:0.8;" x="417.270434" xlink:href="#ma2d28851b3" y="384.48"/>
      </g>
     </g>
     <g id="text_5">
      <!-- 800 -->
      <defs>
       <path d="M 31.78125 34.625 
Q 24.75 34.625 20.71875 30.859375 
Q 16.703125 27.09375 16.703125 20.515625 
Q 16.703125 13.921875 20.71875 10.15625 
Q 24.75 6.390625 31.78125 6.390625 
Q 38.8125 6.390625 42.859375 10.171875 
Q 46.921875 13.96875 46.921875 20.515625 
Q 46.921875 27.09375 42.890625 30.859375 
Q 38.875 34.625 31.78125 34.625 
z
M 21.921875 38.8125 
Q 15.578125 40.375 12.03125 44.71875 
Q 8.5 49.078125 8.5 55.328125 
Q 8.5 64.0625 14.71875 69.140625 
Q 20.953125 74.21875 31.78125 74.21875 
Q 42.671875 74.21875 48.875 69.140625 
Q 55.078125 64.0625 55.078125 55.328125 
Q 55.078125 49.078125 51.53125 44.71875 
Q 48 40.375 41.703125 38.8125 
Q 48.828125 37.15625 52.796875 32.3125 
Q 56.78125 27.484375 56.78125 20.515625 
Q 56.78125 9.90625 50.3125 4.234375 
Q 43.84375 -1.421875 31.78125 -1.421875 
Q 19.734375 -1.421875 13.25 4.234375 
Q 6.78125 9.90625 6.78125 20.515625 
Q 6.78125 27.484375 10.78125 32.3125 
Q 14.796875 37.15625 21.921875 38.8125 
z
M 18.3125 54.390625 
Q 18.3125 48.734375 21.84375 45.5625 
Q 25.390625 42.390625 31.78125 42.390625 
Q 38.140625 42.390625 41.71875 45.5625 
Q 45.3125 48.734375 45.3125 54.390625 
Q 45.3125 60.0625 41.71875 63.234375 
Q 38.140625 66.40625 31.78125 66.40625 
Q 25.390625 66.40625 21.84375 63.234375 
Q 18.3125 60.0625 18.3125 54.390625 
z
" id="DejaVuSans-38"/>
      </defs>
      <g transform="translate(407.726684 399.078438)scale(0.1 -0.1)">
       <use xlink:href="#DejaVuSans-38"/>
       <use x="63.623047" xlink:href="#DejaVuSans-30"/>
       <use x="127.246094" xlink:href="#DejaVuSans-30"/>
      </g>
     </g>
    </g>
    <g id="xtick_6">
     <g id="line2d_11">
      <path clip-path="url(#p85497ed427)" d="M 498.515315 384.48 
L 498.515315 51.84 
" style="fill:none;stroke:#b0b0b0;stroke-dasharray:5.12,1.28,0.8,1.28;stroke-dashoffset:0;stroke-width:0.8;"/>
     </g>
     <g id="line2d_12">
      <g>
       <use style="stroke:#000000;stroke-width:0.8;" x="498.515315" xlink:href="#ma2d28851b3" y="384.48"/>
      </g>
     </g>
     <g id="text_6">
      <!-- 1000 -->
      <defs>
       <path d="M 12.40625 8.296875 
L 28.515625 8.296875 
L 28.515625 63.921875 
L 10.984375 60.40625 
L 10.984375 69.390625 
L 28.421875 72.90625 
L 38.28125 72.90625 
L 38.28125 8.296875 
L 54.390625 8.296875 
L 54.390625 0 
L 12.40625 0 
z
" id="DejaVuSans-31"/>
      </defs>
      <g transform="translate(485.790315 399.078438)scale(0.1 -0.1)">
       <use xlink:href="#DejaVuSans-31"/>
       <use x="63.623047" xlink:href="#DejaVuSans-30"/>
       <use x="127.246094" xlink:href="#DejaVuSans-30"/>
       <use x="190.869141" xlink:href="#DejaVuSans-30"/>
      </g>
     </g>
    </g>
    <g id="text_7">
     <!-- Iteration -->
     <defs>
      <path d="M 9.8125 72.90625 
L 19.671875 72.90625 
L 19.671875 0 
L 9.8125 0 
z
" id="DejaVuSans-49"/>
      <path d="M 18.3125 70.21875 
L 18.3125 54.6875 
L 36.8125 54.6875 
L 36.8125 47.703125 
L 18.3125 47.703125 
L 18.3125 18.015625 
Q 18.3125 11.328125 20.140625 9.421875 
Q 21.96875 7.515625 27.59375 7.515625 
L 36.8125 7.515625 
L 36.8125 0 
L 27.59375 0 
Q 17.1875 0 13.234375 3.875 
Q 9.28125 7.765625 9.28125 18.015625 
L 9.28125 47.703125 
L 2.6875 47.703125 
L 2.6875 54.6875 
L 9.28125 54.6875 
L 9.28125 70.21875 
z
" id="DejaVuSans-74"/>
      <path d="M 56.203125 29.59375 
L 56.203125 25.203125 
L 14.890625 25.203125 
Q 15.484375 15.921875 20.484375 11.0625 
Q 25.484375 6.203125 34.421875 6.203125 
Q 39.59375 6.203125 44.453125 7.46875 
Q 49.3125 8.734375 54.109375 11.28125 
L 54.109375 2.78125 
Q 49.265625 0.734375 44.1875 -0.34375 
Q 39.109375 -1.421875 33.890625 -1.421875 
Q 20.796875 -1.421875 13.15625 6.1875 
Q 5.515625 13.8125 5.515625 26.8125 
Q 5.515625 40.234375 12.765625 48.109375 
Q 20.015625 56 32.328125 56 
Q 43.359375 56 49.78125 48.890625 
Q 56.203125 41.796875 56.203125 29.59375 
z
M 47.21875 32.234375 
Q 47.125 39.59375 43.09375 43.984375 
Q 39.0625 48.390625 32.421875 48.390625 
Q 24.90625 48.390625 20.390625 44.140625 
Q 15.875 39.890625 15.1875 32.171875 
z
" id="DejaVuSans-65"/>
      <path d="M 41.109375 46.296875 
Q 39.59375 47.171875 37.8125 47.578125 
Q 36.03125 48 33.890625 48 
Q 26.265625 48 22.1875 43.046875 
Q 18.109375 38.09375 18.109375 28.8125 
L 18.109375 0 
L 9.078125 0 
L 9.078125 54.6875 
L 18.109375 54.6875 
L 18.109375 46.1875 
Q 20.953125 51.171875 25.484375 53.578125 
Q 30.03125 56 36.53125 56 
Q 37.453125 56 38.578125 55.875 
Q 39.703125 55.765625 41.0625 55.515625 
z
" id="DejaVuSans-72"/>
      <path d="M 34.28125 27.484375 
Q 23.390625 27.484375 19.1875 25 
Q 14.984375 22.515625 14.984375 16.5 
Q 14.984375 11.71875 18.140625 8.90625 
Q 21.296875 6.109375 26.703125 6.109375 
Q 34.1875 6.109375 38.703125 11.40625 
Q 43.21875 16.703125 43.21875 25.484375 
L 43.21875 27.484375 
z
M 52.203125 31.203125 
L 52.203125 0 
L 43.21875 0 
L 43.21875 8.296875 
Q 40.140625 3.328125 35.546875 0.953125 
Q 30.953125 -1.421875 24.3125 -1.421875 
Q 15.921875 -1.421875 10.953125 3.296875 
Q 6 8.015625 6 15.921875 
Q 6 25.140625 12.171875 29.828125 
Q 18.359375 34.515625 30.609375 34.515625 
L 43.21875 34.515625 
L 43.21875 35.40625 
Q 43.21875 41.609375 39.140625 45 
Q 35.0625 48.390625 27.6875 48.390625 
Q 23 48.390625 18.546875 47.265625 
Q 14.109375 46.140625 10.015625 43.890625 
L 10.015625 52.203125 
Q 14.9375 54.109375 19.578125 55.046875 
Q 24.21875 56 28.609375 56 
Q 40.484375 56 46.34375 49.84375 
Q 52.203125 43.703125 52.203125 31.203125 
z
" id="DejaVuSans-61"/>
      <path d="M 9.421875 54.6875 
L 18.40625 54.6875 
L 18.40625 0 
L 9.421875 0 
z
M 9.421875 75.984375 
L 18.40625 75.984375 
L 18.40625 64.59375 
L 9.421875 64.59375 
z
" id="DejaVuSans-69"/>
      <path d="M 30.609375 48.390625 
Q 23.390625 48.390625 19.1875 42.75 
Q 14.984375 37.109375 14.984375 27.296875 
Q 14.984375 17.484375 19.15625 11.84375 
Q 23.34375 6.203125 30.609375 6.203125 
Q 37.796875 6.203125 41.984375 11.859375 
Q 46.1875 17.53125 46.1875 27.296875 
Q 46.1875 37.015625 41.984375 42.703125 
Q 37.796875 48.390625 30.609375 48.390625 
z
M 30.609375 56 
Q 42.328125 56 49.015625 48.375 
Q 55.71875 40.765625 55.71875 27.296875 
Q 55.71875 13.875 49.015625 6.21875 
Q 42.328125 -1.421875 30.609375 -1.421875 
Q 18.84375 -1.421875 12.171875 6.21875 
Q 5.515625 13.875 5.515625 27.296875 
Q 5.515625 40.765625 12.171875 48.375 
Q 18.84375 56 30.609375 56 
z
" id="DejaVuSans-6f"/>
      <path d="M 54.890625 33.015625 
L 54.890625 0 
L 45.90625 0 
L 45.90625 32.71875 
Q 45.90625 40.484375 42.875 44.328125 
Q 39.84375 48.1875 33.796875 48.1875 
Q 26.515625 48.1875 22.3125 43.546875 
Q 18.109375 38.921875 18.109375 30.90625 
L 18.109375 0 
L 9.078125 0 
L 9.078125 54.6875 
L 18.109375 54.6875 
L 18.109375 46.1875 
Q 21.34375 51.125 25.703125 53.5625 
Q 30.078125 56 35.796875 56 
Q 45.21875 56 50.046875 50.171875 
Q 54.890625 44.34375 54.890625 33.015625 
z
" id="DejaVuSans-6e"/>
     </defs>
     <g transform="translate(265.507969 415.795938)scale(0.14 -0.14)">
      <use xlink:href="#DejaVuSans-49"/>
      <use x="29.492188" xlink:href="#DejaVuSans-74"/>
      <use x="68.701172" xlink:href="#DejaVuSans-65"/>
      <use x="130.224609" xlink:href="#DejaVuSans-72"/>
      <use x="171.337891" xlink:href="#DejaVuSans-61"/>
      <use x="232.617188" xlink:href="#DejaVuSans-74"/>
      <use x="271.826172" xlink:href="#DejaVuSans-69"/>
      <use x="299.609375" xlink:href="#DejaVuSans-6f"/>
      <use x="360.791016" xlink:href="#DejaVuSans-6e"/>
     </g>
    </g>
   </g>
   <g id="matplotlib.axis_2">
    <g id="ytick_1">
     <g id="line2d_13">
      <path clip-path="url(#p85497ed427)" d="M 72 376.162017 
L 518.4 376.162017 
" style="fill:none;stroke:#b0b0b0;stroke-dasharray:5.12,1.28,0.8,1.28;stroke-dashoffset:0;stroke-width:0.8;"/>
     </g>
     <g id="line2d_14">
      <defs>
       <path d="M 0 0 
L -3.5 0 
" id="mde86fdc10f" style="stroke:#000000;stroke-width:0.8;"/>
      </defs>
      <g>
       <use style="stroke:#000000;stroke-width:0.8;" x="72" xlink:href="#mde86fdc10f" y="376.162017"/>
      </g>
     </g>
     <g id="text_8">
      <!-- −2 -->
      <defs>
       <path d="M 10.59375 35.5 
L 73.1875 35.5 
L 73.1875 27.203125 
L 10.59375 27.203125 
z
" id="DejaVuSans-2212"/>
      </defs>
      <g transform="translate(50.257812 379.961235)scale(0.1 -0.1)">
       <use xlink:href="#DejaVuSans-2212"/>
       <use x="83.789062" xlink:href="#DejaVuSans-32"/>
      </g>
     </g>
    </g>
    <g id="ytick_2">
     <g id="line2d_15">
      <path clip-path="url(#p85497ed427)" d="M 72 307.176047 
L 518.4 307.176047 
" style="fill:none;stroke:#b0b0b0;stroke-dasharray:5.12,1.28,0.8,1.28;stroke-dashoffset:0;stroke-width:0.8;"/>
     </g>
     <g id="line2d_16">
      <g>
       <use style="stroke:#000000;stroke-width:0.8;" x="72" xlink:href="#mde86fdc10f" y="307.176047"/>
      </g>
     </g>
     <g id="text_9">
      <!-- −1 -->
      <g transform="translate(50.257812 310.975265)scale(0.1 -0.1)">
       <use xlink:href="#DejaVuSans-2212"/>
       <use x="83.789062" xlink:href="#DejaVuSans-31"/>
      </g>
     </g>
    </g>
    <g id="ytick_3">
     <g id="line2d_17">
      <path clip-path="url(#p85497ed427)" d="M 72 238.190076 
L 518.4 238.190076 
" style="fill:none;stroke:#b0b0b0;stroke-dasharray:5.12,1.28,0.8,1.28;stroke-dashoffset:0;stroke-width:0.8;"/>
     </g>
     <g id="line2d_18">
      <g>
       <use style="stroke:#000000;stroke-width:0.8;" x="72" xlink:href="#mde86fdc10f" y="238.190076"/>
      </g>
     </g>
     <g id="text_10">
      <!-- 0 -->
      <g transform="translate(58.6375 241.989295)scale(0.1 -0.1)">
       <use xlink:href="#DejaVuSans-30"/>
      </g>
     </g>
    </g>
    <g id="ytick_4">
     <g id="line2d_19">
      <path clip-path="url(#p85497ed427)" d="M 72 169.204106 
L 518.4 169.204106 
" style="fill:none;stroke:#b0b0b0;stroke-dasharray:5.12,1.28,0.8,1.28;stroke-dashoffset:0;stroke-width:0.8;"/>
     </g>
     <g id="line2d_20">
      <g>
       <use style="stroke:#000000;stroke-width:0.8;" x="72" xlink:href="#mde86fdc10f" y="169.204106"/>
      </g>
     </g>
     <g id="text_11">
      <!-- 1 -->
      <g transform="translate(58.6375 173.003325)scale(0.1 -0.1)">
       <use xlink:href="#DejaVuSans-31"/>
      </g>
     </g>
    </g>
    <g id="ytick_5">
     <g id="line2d_21">
      <path clip-path="url(#p85497ed427)" d="M 72 100.218136 
L 518.4 100.218136 
" style="fill:none;stroke:#b0b0b0;stroke-dasharray:5.12,1.28,0.8,1.28;stroke-dashoffset:0;stroke-width:0.8;"/>
     </g>
     <g id="line2d_22">
      <g>
       <use style="stroke:#000000;stroke-width:0.8;" x="72" xlink:href="#mde86fdc10f" y="100.218136"/>
      </g>
     </g>
     <g id="text_12">
      <!-- 2 -->
      <g transform="translate(58.6375 104.017355)scale(0.1 -0.1)">
       <use xlink:href="#DejaVuSans-32"/>
      </g>
     </g>
    </g>
    <g id="text_13">
     <!-- $\lambda_{m} [m.u/W]$ -->
     <defs>
      <path d="M 36.71875 67.4375 
L 48.828125 0 
L 39.3125 0 
L 31.84375 40.4375 
L 5.125 0 
L -4.390625 0 
L 29.734375 52.4375 
L 28.03125 62.109375 
Q 26.953125 68.265625 21.734375 68.265625 
L 17.046875 68.265625 
L 18.5 75.984375 
L 24.21875 75.875 
Q 35.203125 75.734375 36.71875 67.4375 
z
" id="DejaVuSans-Oblique-3bb"/>
      <path d="M 89.796875 33.015625 
L 83.40625 0 
L 74.421875 0 
L 80.71875 32.71875 
Q 81.109375 34.8125 81.296875 36.328125 
Q 81.5 37.84375 81.5 38.921875 
Q 81.5 43.3125 79.046875 45.75 
Q 76.609375 48.1875 72.21875 48.1875 
Q 65.671875 48.1875 60.546875 43.28125 
Q 55.421875 38.375 53.90625 30.515625 
L 47.90625 0 
L 38.921875 0 
L 45.3125 32.71875 
Q 45.703125 34.515625 45.890625 36.046875 
Q 46.09375 37.59375 46.09375 38.8125 
Q 46.09375 43.265625 43.65625 45.71875 
Q 41.21875 48.1875 36.921875 48.1875 
Q 30.28125 48.1875 25.140625 43.28125 
Q 20.015625 38.375 18.5 30.515625 
L 12.5 0 
L 3.515625 0 
L 14.203125 54.6875 
L 23.1875 54.6875 
L 21.484375 46.1875 
Q 25.140625 50.984375 30.046875 53.484375 
Q 34.96875 56 40.578125 56 
Q 46.53125 56 50.359375 52.875 
Q 54.203125 49.75 54.984375 44.1875 
Q 59.078125 49.953125 64.46875 52.96875 
Q 69.875 56 75.875 56 
Q 82.90625 56 86.734375 51.953125 
Q 90.578125 47.90625 90.578125 40.484375 
Q 90.578125 38.875 90.375 36.9375 
Q 90.1875 35.015625 89.796875 33.015625 
z
" id="DejaVuSans-Oblique-6d"/>
      <path d="M 8.59375 75.984375 
L 29.296875 75.984375 
L 29.296875 69 
L 17.578125 69 
L 17.578125 -6.203125 
L 29.296875 -6.203125 
L 29.296875 -13.1875 
L 8.59375 -13.1875 
z
" id="DejaVuSans-5b"/>
      <path d="M 10.6875 12.40625 
L 21 12.40625 
L 21 0 
L 10.6875 0 
z
" id="DejaVuSans-2e"/>
      <path d="M 6.6875 21.6875 
L 13.09375 54.6875 
L 22.125 54.6875 
L 15.71875 22.015625 
Q 15.234375 19.625 15.015625 17.921875 
Q 14.796875 16.21875 14.796875 15.09375 
Q 14.796875 10.9375 17.328125 8.65625 
Q 19.875 6.390625 24.515625 6.390625 
Q 31.734375 6.390625 37 11.265625 
Q 42.28125 16.15625 43.890625 24.421875 
L 49.90625 54.6875 
L 58.890625 54.6875 
L 48.296875 0 
L 39.3125 0 
L 41.109375 8.59375 
Q 37.3125 3.8125 32.0625 1.1875 
Q 26.8125 -1.421875 20.90625 -1.421875 
Q 13.71875 -1.421875 9.71875 2.515625 
Q 5.71875 6.453125 5.71875 13.484375 
Q 5.71875 14.9375 5.953125 17.140625 
Q 6.203125 19.34375 6.6875 21.6875 
z
" id="DejaVuSans-Oblique-75"/>
      <path d="M 25.390625 72.90625 
L 33.6875 72.90625 
L 8.296875 -9.28125 
L 0 -9.28125 
z
" id="DejaVuSans-2f"/>
      <path d="M 9.625 72.90625 
L 19.1875 72.90625 
L 22.703125 10.890625 
L 50.203125 72.90625 
L 61.1875 72.90625 
L 64.796875 10.890625 
L 92 72.90625 
L 102 72.90625 
L 69.578125 0 
L 57.171875 0 
L 53.8125 60.796875 
L 26.515625 0 
L 14.109375 0 
z
" id="DejaVuSans-Oblique-57"/>
      <path d="M 30.421875 75.984375 
L 30.421875 -13.1875 
L 9.71875 -13.1875 
L 9.71875 -6.203125 
L 21.390625 -6.203125 
L 21.390625 69 
L 9.71875 69 
L 9.71875 75.984375 
z
" id="DejaVuSans-5d"/>
     </defs>
     <g transform="translate(43.34625 256.87)rotate(-90)scale(0.14 -0.14)">
      <use transform="translate(0 0.015625)" xlink:href="#DejaVuSans-Oblique-3bb"/>
      <use transform="translate(59.179688 -16.390625)scale(0.7)" xlink:href="#DejaVuSans-Oblique-6d"/>
      <use transform="translate(130.102539 0.015625)" xlink:href="#DejaVuSans-5b"/>
      <use transform="translate(169.116211 0.015625)" xlink:href="#DejaVuSans-Oblique-6d"/>
      <use transform="translate(266.52832 0.015625)" xlink:href="#DejaVuSans-2e"/>
      <use transform="translate(317.797852 0.015625)" xlink:href="#DejaVuSans-Oblique-75"/>
      <use transform="translate(381.176758 0.015625)" xlink:href="#DejaVuSans-2f"/>
      <use transform="translate(414.868164 0.015625)" xlink:href="#DejaVuSans-Oblique-57"/>
      <use transform="translate(513.745117 0.015625)" xlink:href="#DejaVuSans-5d"/>
     </g>
    </g>
   </g>
   <g id="line2d_23">
    <path clip-path="url(#p85497ed427)" d="M 92.290909 238.190076 
L 92.697133 238.190076 
L 93.103358 238.190076 
L 93.915807 237.845147 
L 95.13448 236.900039 
L 96.759378 235.36855 
L 109.758559 222.226723 
L 111.383456 222.157737 
L 117.070598 222.061157 
L 118.289271 222.206027 
L 119.10172 295.124198 
L 119.914169 347.03614 
L 120.320393 353.341458 
L 120.726618 338.268023 
L 121.539066 295.524316 
L 122.351515 269.040602 
L 123.163964 252.325302 
L 123.976413 240.245858 
L 124.788862 230.884462 
L 125.60131 223.433977 
L 126.007535 222.199129 
L 127.632432 222.206027 
L 128.038657 231.174203 
L 128.851106 256.21611 
L 129.663554 280.70613 
L 130.069779 285.976658 
L 130.476003 282.237618 
L 131.288452 260.403559 
L 132.100901 244.86102 
L 132.91335 234.057817 
L 133.725799 225.862284 
L 134.132023 222.440579 
L 134.538247 222.199129 
L 136.569369 222.206027 
L 138.194267 274.51119 
L 138.600491 280.306011 
L 139.006716 277.629356 
L 139.819165 256.802491 
L 140.631613 241.887724 
L 141.444062 231.560525 
L 142.256511 223.751313 
L 142.662735 222.199129 
L 145.506306 222.206027 
L 146.318755 250.628247 
L 146.72498 262.155802 
L 147.131204 269.702868 
L 147.537428 270.613482 
L 149.162326 238.348744 
L 149.974775 228.497548 
L 150.380999 224.579145 
L 150.787224 222.199129 
L 154.443243 222.206027 
L 155.255692 248.869105 
L 155.661916 258.616822 
L 156.068141 263.942539 
L 156.474365 262.473138 
L 157.693038 238.383237 
L 158.505487 228.138821 
L 158.911712 224.15833 
L 159.317936 222.199129 
L 163.38018 222.206027 
L 164.192629 247.599763 
L 164.598853 255.843586 
L 165.005078 259.272189 
L 165.411302 255.753904 
L 166.223751 240.052698 
L 167.0362 228.918362 
L 167.442424 224.717116 
L 167.848649 222.199129 
L 172.317117 222.206027 
L 173.129566 246.909903 
L 173.53579 254.2983 
L 173.942015 256.623128 
L 174.348239 251.904487 
L 175.160688 237.079402 
L 175.973137 226.71771 
L 176.379361 222.771712 
L 176.785586 222.199129 
L 181.254054 222.206027 
L 182.066503 246.744337 
L 182.472727 253.636035 
L 182.878952 255.243408 
L 183.285176 249.648646 
L 184.097625 235.32026 
L 184.910074 225.413875 
L 185.316298 222.199129 
L 190.190991 222.206027 
L 191.00344 246.702945 
L 191.409664 253.353193 
L 191.815889 254.608737 
L 192.628337 241.004704 
L 193.440786 229.194306 
L 193.847011 224.813697 
L 194.253235 222.199129 
L 199.127928 222.206027 
L 199.940377 246.765033 
L 200.346601 253.270409 
L 200.752826 254.291402 
L 202.377723 228.759694 
L 202.783948 224.441173 
L 203.190172 222.199129 
L 208.064865 222.206027 
L 208.877314 246.737438 
L 209.283538 253.180728 
L 209.689762 254.118937 
L 211.31466 228.580331 
L 211.720885 224.282505 
L 212.127109 222.199129 
L 217.001802 222.206027 
L 217.814251 246.737438 
L 218.220475 253.153133 
L 218.626699 254.036154 
L 220.251597 228.476852 
L 220.657821 224.192823 
L 221.064046 222.199129 
L 225.938739 222.206027 
L 226.751188 246.737438 
L 227.157412 253.132438 
L 227.563636 253.994762 
L 229.188534 228.43546 
L 229.594758 224.15833 
L 230.000983 222.199129 
L 234.875676 222.206027 
L 235.688124 246.737438 
L 236.094349 253.125539 
L 236.500573 253.974066 
L 238.125471 228.407866 
L 238.531695 224.130736 
L 238.93792 222.199129 
L 243.812613 222.206027 
L 244.625061 246.737438 
L 245.031286 253.125539 
L 245.43751 253.960269 
L 247.062408 228.394069 
L 247.468632 224.123837 
L 247.874857 222.199129 
L 252.74955 222.206027 
L 253.561998 246.737438 
L 253.968223 253.11864 
L 254.374447 253.953371 
L 255.999345 228.394069 
L 256.405569 224.116939 
L 256.811794 222.199129 
L 261.686486 222.206027 
L 262.498935 246.737438 
L 262.90516 253.11864 
L 263.311384 253.953371 
L 264.936282 228.38717 
L 265.342506 224.116939 
L 265.748731 222.199129 
L 270.623423 222.206027 
L 271.435872 246.737438 
L 271.842097 253.11864 
L 272.248321 253.953371 
L 273.873219 228.38717 
L 274.279443 224.116939 
L 274.685667 222.199129 
L 279.56036 222.206027 
L 280.372809 246.737438 
L 280.779034 253.11864 
L 281.185258 253.953371 
L 282.810156 228.38717 
L 283.21638 224.116939 
L 283.622604 222.199129 
L 288.497297 222.206027 
L 289.309746 246.737438 
L 289.715971 253.11864 
L 290.122195 253.953371 
L 291.747093 228.38717 
L 292.153317 224.116939 
L 292.559541 222.199129 
L 297.434234 222.206027 
L 298.246683 246.737438 
L 298.652907 253.11864 
L 299.059132 253.953371 
L 300.684029 228.38717 
L 301.090254 224.116939 
L 301.496478 222.199129 
L 306.371171 222.206027 
L 307.18362 246.737438 
L 307.589844 253.11864 
L 307.996069 253.953371 
L 309.620966 228.38717 
L 310.027191 224.116939 
L 310.433415 222.199129 
L 315.308108 222.206027 
L 316.120557 246.737438 
L 316.526781 253.11864 
L 316.933006 253.953371 
L 318.557903 228.38717 
L 318.964128 224.116939 
L 319.370352 222.199129 
L 324.245045 222.206027 
L 325.057494 246.737438 
L 325.463718 253.11864 
L 325.869943 253.953371 
L 327.49484 228.38717 
L 327.901065 224.116939 
L 328.307289 222.199129 
L 333.181982 222.206027 
L 333.994431 246.737438 
L 334.400655 253.11864 
L 334.80688 253.953371 
L 336.431777 228.38717 
L 336.838002 224.116939 
L 337.244226 222.199129 
L 342.118919 222.206027 
L 342.931368 246.737438 
L 343.337592 253.11864 
L 343.743817 253.953371 
L 345.368714 228.38717 
L 345.774939 224.116939 
L 346.181163 222.199129 
L 351.055856 222.206027 
L 351.868305 246.737438 
L 352.274529 253.11864 
L 352.680753 253.953371 
L 354.305651 228.38717 
L 354.711876 224.116939 
L 355.1181 222.199129 
L 359.992793 222.206027 
L 360.805242 246.737438 
L 361.211466 253.11864 
L 361.61769 253.953371 
L 363.242588 228.38717 
L 363.648812 224.116939 
L 364.055037 222.199129 
L 368.92973 222.206027 
L 369.742179 246.737438 
L 370.148403 253.11864 
L 370.554627 253.953371 
L 372.179525 228.38717 
L 372.585749 224.116939 
L 372.991974 222.199129 
L 377.866667 222.206027 
L 378.679115 246.737438 
L 379.08534 253.11864 
L 379.491564 253.953371 
L 381.116462 228.38717 
L 381.522686 224.116939 
L 381.928911 222.199129 
L 386.803604 222.206027 
L 387.616052 246.737438 
L 388.022277 253.11864 
L 388.428501 253.953371 
L 390.053399 228.38717 
L 390.459623 224.116939 
L 390.865848 222.199129 
L 395.740541 222.206027 
L 396.552989 246.737438 
L 396.959214 253.11864 
L 397.365438 253.953371 
L 398.990336 228.38717 
L 399.39656 224.116939 
L 399.802785 222.199129 
L 404.677477 222.206027 
L 405.489926 246.737438 
L 405.896151 253.11864 
L 406.302375 253.953371 
L 407.927273 228.38717 
L 408.333497 224.116939 
L 408.739722 222.199129 
L 413.614414 222.206027 
L 414.426863 246.737438 
L 414.833088 253.11864 
L 415.239312 253.953371 
L 416.86421 228.38717 
L 417.270434 224.116939 
L 417.676658 222.199129 
L 422.551351 222.206027 
L 423.3638 246.737438 
L 423.770025 253.11864 
L 424.176249 253.953371 
L 425.801147 228.38717 
L 426.207371 224.116939 
L 426.613595 222.199129 
L 431.488288 222.206027 
L 432.300737 246.737438 
L 432.706962 253.11864 
L 433.113186 253.953371 
L 434.738084 228.38717 
L 435.144308 224.116939 
L 435.550532 222.199129 
L 440.425225 222.206027 
L 441.237674 246.737438 
L 441.643898 253.11864 
L 442.050123 253.953371 
L 443.67502 228.38717 
L 444.081245 224.116939 
L 444.487469 222.199129 
L 449.362162 222.206027 
L 450.174611 246.737438 
L 450.580835 253.11864 
L 450.98706 253.953371 
L 452.611957 228.38717 
L 453.018182 224.116939 
L 453.424406 222.199129 
L 458.299099 222.206027 
L 459.111548 246.737438 
L 459.517772 253.11864 
L 459.923997 253.953371 
L 461.548894 228.38717 
L 461.955119 224.116939 
L 462.361343 222.199129 
L 467.236036 222.206027 
L 468.048485 246.737438 
L 468.454709 253.11864 
L 468.860934 253.953371 
L 470.485831 228.38717 
L 470.892056 224.116939 
L 471.29828 222.199129 
L 476.172973 222.206027 
L 476.985422 246.737438 
L 477.391646 253.11864 
L 477.797871 253.953371 
L 479.422768 228.38717 
L 479.828993 224.116939 
L 480.235217 222.199129 
L 485.10991 222.206027 
L 485.922359 246.737438 
L 486.328583 253.11864 
L 486.734808 253.953371 
L 488.359705 228.38717 
L 488.76593 224.116939 
L 489.172154 222.199129 
L 494.046847 222.206027 
L 494.859296 246.737438 
L 495.26552 253.11864 
L 495.671744 253.953371 
L 497.296642 228.38717 
L 497.702867 224.116939 
L 498.109091 222.199129 
L 498.109091 222.199129 
" style="fill:none;stroke:#bf00bf;stroke-linecap:square;stroke-width:1.5;"/>
   </g>
   <g id="line2d_24">
    <path clip-path="url(#p85497ed427)" d="M 92.290909 238.190076 
L 92.697133 238.190076 
L 93.103358 238.190076 
L 93.915807 237.734769 
L 95.540704 236.520616 
L 97.571826 234.609705 
L 108.133661 224.054851 
L 110.571007 221.709328 
L 111.383456 221.288514 
L 112.602129 220.929787 
L 114.633251 220.626248 
L 116.664373 220.515871 
L 117.070598 221.674835 
L 117.476822 236.513717 
L 118.695495 301.056991 
L 119.507944 355.962925 
L 119.914169 369.36 
L 120.320393 359.729559 
L 121.132842 291.688696 
L 121.539066 275.00099 
L 122.351515 256.423068 
L 123.163964 243.605475 
L 123.976413 233.643901 
L 124.788862 225.751906 
L 125.60131 219.446588 
L 126.007535 216.769933 
L 126.413759 214.845224 
L 126.819984 216.176653 
L 127.226208 221.150542 
L 127.632432 229.456453 
L 128.038657 240.294149 
L 129.25733 283.348292 
L 129.663554 291.702493 
L 130.069779 291.143707 
L 130.476003 278.264026 
L 130.882228 259.189406 
L 131.288452 249.400297 
L 132.100901 237.258766 
L 132.91335 228.490649 
L 133.725799 221.578255 
L 134.538247 216.038681 
L 134.944472 214.389917 
L 135.350696 215.60407 
L 135.756921 220.212333 
L 136.163145 228.014646 
L 136.975594 249.724531 
L 137.788043 277.098164 
L 138.194267 285.686917 
L 138.600491 286.031847 
L 139.006716 274.752641 
L 139.41294 255.795296 
L 139.819165 246.247638 
L 140.631613 234.595907 
L 141.444062 226.234808 
L 142.256511 219.646648 
L 143.06896 214.803833 
L 143.475184 213.534491 
L 143.881409 213.9829 
L 144.287633 217.280429 
L 144.693857 223.46847 
L 145.506306 242.198161 
L 146.72498 273.800634 
L 147.131204 277.26373 
L 147.537428 271.41372 
L 147.943653 253.636035 
L 148.349877 242.922514 
L 149.162326 231.360465 
L 149.974775 223.454673 
L 150.787224 217.266632 
L 151.193448 214.928007 
L 151.599672 213.506896 
L 152.005897 212.623876 
L 152.412121 212.085785 
L 152.818346 213.73455 
L 153.22457 217.935796 
L 153.630794 224.544652 
L 154.849468 251.338802 
L 155.255692 261.43145 
L 155.661916 268.523207 
L 156.068141 269.309648 
L 156.474365 260.920954 
L 156.88059 244.626467 
L 157.286814 236.520616 
L 158.099263 226.731507 
L 158.911712 219.722532 
L 159.724161 214.576179 
L 160.130385 213.230952 
L 160.536609 212.389324 
L 160.942834 211.871929 
L 161.349058 212.189264 
L 161.755283 214.589976 
L 162.161507 219.274123 
L 162.973956 234.278572 
L 164.192629 259.230797 
L 164.598853 264.266773 
L 165.005078 262.75598 
L 166.223751 232.236587 
L 167.0362 223.482268 
L 167.848649 217.087268 
L 168.254873 214.686556 
L 168.661097 213.24475 
L 169.067322 212.354831 
L 169.473546 211.809841 
L 169.879771 211.499405 
L 170.285995 212.313439 
L 170.692219 215.155661 
L 171.098444 220.122651 
L 171.910893 235.078809 
L 173.129566 258.044239 
L 173.53579 261.886757 
L 173.942015 259.023839 
L 174.754464 235.989424 
L 175.160688 229.801382 
L 175.973137 221.633444 
L 176.785586 215.583374 
L 177.19181 213.762144 
L 177.598034 212.644572 
L 178.004259 211.954712 
L 178.410483 211.547695 
L 178.816708 211.32694 
L 179.222932 212.444512 
L 179.629156 215.576475 
L 180.035381 220.76422 
L 180.84783 235.823858 
L 181.660278 250.66274 
L 182.066503 257.657917 
L 182.472727 260.727793 
L 182.878952 256.919767 
L 183.6914 234.099208 
L 184.503849 224.096243 
L 185.316298 217.445995 
L 185.722523 214.845224 
L 186.128747 213.299938 
L 186.534971 212.354831 
L 186.941196 211.775348 
L 187.34742 211.437317 
L 187.753645 211.264852 
L 188.159869 212.547991 
L 188.566093 215.831724 
L 188.972318 221.136745 
L 189.784767 236.251571 
L 190.597215 250.814509 
L 191.00344 257.540641 
L 191.409664 260.224195 
L 191.815889 255.947065 
L 192.222113 242.508598 
L 192.628337 233.216188 
L 193.440786 223.530558 
L 194.253235 216.997586 
L 194.659459 214.56928 
L 195.065684 213.127473 
L 195.471908 212.237554 
L 195.878133 211.699464 
L 196.284357 211.389027 
L 196.690581 211.237258 
L 197.096806 212.610079 
L 197.50303 215.99729 
L 197.909255 221.391993 
L 199.940377 257.568235 
L 200.346601 260.010339 
L 200.752826 255.388279 
L 201.15905 241.542795 
L 201.565274 232.657402 
L 202.377723 223.178729 
L 203.190172 216.721643 
L 203.596396 214.396815 
L 204.002621 213.017096 
L 204.408845 212.16167 
L 204.81507 211.651174 
L 205.221294 211.354534 
L 205.627518 211.216562 
L 206.033743 212.630774 
L 206.439967 216.04558 
L 206.846192 221.467877 
L 208.877314 257.513047 
L 209.283538 259.85857 
L 209.689762 255.126132 
L 210.095987 241.163372 
L 210.502211 232.429748 
L 211.31466 223.02696 
L 212.127109 216.597468 
L 212.533333 214.327829 
L 212.939558 212.968806 
L 213.345782 212.134076 
L 213.752007 211.630478 
L 214.158231 211.340737 
L 214.564455 211.209664 
L 214.97068 212.644572 
L 215.376904 216.080073 
L 215.783129 221.523066 
L 217.814251 257.506148 
L 218.220475 259.796482 
L 218.626699 254.98816 
L 219.032924 240.942617 
L 219.439148 232.298675 
L 220.251597 222.944177 
L 221.064046 216.53538 
L 221.47027 214.286438 
L 221.876495 212.941211 
L 222.282719 212.11338 
L 222.688943 211.616681 
L 223.095168 211.333838 
L 223.501392 211.202765 
L 223.907617 212.644572 
L 224.313841 216.09387 
L 224.720066 221.543762 
L 226.751188 257.499249 
L 227.157412 259.761989 
L 227.563636 254.926073 
L 227.969861 240.846036 
L 228.376085 232.236587 
L 229.188534 222.909684 
L 230.000983 216.500887 
L 230.407207 214.265742 
L 230.813432 212.934313 
L 231.219656 212.106481 
L 231.62588 211.609782 
L 232.032105 211.333838 
L 232.438329 211.202765 
L 232.844554 212.65147 
L 233.250778 216.100769 
L 233.657002 221.55066 
L 235.688124 257.492351 
L 236.094349 259.748192 
L 236.500573 254.89158 
L 236.906798 240.797746 
L 237.313022 232.208993 
L 238.125471 222.888988 
L 238.93792 216.48709 
L 239.344144 214.258843 
L 239.750369 212.927414 
L 240.156593 212.106481 
L 240.562817 211.609782 
L 240.969042 211.32694 
L 241.375266 211.195866 
L 241.781491 212.65147 
L 242.187715 216.107667 
L 242.593939 221.557559 
L 244.625061 257.492351 
L 245.031286 259.741293 
L 245.43751 254.877783 
L 245.843735 240.770152 
L 246.249959 232.195196 
L 247.062408 222.875191 
L 247.874857 216.480192 
L 248.281081 214.251945 
L 248.687305 212.920516 
L 249.09353 212.099583 
L 249.499754 211.609782 
L 249.905979 211.32694 
L 250.312203 211.195866 
L 250.718428 212.65147 
L 251.124652 216.107667 
L 251.530876 221.564458 
L 253.561998 257.492351 
L 253.968223 259.734395 
L 254.374447 254.870884 
L 254.780672 240.756355 
L 255.186896 232.188297 
L 255.999345 222.875191 
L 256.811794 216.473293 
L 257.218018 214.251945 
L 257.624242 212.920516 
L 258.030467 212.099583 
L 258.436691 211.609782 
L 258.842916 211.32694 
L 259.24914 211.195866 
L 259.655364 212.65147 
L 260.061589 216.107667 
L 260.467813 221.564458 
L 262.498935 257.492351 
L 262.90516 259.734395 
L 263.311384 254.863985 
L 263.717609 240.749456 
L 264.123833 232.181398 
L 264.936282 222.868292 
L 265.748731 216.473293 
L 266.154955 214.251945 
L 266.561179 212.920516 
L 266.967404 212.099583 
L 267.373628 211.602884 
L 267.779853 211.32694 
L 268.186077 211.195866 
L 268.592301 212.65147 
L 268.998526 216.107667 
L 269.40475 221.564458 
L 271.435872 257.492351 
L 271.842097 259.734395 
L 272.248321 254.863985 
L 272.654545 240.749456 
L 273.06077 232.181398 
L 273.873219 222.868292 
L 274.685667 216.473293 
L 275.091892 214.251945 
L 275.498116 212.920516 
L 275.904341 212.099583 
L 276.310565 211.602884 
L 276.71679 211.32694 
L 277.123014 211.195866 
L 277.529238 212.65147 
L 277.935463 216.114566 
L 278.341687 221.564458 
L 280.372809 257.492351 
L 280.779034 259.727496 
L 281.185258 254.863985 
L 281.591482 240.749456 
L 281.997707 232.181398 
L 282.810156 222.868292 
L 283.622604 216.473293 
L 284.028829 214.251945 
L 284.435053 212.920516 
L 284.841278 212.099583 
L 285.247502 211.602884 
L 285.653726 211.32694 
L 286.059951 211.195866 
L 286.466175 212.65147 
L 286.8724 216.114566 
L 287.278624 221.564458 
L 289.309746 257.492351 
L 289.715971 259.727496 
L 290.122195 254.863985 
L 290.528419 240.749456 
L 290.934644 232.181398 
L 291.747093 222.868292 
L 292.559541 216.473293 
L 292.965766 214.251945 
L 293.37199 212.920516 
L 293.778215 212.099583 
L 294.184439 211.602884 
L 294.590663 211.32694 
L 294.996888 211.195866 
L 295.403112 212.65147 
L 295.809337 216.114566 
L 296.215561 221.564458 
L 298.246683 257.492351 
L 298.652907 259.727496 
L 299.059132 254.863985 
L 299.465356 240.742557 
L 299.871581 232.181398 
L 300.684029 222.868292 
L 301.496478 216.473293 
L 301.902703 214.251945 
L 302.308927 212.920516 
L 302.715152 212.099583 
L 303.121376 211.602884 
L 303.5276 211.32694 
L 303.933825 211.195866 
L 304.340049 212.65147 
L 304.746274 216.114566 
L 305.152498 221.564458 
L 307.18362 257.492351 
L 307.589844 259.727496 
L 307.996069 254.863985 
L 308.402293 240.742557 
L 308.808518 232.181398 
L 309.620966 222.868292 
L 310.433415 216.473293 
L 310.83964 214.251945 
L 311.245864 212.920516 
L 311.652088 212.099583 
L 312.058313 211.602884 
L 312.464537 211.32694 
L 312.870762 211.195866 
L 313.276986 212.65147 
L 313.68321 216.114566 
L 314.089435 221.564458 
L 316.120557 257.492351 
L 316.526781 259.727496 
L 316.933006 254.863985 
L 317.33923 240.742557 
L 317.745455 232.181398 
L 318.557903 222.868292 
L 319.370352 216.473293 
L 319.776577 214.251945 
L 320.182801 212.920516 
L 320.589025 212.099583 
L 320.99525 211.602884 
L 321.401474 211.32694 
L 321.807699 211.195866 
L 322.213923 212.65147 
L 322.620147 216.114566 
L 323.026372 221.564458 
L 325.057494 257.492351 
L 325.463718 259.727496 
L 325.869943 254.863985 
L 326.276167 240.742557 
L 326.682391 232.181398 
L 327.49484 222.868292 
L 328.307289 216.473293 
L 328.713514 214.251945 
L 329.119738 212.920516 
L 329.525962 212.099583 
L 329.932187 211.602884 
L 330.338411 211.32694 
L 330.744636 211.195866 
L 331.15086 212.65147 
L 331.557084 216.114566 
L 331.963309 221.564458 
L 333.994431 257.492351 
L 334.400655 259.727496 
L 334.80688 254.863985 
L 335.213104 240.742557 
L 335.619328 232.181398 
L 336.431777 222.868292 
L 337.244226 216.473293 
L 337.65045 214.251945 
L 338.056675 212.920516 
L 338.462899 212.099583 
L 338.869124 211.602884 
L 339.275348 211.32694 
L 339.681572 211.195866 
L 340.087797 212.65147 
L 340.494021 216.114566 
L 340.900246 221.564458 
L 342.931368 257.492351 
L 343.337592 259.727496 
L 343.743817 254.863985 
L 344.150041 240.742557 
L 344.556265 232.181398 
L 345.368714 222.868292 
L 346.181163 216.473293 
L 346.587387 214.251945 
L 346.993612 212.920516 
L 347.399836 212.099583 
L 347.806061 211.602884 
L 348.212285 211.32694 
L 348.618509 211.195866 
L 349.024734 212.65147 
L 349.430958 216.114566 
L 349.837183 221.564458 
L 351.868305 257.492351 
L 352.274529 259.727496 
L 352.680753 254.863985 
L 353.086978 240.742557 
L 353.493202 232.181398 
L 354.305651 222.868292 
L 355.1181 216.473293 
L 355.524324 214.251945 
L 355.930549 212.920516 
L 356.336773 212.099583 
L 356.742998 211.602884 
L 357.149222 211.32694 
L 357.555446 211.195866 
L 357.961671 212.65147 
L 358.367895 216.114566 
L 358.77412 221.564458 
L 360.805242 257.492351 
L 361.211466 259.727496 
L 361.61769 254.863985 
L 362.023915 240.742557 
L 362.430139 232.181398 
L 363.242588 222.868292 
L 364.055037 216.473293 
L 364.461261 214.251945 
L 364.867486 212.920516 
L 365.27371 212.099583 
L 365.679934 211.602884 
L 366.086159 211.32694 
L 366.492383 211.195866 
L 366.898608 212.65147 
L 367.304832 216.114566 
L 367.711057 221.564458 
L 369.742179 257.492351 
L 370.148403 259.727496 
L 370.554627 254.863985 
L 370.960852 240.742557 
L 371.367076 232.181398 
L 372.179525 222.868292 
L 372.991974 216.473293 
L 373.398198 214.251945 
L 373.804423 212.920516 
L 374.210647 212.099583 
L 374.616871 211.602884 
L 375.023096 211.32694 
L 375.42932 211.195866 
L 375.835545 212.65147 
L 376.241769 216.114566 
L 376.647993 221.564458 
L 378.679115 257.492351 
L 379.08534 259.727496 
L 379.491564 254.863985 
L 379.897789 240.742557 
L 380.304013 232.181398 
L 381.116462 222.868292 
L 381.928911 216.473293 
L 382.335135 214.251945 
L 382.74136 212.920516 
L 383.147584 212.099583 
L 383.553808 211.602884 
L 383.960033 211.32694 
L 384.366257 211.195866 
L 384.772482 212.65147 
L 385.178706 216.114566 
L 385.58493 221.564458 
L 387.616052 257.492351 
L 388.022277 259.727496 
L 388.428501 254.863985 
L 388.834726 240.742557 
L 389.24095 232.181398 
L 390.053399 222.868292 
L 390.865848 216.473293 
L 391.272072 214.251945 
L 391.678296 212.920516 
L 392.084521 212.099583 
L 392.490745 211.602884 
L 392.89697 211.32694 
L 393.303194 211.195866 
L 393.709419 212.65147 
L 394.115643 216.114566 
L 394.521867 221.564458 
L 396.552989 257.492351 
L 396.959214 259.727496 
L 397.365438 254.863985 
L 397.771663 240.742557 
L 398.177887 232.181398 
L 398.990336 222.868292 
L 399.802785 216.473293 
L 400.209009 214.251945 
L 400.615233 212.920516 
L 401.021458 212.099583 
L 401.427682 211.602884 
L 401.833907 211.32694 
L 402.240131 211.195866 
L 402.646355 212.65147 
L 403.05258 216.114566 
L 403.458804 221.564458 
L 405.489926 257.492351 
L 405.896151 259.727496 
L 406.302375 254.863985 
L 406.7086 240.742557 
L 407.114824 232.181398 
L 407.927273 222.868292 
L 408.739722 216.473293 
L 409.145946 214.251945 
L 409.55217 212.920516 
L 409.958395 212.099583 
L 410.364619 211.602884 
L 410.770844 211.32694 
L 411.177068 211.195866 
L 411.583292 212.65147 
L 411.989517 216.114566 
L 412.395741 221.564458 
L 414.426863 257.492351 
L 414.833088 259.727496 
L 415.239312 254.863985 
L 415.645536 240.742557 
L 416.051761 232.181398 
L 416.86421 222.868292 
L 417.676658 216.473293 
L 418.082883 214.251945 
L 418.489107 212.920516 
L 418.895332 212.099583 
L 419.301556 211.602884 
L 419.707781 211.32694 
L 420.114005 211.195866 
L 420.520229 212.65147 
L 420.926454 216.114566 
L 421.332678 221.564458 
L 423.3638 257.492351 
L 423.770025 259.727496 
L 424.176249 254.863985 
L 424.582473 240.742557 
L 424.988698 232.181398 
L 425.801147 222.868292 
L 426.613595 216.473293 
L 427.01982 214.251945 
L 427.426044 212.920516 
L 427.832269 212.099583 
L 428.238493 211.602884 
L 428.644717 211.32694 
L 429.050942 211.195866 
L 429.457166 212.65147 
L 429.863391 216.114566 
L 430.269615 221.564458 
L 432.300737 257.492351 
L 432.706962 259.727496 
L 433.113186 254.863985 
L 433.51941 240.742557 
L 433.925635 232.181398 
L 434.738084 222.868292 
L 435.550532 216.473293 
L 435.956757 214.251945 
L 436.362981 212.920516 
L 436.769206 212.099583 
L 437.17543 211.602884 
L 437.581654 211.32694 
L 437.987879 211.195866 
L 438.394103 212.65147 
L 438.800328 216.114566 
L 439.206552 221.564458 
L 441.237674 257.492351 
L 441.643898 259.727496 
L 442.050123 254.863985 
L 442.456347 240.742557 
L 442.862572 232.181398 
L 443.67502 222.868292 
L 444.487469 216.473293 
L 444.893694 214.251945 
L 445.299918 212.920516 
L 445.706143 212.099583 
L 446.112367 211.602884 
L 446.518591 211.32694 
L 446.924816 211.195866 
L 447.33104 212.65147 
L 447.737265 216.114566 
L 448.143489 221.564458 
L 450.174611 257.492351 
L 450.580835 259.727496 
L 450.98706 254.863985 
L 451.393284 240.742557 
L 451.799509 232.181398 
L 452.611957 222.868292 
L 453.424406 216.473293 
L 453.830631 214.251945 
L 454.236855 212.920516 
L 454.643079 212.099583 
L 455.049304 211.602884 
L 455.455528 211.32694 
L 455.861753 211.195866 
L 456.267977 212.65147 
L 456.674201 216.114566 
L 457.080426 221.564458 
L 459.111548 257.492351 
L 459.517772 259.727496 
L 459.923997 254.863985 
L 460.330221 240.742557 
L 460.736446 232.181398 
L 461.548894 222.868292 
L 462.361343 216.473293 
L 462.767568 214.251945 
L 463.173792 212.920516 
L 463.580016 212.099583 
L 463.986241 211.602884 
L 464.392465 211.32694 
L 464.79869 211.195866 
L 465.204914 212.65147 
L 465.611138 216.114566 
L 466.017363 221.564458 
L 468.048485 257.492351 
L 468.454709 259.727496 
L 468.860934 254.863985 
L 469.267158 240.742557 
L 469.673382 232.181398 
L 470.485831 222.868292 
L 471.29828 216.473293 
L 471.704505 214.251945 
L 472.110729 212.920516 
L 472.516953 212.099583 
L 472.923178 211.602884 
L 473.329402 211.32694 
L 473.735627 211.195866 
L 474.141851 212.65147 
L 474.548075 216.114566 
L 474.9543 221.564458 
L 476.985422 257.492351 
L 477.391646 259.727496 
L 477.797871 254.863985 
L 478.204095 240.742557 
L 478.610319 232.181398 
L 479.422768 222.868292 
L 480.235217 216.473293 
L 480.641441 214.251945 
L 481.047666 212.920516 
L 481.45389 212.099583 
L 481.860115 211.602884 
L 482.266339 211.32694 
L 482.672563 211.195866 
L 483.078788 212.65147 
L 483.485012 216.114566 
L 483.891237 221.564458 
L 485.922359 257.492351 
L 486.328583 259.727496 
L 486.734808 254.863985 
L 487.141032 240.742557 
L 487.547256 232.181398 
L 488.359705 222.868292 
L 489.172154 216.473293 
L 489.578378 214.251945 
L 489.984603 212.920516 
L 490.390827 212.099583 
L 490.797052 211.602884 
L 491.203276 211.32694 
L 491.6095 211.195866 
L 492.015725 212.65147 
L 492.421949 216.114566 
L 492.828174 221.564458 
L 494.859296 257.492351 
L 495.26552 259.727496 
L 495.671744 254.863985 
L 496.077969 240.742557 
L 496.484193 232.181398 
L 497.296642 222.868292 
L 498.109091 216.473293 
L 498.109091 216.473293 
" style="fill:none;stroke:#00bfbf;stroke-linecap:square;stroke-width:1.5;"/>
   </g>
   <g id="line2d_25">
    <path clip-path="url(#p85497ed427)" d="M 92.290909 238.190076 
L 93.509582 238.141786 
L 94.322031 237.803755 
L 95.540704 236.996619 
L 98.384275 234.547617 
L 102.446519 230.684403 
L 108.94611 224.248012 
L 110.977232 222.302608 
L 112.195905 221.467877 
L 113.414578 220.895294 
L 115.039476 220.433088 
L 116.258149 220.239927 
L 116.664373 218.563568 
L 117.070598 198.59213 
L 118.695495 79.805188 
L 119.10172 66.96 
L 119.507944 74.486369 
L 119.914169 95.927209 
L 120.726618 186.257438 
L 121.132842 205.421741 
L 121.539066 216.963093 
L 121.945291 220.881497 
L 122.351515 221.467877 
L 122.75774 220.57106 
L 123.570188 217.328719 
L 124.788862 212.299642 
L 126.007535 208.201875 
L 126.413759 203.80057 
L 126.819984 195.618834 
L 127.632432 169.659414 
L 128.444881 141.154411 
L 128.851106 133.124444 
L 129.25733 133.793608 
L 129.663554 146.300764 
L 130.476003 201.937949 
L 130.882228 212.437614 
L 131.288452 215.845521 
L 131.694676 216.356017 
L 132.100901 215.645461 
L 132.91335 213.023995 
L 134.538247 207.718973 
L 134.944472 203.779875 
L 135.350696 196.267302 
L 136.163145 171.922154 
L 136.975594 144.031126 
L 137.381818 135.525156 
L 137.788043 135.228516 
L 138.194267 146.162792 
L 139.006716 199.958052 
L 139.41294 210.602587 
L 139.819165 214.120871 
L 140.225389 214.734847 
L 140.631613 214.113973 
L 141.444062 211.67187 
L 142.662735 207.794858 
L 143.06896 206.75317 
L 143.475184 204.331762 
L 143.881409 198.854276 
L 144.287633 190.23103 
L 145.912531 143.741385 
L 146.318755 140.098926 
L 146.72498 145.666093 
L 147.131204 162.691831 
L 147.537428 192.190232 
L 147.943653 206.166789 
L 148.349877 211.023401 
L 148.756102 212.265149 
L 149.162326 211.996104 
L 149.974775 209.940322 
L 151.193448 206.449632 
L 152.005897 205.076811 
L 152.412121 202.096617 
L 152.818346 196.232809 
L 153.630794 177.034014 
L 154.443243 154.723951 
L 154.849468 147.045813 
L 155.255692 145.921341 
L 155.661916 153.840931 
L 156.068141 172.543027 
L 156.474365 197.99885 
L 156.88059 207.153288 
L 157.286814 210.181773 
L 157.693038 210.726762 
L 158.099263 210.216266 
L 158.911712 208.160484 
L 159.724161 206.01502 
L 160.130385 205.269971 
L 160.536609 204.759475 
L 160.942834 203.628105 
L 161.349058 200.109821 
L 161.755283 193.97007 
L 162.567731 175.316263 
L 163.38018 155.489695 
L 163.786405 149.743164 
L 164.192629 150.777954 
L 164.598853 160.753325 
L 165.411302 200.282286 
L 165.817527 207.153288 
L 166.223751 209.291854 
L 166.629975 209.491913 
L 167.0362 208.877938 
L 168.661097 205.111304 
L 169.067322 204.593909 
L 169.473546 204.269675 
L 169.879771 202.793375 
L 170.285995 198.957755 
L 170.692219 192.645539 
L 171.504668 174.302169 
L 172.317117 155.903611 
L 172.723342 151.274653 
L 173.129566 153.578784 
L 173.53579 164.76141 
L 174.348239 201.634411 
L 174.754464 207.180883 
L 175.160688 208.795155 
L 175.566912 208.802053 
L 175.973137 208.119092 
L 177.19181 205.283769 
L 177.598034 204.669794 
L 178.004259 204.276574 
L 178.410483 204.042021 
L 178.816708 202.317372 
L 179.222932 198.226504 
L 179.629156 191.721127 
L 180.441605 173.377757 
L 181.254054 155.751842 
L 181.660278 151.847236 
L 182.066503 155.034388 
L 182.472727 167.175919 
L 182.878952 189.14795 
L 183.285176 202.579519 
L 183.6914 207.256767 
L 184.097625 208.533008 
L 184.503849 208.401935 
L 184.910074 207.677582 
L 186.128747 204.973332 
L 186.534971 204.449038 
L 186.941196 204.117906 
L 187.34742 203.938542 
L 187.753645 202.08282 
L 188.159869 197.860878 
L 188.566093 191.26582 
L 190.190991 155.669059 
L 190.597215 152.109383 
L 191.00344 155.744944 
L 191.409664 168.362477 
L 191.815889 190.769121 
L 192.222113 203.055522 
L 192.628337 207.311956 
L 193.034562 208.42263 
L 193.440786 208.22947 
L 194.253235 206.525516 
L 195.065684 204.856056 
L 195.471908 204.359357 
L 195.878133 204.055818 
L 196.284357 203.897151 
L 196.690581 201.951746 
L 197.096806 197.626326 
L 197.50303 190.934687 
L 199.127928 155.455202 
L 199.534152 152.130079 
L 199.940377 156.082975 
L 200.346601 169.08683 
L 200.752826 191.879795 
L 201.15905 203.393553 
L 201.565274 207.360246 
L 201.971499 208.360543 
L 202.377723 208.119092 
L 203.190172 206.401341 
L 204.002621 204.773272 
L 204.408845 204.304168 
L 204.81507 204.014427 
L 205.221294 203.869556 
L 205.627518 201.896558 
L 206.033743 197.536644 
L 206.439967 190.824309 
L 208.064865 155.455202 
L 208.471089 152.212862 
L 208.877314 156.269237 
L 209.283538 169.376571 
L 209.689762 192.266116 
L 210.095987 203.503931 
L 210.502211 207.367145 
L 210.908436 208.32605 
L 211.31466 208.070802 
L 212.127109 206.346153 
L 212.939558 204.745678 
L 213.345782 204.283472 
L 213.752007 204.00063 
L 214.158231 203.855759 
L 214.564455 201.862065 
L 214.97068 197.481455 
L 215.376904 190.755323 
L 217.001802 155.420709 
L 217.408026 152.233558 
L 217.814251 156.358919 
L 218.220475 169.542138 
L 218.626699 192.507567 
L 219.032924 203.579815 
L 219.439148 207.380942 
L 219.845373 208.312253 
L 220.251597 208.043207 
L 221.064046 206.31166 
L 221.876495 204.724982 
L 222.282719 204.269675 
L 222.688943 203.986832 
L 223.095168 203.84886 
L 223.501392 201.848267 
L 223.907617 197.46076 
L 224.313841 190.72083 
L 225.938739 155.413811 
L 226.344963 152.247355 
L 226.751188 156.40031 
L 227.157412 169.618022 
L 227.563636 192.611046 
L 227.969861 203.60741 
L 228.376085 207.380942 
L 228.78231 208.305354 
L 229.188534 208.02941 
L 230.000983 206.297862 
L 230.813432 204.718084 
L 231.219656 204.262776 
L 231.62588 203.986832 
L 232.032105 203.84886 
L 232.438329 201.841369 
L 232.844554 197.446962 
L 233.250778 190.707033 
L 234.875676 155.406912 
L 235.2819 152.254253 
L 235.688124 156.427905 
L 236.094349 169.659414 
L 236.500573 192.673133 
L 236.906798 203.628105 
L 237.313022 207.387841 
L 237.719247 208.298456 
L 238.125471 208.02941 
L 238.93792 206.290964 
L 239.750369 204.711185 
L 240.156593 204.255878 
L 240.562817 203.979934 
L 240.969042 203.841962 
L 241.375266 201.83447 
L 241.781491 197.440064 
L 242.187715 190.700135 
L 243.812613 155.406912 
L 244.218837 152.254253 
L 244.625061 156.434803 
L 245.031286 169.68011 
L 245.43751 192.700728 
L 245.843735 203.635004 
L 246.249959 207.387841 
L 246.656183 208.298456 
L 247.062408 208.022512 
L 247.874857 206.290964 
L 248.687305 204.711185 
L 249.09353 204.255878 
L 249.499754 203.979934 
L 249.905979 203.841962 
L 250.312203 201.83447 
L 250.718428 197.433165 
L 251.124652 190.693236 
L 252.74955 155.400014 
L 253.155774 152.254253 
L 253.561998 156.441702 
L 253.968223 169.687008 
L 254.374447 192.714525 
L 254.780672 203.641903 
L 255.186896 207.387841 
L 255.59312 208.298456 
L 255.999345 208.022512 
L 256.811794 206.290964 
L 257.624242 204.711185 
L 258.030467 204.255878 
L 258.436691 203.979934 
L 258.842916 203.841962 
L 259.24914 201.83447 
L 259.655364 197.433165 
L 260.061589 190.693236 
L 261.686486 155.400014 
L 262.092711 152.261152 
L 262.498935 156.441702 
L 262.90516 169.693907 
L 263.311384 192.721424 
L 263.717609 203.641903 
L 264.123833 207.387841 
L 264.530057 208.298456 
L 264.936282 208.022512 
L 265.748731 206.284065 
L 266.561179 204.711185 
L 266.967404 204.255878 
L 267.373628 203.979934 
L 267.779853 203.841962 
L 268.186077 201.83447 
L 268.592301 197.433165 
L 268.998526 190.693236 
L 270.623423 155.400014 
L 271.029648 152.261152 
L 271.435872 156.441702 
L 271.842097 169.700805 
L 272.248321 192.721424 
L 272.654545 203.641903 
L 273.06077 207.387841 
L 273.466994 208.298456 
L 273.873219 208.022512 
L 274.685667 206.284065 
L 275.498116 204.711185 
L 275.904341 204.255878 
L 276.310565 203.979934 
L 276.71679 203.841962 
L 277.123014 201.83447 
L 277.529238 197.433165 
L 277.935463 190.693236 
L 279.56036 155.400014 
L 279.966585 152.261152 
L 280.372809 156.4486 
L 280.779034 169.700805 
L 281.185258 192.721424 
L 281.591482 203.641903 
L 281.997707 207.387841 
L 282.403931 208.298456 
L 282.810156 208.022512 
L 283.622604 206.284065 
L 284.435053 204.711185 
L 284.841278 204.255878 
L 285.247502 203.979934 
L 285.653726 203.841962 
L 286.059951 201.83447 
L 286.466175 197.433165 
L 286.8724 190.693236 
L 288.497297 155.400014 
L 288.903522 152.261152 
L 289.309746 156.4486 
L 289.715971 169.700805 
L 290.122195 192.721424 
L 290.528419 203.641903 
L 290.934644 207.387841 
L 291.340868 208.298456 
L 291.747093 208.022512 
L 292.559541 206.284065 
L 293.37199 204.711185 
L 293.778215 204.255878 
L 294.184439 203.979934 
L 294.590663 203.841962 
L 294.996888 201.83447 
L 295.403112 197.433165 
L 295.809337 190.693236 
L 297.434234 155.400014 
L 297.840459 152.261152 
L 298.246683 156.4486 
L 298.652907 169.700805 
L 299.059132 192.728322 
L 299.465356 203.641903 
L 299.871581 207.387841 
L 300.277805 208.298456 
L 300.684029 208.022512 
L 301.496478 206.284065 
L 302.308927 204.704287 
L 302.715152 204.255878 
L 303.121376 203.979934 
L 303.5276 203.841962 
L 303.933825 201.83447 
L 304.340049 197.433165 
L 304.746274 190.693236 
L 306.371171 155.400014 
L 306.777396 152.261152 
L 307.18362 156.4486 
L 307.589844 169.700805 
L 307.996069 192.728322 
L 308.402293 203.641903 
L 308.808518 207.387841 
L 309.214742 208.298456 
L 309.620966 208.022512 
L 310.433415 206.284065 
L 311.245864 204.704287 
L 311.652088 204.255878 
L 312.058313 203.979934 
L 312.464537 203.841962 
L 312.870762 201.83447 
L 313.276986 197.433165 
L 313.68321 190.693236 
L 315.308108 155.400014 
L 315.714333 152.261152 
L 316.120557 156.4486 
L 316.526781 169.700805 
L 316.933006 192.728322 
L 317.33923 203.641903 
L 317.745455 207.387841 
L 318.151679 208.298456 
L 318.557903 208.022512 
L 319.370352 206.284065 
L 320.182801 204.704287 
L 320.589025 204.255878 
L 320.99525 203.979934 
L 321.401474 203.841962 
L 321.807699 201.83447 
L 322.213923 197.433165 
L 322.620147 190.693236 
L 324.245045 155.400014 
L 324.651269 152.261152 
L 325.057494 156.4486 
L 325.463718 169.700805 
L 325.869943 192.728322 
L 326.276167 203.641903 
L 326.682391 207.387841 
L 327.088616 208.298456 
L 327.49484 208.022512 
L 328.307289 206.284065 
L 329.119738 204.704287 
L 329.525962 204.255878 
L 329.932187 203.979934 
L 330.338411 203.841962 
L 330.744636 201.83447 
L 331.15086 197.433165 
L 331.557084 190.693236 
L 333.181982 155.400014 
L 333.588206 152.261152 
L 333.994431 156.4486 
L 334.400655 169.700805 
L 334.80688 192.728322 
L 335.213104 203.641903 
L 335.619328 207.387841 
L 336.025553 208.298456 
L 336.431777 208.022512 
L 337.244226 206.284065 
L 338.056675 204.704287 
L 338.462899 204.255878 
L 338.869124 203.979934 
L 339.275348 203.841962 
L 339.681572 201.83447 
L 340.087797 197.433165 
L 340.494021 190.693236 
L 342.118919 155.400014 
L 342.525143 152.261152 
L 342.931368 156.4486 
L 343.337592 169.700805 
L 343.743817 192.728322 
L 344.150041 203.641903 
L 344.556265 207.387841 
L 344.96249 208.298456 
L 345.368714 208.022512 
L 346.181163 206.284065 
L 346.993612 204.704287 
L 347.399836 204.255878 
L 347.806061 203.979934 
L 348.212285 203.841962 
L 348.618509 201.83447 
L 349.024734 197.433165 
L 349.430958 190.693236 
L 351.055856 155.400014 
L 351.46208 152.261152 
L 351.868305 156.4486 
L 352.274529 169.700805 
L 352.680753 192.728322 
L 353.086978 203.641903 
L 353.493202 207.387841 
L 353.899427 208.298456 
L 354.305651 208.022512 
L 355.1181 206.284065 
L 355.930549 204.704287 
L 356.336773 204.255878 
L 356.742998 203.979934 
L 357.149222 203.841962 
L 357.555446 201.83447 
L 357.961671 197.433165 
L 358.367895 190.693236 
L 359.992793 155.400014 
L 360.399017 152.261152 
L 360.805242 156.4486 
L 361.211466 169.700805 
L 361.61769 192.728322 
L 362.023915 203.641903 
L 362.430139 207.387841 
L 362.836364 208.298456 
L 363.242588 208.022512 
L 364.055037 206.284065 
L 364.867486 204.704287 
L 365.27371 204.255878 
L 365.679934 203.979934 
L 366.086159 203.841962 
L 366.492383 201.83447 
L 366.898608 197.433165 
L 367.304832 190.693236 
L 368.92973 155.400014 
L 369.335954 152.261152 
L 369.742179 156.4486 
L 370.148403 169.700805 
L 370.554627 192.728322 
L 370.960852 203.641903 
L 371.367076 207.387841 
L 371.773301 208.298456 
L 372.179525 208.022512 
L 372.991974 206.284065 
L 373.804423 204.704287 
L 374.210647 204.255878 
L 374.616871 203.979934 
L 375.023096 203.841962 
L 375.42932 201.83447 
L 375.835545 197.433165 
L 376.241769 190.693236 
L 377.866667 155.400014 
L 378.272891 152.261152 
L 378.679115 156.4486 
L 379.08534 169.700805 
L 379.491564 192.728322 
L 379.897789 203.641903 
L 380.304013 207.387841 
L 380.710238 208.298456 
L 381.116462 208.022512 
L 381.928911 206.284065 
L 382.74136 204.704287 
L 383.147584 204.255878 
L 383.553808 203.979934 
L 383.960033 203.841962 
L 384.366257 201.83447 
L 384.772482 197.433165 
L 385.178706 190.693236 
L 386.803604 155.400014 
L 387.209828 152.261152 
L 387.616052 156.4486 
L 388.022277 169.700805 
L 388.428501 192.728322 
L 388.834726 203.641903 
L 389.24095 207.387841 
L 389.647174 208.298456 
L 390.053399 208.022512 
L 390.865848 206.284065 
L 391.678296 204.704287 
L 392.084521 204.255878 
L 392.490745 203.979934 
L 392.89697 203.841962 
L 393.303194 201.83447 
L 393.709419 197.433165 
L 394.115643 190.693236 
L 395.740541 155.400014 
L 396.146765 152.261152 
L 396.552989 156.4486 
L 396.959214 169.700805 
L 397.365438 192.728322 
L 397.771663 203.641903 
L 398.177887 207.387841 
L 398.584111 208.298456 
L 398.990336 208.022512 
L 399.802785 206.284065 
L 400.615233 204.704287 
L 401.021458 204.255878 
L 401.427682 203.979934 
L 401.833907 203.841962 
L 402.240131 201.83447 
L 402.646355 197.433165 
L 403.05258 190.693236 
L 404.677477 155.400014 
L 405.083702 152.261152 
L 405.489926 156.4486 
L 405.896151 169.700805 
L 406.302375 192.728322 
L 406.7086 203.641903 
L 407.114824 207.387841 
L 407.521048 208.298456 
L 407.927273 208.022512 
L 408.739722 206.284065 
L 409.55217 204.704287 
L 409.958395 204.255878 
L 410.364619 203.979934 
L 410.770844 203.841962 
L 411.177068 201.83447 
L 411.583292 197.433165 
L 411.989517 190.693236 
L 413.614414 155.400014 
L 414.020639 152.261152 
L 414.426863 156.4486 
L 414.833088 169.700805 
L 415.239312 192.728322 
L 415.645536 203.641903 
L 416.051761 207.387841 
L 416.457985 208.298456 
L 416.86421 208.022512 
L 417.676658 206.284065 
L 418.489107 204.704287 
L 418.895332 204.255878 
L 419.301556 203.979934 
L 419.707781 203.841962 
L 420.114005 201.83447 
L 420.520229 197.433165 
L 420.926454 190.693236 
L 422.551351 155.400014 
L 422.957576 152.261152 
L 423.3638 156.4486 
L 423.770025 169.700805 
L 424.176249 192.728322 
L 424.582473 203.641903 
L 424.988698 207.387841 
L 425.394922 208.298456 
L 425.801147 208.022512 
L 426.613595 206.284065 
L 427.426044 204.704287 
L 427.832269 204.255878 
L 428.238493 203.979934 
L 428.644717 203.841962 
L 429.050942 201.83447 
L 429.457166 197.433165 
L 429.863391 190.693236 
L 431.488288 155.400014 
L 431.894513 152.261152 
L 432.300737 156.4486 
L 432.706962 169.700805 
L 433.113186 192.728322 
L 433.51941 203.641903 
L 433.925635 207.387841 
L 434.331859 208.298456 
L 434.738084 208.022512 
L 435.550532 206.284065 
L 436.362981 204.704287 
L 436.769206 204.255878 
L 437.17543 203.979934 
L 437.581654 203.841962 
L 437.987879 201.83447 
L 438.394103 197.433165 
L 438.800328 190.693236 
L 440.425225 155.400014 
L 440.83145 152.261152 
L 441.237674 156.4486 
L 441.643898 169.700805 
L 442.050123 192.728322 
L 442.456347 203.641903 
L 442.862572 207.387841 
L 443.268796 208.298456 
L 443.67502 208.022512 
L 444.487469 206.284065 
L 445.299918 204.704287 
L 445.706143 204.255878 
L 446.112367 203.979934 
L 446.518591 203.841962 
L 446.924816 201.83447 
L 447.33104 197.433165 
L 447.737265 190.693236 
L 449.362162 155.400014 
L 449.768387 152.261152 
L 450.174611 156.4486 
L 450.580835 169.700805 
L 450.98706 192.728322 
L 451.393284 203.641903 
L 451.799509 207.387841 
L 452.205733 208.298456 
L 452.611957 208.022512 
L 453.424406 206.284065 
L 454.236855 204.704287 
L 454.643079 204.255878 
L 455.049304 203.979934 
L 455.455528 203.841962 
L 455.861753 201.83447 
L 456.267977 197.433165 
L 456.674201 190.693236 
L 458.299099 155.400014 
L 458.705324 152.261152 
L 459.111548 156.4486 
L 459.517772 169.700805 
L 459.923997 192.728322 
L 460.330221 203.641903 
L 460.736446 207.387841 
L 461.14267 208.298456 
L 461.548894 208.022512 
L 462.361343 206.284065 
L 463.173792 204.704287 
L 463.580016 204.255878 
L 463.986241 203.979934 
L 464.392465 203.841962 
L 464.79869 201.83447 
L 465.204914 197.433165 
L 465.611138 190.693236 
L 467.236036 155.400014 
L 467.64226 152.261152 
L 468.048485 156.4486 
L 468.454709 169.700805 
L 468.860934 192.728322 
L 469.267158 203.641903 
L 469.673382 207.387841 
L 470.079607 208.298456 
L 470.485831 208.022512 
L 471.29828 206.284065 
L 472.110729 204.704287 
L 472.516953 204.255878 
L 472.923178 203.979934 
L 473.329402 203.841962 
L 473.735627 201.83447 
L 474.141851 197.433165 
L 474.548075 190.693236 
L 476.172973 155.400014 
L 476.579197 152.261152 
L 476.985422 156.4486 
L 477.391646 169.700805 
L 477.797871 192.728322 
L 478.204095 203.641903 
L 478.610319 207.387841 
L 479.016544 208.298456 
L 479.422768 208.022512 
L 480.235217 206.284065 
L 481.047666 204.704287 
L 481.45389 204.255878 
L 481.860115 203.979934 
L 482.266339 203.841962 
L 482.672563 201.83447 
L 483.078788 197.433165 
L 483.485012 190.693236 
L 485.10991 155.400014 
L 485.516134 152.261152 
L 485.922359 156.4486 
L 486.328583 169.700805 
L 486.734808 192.728322 
L 487.141032 203.641903 
L 487.547256 207.387841 
L 487.953481 208.298456 
L 488.359705 208.022512 
L 489.172154 206.284065 
L 489.984603 204.704287 
L 490.390827 204.255878 
L 490.797052 203.979934 
L 491.203276 203.841962 
L 491.6095 201.83447 
L 492.015725 197.433165 
L 492.421949 190.693236 
L 494.046847 155.400014 
L 494.453071 152.261152 
L 494.859296 156.4486 
L 495.26552 169.700805 
L 495.671744 192.728322 
L 496.077969 203.641903 
L 496.484193 207.387841 
L 496.890418 208.298456 
L 497.296642 208.022512 
L 498.109091 206.284065 
L 498.109091 206.284065 
" style="fill:none;stroke:#ff0000;stroke-linecap:square;stroke-width:1.5;"/>
   </g>
   <g id="line2d_26">
    <path clip-path="url(#p85497ed427)" d="M 92.290909 238.190076 
L 92.697133 238.190076 
L 93.103358 238.190076 
L 94.728256 237.293259 
L 96.353153 236.210179 
L 99.196724 233.850859 
L 103.258968 230.056631 
L 112.602129 221.143643 
L 113.820803 220.502074 
L 115.039476 220.095056 
L 116.664373 219.791518 
L 117.070598 218.942991 
L 117.883047 195.680922 
L 118.289271 191.80391 
L 119.507944 176.46143 
L 119.914169 125.4739 
L 120.320393 110.704004 
L 120.726618 128.695545 
L 121.539066 182.007902 
L 122.351515 187.671651 
L 123.163964 191.493473 
L 123.976413 194.004563 
L 124.788862 195.667124 
L 125.60131 196.743306 
L 126.413759 197.398672 
L 126.819984 197.371078 
L 127.226208 196.826089 
L 127.632432 195.646429 
L 128.038657 193.797605 
L 129.663554 183.822233 
L 130.069779 183.0013 
L 130.476003 184.063684 
L 131.288452 189.106559 
L 132.100901 192.597249 
L 132.91335 194.763408 
L 133.725799 196.12933 
L 134.538247 196.977858 
L 134.944472 197.253802 
L 135.350696 197.253802 
L 135.756921 196.777799 
L 136.163145 195.701617 
L 136.569369 193.990765 
L 137.381818 189.037573 
L 138.194267 184.312034 
L 138.600491 183.373825 
L 139.006716 184.208555 
L 139.819165 189.023776 
L 140.631613 192.397189 
L 141.444062 194.480566 
L 142.256511 195.798198 
L 143.06896 196.612232 
L 143.475184 196.895075 
L 143.881409 196.998554 
L 144.287633 196.743306 
L 144.693857 195.991359 
L 145.100082 194.673726 
L 145.912531 190.534568 
L 146.72498 185.960798 
L 147.131204 184.636268 
L 147.537428 184.698355 
L 149.162326 192.10055 
L 149.974775 194.11494 
L 150.787224 195.377383 
L 151.599672 196.170722 
L 152.412121 196.695015 
L 152.818346 196.715711 
L 153.22457 196.356984 
L 153.630794 195.522254 
L 154.037019 194.177027 
L 154.849468 190.258624 
L 155.661916 186.326424 
L 156.068141 185.457201 
L 156.474365 185.981494 
L 157.693038 191.45898 
L 158.505487 193.62514 
L 159.317936 194.970366 
L 160.130385 195.805096 
L 160.942834 196.384579 
L 161.349058 196.557043 
L 161.755283 196.481159 
L 162.161507 196.025851 
L 162.567731 195.122135 
L 163.38018 191.990172 
L 164.192629 188.071769 
L 164.598853 186.623064 
L 165.005078 186.133263 
L 165.411302 187.050777 
L 166.223751 190.617351 
L 167.0362 193.038759 
L 167.848649 194.528856 
L 168.661097 195.453268 
L 169.879771 196.343187 
L 170.285995 196.47426 
L 170.692219 196.343187 
L 171.098444 195.832691 
L 171.504668 194.887583 
L 172.317117 191.762519 
L 173.129566 188.051073 
L 173.53579 186.78863 
L 173.942015 186.519585 
L 174.348239 187.671651 
L 175.160688 191.031267 
L 175.973137 193.252615 
L 176.785586 194.618538 
L 177.598034 195.473964 
L 178.816708 196.32939 
L 179.222932 196.439767 
L 179.629156 196.267302 
L 180.035381 195.715415 
L 180.441605 194.728915 
L 181.254054 191.583155 
L 182.066503 187.96829 
L 182.472727 186.816224 
L 182.878952 186.698948 
L 183.285176 188.023479 
L 184.097625 191.26582 
L 184.910074 193.369892 
L 185.722523 194.666828 
L 186.534971 195.487761 
L 187.753645 196.32939 
L 188.159869 196.42597 
L 188.566093 196.232809 
L 188.972318 195.660226 
L 189.378542 194.653031 
L 190.190991 191.486575 
L 191.00344 187.92 
L 191.409664 186.823123 
L 191.815889 186.781731 
L 193.440786 192.535161 
L 194.253235 194.135636 
L 195.065684 195.135932 
L 196.284357 196.08104 
L 196.690581 196.336288 
L 197.096806 196.419072 
L 197.50303 196.219012 
L 197.909255 195.625733 
L 198.315479 194.597842 
L 199.127928 191.41069 
L 199.940377 187.864811 
L 200.346601 186.802427 
L 200.752826 186.809326 
L 202.377723 192.576553 
L 203.190172 194.156332 
L 204.002621 195.135932 
L 204.81507 195.805096 
L 205.627518 196.32939 
L 206.033743 196.419072 
L 206.439967 196.205215 
L 206.846192 195.611936 
L 207.252416 194.577146 
L 208.064865 191.389994 
L 208.877314 187.857913 
L 209.283538 186.809326 
L 209.689762 186.83692 
L 211.31466 192.597249 
L 212.127109 194.170129 
L 212.939558 195.142831 
L 214.158231 196.08104 
L 214.564455 196.32939 
L 214.97068 196.412173 
L 215.376904 196.205215 
L 215.783129 195.598138 
L 216.189353 194.570248 
L 217.001802 191.376197 
L 217.814251 187.851014 
L 218.220475 186.802427 
L 218.626699 186.843819 
L 220.251597 192.611046 
L 221.064046 194.170129 
L 221.876495 195.142831 
L 223.095168 196.08104 
L 223.501392 196.32939 
L 223.907617 196.412173 
L 224.313841 196.198316 
L 224.720066 195.598138 
L 225.12629 194.563349 
L 225.938739 191.369299 
L 226.751188 187.844115 
L 227.157412 186.809326 
L 227.563636 186.850717 
L 229.188534 192.617945 
L 230.000983 194.177027 
L 230.813432 195.142831 
L 232.032105 196.08104 
L 232.438329 196.32939 
L 232.844554 196.412173 
L 233.250778 196.198316 
L 233.657002 195.598138 
L 234.063227 194.563349 
L 234.875676 191.3624 
L 235.688124 187.844115 
L 236.094349 186.802427 
L 236.500573 186.850717 
L 238.125471 192.617945 
L 238.93792 194.177027 
L 239.750369 195.142831 
L 240.969042 196.08104 
L 241.375266 196.32939 
L 241.781491 196.412173 
L 242.187715 196.198316 
L 242.593939 195.59124 
L 243.000164 194.55645 
L 243.812613 191.3624 
L 244.625061 187.844115 
L 245.031286 186.802427 
L 245.43751 186.850717 
L 247.062408 192.617945 
L 247.874857 194.177027 
L 248.687305 195.142831 
L 249.905979 196.08104 
L 250.312203 196.32939 
L 250.718428 196.412173 
L 251.124652 196.198316 
L 251.530876 195.59124 
L 251.937101 194.55645 
L 252.74955 191.3624 
L 253.561998 187.844115 
L 253.968223 186.802427 
L 254.374447 186.850717 
L 255.999345 192.617945 
L 256.811794 194.177027 
L 257.624242 195.142831 
L 258.842916 196.08104 
L 259.24914 196.32939 
L 259.655364 196.412173 
L 260.061589 196.198316 
L 260.467813 195.59124 
L 260.874038 194.55645 
L 261.686486 191.3624 
L 262.498935 187.844115 
L 262.90516 186.802427 
L 263.311384 186.850717 
L 264.936282 192.617945 
L 265.748731 194.177027 
L 266.561179 195.142831 
L 267.779853 196.08104 
L 268.186077 196.32939 
L 268.592301 196.412173 
L 268.998526 196.198316 
L 269.40475 195.59124 
L 269.810975 194.55645 
L 270.623423 191.3624 
L 271.435872 187.844115 
L 271.842097 186.802427 
L 272.248321 186.850717 
L 273.873219 192.617945 
L 274.685667 194.177027 
L 275.498116 195.142831 
L 276.71679 196.08104 
L 277.123014 196.32939 
L 277.529238 196.412173 
L 277.935463 196.198316 
L 278.341687 195.59124 
L 278.747912 194.55645 
L 279.56036 191.3624 
L 280.372809 187.844115 
L 280.779034 186.802427 
L 281.185258 186.850717 
L 282.810156 192.617945 
L 283.622604 194.177027 
L 284.435053 195.142831 
L 285.653726 196.08104 
L 286.059951 196.32939 
L 286.466175 196.412173 
L 286.8724 196.198316 
L 287.278624 195.59124 
L 287.684848 194.55645 
L 288.497297 191.3624 
L 289.309746 187.837217 
L 289.715971 186.802427 
L 290.122195 186.850717 
L 291.747093 192.617945 
L 292.559541 194.177027 
L 293.37199 195.142831 
L 294.590663 196.08104 
L 294.996888 196.32939 
L 295.403112 196.412173 
L 295.809337 196.198316 
L 296.215561 195.59124 
L 296.621785 194.55645 
L 297.434234 191.3624 
L 298.246683 187.837217 
L 298.652907 186.802427 
L 299.059132 186.850717 
L 300.684029 192.617945 
L 301.496478 194.177027 
L 302.308927 195.142831 
L 303.5276 196.08104 
L 303.933825 196.32939 
L 304.340049 196.412173 
L 304.746274 196.198316 
L 305.152498 195.59124 
L 305.558722 194.55645 
L 306.371171 191.3624 
L 307.18362 187.837217 
L 307.589844 186.802427 
L 307.996069 186.850717 
L 309.620966 192.617945 
L 310.433415 194.177027 
L 311.245864 195.142831 
L 312.464537 196.08104 
L 312.870762 196.32939 
L 313.276986 196.412173 
L 313.68321 196.198316 
L 314.089435 195.59124 
L 314.495659 194.55645 
L 315.308108 191.3624 
L 316.120557 187.837217 
L 316.526781 186.802427 
L 316.933006 186.850717 
L 318.557903 192.617945 
L 319.370352 194.177027 
L 320.182801 195.142831 
L 321.401474 196.08104 
L 321.807699 196.32939 
L 322.213923 196.412173 
L 322.620147 196.198316 
L 323.026372 195.59124 
L 323.432596 194.55645 
L 324.245045 191.3624 
L 325.057494 187.837217 
L 325.463718 186.802427 
L 325.869943 186.850717 
L 327.49484 192.617945 
L 328.307289 194.177027 
L 329.119738 195.142831 
L 330.338411 196.08104 
L 330.744636 196.32939 
L 331.15086 196.412173 
L 331.557084 196.198316 
L 331.963309 195.59124 
L 332.369533 194.55645 
L 333.181982 191.3624 
L 333.994431 187.837217 
L 334.400655 186.802427 
L 334.80688 186.850717 
L 336.431777 192.617945 
L 337.244226 194.177027 
L 338.056675 195.142831 
L 339.275348 196.08104 
L 339.681572 196.32939 
L 340.087797 196.412173 
L 340.494021 196.198316 
L 340.900246 195.59124 
L 341.30647 194.55645 
L 342.118919 191.3624 
L 342.931368 187.837217 
L 343.337592 186.802427 
L 343.743817 186.850717 
L 345.368714 192.617945 
L 346.181163 194.177027 
L 346.993612 195.142831 
L 348.212285 196.08104 
L 348.618509 196.32939 
L 349.024734 196.412173 
L 349.430958 196.198316 
L 349.837183 195.59124 
L 350.243407 194.55645 
L 351.055856 191.3624 
L 351.868305 187.837217 
L 352.274529 186.802427 
L 352.680753 186.850717 
L 354.305651 192.617945 
L 355.1181 194.177027 
L 355.930549 195.142831 
L 357.149222 196.08104 
L 357.555446 196.32939 
L 357.961671 196.412173 
L 358.367895 196.198316 
L 358.77412 195.59124 
L 359.180344 194.55645 
L 359.992793 191.3624 
L 360.805242 187.837217 
L 361.211466 186.802427 
L 361.61769 186.850717 
L 363.242588 192.617945 
L 364.055037 194.177027 
L 364.867486 195.142831 
L 366.086159 196.08104 
L 366.492383 196.32939 
L 366.898608 196.412173 
L 367.304832 196.198316 
L 367.711057 195.59124 
L 368.117281 194.55645 
L 368.92973 191.3624 
L 369.742179 187.837217 
L 370.148403 186.802427 
L 370.554627 186.850717 
L 372.179525 192.617945 
L 372.991974 194.177027 
L 373.804423 195.142831 
L 375.023096 196.08104 
L 375.42932 196.32939 
L 375.835545 196.412173 
L 376.241769 196.198316 
L 376.647993 195.59124 
L 377.054218 194.55645 
L 377.866667 191.3624 
L 378.679115 187.837217 
L 379.08534 186.802427 
L 379.491564 186.850717 
L 381.116462 192.617945 
L 381.928911 194.177027 
L 382.74136 195.142831 
L 383.960033 196.08104 
L 384.366257 196.32939 
L 384.772482 196.412173 
L 385.178706 196.198316 
L 385.58493 195.59124 
L 385.991155 194.55645 
L 386.803604 191.3624 
L 387.616052 187.837217 
L 388.022277 186.802427 
L 388.428501 186.850717 
L 390.053399 192.617945 
L 390.865848 194.177027 
L 391.678296 195.142831 
L 392.89697 196.08104 
L 393.303194 196.32939 
L 393.709419 196.412173 
L 394.115643 196.198316 
L 394.521867 195.59124 
L 394.928092 194.55645 
L 395.740541 191.3624 
L 396.552989 187.837217 
L 396.959214 186.802427 
L 397.365438 186.850717 
L 398.990336 192.617945 
L 399.802785 194.177027 
L 400.615233 195.142831 
L 401.833907 196.08104 
L 402.240131 196.32939 
L 402.646355 196.412173 
L 403.05258 196.198316 
L 403.458804 195.59124 
L 403.865029 194.55645 
L 404.677477 191.3624 
L 405.489926 187.837217 
L 405.896151 186.802427 
L 406.302375 186.850717 
L 407.927273 192.617945 
L 408.739722 194.177027 
L 409.55217 195.142831 
L 410.770844 196.08104 
L 411.177068 196.32939 
L 411.583292 196.412173 
L 411.989517 196.198316 
L 412.395741 195.59124 
L 412.801966 194.55645 
L 413.614414 191.3624 
L 414.426863 187.837217 
L 414.833088 186.802427 
L 415.239312 186.850717 
L 416.86421 192.617945 
L 417.676658 194.177027 
L 418.489107 195.142831 
L 419.707781 196.08104 
L 420.114005 196.32939 
L 420.520229 196.412173 
L 420.926454 196.198316 
L 421.332678 195.59124 
L 421.738903 194.55645 
L 422.551351 191.3624 
L 423.3638 187.837217 
L 423.770025 186.802427 
L 424.176249 186.850717 
L 425.801147 192.617945 
L 426.613595 194.177027 
L 427.426044 195.142831 
L 428.644717 196.08104 
L 429.050942 196.32939 
L 429.457166 196.412173 
L 429.863391 196.198316 
L 430.269615 195.59124 
L 430.675839 194.55645 
L 431.488288 191.3624 
L 432.300737 187.837217 
L 432.706962 186.802427 
L 433.113186 186.850717 
L 434.738084 192.617945 
L 435.550532 194.177027 
L 436.362981 195.142831 
L 437.581654 196.08104 
L 437.987879 196.32939 
L 438.394103 196.412173 
L 438.800328 196.198316 
L 439.206552 195.59124 
L 439.612776 194.55645 
L 440.425225 191.3624 
L 441.237674 187.837217 
L 441.643898 186.802427 
L 442.050123 186.850717 
L 443.67502 192.617945 
L 444.487469 194.177027 
L 445.299918 195.142831 
L 446.518591 196.08104 
L 446.924816 196.32939 
L 447.33104 196.412173 
L 447.737265 196.198316 
L 448.143489 195.59124 
L 448.549713 194.55645 
L 449.362162 191.3624 
L 450.174611 187.837217 
L 450.580835 186.802427 
L 450.98706 186.850717 
L 452.611957 192.617945 
L 453.424406 194.177027 
L 454.236855 195.142831 
L 455.455528 196.08104 
L 455.861753 196.32939 
L 456.267977 196.412173 
L 456.674201 196.198316 
L 457.080426 195.59124 
L 457.48665 194.55645 
L 458.299099 191.3624 
L 459.111548 187.837217 
L 459.517772 186.802427 
L 459.923997 186.850717 
L 461.548894 192.617945 
L 462.361343 194.177027 
L 463.173792 195.142831 
L 464.392465 196.08104 
L 464.79869 196.32939 
L 465.204914 196.412173 
L 465.611138 196.198316 
L 466.017363 195.59124 
L 466.423587 194.55645 
L 467.236036 191.3624 
L 468.048485 187.837217 
L 468.454709 186.802427 
L 468.860934 186.850717 
L 470.485831 192.617945 
L 471.29828 194.177027 
L 472.110729 195.142831 
L 473.329402 196.08104 
L 473.735627 196.32939 
L 474.141851 196.412173 
L 474.548075 196.198316 
L 474.9543 195.59124 
L 475.360524 194.55645 
L 476.172973 191.3624 
L 476.985422 187.837217 
L 477.391646 186.802427 
L 477.797871 186.850717 
L 479.422768 192.617945 
L 480.235217 194.177027 
L 481.047666 195.142831 
L 482.266339 196.08104 
L 482.672563 196.32939 
L 483.078788 196.412173 
L 483.485012 196.198316 
L 483.891237 195.59124 
L 484.297461 194.55645 
L 485.10991 191.3624 
L 485.922359 187.837217 
L 486.328583 186.802427 
L 486.734808 186.850717 
L 488.359705 192.617945 
L 489.172154 194.177027 
L 489.984603 195.142831 
L 491.203276 196.08104 
L 491.6095 196.32939 
L 492.015725 196.412173 
L 492.421949 196.198316 
L 492.828174 195.59124 
L 493.234398 194.55645 
L 494.046847 191.3624 
L 494.859296 187.837217 
L 495.26552 186.802427 
L 495.671744 186.850717 
L 497.296642 192.617945 
L 498.109091 194.177027 
L 498.109091 194.177027 
" style="fill:none;stroke:#008000;stroke-linecap:square;stroke-width:1.5;"/>
   </g>
   <g id="patch_3">
    <path d="M 72 384.48 
L 72 51.84 
" style="fill:none;stroke:#000000;stroke-linecap:square;stroke-linejoin:miter;stroke-width:0.8;"/>
   </g>
   <g id="patch_4">
    <path d="M 518.4 384.48 
L 518.4 51.84 
" style="fill:none;stroke:#000000;stroke-linecap:square;stroke-linejoin:miter;stroke-width:0.8;"/>
   </g>
   <g id="patch_5">
    <path d="M 72 384.48 
L 518.4 384.48 
" style="fill:none;stroke:#000000;stroke-linecap:square;stroke-linejoin:miter;stroke-width:0.8;"/>
   </g>
   <g id="patch_6">
    <path d="M 72 51.84 
L 518.4 51.84 
" style="fill:none;stroke:#000000;stroke-linecap:square;stroke-linejoin:miter;stroke-width:0.8;"/>
   </g>
   <g id="text_14">
    <!-- $\lambda_{m}$ -->
    <g transform="translate(286.03 45.84)scale(0.14 -0.14)">
     <use transform="translate(0 0.015625)" xlink:href="#DejaVuSans-Oblique-3bb"/>
     <use transform="translate(59.179688 -16.390625)scale(0.7)" xlink:href="#DejaVuSans-Oblique-6d"/>
    </g>
   </g>
   <g id="legend_1">
    <g id="patch_7">
     <path d="M 468.7 118.5525 
L 511.4 118.5525 
Q 513.4 118.5525 513.4 116.5525 
L 513.4 58.84 
Q 513.4 56.84 511.4 56.84 
L 468.7 56.84 
Q 466.7 56.84 466.7 58.84 
L 466.7 116.5525 
Q 466.7 118.5525 468.7 118.5525 
z
" style="fill:#ffffff;opacity:0.8;stroke:#cccccc;stroke-linejoin:miter;"/>
    </g>
    <g id="line2d_27">
     <path d="M 470.7 64.938438 
L 490.7 64.938438 
" style="fill:none;stroke:#bf00bf;stroke-linecap:square;stroke-width:1.5;"/>
    </g>
    <g id="line2d_28"/>
    <g id="text_15">
     <!-- $\lambda_{1}$ -->
     <g transform="translate(498.7 68.438438)scale(0.1 -0.1)">
      <use transform="translate(0 0.015625)" xlink:href="#DejaVuSans-Oblique-3bb"/>
      <use transform="translate(59.179688 -16.390625)scale(0.7)" xlink:href="#DejaVuSans-31"/>
     </g>
    </g>
    <g id="line2d_29">
     <path d="M 470.7 79.616563 
L 490.7 79.616563 
" style="fill:none;stroke:#00bfbf;stroke-linecap:square;stroke-width:1.5;"/>
    </g>
    <g id="line2d_30"/>
    <g id="text_16">
     <!-- $\lambda_{2}$ -->
     <g transform="translate(498.7 83.116563)scale(0.1 -0.1)">
      <use transform="translate(0 0.015625)" xlink:href="#DejaVuSans-Oblique-3bb"/>
      <use transform="translate(59.179688 -16.390625)scale(0.7)" xlink:href="#DejaVuSans-32"/>
     </g>
    </g>
    <g id="line2d_31">
     <path d="M 470.7 94.294688 
L 490.7 94.294688 
" style="fill:none;stroke:#ff0000;stroke-linecap:square;stroke-width:1.5;"/>
    </g>
    <g id="line2d_32"/>
    <g id="text_17">
     <!-- $\lambda_{3}$ -->
     <defs>
      <path d="M 40.578125 39.3125 
Q 47.65625 37.796875 51.625 33 
Q 55.609375 28.21875 55.609375 21.1875 
Q 55.609375 10.40625 48.1875 4.484375 
Q 40.765625 -1.421875 27.09375 -1.421875 
Q 22.515625 -1.421875 17.65625 -0.515625 
Q 12.796875 0.390625 7.625 2.203125 
L 7.625 11.71875 
Q 11.71875 9.328125 16.59375 8.109375 
Q 21.484375 6.890625 26.8125 6.890625 
Q 36.078125 6.890625 40.9375 10.546875 
Q 45.796875 14.203125 45.796875 21.1875 
Q 45.796875 27.640625 41.28125 31.265625 
Q 36.765625 34.90625 28.71875 34.90625 
L 20.21875 34.90625 
L 20.21875 43.015625 
L 29.109375 43.015625 
Q 36.375 43.015625 40.234375 45.921875 
Q 44.09375 48.828125 44.09375 54.296875 
Q 44.09375 59.90625 40.109375 62.90625 
Q 36.140625 65.921875 28.71875 65.921875 
Q 24.65625 65.921875 20.015625 65.03125 
Q 15.375 64.15625 9.8125 62.3125 
L 9.8125 71.09375 
Q 15.4375 72.65625 20.34375 73.4375 
Q 25.25 74.21875 29.59375 74.21875 
Q 40.828125 74.21875 47.359375 69.109375 
Q 53.90625 64.015625 53.90625 55.328125 
Q 53.90625 49.265625 50.4375 45.09375 
Q 46.96875 40.921875 40.578125 39.3125 
z
" id="DejaVuSans-33"/>
     </defs>
     <g transform="translate(498.7 97.794688)scale(0.1 -0.1)">
      <use transform="translate(0 0.015625)" xlink:href="#DejaVuSans-Oblique-3bb"/>
      <use transform="translate(59.179688 -16.390625)scale(0.7)" xlink:href="#DejaVuSans-33"/>
     </g>
    </g>
    <g id="line2d_33">
     <path d="M 470.7 108.972813 
L 490.7 108.972813 
" style="fill:none;stroke:#008000;stroke-linecap:square;stroke-width:1.5;"/>
    </g>
    <g id="line2d_34"/>
    <g id="text_18">
     <!-- $\lambda_{4}$ -->
     <g transform="translate(498.7 112.472813)scale(0.1 -0.1)">
      <use transform="translate(0 0.015625)" xlink:href="#DejaVuSans-Oblique-3bb"/>
      <use transform="translate(59.179688 -16.390625)scale(0.7)" xlink:href="#DejaVuSans-34"/>
     </g>
    </g>
   </g>
  </g>
 </g>
 <defs>
  <clipPath id="p85497ed427">
   <rect height="332.64" width="446.4" x="72" y="51.84"/>
  </clipPath>
 </defs>
</svg>
