<?xml version="1.0" encoding="utf-8" standalone="no"?>
<!DOCTYPE svg PUBLIC "-//W3C//DTD SVG 1.1//EN"
  "http://www.w3.org/Graphics/SVG/1.1/DTD/svg11.dtd">
<!-- Created with matplotlib (http://matplotlib.org/) -->
<svg height="432pt" version="1.1" viewBox="0 0 576 432" width="576pt" xmlns="http://www.w3.org/2000/svg" xmlns:xlink="http://www.w3.org/1999/xlink">
 <defs>
  <style type="text/css">
*{stroke-linecap:butt;stroke-linejoin:round;}
  </style>
 </defs>
 <g id="figure_1">
  <g id="patch_1">
   <path d="M 0 432 
L 576 432 
L 576 0 
L 0 0 
z
" style="fill:#ffffff;"/>
  </g>
  <g id="axes_1">
   <g id="patch_2">
    <path d="M 72 384.48 
L 518.4 384.48 
L 518.4 51.84 
L 72 51.84 
z
" style="fill:#ffffff;"/>
   </g>
   <g id="matplotlib.axis_1">
    <g id="xtick_1">
     <g id="line2d_1">
      <path clip-path="url(#p5a0d38d7c7)" d="M 92.290909 384.48 
L 92.290909 51.84 
" style="fill:none;stroke:#b0b0b0;stroke-dasharray:5.12,1.28,0.8,1.28;stroke-dashoffset:0;stroke-width:0.8;"/>
     </g>
     <g id="line2d_2">
      <defs>
       <path d="M 0 0 
L 0 3.5 
" id="m45c1183f5d" style="stroke:#000000;stroke-width:0.8;"/>
      </defs>
      <g>
       <use style="stroke:#000000;stroke-width:0.8;" x="92.290909" xlink:href="#m45c1183f5d" y="384.48"/>
      </g>
     </g>
     <g id="text_1">
      <!-- 0 -->
      <defs>
       <path d="M 31.78125 66.40625 
Q 24.171875 66.40625 20.328125 58.90625 
Q 16.5 51.421875 16.5 36.375 
Q 16.5 21.390625 20.328125 13.890625 
Q 24.171875 6.390625 31.78125 6.390625 
Q 39.453125 6.390625 43.28125 13.890625 
Q 47.125 21.390625 47.125 36.375 
Q 47.125 51.421875 43.28125 58.90625 
Q 39.453125 66.40625 31.78125 66.40625 
z
M 31.78125 74.21875 
Q 44.046875 74.21875 50.515625 64.515625 
Q 56.984375 54.828125 56.984375 36.375 
Q 56.984375 17.96875 50.515625 8.265625 
Q 44.046875 -1.421875 31.78125 -1.421875 
Q 19.53125 -1.421875 13.0625 8.265625 
Q 6.59375 17.96875 6.59375 36.375 
Q 6.59375 54.828125 13.0625 64.515625 
Q 19.53125 74.21875 31.78125 74.21875 
z
" id="DejaVuSans-30"/>
      </defs>
      <g transform="translate(89.109659 399.078438)scale(0.1 -0.1)">
       <use xlink:href="#DejaVuSans-30"/>
      </g>
     </g>
    </g>
    <g id="xtick_2">
     <g id="line2d_3">
      <path clip-path="url(#p5a0d38d7c7)" d="M 172.176378 384.48 
L 172.176378 51.84 
" style="fill:none;stroke:#b0b0b0;stroke-dasharray:5.12,1.28,0.8,1.28;stroke-dashoffset:0;stroke-width:0.8;"/>
     </g>
     <g id="line2d_4">
      <g>
       <use style="stroke:#000000;stroke-width:0.8;" x="172.176378" xlink:href="#m45c1183f5d" y="384.48"/>
      </g>
     </g>
     <g id="text_2">
      <!-- 100 -->
      <defs>
       <path d="M 12.40625 8.296875 
L 28.515625 8.296875 
L 28.515625 63.921875 
L 10.984375 60.40625 
L 10.984375 69.390625 
L 28.421875 72.90625 
L 38.28125 72.90625 
L 38.28125 8.296875 
L 54.390625 8.296875 
L 54.390625 0 
L 12.40625 0 
z
" id="DejaVuSans-31"/>
      </defs>
      <g transform="translate(162.632628 399.078438)scale(0.1 -0.1)">
       <use xlink:href="#DejaVuSans-31"/>
       <use x="63.623047" xlink:href="#DejaVuSans-30"/>
       <use x="127.246094" xlink:href="#DejaVuSans-30"/>
      </g>
     </g>
    </g>
    <g id="xtick_3">
     <g id="line2d_5">
      <path clip-path="url(#p5a0d38d7c7)" d="M 252.061847 384.48 
L 252.061847 51.84 
" style="fill:none;stroke:#b0b0b0;stroke-dasharray:5.12,1.28,0.8,1.28;stroke-dashoffset:0;stroke-width:0.8;"/>
     </g>
     <g id="line2d_6">
      <g>
       <use style="stroke:#000000;stroke-width:0.8;" x="252.061847" xlink:href="#m45c1183f5d" y="384.48"/>
      </g>
     </g>
     <g id="text_3">
      <!-- 200 -->
      <defs>
       <path d="M 19.1875 8.296875 
L 53.609375 8.296875 
L 53.609375 0 
L 7.328125 0 
L 7.328125 8.296875 
Q 12.9375 14.109375 22.625 23.890625 
Q 32.328125 33.6875 34.8125 36.53125 
Q 39.546875 41.84375 41.421875 45.53125 
Q 43.3125 49.21875 43.3125 52.78125 
Q 43.3125 58.59375 39.234375 62.25 
Q 35.15625 65.921875 28.609375 65.921875 
Q 23.96875 65.921875 18.8125 64.3125 
Q 13.671875 62.703125 7.8125 59.421875 
L 7.8125 69.390625 
Q 13.765625 71.78125 18.9375 73 
Q 24.125 74.21875 28.421875 74.21875 
Q 39.75 74.21875 46.484375 68.546875 
Q 53.21875 62.890625 53.21875 53.421875 
Q 53.21875 48.921875 51.53125 44.890625 
Q 49.859375 40.875 45.40625 35.40625 
Q 44.1875 33.984375 37.640625 27.21875 
Q 31.109375 20.453125 19.1875 8.296875 
z
" id="DejaVuSans-32"/>
      </defs>
      <g transform="translate(242.518097 399.078438)scale(0.1 -0.1)">
       <use xlink:href="#DejaVuSans-32"/>
       <use x="63.623047" xlink:href="#DejaVuSans-30"/>
       <use x="127.246094" xlink:href="#DejaVuSans-30"/>
      </g>
     </g>
    </g>
    <g id="xtick_4">
     <g id="line2d_7">
      <path clip-path="url(#p5a0d38d7c7)" d="M 331.947316 384.48 
L 331.947316 51.84 
" style="fill:none;stroke:#b0b0b0;stroke-dasharray:5.12,1.28,0.8,1.28;stroke-dashoffset:0;stroke-width:0.8;"/>
     </g>
     <g id="line2d_8">
      <g>
       <use style="stroke:#000000;stroke-width:0.8;" x="331.947316" xlink:href="#m45c1183f5d" y="384.48"/>
      </g>
     </g>
     <g id="text_4">
      <!-- 300 -->
      <defs>
       <path d="M 40.578125 39.3125 
Q 47.65625 37.796875 51.625 33 
Q 55.609375 28.21875 55.609375 21.1875 
Q 55.609375 10.40625 48.1875 4.484375 
Q 40.765625 -1.421875 27.09375 -1.421875 
Q 22.515625 -1.421875 17.65625 -0.515625 
Q 12.796875 0.390625 7.625 2.203125 
L 7.625 11.71875 
Q 11.71875 9.328125 16.59375 8.109375 
Q 21.484375 6.890625 26.8125 6.890625 
Q 36.078125 6.890625 40.9375 10.546875 
Q 45.796875 14.203125 45.796875 21.1875 
Q 45.796875 27.640625 41.28125 31.265625 
Q 36.765625 34.90625 28.71875 34.90625 
L 20.21875 34.90625 
L 20.21875 43.015625 
L 29.109375 43.015625 
Q 36.375 43.015625 40.234375 45.921875 
Q 44.09375 48.828125 44.09375 54.296875 
Q 44.09375 59.90625 40.109375 62.90625 
Q 36.140625 65.921875 28.71875 65.921875 
Q 24.65625 65.921875 20.015625 65.03125 
Q 15.375 64.15625 9.8125 62.3125 
L 9.8125 71.09375 
Q 15.4375 72.65625 20.34375 73.4375 
Q 25.25 74.21875 29.59375 74.21875 
Q 40.828125 74.21875 47.359375 69.109375 
Q 53.90625 64.015625 53.90625 55.328125 
Q 53.90625 49.265625 50.4375 45.09375 
Q 46.96875 40.921875 40.578125 39.3125 
z
" id="DejaVuSans-33"/>
      </defs>
      <g transform="translate(322.403566 399.078438)scale(0.1 -0.1)">
       <use xlink:href="#DejaVuSans-33"/>
       <use x="63.623047" xlink:href="#DejaVuSans-30"/>
       <use x="127.246094" xlink:href="#DejaVuSans-30"/>
      </g>
     </g>
    </g>
    <g id="xtick_5">
     <g id="line2d_9">
      <path clip-path="url(#p5a0d38d7c7)" d="M 411.832785 384.48 
L 411.832785 51.84 
" style="fill:none;stroke:#b0b0b0;stroke-dasharray:5.12,1.28,0.8,1.28;stroke-dashoffset:0;stroke-width:0.8;"/>
     </g>
     <g id="line2d_10">
      <g>
       <use style="stroke:#000000;stroke-width:0.8;" x="411.832785" xlink:href="#m45c1183f5d" y="384.48"/>
      </g>
     </g>
     <g id="text_5">
      <!-- 400 -->
      <defs>
       <path d="M 37.796875 64.3125 
L 12.890625 25.390625 
L 37.796875 25.390625 
z
M 35.203125 72.90625 
L 47.609375 72.90625 
L 47.609375 25.390625 
L 58.015625 25.390625 
L 58.015625 17.1875 
L 47.609375 17.1875 
L 47.609375 0 
L 37.796875 0 
L 37.796875 17.1875 
L 4.890625 17.1875 
L 4.890625 26.703125 
z
" id="DejaVuSans-34"/>
      </defs>
      <g transform="translate(402.289035 399.078438)scale(0.1 -0.1)">
       <use xlink:href="#DejaVuSans-34"/>
       <use x="63.623047" xlink:href="#DejaVuSans-30"/>
       <use x="127.246094" xlink:href="#DejaVuSans-30"/>
      </g>
     </g>
    </g>
    <g id="xtick_6">
     <g id="line2d_11">
      <path clip-path="url(#p5a0d38d7c7)" d="M 491.718253 384.48 
L 491.718253 51.84 
" style="fill:none;stroke:#b0b0b0;stroke-dasharray:5.12,1.28,0.8,1.28;stroke-dashoffset:0;stroke-width:0.8;"/>
     </g>
     <g id="line2d_12">
      <g>
       <use style="stroke:#000000;stroke-width:0.8;" x="491.718253" xlink:href="#m45c1183f5d" y="384.48"/>
      </g>
     </g>
     <g id="text_6">
      <!-- 500 -->
      <defs>
       <path d="M 10.796875 72.90625 
L 49.515625 72.90625 
L 49.515625 64.59375 
L 19.828125 64.59375 
L 19.828125 46.734375 
Q 21.96875 47.46875 24.109375 47.828125 
Q 26.265625 48.1875 28.421875 48.1875 
Q 40.625 48.1875 47.75 41.5 
Q 54.890625 34.8125 54.890625 23.390625 
Q 54.890625 11.625 47.5625 5.09375 
Q 40.234375 -1.421875 26.90625 -1.421875 
Q 22.3125 -1.421875 17.546875 -0.640625 
Q 12.796875 0.140625 7.71875 1.703125 
L 7.71875 11.625 
Q 12.109375 9.234375 16.796875 8.0625 
Q 21.484375 6.890625 26.703125 6.890625 
Q 35.15625 6.890625 40.078125 11.328125 
Q 45.015625 15.765625 45.015625 23.390625 
Q 45.015625 31 40.078125 35.4375 
Q 35.15625 39.890625 26.703125 39.890625 
Q 22.75 39.890625 18.8125 39.015625 
Q 14.890625 38.140625 10.796875 36.28125 
z
" id="DejaVuSans-35"/>
      </defs>
      <g transform="translate(482.174503 399.078438)scale(0.1 -0.1)">
       <use xlink:href="#DejaVuSans-35"/>
       <use x="63.623047" xlink:href="#DejaVuSans-30"/>
       <use x="127.246094" xlink:href="#DejaVuSans-30"/>
      </g>
     </g>
    </g>
    <g id="text_7">
     <!-- Iteration -->
     <defs>
      <path d="M 9.8125 72.90625 
L 19.671875 72.90625 
L 19.671875 0 
L 9.8125 0 
z
" id="DejaVuSans-49"/>
      <path d="M 18.3125 70.21875 
L 18.3125 54.6875 
L 36.8125 54.6875 
L 36.8125 47.703125 
L 18.3125 47.703125 
L 18.3125 18.015625 
Q 18.3125 11.328125 20.140625 9.421875 
Q 21.96875 7.515625 27.59375 7.515625 
L 36.8125 7.515625 
L 36.8125 0 
L 27.59375 0 
Q 17.1875 0 13.234375 3.875 
Q 9.28125 7.765625 9.28125 18.015625 
L 9.28125 47.703125 
L 2.6875 47.703125 
L 2.6875 54.6875 
L 9.28125 54.6875 
L 9.28125 70.21875 
z
" id="DejaVuSans-74"/>
      <path d="M 56.203125 29.59375 
L 56.203125 25.203125 
L 14.890625 25.203125 
Q 15.484375 15.921875 20.484375 11.0625 
Q 25.484375 6.203125 34.421875 6.203125 
Q 39.59375 6.203125 44.453125 7.46875 
Q 49.3125 8.734375 54.109375 11.28125 
L 54.109375 2.78125 
Q 49.265625 0.734375 44.1875 -0.34375 
Q 39.109375 -1.421875 33.890625 -1.421875 
Q 20.796875 -1.421875 13.15625 6.1875 
Q 5.515625 13.8125 5.515625 26.8125 
Q 5.515625 40.234375 12.765625 48.109375 
Q 20.015625 56 32.328125 56 
Q 43.359375 56 49.78125 48.890625 
Q 56.203125 41.796875 56.203125 29.59375 
z
M 47.21875 32.234375 
Q 47.125 39.59375 43.09375 43.984375 
Q 39.0625 48.390625 32.421875 48.390625 
Q 24.90625 48.390625 20.390625 44.140625 
Q 15.875 39.890625 15.1875 32.171875 
z
" id="DejaVuSans-65"/>
      <path d="M 41.109375 46.296875 
Q 39.59375 47.171875 37.8125 47.578125 
Q 36.03125 48 33.890625 48 
Q 26.265625 48 22.1875 43.046875 
Q 18.109375 38.09375 18.109375 28.8125 
L 18.109375 0 
L 9.078125 0 
L 9.078125 54.6875 
L 18.109375 54.6875 
L 18.109375 46.1875 
Q 20.953125 51.171875 25.484375 53.578125 
Q 30.03125 56 36.53125 56 
Q 37.453125 56 38.578125 55.875 
Q 39.703125 55.765625 41.0625 55.515625 
z
" id="DejaVuSans-72"/>
      <path d="M 34.28125 27.484375 
Q 23.390625 27.484375 19.1875 25 
Q 14.984375 22.515625 14.984375 16.5 
Q 14.984375 11.71875 18.140625 8.90625 
Q 21.296875 6.109375 26.703125 6.109375 
Q 34.1875 6.109375 38.703125 11.40625 
Q 43.21875 16.703125 43.21875 25.484375 
L 43.21875 27.484375 
z
M 52.203125 31.203125 
L 52.203125 0 
L 43.21875 0 
L 43.21875 8.296875 
Q 40.140625 3.328125 35.546875 0.953125 
Q 30.953125 -1.421875 24.3125 -1.421875 
Q 15.921875 -1.421875 10.953125 3.296875 
Q 6 8.015625 6 15.921875 
Q 6 25.140625 12.171875 29.828125 
Q 18.359375 34.515625 30.609375 34.515625 
L 43.21875 34.515625 
L 43.21875 35.40625 
Q 43.21875 41.609375 39.140625 45 
Q 35.0625 48.390625 27.6875 48.390625 
Q 23 48.390625 18.546875 47.265625 
Q 14.109375 46.140625 10.015625 43.890625 
L 10.015625 52.203125 
Q 14.9375 54.109375 19.578125 55.046875 
Q 24.21875 56 28.609375 56 
Q 40.484375 56 46.34375 49.84375 
Q 52.203125 43.703125 52.203125 31.203125 
z
" id="DejaVuSans-61"/>
      <path d="M 9.421875 54.6875 
L 18.40625 54.6875 
L 18.40625 0 
L 9.421875 0 
z
M 9.421875 75.984375 
L 18.40625 75.984375 
L 18.40625 64.59375 
L 9.421875 64.59375 
z
" id="DejaVuSans-69"/>
      <path d="M 30.609375 48.390625 
Q 23.390625 48.390625 19.1875 42.75 
Q 14.984375 37.109375 14.984375 27.296875 
Q 14.984375 17.484375 19.15625 11.84375 
Q 23.34375 6.203125 30.609375 6.203125 
Q 37.796875 6.203125 41.984375 11.859375 
Q 46.1875 17.53125 46.1875 27.296875 
Q 46.1875 37.015625 41.984375 42.703125 
Q 37.796875 48.390625 30.609375 48.390625 
z
M 30.609375 56 
Q 42.328125 56 49.015625 48.375 
Q 55.71875 40.765625 55.71875 27.296875 
Q 55.71875 13.875 49.015625 6.21875 
Q 42.328125 -1.421875 30.609375 -1.421875 
Q 18.84375 -1.421875 12.171875 6.21875 
Q 5.515625 13.875 5.515625 27.296875 
Q 5.515625 40.765625 12.171875 48.375 
Q 18.84375 56 30.609375 56 
z
" id="DejaVuSans-6f"/>
      <path d="M 54.890625 33.015625 
L 54.890625 0 
L 45.90625 0 
L 45.90625 32.71875 
Q 45.90625 40.484375 42.875 44.328125 
Q 39.84375 48.1875 33.796875 48.1875 
Q 26.515625 48.1875 22.3125 43.546875 
Q 18.109375 38.921875 18.109375 30.90625 
L 18.109375 0 
L 9.078125 0 
L 9.078125 54.6875 
L 18.109375 54.6875 
L 18.109375 46.1875 
Q 21.34375 51.125 25.703125 53.5625 
Q 30.078125 56 35.796875 56 
Q 45.21875 56 50.046875 50.171875 
Q 54.890625 44.34375 54.890625 33.015625 
z
" id="DejaVuSans-6e"/>
     </defs>
     <g transform="translate(265.507969 415.795938)scale(0.14 -0.14)">
      <use xlink:href="#DejaVuSans-49"/>
      <use x="29.492188" xlink:href="#DejaVuSans-74"/>
      <use x="68.701172" xlink:href="#DejaVuSans-65"/>
      <use x="130.224609" xlink:href="#DejaVuSans-72"/>
      <use x="171.337891" xlink:href="#DejaVuSans-61"/>
      <use x="232.617188" xlink:href="#DejaVuSans-74"/>
      <use x="271.826172" xlink:href="#DejaVuSans-69"/>
      <use x="299.609375" xlink:href="#DejaVuSans-6f"/>
      <use x="360.791016" xlink:href="#DejaVuSans-6e"/>
     </g>
    </g>
   </g>
   <g id="matplotlib.axis_2">
    <g id="ytick_1">
     <g id="line2d_13">
      <path clip-path="url(#p5a0d38d7c7)" d="M 72 378.100714 
L 518.4 378.100714 
" style="fill:none;stroke:#b0b0b0;stroke-dasharray:5.12,1.28,0.8,1.28;stroke-dashoffset:0;stroke-width:0.8;"/>
     </g>
     <g id="line2d_14">
      <defs>
       <path d="M 0 0 
L -3.5 0 
" id="ma81a673e9f" style="stroke:#000000;stroke-width:0.8;"/>
      </defs>
      <g>
       <use style="stroke:#000000;stroke-width:0.8;" x="72" xlink:href="#ma81a673e9f" y="378.100714"/>
      </g>
     </g>
     <g id="text_8">
      <!-- −1500 -->
      <defs>
       <path d="M 10.59375 35.5 
L 73.1875 35.5 
L 73.1875 27.203125 
L 10.59375 27.203125 
z
" id="DejaVuSans-2212"/>
      </defs>
      <g transform="translate(31.170313 381.899933)scale(0.1 -0.1)">
       <use xlink:href="#DejaVuSans-2212"/>
       <use x="83.789062" xlink:href="#DejaVuSans-31"/>
       <use x="147.412109" xlink:href="#DejaVuSans-35"/>
       <use x="211.035156" xlink:href="#DejaVuSans-30"/>
       <use x="274.658203" xlink:href="#DejaVuSans-30"/>
      </g>
     </g>
    </g>
    <g id="ytick_2">
     <g id="line2d_15">
      <path clip-path="url(#p5a0d38d7c7)" d="M 72 323.700345 
L 518.4 323.700345 
" style="fill:none;stroke:#b0b0b0;stroke-dasharray:5.12,1.28,0.8,1.28;stroke-dashoffset:0;stroke-width:0.8;"/>
     </g>
     <g id="line2d_16">
      <g>
       <use style="stroke:#000000;stroke-width:0.8;" x="72" xlink:href="#ma81a673e9f" y="323.700345"/>
      </g>
     </g>
     <g id="text_9">
      <!-- −1000 -->
      <g transform="translate(31.170313 327.499564)scale(0.1 -0.1)">
       <use xlink:href="#DejaVuSans-2212"/>
       <use x="83.789062" xlink:href="#DejaVuSans-31"/>
       <use x="147.412109" xlink:href="#DejaVuSans-30"/>
       <use x="211.035156" xlink:href="#DejaVuSans-30"/>
       <use x="274.658203" xlink:href="#DejaVuSans-30"/>
      </g>
     </g>
    </g>
    <g id="ytick_3">
     <g id="line2d_17">
      <path clip-path="url(#p5a0d38d7c7)" d="M 72 269.299976 
L 518.4 269.299976 
" style="fill:none;stroke:#b0b0b0;stroke-dasharray:5.12,1.28,0.8,1.28;stroke-dashoffset:0;stroke-width:0.8;"/>
     </g>
     <g id="line2d_18">
      <g>
       <use style="stroke:#000000;stroke-width:0.8;" x="72" xlink:href="#ma81a673e9f" y="269.299976"/>
      </g>
     </g>
     <g id="text_10">
      <!-- −500 -->
      <g transform="translate(37.532812 273.099194)scale(0.1 -0.1)">
       <use xlink:href="#DejaVuSans-2212"/>
       <use x="83.789062" xlink:href="#DejaVuSans-35"/>
       <use x="147.412109" xlink:href="#DejaVuSans-30"/>
       <use x="211.035156" xlink:href="#DejaVuSans-30"/>
      </g>
     </g>
    </g>
    <g id="ytick_4">
     <g id="line2d_19">
      <path clip-path="url(#p5a0d38d7c7)" d="M 72 214.899606 
L 518.4 214.899606 
" style="fill:none;stroke:#b0b0b0;stroke-dasharray:5.12,1.28,0.8,1.28;stroke-dashoffset:0;stroke-width:0.8;"/>
     </g>
     <g id="line2d_20">
      <g>
       <use style="stroke:#000000;stroke-width:0.8;" x="72" xlink:href="#ma81a673e9f" y="214.899606"/>
      </g>
     </g>
     <g id="text_11">
      <!-- 0 -->
      <g transform="translate(58.6375 218.698825)scale(0.1 -0.1)">
       <use xlink:href="#DejaVuSans-30"/>
      </g>
     </g>
    </g>
    <g id="ytick_5">
     <g id="line2d_21">
      <path clip-path="url(#p5a0d38d7c7)" d="M 72 160.499237 
L 518.4 160.499237 
" style="fill:none;stroke:#b0b0b0;stroke-dasharray:5.12,1.28,0.8,1.28;stroke-dashoffset:0;stroke-width:0.8;"/>
     </g>
     <g id="line2d_22">
      <g>
       <use style="stroke:#000000;stroke-width:0.8;" x="72" xlink:href="#ma81a673e9f" y="160.499237"/>
      </g>
     </g>
     <g id="text_12">
      <!-- 500 -->
      <g transform="translate(45.9125 164.298456)scale(0.1 -0.1)">
       <use xlink:href="#DejaVuSans-35"/>
       <use x="63.623047" xlink:href="#DejaVuSans-30"/>
       <use x="127.246094" xlink:href="#DejaVuSans-30"/>
      </g>
     </g>
    </g>
    <g id="ytick_6">
     <g id="line2d_23">
      <path clip-path="url(#p5a0d38d7c7)" d="M 72 106.098868 
L 518.4 106.098868 
" style="fill:none;stroke:#b0b0b0;stroke-dasharray:5.12,1.28,0.8,1.28;stroke-dashoffset:0;stroke-width:0.8;"/>
     </g>
     <g id="line2d_24">
      <g>
       <use style="stroke:#000000;stroke-width:0.8;" x="72" xlink:href="#ma81a673e9f" y="106.098868"/>
      </g>
     </g>
     <g id="text_13">
      <!-- 1000 -->
      <g transform="translate(39.55 109.898087)scale(0.1 -0.1)">
       <use xlink:href="#DejaVuSans-31"/>
       <use x="63.623047" xlink:href="#DejaVuSans-30"/>
       <use x="127.246094" xlink:href="#DejaVuSans-30"/>
       <use x="190.869141" xlink:href="#DejaVuSans-30"/>
      </g>
     </g>
    </g>
    <g id="ytick_7">
     <g id="line2d_25">
      <path clip-path="url(#p5a0d38d7c7)" d="M 72 51.698499 
L 518.4 51.698499 
" style="fill:none;stroke:#b0b0b0;stroke-dasharray:5.12,1.28,0.8,1.28;stroke-dashoffset:0;stroke-width:0.8;"/>
     </g>
     <g id="line2d_26">
      <g>
       <use style="stroke:#000000;stroke-width:0.8;" x="72" xlink:href="#ma81a673e9f" y="51.698499"/>
      </g>
     </g>
     <g id="text_14">
      <!-- 1500 -->
      <g transform="translate(39.55 55.497717)scale(0.1 -0.1)">
       <use xlink:href="#DejaVuSans-31"/>
       <use x="63.623047" xlink:href="#DejaVuSans-35"/>
       <use x="127.246094" xlink:href="#DejaVuSans-30"/>
       <use x="190.869141" xlink:href="#DejaVuSans-30"/>
      </g>
     </g>
    </g>
    <g id="text_15">
     <!-- $\partial \mathcal{L}/ \partial u_{m}[m.u/V]$ -->
     <defs>
      <path d="M 21.34375 -1.421875 
Q 14.453125 -1.421875 9.96875 2.734375 
Q 4.640625 7.671875 4.640625 16.609375 
Q 4.640625 25.875 9.328125 33.109375 
Q 14.15625 40.53125 22.859375 40.53125 
Q 28.5625 40.53125 33.0625 36.96875 
Q 35.6875 34.859375 37.5 31.34375 
Q 38.140625 35.296875 38.140625 39.796875 
Q 38.140625 46.390625 36.578125 50.203125 
Q 33.109375 58.640625 23.921875 58.640625 
Q 20.453125 58.640625 15.09375 56.5 
L 15.09375 64.703125 
Q 20.75 66.21875 25.828125 66.21875 
Q 38.921875 66.21875 44.484375 54.203125 
Q 47.078125 48.53125 47.078125 40.09375 
Q 47.078125 34.578125 45.84375 28.171875 
Q 42.78125 12.15625 34.8125 4.546875 
Q 28.5625 -1.421875 21.34375 -1.421875 
z
M 12.984375 15.140625 
Q 12.984375 10.25 15.140625 7.625 
Q 17.4375 4.828125 20.953125 4.828125 
Q 24.078125 4.828125 26.5625 7.03125 
Q 30.078125 10.0625 32.671875 14.984375 
Q 34.8125 19.046875 35.890625 23.390625 
Q 31.546875 33.890625 24.03125 33.890625 
Q 17.578125 33.890625 14.75 25.390625 
Q 12.984375 20.125 12.984375 15.140625 
z
" id="DejaVuSans-2202"/>
      <path d="M 63.59375 14.296875 
L 65.296875 12.5 
Q 52.296875 -0.703125 37.703125 -0.703125 
Q 33.703125 -0.703125 28.90625 0.40625 
Q 21.796875 1.90625 17.90625 1.90625 
Q 15.703125 1.90625 10.5 0.953125 
Q 5.296875 0 3 0 
L 3.59375 2.40625 
Q 9.09375 2.40625 11.40625 11.703125 
L 18.40625 40.09375 
Q 20.09375 47 23.6875 52.390625 
Q 27.296875 57.796875 31.640625 60.84375 
Q 36 63.90625 40.390625 65.453125 
Q 44.796875 67 48.796875 67 
Q 53.796875 67 56.140625 63.796875 
Q 58.5 60.59375 58.5 56 
Q 58.5 52.296875 56.140625 50 
Q 53.796875 47.703125 50.40625 47.703125 
Q 48.203125 47.703125 46.796875 49.203125 
Q 45.40625 50.703125 45.40625 52.796875 
Q 45.40625 54.40625 46.203125 55.5 
Q 47 56.59375 47.890625 56.9375 
Q 48.796875 57.296875 49.59375 57.890625 
Q 50.40625 58.5 50.40625 59.203125 
Q 50.40625 63 44.59375 63 
Q 39.40625 63 36.09375 59.140625 
Q 32.796875 55.296875 31.09375 48.9375 
Q 29.40625 42.59375 28.046875 35.6875 
Q 26.703125 28.796875 24.203125 21.296875 
Q 21.703125 13.796875 18.09375 9.203125 
L 18.09375 8.796875 
Q 21.296875 11 29.5 11 
Q 34.796875 11 38.4375 8.5 
Q 42.09375 6 46.296875 6 
Q 54.796875 6 63.59375 14.296875 
z
" id="STIXNonUnicode-Italic-e238"/>
      <path d="M 25.390625 72.90625 
L 33.6875 72.90625 
L 8.296875 -9.28125 
L 0 -9.28125 
z
" id="DejaVuSans-2f"/>
      <path d="M 6.6875 21.6875 
L 13.09375 54.6875 
L 22.125 54.6875 
L 15.71875 22.015625 
Q 15.234375 19.625 15.015625 17.921875 
Q 14.796875 16.21875 14.796875 15.09375 
Q 14.796875 10.9375 17.328125 8.65625 
Q 19.875 6.390625 24.515625 6.390625 
Q 31.734375 6.390625 37 11.265625 
Q 42.28125 16.15625 43.890625 24.421875 
L 49.90625 54.6875 
L 58.890625 54.6875 
L 48.296875 0 
L 39.3125 0 
L 41.109375 8.59375 
Q 37.3125 3.8125 32.0625 1.1875 
Q 26.8125 -1.421875 20.90625 -1.421875 
Q 13.71875 -1.421875 9.71875 2.515625 
Q 5.71875 6.453125 5.71875 13.484375 
Q 5.71875 14.9375 5.953125 17.140625 
Q 6.203125 19.34375 6.6875 21.6875 
z
" id="DejaVuSans-Oblique-75"/>
      <path d="M 89.796875 33.015625 
L 83.40625 0 
L 74.421875 0 
L 80.71875 32.71875 
Q 81.109375 34.8125 81.296875 36.328125 
Q 81.5 37.84375 81.5 38.921875 
Q 81.5 43.3125 79.046875 45.75 
Q 76.609375 48.1875 72.21875 48.1875 
Q 65.671875 48.1875 60.546875 43.28125 
Q 55.421875 38.375 53.90625 30.515625 
L 47.90625 0 
L 38.921875 0 
L 45.3125 32.71875 
Q 45.703125 34.515625 45.890625 36.046875 
Q 46.09375 37.59375 46.09375 38.8125 
Q 46.09375 43.265625 43.65625 45.71875 
Q 41.21875 48.1875 36.921875 48.1875 
Q 30.28125 48.1875 25.140625 43.28125 
Q 20.015625 38.375 18.5 30.515625 
L 12.5 0 
L 3.515625 0 
L 14.203125 54.6875 
L 23.1875 54.6875 
L 21.484375 46.1875 
Q 25.140625 50.984375 30.046875 53.484375 
Q 34.96875 56 40.578125 56 
Q 46.53125 56 50.359375 52.875 
Q 54.203125 49.75 54.984375 44.1875 
Q 59.078125 49.953125 64.46875 52.96875 
Q 69.875 56 75.875 56 
Q 82.90625 56 86.734375 51.953125 
Q 90.578125 47.90625 90.578125 40.484375 
Q 90.578125 38.875 90.375 36.9375 
Q 90.1875 35.015625 89.796875 33.015625 
z
" id="DejaVuSans-Oblique-6d"/>
      <path d="M 8.59375 75.984375 
L 29.296875 75.984375 
L 29.296875 69 
L 17.578125 69 
L 17.578125 -6.203125 
L 29.296875 -6.203125 
L 29.296875 -13.1875 
L 8.59375 -13.1875 
z
" id="DejaVuSans-5b"/>
      <path d="M 10.6875 12.40625 
L 21 12.40625 
L 21 0 
L 10.6875 0 
z
" id="DejaVuSans-2e"/>
      <path d="M 20.609375 0 
L 7.8125 72.90625 
L 17.484375 72.90625 
L 28.078125 10.203125 
L 63.484375 72.90625 
L 74.21875 72.90625 
L 32.078125 0 
z
" id="DejaVuSans-Oblique-56"/>
      <path d="M 30.421875 75.984375 
L 30.421875 -13.1875 
L 9.71875 -13.1875 
L 9.71875 -6.203125 
L 21.390625 -6.203125 
L 21.390625 69 
L 9.71875 69 
L 9.71875 75.984375 
z
" id="DejaVuSans-5d"/>
     </defs>
     <g transform="translate(24.25875 269.47)rotate(-90)scale(0.14 -0.14)">
      <use transform="translate(0 0.015625)" xlink:href="#DejaVuSans-2202"/>
      <use transform="translate(51.708984 0.015625)" xlink:href="#STIXNonUnicode-Italic-e238"/>
      <use transform="translate(121.008972 0.015625)" xlink:href="#DejaVuSans-2f"/>
      <use transform="translate(154.700378 0.015625)" xlink:href="#DejaVuSans-2202"/>
      <use transform="translate(206.409363 0.015625)" xlink:href="#DejaVuSans-Oblique-75"/>
      <use transform="translate(269.788269 -16.390625)scale(0.7)" xlink:href="#DejaVuSans-Oblique-6d"/>
      <use transform="translate(340.711121 0.015625)" xlink:href="#DejaVuSans-5b"/>
      <use transform="translate(379.724792 0.015625)" xlink:href="#DejaVuSans-Oblique-6d"/>
      <use transform="translate(477.136902 0.015625)" xlink:href="#DejaVuSans-2e"/>
      <use transform="translate(528.406433 0.015625)" xlink:href="#DejaVuSans-Oblique-75"/>
      <use transform="translate(591.785339 0.015625)" xlink:href="#DejaVuSans-2f"/>
      <use transform="translate(625.476746 0.015625)" xlink:href="#DejaVuSans-Oblique-56"/>
      <use transform="translate(693.884949 0.015625)" xlink:href="#DejaVuSans-5d"/>
     </g>
    </g>
   </g>
   <g id="line2d_27">
    <path clip-path="url(#p5a0d38d7c7)" d="M 92.290909 214.899606 
L 93.888618 214.899606 
L 94.687473 233.939736 
L 95.486328 246.137321 
L 96.285183 253.914202 
L 97.084037 257.364023 
L 97.882892 258.093521 
L 98.681747 257.339249 
L 99.480601 255.851747 
L 103.474875 246.958462 
L 105.072584 244.143558 
L 106.670293 241.872038 
L 108.268003 240.078143 
L 109.865712 238.681979 
L 111.463422 237.606582 
L 113.061131 236.784429 
L 114.65884 236.159282 
L 117.055404 235.494346 
L 119.451969 235.058436 
L 122.647387 234.702744 
L 126.641661 234.46706 
L 127.440515 246.446718 
L 128.23937 271.348432 
L 129.038225 290.007955 
L 129.837079 304.56087 
L 130.635934 316.286064 
L 131.434789 325.950333 
L 132.233644 334.020661 
L 133.032498 340.791341 
L 133.831353 346.458119 
L 134.630208 351.160476 
L 135.429062 355.005396 
L 136.227917 358.080421 
L 137.026772 360.46085 
L 137.825626 362.21363 
L 138.624481 363.399482 
L 139.423336 364.074047 
L 140.22219 364.288623 
L 141.021045 364.090541 
L 141.8199 363.523504 
L 142.618754 362.62778 
L 143.417609 361.44047 
L 145.015319 358.32458 
L 146.613028 354.415707 
L 148.210737 349.914305 
L 150.607301 342.406793 
L 154.601575 328.895003 
L 160.193558 309.960465 
L 160.992412 270.725526 
L 161.791267 254.457945 
L 162.590122 246.059626 
L 163.388976 241.174604 
L 164.187831 238.092725 
L 164.986686 236.048653 
L 165.78554 234.651271 
L 166.584395 233.677308 
L 167.38325 232.988991 
L 168.182105 232.496973 
L 169.779814 231.882194 
L 171.377523 231.548187 
L 173.774087 231.294964 
L 177.768361 231.128966 
L 187.354617 231.035833 
L 230.49277 231.01824 
L 371.091195 231.018229 
L 371.89005 230.58406 
L 372.688905 229.724686 
L 374.286614 227.36742 
L 376.683178 223.662744 
L 378.280888 221.490712 
L 379.878597 219.621123 
L 381.476306 218.040597 
L 383.074016 216.720311 
L 384.671725 215.628506 
L 386.269435 214.734675 
L 388.665999 213.705203 
L 391.062563 212.978294 
L 393.459127 212.487374 
L 396.654545 212.108421 
L 399.849964 211.95548 
L 403.844238 211.973138 
L 410.235075 212.265595 
L 440.591553 214.010106 
L 454.172083 214.410982 
L 471.746886 214.682494 
L 490.919399 214.812076 
L 490.919399 214.812076 
" style="fill:none;stroke:#bf00bf;stroke-linecap:square;stroke-width:1.5;"/>
   </g>
   <g id="line2d_28">
    <path clip-path="url(#p5a0d38d7c7)" d="M 92.290909 214.899606 
L 94.687473 214.899606 
L 95.486328 193.479461 
L 96.285183 184.963464 
L 97.084037 178.359738 
L 97.882892 174.121449 
L 98.681747 171.155562 
L 101.877165 161.617089 
L 104.273729 154.944274 
L 105.871439 151.174731 
L 107.469148 148.069047 
L 109.066858 145.592372 
L 110.664567 143.658417 
L 112.262276 142.168663 
L 113.859986 141.031195 
L 115.457695 140.167741 
L 117.055404 139.514763 
L 119.451969 138.823595 
L 121.848533 138.372268 
L 125.043951 138.004967 
L 126.641661 137.886614 
L 127.440515 121.826036 
L 128.23937 90.074347 
L 129.038225 74.830776 
L 129.837079 68.528526 
L 130.635934 66.96 
L 131.434789 67.808091 
L 132.233644 69.824832 
L 133.831353 75.085141 
L 137.825626 88.590903 
L 145.015319 111.710625 
L 149.808447 126.549207 
L 153.003865 135.857915 
L 156.199284 144.540628 
L 159.394703 152.525481 
L 160.193558 154.408866 
L 160.992412 205.140289 
L 161.791267 213.39623 
L 162.590122 211.978491 
L 164.187831 205.162691 
L 164.986686 202.295585 
L 165.78554 199.968663 
L 166.584395 198.100054 
L 167.38325 196.597396 
L 168.182105 195.381787 
L 169.779814 193.577088 
L 171.377523 192.342515 
L 172.975233 191.476026 
L 174.572942 190.855731 
L 176.969506 190.227255 
L 179.36607 189.830088 
L 182.561489 189.513184 
L 187.354617 189.279785 
L 195.343164 189.150236 
L 216.912241 189.110643 
L 371.091195 189.109806 
L 371.89005 187.373096 
L 373.487759 182.758987 
L 375.085469 179.002587 
L 375.884324 177.542818 
L 376.683178 176.334684 
L 377.482033 175.353356 
L 378.280888 174.575735 
L 379.079742 173.981117 
L 379.878597 173.551039 
L 380.677452 173.268995 
L 381.476306 173.120112 
L 383.074016 173.16917 
L 384.671725 173.604156 
L 386.269435 174.346351 
L 387.867144 175.329626 
L 390.263708 177.137427 
L 393.459127 179.944181 
L 400.648819 186.791567 
L 405.441947 191.162081 
L 409.43622 194.489447 
L 413.430494 197.476757 
L 416.625913 199.613614 
L 419.821331 201.530639 
L 423.815605 203.634693 
L 427.809878 205.440622 
L 431.804152 206.980044 
L 435.798425 208.285033 
L 440.591553 209.584625 
L 445.384681 210.639165 
L 450.976664 211.616207 
L 456.568647 212.374646 
L 462.959485 213.033315 
L 470.948031 213.623678 
L 480.534288 214.093317 
L 492.517108 214.446604 
L 498.109091 214.55374 
L 498.109091 214.55374 
" style="fill:none;stroke:#00bfbf;stroke-linecap:square;stroke-width:1.5;"/>
   </g>
   <g id="line2d_29">
    <path clip-path="url(#p5a0d38d7c7)" d="M 92.290909 214.899606 
L 93.888618 214.899606 
L 94.687473 233.939736 
L 95.486328 289.275117 
L 96.285183 306.781242 
L 97.084037 319.523136 
L 97.882892 328.348334 
L 98.681747 334.637191 
L 99.480601 339.376888 
L 100.279456 343.163339 
L 101.877165 349.075169 
L 103.474875 353.636552 
L 105.072584 357.259476 
L 106.670293 360.129976 
L 108.268003 362.379932 
L 109.865712 364.124204 
L 111.463422 365.464303 
L 113.061131 366.486855 
L 114.65884 367.263268 
L 117.055404 368.087989 
L 119.451969 368.628043 
L 122.647387 369.068381 
L 126.641661 369.36 
L 127.440515 365.393952 
L 128.23937 353.13905 
L 130.635934 312.093471 
L 132.233644 289.598646 
L 133.831353 271.300255 
L 135.429062 256.471574 
L 137.026772 244.459973 
L 138.624481 234.743055 
L 140.22219 226.905594 
L 141.8199 220.613865 
L 143.417609 215.596475 
L 145.015319 211.630721 
L 146.613028 208.532685 
L 148.210737 206.149884 
L 149.808447 204.35552 
L 151.406156 203.043949 
L 153.003865 202.127118 
L 154.601575 201.531608 
L 156.199284 201.196208 
L 157.796994 201.069923 
L 160.193558 201.181857 
L 160.992412 213.539303 
L 161.791267 223.275044 
L 162.590122 229.895808 
L 163.388976 234.376832 
L 164.187831 237.489936 
L 164.986686 239.713725 
L 165.78554 241.338937 
L 166.584395 242.54854 
L 167.38325 243.462662 
L 168.182105 244.163001 
L 169.779814 245.133297 
L 171.377523 245.744975 
L 173.774087 246.296779 
L 176.969506 246.687429 
L 180.96378 246.923363 
L 188.153472 247.078926 
L 204.92942 247.134023 
L 370.292341 247.136863 
L 371.091195 240.190055 
L 371.89005 235.169967 
L 372.688905 232.01764 
L 373.487759 229.752626 
L 375.085469 226.385613 
L 376.683178 223.7344 
L 378.280888 221.50862 
L 379.878597 219.625595 
L 381.476306 218.041706 
L 383.074016 216.720593 
L 384.671725 215.628571 
L 386.269435 214.734697 
L 388.665999 213.705203 
L 391.062563 212.978294 
L 393.459127 212.487374 
L 396.654545 212.108421 
L 399.849964 211.95548 
L 403.844238 211.973138 
L 410.235075 212.265595 
L 440.591553 214.010106 
L 454.172083 214.410982 
L 471.746886 214.682494 
L 498.109091 214.837557 
L 498.109091 214.837557 
" style="fill:none;stroke:#ff0000;stroke-linecap:square;stroke-width:1.5;"/>
   </g>
   <g id="line2d_30">
    <path clip-path="url(#p5a0d38d7c7)" d="M 92.290909 214.899606 
L 94.687473 214.899606 
L 95.486328 200.619509 
L 97.084037 194.634609 
L 97.882892 193.708149 
L 98.681747 194.469417 
L 99.480601 196.380361 
L 101.078311 201.909951 
L 103.474875 210.804553 
L 105.072584 215.904751 
L 106.670293 220.097213 
L 108.268003 223.430792 
L 109.865712 226.028399 
L 111.463422 228.026774 
L 113.061131 229.551497 
L 114.65884 230.708506 
L 116.25655 231.583307 
L 117.854259 232.243151 
L 120.250823 232.940238 
L 122.647387 233.394796 
L 125.842806 233.764447 
L 127.440515 233.883507 
L 128.23937 232.930587 
L 129.038225 229.399894 
L 129.837079 224.128738 
L 132.233644 206.233105 
L 133.831353 196.287151 
L 135.429062 188.643888 
L 136.227917 185.608097 
L 137.026772 183.031957 
L 137.825626 180.866877 
L 138.624481 179.067443 
L 139.423336 177.592312 
L 140.22219 176.404382 
L 141.021045 175.47061 
L 141.8199 174.761665 
L 142.618754 174.251498 
L 143.417609 173.917001 
L 144.216464 173.737643 
L 145.015319 173.695124 
L 146.613028 173.957138 
L 148.210737 174.592273 
L 149.808447 175.511748 
L 152.205011 177.271546 
L 155.400429 180.054342 
L 160.992412 185.350359 
L 161.791267 189.170168 
L 163.388976 198.175257 
L 164.187831 201.760416 
L 164.986686 204.611898 
L 165.78554 206.848972 
L 166.584395 208.603667 
L 167.38325 209.988504 
L 168.182105 211.0912 
L 168.980959 211.97786 
L 170.578669 213.287473 
L 172.176378 214.179998 
L 173.774087 214.805341 
L 176.170651 215.427823 
L 178.567215 215.815915 
L 181.762634 216.123038 
L 186.555762 216.348049 
L 195.343164 216.477815 
L 220.906514 216.51113 
L 371.091195 216.511468 
L 372.688905 226.789166 
L 374.286614 234.781929 
L 375.884324 240.913689 
L 377.482033 245.646891 
L 379.079742 249.218047 
L 379.878597 250.624971 
L 380.677452 251.80646 
L 381.476306 252.781216 
L 382.275161 253.566736 
L 383.074016 254.179458 
L 383.87287 254.634702 
L 384.671725 254.946786 
L 385.47058 255.129028 
L 387.068289 255.152572 
L 388.665999 254.793834 
L 390.263708 254.12855 
L 391.861417 253.221163 
L 394.257981 251.523219 
L 397.4534 248.853042 
L 403.045383 243.734119 
L 408.637366 238.716991 
L 412.631639 235.426748 
L 416.625913 232.455334 
L 419.821331 230.321339 
L 423.01675 228.40156 
L 427.011024 226.289216 
L 431.005297 224.472102 
L 434.999571 222.920353 
L 438.993844 221.603016 
L 443.786972 220.289432 
L 448.5801 219.222314 
L 454.172083 218.232652 
L 459.764066 217.463768 
L 466.154903 216.795557 
L 474.14345 216.19625 
L 483.729707 215.719224 
L 495.712527 215.360214 
L 498.109091 215.309948 
L 498.109091 215.309948 
" style="fill:none;stroke:#008000;stroke-linecap:square;stroke-width:1.5;"/>
   </g>
   <g id="patch_3">
    <path d="M 72 384.48 
L 72 51.84 
" style="fill:none;stroke:#000000;stroke-linecap:square;stroke-linejoin:miter;stroke-width:0.8;"/>
   </g>
   <g id="patch_4">
    <path d="M 518.4 384.48 
L 518.4 51.84 
" style="fill:none;stroke:#000000;stroke-linecap:square;stroke-linejoin:miter;stroke-width:0.8;"/>
   </g>
   <g id="patch_5">
    <path d="M 72 384.48 
L 518.4 384.48 
" style="fill:none;stroke:#000000;stroke-linecap:square;stroke-linejoin:miter;stroke-width:0.8;"/>
   </g>
   <g id="patch_6">
    <path d="M 72 51.84 
L 518.4 51.84 
" style="fill:none;stroke:#000000;stroke-linecap:square;stroke-linejoin:miter;stroke-width:0.8;"/>
   </g>
   <g id="text_16">
    <!-- $\partial\mathcal{L} / \partial u_{m}$ -->
    <g transform="translate(271.33 45.84)scale(0.14 -0.14)">
     <use transform="translate(0 0.09375)" xlink:href="#DejaVuSans-2202"/>
     <use transform="translate(51.708984 0.09375)" xlink:href="#STIXNonUnicode-Italic-e238"/>
     <use transform="translate(121.008972 0.09375)" xlink:href="#DejaVuSans-2f"/>
     <use transform="translate(154.700378 0.09375)" xlink:href="#DejaVuSans-2202"/>
     <use transform="translate(206.409363 0.09375)" xlink:href="#DejaVuSans-Oblique-75"/>
     <use transform="translate(269.788269 -16.3125)scale(0.7)" xlink:href="#DejaVuSans-Oblique-6d"/>
    </g>
   </g>
   <g id="legend_1">
    <g id="patch_7">
     <path d="M 447.6 118.5525 
L 511.4 118.5525 
Q 513.4 118.5525 513.4 116.5525 
L 513.4 58.84 
Q 513.4 56.84 511.4 56.84 
L 447.6 56.84 
Q 445.6 56.84 445.6 58.84 
L 445.6 116.5525 
Q 445.6 118.5525 447.6 118.5525 
z
" style="fill:#ffffff;opacity:0.8;stroke:#cccccc;stroke-linejoin:miter;"/>
    </g>
    <g id="line2d_31">
     <path d="M 449.6 64.938438 
L 469.6 64.938438 
" style="fill:none;stroke:#bf00bf;stroke-linecap:square;stroke-width:1.5;"/>
    </g>
    <g id="line2d_32"/>
    <g id="text_17">
     <!-- $\partial\mathcal{L} / \partial u_{1}$ -->
     <g transform="translate(477.6 68.438438)scale(0.1 -0.1)">
      <use transform="translate(0 0.09375)" xlink:href="#DejaVuSans-2202"/>
      <use transform="translate(51.708984 0.09375)" xlink:href="#STIXNonUnicode-Italic-e238"/>
      <use transform="translate(121.008972 0.09375)" xlink:href="#DejaVuSans-2f"/>
      <use transform="translate(154.700378 0.09375)" xlink:href="#DejaVuSans-2202"/>
      <use transform="translate(206.409363 0.09375)" xlink:href="#DejaVuSans-Oblique-75"/>
      <use transform="translate(269.788269 -16.3125)scale(0.7)" xlink:href="#DejaVuSans-31"/>
     </g>
    </g>
    <g id="line2d_33">
     <path d="M 449.6 79.616563 
L 469.6 79.616563 
" style="fill:none;stroke:#00bfbf;stroke-linecap:square;stroke-width:1.5;"/>
    </g>
    <g id="line2d_34"/>
    <g id="text_18">
     <!-- $\partial\mathcal{L} / \partial u_{2}$ -->
     <g transform="translate(477.6 83.116563)scale(0.1 -0.1)">
      <use transform="translate(0 0.09375)" xlink:href="#DejaVuSans-2202"/>
      <use transform="translate(51.708984 0.09375)" xlink:href="#STIXNonUnicode-Italic-e238"/>
      <use transform="translate(121.008972 0.09375)" xlink:href="#DejaVuSans-2f"/>
      <use transform="translate(154.700378 0.09375)" xlink:href="#DejaVuSans-2202"/>
      <use transform="translate(206.409363 0.09375)" xlink:href="#DejaVuSans-Oblique-75"/>
      <use transform="translate(269.788269 -16.3125)scale(0.7)" xlink:href="#DejaVuSans-32"/>
     </g>
    </g>
    <g id="line2d_35">
     <path d="M 449.6 94.294688 
L 469.6 94.294688 
" style="fill:none;stroke:#ff0000;stroke-linecap:square;stroke-width:1.5;"/>
    </g>
    <g id="line2d_36"/>
    <g id="text_19">
     <!-- $\partial\mathcal{L} / \partial u_{3}$ -->
     <g transform="translate(477.6 97.794688)scale(0.1 -0.1)">
      <use transform="translate(0 0.09375)" xlink:href="#DejaVuSans-2202"/>
      <use transform="translate(51.708984 0.09375)" xlink:href="#STIXNonUnicode-Italic-e238"/>
      <use transform="translate(121.008972 0.09375)" xlink:href="#DejaVuSans-2f"/>
      <use transform="translate(154.700378 0.09375)" xlink:href="#DejaVuSans-2202"/>
      <use transform="translate(206.409363 0.09375)" xlink:href="#DejaVuSans-Oblique-75"/>
      <use transform="translate(269.788269 -16.3125)scale(0.7)" xlink:href="#DejaVuSans-33"/>
     </g>
    </g>
    <g id="line2d_37">
     <path d="M 449.6 108.972813 
L 469.6 108.972813 
" style="fill:none;stroke:#008000;stroke-linecap:square;stroke-width:1.5;"/>
    </g>
    <g id="line2d_38"/>
    <g id="text_20">
     <!-- $\partial\mathcal{L} / \partial u_{4}$ -->
     <g transform="translate(477.6 112.472813)scale(0.1 -0.1)">
      <use transform="translate(0 0.09375)" xlink:href="#DejaVuSans-2202"/>
      <use transform="translate(51.708984 0.09375)" xlink:href="#STIXNonUnicode-Italic-e238"/>
      <use transform="translate(121.008972 0.09375)" xlink:href="#DejaVuSans-2f"/>
      <use transform="translate(154.700378 0.09375)" xlink:href="#DejaVuSans-2202"/>
      <use transform="translate(206.409363 0.09375)" xlink:href="#DejaVuSans-Oblique-75"/>
      <use transform="translate(269.788269 -16.3125)scale(0.7)" xlink:href="#DejaVuSans-34"/>
     </g>
    </g>
   </g>
  </g>
 </g>
 <defs>
  <clipPath id="p5a0d38d7c7">
   <rect height="332.64" width="446.4" x="72" y="51.84"/>
  </clipPath>
 </defs>
</svg>
