<?xml version="1.0" encoding="utf-8" standalone="no"?>
<!DOCTYPE svg PUBLIC "-//W3C//DTD SVG 1.1//EN"
  "http://www.w3.org/Graphics/SVG/1.1/DTD/svg11.dtd">
<!-- Created with matplotlib (http://matplotlib.org/) -->
<svg height="432pt" version="1.1" viewBox="0 0 576 432" width="576pt" xmlns="http://www.w3.org/2000/svg" xmlns:xlink="http://www.w3.org/1999/xlink">
 <defs>
  <style type="text/css">
*{stroke-linecap:butt;stroke-linejoin:round;}
  </style>
 </defs>
 <g id="figure_1">
  <g id="patch_1">
   <path d="M 0 432 
L 576 432 
L 576 0 
L 0 0 
z
" style="fill:#ffffff;"/>
  </g>
  <g id="axes_1">
   <g id="patch_2">
    <path d="M 72 384.48 
L 518.4 384.48 
L 518.4 51.84 
L 72 51.84 
z
" style="fill:#ffffff;"/>
   </g>
   <g id="matplotlib.axis_1">
    <g id="xtick_1">
     <g id="line2d_1">
      <path clip-path="url(#p8d1102d348)" d="M 92.290909 384.48 
L 92.290909 51.84 
" style="fill:none;stroke:#b0b0b0;stroke-dasharray:5.12,1.28,0.8,1.28;stroke-dashoffset:0;stroke-width:0.8;"/>
     </g>
     <g id="line2d_2">
      <defs>
       <path d="M 0 0 
L 0 3.5 
" id="m67fd7c8afd" style="stroke:#000000;stroke-width:0.8;"/>
      </defs>
      <g>
       <use style="stroke:#000000;stroke-width:0.8;" x="92.290909" xlink:href="#m67fd7c8afd" y="384.48"/>
      </g>
     </g>
     <g id="text_1">
      <text style="font-family:DejaVu Sans;font-size:10px;font-style:normal;font-weight:400;text-anchor:middle;" transform="rotate(-0, 92.290909, 399.078438)" x="92.290909" y="399.078438">0</text>
     </g>
    </g>
    <g id="xtick_2">
     <g id="line2d_3">
      <path clip-path="url(#p8d1102d348)" d="M 164.244487 384.48 
L 164.244487 51.84 
" style="fill:none;stroke:#b0b0b0;stroke-dasharray:5.12,1.28,0.8,1.28;stroke-dashoffset:0;stroke-width:0.8;"/>
     </g>
     <g id="line2d_4">
      <g>
       <use style="stroke:#000000;stroke-width:0.8;" x="164.244487" xlink:href="#m67fd7c8afd" y="384.48"/>
      </g>
     </g>
     <g id="text_2">
      <text style="font-family:DejaVu Sans;font-size:10px;font-style:normal;font-weight:400;text-anchor:middle;" transform="rotate(-0, 164.244487, 399.078438)" x="164.244487" y="399.078438">200</text>
     </g>
    </g>
    <g id="xtick_3">
     <g id="line2d_5">
      <path clip-path="url(#p8d1102d348)" d="M 236.198066 384.48 
L 236.198066 51.84 
" style="fill:none;stroke:#b0b0b0;stroke-dasharray:5.12,1.28,0.8,1.28;stroke-dashoffset:0;stroke-width:0.8;"/>
     </g>
     <g id="line2d_6">
      <g>
       <use style="stroke:#000000;stroke-width:0.8;" x="236.198066" xlink:href="#m67fd7c8afd" y="384.48"/>
      </g>
     </g>
     <g id="text_3">
      <text style="font-family:DejaVu Sans;font-size:10px;font-style:normal;font-weight:400;text-anchor:middle;" transform="rotate(-0, 236.198066, 399.078438)" x="236.198066" y="399.078438">400</text>
     </g>
    </g>
    <g id="xtick_4">
     <g id="line2d_7">
      <path clip-path="url(#p8d1102d348)" d="M 308.151644 384.48 
L 308.151644 51.84 
" style="fill:none;stroke:#b0b0b0;stroke-dasharray:5.12,1.28,0.8,1.28;stroke-dashoffset:0;stroke-width:0.8;"/>
     </g>
     <g id="line2d_8">
      <g>
       <use style="stroke:#000000;stroke-width:0.8;" x="308.151644" xlink:href="#m67fd7c8afd" y="384.48"/>
      </g>
     </g>
     <g id="text_4">
      <text style="font-family:DejaVu Sans;font-size:10px;font-style:normal;font-weight:400;text-anchor:middle;" transform="rotate(-0, 308.151644, 399.078438)" x="308.151644" y="399.078438">600</text>
     </g>
    </g>
    <g id="xtick_5">
     <g id="line2d_9">
      <path clip-path="url(#p8d1102d348)" d="M 380.105222 384.48 
L 380.105222 51.84 
" style="fill:none;stroke:#b0b0b0;stroke-dasharray:5.12,1.28,0.8,1.28;stroke-dashoffset:0;stroke-width:0.8;"/>
     </g>
     <g id="line2d_10">
      <g>
       <use style="stroke:#000000;stroke-width:0.8;" x="380.105222" xlink:href="#m67fd7c8afd" y="384.48"/>
      </g>
     </g>
     <g id="text_5">
      <text style="font-family:DejaVu Sans;font-size:10px;font-style:normal;font-weight:400;text-anchor:middle;" transform="rotate(-0, 380.105222, 399.078438)" x="380.105222" y="399.078438">800</text>
     </g>
    </g>
    <g id="xtick_6">
     <g id="line2d_11">
      <path clip-path="url(#p8d1102d348)" d="M 452.058801 384.48 
L 452.058801 51.84 
" style="fill:none;stroke:#b0b0b0;stroke-dasharray:5.12,1.28,0.8,1.28;stroke-dashoffset:0;stroke-width:0.8;"/>
     </g>
     <g id="line2d_12">
      <g>
       <use style="stroke:#000000;stroke-width:0.8;" x="452.058801" xlink:href="#m67fd7c8afd" y="384.48"/>
      </g>
     </g>
     <g id="text_6">
      <text style="font-family:DejaVu Sans;font-size:10px;font-style:normal;font-weight:400;text-anchor:middle;" transform="rotate(-0, 452.058801, 399.078438)" x="452.058801" y="399.078438">1000</text>
     </g>
    </g>
    <g id="text_7">
     <text style="font-family:DejaVu Sans;font-size:14px;font-style:normal;font-weight:400;text-anchor:middle;" transform="rotate(-0, 295.2, 415.795938)" x="295.2" y="415.795938">Iteration</text>
    </g>
   </g>
   <g id="matplotlib.axis_2">
    <g id="ytick_1">
     <g id="line2d_13">
      <path clip-path="url(#p8d1102d348)" d="M 72 349.2 
L 518.4 349.2 
" style="fill:none;stroke:#b0b0b0;stroke-dasharray:5.12,1.28,0.8,1.28;stroke-dashoffset:0;stroke-width:0.8;"/>
     </g>
     <g id="line2d_14">
      <defs>
       <path d="M 0 0 
L -3.5 0 
" id="me33d035638" style="stroke:#000000;stroke-width:0.8;"/>
      </defs>
      <g>
       <use style="stroke:#000000;stroke-width:0.8;" x="72" xlink:href="#me33d035638" y="349.2"/>
      </g>
     </g>
     <g id="text_8">
      <text style="font-family:DejaVu Sans;font-size:10px;font-style:normal;font-weight:400;text-anchor:end;" transform="rotate(-0, 65, 352.999219)" x="65" y="352.999219">−3</text>
     </g>
    </g>
    <g id="ytick_2">
     <g id="line2d_15">
      <path clip-path="url(#p8d1102d348)" d="M 72 305.52 
L 518.4 305.52 
" style="fill:none;stroke:#b0b0b0;stroke-dasharray:5.12,1.28,0.8,1.28;stroke-dashoffset:0;stroke-width:0.8;"/>
     </g>
     <g id="line2d_16">
      <g>
       <use style="stroke:#000000;stroke-width:0.8;" x="72" xlink:href="#me33d035638" y="305.52"/>
      </g>
     </g>
     <g id="text_9">
      <text style="font-family:DejaVu Sans;font-size:10px;font-style:normal;font-weight:400;text-anchor:end;" transform="rotate(-0, 65, 309.319219)" x="65" y="309.319219">−2</text>
     </g>
    </g>
    <g id="ytick_3">
     <g id="line2d_17">
      <path clip-path="url(#p8d1102d348)" d="M 72 261.84 
L 518.4 261.84 
" style="fill:none;stroke:#b0b0b0;stroke-dasharray:5.12,1.28,0.8,1.28;stroke-dashoffset:0;stroke-width:0.8;"/>
     </g>
     <g id="line2d_18">
      <g>
       <use style="stroke:#000000;stroke-width:0.8;" x="72" xlink:href="#me33d035638" y="261.84"/>
      </g>
     </g>
     <g id="text_10">
      <text style="font-family:DejaVu Sans;font-size:10px;font-style:normal;font-weight:400;text-anchor:end;" transform="rotate(-0, 65, 265.639219)" x="65" y="265.639219">−1</text>
     </g>
    </g>
    <g id="ytick_4">
     <g id="line2d_19">
      <path clip-path="url(#p8d1102d348)" d="M 72 218.16 
L 518.4 218.16 
" style="fill:none;stroke:#b0b0b0;stroke-dasharray:5.12,1.28,0.8,1.28;stroke-dashoffset:0;stroke-width:0.8;"/>
     </g>
     <g id="line2d_20">
      <g>
       <use style="stroke:#000000;stroke-width:0.8;" x="72" xlink:href="#me33d035638" y="218.16"/>
      </g>
     </g>
     <g id="text_11">
      <text style="font-family:DejaVu Sans;font-size:10px;font-style:normal;font-weight:400;text-anchor:end;" transform="rotate(-0, 65, 221.959219)" x="65" y="221.959219">0</text>
     </g>
    </g>
    <g id="ytick_5">
     <g id="line2d_21">
      <path clip-path="url(#p8d1102d348)" d="M 72 174.48 
L 518.4 174.48 
" style="fill:none;stroke:#b0b0b0;stroke-dasharray:5.12,1.28,0.8,1.28;stroke-dashoffset:0;stroke-width:0.8;"/>
     </g>
     <g id="line2d_22">
      <g>
       <use style="stroke:#000000;stroke-width:0.8;" x="72" xlink:href="#me33d035638" y="174.48"/>
      </g>
     </g>
     <g id="text_12">
      <text style="font-family:DejaVu Sans;font-size:10px;font-style:normal;font-weight:400;text-anchor:end;" transform="rotate(-0, 65, 178.279219)" x="65" y="178.279219">1</text>
     </g>
    </g>
    <g id="ytick_6">
     <g id="line2d_23">
      <path clip-path="url(#p8d1102d348)" d="M 72 130.8 
L 518.4 130.8 
" style="fill:none;stroke:#b0b0b0;stroke-dasharray:5.12,1.28,0.8,1.28;stroke-dashoffset:0;stroke-width:0.8;"/>
     </g>
     <g id="line2d_24">
      <g>
       <use style="stroke:#000000;stroke-width:0.8;" x="72" xlink:href="#me33d035638" y="130.8"/>
      </g>
     </g>
     <g id="text_13">
      <text style="font-family:DejaVu Sans;font-size:10px;font-style:normal;font-weight:400;text-anchor:end;" transform="rotate(-0, 65, 134.599219)" x="65" y="134.599219">2</text>
     </g>
    </g>
    <g id="ytick_7">
     <g id="line2d_25">
      <path clip-path="url(#p8d1102d348)" d="M 72 87.12 
L 518.4 87.12 
" style="fill:none;stroke:#b0b0b0;stroke-dasharray:5.12,1.28,0.8,1.28;stroke-dashoffset:0;stroke-width:0.8;"/>
     </g>
     <g id="line2d_26">
      <g>
       <use style="stroke:#000000;stroke-width:0.8;" x="72" xlink:href="#me33d035638" y="87.12"/>
      </g>
     </g>
     <g id="text_14">
      <text style="font-family:DejaVu Sans;font-size:10px;font-style:normal;font-weight:400;text-anchor:end;" transform="rotate(-0, 65, 90.919219)" x="65" y="90.919219">3</text>
     </g>
    </g>
    <g id="text_15">
     <text style="font-family:DejaVu Sans;font-size:14px;font-style:normal;font-weight:400;text-anchor:middle;" transform="rotate(-90, 42.956875, 218.16)" x="42.956875" y="218.16">$p_{mn}[W]$</text>
    </g>
    <g id="text_16">
     <text style="font-family:DejaVu Sans;font-size:10px;font-style:normal;font-weight:400;text-anchor:start;" transform="rotate(-0, 72, 48.84)" x="72" y="48.84">1e4</text>
    </g>
   </g>
   <g id="line2d_27">
    <path clip-path="url(#p8d1102d348)" d="M 92.290909 218.16 
L 93.370213 218.16 
L 94.089749 212.0175 
L 94.809284 205.843008 
L 95.52882 201.332609 
L 96.248356 198.162032 
L 96.967892 195.894475 
L 97.687427 194.233216 
L 98.406963 192.993642 
L 99.486267 191.678361 
L 100.565571 190.804931 
L 101.644874 190.221732 
L 103.083946 189.732551 
L 104.882785 189.395192 
L 107.401161 189.179481 
L 111.718375 189.068094 
L 115.675822 189.046467 
L 116.03559 187.226061 
L 117.114894 178.764407 
L 119.993037 155.327694 
L 122.151644 139.536268 
L 122.511412 137.065773 
L 122.87118 137.177823 
L 123.590716 128.968757 
L 125.389555 112.540234 
L 127.188395 98.073174 
L 128.987234 85.328843 
L 130.786074 74.155205 
L 131.505609 71.007334 
L 132.225145 69.236638 
L 132.944681 68.240614 
L 133.664217 67.680348 
L 134.74352 67.263897 
L 136.182592 67.056155 
L 139.060735 66.969626 
L 157.04913 66.96 
L 165.323791 66.96 
L 165.683559 67.120632 
L 166.403095 67.910593 
L 167.122631 69.165483 
L 168.561702 72.307847 
L 171.799613 80.01283 
L 172.878917 83.50996 
L 174.317988 89.075931 
L 176.116828 97.108285 
L 178.635203 109.523108 
L 184.751257 140.116468 
L 187.269632 151.396491 
L 189.42824 160.04594 
L 191.227079 166.438131 
L 193.025919 172.039368 
L 194.824758 176.823464 
L 196.26383 180.055011 
L 197.702901 182.757694 
L 199.141973 184.93718 
L 200.221277 186.234177 
L 201.30058 187.247733 
L 202.379884 187.984287 
L 203.459188 188.451174 
L 204.538491 188.656513 
L 205.617795 188.609126 
L 206.697099 188.318446 
L 207.776402 187.794437 
L 208.855706 187.047522 
L 210.294778 185.723623 
L 211.733849 184.049187 
L 213.172921 182.051458 
L 214.97176 179.141998 
L 216.7706 175.825646 
L 218.929207 171.386305 
L 221.447582 165.691991 
L 224.685493 157.779041 
L 230.082012 143.849638 
L 235.838298 129.132184 
L 239.435977 120.528502 
L 242.31412 114.163166 
L 245.192263 108.355121 
L 247.710638 103.783444 
L 249.869246 100.270103 
L 252.027853 97.145233 
L 254.18646 94.416358 
L 256.345068 92.08551 
L 258.143907 90.44513 
L 259.942747 89.074881 
L 261.741586 87.968472 
L 263.540426 87.117753 
L 265.339265 86.512913 
L 267.138104 86.142675 
L 268.936944 85.994489 
L 270.735783 86.054732 
L 272.534623 86.308892 
L 274.69323 86.848394 
L 276.851838 87.617952 
L 279.370213 88.769277 
L 282.248356 90.364601 
L 285.486267 92.436695 
L 289.803482 95.504621 
L 303.834429 105.738123 
L 307.791876 108.216073 
L 311.389555 110.19102 
L 314.627466 111.714907 
L 317.865377 112.984704 
L 321.103288 113.995744 
L 324.341199 114.750946 
L 327.57911 115.259845 
L 330.817021 115.537554 
L 334.054932 115.603698 
L 337.652611 115.457211 
L 341.610058 115.06929 
L 346.287041 114.370296 
L 352.043327 113.267856 
L 373.269632 108.964589 
L 379.025919 108.139457 
L 384.782205 107.545759 
L 390.538491 107.185787 
L 396.654545 107.039873 
L 403.130368 107.109091 
L 411.045261 107.422106 
L 423.996905 108.195826 
L 438.747389 109.016724 
L 449.180658 109.373681 
L 459.973694 109.513467 
L 472.565571 109.4421 
L 494.87118 109.064112 
L 494.87118 109.064112 
" style="fill:none;stroke:#bf00bf;stroke-linecap:square;stroke-width:1.5;"/>
   </g>
   <g id="line2d_28">
    <path clip-path="url(#p8d1102d348)" d="M 92.290909 218.16 
L 93.370213 218.16 
L 94.089749 224.3025 
L 94.809284 230.476992 
L 95.52882 234.987391 
L 96.248356 238.157968 
L 96.967892 240.425525 
L 97.687427 242.086784 
L 98.406963 243.326358 
L 99.486267 244.641639 
L 100.565571 245.515069 
L 101.644874 246.098268 
L 103.083946 246.587449 
L 104.882785 246.924808 
L 107.401161 247.140519 
L 111.718375 247.251906 
L 115.675822 247.273533 
L 116.03559 249.093939 
L 117.114894 257.555593 
L 119.993037 280.992306 
L 122.151644 296.783732 
L 122.511412 299.254227 
L 122.87118 299.142177 
L 123.590716 307.351243 
L 125.389555 323.779766 
L 127.188395 338.246826 
L 128.987234 350.991157 
L 130.786074 362.164795 
L 131.505609 365.312666 
L 132.225145 367.083362 
L 132.944681 368.079386 
L 133.664217 368.639652 
L 134.74352 369.056103 
L 136.182592 369.263845 
L 139.060735 369.350374 
L 157.04913 369.36 
L 165.323791 369.36 
L 165.683559 369.199368 
L 166.403095 368.409407 
L 167.122631 367.154517 
L 168.561702 364.012153 
L 171.799613 356.30717 
L 172.878917 352.81004 
L 174.317988 347.244069 
L 176.116828 339.211715 
L 178.635203 326.796892 
L 184.751257 296.203532 
L 187.269632 284.923509 
L 189.42824 276.27406 
L 191.227079 269.881869 
L 193.025919 264.280632 
L 194.824758 259.496536 
L 196.26383 256.264989 
L 197.702901 253.562306 
L 199.141973 251.38282 
L 200.221277 250.085823 
L 201.30058 249.072267 
L 202.379884 248.335713 
L 203.459188 247.868826 
L 204.538491 247.663487 
L 205.617795 247.710874 
L 206.697099 248.001554 
L 207.776402 248.525563 
L 208.855706 249.272478 
L 210.294778 250.596377 
L 211.733849 252.270813 
L 213.172921 254.268542 
L 214.97176 257.178002 
L 216.7706 260.494354 
L 218.929207 264.933695 
L 221.447582 270.628009 
L 224.685493 278.540959 
L 230.082012 292.470362 
L 235.838298 307.187816 
L 239.435977 315.791498 
L 242.31412 322.156834 
L 245.192263 327.964879 
L 247.710638 332.536556 
L 249.869246 336.049897 
L 252.027853 339.174767 
L 254.18646 341.903642 
L 256.345068 344.23449 
L 258.143907 345.87487 
L 259.942747 347.245119 
L 261.741586 348.351528 
L 263.540426 349.202247 
L 265.339265 349.807087 
L 267.138104 350.177325 
L 268.936944 350.325511 
L 270.735783 350.265268 
L 272.534623 350.011108 
L 274.69323 349.471606 
L 276.851838 348.702048 
L 279.370213 347.550723 
L 282.248356 345.955399 
L 285.486267 343.883305 
L 289.803482 340.815379 
L 303.834429 330.581877 
L 307.791876 328.103927 
L 311.389555 326.12898 
L 314.627466 324.605093 
L 317.865377 323.335296 
L 321.103288 322.324256 
L 324.341199 321.569054 
L 327.57911 321.060155 
L 330.817021 320.782446 
L 334.054932 320.716302 
L 337.652611 320.862789 
L 341.610058 321.25071 
L 346.287041 321.949704 
L 352.043327 323.052144 
L 373.269632 327.355411 
L 379.025919 328.180543 
L 384.782205 328.774241 
L 390.538491 329.134213 
L 396.654545 329.280127 
L 403.130368 329.210909 
L 411.045261 328.897894 
L 423.996905 328.124174 
L 438.747389 327.303276 
L 449.180658 326.946319 
L 459.973694 326.806533 
L 472.565571 326.8779 
L 498.109091 327.307743 
L 498.109091 327.307743 
" style="fill:none;stroke:#00bfbf;stroke-linecap:square;stroke-width:1.5;"/>
   </g>
   <g id="line2d_29">
    <path clip-path="url(#p8d1102d348)" d="M 92.290909 218.16 
L 93.010445 218.16 
L 93.370213 196.32 
L 93.729981 182.67 
L 94.449516 166.759219 
L 95.169052 157.392839 
L 95.888588 150.925533 
L 96.608124 146.149959 
L 97.32766 142.537649 
L 98.047195 139.782972 
L 98.766731 137.676672 
L 99.486267 136.064722 
L 100.205803 134.830746 
L 101.285106 133.50027 
L 102.36441 132.608968 
L 103.443714 132.011867 
L 104.882785 131.510374 
L 106.681625 131.164357 
L 109.2 130.943082 
L 113.517215 130.828819 
L 116.03559 130.811317 
L 116.395358 130.582453 
L 116.755126 130.088788 
L 117.474662 128.418291 
L 118.194197 126.091779 
L 119.633269 120.381462 
L 122.511412 107.842943 
L 122.87118 103.766604 
L 123.230948 104.211078 
L 123.590716 104.051158 
L 125.749323 103.930221 
L 137.621663 103.92 
L 164.964023 103.92 
L 166.043327 104.508071 
L 169.281238 106.485929 
L 171.439845 107.546266 
L 173.958221 108.528457 
L 176.476596 109.279702 
L 179.354739 109.916953 
L 182.952418 110.463433 
L 186.909865 110.826919 
L 191.586847 111.021461 
L 196.983366 111.016623 
L 203.818956 110.77009 
L 213.532689 110.165507 
L 233.319923 108.886936 
L 243.393424 108.497181 
L 253.466925 108.338107 
L 264.979497 108.388198 
L 283.687427 108.732089 
L 306.352805 109.083593 
L 325.420503 109.136472 
L 444.503675 108.974803 
L 498.109091 108.957195 
L 498.109091 108.957195 
" style="fill:none;stroke:#ff0000;stroke-linecap:square;stroke-width:1.5;"/>
   </g>
   <g id="line2d_30">
    <path clip-path="url(#p8d1102d348)" d="M 92.290909 218.16 
L 93.010445 218.16 
L 93.370213 240 
L 93.729981 253.65 
L 94.449516 269.560781 
L 95.169052 278.927161 
L 95.888588 285.394467 
L 96.608124 290.170041 
L 97.32766 293.782351 
L 98.047195 296.537028 
L 98.766731 298.643328 
L 99.486267 300.255278 
L 100.205803 301.489254 
L 101.285106 302.81973 
L 102.36441 303.711032 
L 103.443714 304.308133 
L 104.882785 304.809626 
L 106.681625 305.155643 
L 109.2 305.376918 
L 113.517215 305.491181 
L 116.03559 305.508683 
L 116.395358 305.737547 
L 116.755126 306.231212 
L 117.474662 307.901709 
L 118.194197 310.228221 
L 119.633269 315.938538 
L 122.511412 328.477057 
L 122.87118 332.553396 
L 123.230948 332.108922 
L 123.590716 332.268842 
L 125.749323 332.389779 
L 137.621663 332.4 
L 164.964023 332.4 
L 166.043327 331.811929 
L 169.281238 329.834071 
L 171.439845 328.773734 
L 173.958221 327.791543 
L 176.476596 327.040298 
L 179.354739 326.403047 
L 182.952418 325.856567 
L 186.909865 325.493081 
L 191.586847 325.298539 
L 196.983366 325.303377 
L 203.818956 325.54991 
L 213.532689 326.154493 
L 233.319923 327.433064 
L 243.393424 327.822819 
L 253.466925 327.981893 
L 264.979497 327.931802 
L 283.687427 327.587911 
L 306.352805 327.236407 
L 325.420503 327.183528 
L 444.503675 327.345197 
L 498.109091 327.362805 
L 498.109091 327.362805 
" style="fill:none;stroke:#008000;stroke-linecap:square;stroke-width:1.5;"/>
   </g>
   <g id="line2d_31">
    <path clip-path="url(#p8d1102d348)" d="M 92.290909 218.16 
L 93.010445 218.16 
L 93.370213 240 
L 93.729981 250.92 
L 94.089749 256.03875 
L 94.449516 258.08625 
L 94.809284 258.528809 
L 95.169052 258.158232 
L 95.888588 256.494139 
L 97.32766 253.034706 
L 98.406963 251.183127 
L 99.486267 249.906028 
L 100.565571 249.04192 
L 101.644874 248.460997 
L 103.083946 247.972439 
L 104.882785 247.635182 
L 107.401161 247.41948 
L 111.718375 247.308094 
L 117.114894 247.176037 
L 117.834429 246.828732 
L 118.553965 246.243283 
L 119.633269 245.036995 
L 121.432108 242.578052 
L 122.87118 240.495227 
L 123.230948 239.660342 
L 123.950484 238.882706 
L 124.670019 238.554404 
L 125.749323 238.382984 
L 128.267698 238.322934 
L 164.604255 238.32 
L 164.964023 239.605058 
L 166.043327 245.475964 
L 168.201934 257.581511 
L 170.000774 266.247638 
L 171.439845 272.206683 
L 172.878917 277.367263 
L 174.317988 281.804468 
L 175.75706 285.60269 
L 177.196132 288.844307 
L 178.635203 291.602371 
L 180.074275 293.939077 
L 181.513346 295.90663 
L 182.952418 297.548746 
L 184.391489 298.902162 
L 185.830561 299.997956 
L 187.269632 300.862655 
L 189.068472 301.653109 
L 190.867311 302.156403 
L 192.666151 302.405493 
L 194.46499 302.429191 
L 196.26383 302.253142 
L 198.422437 301.810738 
L 200.581044 301.150501 
L 203.09942 300.149337 
L 205.977563 298.7601 
L 209.575242 296.752996 
L 214.611992 293.645572 
L 224.685493 287.366637 
L 229.002708 284.97021 
L 232.600387 283.204142 
L 236.198066 281.682499 
L 239.435977 280.538148 
L 242.673888 279.613619 
L 245.911799 278.908282 
L 249.14971 278.415595 
L 252.747389 278.103347 
L 256.345068 278.017479 
L 260.302515 278.152764 
L 264.619729 278.529406 
L 269.65648 279.199681 
L 276.49207 280.358309 
L 293.401161 283.333805 
L 299.876983 284.197191 
L 305.993037 284.789178 
L 312.109091 285.15524 
L 318.584913 285.312524 
L 325.780271 285.253849 
L 334.4147 284.951968 
L 352.403095 284.024087 
L 365.354739 283.489486 
L 376.507544 283.250878 
L 388.739652 283.217312 
L 406.008511 283.418657 
L 437.308317 283.789698 
L 460.333462 283.795434 
L 498.109091 283.654123 
L 498.109091 283.654123 
" style="fill:none;stroke:#0000ff;stroke-linecap:square;stroke-width:1.5;"/>
   </g>
   <g id="line2d_32">
    <path clip-path="url(#p8d1102d348)" d="M 92.290909 218.16 
L 93.010445 218.16 
L 93.370213 196.32 
L 93.729981 185.4 
L 94.089749 180.28125 
L 94.449516 178.23375 
L 94.809284 177.791191 
L 95.169052 178.161768 
L 95.888588 179.825861 
L 97.32766 183.285294 
L 98.406963 185.136873 
L 99.486267 186.413972 
L 100.565571 187.27808 
L 101.644874 187.859003 
L 103.083946 188.347561 
L 104.882785 188.684818 
L 107.401161 188.90052 
L 111.718375 189.011906 
L 117.114894 189.143963 
L 117.834429 189.491268 
L 118.553965 190.076717 
L 119.633269 191.283005 
L 121.432108 193.741948 
L 122.87118 195.824773 
L 123.230948 196.659658 
L 123.950484 197.437294 
L 124.670019 197.765596 
L 125.749323 197.937016 
L 128.267698 197.997066 
L 164.604255 198 
L 164.964023 196.714942 
L 166.043327 190.844036 
L 168.201934 178.738489 
L 170.000774 170.072362 
L 171.439845 164.113317 
L 172.878917 158.952737 
L 174.317988 154.515532 
L 175.75706 150.71731 
L 177.196132 147.475693 
L 178.635203 144.717629 
L 180.074275 142.380923 
L 181.513346 140.41337 
L 182.952418 138.771254 
L 184.391489 137.417838 
L 185.830561 136.322044 
L 187.269632 135.457345 
L 189.068472 134.666891 
L 190.867311 134.163597 
L 192.666151 133.914507 
L 194.46499 133.890809 
L 196.26383 134.066858 
L 198.422437 134.509262 
L 200.581044 135.169499 
L 203.09942 136.170663 
L 205.977563 137.5599 
L 209.575242 139.567004 
L 214.611992 142.674428 
L 224.685493 148.953363 
L 229.002708 151.34979 
L 232.600387 153.115858 
L 236.198066 154.637501 
L 239.435977 155.781852 
L 242.673888 156.706381 
L 245.911799 157.411718 
L 249.14971 157.904405 
L 252.747389 158.216653 
L 256.345068 158.302521 
L 260.302515 158.167236 
L 264.619729 157.790594 
L 269.65648 157.120319 
L 276.49207 155.961691 
L 293.401161 152.986195 
L 299.876983 152.122809 
L 305.993037 151.530822 
L 312.109091 151.16476 
L 318.584913 151.007476 
L 325.780271 151.066151 
L 334.4147 151.368032 
L 352.403095 152.295913 
L 365.354739 152.830514 
L 376.507544 153.069122 
L 388.739652 153.102688 
L 406.008511 152.901343 
L 437.308317 152.530302 
L 460.333462 152.524566 
L 498.109091 152.665877 
L 498.109091 152.665877 
" style="fill:none;stroke:#000000;stroke-linecap:square;stroke-width:1.5;"/>
   </g>
   <g id="patch_3">
    <path d="M 72 384.48 
L 72 51.84 
" style="fill:none;stroke:#000000;stroke-linecap:square;stroke-linejoin:miter;stroke-width:0.8;"/>
   </g>
   <g id="patch_4">
    <path d="M 518.4 384.48 
L 518.4 51.84 
" style="fill:none;stroke:#000000;stroke-linecap:square;stroke-linejoin:miter;stroke-width:0.8;"/>
   </g>
   <g id="patch_5">
    <path d="M 72 384.48 
L 518.4 384.48 
" style="fill:none;stroke:#000000;stroke-linecap:square;stroke-linejoin:miter;stroke-width:0.8;"/>
   </g>
   <g id="patch_6">
    <path d="M 72 51.84 
L 518.4 51.84 
" style="fill:none;stroke:#000000;stroke-linecap:square;stroke-linejoin:miter;stroke-width:0.8;"/>
   </g>
   <g id="legend_1">
    <g id="patch_7">
     <path d="M 429.876562 302.02875 
L 511.4 302.02875 
Q 513.4 302.02875 513.4 300.02875 
L 513.4 136.29125 
Q 513.4 134.29125 511.4 134.29125 
L 429.876562 134.29125 
Q 427.876562 134.29125 427.876562 136.29125 
L 427.876562 300.02875 
Q 427.876562 302.02875 429.876562 302.02875 
z
" style="fill:#ffffff;opacity:0.8;stroke:#cccccc;stroke-linejoin:miter;"/>
    </g>
    <g id="line2d_33">
     <path d="M 431.876562 142.389687 
L 451.876562 142.389687 
" style="fill:none;stroke:#bf00bf;stroke-linecap:square;stroke-width:1.5;"/>
    </g>
    <g id="line2d_34"/>
    <g id="text_17">
     <text style="font-family:DejaVu Sans;font-size:10px;font-style:normal;font-weight:400;text-anchor:start;" transform="rotate(-0, 459.876562, 145.889687)" x="459.876562" y="145.889687">$p_{12}$</text>
    </g>
    <g id="line2d_35">
     <path d="M 431.876562 172.345937 
L 451.876562 172.345937 
" style="fill:none;stroke:#00bfbf;stroke-linecap:square;stroke-width:1.5;"/>
    </g>
    <g id="line2d_36"/>
    <g id="text_18">
     <text style="font-family:DejaVu Sans;font-size:10px;font-style:normal;font-weight:400;text-anchor:start;" transform="rotate(-0, 459.876562, 175.845937)" x="459.876562" y="175.845937">$p_{21}$</text>
    </g>
    <g id="line2d_37">
     <path d="M 431.876562 202.302188 
L 451.876562 202.302188 
" style="fill:none;stroke:#ff0000;stroke-linecap:square;stroke-width:1.5;"/>
    </g>
    <g id="line2d_38"/>
    <g id="text_19">
     <text style="font-family:DejaVu Sans;font-size:10px;font-style:normal;font-weight:400;text-anchor:start;" transform="rotate(-0, 459.876562, 205.802188)" x="459.876562" y="205.802188">$p_{23}$</text>
    </g>
    <g id="line2d_39">
     <path d="M 431.876562 232.258438 
L 451.876562 232.258438 
" style="fill:none;stroke:#008000;stroke-linecap:square;stroke-width:1.5;"/>
    </g>
    <g id="line2d_40"/>
    <g id="text_20">
     <text style="font-family:DejaVu Sans;font-size:10px;font-style:normal;font-weight:400;text-anchor:start;" transform="rotate(-0, 459.876562, 235.758438)" x="459.876562" y="235.758438">$p_{32}$</text>
    </g>
    <g id="line2d_41">
     <path d="M 431.876562 262.214687 
L 451.876562 262.214687 
" style="fill:none;stroke:#0000ff;stroke-linecap:square;stroke-width:1.5;"/>
    </g>
    <g id="line2d_42"/>
    <g id="text_21">
     <text style="font-family:DejaVu Sans;font-size:10px;font-style:normal;font-weight:400;text-anchor:start;" transform="rotate(-0, 459.876562, 265.714687)" x="459.876562" y="265.714687">$p_{34}$</text>
    </g>
    <g id="line2d_43">
     <path d="M 431.876562 292.170937 
L 451.876562 292.170937 
" style="fill:none;stroke:#000000;stroke-linecap:square;stroke-width:1.5;"/>
    </g>
    <g id="line2d_44"/>
    <g id="text_22">
     <text style="font-family:DejaVu Sans;font-size:10px;font-style:normal;font-weight:400;text-anchor:start;" transform="rotate(-0, 459.876562, 295.670937)" x="459.876562" y="295.670937">$p_{43}$</text>
    </g>
   </g>
  </g>
 </g>
 <defs>
  <clipPath id="p8d1102d348">
   <rect height="332.64" width="446.4" x="72" y="51.84"/>
  </clipPath>
 </defs>
</svg>
