<?xml version="1.0" encoding="utf-8" standalone="no"?>
<!DOCTYPE svg PUBLIC "-//W3C//DTD SVG 1.1//EN"
  "http://www.w3.org/Graphics/SVG/1.1/DTD/svg11.dtd">
<!-- Created with matplotlib (http://matplotlib.org/) -->
<svg height="432pt" version="1.1" viewBox="0 0 576 432" width="576pt" xmlns="http://www.w3.org/2000/svg" xmlns:xlink="http://www.w3.org/1999/xlink">
 <defs>
  <style type="text/css">
*{stroke-linecap:butt;stroke-linejoin:round;}
  </style>
 </defs>
 <g id="figure_1">
  <g id="patch_1">
   <path d="M 0 432 
L 576 432 
L 576 0 
L 0 0 
z
" style="fill:#ffffff;"/>
  </g>
  <g id="axes_1">
   <g id="patch_2">
    <path d="M 72 384.48 
L 518.4 384.48 
L 518.4 51.84 
L 72 51.84 
z
" style="fill:#ffffff;"/>
   </g>
   <g id="matplotlib.axis_1">
    <g id="xtick_1">
     <g id="line2d_1">
      <path clip-path="url(#pb78c8c9a7d)" d="M 92.290909 384.48 
L 92.290909 51.84 
" style="fill:none;stroke:#b0b0b0;stroke-dasharray:5.12,1.28,0.8,1.28;stroke-dashoffset:0;stroke-width:0.8;"/>
     </g>
     <g id="line2d_2">
      <defs>
       <path d="M 0 0 
L 0 3.5 
" id="mfbd46bbd86" style="stroke:#000000;stroke-width:0.8;"/>
      </defs>
      <g>
       <use style="stroke:#000000;stroke-width:0.8;" x="92.290909" xlink:href="#mfbd46bbd86" y="384.48"/>
      </g>
     </g>
     <g id="text_1">
      <!-- 0 -->
      <defs>
       <path d="M 31.78125 66.40625 
Q 24.171875 66.40625 20.328125 58.90625 
Q 16.5 51.421875 16.5 36.375 
Q 16.5 21.390625 20.328125 13.890625 
Q 24.171875 6.390625 31.78125 6.390625 
Q 39.453125 6.390625 43.28125 13.890625 
Q 47.125 21.390625 47.125 36.375 
Q 47.125 51.421875 43.28125 58.90625 
Q 39.453125 66.40625 31.78125 66.40625 
z
M 31.78125 74.21875 
Q 44.046875 74.21875 50.515625 64.515625 
Q 56.984375 54.828125 56.984375 36.375 
Q 56.984375 17.96875 50.515625 8.265625 
Q 44.046875 -1.421875 31.78125 -1.421875 
Q 19.53125 -1.421875 13.0625 8.265625 
Q 6.59375 17.96875 6.59375 36.375 
Q 6.59375 54.828125 13.0625 64.515625 
Q 19.53125 74.21875 31.78125 74.21875 
z
" id="DejaVuSans-30"/>
      </defs>
      <g transform="translate(89.109659 399.078438)scale(0.1 -0.1)">
       <use xlink:href="#DejaVuSans-30"/>
      </g>
     </g>
    </g>
    <g id="xtick_2">
     <g id="line2d_3">
      <path clip-path="url(#pb78c8c9a7d)" d="M 155.635665 384.48 
L 155.635665 51.84 
" style="fill:none;stroke:#b0b0b0;stroke-dasharray:5.12,1.28,0.8,1.28;stroke-dashoffset:0;stroke-width:0.8;"/>
     </g>
     <g id="line2d_4">
      <g>
       <use style="stroke:#000000;stroke-width:0.8;" x="155.635665" xlink:href="#mfbd46bbd86" y="384.48"/>
      </g>
     </g>
     <g id="text_2">
      <!-- 2000 -->
      <defs>
       <path d="M 19.1875 8.296875 
L 53.609375 8.296875 
L 53.609375 0 
L 7.328125 0 
L 7.328125 8.296875 
Q 12.9375 14.109375 22.625 23.890625 
Q 32.328125 33.6875 34.8125 36.53125 
Q 39.546875 41.84375 41.421875 45.53125 
Q 43.3125 49.21875 43.3125 52.78125 
Q 43.3125 58.59375 39.234375 62.25 
Q 35.15625 65.921875 28.609375 65.921875 
Q 23.96875 65.921875 18.8125 64.3125 
Q 13.671875 62.703125 7.8125 59.421875 
L 7.8125 69.390625 
Q 13.765625 71.78125 18.9375 73 
Q 24.125 74.21875 28.421875 74.21875 
Q 39.75 74.21875 46.484375 68.546875 
Q 53.21875 62.890625 53.21875 53.421875 
Q 53.21875 48.921875 51.53125 44.890625 
Q 49.859375 40.875 45.40625 35.40625 
Q 44.1875 33.984375 37.640625 27.21875 
Q 31.109375 20.453125 19.1875 8.296875 
z
" id="DejaVuSans-32"/>
      </defs>
      <g transform="translate(142.910665 399.078438)scale(0.1 -0.1)">
       <use xlink:href="#DejaVuSans-32"/>
       <use x="63.623047" xlink:href="#DejaVuSans-30"/>
       <use x="127.246094" xlink:href="#DejaVuSans-30"/>
       <use x="190.869141" xlink:href="#DejaVuSans-30"/>
      </g>
     </g>
    </g>
    <g id="xtick_3">
     <g id="line2d_5">
      <path clip-path="url(#pb78c8c9a7d)" d="M 218.980422 384.48 
L 218.980422 51.84 
" style="fill:none;stroke:#b0b0b0;stroke-dasharray:5.12,1.28,0.8,1.28;stroke-dashoffset:0;stroke-width:0.8;"/>
     </g>
     <g id="line2d_6">
      <g>
       <use style="stroke:#000000;stroke-width:0.8;" x="218.980422" xlink:href="#mfbd46bbd86" y="384.48"/>
      </g>
     </g>
     <g id="text_3">
      <!-- 4000 -->
      <defs>
       <path d="M 37.796875 64.3125 
L 12.890625 25.390625 
L 37.796875 25.390625 
z
M 35.203125 72.90625 
L 47.609375 72.90625 
L 47.609375 25.390625 
L 58.015625 25.390625 
L 58.015625 17.1875 
L 47.609375 17.1875 
L 47.609375 0 
L 37.796875 0 
L 37.796875 17.1875 
L 4.890625 17.1875 
L 4.890625 26.703125 
z
" id="DejaVuSans-34"/>
      </defs>
      <g transform="translate(206.255422 399.078438)scale(0.1 -0.1)">
       <use xlink:href="#DejaVuSans-34"/>
       <use x="63.623047" xlink:href="#DejaVuSans-30"/>
       <use x="127.246094" xlink:href="#DejaVuSans-30"/>
       <use x="190.869141" xlink:href="#DejaVuSans-30"/>
      </g>
     </g>
    </g>
    <g id="xtick_4">
     <g id="line2d_7">
      <path clip-path="url(#pb78c8c9a7d)" d="M 282.325178 384.48 
L 282.325178 51.84 
" style="fill:none;stroke:#b0b0b0;stroke-dasharray:5.12,1.28,0.8,1.28;stroke-dashoffset:0;stroke-width:0.8;"/>
     </g>
     <g id="line2d_8">
      <g>
       <use style="stroke:#000000;stroke-width:0.8;" x="282.325178" xlink:href="#mfbd46bbd86" y="384.48"/>
      </g>
     </g>
     <g id="text_4">
      <!-- 6000 -->
      <defs>
       <path d="M 33.015625 40.375 
Q 26.375 40.375 22.484375 35.828125 
Q 18.609375 31.296875 18.609375 23.390625 
Q 18.609375 15.53125 22.484375 10.953125 
Q 26.375 6.390625 33.015625 6.390625 
Q 39.65625 6.390625 43.53125 10.953125 
Q 47.40625 15.53125 47.40625 23.390625 
Q 47.40625 31.296875 43.53125 35.828125 
Q 39.65625 40.375 33.015625 40.375 
z
M 52.59375 71.296875 
L 52.59375 62.3125 
Q 48.875 64.0625 45.09375 64.984375 
Q 41.3125 65.921875 37.59375 65.921875 
Q 27.828125 65.921875 22.671875 59.328125 
Q 17.53125 52.734375 16.796875 39.40625 
Q 19.671875 43.65625 24.015625 45.921875 
Q 28.375 48.1875 33.59375 48.1875 
Q 44.578125 48.1875 50.953125 41.515625 
Q 57.328125 34.859375 57.328125 23.390625 
Q 57.328125 12.15625 50.6875 5.359375 
Q 44.046875 -1.421875 33.015625 -1.421875 
Q 20.359375 -1.421875 13.671875 8.265625 
Q 6.984375 17.96875 6.984375 36.375 
Q 6.984375 53.65625 15.1875 63.9375 
Q 23.390625 74.21875 37.203125 74.21875 
Q 40.921875 74.21875 44.703125 73.484375 
Q 48.484375 72.75 52.59375 71.296875 
z
" id="DejaVuSans-36"/>
      </defs>
      <g transform="translate(269.600178 399.078438)scale(0.1 -0.1)">
       <use xlink:href="#DejaVuSans-36"/>
       <use x="63.623047" xlink:href="#DejaVuSans-30"/>
       <use x="127.246094" xlink:href="#DejaVuSans-30"/>
       <use x="190.869141" xlink:href="#DejaVuSans-30"/>
      </g>
     </g>
    </g>
    <g id="xtick_5">
     <g id="line2d_9">
      <path clip-path="url(#pb78c8c9a7d)" d="M 345.669935 384.48 
L 345.669935 51.84 
" style="fill:none;stroke:#b0b0b0;stroke-dasharray:5.12,1.28,0.8,1.28;stroke-dashoffset:0;stroke-width:0.8;"/>
     </g>
     <g id="line2d_10">
      <g>
       <use style="stroke:#000000;stroke-width:0.8;" x="345.669935" xlink:href="#mfbd46bbd86" y="384.48"/>
      </g>
     </g>
     <g id="text_5">
      <!-- 8000 -->
      <defs>
       <path d="M 31.78125 34.625 
Q 24.75 34.625 20.71875 30.859375 
Q 16.703125 27.09375 16.703125 20.515625 
Q 16.703125 13.921875 20.71875 10.15625 
Q 24.75 6.390625 31.78125 6.390625 
Q 38.8125 6.390625 42.859375 10.171875 
Q 46.921875 13.96875 46.921875 20.515625 
Q 46.921875 27.09375 42.890625 30.859375 
Q 38.875 34.625 31.78125 34.625 
z
M 21.921875 38.8125 
Q 15.578125 40.375 12.03125 44.71875 
Q 8.5 49.078125 8.5 55.328125 
Q 8.5 64.0625 14.71875 69.140625 
Q 20.953125 74.21875 31.78125 74.21875 
Q 42.671875 74.21875 48.875 69.140625 
Q 55.078125 64.0625 55.078125 55.328125 
Q 55.078125 49.078125 51.53125 44.71875 
Q 48 40.375 41.703125 38.8125 
Q 48.828125 37.15625 52.796875 32.3125 
Q 56.78125 27.484375 56.78125 20.515625 
Q 56.78125 9.90625 50.3125 4.234375 
Q 43.84375 -1.421875 31.78125 -1.421875 
Q 19.734375 -1.421875 13.25 4.234375 
Q 6.78125 9.90625 6.78125 20.515625 
Q 6.78125 27.484375 10.78125 32.3125 
Q 14.796875 37.15625 21.921875 38.8125 
z
M 18.3125 54.390625 
Q 18.3125 48.734375 21.84375 45.5625 
Q 25.390625 42.390625 31.78125 42.390625 
Q 38.140625 42.390625 41.71875 45.5625 
Q 45.3125 48.734375 45.3125 54.390625 
Q 45.3125 60.0625 41.71875 63.234375 
Q 38.140625 66.40625 31.78125 66.40625 
Q 25.390625 66.40625 21.84375 63.234375 
Q 18.3125 60.0625 18.3125 54.390625 
z
" id="DejaVuSans-38"/>
      </defs>
      <g transform="translate(332.944935 399.078438)scale(0.1 -0.1)">
       <use xlink:href="#DejaVuSans-38"/>
       <use x="63.623047" xlink:href="#DejaVuSans-30"/>
       <use x="127.246094" xlink:href="#DejaVuSans-30"/>
       <use x="190.869141" xlink:href="#DejaVuSans-30"/>
      </g>
     </g>
    </g>
    <g id="xtick_6">
     <g id="line2d_11">
      <path clip-path="url(#pb78c8c9a7d)" d="M 409.014691 384.48 
L 409.014691 51.84 
" style="fill:none;stroke:#b0b0b0;stroke-dasharray:5.12,1.28,0.8,1.28;stroke-dashoffset:0;stroke-width:0.8;"/>
     </g>
     <g id="line2d_12">
      <g>
       <use style="stroke:#000000;stroke-width:0.8;" x="409.014691" xlink:href="#mfbd46bbd86" y="384.48"/>
      </g>
     </g>
     <g id="text_6">
      <!-- 10000 -->
      <defs>
       <path d="M 12.40625 8.296875 
L 28.515625 8.296875 
L 28.515625 63.921875 
L 10.984375 60.40625 
L 10.984375 69.390625 
L 28.421875 72.90625 
L 38.28125 72.90625 
L 38.28125 8.296875 
L 54.390625 8.296875 
L 54.390625 0 
L 12.40625 0 
z
" id="DejaVuSans-31"/>
      </defs>
      <g transform="translate(393.108441 399.078438)scale(0.1 -0.1)">
       <use xlink:href="#DejaVuSans-31"/>
       <use x="63.623047" xlink:href="#DejaVuSans-30"/>
       <use x="127.246094" xlink:href="#DejaVuSans-30"/>
       <use x="190.869141" xlink:href="#DejaVuSans-30"/>
       <use x="254.492188" xlink:href="#DejaVuSans-30"/>
      </g>
     </g>
    </g>
    <g id="xtick_7">
     <g id="line2d_13">
      <path clip-path="url(#pb78c8c9a7d)" d="M 472.359447 384.48 
L 472.359447 51.84 
" style="fill:none;stroke:#b0b0b0;stroke-dasharray:5.12,1.28,0.8,1.28;stroke-dashoffset:0;stroke-width:0.8;"/>
     </g>
     <g id="line2d_14">
      <g>
       <use style="stroke:#000000;stroke-width:0.8;" x="472.359447" xlink:href="#mfbd46bbd86" y="384.48"/>
      </g>
     </g>
     <g id="text_7">
      <!-- 12000 -->
      <g transform="translate(456.453197 399.078438)scale(0.1 -0.1)">
       <use xlink:href="#DejaVuSans-31"/>
       <use x="63.623047" xlink:href="#DejaVuSans-32"/>
       <use x="127.246094" xlink:href="#DejaVuSans-30"/>
       <use x="190.869141" xlink:href="#DejaVuSans-30"/>
       <use x="254.492188" xlink:href="#DejaVuSans-30"/>
      </g>
     </g>
    </g>
    <g id="text_8">
     <!-- Iteration -->
     <defs>
      <path d="M 9.8125 72.90625 
L 19.671875 72.90625 
L 19.671875 0 
L 9.8125 0 
z
" id="DejaVuSans-49"/>
      <path d="M 18.3125 70.21875 
L 18.3125 54.6875 
L 36.8125 54.6875 
L 36.8125 47.703125 
L 18.3125 47.703125 
L 18.3125 18.015625 
Q 18.3125 11.328125 20.140625 9.421875 
Q 21.96875 7.515625 27.59375 7.515625 
L 36.8125 7.515625 
L 36.8125 0 
L 27.59375 0 
Q 17.1875 0 13.234375 3.875 
Q 9.28125 7.765625 9.28125 18.015625 
L 9.28125 47.703125 
L 2.6875 47.703125 
L 2.6875 54.6875 
L 9.28125 54.6875 
L 9.28125 70.21875 
z
" id="DejaVuSans-74"/>
      <path d="M 56.203125 29.59375 
L 56.203125 25.203125 
L 14.890625 25.203125 
Q 15.484375 15.921875 20.484375 11.0625 
Q 25.484375 6.203125 34.421875 6.203125 
Q 39.59375 6.203125 44.453125 7.46875 
Q 49.3125 8.734375 54.109375 11.28125 
L 54.109375 2.78125 
Q 49.265625 0.734375 44.1875 -0.34375 
Q 39.109375 -1.421875 33.890625 -1.421875 
Q 20.796875 -1.421875 13.15625 6.1875 
Q 5.515625 13.8125 5.515625 26.8125 
Q 5.515625 40.234375 12.765625 48.109375 
Q 20.015625 56 32.328125 56 
Q 43.359375 56 49.78125 48.890625 
Q 56.203125 41.796875 56.203125 29.59375 
z
M 47.21875 32.234375 
Q 47.125 39.59375 43.09375 43.984375 
Q 39.0625 48.390625 32.421875 48.390625 
Q 24.90625 48.390625 20.390625 44.140625 
Q 15.875 39.890625 15.1875 32.171875 
z
" id="DejaVuSans-65"/>
      <path d="M 41.109375 46.296875 
Q 39.59375 47.171875 37.8125 47.578125 
Q 36.03125 48 33.890625 48 
Q 26.265625 48 22.1875 43.046875 
Q 18.109375 38.09375 18.109375 28.8125 
L 18.109375 0 
L 9.078125 0 
L 9.078125 54.6875 
L 18.109375 54.6875 
L 18.109375 46.1875 
Q 20.953125 51.171875 25.484375 53.578125 
Q 30.03125 56 36.53125 56 
Q 37.453125 56 38.578125 55.875 
Q 39.703125 55.765625 41.0625 55.515625 
z
" id="DejaVuSans-72"/>
      <path d="M 34.28125 27.484375 
Q 23.390625 27.484375 19.1875 25 
Q 14.984375 22.515625 14.984375 16.5 
Q 14.984375 11.71875 18.140625 8.90625 
Q 21.296875 6.109375 26.703125 6.109375 
Q 34.1875 6.109375 38.703125 11.40625 
Q 43.21875 16.703125 43.21875 25.484375 
L 43.21875 27.484375 
z
M 52.203125 31.203125 
L 52.203125 0 
L 43.21875 0 
L 43.21875 8.296875 
Q 40.140625 3.328125 35.546875 0.953125 
Q 30.953125 -1.421875 24.3125 -1.421875 
Q 15.921875 -1.421875 10.953125 3.296875 
Q 6 8.015625 6 15.921875 
Q 6 25.140625 12.171875 29.828125 
Q 18.359375 34.515625 30.609375 34.515625 
L 43.21875 34.515625 
L 43.21875 35.40625 
Q 43.21875 41.609375 39.140625 45 
Q 35.0625 48.390625 27.6875 48.390625 
Q 23 48.390625 18.546875 47.265625 
Q 14.109375 46.140625 10.015625 43.890625 
L 10.015625 52.203125 
Q 14.9375 54.109375 19.578125 55.046875 
Q 24.21875 56 28.609375 56 
Q 40.484375 56 46.34375 49.84375 
Q 52.203125 43.703125 52.203125 31.203125 
z
" id="DejaVuSans-61"/>
      <path d="M 9.421875 54.6875 
L 18.40625 54.6875 
L 18.40625 0 
L 9.421875 0 
z
M 9.421875 75.984375 
L 18.40625 75.984375 
L 18.40625 64.59375 
L 9.421875 64.59375 
z
" id="DejaVuSans-69"/>
      <path d="M 30.609375 48.390625 
Q 23.390625 48.390625 19.1875 42.75 
Q 14.984375 37.109375 14.984375 27.296875 
Q 14.984375 17.484375 19.15625 11.84375 
Q 23.34375 6.203125 30.609375 6.203125 
Q 37.796875 6.203125 41.984375 11.859375 
Q 46.1875 17.53125 46.1875 27.296875 
Q 46.1875 37.015625 41.984375 42.703125 
Q 37.796875 48.390625 30.609375 48.390625 
z
M 30.609375 56 
Q 42.328125 56 49.015625 48.375 
Q 55.71875 40.765625 55.71875 27.296875 
Q 55.71875 13.875 49.015625 6.21875 
Q 42.328125 -1.421875 30.609375 -1.421875 
Q 18.84375 -1.421875 12.171875 6.21875 
Q 5.515625 13.875 5.515625 27.296875 
Q 5.515625 40.765625 12.171875 48.375 
Q 18.84375 56 30.609375 56 
z
" id="DejaVuSans-6f"/>
      <path d="M 54.890625 33.015625 
L 54.890625 0 
L 45.90625 0 
L 45.90625 32.71875 
Q 45.90625 40.484375 42.875 44.328125 
Q 39.84375 48.1875 33.796875 48.1875 
Q 26.515625 48.1875 22.3125 43.546875 
Q 18.109375 38.921875 18.109375 30.90625 
L 18.109375 0 
L 9.078125 0 
L 9.078125 54.6875 
L 18.109375 54.6875 
L 18.109375 46.1875 
Q 21.34375 51.125 25.703125 53.5625 
Q 30.078125 56 35.796875 56 
Q 45.21875 56 50.046875 50.171875 
Q 54.890625 44.34375 54.890625 33.015625 
z
" id="DejaVuSans-6e"/>
     </defs>
     <g transform="translate(265.507969 415.795938)scale(0.14 -0.14)">
      <use xlink:href="#DejaVuSans-49"/>
      <use x="29.492188" xlink:href="#DejaVuSans-74"/>
      <use x="68.701172" xlink:href="#DejaVuSans-65"/>
      <use x="130.224609" xlink:href="#DejaVuSans-72"/>
      <use x="171.337891" xlink:href="#DejaVuSans-61"/>
      <use x="232.617188" xlink:href="#DejaVuSans-74"/>
      <use x="271.826172" xlink:href="#DejaVuSans-69"/>
      <use x="299.609375" xlink:href="#DejaVuSans-6f"/>
      <use x="360.791016" xlink:href="#DejaVuSans-6e"/>
     </g>
    </g>
   </g>
   <g id="matplotlib.axis_2">
    <g id="ytick_1">
     <g id="line2d_15">
      <path clip-path="url(#pb78c8c9a7d)" d="M 72 339.12 
L 518.4 339.12 
" style="fill:none;stroke:#b0b0b0;stroke-dasharray:5.12,1.28,0.8,1.28;stroke-dashoffset:0;stroke-width:0.8;"/>
     </g>
     <g id="line2d_16">
      <defs>
       <path d="M 0 0 
L -3.5 0 
" id="m2863052461" style="stroke:#000000;stroke-width:0.8;"/>
      </defs>
      <g>
       <use style="stroke:#000000;stroke-width:0.8;" x="72" xlink:href="#m2863052461" y="339.12"/>
      </g>
     </g>
     <g id="text_9">
      <!-- −4 -->
      <defs>
       <path d="M 10.59375 35.5 
L 73.1875 35.5 
L 73.1875 27.203125 
L 10.59375 27.203125 
z
" id="DejaVuSans-2212"/>
      </defs>
      <g transform="translate(50.257812 342.919219)scale(0.1 -0.1)">
       <use xlink:href="#DejaVuSans-2212"/>
       <use x="83.789062" xlink:href="#DejaVuSans-34"/>
      </g>
     </g>
    </g>
    <g id="ytick_2">
     <g id="line2d_17">
      <path clip-path="url(#pb78c8c9a7d)" d="M 72 278.64 
L 518.4 278.64 
" style="fill:none;stroke:#b0b0b0;stroke-dasharray:5.12,1.28,0.8,1.28;stroke-dashoffset:0;stroke-width:0.8;"/>
     </g>
     <g id="line2d_18">
      <g>
       <use style="stroke:#000000;stroke-width:0.8;" x="72" xlink:href="#m2863052461" y="278.64"/>
      </g>
     </g>
     <g id="text_10">
      <!-- −2 -->
      <g transform="translate(50.257812 282.439219)scale(0.1 -0.1)">
       <use xlink:href="#DejaVuSans-2212"/>
       <use x="83.789062" xlink:href="#DejaVuSans-32"/>
      </g>
     </g>
    </g>
    <g id="ytick_3">
     <g id="line2d_19">
      <path clip-path="url(#pb78c8c9a7d)" d="M 72 218.16 
L 518.4 218.16 
" style="fill:none;stroke:#b0b0b0;stroke-dasharray:5.12,1.28,0.8,1.28;stroke-dashoffset:0;stroke-width:0.8;"/>
     </g>
     <g id="line2d_20">
      <g>
       <use style="stroke:#000000;stroke-width:0.8;" x="72" xlink:href="#m2863052461" y="218.16"/>
      </g>
     </g>
     <g id="text_11">
      <!-- 0 -->
      <g transform="translate(58.6375 221.959219)scale(0.1 -0.1)">
       <use xlink:href="#DejaVuSans-30"/>
      </g>
     </g>
    </g>
    <g id="ytick_4">
     <g id="line2d_21">
      <path clip-path="url(#pb78c8c9a7d)" d="M 72 157.68 
L 518.4 157.68 
" style="fill:none;stroke:#b0b0b0;stroke-dasharray:5.12,1.28,0.8,1.28;stroke-dashoffset:0;stroke-width:0.8;"/>
     </g>
     <g id="line2d_22">
      <g>
       <use style="stroke:#000000;stroke-width:0.8;" x="72" xlink:href="#m2863052461" y="157.68"/>
      </g>
     </g>
     <g id="text_12">
      <!-- 2 -->
      <g transform="translate(58.6375 161.479219)scale(0.1 -0.1)">
       <use xlink:href="#DejaVuSans-32"/>
      </g>
     </g>
    </g>
    <g id="ytick_5">
     <g id="line2d_23">
      <path clip-path="url(#pb78c8c9a7d)" d="M 72 97.2 
L 518.4 97.2 
" style="fill:none;stroke:#b0b0b0;stroke-dasharray:5.12,1.28,0.8,1.28;stroke-dashoffset:0;stroke-width:0.8;"/>
     </g>
     <g id="line2d_24">
      <g>
       <use style="stroke:#000000;stroke-width:0.8;" x="72" xlink:href="#m2863052461" y="97.2"/>
      </g>
     </g>
     <g id="text_13">
      <!-- 4 -->
      <g transform="translate(58.6375 100.999219)scale(0.1 -0.1)">
       <use xlink:href="#DejaVuSans-34"/>
      </g>
     </g>
    </g>
    <g id="text_14">
     <!-- $status_{mn}$ -->
     <defs>
      <path d="M 50 53.078125 
L 48.296875 44.578125 
Q 44.734375 46.53125 40.765625 47.5 
Q 36.8125 48.484375 32.625 48.484375 
Q 25.53125 48.484375 21.453125 46.0625 
Q 17.390625 43.65625 17.390625 39.5 
Q 17.390625 34.671875 26.859375 32.078125 
Q 27.59375 31.890625 27.9375 31.78125 
L 30.8125 30.90625 
Q 39.796875 28.421875 42.796875 25.6875 
Q 45.796875 22.953125 45.796875 18.21875 
Q 45.796875 9.515625 38.890625 4.046875 
Q 31.984375 -1.421875 20.796875 -1.421875 
Q 16.453125 -1.421875 11.671875 -0.578125 
Q 6.890625 0.25 1.125 2 
L 2.875 11.28125 
Q 7.8125 8.734375 12.59375 7.421875 
Q 17.390625 6.109375 21.78125 6.109375 
Q 28.375 6.109375 32.5 8.9375 
Q 36.625 11.765625 36.625 16.109375 
Q 36.625 20.796875 25.78125 23.6875 
L 24.859375 23.921875 
L 21.78125 24.703125 
Q 14.9375 26.515625 11.765625 29.46875 
Q 8.59375 32.421875 8.59375 37.015625 
Q 8.59375 45.75 15.15625 50.875 
Q 21.734375 56 33.015625 56 
Q 37.453125 56 41.671875 55.265625 
Q 45.90625 54.546875 50 53.078125 
z
" id="DejaVuSans-Oblique-73"/>
      <path d="M 42.28125 54.6875 
L 40.921875 47.703125 
L 23 47.703125 
L 17.1875 18.015625 
Q 16.890625 16.359375 16.75 15.234375 
Q 16.609375 14.109375 16.609375 13.484375 
Q 16.609375 10.359375 18.484375 8.9375 
Q 20.359375 7.515625 24.515625 7.515625 
L 33.59375 7.515625 
L 32.078125 0 
L 23.484375 0 
Q 15.484375 0 11.546875 3.125 
Q 7.625 6.25 7.625 12.59375 
Q 7.625 13.71875 7.765625 15.0625 
Q 7.90625 16.40625 8.203125 18.015625 
L 14.015625 47.703125 
L 6.390625 47.703125 
L 7.8125 54.6875 
L 15.28125 54.6875 
L 18.3125 70.21875 
L 27.296875 70.21875 
L 24.3125 54.6875 
z
" id="DejaVuSans-Oblique-74"/>
      <path d="M 53.71875 31.203125 
L 47.609375 0 
L 38.625 0 
L 40.28125 8.296875 
Q 36.328125 3.421875 31.265625 1 
Q 26.21875 -1.421875 20.015625 -1.421875 
Q 13.03125 -1.421875 8.5625 2.84375 
Q 4.109375 7.125 4.109375 13.8125 
Q 4.109375 23.390625 11.75 28.953125 
Q 19.390625 34.515625 32.8125 34.515625 
L 45.3125 34.515625 
L 45.796875 36.921875 
Q 45.90625 37.3125 45.953125 37.765625 
Q 46 38.234375 46 39.203125 
Q 46 43.5625 42.453125 45.96875 
Q 38.921875 48.390625 32.515625 48.390625 
Q 28.125 48.390625 23.5 47.265625 
Q 18.890625 46.140625 14.015625 43.890625 
L 15.578125 52.203125 
Q 20.65625 54.109375 25.515625 55.046875 
Q 30.375 56 34.90625 56 
Q 44.578125 56 49.625 51.796875 
Q 54.6875 47.609375 54.6875 39.59375 
Q 54.6875 37.984375 54.4375 35.8125 
Q 54.203125 33.640625 53.71875 31.203125 
z
M 44 27.484375 
L 35.015625 27.484375 
Q 23.96875 27.484375 18.671875 24.53125 
Q 13.375 21.578125 13.375 15.375 
Q 13.375 11.078125 16.078125 8.640625 
Q 18.796875 6.203125 23.578125 6.203125 
Q 30.90625 6.203125 36.375 11.453125 
Q 41.84375 16.703125 43.609375 25.484375 
z
" id="DejaVuSans-Oblique-61"/>
      <path d="M 6.6875 21.6875 
L 13.09375 54.6875 
L 22.125 54.6875 
L 15.71875 22.015625 
Q 15.234375 19.625 15.015625 17.921875 
Q 14.796875 16.21875 14.796875 15.09375 
Q 14.796875 10.9375 17.328125 8.65625 
Q 19.875 6.390625 24.515625 6.390625 
Q 31.734375 6.390625 37 11.265625 
Q 42.28125 16.15625 43.890625 24.421875 
L 49.90625 54.6875 
L 58.890625 54.6875 
L 48.296875 0 
L 39.3125 0 
L 41.109375 8.59375 
Q 37.3125 3.8125 32.0625 1.1875 
Q 26.8125 -1.421875 20.90625 -1.421875 
Q 13.71875 -1.421875 9.71875 2.515625 
Q 5.71875 6.453125 5.71875 13.484375 
Q 5.71875 14.9375 5.953125 17.140625 
Q 6.203125 19.34375 6.6875 21.6875 
z
" id="DejaVuSans-Oblique-75"/>
      <path d="M 89.796875 33.015625 
L 83.40625 0 
L 74.421875 0 
L 80.71875 32.71875 
Q 81.109375 34.8125 81.296875 36.328125 
Q 81.5 37.84375 81.5 38.921875 
Q 81.5 43.3125 79.046875 45.75 
Q 76.609375 48.1875 72.21875 48.1875 
Q 65.671875 48.1875 60.546875 43.28125 
Q 55.421875 38.375 53.90625 30.515625 
L 47.90625 0 
L 38.921875 0 
L 45.3125 32.71875 
Q 45.703125 34.515625 45.890625 36.046875 
Q 46.09375 37.59375 46.09375 38.8125 
Q 46.09375 43.265625 43.65625 45.71875 
Q 41.21875 48.1875 36.921875 48.1875 
Q 30.28125 48.1875 25.140625 43.28125 
Q 20.015625 38.375 18.5 30.515625 
L 12.5 0 
L 3.515625 0 
L 14.203125 54.6875 
L 23.1875 54.6875 
L 21.484375 46.1875 
Q 25.140625 50.984375 30.046875 53.484375 
Q 34.96875 56 40.578125 56 
Q 46.53125 56 50.359375 52.875 
Q 54.203125 49.75 54.984375 44.1875 
Q 59.078125 49.953125 64.46875 52.96875 
Q 69.875 56 75.875 56 
Q 82.90625 56 86.734375 51.953125 
Q 90.578125 47.90625 90.578125 40.484375 
Q 90.578125 38.875 90.375 36.9375 
Q 90.1875 35.015625 89.796875 33.015625 
z
" id="DejaVuSans-Oblique-6d"/>
      <path d="M 55.71875 33.015625 
L 49.3125 0 
L 40.28125 0 
L 46.6875 32.671875 
Q 47.125 34.96875 47.359375 36.71875 
Q 47.609375 38.484375 47.609375 39.5 
Q 47.609375 43.609375 45.015625 45.890625 
Q 42.4375 48.1875 37.796875 48.1875 
Q 30.5625 48.1875 25.34375 43.375 
Q 20.125 38.578125 18.5 30.328125 
L 12.5 0 
L 3.515625 0 
L 14.109375 54.6875 
L 23.09375 54.6875 
L 21.296875 46.09375 
Q 25.046875 50.828125 30.3125 53.40625 
Q 35.59375 56 41.40625 56 
Q 48.640625 56 52.609375 52.09375 
Q 56.59375 48.1875 56.59375 41.109375 
Q 56.59375 39.359375 56.375 37.359375 
Q 56.15625 35.359375 55.71875 33.015625 
z
" id="DejaVuSans-Oblique-6e"/>
     </defs>
     <g transform="translate(43.34625 247.77)rotate(-90)scale(0.14 -0.14)">
      <use transform="translate(0 0.78125)" xlink:href="#DejaVuSans-Oblique-73"/>
      <use transform="translate(52.099609 0.78125)" xlink:href="#DejaVuSans-Oblique-74"/>
      <use transform="translate(91.308594 0.78125)" xlink:href="#DejaVuSans-Oblique-61"/>
      <use transform="translate(152.587891 0.78125)" xlink:href="#DejaVuSans-Oblique-74"/>
      <use transform="translate(191.796875 0.78125)" xlink:href="#DejaVuSans-Oblique-75"/>
      <use transform="translate(255.175781 0.78125)" xlink:href="#DejaVuSans-Oblique-73"/>
      <use transform="translate(307.275391 -15.625)scale(0.7)" xlink:href="#DejaVuSans-Oblique-6d"/>
      <use transform="translate(375.463867 -15.625)scale(0.7)" xlink:href="#DejaVuSans-Oblique-6e"/>
     </g>
    </g>
    <g id="text_15">
     <!-- 1e−2 -->
     <g transform="translate(72 48.84)scale(0.1 -0.1)">
      <use xlink:href="#DejaVuSans-31"/>
      <use x="63.623047" xlink:href="#DejaVuSans-65"/>
      <use x="125.146484" xlink:href="#DejaVuSans-2212"/>
      <use x="208.935547" xlink:href="#DejaVuSans-32"/>
     </g>
    </g>
   </g>
   <g id="line2d_25">
    <path clip-path="url(#pb78c8c9a7d)" d="M 92.290909 218.16 
L 497.919057 218.16 
L 497.919057 218.16 
" style="fill:none;stroke:#bf00bf;stroke-linecap:square;stroke-width:1.5;"/>
   </g>
   <g id="line2d_26">
    <path clip-path="url(#pb78c8c9a7d)" d="M 92.290909 218.16 
L 498.077419 218.16 
L 498.077419 218.16 
" style="fill:none;stroke:#00bfbf;stroke-linecap:square;stroke-width:1.5;"/>
   </g>
   <g id="line2d_27">
    <path clip-path="url(#pb78c8c9a7d)" d="M 92.290909 218.16 
L 497.982401 218.16 
L 497.982401 218.16 
" style="fill:none;stroke:#ff0000;stroke-linecap:square;stroke-width:1.5;"/>
   </g>
   <g id="line2d_28">
    <path clip-path="url(#pb78c8c9a7d)" d="M 92.290909 218.16 
L 497.919057 218.16 
L 497.919057 218.16 
" style="fill:none;stroke:#008000;stroke-linecap:square;stroke-width:1.5;"/>
   </g>
   <g id="line2d_29">
    <path clip-path="url(#pb78c8c9a7d)" d="M 92.290909 218.16 
L 497.919057 218.16 
L 497.919057 218.16 
" style="fill:none;stroke:#0000ff;stroke-linecap:square;stroke-width:1.5;"/>
   </g>
   <g id="line2d_30">
    <path clip-path="url(#pb78c8c9a7d)" d="M 92.290909 218.16 
L 497.919057 218.16 
L 497.919057 218.16 
" style="fill:none;stroke:#000000;stroke-linecap:square;stroke-width:1.5;"/>
   </g>
   <g id="line2d_31">
    <path clip-path="url(#pb78c8c9a7d)" d="M 92.290909 218.16 
L 498.077419 218.16 
L 498.077419 218.16 
" style="fill:none;stroke:#bfbf00;stroke-linecap:square;stroke-width:1.5;"/>
   </g>
   <g id="line2d_32">
    <path clip-path="url(#pb78c8c9a7d)" d="M 92.290909 218.16 
L 498.077419 218.16 
L 498.077419 218.16 
" style="fill:none;stroke:#bf00bf;stroke-linecap:square;stroke-width:1.5;"/>
   </g>
   <g id="line2d_33">
    <path clip-path="url(#pb78c8c9a7d)" d="M 92.290909 218.16 
L 498.109091 218.16 
L 498.109091 218.16 
" style="fill:none;stroke:#00bfbf;stroke-linecap:square;stroke-width:1.5;"/>
   </g>
   <g id="line2d_34">
    <path clip-path="url(#pb78c8c9a7d)" d="M 92.290909 218.16 
L 498.109091 218.16 
L 498.109091 218.16 
" style="fill:none;stroke:#ff0000;stroke-linecap:square;stroke-width:1.5;"/>
   </g>
   <g id="line2d_35">
    <path clip-path="url(#pb78c8c9a7d)" d="M 92.290909 218.16 
L 497.982401 218.16 
L 497.982401 218.16 
" style="fill:none;stroke:#008000;stroke-linecap:square;stroke-width:1.5;"/>
   </g>
   <g id="line2d_36">
    <path clip-path="url(#pb78c8c9a7d)" d="M 92.290909 218.16 
L 497.982401 218.16 
L 497.982401 218.16 
" style="fill:none;stroke:#0000ff;stroke-linecap:square;stroke-width:1.5;"/>
   </g>
   <g id="line2d_37">
    <path clip-path="url(#pb78c8c9a7d)" d="M 92.290909 218.16 
L 497.982401 218.16 
L 497.982401 218.16 
" style="fill:none;stroke:#000000;stroke-linecap:square;stroke-width:1.5;"/>
   </g>
   <g id="line2d_38">
    <path clip-path="url(#pb78c8c9a7d)" d="M 92.290909 218.16 
L 498.077419 218.16 
L 498.077419 218.16 
" style="fill:none;stroke:#bfbf00;stroke-linecap:square;stroke-width:1.5;"/>
   </g>
   <g id="line2d_39">
    <path clip-path="url(#pb78c8c9a7d)" d="M 92.290909 218.16 
L 498.077419 218.16 
L 498.077419 218.16 
" style="fill:none;stroke:#bf00bf;stroke-linecap:square;stroke-width:1.5;"/>
   </g>
   <g id="line2d_40">
    <path clip-path="url(#pb78c8c9a7d)" d="M 92.290909 218.16 
L 497.982401 218.16 
L 497.982401 218.16 
" style="fill:none;stroke:#00bfbf;stroke-linecap:square;stroke-width:1.5;"/>
   </g>
   <g id="line2d_41">
    <path clip-path="url(#pb78c8c9a7d)" d="M 92.290909 218.16 
L 497.982401 218.16 
L 497.982401 218.16 
" style="fill:none;stroke:#ff0000;stroke-linecap:square;stroke-width:1.5;"/>
   </g>
   <g id="line2d_42">
    <path clip-path="url(#pb78c8c9a7d)" d="M 92.290909 218.16 
L 497.982401 218.16 
L 497.982401 218.16 
" style="fill:none;stroke:#008000;stroke-linecap:square;stroke-width:1.5;"/>
   </g>
   <g id="patch_3">
    <path d="M 72 384.48 
L 72 51.84 
" style="fill:none;stroke:#000000;stroke-linecap:square;stroke-linejoin:miter;stroke-width:0.8;"/>
   </g>
   <g id="patch_4">
    <path d="M 518.4 384.48 
L 518.4 51.84 
" style="fill:none;stroke:#000000;stroke-linecap:square;stroke-linejoin:miter;stroke-width:0.8;"/>
   </g>
   <g id="patch_5">
    <path d="M 72 384.48 
L 518.4 384.48 
" style="fill:none;stroke:#000000;stroke-linecap:square;stroke-linejoin:miter;stroke-width:0.8;"/>
   </g>
   <g id="patch_6">
    <path d="M 72 51.84 
L 518.4 51.84 
" style="fill:none;stroke:#000000;stroke-linecap:square;stroke-linejoin:miter;stroke-width:0.8;"/>
   </g>
   <g id="text_16">
    <!-- $status_{mn}$ -->
    <g transform="translate(265.59 45.84)scale(0.14 -0.14)">
     <use transform="translate(0 0.78125)" xlink:href="#DejaVuSans-Oblique-73"/>
     <use transform="translate(52.099609 0.78125)" xlink:href="#DejaVuSans-Oblique-74"/>
     <use transform="translate(91.308594 0.78125)" xlink:href="#DejaVuSans-Oblique-61"/>
     <use transform="translate(152.587891 0.78125)" xlink:href="#DejaVuSans-Oblique-74"/>
     <use transform="translate(191.796875 0.78125)" xlink:href="#DejaVuSans-Oblique-75"/>
     <use transform="translate(255.175781 0.78125)" xlink:href="#DejaVuSans-Oblique-73"/>
     <use transform="translate(307.275391 -15.625)scale(0.7)" xlink:href="#DejaVuSans-Oblique-6d"/>
     <use transform="translate(375.463867 -15.625)scale(0.7)" xlink:href="#DejaVuSans-Oblique-6e"/>
    </g>
   </g>
   <g id="legend_1">
    <g id="patch_7">
     <path d="M 426.8 324.04625 
L 511.4 324.04625 
Q 513.4 324.04625 513.4 322.04625 
L 513.4 58.84 
Q 513.4 56.84 511.4 56.84 
L 426.8 56.84 
Q 424.8 56.84 424.8 58.84 
L 424.8 322.04625 
Q 424.8 324.04625 426.8 324.04625 
z
" style="fill:#ffffff;opacity:0.8;stroke:#cccccc;stroke-linejoin:miter;"/>
    </g>
    <g id="line2d_43">
     <path d="M 428.8 64.938437 
L 448.8 64.938437 
" style="fill:none;stroke:#bf00bf;stroke-linecap:square;stroke-width:1.5;"/>
    </g>
    <g id="line2d_44"/>
    <g id="text_17">
     <!-- $status_{line14}$ -->
     <defs>
      <path d="M 18.3125 75.984375 
L 27.296875 75.984375 
L 12.5 0 
L 3.515625 0 
z
" id="DejaVuSans-Oblique-6c"/>
      <path d="M 18.3125 75.984375 
L 27.296875 75.984375 
L 25.09375 64.59375 
L 16.109375 64.59375 
z
M 14.203125 54.6875 
L 23.1875 54.6875 
L 12.5 0 
L 3.515625 0 
z
" id="DejaVuSans-Oblique-69"/>
      <path d="M 48.09375 32.234375 
Q 48.25 33.015625 48.3125 33.84375 
Q 48.390625 34.671875 48.390625 35.5 
Q 48.390625 41.453125 44.890625 44.921875 
Q 41.40625 48.390625 35.40625 48.390625 
Q 28.71875 48.390625 23.578125 44.15625 
Q 18.453125 39.9375 15.828125 32.171875 
z
M 55.90625 25.203125 
L 14.109375 25.203125 
Q 13.8125 23.34375 13.71875 22.265625 
Q 13.625 21.1875 13.625 20.40625 
Q 13.625 13.625 17.796875 9.90625 
Q 21.96875 6.203125 29.59375 6.203125 
Q 35.453125 6.203125 40.671875 7.515625 
Q 45.90625 8.84375 50.390625 11.375 
L 48.6875 2.484375 
Q 43.84375 0.53125 38.6875 -0.4375 
Q 33.546875 -1.421875 28.21875 -1.421875 
Q 16.84375 -1.421875 10.71875 4.015625 
Q 4.59375 9.46875 4.59375 19.484375 
Q 4.59375 28.03125 7.640625 35.375 
Q 10.6875 42.71875 16.609375 48.484375 
Q 20.40625 52.09375 25.65625 54.046875 
Q 30.90625 56 36.8125 56 
Q 46.09375 56 51.578125 50.4375 
Q 57.078125 44.875 57.078125 35.5 
Q 57.078125 33.25 56.78125 30.6875 
Q 56.5 28.125 55.90625 25.203125 
z
" id="DejaVuSans-Oblique-65"/>
     </defs>
     <g transform="translate(456.8 68.438437)scale(0.1 -0.1)">
      <use transform="translate(0 0.78125)" xlink:href="#DejaVuSans-Oblique-73"/>
      <use transform="translate(52.099609 0.78125)" xlink:href="#DejaVuSans-Oblique-74"/>
      <use transform="translate(91.308594 0.78125)" xlink:href="#DejaVuSans-Oblique-61"/>
      <use transform="translate(152.587891 0.78125)" xlink:href="#DejaVuSans-Oblique-74"/>
      <use transform="translate(191.796875 0.78125)" xlink:href="#DejaVuSans-Oblique-75"/>
      <use transform="translate(255.175781 0.78125)" xlink:href="#DejaVuSans-Oblique-73"/>
      <use transform="translate(307.275391 -15.625)scale(0.7)" xlink:href="#DejaVuSans-Oblique-6c"/>
      <use transform="translate(326.723633 -15.625)scale(0.7)" xlink:href="#DejaVuSans-Oblique-69"/>
      <use transform="translate(346.171875 -15.625)scale(0.7)" xlink:href="#DejaVuSans-Oblique-6e"/>
      <use transform="translate(390.537109 -15.625)scale(0.7)" xlink:href="#DejaVuSans-Oblique-65"/>
      <use transform="translate(433.603516 -15.625)scale(0.7)" xlink:href="#DejaVuSans-31"/>
      <use transform="translate(478.139648 -15.625)scale(0.7)" xlink:href="#DejaVuSans-34"/>
     </g>
    </g>
    <g id="line2d_45">
     <path d="M 428.8 79.616562 
L 448.8 79.616562 
" style="fill:none;stroke:#00bfbf;stroke-linecap:square;stroke-width:1.5;"/>
    </g>
    <g id="line2d_46"/>
    <g id="text_18">
     <!-- $status_{line27}$ -->
     <defs>
      <path d="M 8.203125 72.90625 
L 55.078125 72.90625 
L 55.078125 68.703125 
L 28.609375 0 
L 18.3125 0 
L 43.21875 64.59375 
L 8.203125 64.59375 
z
" id="DejaVuSans-37"/>
     </defs>
     <g transform="translate(456.8 83.116562)scale(0.1 -0.1)">
      <use transform="translate(0 0.78125)" xlink:href="#DejaVuSans-Oblique-73"/>
      <use transform="translate(52.099609 0.78125)" xlink:href="#DejaVuSans-Oblique-74"/>
      <use transform="translate(91.308594 0.78125)" xlink:href="#DejaVuSans-Oblique-61"/>
      <use transform="translate(152.587891 0.78125)" xlink:href="#DejaVuSans-Oblique-74"/>
      <use transform="translate(191.796875 0.78125)" xlink:href="#DejaVuSans-Oblique-75"/>
      <use transform="translate(255.175781 0.78125)" xlink:href="#DejaVuSans-Oblique-73"/>
      <use transform="translate(307.275391 -15.625)scale(0.7)" xlink:href="#DejaVuSans-Oblique-6c"/>
      <use transform="translate(326.723633 -15.625)scale(0.7)" xlink:href="#DejaVuSans-Oblique-69"/>
      <use transform="translate(346.171875 -15.625)scale(0.7)" xlink:href="#DejaVuSans-Oblique-6e"/>
      <use transform="translate(390.537109 -15.625)scale(0.7)" xlink:href="#DejaVuSans-Oblique-65"/>
      <use transform="translate(433.603516 -15.625)scale(0.7)" xlink:href="#DejaVuSans-32"/>
      <use transform="translate(478.139648 -15.625)scale(0.7)" xlink:href="#DejaVuSans-37"/>
     </g>
    </g>
    <g id="line2d_47">
     <path d="M 428.8 94.294688 
L 448.8 94.294688 
" style="fill:none;stroke:#ff0000;stroke-linecap:square;stroke-width:1.5;"/>
    </g>
    <g id="line2d_48"/>
    <g id="text_19">
     <!-- $status_{line39}$ -->
     <defs>
      <path d="M 40.578125 39.3125 
Q 47.65625 37.796875 51.625 33 
Q 55.609375 28.21875 55.609375 21.1875 
Q 55.609375 10.40625 48.1875 4.484375 
Q 40.765625 -1.421875 27.09375 -1.421875 
Q 22.515625 -1.421875 17.65625 -0.515625 
Q 12.796875 0.390625 7.625 2.203125 
L 7.625 11.71875 
Q 11.71875 9.328125 16.59375 8.109375 
Q 21.484375 6.890625 26.8125 6.890625 
Q 36.078125 6.890625 40.9375 10.546875 
Q 45.796875 14.203125 45.796875 21.1875 
Q 45.796875 27.640625 41.28125 31.265625 
Q 36.765625 34.90625 28.71875 34.90625 
L 20.21875 34.90625 
L 20.21875 43.015625 
L 29.109375 43.015625 
Q 36.375 43.015625 40.234375 45.921875 
Q 44.09375 48.828125 44.09375 54.296875 
Q 44.09375 59.90625 40.109375 62.90625 
Q 36.140625 65.921875 28.71875 65.921875 
Q 24.65625 65.921875 20.015625 65.03125 
Q 15.375 64.15625 9.8125 62.3125 
L 9.8125 71.09375 
Q 15.4375 72.65625 20.34375 73.4375 
Q 25.25 74.21875 29.59375 74.21875 
Q 40.828125 74.21875 47.359375 69.109375 
Q 53.90625 64.015625 53.90625 55.328125 
Q 53.90625 49.265625 50.4375 45.09375 
Q 46.96875 40.921875 40.578125 39.3125 
z
" id="DejaVuSans-33"/>
      <path d="M 10.984375 1.515625 
L 10.984375 10.5 
Q 14.703125 8.734375 18.5 7.8125 
Q 22.3125 6.890625 25.984375 6.890625 
Q 35.75 6.890625 40.890625 13.453125 
Q 46.046875 20.015625 46.78125 33.40625 
Q 43.953125 29.203125 39.59375 26.953125 
Q 35.25 24.703125 29.984375 24.703125 
Q 19.046875 24.703125 12.671875 31.3125 
Q 6.296875 37.9375 6.296875 49.421875 
Q 6.296875 60.640625 12.9375 67.421875 
Q 19.578125 74.21875 30.609375 74.21875 
Q 43.265625 74.21875 49.921875 64.515625 
Q 56.59375 54.828125 56.59375 36.375 
Q 56.59375 19.140625 48.40625 8.859375 
Q 40.234375 -1.421875 26.421875 -1.421875 
Q 22.703125 -1.421875 18.890625 -0.6875 
Q 15.09375 0.046875 10.984375 1.515625 
z
M 30.609375 32.421875 
Q 37.25 32.421875 41.125 36.953125 
Q 45.015625 41.5 45.015625 49.421875 
Q 45.015625 57.28125 41.125 61.84375 
Q 37.25 66.40625 30.609375 66.40625 
Q 23.96875 66.40625 20.09375 61.84375 
Q 16.21875 57.28125 16.21875 49.421875 
Q 16.21875 41.5 20.09375 36.953125 
Q 23.96875 32.421875 30.609375 32.421875 
z
" id="DejaVuSans-39"/>
     </defs>
     <g transform="translate(456.8 97.794688)scale(0.1 -0.1)">
      <use transform="translate(0 0.78125)" xlink:href="#DejaVuSans-Oblique-73"/>
      <use transform="translate(52.099609 0.78125)" xlink:href="#DejaVuSans-Oblique-74"/>
      <use transform="translate(91.308594 0.78125)" xlink:href="#DejaVuSans-Oblique-61"/>
      <use transform="translate(152.587891 0.78125)" xlink:href="#DejaVuSans-Oblique-74"/>
      <use transform="translate(191.796875 0.78125)" xlink:href="#DejaVuSans-Oblique-75"/>
      <use transform="translate(255.175781 0.78125)" xlink:href="#DejaVuSans-Oblique-73"/>
      <use transform="translate(307.275391 -15.625)scale(0.7)" xlink:href="#DejaVuSans-Oblique-6c"/>
      <use transform="translate(326.723633 -15.625)scale(0.7)" xlink:href="#DejaVuSans-Oblique-69"/>
      <use transform="translate(346.171875 -15.625)scale(0.7)" xlink:href="#DejaVuSans-Oblique-6e"/>
      <use transform="translate(390.537109 -15.625)scale(0.7)" xlink:href="#DejaVuSans-Oblique-65"/>
      <use transform="translate(433.603516 -15.625)scale(0.7)" xlink:href="#DejaVuSans-33"/>
      <use transform="translate(478.139648 -15.625)scale(0.7)" xlink:href="#DejaVuSans-39"/>
     </g>
    </g>
    <g id="line2d_49">
     <path d="M 428.8 108.972812 
L 448.8 108.972812 
" style="fill:none;stroke:#008000;stroke-linecap:square;stroke-width:1.5;"/>
    </g>
    <g id="line2d_50"/>
    <g id="text_20">
     <!-- $status_{line41}$ -->
     <g transform="translate(456.8 112.472812)scale(0.1 -0.1)">
      <use transform="translate(0 0.78125)" xlink:href="#DejaVuSans-Oblique-73"/>
      <use transform="translate(52.099609 0.78125)" xlink:href="#DejaVuSans-Oblique-74"/>
      <use transform="translate(91.308594 0.78125)" xlink:href="#DejaVuSans-Oblique-61"/>
      <use transform="translate(152.587891 0.78125)" xlink:href="#DejaVuSans-Oblique-74"/>
      <use transform="translate(191.796875 0.78125)" xlink:href="#DejaVuSans-Oblique-75"/>
      <use transform="translate(255.175781 0.78125)" xlink:href="#DejaVuSans-Oblique-73"/>
      <use transform="translate(307.275391 -15.625)scale(0.7)" xlink:href="#DejaVuSans-Oblique-6c"/>
      <use transform="translate(326.723633 -15.625)scale(0.7)" xlink:href="#DejaVuSans-Oblique-69"/>
      <use transform="translate(346.171875 -15.625)scale(0.7)" xlink:href="#DejaVuSans-Oblique-6e"/>
      <use transform="translate(390.537109 -15.625)scale(0.7)" xlink:href="#DejaVuSans-Oblique-65"/>
      <use transform="translate(433.603516 -15.625)scale(0.7)" xlink:href="#DejaVuSans-34"/>
      <use transform="translate(478.139648 -15.625)scale(0.7)" xlink:href="#DejaVuSans-31"/>
     </g>
    </g>
    <g id="line2d_51">
     <path d="M 428.8 123.650937 
L 448.8 123.650937 
" style="fill:none;stroke:#0000ff;stroke-linecap:square;stroke-width:1.5;"/>
    </g>
    <g id="line2d_52"/>
    <g id="text_21">
     <!-- $status_{line45}$ -->
     <defs>
      <path d="M 10.796875 72.90625 
L 49.515625 72.90625 
L 49.515625 64.59375 
L 19.828125 64.59375 
L 19.828125 46.734375 
Q 21.96875 47.46875 24.109375 47.828125 
Q 26.265625 48.1875 28.421875 48.1875 
Q 40.625 48.1875 47.75 41.5 
Q 54.890625 34.8125 54.890625 23.390625 
Q 54.890625 11.625 47.5625 5.09375 
Q 40.234375 -1.421875 26.90625 -1.421875 
Q 22.3125 -1.421875 17.546875 -0.640625 
Q 12.796875 0.140625 7.71875 1.703125 
L 7.71875 11.625 
Q 12.109375 9.234375 16.796875 8.0625 
Q 21.484375 6.890625 26.703125 6.890625 
Q 35.15625 6.890625 40.078125 11.328125 
Q 45.015625 15.765625 45.015625 23.390625 
Q 45.015625 31 40.078125 35.4375 
Q 35.15625 39.890625 26.703125 39.890625 
Q 22.75 39.890625 18.8125 39.015625 
Q 14.890625 38.140625 10.796875 36.28125 
z
" id="DejaVuSans-35"/>
     </defs>
     <g transform="translate(456.8 127.150937)scale(0.1 -0.1)">
      <use transform="translate(0 0.78125)" xlink:href="#DejaVuSans-Oblique-73"/>
      <use transform="translate(52.099609 0.78125)" xlink:href="#DejaVuSans-Oblique-74"/>
      <use transform="translate(91.308594 0.78125)" xlink:href="#DejaVuSans-Oblique-61"/>
      <use transform="translate(152.587891 0.78125)" xlink:href="#DejaVuSans-Oblique-74"/>
      <use transform="translate(191.796875 0.78125)" xlink:href="#DejaVuSans-Oblique-75"/>
      <use transform="translate(255.175781 0.78125)" xlink:href="#DejaVuSans-Oblique-73"/>
      <use transform="translate(307.275391 -15.625)scale(0.7)" xlink:href="#DejaVuSans-Oblique-6c"/>
      <use transform="translate(326.723633 -15.625)scale(0.7)" xlink:href="#DejaVuSans-Oblique-69"/>
      <use transform="translate(346.171875 -15.625)scale(0.7)" xlink:href="#DejaVuSans-Oblique-6e"/>
      <use transform="translate(390.537109 -15.625)scale(0.7)" xlink:href="#DejaVuSans-Oblique-65"/>
      <use transform="translate(433.603516 -15.625)scale(0.7)" xlink:href="#DejaVuSans-34"/>
      <use transform="translate(478.139648 -15.625)scale(0.7)" xlink:href="#DejaVuSans-35"/>
     </g>
    </g>
    <g id="line2d_53">
     <path d="M 428.8 138.329062 
L 448.8 138.329062 
" style="fill:none;stroke:#000000;stroke-linecap:square;stroke-width:1.5;"/>
    </g>
    <g id="line2d_54"/>
    <g id="text_22">
     <!-- $status_{line46}$ -->
     <g transform="translate(456.8 141.829062)scale(0.1 -0.1)">
      <use transform="translate(0 0.78125)" xlink:href="#DejaVuSans-Oblique-73"/>
      <use transform="translate(52.099609 0.78125)" xlink:href="#DejaVuSans-Oblique-74"/>
      <use transform="translate(91.308594 0.78125)" xlink:href="#DejaVuSans-Oblique-61"/>
      <use transform="translate(152.587891 0.78125)" xlink:href="#DejaVuSans-Oblique-74"/>
      <use transform="translate(191.796875 0.78125)" xlink:href="#DejaVuSans-Oblique-75"/>
      <use transform="translate(255.175781 0.78125)" xlink:href="#DejaVuSans-Oblique-73"/>
      <use transform="translate(307.275391 -15.625)scale(0.7)" xlink:href="#DejaVuSans-Oblique-6c"/>
      <use transform="translate(326.723633 -15.625)scale(0.7)" xlink:href="#DejaVuSans-Oblique-69"/>
      <use transform="translate(346.171875 -15.625)scale(0.7)" xlink:href="#DejaVuSans-Oblique-6e"/>
      <use transform="translate(390.537109 -15.625)scale(0.7)" xlink:href="#DejaVuSans-Oblique-65"/>
      <use transform="translate(433.603516 -15.625)scale(0.7)" xlink:href="#DejaVuSans-34"/>
      <use transform="translate(478.139648 -15.625)scale(0.7)" xlink:href="#DejaVuSans-36"/>
     </g>
    </g>
    <g id="line2d_55">
     <path d="M 428.8 153.007187 
L 448.8 153.007187 
" style="fill:none;stroke:#bfbf00;stroke-linecap:square;stroke-width:1.5;"/>
    </g>
    <g id="line2d_56"/>
    <g id="text_23">
     <!-- $status_{line54}$ -->
     <g transform="translate(456.8 156.507187)scale(0.1 -0.1)">
      <use transform="translate(0 0.78125)" xlink:href="#DejaVuSans-Oblique-73"/>
      <use transform="translate(52.099609 0.78125)" xlink:href="#DejaVuSans-Oblique-74"/>
      <use transform="translate(91.308594 0.78125)" xlink:href="#DejaVuSans-Oblique-61"/>
      <use transform="translate(152.587891 0.78125)" xlink:href="#DejaVuSans-Oblique-74"/>
      <use transform="translate(191.796875 0.78125)" xlink:href="#DejaVuSans-Oblique-75"/>
      <use transform="translate(255.175781 0.78125)" xlink:href="#DejaVuSans-Oblique-73"/>
      <use transform="translate(307.275391 -15.625)scale(0.7)" xlink:href="#DejaVuSans-Oblique-6c"/>
      <use transform="translate(326.723633 -15.625)scale(0.7)" xlink:href="#DejaVuSans-Oblique-69"/>
      <use transform="translate(346.171875 -15.625)scale(0.7)" xlink:href="#DejaVuSans-Oblique-6e"/>
      <use transform="translate(390.537109 -15.625)scale(0.7)" xlink:href="#DejaVuSans-Oblique-65"/>
      <use transform="translate(433.603516 -15.625)scale(0.7)" xlink:href="#DejaVuSans-35"/>
      <use transform="translate(478.139648 -15.625)scale(0.7)" xlink:href="#DejaVuSans-34"/>
     </g>
    </g>
    <g id="line2d_57">
     <path d="M 428.8 167.685312 
L 448.8 167.685312 
" style="fill:none;stroke:#bf00bf;stroke-linecap:square;stroke-width:1.5;"/>
    </g>
    <g id="line2d_58"/>
    <g id="text_24">
     <!-- $status_{line57}$ -->
     <g transform="translate(456.8 171.185312)scale(0.1 -0.1)">
      <use transform="translate(0 0.78125)" xlink:href="#DejaVuSans-Oblique-73"/>
      <use transform="translate(52.099609 0.78125)" xlink:href="#DejaVuSans-Oblique-74"/>
      <use transform="translate(91.308594 0.78125)" xlink:href="#DejaVuSans-Oblique-61"/>
      <use transform="translate(152.587891 0.78125)" xlink:href="#DejaVuSans-Oblique-74"/>
      <use transform="translate(191.796875 0.78125)" xlink:href="#DejaVuSans-Oblique-75"/>
      <use transform="translate(255.175781 0.78125)" xlink:href="#DejaVuSans-Oblique-73"/>
      <use transform="translate(307.275391 -15.625)scale(0.7)" xlink:href="#DejaVuSans-Oblique-6c"/>
      <use transform="translate(326.723633 -15.625)scale(0.7)" xlink:href="#DejaVuSans-Oblique-69"/>
      <use transform="translate(346.171875 -15.625)scale(0.7)" xlink:href="#DejaVuSans-Oblique-6e"/>
      <use transform="translate(390.537109 -15.625)scale(0.7)" xlink:href="#DejaVuSans-Oblique-65"/>
      <use transform="translate(433.603516 -15.625)scale(0.7)" xlink:href="#DejaVuSans-35"/>
      <use transform="translate(478.063086 -15.625)scale(0.7)" xlink:href="#DejaVuSans-37"/>
     </g>
    </g>
    <g id="line2d_59">
     <path d="M 428.8 182.363437 
L 448.8 182.363437 
" style="fill:none;stroke:#00bfbf;stroke-linecap:square;stroke-width:1.5;"/>
    </g>
    <g id="line2d_60"/>
    <g id="text_25">
     <!-- $status_{line64}$ -->
     <g transform="translate(456.8 185.863437)scale(0.1 -0.1)">
      <use transform="translate(0 0.78125)" xlink:href="#DejaVuSans-Oblique-73"/>
      <use transform="translate(52.099609 0.78125)" xlink:href="#DejaVuSans-Oblique-74"/>
      <use transform="translate(91.308594 0.78125)" xlink:href="#DejaVuSans-Oblique-61"/>
      <use transform="translate(152.587891 0.78125)" xlink:href="#DejaVuSans-Oblique-74"/>
      <use transform="translate(191.796875 0.78125)" xlink:href="#DejaVuSans-Oblique-75"/>
      <use transform="translate(255.175781 0.78125)" xlink:href="#DejaVuSans-Oblique-73"/>
      <use transform="translate(307.275391 -15.625)scale(0.7)" xlink:href="#DejaVuSans-Oblique-6c"/>
      <use transform="translate(326.723633 -15.625)scale(0.7)" xlink:href="#DejaVuSans-Oblique-69"/>
      <use transform="translate(346.171875 -15.625)scale(0.7)" xlink:href="#DejaVuSans-Oblique-6e"/>
      <use transform="translate(390.537109 -15.625)scale(0.7)" xlink:href="#DejaVuSans-Oblique-65"/>
      <use transform="translate(433.603516 -15.625)scale(0.7)" xlink:href="#DejaVuSans-36"/>
      <use transform="translate(478.139648 -15.625)scale(0.7)" xlink:href="#DejaVuSans-34"/>
     </g>
    </g>
    <g id="line2d_61">
     <path d="M 428.8 197.041562 
L 448.8 197.041562 
" style="fill:none;stroke:#ff0000;stroke-linecap:square;stroke-width:1.5;"/>
    </g>
    <g id="line2d_62"/>
    <g id="text_26">
     <!-- $status_{line69}$ -->
     <g transform="translate(456.8 200.541562)scale(0.1 -0.1)">
      <use transform="translate(0 0.78125)" xlink:href="#DejaVuSans-Oblique-73"/>
      <use transform="translate(52.099609 0.78125)" xlink:href="#DejaVuSans-Oblique-74"/>
      <use transform="translate(91.308594 0.78125)" xlink:href="#DejaVuSans-Oblique-61"/>
      <use transform="translate(152.587891 0.78125)" xlink:href="#DejaVuSans-Oblique-74"/>
      <use transform="translate(191.796875 0.78125)" xlink:href="#DejaVuSans-Oblique-75"/>
      <use transform="translate(255.175781 0.78125)" xlink:href="#DejaVuSans-Oblique-73"/>
      <use transform="translate(307.275391 -15.625)scale(0.7)" xlink:href="#DejaVuSans-Oblique-6c"/>
      <use transform="translate(326.723633 -15.625)scale(0.7)" xlink:href="#DejaVuSans-Oblique-69"/>
      <use transform="translate(346.171875 -15.625)scale(0.7)" xlink:href="#DejaVuSans-Oblique-6e"/>
      <use transform="translate(390.537109 -15.625)scale(0.7)" xlink:href="#DejaVuSans-Oblique-65"/>
      <use transform="translate(433.603516 -15.625)scale(0.7)" xlink:href="#DejaVuSans-36"/>
      <use transform="translate(478.139648 -15.625)scale(0.7)" xlink:href="#DejaVuSans-39"/>
     </g>
    </g>
    <g id="line2d_63">
     <path d="M 428.8 211.719687 
L 448.8 211.719687 
" style="fill:none;stroke:#008000;stroke-linecap:square;stroke-width:1.5;"/>
    </g>
    <g id="line2d_64"/>
    <g id="text_27">
     <!-- $status_{line72}$ -->
     <g transform="translate(456.8 215.219687)scale(0.1 -0.1)">
      <use transform="translate(0 0.78125)" xlink:href="#DejaVuSans-Oblique-73"/>
      <use transform="translate(52.099609 0.78125)" xlink:href="#DejaVuSans-Oblique-74"/>
      <use transform="translate(91.308594 0.78125)" xlink:href="#DejaVuSans-Oblique-61"/>
      <use transform="translate(152.587891 0.78125)" xlink:href="#DejaVuSans-Oblique-74"/>
      <use transform="translate(191.796875 0.78125)" xlink:href="#DejaVuSans-Oblique-75"/>
      <use transform="translate(255.175781 0.78125)" xlink:href="#DejaVuSans-Oblique-73"/>
      <use transform="translate(307.275391 -15.625)scale(0.7)" xlink:href="#DejaVuSans-Oblique-6c"/>
      <use transform="translate(326.723633 -15.625)scale(0.7)" xlink:href="#DejaVuSans-Oblique-69"/>
      <use transform="translate(346.171875 -15.625)scale(0.7)" xlink:href="#DejaVuSans-Oblique-6e"/>
      <use transform="translate(390.537109 -15.625)scale(0.7)" xlink:href="#DejaVuSans-Oblique-65"/>
      <use transform="translate(433.603516 -15.625)scale(0.7)" xlink:href="#DejaVuSans-37"/>
      <use transform="translate(478.139648 -15.625)scale(0.7)" xlink:href="#DejaVuSans-32"/>
     </g>
    </g>
    <g id="line2d_65">
     <path d="M 428.8 226.397812 
L 448.8 226.397812 
" style="fill:none;stroke:#0000ff;stroke-linecap:square;stroke-width:1.5;"/>
    </g>
    <g id="line2d_66"/>
    <g id="text_28">
     <!-- $status_{line75}$ -->
     <g transform="translate(456.8 229.897812)scale(0.1 -0.1)">
      <use transform="translate(0 0.78125)" xlink:href="#DejaVuSans-Oblique-73"/>
      <use transform="translate(52.099609 0.78125)" xlink:href="#DejaVuSans-Oblique-74"/>
      <use transform="translate(91.308594 0.78125)" xlink:href="#DejaVuSans-Oblique-61"/>
      <use transform="translate(152.587891 0.78125)" xlink:href="#DejaVuSans-Oblique-74"/>
      <use transform="translate(191.796875 0.78125)" xlink:href="#DejaVuSans-Oblique-75"/>
      <use transform="translate(255.175781 0.78125)" xlink:href="#DejaVuSans-Oblique-73"/>
      <use transform="translate(307.275391 -15.625)scale(0.7)" xlink:href="#DejaVuSans-Oblique-6c"/>
      <use transform="translate(326.723633 -15.625)scale(0.7)" xlink:href="#DejaVuSans-Oblique-69"/>
      <use transform="translate(346.171875 -15.625)scale(0.7)" xlink:href="#DejaVuSans-Oblique-6e"/>
      <use transform="translate(390.537109 -15.625)scale(0.7)" xlink:href="#DejaVuSans-Oblique-65"/>
      <use transform="translate(433.603516 -15.625)scale(0.7)" xlink:href="#DejaVuSans-37"/>
      <use transform="translate(478.139648 -15.625)scale(0.7)" xlink:href="#DejaVuSans-35"/>
     </g>
    </g>
    <g id="line2d_67">
     <path d="M 428.8 241.075937 
L 448.8 241.075937 
" style="fill:none;stroke:#000000;stroke-linecap:square;stroke-width:1.5;"/>
    </g>
    <g id="line2d_68"/>
    <g id="text_29">
     <!-- $status_{line78}$ -->
     <g transform="translate(456.8 244.575937)scale(0.1 -0.1)">
      <use transform="translate(0 0.78125)" xlink:href="#DejaVuSans-Oblique-73"/>
      <use transform="translate(52.099609 0.78125)" xlink:href="#DejaVuSans-Oblique-74"/>
      <use transform="translate(91.308594 0.78125)" xlink:href="#DejaVuSans-Oblique-61"/>
      <use transform="translate(152.587891 0.78125)" xlink:href="#DejaVuSans-Oblique-74"/>
      <use transform="translate(191.796875 0.78125)" xlink:href="#DejaVuSans-Oblique-75"/>
      <use transform="translate(255.175781 0.78125)" xlink:href="#DejaVuSans-Oblique-73"/>
      <use transform="translate(307.275391 -15.625)scale(0.7)" xlink:href="#DejaVuSans-Oblique-6c"/>
      <use transform="translate(326.723633 -15.625)scale(0.7)" xlink:href="#DejaVuSans-Oblique-69"/>
      <use transform="translate(346.171875 -15.625)scale(0.7)" xlink:href="#DejaVuSans-Oblique-6e"/>
      <use transform="translate(390.537109 -15.625)scale(0.7)" xlink:href="#DejaVuSans-Oblique-65"/>
      <use transform="translate(433.603516 -15.625)scale(0.7)" xlink:href="#DejaVuSans-37"/>
      <use transform="translate(478.139648 -15.625)scale(0.7)" xlink:href="#DejaVuSans-38"/>
     </g>
    </g>
    <g id="line2d_69">
     <path d="M 428.8 255.754062 
L 448.8 255.754062 
" style="fill:none;stroke:#bfbf00;stroke-linecap:square;stroke-width:1.5;"/>
    </g>
    <g id="line2d_70"/>
    <g id="text_30">
     <!-- $status_{line87}$ -->
     <g transform="translate(456.8 259.254062)scale(0.1 -0.1)">
      <use transform="translate(0 0.78125)" xlink:href="#DejaVuSans-Oblique-73"/>
      <use transform="translate(52.099609 0.78125)" xlink:href="#DejaVuSans-Oblique-74"/>
      <use transform="translate(91.308594 0.78125)" xlink:href="#DejaVuSans-Oblique-61"/>
      <use transform="translate(152.587891 0.78125)" xlink:href="#DejaVuSans-Oblique-74"/>
      <use transform="translate(191.796875 0.78125)" xlink:href="#DejaVuSans-Oblique-75"/>
      <use transform="translate(255.175781 0.78125)" xlink:href="#DejaVuSans-Oblique-73"/>
      <use transform="translate(307.275391 -15.625)scale(0.7)" xlink:href="#DejaVuSans-Oblique-6c"/>
      <use transform="translate(326.723633 -15.625)scale(0.7)" xlink:href="#DejaVuSans-Oblique-69"/>
      <use transform="translate(346.171875 -15.625)scale(0.7)" xlink:href="#DejaVuSans-Oblique-6e"/>
      <use transform="translate(390.537109 -15.625)scale(0.7)" xlink:href="#DejaVuSans-Oblique-65"/>
      <use transform="translate(433.603516 -15.625)scale(0.7)" xlink:href="#DejaVuSans-38"/>
      <use transform="translate(478.139648 -15.625)scale(0.7)" xlink:href="#DejaVuSans-37"/>
     </g>
    </g>
    <g id="line2d_71">
     <path d="M 428.8 270.432187 
L 448.8 270.432187 
" style="fill:none;stroke:#bf00bf;stroke-linecap:square;stroke-width:1.5;"/>
    </g>
    <g id="line2d_72"/>
    <g id="text_31">
     <!-- $status_{line89}$ -->
     <g transform="translate(456.8 273.932187)scale(0.1 -0.1)">
      <use transform="translate(0 0.78125)" xlink:href="#DejaVuSans-Oblique-73"/>
      <use transform="translate(52.099609 0.78125)" xlink:href="#DejaVuSans-Oblique-74"/>
      <use transform="translate(91.308594 0.78125)" xlink:href="#DejaVuSans-Oblique-61"/>
      <use transform="translate(152.587891 0.78125)" xlink:href="#DejaVuSans-Oblique-74"/>
      <use transform="translate(191.796875 0.78125)" xlink:href="#DejaVuSans-Oblique-75"/>
      <use transform="translate(255.175781 0.78125)" xlink:href="#DejaVuSans-Oblique-73"/>
      <use transform="translate(307.275391 -15.625)scale(0.7)" xlink:href="#DejaVuSans-Oblique-6c"/>
      <use transform="translate(326.723633 -15.625)scale(0.7)" xlink:href="#DejaVuSans-Oblique-69"/>
      <use transform="translate(346.171875 -15.625)scale(0.7)" xlink:href="#DejaVuSans-Oblique-6e"/>
      <use transform="translate(390.537109 -15.625)scale(0.7)" xlink:href="#DejaVuSans-Oblique-65"/>
      <use transform="translate(433.603516 -15.625)scale(0.7)" xlink:href="#DejaVuSans-38"/>
      <use transform="translate(478.139648 -15.625)scale(0.7)" xlink:href="#DejaVuSans-39"/>
     </g>
    </g>
    <g id="line2d_73">
     <path d="M 428.8 285.110312 
L 448.8 285.110312 
" style="fill:none;stroke:#00bfbf;stroke-linecap:square;stroke-width:1.5;"/>
    </g>
    <g id="line2d_74"/>
    <g id="text_32">
     <!-- $status_{line93}$ -->
     <g transform="translate(456.8 288.610312)scale(0.1 -0.1)">
      <use transform="translate(0 0.78125)" xlink:href="#DejaVuSans-Oblique-73"/>
      <use transform="translate(52.099609 0.78125)" xlink:href="#DejaVuSans-Oblique-74"/>
      <use transform="translate(91.308594 0.78125)" xlink:href="#DejaVuSans-Oblique-61"/>
      <use transform="translate(152.587891 0.78125)" xlink:href="#DejaVuSans-Oblique-74"/>
      <use transform="translate(191.796875 0.78125)" xlink:href="#DejaVuSans-Oblique-75"/>
      <use transform="translate(255.175781 0.78125)" xlink:href="#DejaVuSans-Oblique-73"/>
      <use transform="translate(307.275391 -15.625)scale(0.7)" xlink:href="#DejaVuSans-Oblique-6c"/>
      <use transform="translate(326.723633 -15.625)scale(0.7)" xlink:href="#DejaVuSans-Oblique-69"/>
      <use transform="translate(346.171875 -15.625)scale(0.7)" xlink:href="#DejaVuSans-Oblique-6e"/>
      <use transform="translate(390.537109 -15.625)scale(0.7)" xlink:href="#DejaVuSans-Oblique-65"/>
      <use transform="translate(433.603516 -15.625)scale(0.7)" xlink:href="#DejaVuSans-39"/>
      <use transform="translate(478.139648 -15.625)scale(0.7)" xlink:href="#DejaVuSans-33"/>
     </g>
    </g>
    <g id="line2d_75">
     <path d="M 428.8 299.788437 
L 448.8 299.788437 
" style="fill:none;stroke:#ff0000;stroke-linecap:square;stroke-width:1.5;"/>
    </g>
    <g id="line2d_76"/>
    <g id="text_33">
     <!-- $status_{line96}$ -->
     <g transform="translate(456.8 303.288437)scale(0.1 -0.1)">
      <use transform="translate(0 0.78125)" xlink:href="#DejaVuSans-Oblique-73"/>
      <use transform="translate(52.099609 0.78125)" xlink:href="#DejaVuSans-Oblique-74"/>
      <use transform="translate(91.308594 0.78125)" xlink:href="#DejaVuSans-Oblique-61"/>
      <use transform="translate(152.587891 0.78125)" xlink:href="#DejaVuSans-Oblique-74"/>
      <use transform="translate(191.796875 0.78125)" xlink:href="#DejaVuSans-Oblique-75"/>
      <use transform="translate(255.175781 0.78125)" xlink:href="#DejaVuSans-Oblique-73"/>
      <use transform="translate(307.275391 -15.625)scale(0.7)" xlink:href="#DejaVuSans-Oblique-6c"/>
      <use transform="translate(326.723633 -15.625)scale(0.7)" xlink:href="#DejaVuSans-Oblique-69"/>
      <use transform="translate(346.171875 -15.625)scale(0.7)" xlink:href="#DejaVuSans-Oblique-6e"/>
      <use transform="translate(390.537109 -15.625)scale(0.7)" xlink:href="#DejaVuSans-Oblique-65"/>
      <use transform="translate(433.603516 -15.625)scale(0.7)" xlink:href="#DejaVuSans-39"/>
      <use transform="translate(478.139648 -15.625)scale(0.7)" xlink:href="#DejaVuSans-36"/>
     </g>
    </g>
    <g id="line2d_77">
     <path d="M 428.8 314.466562 
L 448.8 314.466562 
" style="fill:none;stroke:#008000;stroke-linecap:square;stroke-width:1.5;"/>
    </g>
    <g id="line2d_78"/>
    <g id="text_34">
     <!-- $status_{line98}$ -->
     <g transform="translate(456.8 317.966562)scale(0.1 -0.1)">
      <use transform="translate(0 0.78125)" xlink:href="#DejaVuSans-Oblique-73"/>
      <use transform="translate(52.099609 0.78125)" xlink:href="#DejaVuSans-Oblique-74"/>
      <use transform="translate(91.308594 0.78125)" xlink:href="#DejaVuSans-Oblique-61"/>
      <use transform="translate(152.587891 0.78125)" xlink:href="#DejaVuSans-Oblique-74"/>
      <use transform="translate(191.796875 0.78125)" xlink:href="#DejaVuSans-Oblique-75"/>
      <use transform="translate(255.175781 0.78125)" xlink:href="#DejaVuSans-Oblique-73"/>
      <use transform="translate(307.275391 -15.625)scale(0.7)" xlink:href="#DejaVuSans-Oblique-6c"/>
      <use transform="translate(326.723633 -15.625)scale(0.7)" xlink:href="#DejaVuSans-Oblique-69"/>
      <use transform="translate(346.171875 -15.625)scale(0.7)" xlink:href="#DejaVuSans-Oblique-6e"/>
      <use transform="translate(390.537109 -15.625)scale(0.7)" xlink:href="#DejaVuSans-Oblique-65"/>
      <use transform="translate(433.603516 -15.625)scale(0.7)" xlink:href="#DejaVuSans-39"/>
      <use transform="translate(478.139648 -15.625)scale(0.7)" xlink:href="#DejaVuSans-38"/>
     </g>
    </g>
   </g>
  </g>
 </g>
 <defs>
  <clipPath id="pb78c8c9a7d">
   <rect height="332.64" width="446.4" x="72" y="51.84"/>
  </clipPath>
 </defs>
</svg>
