<?xml version="1.0" encoding="utf-8" standalone="no"?>
<!DOCTYPE svg PUBLIC "-//W3C//DTD SVG 1.1//EN"
  "http://www.w3.org/Graphics/SVG/1.1/DTD/svg11.dtd">
<!-- Created with matplotlib (http://matplotlib.org/) -->
<svg height="432pt" version="1.1" viewBox="0 0 576 432" width="576pt" xmlns="http://www.w3.org/2000/svg" xmlns:xlink="http://www.w3.org/1999/xlink">
 <defs>
  <style type="text/css">
*{stroke-linecap:butt;stroke-linejoin:round;}
  </style>
 </defs>
 <g id="figure_1">
  <g id="patch_1">
   <path d="M 0 432 
L 576 432 
L 576 0 
L 0 0 
z
" style="fill:#ffffff;"/>
  </g>
  <g id="axes_1">
   <g id="patch_2">
    <path d="M 72 384.48 
L 518.4 384.48 
L 518.4 51.84 
L 72 51.84 
z
" style="fill:#ffffff;"/>
   </g>
   <g id="matplotlib.axis_1">
    <g id="xtick_1">
     <g id="line2d_1">
      <path clip-path="url(#pcc9b81fa28)" d="M 92.290909 384.48 
L 92.290909 51.84 
" style="fill:none;stroke:#b0b0b0;stroke-dasharray:5.12,1.28,0.8,1.28;stroke-dashoffset:0;stroke-width:0.8;"/>
     </g>
     <g id="line2d_2">
      <defs>
       <path d="M 0 0 
L 0 3.5 
" id="m9a54eb6593" style="stroke:#000000;stroke-width:0.8;"/>
      </defs>
      <g>
       <use style="stroke:#000000;stroke-width:0.8;" x="92.290909" xlink:href="#m9a54eb6593" y="384.48"/>
      </g>
     </g>
     <g id="text_1">
      <!-- 0 -->
      <defs>
       <path d="M 31.78125 66.40625 
Q 24.171875 66.40625 20.328125 58.90625 
Q 16.5 51.421875 16.5 36.375 
Q 16.5 21.390625 20.328125 13.890625 
Q 24.171875 6.390625 31.78125 6.390625 
Q 39.453125 6.390625 43.28125 13.890625 
Q 47.125 21.390625 47.125 36.375 
Q 47.125 51.421875 43.28125 58.90625 
Q 39.453125 66.40625 31.78125 66.40625 
z
M 31.78125 74.21875 
Q 44.046875 74.21875 50.515625 64.515625 
Q 56.984375 54.828125 56.984375 36.375 
Q 56.984375 17.96875 50.515625 8.265625 
Q 44.046875 -1.421875 31.78125 -1.421875 
Q 19.53125 -1.421875 13.0625 8.265625 
Q 6.59375 17.96875 6.59375 36.375 
Q 6.59375 54.828125 13.0625 64.515625 
Q 19.53125 74.21875 31.78125 74.21875 
z
" id="DejaVuSans-30"/>
      </defs>
      <g transform="translate(89.109659 399.078438)scale(0.1 -0.1)">
       <use xlink:href="#DejaVuSans-30"/>
      </g>
     </g>
    </g>
    <g id="xtick_2">
     <g id="line2d_3">
      <path clip-path="url(#pcc9b81fa28)" d="M 155.635665 384.48 
L 155.635665 51.84 
" style="fill:none;stroke:#b0b0b0;stroke-dasharray:5.12,1.28,0.8,1.28;stroke-dashoffset:0;stroke-width:0.8;"/>
     </g>
     <g id="line2d_4">
      <g>
       <use style="stroke:#000000;stroke-width:0.8;" x="155.635665" xlink:href="#m9a54eb6593" y="384.48"/>
      </g>
     </g>
     <g id="text_2">
      <!-- 2000 -->
      <defs>
       <path d="M 19.1875 8.296875 
L 53.609375 8.296875 
L 53.609375 0 
L 7.328125 0 
L 7.328125 8.296875 
Q 12.9375 14.109375 22.625 23.890625 
Q 32.328125 33.6875 34.8125 36.53125 
Q 39.546875 41.84375 41.421875 45.53125 
Q 43.3125 49.21875 43.3125 52.78125 
Q 43.3125 58.59375 39.234375 62.25 
Q 35.15625 65.921875 28.609375 65.921875 
Q 23.96875 65.921875 18.8125 64.3125 
Q 13.671875 62.703125 7.8125 59.421875 
L 7.8125 69.390625 
Q 13.765625 71.78125 18.9375 73 
Q 24.125 74.21875 28.421875 74.21875 
Q 39.75 74.21875 46.484375 68.546875 
Q 53.21875 62.890625 53.21875 53.421875 
Q 53.21875 48.921875 51.53125 44.890625 
Q 49.859375 40.875 45.40625 35.40625 
Q 44.1875 33.984375 37.640625 27.21875 
Q 31.109375 20.453125 19.1875 8.296875 
z
" id="DejaVuSans-32"/>
      </defs>
      <g transform="translate(142.910665 399.078438)scale(0.1 -0.1)">
       <use xlink:href="#DejaVuSans-32"/>
       <use x="63.623047" xlink:href="#DejaVuSans-30"/>
       <use x="127.246094" xlink:href="#DejaVuSans-30"/>
       <use x="190.869141" xlink:href="#DejaVuSans-30"/>
      </g>
     </g>
    </g>
    <g id="xtick_3">
     <g id="line2d_5">
      <path clip-path="url(#pcc9b81fa28)" d="M 218.980422 384.48 
L 218.980422 51.84 
" style="fill:none;stroke:#b0b0b0;stroke-dasharray:5.12,1.28,0.8,1.28;stroke-dashoffset:0;stroke-width:0.8;"/>
     </g>
     <g id="line2d_6">
      <g>
       <use style="stroke:#000000;stroke-width:0.8;" x="218.980422" xlink:href="#m9a54eb6593" y="384.48"/>
      </g>
     </g>
     <g id="text_3">
      <!-- 4000 -->
      <defs>
       <path d="M 37.796875 64.3125 
L 12.890625 25.390625 
L 37.796875 25.390625 
z
M 35.203125 72.90625 
L 47.609375 72.90625 
L 47.609375 25.390625 
L 58.015625 25.390625 
L 58.015625 17.1875 
L 47.609375 17.1875 
L 47.609375 0 
L 37.796875 0 
L 37.796875 17.1875 
L 4.890625 17.1875 
L 4.890625 26.703125 
z
" id="DejaVuSans-34"/>
      </defs>
      <g transform="translate(206.255422 399.078438)scale(0.1 -0.1)">
       <use xlink:href="#DejaVuSans-34"/>
       <use x="63.623047" xlink:href="#DejaVuSans-30"/>
       <use x="127.246094" xlink:href="#DejaVuSans-30"/>
       <use x="190.869141" xlink:href="#DejaVuSans-30"/>
      </g>
     </g>
    </g>
    <g id="xtick_4">
     <g id="line2d_7">
      <path clip-path="url(#pcc9b81fa28)" d="M 282.325178 384.48 
L 282.325178 51.84 
" style="fill:none;stroke:#b0b0b0;stroke-dasharray:5.12,1.28,0.8,1.28;stroke-dashoffset:0;stroke-width:0.8;"/>
     </g>
     <g id="line2d_8">
      <g>
       <use style="stroke:#000000;stroke-width:0.8;" x="282.325178" xlink:href="#m9a54eb6593" y="384.48"/>
      </g>
     </g>
     <g id="text_4">
      <!-- 6000 -->
      <defs>
       <path d="M 33.015625 40.375 
Q 26.375 40.375 22.484375 35.828125 
Q 18.609375 31.296875 18.609375 23.390625 
Q 18.609375 15.53125 22.484375 10.953125 
Q 26.375 6.390625 33.015625 6.390625 
Q 39.65625 6.390625 43.53125 10.953125 
Q 47.40625 15.53125 47.40625 23.390625 
Q 47.40625 31.296875 43.53125 35.828125 
Q 39.65625 40.375 33.015625 40.375 
z
M 52.59375 71.296875 
L 52.59375 62.3125 
Q 48.875 64.0625 45.09375 64.984375 
Q 41.3125 65.921875 37.59375 65.921875 
Q 27.828125 65.921875 22.671875 59.328125 
Q 17.53125 52.734375 16.796875 39.40625 
Q 19.671875 43.65625 24.015625 45.921875 
Q 28.375 48.1875 33.59375 48.1875 
Q 44.578125 48.1875 50.953125 41.515625 
Q 57.328125 34.859375 57.328125 23.390625 
Q 57.328125 12.15625 50.6875 5.359375 
Q 44.046875 -1.421875 33.015625 -1.421875 
Q 20.359375 -1.421875 13.671875 8.265625 
Q 6.984375 17.96875 6.984375 36.375 
Q 6.984375 53.65625 15.1875 63.9375 
Q 23.390625 74.21875 37.203125 74.21875 
Q 40.921875 74.21875 44.703125 73.484375 
Q 48.484375 72.75 52.59375 71.296875 
z
" id="DejaVuSans-36"/>
      </defs>
      <g transform="translate(269.600178 399.078438)scale(0.1 -0.1)">
       <use xlink:href="#DejaVuSans-36"/>
       <use x="63.623047" xlink:href="#DejaVuSans-30"/>
       <use x="127.246094" xlink:href="#DejaVuSans-30"/>
       <use x="190.869141" xlink:href="#DejaVuSans-30"/>
      </g>
     </g>
    </g>
    <g id="xtick_5">
     <g id="line2d_9">
      <path clip-path="url(#pcc9b81fa28)" d="M 345.669935 384.48 
L 345.669935 51.84 
" style="fill:none;stroke:#b0b0b0;stroke-dasharray:5.12,1.28,0.8,1.28;stroke-dashoffset:0;stroke-width:0.8;"/>
     </g>
     <g id="line2d_10">
      <g>
       <use style="stroke:#000000;stroke-width:0.8;" x="345.669935" xlink:href="#m9a54eb6593" y="384.48"/>
      </g>
     </g>
     <g id="text_5">
      <!-- 8000 -->
      <defs>
       <path d="M 31.78125 34.625 
Q 24.75 34.625 20.71875 30.859375 
Q 16.703125 27.09375 16.703125 20.515625 
Q 16.703125 13.921875 20.71875 10.15625 
Q 24.75 6.390625 31.78125 6.390625 
Q 38.8125 6.390625 42.859375 10.171875 
Q 46.921875 13.96875 46.921875 20.515625 
Q 46.921875 27.09375 42.890625 30.859375 
Q 38.875 34.625 31.78125 34.625 
z
M 21.921875 38.8125 
Q 15.578125 40.375 12.03125 44.71875 
Q 8.5 49.078125 8.5 55.328125 
Q 8.5 64.0625 14.71875 69.140625 
Q 20.953125 74.21875 31.78125 74.21875 
Q 42.671875 74.21875 48.875 69.140625 
Q 55.078125 64.0625 55.078125 55.328125 
Q 55.078125 49.078125 51.53125 44.71875 
Q 48 40.375 41.703125 38.8125 
Q 48.828125 37.15625 52.796875 32.3125 
Q 56.78125 27.484375 56.78125 20.515625 
Q 56.78125 9.90625 50.3125 4.234375 
Q 43.84375 -1.421875 31.78125 -1.421875 
Q 19.734375 -1.421875 13.25 4.234375 
Q 6.78125 9.90625 6.78125 20.515625 
Q 6.78125 27.484375 10.78125 32.3125 
Q 14.796875 37.15625 21.921875 38.8125 
z
M 18.3125 54.390625 
Q 18.3125 48.734375 21.84375 45.5625 
Q 25.390625 42.390625 31.78125 42.390625 
Q 38.140625 42.390625 41.71875 45.5625 
Q 45.3125 48.734375 45.3125 54.390625 
Q 45.3125 60.0625 41.71875 63.234375 
Q 38.140625 66.40625 31.78125 66.40625 
Q 25.390625 66.40625 21.84375 63.234375 
Q 18.3125 60.0625 18.3125 54.390625 
z
" id="DejaVuSans-38"/>
      </defs>
      <g transform="translate(332.944935 399.078438)scale(0.1 -0.1)">
       <use xlink:href="#DejaVuSans-38"/>
       <use x="63.623047" xlink:href="#DejaVuSans-30"/>
       <use x="127.246094" xlink:href="#DejaVuSans-30"/>
       <use x="190.869141" xlink:href="#DejaVuSans-30"/>
      </g>
     </g>
    </g>
    <g id="xtick_6">
     <g id="line2d_11">
      <path clip-path="url(#pcc9b81fa28)" d="M 409.014691 384.48 
L 409.014691 51.84 
" style="fill:none;stroke:#b0b0b0;stroke-dasharray:5.12,1.28,0.8,1.28;stroke-dashoffset:0;stroke-width:0.8;"/>
     </g>
     <g id="line2d_12">
      <g>
       <use style="stroke:#000000;stroke-width:0.8;" x="409.014691" xlink:href="#m9a54eb6593" y="384.48"/>
      </g>
     </g>
     <g id="text_6">
      <!-- 10000 -->
      <defs>
       <path d="M 12.40625 8.296875 
L 28.515625 8.296875 
L 28.515625 63.921875 
L 10.984375 60.40625 
L 10.984375 69.390625 
L 28.421875 72.90625 
L 38.28125 72.90625 
L 38.28125 8.296875 
L 54.390625 8.296875 
L 54.390625 0 
L 12.40625 0 
z
" id="DejaVuSans-31"/>
      </defs>
      <g transform="translate(393.108441 399.078438)scale(0.1 -0.1)">
       <use xlink:href="#DejaVuSans-31"/>
       <use x="63.623047" xlink:href="#DejaVuSans-30"/>
       <use x="127.246094" xlink:href="#DejaVuSans-30"/>
       <use x="190.869141" xlink:href="#DejaVuSans-30"/>
       <use x="254.492188" xlink:href="#DejaVuSans-30"/>
      </g>
     </g>
    </g>
    <g id="xtick_7">
     <g id="line2d_13">
      <path clip-path="url(#pcc9b81fa28)" d="M 472.359447 384.48 
L 472.359447 51.84 
" style="fill:none;stroke:#b0b0b0;stroke-dasharray:5.12,1.28,0.8,1.28;stroke-dashoffset:0;stroke-width:0.8;"/>
     </g>
     <g id="line2d_14">
      <g>
       <use style="stroke:#000000;stroke-width:0.8;" x="472.359447" xlink:href="#m9a54eb6593" y="384.48"/>
      </g>
     </g>
     <g id="text_7">
      <!-- 12000 -->
      <g transform="translate(456.453197 399.078438)scale(0.1 -0.1)">
       <use xlink:href="#DejaVuSans-31"/>
       <use x="63.623047" xlink:href="#DejaVuSans-32"/>
       <use x="127.246094" xlink:href="#DejaVuSans-30"/>
       <use x="190.869141" xlink:href="#DejaVuSans-30"/>
       <use x="254.492188" xlink:href="#DejaVuSans-30"/>
      </g>
     </g>
    </g>
    <g id="text_8">
     <!-- Iteration -->
     <defs>
      <path d="M 9.8125 72.90625 
L 19.671875 72.90625 
L 19.671875 0 
L 9.8125 0 
z
" id="DejaVuSans-49"/>
      <path d="M 18.3125 70.21875 
L 18.3125 54.6875 
L 36.8125 54.6875 
L 36.8125 47.703125 
L 18.3125 47.703125 
L 18.3125 18.015625 
Q 18.3125 11.328125 20.140625 9.421875 
Q 21.96875 7.515625 27.59375 7.515625 
L 36.8125 7.515625 
L 36.8125 0 
L 27.59375 0 
Q 17.1875 0 13.234375 3.875 
Q 9.28125 7.765625 9.28125 18.015625 
L 9.28125 47.703125 
L 2.6875 47.703125 
L 2.6875 54.6875 
L 9.28125 54.6875 
L 9.28125 70.21875 
z
" id="DejaVuSans-74"/>
      <path d="M 56.203125 29.59375 
L 56.203125 25.203125 
L 14.890625 25.203125 
Q 15.484375 15.921875 20.484375 11.0625 
Q 25.484375 6.203125 34.421875 6.203125 
Q 39.59375 6.203125 44.453125 7.46875 
Q 49.3125 8.734375 54.109375 11.28125 
L 54.109375 2.78125 
Q 49.265625 0.734375 44.1875 -0.34375 
Q 39.109375 -1.421875 33.890625 -1.421875 
Q 20.796875 -1.421875 13.15625 6.1875 
Q 5.515625 13.8125 5.515625 26.8125 
Q 5.515625 40.234375 12.765625 48.109375 
Q 20.015625 56 32.328125 56 
Q 43.359375 56 49.78125 48.890625 
Q 56.203125 41.796875 56.203125 29.59375 
z
M 47.21875 32.234375 
Q 47.125 39.59375 43.09375 43.984375 
Q 39.0625 48.390625 32.421875 48.390625 
Q 24.90625 48.390625 20.390625 44.140625 
Q 15.875 39.890625 15.1875 32.171875 
z
" id="DejaVuSans-65"/>
      <path d="M 41.109375 46.296875 
Q 39.59375 47.171875 37.8125 47.578125 
Q 36.03125 48 33.890625 48 
Q 26.265625 48 22.1875 43.046875 
Q 18.109375 38.09375 18.109375 28.8125 
L 18.109375 0 
L 9.078125 0 
L 9.078125 54.6875 
L 18.109375 54.6875 
L 18.109375 46.1875 
Q 20.953125 51.171875 25.484375 53.578125 
Q 30.03125 56 36.53125 56 
Q 37.453125 56 38.578125 55.875 
Q 39.703125 55.765625 41.0625 55.515625 
z
" id="DejaVuSans-72"/>
      <path d="M 34.28125 27.484375 
Q 23.390625 27.484375 19.1875 25 
Q 14.984375 22.515625 14.984375 16.5 
Q 14.984375 11.71875 18.140625 8.90625 
Q 21.296875 6.109375 26.703125 6.109375 
Q 34.1875 6.109375 38.703125 11.40625 
Q 43.21875 16.703125 43.21875 25.484375 
L 43.21875 27.484375 
z
M 52.203125 31.203125 
L 52.203125 0 
L 43.21875 0 
L 43.21875 8.296875 
Q 40.140625 3.328125 35.546875 0.953125 
Q 30.953125 -1.421875 24.3125 -1.421875 
Q 15.921875 -1.421875 10.953125 3.296875 
Q 6 8.015625 6 15.921875 
Q 6 25.140625 12.171875 29.828125 
Q 18.359375 34.515625 30.609375 34.515625 
L 43.21875 34.515625 
L 43.21875 35.40625 
Q 43.21875 41.609375 39.140625 45 
Q 35.0625 48.390625 27.6875 48.390625 
Q 23 48.390625 18.546875 47.265625 
Q 14.109375 46.140625 10.015625 43.890625 
L 10.015625 52.203125 
Q 14.9375 54.109375 19.578125 55.046875 
Q 24.21875 56 28.609375 56 
Q 40.484375 56 46.34375 49.84375 
Q 52.203125 43.703125 52.203125 31.203125 
z
" id="DejaVuSans-61"/>
      <path d="M 9.421875 54.6875 
L 18.40625 54.6875 
L 18.40625 0 
L 9.421875 0 
z
M 9.421875 75.984375 
L 18.40625 75.984375 
L 18.40625 64.59375 
L 9.421875 64.59375 
z
" id="DejaVuSans-69"/>
      <path d="M 30.609375 48.390625 
Q 23.390625 48.390625 19.1875 42.75 
Q 14.984375 37.109375 14.984375 27.296875 
Q 14.984375 17.484375 19.15625 11.84375 
Q 23.34375 6.203125 30.609375 6.203125 
Q 37.796875 6.203125 41.984375 11.859375 
Q 46.1875 17.53125 46.1875 27.296875 
Q 46.1875 37.015625 41.984375 42.703125 
Q 37.796875 48.390625 30.609375 48.390625 
z
M 30.609375 56 
Q 42.328125 56 49.015625 48.375 
Q 55.71875 40.765625 55.71875 27.296875 
Q 55.71875 13.875 49.015625 6.21875 
Q 42.328125 -1.421875 30.609375 -1.421875 
Q 18.84375 -1.421875 12.171875 6.21875 
Q 5.515625 13.875 5.515625 27.296875 
Q 5.515625 40.765625 12.171875 48.375 
Q 18.84375 56 30.609375 56 
z
" id="DejaVuSans-6f"/>
      <path d="M 54.890625 33.015625 
L 54.890625 0 
L 45.90625 0 
L 45.90625 32.71875 
Q 45.90625 40.484375 42.875 44.328125 
Q 39.84375 48.1875 33.796875 48.1875 
Q 26.515625 48.1875 22.3125 43.546875 
Q 18.109375 38.921875 18.109375 30.90625 
L 18.109375 0 
L 9.078125 0 
L 9.078125 54.6875 
L 18.109375 54.6875 
L 18.109375 46.1875 
Q 21.34375 51.125 25.703125 53.5625 
Q 30.078125 56 35.796875 56 
Q 45.21875 56 50.046875 50.171875 
Q 54.890625 44.34375 54.890625 33.015625 
z
" id="DejaVuSans-6e"/>
     </defs>
     <g transform="translate(265.507969 415.795938)scale(0.14 -0.14)">
      <use xlink:href="#DejaVuSans-49"/>
      <use x="29.492188" xlink:href="#DejaVuSans-74"/>
      <use x="68.701172" xlink:href="#DejaVuSans-65"/>
      <use x="130.224609" xlink:href="#DejaVuSans-72"/>
      <use x="171.337891" xlink:href="#DejaVuSans-61"/>
      <use x="232.617188" xlink:href="#DejaVuSans-74"/>
      <use x="271.826172" xlink:href="#DejaVuSans-69"/>
      <use x="299.609375" xlink:href="#DejaVuSans-6f"/>
      <use x="360.791016" xlink:href="#DejaVuSans-6e"/>
     </g>
    </g>
   </g>
   <g id="matplotlib.axis_2">
    <g id="ytick_1">
     <g id="line2d_15">
      <path clip-path="url(#pcc9b81fa28)" d="M 72 339.12 
L 518.4 339.12 
" style="fill:none;stroke:#b0b0b0;stroke-dasharray:5.12,1.28,0.8,1.28;stroke-dashoffset:0;stroke-width:0.8;"/>
     </g>
     <g id="line2d_16">
      <defs>
       <path d="M 0 0 
L -3.5 0 
" id="m1ef12f1784" style="stroke:#000000;stroke-width:0.8;"/>
      </defs>
      <g>
       <use style="stroke:#000000;stroke-width:0.8;" x="72" xlink:href="#m1ef12f1784" y="339.12"/>
      </g>
     </g>
     <g id="text_9">
      <!-- 330 -->
      <defs>
       <path d="M 40.578125 39.3125 
Q 47.65625 37.796875 51.625 33 
Q 55.609375 28.21875 55.609375 21.1875 
Q 55.609375 10.40625 48.1875 4.484375 
Q 40.765625 -1.421875 27.09375 -1.421875 
Q 22.515625 -1.421875 17.65625 -0.515625 
Q 12.796875 0.390625 7.625 2.203125 
L 7.625 11.71875 
Q 11.71875 9.328125 16.59375 8.109375 
Q 21.484375 6.890625 26.8125 6.890625 
Q 36.078125 6.890625 40.9375 10.546875 
Q 45.796875 14.203125 45.796875 21.1875 
Q 45.796875 27.640625 41.28125 31.265625 
Q 36.765625 34.90625 28.71875 34.90625 
L 20.21875 34.90625 
L 20.21875 43.015625 
L 29.109375 43.015625 
Q 36.375 43.015625 40.234375 45.921875 
Q 44.09375 48.828125 44.09375 54.296875 
Q 44.09375 59.90625 40.109375 62.90625 
Q 36.140625 65.921875 28.71875 65.921875 
Q 24.65625 65.921875 20.015625 65.03125 
Q 15.375 64.15625 9.8125 62.3125 
L 9.8125 71.09375 
Q 15.4375 72.65625 20.34375 73.4375 
Q 25.25 74.21875 29.59375 74.21875 
Q 40.828125 74.21875 47.359375 69.109375 
Q 53.90625 64.015625 53.90625 55.328125 
Q 53.90625 49.265625 50.4375 45.09375 
Q 46.96875 40.921875 40.578125 39.3125 
z
" id="DejaVuSans-33"/>
      </defs>
      <g transform="translate(45.9125 342.919219)scale(0.1 -0.1)">
       <use xlink:href="#DejaVuSans-33"/>
       <use x="63.623047" xlink:href="#DejaVuSans-33"/>
       <use x="127.246094" xlink:href="#DejaVuSans-30"/>
      </g>
     </g>
    </g>
    <g id="ytick_2">
     <g id="line2d_17">
      <path clip-path="url(#pcc9b81fa28)" d="M 72 278.64 
L 518.4 278.64 
" style="fill:none;stroke:#b0b0b0;stroke-dasharray:5.12,1.28,0.8,1.28;stroke-dashoffset:0;stroke-width:0.8;"/>
     </g>
     <g id="line2d_18">
      <g>
       <use style="stroke:#000000;stroke-width:0.8;" x="72" xlink:href="#m1ef12f1784" y="278.64"/>
      </g>
     </g>
     <g id="text_10">
      <!-- 340 -->
      <g transform="translate(45.9125 282.439219)scale(0.1 -0.1)">
       <use xlink:href="#DejaVuSans-33"/>
       <use x="63.623047" xlink:href="#DejaVuSans-34"/>
       <use x="127.246094" xlink:href="#DejaVuSans-30"/>
      </g>
     </g>
    </g>
    <g id="ytick_3">
     <g id="line2d_19">
      <path clip-path="url(#pcc9b81fa28)" d="M 72 218.16 
L 518.4 218.16 
" style="fill:none;stroke:#b0b0b0;stroke-dasharray:5.12,1.28,0.8,1.28;stroke-dashoffset:0;stroke-width:0.8;"/>
     </g>
     <g id="line2d_20">
      <g>
       <use style="stroke:#000000;stroke-width:0.8;" x="72" xlink:href="#m1ef12f1784" y="218.16"/>
      </g>
     </g>
     <g id="text_11">
      <!-- 350 -->
      <defs>
       <path d="M 10.796875 72.90625 
L 49.515625 72.90625 
L 49.515625 64.59375 
L 19.828125 64.59375 
L 19.828125 46.734375 
Q 21.96875 47.46875 24.109375 47.828125 
Q 26.265625 48.1875 28.421875 48.1875 
Q 40.625 48.1875 47.75 41.5 
Q 54.890625 34.8125 54.890625 23.390625 
Q 54.890625 11.625 47.5625 5.09375 
Q 40.234375 -1.421875 26.90625 -1.421875 
Q 22.3125 -1.421875 17.546875 -0.640625 
Q 12.796875 0.140625 7.71875 1.703125 
L 7.71875 11.625 
Q 12.109375 9.234375 16.796875 8.0625 
Q 21.484375 6.890625 26.703125 6.890625 
Q 35.15625 6.890625 40.078125 11.328125 
Q 45.015625 15.765625 45.015625 23.390625 
Q 45.015625 31 40.078125 35.4375 
Q 35.15625 39.890625 26.703125 39.890625 
Q 22.75 39.890625 18.8125 39.015625 
Q 14.890625 38.140625 10.796875 36.28125 
z
" id="DejaVuSans-35"/>
      </defs>
      <g transform="translate(45.9125 221.959219)scale(0.1 -0.1)">
       <use xlink:href="#DejaVuSans-33"/>
       <use x="63.623047" xlink:href="#DejaVuSans-35"/>
       <use x="127.246094" xlink:href="#DejaVuSans-30"/>
      </g>
     </g>
    </g>
    <g id="ytick_4">
     <g id="line2d_21">
      <path clip-path="url(#pcc9b81fa28)" d="M 72 157.68 
L 518.4 157.68 
" style="fill:none;stroke:#b0b0b0;stroke-dasharray:5.12,1.28,0.8,1.28;stroke-dashoffset:0;stroke-width:0.8;"/>
     </g>
     <g id="line2d_22">
      <g>
       <use style="stroke:#000000;stroke-width:0.8;" x="72" xlink:href="#m1ef12f1784" y="157.68"/>
      </g>
     </g>
     <g id="text_12">
      <!-- 360 -->
      <g transform="translate(45.9125 161.479219)scale(0.1 -0.1)">
       <use xlink:href="#DejaVuSans-33"/>
       <use x="63.623047" xlink:href="#DejaVuSans-36"/>
       <use x="127.246094" xlink:href="#DejaVuSans-30"/>
      </g>
     </g>
    </g>
    <g id="ytick_5">
     <g id="line2d_23">
      <path clip-path="url(#pcc9b81fa28)" d="M 72 97.2 
L 518.4 97.2 
" style="fill:none;stroke:#b0b0b0;stroke-dasharray:5.12,1.28,0.8,1.28;stroke-dashoffset:0;stroke-width:0.8;"/>
     </g>
     <g id="line2d_24">
      <g>
       <use style="stroke:#000000;stroke-width:0.8;" x="72" xlink:href="#m1ef12f1784" y="97.2"/>
      </g>
     </g>
     <g id="text_13">
      <!-- 370 -->
      <defs>
       <path d="M 8.203125 72.90625 
L 55.078125 72.90625 
L 55.078125 68.703125 
L 28.609375 0 
L 18.3125 0 
L 43.21875 64.59375 
L 8.203125 64.59375 
z
" id="DejaVuSans-37"/>
      </defs>
      <g transform="translate(45.9125 100.999219)scale(0.1 -0.1)">
       <use xlink:href="#DejaVuSans-33"/>
       <use x="63.623047" xlink:href="#DejaVuSans-37"/>
       <use x="127.246094" xlink:href="#DejaVuSans-30"/>
      </g>
     </g>
    </g>
    <g id="text_14">
     <!-- $u_{m}[V]$ -->
     <defs>
      <path d="M 6.6875 21.6875 
L 13.09375 54.6875 
L 22.125 54.6875 
L 15.71875 22.015625 
Q 15.234375 19.625 15.015625 17.921875 
Q 14.796875 16.21875 14.796875 15.09375 
Q 14.796875 10.9375 17.328125 8.65625 
Q 19.875 6.390625 24.515625 6.390625 
Q 31.734375 6.390625 37 11.265625 
Q 42.28125 16.15625 43.890625 24.421875 
L 49.90625 54.6875 
L 58.890625 54.6875 
L 48.296875 0 
L 39.3125 0 
L 41.109375 8.59375 
Q 37.3125 3.8125 32.0625 1.1875 
Q 26.8125 -1.421875 20.90625 -1.421875 
Q 13.71875 -1.421875 9.71875 2.515625 
Q 5.71875 6.453125 5.71875 13.484375 
Q 5.71875 14.9375 5.953125 17.140625 
Q 6.203125 19.34375 6.6875 21.6875 
z
" id="DejaVuSans-Oblique-75"/>
      <path d="M 89.796875 33.015625 
L 83.40625 0 
L 74.421875 0 
L 80.71875 32.71875 
Q 81.109375 34.8125 81.296875 36.328125 
Q 81.5 37.84375 81.5 38.921875 
Q 81.5 43.3125 79.046875 45.75 
Q 76.609375 48.1875 72.21875 48.1875 
Q 65.671875 48.1875 60.546875 43.28125 
Q 55.421875 38.375 53.90625 30.515625 
L 47.90625 0 
L 38.921875 0 
L 45.3125 32.71875 
Q 45.703125 34.515625 45.890625 36.046875 
Q 46.09375 37.59375 46.09375 38.8125 
Q 46.09375 43.265625 43.65625 45.71875 
Q 41.21875 48.1875 36.921875 48.1875 
Q 30.28125 48.1875 25.140625 43.28125 
Q 20.015625 38.375 18.5 30.515625 
L 12.5 0 
L 3.515625 0 
L 14.203125 54.6875 
L 23.1875 54.6875 
L 21.484375 46.1875 
Q 25.140625 50.984375 30.046875 53.484375 
Q 34.96875 56 40.578125 56 
Q 46.53125 56 50.359375 52.875 
Q 54.203125 49.75 54.984375 44.1875 
Q 59.078125 49.953125 64.46875 52.96875 
Q 69.875 56 75.875 56 
Q 82.90625 56 86.734375 51.953125 
Q 90.578125 47.90625 90.578125 40.484375 
Q 90.578125 38.875 90.375 36.9375 
Q 90.1875 35.015625 89.796875 33.015625 
z
" id="DejaVuSans-Oblique-6d"/>
      <path d="M 8.59375 75.984375 
L 29.296875 75.984375 
L 29.296875 69 
L 17.578125 69 
L 17.578125 -6.203125 
L 29.296875 -6.203125 
L 29.296875 -13.1875 
L 8.59375 -13.1875 
z
" id="DejaVuSans-5b"/>
      <path d="M 20.609375 0 
L 7.8125 72.90625 
L 17.484375 72.90625 
L 28.078125 10.203125 
L 63.484375 72.90625 
L 74.21875 72.90625 
L 32.078125 0 
z
" id="DejaVuSans-Oblique-56"/>
      <path d="M 30.421875 75.984375 
L 30.421875 -13.1875 
L 9.71875 -13.1875 
L 9.71875 -6.203125 
L 21.390625 -6.203125 
L 21.390625 69 
L 9.71875 69 
L 9.71875 75.984375 
z
" id="DejaVuSans-5d"/>
     </defs>
     <g transform="translate(39.000937 237.83)rotate(-90)scale(0.14 -0.14)">
      <use transform="translate(0 0.015625)" xlink:href="#DejaVuSans-Oblique-75"/>
      <use transform="translate(63.378906 -16.390625)scale(0.7)" xlink:href="#DejaVuSans-Oblique-6d"/>
      <use transform="translate(134.301758 0.015625)" xlink:href="#DejaVuSans-5b"/>
      <use transform="translate(173.31543 0.015625)" xlink:href="#DejaVuSans-Oblique-56"/>
      <use transform="translate(241.723633 0.015625)" xlink:href="#DejaVuSans-5d"/>
     </g>
    </g>
   </g>
   <g id="line2d_25">
    <path clip-path="url(#pcc9b81fa28)" d="M 92.290909 218.16 
L 92.322581 218.16 
L 92.354254 218.246486 
L 92.449271 219.937507 
L 92.734322 232.623792 
L 94.381286 309.640234 
L 95.616509 361.371197 
L 95.838215 363.46441 
L 95.90156 363.546058 
L 95.964905 363.474691 
L 96.123267 362.808806 
L 96.503335 359.835005 
L 97.326817 353.583792 
L 97.801903 351.506909 
L 98.150299 350.805341 
L 98.403678 350.730346 
L 98.783747 350.741232 
L 99.163815 350.42976 
L 99.607228 350.152157 
L 99.89228 350.207798 
L 100.272348 350.55072 
L 101.254192 351.584928 
L 101.475899 351.302486 
L 101.88764 350.42976 
L 102.236036 347.936774 
L 103.249552 340.724534 
L 103.534603 339.98305 
L 103.62962 340.038086 
L 103.787982 340.544304 
L 104.009689 342.202666 
L 104.326413 346.479206 
L 105.466618 363.984538 
L 105.878359 366.80351 
L 106.131738 367.293398 
L 106.2901 367.263763 
L 106.543479 366.911165 
L 107.905392 364.537325 
L 108.443822 364.086144 
L 108.792218 364.075258 
L 109.393993 364.17263 
L 110.185803 363.65855 
L 111.262664 363.07008 
L 111.959456 362.871101 
L 112.497886 362.969683 
L 114.14485 363.455942 
L 115.3484 363.394253 
L 118.452293 363.205555 
L 119.972568 363.218256 
L 120.447653 362.851142 
L 121.9996 361.510301 
L 123.963287 360.379325 
L 125.705268 358.98768 
L 127.954007 357.664378 
L 129.379264 356.736614 
L 137.772444 352.533254 
L 142.11156 350.74849 
L 146.545693 349.172381 
L 151.29655 347.746262 
L 152.690134 347.368867 
L 154.210408 346.930387 
L 156.522492 346.3776 
L 158.264473 345.994157 
L 164.282225 344.731939 
L 165.675809 344.247494 
L 167.164411 343.47335 
L 168.589668 342.477245 
L 170.204959 341.042659 
L 171.820251 339.282691 
L 173.40387 337.240886 
L 175.177523 334.580976 
L 177.109538 331.235222 
L 179.041553 327.423773 
L 181.13193 322.77649 
L 183.380669 317.173622 
L 185.66108 310.858301 
L 187.973164 303.810566 
L 190.475281 295.461907 
L 193.009072 286.255642 
L 195.732896 275.530723 
L 198.551738 263.55024 
L 201.623959 249.499526 
L 204.791196 233.965843 
L 208.085124 216.725414 
L 211.695775 196.612186 
L 215.338098 175.101869 
L 219.392163 149.804294 
L 223.636261 121.897008 
L 226.360086 104.238662 
L 227.088551 101.408803 
L 227.817015 99.410544 
L 228.54548 98.042486 
L 229.242272 97.18488 
L 229.939065 96.664147 
L 230.667529 96.392592 
L 231.522684 96.338765 
L 232.472855 96.517786 
L 233.613061 96.954451 
L 235.418386 97.935437 
L 238.522279 99.961517 
L 246.440374 105.120461 
L 251.381265 107.917056 
L 256.227139 110.290896 
L 262.593287 113.088096 
L 263.955199 113.388682 
L 265.285439 113.431018 
L 266.964075 113.22599 
L 268.89609 113.002214 
L 270.448036 113.109869 
L 272.443396 113.449162 
L 276.08572 114.327331 
L 279.062923 115.010755 
L 280.836576 115.139578 
L 283.021971 115.029504 
L 285.492416 114.950275 
L 287.709483 115.143811 
L 291.256789 115.66031 
L 294.804095 116.159875 
L 296.926145 116.213098 
L 302.912224 116.209469 
L 308.961648 116.782819 
L 311.337077 116.90015 
L 314.377625 116.847533 
L 317.133122 116.851162 
L 323.340908 117.198922 
L 328.250127 117.37008 
L 334.996343 117.350726 
L 344.656419 117.608976 
L 349.882361 117.619258 
L 363.976569 117.777715 
L 378.989277 117.888394 
L 387.889215 117.947664 
L 393.273519 117.954922 
L 401.159941 117.994838 
L 497.919057 118.074672 
L 497.919057 118.074672 
" style="fill:none;stroke:#bf00bf;stroke-linecap:square;stroke-width:1.5;"/>
   </g>
   <g id="line2d_26">
    <path clip-path="url(#pcc9b81fa28)" d="M 92.290909 218.16 
L 92.385926 218.257978 
L 92.480943 219.82199 
L 92.797667 231.825456 
L 95.964905 361.927008 
L 96.154939 362.896502 
L 96.249956 362.775542 
L 96.439991 361.825402 
L 98.150299 350.71704 
L 98.657057 349.363498 
L 99.955625 343.751558 
L 100.304021 343.213891 
L 100.589072 343.129219 
L 100.905796 343.305821 
L 101.76095 343.965658 
L 101.855967 343.678378 
L 102.077674 341.926877 
L 102.742794 334.470298 
L 102.901156 329.363971 
L 103.566276 295.108099 
L 104.073034 275.915376 
L 104.389758 270.800582 
L 104.548119 270.294365 
L 104.643137 270.578016 
L 105.023205 273.277238 
L 105.815015 279.102672 
L 106.068394 279.720778 
L 106.195083 279.706262 
L 106.353445 279.383904 
L 108.697201 272.020464 
L 109.108942 271.499731 
L 110.597544 270.286502 
L 111.674405 269.499658 
L 112.212835 269.333942 
L 112.719593 269.405309 
L 114.461574 269.855885 
L 115.728469 269.7948 
L 118.610655 269.575862 
L 120.510998 269.612755 
L 121.524514 269.620013 
L 122.157962 269.889149 
L 124.153322 270.944525 
L 125.831958 271.438042 
L 127.85899 272.327098 
L 129.695988 272.89319 
L 131.564658 273.562099 
L 137.58241 275.285779 
L 140.179545 275.914771 
L 144.898729 276.972566 
L 149.617914 277.861018 
L 151.16986 278.117453 
L 152.595117 278.387194 
L 154.875528 278.714995 
L 156.427475 278.930304 
L 158.834576 279.270806 
L 162.35021 279.695981 
L 164.915672 279.881654 
L 166.150895 279.751622 
L 167.449463 279.418982 
L 168.906392 278.80511 
L 170.236632 278.023104 
L 171.725234 276.895757 
L 173.372197 275.337187 
L 175.019161 273.451421 
L 176.697797 271.191888 
L 178.344761 268.64447 
L 180.181759 265.416653 
L 182.177118 261.450374 
L 184.362513 256.558752 
L 186.547907 251.098618 
L 188.733301 245.07481 
L 191.108729 237.894624 
L 193.705864 229.300416 
L 196.366344 219.705264 
L 199.216858 208.553962 
L 202.130717 196.246886 
L 205.361299 181.560528 
L 208.655227 165.49825 
L 211.917482 148.551149 
L 215.528133 128.642342 
L 219.265473 106.827206 
L 223.414555 81.256262 
L 225.758311 66.96 
L 259.04598 67.066445 
L 261.358064 67.576291 
L 262.973355 67.802486 
L 264.36694 67.773456 
L 266.013903 67.473475 
L 268.516021 66.96 
L 275.198893 67.070074 
L 279.538009 67.455936 
L 281.248317 67.347677 
L 285.587433 66.96 
L 291.161772 67.070074 
L 295.184164 67.267843 
L 297.274541 67.158979 
L 301.328605 66.96 
L 307.378029 67.070678 
L 311.748818 67.128134 
L 319.033465 66.96 
L 324.322752 67.070678 
L 328.883574 67.047696 
L 334.077844 66.96 
L 498.077419 66.960605 
L 498.077419 66.960605 
" style="fill:none;stroke:#00bfbf;stroke-linecap:square;stroke-width:1.5;"/>
   </g>
   <g id="line2d_27">
    <path clip-path="url(#pcc9b81fa28)" d="M 92.290909 218.16 
L 92.385926 218.224714 
L 92.480943 219.32545 
L 92.765995 227.215066 
L 93.494459 255.021955 
L 95.331457 335.940566 
L 95.90156 357.518621 
L 96.154939 360.792403 
L 96.313301 361.215763 
L 96.344973 361.19399 
L 96.471663 360.838368 
L 96.756714 359.011267 
L 98.055282 349.470547 
L 98.403678 348.434525 
L 98.752074 347.135414 
L 100.050642 341.702496 
L 100.399038 341.256758 
L 100.652417 341.23801 
L 100.969141 341.466624 
L 101.412554 341.794426 
L 101.444226 341.788378 
L 101.539244 336.676608 
L 101.824295 318.250771 
L 102.299381 304.461936 
L 102.932828 292.236509 
L 103.661293 282.229488 
L 103.978017 280.096358 
L 104.104706 279.901613 
L 104.136379 279.919152 
L 104.263068 280.268122 
L 104.453102 281.631341 
L 104.769826 285.959894 
L 105.815015 301.759085 
L 106.226755 305.0244 
L 106.543479 306.073123 
L 106.765186 306.23279 
L 106.95522 306.104573 
L 107.271944 305.529408 
L 107.905392 303.778512 
L 108.792218 301.448218 
L 109.235631 300.906922 
L 110.344165 299.540678 
L 111.48437 298.260317 
L 112.086145 297.854496 
L 112.561231 297.794016 
L 113.099662 297.967594 
L 114.208195 298.377648 
L 115.095021 298.439942 
L 116.330244 298.285718 
L 118.357276 298.046822 
L 122.062945 298.223424 
L 122.886426 298.767139 
L 123.804925 299.306016 
L 124.66008 299.515277 
L 125.673596 299.781389 
L 126.845474 300.392237 
L 127.827317 300.778704 
L 130.139401 301.509907 
L 131.564658 302.01673 
L 144.011903 305.229427 
L 147.812588 305.986637 
L 153.196892 306.904118 
L 154.717167 307.130918 
L 156.554164 307.405498 
L 158.961265 307.746605 
L 164.21888 308.339309 
L 165.580792 308.309674 
L 166.816015 308.084688 
L 168.114582 307.648022 
L 169.53984 306.933754 
L 171.028441 305.923738 
L 172.643733 304.521811 
L 174.290696 302.764867 
L 176.096022 300.45695 
L 177.901347 297.75047 
L 179.706673 294.645427 
L 181.67036 290.816438 
L 183.634048 286.51873 
L 185.78777 281.26967 
L 187.973164 275.37529 
L 190.31692 268.423114 
L 192.692348 260.720986 
L 195.289483 251.555242 
L 198.108325 240.743232 
L 200.958839 228.917578 
L 204.094404 214.901942 
L 207.324987 199.393661 
L 210.713931 182.005661 
L 214.419599 161.740022 
L 218.346974 138.908822 
L 222.527728 113.169744 
L 226.486776 88.766669 
L 227.183568 86.42065 
L 227.88036 84.828211 
L 228.577152 83.781907 
L 229.242272 83.15473 
L 229.970737 82.772496 
L 230.762547 82.617062 
L 231.681046 82.675123 
L 232.852924 82.989014 
L 234.626577 83.746829 
L 245.426858 88.987421 
L 248.942492 90.279878 
L 253.281607 91.572336 
L 258.285843 92.700288 
L 260.629599 93.260938 
L 262.529942 93.654662 
L 264.018544 93.713933 
L 265.412128 93.524026 
L 267.344143 93.006922 
L 269.022779 92.640413 
L 270.574726 92.572675 
L 273.55193 92.740205 
L 276.212409 93.053491 
L 279.252958 93.348029 
L 280.994938 93.271824 
L 283.307022 92.940394 
L 285.207365 92.722666 
L 287.836172 92.731738 
L 291.921909 92.997245 
L 294.740751 93.156912 
L 297.274541 93.046838 
L 302.500483 92.757744 
L 307.979805 92.973053 
L 311.843835 93.009946 
L 317.703225 92.785565 
L 322.612443 92.896243 
L 327.458317 92.971238 
L 338.765356 92.863584 
L 344.878125 92.870237 
L 352.194445 92.841206 
L 359.035678 92.86177 
L 366.098619 92.837578 
L 497.982401 92.837578 
L 497.982401 92.837578 
" style="fill:none;stroke:#ff0000;stroke-linecap:square;stroke-width:1.5;"/>
   </g>
   <g id="line2d_28">
    <path clip-path="url(#pcc9b81fa28)" d="M 92.290909 218.16 
L 92.322581 218.16 
L 92.449271 223.147181 
L 94.191252 305.617709 
L 95.553164 362.895293 
L 95.806543 365.113094 
L 95.90156 365.221958 
L 95.933233 365.201395 
L 96.059922 364.909882 
L 96.344973 363.514003 
L 97.390162 357.92807 
L 97.865248 356.59993 
L 98.181971 356.231606 
L 98.467023 356.203181 
L 98.783747 356.142701 
L 99.258832 355.729622 
L 99.670573 355.500403 
L 99.987297 355.55665 
L 100.43071 355.908038 
L 101.22252 356.571504 
L 101.475899 356.304182 
L 101.855967 355.530643 
L 102.236036 352.795133 
L 103.439586 344.227536 
L 103.661293 343.831392 
L 103.75631 343.942675 
L 103.914672 344.559571 
L 104.168051 346.72536 
L 104.548119 352.44072 
L 105.181567 362.016518 
L 105.62498 366.308784 
L 105.941704 367.733088 
L 106.163411 367.917552 
L 106.385117 367.795382 
L 106.828531 367.18272 
L 107.62034 366.175728 
L 108.507167 365.509843 
L 108.887235 365.518915 
L 109.298976 365.552179 
L 110.059113 365.114304 
L 111.389353 364.430275 
L 112.022801 364.262746 
L 112.561231 364.362538 
L 113.954816 364.784083 
L 115.158366 364.765939 
L 118.769017 364.59841 
L 120.067585 364.611715 
L 120.66936 364.349837 
L 121.714548 363.873859 
L 122.443013 363.815798 
L 123.456529 363.730522 
L 124.375028 363.354941 
L 125.483561 362.926138 
L 132.546502 361.329466 
L 134.478517 361.000454 
L 141.858181 359.703763 
L 148.921121 358.736688 
L 158.422835 357.758726 
L 162.635261 357.406128 
L 165.200724 357.054739 
L 166.657653 356.550336 
L 168.08291 355.804618 
L 169.508167 354.807302 
L 171.091786 353.400538 
L 172.707077 351.641779 
L 174.290696 349.59937 
L 176.064349 346.937645 
L 177.964692 343.646928 
L 179.896707 339.837293 
L 181.987084 335.19001 
L 184.077461 330.000221 
L 186.357872 323.724816 
L 188.796645 316.311782 
L 191.298763 307.963123 
L 193.990915 298.153267 
L 196.71474 287.373917 
L 199.691944 274.63199 
L 202.764164 260.463946 
L 205.931402 244.810512 
L 209.415364 226.411891 
L 213.08936 205.733779 
L 216.95339 182.649773 
L 221.039126 156.844771 
L 225.21988 129.060259 
L 226.265069 122.665709 
L 226.993534 119.778394 
L 227.721998 117.754733 
L 228.450463 116.37216 
L 229.147255 115.504272 
L 229.844048 114.973862 
L 230.572512 114.692026 
L 231.427667 114.624288 
L 232.377838 114.783955 
L 233.581388 115.220621 
L 235.228352 116.061293 
L 238.807331 118.239178 
L 243.653204 121.161571 
L 247.517235 123.248736 
L 250.969524 124.904678 
L 254.453485 126.379181 
L 258.064137 127.709136 
L 261.073012 128.860675 
L 262.751649 129.387456 
L 264.018544 129.565872 
L 265.285439 129.52777 
L 267.059092 129.215088 
L 269.022779 128.913293 
L 270.574726 128.962282 
L 272.728448 129.236256 
L 276.782512 130.045478 
L 278.904561 130.419245 
L 280.583197 130.502707 
L 282.673574 130.353926 
L 285.334054 130.157366 
L 287.487776 130.265626 
L 292.33365 130.839581 
L 295.089147 131.098435 
L 297.274541 131.073638 
L 301.867036 130.921834 
L 306.332841 131.202461 
L 310.513595 131.49216 
L 313.585816 131.441962 
L 316.753053 131.3712 
L 322.264047 131.586509 
L 327.458317 131.773392 
L 331.670743 131.662714 
L 335.281395 131.70384 
L 350.13574 131.876813 
L 355.99513 131.987491 
L 360.682642 131.966928 
L 365.370154 131.987491 
L 374.048386 132.042528 
L 441.510551 132.153206 
L 497.919057 132.164698 
L 497.919057 132.164698 
" style="fill:none;stroke:#008000;stroke-linecap:square;stroke-width:1.5;"/>
   </g>
   <g id="line2d_29">
    <path clip-path="url(#pcc9b81fa28)" d="M 92.290909 218.16 
L 92.512616 243.519264 
L 93.082719 272.846016 
L 95.23644 369.36 
L 102.394398 369.267466 
L 102.584432 368.233258 
L 103.154535 363.568435 
L 103.724638 358.831642 
L 103.946344 358.30728 
L 104.041361 358.409491 
L 104.199723 359.033645 
L 104.453102 361.149235 
L 105.276584 369.36 
L 111.294336 369.260813 
L 112.022801 369.066672 
L 112.592904 369.157997 
L 113.574747 369.36 
L 120.574343 369.256579 
L 121.651204 369.059414 
L 122.443013 369.195494 
L 123.488202 369.36 
L 124.438373 369.250531 
L 125.483561 369.161626 
L 131.564658 369.28319 
L 133.560018 369.278352 
L 136.157153 369.266861 
L 165.295741 369.157392 
L 166.594308 368.79935 
L 167.861203 368.249587 
L 169.28646 367.391981 
L 170.711718 366.279149 
L 172.295336 364.742957 
L 174.037317 362.686637 
L 175.620936 360.485165 
L 177.362917 357.697642 
L 179.294932 354.157747 
L 181.195275 350.21808 
L 183.285652 345.361536 
L 185.53439 339.530659 
L 187.814802 332.980675 
L 190.253575 325.275523 
L 192.914055 316.055347 
L 195.606207 305.876563 
L 198.361704 294.594019 
L 201.37058 281.30112 
L 204.474473 266.556701 
L 207.863417 249.30599 
L 211.410723 230.015894 
L 214.926357 209.715178 
L 218.853732 185.722762 
L 223.034486 158.757149 
L 226.296741 137.93449 
L 226.961861 135.740275 
L 227.690326 134.097034 
L 228.418791 132.995088 
L 229.147255 132.288682 
L 229.907392 131.865926 
L 230.699202 131.676019 
L 231.681046 131.693558 
L 232.852924 131.957251 
L 234.658249 132.65761 
L 238.110538 134.361936 
L 245.268496 137.791757 
L 250.146042 139.721069 
L 254.041745 141.01655 
L 258.317516 142.207402 
L 260.534582 142.914413 
L 262.529942 143.486554 
L 263.923527 143.640778 
L 265.222094 143.558525 
L 267.154109 143.152099 
L 268.832745 142.849699 
L 270.574726 142.859981 
L 273.361895 143.130931 
L 275.864013 143.52768 
L 278.999579 144.013939 
L 280.994938 144.018173 
L 283.877125 143.686742 
L 285.270709 143.611142 
L 287.456104 143.68009 
L 291.256789 144.009101 
L 295.089147 144.338112 
L 297.337886 144.272794 
L 301.39195 144.07321 
L 304.559188 144.183888 
L 308.296528 144.437299 
L 310.925336 144.528624 
L 314.124246 144.417946 
L 318.051621 144.378029 
L 324.101045 144.604224 
L 328.313471 144.655027 
L 334.077844 144.545558 
L 346.176693 144.665914 
L 351.054239 144.682848 
L 359.827488 144.740304 
L 365.496843 144.742723 
L 498.077419 144.848563 
L 498.077419 144.848563 
" style="fill:none;stroke:#0000ff;stroke-linecap:square;stroke-width:1.5;"/>
   </g>
   <g id="line2d_30">
    <path clip-path="url(#pcc9b81fa28)" d="M 92.290909 218.16 
L 92.544288 239.061283 
L 93.621149 288.377885 
L 95.521492 369.36 
L 98.308661 369.25416 
L 98.625385 369.022522 
L 99.005453 368.377805 
L 99.702246 367.223846 
L 100.050642 367.057526 
L 100.399038 367.1676 
L 101.22252 367.624224 
L 101.665933 367.015795 
L 101.76095 366.005174 
L 102.901156 350.719459 
L 103.471259 345.943354 
L 103.724638 345.148042 
L 103.819655 345.179491 
L 103.946344 345.541162 
L 104.168051 347.100336 
L 104.484775 351.301277 
L 105.561636 367.591565 
L 105.815015 369.36 
L 107.873719 369.259603 
L 108.823891 368.361475 
L 109.203959 368.183059 
L 111.642732 366.224112 
L 112.181163 366.089846 
L 112.719593 366.205968 
L 114.14485 366.661382 
L 115.221711 366.65473 
L 118.864034 366.415834 
L 120.194274 366.432768 
L 121.081101 366.151536 
L 121.809566 366.045091 
L 122.53803 366.197501 
L 123.551546 366.397085 
L 124.375028 366.286406 
L 125.546906 366.129763 
L 128.52411 366.191453 
L 129.695988 366.189638 
L 131.406296 366.24649 
L 133.465001 366.196896 
L 135.460361 366.200525 
L 138.184185 366.207178 
L 164.440587 366.097104 
L 165.960861 365.814058 
L 167.227756 365.362272 
L 168.653013 364.615949 
L 170.236632 363.487997 
L 171.661889 362.204006 
L 173.245508 360.477907 
L 174.987489 358.212931 
L 176.60278 355.771354 
L 178.344761 352.769731 
L 180.245103 349.059283 
L 182.177118 344.823869 
L 184.425857 339.307488 
L 186.674596 333.166349 
L 189.145042 325.706141 
L 191.615487 317.509891 
L 194.307639 307.752653 
L 197.031464 297.022896 
L 199.818633 285.17184 
L 202.700819 272.015021 
L 205.836385 256.693018 
L 209.288674 238.654253 
L 212.899325 218.537395 
L 216.700011 196.052746 
L 220.754075 170.680176 
L 225.124863 141.83303 
L 226.265069 134.826422 
L 226.993534 131.922173 
L 227.721998 129.894883 
L 228.418791 128.573395 
L 229.115583 127.707926 
L 229.780703 127.202918 
L 230.509168 126.921082 
L 231.300977 126.852739 
L 232.219476 126.994262 
L 233.359682 127.389197 
L 234.9433 128.171808 
L 238.237228 130.122288 
L 243.051429 132.935213 
L 247.612252 135.249178 
L 251.729661 137.013984 
L 255.055261 138.229027 
L 262.814993 140.635526 
L 264.081888 140.7456 
L 265.412128 140.635526 
L 267.534178 140.158944 
L 269.117797 139.906138 
L 270.733088 139.921862 
L 273.045171 140.163782 
L 276.244082 140.703264 
L 279.062923 141.130858 
L 280.741559 141.148397 
L 282.578557 140.969376 
L 285.365727 140.705683 
L 287.519448 140.77463 
L 290.908393 141.080054 
L 295.215836 141.462288 
L 297.369558 141.393341 
L 302.532156 141.207062 
L 307.568064 141.510067 
L 311.843835 141.644333 
L 320.807118 141.582643 
L 328.725212 141.774365 
L 334.299551 141.671549 
L 346.430072 141.793114 
L 351.085911 141.814282 
L 359.922505 141.872342 
L 481.861161 141.983021 
L 487.688878 141.983626 
L 498.109091 141.984835 
L 498.109091 141.984835 
" style="fill:none;stroke:#000000;stroke-linecap:square;stroke-width:1.5;"/>
   </g>
   <g id="line2d_31">
    <path clip-path="url(#pcc9b81fa28)" d="M 92.290909 218.16 
L 92.322581 218.16 
L 92.544288 226.691914 
L 95.838215 363.233376 
L 96.059922 364.70183 
L 96.154939 364.751424 
L 96.186612 364.715136 
L 96.344973 364.245811 
L 96.756714 361.991117 
L 97.675213 357.192634 
L 98.118627 355.446576 
L 98.593712 354.236976 
L 99.987297 348.838531 
L 100.335693 348.415171 
L 100.620745 348.383117 
L 100.969141 348.602659 
L 101.507571 348.965539 
L 101.634261 349.045978 
L 101.697605 349.094362 
L 101.729278 349.039325 
L 101.88764 348.065597 
L 102.394398 342.600019 
L 102.932828 335.20271 
L 103.376241 322.665811 
L 103.978017 307.287562 
L 104.29474 303.780326 
L 104.42143 303.471878 
L 104.453102 303.490022 
L 104.579792 303.92185 
L 104.95986 306.866016 
L 105.846687 314.078256 
L 106.163411 315.074966 
L 106.353445 315.172339 
L 106.511807 314.975779 
L 107.050237 313.650058 
L 108.760546 309.140669 
L 109.172287 308.732429 
L 110.185803 307.946189 
L 111.61106 306.862387 
L 112.181163 306.670666 
L 112.687921 306.735984 
L 114.398229 307.179302 
L 115.601779 307.138781 
L 118.547311 306.910771 
L 120.479326 306.948269 
L 121.524514 306.934358 
L 122.157962 307.191398 
L 124.089977 308.17057 
L 125.895302 308.661667 
L 127.795645 309.447907 
L 130.012712 310.111373 
L 131.501313 310.591584 
L 133.813397 311.232672 
L 135.58705 311.69232 
L 146.038935 313.974835 
L 153.608633 315.163267 
L 163.997173 316.44121 
L 165.42243 316.413389 
L 166.689325 316.18296 
L 167.956221 315.757786 
L 169.41315 315.027187 
L 170.870079 314.03713 
L 172.485371 312.635203 
L 173.973972 311.060304 
L 175.589264 309.042691 
L 177.204555 306.704534 
L 179.009881 303.711984 
L 180.973568 300.002141 
L 182.937255 295.821158 
L 184.932615 291.092832 
L 187.244699 285.012173 
L 189.588455 278.196077 
L 191.932211 270.731635 
L 194.497674 261.828374 
L 197.284843 251.303645 
L 200.135357 239.643706 
L 203.23925 225.944381 
L 206.43816 210.76632 
L 209.76376 193.889981 
L 213.216049 175.239158 
L 217.048407 153.25105 
L 220.912437 129.793277 
L 225.283225 101.803738 
L 225.916673 98.371498 
L 226.423431 97.132867 
L 227.056878 96.193008 
L 227.817015 95.489626 
L 228.640497 95.036026 
L 229.590669 94.771728 
L 230.794219 94.695523 
L 232.251148 94.831603 
L 234.594904 95.301533 
L 243.716549 97.451597 
L 248.277372 98.297107 
L 255.530346 99.293818 
L 259.964479 99.912528 
L 262.656631 100.466525 
L 263.923527 100.505232 
L 265.412128 100.310486 
L 267.724212 99.712339 
L 268.642711 99.578074 
L 270.89145 99.558115 
L 275.610634 99.849024 
L 279.126268 100.21009 
L 280.963266 100.136909 
L 283.560401 99.778262 
L 285.239037 99.665165 
L 290.2116 99.774634 
L 295.374198 100.060099 
L 297.876316 99.902851 
L 300.916864 99.722621 
L 306.45953 99.832694 
L 310.830319 99.971798 
L 314.789366 99.78552 
L 317.164794 99.758909 
L 329.073608 99.875635 
L 334.42624 99.781286 
L 497.982401 99.821203 
L 497.982401 99.821203 
" style="fill:none;stroke:#bfbf00;stroke-linecap:square;stroke-width:1.5;"/>
   </g>
   <g id="line2d_32">
    <path clip-path="url(#pcc9b81fa28)" d="M 92.290909 218.16 
L 92.544288 235.160323 
L 95.743198 369.36 
L 97.295145 369.29952 
L 97.485179 368.468525 
L 98.118627 365.561856 
L 98.403678 364.679453 
L 100.113987 357.526483 
L 100.43071 357.240413 
L 100.684089 357.274886 
L 101.064158 357.604502 
L 101.412554 357.860938 
L 101.634261 357.842794 
L 101.697605 357.270653 
L 103.122862 333.661075 
L 104.041361 317.45304 
L 104.263068 316.369238 
L 104.358085 316.400688 
L 104.484775 316.900253 
L 104.738154 319.220266 
L 106.036721 332.564573 
L 106.353445 333.567936 
L 106.543479 333.650189 
L 106.733514 333.453629 
L 107.08191 332.684323 
L 107.937064 330.030461 
L 108.697201 327.982608 
L 109.108942 327.443731 
L 110.28082 326.26679 
L 111.48437 325.119485 
L 112.086145 324.803174 
L 112.561231 324.797731 
L 113.289696 325.074125 
L 114.208195 325.328141 
L 115.126694 325.356566 
L 116.67864 325.158797 
L 118.325604 325.017274 
L 122.031272 325.261008 
L 122.886426 325.840406 
L 123.773253 326.335133 
L 124.755097 326.574634 
L 125.705268 326.884896 
L 128.239058 327.974746 
L 129.632643 328.43016 
L 131.564658 329.158339 
L 133.59169 329.773421 
L 135.523705 330.357658 
L 147.369175 333.185098 
L 153.513616 334.245917 
L 158.581197 335.035181 
L 162.730278 335.558333 
L 165.264068 335.691389 
L 166.594308 335.483338 
L 168.019565 335.018851 
L 169.318133 334.378973 
L 170.901752 333.316339 
L 172.358681 332.065613 
L 173.973972 330.371568 
L 175.589264 328.353955 
L 177.362917 325.765411 
L 179.13657 322.787376 
L 181.100258 319.035802 
L 183.190635 314.51976 
L 185.312684 309.387427 
L 187.624767 303.171898 
L 189.936851 296.312861 
L 192.217262 288.925834 
L 194.877742 279.538128 
L 197.601567 269.08537 
L 200.642115 256.434163 
L 203.524301 243.512611 
L 206.723212 228.145248 
L 210.017139 211.23625 
L 213.691135 191.133907 
L 217.301786 170.167306 
L 221.165816 146.476685 
L 225.251553 120.110429 
L 226.043362 115.575638 
L 226.613465 113.704387 
L 227.246913 112.357498 
L 227.943705 111.389818 
L 228.67217 110.755382 
L 229.463979 110.368915 
L 230.350806 110.196547 
L 231.364322 110.224368 
L 232.884596 110.538864 
L 235.228352 111.324499 
L 242.512999 113.989248 
L 246.757098 115.251466 
L 250.937851 116.254829 
L 254.200106 116.888659 
L 263.923527 118.451462 
L 265.348784 118.258531 
L 267.344143 117.728122 
L 268.7694 117.434189 
L 270.479709 117.380362 
L 273.171861 117.490435 
L 275.895685 117.755942 
L 279.094596 118.072253 
L 280.899921 117.997862 
L 283.27535 117.660989 
L 285.270709 117.468058 
L 288.627982 117.514022 
L 291.320134 117.674899 
L 294.550716 117.872669 
L 297.211196 117.762595 
L 302.183759 117.493459 
L 306.301169 117.602928 
L 310.766974 117.747475 
L 314.535987 117.56543 
L 317.449846 117.509184 
L 329.136953 117.622886 
L 334.742964 117.518861 
L 498.077419 117.540029 
L 498.077419 117.540029 
" style="fill:none;stroke:#bf00bf;stroke-linecap:square;stroke-width:1.5;"/>
   </g>
   <g id="line2d_33">
    <path clip-path="url(#pcc9b81fa28)" d="M 92.290909 218.16 
L 92.322581 218.16 
L 92.480943 222.253286 
L 93.209408 248.868115 
L 94.761355 316.15272 
L 95.838215 359.725536 
L 96.123267 362.828765 
L 96.281629 363.19104 
L 96.313301 363.182573 
L 96.439991 362.941862 
L 96.69337 361.791533 
L 98.308661 353.171318 
L 98.657057 352.030061 
L 100.145659 346.412678 
L 100.462383 346.170758 
L 100.747434 346.247568 
L 101.475899 346.679395 
L 101.570916 346.196765 
L 101.697605 341.740598 
L 102.077674 329.618592 
L 102.711122 316.75873 
L 103.597948 303.737386 
L 103.946344 300.89785 
L 104.104706 300.540413 
L 104.136379 300.55009 
L 104.263068 300.870634 
L 104.453102 302.199984 
L 104.769826 306.436608 
L 105.783342 321.033456 
L 106.163411 323.829446 
L 106.480135 324.84551 
L 106.701841 325.012435 
L 106.891875 324.902966 
L 107.208599 324.382234 
L 107.842047 322.770442 
L 108.823891 320.35487 
L 109.393993 319.731322 
L 111.991128 317.049638 
L 112.466214 316.963152 
L 113.036317 317.128262 
L 114.208195 317.546784 
L 115.126694 317.595773 
L 116.583623 317.401027 
L 118.293932 317.218378 
L 122.126289 317.402237 
L 123.044788 317.99736 
L 123.86827 318.404995 
L 124.818441 318.580992 
L 125.73694 318.827146 
L 128.460765 319.854096 
L 129.632643 320.19097 
L 131.818037 320.911891 
L 133.655035 321.407827 
L 135.365343 321.878966 
L 140.306234 323.029901 
L 145.057091 324.004838 
L 149.744603 324.791683 
L 151.011498 324.971914 
L 152.785151 325.30032 
L 154.590477 325.513814 
L 156.332458 325.769645 
L 161.621745 326.385936 
L 164.408914 326.648419 
L 165.644137 326.586125 
L 167.037722 326.288563 
L 168.462979 325.7388 
L 169.888236 324.940464 
L 171.535199 323.706672 
L 173.150491 322.172294 
L 174.765782 320.316768 
L 176.539435 317.907245 
L 178.344761 315.056218 
L 180.276776 311.559264 
L 182.240463 307.53553 
L 184.362513 302.656003 
L 186.516234 297.144461 
L 188.828318 290.605363 
L 191.362108 282.70849 
L 193.895898 274.05864 
L 196.651395 263.812118 
L 199.470237 252.445507 
L 202.542458 239.064307 
L 205.709695 224.218886 
L 208.97195 207.854208 
L 212.392567 189.572918 
L 216.193253 167.97793 
L 219.962266 145.305187 
L 224.238037 118.164787 
L 226.296741 105.481526 
L 226.993534 102.983702 
L 227.690326 101.290262 
L 228.355446 100.208275 
L 229.020566 99.506707 
L 229.717358 99.072461 
L 230.509168 98.852314 
L 231.364322 98.845056 
L 232.40951 99.054317 
L 234.056474 99.671213 
L 236.558592 100.891094 
L 242.227947 103.691318 
L 246.66208 105.519629 
L 250.811162 106.90825 
L 254.295124 107.856576 
L 258.190826 108.709344 
L 260.407893 109.243987 
L 262.593287 109.717546 
L 264.050216 109.773792 
L 265.443801 109.58449 
L 267.439161 109.05287 
L 268.927762 108.737165 
L 270.479709 108.670637 
L 273.42524 108.837562 
L 277.099236 109.299024 
L 279.28463 109.479859 
L 281.343335 109.369786 
L 286.759311 108.859334 
L 290.496652 109.039565 
L 294.709078 109.331683 
L 296.831127 109.261526 
L 303.735706 108.97727 
L 312.31892 109.194998 
L 317.671552 108.999043 
L 329.643711 109.117584 
L 333.286035 109.020211 
L 340.41232 109.13089 
L 344.846453 109.105488 
L 349.058879 109.054685 
L 497.982401 109.089763 
L 497.982401 109.089763 
" style="fill:none;stroke:#00bfbf;stroke-linecap:square;stroke-width:1.5;"/>
   </g>
   <g id="patch_3">
    <path d="M 72 384.48 
L 72 51.84 
" style="fill:none;stroke:#000000;stroke-linecap:square;stroke-linejoin:miter;stroke-width:0.8;"/>
   </g>
   <g id="patch_4">
    <path d="M 518.4 384.48 
L 518.4 51.84 
" style="fill:none;stroke:#000000;stroke-linecap:square;stroke-linejoin:miter;stroke-width:0.8;"/>
   </g>
   <g id="patch_5">
    <path d="M 72 384.48 
L 518.4 384.48 
" style="fill:none;stroke:#000000;stroke-linecap:square;stroke-linejoin:miter;stroke-width:0.8;"/>
   </g>
   <g id="patch_6">
    <path d="M 72 51.84 
L 518.4 51.84 
" style="fill:none;stroke:#000000;stroke-linecap:square;stroke-linejoin:miter;stroke-width:0.8;"/>
   </g>
   <g id="text_15">
    <!-- $u_{m}$ -->
    <g transform="translate(285.75 45.84)scale(0.14 -0.14)">
     <use transform="translate(0 0.3125)" xlink:href="#DejaVuSans-Oblique-75"/>
     <use transform="translate(63.378906 -16.09375)scale(0.7)" xlink:href="#DejaVuSans-Oblique-6d"/>
    </g>
   </g>
   <g id="legend_1">
    <g id="patch_7">
     <path d="M 79 191.943125 
L 122.1 191.943125 
Q 124.1 191.943125 124.1 189.943125 
L 124.1 58.84 
Q 124.1 56.84 122.1 56.84 
L 79 56.84 
Q 77 56.84 77 58.84 
L 77 189.943125 
Q 77 191.943125 79 191.943125 
z
" style="fill:#ffffff;opacity:0.8;stroke:#cccccc;stroke-linejoin:miter;"/>
    </g>
    <g id="line2d_34">
     <path d="M 81 64.938437 
L 101 64.938437 
" style="fill:none;stroke:#bf00bf;stroke-linecap:square;stroke-width:1.5;"/>
    </g>
    <g id="line2d_35"/>
    <g id="text_16">
     <!-- $u_{1}$ -->
     <g transform="translate(109 68.438437)scale(0.1 -0.1)">
      <use transform="translate(0 0.3125)" xlink:href="#DejaVuSans-Oblique-75"/>
      <use transform="translate(63.378906 -16.09375)scale(0.7)" xlink:href="#DejaVuSans-31"/>
     </g>
    </g>
    <g id="line2d_36">
     <path d="M 81 79.616562 
L 101 79.616562 
" style="fill:none;stroke:#00bfbf;stroke-linecap:square;stroke-width:1.5;"/>
    </g>
    <g id="line2d_37"/>
    <g id="text_17">
     <!-- $u_{2}$ -->
     <g transform="translate(109 83.116562)scale(0.1 -0.1)">
      <use transform="translate(0 0.3125)" xlink:href="#DejaVuSans-Oblique-75"/>
      <use transform="translate(63.378906 -16.09375)scale(0.7)" xlink:href="#DejaVuSans-32"/>
     </g>
    </g>
    <g id="line2d_38">
     <path d="M 81 94.294687 
L 101 94.294687 
" style="fill:none;stroke:#ff0000;stroke-linecap:square;stroke-width:1.5;"/>
    </g>
    <g id="line2d_39"/>
    <g id="text_18">
     <!-- $u_{3}$ -->
     <g transform="translate(109 97.794687)scale(0.1 -0.1)">
      <use transform="translate(0 0.3125)" xlink:href="#DejaVuSans-Oblique-75"/>
      <use transform="translate(63.378906 -16.09375)scale(0.7)" xlink:href="#DejaVuSans-33"/>
     </g>
    </g>
    <g id="line2d_40">
     <path d="M 81 108.972812 
L 101 108.972812 
" style="fill:none;stroke:#008000;stroke-linecap:square;stroke-width:1.5;"/>
    </g>
    <g id="line2d_41"/>
    <g id="text_19">
     <!-- $u_{4}$ -->
     <g transform="translate(109 112.472812)scale(0.1 -0.1)">
      <use transform="translate(0 0.3125)" xlink:href="#DejaVuSans-Oblique-75"/>
      <use transform="translate(63.378906 -16.09375)scale(0.7)" xlink:href="#DejaVuSans-34"/>
     </g>
    </g>
    <g id="line2d_42">
     <path d="M 81 123.650937 
L 101 123.650937 
" style="fill:none;stroke:#0000ff;stroke-linecap:square;stroke-width:1.5;"/>
    </g>
    <g id="line2d_43"/>
    <g id="text_20">
     <!-- $u_{5}$ -->
     <g transform="translate(109 127.150937)scale(0.1 -0.1)">
      <use transform="translate(0 0.3125)" xlink:href="#DejaVuSans-Oblique-75"/>
      <use transform="translate(63.378906 -16.09375)scale(0.7)" xlink:href="#DejaVuSans-35"/>
     </g>
    </g>
    <g id="line2d_44">
     <path d="M 81 138.329062 
L 101 138.329062 
" style="fill:none;stroke:#000000;stroke-linecap:square;stroke-width:1.5;"/>
    </g>
    <g id="line2d_45"/>
    <g id="text_21">
     <!-- $u_{6}$ -->
     <g transform="translate(109 141.829062)scale(0.1 -0.1)">
      <use transform="translate(0 0.3125)" xlink:href="#DejaVuSans-Oblique-75"/>
      <use transform="translate(63.378906 -16.09375)scale(0.7)" xlink:href="#DejaVuSans-36"/>
     </g>
    </g>
    <g id="line2d_46">
     <path d="M 81 153.007187 
L 101 153.007187 
" style="fill:none;stroke:#bfbf00;stroke-linecap:square;stroke-width:1.5;"/>
    </g>
    <g id="line2d_47"/>
    <g id="text_22">
     <!-- $u_{7}$ -->
     <g transform="translate(109 156.507187)scale(0.1 -0.1)">
      <use transform="translate(0 0.3125)" xlink:href="#DejaVuSans-Oblique-75"/>
      <use transform="translate(63.378906 -16.09375)scale(0.7)" xlink:href="#DejaVuSans-37"/>
     </g>
    </g>
    <g id="line2d_48">
     <path d="M 81 167.685312 
L 101 167.685312 
" style="fill:none;stroke:#bf00bf;stroke-linecap:square;stroke-width:1.5;"/>
    </g>
    <g id="line2d_49"/>
    <g id="text_23">
     <!-- $u_{8}$ -->
     <g transform="translate(109 171.185312)scale(0.1 -0.1)">
      <use transform="translate(0 0.3125)" xlink:href="#DejaVuSans-Oblique-75"/>
      <use transform="translate(63.378906 -16.09375)scale(0.7)" xlink:href="#DejaVuSans-38"/>
     </g>
    </g>
    <g id="line2d_50">
     <path d="M 81 182.363437 
L 101 182.363437 
" style="fill:none;stroke:#00bfbf;stroke-linecap:square;stroke-width:1.5;"/>
    </g>
    <g id="line2d_51"/>
    <g id="text_24">
     <!-- $u_{9}$ -->
     <defs>
      <path d="M 10.984375 1.515625 
L 10.984375 10.5 
Q 14.703125 8.734375 18.5 7.8125 
Q 22.3125 6.890625 25.984375 6.890625 
Q 35.75 6.890625 40.890625 13.453125 
Q 46.046875 20.015625 46.78125 33.40625 
Q 43.953125 29.203125 39.59375 26.953125 
Q 35.25 24.703125 29.984375 24.703125 
Q 19.046875 24.703125 12.671875 31.3125 
Q 6.296875 37.9375 6.296875 49.421875 
Q 6.296875 60.640625 12.9375 67.421875 
Q 19.578125 74.21875 30.609375 74.21875 
Q 43.265625 74.21875 49.921875 64.515625 
Q 56.59375 54.828125 56.59375 36.375 
Q 56.59375 19.140625 48.40625 8.859375 
Q 40.234375 -1.421875 26.421875 -1.421875 
Q 22.703125 -1.421875 18.890625 -0.6875 
Q 15.09375 0.046875 10.984375 1.515625 
z
M 30.609375 32.421875 
Q 37.25 32.421875 41.125 36.953125 
Q 45.015625 41.5 45.015625 49.421875 
Q 45.015625 57.28125 41.125 61.84375 
Q 37.25 66.40625 30.609375 66.40625 
Q 23.96875 66.40625 20.09375 61.84375 
Q 16.21875 57.28125 16.21875 49.421875 
Q 16.21875 41.5 20.09375 36.953125 
Q 23.96875 32.421875 30.609375 32.421875 
z
" id="DejaVuSans-39"/>
     </defs>
     <g transform="translate(109 185.863437)scale(0.1 -0.1)">
      <use transform="translate(0 0.3125)" xlink:href="#DejaVuSans-Oblique-75"/>
      <use transform="translate(63.378906 -16.09375)scale(0.7)" xlink:href="#DejaVuSans-39"/>
     </g>
    </g>
   </g>
  </g>
 </g>
 <defs>
  <clipPath id="pcc9b81fa28">
   <rect height="332.64" width="446.4" x="72" y="51.84"/>
  </clipPath>
 </defs>
</svg>
