<?xml version="1.0" encoding="utf-8" standalone="no"?>
<!DOCTYPE svg PUBLIC "-//W3C//DTD SVG 1.1//EN"
  "http://www.w3.org/Graphics/SVG/1.1/DTD/svg11.dtd">
<!-- Created with matplotlib (http://matplotlib.org/) -->
<svg height="432pt" version="1.1" viewBox="0 0 576 432" width="576pt" xmlns="http://www.w3.org/2000/svg" xmlns:xlink="http://www.w3.org/1999/xlink">
 <defs>
  <style type="text/css">
*{stroke-linecap:butt;stroke-linejoin:round;}
  </style>
 </defs>
 <g id="figure_1">
  <g id="patch_1">
   <path d="M 0 432 
L 576 432 
L 576 0 
L 0 0 
z
" style="fill:#ffffff;"/>
  </g>
  <g id="axes_1">
   <g id="patch_2">
    <path d="M 72 384.48 
L 518.4 384.48 
L 518.4 51.84 
L 72 51.84 
z
" style="fill:#ffffff;"/>
   </g>
   <g id="matplotlib.axis_1">
    <g id="xtick_1">
     <g id="line2d_1">
      <path clip-path="url(#pe04e73bfb0)" d="M 92.290909 384.48 
L 92.290909 51.84 
" style="fill:none;stroke:#b0b0b0;stroke-dasharray:5.12,1.28,0.8,1.28;stroke-dashoffset:0;stroke-width:0.8;"/>
     </g>
     <g id="line2d_2">
      <defs>
       <path d="M 0 0 
L 0 3.5 
" id="m5e0d9c520a" style="stroke:#000000;stroke-width:0.8;"/>
      </defs>
      <g>
       <use style="stroke:#000000;stroke-width:0.8;" x="92.290909" xlink:href="#m5e0d9c520a" y="384.48"/>
      </g>
     </g>
     <g id="text_1">
      <!-- $0$ -->
      <defs>
       <path d="M 42 31.640625 
C 42 37.75 41.90625 48.125 37.703125 56.109375 
C 34 63.109375 28.09375 65.59375 22.90625 65.59375 
C 18.09375 65.59375 12 63.40625 8.203125 56.203125 
C 4.203125 48.71875 3.796875 39.4375 3.796875 31.640625 
C 3.796875 25.953125 3.90625 17.28125 7 9.671875 
C 11.296875 -0.609375 19 -2 22.90625 -2 
C 27.5 -2 34.5 -0.109375 38.59375 9.375 
C 41.59375 16.28125 42 24.359375 42 31.640625 
z
M 22.90625 -0.40625 
C 16.5 -0.40625 12.703125 5.078125 11.296875 12.6875 
C 10.203125 18.5625 10.203125 27.15625 10.203125 32.75 
C 10.203125 40.4375 10.203125 46.828125 11.5 52.921875 
C 13.40625 61.390625 19 64 22.90625 64 
C 27 64 32.296875 61.296875 34.203125 53.125 
C 35.5 47.4375 35.59375 40.734375 35.59375 32.75 
C 35.59375 26.25 35.59375 18.265625 34.40625 12.375 
C 32.296875 1.484375 26.40625 -0.40625 22.90625 -0.40625 
z
" id="CMR17-48"/>
      </defs>
      <g transform="translate(89.800241 398.398498)scale(0.1 -0.1)">
       <use transform="scale(0.996264)" xlink:href="#CMR17-48"/>
      </g>
     </g>
    </g>
    <g id="xtick_2">
     <g id="line2d_3">
      <path clip-path="url(#pe04e73bfb0)" d="M 143.08167 384.48 
L 143.08167 51.84 
" style="fill:none;stroke:#b0b0b0;stroke-dasharray:5.12,1.28,0.8,1.28;stroke-dashoffset:0;stroke-width:0.8;"/>
     </g>
     <g id="line2d_4">
      <g>
       <use style="stroke:#000000;stroke-width:0.8;" x="143.08167" xlink:href="#m5e0d9c520a" y="384.48"/>
      </g>
     </g>
     <g id="text_2">
      <!-- $100$ -->
      <defs>
       <path d="M 26.59375 63.40625 
C 26.59375 65.5 26.5 65.5 25.09375 65.5 
C 21.203125 61.1875 15.296875 59.796875 9.703125 59.796875 
C 9.40625 59.796875 8.90625 59.796875 8.796875 59.5 
C 8.703125 59.296875 8.703125 59.09375 8.703125 57 
C 11.796875 57 17 57.59375 21 59.984375 
L 21 7.203125 
C 21 3.6875 20.796875 2.5 12.203125 2.5 
L 9.203125 2.5 
L 9.203125 0 
C 14 0 19 0 23.796875 0 
C 28.59375 0 33.59375 0 38.40625 0 
L 38.40625 2.5 
L 35.40625 2.5 
C 26.796875 2.5 26.59375 3.59375 26.59375 7.15625 
z
" id="CMR17-49"/>
      </defs>
      <g transform="translate(135.609667 398.398498)scale(0.1 -0.1)">
       <use transform="scale(0.996264)" xlink:href="#CMR17-49"/>
       <use transform="translate(45.690477 0)scale(0.996264)" xlink:href="#CMR17-48"/>
       <use transform="translate(91.380954 0)scale(0.996264)" xlink:href="#CMR17-48"/>
      </g>
     </g>
    </g>
    <g id="xtick_3">
     <g id="line2d_5">
      <path clip-path="url(#pe04e73bfb0)" d="M 193.872431 384.48 
L 193.872431 51.84 
" style="fill:none;stroke:#b0b0b0;stroke-dasharray:5.12,1.28,0.8,1.28;stroke-dashoffset:0;stroke-width:0.8;"/>
     </g>
     <g id="line2d_6">
      <g>
       <use style="stroke:#000000;stroke-width:0.8;" x="193.872431" xlink:href="#m5e0d9c520a" y="384.48"/>
      </g>
     </g>
     <g id="text_3">
      <!-- $200$ -->
      <defs>
       <path d="M 41.703125 15.453125 
L 39.90625 15.453125 
C 38.90625 8.375 38.09375 7.171875 37.703125 6.5625 
C 37.203125 5.765625 30 5.765625 28.59375 5.765625 
L 9.40625 5.765625 
C 13 9.671875 20 16.75 28.5 24.953125 
C 34.59375 30.734375 41.703125 37.53125 41.703125 47.421875 
C 41.703125 59.21875 32.296875 66 21.796875 66 
C 10.796875 66 4.09375 56.3125 4.09375 47.34375 
C 4.09375 43.4375 7 42.9375 8.203125 42.9375 
C 9.203125 42.9375 12.203125 43.546875 12.203125 47.03125 
C 12.203125 50.109375 9.59375 51 8.203125 51 
C 7.59375 51 7 50.90625 6.59375 50.703125 
C 8.5 59.21875 14.296875 63.40625 20.40625 63.40625 
C 29.09375 63.40625 34.796875 56.515625 34.796875 47.421875 
C 34.796875 38.734375 29.703125 31.25 24 24.75 
L 4.09375 2.28125 
L 4.09375 0 
L 39.296875 0 
z
" id="CMR17-50"/>
      </defs>
      <g transform="translate(186.400429 398.398498)scale(0.1 -0.1)">
       <use transform="scale(0.996264)" xlink:href="#CMR17-50"/>
       <use transform="translate(45.690477 0)scale(0.996264)" xlink:href="#CMR17-48"/>
       <use transform="translate(91.380954 0)scale(0.996264)" xlink:href="#CMR17-48"/>
      </g>
     </g>
    </g>
    <g id="xtick_4">
     <g id="line2d_7">
      <path clip-path="url(#pe04e73bfb0)" d="M 244.663193 384.48 
L 244.663193 51.84 
" style="fill:none;stroke:#b0b0b0;stroke-dasharray:5.12,1.28,0.8,1.28;stroke-dashoffset:0;stroke-width:0.8;"/>
     </g>
     <g id="line2d_8">
      <g>
       <use style="stroke:#000000;stroke-width:0.8;" x="244.663193" xlink:href="#m5e0d9c520a" y="384.48"/>
      </g>
     </g>
     <g id="text_4">
      <!-- $300$ -->
      <defs>
       <path d="M 22.09375 33.703125 
C 31 33.703125 34.90625 25.96875 34.90625 17.03125 
C 34.90625 5 28.5 0.390625 22.703125 0.390625 
C 17.40625 0.390625 8.796875 3.03125 6.09375 10.828125 
C 6.59375 10.625 7.09375 10.625 7.59375 10.625 
C 10 10.625 11.796875 12.21875 11.796875 14.8125 
C 11.796875 17.703125 9.59375 19 7.59375 19 
C 5.90625 19 3.296875 18.203125 3.296875 14.46875 
C 3.296875 5.234375 12.296875 -2 22.90625 -2 
C 34 -2 42.5 6.71875 42.5 16.953125 
C 42.5 26.671875 34.5 33.703125 25 34.796875 
C 32.59375 36.375 39.90625 43.0625 39.90625 52.015625 
C 39.90625 59.6875 32 65.296875 23 65.296875 
C 13.90625 65.296875 5.90625 59.828125 5.90625 52.015625 
C 5.90625 48.59375 8.5 48 9.796875 48 
C 11.90625 48 13.703125 49.296875 13.703125 51.890625 
C 13.703125 54.46875 11.90625 55.765625 9.796875 55.765625 
C 9.40625 55.765625 8.90625 55.765625 8.5 55.578125 
C 11.40625 61.859375 19.296875 63 22.796875 63 
C 26.296875 63 32.90625 61.328125 32.90625 51.875 
C 32.90625 49.109375 32.5 44.1875 29.09375 39.84375 
C 26.09375 36 22.703125 36 19.40625 35.6875 
C 18.90625 35.6875 16.59375 35.453125 16.203125 35.453125 
C 15.5 35.359375 15.09375 35.265625 15.09375 34.5 
C 15.09375 33.796875 15.203125 33.703125 17.203125 33.703125 
z
" id="CMR17-51"/>
      </defs>
      <g transform="translate(237.19119 398.398498)scale(0.1 -0.1)">
       <use transform="scale(0.996264)" xlink:href="#CMR17-51"/>
       <use transform="translate(45.690477 0)scale(0.996264)" xlink:href="#CMR17-48"/>
       <use transform="translate(91.380954 0)scale(0.996264)" xlink:href="#CMR17-48"/>
      </g>
     </g>
    </g>
    <g id="xtick_5">
     <g id="line2d_9">
      <path clip-path="url(#pe04e73bfb0)" d="M 295.453954 384.48 
L 295.453954 51.84 
" style="fill:none;stroke:#b0b0b0;stroke-dasharray:5.12,1.28,0.8,1.28;stroke-dashoffset:0;stroke-width:0.8;"/>
     </g>
     <g id="line2d_10">
      <g>
       <use style="stroke:#000000;stroke-width:0.8;" x="295.453954" xlink:href="#m5e0d9c520a" y="384.48"/>
      </g>
     </g>
     <g id="text_5">
      <!-- $400$ -->
      <defs>
       <path d="M 33.59375 64.40625 
C 33.59375 66.5 33.5 66.5 31.703125 66.5 
L 2 19.59375 
L 2 17 
L 27.796875 17 
L 27.796875 7.140625 
C 27.796875 3.5 27.59375 2.5 20.59375 2.5 
L 18.703125 2.5 
L 18.703125 0 
C 21.90625 0 27.296875 0 30.703125 0 
C 34.09375 0 39.5 0 42.703125 0 
L 42.703125 2.5 
L 40.796875 2.5 
C 33.796875 2.5 33.59375 3.5 33.59375 7.140625 
L 33.59375 17 
L 43.796875 17 
L 43.796875 19.59375 
L 33.59375 19.59375 
z
M 28.09375 57.859375 
L 28.09375 19.59375 
L 4 19.59375 
z
" id="CMR17-52"/>
      </defs>
      <g transform="translate(287.981951 398.398498)scale(0.1 -0.1)">
       <use transform="scale(0.996264)" xlink:href="#CMR17-52"/>
       <use transform="translate(45.690477 0)scale(0.996264)" xlink:href="#CMR17-48"/>
       <use transform="translate(91.380954 0)scale(0.996264)" xlink:href="#CMR17-48"/>
      </g>
     </g>
    </g>
    <g id="xtick_6">
     <g id="line2d_11">
      <path clip-path="url(#pe04e73bfb0)" d="M 346.244715 384.48 
L 346.244715 51.84 
" style="fill:none;stroke:#b0b0b0;stroke-dasharray:5.12,1.28,0.8,1.28;stroke-dashoffset:0;stroke-width:0.8;"/>
     </g>
     <g id="line2d_12">
      <g>
       <use style="stroke:#000000;stroke-width:0.8;" x="346.244715" xlink:href="#m5e0d9c520a" y="384.48"/>
      </g>
     </g>
     <g id="text_6">
      <!-- $500$ -->
      <defs>
       <path d="M 11.40625 57.6875 
C 12.40625 57.28125 16.5 56 20.703125 56 
C 30 56 35.09375 61.109375 38 64.0625 
C 38 64.953125 38 65.5 37.40625 65.5 
C 37.296875 65.5 37.09375 65.5 36.296875 65.046875 
C 32.796875 63.40625 28.703125 62.078125 23.703125 62.078125 
C 20.703125 62.078125 16.203125 62.484375 11.296875 64.671875 
C 10.203125 65.171875 10 65.171875 9.90625 65.171875 
C 9.40625 65.171875 9.296875 65.0625 9.296875 63.078125 
L 9.296875 34.421875 
C 9.296875 32.640625 9.296875 32.140625 10.296875 32.140625 
C 10.796875 32.140625 11 32.34375 11.5 33.03125 
C 14.703125 37.515625 19.09375 39.40625 24.09375 39.40625 
C 27.59375 39.40625 35.09375 37.21875 35.09375 20.140625 
C 35.09375 16.953125 35.09375 11.171875 32.09375 6.578125 
C 29.59375 2.484375 25.703125 0.390625 21.40625 0.390625 
C 14.796875 0.390625 8.09375 5 6.296875 12.71875 
C 6.703125 12.609375 7.5 12.421875 7.90625 12.421875 
C 9.203125 12.421875 11.703125 13.125 11.703125 16.21875 
C 11.703125 18.90625 9.796875 20 7.90625 20 
C 5.59375 20 4.09375 18.59375 4.09375 15.796875 
C 4.09375 7.09375 11 -2 21.59375 -2 
C 31.90625 -2 41.703125 6.875 41.703125 19.75 
C 41.703125 31.71875 33.90625 41 24.203125 41 
C 19.09375 41 14.796875 39.109375 11.40625 35.53125 
z
" id="CMR17-53"/>
      </defs>
      <g transform="translate(338.772712 398.398498)scale(0.1 -0.1)">
       <use transform="scale(0.996264)" xlink:href="#CMR17-53"/>
       <use transform="translate(45.690477 0)scale(0.996264)" xlink:href="#CMR17-48"/>
       <use transform="translate(91.380954 0)scale(0.996264)" xlink:href="#CMR17-48"/>
      </g>
     </g>
    </g>
    <g id="xtick_7">
     <g id="line2d_13">
      <path clip-path="url(#pe04e73bfb0)" d="M 397.035476 384.48 
L 397.035476 51.84 
" style="fill:none;stroke:#b0b0b0;stroke-dasharray:5.12,1.28,0.8,1.28;stroke-dashoffset:0;stroke-width:0.8;"/>
     </g>
     <g id="line2d_14">
      <g>
       <use style="stroke:#000000;stroke-width:0.8;" x="397.035476" xlink:href="#m5e0d9c520a" y="384.48"/>
      </g>
     </g>
     <g id="text_7">
      <!-- $600$ -->
      <defs>
       <path d="M 10.59375 34 
C 10.59375 57.65625 21.796875 63 28.296875 63 
C 30.40625 63 35.5 62.640625 37.5 59 
C 35.90625 59 32.90625 59 32.90625 55.515625 
C 32.90625 52.828125 35.09375 51.921875 36.5 51.921875 
C 37.40625 51.921875 40.09375 52.3125 40.09375 55.625 
C 40.09375 61.78125 35.09375 65.296875 28.203125 65.296875 
C 16.296875 65.296875 3.796875 52.96875 3.796875 31 
C 3.796875 3.953125 15.09375 -2 23.09375 -2 
C 32.796875 -2 42 6.671875 42 20.046875 
C 42 32.515625 33.90625 41.59375 23.703125 41.59375 
C 17.59375 41.59375 13.09375 37.609375 10.59375 30.625 
z
M 23.09375 0.390625 
C 10.796875 0.390625 10.796875 18.75 10.796875 22.4375 
C 10.796875 29.625 14.203125 40 23.5 40 
C 25.203125 40 30.09375 40 33.40625 33.125 
C 35.203125 29.21875 35.203125 25.140625 35.203125 20.140625 
C 35.203125 14.75 35.203125 10.78125 33.09375 6.78125 
C 30.90625 2.671875 27.703125 0.390625 23.09375 0.390625 
z
" id="CMR17-54"/>
      </defs>
      <g transform="translate(389.563473 398.398498)scale(0.1 -0.1)">
       <use transform="scale(0.996264)" xlink:href="#CMR17-54"/>
       <use transform="translate(45.690477 0)scale(0.996264)" xlink:href="#CMR17-48"/>
       <use transform="translate(91.380954 0)scale(0.996264)" xlink:href="#CMR17-48"/>
      </g>
     </g>
    </g>
    <g id="xtick_8">
     <g id="line2d_15">
      <path clip-path="url(#pe04e73bfb0)" d="M 447.826237 384.48 
L 447.826237 51.84 
" style="fill:none;stroke:#b0b0b0;stroke-dasharray:5.12,1.28,0.8,1.28;stroke-dashoffset:0;stroke-width:0.8;"/>
     </g>
     <g id="line2d_16">
      <g>
       <use style="stroke:#000000;stroke-width:0.8;" x="447.826237" xlink:href="#m5e0d9c520a" y="384.48"/>
      </g>
     </g>
     <g id="text_8">
      <!-- $700$ -->
      <defs>
       <path d="M 45.09375 61.578125 
L 45.09375 63.765625 
L 21.59375 63.765625 
C 9.90625 63.765625 9.703125 65.078125 9.296875 67 
L 7.5 67 
L 4.59375 48.34375 
L 6.40625 48.34375 
C 6.703125 50.234375 7.40625 55.3125 8.59375 57.203125 
C 9.203125 58 16.59375 58 18.296875 58 
L 40.296875 58 
L 29.203125 41.578125 
C 21.796875 30.53125 16.703125 15.609375 16.703125 2.578125 
C 16.703125 1.390625 16.703125 -2 20.296875 -2 
C 23.90625 -2 23.90625 1.390625 23.90625 2.671875 
L 23.90625 7.265625 
C 23.90625 23.5625 26.703125 34.3125 31.296875 41.1875 
z
" id="CMR17-55"/>
      </defs>
      <g transform="translate(440.354234 398.398498)scale(0.1 -0.1)">
       <use transform="scale(0.996264)" xlink:href="#CMR17-55"/>
       <use transform="translate(45.690477 0)scale(0.996264)" xlink:href="#CMR17-48"/>
       <use transform="translate(91.380954 0)scale(0.996264)" xlink:href="#CMR17-48"/>
      </g>
     </g>
    </g>
    <g id="xtick_9">
     <g id="line2d_17">
      <path clip-path="url(#pe04e73bfb0)" d="M 498.616999 384.48 
L 498.616999 51.84 
" style="fill:none;stroke:#b0b0b0;stroke-dasharray:5.12,1.28,0.8,1.28;stroke-dashoffset:0;stroke-width:0.8;"/>
     </g>
     <g id="line2d_18">
      <g>
       <use style="stroke:#000000;stroke-width:0.8;" x="498.616999" xlink:href="#m5e0d9c520a" y="384.48"/>
      </g>
     </g>
     <g id="text_9">
      <!-- $800$ -->
      <defs>
       <path d="M 27.203125 35.375 
C 33.5 38.546875 39.90625 43.328125 39.90625 50.984375 
C 39.90625 60.015625 31.09375 65.296875 23 65.296875 
C 13.90625 65.296875 5.90625 58.734375 5.90625 49.6875 
C 5.90625 47.203125 6.5 42.921875 10.40625 39.140625 
C 11.40625 38.15625 15.59375 35.171875 18.296875 33.28125 
C 13.796875 30.984375 3.296875 25.53125 3.296875 14.59375 
C 3.296875 4.359375 13.09375 -2 22.796875 -2 
C 33.5 -2 42.5 5.65625 42.5 15.78125 
C 42.5 24.84375 36.40625 29.015625 32.40625 31.703125 
z
M 14.09375 44.09375 
C 13.296875 44.59375 9.296875 47.671875 9.296875 52.359375 
C 9.296875 58.421875 15.59375 63 22.796875 63 
C 30.703125 63 36.5 57.4375 36.5 50.96875 
C 36.5 41.703125 26.09375 36.421875 25.59375 36.421875 
C 25.5 36.421875 25.40625 36.421875 24.59375 37.03125 
z
M 32.5 23.734375 
C 34 22.640625 38.796875 19.375 38.796875 13.296875 
C 38.796875 5.953125 31.40625 0.390625 23 0.390625 
C 13.90625 0.390625 7 6.84375 7 14.6875 
C 7 22.546875 13.09375 29.09375 20 32.1875 
z
" id="CMR17-56"/>
      </defs>
      <g transform="translate(491.144996 398.398498)scale(0.1 -0.1)">
       <use transform="scale(0.996264)" xlink:href="#CMR17-56"/>
       <use transform="translate(45.690477 0)scale(0.996264)" xlink:href="#CMR17-48"/>
       <use transform="translate(91.380954 0)scale(0.996264)" xlink:href="#CMR17-48"/>
      </g>
     </g>
    </g>
    <g id="text_10">
     <!-- Iteration -->
     <defs>
      <path d="M 17.09375 69 
L 8.703125 69 
L 8.703125 0 
L 17.09375 0 
z
" id="CMSS17-73"/>
      <path d="M 16.703125 37 
L 29.703125 37 
L 29.703125 42.765625 
L 16.703125 42.765625 
L 16.703125 55 
L 9.59375 55 
L 9.59375 42.765625 
L 1.703125 42.765625 
L 1.703125 37 
L 9.40625 37 
L 9.40625 11.703125 
C 9.40625 6 10.703125 -1 17.296875 -1 
C 22.296875 -1 26.90625 0.390625 31.296875 2.6875 
L 29.703125 8.5625 
C 27.296875 6.46875 24.40625 5.265625 21.296875 5.265625 
C 16.90625 5.265625 16.703125 10.875 16.703125 13.375 
z
" id="CMSS17-116"/>
      <path d="M 39.09375 21.515625 
C 39.09375 24.84375 38.90625 31.296875 35.703125 36.640625 
C 32.203125 42.390625 26.5 44 22.203125 44 
C 11.796875 44 3 34.1875 3 21.484375 
C 3 9.09375 12.09375 -1 23.59375 -1 
C 28.09375 -1 33.59375 0.296875 38.59375 3.875 
C 38.59375 4.28125 38.40625 6.46875 38.296875 6.5625 
C 38.296875 6.765625 38 9.84375 38 10.25 
C 33.203125 6.359375 27.703125 5.078125 23.703125 5.078125 
C 17.296875 5.078125 10.40625 10.421875 10.09375 21.515625 
z
M 10.90625 27 
C 12.203125 32.5625 16.59375 37.828125 22.203125 37.828125 
C 23.703125 37.828125 30.703125 37.828125 32.5 27 
z
" id="CMSS17-101"/>
      <path d="M 14.90625 21.296875 
C 14.90625 30.703125 21.796875 37 30.59375 37 
L 30.59375 43.578125 
C 24.203125 43.578125 18.203125 40.390625 14.59375 35.203125 
L 14.59375 43.09375 
L 7.5 43.09375 
L 7.5 0 
L 14.90625 0 
z
" id="CMSS17-114"/>
      <path d="M 37.59375 27.984375 
C 37.59375 37.375 30.90625 43.875 21.90625 43.875 
C 17.5 43.875 12.703125 43.078125 7.203125 39.890625 
L 7.796875 33.359375 
C 10.296875 35.125 14.59375 38 21.796875 38 
C 26.90625 38 30 34.0625 30 27.84375 
L 30 24 
C 14 24 4 19.34375 4 11.34375 
C 4 7.203125 6.5 -1 14.796875 -1 
C 16.296875 -1 24.40625 -1 30.203125 3.390625 
L 30.203125 -0.296875 
L 37.59375 -0.296875 
z
M 30 12.75 
C 30 10.953125 30 8.5625 27 6.78125 
C 24.40625 5.078125 21.09375 5.078125 19.703125 5.078125 
C 14.703125 5.078125 11.296875 7.984375 11.296875 11.625 
C 11.296875 18.921875 26.90625 18.921875 30 18.921875 
z
" id="CMSS17-97"/>
      <path d="M 15.296875 65.359375 
L 6.90625 65.359375 
L 6.90625 57 
L 15.296875 57 
z
M 14.796875 42.796875 
L 7.40625 42.796875 
L 7.40625 0 
L 14.796875 0 
z
" id="CMSS17-105"/>
      <path d="M 44.203125 21.1875 
C 44.203125 34 34.703125 44 23.5 44 
C 12 44 2.703125 33.703125 2.703125 21.1875 
C 2.703125 8.5 12.296875 -1 23.40625 -1 
C 34.796875 -1 44.203125 8.796875 44.203125 21.1875 
z
M 23.5 5.265625 
C 16.40625 5.265625 10.296875 11.078125 10.296875 22 
C 10.296875 33.609375 17.40625 37.921875 23.40625 37.921875 
C 29.90625 37.921875 36.59375 33.21875 36.59375 22 
C 36.59375 10.671875 30.09375 5.265625 23.5 5.265625 
z
" id="CMSS17-111"/>
      <path d="M 40.90625 29.328125 
C 40.90625 35.671875 39.40625 44 28.09375 44 
C 21.703125 44 17.5 40.71875 14.703125 37.328125 
L 14.703125 43.09375 
L 7.40625 43.09375 
L 7.40625 0 
L 15 0 
L 15 24.359375 
C 15 30.6875 17.40625 37.9375 24.203125 37.9375 
C 33 37.9375 33.296875 32 33.296875 28.578125 
L 33.296875 0 
L 40.90625 0 
z
" id="CMSS17-110"/>
     </defs>
     <g transform="translate(271.264003 414.021553)scale(0.14 -0.14)">
      <use transform="scale(0.996264)" xlink:href="#CMSS17-73"/>
      <use transform="translate(25.783926 0)scale(0.996264)" xlink:href="#CMSS17-116"/>
      <use transform="translate(59.615492 0)scale(0.996264)" xlink:href="#CMSS17-101"/>
      <use transform="translate(101.254314 0)scale(0.996264)" xlink:href="#CMSS17-114"/>
      <use transform="translate(133.164087 0)scale(0.996264)" xlink:href="#CMSS17-97"/>
      <use transform="translate(178.086007 0)scale(0.996264)" xlink:href="#CMSS17-116"/>
      <use transform="translate(211.917574 0)scale(0.996264)" xlink:href="#CMSS17-105"/>
      <use transform="translate(234.098297 0)scale(0.996264)" xlink:href="#CMSS17-111"/>
      <use transform="translate(280.941921 0)scale(0.996264)" xlink:href="#CMSS17-110"/>
     </g>
    </g>
   </g>
   <g id="matplotlib.axis_2">
    <g id="ytick_1">
     <g id="line2d_19">
      <path clip-path="url(#pe04e73bfb0)" d="M 72 355.801653 
L 518.4 355.801653 
" style="fill:none;stroke:#b0b0b0;stroke-dasharray:5.12,1.28,0.8,1.28;stroke-dashoffset:0;stroke-width:0.8;"/>
     </g>
     <g id="line2d_20">
      <defs>
       <path d="M 0 0 
L -3.5 0 
" id="m30f8166a42" style="stroke:#000000;stroke-width:0.8;"/>
      </defs>
      <g>
       <use style="stroke:#000000;stroke-width:0.8;" x="72" xlink:href="#m30f8166a42" y="355.801653"/>
      </g>
     </g>
     <g id="text_11">
      <!-- $-200$ -->
      <defs>
       <path d="M 65.90625 23 
C 67.59375 23 69.40625 23 69.40625 25 
C 69.40625 27 67.59375 27 65.90625 27 
L 11.796875 27 
C 10.09375 27 8.296875 27 8.296875 25 
C 8.296875 23 10.09375 23 11.796875 23 
z
" id="CMSY10-0"/>
      </defs>
      <g transform="translate(42.307251 359.260902)scale(0.1 -0.1)">
       <use transform="scale(0.996264)" xlink:href="#CMSY10-0"/>
       <use transform="translate(77.487468 0)scale(0.996264)" xlink:href="#CMR17-50"/>
       <use transform="translate(123.177945 0)scale(0.996264)" xlink:href="#CMR17-48"/>
       <use transform="translate(168.868422 0)scale(0.996264)" xlink:href="#CMR17-48"/>
      </g>
     </g>
    </g>
    <g id="ytick_2">
     <g id="line2d_21">
      <path clip-path="url(#pe04e73bfb0)" d="M 72 284.723252 
L 518.4 284.723252 
" style="fill:none;stroke:#b0b0b0;stroke-dasharray:5.12,1.28,0.8,1.28;stroke-dashoffset:0;stroke-width:0.8;"/>
     </g>
     <g id="line2d_22">
      <g>
       <use style="stroke:#000000;stroke-width:0.8;" x="72" xlink:href="#m30f8166a42" y="284.723252"/>
      </g>
     </g>
     <g id="text_12">
      <!-- $-100$ -->
      <g transform="translate(42.307251 288.182501)scale(0.1 -0.1)">
       <use transform="scale(0.996264)" xlink:href="#CMSY10-0"/>
       <use transform="translate(77.487468 0)scale(0.996264)" xlink:href="#CMR17-49"/>
       <use transform="translate(123.177945 0)scale(0.996264)" xlink:href="#CMR17-48"/>
       <use transform="translate(168.868422 0)scale(0.996264)" xlink:href="#CMR17-48"/>
      </g>
     </g>
    </g>
    <g id="ytick_3">
     <g id="line2d_23">
      <path clip-path="url(#pe04e73bfb0)" d="M 72 213.644851 
L 518.4 213.644851 
" style="fill:none;stroke:#b0b0b0;stroke-dasharray:5.12,1.28,0.8,1.28;stroke-dashoffset:0;stroke-width:0.8;"/>
     </g>
     <g id="line2d_24">
      <g>
       <use style="stroke:#000000;stroke-width:0.8;" x="72" xlink:href="#m30f8166a42" y="213.644851"/>
      </g>
     </g>
     <g id="text_13">
      <!-- $0$ -->
      <g transform="translate(60.018665 217.1041)scale(0.1 -0.1)">
       <use transform="scale(0.996264)" xlink:href="#CMR17-48"/>
      </g>
     </g>
    </g>
    <g id="ytick_4">
     <g id="line2d_25">
      <path clip-path="url(#pe04e73bfb0)" d="M 72 142.56645 
L 518.4 142.56645 
" style="fill:none;stroke:#b0b0b0;stroke-dasharray:5.12,1.28,0.8,1.28;stroke-dashoffset:0;stroke-width:0.8;"/>
     </g>
     <g id="line2d_26">
      <g>
       <use style="stroke:#000000;stroke-width:0.8;" x="72" xlink:href="#m30f8166a42" y="142.56645"/>
      </g>
     </g>
     <g id="text_14">
      <!-- $100$ -->
      <g transform="translate(50.055994 146.0257)scale(0.1 -0.1)">
       <use transform="scale(0.996264)" xlink:href="#CMR17-49"/>
       <use transform="translate(45.690477 0)scale(0.996264)" xlink:href="#CMR17-48"/>
       <use transform="translate(91.380954 0)scale(0.996264)" xlink:href="#CMR17-48"/>
      </g>
     </g>
    </g>
    <g id="ytick_5">
     <g id="line2d_27">
      <path clip-path="url(#pe04e73bfb0)" d="M 72 71.48805 
L 518.4 71.48805 
" style="fill:none;stroke:#b0b0b0;stroke-dasharray:5.12,1.28,0.8,1.28;stroke-dashoffset:0;stroke-width:0.8;"/>
     </g>
     <g id="line2d_28">
      <g>
       <use style="stroke:#000000;stroke-width:0.8;" x="72" xlink:href="#m30f8166a42" y="71.48805"/>
      </g>
     </g>
     <g id="text_15">
      <!-- $200$ -->
      <g transform="translate(50.055994 74.947299)scale(0.1 -0.1)">
       <use transform="scale(0.996264)" xlink:href="#CMR17-50"/>
       <use transform="translate(45.690477 0)scale(0.996264)" xlink:href="#CMR17-48"/>
       <use transform="translate(91.380954 0)scale(0.996264)" xlink:href="#CMR17-48"/>
      </g>
     </g>
    </g>
    <g id="text_16">
     <!-- $i_{mn}$ -->
     <defs>
      <path d="M 28.296875 14.265625 
C 28.296875 14.765625 27.90625 15.171875 27.296875 15.171875 
C 26.40625 15.171875 26.296875 14.875 25.796875 13.171875 
C 23.203125 4.09375 19.09375 1 15.796875 1 
C 14.59375 1 13.203125 1.296875 13.203125 4.296875 
C 13.203125 6.984375 14.40625 9.984375 15.5 12.96875 
L 22.5 31.53125 
C 22.796875 32.328125 23.5 34.125 23.5 36.015625 
C 23.5 40.21875 20.5 44 15.59375 44 
C 6.40625 44 2.703125 29.53125 2.703125 28.734375 
C 2.703125 28.34375 3.09375 27.84375 3.796875 27.84375 
C 4.703125 27.84375 4.796875 28.234375 5.203125 29.625 
C 7.59375 37.9375 11.40625 41.90625 15.296875 41.90625 
C 16.203125 41.90625 17.90625 41.90625 17.90625 38.71875 
C 17.90625 36.125 16.59375 32.828125 15.796875 30.640625 
L 8.796875 12.078125 
C 8.203125 10.484375 7.59375 8.875 7.59375 7.078125 
C 7.59375 2.59375 10.703125 -1 15.5 -1 
C 24.703125 -1 28.296875 13.578125 28.296875 14.265625 
z
M 27.5 62.703125 
C 27.5 64.203125 26.296875 66 24.09375 66 
C 21.796875 66 19.203125 63.796875 19.203125 61.203125 
C 19.203125 58.71875 21.296875 57.921875 22.5 57.921875 
C 25.203125 57.921875 27.5 60.515625 27.5 62.703125 
z
" id="CMMI12-105"/>
      <path d="M 20.59375 29.234375 
C 20.796875 29.84375 23.296875 34.828125 27 38.015625 
C 29.59375 40.40625 33 42.015625 36.90625 42.015625 
C 40.90625 42.015625 42.296875 39.015625 42.296875 35.03125 
C 42.296875 34.421875 42.296875 32.4375 41.09375 27.734375 
L 38.59375 17.46875 
C 37.796875 14.46875 35.90625 7.078125 35.703125 5.984375 
C 35.296875 4.484375 34.703125 1.890625 34.703125 1.5 
C 34.703125 0.09375 35.796875 -1 37.296875 -1 
C 40.296875 -1 40.796875 1.296875 41.703125 4.890625 
L 47.703125 28.734375 
C 47.90625 29.53125 53.09375 42.015625 64.09375 42.015625 
C 68.09375 42.015625 69.5 39.015625 69.5 35.03125 
C 69.5 29.4375 65.59375 18.5625 63.40625 12.578125 
C 62.5 10.171875 62 8.875 62 7.078125 
C 62 2.59375 65.09375 -1 69.90625 -1 
C 79.203125 -1 82.703125 13.671875 82.703125 14.265625 
C 82.703125 14.765625 82.296875 15.171875 81.703125 15.171875 
C 80.796875 15.171875 80.703125 14.875 80.203125 13.171875 
C 77.90625 5.1875 74.203125 1 70.203125 1 
C 69.203125 1 67.59375 1 67.59375 4.203125 
C 67.59375 6.8125 68.796875 10 69.203125 11.09375 
C 71 15.90625 75.5 27.703125 75.5 33.515625 
C 75.5 39.5 72 44 64.40625 44 
C 57.703125 44 52.296875 40.21875 48.296875 34.328125 
C 48 39.71875 44.703125 44 37.203125 44 
C 28.296875 44 23.59375 37.734375 21.796875 35.234375 
C 21.5 40.90625 17.40625 44 13 44 
C 10.09375 44 7.796875 42.609375 5.90625 38.8125 
C 4.09375 35.21875 2.703125 29.140625 2.703125 28.734375 
C 2.703125 28.34375 3.09375 27.84375 3.796875 27.84375 
C 4.59375 27.84375 4.703125 27.9375 5.296875 30.234375 
C 6.796875 36.125 8.703125 42.015625 12.703125 42.015625 
C 15 42.015625 15.796875 40.40625 15.796875 37.421875 
C 15.796875 35.21875 14.796875 31.328125 14.09375 28.234375 
L 11.296875 17.46875 
C 10.90625 15.5625 9.796875 11.078125 9.296875 9.28125 
C 8.59375 6.6875 7.5 2 7.5 1.5 
C 7.5 0.09375 8.59375 -1 10.09375 -1 
C 11.296875 -1 12.703125 -0.40625 13.5 1.09375 
C 13.703125 1.59375 14.59375 5.09375 15.09375 7.078125 
L 17.296875 16.0625 
z
" id="CMMI12-109"/>
      <path d="M 20.59375 29.234375 
C 20.796875 29.84375 23.296875 34.828125 27 38.015625 
C 29.59375 40.40625 33 42.015625 36.90625 42.015625 
C 40.90625 42.015625 42.296875 39.015625 42.296875 35.03125 
C 42.296875 29.34375 38.203125 17.96875 36.203125 12.578125 
C 35.296875 10.171875 34.796875 8.875 34.796875 7.078125 
C 34.796875 2.59375 37.90625 -1 42.703125 -1 
C 52 -1 55.5 13.671875 55.5 14.265625 
C 55.5 14.765625 55.09375 15.171875 54.5 15.171875 
C 53.59375 15.171875 53.5 14.875 53 13.171875 
C 50.703125 4.984375 46.90625 1 43 1 
C 42 1 40.40625 1 40.40625 4.203125 
C 40.40625 6.703125 41.5 9.703125 42.09375 11.09375 
C 44.09375 16.609375 48.296875 27.8125 48.296875 33.515625 
C 48.296875 39.5 44.796875 44 37.203125 44 
C 28.296875 44 23.59375 37.734375 21.796875 35.234375 
C 21.5 40.90625 17.40625 44 13 44 
C 9.796875 44 7.59375 42.109375 5.90625 38.71875 
C 4.09375 35.125 2.703125 29.140625 2.703125 28.734375 
C 2.703125 28.34375 3.09375 27.84375 3.796875 27.84375 
C 4.59375 27.84375 4.703125 27.9375 5.296875 30.234375 
C 6.90625 36.328125 8.703125 42.015625 12.703125 42.015625 
C 15 42.015625 15.796875 40.40625 15.796875 37.421875 
C 15.796875 35.21875 14.796875 31.328125 14.09375 28.234375 
L 11.296875 17.46875 
C 10.90625 15.5625 9.796875 11.078125 9.296875 9.28125 
C 8.59375 6.6875 7.5 2 7.5 1.5 
C 7.5 0.09375 8.59375 -1 10.09375 -1 
C 11.296875 -1 12.703125 -0.40625 13.5 1.09375 
C 13.703125 1.59375 14.59375 5.09375 15.09375 7.078125 
L 17.296875 16.0625 
z
" id="CMMI12-110"/>
     </defs>
     <g transform="translate(35.595222 227.936266)rotate(-90)scale(0.14 -0.14)">
      <use transform="translate(0 14.943915)scale(0.996264)" xlink:href="#CMMI12-105"/>
      <use transform="translate(33.278602 0)scale(0.697382)" xlink:href="#CMMI12-109"/>
      <use transform="translate(93.007393 0)scale(0.697382)" xlink:href="#CMMI12-110"/>
     </g>
    </g>
   </g>
   <g id="line2d_29">
    <path clip-path="url(#pe04e73bfb0)" d="M 92.290909 213.644851 
L 92.798817 213.644851 
L 93.306724 212.05831 
L 94.32254 199.455612 
L 94.830447 196.027359 
L 95.338355 193.969497 
L 95.846262 193.097223 
L 96.35417 192.931681 
L 96.862078 193.118973 
L 98.893708 194.276911 
L 99.909523 194.533646 
L 101.433246 194.619793 
L 106.004415 194.427242 
L 107.02023 205.657416 
L 107.528137 209.111471 
L 108.036045 211.189732 
L 108.543953 212.288391 
L 109.05186 212.760067 
L 109.559768 212.855597 
L 110.575583 212.517406 
L 113.623029 211.006421 
L 116.162567 210.100811 
L 122.257458 208.264856 
L 129.368165 206.353131 
L 136.478871 204.669497 
L 144.097485 203.087576 
L 152.224007 201.620234 
L 161.366344 200.202717 
L 167.969143 199.311892 
L 168.477051 199.900208 
L 169.492866 199.951953 
L 172.540312 201.162844 
L 174.064035 201.385106 
L 176.095665 201.431307 
L 180.158926 201.241315 
L 180.666834 199.766438 
L 181.174741 194.865298 
L 182.190556 189.104891 
L 183.206372 185.582885 
L 183.714279 185.576844 
L 184.222187 186.406186 
L 185.238002 188.850999 
L 188.793355 198.077971 
L 189.809171 200.136117 
L 190.824986 201.734599 
L 191.840801 202.813143 
L 192.348709 203.142307 
L 192.856616 203.324338 
L 193.364524 204.384117 
L 194.888247 209.081191 
L 195.904062 211.51321 
L 196.919877 213.353572 
L 197.427785 212.291732 
L 197.935692 210.810245 
L 198.951508 208.850968 
L 199.967323 207.377513 
L 200.47523 207.458472 
L 200.983138 207.117508 
L 204.538491 203.08914 
L 205.554307 202.364567 
L 206.570122 201.855006 
L 207.585937 201.535935 
L 209.10966 201.359305 
L 209.617567 199.776887 
L 210.125475 200.255102 
L 211.14129 201.551359 
L 212.157105 202.58754 
L 213.172921 203.40551 
L 214.188736 204.029507 
L 214.696644 204.191993 
L 215.204551 204.034554 
L 218.251997 202.346015 
L 219.267812 202.104349 
L 220.283627 202.0853 
L 221.299442 202.26918 
L 222.823165 202.834182 
L 226.886426 204.640071 
L 227.902241 204.85885 
L 228.410149 204.765169 
L 229.425964 203.295623 
L 230.441779 202.320711 
L 231.457595 201.615756 
L 232.981318 200.905327 
L 234.50504 200.50146 
L 236.028763 200.31495 
L 238.060394 200.28794 
L 241.615747 200.536075 
L 248.218546 201.033553 
L 249.742269 201.022962 
L 250.250176 201.390508 
L 251.265992 207.910459 
L 251.773899 210.246948 
L 252.281807 212.023837 
L 252.789714 213.362243 
L 253.80553 215.138635 
L 254.821345 216.18235 
L 255.83716 216.834921 
L 257.360883 217.465315 
L 259.392513 218.04105 
L 261.932051 218.531633 
L 263.963682 218.705847 
L 264.471589 218.713239 
L 265.995312 218.022357 
L 267.519035 217.636685 
L 269.550666 217.383362 
L 272.598111 217.282786 
L 277.677187 217.400207 
L 286.311617 217.614509 
L 286.819524 217.985183 
L 287.327432 217.628938 
L 288.343247 215.94573 
L 289.359062 214.282496 
L 290.374878 213.229043 
L 291.390693 212.691903 
L 292.406508 212.508308 
L 293.422323 212.548822 
L 294.946046 212.834771 
L 300.025122 214.123422 
L 301.040938 214.784878 
L 304.596291 215.056681 
L 306.627921 214.753816 
L 311.19909 213.989155 
L 314.246535 213.70939 
L 318.309796 213.574839 
L 325.420503 213.415197 
L 328.975856 213.363168 
L 332.023302 213.555363 
L 337.102378 213.990719 
L 352.847514 213.643145 
L 370.62428 213.692403 
L 376.719172 213.679751 
L 401.606645 213.642506 
L 449.34996 213.645349 
L 498.109091 213.644851 
L 498.109091 213.644851 
" style="fill:none;stroke:#bf00bf;stroke-linecap:square;stroke-width:1.5;"/>
   </g>
   <g id="line2d_30">
    <path clip-path="url(#pe04e73bfb0)" d="M 92.290909 213.644851 
L 92.798817 213.644851 
L 93.306724 213.644851 
L 93.814632 215.056753 
L 94.830447 224.33682 
L 95.338355 226.36163 
L 95.846262 227.4841 
L 96.35417 227.849727 
L 96.862078 227.788245 
L 99.401616 226.603652 
L 100.925338 226.384375 
L 103.464877 226.387076 
L 106.512322 226.446995 
L 107.02023 221.632286 
L 107.528137 218.178232 
L 108.036045 216.09997 
L 108.543953 215.001311 
L 109.05186 214.529635 
L 109.559768 214.434106 
L 110.575583 214.772297 
L 113.623029 216.283281 
L 116.162567 217.188891 
L 122.257458 219.024846 
L 129.368165 220.936571 
L 136.478871 222.620205 
L 144.097485 224.202126 
L 152.224007 225.669469 
L 161.366344 227.086985 
L 167.969143 227.977811 
L 168.477051 227.389495 
L 169.492866 227.33775 
L 172.540312 226.126858 
L 174.064035 225.904596 
L 176.095665 225.858395 
L 180.158926 226.048388 
L 180.666834 227.523264 
L 181.174741 232.424404 
L 182.190556 238.184811 
L 183.206372 241.706817 
L 183.714279 242.975922 
L 184.222187 243.456767 
L 184.730094 243.405875 
L 185.238002 243.093272 
L 186.253817 242.075572 
L 187.77754 239.987928 
L 190.317078 235.853013 
L 193.364524 230.742974 
L 194.380339 228.176191 
L 195.396154 225.654826 
L 196.41197 223.734643 
L 197.427785 222.297865 
L 197.935692 222.45907 
L 198.951508 223.235673 
L 200.47523 223.847089 
L 200.983138 223.754688 
L 201.491046 223.847729 
L 203.014768 224.695766 
L 204.538491 225.451045 
L 206.062214 225.884054 
L 207.585937 226.00638 
L 209.10966 225.868133 
L 209.617567 225.773456 
L 210.125475 226.239731 
L 210.633383 225.873108 
L 212.157105 224.38494 
L 213.172921 223.668398 
L 214.696644 222.938423 
L 215.204551 222.809842 
L 216.220366 222.958041 
L 220.283627 224.091173 
L 222.315258 224.364398 
L 228.918057 224.886185 
L 229.933872 225.730312 
L 230.949687 226.285718 
L 232.47341 226.792934 
L 233.997133 227.04839 
L 236.028763 227.130983 
L 239.076209 226.954495 
L 247.710638 226.26866 
L 249.742269 226.220397 
L 250.250176 225.817312 
L 251.773899 216.698379 
L 252.281807 214.842309 
L 252.789714 213.450167 
L 253.297622 212.40233 
L 254.313437 211.01559 
L 255.329252 210.223635 
L 256.345068 209.768235 
L 257.868791 209.417108 
L 259.900421 209.239838 
L 262.947867 209.244245 
L 264.979497 209.350436 
L 266.50322 209.774774 
L 268.53485 210.013811 
L 271.582296 210.070318 
L 277.677187 209.871441 
L 285.803709 209.676331 
L 286.311617 209.672706 
L 286.819524 208.934912 
L 287.327432 209.14836 
L 288.343247 210.626009 
L 289.359062 212.142325 
L 290.374878 213.147942 
L 291.390693 213.730572 
L 292.406508 214.037559 
L 293.930231 214.221724 
L 299.009307 214.3599 
L 299.517215 214.316542 
L 300.53303 213.7858 
L 301.548845 213.137067 
L 303.580476 212.636959 
L 305.104198 212.570572 
L 307.135829 212.767175 
L 312.722813 213.428773 
L 316.786074 213.643145 
L 322.373057 213.693611 
L 325.420503 213.77727 
L 329.991671 213.852756 
L 333.547025 213.677618 
L 338.626101 213.413207 
L 344.213085 213.523805 
L 353.355422 213.643714 
L 389.92477 213.645278 
L 498.109091 213.644851 
L 498.109091 213.644851 
" style="fill:none;stroke:#00bfbf;stroke-linecap:square;stroke-width:1.5;"/>
   </g>
   <g id="line2d_31">
    <path clip-path="url(#pe04e73bfb0)" d="M 92.290909 213.644851 
L 92.798817 213.644851 
L 93.306724 200.95231 
L 93.814632 192.867568 
L 94.32254 191.577069 
L 94.830447 192.503647 
L 95.338355 192.470596 
L 96.35417 192.920948 
L 97.369985 193.120181 
L 99.401616 193.176191 
L 106.004415 193.005674 
L 106.512322 199.234914 
L 107.02023 199.429171 
L 183.206372 199.429171 
L 184.730094 203.104635 
L 185.74591 204.979044 
L 186.761725 206.545327 
L 187.77754 207.773989 
L 188.793355 208.604042 
L 189.809171 208.98289 
L 190.317078 208.9895 
L 190.824986 208.868027 
L 191.332893 208.614917 
L 192.348709 207.702057 
L 192.856616 207.038754 
L 193.364524 207.26656 
L 193.872431 207.680023 
L 194.888247 208.064486 
L 196.919877 208.459469 
L 197.427785 206.729065 
L 197.935692 205.408713 
L 199.459415 203.681721 
L 199.967323 203.18865 
L 200.47523 203.444959 
L 202.506861 201.757202 
L 204.030584 200.910445 
L 206.062214 200.107899 
L 208.093845 199.565926 
L 209.10966 199.366906 
L 209.617567 197.689811 
L 210.125475 198.63423 
L 210.633383 198.951524 
L 213.680828 199.262279 
L 214.696644 199.269955 
L 216.220366 198.519581 
L 217.236182 198.216431 
L 218.251997 198.079108 
L 219.267812 198.114576 
L 220.283627 198.315941 
L 221.80735 198.879451 
L 224.346888 200.201011 
L 226.378519 201.198952 
L 227.902241 201.702116 
L 228.410149 201.662952 
L 228.918057 200.989271 
L 229.933872 200.634519 
L 232.47341 200.035257 
L 235.012948 199.677306 
L 238.568301 199.444879 
L 243.647377 199.384605 
L 250.250176 199.34736 
L 251.265992 199.196958 
L 252.789714 198.95188 
L 254.821345 198.88663 
L 256.852975 199.041936 
L 259.900421 199.538419 
L 263.455774 200.087712 
L 264.471589 200.170945 
L 264.979497 199.954511 
L 266.50322 199.780938 
L 271.074388 199.518517 
L 277.677187 199.411117 
L 286.311617 199.426754 
L 286.819524 199.059492 
L 288.343247 198.711208 
L 289.86697 198.527542 
L 291.390693 198.561943 
L 293.422323 198.872201 
L 296.977677 199.764306 
L 299.517215 200.293698 
L 300.53303 200.425406 
L 301.040938 200.35518 
L 301.548845 200.106761 
L 304.596291 199.758833 
L 308.659552 199.489943 
L 314.246535 199.383468 
L 331.007487 199.432085 
L 336.59447 199.59585 
L 338.118193 199.521786 
L 349.292161 199.424835 
L 476.269064 199.429242 
L 498.109091 199.429171 
L 498.109091 199.429171 
" style="fill:none;stroke:#ff0000;stroke-linecap:square;stroke-width:1.5;"/>
   </g>
   <g id="line2d_32">
    <path clip-path="url(#pe04e73bfb0)" d="M 92.290909 213.644851 
L 92.798817 213.644851 
L 93.306724 224.750851 
L 93.814632 227.860531 
L 498.109091 227.860531 
L 498.109091 227.860531 
" style="fill:none;stroke:#008000;stroke-linecap:square;stroke-width:1.5;"/>
   </g>
   <g id="line2d_33">
    <path clip-path="url(#pe04e73bfb0)" d="M 92.290909 213.644851 
L 92.798817 213.644851 
L 93.306724 226.337392 
L 93.814632 232.835593 
L 94.32254 235.721518 
L 94.830447 231.509981 
L 95.846262 234.042362 
L 96.35417 234.86019 
L 97.369985 235.901133 
L 98.3858 236.464856 
L 99.909523 236.90739 
L 103.464877 237.506084 
L 106.004415 237.923598 
L 107.02023 229.821442 
L 108.036045 224.204472 
L 109.05186 220.465392 
L 109.559768 219.17539 
L 110.067676 218.195859 
L 110.575583 217.474555 
L 111.083491 216.965279 
L 111.591398 216.627585 
L 112.607214 216.334031 
L 113.623029 216.380161 
L 115.146752 216.789928 
L 117.68629 217.813031 
L 125.812811 221.20475 
L 131.907703 223.457722 
L 138.002594 225.47379 
L 144.605393 227.420769 
L 151.7161 229.274423 
L 159.334714 231.015844 
L 167.461236 232.631314 
L 168.477051 232.845117 
L 168.984958 233.279051 
L 171.016589 235.507359 
L 172.032404 236.276214 
L 173.048219 236.824584 
L 174.571942 237.373593 
L 176.603573 237.826363 
L 180.158926 238.316022 
L 181.682649 238.562593 
L 182.190556 238.729272 
L 182.698464 241.158163 
L 183.714279 258.049945 
L 186.253817 304.951952 
L 187.77754 328.611677 
L 188.793355 341.722728 
L 189.809171 352.386549 
L 190.824986 360.310511 
L 191.332893 363.151941 
L 191.840801 365.197436 
L 192.348709 366.411384 
L 192.856616 366.759739 
L 193.364524 366.857401 
L 193.872431 367.08279 
L 194.888247 367.895785 
L 196.41197 369.36 
L 198.4436 344.477087 
L 199.459415 335.427598 
L 201.491046 320.980984 
L 202.506861 315.975074 
L 203.522676 312.222419 
L 204.538491 309.490592 
L 205.554307 307.598343 
L 206.570122 306.397189 
L 207.585937 305.763738 
L 208.601752 305.594856 
L 209.10966 305.657121 
L 209.617567 307.39648 
L 210.125475 308.19135 
L 211.14129 309.077769 
L 212.157105 309.761543 
L 213.172921 310.243241 
L 213.680828 310.410133 
L 214.188736 310.20031 
L 214.696644 308.885075 
L 217.744089 298.928342 
L 218.759904 296.984347 
L 219.267812 296.414867 
L 219.77572 296.119181 
L 220.283627 296.093095 
L 220.791535 296.326375 
L 221.299442 296.803595 
L 221.80735 297.504428 
L 222.823165 299.475503 
L 223.838981 302.005326 
L 226.886426 310.248998 
L 227.394334 311.375165 
L 227.902241 311.812723 
L 228.410149 309.578942 
L 229.425964 306.678091 
L 230.441779 304.403298 
L 231.457595 302.650931 
L 232.47341 301.339676 
L 233.489225 300.38488 
L 234.50504 299.714469 
L 235.520856 299.267172 
L 237.044578 298.905312 
L 238.568301 298.795141 
L 241.107839 298.90581 
L 247.710638 299.354101 
L 248.726454 299.316927 
L 250.250176 298.600812 
L 251.773899 297.644168 
L 253.80553 296.201845 
L 254.821345 295.797978 
L 255.83716 295.706429 
L 256.852975 295.936438 
L 257.868791 296.460286 
L 258.884606 297.223171 
L 260.916236 299.160413 
L 262.947867 301.076615 
L 263.963682 301.827345 
L 264.979497 300.665213 
L 266.50322 299.485241 
L 268.026943 298.661513 
L 269.550666 298.123023 
L 271.074388 297.796276 
L 273.106019 297.588727 
L 276.153465 297.559869 
L 286.311617 297.854702 
L 286.819524 297.637842 
L 287.83534 296.619502 
L 289.359062 294.939137 
L 290.374878 294.145831 
L 290.882785 293.915395 
L 291.390693 293.809275 
L 291.898601 293.829959 
L 292.406508 293.975172 
L 293.422323 294.613172 
L 294.438139 295.646012 
L 295.961861 297.699325 
L 299.009307 302.102063 
L 300.025122 303.234484 
L 300.53303 303.210602 
L 301.040938 302.284593 
L 302.056753 301.006105 
L 303.072568 299.967579 
L 304.088383 299.153589 
L 305.104198 298.540751 
L 306.627921 297.93104 
L 308.151644 297.60472 
L 310.183275 297.468249 
L 312.722813 297.571668 
L 321.86515 298.233763 
L 323.388872 297.894791 
L 325.420503 297.399303 
L 326.944226 297.203908 
L 328.467949 297.185144 
L 330.499579 297.392551 
L 336.086563 298.372651 
L 337.610286 297.987974 
L 340.149824 297.617158 
L 343.197269 297.414656 
L 347.768438 297.363764 
L 359.450313 297.324742 
L 364.021481 297.267524 
L 374.687541 297.332418 
L 383.829878 297.286786 
L 459.000205 297.270651 
L 498.109091 297.270082 
L 498.109091 297.270082 
" style="fill:none;stroke:#0000ff;stroke-linecap:square;stroke-width:1.5;"/>
   </g>
   <g id="line2d_34">
    <path clip-path="url(#pe04e73bfb0)" d="M 92.290909 213.644851 
L 92.798817 213.644851 
L 93.306724 200.95231 
L 93.814632 194.454109 
L 94.32254 191.568184 
L 95.846262 187.645083 
L 96.862078 186.047098 
L 97.877893 185.119312 
L 98.893708 184.576984 
L 100.417431 184.1068 
L 103.972784 183.411938 
L 106.004415 183.027901 
L 106.512322 189.171847 
L 107.528137 197.46826 
L 108.543953 203.085231 
L 109.559768 206.82431 
L 110.067676 208.114312 
L 110.575583 209.093843 
L 111.083491 209.815147 
L 111.591398 210.324424 
L 112.099306 210.662117 
L 113.115121 210.955671 
L 114.130936 210.909541 
L 115.654659 210.499774 
L 118.194197 209.476672 
L 126.320719 206.084952 
L 132.41561 203.83198 
L 138.510502 201.815913 
L 145.113301 199.868933 
L 152.224007 198.015279 
L 159.842621 196.273859 
L 167.969143 194.658389 
L 168.984958 194.444585 
L 169.492866 194.010651 
L 171.524497 191.782343 
L 172.540312 191.013488 
L 173.556127 190.465119 
L 175.07985 189.916109 
L 177.11148 189.46334 
L 180.666834 188.97368 
L 182.190556 188.727109 
L 182.698464 188.560431 
L 183.206372 186.131539 
L 184.222187 171.81308 
L 187.269632 121.738347 
L 188.793355 101.009184 
L 189.809171 89.464914 
L 190.824986 80.01895 
L 191.840801 72.935561 
L 192.348709 70.365153 
L 192.856616 68.487901 
L 193.364524 68.367352 
L 193.872431 68.683154 
L 194.380339 68.693958 
L 195.396154 68.141821 
L 196.919877 66.96 
L 197.427785 71.484638 
L 198.4436 82.812616 
L 199.459415 91.862104 
L 201.491046 106.308718 
L 202.506861 111.314628 
L 203.522676 115.067283 
L 204.538491 117.799111 
L 205.554307 119.69136 
L 206.570122 120.892514 
L 207.585937 121.525964 
L 208.601752 121.694847 
L 209.10966 121.632582 
L 209.617567 119.893222 
L 210.125475 119.098353 
L 211.14129 118.211934 
L 212.157105 117.52816 
L 213.172921 117.046461 
L 214.188736 116.760229 
L 214.696644 116.930106 
L 215.204551 117.95925 
L 216.220366 120.990957 
L 217.744089 125.71234 
L 218.759904 128.110383 
L 219.267812 128.990689 
L 219.77572 129.641199 
L 220.283627 130.05722 
L 220.791535 130.240105 
L 221.299442 130.196179 
L 221.80735 129.936387 
L 222.315258 129.476012 
L 223.331073 128.033263 
L 224.346888 126.056217 
L 227.902241 118.187483 
L 228.410149 117.71076 
L 229.425964 120.611612 
L 230.441779 122.886405 
L 231.457595 124.638772 
L 232.47341 125.950026 
L 233.489225 126.904822 
L 234.50504 127.575234 
L 235.520856 128.02253 
L 237.044578 128.38439 
L 238.568301 128.494562 
L 241.107839 128.383893 
L 247.710638 127.935601 
L 249.234361 127.967089 
L 250.758084 128.559314 
L 251.773899 128.93539 
L 253.297622 129.913713 
L 254.821345 130.783997 
L 255.83716 131.088284 
L 256.852975 131.120198 
L 257.868791 130.880522 
L 258.884606 130.399108 
L 260.408329 129.34011 
L 264.471589 126.20406 
L 266.50322 127.804462 
L 268.026943 128.628189 
L 269.550666 129.166679 
L 271.074388 129.493427 
L 273.106019 129.700975 
L 276.153465 129.729833 
L 286.311617 129.435 
L 286.819524 129.065321 
L 287.327432 129.139385 
L 288.343247 129.952238 
L 290.374878 131.884646 
L 291.390693 132.50708 
L 292.406508 132.715908 
L 293.422323 132.493575 
L 294.438139 131.879671 
L 295.453954 130.948544 
L 296.977677 129.167745 
L 299.517215 126.052237 
L 300.53303 125.051453 
L 301.040938 125.00511 
L 302.056753 126.283597 
L 303.072568 127.322124 
L 304.088383 128.136113 
L 305.104198 128.748951 
L 306.627921 129.358662 
L 308.151644 129.684983 
L 310.183275 129.821453 
L 312.722813 129.718034 
L 322.373057 129.044709 
L 323.89678 129.327103 
L 326.436318 129.873838 
L 328.467949 130.040943 
L 330.499579 129.953801 
L 333.547025 129.520863 
L 336.59447 129.083731 
L 338.626101 129.477434 
L 341.165639 129.763667 
L 344.720992 129.913997 
L 351.323791 129.894664 
L 358.942405 129.910728 
L 364.021481 130.018625 
L 385.353601 130.000713 
L 445.794607 130.018625 
L 498.109091 130.01962 
L 498.109091 130.01962 
" style="fill:none;stroke:#000000;stroke-linecap:square;stroke-width:1.5;"/>
   </g>
   <g id="patch_3">
    <path d="M 72 384.48 
L 72 51.84 
" style="fill:none;stroke:#000000;stroke-linecap:square;stroke-linejoin:miter;stroke-width:0.8;"/>
   </g>
   <g id="patch_4">
    <path d="M 518.4 384.48 
L 518.4 51.84 
" style="fill:none;stroke:#000000;stroke-linecap:square;stroke-linejoin:miter;stroke-width:0.8;"/>
   </g>
   <g id="patch_5">
    <path d="M 72 384.48 
L 518.4 384.48 
" style="fill:none;stroke:#000000;stroke-linecap:square;stroke-linejoin:miter;stroke-width:0.8;"/>
   </g>
   <g id="patch_6">
    <path d="M 72 51.84 
L 518.4 51.84 
" style="fill:none;stroke:#000000;stroke-linecap:square;stroke-linejoin:miter;stroke-width:0.8;"/>
   </g>
   <g id="text_17">
    <!-- $i_{mn}$ -->
    <g transform="translate(285.423734 45.84)scale(0.14 -0.14)">
     <use transform="translate(0 14.943915)scale(0.996264)" xlink:href="#CMMI12-105"/>
     <use transform="translate(33.278602 0)scale(0.697382)" xlink:href="#CMMI12-109"/>
     <use transform="translate(93.007393 0)scale(0.697382)" xlink:href="#CMMI12-110"/>
    </g>
   </g>
   <g id="legend_1">
    <g id="patch_7">
     <path d="M 79 143.46307 
L 122.374734 143.46307 
Q 124.374734 143.46307 124.374734 141.46307 
L 124.374734 58.84 
Q 124.374734 56.84 122.374734 56.84 
L 79 56.84 
Q 77 56.84 77 58.84 
L 77 141.46307 
Q 77 143.46307 79 143.46307 
z
" style="fill:#ffffff;opacity:0.8;stroke:#cccccc;stroke-linejoin:miter;"/>
    </g>
    <g id="line2d_35">
     <path d="M 81 64.34 
L 101 64.34 
" style="fill:none;stroke:#bf00bf;stroke-linecap:square;stroke-width:1.5;"/>
    </g>
    <g id="line2d_36"/>
    <g id="text_18">
     <!-- $i_{12}$ -->
     <g transform="translate(109 67.84)scale(0.1 -0.1)">
      <use transform="translate(0 14.943915)scale(0.996264)" xlink:href="#CMMI12-105"/>
      <use transform="translate(33.278602 0)scale(0.697382)" xlink:href="#CMR17-49"/>
      <use transform="translate(65.261784 0)scale(0.697382)" xlink:href="#CMR17-50"/>
     </g>
    </g>
    <g id="line2d_37">
     <path d="M 81 78.277178 
L 101 78.277178 
" style="fill:none;stroke:#00bfbf;stroke-linecap:square;stroke-width:1.5;"/>
    </g>
    <g id="line2d_38"/>
    <g id="text_19">
     <!-- $i_{21}$ -->
     <g transform="translate(109 81.777178)scale(0.1 -0.1)">
      <use transform="translate(0 14.943915)scale(0.996264)" xlink:href="#CMMI12-105"/>
      <use transform="translate(33.278602 0)scale(0.697382)" xlink:href="#CMR17-50"/>
      <use transform="translate(65.261784 0)scale(0.697382)" xlink:href="#CMR17-49"/>
     </g>
    </g>
    <g id="line2d_39">
     <path d="M 81 92.214357 
L 101 92.214357 
" style="fill:none;stroke:#ff0000;stroke-linecap:square;stroke-width:1.5;"/>
    </g>
    <g id="line2d_40"/>
    <g id="text_20">
     <!-- $i_{23}$ -->
     <g transform="translate(109 95.714357)scale(0.1 -0.1)">
      <use transform="translate(0 14.943915)scale(0.996264)" xlink:href="#CMMI12-105"/>
      <use transform="translate(33.278602 0)scale(0.697382)" xlink:href="#CMR17-50"/>
      <use transform="translate(65.261784 0)scale(0.697382)" xlink:href="#CMR17-51"/>
     </g>
    </g>
    <g id="line2d_41">
     <path d="M 81 106.151535 
L 101 106.151535 
" style="fill:none;stroke:#008000;stroke-linecap:square;stroke-width:1.5;"/>
    </g>
    <g id="line2d_42"/>
    <g id="text_21">
     <!-- $i_{32}$ -->
     <g transform="translate(109 109.651535)scale(0.1 -0.1)">
      <use transform="translate(0 14.943915)scale(0.996264)" xlink:href="#CMMI12-105"/>
      <use transform="translate(33.278602 0)scale(0.697382)" xlink:href="#CMR17-51"/>
      <use transform="translate(65.261784 0)scale(0.697382)" xlink:href="#CMR17-50"/>
     </g>
    </g>
    <g id="line2d_43">
     <path d="M 81 120.088713 
L 101 120.088713 
" style="fill:none;stroke:#0000ff;stroke-linecap:square;stroke-width:1.5;"/>
    </g>
    <g id="line2d_44"/>
    <g id="text_22">
     <!-- $i_{34}$ -->
     <g transform="translate(109 123.588713)scale(0.1 -0.1)">
      <use transform="translate(0 14.943915)scale(0.996264)" xlink:href="#CMMI12-105"/>
      <use transform="translate(33.278602 0)scale(0.697382)" xlink:href="#CMR17-51"/>
      <use transform="translate(65.261784 0)scale(0.697382)" xlink:href="#CMR17-52"/>
     </g>
    </g>
    <g id="line2d_45">
     <path d="M 81 134.025892 
L 101 134.025892 
" style="fill:none;stroke:#000000;stroke-linecap:square;stroke-width:1.5;"/>
    </g>
    <g id="line2d_46"/>
    <g id="text_23">
     <!-- $i_{43}$ -->
     <g transform="translate(109 137.525892)scale(0.1 -0.1)">
      <use transform="translate(0 14.943915)scale(0.996264)" xlink:href="#CMMI12-105"/>
      <use transform="translate(33.278602 0)scale(0.697382)" xlink:href="#CMR17-52"/>
      <use transform="translate(65.261784 0)scale(0.697382)" xlink:href="#CMR17-51"/>
     </g>
    </g>
   </g>
  </g>
 </g>
 <defs>
  <clipPath id="pe04e73bfb0">
   <rect height="332.64" width="446.4" x="72" y="51.84"/>
  </clipPath>
 </defs>
</svg>
