<?xml version="1.0" encoding="utf-8" standalone="no"?>
<!DOCTYPE svg PUBLIC "-//W3C//DTD SVG 1.1//EN"
  "http://www.w3.org/Graphics/SVG/1.1/DTD/svg11.dtd">
<!-- Created with matplotlib (http://matplotlib.org/) -->
<svg height="432pt" version="1.1" viewBox="0 0 576 432" width="576pt" xmlns="http://www.w3.org/2000/svg" xmlns:xlink="http://www.w3.org/1999/xlink">
 <defs>
  <style type="text/css">
*{stroke-linecap:butt;stroke-linejoin:round;}
  </style>
 </defs>
 <g id="figure_1">
  <g id="patch_1">
   <path d="M 0 432 
L 576 432 
L 576 0 
L 0 0 
z
" style="fill:#ffffff;"/>
  </g>
  <g id="axes_1">
   <g id="patch_2">
    <path d="M 72 384.48 
L 518.4 384.48 
L 518.4 51.84 
L 72 51.84 
z
" style="fill:#ffffff;"/>
   </g>
   <g id="matplotlib.axis_1">
    <g id="xtick_1">
     <g id="line2d_1">
      <path clip-path="url(#p79258dedcd)" d="M 92.290909 384.48 
L 92.290909 51.84 
" style="fill:none;stroke:#b0b0b0;stroke-dasharray:5.12,1.28,0.8,1.28;stroke-dashoffset:0;stroke-width:0.8;"/>
     </g>
     <g id="line2d_2">
      <defs>
       <path d="M 0 0 
L 0 3.5 
" id="m6bc56e8e75" style="stroke:#000000;stroke-width:0.8;"/>
      </defs>
      <g>
       <use style="stroke:#000000;stroke-width:0.8;" x="92.290909" xlink:href="#m6bc56e8e75" y="384.48"/>
      </g>
     </g>
     <g id="text_1">
      <!-- $0$ -->
      <defs>
       <path d="M 42 31.640625 
C 42 37.75 41.90625 48.125 37.703125 56.109375 
C 34 63.109375 28.09375 65.59375 22.90625 65.59375 
C 18.09375 65.59375 12 63.40625 8.203125 56.203125 
C 4.203125 48.71875 3.796875 39.4375 3.796875 31.640625 
C 3.796875 25.953125 3.90625 17.28125 7 9.671875 
C 11.296875 -0.609375 19 -2 22.90625 -2 
C 27.5 -2 34.5 -0.109375 38.59375 9.375 
C 41.59375 16.28125 42 24.359375 42 31.640625 
z
M 22.90625 -0.40625 
C 16.5 -0.40625 12.703125 5.078125 11.296875 12.6875 
C 10.203125 18.5625 10.203125 27.15625 10.203125 32.75 
C 10.203125 40.4375 10.203125 46.828125 11.5 52.921875 
C 13.40625 61.390625 19 64 22.90625 64 
C 27 64 32.296875 61.296875 34.203125 53.125 
C 35.5 47.4375 35.59375 40.734375 35.59375 32.75 
C 35.59375 26.25 35.59375 18.265625 34.40625 12.375 
C 32.296875 1.484375 26.40625 -0.40625 22.90625 -0.40625 
z
" id="CMR17-48"/>
      </defs>
      <g transform="translate(89.800241 398.398498)scale(0.1 -0.1)">
       <use transform="scale(0.996264)" xlink:href="#CMR17-48"/>
      </g>
     </g>
    </g>
    <g id="xtick_2">
     <g id="line2d_3">
      <path clip-path="url(#p79258dedcd)" d="M 158.19188 384.48 
L 158.19188 51.84 
" style="fill:none;stroke:#b0b0b0;stroke-dasharray:5.12,1.28,0.8,1.28;stroke-dashoffset:0;stroke-width:0.8;"/>
     </g>
     <g id="line2d_4">
      <g>
       <use style="stroke:#000000;stroke-width:0.8;" x="158.19188" xlink:href="#m6bc56e8e75" y="384.48"/>
      </g>
     </g>
     <g id="text_2">
      <!-- $500$ -->
      <defs>
       <path d="M 11.40625 57.6875 
C 12.40625 57.28125 16.5 56 20.703125 56 
C 30 56 35.09375 61.109375 38 64.0625 
C 38 64.953125 38 65.5 37.40625 65.5 
C 37.296875 65.5 37.09375 65.5 36.296875 65.046875 
C 32.796875 63.40625 28.703125 62.078125 23.703125 62.078125 
C 20.703125 62.078125 16.203125 62.484375 11.296875 64.671875 
C 10.203125 65.171875 10 65.171875 9.90625 65.171875 
C 9.40625 65.171875 9.296875 65.0625 9.296875 63.078125 
L 9.296875 34.421875 
C 9.296875 32.640625 9.296875 32.140625 10.296875 32.140625 
C 10.796875 32.140625 11 32.34375 11.5 33.03125 
C 14.703125 37.515625 19.09375 39.40625 24.09375 39.40625 
C 27.59375 39.40625 35.09375 37.21875 35.09375 20.140625 
C 35.09375 16.953125 35.09375 11.171875 32.09375 6.578125 
C 29.59375 2.484375 25.703125 0.390625 21.40625 0.390625 
C 14.796875 0.390625 8.09375 5 6.296875 12.71875 
C 6.703125 12.609375 7.5 12.421875 7.90625 12.421875 
C 9.203125 12.421875 11.703125 13.125 11.703125 16.21875 
C 11.703125 18.90625 9.796875 20 7.90625 20 
C 5.59375 20 4.09375 18.59375 4.09375 15.796875 
C 4.09375 7.09375 11 -2 21.59375 -2 
C 31.90625 -2 41.703125 6.875 41.703125 19.75 
C 41.703125 31.71875 33.90625 41 24.203125 41 
C 19.09375 41 14.796875 39.109375 11.40625 35.53125 
z
" id="CMR17-53"/>
      </defs>
      <g transform="translate(150.719878 398.398498)scale(0.1 -0.1)">
       <use transform="scale(0.996264)" xlink:href="#CMR17-53"/>
       <use transform="translate(45.690477 0)scale(0.996264)" xlink:href="#CMR17-48"/>
       <use transform="translate(91.380954 0)scale(0.996264)" xlink:href="#CMR17-48"/>
      </g>
     </g>
    </g>
    <g id="xtick_3">
     <g id="line2d_5">
      <path clip-path="url(#p79258dedcd)" d="M 224.092852 384.48 
L 224.092852 51.84 
" style="fill:none;stroke:#b0b0b0;stroke-dasharray:5.12,1.28,0.8,1.28;stroke-dashoffset:0;stroke-width:0.8;"/>
     </g>
     <g id="line2d_6">
      <g>
       <use style="stroke:#000000;stroke-width:0.8;" x="224.092852" xlink:href="#m6bc56e8e75" y="384.48"/>
      </g>
     </g>
     <g id="text_3">
      <!-- $1000$ -->
      <defs>
       <path d="M 26.59375 63.40625 
C 26.59375 65.5 26.5 65.5 25.09375 65.5 
C 21.203125 61.1875 15.296875 59.796875 9.703125 59.796875 
C 9.40625 59.796875 8.90625 59.796875 8.796875 59.5 
C 8.703125 59.296875 8.703125 59.09375 8.703125 57 
C 11.796875 57 17 57.59375 21 59.984375 
L 21 7.203125 
C 21 3.6875 20.796875 2.5 12.203125 2.5 
L 9.203125 2.5 
L 9.203125 0 
C 14 0 19 0 23.796875 0 
C 28.59375 0 33.59375 0 38.40625 0 
L 38.40625 2.5 
L 35.40625 2.5 
C 26.796875 2.5 26.59375 3.59375 26.59375 7.15625 
z
" id="CMR17-49"/>
      </defs>
      <g transform="translate(214.130181 398.398498)scale(0.1 -0.1)">
       <use transform="scale(0.996264)" xlink:href="#CMR17-49"/>
       <use transform="translate(45.690477 0)scale(0.996264)" xlink:href="#CMR17-48"/>
       <use transform="translate(91.380954 0)scale(0.996264)" xlink:href="#CMR17-48"/>
       <use transform="translate(137.071431 0)scale(0.996264)" xlink:href="#CMR17-48"/>
      </g>
     </g>
    </g>
    <g id="xtick_4">
     <g id="line2d_7">
      <path clip-path="url(#p79258dedcd)" d="M 289.993823 384.48 
L 289.993823 51.84 
" style="fill:none;stroke:#b0b0b0;stroke-dasharray:5.12,1.28,0.8,1.28;stroke-dashoffset:0;stroke-width:0.8;"/>
     </g>
     <g id="line2d_8">
      <g>
       <use style="stroke:#000000;stroke-width:0.8;" x="289.993823" xlink:href="#m6bc56e8e75" y="384.48"/>
      </g>
     </g>
     <g id="text_4">
      <!-- $1500$ -->
      <g transform="translate(280.031153 398.398498)scale(0.1 -0.1)">
       <use transform="scale(0.996264)" xlink:href="#CMR17-49"/>
       <use transform="translate(45.690477 0)scale(0.996264)" xlink:href="#CMR17-53"/>
       <use transform="translate(91.380954 0)scale(0.996264)" xlink:href="#CMR17-48"/>
       <use transform="translate(137.071431 0)scale(0.996264)" xlink:href="#CMR17-48"/>
      </g>
     </g>
    </g>
    <g id="xtick_5">
     <g id="line2d_9">
      <path clip-path="url(#p79258dedcd)" d="M 355.894795 384.48 
L 355.894795 51.84 
" style="fill:none;stroke:#b0b0b0;stroke-dasharray:5.12,1.28,0.8,1.28;stroke-dashoffset:0;stroke-width:0.8;"/>
     </g>
     <g id="line2d_10">
      <g>
       <use style="stroke:#000000;stroke-width:0.8;" x="355.894795" xlink:href="#m6bc56e8e75" y="384.48"/>
      </g>
     </g>
     <g id="text_5">
      <!-- $2000$ -->
      <defs>
       <path d="M 41.703125 15.453125 
L 39.90625 15.453125 
C 38.90625 8.375 38.09375 7.171875 37.703125 6.5625 
C 37.203125 5.765625 30 5.765625 28.59375 5.765625 
L 9.40625 5.765625 
C 13 9.671875 20 16.75 28.5 24.953125 
C 34.59375 30.734375 41.703125 37.53125 41.703125 47.421875 
C 41.703125 59.21875 32.296875 66 21.796875 66 
C 10.796875 66 4.09375 56.3125 4.09375 47.34375 
C 4.09375 43.4375 7 42.9375 8.203125 42.9375 
C 9.203125 42.9375 12.203125 43.546875 12.203125 47.03125 
C 12.203125 50.109375 9.59375 51 8.203125 51 
C 7.59375 51 7 50.90625 6.59375 50.703125 
C 8.5 59.21875 14.296875 63.40625 20.40625 63.40625 
C 29.09375 63.40625 34.796875 56.515625 34.796875 47.421875 
C 34.796875 38.734375 29.703125 31.25 24 24.75 
L 4.09375 2.28125 
L 4.09375 0 
L 39.296875 0 
z
" id="CMR17-50"/>
      </defs>
      <g transform="translate(345.932124 398.398498)scale(0.1 -0.1)">
       <use transform="scale(0.996264)" xlink:href="#CMR17-50"/>
       <use transform="translate(45.690477 0)scale(0.996264)" xlink:href="#CMR17-48"/>
       <use transform="translate(91.380954 0)scale(0.996264)" xlink:href="#CMR17-48"/>
       <use transform="translate(137.071431 0)scale(0.996264)" xlink:href="#CMR17-48"/>
      </g>
     </g>
    </g>
    <g id="xtick_6">
     <g id="line2d_11">
      <path clip-path="url(#p79258dedcd)" d="M 421.795766 384.48 
L 421.795766 51.84 
" style="fill:none;stroke:#b0b0b0;stroke-dasharray:5.12,1.28,0.8,1.28;stroke-dashoffset:0;stroke-width:0.8;"/>
     </g>
     <g id="line2d_12">
      <g>
       <use style="stroke:#000000;stroke-width:0.8;" x="421.795766" xlink:href="#m6bc56e8e75" y="384.48"/>
      </g>
     </g>
     <g id="text_6">
      <!-- $2500$ -->
      <g transform="translate(411.833096 398.398498)scale(0.1 -0.1)">
       <use transform="scale(0.996264)" xlink:href="#CMR17-50"/>
       <use transform="translate(45.690477 0)scale(0.996264)" xlink:href="#CMR17-53"/>
       <use transform="translate(91.380954 0)scale(0.996264)" xlink:href="#CMR17-48"/>
       <use transform="translate(137.071431 0)scale(0.996264)" xlink:href="#CMR17-48"/>
      </g>
     </g>
    </g>
    <g id="xtick_7">
     <g id="line2d_13">
      <path clip-path="url(#p79258dedcd)" d="M 487.696737 384.48 
L 487.696737 51.84 
" style="fill:none;stroke:#b0b0b0;stroke-dasharray:5.12,1.28,0.8,1.28;stroke-dashoffset:0;stroke-width:0.8;"/>
     </g>
     <g id="line2d_14">
      <g>
       <use style="stroke:#000000;stroke-width:0.8;" x="487.696737" xlink:href="#m6bc56e8e75" y="384.48"/>
      </g>
     </g>
     <g id="text_7">
      <!-- $3000$ -->
      <defs>
       <path d="M 22.09375 33.703125 
C 31 33.703125 34.90625 25.96875 34.90625 17.03125 
C 34.90625 5 28.5 0.390625 22.703125 0.390625 
C 17.40625 0.390625 8.796875 3.03125 6.09375 10.828125 
C 6.59375 10.625 7.09375 10.625 7.59375 10.625 
C 10 10.625 11.796875 12.21875 11.796875 14.8125 
C 11.796875 17.703125 9.59375 19 7.59375 19 
C 5.90625 19 3.296875 18.203125 3.296875 14.46875 
C 3.296875 5.234375 12.296875 -2 22.90625 -2 
C 34 -2 42.5 6.71875 42.5 16.953125 
C 42.5 26.671875 34.5 33.703125 25 34.796875 
C 32.59375 36.375 39.90625 43.0625 39.90625 52.015625 
C 39.90625 59.6875 32 65.296875 23 65.296875 
C 13.90625 65.296875 5.90625 59.828125 5.90625 52.015625 
C 5.90625 48.59375 8.5 48 9.796875 48 
C 11.90625 48 13.703125 49.296875 13.703125 51.890625 
C 13.703125 54.46875 11.90625 55.765625 9.796875 55.765625 
C 9.40625 55.765625 8.90625 55.765625 8.5 55.578125 
C 11.40625 61.859375 19.296875 63 22.796875 63 
C 26.296875 63 32.90625 61.328125 32.90625 51.875 
C 32.90625 49.109375 32.5 44.1875 29.09375 39.84375 
C 26.09375 36 22.703125 36 19.40625 35.6875 
C 18.90625 35.6875 16.59375 35.453125 16.203125 35.453125 
C 15.5 35.359375 15.09375 35.265625 15.09375 34.5 
C 15.09375 33.796875 15.203125 33.703125 17.203125 33.703125 
z
" id="CMR17-51"/>
      </defs>
      <g transform="translate(477.734067 398.398498)scale(0.1 -0.1)">
       <use transform="scale(0.996264)" xlink:href="#CMR17-51"/>
       <use transform="translate(45.690477 0)scale(0.996264)" xlink:href="#CMR17-48"/>
       <use transform="translate(91.380954 0)scale(0.996264)" xlink:href="#CMR17-48"/>
       <use transform="translate(137.071431 0)scale(0.996264)" xlink:href="#CMR17-48"/>
      </g>
     </g>
    </g>
    <g id="text_8">
     <!-- Iteration -->
     <defs>
      <path d="M 17.09375 69 
L 8.703125 69 
L 8.703125 0 
L 17.09375 0 
z
" id="CMSS17-73"/>
      <path d="M 16.703125 37 
L 29.703125 37 
L 29.703125 42.765625 
L 16.703125 42.765625 
L 16.703125 55 
L 9.59375 55 
L 9.59375 42.765625 
L 1.703125 42.765625 
L 1.703125 37 
L 9.40625 37 
L 9.40625 11.703125 
C 9.40625 6 10.703125 -1 17.296875 -1 
C 22.296875 -1 26.90625 0.390625 31.296875 2.6875 
L 29.703125 8.5625 
C 27.296875 6.46875 24.40625 5.265625 21.296875 5.265625 
C 16.90625 5.265625 16.703125 10.875 16.703125 13.375 
z
" id="CMSS17-116"/>
      <path d="M 39.09375 21.515625 
C 39.09375 24.84375 38.90625 31.296875 35.703125 36.640625 
C 32.203125 42.390625 26.5 44 22.203125 44 
C 11.796875 44 3 34.1875 3 21.484375 
C 3 9.09375 12.09375 -1 23.59375 -1 
C 28.09375 -1 33.59375 0.296875 38.59375 3.875 
C 38.59375 4.28125 38.40625 6.46875 38.296875 6.5625 
C 38.296875 6.765625 38 9.84375 38 10.25 
C 33.203125 6.359375 27.703125 5.078125 23.703125 5.078125 
C 17.296875 5.078125 10.40625 10.421875 10.09375 21.515625 
z
M 10.90625 27 
C 12.203125 32.5625 16.59375 37.828125 22.203125 37.828125 
C 23.703125 37.828125 30.703125 37.828125 32.5 27 
z
" id="CMSS17-101"/>
      <path d="M 14.90625 21.296875 
C 14.90625 30.703125 21.796875 37 30.59375 37 
L 30.59375 43.578125 
C 24.203125 43.578125 18.203125 40.390625 14.59375 35.203125 
L 14.59375 43.09375 
L 7.5 43.09375 
L 7.5 0 
L 14.90625 0 
z
" id="CMSS17-114"/>
      <path d="M 37.59375 27.984375 
C 37.59375 37.375 30.90625 43.875 21.90625 43.875 
C 17.5 43.875 12.703125 43.078125 7.203125 39.890625 
L 7.796875 33.359375 
C 10.296875 35.125 14.59375 38 21.796875 38 
C 26.90625 38 30 34.0625 30 27.84375 
L 30 24 
C 14 24 4 19.34375 4 11.34375 
C 4 7.203125 6.5 -1 14.796875 -1 
C 16.296875 -1 24.40625 -1 30.203125 3.390625 
L 30.203125 -0.296875 
L 37.59375 -0.296875 
z
M 30 12.75 
C 30 10.953125 30 8.5625 27 6.78125 
C 24.40625 5.078125 21.09375 5.078125 19.703125 5.078125 
C 14.703125 5.078125 11.296875 7.984375 11.296875 11.625 
C 11.296875 18.921875 26.90625 18.921875 30 18.921875 
z
" id="CMSS17-97"/>
      <path d="M 15.296875 65.359375 
L 6.90625 65.359375 
L 6.90625 57 
L 15.296875 57 
z
M 14.796875 42.796875 
L 7.40625 42.796875 
L 7.40625 0 
L 14.796875 0 
z
" id="CMSS17-105"/>
      <path d="M 44.203125 21.1875 
C 44.203125 34 34.703125 44 23.5 44 
C 12 44 2.703125 33.703125 2.703125 21.1875 
C 2.703125 8.5 12.296875 -1 23.40625 -1 
C 34.796875 -1 44.203125 8.796875 44.203125 21.1875 
z
M 23.5 5.265625 
C 16.40625 5.265625 10.296875 11.078125 10.296875 22 
C 10.296875 33.609375 17.40625 37.921875 23.40625 37.921875 
C 29.90625 37.921875 36.59375 33.21875 36.59375 22 
C 36.59375 10.671875 30.09375 5.265625 23.5 5.265625 
z
" id="CMSS17-111"/>
      <path d="M 40.90625 29.328125 
C 40.90625 35.671875 39.40625 44 28.09375 44 
C 21.703125 44 17.5 40.71875 14.703125 37.328125 
L 14.703125 43.09375 
L 7.40625 43.09375 
L 7.40625 0 
L 15 0 
L 15 24.359375 
C 15 30.6875 17.40625 37.9375 24.203125 37.9375 
C 33 37.9375 33.296875 32 33.296875 28.578125 
L 33.296875 0 
L 40.90625 0 
z
" id="CMSS17-110"/>
     </defs>
     <g transform="translate(271.264003 414.021553)scale(0.14 -0.14)">
      <use transform="scale(0.996264)" xlink:href="#CMSS17-73"/>
      <use transform="translate(25.783926 0)scale(0.996264)" xlink:href="#CMSS17-116"/>
      <use transform="translate(59.615492 0)scale(0.996264)" xlink:href="#CMSS17-101"/>
      <use transform="translate(101.254314 0)scale(0.996264)" xlink:href="#CMSS17-114"/>
      <use transform="translate(133.164087 0)scale(0.996264)" xlink:href="#CMSS17-97"/>
      <use transform="translate(178.086007 0)scale(0.996264)" xlink:href="#CMSS17-116"/>
      <use transform="translate(211.917574 0)scale(0.996264)" xlink:href="#CMSS17-105"/>
      <use transform="translate(234.098297 0)scale(0.996264)" xlink:href="#CMSS17-111"/>
      <use transform="translate(280.941921 0)scale(0.996264)" xlink:href="#CMSS17-110"/>
     </g>
    </g>
   </g>
   <g id="matplotlib.axis_2">
    <g id="ytick_1">
     <g id="line2d_15">
      <path clip-path="url(#p79258dedcd)" d="M 72 369.36 
L 518.4 369.36 
" style="fill:none;stroke:#b0b0b0;stroke-dasharray:5.12,1.28,0.8,1.28;stroke-dashoffset:0;stroke-width:0.8;"/>
     </g>
     <g id="line2d_16">
      <defs>
       <path d="M 0 0 
L -3.5 0 
" id="mbee2c212d3" style="stroke:#000000;stroke-width:0.8;"/>
      </defs>
      <g>
       <use style="stroke:#000000;stroke-width:0.8;" x="72" xlink:href="#mbee2c212d3" y="369.36"/>
      </g>
     </g>
     <g id="text_9">
      <!-- $-100$ -->
      <defs>
       <path d="M 65.90625 23 
C 67.59375 23 69.40625 23 69.40625 25 
C 69.40625 27 67.59375 27 65.90625 27 
L 11.796875 27 
C 10.09375 27 8.296875 27 8.296875 25 
C 8.296875 23 10.09375 23 11.796875 23 
z
" id="CMSY10-0"/>
      </defs>
      <g transform="translate(42.307251 372.819249)scale(0.1 -0.1)">
       <use transform="scale(0.996264)" xlink:href="#CMSY10-0"/>
       <use transform="translate(77.487468 0)scale(0.996264)" xlink:href="#CMR17-49"/>
       <use transform="translate(123.177945 0)scale(0.996264)" xlink:href="#CMR17-48"/>
       <use transform="translate(168.868422 0)scale(0.996264)" xlink:href="#CMR17-48"/>
      </g>
     </g>
    </g>
    <g id="ytick_2">
     <g id="line2d_17">
      <path clip-path="url(#p79258dedcd)" d="M 72 311.421362 
L 518.4 311.421362 
" style="fill:none;stroke:#b0b0b0;stroke-dasharray:5.12,1.28,0.8,1.28;stroke-dashoffset:0;stroke-width:0.8;"/>
     </g>
     <g id="line2d_18">
      <g>
       <use style="stroke:#000000;stroke-width:0.8;" x="72" xlink:href="#mbee2c212d3" y="311.421362"/>
      </g>
     </g>
     <g id="text_10">
      <!-- $-80$ -->
      <defs>
       <path d="M 27.203125 35.375 
C 33.5 38.546875 39.90625 43.328125 39.90625 50.984375 
C 39.90625 60.015625 31.09375 65.296875 23 65.296875 
C 13.90625 65.296875 5.90625 58.734375 5.90625 49.6875 
C 5.90625 47.203125 6.5 42.921875 10.40625 39.140625 
C 11.40625 38.15625 15.59375 35.171875 18.296875 33.28125 
C 13.796875 30.984375 3.296875 25.53125 3.296875 14.59375 
C 3.296875 4.359375 13.09375 -2 22.796875 -2 
C 33.5 -2 42.5 5.65625 42.5 15.78125 
C 42.5 24.84375 36.40625 29.015625 32.40625 31.703125 
z
M 14.09375 44.09375 
C 13.296875 44.59375 9.296875 47.671875 9.296875 52.359375 
C 9.296875 58.421875 15.59375 63 22.796875 63 
C 30.703125 63 36.5 57.4375 36.5 50.96875 
C 36.5 41.703125 26.09375 36.421875 25.59375 36.421875 
C 25.5 36.421875 25.40625 36.421875 24.59375 37.03125 
z
M 32.5 23.734375 
C 34 22.640625 38.796875 19.375 38.796875 13.296875 
C 38.796875 5.953125 31.40625 0.390625 23 0.390625 
C 13.90625 0.390625 7 6.84375 7 14.6875 
C 7 22.546875 13.09375 29.09375 20 32.1875 
z
" id="CMR17-56"/>
      </defs>
      <g transform="translate(47.288586 314.880612)scale(0.1 -0.1)">
       <use transform="scale(0.996264)" xlink:href="#CMSY10-0"/>
       <use transform="translate(77.487468 0)scale(0.996264)" xlink:href="#CMR17-56"/>
       <use transform="translate(123.177945 0)scale(0.996264)" xlink:href="#CMR17-48"/>
      </g>
     </g>
    </g>
    <g id="ytick_3">
     <g id="line2d_19">
      <path clip-path="url(#p79258dedcd)" d="M 72 253.482725 
L 518.4 253.482725 
" style="fill:none;stroke:#b0b0b0;stroke-dasharray:5.12,1.28,0.8,1.28;stroke-dashoffset:0;stroke-width:0.8;"/>
     </g>
     <g id="line2d_20">
      <g>
       <use style="stroke:#000000;stroke-width:0.8;" x="72" xlink:href="#mbee2c212d3" y="253.482725"/>
      </g>
     </g>
     <g id="text_11">
      <!-- $-60$ -->
      <defs>
       <path d="M 10.59375 34 
C 10.59375 57.65625 21.796875 63 28.296875 63 
C 30.40625 63 35.5 62.640625 37.5 59 
C 35.90625 59 32.90625 59 32.90625 55.515625 
C 32.90625 52.828125 35.09375 51.921875 36.5 51.921875 
C 37.40625 51.921875 40.09375 52.3125 40.09375 55.625 
C 40.09375 61.78125 35.09375 65.296875 28.203125 65.296875 
C 16.296875 65.296875 3.796875 52.96875 3.796875 31 
C 3.796875 3.953125 15.09375 -2 23.09375 -2 
C 32.796875 -2 42 6.671875 42 20.046875 
C 42 32.515625 33.90625 41.59375 23.703125 41.59375 
C 17.59375 41.59375 13.09375 37.609375 10.59375 30.625 
z
M 23.09375 0.390625 
C 10.796875 0.390625 10.796875 18.75 10.796875 22.4375 
C 10.796875 29.625 14.203125 40 23.5 40 
C 25.203125 40 30.09375 40 33.40625 33.125 
C 35.203125 29.21875 35.203125 25.140625 35.203125 20.140625 
C 35.203125 14.75 35.203125 10.78125 33.09375 6.78125 
C 30.90625 2.671875 27.703125 0.390625 23.09375 0.390625 
z
" id="CMR17-54"/>
      </defs>
      <g transform="translate(47.288586 256.941974)scale(0.1 -0.1)">
       <use transform="scale(0.996264)" xlink:href="#CMSY10-0"/>
       <use transform="translate(77.487468 0)scale(0.996264)" xlink:href="#CMR17-54"/>
       <use transform="translate(123.177945 0)scale(0.996264)" xlink:href="#CMR17-48"/>
      </g>
     </g>
    </g>
    <g id="ytick_4">
     <g id="line2d_21">
      <path clip-path="url(#p79258dedcd)" d="M 72 195.544087 
L 518.4 195.544087 
" style="fill:none;stroke:#b0b0b0;stroke-dasharray:5.12,1.28,0.8,1.28;stroke-dashoffset:0;stroke-width:0.8;"/>
     </g>
     <g id="line2d_22">
      <g>
       <use style="stroke:#000000;stroke-width:0.8;" x="72" xlink:href="#mbee2c212d3" y="195.544087"/>
      </g>
     </g>
     <g id="text_12">
      <!-- $-40$ -->
      <defs>
       <path d="M 33.59375 64.40625 
C 33.59375 66.5 33.5 66.5 31.703125 66.5 
L 2 19.59375 
L 2 17 
L 27.796875 17 
L 27.796875 7.140625 
C 27.796875 3.5 27.59375 2.5 20.59375 2.5 
L 18.703125 2.5 
L 18.703125 0 
C 21.90625 0 27.296875 0 30.703125 0 
C 34.09375 0 39.5 0 42.703125 0 
L 42.703125 2.5 
L 40.796875 2.5 
C 33.796875 2.5 33.59375 3.5 33.59375 7.140625 
L 33.59375 17 
L 43.796875 17 
L 43.796875 19.59375 
L 33.59375 19.59375 
z
M 28.09375 57.859375 
L 28.09375 19.59375 
L 4 19.59375 
z
" id="CMR17-52"/>
      </defs>
      <g transform="translate(47.288586 199.003337)scale(0.1 -0.1)">
       <use transform="scale(0.996264)" xlink:href="#CMSY10-0"/>
       <use transform="translate(77.487468 0)scale(0.996264)" xlink:href="#CMR17-52"/>
       <use transform="translate(123.177945 0)scale(0.996264)" xlink:href="#CMR17-48"/>
      </g>
     </g>
    </g>
    <g id="ytick_5">
     <g id="line2d_23">
      <path clip-path="url(#p79258dedcd)" d="M 72 137.60545 
L 518.4 137.60545 
" style="fill:none;stroke:#b0b0b0;stroke-dasharray:5.12,1.28,0.8,1.28;stroke-dashoffset:0;stroke-width:0.8;"/>
     </g>
     <g id="line2d_24">
      <g>
       <use style="stroke:#000000;stroke-width:0.8;" x="72" xlink:href="#mbee2c212d3" y="137.60545"/>
      </g>
     </g>
     <g id="text_13">
      <!-- $-20$ -->
      <g transform="translate(47.288586 141.064699)scale(0.1 -0.1)">
       <use transform="scale(0.996264)" xlink:href="#CMSY10-0"/>
       <use transform="translate(77.487468 0)scale(0.996264)" xlink:href="#CMR17-50"/>
       <use transform="translate(123.177945 0)scale(0.996264)" xlink:href="#CMR17-48"/>
      </g>
     </g>
    </g>
    <g id="ytick_6">
     <g id="line2d_25">
      <path clip-path="url(#p79258dedcd)" d="M 72 79.666812 
L 518.4 79.666812 
" style="fill:none;stroke:#b0b0b0;stroke-dasharray:5.12,1.28,0.8,1.28;stroke-dashoffset:0;stroke-width:0.8;"/>
     </g>
     <g id="line2d_26">
      <g>
       <use style="stroke:#000000;stroke-width:0.8;" x="72" xlink:href="#mbee2c212d3" y="79.666812"/>
      </g>
     </g>
     <g id="text_14">
      <!-- $0$ -->
      <g transform="translate(60.018665 83.126061)scale(0.1 -0.1)">
       <use transform="scale(0.996264)" xlink:href="#CMR17-48"/>
      </g>
     </g>
    </g>
    <g id="text_15">
     <!-- $\partial \mathcal{L}/ \partial \mu_{mn}[A]$ -->
     <defs>
      <path d="M 45.40625 33.515625 
C 44.796875 39.125 41.296875 45.859375 32.296875 45.859375 
C 18.203125 45.859375 3.796875 31.515625 3.796875 15.5625 
C 3.796875 9.4375 8 -2.09375 21.59375 -2.09375 
C 45.203125 -2.09375 55.296875 32.296875 55.296875 46 
C 55.296875 60.40625 47.203125 71.5 34.40625 71.5 
C 19.90625 71.5 15.59375 58.796875 15.59375 56.09375 
C 15.59375 55.203125 16.203125 53 19 53 
C 22.5 53 24 56.203125 24 57.90625 
C 24 61 20.90625 61 19.59375 61 
C 23.703125 68.40625 31.296875 69.09375 34 69.09375 
C 42.796875 69.09375 48.40625 62.109375 48.40625 50.96875 
C 48.40625 44.578125 46.5 37.1875 45.5 33.515625 
z
M 21.90625 0.59375 
C 12.5 0.59375 10.90625 8.03125 10.90625 12.25 
C 10.90625 16.65625 13.703125 27 15.203125 30.703125 
C 16.5 33.71875 22.203125 43.859375 32.59375 43.859375 
C 41.703125 43.859375 43.796875 35.921875 43.796875 30.515625 
C 43.796875 23.078125 37.296875 0.59375 21.90625 0.59375 
z
" id="CMMI12-64"/>
      <path d="M 18 9.53125 
C 23.40625 17.984375 25.09375 24.40625 26.40625 29.734375 
C 29.90625 43.59375 33.703125 55.65625 39.90625 62.578125 
C 41.09375 63.90625 41.90625 64.796875 45.09375 64.796875 
C 52 64.796875 52.203125 57.875 52.203125 56.453125 
C 52.203125 54.65625 51.703125 53.234375 51.703125 52.734375 
C 51.703125 52.03125 52.296875 52.03125 52.40625 52.03125 
C 54 52.03125 56.703125 53.140625 59.203125 54.953125 
C 61 56.359375 61.90625 57.359375 61.90625 61.46875 
C 61.90625 66.890625 59.09375 71 53.5 71 
C 50.296875 71 41.5 70.203125 31.703125 60.25 
C 23.703125 52.015625 19 33.9375 17.09375 26.40625 
C 15.296875 19.5 14.5 16.375 11.5 10.34375 
C 10.796875 9.15625 8.203125 4.734375 6.796875 3.421875 
C 4.09375 0.921875 3.09375 -0.890625 3.09375 -1.390625 
C 3.09375 -1.59375 3.296875 -2 4 -2 
C 4.40625 -2 6.5 -1.59375 9.09375 0.078125 
C 10.796875 1.0625 11 1.25 13.296875 3.609375 
C 18.296875 3.609375 21.796875 2.703125 28.09375 0.90625 
C 33.203125 -0.5 38.296875 -2 43.40625 -2 
C 51.5 -2 59.703125 4.125 62.90625 8.53125 
C 64.90625 11.234375 65.5 13.75 65.5 14.046875 
C 65.5 14.75 64.90625 14.75 64.796875 14.75 
C 63.203125 14.75 60.796875 13.65625 59.09375 12.4375 
C 56.40625 10.734375 56.203125 10.140625 55.59375 8.421875 
C 55.09375 6.8125 54.5 6.015625 54.09375 5.40625 
C 53.296875 4.203125 53.203125 4.203125 51.703125 4.203125 
C 46.90625 4.203125 41.90625 5.71875 35.296875 7.515625 
C 32.5 8.3125 27 9.9375 22 9.9375 
C 20.703125 9.9375 19.296875 9.828125 18 9.53125 
z
" id="CMSY10-76"/>
      <path d="M 42.90625 71.28125 
C 42.90625 71.390625 43.5 72.90625 43.5 73.09375 
C 43.5 74.296875 42.5 75 41.703125 75 
C 41.203125 75 40.296875 75 39.5 72.796875 
L 6 -21.296875 
C 6 -21.40625 5.40625 -22.890625 5.40625 -23.09375 
C 5.40625 -24.296875 6.40625 -25 7.203125 -25 
C 7.796875 -25 8.703125 -24.890625 9.40625 -22.796875 
z
" id="CMMI12-61"/>
      <path d="M 14.40625 2.1875 
C 16.90625 -0.09375 20.59375 -1 24 -1 
C 30.40625 -1 34.796875 3.25 37.09375 6.328125 
C 38.09375 1.078125 42.296875 -1 45.796875 -1 
C 48.796875 -1 51.203125 0.78125 53 4.328125 
C 54.59375 7.703125 56 13.734375 56 14.109375 
C 56 14.609375 55.59375 15 55 15 
C 54.09375 15 54 14.5 53.59375 13.03125 
C 52.09375 7.203125 50.203125 1 46.09375 1 
C 43.203125 1 43 3.578125 43 5.59375 
C 43 7.875 43.90625 11.484375 44.59375 14.46875 
L 47.40625 25.234375 
C 47.796875 27.140625 48.90625 31.609375 49.40625 33.421875 
C 50 35.8125 51.09375 40.109375 51.09375 40.5 
C 51.09375 42 49.90625 43 48.40625 43 
C 47.5 43 45.40625 42.59375 44.59375 39.609375 
L 37.59375 11.875 
C 37.09375 9.875 37.09375 9.671875 35.796875 8.078125 
C 34.59375 6.390625 30.703125 1 24.40625 1 
C 18.796875 1 17 5.09375 17 9.765625 
C 17 12.671875 17.90625 16.15625 18.296875 17.859375 
L 22.796875 35.828125 
C 23.296875 37.71875 24.09375 40.90625 24.09375 41.515625 
C 24.09375 43.109375 22.796875 44 21.5 44 
C 20.59375 44 18.40625 43.703125 17.59375 40.5 
L 3.09375 -17.296875 
C 3 -17.796875 2.796875 -18.390625 2.796875 -19 
C 2.796875 -20.5 4 -21.5 5.5 -21.5 
C 8.40625 -21.5 9 -19.1875 9.703125 -16.40625 
z
" id="CMMI12-22"/>
      <path d="M 20.59375 29.234375 
C 20.796875 29.84375 23.296875 34.828125 27 38.015625 
C 29.59375 40.40625 33 42.015625 36.90625 42.015625 
C 40.90625 42.015625 42.296875 39.015625 42.296875 35.03125 
C 42.296875 34.421875 42.296875 32.4375 41.09375 27.734375 
L 38.59375 17.46875 
C 37.796875 14.46875 35.90625 7.078125 35.703125 5.984375 
C 35.296875 4.484375 34.703125 1.890625 34.703125 1.5 
C 34.703125 0.09375 35.796875 -1 37.296875 -1 
C 40.296875 -1 40.796875 1.296875 41.703125 4.890625 
L 47.703125 28.734375 
C 47.90625 29.53125 53.09375 42.015625 64.09375 42.015625 
C 68.09375 42.015625 69.5 39.015625 69.5 35.03125 
C 69.5 29.4375 65.59375 18.5625 63.40625 12.578125 
C 62.5 10.171875 62 8.875 62 7.078125 
C 62 2.59375 65.09375 -1 69.90625 -1 
C 79.203125 -1 82.703125 13.671875 82.703125 14.265625 
C 82.703125 14.765625 82.296875 15.171875 81.703125 15.171875 
C 80.796875 15.171875 80.703125 14.875 80.203125 13.171875 
C 77.90625 5.1875 74.203125 1 70.203125 1 
C 69.203125 1 67.59375 1 67.59375 4.203125 
C 67.59375 6.8125 68.796875 10 69.203125 11.09375 
C 71 15.90625 75.5 27.703125 75.5 33.515625 
C 75.5 39.5 72 44 64.40625 44 
C 57.703125 44 52.296875 40.21875 48.296875 34.328125 
C 48 39.71875 44.703125 44 37.203125 44 
C 28.296875 44 23.59375 37.734375 21.796875 35.234375 
C 21.5 40.90625 17.40625 44 13 44 
C 10.09375 44 7.796875 42.609375 5.90625 38.8125 
C 4.09375 35.21875 2.703125 29.140625 2.703125 28.734375 
C 2.703125 28.34375 3.09375 27.84375 3.796875 27.84375 
C 4.59375 27.84375 4.703125 27.9375 5.296875 30.234375 
C 6.796875 36.125 8.703125 42.015625 12.703125 42.015625 
C 15 42.015625 15.796875 40.40625 15.796875 37.421875 
C 15.796875 35.21875 14.796875 31.328125 14.09375 28.234375 
L 11.296875 17.46875 
C 10.90625 15.5625 9.796875 11.078125 9.296875 9.28125 
C 8.59375 6.6875 7.5 2 7.5 1.5 
C 7.5 0.09375 8.59375 -1 10.09375 -1 
C 11.296875 -1 12.703125 -0.40625 13.5 1.09375 
C 13.703125 1.59375 14.59375 5.09375 15.09375 7.078125 
L 17.296875 16.0625 
z
" id="CMMI12-109"/>
      <path d="M 20.59375 29.234375 
C 20.796875 29.84375 23.296875 34.828125 27 38.015625 
C 29.59375 40.40625 33 42.015625 36.90625 42.015625 
C 40.90625 42.015625 42.296875 39.015625 42.296875 35.03125 
C 42.296875 29.34375 38.203125 17.96875 36.203125 12.578125 
C 35.296875 10.171875 34.796875 8.875 34.796875 7.078125 
C 34.796875 2.59375 37.90625 -1 42.703125 -1 
C 52 -1 55.5 13.671875 55.5 14.265625 
C 55.5 14.765625 55.09375 15.171875 54.5 15.171875 
C 53.59375 15.171875 53.5 14.875 53 13.171875 
C 50.703125 4.984375 46.90625 1 43 1 
C 42 1 40.40625 1 40.40625 4.203125 
C 40.40625 6.703125 41.5 9.703125 42.09375 11.09375 
C 44.09375 16.609375 48.296875 27.8125 48.296875 33.515625 
C 48.296875 39.5 44.796875 44 37.203125 44 
C 28.296875 44 23.59375 37.734375 21.796875 35.234375 
C 21.5 40.90625 17.40625 44 13 44 
C 9.796875 44 7.59375 42.109375 5.90625 38.71875 
C 4.09375 35.125 2.703125 29.140625 2.703125 28.734375 
C 2.703125 28.34375 3.09375 27.84375 3.796875 27.84375 
C 4.59375 27.84375 4.703125 27.9375 5.296875 30.234375 
C 6.90625 36.328125 8.703125 42.015625 12.703125 42.015625 
C 15 42.015625 15.796875 40.40625 15.796875 37.421875 
C 15.796875 35.21875 14.796875 31.328125 14.09375 28.234375 
L 11.296875 17.46875 
C 10.90625 15.5625 9.796875 11.078125 9.296875 9.28125 
C 8.59375 6.6875 7.5 2 7.5 1.5 
C 7.5 0.09375 8.59375 -1 10.09375 -1 
C 11.296875 -1 12.703125 -0.40625 13.5 1.09375 
C 13.703125 1.59375 14.59375 5.09375 15.09375 7.078125 
L 17.296875 16.0625 
z
" id="CMMI12-110"/>
      <path d="M 23.5 -25 
L 23.5 -21.515625 
L 14.09375 -21.515625 
L 14.09375 71 
L 23.5 71 
L 23.5 74.484375 
L 10.59375 74.484375 
L 10.59375 -25 
z
" id="CMR17-91"/>
      <path d="M 17 10.796875 
C 13.5 4.90625 10.09375 2.90625 5.296875 2.90625 
C 4.203125 2.8125 3.40625 2.8125 3.40625 0.90625 
C 3.40625 0.375 3.90625 0 4.59375 0 
C 6.40625 0 10.90625 0 12.703125 0 
C 15.59375 0 18.796875 0 21.59375 0 
C 22.203125 0 23.40625 0 23.40625 1.90625 
C 23.40625 2.8125 22.59375 2.90625 22 2.90625 
C 19.703125 2.90625 17.796875 3.6875 17.796875 6.0625 
C 17.796875 7.4375 18.40625 8.53125 19.703125 10.703125 
L 27.296875 23.109375 
L 52.796875 23.109375 
C 52.90625 22.234375 52.90625 21.453125 53 20.5625 
C 53.296875 18 54.5 7.734375 54.5 5.875 
C 54.5 2.90625 49.40625 2.90625 47.796875 2.90625 
C 46.703125 2.90625 45.59375 2.90625 45.59375 1.09375 
C 45.59375 0 46.5 0 47.09375 0 
C 48.796875 0 50.796875 0 52.5 0 
L 58.203125 0 
C 64.296875 0 68.703125 0 68.796875 0 
C 69.5 0 70.59375 0 70.59375 1.90625 
C 70.59375 2.90625 69.703125 2.90625 68.203125 2.90625 
C 62.703125 2.90625 62.59375 3.8125 62.296875 6.78125 
L 56.203125 68.8125 
C 56 70.796875 55.59375 71 54.5 71 
C 53.5 71 52.90625 70.796875 52 69.296875 
z
M 29 26 
L 49.09375 59.671875 
L 52.5 26 
z
" id="CMMI12-65"/>
      <path d="M 14.296875 74.484375 
L 1.40625 74.484375 
L 1.40625 71 
L 10.796875 71 
L 10.796875 -21.515625 
L 1.40625 -21.515625 
L 1.40625 -25 
L 14.296875 -25 
z
" id="CMR17-93"/>
     </defs>
     <g transform="translate(35.595222 255.069228)rotate(-90)scale(0.14 -0.14)">
      <use transform="translate(0 14.943915)scale(0.996264)" xlink:href="#CMMI12-64"/>
      <use transform="translate(56.915564 14.943915)scale(0.996264)" xlink:href="#CMSY10-76"/>
      <use transform="translate(125.630372 14.943915)scale(0.996264)" xlink:href="#CMMI12-61"/>
      <use transform="translate(174.405291 14.943915)scale(0.996264)" xlink:href="#CMMI12-64"/>
      <use transform="translate(231.320856 14.943915)scale(0.996264)" xlink:href="#CMMI12-22"/>
      <use transform="translate(290.012277 0)scale(0.697382)" xlink:href="#CMMI12-109"/>
      <use transform="translate(349.741068 0)scale(0.697382)" xlink:href="#CMMI12-110"/>
      <use transform="translate(391.000043 14.943915)scale(0.996264)" xlink:href="#CMR17-91"/>
      <use transform="translate(415.871102 14.943915)scale(0.996264)" xlink:href="#CMMI12-65"/>
      <use transform="translate(488.998987 14.943915)scale(0.996264)" xlink:href="#CMR17-93"/>
     </g>
    </g>
   </g>
   <g id="line2d_27">
    <path clip-path="url(#p79258dedcd)" d="M 92.290909 79.666812 
L 92.422711 369.36 
L 92.554513 369.36 
L 92.949919 368.756569 
L 93.081721 368.769895 
L 93.345325 369.099856 
L 93.477127 369.346674 
L 94.531542 367.593451 
L 95.190552 367.057519 
L 95.981363 366.765508 
L 97.167581 366.618344 
L 100.330828 366.554032 
L 111.402191 366.539837 
L 111.665795 366.915569 
L 112.193002 368.309862 
L 112.588408 369.275699 
L 112.852012 368.809004 
L 113.247418 368.599266 
L 114.03823 368.652569 
L 115.092645 368.628814 
L 117.069674 368.289584 
L 121.682742 367.507122 
L 123.791573 367.311579 
L 125.373197 367.516103 
L 136.180956 369.261504 
L 140.53042 368.545962 
L 143.825469 368.209628 
L 149.229348 368.023935 
L 155.951247 368.001629 
L 156.742059 368.006264 
L 156.873861 366.155993 
L 157.269267 348.208342 
L 158.982692 261.442335 
L 159.246296 249.447878 
L 159.5099 259.934772 
L 159.641702 257.583911 
L 159.905306 244.377958 
L 160.16891 249.079678 
L 160.564315 241.037216 
L 160.827919 243.257714 
L 161.223325 240.294153 
L 161.486929 241.070531 
L 161.618731 240.641785 
L 161.882335 244.342325 
L 162.014137 244.886949 
L 162.277741 247.935969 
L 162.541345 250.547554 
L 162.673147 250.979196 
L 162.93675 253.559783 
L 163.200354 255.660638 
L 163.463958 256.114877 
L 163.859364 257.948635 
L 164.122968 257.901125 
L 164.518374 258.8125 
L 164.781978 258.587698 
L 165.177383 259.070037 
L 165.440987 258.838283 
L 165.836393 259.125948 
L 166.099997 258.936489 
L 166.627205 259.048021 
L 166.890809 259.009202 
L 167.154413 259.109436 
L 167.549818 259.0205 
L 167.813422 259.094372 
L 168.208828 259.027453 
L 168.604234 259.056712 
L 168.99964 259.059319 
L 169.922253 259.052656 
L 170.844867 259.037881 
L 172.42649 259.045993 
L 180.466409 259.014706 
L 189.165337 258.985447 
L 189.428941 259.609736 
L 192.328584 263.131246 
L 193.514801 264.050153 
L 194.701019 264.682553 
L 196.019038 265.132447 
L 197.600661 265.420691 
L 199.445889 265.523822 
L 201.818324 265.429382 
L 205.245174 265.051912 
L 211.176261 264.134743 
L 221.456813 262.367905 
L 221.984021 264.262498 
L 222.379427 264.979778 
L 222.774832 265.149249 
L 223.170238 264.988469 
L 223.697446 264.454854 
L 224.356456 263.699335 
L 224.62006 263.965273 
L 225.015465 263.654722 
L 225.279069 263.878365 
L 225.674475 263.707156 
L 225.938079 263.895457 
L 226.465287 263.875178 
L 226.728891 263.926454 
L 226.992495 263.874599 
L 227.3879 263.970777 
L 227.783306 263.966432 
L 228.178712 263.970487 
L 229.760335 263.990476 
L 230.814751 263.971646 
L 235.955027 263.777262 
L 267.851097 262.194958 
L 299.088157 260.367573 
L 326.371159 258.587698 
L 326.502961 258.345515 
L 326.766565 257.645326 
L 327.030169 258.006863 
L 327.161971 257.929515 
L 327.425575 257.62273 
L 327.820981 257.757148 
L 328.084585 257.603611 
L 328.479991 257.661259 
L 328.875396 257.591733 
L 329.402604 257.551176 
L 331.116029 257.453839 
L 338.760542 256.901105 
L 339.28775 260.563985 
L 339.551354 261.510123 
L 340.078562 263.551591 
L 340.473967 264.54379 
L 340.737571 267.240834 
L 340.869373 267.26285 
L 341.001175 267.573981 
L 341.396581 269.348931 
L 342.055591 270.591136 
L 342.450996 270.853018 
L 342.846402 270.823759 
L 343.241808 270.544495 
L 343.769016 269.866613 
L 344.559828 268.392075 
L 345.877847 265.314953 
L 348.250282 259.73778 
L 349.568301 257.173126 
L 350.886321 255.098344 
L 352.072538 253.627861 
L 352.86335 252.832653 
L 353.126954 257.815087 
L 353.390558 257.180658 
L 353.785964 260.367284 
L 353.917766 260.271974 
L 354.049567 260.245323 
L 354.444973 261.970735 
L 354.708577 261.874267 
L 355.103983 262.555916 
L 355.367587 262.406144 
L 355.762993 262.566345 
L 356.158399 262.360373 
L 356.422002 262.310256 
L 357.476418 261.700452 
L 359.585249 260.778358 
L 360.507863 260.674648 
L 361.166872 260.745043 
L 361.69408 261.906134 
L 362.089486 262.424685 
L 362.484892 262.715537 
L 363.143902 262.987269 
L 363.934713 263.017107 
L 365.384535 262.7784 
L 367.361564 262.511013 
L 369.470395 262.487548 
L 382.518787 262.807659 
L 411.778818 262.82562 
L 463.576982 262.849375 
L 463.972388 264.483244 
L 465.817615 270.30347 
L 466.740229 272.49442 
L 467.662842 274.097872 
L 468.453654 275.051542 
L 469.244465 275.68539 
L 470.167079 276.117323 
L 471.221495 276.334882 
L 472.671316 276.373122 
L 489.673767 275.92178 
L 498.109091 275.906426 
L 498.109091 275.906426 
" style="fill:none;stroke:#bf00bf;stroke-linecap:square;stroke-width:1.5;"/>
   </g>
   <g id="line2d_28">
    <path clip-path="url(#p79258dedcd)" d="M 92.290909 79.666812 
L 92.422711 224.513406 
L 92.818117 208.475412 
L 93.213523 200.95208 
L 93.608929 197.179405 
L 94.004334 195.247442 
L 94.39974 194.221638 
L 94.926948 193.513918 
L 95.585958 193.085751 
L 96.508571 192.79403 
L 98.4856 192.460883 
L 111.006785 190.710557 
L 111.270389 191.862087 
L 112.456606 199.652806 
L 113.247418 212.850069 
L 113.642824 215.846365 
L 114.03823 217.384346 
L 114.433635 217.992702 
L 114.697239 218.049772 
L 114.960843 217.908112 
L 115.356249 217.430987 
L 116.015259 216.202978 
L 117.46508 212.811829 
L 119.705713 207.701062 
L 121.419138 204.346415 
L 122.86896 201.883154 
L 123.264366 201.537839 
L 128.009236 199.107314 
L 129.063651 198.763158 
L 129.590859 198.840216 
L 130.381671 198.641487 
L 132.095096 197.929711 
L 138.685193 194.999754 
L 141.321232 194.157326 
L 144.352676 193.436859 
L 146.988715 192.997105 
L 149.492952 192.808225 
L 152.788001 192.816336 
L 156.742059 192.952202 
L 156.873861 191.105119 
L 157.269267 172.969166 
L 159.246296 66.96 
L 159.5099 81.444949 
L 159.641702 79.907837 
L 159.905306 69.355763 
L 160.16891 79.034412 
L 160.300712 78.281499 
L 160.564315 72.670432 
L 160.827919 76.319697 
L 160.959721 75.810996 
L 161.223325 73.681172 
L 161.486929 74.939599 
L 161.618731 74.61746 
L 161.882335 77.363751 
L 162.014137 76.729323 
L 162.145939 76.945724 
L 162.409543 79.261821 
L 162.541345 79.129142 
L 162.673147 78.47907 
L 162.804948 78.495293 
L 163.200354 80.529519 
L 163.463958 79.765308 
L 163.859364 80.674365 
L 164.122968 79.992427 
L 164.25477 80.161898 
L 164.518374 80.577028 
L 164.781978 80.074411 
L 164.91378 80.178121 
L 165.177383 80.491279 
L 165.440987 80.13148 
L 165.968195 80.300951 
L 166.099997 80.174934 
L 166.627205 80.300661 
L 166.890809 80.227369 
L 167.154413 80.359179 
L 167.549818 80.239246 
L 167.813422 80.336583 
L 168.208828 80.248227 
L 168.604234 80.29255 
L 168.99964 80.287914 
L 169.790451 80.297185 
L 171.108471 80.283569 
L 174.271717 80.263291 
L 180.993617 80.241564 
L 189.165337 80.229976 
L 189.560743 81.42525 
L 190.483356 83.197593 
L 191.537772 84.75846 
L 192.592188 85.916943 
L 193.646603 86.762557 
L 194.832821 87.429141 
L 196.15084 87.907425 
L 197.732463 88.222611 
L 199.577691 88.350655 
L 201.950125 88.281998 
L 205.245174 87.952617 
L 210.780856 87.149877 
L 221.588615 85.379272 
L 221.852219 85.199662 
L 222.247625 84.532789 
L 222.906634 82.829683 
L 224.356456 78.925487 
L 224.62006 79.256027 
L 225.015465 78.864362 
L 225.279069 79.133487 
L 225.806277 78.971838 
L 226.069881 79.018479 
L 226.333485 78.872474 
L 226.728891 78.984585 
L 226.992495 78.87566 
L 227.3879 78.957933 
L 227.783306 78.908396 
L 228.04691 78.937075 
L 228.442316 78.897677 
L 228.837722 78.892173 
L 229.760335 78.882613 
L 230.682949 78.886669 
L 232.396374 78.862334 
L 236.218631 78.835972 
L 289.730219 78.372463 
L 326.239358 77.952118 
L 326.371159 78.366959 
L 326.502961 78.27136 
L 326.766565 77.54481 
L 327.161971 78.023383 
L 327.425575 77.679517 
L 327.820981 77.910982 
L 328.084585 77.74267 
L 328.479991 77.850436 
L 328.875396 77.785545 
L 329.270802 77.789021 
L 330.193416 77.770481 
L 332.302247 77.738325 
L 338.760542 77.671116 
L 339.155948 79.766756 
L 339.419552 79.081342 
L 339.551354 79.192295 
L 339.94676 79.843815 
L 340.342165 80.340349 
L 340.473967 80.429285 
L 340.737571 83.876634 
L 341.001175 82.503488 
L 341.132977 82.5959 
L 341.396581 83.149214 
L 341.660185 83.018273 
L 342.319195 83.117058 
L 342.978204 82.978295 
L 343.900818 82.527243 
L 345.350639 81.504046 
L 348.645688 79.113209 
L 350.359113 78.179238 
L 352.072538 77.492086 
L 352.86335 77.247874 
L 353.126954 82.008982 
L 353.390558 79.960851 
L 353.52236 80.656984 
L 353.785964 82.416001 
L 354.049567 81.194364 
L 354.181369 81.365573 
L 354.444973 82.027522 
L 354.708577 81.338921 
L 354.840379 81.369049 
L 355.103983 81.621083 
L 355.499389 81.220727 
L 355.762993 81.290543 
L 356.158399 81.022576 
L 356.422002 81.006933 
L 356.94921 80.787346 
L 360.376061 79.996773 
L 361.166872 79.995035 
L 361.562278 80.605418 
L 361.825882 80.394232 
L 363.0121 80.560805 
L 364.330119 80.659301 
L 368.943187 80.865852 
L 377.642115 80.907858 
L 431.680912 80.91568 
L 463.576982 80.948125 
L 463.972388 83.36127 
L 464.763199 86.761398 
L 465.685813 89.702364 
L 466.476625 91.552634 
L 467.267436 92.90637 
L 468.058248 93.864965 
L 468.980862 94.606869 
L 469.903475 95.062846 
L 471.089693 95.385565 
L 472.803118 95.582846 
L 476.098166 95.678444 
L 482.688264 95.62601 
L 494.945844 95.546634 
L 498.109091 95.544317 
L 498.109091 95.544317 
" style="fill:none;stroke:#00bfbf;stroke-linecap:square;stroke-width:1.5;"/>
   </g>
   <g id="line2d_29">
    <path clip-path="url(#p79258dedcd)" d="M 92.290909 79.666812 
L 92.422711 369.36 
L 92.554513 369.36 
L 92.949919 368.756569 
L 93.081721 368.769895 
L 93.345325 369.099856 
L 93.477127 369.346674 
L 94.531542 367.593451 
L 95.190552 367.057519 
L 95.981363 366.765508 
L 97.167581 366.618344 
L 100.330828 366.554032 
L 111.402191 366.539837 
L 111.665795 366.915569 
L 112.193002 368.309862 
L 112.588408 369.275699 
L 112.852012 368.809004 
L 113.247418 368.599266 
L 114.03823 368.652569 
L 115.092645 368.628814 
L 117.069674 368.289584 
L 121.682742 367.507122 
L 123.791573 367.311579 
L 125.373197 367.516103 
L 136.180956 369.261504 
L 140.53042 368.545962 
L 143.825469 368.209628 
L 149.229348 368.023935 
L 155.951247 368.001629 
L 156.742059 368.006264 
L 156.873861 366.155993 
L 157.269267 348.208342 
L 158.982692 261.442335 
L 159.114494 255.402522 
L 159.246296 268.561545 
L 159.773504 262.47654 
L 159.905306 263.681953 
L 160.300712 256.727289 
L 160.564315 255.198288 
L 160.696117 255.117174 
L 161.223325 252.643484 
L 161.355127 252.506169 
L 161.882335 250.686896 
L 162.014137 251.215296 
L 162.277741 252.922169 
L 162.541345 253.809209 
L 163.068552 256.412102 
L 163.332156 257.08477 
L 163.727562 258.441114 
L 164.518374 259.590326 
L 165.572789 260.050359 
L 167.154413 260.08744 
L 168.604234 260.089468 
L 172.953698 260.10598 
L 189.428941 259.988365 
L 190.219753 259.536154 
L 191.142366 259.355096 
L 193.119395 259.266449 
L 203.927155 259.185915 
L 221.588615 259.172589 
L 222.511229 262.509565 
L 223.30204 264.270899 
L 223.96105 265.222831 
L 224.488258 265.67678 
L 224.883664 265.615076 
L 225.279069 265.659109 
L 225.674475 265.702563 
L 226.597089 265.814385 
L 227.651504 265.913749 
L 229.101326 265.980379 
L 235.559621 265.899554 
L 257.965951 265.296703 
L 295.002297 264.127791 
L 326.371159 263.011313 
L 326.634763 262.6463 
L 327.161971 262.540562 
L 327.820981 262.481464 
L 329.139 262.435983 
L 338.62874 262.084005 
L 339.419552 272.481094 
L 339.94676 276.786514 
L 340.605769 280.068448 
L 341.660185 283.848365 
L 342.055591 284.486849 
L 342.450996 284.65545 
L 342.7146 284.543918 
L 343.110006 284.097501 
L 343.637214 283.074594 
L 344.428026 280.894653 
L 345.746045 276.387606 
L 348.11848 268.243462 
L 349.436499 264.497439 
L 350.622717 261.734925 
L 351.808934 259.523118 
L 352.86335 257.967465 
L 352.995152 257.807844 
L 353.258756 257.192826 
L 353.390558 257.303488 
L 353.654162 258.127955 
L 353.917766 258.640712 
L 354.313171 259.975618 
L 355.367587 261.41858 
L 355.762993 261.641354 
L 356.94921 261.858914 
L 360.639665 261.946111 
L 361.03507 261.989855 
L 361.825882 265.27092 
L 362.35309 266.6965 
L 362.880298 267.527051 
L 363.407505 267.883373 
L 363.934713 267.891485 
L 364.461921 267.661758 
L 365.384535 266.948823 
L 367.75697 264.976012 
L 368.943187 264.325362 
L 370.261206 263.874309 
L 371.84283 263.588092 
L 374.215265 263.405296 
L 380.278154 263.233798 
L 392.272131 263.159926 
L 445.256512 263.154422 
L 464.10419 263.257263 
L 464.631397 263.719323 
L 465.290407 264.718765 
L 466.213021 266.60264 
L 468.453654 271.363747 
L 469.508069 273.034408 
L 470.430683 274.09932 
L 471.353297 274.832244 
L 472.27591 275.300678 
L 473.462128 275.630928 
L 475.043751 275.803585 
L 478.602403 275.882092 
L 489.805569 275.919462 
L 498.109091 275.907295 
L 498.109091 275.907295 
" style="fill:none;stroke:#ff0000;stroke-linecap:square;stroke-width:1.5;"/>
   </g>
   <g id="line2d_30">
    <path clip-path="url(#p79258dedcd)" d="M 92.290909 79.666812 
L 92.422711 137.60545 
L 92.818117 132.953267 
L 93.477127 125.723394 
L 94.004334 122.048926 
L 94.531542 119.834221 
L 95.05875 118.569421 
L 95.585958 117.8617 
L 96.244967 117.394136 
L 97.167581 117.089958 
L 98.749204 116.863707 
L 108.107142 116.007664 
L 111.006785 115.741726 
L 111.270389 117.358503 
L 112.061201 126.56785 
L 112.72021 133.400553 
L 113.115616 135.508071 
L 113.511022 136.526343 
L 113.906428 137.053295 
L 114.433635 137.393394 
L 115.092645 137.532447 
L 116.015259 137.48291 
L 117.992288 137.088347 
L 122.20995 136.258377 
L 123.659771 135.925229 
L 124.582385 135.33918 
L 128.800047 132.217736 
L 130.118067 131.485971 
L 131.963294 130.175689 
L 139.212401 124.593011 
L 141.321232 123.42381 
L 142.902855 122.767075 
L 144.748082 122.344702 
L 147.647725 121.895678 
L 150.415566 121.692313 
L 153.710614 121.681015 
L 156.873861 121.766185 
L 157.005663 121.578754 
L 157.269267 120.078433 
L 157.664673 115.494907 
L 158.323682 104.063903 
L 159.5099 82.309104 
L 159.773504 79.364083 
L 159.905306 76.908064 
L 160.037108 79.050345 
L 160.16891 78.999359 
L 160.432514 77.507439 
L 160.564315 77.844932 
L 160.696117 77.835951 
L 160.959721 77.107083 
L 161.355127 76.821735 
L 161.618731 76.45846 
L 161.750533 76.643284 
L 161.882335 77.27047 
L 162.145939 76.683552 
L 162.277741 76.763507 
L 162.409543 76.904588 
L 162.804948 76.782627 
L 163.068552 76.907774 
L 163.59576 77.279451 
L 164.25477 77.449501 
L 165.572789 77.523952 
L 170.976669 77.533512 
L 193.382999 77.593768 
L 205.508778 77.643305 
L 221.325011 77.641567 
L 221.720417 79.078156 
L 221.852219 79.096117 
L 222.379427 79.542244 
L 223.170238 79.797464 
L 224.356456 79.915369 
L 229.628533 80.048628 
L 245.70837 80.114678 
L 329.270802 80.591803 
L 338.760542 80.676972 
L 339.024146 81.108615 
L 340.078562 80.850788 
L 340.473967 80.636995 
L 340.605769 80.186522 
L 341.001175 80.982599 
L 341.264779 80.727089 
L 341.660185 80.809073 
L 342.450996 80.591513 
L 349.172896 78.636953 
L 351.808934 78.295694 
L 352.995152 78.193722 
L 353.126954 78.426636 
L 353.390558 77.782068 
L 353.52236 77.810169 
L 353.785964 78.089433 
L 354.049567 78.08306 
L 354.444973 78.241522 
L 355.499389 78.455895 
L 360.376061 79.295136 
L 362.748496 79.437086 
L 367.493366 78.93273 
L 371.711028 78.902312 
L 397.807812 78.906368 
L 464.499596 78.996462 
L 469.112663 79.684484 
L 472.012306 79.723302 
L 490.991786 79.667102 
L 498.109091 79.666812 
L 498.109091 79.666812 
" style="fill:none;stroke:#008000;stroke-linecap:square;stroke-width:1.5;"/>
   </g>
   <g id="line2d_31">
    <path clip-path="url(#p79258dedcd)" d="M 92.290909 79.666812 
L 92.422711 369.36 
L 92.818117 352.841984 
L 93.213523 345.334875 
L 93.608929 342.278322 
L 94.004334 341.107672 
L 94.39974 340.677477 
L 94.926948 340.492074 
L 96.903977 340.282046 
L 104.416688 339.313892 
L 111.006785 338.44655 
L 111.270389 339.592866 
L 111.929399 343.03558 
L 112.456606 344.784458 
L 113.37922 358.13352 
L 113.774626 360.601416 
L 114.170032 361.819866 
L 114.433635 362.148667 
L 114.697239 362.198205 
L 114.960843 362.037136 
L 115.356249 361.513081 
L 116.015259 360.178754 
L 117.46508 356.511817 
L 119.573911 351.29734 
L 121.287337 347.636777 
L 122.86896 344.720436 
L 123.264366 344.335433 
L 124.186979 343.927256 
L 128.009236 342.561063 
L 129.063651 342.351325 
L 129.722661 342.541653 
L 130.513472 342.467492 
L 132.490502 341.961977 
L 137.894381 340.553489 
L 141.453034 339.90052 
L 147.779527 339.063017 
L 150.67917 338.990304 
L 156.083049 339.134572 
L 157.137465 339.120087 
L 157.401069 338.713068 
L 157.796475 337.418139 
L 159.246296 331.718716 
L 159.378098 332.795216 
L 159.641702 336.53052 
L 159.905306 334.004974 
L 160.16891 340.824931 
L 160.300712 341.518457 
L 160.432514 341.139828 
L 160.564315 341.215438 
L 160.959721 343.182744 
L 161.223325 343.086276 
L 161.618731 343.778933 
L 161.882335 343.678699 
L 162.277741 340.952396 
L 162.541345 339.620966 
L 162.93675 337.233315 
L 163.200354 336.570787 
L 163.59576 335.20836 
L 163.991166 334.492238 
L 164.25477 334.097386 
L 164.518374 333.993097 
L 164.91378 333.691816 
L 165.177383 333.706301 
L 165.572789 333.566958 
L 165.968195 333.575359 
L 166.363601 333.560875 
L 167.286215 333.547838 
L 168.077026 333.531326 
L 176.248747 333.533354 
L 189.165337 333.544072 
L 189.824347 334.0942 
L 190.483356 334.362166 
L 191.669574 334.564372 
L 194.305613 334.718199 
L 201.291116 334.853486 
L 221.456813 335.001229 
L 221.588615 334.914901 
L 222.906634 331.01621 
L 223.565644 329.818328 
L 224.224654 328.988647 
L 224.488258 328.96663 
L 224.751862 329.00458 
L 225.147267 328.962864 
L 225.410871 328.975321 
L 225.806277 328.905795 
L 226.201683 328.857706 
L 227.124297 328.767321 
L 228.574118 328.70214 
L 232.923582 328.741249 
L 252.298468 329.404936 
L 288.016794 330.850505 
L 326.239358 332.638492 
L 326.371159 333.061444 
L 327.293773 333.255538 
L 327.689179 333.31985 
L 328.743594 333.365042 
L 334.147474 333.633877 
L 338.892344 333.878089 
L 339.024146 333.7822 
L 339.814958 331.588643 
L 340.473967 330.691753 
L 340.605769 330.663653 
L 340.737571 330.835441 
L 340.869373 330.507219 
L 341.264779 328.86321 
L 342.319195 327.478766 
L 342.7146 327.363758 
L 343.241808 327.462543 
L 343.900818 327.895635 
L 344.69163 328.716915 
L 346.141451 330.624544 
L 348.513886 333.726 
L 349.963707 335.257318 
L 351.413529 336.45491 
L 352.86335 337.349772 
L 353.126954 337.432334 
L 353.52236 335.248337 
L 353.654162 335.22661 
L 353.785964 334.973998 
L 354.181369 333.533064 
L 354.576775 332.863004 
L 354.840379 332.436575 
L 355.894795 331.952498 
L 356.2902 331.9412 
L 358.26723 332.306793 
L 359.848853 332.532464 
L 361.166872 332.499149 
L 361.430476 332.429623 
L 362.35309 331.61066 
L 362.880298 331.445825 
L 363.671109 331.427864 
L 365.384535 331.696699 
L 367.361564 331.897167 
L 369.602197 331.869646 
L 378.301125 331.579084 
L 395.567179 331.537368 
L 463.576982 331.545189 
L 464.10419 332.483216 
L 464.631397 332.952809 
L 465.290407 333.190357 
L 466.213021 333.235839 
L 470.167079 333.151828 
L 479.920423 333.816384 
L 495.736656 333.844774 
L 498.109091 333.844774 
L 498.109091 333.844774 
" style="fill:none;stroke:#0000ff;stroke-linecap:square;stroke-width:1.5;"/>
   </g>
   <g id="line2d_32">
    <path clip-path="url(#p79258dedcd)" d="M 92.290909 79.666812 
L 92.422711 137.60545 
L 92.554513 137.60545 
L 92.818117 135.946377 
L 93.872532 127.71011 
L 94.39974 125.182247 
L 94.926948 123.661358 
L 95.454156 122.794596 
L 95.981363 122.30936 
L 96.640373 121.986642 
L 97.694789 121.753149 
L 100.067224 121.537038 
L 111.138587 120.747624 
L 111.402191 122.143076 
L 112.061201 128.744604 
L 112.72021 134.963448 
L 113.115616 136.665395 
L 113.511022 137.254631 
L 113.906428 137.434241 
L 114.565437 137.448436 
L 116.147061 137.174097 
L 121.682742 136.117006 
L 123.659771 135.720996 
L 124.582385 135.119013 
L 128.272839 132.379095 
L 130.249869 131.253637 
L 132.622304 129.448848 
L 137.367174 125.667773 
L 139.607807 124.226549 
L 141.716638 123.131799 
L 143.166459 122.586886 
L 145.143488 122.184212 
L 148.043131 121.822386 
L 151.074576 121.683333 
L 155.42404 121.74243 
L 156.873861 121.78067 
L 157.005663 121.532113 
L 157.269267 119.733987 
L 157.664673 114.545293 
L 158.323682 101.764319 
L 159.378098 80.179569 
L 159.773504 75.812155 
L 159.905306 79.666812 
L 498.109091 79.666812 
L 498.109091 79.666812 
" style="fill:none;stroke:#000000;stroke-linecap:square;stroke-width:1.5;"/>
   </g>
   <g id="line2d_33">
    <path clip-path="url(#p79258dedcd)" d="M 92.290909 79.666812 
L 92.422711 369.36 
L 92.818117 345.006363 
L 93.213523 332.85692 
L 93.608929 326.600706 
L 94.004334 323.338471 
L 94.39974 321.563521 
L 94.926948 320.304514 
L 95.454156 319.642855 
L 96.113165 319.186878 
L 97.167581 318.789129 
L 99.540016 318.23147 
L 110.611379 315.734604 
L 111.006785 315.739529 
L 111.665795 334.904182 
L 112.324804 346.790583 
L 112.983814 355.143307 
L 113.511022 359.478565 
L 113.906428 361.293783 
L 114.301834 362.165759 
L 114.565437 362.360723 
L 114.829041 362.327988 
L 115.224447 361.967899 
L 115.751655 361.110697 
L 116.674269 359.107468 
L 119.969317 351.610788 
L 121.682742 348.356375 
L 123.396168 345.564891 
L 125.373197 342.351325 
L 126.95482 339.902838 
L 128.009236 338.652522 
L 128.931849 337.879331 
L 130.118067 337.027923 
L 131.04068 335.910286 
L 132.885907 333.229755 
L 136.049154 328.663901 
L 138.026183 326.211648 
L 139.87141 324.284899 
L 141.584836 322.804856 
L 142.507449 322.19708 
L 144.352676 321.482407 
L 146.59331 320.824803 
L 148.570339 320.489628 
L 150.67917 320.368537 
L 153.578812 320.451679 
L 157.137465 320.624915 
L 157.401069 320.334353 
L 157.664673 319.591869 
L 158.060079 317.696986 
L 158.587286 314.038451 
L 159.905306 303.593273 
L 161.618731 297.395867 
L 162.014137 297.860824 
L 162.145939 297.917315 
L 162.409543 297.54419 
L 162.804948 296.587623 
L 163.068552 296.101228 
L 164.122968 297.352123 
L 165.309185 297.676869 
L 167.154413 297.725248 
L 169.65865 297.717426 
L 189.824347 297.775365 
L 191.274168 298.092289 
L 193.646603 298.333024 
L 198.259671 298.528567 
L 209.594638 298.692244 
L 221.456813 298.803486 
L 221.720417 297.775655 
L 222.511229 293.337845 
L 223.30204 289.722763 
L 223.96105 287.709106 
L 224.62006 286.418813 
L 225.410871 285.617811 
L 226.465287 284.971795 
L 227.519702 284.625032 
L 228.837722 284.41037 
L 230.814751 284.318537 
L 234.768809 284.390091 
L 252.43027 285.082748 
L 285.117151 286.630578 
L 307.787086 287.887847 
L 326.502961 289.100502 
L 326.766565 289.114987 
L 327.161971 289.082831 
L 328.348189 289.005773 
L 332.170445 289.066029 
L 339.551354 289.521137 
L 339.814958 289.709437 
L 340.342165 290.493057 
L 340.869373 291.412254 
L 341.396581 291.557101 
L 342.187393 292.02959 
L 343.110006 292.880998 
L 346.273253 296.020404 
L 347.591272 296.928302 
L 348.909292 297.571131 
L 350.359113 298.034061 
L 352.072538 298.348668 
L 353.258756 298.4405 
L 353.52236 298.101849 
L 354.444973 296.59023 
L 355.499389 295.452605 
L 356.2902 294.942455 
L 358.135428 294.099158 
L 361.430476 292.821611 
L 362.221288 292.680241 
L 362.880298 292.873177 
L 364.066515 293.583504 
L 365.384535 294.293832 
L 366.43895 294.601776 
L 367.625168 294.688684 
L 369.206791 294.546734 
L 374.742472 293.879281 
L 378.828333 293.727772 
L 388.449875 293.647816 
L 416.260084 293.636229 
L 463.840586 293.692429 
L 465.026803 294.256751 
L 466.344823 294.502701 
L 467.926446 294.8625 
L 469.508069 295.478388 
L 473.198524 297.031433 
L 474.911949 297.472635 
L 476.888978 297.752769 
L 479.788621 297.91181 
L 486.115114 297.983075 
L 498.109091 297.985392 
L 498.109091 297.985392 
" style="fill:none;stroke:#bfbf00;stroke-linecap:square;stroke-width:1.5;"/>
   </g>
   <g id="line2d_34">
    <path clip-path="url(#p79258dedcd)" d="M 92.290909 79.666812 
L 92.422711 369.36 
L 92.818117 347.999762 
L 93.213523 337.155677 
L 93.608929 331.395997 
L 94.004334 328.255144 
L 94.39974 326.465419 
L 94.926948 325.144998 
L 95.454156 324.43525 
L 96.113165 323.949144 
L 97.035779 323.581813 
L 98.881006 323.151619 
L 111.006785 320.748614 
L 111.138587 320.861594 
L 112.061201 337.835298 
L 112.72021 345.718429 
L 113.247418 350.024428 
L 113.642824 351.944225 
L 114.03823 352.992045 
L 114.433635 353.416446 
L 114.697239 353.453237 
L 115.092645 353.2519 
L 115.619853 352.670775 
L 116.542467 351.229552 
L 120.232921 345.092691 
L 122.078148 342.59148 
L 127.61383 335.883055 
L 128.668245 335.064093 
L 130.513472 333.818991 
L 131.963294 332.219305 
L 136.971768 326.442823 
L 138.948797 324.596319 
L 140.794024 323.167552 
L 142.507449 322.095687 
L 144.089073 321.473426 
L 146.197904 320.854352 
L 148.174933 320.509617 
L 150.283764 320.377807 
L 153.183407 320.45023 
L 157.005663 320.602898 
L 157.269267 320.17618 
L 157.532871 319.305652 
L 157.928277 316.94755 
L 158.587286 311.202644 
L 159.5099 302.273431 
L 159.773504 301.093221 
L 159.905306 301.172597 
L 160.16891 299.566538 
L 160.300712 299.609992 
L 161.618731 296.200303 
L 161.750533 296.294743 
L 162.145939 297.257683 
L 162.673147 296.761728 
L 163.068552 296.24086 
L 164.386572 297.665571 
L 164.91378 297.833883 
L 166.099997 297.955264 
L 174.008114 297.927164 
L 189.560743 297.881103 
L 191.669574 298.155153 
L 195.360028 298.311877 
L 204.586164 298.445715 
L 221.325011 298.589113 
L 221.984021 295.376995 
L 222.906634 290.385581 
L 223.565644 287.955055 
L 224.224654 286.333643 
L 224.751862 285.519895 
L 225.542673 284.755974 
L 226.333485 284.263495 
L 227.256098 283.908621 
L 228.70592 283.631674 
L 230.814751 283.511452 
L 234.900611 283.556064 
L 251.77126 284.074905 
L 279.976876 285.115483 
L 306.996274 286.295403 
L 327.293773 287.16738 
L 328.875396 287.04397 
L 331.643237 287.052372 
L 338.62874 287.377118 
L 338.892344 287.403769 
L 339.28775 287.919713 
L 339.683156 288.481138 
L 340.342165 290.025782 
L 340.605769 290.506383 
L 340.869373 290.560266 
L 341.264779 291.026383 
L 341.660185 291.37807 
L 343.241808 293.278457 
L 345.087035 295.457819 
L 346.273253 296.532291 
L 347.45947 297.324023 
L 348.77749 297.920791 
L 350.227311 298.31854 
L 351.940736 298.557536 
L 353.126954 298.731932 
L 353.258756 298.881993 
L 353.390558 298.758004 
L 353.785964 297.950919 
L 354.181369 297.293605 
L 354.840379 296.379913 
L 355.631191 295.584126 
L 357.212814 294.434333 
L 359.717051 292.911127 
L 361.166872 292.261345 
L 361.562278 292.229768 
L 362.35309 292.412854 
L 363.143902 292.928218 
L 364.989129 294.234735 
L 365.911742 294.609887 
L 366.966158 294.783124 
L 368.284177 294.731559 
L 370.920216 294.313242 
L 373.819859 293.953443 
L 377.378511 293.766301 
L 384.891222 293.662301 
L 415.996481 293.636229 
L 463.972388 293.721688 
L 464.895001 294.007905 
L 468.058248 294.628428 
L 469.639871 295.358455 
L 472.671316 296.811266 
L 474.384741 297.347778 
L 476.229968 297.678897 
L 478.734205 297.872991 
L 483.610877 297.96917 
L 497.977289 297.985392 
L 498.109091 297.985392 
L 498.109091 297.985392 
" style="fill:none;stroke:#bf00bf;stroke-linecap:square;stroke-width:1.5;"/>
   </g>
   <g id="line2d_35">
    <path clip-path="url(#p79258dedcd)" d="M 92.290909 79.666812 
L 92.422711 369.36 
L 92.554513 369.36 
L 93.081721 362.364779 
L 93.345325 361.200791 
L 93.608929 360.937171 
L 93.872532 361.112435 
L 95.322354 362.793814 
L 95.981363 363.102917 
L 96.903977 363.268621 
L 98.617402 363.304833 
L 107.843538 363.053669 
L 110.743181 362.964733 
L 110.874983 363.729234 
L 111.006785 368.680959 
L 111.270389 364.589043 
L 111.797597 362.994861 
L 112.456606 361.75005 
L 113.247418 360.770887 
L 113.774626 360.443533 
L 114.301834 360.395155 
L 114.960843 360.585193 
L 116.147061 361.234685 
L 120.232921 363.637111 
L 122.737158 364.775026 
L 125.636801 365.827481 
L 127.482028 366.290121 
L 129.327255 366.506812 
L 130.513472 366.75421 
L 138.553391 368.816825 
L 141.980242 369.346384 
L 142.375647 369.311042 
L 143.430063 368.917928 
L 145.802498 368.008002 
L 147.384121 367.656604 
L 149.097546 367.510599 
L 151.338179 367.576649 
L 157.269267 367.935579 
L 157.664673 367.456716 
L 157.928277 367.90632 
L 158.323682 369.344646 
L 158.982692 365.803726 
L 159.378098 363.44012 
L 159.641702 360.555934 
L 159.905306 360.568101 
L 160.300712 357.750546 
L 160.432514 357.792551 
L 160.564315 358.026623 
L 160.696117 357.893075 
L 160.959721 357.344975 
L 161.355127 357.686523 
L 161.618731 357.695504 
L 161.882335 358.957407 
L 162.277741 361.194998 
L 162.804948 363.528186 
L 163.332156 362.781647 
L 163.727562 362.934026 
L 163.991166 363.074237 
L 164.25477 363.237334 
L 164.781978 363.377546 
L 165.704591 363.450549 
L 166.759007 363.47778 
L 170.317659 363.471986 
L 179.675597 363.459529 
L 189.297139 363.37349 
L 190.219753 363.011084 
L 191.537772 362.799029 
L 194.305613 362.635642 
L 201.027512 362.510205 
L 221.456813 362.422138 
L 221.852219 362.582918 
L 222.64303 362.510494 
L 223.565644 362.699374 
L 224.488258 362.858995 
L 225.015465 362.772087 
L 225.938079 362.646071 
L 228.442316 362.585525 
L 232.79178 362.50499 
L 261.788208 361.884178 
L 324.39413 360.259578 
L 326.239358 360.207723 
L 326.502961 359.990164 
L 327.030169 359.941785 
L 327.952783 359.853139 
L 330.720624 359.726543 
L 338.760542 359.464081 
L 339.155948 359.91803 
L 339.683156 360.865906 
L 340.473967 361.883888 
L 340.737571 361.639677 
L 341.396581 363.065257 
L 342.055591 363.885668 
L 342.7146 364.363662 
L 343.37361 364.586436 
L 344.164422 364.597444 
L 345.087035 364.364241 
L 346.405055 363.774715 
L 350.886321 361.58898 
L 352.86335 360.950207 
L 352.995152 360.90936 
L 353.126954 361.072747 
L 353.390558 361.85376 
L 353.917766 362.491954 
L 354.181369 362.947931 
L 355.103983 363.54354 
L 355.631191 363.621757 
L 356.817408 363.377256 
L 360.244259 362.261648 
L 361.298674 362.176188 
L 361.69408 362.356088 
L 362.35309 362.647229 
L 363.275703 362.913168 
L 364.857327 363.115374 
L 367.75697 363.19475 
L 387.659063 363.302515 
L 463.576982 363.300198 
L 464.367794 362.626951 
L 465.158605 362.26918 
L 466.213021 362.049882 
L 467.926446 361.949648 
L 480.184027 361.871721 
L 498.109091 361.867086 
L 498.109091 361.867086 
" style="fill:none;stroke:#00bfbf;stroke-linecap:square;stroke-width:1.5;"/>
   </g>
   <g id="line2d_36">
    <path clip-path="url(#p79258dedcd)" d="M 92.290909 79.666812 
L 92.422711 369.36 
L 92.554513 360.225394 
L 93.081721 369.175755 
L 93.477127 367.324326 
L 93.74073 366.922232 
L 94.004334 366.902243 
L 94.531542 367.240315 
L 95.322354 367.727289 
L 96.113165 367.967445 
L 97.431185 368.089695 
L 101.121639 368.09462 
L 110.874983 367.912403 
L 111.138587 363.467641 
L 112.061201 360.382118 
L 112.456606 359.338933 
L 112.72021 359.280415 
L 115.092645 359.767679 
L 120.364723 361.417192 
L 124.450583 362.559163 
L 126.823018 363.378994 
L 128.536443 363.719674 
L 129.590859 363.94969 
L 132.885907 365.082101 
L 136.839966 366.372104 
L 139.87141 367.118644 
L 142.243845 367.505674 
L 143.298261 367.312738 
L 146.461508 366.633408 
L 148.570339 366.457854 
L 151.206378 366.488271 
L 157.005663 366.83938 
L 157.401069 367.053463 
L 157.928277 367.156594 
L 158.19188 367.666454 
L 158.719088 369.269036 
L 159.378098 366.001587 
L 159.641702 363.458081 
L 160.037108 362.06089 
L 160.300712 360.183679 
L 160.432514 359.999434 
L 160.564315 360.041439 
L 160.827919 359.35168 
L 161.091523 358.959435 
L 161.355127 358.76563 
L 161.486929 358.595001 
L 162.804948 363.186348 
L 162.93675 363.148109 
L 163.200354 362.865948 
L 163.727562 362.914906 
L 164.122968 363.046427 
L 164.91378 363.190984 
L 167.286215 363.230382 
L 169.65865 363.235596 
L 178.093974 363.234438 
L 189.428941 363.143184 
L 190.351555 362.910561 
L 191.933178 362.784544 
L 196.80985 362.71299 
L 221.325011 362.63709 
L 221.588615 362.880432 
L 222.511229 362.820466 
L 223.565644 363.16607 
L 224.488258 363.41115 
L 225.410871 363.347997 
L 228.178712 363.35524 
L 232.528176 363.332644 
L 326.239358 361.991654 
L 326.502961 361.856946 
L 327.030169 361.845938 
L 327.952783 361.774963 
L 333.22486 361.664011 
L 339.024146 361.649526 
L 339.28775 361.805381 
L 339.683156 362.094495 
L 340.737571 362.566405 
L 341.264779 363.438382 
L 342.055591 364.111049 
L 342.7146 364.374091 
L 343.505412 364.430291 
L 344.428026 364.241121 
L 345.746045 363.695629 
L 350.622717 361.425593 
L 352.599746 360.839544 
L 353.126954 360.781605 
L 353.785964 361.763665 
L 354.444973 362.668667 
L 354.972181 363.088142 
L 355.894795 363.321925 
L 356.817408 363.294983 
L 361.562278 362.799608 
L 362.880298 363.021803 
L 364.857327 363.067285 
L 370.52481 363.174761 
L 378.169323 363.282816 
L 408.220166 363.304254 
L 463.708784 363.224588 
L 464.631397 362.700823 
L 465.554011 362.466461 
L 467.267436 362.310316 
L 476.098166 361.916334 
L 484.006283 361.868824 
L 498.109091 361.867086 
L 498.109091 361.867086 
" style="fill:none;stroke:#ff0000;stroke-linecap:square;stroke-width:1.5;"/>
   </g>
   <g id="line2d_37">
    <path clip-path="url(#p79258dedcd)" d="M 92.290909 79.666812 
L 92.422711 369.36 
L 92.554513 365.911203 
L 92.686315 366.382533 
L 93.213523 348.649255 
L 93.608929 341.50571 
L 94.004334 337.310374 
L 94.531542 334.223693 
L 95.05875 332.626324 
L 95.585958 331.768543 
L 96.244967 331.200165 
L 97.035779 330.847898 
L 98.4856 330.507798 
L 104.680292 329.488947 
L 111.006785 328.431857 
L 111.929399 350.951446 
L 112.324804 358.677564 
L 112.456606 359.338933 
L 112.72021 359.280415 
L 115.092645 359.767679 
L 120.364723 361.417192 
L 122.737158 361.962974 
L 123.132564 361.764534 
L 123.659771 361.175588 
L 124.582385 359.760147 
L 127.350226 355.278014 
L 128.404641 354.077236 
L 129.459057 352.976691 
L 130.777076 351.215647 
L 132.490502 348.48384 
L 136.576362 341.813944 
L 138.421589 339.264354 
L 140.135014 337.251276 
L 141.84844 335.573663 
L 143.298261 334.435748 
L 145.011686 333.353454 
L 146.59331 332.616185 
L 148.043131 332.184832 
L 149.624754 331.96003 
L 151.469981 331.944966 
L 154.237822 332.184832 
L 156.742059 332.444397 
L 156.873861 332.203372 
L 157.137465 330.628021 
L 157.532871 325.705264 
L 158.19188 312.512347 
L 159.5099 282.742896 
L 159.641702 283.045915 
L 159.773504 282.130484 
L 160.16891 276.009267 
L 160.300712 276.542013 
L 160.432514 276.393111 
L 160.827919 273.3719 
L 160.959721 273.360023 
L 161.091523 273.063667 
L 161.486929 271.399669 
L 161.618731 271.245842 
L 161.882335 272.378253 
L 162.145939 272.908681 
L 162.277741 272.977628 
L 162.673147 273.851343 
L 162.804948 273.773415 
L 162.93675 274.182172 
L 163.59576 277.662836 
L 164.122968 279.019469 
L 164.386572 279.228628 
L 164.650176 279.55685 
L 165.968195 279.836694 
L 168.34063 279.824237 
L 170.185857 279.825396 
L 175.326133 279.800772 
L 189.033535 279.728348 
L 189.428941 279.475736 
L 190.219753 279.41519 
L 203.927155 279.636516 
L 221.588615 279.667513 
L 221.852219 279.402154 
L 222.379427 278.276406 
L 223.433842 275.991596 
L 224.62006 274.161314 
L 225.015465 273.791376 
L 225.410871 273.549772 
L 226.597089 273.040491 
L 231.341959 272.630576 
L 243.731341 272.740659 
L 289.334814 273.452725 
L 326.107556 274.237793 
L 326.239358 273.824401 
L 326.634763 273.917972 
L 327.030169 273.717794 
L 327.293773 273.767621 
L 327.820981 273.68419 
L 329.534406 273.596413 
L 333.88387 273.619298 
L 338.62874 273.713449 
L 339.024146 274.897425 
L 339.419552 276.477411 
L 339.94676 277.90444 
L 340.342165 278.997163 
L 340.473967 278.65069 
L 340.605769 278.736439 
L 341.001175 280.566141 
L 341.264779 280.893205 
L 341.791987 281.763733 
L 342.582798 282.527364 
L 343.241808 282.882817 
L 344.03262 283.056633 
L 344.955233 282.998405 
L 346.009649 282.696545 
L 347.723074 281.931755 
L 351.281727 280.292381 
L 352.86335 279.734722 
L 352.995152 280.0951 
L 353.258756 281.17102 
L 353.654162 280.578598 
L 353.917766 280.918118 
L 354.444973 280.57657 
L 354.708577 280.464169 
L 355.103983 280.173027 
L 355.499389 279.904771 
L 356.685606 279.204873 
L 358.003626 278.504105 
L 359.585249 277.836362 
L 360.903268 277.495973 
L 361.166872 277.547828 
L 361.430476 277.769443 
L 361.825882 278.188919 
L 362.748496 278.809731 
L 363.934713 279.461541 
L 364.989129 279.799033 
L 366.175346 279.918677 
L 367.625168 279.815546 
L 374.610671 279.013386 
L 379.619144 278.880416 
L 392.535735 278.82016 
L 463.44518 278.807703 
L 463.708784 278.39547 
L 464.10419 278.307114 
L 464.895001 278.498311 
L 466.344823 279.102321 
L 468.321852 280.18954 
L 470.826089 281.541248 
L 472.539514 282.195376 
L 474.252939 282.602105 
L 476.36177 282.858773 
L 479.656819 283.001592 
L 488.092143 283.05953 
L 498.109091 283.054895 
L 498.109091 283.054895 
" style="fill:none;stroke:#008000;stroke-linecap:square;stroke-width:1.5;"/>
   </g>
   <g id="line2d_38">
    <path clip-path="url(#p79258dedcd)" d="M 92.290909 79.666812 
L 92.422711 224.513406 
L 92.818117 208.475412 
L 93.213523 200.95208 
L 93.608929 197.179405 
L 94.004334 195.247442 
L 94.39974 194.221638 
L 94.926948 193.513918 
L 95.585958 193.085751 
L 96.508571 192.79403 
L 98.4856 192.460883 
L 111.006785 190.710557 
L 111.270389 191.862087 
L 112.588408 200.369507 
L 113.37922 209.366798 
L 113.774626 211.374951 
L 114.170032 212.401913 
L 114.565437 212.80198 
L 114.960843 212.795896 
L 115.356249 212.526771 
L 116.015259 211.737067 
L 117.333278 209.654753 
L 119.837515 205.715795 
L 121.682742 203.25572 
L 123.132564 201.62243 
L 124.055177 201.160949 
L 125.900404 200.15861 
L 127.877434 199.160907 
L 129.063651 198.763158 
L 129.590859 198.840216 
L 130.381671 198.641487 
L 132.095096 197.929711 
L 138.685193 194.999754 
L 141.321232 194.157326 
L 144.352676 193.436859 
L 146.988715 192.997105 
L 149.492952 192.808225 
L 152.788001 192.816336 
L 156.742059 192.952202 
L 156.873861 191.105119 
L 157.269267 172.969166 
L 159.114494 73.416682 
L 159.246296 86.073667 
L 159.378098 85.243696 
L 159.5099 87.401331 
L 159.773504 83.338094 
L 159.905306 83.480333 
L 160.16891 85.455751 
L 160.564315 82.207132 
L 160.827919 83.094462 
L 161.223325 81.523166 
L 161.355127 81.653528 
L 161.486929 81.543445 
L 162.145939 79.567158 
L 162.277741 79.667971 
L 162.409543 79.568317 
L 162.673147 78.93244 
L 162.804948 78.904919 
L 163.200354 79.050345 
L 163.332156 78.917955 
L 163.463958 78.945476 
L 163.727562 79.260083 
L 164.122968 79.179548 
L 164.386572 79.396239 
L 164.91378 79.382623 
L 165.177383 79.427236 
L 165.440987 79.362055 
L 165.836393 79.440852 
L 166.231799 79.419414 
L 166.627205 79.411882 
L 167.549818 79.424049 
L 168.472432 79.436796 
L 169.790451 79.434768 
L 172.42649 79.434189 
L 183.497853 79.446645 
L 189.165337 79.459682 
L 189.428941 79.588016 
L 192.987593 79.723302 
L 199.841294 79.839759 
L 221.852219 80.059347 
L 222.511229 80.262421 
L 223.697446 80.307903 
L 224.356456 80.353965 
L 224.62006 80.452171 
L 225.015465 80.3867 
L 225.279069 80.444928 
L 225.674475 80.393942 
L 226.069881 80.416828 
L 226.597089 80.44348 
L 227.519702 80.427547 
L 232.396374 80.488382 
L 256.120724 80.690298 
L 317.145023 81.337763 
L 326.239358 81.447846 
L 326.371159 81.866163 
L 326.634763 81.517662 
L 326.898367 81.621372 
L 327.161971 81.613261 
L 327.425575 81.564013 
L 327.820981 81.613261 
L 328.216387 81.613551 
L 329.534406 81.629484 
L 334.938286 81.709729 
L 338.62874 81.763901 
L 339.155948 88.598633 
L 339.814958 93.298036 
L 340.210363 94.999983 
L 340.473967 95.645709 
L 340.737571 97.223958 
L 340.869373 97.285662 
L 341.001175 97.141974 
L 341.132977 97.208314 
L 341.528383 97.749461 
L 342.187393 97.94906 
L 342.582798 97.793784 
L 343.110006 97.304203 
L 343.769016 96.337496 
L 344.823431 94.284151 
L 348.645688 86.333522 
L 349.963707 84.249469 
L 351.281727 82.594452 
L 352.599746 81.324147 
L 352.995152 81.021128 
L 353.126954 80.52836 
L 353.390558 78.629711 
L 353.654162 79.147682 
L 353.785964 79.065989 
L 354.049567 78.806134 
L 354.313171 79.132908 
L 354.840379 79.165353 
L 355.103983 79.273699 
L 355.367587 79.27196 
L 355.894795 79.422891 
L 358.003626 79.901174 
L 359.980655 80.225051 
L 361.03507 80.296026 
L 361.562278 82.380368 
L 362.35309 84.100567 
L 363.0121 84.876365 
L 363.539307 85.124632 
L 364.066515 85.119128 
L 364.725525 84.863039 
L 365.77994 84.142862 
L 368.152375 82.433093 
L 369.470395 81.7836 
L 370.920216 81.324437 
L 372.765443 80.998242 
L 375.533284 80.765619 
L 380.937164 80.577318 
L 390.690508 80.494755 
L 446.047324 80.484037 
L 463.576982 80.493017 
L 464.499596 82.231756 
L 465.817615 84.783373 
L 468.717258 90.71658 
L 469.771673 92.294538 
L 470.826089 93.453601 
L 471.880504 94.245043 
L 472.93492 94.752006 
L 474.252939 95.114702 
L 475.966365 95.336896 
L 479.129611 95.488695 
L 485.719708 95.567492 
L 498.109091 95.545186 
L 498.109091 95.545186 
" style="fill:none;stroke:#0000ff;stroke-linecap:square;stroke-width:1.5;"/>
   </g>
   <g id="line2d_39">
    <path clip-path="url(#p79258dedcd)" d="M 92.290909 79.666812 
L 92.422711 369.36 
L 92.818117 352.841984 
L 93.213523 345.334875 
L 93.608929 342.278322 
L 94.004334 341.107672 
L 94.39974 340.677477 
L 94.926948 340.492074 
L 96.903977 340.282046 
L 104.416688 339.313892 
L 111.006785 338.44655 
L 111.270389 339.592866 
L 111.929399 343.03558 
L 112.588408 345.1318 
L 113.511022 354.258874 
L 113.906428 355.931852 
L 114.301834 356.746179 
L 114.565437 356.955917 
L 114.829041 356.973299 
L 115.224447 356.738937 
L 115.751655 356.110882 
L 116.674269 354.586806 
L 120.232921 348.364197 
L 121.946346 345.893403 
L 123.132564 344.429584 
L 123.791573 344.081083 
L 127.745632 342.630589 
L 129.063651 342.351325 
L 129.722661 342.541653 
L 130.513472 342.467492 
L 132.490502 341.961977 
L 137.894381 340.553489 
L 141.453034 339.90052 
L 147.779527 339.063017 
L 150.67917 338.990304 
L 156.083049 339.134572 
L 157.137465 339.120087 
L 157.401069 338.713068 
L 157.796475 337.418139 
L 159.246296 331.718716 
L 159.378098 332.795216 
L 159.641702 336.53052 
L 159.773504 335.068148 
L 160.16891 344.161328 
L 160.300712 345.864724 
L 160.432514 346.098796 
L 160.564315 345.83952 
L 160.696117 346.291152 
L 160.959721 347.840142 
L 161.223325 347.593902 
L 161.618731 348.182559 
L 161.750533 348.04032 
L 162.673147 341.706468 
L 163.068552 339.552309 
L 163.991166 336.606419 
L 164.25477 336.115389 
L 164.650176 335.835256 
L 164.91378 335.626387 
L 165.309185 335.571345 
L 165.572789 335.474298 
L 165.968195 335.486755 
L 166.363601 335.454309 
L 167.154413 335.456337 
L 169.65865 335.43461 
L 172.558292 335.43519 
L 184.684071 335.439245 
L 189.165337 335.451412 
L 189.956149 336.156815 
L 190.74696 336.480692 
L 192.06498 336.707812 
L 194.964623 336.903065 
L 200.89571 337.054864 
L 218.688972 337.218251 
L 221.456813 337.239978 
L 222.64303 332.638202 
L 223.30204 331.001435 
L 223.96105 329.86381 
L 224.356456 329.432457 
L 225.279069 329.461716 
L 226.860693 329.234307 
L 227.783306 329.148558 
L 242.413322 329.515309 
L 273.782184 330.867307 
L 318.594845 333.144586 
L 326.107556 333.554791 
L 326.239358 331.786504 
L 326.502961 332.29955 
L 326.898367 332.250592 
L 327.161971 332.395729 
L 327.557377 332.366759 
L 327.952783 332.42267 
L 328.743594 332.446715 
L 338.760542 332.883862 
L 339.155948 331.966983 
L 339.551354 330.625703 
L 340.210363 329.913348 
L 340.473967 329.721571 
L 340.605769 330.144233 
L 340.737571 330.070361 
L 341.132977 328.025997 
L 342.055591 326.640104 
L 342.450996 326.491202 
L 342.846402 326.562756 
L 343.37361 326.907202 
L 344.03262 327.631145 
L 345.087035 329.190853 
L 348.77749 334.988193 
L 350.095509 336.553695 
L 351.413529 337.787498 
L 352.731548 338.726973 
L 352.995152 338.892967 
L 353.126954 338.672511 
L 353.52236 337.105271 
L 353.785964 336.551088 
L 354.313171 334.80221 
L 355.235785 333.43312 
L 355.631191 333.180218 
L 356.817408 332.967583 
L 359.980655 332.958313 
L 361.166872 332.802168 
L 361.825882 332.104008 
L 362.35309 331.794326 
L 362.880298 331.692643 
L 363.671109 331.791718 
L 367.493366 332.635884 
L 369.470395 332.641968 
L 379.619144 332.327071 
L 400.971059 332.296943 
L 463.576982 332.305344 
L 464.10419 333.20629 
L 464.631397 333.600563 
L 465.158605 333.710936 
L 465.949417 333.629822 
L 469.112663 333.082012 
L 470.694287 333.136184 
L 479.261413 333.804217 
L 489.014757 333.843905 
L 498.109091 333.844774 
L 498.109091 333.844774 
" style="fill:none;stroke:#000000;stroke-linecap:square;stroke-width:1.5;"/>
   </g>
   <g id="line2d_40">
    <path clip-path="url(#p79258dedcd)" d="M 92.290909 79.666812 
L 92.422711 369.36 
L 92.686315 360.906463 
L 93.213523 344.100202 
L 93.74073 335.439825 
L 94.267938 331.020845 
L 94.795146 328.720681 
L 95.322354 327.490354 
L 95.849562 326.807837 
L 96.508571 326.335927 
L 97.431185 325.982501 
L 99.276412 325.578958 
L 110.743181 323.414371 
L 110.874983 324.156565 
L 111.533993 345.751454 
L 112.456606 368.370118 
L 112.588408 367.691078 
L 112.852012 365.921342 
L 113.247418 364.897276 
L 113.642824 364.351205 
L 114.03823 364.118871 
L 114.565437 364.112208 
L 115.224447 364.380464 
L 116.410665 365.184942 
L 119.969317 367.734532 
L 122.20995 369.021349 
L 122.86896 369.353047 
L 123.132564 369.198931 
L 123.659771 368.501639 
L 124.582385 366.779992 
L 127.350226 361.336078 
L 128.272839 360.037094 
L 129.854463 358.021119 
L 131.172482 355.756877 
L 133.149511 351.825161 
L 136.312758 345.589225 
L 138.157985 342.446344 
L 139.87141 339.954403 
L 141.584836 337.871509 
L 143.298261 336.159423 
L 144.879884 334.866522 
L 146.329706 333.967894 
L 147.647725 333.416897 
L 148.965744 333.107215 
L 150.415566 332.997711 
L 152.260793 333.099973 
L 156.873861 333.707459 
L 157.005663 333.469332 
L 157.269267 331.617613 
L 157.664673 326.076072 
L 158.455484 311.558387 
L 159.773504 285.944005 
L 160.037108 282.583564 
L 160.300712 279.286277 
L 160.564315 278.365921 
L 160.959721 275.378605 
L 161.355127 273.601048 
L 161.618731 272.299167 
L 161.750533 272.141284 
L 162.277741 272.879132 
L 162.409543 272.85277 
L 162.804948 273.105093 
L 163.200354 275.202472 
L 163.59576 277.256107 
L 164.122968 278.654745 
L 164.650176 279.196761 
L 164.91378 279.35899 
L 167.549818 279.602621 
L 169.263244 279.592193 
L 173.217302 279.577708 
L 189.165337 279.51861 
L 189.560743 279.376661 
L 190.351555 279.368549 
L 196.546246 279.723424 
L 204.98157 279.836114 
L 221.852219 279.852627 
L 222.247625 279.162288 
L 223.697446 276.19525 
L 224.751862 274.766773 
L 225.938079 274.007198 
L 227.256098 273.665939 
L 229.101326 273.489516 
L 231.341959 273.443165 
L 242.28152 273.626251 
L 271.936957 274.323253 
L 306.996274 275.358906 
L 326.239358 276.023752 
L 326.502961 275.759552 
L 326.898367 275.717546 
L 327.293773 275.664822 
L 328.875396 275.5727 
L 330.984227 275.573279 
L 338.760542 275.81749 
L 339.024146 276.266804 
L 339.814958 278.192974 
L 340.473967 279.530778 
L 340.605769 279.434889 
L 340.737571 279.55685 
L 341.132977 280.940135 
L 342.450996 282.358762 
L 343.241808 282.702339 
L 344.03262 282.808946 
L 344.955233 282.713057 
L 346.141451 282.355866 
L 348.250282 281.430006 
L 351.149925 280.196493 
L 352.995152 279.602621 
L 353.126954 279.767747 
L 353.390558 280.268047 
L 353.785964 279.95373 
L 354.049567 280.13247 
L 355.367587 279.689819 
L 357.081012 279.043514 
L 359.848853 278.308562 
L 361.166872 278.090713 
L 361.562278 278.283359 
L 362.089486 278.617085 
L 364.198317 279.525273 
L 365.384535 279.769774 
L 366.702554 279.804538 
L 368.679583 279.595379 
L 373.029047 279.096817 
L 376.851304 278.926767 
L 385.154826 278.834935 
L 414.546659 278.816394 
L 463.576982 278.811759 
L 463.840586 278.583191 
L 464.235992 278.553353 
L 465.026803 278.796695 
L 466.87203 279.655056 
L 471.353297 281.866574 
L 473.066722 282.38947 
L 474.911949 282.723197 
L 477.416186 282.931776 
L 481.76565 283.035775 
L 496.527468 283.055475 
L 498.109091 283.054895 
L 498.109091 283.054895 
" style="fill:none;stroke:#bfbf00;stroke-linecap:square;stroke-width:1.5;"/>
   </g>
   <g id="patch_3">
    <path d="M 72 384.48 
L 72 51.84 
" style="fill:none;stroke:#000000;stroke-linecap:square;stroke-linejoin:miter;stroke-width:0.8;"/>
   </g>
   <g id="patch_4">
    <path d="M 518.4 384.48 
L 518.4 51.84 
" style="fill:none;stroke:#000000;stroke-linecap:square;stroke-linejoin:miter;stroke-width:0.8;"/>
   </g>
   <g id="patch_5">
    <path d="M 72 384.48 
L 518.4 384.48 
" style="fill:none;stroke:#000000;stroke-linecap:square;stroke-linejoin:miter;stroke-width:0.8;"/>
   </g>
   <g id="patch_6">
    <path d="M 72 51.84 
L 518.4 51.84 
" style="fill:none;stroke:#000000;stroke-linecap:square;stroke-linejoin:miter;stroke-width:0.8;"/>
   </g>
   <g id="legend_1">
    <g id="patch_7">
     <path d="M 79 269.316961 
L 148.483597 269.316961 
Q 150.483597 269.316961 150.483597 267.316961 
L 150.483597 58.84 
Q 150.483597 56.84 148.483597 56.84 
L 79 56.84 
Q 77 56.84 77 58.84 
L 77 267.316961 
Q 77 269.316961 79 269.316961 
z
" style="fill:#ffffff;opacity:0.8;stroke:#cccccc;stroke-linejoin:miter;"/>
    </g>
    <g id="line2d_41">
     <path d="M 81 65.365462 
L 101 65.365462 
" style="fill:none;stroke:#bf00bf;stroke-linecap:square;stroke-width:1.5;"/>
    </g>
    <g id="line2d_42"/>
    <g id="text_16">
     <!-- $\partial \mathcal{L}/ \partial \mu_{12}$ -->
     <g transform="translate(109 68.865462)scale(0.1 -0.1)">
      <use transform="translate(0 14.943915)scale(0.996264)" xlink:href="#CMMI12-64"/>
      <use transform="translate(56.915564 14.943915)scale(0.996264)" xlink:href="#CMSY10-76"/>
      <use transform="translate(125.630372 14.943915)scale(0.996264)" xlink:href="#CMMI12-61"/>
      <use transform="translate(174.405291 14.943915)scale(0.996264)" xlink:href="#CMMI12-64"/>
      <use transform="translate(231.320856 14.943915)scale(0.996264)" xlink:href="#CMMI12-22"/>
      <use transform="translate(290.012277 0)scale(0.697382)" xlink:href="#CMR17-49"/>
      <use transform="translate(321.995459 0)scale(0.697382)" xlink:href="#CMR17-50"/>
     </g>
    </g>
    <g id="line2d_43">
     <path d="M 81 80.328102 
L 101 80.328102 
" style="fill:none;stroke:#00bfbf;stroke-linecap:square;stroke-width:1.5;"/>
    </g>
    <g id="line2d_44"/>
    <g id="text_17">
     <!-- $\partial \mathcal{L}/ \partial \mu_{16}$ -->
     <g transform="translate(109 83.828102)scale(0.1 -0.1)">
      <use transform="translate(0 14.943915)scale(0.996264)" xlink:href="#CMMI12-64"/>
      <use transform="translate(56.915564 14.943915)scale(0.996264)" xlink:href="#CMSY10-76"/>
      <use transform="translate(125.630372 14.943915)scale(0.996264)" xlink:href="#CMMI12-61"/>
      <use transform="translate(174.405291 14.943915)scale(0.996264)" xlink:href="#CMMI12-64"/>
      <use transform="translate(231.320856 14.943915)scale(0.996264)" xlink:href="#CMMI12-22"/>
      <use transform="translate(290.012277 0)scale(0.697382)" xlink:href="#CMR17-49"/>
      <use transform="translate(321.995459 0)scale(0.697382)" xlink:href="#CMR17-54"/>
     </g>
    </g>
    <g id="line2d_45">
     <path d="M 81 95.290742 
L 101 95.290742 
" style="fill:none;stroke:#ff0000;stroke-linecap:square;stroke-width:1.5;"/>
    </g>
    <g id="line2d_46"/>
    <g id="text_18">
     <!-- $\partial \mathcal{L}/ \partial \mu_{21}$ -->
     <g transform="translate(109 98.790742)scale(0.1 -0.1)">
      <use transform="translate(0 14.943915)scale(0.996264)" xlink:href="#CMMI12-64"/>
      <use transform="translate(56.915564 14.943915)scale(0.996264)" xlink:href="#CMSY10-76"/>
      <use transform="translate(125.630372 14.943915)scale(0.996264)" xlink:href="#CMMI12-61"/>
      <use transform="translate(174.405291 14.943915)scale(0.996264)" xlink:href="#CMMI12-64"/>
      <use transform="translate(231.320856 14.943915)scale(0.996264)" xlink:href="#CMMI12-22"/>
      <use transform="translate(290.012277 0)scale(0.697382)" xlink:href="#CMR17-50"/>
      <use transform="translate(321.995459 0)scale(0.697382)" xlink:href="#CMR17-49"/>
     </g>
    </g>
    <g id="line2d_47">
     <path d="M 81 110.253382 
L 101 110.253382 
" style="fill:none;stroke:#008000;stroke-linecap:square;stroke-width:1.5;"/>
    </g>
    <g id="line2d_48"/>
    <g id="text_19">
     <!-- $\partial \mathcal{L}/ \partial \mu_{23}$ -->
     <g transform="translate(109 113.753382)scale(0.1 -0.1)">
      <use transform="translate(0 14.943915)scale(0.996264)" xlink:href="#CMMI12-64"/>
      <use transform="translate(56.915564 14.943915)scale(0.996264)" xlink:href="#CMSY10-76"/>
      <use transform="translate(125.630372 14.943915)scale(0.996264)" xlink:href="#CMMI12-61"/>
      <use transform="translate(174.405291 14.943915)scale(0.996264)" xlink:href="#CMMI12-64"/>
      <use transform="translate(231.320856 14.943915)scale(0.996264)" xlink:href="#CMMI12-22"/>
      <use transform="translate(290.012277 0)scale(0.697382)" xlink:href="#CMR17-50"/>
      <use transform="translate(321.995459 0)scale(0.697382)" xlink:href="#CMR17-51"/>
     </g>
    </g>
    <g id="line2d_49">
     <path d="M 81 125.216022 
L 101 125.216022 
" style="fill:none;stroke:#0000ff;stroke-linecap:square;stroke-width:1.5;"/>
    </g>
    <g id="line2d_50"/>
    <g id="text_20">
     <!-- $\partial \mathcal{L}/ \partial \mu_{26}$ -->
     <g transform="translate(109 128.716022)scale(0.1 -0.1)">
      <use transform="translate(0 14.943915)scale(0.996264)" xlink:href="#CMMI12-64"/>
      <use transform="translate(56.915564 14.943915)scale(0.996264)" xlink:href="#CMSY10-76"/>
      <use transform="translate(125.630372 14.943915)scale(0.996264)" xlink:href="#CMMI12-61"/>
      <use transform="translate(174.405291 14.943915)scale(0.996264)" xlink:href="#CMMI12-64"/>
      <use transform="translate(231.320856 14.943915)scale(0.996264)" xlink:href="#CMMI12-22"/>
      <use transform="translate(290.012277 0)scale(0.697382)" xlink:href="#CMR17-50"/>
      <use transform="translate(321.995459 0)scale(0.697382)" xlink:href="#CMR17-54"/>
     </g>
    </g>
    <g id="line2d_51">
     <path d="M 81 140.178662 
L 101 140.178662 
" style="fill:none;stroke:#000000;stroke-linecap:square;stroke-width:1.5;"/>
    </g>
    <g id="line2d_52"/>
    <g id="text_21">
     <!-- $\partial \mathcal{L}/ \partial \mu_{32}$ -->
     <g transform="translate(109 143.678662)scale(0.1 -0.1)">
      <use transform="translate(0 14.943915)scale(0.996264)" xlink:href="#CMMI12-64"/>
      <use transform="translate(56.915564 14.943915)scale(0.996264)" xlink:href="#CMSY10-76"/>
      <use transform="translate(125.630372 14.943915)scale(0.996264)" xlink:href="#CMMI12-61"/>
      <use transform="translate(174.405291 14.943915)scale(0.996264)" xlink:href="#CMMI12-64"/>
      <use transform="translate(231.320856 14.943915)scale(0.996264)" xlink:href="#CMMI12-22"/>
      <use transform="translate(290.012277 0)scale(0.697382)" xlink:href="#CMR17-51"/>
      <use transform="translate(321.995459 0)scale(0.697382)" xlink:href="#CMR17-50"/>
     </g>
    </g>
    <g id="line2d_53">
     <path d="M 81 155.141302 
L 101 155.141302 
" style="fill:none;stroke:#bfbf00;stroke-linecap:square;stroke-width:1.5;"/>
    </g>
    <g id="line2d_54"/>
    <g id="text_22">
     <!-- $\partial \mathcal{L}/ \partial \mu_{34}$ -->
     <g transform="translate(109 158.641302)scale(0.1 -0.1)">
      <use transform="translate(0 14.943915)scale(0.996264)" xlink:href="#CMMI12-64"/>
      <use transform="translate(56.915564 14.943915)scale(0.996264)" xlink:href="#CMSY10-76"/>
      <use transform="translate(125.630372 14.943915)scale(0.996264)" xlink:href="#CMMI12-61"/>
      <use transform="translate(174.405291 14.943915)scale(0.996264)" xlink:href="#CMMI12-64"/>
      <use transform="translate(231.320856 14.943915)scale(0.996264)" xlink:href="#CMMI12-22"/>
      <use transform="translate(290.012277 0)scale(0.697382)" xlink:href="#CMR17-51"/>
      <use transform="translate(321.995459 0)scale(0.697382)" xlink:href="#CMR17-52"/>
     </g>
    </g>
    <g id="line2d_55">
     <path d="M 81 170.103942 
L 101 170.103942 
" style="fill:none;stroke:#bf00bf;stroke-linecap:square;stroke-width:1.5;"/>
    </g>
    <g id="line2d_56"/>
    <g id="text_23">
     <!-- $\partial \mathcal{L}/ \partial \mu_{43}$ -->
     <g transform="translate(109 173.603942)scale(0.1 -0.1)">
      <use transform="translate(0 14.943915)scale(0.996264)" xlink:href="#CMMI12-64"/>
      <use transform="translate(56.915564 14.943915)scale(0.996264)" xlink:href="#CMSY10-76"/>
      <use transform="translate(125.630372 14.943915)scale(0.996264)" xlink:href="#CMMI12-61"/>
      <use transform="translate(174.405291 14.943915)scale(0.996264)" xlink:href="#CMMI12-64"/>
      <use transform="translate(231.320856 14.943915)scale(0.996264)" xlink:href="#CMMI12-22"/>
      <use transform="translate(290.012277 0)scale(0.697382)" xlink:href="#CMR17-52"/>
      <use transform="translate(321.995459 0)scale(0.697382)" xlink:href="#CMR17-51"/>
     </g>
    </g>
    <g id="line2d_57">
     <path d="M 81 185.066583 
L 101 185.066583 
" style="fill:none;stroke:#00bfbf;stroke-linecap:square;stroke-width:1.5;"/>
    </g>
    <g id="line2d_58"/>
    <g id="text_24">
     <!-- $\partial \mathcal{L}/ \partial \mu_{45}$ -->
     <g transform="translate(109 188.566583)scale(0.1 -0.1)">
      <use transform="translate(0 14.943915)scale(0.996264)" xlink:href="#CMMI12-64"/>
      <use transform="translate(56.915564 14.943915)scale(0.996264)" xlink:href="#CMSY10-76"/>
      <use transform="translate(125.630372 14.943915)scale(0.996264)" xlink:href="#CMMI12-61"/>
      <use transform="translate(174.405291 14.943915)scale(0.996264)" xlink:href="#CMMI12-64"/>
      <use transform="translate(231.320856 14.943915)scale(0.996264)" xlink:href="#CMMI12-22"/>
      <use transform="translate(290.012277 0)scale(0.697382)" xlink:href="#CMR17-52"/>
      <use transform="translate(321.995459 0)scale(0.697382)" xlink:href="#CMR17-53"/>
     </g>
    </g>
    <g id="line2d_59">
     <path d="M 81 200.029223 
L 101 200.029223 
" style="fill:none;stroke:#ff0000;stroke-linecap:square;stroke-width:1.5;"/>
    </g>
    <g id="line2d_60"/>
    <g id="text_25">
     <!-- $\partial \mathcal{L}/ \partial \mu_{54}$ -->
     <g transform="translate(109 203.529223)scale(0.1 -0.1)">
      <use transform="translate(0 14.943915)scale(0.996264)" xlink:href="#CMMI12-64"/>
      <use transform="translate(56.915564 14.943915)scale(0.996264)" xlink:href="#CMSY10-76"/>
      <use transform="translate(125.630372 14.943915)scale(0.996264)" xlink:href="#CMMI12-61"/>
      <use transform="translate(174.405291 14.943915)scale(0.996264)" xlink:href="#CMMI12-64"/>
      <use transform="translate(231.320856 14.943915)scale(0.996264)" xlink:href="#CMMI12-22"/>
      <use transform="translate(290.012277 0)scale(0.697382)" xlink:href="#CMR17-53"/>
      <use transform="translate(321.995459 0)scale(0.697382)" xlink:href="#CMR17-52"/>
     </g>
    </g>
    <g id="line2d_61">
     <path d="M 81 214.991863 
L 101 214.991863 
" style="fill:none;stroke:#008000;stroke-linecap:square;stroke-width:1.5;"/>
    </g>
    <g id="line2d_62"/>
    <g id="text_26">
     <!-- $\partial \mathcal{L}/ \partial \mu_{56}$ -->
     <g transform="translate(109 218.491863)scale(0.1 -0.1)">
      <use transform="translate(0 14.943915)scale(0.996264)" xlink:href="#CMMI12-64"/>
      <use transform="translate(56.915564 14.943915)scale(0.996264)" xlink:href="#CMSY10-76"/>
      <use transform="translate(125.630372 14.943915)scale(0.996264)" xlink:href="#CMMI12-61"/>
      <use transform="translate(174.405291 14.943915)scale(0.996264)" xlink:href="#CMMI12-64"/>
      <use transform="translate(231.320856 14.943915)scale(0.996264)" xlink:href="#CMMI12-22"/>
      <use transform="translate(290.012277 0)scale(0.697382)" xlink:href="#CMR17-53"/>
      <use transform="translate(321.995459 0)scale(0.697382)" xlink:href="#CMR17-54"/>
     </g>
    </g>
    <g id="line2d_63">
     <path d="M 81 229.954503 
L 101 229.954503 
" style="fill:none;stroke:#0000ff;stroke-linecap:square;stroke-width:1.5;"/>
    </g>
    <g id="line2d_64"/>
    <g id="text_27">
     <!-- $\partial \mathcal{L}/ \partial \mu_{61}$ -->
     <g transform="translate(109 233.454503)scale(0.1 -0.1)">
      <use transform="translate(0 14.943915)scale(0.996264)" xlink:href="#CMMI12-64"/>
      <use transform="translate(56.915564 14.943915)scale(0.996264)" xlink:href="#CMSY10-76"/>
      <use transform="translate(125.630372 14.943915)scale(0.996264)" xlink:href="#CMMI12-61"/>
      <use transform="translate(174.405291 14.943915)scale(0.996264)" xlink:href="#CMMI12-64"/>
      <use transform="translate(231.320856 14.943915)scale(0.996264)" xlink:href="#CMMI12-22"/>
      <use transform="translate(290.012277 0)scale(0.697382)" xlink:href="#CMR17-54"/>
      <use transform="translate(321.995459 0)scale(0.697382)" xlink:href="#CMR17-49"/>
     </g>
    </g>
    <g id="line2d_65">
     <path d="M 81 244.917143 
L 101 244.917143 
" style="fill:none;stroke:#000000;stroke-linecap:square;stroke-width:1.5;"/>
    </g>
    <g id="line2d_66"/>
    <g id="text_28">
     <!-- $\partial \mathcal{L}/ \partial \mu_{62}$ -->
     <g transform="translate(109 248.417143)scale(0.1 -0.1)">
      <use transform="translate(0 14.943915)scale(0.996264)" xlink:href="#CMMI12-64"/>
      <use transform="translate(56.915564 14.943915)scale(0.996264)" xlink:href="#CMSY10-76"/>
      <use transform="translate(125.630372 14.943915)scale(0.996264)" xlink:href="#CMMI12-61"/>
      <use transform="translate(174.405291 14.943915)scale(0.996264)" xlink:href="#CMMI12-64"/>
      <use transform="translate(231.320856 14.943915)scale(0.996264)" xlink:href="#CMMI12-22"/>
      <use transform="translate(290.012277 0)scale(0.697382)" xlink:href="#CMR17-54"/>
      <use transform="translate(321.995459 0)scale(0.697382)" xlink:href="#CMR17-50"/>
     </g>
    </g>
    <g id="line2d_67">
     <path d="M 81 259.879783 
L 101 259.879783 
" style="fill:none;stroke:#bfbf00;stroke-linecap:square;stroke-width:1.5;"/>
    </g>
    <g id="line2d_68"/>
    <g id="text_29">
     <!-- $\partial \mathcal{L}/ \partial \mu_{65}$ -->
     <g transform="translate(109 263.379783)scale(0.1 -0.1)">
      <use transform="translate(0 14.943915)scale(0.996264)" xlink:href="#CMMI12-64"/>
      <use transform="translate(56.915564 14.943915)scale(0.996264)" xlink:href="#CMSY10-76"/>
      <use transform="translate(125.630372 14.943915)scale(0.996264)" xlink:href="#CMMI12-61"/>
      <use transform="translate(174.405291 14.943915)scale(0.996264)" xlink:href="#CMMI12-64"/>
      <use transform="translate(231.320856 14.943915)scale(0.996264)" xlink:href="#CMMI12-22"/>
      <use transform="translate(290.012277 0)scale(0.697382)" xlink:href="#CMR17-54"/>
      <use transform="translate(321.995459 0)scale(0.697382)" xlink:href="#CMR17-53"/>
     </g>
    </g>
   </g>
  </g>
 </g>
 <defs>
  <clipPath id="p79258dedcd">
   <rect height="332.64" width="446.4" x="72" y="51.84"/>
  </clipPath>
 </defs>
</svg>
