<?xml version="1.0" encoding="utf-8" standalone="no"?>
<!DOCTYPE svg PUBLIC "-//W3C//DTD SVG 1.1//EN"
  "http://www.w3.org/Graphics/SVG/1.1/DTD/svg11.dtd">
<!-- Created with matplotlib (http://matplotlib.org/) -->
<svg height="432pt" version="1.1" viewBox="0 0 576 432" width="576pt" xmlns="http://www.w3.org/2000/svg" xmlns:xlink="http://www.w3.org/1999/xlink">
 <defs>
  <style type="text/css">
*{stroke-linecap:butt;stroke-linejoin:round;}
  </style>
 </defs>
 <g id="figure_1">
  <g id="patch_1">
   <path d="M 0 432 
L 576 432 
L 576 0 
L 0 0 
z
" style="fill:#ffffff;"/>
  </g>
  <g id="axes_1">
   <g id="patch_2">
    <path d="M 72 384.48 
L 518.4 384.48 
L 518.4 51.84 
L 72 51.84 
z
" style="fill:#ffffff;"/>
   </g>
   <g id="matplotlib.axis_1">
    <g id="xtick_1">
     <g id="line2d_1">
      <path clip-path="url(#p3fc423c885)" d="M 92.290909 384.48 
L 92.290909 51.84 
" style="fill:none;stroke:#b0b0b0;stroke-dasharray:5.12,1.28,0.8,1.28;stroke-dashoffset:0;stroke-width:0.8;"/>
     </g>
     <g id="line2d_2">
      <defs>
       <path d="M 0 0 
L 0 3.5 
" id="mcaa9b8dfa7" style="stroke:#000000;stroke-width:0.8;"/>
      </defs>
      <g>
       <use style="stroke:#000000;stroke-width:0.8;" x="92.290909" xlink:href="#mcaa9b8dfa7" y="384.48"/>
      </g>
     </g>
     <g id="text_1">
      <!-- $0$ -->
      <defs>
       <path d="M 42 31.640625 
C 42 37.75 41.90625 48.125 37.703125 56.109375 
C 34 63.109375 28.09375 65.59375 22.90625 65.59375 
C 18.09375 65.59375 12 63.40625 8.203125 56.203125 
C 4.203125 48.71875 3.796875 39.4375 3.796875 31.640625 
C 3.796875 25.953125 3.90625 17.28125 7 9.671875 
C 11.296875 -0.609375 19 -2 22.90625 -2 
C 27.5 -2 34.5 -0.109375 38.59375 9.375 
C 41.59375 16.28125 42 24.359375 42 31.640625 
z
M 22.90625 -0.40625 
C 16.5 -0.40625 12.703125 5.078125 11.296875 12.6875 
C 10.203125 18.5625 10.203125 27.15625 10.203125 32.75 
C 10.203125 40.4375 10.203125 46.828125 11.5 52.921875 
C 13.40625 61.390625 19 64 22.90625 64 
C 27 64 32.296875 61.296875 34.203125 53.125 
C 35.5 47.4375 35.59375 40.734375 35.59375 32.75 
C 35.59375 26.25 35.59375 18.265625 34.40625 12.375 
C 32.296875 1.484375 26.40625 -0.40625 22.90625 -0.40625 
z
" id="CMR17-48"/>
      </defs>
      <g transform="translate(89.800241 398.398498)scale(0.1 -0.1)">
       <use transform="scale(0.996264)" xlink:href="#CMR17-48"/>
      </g>
     </g>
    </g>
    <g id="xtick_2">
     <g id="line2d_3">
      <path clip-path="url(#p3fc423c885)" d="M 158.19188 384.48 
L 158.19188 51.84 
" style="fill:none;stroke:#b0b0b0;stroke-dasharray:5.12,1.28,0.8,1.28;stroke-dashoffset:0;stroke-width:0.8;"/>
     </g>
     <g id="line2d_4">
      <g>
       <use style="stroke:#000000;stroke-width:0.8;" x="158.19188" xlink:href="#mcaa9b8dfa7" y="384.48"/>
      </g>
     </g>
     <g id="text_2">
      <!-- $500$ -->
      <defs>
       <path d="M 11.40625 57.6875 
C 12.40625 57.28125 16.5 56 20.703125 56 
C 30 56 35.09375 61.109375 38 64.0625 
C 38 64.953125 38 65.5 37.40625 65.5 
C 37.296875 65.5 37.09375 65.5 36.296875 65.046875 
C 32.796875 63.40625 28.703125 62.078125 23.703125 62.078125 
C 20.703125 62.078125 16.203125 62.484375 11.296875 64.671875 
C 10.203125 65.171875 10 65.171875 9.90625 65.171875 
C 9.40625 65.171875 9.296875 65.0625 9.296875 63.078125 
L 9.296875 34.421875 
C 9.296875 32.640625 9.296875 32.140625 10.296875 32.140625 
C 10.796875 32.140625 11 32.34375 11.5 33.03125 
C 14.703125 37.515625 19.09375 39.40625 24.09375 39.40625 
C 27.59375 39.40625 35.09375 37.21875 35.09375 20.140625 
C 35.09375 16.953125 35.09375 11.171875 32.09375 6.578125 
C 29.59375 2.484375 25.703125 0.390625 21.40625 0.390625 
C 14.796875 0.390625 8.09375 5 6.296875 12.71875 
C 6.703125 12.609375 7.5 12.421875 7.90625 12.421875 
C 9.203125 12.421875 11.703125 13.125 11.703125 16.21875 
C 11.703125 18.90625 9.796875 20 7.90625 20 
C 5.59375 20 4.09375 18.59375 4.09375 15.796875 
C 4.09375 7.09375 11 -2 21.59375 -2 
C 31.90625 -2 41.703125 6.875 41.703125 19.75 
C 41.703125 31.71875 33.90625 41 24.203125 41 
C 19.09375 41 14.796875 39.109375 11.40625 35.53125 
z
" id="CMR17-53"/>
      </defs>
      <g transform="translate(150.719878 398.398498)scale(0.1 -0.1)">
       <use transform="scale(0.996264)" xlink:href="#CMR17-53"/>
       <use transform="translate(45.690477 0)scale(0.996264)" xlink:href="#CMR17-48"/>
       <use transform="translate(91.380954 0)scale(0.996264)" xlink:href="#CMR17-48"/>
      </g>
     </g>
    </g>
    <g id="xtick_3">
     <g id="line2d_5">
      <path clip-path="url(#p3fc423c885)" d="M 224.092852 384.48 
L 224.092852 51.84 
" style="fill:none;stroke:#b0b0b0;stroke-dasharray:5.12,1.28,0.8,1.28;stroke-dashoffset:0;stroke-width:0.8;"/>
     </g>
     <g id="line2d_6">
      <g>
       <use style="stroke:#000000;stroke-width:0.8;" x="224.092852" xlink:href="#mcaa9b8dfa7" y="384.48"/>
      </g>
     </g>
     <g id="text_3">
      <!-- $1000$ -->
      <defs>
       <path d="M 26.59375 63.40625 
C 26.59375 65.5 26.5 65.5 25.09375 65.5 
C 21.203125 61.1875 15.296875 59.796875 9.703125 59.796875 
C 9.40625 59.796875 8.90625 59.796875 8.796875 59.5 
C 8.703125 59.296875 8.703125 59.09375 8.703125 57 
C 11.796875 57 17 57.59375 21 59.984375 
L 21 7.203125 
C 21 3.6875 20.796875 2.5 12.203125 2.5 
L 9.203125 2.5 
L 9.203125 0 
C 14 0 19 0 23.796875 0 
C 28.59375 0 33.59375 0 38.40625 0 
L 38.40625 2.5 
L 35.40625 2.5 
C 26.796875 2.5 26.59375 3.59375 26.59375 7.15625 
z
" id="CMR17-49"/>
      </defs>
      <g transform="translate(214.130181 398.398498)scale(0.1 -0.1)">
       <use transform="scale(0.996264)" xlink:href="#CMR17-49"/>
       <use transform="translate(45.690477 0)scale(0.996264)" xlink:href="#CMR17-48"/>
       <use transform="translate(91.380954 0)scale(0.996264)" xlink:href="#CMR17-48"/>
       <use transform="translate(137.071431 0)scale(0.996264)" xlink:href="#CMR17-48"/>
      </g>
     </g>
    </g>
    <g id="xtick_4">
     <g id="line2d_7">
      <path clip-path="url(#p3fc423c885)" d="M 289.993823 384.48 
L 289.993823 51.84 
" style="fill:none;stroke:#b0b0b0;stroke-dasharray:5.12,1.28,0.8,1.28;stroke-dashoffset:0;stroke-width:0.8;"/>
     </g>
     <g id="line2d_8">
      <g>
       <use style="stroke:#000000;stroke-width:0.8;" x="289.993823" xlink:href="#mcaa9b8dfa7" y="384.48"/>
      </g>
     </g>
     <g id="text_4">
      <!-- $1500$ -->
      <g transform="translate(280.031153 398.398498)scale(0.1 -0.1)">
       <use transform="scale(0.996264)" xlink:href="#CMR17-49"/>
       <use transform="translate(45.690477 0)scale(0.996264)" xlink:href="#CMR17-53"/>
       <use transform="translate(91.380954 0)scale(0.996264)" xlink:href="#CMR17-48"/>
       <use transform="translate(137.071431 0)scale(0.996264)" xlink:href="#CMR17-48"/>
      </g>
     </g>
    </g>
    <g id="xtick_5">
     <g id="line2d_9">
      <path clip-path="url(#p3fc423c885)" d="M 355.894795 384.48 
L 355.894795 51.84 
" style="fill:none;stroke:#b0b0b0;stroke-dasharray:5.12,1.28,0.8,1.28;stroke-dashoffset:0;stroke-width:0.8;"/>
     </g>
     <g id="line2d_10">
      <g>
       <use style="stroke:#000000;stroke-width:0.8;" x="355.894795" xlink:href="#mcaa9b8dfa7" y="384.48"/>
      </g>
     </g>
     <g id="text_5">
      <!-- $2000$ -->
      <defs>
       <path d="M 41.703125 15.453125 
L 39.90625 15.453125 
C 38.90625 8.375 38.09375 7.171875 37.703125 6.5625 
C 37.203125 5.765625 30 5.765625 28.59375 5.765625 
L 9.40625 5.765625 
C 13 9.671875 20 16.75 28.5 24.953125 
C 34.59375 30.734375 41.703125 37.53125 41.703125 47.421875 
C 41.703125 59.21875 32.296875 66 21.796875 66 
C 10.796875 66 4.09375 56.3125 4.09375 47.34375 
C 4.09375 43.4375 7 42.9375 8.203125 42.9375 
C 9.203125 42.9375 12.203125 43.546875 12.203125 47.03125 
C 12.203125 50.109375 9.59375 51 8.203125 51 
C 7.59375 51 7 50.90625 6.59375 50.703125 
C 8.5 59.21875 14.296875 63.40625 20.40625 63.40625 
C 29.09375 63.40625 34.796875 56.515625 34.796875 47.421875 
C 34.796875 38.734375 29.703125 31.25 24 24.75 
L 4.09375 2.28125 
L 4.09375 0 
L 39.296875 0 
z
" id="CMR17-50"/>
      </defs>
      <g transform="translate(345.932124 398.398498)scale(0.1 -0.1)">
       <use transform="scale(0.996264)" xlink:href="#CMR17-50"/>
       <use transform="translate(45.690477 0)scale(0.996264)" xlink:href="#CMR17-48"/>
       <use transform="translate(91.380954 0)scale(0.996264)" xlink:href="#CMR17-48"/>
       <use transform="translate(137.071431 0)scale(0.996264)" xlink:href="#CMR17-48"/>
      </g>
     </g>
    </g>
    <g id="xtick_6">
     <g id="line2d_11">
      <path clip-path="url(#p3fc423c885)" d="M 421.795766 384.48 
L 421.795766 51.84 
" style="fill:none;stroke:#b0b0b0;stroke-dasharray:5.12,1.28,0.8,1.28;stroke-dashoffset:0;stroke-width:0.8;"/>
     </g>
     <g id="line2d_12">
      <g>
       <use style="stroke:#000000;stroke-width:0.8;" x="421.795766" xlink:href="#mcaa9b8dfa7" y="384.48"/>
      </g>
     </g>
     <g id="text_6">
      <!-- $2500$ -->
      <g transform="translate(411.833096 398.398498)scale(0.1 -0.1)">
       <use transform="scale(0.996264)" xlink:href="#CMR17-50"/>
       <use transform="translate(45.690477 0)scale(0.996264)" xlink:href="#CMR17-53"/>
       <use transform="translate(91.380954 0)scale(0.996264)" xlink:href="#CMR17-48"/>
       <use transform="translate(137.071431 0)scale(0.996264)" xlink:href="#CMR17-48"/>
      </g>
     </g>
    </g>
    <g id="xtick_7">
     <g id="line2d_13">
      <path clip-path="url(#p3fc423c885)" d="M 487.696737 384.48 
L 487.696737 51.84 
" style="fill:none;stroke:#b0b0b0;stroke-dasharray:5.12,1.28,0.8,1.28;stroke-dashoffset:0;stroke-width:0.8;"/>
     </g>
     <g id="line2d_14">
      <g>
       <use style="stroke:#000000;stroke-width:0.8;" x="487.696737" xlink:href="#mcaa9b8dfa7" y="384.48"/>
      </g>
     </g>
     <g id="text_7">
      <!-- $3000$ -->
      <defs>
       <path d="M 22.09375 33.703125 
C 31 33.703125 34.90625 25.96875 34.90625 17.03125 
C 34.90625 5 28.5 0.390625 22.703125 0.390625 
C 17.40625 0.390625 8.796875 3.03125 6.09375 10.828125 
C 6.59375 10.625 7.09375 10.625 7.59375 10.625 
C 10 10.625 11.796875 12.21875 11.796875 14.8125 
C 11.796875 17.703125 9.59375 19 7.59375 19 
C 5.90625 19 3.296875 18.203125 3.296875 14.46875 
C 3.296875 5.234375 12.296875 -2 22.90625 -2 
C 34 -2 42.5 6.71875 42.5 16.953125 
C 42.5 26.671875 34.5 33.703125 25 34.796875 
C 32.59375 36.375 39.90625 43.0625 39.90625 52.015625 
C 39.90625 59.6875 32 65.296875 23 65.296875 
C 13.90625 65.296875 5.90625 59.828125 5.90625 52.015625 
C 5.90625 48.59375 8.5 48 9.796875 48 
C 11.90625 48 13.703125 49.296875 13.703125 51.890625 
C 13.703125 54.46875 11.90625 55.765625 9.796875 55.765625 
C 9.40625 55.765625 8.90625 55.765625 8.5 55.578125 
C 11.40625 61.859375 19.296875 63 22.796875 63 
C 26.296875 63 32.90625 61.328125 32.90625 51.875 
C 32.90625 49.109375 32.5 44.1875 29.09375 39.84375 
C 26.09375 36 22.703125 36 19.40625 35.6875 
C 18.90625 35.6875 16.59375 35.453125 16.203125 35.453125 
C 15.5 35.359375 15.09375 35.265625 15.09375 34.5 
C 15.09375 33.796875 15.203125 33.703125 17.203125 33.703125 
z
" id="CMR17-51"/>
      </defs>
      <g transform="translate(477.734067 398.398498)scale(0.1 -0.1)">
       <use transform="scale(0.996264)" xlink:href="#CMR17-51"/>
       <use transform="translate(45.690477 0)scale(0.996264)" xlink:href="#CMR17-48"/>
       <use transform="translate(91.380954 0)scale(0.996264)" xlink:href="#CMR17-48"/>
       <use transform="translate(137.071431 0)scale(0.996264)" xlink:href="#CMR17-48"/>
      </g>
     </g>
    </g>
    <g id="text_8">
     <!-- Iteration -->
     <defs>
      <path d="M 17.09375 69 
L 8.703125 69 
L 8.703125 0 
L 17.09375 0 
z
" id="CMSS17-73"/>
      <path d="M 16.703125 37 
L 29.703125 37 
L 29.703125 42.765625 
L 16.703125 42.765625 
L 16.703125 55 
L 9.59375 55 
L 9.59375 42.765625 
L 1.703125 42.765625 
L 1.703125 37 
L 9.40625 37 
L 9.40625 11.703125 
C 9.40625 6 10.703125 -1 17.296875 -1 
C 22.296875 -1 26.90625 0.390625 31.296875 2.6875 
L 29.703125 8.5625 
C 27.296875 6.46875 24.40625 5.265625 21.296875 5.265625 
C 16.90625 5.265625 16.703125 10.875 16.703125 13.375 
z
" id="CMSS17-116"/>
      <path d="M 39.09375 21.515625 
C 39.09375 24.84375 38.90625 31.296875 35.703125 36.640625 
C 32.203125 42.390625 26.5 44 22.203125 44 
C 11.796875 44 3 34.1875 3 21.484375 
C 3 9.09375 12.09375 -1 23.59375 -1 
C 28.09375 -1 33.59375 0.296875 38.59375 3.875 
C 38.59375 4.28125 38.40625 6.46875 38.296875 6.5625 
C 38.296875 6.765625 38 9.84375 38 10.25 
C 33.203125 6.359375 27.703125 5.078125 23.703125 5.078125 
C 17.296875 5.078125 10.40625 10.421875 10.09375 21.515625 
z
M 10.90625 27 
C 12.203125 32.5625 16.59375 37.828125 22.203125 37.828125 
C 23.703125 37.828125 30.703125 37.828125 32.5 27 
z
" id="CMSS17-101"/>
      <path d="M 14.90625 21.296875 
C 14.90625 30.703125 21.796875 37 30.59375 37 
L 30.59375 43.578125 
C 24.203125 43.578125 18.203125 40.390625 14.59375 35.203125 
L 14.59375 43.09375 
L 7.5 43.09375 
L 7.5 0 
L 14.90625 0 
z
" id="CMSS17-114"/>
      <path d="M 37.59375 27.984375 
C 37.59375 37.375 30.90625 43.875 21.90625 43.875 
C 17.5 43.875 12.703125 43.078125 7.203125 39.890625 
L 7.796875 33.359375 
C 10.296875 35.125 14.59375 38 21.796875 38 
C 26.90625 38 30 34.0625 30 27.84375 
L 30 24 
C 14 24 4 19.34375 4 11.34375 
C 4 7.203125 6.5 -1 14.796875 -1 
C 16.296875 -1 24.40625 -1 30.203125 3.390625 
L 30.203125 -0.296875 
L 37.59375 -0.296875 
z
M 30 12.75 
C 30 10.953125 30 8.5625 27 6.78125 
C 24.40625 5.078125 21.09375 5.078125 19.703125 5.078125 
C 14.703125 5.078125 11.296875 7.984375 11.296875 11.625 
C 11.296875 18.921875 26.90625 18.921875 30 18.921875 
z
" id="CMSS17-97"/>
      <path d="M 15.296875 65.359375 
L 6.90625 65.359375 
L 6.90625 57 
L 15.296875 57 
z
M 14.796875 42.796875 
L 7.40625 42.796875 
L 7.40625 0 
L 14.796875 0 
z
" id="CMSS17-105"/>
      <path d="M 44.203125 21.1875 
C 44.203125 34 34.703125 44 23.5 44 
C 12 44 2.703125 33.703125 2.703125 21.1875 
C 2.703125 8.5 12.296875 -1 23.40625 -1 
C 34.796875 -1 44.203125 8.796875 44.203125 21.1875 
z
M 23.5 5.265625 
C 16.40625 5.265625 10.296875 11.078125 10.296875 22 
C 10.296875 33.609375 17.40625 37.921875 23.40625 37.921875 
C 29.90625 37.921875 36.59375 33.21875 36.59375 22 
C 36.59375 10.671875 30.09375 5.265625 23.5 5.265625 
z
" id="CMSS17-111"/>
      <path d="M 40.90625 29.328125 
C 40.90625 35.671875 39.40625 44 28.09375 44 
C 21.703125 44 17.5 40.71875 14.703125 37.328125 
L 14.703125 43.09375 
L 7.40625 43.09375 
L 7.40625 0 
L 15 0 
L 15 24.359375 
C 15 30.6875 17.40625 37.9375 24.203125 37.9375 
C 33 37.9375 33.296875 32 33.296875 28.578125 
L 33.296875 0 
L 40.90625 0 
z
" id="CMSS17-110"/>
     </defs>
     <g transform="translate(271.264003 414.021553)scale(0.14 -0.14)">
      <use transform="scale(0.996264)" xlink:href="#CMSS17-73"/>
      <use transform="translate(25.783926 0)scale(0.996264)" xlink:href="#CMSS17-116"/>
      <use transform="translate(59.615492 0)scale(0.996264)" xlink:href="#CMSS17-101"/>
      <use transform="translate(101.254314 0)scale(0.996264)" xlink:href="#CMSS17-114"/>
      <use transform="translate(133.164087 0)scale(0.996264)" xlink:href="#CMSS17-97"/>
      <use transform="translate(178.086007 0)scale(0.996264)" xlink:href="#CMSS17-116"/>
      <use transform="translate(211.917574 0)scale(0.996264)" xlink:href="#CMSS17-105"/>
      <use transform="translate(234.098297 0)scale(0.996264)" xlink:href="#CMSS17-111"/>
      <use transform="translate(280.941921 0)scale(0.996264)" xlink:href="#CMSS17-110"/>
     </g>
    </g>
   </g>
   <g id="matplotlib.axis_2">
    <g id="ytick_1">
     <g id="line2d_15">
      <path clip-path="url(#p3fc423c885)" d="M 72 339.12 
L 518.4 339.12 
" style="fill:none;stroke:#b0b0b0;stroke-dasharray:5.12,1.28,0.8,1.28;stroke-dashoffset:0;stroke-width:0.8;"/>
     </g>
     <g id="line2d_16">
      <defs>
       <path d="M 0 0 
L -3.5 0 
" id="m4e233203a9" style="stroke:#000000;stroke-width:0.8;"/>
      </defs>
      <g>
       <use style="stroke:#000000;stroke-width:0.8;" x="72" xlink:href="#m4e233203a9" y="339.12"/>
      </g>
     </g>
     <g id="text_9">
      <!-- $330$ -->
      <g transform="translate(50.055994 342.579249)scale(0.1 -0.1)">
       <use transform="scale(0.996264)" xlink:href="#CMR17-51"/>
       <use transform="translate(45.690477 0)scale(0.996264)" xlink:href="#CMR17-51"/>
       <use transform="translate(91.380954 0)scale(0.996264)" xlink:href="#CMR17-48"/>
      </g>
     </g>
    </g>
    <g id="ytick_2">
     <g id="line2d_17">
      <path clip-path="url(#p3fc423c885)" d="M 72 278.64 
L 518.4 278.64 
" style="fill:none;stroke:#b0b0b0;stroke-dasharray:5.12,1.28,0.8,1.28;stroke-dashoffset:0;stroke-width:0.8;"/>
     </g>
     <g id="line2d_18">
      <g>
       <use style="stroke:#000000;stroke-width:0.8;" x="72" xlink:href="#m4e233203a9" y="278.64"/>
      </g>
     </g>
     <g id="text_10">
      <!-- $340$ -->
      <defs>
       <path d="M 33.59375 64.40625 
C 33.59375 66.5 33.5 66.5 31.703125 66.5 
L 2 19.59375 
L 2 17 
L 27.796875 17 
L 27.796875 7.140625 
C 27.796875 3.5 27.59375 2.5 20.59375 2.5 
L 18.703125 2.5 
L 18.703125 0 
C 21.90625 0 27.296875 0 30.703125 0 
C 34.09375 0 39.5 0 42.703125 0 
L 42.703125 2.5 
L 40.796875 2.5 
C 33.796875 2.5 33.59375 3.5 33.59375 7.140625 
L 33.59375 17 
L 43.796875 17 
L 43.796875 19.59375 
L 33.59375 19.59375 
z
M 28.09375 57.859375 
L 28.09375 19.59375 
L 4 19.59375 
z
" id="CMR17-52"/>
      </defs>
      <g transform="translate(50.055994 282.099249)scale(0.1 -0.1)">
       <use transform="scale(0.996264)" xlink:href="#CMR17-51"/>
       <use transform="translate(45.690477 0)scale(0.996264)" xlink:href="#CMR17-52"/>
       <use transform="translate(91.380954 0)scale(0.996264)" xlink:href="#CMR17-48"/>
      </g>
     </g>
    </g>
    <g id="ytick_3">
     <g id="line2d_19">
      <path clip-path="url(#p3fc423c885)" d="M 72 218.16 
L 518.4 218.16 
" style="fill:none;stroke:#b0b0b0;stroke-dasharray:5.12,1.28,0.8,1.28;stroke-dashoffset:0;stroke-width:0.8;"/>
     </g>
     <g id="line2d_20">
      <g>
       <use style="stroke:#000000;stroke-width:0.8;" x="72" xlink:href="#m4e233203a9" y="218.16"/>
      </g>
     </g>
     <g id="text_11">
      <!-- $350$ -->
      <g transform="translate(50.055994 221.619249)scale(0.1 -0.1)">
       <use transform="scale(0.996264)" xlink:href="#CMR17-51"/>
       <use transform="translate(45.690477 0)scale(0.996264)" xlink:href="#CMR17-53"/>
       <use transform="translate(91.380954 0)scale(0.996264)" xlink:href="#CMR17-48"/>
      </g>
     </g>
    </g>
    <g id="ytick_4">
     <g id="line2d_21">
      <path clip-path="url(#p3fc423c885)" d="M 72 157.68 
L 518.4 157.68 
" style="fill:none;stroke:#b0b0b0;stroke-dasharray:5.12,1.28,0.8,1.28;stroke-dashoffset:0;stroke-width:0.8;"/>
     </g>
     <g id="line2d_22">
      <g>
       <use style="stroke:#000000;stroke-width:0.8;" x="72" xlink:href="#m4e233203a9" y="157.68"/>
      </g>
     </g>
     <g id="text_12">
      <!-- $360$ -->
      <defs>
       <path d="M 10.59375 34 
C 10.59375 57.65625 21.796875 63 28.296875 63 
C 30.40625 63 35.5 62.640625 37.5 59 
C 35.90625 59 32.90625 59 32.90625 55.515625 
C 32.90625 52.828125 35.09375 51.921875 36.5 51.921875 
C 37.40625 51.921875 40.09375 52.3125 40.09375 55.625 
C 40.09375 61.78125 35.09375 65.296875 28.203125 65.296875 
C 16.296875 65.296875 3.796875 52.96875 3.796875 31 
C 3.796875 3.953125 15.09375 -2 23.09375 -2 
C 32.796875 -2 42 6.671875 42 20.046875 
C 42 32.515625 33.90625 41.59375 23.703125 41.59375 
C 17.59375 41.59375 13.09375 37.609375 10.59375 30.625 
z
M 23.09375 0.390625 
C 10.796875 0.390625 10.796875 18.75 10.796875 22.4375 
C 10.796875 29.625 14.203125 40 23.5 40 
C 25.203125 40 30.09375 40 33.40625 33.125 
C 35.203125 29.21875 35.203125 25.140625 35.203125 20.140625 
C 35.203125 14.75 35.203125 10.78125 33.09375 6.78125 
C 30.90625 2.671875 27.703125 0.390625 23.09375 0.390625 
z
" id="CMR17-54"/>
      </defs>
      <g transform="translate(50.055994 161.139249)scale(0.1 -0.1)">
       <use transform="scale(0.996264)" xlink:href="#CMR17-51"/>
       <use transform="translate(45.690477 0)scale(0.996264)" xlink:href="#CMR17-54"/>
       <use transform="translate(91.380954 0)scale(0.996264)" xlink:href="#CMR17-48"/>
      </g>
     </g>
    </g>
    <g id="ytick_5">
     <g id="line2d_23">
      <path clip-path="url(#p3fc423c885)" d="M 72 97.2 
L 518.4 97.2 
" style="fill:none;stroke:#b0b0b0;stroke-dasharray:5.12,1.28,0.8,1.28;stroke-dashoffset:0;stroke-width:0.8;"/>
     </g>
     <g id="line2d_24">
      <g>
       <use style="stroke:#000000;stroke-width:0.8;" x="72" xlink:href="#m4e233203a9" y="97.2"/>
      </g>
     </g>
     <g id="text_13">
      <!-- $370$ -->
      <defs>
       <path d="M 45.09375 61.578125 
L 45.09375 63.765625 
L 21.59375 63.765625 
C 9.90625 63.765625 9.703125 65.078125 9.296875 67 
L 7.5 67 
L 4.59375 48.34375 
L 6.40625 48.34375 
C 6.703125 50.234375 7.40625 55.3125 8.59375 57.203125 
C 9.203125 58 16.59375 58 18.296875 58 
L 40.296875 58 
L 29.203125 41.578125 
C 21.796875 30.53125 16.703125 15.609375 16.703125 2.578125 
C 16.703125 1.390625 16.703125 -2 20.296875 -2 
C 23.90625 -2 23.90625 1.390625 23.90625 2.671875 
L 23.90625 7.265625 
C 23.90625 23.5625 26.703125 34.3125 31.296875 41.1875 
z
" id="CMR17-55"/>
      </defs>
      <g transform="translate(50.055994 100.659249)scale(0.1 -0.1)">
       <use transform="scale(0.996264)" xlink:href="#CMR17-51"/>
       <use transform="translate(45.690477 0)scale(0.996264)" xlink:href="#CMR17-55"/>
       <use transform="translate(91.380954 0)scale(0.996264)" xlink:href="#CMR17-48"/>
      </g>
     </g>
    </g>
    <g id="text_14">
     <!-- $u_{m}[V]$ -->
     <defs>
      <path d="M 34.09375 5.78125 
C 35.40625 0.203125 40.203125 -1 42.59375 -1 
C 45.796875 -1 48.203125 1.09375 49.796875 4.484375 
C 51.5 8.078125 52.796875 13.96875 52.796875 14.265625 
C 52.796875 14.765625 52.40625 15.171875 51.796875 15.171875 
C 50.90625 15.171875 50.796875 14.671875 50.40625 13.171875 
C 48.59375 6.28125 46.796875 1 42.796875 1 
C 39.796875 1 39.796875 4.296875 39.796875 5.59375 
C 39.796875 7.890625 40.09375 8.875 41.09375 13.078125 
C 41.796875 15.765625 42.5 18.453125 43.09375 21.25 
L 47.203125 37.515625 
C 47.90625 40.015625 47.90625 40.21875 47.90625 40.515625 
C 47.90625 42.015625 46.703125 43.015625 45.203125 43.015625 
C 42.296875 43.015625 41.59375 40.515625 41 38.015625 
C 40 34.125 34.59375 12.671875 33.90625 9.1875 
C 33.796875 9.1875 29.90625 1 22.59375 1 
C 17.40625 1 16.40625 5.484375 16.40625 9.1875 
C 16.40625 14.875 19.203125 22.84375 21.796875 29.53125 
C 23 32.734375 23.5 34.03125 23.5 36.015625 
C 23.5 40.3125 20.40625 44 15.59375 44 
C 6.40625 44 2.703125 29.53125 2.703125 28.734375 
C 2.703125 28.34375 3.09375 27.84375 3.796875 27.84375 
C 4.703125 27.84375 4.796875 28.234375 5.203125 29.625 
C 7.59375 38.140625 11.5 41.90625 15.296875 41.90625 
C 16.296875 41.90625 17.90625 41.90625 17.90625 38.71875 
C 17.90625 36.125 16.796875 33.234375 15.296875 29.4375 
C 10.90625 17.5625 10.40625 13.765625 10.40625 10.78125 
C 10.40625 0.59375 18.09375 -1 22.203125 -1 
C 28.59375 -1 32.09375 3.390625 34.09375 5.78125 
z
" id="CMMI12-117"/>
      <path d="M 20.59375 29.234375 
C 20.796875 29.84375 23.296875 34.828125 27 38.015625 
C 29.59375 40.40625 33 42.015625 36.90625 42.015625 
C 40.90625 42.015625 42.296875 39.015625 42.296875 35.03125 
C 42.296875 34.421875 42.296875 32.4375 41.09375 27.734375 
L 38.59375 17.46875 
C 37.796875 14.46875 35.90625 7.078125 35.703125 5.984375 
C 35.296875 4.484375 34.703125 1.890625 34.703125 1.5 
C 34.703125 0.09375 35.796875 -1 37.296875 -1 
C 40.296875 -1 40.796875 1.296875 41.703125 4.890625 
L 47.703125 28.734375 
C 47.90625 29.53125 53.09375 42.015625 64.09375 42.015625 
C 68.09375 42.015625 69.5 39.015625 69.5 35.03125 
C 69.5 29.4375 65.59375 18.5625 63.40625 12.578125 
C 62.5 10.171875 62 8.875 62 7.078125 
C 62 2.59375 65.09375 -1 69.90625 -1 
C 79.203125 -1 82.703125 13.671875 82.703125 14.265625 
C 82.703125 14.765625 82.296875 15.171875 81.703125 15.171875 
C 80.796875 15.171875 80.703125 14.875 80.203125 13.171875 
C 77.90625 5.1875 74.203125 1 70.203125 1 
C 69.203125 1 67.59375 1 67.59375 4.203125 
C 67.59375 6.8125 68.796875 10 69.203125 11.09375 
C 71 15.90625 75.5 27.703125 75.5 33.515625 
C 75.5 39.5 72 44 64.40625 44 
C 57.703125 44 52.296875 40.21875 48.296875 34.328125 
C 48 39.71875 44.703125 44 37.203125 44 
C 28.296875 44 23.59375 37.734375 21.796875 35.234375 
C 21.5 40.90625 17.40625 44 13 44 
C 10.09375 44 7.796875 42.609375 5.90625 38.8125 
C 4.09375 35.21875 2.703125 29.140625 2.703125 28.734375 
C 2.703125 28.34375 3.09375 27.84375 3.796875 27.84375 
C 4.59375 27.84375 4.703125 27.9375 5.296875 30.234375 
C 6.796875 36.125 8.703125 42.015625 12.703125 42.015625 
C 15 42.015625 15.796875 40.40625 15.796875 37.421875 
C 15.796875 35.21875 14.796875 31.328125 14.09375 28.234375 
L 11.296875 17.46875 
C 10.90625 15.5625 9.796875 11.078125 9.296875 9.28125 
C 8.59375 6.6875 7.5 2 7.5 1.5 
C 7.5 0.09375 8.59375 -1 10.09375 -1 
C 11.296875 -1 12.703125 -0.40625 13.5 1.09375 
C 13.703125 1.59375 14.59375 5.09375 15.09375 7.078125 
L 17.296875 16.0625 
z
" id="CMMI12-109"/>
      <path d="M 23.5 -25 
L 23.5 -21.515625 
L 14.09375 -21.515625 
L 14.09375 71 
L 23.5 71 
L 23.5 74.484375 
L 10.59375 74.484375 
L 10.59375 -25 
z
" id="CMR17-91"/>
      <path d="M 61.90625 56.875 
C 65.296875 62.25 68.40625 64.625 73.5 65.03125 
C 74.5 65.125 75.296875 65.125 75.296875 66.90625 
C 75.296875 67.3125 75.09375 67.90625 74.203125 67.90625 
C 72.40625 67.90625 68.09375 67.90625 66.296875 67.90625 
C 63.40625 67.90625 60.40625 67.90625 57.59375 67.90625 
C 56.796875 67.90625 55.796875 67.90625 55.796875 66.03125 
C 55.796875 65.125 56.703125 65.03125 57.09375 65.03125 
C 60.796875 64.734375 61.203125 62.953125 61.203125 61.75 
C 61.203125 60.265625 59.796875 57.96875 59.703125 57.875 
L 28.296875 8.4375 
L 21.296875 62.015625 
C 21.296875 65 26.5 65 27.59375 65 
C 29.09375 65 30 65 30 66.90625 
C 30 67.90625 28.90625 67.90625 28.59375 67.90625 
C 26.90625 67.90625 24.90625 67.90625 23.203125 67.90625 
L 17.59375 67.90625 
C 10.296875 67.90625 7.296875 67.90625 7.203125 67.90625 
C 6.59375 67.90625 5.40625 67.90625 5.40625 66.09375 
C 5.40625 65 6.09375 65 7.703125 65 
C 12.796875 65 13.09375 64.09375 13.40625 61.625 
L 21.40625 0.375 
C 21.703125 -1.703125 21.703125 -2 23.09375 -2 
C 24.296875 -2 24.796875 -1.703125 25.796875 -0.125 
z
" id="CMMI12-86"/>
      <path d="M 14.296875 74.484375 
L 1.40625 74.484375 
L 1.40625 71 
L 10.796875 71 
L 10.796875 -21.515625 
L 1.40625 -21.515625 
L 1.40625 -25 
L 14.296875 -25 
z
" id="CMR17-93"/>
     </defs>
     <g transform="translate(43.343966 236.007622)rotate(-90)scale(0.14 -0.14)">
      <use transform="translate(0 14.943915)scale(0.996264)" xlink:href="#CMMI12-117"/>
      <use transform="translate(55.52033 0)scale(0.697382)" xlink:href="#CMMI12-109"/>
      <use transform="translate(115.747253 14.943915)scale(0.996264)" xlink:href="#CMR17-91"/>
      <use transform="translate(140.618311 14.943915)scale(0.996264)" xlink:href="#CMMI12-86"/>
      <use transform="translate(219.165632 14.943915)scale(0.996264)" xlink:href="#CMR17-93"/>
     </g>
    </g>
   </g>
   <g id="line2d_25">
    <path clip-path="url(#p3fc423c885)" d="M 92.290909 218.16 
L 92.422711 218.16 
L 92.686315 218.655936 
L 93.081721 220.14193 
L 93.74073 223.710854 
L 94.926948 231.695424 
L 98.090195 255.116909 
L 105.339301 310.483325 
L 112.324804 363.96337 
L 112.852012 366.253747 
L 113.247418 367.176672 
L 113.642824 367.684704 
L 114.170032 367.973194 
L 114.697239 368.00041 
L 115.488051 367.78873 
L 116.937872 367.116192 
L 120.232921 365.568509 
L 122.737158 364.635302 
L 124.055177 364.096426 
L 128.272839 362.046154 
L 130.777076 361.17887 
L 133.544917 359.766662 
L 137.10357 358.012742 
L 139.607807 357.020266 
L 142.243845 356.217696 
L 145.27529 355.553021 
L 147.779527 355.239734 
L 150.547368 355.144781 
L 155.160436 355.275418 
L 156.610257 355.324406 
L 156.742059 354.942173 
L 157.137465 350.719459 
L 157.928277 338.236992 
L 158.982692 318.279197 
L 159.114494 319.58375 
L 159.773504 313.521235 
L 160.16891 310.506307 
L 160.564315 308.490509 
L 161.091523 306.101549 
L 161.750533 304.383312 
L 162.014137 304.285939 
L 162.541345 304.4196 
L 163.59576 305.530618 
L 165.045582 306.361008 
L 179.411993 311.715907 
L 189.297139 315.108835 
L 191.40597 315.269107 
L 193.251197 315.17113 
L 195.623632 314.798573 
L 198.655077 314.092166 
L 203.531749 312.704755 
L 212.230677 309.956544 
L 221.720417 306.776506 
L 222.379427 306.264845 
L 224.356456 304.273843 
L 232.79178 293.807779 
L 238.063858 286.736458 
L 243.467737 279.113558 
L 249.003419 270.899165 
L 254.407299 262.472486 
L 259.94298 253.407139 
L 265.34686 244.12225 
L 270.618938 234.637171 
L 276.286421 223.955798 
L 281.822103 213.025248 
L 287.489586 201.310272 
L 293.288872 188.759462 
L 298.956355 175.92984 
L 304.492037 162.848016 
L 310.027719 149.209776 
L 315.695202 134.658893 
L 321.362686 119.502605 
L 326.371159 105.508742 
L 332.434049 86.684342 
L 338.101532 68.29177 
L 338.496938 66.980563 
L 339.28775 66.96 
L 353.258756 67.007779 
L 353.654162 67.466218 
L 355.499389 69.076195 
L 356.422002 69.368918 
L 357.212814 69.381619 
L 358.003626 69.173568 
L 358.926239 68.678237 
L 359.980655 67.843613 
L 361.03507 66.96 
L 498.109091 66.96 
L 498.109091 66.96 
" style="fill:none;stroke:#bf00bf;stroke-linecap:square;stroke-width:1.5;"/>
   </g>
   <g id="line2d_26">
    <path clip-path="url(#p3fc423c885)" d="M 92.290909 218.16 
L 92.422711 218.16 
L 92.686315 218.555539 
L 93.081721 220.045162 
L 93.74073 223.872336 
L 95.190552 234.08257 
L 100.067224 270.639101 
L 107.579934 328.532371 
L 111.929399 361.920355 
L 112.588408 365.213491 
L 113.115616 366.766013 
L 113.642824 367.53169 
L 114.170032 367.828646 
L 114.697239 367.852838 
L 115.488051 367.6212 
L 116.937872 366.892416 
L 120.232921 365.221958 
L 122.86896 364.169002 
L 124.318781 363.546058 
L 127.877434 361.888301 
L 131.831492 360.511776 
L 137.894381 357.764774 
L 140.53042 356.885395 
L 143.561865 356.136048 
L 146.197904 355.672166 
L 148.702141 355.459882 
L 151.865387 355.44839 
L 156.873861 355.562093 
L 157.137465 355.135104 
L 157.532871 353.719267 
L 158.060079 350.516851 
L 158.719088 344.796653 
L 159.5099 337.673923 
L 159.641702 336.602218 
L 159.773504 336.665117 
L 161.486929 330.422371 
L 162.145939 329.357318 
L 162.541345 329.039798 
L 162.93675 328.999277 
L 164.781978 329.512147 
L 171.372075 331.987594 
L 182.707042 336.085114 
L 190.087951 338.546045 
L 191.40597 338.678496 
L 193.119395 338.616202 
L 195.360028 338.293238 
L 198.391473 337.612838 
L 202.740937 336.403238 
L 209.72644 334.239264 
L 221.325011 330.419952 
L 221.984021 329.446224 
L 223.433842 327.203626 
L 224.751862 325.557965 
L 228.969524 320.374224 
L 234.373403 313.408138 
L 240.040887 305.710243 
L 245.312965 298.174435 
L 250.848646 289.85783 
L 256.252526 281.327126 
L 261.788208 272.15231 
L 267.060285 262.99201 
L 272.595967 252.915437 
L 277.999846 242.613878 
L 283.403726 231.840576 
L 288.807606 220.582829 
L 294.343287 208.535213 
L 299.878969 195.954163 
L 305.414651 182.826979 
L 311.082134 168.810134 
L 316.88142 153.850406 
L 322.812507 137.892154 
L 327.161971 125.62681 
L 332.302247 109.664323 
L 338.101532 90.909475 
L 339.419552 86.896627 
L 339.94676 86.028134 
L 340.473967 85.588445 
L 340.737571 85.33201 
L 341.132977 84.90865 
L 341.791987 84.526416 
L 342.450996 84.450816 
L 343.110006 84.612298 
L 344.03262 85.10521 
L 345.482441 86.197478 
L 348.382084 88.422538 
L 350.095509 89.432554 
L 351.808934 90.177062 
L 353.917766 91.043741 
L 356.2902 91.998115 
L 357.081012 92.038637 
L 357.871824 91.870502 
L 358.794437 91.414483 
L 359.848853 90.602842 
L 362.35309 88.43161 
L 363.143902 88.231421 
L 364.066515 88.240493 
L 365.77994 88.547126 
L 368.547781 89.007379 
L 371.18382 89.182166 
L 376.060492 89.253533 
L 408.48377 89.291635 
L 464.499596 89.185795 
L 465.554011 88.800538 
L 469.639871 87.02545 
L 471.221495 86.700067 
L 473.198524 86.530723 
L 477.152582 86.478106 
L 498.109091 86.470243 
L 498.109091 86.470243 
" style="fill:none;stroke:#00bfbf;stroke-linecap:square;stroke-width:1.5;"/>
   </g>
   <g id="line2d_27">
    <path clip-path="url(#p3fc423c885)" d="M 92.290909 218.16 
L 92.422711 218.16 
L 92.686315 218.90209 
L 93.081721 221.100538 
L 94.136136 229.01495 
L 98.4856 262.00679 
L 105.998311 319.637578 
L 111.533993 362.166509 
L 112.193002 364.648003 
L 112.852012 366.392246 
L 113.37922 367.297027 
L 113.906428 367.755466 
L 114.433635 367.898803 
L 115.092645 367.81655 
L 116.147061 367.40831 
L 121.682742 364.926816 
L 126.691216 363.247891 
L 128.536443 362.827555 
L 131.04068 362.338877 
L 140.003212 359.897904 
L 144.879884 359.090496 
L 147.647725 358.812288 
L 150.67917 358.752413 
L 157.269267 358.794144 
L 157.664673 358.335706 
L 158.060079 357.417014 
L 158.587286 355.386096 
L 159.246296 351.676858 
L 160.16891 347.024736 
L 161.223325 343.12559 
L 161.882335 341.755718 
L 162.409543 341.208374 
L 162.804948 341.075923 
L 163.991166 341.345664 
L 165.704591 341.951069 
L 177.698568 346.401187 
L 187.32011 349.772342 
L 190.351555 350.686195 
L 191.801376 350.779334 
L 193.646603 350.655955 
L 196.019038 350.259811 
L 199.314087 349.468733 
L 204.32256 348.025075 
L 212.889687 345.314966 
L 221.325011 342.515952 
L 221.984021 341.542224 
L 223.433842 339.299626 
L 224.751862 337.653965 
L 228.969524 332.470224 
L 234.373403 325.504138 
L 240.040887 317.806243 
L 245.312965 310.270435 
L 250.848646 301.95383 
L 256.252526 293.423126 
L 261.788208 284.24831 
L 267.060285 275.08801 
L 272.595967 265.011437 
L 277.999846 254.709878 
L 283.403726 243.936576 
L 288.807606 232.678829 
L 294.343287 220.631213 
L 299.878969 208.050163 
L 305.414651 194.922979 
L 311.082134 180.906134 
L 316.88142 165.946406 
L 322.812507 149.988154 
L 327.161971 137.72281 
L 332.302247 121.760323 
L 338.101532 103.005475 
L 339.419552 98.992627 
L 339.94676 98.124134 
L 340.473967 97.684445 
L 340.737571 97.42801 
L 341.132977 97.00465 
L 341.791987 96.622416 
L 342.450996 96.546816 
L 343.110006 96.708298 
L 344.03262 97.20121 
L 345.482441 98.293478 
L 348.382084 100.518538 
L 350.095509 101.528554 
L 351.808934 102.273062 
L 353.917766 103.139741 
L 356.2902 104.094115 
L 357.081012 104.134637 
L 357.871824 103.966502 
L 358.794437 103.510483 
L 359.848853 102.698842 
L 362.35309 100.52761 
L 363.143902 100.327421 
L 364.066515 100.336493 
L 365.77994 100.643126 
L 368.547781 101.103379 
L 371.18382 101.278166 
L 376.060492 101.349533 
L 408.48377 101.387635 
L 464.499596 101.281795 
L 465.554011 100.896538 
L 469.639871 99.12145 
L 471.221495 98.796067 
L 473.198524 98.626723 
L 477.152582 98.574106 
L 498.109091 98.566243 
L 498.109091 98.566243 
" style="fill:none;stroke:#ff0000;stroke-linecap:square;stroke-width:1.5;"/>
   </g>
   <g id="line2d_28">
    <path clip-path="url(#p3fc423c885)" d="M 92.290909 218.16 
L 92.949919 227.222323 
L 93.872532 236.569507 
L 95.322354 248.52096 
L 101.648847 296.834198 
L 109.029756 354.527885 
L 111.006785 369.36 
L 143.430063 369.255974 
L 147.384121 369.000144 
L 151.601783 368.994096 
L 157.401069 368.983814 
L 157.796475 368.723146 
L 158.19188 368.131046 
L 158.719088 366.75815 
L 159.378098 364.233715 
L 160.16891 361.062144 
L 160.827919 358.892122 
L 161.355127 357.743002 
L 161.750533 356.94527 
L 162.145939 356.393693 
L 162.541345 356.248541 
L 163.200354 356.364058 
L 163.991166 356.379178 
L 165.309185 356.76625 
L 184.288665 363.70391 
L 189.824347 365.524358 
L 191.274168 365.644714 
L 193.119395 365.546131 
L 195.360028 365.196557 
L 198.523275 364.46112 
L 203.268145 363.110602 
L 211.967073 360.362995 
L 221.456813 357.171466 
L 222.247625 356.824915 
L 223.170238 356.299949 
L 224.62006 355.157482 
L 226.069881 353.658182 
L 228.574118 350.699501 
L 232.923582 345.157114 
L 238.063858 338.252717 
L 243.731341 330.237907 
L 248.871617 322.596864 
L 254.275497 314.168976 
L 259.547574 305.545133 
L 264.951454 296.280202 
L 270.487136 286.329427 
L 275.891015 276.154272 
L 281.294895 265.509187 
L 286.698775 254.383286 
L 292.234456 242.47417 
L 297.90194 229.731034 
L 303.437621 216.735091 
L 309.105105 202.854326 
L 314.640787 188.723174 
L 320.440072 173.30017 
L 326.239358 157.232448 
L 329.666208 146.80872 
L 334.938286 130.059389 
L 339.551354 115.384522 
L 340.210363 114.324912 
L 341.660185 112.872182 
L 342.319195 112.639334 
L 342.978204 112.627238 
L 343.769016 112.827427 
L 344.823431 113.330016 
L 346.932263 114.652109 
L 349.172896 115.975411 
L 351.018123 116.816083 
L 352.86335 117.420278 
L 353.258756 117.631354 
L 354.049567 118.302682 
L 355.235785 119.165731 
L 356.158399 119.604211 
L 356.94921 119.75904 
L 357.740022 119.697955 
L 358.530834 119.4264 
L 359.453447 118.871798 
L 360.639665 117.876902 
L 362.089486 116.664883 
L 362.880298 116.321962 
L 363.802911 116.152618 
L 364.989129 116.17681 
L 367.361564 116.532432 
L 370.261206 116.894707 
L 373.424453 117.065866 
L 381.200768 117.171706 
L 410.724403 117.196502 
L 464.10419 117.106992 
L 465.290407 116.670931 
L 467.267436 115.633699 
L 469.376267 114.622474 
L 470.957891 114.108998 
L 472.671316 113.781802 
L 475.043751 113.581613 
L 479.525017 113.48545 
L 493.627825 113.466096 
L 498.109091 113.467306 
L 498.109091 113.467306 
" style="fill:none;stroke:#008000;stroke-linecap:square;stroke-width:1.5;"/>
   </g>
   <g id="line2d_29">
    <path clip-path="url(#p3fc423c885)" d="M 92.290909 218.16 
L 93.213523 231.856906 
L 94.004334 239.393318 
L 95.71776 252.896688 
L 106.261915 333.988877 
L 110.874983 369.36 
L 157.532871 369.321293 
L 157.796475 369.026755 
L 158.19188 368.128022 
L 158.719088 366.178147 
L 159.246296 363.532752 
L 159.641702 361.176451 
L 160.037108 359.322739 
L 160.432514 357.727277 
L 161.091523 355.787683 
L 161.618731 354.919795 
L 161.882335 354.699648 
L 162.277741 354.715373 
L 162.541345 354.911933 
L 162.804948 355.092768 
L 163.463958 354.999629 
L 163.991166 355.089139 
L 166.231799 355.877798 
L 172.953698 358.400419 
L 183.23425 362.10361 
L 189.428941 364.165978 
L 191.010564 364.27847 
L 192.855791 364.181702 
L 195.228226 363.81096 
L 198.259671 363.105763 
L 203.136343 361.716538 
L 211.703469 359.007034 
L 221.588615 355.679424 
L 223.30204 354.809722 
L 224.488258 353.910989 
L 226.069881 352.255651 
L 228.442316 349.44575 
L 232.659978 344.070893 
L 238.063858 336.798778 
L 243.335936 329.334941 
L 248.871617 321.09575 
L 254.275497 312.64367 
L 259.811178 303.551107 
L 265.215058 294.239002 
L 270.75074 284.238029 
L 276.154619 274.012675 
L 281.558499 263.316787 
L 286.962379 252.138269 
L 292.49806 240.174115 
L 298.165544 227.373523 
L 303.701225 214.32073 
L 309.368709 200.380694 
L 315.167994 185.500195 
L 320.835478 170.345722 
L 326.239358 155.285597 
L 331.116029 140.258131 
L 336.651711 122.419555 
L 339.28775 114.111418 
L 339.94676 113.013101 
L 340.869373 112.075661 
L 341.791987 111.637786 
L 342.582798 111.568234 
L 343.505412 111.749069 
L 344.69163 112.232304 
L 350.754519 115.088774 
L 353.126954 115.875619 
L 353.785964 116.649158 
L 354.576775 117.469872 
L 355.367587 118.04927 
L 356.158399 118.386144 
L 356.94921 118.49017 
L 357.740022 118.368 
L 358.530834 118.035965 
L 359.453447 117.421488 
L 360.771467 116.251805 
L 361.69408 115.472822 
L 362.616694 115.039786 
L 363.539307 114.849274 
L 364.725525 114.851693 
L 366.702554 115.134134 
L 369.997603 115.590154 
L 373.292651 115.787923 
L 380.146352 115.899206 
L 411.515215 115.93247 
L 463.708784 115.864733 
L 465.026803 115.307107 
L 467.53104 113.946307 
L 469.376267 113.074186 
L 470.957891 112.561315 
L 472.671316 112.232304 
L 474.911949 112.03272 
L 478.734205 111.931114 
L 489.014757 111.899059 
L 498.109091 111.903293 
L 498.109091 111.903293 
" style="fill:none;stroke:#0000ff;stroke-linecap:square;stroke-width:1.5;"/>
   </g>
   <g id="line2d_30">
    <path clip-path="url(#p3fc423c885)" d="M 92.290909 218.16 
L 92.818117 223.07279 
L 94.39974 234.377107 
L 97.694789 258.81768 
L 104.943896 314.305661 
L 111.665795 365.931994 
L 112.324804 369.153158 
L 112.456606 369.36 
L 123.264366 369.262627 
L 124.582385 368.764877 
L 127.61383 367.558906 
L 131.69969 366.255562 
L 138.157985 363.697862 
L 141.057628 362.878963 
L 144.089073 362.263882 
L 146.725111 361.918541 
L 149.624754 361.773389 
L 153.578812 361.827821 
L 156.873861 361.867133 
L 157.137465 361.480666 
L 157.532871 360.284976 
L 157.928277 358.326634 
L 158.455484 354.611347 
L 159.246296 347.321693 
L 159.641702 343.761235 
L 160.037108 340.746307 
L 160.432514 338.730509 
L 160.959721 336.341549 
L 161.618731 334.623312 
L 161.882335 334.525939 
L 162.409543 334.6596 
L 163.463958 335.770618 
L 164.91378 336.601008 
L 179.280191 341.955907 
L 189.165337 345.348835 
L 191.274168 345.509107 
L 193.119395 345.41113 
L 195.49183 345.038573 
L 198.523275 344.332166 
L 203.399947 342.944755 
L 212.098875 340.196544 
L 221.588615 337.016506 
L 222.247625 336.504845 
L 224.224654 334.513843 
L 232.659978 324.047779 
L 237.932056 316.976458 
L 243.335936 309.353558 
L 248.871617 301.139165 
L 254.275497 292.712486 
L 259.811178 283.647139 
L 265.215058 274.36225 
L 270.487136 264.877171 
L 276.154619 254.195798 
L 281.690301 243.265248 
L 287.357784 231.550272 
L 293.15707 218.999462 
L 298.824553 206.16984 
L 304.360235 193.088016 
L 309.895917 179.449776 
L 315.5634 164.898893 
L 321.230884 149.742605 
L 326.239358 135.748742 
L 332.302247 116.924342 
L 337.96973 98.53177 
L 339.024146 95.335402 
L 339.814958 94.214102 
L 340.737571 93.521606 
L 341.001175 93.537936 
L 341.660185 93.400646 
L 342.450996 93.415766 
L 343.505412 93.674016 
L 345.087035 94.326595 
L 348.645688 95.85553 
L 350.754519 96.494198 
L 352.995152 97.020374 
L 353.390558 97.597354 
L 353.785964 98.004989 
L 354.313171 98.552333 
L 355.103983 99.16439 
L 355.762993 99.476467 
L 356.553804 99.640368 
L 357.344616 99.576864 
L 358.135428 99.298051 
L 359.058041 98.732563 
L 360.244259 97.718314 
L 361.562278 96.564355 
L 362.616694 96.163978 
L 363.539307 96.056323 
L 364.857327 96.147648 
L 371.052018 96.866755 
L 375.796888 96.975014 
L 393.59015 97.028237 
L 463.576982 96.968966 
L 469.112663 94.717296 
L 470.826089 94.29696 
L 472.93492 94.040525 
L 476.229968 93.921984 
L 487.16953 93.880858 
L 498.109091 93.885091 
L 498.109091 93.885091 
" style="fill:none;stroke:#000000;stroke-linecap:square;stroke-width:1.5;"/>
   </g>
   <g id="patch_3">
    <path d="M 72 384.48 
L 72 51.84 
" style="fill:none;stroke:#000000;stroke-linecap:square;stroke-linejoin:miter;stroke-width:0.8;"/>
   </g>
   <g id="patch_4">
    <path d="M 518.4 384.48 
L 518.4 51.84 
" style="fill:none;stroke:#000000;stroke-linecap:square;stroke-linejoin:miter;stroke-width:0.8;"/>
   </g>
   <g id="patch_5">
    <path d="M 72 384.48 
L 518.4 384.48 
" style="fill:none;stroke:#000000;stroke-linecap:square;stroke-linejoin:miter;stroke-width:0.8;"/>
   </g>
   <g id="patch_6">
    <path d="M 72 51.84 
L 518.4 51.84 
" style="fill:none;stroke:#000000;stroke-linecap:square;stroke-linejoin:miter;stroke-width:0.8;"/>
   </g>
   <g id="legend_1">
    <g id="patch_7">
     <path d="M 79 143.46307 
L 120.67443 143.46307 
Q 122.67443 143.46307 122.67443 141.46307 
L 122.67443 58.84 
Q 122.67443 56.84 120.67443 56.84 
L 79 56.84 
Q 77 56.84 77 58.84 
L 77 141.46307 
Q 77 143.46307 79 143.46307 
z
" style="fill:#ffffff;opacity:0.8;stroke:#cccccc;stroke-linejoin:miter;"/>
    </g>
    <g id="line2d_31">
     <path d="M 81 64.34 
L 101 64.34 
" style="fill:none;stroke:#bf00bf;stroke-linecap:square;stroke-width:1.5;"/>
    </g>
    <g id="line2d_32"/>
    <g id="text_15">
     <!-- $u_{1}$ -->
     <g transform="translate(109 67.84)scale(0.1 -0.1)">
      <use transform="translate(0 14.943915)scale(0.996264)" xlink:href="#CMMI12-117"/>
      <use transform="translate(55.52033 0)scale(0.697382)" xlink:href="#CMR17-49"/>
     </g>
    </g>
    <g id="line2d_33">
     <path d="M 81 78.277178 
L 101 78.277178 
" style="fill:none;stroke:#00bfbf;stroke-linecap:square;stroke-width:1.5;"/>
    </g>
    <g id="line2d_34"/>
    <g id="text_16">
     <!-- $u_{2}$ -->
     <g transform="translate(109 81.777178)scale(0.1 -0.1)">
      <use transform="translate(0 14.943915)scale(0.996264)" xlink:href="#CMMI12-117"/>
      <use transform="translate(55.52033 0)scale(0.697382)" xlink:href="#CMR17-50"/>
     </g>
    </g>
    <g id="line2d_35">
     <path d="M 81 92.214357 
L 101 92.214357 
" style="fill:none;stroke:#ff0000;stroke-linecap:square;stroke-width:1.5;"/>
    </g>
    <g id="line2d_36"/>
    <g id="text_17">
     <!-- $u_{3}$ -->
     <g transform="translate(109 95.714357)scale(0.1 -0.1)">
      <use transform="translate(0 14.943915)scale(0.996264)" xlink:href="#CMMI12-117"/>
      <use transform="translate(55.52033 0)scale(0.697382)" xlink:href="#CMR17-51"/>
     </g>
    </g>
    <g id="line2d_37">
     <path d="M 81 106.151535 
L 101 106.151535 
" style="fill:none;stroke:#008000;stroke-linecap:square;stroke-width:1.5;"/>
    </g>
    <g id="line2d_38"/>
    <g id="text_18">
     <!-- $u_{4}$ -->
     <g transform="translate(109 109.651535)scale(0.1 -0.1)">
      <use transform="translate(0 14.943915)scale(0.996264)" xlink:href="#CMMI12-117"/>
      <use transform="translate(55.52033 0)scale(0.697382)" xlink:href="#CMR17-52"/>
     </g>
    </g>
    <g id="line2d_39">
     <path d="M 81 120.088713 
L 101 120.088713 
" style="fill:none;stroke:#0000ff;stroke-linecap:square;stroke-width:1.5;"/>
    </g>
    <g id="line2d_40"/>
    <g id="text_19">
     <!-- $u_{5}$ -->
     <g transform="translate(109 123.588713)scale(0.1 -0.1)">
      <use transform="translate(0 14.943915)scale(0.996264)" xlink:href="#CMMI12-117"/>
      <use transform="translate(55.52033 0)scale(0.697382)" xlink:href="#CMR17-53"/>
     </g>
    </g>
    <g id="line2d_41">
     <path d="M 81 134.025892 
L 101 134.025892 
" style="fill:none;stroke:#000000;stroke-linecap:square;stroke-width:1.5;"/>
    </g>
    <g id="line2d_42"/>
    <g id="text_20">
     <!-- $u_{6}$ -->
     <g transform="translate(109 137.525892)scale(0.1 -0.1)">
      <use transform="translate(0 14.943915)scale(0.996264)" xlink:href="#CMMI12-117"/>
      <use transform="translate(55.52033 0)scale(0.697382)" xlink:href="#CMR17-54"/>
     </g>
    </g>
   </g>
  </g>
 </g>
 <defs>
  <clipPath id="p3fc423c885">
   <rect height="332.64" width="446.4" x="72" y="51.84"/>
  </clipPath>
 </defs>
</svg>
