<?xml version="1.0" encoding="utf-8" standalone="no"?>
<!DOCTYPE svg PUBLIC "-//W3C//DTD SVG 1.1//EN"
  "http://www.w3.org/Graphics/SVG/1.1/DTD/svg11.dtd">
<!-- Created with matplotlib (http://matplotlib.org/) -->
<svg height="432pt" version="1.1" viewBox="0 0 576 432" width="576pt" xmlns="http://www.w3.org/2000/svg" xmlns:xlink="http://www.w3.org/1999/xlink">
 <defs>
  <style type="text/css">
*{stroke-linecap:butt;stroke-linejoin:round;}
  </style>
 </defs>
 <g id="figure_1">
  <g id="patch_1">
   <path d="M 0 432 
L 576 432 
L 576 0 
L 0 0 
z
" style="fill:#ffffff;"/>
  </g>
  <g id="axes_1">
   <g id="patch_2">
    <path d="M 72 384.48 
L 518.4 384.48 
L 518.4 51.84 
L 72 51.84 
z
" style="fill:#ffffff;"/>
   </g>
   <g id="matplotlib.axis_1">
    <g id="xtick_1">
     <g id="line2d_1">
      <path clip-path="url(#pf119fa4d06)" d="M 92.290909 384.48 
L 92.290909 51.84 
" style="fill:none;stroke:#b0b0b0;stroke-dasharray:5.12,1.28,0.8,1.28;stroke-dashoffset:0;stroke-width:0.8;"/>
     </g>
     <g id="line2d_2">
      <defs>
       <path d="M 0 0 
L 0 3.5 
" id="mb00a020a2f" style="stroke:#000000;stroke-width:0.8;"/>
      </defs>
      <g>
       <use style="stroke:#000000;stroke-width:0.8;" x="92.290909" xlink:href="#mb00a020a2f" y="384.48"/>
      </g>
     </g>
     <g id="text_1">
      <!-- 0 -->
      <defs>
       <path d="M 46 36.53125 
Q 46 50.203125 43.4375 55.78125 
Q 40.875 61.375 34.8125 61.375 
Q 28.765625 61.375 26.171875 55.78125 
Q 23.578125 50.203125 23.578125 36.53125 
Q 23.578125 22.703125 26.171875 17.03125 
Q 28.765625 11.375 34.8125 11.375 
Q 40.828125 11.375 43.40625 17.03125 
Q 46 22.703125 46 36.53125 
z
M 64.796875 36.375 
Q 64.796875 18.265625 56.984375 8.421875 
Q 49.171875 -1.421875 34.8125 -1.421875 
Q 20.40625 -1.421875 12.59375 8.421875 
Q 4.78125 18.265625 4.78125 36.375 
Q 4.78125 54.546875 12.59375 64.375 
Q 20.40625 74.21875 34.8125 74.21875 
Q 49.171875 74.21875 56.984375 64.375 
Q 64.796875 54.546875 64.796875 36.375 
z
" id="DejaVuSans-Bold-30"/>
      </defs>
      <g transform="translate(88.812003 399.078438)scale(0.1 -0.1)">
       <use xlink:href="#DejaVuSans-Bold-30"/>
      </g>
     </g>
    </g>
    <g id="xtick_2">
     <g id="line2d_3">
      <path clip-path="url(#pf119fa4d06)" d="M 160.404065 384.48 
L 160.404065 51.84 
" style="fill:none;stroke:#b0b0b0;stroke-dasharray:5.12,1.28,0.8,1.28;stroke-dashoffset:0;stroke-width:0.8;"/>
     </g>
     <g id="line2d_4">
      <g>
       <use style="stroke:#000000;stroke-width:0.8;" x="160.404065" xlink:href="#mb00a020a2f" y="384.48"/>
      </g>
     </g>
     <g id="text_2">
      <!-- 500 -->
      <defs>
       <path d="M 10.59375 72.90625 
L 57.328125 72.90625 
L 57.328125 59.078125 
L 25.59375 59.078125 
L 25.59375 47.796875 
Q 27.734375 48.390625 29.90625 48.703125 
Q 32.078125 49.03125 34.421875 49.03125 
Q 47.75 49.03125 55.171875 42.359375 
Q 62.59375 35.6875 62.59375 23.78125 
Q 62.59375 11.96875 54.515625 5.265625 
Q 46.4375 -1.421875 32.078125 -1.421875 
Q 25.875 -1.421875 19.796875 -0.21875 
Q 13.71875 0.984375 7.71875 3.421875 
L 7.71875 18.21875 
Q 13.671875 14.796875 19.015625 13.078125 
Q 24.359375 11.375 29.109375 11.375 
Q 35.9375 11.375 39.859375 14.71875 
Q 43.796875 18.0625 43.796875 23.78125 
Q 43.796875 29.546875 39.859375 32.859375 
Q 35.9375 36.1875 29.109375 36.1875 
Q 25.046875 36.1875 20.453125 35.125 
Q 15.875 34.078125 10.59375 31.890625 
z
" id="DejaVuSans-Bold-35"/>
      </defs>
      <g transform="translate(149.967346 399.078438)scale(0.1 -0.1)">
       <use xlink:href="#DejaVuSans-Bold-35"/>
       <use x="69.580078" xlink:href="#DejaVuSans-Bold-30"/>
       <use x="139.160156" xlink:href="#DejaVuSans-Bold-30"/>
      </g>
     </g>
    </g>
    <g id="xtick_3">
     <g id="line2d_5">
      <path clip-path="url(#pf119fa4d06)" d="M 228.517221 384.48 
L 228.517221 51.84 
" style="fill:none;stroke:#b0b0b0;stroke-dasharray:5.12,1.28,0.8,1.28;stroke-dashoffset:0;stroke-width:0.8;"/>
     </g>
     <g id="line2d_6">
      <g>
       <use style="stroke:#000000;stroke-width:0.8;" x="228.517221" xlink:href="#mb00a020a2f" y="384.48"/>
      </g>
     </g>
     <g id="text_3">
      <!-- 1000 -->
      <defs>
       <path d="M 11.71875 12.984375 
L 28.328125 12.984375 
L 28.328125 60.109375 
L 11.28125 56.59375 
L 11.28125 69.390625 
L 28.21875 72.90625 
L 46.09375 72.90625 
L 46.09375 12.984375 
L 62.703125 12.984375 
L 62.703125 0 
L 11.71875 0 
z
" id="DejaVuSans-Bold-31"/>
      </defs>
      <g transform="translate(214.601596 399.078438)scale(0.1 -0.1)">
       <use xlink:href="#DejaVuSans-Bold-31"/>
       <use x="69.580078" xlink:href="#DejaVuSans-Bold-30"/>
       <use x="139.160156" xlink:href="#DejaVuSans-Bold-30"/>
       <use x="208.740234" xlink:href="#DejaVuSans-Bold-30"/>
      </g>
     </g>
    </g>
    <g id="xtick_4">
     <g id="line2d_7">
      <path clip-path="url(#pf119fa4d06)" d="M 296.630376 384.48 
L 296.630376 51.84 
" style="fill:none;stroke:#b0b0b0;stroke-dasharray:5.12,1.28,0.8,1.28;stroke-dashoffset:0;stroke-width:0.8;"/>
     </g>
     <g id="line2d_8">
      <g>
       <use style="stroke:#000000;stroke-width:0.8;" x="296.630376" xlink:href="#mb00a020a2f" y="384.48"/>
      </g>
     </g>
     <g id="text_4">
      <!-- 1500 -->
      <g transform="translate(282.714751 399.078438)scale(0.1 -0.1)">
       <use xlink:href="#DejaVuSans-Bold-31"/>
       <use x="69.580078" xlink:href="#DejaVuSans-Bold-35"/>
       <use x="139.160156" xlink:href="#DejaVuSans-Bold-30"/>
       <use x="208.740234" xlink:href="#DejaVuSans-Bold-30"/>
      </g>
     </g>
    </g>
    <g id="xtick_5">
     <g id="line2d_9">
      <path clip-path="url(#pf119fa4d06)" d="M 364.743532 384.48 
L 364.743532 51.84 
" style="fill:none;stroke:#b0b0b0;stroke-dasharray:5.12,1.28,0.8,1.28;stroke-dashoffset:0;stroke-width:0.8;"/>
     </g>
     <g id="line2d_10">
      <g>
       <use style="stroke:#000000;stroke-width:0.8;" x="364.743532" xlink:href="#mb00a020a2f" y="384.48"/>
      </g>
     </g>
     <g id="text_5">
      <!-- 2000 -->
      <defs>
       <path d="M 28.8125 13.8125 
L 60.890625 13.8125 
L 60.890625 0 
L 7.90625 0 
L 7.90625 13.8125 
L 34.515625 37.3125 
Q 38.09375 40.53125 39.796875 43.609375 
Q 41.5 46.6875 41.5 50 
Q 41.5 55.125 38.0625 58.25 
Q 34.625 61.375 28.90625 61.375 
Q 24.515625 61.375 19.28125 59.5 
Q 14.0625 57.625 8.109375 53.90625 
L 8.109375 69.921875 
Q 14.453125 72.015625 20.65625 73.109375 
Q 26.859375 74.21875 32.8125 74.21875 
Q 45.90625 74.21875 53.15625 68.453125 
Q 60.40625 62.703125 60.40625 52.390625 
Q 60.40625 46.4375 57.328125 41.28125 
Q 54.25 36.140625 44.390625 27.484375 
z
" id="DejaVuSans-Bold-32"/>
      </defs>
      <g transform="translate(350.827907 399.078438)scale(0.1 -0.1)">
       <use xlink:href="#DejaVuSans-Bold-32"/>
       <use x="69.580078" xlink:href="#DejaVuSans-Bold-30"/>
       <use x="139.160156" xlink:href="#DejaVuSans-Bold-30"/>
       <use x="208.740234" xlink:href="#DejaVuSans-Bold-30"/>
      </g>
     </g>
    </g>
    <g id="xtick_6">
     <g id="line2d_11">
      <path clip-path="url(#pf119fa4d06)" d="M 432.856688 384.48 
L 432.856688 51.84 
" style="fill:none;stroke:#b0b0b0;stroke-dasharray:5.12,1.28,0.8,1.28;stroke-dashoffset:0;stroke-width:0.8;"/>
     </g>
     <g id="line2d_12">
      <g>
       <use style="stroke:#000000;stroke-width:0.8;" x="432.856688" xlink:href="#mb00a020a2f" y="384.48"/>
      </g>
     </g>
     <g id="text_6">
      <!-- 2500 -->
      <g transform="translate(418.941063 399.078438)scale(0.1 -0.1)">
       <use xlink:href="#DejaVuSans-Bold-32"/>
       <use x="69.580078" xlink:href="#DejaVuSans-Bold-35"/>
       <use x="139.160156" xlink:href="#DejaVuSans-Bold-30"/>
       <use x="208.740234" xlink:href="#DejaVuSans-Bold-30"/>
      </g>
     </g>
    </g>
    <g id="xtick_7">
     <g id="line2d_13">
      <path clip-path="url(#pf119fa4d06)" d="M 500.969843 384.48 
L 500.969843 51.84 
" style="fill:none;stroke:#b0b0b0;stroke-dasharray:5.12,1.28,0.8,1.28;stroke-dashoffset:0;stroke-width:0.8;"/>
     </g>
     <g id="line2d_14">
      <g>
       <use style="stroke:#000000;stroke-width:0.8;" x="500.969843" xlink:href="#mb00a020a2f" y="384.48"/>
      </g>
     </g>
     <g id="text_7">
      <!-- 3000 -->
      <defs>
       <path d="M 46.578125 39.3125 
Q 53.953125 37.40625 57.78125 32.6875 
Q 61.625 27.984375 61.625 20.703125 
Q 61.625 9.859375 53.3125 4.21875 
Q 45.015625 -1.421875 29.109375 -1.421875 
Q 23.484375 -1.421875 17.84375 -0.515625 
Q 12.203125 0.390625 6.6875 2.203125 
L 6.6875 16.703125 
Q 11.96875 14.0625 17.15625 12.71875 
Q 22.359375 11.375 27.390625 11.375 
Q 34.859375 11.375 38.84375 13.953125 
Q 42.828125 16.546875 42.828125 21.390625 
Q 42.828125 26.375 38.75 28.9375 
Q 34.671875 31.5 26.703125 31.5 
L 19.1875 31.5 
L 19.1875 43.609375 
L 27.09375 43.609375 
Q 34.1875 43.609375 37.640625 45.828125 
Q 41.109375 48.046875 41.109375 52.59375 
Q 41.109375 56.78125 37.734375 59.078125 
Q 34.375 61.375 28.21875 61.375 
Q 23.6875 61.375 19.046875 60.34375 
Q 14.40625 59.328125 9.8125 57.328125 
L 9.8125 71.09375 
Q 15.375 72.65625 20.84375 73.4375 
Q 26.3125 74.21875 31.59375 74.21875 
Q 45.796875 74.21875 52.84375 69.546875 
Q 59.90625 64.890625 59.90625 55.515625 
Q 59.90625 49.125 56.53125 45.046875 
Q 53.171875 40.96875 46.578125 39.3125 
z
" id="DejaVuSans-Bold-33"/>
      </defs>
      <g transform="translate(487.054218 399.078438)scale(0.1 -0.1)">
       <use xlink:href="#DejaVuSans-Bold-33"/>
       <use x="69.580078" xlink:href="#DejaVuSans-Bold-30"/>
       <use x="139.160156" xlink:href="#DejaVuSans-Bold-30"/>
       <use x="208.740234" xlink:href="#DejaVuSans-Bold-30"/>
      </g>
     </g>
    </g>
    <g id="text_8">
     <!-- Iteration -->
     <defs>
      <path d="M 9.1875 72.90625 
L 27.984375 72.90625 
L 27.984375 0 
L 9.1875 0 
z
" id="DejaVuSans-Bold-49"/>
      <path d="M 27.484375 70.21875 
L 27.484375 54.6875 
L 45.515625 54.6875 
L 45.515625 42.1875 
L 27.484375 42.1875 
L 27.484375 19 
Q 27.484375 15.1875 29 13.84375 
Q 30.515625 12.5 35.015625 12.5 
L 44 12.5 
L 44 0 
L 29 0 
Q 18.65625 0 14.328125 4.3125 
Q 10.015625 8.640625 10.015625 19 
L 10.015625 42.1875 
L 1.3125 42.1875 
L 1.3125 54.6875 
L 10.015625 54.6875 
L 10.015625 70.21875 
z
" id="DejaVuSans-Bold-74"/>
      <path d="M 62.984375 27.484375 
L 62.984375 22.515625 
L 22.125 22.515625 
Q 22.75 16.359375 26.5625 13.28125 
Q 30.375 10.203125 37.203125 10.203125 
Q 42.71875 10.203125 48.5 11.84375 
Q 54.296875 13.484375 60.40625 16.796875 
L 60.40625 3.328125 
Q 54.203125 0.984375 48 -0.21875 
Q 41.796875 -1.421875 35.59375 -1.421875 
Q 20.75 -1.421875 12.515625 6.125 
Q 4.296875 13.671875 4.296875 27.296875 
Q 4.296875 40.671875 12.375 48.328125 
Q 20.453125 56 34.625 56 
Q 47.515625 56 55.25 48.234375 
Q 62.984375 40.484375 62.984375 27.484375 
z
M 45.015625 33.296875 
Q 45.015625 38.28125 42.109375 41.328125 
Q 39.203125 44.390625 34.515625 44.390625 
Q 29.4375 44.390625 26.265625 41.53125 
Q 23.09375 38.671875 22.3125 33.296875 
z
" id="DejaVuSans-Bold-65"/>
      <path d="M 49.03125 39.796875 
Q 46.734375 40.875 44.453125 41.375 
Q 42.1875 41.890625 39.890625 41.890625 
Q 33.15625 41.890625 29.515625 37.5625 
Q 25.875 33.25 25.875 25.203125 
L 25.875 0 
L 8.40625 0 
L 8.40625 54.6875 
L 25.875 54.6875 
L 25.875 45.703125 
Q 29.25 51.078125 33.609375 53.53125 
Q 37.984375 56 44.09375 56 
Q 44.96875 56 45.984375 55.921875 
Q 47.015625 55.859375 48.96875 55.609375 
z
" id="DejaVuSans-Bold-72"/>
      <path d="M 32.90625 24.609375 
Q 27.4375 24.609375 24.671875 22.75 
Q 21.921875 20.90625 21.921875 17.28125 
Q 21.921875 13.96875 24.140625 12.078125 
Q 26.375 10.203125 30.328125 10.203125 
Q 35.25 10.203125 38.625 13.734375 
Q 42 17.28125 42 22.609375 
L 42 24.609375 
z
M 59.625 31.203125 
L 59.625 0 
L 42 0 
L 42 8.109375 
Q 38.484375 3.125 34.078125 0.84375 
Q 29.6875 -1.421875 23.390625 -1.421875 
Q 14.890625 -1.421875 9.59375 3.53125 
Q 4.296875 8.5 4.296875 16.40625 
Q 4.296875 26.03125 10.90625 30.515625 
Q 17.53125 35.015625 31.6875 35.015625 
L 42 35.015625 
L 42 36.375 
Q 42 40.53125 38.71875 42.453125 
Q 35.453125 44.390625 28.515625 44.390625 
Q 22.90625 44.390625 18.0625 43.265625 
Q 13.234375 42.140625 9.078125 39.890625 
L 9.078125 53.21875 
Q 14.703125 54.59375 20.359375 55.296875 
Q 26.03125 56 31.6875 56 
Q 46.484375 56 53.046875 50.171875 
Q 59.625 44.34375 59.625 31.203125 
z
" id="DejaVuSans-Bold-61"/>
      <path d="M 8.40625 54.6875 
L 25.875 54.6875 
L 25.875 0 
L 8.40625 0 
z
M 8.40625 75.984375 
L 25.875 75.984375 
L 25.875 61.71875 
L 8.40625 61.71875 
z
" id="DejaVuSans-Bold-69"/>
      <path d="M 34.421875 43.5 
Q 28.609375 43.5 25.5625 39.328125 
Q 22.515625 35.15625 22.515625 27.296875 
Q 22.515625 19.4375 25.5625 15.25 
Q 28.609375 11.078125 34.421875 11.078125 
Q 40.140625 11.078125 43.15625 15.25 
Q 46.1875 19.4375 46.1875 27.296875 
Q 46.1875 35.15625 43.15625 39.328125 
Q 40.140625 43.5 34.421875 43.5 
z
M 34.421875 56 
Q 48.53125 56 56.46875 48.375 
Q 64.40625 40.765625 64.40625 27.296875 
Q 64.40625 13.8125 56.46875 6.1875 
Q 48.53125 -1.421875 34.421875 -1.421875 
Q 20.265625 -1.421875 12.28125 6.1875 
Q 4.296875 13.8125 4.296875 27.296875 
Q 4.296875 40.765625 12.28125 48.375 
Q 20.265625 56 34.421875 56 
z
" id="DejaVuSans-Bold-6f"/>
      <path d="M 63.375 33.296875 
L 63.375 0 
L 45.796875 0 
L 45.796875 5.421875 
L 45.796875 25.484375 
Q 45.796875 32.5625 45.484375 35.25 
Q 45.171875 37.9375 44.390625 39.203125 
Q 43.359375 40.921875 41.59375 41.875 
Q 39.84375 42.828125 37.59375 42.828125 
Q 32.125 42.828125 29 38.59375 
Q 25.875 34.375 25.875 26.90625 
L 25.875 0 
L 8.40625 0 
L 8.40625 54.6875 
L 25.875 54.6875 
L 25.875 46.6875 
Q 29.828125 51.46875 34.265625 53.734375 
Q 38.71875 56 44.09375 56 
Q 53.5625 56 58.46875 50.1875 
Q 63.375 44.390625 63.375 33.296875 
z
" id="DejaVuSans-Bold-6e"/>
     </defs>
     <g transform="translate(260.788437 415.795938)scale(0.14 -0.14)">
      <use xlink:href="#DejaVuSans-Bold-49"/>
      <use x="37.207031" xlink:href="#DejaVuSans-Bold-74"/>
      <use x="85.009766" xlink:href="#DejaVuSans-Bold-65"/>
      <use x="152.832031" xlink:href="#DejaVuSans-Bold-72"/>
      <use x="202.148438" xlink:href="#DejaVuSans-Bold-61"/>
      <use x="269.628906" xlink:href="#DejaVuSans-Bold-74"/>
      <use x="317.431641" xlink:href="#DejaVuSans-Bold-69"/>
      <use x="351.708984" xlink:href="#DejaVuSans-Bold-6f"/>
      <use x="420.410156" xlink:href="#DejaVuSans-Bold-6e"/>
     </g>
    </g>
   </g>
   <g id="matplotlib.axis_2">
    <g id="ytick_1">
     <g id="line2d_15">
      <path clip-path="url(#pf119fa4d06)" d="M 72 344.401978 
L 518.4 344.401978 
" style="fill:none;stroke:#b0b0b0;stroke-dasharray:5.12,1.28,0.8,1.28;stroke-dashoffset:0;stroke-width:0.8;"/>
     </g>
     <g id="line2d_16">
      <defs>
       <path d="M 0 0 
L -3.5 0 
" id="m8fd69c0118" style="stroke:#000000;stroke-width:0.8;"/>
      </defs>
      <g>
       <use style="stroke:#000000;stroke-width:0.8;" x="72" xlink:href="#m8fd69c0118" y="344.401978"/>
      </g>
     </g>
     <g id="text_9">
      <!-- −75 -->
      <defs>
       <path d="M 10.59375 37.109375 
L 73.1875 37.109375 
L 73.1875 25.59375 
L 10.59375 25.59375 
z
" id="DejaVuSans-Bold-2212"/>
       <path d="M 6.6875 72.90625 
L 61.625 72.90625 
L 61.625 62.3125 
L 33.203125 0 
L 14.890625 0 
L 41.796875 59.078125 
L 6.6875 59.078125 
z
" id="DejaVuSans-Bold-37"/>
      </defs>
      <g transform="translate(42.704687 348.201196)scale(0.1 -0.1)">
       <use xlink:href="#DejaVuSans-Bold-2212"/>
       <use x="83.789062" xlink:href="#DejaVuSans-Bold-37"/>
       <use x="153.369141" xlink:href="#DejaVuSans-Bold-35"/>
      </g>
     </g>
    </g>
    <g id="ytick_2">
     <g id="line2d_17">
      <path clip-path="url(#pf119fa4d06)" d="M 72 302.321346 
L 518.4 302.321346 
" style="fill:none;stroke:#b0b0b0;stroke-dasharray:5.12,1.28,0.8,1.28;stroke-dashoffset:0;stroke-width:0.8;"/>
     </g>
     <g id="line2d_18">
      <g>
       <use style="stroke:#000000;stroke-width:0.8;" x="72" xlink:href="#m8fd69c0118" y="302.321346"/>
      </g>
     </g>
     <g id="text_10">
      <!-- −50 -->
      <g transform="translate(42.704687 306.120565)scale(0.1 -0.1)">
       <use xlink:href="#DejaVuSans-Bold-2212"/>
       <use x="83.789062" xlink:href="#DejaVuSans-Bold-35"/>
       <use x="153.369141" xlink:href="#DejaVuSans-Bold-30"/>
      </g>
     </g>
    </g>
    <g id="ytick_3">
     <g id="line2d_19">
      <path clip-path="url(#pf119fa4d06)" d="M 72 260.240715 
L 518.4 260.240715 
" style="fill:none;stroke:#b0b0b0;stroke-dasharray:5.12,1.28,0.8,1.28;stroke-dashoffset:0;stroke-width:0.8;"/>
     </g>
     <g id="line2d_20">
      <g>
       <use style="stroke:#000000;stroke-width:0.8;" x="72" xlink:href="#m8fd69c0118" y="260.240715"/>
      </g>
     </g>
     <g id="text_11">
      <!-- −25 -->
      <g transform="translate(42.704687 264.039934)scale(0.1 -0.1)">
       <use xlink:href="#DejaVuSans-Bold-2212"/>
       <use x="83.789062" xlink:href="#DejaVuSans-Bold-32"/>
       <use x="153.369141" xlink:href="#DejaVuSans-Bold-35"/>
      </g>
     </g>
    </g>
    <g id="ytick_4">
     <g id="line2d_21">
      <path clip-path="url(#pf119fa4d06)" d="M 72 218.160084 
L 518.4 218.160084 
" style="fill:none;stroke:#b0b0b0;stroke-dasharray:5.12,1.28,0.8,1.28;stroke-dashoffset:0;stroke-width:0.8;"/>
     </g>
     <g id="line2d_22">
      <g>
       <use style="stroke:#000000;stroke-width:0.8;" x="72" xlink:href="#m8fd69c0118" y="218.160084"/>
      </g>
     </g>
     <g id="text_12">
      <!-- 0 -->
      <g transform="translate(58.042187 221.959303)scale(0.1 -0.1)">
       <use xlink:href="#DejaVuSans-Bold-30"/>
      </g>
     </g>
    </g>
    <g id="ytick_5">
     <g id="line2d_23">
      <path clip-path="url(#pf119fa4d06)" d="M 72 176.079453 
L 518.4 176.079453 
" style="fill:none;stroke:#b0b0b0;stroke-dasharray:5.12,1.28,0.8,1.28;stroke-dashoffset:0;stroke-width:0.8;"/>
     </g>
     <g id="line2d_24">
      <g>
       <use style="stroke:#000000;stroke-width:0.8;" x="72" xlink:href="#m8fd69c0118" y="176.079453"/>
      </g>
     </g>
     <g id="text_13">
      <!-- 25 -->
      <g transform="translate(51.084375 179.878672)scale(0.1 -0.1)">
       <use xlink:href="#DejaVuSans-Bold-32"/>
       <use x="69.580078" xlink:href="#DejaVuSans-Bold-35"/>
      </g>
     </g>
    </g>
    <g id="ytick_6">
     <g id="line2d_25">
      <path clip-path="url(#pf119fa4d06)" d="M 72 133.998822 
L 518.4 133.998822 
" style="fill:none;stroke:#b0b0b0;stroke-dasharray:5.12,1.28,0.8,1.28;stroke-dashoffset:0;stroke-width:0.8;"/>
     </g>
     <g id="line2d_26">
      <g>
       <use style="stroke:#000000;stroke-width:0.8;" x="72" xlink:href="#m8fd69c0118" y="133.998822"/>
      </g>
     </g>
     <g id="text_14">
      <!-- 50 -->
      <g transform="translate(51.084375 137.798041)scale(0.1 -0.1)">
       <use xlink:href="#DejaVuSans-Bold-35"/>
       <use x="69.580078" xlink:href="#DejaVuSans-Bold-30"/>
      </g>
     </g>
    </g>
    <g id="ytick_7">
     <g id="line2d_27">
      <path clip-path="url(#pf119fa4d06)" d="M 72 91.918191 
L 518.4 91.918191 
" style="fill:none;stroke:#b0b0b0;stroke-dasharray:5.12,1.28,0.8,1.28;stroke-dashoffset:0;stroke-width:0.8;"/>
     </g>
     <g id="line2d_28">
      <g>
       <use style="stroke:#000000;stroke-width:0.8;" x="72" xlink:href="#m8fd69c0118" y="91.918191"/>
      </g>
     </g>
     <g id="text_15">
      <!-- 75 -->
      <g transform="translate(51.084375 95.717409)scale(0.1 -0.1)">
       <use xlink:href="#DejaVuSans-Bold-37"/>
       <use x="69.580078" xlink:href="#DejaVuSans-Bold-35"/>
      </g>
     </g>
    </g>
    <g id="text_16">
     <!-- $i_{mn}[A]$ -->
     <defs>
      <path d="M 18.3125 75.984375 
L 27.296875 75.984375 
L 25.09375 64.59375 
L 16.109375 64.59375 
z
M 14.203125 54.6875 
L 23.1875 54.6875 
L 12.5 0 
L 3.515625 0 
z
" id="DejaVuSans-Oblique-69"/>
      <path d="M 89.796875 33.015625 
L 83.40625 0 
L 74.421875 0 
L 80.71875 32.71875 
Q 81.109375 34.8125 81.296875 36.328125 
Q 81.5 37.84375 81.5 38.921875 
Q 81.5 43.3125 79.046875 45.75 
Q 76.609375 48.1875 72.21875 48.1875 
Q 65.671875 48.1875 60.546875 43.28125 
Q 55.421875 38.375 53.90625 30.515625 
L 47.90625 0 
L 38.921875 0 
L 45.3125 32.71875 
Q 45.703125 34.515625 45.890625 36.046875 
Q 46.09375 37.59375 46.09375 38.8125 
Q 46.09375 43.265625 43.65625 45.71875 
Q 41.21875 48.1875 36.921875 48.1875 
Q 30.28125 48.1875 25.140625 43.28125 
Q 20.015625 38.375 18.5 30.515625 
L 12.5 0 
L 3.515625 0 
L 14.203125 54.6875 
L 23.1875 54.6875 
L 21.484375 46.1875 
Q 25.140625 50.984375 30.046875 53.484375 
Q 34.96875 56 40.578125 56 
Q 46.53125 56 50.359375 52.875 
Q 54.203125 49.75 54.984375 44.1875 
Q 59.078125 49.953125 64.46875 52.96875 
Q 69.875 56 75.875 56 
Q 82.90625 56 86.734375 51.953125 
Q 90.578125 47.90625 90.578125 40.484375 
Q 90.578125 38.875 90.375 36.9375 
Q 90.1875 35.015625 89.796875 33.015625 
z
" id="DejaVuSans-Oblique-6d"/>
      <path d="M 55.71875 33.015625 
L 49.3125 0 
L 40.28125 0 
L 46.6875 32.671875 
Q 47.125 34.96875 47.359375 36.71875 
Q 47.609375 38.484375 47.609375 39.5 
Q 47.609375 43.609375 45.015625 45.890625 
Q 42.4375 48.1875 37.796875 48.1875 
Q 30.5625 48.1875 25.34375 43.375 
Q 20.125 38.578125 18.5 30.328125 
L 12.5 0 
L 3.515625 0 
L 14.109375 54.6875 
L 23.09375 54.6875 
L 21.296875 46.09375 
Q 25.046875 50.828125 30.3125 53.40625 
Q 35.59375 56 41.40625 56 
Q 48.640625 56 52.609375 52.09375 
Q 56.59375 48.1875 56.59375 41.109375 
Q 56.59375 39.359375 56.375 37.359375 
Q 56.15625 35.359375 55.71875 33.015625 
z
" id="DejaVuSans-Oblique-6e"/>
      <path d="M 8.59375 75.984375 
L 29.296875 75.984375 
L 29.296875 69 
L 17.578125 69 
L 17.578125 -6.203125 
L 29.296875 -6.203125 
L 29.296875 -13.1875 
L 8.59375 -13.1875 
z
" id="DejaVuSans-5b"/>
      <path d="M 36.8125 72.90625 
L 48 72.90625 
L 61.53125 0 
L 51.21875 0 
L 48.1875 18.703125 
L 15.375 18.703125 
L 5.078125 0 
L -5.328125 0 
z
M 40.375 63.1875 
L 19.921875 26.90625 
L 46.6875 26.90625 
z
" id="DejaVuSans-Oblique-41"/>
      <path d="M 30.421875 75.984375 
L 30.421875 -13.1875 
L 9.71875 -13.1875 
L 9.71875 -6.203125 
L 21.390625 -6.203125 
L 21.390625 69 
L 9.71875 69 
L 9.71875 75.984375 
z
" id="DejaVuSans-5d"/>
     </defs>
     <g transform="translate(35.793125 238.46)rotate(-90)scale(0.14 -0.14)">
      <use transform="translate(0 0.015625)" xlink:href="#DejaVuSans-Oblique-69"/>
      <use transform="translate(27.783203 -16.390625)scale(0.7)" xlink:href="#DejaVuSans-Oblique-6d"/>
      <use transform="translate(95.97168 -16.390625)scale(0.7)" xlink:href="#DejaVuSans-Oblique-6e"/>
      <use transform="translate(143.071289 0.015625)" xlink:href="#DejaVuSans-5b"/>
      <use transform="translate(182.084961 0.015625)" xlink:href="#DejaVuSans-Oblique-41"/>
      <use transform="translate(250.493164 0.015625)" xlink:href="#DejaVuSans-5d"/>
     </g>
    </g>
   </g>
   <g id="line2d_29">
    <path clip-path="url(#pf119fa4d06)" d="M 92.290909 218.160084 
L 93.38072 218.201828 
L 94.198077 218.760322 
L 94.742983 219.383116 
L 95.151662 220.239372 
L 95.560341 221.60632 
L 96.105246 224.32759 
L 96.786377 229.172417 
L 97.603735 236.910203 
L 98.693546 249.844443 
L 100.192035 270.521182 
L 100.328261 264.93927 
L 100.73694 237.352218 
L 101.145619 226.146988 
L 101.554298 221.652608 
L 101.962977 219.753594 
L 102.371656 218.869564 
L 102.780335 218.436975 
L 103.32524 218.208561 
L 104.278824 218.160757 
L 118.582587 218.197115 
L 118.85504 216.982836 
L 119.127492 216.53594 
L 119.536171 216.315943 
L 120.762208 216.092242 
L 121.715792 216.064469 
L 121.988245 228.603824 
L 122.396924 222.11499 
L 122.669377 220.318316 
L 123.214282 218.403647 
L 123.486734 216.598556 
L 123.759187 216.034676 
L 124.03164 215.893958 
L 124.576545 215.920553 
L 124.712771 217.769408 
L 124.985224 223.382627 
L 125.393903 220.178271 
L 125.802582 219.029975 
L 126.075034 218.720766 
L 126.211261 218.269662 
L 126.61994 216.286654 
L 126.756166 216.078439 
L 126.892392 216.09443 
L 127.164845 218.502957 
L 127.301071 220.402645 
L 127.437297 220.378238 
L 127.845976 219.02947 
L 128.254655 218.535948 
L 128.799561 218.316961 
L 129.480692 218.215126 
L 130.706729 218.160084 
L 141.332381 218.183986 
L 141.604834 217.638621 
L 142.149739 216.214276 
L 142.285965 216.209731 
L 142.422192 216.456324 
L 142.694644 217.666563 
L 143.23955 220.389516 
L 143.648229 219.078452 
L 143.784455 218.85088 
L 144.465586 216.165462 
L 144.601813 216.233465 
L 144.874265 217.667236 
L 145.146718 220.278928 
L 145.282944 220.233818 
L 145.691623 218.995132 
L 146.236528 217.981157 
L 146.645207 216.341528 
L 146.781434 216.263426 
L 146.91766 216.588962 
L 147.190113 218.425529 
L 147.462565 220.161271 
L 147.871244 218.960626 
L 148.279923 218.510363 
L 148.416149 218.37823 
L 148.961055 216.812157 
L 149.097281 216.831683 
L 149.233507 217.165971 
L 149.50596 218.689459 
L 149.642186 219.682225 
L 150.187091 218.649734 
L 150.59577 218.378062 
L 150.731997 218.332615 
L 151.413128 217.506488 
L 151.685581 218.038724 
L 151.958034 218.909456 
L 152.366712 218.455659 
L 152.911618 218.256701 
L 154.273881 218.165807 
L 159.722933 218.160084 
L 166.261796 218.09528 
L 167.079154 217.155872 
L 167.351607 217.473497 
L 168.032738 219.301816 
L 169.395001 217.15402 
L 169.531228 217.358027 
L 169.80368 218.370487 
L 170.076133 219.303331 
L 170.484812 218.619941 
L 171.029717 218.133994 
L 171.438396 217.262252 
L 171.574622 217.179605 
L 171.710849 217.296421 
L 171.983301 218.151668 
L 172.255754 219.254686 
L 172.664433 218.597723 
L 173.073112 218.349615 
L 173.209338 218.308713 
L 173.89047 217.44606 
L 174.026696 217.584253 
L 174.299149 218.324535 
L 174.435375 218.837751 
L 174.571601 218.861989 
L 174.98028 218.439668 
L 176.206317 217.803072 
L 176.47877 218.04613 
L 176.751222 218.572643 
L 177.296127 218.283296 
L 178.113485 218.187521 
L 181.655369 218.160084 
L 191.054985 218.129618 
L 192.008569 217.678345 
L 192.281022 217.964662 
L 192.825927 218.75056 
L 193.643285 218.097637 
L 194.051964 217.645186 
L 194.324416 217.725307 
L 194.596869 218.236166 
L 194.869322 218.774293 
L 195.278001 218.407013 
L 195.959132 217.992772 
L 196.367811 217.647542 
L 196.640264 217.86451 
L 197.048943 218.743995 
L 197.457622 218.393548 
L 198.819885 217.852054 
L 199.092337 218.233809 
L 199.36479 218.536285 
L 199.909695 218.272019 
L 201.271958 218.094607 
L 201.680637 218.330763 
L 202.361769 218.198125 
L 204.677616 218.160084 
L 215.9844 218.099151 
L 216.665531 217.881174 
L 217.07421 218.060606 
L 217.619116 218.476194 
L 219.117605 217.932007 
L 219.798737 218.398766 
L 220.343642 218.233809 
L 220.616094 218.156718 
L 221.161 217.888075 
L 221.433452 218.005732 
L 221.842131 218.468451 
L 222.387037 218.25182 
L 223.204394 218.011624 
L 223.476847 217.959949 
L 223.7493 218.079963 
L 224.157979 218.35921 
L 224.83911 218.205026 
L 226.201373 218.19459 
L 226.473826 218.25081 
L 227.42741 218.172372 
L 234.511178 218.160084 
L 241.050041 218.061952 
L 241.594946 218.026773 
L 242.820983 218.233641 
L 244.04702 218.104706 
L 244.455699 218.328238 
L 245.136831 218.19863 
L 245.681736 218.060942 
L 246.090415 218.032327 
L 246.907773 218.248117 
L 248.406262 218.07424 
L 249.087394 218.237344 
L 250.585883 218.105548 
L 252.493051 218.164292 
L 266.796814 218.170857 
L 267.341719 218.228928 
L 268.840209 218.134331 
L 269.385114 218.224552 
L 271.01983 218.120865 
L 271.564735 218.223037 
L 273.199451 218.115815 
L 274.153035 218.181798 
L 277.422466 218.161936 
L 296.085471 218.192234 
L 296.902829 218.170184 
L 303.850371 218.160084 
L 498.109091 218.159916 
L 498.109091 218.159916 
" style="fill:none;stroke:#bf00bf;stroke-linecap:square;stroke-width:1.5;"/>
   </g>
   <g id="line2d_30">
    <path clip-path="url(#pf119fa4d06)" d="M 92.290909 218.160084 
L 93.653172 218.075755 
L 94.47053 217.620947 
L 95.015435 217.074236 
L 95.424114 216.319309 
L 95.96902 214.678838 
L 96.513925 212.263914 
L 97.195056 208.199094 
L 98.012414 201.966616 
L 99.102225 191.884096 
L 100.328261 179.150329 
L 100.464488 183.3456 
L 100.873167 203.886502 
L 101.281846 212.136158 
L 101.690525 215.478201 
L 102.099204 216.934191 
L 102.507882 217.63071 
L 102.916561 217.968196 
L 103.461467 218.133658 
L 104.687503 218.158064 
L 118.037682 218.080299 
L 118.718814 218.098141 
L 118.991266 219.002538 
L 119.263719 219.313767 
L 119.808624 219.483772 
L 121.852019 219.903569 
L 122.124471 210.556956 
L 122.53315 215.27066 
L 122.805603 216.500592 
L 123.350508 217.895145 
L 123.622961 219.265627 
L 123.895413 219.696196 
L 124.304092 219.850716 
L 124.712771 219.888756 
L 124.848998 218.52972 
L 125.12145 214.345054 
L 125.530129 216.669083 
L 125.938808 217.469457 
L 126.211261 217.698039 
L 126.347487 218.041417 
L 126.756166 219.545547 
L 127.028619 219.7068 
L 127.301071 217.924433 
L 127.437297 216.509682 
L 127.573524 216.534425 
L 127.982203 217.514904 
L 128.390882 217.864173 
L 129.208239 218.108914 
L 131.115408 218.160084 
L 141.468608 218.134667 
L 141.74106 218.542681 
L 142.285965 219.609678 
L 142.422192 219.615569 
L 142.558418 219.434454 
L 142.830871 218.536117 
L 143.375776 216.501771 
L 143.784455 217.469289 
L 143.920681 217.63475 
L 144.738039 219.599915 
L 145.010492 218.539146 
L 145.282944 216.59418 
L 145.419171 216.630874 
L 145.827849 217.532746 
L 146.372755 218.279425 
L 146.781434 219.512556 
L 146.91766 219.575172 
L 147.053886 219.337164 
L 147.326339 217.974761 
L 147.598792 216.683727 
L 148.00747 217.562371 
L 148.688602 218.290871 
L 149.097281 219.163118 
L 149.233507 219.152177 
L 149.369734 218.906426 
L 149.642186 217.775299 
L 149.778413 217.035353 
L 150.323318 217.792804 
L 151.140676 218.367962 
L 151.413128 218.651923 
L 151.549355 218.648219 
L 151.821807 218.255018 
L 152.09426 217.60765 
L 152.502939 217.942106 
L 153.18407 218.098815 
L 155.091239 218.160084 
L 166.398023 218.20469 
L 167.21538 218.909119 
L 167.487833 218.674983 
L 168.168965 217.310897 
L 169.531228 218.911308 
L 169.80368 218.451282 
L 170.212359 217.31561 
L 170.621038 217.815865 
L 171.165943 218.172035 
L 171.574622 218.827315 
L 171.710849 218.891109 
L 171.847075 218.806274 
L 172.119528 218.17254 
L 172.39198 217.351463 
L 172.800659 217.834212 
L 173.618017 218.380587 
L 173.89047 218.673805 
L 174.026696 218.692825 
L 174.299149 218.367962 
L 174.707828 217.643502 
L 175.116506 217.951196 
L 176.47877 218.371161 
L 177.023675 217.930997 
L 177.56858 218.09023 
L 179.067069 218.156718 
L 189.284043 218.159243 
L 191.327438 218.241384 
L 192.008569 218.552781 
L 192.281022 218.43647 
L 193.09838 217.794151 
L 194.324416 218.55581 
L 194.596869 218.331773 
L 195.005548 217.706118 
L 195.414227 217.975434 
L 196.095358 218.281613 
L 196.504037 218.542176 
L 196.77649 218.382775 
L 197.185169 217.728505 
L 197.593848 217.986375 
L 198.956111 218.390854 
L 199.637243 217.956751 
L 200.318374 218.108409 
L 200.863279 218.258553 
L 201.271958 218.274543 
L 201.95309 218.068685 
L 202.906674 218.145103 
L 208.900632 218.160084 
L 216.256853 218.247275 
L 216.801758 218.368131 
L 217.210437 218.235324 
L 217.755342 217.925106 
L 219.253831 218.3311 
L 219.934963 217.984355 
L 221.297226 218.362913 
L 221.569679 218.276395 
L 222.114584 217.992603 
L 222.795715 218.11834 
L 223.204394 218.220344 
L 223.613073 218.309386 
L 224.021752 218.130796 
L 224.294205 218.013475 
L 225.111563 218.132648 
L 226.3376 218.135172 
L 226.610052 218.093597 
L 227.836089 218.153688 
L 239.551552 218.159243 
L 241.322494 218.254176 
L 241.867399 218.234483 
L 242.684757 218.061111 
L 244.04702 218.248453 
L 244.728152 218.068685 
L 246.226641 218.255691 
L 247.180225 218.111776 
L 248.814941 218.141905 
L 249.087394 218.082824 
L 250.585883 218.199135 
L 256.307388 218.160084 
L 498.109091 218.160084 
L 498.109091 218.160084 
" style="fill:none;stroke:#00bfbf;stroke-linecap:square;stroke-width:1.5;"/>
   </g>
   <g id="line2d_31">
    <path clip-path="url(#pf119fa4d06)" d="M 92.290909 218.160084 
L 92.427135 218.160084 
L 92.835814 217.484269 
L 93.925625 216.070528 
L 96.241472 215.956069 
L 97.603735 215.652584 
L 98.693546 215.189023 
L 99.783356 214.490148 
L 100.600714 213.985686 
L 114.76825 214.076748 
L 115.858061 214.463217 
L 117.765229 215.226223 
L 118.446361 215.256521 
L 119.263719 215.030968 
L 120.898434 214.325024 
L 121.579566 214.082976 
L 122.124471 213.985686 
L 138.744081 214.090719 
L 141.332381 214.249279 
L 142.830871 214.079946 
L 143.512002 213.985686 
L 164.62708 214.092065 
L 166.942928 214.094085 
L 170.893491 213.985686 
L 498.109091 213.985686 
L 498.109091 213.985686 
" style="fill:none;stroke:#ff0000;stroke-linecap:square;stroke-width:1.5;"/>
   </g>
   <g id="line2d_32">
    <path clip-path="url(#pf119fa4d06)" d="M 92.290909 218.160084 
L 92.427135 218.160084 
L 92.835814 218.835562 
L 93.925625 220.250818 
L 96.241472 220.383288 
L 97.467509 220.667585 
L 98.557319 221.131145 
L 99.64713 221.83002 
L 100.464488 222.334483 
L 114.76825 222.24342 
L 115.858061 221.856952 
L 117.765229 221.093946 
L 118.446361 221.063648 
L 119.263719 221.284655 
L 120.898434 221.9906 
L 121.579566 222.233826 
L 121.988245 222.334483 
L 138.744081 222.22945 
L 141.332381 222.07089 
L 142.694644 222.211607 
L 143.512002 222.334483 
L 164.62708 222.228103 
L 166.942928 222.22339 
L 170.757264 222.334483 
L 498.109091 222.334483 
L 498.109091 222.334483 
" style="fill:none;stroke:#008000;stroke-linecap:square;stroke-width:1.5;"/>
   </g>
   <g id="line2d_33">
    <path clip-path="url(#pf119fa4d06)" d="M 92.290909 218.160084 
L 92.427135 218.160084 
L 92.699588 272.189426 
L 92.835814 265.471674 
L 93.108267 275.727734 
L 93.38072 279.39969 
L 93.789399 281.508266 
L 93.925625 281.612458 
L 94.334304 244.793421 
L 94.742983 230.127479 
L 95.015435 226.1076 
L 95.287888 224.428415 
L 95.560341 224.070393 
L 95.832793 224.451139 
L 96.241472 225.721637 
L 97.331283 230.284692 
L 99.102225 237.449341 
L 100.73694 243.136454 
L 102.23543 247.582188 
L 103.870146 251.78032 
L 105.504861 255.401611 
L 107.275803 258.76924 
L 109.046745 261.645367 
L 110.817687 264.103886 
L 111.498819 264.951894 
L 111.771272 266.98725 
L 112.179951 273.032386 
L 112.997308 289.63067 
L 114.632024 324.043368 
L 115.721835 339.82613 
L 116.539193 349.176109 
L 117.220324 354.562599 
L 117.629003 356.482485 
L 117.901456 357.167558 
L 118.173908 357.366683 
L 118.446361 357.082555 
L 118.718814 356.329312 
L 119.808624 352.420694 
L 121.307113 348.232493 
L 121.579566 342.860143 
L 121.988245 335.795479 
L 122.396924 331.674102 
L 122.941829 328.518559 
L 123.486734 326.720201 
L 124.03164 325.622065 
L 124.576545 324.95231 
L 125.12145 324.608427 
L 125.666355 324.530157 
L 126.211261 324.674578 
L 126.892392 325.144029 
L 127.573524 325.93262 
L 128.390882 327.274319 
L 129.344466 329.328696 
L 130.434276 332.261379 
L 131.660313 336.204502 
L 133.158803 341.771097 
L 135.202197 350.285692 
L 137.654271 360.556227 
L 138.744081 363.671372 
L 139.561439 365.474779 
L 140.106344 366.292154 
L 140.65125 366.718515 
L 141.059929 366.756892 
L 141.468608 366.552717 
L 142.013513 365.935815 
L 142.694644 364.747963 
L 143.103323 363.924192 
L 143.784455 358.163859 
L 144.32936 355.547117 
L 145.010492 353.422045 
L 145.827849 351.638331 
L 146.781434 350.063506 
L 147.735018 348.877842 
L 148.688602 348.045992 
L 149.50596 347.592194 
L 150.323318 347.392901 
L 151.140676 347.427912 
L 151.958034 347.688643 
L 152.911618 348.274742 
L 153.865202 349.137564 
L 154.955012 350.435499 
L 156.181049 352.248164 
L 157.679539 354.886956 
L 159.586707 358.747938 
L 162.719912 365.253435 
L 163.945949 366.917135 
L 164.763307 367.685191 
L 165.444438 368.006519 
L 165.989344 368.018133 
L 166.534249 367.811601 
L 167.21538 367.296534 
L 167.896512 366.616343 
L 168.986322 362.678437 
L 169.667454 361.478803 
L 170.484812 360.501859 
L 171.574622 359.54646 
L 172.664433 358.849773 
L 173.89047 358.339419 
L 174.98028 358.121273 
L 176.070091 358.120768 
L 177.159901 358.326963 
L 178.385938 358.794732 
L 179.748201 359.579115 
L 181.24669 360.723203 
L 183.017633 362.383031 
L 185.33348 364.900126 
L 187.376874 367.097745 
L 188.739138 368.078224 
L 189.692722 368.528992 
L 190.51008 368.670383 
L 191.327438 368.552893 
L 192.281022 368.147909 
L 192.689701 367.929595 
L 193.779511 365.88212 
L 194.460643 365.253772 
L 195.550453 364.601186 
L 197.048943 363.993373 
L 198.683658 363.598657 
L 200.182148 363.464167 
L 201.816863 363.557081 
L 203.451579 363.885142 
L 205.222521 364.474102 
L 207.265916 365.402232 
L 209.854216 366.84543 
L 212.442516 368.282399 
L 214.077232 368.83719 
L 215.167042 368.99272 
L 216.256853 368.909569 
L 217.482889 368.601875 
L 218.5727 367.51872 
L 219.526284 367.087478 
L 221.161 366.652027 
L 223.204394 366.337601 
L 225.247789 366.23829 
L 227.42741 366.358473 
L 229.743257 366.714643 
L 232.467784 367.373458 
L 238.87042 369.083446 
L 240.36891 369.162726 
L 242.003625 368.996087 
L 242.412304 368.8653 
L 243.093436 368.47395 
L 244.183246 368.174841 
L 246.362867 367.874722 
L 249.22362 367.70539 
L 252.220599 367.761946 
L 255.353804 368.044391 
L 259.304367 368.62847 
L 263.118704 369.170805 
L 265.298325 369.251937 
L 267.205493 369.089337 
L 268.022851 368.856716 
L 269.793793 368.653719 
L 273.60813 368.481861 
L 277.558693 368.52512 
L 282.190387 368.807229 
L 289.546608 369.30479 
L 291.998682 369.21154 
L 293.224718 369.054495 
L 296.766603 368.915124 
L 302.351881 368.913945 
L 309.163197 369.165924 
L 314.748476 369.32987 
L 317.881681 369.20144 
L 322.785828 369.110883 
L 330.82318 369.181578 
L 341.585059 369.315226 
L 344.718264 369.245541 
L 354.799011 369.255977 
L 370.056358 369.296037 
L 384.223895 369.336098 
L 397.165394 369.321959 
L 458.739687 369.356802 
L 498.109091 369.357139 
L 498.109091 369.357139 
" style="fill:none;stroke:#0000ff;stroke-linecap:square;stroke-width:1.5;"/>
   </g>
   <g id="line2d_34">
    <path clip-path="url(#pf119fa4d06)" d="M 92.290909 218.160084 
L 92.427135 218.160084 
L 92.699588 164.130742 
L 93.108267 141.255711 
L 93.38072 136.34103 
L 93.789399 133.516746 
L 93.925625 133.375524 
L 94.334304 182.657497 
L 94.742983 202.790218 
L 95.015435 208.583711 
L 95.287888 211.267782 
L 95.560341 212.191872 
L 95.696567 212.249775 
L 95.96902 211.86903 
L 96.377698 210.598531 
L 97.467509 206.035476 
L 99.238451 198.870828 
L 100.873167 193.183715 
L 102.371656 188.73798 
L 104.006372 184.539848 
L 105.641088 180.918557 
L 107.41203 177.550929 
L 109.182972 174.674802 
L 110.953914 172.216283 
L 111.635045 171.368274 
L 111.907498 169.332918 
L 112.316177 163.287783 
L 113.133535 146.689499 
L 114.359572 121.076702 
L 115.176929 111.427613 
L 118.310135 78.678782 
L 118.85504 74.829415 
L 118.991266 74.223959 
L 119.536171 75.474763 
L 120.353529 76.746777 
L 121.307113 77.942035 
L 121.852019 96.262258 
L 122.260698 102.138734 
L 122.805603 106.459742 
L 123.350508 108.816426 
L 123.895413 110.214344 
L 124.440319 111.076997 
L 124.985224 111.579776 
L 125.530129 111.779744 
L 126.075034 111.744901 
L 126.61994 111.494942 
L 127.301071 110.900932 
L 127.982203 109.985089 
L 128.799561 108.51092 
L 129.753145 106.313975 
L 130.842955 103.237375 
L 132.205218 98.670617 
L 133.839934 92.363404 
L 136.155781 82.447019 
L 137.245592 78.021146 
L 138.199176 75.8343 
L 141.74106 68.481299 
L 142.285965 68.004273 
L 142.694644 67.917923 
L 143.103323 68.091969 
L 143.375776 73.693574 
L 143.920681 78.156309 
L 144.465586 80.773051 
L 145.146718 82.898123 
L 145.964076 84.681837 
L 146.91766 86.256663 
L 147.871244 87.442326 
L 148.824828 88.274176 
L 149.642186 88.727974 
L 150.459544 88.927268 
L 151.276902 88.892257 
L 152.09426 88.631525 
L 153.047844 88.045426 
L 154.001428 87.182605 
L 155.091239 85.88467 
L 156.317275 84.072005 
L 157.815765 81.433212 
L 159.722933 77.57223 
L 162.311233 72.275289 
L 165.444438 68.72402 
L 166.398023 67.845376 
L 167.079154 67.496612 
L 167.624059 67.453858 
L 167.896512 67.521524 
L 168.305191 70.951937 
L 168.850096 72.968441 
L 169.395001 74.185244 
L 170.076133 75.205447 
L 171.029717 76.210669 
L 172.255754 77.154117 
L 173.481791 77.787178 
L 174.571601 78.119278 
L 175.661412 78.225153 
L 176.751222 78.122813 
L 177.977259 77.762603 
L 179.203296 77.166236 
L 180.565559 76.25477 
L 182.200275 74.867119 
L 184.107443 72.937469 
L 187.240648 69.654507 
L 191.191211 67.425243 
L 192.008569 67.223256 
L 192.689701 67.251198 
L 193.09838 69.030535 
L 193.643285 70.085749 
L 194.324416 70.846567 
L 195.278001 71.504203 
L 196.640264 72.134403 
L 198.138753 72.587695 
L 199.637243 72.822337 
L 201.135732 72.840011 
L 202.634221 72.653341 
L 204.268937 72.235396 
L 206.176105 71.503193 
L 208.355726 70.413642 
L 212.442516 68.257598 
L 216.665531 67.107451 
L 217.482889 67.114183 
L 217.891568 68.064027 
L 218.436473 68.616462 
L 219.253831 69.076319 
L 220.479868 69.476422 
L 222.387037 69.863395 
L 224.430431 70.062352 
L 226.610052 70.042154 
L 228.789673 69.799938 
L 231.241747 69.303555 
L 234.374952 68.421376 
L 237.099478 67.669816 
L 241.731173 67.030527 
L 242.276078 67.042478 
L 242.548531 67.454868 
L 243.229662 67.846218 
L 244.319473 68.145327 
L 246.499094 68.445446 
L 249.359846 68.614779 
L 252.356825 68.558222 
L 255.49003 68.275777 
L 259.440593 67.691698 
L 262.437572 67.291764 
L 267.069267 67.004437 
L 267.341719 67.230831 
L 268.159077 67.463453 
L 269.930019 67.66645 
L 273.744356 67.838307 
L 277.694919 67.795048 
L 282.326614 67.512939 
L 289.682834 67.020259 
L 291.862455 66.987268 
L 292.271134 67.137244 
L 293.769624 67.292269 
L 297.992639 67.423729 
L 303.305466 67.387876 
L 310.253007 67.107282 
L 315.020928 66.980872 
L 317.064323 67.056617 
L 319.243944 67.156601 
L 326.05526 67.208949 
L 334.773743 67.045508 
L 341.448833 66.975317 
L 342.538643 67.038607 
L 348.94128 67.095836 
L 359.975611 66.999724 
L 368.012963 67.01016 
L 380.68201 67.009992 
L 400.571052 66.997873 
L 498.109091 66.96303 
L 498.109091 66.96303 
" style="fill:none;stroke:#000000;stroke-linecap:square;stroke-width:1.5;"/>
   </g>
   <g id="patch_3">
    <path d="M 72 384.48 
L 72 51.84 
" style="fill:none;stroke:#000000;stroke-linecap:square;stroke-linejoin:miter;stroke-width:2;"/>
   </g>
   <g id="patch_4">
    <path d="M 518.4 384.48 
L 518.4 51.84 
" style="fill:none;stroke:#000000;stroke-linecap:square;stroke-linejoin:miter;stroke-width:2;"/>
   </g>
   <g id="patch_5">
    <path d="M 72 384.48 
L 518.4 384.48 
" style="fill:none;stroke:#000000;stroke-linecap:square;stroke-linejoin:miter;stroke-width:2;"/>
   </g>
   <g id="patch_6">
    <path d="M 72 51.84 
L 518.4 51.84 
" style="fill:none;stroke:#000000;stroke-linecap:square;stroke-linejoin:miter;stroke-width:2;"/>
   </g>
   <g id="text_17">
    <!-- $i_{mn}$ -->
    <g transform="translate(285.12 45.84)scale(0.14 -0.14)">
     <use transform="translate(0 0.015625)" xlink:href="#DejaVuSans-Oblique-69"/>
     <use transform="translate(27.783203 -16.390625)scale(0.7)" xlink:href="#DejaVuSans-Oblique-6d"/>
     <use transform="translate(95.97168 -16.390625)scale(0.7)" xlink:href="#DejaVuSans-Oblique-6e"/>
    </g>
   </g>
   <g id="legend_1">
    <g id="patch_7">
     <path d="M 79 379.48 
L 123 379.48 
Q 125 379.48 125 377.48 
L 125 290.41125 
Q 125 288.41125 123 288.41125 
L 79 288.41125 
Q 77 288.41125 77 290.41125 
L 77 377.48 
Q 77 379.48 79 379.48 
z
" style="fill:#ffffff;opacity:0.8;stroke:#cccccc;stroke-linejoin:miter;"/>
    </g>
    <g id="line2d_35">
     <path d="M 81 296.509688 
L 101 296.509688 
" style="fill:none;stroke:#bf00bf;stroke-linecap:square;stroke-width:1.5;"/>
    </g>
    <g id="line2d_36"/>
    <g id="text_18">
     <!-- $i_{12}$ -->
     <defs>
      <path d="M 12.40625 8.296875 
L 28.515625 8.296875 
L 28.515625 63.921875 
L 10.984375 60.40625 
L 10.984375 69.390625 
L 28.421875 72.90625 
L 38.28125 72.90625 
L 38.28125 8.296875 
L 54.390625 8.296875 
L 54.390625 0 
L 12.40625 0 
z
" id="DejaVuSans-31"/>
      <path d="M 19.1875 8.296875 
L 53.609375 8.296875 
L 53.609375 0 
L 7.328125 0 
L 7.328125 8.296875 
Q 12.9375 14.109375 22.625 23.890625 
Q 32.328125 33.6875 34.8125 36.53125 
Q 39.546875 41.84375 41.421875 45.53125 
Q 43.3125 49.21875 43.3125 52.78125 
Q 43.3125 58.59375 39.234375 62.25 
Q 35.15625 65.921875 28.609375 65.921875 
Q 23.96875 65.921875 18.8125 64.3125 
Q 13.671875 62.703125 7.8125 59.421875 
L 7.8125 69.390625 
Q 13.765625 71.78125 18.9375 73 
Q 24.125 74.21875 28.421875 74.21875 
Q 39.75 74.21875 46.484375 68.546875 
Q 53.21875 62.890625 53.21875 53.421875 
Q 53.21875 48.921875 51.53125 44.890625 
Q 49.859375 40.875 45.40625 35.40625 
Q 44.1875 33.984375 37.640625 27.21875 
Q 31.109375 20.453125 19.1875 8.296875 
z
" id="DejaVuSans-32"/>
     </defs>
     <g transform="translate(109 300.009688)scale(0.1 -0.1)">
      <use transform="translate(0 0.015625)" xlink:href="#DejaVuSans-Oblique-69"/>
      <use transform="translate(27.783203 -16.390625)scale(0.7)" xlink:href="#DejaVuSans-31"/>
      <use transform="translate(72.319336 -16.390625)scale(0.7)" xlink:href="#DejaVuSans-32"/>
     </g>
    </g>
    <g id="line2d_37">
     <path d="M 81 311.187813 
L 101 311.187813 
" style="fill:none;stroke:#00bfbf;stroke-linecap:square;stroke-width:1.5;"/>
    </g>
    <g id="line2d_38"/>
    <g id="text_19">
     <!-- $i_{21}$ -->
     <g transform="translate(109 314.687813)scale(0.1 -0.1)">
      <use transform="translate(0 0.015625)" xlink:href="#DejaVuSans-Oblique-69"/>
      <use transform="translate(27.783203 -16.390625)scale(0.7)" xlink:href="#DejaVuSans-32"/>
      <use transform="translate(72.319336 -16.390625)scale(0.7)" xlink:href="#DejaVuSans-31"/>
     </g>
    </g>
    <g id="line2d_39">
     <path d="M 81 325.865938 
L 101 325.865938 
" style="fill:none;stroke:#ff0000;stroke-linecap:square;stroke-width:1.5;"/>
    </g>
    <g id="line2d_40"/>
    <g id="text_20">
     <!-- $i_{23}$ -->
     <defs>
      <path d="M 40.578125 39.3125 
Q 47.65625 37.796875 51.625 33 
Q 55.609375 28.21875 55.609375 21.1875 
Q 55.609375 10.40625 48.1875 4.484375 
Q 40.765625 -1.421875 27.09375 -1.421875 
Q 22.515625 -1.421875 17.65625 -0.515625 
Q 12.796875 0.390625 7.625 2.203125 
L 7.625 11.71875 
Q 11.71875 9.328125 16.59375 8.109375 
Q 21.484375 6.890625 26.8125 6.890625 
Q 36.078125 6.890625 40.9375 10.546875 
Q 45.796875 14.203125 45.796875 21.1875 
Q 45.796875 27.640625 41.28125 31.265625 
Q 36.765625 34.90625 28.71875 34.90625 
L 20.21875 34.90625 
L 20.21875 43.015625 
L 29.109375 43.015625 
Q 36.375 43.015625 40.234375 45.921875 
Q 44.09375 48.828125 44.09375 54.296875 
Q 44.09375 59.90625 40.109375 62.90625 
Q 36.140625 65.921875 28.71875 65.921875 
Q 24.65625 65.921875 20.015625 65.03125 
Q 15.375 64.15625 9.8125 62.3125 
L 9.8125 71.09375 
Q 15.4375 72.65625 20.34375 73.4375 
Q 25.25 74.21875 29.59375 74.21875 
Q 40.828125 74.21875 47.359375 69.109375 
Q 53.90625 64.015625 53.90625 55.328125 
Q 53.90625 49.265625 50.4375 45.09375 
Q 46.96875 40.921875 40.578125 39.3125 
z
" id="DejaVuSans-33"/>
     </defs>
     <g transform="translate(109 329.365938)scale(0.1 -0.1)">
      <use transform="translate(0 0.015625)" xlink:href="#DejaVuSans-Oblique-69"/>
      <use transform="translate(27.783203 -16.390625)scale(0.7)" xlink:href="#DejaVuSans-32"/>
      <use transform="translate(72.319336 -16.390625)scale(0.7)" xlink:href="#DejaVuSans-33"/>
     </g>
    </g>
    <g id="line2d_41">
     <path d="M 81 340.544062 
L 101 340.544062 
" style="fill:none;stroke:#008000;stroke-linecap:square;stroke-width:1.5;"/>
    </g>
    <g id="line2d_42"/>
    <g id="text_21">
     <!-- $i_{32}$ -->
     <g transform="translate(109 344.044062)scale(0.1 -0.1)">
      <use transform="translate(0 0.015625)" xlink:href="#DejaVuSans-Oblique-69"/>
      <use transform="translate(27.783203 -16.390625)scale(0.7)" xlink:href="#DejaVuSans-33"/>
      <use transform="translate(72.319336 -16.390625)scale(0.7)" xlink:href="#DejaVuSans-32"/>
     </g>
    </g>
    <g id="line2d_43">
     <path d="M 81 355.222188 
L 101 355.222188 
" style="fill:none;stroke:#0000ff;stroke-linecap:square;stroke-width:1.5;"/>
    </g>
    <g id="line2d_44"/>
    <g id="text_22">
     <!-- $i_{34}$ -->
     <defs>
      <path d="M 37.796875 64.3125 
L 12.890625 25.390625 
L 37.796875 25.390625 
z
M 35.203125 72.90625 
L 47.609375 72.90625 
L 47.609375 25.390625 
L 58.015625 25.390625 
L 58.015625 17.1875 
L 47.609375 17.1875 
L 47.609375 0 
L 37.796875 0 
L 37.796875 17.1875 
L 4.890625 17.1875 
L 4.890625 26.703125 
z
" id="DejaVuSans-34"/>
     </defs>
     <g transform="translate(109 358.722188)scale(0.1 -0.1)">
      <use transform="translate(0 0.015625)" xlink:href="#DejaVuSans-Oblique-69"/>
      <use transform="translate(27.783203 -16.390625)scale(0.7)" xlink:href="#DejaVuSans-33"/>
      <use transform="translate(72.319336 -16.390625)scale(0.7)" xlink:href="#DejaVuSans-34"/>
     </g>
    </g>
    <g id="line2d_45">
     <path d="M 81 369.900313 
L 101 369.900313 
" style="fill:none;stroke:#000000;stroke-linecap:square;stroke-width:1.5;"/>
    </g>
    <g id="line2d_46"/>
    <g id="text_23">
     <!-- $i_{43}$ -->
     <g transform="translate(109 373.400313)scale(0.1 -0.1)">
      <use transform="translate(0 0.015625)" xlink:href="#DejaVuSans-Oblique-69"/>
      <use transform="translate(27.783203 -16.390625)scale(0.7)" xlink:href="#DejaVuSans-34"/>
      <use transform="translate(72.319336 -16.390625)scale(0.7)" xlink:href="#DejaVuSans-33"/>
     </g>
    </g>
   </g>
  </g>
 </g>
 <defs>
  <clipPath id="pf119fa4d06">
   <rect height="332.64" width="446.4" x="72" y="51.84"/>
  </clipPath>
 </defs>
</svg>
