<?xml version="1.0" encoding="utf-8" standalone="no"?>
<!DOCTYPE svg PUBLIC "-//W3C//DTD SVG 1.1//EN"
  "http://www.w3.org/Graphics/SVG/1.1/DTD/svg11.dtd">
<!-- Created with matplotlib (http://matplotlib.org/) -->
<svg height="432pt" version="1.1" viewBox="0 0 576 432" width="576pt" xmlns="http://www.w3.org/2000/svg" xmlns:xlink="http://www.w3.org/1999/xlink">
 <defs>
  <style type="text/css">
*{stroke-linecap:butt;stroke-linejoin:round;}
  </style>
 </defs>
 <g id="figure_1">
  <g id="patch_1">
   <path d="M 0 432 
L 576 432 
L 576 0 
L 0 0 
z
" style="fill:#ffffff;"/>
  </g>
  <g id="axes_1">
   <g id="patch_2">
    <path d="M 72 384.48 
L 518.4 384.48 
L 518.4 51.84 
L 72 51.84 
z
" style="fill:#ffffff;"/>
   </g>
   <g id="matplotlib.axis_1">
    <g id="xtick_1">
     <g id="line2d_1">
      <path clip-path="url(#p6defac2d42)" d="M 92.290909 384.48 
L 92.290909 51.84 
" style="fill:none;stroke:#b0b0b0;stroke-dasharray:5.12,1.28,0.8,1.28;stroke-dashoffset:0;stroke-width:0.8;"/>
     </g>
     <g id="line2d_2">
      <defs>
       <path d="M 0 0 
L 0 3.5 
" id="md6a4ac9b6b" style="stroke:#000000;stroke-width:0.8;"/>
      </defs>
      <g>
       <use style="stroke:#000000;stroke-width:0.8;" x="92.290909" xlink:href="#md6a4ac9b6b" y="384.48"/>
      </g>
     </g>
     <g id="text_1">
      <!-- 0 -->
      <defs>
       <path d="M 46 36.53125 
Q 46 50.203125 43.4375 55.78125 
Q 40.875 61.375 34.8125 61.375 
Q 28.765625 61.375 26.171875 55.78125 
Q 23.578125 50.203125 23.578125 36.53125 
Q 23.578125 22.703125 26.171875 17.03125 
Q 28.765625 11.375 34.8125 11.375 
Q 40.828125 11.375 43.40625 17.03125 
Q 46 22.703125 46 36.53125 
z
M 64.796875 36.375 
Q 64.796875 18.265625 56.984375 8.421875 
Q 49.171875 -1.421875 34.8125 -1.421875 
Q 20.40625 -1.421875 12.59375 8.421875 
Q 4.78125 18.265625 4.78125 36.375 
Q 4.78125 54.546875 12.59375 64.375 
Q 20.40625 74.21875 34.8125 74.21875 
Q 49.171875 74.21875 56.984375 64.375 
Q 64.796875 54.546875 64.796875 36.375 
z
" id="DejaVuSans-Bold-30"/>
      </defs>
      <g transform="translate(88.812003 399.078438)scale(0.1 -0.1)">
       <use xlink:href="#DejaVuSans-Bold-30"/>
      </g>
     </g>
    </g>
    <g id="xtick_2">
     <g id="line2d_3">
      <path clip-path="url(#p6defac2d42)" d="M 160.404065 384.48 
L 160.404065 51.84 
" style="fill:none;stroke:#b0b0b0;stroke-dasharray:5.12,1.28,0.8,1.28;stroke-dashoffset:0;stroke-width:0.8;"/>
     </g>
     <g id="line2d_4">
      <g>
       <use style="stroke:#000000;stroke-width:0.8;" x="160.404065" xlink:href="#md6a4ac9b6b" y="384.48"/>
      </g>
     </g>
     <g id="text_2">
      <!-- 500 -->
      <defs>
       <path d="M 10.59375 72.90625 
L 57.328125 72.90625 
L 57.328125 59.078125 
L 25.59375 59.078125 
L 25.59375 47.796875 
Q 27.734375 48.390625 29.90625 48.703125 
Q 32.078125 49.03125 34.421875 49.03125 
Q 47.75 49.03125 55.171875 42.359375 
Q 62.59375 35.6875 62.59375 23.78125 
Q 62.59375 11.96875 54.515625 5.265625 
Q 46.4375 -1.421875 32.078125 -1.421875 
Q 25.875 -1.421875 19.796875 -0.21875 
Q 13.71875 0.984375 7.71875 3.421875 
L 7.71875 18.21875 
Q 13.671875 14.796875 19.015625 13.078125 
Q 24.359375 11.375 29.109375 11.375 
Q 35.9375 11.375 39.859375 14.71875 
Q 43.796875 18.0625 43.796875 23.78125 
Q 43.796875 29.546875 39.859375 32.859375 
Q 35.9375 36.1875 29.109375 36.1875 
Q 25.046875 36.1875 20.453125 35.125 
Q 15.875 34.078125 10.59375 31.890625 
z
" id="DejaVuSans-Bold-35"/>
      </defs>
      <g transform="translate(149.967346 399.078438)scale(0.1 -0.1)">
       <use xlink:href="#DejaVuSans-Bold-35"/>
       <use x="69.580078" xlink:href="#DejaVuSans-Bold-30"/>
       <use x="139.160156" xlink:href="#DejaVuSans-Bold-30"/>
      </g>
     </g>
    </g>
    <g id="xtick_3">
     <g id="line2d_5">
      <path clip-path="url(#p6defac2d42)" d="M 228.517221 384.48 
L 228.517221 51.84 
" style="fill:none;stroke:#b0b0b0;stroke-dasharray:5.12,1.28,0.8,1.28;stroke-dashoffset:0;stroke-width:0.8;"/>
     </g>
     <g id="line2d_6">
      <g>
       <use style="stroke:#000000;stroke-width:0.8;" x="228.517221" xlink:href="#md6a4ac9b6b" y="384.48"/>
      </g>
     </g>
     <g id="text_3">
      <!-- 1000 -->
      <defs>
       <path d="M 11.71875 12.984375 
L 28.328125 12.984375 
L 28.328125 60.109375 
L 11.28125 56.59375 
L 11.28125 69.390625 
L 28.21875 72.90625 
L 46.09375 72.90625 
L 46.09375 12.984375 
L 62.703125 12.984375 
L 62.703125 0 
L 11.71875 0 
z
" id="DejaVuSans-Bold-31"/>
      </defs>
      <g transform="translate(214.601596 399.078438)scale(0.1 -0.1)">
       <use xlink:href="#DejaVuSans-Bold-31"/>
       <use x="69.580078" xlink:href="#DejaVuSans-Bold-30"/>
       <use x="139.160156" xlink:href="#DejaVuSans-Bold-30"/>
       <use x="208.740234" xlink:href="#DejaVuSans-Bold-30"/>
      </g>
     </g>
    </g>
    <g id="xtick_4">
     <g id="line2d_7">
      <path clip-path="url(#p6defac2d42)" d="M 296.630376 384.48 
L 296.630376 51.84 
" style="fill:none;stroke:#b0b0b0;stroke-dasharray:5.12,1.28,0.8,1.28;stroke-dashoffset:0;stroke-width:0.8;"/>
     </g>
     <g id="line2d_8">
      <g>
       <use style="stroke:#000000;stroke-width:0.8;" x="296.630376" xlink:href="#md6a4ac9b6b" y="384.48"/>
      </g>
     </g>
     <g id="text_4">
      <!-- 1500 -->
      <g transform="translate(282.714751 399.078438)scale(0.1 -0.1)">
       <use xlink:href="#DejaVuSans-Bold-31"/>
       <use x="69.580078" xlink:href="#DejaVuSans-Bold-35"/>
       <use x="139.160156" xlink:href="#DejaVuSans-Bold-30"/>
       <use x="208.740234" xlink:href="#DejaVuSans-Bold-30"/>
      </g>
     </g>
    </g>
    <g id="xtick_5">
     <g id="line2d_9">
      <path clip-path="url(#p6defac2d42)" d="M 364.743532 384.48 
L 364.743532 51.84 
" style="fill:none;stroke:#b0b0b0;stroke-dasharray:5.12,1.28,0.8,1.28;stroke-dashoffset:0;stroke-width:0.8;"/>
     </g>
     <g id="line2d_10">
      <g>
       <use style="stroke:#000000;stroke-width:0.8;" x="364.743532" xlink:href="#md6a4ac9b6b" y="384.48"/>
      </g>
     </g>
     <g id="text_5">
      <!-- 2000 -->
      <defs>
       <path d="M 28.8125 13.8125 
L 60.890625 13.8125 
L 60.890625 0 
L 7.90625 0 
L 7.90625 13.8125 
L 34.515625 37.3125 
Q 38.09375 40.53125 39.796875 43.609375 
Q 41.5 46.6875 41.5 50 
Q 41.5 55.125 38.0625 58.25 
Q 34.625 61.375 28.90625 61.375 
Q 24.515625 61.375 19.28125 59.5 
Q 14.0625 57.625 8.109375 53.90625 
L 8.109375 69.921875 
Q 14.453125 72.015625 20.65625 73.109375 
Q 26.859375 74.21875 32.8125 74.21875 
Q 45.90625 74.21875 53.15625 68.453125 
Q 60.40625 62.703125 60.40625 52.390625 
Q 60.40625 46.4375 57.328125 41.28125 
Q 54.25 36.140625 44.390625 27.484375 
z
" id="DejaVuSans-Bold-32"/>
      </defs>
      <g transform="translate(350.827907 399.078438)scale(0.1 -0.1)">
       <use xlink:href="#DejaVuSans-Bold-32"/>
       <use x="69.580078" xlink:href="#DejaVuSans-Bold-30"/>
       <use x="139.160156" xlink:href="#DejaVuSans-Bold-30"/>
       <use x="208.740234" xlink:href="#DejaVuSans-Bold-30"/>
      </g>
     </g>
    </g>
    <g id="xtick_6">
     <g id="line2d_11">
      <path clip-path="url(#p6defac2d42)" d="M 432.856688 384.48 
L 432.856688 51.84 
" style="fill:none;stroke:#b0b0b0;stroke-dasharray:5.12,1.28,0.8,1.28;stroke-dashoffset:0;stroke-width:0.8;"/>
     </g>
     <g id="line2d_12">
      <g>
       <use style="stroke:#000000;stroke-width:0.8;" x="432.856688" xlink:href="#md6a4ac9b6b" y="384.48"/>
      </g>
     </g>
     <g id="text_6">
      <!-- 2500 -->
      <g transform="translate(418.941063 399.078438)scale(0.1 -0.1)">
       <use xlink:href="#DejaVuSans-Bold-32"/>
       <use x="69.580078" xlink:href="#DejaVuSans-Bold-35"/>
       <use x="139.160156" xlink:href="#DejaVuSans-Bold-30"/>
       <use x="208.740234" xlink:href="#DejaVuSans-Bold-30"/>
      </g>
     </g>
    </g>
    <g id="xtick_7">
     <g id="line2d_13">
      <path clip-path="url(#p6defac2d42)" d="M 500.969843 384.48 
L 500.969843 51.84 
" style="fill:none;stroke:#b0b0b0;stroke-dasharray:5.12,1.28,0.8,1.28;stroke-dashoffset:0;stroke-width:0.8;"/>
     </g>
     <g id="line2d_14">
      <g>
       <use style="stroke:#000000;stroke-width:0.8;" x="500.969843" xlink:href="#md6a4ac9b6b" y="384.48"/>
      </g>
     </g>
     <g id="text_7">
      <!-- 3000 -->
      <defs>
       <path d="M 46.578125 39.3125 
Q 53.953125 37.40625 57.78125 32.6875 
Q 61.625 27.984375 61.625 20.703125 
Q 61.625 9.859375 53.3125 4.21875 
Q 45.015625 -1.421875 29.109375 -1.421875 
Q 23.484375 -1.421875 17.84375 -0.515625 
Q 12.203125 0.390625 6.6875 2.203125 
L 6.6875 16.703125 
Q 11.96875 14.0625 17.15625 12.71875 
Q 22.359375 11.375 27.390625 11.375 
Q 34.859375 11.375 38.84375 13.953125 
Q 42.828125 16.546875 42.828125 21.390625 
Q 42.828125 26.375 38.75 28.9375 
Q 34.671875 31.5 26.703125 31.5 
L 19.1875 31.5 
L 19.1875 43.609375 
L 27.09375 43.609375 
Q 34.1875 43.609375 37.640625 45.828125 
Q 41.109375 48.046875 41.109375 52.59375 
Q 41.109375 56.78125 37.734375 59.078125 
Q 34.375 61.375 28.21875 61.375 
Q 23.6875 61.375 19.046875 60.34375 
Q 14.40625 59.328125 9.8125 57.328125 
L 9.8125 71.09375 
Q 15.375 72.65625 20.84375 73.4375 
Q 26.3125 74.21875 31.59375 74.21875 
Q 45.796875 74.21875 52.84375 69.546875 
Q 59.90625 64.890625 59.90625 55.515625 
Q 59.90625 49.125 56.53125 45.046875 
Q 53.171875 40.96875 46.578125 39.3125 
z
" id="DejaVuSans-Bold-33"/>
      </defs>
      <g transform="translate(487.054218 399.078438)scale(0.1 -0.1)">
       <use xlink:href="#DejaVuSans-Bold-33"/>
       <use x="69.580078" xlink:href="#DejaVuSans-Bold-30"/>
       <use x="139.160156" xlink:href="#DejaVuSans-Bold-30"/>
       <use x="208.740234" xlink:href="#DejaVuSans-Bold-30"/>
      </g>
     </g>
    </g>
    <g id="text_8">
     <!-- Iteration -->
     <defs>
      <path d="M 9.1875 72.90625 
L 27.984375 72.90625 
L 27.984375 0 
L 9.1875 0 
z
" id="DejaVuSans-Bold-49"/>
      <path d="M 27.484375 70.21875 
L 27.484375 54.6875 
L 45.515625 54.6875 
L 45.515625 42.1875 
L 27.484375 42.1875 
L 27.484375 19 
Q 27.484375 15.1875 29 13.84375 
Q 30.515625 12.5 35.015625 12.5 
L 44 12.5 
L 44 0 
L 29 0 
Q 18.65625 0 14.328125 4.3125 
Q 10.015625 8.640625 10.015625 19 
L 10.015625 42.1875 
L 1.3125 42.1875 
L 1.3125 54.6875 
L 10.015625 54.6875 
L 10.015625 70.21875 
z
" id="DejaVuSans-Bold-74"/>
      <path d="M 62.984375 27.484375 
L 62.984375 22.515625 
L 22.125 22.515625 
Q 22.75 16.359375 26.5625 13.28125 
Q 30.375 10.203125 37.203125 10.203125 
Q 42.71875 10.203125 48.5 11.84375 
Q 54.296875 13.484375 60.40625 16.796875 
L 60.40625 3.328125 
Q 54.203125 0.984375 48 -0.21875 
Q 41.796875 -1.421875 35.59375 -1.421875 
Q 20.75 -1.421875 12.515625 6.125 
Q 4.296875 13.671875 4.296875 27.296875 
Q 4.296875 40.671875 12.375 48.328125 
Q 20.453125 56 34.625 56 
Q 47.515625 56 55.25 48.234375 
Q 62.984375 40.484375 62.984375 27.484375 
z
M 45.015625 33.296875 
Q 45.015625 38.28125 42.109375 41.328125 
Q 39.203125 44.390625 34.515625 44.390625 
Q 29.4375 44.390625 26.265625 41.53125 
Q 23.09375 38.671875 22.3125 33.296875 
z
" id="DejaVuSans-Bold-65"/>
      <path d="M 49.03125 39.796875 
Q 46.734375 40.875 44.453125 41.375 
Q 42.1875 41.890625 39.890625 41.890625 
Q 33.15625 41.890625 29.515625 37.5625 
Q 25.875 33.25 25.875 25.203125 
L 25.875 0 
L 8.40625 0 
L 8.40625 54.6875 
L 25.875 54.6875 
L 25.875 45.703125 
Q 29.25 51.078125 33.609375 53.53125 
Q 37.984375 56 44.09375 56 
Q 44.96875 56 45.984375 55.921875 
Q 47.015625 55.859375 48.96875 55.609375 
z
" id="DejaVuSans-Bold-72"/>
      <path d="M 32.90625 24.609375 
Q 27.4375 24.609375 24.671875 22.75 
Q 21.921875 20.90625 21.921875 17.28125 
Q 21.921875 13.96875 24.140625 12.078125 
Q 26.375 10.203125 30.328125 10.203125 
Q 35.25 10.203125 38.625 13.734375 
Q 42 17.28125 42 22.609375 
L 42 24.609375 
z
M 59.625 31.203125 
L 59.625 0 
L 42 0 
L 42 8.109375 
Q 38.484375 3.125 34.078125 0.84375 
Q 29.6875 -1.421875 23.390625 -1.421875 
Q 14.890625 -1.421875 9.59375 3.53125 
Q 4.296875 8.5 4.296875 16.40625 
Q 4.296875 26.03125 10.90625 30.515625 
Q 17.53125 35.015625 31.6875 35.015625 
L 42 35.015625 
L 42 36.375 
Q 42 40.53125 38.71875 42.453125 
Q 35.453125 44.390625 28.515625 44.390625 
Q 22.90625 44.390625 18.0625 43.265625 
Q 13.234375 42.140625 9.078125 39.890625 
L 9.078125 53.21875 
Q 14.703125 54.59375 20.359375 55.296875 
Q 26.03125 56 31.6875 56 
Q 46.484375 56 53.046875 50.171875 
Q 59.625 44.34375 59.625 31.203125 
z
" id="DejaVuSans-Bold-61"/>
      <path d="M 8.40625 54.6875 
L 25.875 54.6875 
L 25.875 0 
L 8.40625 0 
z
M 8.40625 75.984375 
L 25.875 75.984375 
L 25.875 61.71875 
L 8.40625 61.71875 
z
" id="DejaVuSans-Bold-69"/>
      <path d="M 34.421875 43.5 
Q 28.609375 43.5 25.5625 39.328125 
Q 22.515625 35.15625 22.515625 27.296875 
Q 22.515625 19.4375 25.5625 15.25 
Q 28.609375 11.078125 34.421875 11.078125 
Q 40.140625 11.078125 43.15625 15.25 
Q 46.1875 19.4375 46.1875 27.296875 
Q 46.1875 35.15625 43.15625 39.328125 
Q 40.140625 43.5 34.421875 43.5 
z
M 34.421875 56 
Q 48.53125 56 56.46875 48.375 
Q 64.40625 40.765625 64.40625 27.296875 
Q 64.40625 13.8125 56.46875 6.1875 
Q 48.53125 -1.421875 34.421875 -1.421875 
Q 20.265625 -1.421875 12.28125 6.1875 
Q 4.296875 13.8125 4.296875 27.296875 
Q 4.296875 40.765625 12.28125 48.375 
Q 20.265625 56 34.421875 56 
z
" id="DejaVuSans-Bold-6f"/>
      <path d="M 63.375 33.296875 
L 63.375 0 
L 45.796875 0 
L 45.796875 5.421875 
L 45.796875 25.484375 
Q 45.796875 32.5625 45.484375 35.25 
Q 45.171875 37.9375 44.390625 39.203125 
Q 43.359375 40.921875 41.59375 41.875 
Q 39.84375 42.828125 37.59375 42.828125 
Q 32.125 42.828125 29 38.59375 
Q 25.875 34.375 25.875 26.90625 
L 25.875 0 
L 8.40625 0 
L 8.40625 54.6875 
L 25.875 54.6875 
L 25.875 46.6875 
Q 29.828125 51.46875 34.265625 53.734375 
Q 38.71875 56 44.09375 56 
Q 53.5625 56 58.46875 50.1875 
Q 63.375 44.390625 63.375 33.296875 
z
" id="DejaVuSans-Bold-6e"/>
     </defs>
     <g transform="translate(260.788437 415.795938)scale(0.14 -0.14)">
      <use xlink:href="#DejaVuSans-Bold-49"/>
      <use x="37.207031" xlink:href="#DejaVuSans-Bold-74"/>
      <use x="85.009766" xlink:href="#DejaVuSans-Bold-65"/>
      <use x="152.832031" xlink:href="#DejaVuSans-Bold-72"/>
      <use x="202.148438" xlink:href="#DejaVuSans-Bold-61"/>
      <use x="269.628906" xlink:href="#DejaVuSans-Bold-74"/>
      <use x="317.431641" xlink:href="#DejaVuSans-Bold-69"/>
      <use x="351.708984" xlink:href="#DejaVuSans-Bold-6f"/>
      <use x="420.410156" xlink:href="#DejaVuSans-Bold-6e"/>
     </g>
    </g>
   </g>
   <g id="matplotlib.axis_2">
    <g id="ytick_1">
     <g id="line2d_15">
      <path clip-path="url(#p6defac2d42)" d="M 72 339.12 
L 518.4 339.12 
" style="fill:none;stroke:#b0b0b0;stroke-dasharray:5.12,1.28,0.8,1.28;stroke-dashoffset:0;stroke-width:0.8;"/>
     </g>
     <g id="line2d_16">
      <defs>
       <path d="M 0 0 
L -3.5 0 
" id="mb6a108bfce" style="stroke:#000000;stroke-width:0.8;"/>
      </defs>
      <g>
       <use style="stroke:#000000;stroke-width:0.8;" x="72" xlink:href="#mb6a108bfce" y="339.12"/>
      </g>
     </g>
     <g id="text_9">
      <!-- 330 -->
      <g transform="translate(44.126562 342.919219)scale(0.1 -0.1)">
       <use xlink:href="#DejaVuSans-Bold-33"/>
       <use x="69.580078" xlink:href="#DejaVuSans-Bold-33"/>
       <use x="139.160156" xlink:href="#DejaVuSans-Bold-30"/>
      </g>
     </g>
    </g>
    <g id="ytick_2">
     <g id="line2d_17">
      <path clip-path="url(#p6defac2d42)" d="M 72 278.64 
L 518.4 278.64 
" style="fill:none;stroke:#b0b0b0;stroke-dasharray:5.12,1.28,0.8,1.28;stroke-dashoffset:0;stroke-width:0.8;"/>
     </g>
     <g id="line2d_18">
      <g>
       <use style="stroke:#000000;stroke-width:0.8;" x="72" xlink:href="#mb6a108bfce" y="278.64"/>
      </g>
     </g>
     <g id="text_10">
      <!-- 340 -->
      <defs>
       <path d="M 36.8125 57.421875 
L 16.21875 26.90625 
L 36.8125 26.90625 
z
M 33.6875 72.90625 
L 54.59375 72.90625 
L 54.59375 26.90625 
L 64.984375 26.90625 
L 64.984375 13.28125 
L 54.59375 13.28125 
L 54.59375 0 
L 36.8125 0 
L 36.8125 13.28125 
L 4.5 13.28125 
L 4.5 29.390625 
z
" id="DejaVuSans-Bold-34"/>
      </defs>
      <g transform="translate(44.126562 282.439219)scale(0.1 -0.1)">
       <use xlink:href="#DejaVuSans-Bold-33"/>
       <use x="69.580078" xlink:href="#DejaVuSans-Bold-34"/>
       <use x="139.160156" xlink:href="#DejaVuSans-Bold-30"/>
      </g>
     </g>
    </g>
    <g id="ytick_3">
     <g id="line2d_19">
      <path clip-path="url(#p6defac2d42)" d="M 72 218.16 
L 518.4 218.16 
" style="fill:none;stroke:#b0b0b0;stroke-dasharray:5.12,1.28,0.8,1.28;stroke-dashoffset:0;stroke-width:0.8;"/>
     </g>
     <g id="line2d_20">
      <g>
       <use style="stroke:#000000;stroke-width:0.8;" x="72" xlink:href="#mb6a108bfce" y="218.16"/>
      </g>
     </g>
     <g id="text_11">
      <!-- 350 -->
      <g transform="translate(44.126562 221.959219)scale(0.1 -0.1)">
       <use xlink:href="#DejaVuSans-Bold-33"/>
       <use x="69.580078" xlink:href="#DejaVuSans-Bold-35"/>
       <use x="139.160156" xlink:href="#DejaVuSans-Bold-30"/>
      </g>
     </g>
    </g>
    <g id="ytick_4">
     <g id="line2d_21">
      <path clip-path="url(#p6defac2d42)" d="M 72 157.68 
L 518.4 157.68 
" style="fill:none;stroke:#b0b0b0;stroke-dasharray:5.12,1.28,0.8,1.28;stroke-dashoffset:0;stroke-width:0.8;"/>
     </g>
     <g id="line2d_22">
      <g>
       <use style="stroke:#000000;stroke-width:0.8;" x="72" xlink:href="#mb6a108bfce" y="157.68"/>
      </g>
     </g>
     <g id="text_12">
      <!-- 360 -->
      <defs>
       <path d="M 36.1875 35.984375 
Q 31.25 35.984375 28.78125 32.78125 
Q 26.3125 29.59375 26.3125 23.1875 
Q 26.3125 16.796875 28.78125 13.59375 
Q 31.25 10.40625 36.1875 10.40625 
Q 41.15625 10.40625 43.625 13.59375 
Q 46.09375 16.796875 46.09375 23.1875 
Q 46.09375 29.59375 43.625 32.78125 
Q 41.15625 35.984375 36.1875 35.984375 
z
M 59.421875 71 
L 59.421875 57.515625 
Q 54.78125 59.71875 50.671875 60.765625 
Q 46.578125 61.8125 42.671875 61.8125 
Q 34.28125 61.8125 29.59375 57.140625 
Q 24.90625 52.484375 24.125 43.3125 
Q 27.34375 45.703125 31.09375 46.890625 
Q 34.859375 48.09375 39.3125 48.09375 
Q 50.484375 48.09375 57.34375 41.546875 
Q 64.203125 35.015625 64.203125 24.421875 
Q 64.203125 12.703125 56.53125 5.640625 
Q 48.875 -1.421875 35.984375 -1.421875 
Q 21.78125 -1.421875 13.984375 8.171875 
Q 6.203125 17.78125 6.203125 35.40625 
Q 6.203125 53.46875 15.3125 63.796875 
Q 24.421875 74.125 40.28125 74.125 
Q 45.3125 74.125 50.046875 73.34375 
Q 54.78125 72.5625 59.421875 71 
z
" id="DejaVuSans-Bold-36"/>
      </defs>
      <g transform="translate(44.126562 161.479219)scale(0.1 -0.1)">
       <use xlink:href="#DejaVuSans-Bold-33"/>
       <use x="69.580078" xlink:href="#DejaVuSans-Bold-36"/>
       <use x="139.160156" xlink:href="#DejaVuSans-Bold-30"/>
      </g>
     </g>
    </g>
    <g id="ytick_5">
     <g id="line2d_23">
      <path clip-path="url(#p6defac2d42)" d="M 72 97.2 
L 518.4 97.2 
" style="fill:none;stroke:#b0b0b0;stroke-dasharray:5.12,1.28,0.8,1.28;stroke-dashoffset:0;stroke-width:0.8;"/>
     </g>
     <g id="line2d_24">
      <g>
       <use style="stroke:#000000;stroke-width:0.8;" x="72" xlink:href="#mb6a108bfce" y="97.2"/>
      </g>
     </g>
     <g id="text_13">
      <!-- 370 -->
      <defs>
       <path d="M 6.6875 72.90625 
L 61.625 72.90625 
L 61.625 62.3125 
L 33.203125 0 
L 14.890625 0 
L 41.796875 59.078125 
L 6.6875 59.078125 
z
" id="DejaVuSans-Bold-37"/>
      </defs>
      <g transform="translate(44.126562 100.999219)scale(0.1 -0.1)">
       <use xlink:href="#DejaVuSans-Bold-33"/>
       <use x="69.580078" xlink:href="#DejaVuSans-Bold-37"/>
       <use x="139.160156" xlink:href="#DejaVuSans-Bold-30"/>
      </g>
     </g>
    </g>
    <g id="text_14">
     <!-- $u_{m}[V]$ -->
     <defs>
      <path d="M 6.6875 21.6875 
L 13.09375 54.6875 
L 22.125 54.6875 
L 15.71875 22.015625 
Q 15.234375 19.625 15.015625 17.921875 
Q 14.796875 16.21875 14.796875 15.09375 
Q 14.796875 10.9375 17.328125 8.65625 
Q 19.875 6.390625 24.515625 6.390625 
Q 31.734375 6.390625 37 11.265625 
Q 42.28125 16.15625 43.890625 24.421875 
L 49.90625 54.6875 
L 58.890625 54.6875 
L 48.296875 0 
L 39.3125 0 
L 41.109375 8.59375 
Q 37.3125 3.8125 32.0625 1.1875 
Q 26.8125 -1.421875 20.90625 -1.421875 
Q 13.71875 -1.421875 9.71875 2.515625 
Q 5.71875 6.453125 5.71875 13.484375 
Q 5.71875 14.9375 5.953125 17.140625 
Q 6.203125 19.34375 6.6875 21.6875 
z
" id="DejaVuSans-Oblique-75"/>
      <path d="M 89.796875 33.015625 
L 83.40625 0 
L 74.421875 0 
L 80.71875 32.71875 
Q 81.109375 34.8125 81.296875 36.328125 
Q 81.5 37.84375 81.5 38.921875 
Q 81.5 43.3125 79.046875 45.75 
Q 76.609375 48.1875 72.21875 48.1875 
Q 65.671875 48.1875 60.546875 43.28125 
Q 55.421875 38.375 53.90625 30.515625 
L 47.90625 0 
L 38.921875 0 
L 45.3125 32.71875 
Q 45.703125 34.515625 45.890625 36.046875 
Q 46.09375 37.59375 46.09375 38.8125 
Q 46.09375 43.265625 43.65625 45.71875 
Q 41.21875 48.1875 36.921875 48.1875 
Q 30.28125 48.1875 25.140625 43.28125 
Q 20.015625 38.375 18.5 30.515625 
L 12.5 0 
L 3.515625 0 
L 14.203125 54.6875 
L 23.1875 54.6875 
L 21.484375 46.1875 
Q 25.140625 50.984375 30.046875 53.484375 
Q 34.96875 56 40.578125 56 
Q 46.53125 56 50.359375 52.875 
Q 54.203125 49.75 54.984375 44.1875 
Q 59.078125 49.953125 64.46875 52.96875 
Q 69.875 56 75.875 56 
Q 82.90625 56 86.734375 51.953125 
Q 90.578125 47.90625 90.578125 40.484375 
Q 90.578125 38.875 90.375 36.9375 
Q 90.1875 35.015625 89.796875 33.015625 
z
" id="DejaVuSans-Oblique-6d"/>
      <path d="M 8.59375 75.984375 
L 29.296875 75.984375 
L 29.296875 69 
L 17.578125 69 
L 17.578125 -6.203125 
L 29.296875 -6.203125 
L 29.296875 -13.1875 
L 8.59375 -13.1875 
z
" id="DejaVuSans-5b"/>
      <path d="M 20.609375 0 
L 7.8125 72.90625 
L 17.484375 72.90625 
L 28.078125 10.203125 
L 63.484375 72.90625 
L 74.21875 72.90625 
L 32.078125 0 
z
" id="DejaVuSans-Oblique-56"/>
      <path d="M 30.421875 75.984375 
L 30.421875 -13.1875 
L 9.71875 -13.1875 
L 9.71875 -6.203125 
L 21.390625 -6.203125 
L 21.390625 69 
L 9.71875 69 
L 9.71875 75.984375 
z
" id="DejaVuSans-5d"/>
     </defs>
     <g transform="translate(37.215 237.83)rotate(-90)scale(0.14 -0.14)">
      <use transform="translate(0 0.015625)" xlink:href="#DejaVuSans-Oblique-75"/>
      <use transform="translate(63.378906 -16.390625)scale(0.7)" xlink:href="#DejaVuSans-Oblique-6d"/>
      <use transform="translate(134.301758 0.015625)" xlink:href="#DejaVuSans-5b"/>
      <use transform="translate(173.31543 0.015625)" xlink:href="#DejaVuSans-Oblique-56"/>
      <use transform="translate(241.723633 0.015625)" xlink:href="#DejaVuSans-5d"/>
     </g>
    </g>
   </g>
   <g id="line2d_25">
    <path clip-path="url(#p6defac2d42)" d="M 92.290909 218.16 
L 93.925625 218.058394 
L 94.47053 217.666483 
L 94.879209 217.124582 
L 95.287888 216.204682 
L 95.696567 214.685424 
L 96.105246 212.315818 
L 96.650151 207.395165 
L 97.195056 199.933142 
L 97.739962 189.404179 
L 98.421093 171.237802 
L 99.102225 146.845613 
L 99.919583 108.659146 
L 100.600714 77.925024 
L 101.009393 71.523216 
L 101.418072 68.955235 
L 101.826751 67.870224 
L 102.23543 67.365216 
L 102.780335 67.069469 
L 103.597693 66.962419 
L 112.043724 66.96 
L 118.582587 67.037414 
L 118.85504 67.35191 
L 119.536171 68.762304 
L 121.579566 73.268064 
L 121.715792 73.469462 
L 121.852019 72.926957 
L 122.260698 69.219533 
L 122.53315 68.193187 
L 122.941829 67.574477 
L 123.214282 67.483757 
L 123.486734 67.91377 
L 124.712771 70.524086 
L 125.393903 67.811558 
L 125.802582 67.35433 
L 126.211261 67.229136 
L 126.483713 67.586573 
L 127.028619 68.626829 
L 127.164845 68.565744 
L 127.70975 67.456541 
L 128.118429 67.174704 
L 128.799561 67.032576 
L 130.706729 66.96 
L 141.468608 67.004755 
L 141.74106 67.223693 
L 142.149739 67.962154 
L 142.558418 68.661907 
L 142.830871 68.675213 
L 143.103323 68.233709 
L 143.512002 67.484966 
L 143.920681 67.240022 
L 144.193134 67.491014 
L 144.874265 68.577235 
L 145.010492 68.460509 
L 145.555397 67.437187 
L 145.964076 67.17289 
L 146.236528 67.167446 
L 146.508981 67.50311 
L 147.053886 68.384304 
L 147.190113 68.338339 
L 147.871244 67.301712 
L 148.416149 67.093661 
L 148.688602 67.231555 
L 149.369734 67.97183 
L 149.50596 67.888973 
L 149.914639 67.338 
L 150.323318 67.120272 
L 150.868223 67.047091 
L 151.276902 67.266634 
L 151.685581 67.443235 
L 153.047844 66.995078 
L 155.908597 66.96 
L 166.398023 67.013222 
L 166.806701 67.296874 
L 167.487833 67.862362 
L 167.760286 67.77769 
L 168.577644 67.12511 
L 168.850096 67.128739 
L 169.258775 67.469242 
L 169.667454 67.781923 
L 169.939907 67.613184 
L 170.348586 67.222483 
L 170.893491 67.051325 
L 171.165943 67.11241 
L 171.983301 67.682131 
L 172.936885 67.068259 
L 173.481791 67.085194 
L 174.299149 67.462589 
L 174.98028 67.079146 
L 175.661412 67.00536 
L 176.887449 67.090637 
L 177.704806 66.984192 
L 181.382917 66.96 
L 191.463664 67.068259 
L 192.417248 67.428115 
L 192.962153 67.169261 
L 193.507059 67.034995 
L 193.915737 67.143254 
L 194.460643 67.388803 
L 194.733095 67.310784 
L 195.278001 67.065235 
L 195.959132 67.037414 
L 196.912716 67.29385 
L 197.457622 67.059187 
L 198.274979 67.024714 
L 199.092337 67.226112 
L 199.909695 67.008384 
L 200.863279 67.041043 
L 201.408185 67.089427 
L 202.361769 66.976934 
L 207.12969 66.96 
L 216.393079 67.052534 
L 217.210437 67.207968 
L 218.708926 67.057978 
L 219.390058 67.179542 
L 220.479868 66.985402 
L 221.161 67.103942 
L 221.705905 67.135997 
L 222.387037 66.999312 
L 223.340621 67.044672 
L 223.885526 67.101523 
L 224.975336 66.975725 
L 230.560615 66.96 
L 241.45872 67.053744 
L 242.276078 67.061002 
L 243.229662 66.984797 
L 244.591925 67.012013 
L 245.681736 66.997498 
L 246.63532 67.028342 
L 247.72513 66.971491 
L 249.632299 66.970282 
L 258.623235 66.96 
L 498.109091 66.96 
L 498.109091 66.96 
" style="fill:none;stroke:#bf00bf;stroke-linecap:square;stroke-width:1.5;"/>
   </g>
   <g id="line2d_26">
    <path clip-path="url(#p6defac2d42)" d="M 92.290909 218.16 
L 93.653172 218.072909 
L 94.198077 217.644106 
L 94.606756 217.079827 
L 95.015435 216.129082 
L 95.424114 214.531805 
L 95.832793 212.013418 
L 96.377698 206.769197 
L 96.922604 198.840269 
L 97.467509 187.707715 
L 98.14864 168.616598 
L 98.829772 143.143027 
L 99.64713 103.505645 
L 100.328261 66.96 
L 118.582587 67.001731 
L 119.127492 68.517965 
L 121.579566 74.253888 
L 121.715792 74.465568 
L 122.124471 66.96 
L 123.078055 66.96 
L 123.350508 68.000256 
L 123.895413 69.832195 
L 124.576545 71.499629 
L 124.712771 70.735162 
L 124.985224 66.96 
L 126.075034 66.96 
L 126.211261 67.161398 
L 126.892392 69.35017 
L 127.028619 69.133046 
L 127.437297 66.96 
L 141.332381 66.96 
L 141.604834 67.302317 
L 142.422192 69.218323 
L 142.558418 69.178406 
L 142.830871 68.536109 
L 143.23955 66.96 
L 143.784455 66.96 
L 144.056907 67.518835 
L 144.601813 69.133046 
L 144.738039 69.120346 
L 144.874265 68.793754 
L 145.282944 66.96 
L 146.100302 66.981168 
L 146.372755 67.634957 
L 146.781434 68.853024 
L 146.91766 68.94193 
L 147.053886 68.74295 
L 147.598792 66.96 
L 148.416149 66.992659 
L 148.688602 67.513997 
L 149.097281 68.350435 
L 149.233507 68.351645 
L 149.369734 68.126054 
L 149.778413 66.96 
L 150.868223 67.053139 
L 151.413128 67.6404 
L 151.549355 67.631328 
L 151.821807 67.238208 
L 151.958034 66.96 
L 166.261796 67.00415 
L 166.670475 67.448074 
L 167.21538 68.104886 
L 167.487833 68.012957 
L 167.896512 67.29143 
L 168.168965 66.96 
L 168.71387 67.028342 
L 169.122549 67.666406 
L 169.395001 68.043802 
L 169.531228 68.073437 
L 169.667454 67.948243 
L 170.212359 66.96 
L 171.029717 67.06584 
L 171.710849 67.979088 
L 171.847075 67.91377 
L 172.119528 67.316227 
L 172.255754 66.96 
L 173.345564 67.056163 
L 174.026696 67.698461 
L 174.299149 67.395456 
L 174.571601 66.96 
L 175.661412 66.997498 
L 176.342543 67.325904 
L 176.614996 67.146883 
L 176.887449 66.96 
L 191.191211 67.033181 
L 192.144795 67.562986 
L 192.417248 67.421462 
L 192.962153 66.96 
L 193.643285 67.070678 
L 194.324416 67.543632 
L 194.596869 67.345258 
L 194.869322 66.96 
L 195.822906 67.010198 
L 196.640264 67.465008 
L 196.912716 67.165027 
L 197.048943 66.96 
L 198.138753 67.007779 
L 198.819885 67.349491 
L 199.092337 67.196477 
L 199.36479 66.96 
L 200.727053 67.070074 
L 201.135732 67.155955 
L 202.497995 66.96 
L 216.120626 67.041648 
L 216.937984 67.279334 
L 217.346663 67.132368 
L 217.755342 66.96 
L 218.436473 67.019875 
L 219.117605 67.269053 
L 219.390058 67.161398 
L 219.798737 66.96 
L 220.752321 67.039229 
L 221.297226 67.243046 
L 221.569679 67.167446 
L 221.978358 66.96 
L 223.068168 67.028947 
L 223.613073 67.166842 
L 225.247789 66.970886 
L 226.201373 67.015037 
L 226.610052 66.96 
L 241.186268 67.06463 
L 241.867399 67.114829 
L 243.093436 66.970282 
L 244.183246 67.062816 
L 244.591925 66.96 
L 245.681736 67.039229 
L 246.226641 67.101523 
L 247.180225 66.96 
L 498.109091 66.96 
L 498.109091 66.96 
" style="fill:none;stroke:#00bfbf;stroke-linecap:square;stroke-width:1.5;"/>
   </g>
   <g id="line2d_27">
    <path clip-path="url(#p6defac2d42)" d="M 92.290909 218.16 
L 92.699588 267.167549 
L 93.789399 369.36 
L 113.950893 369.321293 
L 114.087119 368.827171 
L 114.359572 366.582154 
L 114.76825 360.302515 
L 115.313156 347.232787 
L 116.26674 316.360166 
L 117.220324 287.28864 
L 117.629003 279.495187 
L 117.901456 276.800803 
L 118.037682 276.32785 
L 118.173908 276.484493 
L 118.310135 277.302787 
L 118.582587 281.028355 
L 119.127492 295.200029 
L 120.217303 330.13993 
L 121.307113 369.36 
L 136.836913 369.339437 
L 137.109366 369.020707 
L 137.518044 367.883078 
L 138.06295 365.283043 
L 138.880308 359.775734 
L 139.970118 352.354838 
L 140.378797 350.567654 
L 140.65125 349.919309 
L 140.923702 349.797139 
L 141.196155 350.26465 
L 141.468608 351.370224 
L 141.877286 354.289594 
L 142.422192 360.511171 
L 143.103323 369.36 
L 161.766328 369.318874 
L 162.038781 369.095702 
L 162.447459 368.431027 
L 162.992365 367.009142 
L 163.945949 363.610166 
L 164.899533 360.441619 
L 165.308212 359.639654 
L 165.580665 359.403178 
L 165.853117 359.450352 
L 166.12557 359.810813 
L 166.534249 360.98473 
L 166.942928 362.941862 
L 167.487833 366.687389 
L 167.896512 369.36 
L 186.695743 369.297706 
L 187.104422 369.025546 
L 187.649327 368.365104 
L 188.466685 366.919632 
L 189.692722 364.718765 
L 190.237627 364.211338 
L 190.646306 364.184122 
L 190.918759 364.367981 
L 191.327438 364.9752 
L 191.736116 365.992474 
L 192.281022 367.945978 
L 192.689701 369.36 
L 211.625158 369.291053 
L 212.306289 368.934826 
L 213.123647 368.206646 
L 214.622137 366.815002 
L 215.167042 366.613603 
L 215.575721 366.663802 
L 215.9844 366.916608 
L 216.529305 367.59096 
L 217.210437 368.936035 
L 217.482889 369.36 
L 236.690799 369.262627 
L 237.644383 368.884022 
L 239.687778 367.932067 
L 240.36891 367.927834 
L 240.913815 368.137094 
L 241.594946 368.685648 
L 242.276078 369.36 
L 261.756441 369.261418 
L 263.391156 368.824752 
L 264.617193 368.584646 
L 265.434551 368.640893 
L 266.251909 368.936035 
L 267.205493 369.36 
L 286.958308 369.257789 
L 289.955287 368.95297 
L 291.045098 369.138038 
L 292.134908 369.36 
L 312.432628 369.249926 
L 314.748476 369.142877 
L 316.246965 369.312221 
L 317.064323 369.36 
L 338.451854 369.250531 
L 340.631475 369.29952 
L 342.538643 369.36 
L 498.109091 369.36 
L 498.109091 369.36 
" style="fill:none;stroke:#ff0000;stroke-linecap:square;stroke-width:1.5;"/>
   </g>
   <g id="line2d_28">
    <path clip-path="url(#p6defac2d42)" d="M 92.290909 218.16 
L 92.427135 218.16 
L 92.699588 231.034378 
L 93.244493 272.991168 
L 94.198077 349.076218 
L 94.606756 360.578909 
L 94.879209 363.888979 
L 95.151662 365.422147 
L 95.424114 365.950138 
L 95.696567 365.91264 
L 96.105246 365.315702 
L 96.922604 363.440822 
L 99.102225 358.339334 
L 100.73694 355.090349 
L 102.371656 352.336694 
L 104.142598 349.785043 
L 105.91354 347.611392 
L 107.820709 345.625229 
L 109.727877 343.949328 
L 111.498819 342.62663 
L 111.771272 341.4636 
L 112.179951 338.009587 
L 112.997308 328.526928 
L 114.359572 310.072061 
L 114.904477 297.361584 
L 115.585608 274.791053 
L 117.492777 205.520285 
L 117.901456 198.450173 
L 118.173908 196.794835 
L 118.310135 196.998653 
L 118.582587 199.62167 
L 118.85504 205.347917 
L 119.94485 239.72233 
L 121.034661 280.927354 
L 121.44334 296.225165 
L 121.852019 301.044816 
L 122.260698 303.849274 
L 122.805603 305.953373 
L 123.350508 307.12608 
L 123.895413 307.833696 
L 124.576545 308.345962 
L 125.257676 308.566109 
L 125.938808 308.561875 
L 126.756166 308.30423 
L 127.573524 307.785917 
L 128.527108 306.869645 
L 129.616918 305.458646 
L 130.842955 303.459178 
L 132.341445 300.522874 
L 134.112387 296.52575 
L 136.836913 289.745338 
L 137.245592 288.457114 
L 137.790497 285.741562 
L 138.471629 280.879574 
L 140.242571 266.949216 
L 140.65125 265.306579 
L 140.923702 264.88201 
L 141.059929 264.898944 
L 141.332381 265.429354 
L 141.604834 266.657098 
L 142.013513 269.860723 
L 142.558418 276.610291 
L 143.375776 287.60616 
L 143.920681 289.81368 
L 144.465586 291.150893 
L 145.146718 292.274611 
L 146.100302 293.381395 
L 147.190113 294.317626 
L 148.279923 294.971414 
L 149.369734 295.378445 
L 150.459544 295.530854 
L 151.549355 295.447392 
L 152.639165 295.133501 
L 153.865202 294.528701 
L 155.227465 293.574326 
L 156.725954 292.231066 
L 158.496896 290.330784 
L 160.94897 287.336419 
L 162.038781 285.844982 
L 162.583686 284.513213 
L 163.264817 282.081917 
L 165.171986 274.560624 
L 165.580665 273.862685 
L 165.853117 273.760474 
L 166.12557 273.989088 
L 166.398023 274.574534 
L 166.806701 276.150643 
L 167.351607 279.531475 
L 168.168965 285.255302 
L 168.71387 286.407446 
L 169.395001 287.237837 
L 170.212359 287.869248 
L 171.438396 288.521827 
L 172.800659 289.019578 
L 174.299149 289.333469 
L 175.661412 289.409674 
L 177.159901 289.278432 
L 178.794617 288.89257 
L 180.429333 288.284746 
L 182.336501 287.344886 
L 184.788575 285.875222 
L 186.831969 284.483578 
L 187.376874 283.79713 
L 188.058006 282.535517 
L 189.965174 278.59585 
L 190.373853 278.223293 
L 190.646306 278.164627 
L 190.918759 278.278934 
L 191.327438 278.802691 
L 191.736116 279.767347 
L 192.281022 281.706941 
L 192.962153 284.15759 
L 193.507059 284.760576 
L 194.324416 285.260141 
L 195.550453 285.693782 
L 197.457622 286.111094 
L 199.501016 286.323984 
L 201.544411 286.308864 
L 203.724032 286.059686 
L 206.176105 285.535325 
L 209.036858 284.684976 
L 211.761384 283.694918 
L 212.442516 283.165114 
L 213.3961 282.093408 
L 214.622137 280.7568 
L 215.167042 280.462262 
L 215.575721 280.451981 
L 215.9844 280.656403 
L 216.393079 281.092464 
L 216.937984 282.028694 
L 217.755342 283.605408 
L 218.436473 283.976755 
L 219.526284 284.273107 
L 221.705905 284.582765 
L 224.566658 284.752714 
L 227.291184 284.697677 
L 230.288163 284.421283 
L 233.966273 283.85761 
L 236.827026 283.257043 
L 237.78061 282.759898 
L 239.687778 281.69424 
L 240.36891 281.63376 
L 240.913815 281.810966 
L 241.45872 282.20832 
L 242.139852 282.984883 
L 242.412304 283.257648 
L 243.229662 283.510454 
L 244.864378 283.717901 
L 248.406262 283.905389 
L 252.356825 283.883616 
L 256.716067 283.624157 
L 261.756441 283.091328 
L 263.25493 282.620794 
L 264.617193 282.270614 
L 265.434551 282.294202 
L 266.251909 282.573014 
L 267.614172 283.209869 
L 269.385114 283.359254 
L 274.016809 283.47961 
L 279.602087 283.394938 
L 286.004724 283.091933 
L 287.775666 282.832474 
L 289.682834 282.588134 
L 290.772645 282.698208 
L 293.088492 283.143341 
L 297.720187 283.238294 
L 304.803955 283.191725 
L 312.296402 282.923798 
L 314.884702 282.775622 
L 316.246965 282.933475 
L 317.336776 283.048992 
L 322.240923 283.114915 
L 332.730349 283.051411 
L 342.811096 283.0248 
L 352.61939 283.045363 
L 391.307663 282.983674 
L 404.521615 282.991536 
L 431.903104 282.98065 
L 498.109091 282.976416 
L 498.109091 282.976416 
" style="fill:none;stroke:#008000;stroke-linecap:square;stroke-width:1.5;"/>
   </g>
   <g id="patch_3">
    <path d="M 72 384.48 
L 72 51.84 
" style="fill:none;stroke:#000000;stroke-linecap:square;stroke-linejoin:miter;stroke-width:2;"/>
   </g>
   <g id="patch_4">
    <path d="M 518.4 384.48 
L 518.4 51.84 
" style="fill:none;stroke:#000000;stroke-linecap:square;stroke-linejoin:miter;stroke-width:2;"/>
   </g>
   <g id="patch_5">
    <path d="M 72 384.48 
L 518.4 384.48 
" style="fill:none;stroke:#000000;stroke-linecap:square;stroke-linejoin:miter;stroke-width:2;"/>
   </g>
   <g id="patch_6">
    <path d="M 72 51.84 
L 518.4 51.84 
" style="fill:none;stroke:#000000;stroke-linecap:square;stroke-linejoin:miter;stroke-width:2;"/>
   </g>
   <g id="text_15">
    <!-- $u_{m}$ -->
    <g transform="translate(285.75 45.84)scale(0.14 -0.14)">
     <use transform="translate(0 0.3125)" xlink:href="#DejaVuSans-Oblique-75"/>
     <use transform="translate(63.378906 -16.09375)scale(0.7)" xlink:href="#DejaVuSans-Oblique-6d"/>
    </g>
   </g>
   <g id="legend_1">
    <g id="patch_7">
     <path d="M 468.3 249.01625 
L 511.4 249.01625 
Q 513.4 249.01625 513.4 247.01625 
L 513.4 189.30375 
Q 513.4 187.30375 511.4 187.30375 
L 468.3 187.30375 
Q 466.3 187.30375 466.3 189.30375 
L 466.3 247.01625 
Q 466.3 249.01625 468.3 249.01625 
z
" style="fill:#ffffff;opacity:0.8;stroke:#cccccc;stroke-linejoin:miter;"/>
    </g>
    <g id="line2d_29">
     <path d="M 470.3 195.402188 
L 490.3 195.402188 
" style="fill:none;stroke:#bf00bf;stroke-linecap:square;stroke-width:1.5;"/>
    </g>
    <g id="line2d_30"/>
    <g id="text_16">
     <!-- $u_{1}$ -->
     <defs>
      <path d="M 12.40625 8.296875 
L 28.515625 8.296875 
L 28.515625 63.921875 
L 10.984375 60.40625 
L 10.984375 69.390625 
L 28.421875 72.90625 
L 38.28125 72.90625 
L 38.28125 8.296875 
L 54.390625 8.296875 
L 54.390625 0 
L 12.40625 0 
z
" id="DejaVuSans-31"/>
     </defs>
     <g transform="translate(498.3 198.902188)scale(0.1 -0.1)">
      <use transform="translate(0 0.3125)" xlink:href="#DejaVuSans-Oblique-75"/>
      <use transform="translate(63.378906 -16.09375)scale(0.7)" xlink:href="#DejaVuSans-31"/>
     </g>
    </g>
    <g id="line2d_31">
     <path d="M 470.3 210.080313 
L 490.3 210.080313 
" style="fill:none;stroke:#00bfbf;stroke-linecap:square;stroke-width:1.5;"/>
    </g>
    <g id="line2d_32"/>
    <g id="text_17">
     <!-- $u_{2}$ -->
     <defs>
      <path d="M 19.1875 8.296875 
L 53.609375 8.296875 
L 53.609375 0 
L 7.328125 0 
L 7.328125 8.296875 
Q 12.9375 14.109375 22.625 23.890625 
Q 32.328125 33.6875 34.8125 36.53125 
Q 39.546875 41.84375 41.421875 45.53125 
Q 43.3125 49.21875 43.3125 52.78125 
Q 43.3125 58.59375 39.234375 62.25 
Q 35.15625 65.921875 28.609375 65.921875 
Q 23.96875 65.921875 18.8125 64.3125 
Q 13.671875 62.703125 7.8125 59.421875 
L 7.8125 69.390625 
Q 13.765625 71.78125 18.9375 73 
Q 24.125 74.21875 28.421875 74.21875 
Q 39.75 74.21875 46.484375 68.546875 
Q 53.21875 62.890625 53.21875 53.421875 
Q 53.21875 48.921875 51.53125 44.890625 
Q 49.859375 40.875 45.40625 35.40625 
Q 44.1875 33.984375 37.640625 27.21875 
Q 31.109375 20.453125 19.1875 8.296875 
z
" id="DejaVuSans-32"/>
     </defs>
     <g transform="translate(498.3 213.580313)scale(0.1 -0.1)">
      <use transform="translate(0 0.3125)" xlink:href="#DejaVuSans-Oblique-75"/>
      <use transform="translate(63.378906 -16.09375)scale(0.7)" xlink:href="#DejaVuSans-32"/>
     </g>
    </g>
    <g id="line2d_33">
     <path d="M 470.3 224.758438 
L 490.3 224.758438 
" style="fill:none;stroke:#ff0000;stroke-linecap:square;stroke-width:1.5;"/>
    </g>
    <g id="line2d_34"/>
    <g id="text_18">
     <!-- $u_{3}$ -->
     <defs>
      <path d="M 40.578125 39.3125 
Q 47.65625 37.796875 51.625 33 
Q 55.609375 28.21875 55.609375 21.1875 
Q 55.609375 10.40625 48.1875 4.484375 
Q 40.765625 -1.421875 27.09375 -1.421875 
Q 22.515625 -1.421875 17.65625 -0.515625 
Q 12.796875 0.390625 7.625 2.203125 
L 7.625 11.71875 
Q 11.71875 9.328125 16.59375 8.109375 
Q 21.484375 6.890625 26.8125 6.890625 
Q 36.078125 6.890625 40.9375 10.546875 
Q 45.796875 14.203125 45.796875 21.1875 
Q 45.796875 27.640625 41.28125 31.265625 
Q 36.765625 34.90625 28.71875 34.90625 
L 20.21875 34.90625 
L 20.21875 43.015625 
L 29.109375 43.015625 
Q 36.375 43.015625 40.234375 45.921875 
Q 44.09375 48.828125 44.09375 54.296875 
Q 44.09375 59.90625 40.109375 62.90625 
Q 36.140625 65.921875 28.71875 65.921875 
Q 24.65625 65.921875 20.015625 65.03125 
Q 15.375 64.15625 9.8125 62.3125 
L 9.8125 71.09375 
Q 15.4375 72.65625 20.34375 73.4375 
Q 25.25 74.21875 29.59375 74.21875 
Q 40.828125 74.21875 47.359375 69.109375 
Q 53.90625 64.015625 53.90625 55.328125 
Q 53.90625 49.265625 50.4375 45.09375 
Q 46.96875 40.921875 40.578125 39.3125 
z
" id="DejaVuSans-33"/>
     </defs>
     <g transform="translate(498.3 228.258438)scale(0.1 -0.1)">
      <use transform="translate(0 0.3125)" xlink:href="#DejaVuSans-Oblique-75"/>
      <use transform="translate(63.378906 -16.09375)scale(0.7)" xlink:href="#DejaVuSans-33"/>
     </g>
    </g>
    <g id="line2d_35">
     <path d="M 470.3 239.436563 
L 490.3 239.436563 
" style="fill:none;stroke:#008000;stroke-linecap:square;stroke-width:1.5;"/>
    </g>
    <g id="line2d_36"/>
    <g id="text_19">
     <!-- $u_{4}$ -->
     <defs>
      <path d="M 37.796875 64.3125 
L 12.890625 25.390625 
L 37.796875 25.390625 
z
M 35.203125 72.90625 
L 47.609375 72.90625 
L 47.609375 25.390625 
L 58.015625 25.390625 
L 58.015625 17.1875 
L 47.609375 17.1875 
L 47.609375 0 
L 37.796875 0 
L 37.796875 17.1875 
L 4.890625 17.1875 
L 4.890625 26.703125 
z
" id="DejaVuSans-34"/>
     </defs>
     <g transform="translate(498.3 242.936563)scale(0.1 -0.1)">
      <use transform="translate(0 0.3125)" xlink:href="#DejaVuSans-Oblique-75"/>
      <use transform="translate(63.378906 -16.09375)scale(0.7)" xlink:href="#DejaVuSans-34"/>
     </g>
    </g>
   </g>
  </g>
 </g>
 <defs>
  <clipPath id="p6defac2d42">
   <rect height="332.64" width="446.4" x="72" y="51.84"/>
  </clipPath>
 </defs>
</svg>
