<?xml version="1.0" encoding="utf-8" standalone="no"?>
<!DOCTYPE svg PUBLIC "-//W3C//DTD SVG 1.1//EN"
  "http://www.w3.org/Graphics/SVG/1.1/DTD/svg11.dtd">
<!-- Created with matplotlib (http://matplotlib.org/) -->
<svg height="432pt" version="1.1" viewBox="0 0 576 432" width="576pt" xmlns="http://www.w3.org/2000/svg" xmlns:xlink="http://www.w3.org/1999/xlink">
 <defs>
  <style type="text/css">
*{stroke-linecap:butt;stroke-linejoin:round;}
  </style>
 </defs>
 <g id="figure_1">
  <g id="patch_1">
   <path d="
M0 432
L576 432
L576 0
L0 0
z
" style="fill:#ffffff;"/>
  </g>
  <g id="axes_1">
   <g id="patch_2">
    <path d="
M72 388.8
L518.4 388.8
L518.4 43.2
L72 43.2
z
" style="fill:#ffffff;"/>
   </g>
   <g id="line2d_1">
    <path clip-path="url(#p7ff5b81e1d)" d="
M75.7292 388.8
L78.0638 388.8
L78.2218 387.68
L78.8887 385.509
L78.9874 385.557
L79.2039 384.801
L79.2708 384.828
L79.427 384.452
L79.5191 384.53
L79.6153 384.69
L79.6446 384.615
L79.8856 384.242
L80.1056 383.044
L80.2535 382.815
L80.3888 382.457
L80.4577 382.428
L80.8878 380.76
L81.0133 380.265
L81.4758 378.569
L82.0317 378.055
L82.3111 377.545
L82.7876 376.965
L82.9296 377.069
L83.1203 376.618
L83.1945 376.694
L83.76 377.743
L83.8291 377.691
L83.8802 377.661
L84.0191 378.03
L84.0712 377.963
L84.1 377.845
L84.1796 377.908
L84.3574 377.993
L84.5156 377.979
L85.1197 378.317
L85.1722 378.435
L85.2273 378.395
L85.6203 378.249
L85.673 378.299
L85.7029 378.168
L85.791 378.232
L85.9657 378.024
L86.1569 377.958
L86.2918 377.827
L86.607 377.215
L86.8112 377.168
L87.5845 378.358
L87.6251 378.178
L87.7032 378.09
L87.7571 378.204
L87.8087 378.156
L88.2209 377.516
L88.4637 377.825
L88.612 377.374
L88.7341 377.488
L88.7645 377.466
L88.9419 377.104
L88.9652 377.04
L89.1067 377.158
L89.2528 376.773
L89.436 376.384
L89.5891 376.324
L89.6779 376.419
L90.3603 375.257
L90.5773 375.318
L90.6866 375.323
L90.8462 375.579
L91.0714 376.182
L91.1755 376.015
L91.274 376.029
L91.4186 376.027
L91.6133 375.998
L91.6721 375.935
L92.0373 376.571
L93.5341 380.507
L93.8078 381.123
L94.5895 383.168
L96.5908 388.133
L96.9766 388.8
L114.411 388.8
L115.535 341.616
L115.948 332.502
L116.585 324.645
L116.712 323.888
L116.925 322.744
L116.972 322.62
L117.211 320.797
L117.48 320.199
L117.73 319.918
L117.883 320.166
L118.12 321.046
L118.198 321.169
L118.443 323.635
L118.599 325.426
L118.805 326.794
L118.912 327.057
L120.401 341.62
L121.133 350.056
L121.839 353.088
L122.518 354.661
L122.716 356.449
L123.346 361.664
L123.591 363.518
L123.754 364.257
L124.034 364.611
L124.064 364.589
L124.274 364.63
L124.44 366.411
L124.738 370.559
L125.398 377.713
L125.698 382.32
L125.948 383.213
L126.049 383.298
L126.082 383.232
L126.33 382.591
L126.67 381.752
L126.841 381.612
L126.907 381.666
L127.194 381.523
L127.336 381.56
L127.659 381.408
L127.802 381.485
L128.63 380.804
L128.785 380.964
L129.099 381.256
L129.467 381.439
L129.579 381.513
L130.327 382.126
L130.463 382.132
L130.572 382.146
L130.727 381.895
L130.808 381.903
L131.055 381.856
L131.444 382.106
L131.697 382.04
L132.276 381.192
L132.351 381.243
L132.454 381.247
L132.904 380.639
L133.723 381.51
L134.515 382.914
L134.562 382.898
L134.87 382.551
L135.518 382.264
L135.778 382.442
L135.999 382.531
L136.544 383.323
L137.915 385.812
L138.266 386.451
L139.067 388.317
L139.224 388.8
L491 388.8
L491 388.8" style="fill:none;stroke:#bf00bf;stroke-linecap:square;"/>
   </g>
   <g id="line2d_2">
    <path clip-path="url(#p7ff5b81e1d)" d="
M72 388.8
L76.237 388.698
L76.5318 388.619
L76.7801 388.605
L76.8717 388.372
L77.8782 381.91
L78.8868 374.074
L79.1328 372.705
L79.4845 370.651
L79.5917 370.601
L79.7635 369.827
L80.0494 367.408
L80.2724 367.03
L80.3187 365.572
L80.525 364.761
L80.6043 363.906
L81.0104 360.494
L81.2435 358.522
L81.3542 357.799
L81.5508 356.575
L82.2004 352.926
L82.3325 352.15
L83.2291 347.452
L83.6446 346.954
L83.8941 346.915
L84.0077 346.199
L84.2329 345.199
L84.3227 344.949
L84.5648 343.723
L84.761 343.138
L84.9287 342.505
L85.1437 342.094
L85.4701 340.067
L85.74 339.082
L85.8684 338.122
L86.1803 336.485
L86.7455 333.095
L87.043 332.142
L87.1418 332.098
L87.5109 332.012
L87.6351 331.581
L87.649 331.603
L88.1907 328.42
L88.3903 328.07
L88.4948 327.351
L89.2763 323.225
L89.5615 321.646
L89.6421 321.281
L90.4594 317.051
L90.5448 316.61
L90.7919 315.733
L91.0108 315.412
L91.2725 314.268
L91.4018 313.576
L91.5619 312.768
L91.8465 311.584
L92.0777 311.412
L92.7446 311.703
L92.7872 311.759
L93.0007 311.863
L94.2447 312.775
L94.4196 312.892
L94.8113 313.174
L94.889 313.244
L95.1044 313.315
L95.1456 313.455
L95.2027 313.444
L96.0247 314.058
L96.5689 314.54
L96.9271 314.919
L98.1499 315.116
L105.96 315.126
L111.451 315.041
L111.713 314.88
L114.309 313.483
L114.579 308.674
L115.417 275.901
L115.724 269.197
L115.915 268.544
L115.952 267.261
L116.044 267.005
L116.145 266.214
L116.553 263.71
L116.874 263.536
L116.949 263.655
L117.041 263.477
L117.113 262.665
L117.178 262.849
L117.271 262.796
L117.791 263.814
L117.894 264.486
L118.087 265.377
L118.093 273.394
L118.175 268.371
L118.279 267.729
L118.327 268.072
L118.721 272.787
L118.831 272.479
L118.964 273.187
L119.422 276.725
L119.627 278.82
L119.817 280.327
L119.94 282.218
L120.067 283.805
L120.25 284.202
L120.358 286.063
L120.522 287.535
L120.938 290.631
L120.991 290.534
L121.205 291.255
L121.491 292.01
L121.692 292.349
L122.423 292.859
L122.471 294.324
L122.554 293.928
L122.826 295.228
L123.416 297.086
L123.725 297.33
L124.136 296.43
L124.249 296.38
L124.435 297.953
L124.549 298.738
L125.105 303.769
L125.198 304.085
L125.4 307.374
L125.494 308.426
L125.751 311.934
L125.808 312.593
L126.248 313.943
L126.316 313.96
L126.43 313.528
L126.567 313.351
L126.655 312.998
L126.769 312.807
L127.464 311.38
L127.82 310.843
L128.199 310.087
L128.434 309.779
L128.49 309.459
L128.695 309.145
L129.018 308.699
L129.275 308.685
L129.814 308.252
L130.087 308.135
L130.162 308.014
L130.475 307.783
L130.546 307.562
L131.198 306.463
L131.641 305.897
L132.438 303.347
L132.567 303.039
L133.309 301.82
L133.626 301.511
L134.054 301.472
L134.318 301.439
L134.431 301.187
L134.612 300.772
L134.778 300.35
L134.888 300.174
L134.985 299.891
L135.414 299.266
L136.332 298.757
L138.633 299.229
L138.786 299.296
L138.941 299.309
L139.192 299.566
L139.521 299.749
L140.048 299.779
L140.634 299.726
L142.057 299.54
L143.537 299.577
L144.43 299.65
L153.176 300.241
L167.944 300.34
L481.508 300.351
L481.508 300.351" style="fill:none;stroke:#00bfbf;stroke-linecap:square;"/>
   </g>
   <g id="line2d_3">
    <path clip-path="url(#p7ff5b81e1d)" d="
M75.9567 388.8
L76.2308 388.8
L76.299 388.784
L76.5507 388.422
L76.669 388.277
L76.7841 387.904
L76.8275 387.263
L77.0967 381.019
L77.5225 368.594
L77.7463 366.46
L77.7478 366.072
L77.9862 364.181
L78.0657 359.368
L78.2154 355.419
L79.8542 353.867
L79.8732 352.682
L79.9959 350.064
L80.312 348.411
L80.3686 346.686
L81.1318 345.918
L81.1687 345.475
L81.444 345.164
L82.5536 344.732
L82.6386 344.261
L84.3487 344.051
L84.3503 344.021
L85.3061 343.894
L98.7609 343.885
L111.976 343.885
L112.391 244.323
L114.088 243.034
L114.311 240.898
L114.581 240.026
L114.673 220.548
L114.869 219.671
L115.06 219.436
L115.191 219.273
L115.68 219.065
L117.062 219.026
L118.529 183.927
L118.864 163.741
L119.22 163.61
L119.274 163.763
L120.482 164.019
L120.489 164.313
L120.775 164.933
L120.843 168.399
L121.143 169.66
L121.15 169.975
L121.438 170.605
L121.549 175.964
L121.643 179.029
L121.772 179.445
L122.008 207.473
L122.394 210.104
L122.602 211.594
L123.393 216.448
L123.478 219.579
L123.553 218.856
L123.605 218.708
L123.773 219.083
L123.877 219.871
L124.032 220.101
L124.146 251.368
L124.291 248.194
L124.334 254.273
L124.692 254.522
L124.79 253.613
L124.867 265.587
L124.995 266.569
L125.029 266.561
L125.107 266.204
L125.274 270.715
L125.382 282.148
L125.474 288.375
L125.654 295.401
L125.861 298.573
L125.894 298.502
L126.047 298.165
L126.141 298.964
L126.315 299.307
L126.471 299.123
L126.577 297.456
L126.798 296.967
L127.002 295.428
L127.184 294.816
L127.193 294.273
L127.921 293.768
L128.007 293.284
L128.346 293.548
L130.182 293.46
L130.233 293.391
L130.986 293.384
L131.645 289.493
L131.767 287.988
L132.031 287.931
L134.034 287.862
L134.213 282.167
L134.343 281.256
L134.676 272.93
L135.061 272.6
L135.084 271.511
L135.35 271.466
L135.451 269.774
L135.639 269.569
L136.512 269.457
L136.69 265.732
L136.86 265.632
L137.166 265.627
L137.371 263.012
L137.493 262.775
L137.638 262.729
L138.045 260.849
L138.304 260.626
L138.397 260.497
L138.539 259.224
L139.286 257.315
L139.633 257.336
L139.827 256.819
L140.218 256.414
L140.369 256.293
L140.474 256.262
L140.562 255.604
L140.657 255.494
L140.772 254.981
L141.002 254.406
L141.51 254.19
L141.598 253.962
L141.69 253.735
L141.866 253.299
L145.542 252.543
L148.834 252.704
L149.978 252.864
L169.635 252.951
L169.666 253.012
L171.669 253.22
L179.439 253.331
L179.446 253.333
L181.477 253.441
L183.392 253.482
L210.614 253.593
L211.461 253.609
L491.204 253.667
L491.204 253.667" style="fill:none;stroke:#ff0000;stroke-linecap:square;"/>
   </g>
   <g id="line2d_4">
    <path clip-path="url(#p7ff5b81e1d)" d="
M75.7304 388.8
L76.6934 388.691
L76.8042 388.562
L77.4254 382.822
L77.8436 377.832
L78.0915 374.399
L78.2191 372.341
L78.3895 370.665
L79.2765 361.437
L79.5994 360.921
L79.6527 359.267
L79.7409 359.101
L80.0934 354.204
L80.2036 353.015
L80.8346 346.735
L81.0549 343.892
L81.3211 340.272
L81.5353 338.23
L81.6798 336.816
L81.8888 336.07
L82.2028 332.207
L83.0894 323.436
L83.3338 322.698
L83.4062 322.381
L83.63 321.665
L83.7239 320.308
L83.9977 318.895
L84.4152 315.681
L84.5345 315.131
L84.5362 314.556
L84.6851 314.293
L84.7938 312.776
L84.9154 311.862
L85.2816 309.314
L85.4631 307.479
L85.5985 307.075
L85.6788 306
L85.879 304.246
L86.8884 294.446
L87.1913 294.062
L87.3003 293.134
L87.4329 292.803
L87.4755 292.009
L87.6631 291.217
L88.0916 287.548
L88.9062 281.178
L89.0929 279.342
L89.2248 278.082
L89.7993 273.141
L90.5831 266.343
L90.7552 265.947
L91.0553 263.377
L91.189 262.574
L91.2699 261.458
L91.631 257.847
L113.388 257.392
L114.261 256.954
L114.408 252.884
L114.47 252.579
L114.629 244.706
L114.964 230.899
L115.14 223.385
L115.306 220.615
L115.74 212.078
L115.908 211.192
L116.468 207.531
L116.682 207.324
L116.76 206.785
L116.82 206.646
L116.869 206.69
L116.913 206.713
L116.962 206.012
L117.051 206.047
L117.269 205.745
L117.423 205.788
L117.467 205.629
L117.944 206.811
L117.998 207.022
L118.299 207.247
L118.415 209.698
L118.555 210.973
L118.613 211.392
L118.613 211.392
L118.613 211.392
L118.637 210.817
L118.696 211.202
L119.051 212.955
L119.298 214.738
L119.442 214.96
L119.542 215.96
L119.784 217.785
L120.967 227.874
L121.334 229.263
L121.885 230.462
L122.52 231.698
L122.729 232.831
L123.016 233.653
L123.086 234.984
L123.697 236.866
L124.166 236.029
L124.351 237.344
L124.543 238.427
L124.807 240.573
L125.061 242.279
L125.226 242.519
L125.339 243.4
L125.498 245.425
L125.749 247.195
L125.964 247.816
L125.996 247.797
L126.278 247.392
L126.569 245.779
L126.877 244.712
L127.023 243.868
L127.136 243.783
L127.253 243.244
L127.425 242.572
L127.568 242.355
L128.331 239.706
L128.509 239.141
L128.689 238.821
L128.753 238.607
L128.861 238.419
L128.95 237.944
L129.185 237.829
L129.348 237.198
L129.671 236.578
L129.806 236.526
L129.873 236.225
L130.319 235.216
L130.479 234.674
L131.017 232.627
L131.189 232.204
L131.761 230.003
L132.323 227.252
L132.592 225.926
L132.937 224.453
L133.117 224.025
L133.676 222.098
L134.266 220.804
L134.323 220.586
L134.485 219.984
L134.567 219.539
L135.364 217.389
L136.333 216.033
L136.632 215.818
L136.806 215.642
L137.261 215.382
L137.374 215.192
L137.77 214.899
L138.388 214.542
L138.994 214.027
L139.293 213.748
L139.311 213.788
L139.974 214.237
L140.669 214.295
L142.178 214.21
L143.604 214.415
L149.467 215.767
L152.772 216.079
L156.896 216.257
L174.111 216.34
L196.088 216.292
L491.182 216.27
L491.182 216.27" style="fill:none;stroke:#008000;stroke-linecap:square;"/>
   </g>
   <g id="line2d_5">
    <path clip-path="url(#p7ff5b81e1d)" d="
M75.9556 388.8
L76.2625 388.8
L76.3948 388.786
L76.7612 387.008
L77.9427 353.088
L78.0735 350.821
L78.2486 342.214
L79.0411 334.27
L79.3328 331.854
L79.5317 330.679
L79.7371 329.168
L79.8481 328.04
L80.429 321.108
L81.1853 314.798
L81.3099 313.168
L81.6019 310.737
L82.0472 306.866
L82.3851 304.951
L82.5323 303.28
L82.6802 302.476
L82.7983 300.878
L82.978 299.339
L83.2845 296.614
L83.504 295.146
L83.9159 294.774
L83.9838 292.232
L84.1937 290.649
L84.9694 284.509
L85.107 283.375
L85.2832 276.759
L85.4148 275.45
L86.2419 267.557
L86.3885 266.163
L86.4986 265.209
L86.6443 263.358
L87.4694 256.274
L87.9399 252.803
L88.9686 243.022
L89.2135 240.27
L89.3566 239.808
L89.4587 237.99
L89.9492 233.355
L90.1874 231.462
L90.2934 230.095
L90.4501 228.233
L90.5966 227.354
L90.7786 225.105
L92.8485 206.656
L93.3843 202.827
L93.4723 201.976
L93.661 201.547
L93.7759 199.849
L95.569 185.776
L95.8083 183.641
L96.0271 183.216
L96.1256 181.933
L110.918 181.502
L111.163 181.069
L111.251 179.896
L111.865 174.729
L112.199 172.107
L112.571 169.488
L112.818 169.053
L113.279 164.259
L114.507 153.554
L114.533 82.2614
L114.597 83.3846
L114.69 79.9658
L114.917 75.2812
L115.08 73.9333
L115.137 73.9601
L115.292 75.0816
L115.47 77.2632
L115.675 81.1218
L115.78 82.0092
L115.833 83.8711
L116.065 88.0096
L116.476 98.1685
L116.709 104.228
L116.942 110.482
L116.974 101.677
L117.048 104.861
L117.224 108.325
L118.171 124.723
L118.617 137.396
L118.692 124.035
L118.742 127.591
L119.285 134.74
L119.438 138.848
L119.981 152.036
L120.222 156.502
L120.85 162.507
L120.88 154.51
L120.946 156.641
L121.161 153.664
L121.661 150.151
L122.193 149.128
L122.358 148.83
L122.392 169.111
L122.513 164.867
L122.637 176.386
L123.03 188.056
L123.47 192.943
L123.565 196.291
L124.03 200.019
L124.338 201.354
L124.443 219.104
L124.578 222.762
L124.7 227.068
L125.068 228.125
L125.151 240.113
L125.332 243.198
L125.446 255.471
L125.527 258.868
L125.68 272.061
L126.073 281.133
L126.208 282.09
L126.439 283.39
L126.484 283.551
L126.625 284.575
L126.657 284.177
L126.754 284.265
L126.81 284.31
L126.909 283.846
L127.202 283.726
L127.317 283.363
L128.14 283.034
L128.224 282.11
L128.405 281.801
L128.992 281.25
L129.975 281.031
L130.152 281.022
L130.361 280.157
L131.277 279.437
L131.71 279.295
L131.757 279.277
L132.009 275.321
L132.37 274.132
L132.623 273.783
L132.964 273.389
L133.305 273.247
L134.16 273.074
L134.251 270.533
L134.423 268.797
L134.527 265.217
L134.889 260.814
L135.192 258.88
L135.492 257.635
L135.622 255.845
L135.799 255.323
L136.168 254.526
L136.389 254.218
L136.606 254.055
L136.779 251.964
L136.935 251.413
L136.99 251.067
L137.404 250.436
L137.557 248.774
L137.753 248.008
L138.06 247.565
L138.215 246.88
L138.276 246.802
L138.392 246.043
L138.566 245.561
L138.811 244.274
L138.96 243.928
L139.313 243.422
L139.397 243.354
L139.582 242.466
L140.309 241.783
L140.415 241.197
L140.568 240.941
L140.694 240.348
L141.201 239.055
L141.62 238.61
L141.746 238.244
L141.929 237.794
L142.287 237.546
L143.224 237.308
L143.382 237.209
L143.983 237.044
L144.911 236.725
L147.279 236.732
L148.964 236.833
L149.172 236.894
L149.441 236.955
L153.804 237.067
L155.695 237.178
L169.351 237.193
L170.51 237.299
L170.606 237.352
L173.651 237.469
L181.257 237.576
L181.395 237.626
L182.941 237.666
L206.973 237.776
L211.359 237.834
L216.08 237.945
L231.296 237.941
L238.009 237.927
L490.805 237.927
L490.805 237.927" style="fill:none;stroke:#0000ff;stroke-linecap:square;"/>
   </g>
   <g id="patch_3">
    <path d="
M518.4 388.8
L518.4 43.2" style="fill:none;stroke:#000000;stroke-linecap:square;stroke-linejoin:miter;"/>
   </g>
   <g id="patch_4">
    <path d="
M72 43.2
L518.4 43.2" style="fill:none;stroke:#000000;stroke-linecap:square;stroke-linejoin:miter;"/>
   </g>
   <g id="patch_5">
    <path d="
M72 388.8
L72 43.2" style="fill:none;stroke:#000000;stroke-linecap:square;stroke-linejoin:miter;"/>
   </g>
   <g id="patch_6">
    <path d="
M72 388.8
L518.4 388.8" style="fill:none;stroke:#000000;stroke-linecap:square;stroke-linejoin:miter;"/>
   </g>
   <g id="matplotlib.axis_1">
    <g id="xtick_1">
     <g id="line2d_6">
      <path clip-path="url(#p7ff5b81e1d)" d="
M72 388.8
L72 43.2" style="fill:none;stroke:#000000;stroke-dasharray:3.000000,5.000000,1.000000,5.000000;stroke-dashoffset:0.0;stroke-width:0.5;"/>
     </g>
     <g id="line2d_7">
      <defs>
       <path d="
M0 0
L0 -4" id="mc7db9fdffb" style="stroke:#000000;stroke-width:0.5;"/>
      </defs>
      <g>
       <use style="stroke:#000000;stroke-width:0.5;" x="72.0" xlink:href="#mc7db9fdffb" y="388.8"/>
      </g>
     </g>
     <g id="line2d_8">
      <defs>
       <path d="
M0 0
L0 4" id="m5a7d422ac3" style="stroke:#000000;stroke-width:0.5;"/>
      </defs>
      <g>
       <use style="stroke:#000000;stroke-width:0.5;" x="72.0" xlink:href="#m5a7d422ac3" y="43.2"/>
      </g>
     </g>
     <g id="text_1">
      <!-- 0 -->
      <defs>
       <path d="
M31.7812 66.4062
Q24.1719 66.4062 20.3281 58.9062
Q16.5 51.4219 16.5 36.375
Q16.5 21.3906 20.3281 13.8906
Q24.1719 6.39062 31.7812 6.39062
Q39.4531 6.39062 43.2812 13.8906
Q47.125 21.3906 47.125 36.375
Q47.125 51.4219 43.2812 58.9062
Q39.4531 66.4062 31.7812 66.4062
M31.7812 74.2188
Q44.0469 74.2188 50.5156 64.5156
Q56.9844 54.8281 56.9844 36.375
Q56.9844 17.9688 50.5156 8.26562
Q44.0469 -1.42188 31.7812 -1.42188
Q19.5312 -1.42188 13.0625 8.26562
Q6.59375 17.9688 6.59375 36.375
Q6.59375 54.8281 13.0625 64.5156
Q19.5312 74.2188 31.7812 74.2188" id="DejaVuSans-30"/>
      </defs>
      <g transform="translate(68.9765625 401.918125)scale(0.12 -0.12)">
       <use xlink:href="#DejaVuSans-30"/>
      </g>
     </g>
    </g>
    <g id="xtick_2">
     <g id="line2d_9">
      <path clip-path="url(#p7ff5b81e1d)" d="
M161.28 388.8
L161.28 43.2" style="fill:none;stroke:#000000;stroke-dasharray:3.000000,5.000000,1.000000,5.000000;stroke-dashoffset:0.0;stroke-width:0.5;"/>
     </g>
     <g id="line2d_10">
      <g>
       <use style="stroke:#000000;stroke-width:0.5;" x="161.28" xlink:href="#mc7db9fdffb" y="388.8"/>
      </g>
     </g>
     <g id="line2d_11">
      <g>
       <use style="stroke:#000000;stroke-width:0.5;" x="161.28" xlink:href="#m5a7d422ac3" y="43.2"/>
      </g>
     </g>
     <g id="text_2">
      <!-- 200 -->
      <defs>
       <path d="
M19.1875 8.29688
L53.6094 8.29688
L53.6094 0
L7.32812 0
L7.32812 8.29688
Q12.9375 14.1094 22.625 23.8906
Q32.3281 33.6875 34.8125 36.5312
Q39.5469 41.8438 41.4219 45.5312
Q43.3125 49.2188 43.3125 52.7812
Q43.3125 58.5938 39.2344 62.25
Q35.1562 65.9219 28.6094 65.9219
Q23.9688 65.9219 18.8125 64.3125
Q13.6719 62.7031 7.8125 59.4219
L7.8125 69.3906
Q13.7656 71.7812 18.9375 73
Q24.125 74.2188 28.4219 74.2188
Q39.75 74.2188 46.4844 68.5469
Q53.2188 62.8906 53.2188 53.4219
Q53.2188 48.9219 51.5312 44.8906
Q49.8594 40.875 45.4062 35.4062
Q44.1875 33.9844 37.6406 27.2188
Q31.1094 20.4531 19.1875 8.29688" id="DejaVuSans-32"/>
      </defs>
      <g transform="translate(150.665625 401.918125)scale(0.12 -0.12)">
       <use xlink:href="#DejaVuSans-32"/>
       <use x="63.623046875" xlink:href="#DejaVuSans-30"/>
       <use x="127.24609375" xlink:href="#DejaVuSans-30"/>
      </g>
     </g>
    </g>
    <g id="xtick_3">
     <g id="line2d_12">
      <path clip-path="url(#p7ff5b81e1d)" d="
M250.56 388.8
L250.56 43.2" style="fill:none;stroke:#000000;stroke-dasharray:3.000000,5.000000,1.000000,5.000000;stroke-dashoffset:0.0;stroke-width:0.5;"/>
     </g>
     <g id="line2d_13">
      <g>
       <use style="stroke:#000000;stroke-width:0.5;" x="250.56" xlink:href="#mc7db9fdffb" y="388.8"/>
      </g>
     </g>
     <g id="line2d_14">
      <g>
       <use style="stroke:#000000;stroke-width:0.5;" x="250.56" xlink:href="#m5a7d422ac3" y="43.2"/>
      </g>
     </g>
     <g id="text_3">
      <!-- 400 -->
      <defs>
       <path d="
M37.7969 64.3125
L12.8906 25.3906
L37.7969 25.3906
z

M35.2031 72.9062
L47.6094 72.9062
L47.6094 25.3906
L58.0156 25.3906
L58.0156 17.1875
L47.6094 17.1875
L47.6094 0
L37.7969 0
L37.7969 17.1875
L4.89062 17.1875
L4.89062 26.7031
z
" id="DejaVuSans-34"/>
      </defs>
      <g transform="translate(239.799375 401.918125)scale(0.12 -0.12)">
       <use xlink:href="#DejaVuSans-34"/>
       <use x="63.623046875" xlink:href="#DejaVuSans-30"/>
       <use x="127.24609375" xlink:href="#DejaVuSans-30"/>
      </g>
     </g>
    </g>
    <g id="xtick_4">
     <g id="line2d_15">
      <path clip-path="url(#p7ff5b81e1d)" d="
M339.84 388.8
L339.84 43.2" style="fill:none;stroke:#000000;stroke-dasharray:3.000000,5.000000,1.000000,5.000000;stroke-dashoffset:0.0;stroke-width:0.5;"/>
     </g>
     <g id="line2d_16">
      <g>
       <use style="stroke:#000000;stroke-width:0.5;" x="339.84" xlink:href="#mc7db9fdffb" y="388.8"/>
      </g>
     </g>
     <g id="line2d_17">
      <g>
       <use style="stroke:#000000;stroke-width:0.5;" x="339.84" xlink:href="#m5a7d422ac3" y="43.2"/>
      </g>
     </g>
     <g id="text_4">
      <!-- 600 -->
      <defs>
       <path d="
M33.0156 40.375
Q26.375 40.375 22.4844 35.8281
Q18.6094 31.2969 18.6094 23.3906
Q18.6094 15.5312 22.4844 10.9531
Q26.375 6.39062 33.0156 6.39062
Q39.6562 6.39062 43.5312 10.9531
Q47.4062 15.5312 47.4062 23.3906
Q47.4062 31.2969 43.5312 35.8281
Q39.6562 40.375 33.0156 40.375
M52.5938 71.2969
L52.5938 62.3125
Q48.875 64.0625 45.0938 64.9844
Q41.3125 65.9219 37.5938 65.9219
Q27.8281 65.9219 22.6719 59.3281
Q17.5312 52.7344 16.7969 39.4062
Q19.6719 43.6562 24.0156 45.9219
Q28.375 48.1875 33.5938 48.1875
Q44.5781 48.1875 50.9531 41.5156
Q57.3281 34.8594 57.3281 23.3906
Q57.3281 12.1562 50.6875 5.35938
Q44.0469 -1.42188 33.0156 -1.42188
Q20.3594 -1.42188 13.6719 8.26562
Q6.98438 17.9688 6.98438 36.375
Q6.98438 53.6562 15.1875 63.9375
Q23.3906 74.2188 37.2031 74.2188
Q40.9219 74.2188 44.7031 73.4844
Q48.4844 72.75 52.5938 71.2969" id="DejaVuSans-36"/>
      </defs>
      <g transform="translate(329.205 401.918125)scale(0.12 -0.12)">
       <use xlink:href="#DejaVuSans-36"/>
       <use x="63.623046875" xlink:href="#DejaVuSans-30"/>
       <use x="127.24609375" xlink:href="#DejaVuSans-30"/>
      </g>
     </g>
    </g>
    <g id="xtick_5">
     <g id="line2d_18">
      <path clip-path="url(#p7ff5b81e1d)" d="
M429.12 388.8
L429.12 43.2" style="fill:none;stroke:#000000;stroke-dasharray:3.000000,5.000000,1.000000,5.000000;stroke-dashoffset:0.0;stroke-width:0.5;"/>
     </g>
     <g id="line2d_19">
      <g>
       <use style="stroke:#000000;stroke-width:0.5;" x="429.12" xlink:href="#mc7db9fdffb" y="388.8"/>
      </g>
     </g>
     <g id="line2d_20">
      <g>
       <use style="stroke:#000000;stroke-width:0.5;" x="429.12" xlink:href="#m5a7d422ac3" y="43.2"/>
      </g>
     </g>
     <g id="text_5">
      <!-- 800 -->
      <defs>
       <path d="
M31.7812 34.625
Q24.75 34.625 20.7188 30.8594
Q16.7031 27.0938 16.7031 20.5156
Q16.7031 13.9219 20.7188 10.1562
Q24.75 6.39062 31.7812 6.39062
Q38.8125 6.39062 42.8594 10.1719
Q46.9219 13.9688 46.9219 20.5156
Q46.9219 27.0938 42.8906 30.8594
Q38.875 34.625 31.7812 34.625
M21.9219 38.8125
Q15.5781 40.375 12.0312 44.7188
Q8.5 49.0781 8.5 55.3281
Q8.5 64.0625 14.7188 69.1406
Q20.9531 74.2188 31.7812 74.2188
Q42.6719 74.2188 48.875 69.1406
Q55.0781 64.0625 55.0781 55.3281
Q55.0781 49.0781 51.5312 44.7188
Q48 40.375 41.7031 38.8125
Q48.8281 37.1562 52.7969 32.3125
Q56.7812 27.4844 56.7812 20.5156
Q56.7812 9.90625 50.3125 4.23438
Q43.8438 -1.42188 31.7812 -1.42188
Q19.7344 -1.42188 13.25 4.23438
Q6.78125 9.90625 6.78125 20.5156
Q6.78125 27.4844 10.7812 32.3125
Q14.7969 37.1562 21.9219 38.8125
M18.3125 54.3906
Q18.3125 48.7344 21.8438 45.5625
Q25.3906 42.3906 31.7812 42.3906
Q38.1406 42.3906 41.7188 45.5625
Q45.3125 48.7344 45.3125 54.3906
Q45.3125 60.0625 41.7188 63.2344
Q38.1406 66.4062 31.7812 66.4062
Q25.3906 66.4062 21.8438 63.2344
Q18.3125 60.0625 18.3125 54.3906" id="DejaVuSans-38"/>
      </defs>
      <g transform="translate(418.4728125 401.918125)scale(0.12 -0.12)">
       <use xlink:href="#DejaVuSans-38"/>
       <use x="63.623046875" xlink:href="#DejaVuSans-30"/>
       <use x="127.24609375" xlink:href="#DejaVuSans-30"/>
      </g>
     </g>
    </g>
    <g id="xtick_6">
     <g id="line2d_21">
      <path clip-path="url(#p7ff5b81e1d)" d="
M518.4 388.8
L518.4 43.2" style="fill:none;stroke:#000000;stroke-dasharray:3.000000,5.000000,1.000000,5.000000;stroke-dashoffset:0.0;stroke-width:0.5;"/>
     </g>
     <g id="line2d_22">
      <g>
       <use style="stroke:#000000;stroke-width:0.5;" x="518.4" xlink:href="#mc7db9fdffb" y="388.8"/>
      </g>
     </g>
     <g id="line2d_23">
      <g>
       <use style="stroke:#000000;stroke-width:0.5;" x="518.4" xlink:href="#m5a7d422ac3" y="43.2"/>
      </g>
     </g>
     <g id="text_6">
      <!-- 1000 -->
      <defs>
       <path d="
M12.4062 8.29688
L28.5156 8.29688
L28.5156 63.9219
L10.9844 60.4062
L10.9844 69.3906
L28.4219 72.9062
L38.2812 72.9062
L38.2812 8.29688
L54.3906 8.29688
L54.3906 0
L12.4062 0
z
" id="DejaVuSans-31"/>
      </defs>
      <g transform="translate(504.1875 401.918125)scale(0.12 -0.12)">
       <use xlink:href="#DejaVuSans-31"/>
       <use x="63.623046875" xlink:href="#DejaVuSans-30"/>
       <use x="127.24609375" xlink:href="#DejaVuSans-30"/>
       <use x="190.869140625" xlink:href="#DejaVuSans-30"/>
      </g>
     </g>
    </g>
    <g id="text_7">
     <!-- Time -->
     <defs>
      <path d="
M56.2031 29.5938
L56.2031 25.2031
L14.8906 25.2031
Q15.4844 15.9219 20.4844 11.0625
Q25.4844 6.20312 34.4219 6.20312
Q39.5938 6.20312 44.4531 7.46875
Q49.3125 8.73438 54.1094 11.2812
L54.1094 2.78125
Q49.2656 0.734375 44.1875 -0.34375
Q39.1094 -1.42188 33.8906 -1.42188
Q20.7969 -1.42188 13.1562 6.1875
Q5.51562 13.8125 5.51562 26.8125
Q5.51562 40.2344 12.7656 48.1094
Q20.0156 56 32.3281 56
Q43.3594 56 49.7812 48.8906
Q56.2031 41.7969 56.2031 29.5938
M47.2188 32.2344
Q47.125 39.5938 43.0938 43.9844
Q39.0625 48.3906 32.4219 48.3906
Q24.9062 48.3906 20.3906 44.1406
Q15.875 39.8906 15.1875 32.1719
z
" id="DejaVuSans-65"/>
      <path d="
M9.42188 54.6875
L18.4062 54.6875
L18.4062 0
L9.42188 0
z

M9.42188 75.9844
L18.4062 75.9844
L18.4062 64.5938
L9.42188 64.5938
z
" id="DejaVuSans-69"/>
      <path d="
M52 44.1875
Q55.375 50.25 60.0625 53.125
Q64.75 56 71.0938 56
Q79.6406 56 84.2812 50.0156
Q88.9219 44.0469 88.9219 33.0156
L88.9219 0
L79.8906 0
L79.8906 32.7188
Q79.8906 40.5781 77.0938 44.375
Q74.3125 48.1875 68.6094 48.1875
Q61.625 48.1875 57.5625 43.5469
Q53.5156 38.9219 53.5156 30.9062
L53.5156 0
L44.4844 0
L44.4844 32.7188
Q44.4844 40.625 41.7031 44.4062
Q38.9219 48.1875 33.1094 48.1875
Q26.2188 48.1875 22.1562 43.5312
Q18.1094 38.875 18.1094 30.9062
L18.1094 0
L9.07812 0
L9.07812 54.6875
L18.1094 54.6875
L18.1094 46.1875
Q21.1875 51.2188 25.4844 53.6094
Q29.7812 56 35.6875 56
Q41.6562 56 45.8281 52.9688
Q50 49.9531 52 44.1875" id="DejaVuSans-6d"/>
      <path d="
M-0.296875 72.9062
L61.375 72.9062
L61.375 64.5938
L35.5 64.5938
L35.5 0
L25.5938 0
L25.5938 64.5938
L-0.296875 64.5938
z
" id="DejaVuSans-54"/>
     </defs>
     <g transform="translate(278.42515625 420.0515625)scale(0.14 -0.14)">
      <use xlink:href="#DejaVuSans-54"/>
      <use x="57.958984375" xlink:href="#DejaVuSans-69"/>
      <use x="85.7421875" xlink:href="#DejaVuSans-6d"/>
      <use x="183.154296875" xlink:href="#DejaVuSans-65"/>
     </g>
    </g>
   </g>
   <g id="matplotlib.axis_2">
    <g id="ytick_1">
     <g id="line2d_24">
      <path clip-path="url(#p7ff5b81e1d)" d="
M72 388.8
L518.4 388.8" style="fill:none;stroke:#000000;stroke-dasharray:3.000000,5.000000,1.000000,5.000000;stroke-dashoffset:0.0;stroke-width:0.5;"/>
     </g>
     <g id="line2d_25">
      <defs>
       <path d="
M0 0
L4 0" id="md7965d1ba0" style="stroke:#000000;stroke-width:0.5;"/>
      </defs>
      <g>
       <use style="stroke:#000000;stroke-width:0.5;" x="72.0" xlink:href="#md7965d1ba0" y="388.8"/>
      </g>
     </g>
     <g id="line2d_26">
      <defs>
       <path d="
M0 0
L-4 0" id="md9a1c1a7cd" style="stroke:#000000;stroke-width:0.5;"/>
      </defs>
      <g>
       <use style="stroke:#000000;stroke-width:0.5;" x="518.4" xlink:href="#md9a1c1a7cd" y="388.8"/>
      </g>
     </g>
     <g id="text_8">
      <!-- 0 -->
      <g transform="translate(61.953125 392.11125)scale(0.12 -0.12)">
       <use xlink:href="#DejaVuSans-30"/>
      </g>
     </g>
    </g>
    <g id="ytick_2">
     <g id="line2d_27">
      <path clip-path="url(#p7ff5b81e1d)" d="
M72 345.6
L518.4 345.6" style="fill:none;stroke:#000000;stroke-dasharray:3.000000,5.000000,1.000000,5.000000;stroke-dashoffset:0.0;stroke-width:0.5;"/>
     </g>
     <g id="line2d_28">
      <g>
       <use style="stroke:#000000;stroke-width:0.5;" x="72.0" xlink:href="#md7965d1ba0" y="345.6"/>
      </g>
     </g>
     <g id="line2d_29">
      <g>
       <use style="stroke:#000000;stroke-width:0.5;" x="518.4" xlink:href="#md9a1c1a7cd" y="345.6"/>
      </g>
     </g>
     <g id="text_9">
      <!-- 5 -->
      <defs>
       <path d="
M10.7969 72.9062
L49.5156 72.9062
L49.5156 64.5938
L19.8281 64.5938
L19.8281 46.7344
Q21.9688 47.4688 24.1094 47.8281
Q26.2656 48.1875 28.4219 48.1875
Q40.625 48.1875 47.75 41.5
Q54.8906 34.8125 54.8906 23.3906
Q54.8906 11.625 47.5625 5.09375
Q40.2344 -1.42188 26.9062 -1.42188
Q22.3125 -1.42188 17.5469 -0.640625
Q12.7969 0.140625 7.71875 1.70312
L7.71875 11.625
Q12.1094 9.23438 16.7969 8.0625
Q21.4844 6.89062 26.7031 6.89062
Q35.1562 6.89062 40.0781 11.3281
Q45.0156 15.7656 45.0156 23.3906
Q45.0156 31 40.0781 35.4375
Q35.1562 39.8906 26.7031 39.8906
Q22.75 39.8906 18.8125 39.0156
Q14.8906 38.1406 10.7969 36.2812
z
" id="DejaVuSans-35"/>
      </defs>
      <g transform="translate(62.339375 348.91125)scale(0.12 -0.12)">
       <use xlink:href="#DejaVuSans-35"/>
      </g>
     </g>
    </g>
    <g id="ytick_3">
     <g id="line2d_30">
      <path clip-path="url(#p7ff5b81e1d)" d="
M72 302.4
L518.4 302.4" style="fill:none;stroke:#000000;stroke-dasharray:3.000000,5.000000,1.000000,5.000000;stroke-dashoffset:0.0;stroke-width:0.5;"/>
     </g>
     <g id="line2d_31">
      <g>
       <use style="stroke:#000000;stroke-width:0.5;" x="72.0" xlink:href="#md7965d1ba0" y="302.4"/>
      </g>
     </g>
     <g id="line2d_32">
      <g>
       <use style="stroke:#000000;stroke-width:0.5;" x="518.4" xlink:href="#md9a1c1a7cd" y="302.4"/>
      </g>
     </g>
     <g id="text_10">
      <!-- 10 -->
      <g transform="translate(54.845 305.71125)scale(0.12 -0.12)">
       <use xlink:href="#DejaVuSans-31"/>
       <use x="63.623046875" xlink:href="#DejaVuSans-30"/>
      </g>
     </g>
    </g>
    <g id="ytick_4">
     <g id="line2d_33">
      <path clip-path="url(#p7ff5b81e1d)" d="
M72 259.2
L518.4 259.2" style="fill:none;stroke:#000000;stroke-dasharray:3.000000,5.000000,1.000000,5.000000;stroke-dashoffset:0.0;stroke-width:0.5;"/>
     </g>
     <g id="line2d_34">
      <g>
       <use style="stroke:#000000;stroke-width:0.5;" x="72.0" xlink:href="#md7965d1ba0" y="259.2"/>
      </g>
     </g>
     <g id="line2d_35">
      <g>
       <use style="stroke:#000000;stroke-width:0.5;" x="518.4" xlink:href="#md9a1c1a7cd" y="259.2"/>
      </g>
     </g>
     <g id="text_11">
      <!-- 15 -->
      <g transform="translate(55.09625 262.51125)scale(0.12 -0.12)">
       <use xlink:href="#DejaVuSans-31"/>
       <use x="63.623046875" xlink:href="#DejaVuSans-35"/>
      </g>
     </g>
    </g>
    <g id="ytick_5">
     <g id="line2d_36">
      <path clip-path="url(#p7ff5b81e1d)" d="
M72 216
L518.4 216" style="fill:none;stroke:#000000;stroke-dasharray:3.000000,5.000000,1.000000,5.000000;stroke-dashoffset:0.0;stroke-width:0.5;"/>
     </g>
     <g id="line2d_37">
      <g>
       <use style="stroke:#000000;stroke-width:0.5;" x="72.0" xlink:href="#md7965d1ba0" y="216.0"/>
      </g>
     </g>
     <g id="line2d_38">
      <g>
       <use style="stroke:#000000;stroke-width:0.5;" x="518.4" xlink:href="#md9a1c1a7cd" y="216.0"/>
      </g>
     </g>
     <g id="text_12">
      <!-- 20 -->
      <g transform="translate(54.40625 219.31125)scale(0.12 -0.12)">
       <use xlink:href="#DejaVuSans-32"/>
       <use x="63.623046875" xlink:href="#DejaVuSans-30"/>
      </g>
     </g>
    </g>
    <g id="ytick_6">
     <g id="line2d_39">
      <path clip-path="url(#p7ff5b81e1d)" d="
M72 172.8
L518.4 172.8" style="fill:none;stroke:#000000;stroke-dasharray:3.000000,5.000000,1.000000,5.000000;stroke-dashoffset:0.0;stroke-width:0.5;"/>
     </g>
     <g id="line2d_40">
      <g>
       <use style="stroke:#000000;stroke-width:0.5;" x="72.0" xlink:href="#md7965d1ba0" y="172.8"/>
      </g>
     </g>
     <g id="line2d_41">
      <g>
       <use style="stroke:#000000;stroke-width:0.5;" x="518.4" xlink:href="#md9a1c1a7cd" y="172.8"/>
      </g>
     </g>
     <g id="text_13">
      <!-- 25 -->
      <g transform="translate(54.6575 176.11125)scale(0.12 -0.12)">
       <use xlink:href="#DejaVuSans-32"/>
       <use x="63.623046875" xlink:href="#DejaVuSans-35"/>
      </g>
     </g>
    </g>
    <g id="ytick_7">
     <g id="line2d_42">
      <path clip-path="url(#p7ff5b81e1d)" d="
M72 129.6
L518.4 129.6" style="fill:none;stroke:#000000;stroke-dasharray:3.000000,5.000000,1.000000,5.000000;stroke-dashoffset:0.0;stroke-width:0.5;"/>
     </g>
     <g id="line2d_43">
      <g>
       <use style="stroke:#000000;stroke-width:0.5;" x="72.0" xlink:href="#md7965d1ba0" y="129.6"/>
      </g>
     </g>
     <g id="line2d_44">
      <g>
       <use style="stroke:#000000;stroke-width:0.5;" x="518.4" xlink:href="#md9a1c1a7cd" y="129.6"/>
      </g>
     </g>
     <g id="text_14">
      <!-- 30 -->
      <defs>
       <path d="
M40.5781 39.3125
Q47.6562 37.7969 51.625 33
Q55.6094 28.2188 55.6094 21.1875
Q55.6094 10.4062 48.1875 4.48438
Q40.7656 -1.42188 27.0938 -1.42188
Q22.5156 -1.42188 17.6562 -0.515625
Q12.7969 0.390625 7.625 2.20312
L7.625 11.7188
Q11.7188 9.32812 16.5938 8.10938
Q21.4844 6.89062 26.8125 6.89062
Q36.0781 6.89062 40.9375 10.5469
Q45.7969 14.2031 45.7969 21.1875
Q45.7969 27.6406 41.2812 31.2656
Q36.7656 34.9062 28.7188 34.9062
L20.2188 34.9062
L20.2188 43.0156
L29.1094 43.0156
Q36.375 43.0156 40.2344 45.9219
Q44.0938 48.8281 44.0938 54.2969
Q44.0938 59.9062 40.1094 62.9062
Q36.1406 65.9219 28.7188 65.9219
Q24.6562 65.9219 20.0156 65.0312
Q15.375 64.1562 9.8125 62.3125
L9.8125 71.0938
Q15.4375 72.6562 20.3438 73.4375
Q25.25 74.2188 29.5938 74.2188
Q40.8281 74.2188 47.3594 69.1094
Q53.9062 64.0156 53.9062 55.3281
Q53.9062 49.2656 50.4375 45.0938
Q46.9688 40.9219 40.5781 39.3125" id="DejaVuSans-33"/>
      </defs>
      <g transform="translate(54.441875 132.91125)scale(0.12 -0.12)">
       <use xlink:href="#DejaVuSans-33"/>
       <use x="63.623046875" xlink:href="#DejaVuSans-30"/>
      </g>
     </g>
    </g>
    <g id="ytick_8">
     <g id="line2d_45">
      <path clip-path="url(#p7ff5b81e1d)" d="
M72 86.4
L518.4 86.4" style="fill:none;stroke:#000000;stroke-dasharray:3.000000,5.000000,1.000000,5.000000;stroke-dashoffset:0.0;stroke-width:0.5;"/>
     </g>
     <g id="line2d_46">
      <g>
       <use style="stroke:#000000;stroke-width:0.5;" x="72.0" xlink:href="#md7965d1ba0" y="86.4"/>
      </g>
     </g>
     <g id="line2d_47">
      <g>
       <use style="stroke:#000000;stroke-width:0.5;" x="518.4" xlink:href="#md9a1c1a7cd" y="86.4"/>
      </g>
     </g>
     <g id="text_15">
      <!-- 35 -->
      <g transform="translate(54.693125 89.71125)scale(0.12 -0.12)">
       <use xlink:href="#DejaVuSans-33"/>
       <use x="63.623046875" xlink:href="#DejaVuSans-35"/>
      </g>
     </g>
    </g>
    <g id="ytick_9">
     <g id="line2d_48">
      <path clip-path="url(#p7ff5b81e1d)" d="
M72 43.2
L518.4 43.2" style="fill:none;stroke:#000000;stroke-dasharray:3.000000,5.000000,1.000000,5.000000;stroke-dashoffset:0.0;stroke-width:0.5;"/>
     </g>
     <g id="line2d_49">
      <g>
       <use style="stroke:#000000;stroke-width:0.5;" x="72.0" xlink:href="#md7965d1ba0" y="43.2"/>
      </g>
     </g>
     <g id="line2d_50">
      <g>
       <use style="stroke:#000000;stroke-width:0.5;" x="518.4" xlink:href="#md9a1c1a7cd" y="43.2"/>
      </g>
     </g>
     <g id="text_16">
      <!-- 40 -->
      <g transform="translate(54.11375 46.51125)scale(0.12 -0.12)">
       <use xlink:href="#DejaVuSans-34"/>
       <use x="63.623046875" xlink:href="#DejaVuSans-30"/>
      </g>
     </g>
    </g>
    <g id="text_17">
     <!-- lambda -->
     <defs>
      <path d="
M34.2812 27.4844
Q23.3906 27.4844 19.1875 25
Q14.9844 22.5156 14.9844 16.5
Q14.9844 11.7188 18.1406 8.90625
Q21.2969 6.10938 26.7031 6.10938
Q34.1875 6.10938 38.7031 11.4062
Q43.2188 16.7031 43.2188 25.4844
L43.2188 27.4844
z

M52.2031 31.2031
L52.2031 0
L43.2188 0
L43.2188 8.29688
Q40.1406 3.32812 35.5469 0.953125
Q30.9531 -1.42188 24.3125 -1.42188
Q15.9219 -1.42188 10.9531 3.29688
Q6 8.01562 6 15.9219
Q6 25.1406 12.1719 29.8281
Q18.3594 34.5156 30.6094 34.5156
L43.2188 34.5156
L43.2188 35.4062
Q43.2188 41.6094 39.1406 45
Q35.0625 48.3906 27.6875 48.3906
Q23 48.3906 18.5469 47.2656
Q14.1094 46.1406 10.0156 43.8906
L10.0156 52.2031
Q14.9375 54.1094 19.5781 55.0469
Q24.2188 56 28.6094 56
Q40.4844 56 46.3438 49.8438
Q52.2031 43.7031 52.2031 31.2031" id="DejaVuSans-61"/>
      <path d="
M48.6875 27.2969
Q48.6875 37.2031 44.6094 42.8438
Q40.5312 48.4844 33.4062 48.4844
Q26.2656 48.4844 22.1875 42.8438
Q18.1094 37.2031 18.1094 27.2969
Q18.1094 17.3906 22.1875 11.75
Q26.2656 6.10938 33.4062 6.10938
Q40.5312 6.10938 44.6094 11.75
Q48.6875 17.3906 48.6875 27.2969
M18.1094 46.3906
Q20.9531 51.2656 25.2656 53.625
Q29.5938 56 35.5938 56
Q45.5625 56 51.7812 48.0938
Q58.0156 40.1875 58.0156 27.2969
Q58.0156 14.4062 51.7812 6.48438
Q45.5625 -1.42188 35.5938 -1.42188
Q29.5938 -1.42188 25.2656 0.953125
Q20.9531 3.32812 18.1094 8.20312
L18.1094 0
L9.07812 0
L9.07812 75.9844
L18.1094 75.9844
z
" id="DejaVuSans-62"/>
      <path d="
M45.4062 46.3906
L45.4062 75.9844
L54.3906 75.9844
L54.3906 0
L45.4062 0
L45.4062 8.20312
Q42.5781 3.32812 38.25 0.953125
Q33.9375 -1.42188 27.875 -1.42188
Q17.9688 -1.42188 11.7344 6.48438
Q5.51562 14.4062 5.51562 27.2969
Q5.51562 40.1875 11.7344 48.0938
Q17.9688 56 27.875 56
Q33.9375 56 38.25 53.625
Q42.5781 51.2656 45.4062 46.3906
M14.7969 27.2969
Q14.7969 17.3906 18.875 11.75
Q22.9531 6.10938 30.0781 6.10938
Q37.2031 6.10938 41.2969 11.75
Q45.4062 17.3906 45.4062 27.2969
Q45.4062 37.2031 41.2969 42.8438
Q37.2031 48.4844 30.0781 48.4844
Q22.9531 48.4844 18.875 42.8438
Q14.7969 37.2031 14.7969 27.2969" id="DejaVuSans-64"/>
      <path d="
M9.42188 75.9844
L18.4062 75.9844
L18.4062 0
L9.42188 0
z
" id="DejaVuSans-6c"/>
     </defs>
     <g transform="translate(46.2021875 240.9353125)rotate(-90.0)scale(0.14 -0.14)">
      <use xlink:href="#DejaVuSans-6c"/>
      <use x="27.783203125" xlink:href="#DejaVuSans-61"/>
      <use x="89.0625" xlink:href="#DejaVuSans-6d"/>
      <use x="186.474609375" xlink:href="#DejaVuSans-62"/>
      <use x="249.951171875" xlink:href="#DejaVuSans-64"/>
      <use x="313.427734375" xlink:href="#DejaVuSans-61"/>
     </g>
    </g>
   </g>
   <g id="text_18">
    <!-- lambda -->
    <g transform="translate(270.2646875 38.2)scale(0.14 -0.14)">
     <use xlink:href="#DejaVuSans-6c"/>
     <use x="27.783203125" xlink:href="#DejaVuSans-61"/>
     <use x="89.0625" xlink:href="#DejaVuSans-6d"/>
     <use x="186.474609375" xlink:href="#DejaVuSans-62"/>
     <use x="249.951171875" xlink:href="#DejaVuSans-64"/>
     <use x="313.427734375" xlink:href="#DejaVuSans-61"/>
    </g>
   </g>
   <g id="legend_1">
    <g id="patch_7">
     <path d="
M398.403 160.402
L511.2 160.402
L511.2 50.4
L398.403 50.4
z
" style="fill:#ffffff;stroke:#000000;stroke-linejoin:miter;"/>
    </g>
    <g id="line2d_51">
     <path d="
M408.483 62.0617
L428.643 62.0617" style="fill:none;stroke:#bf00bf;stroke-linecap:square;"/>
    </g>
    <g id="line2d_52"/>
    <g id="text_19">
     <!-- lambda1 -->
     <g transform="translate(444.483 67.10175)scale(0.144 -0.144)">
      <use xlink:href="#DejaVuSans-6c"/>
      <use x="27.783203125" xlink:href="#DejaVuSans-61"/>
      <use x="89.0625" xlink:href="#DejaVuSans-6d"/>
      <use x="186.474609375" xlink:href="#DejaVuSans-62"/>
      <use x="249.951171875" xlink:href="#DejaVuSans-64"/>
      <use x="313.427734375" xlink:href="#DejaVuSans-61"/>
      <use x="374.70703125" xlink:href="#DejaVuSans-31"/>
     </g>
    </g>
    <g id="line2d_53">
     <path d="
M408.483 83.1983
L428.643 83.1983" style="fill:none;stroke:#00bfbf;stroke-linecap:square;"/>
    </g>
    <g id="line2d_54"/>
    <g id="text_20">
     <!-- lambda2 -->
     <g transform="translate(444.483 88.23825)scale(0.144 -0.144)">
      <use xlink:href="#DejaVuSans-6c"/>
      <use x="27.783203125" xlink:href="#DejaVuSans-61"/>
      <use x="89.0625" xlink:href="#DejaVuSans-6d"/>
      <use x="186.474609375" xlink:href="#DejaVuSans-62"/>
      <use x="249.951171875" xlink:href="#DejaVuSans-64"/>
      <use x="313.427734375" xlink:href="#DejaVuSans-61"/>
      <use x="374.70703125" xlink:href="#DejaVuSans-32"/>
     </g>
    </g>
    <g id="line2d_55">
     <path d="
M408.483 104.335
L428.643 104.335" style="fill:none;stroke:#ff0000;stroke-linecap:square;"/>
    </g>
    <g id="line2d_56"/>
    <g id="text_21">
     <!-- lambda3 -->
     <g transform="translate(444.483 109.37475)scale(0.144 -0.144)">
      <use xlink:href="#DejaVuSans-6c"/>
      <use x="27.783203125" xlink:href="#DejaVuSans-61"/>
      <use x="89.0625" xlink:href="#DejaVuSans-6d"/>
      <use x="186.474609375" xlink:href="#DejaVuSans-62"/>
      <use x="249.951171875" xlink:href="#DejaVuSans-64"/>
      <use x="313.427734375" xlink:href="#DejaVuSans-61"/>
      <use x="374.70703125" xlink:href="#DejaVuSans-33"/>
     </g>
    </g>
    <g id="line2d_57">
     <path d="
M408.483 125.471
L428.643 125.471" style="fill:none;stroke:#008000;stroke-linecap:square;"/>
    </g>
    <g id="line2d_58"/>
    <g id="text_22">
     <!-- lambda4 -->
     <g transform="translate(444.483 130.51125)scale(0.144 -0.144)">
      <use xlink:href="#DejaVuSans-6c"/>
      <use x="27.783203125" xlink:href="#DejaVuSans-61"/>
      <use x="89.0625" xlink:href="#DejaVuSans-6d"/>
      <use x="186.474609375" xlink:href="#DejaVuSans-62"/>
      <use x="249.951171875" xlink:href="#DejaVuSans-64"/>
      <use x="313.427734375" xlink:href="#DejaVuSans-61"/>
      <use x="374.70703125" xlink:href="#DejaVuSans-34"/>
     </g>
    </g>
    <g id="line2d_59">
     <path d="
M408.483 146.608
L428.643 146.608" style="fill:none;stroke:#0000ff;stroke-linecap:square;"/>
    </g>
    <g id="line2d_60"/>
    <g id="text_23">
     <!-- lambda5 -->
     <g transform="translate(444.483 151.64775)scale(0.144 -0.144)">
      <use xlink:href="#DejaVuSans-6c"/>
      <use x="27.783203125" xlink:href="#DejaVuSans-61"/>
      <use x="89.0625" xlink:href="#DejaVuSans-6d"/>
      <use x="186.474609375" xlink:href="#DejaVuSans-62"/>
      <use x="249.951171875" xlink:href="#DejaVuSans-64"/>
      <use x="313.427734375" xlink:href="#DejaVuSans-61"/>
      <use x="374.70703125" xlink:href="#DejaVuSans-35"/>
     </g>
    </g>
   </g>
  </g>
 </g>
 <defs>
  <clipPath id="p7ff5b81e1d">
   <rect height="345.6" width="446.4" x="72.0" y="43.2"/>
  </clipPath>
 </defs>
</svg>
