<?xml version="1.0" encoding="utf-8" standalone="no"?>
<!DOCTYPE svg PUBLIC "-//W3C//DTD SVG 1.1//EN"
  "http://www.w3.org/Graphics/SVG/1.1/DTD/svg11.dtd">
<!-- Created with matplotlib (http://matplotlib.org/) -->
<svg height="432pt" version="1.1" viewBox="0 0 576 432" width="576pt" xmlns="http://www.w3.org/2000/svg" xmlns:xlink="http://www.w3.org/1999/xlink">
 <defs>
  <style type="text/css">
*{stroke-linecap:butt;stroke-linejoin:round;}
  </style>
 </defs>
 <g id="figure_1">
  <g id="patch_1">
   <path d="M 0 432 
L 576 432 
L 576 0 
L 0 0 
z
" style="fill:#ffffff;"/>
  </g>
  <g id="axes_1">
   <g id="patch_2">
    <path d="M 72 384.48 
L 518.4 384.48 
L 518.4 51.84 
L 72 51.84 
z
" style="fill:#ffffff;"/>
   </g>
   <g id="matplotlib.axis_1">
    <g id="xtick_1">
     <g id="line2d_1">
      <path clip-path="url(#p38170d453d)" d="M 92.290909 384.48 
L 92.290909 51.84 
" style="fill:none;stroke:#b0b0b0;stroke-dasharray:5.12,1.28,0.8,1.28;stroke-dashoffset:0;stroke-width:0.8;"/>
     </g>
     <g id="line2d_2">
      <defs>
       <path d="M 0 0 
L 0 3.5 
" id="m357e4e09e6" style="stroke:#000000;stroke-width:0.8;"/>
      </defs>
      <g>
       <use style="stroke:#000000;stroke-width:0.8;" x="92.290909" xlink:href="#m357e4e09e6" y="384.48"/>
      </g>
     </g>
     <g id="text_1">
      <!-- 0 -->
      <defs>
       <path d="M 31.78125 66.40625 
Q 24.171875 66.40625 20.328125 58.90625 
Q 16.5 51.421875 16.5 36.375 
Q 16.5 21.390625 20.328125 13.890625 
Q 24.171875 6.390625 31.78125 6.390625 
Q 39.453125 6.390625 43.28125 13.890625 
Q 47.125 21.390625 47.125 36.375 
Q 47.125 51.421875 43.28125 58.90625 
Q 39.453125 66.40625 31.78125 66.40625 
z
M 31.78125 74.21875 
Q 44.046875 74.21875 50.515625 64.515625 
Q 56.984375 54.828125 56.984375 36.375 
Q 56.984375 17.96875 50.515625 8.265625 
Q 44.046875 -1.421875 31.78125 -1.421875 
Q 19.53125 -1.421875 13.0625 8.265625 
Q 6.59375 17.96875 6.59375 36.375 
Q 6.59375 54.828125 13.0625 64.515625 
Q 19.53125 74.21875 31.78125 74.21875 
z
" id="DejaVuSans-30"/>
      </defs>
      <g transform="translate(89.109659 399.078438)scale(0.1 -0.1)">
       <use xlink:href="#DejaVuSans-30"/>
      </g>
     </g>
    </g>
    <g id="xtick_2">
     <g id="line2d_3">
      <path clip-path="url(#p38170d453d)" d="M 146.436097 384.48 
L 146.436097 51.84 
" style="fill:none;stroke:#b0b0b0;stroke-dasharray:5.12,1.28,0.8,1.28;stroke-dashoffset:0;stroke-width:0.8;"/>
     </g>
     <g id="line2d_4">
      <g>
       <use style="stroke:#000000;stroke-width:0.8;" x="146.436097" xlink:href="#m357e4e09e6" y="384.48"/>
      </g>
     </g>
     <g id="text_2">
      <!-- 200 -->
      <defs>
       <path d="M 19.1875 8.296875 
L 53.609375 8.296875 
L 53.609375 0 
L 7.328125 0 
L 7.328125 8.296875 
Q 12.9375 14.109375 22.625 23.890625 
Q 32.328125 33.6875 34.8125 36.53125 
Q 39.546875 41.84375 41.421875 45.53125 
Q 43.3125 49.21875 43.3125 52.78125 
Q 43.3125 58.59375 39.234375 62.25 
Q 35.15625 65.921875 28.609375 65.921875 
Q 23.96875 65.921875 18.8125 64.3125 
Q 13.671875 62.703125 7.8125 59.421875 
L 7.8125 69.390625 
Q 13.765625 71.78125 18.9375 73 
Q 24.125 74.21875 28.421875 74.21875 
Q 39.75 74.21875 46.484375 68.546875 
Q 53.21875 62.890625 53.21875 53.421875 
Q 53.21875 48.921875 51.53125 44.890625 
Q 49.859375 40.875 45.40625 35.40625 
Q 44.1875 33.984375 37.640625 27.21875 
Q 31.109375 20.453125 19.1875 8.296875 
z
" id="DejaVuSans-32"/>
      </defs>
      <g transform="translate(136.892347 399.078438)scale(0.1 -0.1)">
       <use xlink:href="#DejaVuSans-32"/>
       <use x="63.623047" xlink:href="#DejaVuSans-30"/>
       <use x="127.246094" xlink:href="#DejaVuSans-30"/>
      </g>
     </g>
    </g>
    <g id="xtick_3">
     <g id="line2d_5">
      <path clip-path="url(#p38170d453d)" d="M 200.581284 384.48 
L 200.581284 51.84 
" style="fill:none;stroke:#b0b0b0;stroke-dasharray:5.12,1.28,0.8,1.28;stroke-dashoffset:0;stroke-width:0.8;"/>
     </g>
     <g id="line2d_6">
      <g>
       <use style="stroke:#000000;stroke-width:0.8;" x="200.581284" xlink:href="#m357e4e09e6" y="384.48"/>
      </g>
     </g>
     <g id="text_3">
      <!-- 400 -->
      <defs>
       <path d="M 37.796875 64.3125 
L 12.890625 25.390625 
L 37.796875 25.390625 
z
M 35.203125 72.90625 
L 47.609375 72.90625 
L 47.609375 25.390625 
L 58.015625 25.390625 
L 58.015625 17.1875 
L 47.609375 17.1875 
L 47.609375 0 
L 37.796875 0 
L 37.796875 17.1875 
L 4.890625 17.1875 
L 4.890625 26.703125 
z
" id="DejaVuSans-34"/>
      </defs>
      <g transform="translate(191.037534 399.078438)scale(0.1 -0.1)">
       <use xlink:href="#DejaVuSans-34"/>
       <use x="63.623047" xlink:href="#DejaVuSans-30"/>
       <use x="127.246094" xlink:href="#DejaVuSans-30"/>
      </g>
     </g>
    </g>
    <g id="xtick_4">
     <g id="line2d_7">
      <path clip-path="url(#p38170d453d)" d="M 254.726472 384.48 
L 254.726472 51.84 
" style="fill:none;stroke:#b0b0b0;stroke-dasharray:5.12,1.28,0.8,1.28;stroke-dashoffset:0;stroke-width:0.8;"/>
     </g>
     <g id="line2d_8">
      <g>
       <use style="stroke:#000000;stroke-width:0.8;" x="254.726472" xlink:href="#m357e4e09e6" y="384.48"/>
      </g>
     </g>
     <g id="text_4">
      <!-- 600 -->
      <defs>
       <path d="M 33.015625 40.375 
Q 26.375 40.375 22.484375 35.828125 
Q 18.609375 31.296875 18.609375 23.390625 
Q 18.609375 15.53125 22.484375 10.953125 
Q 26.375 6.390625 33.015625 6.390625 
Q 39.65625 6.390625 43.53125 10.953125 
Q 47.40625 15.53125 47.40625 23.390625 
Q 47.40625 31.296875 43.53125 35.828125 
Q 39.65625 40.375 33.015625 40.375 
z
M 52.59375 71.296875 
L 52.59375 62.3125 
Q 48.875 64.0625 45.09375 64.984375 
Q 41.3125 65.921875 37.59375 65.921875 
Q 27.828125 65.921875 22.671875 59.328125 
Q 17.53125 52.734375 16.796875 39.40625 
Q 19.671875 43.65625 24.015625 45.921875 
Q 28.375 48.1875 33.59375 48.1875 
Q 44.578125 48.1875 50.953125 41.515625 
Q 57.328125 34.859375 57.328125 23.390625 
Q 57.328125 12.15625 50.6875 5.359375 
Q 44.046875 -1.421875 33.015625 -1.421875 
Q 20.359375 -1.421875 13.671875 8.265625 
Q 6.984375 17.96875 6.984375 36.375 
Q 6.984375 53.65625 15.1875 63.9375 
Q 23.390625 74.21875 37.203125 74.21875 
Q 40.921875 74.21875 44.703125 73.484375 
Q 48.484375 72.75 52.59375 71.296875 
z
" id="DejaVuSans-36"/>
      </defs>
      <g transform="translate(245.182722 399.078438)scale(0.1 -0.1)">
       <use xlink:href="#DejaVuSans-36"/>
       <use x="63.623047" xlink:href="#DejaVuSans-30"/>
       <use x="127.246094" xlink:href="#DejaVuSans-30"/>
      </g>
     </g>
    </g>
    <g id="xtick_5">
     <g id="line2d_9">
      <path clip-path="url(#p38170d453d)" d="M 308.87166 384.48 
L 308.87166 51.84 
" style="fill:none;stroke:#b0b0b0;stroke-dasharray:5.12,1.28,0.8,1.28;stroke-dashoffset:0;stroke-width:0.8;"/>
     </g>
     <g id="line2d_10">
      <g>
       <use style="stroke:#000000;stroke-width:0.8;" x="308.87166" xlink:href="#m357e4e09e6" y="384.48"/>
      </g>
     </g>
     <g id="text_5">
      <!-- 800 -->
      <defs>
       <path d="M 31.78125 34.625 
Q 24.75 34.625 20.71875 30.859375 
Q 16.703125 27.09375 16.703125 20.515625 
Q 16.703125 13.921875 20.71875 10.15625 
Q 24.75 6.390625 31.78125 6.390625 
Q 38.8125 6.390625 42.859375 10.171875 
Q 46.921875 13.96875 46.921875 20.515625 
Q 46.921875 27.09375 42.890625 30.859375 
Q 38.875 34.625 31.78125 34.625 
z
M 21.921875 38.8125 
Q 15.578125 40.375 12.03125 44.71875 
Q 8.5 49.078125 8.5 55.328125 
Q 8.5 64.0625 14.71875 69.140625 
Q 20.953125 74.21875 31.78125 74.21875 
Q 42.671875 74.21875 48.875 69.140625 
Q 55.078125 64.0625 55.078125 55.328125 
Q 55.078125 49.078125 51.53125 44.71875 
Q 48 40.375 41.703125 38.8125 
Q 48.828125 37.15625 52.796875 32.3125 
Q 56.78125 27.484375 56.78125 20.515625 
Q 56.78125 9.90625 50.3125 4.234375 
Q 43.84375 -1.421875 31.78125 -1.421875 
Q 19.734375 -1.421875 13.25 4.234375 
Q 6.78125 9.90625 6.78125 20.515625 
Q 6.78125 27.484375 10.78125 32.3125 
Q 14.796875 37.15625 21.921875 38.8125 
z
M 18.3125 54.390625 
Q 18.3125 48.734375 21.84375 45.5625 
Q 25.390625 42.390625 31.78125 42.390625 
Q 38.140625 42.390625 41.71875 45.5625 
Q 45.3125 48.734375 45.3125 54.390625 
Q 45.3125 60.0625 41.71875 63.234375 
Q 38.140625 66.40625 31.78125 66.40625 
Q 25.390625 66.40625 21.84375 63.234375 
Q 18.3125 60.0625 18.3125 54.390625 
z
" id="DejaVuSans-38"/>
      </defs>
      <g transform="translate(299.32791 399.078438)scale(0.1 -0.1)">
       <use xlink:href="#DejaVuSans-38"/>
       <use x="63.623047" xlink:href="#DejaVuSans-30"/>
       <use x="127.246094" xlink:href="#DejaVuSans-30"/>
      </g>
     </g>
    </g>
    <g id="xtick_6">
     <g id="line2d_11">
      <path clip-path="url(#p38170d453d)" d="M 363.016848 384.48 
L 363.016848 51.84 
" style="fill:none;stroke:#b0b0b0;stroke-dasharray:5.12,1.28,0.8,1.28;stroke-dashoffset:0;stroke-width:0.8;"/>
     </g>
     <g id="line2d_12">
      <g>
       <use style="stroke:#000000;stroke-width:0.8;" x="363.016848" xlink:href="#m357e4e09e6" y="384.48"/>
      </g>
     </g>
     <g id="text_6">
      <!-- 1000 -->
      <defs>
       <path d="M 12.40625 8.296875 
L 28.515625 8.296875 
L 28.515625 63.921875 
L 10.984375 60.40625 
L 10.984375 69.390625 
L 28.421875 72.90625 
L 38.28125 72.90625 
L 38.28125 8.296875 
L 54.390625 8.296875 
L 54.390625 0 
L 12.40625 0 
z
" id="DejaVuSans-31"/>
      </defs>
      <g transform="translate(350.291848 399.078438)scale(0.1 -0.1)">
       <use xlink:href="#DejaVuSans-31"/>
       <use x="63.623047" xlink:href="#DejaVuSans-30"/>
       <use x="127.246094" xlink:href="#DejaVuSans-30"/>
       <use x="190.869141" xlink:href="#DejaVuSans-30"/>
      </g>
     </g>
    </g>
    <g id="xtick_7">
     <g id="line2d_13">
      <path clip-path="url(#p38170d453d)" d="M 417.162035 384.48 
L 417.162035 51.84 
" style="fill:none;stroke:#b0b0b0;stroke-dasharray:5.12,1.28,0.8,1.28;stroke-dashoffset:0;stroke-width:0.8;"/>
     </g>
     <g id="line2d_14">
      <g>
       <use style="stroke:#000000;stroke-width:0.8;" x="417.162035" xlink:href="#m357e4e09e6" y="384.48"/>
      </g>
     </g>
     <g id="text_7">
      <!-- 1200 -->
      <g transform="translate(404.437035 399.078438)scale(0.1 -0.1)">
       <use xlink:href="#DejaVuSans-31"/>
       <use x="63.623047" xlink:href="#DejaVuSans-32"/>
       <use x="127.246094" xlink:href="#DejaVuSans-30"/>
       <use x="190.869141" xlink:href="#DejaVuSans-30"/>
      </g>
     </g>
    </g>
    <g id="xtick_8">
     <g id="line2d_15">
      <path clip-path="url(#p38170d453d)" d="M 471.307223 384.48 
L 471.307223 51.84 
" style="fill:none;stroke:#b0b0b0;stroke-dasharray:5.12,1.28,0.8,1.28;stroke-dashoffset:0;stroke-width:0.8;"/>
     </g>
     <g id="line2d_16">
      <g>
       <use style="stroke:#000000;stroke-width:0.8;" x="471.307223" xlink:href="#m357e4e09e6" y="384.48"/>
      </g>
     </g>
     <g id="text_8">
      <!-- 1400 -->
      <g transform="translate(458.582223 399.078438)scale(0.1 -0.1)">
       <use xlink:href="#DejaVuSans-31"/>
       <use x="63.623047" xlink:href="#DejaVuSans-34"/>
       <use x="127.246094" xlink:href="#DejaVuSans-30"/>
       <use x="190.869141" xlink:href="#DejaVuSans-30"/>
      </g>
     </g>
    </g>
    <g id="text_9">
     <!-- Iteration -->
     <defs>
      <path d="M 9.8125 72.90625 
L 19.671875 72.90625 
L 19.671875 0 
L 9.8125 0 
z
" id="DejaVuSans-49"/>
      <path d="M 18.3125 70.21875 
L 18.3125 54.6875 
L 36.8125 54.6875 
L 36.8125 47.703125 
L 18.3125 47.703125 
L 18.3125 18.015625 
Q 18.3125 11.328125 20.140625 9.421875 
Q 21.96875 7.515625 27.59375 7.515625 
L 36.8125 7.515625 
L 36.8125 0 
L 27.59375 0 
Q 17.1875 0 13.234375 3.875 
Q 9.28125 7.765625 9.28125 18.015625 
L 9.28125 47.703125 
L 2.6875 47.703125 
L 2.6875 54.6875 
L 9.28125 54.6875 
L 9.28125 70.21875 
z
" id="DejaVuSans-74"/>
      <path d="M 56.203125 29.59375 
L 56.203125 25.203125 
L 14.890625 25.203125 
Q 15.484375 15.921875 20.484375 11.0625 
Q 25.484375 6.203125 34.421875 6.203125 
Q 39.59375 6.203125 44.453125 7.46875 
Q 49.3125 8.734375 54.109375 11.28125 
L 54.109375 2.78125 
Q 49.265625 0.734375 44.1875 -0.34375 
Q 39.109375 -1.421875 33.890625 -1.421875 
Q 20.796875 -1.421875 13.15625 6.1875 
Q 5.515625 13.8125 5.515625 26.8125 
Q 5.515625 40.234375 12.765625 48.109375 
Q 20.015625 56 32.328125 56 
Q 43.359375 56 49.78125 48.890625 
Q 56.203125 41.796875 56.203125 29.59375 
z
M 47.21875 32.234375 
Q 47.125 39.59375 43.09375 43.984375 
Q 39.0625 48.390625 32.421875 48.390625 
Q 24.90625 48.390625 20.390625 44.140625 
Q 15.875 39.890625 15.1875 32.171875 
z
" id="DejaVuSans-65"/>
      <path d="M 41.109375 46.296875 
Q 39.59375 47.171875 37.8125 47.578125 
Q 36.03125 48 33.890625 48 
Q 26.265625 48 22.1875 43.046875 
Q 18.109375 38.09375 18.109375 28.8125 
L 18.109375 0 
L 9.078125 0 
L 9.078125 54.6875 
L 18.109375 54.6875 
L 18.109375 46.1875 
Q 20.953125 51.171875 25.484375 53.578125 
Q 30.03125 56 36.53125 56 
Q 37.453125 56 38.578125 55.875 
Q 39.703125 55.765625 41.0625 55.515625 
z
" id="DejaVuSans-72"/>
      <path d="M 34.28125 27.484375 
Q 23.390625 27.484375 19.1875 25 
Q 14.984375 22.515625 14.984375 16.5 
Q 14.984375 11.71875 18.140625 8.90625 
Q 21.296875 6.109375 26.703125 6.109375 
Q 34.1875 6.109375 38.703125 11.40625 
Q 43.21875 16.703125 43.21875 25.484375 
L 43.21875 27.484375 
z
M 52.203125 31.203125 
L 52.203125 0 
L 43.21875 0 
L 43.21875 8.296875 
Q 40.140625 3.328125 35.546875 0.953125 
Q 30.953125 -1.421875 24.3125 -1.421875 
Q 15.921875 -1.421875 10.953125 3.296875 
Q 6 8.015625 6 15.921875 
Q 6 25.140625 12.171875 29.828125 
Q 18.359375 34.515625 30.609375 34.515625 
L 43.21875 34.515625 
L 43.21875 35.40625 
Q 43.21875 41.609375 39.140625 45 
Q 35.0625 48.390625 27.6875 48.390625 
Q 23 48.390625 18.546875 47.265625 
Q 14.109375 46.140625 10.015625 43.890625 
L 10.015625 52.203125 
Q 14.9375 54.109375 19.578125 55.046875 
Q 24.21875 56 28.609375 56 
Q 40.484375 56 46.34375 49.84375 
Q 52.203125 43.703125 52.203125 31.203125 
z
" id="DejaVuSans-61"/>
      <path d="M 9.421875 54.6875 
L 18.40625 54.6875 
L 18.40625 0 
L 9.421875 0 
z
M 9.421875 75.984375 
L 18.40625 75.984375 
L 18.40625 64.59375 
L 9.421875 64.59375 
z
" id="DejaVuSans-69"/>
      <path d="M 30.609375 48.390625 
Q 23.390625 48.390625 19.1875 42.75 
Q 14.984375 37.109375 14.984375 27.296875 
Q 14.984375 17.484375 19.15625 11.84375 
Q 23.34375 6.203125 30.609375 6.203125 
Q 37.796875 6.203125 41.984375 11.859375 
Q 46.1875 17.53125 46.1875 27.296875 
Q 46.1875 37.015625 41.984375 42.703125 
Q 37.796875 48.390625 30.609375 48.390625 
z
M 30.609375 56 
Q 42.328125 56 49.015625 48.375 
Q 55.71875 40.765625 55.71875 27.296875 
Q 55.71875 13.875 49.015625 6.21875 
Q 42.328125 -1.421875 30.609375 -1.421875 
Q 18.84375 -1.421875 12.171875 6.21875 
Q 5.515625 13.875 5.515625 27.296875 
Q 5.515625 40.765625 12.171875 48.375 
Q 18.84375 56 30.609375 56 
z
" id="DejaVuSans-6f"/>
      <path d="M 54.890625 33.015625 
L 54.890625 0 
L 45.90625 0 
L 45.90625 32.71875 
Q 45.90625 40.484375 42.875 44.328125 
Q 39.84375 48.1875 33.796875 48.1875 
Q 26.515625 48.1875 22.3125 43.546875 
Q 18.109375 38.921875 18.109375 30.90625 
L 18.109375 0 
L 9.078125 0 
L 9.078125 54.6875 
L 18.109375 54.6875 
L 18.109375 46.1875 
Q 21.34375 51.125 25.703125 53.5625 
Q 30.078125 56 35.796875 56 
Q 45.21875 56 50.046875 50.171875 
Q 54.890625 44.34375 54.890625 33.015625 
z
" id="DejaVuSans-6e"/>
     </defs>
     <g transform="translate(265.507969 415.795938)scale(0.14 -0.14)">
      <use xlink:href="#DejaVuSans-49"/>
      <use x="29.492188" xlink:href="#DejaVuSans-74"/>
      <use x="68.701172" xlink:href="#DejaVuSans-65"/>
      <use x="130.224609" xlink:href="#DejaVuSans-72"/>
      <use x="171.337891" xlink:href="#DejaVuSans-61"/>
      <use x="232.617188" xlink:href="#DejaVuSans-74"/>
      <use x="271.826172" xlink:href="#DejaVuSans-69"/>
      <use x="299.609375" xlink:href="#DejaVuSans-6f"/>
      <use x="360.791016" xlink:href="#DejaVuSans-6e"/>
     </g>
    </g>
   </g>
   <g id="matplotlib.axis_2">
    <g id="ytick_1">
     <g id="line2d_17">
      <path clip-path="url(#p38170d453d)" d="M 72 375.111442 
L 518.4 375.111442 
" style="fill:none;stroke:#b0b0b0;stroke-dasharray:5.12,1.28,0.8,1.28;stroke-dashoffset:0;stroke-width:0.8;"/>
     </g>
     <g id="line2d_18">
      <defs>
       <path d="M 0 0 
L -3.5 0 
" id="m4f5375b6f4" style="stroke:#000000;stroke-width:0.8;"/>
      </defs>
      <g>
       <use style="stroke:#000000;stroke-width:0.8;" x="72" xlink:href="#m4f5375b6f4" y="375.111442"/>
      </g>
     </g>
     <g id="text_10">
      <!-- −15000 -->
      <defs>
       <path d="M 10.59375 35.5 
L 73.1875 35.5 
L 73.1875 27.203125 
L 10.59375 27.203125 
z
" id="DejaVuSans-2212"/>
       <path d="M 10.796875 72.90625 
L 49.515625 72.90625 
L 49.515625 64.59375 
L 19.828125 64.59375 
L 19.828125 46.734375 
Q 21.96875 47.46875 24.109375 47.828125 
Q 26.265625 48.1875 28.421875 48.1875 
Q 40.625 48.1875 47.75 41.5 
Q 54.890625 34.8125 54.890625 23.390625 
Q 54.890625 11.625 47.5625 5.09375 
Q 40.234375 -1.421875 26.90625 -1.421875 
Q 22.3125 -1.421875 17.546875 -0.640625 
Q 12.796875 0.140625 7.71875 1.703125 
L 7.71875 11.625 
Q 12.109375 9.234375 16.796875 8.0625 
Q 21.484375 6.890625 26.703125 6.890625 
Q 35.15625 6.890625 40.078125 11.328125 
Q 45.015625 15.765625 45.015625 23.390625 
Q 45.015625 31 40.078125 35.4375 
Q 35.15625 39.890625 26.703125 39.890625 
Q 22.75 39.890625 18.8125 39.015625 
Q 14.890625 38.140625 10.796875 36.28125 
z
" id="DejaVuSans-35"/>
      </defs>
      <g transform="translate(24.807812 378.91066)scale(0.1 -0.1)">
       <use xlink:href="#DejaVuSans-2212"/>
       <use x="83.789062" xlink:href="#DejaVuSans-31"/>
       <use x="147.412109" xlink:href="#DejaVuSans-35"/>
       <use x="211.035156" xlink:href="#DejaVuSans-30"/>
       <use x="274.658203" xlink:href="#DejaVuSans-30"/>
       <use x="338.28125" xlink:href="#DejaVuSans-30"/>
      </g>
     </g>
    </g>
    <g id="ytick_2">
     <g id="line2d_19">
      <path clip-path="url(#p38170d453d)" d="M 72 322.794294 
L 518.4 322.794294 
" style="fill:none;stroke:#b0b0b0;stroke-dasharray:5.12,1.28,0.8,1.28;stroke-dashoffset:0;stroke-width:0.8;"/>
     </g>
     <g id="line2d_20">
      <g>
       <use style="stroke:#000000;stroke-width:0.8;" x="72" xlink:href="#m4f5375b6f4" y="322.794294"/>
      </g>
     </g>
     <g id="text_11">
      <!-- −10000 -->
      <g transform="translate(24.807812 326.593513)scale(0.1 -0.1)">
       <use xlink:href="#DejaVuSans-2212"/>
       <use x="83.789062" xlink:href="#DejaVuSans-31"/>
       <use x="147.412109" xlink:href="#DejaVuSans-30"/>
       <use x="211.035156" xlink:href="#DejaVuSans-30"/>
       <use x="274.658203" xlink:href="#DejaVuSans-30"/>
       <use x="338.28125" xlink:href="#DejaVuSans-30"/>
      </g>
     </g>
    </g>
    <g id="ytick_3">
     <g id="line2d_21">
      <path clip-path="url(#p38170d453d)" d="M 72 270.477147 
L 518.4 270.477147 
" style="fill:none;stroke:#b0b0b0;stroke-dasharray:5.12,1.28,0.8,1.28;stroke-dashoffset:0;stroke-width:0.8;"/>
     </g>
     <g id="line2d_22">
      <g>
       <use style="stroke:#000000;stroke-width:0.8;" x="72" xlink:href="#m4f5375b6f4" y="270.477147"/>
      </g>
     </g>
     <g id="text_12">
      <!-- −5000 -->
      <g transform="translate(31.170313 274.276366)scale(0.1 -0.1)">
       <use xlink:href="#DejaVuSans-2212"/>
       <use x="83.789062" xlink:href="#DejaVuSans-35"/>
       <use x="147.412109" xlink:href="#DejaVuSans-30"/>
       <use x="211.035156" xlink:href="#DejaVuSans-30"/>
       <use x="274.658203" xlink:href="#DejaVuSans-30"/>
      </g>
     </g>
    </g>
    <g id="ytick_4">
     <g id="line2d_23">
      <path clip-path="url(#p38170d453d)" d="M 72 218.16 
L 518.4 218.16 
" style="fill:none;stroke:#b0b0b0;stroke-dasharray:5.12,1.28,0.8,1.28;stroke-dashoffset:0;stroke-width:0.8;"/>
     </g>
     <g id="line2d_24">
      <g>
       <use style="stroke:#000000;stroke-width:0.8;" x="72" xlink:href="#m4f5375b6f4" y="218.16"/>
      </g>
     </g>
     <g id="text_13">
      <!-- 0 -->
      <g transform="translate(58.6375 221.959219)scale(0.1 -0.1)">
       <use xlink:href="#DejaVuSans-30"/>
      </g>
     </g>
    </g>
    <g id="ytick_5">
     <g id="line2d_25">
      <path clip-path="url(#p38170d453d)" d="M 72 165.842853 
L 518.4 165.842853 
" style="fill:none;stroke:#b0b0b0;stroke-dasharray:5.12,1.28,0.8,1.28;stroke-dashoffset:0;stroke-width:0.8;"/>
     </g>
     <g id="line2d_26">
      <g>
       <use style="stroke:#000000;stroke-width:0.8;" x="72" xlink:href="#m4f5375b6f4" y="165.842853"/>
      </g>
     </g>
     <g id="text_14">
      <!-- 5000 -->
      <g transform="translate(39.55 169.642072)scale(0.1 -0.1)">
       <use xlink:href="#DejaVuSans-35"/>
       <use x="63.623047" xlink:href="#DejaVuSans-30"/>
       <use x="127.246094" xlink:href="#DejaVuSans-30"/>
       <use x="190.869141" xlink:href="#DejaVuSans-30"/>
      </g>
     </g>
    </g>
    <g id="ytick_6">
     <g id="line2d_27">
      <path clip-path="url(#p38170d453d)" d="M 72 113.525706 
L 518.4 113.525706 
" style="fill:none;stroke:#b0b0b0;stroke-dasharray:5.12,1.28,0.8,1.28;stroke-dashoffset:0;stroke-width:0.8;"/>
     </g>
     <g id="line2d_28">
      <g>
       <use style="stroke:#000000;stroke-width:0.8;" x="72" xlink:href="#m4f5375b6f4" y="113.525706"/>
      </g>
     </g>
     <g id="text_15">
      <!-- 10000 -->
      <g transform="translate(33.1875 117.324924)scale(0.1 -0.1)">
       <use xlink:href="#DejaVuSans-31"/>
       <use x="63.623047" xlink:href="#DejaVuSans-30"/>
       <use x="127.246094" xlink:href="#DejaVuSans-30"/>
       <use x="190.869141" xlink:href="#DejaVuSans-30"/>
       <use x="254.492188" xlink:href="#DejaVuSans-30"/>
      </g>
     </g>
    </g>
    <g id="ytick_7">
     <g id="line2d_29">
      <path clip-path="url(#p38170d453d)" d="M 72 61.208558 
L 518.4 61.208558 
" style="fill:none;stroke:#b0b0b0;stroke-dasharray:5.12,1.28,0.8,1.28;stroke-dashoffset:0;stroke-width:0.8;"/>
     </g>
     <g id="line2d_30">
      <g>
       <use style="stroke:#000000;stroke-width:0.8;" x="72" xlink:href="#m4f5375b6f4" y="61.208558"/>
      </g>
     </g>
     <g id="text_16">
      <!-- 15000 -->
      <g transform="translate(33.1875 65.007777)scale(0.1 -0.1)">
       <use xlink:href="#DejaVuSans-31"/>
       <use x="63.623047" xlink:href="#DejaVuSans-35"/>
       <use x="127.246094" xlink:href="#DejaVuSans-30"/>
       <use x="190.869141" xlink:href="#DejaVuSans-30"/>
       <use x="254.492188" xlink:href="#DejaVuSans-30"/>
      </g>
     </g>
    </g>
    <g id="text_17">
     <!-- $p_{mn}[W]$ -->
     <defs>
      <path d="M 49.609375 33.6875 
Q 49.609375 40.875 46.484375 44.671875 
Q 43.359375 48.484375 37.5 48.484375 
Q 33.5 48.484375 29.859375 46.4375 
Q 26.21875 44.390625 23.390625 40.484375 
Q 20.609375 36.625 18.9375 31.15625 
Q 17.28125 25.6875 17.28125 20.3125 
Q 17.28125 13.484375 20.40625 9.796875 
Q 23.53125 6.109375 29.296875 6.109375 
Q 33.546875 6.109375 37.1875 8.109375 
Q 40.828125 10.109375 43.40625 13.921875 
Q 46.1875 17.921875 47.890625 23.34375 
Q 49.609375 28.765625 49.609375 33.6875 
z
M 21.78125 46.390625 
Q 25.390625 51.125 30.296875 53.5625 
Q 35.203125 56 41.21875 56 
Q 49.609375 56 54.25 50.5 
Q 58.890625 45.015625 58.890625 35.109375 
Q 58.890625 27 56 19.65625 
Q 53.125 12.3125 47.703125 6.5 
Q 44.09375 2.640625 39.546875 0.609375 
Q 35.015625 -1.421875 29.984375 -1.421875 
Q 24.171875 -1.421875 20.21875 1 
Q 16.265625 3.421875 14.3125 8.203125 
L 8.6875 -20.796875 
L -0.296875 -20.796875 
L 14.40625 54.6875 
L 23.390625 54.6875 
z
" id="DejaVuSans-Oblique-70"/>
      <path d="M 89.796875 33.015625 
L 83.40625 0 
L 74.421875 0 
L 80.71875 32.71875 
Q 81.109375 34.8125 81.296875 36.328125 
Q 81.5 37.84375 81.5 38.921875 
Q 81.5 43.3125 79.046875 45.75 
Q 76.609375 48.1875 72.21875 48.1875 
Q 65.671875 48.1875 60.546875 43.28125 
Q 55.421875 38.375 53.90625 30.515625 
L 47.90625 0 
L 38.921875 0 
L 45.3125 32.71875 
Q 45.703125 34.515625 45.890625 36.046875 
Q 46.09375 37.59375 46.09375 38.8125 
Q 46.09375 43.265625 43.65625 45.71875 
Q 41.21875 48.1875 36.921875 48.1875 
Q 30.28125 48.1875 25.140625 43.28125 
Q 20.015625 38.375 18.5 30.515625 
L 12.5 0 
L 3.515625 0 
L 14.203125 54.6875 
L 23.1875 54.6875 
L 21.484375 46.1875 
Q 25.140625 50.984375 30.046875 53.484375 
Q 34.96875 56 40.578125 56 
Q 46.53125 56 50.359375 52.875 
Q 54.203125 49.75 54.984375 44.1875 
Q 59.078125 49.953125 64.46875 52.96875 
Q 69.875 56 75.875 56 
Q 82.90625 56 86.734375 51.953125 
Q 90.578125 47.90625 90.578125 40.484375 
Q 90.578125 38.875 90.375 36.9375 
Q 90.1875 35.015625 89.796875 33.015625 
z
" id="DejaVuSans-Oblique-6d"/>
      <path d="M 55.71875 33.015625 
L 49.3125 0 
L 40.28125 0 
L 46.6875 32.671875 
Q 47.125 34.96875 47.359375 36.71875 
Q 47.609375 38.484375 47.609375 39.5 
Q 47.609375 43.609375 45.015625 45.890625 
Q 42.4375 48.1875 37.796875 48.1875 
Q 30.5625 48.1875 25.34375 43.375 
Q 20.125 38.578125 18.5 30.328125 
L 12.5 0 
L 3.515625 0 
L 14.109375 54.6875 
L 23.09375 54.6875 
L 21.296875 46.09375 
Q 25.046875 50.828125 30.3125 53.40625 
Q 35.59375 56 41.40625 56 
Q 48.640625 56 52.609375 52.09375 
Q 56.59375 48.1875 56.59375 41.109375 
Q 56.59375 39.359375 56.375 37.359375 
Q 56.15625 35.359375 55.71875 33.015625 
z
" id="DejaVuSans-Oblique-6e"/>
      <path d="M 8.59375 75.984375 
L 29.296875 75.984375 
L 29.296875 69 
L 17.578125 69 
L 17.578125 -6.203125 
L 29.296875 -6.203125 
L 29.296875 -13.1875 
L 8.59375 -13.1875 
z
" id="DejaVuSans-5b"/>
      <path d="M 9.625 72.90625 
L 19.1875 72.90625 
L 22.703125 10.890625 
L 50.203125 72.90625 
L 61.1875 72.90625 
L 64.796875 10.890625 
L 92 72.90625 
L 102 72.90625 
L 69.578125 0 
L 57.171875 0 
L 53.8125 60.796875 
L 26.515625 0 
L 14.109375 0 
z
" id="DejaVuSans-Oblique-57"/>
      <path d="M 30.421875 75.984375 
L 30.421875 -13.1875 
L 9.71875 -13.1875 
L 9.71875 -6.203125 
L 21.390625 -6.203125 
L 21.390625 69 
L 9.71875 69 
L 9.71875 75.984375 
z
" id="DejaVuSans-5d"/>
     </defs>
     <g transform="translate(17.867812 243.08)rotate(-90)scale(0.14 -0.14)">
      <use transform="translate(0 0.015625)" xlink:href="#DejaVuSans-Oblique-70"/>
      <use transform="translate(63.476562 -16.390625)scale(0.7)" xlink:href="#DejaVuSans-Oblique-6d"/>
      <use transform="translate(131.665039 -16.390625)scale(0.7)" xlink:href="#DejaVuSans-Oblique-6e"/>
      <use transform="translate(178.764648 0.015625)" xlink:href="#DejaVuSans-5b"/>
      <use transform="translate(217.77832 0.015625)" xlink:href="#DejaVuSans-Oblique-57"/>
      <use transform="translate(316.655273 0.015625)" xlink:href="#DejaVuSans-5d"/>
     </g>
    </g>
   </g>
   <g id="line2d_31">
    <path clip-path="url(#p38170d453d)" d="M 92.290909 218.16 
L 93.103087 218.16 
L 94.456717 219.187378 
L 94.998168 219.195706 
L 95.810346 218.884609 
L 98.517606 217.454271 
L 98.788332 223.102467 
L 100.141961 221.096615 
L 100.954139 220.227611 
L 101.766317 219.632652 
L 102.849221 219.153325 
L 104.20285 218.860536 
L 106.097932 218.714504 
L 110.700273 218.668256 
L 145.623919 218.667934 
L 145.894645 217.473764 
L 146.436097 213.540963 
L 147.519001 203.3956 
L 149.684808 180.170247 
L 152.933519 145.337577 
L 153.745697 137.378423 
L 154.287149 134.99156 
L 154.828601 134.050667 
L 155.370053 133.630833 
L 155.911505 133.470303 
L 156.452957 133.488425 
L 157.265134 133.790785 
L 158.077312 134.382194 
L 158.88949 135.224326 
L 159.972394 136.671726 
L 161.326023 138.882639 
L 163.221105 142.46948 
L 171.342883 158.492073 
L 173.237965 161.485849 
L 174.86232 163.663714 
L 176.486676 165.443403 
L 177.840306 166.602121 
L 179.193935 167.453749 
L 180.276839 167.908973 
L 181.359743 168.161056 
L 182.442647 168.209591 
L 183.52555 168.055618 
L 184.608454 167.701571 
L 185.962084 166.983513 
L 187.315714 165.96894 
L 188.669343 164.670883 
L 190.293699 162.761332 
L 191.918054 160.498167 
L 193.813136 157.459611 
L 195.978944 153.541273 
L 198.686203 148.130029 
L 202.747092 139.401492 
L 208.161611 127.815463 
L 210.86887 122.534801 
L 213.034678 118.734019 
L 214.929759 115.789927 
L 216.824841 113.252456 
L 218.449196 111.431203 
L 220.073552 109.95725 
L 221.427182 109.004791 
L 222.780811 108.309159 
L 224.134441 107.873381 
L 225.488071 107.697963 
L 226.841701 107.780906 
L 228.19533 108.117777 
L 229.54896 108.701773 
L 230.90259 109.523824 
L 232.526945 110.808578 
L 234.151301 112.396691 
L 236.046382 114.59675 
L 238.21219 117.509154 
L 240.648723 121.196304 
L 243.897435 126.579532 
L 253.102117 142.142713 
L 255.53865 145.724713 
L 257.704458 148.544629 
L 259.599539 150.680453 
L 261.494621 152.471157 
L 263.118976 153.710952 
L 264.743332 154.665054 
L 266.096962 155.235792 
L 267.450591 155.59972 
L 268.804221 155.756271 
L 270.157851 155.70687 
L 271.51148 155.454892 
L 272.86511 155.005603 
L 274.489466 154.21609 
L 276.113821 153.16821 
L 278.008903 151.644341 
L 279.903984 149.82935 
L 282.069792 147.449618 
L 284.777051 144.113207 
L 288.296489 139.389691 
L 295.606089 129.483033 
L 298.313348 126.207968 
L 300.749882 123.60296 
L 302.915689 121.620774 
L 304.810771 120.177998 
L 306.705852 119.030224 
L 308.330208 118.29323 
L 309.954564 117.790835 
L 311.578919 117.525981 
L 313.203275 117.498301 
L 314.827631 117.704169 
L 316.451986 118.136811 
L 318.076342 118.786449 
L 319.971423 119.801668 
L 321.866505 121.070561 
L 324.032312 122.794367 
L 326.468846 125.024077 
L 329.446831 128.058568 
L 334.86135 133.978679 
L 339.192965 138.571891 
L 342.17095 141.406103 
L 344.607484 143.428318 
L 346.773291 144.952734 
L 348.939099 146.187251 
L 350.83418 147.010934 
L 352.729262 147.583849 
L 354.624344 147.90023 
L 356.519425 147.959214 
L 358.414507 147.764764 
L 360.309588 147.325498 
L 362.20467 146.654436 
L 364.370477 145.625778 
L 366.536285 144.348156 
L 368.972818 142.659115 
L 371.950804 140.316151 
L 376.282419 136.590843 
L 382.509115 131.260791 
L 385.4871 128.993424 
L 388.19436 127.207204 
L 390.630893 125.875658 
L 392.796701 124.940872 
L 394.962508 124.258676 
L 396.85759 123.877721 
L 398.752671 123.701777 
L 400.647753 123.730094 
L 402.542835 123.958126 
L 404.708642 124.452619 
L 406.87445 125.1795 
L 409.310983 126.246301 
L 412.018242 127.694171 
L 415.266954 129.71019 
L 420.140021 133.05139 
L 426.095991 137.09682 
L 429.344703 139.042017 
L 432.051962 140.42635 
L 434.488495 141.446667 
L 436.925029 142.226133 
L 439.090836 142.702137 
L 441.256644 142.966585 
L 443.422451 143.017784 
L 445.588259 142.859278 
L 448.024792 142.441148 
L 450.461326 141.787863 
L 453.168585 140.818046 
L 456.14657 139.505902 
L 459.936734 137.569536 
L 472.390127 130.967799 
L 475.368112 129.73622 
L 478.075371 128.835651 
L 480.782631 128.173137 
L 483.219164 127.795865 
L 485.655698 127.632845 
L 488.092231 127.683689 
L 490.528765 127.941439 
L 493.236024 128.45431 
L 496.214009 129.26319 
L 498.109091 129.891827 
L 498.109091 129.891827 
" style="fill:none;stroke:#bf00bf;stroke-linecap:square;stroke-width:1.5;"/>
   </g>
   <g id="line2d_32">
    <path clip-path="url(#p38170d453d)" d="M 92.290909 218.16 
L 92.561635 218.16 
L 92.832361 218.16 
L 93.373813 202.764589 
L 93.915265 193.187616 
L 94.456717 186.862109 
L 94.998168 182.547206 
L 95.53962 179.53806 
L 96.081072 177.406131 
L 96.89325 175.280177 
L 97.705428 173.963031 
L 98.517606 173.133229 
L 98.788332 172.929939 
L 99.329783 172.173348 
L 100.141961 171.487577 
L 100.954139 171.140615 
L 102.037043 170.950381 
L 103.932124 170.891284 
L 145.623919 170.922188 
L 146.165371 168.031772 
L 148.060452 153.93132 
L 151.309164 130.389318 
L 153.204245 118.076453 
L 155.099327 107.220993 
L 156.182231 102.366399 
L 156.994408 99.627668 
L 157.806586 97.509792 
L 158.618764 95.875829 
L 159.701668 94.267179 
L 160.784572 93.141414 
L 161.867475 92.364526 
L 162.950379 91.838334 
L 164.304009 91.422678 
L 166.19909 91.11056 
L 173.779417 90.197455 
L 175.945224 89.613014 
L 178.111032 88.814412 
L 180.547565 87.659317 
L 182.984098 86.250968 
L 185.691358 84.431102 
L 189.210795 81.765849 
L 201.393462 72.220986 
L 204.100722 70.51402 
L 206.537255 69.225824 
L 208.703063 68.306348 
L 210.86887 67.617477 
L 213.034678 67.170645 
L 215.200485 66.971176 
L 217.366293 67.018285 
L 219.5321 67.305224 
L 221.697908 67.819573 
L 224.134441 68.647857 
L 226.570975 69.709262 
L 229.54896 71.266463 
L 233.068397 73.370953 
L 244.980338 80.731483 
L 247.958324 82.196532 
L 250.665583 83.280458 
L 253.102117 84.024203 
L 255.53865 84.530188 
L 257.975183 84.788846 
L 260.411717 84.798459 
L 262.84825 84.565015 
L 265.284784 84.101823 
L 267.992043 83.342291 
L 270.970029 82.251172 
L 274.489466 80.694526 
L 279.362533 78.258853 
L 286.401407 74.746456 
L 289.920844 73.236363 
L 292.89883 72.180612 
L 295.606089 71.435673 
L 298.313348 70.91879 
L 301.020608 70.643167 
L 303.727867 70.612498 
L 306.435126 70.821088 
L 309.142386 71.254337 
L 312.120371 71.963077 
L 315.369082 72.967619 
L 319.429971 74.468609 
L 332.966268 79.70399 
L 336.485706 80.704985 
L 339.463691 81.336415 
L 342.441676 81.745607 
L 345.419662 81.920673 
L 348.397647 81.860796 
L 351.375632 81.575941 
L 354.624344 81.032286 
L 358.143781 80.21215 
L 362.475396 78.961841 
L 377.365322 74.433474 
L 381.155485 73.645948 
L 384.404197 73.184965 
L 387.652908 72.941485 
L 390.901619 72.921455 
L 394.150331 73.11848 
L 397.669768 73.555761 
L 401.730657 74.302435 
L 406.603724 75.439408 
L 420.140021 78.743977 
L 424.20091 79.444276 
L 427.991073 79.878964 
L 431.51051 80.071511 
L 435.029947 80.055517 
L 438.82011 79.815183 
L 442.880999 79.331199 
L 447.754066 78.512319 
L 455.875845 76.86887 
L 462.643993 75.588009 
L 467.51706 74.893181 
L 471.848675 74.506566 
L 475.909564 74.367906 
L 479.970453 74.448851 
L 484.302068 74.758923 
L 489.175135 75.333996 
L 495.943283 76.378493 
L 498.109091 76.735717 
L 498.109091 76.735717 
" style="fill:none;stroke:#00bfbf;stroke-linecap:square;stroke-width:1.5;"/>
   </g>
   <g id="line2d_33">
    <path clip-path="url(#p38170d453d)" d="M 92.290909 218.16 
L 93.103087 218.16 
L 94.456717 217.132622 
L 94.998168 217.124294 
L 95.810346 217.435391 
L 98.517606 218.865729 
L 98.788332 213.217533 
L 100.141961 215.223385 
L 100.954139 216.092389 
L 101.766317 216.687348 
L 102.849221 217.166675 
L 104.20285 217.459464 
L 106.097932 217.605496 
L 110.700273 217.651744 
L 145.623919 217.652066 
L 145.894645 218.846236 
L 146.436097 222.779037 
L 147.519001 232.9244 
L 149.684808 256.149753 
L 152.933519 290.982423 
L 153.745697 298.941577 
L 154.287149 301.32844 
L 154.828601 302.269333 
L 155.370053 302.689167 
L 155.911505 302.849697 
L 156.452957 302.831575 
L 157.265134 302.529215 
L 158.077312 301.937806 
L 158.88949 301.095674 
L 159.972394 299.648274 
L 161.326023 297.437361 
L 163.221105 293.85052 
L 171.342883 277.827927 
L 173.237965 274.834151 
L 174.86232 272.656286 
L 176.486676 270.876597 
L 177.840306 269.717879 
L 179.193935 268.866251 
L 180.276839 268.411027 
L 181.359743 268.158944 
L 182.442647 268.110409 
L 183.52555 268.264382 
L 184.608454 268.618429 
L 185.962084 269.336487 
L 187.315714 270.35106 
L 188.669343 271.649117 
L 190.293699 273.558668 
L 191.918054 275.821833 
L 193.813136 278.860389 
L 195.978944 282.778727 
L 198.686203 288.189971 
L 202.747092 296.918508 
L 208.161611 308.504537 
L 210.86887 313.785199 
L 213.034678 317.585981 
L 214.929759 320.530073 
L 216.824841 323.067544 
L 218.449196 324.888797 
L 220.073552 326.36275 
L 221.427182 327.315209 
L 222.780811 328.010841 
L 224.134441 328.446619 
L 225.488071 328.622037 
L 226.841701 328.539094 
L 228.19533 328.202223 
L 229.54896 327.618227 
L 230.90259 326.796176 
L 232.526945 325.511422 
L 234.151301 323.923309 
L 236.046382 321.72325 
L 238.21219 318.810846 
L 240.648723 315.123696 
L 243.897435 309.740468 
L 253.102117 294.177287 
L 255.53865 290.595287 
L 257.704458 287.775371 
L 259.599539 285.639547 
L 261.494621 283.848843 
L 263.118976 282.609048 
L 264.743332 281.654946 
L 266.096962 281.084208 
L 267.450591 280.72028 
L 268.804221 280.563729 
L 270.157851 280.61313 
L 271.51148 280.865108 
L 272.86511 281.314397 
L 274.489466 282.10391 
L 276.113821 283.15179 
L 278.008903 284.675659 
L 279.903984 286.49065 
L 282.069792 288.870382 
L 284.777051 292.206793 
L 288.296489 296.930309 
L 295.606089 306.836967 
L 298.313348 310.112032 
L 300.749882 312.71704 
L 302.915689 314.699226 
L 304.810771 316.142002 
L 306.705852 317.289776 
L 308.330208 318.02677 
L 309.954564 318.529165 
L 311.578919 318.794019 
L 313.203275 318.821699 
L 314.827631 318.615831 
L 316.451986 318.183189 
L 318.076342 317.533551 
L 319.971423 316.518332 
L 321.866505 315.249439 
L 324.032312 313.525633 
L 326.468846 311.295923 
L 329.446831 308.261432 
L 334.86135 302.341321 
L 339.192965 297.748109 
L 342.17095 294.913897 
L 344.607484 292.891682 
L 346.773291 291.367266 
L 348.939099 290.132749 
L 350.83418 289.309066 
L 352.729262 288.736151 
L 354.624344 288.41977 
L 356.519425 288.360786 
L 358.414507 288.555236 
L 360.309588 288.994502 
L 362.20467 289.665564 
L 364.370477 290.694222 
L 366.536285 291.971844 
L 368.972818 293.660885 
L 371.950804 296.003849 
L 376.282419 299.729157 
L 382.509115 305.059209 
L 385.4871 307.326576 
L 388.19436 309.112796 
L 390.630893 310.444342 
L 392.796701 311.379128 
L 394.962508 312.061324 
L 396.85759 312.442279 
L 398.752671 312.618223 
L 400.647753 312.589906 
L 402.542835 312.361874 
L 404.708642 311.867381 
L 406.87445 311.1405 
L 409.310983 310.073699 
L 412.018242 308.625829 
L 415.266954 306.60981 
L 420.140021 303.26861 
L 426.095991 299.22318 
L 429.344703 297.277983 
L 432.051962 295.89365 
L 434.488495 294.873333 
L 436.925029 294.093867 
L 439.090836 293.617863 
L 441.256644 293.353415 
L 443.422451 293.302216 
L 445.588259 293.460722 
L 448.024792 293.878852 
L 450.461326 294.532137 
L 453.168585 295.501954 
L 456.14657 296.814098 
L 459.936734 298.750464 
L 472.390127 305.352201 
L 475.368112 306.58378 
L 478.075371 307.484349 
L 480.782631 308.146863 
L 483.219164 308.524135 
L 485.655698 308.687155 
L 488.092231 308.636311 
L 490.528765 308.378561 
L 493.236024 307.86569 
L 496.214009 307.05681 
L 498.109091 306.428173 
L 498.109091 306.428173 
" style="fill:none;stroke:#ff0000;stroke-linecap:square;stroke-width:1.5;"/>
   </g>
   <g id="line2d_34">
    <path clip-path="url(#p38170d453d)" d="M 92.290909 218.16 
L 92.561635 218.16 
L 92.832361 218.16 
L 93.373813 214.572279 
L 94.727443 204.742807 
L 95.53962 200.264921 
L 96.351798 196.927972 
L 97.163976 194.510493 
L 97.976154 192.788486 
L 98.517606 191.933059 
L 98.788332 186.542804 
L 99.600509 186.290887 
L 100.954139 186.156592 
L 104.744302 186.149543 
L 129.921815 186.160192 
L 149.684808 186.262649 
L 153.474971 186.57048 
L 154.016423 188.358989 
L 154.557875 189.134954 
L 155.099327 189.524406 
L 156.182231 189.933043 
L 158.88949 190.571688 
L 163.491831 191.42114 
L 169.447802 192.285434 
L 175.403772 192.941114 
L 180.818291 193.326115 
L 185.962084 193.478698 
L 191.376603 193.411348 
L 197.332573 193.09921 
L 204.9129 192.457062 
L 219.5321 191.175903 
L 225.758797 190.88172 
L 231.714767 190.820968 
L 237.941464 190.985667 
L 245.251064 191.411755 
L 266.638413 192.818806 
L 273.406562 192.945706 
L 280.17471 192.848613 
L 288.025763 192.507104 
L 311.849645 191.306388 
L 319.429971 191.258764 
L 327.55175 191.443916 
L 339.463691 191.978998 
L 352.18781 192.488197 
L 360.85104 192.60048 
L 369.51427 192.484249 
L 381.426211 192.076245 
L 396.586864 191.594604 
L 406.062272 191.529249 
L 416.349857 191.694211 
L 447.48334 192.381412 
L 458.583104 192.269294 
L 494.048202 191.706485 
L 498.109091 191.738047 
L 498.109091 191.738047 
" style="fill:none;stroke:#008000;stroke-linecap:square;stroke-width:1.5;"/>
   </g>
   <g id="line2d_35">
    <path clip-path="url(#p38170d453d)" d="M 92.290909 218.16 
L 92.561635 218.16 
L 92.832361 218.16 
L 93.373813 202.537518 
L 93.915265 192.440628 
L 94.456717 185.834731 
L 94.998168 181.5115 
L 95.53962 178.681658 
L 96.081072 176.829143 
L 96.622524 175.61635 
L 97.163976 174.822337 
L 97.976154 174.114357 
L 98.517606 173.838958 
L 98.788332 167.987472 
L 99.329783 168.080309 
L 100.412687 168.729772 
L 101.766317 169.507078 
L 103.119947 169.983512 
L 104.744302 170.256877 
L 107.180836 170.385634 
L 114.21971 170.414295 
L 146.165371 170.513768 
L 146.706823 171.08911 
L 147.248275 172.116489 
L 148.060452 174.279496 
L 149.143356 177.897681 
L 151.309164 186.214534 
L 153.745697 195.627194 
L 154.016423 195.555079 
L 154.287149 194.884177 
L 155.099327 191.581997 
L 156.452957 186.046697 
L 157.806586 181.514465 
L 159.430942 176.871546 
L 161.867475 170.663503 
L 164.845461 163.686294 
L 168.094172 156.643964 
L 170.801431 151.294564 
L 173.237965 146.986036 
L 175.403772 143.636065 
L 177.298854 141.124436 
L 178.923209 139.310656 
L 180.547565 137.828237 
L 181.901195 136.855542 
L 183.254824 136.12723 
L 184.608454 135.646193 
L 185.962084 135.413042 
L 187.315714 135.426104 
L 188.669343 135.68145 
L 190.022973 136.172951 
L 191.376603 136.892351 
L 193.000958 138.041852 
L 194.625314 139.483275 
L 196.520395 141.500416 
L 198.686203 144.192433 
L 201.122736 147.623603 
L 204.100722 152.230948 
L 214.659033 168.971149 
L 217.095567 172.233525 
L 219.261374 174.766819 
L 221.156456 176.655669 
L 223.051537 178.207713 
L 224.675893 179.252818 
L 226.300249 180.024011 
L 227.924604 180.515312 
L 229.278234 180.709339 
L 230.631864 180.708422 
L 231.985493 180.515315 
L 233.609849 180.03643 
L 235.234205 179.298586 
L 236.85856 178.316298 
L 238.753642 176.885026 
L 240.648723 175.177957 
L 242.814531 172.937347 
L 245.52179 169.792953 
L 249.311953 164.984552 
L 256.350828 155.977955 
L 259.058087 152.879596 
L 261.494621 150.412928 
L 263.660428 148.534063 
L 265.55551 147.164771 
L 267.450591 146.073567 
L 269.074947 145.371042 
L 270.699303 144.889895 
L 272.323658 144.633003 
L 273.948014 144.60011 
L 275.572369 144.787887 
L 277.196725 145.190024 
L 278.821081 145.797373 
L 280.716162 146.749412 
L 282.611244 147.941625 
L 284.777051 149.563459 
L 287.213585 151.663569 
L 290.19157 154.524473 
L 295.606089 160.11264 
L 299.937704 164.453823 
L 302.915689 167.135365 
L 305.352223 169.05052 
L 307.51803 170.495812 
L 309.683838 171.66797 
L 311.578919 172.451747 
L 313.474001 172.99895 
L 315.369082 173.304009 
L 317.264164 173.365994 
L 319.159246 173.188526 
L 321.054327 172.779633 
L 322.949409 172.151503 
L 325.115216 171.185935 
L 327.281024 169.984559 
L 329.988283 168.204271 
L 333.236994 165.761112 
L 338.380787 161.547523 
L 343.52458 157.429742 
L 346.502565 155.308318 
L 349.209825 153.644832 
L 351.646358 152.411881 
L 353.812166 151.55297 
L 355.977973 150.933902 
L 358.143781 150.564369 
L 360.309588 150.447762 
L 362.475396 150.581245 
L 364.641203 150.95595 
L 366.807011 151.557338 
L 369.243544 152.480103 
L 371.950804 153.769674 
L 374.928789 155.443552 
L 378.989678 158.006607 
L 387.652908 163.561263 
L 390.901619 165.335924 
L 393.608879 166.576481 
L 396.045412 167.470965 
L 398.481946 168.1319 
L 400.918479 168.544851 
L 403.084286 168.698344 
L 405.250094 168.651472 
L 407.686627 168.366449 
L 410.123161 167.850088 
L 412.83042 167.03165 
L 415.808406 165.878511 
L 419.327843 164.255947 
L 424.742362 161.463814 
L 430.698332 158.440953 
L 434.217769 156.892694 
L 437.195755 155.808185 
L 439.903014 155.041013 
L 442.610274 154.506388 
L 445.317533 154.218061 
L 447.754066 154.172685 
L 450.461326 154.355493 
L 453.168585 154.770239 
L 456.14657 155.467618 
L 459.395282 156.470745 
L 463.456171 157.985554 
L 477.804646 163.62352 
L 481.053357 164.54512 
L 484.031342 165.175825 
L 487.009327 165.578276 
L 489.987313 165.741075 
L 492.965298 165.664142 
L 495.943283 165.358365 
L 498.109091 165.003891 
L 498.109091 165.003891 
" style="fill:none;stroke:#0000ff;stroke-linecap:square;stroke-width:1.5;"/>
   </g>
   <g id="line2d_36">
    <path clip-path="url(#p38170d453d)" d="M 92.290909 218.16 
L 93.103087 218.16 
L 93.373813 218.932041 
L 93.915265 221.544087 
L 95.53962 230.055323 
L 96.351798 233.215146 
L 97.163976 235.590005 
L 97.976154 237.324017 
L 98.517606 238.198645 
L 98.788332 244.318574 
L 498.109091 244.318574 
L 498.109091 244.318574 
" style="fill:none;stroke:#000000;stroke-linecap:square;stroke-width:1.5;"/>
   </g>
   <g id="line2d_37">
    <path clip-path="url(#p38170d453d)" d="M 92.290909 218.16 
L 92.561635 218.16 
L 92.832361 218.16 
L 93.373813 194.86252 
L 93.915265 179.899136 
L 94.456717 169.864876 
L 94.998168 163.008962 
L 95.53962 158.266621 
L 96.081072 154.955716 
L 96.622524 152.625766 
L 97.163976 150.973976 
L 97.976154 149.336001 
L 98.788332 148.332444 
L 99.329783 146.807688 
L 99.871235 145.951423 
L 100.412687 145.483821 
L 101.224865 145.175354 
L 102.307769 145.090534 
L 126.131651 145.271548 
L 147.519001 145.34783 
L 148.601904 145.617741 
L 149.955534 146.235228 
L 151.850616 147.422708 
L 153.745697 148.743506 
L 154.016423 147.998995 
L 154.557875 145.29319 
L 156.452957 134.916497 
L 157.53586 130.2277 
L 158.88949 125.420025 
L 160.24312 121.414442 
L 161.867475 117.29562 
L 163.762557 113.097018 
L 165.928364 108.808367 
L 168.635624 103.966008 
L 171.342883 99.591762 
L 173.779417 96.052038 
L 175.945224 93.250574 
L 178.111032 90.808467 
L 180.006113 88.992855 
L 181.901195 87.497957 
L 183.52555 86.484001 
L 185.149906 85.724449 
L 186.774262 85.223396 
L 188.398617 84.981788 
L 190.022973 84.997346 
L 191.647329 85.264561 
L 193.271684 85.774766 
L 194.89604 86.516261 
L 196.791121 87.654086 
L 198.686203 89.059173 
L 200.85201 90.951106 
L 203.288544 93.38003 
L 206.537255 96.973272 
L 217.366293 109.292583 
L 219.802826 111.613319 
L 221.968634 113.408136 
L 224.134441 114.910815 
L 226.029523 115.962184 
L 227.924604 116.75196 
L 229.54896 117.213274 
L 231.173316 117.472272 
L 232.797671 117.528802 
L 234.422027 117.385509 
L 236.317108 116.973048 
L 238.21219 116.308888 
L 240.107272 115.410383 
L 242.273079 114.124176 
L 244.709612 112.391835 
L 247.416872 110.184585 
L 251.207035 106.766513 
L 259.328813 99.314356 
L 262.306798 96.925598 
L 264.743332 95.230647 
L 266.909139 93.960913 
L 269.074947 92.941299 
L 270.970029 92.269587 
L 272.86511 91.812673 
L 274.760192 91.574865 
L 276.655273 91.556296 
L 278.550355 91.752997 
L 280.445436 92.157061 
L 282.611244 92.857686 
L 284.777051 93.791054 
L 287.213585 95.084314 
L 289.920844 96.768593 
L 293.440281 99.232894 
L 304.269319 107.044663 
L 307.247304 108.81285 
L 309.683838 110.026198 
L 312.120371 110.994755 
L 314.286179 111.630902 
L 316.451986 112.044126 
L 318.617794 112.229371 
L 320.783601 112.187246 
L 322.949409 111.92388 
L 325.115216 111.450655 
L 327.55175 110.687815 
L 330.259009 109.589203 
L 333.236994 108.132677 
L 337.027157 106.018689 
L 347.856195 99.809496 
L 351.104906 98.298552 
L 353.812166 97.273226 
L 356.519425 96.495969 
L 358.955959 96.027363 
L 361.392492 95.786948 
L 363.829025 95.776362 
L 366.265559 95.990133 
L 368.702092 96.416027 
L 371.409352 97.1154 
L 374.387337 98.120892 
L 377.906774 99.556178 
L 383.050567 101.931748 
L 390.089441 105.160089 
L 393.608879 106.537027 
L 396.85759 107.569045 
L 399.835575 108.270462 
L 402.542835 108.683019 
L 405.250094 108.871034 
L 407.957353 108.833669 
L 410.664613 108.578646 
L 413.642598 108.065751 
L 416.891309 107.26442 
L 420.681472 106.079063 
L 425.825265 104.209238 
L 433.947043 101.247782 
L 438.007933 100.02774 
L 441.256644 99.269005 
L 444.505355 98.741793 
L 447.48334 98.480006 
L 450.461326 98.435935 
L 453.439311 98.604904 
L 456.688022 99.015188 
L 460.20746 99.691113 
L 464.268349 100.703294 
L 470.495045 102.523517 
L 477.804646 104.619929 
L 482.136261 105.623826 
L 485.926424 106.266785 
L 489.445861 106.630632 
L 492.694572 106.753341 
L 496.214009 106.655588 
L 498.109091 106.508184 
L 498.109091 106.508184 
" style="fill:none;stroke:#bfbf00;stroke-linecap:square;stroke-width:1.5;"/>
   </g>
   <g id="line2d_38">
    <path clip-path="url(#p38170d453d)" d="M 92.290909 218.16 
L 92.561635 218.16 
L 92.832361 218.16 
L 93.373813 238.6418 
L 93.915265 252.061267 
L 94.456717 261.220034 
L 94.998168 267.581878 
L 95.53962 272.053622 
L 96.081072 275.225615 
L 96.622524 277.493397 
L 97.434702 279.76559 
L 98.24688 281.175091 
L 98.517606 281.516716 
L 99.059058 283.290478 
L 99.600509 284.292349 
L 100.141961 284.848809 
L 100.683413 285.145456 
L 101.495591 285.329368 
L 102.849221 285.355938 
L 110.158821 285.209903 
L 148.060452 285.046412 
L 149.414082 284.607943 
L 151.038438 283.796197 
L 153.474971 282.335202 
L 153.745697 283.23604 
L 154.557875 288.160339 
L 155.911505 296.549293 
L 156.994408 302.003386 
L 158.348038 307.547105 
L 159.701668 312.116287 
L 161.326023 316.76292 
L 163.221105 321.449594 
L 165.386912 326.197098 
L 167.823446 331.021587 
L 170.530705 335.882782 
L 172.967239 339.829993 
L 175.403772 343.341086 
L 177.56958 346.056515 
L 179.464661 348.089592 
L 181.359743 349.779468 
L 182.984098 350.941031 
L 184.608454 351.828862 
L 186.23281 352.437799 
L 187.586439 352.730797 
L 188.940069 352.829598 
L 190.293699 352.736681 
L 191.918054 352.378071 
L 193.54241 351.759713 
L 195.166766 350.895102 
L 197.061847 349.597357 
L 198.956929 348.018019 
L 201.122736 345.913962 
L 203.55927 343.236435 
L 206.807981 339.308571 
L 216.554115 327.24866 
L 219.261374 324.388837 
L 221.427182 322.396273 
L 223.592989 320.71283 
L 225.488071 319.520398 
L 227.383152 318.607973 
L 229.007508 318.057657 
L 230.631864 317.725581 
L 232.256219 317.61263 
L 233.880575 317.716658 
L 235.504931 318.032573 
L 237.129286 318.552456 
L 239.024368 319.40251 
L 240.919449 320.494618 
L 243.085257 322.006693 
L 245.52179 323.992305 
L 248.499776 326.730753 
L 252.831391 331.058501 
L 258.516635 336.699389 
L 261.494621 339.352202 
L 263.931154 341.259132 
L 266.096962 342.708609 
L 268.262769 343.89542 
L 270.157851 344.700147 
L 272.052932 345.275323 
L 273.948014 345.614722 
L 275.843095 345.716642 
L 277.738177 345.583852 
L 279.633259 345.223451 
L 281.52834 344.646647 
L 283.694148 343.741902 
L 285.859955 342.602191 
L 288.296489 341.080448 
L 291.274474 338.951699 
L 295.606089 335.537379 
L 302.374237 330.196695 
L 305.622949 327.945128 
L 308.330208 326.342774 
L 310.766741 325.161777 
L 312.932549 324.345324 
L 315.098356 323.764211 
L 317.264164 323.427307 
L 319.429971 323.33733 
L 321.595779 323.490925 
L 323.761587 323.878887 
L 325.927394 324.486505 
L 328.363927 325.407895 
L 331.071187 326.685854 
L 334.319898 328.495511 
L 338.651513 331.196712 
L 346.231839 335.946912 
L 349.480551 337.706435 
L 352.18781 338.946237 
L 354.895069 339.935779 
L 357.331603 340.586955 
L 359.768136 340.996284 
L 362.20467 341.157276 
L 364.641203 341.071244 
L 367.077737 340.747064 
L 369.51427 340.200715 
L 372.22153 339.360538 
L 375.199515 338.198098 
L 378.989678 336.45217 
L 386.299278 332.741769 
L 390.901619 330.555822 
L 394.150331 329.238617 
L 397.128316 328.260476 
L 399.835575 327.595018 
L 402.542835 327.162769 
L 405.250094 326.973582 
L 407.957353 327.027822 
L 410.664613 327.316623 
L 413.371872 327.822477 
L 416.349857 328.599278 
L 419.869295 329.757524 
L 424.471636 331.530807 
L 434.488495 335.465361 
L 438.278658 336.659138 
L 441.52737 337.448387 
L 444.505355 337.949215 
L 447.48334 338.21998 
L 450.461326 338.255366 
L 453.439311 338.060988 
L 456.417296 337.652806 
L 459.666008 336.99356 
L 463.456171 335.999315 
L 468.87069 334.318559 
L 477.804646 331.530273 
L 481.865535 330.513531 
L 485.384972 329.85168 
L 488.633683 329.453865 
L 491.882394 329.276065 
L 495.131106 329.32057 
L 498.109091 329.548437 
L 498.109091 329.548437 
" style="fill:none;stroke:#bf00bf;stroke-linecap:square;stroke-width:1.5;"/>
   </g>
   <g id="line2d_39">
    <path clip-path="url(#p38170d453d)" d="M 92.290909 218.16 
L 92.561635 218.16 
L 92.832361 218.16 
L 93.103087 216.525089 
L 93.644539 211.647557 
L 94.185991 208.76512 
L 94.727443 207.257435 
L 95.268894 206.607617 
L 95.810346 206.456467 
L 96.351798 206.573658 
L 97.705428 207.25741 
L 99.059058 207.889147 
L 101.495591 208.550604 
L 103.390673 208.844307 
L 106.097932 208.98596 
L 113.136806 209.017157 
L 146.436097 209.065771 
L 147.248275 209.368194 
L 148.060452 209.957133 
L 149.143356 211.063849 
L 150.767712 213.089911 
L 154.016423 217.26767 
L 154.287149 217.353137 
L 154.828601 217.170689 
L 155.640779 216.424354 
L 158.077312 213.919877 
L 160.24312 212.105748 
L 163.762557 209.487162 
L 168.094172 206.532869 
L 171.613609 204.385737 
L 174.591594 202.816889 
L 177.298854 201.636799 
L 179.735387 200.804522 
L 182.171921 200.209076 
L 184.608454 199.861625 
L 186.774262 199.764089 
L 189.210795 199.888876 
L 191.647329 200.251666 
L 194.083862 200.835017 
L 196.791121 201.712845 
L 199.769107 202.91075 
L 203.55927 204.69039 
L 216.554115 211.051271 
L 219.802826 212.261001 
L 222.780811 213.117591 
L 225.488071 213.658803 
L 228.19533 213.958944 
L 230.90259 214.013383 
L 233.609849 213.826931 
L 236.317108 213.413393 
L 239.295094 212.722727 
L 242.543805 211.732789 
L 246.604694 210.241676 
L 260.953169 204.715119 
L 264.20188 203.816174 
L 267.179865 203.203038 
L 270.157851 202.814358 
L 273.135836 202.661022 
L 276.113821 202.742808 
L 279.091807 203.048749 
L 282.340518 203.613361 
L 285.859955 204.452598 
L 290.19157 205.719748 
L 304.269319 210.043594 
L 308.059482 210.868017 
L 311.578919 211.396497 
L 314.827631 211.658666 
L 318.076342 211.696767 
L 321.325053 211.516233 
L 324.84449 211.094059 
L 328.634653 210.416033 
L 333.50772 209.298442 
L 348.397647 205.691619 
L 352.458536 205.035231 
L 356.248699 204.649154 
L 359.768136 204.504893 
L 363.558299 204.582249 
L 367.348463 204.88589 
L 371.680078 205.469373 
L 376.82387 206.398972 
L 392.255249 209.357294 
L 396.85759 209.912471 
L 400.918479 210.183176 
L 404.979368 210.232918 
L 409.040257 210.066714 
L 413.642598 209.647026 
L 419.057117 208.914879 
L 438.007933 206.126074 
L 442.880999 205.773971 
L 447.48334 205.670167 
L 452.085681 205.789664 
L 457.229474 206.157921 
L 463.456171 206.845938 
L 480.511905 208.873504 
L 485.926424 209.212757 
L 491.070217 209.309997 
L 496.214009 209.186021 
L 498.109091 209.089359 
L 498.109091 209.089359 
" style="fill:none;stroke:#00bfbf;stroke-linecap:square;stroke-width:1.5;"/>
   </g>
   <g id="line2d_40">
    <path clip-path="url(#p38170d453d)" d="M 92.290909 218.16 
L 92.561635 218.16 
L 92.832361 205.080713 
L 93.915265 216.461627 
L 94.456717 219.462138 
L 94.998168 221.153618 
L 95.53962 222.031601 
L 96.081072 222.423426 
L 96.622524 222.536781 
L 97.434702 222.450338 
L 98.788332 222.197354 
L 99.871235 222.163648 
L 105.285754 221.515783 
L 110.429547 221.462765 
L 146.706823 221.359752 
L 147.519001 220.999677 
L 148.331178 220.393753 
L 149.684808 219.018988 
L 151.850616 216.399076 
L 153.745697 214.1965 
L 154.016423 214.176322 
L 154.557875 214.573448 
L 155.370053 215.757468 
L 157.265134 218.746008 
L 158.88949 220.828463 
L 160.784572 222.887725 
L 163.491831 225.48902 
L 167.011268 228.545352 
L 170.259979 231.096809 
L 173.237965 233.170476 
L 175.945224 234.787202 
L 178.381758 235.987941 
L 180.547565 236.831384 
L 182.713373 237.450082 
L 184.87918 237.8357 
L 187.044988 237.985251 
L 189.210795 237.901228 
L 191.376603 237.591517 
L 193.54241 237.069162 
L 195.978944 236.249686 
L 198.686203 235.088911 
L 201.664188 233.567984 
L 205.725077 231.22004 
L 215.200485 225.635324 
L 218.449196 224.036205 
L 221.156456 222.932049 
L 223.863715 222.074433 
L 226.300249 221.534763 
L 228.736782 221.226715 
L 231.173316 221.153926 
L 233.609849 221.312703 
L 236.046382 221.692324 
L 238.753642 222.351963 
L 241.731627 223.329266 
L 244.980338 224.635367 
L 249.311953 226.631087 
L 258.787361 231.070294 
L 262.306798 232.428438 
L 265.284784 233.352666 
L 267.992043 233.98115 
L 270.699303 234.389017 
L 273.406562 234.566985 
L 276.113821 234.514746 
L 278.821081 234.24072 
L 281.799066 233.703156 
L 285.047777 232.871843 
L 288.83794 231.649723 
L 294.252459 229.62699 
L 301.832785 226.803381 
L 305.622949 225.623899 
L 308.87166 224.822843 
L 312.120371 224.255127 
L 315.098356 223.959635 
L 318.076342 223.886627 
L 321.054327 224.032603 
L 324.303038 224.425596 
L 327.822476 225.092693 
L 331.883365 226.107681 
L 337.568609 227.790138 
L 345.961113 230.26013 
L 350.022003 231.221101 
L 353.812166 231.885355 
L 357.331603 232.264473 
L 360.580314 232.396693 
L 363.829025 232.319458 
L 367.348463 232.012681 
L 371.138626 231.454635 
L 375.740967 230.531796 
L 382.779841 228.849073 
L 389.818716 227.230592 
L 394.421056 226.400243 
L 398.481946 225.897217 
L 402.272109 225.653711 
L 406.062272 225.638345 
L 409.852435 225.84336 
L 413.913324 226.280385 
L 418.786391 227.036506 
L 426.637443 228.527644 
L 434.217769 229.888068 
L 439.090836 230.536545 
L 443.422451 230.893634 
L 447.48334 231.016814 
L 451.814955 230.920389 
L 456.417296 230.582553 
L 461.561089 229.976873 
L 469.682867 228.758843 
L 478.075371 227.563406 
L 483.48989 227.02058 
L 488.362957 226.759403 
L 492.965298 226.730999 
L 497.838365 226.924187 
L 498.109091 226.941079 
L 498.109091 226.941079 
" style="fill:none;stroke:#ff0000;stroke-linecap:square;stroke-width:1.5;"/>
   </g>
   <g id="line2d_41">
    <path clip-path="url(#p38170d453d)" d="M 92.290909 218.16 
L 92.561635 218.16 
L 92.832361 218.16 
L 93.103087 216.388847 
L 93.915265 235.746646 
L 94.727443 248.256311 
L 95.53962 256.267236 
L 96.351798 261.423547 
L 97.163976 264.771032 
L 97.976154 266.963095 
L 98.517606 267.991905 
L 99.059058 269.640214 
L 99.600509 270.77449 
L 100.141961 271.53063 
L 100.954139 272.197067 
L 101.766317 272.529711 
L 102.849221 272.715199 
L 105.015028 272.782478 
L 145.894645 272.862362 
L 146.436097 273.38777 
L 147.248275 274.727294 
L 148.87263 278.110848 
L 152.121342 284.896872 
L 154.557875 289.773944 
L 157.265134 297.034953 
L 158.348038 299.146918 
L 159.430942 300.813281 
L 160.784572 302.434046 
L 162.138201 303.695713 
L 163.762557 304.896861 
L 165.657638 306.027767 
L 168.364898 307.36632 
L 172.696513 309.223207 
L 179.735387 311.9912 
L 184.87918 313.793054 
L 188.940069 314.975296 
L 192.459506 315.765499 
L 195.708218 316.268097 
L 198.956929 316.535111 
L 202.20564 316.561707 
L 205.454351 316.355606 
L 208.973789 315.892847 
L 212.763952 315.16019 
L 217.366293 314.035078 
L 232.256219 310.206815 
L 236.317108 309.509076 
L 239.836546 309.119176 
L 243.355983 308.947748 
L 246.87542 308.99779 
L 250.665583 309.286214 
L 254.726472 309.830407 
L 259.599539 310.725852 
L 269.345673 312.83 
L 275.030918 313.915704 
L 279.633259 314.565601 
L 283.694148 314.914808 
L 287.755037 315.031572 
L 291.815926 314.915736 
L 296.147541 314.558065 
L 301.020608 313.922808 
L 308.059482 312.74929 
L 317.53489 311.194696 
L 322.678683 310.586306 
L 327.281024 310.265812 
L 331.612639 310.181199 
L 336.21498 310.320465 
L 341.088047 310.696024 
L 347.044017 311.389862 
L 364.641203 313.601905 
L 369.784996 313.939131 
L 374.658063 314.043733 
L 379.801856 313.92488 
L 385.4871 313.554404 
L 392.796701 312.830574 
L 406.603724 311.425794 
L 412.559694 311.074149 
L 418.244939 310.966928 
L 423.930184 311.087889 
L 430.427606 311.461892 
L 440.444466 312.305947 
L 450.461326 313.077796 
L 456.958748 313.359432 
L 463.185445 313.408613 
L 469.682867 313.234124 
L 477.804646 312.7741 
L 496.484735 311.62537 
L 498.109091 311.570021 
L 498.109091 311.570021 
" style="fill:none;stroke:#008000;stroke-linecap:square;stroke-width:1.5;"/>
   </g>
   <g id="line2d_42">
    <path clip-path="url(#p38170d453d)" d="M 92.290909 218.16 
L 92.561635 218.16 
L 92.832361 218.16 
L 93.373813 233.555411 
L 93.915265 243.132384 
L 94.456717 249.457891 
L 94.998168 253.772794 
L 95.53962 256.78194 
L 96.081072 258.913869 
L 96.89325 261.039823 
L 97.705428 262.356969 
L 98.517606 263.186771 
L 98.788332 263.390061 
L 99.329783 264.146652 
L 100.141961 264.832423 
L 100.954139 265.179385 
L 102.037043 265.369619 
L 103.932124 265.428716 
L 145.623919 265.397812 
L 146.165371 268.288228 
L 148.060452 282.38868 
L 151.309164 305.930682 
L 153.204245 318.243547 
L 155.099327 329.099007 
L 156.182231 333.953601 
L 156.994408 336.692332 
L 157.806586 338.810208 
L 158.618764 340.444171 
L 159.701668 342.052821 
L 160.784572 343.178586 
L 161.867475 343.955474 
L 162.950379 344.481666 
L 164.304009 344.897322 
L 166.19909 345.20944 
L 173.779417 346.122545 
L 175.945224 346.706986 
L 178.111032 347.505588 
L 180.547565 348.660683 
L 182.984098 350.069032 
L 185.691358 351.888898 
L 189.210795 354.554151 
L 201.393462 364.099014 
L 204.100722 365.80598 
L 206.537255 367.094176 
L 208.703063 368.013652 
L 210.86887 368.702523 
L 213.034678 369.149355 
L 215.200485 369.348824 
L 217.366293 369.301715 
L 219.5321 369.014776 
L 221.697908 368.500427 
L 224.134441 367.672143 
L 226.570975 366.610738 
L 229.54896 365.053537 
L 233.068397 362.949047 
L 244.980338 355.588517 
L 247.958324 354.123468 
L 250.665583 353.039542 
L 253.102117 352.295797 
L 255.53865 351.789812 
L 257.975183 351.531154 
L 260.411717 351.521541 
L 262.84825 351.754985 
L 265.284784 352.218177 
L 267.992043 352.977709 
L 270.970029 354.068828 
L 274.489466 355.625474 
L 279.362533 358.061147 
L 286.401407 361.573544 
L 289.920844 363.083637 
L 292.89883 364.139388 
L 295.606089 364.884327 
L 298.313348 365.40121 
L 301.020608 365.676833 
L 303.727867 365.707502 
L 306.435126 365.498912 
L 309.142386 365.065663 
L 312.120371 364.356923 
L 315.369082 363.352381 
L 319.429971 361.851391 
L 332.966268 356.61601 
L 336.485706 355.615015 
L 339.463691 354.983585 
L 342.441676 354.574393 
L 345.419662 354.399327 
L 348.397647 354.459204 
L 351.375632 354.744059 
L 354.624344 355.287714 
L 358.143781 356.10785 
L 362.475396 357.358159 
L 377.365322 361.886526 
L 381.155485 362.674052 
L 384.404197 363.135035 
L 387.652908 363.378515 
L 390.901619 363.398545 
L 394.150331 363.20152 
L 397.669768 362.764239 
L 401.730657 362.017565 
L 406.603724 360.880592 
L 420.140021 357.576023 
L 424.20091 356.875724 
L 427.991073 356.441036 
L 431.51051 356.248489 
L 435.029947 356.264483 
L 438.82011 356.504817 
L 442.880999 356.988801 
L 447.754066 357.807681 
L 455.875845 359.45113 
L 462.643993 360.731991 
L 467.51706 361.426819 
L 471.848675 361.813434 
L 475.909564 361.952094 
L 479.970453 361.871149 
L 484.302068 361.561077 
L 489.175135 360.986004 
L 495.943283 359.941507 
L 498.109091 359.584283 
L 498.109091 359.584283 
" style="fill:none;stroke:#0000ff;stroke-linecap:square;stroke-width:1.5;"/>
   </g>
   <g id="line2d_43">
    <path clip-path="url(#p38170d453d)" d="M 92.290909 218.16 
L 92.561635 218.16 
L 92.832361 218.16 
L 93.373813 233.782482 
L 93.915265 243.879372 
L 94.456717 250.485269 
L 94.998168 254.8085 
L 95.53962 257.638342 
L 96.081072 259.490857 
L 96.622524 260.70365 
L 97.163976 261.497663 
L 97.976154 262.205643 
L 98.517606 262.481042 
L 98.788332 268.332528 
L 99.329783 268.239691 
L 100.412687 267.590228 
L 101.766317 266.812922 
L 103.119947 266.336488 
L 104.744302 266.063123 
L 107.180836 265.934366 
L 114.21971 265.905705 
L 146.165371 265.806232 
L 146.706823 265.23089 
L 147.248275 264.203511 
L 148.060452 262.040504 
L 149.143356 258.422319 
L 151.309164 250.105466 
L 153.745697 240.692806 
L 154.016423 240.764921 
L 154.287149 241.435823 
L 155.099327 244.738003 
L 156.452957 250.273303 
L 157.806586 254.805535 
L 159.430942 259.448454 
L 161.867475 265.656497 
L 164.845461 272.633706 
L 168.094172 279.676036 
L 170.801431 285.025436 
L 173.237965 289.333964 
L 175.403772 292.683935 
L 177.298854 295.195564 
L 178.923209 297.009344 
L 180.547565 298.491763 
L 181.901195 299.464458 
L 183.254824 300.19277 
L 184.608454 300.673807 
L 185.962084 300.906958 
L 187.315714 300.893896 
L 188.669343 300.63855 
L 190.022973 300.147049 
L 191.376603 299.427649 
L 193.000958 298.278148 
L 194.625314 296.836725 
L 196.520395 294.819584 
L 198.686203 292.127567 
L 201.122736 288.696397 
L 204.100722 284.089052 
L 214.659033 267.348851 
L 217.095567 264.086475 
L 219.261374 261.553181 
L 221.156456 259.664331 
L 223.051537 258.112287 
L 224.675893 257.067182 
L 226.300249 256.295989 
L 227.924604 255.804688 
L 229.278234 255.610661 
L 230.631864 255.611578 
L 231.985493 255.804685 
L 233.609849 256.28357 
L 235.234205 257.021414 
L 236.85856 258.003702 
L 238.753642 259.434974 
L 240.648723 261.142043 
L 242.814531 263.382653 
L 245.52179 266.527047 
L 249.311953 271.335448 
L 256.350828 280.342045 
L 259.058087 283.440404 
L 261.494621 285.907072 
L 263.660428 287.785937 
L 265.55551 289.155229 
L 267.450591 290.246433 
L 269.074947 290.948958 
L 270.699303 291.430105 
L 272.323658 291.686997 
L 273.948014 291.71989 
L 275.572369 291.532113 
L 277.196725 291.129976 
L 278.821081 290.522627 
L 280.716162 289.570588 
L 282.611244 288.378375 
L 284.777051 286.756541 
L 287.213585 284.656431 
L 290.19157 281.795527 
L 295.606089 276.20736 
L 299.937704 271.866177 
L 302.915689 269.184635 
L 305.352223 267.26948 
L 307.51803 265.824188 
L 309.683838 264.65203 
L 311.578919 263.868253 
L 313.474001 263.32105 
L 315.369082 263.015991 
L 317.264164 262.954006 
L 319.159246 263.131474 
L 321.054327 263.540367 
L 322.949409 264.168497 
L 325.115216 265.134065 
L 327.281024 266.335441 
L 329.988283 268.115729 
L 333.236994 270.558888 
L 338.380787 274.772477 
L 343.52458 278.890258 
L 346.502565 281.011682 
L 349.209825 282.675168 
L 351.646358 283.908119 
L 353.812166 284.76703 
L 355.977973 285.386098 
L 358.143781 285.755631 
L 360.309588 285.872238 
L 362.475396 285.738755 
L 364.641203 285.36405 
L 366.807011 284.762662 
L 369.243544 283.839897 
L 371.950804 282.550326 
L 374.928789 280.876448 
L 378.989678 278.313393 
L 387.652908 272.758737 
L 390.901619 270.984076 
L 393.608879 269.743519 
L 396.045412 268.849035 
L 398.481946 268.1881 
L 400.918479 267.775149 
L 403.084286 267.621656 
L 405.250094 267.668528 
L 407.686627 267.953551 
L 410.123161 268.469912 
L 412.83042 269.28835 
L 415.808406 270.441489 
L 419.327843 272.064053 
L 424.742362 274.856186 
L 430.698332 277.879047 
L 434.217769 279.427306 
L 437.195755 280.511815 
L 439.903014 281.278987 
L 442.610274 281.813612 
L 445.317533 282.101939 
L 447.754066 282.147315 
L 450.461326 281.964507 
L 453.168585 281.549761 
L 456.14657 280.852382 
L 459.395282 279.849255 
L 463.456171 278.334446 
L 477.804646 272.69648 
L 481.053357 271.77488 
L 484.031342 271.144175 
L 487.009327 270.741724 
L 489.987313 270.578925 
L 492.965298 270.655858 
L 495.943283 270.961635 
L 498.109091 271.316109 
L 498.109091 271.316109 
" style="fill:none;stroke:#000000;stroke-linecap:square;stroke-width:1.5;"/>
   </g>
   <g id="line2d_44">
    <path clip-path="url(#p38170d453d)" d="M 92.290909 218.16 
L 92.561635 218.16 
L 92.832361 218.16 
L 94.185991 189.480102 
L 94.998168 179.030944 
L 95.810346 172.220832 
L 96.622524 167.768288 
L 97.434702 164.83853 
L 98.24688 162.898185 
L 98.788332 161.980084 
L 99.329783 160.541654 
L 99.871235 159.546991 
L 100.412687 158.877175 
L 101.224865 158.276246 
L 102.037043 157.967058 
L 103.390673 157.762791 
L 105.827206 157.705256 
L 146.165371 157.628842 
L 146.706823 157.163777 
L 147.519001 155.958058 
L 148.87263 153.383879 
L 152.933519 145.428525 
L 155.099327 141.358549 
L 156.994408 137.137021 
L 158.077312 135.251958 
L 159.160216 133.779193 
L 160.24312 132.630721 
L 161.596749 131.527264 
L 163.221105 130.535271 
L 165.116187 129.664528 
L 167.823446 128.710329 
L 172.425787 127.381568 
L 189.752247 122.711828 
L 194.083862 121.822056 
L 197.874025 121.252001 
L 201.664188 120.909864 
L 205.183625 120.809257 
L 208.973789 120.932354 
L 212.763952 121.27659 
L 217.095567 121.89617 
L 222.780811 122.95915 
L 235.504931 125.431652 
L 240.107272 126.05634 
L 244.438887 126.414538 
L 248.499776 126.525199 
L 252.560665 126.417402 
L 256.89228 126.082443 
L 262.036073 125.44829 
L 269.616399 124.251145 
L 278.550355 122.889325 
L 283.694148 122.328964 
L 288.296489 122.039861 
L 292.89883 121.974473 
L 297.50117 122.129309 
L 302.644963 122.528948 
L 309.142386 123.272806 
L 324.032312 125.064664 
L 329.446831 125.449301 
L 334.590624 125.595141 
L 339.734417 125.518206 
L 345.419662 125.201342 
L 352.458536 124.570799 
L 368.16064 123.083257 
L 374.116611 122.781885 
L 379.801856 122.711694 
L 385.757826 122.865026 
L 392.796701 123.287079 
L 416.349857 124.916791 
L 422.84728 125.008174 
L 429.615428 124.869056 
L 437.466481 124.473806 
L 458.583104 123.283172 
L 465.892704 123.176849 
L 473.202305 123.293067 
L 482.406986 123.678461 
L 498.109091 124.435077 
L 498.109091 124.435077 
" style="fill:none;stroke:#bfbf00;stroke-linecap:square;stroke-width:1.5;"/>
   </g>
   <g id="patch_3">
    <path d="M 72 384.48 
L 72 51.84 
" style="fill:none;stroke:#000000;stroke-linecap:square;stroke-linejoin:miter;stroke-width:0.8;"/>
   </g>
   <g id="patch_4">
    <path d="M 518.4 384.48 
L 518.4 51.84 
" style="fill:none;stroke:#000000;stroke-linecap:square;stroke-linejoin:miter;stroke-width:0.8;"/>
   </g>
   <g id="patch_5">
    <path d="M 72 384.48 
L 518.4 384.48 
" style="fill:none;stroke:#000000;stroke-linecap:square;stroke-linejoin:miter;stroke-width:0.8;"/>
   </g>
   <g id="patch_6">
    <path d="M 72 51.84 
L 518.4 51.84 
" style="fill:none;stroke:#000000;stroke-linecap:square;stroke-linejoin:miter;stroke-width:0.8;"/>
   </g>
   <g id="text_18">
    <!-- $p_{mn}$ -->
    <g transform="translate(282.67 45.84)scale(0.14 -0.14)">
     <use xlink:href="#DejaVuSans-Oblique-70"/>
     <use transform="translate(63.476562 -16.40625)scale(0.7)" xlink:href="#DejaVuSans-Oblique-6d"/>
     <use transform="translate(131.665039 -16.40625)scale(0.7)" xlink:href="#DejaVuSans-Oblique-6e"/>
    </g>
   </g>
   <g id="legend_1">
    <g id="patch_7">
     <path d="M 463.8 265.618125 
L 511.4 265.618125 
Q 513.4 265.618125 513.4 263.618125 
L 513.4 58.84 
Q 513.4 56.84 511.4 56.84 
L 463.8 56.84 
Q 461.8 56.84 461.8 58.84 
L 461.8 263.618125 
Q 461.8 265.618125 463.8 265.618125 
z
" style="fill:#ffffff;opacity:0.8;stroke:#cccccc;stroke-linejoin:miter;"/>
    </g>
    <g id="line2d_45">
     <path d="M 465.8 64.938437 
L 485.8 64.938437 
" style="fill:none;stroke:#bf00bf;stroke-linecap:square;stroke-width:1.5;"/>
    </g>
    <g id="line2d_46"/>
    <g id="text_19">
     <!-- $p_{12}$ -->
     <g transform="translate(493.8 68.438437)scale(0.1 -0.1)">
      <use xlink:href="#DejaVuSans-Oblique-70"/>
      <use transform="translate(63.476562 -16.40625)scale(0.7)" xlink:href="#DejaVuSans-31"/>
      <use transform="translate(108.012695 -16.40625)scale(0.7)" xlink:href="#DejaVuSans-32"/>
     </g>
    </g>
    <g id="line2d_47">
     <path d="M 465.8 79.636875 
L 485.8 79.636875 
" style="fill:none;stroke:#00bfbf;stroke-linecap:square;stroke-width:1.5;"/>
    </g>
    <g id="line2d_48"/>
    <g id="text_20">
     <!-- $p_{16}$ -->
     <g transform="translate(493.8 83.136875)scale(0.1 -0.1)">
      <use xlink:href="#DejaVuSans-Oblique-70"/>
      <use transform="translate(63.476562 -16.40625)scale(0.7)" xlink:href="#DejaVuSans-31"/>
      <use transform="translate(108.012695 -16.40625)scale(0.7)" xlink:href="#DejaVuSans-36"/>
     </g>
    </g>
    <g id="line2d_49">
     <path d="M 465.8 94.335312 
L 485.8 94.335312 
" style="fill:none;stroke:#ff0000;stroke-linecap:square;stroke-width:1.5;"/>
    </g>
    <g id="line2d_50"/>
    <g id="text_21">
     <!-- $p_{21}$ -->
     <g transform="translate(493.8 97.835312)scale(0.1 -0.1)">
      <use xlink:href="#DejaVuSans-Oblique-70"/>
      <use transform="translate(63.476562 -16.40625)scale(0.7)" xlink:href="#DejaVuSans-32"/>
      <use transform="translate(108.012695 -16.40625)scale(0.7)" xlink:href="#DejaVuSans-31"/>
     </g>
    </g>
    <g id="line2d_51">
     <path d="M 465.8 109.03375 
L 485.8 109.03375 
" style="fill:none;stroke:#008000;stroke-linecap:square;stroke-width:1.5;"/>
    </g>
    <g id="line2d_52"/>
    <g id="text_22">
     <!-- $p_{23}$ -->
     <defs>
      <path d="M 40.578125 39.3125 
Q 47.65625 37.796875 51.625 33 
Q 55.609375 28.21875 55.609375 21.1875 
Q 55.609375 10.40625 48.1875 4.484375 
Q 40.765625 -1.421875 27.09375 -1.421875 
Q 22.515625 -1.421875 17.65625 -0.515625 
Q 12.796875 0.390625 7.625 2.203125 
L 7.625 11.71875 
Q 11.71875 9.328125 16.59375 8.109375 
Q 21.484375 6.890625 26.8125 6.890625 
Q 36.078125 6.890625 40.9375 10.546875 
Q 45.796875 14.203125 45.796875 21.1875 
Q 45.796875 27.640625 41.28125 31.265625 
Q 36.765625 34.90625 28.71875 34.90625 
L 20.21875 34.90625 
L 20.21875 43.015625 
L 29.109375 43.015625 
Q 36.375 43.015625 40.234375 45.921875 
Q 44.09375 48.828125 44.09375 54.296875 
Q 44.09375 59.90625 40.109375 62.90625 
Q 36.140625 65.921875 28.71875 65.921875 
Q 24.65625 65.921875 20.015625 65.03125 
Q 15.375 64.15625 9.8125 62.3125 
L 9.8125 71.09375 
Q 15.4375 72.65625 20.34375 73.4375 
Q 25.25 74.21875 29.59375 74.21875 
Q 40.828125 74.21875 47.359375 69.109375 
Q 53.90625 64.015625 53.90625 55.328125 
Q 53.90625 49.265625 50.4375 45.09375 
Q 46.96875 40.921875 40.578125 39.3125 
z
" id="DejaVuSans-33"/>
     </defs>
     <g transform="translate(493.8 112.53375)scale(0.1 -0.1)">
      <use xlink:href="#DejaVuSans-Oblique-70"/>
      <use transform="translate(63.476562 -16.40625)scale(0.7)" xlink:href="#DejaVuSans-32"/>
      <use transform="translate(108.012695 -16.40625)scale(0.7)" xlink:href="#DejaVuSans-33"/>
     </g>
    </g>
    <g id="line2d_53">
     <path d="M 465.8 123.732188 
L 485.8 123.732188 
" style="fill:none;stroke:#0000ff;stroke-linecap:square;stroke-width:1.5;"/>
    </g>
    <g id="line2d_54"/>
    <g id="text_23">
     <!-- $p_{26}$ -->
     <g transform="translate(493.8 127.232188)scale(0.1 -0.1)">
      <use xlink:href="#DejaVuSans-Oblique-70"/>
      <use transform="translate(63.476562 -16.40625)scale(0.7)" xlink:href="#DejaVuSans-32"/>
      <use transform="translate(108.012695 -16.40625)scale(0.7)" xlink:href="#DejaVuSans-36"/>
     </g>
    </g>
    <g id="line2d_55">
     <path d="M 465.8 138.430625 
L 485.8 138.430625 
" style="fill:none;stroke:#000000;stroke-linecap:square;stroke-width:1.5;"/>
    </g>
    <g id="line2d_56"/>
    <g id="text_24">
     <!-- $p_{32}$ -->
     <g transform="translate(493.8 141.930625)scale(0.1 -0.1)">
      <use xlink:href="#DejaVuSans-Oblique-70"/>
      <use transform="translate(63.476562 -16.40625)scale(0.7)" xlink:href="#DejaVuSans-33"/>
      <use transform="translate(108.012695 -16.40625)scale(0.7)" xlink:href="#DejaVuSans-32"/>
     </g>
    </g>
    <g id="line2d_57">
     <path d="M 465.8 153.129062 
L 485.8 153.129062 
" style="fill:none;stroke:#bfbf00;stroke-linecap:square;stroke-width:1.5;"/>
    </g>
    <g id="line2d_58"/>
    <g id="text_25">
     <!-- $p_{34}$ -->
     <g transform="translate(493.8 156.629062)scale(0.1 -0.1)">
      <use xlink:href="#DejaVuSans-Oblique-70"/>
      <use transform="translate(63.476562 -16.40625)scale(0.7)" xlink:href="#DejaVuSans-33"/>
      <use transform="translate(108.012695 -16.40625)scale(0.7)" xlink:href="#DejaVuSans-34"/>
     </g>
    </g>
    <g id="line2d_59">
     <path d="M 465.8 167.8275 
L 485.8 167.8275 
" style="fill:none;stroke:#bf00bf;stroke-linecap:square;stroke-width:1.5;"/>
    </g>
    <g id="line2d_60"/>
    <g id="text_26">
     <!-- $p_{43}$ -->
     <g transform="translate(493.8 171.3275)scale(0.1 -0.1)">
      <use xlink:href="#DejaVuSans-Oblique-70"/>
      <use transform="translate(63.476562 -16.40625)scale(0.7)" xlink:href="#DejaVuSans-34"/>
      <use transform="translate(108.012695 -16.40625)scale(0.7)" xlink:href="#DejaVuSans-33"/>
     </g>
    </g>
    <g id="line2d_61">
     <path d="M 465.8 182.525937 
L 485.8 182.525937 
" style="fill:none;stroke:#00bfbf;stroke-linecap:square;stroke-width:1.5;"/>
    </g>
    <g id="line2d_62"/>
    <g id="text_27">
     <!-- $p_{45}$ -->
     <g transform="translate(493.8 186.025937)scale(0.1 -0.1)">
      <use xlink:href="#DejaVuSans-Oblique-70"/>
      <use transform="translate(63.476562 -16.40625)scale(0.7)" xlink:href="#DejaVuSans-34"/>
      <use transform="translate(108.012695 -16.40625)scale(0.7)" xlink:href="#DejaVuSans-35"/>
     </g>
    </g>
    <g id="line2d_63">
     <path d="M 465.8 197.224375 
L 485.8 197.224375 
" style="fill:none;stroke:#ff0000;stroke-linecap:square;stroke-width:1.5;"/>
    </g>
    <g id="line2d_64"/>
    <g id="text_28">
     <!-- $p_{54}$ -->
     <g transform="translate(493.8 200.724375)scale(0.1 -0.1)">
      <use xlink:href="#DejaVuSans-Oblique-70"/>
      <use transform="translate(63.476562 -16.40625)scale(0.7)" xlink:href="#DejaVuSans-35"/>
      <use transform="translate(108.012695 -16.40625)scale(0.7)" xlink:href="#DejaVuSans-34"/>
     </g>
    </g>
    <g id="line2d_65">
     <path d="M 465.8 211.922812 
L 485.8 211.922812 
" style="fill:none;stroke:#008000;stroke-linecap:square;stroke-width:1.5;"/>
    </g>
    <g id="line2d_66"/>
    <g id="text_29">
     <!-- $p_{56}$ -->
     <g transform="translate(493.8 215.422812)scale(0.1 -0.1)">
      <use xlink:href="#DejaVuSans-Oblique-70"/>
      <use transform="translate(63.476562 -16.40625)scale(0.7)" xlink:href="#DejaVuSans-35"/>
      <use transform="translate(108.012695 -16.40625)scale(0.7)" xlink:href="#DejaVuSans-36"/>
     </g>
    </g>
    <g id="line2d_67">
     <path d="M 465.8 226.62125 
L 485.8 226.62125 
" style="fill:none;stroke:#0000ff;stroke-linecap:square;stroke-width:1.5;"/>
    </g>
    <g id="line2d_68"/>
    <g id="text_30">
     <!-- $p_{61}$ -->
     <g transform="translate(493.8 230.12125)scale(0.1 -0.1)">
      <use xlink:href="#DejaVuSans-Oblique-70"/>
      <use transform="translate(63.476562 -16.40625)scale(0.7)" xlink:href="#DejaVuSans-36"/>
      <use transform="translate(108.012695 -16.40625)scale(0.7)" xlink:href="#DejaVuSans-31"/>
     </g>
    </g>
    <g id="line2d_69">
     <path d="M 465.8 241.319687 
L 485.8 241.319687 
" style="fill:none;stroke:#000000;stroke-linecap:square;stroke-width:1.5;"/>
    </g>
    <g id="line2d_70"/>
    <g id="text_31">
     <!-- $p_{62}$ -->
     <g transform="translate(493.8 244.819687)scale(0.1 -0.1)">
      <use xlink:href="#DejaVuSans-Oblique-70"/>
      <use transform="translate(63.476562 -16.40625)scale(0.7)" xlink:href="#DejaVuSans-36"/>
      <use transform="translate(108.012695 -16.40625)scale(0.7)" xlink:href="#DejaVuSans-32"/>
     </g>
    </g>
    <g id="line2d_71">
     <path d="M 465.8 256.018125 
L 485.8 256.018125 
" style="fill:none;stroke:#bfbf00;stroke-linecap:square;stroke-width:1.5;"/>
    </g>
    <g id="line2d_72"/>
    <g id="text_32">
     <!-- $p_{65}$ -->
     <g transform="translate(493.8 259.518125)scale(0.1 -0.1)">
      <use xlink:href="#DejaVuSans-Oblique-70"/>
      <use transform="translate(63.476562 -16.40625)scale(0.7)" xlink:href="#DejaVuSans-36"/>
      <use transform="translate(108.012695 -16.40625)scale(0.7)" xlink:href="#DejaVuSans-35"/>
     </g>
    </g>
   </g>
  </g>
 </g>
 <defs>
  <clipPath id="p38170d453d">
   <rect height="332.64" width="446.4" x="72" y="51.84"/>
  </clipPath>
 </defs>
</svg>
