<?xml version="1.0" encoding="utf-8" standalone="no"?>
<!DOCTYPE svg PUBLIC "-//W3C//DTD SVG 1.1//EN"
  "http://www.w3.org/Graphics/SVG/1.1/DTD/svg11.dtd">
<!-- Created with matplotlib (http://matplotlib.org/) -->
<svg height="432pt" version="1.1" viewBox="0 0 576 432" width="576pt" xmlns="http://www.w3.org/2000/svg" xmlns:xlink="http://www.w3.org/1999/xlink">
 <defs>
  <style type="text/css">
*{stroke-linecap:butt;stroke-linejoin:round;}
  </style>
 </defs>
 <g id="figure_1">
  <g id="patch_1">
   <path d="M 0 432 
L 576 432 
L 576 0 
L 0 0 
z
" style="fill:#ffffff;"/>
  </g>
  <g id="axes_1">
   <g id="patch_2">
    <path d="M 72 384.48 
L 518.4 384.48 
L 518.4 51.84 
L 72 51.84 
z
" style="fill:#ffffff;"/>
   </g>
   <g id="matplotlib.axis_1">
    <g id="xtick_1">
     <g id="line2d_1">
      <path clip-path="url(#p1fc347c1d2)" d="M 92.290909 384.48 
L 92.290909 51.84 
" style="fill:none;stroke:#b0b0b0;stroke-dasharray:5.12,1.28,0.8,1.28;stroke-dashoffset:0;stroke-width:0.8;"/>
     </g>
     <g id="line2d_2">
      <defs>
       <path d="M 0 0 
L 0 3.5 
" id="mc63c8f8da6" style="stroke:#000000;stroke-width:0.8;"/>
      </defs>
      <g>
       <use style="stroke:#000000;stroke-width:0.8;" x="92.290909" xlink:href="#mc63c8f8da6" y="384.48"/>
      </g>
     </g>
     <g id="text_1">
      <!-- $0$ -->
      <defs>
       <path d="M 42 31.640625 
C 42 37.75 41.90625 48.125 37.703125 56.109375 
C 34 63.109375 28.09375 65.59375 22.90625 65.59375 
C 18.09375 65.59375 12 63.40625 8.203125 56.203125 
C 4.203125 48.71875 3.796875 39.4375 3.796875 31.640625 
C 3.796875 25.953125 3.90625 17.28125 7 9.671875 
C 11.296875 -0.609375 19 -2 22.90625 -2 
C 27.5 -2 34.5 -0.109375 38.59375 9.375 
C 41.59375 16.28125 42 24.359375 42 31.640625 
z
M 22.90625 -0.40625 
C 16.5 -0.40625 12.703125 5.078125 11.296875 12.6875 
C 10.203125 18.5625 10.203125 27.15625 10.203125 32.75 
C 10.203125 40.4375 10.203125 46.828125 11.5 52.921875 
C 13.40625 61.390625 19 64 22.90625 64 
C 27 64 32.296875 61.296875 34.203125 53.125 
C 35.5 47.4375 35.59375 40.734375 35.59375 32.75 
C 35.59375 26.25 35.59375 18.265625 34.40625 12.375 
C 32.296875 1.484375 26.40625 -0.40625 22.90625 -0.40625 
z
" id="CMR17-48"/>
      </defs>
      <g transform="translate(89.800241 398.398498)scale(0.1 -0.1)">
       <use transform="scale(0.996264)" xlink:href="#CMR17-48"/>
      </g>
     </g>
    </g>
    <g id="xtick_2">
     <g id="line2d_3">
      <path clip-path="url(#p1fc347c1d2)" d="M 167.234248 384.48 
L 167.234248 51.84 
" style="fill:none;stroke:#b0b0b0;stroke-dasharray:5.12,1.28,0.8,1.28;stroke-dashoffset:0;stroke-width:0.8;"/>
     </g>
     <g id="line2d_4">
      <g>
       <use style="stroke:#000000;stroke-width:0.8;" x="167.234248" xlink:href="#mc63c8f8da6" y="384.48"/>
      </g>
     </g>
     <g id="text_2">
      <!-- $200$ -->
      <defs>
       <path d="M 41.703125 15.453125 
L 39.90625 15.453125 
C 38.90625 8.375 38.09375 7.171875 37.703125 6.5625 
C 37.203125 5.765625 30 5.765625 28.59375 5.765625 
L 9.40625 5.765625 
C 13 9.671875 20 16.75 28.5 24.953125 
C 34.59375 30.734375 41.703125 37.53125 41.703125 47.421875 
C 41.703125 59.21875 32.296875 66 21.796875 66 
C 10.796875 66 4.09375 56.3125 4.09375 47.34375 
C 4.09375 43.4375 7 42.9375 8.203125 42.9375 
C 9.203125 42.9375 12.203125 43.546875 12.203125 47.03125 
C 12.203125 50.109375 9.59375 51 8.203125 51 
C 7.59375 51 7 50.90625 6.59375 50.703125 
C 8.5 59.21875 14.296875 63.40625 20.40625 63.40625 
C 29.09375 63.40625 34.796875 56.515625 34.796875 47.421875 
C 34.796875 38.734375 29.703125 31.25 24 24.75 
L 4.09375 2.28125 
L 4.09375 0 
L 39.296875 0 
z
" id="CMR17-50"/>
      </defs>
      <g transform="translate(159.762245 398.398498)scale(0.1 -0.1)">
       <use transform="scale(0.996264)" xlink:href="#CMR17-50"/>
       <use transform="translate(45.690477 0)scale(0.996264)" xlink:href="#CMR17-48"/>
       <use transform="translate(91.380954 0)scale(0.996264)" xlink:href="#CMR17-48"/>
      </g>
     </g>
    </g>
    <g id="xtick_3">
     <g id="line2d_5">
      <path clip-path="url(#p1fc347c1d2)" d="M 242.177588 384.48 
L 242.177588 51.84 
" style="fill:none;stroke:#b0b0b0;stroke-dasharray:5.12,1.28,0.8,1.28;stroke-dashoffset:0;stroke-width:0.8;"/>
     </g>
     <g id="line2d_6">
      <g>
       <use style="stroke:#000000;stroke-width:0.8;" x="242.177588" xlink:href="#mc63c8f8da6" y="384.48"/>
      </g>
     </g>
     <g id="text_3">
      <!-- $400$ -->
      <defs>
       <path d="M 33.59375 64.40625 
C 33.59375 66.5 33.5 66.5 31.703125 66.5 
L 2 19.59375 
L 2 17 
L 27.796875 17 
L 27.796875 7.140625 
C 27.796875 3.5 27.59375 2.5 20.59375 2.5 
L 18.703125 2.5 
L 18.703125 0 
C 21.90625 0 27.296875 0 30.703125 0 
C 34.09375 0 39.5 0 42.703125 0 
L 42.703125 2.5 
L 40.796875 2.5 
C 33.796875 2.5 33.59375 3.5 33.59375 7.140625 
L 33.59375 17 
L 43.796875 17 
L 43.796875 19.59375 
L 33.59375 19.59375 
z
M 28.09375 57.859375 
L 28.09375 19.59375 
L 4 19.59375 
z
" id="CMR17-52"/>
      </defs>
      <g transform="translate(234.705585 398.398498)scale(0.1 -0.1)">
       <use transform="scale(0.996264)" xlink:href="#CMR17-52"/>
       <use transform="translate(45.690477 0)scale(0.996264)" xlink:href="#CMR17-48"/>
       <use transform="translate(91.380954 0)scale(0.996264)" xlink:href="#CMR17-48"/>
      </g>
     </g>
    </g>
    <g id="xtick_4">
     <g id="line2d_7">
      <path clip-path="url(#p1fc347c1d2)" d="M 317.120927 384.48 
L 317.120927 51.84 
" style="fill:none;stroke:#b0b0b0;stroke-dasharray:5.12,1.28,0.8,1.28;stroke-dashoffset:0;stroke-width:0.8;"/>
     </g>
     <g id="line2d_8">
      <g>
       <use style="stroke:#000000;stroke-width:0.8;" x="317.120927" xlink:href="#mc63c8f8da6" y="384.48"/>
      </g>
     </g>
     <g id="text_4">
      <!-- $600$ -->
      <defs>
       <path d="M 10.59375 34 
C 10.59375 57.65625 21.796875 63 28.296875 63 
C 30.40625 63 35.5 62.640625 37.5 59 
C 35.90625 59 32.90625 59 32.90625 55.515625 
C 32.90625 52.828125 35.09375 51.921875 36.5 51.921875 
C 37.40625 51.921875 40.09375 52.3125 40.09375 55.625 
C 40.09375 61.78125 35.09375 65.296875 28.203125 65.296875 
C 16.296875 65.296875 3.796875 52.96875 3.796875 31 
C 3.796875 3.953125 15.09375 -2 23.09375 -2 
C 32.796875 -2 42 6.671875 42 20.046875 
C 42 32.515625 33.90625 41.59375 23.703125 41.59375 
C 17.59375 41.59375 13.09375 37.609375 10.59375 30.625 
z
M 23.09375 0.390625 
C 10.796875 0.390625 10.796875 18.75 10.796875 22.4375 
C 10.796875 29.625 14.203125 40 23.5 40 
C 25.203125 40 30.09375 40 33.40625 33.125 
C 35.203125 29.21875 35.203125 25.140625 35.203125 20.140625 
C 35.203125 14.75 35.203125 10.78125 33.09375 6.78125 
C 30.90625 2.671875 27.703125 0.390625 23.09375 0.390625 
z
" id="CMR17-54"/>
      </defs>
      <g transform="translate(309.648924 398.398498)scale(0.1 -0.1)">
       <use transform="scale(0.996264)" xlink:href="#CMR17-54"/>
       <use transform="translate(45.690477 0)scale(0.996264)" xlink:href="#CMR17-48"/>
       <use transform="translate(91.380954 0)scale(0.996264)" xlink:href="#CMR17-48"/>
      </g>
     </g>
    </g>
    <g id="xtick_5">
     <g id="line2d_9">
      <path clip-path="url(#p1fc347c1d2)" d="M 392.064266 384.48 
L 392.064266 51.84 
" style="fill:none;stroke:#b0b0b0;stroke-dasharray:5.12,1.28,0.8,1.28;stroke-dashoffset:0;stroke-width:0.8;"/>
     </g>
     <g id="line2d_10">
      <g>
       <use style="stroke:#000000;stroke-width:0.8;" x="392.064266" xlink:href="#mc63c8f8da6" y="384.48"/>
      </g>
     </g>
     <g id="text_5">
      <!-- $800$ -->
      <defs>
       <path d="M 27.203125 35.375 
C 33.5 38.546875 39.90625 43.328125 39.90625 50.984375 
C 39.90625 60.015625 31.09375 65.296875 23 65.296875 
C 13.90625 65.296875 5.90625 58.734375 5.90625 49.6875 
C 5.90625 47.203125 6.5 42.921875 10.40625 39.140625 
C 11.40625 38.15625 15.59375 35.171875 18.296875 33.28125 
C 13.796875 30.984375 3.296875 25.53125 3.296875 14.59375 
C 3.296875 4.359375 13.09375 -2 22.796875 -2 
C 33.5 -2 42.5 5.65625 42.5 15.78125 
C 42.5 24.84375 36.40625 29.015625 32.40625 31.703125 
z
M 14.09375 44.09375 
C 13.296875 44.59375 9.296875 47.671875 9.296875 52.359375 
C 9.296875 58.421875 15.59375 63 22.796875 63 
C 30.703125 63 36.5 57.4375 36.5 50.96875 
C 36.5 41.703125 26.09375 36.421875 25.59375 36.421875 
C 25.5 36.421875 25.40625 36.421875 24.59375 37.03125 
z
M 32.5 23.734375 
C 34 22.640625 38.796875 19.375 38.796875 13.296875 
C 38.796875 5.953125 31.40625 0.390625 23 0.390625 
C 13.90625 0.390625 7 6.84375 7 14.6875 
C 7 22.546875 13.09375 29.09375 20 32.1875 
z
" id="CMR17-56"/>
      </defs>
      <g transform="translate(384.592263 398.398498)scale(0.1 -0.1)">
       <use transform="scale(0.996264)" xlink:href="#CMR17-56"/>
       <use transform="translate(45.690477 0)scale(0.996264)" xlink:href="#CMR17-48"/>
       <use transform="translate(91.380954 0)scale(0.996264)" xlink:href="#CMR17-48"/>
      </g>
     </g>
    </g>
    <g id="xtick_6">
     <g id="line2d_11">
      <path clip-path="url(#p1fc347c1d2)" d="M 467.007605 384.48 
L 467.007605 51.84 
" style="fill:none;stroke:#b0b0b0;stroke-dasharray:5.12,1.28,0.8,1.28;stroke-dashoffset:0;stroke-width:0.8;"/>
     </g>
     <g id="line2d_12">
      <g>
       <use style="stroke:#000000;stroke-width:0.8;" x="467.007605" xlink:href="#mc63c8f8da6" y="384.48"/>
      </g>
     </g>
     <g id="text_6">
      <!-- $1000$ -->
      <defs>
       <path d="M 26.59375 63.40625 
C 26.59375 65.5 26.5 65.5 25.09375 65.5 
C 21.203125 61.1875 15.296875 59.796875 9.703125 59.796875 
C 9.40625 59.796875 8.90625 59.796875 8.796875 59.5 
C 8.703125 59.296875 8.703125 59.09375 8.703125 57 
C 11.796875 57 17 57.59375 21 59.984375 
L 21 7.203125 
C 21 3.6875 20.796875 2.5 12.203125 2.5 
L 9.203125 2.5 
L 9.203125 0 
C 14 0 19 0 23.796875 0 
C 28.59375 0 33.59375 0 38.40625 0 
L 38.40625 2.5 
L 35.40625 2.5 
C 26.796875 2.5 26.59375 3.59375 26.59375 7.15625 
z
" id="CMR17-49"/>
      </defs>
      <g transform="translate(457.044935 398.398498)scale(0.1 -0.1)">
       <use transform="scale(0.996264)" xlink:href="#CMR17-49"/>
       <use transform="translate(45.690477 0)scale(0.996264)" xlink:href="#CMR17-48"/>
       <use transform="translate(91.380954 0)scale(0.996264)" xlink:href="#CMR17-48"/>
       <use transform="translate(137.071431 0)scale(0.996264)" xlink:href="#CMR17-48"/>
      </g>
     </g>
    </g>
    <g id="text_7">
     <!-- Iteration -->
     <defs>
      <path d="M 17.09375 69 
L 8.703125 69 
L 8.703125 0 
L 17.09375 0 
z
" id="CMSS17-73"/>
      <path d="M 16.703125 37 
L 29.703125 37 
L 29.703125 42.765625 
L 16.703125 42.765625 
L 16.703125 55 
L 9.59375 55 
L 9.59375 42.765625 
L 1.703125 42.765625 
L 1.703125 37 
L 9.40625 37 
L 9.40625 11.703125 
C 9.40625 6 10.703125 -1 17.296875 -1 
C 22.296875 -1 26.90625 0.390625 31.296875 2.6875 
L 29.703125 8.5625 
C 27.296875 6.46875 24.40625 5.265625 21.296875 5.265625 
C 16.90625 5.265625 16.703125 10.875 16.703125 13.375 
z
" id="CMSS17-116"/>
      <path d="M 39.09375 21.515625 
C 39.09375 24.84375 38.90625 31.296875 35.703125 36.640625 
C 32.203125 42.390625 26.5 44 22.203125 44 
C 11.796875 44 3 34.1875 3 21.484375 
C 3 9.09375 12.09375 -1 23.59375 -1 
C 28.09375 -1 33.59375 0.296875 38.59375 3.875 
C 38.59375 4.28125 38.40625 6.46875 38.296875 6.5625 
C 38.296875 6.765625 38 9.84375 38 10.25 
C 33.203125 6.359375 27.703125 5.078125 23.703125 5.078125 
C 17.296875 5.078125 10.40625 10.421875 10.09375 21.515625 
z
M 10.90625 27 
C 12.203125 32.5625 16.59375 37.828125 22.203125 37.828125 
C 23.703125 37.828125 30.703125 37.828125 32.5 27 
z
" id="CMSS17-101"/>
      <path d="M 14.90625 21.296875 
C 14.90625 30.703125 21.796875 37 30.59375 37 
L 30.59375 43.578125 
C 24.203125 43.578125 18.203125 40.390625 14.59375 35.203125 
L 14.59375 43.09375 
L 7.5 43.09375 
L 7.5 0 
L 14.90625 0 
z
" id="CMSS17-114"/>
      <path d="M 37.59375 27.984375 
C 37.59375 37.375 30.90625 43.875 21.90625 43.875 
C 17.5 43.875 12.703125 43.078125 7.203125 39.890625 
L 7.796875 33.359375 
C 10.296875 35.125 14.59375 38 21.796875 38 
C 26.90625 38 30 34.0625 30 27.84375 
L 30 24 
C 14 24 4 19.34375 4 11.34375 
C 4 7.203125 6.5 -1 14.796875 -1 
C 16.296875 -1 24.40625 -1 30.203125 3.390625 
L 30.203125 -0.296875 
L 37.59375 -0.296875 
z
M 30 12.75 
C 30 10.953125 30 8.5625 27 6.78125 
C 24.40625 5.078125 21.09375 5.078125 19.703125 5.078125 
C 14.703125 5.078125 11.296875 7.984375 11.296875 11.625 
C 11.296875 18.921875 26.90625 18.921875 30 18.921875 
z
" id="CMSS17-97"/>
      <path d="M 15.296875 65.359375 
L 6.90625 65.359375 
L 6.90625 57 
L 15.296875 57 
z
M 14.796875 42.796875 
L 7.40625 42.796875 
L 7.40625 0 
L 14.796875 0 
z
" id="CMSS17-105"/>
      <path d="M 44.203125 21.1875 
C 44.203125 34 34.703125 44 23.5 44 
C 12 44 2.703125 33.703125 2.703125 21.1875 
C 2.703125 8.5 12.296875 -1 23.40625 -1 
C 34.796875 -1 44.203125 8.796875 44.203125 21.1875 
z
M 23.5 5.265625 
C 16.40625 5.265625 10.296875 11.078125 10.296875 22 
C 10.296875 33.609375 17.40625 37.921875 23.40625 37.921875 
C 29.90625 37.921875 36.59375 33.21875 36.59375 22 
C 36.59375 10.671875 30.09375 5.265625 23.5 5.265625 
z
" id="CMSS17-111"/>
      <path d="M 40.90625 29.328125 
C 40.90625 35.671875 39.40625 44 28.09375 44 
C 21.703125 44 17.5 40.71875 14.703125 37.328125 
L 14.703125 43.09375 
L 7.40625 43.09375 
L 7.40625 0 
L 15 0 
L 15 24.359375 
C 15 30.6875 17.40625 37.9375 24.203125 37.9375 
C 33 37.9375 33.296875 32 33.296875 28.578125 
L 33.296875 0 
L 40.90625 0 
z
" id="CMSS17-110"/>
     </defs>
     <g transform="translate(271.264003 414.021553)scale(0.14 -0.14)">
      <use transform="scale(0.996264)" xlink:href="#CMSS17-73"/>
      <use transform="translate(25.783926 0)scale(0.996264)" xlink:href="#CMSS17-116"/>
      <use transform="translate(59.615492 0)scale(0.996264)" xlink:href="#CMSS17-101"/>
      <use transform="translate(101.254314 0)scale(0.996264)" xlink:href="#CMSS17-114"/>
      <use transform="translate(133.164087 0)scale(0.996264)" xlink:href="#CMSS17-97"/>
      <use transform="translate(178.086007 0)scale(0.996264)" xlink:href="#CMSS17-116"/>
      <use transform="translate(211.917574 0)scale(0.996264)" xlink:href="#CMSS17-105"/>
      <use transform="translate(234.098297 0)scale(0.996264)" xlink:href="#CMSS17-111"/>
      <use transform="translate(280.941921 0)scale(0.996264)" xlink:href="#CMSS17-110"/>
     </g>
    </g>
   </g>
   <g id="matplotlib.axis_2">
    <g id="ytick_1">
     <g id="line2d_13">
      <path clip-path="url(#p1fc347c1d2)" d="M 72 356.558212 
L 518.4 356.558212 
" style="fill:none;stroke:#b0b0b0;stroke-dasharray:5.12,1.28,0.8,1.28;stroke-dashoffset:0;stroke-width:0.8;"/>
     </g>
     <g id="line2d_14">
      <defs>
       <path d="M 0 0 
L -3.5 0 
" id="m6accbcca17" style="stroke:#000000;stroke-width:0.8;"/>
      </defs>
      <g>
       <use style="stroke:#000000;stroke-width:0.8;" x="72" xlink:href="#m6accbcca17" y="356.558212"/>
      </g>
     </g>
     <g id="text_8">
      <!-- $-1500$ -->
      <defs>
       <path d="M 65.90625 23 
C 67.59375 23 69.40625 23 69.40625 25 
C 69.40625 27 67.59375 27 65.90625 27 
L 11.796875 27 
C 10.09375 27 8.296875 27 8.296875 25 
C 8.296875 23 10.09375 23 11.796875 23 
z
" id="CMSY10-0"/>
       <path d="M 11.40625 57.6875 
C 12.40625 57.28125 16.5 56 20.703125 56 
C 30 56 35.09375 61.109375 38 64.0625 
C 38 64.953125 38 65.5 37.40625 65.5 
C 37.296875 65.5 37.09375 65.5 36.296875 65.046875 
C 32.796875 63.40625 28.703125 62.078125 23.703125 62.078125 
C 20.703125 62.078125 16.203125 62.484375 11.296875 64.671875 
C 10.203125 65.171875 10 65.171875 9.90625 65.171875 
C 9.40625 65.171875 9.296875 65.0625 9.296875 63.078125 
L 9.296875 34.421875 
C 9.296875 32.640625 9.296875 32.140625 10.296875 32.140625 
C 10.796875 32.140625 11 32.34375 11.5 33.03125 
C 14.703125 37.515625 19.09375 39.40625 24.09375 39.40625 
C 27.59375 39.40625 35.09375 37.21875 35.09375 20.140625 
C 35.09375 16.953125 35.09375 11.171875 32.09375 6.578125 
C 29.59375 2.484375 25.703125 0.390625 21.40625 0.390625 
C 14.796875 0.390625 8.09375 5 6.296875 12.71875 
C 6.703125 12.609375 7.5 12.421875 7.90625 12.421875 
C 9.203125 12.421875 11.703125 13.125 11.703125 16.21875 
C 11.703125 18.90625 9.796875 20 7.90625 20 
C 5.59375 20 4.09375 18.59375 4.09375 15.796875 
C 4.09375 7.09375 11 -2 21.59375 -2 
C 31.90625 -2 41.703125 6.875 41.703125 19.75 
C 41.703125 31.71875 33.90625 41 24.203125 41 
C 19.09375 41 14.796875 39.109375 11.40625 35.53125 
z
" id="CMR17-53"/>
      </defs>
      <g transform="translate(37.325915 360.017461)scale(0.1 -0.1)">
       <use transform="scale(0.996264)" xlink:href="#CMSY10-0"/>
       <use transform="translate(77.487468 0)scale(0.996264)" xlink:href="#CMR17-49"/>
       <use transform="translate(123.177945 0)scale(0.996264)" xlink:href="#CMR17-53"/>
       <use transform="translate(168.868422 0)scale(0.996264)" xlink:href="#CMR17-48"/>
       <use transform="translate(214.558899 0)scale(0.996264)" xlink:href="#CMR17-48"/>
      </g>
     </g>
    </g>
    <g id="ytick_2">
     <g id="line2d_15">
      <path clip-path="url(#p1fc347c1d2)" d="M 72 318.449169 
L 518.4 318.449169 
" style="fill:none;stroke:#b0b0b0;stroke-dasharray:5.12,1.28,0.8,1.28;stroke-dashoffset:0;stroke-width:0.8;"/>
     </g>
     <g id="line2d_16">
      <g>
       <use style="stroke:#000000;stroke-width:0.8;" x="72" xlink:href="#m6accbcca17" y="318.449169"/>
      </g>
     </g>
     <g id="text_9">
      <!-- $-1000$ -->
      <g transform="translate(37.325915 321.908418)scale(0.1 -0.1)">
       <use transform="scale(0.996264)" xlink:href="#CMSY10-0"/>
       <use transform="translate(77.487468 0)scale(0.996264)" xlink:href="#CMR17-49"/>
       <use transform="translate(123.177945 0)scale(0.996264)" xlink:href="#CMR17-48"/>
       <use transform="translate(168.868422 0)scale(0.996264)" xlink:href="#CMR17-48"/>
       <use transform="translate(214.558899 0)scale(0.996264)" xlink:href="#CMR17-48"/>
      </g>
     </g>
    </g>
    <g id="ytick_3">
     <g id="line2d_17">
      <path clip-path="url(#p1fc347c1d2)" d="M 72 280.340125 
L 518.4 280.340125 
" style="fill:none;stroke:#b0b0b0;stroke-dasharray:5.12,1.28,0.8,1.28;stroke-dashoffset:0;stroke-width:0.8;"/>
     </g>
     <g id="line2d_18">
      <g>
       <use style="stroke:#000000;stroke-width:0.8;" x="72" xlink:href="#m6accbcca17" y="280.340125"/>
      </g>
     </g>
     <g id="text_10">
      <!-- $-500$ -->
      <g transform="translate(42.307251 283.799374)scale(0.1 -0.1)">
       <use transform="scale(0.996264)" xlink:href="#CMSY10-0"/>
       <use transform="translate(77.487468 0)scale(0.996264)" xlink:href="#CMR17-53"/>
       <use transform="translate(123.177945 0)scale(0.996264)" xlink:href="#CMR17-48"/>
       <use transform="translate(168.868422 0)scale(0.996264)" xlink:href="#CMR17-48"/>
      </g>
     </g>
    </g>
    <g id="ytick_4">
     <g id="line2d_19">
      <path clip-path="url(#p1fc347c1d2)" d="M 72 242.231082 
L 518.4 242.231082 
" style="fill:none;stroke:#b0b0b0;stroke-dasharray:5.12,1.28,0.8,1.28;stroke-dashoffset:0;stroke-width:0.8;"/>
     </g>
     <g id="line2d_20">
      <g>
       <use style="stroke:#000000;stroke-width:0.8;" x="72" xlink:href="#m6accbcca17" y="242.231082"/>
      </g>
     </g>
     <g id="text_11">
      <!-- $0$ -->
      <g transform="translate(60.018665 245.690331)scale(0.1 -0.1)">
       <use transform="scale(0.996264)" xlink:href="#CMR17-48"/>
      </g>
     </g>
    </g>
    <g id="ytick_5">
     <g id="line2d_21">
      <path clip-path="url(#p1fc347c1d2)" d="M 72 204.122038 
L 518.4 204.122038 
" style="fill:none;stroke:#b0b0b0;stroke-dasharray:5.12,1.28,0.8,1.28;stroke-dashoffset:0;stroke-width:0.8;"/>
     </g>
     <g id="line2d_22">
      <g>
       <use style="stroke:#000000;stroke-width:0.8;" x="72" xlink:href="#m6accbcca17" y="204.122038"/>
      </g>
     </g>
     <g id="text_12">
      <!-- $500$ -->
      <g transform="translate(50.055994 207.581288)scale(0.1 -0.1)">
       <use transform="scale(0.996264)" xlink:href="#CMR17-53"/>
       <use transform="translate(45.690477 0)scale(0.996264)" xlink:href="#CMR17-48"/>
       <use transform="translate(91.380954 0)scale(0.996264)" xlink:href="#CMR17-48"/>
      </g>
     </g>
    </g>
    <g id="ytick_6">
     <g id="line2d_23">
      <path clip-path="url(#p1fc347c1d2)" d="M 72 166.012995 
L 518.4 166.012995 
" style="fill:none;stroke:#b0b0b0;stroke-dasharray:5.12,1.28,0.8,1.28;stroke-dashoffset:0;stroke-width:0.8;"/>
     </g>
     <g id="line2d_24">
      <g>
       <use style="stroke:#000000;stroke-width:0.8;" x="72" xlink:href="#m6accbcca17" y="166.012995"/>
      </g>
     </g>
     <g id="text_13">
      <!-- $1000$ -->
      <g transform="translate(45.074659 169.472244)scale(0.1 -0.1)">
       <use transform="scale(0.996264)" xlink:href="#CMR17-49"/>
       <use transform="translate(45.690477 0)scale(0.996264)" xlink:href="#CMR17-48"/>
       <use transform="translate(91.380954 0)scale(0.996264)" xlink:href="#CMR17-48"/>
       <use transform="translate(137.071431 0)scale(0.996264)" xlink:href="#CMR17-48"/>
      </g>
     </g>
    </g>
    <g id="ytick_7">
     <g id="line2d_25">
      <path clip-path="url(#p1fc347c1d2)" d="M 72 127.903952 
L 518.4 127.903952 
" style="fill:none;stroke:#b0b0b0;stroke-dasharray:5.12,1.28,0.8,1.28;stroke-dashoffset:0;stroke-width:0.8;"/>
     </g>
     <g id="line2d_26">
      <g>
       <use style="stroke:#000000;stroke-width:0.8;" x="72" xlink:href="#m6accbcca17" y="127.903952"/>
      </g>
     </g>
     <g id="text_14">
      <!-- $1500$ -->
      <g transform="translate(45.074659 131.363201)scale(0.1 -0.1)">
       <use transform="scale(0.996264)" xlink:href="#CMR17-49"/>
       <use transform="translate(45.690477 0)scale(0.996264)" xlink:href="#CMR17-53"/>
       <use transform="translate(91.380954 0)scale(0.996264)" xlink:href="#CMR17-48"/>
       <use transform="translate(137.071431 0)scale(0.996264)" xlink:href="#CMR17-48"/>
      </g>
     </g>
    </g>
    <g id="ytick_8">
     <g id="line2d_27">
      <path clip-path="url(#p1fc347c1d2)" d="M 72 89.794908 
L 518.4 89.794908 
" style="fill:none;stroke:#b0b0b0;stroke-dasharray:5.12,1.28,0.8,1.28;stroke-dashoffset:0;stroke-width:0.8;"/>
     </g>
     <g id="line2d_28">
      <g>
       <use style="stroke:#000000;stroke-width:0.8;" x="72" xlink:href="#m6accbcca17" y="89.794908"/>
      </g>
     </g>
     <g id="text_15">
      <!-- $2000$ -->
      <g transform="translate(45.074659 93.254157)scale(0.1 -0.1)">
       <use transform="scale(0.996264)" xlink:href="#CMR17-50"/>
       <use transform="translate(45.690477 0)scale(0.996264)" xlink:href="#CMR17-48"/>
       <use transform="translate(91.380954 0)scale(0.996264)" xlink:href="#CMR17-48"/>
       <use transform="translate(137.071431 0)scale(0.996264)" xlink:href="#CMR17-48"/>
      </g>
     </g>
    </g>
    <g id="ytick_9">
     <g id="line2d_29">
      <path clip-path="url(#p1fc347c1d2)" d="M 72 51.685865 
L 518.4 51.685865 
" style="fill:none;stroke:#b0b0b0;stroke-dasharray:5.12,1.28,0.8,1.28;stroke-dashoffset:0;stroke-width:0.8;"/>
     </g>
     <g id="line2d_30">
      <g>
       <use style="stroke:#000000;stroke-width:0.8;" x="72" xlink:href="#m6accbcca17" y="51.685865"/>
      </g>
     </g>
     <g id="text_16">
      <!-- $2500$ -->
      <g transform="translate(45.074659 55.145114)scale(0.1 -0.1)">
       <use transform="scale(0.996264)" xlink:href="#CMR17-50"/>
       <use transform="translate(45.690477 0)scale(0.996264)" xlink:href="#CMR17-53"/>
       <use transform="translate(91.380954 0)scale(0.996264)" xlink:href="#CMR17-48"/>
       <use transform="translate(137.071431 0)scale(0.996264)" xlink:href="#CMR17-48"/>
      </g>
     </g>
    </g>
    <g id="text_17">
     <!-- $\partial \mathcal{L}/ \partial u_{m}$ -->
     <defs>
      <path d="M 45.40625 33.515625 
C 44.796875 39.125 41.296875 45.859375 32.296875 45.859375 
C 18.203125 45.859375 3.796875 31.515625 3.796875 15.5625 
C 3.796875 9.4375 8 -2.09375 21.59375 -2.09375 
C 45.203125 -2.09375 55.296875 32.296875 55.296875 46 
C 55.296875 60.40625 47.203125 71.5 34.40625 71.5 
C 19.90625 71.5 15.59375 58.796875 15.59375 56.09375 
C 15.59375 55.203125 16.203125 53 19 53 
C 22.5 53 24 56.203125 24 57.90625 
C 24 61 20.90625 61 19.59375 61 
C 23.703125 68.40625 31.296875 69.09375 34 69.09375 
C 42.796875 69.09375 48.40625 62.109375 48.40625 50.96875 
C 48.40625 44.578125 46.5 37.1875 45.5 33.515625 
z
M 21.90625 0.59375 
C 12.5 0.59375 10.90625 8.03125 10.90625 12.25 
C 10.90625 16.65625 13.703125 27 15.203125 30.703125 
C 16.5 33.71875 22.203125 43.859375 32.59375 43.859375 
C 41.703125 43.859375 43.796875 35.921875 43.796875 30.515625 
C 43.796875 23.078125 37.296875 0.59375 21.90625 0.59375 
z
" id="CMMI12-64"/>
      <path d="M 18 9.53125 
C 23.40625 17.984375 25.09375 24.40625 26.40625 29.734375 
C 29.90625 43.59375 33.703125 55.65625 39.90625 62.578125 
C 41.09375 63.90625 41.90625 64.796875 45.09375 64.796875 
C 52 64.796875 52.203125 57.875 52.203125 56.453125 
C 52.203125 54.65625 51.703125 53.234375 51.703125 52.734375 
C 51.703125 52.03125 52.296875 52.03125 52.40625 52.03125 
C 54 52.03125 56.703125 53.140625 59.203125 54.953125 
C 61 56.359375 61.90625 57.359375 61.90625 61.46875 
C 61.90625 66.890625 59.09375 71 53.5 71 
C 50.296875 71 41.5 70.203125 31.703125 60.25 
C 23.703125 52.015625 19 33.9375 17.09375 26.40625 
C 15.296875 19.5 14.5 16.375 11.5 10.34375 
C 10.796875 9.15625 8.203125 4.734375 6.796875 3.421875 
C 4.09375 0.921875 3.09375 -0.890625 3.09375 -1.390625 
C 3.09375 -1.59375 3.296875 -2 4 -2 
C 4.40625 -2 6.5 -1.59375 9.09375 0.078125 
C 10.796875 1.0625 11 1.25 13.296875 3.609375 
C 18.296875 3.609375 21.796875 2.703125 28.09375 0.90625 
C 33.203125 -0.5 38.296875 -2 43.40625 -2 
C 51.5 -2 59.703125 4.125 62.90625 8.53125 
C 64.90625 11.234375 65.5 13.75 65.5 14.046875 
C 65.5 14.75 64.90625 14.75 64.796875 14.75 
C 63.203125 14.75 60.796875 13.65625 59.09375 12.4375 
C 56.40625 10.734375 56.203125 10.140625 55.59375 8.421875 
C 55.09375 6.8125 54.5 6.015625 54.09375 5.40625 
C 53.296875 4.203125 53.203125 4.203125 51.703125 4.203125 
C 46.90625 4.203125 41.90625 5.71875 35.296875 7.515625 
C 32.5 8.3125 27 9.9375 22 9.9375 
C 20.703125 9.9375 19.296875 9.828125 18 9.53125 
z
" id="CMSY10-76"/>
      <path d="M 42.90625 71.28125 
C 42.90625 71.390625 43.5 72.90625 43.5 73.09375 
C 43.5 74.296875 42.5 75 41.703125 75 
C 41.203125 75 40.296875 75 39.5 72.796875 
L 6 -21.296875 
C 6 -21.40625 5.40625 -22.890625 5.40625 -23.09375 
C 5.40625 -24.296875 6.40625 -25 7.203125 -25 
C 7.796875 -25 8.703125 -24.890625 9.40625 -22.796875 
z
" id="CMMI12-61"/>
      <path d="M 34.09375 5.78125 
C 35.40625 0.203125 40.203125 -1 42.59375 -1 
C 45.796875 -1 48.203125 1.09375 49.796875 4.484375 
C 51.5 8.078125 52.796875 13.96875 52.796875 14.265625 
C 52.796875 14.765625 52.40625 15.171875 51.796875 15.171875 
C 50.90625 15.171875 50.796875 14.671875 50.40625 13.171875 
C 48.59375 6.28125 46.796875 1 42.796875 1 
C 39.796875 1 39.796875 4.296875 39.796875 5.59375 
C 39.796875 7.890625 40.09375 8.875 41.09375 13.078125 
C 41.796875 15.765625 42.5 18.453125 43.09375 21.25 
L 47.203125 37.515625 
C 47.90625 40.015625 47.90625 40.21875 47.90625 40.515625 
C 47.90625 42.015625 46.703125 43.015625 45.203125 43.015625 
C 42.296875 43.015625 41.59375 40.515625 41 38.015625 
C 40 34.125 34.59375 12.671875 33.90625 9.1875 
C 33.796875 9.1875 29.90625 1 22.59375 1 
C 17.40625 1 16.40625 5.484375 16.40625 9.1875 
C 16.40625 14.875 19.203125 22.84375 21.796875 29.53125 
C 23 32.734375 23.5 34.03125 23.5 36.015625 
C 23.5 40.3125 20.40625 44 15.59375 44 
C 6.40625 44 2.703125 29.53125 2.703125 28.734375 
C 2.703125 28.34375 3.09375 27.84375 3.796875 27.84375 
C 4.703125 27.84375 4.796875 28.234375 5.203125 29.625 
C 7.59375 38.140625 11.5 41.90625 15.296875 41.90625 
C 16.296875 41.90625 17.90625 41.90625 17.90625 38.71875 
C 17.90625 36.125 16.796875 33.234375 15.296875 29.4375 
C 10.90625 17.5625 10.40625 13.765625 10.40625 10.78125 
C 10.40625 0.59375 18.09375 -1 22.203125 -1 
C 28.59375 -1 32.09375 3.390625 34.09375 5.78125 
z
" id="CMMI12-117"/>
      <path d="M 20.59375 29.234375 
C 20.796875 29.84375 23.296875 34.828125 27 38.015625 
C 29.59375 40.40625 33 42.015625 36.90625 42.015625 
C 40.90625 42.015625 42.296875 39.015625 42.296875 35.03125 
C 42.296875 34.421875 42.296875 32.4375 41.09375 27.734375 
L 38.59375 17.46875 
C 37.796875 14.46875 35.90625 7.078125 35.703125 5.984375 
C 35.296875 4.484375 34.703125 1.890625 34.703125 1.5 
C 34.703125 0.09375 35.796875 -1 37.296875 -1 
C 40.296875 -1 40.796875 1.296875 41.703125 4.890625 
L 47.703125 28.734375 
C 47.90625 29.53125 53.09375 42.015625 64.09375 42.015625 
C 68.09375 42.015625 69.5 39.015625 69.5 35.03125 
C 69.5 29.4375 65.59375 18.5625 63.40625 12.578125 
C 62.5 10.171875 62 8.875 62 7.078125 
C 62 2.59375 65.09375 -1 69.90625 -1 
C 79.203125 -1 82.703125 13.671875 82.703125 14.265625 
C 82.703125 14.765625 82.296875 15.171875 81.703125 15.171875 
C 80.796875 15.171875 80.703125 14.875 80.203125 13.171875 
C 77.90625 5.1875 74.203125 1 70.203125 1 
C 69.203125 1 67.59375 1 67.59375 4.203125 
C 67.59375 6.8125 68.796875 10 69.203125 11.09375 
C 71 15.90625 75.5 27.703125 75.5 33.515625 
C 75.5 39.5 72 44 64.40625 44 
C 57.703125 44 52.296875 40.21875 48.296875 34.328125 
C 48 39.71875 44.703125 44 37.203125 44 
C 28.296875 44 23.59375 37.734375 21.796875 35.234375 
C 21.5 40.90625 17.40625 44 13 44 
C 10.09375 44 7.796875 42.609375 5.90625 38.8125 
C 4.09375 35.21875 2.703125 29.140625 2.703125 28.734375 
C 2.703125 28.34375 3.09375 27.84375 3.796875 27.84375 
C 4.59375 27.84375 4.703125 27.9375 5.296875 30.234375 
C 6.796875 36.125 8.703125 42.015625 12.703125 42.015625 
C 15 42.015625 15.796875 40.40625 15.796875 37.421875 
C 15.796875 35.21875 14.796875 31.328125 14.09375 28.234375 
L 11.296875 17.46875 
C 10.90625 15.5625 9.796875 11.078125 9.296875 9.28125 
C 8.59375 6.6875 7.5 2 7.5 1.5 
C 7.5 0.09375 8.59375 -1 10.09375 -1 
C 11.296875 -1 12.703125 -0.40625 13.5 1.09375 
C 13.703125 1.59375 14.59375 5.09375 15.09375 7.078125 
L 17.296875 16.0625 
z
" id="CMMI12-109"/>
     </defs>
     <g transform="translate(30.613887 242.659086)rotate(-90)scale(0.14 -0.14)">
      <use transform="translate(0 14.943915)scale(0.996264)" xlink:href="#CMMI12-64"/>
      <use transform="translate(56.915564 14.943915)scale(0.996264)" xlink:href="#CMSY10-76"/>
      <use transform="translate(125.630372 14.943915)scale(0.996264)" xlink:href="#CMMI12-61"/>
      <use transform="translate(174.405291 14.943915)scale(0.996264)" xlink:href="#CMMI12-64"/>
      <use transform="translate(231.320856 14.943915)scale(0.996264)" xlink:href="#CMMI12-117"/>
      <use transform="translate(286.841185 0)scale(0.697382)" xlink:href="#CMMI12-109"/>
     </g>
    </g>
   </g>
   <g id="line2d_31">
    <path clip-path="url(#p1fc347c1d2)" d="M 92.290909 242.231082 
L 92.665626 242.231082 
L 93.040342 242.231082 
L 93.415059 255.569247 
L 93.789776 264.114011 
L 94.164493 269.561943 
L 94.539209 271.978643 
L 94.913926 272.489678 
L 95.288643 271.961288 
L 96.038076 269.658618 
L 97.536943 264.689244 
L 98.661093 261.87653 
L 99.785243 259.86938 
L 100.909393 258.489703 
L 102.033543 257.562037 
L 103.157693 256.946676 
L 104.65656 256.440702 
L 106.530144 256.103757 
L 108.403727 255.938653 
L 108.778444 264.330752 
L 109.527877 294.846668 
L 110.277311 313.255249 
L 111.026744 325.67885 
L 111.776177 334.391652 
L 112.525611 340.379269 
L 113.275044 344.200974 
L 113.649761 345.428847 
L 114.024477 346.259571 
L 114.399194 346.732123 
L 114.773911 350.717551 
L 115.148628 347.636329 
L 115.898061 333.503331 
L 118.146361 279.51899 
L 120.769378 219.334856 
L 122.268245 188.256131 
L 123.392395 169.931054 
L 124.516545 156.538447 
L 125.640695 146.682122 
L 126.764845 139.326924 
L 127.888995 133.784886 
L 129.013145 129.584919 
L 130.137295 126.391556 
L 131.261445 123.959094 
L 132.385596 122.104327 
L 133.509746 120.689262 
L 134.633896 119.60932 
L 135.758046 118.784999 
L 137.256913 117.980989 
L 138.755779 117.420001 
L 140.629363 116.95081 
L 143.25238 116.564842 
L 146.62483 116.320624 
L 150.371997 116.204445 
L 150.746714 115.266551 
L 151.12143 113.0192 
L 151.870864 106.073217 
L 153.744447 87.353079 
L 154.868597 78.933999 
L 155.618031 74.645794 
L 156.367464 71.30405 
L 157.116898 68.823395 
L 157.866331 67.324665 
L 158.241048 66.996196 
L 158.615764 66.96 
L 158.990481 67.216001 
L 159.365198 67.759215 
L 159.739914 68.581182 
L 160.489348 71.016799 
L 161.238781 74.422528 
L 162.362931 81.114133 
L 163.487081 89.39208 
L 164.985948 102.348241 
L 166.859532 120.735526 
L 169.857265 152.94856 
L 176.227449 222.118638 
L 178.850466 248.111437 
L 181.098766 268.534866 
L 183.347066 287.019368 
L 185.22065 300.845832 
L 187.094233 313.192247 
L 188.967817 324.041709 
L 190.8414 333.398073 
L 192.340267 339.82194 
L 193.839134 345.321326 
L 195.338001 349.919167 
L 196.462151 352.792253 
L 197.586301 355.186584 
L 198.710451 357.116273 
L 199.834601 358.596367 
L 200.958751 359.642781 
L 201.708184 360.107627 
L 202.457618 360.392188 
L 203.207051 360.501652 
L 203.956485 360.441302 
L 204.705918 360.216528 
L 205.830068 359.582972 
L 206.954218 358.610361 
L 208.078368 357.317535 
L 209.202518 355.723532 
L 210.701385 353.162704 
L 212.200252 350.145679 
L 214.073835 345.801454 
L 215.947419 340.901645 
L 218.195719 334.408032 
L 220.818736 326.164809 
L 224.191186 314.838306 
L 241.802871 256.345879 
L 244.425888 249.209191 
L 247.048905 242.717894 
L 249.297205 237.6976 
L 251.545505 233.195824 
L 253.793805 229.220197 
L 255.667389 226.309611 
L 257.540972 223.761603 
L 259.414556 221.570058 
L 261.288139 219.726282 
L 263.161722 218.219244 
L 265.035306 217.035859 
L 266.908889 216.161272 
L 268.782473 215.579118 
L 270.656056 215.271784 
L 272.52964 215.220627 
L 274.403223 215.406263 
L 276.276807 215.808771 
L 278.525107 216.549489 
L 280.773407 217.538106 
L 283.396424 218.95811 
L 286.394158 220.865948 
L 289.766608 223.282381 
L 294.637925 227.075207 
L 304.755276 235.034143 
L 308.877159 237.972274 
L 312.624326 240.377359 
L 315.996777 242.289137 
L 319.369227 243.941225 
L 322.741677 245.324065 
L 325.739411 246.326234 
L 328.737144 247.119032 
L 332.109595 247.771093 
L 335.482045 248.185452 
L 338.854495 248.383017 
L 342.601662 248.377446 
L 346.723546 248.138921 
L 351.220146 247.657253 
L 356.840896 246.824159 
L 365.834097 245.225248 
L 377.075598 243.271908 
L 384.195215 242.270494 
L 390.565399 241.593975 
L 396.935583 241.136925 
L 403.680484 240.879186 
L 411.174817 240.825666 
L 420.168018 241.000099 
L 434.032536 241.528519 
L 453.892521 242.251447 
L 467.382322 242.502068 
L 482.37099 242.546038 
L 498.109091 242.43498 
L 498.109091 242.43498 
" style="fill:none;stroke:#bf00bf;stroke-linecap:square;stroke-width:1.5;"/>
   </g>
   <g id="line2d_32">
    <path clip-path="url(#p1fc347c1d2)" d="M 92.290909 242.231082 
L 93.415059 242.231082 
L 93.789776 227.225646 
L 94.539209 216.63384 
L 94.913926 213.664794 
L 95.663359 209.853791 
L 97.91166 200.230625 
L 99.03581 196.44424 
L 100.15996 193.679345 
L 100.909393 192.324553 
L 101.658826 191.280937 
L 102.782977 190.160691 
L 103.907127 189.421803 
L 105.031277 188.93762 
L 106.530144 188.542757 
L 108.403727 188.281237 
L 108.778444 177.030335 
L 109.15316 154.787351 
L 109.527877 144.108786 
L 109.902594 139.693876 
L 110.277311 138.595078 
L 110.652027 139.18919 
L 111.401461 142.377179 
L 114.399194 157.38699 
L 114.773911 158.360387 
L 115.148628 140.643973 
L 115.523344 137.745406 
L 115.898061 141.23201 
L 116.647494 155.459732 
L 121.518811 263.981513 
L 122.642961 285.23091 
L 123.392395 295.683786 
L 124.141828 302.943872 
L 124.891262 307.985058 
L 125.640695 311.572697 
L 126.390128 314.20703 
L 127.139562 316.200689 
L 128.263712 318.396814 
L 129.387862 319.964125 
L 130.512012 321.114523 
L 131.636162 321.973325 
L 133.135029 322.79959 
L 134.633896 323.371569 
L 136.507479 323.84813 
L 138.755779 324.197445 
L 142.12823 324.468164 
L 147.374263 324.623603 
L 150.371997 324.655203 
L 151.870864 310.483258 
L 152.24558 309.251963 
L 152.620297 308.589665 
L 153.369731 308.019432 
L 154.493881 307.461889 
L 155.618031 306.581601 
L 157.116898 305.005548 
L 157.866331 303.978959 
L 158.615764 302.341116 
L 159.365198 299.87274 
L 160.114631 296.532604 
L 161.238781 290.001461 
L 162.362931 281.91505 
L 163.861798 269.28646 
L 166.110098 247.819118 
L 173.604432 173.60581 
L 175.852732 154.196242 
L 177.726316 139.692367 
L 179.599899 126.849147 
L 181.473483 115.739438 
L 182.97235 108.120206 
L 184.471216 101.627469 
L 185.970083 96.247554 
L 187.094233 92.929141 
L 188.218383 90.210731 
L 189.342533 88.077181 
L 190.466683 86.511471 
L 191.216117 85.773962 
L 191.96555 85.27468 
L 192.714984 85.007483 
L 193.464417 84.966043 
L 194.21385 85.143822 
L 194.963284 85.534119 
L 195.712717 86.130091 
L 196.836867 87.394397 
L 197.961017 89.081804 
L 199.085167 91.16797 
L 200.584034 94.527244 
L 202.082901 98.492932 
L 203.956485 104.213373 
L 205.830068 110.675783 
L 208.078368 119.252749 
L 210.701385 130.156272 
L 214.073835 145.160169 
L 224.565903 193.464517 
L 241.802871 254.784528 
L 244.051171 259.991664 
L 245.924754 263.797028 
L 247.798338 267.121889 
L 249.671921 269.974778 
L 251.545505 272.367652 
L 253.044372 273.960717 
L 254.543238 275.277834 
L 256.042105 276.328897 
L 257.540972 277.124675 
L 259.039839 277.676684 
L 260.538706 277.997059 
L 262.037572 278.09849 
L 263.536439 277.994079 
L 265.035306 277.697255 
L 266.908889 277.076474 
L 268.782473 276.203381 
L 270.656056 275.105033 
L 272.904357 273.527539 
L 275.527373 271.387084 
L 278.525107 268.631137 
L 282.272274 264.866939 
L 297.635659 249.04988 
L 301.008109 246.050324 
L 304.380559 243.352585 
L 307.378293 241.234233 
L 310.376026 239.393574 
L 313.37376 237.836644 
L 315.996777 236.706581 
L 318.619794 235.788878 
L 321.617527 234.990486 
L 324.615261 234.44452 
L 327.612994 234.132186 
L 330.610728 234.031967 
L 333.983178 234.143428 
L 337.730345 234.504313 
L 341.852229 235.132503 
L 346.723546 236.101623 
L 354.21788 237.855112 
L 366.208814 240.660242 
L 372.578998 241.899929 
L 378.199748 242.772893 
L 383.820499 243.419779 
L 389.441249 243.842995 
L 395.436716 244.068227 
L 402.181617 244.08591 
L 410.050667 243.87099 
L 421.292168 243.317624 
L 442.276303 242.265029 
L 453.892521 241.929769 
L 466.258172 241.804146 
L 481.996273 241.888885 
L 498.109091 242.086001 
L 498.109091 242.086001 
" style="fill:none;stroke:#00bfbf;stroke-linecap:square;stroke-width:1.5;"/>
   </g>
   <g id="line2d_33">
    <path clip-path="url(#p1fc347c1d2)" d="M 92.290909 242.231082 
L 92.665626 242.231082 
L 93.040342 242.231082 
L 93.415059 255.569247 
L 93.789776 294.333293 
L 94.539209 315.522912 
L 95.288643 326.110748 
L 96.038076 332.083563 
L 96.787509 336.224972 
L 97.536943 339.420354 
L 98.286376 341.958317 
L 99.03581 343.969187 
L 99.785243 345.545346 
L 100.534676 346.767259 
L 101.658826 348.088637 
L 102.782977 348.966266 
L 103.907127 349.544006 
L 105.405993 350.016627 
L 107.279577 350.330287 
L 108.403727 350.435087 
L 108.778444 347.656755 
L 109.902594 319.393816 
L 111.026744 294.559935 
L 112.150894 276.274386 
L 113.275044 262.93898 
L 114.024477 256.131996 
L 114.399194 254.348957 
L 114.773911 272.063801 
L 115.148628 276.155966 
L 115.523344 276.865045 
L 117.022211 276.809223 
L 117.771644 277.161404 
L 118.895795 278.084276 
L 120.019945 279.326928 
L 121.893528 281.826424 
L 122.268245 282.641294 
L 123.017678 285.285421 
L 126.390128 299.687736 
L 127.514279 303.161551 
L 128.638429 305.89717 
L 129.762579 308.020949 
L 130.886729 309.657252 
L 132.010879 310.912785 
L 133.135029 311.873987 
L 134.633896 312.813184 
L 136.132763 313.469163 
L 138.006346 314.018062 
L 140.254646 314.421241 
L 143.25238 314.710351 
L 147.74898 314.891491 
L 149.99728 314.930378 
L 150.746714 288.385272 
L 151.496147 275.023296 
L 152.24558 267.391488 
L 152.995014 262.640304 
L 153.744447 259.376722 
L 154.868597 255.749167 
L 156.367464 251.891785 
L 157.491614 249.489567 
L 158.241048 248.303232 
L 159.365198 247.044269 
L 160.864064 245.868643 
L 163.112365 244.484622 
L 166.484815 242.691401 
L 169.857265 241.125013 
L 173.229715 239.790876 
L 176.602166 238.697047 
L 179.974616 237.843016 
L 183.347066 237.220886 
L 186.719516 236.816976 
L 190.466683 236.602018 
L 194.21385 236.604785 
L 198.335734 236.820703 
L 203.207051 237.30372 
L 209.202518 238.133834 
L 220.069302 239.920614 
L 224.565903 240.649496 
L 243.301738 242.89812 
L 250.046638 243.299819 
L 257.166255 243.498733 
L 265.410023 243.491752 
L 275.527373 243.245956 
L 316.371493 242.012519 
L 331.360161 241.936964 
L 353.843163 242.07985 
L 390.565399 242.293085 
L 433.283102 242.244816 
L 497.734374 242.226173 
L 497.734374 242.226173 
" style="fill:none;stroke:#ff0000;stroke-linecap:square;stroke-width:1.5;"/>
   </g>
   <g id="line2d_34">
    <path clip-path="url(#p1fc347c1d2)" d="M 92.290909 242.231082 
L 93.415059 242.231082 
L 93.789776 232.227458 
L 94.539209 228.034861 
L 94.913926 227.385849 
L 95.288643 227.919139 
L 95.663359 229.257811 
L 96.412793 233.13145 
L 97.91166 241.22639 
L 99.03581 245.872157 
L 99.785243 248.207426 
L 100.534676 250.027125 
L 101.28411 251.427046 
L 102.033543 252.495158 
L 103.157693 253.633574 
L 104.281843 254.38074 
L 105.405993 254.86907 
L 106.90486 255.266722 
L 108.778444 255.529858 
L 109.15316 254.862309 
L 109.527877 252.388956 
L 110.277311 244.475392 
L 111.401461 232.472789 
L 112.150894 226.321372 
L 112.900327 221.711527 
L 113.649761 218.390163 
L 114.399194 216.096235 
L 114.773911 215.541794 
L 115.523344 224.349061 
L 115.898061 226.80416 
L 116.272778 228.231588 
L 116.647494 229.057258 
L 117.396928 229.875924 
L 118.521078 230.484777 
L 120.394661 231.455872 
L 122.268245 232.668075 
L 123.017678 233.463403 
L 123.767112 234.767098 
L 127.514279 242.436833 
L 128.638429 244.048152 
L 129.762579 245.313509 
L 130.886729 246.294428 
L 132.385596 247.260035 
L 133.884462 247.937317 
L 135.758046 248.505187 
L 138.006346 248.922702 
L 141.00408 249.222193 
L 145.50068 249.409865 
L 150.371997 249.476457 
L 151.496147 281.799656 
L 152.24558 297.12116 
L 153.369731 314.146238 
L 154.493881 327.050342 
L 155.618031 337.206104 
L 156.742181 345.13604 
L 157.866331 351.146271 
L 158.990481 355.718921 
L 160.114631 359.338099 
L 161.238781 362.267899 
L 162.362931 364.630271 
L 163.487081 366.483324 
L 164.611231 367.859418 
L 165.735382 368.7812 
L 166.484815 369.152915 
L 167.234248 369.336792 
L 167.983682 369.338293 
L 168.733115 369.162908 
L 169.482548 368.816222 
L 170.606699 367.987388 
L 171.730849 366.805254 
L 172.854999 365.289512 
L 174.353866 362.784064 
L 175.852732 359.768609 
L 177.351599 356.290869 
L 179.225183 351.365923 
L 181.473483 344.729264 
L 184.0965 336.178967 
L 187.094233 325.628661 
L 191.96555 307.516591 
L 199.085167 281.099593 
L 202.832334 268.123738 
L 205.830068 258.504893 
L 208.453085 250.752157 
L 211.076102 243.684919 
L 213.324402 238.206935 
L 215.572702 233.283391 
L 217.821002 228.9238 
L 219.694586 225.723037 
L 221.568169 222.912373 
L 223.441753 220.485833 
L 224.565903 219.210727 
L 241.428154 214.106814 
L 243.676454 214.995692 
L 245.924754 216.137934 
L 248.547771 217.740907 
L 251.545505 219.858528 
L 255.292672 222.813297 
L 260.913422 227.582202 
L 268.407756 233.909957 
L 272.52964 237.114859 
L 276.276807 239.754619 
L 279.649257 241.865509 
L 283.021707 243.701275 
L 286.019441 245.091813 
L 289.017175 246.252584 
L 292.014908 247.186386 
L 295.012642 247.900572 
L 298.010375 248.40634 
L 301.382825 248.744138 
L 304.755276 248.860379 
L 308.502443 248.762316 
L 312.624326 248.423367 
L 317.495643 247.781092 
L 323.491111 246.75067 
L 346.348829 242.583446 
L 352.719013 241.775816 
L 359.089197 241.202709 
L 365.459381 240.859507 
L 372.204281 240.71957 
L 380.073332 240.788373 
L 390.190682 241.117345 
L 423.915185 242.39444 
L 437.030269 242.564513 
L 453.143087 242.533477 
L 498.109091 242.171228 
L 498.109091 242.171228 
" style="fill:none;stroke:#008000;stroke-linecap:square;stroke-width:1.5;"/>
   </g>
   <g id="patch_3">
    <path d="M 72 384.48 
L 72 51.84 
" style="fill:none;stroke:#000000;stroke-linecap:square;stroke-linejoin:miter;stroke-width:0.8;"/>
   </g>
   <g id="patch_4">
    <path d="M 518.4 384.48 
L 518.4 51.84 
" style="fill:none;stroke:#000000;stroke-linecap:square;stroke-linejoin:miter;stroke-width:0.8;"/>
   </g>
   <g id="patch_5">
    <path d="M 72 384.48 
L 518.4 384.48 
" style="fill:none;stroke:#000000;stroke-linecap:square;stroke-linejoin:miter;stroke-width:0.8;"/>
   </g>
   <g id="patch_6">
    <path d="M 72 51.84 
L 518.4 51.84 
" style="fill:none;stroke:#000000;stroke-linecap:square;stroke-linejoin:miter;stroke-width:0.8;"/>
   </g>
   <g id="legend_1">
    <g id="patch_7">
     <path d="M 446.187419 119.69056 
L 511.4 119.69056 
Q 513.4 119.69056 513.4 117.69056 
L 513.4 58.84 
Q 513.4 56.84 511.4 56.84 
L 446.187419 56.84 
Q 444.187419 56.84 444.187419 58.84 
L 444.187419 117.69056 
Q 444.187419 119.69056 446.187419 119.69056 
z
" style="fill:#ffffff;opacity:0.8;stroke:#cccccc;stroke-linejoin:miter;"/>
    </g>
    <g id="line2d_35">
     <path d="M 448.187419 65.365462 
L 468.187419 65.365462 
" style="fill:none;stroke:#bf00bf;stroke-linecap:square;stroke-width:1.5;"/>
    </g>
    <g id="line2d_36"/>
    <g id="text_18">
     <!-- $\partial \mathcal{L}/ \partial u_{1}$ -->
     <g transform="translate(476.187419 68.865462)scale(0.1 -0.1)">
      <use transform="translate(0 14.943915)scale(0.996264)" xlink:href="#CMMI12-64"/>
      <use transform="translate(56.915564 14.943915)scale(0.996264)" xlink:href="#CMSY10-76"/>
      <use transform="translate(125.630372 14.943915)scale(0.996264)" xlink:href="#CMMI12-61"/>
      <use transform="translate(174.405291 14.943915)scale(0.996264)" xlink:href="#CMMI12-64"/>
      <use transform="translate(231.320856 14.943915)scale(0.996264)" xlink:href="#CMMI12-117"/>
      <use transform="translate(286.841185 0)scale(0.697382)" xlink:href="#CMR17-49"/>
     </g>
    </g>
    <g id="line2d_37">
     <path d="M 448.187419 80.328102 
L 468.187419 80.328102 
" style="fill:none;stroke:#00bfbf;stroke-linecap:square;stroke-width:1.5;"/>
    </g>
    <g id="line2d_38"/>
    <g id="text_19">
     <!-- $\partial \mathcal{L}/ \partial u_{2}$ -->
     <g transform="translate(476.187419 83.828102)scale(0.1 -0.1)">
      <use transform="translate(0 14.943915)scale(0.996264)" xlink:href="#CMMI12-64"/>
      <use transform="translate(56.915564 14.943915)scale(0.996264)" xlink:href="#CMSY10-76"/>
      <use transform="translate(125.630372 14.943915)scale(0.996264)" xlink:href="#CMMI12-61"/>
      <use transform="translate(174.405291 14.943915)scale(0.996264)" xlink:href="#CMMI12-64"/>
      <use transform="translate(231.320856 14.943915)scale(0.996264)" xlink:href="#CMMI12-117"/>
      <use transform="translate(286.841185 0)scale(0.697382)" xlink:href="#CMR17-50"/>
     </g>
    </g>
    <g id="line2d_39">
     <path d="M 448.187419 95.290742 
L 468.187419 95.290742 
" style="fill:none;stroke:#ff0000;stroke-linecap:square;stroke-width:1.5;"/>
    </g>
    <g id="line2d_40"/>
    <g id="text_20">
     <!-- $\partial \mathcal{L}/ \partial u_{3}$ -->
     <defs>
      <path d="M 22.09375 33.703125 
C 31 33.703125 34.90625 25.96875 34.90625 17.03125 
C 34.90625 5 28.5 0.390625 22.703125 0.390625 
C 17.40625 0.390625 8.796875 3.03125 6.09375 10.828125 
C 6.59375 10.625 7.09375 10.625 7.59375 10.625 
C 10 10.625 11.796875 12.21875 11.796875 14.8125 
C 11.796875 17.703125 9.59375 19 7.59375 19 
C 5.90625 19 3.296875 18.203125 3.296875 14.46875 
C 3.296875 5.234375 12.296875 -2 22.90625 -2 
C 34 -2 42.5 6.71875 42.5 16.953125 
C 42.5 26.671875 34.5 33.703125 25 34.796875 
C 32.59375 36.375 39.90625 43.0625 39.90625 52.015625 
C 39.90625 59.6875 32 65.296875 23 65.296875 
C 13.90625 65.296875 5.90625 59.828125 5.90625 52.015625 
C 5.90625 48.59375 8.5 48 9.796875 48 
C 11.90625 48 13.703125 49.296875 13.703125 51.890625 
C 13.703125 54.46875 11.90625 55.765625 9.796875 55.765625 
C 9.40625 55.765625 8.90625 55.765625 8.5 55.578125 
C 11.40625 61.859375 19.296875 63 22.796875 63 
C 26.296875 63 32.90625 61.328125 32.90625 51.875 
C 32.90625 49.109375 32.5 44.1875 29.09375 39.84375 
C 26.09375 36 22.703125 36 19.40625 35.6875 
C 18.90625 35.6875 16.59375 35.453125 16.203125 35.453125 
C 15.5 35.359375 15.09375 35.265625 15.09375 34.5 
C 15.09375 33.796875 15.203125 33.703125 17.203125 33.703125 
z
" id="CMR17-51"/>
     </defs>
     <g transform="translate(476.187419 98.790742)scale(0.1 -0.1)">
      <use transform="translate(0 14.943915)scale(0.996264)" xlink:href="#CMMI12-64"/>
      <use transform="translate(56.915564 14.943915)scale(0.996264)" xlink:href="#CMSY10-76"/>
      <use transform="translate(125.630372 14.943915)scale(0.996264)" xlink:href="#CMMI12-61"/>
      <use transform="translate(174.405291 14.943915)scale(0.996264)" xlink:href="#CMMI12-64"/>
      <use transform="translate(231.320856 14.943915)scale(0.996264)" xlink:href="#CMMI12-117"/>
      <use transform="translate(286.841185 0)scale(0.697382)" xlink:href="#CMR17-51"/>
     </g>
    </g>
    <g id="line2d_41">
     <path d="M 448.187419 110.253382 
L 468.187419 110.253382 
" style="fill:none;stroke:#008000;stroke-linecap:square;stroke-width:1.5;"/>
    </g>
    <g id="line2d_42"/>
    <g id="text_21">
     <!-- $\partial \mathcal{L}/ \partial u_{4}$ -->
     <g transform="translate(476.187419 113.753382)scale(0.1 -0.1)">
      <use transform="translate(0 14.943915)scale(0.996264)" xlink:href="#CMMI12-64"/>
      <use transform="translate(56.915564 14.943915)scale(0.996264)" xlink:href="#CMSY10-76"/>
      <use transform="translate(125.630372 14.943915)scale(0.996264)" xlink:href="#CMMI12-61"/>
      <use transform="translate(174.405291 14.943915)scale(0.996264)" xlink:href="#CMMI12-64"/>
      <use transform="translate(231.320856 14.943915)scale(0.996264)" xlink:href="#CMMI12-117"/>
      <use transform="translate(286.841185 0)scale(0.697382)" xlink:href="#CMR17-52"/>
     </g>
    </g>
   </g>
  </g>
 </g>
 <defs>
  <clipPath id="p1fc347c1d2">
   <rect height="332.64" width="446.4" x="72" y="51.84"/>
  </clipPath>
 </defs>
</svg>
