<?xml version="1.0" encoding="utf-8" standalone="no"?>
<!DOCTYPE svg PUBLIC "-//W3C//DTD SVG 1.1//EN"
  "http://www.w3.org/Graphics/SVG/1.1/DTD/svg11.dtd">
<!-- Created with matplotlib (http://matplotlib.org/) -->
<svg height="432pt" version="1.1" viewBox="0 0 576 432" width="576pt" xmlns="http://www.w3.org/2000/svg" xmlns:xlink="http://www.w3.org/1999/xlink">
 <defs>
  <style type="text/css">
*{stroke-linecap:butt;stroke-linejoin:round;}
  </style>
 </defs>
 <g id="figure_1">
  <g id="patch_1">
   <path d="M 0 432 
L 576 432 
L 576 0 
L 0 0 
z
" style="fill:#ffffff;"/>
  </g>
  <g id="axes_1">
   <g id="patch_2">
    <path d="M 72 384.48 
L 518.4 384.48 
L 518.4 51.84 
L 72 51.84 
z
" style="fill:#ffffff;"/>
   </g>
   <g id="matplotlib.axis_1">
    <g id="xtick_1">
     <g id="line2d_1">
      <path clip-path="url(#pf6405e6239)" d="M 92.290909 384.48 
L 92.290909 51.84 
" style="fill:none;stroke:#b0b0b0;stroke-dasharray:5.12,1.28,0.8,1.28;stroke-dashoffset:0;stroke-width:0.8;"/>
     </g>
     <g id="line2d_2">
      <defs>
       <path d="M 0 0 
L 0 3.5 
" id="m82b1de45fa" style="stroke:#000000;stroke-width:0.8;"/>
      </defs>
      <g>
       <use style="stroke:#000000;stroke-width:0.8;" x="92.290909" xlink:href="#m82b1de45fa" y="384.48"/>
      </g>
     </g>
     <g id="text_1">
      <text style="font-family:DejaVu Sans;font-size:10px;font-style:normal;font-weight:400;text-anchor:middle;" transform="rotate(-0, 92.290909, 399.078438)" x="92.290909" y="399.078438">0</text>
     </g>
    </g>
    <g id="xtick_2">
     <g id="line2d_3">
      <path clip-path="url(#pf6405e6239)" d="M 151.413605 384.48 
L 151.413605 51.84 
" style="fill:none;stroke:#b0b0b0;stroke-dasharray:5.12,1.28,0.8,1.28;stroke-dashoffset:0;stroke-width:0.8;"/>
     </g>
     <g id="line2d_4">
      <g>
       <use style="stroke:#000000;stroke-width:0.8;" x="151.413605" xlink:href="#m82b1de45fa" y="384.48"/>
      </g>
     </g>
     <g id="text_2">
      <text style="font-family:DejaVu Sans;font-size:10px;font-style:normal;font-weight:400;text-anchor:middle;" transform="rotate(-0, 151.413605, 399.078438)" x="151.413605" y="399.078438">500</text>
     </g>
    </g>
    <g id="xtick_3">
     <g id="line2d_5">
      <path clip-path="url(#pf6405e6239)" d="M 210.5363 384.48 
L 210.5363 51.84 
" style="fill:none;stroke:#b0b0b0;stroke-dasharray:5.12,1.28,0.8,1.28;stroke-dashoffset:0;stroke-width:0.8;"/>
     </g>
     <g id="line2d_6">
      <g>
       <use style="stroke:#000000;stroke-width:0.8;" x="210.5363" xlink:href="#m82b1de45fa" y="384.48"/>
      </g>
     </g>
     <g id="text_3">
      <text style="font-family:DejaVu Sans;font-size:10px;font-style:normal;font-weight:400;text-anchor:middle;" transform="rotate(-0, 210.5363, 399.078438)" x="210.5363" y="399.078438">1000</text>
     </g>
    </g>
    <g id="xtick_4">
     <g id="line2d_7">
      <path clip-path="url(#pf6405e6239)" d="M 269.658996 384.48 
L 269.658996 51.84 
" style="fill:none;stroke:#b0b0b0;stroke-dasharray:5.12,1.28,0.8,1.28;stroke-dashoffset:0;stroke-width:0.8;"/>
     </g>
     <g id="line2d_8">
      <g>
       <use style="stroke:#000000;stroke-width:0.8;" x="269.658996" xlink:href="#m82b1de45fa" y="384.48"/>
      </g>
     </g>
     <g id="text_4">
      <text style="font-family:DejaVu Sans;font-size:10px;font-style:normal;font-weight:400;text-anchor:middle;" transform="rotate(-0, 269.658996, 399.078438)" x="269.658996" y="399.078438">1500</text>
     </g>
    </g>
    <g id="xtick_5">
     <g id="line2d_9">
      <path clip-path="url(#pf6405e6239)" d="M 328.781691 384.48 
L 328.781691 51.84 
" style="fill:none;stroke:#b0b0b0;stroke-dasharray:5.12,1.28,0.8,1.28;stroke-dashoffset:0;stroke-width:0.8;"/>
     </g>
     <g id="line2d_10">
      <g>
       <use style="stroke:#000000;stroke-width:0.8;" x="328.781691" xlink:href="#m82b1de45fa" y="384.48"/>
      </g>
     </g>
     <g id="text_5">
      <text style="font-family:DejaVu Sans;font-size:10px;font-style:normal;font-weight:400;text-anchor:middle;" transform="rotate(-0, 328.781691, 399.078438)" x="328.781691" y="399.078438">2000</text>
     </g>
    </g>
    <g id="xtick_6">
     <g id="line2d_11">
      <path clip-path="url(#pf6405e6239)" d="M 387.904387 384.48 
L 387.904387 51.84 
" style="fill:none;stroke:#b0b0b0;stroke-dasharray:5.12,1.28,0.8,1.28;stroke-dashoffset:0;stroke-width:0.8;"/>
     </g>
     <g id="line2d_12">
      <g>
       <use style="stroke:#000000;stroke-width:0.8;" x="387.904387" xlink:href="#m82b1de45fa" y="384.48"/>
      </g>
     </g>
     <g id="text_6">
      <text style="font-family:DejaVu Sans;font-size:10px;font-style:normal;font-weight:400;text-anchor:middle;" transform="rotate(-0, 387.904387, 399.078438)" x="387.904387" y="399.078438">2500</text>
     </g>
    </g>
    <g id="xtick_7">
     <g id="line2d_13">
      <path clip-path="url(#pf6405e6239)" d="M 447.027082 384.48 
L 447.027082 51.84 
" style="fill:none;stroke:#b0b0b0;stroke-dasharray:5.12,1.28,0.8,1.28;stroke-dashoffset:0;stroke-width:0.8;"/>
     </g>
     <g id="line2d_14">
      <g>
       <use style="stroke:#000000;stroke-width:0.8;" x="447.027082" xlink:href="#m82b1de45fa" y="384.48"/>
      </g>
     </g>
     <g id="text_7">
      <text style="font-family:DejaVu Sans;font-size:10px;font-style:normal;font-weight:400;text-anchor:middle;" transform="rotate(-0, 447.027082, 399.078438)" x="447.027082" y="399.078438">3000</text>
     </g>
    </g>
    <g id="xtick_8">
     <g id="line2d_15">
      <path clip-path="url(#pf6405e6239)" d="M 506.149777 384.48 
L 506.149777 51.84 
" style="fill:none;stroke:#b0b0b0;stroke-dasharray:5.12,1.28,0.8,1.28;stroke-dashoffset:0;stroke-width:0.8;"/>
     </g>
     <g id="line2d_16">
      <g>
       <use style="stroke:#000000;stroke-width:0.8;" x="506.149777" xlink:href="#m82b1de45fa" y="384.48"/>
      </g>
     </g>
     <g id="text_8">
      <text style="font-family:DejaVu Sans;font-size:10px;font-style:normal;font-weight:400;text-anchor:middle;" transform="rotate(-0, 506.149777, 399.078438)" x="506.149777" y="399.078438">3500</text>
     </g>
    </g>
    <g id="text_9">
     <text style="font-family:DejaVu Sans;font-size:14px;font-style:normal;font-weight:400;text-anchor:middle;" transform="rotate(-0, 295.2, 415.795938)" x="295.2" y="415.795938">Iteration</text>
    </g>
   </g>
   <g id="matplotlib.axis_2">
    <g id="ytick_1">
     <g id="line2d_17">
      <path clip-path="url(#pf6405e6239)" d="M 72 364.063243 
L 518.4 364.063243 
" style="fill:none;stroke:#b0b0b0;stroke-dasharray:5.12,1.28,0.8,1.28;stroke-dashoffset:0;stroke-width:0.8;"/>
     </g>
     <g id="line2d_18">
      <defs>
       <path d="M 0 0 
L -3.5 0 
" id="me24fb0cae3" style="stroke:#000000;stroke-width:0.8;"/>
      </defs>
      <g>
       <use style="stroke:#000000;stroke-width:0.8;" x="72" xlink:href="#me24fb0cae3" y="364.063243"/>
      </g>
     </g>
     <g id="text_10">
      <text style="font-family:DejaVu Sans;font-size:10px;font-style:normal;font-weight:400;text-anchor:end;" transform="rotate(-0, 65, 367.862462)" x="65" y="367.862462">0</text>
     </g>
    </g>
    <g id="ytick_2">
     <g id="line2d_19">
      <path clip-path="url(#pf6405e6239)" d="M 72 304.642595 
L 518.4 304.642595 
" style="fill:none;stroke:#b0b0b0;stroke-dasharray:5.12,1.28,0.8,1.28;stroke-dashoffset:0;stroke-width:0.8;"/>
     </g>
     <g id="line2d_20">
      <g>
       <use style="stroke:#000000;stroke-width:0.8;" x="72" xlink:href="#me24fb0cae3" y="304.642595"/>
      </g>
     </g>
     <g id="text_11">
      <text style="font-family:DejaVu Sans;font-size:10px;font-style:normal;font-weight:400;text-anchor:end;" transform="rotate(-0, 65, 308.441813)" x="65" y="308.441813">5</text>
     </g>
    </g>
    <g id="ytick_3">
     <g id="line2d_21">
      <path clip-path="url(#pf6405e6239)" d="M 72 245.221946 
L 518.4 245.221946 
" style="fill:none;stroke:#b0b0b0;stroke-dasharray:5.12,1.28,0.8,1.28;stroke-dashoffset:0;stroke-width:0.8;"/>
     </g>
     <g id="line2d_22">
      <g>
       <use style="stroke:#000000;stroke-width:0.8;" x="72" xlink:href="#me24fb0cae3" y="245.221946"/>
      </g>
     </g>
     <g id="text_12">
      <text style="font-family:DejaVu Sans;font-size:10px;font-style:normal;font-weight:400;text-anchor:end;" transform="rotate(-0, 65, 249.021165)" x="65" y="249.021165">10</text>
     </g>
    </g>
    <g id="ytick_4">
     <g id="line2d_23">
      <path clip-path="url(#pf6405e6239)" d="M 72 185.801297 
L 518.4 185.801297 
" style="fill:none;stroke:#b0b0b0;stroke-dasharray:5.12,1.28,0.8,1.28;stroke-dashoffset:0;stroke-width:0.8;"/>
     </g>
     <g id="line2d_24">
      <g>
       <use style="stroke:#000000;stroke-width:0.8;" x="72" xlink:href="#me24fb0cae3" y="185.801297"/>
      </g>
     </g>
     <g id="text_13">
      <text style="font-family:DejaVu Sans;font-size:10px;font-style:normal;font-weight:400;text-anchor:end;" transform="rotate(-0, 65, 189.600516)" x="65" y="189.600516">15</text>
     </g>
    </g>
    <g id="ytick_5">
     <g id="line2d_25">
      <path clip-path="url(#pf6405e6239)" d="M 72 126.380649 
L 518.4 126.380649 
" style="fill:none;stroke:#b0b0b0;stroke-dasharray:5.12,1.28,0.8,1.28;stroke-dashoffset:0;stroke-width:0.8;"/>
     </g>
     <g id="line2d_26">
      <g>
       <use style="stroke:#000000;stroke-width:0.8;" x="72" xlink:href="#me24fb0cae3" y="126.380649"/>
      </g>
     </g>
     <g id="text_14">
      <text style="font-family:DejaVu Sans;font-size:10px;font-style:normal;font-weight:400;text-anchor:end;" transform="rotate(-0, 65, 130.179867)" x="65" y="130.179867">20</text>
     </g>
    </g>
    <g id="ytick_6">
     <g id="line2d_27">
      <path clip-path="url(#pf6405e6239)" d="M 72 66.96 
L 518.4 66.96 
" style="fill:none;stroke:#b0b0b0;stroke-dasharray:5.12,1.28,0.8,1.28;stroke-dashoffset:0;stroke-width:0.8;"/>
     </g>
     <g id="line2d_28">
      <g>
       <use style="stroke:#000000;stroke-width:0.8;" x="72" xlink:href="#me24fb0cae3" y="66.96"/>
      </g>
     </g>
     <g id="text_15">
      <text style="font-family:DejaVu Sans;font-size:10px;font-style:normal;font-weight:400;text-anchor:end;" transform="rotate(-0, 65, 70.759219)" x="65" y="70.759219">25</text>
     </g>
    </g>
    <g id="text_16">
     <text style="font-family:DejaVu Sans;font-size:14px;font-style:normal;font-weight:400;text-anchor:middle;" transform="rotate(-90, 44.974063, 218.16)" x="44.974063" y="218.16">\partial \mathcal{L}/ \partial p^\mathrm{S}_{m}</text>
    </g>
   </g>
   <g id="line2d_29">
    <path clip-path="url(#pf6405e6239)" d="M 92.290909 364.063243 
L 93.000381 364.170201 
L 93.946345 364.280723 
L 97.257216 364.51484 
L 99.97686 365.145888 
L 105.416147 366.494736 
L 105.534393 366.406794 
L 105.889129 366.64923 
L 107.071583 366.857202 
L 112.629116 367.584511 
L 128.94698 369.281565 
L 130.838907 369.301768 
L 134.622759 368.600604 
L 136.159949 367.982629 
L 137.815385 367.087754 
L 140.535029 365.320584 
L 142.190464 364.273592 
L 145.856071 364.539797 
L 152.241322 364.571884 
L 152.714304 364.309245 
L 153.423776 364.349651 
L 156.261666 364.558812 
L 164.302352 364.772726 
L 170.687603 364.792929 
L 174.826192 364.643189 
L 177.427591 364.595652 
L 218.931723 364.48513 
L 224.725747 364.317564 
L 254.168849 363.540342 
L 262.919008 363.473791 
L 272.023903 363.583125 
L 285.149142 364.001446 
L 498.109091 364.063243 
L 498.109091 364.063243 
" style="fill:none;stroke:#bf00bf;stroke-linecap:square;stroke-width:1.5;"/>
   </g>
   <g id="line2d_30">
    <path clip-path="url(#pf6405e6239)" d="M 92.290909 364.063243 
L 92.409154 316.526724 
L 92.645645 352.252795 
L 92.882136 361.226502 
L 93.118627 363.486863 
L 93.355118 364.06562 
L 93.709854 364.248636 
L 94.774062 364.286665 
L 97.375461 364.385303 
L 99.622123 364.876118 
L 105.297902 366.268938 
L 105.534393 364.747769 
L 105.770884 365.898153 
L 106.12562 366.248735 
L 106.953338 366.507809 
L 109.081755 366.869086 
L 114.402797 367.507264 
L 127.291545 368.694489 
L 132.376097 368.901273 
L 134.031532 368.713503 
L 135.568722 368.321327 
L 137.105912 367.705729 
L 138.879593 366.75381 
L 142.781691 364.506521 
L 145.028353 364.481565 
L 159.099555 364.592087 
L 172.343039 364.747769 
L 185.350032 364.596841 
L 224.725747 364.50771 
L 224.962238 364.321129 
L 225.316974 364.186838 
L 228.036618 364.240317 
L 232.529943 364.13336 
L 245.063954 363.738807 
L 262.091291 363.505878 
L 272.733376 363.615212 
L 282.429498 364.003823 
L 283.730197 363.99075 
L 292.835092 363.971736 
L 498.109091 364.063243 
L 498.109091 364.063243 
" style="fill:none;stroke:#00bfbf;stroke-linecap:square;stroke-width:1.5;"/>
   </g>
   <g id="line2d_31">
    <path clip-path="url(#pf6405e6239)" d="M 92.290909 364.063243 
L 92.763891 364.119099 
L 93.236872 364.278346 
L 94.655817 364.284288 
L 97.730197 364.394811 
L 100.449841 365.021104 
L 105.416147 366.232097 
L 105.534393 366.115633 
L 105.889129 366.279634 
L 110.264209 367.005754 
L 119.014367 367.951731 
L 126.463827 368.518604 
L 133.085569 368.753909 
L 134.741004 368.499589 
L 136.39644 367.99689 
L 138.170121 367.188769 
L 140.416783 365.876762 
L 142.663446 364.564754 
L 143.8459 364.480376 
L 147.747997 364.473246 
L 152.596058 364.570696 
L 153.305531 364.607537 
L 157.68061 364.542174 
L 175.535664 364.617044 
L 178.018818 364.573073 
L 224.607502 364.510087 
L 224.843992 364.38055 
L 225.198729 364.337767 
L 225.789955 364.372231 
L 230.638017 364.189215 
L 244.590973 363.738807 
L 253.695868 363.574806 
L 269.304259 363.526081 
L 274.743547 363.742372 
L 281.247044 364.027591 
L 288.460013 363.99075 
L 304.18665 363.943214 
L 324.524857 364.053736 
L 334.575715 364.044229 
L 498.109091 364.063243 
L 498.109091 364.063243 
" style="fill:none;stroke:#ff0000;stroke-linecap:square;stroke-width:1.5;"/>
   </g>
   <g id="line2d_32">
    <path clip-path="url(#pf6405e6239)" d="M 92.290909 364.063243 
L 92.409154 66.96 
L 92.645645 289.861114 
L 92.882136 345.628581 
L 93.118627 359.58768 
L 93.355118 363.091122 
L 93.591608 363.976489 
L 93.828099 364.202288 
L 94.419326 364.281911 
L 97.730197 364.449478 
L 100.449841 365.081713 
L 106.953338 366.601693 
L 112.156135 367.326625 
L 119.369104 368.086021 
L 122.443484 368.36411 
L 122.561729 367.609468 
L 122.679975 364.063243 
L 497.8726 364.063243 
L 497.8726 364.063243 
" style="fill:none;stroke:#008000;stroke-linecap:square;stroke-width:1.5;"/>
   </g>
   <g id="patch_3">
    <path d="M 72 384.48 
L 72 51.84 
" style="fill:none;stroke:#000000;stroke-linecap:square;stroke-linejoin:miter;stroke-width:0.8;"/>
   </g>
   <g id="patch_4">
    <path d="M 518.4 384.48 
L 518.4 51.84 
" style="fill:none;stroke:#000000;stroke-linecap:square;stroke-linejoin:miter;stroke-width:0.8;"/>
   </g>
   <g id="patch_5">
    <path d="M 72 384.48 
L 518.4 384.48 
" style="fill:none;stroke:#000000;stroke-linecap:square;stroke-linejoin:miter;stroke-width:0.8;"/>
   </g>
   <g id="patch_6">
    <path d="M 72 51.84 
L 518.4 51.84 
" style="fill:none;stroke:#000000;stroke-linecap:square;stroke-linejoin:miter;stroke-width:0.8;"/>
   </g>
   <g id="text_17">
    <text style="font-family:DejaVu Sans;font-size:14px;font-style:normal;font-weight:400;text-anchor:middle;" transform="rotate(-0, 295.2, 45.84)" x="295.2" y="45.84">\partial \mathcal{L}/ \partial p^\mathrm{S}_{m}</text>
   </g>
   <g id="legend_1">
    <g id="patch_7">
     <path d="M 231.94375 379.48 
L 511.4 379.48 
Q 513.4 379.48 513.4 377.48 
L 513.4 318.655 
Q 513.4 316.655 511.4 316.655 
L 231.94375 316.655 
Q 229.94375 316.655 229.94375 318.655 
L 229.94375 377.48 
Q 229.94375 379.48 231.94375 379.48 
z
" style="fill:#ffffff;opacity:0.8;stroke:#cccccc;stroke-linejoin:miter;"/>
    </g>
    <g id="line2d_33">
     <path d="M 233.94375 324.753438 
L 253.94375 324.753438 
" style="fill:none;stroke:#bf00bf;stroke-linecap:square;stroke-width:1.5;"/>
    </g>
    <g id="line2d_34"/>
    <g id="text_18">
     <text style="font-family:DejaVu Sans;font-size:10px;font-style:normal;font-weight:400;text-anchor:start;" transform="rotate(-0, 261.94375, 328.253438)" x="261.94375" y="328.253438">\partial \mathcal{L}/ \partial p^\mathrm{S}_{1}</text>
    </g>
    <g id="line2d_35">
     <path d="M 233.94375 339.709687 
L 253.94375 339.709687 
" style="fill:none;stroke:#00bfbf;stroke-linecap:square;stroke-width:1.5;"/>
    </g>
    <g id="line2d_36"/>
    <g id="text_19">
     <text style="font-family:DejaVu Sans;font-size:10px;font-style:normal;font-weight:400;text-anchor:start;" transform="rotate(-0, 261.94375, 343.209687)" x="261.94375" y="343.209687">\partial \mathcal{L}/ \partial p^\mathrm{S}_{2}</text>
    </g>
    <g id="line2d_37">
     <path d="M 233.94375 354.665938 
L 253.94375 354.665938 
" style="fill:none;stroke:#ff0000;stroke-linecap:square;stroke-width:1.5;"/>
    </g>
    <g id="line2d_38"/>
    <g id="text_20">
     <text style="font-family:DejaVu Sans;font-size:10px;font-style:normal;font-weight:400;text-anchor:start;" transform="rotate(-0, 261.94375, 358.165938)" x="261.94375" y="358.165938">\partial \mathcal{L}/ \partial p^\mathrm{S}_{3}</text>
    </g>
    <g id="line2d_39">
     <path d="M 233.94375 369.622187 
L 253.94375 369.622187 
" style="fill:none;stroke:#008000;stroke-linecap:square;stroke-width:1.5;"/>
    </g>
    <g id="line2d_40"/>
    <g id="text_21">
     <text style="font-family:DejaVu Sans;font-size:10px;font-style:normal;font-weight:400;text-anchor:start;" transform="rotate(-0, 261.94375, 373.122187)" x="261.94375" y="373.122187">\partial \mathcal{L}/ \partial p^\mathrm{S}_{4}</text>
    </g>
   </g>
  </g>
 </g>
 <defs>
  <clipPath id="pf6405e6239">
   <rect height="332.64" width="446.4" x="72" y="51.84"/>
  </clipPath>
 </defs>
</svg>
