<?xml version="1.0" encoding="utf-8" standalone="no"?>
<!DOCTYPE svg PUBLIC "-//W3C//DTD SVG 1.1//EN"
  "http://www.w3.org/Graphics/SVG/1.1/DTD/svg11.dtd">
<!-- Created with matplotlib (http://matplotlib.org/) -->
<svg height="432pt" version="1.1" viewBox="0 0 576 432" width="576pt" xmlns="http://www.w3.org/2000/svg" xmlns:xlink="http://www.w3.org/1999/xlink">
 <defs>
  <style type="text/css">
*{stroke-linecap:butt;stroke-linejoin:round;}
  </style>
 </defs>
 <g id="figure_1">
  <g id="patch_1">
   <path d="
M0 432
L576 432
L576 0
L0 0
z
" style="fill:#ffffff;"/>
  </g>
  <g id="axes_1">
   <g id="patch_2">
    <path d="
M72 388.8
L518.4 388.8
L518.4 43.2
L72 43.2
z
" style="fill:#ffffff;"/>
   </g>
   <g id="line2d_1">
    <path clip-path="url(#p7ff5b81e1d)" d="
M105.521 240.686
L124.172 240.686
L133.001 240.686
L133.227 249.326
L133.622 254.348
L133.869 254.223
L134.009 247.09
L134.254 248.029
L134.387 242.664
L134.543 243.754
L134.816 243.961
L135.006 244.368
L135.112 239.222
L135.233 239.631
L135.458 241.446
L135.653 245.867
L135.793 245.149
L136.165 241.686
L136.339 245.817
L136.693 233.05
L136.835 240.364
L137.105 236.797
L137.252 241.635
L137.508 238.431
L137.699 239.924
L138.841 239.463
L139.134 239.385
L139.365 229.14
L139.58 231.631
L139.79 244.666
L140.126 233.643
L140.443 234.822
L140.683 231.647
L140.857 232.532
L140.913 229.943
L141.624 238.226
L141.825 238.048
L142.112 238.005
L142.18 232.968
L142.341 233.146
L142.554 227.455
L142.742 229.933
L142.795 233.763
L143.231 229.596
L143.507 241.409
L143.802 234.161
L143.963 234.956
L144.188 225.72
L144.452 234.083
L144.622 239.462
L145.123 229.708
L145.292 234.582
L145.417 234.112
L145.833 229.089
L146.06 230.274
L146.328 229.45
L146.607 240.096
L146.812 239.717
L146.925 239.226
L147.482 239.268
L147.62 239.235
L147.876 237.872
L148.001 237.869
L148.254 238.881
L148.603 238.558
L148.709 239.519
L149.24 266.899
L149.848 279.357
L150.008 281.009
L150.46 283.808
L150.818 278.27
L150.878 274.931
L151.147 275.287
L151.243 273.7
L151.319 277.293
L151.455 278.442
L151.675 281.519
L152.007 287.648
L152.138 284.013
L152.28 286.538
L152.448 285.806
L152.634 282.281
L153.411 273.723
L153.795 273.536
L153.958 267.057
L154.198 265.436
L154.361 266.655
L154.628 264.797
L154.739 253.573
L154.913 248.227
L155.79 247.997
L155.859 244.921
L156.141 244.829
L156.321 230.186
L156.606 230.167
L156.877 231.885
L157.15 231.708
L157.437 217.967
L157.819 217.958
L157.98 209.001
L158.624 208.678
L158.809 188.706
L159.09 188.626
L159.136 186.764
L159.299 188.111
L159.532 184.952
L159.658 181.076
L159.79 181.393
L160.09 168.332
L160.269 166.306
L160.638 159.467
L160.827 160.421
L161.194 150.831
L161.432 147.894
L161.776 147.894
L162.049 141.038
L162.546 141.038
L162.714 138.757
L162.868 135.069
L162.973 139.026
L163.127 139.008
L163.208 138.659
L163.402 138.822
L163.613 138.653
L163.84 131.692
L164.007 130.142
L164.218 122.616
L164.366 124.921
L164.597 123.83
L164.873 123.83
L164.968 117.334
L165.093 118.309
L165.278 123.473
L165.324 117.071
L165.487 114.687
L166.018 116.36
L166.206 116.323
L166.272 115.146
L166.468 115.146
L166.631 114.787
L166.801 115.063
L167.002 113.005
L167.297 111.074
L167.511 111.074
L168.268 107.478
L168.451 107.74
L168.64 106.483
L168.916 105.503
L169.26 104.785
L169.657 104.244
L169.829 104.48
L170.486 102.245
L170.835 101.902
L171.174 101.795
L171.347 103.502
L171.612 102.155
L171.875 102.085
L172.004 97.0758
L172.328 97.1291
L172.475 100.125
L172.624 97.2943
L172.787 109.883
L173.055 109.702
L173.127 102.102
L173.288 99.5874
L173.507 92.388
L173.665 93.3174
L173.818 96.414
L174.038 97.2219
L174.363 97.153
L174.528 97.3827
L174.701 96.5946
L174.803 100.675
L175.06 96.1662
L175.161 96.3549
L175.384 95.717
L175.684 93.6248
L175.915 93.6248
L176.072 92.8707
L176.548 91.6332
L176.822 91.2886
L176.963 90.8544
L177.002 87.2488
L177.224 92.1724
L177.434 90.8099
L177.633 88.0131
L177.706 89.4778
L177.907 91.101
L178.108 91.6968
L178.318 91.692
L178.41 92.8248
L178.594 97.4734
L178.996 101.682
L179.181 103.698
L179.425 103.771
L180.737 122.085
L181.212 131.346
L181.644 137.245
L181.983 143.257
L182.182 143.358
L182.492 146.425
L182.548 149.539
L182.746 152.743
L182.789 156.02
L183.033 159.428
L183.222 159.529
L183.827 170.452
L184.115 174.184
L184.449 180.622
L184.659 184.414
L184.892 184.475
L185.497 192.709
L185.532 196.394
L185.865 204.708
L186.227 214.488
L186.831 230.958
L187.104 238.926
L187.376 246.428
L187.824 246.468
L187.967 250.147
L188.123 258.429
L188.289 258.445
L188.475 260.765
L188.712 267.943
L189.009 271.662
L189.25 282.417
L189.367 285.867
L189.528 285.882
L189.957 289.081
L190.232 289.072
L191.165 307.677
L191.503 311.736
L191.759 316.605
L192.083 321.148
L192.366 320.601
L192.481 323.221
L192.709 324.565
L192.82 326.253
L192.985 326.219
L193.981 335.221
L194.364 335.16
L194.735 337.641
L195.099 341.458
L195.493 342.991
L195.706 344.529
L195.906 344.86
L196.236 344.772
L196.276 345.16
L196.645 343.844
L196.748 342.594
L196.943 343.023
L197.015 342.495
L197.376 342.247
L198.055 338.077
L198.588 333.222
L199.66 321.654
L200.665 312.626
L201.089 305.378
L201.987 293.361
L202.198 293.285
L202.374 290.719
L202.44 288.091
L202.845 282.662
L203.134 282.592
L203.537 279.918
L203.95 272.756
L204.137 271.046
L204.469 265.126
L204.859 245.359
L205.121 243.022
L205.325 242.281
L205.38 239.868
L205.703 239.073
L205.887 239.88
L206.291 236.598
L206.514 236.768
L206.628 236.574
L206.777 235.976
L206.908 236.554
L207.116 234.767
L207.374 234.726
L207.553 235.668
L208.154 225.207
L208.548 221.555
L209.062 221.555
L209.246 217.419
L209.426 216.716
L209.728 212.226
L210.253 208.072
L210.416 207.653
L210.75 204.459
L211.23 204.459
L211.399 203.181
L211.559 200.609
L211.81 200.626
L212.262 197.204
L212.5 196.326
L212.832 194.463
L213.147 193.369
L213.665 190.374
L213.827 189.967
L214.029 189.999
L214.197 189.594
L214.387 189.9
L214.645 189.106
L214.96 188.626
L215.345 188.36
L215.401 187.706
L215.629 187.773
L215.741 188.209
L216.019 188.514
L216.143 188.249
L216.308 188.579
L216.534 188.722
L216.812 189.195
L217.108 190.285
L217.314 190.331
L217.564 190.87
L217.816 192.93
L218.449 196.208
L219.118 199.708
L221.295 216.92
L221.479 216.956
L222.144 222.248
L222.594 226.466
L222.813 226.497
L223.402 230.725
L223.798 232.158
L223.971 233.575
L224.025 235.301
L224.333 237.405
L224.821 241.058
L225.104 241.074
L225.473 242.356
L225.66 243.716
L225.962 243.73
L226.252 246.805
L226.581 248.17
L226.84 249.662
L227.012 251.543
L227.22 252.215
L227.507 253.772
L227.58 255.34
L227.97 255.333
L228.213 256.026
L228.678 259.136
L228.864 259.428
L229.151 262.478
L230.451 269.867
L231.334 272.184
L231.512 272.17
L231.715 272.679
L231.774 273.168
L231.967 273.149
L232.494 274.833
L233.43 276.863
L234.018 277.413
L234.373 277.366
L234.545 277.082
L234.862 276.901
L235.04 277.035
L235.114 276.872
L235.618 276.84
L235.726 276.627
L235.787 276.695
L236.134 276.524
L236.432 275.54
L236.498 274.879
L236.732 274.195
L236.798 273.538
L237 273.133
L237.346 271.942
L237.604 271.279
L237.663 270.419
L239.773 260.62
L240.087 258.714
L240.273 258.687
L242.245 247.202
L242.455 245.276
L242.998 242.453
L243.694 239.569
L244.493 239.568
L244.72 238.309
L244.853 237.119
L245.24 236.415
L245.424 234.913
L245.481 233.452
L245.752 232.562
L245.815 231.715
L245.998 231.71
L246.199 230.876
L246.413 229.136
L246.587 228.65
L246.943 227.005
L247.449 225.071
L247.727 223.837
L248.807 220.634
L249.017 220.188
L249.233 220.197
L249.689 219.223
L250.578 217.313
L251.073 216.636
L251.726 216.14
L252.011 215.894
L252.29 215.914
L252.613 215.348
L252.911 215.334
L253.486 215.581
L253.602 216.1
L253.992 216.681
L254.195 217.052
L255.914 217.186
L256.041 218.129
L256.364 219.802
L256.537 220.535
L256.834 221.211
L257.008 221.232
L257.19 222.552
L257.93 225.723
L258.719 228.792
L258.951 229.405
L259.214 230.64
L260.767 236.325
L261.08 236.337
L261.278 236.958
L261.481 238.105
L261.772 239.286
L262.122 239.778
L262.268 240.676
L262.665 240.684
L262.821 241.546
L263.778 243.773
L264.155 244.153
L264.506 246.144
L265.03 247.923
L265.674 249.903
L266.385 251.674
L266.631 251.672
L267.078 252.463
L267.355 252.936
L267.541 254.133
L267.698 254.335
L268.495 256.238
L268.648 256.499
L268.75 256.406
L269.1 256.531
L270.165 257.062
L270.675 257.112
L271.029 257.218
L271.125 257.456
L271.517 257.418
L271.741 257.574
L272.535 257.562
L272.756 257.235
L273.364 257.226
L273.665 256.184
L274.247 254.841
L275.027 253.369
L275.193 253.355
L276.413 251.031
L276.533 250.673
L276.704 250.662
L277.045 250.122
L277.223 249.299
L277.762 248.027
L277.948 248.016
L278.164 247.588
L278.219 247.164
L278.398 246.757
L278.518 246.171
L278.761 246.162
L279.48 244.277
L279.663 243.354
L280.728 240.574
L281.729 240.566
L282.108 240.107
L282.223 238.462
L282.575 237.729
L282.768 237.597
L283.061 237.593
L283.378 236.831
L283.635 236.829
L283.785 236.297
L284.146 235.818
L284.254 235.81
L284.328 235.022
L284.711 234.296
L285.898 234.303
L286.011 234.024
L286.251 232.875
L286.491 232.793
L286.521 232.47
L286.781 232.474
L287.039 232.23
L287.139 231.663
L288.131 230.415
L288.539 230.257
L288.679 230.088
L288.84 230.093
L288.918 229.971
L289.457 229.72
L289.618 229.512
L289.668 229.217
L290.228 229.141
L290.427 229.034
L290.883 229.022
L291.046 228.855
L291.504 229.199
L291.778 229.238
L292.435 229.542
L292.867 229.529
L293.206 229.651
L293.9 229.706
L294.52 230.753
L294.781 231.376
L295.994 232.997
L297.012 234.871
L297.327 235.732
L297.969 236.892
L298.339 237.483
L298.742 238.304
L299.101 238.782
L299.609 240.04
L300.744 242.102
L301.317 242.101
L301.686 242.853
L301.998 243.63
L302.168 243.84
L302.351 244.27
L303.516 245.532
L304.033 245.532
L304.28 245.728
L304.558 245.727
L304.828 246.178
L304.885 246.721
L305.096 246.933
L305.29 247.282
L305.573 247.514
L306.156 247.588
L306.559 247.824
L307.811 248.234
L308.098 248.284
L309.424 248.254
L310.184 247.891
L311.386 246.708
L312.09 245.921
L312.291 245.915
L312.553 245.592
L313.027 244.904
L314.291 244.042
L314.841 243.935
L315.005 243.841
L315.404 243.745
L315.748 243.457
L316.284 242.202
L316.992 240.955
L317.246 240.515
L317.744 239.894
L318.162 239.31
L318.61 238.759
L320.215 237.163
L321.083 237.167
L321.301 236.9
L321.578 236.393
L321.855 236.107
L323.749 235.353
L326.423 235.313
L327.921 235.421
L328.563 235.897
L328.912 235.971
L329.564 236.385
L331.886 238.639
L332.146 238.642
L333.572 239.958
L334.049 240.521
L334.744 241.319
L335.73 241.925
L337.838 243.563
L338.199 243.772
L338.617 243.834
L340.229 244.363
L341.278 244.37
L342.387 244.164
L343.487 243.814
L344.105 243.495
L345.201 243.413
L346.194 242.965
L349.37 240.56
L349.81 240.282
L350.18 240.022
L353.579 238.477
L354.74 238.182
L357.471 238.092
L358.321 238.183
L358.807 238.37
L361.275 239.085
L361.622 239.339
L362.634 239.703
L364.499 240.5
L368.875 241.892
L371.696 242.42
L373.655 242.38
L381.627 241.86
L381.78 241.653
L387.464 239.916
L388.257 239.812
L388.639 239.714
L391.563 239.404
L393.195 239.397
L395.579 239.554
L398.517 239.878
L398.826 239.937
L407.309 241.405
L408.722 241.502
L411.715 241.58
L413.194 241.542
L419.129 240.931
L420.19 240.785
L421.672 240.679
L423.319 240.488
L431.689 240.102
L436.56 240.247
L443.33 240.689
L445.385 240.805
L455.352 241.073
L467.953 240.475
L473.575 240.455
L475.534 240.505
L475.534 240.505" style="fill:none;stroke:#bf00bf;stroke-linecap:square;"/>
   </g>
   <g id="line2d_2">
    <path clip-path="url(#p7ff5b81e1d)" d="
M108.45 240.686
L127.231 240.686
L133.077 240.686
L133.46 217.904
L133.672 214.671
L133.953 204.314
L134.043 215.799
L134.23 205.291
L134.378 213.203
L134.843 207.584
L135.067 198.202
L135.177 204.999
L135.291 204.918
L135.399 203.186
L135.602 206.228
L135.748 198.105
L135.937 194.554
L136.124 195.466
L136.294 204.58
L136.784 184.965
L137.008 189.01
L137.123 201.276
L137.379 188.625
L137.482 195.153
L137.643 195.016
L137.862 193.768
L138.137 194.113
L138.511 194.06
L139.054 193.79
L139.292 183.62
L139.42 194.181
L139.643 195.522
L139.724 187.894
L139.886 185.515
L140.286 195.076
L140.529 187.947
L140.543 193.371
L140.759 188.104
L141.062 195.511
L141.175 192.568
L141.442 196.901
L141.716 191.014
L141.954 191.654
L142.13 183.304
L142.247 191.35
L142.497 188.025
L143.09 205.591
L143.64 178.657
L143.785 179.984
L144.138 192.413
L144.149 206.403
L144.367 202.659
L144.466 186.566
L144.705 181.012
L144.994 202.7
L145.108 194.555
L145.356 189.782
L145.536 189.724
L145.797 196.269
L145.913 196.369
L146.021 194.38
L146.177 194.291
L146.275 208.536
L146.546 192.15
L146.633 191.672
L146.728 193.74
L147.073 194.931
L147.454 195.245
L147.54 193.046
L147.799 194.481
L147.945 196.253
L148.289 193.764
L148.432 193.801
L148.635 193.568
L148.81 192.43
L148.891 184.054
L149.186 180.215
L149.326 180.626
L150.143 188.288
L150.305 185.413
L150.733 196.078
L150.849 206.666
L151.083 205.831
L151.232 211.571
L151.347 204.669
L151.47 204.184
L151.605 202.335
L151.74 202.164
L152.047 185.683
L152.238 199.43
L152.385 192.42
L152.588 188.346
L152.749 194.486
L153.048 197.924
L153.897 198.89
L153.924 214.104
L154.054 220.082
L154.344 213.507
L154.523 197.159
L154.753 217.993
L155.682 226.246
L156.052 225.917
L156.064 226.067
L156.127 244.584
L156.662 247.313
L156.671 241.329
L157.114 227.932
L157.262 248.737
L157.715 230.007
L158.534 242.787
L158.612 262.171
L158.771 265.406
L158.945 258.796
L159.219 266.204
L159.489 255.297
L159.633 254.018
L159.756 265.644
L159.897 249.345
L160.242 271.932
L160.382 270.107
L160.503 272.249
L160.664 283.97
L160.905 269.057
L161.059 283.212
L161.274 283.233
L161.615 275.245
L162.392 284.715
L162.407 284.517
L162.511 282.747
L162.743 282.523
L162.904 290.647
L163.159 280.07
L163.35 278.056
L163.551 262.813
L163.787 283.193
L164.033 271.757
L164.2 296.086
L164.563 286.88
L164.851 275.724
L165.071 302.72
L165.264 276.719
L165.636 297.875
L165.778 294.424
L165.97 293.002
L166.093 293.485
L166.217 290.421
L166.59 294.277
L166.736 292.068
L166.95 292.93
L167.603 296.726
L167.905 297.597
L168.039 299.915
L168.24 298.822
L168.417 296.643
L168.805 298.299
L169.396 299.039
L169.52 299.16
L169.681 300.438
L169.818 298.408
L169.99 298.536
L170.585 299.912
L171.065 300.038
L171.272 300.045
L171.428 293.044
L171.694 296.147
L171.95 283.564
L172.153 301.371
L172.41 282.308
L172.576 319.188
L172.973 271.887
L172.99 285.608
L173.144 303.259
L173.306 292.148
L173.446 292.968
L173.615 295.152
L173.739 301.114
L173.913 294.598
L174.116 291.71
L174.321 292.699
L174.482 289.817
L174.726 303.626
L174.814 288.014
L175.123 298.831
L175.456 294.587
L175.856 294.257
L175.948 293.889
L176.227 293.462
L176.313 294.554
L176.862 294.18
L176.903 285.149
L177.066 305.049
L177.256 284.724
L177.506 280.123
L177.601 287.955
L177.853 287.404
L178.151 279.888
L178.347 281.857
L178.512 291.636
L178.734 280.176
L178.925 279.547
L179.132 276.473
L179.406 274.374
L179.678 270.436
L180.989 255.587
L182.32 240.399
L183.168 233.019
L183.546 228.323
L183.763 226.05
L183.913 222.748
L184.249 218.594
L184.462 218.647
L184.839 214.296
L184.996 214.339
L185.174 210.85
L185.291 212.43
L185.456 211.486
L185.656 212.701
L185.812 211.605
L185.955 204.385
L186.158 203.334
L186.784 195.352
L187.127 192.174
L187.341 190.6
L187.761 189.355
L187.814 188.063
L188.071 188.755
L188.245 182.772
L188.491 186.416
L188.658 183.284
L188.993 181.109
L189.304 180.128
L189.317 179.044
L190.154 177.826
L190.167 177.01
L190.179 177.729
L190.369 177.908
L190.631 176.554
L190.79 180.82
L190.948 174.501
L191.111 174.459
L191.481 175.701
L191.709 175.726
L191.848 175.004
L192.022 175.09
L192.198 171.021
L192.356 179.002
L192.676 176.108
L192.836 177.628
L193.005 177.954
L193.276 178.923
L193.685 179.536
L193.93 181.452
L194.416 181.62
L194.634 186.07
L194.704 182.815
L194.967 183.303
L195.127 185.466
L195.36 186.06
L195.55 190.537
L195.84 188.921
L196.207 190.56
L196.221 192.225
L196.428 193.884
L196.607 193.038
L196.718 200.113
L196.892 199.146
L197.103 202.254
L197.335 199.485
L197.575 204.75
L197.961 206.312
L198.094 206.074
L198.365 208.013
L198.42 210.075
L199.753 223.07
L199.895 226.814
L200.372 230.945
L200.619 231.129
L200.708 232.1
L200.86 232.27
L201.035 233.422
L201.371 239.067
L202.73 250.39
L203.528 252.204
L203.579 258.156
L203.849 257.21
L204.069 260.552
L204.407 258.181
L204.59 261.986
L204.818 273.575
L205.018 275.182
L205.31 271.107
L205.858 273.113
L205.871 272.958
L206.018 271.287
L206.163 271.028
L206.358 270.434
L206.643 267.75
L206.855 269.726
L206.965 265.445
L207.224 268.343
L207.357 268.404
L207.566 267.721
L207.706 266.407
L207.911 268.679
L208.463 270.93
L208.902 271.363
L209.012 269.713
L209.206 273.727
L209.377 271.063
L209.675 272.076
L209.844 271.765
L210.202 272.496
L210.381 274.227
L210.533 270.951
L210.702 273.127
L211.112 272.865
L211.269 270.859
L211.43 274.225
L211.721 272.07
L211.839 272.831
L212.05 272.129
L212.217 273.585
L212.458 273.32
L212.592 273.395
L212.958 272.45
L213.017 272.566
L213.241 272.842
L213.581 270.776
L213.777 271.178
L213.968 270.661
L214.086 272.316
L214.23 269.752
L214.361 270.083
L214.915 268.473
L215.15 267.917
L215.245 265.367
L215.562 266.505
L215.876 264.998
L216.07 262.17
L216.238 263.026
L216.513 261.009
L216.761 260.421
L216.883 260.453
L217.259 258.657
L217.419 259.221
L217.524 257.16
L217.897 254.96
L218.015 253.99
L218.276 253.059
L218.335 252.152
L218.748 250.382
L218.937 248.643
L219.323 246.92
L220.053 242.734
L220.577 240.047
L220.836 239.178
L220.852 238.32
L221.248 236.543
L221.431 235.789
L221.761 234.963
L221.867 234.132
L222.221 232.672
L223.111 228.925
L223.348 228.195
L223.902 227.073
L224.055 224.948
L224.228 225.349
L224.481 225.305
L224.774 224.141
L225.341 224.211
L225.44 223.902
L225.802 224.049
L226.206 220.724
L226.521 221.491
L226.8 222.914
L226.973 220.109
L227.337 221.646
L228.08 219.38
L228.092 220.987
L228.299 219.628
L228.472 219.762
L228.612 218.637
L228.817 221.548
L229.046 218.693
L229.211 218.951
L229.411 218.621
L229.576 218.566
L229.66 217.956
L230.008 217.998
L230.598 217.933
L230.831 218.196
L231.018 218.13
L231.472 218.464
L231.73 218.614
L231.902 219.337
L232.023 219.265
L232.219 219.295
L233.129 220.58
L233.289 221.085
L233.768 221.767
L234.005 222.379
L234.753 224.245
L234.912 226.027
L235.065 225.76
L235.561 226.153
L235.593 227.791
L235.918 228.46
L236.246 227.741
L236.568 228.807
L236.945 231.518
L237.424 232.952
L237.59 232.702
L237.81 233.512
L238.205 236.372
L238.596 237.395
L239.515 240.881
L239.874 241.87
L240.649 245.158
L241.8 249.009
L242.234 249.898
L242.687 251.245
L243.048 252.06
L243.271 252.019
L243.511 253.172
L244.709 253.616
L244.904 254.029
L245.186 253.543
L245.227 251.221
L245.396 252.295
L245.577 254.256
L245.946 254.781
L246.17 254.872
L246.362 255.136
L246.503 256.291
L246.705 255.174
L246.899 256.478
L247.09 256.042
L247.361 256.287
L247.682 256.352
L248.434 256.5
L248.954 256.488
L249.191 255.424
L249.437 256.656
L249.659 255.992
L249.812 256.054
L250.523 255.625
L251.324 254.784
L251.413 254.68
L251.559 254.107
L251.968 253.705
L252.305 253.045
L252.431 252.21
L252.532 252.432
L252.68 251.753
L253.24 251.798
L253.252 252.204
L253.449 250.957
L253.63 250.735
L253.787 250.205
L254.029 248.957
L255.076 246.208
L255.545 245.357
L255.858 245.757
L255.995 247.578
L256.223 247.491
L256.471 245.907
L256.994 244.509
L257.227 243.004
L257.531 242.489
L257.652 242.201
L258.002 240.808
L258.518 239.472
L259.139 237.881
L260.178 235.753
L260.288 235.428
L260.702 234.798
L260.946 234.498
L261.24 234.385
L261.434 233.377
L261.574 233.713
L261.926 233.264
L262.104 233.787
L262.569 233.186
L262.718 232.274
L263.127 231.914
L263.724 231.903
L263.846 231.724
L264.135 231.659
L264.28 233.544
L264.745 230.868
L264.882 231.706
L265.137 230.675
L265.436 230.344
L265.61 230.403
L266.221 230.154
L266.31 230.166
L266.594 230.012
L267.332 230.618
L267.526 229.658
L267.904 230.551
L268.44 231.394
L268.576 231.249
L268.689 230.125
L269.051 230.945
L269.745 231.603
L270.823 232.422
L271.078 233.199
L271.348 232.743
L271.471 233.636
L271.656 233.227
L271.98 233.86
L272.37 233.708
L272.597 234.973
L273.12 235.891
L273.434 235.058
L273.58 234.886
L274.508 237.239
L275.841 239.47
L276.225 240.023
L276.667 241.056
L277.182 241.186
L277.453 241.899
L278.15 242.764
L278.306 242.927
L278.454 242.894
L279.605 244.953
L280.06 245.463
L280.396 245.834
L281.811 246.009
L282.06 246.236
L282.151 247.055
L282.208 246.76
L282.512 246.583
L282.982 247.387
L282.994 246.768
L283.106 246.854
L283.52 246.644
L283.937 247.594
L284.061 247.592
L284.213 246.111
L284.609 247.67
L285.807 247.525
L285.84 247.104
L285.854 247.417
L286.165 247.526
L286.178 247.829
L286.378 247.259
L286.733 247.313
L286.869 246.598
L287.082 247.103
L287.2 246.99
L287.547 248.027
L287.881 247.758
L288.472 247.602
L288.483 247.357
L288.694 247.062
L288.87 247.097
L289.289 246.949
L289.472 246.857
L289.649 246.53
L289.996 246.849
L290.185 246.62
L290.31 246.141
L290.6 246.283
L290.723 245.701
L290.905 246.343
L290.987 246.283
L291.191 245.609
L291.452 245.42
L291.715 245.474
L291.949 245.289
L292.094 244.658
L292.259 245
L292.425 244.297
L292.808 244.576
L292.937 243.956
L293.149 243.709
L293.587 243.475
L293.704 243.274
L293.772 243.398
L294.091 243.412
L294.338 243.798
L294.84 242.632
L295.101 242.364
L295.464 241.397
L295.603 241.413
L295.905 241.107
L296.591 240.337
L296.774 240.005
L297.146 239.674
L297.553 238.994
L298.199 238.39
L298.384 238.249
L298.518 237.84
L298.943 237.92
L299.529 237.204
L300.463 236.635
L300.618 236.71
L301.268 236.246
L301.37 236.546
L301.491 236.185
L301.845 236.565
L301.932 236.087
L302.191 236.471
L302.437 236.037
L302.613 235.976
L302.739 235.71
L303.194 236.083
L303.43 235.766
L304.116 235.862
L304.162 236.143
L304.597 235.634
L304.612 236.047
L304.858 235.698
L305.083 236.031
L305.216 236.154
L305.379 236.004
L305.453 235.786
L305.759 235.9
L306 236.24
L307.163 236.522
L307.274 236.594
L307.488 236.981
L307.645 236.722
L307.861 237.007
L308.334 237.107
L308.461 237.464
L308.616 237.307
L309.053 237.59
L309.653 237.906
L309.804 238.028
L309.96 238.383
L310.242 238.446
L310.461 238.562
L310.63 238.709
L310.817 239.06
L311.076 239.216
L314.133 241.755
L315.454 242.053
L315.648 241.877
L315.763 241.545
L315.935 241.628
L316.03 241.964
L316.182 241.913
L316.425 242.523
L316.9 242.94
L316.981 243.063
L319.229 244.12
L319.375 244.153
L319.603 243.995
L319.841 244.322
L319.893 244.203
L320.067 244.113
L321.111 244.193
L321.142 244.017
L321.156 244.15
L321.478 244.335
L321.602 243.968
L321.82 244.214
L322.783 243.807
L322.984 244.065
L323.183 243.802
L323.263 243.966
L323.505 243.655
L323.664 243.858
L323.836 243.562
L324.879 243.35
L324.972 243.098
L325.149 243.263
L325.57 243.208
L326.787 243.015
L326.821 242.445
L327.057 242.401
L327.313 242.524
L327.503 242.48
L327.716 242.152
L328.042 242.25
L331.832 240.007
L333.7 239.128
L334.575 238.743
L334.842 238.653
L335.15 238.702
L335.195 238.471
L335.466 238.577
L336.268 238.38
L336.848 238.31
L337.003 238.348
L337.248 238.223
L337.567 238.338
L339.79 238.586
L342.498 239.476
L343.47 239.843
L343.601 239.97
L345.993 240.583
L346.264 240.668
L348.234 241.524
L351.187 242.283
L353.233 242.292
L355.763 241.898
L357.422 241.424
L357.619 241.435
L357.928 241.328
L358.356 241.705
L359.433 241.101
L360.867 240.77
L361.219 240.87
L362.17 240.405
L365.676 239.824
L365.808 239.704
L366.248 239.727
L366.989 239.667
L367.383 239.626
L367.48 239.586
L368.009 239.686
L368.491 239.595
L368.696 239.634
L369.287 239.6
L371.267 239.71
L371.741 239.769
L372.939 239.879
L374.293 240.117
L375.345 240.305
L376.033 240.232
L376.702 240.473
L378.291 240.655
L379.294 240.706
L379.311 240.724
L380.328 240.649
L380.341 240.686
L382.368 240.763
L382.549 240.784
L383.083 241.106
L383.613 241.087
L383.744 241.211
L385.066 241.364
L387.178 241.546
L390.87 241.502
L391.45 241.445
L391.76 241.411
L394.129 241.206
L403.882 240.189
L407.262 240.119
L411.911 240.324
L412.556 240.319
L412.775 240.205
L412.921 240.33
L421.165 240.936
L421.635 240.957
L431.742 240.951
L432.829 240.873
L433.688 240.872
L440.836 240.59
L450.217 240.477
L451.924 240.522
L452.969 240.516
L455.09 240.577
L455.829 240.585
L466.57 240.843
L472.274 240.782
L475.135 240.715
L475.135 240.715" style="fill:none;stroke:#00bfbf;stroke-linecap:square;"/>
   </g>
   <g id="line2d_3">
    <path clip-path="url(#p7ff5b81e1d)" d="
M108.572 240.686
L131.291 240.686
L132.948 240.686
L133.177 249.326
L133.578 271.51
L133.964 276.454
L134.209 268.274
L134.337 259.88
L134.953 270.334
L134.967 263.491
L135.19 271.149
L135.304 264.102
L135.487 265.81
L135.499 277.305
L135.703 266.006
L135.956 275.54
L136.109 274.373
L136.674 274.212
L136.718 286.667
L136.802 274.823
L137.02 274.249
L137.199 266.102
L137.431 288.449
L137.548 279.894
L137.771 281.037
L138.681 281.011
L139.181 281.087
L139.307 271.089
L139.537 270.807
L139.549 266.196
L139.838 269.048
L140.814 268.612
L140.848 267.233
L141.077 262.262
L141.32 283.46
L141.56 274.798
L141.783 277.148
L142.099 266.964
L142.159 272.64
L142.39 278.536
L142.619 256.994
L144.052 259.521
L144.114 244.357
L144.244 251.246
L144.408 251.78
L144.634 258.975
L144.844 257.805
L145.044 254.04
L145.24 247.647
L145.55 253.353
L145.976 244.86
L146.137 245.136
L146.191 299.584
L146.391 267.026
L146.561 274.436
L146.765 276.981
L146.781 276.521
L147.348 276.146
L147.438 267.396
L147.811 280.509
L147.891 276.191
L148.022 275.191
L148.267 276.303
L148.56 276.337
L148.779 276.447
L148.834 276.237
L149.198 270.552
L149.964 258.485
L150.134 256.928
L150.714 243.536
L151.096 239.008
L151.26 248.677
L151.36 247.37
L151.484 245.327
L151.724 248.353
L152.08 250.294
L152.095 256.186
L152.297 240.677
L152.397 251.117
L152.528 250.595
L153.093 246.92
L153.687 250.194
L153.823 245.379
L154.071 245.446
L154.289 231.565
L154.563 245.116
L154.682 257.899
L154.9 242.789
L155.716 245.982
L155.76 243.334
L155.871 246.07
L156.251 248.321
L156.383 240.117
L156.617 238.824
L156.827 246.591
L156.936 257.424
L157.382 243.016
L158.452 235.64
L158.6 259.944
L158.865 263.316
L159.238 257.1
L159.337 271.34
L159.521 269.449
L159.74 259.975
L159.872 264.127
L160.009 286.326
L160.139 270.36
L160.224 271.36
L160.398 275.725
L160.583 275.344
L160.785 275.598
L160.998 289.468
L161.148 278.861
L162.805 282.768
L162.858 243.332
L162.959 245.244
L163.261 248.459
L163.42 268.845
L163.682 318.793
L163.914 293.01
L164.142 281.824
L164.542 269.247
L164.61 297.209
L164.887 285.517
L165.041 266.651
L165.241 278.018
L165.336 311.215
L165.546 295.095
L165.86 298.45
L166.123 284.01
L166.175 290.891
L166.338 296.663
L166.528 289.826
L166.816 290.256
L166.862 290.761
L167.627 291.337
L167.718 291.511
L167.847 296.226
L168.02 290.067
L168.146 290.576
L168.399 292.992
L168.501 292.67
L168.653 292.623
L169.15 293.105
L169.246 293.22
L169.409 298.088
L169.595 292.097
L169.78 292.635
L169.926 293.453
L170.73 294.182
L170.898 294.265
L171.097 280.835
L171.444 292.867
L171.521 289.261
L171.889 300.768
L171.92 282.889
L172.422 278.837
L172.436 269.423
L172.515 271.166
L172.61 267.541
L173.017 299.929
L173.043 277.48
L173.205 260.468
L173.273 265.333
L173.43 316.118
L173.547 294.103
L173.771 286.273
L173.807 293.689
L174.088 280.837
L174.336 289.126
L174.548 289.003
L174.76 287.936
L174.901 297.189
L175.137 277.849
L175.24 278.061
L175.373 277.872
L175.873 276.064
L175.976 281.787
L176.255 277.59
L176.92 275.096
L176.937 274.173
L176.951 257.429
L177.169 264.765
L177.416 280.342
L177.811 258.432
L178.281 281.595
L178.381 271.946
L178.542 268.273
L178.658 273.164
L178.799 268.812
L179.389 265.584
L179.589 263
L180.344 258.766
L180.436 261.043
L180.727 256.491
L180.966 256.156
L181.201 253.857
L182.115 250.269
L182.465 249.469
L182.478 248.859
L182.732 250.466
L183.353 246.014
L183.533 245.174
L184.065 245.992
L184.535 243.339
L184.859 243.098
L184.912 246.364
L185.161 242.674
L185.4 246.78
L185.472 242.534
L185.629 240.09
L185.784 235.729
L185.927 239.188
L186.059 237.441
L186.294 237.179
L186.588 235.507
L186.767 237.15
L186.985 234.034
L187.144 233.986
L187.33 233.47
L187.913 232.902
L187.94 236.693
L188.217 232.442
L188.353 233.358
L188.506 229.882
L188.581 232.181
L188.951 231.498
L189.335 228.445
L189.721 228.347
L190.016 233.516
L190.095 237.101
L190.523 233.389
L190.766 229.741
L191.003 225.121
L191.136 225.472
L191.327 225.421
L191.515 223.614
L191.885 224.671
L192.001 224.39
L192.396 224.423
L192.468 219.165
L192.696 224.114
L192.723 224.024
L192.872 224.256
L193.245 224.355
L193.406 224.577
L193.701 230.542
L193.911 227.679
L194.331 226.302
L194.523 230.572
L194.614 225.294
L194.996 227.635
L195.213 225.33
L195.824 230.027
L195.964 222.596
L196.105 230.095
L196.45 226.115
L196.634 227.11
L196.735 233.898
L196.916 225.338
L197.08 230.026
L197.239 225.165
L197.494 231.445
L197.973 219.547
L198.145 224.506
L198.493 226.426
L198.528 227.691
L198.806 228.631
L198.852 229.61
L199.25 231.419
L199.813 231.932
L199.945 236.555
L200.059 234.963
L200.245 230.743
L200.303 233.186
L200.634 234.942
L201.017 235.639
L201.23 236.743
L201.637 235.154
L202.397 238.68
L202.789 239.877
L203.036 240.371
L203.324 239.973
L203.516 239.984
L203.907 238.3
L204.119 239.493
L204.198 241.263
L204.336 239.413
L204.433 242.503
L204.6 240.505
L205.095 245.592
L205.295 250.086
L205.713 248.457
L205.722 243.737
L205.993 242.211
L206.245 246.354
L206.422 246.181
L206.581 248.38
L206.81 246.703
L206.98 250.542
L207.105 247.611
L207.483 247.341
L207.684 247.078
L207.886 247.054
L208.049 247.634
L208.503 248.334
L209.047 248.602
L209.092 244.644
L209.389 246.385
L209.456 249.453
L209.549 248.25
L209.776 249.282
L209.915 249.113
L210.139 249.288
L210.367 249.667
L210.546 251.35
L210.664 249.168
L211.413 249.42
L211.448 246.148
L211.485 246.712
L211.754 244.561
L211.882 250.719
L212.065 251.596
L212.204 249.977
L212.358 249.894
L212.578 246.48
L212.687 247.984
L213.089 249.856
L213.208 245.271
L213.348 246.818
L213.461 250.377
L213.732 248.557
L213.981 249.56
L214.114 249.1
L214.245 250.291
L214.418 249.145
L214.882 248.666
L215.319 248.527
L215.496 249.873
L215.7 249.861
L216.092 249.093
L216.133 245.935
L216.255 246.92
L216.471 247.084
L216.626 249.251
L216.69 247.906
L216.864 246.916
L217.163 246.611
L217.48 246.564
L217.551 246.97
L217.648 246.639
L218.056 246.007
L218.676 244.964
L218.951 244.729
L219.152 244.275
L219.299 244.808
L219.895 243.092
L220.212 242.59
L220.528 242.118
L221.194 241.571
L221.318 241.69
L221.573 241.63
L221.719 241.08
L222.001 240.952
L222.174 241.122
L222.515 240.122
L223.274 239.146
L223.89 240.006
L224.114 239.401
L224.243 240.043
L224.294 239.31
L224.498 238.67
L224.618 238.729
L224.761 238.284
L225.893 237.64
L226.053 239.429
L226.167 238.856
L226.319 240.423
L226.508 238.193
L226.812 236.329
L226.959 236.783
L227.477 237.694
L227.495 239.19
L228.179 236.753
L228.244 238.837
L228.577 236.619
L228.72 237.038
L228.92 234.718
L229.068 236.367
L229.564 233.168
L229.715 234.149
L230.107 234.467
L230.333 234.525
L230.463 234.29
L230.584 234.683
L230.77 233.904
L230.987 234.275
L231.359 234.423
L231.622 236.734
L231.702 235.658
L231.868 235.243
L232.153 235.376
L232.532 235.384
L232.882 235.421
L233.14 236.153
L233.263 235.833
L233.45 235.697
L233.567 235.044
L234.056 235.7
L234.299 235.778
L234.961 235.864
L235.014 235.743
L235.579 238.214
L235.68 237.312
L235.74 238.999
L236.081 232.987
L236.444 235.325
L236.889 236.685
L237.049 236.432
L237.185 236.964
L237.652 237.594
L237.759 238.416
L237.927 238.005
L238.097 238.019
L238.228 237.673
L238.506 238.487
L239.342 239.279
L239.491 239.031
L240.519 240.471
L241.01 240.926
L241.127 241.08
L241.524 241.376
L241.686 241.518
L241.88 241.371
L242.222 241.681
L242.699 242.131
L244.597 242.385
L244.685 240.898
L244.697 241.759
L244.976 240.5
L245.411 244.56
L245.87 243.238
L246.154 243.697
L246.343 244.128
L246.531 244.186
L246.736 245.319
L246.885 244.395
L247.077 244.837
L247.35 244.741
L247.481 244.363
L248.447 244.513
L248.673 244.976
L248.936 244.766
L249.176 244.771
L249.45 244.238
L249.618 244.987
L249.798 244.595
L249.938 244.937
L250.407 244.555
L250.777 244.251
L250.904 244.243
L251.204 244.718
L251.334 243.174
L251.547 243.695
L251.814 243.995
L251.956 242.34
L252.329 243.118
L252.462 241.902
L252.662 245.084
L252.774 244.263
L252.965 243.803
L253.319 243.667
L253.335 242.586
L253.498 243.138
L255.501 244.141
L255.671 243.833
L255.883 250.974
L256.139 244.93
L256.24 244.206
L256.606 243.332
L256.822 242.389
L257.131 242.604
L257.76 241.759
L257.864 241.948
L258.161 241.604
L259.43 240.638
L259.915 240.514
L260.43 240.293
L260.676 240.075
L261.039 239.977
L261.254 240.331
L261.331 240.062
L261.418 240.845
L261.725 239.999
L263.588 239.856
L263.604 239.114
L263.604 239.114
L263.604 239.114
L263.712 240.462
L263.898 240.733
L264.093 239.658
L264.242 237.872
L264.615 239.065
L264.781 238.741
L264.979 237.579
L265 238.222
L265.533 237.955
L265.92 237.973
L266.176 238.284
L266.281 238.134
L266.437 238.135
L266.889 239.123
L267.203 238.608
L267.311 239.647
L267.714 240.209
L267.889 240.33
L268.18 240.319
L268.422 239.02
L268.521 233.927
L268.807 237.842
L269.031 237.822
L269.252 237.548
L269.584 237.918
L271.101 238.193
L271.481 239.703
L271.758 237.927
L271.909 237.738
L272.092 238.094
L273.039 238.603
L273.071 239.645
L273.382 238.366
L273.516 237.604
L273.755 238.257
L274.287 238.932
L276.351 239.986
L276.508 240.168
L276.613 239.941
L276.815 240.111
L277.06 239.972
L277.073 240.267
L277.328 240.16
L277.576 240.377
L278.316 240.332
L278.469 240.762
L278.728 240.577
L279.393 240.977
L280.023 240.952
L280.379 240.98
L281.857 240.97
L281.895 241.104
L282.076 240.79
L282.138 241.116
L282.279 242.12
L282.757 241.586
L282.826 242.232
L283.556 241.395
L283.586 241.598
L283.586 241.598
L283.586 241.598
L283.618 241.211
L284.194 241.729
L284.274 242.963
L284.666 242.068
L285.713 242.082
L285.885 241.328
L286.712 240.444
L287.072 241.451
L287.28 242.874
L287.367 244.838
L287.512 243.912
L287.924 243.17
L288.057 243.047
L288.448 242.984
L288.496 242.145
L288.665 242.738
L289.129 242.584
L289.528 242.331
L289.981 241.562
L290.286 243.706
L290.59 242.943
L290.743 242.066
L290.952 242.256
L291.235 242.015
L291.432 242.398
L291.669 243.146
L291.803 242.75
L292.035 243.042
L292.927 241.971
L293.644 241.614
L293.684 241.327
L293.736 241.836
L293.837 241.665
L293.862 241.176
L294.035 242.595
L294.194 242.859
L294.396 242.351
L294.43 242.782
L294.729 242.126
L295.317 241.841
L295.483 241.263
L295.706 241.698
L296.491 241.208
L296.61 241.246
L297.287 240.889
L297.688 240.737
L298.294 240.706
L298.453 240.364
L298.568 240.659
L298.689 240.504
L298.9 240.415
L299.056 240.194
L299.148 240.328
L300.259 240.032
L300.73 240.058
L301.353 240.563
L301.629 240.07
L301.945 239.852
L302.728 239.464
L302.881 240.329
L303.096 239.034
L303.222 239.053
L303.468 239.49
L304.014 239.456
L304.627 240.071
L304.704 239.769
L304.814 240.227
L305.007 240.198
L305.042 239.596
L305.227 239.535
L305.392 238.773
L305.526 239.245
L305.743 239.425
L306.038 239.267
L306.518 239.39
L306.62 238.872
L306.766 239.208
L306.905 239.218
L307.048 239.344
L307.559 239.449
L307.729 239.696
L308.041 239.548
L308.631 239.616
L308.693 239.789
L308.965 239.554
L309.2 239.387
L309.564 239.668
L310.1 239.799
L310.214 239.494
L310.496 239.827
L310.76 239.905
L310.869 239.562
L311.167 239.93
L311.76 240.147
L313.232 240.474
L315.14 240.612
L315.153 240.649
L315.153 240.649
L315.153 240.649
L315.173 240.594
L315.434 240.61
L315.513 240.122
L315.683 240.059
L315.952 240.677
L316.056 240.652
L316.234 240.955
L316.346 240.821
L316.715 241.054
L318.985 241.404
L319.696 241.447
L319.871 241.16
L320.086 241.416
L320.922 241.379
L321.074 240.92
L321.669 241.686
L321.968 241.474
L322.595 241.507
L322.77 241.189
L322.903 241.658
L323.076 241.362
L323.304 241.951
L323.421 241.651
L323.563 241.594
L323.698 241.398
L324.055 241.525
L324.421 241.468
L325.005 241.459
L325.021 241.072
L325.236 241.144
L325.252 241.656
L325.456 241.816
L325.552 241.57
L327.099 241.525
L327.144 240.815
L327.158 241.207
L327.9 241.327
L327.912 241.609
L327.938 241.374
L328.434 241.308
L328.618 241.851
L328.861 241.495
L329.223 241.304
L329.249 241.428
L329.628 241.279
L330.039 241.037
L330.522 240.927
L332.438 240.616
L335.058 240.312
L335.305 240.45
L335.477 240.303
L336.139 240.285
L336.494 240.216
L336.898 240.409
L336.915 240.147
L337.662 240.182
L338.441 240.133
L338.564 240.347
L339.188 240.065
L339.67 240.122
L341.376 240.217
L341.556 240.076
L341.82 240.201
L345.921 240.59
L346.17 240.36
L347.451 240.681
L351.46 241.029
L351.575 240.888
L351.689 240.965
L351.841 240.869
L351.976 240.979
L352.441 240.985
L352.784 241.099
L353.38 241.071
L356.587 240.815
L356.861 240.788
L357.433 241.119
L357.808 240.911
L358.938 240.947
L359.124 240.816
L359.347 241.074
L360.668 240.957
L360.773 240.754
L360.904 241.06
L361.24 240.835
L362.018 240.728
L363.471 240.632
L367.343 240.509
L367.353 240.597
L367.717 240.574
L368.021 240.396
L368.033 240.451
L368.51 240.435
L368.984 240.31
L369.443 240.384
L371.879 240.361
L372.029 240.306
L372.653 240.409
L375.457 240.46
L375.638 240.073
L375.938 240.413
L378.315 240.483
L379.199 240.236
L380.061 240.561
L382.309 240.642
L382.842 240.636
L383.289 240.667
L385.568 240.828
L387.518 240.858
L387.901 240.828
L388.248 240.858
L396.593 240.785
L406.379 240.566
L410.909 240.605
L410.921 240.645
L411.747 240.604
L429.865 240.74
L429.882 240.713
L432.93 240.77
L433.044 240.707
L435.884 240.741
L451.895 240.636
L452.039 240.4
L452.323 240.586
L452.789 240.59
L453.705 240.674
L454.335 240.639
L454.491 240.488
L456.519 240.634
L473.612 240.714
L475.887 240.7
L475.887 240.7" style="fill:none;stroke:#ff0000;stroke-linecap:square;"/>
   </g>
   <g id="line2d_4">
    <path clip-path="url(#p7ff5b81e1d)" d="
M105.742 240.686
L124.411 240.686
L133.059 240.686
L133.5 229.919
L133.691 227.752
L133.895 218.047
L134.193 226.18
L134.313 220.048
L134.417 227.225
L134.852 227.503
L134.862 229.684
L134.862 229.684
L134.862 229.684
L134.939 222.908
L135.318 233.059
L135.614 230.753
L135.734 233.193
L135.908 231.383
L136.063 232.47
L136.267 242.265
L136.524 235.767
L136.752 224.914
L136.918 235.681
L137.132 236.308
L137.296 234.552
L137.392 235.294
L137.526 239.626
L137.812 238.229
L138.253 237.882
L138.665 237.994
L139.038 238.208
L139.278 228.179
L139.629 236.853
L139.737 237.014
L139.906 242.875
L140.158 229.839
L140.463 226.307
L140.617 233.761
L140.771 229.771
L141.039 238.579
L141.16 237.9
L141.425 242.696
L141.653 238.208
L141.836 228.359
L141.943 235.322
L142.192 228.878
L142.308 234.507
L142.463 229.976
L142.695 237.605
L143.076 241.799
L143.107 239.28
L143.727 231.276
L143.739 229.451
L143.749 230.171
L144.1 231.756
L144.173 243.796
L144.229 239.478
L144.325 238.574
L144.718 228.579
L144.919 234.562
L145.09 234.505
L145.278 231.298
L145.561 235.183
L145.808 232.743
L145.901 234.411
L146.287 234.303
L146.348 247.832
L146.528 244.284
L146.74 236.472
L147.272 234.718
L147.525 234.753
L147.668 232.697
L147.822 233.113
L148.039 236.491
L148.134 236.396
L148.228 236.018
L148.42 236.138
L149.031 236.577
L149.313 234.923
L150.12 229.683
L150.34 229.108
L150.633 224.505
L150.807 226.18
L151 226.391
L151.303 229.281
L151.498 231.288
L152.123 226.395
L152.374 232.783
L152.539 230.069
L153.059 231.605
L153.068 232.299
L153.068 232.299
L153.068 232.299
L153.144 229.983
L153.564 230.452
L154.062 231.907
L154.079 235.465
L154.577 234.323
L154.586 238.626
L154.699 234.382
L155.102 235.94
L155.171 231.814
L155.728 230.332
L155.737 237.007
L155.747 231.207
L155.964 230.218
L156.645 235.667
L157.458 240.315
L157.598 251.818
L158.114 227.749
L158.355 227.144
L158.499 227.348
L158.733 229.118
L158.847 235.543
L159.08 239.351
L159.249 239.762
L159.352 238.996
L159.611 242.251
L159.777 239.883
L159.97 239.819
L160.127 245.368
L160.412 242.936
L160.594 243.565
L160.948 243.797
L161.137 247.285
L161.284 246.122
L161.537 235.901
L162.036 232.665
L162.42 232.455
L162.524 234.671
L162.765 235.898
L163.026 251.618
L163.143 249.883
L163.286 243.361
L163.515 242.315
L163.726 235.29
L163.95 252.858
L164.102 254.225
L164.288 251.493
L164.505 239.469
L164.899 242.252
L165.017 250.806
L165.194 246.022
L165.368 246.528
L165.451 255.085
L165.618 254.713
L165.99 254.934
L166.19 240.345
L166.61 253.071
L166.962 252.193
L167.254 251.863
L167.316 251.77
L167.496 251.737
L167.698 239.087
L167.92 250.856
L168.101 253.521
L168.371 252.481
L168.522 252.739
L168.992 252.594
L169.183 239.516
L169.546 251.613
L169.73 254.368
L169.747 253.827
L170.046 253.339
L170.806 253.179
L170.96 253.2
L171.186 249.848
L171.319 250.094
L171.504 251.634
L171.671 251.529
L171.785 239.367
L172.089 249.991
L172.346 250.226
L172.489 239.594
L172.591 245.281
L172.864 245.292
L173.003 245.606
L173.104 259.674
L173.383 245.455
L173.523 243.384
L173.601 255.33
L173.724 255.248
L173.858 252.995
L174.028 253.627
L174.164 250.64
L174.289 250.813
L174.464 250.432
L174.615 253.241
L174.849 245.288
L175.191 266.589
L175.596 274.026
L175.751 276.568
L176.014 279.039
L176.362 285.96
L176.524 279.716
L176.885 276.219
L176.989 274.007
L177.391 281.01
L177.522 274.74
L177.74 281.417
L177.784 297.733
L178.018 294.16
L178.44 302.278
L178.904 310.327
L179.761 318.328
L180.058 320.219
L180.27 316.257
L180.638 320.604
L181.351 323.484
L181.841 324.152
L182.007 321.55
L182.537 321.315
L182.636 321.168
L183.095 321.548
L183.644 320.438
L184.227 315.777
L184.473 314.17
L184.819 312.76
L185.076 309.725
L185.486 309.617
L185.638 310.469
L185.774 310.125
L186.208 306.262
L186.356 304.281
L186.521 304.115
L186.667 303.204
L186.897 302.482
L187.278 297.71
L187.492 296.006
L187.802 296.174
L187.926 295.222
L188.195 290.418
L188.443 288.732
L188.699 284.899
L188.855 280.475
L189.198 280.07
L189.348 278.806
L189.616 274.795
L189.947 275.821
L190.323 270.909
L190.508 271.173
L190.621 268.006
L191.016 262.865
L191.078 260.101
L191.983 248.358
L192.14 246.151
L192.288 248.041
L193.085 234.262
L193.391 230.246
L193.55 228.311
L193.751 227.864
L193.967 229.746
L194.531 227.534
L194.648 225.392
L194.684 227.074
L194.781 225.546
L194.956 226.863
L195.14 220.593
L195.335 218.824
L195.469 220.768
L196.089 216.497
L196.193 213.519
L196.464 212.608
L196.586 210.621
L196.78 212.324
L196.866 210.213
L197.091 210.031
L197.32 203.101
L197.549 202.693
L198.122 198.631
L198.132 195.189
L198.54 193.145
L198.556 191.582
L198.556 191.582
L198.556 191.582
L198.62 193.555
L198.71 192.055
L199.131 189.869
L199.348 187.699
L199.765 189.348
L199.778 191.031
L200.073 189.994
L200.517 187.268
L200.99 186.746
L201.16 186.693
L201.384 186.876
L201.612 186.732
L201.8 186.38
L202.168 186.303
L202.972 187.435
L203.16 187.991
L204.932 196.873
L205.231 196.93
L205.367 198.992
L205.693 201.609
L205.844 201.424
L205.967 204.011
L206.118 204.774
L206.338 205.059
L207.338 214.228
L207.804 216.671
L208.206 218.333
L208.372 217.485
L208.757 219.362
L208.85 220.814
L209.078 220.109
L209.264 222.661
L209.562 225.168
L209.975 229.651
L210.219 228.626
L210.65 233.879
L210.96 234.904
L211.166 233.788
L211.361 233.419
L211.644 236.3
L212.48 243.16
L212.673 243.421
L212.89 244.186
L213.062 243.152
L213.475 245.932
L214.099 250.776
L214.375 251.811
L214.597 254.104
L215.16 256.776
L215.272 255.654
L215.854 259.44
L216.055 258.352
L216.484 260.606
L216.674 259.65
L217.004 261.782
L217.216 264.654
L217.769 266.264
L218.07 267.291
L218.916 269.133
L219.266 269.45
L219.547 269.947
L219.91 270.098
L220.17 270.089
L220.619 269.81
L220.81 269.653
L221.173 268.767
L221.412 268.219
L222.533 266.092
L223.077 265.059
L223.256 264.638
L223.726 264.14
L223.956 263.686
L224.071 262.889
L224.795 260.868
L225.203 260.435
L225.35 260.606
L225.717 260.313
L225.832 259.819
L225.973 258.485
L226.191 257.988
L226.272 257.014
L226.401 256.896
L226.874 257.061
L226.944 255.078
L227.14 255.482
L227.362 254.412
L227.626 254.511
L228.011 253.552
L228.103 253.633
L228.203 253.429
L228.431 251.746
L228.551 252.053
L228.803 249.367
L228.961 249.241
L229.251 247.865
L229.696 245.109
L229.972 243.375
L230.2 244.136
L230.571 240.925
L231.686 236.757
L232.697 233.742
L233.207 231.473
L234.432 227.368
L234.848 228.591
L235.053 227.848
L235.539 227.175
L235.549 227.789
L235.705 228.3
L235.839 228.139
L236.52 223.625
L236.634 223.089
L236.919 223.712
L237.085 223.227
L237.104 222.815
L237.469 221.971
L237.674 222.53
L238.08 222.013
L238.482 221.686
L238.937 220.529
L239.086 220.43
L239.963 220.537
L240.452 220.919
L241.093 221.762
L241.348 222.307
L241.596 222.435
L241.867 223.431
L242.891 225.828
L243.124 225.809
L243.348 226.076
L243.527 226.465
L244.438 226.901
L244.56 228.233
L245.048 230.006
L245.197 229.635
L245.491 230.582
L245.715 230.254
L246.089 232.609
L246.32 232.729
L246.839 234.369
L247.101 235.46
L247.32 235.008
L247.829 237.669
L248.407 239.182
L248.778 240.312
L248.964 239.83
L250.03 243.51
L250.225 243.024
L250.703 244.884
L251.023 245.732
L251.274 246.149
L251.344 246.685
L251.525 246.821
L251.64 247.124
L251.85 246.682
L251.929 247.203
L252.102 247.236
L252.444 246.866
L252.51 247.195
L252.65 247.166
L253.032 249.064
L253.196 249.427
L253.473 249.011
L253.765 249.517
L253.918 250.626
L254.305 249.819
L255.601 248.324
L255.871 248.849
L256.125 252.215
L256.209 252.867
L256.7 253.996
L257.083 254.158
L257.631 254.487
L257.946 254.479
L258.439 254.397
L258.748 254.236
L259.707 253.426
L260.165 252.669
L260.536 252.301
L261.587 250.951
L261.707 250.905
L262.113 250.258
L262.581 250.246
L262.591 250.064
L262.954 249.809
L262.998 249.527
L263.734 248.672
L263.83 248.006
L264.122 247.543
L264.265 247.688
L264.436 247.684
L264.765 246.414
L264.851 246.384
L265.347 245.295
L265.8 244.562
L266.191 244.19
L266.207 243.818
L266.565 243.176
L267.025 242.824
L267.044 243.111
L267.278 243.194
L267.513 242.392
L267.649 242.12
L267.781 242.401
L268.033 242.386
L268.193 242.475
L268.335 242.389
L268.506 242.429
L268.612 241.998
L268.986 239.317
L269.402 238.564
L269.709 237.756
L270.754 236.22
L271.089 236.815
L271.409 236.357
L271.461 236.626
L272.231 234.588
L272.398 234.913
L273.136 235.57
L273.28 235.208
L273.678 233.624
L273.877 232.954
L274.938 231.885
L275.636 231.675
L276.278 231.629
L276.655 231.97
L276.778 231.853
L277.545 231.983
L277.934 232.177
L278.596 232.654
L279.162 232.837
L279.38 233.213
L279.869 233.442
L280.212 233.872
L280.461 234.097
L281.833 234.392
L281.961 234.903
L282.04 234.157
L282.09 234.17
L282.551 235.503
L282.81 235.427
L283.176 236.275
L283.571 236.198
L283.704 236.296
L284.645 237.864
L284.766 237.674
L285.587 237.688
L286.206 238.29
L286.227 238.229
L286.364 238.473
L286.608 238.682
L286.67 238.481
L287.106 238.255
L287.456 238.974
L287.835 240.839
L288.101 241.432
L288.318 241.124
L289.039 242.208
L289.153 241.94
L289.445 242.273
L289.782 241.946
L290.018 242.385
L290.131 242.723
L290.44 242.982
L290.753 243.774
L291.007 243.988
L291.263 243.747
L291.481 244.155
L291.757 243.943
L292.019 244.699
L292.169 244.458
L292.271 244.871
L292.47 244.641
L292.687 244.988
L292.777 244.77
L293.22 244.449
L293.439 244.634
L293.964 244.414
L294.176 245.334
L294.739 246.417
L295.116 246.687
L295.293 246.488
L295.618 246.538
L295.937 246.621
L296.09 246.685
L296.218 246.954
L296.723 246.986
L297.382 246.807
L299.029 245.8
L299.901 245.073
L300.164 245.088
L300.324 244.695
L300.552 244.706
L300.711 244.473
L301.303 244.276
L301.505 243.919
L301.774 243.909
L301.866 243.574
L302.304 243.683
L302.47 243.626
L302.868 242.956
L303.111 242.759
L303.232 242.911
L303.481 242.525
L304.089 242.191
L304.099 242.022
L304.148 242.162
L304.148 242.162
L304.182 242.197
L304.654 242.151
L305.198 241.314
L305.367 241.162
L305.513 240.809
L306.132 240.085
L306.289 240.251
L306.48 239.8
L306.661 239.948
L307.065 239.151
L307.57 238.714
L307.932 238.394
L308.186 238.557
L308.263 238.384
L308.586 238.522
L308.893 238.133
L309.265 237.689
L309.467 237.561
L309.627 237.71
L310.116 237.368
L311.371 236.459
L311.732 236.55
L312.388 236.459
L313.122 236.498
L314.941 237.421
L315.571 237.693
L315.794 237.332
L316.198 237.296
L316.794 237.513
L317.769 238.022
L318.953 238.888
L319.389 239.236
L319.554 239.166
L320.534 239.789
L321.061 239.712
L321.17 239.725
L321.206 239.922
L321.433 240.122
L321.657 240.343
L322.479 240.99
L322.64 240.895
L322.75 241.055
L322.956 241.107
L323.024 241.274
L323.196 241.352
L323.773 241.894
L324.657 242.283
L325.09 242.042
L325.27 242.202
L325.388 242.236
L325.61 242.581
L325.841 242.7
L326.845 242.383
L327.044 242.323
L327.552 242.625
L327.761 242.532
L327.85 242.748
L328.052 242.659
L328.332 243.07
L328.453 243.144
L328.691 243.063
L328.759 243.274
L328.965 243.39
L329.386 243.288
L329.575 243.206
L329.766 243.559
L330.289 243.673
L331.561 243.614
L333.752 243.031
L334.83 242.464
L334.966 242.483
L335.28 242.278
L335.984 241.992
L336.071 241.825
L336.449 241.676
L336.558 241.6
L336.951 241.642
L338.169 240.727
L339.038 240.348
L339.514 240.002
L341.186 239.268
L342.309 238.892
L342.544 238.916
L343.818 238.66
L344.413 238.674
L345.089 238.723
L346.227 238.867
L346.74 238.752
L348.032 238.871
L349.306 239.203
L352.366 240.211
L352.741 240.26
L354.095 241.014
L356.446 241.677
L357.175 241.579
L358.479 241.773
L359.245 241.747
L359.481 241.831
L360.841 241.685
L361.037 241.962
L361.342 242.031
L362.787 241.979
L363.932 241.848
L365.483 241.579
L365.928 241.501
L368.235 241.163
L369.262 240.806
L374.305 239.98
L375.614 240.063
L376.219 239.869
L376.366 239.858
L379.448 240.011
L379.638 239.923
L380.452 239.909
L380.873 239.897
L381.946 239.882
L382.293 239.802
L383.952 239.853
L386.111 240.168
L390.227 240.668
L390.857 240.752
L391.697 240.938
L392.206 240.986
L393.008 241.104
L393.607 241.155
L396.919 241.397
L399.597 241.327
L405.297 240.922
L406.213 240.818
L408.461 240.681
L408.893 240.585
L410.645 240.544
L411.694 240.489
L414.658 240.242
L417.988 240.253
L428.398 240.725
L430.071 240.765
L434.169 240.893
L434.197 240.932
L438.568 240.926
L442.014 240.922
L443.621 240.907
L446.841 240.824
L448.196 240.783
L452.026 240.729
L452.453 240.623
L453.606 240.599
L455.284 240.555
L456.705 240.493
L461.319 240.503
L474.523 240.813
L474.523 240.813" style="fill:none;stroke:#008000;stroke-linecap:square;"/>
   </g>
   <g id="patch_3">
    <path d="
M518.4 388.8
L518.4 43.2" style="fill:none;stroke:#000000;stroke-linecap:square;stroke-linejoin:miter;"/>
   </g>
   <g id="patch_4">
    <path d="
M72 388.8
L72 43.2" style="fill:none;stroke:#000000;stroke-linecap:square;stroke-linejoin:miter;"/>
   </g>
   <g id="patch_5">
    <path d="
M72 43.2
L518.4 43.2" style="fill:none;stroke:#000000;stroke-linecap:square;stroke-linejoin:miter;"/>
   </g>
   <g id="patch_6">
    <path d="
M72 388.8
L518.4 388.8" style="fill:none;stroke:#000000;stroke-linecap:square;stroke-linejoin:miter;"/>
   </g>
   <g id="matplotlib.axis_1">
    <g id="xtick_1">
     <g id="line2d_5">
      <path clip-path="url(#p7ff5b81e1d)" d="
M72 388.8
L72 43.2" style="fill:none;stroke:#000000;stroke-dasharray:3.000000,5.000000,1.000000,5.000000;stroke-dashoffset:0.0;stroke-width:0.5;"/>
     </g>
     <g id="line2d_6">
      <defs>
       <path d="
M0 0
L0 -4" id="mc7db9fdffb" style="stroke:#000000;stroke-width:0.5;"/>
      </defs>
      <g>
       <use style="stroke:#000000;stroke-width:0.5;" x="72.0" xlink:href="#mc7db9fdffb" y="388.8"/>
      </g>
     </g>
     <g id="line2d_7">
      <defs>
       <path d="
M0 0
L0 4" id="m5a7d422ac3" style="stroke:#000000;stroke-width:0.5;"/>
      </defs>
      <g>
       <use style="stroke:#000000;stroke-width:0.5;" x="72.0" xlink:href="#m5a7d422ac3" y="43.2"/>
      </g>
     </g>
     <g id="text_1">
      <!-- 0 -->
      <defs>
       <path d="
M31.7812 66.4062
Q24.1719 66.4062 20.3281 58.9062
Q16.5 51.4219 16.5 36.375
Q16.5 21.3906 20.3281 13.8906
Q24.1719 6.39062 31.7812 6.39062
Q39.4531 6.39062 43.2812 13.8906
Q47.125 21.3906 47.125 36.375
Q47.125 51.4219 43.2812 58.9062
Q39.4531 66.4062 31.7812 66.4062
M31.7812 74.2188
Q44.0469 74.2188 50.5156 64.5156
Q56.9844 54.8281 56.9844 36.375
Q56.9844 17.9688 50.5156 8.26562
Q44.0469 -1.42188 31.7812 -1.42188
Q19.5312 -1.42188 13.0625 8.26562
Q6.59375 17.9688 6.59375 36.375
Q6.59375 54.8281 13.0625 64.5156
Q19.5312 74.2188 31.7812 74.2188" id="DejaVuSans-30"/>
      </defs>
      <g transform="translate(68.9765625 401.918125)scale(0.12 -0.12)">
       <use xlink:href="#DejaVuSans-30"/>
      </g>
     </g>
    </g>
    <g id="xtick_2">
     <g id="line2d_8">
      <path clip-path="url(#p7ff5b81e1d)" d="
M146.4 388.8
L146.4 43.2" style="fill:none;stroke:#000000;stroke-dasharray:3.000000,5.000000,1.000000,5.000000;stroke-dashoffset:0.0;stroke-width:0.5;"/>
     </g>
     <g id="line2d_9">
      <g>
       <use style="stroke:#000000;stroke-width:0.5;" x="146.4" xlink:href="#mc7db9fdffb" y="388.8"/>
      </g>
     </g>
     <g id="line2d_10">
      <g>
       <use style="stroke:#000000;stroke-width:0.5;" x="146.4" xlink:href="#m5a7d422ac3" y="43.2"/>
      </g>
     </g>
     <g id="text_2">
      <!-- 20 -->
      <defs>
       <path d="
M19.1875 8.29688
L53.6094 8.29688
L53.6094 0
L7.32812 0
L7.32812 8.29688
Q12.9375 14.1094 22.625 23.8906
Q32.3281 33.6875 34.8125 36.5312
Q39.5469 41.8438 41.4219 45.5312
Q43.3125 49.2188 43.3125 52.7812
Q43.3125 58.5938 39.2344 62.25
Q35.1562 65.9219 28.6094 65.9219
Q23.9688 65.9219 18.8125 64.3125
Q13.6719 62.7031 7.8125 59.4219
L7.8125 69.3906
Q13.7656 71.7812 18.9375 73
Q24.125 74.2188 28.4219 74.2188
Q39.75 74.2188 46.4844 68.5469
Q53.2188 62.8906 53.2188 53.4219
Q53.2188 48.9219 51.5312 44.8906
Q49.8594 40.875 45.4062 35.4062
Q44.1875 33.9844 37.6406 27.2188
Q31.1094 20.4531 19.1875 8.29688" id="DejaVuSans-32"/>
      </defs>
      <g transform="translate(139.603125 401.918125)scale(0.12 -0.12)">
       <use xlink:href="#DejaVuSans-32"/>
       <use x="63.623046875" xlink:href="#DejaVuSans-30"/>
      </g>
     </g>
    </g>
    <g id="xtick_3">
     <g id="line2d_11">
      <path clip-path="url(#p7ff5b81e1d)" d="
M220.8 388.8
L220.8 43.2" style="fill:none;stroke:#000000;stroke-dasharray:3.000000,5.000000,1.000000,5.000000;stroke-dashoffset:0.0;stroke-width:0.5;"/>
     </g>
     <g id="line2d_12">
      <g>
       <use style="stroke:#000000;stroke-width:0.5;" x="220.8" xlink:href="#mc7db9fdffb" y="388.8"/>
      </g>
     </g>
     <g id="line2d_13">
      <g>
       <use style="stroke:#000000;stroke-width:0.5;" x="220.8" xlink:href="#m5a7d422ac3" y="43.2"/>
      </g>
     </g>
     <g id="text_3">
      <!-- 40 -->
      <defs>
       <path d="
M37.7969 64.3125
L12.8906 25.3906
L37.7969 25.3906
z

M35.2031 72.9062
L47.6094 72.9062
L47.6094 25.3906
L58.0156 25.3906
L58.0156 17.1875
L47.6094 17.1875
L47.6094 0
L37.7969 0
L37.7969 17.1875
L4.89062 17.1875
L4.89062 26.7031
z
" id="DejaVuSans-34"/>
      </defs>
      <g transform="translate(213.856875 401.918125)scale(0.12 -0.12)">
       <use xlink:href="#DejaVuSans-34"/>
       <use x="63.623046875" xlink:href="#DejaVuSans-30"/>
      </g>
     </g>
    </g>
    <g id="xtick_4">
     <g id="line2d_14">
      <path clip-path="url(#p7ff5b81e1d)" d="
M295.2 388.8
L295.2 43.2" style="fill:none;stroke:#000000;stroke-dasharray:3.000000,5.000000,1.000000,5.000000;stroke-dashoffset:0.0;stroke-width:0.5;"/>
     </g>
     <g id="line2d_15">
      <g>
       <use style="stroke:#000000;stroke-width:0.5;" x="295.2" xlink:href="#mc7db9fdffb" y="388.8"/>
      </g>
     </g>
     <g id="line2d_16">
      <g>
       <use style="stroke:#000000;stroke-width:0.5;" x="295.2" xlink:href="#m5a7d422ac3" y="43.2"/>
      </g>
     </g>
     <g id="text_4">
      <!-- 60 -->
      <defs>
       <path d="
M33.0156 40.375
Q26.375 40.375 22.4844 35.8281
Q18.6094 31.2969 18.6094 23.3906
Q18.6094 15.5312 22.4844 10.9531
Q26.375 6.39062 33.0156 6.39062
Q39.6562 6.39062 43.5312 10.9531
Q47.4062 15.5312 47.4062 23.3906
Q47.4062 31.2969 43.5312 35.8281
Q39.6562 40.375 33.0156 40.375
M52.5938 71.2969
L52.5938 62.3125
Q48.875 64.0625 45.0938 64.9844
Q41.3125 65.9219 37.5938 65.9219
Q27.8281 65.9219 22.6719 59.3281
Q17.5312 52.7344 16.7969 39.4062
Q19.6719 43.6562 24.0156 45.9219
Q28.375 48.1875 33.5938 48.1875
Q44.5781 48.1875 50.9531 41.5156
Q57.3281 34.8594 57.3281 23.3906
Q57.3281 12.1562 50.6875 5.35938
Q44.0469 -1.42188 33.0156 -1.42188
Q20.3594 -1.42188 13.6719 8.26562
Q6.98438 17.9688 6.98438 36.375
Q6.98438 53.6562 15.1875 63.9375
Q23.3906 74.2188 37.2031 74.2188
Q40.9219 74.2188 44.7031 73.4844
Q48.4844 72.75 52.5938 71.2969" id="DejaVuSans-36"/>
      </defs>
      <g transform="translate(288.3825 401.918125)scale(0.12 -0.12)">
       <use xlink:href="#DejaVuSans-36"/>
       <use x="63.623046875" xlink:href="#DejaVuSans-30"/>
      </g>
     </g>
    </g>
    <g id="xtick_5">
     <g id="line2d_17">
      <path clip-path="url(#p7ff5b81e1d)" d="
M369.6 388.8
L369.6 43.2" style="fill:none;stroke:#000000;stroke-dasharray:3.000000,5.000000,1.000000,5.000000;stroke-dashoffset:0.0;stroke-width:0.5;"/>
     </g>
     <g id="line2d_18">
      <g>
       <use style="stroke:#000000;stroke-width:0.5;" x="369.6" xlink:href="#mc7db9fdffb" y="388.8"/>
      </g>
     </g>
     <g id="line2d_19">
      <g>
       <use style="stroke:#000000;stroke-width:0.5;" x="369.6" xlink:href="#m5a7d422ac3" y="43.2"/>
      </g>
     </g>
     <g id="text_5">
      <!-- 80 -->
      <defs>
       <path d="
M31.7812 34.625
Q24.75 34.625 20.7188 30.8594
Q16.7031 27.0938 16.7031 20.5156
Q16.7031 13.9219 20.7188 10.1562
Q24.75 6.39062 31.7812 6.39062
Q38.8125 6.39062 42.8594 10.1719
Q46.9219 13.9688 46.9219 20.5156
Q46.9219 27.0938 42.8906 30.8594
Q38.875 34.625 31.7812 34.625
M21.9219 38.8125
Q15.5781 40.375 12.0312 44.7188
Q8.5 49.0781 8.5 55.3281
Q8.5 64.0625 14.7188 69.1406
Q20.9531 74.2188 31.7812 74.2188
Q42.6719 74.2188 48.875 69.1406
Q55.0781 64.0625 55.0781 55.3281
Q55.0781 49.0781 51.5312 44.7188
Q48 40.375 41.7031 38.8125
Q48.8281 37.1562 52.7969 32.3125
Q56.7812 27.4844 56.7812 20.5156
Q56.7812 9.90625 50.3125 4.23438
Q43.8438 -1.42188 31.7812 -1.42188
Q19.7344 -1.42188 13.25 4.23438
Q6.78125 9.90625 6.78125 20.5156
Q6.78125 27.4844 10.7812 32.3125
Q14.7969 37.1562 21.9219 38.8125
M18.3125 54.3906
Q18.3125 48.7344 21.8438 45.5625
Q25.3906 42.3906 31.7812 42.3906
Q38.1406 42.3906 41.7188 45.5625
Q45.3125 48.7344 45.3125 54.3906
Q45.3125 60.0625 41.7188 63.2344
Q38.1406 66.4062 31.7812 66.4062
Q25.3906 66.4062 21.8438 63.2344
Q18.3125 60.0625 18.3125 54.3906" id="DejaVuSans-38"/>
      </defs>
      <g transform="translate(362.7703125 401.918125)scale(0.12 -0.12)">
       <use xlink:href="#DejaVuSans-38"/>
       <use x="63.623046875" xlink:href="#DejaVuSans-30"/>
      </g>
     </g>
    </g>
    <g id="xtick_6">
     <g id="line2d_20">
      <path clip-path="url(#p7ff5b81e1d)" d="
M444 388.8
L444 43.2" style="fill:none;stroke:#000000;stroke-dasharray:3.000000,5.000000,1.000000,5.000000;stroke-dashoffset:0.0;stroke-width:0.5;"/>
     </g>
     <g id="line2d_21">
      <g>
       <use style="stroke:#000000;stroke-width:0.5;" x="444.0" xlink:href="#mc7db9fdffb" y="388.8"/>
      </g>
     </g>
     <g id="line2d_22">
      <g>
       <use style="stroke:#000000;stroke-width:0.5;" x="444.0" xlink:href="#m5a7d422ac3" y="43.2"/>
      </g>
     </g>
     <g id="text_6">
      <!-- 100 -->
      <defs>
       <path d="
M12.4062 8.29688
L28.5156 8.29688
L28.5156 63.9219
L10.9844 60.4062
L10.9844 69.3906
L28.4219 72.9062
L38.2812 72.9062
L38.2812 8.29688
L54.3906 8.29688
L54.3906 0
L12.4062 0
z
" id="DejaVuSans-31"/>
      </defs>
      <g transform="translate(433.605 401.918125)scale(0.12 -0.12)">
       <use xlink:href="#DejaVuSans-31"/>
       <use x="63.623046875" xlink:href="#DejaVuSans-30"/>
       <use x="127.24609375" xlink:href="#DejaVuSans-30"/>
      </g>
     </g>
    </g>
    <g id="xtick_7">
     <g id="line2d_23">
      <path clip-path="url(#p7ff5b81e1d)" d="
M518.4 388.8
L518.4 43.2" style="fill:none;stroke:#000000;stroke-dasharray:3.000000,5.000000,1.000000,5.000000;stroke-dashoffset:0.0;stroke-width:0.5;"/>
     </g>
     <g id="line2d_24">
      <g>
       <use style="stroke:#000000;stroke-width:0.5;" x="518.4" xlink:href="#mc7db9fdffb" y="388.8"/>
      </g>
     </g>
     <g id="line2d_25">
      <g>
       <use style="stroke:#000000;stroke-width:0.5;" x="518.4" xlink:href="#m5a7d422ac3" y="43.2"/>
      </g>
     </g>
     <g id="text_7">
      <!-- 120 -->
      <g transform="translate(508.005 401.918125)scale(0.12 -0.12)">
       <use xlink:href="#DejaVuSans-31"/>
       <use x="63.623046875" xlink:href="#DejaVuSans-32"/>
       <use x="127.24609375" xlink:href="#DejaVuSans-30"/>
      </g>
     </g>
    </g>
    <g id="text_8">
     <!-- Time -->
     <defs>
      <path d="
M9.42188 54.6875
L18.4062 54.6875
L18.4062 0
L9.42188 0
z

M9.42188 75.9844
L18.4062 75.9844
L18.4062 64.5938
L9.42188 64.5938
z
" id="DejaVuSans-69"/>
      <path d="
M-0.296875 72.9062
L61.375 72.9062
L61.375 64.5938
L35.5 64.5938
L35.5 0
L25.5938 0
L25.5938 64.5938
L-0.296875 64.5938
z
" id="DejaVuSans-54"/>
      <path d="
M52 44.1875
Q55.375 50.25 60.0625 53.125
Q64.75 56 71.0938 56
Q79.6406 56 84.2812 50.0156
Q88.9219 44.0469 88.9219 33.0156
L88.9219 0
L79.8906 0
L79.8906 32.7188
Q79.8906 40.5781 77.0938 44.375
Q74.3125 48.1875 68.6094 48.1875
Q61.625 48.1875 57.5625 43.5469
Q53.5156 38.9219 53.5156 30.9062
L53.5156 0
L44.4844 0
L44.4844 32.7188
Q44.4844 40.625 41.7031 44.4062
Q38.9219 48.1875 33.1094 48.1875
Q26.2188 48.1875 22.1562 43.5312
Q18.1094 38.875 18.1094 30.9062
L18.1094 0
L9.07812 0
L9.07812 54.6875
L18.1094 54.6875
L18.1094 46.1875
Q21.1875 51.2188 25.4844 53.6094
Q29.7812 56 35.6875 56
Q41.6562 56 45.8281 52.9688
Q50 49.9531 52 44.1875" id="DejaVuSans-6d"/>
      <path d="
M56.2031 29.5938
L56.2031 25.2031
L14.8906 25.2031
Q15.4844 15.9219 20.4844 11.0625
Q25.4844 6.20312 34.4219 6.20312
Q39.5938 6.20312 44.4531 7.46875
Q49.3125 8.73438 54.1094 11.2812
L54.1094 2.78125
Q49.2656 0.734375 44.1875 -0.34375
Q39.1094 -1.42188 33.8906 -1.42188
Q20.7969 -1.42188 13.1562 6.1875
Q5.51562 13.8125 5.51562 26.8125
Q5.51562 40.2344 12.7656 48.1094
Q20.0156 56 32.3281 56
Q43.3594 56 49.7812 48.8906
Q56.2031 41.7969 56.2031 29.5938
M47.2188 32.2344
Q47.125 39.5938 43.0938 43.9844
Q39.0625 48.3906 32.4219 48.3906
Q24.9062 48.3906 20.3906 44.1406
Q15.875 39.8906 15.1875 32.1719
z
" id="DejaVuSans-65"/>
     </defs>
     <g transform="translate(278.42515625 420.0515625)scale(0.14 -0.14)">
      <use xlink:href="#DejaVuSans-54"/>
      <use x="57.958984375" xlink:href="#DejaVuSans-69"/>
      <use x="85.7421875" xlink:href="#DejaVuSans-6d"/>
      <use x="183.154296875" xlink:href="#DejaVuSans-65"/>
     </g>
    </g>
   </g>
   <g id="matplotlib.axis_2">
    <g id="ytick_1">
     <g id="line2d_26">
      <path clip-path="url(#p7ff5b81e1d)" d="
M72 388.8
L518.4 388.8" style="fill:none;stroke:#000000;stroke-dasharray:3.000000,5.000000,1.000000,5.000000;stroke-dashoffset:0.0;stroke-width:0.5;"/>
     </g>
     <g id="line2d_27">
      <defs>
       <path d="
M0 0
L4 0" id="md7965d1ba0" style="stroke:#000000;stroke-width:0.5;"/>
      </defs>
      <g>
       <use style="stroke:#000000;stroke-width:0.5;" x="72.0" xlink:href="#md7965d1ba0" y="388.8"/>
      </g>
     </g>
     <g id="line2d_28">
      <defs>
       <path d="
M0 0
L-4 0" id="md9a1c1a7cd" style="stroke:#000000;stroke-width:0.5;"/>
      </defs>
      <g>
       <use style="stroke:#000000;stroke-width:0.5;" x="518.4" xlink:href="#md9a1c1a7cd" y="388.8"/>
      </g>
     </g>
     <g id="text_9">
      <!-- 3000 -->
      <defs>
       <path d="
M10.5938 35.5
L73.1875 35.5
L73.1875 27.2031
L10.5938 27.2031
z
" id="DejaVuSans-2212"/>
       <path d="
M40.5781 39.3125
Q47.6562 37.7969 51.625 33
Q55.6094 28.2188 55.6094 21.1875
Q55.6094 10.4062 48.1875 4.48438
Q40.7656 -1.42188 27.0938 -1.42188
Q22.5156 -1.42188 17.6562 -0.515625
Q12.7969 0.390625 7.625 2.20312
L7.625 11.7188
Q11.7188 9.32812 16.5938 8.10938
Q21.4844 6.89062 26.8125 6.89062
Q36.0781 6.89062 40.9375 10.5469
Q45.7969 14.2031 45.7969 21.1875
Q45.7969 27.6406 41.2812 31.2656
Q36.7656 34.9062 28.7188 34.9062
L20.2188 34.9062
L20.2188 43.0156
L29.1094 43.0156
Q36.375 43.0156 40.2344 45.9219
Q44.0938 48.8281 44.0938 54.2969
Q44.0938 59.9062 40.1094 62.9062
Q36.1406 65.9219 28.7188 65.9219
Q24.6562 65.9219 20.0156 65.0312
Q15.375 64.1562 9.8125 62.3125
L9.8125 71.0938
Q15.4375 72.6562 20.3438 73.4375
Q25.25 74.2188 29.5938 74.2188
Q40.8281 74.2188 47.3594 69.1094
Q53.9062 64.0156 53.9062 55.3281
Q53.9062 49.2656 50.4375 45.0938
Q46.9688 40.9219 40.5781 39.3125" id="DejaVuSans-33"/>
      </defs>
      <g transform="translate(29.4725 392.11125)scale(0.12 -0.12)">
       <use xlink:href="#DejaVuSans-2212"/>
       <use x="83.7890625" xlink:href="#DejaVuSans-33"/>
       <use x="147.412109375" xlink:href="#DejaVuSans-30"/>
       <use x="211.03515625" xlink:href="#DejaVuSans-30"/>
       <use x="274.658203125" xlink:href="#DejaVuSans-30"/>
      </g>
     </g>
    </g>
    <g id="ytick_2">
     <g id="line2d_29">
      <path clip-path="url(#p7ff5b81e1d)" d="
M72 339.429
L518.4 339.429" style="fill:none;stroke:#000000;stroke-dasharray:3.000000,5.000000,1.000000,5.000000;stroke-dashoffset:0.0;stroke-width:0.5;"/>
     </g>
     <g id="line2d_30">
      <g>
       <use style="stroke:#000000;stroke-width:0.5;" x="72.0" xlink:href="#md7965d1ba0" y="339.428571429"/>
      </g>
     </g>
     <g id="line2d_31">
      <g>
       <use style="stroke:#000000;stroke-width:0.5;" x="518.4" xlink:href="#md9a1c1a7cd" y="339.428571429"/>
      </g>
     </g>
     <g id="text_10">
      <!-- 2000 -->
      <g transform="translate(29.4725 342.739821429)scale(0.12 -0.12)">
       <use xlink:href="#DejaVuSans-2212"/>
       <use x="83.7890625" xlink:href="#DejaVuSans-32"/>
       <use x="147.412109375" xlink:href="#DejaVuSans-30"/>
       <use x="211.03515625" xlink:href="#DejaVuSans-30"/>
       <use x="274.658203125" xlink:href="#DejaVuSans-30"/>
      </g>
     </g>
    </g>
    <g id="ytick_3">
     <g id="line2d_32">
      <path clip-path="url(#p7ff5b81e1d)" d="
M72 290.057
L518.4 290.057" style="fill:none;stroke:#000000;stroke-dasharray:3.000000,5.000000,1.000000,5.000000;stroke-dashoffset:0.0;stroke-width:0.5;"/>
     </g>
     <g id="line2d_33">
      <g>
       <use style="stroke:#000000;stroke-width:0.5;" x="72.0" xlink:href="#md7965d1ba0" y="290.057142857"/>
      </g>
     </g>
     <g id="line2d_34">
      <g>
       <use style="stroke:#000000;stroke-width:0.5;" x="518.4" xlink:href="#md9a1c1a7cd" y="290.057142857"/>
      </g>
     </g>
     <g id="text_11">
      <!-- 1000 -->
      <g transform="translate(29.4725 293.368392857)scale(0.12 -0.12)">
       <use xlink:href="#DejaVuSans-2212"/>
       <use x="83.7890625" xlink:href="#DejaVuSans-31"/>
       <use x="147.412109375" xlink:href="#DejaVuSans-30"/>
       <use x="211.03515625" xlink:href="#DejaVuSans-30"/>
       <use x="274.658203125" xlink:href="#DejaVuSans-30"/>
      </g>
     </g>
    </g>
    <g id="ytick_4">
     <g id="line2d_35">
      <path clip-path="url(#p7ff5b81e1d)" d="
M72 240.686
L518.4 240.686" style="fill:none;stroke:#000000;stroke-dasharray:3.000000,5.000000,1.000000,5.000000;stroke-dashoffset:0.0;stroke-width:0.5;"/>
     </g>
     <g id="line2d_36">
      <g>
       <use style="stroke:#000000;stroke-width:0.5;" x="72.0" xlink:href="#md7965d1ba0" y="240.685714286"/>
      </g>
     </g>
     <g id="line2d_37">
      <g>
       <use style="stroke:#000000;stroke-width:0.5;" x="518.4" xlink:href="#md9a1c1a7cd" y="240.685714286"/>
      </g>
     </g>
     <g id="text_12">
      <!-- 0 -->
      <g transform="translate(61.953125 243.996964286)scale(0.12 -0.12)">
       <use xlink:href="#DejaVuSans-30"/>
      </g>
     </g>
    </g>
    <g id="ytick_5">
     <g id="line2d_38">
      <path clip-path="url(#p7ff5b81e1d)" d="
M72 191.314
L518.4 191.314" style="fill:none;stroke:#000000;stroke-dasharray:3.000000,5.000000,1.000000,5.000000;stroke-dashoffset:0.0;stroke-width:0.5;"/>
     </g>
     <g id="line2d_39">
      <g>
       <use style="stroke:#000000;stroke-width:0.5;" x="72.0" xlink:href="#md7965d1ba0" y="191.314285714"/>
      </g>
     </g>
     <g id="line2d_40">
      <g>
       <use style="stroke:#000000;stroke-width:0.5;" x="518.4" xlink:href="#md9a1c1a7cd" y="191.314285714"/>
      </g>
     </g>
     <g id="text_13">
      <!-- 1000 -->
      <g transform="translate(39.575 194.625535714)scale(0.12 -0.12)">
       <use xlink:href="#DejaVuSans-31"/>
       <use x="63.623046875" xlink:href="#DejaVuSans-30"/>
       <use x="127.24609375" xlink:href="#DejaVuSans-30"/>
       <use x="190.869140625" xlink:href="#DejaVuSans-30"/>
      </g>
     </g>
    </g>
    <g id="ytick_6">
     <g id="line2d_41">
      <path clip-path="url(#p7ff5b81e1d)" d="
M72 141.943
L518.4 141.943" style="fill:none;stroke:#000000;stroke-dasharray:3.000000,5.000000,1.000000,5.000000;stroke-dashoffset:0.0;stroke-width:0.5;"/>
     </g>
     <g id="line2d_42">
      <g>
       <use style="stroke:#000000;stroke-width:0.5;" x="72.0" xlink:href="#md7965d1ba0" y="141.942857143"/>
      </g>
     </g>
     <g id="line2d_43">
      <g>
       <use style="stroke:#000000;stroke-width:0.5;" x="518.4" xlink:href="#md9a1c1a7cd" y="141.942857143"/>
      </g>
     </g>
     <g id="text_14">
      <!-- 2000 -->
      <g transform="translate(39.13625 145.254107143)scale(0.12 -0.12)">
       <use xlink:href="#DejaVuSans-32"/>
       <use x="63.623046875" xlink:href="#DejaVuSans-30"/>
       <use x="127.24609375" xlink:href="#DejaVuSans-30"/>
       <use x="190.869140625" xlink:href="#DejaVuSans-30"/>
      </g>
     </g>
    </g>
    <g id="ytick_7">
     <g id="line2d_44">
      <path clip-path="url(#p7ff5b81e1d)" d="
M72 92.5714
L518.4 92.5714" style="fill:none;stroke:#000000;stroke-dasharray:3.000000,5.000000,1.000000,5.000000;stroke-dashoffset:0.0;stroke-width:0.5;"/>
     </g>
     <g id="line2d_45">
      <g>
       <use style="stroke:#000000;stroke-width:0.5;" x="72.0" xlink:href="#md7965d1ba0" y="92.5714285714"/>
      </g>
     </g>
     <g id="line2d_46">
      <g>
       <use style="stroke:#000000;stroke-width:0.5;" x="518.4" xlink:href="#md9a1c1a7cd" y="92.5714285714"/>
      </g>
     </g>
     <g id="text_15">
      <!-- 3000 -->
      <g transform="translate(39.171875 95.8826785714)scale(0.12 -0.12)">
       <use xlink:href="#DejaVuSans-33"/>
       <use x="63.623046875" xlink:href="#DejaVuSans-30"/>
       <use x="127.24609375" xlink:href="#DejaVuSans-30"/>
       <use x="190.869140625" xlink:href="#DejaVuSans-30"/>
      </g>
     </g>
    </g>
    <g id="ytick_8">
     <g id="line2d_47">
      <path clip-path="url(#p7ff5b81e1d)" d="
M72 43.2
L518.4 43.2" style="fill:none;stroke:#000000;stroke-dasharray:3.000000,5.000000,1.000000,5.000000;stroke-dashoffset:0.0;stroke-width:0.5;"/>
     </g>
     <g id="line2d_48">
      <g>
       <use style="stroke:#000000;stroke-width:0.5;" x="72.0" xlink:href="#md7965d1ba0" y="43.2"/>
      </g>
     </g>
     <g id="line2d_49">
      <g>
       <use style="stroke:#000000;stroke-width:0.5;" x="518.4" xlink:href="#md9a1c1a7cd" y="43.2"/>
      </g>
     </g>
     <g id="text_16">
      <!-- 4000 -->
      <g transform="translate(38.84375 46.51125)scale(0.12 -0.12)">
       <use xlink:href="#DejaVuSans-34"/>
       <use x="63.623046875" xlink:href="#DejaVuSans-30"/>
       <use x="127.24609375" xlink:href="#DejaVuSans-30"/>
       <use x="190.869140625" xlink:href="#DejaVuSans-30"/>
      </g>
     </g>
    </g>
    <g id="text_17">
     <!-- dif_voltage -->
     <defs>
      <path d="
M45.4062 27.9844
Q45.4062 37.75 41.375 43.1094
Q37.3594 48.4844 30.0781 48.4844
Q22.8594 48.4844 18.8281 43.1094
Q14.7969 37.75 14.7969 27.9844
Q14.7969 18.2656 18.8281 12.8906
Q22.8594 7.51562 30.0781 7.51562
Q37.3594 7.51562 41.375 12.8906
Q45.4062 18.2656 45.4062 27.9844
M54.3906 6.78125
Q54.3906 -7.17188 48.1875 -13.9844
Q42 -20.7969 29.2031 -20.7969
Q24.4688 -20.7969 20.2656 -20.0938
Q16.0625 -19.3906 12.1094 -17.9219
L12.1094 -9.1875
Q16.0625 -11.3281 19.9219 -12.3438
Q23.7812 -13.375 27.7812 -13.375
Q36.625 -13.375 41.0156 -8.76562
Q45.4062 -4.15625 45.4062 5.17188
L45.4062 9.625
Q42.625 4.78125 38.2812 2.39062
Q33.9375 0 27.875 0
Q17.8281 0 11.6719 7.65625
Q5.51562 15.3281 5.51562 27.9844
Q5.51562 40.6719 11.6719 48.3281
Q17.8281 56 27.875 56
Q33.9375 56 38.2812 53.6094
Q42.625 51.2188 45.4062 46.3906
L45.4062 54.6875
L54.3906 54.6875
z
" id="DejaVuSans-67"/>
      <path d="
M9.42188 75.9844
L18.4062 75.9844
L18.4062 0
L9.42188 0
z
" id="DejaVuSans-6c"/>
      <path d="
M34.2812 27.4844
Q23.3906 27.4844 19.1875 25
Q14.9844 22.5156 14.9844 16.5
Q14.9844 11.7188 18.1406 8.90625
Q21.2969 6.10938 26.7031 6.10938
Q34.1875 6.10938 38.7031 11.4062
Q43.2188 16.7031 43.2188 25.4844
L43.2188 27.4844
z

M52.2031 31.2031
L52.2031 0
L43.2188 0
L43.2188 8.29688
Q40.1406 3.32812 35.5469 0.953125
Q30.9531 -1.42188 24.3125 -1.42188
Q15.9219 -1.42188 10.9531 3.29688
Q6 8.01562 6 15.9219
Q6 25.1406 12.1719 29.8281
Q18.3594 34.5156 30.6094 34.5156
L43.2188 34.5156
L43.2188 35.4062
Q43.2188 41.6094 39.1406 45
Q35.0625 48.3906 27.6875 48.3906
Q23 48.3906 18.5469 47.2656
Q14.1094 46.1406 10.0156 43.8906
L10.0156 52.2031
Q14.9375 54.1094 19.5781 55.0469
Q24.2188 56 28.6094 56
Q40.4844 56 46.3438 49.8438
Q52.2031 43.7031 52.2031 31.2031" id="DejaVuSans-61"/>
      <path d="
M18.3125 70.2188
L18.3125 54.6875
L36.8125 54.6875
L36.8125 47.7031
L18.3125 47.7031
L18.3125 18.0156
Q18.3125 11.3281 20.1406 9.42188
Q21.9688 7.51562 27.5938 7.51562
L36.8125 7.51562
L36.8125 0
L27.5938 0
Q17.1875 0 13.2344 3.875
Q9.28125 7.76562 9.28125 18.0156
L9.28125 47.7031
L2.6875 47.7031
L2.6875 54.6875
L9.28125 54.6875
L9.28125 70.2188
z
" id="DejaVuSans-74"/>
      <path d="
M30.6094 48.3906
Q23.3906 48.3906 19.1875 42.75
Q14.9844 37.1094 14.9844 27.2969
Q14.9844 17.4844 19.1562 11.8438
Q23.3438 6.20312 30.6094 6.20312
Q37.7969 6.20312 41.9844 11.8594
Q46.1875 17.5312 46.1875 27.2969
Q46.1875 37.0156 41.9844 42.7031
Q37.7969 48.3906 30.6094 48.3906
M30.6094 56
Q42.3281 56 49.0156 48.375
Q55.7188 40.7656 55.7188 27.2969
Q55.7188 13.875 49.0156 6.21875
Q42.3281 -1.42188 30.6094 -1.42188
Q18.8438 -1.42188 12.1719 6.21875
Q5.51562 13.875 5.51562 27.2969
Q5.51562 40.7656 12.1719 48.375
Q18.8438 56 30.6094 56" id="DejaVuSans-6f"/>
      <path d="
M2.98438 54.6875
L12.5 54.6875
L29.5938 8.79688
L46.6875 54.6875
L56.2031 54.6875
L35.6875 0
L23.4844 0
z
" id="DejaVuSans-76"/>
      <path d="
M37.1094 75.9844
L37.1094 68.5
L28.5156 68.5
Q23.6875 68.5 21.7969 66.5469
Q19.9219 64.5938 19.9219 59.5156
L19.9219 54.6875
L34.7188 54.6875
L34.7188 47.7031
L19.9219 47.7031
L19.9219 0
L10.8906 0
L10.8906 47.7031
L2.29688 47.7031
L2.29688 54.6875
L10.8906 54.6875
L10.8906 58.5
Q10.8906 67.625 15.1406 71.7969
Q19.3906 75.9844 28.6094 75.9844
z
" id="DejaVuSans-66"/>
      <path d="
M45.4062 46.3906
L45.4062 75.9844
L54.3906 75.9844
L54.3906 0
L45.4062 0
L45.4062 8.20312
Q42.5781 3.32812 38.25 0.953125
Q33.9375 -1.42188 27.875 -1.42188
Q17.9688 -1.42188 11.7344 6.48438
Q5.51562 14.4062 5.51562 27.2969
Q5.51562 40.1875 11.7344 48.0938
Q17.9688 56 27.875 56
Q33.9375 56 38.25 53.625
Q42.5781 51.2656 45.4062 46.3906
M14.7969 27.2969
Q14.7969 17.3906 18.875 11.75
Q22.9531 6.10938 30.0781 6.10938
Q37.2031 6.10938 41.2969 11.75
Q45.4062 17.3906 45.4062 27.2969
Q45.4062 37.2031 41.2969 42.8438
Q37.2031 48.4844 30.0781 48.4844
Q22.9531 48.4844 18.875 42.8438
Q14.7969 37.2031 14.7969 27.2969" id="DejaVuSans-64"/>
      <path d="
M50.9844 -16.6094
L50.9844 -23.5781
L-0.984375 -23.5781
L-0.984375 -16.6094
z
" id="DejaVuSans-5f"/>
     </defs>
     <g transform="translate(21.1715625 253.7496875)rotate(-90.0)scale(0.14 -0.14)">
      <use xlink:href="#DejaVuSans-64"/>
      <use x="63.4765625" xlink:href="#DejaVuSans-69"/>
      <use x="91.259765625" xlink:href="#DejaVuSans-66"/>
      <use x="126.46484375" xlink:href="#DejaVuSans-5f"/>
      <use x="176.46484375" xlink:href="#DejaVuSans-76"/>
      <use x="235.64453125" xlink:href="#DejaVuSans-6f"/>
      <use x="296.826171875" xlink:href="#DejaVuSans-6c"/>
      <use x="324.609375" xlink:href="#DejaVuSans-74"/>
      <use x="363.818359375" xlink:href="#DejaVuSans-61"/>
      <use x="425.09765625" xlink:href="#DejaVuSans-67"/>
      <use x="488.57421875" xlink:href="#DejaVuSans-65"/>
     </g>
    </g>
   </g>
   <g id="text_18">
    <!-- dif_voltage -->
    <g transform="translate(257.4503125 38.2)scale(0.14 -0.14)">
     <use xlink:href="#DejaVuSans-64"/>
     <use x="63.4765625" xlink:href="#DejaVuSans-69"/>
     <use x="91.259765625" xlink:href="#DejaVuSans-66"/>
     <use x="126.46484375" xlink:href="#DejaVuSans-5f"/>
     <use x="176.46484375" xlink:href="#DejaVuSans-76"/>
     <use x="235.64453125" xlink:href="#DejaVuSans-6f"/>
     <use x="296.826171875" xlink:href="#DejaVuSans-6c"/>
     <use x="324.609375" xlink:href="#DejaVuSans-74"/>
     <use x="363.818359375" xlink:href="#DejaVuSans-61"/>
     <use x="425.09765625" xlink:href="#DejaVuSans-67"/>
     <use x="488.57421875" xlink:href="#DejaVuSans-65"/>
    </g>
   </g>
   <g id="legend_1">
    <g id="patch_7">
     <path d="
M372.582 140.868
L511.2 140.868
L511.2 50.4
L372.582 50.4
z
" style="fill:#ffffff;stroke:#000000;stroke-linejoin:miter;"/>
    </g>
    <g id="line2d_50">
     <path d="
M382.662 62.0617
L402.822 62.0617" style="fill:none;stroke:#bf00bf;stroke-linecap:square;"/>
    </g>
    <g id="line2d_51"/>
    <g id="text_19">
     <!-- dif_voltage1 -->
     <g transform="translate(418.662 67.10175)scale(0.144 -0.144)">
      <use xlink:href="#DejaVuSans-64"/>
      <use x="63.4765625" xlink:href="#DejaVuSans-69"/>
      <use x="91.259765625" xlink:href="#DejaVuSans-66"/>
      <use x="126.46484375" xlink:href="#DejaVuSans-5f"/>
      <use x="176.46484375" xlink:href="#DejaVuSans-76"/>
      <use x="235.64453125" xlink:href="#DejaVuSans-6f"/>
      <use x="296.826171875" xlink:href="#DejaVuSans-6c"/>
      <use x="324.609375" xlink:href="#DejaVuSans-74"/>
      <use x="363.818359375" xlink:href="#DejaVuSans-61"/>
      <use x="425.09765625" xlink:href="#DejaVuSans-67"/>
      <use x="488.57421875" xlink:href="#DejaVuSans-65"/>
      <use x="550.09765625" xlink:href="#DejaVuSans-31"/>
     </g>
    </g>
    <g id="line2d_52">
     <path d="
M382.662 83.5987
L402.822 83.5987" style="fill:none;stroke:#00bfbf;stroke-linecap:square;"/>
    </g>
    <g id="line2d_53"/>
    <g id="text_20">
     <!-- dif_voltage2 -->
     <g transform="translate(418.662 88.63875)scale(0.144 -0.144)">
      <use xlink:href="#DejaVuSans-64"/>
      <use x="63.4765625" xlink:href="#DejaVuSans-69"/>
      <use x="91.259765625" xlink:href="#DejaVuSans-66"/>
      <use x="126.46484375" xlink:href="#DejaVuSans-5f"/>
      <use x="176.46484375" xlink:href="#DejaVuSans-76"/>
      <use x="235.64453125" xlink:href="#DejaVuSans-6f"/>
      <use x="296.826171875" xlink:href="#DejaVuSans-6c"/>
      <use x="324.609375" xlink:href="#DejaVuSans-74"/>
      <use x="363.818359375" xlink:href="#DejaVuSans-61"/>
      <use x="425.09765625" xlink:href="#DejaVuSans-67"/>
      <use x="488.57421875" xlink:href="#DejaVuSans-65"/>
      <use x="550.09765625" xlink:href="#DejaVuSans-32"/>
     </g>
    </g>
    <g id="line2d_54">
     <path d="
M382.662 105.136
L402.822 105.136" style="fill:none;stroke:#ff0000;stroke-linecap:square;"/>
    </g>
    <g id="line2d_55"/>
    <g id="text_21">
     <!-- dif_voltage3 -->
     <g transform="translate(418.662 110.17575)scale(0.144 -0.144)">
      <use xlink:href="#DejaVuSans-64"/>
      <use x="63.4765625" xlink:href="#DejaVuSans-69"/>
      <use x="91.259765625" xlink:href="#DejaVuSans-66"/>
      <use x="126.46484375" xlink:href="#DejaVuSans-5f"/>
      <use x="176.46484375" xlink:href="#DejaVuSans-76"/>
      <use x="235.64453125" xlink:href="#DejaVuSans-6f"/>
      <use x="296.826171875" xlink:href="#DejaVuSans-6c"/>
      <use x="324.609375" xlink:href="#DejaVuSans-74"/>
      <use x="363.818359375" xlink:href="#DejaVuSans-61"/>
      <use x="425.09765625" xlink:href="#DejaVuSans-67"/>
      <use x="488.57421875" xlink:href="#DejaVuSans-65"/>
      <use x="550.09765625" xlink:href="#DejaVuSans-33"/>
     </g>
    </g>
    <g id="line2d_56">
     <path d="
M382.662 126.673
L402.822 126.673" style="fill:none;stroke:#008000;stroke-linecap:square;"/>
    </g>
    <g id="line2d_57"/>
    <g id="text_22">
     <!-- dif_voltage4 -->
     <g transform="translate(418.662 131.71275)scale(0.144 -0.144)">
      <use xlink:href="#DejaVuSans-64"/>
      <use x="63.4765625" xlink:href="#DejaVuSans-69"/>
      <use x="91.259765625" xlink:href="#DejaVuSans-66"/>
      <use x="126.46484375" xlink:href="#DejaVuSans-5f"/>
      <use x="176.46484375" xlink:href="#DejaVuSans-76"/>
      <use x="235.64453125" xlink:href="#DejaVuSans-6f"/>
      <use x="296.826171875" xlink:href="#DejaVuSans-6c"/>
      <use x="324.609375" xlink:href="#DejaVuSans-74"/>
      <use x="363.818359375" xlink:href="#DejaVuSans-61"/>
      <use x="425.09765625" xlink:href="#DejaVuSans-67"/>
      <use x="488.57421875" xlink:href="#DejaVuSans-65"/>
      <use x="550.09765625" xlink:href="#DejaVuSans-34"/>
     </g>
    </g>
   </g>
  </g>
 </g>
 <defs>
  <clipPath id="p7ff5b81e1d">
   <rect height="345.6" width="446.4" x="72.0" y="43.2"/>
  </clipPath>
 </defs>
</svg>
