<?xml version="1.0" encoding="utf-8" standalone="no"?>
<!DOCTYPE svg PUBLIC "-//W3C//DTD SVG 1.1//EN"
  "http://www.w3.org/Graphics/SVG/1.1/DTD/svg11.dtd">
<!-- Created with matplotlib (http://matplotlib.org/) -->
<svg height="432pt" version="1.1" viewBox="0 0 576 432" width="576pt" xmlns="http://www.w3.org/2000/svg" xmlns:xlink="http://www.w3.org/1999/xlink">
 <defs>
  <style type="text/css">
*{stroke-linecap:butt;stroke-linejoin:round;}
  </style>
 </defs>
 <g id="figure_1">
  <g id="patch_1">
   <path d="
M0 432
L576 432
L576 0
L0 0
z
" style="fill:#ffffff;"/>
  </g>
  <g id="axes_1">
   <g id="patch_2">
    <path d="
M72 388.8
L518.4 388.8
L518.4 43.2
L72 43.2
z
" style="fill:#ffffff;"/>
   </g>
   <g id="line2d_1">
    <path clip-path="url(#p7ff5b81e1d)" d="
M105.521 43.2
L148.603 43.2
L148.955 73.926
L150.008 130.578
L150.46 142.789
L152.28 198.055
L152.882 212.114
L153.222 216.651
L153.411 221.428
L154.198 230.071
L154.361 231.001
L154.628 233.763
L154.739 241.869
L154.913 246.178
L155.298 249.947
L155.79 251.918
L155.859 252.992
L156.141 255.285
L156.321 258.781
L156.736 259.342
L157.15 265.499
L157.437 269.421
L157.819 269.651
L157.98 269.481
L158.658 278.355
L158.809 277.925
L159.532 283.332
L160.432 302.129
L160.638 302.4
L162.546 302.4
L162.714 301.368
L163.208 296.92
L163.402 297.409
L163.613 301.635
L163.84 302.4
L164.218 302.4
L164.366 301.971
L164.597 302.4
L164.873 302.4
L164.968 302.188
L165.093 300.09
L165.278 299.811
L165.324 302.4
L171.116 302.4
L171.174 302.233
L171.49 302.4
L172.004 302.4
L172.328 301.068
L172.475 298.61
L172.624 298.081
L172.787 295.841
L173.127 300.987
L173.288 300.318
L173.507 302.4
L174.363 302.4
L174.528 301.483
L174.803 301.316
L175.06 302.4
L175.915 302.4
L176.072 300.842
L176.963 297.48
L177.224 294.041
L177.434 293.908
L177.633 292.759
L177.706 290.146
L179.181 276.124
L179.425 274.305
L180.559 255.646
L182.746 225.647
L182.789 223.158
L183.689 213.57
L183.827 211.196
L184.115 208.835
L184.659 202.652
L185.059 199.644
L185.206 197.842
L185.497 196.523
L185.532 194.856
L185.865 191.136
L186.227 186.982
L186.831 180.286
L187.261 176.352
L187.376 175.263
L187.967 173.81
L188.289 172.759
L188.475 172.777
L189.059 170.441
L189.25 170.045
L189.528 168.883
L190.232 169.471
L190.35 170.182
L190.777 170.837
L190.861 171.263
L191.028 171.41
L191.338 173.473
L192.366 177.548
L192.481 177.478
L192.709 178.052
L193.143 181.062
L193.981 187.584
L194.364 189.115
L195.099 196.917
L195.493 202.825
L196.236 209.329
L196.276 211.725
L196.943 220.165
L197.176 224.629
L197.881 233.582
L198.588 242.31
L198.863 244.428
L199.065 248.54
L199.66 254.857
L199.994 259.075
L202.198 285.201
L202.374 286.808
L202.44 288.517
L202.845 292.062
L203.134 293.807
L203.537 295.201
L203.95 299.195
L204.137 300.137
L204.257 301.364
L204.469 302.4
L211.23 302.4
L211.465 301.85
L211.559 301.133
L211.81 300.71
L212.126 299.409
L213.293 296.549
L215.122 286.73
L215.345 285.781
L215.401 284.805
L216.143 280.494
L217.314 272.506
L217.564 271.306
L217.955 267.876
L218.194 266.749
L218.621 263.361
L219.118 259.981
L219.533 256.639
L219.806 254.418
L221.295 243.996
L222.813 236.712
L223.402 234.855
L223.798 234.199
L224.66 231.468
L225.104 230.701
L225.473 230.499
L225.962 229.823
L226.095 229.686
L226.421 229.945
L226.581 229.822
L227.58 228.33
L227.97 228.492
L228.864 229.512
L229.002 229.163
L229.299 229.249
L229.781 229.575
L231.137 230.631
L231.512 231.275
L231.967 232.784
L233.902 240.34
L234.207 241.808
L234.545 243.323
L234.862 244.069
L235.04 244.835
L235.114 245.667
L235.618 246.476
L236.134 249.851
L237.12 255.578
L237.604 257.153
L237.663 257.952
L238.378 261.156
L238.814 263.43
L241.707 275.003
L242.245 276.522
L242.455 277.416
L242.998 278.584
L243.441 279.255
L243.694 279.351
L244.72 279.286
L245.008 279.081
L245.24 279.152
L245.815 280.301
L245.998 280.439
L246.252 280.436
L246.587 280.533
L246.943 280.867
L247.449 281.004
L248.194 280.735
L248.807 280.037
L249.511 279.218
L250.578 276.607
L252.29 272.64
L252.497 271.53
L252.911 269.806
L253.084 269.211
L253.374 268.637
L253.602 267.457
L254.959 264.242
L255.469 263.118
L255.587 262.549
L255.914 261.98
L256.041 260.835
L256.364 259.692
L256.537 259.145
L257.008 258.082
L257.19 257.078
L258.719 252.184
L259.06 251.309
L259.856 249.299
L260.62 247.906
L260.767 247.595
L261.278 247.093
L261.481 246.741
L261.772 246.355
L262.122 246.174
L262.268 245.856
L263.039 245.531
L263.778 245.772
L263.946 245.865
L264.155 245.846
L264.506 245.292
L264.816 245.07
L265.194 244.704
L265.874 244.438
L266.385 244.438
L266.916 244.651
L267.423 245.023
L267.968 246.064
L268.321 246.575
L270.165 249.33
L270.844 250.246
L271.395 251.218
L272.066 253.01
L272.756 254.122
L273.054 254.459
L274.093 257.258
L275.89 260.937
L277.105 263.31
L277.512 264.194
L278.164 264.962
L278.219 265.202
L280.447 268.102
L281.221 268.362
L282.162 268.574
L282.335 268.588
L283.785 268.788
L284.254 268.555
L284.328 268.776
L285.092 268.83
L285.898 268.642
L286.011 268.505
L286.491 268.256
L286.521 268.162
L287.139 267.878
L287.969 267.356
L288.84 266.926
L288.918 266.734
L289.457 266.416
L289.895 265.839
L290.228 265.347
L291.25 264.181
L291.321 263.969
L291.68 263.609
L291.965 263.18
L293.206 261.538
L293.748 261.021
L294.023 260.241
L294.139 260.014
L294.416 259.792
L294.781 259.096
L295.513 258.223
L295.917 257.602
L296.135 257.187
L296.43 256.772
L297.09 255.782
L297.327 255.404
L297.969 254.7
L299.101 253.752
L299.609 253.212
L300.629 252.65
L300.744 252.58
L302.168 252.535
L302.351 252.455
L302.769 252.554
L302.985 252.68
L304.828 252.996
L305.29 253.443
L307.387 254.81
L307.952 255.354
L308.098 255.495
L308.57 255.781
L309.613 256.918
L309.895 257.247
L310.269 257.734
L311.519 259.209
L312.291 260.009
L312.649 260.451
L314.068 261.511
L315.748 262.218
L316.124 262.615
L316.84 263.232
L317.845 263.786
L319.051 264.075
L319.925 264.037
L322.193 263.441
L322.415 263.307
L322.943 263.05
L324.459 262.1
L325.049 261.881
L325.627 261.326
L326.832 260.973
L327.429 260.59
L328.021 260.236
L328.27 259.995
L329.138 259.394
L330.207 258.48
L331.32 257.745
L331.547 257.551
L331.886 257.272
L332.757 256.87
L334.744 256.029
L336.197 255.95
L337.327 256.059
L338.77 256.43
L339.579 256.811
L341.596 257.868
L341.835 258.03
L344.105 259.188
L346.038 259.827
L347.94 260.761
L350.056 261.372
L351.272 261.475
L352.392 261.369
L354.65 260.783
L355.696 260.41
L361.182 258.764
L361.622 258.548
L363.227 258.148
L365.22 257.795
L367.372 257.667
L370.959 258.025
L373.342 258.508
L375.099 258.802
L378.635 259.423
L381.627 259.767
L381.976 259.887
L386.618 260.407
L388.862 260.337
L391.29 260.082
L402.391 258.536
L405.823 258.413
L409.48 258.616
L413.194 258.973
L418.827 259.52
L420.897 259.626
L426.468 259.65
L436.235 259.181
L445.059 258.862
L450.231 258.936
L458.573 259.272
L463.908 259.426
L469.466 259.366
L475.534 259.168
L475.534 259.168" style="fill:none;stroke:#bf00bf;stroke-linecap:square;"/>
   </g>
   <g id="line2d_2">
    <path clip-path="url(#p7ff5b81e1d)" d="
M108.45 43.2
L475.135 43.2
L475.135 43.2" style="fill:none;stroke:#00bfbf;stroke-linecap:square;"/>
   </g>
   <g id="line2d_3">
    <path clip-path="url(#p7ff5b81e1d)" d="
M108.572 43.2
L131.291 388.8
L132.948 43.2
L475.887 43.2
L475.887 43.2" style="fill:none;stroke:#ff0000;stroke-linecap:square;"/>
   </g>
   <g id="line2d_4">
    <path clip-path="url(#p7ff5b81e1d)" d="
M105.742 43.2
L174.289 43.2
L174.615 57.8737
L175.11 69.3434
L175.441 83.2634
L175.751 92.1618
L176.243 100.681
L176.524 109.188
L176.885 111.551
L176.989 113.045
L177.391 114.126
L177.522 118.362
L177.74 119.508
L178.018 131.83
L180.058 169.906
L180.413 174.718
L180.638 179.348
L180.863 181.632
L181.091 185.971
L181.548 190.027
L181.631 191.94
L182.139 197.325
L182.275 198.989
L182.537 200.553
L182.636 202.033
L182.936 203.445
L183.233 205.968
L183.556 207.12
L183.817 209.231
L185.486 219.045
L186.356 221.66
L186.667 220.761
L187.003 220.678
L187.278 220.67
L187.802 220.489
L188.195 222.389
L188.595 222.509
L188.699 222.439
L188.855 222.166
L189.348 220.029
L189.427 219.337
L189.616 218.661
L189.947 217.967
L190.195 218.098
L190.219 217.744
L190.323 217.991
L190.508 217.812
L190.621 218.114
L191.016 217.119
L191.078 216.357
L191.466 214.357
L192.14 209.525
L192.288 208.248
L192.456 207.772
L192.654 206.847
L193.55 198.555
L193.967 195.872
L194.531 195.169
L195.14 190.916
L195.739 187.372
L195.976 186.401
L196.193 184.313
L196.464 183.14
L196.866 180.003
L197.091 178.979
L197.549 175.362
L197.77 174.188
L198.122 172.975
L198.132 171.73
L198.54 170.378
L198.62 167.693
L198.71 166.511
L199.131 164.081
L199.348 160.571
L199.765 159.457
L199.778 158.32
L201.384 149.181
L202.691 145.064
L203.16 144.282
L204.045 140.609
L204.091 140.059
L204.794 138.077
L204.932 137.899
L205.231 137.861
L205.367 137.297
L205.693 137.116
L205.844 137.241
L205.967 136.806
L206.694 136.836
L206.836 137.024
L207.067 138.561
L208.018 141.896
L208.372 143.034
L208.757 142.999
L209.078 143.786
L209.149 143.74
L209.663 145.392
L209.975 147.345
L211.361 151.004
L211.501 151.024
L211.861 151.981
L212.142 153.549
L213.062 157.373
L213.258 157.714
L214.486 162.953
L214.928 165.267
L215.16 166.03
L215.461 167.312
L216.055 169.391
L216.266 169.939
L216.784 172.399
L217.004 172.961
L217.391 174.988
L217.769 176.279
L218.07 177.542
L218.554 179.348
L218.916 181.022
L219.266 182.059
L219.677 183.446
L220.031 184.258
L220.619 185.67
L221.173 186.758
L221.412 187.447
L221.611 187.727
L221.944 188.524
L222.533 189.258
L223.256 189.597
L223.726 189.673
L223.956 189.98
L224.071 190.404
L224.427 190.735
L225.35 190.312
L225.717 190.51
L225.973 191.23
L226.272 191.33
L226.401 191.1
L226.874 190.944
L226.944 191.127
L227.14 190.854
L227.362 190.918
L227.626 190.851
L228.203 191.077
L228.431 191.297
L228.551 191.09
L228.659 191.14
L229.087 189.875
L229.835 187.741
L230.2 186.718
L230.32 186.532
L230.571 185.716
L233.114 178.63
L233.376 177.69
L233.914 176.297
L235.053 173.756
L235.539 173.376
L235.549 172.961
L236.093 171.576
L236.919 169.472
L237.085 169.072
L237.104 168.675
L237.674 167.52
L238.08 166.4
L238.361 166.056
L238.779 165.069
L240.605 162.652
L242.499 161.299
L243.348 161.098
L243.527 160.836
L244.438 160.541
L244.56 159.641
L244.962 159.281
L245.048 159.253
L245.715 160.039
L245.856 160.007
L246.089 160.277
L247.32 162.448
L247.466 162.512
L247.738 162.976
L247.829 163.26
L248.407 164.147
L248.964 165.081
L249.217 165.215
L252.102 170.412
L252.444 170.662
L252.851 171.552
L254.305 173.668
L255.601 174.677
L255.871 174.855
L256.7 176.396
L257.083 176.888
L257.515 177.579
L257.946 178.197
L259.202 179.406
L259.707 179.709
L260.165 180.126
L261.226 180.549
L261.909 180.818
L262.591 180.963
L262.954 181.135
L262.998 181.326
L263.83 182.088
L264.122 182.12
L264.851 181.241
L265.556 180.395
L266.4 179.571
L266.565 179.377
L267.025 179.184
L267.044 178.99
L267.649 178.733
L267.915 178.481
L268.335 178.349
L268.795 178.274
L268.986 177.835
L269.557 177.146
L270.086 176.412
L271.089 175.276
L271.409 175.157
L271.461 174.975
L271.715 174.659
L272.398 173.595
L273.445 172.867
L273.877 171.994
L274.218 171.58
L274.648 170.983
L276.012 169.613
L276.434 169.327
L276.778 168.871
L277.244 168.536
L277.545 168.335
L278.104 168.006
L278.508 167.721
L278.825 167.601
L279.869 167.171
L280.461 166.729
L281.961 166.515
L282.04 167.066
L282.09 167.058
L282.192 166.799
L282.551 166.833
L283.571 166.957
L284.077 166.803
L284.182 166.839
L284.421 167.139
L284.766 167.407
L285.647 167.346
L286.206 167.226
L286.227 167.267
L286.608 167.304
L286.67 167.458
L287.222 167.556
L287.592 167.659
L287.835 168.027
L288.318 168.653
L288.737 168.907
L289.153 169.425
L289.782 169.742
L290.131 170.031
L290.569 170.378
L291.757 171.462
L292.019 171.716
L292.47 172.153
L294.067 173.14
L294.618 173.7
L295.116 174.118
L297.487 175.812
L298.315 176.154
L298.887 176.316
L299.465 176.387
L301.154 176.461
L301.706 176.518
L302.304 176.402
L302.868 176.483
L304.099 176.176
L304.182 176.058
L305.021 176.073
L305.198 175.844
L306.132 175.236
L308.263 173.718
L308.785 173.469
L309.467 172.971
L312.78 171.005
L315.571 169.991
L316.964 170.088
L318.183 170.322
L321.061 170.903
L321.562 170.974
L322.64 171.372
L323.517 171.698
L324.273 172.065
L325.176 172.335
L325.841 172.633
L327.552 172.978
L329.346 173.596
L329.386 173.653
L332.206 174.374
L334.071 174.52
L336.28 174.384
L336.951 174.267
L337.359 174.227
L341.733 172.776
L344.413 172.127
L345.436 171.971
L347.241 171.639
L349.524 171.581
L351.367 171.748
L353.808 172.093
L354.953 172.417
L356.921 172.834
L360.385 173.267
L364.328 173.627
L369.125 173.513
L373.273 172.904
L375.859 172.664
L385.982 172.222
L403.254 173.225
L409.179 172.996
L418.774 172.533
L427.713 172.502
L430.071 172.629
L434.404 172.781
L443.438 173.004
L455.999 172.844
L463.722 172.677
L474.523 172.831
L474.523 172.831" style="fill:none;stroke:#008000;stroke-linecap:square;"/>
   </g>
   <g id="patch_3">
    <path d="
M518.4 388.8
L518.4 43.2" style="fill:none;stroke:#000000;stroke-linecap:square;stroke-linejoin:miter;"/>
   </g>
   <g id="patch_4">
    <path d="
M72 388.8
L72 43.2" style="fill:none;stroke:#000000;stroke-linecap:square;stroke-linejoin:miter;"/>
   </g>
   <g id="patch_5">
    <path d="
M72 43.2
L518.4 43.2" style="fill:none;stroke:#000000;stroke-linecap:square;stroke-linejoin:miter;"/>
   </g>
   <g id="patch_6">
    <path d="
M72 388.8
L518.4 388.8" style="fill:none;stroke:#000000;stroke-linecap:square;stroke-linejoin:miter;"/>
   </g>
   <g id="matplotlib.axis_1">
    <g id="xtick_1">
     <g id="line2d_5">
      <path clip-path="url(#p7ff5b81e1d)" d="
M72 388.8
L72 43.2" style="fill:none;stroke:#000000;stroke-dasharray:3.000000,5.000000,1.000000,5.000000;stroke-dashoffset:0.0;stroke-width:0.5;"/>
     </g>
     <g id="line2d_6">
      <defs>
       <path d="
M0 0
L0 -4" id="mc7db9fdffb" style="stroke:#000000;stroke-width:0.5;"/>
      </defs>
      <g>
       <use style="stroke:#000000;stroke-width:0.5;" x="72.0" xlink:href="#mc7db9fdffb" y="388.8"/>
      </g>
     </g>
     <g id="line2d_7">
      <defs>
       <path d="
M0 0
L0 4" id="m5a7d422ac3" style="stroke:#000000;stroke-width:0.5;"/>
      </defs>
      <g>
       <use style="stroke:#000000;stroke-width:0.5;" x="72.0" xlink:href="#m5a7d422ac3" y="43.2"/>
      </g>
     </g>
     <g id="text_1">
      <!-- 0 -->
      <defs>
       <path d="
M31.7812 66.4062
Q24.1719 66.4062 20.3281 58.9062
Q16.5 51.4219 16.5 36.375
Q16.5 21.3906 20.3281 13.8906
Q24.1719 6.39062 31.7812 6.39062
Q39.4531 6.39062 43.2812 13.8906
Q47.125 21.3906 47.125 36.375
Q47.125 51.4219 43.2812 58.9062
Q39.4531 66.4062 31.7812 66.4062
M31.7812 74.2188
Q44.0469 74.2188 50.5156 64.5156
Q56.9844 54.8281 56.9844 36.375
Q56.9844 17.9688 50.5156 8.26562
Q44.0469 -1.42188 31.7812 -1.42188
Q19.5312 -1.42188 13.0625 8.26562
Q6.59375 17.9688 6.59375 36.375
Q6.59375 54.8281 13.0625 64.5156
Q19.5312 74.2188 31.7812 74.2188" id="DejaVuSans-30"/>
      </defs>
      <g transform="translate(68.9765625 401.918125)scale(0.12 -0.12)">
       <use xlink:href="#DejaVuSans-30"/>
      </g>
     </g>
    </g>
    <g id="xtick_2">
     <g id="line2d_8">
      <path clip-path="url(#p7ff5b81e1d)" d="
M146.4 388.8
L146.4 43.2" style="fill:none;stroke:#000000;stroke-dasharray:3.000000,5.000000,1.000000,5.000000;stroke-dashoffset:0.0;stroke-width:0.5;"/>
     </g>
     <g id="line2d_9">
      <g>
       <use style="stroke:#000000;stroke-width:0.5;" x="146.4" xlink:href="#mc7db9fdffb" y="388.8"/>
      </g>
     </g>
     <g id="line2d_10">
      <g>
       <use style="stroke:#000000;stroke-width:0.5;" x="146.4" xlink:href="#m5a7d422ac3" y="43.2"/>
      </g>
     </g>
     <g id="text_2">
      <!-- 20 -->
      <defs>
       <path d="
M19.1875 8.29688
L53.6094 8.29688
L53.6094 0
L7.32812 0
L7.32812 8.29688
Q12.9375 14.1094 22.625 23.8906
Q32.3281 33.6875 34.8125 36.5312
Q39.5469 41.8438 41.4219 45.5312
Q43.3125 49.2188 43.3125 52.7812
Q43.3125 58.5938 39.2344 62.25
Q35.1562 65.9219 28.6094 65.9219
Q23.9688 65.9219 18.8125 64.3125
Q13.6719 62.7031 7.8125 59.4219
L7.8125 69.3906
Q13.7656 71.7812 18.9375 73
Q24.125 74.2188 28.4219 74.2188
Q39.75 74.2188 46.4844 68.5469
Q53.2188 62.8906 53.2188 53.4219
Q53.2188 48.9219 51.5312 44.8906
Q49.8594 40.875 45.4062 35.4062
Q44.1875 33.9844 37.6406 27.2188
Q31.1094 20.4531 19.1875 8.29688" id="DejaVuSans-32"/>
      </defs>
      <g transform="translate(139.603125 401.918125)scale(0.12 -0.12)">
       <use xlink:href="#DejaVuSans-32"/>
       <use x="63.623046875" xlink:href="#DejaVuSans-30"/>
      </g>
     </g>
    </g>
    <g id="xtick_3">
     <g id="line2d_11">
      <path clip-path="url(#p7ff5b81e1d)" d="
M220.8 388.8
L220.8 43.2" style="fill:none;stroke:#000000;stroke-dasharray:3.000000,5.000000,1.000000,5.000000;stroke-dashoffset:0.0;stroke-width:0.5;"/>
     </g>
     <g id="line2d_12">
      <g>
       <use style="stroke:#000000;stroke-width:0.5;" x="220.8" xlink:href="#mc7db9fdffb" y="388.8"/>
      </g>
     </g>
     <g id="line2d_13">
      <g>
       <use style="stroke:#000000;stroke-width:0.5;" x="220.8" xlink:href="#m5a7d422ac3" y="43.2"/>
      </g>
     </g>
     <g id="text_3">
      <!-- 40 -->
      <defs>
       <path d="
M37.7969 64.3125
L12.8906 25.3906
L37.7969 25.3906
z

M35.2031 72.9062
L47.6094 72.9062
L47.6094 25.3906
L58.0156 25.3906
L58.0156 17.1875
L47.6094 17.1875
L47.6094 0
L37.7969 0
L37.7969 17.1875
L4.89062 17.1875
L4.89062 26.7031
z
" id="DejaVuSans-34"/>
      </defs>
      <g transform="translate(213.856875 401.918125)scale(0.12 -0.12)">
       <use xlink:href="#DejaVuSans-34"/>
       <use x="63.623046875" xlink:href="#DejaVuSans-30"/>
      </g>
     </g>
    </g>
    <g id="xtick_4">
     <g id="line2d_14">
      <path clip-path="url(#p7ff5b81e1d)" d="
M295.2 388.8
L295.2 43.2" style="fill:none;stroke:#000000;stroke-dasharray:3.000000,5.000000,1.000000,5.000000;stroke-dashoffset:0.0;stroke-width:0.5;"/>
     </g>
     <g id="line2d_15">
      <g>
       <use style="stroke:#000000;stroke-width:0.5;" x="295.2" xlink:href="#mc7db9fdffb" y="388.8"/>
      </g>
     </g>
     <g id="line2d_16">
      <g>
       <use style="stroke:#000000;stroke-width:0.5;" x="295.2" xlink:href="#m5a7d422ac3" y="43.2"/>
      </g>
     </g>
     <g id="text_4">
      <!-- 60 -->
      <defs>
       <path d="
M33.0156 40.375
Q26.375 40.375 22.4844 35.8281
Q18.6094 31.2969 18.6094 23.3906
Q18.6094 15.5312 22.4844 10.9531
Q26.375 6.39062 33.0156 6.39062
Q39.6562 6.39062 43.5312 10.9531
Q47.4062 15.5312 47.4062 23.3906
Q47.4062 31.2969 43.5312 35.8281
Q39.6562 40.375 33.0156 40.375
M52.5938 71.2969
L52.5938 62.3125
Q48.875 64.0625 45.0938 64.9844
Q41.3125 65.9219 37.5938 65.9219
Q27.8281 65.9219 22.6719 59.3281
Q17.5312 52.7344 16.7969 39.4062
Q19.6719 43.6562 24.0156 45.9219
Q28.375 48.1875 33.5938 48.1875
Q44.5781 48.1875 50.9531 41.5156
Q57.3281 34.8594 57.3281 23.3906
Q57.3281 12.1562 50.6875 5.35938
Q44.0469 -1.42188 33.0156 -1.42188
Q20.3594 -1.42188 13.6719 8.26562
Q6.98438 17.9688 6.98438 36.375
Q6.98438 53.6562 15.1875 63.9375
Q23.3906 74.2188 37.2031 74.2188
Q40.9219 74.2188 44.7031 73.4844
Q48.4844 72.75 52.5938 71.2969" id="DejaVuSans-36"/>
      </defs>
      <g transform="translate(288.3825 401.918125)scale(0.12 -0.12)">
       <use xlink:href="#DejaVuSans-36"/>
       <use x="63.623046875" xlink:href="#DejaVuSans-30"/>
      </g>
     </g>
    </g>
    <g id="xtick_5">
     <g id="line2d_17">
      <path clip-path="url(#p7ff5b81e1d)" d="
M369.6 388.8
L369.6 43.2" style="fill:none;stroke:#000000;stroke-dasharray:3.000000,5.000000,1.000000,5.000000;stroke-dashoffset:0.0;stroke-width:0.5;"/>
     </g>
     <g id="line2d_18">
      <g>
       <use style="stroke:#000000;stroke-width:0.5;" x="369.6" xlink:href="#mc7db9fdffb" y="388.8"/>
      </g>
     </g>
     <g id="line2d_19">
      <g>
       <use style="stroke:#000000;stroke-width:0.5;" x="369.6" xlink:href="#m5a7d422ac3" y="43.2"/>
      </g>
     </g>
     <g id="text_5">
      <!-- 80 -->
      <defs>
       <path d="
M31.7812 34.625
Q24.75 34.625 20.7188 30.8594
Q16.7031 27.0938 16.7031 20.5156
Q16.7031 13.9219 20.7188 10.1562
Q24.75 6.39062 31.7812 6.39062
Q38.8125 6.39062 42.8594 10.1719
Q46.9219 13.9688 46.9219 20.5156
Q46.9219 27.0938 42.8906 30.8594
Q38.875 34.625 31.7812 34.625
M21.9219 38.8125
Q15.5781 40.375 12.0312 44.7188
Q8.5 49.0781 8.5 55.3281
Q8.5 64.0625 14.7188 69.1406
Q20.9531 74.2188 31.7812 74.2188
Q42.6719 74.2188 48.875 69.1406
Q55.0781 64.0625 55.0781 55.3281
Q55.0781 49.0781 51.5312 44.7188
Q48 40.375 41.7031 38.8125
Q48.8281 37.1562 52.7969 32.3125
Q56.7812 27.4844 56.7812 20.5156
Q56.7812 9.90625 50.3125 4.23438
Q43.8438 -1.42188 31.7812 -1.42188
Q19.7344 -1.42188 13.25 4.23438
Q6.78125 9.90625 6.78125 20.5156
Q6.78125 27.4844 10.7812 32.3125
Q14.7969 37.1562 21.9219 38.8125
M18.3125 54.3906
Q18.3125 48.7344 21.8438 45.5625
Q25.3906 42.3906 31.7812 42.3906
Q38.1406 42.3906 41.7188 45.5625
Q45.3125 48.7344 45.3125 54.3906
Q45.3125 60.0625 41.7188 63.2344
Q38.1406 66.4062 31.7812 66.4062
Q25.3906 66.4062 21.8438 63.2344
Q18.3125 60.0625 18.3125 54.3906" id="DejaVuSans-38"/>
      </defs>
      <g transform="translate(362.7703125 401.918125)scale(0.12 -0.12)">
       <use xlink:href="#DejaVuSans-38"/>
       <use x="63.623046875" xlink:href="#DejaVuSans-30"/>
      </g>
     </g>
    </g>
    <g id="xtick_6">
     <g id="line2d_20">
      <path clip-path="url(#p7ff5b81e1d)" d="
M444 388.8
L444 43.2" style="fill:none;stroke:#000000;stroke-dasharray:3.000000,5.000000,1.000000,5.000000;stroke-dashoffset:0.0;stroke-width:0.5;"/>
     </g>
     <g id="line2d_21">
      <g>
       <use style="stroke:#000000;stroke-width:0.5;" x="444.0" xlink:href="#mc7db9fdffb" y="388.8"/>
      </g>
     </g>
     <g id="line2d_22">
      <g>
       <use style="stroke:#000000;stroke-width:0.5;" x="444.0" xlink:href="#m5a7d422ac3" y="43.2"/>
      </g>
     </g>
     <g id="text_6">
      <!-- 100 -->
      <defs>
       <path d="
M12.4062 8.29688
L28.5156 8.29688
L28.5156 63.9219
L10.9844 60.4062
L10.9844 69.3906
L28.4219 72.9062
L38.2812 72.9062
L38.2812 8.29688
L54.3906 8.29688
L54.3906 0
L12.4062 0
z
" id="DejaVuSans-31"/>
      </defs>
      <g transform="translate(433.605 401.918125)scale(0.12 -0.12)">
       <use xlink:href="#DejaVuSans-31"/>
       <use x="63.623046875" xlink:href="#DejaVuSans-30"/>
       <use x="127.24609375" xlink:href="#DejaVuSans-30"/>
      </g>
     </g>
    </g>
    <g id="xtick_7">
     <g id="line2d_23">
      <path clip-path="url(#p7ff5b81e1d)" d="
M518.4 388.8
L518.4 43.2" style="fill:none;stroke:#000000;stroke-dasharray:3.000000,5.000000,1.000000,5.000000;stroke-dashoffset:0.0;stroke-width:0.5;"/>
     </g>
     <g id="line2d_24">
      <g>
       <use style="stroke:#000000;stroke-width:0.5;" x="518.4" xlink:href="#mc7db9fdffb" y="388.8"/>
      </g>
     </g>
     <g id="line2d_25">
      <g>
       <use style="stroke:#000000;stroke-width:0.5;" x="518.4" xlink:href="#m5a7d422ac3" y="43.2"/>
      </g>
     </g>
     <g id="text_7">
      <!-- 120 -->
      <g transform="translate(508.005 401.918125)scale(0.12 -0.12)">
       <use xlink:href="#DejaVuSans-31"/>
       <use x="63.623046875" xlink:href="#DejaVuSans-32"/>
       <use x="127.24609375" xlink:href="#DejaVuSans-30"/>
      </g>
     </g>
    </g>
    <g id="text_8">
     <!-- Time -->
     <defs>
      <path d="
M9.42188 54.6875
L18.4062 54.6875
L18.4062 0
L9.42188 0
z

M9.42188 75.9844
L18.4062 75.9844
L18.4062 64.5938
L9.42188 64.5938
z
" id="DejaVuSans-69"/>
      <path d="
M-0.296875 72.9062
L61.375 72.9062
L61.375 64.5938
L35.5 64.5938
L35.5 0
L25.5938 0
L25.5938 64.5938
L-0.296875 64.5938
z
" id="DejaVuSans-54"/>
      <path d="
M52 44.1875
Q55.375 50.25 60.0625 53.125
Q64.75 56 71.0938 56
Q79.6406 56 84.2812 50.0156
Q88.9219 44.0469 88.9219 33.0156
L88.9219 0
L79.8906 0
L79.8906 32.7188
Q79.8906 40.5781 77.0938 44.375
Q74.3125 48.1875 68.6094 48.1875
Q61.625 48.1875 57.5625 43.5469
Q53.5156 38.9219 53.5156 30.9062
L53.5156 0
L44.4844 0
L44.4844 32.7188
Q44.4844 40.625 41.7031 44.4062
Q38.9219 48.1875 33.1094 48.1875
Q26.2188 48.1875 22.1562 43.5312
Q18.1094 38.875 18.1094 30.9062
L18.1094 0
L9.07812 0
L9.07812 54.6875
L18.1094 54.6875
L18.1094 46.1875
Q21.1875 51.2188 25.4844 53.6094
Q29.7812 56 35.6875 56
Q41.6562 56 45.8281 52.9688
Q50 49.9531 52 44.1875" id="DejaVuSans-6d"/>
      <path d="
M56.2031 29.5938
L56.2031 25.2031
L14.8906 25.2031
Q15.4844 15.9219 20.4844 11.0625
Q25.4844 6.20312 34.4219 6.20312
Q39.5938 6.20312 44.4531 7.46875
Q49.3125 8.73438 54.1094 11.2812
L54.1094 2.78125
Q49.2656 0.734375 44.1875 -0.34375
Q39.1094 -1.42188 33.8906 -1.42188
Q20.7969 -1.42188 13.1562 6.1875
Q5.51562 13.8125 5.51562 26.8125
Q5.51562 40.2344 12.7656 48.1094
Q20.0156 56 32.3281 56
Q43.3594 56 49.7812 48.8906
Q56.2031 41.7969 56.2031 29.5938
M47.2188 32.2344
Q47.125 39.5938 43.0938 43.9844
Q39.0625 48.3906 32.4219 48.3906
Q24.9062 48.3906 20.3906 44.1406
Q15.875 39.8906 15.1875 32.1719
z
" id="DejaVuSans-65"/>
     </defs>
     <g transform="translate(278.42515625 420.0515625)scale(0.14 -0.14)">
      <use xlink:href="#DejaVuSans-54"/>
      <use x="57.958984375" xlink:href="#DejaVuSans-69"/>
      <use x="85.7421875" xlink:href="#DejaVuSans-6d"/>
      <use x="183.154296875" xlink:href="#DejaVuSans-65"/>
     </g>
    </g>
   </g>
   <g id="matplotlib.axis_2">
    <g id="ytick_1">
     <g id="line2d_26">
      <path clip-path="url(#p7ff5b81e1d)" d="
M72 388.8
L518.4 388.8" style="fill:none;stroke:#000000;stroke-dasharray:3.000000,5.000000,1.000000,5.000000;stroke-dashoffset:0.0;stroke-width:0.5;"/>
     </g>
     <g id="line2d_27">
      <defs>
       <path d="
M0 0
L4 0" id="md7965d1ba0" style="stroke:#000000;stroke-width:0.5;"/>
      </defs>
      <g>
       <use style="stroke:#000000;stroke-width:0.5;" x="72.0" xlink:href="#md7965d1ba0" y="388.8"/>
      </g>
     </g>
     <g id="line2d_28">
      <defs>
       <path d="
M0 0
L-4 0" id="md9a1c1a7cd" style="stroke:#000000;stroke-width:0.5;"/>
      </defs>
      <g>
       <use style="stroke:#000000;stroke-width:0.5;" x="518.4" xlink:href="#md9a1c1a7cd" y="388.8"/>
      </g>
     </g>
     <g id="text_9">
      <!-- −40000 -->
      <defs>
       <path d="
M10.5938 35.5
L73.1875 35.5
L73.1875 27.2031
L10.5938 27.2031
z
" id="DejaVuSans-2212"/>
      </defs>
      <g transform="translate(21.8375 392.11125)scale(0.12 -0.12)">
       <use xlink:href="#DejaVuSans-2212"/>
       <use x="83.7890625" xlink:href="#DejaVuSans-34"/>
       <use x="147.412109375" xlink:href="#DejaVuSans-30"/>
       <use x="211.03515625" xlink:href="#DejaVuSans-30"/>
       <use x="274.658203125" xlink:href="#DejaVuSans-30"/>
       <use x="338.28125" xlink:href="#DejaVuSans-30"/>
      </g>
     </g>
    </g>
    <g id="ytick_2">
     <g id="line2d_29">
      <path clip-path="url(#p7ff5b81e1d)" d="
M72 345.6
L518.4 345.6" style="fill:none;stroke:#000000;stroke-dasharray:3.000000,5.000000,1.000000,5.000000;stroke-dashoffset:0.0;stroke-width:0.5;"/>
     </g>
     <g id="line2d_30">
      <g>
       <use style="stroke:#000000;stroke-width:0.5;" x="72.0" xlink:href="#md7965d1ba0" y="345.6"/>
      </g>
     </g>
     <g id="line2d_31">
      <g>
       <use style="stroke:#000000;stroke-width:0.5;" x="518.4" xlink:href="#md9a1c1a7cd" y="345.6"/>
      </g>
     </g>
     <g id="text_10">
      <!-- −35000 -->
      <defs>
       <path d="
M10.7969 72.9062
L49.5156 72.9062
L49.5156 64.5938
L19.8281 64.5938
L19.8281 46.7344
Q21.9688 47.4688 24.1094 47.8281
Q26.2656 48.1875 28.4219 48.1875
Q40.625 48.1875 47.75 41.5
Q54.8906 34.8125 54.8906 23.3906
Q54.8906 11.625 47.5625 5.09375
Q40.2344 -1.42188 26.9062 -1.42188
Q22.3125 -1.42188 17.5469 -0.640625
Q12.7969 0.140625 7.71875 1.70312
L7.71875 11.625
Q12.1094 9.23438 16.7969 8.0625
Q21.4844 6.89062 26.7031 6.89062
Q35.1562 6.89062 40.0781 11.3281
Q45.0156 15.7656 45.0156 23.3906
Q45.0156 31 40.0781 35.4375
Q35.1562 39.8906 26.7031 39.8906
Q22.75 39.8906 18.8125 39.0156
Q14.8906 38.1406 10.7969 36.2812
z
" id="DejaVuSans-35"/>
       <path d="
M40.5781 39.3125
Q47.6562 37.7969 51.625 33
Q55.6094 28.2188 55.6094 21.1875
Q55.6094 10.4062 48.1875 4.48438
Q40.7656 -1.42188 27.0938 -1.42188
Q22.5156 -1.42188 17.6562 -0.515625
Q12.7969 0.390625 7.625 2.20312
L7.625 11.7188
Q11.7188 9.32812 16.5938 8.10938
Q21.4844 6.89062 26.8125 6.89062
Q36.0781 6.89062 40.9375 10.5469
Q45.7969 14.2031 45.7969 21.1875
Q45.7969 27.6406 41.2812 31.2656
Q36.7656 34.9062 28.7188 34.9062
L20.2188 34.9062
L20.2188 43.0156
L29.1094 43.0156
Q36.375 43.0156 40.2344 45.9219
Q44.0938 48.8281 44.0938 54.2969
Q44.0938 59.9062 40.1094 62.9062
Q36.1406 65.9219 28.7188 65.9219
Q24.6562 65.9219 20.0156 65.0312
Q15.375 64.1562 9.8125 62.3125
L9.8125 71.0938
Q15.4375 72.6562 20.3438 73.4375
Q25.25 74.2188 29.5938 74.2188
Q40.8281 74.2188 47.3594 69.1094
Q53.9062 64.0156 53.9062 55.3281
Q53.9062 49.2656 50.4375 45.0938
Q46.9688 40.9219 40.5781 39.3125" id="DejaVuSans-33"/>
      </defs>
      <g transform="translate(21.8375 348.91125)scale(0.12 -0.12)">
       <use xlink:href="#DejaVuSans-2212"/>
       <use x="83.7890625" xlink:href="#DejaVuSans-33"/>
       <use x="147.412109375" xlink:href="#DejaVuSans-35"/>
       <use x="211.03515625" xlink:href="#DejaVuSans-30"/>
       <use x="274.658203125" xlink:href="#DejaVuSans-30"/>
       <use x="338.28125" xlink:href="#DejaVuSans-30"/>
      </g>
     </g>
    </g>
    <g id="ytick_3">
     <g id="line2d_32">
      <path clip-path="url(#p7ff5b81e1d)" d="
M72 302.4
L518.4 302.4" style="fill:none;stroke:#000000;stroke-dasharray:3.000000,5.000000,1.000000,5.000000;stroke-dashoffset:0.0;stroke-width:0.5;"/>
     </g>
     <g id="line2d_33">
      <g>
       <use style="stroke:#000000;stroke-width:0.5;" x="72.0" xlink:href="#md7965d1ba0" y="302.4"/>
      </g>
     </g>
     <g id="line2d_34">
      <g>
       <use style="stroke:#000000;stroke-width:0.5;" x="518.4" xlink:href="#md9a1c1a7cd" y="302.4"/>
      </g>
     </g>
     <g id="text_11">
      <!-- −30000 -->
      <g transform="translate(21.8375 305.71125)scale(0.12 -0.12)">
       <use xlink:href="#DejaVuSans-2212"/>
       <use x="83.7890625" xlink:href="#DejaVuSans-33"/>
       <use x="147.412109375" xlink:href="#DejaVuSans-30"/>
       <use x="211.03515625" xlink:href="#DejaVuSans-30"/>
       <use x="274.658203125" xlink:href="#DejaVuSans-30"/>
       <use x="338.28125" xlink:href="#DejaVuSans-30"/>
      </g>
     </g>
    </g>
    <g id="ytick_4">
     <g id="line2d_35">
      <path clip-path="url(#p7ff5b81e1d)" d="
M72 259.2
L518.4 259.2" style="fill:none;stroke:#000000;stroke-dasharray:3.000000,5.000000,1.000000,5.000000;stroke-dashoffset:0.0;stroke-width:0.5;"/>
     </g>
     <g id="line2d_36">
      <g>
       <use style="stroke:#000000;stroke-width:0.5;" x="72.0" xlink:href="#md7965d1ba0" y="259.2"/>
      </g>
     </g>
     <g id="line2d_37">
      <g>
       <use style="stroke:#000000;stroke-width:0.5;" x="518.4" xlink:href="#md9a1c1a7cd" y="259.2"/>
      </g>
     </g>
     <g id="text_12">
      <!-- −25000 -->
      <g transform="translate(21.8375 262.51125)scale(0.12 -0.12)">
       <use xlink:href="#DejaVuSans-2212"/>
       <use x="83.7890625" xlink:href="#DejaVuSans-32"/>
       <use x="147.412109375" xlink:href="#DejaVuSans-35"/>
       <use x="211.03515625" xlink:href="#DejaVuSans-30"/>
       <use x="274.658203125" xlink:href="#DejaVuSans-30"/>
       <use x="338.28125" xlink:href="#DejaVuSans-30"/>
      </g>
     </g>
    </g>
    <g id="ytick_5">
     <g id="line2d_38">
      <path clip-path="url(#p7ff5b81e1d)" d="
M72 216
L518.4 216" style="fill:none;stroke:#000000;stroke-dasharray:3.000000,5.000000,1.000000,5.000000;stroke-dashoffset:0.0;stroke-width:0.5;"/>
     </g>
     <g id="line2d_39">
      <g>
       <use style="stroke:#000000;stroke-width:0.5;" x="72.0" xlink:href="#md7965d1ba0" y="216.0"/>
      </g>
     </g>
     <g id="line2d_40">
      <g>
       <use style="stroke:#000000;stroke-width:0.5;" x="518.4" xlink:href="#md9a1c1a7cd" y="216.0"/>
      </g>
     </g>
     <g id="text_13">
      <!-- −20000 -->
      <g transform="translate(21.8375 219.31125)scale(0.12 -0.12)">
       <use xlink:href="#DejaVuSans-2212"/>
       <use x="83.7890625" xlink:href="#DejaVuSans-32"/>
       <use x="147.412109375" xlink:href="#DejaVuSans-30"/>
       <use x="211.03515625" xlink:href="#DejaVuSans-30"/>
       <use x="274.658203125" xlink:href="#DejaVuSans-30"/>
       <use x="338.28125" xlink:href="#DejaVuSans-30"/>
      </g>
     </g>
    </g>
    <g id="ytick_6">
     <g id="line2d_41">
      <path clip-path="url(#p7ff5b81e1d)" d="
M72 172.8
L518.4 172.8" style="fill:none;stroke:#000000;stroke-dasharray:3.000000,5.000000,1.000000,5.000000;stroke-dashoffset:0.0;stroke-width:0.5;"/>
     </g>
     <g id="line2d_42">
      <g>
       <use style="stroke:#000000;stroke-width:0.5;" x="72.0" xlink:href="#md7965d1ba0" y="172.8"/>
      </g>
     </g>
     <g id="line2d_43">
      <g>
       <use style="stroke:#000000;stroke-width:0.5;" x="518.4" xlink:href="#md9a1c1a7cd" y="172.8"/>
      </g>
     </g>
     <g id="text_14">
      <!-- −15000 -->
      <g transform="translate(21.8375 176.11125)scale(0.12 -0.12)">
       <use xlink:href="#DejaVuSans-2212"/>
       <use x="83.7890625" xlink:href="#DejaVuSans-31"/>
       <use x="147.412109375" xlink:href="#DejaVuSans-35"/>
       <use x="211.03515625" xlink:href="#DejaVuSans-30"/>
       <use x="274.658203125" xlink:href="#DejaVuSans-30"/>
       <use x="338.28125" xlink:href="#DejaVuSans-30"/>
      </g>
     </g>
    </g>
    <g id="ytick_7">
     <g id="line2d_44">
      <path clip-path="url(#p7ff5b81e1d)" d="
M72 129.6
L518.4 129.6" style="fill:none;stroke:#000000;stroke-dasharray:3.000000,5.000000,1.000000,5.000000;stroke-dashoffset:0.0;stroke-width:0.5;"/>
     </g>
     <g id="line2d_45">
      <g>
       <use style="stroke:#000000;stroke-width:0.5;" x="72.0" xlink:href="#md7965d1ba0" y="129.6"/>
      </g>
     </g>
     <g id="line2d_46">
      <g>
       <use style="stroke:#000000;stroke-width:0.5;" x="518.4" xlink:href="#md9a1c1a7cd" y="129.6"/>
      </g>
     </g>
     <g id="text_15">
      <!-- −10000 -->
      <g transform="translate(21.8375 132.91125)scale(0.12 -0.12)">
       <use xlink:href="#DejaVuSans-2212"/>
       <use x="83.7890625" xlink:href="#DejaVuSans-31"/>
       <use x="147.412109375" xlink:href="#DejaVuSans-30"/>
       <use x="211.03515625" xlink:href="#DejaVuSans-30"/>
       <use x="274.658203125" xlink:href="#DejaVuSans-30"/>
       <use x="338.28125" xlink:href="#DejaVuSans-30"/>
      </g>
     </g>
    </g>
    <g id="ytick_8">
     <g id="line2d_47">
      <path clip-path="url(#p7ff5b81e1d)" d="
M72 86.4
L518.4 86.4" style="fill:none;stroke:#000000;stroke-dasharray:3.000000,5.000000,1.000000,5.000000;stroke-dashoffset:0.0;stroke-width:0.5;"/>
     </g>
     <g id="line2d_48">
      <g>
       <use style="stroke:#000000;stroke-width:0.5;" x="72.0" xlink:href="#md7965d1ba0" y="86.4"/>
      </g>
     </g>
     <g id="line2d_49">
      <g>
       <use style="stroke:#000000;stroke-width:0.5;" x="518.4" xlink:href="#md9a1c1a7cd" y="86.4"/>
      </g>
     </g>
     <g id="text_16">
      <!-- −5000 -->
      <g transform="translate(29.4725 89.71125)scale(0.12 -0.12)">
       <use xlink:href="#DejaVuSans-2212"/>
       <use x="83.7890625" xlink:href="#DejaVuSans-35"/>
       <use x="147.412109375" xlink:href="#DejaVuSans-30"/>
       <use x="211.03515625" xlink:href="#DejaVuSans-30"/>
       <use x="274.658203125" xlink:href="#DejaVuSans-30"/>
      </g>
     </g>
    </g>
    <g id="ytick_9">
     <g id="line2d_50">
      <path clip-path="url(#p7ff5b81e1d)" d="
M72 43.2
L518.4 43.2" style="fill:none;stroke:#000000;stroke-dasharray:3.000000,5.000000,1.000000,5.000000;stroke-dashoffset:0.0;stroke-width:0.5;"/>
     </g>
     <g id="line2d_51">
      <g>
       <use style="stroke:#000000;stroke-width:0.5;" x="72.0" xlink:href="#md7965d1ba0" y="43.2"/>
      </g>
     </g>
     <g id="line2d_52">
      <g>
       <use style="stroke:#000000;stroke-width:0.5;" x="518.4" xlink:href="#md9a1c1a7cd" y="43.2"/>
      </g>
     </g>
     <g id="text_17">
      <!-- 0 -->
      <g transform="translate(61.953125 46.51125)scale(0.12 -0.12)">
       <use xlink:href="#DejaVuSans-30"/>
      </g>
     </g>
    </g>
    <g id="text_18">
     <!-- dif_myu_lower_p -->
     <defs>
      <path d="
M9.42188 75.9844
L18.4062 75.9844
L18.4062 0
L9.42188 0
z
" id="DejaVuSans-6c"/>
      <path d="
M18.1094 8.20312
L18.1094 -20.7969
L9.07812 -20.7969
L9.07812 54.6875
L18.1094 54.6875
L18.1094 46.3906
Q20.9531 51.2656 25.2656 53.625
Q29.5938 56 35.5938 56
Q45.5625 56 51.7812 48.0938
Q58.0156 40.1875 58.0156 27.2969
Q58.0156 14.4062 51.7812 6.48438
Q45.5625 -1.42188 35.5938 -1.42188
Q29.5938 -1.42188 25.2656 0.953125
Q20.9531 3.32812 18.1094 8.20312
M48.6875 27.2969
Q48.6875 37.2031 44.6094 42.8438
Q40.5312 48.4844 33.4062 48.4844
Q26.2656 48.4844 22.1875 42.8438
Q18.1094 37.2031 18.1094 27.2969
Q18.1094 17.3906 22.1875 11.75
Q26.2656 6.10938 33.4062 6.10938
Q40.5312 6.10938 44.6094 11.75
Q48.6875 17.3906 48.6875 27.2969" id="DejaVuSans-70"/>
      <path d="
M8.5 21.5781
L8.5 54.6875
L17.4844 54.6875
L17.4844 21.9219
Q17.4844 14.1562 20.5 10.2656
Q23.5312 6.39062 29.5938 6.39062
Q36.8594 6.39062 41.0781 11.0312
Q45.3125 15.6719 45.3125 23.6875
L45.3125 54.6875
L54.2969 54.6875
L54.2969 0
L45.3125 0
L45.3125 8.40625
Q42.0469 3.42188 37.7188 1
Q33.4062 -1.42188 27.6875 -1.42188
Q18.2656 -1.42188 13.375 4.4375
Q8.5 10.2969 8.5 21.5781
M31.1094 56
z
" id="DejaVuSans-75"/>
      <path d="
M4.20312 54.6875
L13.1875 54.6875
L24.4219 12.0156
L35.5938 54.6875
L46.1875 54.6875
L57.4219 12.0156
L68.6094 54.6875
L77.5938 54.6875
L63.2812 0
L52.6875 0
L40.9219 44.8281
L29.1094 0
L18.5 0
z
" id="DejaVuSans-77"/>
      <path d="
M30.6094 48.3906
Q23.3906 48.3906 19.1875 42.75
Q14.9844 37.1094 14.9844 27.2969
Q14.9844 17.4844 19.1562 11.8438
Q23.3438 6.20312 30.6094 6.20312
Q37.7969 6.20312 41.9844 11.8594
Q46.1875 17.5312 46.1875 27.2969
Q46.1875 37.0156 41.9844 42.7031
Q37.7969 48.3906 30.6094 48.3906
M30.6094 56
Q42.3281 56 49.0156 48.375
Q55.7188 40.7656 55.7188 27.2969
Q55.7188 13.875 49.0156 6.21875
Q42.3281 -1.42188 30.6094 -1.42188
Q18.8438 -1.42188 12.1719 6.21875
Q5.51562 13.875 5.51562 27.2969
Q5.51562 40.7656 12.1719 48.375
Q18.8438 56 30.6094 56" id="DejaVuSans-6f"/>
      <path d="
M37.1094 75.9844
L37.1094 68.5
L28.5156 68.5
Q23.6875 68.5 21.7969 66.5469
Q19.9219 64.5938 19.9219 59.5156
L19.9219 54.6875
L34.7188 54.6875
L34.7188 47.7031
L19.9219 47.7031
L19.9219 0
L10.8906 0
L10.8906 47.7031
L2.29688 47.7031
L2.29688 54.6875
L10.8906 54.6875
L10.8906 58.5
Q10.8906 67.625 15.1406 71.7969
Q19.3906 75.9844 28.6094 75.9844
z
" id="DejaVuSans-66"/>
      <path d="
M45.4062 46.3906
L45.4062 75.9844
L54.3906 75.9844
L54.3906 0
L45.4062 0
L45.4062 8.20312
Q42.5781 3.32812 38.25 0.953125
Q33.9375 -1.42188 27.875 -1.42188
Q17.9688 -1.42188 11.7344 6.48438
Q5.51562 14.4062 5.51562 27.2969
Q5.51562 40.1875 11.7344 48.0938
Q17.9688 56 27.875 56
Q33.9375 56 38.25 53.625
Q42.5781 51.2656 45.4062 46.3906
M14.7969 27.2969
Q14.7969 17.3906 18.875 11.75
Q22.9531 6.10938 30.0781 6.10938
Q37.2031 6.10938 41.2969 11.75
Q45.4062 17.3906 45.4062 27.2969
Q45.4062 37.2031 41.2969 42.8438
Q37.2031 48.4844 30.0781 48.4844
Q22.9531 48.4844 18.875 42.8438
Q14.7969 37.2031 14.7969 27.2969" id="DejaVuSans-64"/>
      <path d="
M50.9844 -16.6094
L50.9844 -23.5781
L-0.984375 -23.5781
L-0.984375 -16.6094
z
" id="DejaVuSans-5f"/>
      <path d="
M41.1094 46.2969
Q39.5938 47.1719 37.8125 47.5781
Q36.0312 48 33.8906 48
Q26.2656 48 22.1875 43.0469
Q18.1094 38.0938 18.1094 28.8125
L18.1094 0
L9.07812 0
L9.07812 54.6875
L18.1094 54.6875
L18.1094 46.1875
Q20.9531 51.1719 25.4844 53.5781
Q30.0312 56 36.5312 56
Q37.4531 56 38.5781 55.875
Q39.7031 55.7656 41.0625 55.5156
z
" id="DejaVuSans-72"/>
      <path d="
M32.1719 -5.07812
Q28.375 -14.8438 24.75 -17.8125
Q21.1406 -20.7969 15.0938 -20.7969
L7.90625 -20.7969
L7.90625 -13.2812
L13.1875 -13.2812
Q16.8906 -13.2812 18.9375 -11.5156
Q21 -9.76562 23.4844 -3.21875
L25.0938 0.875
L2.98438 54.6875
L12.5 54.6875
L29.5938 11.9219
L46.6875 54.6875
L56.2031 54.6875
z
" id="DejaVuSans-79"/>
     </defs>
     <g transform="translate(13.5365625 273.56296875)rotate(-90.0)scale(0.14 -0.14)">
      <use xlink:href="#DejaVuSans-64"/>
      <use x="63.4765625" xlink:href="#DejaVuSans-69"/>
      <use x="91.259765625" xlink:href="#DejaVuSans-66"/>
      <use x="126.46484375" xlink:href="#DejaVuSans-5f"/>
      <use x="176.46484375" xlink:href="#DejaVuSans-6d"/>
      <use x="273.876953125" xlink:href="#DejaVuSans-79"/>
      <use x="333.056640625" xlink:href="#DejaVuSans-75"/>
      <use x="396.435546875" xlink:href="#DejaVuSans-5f"/>
      <use x="446.435546875" xlink:href="#DejaVuSans-6c"/>
      <use x="474.21875" xlink:href="#DejaVuSans-6f"/>
      <use x="535.400390625" xlink:href="#DejaVuSans-77"/>
      <use x="617.1875" xlink:href="#DejaVuSans-65"/>
      <use x="678.7109375" xlink:href="#DejaVuSans-72"/>
      <use x="719.82421875" xlink:href="#DejaVuSans-5f"/>
      <use x="769.82421875" xlink:href="#DejaVuSans-70"/>
     </g>
    </g>
   </g>
   <g id="text_19">
    <!-- dif_myu_lower_p -->
    <g transform="translate(237.63703125 38.2)scale(0.14 -0.14)">
     <use xlink:href="#DejaVuSans-64"/>
     <use x="63.4765625" xlink:href="#DejaVuSans-69"/>
     <use x="91.259765625" xlink:href="#DejaVuSans-66"/>
     <use x="126.46484375" xlink:href="#DejaVuSans-5f"/>
     <use x="176.46484375" xlink:href="#DejaVuSans-6d"/>
     <use x="273.876953125" xlink:href="#DejaVuSans-79"/>
     <use x="333.056640625" xlink:href="#DejaVuSans-75"/>
     <use x="396.435546875" xlink:href="#DejaVuSans-5f"/>
     <use x="446.435546875" xlink:href="#DejaVuSans-6c"/>
     <use x="474.21875" xlink:href="#DejaVuSans-6f"/>
     <use x="535.400390625" xlink:href="#DejaVuSans-77"/>
     <use x="617.1875" xlink:href="#DejaVuSans-65"/>
     <use x="678.7109375" xlink:href="#DejaVuSans-72"/>
     <use x="719.82421875" xlink:href="#DejaVuSans-5f"/>
     <use x="769.82421875" xlink:href="#DejaVuSans-70"/>
    </g>
   </g>
   <g id="legend_1">
    <g id="patch_7">
     <path d="
M331.803 140.868
L511.2 140.868
L511.2 50.4
L331.803 50.4
z
" style="fill:#ffffff;stroke:#000000;stroke-linejoin:miter;"/>
    </g>
    <g id="line2d_53">
     <path d="
M341.883 62.0617
L362.043 62.0617" style="fill:none;stroke:#bf00bf;stroke-linecap:square;"/>
    </g>
    <g id="line2d_54"/>
    <g id="text_20">
     <!-- dif_myu_lower_p1 -->
     <g transform="translate(377.883 67.10175)scale(0.144 -0.144)">
      <use xlink:href="#DejaVuSans-64"/>
      <use x="63.4765625" xlink:href="#DejaVuSans-69"/>
      <use x="91.259765625" xlink:href="#DejaVuSans-66"/>
      <use x="126.46484375" xlink:href="#DejaVuSans-5f"/>
      <use x="176.46484375" xlink:href="#DejaVuSans-6d"/>
      <use x="273.876953125" xlink:href="#DejaVuSans-79"/>
      <use x="333.056640625" xlink:href="#DejaVuSans-75"/>
      <use x="396.435546875" xlink:href="#DejaVuSans-5f"/>
      <use x="446.435546875" xlink:href="#DejaVuSans-6c"/>
      <use x="474.21875" xlink:href="#DejaVuSans-6f"/>
      <use x="535.400390625" xlink:href="#DejaVuSans-77"/>
      <use x="617.1875" xlink:href="#DejaVuSans-65"/>
      <use x="678.7109375" xlink:href="#DejaVuSans-72"/>
      <use x="719.82421875" xlink:href="#DejaVuSans-5f"/>
      <use x="769.82421875" xlink:href="#DejaVuSans-70"/>
      <use x="833.30078125" xlink:href="#DejaVuSans-31"/>
     </g>
    </g>
    <g id="line2d_55">
     <path d="
M341.883 83.5987
L362.043 83.5987" style="fill:none;stroke:#00bfbf;stroke-linecap:square;"/>
    </g>
    <g id="line2d_56"/>
    <g id="text_21">
     <!-- dif_myu_lower_p2 -->
     <g transform="translate(377.883 88.63875)scale(0.144 -0.144)">
      <use xlink:href="#DejaVuSans-64"/>
      <use x="63.4765625" xlink:href="#DejaVuSans-69"/>
      <use x="91.259765625" xlink:href="#DejaVuSans-66"/>
      <use x="126.46484375" xlink:href="#DejaVuSans-5f"/>
      <use x="176.46484375" xlink:href="#DejaVuSans-6d"/>
      <use x="273.876953125" xlink:href="#DejaVuSans-79"/>
      <use x="333.056640625" xlink:href="#DejaVuSans-75"/>
      <use x="396.435546875" xlink:href="#DejaVuSans-5f"/>
      <use x="446.435546875" xlink:href="#DejaVuSans-6c"/>
      <use x="474.21875" xlink:href="#DejaVuSans-6f"/>
      <use x="535.400390625" xlink:href="#DejaVuSans-77"/>
      <use x="617.1875" xlink:href="#DejaVuSans-65"/>
      <use x="678.7109375" xlink:href="#DejaVuSans-72"/>
      <use x="719.82421875" xlink:href="#DejaVuSans-5f"/>
      <use x="769.82421875" xlink:href="#DejaVuSans-70"/>
      <use x="833.30078125" xlink:href="#DejaVuSans-32"/>
     </g>
    </g>
    <g id="line2d_57">
     <path d="
M341.883 105.136
L362.043 105.136" style="fill:none;stroke:#ff0000;stroke-linecap:square;"/>
    </g>
    <g id="line2d_58"/>
    <g id="text_22">
     <!-- dif_myu_lower_p3 -->
     <g transform="translate(377.883 110.17575)scale(0.144 -0.144)">
      <use xlink:href="#DejaVuSans-64"/>
      <use x="63.4765625" xlink:href="#DejaVuSans-69"/>
      <use x="91.259765625" xlink:href="#DejaVuSans-66"/>
      <use x="126.46484375" xlink:href="#DejaVuSans-5f"/>
      <use x="176.46484375" xlink:href="#DejaVuSans-6d"/>
      <use x="273.876953125" xlink:href="#DejaVuSans-79"/>
      <use x="333.056640625" xlink:href="#DejaVuSans-75"/>
      <use x="396.435546875" xlink:href="#DejaVuSans-5f"/>
      <use x="446.435546875" xlink:href="#DejaVuSans-6c"/>
      <use x="474.21875" xlink:href="#DejaVuSans-6f"/>
      <use x="535.400390625" xlink:href="#DejaVuSans-77"/>
      <use x="617.1875" xlink:href="#DejaVuSans-65"/>
      <use x="678.7109375" xlink:href="#DejaVuSans-72"/>
      <use x="719.82421875" xlink:href="#DejaVuSans-5f"/>
      <use x="769.82421875" xlink:href="#DejaVuSans-70"/>
      <use x="833.30078125" xlink:href="#DejaVuSans-33"/>
     </g>
    </g>
    <g id="line2d_59">
     <path d="
M341.883 126.673
L362.043 126.673" style="fill:none;stroke:#008000;stroke-linecap:square;"/>
    </g>
    <g id="line2d_60"/>
    <g id="text_23">
     <!-- dif_myu_lower_p4 -->
     <g transform="translate(377.883 131.71275)scale(0.144 -0.144)">
      <use xlink:href="#DejaVuSans-64"/>
      <use x="63.4765625" xlink:href="#DejaVuSans-69"/>
      <use x="91.259765625" xlink:href="#DejaVuSans-66"/>
      <use x="126.46484375" xlink:href="#DejaVuSans-5f"/>
      <use x="176.46484375" xlink:href="#DejaVuSans-6d"/>
      <use x="273.876953125" xlink:href="#DejaVuSans-79"/>
      <use x="333.056640625" xlink:href="#DejaVuSans-75"/>
      <use x="396.435546875" xlink:href="#DejaVuSans-5f"/>
      <use x="446.435546875" xlink:href="#DejaVuSans-6c"/>
      <use x="474.21875" xlink:href="#DejaVuSans-6f"/>
      <use x="535.400390625" xlink:href="#DejaVuSans-77"/>
      <use x="617.1875" xlink:href="#DejaVuSans-65"/>
      <use x="678.7109375" xlink:href="#DejaVuSans-72"/>
      <use x="719.82421875" xlink:href="#DejaVuSans-5f"/>
      <use x="769.82421875" xlink:href="#DejaVuSans-70"/>
      <use x="833.30078125" xlink:href="#DejaVuSans-34"/>
     </g>
    </g>
   </g>
  </g>
 </g>
 <defs>
  <clipPath id="p7ff5b81e1d">
   <rect height="345.6" width="446.4" x="72.0" y="43.2"/>
  </clipPath>
 </defs>
</svg>
