<?xml version="1.0" encoding="utf-8" standalone="no"?>
<!DOCTYPE svg PUBLIC "-//W3C//DTD SVG 1.1//EN"
  "http://www.w3.org/Graphics/SVG/1.1/DTD/svg11.dtd">
<!-- Created with matplotlib (http://matplotlib.org/) -->
<svg height="432pt" version="1.1" viewBox="0 0 576 432" width="576pt" xmlns="http://www.w3.org/2000/svg" xmlns:xlink="http://www.w3.org/1999/xlink">
 <defs>
  <style type="text/css">
*{stroke-linecap:butt;stroke-linejoin:round;}
  </style>
 </defs>
 <g id="figure_1">
  <g id="patch_1">
   <path d="
M0 432
L576 432
L576 0
L0 0
z
" style="fill:#ffffff;"/>
  </g>
  <g id="axes_1">
   <g id="patch_2">
    <path d="
M72 388.8
L518.4 388.8
L518.4 43.2
L72 43.2
z
" style="fill:#ffffff;"/>
   </g>
   <g id="line2d_1">
    <path clip-path="url(#p7ff5b81e1d)" d="
M84.3719 240.686
L90.7724 309.806
L109.642 309.806
L111.029 240.686
L170.551 240.719
L170.745 243.217
L171.083 247.881
L171.353 250.999
L171.603 253.701
L172.493 259.356
L172.633 259.41
L172.818 259.133
L173.23 258.159
L173.474 257.781
L173.973 257.252
L174.623 257.114
L175.294 257.253
L176.724 257.931
L178.942 259.077
L180.073 259.394
L181.18 259.604
L181.588 259.689
L184.155 260.119
L184.36 260.169
L187.203 260.416
L188.955 260.549
L191.733 260.805
L192.607 260.766
L193.985 260.915
L195.547 261.182
L197.367 261.199
L199.612 261.313
L222.472 261.667
L229.86 261.692
L230 261.408
L230.057 261.697
L230.116 260.942
L230.116 260.942
L230.116 260.942
L230.162 261.707
L230.22 259.707
L230.22 259.707
L230.22 259.707
L230.269 261.727
L230.33 256.422
L230.395 261.723
L230.46 247.599
L230.518 264.669
L230.579 240.686
L230.648 309.806
L230.716 240.686
L230.781 309.806
L230.841 240.686
L230.9 309.806
L230.963 240.686
L231.033 309.806
L231.093 240.686
L231.164 309.806
L231.308 240.686
L231.382 309.806
L231.456 240.686
L231.519 309.806
L231.584 240.686
L231.667 309.806
L231.74 240.686
L231.836 309.806
L231.906 240.686
L231.972 309.806
L232.101 240.686
L276.45 240.686
L276.627 245.053
L276.9 250.478
L277.704 258.57
L278.081 259.433
L278.225 259.171
L278.808 257.457
L279.095 257.216
L279.549 257.258
L280.754 257.953
L281.262 258.369
L281.978 258.726
L282.323 258.879
L282.643 259.106
L283.329 259.754
L283.953 259.887
L284.355 259.713
L284.733 259.425
L285.194 259.48
L285.287 259.344
L285.481 259.447
L286.188 259.633
L287.492 259.871
L288.011 259.917
L288.809 259.734
L289.682 259.591
L291.473 259.78
L293.702 260.438
L294.687 260.552
L296.611 260.702
L300.019 261.104
L304.089 261.214
L305.939 261.414
L308.317 261.423
L313.064 261.273
L313.178 261.187
L313.277 261.483
L313.353 260.994
L313.563 261.629
L313.629 260.342
L313.849 261.412
L313.934 261.345
L314.131 258.892
L314.24 261.752
L314.308 261.48
L314.375 261.55
L314.453 257.591
L314.523 263.235
L314.645 261.452
L314.775 250.573
L314.848 265.176
L315.03 243.762
L315.144 269.756
L315.312 240.686
L315.565 240.686
L315.63 301.228
L315.78 288.702
L316.069 240.686
L316.663 240.686
L316.709 309.806
L316.774 294.195
L316.876 240.686
L316.924 309.806
L317.035 307.134
L317.155 240.686
L317.237 309.806
L317.259 240.686
L317.402 240.686
L317.534 309.806
L317.621 240.686
L477.607 240.686
L477.607 240.686" style="fill:none;stroke:#bf00bf;stroke-linecap:square;"/>
   </g>
   <g id="line2d_2">
    <path clip-path="url(#p7ff5b81e1d)" d="
M84.3834 240.686
L90.8413 309.806
L100.748 309.806
L100.889 240.686
L481.997 240.686
L481.997 240.686" style="fill:none;stroke:#00bfbf;stroke-linecap:square;"/>
   </g>
   <g id="line2d_3">
    <path clip-path="url(#p7ff5b81e1d)" d="
M84.4356 240.686
L90.9801 43.2
L91.0231 240.686
L488.069 240.686
L488.069 240.686" style="fill:none;stroke:#ff0000;stroke-linecap:square;"/>
   </g>
   <g id="line2d_4">
    <path clip-path="url(#p7ff5b81e1d)" d="
M84.4188 240.686
L90.8496 388.8
L115.444 388.8
L115.616 387.614
L116.067 383.905
L116.282 383.027
L116.655 378.764
L116.977 377.275
L117.915 370.524
L118.062 370.262
L118.099 369.916
L118.352 369.252
L118.513 367.614
L118.695 366.92
L118.96 365.72
L119.997 356.448
L120.093 357.467
L120.188 354.655
L120.241 357.022
L120.42 352.253
L120.636 357.274
L120.725 355.312
L120.757 349.059
L120.757 349.059
L120.757 349.059
L120.793 358.508
L120.853 353.325
L120.919 345.564
L120.996 360.928
L121.056 351.864
L121.115 344.023
L121.183 365.267
L121.241 349.374
L121.301 345.614
L121.359 347.864
L121.419 348.618
L121.621 358.726
L121.672 352.734
L121.757 366.905
L121.826 350.831
L121.883 372.482
L121.956 349.682
L122.035 380.624
L122.111 345.843
L122.18 388.8
L122.244 336.993
L122.312 388.8
L122.382 324.995
L122.484 388.8
L122.552 325.999
L122.626 388.8
L122.691 326.043
L122.796 388.8
L122.871 326.106
L122.971 388.8
L123.083 326.165
L123.132 388.8
L123.203 326.191
L123.281 388.8
L123.367 326.187
L123.433 388.8
L123.536 326.156
L123.681 388.8
L123.818 326.096
L123.901 328.891
L124.069 388.8
L124.192 388.8
L124.291 324.976
L124.405 388.8
L124.481 326.55
L124.533 388.8
L124.533 388.8
L124.533 388.8
L124.589 326.543
L124.639 388.8
L124.716 326.529
L124.853 388.8
L128.49 388.8
L128.616 388.006
L129.224 384.446
L129.929 378.403
L130.724 373.268
L130.981 369.913
L131.604 363.96
L131.998 362.872
L132.219 360.914
L132.497 358.271
L132.925 355.453
L133.16 353.818
L133.907 347.687
L134.174 346.475
L134.37 345.548
L134.781 343.614
L135.188 341.182
L136.071 337.069
L136.81 333.928
L138.625 327.099
L139.347 325.424
L139.465 325.32
L139.895 323.769
L140.062 323.347
L140.692 320.935
L140.849 320.367
L141.289 319.096
L141.398 319.017
L141.638 318.244
L141.819 317.962
L142.045 317.816
L142.639 316.332
L143.533 314.758
L144.017 313.998
L144.721 313.023
L144.926 312.834
L145.388 311.719
L146.517 310.808
L146.909 309.784
L147.702 309.023
L147.847 308.821
L148.174 308.505
L148.498 308.209
L149.43 307.346
L149.903 307.2
L150.444 307.001
L151.124 306.76
L151.25 306.655
L151.708 306.3
L152.455 305.69
L152.949 305.356
L153.857 304.713
L155.223 303.947
L155.929 303.543
L156.604 303.309
L157.052 303.121
L157.584 302.964
L158.729 302.553
L159.195 302.392
L160.222 301.99
L163.842 301.251
L167.633 300.795
L172.664 300.689
L173.735 300.365
L173.921 300.27
L174.67 299.85
L175.596 299.309
L176.364 298.797
L179.926 296.755
L180.954 296.37
L182.836 295.635
L184.228 295.248
L185.065 295.048
L188.873 293.966
L189.956 293.685
L191.388 293.434
L193.25 293.143
L195.46 292.951
L196.885 292.806
L208.874 292.046
L229.636 291.646
L229.716 291.776
L229.864 291.544
L229.901 291.888
L229.954 291.276
L230.024 292.187
L230.064 290.568
L230.138 292.976
L230.191 288.693
L230.226 295.044
L230.305 283.704
L230.335 300.357
L230.335 300.357
L230.335 300.357
L230.39 270.598
L230.434 313.344
L230.505 246.931
L230.587 332.368
L230.654 240.686
L230.722 388.8
L230.776 263.284
L230.824 354.123
L230.911 264.575
L230.954 356.938
L231.011 266.513
L231.097 359.825
L231.141 270.402
L231.293 362.698
L231.336 274.086
L231.434 365.539
L231.5 279.364
L231.561 368.314
L231.626 282.649
L231.703 370.98
L231.781 285.95
L231.882 373.459
L231.968 289.09
L232.018 375.835
L232.085 292.085
L232.185 378.103
L232.251 294.944
L232.541 384.123
L232.594 296.212
L232.651 381.399
L232.735 387.78
L232.79 297.522
L232.994 388.8
L233.086 386.632
L233.172 388.512
L233.247 384.694
L233.343 388.343
L233.42 382.869
L233.67 388.625
L233.77 381.148
L233.818 382.966
L233.883 388.8
L233.973 379.775
L234.245 388.8
L234.277 388.8
L234.367 388.529
L234.514 388.8
L235.644 388.714
L236.142 386.66
L236.542 384.359
L237.072 380.748
L238.716 367.957
L238.963 364.889
L239.572 359.595
L240.036 356.299
L240.507 353.185
L240.922 351.207
L241.241 348.837
L241.5 346.577
L241.954 343.176
L242.379 340.521
L243.254 335.037
L243.567 333.585
L243.842 333.072
L244.041 332.634
L244.525 332.01
L244.809 331.016
L245.136 330.692
L245.253 330.198
L246.348 325.402
L246.736 324.613
L246.962 324.165
L247.349 323.29
L247.599 322.391
L249.008 319.074
L249.894 317.183
L251.077 315.276
L252.489 313.312
L255.776 309.854
L257.439 308.53
L257.862 308.113
L258.363 307.637
L261.032 305.715
L261.534 305.529
L261.806 305.364
L264.037 304.105
L264.531 303.924
L266.609 302.997
L267.217 302.781
L267.731 302.622
L271.941 301.528
L276.595 300.786
L278.186 300.584
L279.234 299.724
L279.86 299.257
L281.649 298.37
L281.81 298.285
L283.432 297.956
L283.607 297.871
L283.891 297.767
L284.935 297.183
L285.187 297.16
L285.25 296.929
L285.36 297.232
L285.463 296.997
L285.511 297.081
L285.936 296.893
L286.725 296.686
L287.401 296.575
L290.454 295.296
L290.936 295.134
L292.616 294.64
L296.58 293.596
L299.01 293.199
L304.3 292.748
L308.926 292.516
L309.791 292.455
L312.261 292.341
L312.593 292.234
L312.695 292.395
L312.85 292.195
L312.94 292.469
L313.014 292.097
L313.238 292.524
L313.308 291.753
L313.397 292.824
L313.541 292.353
L313.591 291.148
L313.766 293.671
L313.902 291.654
L314.067 294.069
L314.178 290.027
L314.281 295.673
L314.339 293.316
L314.418 286.986
L314.487 300.08
L314.672 284.229
L314.844 307.222
L314.861 283.795
L314.888 290.984
L314.963 315.155
L315.078 266.216
L315.177 319.888
L315.284 316.72
L315.344 240.686
L315.485 388.8
L315.668 363.117
L315.845 263.208
L316.114 248.523
L316.281 353.641
L316.427 360.099
L316.606 356.398
L316.701 357.271
L316.755 351.774
L316.82 261.599
L316.82 261.599
L316.82 261.599
L316.915 361.92
L316.971 264.324
L317.079 360.126
L317.21 270.02
L317.27 361.916
L317.318 274.035
L317.491 364.811
L317.565 276.742
L317.64 367.527
L317.744 281.187
L317.827 369.784
L317.861 283.372
L317.861 283.372
L317.861 283.372
L318.009 373.74
L318.08 287.84
L318.149 375.452
L318.19 289.902
L318.266 377.065
L318.318 291.85
L318.318 291.85
L318.318 291.85
L318.373 378.572
L318.442 293.664
L318.499 379.963
L318.573 295.33
L318.627 381.227
L318.688 296.827
L318.751 382.35
L318.816 298.139
L318.87 383.322
L318.925 299.249
L318.994 384.131
L319.048 300.14
L319.048 300.14
L319.048 300.14
L319.211 385.222
L319.284 301.214
L319.342 385.487
L319.403 301.372
L319.456 385.556
L319.578 301.263
L319.63 385.422
L319.691 300.878
L319.757 385.082
L319.812 300.206
L319.876 384.532
L319.927 299.239
L320.094 383.792
L320.273 387.829
L320.343 386.366
L320.474 297.042
L320.626 383.817
L320.705 291.575
L320.813 379.296
L320.942 384.633
L321.203 383.291
L321.283 295.566
L321.354 378.111
L321.677 377.821
L321.757 381.502
L321.852 369.808
L321.92 383.951
L321.976 374.662
L322.058 362.434
L322.115 388.8
L322.185 366.892
L322.265 388.8
L322.337 352.852
L322.415 388.8
L322.492 341.081
L322.575 388.8
L322.64 325.65
L322.696 388.8
L322.77 320.933
L322.834 388.8
L322.902 319.229
L323.02 388.8
L323.153 312.753
L323.378 315.388
L323.476 318.46
L323.634 388.8
L323.679 304.062
L323.73 382.32
L323.854 382.607
L323.945 379.161
L324.034 287.776
L324.148 369.996
L324.244 282.332
L324.581 323.072
L324.657 293.646
L324.795 353.838
L324.853 342.338
L324.914 261.653
L324.981 356.507
L325.034 330.094
L325.118 276.609
L325.295 371.961
L325.364 288.087
L325.426 375.535
L325.504 280.206
L325.549 368.147
L325.627 272.655
L325.7 362.065
L325.77 264.56
L325.818 355.895
L325.899 256.53
L325.964 349.693
L326.034 248.465
L326.098 343.471
L326.15 240.686
L326.234 337.215
L326.289 240.686
L326.412 388.8
L326.472 257.297
L326.533 348.422
L326.596 247.605
L326.73 341.431
L326.836 240.686
L326.91 388.8
L326.981 258.51
L327.062 349.078
L327.157 247.606
L327.21 341.174
L327.282 240.686
L327.339 388.8
L327.398 257.11
L327.488 347.712
L327.546 245.271
L327.621 339.118
L327.677 240.686
L327.73 388.8
L327.873 254.655
L327.917 345.535
L327.917 345.535
L327.917 345.535
L328.037 240.686
L328.08 388.8
L328.192 251.839
L328.23 343.091
L328.23 343.091
L328.23 343.091
L328.273 240.686
L328.355 388.8
L328.42 255.806
L328.518 346.53
L328.638 240.686
L328.724 388.8
L328.78 250.098
L328.865 341.642
L329.298 284.472
L329.372 292.36
L329.447 281.297
L329.514 289.164
L329.569 277.678
L329.68 285.531
L329.752 273.735
L329.816 281.66
L329.888 269.596
L329.976 277.608
L330.17 260.896
L330.233 269.148
L330.309 256.399
L330.375 264.787
L330.443 251.826
L330.516 260.358
L330.581 247.186
L330.646 255.868
L330.829 240.686
L330.909 388.8
L330.976 371.718
L331.376 281.4
L331.445 287.198
L331.648 261.002
L331.724 268.765
L331.941 246.405
L332.004 255.084
L332.081 240.686
L332.147 388.8
L332.217 372.62
L332.49 303.914
L332.645 312.864
L332.804 278.392
L332.948 297.225
L333.07 288.55
L333.106 259.759
L333.155 276.414
L333.217 299.014
L333.288 257.139
L333.364 287.001
L333.408 285.652
L333.486 240.686
L333.523 388.8
L333.589 271.664
L333.78 240.686
L333.825 342.523
L333.906 240.686
L333.998 388.8
L334.06 275.311
L334.109 336.163
L334.171 328.065
L334.307 240.686
L334.431 388.8
L334.503 355.76
L334.542 348.638
L334.579 243.314
L334.681 327.016
L334.727 304.953
L334.767 240.686
L334.848 388.8
L335.066 260.946
L335.13 351.815
L335.18 278.552
L335.232 252.385
L335.308 340.953
L335.347 240.686
L335.425 388.8
L335.47 379.521
L335.556 280.119
L335.615 335.5
L335.696 318.78
L335.824 240.686
L335.953 388.8
L336.139 334.131
L336.237 265.417
L336.471 309.406
L336.593 287.155
L336.695 296.885
L336.745 246.191
L336.841 316.671
L336.979 240.686
L337.094 388.8
L337.148 240.686
L337.252 388.8
L337.327 245.961
L337.419 335.031
L337.501 240.686
L337.615 388.8
L337.715 241.673
L337.779 333.217
L337.857 240.686
L337.95 388.8
L338.048 240.686
L338.126 332.425
L338.24 240.686
L338.29 388.8
L338.385 240.686
L338.439 388.8
L338.531 252.568
L338.658 340.511
L338.775 240.686
L338.848 388.8
L338.929 245.344
L339.007 336.126
L339.081 240.686
L339.178 388.8
L339.238 242.661
L339.321 334.035
L339.397 240.686
L339.477 388.8
L339.582 241.318
L339.671 332.982
L339.75 240.686
L339.838 388.8
L339.918 240.686
L339.999 332.441
L340.092 240.686
L340.179 388.8
L340.358 240.686
L340.52 332.153
L340.547 240.686
L340.635 388.8
L340.767 240.686
L340.933 240.686
L340.992 388.8
L341.08 249.019
L341.149 338.369
L341.288 240.686
L341.326 388.8
L341.403 251.239
L341.47 332.708
L341.549 240.686
L341.624 388.8
L341.7 241.858
L341.772 333.122
L341.847 240.686
L341.932 388.8
L342 247.644
L342.098 338.128
L342.184 240.686
L342.258 388.8
L342.345 251.684
L342.421 332.675
L342.515 240.686
L342.569 388.8
L342.64 241.813
L342.718 332.913
L342.849 240.686
L342.921 388.8
L343.001 247.563
L343.057 338.226
L343.234 240.686
L343.357 388.8
L343.467 251.643
L343.577 332.636
L343.679 330.151
L343.728 240.686
L343.776 388.8
L343.834 350.495
L343.879 259.133
L343.919 337.716
L344.027 253.136
L344.068 332.646
L344.129 260.296
L344.187 253.137
L344.228 333.909
L344.228 333.909
L344.228 333.909
L344.29 240.686
L344.328 388.8
L344.379 372.374
L344.431 272.968
L344.49 339.452
L344.598 265.182
L344.66 347.27
L344.721 240.686
L344.769 388.8
L344.834 386.371
L344.915 272.596
L344.976 338.304
L345.062 307.513
L345.101 249.112
L345.187 330.482
L345.342 246.431
L345.408 332.735
L345.507 240.686
L345.595 388.8
L345.671 372.027
L345.739 272.399
L345.837 330.755
L345.928 307.938
L346.035 240.686
L346.177 388.8
L346.213 291.386
L346.348 260.069
L346.433 344.341
L346.512 248.517
L346.718 243.604
L346.878 244.619
L346.932 333.131
L347.016 240.686
L347.052 388.8
L347.138 343.957
L347.223 329.049
L347.285 240.686
L347.322 388.8
L347.382 241.707
L347.436 332.827
L347.5 240.686
L347.556 388.8
L347.604 246.246
L347.658 335.945
L347.739 240.686
L347.806 388.8
L347.876 245.681
L347.932 329.43
L348.003 240.686
L348.052 388.8
L348.118 240.686
L348.174 388.8
L348.217 253.21
L348.28 337.576
L348.379 240.686
L348.458 388.8
L348.533 252.001
L348.638 341.824
L348.685 240.686
L348.793 388.8
L348.973 240.686
L349.031 388.8
L349.167 252.858
L349.208 345.346
L349.208 345.346
L349.208 345.346
L349.257 241.307
L349.296 249.912
L349.374 328.584
L349.422 240.686
L349.472 388.8
L349.547 364.158
L349.585 266.688
L349.676 335.186
L349.715 283.72
L349.849 260.165
L349.922 338.138
L350.144 240.686
L350.288 388.8
L350.344 374.609
L350.469 369.526
L350.576 263.797
L350.632 330.817
L350.678 296.457
L350.73 240.686
L350.79 388.8
L350.925 258.188
L351.004 348.375
L351.137 243.266
L351.205 340.612
L351.277 240.686
L351.356 388.8
L351.456 378.688
L351.504 279.321
L351.674 334.978
L351.748 319.464
L351.777 240.686
L351.836 388.8
L351.899 311.555
L351.986 268.239
L352.046 346.783
L352.134 243.851
L352.197 329.726
L352.267 240.686
L352.344 388.8
L352.413 247.239
L352.51 331.125
L352.554 240.686
L352.639 388.8
L352.702 248.393
L352.778 332.173
L352.869 240.686
L352.93 388.8
L353.017 248.995
L353.078 332.636
L353.179 240.686
L353.242 388.8
L353.312 249.27
L353.372 332.845
L353.443 240.686
L353.561 388.8
L353.746 240.686
L353.836 388.8
L353.895 271.812
L353.979 340.62
L354.148 240.686
L354.305 240.686
L354.418 382.599
L354.471 292.262
L354.528 318.065
L354.594 334.742
L354.671 240.686
L354.726 388.8
L354.783 344.121
L354.838 241.563
L354.891 330.074
L355.025 240.686
L355.089 388.8
L355.217 247.817
L355.28 344.43
L355.402 240.686
L355.477 388.8
L355.624 240.686
L355.717 388.8
L355.955 242.452
L356.205 345.999
L356.287 240.686
L356.334 330.368
L356.381 329.954
L356.449 240.686
L356.507 388.8
L356.591 329.589
L356.659 260.377
L356.711 342.65
L356.767 248.068
L356.829 252.959
L356.889 342.179
L356.96 240.686
L357.032 388.8
L357.101 376.292
L357.189 262.073
L357.256 331.489
L357.325 319.737
L357.401 240.686
L357.506 388.8
L357.66 248.602
L357.726 334.294
L357.923 259.833
L358.112 342.038
L358.12 240.686
L358.12 240.686
L358.12 240.686
L358.171 388.8
L358.291 380.898
L358.599 266.04
L358.642 333.576
L358.72 322.618
L358.849 240.686
L358.862 388.8
L358.92 340.415
L358.967 256.552
L359.067 257.37
L359.123 333.325
L359.166 240.686
L359.166 240.686
L359.166 240.686
L359.202 388.8
L359.332 385.892
L359.456 377.457
L359.641 240.686
L359.727 388.8
L359.802 245.868
L359.851 338.338
L359.988 240.686
L360.218 240.686
L360.276 388.8
L360.334 282.463
L360.397 351.313
L360.463 336.837
L360.525 240.686
L360.589 388.8
L360.645 322.332
L360.723 279.93
L360.796 353.939
L360.921 263.118
L360.99 353.582
L361.059 242.021
L361.127 261.208
L361.249 325.964
L361.474 240.686
L361.552 388.8
L361.681 298.472
L361.774 353.939
L361.906 327.562
L361.996 331.196
L362.038 251.742
L362.14 340.484
L362.272 265.853
L362.34 270.455
L362.4 269.807
L362.459 277.849
L362.549 247.687
L362.607 288.893
L362.697 240.686
L362.765 388.8
L362.846 240.686
L362.907 388.8
L363.078 250.662
L363.132 338.935
L363.132 338.935
L363.132 338.935
L363.172 240.686
L363.265 388.8
L363.332 253.045
L363.399 343.114
L363.502 240.686
L363.56 388.8
L363.634 256.048
L363.762 337.182
L363.955 240.686
L363.986 388.8
L364.041 246.438
L364.081 249.727
L364.136 339.906
L364.136 339.906
L364.136 339.906
L364.171 240.686
L364.171 240.686
L364.171 240.686
L364.205 388.8
L364.242 376.679
L364.311 264.559
L364.365 334.616
L364.524 275.405
L364.561 331.114
L364.561 331.114
L364.561 331.114
L364.603 240.686
L364.657 388.8
L364.706 242.033
L364.754 333.183
L364.829 240.686
L364.867 388.8
L364.927 249.355
L364.974 339.959
L364.974 339.959
L364.974 339.959
L365.024 240.686
L365.103 388.8
L365.129 254.192
L365.203 335.247
L365.245 240.686
L365.342 388.8
L365.489 240.686
L365.599 388.8
L365.761 240.686
L365.812 388.8
L365.892 335.493
L365.989 240.686
L366.068 388.8
L366.154 244.909
L366.201 335.653
L366.271 240.686
L366.331 388.8
L366.428 250.419
L366.485 340.703
L366.55 240.686
L366.625 388.8
L366.666 254.288
L366.722 335.166
L366.784 240.686
L366.853 388.8
L366.918 244.51
L366.989 335.295
L367.054 240.686
L367.118 388.8
L367.191 250.029
L367.266 340.363
L367.319 240.686
L367.392 388.8
L367.476 253.917
L367.549 334.809
L367.607 240.686
L367.687 388.8
L367.737 244.113
L367.812 334.943
L367.894 240.686
L367.978 388.8
L368.026 249.661
L368.091 340.044
L368.167 240.686
L368.284 388.8
L368.342 253.575
L368.392 334.482
L368.466 240.686
L368.547 388.8
L368.598 243.755
L368.654 334.625
L368.745 240.686
L368.824 388.8
L368.883 249.331
L368.958 339.758
L369.024 240.686
L369.097 388.8
L369.164 253.27
L369.248 341.732
L369.307 240.686
L369.402 325.472
L369.469 240.686
L369.542 388.8
L369.613 240.686
L369.68 388.8
L369.724 260.088
L369.798 338.638
L369.863 240.686
L369.911 388.8
L369.991 245.84
L370.048 336.396
L370.123 240.686
L370.186 388.8
L370.253 250.149
L370.318 340.524
L370.378 240.686
L370.435 388.8
L370.53 253.145
L370.596 334.331
L370.746 240.686
L370.846 388.8
L370.995 240.686
L371.128 388.8
L371.185 349.956
L371.276 257.403
L371.333 344.65
L371.463 268.681
L371.515 351.641
L371.571 240.686
L371.623 388.8
L371.705 387.22
L371.755 273.9
L371.818 339.678
L371.871 332.971
L371.939 240.686
L372.02 388.8
L372.057 351.53
L372.132 247.768
L372.18 336.205
L372.254 306.807
L372.337 240.686
L372.413 388.8
L372.473 306.656
L372.547 262.375
L372.603 349.747
L372.732 253.405
L372.804 345.508
L372.93 240.686
L372.996 388.8
L373.123 240.686
L373.197 388.8
L373.325 246.785
L373.392 346.282
L373.547 240.686
L373.607 388.8
L373.736 240.686
L374.185 343.147
L374.257 240.686
L374.301 388.8
L374.431 360.589
L374.587 240.686
L374.804 388.8
L374.864 240.686
L374.952 388.8
L375.001 254.175
L375.085 333.696
L375.288 240.686
L375.347 388.8
L375.548 240.686
L375.604 388.8
L375.677 276.203
L375.76 337.662
L375.849 240.686
L375.967 388.8
L376.058 256.773
L376.14 335.816
L376.2 240.686
L376.262 388.8
L376.337 248.645
L376.431 330.926
L376.493 240.686
L376.588 388.8
L376.652 245.076
L376.725 328.351
L376.798 240.686
L376.864 388.8
L376.977 243.624
L377.046 327.272
L377.126 240.686
L377.187 388.8
L377.266 243.089
L377.328 326.909
L377.401 240.686
L377.483 388.8
L377.551 242.997
L377.703 326.889
L377.774 240.686
L377.859 388.8
L377.925 243.112
L378.009 327.029
L378.085 240.686
L378.147 388.8
L378.229 240.686
L378.323 388.8
L378.368 255.28
L378.481 333.825
L378.557 240.686
L378.63 388.8
L378.802 240.686
L378.97 388.8
L378.989 362.775
L379.181 240.686
L379.32 240.686
L379.361 388.8
L379.552 251.806
L379.787 256.204
L379.882 253.773
L380.021 254.383
L380.15 253.637
L380.697 240.686
L380.706 388.8
L380.762 280.761
L380.844 252.656
L380.879 254.081
L380.956 252.347
L381.051 245.92
L381.189 266.008
L381.233 258.462
L381.418 240.686
L381.551 388.8
L381.664 275.615
L381.73 347.979
L381.797 240.686
L381.879 388.8
L381.952 252.85
L382.019 342.858
L382.09 240.686
L382.224 388.8
L382.298 248.173
L382.372 337.686
L382.478 240.686
L382.573 388.8
L382.665 242.083
L382.728 333.568
L382.847 240.686
L382.955 388.8
L383.038 240.686
L383.126 388.8
L383.243 251.344
L383.311 339.612
L383.388 240.686
L383.473 388.8
L383.542 253.16
L383.632 343.11
L383.705 240.686
L383.763 388.8
L383.891 255.783
L383.968 336.859
L384.032 240.686
L384.157 388.8
L384.356 245.795
L384.599 240.686
L384.657 388.8
L384.677 263.726
L384.753 240.686
L384.772 388.8
L385.021 244.642
L385.123 241.559
L385.189 249.603
L385.252 240.686
L385.329 388.8
L385.376 374.385
L385.458 360.132
L385.611 324.077
L385.715 299.749
L385.815 304.752
L385.917 284.948
L386.019 290.841
L386.158 273.205
L386.347 280.877
L386.505 244.592
L386.657 290.066
L386.898 240.686
L387.054 240.686
L387.161 388.8
L387.172 367.284
L387.228 271.516
L387.305 329.415
L387.439 260.41
L387.566 332.294
L387.616 240.686
L387.724 388.8
L387.793 367.02
L387.824 267.972
L387.929 273.447
L387.981 259.441
L388.039 335.423
L388.189 240.686
L388.362 388.8
L388.393 358.379
L388.541 246.049
L388.596 246.305
L388.629 328.607
L388.629 328.607
L388.629 328.607
L388.696 240.686
L388.824 388.8
L388.936 355.981
L388.992 259.666
L389.045 311.708
L389.117 240.686
L389.184 388.8
L389.267 240.686
L389.319 388.8
L389.372 249.406
L389.424 330.427
L389.487 240.686
L389.539 388.8
L389.707 240.686
L389.766 388.8
L389.938 240.686
L389.994 388.8
L390.054 241.968
L390.118 326.134
L390.177 240.686
L390.232 388.8
L390.298 241.969
L390.369 326.209
L390.423 240.686
L390.466 388.8
L390.554 242.197
L390.601 326.456
L390.702 240.686
L390.77 388.8
L390.818 242.524
L390.887 326.779
L390.947 240.686
L391.015 388.8
L391.078 242.888
L391.142 327.127
L391.209 240.686
L391.277 388.8
L391.334 243.261
L391.402 327.478
L391.469 240.686
L391.526 388.8
L391.589 243.627
L391.665 327.821
L391.714 240.686
L391.775 388.8
L391.948 240.686
L392.009 388.8
L392.081 244.318
L392.142 328.466
L392.211 240.686
L392.276 388.8
L392.325 244.638
L392.385 328.765
L392.452 240.686
L392.525 388.8
L392.591 244.943
L392.647 329.048
L392.724 240.686
L392.772 388.8
L392.838 245.231
L392.9 329.316
L392.963 240.686
L393.036 388.8
L393.104 245.504
L393.15 329.57
L393.228 240.686
L393.277 388.8
L393.336 245.762
L393.404 329.81
L393.459 240.686
L393.525 388.8
L393.634 246.006
L393.723 330.037
L393.776 240.686
L393.837 388.8
L393.968 246.237
L394.039 330.252
L394.092 240.686
L394.148 388.8
L394.202 246.455
L394.257 330.456
L394.257 330.456
L394.257 330.456
L394.309 240.686
L394.373 388.8
L394.43 246.662
L394.49 330.648
L394.549 240.686
L394.603 388.8
L394.661 246.858
L394.73 330.83
L394.793 240.686
L394.849 388.8
L394.917 247.043
L394.965 331.002
L395.041 240.686
L395.086 388.8
L395.155 247.217
L395.227 331.165
L395.283 240.686
L395.339 388.8
L395.399 247.383
L395.452 331.319
L395.531 240.686
L395.609 388.8
L395.662 247.539
L395.716 331.465
L395.819 240.686
L395.878 388.8
L395.939 247.687
L396.008 331.602
L396.062 240.686
L396.128 388.8
L396.293 240.686
L396.361 388.8
L396.412 247.96
L396.54 331.856
L396.661 240.686
L396.995 240.686
L397.028 388.8
L397.082 336.176
L397.208 260.45
L397.344 346.525
L397.467 240.686
L397.652 240.686
L397.673 388.8
L397.737 361.339
L397.88 271.902
L398.079 346.31
L398.144 325.242
L398.257 329.557
L398.32 250.012
L398.506 354.832
L398.567 252.043
L398.62 337.722
L398.707 240.686
L398.767 388.8
L398.825 246.682
L398.888 337.33
L398.958 240.686
L399.018 388.8
L399.073 252.265
L399.156 342.534
L399.216 240.686
L399.305 388.8
L399.396 255.79
L399.465 337.034
L399.606 240.686
L399.828 240.686
L399.967 388.8
L400.159 266.914
L400.215 352.013
L400.353 277.174
L400.43 350.231
L400.554 249.063
L400.611 285.427
L400.67 240.686
L400.723 388.8
L400.932 240.686
L401.079 388.8
L401.18 246.64
L401.308 339.286
L401.395 240.686
L401.43 388.8
L401.465 377.621
L401.515 270.899
L401.574 332.896
L401.676 248.114
L401.753 331.006
L401.799 261.953
L401.876 244.849
L401.937 334.722
L401.937 334.722
L401.937 334.722
L401.974 240.686
L402.042 388.8
L402.091 374.715
L402.155 275.913
L402.217 334.677
L402.279 316.403
L402.332 240.686
L402.407 388.8
L402.452 306.855
L402.535 260.413
L402.589 348.905
L402.66 251.642
L402.72 259.831
L402.799 337.753
L402.859 240.686
L402.954 388.8
L402.997 357.595
L403.082 256.552
L403.15 335.738
L403.2 281.944
L403.26 260.229
L403.324 342.836
L403.409 240.686
L403.517 388.8
L403.538 385.931
L403.594 272.305
L403.652 338.07
L403.755 331.071
L403.812 240.686
L403.886 388.8
L403.935 350.9
L404.007 247.917
L404.045 336.453
L404.148 306.48
L404.251 240.686
L404.296 388.8
L404.357 306.204
L404.404 263.305
L404.465 350.824
L404.465 350.824
L404.465 350.824
L404.567 254.8
L404.601 346.781
L404.601 346.781
L404.601 346.781
L404.673 242.84
L404.732 328.123
L404.732 328.123
L404.732 328.123
L404.782 240.686
L404.846 388.8
L404.918 240.686
L404.989 388.8
L405.176 240.686
L405.242 388.8
L405.298 248.098
L405.355 338.146
L405.416 240.686
L405.462 388.8
L405.533 252.104
L405.598 342.053
L405.66 240.686
L405.734 388.8
L405.799 255.235
L405.856 335.952
L405.94 240.686
L405.993 388.8
L406.086 245.112
L406.153 335.79
L406.225 240.686
L406.375 388.8
L406.524 258.875
L406.591 345.864
L406.676 252.846
L406.735 343.456
L406.806 240.686
L406.868 388.8
L406.959 255.838
L407.026 336.262
L407.085 240.686
L407.161 388.8
L407.232 245.281
L407.337 335.901
L407.415 240.686
L407.497 388.8
L407.591 250.459
L407.707 340.711
L407.794 240.686
L407.877 388.8
L407.979 253.581
L408.097 334.737
L408.187 240.686
L408.298 388.8
L408.426 243.501
L408.512 334.58
L408.616 240.686
L408.717 388.8
L408.808 249.051
L408.905 339.677
L409.009 240.686
L409.082 388.8
L409.183 252.655
L409.274 333.971
L409.349 240.686
L409.498 388.8
L409.69 240.686
L409.756 388.8
L409.87 248.614
L410.124 339.306
L410.191 240.686
L410.191 240.686
L410.191 240.686
L410.217 388.8
L410.26 252.89
L410.315 242.542
L410.396 334.332
L410.438 240.686
L410.489 388.8
L410.538 382
L410.605 281.62
L410.66 340.34
L410.791 263.725
L410.856 346.238
L410.912 240.686
L410.971 388.8
L411.148 240.686
L411.307 388.8
L411.364 250.535
L411.431 338.448
L411.495 240.686
L411.563 388.8
L411.642 241.932
L411.707 332.995
L411.764 240.686
L411.879 388.8
L411.933 240.686
L412.032 250.599
L412.09 338.578
L412.154 240.686
L412.257 388.8
L412.312 242.453
L412.433 333.78
L412.493 240.686
L412.539 388.8
L412.618 240.686
L412.686 388.8
L412.742 251.079
L412.798 339.347
L412.87 240.686
L412.922 388.8
L412.978 243.046
L413.032 334.28
L413.093 240.686
L413.143 388.8
L413.203 240.686
L413.258 388.8
L413.314 251.45
L413.394 339.686
L413.446 240.686
L413.505 388.8
L413.555 243.43
L413.611 334.617
L413.757 240.686
L413.834 388.8
L413.886 355.608
L413.954 246.96
L414.053 329.016
L414.106 311.491
L414.157 240.686
L414.21 388.8
L414.273 240.686
L414.408 388.8
L414.548 240.686
L414.594 388.8
L414.643 242.766
L414.707 334.172
L414.757 240.686
L414.83 388.8
L414.893 240.686
L414.991 332.254
L415.105 240.686
L415.262 388.8
L415.293 251.331
L415.377 339.652
L415.428 240.686
L415.5 388.8
L415.57 243.799
L415.618 334.991
L415.854 240.686
L415.914 388.8
L416.088 240.686
L416.14 388.8
L416.195 250.655
L416.255 253.945
L416.327 334.116
L416.437 240.686
L416.508 388.8
L416.589 241.838
L416.643 253.335
L416.713 324.365
L416.876 240.686
L416.946 388.8
L417.037 240.686
L417.141 388.8
L417.262 347.729
L417.44 240.686
L417.515 388.8
L417.566 325.349
L417.682 282.151
L417.731 354.248
L417.802 264.648
L417.846 277.144
L417.9 344.739
L417.96 240.686
L418.02 388.8
L418.094 360.713
L418.264 251.562
L418.33 342.957
L418.377 240.686
L418.442 388.8
L418.498 255.008
L418.549 335.942
L418.625 240.686
L418.68 388.8
L418.739 244.898
L418.806 335.814
L418.862 240.686
L418.907 388.8
L418.962 250.341
L419.011 340.804
L419.09 240.686
L419.138 388.8
L419.19 253.831
L419.272 335.106
L419.331 240.686
L419.396 388.8
L419.559 240.686
L419.635 388.8
L419.732 249.76
L419.794 340.308
L420.018 240.686
L420.085 388.8
L420.195 240.686
L420.253 388.8
L420.391 240.841
L420.453 342.449
L420.595 240.686
L420.664 388.8
L420.721 260.715
L420.786 345.829
L420.948 240.686
L421.019 388.8
L421.075 240.686
L421.158 388.8
L421.333 240.686
L421.385 388.8
L421.434 245.45
L421.495 335.709
L421.549 240.686
L421.618 388.8
L421.669 249.29
L421.754 339.579
L421.813 240.686
L421.879 388.8
L422.064 252.445
L422.16 333.247
L422.232 330.703
L422.275 240.686
L422.337 388.8
L422.405 352.098
L422.489 247.219
L422.543 335.766
L422.683 306.794
L422.73 240.686
L422.788 388.8
L422.856 345.537
L422.975 240.686
L423.205 388.8
L423.287 240.686
L423.317 388.8
L423.357 261.25
L423.435 240.686
L423.466 388.8
L423.511 265.912
L423.62 256.823
L423.658 257.483
L423.698 345.169
L423.698 345.169
L423.698 345.169
L423.742 242.302
L423.853 254.27
L423.895 240.686
L423.925 388.8
L423.976 258.837
L424.031 251.278
L424.103 347.84
L424.103 347.84
L424.103 347.84
L424.132 246.233
L424.166 248.476
L424.221 342.075
L424.293 240.686
L424.365 388.8
L424.394 376.96
L424.45 278.586
L424.498 337.397
L424.554 322.389
L424.599 240.686
L424.653 388.8
L424.7 337.435
L424.814 262.723
L424.902 347.08
L425.007 345.268
L425.073 259.147
L425.158 263.876
L425.193 346.807
L425.263 240.686
L425.363 388.8
L425.405 368.85
L425.454 272.835
L425.54 316.846
L425.591 240.686
L425.629 388.8
L425.691 271.4
L425.737 352.346
L425.737 352.346
L425.737 352.346
L425.818 257.005
L425.874 349.877
L425.874 349.877
L425.874 349.877
L425.911 240.686
L425.911 240.686
L425.911 240.686
L425.948 388.8
L425.992 380.71
L426.04 282.74
L426.08 340.275
L426.188 326.712
L426.334 240.686
L426.472 240.686
L426.531 388.8
L426.548 241.055
L426.677 247.482
L426.682 240.686
L426.771 388.8
L426.904 240.686
L426.978 334.62
L427.068 240.686
L427.129 388.8
L427.163 245.964
L427.244 246.953
L427.293 332.83
L427.293 332.83
L427.293 332.83
L427.368 240.686
L427.423 388.8
L427.477 242.799
L427.518 245.807
L427.553 329.383
L427.553 329.383
L427.553 329.383
L427.639 240.686
L427.771 388.8
L427.815 384.608
L427.862 286.567
L427.943 325.588
L427.997 240.686
L428.033 388.8
L428.076 315.857
L428.127 272.7
L428.171 349.149
L428.171 349.149
L428.171 349.149
L428.258 256.179
L428.29 348.08
L428.29 348.08
L428.29 348.08
L428.335 240.686
L428.335 240.686
L428.335 240.686
L428.374 388.8
L428.418 377.82
L428.592 240.686
L428.654 388.8
L428.689 308.764
L428.729 269.607
L428.78 348.507
L428.78 348.507
L428.78 348.507
L428.847 253.768
L428.904 346.595
L428.904 346.595
L428.904 346.595
L428.95 240.686
L428.95 240.686
L428.95 240.686
L428.989 388.8
L429.036 377.63
L429.214 240.686
L429.252 388.8
L429.321 308.462
L429.363 269.431
L429.437 348.489
L429.53 253.771
L429.608 346.633
L429.663 240.686
L429.715 388.8
L429.782 377.726
L429.835 279.366
L429.891 337.094
L429.99 320.226
L430.084 240.686
L430.218 388.8
L430.486 267.201
L430.562 267.629
L430.609 288.327
L430.763 256.791
L430.818 307.686
L430.894 240.686
L430.95 388.8
L431.021 353.113
L431.107 259.919
L431.166 327.676
L431.219 287.229
L431.295 240.686
L431.37 388.8
L431.492 254.977
L431.552 344.591
L431.705 240.686
L431.786 388.8
L431.863 250.774
L431.921 253.201
L431.98 335.68
L432.129 240.686
L432.207 388.8
L432.257 243.542
L432.323 249.14
L432.39 328.621
L432.525 240.686
L432.569 388.8
L432.653 240.686
L432.718 388.8
L432.78 374.752
L432.848 278.492
L432.911 338.056
L432.991 319.259
L433.041 240.686
L433.11 388.8
L433.171 304.525
L433.247 268.461
L433.322 348.3
L433.512 251.68
L433.552 345.087
L433.552 345.087
L433.552 345.087
L433.611 240.686
L433.684 388.8
L433.759 384.065
L433.829 271.722
L433.886 337.732
L433.984 325.363
L434.125 240.686
L434.169 388.8
L434.253 324.871
L434.306 268.567
L434.375 351.638
L434.507 258.531
L434.568 351.421
L434.635 240.686
L434.78 388.8
L434.871 277.684
L434.956 342.24
L435.147 333.012
L435.223 240.686
L435.335 240.686
L435.387 388.8
L435.446 351.1
L435.613 240.686
L435.697 388.8
L435.759 246.198
L435.832 331.866
L435.985 240.686
L436.043 388.8
L436.115 334.191
L436.183 240.686
L436.247 388.8
L436.323 253.649
L436.371 343.407
L436.457 240.686
L436.52 388.8
L436.648 258.708
L436.919 240.686
L437.005 388.8
L437.145 241.8
L437.201 344.923
L437.269 249.202
L437.392 241.73
L437.533 334.867
L437.609 240.686
L437.669 388.8
L437.725 256.734
L437.829 340.22
L438.108 240.686
L438.112 388.8
L438.215 240.686
L438.267 388.8
L438.315 271.799
L438.374 254.98
L438.45 354.461
L438.568 255.657
L438.627 351.244
L438.758 245.729
L438.836 345.977
L438.989 240.686
L439.044 388.8
L439.196 244.038
L439.337 348.892
L439.439 241.572
L439.572 342.832
L439.697 240.686
L439.732 388.8
L439.907 388.8
L439.981 283.53
L440.036 353.067
L440.083 347.153
L440.14 252.832
L440.252 340.113
L440.309 337.486
L440.354 240.686
L440.354 240.686
L440.354 240.686
L440.388 388.8
L440.458 253.623
L440.5 344.088
L440.537 304.602
L440.59 266.775
L440.654 345.431
L440.697 269.789
L440.743 261.169
L440.793 350.219
L440.793 350.219
L440.793 350.219
L440.838 242.075
L440.891 263.504
L440.939 326.964
L441.015 240.686
L441.05 388.8
L441.114 366.127
L441.18 258.459
L441.239 339.029
L441.405 258.601
L441.452 338.932
L441.524 240.686
L441.588 388.8
L441.69 252.565
L441.817 343.055
L441.876 240.686
L441.948 388.8
L442.056 250.964
L442.11 341.655
L442.175 240.686
L442.231 388.8
L442.419 240.686
L442.495 388.8
L442.62 248.69
L442.677 339.738
L442.749 240.686
L442.812 388.8
L442.883 247.879
L442.964 339.043
L443.032 240.686
L443.095 388.8
L443.18 247.17
L443.276 338.431
L443.377 240.686
L443.437 388.8
L443.515 246.529
L443.561 337.874
L443.633 240.686
L443.688 388.8
L443.755 245.936
L443.805 337.358
L443.93 240.686
L443.983 388.8
L444.066 245.381
L444.146 336.875
L444.187 240.686
L444.251 388.8
L444.318 244.859
L444.374 336.42
L444.435 240.686
L444.516 388.8
L444.581 244.367
L444.665 335.991
L444.714 240.686
L444.8 388.8
L444.852 243.901
L444.908 335.585
L444.979 240.686
L445.105 388.8
L445.145 243.461
L445.184 335.201
L445.262 240.686
L445.301 388.8
L445.397 334.837
L445.43 240.686
L445.492 388.8
L445.57 334.492
L445.62 240.686
L445.75 388.8
L445.87 240.686
L445.913 388.8
L445.969 241.921
L446.018 333.857
L446.018 333.857
L446.018 333.857
L446.062 240.686
L446.115 388.8
L446.158 241.585
L446.21 333.564
L446.21 333.564
L446.21 333.564
L446.26 240.686
L446.319 388.8
L446.39 333.287
L446.433 240.686
L446.433 240.686
L446.433 240.686
L446.469 388.8
L446.513 240.966
L446.576 333.024
L446.629 240.686
L446.67 388.8
L446.748 332.776
L446.808 240.686
L446.843 388.8
L446.94 332.54
L446.991 240.686
L447.147 388.8
L447.333 240.686
L447.404 388.8
L447.443 245.37
L447.497 336.404
L447.497 336.404
L447.497 336.404
L447.52 240.686
L447.52 240.686
L447.52 240.686
L447.593 388.8
L447.651 242.589
L447.699 334.217
L447.785 240.686
L447.816 388.8
L447.913 333.033
L448.034 240.686
L448.066 388.8
L448.146 240.686
L448.194 388.8
L448.241 252.424
L448.295 340.678
L448.367 240.686
L448.411 388.8
L448.467 245.108
L448.52 336.158
L448.52 336.158
L448.52 336.158
L448.543 240.686
L448.543 240.686
L448.543 240.686
L448.601 388.8
L448.685 333.914
L448.737 240.686
L448.784 388.8
L448.845 332.712
L448.9 240.686
L449.052 388.8
L449.167 240.686
L449.216 388.8
L449.309 335.876
L449.348 240.686
L449.348 240.686
L449.348 240.686
L449.396 388.8
L449.469 333.634
L449.525 240.686
L449.567 388.8
L449.652 332.441
L449.701 240.686
L449.701 240.686
L449.701 240.686
L449.828 388.8
L449.964 240.686
L450 388.8
L450.079 335.655
L450.117 240.686
L450.189 388.8
L450.265 333.416
L450.334 240.686
L450.457 388.8
L450.514 252.168
L450.724 342.553
L450.784 240.686
L450.857 388.8
L450.917 360.379
L450.976 362.196
L451.24 294.717
L451.311 348.466
L451.36 240.686
L451.419 388.8
L451.499 252.379
L451.561 341.723
L451.673 240.686
L451.772 388.8
L451.875 247.493
L451.962 338.082
L452.022 240.686
L452.089 388.8
L452.156 245.019
L452.239 336.126
L452.372 240.686
L452.425 388.8
L452.488 243.704
L452.556 335.081
L452.624 240.686
L452.68 388.8
L452.752 242.967
L452.819 334.488
L452.884 240.686
L452.947 388.8
L453.026 242.518
L453.099 334.121
L453.158 240.686
L453.232 388.8
L453.316 242.216
L453.391 333.87
L453.476 240.686
L453.54 388.8
L453.729 240.686
L453.808 388.8
L453.864 241.807
L453.932 333.521
L454.01 240.686
L454.068 388.8
L454.139 241.647
L454.197 333.383
L454.27 240.686
L454.33 388.8
L454.414 241.503
L454.478 333.257
L454.535 240.686
L454.616 388.8
L454.671 241.37
L454.726 333.142
L454.799 240.686
L454.852 388.8
L454.926 241.245
L454.984 333.033
L455.056 240.686
L455.112 388.8
L455.187 241.128
L455.327 332.931
L455.364 240.686
L455.496 388.8
L455.667 355.314
L455.847 356.152
L455.853 241.8
L455.892 302.674
L456.046 314.32
L456.229 282.716
L456.306 241.593
L456.366 242.59
L456.421 240.686
L456.461 388.8
L456.67 249.347
L456.784 338.47
L457.094 330.592
L457.165 299.655
L457.244 331.397
L457.381 322.994
L457.538 267.105
L457.645 339.932
L457.746 330.358
L457.929 289.753
L458.039 268.54
L458.208 282.219
L458.295 263.054
L458.381 267.61
L458.468 273.725
L458.568 254.515
L458.733 267.313
L458.883 247.661
L459.011 253.175
L459.127 249.77
L459.177 240.686
L459.26 388.8
L459.314 292.344
L459.378 340.485
L459.452 240.686
L459.51 388.8
L459.578 246.135
L459.643 336.427
L459.725 240.686
L459.788 388.8
L459.856 250.411
L459.942 340.799
L459.989 240.686
L460.078 388.8
L460.132 253.576
L460.196 334.786
L460.274 240.686
L460.364 388.8
L460.427 243.639
L460.501 334.713
L460.572 240.686
L460.644 388.8
L460.715 249.22
L460.787 339.827
L460.924 240.686
L461.019 388.8
L461.076 252.825
L461.146 334.14
L461.23 240.686
L461.305 388.8
L461.381 243.083
L461.467 334.243
L461.509 240.686
L461.587 388.8
L461.67 248.797
L461.729 339.466
L461.806 240.686
L461.867 388.8
L461.937 252.481
L462.017 333.818
L462.08 240.686
L462.159 388.8
L462.236 242.749
L462.324 333.951
L462.392 240.686
L462.483 388.8
L462.561 248.5
L462.643 339.208
L462.734 240.686
L462.782 388.8
L462.885 252.215
L462.956 333.562
L463.052 240.686
L463.138 388.8
L463.198 242.472
L463.359 333.707
L463.45 240.686
L463.524 388.8
L463.64 248.246
L463.704 338.986
L463.794 240.686
L463.838 388.8
L463.933 251.984
L464.015 333.339
L464.072 240.686
L464.124 388.8
L464.205 242.227
L464.281 333.492
L464.358 240.686
L464.434 388.8
L464.49 248.021
L464.571 338.789
L464.631 240.686
L464.709 388.8
L464.85 251.779
L464.88 333.141
L464.959 240.686
L465.079 388.8
L465.213 240.686
L465.247 388.8
L465.3 258.016
L465.338 242.671
L465.372 335.776
L465.372 335.776
L465.372 335.776
L465.43 240.686
L465.491 388.8
L465.539 384.271
L465.611 283.93
L465.656 341.21
L465.778 264.247
L465.832 346.525
L465.897 244.349
L465.971 258.879
L466.004 328.769
L466.004 328.769
L466.004 328.769
L466.056 240.686
L466.138 388.8
L466.19 378.59
L466.242 264.11
L466.308 329.866
L466.37 240.686
L466.422 388.8
L466.482 240.686
L466.578 248.04
L466.643 336.318
L466.695 240.686
L466.745 388.8
L466.807 240.686
L466.872 388.8
L466.913 250.97
L466.994 338.814
L467.06 240.686
L467.115 388.8
L467.29 240.686
L467.364 388.8
L467.422 240.686
L467.492 388.8
L467.544 250.659
L467.607 338.629
L467.664 240.686
L467.725 388.8
L467.799 242.5
L467.851 333.539
L467.911 240.686
L467.952 388.8
L468.082 240.686
L468.542 248.233
L468.557 240.686
L468.557 240.686" style="fill:none;stroke:#008000;stroke-linecap:square;"/>
   </g>
   <g id="patch_3">
    <path d="
M72 43.2
L518.4 43.2" style="fill:none;stroke:#000000;stroke-linecap:square;stroke-linejoin:miter;"/>
   </g>
   <g id="patch_4">
    <path d="
M518.4 388.8
L518.4 43.2" style="fill:none;stroke:#000000;stroke-linecap:square;stroke-linejoin:miter;"/>
   </g>
   <g id="patch_5">
    <path d="
M72 388.8
L72 43.2" style="fill:none;stroke:#000000;stroke-linecap:square;stroke-linejoin:miter;"/>
   </g>
   <g id="patch_6">
    <path d="
M72 388.8
L518.4 388.8" style="fill:none;stroke:#000000;stroke-linecap:square;stroke-linejoin:miter;"/>
   </g>
   <g id="matplotlib.axis_1">
    <g id="xtick_1">
     <g id="line2d_5">
      <path clip-path="url(#p7ff5b81e1d)" d="
M72 388.8
L72 43.2" style="fill:none;stroke:#000000;stroke-dasharray:3.000000,5.000000,1.000000,5.000000;stroke-dashoffset:0.0;stroke-width:0.5;"/>
     </g>
     <g id="line2d_6">
      <defs>
       <path d="
M0 0
L0 -4" id="mc7db9fdffb" style="stroke:#000000;stroke-width:0.5;"/>
      </defs>
      <g>
       <use style="stroke:#000000;stroke-width:0.5;" x="72.0" xlink:href="#mc7db9fdffb" y="388.8"/>
      </g>
     </g>
     <g id="line2d_7">
      <defs>
       <path d="
M0 0
L0 4" id="m5a7d422ac3" style="stroke:#000000;stroke-width:0.5;"/>
      </defs>
      <g>
       <use style="stroke:#000000;stroke-width:0.5;" x="72.0" xlink:href="#m5a7d422ac3" y="43.2"/>
      </g>
     </g>
     <g id="text_1">
      <!-- 0 -->
      <defs>
       <path d="
M31.7812 66.4062
Q24.1719 66.4062 20.3281 58.9062
Q16.5 51.4219 16.5 36.375
Q16.5 21.3906 20.3281 13.8906
Q24.1719 6.39062 31.7812 6.39062
Q39.4531 6.39062 43.2812 13.8906
Q47.125 21.3906 47.125 36.375
Q47.125 51.4219 43.2812 58.9062
Q39.4531 66.4062 31.7812 66.4062
M31.7812 74.2188
Q44.0469 74.2188 50.5156 64.5156
Q56.9844 54.8281 56.9844 36.375
Q56.9844 17.9688 50.5156 8.26562
Q44.0469 -1.42188 31.7812 -1.42188
Q19.5312 -1.42188 13.0625 8.26562
Q6.59375 17.9688 6.59375 36.375
Q6.59375 54.8281 13.0625 64.5156
Q19.5312 74.2188 31.7812 74.2188" id="DejaVuSans-30"/>
      </defs>
      <g transform="translate(68.9765625 401.918125)scale(0.12 -0.12)">
       <use xlink:href="#DejaVuSans-30"/>
      </g>
     </g>
    </g>
    <g id="xtick_2">
     <g id="line2d_8">
      <path clip-path="url(#p7ff5b81e1d)" d="
M135.771 388.8
L135.771 43.2" style="fill:none;stroke:#000000;stroke-dasharray:3.000000,5.000000,1.000000,5.000000;stroke-dashoffset:0.0;stroke-width:0.5;"/>
     </g>
     <g id="line2d_9">
      <g>
       <use style="stroke:#000000;stroke-width:0.5;" x="135.771428571" xlink:href="#mc7db9fdffb" y="388.8"/>
      </g>
     </g>
     <g id="line2d_10">
      <g>
       <use style="stroke:#000000;stroke-width:0.5;" x="135.771428571" xlink:href="#m5a7d422ac3" y="43.2"/>
      </g>
     </g>
     <g id="text_2">
      <!-- 50 -->
      <defs>
       <path d="
M10.7969 72.9062
L49.5156 72.9062
L49.5156 64.5938
L19.8281 64.5938
L19.8281 46.7344
Q21.9688 47.4688 24.1094 47.8281
Q26.2656 48.1875 28.4219 48.1875
Q40.625 48.1875 47.75 41.5
Q54.8906 34.8125 54.8906 23.3906
Q54.8906 11.625 47.5625 5.09375
Q40.2344 -1.42188 26.9062 -1.42188
Q22.3125 -1.42188 17.5469 -0.640625
Q12.7969 0.140625 7.71875 1.70312
L7.71875 11.625
Q12.1094 9.23438 16.7969 8.0625
Q21.4844 6.89062 26.7031 6.89062
Q35.1562 6.89062 40.0781 11.3281
Q45.0156 15.7656 45.0156 23.3906
Q45.0156 31 40.0781 35.4375
Q35.1562 39.8906 26.7031 39.8906
Q22.75 39.8906 18.8125 39.0156
Q14.8906 38.1406 10.7969 36.2812
z
" id="DejaVuSans-35"/>
      </defs>
      <g transform="translate(128.997991071 401.918125)scale(0.12 -0.12)">
       <use xlink:href="#DejaVuSans-35"/>
       <use x="63.623046875" xlink:href="#DejaVuSans-30"/>
      </g>
     </g>
    </g>
    <g id="xtick_3">
     <g id="line2d_11">
      <path clip-path="url(#p7ff5b81e1d)" d="
M199.543 388.8
L199.543 43.2" style="fill:none;stroke:#000000;stroke-dasharray:3.000000,5.000000,1.000000,5.000000;stroke-dashoffset:0.0;stroke-width:0.5;"/>
     </g>
     <g id="line2d_12">
      <g>
       <use style="stroke:#000000;stroke-width:0.5;" x="199.542857143" xlink:href="#mc7db9fdffb" y="388.8"/>
      </g>
     </g>
     <g id="line2d_13">
      <g>
       <use style="stroke:#000000;stroke-width:0.5;" x="199.542857143" xlink:href="#m5a7d422ac3" y="43.2"/>
      </g>
     </g>
     <g id="text_3">
      <!-- 100 -->
      <defs>
       <path d="
M12.4062 8.29688
L28.5156 8.29688
L28.5156 63.9219
L10.9844 60.4062
L10.9844 69.3906
L28.4219 72.9062
L38.2812 72.9062
L38.2812 8.29688
L54.3906 8.29688
L54.3906 0
L12.4062 0
z
" id="DejaVuSans-31"/>
      </defs>
      <g transform="translate(189.147857143 401.918125)scale(0.12 -0.12)">
       <use xlink:href="#DejaVuSans-31"/>
       <use x="63.623046875" xlink:href="#DejaVuSans-30"/>
       <use x="127.24609375" xlink:href="#DejaVuSans-30"/>
      </g>
     </g>
    </g>
    <g id="xtick_4">
     <g id="line2d_14">
      <path clip-path="url(#p7ff5b81e1d)" d="
M263.314 388.8
L263.314 43.2" style="fill:none;stroke:#000000;stroke-dasharray:3.000000,5.000000,1.000000,5.000000;stroke-dashoffset:0.0;stroke-width:0.5;"/>
     </g>
     <g id="line2d_15">
      <g>
       <use style="stroke:#000000;stroke-width:0.5;" x="263.314285714" xlink:href="#mc7db9fdffb" y="388.8"/>
      </g>
     </g>
     <g id="line2d_16">
      <g>
       <use style="stroke:#000000;stroke-width:0.5;" x="263.314285714" xlink:href="#m5a7d422ac3" y="43.2"/>
      </g>
     </g>
     <g id="text_4">
      <!-- 150 -->
      <g transform="translate(252.919285714 401.918125)scale(0.12 -0.12)">
       <use xlink:href="#DejaVuSans-31"/>
       <use x="63.623046875" xlink:href="#DejaVuSans-35"/>
       <use x="127.24609375" xlink:href="#DejaVuSans-30"/>
      </g>
     </g>
    </g>
    <g id="xtick_5">
     <g id="line2d_17">
      <path clip-path="url(#p7ff5b81e1d)" d="
M327.086 388.8
L327.086 43.2" style="fill:none;stroke:#000000;stroke-dasharray:3.000000,5.000000,1.000000,5.000000;stroke-dashoffset:0.0;stroke-width:0.5;"/>
     </g>
     <g id="line2d_18">
      <g>
       <use style="stroke:#000000;stroke-width:0.5;" x="327.085714286" xlink:href="#mc7db9fdffb" y="388.8"/>
      </g>
     </g>
     <g id="line2d_19">
      <g>
       <use style="stroke:#000000;stroke-width:0.5;" x="327.085714286" xlink:href="#m5a7d422ac3" y="43.2"/>
      </g>
     </g>
     <g id="text_5">
      <!-- 200 -->
      <defs>
       <path d="
M19.1875 8.29688
L53.6094 8.29688
L53.6094 0
L7.32812 0
L7.32812 8.29688
Q12.9375 14.1094 22.625 23.8906
Q32.3281 33.6875 34.8125 36.5312
Q39.5469 41.8438 41.4219 45.5312
Q43.3125 49.2188 43.3125 52.7812
Q43.3125 58.5938 39.2344 62.25
Q35.1562 65.9219 28.6094 65.9219
Q23.9688 65.9219 18.8125 64.3125
Q13.6719 62.7031 7.8125 59.4219
L7.8125 69.3906
Q13.7656 71.7812 18.9375 73
Q24.125 74.2188 28.4219 74.2188
Q39.75 74.2188 46.4844 68.5469
Q53.2188 62.8906 53.2188 53.4219
Q53.2188 48.9219 51.5312 44.8906
Q49.8594 40.875 45.4062 35.4062
Q44.1875 33.9844 37.6406 27.2188
Q31.1094 20.4531 19.1875 8.29688" id="DejaVuSans-32"/>
      </defs>
      <g transform="translate(316.471339286 401.918125)scale(0.12 -0.12)">
       <use xlink:href="#DejaVuSans-32"/>
       <use x="63.623046875" xlink:href="#DejaVuSans-30"/>
       <use x="127.24609375" xlink:href="#DejaVuSans-30"/>
      </g>
     </g>
    </g>
    <g id="xtick_6">
     <g id="line2d_20">
      <path clip-path="url(#p7ff5b81e1d)" d="
M390.857 388.8
L390.857 43.2" style="fill:none;stroke:#000000;stroke-dasharray:3.000000,5.000000,1.000000,5.000000;stroke-dashoffset:0.0;stroke-width:0.5;"/>
     </g>
     <g id="line2d_21">
      <g>
       <use style="stroke:#000000;stroke-width:0.5;" x="390.857142857" xlink:href="#mc7db9fdffb" y="388.8"/>
      </g>
     </g>
     <g id="line2d_22">
      <g>
       <use style="stroke:#000000;stroke-width:0.5;" x="390.857142857" xlink:href="#m5a7d422ac3" y="43.2"/>
      </g>
     </g>
     <g id="text_6">
      <!-- 250 -->
      <g transform="translate(380.242767857 401.918125)scale(0.12 -0.12)">
       <use xlink:href="#DejaVuSans-32"/>
       <use x="63.623046875" xlink:href="#DejaVuSans-35"/>
       <use x="127.24609375" xlink:href="#DejaVuSans-30"/>
      </g>
     </g>
    </g>
    <g id="xtick_7">
     <g id="line2d_23">
      <path clip-path="url(#p7ff5b81e1d)" d="
M454.629 388.8
L454.629 43.2" style="fill:none;stroke:#000000;stroke-dasharray:3.000000,5.000000,1.000000,5.000000;stroke-dashoffset:0.0;stroke-width:0.5;"/>
     </g>
     <g id="line2d_24">
      <g>
       <use style="stroke:#000000;stroke-width:0.5;" x="454.628571429" xlink:href="#mc7db9fdffb" y="388.8"/>
      </g>
     </g>
     <g id="line2d_25">
      <g>
       <use style="stroke:#000000;stroke-width:0.5;" x="454.628571429" xlink:href="#m5a7d422ac3" y="43.2"/>
      </g>
     </g>
     <g id="text_7">
      <!-- 300 -->
      <defs>
       <path d="
M40.5781 39.3125
Q47.6562 37.7969 51.625 33
Q55.6094 28.2188 55.6094 21.1875
Q55.6094 10.4062 48.1875 4.48438
Q40.7656 -1.42188 27.0938 -1.42188
Q22.5156 -1.42188 17.6562 -0.515625
Q12.7969 0.390625 7.625 2.20312
L7.625 11.7188
Q11.7188 9.32812 16.5938 8.10938
Q21.4844 6.89062 26.8125 6.89062
Q36.0781 6.89062 40.9375 10.5469
Q45.7969 14.2031 45.7969 21.1875
Q45.7969 27.6406 41.2812 31.2656
Q36.7656 34.9062 28.7188 34.9062
L20.2188 34.9062
L20.2188 43.0156
L29.1094 43.0156
Q36.375 43.0156 40.2344 45.9219
Q44.0938 48.8281 44.0938 54.2969
Q44.0938 59.9062 40.1094 62.9062
Q36.1406 65.9219 28.7188 65.9219
Q24.6562 65.9219 20.0156 65.0312
Q15.375 64.1562 9.8125 62.3125
L9.8125 71.0938
Q15.4375 72.6562 20.3438 73.4375
Q25.25 74.2188 29.5938 74.2188
Q40.8281 74.2188 47.3594 69.1094
Q53.9062 64.0156 53.9062 55.3281
Q53.9062 49.2656 50.4375 45.0938
Q46.9688 40.9219 40.5781 39.3125" id="DejaVuSans-33"/>
      </defs>
      <g transform="translate(444.032008929 401.918125)scale(0.12 -0.12)">
       <use xlink:href="#DejaVuSans-33"/>
       <use x="63.623046875" xlink:href="#DejaVuSans-30"/>
       <use x="127.24609375" xlink:href="#DejaVuSans-30"/>
      </g>
     </g>
    </g>
    <g id="xtick_8">
     <g id="line2d_26">
      <path clip-path="url(#p7ff5b81e1d)" d="
M518.4 388.8
L518.4 43.2" style="fill:none;stroke:#000000;stroke-dasharray:3.000000,5.000000,1.000000,5.000000;stroke-dashoffset:0.0;stroke-width:0.5;"/>
     </g>
     <g id="line2d_27">
      <g>
       <use style="stroke:#000000;stroke-width:0.5;" x="518.4" xlink:href="#mc7db9fdffb" y="388.8"/>
      </g>
     </g>
     <g id="line2d_28">
      <g>
       <use style="stroke:#000000;stroke-width:0.5;" x="518.4" xlink:href="#m5a7d422ac3" y="43.2"/>
      </g>
     </g>
     <g id="text_8">
      <!-- 350 -->
      <g transform="translate(507.8034375 401.918125)scale(0.12 -0.12)">
       <use xlink:href="#DejaVuSans-33"/>
       <use x="63.623046875" xlink:href="#DejaVuSans-35"/>
       <use x="127.24609375" xlink:href="#DejaVuSans-30"/>
      </g>
     </g>
    </g>
    <g id="text_9">
     <!-- Time -->
     <defs>
      <path d="
M9.42188 54.6875
L18.4062 54.6875
L18.4062 0
L9.42188 0
z

M9.42188 75.9844
L18.4062 75.9844
L18.4062 64.5938
L9.42188 64.5938
z
" id="DejaVuSans-69"/>
      <path d="
M56.2031 29.5938
L56.2031 25.2031
L14.8906 25.2031
Q15.4844 15.9219 20.4844 11.0625
Q25.4844 6.20312 34.4219 6.20312
Q39.5938 6.20312 44.4531 7.46875
Q49.3125 8.73438 54.1094 11.2812
L54.1094 2.78125
Q49.2656 0.734375 44.1875 -0.34375
Q39.1094 -1.42188 33.8906 -1.42188
Q20.7969 -1.42188 13.1562 6.1875
Q5.51562 13.8125 5.51562 26.8125
Q5.51562 40.2344 12.7656 48.1094
Q20.0156 56 32.3281 56
Q43.3594 56 49.7812 48.8906
Q56.2031 41.7969 56.2031 29.5938
M47.2188 32.2344
Q47.125 39.5938 43.0938 43.9844
Q39.0625 48.3906 32.4219 48.3906
Q24.9062 48.3906 20.3906 44.1406
Q15.875 39.8906 15.1875 32.1719
z
" id="DejaVuSans-65"/>
      <path d="
M-0.296875 72.9062
L61.375 72.9062
L61.375 64.5938
L35.5 64.5938
L35.5 0
L25.5938 0
L25.5938 64.5938
L-0.296875 64.5938
z
" id="DejaVuSans-54"/>
      <path d="
M52 44.1875
Q55.375 50.25 60.0625 53.125
Q64.75 56 71.0938 56
Q79.6406 56 84.2812 50.0156
Q88.9219 44.0469 88.9219 33.0156
L88.9219 0
L79.8906 0
L79.8906 32.7188
Q79.8906 40.5781 77.0938 44.375
Q74.3125 48.1875 68.6094 48.1875
Q61.625 48.1875 57.5625 43.5469
Q53.5156 38.9219 53.5156 30.9062
L53.5156 0
L44.4844 0
L44.4844 32.7188
Q44.4844 40.625 41.7031 44.4062
Q38.9219 48.1875 33.1094 48.1875
Q26.2188 48.1875 22.1562 43.5312
Q18.1094 38.875 18.1094 30.9062
L18.1094 0
L9.07812 0
L9.07812 54.6875
L18.1094 54.6875
L18.1094 46.1875
Q21.1875 51.2188 25.4844 53.6094
Q29.7812 56 35.6875 56
Q41.6562 56 45.8281 52.9688
Q50 49.9531 52 44.1875" id="DejaVuSans-6d"/>
     </defs>
     <g transform="translate(278.42515625 420.0515625)scale(0.14 -0.14)">
      <use xlink:href="#DejaVuSans-54"/>
      <use x="57.958984375" xlink:href="#DejaVuSans-69"/>
      <use x="85.7421875" xlink:href="#DejaVuSans-6d"/>
      <use x="183.154296875" xlink:href="#DejaVuSans-65"/>
     </g>
    </g>
   </g>
   <g id="matplotlib.axis_2">
    <g id="ytick_1">
     <g id="line2d_29">
      <path clip-path="url(#p7ff5b81e1d)" d="
M72 388.8
L518.4 388.8" style="fill:none;stroke:#000000;stroke-dasharray:3.000000,5.000000,1.000000,5.000000;stroke-dashoffset:0.0;stroke-width:0.5;"/>
     </g>
     <g id="line2d_30">
      <defs>
       <path d="
M0 0
L4 0" id="md7965d1ba0" style="stroke:#000000;stroke-width:0.5;"/>
      </defs>
      <g>
       <use style="stroke:#000000;stroke-width:0.5;" x="72.0" xlink:href="#md7965d1ba0" y="388.8"/>
      </g>
     </g>
     <g id="line2d_31">
      <defs>
       <path d="
M0 0
L-4 0" id="md9a1c1a7cd" style="stroke:#000000;stroke-width:0.5;"/>
      </defs>
      <g>
       <use style="stroke:#000000;stroke-width:0.5;" x="518.4" xlink:href="#md9a1c1a7cd" y="388.8"/>
      </g>
     </g>
     <g id="text_10">
      <!-- 15000 -->
      <defs>
       <path d="
M10.5938 35.5
L73.1875 35.5
L73.1875 27.2031
L10.5938 27.2031
z
" id="DejaVuSans-2212"/>
      </defs>
      <g transform="translate(21.8375 392.11125)scale(0.12 -0.12)">
       <use xlink:href="#DejaVuSans-2212"/>
       <use x="83.7890625" xlink:href="#DejaVuSans-31"/>
       <use x="147.412109375" xlink:href="#DejaVuSans-35"/>
       <use x="211.03515625" xlink:href="#DejaVuSans-30"/>
       <use x="274.658203125" xlink:href="#DejaVuSans-30"/>
       <use x="338.28125" xlink:href="#DejaVuSans-30"/>
      </g>
     </g>
    </g>
    <g id="ytick_2">
     <g id="line2d_32">
      <path clip-path="url(#p7ff5b81e1d)" d="
M72 339.429
L518.4 339.429" style="fill:none;stroke:#000000;stroke-dasharray:3.000000,5.000000,1.000000,5.000000;stroke-dashoffset:0.0;stroke-width:0.5;"/>
     </g>
     <g id="line2d_33">
      <g>
       <use style="stroke:#000000;stroke-width:0.5;" x="72.0" xlink:href="#md7965d1ba0" y="339.428571429"/>
      </g>
     </g>
     <g id="line2d_34">
      <g>
       <use style="stroke:#000000;stroke-width:0.5;" x="518.4" xlink:href="#md9a1c1a7cd" y="339.428571429"/>
      </g>
     </g>
     <g id="text_11">
      <!-- 10000 -->
      <g transform="translate(21.8375 342.739821429)scale(0.12 -0.12)">
       <use xlink:href="#DejaVuSans-2212"/>
       <use x="83.7890625" xlink:href="#DejaVuSans-31"/>
       <use x="147.412109375" xlink:href="#DejaVuSans-30"/>
       <use x="211.03515625" xlink:href="#DejaVuSans-30"/>
       <use x="274.658203125" xlink:href="#DejaVuSans-30"/>
       <use x="338.28125" xlink:href="#DejaVuSans-30"/>
      </g>
     </g>
    </g>
    <g id="ytick_3">
     <g id="line2d_35">
      <path clip-path="url(#p7ff5b81e1d)" d="
M72 290.057
L518.4 290.057" style="fill:none;stroke:#000000;stroke-dasharray:3.000000,5.000000,1.000000,5.000000;stroke-dashoffset:0.0;stroke-width:0.5;"/>
     </g>
     <g id="line2d_36">
      <g>
       <use style="stroke:#000000;stroke-width:0.5;" x="72.0" xlink:href="#md7965d1ba0" y="290.057142857"/>
      </g>
     </g>
     <g id="line2d_37">
      <g>
       <use style="stroke:#000000;stroke-width:0.5;" x="518.4" xlink:href="#md9a1c1a7cd" y="290.057142857"/>
      </g>
     </g>
     <g id="text_12">
      <!-- 5000 -->
      <g transform="translate(29.4725 293.368392857)scale(0.12 -0.12)">
       <use xlink:href="#DejaVuSans-2212"/>
       <use x="83.7890625" xlink:href="#DejaVuSans-35"/>
       <use x="147.412109375" xlink:href="#DejaVuSans-30"/>
       <use x="211.03515625" xlink:href="#DejaVuSans-30"/>
       <use x="274.658203125" xlink:href="#DejaVuSans-30"/>
      </g>
     </g>
    </g>
    <g id="ytick_4">
     <g id="line2d_38">
      <path clip-path="url(#p7ff5b81e1d)" d="
M72 240.686
L518.4 240.686" style="fill:none;stroke:#000000;stroke-dasharray:3.000000,5.000000,1.000000,5.000000;stroke-dashoffset:0.0;stroke-width:0.5;"/>
     </g>
     <g id="line2d_39">
      <g>
       <use style="stroke:#000000;stroke-width:0.5;" x="72.0" xlink:href="#md7965d1ba0" y="240.685714286"/>
      </g>
     </g>
     <g id="line2d_40">
      <g>
       <use style="stroke:#000000;stroke-width:0.5;" x="518.4" xlink:href="#md9a1c1a7cd" y="240.685714286"/>
      </g>
     </g>
     <g id="text_13">
      <!-- 0 -->
      <g transform="translate(61.953125 243.996964286)scale(0.12 -0.12)">
       <use xlink:href="#DejaVuSans-30"/>
      </g>
     </g>
    </g>
    <g id="ytick_5">
     <g id="line2d_41">
      <path clip-path="url(#p7ff5b81e1d)" d="
M72 191.314
L518.4 191.314" style="fill:none;stroke:#000000;stroke-dasharray:3.000000,5.000000,1.000000,5.000000;stroke-dashoffset:0.0;stroke-width:0.5;"/>
     </g>
     <g id="line2d_42">
      <g>
       <use style="stroke:#000000;stroke-width:0.5;" x="72.0" xlink:href="#md7965d1ba0" y="191.314285714"/>
      </g>
     </g>
     <g id="line2d_43">
      <g>
       <use style="stroke:#000000;stroke-width:0.5;" x="518.4" xlink:href="#md9a1c1a7cd" y="191.314285714"/>
      </g>
     </g>
     <g id="text_14">
      <!-- 5000 -->
      <g transform="translate(39.183125 194.625535714)scale(0.12 -0.12)">
       <use xlink:href="#DejaVuSans-35"/>
       <use x="63.623046875" xlink:href="#DejaVuSans-30"/>
       <use x="127.24609375" xlink:href="#DejaVuSans-30"/>
       <use x="190.869140625" xlink:href="#DejaVuSans-30"/>
      </g>
     </g>
    </g>
    <g id="ytick_6">
     <g id="line2d_44">
      <path clip-path="url(#p7ff5b81e1d)" d="
M72 141.943
L518.4 141.943" style="fill:none;stroke:#000000;stroke-dasharray:3.000000,5.000000,1.000000,5.000000;stroke-dashoffset:0.0;stroke-width:0.5;"/>
     </g>
     <g id="line2d_45">
      <g>
       <use style="stroke:#000000;stroke-width:0.5;" x="72.0" xlink:href="#md7965d1ba0" y="141.942857143"/>
      </g>
     </g>
     <g id="line2d_46">
      <g>
       <use style="stroke:#000000;stroke-width:0.5;" x="518.4" xlink:href="#md9a1c1a7cd" y="141.942857143"/>
      </g>
     </g>
     <g id="text_15">
      <!-- 10000 -->
      <g transform="translate(31.94 145.254107143)scale(0.12 -0.12)">
       <use xlink:href="#DejaVuSans-31"/>
       <use x="63.623046875" xlink:href="#DejaVuSans-30"/>
       <use x="127.24609375" xlink:href="#DejaVuSans-30"/>
       <use x="190.869140625" xlink:href="#DejaVuSans-30"/>
       <use x="254.4921875" xlink:href="#DejaVuSans-30"/>
      </g>
     </g>
    </g>
    <g id="ytick_7">
     <g id="line2d_47">
      <path clip-path="url(#p7ff5b81e1d)" d="
M72 92.5714
L518.4 92.5714" style="fill:none;stroke:#000000;stroke-dasharray:3.000000,5.000000,1.000000,5.000000;stroke-dashoffset:0.0;stroke-width:0.5;"/>
     </g>
     <g id="line2d_48">
      <g>
       <use style="stroke:#000000;stroke-width:0.5;" x="72.0" xlink:href="#md7965d1ba0" y="92.5714285714"/>
      </g>
     </g>
     <g id="line2d_49">
      <g>
       <use style="stroke:#000000;stroke-width:0.5;" x="518.4" xlink:href="#md9a1c1a7cd" y="92.5714285714"/>
      </g>
     </g>
     <g id="text_16">
      <!-- 15000 -->
      <g transform="translate(31.94 95.8826785714)scale(0.12 -0.12)">
       <use xlink:href="#DejaVuSans-31"/>
       <use x="63.623046875" xlink:href="#DejaVuSans-35"/>
       <use x="127.24609375" xlink:href="#DejaVuSans-30"/>
       <use x="190.869140625" xlink:href="#DejaVuSans-30"/>
       <use x="254.4921875" xlink:href="#DejaVuSans-30"/>
      </g>
     </g>
    </g>
    <g id="ytick_8">
     <g id="line2d_50">
      <path clip-path="url(#p7ff5b81e1d)" d="
M72 43.2
L518.4 43.2" style="fill:none;stroke:#000000;stroke-dasharray:3.000000,5.000000,1.000000,5.000000;stroke-dashoffset:0.0;stroke-width:0.5;"/>
     </g>
     <g id="line2d_51">
      <g>
       <use style="stroke:#000000;stroke-width:0.5;" x="72.0" xlink:href="#md7965d1ba0" y="43.2"/>
      </g>
     </g>
     <g id="line2d_52">
      <g>
       <use style="stroke:#000000;stroke-width:0.5;" x="518.4" xlink:href="#md9a1c1a7cd" y="43.2"/>
      </g>
     </g>
     <g id="text_17">
      <!-- 20000 -->
      <g transform="translate(31.50125 46.51125)scale(0.12 -0.12)">
       <use xlink:href="#DejaVuSans-32"/>
       <use x="63.623046875" xlink:href="#DejaVuSans-30"/>
       <use x="127.24609375" xlink:href="#DejaVuSans-30"/>
       <use x="190.869140625" xlink:href="#DejaVuSans-30"/>
       <use x="254.4921875" xlink:href="#DejaVuSans-30"/>
      </g>
     </g>
    </g>
    <g id="text_18">
     <!-- dif_myu_upper_p -->
     <defs>
      <path d="
M50.9844 -16.6094
L50.9844 -23.5781
L-0.984375 -23.5781
L-0.984375 -16.6094
z
" id="DejaVuSans-5f"/>
      <path d="
M41.1094 46.2969
Q39.5938 47.1719 37.8125 47.5781
Q36.0312 48 33.8906 48
Q26.2656 48 22.1875 43.0469
Q18.1094 38.0938 18.1094 28.8125
L18.1094 0
L9.07812 0
L9.07812 54.6875
L18.1094 54.6875
L18.1094 46.1875
Q20.9531 51.1719 25.4844 53.5781
Q30.0312 56 36.5312 56
Q37.4531 56 38.5781 55.875
Q39.7031 55.7656 41.0625 55.5156
z
" id="DejaVuSans-72"/>
      <path d="
M18.1094 8.20312
L18.1094 -20.7969
L9.07812 -20.7969
L9.07812 54.6875
L18.1094 54.6875
L18.1094 46.3906
Q20.9531 51.2656 25.2656 53.625
Q29.5938 56 35.5938 56
Q45.5625 56 51.7812 48.0938
Q58.0156 40.1875 58.0156 27.2969
Q58.0156 14.4062 51.7812 6.48438
Q45.5625 -1.42188 35.5938 -1.42188
Q29.5938 -1.42188 25.2656 0.953125
Q20.9531 3.32812 18.1094 8.20312
M48.6875 27.2969
Q48.6875 37.2031 44.6094 42.8438
Q40.5312 48.4844 33.4062 48.4844
Q26.2656 48.4844 22.1875 42.8438
Q18.1094 37.2031 18.1094 27.2969
Q18.1094 17.3906 22.1875 11.75
Q26.2656 6.10938 33.4062 6.10938
Q40.5312 6.10938 44.6094 11.75
Q48.6875 17.3906 48.6875 27.2969" id="DejaVuSans-70"/>
      <path d="
M45.4062 46.3906
L45.4062 75.9844
L54.3906 75.9844
L54.3906 0
L45.4062 0
L45.4062 8.20312
Q42.5781 3.32812 38.25 0.953125
Q33.9375 -1.42188 27.875 -1.42188
Q17.9688 -1.42188 11.7344 6.48438
Q5.51562 14.4062 5.51562 27.2969
Q5.51562 40.1875 11.7344 48.0938
Q17.9688 56 27.875 56
Q33.9375 56 38.25 53.625
Q42.5781 51.2656 45.4062 46.3906
M14.7969 27.2969
Q14.7969 17.3906 18.875 11.75
Q22.9531 6.10938 30.0781 6.10938
Q37.2031 6.10938 41.2969 11.75
Q45.4062 17.3906 45.4062 27.2969
Q45.4062 37.2031 41.2969 42.8438
Q37.2031 48.4844 30.0781 48.4844
Q22.9531 48.4844 18.875 42.8438
Q14.7969 37.2031 14.7969 27.2969" id="DejaVuSans-64"/>
      <path d="
M32.1719 -5.07812
Q28.375 -14.8438 24.75 -17.8125
Q21.1406 -20.7969 15.0938 -20.7969
L7.90625 -20.7969
L7.90625 -13.2812
L13.1875 -13.2812
Q16.8906 -13.2812 18.9375 -11.5156
Q21 -9.76562 23.4844 -3.21875
L25.0938 0.875
L2.98438 54.6875
L12.5 54.6875
L29.5938 11.9219
L46.6875 54.6875
L56.2031 54.6875
z
" id="DejaVuSans-79"/>
      <path d="
M37.1094 75.9844
L37.1094 68.5
L28.5156 68.5
Q23.6875 68.5 21.7969 66.5469
Q19.9219 64.5938 19.9219 59.5156
L19.9219 54.6875
L34.7188 54.6875
L34.7188 47.7031
L19.9219 47.7031
L19.9219 0
L10.8906 0
L10.8906 47.7031
L2.29688 47.7031
L2.29688 54.6875
L10.8906 54.6875
L10.8906 58.5
Q10.8906 67.625 15.1406 71.7969
Q19.3906 75.9844 28.6094 75.9844
z
" id="DejaVuSans-66"/>
      <path d="
M8.5 21.5781
L8.5 54.6875
L17.4844 54.6875
L17.4844 21.9219
Q17.4844 14.1562 20.5 10.2656
Q23.5312 6.39062 29.5938 6.39062
Q36.8594 6.39062 41.0781 11.0312
Q45.3125 15.6719 45.3125 23.6875
L45.3125 54.6875
L54.2969 54.6875
L54.2969 0
L45.3125 0
L45.3125 8.40625
Q42.0469 3.42188 37.7188 1
Q33.4062 -1.42188 27.6875 -1.42188
Q18.2656 -1.42188 13.375 4.4375
Q8.5 10.2969 8.5 21.5781
M31.1094 56
z
" id="DejaVuSans-75"/>
     </defs>
     <g transform="translate(13.5365625 274.93453125)rotate(-90.0)scale(0.14 -0.14)">
      <use xlink:href="#DejaVuSans-64"/>
      <use x="63.4765625" xlink:href="#DejaVuSans-69"/>
      <use x="91.259765625" xlink:href="#DejaVuSans-66"/>
      <use x="126.46484375" xlink:href="#DejaVuSans-5f"/>
      <use x="176.46484375" xlink:href="#DejaVuSans-6d"/>
      <use x="273.876953125" xlink:href="#DejaVuSans-79"/>
      <use x="333.056640625" xlink:href="#DejaVuSans-75"/>
      <use x="396.435546875" xlink:href="#DejaVuSans-5f"/>
      <use x="446.435546875" xlink:href="#DejaVuSans-75"/>
      <use x="509.814453125" xlink:href="#DejaVuSans-70"/>
      <use x="573.291015625" xlink:href="#DejaVuSans-70"/>
      <use x="636.767578125" xlink:href="#DejaVuSans-65"/>
      <use x="698.291015625" xlink:href="#DejaVuSans-72"/>
      <use x="739.404296875" xlink:href="#DejaVuSans-5f"/>
      <use x="789.404296875" xlink:href="#DejaVuSans-70"/>
     </g>
    </g>
   </g>
   <g id="text_19">
    <!-- dif_myu_upper_p -->
    <g transform="translate(236.26546875 38.2)scale(0.14 -0.14)">
     <use xlink:href="#DejaVuSans-64"/>
     <use x="63.4765625" xlink:href="#DejaVuSans-69"/>
     <use x="91.259765625" xlink:href="#DejaVuSans-66"/>
     <use x="126.46484375" xlink:href="#DejaVuSans-5f"/>
     <use x="176.46484375" xlink:href="#DejaVuSans-6d"/>
     <use x="273.876953125" xlink:href="#DejaVuSans-79"/>
     <use x="333.056640625" xlink:href="#DejaVuSans-75"/>
     <use x="396.435546875" xlink:href="#DejaVuSans-5f"/>
     <use x="446.435546875" xlink:href="#DejaVuSans-75"/>
     <use x="509.814453125" xlink:href="#DejaVuSans-70"/>
     <use x="573.291015625" xlink:href="#DejaVuSans-70"/>
     <use x="636.767578125" xlink:href="#DejaVuSans-65"/>
     <use x="698.291015625" xlink:href="#DejaVuSans-72"/>
     <use x="739.404296875" xlink:href="#DejaVuSans-5f"/>
     <use x="789.404296875" xlink:href="#DejaVuSans-70"/>
    </g>
   </g>
   <g id="legend_1">
    <g id="patch_7">
     <path d="
M328.982 140.868
L511.2 140.868
L511.2 50.4
L328.982 50.4
z
" style="fill:#ffffff;stroke:#000000;stroke-linejoin:miter;"/>
    </g>
    <g id="line2d_53">
     <path d="
M339.062 62.0617
L359.222 62.0617" style="fill:none;stroke:#bf00bf;stroke-linecap:square;"/>
    </g>
    <g id="line2d_54"/>
    <g id="text_20">
     <!-- dif_myu_upper_p1 -->
     <g transform="translate(375.0615 67.10175)scale(0.144 -0.144)">
      <use xlink:href="#DejaVuSans-64"/>
      <use x="63.4765625" xlink:href="#DejaVuSans-69"/>
      <use x="91.259765625" xlink:href="#DejaVuSans-66"/>
      <use x="126.46484375" xlink:href="#DejaVuSans-5f"/>
      <use x="176.46484375" xlink:href="#DejaVuSans-6d"/>
      <use x="273.876953125" xlink:href="#DejaVuSans-79"/>
      <use x="333.056640625" xlink:href="#DejaVuSans-75"/>
      <use x="396.435546875" xlink:href="#DejaVuSans-5f"/>
      <use x="446.435546875" xlink:href="#DejaVuSans-75"/>
      <use x="509.814453125" xlink:href="#DejaVuSans-70"/>
      <use x="573.291015625" xlink:href="#DejaVuSans-70"/>
      <use x="636.767578125" xlink:href="#DejaVuSans-65"/>
      <use x="698.291015625" xlink:href="#DejaVuSans-72"/>
      <use x="739.404296875" xlink:href="#DejaVuSans-5f"/>
      <use x="789.404296875" xlink:href="#DejaVuSans-70"/>
      <use x="852.880859375" xlink:href="#DejaVuSans-31"/>
     </g>
    </g>
    <g id="line2d_55">
     <path d="
M339.062 83.5987
L359.222 83.5987" style="fill:none;stroke:#00bfbf;stroke-linecap:square;"/>
    </g>
    <g id="line2d_56"/>
    <g id="text_21">
     <!-- dif_myu_upper_p2 -->
     <g transform="translate(375.0615 88.63875)scale(0.144 -0.144)">
      <use xlink:href="#DejaVuSans-64"/>
      <use x="63.4765625" xlink:href="#DejaVuSans-69"/>
      <use x="91.259765625" xlink:href="#DejaVuSans-66"/>
      <use x="126.46484375" xlink:href="#DejaVuSans-5f"/>
      <use x="176.46484375" xlink:href="#DejaVuSans-6d"/>
      <use x="273.876953125" xlink:href="#DejaVuSans-79"/>
      <use x="333.056640625" xlink:href="#DejaVuSans-75"/>
      <use x="396.435546875" xlink:href="#DejaVuSans-5f"/>
      <use x="446.435546875" xlink:href="#DejaVuSans-75"/>
      <use x="509.814453125" xlink:href="#DejaVuSans-70"/>
      <use x="573.291015625" xlink:href="#DejaVuSans-70"/>
      <use x="636.767578125" xlink:href="#DejaVuSans-65"/>
      <use x="698.291015625" xlink:href="#DejaVuSans-72"/>
      <use x="739.404296875" xlink:href="#DejaVuSans-5f"/>
      <use x="789.404296875" xlink:href="#DejaVuSans-70"/>
      <use x="852.880859375" xlink:href="#DejaVuSans-32"/>
     </g>
    </g>
    <g id="line2d_57">
     <path d="
M339.062 105.136
L359.222 105.136" style="fill:none;stroke:#ff0000;stroke-linecap:square;"/>
    </g>
    <g id="line2d_58"/>
    <g id="text_22">
     <!-- dif_myu_upper_p3 -->
     <g transform="translate(375.0615 110.17575)scale(0.144 -0.144)">
      <use xlink:href="#DejaVuSans-64"/>
      <use x="63.4765625" xlink:href="#DejaVuSans-69"/>
      <use x="91.259765625" xlink:href="#DejaVuSans-66"/>
      <use x="126.46484375" xlink:href="#DejaVuSans-5f"/>
      <use x="176.46484375" xlink:href="#DejaVuSans-6d"/>
      <use x="273.876953125" xlink:href="#DejaVuSans-79"/>
      <use x="333.056640625" xlink:href="#DejaVuSans-75"/>
      <use x="396.435546875" xlink:href="#DejaVuSans-5f"/>
      <use x="446.435546875" xlink:href="#DejaVuSans-75"/>
      <use x="509.814453125" xlink:href="#DejaVuSans-70"/>
      <use x="573.291015625" xlink:href="#DejaVuSans-70"/>
      <use x="636.767578125" xlink:href="#DejaVuSans-65"/>
      <use x="698.291015625" xlink:href="#DejaVuSans-72"/>
      <use x="739.404296875" xlink:href="#DejaVuSans-5f"/>
      <use x="789.404296875" xlink:href="#DejaVuSans-70"/>
      <use x="852.880859375" xlink:href="#DejaVuSans-33"/>
     </g>
    </g>
    <g id="line2d_59">
     <path d="
M339.062 126.673
L359.222 126.673" style="fill:none;stroke:#008000;stroke-linecap:square;"/>
    </g>
    <g id="line2d_60"/>
    <g id="text_23">
     <!-- dif_myu_upper_p4 -->
     <defs>
      <path d="
M37.7969 64.3125
L12.8906 25.3906
L37.7969 25.3906
z

M35.2031 72.9062
L47.6094 72.9062
L47.6094 25.3906
L58.0156 25.3906
L58.0156 17.1875
L47.6094 17.1875
L47.6094 0
L37.7969 0
L37.7969 17.1875
L4.89062 17.1875
L4.89062 26.7031
z
" id="DejaVuSans-34"/>
     </defs>
     <g transform="translate(375.0615 131.71275)scale(0.144 -0.144)">
      <use xlink:href="#DejaVuSans-64"/>
      <use x="63.4765625" xlink:href="#DejaVuSans-69"/>
      <use x="91.259765625" xlink:href="#DejaVuSans-66"/>
      <use x="126.46484375" xlink:href="#DejaVuSans-5f"/>
      <use x="176.46484375" xlink:href="#DejaVuSans-6d"/>
      <use x="273.876953125" xlink:href="#DejaVuSans-79"/>
      <use x="333.056640625" xlink:href="#DejaVuSans-75"/>
      <use x="396.435546875" xlink:href="#DejaVuSans-5f"/>
      <use x="446.435546875" xlink:href="#DejaVuSans-75"/>
      <use x="509.814453125" xlink:href="#DejaVuSans-70"/>
      <use x="573.291015625" xlink:href="#DejaVuSans-70"/>
      <use x="636.767578125" xlink:href="#DejaVuSans-65"/>
      <use x="698.291015625" xlink:href="#DejaVuSans-72"/>
      <use x="739.404296875" xlink:href="#DejaVuSans-5f"/>
      <use x="789.404296875" xlink:href="#DejaVuSans-70"/>
      <use x="852.880859375" xlink:href="#DejaVuSans-34"/>
     </g>
    </g>
   </g>
  </g>
 </g>
 <defs>
  <clipPath id="p7ff5b81e1d">
   <rect height="345.6" width="446.4" x="72.0" y="43.2"/>
  </clipPath>
 </defs>
</svg>
