<?xml version="1.0" encoding="utf-8" standalone="no"?>
<!DOCTYPE svg PUBLIC "-//W3C//DTD SVG 1.1//EN"
  "http://www.w3.org/Graphics/SVG/1.1/DTD/svg11.dtd">
<!-- Created with matplotlib (http://matplotlib.org/) -->
<svg height="432pt" version="1.1" viewBox="0 0 576 432" width="576pt" xmlns="http://www.w3.org/2000/svg" xmlns:xlink="http://www.w3.org/1999/xlink">
 <defs>
  <style type="text/css">
*{stroke-linecap:butt;stroke-linejoin:round;}
  </style>
 </defs>
 <g id="figure_1">
  <g id="patch_1">
   <path d="
M0 432
L576 432
L576 0
L0 0
z
" style="fill:#ffffff;"/>
  </g>
  <g id="axes_1">
   <g id="patch_2">
    <path d="
M72 388.8
L518.4 388.8
L518.4 43.2
L72 43.2
z
" style="fill:#ffffff;"/>
   </g>
   <g id="line2d_1">
    <path clip-path="url(#p7ff5b81e1d)" d="
M84.3719 388.8
L90.7724 302.4
L91.1808 226.803
L91.7662 216.717
L91.8961 216.394
L92.4226 216.143
L93.0764 216.437
L94.0931 217.12
L94.5558 217.982
L95.0926 219.192
L95.5449 220.495
L95.8259 221.483
L96.3908 224.348
L97.3049 232.701
L100.458 274.705
L102.272 302.182
L102.549 304.615
L104.4 336.63
L104.811 344.812
L105.575 354.701
L105.785 356.246
L106.048 357.748
L106.341 359.832
L106.668 362.529
L108.19 376.83
L108.437 378.295
L108.779 381.779
L109.252 385.304
L109.87 388.8
L230.579 388.8
L230.648 388.29
L230.716 388.8
L230.781 387.843
L230.841 388.8
L230.9 387.001
L230.963 388.8
L231.033 386.376
L231.093 388.8
L231.164 385.781
L231.308 388.8
L231.382 385.214
L231.456 388.8
L231.519 384.684
L231.584 388.8
L231.667 384.221
L231.74 388.8
L231.836 383.799
L231.906 388.8
L231.972 383.412
L232.101 388.8
L316.663 388.8
L316.709 388.223
L316.774 388.8
L316.876 388.8
L316.924 388.676
L317.155 388.8
L317.237 387.395
L317.259 388.8
L317.402 388.8
L317.534 386.047
L317.621 388.8
L477.607 388.8
L477.607 388.8" style="fill:none;stroke:#bf00bf;stroke-linecap:square;"/>
   </g>
   <g id="line2d_2">
    <path clip-path="url(#p7ff5b81e1d)" d="
M84.3834 388.8
L90.8413 354.24
L91.0857 328.325
L91.4807 321.864
L91.6695 320.261
L91.9899 319.884
L92.4614 319.851
L93.6762 320.376
L93.8307 320.565
L94.0205 320.838
L94.9294 323.122
L95.1956 323.836
L95.5153 324.577
L95.9997 327.363
L96.1893 328.643
L96.3743 329.31
L96.7367 332.77
L97.0403 334.202
L98.1024 348.004
L100.17 376.367
L100.889 388.8
L481.997 388.8
L481.997 388.8" style="fill:none;stroke:#00bfbf;stroke-linecap:square;"/>
   </g>
   <g id="line2d_3">
    <path clip-path="url(#p7ff5b81e1d)" d="
M84.4356 388.8
L488.069 388.8
L488.069 388.8" style="fill:none;stroke:#ff0000;stroke-linecap:square;"/>
   </g>
   <g id="line2d_4">
    <path clip-path="url(#p7ff5b81e1d)" d="
M84.4188 388.8
L90.8496 216
L91.0771 86.438
L91.6977 46.0961
L91.8794 44.0675
L92.2368 43.5871
L92.4523 43.6389
L93.6451 44.5133
L93.8386 45.1837
L93.945 45.8888
L94.1625 48.2095
L94.4644 52.3135
L94.8134 55.3617
L95.7656 67.71
L96.7461 80.2362
L96.9291 81.2609
L97.27 89.0214
L98.515 113.675
L100.164 148.091
L100.575 160.027
L101.356 179.33
L102.056 193.814
L102.817 206.748
L103.091 211.189
L103.305 215.407
L105.693 261.016
L106.659 269.604
L107.586 284.215
L108.82 300.459
L110.722 326.665
L110.988 329.599
L111.565 337.119
L113.309 358.842
L113.538 361.648
L113.914 366.295
L114.082 368.142
L114.577 375.011
L115.278 385.325
L115.444 387.329
L115.616 388.8
L122.111 388.8
L122.18 387.143
L122.244 388.8
L122.312 378.544
L122.382 388.8
L122.484 379.177
L122.552 388.8
L122.626 379.375
L122.691 388.8
L122.796 379.287
L122.871 388.8
L122.971 379.256
L123.083 388.8
L123.132 379.237
L123.203 388.8
L123.281 379.23
L123.367 388.8
L123.433 379.237
L123.536 388.8
L123.681 379.26
L123.901 388.8
L124.192 369.317
L124.291 388.8
L124.405 379.275
L124.481 388.8
L124.639 379.039
L124.716 388.8
L124.922 369.562
L125.1 368.627
L125.79 370.533
L125.889 370.706
L126.254 370.894
L126.336 371.206
L126.653 371.8
L127.112 374.357
L127.579 378.038
L127.755 379.652
L128.328 385.413
L128.616 388.8
L230.654 388.8
L230.722 384.715
L230.824 388.8
L233.818 388.8
L233.883 388.358
L233.973 388.8
L234.113 388.8
L234.277 387.965
L234.367 388.8
L234.571 387.523
L234.699 387.335
L234.919 387.285
L235.253 387.488
L235.547 388.145
L235.71 388.8
L315.344 388.8
L315.485 385.311
L315.668 388.8
L322.058 388.8
L322.115 388.143
L322.185 388.8
L322.265 383.915
L322.337 388.8
L322.415 378.9
L322.492 388.8
L322.575 376.882
L322.64 388.8
L322.696 378.766
L322.77 388.8
L322.834 382.695
L322.902 388.8
L323.02 385.152
L323.153 388.8
L323.476 388.8
L323.634 380.212
L323.73 388.8
L326.289 388.8
L326.412 386.129
L326.533 388.8
L326.836 388.8
L326.91 387.469
L327.062 388.8
L327.282 388.8
L327.339 387.15
L327.488 388.8
L327.677 388.8
L327.73 386.135
L327.946 388.8
L328.037 388.8
L328.08 384.864
L328.273 388.8
L328.355 388.116
L328.518 388.8
L328.638 388.8
L328.724 384.504
L328.865 388.8
L330.829 388.8
L330.909 387.869
L331.047 388.8
L332.081 388.8
L332.147 388.574
L332.284 388.8
L333.486 388.8
L333.523 384.119
L333.589 388.8
L333.906 388.8
L333.953 385.114
L333.998 386.723
L334.109 388.8
L334.307 388.8
L334.431 383.198
L334.579 388.8
L334.767 388.8
L334.848 382.577
L335.066 388.8
L335.347 388.8
L335.425 386.17
L335.556 388.8
L335.824 388.8
L335.953 383.962
L336.139 388.8
L336.979 388.8
L337.094 373.222
L337.148 388.8
L337.252 380.414
L337.419 388.8
L337.501 388.8
L337.615 383.326
L337.779 388.8
L337.857 388.8
L337.95 382.704
L338.126 388.8
L338.24 388.8
L338.29 382.403
L338.385 388.8
L338.439 387.027
L338.531 388.8
L338.775 388.8
L338.848 385.408
L339.007 388.8
L339.081 388.8
L339.178 383.827
L339.321 388.8
L339.397 388.8
L339.477 383.039
L339.671 388.8
L339.75 388.8
L339.838 382.64
L339.999 388.8
L340.092 388.8
L340.179 382.434
L340.358 388.8
L340.547 388.8
L340.635 382.322
L340.767 388.8
L340.933 388.8
L340.992 375.159
L341.149 388.8
L341.288 388.8
L341.326 384.535
L341.47 388.8
L341.549 388.8
L341.624 384.936
L341.772 388.8
L341.847 388.8
L341.932 385.5
L342.098 388.8
L342.184 388.8
L342.258 383.806
L342.421 388.8
L342.515 388.8
L342.569 384.89
L342.718 388.8
L342.849 388.8
L342.921 385.541
L343.057 388.8
L343.234 388.8
L343.357 383.799
L343.577 388.8
L343.728 388.8
L343.776 383.766
L343.834 388.8
L344.29 388.8
L344.328 384.072
L344.379 388.8
L344.721 388.8
L344.769 387.87
L344.915 388.8
L345.507 388.8
L345.595 382.355
L345.739 388.8
L346.035 388.8
L346.177 383.649
L346.213 388.8
L347.016 388.8
L347.052 383.994
L347.105 388.8
L347.285 388.8
L347.322 386.916
L347.382 388.8
L347.5 388.8
L347.556 384.81
L347.604 388.8
L347.739 388.8
L347.806 382.804
L347.932 388.8
L348.003 388.8
L348.052 383.93
L348.217 388.8
L348.379 388.8
L348.458 387.236
L348.638 388.8
L348.685 388.8
L348.793 385.36
L348.973 388.8
L349.031 387.482
L349.208 388.8
L349.422 388.8
L349.472 381.986
L349.585 388.8
L350.144 388.8
L350.288 385.47
L350.344 388.8
L350.73 388.8
L350.79 386.764
L350.925 388.8
L351.277 388.8
L351.356 384.518
L351.504 388.8
L351.777 388.8
L351.836 383.633
L351.986 388.8
L352.267 388.8
L352.344 383.296
L352.51 388.8
L352.554 388.8
L352.639 384.663
L352.778 388.8
L352.869 388.8
L352.93 385.026
L353.078 388.8
L353.179 388.8
L353.242 385.197
L353.372 388.8
L353.443 388.8
L353.561 385.271
L353.746 388.8
L353.836 385.465
L353.979 388.8
L354.671 388.8
L354.726 384.293
L354.891 388.8
L355.025 388.8
L355.089 387.941
L355.217 388.8
L355.402 388.8
L355.477 387.494
L355.624 388.8
L355.717 387.196
L355.836 388.8
L356.449 388.8
L356.507 377.736
L356.659 388.8
L356.96 388.8
L357.032 383.089
L357.189 388.8
L357.401 388.8
L357.506 380.63
L357.66 388.8
L358.12 388.8
L358.171 384.779
L358.291 388.8
L358.849 388.8
L358.862 384.005
L358.92 388.8
L359.166 388.8
L359.202 386.268
L359.332 388.8
L359.641 388.8
L359.727 386.201
L359.851 388.8
L360.218 388.8
L360.276 379.982
L360.397 388.8
L360.525 388.8
L360.589 388.501
L360.723 388.8
L361.474 388.8
L361.552 381.992
L361.681 388.8
L362.697 388.8
L362.765 381.434
L362.846 388.8
L362.907 385.894
L363.172 388.8
L363.265 387.888
L363.399 388.8
L363.502 388.8
L363.56 385.957
L363.634 388.8
L363.955 388.8
L363.986 385.771
L364.041 388.8
L364.171 388.8
L364.205 383.872
L364.242 388.8
L364.603 388.8
L364.657 383.388
L364.706 388.8
L364.829 388.8
L364.867 385.947
L364.927 388.8
L365.024 388.8
L365.103 384.803
L365.129 388.8
L365.245 388.8
L365.342 386.078
L365.489 388.8
L365.599 386.804
L365.761 388.8
L365.812 385.121
L365.862 388.8
L365.989 388.8
L366.068 386.139
L366.201 388.8
L366.271 388.8
L366.331 386.738
L366.485 388.8
L366.55 388.8
L366.625 384.991
L366.722 388.8
L366.784 388.8
L366.853 385.989
L366.989 388.8
L367.054 388.8
L367.118 386.58
L367.266 388.8
L367.319 388.8
L367.392 384.826
L367.549 388.8
L367.607 388.8
L367.687 385.828
L367.812 388.8
L367.894 388.8
L367.978 386.426
L368.091 388.8
L368.167 388.8
L368.284 384.672
L368.392 388.8
L368.466 388.8
L368.547 385.683
L368.654 388.8
L368.745 388.8
L368.824 386.287
L368.958 388.8
L369.024 388.8
L369.097 384.535
L369.248 388.8
L369.469 388.8
L369.542 381.344
L369.724 388.8
L369.863 388.8
L369.911 387.115
L370.048 388.8
L370.123 388.8
L370.186 386.761
L370.318 388.8
L370.378 388.8
L370.435 384.672
L370.596 388.8
L370.746 388.8
L370.846 385.515
L370.995 388.8
L371.128 385.913
L371.276 388.8
L371.571 388.8
L371.623 388.665
L371.818 388.8
L371.939 388.8
L372.02 383.754
L372.132 388.8
L372.337 388.8
L372.413 388.033
L372.547 388.8
L372.93 388.8
L372.996 387.526
L373.123 388.8
L373.197 388.01
L373.325 388.8
L373.547 388.8
L373.607 388.65
L373.736 388.8
L374.257 388.8
L374.301 385.384
L374.519 388.8
L374.587 388.8
L374.804 378.434
L374.864 388.8
L374.952 383.443
L375.085 388.8
L375.288 388.8
L375.347 383.329
L375.548 388.8
L375.604 385.192
L375.76 388.8
L375.849 388.8
L375.967 386.059
L376.14 388.8
L376.2 388.8
L376.262 386.149
L376.431 388.8
L376.493 388.8
L376.588 384.031
L376.725 388.8
L376.798 388.8
L376.864 383.099
L377.046 388.8
L377.126 388.8
L377.187 382.719
L377.328 388.8
L377.401 388.8
L377.483 382.607
L377.551 388.8
L377.774 388.8
L377.859 382.621
L378.009 388.8
L378.085 388.8
L378.147 379.894
L378.229 388.8
L378.323 384.49
L378.368 388.8
L378.557 388.8
L378.63 384.922
L378.802 388.8
L378.97 387.628
L378.989 388.8
L379.32 388.8
L379.361 384.572
L379.552 388.8
L380.697 388.8
L380.706 384.49
L380.762 388.8
L381.418 388.8
L381.551 388.169
L381.73 388.8
L381.797 388.8
L381.879 387.805
L382.019 388.8
L382.09 388.8
L382.224 386.548
L382.372 388.8
L382.478 388.8
L382.573 384.129
L382.728 388.8
L382.847 388.8
L382.955 382.534
L383.038 388.8
L383.126 386.875
L383.311 388.8
L383.388 388.8
L383.473 388.007
L383.632 388.8
L383.705 388.8
L383.763 385.888
L383.968 388.8
L384.032 388.8
L384.157 386.637
L384.356 388.8
L384.599 388.8
L384.657 379.894
L384.677 388.8
L384.753 388.8
L384.772 387.765
L384.898 388.8
L385.252 388.8
L385.329 387.126
L385.458 388.8
L387.054 388.8
L387.161 382.289
L387.228 388.8
L387.616 388.8
L387.724 382.883
L387.878 388.8
L388.189 388.8
L388.362 382.648
L388.393 388.8
L388.696 388.8
L388.824 378.65
L389.045 388.8
L389.117 388.8
L389.184 375.297
L389.372 388.8
L389.487 388.8
L389.539 383.633
L389.707 388.8
L389.766 382.619
L389.938 388.8
L389.994 382.247
L390.118 388.8
L390.177 388.8
L390.232 382.168
L390.369 388.8
L390.423 388.8
L390.466 382.227
L390.601 388.8
L390.702 388.8
L390.77 382.348
L390.887 388.8
L390.947 388.8
L391.015 382.495
L391.142 388.8
L391.209 388.8
L391.277 382.652
L391.402 388.8
L391.469 388.8
L391.526 382.807
L391.665 388.8
L391.714 388.8
L391.775 382.959
L391.948 388.8
L392.009 383.105
L392.142 388.8
L392.211 388.8
L392.276 383.243
L392.385 388.8
L392.452 388.8
L392.525 383.374
L392.647 388.8
L392.724 388.8
L392.772 383.498
L392.9 388.8
L392.963 388.8
L393.036 383.616
L393.15 388.8
L393.228 388.8
L393.277 383.728
L393.336 388.8
L393.459 388.8
L393.525 383.834
L393.723 388.8
L393.776 388.8
L393.837 383.934
L394.039 388.8
L394.092 388.8
L394.148 384.027
L394.202 388.8
L394.309 388.8
L394.373 384.117
L394.49 388.8
L394.549 388.8
L394.603 384.202
L394.73 388.8
L394.793 388.8
L394.849 384.281
L394.965 388.8
L395.041 388.8
L395.086 384.357
L395.227 388.8
L395.283 388.8
L395.339 384.43
L395.452 388.8
L395.531 388.8
L395.609 384.497
L395.716 388.8
L395.819 388.8
L395.878 384.561
L396.008 388.8
L396.062 388.8
L396.128 384.622
L396.293 388.8
L396.361 384.679
L396.412 388.8
L396.995 388.8
L397.028 383.137
L397.082 388.8
L397.652 388.8
L397.673 381.596
L397.737 388.8
L398.707 388.8
L398.767 386.262
L398.888 388.8
L398.958 388.8
L399.018 387.345
L399.156 388.8
L399.216 388.8
L399.305 385.764
L399.465 388.8
L399.828 388.8
L399.967 386.332
L400.159 388.8
L400.67 388.8
L400.723 384.057
L400.932 388.8
L401.079 384.038
L401.18 388.8
L401.395 388.8
L401.43 385.092
L401.465 388.8
L401.974 388.8
L402.042 383.355
L402.155 388.8
L402.332 388.8
L402.407 384.596
L402.535 388.8
L402.859 388.8
L402.954 383.016
L403.082 388.8
L403.409 388.8
L403.517 386.661
L403.594 388.8
L403.812 388.8
L403.886 383.302
L404.045 388.8
L404.251 388.8
L404.296 388.404
L404.357 388.8
L404.782 388.8
L404.846 382.688
L404.918 388.8
L404.989 387.129
L405.118 388.8
L405.176 388.8
L405.242 387.976
L405.355 388.8
L405.416 388.8
L405.462 387.694
L405.598 388.8
L405.66 388.8
L405.734 385.519
L405.856 388.8
L405.94 388.8
L405.993 386.298
L406.153 388.8
L406.225 388.8
L406.375 386.778
L406.524 388.8
L406.806 388.8
L406.868 385.202
L407.026 388.8
L407.085 388.8
L407.161 386.424
L407.337 388.8
L407.415 388.8
L407.497 386.815
L407.591 388.8
L407.794 388.8
L407.877 384.966
L407.979 388.8
L408.187 388.8
L408.298 385.693
L408.512 388.8
L408.616 388.8
L408.717 386.085
L408.905 388.8
L409.009 388.8
L409.082 384.366
L409.274 388.8
L409.349 388.8
L409.498 385.389
L409.617 388.8
L409.69 388.8
L409.756 385.873
L409.87 388.8
L410.191 388.8
L410.217 380.348
L410.26 388.8
L410.438 388.8
L410.489 385.422
L410.538 388.8
L410.912 388.8
L410.971 385.342
L411.148 388.8
L411.208 382.819
L411.258 388.8
L411.307 386.859
L411.364 388.8
L411.495 388.8
L411.563 384.233
L411.707 388.8
L411.764 388.8
L411.879 382.275
L412.032 388.8
L412.154 388.8
L412.257 384.368
L412.312 388.8
L412.493 388.8
L412.539 382.569
L412.618 388.8
L412.686 386.84
L412.798 388.8
L412.87 388.8
L412.922 384.634
L412.978 388.8
L413.093 388.8
L413.143 382.788
L413.203 388.8
L413.258 387.053
L413.314 388.8
L413.446 388.8
L413.505 384.794
L413.555 388.8
L413.757 388.8
L413.834 382.946
L413.954 388.8
L414.157 388.8
L414.21 382.327
L414.273 388.8
L414.408 385.519
L414.548 388.8
L414.594 384.267
L414.643 388.8
L414.757 388.8
L414.83 382.838
L414.991 388.8
L415.105 388.8
L415.162 382.107
L415.196 388.8
L415.262 386.611
L415.293 388.8
L415.428 388.8
L415.5 384.855
L415.618 388.8
L415.854 388.8
L415.914 379.007
L416.088 388.8
L416.14 388.52
L416.255 388.8
L416.437 388.8
L416.508 384.273
L416.643 388.8
L416.876 388.8
L416.946 384.903
L417.037 388.8
L417.141 385.477
L417.262 388.8
L417.44 388.8
L417.515 386.294
L417.566 388.8
L417.96 388.8
L418.02 388.242
L418.15 388.8
L418.377 388.8
L418.442 384.833
L418.549 388.8
L418.625 388.8
L418.68 386.258
L418.806 388.8
L418.862 388.8
L418.907 386.618
L418.962 388.8
L419.09 388.8
L419.138 384.903
L419.19 388.8
L419.331 388.8
L419.396 385.895
L419.511 388.8
L419.559 388.8
L419.635 386.35
L419.794 388.8
L420.018 388.8
L420.085 381.1
L420.195 388.8
L420.253 384.794
L420.391 388.8
L420.595 388.8
L420.664 387.262
L420.786 388.8
L420.948 388.8
L421.019 382.534
L421.075 388.8
L421.158 386.647
L421.277 388.8
L421.333 388.8
L421.385 387.072
L421.434 388.8
L421.549 388.8
L421.618 386.588
L421.754 388.8
L421.813 388.8
L421.879 384.292
L422.16 388.8
L422.275 388.8
L422.337 383.839
L422.489 388.8
L422.73 388.8
L422.788 387.587
L422.825 388.8
L422.975 388.8
L423.205 382.078
L423.287 388.8
L423.317 379.12
L423.357 388.8
L423.435 388.8
L423.466 388.484
L423.511 388.8
L423.895 388.8
L423.925 386.771
L423.976 388.8
L424.293 388.8
L424.365 385.23
L424.394 388.8
L424.599 388.8
L424.653 384.793
L424.7 388.8
L425.263 388.8
L425.363 386.042
L425.499 388.8
L425.591 388.8
L425.629 386.792
L425.691 388.8
L425.911 388.8
L425.948 388.036
L425.992 388.8
L426.472 388.8
L426.531 382.417
L426.548 388.8
L426.682 388.8
L426.771 380.754
L426.904 388.8
L427.068 388.8
L427.129 383.108
L427.163 388.8
L427.368 388.8
L427.423 381.95
L427.477 388.8
L427.639 388.8
L427.681 381.43
L427.734 388.8
L427.771 386.624
L427.815 388.8
L427.997 388.8
L428.033 385.555
L428.076 388.8
L428.335 388.8
L428.374 386.794
L428.418 388.8
L428.592 388.8
L428.654 384.895
L428.689 388.8
L428.95 388.8
L428.989 386.319
L429.036 388.8
L429.214 388.8
L429.252 384.824
L429.321 388.8
L429.663 388.8
L429.715 386.357
L429.891 388.8
L430.084 388.8
L430.218 384.858
L430.416 388.8
L430.894 388.8
L430.95 380.075
L431.107 388.8
L431.295 388.8
L431.37 387.07
L431.492 388.8
L431.705 388.8
L431.786 387.698
L431.921 388.8
L432.129 388.8
L432.207 384.269
L432.323 388.8
L432.525 388.8
L432.569 382.704
L432.653 388.8
L432.718 386.369
L432.848 388.8
L433.041 388.8
L433.11 385.69
L433.247 388.8
L433.611 388.8
L433.684 385.643
L433.829 388.8
L434.125 388.8
L434.169 384.48
L434.306 388.8
L434.635 388.8
L434.78 388.558
L434.956 388.8
L435.335 388.8
L435.387 383.187
L435.551 388.8
L435.613 388.8
L435.697 380.379
L435.832 388.8
L435.985 388.8
L436.043 383.282
L436.061 388.8
L436.183 388.8
L436.247 386.728
L436.371 388.8
L436.457 388.8
L436.52 386.984
L436.648 388.8
L436.919 388.8
L437.005 388.456
L437.145 388.8
L437.609 388.8
L437.669 384.335
L437.829 388.8
L438.108 388.8
L438.112 387.981
L438.215 388.8
L438.267 386.484
L438.315 388.8
L438.989 388.8
L439.044 387.475
L439.196 388.8
L439.697 388.8
L439.876 380.35
L440.036 388.8
L440.354 388.8
L440.388 386.849
L440.458 388.8
L441.015 388.8
L441.05 382.937
L441.114 388.8
L441.524 388.8
L441.588 387.786
L441.69 388.8
L441.876 388.8
L441.948 387.167
L442.11 388.8
L442.175 388.8
L442.231 386.522
L442.419 388.8
L442.495 386.059
L442.677 388.8
L442.749 388.8
L442.812 385.693
L442.964 388.8
L443.032 388.8
L443.095 385.382
L443.276 388.8
L443.377 388.8
L443.437 385.104
L443.561 388.8
L443.633 388.8
L443.688 384.85
L443.805 388.8
L443.93 388.8
L443.983 384.611
L444.146 388.8
L444.187 388.8
L444.251 384.39
L444.374 388.8
L444.435 388.8
L444.516 384.181
L444.665 388.8
L444.714 388.8
L444.8 383.982
L444.908 388.8
L444.979 388.8
L445.105 383.796
L445.184 388.8
L445.262 388.8
L445.301 383.618
L445.348 388.8
L445.43 388.8
L445.492 383.45
L445.525 388.8
L445.62 388.8
L445.75 383.291
L445.87 388.8
L445.913 383.141
L445.969 388.8
L446.062 388.8
L446.115 382.997
L446.158 388.8
L446.26 388.8
L446.319 382.863
L446.353 388.8
L446.433 388.8
L446.469 382.735
L446.513 388.8
L446.629 388.8
L446.67 382.614
L446.705 388.8
L446.808 388.8
L446.843 382.5
L446.907 388.8
L446.991 388.8
L447.055 382.391
L447.093 388.8
L447.147 387.031
L447.333 388.8
L447.404 385.444
L447.443 388.8
L447.52 388.8
L447.593 383.839
L447.699 388.8
L447.785 388.8
L447.816 382.997
L447.89 388.8
L448.034 388.8
L448.066 382.536
L448.241 388.8
L448.367 388.8
L448.411 385.366
L448.467 388.8
L448.543 388.8
L448.601 383.713
L448.642 388.8
L448.737 388.8
L448.784 382.852
L448.845 388.8
L448.9 388.8
L448.953 382.386
L449.006 388.8
L449.052 386.948
L449.093 388.8
L449.167 388.8
L449.216 385.237
L449.258 388.8
L449.348 388.8
L449.396 383.58
L449.429 388.8
L449.525 388.8
L449.567 382.721
L449.6 388.8
L449.701 388.8
L449.731 382.26
L449.787 388.8
L449.828 386.821
L449.871 388.8
L449.964 388.8
L450 385.135
L450.043 388.8
L450.117 388.8
L450.189 383.476
L450.222 388.8
L450.334 388.8
L450.353 382.621
L450.405 388.8
L450.457 387.098
L450.514 388.8
L450.784 388.8
L450.857 383.654
L450.976 388.8
L451.36 388.8
L451.419 388.537
L451.561 388.8
L451.673 388.8
L451.772 386.211
L451.962 388.8
L452.022 388.8
L452.089 384.772
L452.239 388.8
L452.372 388.8
L452.425 384.024
L452.556 388.8
L452.624 388.8
L452.68 383.618
L452.819 388.8
L452.884 388.8
L452.947 383.381
L453.099 388.8
L453.158 388.8
L453.232 383.231
L453.391 388.8
L453.476 388.8
L453.54 383.124
L453.668 388.8
L453.729 388.8
L453.808 383.041
L453.932 388.8
L454.01 388.8
L454.068 382.97
L454.197 388.8
L454.27 388.8
L454.33 382.908
L454.478 388.8
L454.535 388.8
L454.616 382.85
L454.726 388.8
L454.799 388.8
L454.852 382.797
L454.984 388.8
L455.056 388.8
L455.112 382.747
L455.187 388.8
L455.364 388.8
L455.496 382.7
L455.667 388.8
L456.421 388.8
L456.461 388.031
L456.784 388.8
L459.177 388.8
L459.26 387.831
L459.378 388.8
L459.452 388.8
L459.51 387.71
L459.643 388.8
L459.725 388.8
L459.788 386.809
L459.942 388.8
L459.989 388.8
L460.078 384.839
L460.196 388.8
L460.274 388.8
L460.364 385.729
L460.501 388.8
L460.572 388.8
L460.644 386.144
L460.787 388.8
L460.924 388.8
L461.019 384.44
L461.146 388.8
L461.23 388.8
L461.305 385.465
L461.467 388.8
L461.509 388.8
L461.587 385.949
L461.729 388.8
L461.806 388.8
L461.867 384.276
L462.017 388.8
L462.08 388.8
L462.159 385.325
L462.324 388.8
L462.392 388.8
L462.483 385.823
L462.643 388.8
L462.734 388.8
L462.782 384.155
L462.956 388.8
L463.052 388.8
L463.138 385.211
L463.198 388.8
L463.45 388.8
L463.524 385.717
L463.704 388.8
L463.794 388.8
L463.838 384.05
L464.015 388.8
L464.072 388.8
L464.124 385.112
L464.281 388.8
L464.358 388.8
L464.434 385.624
L464.571 388.8
L464.631 388.8
L464.709 383.955
L464.959 388.8
L465.079 385.024
L465.213 388.8
L465.247 382.183
L465.3 388.8
L465.43 388.8
L465.491 386.405
L465.539 388.8
L466.056 388.8
L466.138 382.042
L466.242 388.8
L466.37 388.8
L466.422 380.093
L466.578 388.8
L466.695 388.8
L466.745 383.348
L466.913 388.8
L467.06 388.8
L467.115 384.371
L467.29 388.8
L467.364 382.344
L467.422 388.8
L467.492 386.595
L467.607 388.8
L467.664 388.8
L467.725 384.387
L467.851 388.8
L467.911 388.8
L467.952 382.56
L468.082 388.8
L468.557 388.8
L468.557 388.8" style="fill:none;stroke:#008000;stroke-linecap:square;"/>
   </g>
   <g id="patch_3">
    <path d="
M72 43.2
L518.4 43.2" style="fill:none;stroke:#000000;stroke-linecap:square;stroke-linejoin:miter;"/>
   </g>
   <g id="patch_4">
    <path d="
M518.4 388.8
L518.4 43.2" style="fill:none;stroke:#000000;stroke-linecap:square;stroke-linejoin:miter;"/>
   </g>
   <g id="patch_5">
    <path d="
M72 388.8
L72 43.2" style="fill:none;stroke:#000000;stroke-linecap:square;stroke-linejoin:miter;"/>
   </g>
   <g id="patch_6">
    <path d="
M72 388.8
L518.4 388.8" style="fill:none;stroke:#000000;stroke-linecap:square;stroke-linejoin:miter;"/>
   </g>
   <g id="matplotlib.axis_1">
    <g id="xtick_1">
     <g id="line2d_5">
      <path clip-path="url(#p7ff5b81e1d)" d="
M72 388.8
L72 43.2" style="fill:none;stroke:#000000;stroke-dasharray:3.000000,5.000000,1.000000,5.000000;stroke-dashoffset:0.0;stroke-width:0.5;"/>
     </g>
     <g id="line2d_6">
      <defs>
       <path d="
M0 0
L0 -4" id="mc7db9fdffb" style="stroke:#000000;stroke-width:0.5;"/>
      </defs>
      <g>
       <use style="stroke:#000000;stroke-width:0.5;" x="72.0" xlink:href="#mc7db9fdffb" y="388.8"/>
      </g>
     </g>
     <g id="line2d_7">
      <defs>
       <path d="
M0 0
L0 4" id="m5a7d422ac3" style="stroke:#000000;stroke-width:0.5;"/>
      </defs>
      <g>
       <use style="stroke:#000000;stroke-width:0.5;" x="72.0" xlink:href="#m5a7d422ac3" y="43.2"/>
      </g>
     </g>
     <g id="text_1">
      <!-- 0 -->
      <defs>
       <path d="
M31.7812 66.4062
Q24.1719 66.4062 20.3281 58.9062
Q16.5 51.4219 16.5 36.375
Q16.5 21.3906 20.3281 13.8906
Q24.1719 6.39062 31.7812 6.39062
Q39.4531 6.39062 43.2812 13.8906
Q47.125 21.3906 47.125 36.375
Q47.125 51.4219 43.2812 58.9062
Q39.4531 66.4062 31.7812 66.4062
M31.7812 74.2188
Q44.0469 74.2188 50.5156 64.5156
Q56.9844 54.8281 56.9844 36.375
Q56.9844 17.9688 50.5156 8.26562
Q44.0469 -1.42188 31.7812 -1.42188
Q19.5312 -1.42188 13.0625 8.26562
Q6.59375 17.9688 6.59375 36.375
Q6.59375 54.8281 13.0625 64.5156
Q19.5312 74.2188 31.7812 74.2188" id="DejaVuSans-30"/>
      </defs>
      <g transform="translate(68.9765625 401.918125)scale(0.12 -0.12)">
       <use xlink:href="#DejaVuSans-30"/>
      </g>
     </g>
    </g>
    <g id="xtick_2">
     <g id="line2d_8">
      <path clip-path="url(#p7ff5b81e1d)" d="
M135.771 388.8
L135.771 43.2" style="fill:none;stroke:#000000;stroke-dasharray:3.000000,5.000000,1.000000,5.000000;stroke-dashoffset:0.0;stroke-width:0.5;"/>
     </g>
     <g id="line2d_9">
      <g>
       <use style="stroke:#000000;stroke-width:0.5;" x="135.771428571" xlink:href="#mc7db9fdffb" y="388.8"/>
      </g>
     </g>
     <g id="line2d_10">
      <g>
       <use style="stroke:#000000;stroke-width:0.5;" x="135.771428571" xlink:href="#m5a7d422ac3" y="43.2"/>
      </g>
     </g>
     <g id="text_2">
      <!-- 50 -->
      <defs>
       <path d="
M10.7969 72.9062
L49.5156 72.9062
L49.5156 64.5938
L19.8281 64.5938
L19.8281 46.7344
Q21.9688 47.4688 24.1094 47.8281
Q26.2656 48.1875 28.4219 48.1875
Q40.625 48.1875 47.75 41.5
Q54.8906 34.8125 54.8906 23.3906
Q54.8906 11.625 47.5625 5.09375
Q40.2344 -1.42188 26.9062 -1.42188
Q22.3125 -1.42188 17.5469 -0.640625
Q12.7969 0.140625 7.71875 1.70312
L7.71875 11.625
Q12.1094 9.23438 16.7969 8.0625
Q21.4844 6.89062 26.7031 6.89062
Q35.1562 6.89062 40.0781 11.3281
Q45.0156 15.7656 45.0156 23.3906
Q45.0156 31 40.0781 35.4375
Q35.1562 39.8906 26.7031 39.8906
Q22.75 39.8906 18.8125 39.0156
Q14.8906 38.1406 10.7969 36.2812
z
" id="DejaVuSans-35"/>
      </defs>
      <g transform="translate(128.997991071 401.918125)scale(0.12 -0.12)">
       <use xlink:href="#DejaVuSans-35"/>
       <use x="63.623046875" xlink:href="#DejaVuSans-30"/>
      </g>
     </g>
    </g>
    <g id="xtick_3">
     <g id="line2d_11">
      <path clip-path="url(#p7ff5b81e1d)" d="
M199.543 388.8
L199.543 43.2" style="fill:none;stroke:#000000;stroke-dasharray:3.000000,5.000000,1.000000,5.000000;stroke-dashoffset:0.0;stroke-width:0.5;"/>
     </g>
     <g id="line2d_12">
      <g>
       <use style="stroke:#000000;stroke-width:0.5;" x="199.542857143" xlink:href="#mc7db9fdffb" y="388.8"/>
      </g>
     </g>
     <g id="line2d_13">
      <g>
       <use style="stroke:#000000;stroke-width:0.5;" x="199.542857143" xlink:href="#m5a7d422ac3" y="43.2"/>
      </g>
     </g>
     <g id="text_3">
      <!-- 100 -->
      <defs>
       <path d="
M12.4062 8.29688
L28.5156 8.29688
L28.5156 63.9219
L10.9844 60.4062
L10.9844 69.3906
L28.4219 72.9062
L38.2812 72.9062
L38.2812 8.29688
L54.3906 8.29688
L54.3906 0
L12.4062 0
z
" id="DejaVuSans-31"/>
      </defs>
      <g transform="translate(189.147857143 401.918125)scale(0.12 -0.12)">
       <use xlink:href="#DejaVuSans-31"/>
       <use x="63.623046875" xlink:href="#DejaVuSans-30"/>
       <use x="127.24609375" xlink:href="#DejaVuSans-30"/>
      </g>
     </g>
    </g>
    <g id="xtick_4">
     <g id="line2d_14">
      <path clip-path="url(#p7ff5b81e1d)" d="
M263.314 388.8
L263.314 43.2" style="fill:none;stroke:#000000;stroke-dasharray:3.000000,5.000000,1.000000,5.000000;stroke-dashoffset:0.0;stroke-width:0.5;"/>
     </g>
     <g id="line2d_15">
      <g>
       <use style="stroke:#000000;stroke-width:0.5;" x="263.314285714" xlink:href="#mc7db9fdffb" y="388.8"/>
      </g>
     </g>
     <g id="line2d_16">
      <g>
       <use style="stroke:#000000;stroke-width:0.5;" x="263.314285714" xlink:href="#m5a7d422ac3" y="43.2"/>
      </g>
     </g>
     <g id="text_4">
      <!-- 150 -->
      <g transform="translate(252.919285714 401.918125)scale(0.12 -0.12)">
       <use xlink:href="#DejaVuSans-31"/>
       <use x="63.623046875" xlink:href="#DejaVuSans-35"/>
       <use x="127.24609375" xlink:href="#DejaVuSans-30"/>
      </g>
     </g>
    </g>
    <g id="xtick_5">
     <g id="line2d_17">
      <path clip-path="url(#p7ff5b81e1d)" d="
M327.086 388.8
L327.086 43.2" style="fill:none;stroke:#000000;stroke-dasharray:3.000000,5.000000,1.000000,5.000000;stroke-dashoffset:0.0;stroke-width:0.5;"/>
     </g>
     <g id="line2d_18">
      <g>
       <use style="stroke:#000000;stroke-width:0.5;" x="327.085714286" xlink:href="#mc7db9fdffb" y="388.8"/>
      </g>
     </g>
     <g id="line2d_19">
      <g>
       <use style="stroke:#000000;stroke-width:0.5;" x="327.085714286" xlink:href="#m5a7d422ac3" y="43.2"/>
      </g>
     </g>
     <g id="text_5">
      <!-- 200 -->
      <defs>
       <path d="
M19.1875 8.29688
L53.6094 8.29688
L53.6094 0
L7.32812 0
L7.32812 8.29688
Q12.9375 14.1094 22.625 23.8906
Q32.3281 33.6875 34.8125 36.5312
Q39.5469 41.8438 41.4219 45.5312
Q43.3125 49.2188 43.3125 52.7812
Q43.3125 58.5938 39.2344 62.25
Q35.1562 65.9219 28.6094 65.9219
Q23.9688 65.9219 18.8125 64.3125
Q13.6719 62.7031 7.8125 59.4219
L7.8125 69.3906
Q13.7656 71.7812 18.9375 73
Q24.125 74.2188 28.4219 74.2188
Q39.75 74.2188 46.4844 68.5469
Q53.2188 62.8906 53.2188 53.4219
Q53.2188 48.9219 51.5312 44.8906
Q49.8594 40.875 45.4062 35.4062
Q44.1875 33.9844 37.6406 27.2188
Q31.1094 20.4531 19.1875 8.29688" id="DejaVuSans-32"/>
      </defs>
      <g transform="translate(316.471339286 401.918125)scale(0.12 -0.12)">
       <use xlink:href="#DejaVuSans-32"/>
       <use x="63.623046875" xlink:href="#DejaVuSans-30"/>
       <use x="127.24609375" xlink:href="#DejaVuSans-30"/>
      </g>
     </g>
    </g>
    <g id="xtick_6">
     <g id="line2d_20">
      <path clip-path="url(#p7ff5b81e1d)" d="
M390.857 388.8
L390.857 43.2" style="fill:none;stroke:#000000;stroke-dasharray:3.000000,5.000000,1.000000,5.000000;stroke-dashoffset:0.0;stroke-width:0.5;"/>
     </g>
     <g id="line2d_21">
      <g>
       <use style="stroke:#000000;stroke-width:0.5;" x="390.857142857" xlink:href="#mc7db9fdffb" y="388.8"/>
      </g>
     </g>
     <g id="line2d_22">
      <g>
       <use style="stroke:#000000;stroke-width:0.5;" x="390.857142857" xlink:href="#m5a7d422ac3" y="43.2"/>
      </g>
     </g>
     <g id="text_6">
      <!-- 250 -->
      <g transform="translate(380.242767857 401.918125)scale(0.12 -0.12)">
       <use xlink:href="#DejaVuSans-32"/>
       <use x="63.623046875" xlink:href="#DejaVuSans-35"/>
       <use x="127.24609375" xlink:href="#DejaVuSans-30"/>
      </g>
     </g>
    </g>
    <g id="xtick_7">
     <g id="line2d_23">
      <path clip-path="url(#p7ff5b81e1d)" d="
M454.629 388.8
L454.629 43.2" style="fill:none;stroke:#000000;stroke-dasharray:3.000000,5.000000,1.000000,5.000000;stroke-dashoffset:0.0;stroke-width:0.5;"/>
     </g>
     <g id="line2d_24">
      <g>
       <use style="stroke:#000000;stroke-width:0.5;" x="454.628571429" xlink:href="#mc7db9fdffb" y="388.8"/>
      </g>
     </g>
     <g id="line2d_25">
      <g>
       <use style="stroke:#000000;stroke-width:0.5;" x="454.628571429" xlink:href="#m5a7d422ac3" y="43.2"/>
      </g>
     </g>
     <g id="text_7">
      <!-- 300 -->
      <defs>
       <path d="
M40.5781 39.3125
Q47.6562 37.7969 51.625 33
Q55.6094 28.2188 55.6094 21.1875
Q55.6094 10.4062 48.1875 4.48438
Q40.7656 -1.42188 27.0938 -1.42188
Q22.5156 -1.42188 17.6562 -0.515625
Q12.7969 0.390625 7.625 2.20312
L7.625 11.7188
Q11.7188 9.32812 16.5938 8.10938
Q21.4844 6.89062 26.8125 6.89062
Q36.0781 6.89062 40.9375 10.5469
Q45.7969 14.2031 45.7969 21.1875
Q45.7969 27.6406 41.2812 31.2656
Q36.7656 34.9062 28.7188 34.9062
L20.2188 34.9062
L20.2188 43.0156
L29.1094 43.0156
Q36.375 43.0156 40.2344 45.9219
Q44.0938 48.8281 44.0938 54.2969
Q44.0938 59.9062 40.1094 62.9062
Q36.1406 65.9219 28.7188 65.9219
Q24.6562 65.9219 20.0156 65.0312
Q15.375 64.1562 9.8125 62.3125
L9.8125 71.0938
Q15.4375 72.6562 20.3438 73.4375
Q25.25 74.2188 29.5938 74.2188
Q40.8281 74.2188 47.3594 69.1094
Q53.9062 64.0156 53.9062 55.3281
Q53.9062 49.2656 50.4375 45.0938
Q46.9688 40.9219 40.5781 39.3125" id="DejaVuSans-33"/>
      </defs>
      <g transform="translate(444.032008929 401.918125)scale(0.12 -0.12)">
       <use xlink:href="#DejaVuSans-33"/>
       <use x="63.623046875" xlink:href="#DejaVuSans-30"/>
       <use x="127.24609375" xlink:href="#DejaVuSans-30"/>
      </g>
     </g>
    </g>
    <g id="xtick_8">
     <g id="line2d_26">
      <path clip-path="url(#p7ff5b81e1d)" d="
M518.4 388.8
L518.4 43.2" style="fill:none;stroke:#000000;stroke-dasharray:3.000000,5.000000,1.000000,5.000000;stroke-dashoffset:0.0;stroke-width:0.5;"/>
     </g>
     <g id="line2d_27">
      <g>
       <use style="stroke:#000000;stroke-width:0.5;" x="518.4" xlink:href="#mc7db9fdffb" y="388.8"/>
      </g>
     </g>
     <g id="line2d_28">
      <g>
       <use style="stroke:#000000;stroke-width:0.5;" x="518.4" xlink:href="#m5a7d422ac3" y="43.2"/>
      </g>
     </g>
     <g id="text_8">
      <!-- 350 -->
      <g transform="translate(507.8034375 401.918125)scale(0.12 -0.12)">
       <use xlink:href="#DejaVuSans-33"/>
       <use x="63.623046875" xlink:href="#DejaVuSans-35"/>
       <use x="127.24609375" xlink:href="#DejaVuSans-30"/>
      </g>
     </g>
    </g>
    <g id="text_9">
     <!-- Time -->
     <defs>
      <path d="
M9.42188 54.6875
L18.4062 54.6875
L18.4062 0
L9.42188 0
z

M9.42188 75.9844
L18.4062 75.9844
L18.4062 64.5938
L9.42188 64.5938
z
" id="DejaVuSans-69"/>
      <path d="
M56.2031 29.5938
L56.2031 25.2031
L14.8906 25.2031
Q15.4844 15.9219 20.4844 11.0625
Q25.4844 6.20312 34.4219 6.20312
Q39.5938 6.20312 44.4531 7.46875
Q49.3125 8.73438 54.1094 11.2812
L54.1094 2.78125
Q49.2656 0.734375 44.1875 -0.34375
Q39.1094 -1.42188 33.8906 -1.42188
Q20.7969 -1.42188 13.1562 6.1875
Q5.51562 13.8125 5.51562 26.8125
Q5.51562 40.2344 12.7656 48.1094
Q20.0156 56 32.3281 56
Q43.3594 56 49.7812 48.8906
Q56.2031 41.7969 56.2031 29.5938
M47.2188 32.2344
Q47.125 39.5938 43.0938 43.9844
Q39.0625 48.3906 32.4219 48.3906
Q24.9062 48.3906 20.3906 44.1406
Q15.875 39.8906 15.1875 32.1719
z
" id="DejaVuSans-65"/>
      <path d="
M-0.296875 72.9062
L61.375 72.9062
L61.375 64.5938
L35.5 64.5938
L35.5 0
L25.5938 0
L25.5938 64.5938
L-0.296875 64.5938
z
" id="DejaVuSans-54"/>
      <path d="
M52 44.1875
Q55.375 50.25 60.0625 53.125
Q64.75 56 71.0938 56
Q79.6406 56 84.2812 50.0156
Q88.9219 44.0469 88.9219 33.0156
L88.9219 0
L79.8906 0
L79.8906 32.7188
Q79.8906 40.5781 77.0938 44.375
Q74.3125 48.1875 68.6094 48.1875
Q61.625 48.1875 57.5625 43.5469
Q53.5156 38.9219 53.5156 30.9062
L53.5156 0
L44.4844 0
L44.4844 32.7188
Q44.4844 40.625 41.7031 44.4062
Q38.9219 48.1875 33.1094 48.1875
Q26.2188 48.1875 22.1562 43.5312
Q18.1094 38.875 18.1094 30.9062
L18.1094 0
L9.07812 0
L9.07812 54.6875
L18.1094 54.6875
L18.1094 46.1875
Q21.1875 51.2188 25.4844 53.6094
Q29.7812 56 35.6875 56
Q41.6562 56 45.8281 52.9688
Q50 49.9531 52 44.1875" id="DejaVuSans-6d"/>
     </defs>
     <g transform="translate(278.42515625 420.0515625)scale(0.14 -0.14)">
      <use xlink:href="#DejaVuSans-54"/>
      <use x="57.958984375" xlink:href="#DejaVuSans-69"/>
      <use x="85.7421875" xlink:href="#DejaVuSans-6d"/>
      <use x="183.154296875" xlink:href="#DejaVuSans-65"/>
     </g>
    </g>
   </g>
   <g id="matplotlib.axis_2">
    <g id="ytick_1">
     <g id="line2d_29">
      <path clip-path="url(#p7ff5b81e1d)" d="
M72 388.8
L518.4 388.8" style="fill:none;stroke:#000000;stroke-dasharray:3.000000,5.000000,1.000000,5.000000;stroke-dashoffset:0.0;stroke-width:0.5;"/>
     </g>
     <g id="line2d_30">
      <defs>
       <path d="
M0 0
L4 0" id="md7965d1ba0" style="stroke:#000000;stroke-width:0.5;"/>
      </defs>
      <g>
       <use style="stroke:#000000;stroke-width:0.5;" x="72.0" xlink:href="#md7965d1ba0" y="388.8"/>
      </g>
     </g>
     <g id="line2d_31">
      <defs>
       <path d="
M0 0
L-4 0" id="md9a1c1a7cd" style="stroke:#000000;stroke-width:0.5;"/>
      </defs>
      <g>
       <use style="stroke:#000000;stroke-width:0.5;" x="518.4" xlink:href="#md9a1c1a7cd" y="388.8"/>
      </g>
     </g>
     <g id="text_10">
      <!-- 0 -->
      <g transform="translate(61.953125 392.11125)scale(0.12 -0.12)">
       <use xlink:href="#DejaVuSans-30"/>
      </g>
     </g>
    </g>
    <g id="ytick_2">
     <g id="line2d_32">
      <path clip-path="url(#p7ff5b81e1d)" d="
M72 302.4
L518.4 302.4" style="fill:none;stroke:#000000;stroke-dasharray:3.000000,5.000000,1.000000,5.000000;stroke-dashoffset:0.0;stroke-width:0.5;"/>
     </g>
     <g id="line2d_33">
      <g>
       <use style="stroke:#000000;stroke-width:0.5;" x="72.0" xlink:href="#md7965d1ba0" y="302.4"/>
      </g>
     </g>
     <g id="line2d_34">
      <g>
       <use style="stroke:#000000;stroke-width:0.5;" x="518.4" xlink:href="#md9a1c1a7cd" y="302.4"/>
      </g>
     </g>
     <g id="text_11">
      <!-- 5 -->
      <g transform="translate(62.339375 305.71125)scale(0.12 -0.12)">
       <use xlink:href="#DejaVuSans-35"/>
      </g>
     </g>
    </g>
    <g id="ytick_3">
     <g id="line2d_35">
      <path clip-path="url(#p7ff5b81e1d)" d="
M72 216
L518.4 216" style="fill:none;stroke:#000000;stroke-dasharray:3.000000,5.000000,1.000000,5.000000;stroke-dashoffset:0.0;stroke-width:0.5;"/>
     </g>
     <g id="line2d_36">
      <g>
       <use style="stroke:#000000;stroke-width:0.5;" x="72.0" xlink:href="#md7965d1ba0" y="216.0"/>
      </g>
     </g>
     <g id="line2d_37">
      <g>
       <use style="stroke:#000000;stroke-width:0.5;" x="518.4" xlink:href="#md9a1c1a7cd" y="216.0"/>
      </g>
     </g>
     <g id="text_12">
      <!-- 10 -->
      <g transform="translate(54.845 219.31125)scale(0.12 -0.12)">
       <use xlink:href="#DejaVuSans-31"/>
       <use x="63.623046875" xlink:href="#DejaVuSans-30"/>
      </g>
     </g>
    </g>
    <g id="ytick_4">
     <g id="line2d_38">
      <path clip-path="url(#p7ff5b81e1d)" d="
M72 129.6
L518.4 129.6" style="fill:none;stroke:#000000;stroke-dasharray:3.000000,5.000000,1.000000,5.000000;stroke-dashoffset:0.0;stroke-width:0.5;"/>
     </g>
     <g id="line2d_39">
      <g>
       <use style="stroke:#000000;stroke-width:0.5;" x="72.0" xlink:href="#md7965d1ba0" y="129.6"/>
      </g>
     </g>
     <g id="line2d_40">
      <g>
       <use style="stroke:#000000;stroke-width:0.5;" x="518.4" xlink:href="#md9a1c1a7cd" y="129.6"/>
      </g>
     </g>
     <g id="text_13">
      <!-- 15 -->
      <g transform="translate(55.09625 132.91125)scale(0.12 -0.12)">
       <use xlink:href="#DejaVuSans-31"/>
       <use x="63.623046875" xlink:href="#DejaVuSans-35"/>
      </g>
     </g>
    </g>
    <g id="ytick_5">
     <g id="line2d_41">
      <path clip-path="url(#p7ff5b81e1d)" d="
M72 43.2
L518.4 43.2" style="fill:none;stroke:#000000;stroke-dasharray:3.000000,5.000000,1.000000,5.000000;stroke-dashoffset:0.0;stroke-width:0.5;"/>
     </g>
     <g id="line2d_42">
      <g>
       <use style="stroke:#000000;stroke-width:0.5;" x="72.0" xlink:href="#md7965d1ba0" y="43.2"/>
      </g>
     </g>
     <g id="line2d_43">
      <g>
       <use style="stroke:#000000;stroke-width:0.5;" x="518.4" xlink:href="#md9a1c1a7cd" y="43.2"/>
      </g>
     </g>
     <g id="text_14">
      <!-- 20 -->
      <g transform="translate(54.40625 46.51125)scale(0.12 -0.12)">
       <use xlink:href="#DejaVuSans-32"/>
       <use x="63.623046875" xlink:href="#DejaVuSans-30"/>
      </g>
     </g>
    </g>
    <g id="text_15">
     <!-- myu_lower_p -->
     <defs>
      <path d="
M4.20312 54.6875
L13.1875 54.6875
L24.4219 12.0156
L35.5938 54.6875
L46.1875 54.6875
L57.4219 12.0156
L68.6094 54.6875
L77.5938 54.6875
L63.2812 0
L52.6875 0
L40.9219 44.8281
L29.1094 0
L18.5 0
z
" id="DejaVuSans-77"/>
      <path d="
M30.6094 48.3906
Q23.3906 48.3906 19.1875 42.75
Q14.9844 37.1094 14.9844 27.2969
Q14.9844 17.4844 19.1562 11.8438
Q23.3438 6.20312 30.6094 6.20312
Q37.7969 6.20312 41.9844 11.8594
Q46.1875 17.5312 46.1875 27.2969
Q46.1875 37.0156 41.9844 42.7031
Q37.7969 48.3906 30.6094 48.3906
M30.6094 56
Q42.3281 56 49.0156 48.375
Q55.7188 40.7656 55.7188 27.2969
Q55.7188 13.875 49.0156 6.21875
Q42.3281 -1.42188 30.6094 -1.42188
Q18.8438 -1.42188 12.1719 6.21875
Q5.51562 13.875 5.51562 27.2969
Q5.51562 40.7656 12.1719 48.375
Q18.8438 56 30.6094 56" id="DejaVuSans-6f"/>
      <path d="
M50.9844 -16.6094
L50.9844 -23.5781
L-0.984375 -23.5781
L-0.984375 -16.6094
z
" id="DejaVuSans-5f"/>
      <path d="
M41.1094 46.2969
Q39.5938 47.1719 37.8125 47.5781
Q36.0312 48 33.8906 48
Q26.2656 48 22.1875 43.0469
Q18.1094 38.0938 18.1094 28.8125
L18.1094 0
L9.07812 0
L9.07812 54.6875
L18.1094 54.6875
L18.1094 46.1875
Q20.9531 51.1719 25.4844 53.5781
Q30.0312 56 36.5312 56
Q37.4531 56 38.5781 55.875
Q39.7031 55.7656 41.0625 55.5156
z
" id="DejaVuSans-72"/>
      <path d="
M18.1094 8.20312
L18.1094 -20.7969
L9.07812 -20.7969
L9.07812 54.6875
L18.1094 54.6875
L18.1094 46.3906
Q20.9531 51.2656 25.2656 53.625
Q29.5938 56 35.5938 56
Q45.5625 56 51.7812 48.0938
Q58.0156 40.1875 58.0156 27.2969
Q58.0156 14.4062 51.7812 6.48438
Q45.5625 -1.42188 35.5938 -1.42188
Q29.5938 -1.42188 25.2656 0.953125
Q20.9531 3.32812 18.1094 8.20312
M48.6875 27.2969
Q48.6875 37.2031 44.6094 42.8438
Q40.5312 48.4844 33.4062 48.4844
Q26.2656 48.4844 22.1875 42.8438
Q18.1094 37.2031 18.1094 27.2969
Q18.1094 17.3906 22.1875 11.75
Q26.2656 6.10938 33.4062 6.10938
Q40.5312 6.10938 44.6094 11.75
Q48.6875 17.3906 48.6875 27.2969" id="DejaVuSans-70"/>
      <path d="
M9.42188 75.9844
L18.4062 75.9844
L18.4062 0
L9.42188 0
z
" id="DejaVuSans-6c"/>
      <path d="
M32.1719 -5.07812
Q28.375 -14.8438 24.75 -17.8125
Q21.1406 -20.7969 15.0938 -20.7969
L7.90625 -20.7969
L7.90625 -13.2812
L13.1875 -13.2812
Q16.8906 -13.2812 18.9375 -11.5156
Q21 -9.76562 23.4844 -3.21875
L25.0938 0.875
L2.98438 54.6875
L12.5 54.6875
L29.5938 11.9219
L46.6875 54.6875
L56.2031 54.6875
z
" id="DejaVuSans-79"/>
      <path d="
M8.5 21.5781
L8.5 54.6875
L17.4844 54.6875
L17.4844 21.9219
Q17.4844 14.1562 20.5 10.2656
Q23.5312 6.39062 29.5938 6.39062
Q36.8594 6.39062 41.0781 11.0312
Q45.3125 15.6719 45.3125 23.6875
L45.3125 54.6875
L54.2969 54.6875
L54.2969 0
L45.3125 0
L45.3125 8.40625
Q42.0469 3.42188 37.7188 1
Q33.4062 -1.42188 27.6875 -1.42188
Q18.2656 -1.42188 13.375 4.4375
Q8.5 10.2969 8.5 21.5781
M31.1094 56
z
" id="DejaVuSans-75"/>
     </defs>
     <g transform="translate(46.1053125 260.96078125)rotate(-90.0)scale(0.14 -0.14)">
      <use xlink:href="#DejaVuSans-6d"/>
      <use x="97.412109375" xlink:href="#DejaVuSans-79"/>
      <use x="156.591796875" xlink:href="#DejaVuSans-75"/>
      <use x="219.970703125" xlink:href="#DejaVuSans-5f"/>
      <use x="269.970703125" xlink:href="#DejaVuSans-6c"/>
      <use x="297.75390625" xlink:href="#DejaVuSans-6f"/>
      <use x="358.935546875" xlink:href="#DejaVuSans-77"/>
      <use x="440.72265625" xlink:href="#DejaVuSans-65"/>
      <use x="502.24609375" xlink:href="#DejaVuSans-72"/>
      <use x="543.359375" xlink:href="#DejaVuSans-5f"/>
      <use x="593.359375" xlink:href="#DejaVuSans-70"/>
     </g>
    </g>
   </g>
   <g id="text_16">
    <!-- myu_lower_p -->
    <g transform="translate(250.23921875 38.2)scale(0.14 -0.14)">
     <use xlink:href="#DejaVuSans-6d"/>
     <use x="97.412109375" xlink:href="#DejaVuSans-79"/>
     <use x="156.591796875" xlink:href="#DejaVuSans-75"/>
     <use x="219.970703125" xlink:href="#DejaVuSans-5f"/>
     <use x="269.970703125" xlink:href="#DejaVuSans-6c"/>
     <use x="297.75390625" xlink:href="#DejaVuSans-6f"/>
     <use x="358.935546875" xlink:href="#DejaVuSans-77"/>
     <use x="440.72265625" xlink:href="#DejaVuSans-65"/>
     <use x="502.24609375" xlink:href="#DejaVuSans-72"/>
     <use x="543.359375" xlink:href="#DejaVuSans-5f"/>
     <use x="593.359375" xlink:href="#DejaVuSans-70"/>
    </g>
   </g>
   <g id="legend_1">
    <g id="patch_7">
     <path d="
M357.728 140.868
L511.2 140.868
L511.2 50.4
L357.728 50.4
z
" style="fill:#ffffff;stroke:#000000;stroke-linejoin:miter;"/>
    </g>
    <g id="line2d_44">
     <path d="
M367.808 62.0617
L387.968 62.0617" style="fill:none;stroke:#bf00bf;stroke-linecap:square;"/>
    </g>
    <g id="line2d_45"/>
    <g id="text_17">
     <!-- myu_lower_p1 -->
     <g transform="translate(403.8075 67.10175)scale(0.144 -0.144)">
      <use xlink:href="#DejaVuSans-6d"/>
      <use x="97.412109375" xlink:href="#DejaVuSans-79"/>
      <use x="156.591796875" xlink:href="#DejaVuSans-75"/>
      <use x="219.970703125" xlink:href="#DejaVuSans-5f"/>
      <use x="269.970703125" xlink:href="#DejaVuSans-6c"/>
      <use x="297.75390625" xlink:href="#DejaVuSans-6f"/>
      <use x="358.935546875" xlink:href="#DejaVuSans-77"/>
      <use x="440.72265625" xlink:href="#DejaVuSans-65"/>
      <use x="502.24609375" xlink:href="#DejaVuSans-72"/>
      <use x="543.359375" xlink:href="#DejaVuSans-5f"/>
      <use x="593.359375" xlink:href="#DejaVuSans-70"/>
      <use x="656.8359375" xlink:href="#DejaVuSans-31"/>
     </g>
    </g>
    <g id="line2d_46">
     <path d="
M367.808 83.5987
L387.968 83.5987" style="fill:none;stroke:#00bfbf;stroke-linecap:square;"/>
    </g>
    <g id="line2d_47"/>
    <g id="text_18">
     <!-- myu_lower_p2 -->
     <g transform="translate(403.8075 88.63875)scale(0.144 -0.144)">
      <use xlink:href="#DejaVuSans-6d"/>
      <use x="97.412109375" xlink:href="#DejaVuSans-79"/>
      <use x="156.591796875" xlink:href="#DejaVuSans-75"/>
      <use x="219.970703125" xlink:href="#DejaVuSans-5f"/>
      <use x="269.970703125" xlink:href="#DejaVuSans-6c"/>
      <use x="297.75390625" xlink:href="#DejaVuSans-6f"/>
      <use x="358.935546875" xlink:href="#DejaVuSans-77"/>
      <use x="440.72265625" xlink:href="#DejaVuSans-65"/>
      <use x="502.24609375" xlink:href="#DejaVuSans-72"/>
      <use x="543.359375" xlink:href="#DejaVuSans-5f"/>
      <use x="593.359375" xlink:href="#DejaVuSans-70"/>
      <use x="656.8359375" xlink:href="#DejaVuSans-32"/>
     </g>
    </g>
    <g id="line2d_48">
     <path d="
M367.808 105.136
L387.968 105.136" style="fill:none;stroke:#ff0000;stroke-linecap:square;"/>
    </g>
    <g id="line2d_49"/>
    <g id="text_19">
     <!-- myu_lower_p3 -->
     <g transform="translate(403.8075 110.17575)scale(0.144 -0.144)">
      <use xlink:href="#DejaVuSans-6d"/>
      <use x="97.412109375" xlink:href="#DejaVuSans-79"/>
      <use x="156.591796875" xlink:href="#DejaVuSans-75"/>
      <use x="219.970703125" xlink:href="#DejaVuSans-5f"/>
      <use x="269.970703125" xlink:href="#DejaVuSans-6c"/>
      <use x="297.75390625" xlink:href="#DejaVuSans-6f"/>
      <use x="358.935546875" xlink:href="#DejaVuSans-77"/>
      <use x="440.72265625" xlink:href="#DejaVuSans-65"/>
      <use x="502.24609375" xlink:href="#DejaVuSans-72"/>
      <use x="543.359375" xlink:href="#DejaVuSans-5f"/>
      <use x="593.359375" xlink:href="#DejaVuSans-70"/>
      <use x="656.8359375" xlink:href="#DejaVuSans-33"/>
     </g>
    </g>
    <g id="line2d_50">
     <path d="
M367.808 126.673
L387.968 126.673" style="fill:none;stroke:#008000;stroke-linecap:square;"/>
    </g>
    <g id="line2d_51"/>
    <g id="text_20">
     <!-- myu_lower_p4 -->
     <defs>
      <path d="
M37.7969 64.3125
L12.8906 25.3906
L37.7969 25.3906
z

M35.2031 72.9062
L47.6094 72.9062
L47.6094 25.3906
L58.0156 25.3906
L58.0156 17.1875
L47.6094 17.1875
L47.6094 0
L37.7969 0
L37.7969 17.1875
L4.89062 17.1875
L4.89062 26.7031
z
" id="DejaVuSans-34"/>
     </defs>
     <g transform="translate(403.8075 131.71275)scale(0.144 -0.144)">
      <use xlink:href="#DejaVuSans-6d"/>
      <use x="97.412109375" xlink:href="#DejaVuSans-79"/>
      <use x="156.591796875" xlink:href="#DejaVuSans-75"/>
      <use x="219.970703125" xlink:href="#DejaVuSans-5f"/>
      <use x="269.970703125" xlink:href="#DejaVuSans-6c"/>
      <use x="297.75390625" xlink:href="#DejaVuSans-6f"/>
      <use x="358.935546875" xlink:href="#DejaVuSans-77"/>
      <use x="440.72265625" xlink:href="#DejaVuSans-65"/>
      <use x="502.24609375" xlink:href="#DejaVuSans-72"/>
      <use x="543.359375" xlink:href="#DejaVuSans-5f"/>
      <use x="593.359375" xlink:href="#DejaVuSans-70"/>
      <use x="656.8359375" xlink:href="#DejaVuSans-34"/>
     </g>
    </g>
   </g>
  </g>
 </g>
 <defs>
  <clipPath id="p7ff5b81e1d">
   <rect height="345.6" width="446.4" x="72.0" y="43.2"/>
  </clipPath>
 </defs>
</svg>
