<?xml version="1.0" encoding="utf-8" standalone="no"?>
<!DOCTYPE svg PUBLIC "-//W3C//DTD SVG 1.1//EN"
  "http://www.w3.org/Graphics/SVG/1.1/DTD/svg11.dtd">
<!-- Created with matplotlib (http://matplotlib.org/) -->
<svg height="432pt" version="1.1" viewBox="0 0 576 432" width="576pt" xmlns="http://www.w3.org/2000/svg" xmlns:xlink="http://www.w3.org/1999/xlink">
 <defs>
  <style type="text/css">
*{stroke-linecap:butt;stroke-linejoin:round;}
  </style>
 </defs>
 <g id="figure_1">
  <g id="patch_1">
   <path d="M 0 432 
L 576 432 
L 576 0 
L 0 0 
z
" style="fill:#ffffff;"/>
  </g>
  <g id="axes_1">
   <g id="patch_2">
    <path d="M 72 384.48 
L 518.4 384.48 
L 518.4 51.84 
L 72 51.84 
z
" style="fill:#ffffff;"/>
   </g>
   <g id="matplotlib.axis_1">
    <g id="xtick_1">
     <g id="line2d_1">
      <path clip-path="url(#pa7d16c135d)" d="M 92.290909 384.48 
L 92.290909 51.84 
" style="fill:none;stroke:#b0b0b0;stroke-dasharray:5.12,1.28,0.8,1.28;stroke-dashoffset:0;stroke-width:0.8;"/>
     </g>
     <g id="line2d_2">
      <defs>
       <path d="M 0 0 
L 0 3.5 
" id="mcd98642b21" style="stroke:#000000;stroke-width:0.8;"/>
      </defs>
      <g>
       <use style="stroke:#000000;stroke-width:0.8;" x="92.290909" xlink:href="#mcd98642b21" y="384.48"/>
      </g>
     </g>
     <g id="text_1">
      <!-- $0$ -->
      <defs>
       <path d="M 42 31.640625 
C 42 37.75 41.90625 48.125 37.703125 56.109375 
C 34 63.109375 28.09375 65.59375 22.90625 65.59375 
C 18.09375 65.59375 12 63.40625 8.203125 56.203125 
C 4.203125 48.71875 3.796875 39.4375 3.796875 31.640625 
C 3.796875 25.953125 3.90625 17.28125 7 9.671875 
C 11.296875 -0.609375 19 -2 22.90625 -2 
C 27.5 -2 34.5 -0.109375 38.59375 9.375 
C 41.59375 16.28125 42 24.359375 42 31.640625 
z
M 22.90625 -0.40625 
C 16.5 -0.40625 12.703125 5.078125 11.296875 12.6875 
C 10.203125 18.5625 10.203125 27.15625 10.203125 32.75 
C 10.203125 40.4375 10.203125 46.828125 11.5 52.921875 
C 13.40625 61.390625 19 64 22.90625 64 
C 27 64 32.296875 61.296875 34.203125 53.125 
C 35.5 47.4375 35.59375 40.734375 35.59375 32.75 
C 35.59375 26.25 35.59375 18.265625 34.40625 12.375 
C 32.296875 1.484375 26.40625 -0.40625 22.90625 -0.40625 
z
" id="CMR17-48"/>
      </defs>
      <g transform="translate(89.800241 398.398498)scale(0.1 -0.1)">
       <use transform="scale(0.996264)" xlink:href="#CMR17-48"/>
      </g>
     </g>
    </g>
    <g id="xtick_2">
     <g id="line2d_3">
      <path clip-path="url(#pa7d16c135d)" d="M 160.198905 384.48 
L 160.198905 51.84 
" style="fill:none;stroke:#b0b0b0;stroke-dasharray:5.12,1.28,0.8,1.28;stroke-dashoffset:0;stroke-width:0.8;"/>
     </g>
     <g id="line2d_4">
      <g>
       <use style="stroke:#000000;stroke-width:0.8;" x="160.198905" xlink:href="#mcd98642b21" y="384.48"/>
      </g>
     </g>
     <g id="text_2">
      <!-- $500$ -->
      <defs>
       <path d="M 11.40625 57.6875 
C 12.40625 57.28125 16.5 56 20.703125 56 
C 30 56 35.09375 61.109375 38 64.0625 
C 38 64.953125 38 65.5 37.40625 65.5 
C 37.296875 65.5 37.09375 65.5 36.296875 65.046875 
C 32.796875 63.40625 28.703125 62.078125 23.703125 62.078125 
C 20.703125 62.078125 16.203125 62.484375 11.296875 64.671875 
C 10.203125 65.171875 10 65.171875 9.90625 65.171875 
C 9.40625 65.171875 9.296875 65.0625 9.296875 63.078125 
L 9.296875 34.421875 
C 9.296875 32.640625 9.296875 32.140625 10.296875 32.140625 
C 10.796875 32.140625 11 32.34375 11.5 33.03125 
C 14.703125 37.515625 19.09375 39.40625 24.09375 39.40625 
C 27.59375 39.40625 35.09375 37.21875 35.09375 20.140625 
C 35.09375 16.953125 35.09375 11.171875 32.09375 6.578125 
C 29.59375 2.484375 25.703125 0.390625 21.40625 0.390625 
C 14.796875 0.390625 8.09375 5 6.296875 12.71875 
C 6.703125 12.609375 7.5 12.421875 7.90625 12.421875 
C 9.203125 12.421875 11.703125 13.125 11.703125 16.21875 
C 11.703125 18.90625 9.796875 20 7.90625 20 
C 5.59375 20 4.09375 18.59375 4.09375 15.796875 
C 4.09375 7.09375 11 -2 21.59375 -2 
C 31.90625 -2 41.703125 6.875 41.703125 19.75 
C 41.703125 31.71875 33.90625 41 24.203125 41 
C 19.09375 41 14.796875 39.109375 11.40625 35.53125 
z
" id="CMR17-53"/>
      </defs>
      <g transform="translate(152.726902 398.398498)scale(0.1 -0.1)">
       <use transform="scale(0.996264)" xlink:href="#CMR17-53"/>
       <use transform="translate(45.690477 0)scale(0.996264)" xlink:href="#CMR17-48"/>
       <use transform="translate(91.380954 0)scale(0.996264)" xlink:href="#CMR17-48"/>
      </g>
     </g>
    </g>
    <g id="xtick_3">
     <g id="line2d_5">
      <path clip-path="url(#pa7d16c135d)" d="M 228.1069 384.48 
L 228.1069 51.84 
" style="fill:none;stroke:#b0b0b0;stroke-dasharray:5.12,1.28,0.8,1.28;stroke-dashoffset:0;stroke-width:0.8;"/>
     </g>
     <g id="line2d_6">
      <g>
       <use style="stroke:#000000;stroke-width:0.8;" x="228.1069" xlink:href="#mcd98642b21" y="384.48"/>
      </g>
     </g>
     <g id="text_3">
      <!-- $1000$ -->
      <defs>
       <path d="M 26.59375 63.40625 
C 26.59375 65.5 26.5 65.5 25.09375 65.5 
C 21.203125 61.1875 15.296875 59.796875 9.703125 59.796875 
C 9.40625 59.796875 8.90625 59.796875 8.796875 59.5 
C 8.703125 59.296875 8.703125 59.09375 8.703125 57 
C 11.796875 57 17 57.59375 21 59.984375 
L 21 7.203125 
C 21 3.6875 20.796875 2.5 12.203125 2.5 
L 9.203125 2.5 
L 9.203125 0 
C 14 0 19 0 23.796875 0 
C 28.59375 0 33.59375 0 38.40625 0 
L 38.40625 2.5 
L 35.40625 2.5 
C 26.796875 2.5 26.59375 3.59375 26.59375 7.15625 
z
" id="CMR17-49"/>
      </defs>
      <g transform="translate(218.14423 398.398498)scale(0.1 -0.1)">
       <use transform="scale(0.996264)" xlink:href="#CMR17-49"/>
       <use transform="translate(45.690477 0)scale(0.996264)" xlink:href="#CMR17-48"/>
       <use transform="translate(91.380954 0)scale(0.996264)" xlink:href="#CMR17-48"/>
       <use transform="translate(137.071431 0)scale(0.996264)" xlink:href="#CMR17-48"/>
      </g>
     </g>
    </g>
    <g id="xtick_4">
     <g id="line2d_7">
      <path clip-path="url(#pa7d16c135d)" d="M 296.014896 384.48 
L 296.014896 51.84 
" style="fill:none;stroke:#b0b0b0;stroke-dasharray:5.12,1.28,0.8,1.28;stroke-dashoffset:0;stroke-width:0.8;"/>
     </g>
     <g id="line2d_8">
      <g>
       <use style="stroke:#000000;stroke-width:0.8;" x="296.014896" xlink:href="#mcd98642b21" y="384.48"/>
      </g>
     </g>
     <g id="text_4">
      <!-- $1500$ -->
      <g transform="translate(286.052225 398.398498)scale(0.1 -0.1)">
       <use transform="scale(0.996264)" xlink:href="#CMR17-49"/>
       <use transform="translate(45.690477 0)scale(0.996264)" xlink:href="#CMR17-53"/>
       <use transform="translate(91.380954 0)scale(0.996264)" xlink:href="#CMR17-48"/>
       <use transform="translate(137.071431 0)scale(0.996264)" xlink:href="#CMR17-48"/>
      </g>
     </g>
    </g>
    <g id="xtick_5">
     <g id="line2d_9">
      <path clip-path="url(#pa7d16c135d)" d="M 363.922892 384.48 
L 363.922892 51.84 
" style="fill:none;stroke:#b0b0b0;stroke-dasharray:5.12,1.28,0.8,1.28;stroke-dashoffset:0;stroke-width:0.8;"/>
     </g>
     <g id="line2d_10">
      <g>
       <use style="stroke:#000000;stroke-width:0.8;" x="363.922892" xlink:href="#mcd98642b21" y="384.48"/>
      </g>
     </g>
     <g id="text_5">
      <!-- $2000$ -->
      <defs>
       <path d="M 41.703125 15.453125 
L 39.90625 15.453125 
C 38.90625 8.375 38.09375 7.171875 37.703125 6.5625 
C 37.203125 5.765625 30 5.765625 28.59375 5.765625 
L 9.40625 5.765625 
C 13 9.671875 20 16.75 28.5 24.953125 
C 34.59375 30.734375 41.703125 37.53125 41.703125 47.421875 
C 41.703125 59.21875 32.296875 66 21.796875 66 
C 10.796875 66 4.09375 56.3125 4.09375 47.34375 
C 4.09375 43.4375 7 42.9375 8.203125 42.9375 
C 9.203125 42.9375 12.203125 43.546875 12.203125 47.03125 
C 12.203125 50.109375 9.59375 51 8.203125 51 
C 7.59375 51 7 50.90625 6.59375 50.703125 
C 8.5 59.21875 14.296875 63.40625 20.40625 63.40625 
C 29.09375 63.40625 34.796875 56.515625 34.796875 47.421875 
C 34.796875 38.734375 29.703125 31.25 24 24.75 
L 4.09375 2.28125 
L 4.09375 0 
L 39.296875 0 
z
" id="CMR17-50"/>
      </defs>
      <g transform="translate(353.960221 398.398498)scale(0.1 -0.1)">
       <use transform="scale(0.996264)" xlink:href="#CMR17-50"/>
       <use transform="translate(45.690477 0)scale(0.996264)" xlink:href="#CMR17-48"/>
       <use transform="translate(91.380954 0)scale(0.996264)" xlink:href="#CMR17-48"/>
       <use transform="translate(137.071431 0)scale(0.996264)" xlink:href="#CMR17-48"/>
      </g>
     </g>
    </g>
    <g id="xtick_6">
     <g id="line2d_11">
      <path clip-path="url(#pa7d16c135d)" d="M 431.830887 384.48 
L 431.830887 51.84 
" style="fill:none;stroke:#b0b0b0;stroke-dasharray:5.12,1.28,0.8,1.28;stroke-dashoffset:0;stroke-width:0.8;"/>
     </g>
     <g id="line2d_12">
      <g>
       <use style="stroke:#000000;stroke-width:0.8;" x="431.830887" xlink:href="#mcd98642b21" y="384.48"/>
      </g>
     </g>
     <g id="text_6">
      <!-- $2500$ -->
      <g transform="translate(421.868217 398.398498)scale(0.1 -0.1)">
       <use transform="scale(0.996264)" xlink:href="#CMR17-50"/>
       <use transform="translate(45.690477 0)scale(0.996264)" xlink:href="#CMR17-53"/>
       <use transform="translate(91.380954 0)scale(0.996264)" xlink:href="#CMR17-48"/>
       <use transform="translate(137.071431 0)scale(0.996264)" xlink:href="#CMR17-48"/>
      </g>
     </g>
    </g>
    <g id="xtick_7">
     <g id="line2d_13">
      <path clip-path="url(#pa7d16c135d)" d="M 499.738883 384.48 
L 499.738883 51.84 
" style="fill:none;stroke:#b0b0b0;stroke-dasharray:5.12,1.28,0.8,1.28;stroke-dashoffset:0;stroke-width:0.8;"/>
     </g>
     <g id="line2d_14">
      <g>
       <use style="stroke:#000000;stroke-width:0.8;" x="499.738883" xlink:href="#mcd98642b21" y="384.48"/>
      </g>
     </g>
     <g id="text_7">
      <!-- $3000$ -->
      <defs>
       <path d="M 22.09375 33.703125 
C 31 33.703125 34.90625 25.96875 34.90625 17.03125 
C 34.90625 5 28.5 0.390625 22.703125 0.390625 
C 17.40625 0.390625 8.796875 3.03125 6.09375 10.828125 
C 6.59375 10.625 7.09375 10.625 7.59375 10.625 
C 10 10.625 11.796875 12.21875 11.796875 14.8125 
C 11.796875 17.703125 9.59375 19 7.59375 19 
C 5.90625 19 3.296875 18.203125 3.296875 14.46875 
C 3.296875 5.234375 12.296875 -2 22.90625 -2 
C 34 -2 42.5 6.71875 42.5 16.953125 
C 42.5 26.671875 34.5 33.703125 25 34.796875 
C 32.59375 36.375 39.90625 43.0625 39.90625 52.015625 
C 39.90625 59.6875 32 65.296875 23 65.296875 
C 13.90625 65.296875 5.90625 59.828125 5.90625 52.015625 
C 5.90625 48.59375 8.5 48 9.796875 48 
C 11.90625 48 13.703125 49.296875 13.703125 51.890625 
C 13.703125 54.46875 11.90625 55.765625 9.796875 55.765625 
C 9.40625 55.765625 8.90625 55.765625 8.5 55.578125 
C 11.40625 61.859375 19.296875 63 22.796875 63 
C 26.296875 63 32.90625 61.328125 32.90625 51.875 
C 32.90625 49.109375 32.5 44.1875 29.09375 39.84375 
C 26.09375 36 22.703125 36 19.40625 35.6875 
C 18.90625 35.6875 16.59375 35.453125 16.203125 35.453125 
C 15.5 35.359375 15.09375 35.265625 15.09375 34.5 
C 15.09375 33.796875 15.203125 33.703125 17.203125 33.703125 
z
" id="CMR17-51"/>
      </defs>
      <g transform="translate(489.776212 398.398498)scale(0.1 -0.1)">
       <use transform="scale(0.996264)" xlink:href="#CMR17-51"/>
       <use transform="translate(45.690477 0)scale(0.996264)" xlink:href="#CMR17-48"/>
       <use transform="translate(91.380954 0)scale(0.996264)" xlink:href="#CMR17-48"/>
       <use transform="translate(137.071431 0)scale(0.996264)" xlink:href="#CMR17-48"/>
      </g>
     </g>
    </g>
    <g id="text_8">
     <!-- Iteration -->
     <defs>
      <path d="M 17.09375 69 
L 8.703125 69 
L 8.703125 0 
L 17.09375 0 
z
" id="CMSS17-73"/>
      <path d="M 16.703125 37 
L 29.703125 37 
L 29.703125 42.765625 
L 16.703125 42.765625 
L 16.703125 55 
L 9.59375 55 
L 9.59375 42.765625 
L 1.703125 42.765625 
L 1.703125 37 
L 9.40625 37 
L 9.40625 11.703125 
C 9.40625 6 10.703125 -1 17.296875 -1 
C 22.296875 -1 26.90625 0.390625 31.296875 2.6875 
L 29.703125 8.5625 
C 27.296875 6.46875 24.40625 5.265625 21.296875 5.265625 
C 16.90625 5.265625 16.703125 10.875 16.703125 13.375 
z
" id="CMSS17-116"/>
      <path d="M 39.09375 21.515625 
C 39.09375 24.84375 38.90625 31.296875 35.703125 36.640625 
C 32.203125 42.390625 26.5 44 22.203125 44 
C 11.796875 44 3 34.1875 3 21.484375 
C 3 9.09375 12.09375 -1 23.59375 -1 
C 28.09375 -1 33.59375 0.296875 38.59375 3.875 
C 38.59375 4.28125 38.40625 6.46875 38.296875 6.5625 
C 38.296875 6.765625 38 9.84375 38 10.25 
C 33.203125 6.359375 27.703125 5.078125 23.703125 5.078125 
C 17.296875 5.078125 10.40625 10.421875 10.09375 21.515625 
z
M 10.90625 27 
C 12.203125 32.5625 16.59375 37.828125 22.203125 37.828125 
C 23.703125 37.828125 30.703125 37.828125 32.5 27 
z
" id="CMSS17-101"/>
      <path d="M 14.90625 21.296875 
C 14.90625 30.703125 21.796875 37 30.59375 37 
L 30.59375 43.578125 
C 24.203125 43.578125 18.203125 40.390625 14.59375 35.203125 
L 14.59375 43.09375 
L 7.5 43.09375 
L 7.5 0 
L 14.90625 0 
z
" id="CMSS17-114"/>
      <path d="M 37.59375 27.984375 
C 37.59375 37.375 30.90625 43.875 21.90625 43.875 
C 17.5 43.875 12.703125 43.078125 7.203125 39.890625 
L 7.796875 33.359375 
C 10.296875 35.125 14.59375 38 21.796875 38 
C 26.90625 38 30 34.0625 30 27.84375 
L 30 24 
C 14 24 4 19.34375 4 11.34375 
C 4 7.203125 6.5 -1 14.796875 -1 
C 16.296875 -1 24.40625 -1 30.203125 3.390625 
L 30.203125 -0.296875 
L 37.59375 -0.296875 
z
M 30 12.75 
C 30 10.953125 30 8.5625 27 6.78125 
C 24.40625 5.078125 21.09375 5.078125 19.703125 5.078125 
C 14.703125 5.078125 11.296875 7.984375 11.296875 11.625 
C 11.296875 18.921875 26.90625 18.921875 30 18.921875 
z
" id="CMSS17-97"/>
      <path d="M 15.296875 65.359375 
L 6.90625 65.359375 
L 6.90625 57 
L 15.296875 57 
z
M 14.796875 42.796875 
L 7.40625 42.796875 
L 7.40625 0 
L 14.796875 0 
z
" id="CMSS17-105"/>
      <path d="M 44.203125 21.1875 
C 44.203125 34 34.703125 44 23.5 44 
C 12 44 2.703125 33.703125 2.703125 21.1875 
C 2.703125 8.5 12.296875 -1 23.40625 -1 
C 34.796875 -1 44.203125 8.796875 44.203125 21.1875 
z
M 23.5 5.265625 
C 16.40625 5.265625 10.296875 11.078125 10.296875 22 
C 10.296875 33.609375 17.40625 37.921875 23.40625 37.921875 
C 29.90625 37.921875 36.59375 33.21875 36.59375 22 
C 36.59375 10.671875 30.09375 5.265625 23.5 5.265625 
z
" id="CMSS17-111"/>
      <path d="M 40.90625 29.328125 
C 40.90625 35.671875 39.40625 44 28.09375 44 
C 21.703125 44 17.5 40.71875 14.703125 37.328125 
L 14.703125 43.09375 
L 7.40625 43.09375 
L 7.40625 0 
L 15 0 
L 15 24.359375 
C 15 30.6875 17.40625 37.9375 24.203125 37.9375 
C 33 37.9375 33.296875 32 33.296875 28.578125 
L 33.296875 0 
L 40.90625 0 
z
" id="CMSS17-110"/>
     </defs>
     <g transform="translate(271.264003 414.021553)scale(0.14 -0.14)">
      <use transform="scale(0.996264)" xlink:href="#CMSS17-73"/>
      <use transform="translate(25.783926 0)scale(0.996264)" xlink:href="#CMSS17-116"/>
      <use transform="translate(59.615492 0)scale(0.996264)" xlink:href="#CMSS17-101"/>
      <use transform="translate(101.254314 0)scale(0.996264)" xlink:href="#CMSS17-114"/>
      <use transform="translate(133.164087 0)scale(0.996264)" xlink:href="#CMSS17-97"/>
      <use transform="translate(178.086007 0)scale(0.996264)" xlink:href="#CMSS17-116"/>
      <use transform="translate(211.917574 0)scale(0.996264)" xlink:href="#CMSS17-105"/>
      <use transform="translate(234.098297 0)scale(0.996264)" xlink:href="#CMSS17-111"/>
      <use transform="translate(280.941921 0)scale(0.996264)" xlink:href="#CMSS17-110"/>
     </g>
    </g>
   </g>
   <g id="matplotlib.axis_2">
    <g id="ytick_1">
     <g id="line2d_15">
      <path clip-path="url(#pa7d16c135d)" d="M 72 367.285433 
L 518.4 367.285433 
" style="fill:none;stroke:#b0b0b0;stroke-dasharray:5.12,1.28,0.8,1.28;stroke-dashoffset:0;stroke-width:0.8;"/>
     </g>
     <g id="line2d_16">
      <defs>
       <path d="M 0 0 
L -3.5 0 
" id="md250a6a7be" style="stroke:#000000;stroke-width:0.8;"/>
      </defs>
      <g>
       <use style="stroke:#000000;stroke-width:0.8;" x="72" xlink:href="#md250a6a7be" y="367.285433"/>
      </g>
     </g>
     <g id="text_9">
      <!-- $-50$ -->
      <defs>
       <path d="M 65.90625 23 
C 67.59375 23 69.40625 23 69.40625 25 
C 69.40625 27 67.59375 27 65.90625 27 
L 11.796875 27 
C 10.09375 27 8.296875 27 8.296875 25 
C 8.296875 23 10.09375 23 11.796875 23 
z
" id="CMSY10-0"/>
      </defs>
      <g transform="translate(47.288586 370.744682)scale(0.1 -0.1)">
       <use transform="scale(0.996264)" xlink:href="#CMSY10-0"/>
       <use transform="translate(77.487468 0)scale(0.996264)" xlink:href="#CMR17-53"/>
       <use transform="translate(123.177945 0)scale(0.996264)" xlink:href="#CMR17-48"/>
      </g>
     </g>
    </g>
    <g id="ytick_2">
     <g id="line2d_17">
      <path clip-path="url(#pa7d16c135d)" d="M 72 307.842241 
L 518.4 307.842241 
" style="fill:none;stroke:#b0b0b0;stroke-dasharray:5.12,1.28,0.8,1.28;stroke-dashoffset:0;stroke-width:0.8;"/>
     </g>
     <g id="line2d_18">
      <g>
       <use style="stroke:#000000;stroke-width:0.8;" x="72" xlink:href="#md250a6a7be" y="307.842241"/>
      </g>
     </g>
     <g id="text_10">
      <!-- $-40$ -->
      <defs>
       <path d="M 33.59375 64.40625 
C 33.59375 66.5 33.5 66.5 31.703125 66.5 
L 2 19.59375 
L 2 17 
L 27.796875 17 
L 27.796875 7.140625 
C 27.796875 3.5 27.59375 2.5 20.59375 2.5 
L 18.703125 2.5 
L 18.703125 0 
C 21.90625 0 27.296875 0 30.703125 0 
C 34.09375 0 39.5 0 42.703125 0 
L 42.703125 2.5 
L 40.796875 2.5 
C 33.796875 2.5 33.59375 3.5 33.59375 7.140625 
L 33.59375 17 
L 43.796875 17 
L 43.796875 19.59375 
L 33.59375 19.59375 
z
M 28.09375 57.859375 
L 28.09375 19.59375 
L 4 19.59375 
z
" id="CMR17-52"/>
      </defs>
      <g transform="translate(47.288586 311.30149)scale(0.1 -0.1)">
       <use transform="scale(0.996264)" xlink:href="#CMSY10-0"/>
       <use transform="translate(77.487468 0)scale(0.996264)" xlink:href="#CMR17-52"/>
       <use transform="translate(123.177945 0)scale(0.996264)" xlink:href="#CMR17-48"/>
      </g>
     </g>
    </g>
    <g id="ytick_3">
     <g id="line2d_19">
      <path clip-path="url(#pa7d16c135d)" d="M 72 248.399049 
L 518.4 248.399049 
" style="fill:none;stroke:#b0b0b0;stroke-dasharray:5.12,1.28,0.8,1.28;stroke-dashoffset:0;stroke-width:0.8;"/>
     </g>
     <g id="line2d_20">
      <g>
       <use style="stroke:#000000;stroke-width:0.8;" x="72" xlink:href="#md250a6a7be" y="248.399049"/>
      </g>
     </g>
     <g id="text_11">
      <!-- $-30$ -->
      <g transform="translate(47.288586 251.858298)scale(0.1 -0.1)">
       <use transform="scale(0.996264)" xlink:href="#CMSY10-0"/>
       <use transform="translate(77.487468 0)scale(0.996264)" xlink:href="#CMR17-51"/>
       <use transform="translate(123.177945 0)scale(0.996264)" xlink:href="#CMR17-48"/>
      </g>
     </g>
    </g>
    <g id="ytick_4">
     <g id="line2d_21">
      <path clip-path="url(#pa7d16c135d)" d="M 72 188.955857 
L 518.4 188.955857 
" style="fill:none;stroke:#b0b0b0;stroke-dasharray:5.12,1.28,0.8,1.28;stroke-dashoffset:0;stroke-width:0.8;"/>
     </g>
     <g id="line2d_22">
      <g>
       <use style="stroke:#000000;stroke-width:0.8;" x="72" xlink:href="#md250a6a7be" y="188.955857"/>
      </g>
     </g>
     <g id="text_12">
      <!-- $-20$ -->
      <g transform="translate(47.288586 192.415106)scale(0.1 -0.1)">
       <use transform="scale(0.996264)" xlink:href="#CMSY10-0"/>
       <use transform="translate(77.487468 0)scale(0.996264)" xlink:href="#CMR17-50"/>
       <use transform="translate(123.177945 0)scale(0.996264)" xlink:href="#CMR17-48"/>
      </g>
     </g>
    </g>
    <g id="ytick_5">
     <g id="line2d_23">
      <path clip-path="url(#pa7d16c135d)" d="M 72 129.512665 
L 518.4 129.512665 
" style="fill:none;stroke:#b0b0b0;stroke-dasharray:5.12,1.28,0.8,1.28;stroke-dashoffset:0;stroke-width:0.8;"/>
     </g>
     <g id="line2d_24">
      <g>
       <use style="stroke:#000000;stroke-width:0.8;" x="72" xlink:href="#md250a6a7be" y="129.512665"/>
      </g>
     </g>
     <g id="text_13">
      <!-- $-10$ -->
      <g transform="translate(47.288586 132.971914)scale(0.1 -0.1)">
       <use transform="scale(0.996264)" xlink:href="#CMSY10-0"/>
       <use transform="translate(77.487468 0)scale(0.996264)" xlink:href="#CMR17-49"/>
       <use transform="translate(123.177945 0)scale(0.996264)" xlink:href="#CMR17-48"/>
      </g>
     </g>
    </g>
    <g id="ytick_6">
     <g id="line2d_25">
      <path clip-path="url(#pa7d16c135d)" d="M 72 70.069473 
L 518.4 70.069473 
" style="fill:none;stroke:#b0b0b0;stroke-dasharray:5.12,1.28,0.8,1.28;stroke-dashoffset:0;stroke-width:0.8;"/>
     </g>
     <g id="line2d_26">
      <g>
       <use style="stroke:#000000;stroke-width:0.8;" x="72" xlink:href="#md250a6a7be" y="70.069473"/>
      </g>
     </g>
     <g id="text_14">
      <!-- $0$ -->
      <g transform="translate(60.018665 73.528723)scale(0.1 -0.1)">
       <use transform="scale(0.996264)" xlink:href="#CMR17-48"/>
      </g>
     </g>
    </g>
    <g id="text_15">
     <!-- $\partial \mathcal{L}/ \partial \mu^{\overline{U}}_{m}$ -->
     <defs>
      <path d="M 45.40625 33.515625 
C 44.796875 39.125 41.296875 45.859375 32.296875 45.859375 
C 18.203125 45.859375 3.796875 31.515625 3.796875 15.5625 
C 3.796875 9.4375 8 -2.09375 21.59375 -2.09375 
C 45.203125 -2.09375 55.296875 32.296875 55.296875 46 
C 55.296875 60.40625 47.203125 71.5 34.40625 71.5 
C 19.90625 71.5 15.59375 58.796875 15.59375 56.09375 
C 15.59375 55.203125 16.203125 53 19 53 
C 22.5 53 24 56.203125 24 57.90625 
C 24 61 20.90625 61 19.59375 61 
C 23.703125 68.40625 31.296875 69.09375 34 69.09375 
C 42.796875 69.09375 48.40625 62.109375 48.40625 50.96875 
C 48.40625 44.578125 46.5 37.1875 45.5 33.515625 
z
M 21.90625 0.59375 
C 12.5 0.59375 10.90625 8.03125 10.90625 12.25 
C 10.90625 16.65625 13.703125 27 15.203125 30.703125 
C 16.5 33.71875 22.203125 43.859375 32.59375 43.859375 
C 41.703125 43.859375 43.796875 35.921875 43.796875 30.515625 
C 43.796875 23.078125 37.296875 0.59375 21.90625 0.59375 
z
" id="CMMI12-64"/>
      <path d="M 18 9.53125 
C 23.40625 17.984375 25.09375 24.40625 26.40625 29.734375 
C 29.90625 43.59375 33.703125 55.65625 39.90625 62.578125 
C 41.09375 63.90625 41.90625 64.796875 45.09375 64.796875 
C 52 64.796875 52.203125 57.875 52.203125 56.453125 
C 52.203125 54.65625 51.703125 53.234375 51.703125 52.734375 
C 51.703125 52.03125 52.296875 52.03125 52.40625 52.03125 
C 54 52.03125 56.703125 53.140625 59.203125 54.953125 
C 61 56.359375 61.90625 57.359375 61.90625 61.46875 
C 61.90625 66.890625 59.09375 71 53.5 71 
C 50.296875 71 41.5 70.203125 31.703125 60.25 
C 23.703125 52.015625 19 33.9375 17.09375 26.40625 
C 15.296875 19.5 14.5 16.375 11.5 10.34375 
C 10.796875 9.15625 8.203125 4.734375 6.796875 3.421875 
C 4.09375 0.921875 3.09375 -0.890625 3.09375 -1.390625 
C 3.09375 -1.59375 3.296875 -2 4 -2 
C 4.40625 -2 6.5 -1.59375 9.09375 0.078125 
C 10.796875 1.0625 11 1.25 13.296875 3.609375 
C 18.296875 3.609375 21.796875 2.703125 28.09375 0.90625 
C 33.203125 -0.5 38.296875 -2 43.40625 -2 
C 51.5 -2 59.703125 4.125 62.90625 8.53125 
C 64.90625 11.234375 65.5 13.75 65.5 14.046875 
C 65.5 14.75 64.90625 14.75 64.796875 14.75 
C 63.203125 14.75 60.796875 13.65625 59.09375 12.4375 
C 56.40625 10.734375 56.203125 10.140625 55.59375 8.421875 
C 55.09375 6.8125 54.5 6.015625 54.09375 5.40625 
C 53.296875 4.203125 53.203125 4.203125 51.703125 4.203125 
C 46.90625 4.203125 41.90625 5.71875 35.296875 7.515625 
C 32.5 8.3125 27 9.9375 22 9.9375 
C 20.703125 9.9375 19.296875 9.828125 18 9.53125 
z
" id="CMSY10-76"/>
      <path d="M 42.90625 71.28125 
C 42.90625 71.390625 43.5 72.90625 43.5 73.09375 
C 43.5 74.296875 42.5 75 41.703125 75 
C 41.203125 75 40.296875 75 39.5 72.796875 
L 6 -21.296875 
C 6 -21.40625 5.40625 -22.890625 5.40625 -23.09375 
C 5.40625 -24.296875 6.40625 -25 7.203125 -25 
C 7.796875 -25 8.703125 -24.890625 9.40625 -22.796875 
z
" id="CMMI12-61"/>
      <path d="M 14.40625 2.1875 
C 16.90625 -0.09375 20.59375 -1 24 -1 
C 30.40625 -1 34.796875 3.25 37.09375 6.328125 
C 38.09375 1.078125 42.296875 -1 45.796875 -1 
C 48.796875 -1 51.203125 0.78125 53 4.328125 
C 54.59375 7.703125 56 13.734375 56 14.109375 
C 56 14.609375 55.59375 15 55 15 
C 54.09375 15 54 14.5 53.59375 13.03125 
C 52.09375 7.203125 50.203125 1 46.09375 1 
C 43.203125 1 43 3.578125 43 5.59375 
C 43 7.875 43.90625 11.484375 44.59375 14.46875 
L 47.40625 25.234375 
C 47.796875 27.140625 48.90625 31.609375 49.40625 33.421875 
C 50 35.8125 51.09375 40.109375 51.09375 40.5 
C 51.09375 42 49.90625 43 48.40625 43 
C 47.5 43 45.40625 42.59375 44.59375 39.609375 
L 37.59375 11.875 
C 37.09375 9.875 37.09375 9.671875 35.796875 8.078125 
C 34.59375 6.390625 30.703125 1 24.40625 1 
C 18.796875 1 17 5.09375 17 9.765625 
C 17 12.671875 17.90625 16.15625 18.296875 17.859375 
L 22.796875 35.828125 
C 23.296875 37.71875 24.09375 40.90625 24.09375 41.515625 
C 24.09375 43.109375 22.796875 44 21.5 44 
C 20.59375 44 18.40625 43.703125 17.59375 40.5 
L 3.09375 -17.296875 
C 3 -17.796875 2.796875 -18.390625 2.796875 -19 
C 2.796875 -20.5 4 -21.5 5.5 -21.5 
C 8.40625 -21.5 9 -19.1875 9.703125 -16.40625 
z
" id="CMMI12-22"/>
      <path d="M 50.59375 23.03125 
C 47.09375 9.078125 35.5 0.890625 26.09375 0.890625 
C 18.90625 0.890625 14 5.671875 14 13.921875 
C 14 14.3125 14 17.296875 15.09375 21.671875 
L 24.90625 60.734375 
C 25.796875 64.109375 26 65.109375 33.09375 65.109375 
C 34.90625 65.109375 35.90625 65.109375 35.90625 66.90625 
C 35.90625 68 35 68 34.40625 68 
C 32.59375 68 30.5 68 28.59375 68 
L 16.796875 68 
C 14.90625 68 12.796875 68 10.90625 68 
C 10.203125 68 9 68 9 66.109375 
C 9 65.109375 9.703125 65.109375 11.59375 65.109375 
C 17.59375 65.109375 17.59375 64.3125 17.59375 63.21875 
C 17.59375 62.625 16.90625 59.75 16.40625 58.046875 
L 7.703125 23.25 
C 7.40625 22.15625 6.796875 19.46875 6.796875 16.796875 
C 6.796875 5.84375 14.703125 -2 25.59375 -2 
C 35.703125 -2 46.90625 6 52 18.703125 
C 52.703125 20.390625 53.59375 23.90625 54.203125 26.59375 
C 55.203125 30.203125 57.296875 39 58 41.59375 
L 61.796875 56.609375 
C 63.09375 61.8125 63.90625 65.109375 72.703125 65.109375 
C 73.5 65.203125 73.90625 66 73.90625 66.90625 
C 73.90625 68 73 68 72.59375 68 
C 71.203125 68 69.40625 68 68 68 
L 63.296875 68 
C 57.09375 68 53.90625 68 53.796875 68 
C 53.203125 68 52 68 52 66.109375 
C 52 65.109375 52.796875 65.109375 53.5 65.109375 
C 59.5 65.109375 59.90625 62.8125 59.90625 61.015625 
C 59.90625 60.125 59.90625 59.8125 59.5 58.421875 
z
" id="CMMI12-85"/>
      <path d="M 20.59375 29.234375 
C 20.796875 29.84375 23.296875 34.828125 27 38.015625 
C 29.59375 40.40625 33 42.015625 36.90625 42.015625 
C 40.90625 42.015625 42.296875 39.015625 42.296875 35.03125 
C 42.296875 34.421875 42.296875 32.4375 41.09375 27.734375 
L 38.59375 17.46875 
C 37.796875 14.46875 35.90625 7.078125 35.703125 5.984375 
C 35.296875 4.484375 34.703125 1.890625 34.703125 1.5 
C 34.703125 0.09375 35.796875 -1 37.296875 -1 
C 40.296875 -1 40.796875 1.296875 41.703125 4.890625 
L 47.703125 28.734375 
C 47.90625 29.53125 53.09375 42.015625 64.09375 42.015625 
C 68.09375 42.015625 69.5 39.015625 69.5 35.03125 
C 69.5 29.4375 65.59375 18.5625 63.40625 12.578125 
C 62.5 10.171875 62 8.875 62 7.078125 
C 62 2.59375 65.09375 -1 69.90625 -1 
C 79.203125 -1 82.703125 13.671875 82.703125 14.265625 
C 82.703125 14.765625 82.296875 15.171875 81.703125 15.171875 
C 80.796875 15.171875 80.703125 14.875 80.203125 13.171875 
C 77.90625 5.1875 74.203125 1 70.203125 1 
C 69.203125 1 67.59375 1 67.59375 4.203125 
C 67.59375 6.8125 68.796875 10 69.203125 11.09375 
C 71 15.90625 75.5 27.703125 75.5 33.515625 
C 75.5 39.5 72 44 64.40625 44 
C 57.703125 44 52.296875 40.21875 48.296875 34.328125 
C 48 39.71875 44.703125 44 37.203125 44 
C 28.296875 44 23.59375 37.734375 21.796875 35.234375 
C 21.5 40.90625 17.40625 44 13 44 
C 10.09375 44 7.796875 42.609375 5.90625 38.8125 
C 4.09375 35.21875 2.703125 29.140625 2.703125 28.734375 
C 2.703125 28.34375 3.09375 27.84375 3.796875 27.84375 
C 4.59375 27.84375 4.703125 27.9375 5.296875 30.234375 
C 6.796875 36.125 8.703125 42.015625 12.703125 42.015625 
C 15 42.015625 15.796875 40.40625 15.796875 37.421875 
C 15.796875 35.21875 14.796875 31.328125 14.09375 28.234375 
L 11.296875 17.46875 
C 10.90625 15.5625 9.796875 11.078125 9.296875 9.28125 
C 8.59375 6.6875 7.5 2 7.5 1.5 
C 7.5 0.09375 8.59375 -1 10.09375 -1 
C 11.296875 -1 12.703125 -0.40625 13.5 1.09375 
C 13.703125 1.59375 14.59375 5.09375 15.09375 7.078125 
L 17.296875 16.0625 
z
" id="CMMI12-109"/>
     </defs>
     <g transform="translate(40.576557 242.881062)rotate(-90)scale(0.14 -0.14)">
      <use transform="translate(0 24.62935)scale(0.996264)" xlink:href="#CMMI12-64"/>
      <use transform="translate(56.915564 24.62935)scale(0.996264)" xlink:href="#CMSY10-76"/>
      <use transform="translate(125.630372 24.62935)scale(0.996264)" xlink:href="#CMMI12-61"/>
      <use transform="translate(174.405291 24.62935)scale(0.996264)" xlink:href="#CMMI12-64"/>
      <use transform="translate(231.320856 24.62935)scale(0.996264)" xlink:href="#CMMI12-22"/>
      <use transform="translate(290.012277 60.782989)scale(0.697382)" xlink:href="#CMMI12-85"/>
      <use transform="translate(290.012277 0)scale(0.697382)" xlink:href="#CMMI12-109"/>
      <path d="M 290.012277 116.805753 
L 344.171317 116.805753 
L 344.171317 119.595204 
L 290.012277 119.595204 
L 290.012277 116.805753 
z
"/>
     </g>
    </g>
   </g>
   <g id="line2d_27">
    <path clip-path="url(#pa7d16c135d)" d="M 92.290909 70.069473 
L 92.426725 218.677453 
L 92.562541 218.677453 
L 92.834173 219.164887 
L 93.241621 220.625406 
L 93.920701 224.133149 
L 95.143045 231.980839 
L 98.266813 254.02713 
L 105.46506 306.407877 
L 113.070756 361.981317 
L 113.61402 364.23243 
L 114.021468 365.139533 
L 114.428916 365.638856 
L 114.97218 365.9224 
L 115.515444 365.94915 
L 116.33034 365.741098 
L 117.824315 365.08009 
L 121.219715 363.558939 
L 123.800219 362.64173 
L 125.022563 362.17629 
L 126.652355 360.930361 
L 128.010515 360.157005 
L 129.232859 359.711181 
L 130.726835 359.229691 
L 132.89989 358.207268 
L 137.65345 355.913356 
L 140.233954 354.944432 
L 142.950274 354.175237 
L 145.666594 353.624793 
L 148.111281 353.359676 
L 150.827601 353.302611 
L 156.124425 353.482723 
L 158.297481 353.542761 
L 158.433297 353.135575 
L 158.840745 348.849127 
L 159.655641 336.281053 
L 161.013801 313.281887 
L 161.149617 312.802775 
L 161.557065 308.845642 
L 162.371961 304.754761 
L 162.779409 303.710939 
L 163.186857 303.324558 
L 163.594304 303.45355 
L 164.001752 303.750171 
L 164.545016 304.492022 
L 164.952464 305.062083 
L 165.903176 305.805123 
L 167.397152 306.573723 
L 180.978751 312.929984 
L 185.732311 315.239352 
L 186.954655 315.932459 
L 188.176999 316.374122 
L 189.535159 316.608328 
L 191.029135 316.636861 
L 192.930559 316.436537 
L 195.375246 315.938998 
L 198.906462 314.963535 
L 204.339102 313.209367 
L 216.155093 309.060232 
L 225.254765 305.687425 
L 225.662212 305.290345 
L 226.477108 304.083648 
L 228.378532 301.19887 
L 233.53954 294.338531 
L 238.564732 287.158388 
L 243.725739 279.373707 
L 248.750931 271.389298 
L 253.911939 262.75993 
L 259.208762 253.434482 
L 264.233954 244.132811 
L 269.259146 234.375211 
L 274.555969 223.579733 
L 279.852793 212.243916 
L 285.013801 200.664383 
L 290.310624 188.215195 
L 295.607448 175.178708 
L 300.768456 161.897316 
L 306.065279 147.656511 
L 311.362103 132.785013 
L 316.658927 117.269151 
L 322.227382 100.248782 
L 327.795838 82.487751 
L 332.14195 68.5186 
L 332.413582 68.169075 
L 332.956846 67.380263 
L 333.364294 67.099692 
L 333.771742 66.96 
L 334.043373 67.302987 
L 334.450821 67.166862 
L 336.623877 67.291099 
L 339.068565 67.852837 
L 342.463965 68.585771 
L 345.587733 69.024462 
L 346.402629 69.107088 
L 346.674261 70.032024 
L 347.081709 70.48082 
L 348.439869 72.064981 
L 349.254765 72.569654 
L 350.06966 72.819315 
L 350.884556 72.822882 
L 351.699452 72.588676 
L 352.650164 72.045365 
L 353.736692 71.147178 
L 355.366484 69.741347 
L 356.588828 69.248563 
L 357.53954 69.130865 
L 358.8977 69.220625 
L 365.416867 70.003491 
L 370.306243 70.108706 
L 388.36977 70.156855 
L 462.525301 70.166366 
L 463.068565 70.51292 
L 464.019277 70.871956 
L 465.105805 71.01997 
L 466.463965 70.946855 
L 473.526396 70.183604 
L 479.909748 70.098006 
L 495.800219 70.069473 
L 497.837459 70.069473 
L 497.837459 70.069473 
" style="fill:none;stroke:#bf00bf;stroke-linecap:square;stroke-width:1.5;"/>
   </g>
   <g id="line2d_28">
    <path clip-path="url(#pa7d16c135d)" d="M 92.290909 70.069473 
L 92.426725 218.677453 
L 92.562541 218.677453 
L 92.834173 219.066211 
L 93.241621 220.530297 
L 93.920701 224.291862 
L 95.414677 234.327062 
L 100.439869 270.256905 
L 108.045564 326.144205 
L 112.663308 359.973326 
L 113.342388 363.210007 
L 113.885652 364.735914 
L 114.2931 365.352934 
L 114.836364 365.738126 
L 115.379628 365.815997 
L 116.058708 365.675117 
L 117.281051 365.138939 
L 121.627163 363.047133 
L 125.565827 361.345869 
L 127.059803 360.344846 
L 128.417963 359.709992 
L 129.776123 359.3462 
L 130.998467 358.941392 
L 133.57897 357.783438 
L 137.381818 356.100602 
L 140.098138 355.149511 
L 142.950274 354.404093 
L 145.80241 353.860782 
L 148.247097 353.623009 
L 151.235049 353.589127 
L 158.569113 353.756162 
L 158.840745 353.274078 
L 159.248193 351.766004 
L 159.791457 348.419352 
L 160.470537 342.514266 
L 161.421249 333.99249 
L 161.557065 333.720834 
L 162.643593 329.426658 
L 163.186857 328.26276 
L 163.865936 327.475733 
L 164.273384 327.337824 
L 164.680832 327.473949 
L 177.9908 333.701218 
L 186.275575 337.430089 
L 187.497919 337.638141 
L 189.127711 337.670834 
L 191.164951 337.46635 
L 193.745455 336.978321 
L 197.548302 336.018314 
L 203.116758 334.396109 
L 212.895509 331.32884 
L 224.304053 327.567275 
L 225.118949 327.273626 
L 225.798028 326.353445 
L 227.42782 324.035755 
L 232.317196 317.656906 
L 237.342388 310.61051 
L 242.367579 303.1813 
L 247.528587 295.142203 
L 252.417963 287.130449 
L 257.57897 278.24072 
L 262.739978 268.891495 
L 267.357722 260.124219 
L 272.790361 249.306746 
L 277.679737 239.093217 
L 282.704929 228.109899 
L 287.865936 216.302103 
L 293.026944 203.945052 
L 298.323768 190.676737 
L 303.620591 176.799724 
L 308.917415 162.299747 
L 314.214239 147.163132 
L 319.646878 130.963079 
L 325.215334 113.6342 
L 330.78379 95.559308 
L 332.549398 90.092913 
L 333.092662 89.147766 
L 333.635926 88.624071 
L 333.771742 88.547984 
L 334.043373 88.262657 
L 334.315005 88.108104 
L 334.722453 87.867954 
L 335.401533 87.715779 
L 336.080613 87.790083 
L 337.031325 88.147337 
L 338.525301 88.995591 
L 341.649069 90.806231 
L 343.686309 91.697879 
L 345.723549 92.350565 
L 346.945893 92.770828 
L 349.933844 94.519647 
L 350.74874 94.664688 
L 351.563636 94.576118 
L 352.378532 94.253936 
L 353.329244 93.614922 
L 354.551588 92.488473 
L 355.773932 91.381641 
L 356.588828 91.005366 
L 357.403724 90.872213 
L 358.490252 90.926306 
L 365.416867 91.76505 
L 371.256955 91.834004 
L 402.902081 91.861942 
L 463.204381 91.772183 
L 464.426725 91.392341 
L 468.772837 89.81353 
L 470.674261 89.484809 
L 473.118949 89.31599 
L 478.82322 89.252386 
L 497.837459 89.245253 
L 497.837459 89.245253 
" style="fill:none;stroke:#00bfbf;stroke-linecap:square;stroke-width:1.5;"/>
   </g>
   <g id="line2d_29">
    <path clip-path="url(#pa7d16c135d)" d="M 92.290909 70.069473 
L 92.426725 218.677453 
L 92.562541 218.677453 
L 92.834173 219.406821 
L 93.241621 221.567581 
L 94.328149 229.346317 
L 98.674261 260.794143 
L 106.14414 315.390337 
L 112.25586 360.215259 
L 112.93494 362.654214 
L 113.61402 364.368555 
L 114.157284 365.257825 
L 114.700548 365.708405 
L 115.243812 365.849285 
L 115.922892 365.768442 
L 117.009419 365.367201 
L 122.713691 362.928247 
L 126.109091 361.661512 
L 127.467251 361.096802 
L 128.961227 360.719932 
L 132.084995 360.08924 
L 138.739978 358.250067 
L 141.999562 357.642558 
L 147.432202 356.91319 
L 150.284337 356.84483 
L 155.852793 357.002355 
L 158.840745 356.988088 
L 159.248193 356.607652 
L 159.655641 355.783769 
L 160.063089 354.432031 
L 160.606353 351.843875 
L 161.964513 344.639954 
L 162.779409 341.889518 
L 163.322673 340.78328 
L 163.865936 340.036673 
L 164.273384 339.809006 
L 164.680832 339.854183 
L 165.76736 340.253047 
L 169.84184 342.154634 
L 185.596495 349.483386 
L 186.683023 349.822212 
L 188.041183 349.989842 
L 189.670975 349.963687 
L 191.844031 349.691437 
L 194.967798 349.032212 
L 199.585542 347.788066 
L 207.598686 345.359217 
L 218.328149 341.909728 
L 224.983133 339.689525 
L 225.662212 338.714062 
L 227.292004 336.238848 
L 237.749836 322.01112 
L 242.639211 314.762617 
L 247.528587 307.142 
L 252.553779 298.908523 
L 257.850602 289.772699 
L 262.739978 280.910314 
L 267.357722 272.148387 
L 273.061993 260.783443 
L 278.087185 250.260215 
L 283.248193 238.93807 
L 288.4092 227.080343 
L 293.706024 214.337506 
L 299.002848 200.999642 
L 304.299671 187.050703 
L 309.596495 172.47761 
L 315.029135 156.867233 
L 320.461774 140.570882 
L 325.894414 123.575479 
L 331.46287 105.416773 
L 332.685214 101.678391 
L 333.228478 100.76891 
L 333.771742 100.302281 
L 334.043373 100.143567 
L 334.450821 99.745298 
L 335.265717 99.440949 
L 335.944797 99.473048 
L 336.759693 99.756592 
L 337.982037 100.45505 
L 342.192333 103.0652 
L 344.093757 103.908105 
L 346.130997 104.570302 
L 346.810077 104.781325 
L 347.353341 105.205155 
L 348.847317 106.098586 
L 349.933844 106.600881 
L 350.74874 106.750678 
L 351.563636 106.667458 
L 352.378532 106.348842 
L 353.329244 105.711017 
L 354.551588 104.579813 
L 355.909748 103.299406 
L 356.724644 102.936209 
L 357.53954 102.826239 
L 358.761884 102.936209 
L 364.058708 103.741664 
L 367.318291 103.849256 
L 386.33253 103.905727 
L 463.340197 103.796946 
L 464.562541 103.371927 
L 468.501205 101.802627 
L 470.266813 101.435268 
L 472.439869 101.233161 
L 475.971084 101.154696 
L 497.973275 101.133891 
L 497.973275 101.133891 
" style="fill:none;stroke:#ff0000;stroke-linecap:square;stroke-width:1.5;"/>
   </g>
   <g id="line2d_30">
    <path clip-path="url(#pa7d16c135d)" d="M 92.290909 70.069473 
L 92.426725 218.677453 
L 93.105805 227.584421 
L 94.056517 236.771366 
L 95.414677 247.505618 
L 100.032421 281.106476 
L 107.638116 337.344491 
L 111.848412 368.264462 
L 112.527492 368.652032 
L 113.61402 368.990858 
L 114.700548 369.125794 
L 116.194524 369.032468 
L 126.652355 367.950007 
L 129.776123 367.838849 
L 133.850602 367.621287 
L 141.456298 367.297321 
L 144.036802 367.121369 
L 147.568018 366.916885 
L 151.506681 366.921046 
L 158.976561 366.952551 
L 159.384009 366.715967 
L 159.791457 366.161362 
L 160.198905 365.232265 
L 160.742169 363.428164 
L 162.371961 357.2217 
L 162.915225 356.140429 
L 163.322673 355.503198 
L 163.73012 354.949781 
L 164.137568 354.775613 
L 166.038992 355.15486 
L 168.076232 356.06018 
L 186.139759 364.399466 
L 187.497919 364.59325 
L 189.127711 364.59325 
L 191.164951 364.366772 
L 193.881271 363.831189 
L 197.95575 362.774883 
L 205.697262 360.457788 
L 219.957941 355.849751 
L 225.662212 353.839383 
L 226.74874 353.246734 
L 228.1069 352.177351 
L 229.46506 350.717426 
L 231.638116 347.994334 
L 235.169332 343.169924 
L 240.058708 336.087268 
L 245.083899 328.413152 
L 250.109091 320.336011 
L 255.270099 311.607373 
L 260.431106 302.423994 
L 265.456298 293.031375 
L 270.617306 282.905227 
L 275.642497 272.565084 
L 280.667689 261.736318 
L 285.828697 250.091397 
L 291.12552 237.573255 
L 296.422344 224.465437 
L 301.719168 210.752487 
L 307.015991 196.420139 
L 312.312815 181.454721 
L 317.745455 165.432997 
L 323.31391 148.290175 
L 328.882366 130.404313 
L 332.82103 117.833267 
L 333.50011 116.730596 
L 334.586637 115.646946 
L 335.265717 115.305148 
L 335.944797 115.204095 
L 336.759693 115.311687 
L 337.846221 115.697473 
L 339.883461 116.719896 
L 342.735597 118.081145 
L 344.908653 118.859256 
L 346.945893 119.56663 
L 347.896605 120.412507 
L 349.254765 121.483673 
L 350.205476 121.944952 
L 351.020372 122.092966 
L 351.835268 122.002612 
L 352.650164 121.682214 
L 353.600876 121.057466 
L 354.959036 119.840663 
L 355.909748 119.042936 
L 356.86046 118.598301 
L 357.811172 118.409271 
L 359.033516 118.418782 
L 361.206572 118.72967 
L 364.466156 119.149934 
L 367.725739 119.324102 
L 375.603067 119.421589 
L 406.161665 119.444772 
L 463.068565 119.338368 
L 464.426725 118.822996 
L 469.451917 116.647375 
L 471.217525 116.245539 
L 473.390581 115.985772 
L 476.78598 115.839542 
L 484.663308 115.777127 
L 497.837459 115.779505 
L 497.837459 115.779505 
" style="fill:none;stroke:#008000;stroke-linecap:square;stroke-width:1.5;"/>
   </g>
   <g id="line2d_31">
    <path clip-path="url(#pa7d16c135d)" d="M 92.290909 70.069473 
L 92.426725 218.677453 
L 93.377437 232.139553 
L 94.192333 239.546769 
L 95.822125 251.830704 
L 107.366484 336.594318 
L 111.712596 368.494507 
L 112.93494 369.274402 
L 113.342388 369.353461 
L 118.095947 369.096667 
L 145.259146 367.542822 
L 150.827601 367.505967 
L 158.569113 367.496456 
L 159.112377 367.254522 
L 159.384009 366.97395 
L 159.791457 366.098352 
L 160.334721 364.177148 
L 161.013801 360.677727 
L 161.692881 357.127186 
L 162.371961 354.70547 
L 162.779409 353.898231 
L 163.186857 353.54395 
L 163.594304 353.338871 
L 164.001752 353.420903 
L 164.545016 353.664025 
L 165.08828 353.645598 
L 165.903176 353.904176 
L 168.755312 355.209548 
L 185.732311 363.06556 
L 187.226287 363.251618 
L 188.991895 363.242107 
L 191.164951 362.985312 
L 194.017087 362.40158 
L 198.091566 361.327441 
L 204.339102 359.462114 
L 216.562541 355.54778 
L 225.390581 352.543521 
L 226.612924 351.921745 
L 227.835268 351.058036 
L 228.921796 349.926237 
L 230.959036 347.436162 
L 234.082804 343.231151 
L 238.428916 337.014582 
L 243.589923 329.232279 
L 248.615115 321.249653 
L 253.776123 312.620879 
L 258.801314 303.786432 
L 263.962322 294.253527 
L 269.12333 284.238538 
L 274.148521 274.010148 
L 279.173713 263.296702 
L 284.470537 251.462751 
L 289.631544 239.383894 
L 294.792552 226.74865 
L 299.95356 213.54275 
L 305.250383 199.382193 
L 310.683023 184.203968 
L 315.979847 168.754088 
L 321.412486 152.226503 
L 326.845126 134.995705 
L 332.685214 116.324004 
L 333.364294 115.29742 
L 334.179189 114.57043 
L 334.858269 114.260137 
L 335.673165 114.140656 
L 336.623877 114.258948 
L 337.982037 114.702988 
L 344.229573 117.082499 
L 346.674261 117.765502 
L 349.118949 120.253199 
L 349.933844 120.675246 
L 350.74874 120.84347 
L 351.563636 120.762627 
L 352.378532 120.447578 
L 353.329244 119.826397 
L 354.551588 118.744531 
L 355.638116 117.795818 
L 356.588828 117.342861 
L 357.53954 117.133026 
L 358.626068 117.108654 
L 360.391676 117.326811 
L 364.33034 117.878444 
L 367.589923 118.068067 
L 374.516539 118.171499 
L 406.840745 118.202409 
L 462.661117 118.132266 
L 464.155093 117.483146 
L 468.908653 115.300392 
L 470.674261 114.828414 
L 472.711501 114.521687 
L 475.563636 114.340385 
L 481.267908 114.25122 
L 494.985323 114.241709 
L 498.109091 114.242304 
L 498.109091 114.242304 
" style="fill:none;stroke:#0000ff;stroke-linecap:square;stroke-width:1.5;"/>
   </g>
   <g id="line2d_32">
    <path clip-path="url(#pa7d16c135d)" d="M 92.290909 70.069473 
L 92.426725 218.677453 
L 92.969989 223.506023 
L 94.463965 233.69102 
L 97.587733 255.71175 
L 104.921796 309.153558 
L 112.527492 364.608111 
L 113.206572 367.627825 
L 113.478204 367.991023 
L 114.157284 368.284673 
L 114.97218 368.368488 
L 116.466156 368.239496 
L 124.886747 367.017344 
L 125.158379 366.738555 
L 127.603067 365.516403 
L 128.961227 365.087223 
L 130.591019 364.618811 
L 133.307338 363.565478 
L 137.517634 361.928412 
L 140.505586 361.034981 
L 143.493538 360.388239 
L 146.345674 359.982242 
L 148.926177 359.825312 
L 152.593209 359.853845 
L 158.433297 359.954304 
L 158.704929 359.579217 
L 159.112377 358.400459 
L 159.519825 356.480444 
L 160.063089 352.809232 
L 160.877985 345.616011 
L 161.285433 341.753393 
L 161.964513 337.27732 
L 162.507777 334.962008 
L 162.915225 333.97109 
L 163.322673 333.575199 
L 163.73012 333.559149 
L 164.137568 333.790383 
L 166.038992 335.454198 
L 167.940416 336.408261 
L 181.522015 342.76571 
L 185.596495 344.566839 
L 187.769551 344.817095 
L 189.535159 344.76954 
L 191.708215 344.480646 
L 194.831982 343.80775 
L 199.585542 342.512482 
L 208.413582 339.810195 
L 223.217525 334.965575 
L 225.390581 334.166658 
L 226.205476 333.440857 
L 228.242716 331.237298 
L 231.230668 327.38419 
L 235.440964 321.579562 
L 240.33034 314.461835 
L 245.491347 306.544596 
L 250.516539 298.427034 
L 255.677547 289.656191 
L 260.838554 280.430013 
L 265.863746 270.993406 
L 270.753122 261.370148 
L 275.778313 251.010983 
L 280.803505 240.163195 
L 285.964513 228.498657 
L 290.989704 216.617746 
L 296.150712 203.86421 
L 301.583352 189.819567 
L 307.015991 175.124615 
L 312.584447 159.37098 
L 318.152903 142.902244 
L 323.585542 126.132725 
L 329.153998 108.210009 
L 332.277766 98.185509 
L 332.956846 97.15298 
L 333.50011 96.665546 
L 333.771742 96.423612 
L 334.043373 96.323153 
L 334.450821 96.289271 
L 335.401533 96.225667 
L 336.488061 96.393296 
L 338.117853 96.922341 
L 342.328149 98.375727 
L 344.772837 98.950543 
L 346.538445 99.320874 
L 348.168237 101.123191 
L 348.983133 101.775877 
L 349.798028 102.174147 
L 350.612924 102.325727 
L 351.42782 102.231807 
L 352.242716 101.904869 
L 353.193428 101.268233 
L 354.415772 100.161995 
L 355.5023 99.226359 
L 356.588828 98.794801 
L 357.53954 98.661054 
L 358.761884 98.713959 
L 366.775027 99.520603 
L 373.973275 99.600257 
L 404.531873 99.623439 
L 462.525301 99.561619 
L 465.513253 98.387021 
L 468.093757 97.441874 
L 469.995181 96.995456 
L 472.032421 96.739256 
L 475.020372 96.597187 
L 483.033516 96.531799 
L 497.973275 96.532988 
L 497.973275 96.532988 
" style="fill:none;stroke:#000000;stroke-linecap:square;stroke-width:1.5;"/>
   </g>
   <g id="patch_3">
    <path d="M 72 384.48 
L 72 51.84 
" style="fill:none;stroke:#000000;stroke-linecap:square;stroke-linejoin:miter;stroke-width:0.8;"/>
   </g>
   <g id="patch_4">
    <path d="M 518.4 384.48 
L 518.4 51.84 
" style="fill:none;stroke:#000000;stroke-linecap:square;stroke-linejoin:miter;stroke-width:0.8;"/>
   </g>
   <g id="patch_5">
    <path d="M 72 384.48 
L 518.4 384.48 
" style="fill:none;stroke:#000000;stroke-linecap:square;stroke-linejoin:miter;stroke-width:0.8;"/>
   </g>
   <g id="patch_6">
    <path d="M 72 51.84 
L 518.4 51.84 
" style="fill:none;stroke:#000000;stroke-linecap:square;stroke-linejoin:miter;stroke-width:0.8;"/>
   </g>
   <g id="legend_1">
    <g id="patch_7">
     <path d="M 443.185706 379.48 
L 511.4 379.48 
Q 513.4 379.48 513.4 377.48 
L 513.4 276.556537 
Q 513.4 274.556537 511.4 274.556537 
L 443.185706 274.556537 
Q 441.185706 274.556537 441.185706 276.556537 
L 441.185706 377.48 
Q 441.185706 379.48 443.185706 379.48 
z
" style="fill:#ffffff;opacity:0.8;stroke:#cccccc;stroke-linejoin:miter;"/>
    </g>
    <g id="line2d_33">
     <path d="M 445.185706 285.106602 
L 465.185706 285.106602 
" style="fill:none;stroke:#bf00bf;stroke-linecap:square;stroke-width:1.5;"/>
    </g>
    <g id="line2d_34"/>
    <g id="text_16">
     <!-- $\partial \mathcal{L}/ \partial \mu^{\overline{U}}_{1}$ -->
     <g transform="translate(473.185706 288.606602)scale(0.1 -0.1)">
      <use transform="translate(0 24.740171)scale(0.996264)" xlink:href="#CMMI12-64"/>
      <use transform="translate(56.915564 24.740171)scale(0.996264)" xlink:href="#CMSY10-76"/>
      <use transform="translate(125.630372 24.740171)scale(0.996264)" xlink:href="#CMMI12-61"/>
      <use transform="translate(174.405291 24.740171)scale(0.996264)" xlink:href="#CMMI12-64"/>
      <use transform="translate(231.320856 24.740171)scale(0.996264)" xlink:href="#CMMI12-22"/>
      <use transform="translate(290.012277 60.89381)scale(0.697382)" xlink:href="#CMMI12-85"/>
      <use transform="translate(290.012277 0)scale(0.697382)" xlink:href="#CMR17-49"/>
      <path d="M 290.012277 116.916574 
L 344.171317 116.916574 
L 344.171317 119.706025 
L 290.012277 119.706025 
L 290.012277 116.916574 
z
"/>
     </g>
    </g>
    <g id="line2d_35">
     <path d="M 445.185706 302.093846 
L 465.185706 302.093846 
" style="fill:none;stroke:#00bfbf;stroke-linecap:square;stroke-width:1.5;"/>
    </g>
    <g id="line2d_36"/>
    <g id="text_17">
     <!-- $\partial \mathcal{L}/ \partial \mu^{\overline{U}}_{2}$ -->
     <g transform="translate(473.185706 305.593846)scale(0.1 -0.1)">
      <use transform="translate(0 24.740171)scale(0.996264)" xlink:href="#CMMI12-64"/>
      <use transform="translate(56.915564 24.740171)scale(0.996264)" xlink:href="#CMSY10-76"/>
      <use transform="translate(125.630372 24.740171)scale(0.996264)" xlink:href="#CMMI12-61"/>
      <use transform="translate(174.405291 24.740171)scale(0.996264)" xlink:href="#CMMI12-64"/>
      <use transform="translate(231.320856 24.740171)scale(0.996264)" xlink:href="#CMMI12-22"/>
      <use transform="translate(290.012277 60.89381)scale(0.697382)" xlink:href="#CMMI12-85"/>
      <use transform="translate(290.012277 0)scale(0.697382)" xlink:href="#CMR17-50"/>
      <path d="M 290.012277 116.916574 
L 344.171317 116.916574 
L 344.171317 119.706025 
L 290.012277 119.706025 
L 290.012277 116.916574 
z
"/>
     </g>
    </g>
    <g id="line2d_37">
     <path d="M 445.185706 319.08109 
L 465.185706 319.08109 
" style="fill:none;stroke:#ff0000;stroke-linecap:square;stroke-width:1.5;"/>
    </g>
    <g id="line2d_38"/>
    <g id="text_18">
     <!-- $\partial \mathcal{L}/ \partial \mu^{\overline{U}}_{3}$ -->
     <g transform="translate(473.185706 322.58109)scale(0.1 -0.1)">
      <use transform="translate(0 24.740171)scale(0.996264)" xlink:href="#CMMI12-64"/>
      <use transform="translate(56.915564 24.740171)scale(0.996264)" xlink:href="#CMSY10-76"/>
      <use transform="translate(125.630372 24.740171)scale(0.996264)" xlink:href="#CMMI12-61"/>
      <use transform="translate(174.405291 24.740171)scale(0.996264)" xlink:href="#CMMI12-64"/>
      <use transform="translate(231.320856 24.740171)scale(0.996264)" xlink:href="#CMMI12-22"/>
      <use transform="translate(290.012277 60.89381)scale(0.697382)" xlink:href="#CMMI12-85"/>
      <use transform="translate(290.012277 0)scale(0.697382)" xlink:href="#CMR17-51"/>
      <path d="M 290.012277 116.916574 
L 344.171317 116.916574 
L 344.171317 119.706025 
L 290.012277 119.706025 
L 290.012277 116.916574 
z
"/>
     </g>
    </g>
    <g id="line2d_39">
     <path d="M 445.185706 336.068334 
L 465.185706 336.068334 
" style="fill:none;stroke:#008000;stroke-linecap:square;stroke-width:1.5;"/>
    </g>
    <g id="line2d_40"/>
    <g id="text_19">
     <!-- $\partial \mathcal{L}/ \partial \mu^{\overline{U}}_{4}$ -->
     <g transform="translate(473.185706 339.568334)scale(0.1 -0.1)">
      <use transform="translate(0 24.740171)scale(0.996264)" xlink:href="#CMMI12-64"/>
      <use transform="translate(56.915564 24.740171)scale(0.996264)" xlink:href="#CMSY10-76"/>
      <use transform="translate(125.630372 24.740171)scale(0.996264)" xlink:href="#CMMI12-61"/>
      <use transform="translate(174.405291 24.740171)scale(0.996264)" xlink:href="#CMMI12-64"/>
      <use transform="translate(231.320856 24.740171)scale(0.996264)" xlink:href="#CMMI12-22"/>
      <use transform="translate(290.012277 60.89381)scale(0.697382)" xlink:href="#CMMI12-85"/>
      <use transform="translate(290.012277 0)scale(0.697382)" xlink:href="#CMR17-52"/>
      <path d="M 290.012277 116.916574 
L 344.171317 116.916574 
L 344.171317 119.706025 
L 290.012277 119.706025 
L 290.012277 116.916574 
z
"/>
     </g>
    </g>
    <g id="line2d_41">
     <path d="M 445.185706 353.055578 
L 465.185706 353.055578 
" style="fill:none;stroke:#0000ff;stroke-linecap:square;stroke-width:1.5;"/>
    </g>
    <g id="line2d_42"/>
    <g id="text_20">
     <!-- $\partial \mathcal{L}/ \partial \mu^{\overline{U}}_{5}$ -->
     <g transform="translate(473.185706 356.555578)scale(0.1 -0.1)">
      <use transform="translate(0 24.740171)scale(0.996264)" xlink:href="#CMMI12-64"/>
      <use transform="translate(56.915564 24.740171)scale(0.996264)" xlink:href="#CMSY10-76"/>
      <use transform="translate(125.630372 24.740171)scale(0.996264)" xlink:href="#CMMI12-61"/>
      <use transform="translate(174.405291 24.740171)scale(0.996264)" xlink:href="#CMMI12-64"/>
      <use transform="translate(231.320856 24.740171)scale(0.996264)" xlink:href="#CMMI12-22"/>
      <use transform="translate(290.012277 60.89381)scale(0.697382)" xlink:href="#CMMI12-85"/>
      <use transform="translate(290.012277 0)scale(0.697382)" xlink:href="#CMR17-53"/>
      <path d="M 290.012277 116.916574 
L 344.171317 116.916574 
L 344.171317 119.706025 
L 290.012277 119.706025 
L 290.012277 116.916574 
z
"/>
     </g>
    </g>
    <g id="line2d_43">
     <path d="M 445.185706 370.042822 
L 465.185706 370.042822 
" style="fill:none;stroke:#000000;stroke-linecap:square;stroke-width:1.5;"/>
    </g>
    <g id="line2d_44"/>
    <g id="text_21">
     <!-- $\partial \mathcal{L}/ \partial \mu^{\overline{U}}_{6}$ -->
     <defs>
      <path d="M 10.59375 34 
C 10.59375 57.65625 21.796875 63 28.296875 63 
C 30.40625 63 35.5 62.640625 37.5 59 
C 35.90625 59 32.90625 59 32.90625 55.515625 
C 32.90625 52.828125 35.09375 51.921875 36.5 51.921875 
C 37.40625 51.921875 40.09375 52.3125 40.09375 55.625 
C 40.09375 61.78125 35.09375 65.296875 28.203125 65.296875 
C 16.296875 65.296875 3.796875 52.96875 3.796875 31 
C 3.796875 3.953125 15.09375 -2 23.09375 -2 
C 32.796875 -2 42 6.671875 42 20.046875 
C 42 32.515625 33.90625 41.59375 23.703125 41.59375 
C 17.59375 41.59375 13.09375 37.609375 10.59375 30.625 
z
M 23.09375 0.390625 
C 10.796875 0.390625 10.796875 18.75 10.796875 22.4375 
C 10.796875 29.625 14.203125 40 23.5 40 
C 25.203125 40 30.09375 40 33.40625 33.125 
C 35.203125 29.21875 35.203125 25.140625 35.203125 20.140625 
C 35.203125 14.75 35.203125 10.78125 33.09375 6.78125 
C 30.90625 2.671875 27.703125 0.390625 23.09375 0.390625 
z
" id="CMR17-54"/>
     </defs>
     <g transform="translate(473.185706 373.542822)scale(0.1 -0.1)">
      <use transform="translate(0 24.740171)scale(0.996264)" xlink:href="#CMMI12-64"/>
      <use transform="translate(56.915564 24.740171)scale(0.996264)" xlink:href="#CMSY10-76"/>
      <use transform="translate(125.630372 24.740171)scale(0.996264)" xlink:href="#CMMI12-61"/>
      <use transform="translate(174.405291 24.740171)scale(0.996264)" xlink:href="#CMMI12-64"/>
      <use transform="translate(231.320856 24.740171)scale(0.996264)" xlink:href="#CMMI12-22"/>
      <use transform="translate(290.012277 60.89381)scale(0.697382)" xlink:href="#CMMI12-85"/>
      <use transform="translate(290.012277 0)scale(0.697382)" xlink:href="#CMR17-54"/>
      <path d="M 290.012277 116.916574 
L 344.171317 116.916574 
L 344.171317 119.706025 
L 290.012277 119.706025 
L 290.012277 116.916574 
z
"/>
     </g>
    </g>
   </g>
  </g>
 </g>
 <defs>
  <clipPath id="pa7d16c135d">
   <rect height="332.64" width="446.4" x="72" y="51.84"/>
  </clipPath>
 </defs>
</svg>
