<?xml version="1.0" encoding="utf-8" standalone="no"?>
<!DOCTYPE svg PUBLIC "-//W3C//DTD SVG 1.1//EN"
  "http://www.w3.org/Graphics/SVG/1.1/DTD/svg11.dtd">
<!-- Created with matplotlib (http://matplotlib.org/) -->
<svg height="432pt" version="1.1" viewBox="0 0 576 432" width="576pt" xmlns="http://www.w3.org/2000/svg" xmlns:xlink="http://www.w3.org/1999/xlink">
 <defs>
  <style type="text/css">
*{stroke-linecap:butt;stroke-linejoin:round;}
  </style>
 </defs>
 <g id="figure_1">
  <g id="patch_1">
   <path d="M 0 432 
L 576 432 
L 576 0 
L 0 0 
z
" style="fill:#ffffff;"/>
  </g>
  <g id="axes_1">
   <g id="patch_2">
    <path d="M 72 384.48 
L 518.4 384.48 
L 518.4 51.84 
L 72 51.84 
z
" style="fill:#ffffff;"/>
   </g>
   <g id="matplotlib.axis_1">
    <g id="xtick_1">
     <g id="line2d_1">
      <path clip-path="url(#p07d3094da3)" d="M 92.290909 384.48 
L 92.290909 51.84 
" style="fill:none;stroke:#b0b0b0;stroke-dasharray:5.12,1.28,0.8,1.28;stroke-dashoffset:0;stroke-width:0.8;"/>
     </g>
     <g id="line2d_2">
      <defs>
       <path d="M 0 0 
L 0 3.5 
" id="m3a7af6a8ed" style="stroke:#000000;stroke-width:0.8;"/>
      </defs>
      <g>
       <use style="stroke:#000000;stroke-width:0.8;" x="92.290909" xlink:href="#m3a7af6a8ed" y="384.48"/>
      </g>
     </g>
     <g id="text_1">
      <!-- $0$ -->
      <defs>
       <path d="M 42 31.640625 
C 42 37.75 41.90625 48.125 37.703125 56.109375 
C 34 63.109375 28.09375 65.59375 22.90625 65.59375 
C 18.09375 65.59375 12 63.40625 8.203125 56.203125 
C 4.203125 48.71875 3.796875 39.4375 3.796875 31.640625 
C 3.796875 25.953125 3.90625 17.28125 7 9.671875 
C 11.296875 -0.609375 19 -2 22.90625 -2 
C 27.5 -2 34.5 -0.109375 38.59375 9.375 
C 41.59375 16.28125 42 24.359375 42 31.640625 
z
M 22.90625 -0.40625 
C 16.5 -0.40625 12.703125 5.078125 11.296875 12.6875 
C 10.203125 18.5625 10.203125 27.15625 10.203125 32.75 
C 10.203125 40.4375 10.203125 46.828125 11.5 52.921875 
C 13.40625 61.390625 19 64 22.90625 64 
C 27 64 32.296875 61.296875 34.203125 53.125 
C 35.5 47.4375 35.59375 40.734375 35.59375 32.75 
C 35.59375 26.25 35.59375 18.265625 34.40625 12.375 
C 32.296875 1.484375 26.40625 -0.40625 22.90625 -0.40625 
z
" id="CMR17-48"/>
      </defs>
      <g transform="translate(89.800241 398.398498)scale(0.1 -0.1)">
       <use transform="scale(0.996264)" xlink:href="#CMR17-48"/>
      </g>
     </g>
    </g>
    <g id="xtick_2">
     <g id="line2d_3">
      <path clip-path="url(#p07d3094da3)" d="M 158.19188 384.48 
L 158.19188 51.84 
" style="fill:none;stroke:#b0b0b0;stroke-dasharray:5.12,1.28,0.8,1.28;stroke-dashoffset:0;stroke-width:0.8;"/>
     </g>
     <g id="line2d_4">
      <g>
       <use style="stroke:#000000;stroke-width:0.8;" x="158.19188" xlink:href="#m3a7af6a8ed" y="384.48"/>
      </g>
     </g>
     <g id="text_2">
      <!-- $500$ -->
      <defs>
       <path d="M 11.40625 57.6875 
C 12.40625 57.28125 16.5 56 20.703125 56 
C 30 56 35.09375 61.109375 38 64.0625 
C 38 64.953125 38 65.5 37.40625 65.5 
C 37.296875 65.5 37.09375 65.5 36.296875 65.046875 
C 32.796875 63.40625 28.703125 62.078125 23.703125 62.078125 
C 20.703125 62.078125 16.203125 62.484375 11.296875 64.671875 
C 10.203125 65.171875 10 65.171875 9.90625 65.171875 
C 9.40625 65.171875 9.296875 65.0625 9.296875 63.078125 
L 9.296875 34.421875 
C 9.296875 32.640625 9.296875 32.140625 10.296875 32.140625 
C 10.796875 32.140625 11 32.34375 11.5 33.03125 
C 14.703125 37.515625 19.09375 39.40625 24.09375 39.40625 
C 27.59375 39.40625 35.09375 37.21875 35.09375 20.140625 
C 35.09375 16.953125 35.09375 11.171875 32.09375 6.578125 
C 29.59375 2.484375 25.703125 0.390625 21.40625 0.390625 
C 14.796875 0.390625 8.09375 5 6.296875 12.71875 
C 6.703125 12.609375 7.5 12.421875 7.90625 12.421875 
C 9.203125 12.421875 11.703125 13.125 11.703125 16.21875 
C 11.703125 18.90625 9.796875 20 7.90625 20 
C 5.59375 20 4.09375 18.59375 4.09375 15.796875 
C 4.09375 7.09375 11 -2 21.59375 -2 
C 31.90625 -2 41.703125 6.875 41.703125 19.75 
C 41.703125 31.71875 33.90625 41 24.203125 41 
C 19.09375 41 14.796875 39.109375 11.40625 35.53125 
z
" id="CMR17-53"/>
      </defs>
      <g transform="translate(150.719878 398.398498)scale(0.1 -0.1)">
       <use transform="scale(0.996264)" xlink:href="#CMR17-53"/>
       <use transform="translate(45.690477 0)scale(0.996264)" xlink:href="#CMR17-48"/>
       <use transform="translate(91.380954 0)scale(0.996264)" xlink:href="#CMR17-48"/>
      </g>
     </g>
    </g>
    <g id="xtick_3">
     <g id="line2d_5">
      <path clip-path="url(#p07d3094da3)" d="M 224.092852 384.48 
L 224.092852 51.84 
" style="fill:none;stroke:#b0b0b0;stroke-dasharray:5.12,1.28,0.8,1.28;stroke-dashoffset:0;stroke-width:0.8;"/>
     </g>
     <g id="line2d_6">
      <g>
       <use style="stroke:#000000;stroke-width:0.8;" x="224.092852" xlink:href="#m3a7af6a8ed" y="384.48"/>
      </g>
     </g>
     <g id="text_3">
      <!-- $1000$ -->
      <defs>
       <path d="M 26.59375 63.40625 
C 26.59375 65.5 26.5 65.5 25.09375 65.5 
C 21.203125 61.1875 15.296875 59.796875 9.703125 59.796875 
C 9.40625 59.796875 8.90625 59.796875 8.796875 59.5 
C 8.703125 59.296875 8.703125 59.09375 8.703125 57 
C 11.796875 57 17 57.59375 21 59.984375 
L 21 7.203125 
C 21 3.6875 20.796875 2.5 12.203125 2.5 
L 9.203125 2.5 
L 9.203125 0 
C 14 0 19 0 23.796875 0 
C 28.59375 0 33.59375 0 38.40625 0 
L 38.40625 2.5 
L 35.40625 2.5 
C 26.796875 2.5 26.59375 3.59375 26.59375 7.15625 
z
" id="CMR17-49"/>
      </defs>
      <g transform="translate(214.130181 398.398498)scale(0.1 -0.1)">
       <use transform="scale(0.996264)" xlink:href="#CMR17-49"/>
       <use transform="translate(45.690477 0)scale(0.996264)" xlink:href="#CMR17-48"/>
       <use transform="translate(91.380954 0)scale(0.996264)" xlink:href="#CMR17-48"/>
       <use transform="translate(137.071431 0)scale(0.996264)" xlink:href="#CMR17-48"/>
      </g>
     </g>
    </g>
    <g id="xtick_4">
     <g id="line2d_7">
      <path clip-path="url(#p07d3094da3)" d="M 289.993823 384.48 
L 289.993823 51.84 
" style="fill:none;stroke:#b0b0b0;stroke-dasharray:5.12,1.28,0.8,1.28;stroke-dashoffset:0;stroke-width:0.8;"/>
     </g>
     <g id="line2d_8">
      <g>
       <use style="stroke:#000000;stroke-width:0.8;" x="289.993823" xlink:href="#m3a7af6a8ed" y="384.48"/>
      </g>
     </g>
     <g id="text_4">
      <!-- $1500$ -->
      <g transform="translate(280.031153 398.398498)scale(0.1 -0.1)">
       <use transform="scale(0.996264)" xlink:href="#CMR17-49"/>
       <use transform="translate(45.690477 0)scale(0.996264)" xlink:href="#CMR17-53"/>
       <use transform="translate(91.380954 0)scale(0.996264)" xlink:href="#CMR17-48"/>
       <use transform="translate(137.071431 0)scale(0.996264)" xlink:href="#CMR17-48"/>
      </g>
     </g>
    </g>
    <g id="xtick_5">
     <g id="line2d_9">
      <path clip-path="url(#p07d3094da3)" d="M 355.894795 384.48 
L 355.894795 51.84 
" style="fill:none;stroke:#b0b0b0;stroke-dasharray:5.12,1.28,0.8,1.28;stroke-dashoffset:0;stroke-width:0.8;"/>
     </g>
     <g id="line2d_10">
      <g>
       <use style="stroke:#000000;stroke-width:0.8;" x="355.894795" xlink:href="#m3a7af6a8ed" y="384.48"/>
      </g>
     </g>
     <g id="text_5">
      <!-- $2000$ -->
      <defs>
       <path d="M 41.703125 15.453125 
L 39.90625 15.453125 
C 38.90625 8.375 38.09375 7.171875 37.703125 6.5625 
C 37.203125 5.765625 30 5.765625 28.59375 5.765625 
L 9.40625 5.765625 
C 13 9.671875 20 16.75 28.5 24.953125 
C 34.59375 30.734375 41.703125 37.53125 41.703125 47.421875 
C 41.703125 59.21875 32.296875 66 21.796875 66 
C 10.796875 66 4.09375 56.3125 4.09375 47.34375 
C 4.09375 43.4375 7 42.9375 8.203125 42.9375 
C 9.203125 42.9375 12.203125 43.546875 12.203125 47.03125 
C 12.203125 50.109375 9.59375 51 8.203125 51 
C 7.59375 51 7 50.90625 6.59375 50.703125 
C 8.5 59.21875 14.296875 63.40625 20.40625 63.40625 
C 29.09375 63.40625 34.796875 56.515625 34.796875 47.421875 
C 34.796875 38.734375 29.703125 31.25 24 24.75 
L 4.09375 2.28125 
L 4.09375 0 
L 39.296875 0 
z
" id="CMR17-50"/>
      </defs>
      <g transform="translate(345.932124 398.398498)scale(0.1 -0.1)">
       <use transform="scale(0.996264)" xlink:href="#CMR17-50"/>
       <use transform="translate(45.690477 0)scale(0.996264)" xlink:href="#CMR17-48"/>
       <use transform="translate(91.380954 0)scale(0.996264)" xlink:href="#CMR17-48"/>
       <use transform="translate(137.071431 0)scale(0.996264)" xlink:href="#CMR17-48"/>
      </g>
     </g>
    </g>
    <g id="xtick_6">
     <g id="line2d_11">
      <path clip-path="url(#p07d3094da3)" d="M 421.795766 384.48 
L 421.795766 51.84 
" style="fill:none;stroke:#b0b0b0;stroke-dasharray:5.12,1.28,0.8,1.28;stroke-dashoffset:0;stroke-width:0.8;"/>
     </g>
     <g id="line2d_12">
      <g>
       <use style="stroke:#000000;stroke-width:0.8;" x="421.795766" xlink:href="#m3a7af6a8ed" y="384.48"/>
      </g>
     </g>
     <g id="text_6">
      <!-- $2500$ -->
      <g transform="translate(411.833096 398.398498)scale(0.1 -0.1)">
       <use transform="scale(0.996264)" xlink:href="#CMR17-50"/>
       <use transform="translate(45.690477 0)scale(0.996264)" xlink:href="#CMR17-53"/>
       <use transform="translate(91.380954 0)scale(0.996264)" xlink:href="#CMR17-48"/>
       <use transform="translate(137.071431 0)scale(0.996264)" xlink:href="#CMR17-48"/>
      </g>
     </g>
    </g>
    <g id="xtick_7">
     <g id="line2d_13">
      <path clip-path="url(#p07d3094da3)" d="M 487.696737 384.48 
L 487.696737 51.84 
" style="fill:none;stroke:#b0b0b0;stroke-dasharray:5.12,1.28,0.8,1.28;stroke-dashoffset:0;stroke-width:0.8;"/>
     </g>
     <g id="line2d_14">
      <g>
       <use style="stroke:#000000;stroke-width:0.8;" x="487.696737" xlink:href="#m3a7af6a8ed" y="384.48"/>
      </g>
     </g>
     <g id="text_7">
      <!-- $3000$ -->
      <defs>
       <path d="M 22.09375 33.703125 
C 31 33.703125 34.90625 25.96875 34.90625 17.03125 
C 34.90625 5 28.5 0.390625 22.703125 0.390625 
C 17.40625 0.390625 8.796875 3.03125 6.09375 10.828125 
C 6.59375 10.625 7.09375 10.625 7.59375 10.625 
C 10 10.625 11.796875 12.21875 11.796875 14.8125 
C 11.796875 17.703125 9.59375 19 7.59375 19 
C 5.90625 19 3.296875 18.203125 3.296875 14.46875 
C 3.296875 5.234375 12.296875 -2 22.90625 -2 
C 34 -2 42.5 6.71875 42.5 16.953125 
C 42.5 26.671875 34.5 33.703125 25 34.796875 
C 32.59375 36.375 39.90625 43.0625 39.90625 52.015625 
C 39.90625 59.6875 32 65.296875 23 65.296875 
C 13.90625 65.296875 5.90625 59.828125 5.90625 52.015625 
C 5.90625 48.59375 8.5 48 9.796875 48 
C 11.90625 48 13.703125 49.296875 13.703125 51.890625 
C 13.703125 54.46875 11.90625 55.765625 9.796875 55.765625 
C 9.40625 55.765625 8.90625 55.765625 8.5 55.578125 
C 11.40625 61.859375 19.296875 63 22.796875 63 
C 26.296875 63 32.90625 61.328125 32.90625 51.875 
C 32.90625 49.109375 32.5 44.1875 29.09375 39.84375 
C 26.09375 36 22.703125 36 19.40625 35.6875 
C 18.90625 35.6875 16.59375 35.453125 16.203125 35.453125 
C 15.5 35.359375 15.09375 35.265625 15.09375 34.5 
C 15.09375 33.796875 15.203125 33.703125 17.203125 33.703125 
z
" id="CMR17-51"/>
      </defs>
      <g transform="translate(477.734067 398.398498)scale(0.1 -0.1)">
       <use transform="scale(0.996264)" xlink:href="#CMR17-51"/>
       <use transform="translate(45.690477 0)scale(0.996264)" xlink:href="#CMR17-48"/>
       <use transform="translate(91.380954 0)scale(0.996264)" xlink:href="#CMR17-48"/>
       <use transform="translate(137.071431 0)scale(0.996264)" xlink:href="#CMR17-48"/>
      </g>
     </g>
    </g>
    <g id="text_8">
     <!-- Iteration -->
     <defs>
      <path d="M 17.09375 69 
L 8.703125 69 
L 8.703125 0 
L 17.09375 0 
z
" id="CMSS17-73"/>
      <path d="M 16.703125 37 
L 29.703125 37 
L 29.703125 42.765625 
L 16.703125 42.765625 
L 16.703125 55 
L 9.59375 55 
L 9.59375 42.765625 
L 1.703125 42.765625 
L 1.703125 37 
L 9.40625 37 
L 9.40625 11.703125 
C 9.40625 6 10.703125 -1 17.296875 -1 
C 22.296875 -1 26.90625 0.390625 31.296875 2.6875 
L 29.703125 8.5625 
C 27.296875 6.46875 24.40625 5.265625 21.296875 5.265625 
C 16.90625 5.265625 16.703125 10.875 16.703125 13.375 
z
" id="CMSS17-116"/>
      <path d="M 39.09375 21.515625 
C 39.09375 24.84375 38.90625 31.296875 35.703125 36.640625 
C 32.203125 42.390625 26.5 44 22.203125 44 
C 11.796875 44 3 34.1875 3 21.484375 
C 3 9.09375 12.09375 -1 23.59375 -1 
C 28.09375 -1 33.59375 0.296875 38.59375 3.875 
C 38.59375 4.28125 38.40625 6.46875 38.296875 6.5625 
C 38.296875 6.765625 38 9.84375 38 10.25 
C 33.203125 6.359375 27.703125 5.078125 23.703125 5.078125 
C 17.296875 5.078125 10.40625 10.421875 10.09375 21.515625 
z
M 10.90625 27 
C 12.203125 32.5625 16.59375 37.828125 22.203125 37.828125 
C 23.703125 37.828125 30.703125 37.828125 32.5 27 
z
" id="CMSS17-101"/>
      <path d="M 14.90625 21.296875 
C 14.90625 30.703125 21.796875 37 30.59375 37 
L 30.59375 43.578125 
C 24.203125 43.578125 18.203125 40.390625 14.59375 35.203125 
L 14.59375 43.09375 
L 7.5 43.09375 
L 7.5 0 
L 14.90625 0 
z
" id="CMSS17-114"/>
      <path d="M 37.59375 27.984375 
C 37.59375 37.375 30.90625 43.875 21.90625 43.875 
C 17.5 43.875 12.703125 43.078125 7.203125 39.890625 
L 7.796875 33.359375 
C 10.296875 35.125 14.59375 38 21.796875 38 
C 26.90625 38 30 34.0625 30 27.84375 
L 30 24 
C 14 24 4 19.34375 4 11.34375 
C 4 7.203125 6.5 -1 14.796875 -1 
C 16.296875 -1 24.40625 -1 30.203125 3.390625 
L 30.203125 -0.296875 
L 37.59375 -0.296875 
z
M 30 12.75 
C 30 10.953125 30 8.5625 27 6.78125 
C 24.40625 5.078125 21.09375 5.078125 19.703125 5.078125 
C 14.703125 5.078125 11.296875 7.984375 11.296875 11.625 
C 11.296875 18.921875 26.90625 18.921875 30 18.921875 
z
" id="CMSS17-97"/>
      <path d="M 15.296875 65.359375 
L 6.90625 65.359375 
L 6.90625 57 
L 15.296875 57 
z
M 14.796875 42.796875 
L 7.40625 42.796875 
L 7.40625 0 
L 14.796875 0 
z
" id="CMSS17-105"/>
      <path d="M 44.203125 21.1875 
C 44.203125 34 34.703125 44 23.5 44 
C 12 44 2.703125 33.703125 2.703125 21.1875 
C 2.703125 8.5 12.296875 -1 23.40625 -1 
C 34.796875 -1 44.203125 8.796875 44.203125 21.1875 
z
M 23.5 5.265625 
C 16.40625 5.265625 10.296875 11.078125 10.296875 22 
C 10.296875 33.609375 17.40625 37.921875 23.40625 37.921875 
C 29.90625 37.921875 36.59375 33.21875 36.59375 22 
C 36.59375 10.671875 30.09375 5.265625 23.5 5.265625 
z
" id="CMSS17-111"/>
      <path d="M 40.90625 29.328125 
C 40.90625 35.671875 39.40625 44 28.09375 44 
C 21.703125 44 17.5 40.71875 14.703125 37.328125 
L 14.703125 43.09375 
L 7.40625 43.09375 
L 7.40625 0 
L 15 0 
L 15 24.359375 
C 15 30.6875 17.40625 37.9375 24.203125 37.9375 
C 33 37.9375 33.296875 32 33.296875 28.578125 
L 33.296875 0 
L 40.90625 0 
z
" id="CMSS17-110"/>
     </defs>
     <g transform="translate(271.264003 414.021553)scale(0.14 -0.14)">
      <use transform="scale(0.996264)" xlink:href="#CMSS17-73"/>
      <use transform="translate(25.783926 0)scale(0.996264)" xlink:href="#CMSS17-116"/>
      <use transform="translate(59.615492 0)scale(0.996264)" xlink:href="#CMSS17-101"/>
      <use transform="translate(101.254314 0)scale(0.996264)" xlink:href="#CMSS17-114"/>
      <use transform="translate(133.164087 0)scale(0.996264)" xlink:href="#CMSS17-97"/>
      <use transform="translate(178.086007 0)scale(0.996264)" xlink:href="#CMSS17-116"/>
      <use transform="translate(211.917574 0)scale(0.996264)" xlink:href="#CMSS17-105"/>
      <use transform="translate(234.098297 0)scale(0.996264)" xlink:href="#CMSS17-111"/>
      <use transform="translate(280.941921 0)scale(0.996264)" xlink:href="#CMSS17-110"/>
     </g>
    </g>
   </g>
   <g id="matplotlib.axis_2">
    <g id="ytick_1">
     <g id="line2d_15">
      <path clip-path="url(#p07d3094da3)" d="M 72 369.36 
L 518.4 369.36 
" style="fill:none;stroke:#b0b0b0;stroke-dasharray:5.12,1.28,0.8,1.28;stroke-dashoffset:0;stroke-width:0.8;"/>
     </g>
     <g id="line2d_16">
      <defs>
       <path d="M 0 0 
L -3.5 0 
" id="m11b0066fd2" style="stroke:#000000;stroke-width:0.8;"/>
      </defs>
      <g>
       <use style="stroke:#000000;stroke-width:0.8;" x="72" xlink:href="#m11b0066fd2" y="369.36"/>
      </g>
     </g>
     <g id="text_9">
      <!-- $0$ -->
      <g transform="translate(60.018665 372.819249)scale(0.1 -0.1)">
       <use transform="scale(0.996264)" xlink:href="#CMR17-48"/>
      </g>
     </g>
    </g>
    <g id="ytick_2">
     <g id="line2d_17">
      <path clip-path="url(#p07d3094da3)" d="M 72 303.912538 
L 518.4 303.912538 
" style="fill:none;stroke:#b0b0b0;stroke-dasharray:5.12,1.28,0.8,1.28;stroke-dashoffset:0;stroke-width:0.8;"/>
     </g>
     <g id="line2d_18">
      <g>
       <use style="stroke:#000000;stroke-width:0.8;" x="72" xlink:href="#m11b0066fd2" y="303.912538"/>
      </g>
     </g>
     <g id="text_10">
      <!-- $2$ -->
      <g transform="translate(60.018665 307.371787)scale(0.1 -0.1)">
       <use transform="scale(0.996264)" xlink:href="#CMR17-50"/>
      </g>
     </g>
    </g>
    <g id="ytick_3">
     <g id="line2d_19">
      <path clip-path="url(#p07d3094da3)" d="M 72 238.465075 
L 518.4 238.465075 
" style="fill:none;stroke:#b0b0b0;stroke-dasharray:5.12,1.28,0.8,1.28;stroke-dashoffset:0;stroke-width:0.8;"/>
     </g>
     <g id="line2d_20">
      <g>
       <use style="stroke:#000000;stroke-width:0.8;" x="72" xlink:href="#m11b0066fd2" y="238.465075"/>
      </g>
     </g>
     <g id="text_11">
      <!-- $4$ -->
      <defs>
       <path d="M 33.59375 64.40625 
C 33.59375 66.5 33.5 66.5 31.703125 66.5 
L 2 19.59375 
L 2 17 
L 27.796875 17 
L 27.796875 7.140625 
C 27.796875 3.5 27.59375 2.5 20.59375 2.5 
L 18.703125 2.5 
L 18.703125 0 
C 21.90625 0 27.296875 0 30.703125 0 
C 34.09375 0 39.5 0 42.703125 0 
L 42.703125 2.5 
L 40.796875 2.5 
C 33.796875 2.5 33.59375 3.5 33.59375 7.140625 
L 33.59375 17 
L 43.796875 17 
L 43.796875 19.59375 
L 33.59375 19.59375 
z
M 28.09375 57.859375 
L 28.09375 19.59375 
L 4 19.59375 
z
" id="CMR17-52"/>
      </defs>
      <g transform="translate(60.018665 241.924324)scale(0.1 -0.1)">
       <use transform="scale(0.996264)" xlink:href="#CMR17-52"/>
      </g>
     </g>
    </g>
    <g id="ytick_4">
     <g id="line2d_21">
      <path clip-path="url(#p07d3094da3)" d="M 72 173.017613 
L 518.4 173.017613 
" style="fill:none;stroke:#b0b0b0;stroke-dasharray:5.12,1.28,0.8,1.28;stroke-dashoffset:0;stroke-width:0.8;"/>
     </g>
     <g id="line2d_22">
      <g>
       <use style="stroke:#000000;stroke-width:0.8;" x="72" xlink:href="#m11b0066fd2" y="173.017613"/>
      </g>
     </g>
     <g id="text_12">
      <!-- $6$ -->
      <defs>
       <path d="M 10.59375 34 
C 10.59375 57.65625 21.796875 63 28.296875 63 
C 30.40625 63 35.5 62.640625 37.5 59 
C 35.90625 59 32.90625 59 32.90625 55.515625 
C 32.90625 52.828125 35.09375 51.921875 36.5 51.921875 
C 37.40625 51.921875 40.09375 52.3125 40.09375 55.625 
C 40.09375 61.78125 35.09375 65.296875 28.203125 65.296875 
C 16.296875 65.296875 3.796875 52.96875 3.796875 31 
C 3.796875 3.953125 15.09375 -2 23.09375 -2 
C 32.796875 -2 42 6.671875 42 20.046875 
C 42 32.515625 33.90625 41.59375 23.703125 41.59375 
C 17.59375 41.59375 13.09375 37.609375 10.59375 30.625 
z
M 23.09375 0.390625 
C 10.796875 0.390625 10.796875 18.75 10.796875 22.4375 
C 10.796875 29.625 14.203125 40 23.5 40 
C 25.203125 40 30.09375 40 33.40625 33.125 
C 35.203125 29.21875 35.203125 25.140625 35.203125 20.140625 
C 35.203125 14.75 35.203125 10.78125 33.09375 6.78125 
C 30.90625 2.671875 27.703125 0.390625 23.09375 0.390625 
z
" id="CMR17-54"/>
      </defs>
      <g transform="translate(60.018665 176.476862)scale(0.1 -0.1)">
       <use transform="scale(0.996264)" xlink:href="#CMR17-54"/>
      </g>
     </g>
    </g>
    <g id="ytick_5">
     <g id="line2d_23">
      <path clip-path="url(#p07d3094da3)" d="M 72 107.57015 
L 518.4 107.57015 
" style="fill:none;stroke:#b0b0b0;stroke-dasharray:5.12,1.28,0.8,1.28;stroke-dashoffset:0;stroke-width:0.8;"/>
     </g>
     <g id="line2d_24">
      <g>
       <use style="stroke:#000000;stroke-width:0.8;" x="72" xlink:href="#m11b0066fd2" y="107.57015"/>
      </g>
     </g>
     <g id="text_13">
      <!-- $8$ -->
      <defs>
       <path d="M 27.203125 35.375 
C 33.5 38.546875 39.90625 43.328125 39.90625 50.984375 
C 39.90625 60.015625 31.09375 65.296875 23 65.296875 
C 13.90625 65.296875 5.90625 58.734375 5.90625 49.6875 
C 5.90625 47.203125 6.5 42.921875 10.40625 39.140625 
C 11.40625 38.15625 15.59375 35.171875 18.296875 33.28125 
C 13.796875 30.984375 3.296875 25.53125 3.296875 14.59375 
C 3.296875 4.359375 13.09375 -2 22.796875 -2 
C 33.5 -2 42.5 5.65625 42.5 15.78125 
C 42.5 24.84375 36.40625 29.015625 32.40625 31.703125 
z
M 14.09375 44.09375 
C 13.296875 44.59375 9.296875 47.671875 9.296875 52.359375 
C 9.296875 58.421875 15.59375 63 22.796875 63 
C 30.703125 63 36.5 57.4375 36.5 50.96875 
C 36.5 41.703125 26.09375 36.421875 25.59375 36.421875 
C 25.5 36.421875 25.40625 36.421875 24.59375 37.03125 
z
M 32.5 23.734375 
C 34 22.640625 38.796875 19.375 38.796875 13.296875 
C 38.796875 5.953125 31.40625 0.390625 23 0.390625 
C 13.90625 0.390625 7 6.84375 7 14.6875 
C 7 22.546875 13.09375 29.09375 20 32.1875 
z
" id="CMR17-56"/>
      </defs>
      <g transform="translate(60.018665 111.0294)scale(0.1 -0.1)">
       <use transform="scale(0.996264)" xlink:href="#CMR17-56"/>
      </g>
     </g>
    </g>
    <g id="text_14">
     <!-- $\mu^{\overline{P}}_{m}[m.u/W]$ -->
     <defs>
      <path d="M 14.40625 2.1875 
C 16.90625 -0.09375 20.59375 -1 24 -1 
C 30.40625 -1 34.796875 3.25 37.09375 6.328125 
C 38.09375 1.078125 42.296875 -1 45.796875 -1 
C 48.796875 -1 51.203125 0.78125 53 4.328125 
C 54.59375 7.703125 56 13.734375 56 14.109375 
C 56 14.609375 55.59375 15 55 15 
C 54.09375 15 54 14.5 53.59375 13.03125 
C 52.09375 7.203125 50.203125 1 46.09375 1 
C 43.203125 1 43 3.578125 43 5.59375 
C 43 7.875 43.90625 11.484375 44.59375 14.46875 
L 47.40625 25.234375 
C 47.796875 27.140625 48.90625 31.609375 49.40625 33.421875 
C 50 35.8125 51.09375 40.109375 51.09375 40.5 
C 51.09375 42 49.90625 43 48.40625 43 
C 47.5 43 45.40625 42.59375 44.59375 39.609375 
L 37.59375 11.875 
C 37.09375 9.875 37.09375 9.671875 35.796875 8.078125 
C 34.59375 6.390625 30.703125 1 24.40625 1 
C 18.796875 1 17 5.09375 17 9.765625 
C 17 12.671875 17.90625 16.15625 18.296875 17.859375 
L 22.796875 35.828125 
C 23.296875 37.71875 24.09375 40.90625 24.09375 41.515625 
C 24.09375 43.109375 22.796875 44 21.5 44 
C 20.59375 44 18.40625 43.703125 17.59375 40.5 
L 3.09375 -17.296875 
C 3 -17.796875 2.796875 -18.390625 2.796875 -19 
C 2.796875 -20.5 4 -21.5 5.5 -21.5 
C 8.40625 -21.5 9 -19.1875 9.703125 -16.40625 
z
" id="CMMI12-22"/>
      <path d="M 29.59375 31.609375 
L 46.40625 31.609375 
C 60.203125 31.609375 74 41.765625 74 53.140625 
C 74 60.90625 67.40625 68 54.796875 68 
L 23.90625 68 
C 22 68 21.09375 68 21.09375 66.109375 
C 21.09375 65.109375 22 65.109375 23.5 65.109375 
C 29.59375 65.109375 29.59375 64.3125 29.59375 63.21875 
C 29.59375 63.03125 29.59375 62.421875 29.203125 60.921875 
L 15.703125 7.375 
C 14.796875 3.890625 14.59375 2.890625 7.59375 2.890625 
C 5.703125 2.890625 4.703125 2.890625 4.703125 1.09375 
C 4.703125 0 5.59375 0 6.203125 0 
C 8.09375 0 10.09375 0 12 0 
L 23.703125 0 
C 25.59375 0 27.703125 0 29.59375 0 
C 30.40625 0 31.5 0 31.5 1.890625 
C 31.5 2.890625 30.59375 2.890625 29.09375 2.890625 
C 23.09375 2.890625 23 3.59375 23 4.578125 
C 23 5.078125 23.09375 5.765625 23.203125 6.265625 
z
M 36.796875 61.40625 
C 37.703125 65.109375 38.09375 65.109375 42 65.109375 
L 51.90625 65.109375 
C 59.40625 65.109375 65.59375 62.703125 65.59375 55.234375 
C 65.59375 52.640625 64.296875 44.171875 59.703125 39.59375 
C 58 37.796875 53.203125 34 44.09375 34 
L 30 34 
z
" id="CMMI12-80"/>
      <path d="M 20.59375 29.234375 
C 20.796875 29.84375 23.296875 34.828125 27 38.015625 
C 29.59375 40.40625 33 42.015625 36.90625 42.015625 
C 40.90625 42.015625 42.296875 39.015625 42.296875 35.03125 
C 42.296875 34.421875 42.296875 32.4375 41.09375 27.734375 
L 38.59375 17.46875 
C 37.796875 14.46875 35.90625 7.078125 35.703125 5.984375 
C 35.296875 4.484375 34.703125 1.890625 34.703125 1.5 
C 34.703125 0.09375 35.796875 -1 37.296875 -1 
C 40.296875 -1 40.796875 1.296875 41.703125 4.890625 
L 47.703125 28.734375 
C 47.90625 29.53125 53.09375 42.015625 64.09375 42.015625 
C 68.09375 42.015625 69.5 39.015625 69.5 35.03125 
C 69.5 29.4375 65.59375 18.5625 63.40625 12.578125 
C 62.5 10.171875 62 8.875 62 7.078125 
C 62 2.59375 65.09375 -1 69.90625 -1 
C 79.203125 -1 82.703125 13.671875 82.703125 14.265625 
C 82.703125 14.765625 82.296875 15.171875 81.703125 15.171875 
C 80.796875 15.171875 80.703125 14.875 80.203125 13.171875 
C 77.90625 5.1875 74.203125 1 70.203125 1 
C 69.203125 1 67.59375 1 67.59375 4.203125 
C 67.59375 6.8125 68.796875 10 69.203125 11.09375 
C 71 15.90625 75.5 27.703125 75.5 33.515625 
C 75.5 39.5 72 44 64.40625 44 
C 57.703125 44 52.296875 40.21875 48.296875 34.328125 
C 48 39.71875 44.703125 44 37.203125 44 
C 28.296875 44 23.59375 37.734375 21.796875 35.234375 
C 21.5 40.90625 17.40625 44 13 44 
C 10.09375 44 7.796875 42.609375 5.90625 38.8125 
C 4.09375 35.21875 2.703125 29.140625 2.703125 28.734375 
C 2.703125 28.34375 3.09375 27.84375 3.796875 27.84375 
C 4.59375 27.84375 4.703125 27.9375 5.296875 30.234375 
C 6.796875 36.125 8.703125 42.015625 12.703125 42.015625 
C 15 42.015625 15.796875 40.40625 15.796875 37.421875 
C 15.796875 35.21875 14.796875 31.328125 14.09375 28.234375 
L 11.296875 17.46875 
C 10.90625 15.5625 9.796875 11.078125 9.296875 9.28125 
C 8.59375 6.6875 7.5 2 7.5 1.5 
C 7.5 0.09375 8.59375 -1 10.09375 -1 
C 11.296875 -1 12.703125 -0.40625 13.5 1.09375 
C 13.703125 1.59375 14.59375 5.09375 15.09375 7.078125 
L 17.296875 16.0625 
z
" id="CMMI12-109"/>
      <path d="M 23.5 -25 
L 23.5 -21.515625 
L 14.09375 -21.515625 
L 14.09375 71 
L 23.5 71 
L 23.5 74.484375 
L 10.59375 74.484375 
L 10.59375 -25 
z
" id="CMR17-91"/>
      <path d="M 18.40625 4.796875 
C 18.40625 7.6875 16 9.671875 13.59375 9.671875 
C 10.703125 9.671875 8.703125 7.28125 8.703125 4.890625 
C 8.703125 2 11.09375 0 13.5 0 
C 16.40625 0 18.40625 2.390625 18.40625 4.796875 
z
" id="CMMI12-58"/>
      <path d="M 34.09375 5.78125 
C 35.40625 0.203125 40.203125 -1 42.59375 -1 
C 45.796875 -1 48.203125 1.09375 49.796875 4.484375 
C 51.5 8.078125 52.796875 13.96875 52.796875 14.265625 
C 52.796875 14.765625 52.40625 15.171875 51.796875 15.171875 
C 50.90625 15.171875 50.796875 14.671875 50.40625 13.171875 
C 48.59375 6.28125 46.796875 1 42.796875 1 
C 39.796875 1 39.796875 4.296875 39.796875 5.59375 
C 39.796875 7.890625 40.09375 8.875 41.09375 13.078125 
C 41.796875 15.765625 42.5 18.453125 43.09375 21.25 
L 47.203125 37.515625 
C 47.90625 40.015625 47.90625 40.21875 47.90625 40.515625 
C 47.90625 42.015625 46.703125 43.015625 45.203125 43.015625 
C 42.296875 43.015625 41.59375 40.515625 41 38.015625 
C 40 34.125 34.59375 12.671875 33.90625 9.1875 
C 33.796875 9.1875 29.90625 1 22.59375 1 
C 17.40625 1 16.40625 5.484375 16.40625 9.1875 
C 16.40625 14.875 19.203125 22.84375 21.796875 29.53125 
C 23 32.734375 23.5 34.03125 23.5 36.015625 
C 23.5 40.3125 20.40625 44 15.59375 44 
C 6.40625 44 2.703125 29.53125 2.703125 28.734375 
C 2.703125 28.34375 3.09375 27.84375 3.796875 27.84375 
C 4.703125 27.84375 4.796875 28.234375 5.203125 29.625 
C 7.59375 38.140625 11.5 41.90625 15.296875 41.90625 
C 16.296875 41.90625 17.90625 41.90625 17.90625 38.71875 
C 17.90625 36.125 16.796875 33.234375 15.296875 29.4375 
C 10.90625 17.5625 10.40625 13.765625 10.40625 10.78125 
C 10.40625 0.59375 18.09375 -1 22.203125 -1 
C 28.59375 -1 32.09375 3.390625 34.09375 5.78125 
z
" id="CMMI12-117"/>
      <path d="M 42.90625 71.28125 
C 42.90625 71.390625 43.5 72.90625 43.5 73.09375 
C 43.5 74.296875 42.5 75 41.703125 75 
C 41.203125 75 40.296875 75 39.5 72.796875 
L 6 -21.296875 
C 6 -21.40625 5.40625 -22.890625 5.40625 -23.09375 
C 5.40625 -24.296875 6.40625 -25 7.203125 -25 
C 7.796875 -25 8.703125 -24.890625 9.40625 -22.796875 
z
" id="CMMI12-61"/>
      <path d="M 90.296875 56.96875 
C 92.59375 60.84375 94.796875 64.515625 100.796875 65.125 
C 101.703125 65.21875 102.59375 65.3125 102.59375 66.90625 
C 102.59375 68 101.703125 68 101.40625 68 
C 101.203125 68 100.5 68 93.90625 68 
C 90.90625 68 87.796875 68 84.90625 68 
C 84.296875 68 83.09375 68 83.09375 66.03125 
C 83.09375 65.09375 83.90625 65 84.5 65 
C 86.5 65 89.703125 64.40625 89.703125 61.328125 
C 89.703125 60.03125 89.296875 59.328125 88.296875 57.65625 
L 61 10.125 
L 57.40625 61.921875 
C 57.40625 63.109375 58.5 65 64.09375 65 
C 65.40625 65 66.40625 65 66.40625 66.96875 
C 66.40625 68 65.40625 68 64.90625 68 
C 61.40625 68 57.703125 68 54.09375 68 
L 48.90625 68 
C 47.40625 68 45.59375 68 44.09375 68 
C 43.5 68 42.296875 68 42.296875 66.03125 
C 42.296875 65 43 65 44.703125 65 
C 49.296875 65 49.296875 64.890625 49.703125 58.9375 
L 50 55.359375 
L 24.09375 10.125 
L 20.40625 61.421875 
C 20.40625 62.53125 20.40625 65 27.203125 65 
C 28.296875 65 29.40625 65 29.40625 66.859375 
C 29.40625 68 28.5 68 27.90625 68 
C 24.40625 68 20.703125 68 17.09375 68 
L 11.90625 68 
C 10.40625 68 8.59375 68 7.09375 68 
C 6.5 68 5.296875 68 5.296875 66.03125 
C 5.296875 65 6.09375 65 7.5 65 
C 12.203125 65 12.296875 64.390625 12.5 61.21875 
L 16.90625 0.28125 
C 17 -1.40625 17.09375 -2 18.296875 -2 
C 19.296875 -2 19.5 -1.609375 20.40625 -0.109375 
L 50.203125 51.671875 
L 53.90625 0.28125 
C 54 -1.40625 54.09375 -2 55.296875 -2 
C 56.296875 -2 56.59375 -1.5 57.40625 -0.109375 
z
" id="CMMI12-87"/>
      <path d="M 14.296875 74.484375 
L 1.40625 74.484375 
L 1.40625 71 
L 10.796875 71 
L 10.796875 -21.515625 
L 1.40625 -21.515625 
L 1.40625 -25 
L 14.296875 -25 
z
" id="CMR17-93"/>
     </defs>
     <g transform="translate(53.306636 253.296769)rotate(-90)scale(0.14 -0.14)">
      <use transform="translate(0 24.62935)scale(0.996264)" xlink:href="#CMMI12-22"/>
      <use transform="translate(58.691421 60.782989)scale(0.697382)" xlink:href="#CMMI12-80"/>
      <use transform="translate(58.691421 0)scale(0.697382)" xlink:href="#CMMI12-109"/>
      <use transform="translate(118.918345 24.62935)scale(0.996264)" xlink:href="#CMR17-91"/>
      <use transform="translate(143.789403 24.62935)scale(0.996264)" xlink:href="#CMMI12-109"/>
      <use transform="translate(229.116627 24.62935)scale(0.996264)" xlink:href="#CMMI12-58"/>
      <use transform="translate(256.213805 24.62935)scale(0.996264)" xlink:href="#CMMI12-117"/>
      <use transform="translate(311.734134 24.62935)scale(0.996264)" xlink:href="#CMMI12-61"/>
      <use transform="translate(360.509053 24.62935)scale(0.996264)" xlink:href="#CMMI12-87"/>
      <use transform="translate(466.153551 24.62935)scale(0.996264)" xlink:href="#CMR17-93"/>
      <path d="M 58.691421 116.805753 
L 112.687377 116.805753 
L 112.687377 119.595204 
L 58.691421 119.595204 
L 58.691421 116.805753 
z
"/>
     </g>
    </g>
   </g>
   <g id="line2d_25">
    <path clip-path="url(#p07d3094da3)" d="M 92.290909 369.36 
L 159.905306 369.258556 
L 160.16891 368.990222 
L 160.432514 368.865872 
L 160.696117 368.636806 
L 161.223325 368.715342 
L 161.486929 368.911685 
L 161.882335 369.36 
L 340.210363 369.255284 
L 340.342165 369.199654 
L 341.660185 366.421409 
L 343.241808 363.152308 
L 344.164422 361.689557 
L 344.955233 360.802744 
L 345.614243 360.34134 
L 346.273253 360.138453 
L 346.932263 360.180993 
L 347.591272 360.462417 
L 348.382084 361.087441 
L 349.304698 362.173869 
L 350.359113 363.819872 
L 351.677132 366.378868 
L 353.126954 369.36 
L 498.109091 369.36 
L 498.109091 369.36 
" style="fill:none;stroke:#bf00bf;stroke-linecap:square;stroke-width:1.5;"/>
   </g>
   <g id="line2d_26">
    <path clip-path="url(#p07d3094da3)" d="M 92.290909 369.36 
L 92.818117 369.297825 
L 93.608929 368.823331 
L 104.54849 361.352503 
L 112.456606 356.178881 
L 114.697239 354.97792 
L 115.751655 353.973302 
L 116.80607 352.608722 
L 117.992288 350.658388 
L 119.310307 348.024127 
L 120.891931 344.280532 
L 122.605356 339.604311 
L 124.582385 333.543876 
L 127.086622 325.173146 
L 131.304284 310.339478 
L 134.072125 299.753351 
L 137.762579 284.63826 
L 142.243845 265.246177 
L 151.601783 223.392525 
L 157.928277 195.547902 
L 159.378098 190.49863 
L 160.564315 187.232802 
L 161.223325 185.992572 
L 161.618731 185.59007 
L 161.882335 185.501716 
L 162.541345 185.681697 
L 163.200354 186.048203 
L 164.518374 186.849934 
L 168.208828 188.653012 
L 189.033535 198.355598 
L 192.06498 199.5991 
L 194.305613 200.273209 
L 198.786879 201.274555 
L 218.293566 204.553473 
L 222.379427 205.054146 
L 223.565644 204.710546 
L 229.233128 202.629317 
L 236.350433 199.684181 
L 243.863143 196.395446 
L 261.392802 188.005082 
L 274.704798 180.940028 
L 281.163093 177.291332 
L 296.320317 168.135232 
L 309.368709 159.581249 
L 315.695202 155.209358 
L 327.820981 146.347772 
L 334.674682 140.765103 
L 340.210363 136.226322 
L 340.869373 135.706015 
L 343.505412 133.160108 
L 344.428026 132.66598 
L 345.350639 132.456548 
L 346.141451 132.499089 
L 347.064064 132.793602 
L 348.11848 133.42517 
L 349.172896 134.325073 
L 350.490915 135.764917 
L 352.072538 137.846147 
L 354.972181 141.795901 
L 356.422002 143.055765 
L 357.871824 143.972029 
L 359.189843 144.534877 
L 360.639665 144.92429 
L 364.330119 145.847099 
L 366.043544 146.635741 
L 368.284177 147.866153 
L 381.33257 155.444969 
L 391.481319 161.364692 
L 401.893673 167.438217 
L 412.437828 173.59355 
L 422.71838 179.59181 
L 433.130733 185.668607 
L 443.411285 191.666867 
L 453.95544 197.822201 
L 463.972388 203.669932 
L 465.422209 204.42585 
L 466.608427 204.798901 
L 467.926446 204.998515 
L 470.035277 205.047601 
L 480.052225 204.939613 
L 484.928897 204.926523 
L 498.109091 204.919978 
L 498.109091 204.919978 
" style="fill:none;stroke:#00bfbf;stroke-linecap:square;stroke-width:1.5;"/>
   </g>
   <g id="line2d_27">
    <path clip-path="url(#p07d3094da3)" d="M 92.290909 369.36 
L 498.109091 369.36 
L 498.109091 369.36 
" style="fill:none;stroke:#ff0000;stroke-linecap:square;stroke-width:1.5;"/>
   </g>
   <g id="line2d_28">
    <path clip-path="url(#p07d3094da3)" d="M 92.290909 369.36 
L 93.081721 369.288008 
L 93.872532 368.96077 
L 95.454156 367.982331 
L 102.966866 362.815254 
L 113.37922 355.455687 
L 114.697239 354.087835 
L 115.751655 352.690531 
L 116.937872 350.727107 
L 118.255892 348.076485 
L 119.705713 344.633949 
L 121.419138 339.938093 
L 123.396168 333.795849 
L 125.768603 325.611644 
L 130.381671 308.592031 
L 133.413115 296.667504 
L 136.971768 281.712758 
L 141.716638 260.723757 
L 160.037108 178.426846 
L 160.959721 175.85476 
L 161.618731 174.689795 
L 162.804948 173.056881 
L 163.991166 171.891916 
L 187.451912 147.853064 
L 191.142366 143.847679 
L 193.910207 140.450956 
L 198.523275 134.433061 
L 220.797803 104.386131 
L 222.379427 102.383439 
L 223.170238 101.787867 
L 224.224654 101.287194 
L 226.201683 100.704712 
L 230.551147 99.732817 
L 238.591066 98.024638 
L 254.539101 94.349763 
L 269.564522 90.507997 
L 283.799132 86.505885 
L 297.770138 82.228893 
L 311.345738 77.732652 
L 325.05314 72.853544 
L 329.139 71.214085 
L 339.419552 66.982907 
L 340.078562 66.979634 
L 342.978204 67.585023 
L 348.250282 69.175397 
L 352.731548 70.068754 
L 353.785964 70.353451 
L 357.476418 71.531505 
L 359.585249 71.796567 
L 362.484892 72.035451 
L 364.330119 72.552486 
L 368.020573 73.632369 
L 380.278154 77.09454 
L 464.631397 102.121649 
L 466.740229 102.380167 
L 473.857533 102.79903 
L 481.633848 102.884112 
L 498.109091 102.884112 
L 498.109091 102.884112 
" style="fill:none;stroke:#008000;stroke-linecap:square;stroke-width:1.5;"/>
   </g>
   <g id="line2d_29">
    <path clip-path="url(#p07d3094da3)" d="M 92.290909 369.36 
L 93.345325 369.252012 
L 94.136136 368.882234 
L 96.244967 367.49802 
L 102.966866 362.861067 
L 112.852012 355.881095 
L 114.433635 354.287449 
L 115.488051 352.942504 
L 116.674269 351.044528 
L 117.860486 348.740777 
L 119.310307 345.402956 
L 120.891931 341.18814 
L 122.737158 335.605471 
L 124.845989 328.504422 
L 128.536443 315.097509 
L 132.095096 301.533522 
L 135.521946 287.383781 
L 139.87141 268.345114 
L 145.802498 241.341491 
L 155.687644 196.454349 
L 160.300712 176.18527 
L 160.959721 174.552356 
L 161.486929 173.721173 
L 162.014137 173.266313 
L 162.409543 173.191049 
L 163.727562 173.259768 
L 166.890809 172.206064 
L 178.357578 168.105781 
L 189.165337 163.962956 
L 190.74696 163.177587 
L 193.251197 161.626482 
L 196.678048 159.201654 
L 203.663551 153.861141 
L 217.107349 143.320827 
L 223.565644 138.467897 
L 225.147267 137.76761 
L 244.390351 129.527774 
L 259.547574 122.259833 
L 274.17759 114.510854 
L 288.280398 106.333193 
L 301.9878 97.697401 
L 315.5634 88.469309 
L 327.293773 79.895691 
L 333.356662 74.941318 
L 339.419552 69.950949 
L 340.210363 69.725155 
L 341.660185 69.718611 
L 342.7146 69.973856 
L 344.296224 70.638147 
L 351.940736 74.123225 
L 353.52236 74.82024 
L 355.235785 76.233905 
L 356.817408 77.369419 
L 358.135428 78.043528 
L 359.585249 78.504932 
L 363.275703 79.434286 
L 365.77994 80.671243 
L 369.997603 82.994628 
L 375.006076 85.854682 
L 398.203218 99.549564 
L 404.266108 103.139357 
L 444.070294 126.729895 
L 450.133184 130.319688 
L 464.235992 138.605337 
L 465.685813 139.066742 
L 467.53104 139.371072 
L 470.826089 139.587049 
L 475.439157 139.708127 
L 481.10664 139.740851 
L 498.109091 139.737578 
L 498.109091 139.737578 
" style="fill:none;stroke:#0000ff;stroke-linecap:square;stroke-width:1.5;"/>
   </g>
   <g id="line2d_30">
    <path clip-path="url(#p07d3094da3)" d="M 92.290909 369.36 
L 93.213523 369.274918 
L 94.004334 368.885506 
L 96.508571 367.206778 
L 108.63435 358.911313 
L 114.829041 354.6605 
L 115.751655 353.659154 
L 116.80607 352.193131 
L 117.992288 350.144625 
L 119.310307 347.412193 
L 120.760129 343.90421 
L 122.473554 339.17563 
L 124.582385 332.630884 
L 127.877434 321.553901 
L 131.304284 309.429759 
L 134.335729 297.662305 
L 138.157985 281.761844 
L 143.166459 259.761679 
L 159.773504 186.015479 
L 160.300712 183.829534 
L 161.223325 180.508075 
L 161.882335 178.70827 
L 162.409543 177.988348 
L 162.804948 177.765826 
L 163.463958 177.72983 
L 165.177383 178.217414 
L 174.008114 180.953118 
L 183.893259 183.78372 
L 189.692545 185.262833 
L 191.40597 185.321736 
L 193.251197 185.220292 
L 195.623632 184.938868 
L 200.2367 184.140409 
L 204.586164 183.27323 
L 214.998518 181.09383 
L 223.30204 179.130406 
L 225.279069 178.292678 
L 229.628533 175.795858 
L 235.032413 172.451492 
L 245.576569 165.514061 
L 250.848646 161.849003 
L 260.865594 154.505798 
L 270.75074 146.760091 
L 280.240479 138.847493 
L 289.730219 130.457128 
L 298.956355 121.831152 
L 308.050689 112.871395 
L 313.059163 107.746859 
L 321.62629 98.656206 
L 327.820981 91.731865 
L 334.411078 83.708006 
L 339.551354 77.474135 
L 340.342165 77.048726 
L 341.528383 76.790209 
L 342.319195 76.934193 
L 343.37361 77.366147 
L 344.823431 78.230053 
L 351.545331 82.611761 
L 353.258756 83.613107 
L 356.817408 88.050445 
L 358.003626 89.005978 
L 359.058041 89.604822 
L 360.244259 90.059682 
L 362.616694 90.881048 
L 364.198317 91.777678 
L 366.43895 93.404047 
L 370.129404 96.470261 
L 410.065393 131.317762 
L 418.237114 138.474442 
L 440.248038 157.745447 
L 448.419758 164.902127 
L 464.367794 178.659184 
L 465.554011 179.143495 
L 467.003832 179.474005 
L 468.717258 179.627807 
L 473.857533 179.647441 
L 498.109091 179.637624 
L 498.109091 179.637624 
" style="fill:none;stroke:#000000;stroke-linecap:square;stroke-width:1.5;"/>
   </g>
   <g id="patch_3">
    <path d="M 72 384.48 
L 72 51.84 
" style="fill:none;stroke:#000000;stroke-linecap:square;stroke-linejoin:miter;stroke-width:0.8;"/>
   </g>
   <g id="patch_4">
    <path d="M 518.4 384.48 
L 518.4 51.84 
" style="fill:none;stroke:#000000;stroke-linecap:square;stroke-linejoin:miter;stroke-width:0.8;"/>
   </g>
   <g id="patch_5">
    <path d="M 72 384.48 
L 518.4 384.48 
" style="fill:none;stroke:#000000;stroke-linecap:square;stroke-linejoin:miter;stroke-width:0.8;"/>
   </g>
   <g id="patch_6">
    <path d="M 72 51.84 
L 518.4 51.84 
" style="fill:none;stroke:#000000;stroke-linecap:square;stroke-linejoin:miter;stroke-width:0.8;"/>
   </g>
   <g id="legend_1">
    <g id="patch_7">
     <path d="M 79 161.656473 
L 123.64577 161.656473 
Q 125.64577 161.656473 125.64577 159.656473 
L 125.64577 58.84 
Q 125.64577 56.84 123.64577 56.84 
L 79 56.84 
Q 77 56.84 77 58.84 
L 77 159.656473 
Q 77 161.656473 79 161.656473 
z
" style="fill:#ffffff;opacity:0.8;stroke:#cccccc;stroke-linejoin:miter;"/>
    </g>
    <g id="line2d_31">
     <path d="M 81 67.372234 
L 101 67.372234 
" style="fill:none;stroke:#bf00bf;stroke-linecap:square;stroke-width:1.5;"/>
    </g>
    <g id="line2d_32"/>
    <g id="text_15">
     <!-- $\mu^{\overline{P}}_{1}$ -->
     <g transform="translate(109 70.872234)scale(0.1 -0.1)">
      <use transform="translate(0 24.740171)scale(0.996264)" xlink:href="#CMMI12-22"/>
      <use transform="translate(58.691421 60.89381)scale(0.697382)" xlink:href="#CMMI12-80"/>
      <use transform="translate(58.691421 0)scale(0.697382)" xlink:href="#CMR17-49"/>
      <path d="M 58.691421 116.916574 
L 112.687377 116.916574 
L 112.687377 119.706025 
L 58.691421 119.706025 
L 58.691421 116.916574 
z
"/>
     </g>
    </g>
    <g id="line2d_33">
     <path d="M 81 84.341646 
L 101 84.341646 
" style="fill:none;stroke:#00bfbf;stroke-linecap:square;stroke-width:1.5;"/>
    </g>
    <g id="line2d_34"/>
    <g id="text_16">
     <!-- $\mu^{\overline{P}}_{2}$ -->
     <g transform="translate(109 87.841646)scale(0.1 -0.1)">
      <use transform="translate(0 24.740171)scale(0.996264)" xlink:href="#CMMI12-22"/>
      <use transform="translate(58.691421 60.89381)scale(0.697382)" xlink:href="#CMMI12-80"/>
      <use transform="translate(58.691421 0)scale(0.697382)" xlink:href="#CMR17-50"/>
      <path d="M 58.691421 116.916574 
L 112.687377 116.916574 
L 112.687377 119.706025 
L 58.691421 119.706025 
L 58.691421 116.916574 
z
"/>
     </g>
    </g>
    <g id="line2d_35">
     <path d="M 81 101.311058 
L 101 101.311058 
" style="fill:none;stroke:#ff0000;stroke-linecap:square;stroke-width:1.5;"/>
    </g>
    <g id="line2d_36"/>
    <g id="text_17">
     <!-- $\mu^{\overline{P}}_{3}$ -->
     <g transform="translate(109 104.811058)scale(0.1 -0.1)">
      <use transform="translate(0 24.740171)scale(0.996264)" xlink:href="#CMMI12-22"/>
      <use transform="translate(58.691421 60.89381)scale(0.697382)" xlink:href="#CMMI12-80"/>
      <use transform="translate(58.691421 0)scale(0.697382)" xlink:href="#CMR17-51"/>
      <path d="M 58.691421 116.916574 
L 112.687377 116.916574 
L 112.687377 119.706025 
L 58.691421 119.706025 
L 58.691421 116.916574 
z
"/>
     </g>
    </g>
    <g id="line2d_37">
     <path d="M 81 118.28047 
L 101 118.28047 
" style="fill:none;stroke:#008000;stroke-linecap:square;stroke-width:1.5;"/>
    </g>
    <g id="line2d_38"/>
    <g id="text_18">
     <!-- $\mu^{\overline{P}}_{4}$ -->
     <g transform="translate(109 121.78047)scale(0.1 -0.1)">
      <use transform="translate(0 24.740171)scale(0.996264)" xlink:href="#CMMI12-22"/>
      <use transform="translate(58.691421 60.89381)scale(0.697382)" xlink:href="#CMMI12-80"/>
      <use transform="translate(58.691421 0)scale(0.697382)" xlink:href="#CMR17-52"/>
      <path d="M 58.691421 116.916574 
L 112.687377 116.916574 
L 112.687377 119.706025 
L 58.691421 119.706025 
L 58.691421 116.916574 
z
"/>
     </g>
    </g>
    <g id="line2d_39">
     <path d="M 81 135.249883 
L 101 135.249883 
" style="fill:none;stroke:#0000ff;stroke-linecap:square;stroke-width:1.5;"/>
    </g>
    <g id="line2d_40"/>
    <g id="text_19">
     <!-- $\mu^{\overline{P}}_{5}$ -->
     <g transform="translate(109 138.749883)scale(0.1 -0.1)">
      <use transform="translate(0 24.740171)scale(0.996264)" xlink:href="#CMMI12-22"/>
      <use transform="translate(58.691421 60.89381)scale(0.697382)" xlink:href="#CMMI12-80"/>
      <use transform="translate(58.691421 0)scale(0.697382)" xlink:href="#CMR17-53"/>
      <path d="M 58.691421 116.916574 
L 112.687377 116.916574 
L 112.687377 119.706025 
L 58.691421 119.706025 
L 58.691421 116.916574 
z
"/>
     </g>
    </g>
    <g id="line2d_41">
     <path d="M 81 152.219295 
L 101 152.219295 
" style="fill:none;stroke:#000000;stroke-linecap:square;stroke-width:1.5;"/>
    </g>
    <g id="line2d_42"/>
    <g id="text_20">
     <!-- $\mu^{\overline{P}}_{6}$ -->
     <g transform="translate(109 155.719295)scale(0.1 -0.1)">
      <use transform="translate(0 24.740171)scale(0.996264)" xlink:href="#CMMI12-22"/>
      <use transform="translate(58.691421 60.89381)scale(0.697382)" xlink:href="#CMMI12-80"/>
      <use transform="translate(58.691421 0)scale(0.697382)" xlink:href="#CMR17-54"/>
      <path d="M 58.691421 116.916574 
L 112.687377 116.916574 
L 112.687377 119.706025 
L 58.691421 119.706025 
L 58.691421 116.916574 
z
"/>
     </g>
    </g>
   </g>
  </g>
 </g>
 <defs>
  <clipPath id="p07d3094da3">
   <rect height="332.64" width="446.4" x="72" y="51.84"/>
  </clipPath>
 </defs>
</svg>
