<?xml version="1.0" encoding="utf-8" standalone="no"?>
<!DOCTYPE svg PUBLIC "-//W3C//DTD SVG 1.1//EN"
  "http://www.w3.org/Graphics/SVG/1.1/DTD/svg11.dtd">
<!-- Created with matplotlib (http://matplotlib.org/) -->
<svg height="432pt" version="1.1" viewBox="0 0 576 432" width="576pt" xmlns="http://www.w3.org/2000/svg" xmlns:xlink="http://www.w3.org/1999/xlink">
 <defs>
  <style type="text/css">
*{stroke-linecap:butt;stroke-linejoin:round;}
  </style>
 </defs>
 <g id="figure_1">
  <g id="patch_1">
   <path d="M 0 432 
L 576 432 
L 576 0 
L 0 0 
z
" style="fill:#ffffff;"/>
  </g>
  <g id="axes_1">
   <g id="patch_2">
    <path d="M 72 384.48 
L 518.4 384.48 
L 518.4 51.84 
L 72 51.84 
z
" style="fill:#ffffff;"/>
   </g>
   <g id="matplotlib.axis_1">
    <g id="xtick_1">
     <g id="line2d_1">
      <path clip-path="url(#pa026759e2b)" d="M 92.290909 384.48 
L 92.290909 51.84 
" style="fill:none;stroke:#b0b0b0;stroke-dasharray:5.12,1.28,0.8,1.28;stroke-dashoffset:0;stroke-width:0.8;"/>
     </g>
     <g id="line2d_2">
      <defs>
       <path d="M 0 0 
L 0 3.5 
" id="ma130e9c93d" style="stroke:#000000;stroke-width:0.8;"/>
      </defs>
      <g>
       <use style="stroke:#000000;stroke-width:0.8;" x="92.290909" xlink:href="#ma130e9c93d" y="384.48"/>
      </g>
     </g>
     <g id="text_1">
      <!-- $0$ -->
      <defs>
       <path d="M 42 31.640625 
C 42 37.75 41.90625 48.125 37.703125 56.109375 
C 34 63.109375 28.09375 65.59375 22.90625 65.59375 
C 18.09375 65.59375 12 63.40625 8.203125 56.203125 
C 4.203125 48.71875 3.796875 39.4375 3.796875 31.640625 
C 3.796875 25.953125 3.90625 17.28125 7 9.671875 
C 11.296875 -0.609375 19 -2 22.90625 -2 
C 27.5 -2 34.5 -0.109375 38.59375 9.375 
C 41.59375 16.28125 42 24.359375 42 31.640625 
z
M 22.90625 -0.40625 
C 16.5 -0.40625 12.703125 5.078125 11.296875 12.6875 
C 10.203125 18.5625 10.203125 27.15625 10.203125 32.75 
C 10.203125 40.4375 10.203125 46.828125 11.5 52.921875 
C 13.40625 61.390625 19 64 22.90625 64 
C 27 64 32.296875 61.296875 34.203125 53.125 
C 35.5 47.4375 35.59375 40.734375 35.59375 32.75 
C 35.59375 26.25 35.59375 18.265625 34.40625 12.375 
C 32.296875 1.484375 26.40625 -0.40625 22.90625 -0.40625 
z
" id="CMR17-48"/>
      </defs>
      <g transform="translate(89.800241 398.398498)scale(0.1 -0.1)">
       <use transform="scale(0.996264)" xlink:href="#CMR17-48"/>
      </g>
     </g>
    </g>
    <g id="xtick_2">
     <g id="line2d_3">
      <path clip-path="url(#pa026759e2b)" d="M 162.332017 384.48 
L 162.332017 51.84 
" style="fill:none;stroke:#b0b0b0;stroke-dasharray:5.12,1.28,0.8,1.28;stroke-dashoffset:0;stroke-width:0.8;"/>
     </g>
     <g id="line2d_4">
      <g>
       <use style="stroke:#000000;stroke-width:0.8;" x="162.332017" xlink:href="#ma130e9c93d" y="384.48"/>
      </g>
     </g>
     <g id="text_2">
      <!-- $500$ -->
      <defs>
       <path d="M 11.40625 57.6875 
C 12.40625 57.28125 16.5 56 20.703125 56 
C 30 56 35.09375 61.109375 38 64.0625 
C 38 64.953125 38 65.5 37.40625 65.5 
C 37.296875 65.5 37.09375 65.5 36.296875 65.046875 
C 32.796875 63.40625 28.703125 62.078125 23.703125 62.078125 
C 20.703125 62.078125 16.203125 62.484375 11.296875 64.671875 
C 10.203125 65.171875 10 65.171875 9.90625 65.171875 
C 9.40625 65.171875 9.296875 65.0625 9.296875 63.078125 
L 9.296875 34.421875 
C 9.296875 32.640625 9.296875 32.140625 10.296875 32.140625 
C 10.796875 32.140625 11 32.34375 11.5 33.03125 
C 14.703125 37.515625 19.09375 39.40625 24.09375 39.40625 
C 27.59375 39.40625 35.09375 37.21875 35.09375 20.140625 
C 35.09375 16.953125 35.09375 11.171875 32.09375 6.578125 
C 29.59375 2.484375 25.703125 0.390625 21.40625 0.390625 
C 14.796875 0.390625 8.09375 5 6.296875 12.71875 
C 6.703125 12.609375 7.5 12.421875 7.90625 12.421875 
C 9.203125 12.421875 11.703125 13.125 11.703125 16.21875 
C 11.703125 18.90625 9.796875 20 7.90625 20 
C 5.59375 20 4.09375 18.59375 4.09375 15.796875 
C 4.09375 7.09375 11 -2 21.59375 -2 
C 31.90625 -2 41.703125 6.875 41.703125 19.75 
C 41.703125 31.71875 33.90625 41 24.203125 41 
C 19.09375 41 14.796875 39.109375 11.40625 35.53125 
z
" id="CMR17-53"/>
      </defs>
      <g transform="translate(154.860015 398.398498)scale(0.1 -0.1)">
       <use transform="scale(0.996264)" xlink:href="#CMR17-53"/>
       <use transform="translate(45.690477 0)scale(0.996264)" xlink:href="#CMR17-48"/>
       <use transform="translate(91.380954 0)scale(0.996264)" xlink:href="#CMR17-48"/>
      </g>
     </g>
    </g>
    <g id="xtick_3">
     <g id="line2d_5">
      <path clip-path="url(#pa026759e2b)" d="M 232.373126 384.48 
L 232.373126 51.84 
" style="fill:none;stroke:#b0b0b0;stroke-dasharray:5.12,1.28,0.8,1.28;stroke-dashoffset:0;stroke-width:0.8;"/>
     </g>
     <g id="line2d_6">
      <g>
       <use style="stroke:#000000;stroke-width:0.8;" x="232.373126" xlink:href="#ma130e9c93d" y="384.48"/>
      </g>
     </g>
     <g id="text_3">
      <!-- $1000$ -->
      <defs>
       <path d="M 26.59375 63.40625 
C 26.59375 65.5 26.5 65.5 25.09375 65.5 
C 21.203125 61.1875 15.296875 59.796875 9.703125 59.796875 
C 9.40625 59.796875 8.90625 59.796875 8.796875 59.5 
C 8.703125 59.296875 8.703125 59.09375 8.703125 57 
C 11.796875 57 17 57.59375 21 59.984375 
L 21 7.203125 
C 21 3.6875 20.796875 2.5 12.203125 2.5 
L 9.203125 2.5 
L 9.203125 0 
C 14 0 19 0 23.796875 0 
C 28.59375 0 33.59375 0 38.40625 0 
L 38.40625 2.5 
L 35.40625 2.5 
C 26.796875 2.5 26.59375 3.59375 26.59375 7.15625 
z
" id="CMR17-49"/>
      </defs>
      <g transform="translate(222.410455 398.398498)scale(0.1 -0.1)">
       <use transform="scale(0.996264)" xlink:href="#CMR17-49"/>
       <use transform="translate(45.690477 0)scale(0.996264)" xlink:href="#CMR17-48"/>
       <use transform="translate(91.380954 0)scale(0.996264)" xlink:href="#CMR17-48"/>
       <use transform="translate(137.071431 0)scale(0.996264)" xlink:href="#CMR17-48"/>
      </g>
     </g>
    </g>
    <g id="xtick_4">
     <g id="line2d_7">
      <path clip-path="url(#pa026759e2b)" d="M 302.414234 384.48 
L 302.414234 51.84 
" style="fill:none;stroke:#b0b0b0;stroke-dasharray:5.12,1.28,0.8,1.28;stroke-dashoffset:0;stroke-width:0.8;"/>
     </g>
     <g id="line2d_8">
      <g>
       <use style="stroke:#000000;stroke-width:0.8;" x="302.414234" xlink:href="#ma130e9c93d" y="384.48"/>
      </g>
     </g>
     <g id="text_4">
      <!-- $1500$ -->
      <g transform="translate(292.451564 398.398498)scale(0.1 -0.1)">
       <use transform="scale(0.996264)" xlink:href="#CMR17-49"/>
       <use transform="translate(45.690477 0)scale(0.996264)" xlink:href="#CMR17-53"/>
       <use transform="translate(91.380954 0)scale(0.996264)" xlink:href="#CMR17-48"/>
       <use transform="translate(137.071431 0)scale(0.996264)" xlink:href="#CMR17-48"/>
      </g>
     </g>
    </g>
    <g id="xtick_5">
     <g id="line2d_9">
      <path clip-path="url(#pa026759e2b)" d="M 372.455343 384.48 
L 372.455343 51.84 
" style="fill:none;stroke:#b0b0b0;stroke-dasharray:5.12,1.28,0.8,1.28;stroke-dashoffset:0;stroke-width:0.8;"/>
     </g>
     <g id="line2d_10">
      <g>
       <use style="stroke:#000000;stroke-width:0.8;" x="372.455343" xlink:href="#ma130e9c93d" y="384.48"/>
      </g>
     </g>
     <g id="text_5">
      <!-- $2000$ -->
      <defs>
       <path d="M 41.703125 15.453125 
L 39.90625 15.453125 
C 38.90625 8.375 38.09375 7.171875 37.703125 6.5625 
C 37.203125 5.765625 30 5.765625 28.59375 5.765625 
L 9.40625 5.765625 
C 13 9.671875 20 16.75 28.5 24.953125 
C 34.59375 30.734375 41.703125 37.53125 41.703125 47.421875 
C 41.703125 59.21875 32.296875 66 21.796875 66 
C 10.796875 66 4.09375 56.3125 4.09375 47.34375 
C 4.09375 43.4375 7 42.9375 8.203125 42.9375 
C 9.203125 42.9375 12.203125 43.546875 12.203125 47.03125 
C 12.203125 50.109375 9.59375 51 8.203125 51 
C 7.59375 51 7 50.90625 6.59375 50.703125 
C 8.5 59.21875 14.296875 63.40625 20.40625 63.40625 
C 29.09375 63.40625 34.796875 56.515625 34.796875 47.421875 
C 34.796875 38.734375 29.703125 31.25 24 24.75 
L 4.09375 2.28125 
L 4.09375 0 
L 39.296875 0 
z
" id="CMR17-50"/>
      </defs>
      <g transform="translate(362.492672 398.398498)scale(0.1 -0.1)">
       <use transform="scale(0.996264)" xlink:href="#CMR17-50"/>
       <use transform="translate(45.690477 0)scale(0.996264)" xlink:href="#CMR17-48"/>
       <use transform="translate(91.380954 0)scale(0.996264)" xlink:href="#CMR17-48"/>
       <use transform="translate(137.071431 0)scale(0.996264)" xlink:href="#CMR17-48"/>
      </g>
     </g>
    </g>
    <g id="xtick_6">
     <g id="line2d_11">
      <path clip-path="url(#pa026759e2b)" d="M 442.496451 384.48 
L 442.496451 51.84 
" style="fill:none;stroke:#b0b0b0;stroke-dasharray:5.12,1.28,0.8,1.28;stroke-dashoffset:0;stroke-width:0.8;"/>
     </g>
     <g id="line2d_12">
      <g>
       <use style="stroke:#000000;stroke-width:0.8;" x="442.496451" xlink:href="#ma130e9c93d" y="384.48"/>
      </g>
     </g>
     <g id="text_6">
      <!-- $2500$ -->
      <g transform="translate(432.53378 398.398498)scale(0.1 -0.1)">
       <use transform="scale(0.996264)" xlink:href="#CMR17-50"/>
       <use transform="translate(45.690477 0)scale(0.996264)" xlink:href="#CMR17-53"/>
       <use transform="translate(91.380954 0)scale(0.996264)" xlink:href="#CMR17-48"/>
       <use transform="translate(137.071431 0)scale(0.996264)" xlink:href="#CMR17-48"/>
      </g>
     </g>
    </g>
    <g id="xtick_7">
     <g id="line2d_13">
      <path clip-path="url(#pa026759e2b)" d="M 512.537559 384.48 
L 512.537559 51.84 
" style="fill:none;stroke:#b0b0b0;stroke-dasharray:5.12,1.28,0.8,1.28;stroke-dashoffset:0;stroke-width:0.8;"/>
     </g>
     <g id="line2d_14">
      <g>
       <use style="stroke:#000000;stroke-width:0.8;" x="512.537559" xlink:href="#ma130e9c93d" y="384.48"/>
      </g>
     </g>
     <g id="text_7">
      <!-- $3000$ -->
      <defs>
       <path d="M 22.09375 33.703125 
C 31 33.703125 34.90625 25.96875 34.90625 17.03125 
C 34.90625 5 28.5 0.390625 22.703125 0.390625 
C 17.40625 0.390625 8.796875 3.03125 6.09375 10.828125 
C 6.59375 10.625 7.09375 10.625 7.59375 10.625 
C 10 10.625 11.796875 12.21875 11.796875 14.8125 
C 11.796875 17.703125 9.59375 19 7.59375 19 
C 5.90625 19 3.296875 18.203125 3.296875 14.46875 
C 3.296875 5.234375 12.296875 -2 22.90625 -2 
C 34 -2 42.5 6.71875 42.5 16.953125 
C 42.5 26.671875 34.5 33.703125 25 34.796875 
C 32.59375 36.375 39.90625 43.0625 39.90625 52.015625 
C 39.90625 59.6875 32 65.296875 23 65.296875 
C 13.90625 65.296875 5.90625 59.828125 5.90625 52.015625 
C 5.90625 48.59375 8.5 48 9.796875 48 
C 11.90625 48 13.703125 49.296875 13.703125 51.890625 
C 13.703125 54.46875 11.90625 55.765625 9.796875 55.765625 
C 9.40625 55.765625 8.90625 55.765625 8.5 55.578125 
C 11.40625 61.859375 19.296875 63 22.796875 63 
C 26.296875 63 32.90625 61.328125 32.90625 51.875 
C 32.90625 49.109375 32.5 44.1875 29.09375 39.84375 
C 26.09375 36 22.703125 36 19.40625 35.6875 
C 18.90625 35.6875 16.59375 35.453125 16.203125 35.453125 
C 15.5 35.359375 15.09375 35.265625 15.09375 34.5 
C 15.09375 33.796875 15.203125 33.703125 17.203125 33.703125 
z
" id="CMR17-51"/>
      </defs>
      <g transform="translate(502.574889 398.398498)scale(0.1 -0.1)">
       <use transform="scale(0.996264)" xlink:href="#CMR17-51"/>
       <use transform="translate(45.690477 0)scale(0.996264)" xlink:href="#CMR17-48"/>
       <use transform="translate(91.380954 0)scale(0.996264)" xlink:href="#CMR17-48"/>
       <use transform="translate(137.071431 0)scale(0.996264)" xlink:href="#CMR17-48"/>
      </g>
     </g>
    </g>
    <g id="text_8">
     <!-- Iteration -->
     <defs>
      <path d="M 17.09375 69 
L 8.703125 69 
L 8.703125 0 
L 17.09375 0 
z
" id="CMSS17-73"/>
      <path d="M 16.703125 37 
L 29.703125 37 
L 29.703125 42.765625 
L 16.703125 42.765625 
L 16.703125 55 
L 9.59375 55 
L 9.59375 42.765625 
L 1.703125 42.765625 
L 1.703125 37 
L 9.40625 37 
L 9.40625 11.703125 
C 9.40625 6 10.703125 -1 17.296875 -1 
C 22.296875 -1 26.90625 0.390625 31.296875 2.6875 
L 29.703125 8.5625 
C 27.296875 6.46875 24.40625 5.265625 21.296875 5.265625 
C 16.90625 5.265625 16.703125 10.875 16.703125 13.375 
z
" id="CMSS17-116"/>
      <path d="M 39.09375 21.515625 
C 39.09375 24.84375 38.90625 31.296875 35.703125 36.640625 
C 32.203125 42.390625 26.5 44 22.203125 44 
C 11.796875 44 3 34.1875 3 21.484375 
C 3 9.09375 12.09375 -1 23.59375 -1 
C 28.09375 -1 33.59375 0.296875 38.59375 3.875 
C 38.59375 4.28125 38.40625 6.46875 38.296875 6.5625 
C 38.296875 6.765625 38 9.84375 38 10.25 
C 33.203125 6.359375 27.703125 5.078125 23.703125 5.078125 
C 17.296875 5.078125 10.40625 10.421875 10.09375 21.515625 
z
M 10.90625 27 
C 12.203125 32.5625 16.59375 37.828125 22.203125 37.828125 
C 23.703125 37.828125 30.703125 37.828125 32.5 27 
z
" id="CMSS17-101"/>
      <path d="M 14.90625 21.296875 
C 14.90625 30.703125 21.796875 37 30.59375 37 
L 30.59375 43.578125 
C 24.203125 43.578125 18.203125 40.390625 14.59375 35.203125 
L 14.59375 43.09375 
L 7.5 43.09375 
L 7.5 0 
L 14.90625 0 
z
" id="CMSS17-114"/>
      <path d="M 37.59375 27.984375 
C 37.59375 37.375 30.90625 43.875 21.90625 43.875 
C 17.5 43.875 12.703125 43.078125 7.203125 39.890625 
L 7.796875 33.359375 
C 10.296875 35.125 14.59375 38 21.796875 38 
C 26.90625 38 30 34.0625 30 27.84375 
L 30 24 
C 14 24 4 19.34375 4 11.34375 
C 4 7.203125 6.5 -1 14.796875 -1 
C 16.296875 -1 24.40625 -1 30.203125 3.390625 
L 30.203125 -0.296875 
L 37.59375 -0.296875 
z
M 30 12.75 
C 30 10.953125 30 8.5625 27 6.78125 
C 24.40625 5.078125 21.09375 5.078125 19.703125 5.078125 
C 14.703125 5.078125 11.296875 7.984375 11.296875 11.625 
C 11.296875 18.921875 26.90625 18.921875 30 18.921875 
z
" id="CMSS17-97"/>
      <path d="M 15.296875 65.359375 
L 6.90625 65.359375 
L 6.90625 57 
L 15.296875 57 
z
M 14.796875 42.796875 
L 7.40625 42.796875 
L 7.40625 0 
L 14.796875 0 
z
" id="CMSS17-105"/>
      <path d="M 44.203125 21.1875 
C 44.203125 34 34.703125 44 23.5 44 
C 12 44 2.703125 33.703125 2.703125 21.1875 
C 2.703125 8.5 12.296875 -1 23.40625 -1 
C 34.796875 -1 44.203125 8.796875 44.203125 21.1875 
z
M 23.5 5.265625 
C 16.40625 5.265625 10.296875 11.078125 10.296875 22 
C 10.296875 33.609375 17.40625 37.921875 23.40625 37.921875 
C 29.90625 37.921875 36.59375 33.21875 36.59375 22 
C 36.59375 10.671875 30.09375 5.265625 23.5 5.265625 
z
" id="CMSS17-111"/>
      <path d="M 40.90625 29.328125 
C 40.90625 35.671875 39.40625 44 28.09375 44 
C 21.703125 44 17.5 40.71875 14.703125 37.328125 
L 14.703125 43.09375 
L 7.40625 43.09375 
L 7.40625 0 
L 15 0 
L 15 24.359375 
C 15 30.6875 17.40625 37.9375 24.203125 37.9375 
C 33 37.9375 33.296875 32 33.296875 28.578125 
L 33.296875 0 
L 40.90625 0 
z
" id="CMSS17-110"/>
     </defs>
     <g transform="translate(271.264003 414.021553)scale(0.14 -0.14)">
      <use transform="scale(0.996264)" xlink:href="#CMSS17-73"/>
      <use transform="translate(25.783926 0)scale(0.996264)" xlink:href="#CMSS17-116"/>
      <use transform="translate(59.615492 0)scale(0.996264)" xlink:href="#CMSS17-101"/>
      <use transform="translate(101.254314 0)scale(0.996264)" xlink:href="#CMSS17-114"/>
      <use transform="translate(133.164087 0)scale(0.996264)" xlink:href="#CMSS17-97"/>
      <use transform="translate(178.086007 0)scale(0.996264)" xlink:href="#CMSS17-116"/>
      <use transform="translate(211.917574 0)scale(0.996264)" xlink:href="#CMSS17-105"/>
      <use transform="translate(234.098297 0)scale(0.996264)" xlink:href="#CMSS17-111"/>
      <use transform="translate(280.941921 0)scale(0.996264)" xlink:href="#CMSS17-110"/>
     </g>
    </g>
   </g>
   <g id="matplotlib.axis_2">
    <g id="ytick_1">
     <g id="line2d_15">
      <path clip-path="url(#pa026759e2b)" d="M 72 367.973724 
L 518.4 367.973724 
" style="fill:none;stroke:#b0b0b0;stroke-dasharray:5.12,1.28,0.8,1.28;stroke-dashoffset:0;stroke-width:0.8;"/>
     </g>
     <g id="line2d_16">
      <defs>
       <path d="M 0 0 
L -3.5 0 
" id="mee2fd33bca" style="stroke:#000000;stroke-width:0.8;"/>
      </defs>
      <g>
       <use style="stroke:#000000;stroke-width:0.8;" x="72" xlink:href="#mee2fd33bca" y="367.973724"/>
      </g>
     </g>
     <g id="text_9">
      <!-- $-50$ -->
      <defs>
       <path d="M 65.90625 23 
C 67.59375 23 69.40625 23 69.40625 25 
C 69.40625 27 67.59375 27 65.90625 27 
L 11.796875 27 
C 10.09375 27 8.296875 27 8.296875 25 
C 8.296875 23 10.09375 23 11.796875 23 
z
" id="CMSY10-0"/>
      </defs>
      <g transform="translate(47.288586 371.432973)scale(0.1 -0.1)">
       <use transform="scale(0.996264)" xlink:href="#CMSY10-0"/>
       <use transform="translate(77.487468 0)scale(0.996264)" xlink:href="#CMR17-53"/>
       <use transform="translate(123.177945 0)scale(0.996264)" xlink:href="#CMR17-48"/>
      </g>
     </g>
    </g>
    <g id="ytick_2">
     <g id="line2d_17">
      <path clip-path="url(#pa026759e2b)" d="M 72 309.158432 
L 518.4 309.158432 
" style="fill:none;stroke:#b0b0b0;stroke-dasharray:5.12,1.28,0.8,1.28;stroke-dashoffset:0;stroke-width:0.8;"/>
     </g>
     <g id="line2d_18">
      <g>
       <use style="stroke:#000000;stroke-width:0.8;" x="72" xlink:href="#mee2fd33bca" y="309.158432"/>
      </g>
     </g>
     <g id="text_10">
      <!-- $-40$ -->
      <defs>
       <path d="M 33.59375 64.40625 
C 33.59375 66.5 33.5 66.5 31.703125 66.5 
L 2 19.59375 
L 2 17 
L 27.796875 17 
L 27.796875 7.140625 
C 27.796875 3.5 27.59375 2.5 20.59375 2.5 
L 18.703125 2.5 
L 18.703125 0 
C 21.90625 0 27.296875 0 30.703125 0 
C 34.09375 0 39.5 0 42.703125 0 
L 42.703125 2.5 
L 40.796875 2.5 
C 33.796875 2.5 33.59375 3.5 33.59375 7.140625 
L 33.59375 17 
L 43.796875 17 
L 43.796875 19.59375 
L 33.59375 19.59375 
z
M 28.09375 57.859375 
L 28.09375 19.59375 
L 4 19.59375 
z
" id="CMR17-52"/>
      </defs>
      <g transform="translate(47.288586 312.617681)scale(0.1 -0.1)">
       <use transform="scale(0.996264)" xlink:href="#CMSY10-0"/>
       <use transform="translate(77.487468 0)scale(0.996264)" xlink:href="#CMR17-52"/>
       <use transform="translate(123.177945 0)scale(0.996264)" xlink:href="#CMR17-48"/>
      </g>
     </g>
    </g>
    <g id="ytick_3">
     <g id="line2d_19">
      <path clip-path="url(#pa026759e2b)" d="M 72 250.34314 
L 518.4 250.34314 
" style="fill:none;stroke:#b0b0b0;stroke-dasharray:5.12,1.28,0.8,1.28;stroke-dashoffset:0;stroke-width:0.8;"/>
     </g>
     <g id="line2d_20">
      <g>
       <use style="stroke:#000000;stroke-width:0.8;" x="72" xlink:href="#mee2fd33bca" y="250.34314"/>
      </g>
     </g>
     <g id="text_11">
      <!-- $-30$ -->
      <g transform="translate(47.288586 253.802389)scale(0.1 -0.1)">
       <use transform="scale(0.996264)" xlink:href="#CMSY10-0"/>
       <use transform="translate(77.487468 0)scale(0.996264)" xlink:href="#CMR17-51"/>
       <use transform="translate(123.177945 0)scale(0.996264)" xlink:href="#CMR17-48"/>
      </g>
     </g>
    </g>
    <g id="ytick_4">
     <g id="line2d_21">
      <path clip-path="url(#pa026759e2b)" d="M 72 191.527848 
L 518.4 191.527848 
" style="fill:none;stroke:#b0b0b0;stroke-dasharray:5.12,1.28,0.8,1.28;stroke-dashoffset:0;stroke-width:0.8;"/>
     </g>
     <g id="line2d_22">
      <g>
       <use style="stroke:#000000;stroke-width:0.8;" x="72" xlink:href="#mee2fd33bca" y="191.527848"/>
      </g>
     </g>
     <g id="text_12">
      <!-- $-20$ -->
      <g transform="translate(47.288586 194.987097)scale(0.1 -0.1)">
       <use transform="scale(0.996264)" xlink:href="#CMSY10-0"/>
       <use transform="translate(77.487468 0)scale(0.996264)" xlink:href="#CMR17-50"/>
       <use transform="translate(123.177945 0)scale(0.996264)" xlink:href="#CMR17-48"/>
      </g>
     </g>
    </g>
    <g id="ytick_5">
     <g id="line2d_23">
      <path clip-path="url(#pa026759e2b)" d="M 72 132.712556 
L 518.4 132.712556 
" style="fill:none;stroke:#b0b0b0;stroke-dasharray:5.12,1.28,0.8,1.28;stroke-dashoffset:0;stroke-width:0.8;"/>
     </g>
     <g id="line2d_24">
      <g>
       <use style="stroke:#000000;stroke-width:0.8;" x="72" xlink:href="#mee2fd33bca" y="132.712556"/>
      </g>
     </g>
     <g id="text_13">
      <!-- $-10$ -->
      <g transform="translate(47.288586 136.171805)scale(0.1 -0.1)">
       <use transform="scale(0.996264)" xlink:href="#CMSY10-0"/>
       <use transform="translate(77.487468 0)scale(0.996264)" xlink:href="#CMR17-49"/>
       <use transform="translate(123.177945 0)scale(0.996264)" xlink:href="#CMR17-48"/>
      </g>
     </g>
    </g>
    <g id="ytick_6">
     <g id="line2d_25">
      <path clip-path="url(#pa026759e2b)" d="M 72 73.897264 
L 518.4 73.897264 
" style="fill:none;stroke:#b0b0b0;stroke-dasharray:5.12,1.28,0.8,1.28;stroke-dashoffset:0;stroke-width:0.8;"/>
     </g>
     <g id="line2d_26">
      <g>
       <use style="stroke:#000000;stroke-width:0.8;" x="72" xlink:href="#mee2fd33bca" y="73.897264"/>
      </g>
     </g>
     <g id="text_14">
      <!-- $0$ -->
      <g transform="translate(60.018665 77.356513)scale(0.1 -0.1)">
       <use transform="scale(0.996264)" xlink:href="#CMR17-48"/>
      </g>
     </g>
    </g>
    <g id="text_15">
     <!-- $\partial \mathcal{L}/ \partial \mu^{\overline{U}}_{m}$ -->
     <defs>
      <path d="M 45.40625 33.515625 
C 44.796875 39.125 41.296875 45.859375 32.296875 45.859375 
C 18.203125 45.859375 3.796875 31.515625 3.796875 15.5625 
C 3.796875 9.4375 8 -2.09375 21.59375 -2.09375 
C 45.203125 -2.09375 55.296875 32.296875 55.296875 46 
C 55.296875 60.40625 47.203125 71.5 34.40625 71.5 
C 19.90625 71.5 15.59375 58.796875 15.59375 56.09375 
C 15.59375 55.203125 16.203125 53 19 53 
C 22.5 53 24 56.203125 24 57.90625 
C 24 61 20.90625 61 19.59375 61 
C 23.703125 68.40625 31.296875 69.09375 34 69.09375 
C 42.796875 69.09375 48.40625 62.109375 48.40625 50.96875 
C 48.40625 44.578125 46.5 37.1875 45.5 33.515625 
z
M 21.90625 0.59375 
C 12.5 0.59375 10.90625 8.03125 10.90625 12.25 
C 10.90625 16.65625 13.703125 27 15.203125 30.703125 
C 16.5 33.71875 22.203125 43.859375 32.59375 43.859375 
C 41.703125 43.859375 43.796875 35.921875 43.796875 30.515625 
C 43.796875 23.078125 37.296875 0.59375 21.90625 0.59375 
z
" id="CMMI12-64"/>
      <path d="M 18 9.53125 
C 23.40625 17.984375 25.09375 24.40625 26.40625 29.734375 
C 29.90625 43.59375 33.703125 55.65625 39.90625 62.578125 
C 41.09375 63.90625 41.90625 64.796875 45.09375 64.796875 
C 52 64.796875 52.203125 57.875 52.203125 56.453125 
C 52.203125 54.65625 51.703125 53.234375 51.703125 52.734375 
C 51.703125 52.03125 52.296875 52.03125 52.40625 52.03125 
C 54 52.03125 56.703125 53.140625 59.203125 54.953125 
C 61 56.359375 61.90625 57.359375 61.90625 61.46875 
C 61.90625 66.890625 59.09375 71 53.5 71 
C 50.296875 71 41.5 70.203125 31.703125 60.25 
C 23.703125 52.015625 19 33.9375 17.09375 26.40625 
C 15.296875 19.5 14.5 16.375 11.5 10.34375 
C 10.796875 9.15625 8.203125 4.734375 6.796875 3.421875 
C 4.09375 0.921875 3.09375 -0.890625 3.09375 -1.390625 
C 3.09375 -1.59375 3.296875 -2 4 -2 
C 4.40625 -2 6.5 -1.59375 9.09375 0.078125 
C 10.796875 1.0625 11 1.25 13.296875 3.609375 
C 18.296875 3.609375 21.796875 2.703125 28.09375 0.90625 
C 33.203125 -0.5 38.296875 -2 43.40625 -2 
C 51.5 -2 59.703125 4.125 62.90625 8.53125 
C 64.90625 11.234375 65.5 13.75 65.5 14.046875 
C 65.5 14.75 64.90625 14.75 64.796875 14.75 
C 63.203125 14.75 60.796875 13.65625 59.09375 12.4375 
C 56.40625 10.734375 56.203125 10.140625 55.59375 8.421875 
C 55.09375 6.8125 54.5 6.015625 54.09375 5.40625 
C 53.296875 4.203125 53.203125 4.203125 51.703125 4.203125 
C 46.90625 4.203125 41.90625 5.71875 35.296875 7.515625 
C 32.5 8.3125 27 9.9375 22 9.9375 
C 20.703125 9.9375 19.296875 9.828125 18 9.53125 
z
" id="CMSY10-76"/>
      <path d="M 42.90625 71.28125 
C 42.90625 71.390625 43.5 72.90625 43.5 73.09375 
C 43.5 74.296875 42.5 75 41.703125 75 
C 41.203125 75 40.296875 75 39.5 72.796875 
L 6 -21.296875 
C 6 -21.40625 5.40625 -22.890625 5.40625 -23.09375 
C 5.40625 -24.296875 6.40625 -25 7.203125 -25 
C 7.796875 -25 8.703125 -24.890625 9.40625 -22.796875 
z
" id="CMMI12-61"/>
      <path d="M 14.40625 2.1875 
C 16.90625 -0.09375 20.59375 -1 24 -1 
C 30.40625 -1 34.796875 3.25 37.09375 6.328125 
C 38.09375 1.078125 42.296875 -1 45.796875 -1 
C 48.796875 -1 51.203125 0.78125 53 4.328125 
C 54.59375 7.703125 56 13.734375 56 14.109375 
C 56 14.609375 55.59375 15 55 15 
C 54.09375 15 54 14.5 53.59375 13.03125 
C 52.09375 7.203125 50.203125 1 46.09375 1 
C 43.203125 1 43 3.578125 43 5.59375 
C 43 7.875 43.90625 11.484375 44.59375 14.46875 
L 47.40625 25.234375 
C 47.796875 27.140625 48.90625 31.609375 49.40625 33.421875 
C 50 35.8125 51.09375 40.109375 51.09375 40.5 
C 51.09375 42 49.90625 43 48.40625 43 
C 47.5 43 45.40625 42.59375 44.59375 39.609375 
L 37.59375 11.875 
C 37.09375 9.875 37.09375 9.671875 35.796875 8.078125 
C 34.59375 6.390625 30.703125 1 24.40625 1 
C 18.796875 1 17 5.09375 17 9.765625 
C 17 12.671875 17.90625 16.15625 18.296875 17.859375 
L 22.796875 35.828125 
C 23.296875 37.71875 24.09375 40.90625 24.09375 41.515625 
C 24.09375 43.109375 22.796875 44 21.5 44 
C 20.59375 44 18.40625 43.703125 17.59375 40.5 
L 3.09375 -17.296875 
C 3 -17.796875 2.796875 -18.390625 2.796875 -19 
C 2.796875 -20.5 4 -21.5 5.5 -21.5 
C 8.40625 -21.5 9 -19.1875 9.703125 -16.40625 
z
" id="CMMI12-22"/>
      <path d="M 50.59375 23.03125 
C 47.09375 9.078125 35.5 0.890625 26.09375 0.890625 
C 18.90625 0.890625 14 5.671875 14 13.921875 
C 14 14.3125 14 17.296875 15.09375 21.671875 
L 24.90625 60.734375 
C 25.796875 64.109375 26 65.109375 33.09375 65.109375 
C 34.90625 65.109375 35.90625 65.109375 35.90625 66.90625 
C 35.90625 68 35 68 34.40625 68 
C 32.59375 68 30.5 68 28.59375 68 
L 16.796875 68 
C 14.90625 68 12.796875 68 10.90625 68 
C 10.203125 68 9 68 9 66.109375 
C 9 65.109375 9.703125 65.109375 11.59375 65.109375 
C 17.59375 65.109375 17.59375 64.3125 17.59375 63.21875 
C 17.59375 62.625 16.90625 59.75 16.40625 58.046875 
L 7.703125 23.25 
C 7.40625 22.15625 6.796875 19.46875 6.796875 16.796875 
C 6.796875 5.84375 14.703125 -2 25.59375 -2 
C 35.703125 -2 46.90625 6 52 18.703125 
C 52.703125 20.390625 53.59375 23.90625 54.203125 26.59375 
C 55.203125 30.203125 57.296875 39 58 41.59375 
L 61.796875 56.609375 
C 63.09375 61.8125 63.90625 65.109375 72.703125 65.109375 
C 73.5 65.203125 73.90625 66 73.90625 66.90625 
C 73.90625 68 73 68 72.59375 68 
C 71.203125 68 69.40625 68 68 68 
L 63.296875 68 
C 57.09375 68 53.90625 68 53.796875 68 
C 53.203125 68 52 68 52 66.109375 
C 52 65.109375 52.796875 65.109375 53.5 65.109375 
C 59.5 65.109375 59.90625 62.8125 59.90625 61.015625 
C 59.90625 60.125 59.90625 59.8125 59.5 58.421875 
z
" id="CMMI12-85"/>
      <path d="M 20.59375 29.234375 
C 20.796875 29.84375 23.296875 34.828125 27 38.015625 
C 29.59375 40.40625 33 42.015625 36.90625 42.015625 
C 40.90625 42.015625 42.296875 39.015625 42.296875 35.03125 
C 42.296875 34.421875 42.296875 32.4375 41.09375 27.734375 
L 38.59375 17.46875 
C 37.796875 14.46875 35.90625 7.078125 35.703125 5.984375 
C 35.296875 4.484375 34.703125 1.890625 34.703125 1.5 
C 34.703125 0.09375 35.796875 -1 37.296875 -1 
C 40.296875 -1 40.796875 1.296875 41.703125 4.890625 
L 47.703125 28.734375 
C 47.90625 29.53125 53.09375 42.015625 64.09375 42.015625 
C 68.09375 42.015625 69.5 39.015625 69.5 35.03125 
C 69.5 29.4375 65.59375 18.5625 63.40625 12.578125 
C 62.5 10.171875 62 8.875 62 7.078125 
C 62 2.59375 65.09375 -1 69.90625 -1 
C 79.203125 -1 82.703125 13.671875 82.703125 14.265625 
C 82.703125 14.765625 82.296875 15.171875 81.703125 15.171875 
C 80.796875 15.171875 80.703125 14.875 80.203125 13.171875 
C 77.90625 5.1875 74.203125 1 70.203125 1 
C 69.203125 1 67.59375 1 67.59375 4.203125 
C 67.59375 6.8125 68.796875 10 69.203125 11.09375 
C 71 15.90625 75.5 27.703125 75.5 33.515625 
C 75.5 39.5 72 44 64.40625 44 
C 57.703125 44 52.296875 40.21875 48.296875 34.328125 
C 48 39.71875 44.703125 44 37.203125 44 
C 28.296875 44 23.59375 37.734375 21.796875 35.234375 
C 21.5 40.90625 17.40625 44 13 44 
C 10.09375 44 7.796875 42.609375 5.90625 38.8125 
C 4.09375 35.21875 2.703125 29.140625 2.703125 28.734375 
C 2.703125 28.34375 3.09375 27.84375 3.796875 27.84375 
C 4.59375 27.84375 4.703125 27.9375 5.296875 30.234375 
C 6.796875 36.125 8.703125 42.015625 12.703125 42.015625 
C 15 42.015625 15.796875 40.40625 15.796875 37.421875 
C 15.796875 35.21875 14.796875 31.328125 14.09375 28.234375 
L 11.296875 17.46875 
C 10.90625 15.5625 9.796875 11.078125 9.296875 9.28125 
C 8.59375 6.6875 7.5 2 7.5 1.5 
C 7.5 0.09375 8.59375 -1 10.09375 -1 
C 11.296875 -1 12.703125 -0.40625 13.5 1.09375 
C 13.703125 1.59375 14.59375 5.09375 15.09375 7.078125 
L 17.296875 16.0625 
z
" id="CMMI12-109"/>
     </defs>
     <g transform="translate(40.576557 242.881062)rotate(-90)scale(0.14 -0.14)">
      <use transform="translate(0 24.62935)scale(0.996264)" xlink:href="#CMMI12-64"/>
      <use transform="translate(56.915564 24.62935)scale(0.996264)" xlink:href="#CMSY10-76"/>
      <use transform="translate(125.630372 24.62935)scale(0.996264)" xlink:href="#CMMI12-61"/>
      <use transform="translate(174.405291 24.62935)scale(0.996264)" xlink:href="#CMMI12-64"/>
      <use transform="translate(231.320856 24.62935)scale(0.996264)" xlink:href="#CMMI12-22"/>
      <use transform="translate(290.012277 60.782989)scale(0.697382)" xlink:href="#CMMI12-85"/>
      <use transform="translate(290.012277 0)scale(0.697382)" xlink:href="#CMMI12-109"/>
      <path d="M 290.012277 116.805753 
L 344.171317 116.805753 
L 344.171317 119.595204 
L 290.012277 119.595204 
L 290.012277 116.805753 
z
"/>
     </g>
    </g>
   </g>
   <g id="line2d_27">
    <path clip-path="url(#pa026759e2b)" d="M 92.290909 73.897264 
L 92.430991 220.935494 
L 92.711156 221.039597 
L 92.99132 221.578933 
L 95.092553 227.65867 
L 96.493376 233.878975 
L 102.096664 261.035172 
L 116.104886 329.930228 
L 118.626366 341.957955 
L 119.046612 342.633155 
L 119.466859 342.887825 
L 119.606941 342.930172 
L 120.447435 342.594925 
L 122.68875 342.136166 
L 125.770559 341.727988 
L 129.692861 341.438028 
L 135.156067 341.250408 
L 137.677547 341.102781 
L 139.778781 341.0522 
L 145.802316 341.145716 
L 148.463878 341.056317 
L 154.347331 341.153362 
L 157.008893 341.055729 
L 163.172511 341.136306 
L 165.693991 341.060434 
L 171.297279 341.166302 
L 174.239006 341.063375 
L 179.982377 341.152186 
L 182.643939 341.062787 
L 188.38731 341.154539 
L 191.188954 341.068668 
L 196.512078 341.172771 
L 199.593887 341.071609 
L 204.917011 341.168066 
L 207.858738 341.072197 
L 213.462027 341.150422 
L 216.263671 341.078667 
L 218.08474 341.044554 
L 220.185973 340.756947 
L 222.287206 340.238196 
L 224.388439 339.490066 
L 226.629755 338.439037 
L 228.730988 337.216855 
L 230.972304 335.660602 
L 233.353701 333.722638 
L 235.735099 331.492951 
L 238.256579 328.814502 
L 240.778059 325.811982 
L 243.439621 322.294239 
L 246.241265 318.206576 
L 249.182992 313.495471 
L 252.264801 308.103873 
L 255.346609 302.253516 
L 256.467267 299.79739 
L 257.728007 296.424921 
L 258.988747 292.40666 
L 260.389569 287.189744 
L 261.930474 280.55832 
L 263.61146 272.294771 
L 265.432529 262.179717 
L 266.693269 254.103789 
L 267.39368 246.523675 
L 268.514338 231.353446 
L 269.91516 209.085977 
L 271.1759 188.894099 
L 276.919271 105.588119 
L 279.300668 69.97546 
L 279.720915 68.765041 
L 280.421326 67.439933 
L 280.841573 66.96 
L 281.541984 68.042201 
L 282.382477 68.569775 
L 283.923382 69.456121 
L 285.044039 70.894155 
L 287.705601 74.782434 
L 288.546095 77.312668 
L 289.246506 79.126531 
L 289.666752 79.742327 
L 289.946917 79.8976 
L 290.227081 79.832903 
L 290.507246 79.545884 
L 290.927492 78.716001 
L 291.487821 76.967422 
L 292.608479 72.885053 
L 293.168808 72.38277 
L 294.009301 71.907542 
L 294.849794 71.708747 
L 295.690288 71.754034 
L 296.670863 72.049875 
L 298.071685 72.749777 
L 298.35185 72.90799 
L 299.052261 74.707738 
L 299.61259 77.566162 
L 300.313001 80.9898 
L 300.733248 82.01201 
L 300.87333 82.103761 
L 301.013412 82.060238 
L 301.293576 81.553838 
L 301.573741 80.498104 
L 301.993988 77.995513 
L 302.974563 71.502305 
L 303.534892 70.371875 
L 304.095221 69.747845 
L 304.515467 69.609629 
L 304.935714 69.735494 
L 305.355961 70.094855 
L 305.91629 70.864159 
L 306.896865 72.676846 
L 307.877441 74.781258 
L 309.278263 79.59176 
L 309.558427 79.880543 
L 309.838592 79.778205 
L 310.118756 79.268276 
L 310.539003 77.779661 
L 311.099332 74.745968 
L 311.519578 72.560392 
L 312.079907 71.557003 
L 312.640236 70.974732 
L 313.060483 70.777112 
L 313.480729 70.777701 
L 314.041058 71.055897 
L 314.741469 71.755211 
L 316.002209 73.496732 
L 316.562538 74.35073 
L 317.262949 76.306338 
L 317.823278 77.697908 
L 318.243525 78.214894 
L 318.523689 78.219599 
L 318.803854 77.929052 
L 319.2241 76.956835 
L 319.784429 74.848307 
L 320.344758 72.818591 
L 320.905087 72.132805 
L 321.465416 71.734625 
L 321.885662 71.609349 
L 322.305909 71.757563 
L 323.426567 72.315132 
L 324.687307 73.475558 
L 325.5278 74.412486 
L 326.928622 76.744512 
L 327.208787 76.852732 
L 327.488951 76.766274 
L 327.769115 76.479255 
L 328.189362 75.698188 
L 329.450102 72.912108 
L 330.150513 72.486285 
L 330.850924 72.336894 
L 331.411253 72.450408 
L 332.391829 72.862703 
L 334.072815 73.985487 
L 334.633144 74.663039 
L 337.154624 74.899476 
L 337.995117 73.373808 
L 338.695528 72.98445 
L 339.395939 72.803299 
L 340.236433 72.838 
L 341.217008 73.154427 
L 343.038077 74.072533 
L 344.719064 75.401171 
L 345.13931 75.351766 
L 345.559557 75.072981 
L 346.119886 74.395429 
L 346.820297 73.506142 
L 347.66079 73.193833 
L 348.501283 73.092082 
L 349.481859 73.210301 
L 350.882681 73.653768 
L 352.143421 74.21369 
L 353.264079 74.917709 
L 353.824408 74.971819 
L 354.384737 74.735382 
L 355.085148 74.093119 
L 355.645477 73.610833 
L 356.626052 73.366162 
L 357.606628 73.323815 
L 358.867367 73.5132 
L 360.828519 74.054889 
L 362.229341 74.657745 
L 362.78967 74.644806 
L 363.349998 74.423661 
L 364.890903 73.596129 
L 366.151643 73.479087 
L 367.552465 73.598482 
L 369.79378 74.057829 
L 371.05452 74.441305 
L 371.754931 74.407192 
L 372.455343 74.148993 
L 373.435918 73.723759 
L 374.83674 73.598482 
L 376.377645 73.681412 
L 378.759042 74.046066 
L 380.019782 74.294267 
L 380.860276 74.208397 
L 383.101591 73.701409 
L 384.92266 73.721406 
L 387.584222 74.00019 
L 388.985044 74.182518 
L 389.96562 74.066064 
L 391.646606 73.771399 
L 393.747839 73.770811 
L 396.689566 74.007248 
L 398.090388 74.094295 
L 399.351128 73.91432 
L 400.191621 73.820804 
L 402.713101 73.810805 
L 408.176308 73.912556 
L 409.437048 73.830802 
L 412.378774 73.860798 
L 417.001487 73.910791 
L 418.542392 73.846094 
L 422.464694 73.901381 
L 425.686585 73.919025 
L 428.067983 73.857857 
L 497.969009 73.894911 
L 497.969009 73.894911 
" style="fill:none;stroke:#bf00bf;stroke-linecap:square;stroke-width:1.5;"/>
   </g>
   <g id="line2d_28">
    <path clip-path="url(#pa026759e2b)" d="M 92.290909 73.897264 
L 92.430991 220.935494 
L 92.571074 220.935494 
L 92.99132 222.495863 
L 93.691731 224.969635 
L 94.392142 226.569999 
L 94.812389 227.24461 
L 95.092553 228.829682 
L 95.652882 231.909251 
L 98.874773 247.389436 
L 111.202008 307.714516 
L 118.486284 343.569494 
L 118.626366 343.61243 
L 119.326777 342.651388 
L 119.606941 342.594925 
L 120.587517 342.625509 
L 125.350312 342.332609 
L 132.77467 342.161456 
L 138.097794 341.985599 
L 140.339109 341.977953 
L 144.961823 342.103229 
L 148.884125 341.975012 
L 153.787002 342.092054 
L 157.42914 341.973836 
L 162.752264 342.068528 
L 165.834073 341.969719 
L 171.717526 342.040885 
L 174.379088 341.972071 
L 180.262541 342.037356 
L 182.924103 341.9756 
L 188.247228 342.065587 
L 191.469119 341.98207 
L 196.512078 342.072645 
L 199.874052 341.985011 
L 204.917011 342.068528 
L 208.138902 341.984422 
L 213.181862 342.069116 
L 216.543835 341.990892 
L 218.364904 341.920902 
L 220.466137 341.624473 
L 222.567371 341.09984 
L 224.668604 340.345828 
L 226.909919 339.288918 
L 229.151235 337.971455 
L 231.39255 336.394617 
L 233.773948 334.43548 
L 236.295428 332.042874 
L 238.816908 329.325607 
L 241.47847 326.106646 
L 244.140032 322.530088 
L 246.941676 318.383022 
L 249.883403 313.610161 
L 252.825129 308.414418 
L 255.766856 302.775208 
L 257.027596 299.787979 
L 258.288336 296.16731 
L 259.689158 291.382686 
L 261.230062 285.212374 
L 262.770967 278.121014 
L 264.451953 269.37518 
L 266.273022 258.760784 
L 267.253598 252.165237 
L 268.234173 243.93639 
L 269.354831 232.572687 
L 270.615571 217.294827 
L 273.277133 181.242229 
L 275.938695 142.134177 
L 278.880422 95.637748 
L 279.440751 87.788259 
L 280.141162 80.067576 
L 280.841573 74.406604 
L 281.121737 73.143252 
L 281.541984 73.403803 
L 283.783299 74.904181 
L 284.203546 75.732301 
L 284.763875 77.319137 
L 285.604368 80.506338 
L 287.565519 89.298636 
L 289.106424 96.025341 
L 289.666752 97.639821 
L 290.086999 98.290318 
L 290.367164 98.417947 
L 290.647328 98.291494 
L 290.927492 97.913312 
L 291.347739 96.901689 
L 291.908068 94.859622 
L 293.30889 89.25276 
L 294.149383 86.948965 
L 294.849794 85.708551 
L 295.410123 85.154511 
L 295.83037 84.979829 
L 296.250617 84.995709 
L 296.810945 85.280375 
L 297.371274 85.820888 
L 298.211768 86.9919 
L 298.912179 88.223493 
L 299.892754 90.882532 
L 300.453083 92.22058 
L 300.87333 92.668752 
L 301.153494 92.576412 
L 301.433659 92.122358 
L 301.853905 90.73667 
L 302.414234 87.704153 
L 303.254727 82.873065 
L 303.955139 79.955827 
L 304.515467 78.422512 
L 304.935714 77.75143 
L 305.355961 77.463823 
L 305.776207 77.517345 
L 306.196454 77.854357 
L 306.756783 78.628954 
L 307.737358 80.434583 
L 309.418345 84.110539 
L 309.698509 84.306394 
L 309.978674 84.254048 
L 310.258838 83.929976 
L 310.679085 82.92894 
L 311.239414 80.766302 
L 311.939825 78.071973 
L 312.640236 76.083428 
L 313.200565 75.058278 
L 313.620811 74.633631 
L 314.041058 74.487181 
L 314.461305 74.590108 
L 315.021634 75.045926 
L 315.722045 75.964621 
L 316.842702 77.839065 
L 318.103442 80.084044 
L 318.523689 80.370475 
L 318.803854 80.333421 
L 319.084018 80.095807 
L 319.504265 79.367674 
L 320.344758 77.096816 
L 321.045169 75.418815 
L 321.74558 74.320734 
L 322.165827 73.978429 
L 323.426567 74.260154 
L 323.986896 74.655981 
L 324.967471 75.662899 
L 325.948047 76.923899 
L 326.928622 78.128436 
L 327.348869 78.350758 
L 327.769115 78.290766 
L 328.189362 77.924347 
L 328.749691 77.004476 
L 329.590184 75.507038 
L 330.290595 74.628926 
L 330.850924 74.202515 
L 331.271171 74.056065 
L 332.251746 74.241333 
L 333.09224 74.754202 
L 334.35298 75.827582 
L 334.633144 76.108131 
L 337.294706 76.712164 
L 338.975693 74.809489 
L 339.676104 74.422484 
L 340.376515 74.313676 
L 341.076926 74.448951 
L 342.057501 74.923002 
L 343.598406 75.963445 
L 344.578981 76.607472 
L 345.13931 76.730984 
L 345.699639 76.584534 
L 346.259968 76.171651 
L 347.380626 75.201787 
L 348.221119 74.76126 
L 348.92153 74.615398 
L 349.762023 74.6848 
L 350.742599 75.010637 
L 352.563668 75.911099 
L 353.544243 76.33751 
L 354.104572 76.379857 
L 354.664901 76.22282 
L 355.645477 75.614082 
L 356.48597 75.163557 
L 357.326463 74.919473 
L 358.166956 74.880655 
L 359.287614 75.085921 
L 361.108683 75.704658 
L 362.369423 76.125187 
L 363.069834 76.141067 
L 363.770245 75.935214 
L 365.591314 75.208845 
L 366.571889 75.077687 
L 367.692547 75.154735 
L 369.513616 75.555855 
L 371.474767 75.998734 
L 372.31526 75.918157 
L 375.397069 75.224137 
L 376.797891 75.311771 
L 379.319371 75.761708 
L 380.580111 75.88228 
L 381.560687 75.73877 
L 383.381755 75.379997 
L 384.782578 75.331181 
L 386.883811 75.529976 
L 389.825537 75.771707 
L 394.168086 75.421168 
L 399.351128 75.642313 
L 401.452361 75.454104 
L 403.693677 75.493511 
L 407.896143 75.644078 
L 411.118034 75.475866 
L 414.339925 75.594085 
L 416.721323 75.618787 
L 420.503543 75.502333 
L 427.9279 75.517037 
L 431.71012 75.562325 
L 435.49234 75.549973 
L 439.554724 75.540563 
L 445.57826 75.531152 
L 457.345166 75.542916 
L 483.260376 75.541151 
L 498.109091 75.542327 
L 498.109091 75.542327 
" style="fill:none;stroke:#00bfbf;stroke-linecap:square;stroke-width:1.5;"/>
   </g>
   <g id="line2d_29">
    <path clip-path="url(#pa026759e2b)" d="M 92.290909 73.897264 
L 92.430991 220.935494 
L 92.851238 231.539891 
L 93.411567 240.380417 
L 94.111978 248.036992 
L 94.812389 253.423885 
L 95.5128 256.633435 
L 98.734691 272.170671 
L 110.781762 331.188876 
L 118.486284 368.82831 
L 118.90653 369.318829 
L 119.326777 369.337062 
L 121.988339 368.744792 
L 125.350312 368.371903 
L 130.113108 368.101353 
L 140.759356 367.843154 
L 144.261411 367.964313 
L 150.004782 367.880207 
L 152.946509 367.961372 
L 158.549798 367.875502 
L 161.491524 367.961961 
L 167.094813 367.874326 
L 170.036539 367.960196 
L 175.919992 367.893147 
L 178.581555 367.957255 
L 184.044761 367.872561 
L 187.12657 367.95255 
L 192.589776 367.880207 
L 195.531503 367.950786 
L 200.574463 367.859034 
L 204.076518 367.941963 
L 208.699231 367.849623 
L 212.481451 367.936082 
L 220.185973 367.502025 
L 222.287206 367.003271 
L 224.388439 366.27455 
L 226.489673 365.317037 
L 228.730988 364.042509 
L 230.972304 362.508018 
L 233.213619 360.714152 
L 235.595017 358.524459 
L 238.116497 355.888946 
L 240.778059 352.755267 
L 243.439621 349.262815 
L 246.101183 345.415118 
L 248.902827 340.983974 
L 251.844554 335.915861 
L 254.926363 330.156667 
L 256.187103 327.503509 
L 257.447843 324.239849 
L 258.708583 320.324515 
L 260.109405 315.213466 
L 261.650309 308.692026 
L 263.331296 300.539051 
L 265.152365 290.534569 
L 266.973433 279.30026 
L 267.954009 271.75367 
L 269.074667 261.208677 
L 270.195324 248.551626 
L 272.016393 224.637328 
L 274.677955 186.729108 
L 277.4796 143.605148 
L 279.860997 107.264943 
L 280.561408 100.357675 
L 280.981655 97.521014 
L 281.261819 96.815819 
L 281.541984 96.602319 
L 281.822148 96.757591 
L 282.522559 97.609825 
L 283.923382 99.580137 
L 284.48371 101.089338 
L 285.184122 103.746024 
L 286.304779 109.029402 
L 288.826259 121.154763 
L 289.52667 123.562073 
L 289.946917 124.393133 
L 290.227081 124.638981 
L 290.507246 124.623689 
L 290.78741 124.344904 
L 291.207657 123.454441 
L 291.767986 121.502949 
L 293.729137 113.532889 
L 294.429548 111.825481 
L 294.989877 110.947957 
L 295.550206 110.488021 
L 295.970452 110.39921 
L 296.390699 110.509783 
L 296.951028 110.930312 
L 297.651439 111.814306 
L 298.632014 113.518185 
L 299.472508 115.492614 
L 300.453083 117.956975 
L 300.733248 118.299868 
L 301.013412 118.347509 
L 301.293576 118.048139 
L 301.573741 117.374116 
L 301.993988 115.662591 
L 302.554316 112.277182 
L 303.39481 107.22142 
L 304.095221 104.332413 
L 304.65555 102.930844 
L 305.075796 102.39739 
L 305.496043 102.267996 
L 305.91629 102.487377 
L 306.336536 102.987307 
L 307.036947 104.233015 
L 308.297687 106.989688 
L 309.138181 108.901185 
L 309.558427 109.419347 
L 309.838592 109.483456 
L 310.118756 109.283484 
L 310.398921 108.805316 
L 310.819167 107.583722 
L 311.519578 104.54356 
L 312.219989 101.919221 
L 312.9204 100.13006 
L 313.480729 99.349581 
L 313.900976 99.1302 
L 314.321223 99.194897 
L 314.741469 99.500737 
L 315.301798 100.196521 
L 316.422456 102.065083 
L 318.383607 105.306982 
L 318.663771 105.361092 
L 318.943936 105.218171 
L 319.364182 104.624137 
L 319.924511 103.197278 
L 320.905087 100.408257 
L 321.605498 99.12079 
L 322.025745 98.675558 
L 322.445991 98.601451 
L 323.146402 98.833183 
L 323.706731 99.183722 
L 324.407142 99.891858 
L 325.948047 101.860406 
L 326.78854 102.937902 
L 327.208787 103.239037 
L 327.629033 103.274914 
L 328.04928 103.004364 
L 328.469526 102.435032 
L 330.290595 99.333701 
L 330.850924 98.891998 
L 331.271171 98.764957 
L 331.971582 98.879059 
L 332.671993 99.256065 
L 333.792651 100.214754 
L 334.493062 100.878191 
L 337.154624 101.775712 
L 337.855035 100.836432 
L 338.555446 99.963613 
L 339.255857 99.377224 
L 339.956268 99.099616 
L 340.656679 99.116673 
L 341.35709 99.372519 
L 342.477748 100.071833 
L 344.859146 101.62044 
L 345.419475 101.611617 
L 345.979804 101.322834 
L 346.680215 100.64587 
L 347.520708 99.930676 
L 348.361201 99.517793 
L 349.061612 99.417807 
L 349.902106 99.554847 
L 351.022763 100.024193 
L 353.824408 101.308719 
L 354.384737 101.25108 
L 355.085148 100.902893 
L 356.48597 100.014782 
L 357.326463 99.761288 
L 358.166956 99.733057 
L 359.147532 99.930088 
L 361.108683 100.634695 
L 362.369423 101.057577 
L 363.069834 101.072869 
L 363.770245 100.864075 
L 365.731396 100.050071 
L 366.711972 99.950085 
L 367.832629 100.073598 
L 369.933863 100.60764 
L 371.334685 100.926419 
L 372.175178 100.882896 
L 373.155754 100.56647 
L 374.416494 100.213578 
L 375.537151 100.116533 
L 376.937973 100.245926 
L 380.860276 100.801143 
L 381.980933 100.559412 
L 383.381755 100.287097 
L 384.782578 100.242397 
L 386.743729 100.448839 
L 389.545373 100.729976 
L 390.806113 100.55059 
L 392.347017 100.342383 
L 394.028004 100.33709 
L 399.49121 100.560588 
L 401.452361 100.377084 
L 403.553595 100.418255 
L 408.036226 100.571175 
L 410.977952 100.403551 
L 414.199843 100.525887 
L 416.721323 100.557647 
L 420.643625 100.438252 
L 427.087407 100.470013 
L 430.309298 100.467072 
L 435.352258 100.49001 
L 439.414642 100.475894 
L 445.438177 100.46766 
L 457.205084 100.479423 
L 470.793059 100.48354 
L 484.240951 100.481188 
L 498.109091 100.479423 
L 498.109091 100.479423 
" style="fill:none;stroke:#ff0000;stroke-linecap:square;stroke-width:1.5;"/>
   </g>
   <g id="line2d_30">
    <path clip-path="url(#pa026759e2b)" d="M 92.290909 73.897264 
L 92.430991 220.935494 
L 92.571074 220.935494 
L 92.851238 223.770979 
L 94.532225 246.543672 
L 95.092553 251.150085 
L 95.933047 254.796634 
L 99.29502 270.972015 
L 111.482173 330.360168 
L 118.626366 365.002963 
L 119.326777 366.819768 
L 119.606941 367.040913 
L 119.887106 366.995037 
L 121.568092 366.021056 
L 123.389161 365.337034 
L 125.630477 364.74594 
L 128.292039 364.279535 
L 131.654012 363.922526 
L 136.977136 363.608453 
L 139.778781 363.509055 
L 146.222563 363.571987 
L 148.744042 363.521406 
L 154.067167 363.624333 
L 157.148975 363.516113 
L 163.172511 363.590808 
L 165.974155 363.525523 
L 171.297279 363.617275 
L 174.379088 363.52317 
L 179.982377 363.605512 
L 182.924103 363.527287 
L 188.38731 363.607276 
L 191.469119 363.533169 
L 196.512078 363.622568 
L 200.014134 363.541403 
L 204.636847 363.633743 
L 208.419067 363.546697 
L 212.901698 363.634331 
L 216.964082 363.539639 
L 219.065315 363.397894 
L 221.026466 363.059706 
L 223.1277 362.477435 
L 225.228933 361.66696 
L 227.470248 360.550646 
L 229.711564 359.176132 
L 232.092961 357.432259 
L 234.334277 355.525467 
L 236.715675 353.218143 
L 239.237154 350.46147 
L 241.898717 347.202515 
L 244.700361 343.388343 
L 247.502005 339.184226 
L 250.443732 334.354315 
L 253.525541 328.84391 
L 255.626774 324.748013 
L 256.607349 322.146613 
L 257.868089 318.090122 
L 259.268911 312.786159 
L 260.809816 306.050632 
L 262.490802 297.674746 
L 264.311871 287.442061 
L 266.273022 275.140255 
L 267.533762 266.126223 
L 268.514338 257.358039 
L 269.634995 245.343252 
L 270.895735 229.240801 
L 273.557298 191.371399 
L 276.499024 146.071861 
L 280.141162 89.474494 
L 280.841573 83.18361 
L 281.121737 81.611477 
L 281.541984 80.839233 
L 281.822148 80.914516 
L 282.242395 81.447971 
L 283.363053 83.485921 
L 284.063464 84.984534 
L 284.623793 86.838392 
L 285.464286 90.576104 
L 287.145273 99.538967 
L 289.106424 109.434051 
L 289.666752 111.374956 
L 290.086999 112.234247 
L 290.367164 112.477743 
L 290.647328 112.444806 
L 290.927492 112.136026 
L 291.347739 111.180865 
L 291.908068 109.125859 
L 293.729137 101.511631 
L 294.429548 99.754819 
L 294.989877 98.863767 
L 295.550206 98.412654 
L 295.970452 98.345016 
L 296.390699 98.487937 
L 296.951028 98.968458 
L 297.651439 99.95185 
L 298.632014 101.818059 
L 299.472508 103.907766 
L 300.593165 106.973808 
L 300.87333 107.317289 
L 301.153494 107.336698 
L 301.433659 106.982042 
L 301.713823 106.228618 
L 302.13407 104.364173 
L 302.834481 99.73541 
L 303.534892 95.593049 
L 304.235303 92.748741 
L 304.795632 91.440689 
L 305.215878 91.001339 
L 305.496043 90.944288 
L 305.776207 91.055449 
L 306.196454 91.491858 
L 306.756783 92.456429 
L 308.017523 95.291914 
L 309.418345 98.674382 
L 309.698509 98.970811 
L 309.978674 99.013746 
L 310.258838 98.773191 
L 310.539003 98.237972 
L 310.959249 96.908159 
L 312.780318 89.891494 
L 313.340647 88.885165 
L 313.760894 88.527568 
L 314.18114 88.486397 
L 314.601387 88.723422 
L 315.161716 89.384506 
L 316.002209 90.834303 
L 318.383607 95.270741 
L 318.663771 95.407192 
L 318.943936 95.340143 
L 319.2241 95.059006 
L 319.644347 94.244414 
L 320.204676 92.558768 
L 320.905087 90.500821 
L 321.605498 89.111603 
L 322.165827 88.513452 
L 322.586073 88.483456 
L 323.146402 88.720482 
L 323.846813 89.244526 
L 324.687307 90.245562 
L 327.348869 93.677435 
L 327.769115 93.693903 
L 328.189362 93.385123 
L 328.609609 92.764033 
L 330.290595 89.741515 
L 330.850924 89.25923 
L 331.271171 89.0969 
L 331.8315 89.172183 
L 332.531911 89.518017 
L 333.372404 90.235564 
L 334.633144 91.520678 
L 337.294706 92.42761 
L 337.995117 91.424809 
L 338.695528 90.542579 
L 339.395939 89.972071 
L 339.956268 89.75269 
L 340.516597 89.735634 
L 341.217008 89.956779 
L 342.197584 90.569635 
L 344.999228 92.533477 
L 345.559557 92.507598 
L 346.119886 92.185879 
L 348.221119 90.440241 
L 348.92153 90.277911 
L 349.621941 90.334961 
L 350.462434 90.629038 
L 352.143421 91.524795 
L 353.544243 92.269985 
L 354.104572 92.352326 
L 354.664901 92.224109 
L 355.365312 91.787699 
L 356.345888 91.117205 
L 357.186381 90.796662 
L 358.026874 90.719025 
L 359.00745 90.890766 
L 360.548354 91.456569 
L 362.78967 92.217639 
L 363.490081 92.126475 
L 364.330574 91.730648 
L 365.311149 91.280123 
L 366.291725 91.063095 
L 367.2723 91.076034 
L 368.53304 91.336586 
L 371.754931 92.119417 
L 372.595425 91.980613 
L 374.976822 91.30012 
L 376.09748 91.296003 
L 377.638385 91.53597 
L 380.580111 92.040605 
L 381.560687 91.910035 
L 383.66192 91.463627 
L 385.062742 91.455393 
L 387.163975 91.716533 
L 389.685455 91.968262 
L 390.946195 91.772407 
L 392.4871 91.563613 
L 394.028004 91.561848 
L 397.249895 91.874746 
L 398.790799 91.904742 
L 403.133348 91.639485 
L 408.456472 91.800639 
L 410.557705 91.663599 
L 413.079185 91.729472 
L 417.001487 91.815931 
L 420.223378 91.695359 
L 435.072093 91.778289 
L 438.854313 91.740647 
L 445.57826 91.743588 
L 457.065001 91.756527 
L 470.933141 91.762997 
L 484.240951 91.76182 
L 498.109091 91.760644 
L 498.109091 91.760644 
" style="fill:none;stroke:#008000;stroke-linecap:square;stroke-width:1.5;"/>
   </g>
   <g id="patch_3">
    <path d="M 72 384.48 
L 72 51.84 
" style="fill:none;stroke:#000000;stroke-linecap:square;stroke-linejoin:miter;stroke-width:0.8;"/>
   </g>
   <g id="patch_4">
    <path d="M 518.4 384.48 
L 518.4 51.84 
" style="fill:none;stroke:#000000;stroke-linecap:square;stroke-linejoin:miter;stroke-width:0.8;"/>
   </g>
   <g id="patch_5">
    <path d="M 72 384.48 
L 518.4 384.48 
" style="fill:none;stroke:#000000;stroke-linecap:square;stroke-linejoin:miter;stroke-width:0.8;"/>
   </g>
   <g id="patch_6">
    <path d="M 72 51.84 
L 518.4 51.84 
" style="fill:none;stroke:#000000;stroke-linecap:square;stroke-linejoin:miter;stroke-width:0.8;"/>
   </g>
   <g id="legend_1">
    <g id="patch_7">
     <path d="M 443.185706 379.48 
L 511.4 379.48 
Q 513.4 379.48 513.4 377.48 
L 513.4 310.531024 
Q 513.4 308.531024 511.4 308.531024 
L 443.185706 308.531024 
Q 441.185706 308.531024 441.185706 310.531024 
L 441.185706 377.48 
Q 441.185706 379.48 443.185706 379.48 
z
" style="fill:#ffffff;opacity:0.8;stroke:#cccccc;stroke-linejoin:miter;"/>
    </g>
    <g id="line2d_31">
     <path d="M 445.185706 319.08109 
L 465.185706 319.08109 
" style="fill:none;stroke:#bf00bf;stroke-linecap:square;stroke-width:1.5;"/>
    </g>
    <g id="line2d_32"/>
    <g id="text_16">
     <!-- $\partial \mathcal{L}/ \partial \mu^{\overline{U}}_{1}$ -->
     <g transform="translate(473.185706 322.58109)scale(0.1 -0.1)">
      <use transform="translate(0 24.740171)scale(0.996264)" xlink:href="#CMMI12-64"/>
      <use transform="translate(56.915564 24.740171)scale(0.996264)" xlink:href="#CMSY10-76"/>
      <use transform="translate(125.630372 24.740171)scale(0.996264)" xlink:href="#CMMI12-61"/>
      <use transform="translate(174.405291 24.740171)scale(0.996264)" xlink:href="#CMMI12-64"/>
      <use transform="translate(231.320856 24.740171)scale(0.996264)" xlink:href="#CMMI12-22"/>
      <use transform="translate(290.012277 60.89381)scale(0.697382)" xlink:href="#CMMI12-85"/>
      <use transform="translate(290.012277 0)scale(0.697382)" xlink:href="#CMR17-49"/>
      <path d="M 290.012277 116.916574 
L 344.171317 116.916574 
L 344.171317 119.706025 
L 290.012277 119.706025 
L 290.012277 116.916574 
z
"/>
     </g>
    </g>
    <g id="line2d_33">
     <path d="M 445.185706 336.068334 
L 465.185706 336.068334 
" style="fill:none;stroke:#00bfbf;stroke-linecap:square;stroke-width:1.5;"/>
    </g>
    <g id="line2d_34"/>
    <g id="text_17">
     <!-- $\partial \mathcal{L}/ \partial \mu^{\overline{U}}_{2}$ -->
     <g transform="translate(473.185706 339.568334)scale(0.1 -0.1)">
      <use transform="translate(0 24.740171)scale(0.996264)" xlink:href="#CMMI12-64"/>
      <use transform="translate(56.915564 24.740171)scale(0.996264)" xlink:href="#CMSY10-76"/>
      <use transform="translate(125.630372 24.740171)scale(0.996264)" xlink:href="#CMMI12-61"/>
      <use transform="translate(174.405291 24.740171)scale(0.996264)" xlink:href="#CMMI12-64"/>
      <use transform="translate(231.320856 24.740171)scale(0.996264)" xlink:href="#CMMI12-22"/>
      <use transform="translate(290.012277 60.89381)scale(0.697382)" xlink:href="#CMMI12-85"/>
      <use transform="translate(290.012277 0)scale(0.697382)" xlink:href="#CMR17-50"/>
      <path d="M 290.012277 116.916574 
L 344.171317 116.916574 
L 344.171317 119.706025 
L 290.012277 119.706025 
L 290.012277 116.916574 
z
"/>
     </g>
    </g>
    <g id="line2d_35">
     <path d="M 445.185706 353.055578 
L 465.185706 353.055578 
" style="fill:none;stroke:#ff0000;stroke-linecap:square;stroke-width:1.5;"/>
    </g>
    <g id="line2d_36"/>
    <g id="text_18">
     <!-- $\partial \mathcal{L}/ \partial \mu^{\overline{U}}_{3}$ -->
     <g transform="translate(473.185706 356.555578)scale(0.1 -0.1)">
      <use transform="translate(0 24.740171)scale(0.996264)" xlink:href="#CMMI12-64"/>
      <use transform="translate(56.915564 24.740171)scale(0.996264)" xlink:href="#CMSY10-76"/>
      <use transform="translate(125.630372 24.740171)scale(0.996264)" xlink:href="#CMMI12-61"/>
      <use transform="translate(174.405291 24.740171)scale(0.996264)" xlink:href="#CMMI12-64"/>
      <use transform="translate(231.320856 24.740171)scale(0.996264)" xlink:href="#CMMI12-22"/>
      <use transform="translate(290.012277 60.89381)scale(0.697382)" xlink:href="#CMMI12-85"/>
      <use transform="translate(290.012277 0)scale(0.697382)" xlink:href="#CMR17-51"/>
      <path d="M 290.012277 116.916574 
L 344.171317 116.916574 
L 344.171317 119.706025 
L 290.012277 119.706025 
L 290.012277 116.916574 
z
"/>
     </g>
    </g>
    <g id="line2d_37">
     <path d="M 445.185706 370.042822 
L 465.185706 370.042822 
" style="fill:none;stroke:#008000;stroke-linecap:square;stroke-width:1.5;"/>
    </g>
    <g id="line2d_38"/>
    <g id="text_19">
     <!-- $\partial \mathcal{L}/ \partial \mu^{\overline{U}}_{4}$ -->
     <g transform="translate(473.185706 373.542822)scale(0.1 -0.1)">
      <use transform="translate(0 24.740171)scale(0.996264)" xlink:href="#CMMI12-64"/>
      <use transform="translate(56.915564 24.740171)scale(0.996264)" xlink:href="#CMSY10-76"/>
      <use transform="translate(125.630372 24.740171)scale(0.996264)" xlink:href="#CMMI12-61"/>
      <use transform="translate(174.405291 24.740171)scale(0.996264)" xlink:href="#CMMI12-64"/>
      <use transform="translate(231.320856 24.740171)scale(0.996264)" xlink:href="#CMMI12-22"/>
      <use transform="translate(290.012277 60.89381)scale(0.697382)" xlink:href="#CMMI12-85"/>
      <use transform="translate(290.012277 0)scale(0.697382)" xlink:href="#CMR17-52"/>
      <path d="M 290.012277 116.916574 
L 344.171317 116.916574 
L 344.171317 119.706025 
L 290.012277 119.706025 
L 290.012277 116.916574 
z
"/>
     </g>
    </g>
   </g>
  </g>
 </g>
 <defs>
  <clipPath id="pa026759e2b">
   <rect height="332.64" width="446.4" x="72" y="51.84"/>
  </clipPath>
 </defs>
</svg>
