<?xml version="1.0" encoding="utf-8" standalone="no"?>
<!DOCTYPE svg PUBLIC "-//W3C//DTD SVG 1.1//EN"
  "http://www.w3.org/Graphics/SVG/1.1/DTD/svg11.dtd">
<!-- Created with matplotlib (http://matplotlib.org/) -->
<svg height="432pt" version="1.1" viewBox="0 0 576 432" width="576pt" xmlns="http://www.w3.org/2000/svg" xmlns:xlink="http://www.w3.org/1999/xlink">
 <defs>
  <style type="text/css">
*{stroke-linecap:butt;stroke-linejoin:round;}
  </style>
 </defs>
 <g id="figure_1">
  <g id="patch_1">
   <path d="M 0 432 
L 576 432 
L 576 0 
L 0 0 
z
" style="fill:#ffffff;"/>
  </g>
  <g id="axes_1">
   <g id="patch_2">
    <path d="M 72 384.48 
L 518.4 384.48 
L 518.4 51.84 
L 72 51.84 
z
" style="fill:#ffffff;"/>
   </g>
   <g id="matplotlib.axis_1">
    <g id="xtick_1">
     <g id="line2d_1">
      <path clip-path="url(#pc1914576ce)" d="M 92.290909 384.48 
L 92.290909 51.84 
" style="fill:none;stroke:#b0b0b0;stroke-dasharray:5.12,1.28,0.8,1.28;stroke-dashoffset:0;stroke-width:0.8;"/>
     </g>
     <g id="line2d_2">
      <defs>
       <path d="M 0 0 
L 0 3.5 
" id="m7184ae164c" style="stroke:#000000;stroke-width:0.8;"/>
      </defs>
      <g>
       <use style="stroke:#000000;stroke-width:0.8;" x="92.290909" xlink:href="#m7184ae164c" y="384.48"/>
      </g>
     </g>
     <g id="text_1">
      <!-- $0$ -->
      <defs>
       <path d="M 42 31.640625 
C 42 37.75 41.90625 48.125 37.703125 56.109375 
C 34 63.109375 28.09375 65.59375 22.90625 65.59375 
C 18.09375 65.59375 12 63.40625 8.203125 56.203125 
C 4.203125 48.71875 3.796875 39.4375 3.796875 31.640625 
C 3.796875 25.953125 3.90625 17.28125 7 9.671875 
C 11.296875 -0.609375 19 -2 22.90625 -2 
C 27.5 -2 34.5 -0.109375 38.59375 9.375 
C 41.59375 16.28125 42 24.359375 42 31.640625 
z
M 22.90625 -0.40625 
C 16.5 -0.40625 12.703125 5.078125 11.296875 12.6875 
C 10.203125 18.5625 10.203125 27.15625 10.203125 32.75 
C 10.203125 40.4375 10.203125 46.828125 11.5 52.921875 
C 13.40625 61.390625 19 64 22.90625 64 
C 27 64 32.296875 61.296875 34.203125 53.125 
C 35.5 47.4375 35.59375 40.734375 35.59375 32.75 
C 35.59375 26.25 35.59375 18.265625 34.40625 12.375 
C 32.296875 1.484375 26.40625 -0.40625 22.90625 -0.40625 
z
" id="CMR17-48"/>
      </defs>
      <g transform="translate(89.800241 398.398498)scale(0.1 -0.1)">
       <use transform="scale(0.996264)" xlink:href="#CMR17-48"/>
      </g>
     </g>
    </g>
    <g id="xtick_2">
     <g id="line2d_3">
      <path clip-path="url(#pc1914576ce)" d="M 162.332017 384.48 
L 162.332017 51.84 
" style="fill:none;stroke:#b0b0b0;stroke-dasharray:5.12,1.28,0.8,1.28;stroke-dashoffset:0;stroke-width:0.8;"/>
     </g>
     <g id="line2d_4">
      <g>
       <use style="stroke:#000000;stroke-width:0.8;" x="162.332017" xlink:href="#m7184ae164c" y="384.48"/>
      </g>
     </g>
     <g id="text_2">
      <!-- $500$ -->
      <defs>
       <path d="M 11.40625 57.6875 
C 12.40625 57.28125 16.5 56 20.703125 56 
C 30 56 35.09375 61.109375 38 64.0625 
C 38 64.953125 38 65.5 37.40625 65.5 
C 37.296875 65.5 37.09375 65.5 36.296875 65.046875 
C 32.796875 63.40625 28.703125 62.078125 23.703125 62.078125 
C 20.703125 62.078125 16.203125 62.484375 11.296875 64.671875 
C 10.203125 65.171875 10 65.171875 9.90625 65.171875 
C 9.40625 65.171875 9.296875 65.0625 9.296875 63.078125 
L 9.296875 34.421875 
C 9.296875 32.640625 9.296875 32.140625 10.296875 32.140625 
C 10.796875 32.140625 11 32.34375 11.5 33.03125 
C 14.703125 37.515625 19.09375 39.40625 24.09375 39.40625 
C 27.59375 39.40625 35.09375 37.21875 35.09375 20.140625 
C 35.09375 16.953125 35.09375 11.171875 32.09375 6.578125 
C 29.59375 2.484375 25.703125 0.390625 21.40625 0.390625 
C 14.796875 0.390625 8.09375 5 6.296875 12.71875 
C 6.703125 12.609375 7.5 12.421875 7.90625 12.421875 
C 9.203125 12.421875 11.703125 13.125 11.703125 16.21875 
C 11.703125 18.90625 9.796875 20 7.90625 20 
C 5.59375 20 4.09375 18.59375 4.09375 15.796875 
C 4.09375 7.09375 11 -2 21.59375 -2 
C 31.90625 -2 41.703125 6.875 41.703125 19.75 
C 41.703125 31.71875 33.90625 41 24.203125 41 
C 19.09375 41 14.796875 39.109375 11.40625 35.53125 
z
" id="CMR17-53"/>
      </defs>
      <g transform="translate(154.860015 398.398498)scale(0.1 -0.1)">
       <use transform="scale(0.996264)" xlink:href="#CMR17-53"/>
       <use transform="translate(45.690477 0)scale(0.996264)" xlink:href="#CMR17-48"/>
       <use transform="translate(91.380954 0)scale(0.996264)" xlink:href="#CMR17-48"/>
      </g>
     </g>
    </g>
    <g id="xtick_3">
     <g id="line2d_5">
      <path clip-path="url(#pc1914576ce)" d="M 232.373126 384.48 
L 232.373126 51.84 
" style="fill:none;stroke:#b0b0b0;stroke-dasharray:5.12,1.28,0.8,1.28;stroke-dashoffset:0;stroke-width:0.8;"/>
     </g>
     <g id="line2d_6">
      <g>
       <use style="stroke:#000000;stroke-width:0.8;" x="232.373126" xlink:href="#m7184ae164c" y="384.48"/>
      </g>
     </g>
     <g id="text_3">
      <!-- $1000$ -->
      <defs>
       <path d="M 26.59375 63.40625 
C 26.59375 65.5 26.5 65.5 25.09375 65.5 
C 21.203125 61.1875 15.296875 59.796875 9.703125 59.796875 
C 9.40625 59.796875 8.90625 59.796875 8.796875 59.5 
C 8.703125 59.296875 8.703125 59.09375 8.703125 57 
C 11.796875 57 17 57.59375 21 59.984375 
L 21 7.203125 
C 21 3.6875 20.796875 2.5 12.203125 2.5 
L 9.203125 2.5 
L 9.203125 0 
C 14 0 19 0 23.796875 0 
C 28.59375 0 33.59375 0 38.40625 0 
L 38.40625 2.5 
L 35.40625 2.5 
C 26.796875 2.5 26.59375 3.59375 26.59375 7.15625 
z
" id="CMR17-49"/>
      </defs>
      <g transform="translate(222.410455 398.398498)scale(0.1 -0.1)">
       <use transform="scale(0.996264)" xlink:href="#CMR17-49"/>
       <use transform="translate(45.690477 0)scale(0.996264)" xlink:href="#CMR17-48"/>
       <use transform="translate(91.380954 0)scale(0.996264)" xlink:href="#CMR17-48"/>
       <use transform="translate(137.071431 0)scale(0.996264)" xlink:href="#CMR17-48"/>
      </g>
     </g>
    </g>
    <g id="xtick_4">
     <g id="line2d_7">
      <path clip-path="url(#pc1914576ce)" d="M 302.414234 384.48 
L 302.414234 51.84 
" style="fill:none;stroke:#b0b0b0;stroke-dasharray:5.12,1.28,0.8,1.28;stroke-dashoffset:0;stroke-width:0.8;"/>
     </g>
     <g id="line2d_8">
      <g>
       <use style="stroke:#000000;stroke-width:0.8;" x="302.414234" xlink:href="#m7184ae164c" y="384.48"/>
      </g>
     </g>
     <g id="text_4">
      <!-- $1500$ -->
      <g transform="translate(292.451564 398.398498)scale(0.1 -0.1)">
       <use transform="scale(0.996264)" xlink:href="#CMR17-49"/>
       <use transform="translate(45.690477 0)scale(0.996264)" xlink:href="#CMR17-53"/>
       <use transform="translate(91.380954 0)scale(0.996264)" xlink:href="#CMR17-48"/>
       <use transform="translate(137.071431 0)scale(0.996264)" xlink:href="#CMR17-48"/>
      </g>
     </g>
    </g>
    <g id="xtick_5">
     <g id="line2d_9">
      <path clip-path="url(#pc1914576ce)" d="M 372.455343 384.48 
L 372.455343 51.84 
" style="fill:none;stroke:#b0b0b0;stroke-dasharray:5.12,1.28,0.8,1.28;stroke-dashoffset:0;stroke-width:0.8;"/>
     </g>
     <g id="line2d_10">
      <g>
       <use style="stroke:#000000;stroke-width:0.8;" x="372.455343" xlink:href="#m7184ae164c" y="384.48"/>
      </g>
     </g>
     <g id="text_5">
      <!-- $2000$ -->
      <defs>
       <path d="M 41.703125 15.453125 
L 39.90625 15.453125 
C 38.90625 8.375 38.09375 7.171875 37.703125 6.5625 
C 37.203125 5.765625 30 5.765625 28.59375 5.765625 
L 9.40625 5.765625 
C 13 9.671875 20 16.75 28.5 24.953125 
C 34.59375 30.734375 41.703125 37.53125 41.703125 47.421875 
C 41.703125 59.21875 32.296875 66 21.796875 66 
C 10.796875 66 4.09375 56.3125 4.09375 47.34375 
C 4.09375 43.4375 7 42.9375 8.203125 42.9375 
C 9.203125 42.9375 12.203125 43.546875 12.203125 47.03125 
C 12.203125 50.109375 9.59375 51 8.203125 51 
C 7.59375 51 7 50.90625 6.59375 50.703125 
C 8.5 59.21875 14.296875 63.40625 20.40625 63.40625 
C 29.09375 63.40625 34.796875 56.515625 34.796875 47.421875 
C 34.796875 38.734375 29.703125 31.25 24 24.75 
L 4.09375 2.28125 
L 4.09375 0 
L 39.296875 0 
z
" id="CMR17-50"/>
      </defs>
      <g transform="translate(362.492672 398.398498)scale(0.1 -0.1)">
       <use transform="scale(0.996264)" xlink:href="#CMR17-50"/>
       <use transform="translate(45.690477 0)scale(0.996264)" xlink:href="#CMR17-48"/>
       <use transform="translate(91.380954 0)scale(0.996264)" xlink:href="#CMR17-48"/>
       <use transform="translate(137.071431 0)scale(0.996264)" xlink:href="#CMR17-48"/>
      </g>
     </g>
    </g>
    <g id="xtick_6">
     <g id="line2d_11">
      <path clip-path="url(#pc1914576ce)" d="M 442.496451 384.48 
L 442.496451 51.84 
" style="fill:none;stroke:#b0b0b0;stroke-dasharray:5.12,1.28,0.8,1.28;stroke-dashoffset:0;stroke-width:0.8;"/>
     </g>
     <g id="line2d_12">
      <g>
       <use style="stroke:#000000;stroke-width:0.8;" x="442.496451" xlink:href="#m7184ae164c" y="384.48"/>
      </g>
     </g>
     <g id="text_6">
      <!-- $2500$ -->
      <g transform="translate(432.53378 398.398498)scale(0.1 -0.1)">
       <use transform="scale(0.996264)" xlink:href="#CMR17-50"/>
       <use transform="translate(45.690477 0)scale(0.996264)" xlink:href="#CMR17-53"/>
       <use transform="translate(91.380954 0)scale(0.996264)" xlink:href="#CMR17-48"/>
       <use transform="translate(137.071431 0)scale(0.996264)" xlink:href="#CMR17-48"/>
      </g>
     </g>
    </g>
    <g id="xtick_7">
     <g id="line2d_13">
      <path clip-path="url(#pc1914576ce)" d="M 512.537559 384.48 
L 512.537559 51.84 
" style="fill:none;stroke:#b0b0b0;stroke-dasharray:5.12,1.28,0.8,1.28;stroke-dashoffset:0;stroke-width:0.8;"/>
     </g>
     <g id="line2d_14">
      <g>
       <use style="stroke:#000000;stroke-width:0.8;" x="512.537559" xlink:href="#m7184ae164c" y="384.48"/>
      </g>
     </g>
     <g id="text_7">
      <!-- $3000$ -->
      <defs>
       <path d="M 22.09375 33.703125 
C 31 33.703125 34.90625 25.96875 34.90625 17.03125 
C 34.90625 5 28.5 0.390625 22.703125 0.390625 
C 17.40625 0.390625 8.796875 3.03125 6.09375 10.828125 
C 6.59375 10.625 7.09375 10.625 7.59375 10.625 
C 10 10.625 11.796875 12.21875 11.796875 14.8125 
C 11.796875 17.703125 9.59375 19 7.59375 19 
C 5.90625 19 3.296875 18.203125 3.296875 14.46875 
C 3.296875 5.234375 12.296875 -2 22.90625 -2 
C 34 -2 42.5 6.71875 42.5 16.953125 
C 42.5 26.671875 34.5 33.703125 25 34.796875 
C 32.59375 36.375 39.90625 43.0625 39.90625 52.015625 
C 39.90625 59.6875 32 65.296875 23 65.296875 
C 13.90625 65.296875 5.90625 59.828125 5.90625 52.015625 
C 5.90625 48.59375 8.5 48 9.796875 48 
C 11.90625 48 13.703125 49.296875 13.703125 51.890625 
C 13.703125 54.46875 11.90625 55.765625 9.796875 55.765625 
C 9.40625 55.765625 8.90625 55.765625 8.5 55.578125 
C 11.40625 61.859375 19.296875 63 22.796875 63 
C 26.296875 63 32.90625 61.328125 32.90625 51.875 
C 32.90625 49.109375 32.5 44.1875 29.09375 39.84375 
C 26.09375 36 22.703125 36 19.40625 35.6875 
C 18.90625 35.6875 16.59375 35.453125 16.203125 35.453125 
C 15.5 35.359375 15.09375 35.265625 15.09375 34.5 
C 15.09375 33.796875 15.203125 33.703125 17.203125 33.703125 
z
" id="CMR17-51"/>
      </defs>
      <g transform="translate(502.574889 398.398498)scale(0.1 -0.1)">
       <use transform="scale(0.996264)" xlink:href="#CMR17-51"/>
       <use transform="translate(45.690477 0)scale(0.996264)" xlink:href="#CMR17-48"/>
       <use transform="translate(91.380954 0)scale(0.996264)" xlink:href="#CMR17-48"/>
       <use transform="translate(137.071431 0)scale(0.996264)" xlink:href="#CMR17-48"/>
      </g>
     </g>
    </g>
    <g id="text_8">
     <!-- Iteration -->
     <defs>
      <path d="M 17.09375 69 
L 8.703125 69 
L 8.703125 0 
L 17.09375 0 
z
" id="CMSS17-73"/>
      <path d="M 16.703125 37 
L 29.703125 37 
L 29.703125 42.765625 
L 16.703125 42.765625 
L 16.703125 55 
L 9.59375 55 
L 9.59375 42.765625 
L 1.703125 42.765625 
L 1.703125 37 
L 9.40625 37 
L 9.40625 11.703125 
C 9.40625 6 10.703125 -1 17.296875 -1 
C 22.296875 -1 26.90625 0.390625 31.296875 2.6875 
L 29.703125 8.5625 
C 27.296875 6.46875 24.40625 5.265625 21.296875 5.265625 
C 16.90625 5.265625 16.703125 10.875 16.703125 13.375 
z
" id="CMSS17-116"/>
      <path d="M 39.09375 21.515625 
C 39.09375 24.84375 38.90625 31.296875 35.703125 36.640625 
C 32.203125 42.390625 26.5 44 22.203125 44 
C 11.796875 44 3 34.1875 3 21.484375 
C 3 9.09375 12.09375 -1 23.59375 -1 
C 28.09375 -1 33.59375 0.296875 38.59375 3.875 
C 38.59375 4.28125 38.40625 6.46875 38.296875 6.5625 
C 38.296875 6.765625 38 9.84375 38 10.25 
C 33.203125 6.359375 27.703125 5.078125 23.703125 5.078125 
C 17.296875 5.078125 10.40625 10.421875 10.09375 21.515625 
z
M 10.90625 27 
C 12.203125 32.5625 16.59375 37.828125 22.203125 37.828125 
C 23.703125 37.828125 30.703125 37.828125 32.5 27 
z
" id="CMSS17-101"/>
      <path d="M 14.90625 21.296875 
C 14.90625 30.703125 21.796875 37 30.59375 37 
L 30.59375 43.578125 
C 24.203125 43.578125 18.203125 40.390625 14.59375 35.203125 
L 14.59375 43.09375 
L 7.5 43.09375 
L 7.5 0 
L 14.90625 0 
z
" id="CMSS17-114"/>
      <path d="M 37.59375 27.984375 
C 37.59375 37.375 30.90625 43.875 21.90625 43.875 
C 17.5 43.875 12.703125 43.078125 7.203125 39.890625 
L 7.796875 33.359375 
C 10.296875 35.125 14.59375 38 21.796875 38 
C 26.90625 38 30 34.0625 30 27.84375 
L 30 24 
C 14 24 4 19.34375 4 11.34375 
C 4 7.203125 6.5 -1 14.796875 -1 
C 16.296875 -1 24.40625 -1 30.203125 3.390625 
L 30.203125 -0.296875 
L 37.59375 -0.296875 
z
M 30 12.75 
C 30 10.953125 30 8.5625 27 6.78125 
C 24.40625 5.078125 21.09375 5.078125 19.703125 5.078125 
C 14.703125 5.078125 11.296875 7.984375 11.296875 11.625 
C 11.296875 18.921875 26.90625 18.921875 30 18.921875 
z
" id="CMSS17-97"/>
      <path d="M 15.296875 65.359375 
L 6.90625 65.359375 
L 6.90625 57 
L 15.296875 57 
z
M 14.796875 42.796875 
L 7.40625 42.796875 
L 7.40625 0 
L 14.796875 0 
z
" id="CMSS17-105"/>
      <path d="M 44.203125 21.1875 
C 44.203125 34 34.703125 44 23.5 44 
C 12 44 2.703125 33.703125 2.703125 21.1875 
C 2.703125 8.5 12.296875 -1 23.40625 -1 
C 34.796875 -1 44.203125 8.796875 44.203125 21.1875 
z
M 23.5 5.265625 
C 16.40625 5.265625 10.296875 11.078125 10.296875 22 
C 10.296875 33.609375 17.40625 37.921875 23.40625 37.921875 
C 29.90625 37.921875 36.59375 33.21875 36.59375 22 
C 36.59375 10.671875 30.09375 5.265625 23.5 5.265625 
z
" id="CMSS17-111"/>
      <path d="M 40.90625 29.328125 
C 40.90625 35.671875 39.40625 44 28.09375 44 
C 21.703125 44 17.5 40.71875 14.703125 37.328125 
L 14.703125 43.09375 
L 7.40625 43.09375 
L 7.40625 0 
L 15 0 
L 15 24.359375 
C 15 30.6875 17.40625 37.9375 24.203125 37.9375 
C 33 37.9375 33.296875 32 33.296875 28.578125 
L 33.296875 0 
L 40.90625 0 
z
" id="CMSS17-110"/>
     </defs>
     <g transform="translate(271.264003 414.021553)scale(0.14 -0.14)">
      <use transform="scale(0.996264)" xlink:href="#CMSS17-73"/>
      <use transform="translate(25.783926 0)scale(0.996264)" xlink:href="#CMSS17-116"/>
      <use transform="translate(59.615492 0)scale(0.996264)" xlink:href="#CMSS17-101"/>
      <use transform="translate(101.254314 0)scale(0.996264)" xlink:href="#CMSS17-114"/>
      <use transform="translate(133.164087 0)scale(0.996264)" xlink:href="#CMSS17-97"/>
      <use transform="translate(178.086007 0)scale(0.996264)" xlink:href="#CMSS17-116"/>
      <use transform="translate(211.917574 0)scale(0.996264)" xlink:href="#CMSS17-105"/>
      <use transform="translate(234.098297 0)scale(0.996264)" xlink:href="#CMSS17-111"/>
      <use transform="translate(280.941921 0)scale(0.996264)" xlink:href="#CMSS17-110"/>
     </g>
    </g>
   </g>
   <g id="matplotlib.axis_2">
    <g id="ytick_1">
     <g id="line2d_15">
      <path clip-path="url(#pc1914576ce)" d="M 72 362.422736 
L 518.4 362.422736 
" style="fill:none;stroke:#b0b0b0;stroke-dasharray:5.12,1.28,0.8,1.28;stroke-dashoffset:0;stroke-width:0.8;"/>
     </g>
     <g id="line2d_16">
      <defs>
       <path d="M 0 0 
L -3.5 0 
" id="mc1a0bd31fd" style="stroke:#000000;stroke-width:0.8;"/>
      </defs>
      <g>
       <use style="stroke:#000000;stroke-width:0.8;" x="72" xlink:href="#mc1a0bd31fd" y="362.422736"/>
      </g>
     </g>
     <g id="text_9">
      <!-- $-50$ -->
      <defs>
       <path d="M 65.90625 23 
C 67.59375 23 69.40625 23 69.40625 25 
C 69.40625 27 67.59375 27 65.90625 27 
L 11.796875 27 
C 10.09375 27 8.296875 27 8.296875 25 
C 8.296875 23 10.09375 23 11.796875 23 
z
" id="CMSY10-0"/>
      </defs>
      <g transform="translate(47.288586 365.881986)scale(0.1 -0.1)">
       <use transform="scale(0.996264)" xlink:href="#CMSY10-0"/>
       <use transform="translate(77.487468 0)scale(0.996264)" xlink:href="#CMR17-53"/>
       <use transform="translate(123.177945 0)scale(0.996264)" xlink:href="#CMR17-48"/>
      </g>
     </g>
    </g>
    <g id="ytick_2">
     <g id="line2d_17">
      <path clip-path="url(#pc1914576ce)" d="M 72 303.607444 
L 518.4 303.607444 
" style="fill:none;stroke:#b0b0b0;stroke-dasharray:5.12,1.28,0.8,1.28;stroke-dashoffset:0;stroke-width:0.8;"/>
     </g>
     <g id="line2d_18">
      <g>
       <use style="stroke:#000000;stroke-width:0.8;" x="72" xlink:href="#mc1a0bd31fd" y="303.607444"/>
      </g>
     </g>
     <g id="text_10">
      <!-- $-40$ -->
      <defs>
       <path d="M 33.59375 64.40625 
C 33.59375 66.5 33.5 66.5 31.703125 66.5 
L 2 19.59375 
L 2 17 
L 27.796875 17 
L 27.796875 7.140625 
C 27.796875 3.5 27.59375 2.5 20.59375 2.5 
L 18.703125 2.5 
L 18.703125 0 
C 21.90625 0 27.296875 0 30.703125 0 
C 34.09375 0 39.5 0 42.703125 0 
L 42.703125 2.5 
L 40.796875 2.5 
C 33.796875 2.5 33.59375 3.5 33.59375 7.140625 
L 33.59375 17 
L 43.796875 17 
L 43.796875 19.59375 
L 33.59375 19.59375 
z
M 28.09375 57.859375 
L 28.09375 19.59375 
L 4 19.59375 
z
" id="CMR17-52"/>
      </defs>
      <g transform="translate(47.288586 307.066694)scale(0.1 -0.1)">
       <use transform="scale(0.996264)" xlink:href="#CMSY10-0"/>
       <use transform="translate(77.487468 0)scale(0.996264)" xlink:href="#CMR17-52"/>
       <use transform="translate(123.177945 0)scale(0.996264)" xlink:href="#CMR17-48"/>
      </g>
     </g>
    </g>
    <g id="ytick_3">
     <g id="line2d_19">
      <path clip-path="url(#pc1914576ce)" d="M 72 244.792152 
L 518.4 244.792152 
" style="fill:none;stroke:#b0b0b0;stroke-dasharray:5.12,1.28,0.8,1.28;stroke-dashoffset:0;stroke-width:0.8;"/>
     </g>
     <g id="line2d_20">
      <g>
       <use style="stroke:#000000;stroke-width:0.8;" x="72" xlink:href="#mc1a0bd31fd" y="244.792152"/>
      </g>
     </g>
     <g id="text_11">
      <!-- $-30$ -->
      <g transform="translate(47.288586 248.251402)scale(0.1 -0.1)">
       <use transform="scale(0.996264)" xlink:href="#CMSY10-0"/>
       <use transform="translate(77.487468 0)scale(0.996264)" xlink:href="#CMR17-51"/>
       <use transform="translate(123.177945 0)scale(0.996264)" xlink:href="#CMR17-48"/>
      </g>
     </g>
    </g>
    <g id="ytick_4">
     <g id="line2d_21">
      <path clip-path="url(#pc1914576ce)" d="M 72 185.97686 
L 518.4 185.97686 
" style="fill:none;stroke:#b0b0b0;stroke-dasharray:5.12,1.28,0.8,1.28;stroke-dashoffset:0;stroke-width:0.8;"/>
     </g>
     <g id="line2d_22">
      <g>
       <use style="stroke:#000000;stroke-width:0.8;" x="72" xlink:href="#mc1a0bd31fd" y="185.97686"/>
      </g>
     </g>
     <g id="text_12">
      <!-- $-20$ -->
      <g transform="translate(47.288586 189.43611)scale(0.1 -0.1)">
       <use transform="scale(0.996264)" xlink:href="#CMSY10-0"/>
       <use transform="translate(77.487468 0)scale(0.996264)" xlink:href="#CMR17-50"/>
       <use transform="translate(123.177945 0)scale(0.996264)" xlink:href="#CMR17-48"/>
      </g>
     </g>
    </g>
    <g id="ytick_5">
     <g id="line2d_23">
      <path clip-path="url(#pc1914576ce)" d="M 72 127.161568 
L 518.4 127.161568 
" style="fill:none;stroke:#b0b0b0;stroke-dasharray:5.12,1.28,0.8,1.28;stroke-dashoffset:0;stroke-width:0.8;"/>
     </g>
     <g id="line2d_24">
      <g>
       <use style="stroke:#000000;stroke-width:0.8;" x="72" xlink:href="#mc1a0bd31fd" y="127.161568"/>
      </g>
     </g>
     <g id="text_13">
      <!-- $-10$ -->
      <g transform="translate(47.288586 130.620818)scale(0.1 -0.1)">
       <use transform="scale(0.996264)" xlink:href="#CMSY10-0"/>
       <use transform="translate(77.487468 0)scale(0.996264)" xlink:href="#CMR17-49"/>
       <use transform="translate(123.177945 0)scale(0.996264)" xlink:href="#CMR17-48"/>
      </g>
     </g>
    </g>
    <g id="ytick_6">
     <g id="line2d_25">
      <path clip-path="url(#pc1914576ce)" d="M 72 68.346276 
L 518.4 68.346276 
" style="fill:none;stroke:#b0b0b0;stroke-dasharray:5.12,1.28,0.8,1.28;stroke-dashoffset:0;stroke-width:0.8;"/>
     </g>
     <g id="line2d_26">
      <g>
       <use style="stroke:#000000;stroke-width:0.8;" x="72" xlink:href="#mc1a0bd31fd" y="68.346276"/>
      </g>
     </g>
     <g id="text_14">
      <!-- $0$ -->
      <g transform="translate(60.018665 71.805526)scale(0.1 -0.1)">
       <use transform="scale(0.996264)" xlink:href="#CMR17-48"/>
      </g>
     </g>
    </g>
    <g id="text_15">
     <!-- $\partial \mathcal{L}/ \partial \mu^{\underline{U}}_{m}$ -->
     <defs>
      <path d="M 45.40625 33.515625 
C 44.796875 39.125 41.296875 45.859375 32.296875 45.859375 
C 18.203125 45.859375 3.796875 31.515625 3.796875 15.5625 
C 3.796875 9.4375 8 -2.09375 21.59375 -2.09375 
C 45.203125 -2.09375 55.296875 32.296875 55.296875 46 
C 55.296875 60.40625 47.203125 71.5 34.40625 71.5 
C 19.90625 71.5 15.59375 58.796875 15.59375 56.09375 
C 15.59375 55.203125 16.203125 53 19 53 
C 22.5 53 24 56.203125 24 57.90625 
C 24 61 20.90625 61 19.59375 61 
C 23.703125 68.40625 31.296875 69.09375 34 69.09375 
C 42.796875 69.09375 48.40625 62.109375 48.40625 50.96875 
C 48.40625 44.578125 46.5 37.1875 45.5 33.515625 
z
M 21.90625 0.59375 
C 12.5 0.59375 10.90625 8.03125 10.90625 12.25 
C 10.90625 16.65625 13.703125 27 15.203125 30.703125 
C 16.5 33.71875 22.203125 43.859375 32.59375 43.859375 
C 41.703125 43.859375 43.796875 35.921875 43.796875 30.515625 
C 43.796875 23.078125 37.296875 0.59375 21.90625 0.59375 
z
" id="CMMI12-64"/>
      <path d="M 18 9.53125 
C 23.40625 17.984375 25.09375 24.40625 26.40625 29.734375 
C 29.90625 43.59375 33.703125 55.65625 39.90625 62.578125 
C 41.09375 63.90625 41.90625 64.796875 45.09375 64.796875 
C 52 64.796875 52.203125 57.875 52.203125 56.453125 
C 52.203125 54.65625 51.703125 53.234375 51.703125 52.734375 
C 51.703125 52.03125 52.296875 52.03125 52.40625 52.03125 
C 54 52.03125 56.703125 53.140625 59.203125 54.953125 
C 61 56.359375 61.90625 57.359375 61.90625 61.46875 
C 61.90625 66.890625 59.09375 71 53.5 71 
C 50.296875 71 41.5 70.203125 31.703125 60.25 
C 23.703125 52.015625 19 33.9375 17.09375 26.40625 
C 15.296875 19.5 14.5 16.375 11.5 10.34375 
C 10.796875 9.15625 8.203125 4.734375 6.796875 3.421875 
C 4.09375 0.921875 3.09375 -0.890625 3.09375 -1.390625 
C 3.09375 -1.59375 3.296875 -2 4 -2 
C 4.40625 -2 6.5 -1.59375 9.09375 0.078125 
C 10.796875 1.0625 11 1.25 13.296875 3.609375 
C 18.296875 3.609375 21.796875 2.703125 28.09375 0.90625 
C 33.203125 -0.5 38.296875 -2 43.40625 -2 
C 51.5 -2 59.703125 4.125 62.90625 8.53125 
C 64.90625 11.234375 65.5 13.75 65.5 14.046875 
C 65.5 14.75 64.90625 14.75 64.796875 14.75 
C 63.203125 14.75 60.796875 13.65625 59.09375 12.4375 
C 56.40625 10.734375 56.203125 10.140625 55.59375 8.421875 
C 55.09375 6.8125 54.5 6.015625 54.09375 5.40625 
C 53.296875 4.203125 53.203125 4.203125 51.703125 4.203125 
C 46.90625 4.203125 41.90625 5.71875 35.296875 7.515625 
C 32.5 8.3125 27 9.9375 22 9.9375 
C 20.703125 9.9375 19.296875 9.828125 18 9.53125 
z
" id="CMSY10-76"/>
      <path d="M 42.90625 71.28125 
C 42.90625 71.390625 43.5 72.90625 43.5 73.09375 
C 43.5 74.296875 42.5 75 41.703125 75 
C 41.203125 75 40.296875 75 39.5 72.796875 
L 6 -21.296875 
C 6 -21.40625 5.40625 -22.890625 5.40625 -23.09375 
C 5.40625 -24.296875 6.40625 -25 7.203125 -25 
C 7.796875 -25 8.703125 -24.890625 9.40625 -22.796875 
z
" id="CMMI12-61"/>
      <path d="M 14.40625 2.1875 
C 16.90625 -0.09375 20.59375 -1 24 -1 
C 30.40625 -1 34.796875 3.25 37.09375 6.328125 
C 38.09375 1.078125 42.296875 -1 45.796875 -1 
C 48.796875 -1 51.203125 0.78125 53 4.328125 
C 54.59375 7.703125 56 13.734375 56 14.109375 
C 56 14.609375 55.59375 15 55 15 
C 54.09375 15 54 14.5 53.59375 13.03125 
C 52.09375 7.203125 50.203125 1 46.09375 1 
C 43.203125 1 43 3.578125 43 5.59375 
C 43 7.875 43.90625 11.484375 44.59375 14.46875 
L 47.40625 25.234375 
C 47.796875 27.140625 48.90625 31.609375 49.40625 33.421875 
C 50 35.8125 51.09375 40.109375 51.09375 40.5 
C 51.09375 42 49.90625 43 48.40625 43 
C 47.5 43 45.40625 42.59375 44.59375 39.609375 
L 37.59375 11.875 
C 37.09375 9.875 37.09375 9.671875 35.796875 8.078125 
C 34.59375 6.390625 30.703125 1 24.40625 1 
C 18.796875 1 17 5.09375 17 9.765625 
C 17 12.671875 17.90625 16.15625 18.296875 17.859375 
L 22.796875 35.828125 
C 23.296875 37.71875 24.09375 40.90625 24.09375 41.515625 
C 24.09375 43.109375 22.796875 44 21.5 44 
C 20.59375 44 18.40625 43.703125 17.59375 40.5 
L 3.09375 -17.296875 
C 3 -17.796875 2.796875 -18.390625 2.796875 -19 
C 2.796875 -20.5 4 -21.5 5.5 -21.5 
C 8.40625 -21.5 9 -19.1875 9.703125 -16.40625 
z
" id="CMMI12-22"/>
      <path d="M 50.59375 23.03125 
C 47.09375 9.078125 35.5 0.890625 26.09375 0.890625 
C 18.90625 0.890625 14 5.671875 14 13.921875 
C 14 14.3125 14 17.296875 15.09375 21.671875 
L 24.90625 60.734375 
C 25.796875 64.109375 26 65.109375 33.09375 65.109375 
C 34.90625 65.109375 35.90625 65.109375 35.90625 66.90625 
C 35.90625 68 35 68 34.40625 68 
C 32.59375 68 30.5 68 28.59375 68 
L 16.796875 68 
C 14.90625 68 12.796875 68 10.90625 68 
C 10.203125 68 9 68 9 66.109375 
C 9 65.109375 9.703125 65.109375 11.59375 65.109375 
C 17.59375 65.109375 17.59375 64.3125 17.59375 63.21875 
C 17.59375 62.625 16.90625 59.75 16.40625 58.046875 
L 7.703125 23.25 
C 7.40625 22.15625 6.796875 19.46875 6.796875 16.796875 
C 6.796875 5.84375 14.703125 -2 25.59375 -2 
C 35.703125 -2 46.90625 6 52 18.703125 
C 52.703125 20.390625 53.59375 23.90625 54.203125 26.59375 
C 55.203125 30.203125 57.296875 39 58 41.59375 
L 61.796875 56.609375 
C 63.09375 61.8125 63.90625 65.109375 72.703125 65.109375 
C 73.5 65.203125 73.90625 66 73.90625 66.90625 
C 73.90625 68 73 68 72.59375 68 
C 71.203125 68 69.40625 68 68 68 
L 63.296875 68 
C 57.09375 68 53.90625 68 53.796875 68 
C 53.203125 68 52 68 52 66.109375 
C 52 65.109375 52.796875 65.109375 53.5 65.109375 
C 59.5 65.109375 59.90625 62.8125 59.90625 61.015625 
C 59.90625 60.125 59.90625 59.8125 59.5 58.421875 
z
" id="CMMI12-85"/>
      <path d="M 20.59375 29.234375 
C 20.796875 29.84375 23.296875 34.828125 27 38.015625 
C 29.59375 40.40625 33 42.015625 36.90625 42.015625 
C 40.90625 42.015625 42.296875 39.015625 42.296875 35.03125 
C 42.296875 34.421875 42.296875 32.4375 41.09375 27.734375 
L 38.59375 17.46875 
C 37.796875 14.46875 35.90625 7.078125 35.703125 5.984375 
C 35.296875 4.484375 34.703125 1.890625 34.703125 1.5 
C 34.703125 0.09375 35.796875 -1 37.296875 -1 
C 40.296875 -1 40.796875 1.296875 41.703125 4.890625 
L 47.703125 28.734375 
C 47.90625 29.53125 53.09375 42.015625 64.09375 42.015625 
C 68.09375 42.015625 69.5 39.015625 69.5 35.03125 
C 69.5 29.4375 65.59375 18.5625 63.40625 12.578125 
C 62.5 10.171875 62 8.875 62 7.078125 
C 62 2.59375 65.09375 -1 69.90625 -1 
C 79.203125 -1 82.703125 13.671875 82.703125 14.265625 
C 82.703125 14.765625 82.296875 15.171875 81.703125 15.171875 
C 80.796875 15.171875 80.703125 14.875 80.203125 13.171875 
C 77.90625 5.1875 74.203125 1 70.203125 1 
C 69.203125 1 67.59375 1 67.59375 4.203125 
C 67.59375 6.8125 68.796875 10 69.203125 11.09375 
C 71 15.90625 75.5 27.703125 75.5 33.515625 
C 75.5 39.5 72 44 64.40625 44 
C 57.703125 44 52.296875 40.21875 48.296875 34.328125 
C 48 39.71875 44.703125 44 37.203125 44 
C 28.296875 44 23.59375 37.734375 21.796875 35.234375 
C 21.5 40.90625 17.40625 44 13 44 
C 10.09375 44 7.796875 42.609375 5.90625 38.8125 
C 4.09375 35.21875 2.703125 29.140625 2.703125 28.734375 
C 2.703125 28.34375 3.09375 27.84375 3.796875 27.84375 
C 4.59375 27.84375 4.703125 27.9375 5.296875 30.234375 
C 6.796875 36.125 8.703125 42.015625 12.703125 42.015625 
C 15 42.015625 15.796875 40.40625 15.796875 37.421875 
C 15.796875 35.21875 14.796875 31.328125 14.09375 28.234375 
L 11.296875 17.46875 
C 10.90625 15.5625 9.796875 11.078125 9.296875 9.28125 
C 8.59375 6.6875 7.5 2 7.5 1.5 
C 7.5 0.09375 8.59375 -1 10.09375 -1 
C 11.296875 -1 12.703125 -0.40625 13.5 1.09375 
C 13.703125 1.59375 14.59375 5.09375 15.09375 7.078125 
L 17.296875 16.0625 
z
" id="CMMI12-109"/>
     </defs>
     <g transform="translate(40.576557 242.881062)rotate(-90)scale(0.14 -0.14)">
      <use transform="translate(0 24.62935)scale(0.996264)" xlink:href="#CMMI12-64"/>
      <use transform="translate(56.915564 24.62935)scale(0.996264)" xlink:href="#CMSY10-76"/>
      <use transform="translate(125.630372 24.62935)scale(0.996264)" xlink:href="#CMMI12-61"/>
      <use transform="translate(174.405291 24.62935)scale(0.996264)" xlink:href="#CMMI12-64"/>
      <use transform="translate(231.320856 24.62935)scale(0.996264)" xlink:href="#CMMI12-22"/>
      <use transform="translate(290.012277 60.782989)scale(0.697382)" xlink:href="#CMMI12-85"/>
      <use transform="translate(290.012277 0)scale(0.697382)" xlink:href="#CMMI12-109"/>
      <path d="M 290.012277 49.625185 
L 344.171317 49.625185 
L 344.171317 52.414636 
L 290.012277 52.414636 
L 290.012277 49.625185 
z
"/>
     </g>
    </g>
   </g>
   <g id="line2d_27">
    <path clip-path="url(#pc1914576ce)" d="M 92.290909 68.346276 
L 92.430991 215.384506 
L 92.711156 215.280403 
L 92.99132 214.741067 
L 95.092553 208.66133 
L 96.493376 202.441025 
L 102.096664 175.284828 
L 116.104886 106.389772 
L 118.626366 94.362045 
L 119.046612 93.686845 
L 119.466859 93.432175 
L 119.606941 93.389828 
L 120.447435 93.725075 
L 122.68875 94.183834 
L 125.770559 94.592012 
L 129.692861 94.881972 
L 135.156067 95.069592 
L 137.677547 95.217219 
L 139.778781 95.2678 
L 145.802316 95.174284 
L 148.463878 95.263683 
L 154.347331 95.166638 
L 157.008893 95.264271 
L 163.172511 95.183694 
L 165.693991 95.259566 
L 171.297279 95.153698 
L 174.239006 95.256625 
L 179.982377 95.167814 
L 182.643939 95.257213 
L 188.38731 95.165461 
L 191.188954 95.251332 
L 196.512078 95.147229 
L 199.593887 95.248391 
L 204.917011 95.151934 
L 207.858738 95.247803 
L 213.462027 95.169578 
L 216.263671 95.241333 
L 218.08474 95.275446 
L 220.185973 95.563053 
L 222.287206 96.081804 
L 224.388439 96.829934 
L 226.629755 97.880963 
L 228.730988 99.103145 
L 230.972304 100.659398 
L 233.353701 102.597362 
L 235.735099 104.827049 
L 238.256579 107.505498 
L 240.778059 110.508018 
L 243.439621 114.025761 
L 246.241265 118.113424 
L 249.182992 122.824529 
L 252.264801 128.216127 
L 255.346609 134.066484 
L 256.467267 136.52261 
L 257.728007 139.895079 
L 258.988747 143.91334 
L 260.389569 149.130256 
L 261.930474 155.76168 
L 263.61146 164.025229 
L 265.432529 174.140283 
L 266.693269 182.216211 
L 267.39368 189.796325 
L 268.514338 204.966554 
L 269.91516 227.234023 
L 271.1759 247.425901 
L 276.919271 330.731881 
L 279.300668 366.34454 
L 279.720915 367.554959 
L 280.421326 368.880067 
L 280.841573 369.36 
L 281.541984 368.277799 
L 282.382477 367.750225 
L 283.923382 366.863879 
L 285.044039 365.425845 
L 287.705601 361.537566 
L 288.546095 359.007332 
L 289.246506 357.193469 
L 289.666752 356.577673 
L 289.946917 356.4224 
L 290.227081 356.487097 
L 290.507246 356.774116 
L 290.927492 357.603999 
L 291.487821 359.352578 
L 292.608479 363.434947 
L 293.168808 363.93723 
L 294.009301 364.412458 
L 294.849794 364.611253 
L 295.690288 364.565966 
L 296.670863 364.270125 
L 298.071685 363.570223 
L 298.35185 363.41201 
L 299.052261 361.612262 
L 299.61259 358.753838 
L 300.313001 355.3302 
L 300.733248 354.30799 
L 300.87333 354.216239 
L 301.013412 354.259762 
L 301.293576 354.766162 
L 301.573741 355.821896 
L 301.993988 358.324487 
L 302.974563 364.817695 
L 303.534892 365.948125 
L 304.095221 366.572155 
L 304.515467 366.710371 
L 304.935714 366.584506 
L 305.355961 366.225145 
L 305.91629 365.455841 
L 306.896865 363.643154 
L 307.877441 361.538742 
L 309.278263 356.72824 
L 309.558427 356.439457 
L 309.838592 356.541795 
L 310.118756 357.051724 
L 310.539003 358.540339 
L 311.099332 361.574032 
L 311.519578 363.759608 
L 312.079907 364.762997 
L 312.640236 365.345268 
L 313.060483 365.542888 
L 313.480729 365.542299 
L 314.041058 365.264103 
L 314.741469 364.564789 
L 316.002209 362.823268 
L 316.562538 361.96927 
L 317.262949 360.013662 
L 317.823278 358.622092 
L 318.243525 358.105106 
L 318.523689 358.100401 
L 318.803854 358.390948 
L 319.2241 359.363165 
L 319.784429 361.471693 
L 320.344758 363.501409 
L 320.905087 364.187195 
L 321.465416 364.585375 
L 321.885662 364.710651 
L 322.305909 364.562437 
L 323.426567 364.004868 
L 324.687307 362.844442 
L 325.5278 361.907514 
L 326.928622 359.575488 
L 327.208787 359.467268 
L 327.488951 359.553726 
L 327.769115 359.840745 
L 328.189362 360.621812 
L 329.450102 363.407892 
L 330.150513 363.833715 
L 330.850924 363.983106 
L 331.411253 363.869592 
L 332.391829 363.457297 
L 334.072815 362.334513 
L 334.633144 361.656961 
L 337.154624 361.420524 
L 337.995117 362.946192 
L 338.695528 363.33555 
L 339.395939 363.516701 
L 340.236433 363.482 
L 341.217008 363.165573 
L 343.038077 362.247467 
L 344.719064 360.918829 
L 345.13931 360.968234 
L 345.559557 361.247019 
L 346.119886 361.924571 
L 346.820297 362.813858 
L 347.66079 363.126167 
L 348.501283 363.227918 
L 349.481859 363.109699 
L 350.882681 362.666232 
L 352.143421 362.10631 
L 353.264079 361.402291 
L 353.824408 361.348181 
L 354.384737 361.584618 
L 355.085148 362.226881 
L 355.645477 362.709167 
L 356.626052 362.953838 
L 357.606628 362.996185 
L 358.867367 362.8068 
L 360.828519 362.265111 
L 362.229341 361.662255 
L 362.78967 361.675194 
L 363.349998 361.896339 
L 364.890903 362.723871 
L 366.151643 362.840913 
L 367.552465 362.721518 
L 369.79378 362.262171 
L 371.05452 361.878695 
L 371.754931 361.912808 
L 372.455343 362.171007 
L 373.435918 362.596241 
L 374.83674 362.721518 
L 376.377645 362.638588 
L 378.759042 362.273934 
L 380.019782 362.025733 
L 380.860276 362.111603 
L 383.101591 362.618591 
L 384.92266 362.598594 
L 387.584222 362.31981 
L 388.985044 362.137482 
L 389.96562 362.253936 
L 391.646606 362.548601 
L 393.747839 362.549189 
L 396.689566 362.312752 
L 398.090388 362.225705 
L 399.351128 362.40568 
L 400.191621 362.499196 
L 402.713101 362.509195 
L 408.176308 362.407444 
L 409.437048 362.489198 
L 412.378774 362.459202 
L 417.001487 362.409209 
L 418.542392 362.473906 
L 422.464694 362.418619 
L 425.686585 362.400975 
L 428.067983 362.462143 
L 497.969009 362.425089 
L 497.969009 362.425089 
" style="fill:none;stroke:#bf00bf;stroke-linecap:square;stroke-width:1.5;"/>
   </g>
   <g id="line2d_28">
    <path clip-path="url(#pc1914576ce)" d="M 92.290909 68.346276 
L 92.430991 215.384506 
L 92.571074 215.384506 
L 92.99132 213.824137 
L 93.691731 211.350365 
L 94.392142 209.750001 
L 94.812389 209.07539 
L 95.092553 207.490318 
L 95.652882 204.410749 
L 98.874773 188.930564 
L 111.202008 128.605484 
L 118.486284 92.750506 
L 118.626366 92.70757 
L 119.326777 93.668612 
L 119.606941 93.725075 
L 120.587517 93.694491 
L 125.350312 93.987391 
L 132.77467 94.158544 
L 138.097794 94.334401 
L 140.339109 94.342047 
L 144.961823 94.216771 
L 148.884125 94.344988 
L 153.787002 94.227946 
L 157.42914 94.346164 
L 162.752264 94.251472 
L 165.834073 94.350281 
L 171.717526 94.279115 
L 174.379088 94.347929 
L 180.262541 94.282644 
L 182.924103 94.3444 
L 188.247228 94.254413 
L 191.469119 94.33793 
L 196.512078 94.247355 
L 199.874052 94.334989 
L 204.917011 94.251472 
L 208.138902 94.335578 
L 213.181862 94.250884 
L 216.543835 94.329108 
L 218.364904 94.399098 
L 220.466137 94.695527 
L 222.567371 95.22016 
L 224.668604 95.974172 
L 226.909919 97.031082 
L 229.151235 98.348545 
L 231.39255 99.925383 
L 233.773948 101.88452 
L 236.295428 104.277126 
L 238.816908 106.994393 
L 241.47847 110.213354 
L 244.140032 113.789912 
L 246.941676 117.936978 
L 249.883403 122.709839 
L 252.825129 127.905582 
L 255.766856 133.544792 
L 257.027596 136.532021 
L 258.288336 140.15269 
L 259.689158 144.937314 
L 261.230062 151.107626 
L 262.770967 158.198986 
L 264.451953 166.94482 
L 266.273022 177.559216 
L 267.253598 184.154763 
L 268.234173 192.38361 
L 269.354831 203.747313 
L 270.615571 219.025173 
L 273.277133 255.077771 
L 275.938695 294.185823 
L 278.880422 340.682252 
L 279.440751 348.531741 
L 280.141162 356.252424 
L 280.841573 361.913396 
L 281.121737 363.176748 
L 281.541984 362.916197 
L 283.783299 361.415819 
L 284.203546 360.587699 
L 284.763875 359.000863 
L 285.604368 355.813662 
L 287.565519 347.021364 
L 289.106424 340.294659 
L 289.666752 338.680179 
L 290.086999 338.029682 
L 290.367164 337.902053 
L 290.647328 338.028506 
L 290.927492 338.406688 
L 291.347739 339.418311 
L 291.908068 341.460378 
L 293.30889 347.06724 
L 294.149383 349.371035 
L 294.849794 350.611449 
L 295.410123 351.165489 
L 295.83037 351.340171 
L 296.250617 351.324291 
L 296.810945 351.039625 
L 297.371274 350.499112 
L 298.211768 349.3281 
L 298.912179 348.096507 
L 299.892754 345.437468 
L 300.453083 344.09942 
L 300.87333 343.651248 
L 301.153494 343.743588 
L 301.433659 344.197642 
L 301.853905 345.58333 
L 302.414234 348.615847 
L 303.254727 353.446935 
L 303.955139 356.364173 
L 304.515467 357.897488 
L 304.935714 358.56857 
L 305.355961 358.856177 
L 305.776207 358.802655 
L 306.196454 358.465643 
L 306.756783 357.691046 
L 307.737358 355.885417 
L 309.418345 352.209461 
L 309.698509 352.013606 
L 309.978674 352.065952 
L 310.258838 352.390024 
L 310.679085 353.39106 
L 311.239414 355.553698 
L 311.939825 358.248027 
L 312.640236 360.236572 
L 313.200565 361.261722 
L 313.620811 361.686369 
L 314.041058 361.832819 
L 314.461305 361.729892 
L 315.021634 361.274074 
L 315.722045 360.355379 
L 316.842702 358.480935 
L 318.103442 356.235956 
L 318.523689 355.949525 
L 318.803854 355.986579 
L 319.084018 356.224193 
L 319.504265 356.952326 
L 320.344758 359.223184 
L 321.045169 360.901185 
L 321.74558 361.999266 
L 322.165827 362.341571 
L 323.426567 362.059846 
L 323.986896 361.664019 
L 324.967471 360.657101 
L 325.948047 359.396101 
L 326.928622 358.191564 
L 327.348869 357.969242 
L 327.769115 358.029234 
L 328.189362 358.395653 
L 328.749691 359.315524 
L 329.590184 360.812962 
L 330.290595 361.691074 
L 330.850924 362.117485 
L 331.271171 362.263935 
L 332.251746 362.078667 
L 333.09224 361.565798 
L 334.35298 360.492418 
L 334.633144 360.211869 
L 337.294706 359.607836 
L 338.975693 361.510511 
L 339.676104 361.897516 
L 340.376515 362.006324 
L 341.076926 361.871049 
L 342.057501 361.396998 
L 343.598406 360.356555 
L 344.578981 359.712528 
L 345.13931 359.589016 
L 345.699639 359.735466 
L 346.259968 360.148349 
L 347.380626 361.118213 
L 348.221119 361.55874 
L 348.92153 361.704602 
L 349.762023 361.6352 
L 350.742599 361.309363 
L 352.563668 360.408901 
L 353.544243 359.98249 
L 354.104572 359.940143 
L 354.664901 360.09718 
L 355.645477 360.705918 
L 356.48597 361.156443 
L 357.326463 361.400527 
L 358.166956 361.439345 
L 359.287614 361.234079 
L 361.108683 360.615342 
L 362.369423 360.194813 
L 363.069834 360.178933 
L 363.770245 360.384786 
L 365.591314 361.111155 
L 366.571889 361.242313 
L 367.692547 361.165265 
L 369.513616 360.764145 
L 371.474767 360.321266 
L 372.31526 360.401843 
L 375.397069 361.095863 
L 376.797891 361.008229 
L 379.319371 360.558292 
L 380.580111 360.43772 
L 381.560687 360.58123 
L 383.381755 360.940003 
L 384.782578 360.988819 
L 386.883811 360.790024 
L 389.825537 360.548293 
L 394.168086 360.898832 
L 399.351128 360.677687 
L 401.452361 360.865896 
L 403.693677 360.826489 
L 407.896143 360.675922 
L 411.118034 360.844134 
L 414.339925 360.725915 
L 416.721323 360.701213 
L 420.503543 360.817667 
L 427.9279 360.802963 
L 431.71012 360.757675 
L 435.49234 360.770027 
L 439.554724 360.779437 
L 445.57826 360.788848 
L 457.345166 360.777084 
L 483.260376 360.778849 
L 498.109091 360.777673 
L 498.109091 360.777673 
" style="fill:none;stroke:#00bfbf;stroke-linecap:square;stroke-width:1.5;"/>
   </g>
   <g id="line2d_29">
    <path clip-path="url(#pc1914576ce)" d="M 92.290909 68.346276 
L 92.430991 215.384506 
L 92.851238 204.780109 
L 93.411567 195.939583 
L 94.111978 188.283008 
L 94.812389 182.896115 
L 95.5128 179.686565 
L 98.734691 164.149329 
L 110.781762 105.131124 
L 118.486284 67.49169 
L 118.90653 67.001171 
L 119.326777 66.982938 
L 121.988339 67.575208 
L 125.350312 67.948097 
L 130.113108 68.218647 
L 140.759356 68.476846 
L 144.261411 68.355687 
L 150.004782 68.439793 
L 152.946509 68.358628 
L 158.549798 68.444498 
L 161.491524 68.358039 
L 167.094813 68.445674 
L 170.036539 68.359804 
L 175.919992 68.426853 
L 178.581555 68.362745 
L 184.044761 68.447439 
L 187.12657 68.36745 
L 192.589776 68.439793 
L 195.531503 68.369214 
L 200.574463 68.460966 
L 204.076518 68.378037 
L 208.699231 68.470377 
L 212.481451 68.383918 
L 220.185973 68.817975 
L 222.287206 69.316729 
L 224.388439 70.04545 
L 226.489673 71.002963 
L 228.730988 72.277491 
L 230.972304 73.811982 
L 233.213619 75.605848 
L 235.595017 77.795541 
L 238.116497 80.431054 
L 240.778059 83.564733 
L 243.439621 87.057185 
L 246.101183 90.904882 
L 248.902827 95.336026 
L 251.844554 100.404139 
L 254.926363 106.163333 
L 256.187103 108.816491 
L 257.447843 112.080151 
L 258.708583 115.995485 
L 260.109405 121.106534 
L 261.650309 127.627974 
L 263.331296 135.780949 
L 265.152365 145.785431 
L 266.973433 157.01974 
L 267.954009 164.56633 
L 269.074667 175.111323 
L 270.195324 187.768374 
L 272.016393 211.682672 
L 274.677955 249.590892 
L 277.4796 292.714852 
L 279.860997 329.055057 
L 280.561408 335.962325 
L 280.981655 338.798986 
L 281.261819 339.504181 
L 281.541984 339.717681 
L 281.822148 339.562409 
L 282.522559 338.710175 
L 283.923382 336.739863 
L 284.48371 335.230662 
L 285.184122 332.573976 
L 286.304779 327.290598 
L 288.826259 315.165237 
L 289.52667 312.757927 
L 289.946917 311.926867 
L 290.227081 311.681019 
L 290.507246 311.696311 
L 290.78741 311.975096 
L 291.207657 312.865559 
L 291.767986 314.817051 
L 293.729137 322.787111 
L 294.429548 324.494519 
L 294.989877 325.372043 
L 295.550206 325.831979 
L 295.970452 325.92079 
L 296.390699 325.810217 
L 296.951028 325.389688 
L 297.651439 324.505694 
L 298.632014 322.801815 
L 299.472508 320.827386 
L 300.453083 318.363025 
L 300.733248 318.020132 
L 301.013412 317.972491 
L 301.293576 318.271861 
L 301.573741 318.945884 
L 301.993988 320.657409 
L 302.554316 324.042818 
L 303.39481 329.09858 
L 304.095221 331.987587 
L 304.65555 333.389156 
L 305.075796 333.92261 
L 305.496043 334.052004 
L 305.91629 333.832623 
L 306.336536 333.332693 
L 307.036947 332.086985 
L 308.297687 329.330312 
L 309.138181 327.418815 
L 309.558427 326.900653 
L 309.838592 326.836544 
L 310.118756 327.036516 
L 310.398921 327.514684 
L 310.819167 328.736278 
L 311.519578 331.77644 
L 312.219989 334.400779 
L 312.9204 336.18994 
L 313.480729 336.970419 
L 313.900976 337.1898 
L 314.321223 337.125103 
L 314.741469 336.819263 
L 315.301798 336.123479 
L 316.422456 334.254917 
L 318.383607 331.013018 
L 318.663771 330.958908 
L 318.943936 331.101829 
L 319.364182 331.695863 
L 319.924511 333.122722 
L 320.905087 335.911743 
L 321.605498 337.19921 
L 322.025745 337.644442 
L 322.445991 337.718549 
L 323.146402 337.486817 
L 323.706731 337.136278 
L 324.407142 336.428142 
L 325.948047 334.459594 
L 326.78854 333.382098 
L 327.208787 333.080963 
L 327.629033 333.045086 
L 328.04928 333.315636 
L 328.469526 333.884968 
L 330.290595 336.986299 
L 330.850924 337.428002 
L 331.271171 337.555043 
L 331.971582 337.440941 
L 332.671993 337.063935 
L 333.792651 336.105246 
L 334.493062 335.441809 
L 337.154624 334.544288 
L 337.855035 335.483568 
L 338.555446 336.356387 
L 339.255857 336.942776 
L 339.956268 337.220384 
L 340.656679 337.203327 
L 341.35709 336.947481 
L 342.477748 336.248167 
L 344.859146 334.69956 
L 345.419475 334.708383 
L 345.979804 334.997166 
L 346.680215 335.67413 
L 347.520708 336.389324 
L 348.361201 336.802207 
L 349.061612 336.902193 
L 349.902106 336.765153 
L 351.022763 336.295807 
L 353.824408 335.011281 
L 354.384737 335.06892 
L 355.085148 335.417107 
L 356.48597 336.305218 
L 357.326463 336.558712 
L 358.166956 336.586943 
L 359.147532 336.389912 
L 361.108683 335.685305 
L 362.369423 335.262423 
L 363.069834 335.247131 
L 363.770245 335.455925 
L 365.731396 336.269929 
L 366.711972 336.369915 
L 367.832629 336.246402 
L 369.933863 335.71236 
L 371.334685 335.393581 
L 372.175178 335.437104 
L 373.155754 335.75353 
L 374.416494 336.106422 
L 375.537151 336.203467 
L 376.937973 336.074074 
L 380.860276 335.518857 
L 381.980933 335.760588 
L 383.381755 336.032903 
L 384.782578 336.077603 
L 386.743729 335.871161 
L 389.545373 335.590024 
L 390.806113 335.76941 
L 392.347017 335.977617 
L 394.028004 335.98291 
L 399.49121 335.759412 
L 401.452361 335.942916 
L 403.553595 335.901745 
L 408.036226 335.748825 
L 410.977952 335.916449 
L 414.199843 335.794113 
L 416.721323 335.762353 
L 420.643625 335.881748 
L 427.087407 335.849987 
L 430.309298 335.852928 
L 435.352258 335.82999 
L 439.414642 335.844106 
L 445.438177 335.85234 
L 457.205084 335.840577 
L 470.793059 335.83646 
L 484.240951 335.838812 
L 498.109091 335.840577 
L 498.109091 335.840577 
" style="fill:none;stroke:#ff0000;stroke-linecap:square;stroke-width:1.5;"/>
   </g>
   <g id="line2d_30">
    <path clip-path="url(#pc1914576ce)" d="M 92.290909 68.346276 
L 92.430991 215.384506 
L 92.571074 215.384506 
L 92.851238 212.549021 
L 94.532225 189.776328 
L 95.092553 185.169915 
L 95.933047 181.523366 
L 99.29502 165.347985 
L 111.482173 105.959832 
L 118.626366 71.317037 
L 119.326777 69.500232 
L 119.606941 69.279087 
L 119.887106 69.324963 
L 121.568092 70.298944 
L 123.389161 70.982966 
L 125.630477 71.57406 
L 128.292039 72.040465 
L 131.654012 72.397474 
L 136.977136 72.711547 
L 139.778781 72.810945 
L 146.222563 72.748013 
L 148.744042 72.798594 
L 154.067167 72.695667 
L 157.148975 72.803887 
L 163.172511 72.729192 
L 165.974155 72.794477 
L 171.297279 72.702725 
L 174.379088 72.79683 
L 179.982377 72.714488 
L 182.924103 72.792713 
L 188.38731 72.712724 
L 191.469119 72.786831 
L 196.512078 72.697432 
L 200.014134 72.778597 
L 204.636847 72.686257 
L 208.419067 72.773303 
L 212.901698 72.685669 
L 216.964082 72.780361 
L 219.065315 72.922106 
L 221.026466 73.260294 
L 223.1277 73.842565 
L 225.228933 74.65304 
L 227.470248 75.769354 
L 229.711564 77.143868 
L 232.092961 78.887741 
L 234.334277 80.794533 
L 236.715675 83.101857 
L 239.237154 85.85853 
L 241.898717 89.117485 
L 244.700361 92.931657 
L 247.502005 97.135774 
L 250.443732 101.965685 
L 253.525541 107.47609 
L 255.626774 111.571987 
L 256.607349 114.173387 
L 257.868089 118.229878 
L 259.268911 123.533841 
L 260.809816 130.269368 
L 262.490802 138.645254 
L 264.311871 148.877939 
L 266.273022 161.179745 
L 267.533762 170.193777 
L 268.514338 178.961961 
L 269.634995 190.976748 
L 270.895735 207.079199 
L 273.557298 244.948601 
L 276.499024 290.248139 
L 280.141162 346.845506 
L 280.841573 353.13639 
L 281.121737 354.708523 
L 281.541984 355.480767 
L 281.822148 355.405484 
L 282.242395 354.872029 
L 283.363053 352.834079 
L 284.063464 351.335466 
L 284.623793 349.481608 
L 285.464286 345.743896 
L 287.145273 336.781033 
L 289.106424 326.885949 
L 289.666752 324.945044 
L 290.086999 324.085753 
L 290.367164 323.842257 
L 290.647328 323.875194 
L 290.927492 324.183974 
L 291.347739 325.139135 
L 291.908068 327.194141 
L 293.729137 334.808369 
L 294.429548 336.565181 
L 294.989877 337.456233 
L 295.550206 337.907346 
L 295.970452 337.974984 
L 296.390699 337.832063 
L 296.951028 337.351542 
L 297.651439 336.36815 
L 298.632014 334.501941 
L 299.472508 332.412234 
L 300.593165 329.346192 
L 300.87333 329.002711 
L 301.153494 328.983302 
L 301.433659 329.337958 
L 301.713823 330.091382 
L 302.13407 331.955827 
L 302.834481 336.58459 
L 303.534892 340.726951 
L 304.235303 343.571259 
L 304.795632 344.879311 
L 305.215878 345.318661 
L 305.496043 345.375712 
L 305.776207 345.264551 
L 306.196454 344.828142 
L 306.756783 343.863571 
L 308.017523 341.028086 
L 309.418345 337.645618 
L 309.698509 337.349189 
L 309.978674 337.306254 
L 310.258838 337.546809 
L 310.539003 338.082028 
L 310.959249 339.411841 
L 312.780318 346.428506 
L 313.340647 347.434835 
L 313.760894 347.792432 
L 314.18114 347.833603 
L 314.601387 347.596578 
L 315.161716 346.935494 
L 316.002209 345.485697 
L 318.383607 341.049259 
L 318.663771 340.912808 
L 318.943936 340.979857 
L 319.2241 341.260994 
L 319.644347 342.075586 
L 320.204676 343.761232 
L 320.905087 345.819179 
L 321.605498 347.208397 
L 322.165827 347.806548 
L 322.586073 347.836544 
L 323.146402 347.599518 
L 323.846813 347.075474 
L 324.687307 346.074438 
L 327.348869 342.642565 
L 327.769115 342.626097 
L 328.189362 342.934877 
L 328.609609 343.555967 
L 330.290595 346.578485 
L 330.850924 347.06077 
L 331.271171 347.2231 
L 331.8315 347.147817 
L 332.531911 346.801983 
L 333.372404 346.084436 
L 334.633144 344.799322 
L 337.294706 343.89239 
L 337.995117 344.895191 
L 338.695528 345.777421 
L 339.395939 346.347929 
L 339.956268 346.56731 
L 340.516597 346.584366 
L 341.217008 346.363221 
L 342.197584 345.750365 
L 344.999228 343.786523 
L 345.559557 343.812402 
L 346.119886 344.134121 
L 348.221119 345.879759 
L 348.92153 346.042089 
L 349.621941 345.985039 
L 350.462434 345.690962 
L 352.143421 344.795205 
L 353.544243 344.050015 
L 354.104572 343.967674 
L 354.664901 344.095891 
L 355.365312 344.532301 
L 356.345888 345.202795 
L 357.186381 345.523338 
L 358.026874 345.600975 
L 359.00745 345.429234 
L 360.548354 344.863431 
L 362.78967 344.102361 
L 363.490081 344.193525 
L 364.330574 344.589352 
L 365.311149 345.039877 
L 366.291725 345.256905 
L 367.2723 345.243966 
L 368.53304 344.983414 
L 371.754931 344.200583 
L 372.595425 344.339387 
L 374.976822 345.01988 
L 376.09748 345.023997 
L 377.638385 344.78403 
L 380.580111 344.279395 
L 381.560687 344.409965 
L 383.66192 344.856373 
L 385.062742 344.864607 
L 387.163975 344.603467 
L 389.685455 344.351738 
L 390.946195 344.547593 
L 392.4871 344.756387 
L 394.028004 344.758152 
L 397.249895 344.445254 
L 398.790799 344.415258 
L 403.133348 344.680515 
L 408.456472 344.519361 
L 410.557705 344.656401 
L 413.079185 344.590528 
L 417.001487 344.504069 
L 420.223378 344.624641 
L 435.072093 344.541711 
L 438.854313 344.579353 
L 445.57826 344.576412 
L 457.065001 344.563473 
L 470.933141 344.557003 
L 484.240951 344.55818 
L 498.109091 344.559356 
L 498.109091 344.559356 
" style="fill:none;stroke:#008000;stroke-linecap:square;stroke-width:1.5;"/>
   </g>
   <g id="patch_3">
    <path d="M 72 384.48 
L 72 51.84 
" style="fill:none;stroke:#000000;stroke-linecap:square;stroke-linejoin:miter;stroke-width:0.8;"/>
   </g>
   <g id="patch_4">
    <path d="M 518.4 384.48 
L 518.4 51.84 
" style="fill:none;stroke:#000000;stroke-linecap:square;stroke-linejoin:miter;stroke-width:0.8;"/>
   </g>
   <g id="patch_5">
    <path d="M 72 384.48 
L 518.4 384.48 
" style="fill:none;stroke:#000000;stroke-linecap:square;stroke-linejoin:miter;stroke-width:0.8;"/>
   </g>
   <g id="patch_6">
    <path d="M 72 51.84 
L 518.4 51.84 
" style="fill:none;stroke:#000000;stroke-linecap:square;stroke-linejoin:miter;stroke-width:0.8;"/>
   </g>
   <g id="legend_1">
    <g id="patch_7">
     <path d="M 443.185706 128.833399 
L 511.4 128.833399 
Q 513.4 128.833399 513.4 126.833399 
L 513.4 58.84 
Q 513.4 56.84 511.4 56.84 
L 443.185706 56.84 
Q 441.185706 56.84 441.185706 58.84 
L 441.185706 126.833399 
Q 441.185706 128.833399 443.185706 128.833399 
z
" style="fill:#ffffff;opacity:0.8;stroke:#cccccc;stroke-linejoin:miter;"/>
    </g>
    <g id="line2d_31">
     <path d="M 445.185706 67.651171 
L 465.185706 67.651171 
" style="fill:none;stroke:#bf00bf;stroke-linecap:square;stroke-width:1.5;"/>
    </g>
    <g id="line2d_32"/>
    <g id="text_16">
     <!-- $\partial \mathcal{L}/ \partial \mu^{\underline{U}}_{1}$ -->
     <g transform="translate(473.185706 71.151171)scale(0.1 -0.1)">
      <use transform="translate(0 26.578082)scale(0.996264)" xlink:href="#CMMI12-64"/>
      <use transform="translate(56.915564 26.578082)scale(0.996264)" xlink:href="#CMSY10-76"/>
      <use transform="translate(125.630372 26.578082)scale(0.996264)" xlink:href="#CMMI12-61"/>
      <use transform="translate(174.405291 26.578082)scale(0.996264)" xlink:href="#CMMI12-64"/>
      <use transform="translate(231.320856 26.578082)scale(0.996264)" xlink:href="#CMMI12-22"/>
      <use transform="translate(290.012277 74.841065)scale(0.697382)" xlink:href="#CMMI12-85"/>
      <use transform="translate(290.012277 0)scale(0.697382)" xlink:href="#CMR17-49"/>
      <path d="M 290.012277 63.683261 
L 344.171317 63.683261 
L 344.171317 66.472712 
L 290.012277 66.472712 
L 290.012277 63.683261 
z
"/>
     </g>
    </g>
    <g id="line2d_33">
     <path d="M 445.185706 84.899521 
L 465.185706 84.899521 
" style="fill:none;stroke:#00bfbf;stroke-linecap:square;stroke-width:1.5;"/>
    </g>
    <g id="line2d_34"/>
    <g id="text_17">
     <!-- $\partial \mathcal{L}/ \partial \mu^{\underline{U}}_{2}$ -->
     <g transform="translate(473.185706 88.399521)scale(0.1 -0.1)">
      <use transform="translate(0 26.578082)scale(0.996264)" xlink:href="#CMMI12-64"/>
      <use transform="translate(56.915564 26.578082)scale(0.996264)" xlink:href="#CMSY10-76"/>
      <use transform="translate(125.630372 26.578082)scale(0.996264)" xlink:href="#CMMI12-61"/>
      <use transform="translate(174.405291 26.578082)scale(0.996264)" xlink:href="#CMMI12-64"/>
      <use transform="translate(231.320856 26.578082)scale(0.996264)" xlink:href="#CMMI12-22"/>
      <use transform="translate(290.012277 74.841065)scale(0.697382)" xlink:href="#CMMI12-85"/>
      <use transform="translate(290.012277 0)scale(0.697382)" xlink:href="#CMR17-50"/>
      <path d="M 290.012277 63.683261 
L 344.171317 63.683261 
L 344.171317 66.472712 
L 290.012277 66.472712 
L 290.012277 63.683261 
z
"/>
     </g>
    </g>
    <g id="line2d_35">
     <path d="M 445.185706 102.147871 
L 465.185706 102.147871 
" style="fill:none;stroke:#ff0000;stroke-linecap:square;stroke-width:1.5;"/>
    </g>
    <g id="line2d_36"/>
    <g id="text_18">
     <!-- $\partial \mathcal{L}/ \partial \mu^{\underline{U}}_{3}$ -->
     <g transform="translate(473.185706 105.647871)scale(0.1 -0.1)">
      <use transform="translate(0 26.578082)scale(0.996264)" xlink:href="#CMMI12-64"/>
      <use transform="translate(56.915564 26.578082)scale(0.996264)" xlink:href="#CMSY10-76"/>
      <use transform="translate(125.630372 26.578082)scale(0.996264)" xlink:href="#CMMI12-61"/>
      <use transform="translate(174.405291 26.578082)scale(0.996264)" xlink:href="#CMMI12-64"/>
      <use transform="translate(231.320856 26.578082)scale(0.996264)" xlink:href="#CMMI12-22"/>
      <use transform="translate(290.012277 74.841065)scale(0.697382)" xlink:href="#CMMI12-85"/>
      <use transform="translate(290.012277 0)scale(0.697382)" xlink:href="#CMR17-51"/>
      <path d="M 290.012277 63.683261 
L 344.171317 63.683261 
L 344.171317 66.472712 
L 290.012277 66.472712 
L 290.012277 63.683261 
z
"/>
     </g>
    </g>
    <g id="line2d_37">
     <path d="M 445.185706 119.39622 
L 465.185706 119.39622 
" style="fill:none;stroke:#008000;stroke-linecap:square;stroke-width:1.5;"/>
    </g>
    <g id="line2d_38"/>
    <g id="text_19">
     <!-- $\partial \mathcal{L}/ \partial \mu^{\underline{U}}_{4}$ -->
     <g transform="translate(473.185706 122.89622)scale(0.1 -0.1)">
      <use transform="translate(0 26.578082)scale(0.996264)" xlink:href="#CMMI12-64"/>
      <use transform="translate(56.915564 26.578082)scale(0.996264)" xlink:href="#CMSY10-76"/>
      <use transform="translate(125.630372 26.578082)scale(0.996264)" xlink:href="#CMMI12-61"/>
      <use transform="translate(174.405291 26.578082)scale(0.996264)" xlink:href="#CMMI12-64"/>
      <use transform="translate(231.320856 26.578082)scale(0.996264)" xlink:href="#CMMI12-22"/>
      <use transform="translate(290.012277 74.841065)scale(0.697382)" xlink:href="#CMMI12-85"/>
      <use transform="translate(290.012277 0)scale(0.697382)" xlink:href="#CMR17-52"/>
      <path d="M 290.012277 63.683261 
L 344.171317 63.683261 
L 344.171317 66.472712 
L 290.012277 66.472712 
L 290.012277 63.683261 
z
"/>
     </g>
    </g>
   </g>
  </g>
 </g>
 <defs>
  <clipPath id="pc1914576ce">
   <rect height="332.64" width="446.4" x="72" y="51.84"/>
  </clipPath>
 </defs>
</svg>
