<?xml version="1.0" encoding="utf-8" standalone="no"?>
<!DOCTYPE svg PUBLIC "-//W3C//DTD SVG 1.1//EN"
  "http://www.w3.org/Graphics/SVG/1.1/DTD/svg11.dtd">
<!-- Created with matplotlib (http://matplotlib.org/) -->
<svg height="432pt" version="1.1" viewBox="0 0 576 432" width="576pt" xmlns="http://www.w3.org/2000/svg" xmlns:xlink="http://www.w3.org/1999/xlink">
 <defs>
  <style type="text/css">
*{stroke-linecap:butt;stroke-linejoin:round;}
  </style>
 </defs>
 <g id="figure_1">
  <g id="patch_1">
   <path d="M 0 432 
L 576 432 
L 576 0 
L 0 0 
z
" style="fill:#ffffff;"/>
  </g>
  <g id="axes_1">
   <g id="patch_2">
    <path d="M 72 384.48 
L 518.4 384.48 
L 518.4 51.84 
L 72 51.84 
z
" style="fill:#ffffff;"/>
   </g>
   <g id="matplotlib.axis_1">
    <g id="xtick_1">
     <g id="line2d_1">
      <path clip-path="url(#p7c5cb2c79b)" d="M 92.290909 384.48 
L 92.290909 51.84 
" style="fill:none;stroke:#b0b0b0;stroke-dasharray:5.12,1.28,0.8,1.28;stroke-dashoffset:0;stroke-width:0.8;"/>
     </g>
     <g id="line2d_2">
      <defs>
       <path d="M 0 0 
L 0 3.5 
" id="mfd6daa1acf" style="stroke:#000000;stroke-width:0.8;"/>
      </defs>
      <g>
       <use style="stroke:#000000;stroke-width:0.8;" x="92.290909" xlink:href="#mfd6daa1acf" y="384.48"/>
      </g>
     </g>
     <g id="text_1">
      <!-- $0$ -->
      <defs>
       <path d="M 42 31.640625 
C 42 37.75 41.90625 48.125 37.703125 56.109375 
C 34 63.109375 28.09375 65.59375 22.90625 65.59375 
C 18.09375 65.59375 12 63.40625 8.203125 56.203125 
C 4.203125 48.71875 3.796875 39.4375 3.796875 31.640625 
C 3.796875 25.953125 3.90625 17.28125 7 9.671875 
C 11.296875 -0.609375 19 -2 22.90625 -2 
C 27.5 -2 34.5 -0.109375 38.59375 9.375 
C 41.59375 16.28125 42 24.359375 42 31.640625 
z
M 22.90625 -0.40625 
C 16.5 -0.40625 12.703125 5.078125 11.296875 12.6875 
C 10.203125 18.5625 10.203125 27.15625 10.203125 32.75 
C 10.203125 40.4375 10.203125 46.828125 11.5 52.921875 
C 13.40625 61.390625 19 64 22.90625 64 
C 27 64 32.296875 61.296875 34.203125 53.125 
C 35.5 47.4375 35.59375 40.734375 35.59375 32.75 
C 35.59375 26.25 35.59375 18.265625 34.40625 12.375 
C 32.296875 1.484375 26.40625 -0.40625 22.90625 -0.40625 
z
" id="CMR17-48"/>
      </defs>
      <g transform="translate(89.800241 398.398498)scale(0.1 -0.1)">
       <use transform="scale(0.996264)" xlink:href="#CMR17-48"/>
      </g>
     </g>
    </g>
    <g id="xtick_2">
     <g id="line2d_3">
      <path clip-path="url(#p7c5cb2c79b)" d="M 162.283697 384.48 
L 162.283697 51.84 
" style="fill:none;stroke:#b0b0b0;stroke-dasharray:5.12,1.28,0.8,1.28;stroke-dashoffset:0;stroke-width:0.8;"/>
     </g>
     <g id="line2d_4">
      <g>
       <use style="stroke:#000000;stroke-width:0.8;" x="162.283697" xlink:href="#mfd6daa1acf" y="384.48"/>
      </g>
     </g>
     <g id="text_2">
      <!-- $500$ -->
      <defs>
       <path d="M 11.40625 57.6875 
C 12.40625 57.28125 16.5 56 20.703125 56 
C 30 56 35.09375 61.109375 38 64.0625 
C 38 64.953125 38 65.5 37.40625 65.5 
C 37.296875 65.5 37.09375 65.5 36.296875 65.046875 
C 32.796875 63.40625 28.703125 62.078125 23.703125 62.078125 
C 20.703125 62.078125 16.203125 62.484375 11.296875 64.671875 
C 10.203125 65.171875 10 65.171875 9.90625 65.171875 
C 9.40625 65.171875 9.296875 65.0625 9.296875 63.078125 
L 9.296875 34.421875 
C 9.296875 32.640625 9.296875 32.140625 10.296875 32.140625 
C 10.796875 32.140625 11 32.34375 11.5 33.03125 
C 14.703125 37.515625 19.09375 39.40625 24.09375 39.40625 
C 27.59375 39.40625 35.09375 37.21875 35.09375 20.140625 
C 35.09375 16.953125 35.09375 11.171875 32.09375 6.578125 
C 29.59375 2.484375 25.703125 0.390625 21.40625 0.390625 
C 14.796875 0.390625 8.09375 5 6.296875 12.71875 
C 6.703125 12.609375 7.5 12.421875 7.90625 12.421875 
C 9.203125 12.421875 11.703125 13.125 11.703125 16.21875 
C 11.703125 18.90625 9.796875 20 7.90625 20 
C 5.59375 20 4.09375 18.59375 4.09375 15.796875 
C 4.09375 7.09375 11 -2 21.59375 -2 
C 31.90625 -2 41.703125 6.875 41.703125 19.75 
C 41.703125 31.71875 33.90625 41 24.203125 41 
C 19.09375 41 14.796875 39.109375 11.40625 35.53125 
z
" id="CMR17-53"/>
      </defs>
      <g transform="translate(154.811694 398.398498)scale(0.1 -0.1)">
       <use transform="scale(0.996264)" xlink:href="#CMR17-53"/>
       <use transform="translate(45.690477 0)scale(0.996264)" xlink:href="#CMR17-48"/>
       <use transform="translate(91.380954 0)scale(0.996264)" xlink:href="#CMR17-48"/>
      </g>
     </g>
    </g>
    <g id="xtick_3">
     <g id="line2d_5">
      <path clip-path="url(#p7c5cb2c79b)" d="M 232.276484 384.48 
L 232.276484 51.84 
" style="fill:none;stroke:#b0b0b0;stroke-dasharray:5.12,1.28,0.8,1.28;stroke-dashoffset:0;stroke-width:0.8;"/>
     </g>
     <g id="line2d_6">
      <g>
       <use style="stroke:#000000;stroke-width:0.8;" x="232.276484" xlink:href="#mfd6daa1acf" y="384.48"/>
      </g>
     </g>
     <g id="text_3">
      <!-- $1000$ -->
      <defs>
       <path d="M 26.59375 63.40625 
C 26.59375 65.5 26.5 65.5 25.09375 65.5 
C 21.203125 61.1875 15.296875 59.796875 9.703125 59.796875 
C 9.40625 59.796875 8.90625 59.796875 8.796875 59.5 
C 8.703125 59.296875 8.703125 59.09375 8.703125 57 
C 11.796875 57 17 57.59375 21 59.984375 
L 21 7.203125 
C 21 3.6875 20.796875 2.5 12.203125 2.5 
L 9.203125 2.5 
L 9.203125 0 
C 14 0 19 0 23.796875 0 
C 28.59375 0 33.59375 0 38.40625 0 
L 38.40625 2.5 
L 35.40625 2.5 
C 26.796875 2.5 26.59375 3.59375 26.59375 7.15625 
z
" id="CMR17-49"/>
      </defs>
      <g transform="translate(222.313814 398.398498)scale(0.1 -0.1)">
       <use transform="scale(0.996264)" xlink:href="#CMR17-49"/>
       <use transform="translate(45.690477 0)scale(0.996264)" xlink:href="#CMR17-48"/>
       <use transform="translate(91.380954 0)scale(0.996264)" xlink:href="#CMR17-48"/>
       <use transform="translate(137.071431 0)scale(0.996264)" xlink:href="#CMR17-48"/>
      </g>
     </g>
    </g>
    <g id="xtick_4">
     <g id="line2d_7">
      <path clip-path="url(#p7c5cb2c79b)" d="M 302.269272 384.48 
L 302.269272 51.84 
" style="fill:none;stroke:#b0b0b0;stroke-dasharray:5.12,1.28,0.8,1.28;stroke-dashoffset:0;stroke-width:0.8;"/>
     </g>
     <g id="line2d_8">
      <g>
       <use style="stroke:#000000;stroke-width:0.8;" x="302.269272" xlink:href="#mfd6daa1acf" y="384.48"/>
      </g>
     </g>
     <g id="text_4">
      <!-- $1500$ -->
      <g transform="translate(292.306601 398.398498)scale(0.1 -0.1)">
       <use transform="scale(0.996264)" xlink:href="#CMR17-49"/>
       <use transform="translate(45.690477 0)scale(0.996264)" xlink:href="#CMR17-53"/>
       <use transform="translate(91.380954 0)scale(0.996264)" xlink:href="#CMR17-48"/>
       <use transform="translate(137.071431 0)scale(0.996264)" xlink:href="#CMR17-48"/>
      </g>
     </g>
    </g>
    <g id="xtick_5">
     <g id="line2d_9">
      <path clip-path="url(#p7c5cb2c79b)" d="M 372.262059 384.48 
L 372.262059 51.84 
" style="fill:none;stroke:#b0b0b0;stroke-dasharray:5.12,1.28,0.8,1.28;stroke-dashoffset:0;stroke-width:0.8;"/>
     </g>
     <g id="line2d_10">
      <g>
       <use style="stroke:#000000;stroke-width:0.8;" x="372.262059" xlink:href="#mfd6daa1acf" y="384.48"/>
      </g>
     </g>
     <g id="text_5">
      <!-- $2000$ -->
      <defs>
       <path d="M 41.703125 15.453125 
L 39.90625 15.453125 
C 38.90625 8.375 38.09375 7.171875 37.703125 6.5625 
C 37.203125 5.765625 30 5.765625 28.59375 5.765625 
L 9.40625 5.765625 
C 13 9.671875 20 16.75 28.5 24.953125 
C 34.59375 30.734375 41.703125 37.53125 41.703125 47.421875 
C 41.703125 59.21875 32.296875 66 21.796875 66 
C 10.796875 66 4.09375 56.3125 4.09375 47.34375 
C 4.09375 43.4375 7 42.9375 8.203125 42.9375 
C 9.203125 42.9375 12.203125 43.546875 12.203125 47.03125 
C 12.203125 50.109375 9.59375 51 8.203125 51 
C 7.59375 51 7 50.90625 6.59375 50.703125 
C 8.5 59.21875 14.296875 63.40625 20.40625 63.40625 
C 29.09375 63.40625 34.796875 56.515625 34.796875 47.421875 
C 34.796875 38.734375 29.703125 31.25 24 24.75 
L 4.09375 2.28125 
L 4.09375 0 
L 39.296875 0 
z
" id="CMR17-50"/>
      </defs>
      <g transform="translate(362.299389 398.398498)scale(0.1 -0.1)">
       <use transform="scale(0.996264)" xlink:href="#CMR17-50"/>
       <use transform="translate(45.690477 0)scale(0.996264)" xlink:href="#CMR17-48"/>
       <use transform="translate(91.380954 0)scale(0.996264)" xlink:href="#CMR17-48"/>
       <use transform="translate(137.071431 0)scale(0.996264)" xlink:href="#CMR17-48"/>
      </g>
     </g>
    </g>
    <g id="xtick_6">
     <g id="line2d_11">
      <path clip-path="url(#p7c5cb2c79b)" d="M 442.254846 384.48 
L 442.254846 51.84 
" style="fill:none;stroke:#b0b0b0;stroke-dasharray:5.12,1.28,0.8,1.28;stroke-dashoffset:0;stroke-width:0.8;"/>
     </g>
     <g id="line2d_12">
      <g>
       <use style="stroke:#000000;stroke-width:0.8;" x="442.254846" xlink:href="#mfd6daa1acf" y="384.48"/>
      </g>
     </g>
     <g id="text_6">
      <!-- $2500$ -->
      <g transform="translate(432.292176 398.398498)scale(0.1 -0.1)">
       <use transform="scale(0.996264)" xlink:href="#CMR17-50"/>
       <use transform="translate(45.690477 0)scale(0.996264)" xlink:href="#CMR17-53"/>
       <use transform="translate(91.380954 0)scale(0.996264)" xlink:href="#CMR17-48"/>
       <use transform="translate(137.071431 0)scale(0.996264)" xlink:href="#CMR17-48"/>
      </g>
     </g>
    </g>
    <g id="xtick_7">
     <g id="line2d_13">
      <path clip-path="url(#p7c5cb2c79b)" d="M 512.247634 384.48 
L 512.247634 51.84 
" style="fill:none;stroke:#b0b0b0;stroke-dasharray:5.12,1.28,0.8,1.28;stroke-dashoffset:0;stroke-width:0.8;"/>
     </g>
     <g id="line2d_14">
      <g>
       <use style="stroke:#000000;stroke-width:0.8;" x="512.247634" xlink:href="#mfd6daa1acf" y="384.48"/>
      </g>
     </g>
     <g id="text_7">
      <!-- $3000$ -->
      <defs>
       <path d="M 22.09375 33.703125 
C 31 33.703125 34.90625 25.96875 34.90625 17.03125 
C 34.90625 5 28.5 0.390625 22.703125 0.390625 
C 17.40625 0.390625 8.796875 3.03125 6.09375 10.828125 
C 6.59375 10.625 7.09375 10.625 7.59375 10.625 
C 10 10.625 11.796875 12.21875 11.796875 14.8125 
C 11.796875 17.703125 9.59375 19 7.59375 19 
C 5.90625 19 3.296875 18.203125 3.296875 14.46875 
C 3.296875 5.234375 12.296875 -2 22.90625 -2 
C 34 -2 42.5 6.71875 42.5 16.953125 
C 42.5 26.671875 34.5 33.703125 25 34.796875 
C 32.59375 36.375 39.90625 43.0625 39.90625 52.015625 
C 39.90625 59.6875 32 65.296875 23 65.296875 
C 13.90625 65.296875 5.90625 59.828125 5.90625 52.015625 
C 5.90625 48.59375 8.5 48 9.796875 48 
C 11.90625 48 13.703125 49.296875 13.703125 51.890625 
C 13.703125 54.46875 11.90625 55.765625 9.796875 55.765625 
C 9.40625 55.765625 8.90625 55.765625 8.5 55.578125 
C 11.40625 61.859375 19.296875 63 22.796875 63 
C 26.296875 63 32.90625 61.328125 32.90625 51.875 
C 32.90625 49.109375 32.5 44.1875 29.09375 39.84375 
C 26.09375 36 22.703125 36 19.40625 35.6875 
C 18.90625 35.6875 16.59375 35.453125 16.203125 35.453125 
C 15.5 35.359375 15.09375 35.265625 15.09375 34.5 
C 15.09375 33.796875 15.203125 33.703125 17.203125 33.703125 
z
" id="CMR17-51"/>
      </defs>
      <g transform="translate(502.284963 398.398498)scale(0.1 -0.1)">
       <use transform="scale(0.996264)" xlink:href="#CMR17-51"/>
       <use transform="translate(45.690477 0)scale(0.996264)" xlink:href="#CMR17-48"/>
       <use transform="translate(91.380954 0)scale(0.996264)" xlink:href="#CMR17-48"/>
       <use transform="translate(137.071431 0)scale(0.996264)" xlink:href="#CMR17-48"/>
      </g>
     </g>
    </g>
    <g id="text_8">
     <!-- Iteration -->
     <defs>
      <path d="M 17.09375 69 
L 8.703125 69 
L 8.703125 0 
L 17.09375 0 
z
" id="CMSS17-73"/>
      <path d="M 16.703125 37 
L 29.703125 37 
L 29.703125 42.765625 
L 16.703125 42.765625 
L 16.703125 55 
L 9.59375 55 
L 9.59375 42.765625 
L 1.703125 42.765625 
L 1.703125 37 
L 9.40625 37 
L 9.40625 11.703125 
C 9.40625 6 10.703125 -1 17.296875 -1 
C 22.296875 -1 26.90625 0.390625 31.296875 2.6875 
L 29.703125 8.5625 
C 27.296875 6.46875 24.40625 5.265625 21.296875 5.265625 
C 16.90625 5.265625 16.703125 10.875 16.703125 13.375 
z
" id="CMSS17-116"/>
      <path d="M 39.09375 21.515625 
C 39.09375 24.84375 38.90625 31.296875 35.703125 36.640625 
C 32.203125 42.390625 26.5 44 22.203125 44 
C 11.796875 44 3 34.1875 3 21.484375 
C 3 9.09375 12.09375 -1 23.59375 -1 
C 28.09375 -1 33.59375 0.296875 38.59375 3.875 
C 38.59375 4.28125 38.40625 6.46875 38.296875 6.5625 
C 38.296875 6.765625 38 9.84375 38 10.25 
C 33.203125 6.359375 27.703125 5.078125 23.703125 5.078125 
C 17.296875 5.078125 10.40625 10.421875 10.09375 21.515625 
z
M 10.90625 27 
C 12.203125 32.5625 16.59375 37.828125 22.203125 37.828125 
C 23.703125 37.828125 30.703125 37.828125 32.5 27 
z
" id="CMSS17-101"/>
      <path d="M 14.90625 21.296875 
C 14.90625 30.703125 21.796875 37 30.59375 37 
L 30.59375 43.578125 
C 24.203125 43.578125 18.203125 40.390625 14.59375 35.203125 
L 14.59375 43.09375 
L 7.5 43.09375 
L 7.5 0 
L 14.90625 0 
z
" id="CMSS17-114"/>
      <path d="M 37.59375 27.984375 
C 37.59375 37.375 30.90625 43.875 21.90625 43.875 
C 17.5 43.875 12.703125 43.078125 7.203125 39.890625 
L 7.796875 33.359375 
C 10.296875 35.125 14.59375 38 21.796875 38 
C 26.90625 38 30 34.0625 30 27.84375 
L 30 24 
C 14 24 4 19.34375 4 11.34375 
C 4 7.203125 6.5 -1 14.796875 -1 
C 16.296875 -1 24.40625 -1 30.203125 3.390625 
L 30.203125 -0.296875 
L 37.59375 -0.296875 
z
M 30 12.75 
C 30 10.953125 30 8.5625 27 6.78125 
C 24.40625 5.078125 21.09375 5.078125 19.703125 5.078125 
C 14.703125 5.078125 11.296875 7.984375 11.296875 11.625 
C 11.296875 18.921875 26.90625 18.921875 30 18.921875 
z
" id="CMSS17-97"/>
      <path d="M 15.296875 65.359375 
L 6.90625 65.359375 
L 6.90625 57 
L 15.296875 57 
z
M 14.796875 42.796875 
L 7.40625 42.796875 
L 7.40625 0 
L 14.796875 0 
z
" id="CMSS17-105"/>
      <path d="M 44.203125 21.1875 
C 44.203125 34 34.703125 44 23.5 44 
C 12 44 2.703125 33.703125 2.703125 21.1875 
C 2.703125 8.5 12.296875 -1 23.40625 -1 
C 34.796875 -1 44.203125 8.796875 44.203125 21.1875 
z
M 23.5 5.265625 
C 16.40625 5.265625 10.296875 11.078125 10.296875 22 
C 10.296875 33.609375 17.40625 37.921875 23.40625 37.921875 
C 29.90625 37.921875 36.59375 33.21875 36.59375 22 
C 36.59375 10.671875 30.09375 5.265625 23.5 5.265625 
z
" id="CMSS17-111"/>
      <path d="M 40.90625 29.328125 
C 40.90625 35.671875 39.40625 44 28.09375 44 
C 21.703125 44 17.5 40.71875 14.703125 37.328125 
L 14.703125 43.09375 
L 7.40625 43.09375 
L 7.40625 0 
L 15 0 
L 15 24.359375 
C 15 30.6875 17.40625 37.9375 24.203125 37.9375 
C 33 37.9375 33.296875 32 33.296875 28.578125 
L 33.296875 0 
L 40.90625 0 
z
" id="CMSS17-110"/>
     </defs>
     <g transform="translate(271.264003 414.021553)scale(0.14 -0.14)">
      <use transform="scale(0.996264)" xlink:href="#CMSS17-73"/>
      <use transform="translate(25.783926 0)scale(0.996264)" xlink:href="#CMSS17-116"/>
      <use transform="translate(59.615492 0)scale(0.996264)" xlink:href="#CMSS17-101"/>
      <use transform="translate(101.254314 0)scale(0.996264)" xlink:href="#CMSS17-114"/>
      <use transform="translate(133.164087 0)scale(0.996264)" xlink:href="#CMSS17-97"/>
      <use transform="translate(178.086007 0)scale(0.996264)" xlink:href="#CMSS17-116"/>
      <use transform="translate(211.917574 0)scale(0.996264)" xlink:href="#CMSS17-105"/>
      <use transform="translate(234.098297 0)scale(0.996264)" xlink:href="#CMSS17-111"/>
      <use transform="translate(280.941921 0)scale(0.996264)" xlink:href="#CMSS17-110"/>
     </g>
    </g>
   </g>
   <g id="matplotlib.axis_2">
    <g id="ytick_1">
     <g id="line2d_15">
      <path clip-path="url(#p7c5cb2c79b)" d="M 72 379.960088 
L 518.4 379.960088 
" style="fill:none;stroke:#b0b0b0;stroke-dasharray:5.12,1.28,0.8,1.28;stroke-dashoffset:0;stroke-width:0.8;"/>
     </g>
     <g id="line2d_16">
      <defs>
       <path d="M 0 0 
L -3.5 0 
" id="mfd4f6fdfd5" style="stroke:#000000;stroke-width:0.8;"/>
      </defs>
      <g>
       <use style="stroke:#000000;stroke-width:0.8;" x="72" xlink:href="#mfd4f6fdfd5" y="379.960088"/>
      </g>
     </g>
     <g id="text_9">
      <!-- $-8000$ -->
      <defs>
       <path d="M 65.90625 23 
C 67.59375 23 69.40625 23 69.40625 25 
C 69.40625 27 67.59375 27 65.90625 27 
L 11.796875 27 
C 10.09375 27 8.296875 27 8.296875 25 
C 8.296875 23 10.09375 23 11.796875 23 
z
" id="CMSY10-0"/>
       <path d="M 27.203125 35.375 
C 33.5 38.546875 39.90625 43.328125 39.90625 50.984375 
C 39.90625 60.015625 31.09375 65.296875 23 65.296875 
C 13.90625 65.296875 5.90625 58.734375 5.90625 49.6875 
C 5.90625 47.203125 6.5 42.921875 10.40625 39.140625 
C 11.40625 38.15625 15.59375 35.171875 18.296875 33.28125 
C 13.796875 30.984375 3.296875 25.53125 3.296875 14.59375 
C 3.296875 4.359375 13.09375 -2 22.796875 -2 
C 33.5 -2 42.5 5.65625 42.5 15.78125 
C 42.5 24.84375 36.40625 29.015625 32.40625 31.703125 
z
M 14.09375 44.09375 
C 13.296875 44.59375 9.296875 47.671875 9.296875 52.359375 
C 9.296875 58.421875 15.59375 63 22.796875 63 
C 30.703125 63 36.5 57.4375 36.5 50.96875 
C 36.5 41.703125 26.09375 36.421875 25.59375 36.421875 
C 25.5 36.421875 25.40625 36.421875 24.59375 37.03125 
z
M 32.5 23.734375 
C 34 22.640625 38.796875 19.375 38.796875 13.296875 
C 38.796875 5.953125 31.40625 0.390625 23 0.390625 
C 13.90625 0.390625 7 6.84375 7 14.6875 
C 7 22.546875 13.09375 29.09375 20 32.1875 
z
" id="CMR17-56"/>
      </defs>
      <g transform="translate(37.325915 383.419337)scale(0.1 -0.1)">
       <use transform="scale(0.996264)" xlink:href="#CMSY10-0"/>
       <use transform="translate(77.487468 0)scale(0.996264)" xlink:href="#CMR17-56"/>
       <use transform="translate(123.177945 0)scale(0.996264)" xlink:href="#CMR17-48"/>
       <use transform="translate(168.868422 0)scale(0.996264)" xlink:href="#CMR17-48"/>
       <use transform="translate(214.558899 0)scale(0.996264)" xlink:href="#CMR17-48"/>
      </g>
     </g>
    </g>
    <g id="ytick_2">
     <g id="line2d_17">
      <path clip-path="url(#p7c5cb2c79b)" d="M 72 339.889261 
L 518.4 339.889261 
" style="fill:none;stroke:#b0b0b0;stroke-dasharray:5.12,1.28,0.8,1.28;stroke-dashoffset:0;stroke-width:0.8;"/>
     </g>
     <g id="line2d_18">
      <g>
       <use style="stroke:#000000;stroke-width:0.8;" x="72" xlink:href="#mfd4f6fdfd5" y="339.889261"/>
      </g>
     </g>
     <g id="text_10">
      <!-- $-6000$ -->
      <defs>
       <path d="M 10.59375 34 
C 10.59375 57.65625 21.796875 63 28.296875 63 
C 30.40625 63 35.5 62.640625 37.5 59 
C 35.90625 59 32.90625 59 32.90625 55.515625 
C 32.90625 52.828125 35.09375 51.921875 36.5 51.921875 
C 37.40625 51.921875 40.09375 52.3125 40.09375 55.625 
C 40.09375 61.78125 35.09375 65.296875 28.203125 65.296875 
C 16.296875 65.296875 3.796875 52.96875 3.796875 31 
C 3.796875 3.953125 15.09375 -2 23.09375 -2 
C 32.796875 -2 42 6.671875 42 20.046875 
C 42 32.515625 33.90625 41.59375 23.703125 41.59375 
C 17.59375 41.59375 13.09375 37.609375 10.59375 30.625 
z
M 23.09375 0.390625 
C 10.796875 0.390625 10.796875 18.75 10.796875 22.4375 
C 10.796875 29.625 14.203125 40 23.5 40 
C 25.203125 40 30.09375 40 33.40625 33.125 
C 35.203125 29.21875 35.203125 25.140625 35.203125 20.140625 
C 35.203125 14.75 35.203125 10.78125 33.09375 6.78125 
C 30.90625 2.671875 27.703125 0.390625 23.09375 0.390625 
z
" id="CMR17-54"/>
      </defs>
      <g transform="translate(37.325915 343.34851)scale(0.1 -0.1)">
       <use transform="scale(0.996264)" xlink:href="#CMSY10-0"/>
       <use transform="translate(77.487468 0)scale(0.996264)" xlink:href="#CMR17-54"/>
       <use transform="translate(123.177945 0)scale(0.996264)" xlink:href="#CMR17-48"/>
       <use transform="translate(168.868422 0)scale(0.996264)" xlink:href="#CMR17-48"/>
       <use transform="translate(214.558899 0)scale(0.996264)" xlink:href="#CMR17-48"/>
      </g>
     </g>
    </g>
    <g id="ytick_3">
     <g id="line2d_19">
      <path clip-path="url(#p7c5cb2c79b)" d="M 72 299.818433 
L 518.4 299.818433 
" style="fill:none;stroke:#b0b0b0;stroke-dasharray:5.12,1.28,0.8,1.28;stroke-dashoffset:0;stroke-width:0.8;"/>
     </g>
     <g id="line2d_20">
      <g>
       <use style="stroke:#000000;stroke-width:0.8;" x="72" xlink:href="#mfd4f6fdfd5" y="299.818433"/>
      </g>
     </g>
     <g id="text_11">
      <!-- $-4000$ -->
      <defs>
       <path d="M 33.59375 64.40625 
C 33.59375 66.5 33.5 66.5 31.703125 66.5 
L 2 19.59375 
L 2 17 
L 27.796875 17 
L 27.796875 7.140625 
C 27.796875 3.5 27.59375 2.5 20.59375 2.5 
L 18.703125 2.5 
L 18.703125 0 
C 21.90625 0 27.296875 0 30.703125 0 
C 34.09375 0 39.5 0 42.703125 0 
L 42.703125 2.5 
L 40.796875 2.5 
C 33.796875 2.5 33.59375 3.5 33.59375 7.140625 
L 33.59375 17 
L 43.796875 17 
L 43.796875 19.59375 
L 33.59375 19.59375 
z
M 28.09375 57.859375 
L 28.09375 19.59375 
L 4 19.59375 
z
" id="CMR17-52"/>
      </defs>
      <g transform="translate(37.325915 303.277682)scale(0.1 -0.1)">
       <use transform="scale(0.996264)" xlink:href="#CMSY10-0"/>
       <use transform="translate(77.487468 0)scale(0.996264)" xlink:href="#CMR17-52"/>
       <use transform="translate(123.177945 0)scale(0.996264)" xlink:href="#CMR17-48"/>
       <use transform="translate(168.868422 0)scale(0.996264)" xlink:href="#CMR17-48"/>
       <use transform="translate(214.558899 0)scale(0.996264)" xlink:href="#CMR17-48"/>
      </g>
     </g>
    </g>
    <g id="ytick_4">
     <g id="line2d_21">
      <path clip-path="url(#p7c5cb2c79b)" d="M 72 259.747606 
L 518.4 259.747606 
" style="fill:none;stroke:#b0b0b0;stroke-dasharray:5.12,1.28,0.8,1.28;stroke-dashoffset:0;stroke-width:0.8;"/>
     </g>
     <g id="line2d_22">
      <g>
       <use style="stroke:#000000;stroke-width:0.8;" x="72" xlink:href="#mfd4f6fdfd5" y="259.747606"/>
      </g>
     </g>
     <g id="text_12">
      <!-- $-2000$ -->
      <g transform="translate(37.325915 263.206855)scale(0.1 -0.1)">
       <use transform="scale(0.996264)" xlink:href="#CMSY10-0"/>
       <use transform="translate(77.487468 0)scale(0.996264)" xlink:href="#CMR17-50"/>
       <use transform="translate(123.177945 0)scale(0.996264)" xlink:href="#CMR17-48"/>
       <use transform="translate(168.868422 0)scale(0.996264)" xlink:href="#CMR17-48"/>
       <use transform="translate(214.558899 0)scale(0.996264)" xlink:href="#CMR17-48"/>
      </g>
     </g>
    </g>
    <g id="ytick_5">
     <g id="line2d_23">
      <path clip-path="url(#p7c5cb2c79b)" d="M 72 219.676778 
L 518.4 219.676778 
" style="fill:none;stroke:#b0b0b0;stroke-dasharray:5.12,1.28,0.8,1.28;stroke-dashoffset:0;stroke-width:0.8;"/>
     </g>
     <g id="line2d_24">
      <g>
       <use style="stroke:#000000;stroke-width:0.8;" x="72" xlink:href="#mfd4f6fdfd5" y="219.676778"/>
      </g>
     </g>
     <g id="text_13">
      <!-- $0$ -->
      <g transform="translate(60.018665 223.136027)scale(0.1 -0.1)">
       <use transform="scale(0.996264)" xlink:href="#CMR17-48"/>
      </g>
     </g>
    </g>
    <g id="ytick_6">
     <g id="line2d_25">
      <path clip-path="url(#p7c5cb2c79b)" d="M 72 179.60595 
L 518.4 179.60595 
" style="fill:none;stroke:#b0b0b0;stroke-dasharray:5.12,1.28,0.8,1.28;stroke-dashoffset:0;stroke-width:0.8;"/>
     </g>
     <g id="line2d_26">
      <g>
       <use style="stroke:#000000;stroke-width:0.8;" x="72" xlink:href="#mfd4f6fdfd5" y="179.60595"/>
      </g>
     </g>
     <g id="text_14">
      <!-- $2000$ -->
      <g transform="translate(45.074659 183.0652)scale(0.1 -0.1)">
       <use transform="scale(0.996264)" xlink:href="#CMR17-50"/>
       <use transform="translate(45.690477 0)scale(0.996264)" xlink:href="#CMR17-48"/>
       <use transform="translate(91.380954 0)scale(0.996264)" xlink:href="#CMR17-48"/>
       <use transform="translate(137.071431 0)scale(0.996264)" xlink:href="#CMR17-48"/>
      </g>
     </g>
    </g>
    <g id="ytick_7">
     <g id="line2d_27">
      <path clip-path="url(#p7c5cb2c79b)" d="M 72 139.535123 
L 518.4 139.535123 
" style="fill:none;stroke:#b0b0b0;stroke-dasharray:5.12,1.28,0.8,1.28;stroke-dashoffset:0;stroke-width:0.8;"/>
     </g>
     <g id="line2d_28">
      <g>
       <use style="stroke:#000000;stroke-width:0.8;" x="72" xlink:href="#mfd4f6fdfd5" y="139.535123"/>
      </g>
     </g>
     <g id="text_15">
      <!-- $4000$ -->
      <g transform="translate(45.074659 142.994372)scale(0.1 -0.1)">
       <use transform="scale(0.996264)" xlink:href="#CMR17-52"/>
       <use transform="translate(45.690477 0)scale(0.996264)" xlink:href="#CMR17-48"/>
       <use transform="translate(91.380954 0)scale(0.996264)" xlink:href="#CMR17-48"/>
       <use transform="translate(137.071431 0)scale(0.996264)" xlink:href="#CMR17-48"/>
      </g>
     </g>
    </g>
    <g id="ytick_8">
     <g id="line2d_29">
      <path clip-path="url(#p7c5cb2c79b)" d="M 72 99.464295 
L 518.4 99.464295 
" style="fill:none;stroke:#b0b0b0;stroke-dasharray:5.12,1.28,0.8,1.28;stroke-dashoffset:0;stroke-width:0.8;"/>
     </g>
     <g id="line2d_30">
      <g>
       <use style="stroke:#000000;stroke-width:0.8;" x="72" xlink:href="#mfd4f6fdfd5" y="99.464295"/>
      </g>
     </g>
     <g id="text_16">
      <!-- $6000$ -->
      <g transform="translate(45.074659 102.923544)scale(0.1 -0.1)">
       <use transform="scale(0.996264)" xlink:href="#CMR17-54"/>
       <use transform="translate(45.690477 0)scale(0.996264)" xlink:href="#CMR17-48"/>
       <use transform="translate(91.380954 0)scale(0.996264)" xlink:href="#CMR17-48"/>
       <use transform="translate(137.071431 0)scale(0.996264)" xlink:href="#CMR17-48"/>
      </g>
     </g>
    </g>
    <g id="ytick_9">
     <g id="line2d_31">
      <path clip-path="url(#p7c5cb2c79b)" d="M 72 59.393468 
L 518.4 59.393468 
" style="fill:none;stroke:#b0b0b0;stroke-dasharray:5.12,1.28,0.8,1.28;stroke-dashoffset:0;stroke-width:0.8;"/>
     </g>
     <g id="line2d_32">
      <g>
       <use style="stroke:#000000;stroke-width:0.8;" x="72" xlink:href="#mfd4f6fdfd5" y="59.393468"/>
      </g>
     </g>
     <g id="text_17">
      <!-- $8000$ -->
      <g transform="translate(45.074659 62.852717)scale(0.1 -0.1)">
       <use transform="scale(0.996264)" xlink:href="#CMR17-56"/>
       <use transform="translate(45.690477 0)scale(0.996264)" xlink:href="#CMR17-48"/>
       <use transform="translate(91.380954 0)scale(0.996264)" xlink:href="#CMR17-48"/>
       <use transform="translate(137.071431 0)scale(0.996264)" xlink:href="#CMR17-48"/>
      </g>
     </g>
    </g>
    <g id="text_18">
     <!-- $\partial \mathcal{L}/ \partial \lambda_{m}[W]$ -->
     <defs>
      <path d="M 45.40625 33.515625 
C 44.796875 39.125 41.296875 45.859375 32.296875 45.859375 
C 18.203125 45.859375 3.796875 31.515625 3.796875 15.5625 
C 3.796875 9.4375 8 -2.09375 21.59375 -2.09375 
C 45.203125 -2.09375 55.296875 32.296875 55.296875 46 
C 55.296875 60.40625 47.203125 71.5 34.40625 71.5 
C 19.90625 71.5 15.59375 58.796875 15.59375 56.09375 
C 15.59375 55.203125 16.203125 53 19 53 
C 22.5 53 24 56.203125 24 57.90625 
C 24 61 20.90625 61 19.59375 61 
C 23.703125 68.40625 31.296875 69.09375 34 69.09375 
C 42.796875 69.09375 48.40625 62.109375 48.40625 50.96875 
C 48.40625 44.578125 46.5 37.1875 45.5 33.515625 
z
M 21.90625 0.59375 
C 12.5 0.59375 10.90625 8.03125 10.90625 12.25 
C 10.90625 16.65625 13.703125 27 15.203125 30.703125 
C 16.5 33.71875 22.203125 43.859375 32.59375 43.859375 
C 41.703125 43.859375 43.796875 35.921875 43.796875 30.515625 
C 43.796875 23.078125 37.296875 0.59375 21.90625 0.59375 
z
" id="CMMI12-64"/>
      <path d="M 18 9.53125 
C 23.40625 17.984375 25.09375 24.40625 26.40625 29.734375 
C 29.90625 43.59375 33.703125 55.65625 39.90625 62.578125 
C 41.09375 63.90625 41.90625 64.796875 45.09375 64.796875 
C 52 64.796875 52.203125 57.875 52.203125 56.453125 
C 52.203125 54.65625 51.703125 53.234375 51.703125 52.734375 
C 51.703125 52.03125 52.296875 52.03125 52.40625 52.03125 
C 54 52.03125 56.703125 53.140625 59.203125 54.953125 
C 61 56.359375 61.90625 57.359375 61.90625 61.46875 
C 61.90625 66.890625 59.09375 71 53.5 71 
C 50.296875 71 41.5 70.203125 31.703125 60.25 
C 23.703125 52.015625 19 33.9375 17.09375 26.40625 
C 15.296875 19.5 14.5 16.375 11.5 10.34375 
C 10.796875 9.15625 8.203125 4.734375 6.796875 3.421875 
C 4.09375 0.921875 3.09375 -0.890625 3.09375 -1.390625 
C 3.09375 -1.59375 3.296875 -2 4 -2 
C 4.40625 -2 6.5 -1.59375 9.09375 0.078125 
C 10.796875 1.0625 11 1.25 13.296875 3.609375 
C 18.296875 3.609375 21.796875 2.703125 28.09375 0.90625 
C 33.203125 -0.5 38.296875 -2 43.40625 -2 
C 51.5 -2 59.703125 4.125 62.90625 8.53125 
C 64.90625 11.234375 65.5 13.75 65.5 14.046875 
C 65.5 14.75 64.90625 14.75 64.796875 14.75 
C 63.203125 14.75 60.796875 13.65625 59.09375 12.4375 
C 56.40625 10.734375 56.203125 10.140625 55.59375 8.421875 
C 55.09375 6.8125 54.5 6.015625 54.09375 5.40625 
C 53.296875 4.203125 53.203125 4.203125 51.703125 4.203125 
C 46.90625 4.203125 41.90625 5.71875 35.296875 7.515625 
C 32.5 8.3125 27 9.9375 22 9.9375 
C 20.703125 9.9375 19.296875 9.828125 18 9.53125 
z
" id="CMSY10-76"/>
      <path d="M 42.90625 71.28125 
C 42.90625 71.390625 43.5 72.90625 43.5 73.09375 
C 43.5 74.296875 42.5 75 41.703125 75 
C 41.203125 75 40.296875 75 39.5 72.796875 
L 6 -21.296875 
C 6 -21.40625 5.40625 -22.890625 5.40625 -23.09375 
C 5.40625 -24.296875 6.40625 -25 7.203125 -25 
C 7.796875 -25 8.703125 -24.890625 9.40625 -22.796875 
z
" id="CMMI12-61"/>
      <path d="M 30.90625 61.953125 
C 28.40625 69 20.5 69 19.203125 69 
C 18.59375 69 17.5 69 17.5 68 
C 17.5 67.21875 18.09375 67.109375 18.59375 67.015625 
C 20.09375 66.8125 21.296875 66.609375 22.90625 63.75 
C 23.90625 61.859375 34.203125 32.171875 34.203125 31.96875 
C 34.203125 31.875 34.09375 31.765625 33.296875 30.96875 
L 7.296875 4.859375 
C 6.09375 3.65625 5.296875 2.859375 5.296875 1.59375 
C 5.296875 0.1875 6.5 -1 8.09375 -1 
C 8.5 -1 9.59375 -0.796875 10.203125 -0.203125 
C 11.796875 1.28125 26.09375 18.65625 35.203125 29.390625 
C 37.796875 21.609375 41 12.453125 44.09375 4.078125 
C 44.59375 2.59375 45.09375 1.1875 46.5 -0.09375 
C 47.5 -1 47.703125 -1 50.5 -1 
L 52.40625 -1 
C 52.796875 -1 53.5 -1 53.5 -0.203125 
C 53.5 0.203125 53.40625 0.296875 53 0.703125 
C 52.09375 1.796875 51.40625 3.578125 51 4.78125 
z
" id="CMMI12-21"/>
      <path d="M 20.59375 29.234375 
C 20.796875 29.84375 23.296875 34.828125 27 38.015625 
C 29.59375 40.40625 33 42.015625 36.90625 42.015625 
C 40.90625 42.015625 42.296875 39.015625 42.296875 35.03125 
C 42.296875 34.421875 42.296875 32.4375 41.09375 27.734375 
L 38.59375 17.46875 
C 37.796875 14.46875 35.90625 7.078125 35.703125 5.984375 
C 35.296875 4.484375 34.703125 1.890625 34.703125 1.5 
C 34.703125 0.09375 35.796875 -1 37.296875 -1 
C 40.296875 -1 40.796875 1.296875 41.703125 4.890625 
L 47.703125 28.734375 
C 47.90625 29.53125 53.09375 42.015625 64.09375 42.015625 
C 68.09375 42.015625 69.5 39.015625 69.5 35.03125 
C 69.5 29.4375 65.59375 18.5625 63.40625 12.578125 
C 62.5 10.171875 62 8.875 62 7.078125 
C 62 2.59375 65.09375 -1 69.90625 -1 
C 79.203125 -1 82.703125 13.671875 82.703125 14.265625 
C 82.703125 14.765625 82.296875 15.171875 81.703125 15.171875 
C 80.796875 15.171875 80.703125 14.875 80.203125 13.171875 
C 77.90625 5.1875 74.203125 1 70.203125 1 
C 69.203125 1 67.59375 1 67.59375 4.203125 
C 67.59375 6.8125 68.796875 10 69.203125 11.09375 
C 71 15.90625 75.5 27.703125 75.5 33.515625 
C 75.5 39.5 72 44 64.40625 44 
C 57.703125 44 52.296875 40.21875 48.296875 34.328125 
C 48 39.71875 44.703125 44 37.203125 44 
C 28.296875 44 23.59375 37.734375 21.796875 35.234375 
C 21.5 40.90625 17.40625 44 13 44 
C 10.09375 44 7.796875 42.609375 5.90625 38.8125 
C 4.09375 35.21875 2.703125 29.140625 2.703125 28.734375 
C 2.703125 28.34375 3.09375 27.84375 3.796875 27.84375 
C 4.59375 27.84375 4.703125 27.9375 5.296875 30.234375 
C 6.796875 36.125 8.703125 42.015625 12.703125 42.015625 
C 15 42.015625 15.796875 40.40625 15.796875 37.421875 
C 15.796875 35.21875 14.796875 31.328125 14.09375 28.234375 
L 11.296875 17.46875 
C 10.90625 15.5625 9.796875 11.078125 9.296875 9.28125 
C 8.59375 6.6875 7.5 2 7.5 1.5 
C 7.5 0.09375 8.59375 -1 10.09375 -1 
C 11.296875 -1 12.703125 -0.40625 13.5 1.09375 
C 13.703125 1.59375 14.59375 5.09375 15.09375 7.078125 
L 17.296875 16.0625 
z
" id="CMMI12-109"/>
      <path d="M 23.5 -25 
L 23.5 -21.515625 
L 14.09375 -21.515625 
L 14.09375 71 
L 23.5 71 
L 23.5 74.484375 
L 10.59375 74.484375 
L 10.59375 -25 
z
" id="CMR17-91"/>
      <path d="M 90.296875 56.96875 
C 92.59375 60.84375 94.796875 64.515625 100.796875 65.125 
C 101.703125 65.21875 102.59375 65.3125 102.59375 66.90625 
C 102.59375 68 101.703125 68 101.40625 68 
C 101.203125 68 100.5 68 93.90625 68 
C 90.90625 68 87.796875 68 84.90625 68 
C 84.296875 68 83.09375 68 83.09375 66.03125 
C 83.09375 65.09375 83.90625 65 84.5 65 
C 86.5 65 89.703125 64.40625 89.703125 61.328125 
C 89.703125 60.03125 89.296875 59.328125 88.296875 57.65625 
L 61 10.125 
L 57.40625 61.921875 
C 57.40625 63.109375 58.5 65 64.09375 65 
C 65.40625 65 66.40625 65 66.40625 66.96875 
C 66.40625 68 65.40625 68 64.90625 68 
C 61.40625 68 57.703125 68 54.09375 68 
L 48.90625 68 
C 47.40625 68 45.59375 68 44.09375 68 
C 43.5 68 42.296875 68 42.296875 66.03125 
C 42.296875 65 43 65 44.703125 65 
C 49.296875 65 49.296875 64.890625 49.703125 58.9375 
L 50 55.359375 
L 24.09375 10.125 
L 20.40625 61.421875 
C 20.40625 62.53125 20.40625 65 27.203125 65 
C 28.296875 65 29.40625 65 29.40625 66.859375 
C 29.40625 68 28.5 68 27.90625 68 
C 24.40625 68 20.703125 68 17.09375 68 
L 11.90625 68 
C 10.40625 68 8.59375 68 7.09375 68 
C 6.5 68 5.296875 68 5.296875 66.03125 
C 5.296875 65 6.09375 65 7.5 65 
C 12.203125 65 12.296875 64.390625 12.5 61.21875 
L 16.90625 0.28125 
C 17 -1.40625 17.09375 -2 18.296875 -2 
C 19.296875 -2 19.5 -1.609375 20.40625 -0.109375 
L 50.203125 51.671875 
L 53.90625 0.28125 
C 54 -1.40625 54.09375 -2 55.296875 -2 
C 56.296875 -2 56.59375 -1.5 57.40625 -0.109375 
z
" id="CMMI12-87"/>
      <path d="M 14.296875 74.484375 
L 1.40625 74.484375 
L 1.40625 71 
L 10.796875 71 
L 10.796875 -21.515625 
L 1.40625 -21.515625 
L 1.40625 -25 
L 14.296875 -25 
z
" id="CMR17-93"/>
     </defs>
     <g transform="translate(30.613887 254.193735)rotate(-90)scale(0.14 -0.14)">
      <use transform="translate(0 14.943915)scale(0.996264)" xlink:href="#CMMI12-64"/>
      <use transform="translate(56.915564 14.943915)scale(0.996264)" xlink:href="#CMSY10-76"/>
      <use transform="translate(125.630372 14.943915)scale(0.996264)" xlink:href="#CMMI12-61"/>
      <use transform="translate(174.405291 14.943915)scale(0.996264)" xlink:href="#CMMI12-64"/>
      <use transform="translate(231.320856 14.943915)scale(0.996264)" xlink:href="#CMMI12-21"/>
      <use transform="translate(288.224927 0)scale(0.697382)" xlink:href="#CMMI12-109"/>
      <use transform="translate(348.45185 14.943915)scale(0.996264)" xlink:href="#CMR17-91"/>
      <use transform="translate(373.322909 14.943915)scale(0.996264)" xlink:href="#CMMI12-87"/>
      <use transform="translate(478.967407 14.943915)scale(0.996264)" xlink:href="#CMR17-93"/>
     </g>
    </g>
   </g>
   <g id="line2d_33">
    <path clip-path="url(#p7c5cb2c79b)" d="M 92.290909 219.676778 
L 92.430895 219.676778 
L 92.990837 211.311195 
L 93.270808 210.092545 
L 93.410794 210.069094 
L 93.690765 210.656528 
L 94.530678 213.678704 
L 94.670664 212.183151 
L 94.950635 207.722538 
L 95.230606 207.29813 
L 95.510577 206.915412 
L 96.07052 206.018115 
L 96.490476 205.697192 
L 97.050419 205.55242 
L 98.59026 205.49796 
L 107.969293 205.597911 
L 118.18824 205.875223 
L 118.608197 213.96968 
L 119.028154 217.543071 
L 119.448111 218.892057 
L 119.588096 219.115552 
L 120.148039 217.75902 
L 120.987952 216.643549 
L 122.387808 215.170399 
L 123.787663 213.995382 
L 125.327505 212.98533 
L 127.007332 212.144011 
L 128.96713 211.419992 
L 131.206899 210.837536 
L 133.866625 210.377964 
L 135.826423 210.209969 
L 142.125774 210.213633 
L 144.505529 210.218752 
L 149.265038 210.130737 
L 153.044649 210.223547 
L 157.944144 210.134672 
L 161.583769 210.224889 
L 166.623249 210.141388 
L 170.122889 210.224328 
L 175.022384 210.135894 
L 178.662009 210.221848 
L 183.421518 210.133177 
L 187.061143 210.222649 
L 191.960638 210.140376 
L 195.460278 210.221517 
L 200.219787 210.135615 
L 203.859412 210.218412 
L 208.478936 210.13361 
L 212.118561 210.218638 
L 216.458114 210.144383 
L 217.438013 210.209203 
L 221.077638 210.051954 
L 242.635417 208.857919 
L 255.514089 208.199537 
L 256.77396 208.377907 
L 259.993628 208.905928 
L 266.292979 210.090832 
L 266.432964 211.421326 
L 266.852921 222.063342 
L 267.272878 228.017501 
L 267.83282 232.746205 
L 268.672734 237.525925 
L 270.212575 245.019377 
L 270.772517 236.177456 
L 271.192474 232.827276 
L 271.612431 230.947981 
L 272.032387 229.909888 
L 272.452344 229.35474 
L 273.012286 229.023886 
L 273.712214 228.933874 
L 274.832099 229.077504 
L 277.071868 229.641423 
L 278.751695 230.142451 
L 280.431522 350.750076 
L 280.711493 359.924675 
L 283.231233 359.924675 
L 283.371219 359.660433 
L 283.65119 357.121826 
L 284.071147 351.371989 
L 284.631089 340.457467 
L 285.471003 318.996271 
L 287.570786 262.418767 
L 288.130728 256.078045 
L 289.250613 246.588722 
L 290.230512 239.670835 
L 290.790454 236.933977 
L 291.210411 235.753136 
L 291.490382 235.43986 
L 291.770353 235.521895 
L 292.050325 235.996973 
L 292.330296 242.821115 
L 293.170209 263.239824 
L 293.870137 275.966277 
L 294.430079 283.212389 
L 294.990022 287.857674 
L 295.409978 289.704779 
L 295.68995 290.201701 
L 295.829935 290.241153 
L 296.109906 289.923573 
L 296.389877 289.108707 
L 296.809834 287.042827 
L 297.369776 282.942955 
L 298.20969 274.657013 
L 299.049603 235.079517 
L 299.46956 226.825692 
L 299.889517 221.994921 
L 300.309473 219.401127 
L 300.589445 218.741473 
L 300.72943 218.716499 
L 300.869416 218.888256 
L 301.149387 219.79431 
L 301.569344 222.399707 
L 302.269272 228.923915 
L 302.409257 232.877948 
L 303.389156 290.64717 
L 303.949098 310.652034 
L 304.369055 318.424903 
L 304.649026 320.190015 
L 304.789012 320.084719 
L 304.928997 319.346476 
L 305.208969 316.068783 
L 305.628925 307.094302 
L 306.188868 289.048853 
L 307.168767 248.114081 
L 307.588723 232.709925 
L 308.00868 224.904637 
L 308.428637 220.448905 
L 308.848594 217.933138 
L 309.128565 217.088172 
L 309.408536 216.854315 
L 309.548521 216.957401 
L 309.828493 217.580803 
L 310.248449 219.448769 
L 310.948377 224.249473 
L 311.088363 225.458307 
L 312.208247 272.860702 
L 312.76819 286.328629 
L 313.188146 291.185935 
L 313.468118 291.968324 
L 313.608103 291.653886 
L 313.888074 289.692441 
L 314.308031 283.724134 
L 314.867973 271.163911 
L 315.847872 241.787181 
L 316.407815 226.962494 
L 316.827771 221.808979 
L 317.247728 218.863088 
L 317.667685 217.244006 
L 317.947656 216.756765 
L 318.227627 216.708826 
L 318.507598 217.07755 
L 318.927555 218.333271 
L 319.487497 220.993431 
L 319.767468 222.548079 
L 319.907454 225.221883 
L 320.887353 255.892121 
L 321.447295 266.591665 
L 321.727266 269.488078 
L 321.867252 269.709816 
L 322.007238 269.616203 
L 322.287209 268.829743 
L 322.707165 266.571303 
L 323.127122 262.992096 
L 323.687065 254.525347 
L 324.526978 237.688567 
L 325.226906 224.475764 
L 325.646863 220.911673 
L 326.066819 218.882991 
L 326.486776 217.768719 
L 326.766747 217.430023 
L 327.046718 217.390272 
L 327.326689 217.634079 
L 327.746646 218.479169 
L 328.306588 220.283396 
L 328.58656 221.342939 
L 328.726545 222.892732 
L 329.706444 243.806625 
L 330.266387 251.185287 
L 330.686343 254.154786 
L 330.826329 254.597819 
L 330.966314 254.550762 
L 331.246286 253.965203 
L 331.666242 252.28199 
L 332.086199 248.841711 
L 332.646141 242.23463 
L 334.185983 221.755793 
L 334.605939 219.721443 
L 335.025896 218.562965 
L 335.445853 217.979051 
L 335.725824 217.864729 
L 336.005795 217.956858 
L 336.425752 218.451534 
L 336.985694 219.6437 
L 337.405651 220.765741 
L 337.685622 224.492528 
L 338.38555 235.215393 
L 338.945492 241.066257 
L 339.365449 243.652793 
L 339.64542 244.505995 
L 339.925391 244.681968 
L 340.205362 244.21571 
L 340.485334 243.156223 
L 340.90529 240.590847 
L 341.605218 234.338015 
L 342.865088 221.693982 
L 343.285045 219.959331 
L 343.705002 218.975184 
L 344.124958 218.447441 
L 344.544915 218.285811 
L 344.964872 218.45837 
L 345.384829 218.92643 
L 346.084756 220.159724 
L 346.224742 220.438589 
L 346.504713 223.371853 
L 347.204641 231.053371 
L 347.764583 235.22026 
L 348.18454 237.043603 
L 348.464511 237.631133 
L 348.744482 237.7313 
L 349.024454 237.369968 
L 349.304425 236.583009 
L 349.724381 234.703629 
L 350.424309 230.161009 
L 351.684179 221.065709 
L 352.104136 219.829412 
L 352.524093 219.129366 
L 352.94405 218.75682 
L 353.364006 218.647795 
L 353.783963 218.779155 
L 354.343905 219.275992 
L 355.043833 220.218838 
L 355.46379 223.669243 
L 356.163718 228.804552 
L 356.72366 231.433843 
L 357.143617 232.460195 
L 357.423588 232.697234 
L 357.703559 232.592593 
L 357.98353 232.168762 
L 358.403487 230.99985 
L 358.963429 228.639328 
L 359.943328 223.258477 
L 360.503271 220.664856 
L 360.923227 219.776867 
L 361.48317 219.163234 
L 362.043112 218.936896 
L 362.463069 218.976646 
L 363.023011 219.274445 
L 363.862925 220.0636 
L 364.422867 223.402696 
L 365.122795 226.812016 
L 365.682737 228.444015 
L 366.102694 228.987627 
L 366.382665 229.034248 
L 366.662636 228.843104 
L 367.082593 228.152483 
L 367.642535 226.607518 
L 368.482448 223.43315 
L 369.322362 220.397089 
L 369.742319 219.755014 
L 370.302261 219.311693 
L 370.862203 219.14731 
L 371.422146 219.209903 
L 372.122073 219.552566 
L 372.682016 219.951363 
L 373.101972 221.724686 
L 373.8019 224.375313 
L 374.361843 225.737382 
L 374.781799 226.27318 
L 375.061771 226.400406 
L 375.341742 226.351766 
L 375.761698 225.975047 
L 376.321641 224.991212 
L 377.021569 223.214812 
L 378.141453 220.211165 
L 378.701395 219.639272 
L 379.261338 219.375211 
L 379.961266 219.30247 
L 380.661194 219.467037 
L 381.501107 219.869783 
L 381.781078 220.649814 
L 382.481006 222.694758 
L 383.040948 223.810076 
L 383.460905 224.302821 
L 383.880862 224.497553 
L 384.300818 224.409125 
L 384.720775 224.066748 
L 385.280717 223.286779 
L 386.120631 221.668573 
L 386.960544 220.081377 
L 387.520487 219.661253 
L 388.220415 219.441101 
L 389.060328 219.438062 
L 390.040227 219.705881 
L 390.320198 219.810991 
L 390.600169 220.337626 
L 391.440083 222.04516 
L 392.000025 222.761496 
L 392.559967 223.100049 
L 392.979924 223.110768 
L 393.399881 222.9312 
L 393.959823 222.442148 
L 394.799737 221.341102 
L 395.779636 219.985484 
L 396.339578 219.675566 
L 397.179491 219.499034 
L 398.15939 219.542591 
L 399.139289 219.769025 
L 399.419261 220.117192 
L 400.259174 221.346421 
L 400.959102 221.955231 
L 401.519044 222.139295 
L 402.078986 222.066053 
L 402.638929 221.771581 
L 403.478842 221.03449 
L 404.738712 219.837222 
L 405.43864 219.620683 
L 406.418539 219.543647 
L 407.678409 219.686365 
L 408.098366 219.802719 
L 409.218251 220.960946 
L 409.918179 221.344935 
L 410.478121 221.436472 
L 411.178049 221.302153 
L 412.017962 220.857413 
L 413.837775 219.718512 
L 414.957659 219.585459 
L 416.357515 219.663515 
L 417.057443 219.860667 
L 418.037342 220.577604 
L 418.73727 220.858292 
L 419.437198 220.926683 
L 420.277111 220.757755 
L 421.396996 220.246114 
L 422.51688 219.739136 
L 423.636765 219.617217 
L 425.316592 219.677942 
L 425.876534 219.791889 
L 426.996419 220.360064 
L 427.836332 220.552175 
L 428.676246 220.531773 
L 429.79613 220.246231 
L 431.615943 219.688885 
L 433.155784 219.632566 
L 434.695625 219.746994 
L 435.955496 220.189991 
L 436.935395 220.310835 
L 438.055279 220.210307 
L 441.554919 219.644325 
L 443.514717 219.717955 
L 445.054558 220.077749 
L 446.314428 220.11381 
L 447.854269 219.899966 
L 449.534096 219.673089 
L 452.053837 219.683927 
L 452.89375 219.816968 
L 454.433592 219.992997 
L 455.973433 219.924977 
L 459.333087 219.660401 
L 461.572856 219.751843 
L 463.392668 219.902932 
L 465.352466 219.808637 
L 468.012192 219.665732 
L 470.811904 219.766945 
L 472.911687 219.832247 
L 479.770981 219.747066 
L 482.150735 219.778329 
L 488.170115 219.705419 
L 491.109812 219.746587 
L 497.409163 219.709957 
L 498.109091 219.726808 
L 498.109091 219.726808 
" style="fill:none;stroke:#bf00bf;stroke-linecap:square;stroke-width:1.5;"/>
   </g>
   <g id="line2d_34">
    <path clip-path="url(#p7c5cb2c79b)" d="M 92.290909 219.676778 
L 92.430895 219.676778 
L 92.710866 185.879545 
L 92.990837 183.368894 
L 93.270808 185.979947 
L 94.390693 199.502919 
L 94.670664 202.166201 
L 94.950635 213.097895 
L 95.090621 213.050103 
L 95.650563 197.049719 
L 95.930534 194.950615 
L 96.210505 194.592332 
L 97.610361 194.789366 
L 99.150202 195.016514 
L 105.309568 196.209989 
L 111.468933 197.618417 
L 117.348327 199.19083 
L 118.18824 199.435512 
L 118.328226 202.493604 
L 118.608197 199.666429 
L 118.888168 208.546607 
L 119.448111 228.46724 
L 119.588096 228.556684 
L 120.148039 229.912887 
L 120.987952 231.02782 
L 122.387808 232.499888 
L 123.787663 233.673736 
L 125.327505 234.682572 
L 127.007332 235.522723 
L 128.96713 236.24563 
L 131.206899 236.827118 
L 133.866625 237.285877 
L 136.946308 237.595689 
L 138.76612 237.599912 
L 143.52563 237.405921 
L 147.865182 237.569202 
L 151.644793 237.38154 
L 156.824259 237.541723 
L 159.903942 237.369439 
L 162.283697 237.548381 
L 164.243495 237.612727 
L 166.763235 237.419876 
L 168.723033 237.379633 
L 174.042485 237.530437 
L 176.982182 237.37217 
L 179.501922 237.561951 
L 181.46172 237.602775 
L 186.781172 237.458695 
L 189.580884 237.611515 
L 191.960638 237.43811 
L 193.920437 237.377437 
L 199.799831 237.484919 
L 202.179585 237.376431 
L 204.699326 237.5612 
L 206.659124 237.595398 
L 211.698605 237.449901 
L 214.638302 237.6043 
L 218.277927 237.589177 
L 230.036715 238.790316 
L 238.435849 239.392633 
L 246.694998 239.765456 
L 254.954147 239.914904 
L 255.654075 240.012891 
L 256.633974 240.30197 
L 258.873743 240.915962 
L 261.253498 241.31994 
L 263.633253 241.507106 
L 266.152993 241.476378 
L 266.292979 241.467823 
L 266.432964 241.892746 
L 266.712935 246.145134 
L 267.272878 259.961574 
L 268.532748 298.228122 
L 270.492546 358.706085 
L 270.912503 363.637892 
L 271.332459 366.360664 
L 271.752416 367.881727 
L 272.172373 368.705774 
L 272.59233 369.126942 
L 273.152272 369.340824 
L 273.8522 369.322684 
L 274.972084 369.010598 
L 276.651911 368.277142 
L 278.751695 367.104103 
L 279.171652 328.106043 
L 279.87158 270.209934 
L 280.571507 225.626761 
L 280.711493 218.316413 
L 280.851479 217.575139 
L 281.13145 221.826303 
L 281.411421 223.110902 
L 281.551406 222.812034 
L 281.831378 221.331493 
L 282.671291 214.773862 
L 283.511204 208.823378 
L 283.791176 210.804245 
L 284.211132 215.904598 
L 284.771075 226.106421 
L 285.610988 246.959045 
L 287.570786 299.488738 
L 288.4107 308.931211 
L 289.67057 323.570695 
L 290.790454 336.040612 
L 291.350397 340.045124 
L 291.770353 341.517749 
L 292.050325 341.683486 
L 292.330296 335.139133 
L 293.170209 312.745254 
L 294.010123 296.081556 
L 294.71005 286.627351 
L 295.269993 281.993913 
L 295.68995 280.158677 
L 295.969921 279.671378 
L 296.109906 279.637228 
L 296.389877 279.966255 
L 296.669849 280.793441 
L 297.089805 282.878575 
L 297.649748 287.003177 
L 298.489661 295.255476 
L 298.629647 296.787173 
L 298.769632 296.638855 
L 299.049603 293.450299 
L 300.029502 278.555215 
L 300.309473 276.964171 
L 300.449459 276.821316 
L 300.589445 277.117732 
L 300.869416 278.976504 
L 301.289373 284.482332 
L 302.269272 302.627811 
L 302.409257 302.363137 
L 303.669127 256.153765 
L 304.22907 242.749849 
L 304.789012 234.270988 
L 305.208969 231.068229 
L 305.48894 230.321283 
L 305.628925 230.330225 
L 305.908896 231.043996 
L 306.188868 232.582377 
L 306.608824 236.140178 
L 307.448738 245.162369 
L 307.588723 244.973644 
L 307.868695 242.852647 
L 308.568622 236.465066 
L 308.848594 235.246172 
L 308.988579 235.084706 
L 309.128565 235.240241 
L 309.408536 236.504702 
L 309.828493 240.591951 
L 310.52842 251.227724 
L 311.088363 259.806283 
L 312.628204 223.187225 
L 313.188146 215.797816 
L 313.608103 212.581791 
L 313.888074 211.509231 
L 314.168045 211.239298 
L 314.308031 211.38536 
L 314.588002 212.191672 
L 315.007959 214.521015 
L 315.567901 219.200085 
L 316.267829 225.319644 
L 316.407815 225.120047 
L 316.827771 222.811715 
L 317.387714 220.066208 
L 317.667685 219.69944 
L 317.80767 219.84873 
L 318.087642 220.838576 
L 318.507598 223.953842 
L 319.067541 230.360833 
L 319.767468 239.217421 
L 319.907454 238.858779 
L 321.167324 217.195835 
L 321.727266 211.230819 
L 321.867252 210.618343 
L 322.147223 211.067939 
L 322.287209 211.063924 
L 322.56718 210.678146 
L 323.127122 209.298526 
L 323.407093 209.940625 
L 323.967036 212.463857 
L 324.666964 217.094756 
L 325.08692 219.600653 
L 325.226906 219.556505 
L 325.506877 218.722906 
L 326.066819 216.781949 
L 326.34679 216.330066 
L 326.486776 216.312123 
L 326.626762 216.446094 
L 326.906733 217.180834 
L 327.326689 219.388649 
L 327.886632 223.873059 
L 328.58656 230.091975 
L 328.726545 230.162322 
L 329.986415 215.721679 
L 330.546358 211.749698 
L 330.966314 209.993196 
L 331.246286 210.06921 
L 331.526257 209.835777 
L 331.806228 209.444227 
L 332.086199 209.862905 
L 332.506156 211.082229 
L 333.066098 213.497398 
L 333.906011 217.546304 
L 334.045997 217.517824 
L 334.325968 216.961444 
L 334.885911 215.72784 
L 335.165882 215.49248 
L 335.445853 215.663266 
L 335.725824 216.272407 
L 336.145781 217.963063 
L 336.845709 222.213712 
L 337.405651 225.814707 
L 337.545636 225.624693 
L 338.805507 215.593589 
L 339.365449 212.882324 
L 339.785406 211.646682 
L 340.205362 211.090004 
L 340.485334 211.075557 
L 340.765305 211.322968 
L 341.185261 212.126893 
L 341.745204 213.839576 
L 342.725103 217.338271 
L 342.865088 217.314795 
L 343.285045 216.695679 
L 343.705002 216.122936 
L 343.984973 216.003365 
L 344.264944 216.178975 
L 344.544915 216.67033 
L 344.964872 217.962029 
L 345.6648 221.118532 
L 346.224742 223.752224 
L 346.364728 223.401844 
L 347.484612 216.88319 
L 348.044555 214.77514 
L 348.464511 213.763772 
L 348.884468 213.245607 
L 349.164439 213.163037 
L 349.44441 213.276054 
L 349.864367 213.773726 
L 350.424309 214.935145 
L 351.544194 217.847641 
L 351.824165 217.719546 
L 352.664079 216.953537 
L 352.94405 216.988336 
L 353.224021 217.246404 
L 353.643978 218.04846 
L 354.20392 219.731391 
L 355.043833 222.62184 
L 355.183819 222.288124 
L 356.303703 217.629483 
L 356.863646 216.132978 
L 357.423588 215.261466 
L 357.843545 215.01748 
L 358.263502 215.099838 
L 358.683458 215.469123 
L 359.243401 216.317554 
L 360.363285 218.431527 
L 360.643256 218.343525 
L 361.48317 217.804857 
L 361.763141 217.833542 
L 362.183098 218.177736 
L 362.603054 218.867409 
L 363.442968 220.884076 
L 363.862925 221.89659 
L 364.142896 221.179943 
L 364.842824 218.993831 
L 365.542751 217.457004 
L 366.102694 216.719705 
L 366.52265 216.463086 
L 366.942607 216.44755 
L 367.362564 216.648329 
L 367.922506 217.192152 
L 368.76242 218.393694 
L 369.182376 218.896861 
L 369.462348 218.838298 
L 370.302261 218.450859 
L 370.722218 218.521175 
L 371.142174 218.850706 
L 371.702117 219.640478 
L 372.682016 221.372203 
L 372.961987 220.875146 
L 373.661915 219.304602 
L 374.361843 218.19799 
L 374.921785 217.664663 
L 375.481727 217.453506 
L 376.04167 217.539895 
L 376.601612 217.873857 
L 377.441525 218.688413 
L 378.001468 219.219301 
L 378.421424 219.126728 
L 379.121352 218.899314 
L 379.541309 218.94356 
L 379.961266 219.173252 
L 380.521208 219.732016 
L 381.501107 220.969303 
L 381.641093 220.877054 
L 382.760977 219.153627 
L 383.460905 218.489393 
L 384.020847 218.216916 
L 384.58079 218.169149 
L 385.280717 218.382895 
L 386.120631 218.924298 
L 386.820559 219.421174 
L 387.240516 219.363254 
L 388.080429 219.190508 
L 388.640371 219.312446 
L 389.200314 219.65843 
L 390.460184 220.616818 
L 391.720054 219.262215 
L 392.419982 218.830274 
L 393.11991 218.655573 
L 393.819838 218.719201 
L 394.659751 219.037073 
L 395.779636 219.549976 
L 397.459463 219.460287 
L 398.15939 219.78088 
L 399.279275 220.40685 
L 400.679131 219.35663 
L 401.519044 219.044829 
L 402.358958 218.993005 
L 403.338857 219.201957 
L 404.738712 219.612957 
L 406.138568 219.526194 
L 406.978482 219.772615 
L 408.098366 220.238148 
L 409.778193 219.387242 
L 410.758092 219.212265 
L 411.737991 219.274148 
L 414.117746 219.597854 
L 415.097645 219.603885 
L 416.077544 219.844098 
L 416.917457 220.104197 
L 418.73727 219.463411 
L 419.857155 219.35872 
L 421.117025 219.482374 
L 422.656866 219.658195 
L 424.056722 219.64955 
L 425.456578 219.932778 
L 425.876534 219.960153 
L 427.556361 219.539301 
L 428.816231 219.46159 
L 430.356073 219.598351 
L 431.615943 219.665618 
L 433.155784 219.689631 
L 434.975597 219.826356 
L 436.515438 219.574335 
L 438.055279 219.540393 
L 444.214645 219.727646 
L 446.174443 219.576246 
L 448.414212 219.669896 
L 449.814068 219.666632 
L 451.773866 219.758703 
L 452.753765 219.748625 
L 454.853548 219.60991 
L 457.373289 219.679519 
L 461.43287 219.744414 
L 463.952611 219.628819 
L 469.692019 219.729072 
L 471.091875 219.68349 
L 474.171558 219.657598 
L 480.050952 219.678946 
L 483.830562 219.677333 
L 489.29 219.671517 
L 495.449365 219.684472 
L 498.109091 219.673671 
L 498.109091 219.673671 
" style="fill:none;stroke:#00bfbf;stroke-linecap:square;stroke-width:1.5;"/>
   </g>
   <g id="line2d_35">
    <path clip-path="url(#p7c5cb2c79b)" d="M 92.290909 219.676778 
L 92.430895 219.676778 
L 92.57088 66.96 
L 92.850851 102.160711 
L 93.270808 133.836286 
L 93.83075 156.275308 
L 94.530678 175.104754 
L 94.670664 176.218878 
L 94.950635 174.012333 
L 95.090621 173.537963 
L 95.230606 173.54528 
L 95.790548 174.460071 
L 96.07052 174.485904 
L 99.290188 173.656681 
L 118.18824 169.444632 
L 119.168139 155.579174 
L 119.448111 154.422742 
L 119.588096 154.37002 
L 119.868067 155.141961 
L 120.707981 157.939173 
L 121.68788 160.385151 
L 122.807764 162.599887 
L 124.067635 164.618499 
L 125.327505 166.249284 
L 126.727361 167.69869 
L 128.127216 168.844449 
L 129.667058 169.829809 
L 131.346885 170.650902 
L 133.306683 171.357908 
L 135.406466 171.887009 
L 136.946308 171.970679 
L 140.725918 171.926719 
L 144.645514 171.948039 
L 148.56511 171.947223 
L 153.044649 171.943491 
L 157.384201 171.942114 
L 161.723754 171.945735 
L 166.063307 171.939313 
L 170.262874 171.945801 
L 174.602427 171.938692 
L 178.94198 171.950206 
L 183.141547 171.936961 
L 187.4811 171.952384 
L 191.680667 171.934242 
L 195.880235 171.952563 
L 200.219787 171.930736 
L 204.55934 171.959078 
L 208.898893 171.924461 
L 213.378431 171.966537 
L 223.597378 172.178268 
L 233.256383 172.715876 
L 242.915388 173.475328 
L 252.854364 174.480523 
L 255.094133 174.737287 
L 255.514089 175.36281 
L 256.214017 176.981249 
L 257.473888 180.671195 
L 267.412863 211.757362 
L 268.812719 217.453027 
L 270.35256 224.707081 
L 272.452344 234.53807 
L 276.651911 253.153875 
L 279.031666 263.090166 
L 279.87158 263.80229 
L 280.291536 263.746125 
L 280.571507 263.531273 
L 281.13145 250.399051 
L 281.411421 248.780967 
L 281.551406 248.872137 
L 281.831378 249.851532 
L 283.231233 256.282296 
L 283.371219 256.507372 
L 285.750974 247.399063 
L 287.010844 243.415696 
L 288.690671 239.01515 
L 289.250613 238.133678 
L 289.67057 237.789261 
L 290.090527 237.725013 
L 290.510483 237.920675 
L 291.070426 238.506368 
L 292.610267 240.420682 
L 293.310195 240.507746 
L 293.870137 240.322885 
L 294.570065 239.829818 
L 295.409978 238.931328 
L 296.529863 237.376353 
L 298.909618 233.578708 
L 300.029502 231.657723 
L 300.449459 231.403458 
L 300.72943 231.465531 
L 301.009401 231.724343 
L 301.429358 232.461325 
L 302.129286 234.359825 
L 302.689228 235.840629 
L 303.249171 236.329669 
L 303.669127 236.426715 
L 304.089084 236.281169 
L 304.649026 235.780771 
L 305.348954 234.798613 
L 308.708608 229.436293 
L 309.128565 229.141734 
L 309.548521 229.154921 
L 309.968478 229.491204 
L 310.52842 230.364553 
L 311.508319 232.082754 
L 312.208247 232.3552 
L 312.76819 232.217671 
L 313.328132 231.81796 
L 314.168045 230.875294 
L 317.387714 226.85051 
L 317.947656 226.528294 
L 318.367613 226.549426 
L 318.787569 226.805086 
L 319.347512 227.444075 
L 320.187425 228.533244 
L 320.887353 228.745131 
L 321.447295 228.660181 
L 321.587281 228.606526 
L 321.727266 228.25458 
L 322.007238 227.074845 
L 322.287209 226.80286 
L 322.56718 226.995733 
L 322.987137 227.646916 
L 323.82705 226.77944 
L 325.08692 225.624142 
L 326.626762 224.495808 
L 327.186704 224.458706 
L 327.746646 224.703042 
L 328.446574 225.298118 
L 329.006516 225.767654 
L 329.84643 225.905353 
L 330.546358 225.762136 
L 330.826329 225.593178 
L 331.1063 225.077821 
L 331.386271 225.037045 
L 331.666242 225.201259 
L 335.445853 222.90857 
L 336.005795 222.887962 
L 336.565737 223.067061 
L 337.545636 223.687866 
L 337.965593 223.848372 
L 338.805507 223.906831 
L 339.64542 223.731134 
L 340.90529 223.193977 
L 343.705002 221.925994 
L 344.544915 221.761853 
L 345.244843 221.868274 
L 346.224742 222.301914 
L 346.784684 222.483591 
L 347.764583 222.517433 
L 348.884468 222.294293 
L 353.503992 221.017927 
L 354.343905 221.172239 
L 356.023732 221.583861 
L 357.143617 221.519732 
L 358.823444 221.159867 
L 361.623155 220.559078 
L 362.603054 220.549769 
L 363.722939 220.785386 
L 364.702838 220.940434 
L 365.962708 220.906021 
L 368.062492 220.581038 
L 370.862203 220.212218 
L 371.982088 220.299006 
L 373.941886 220.5266 
L 375.761698 220.406051 
L 380.101251 220.018774 
L 384.720775 220.151529 
L 389.060328 219.896452 
L 393.399881 220.001911 
L 398.299376 219.832631 
L 401.65903 219.91449 
L 408.098366 219.824689 
L 410.478121 219.837692 
L 417.757371 219.791607 
L 422.656866 219.723591 
L 426.856433 219.756192 
L 447.994255 219.697479 
L 466.892308 219.682767 
L 498.109091 219.681003 
L 498.109091 219.681003 
" style="fill:none;stroke:#ff0000;stroke-linecap:square;stroke-width:1.5;"/>
   </g>
   <g id="line2d_36">
    <path clip-path="url(#p7c5cb2c79b)" d="M 92.290909 219.676778 
L 92.430895 219.676778 
L 92.710866 181.783099 
L 92.990837 172.864559 
L 93.130823 172.191824 
L 93.270808 172.997636 
L 93.690765 178.978037 
L 94.810649 195.891923 
L 95.090621 199.500165 
L 95.230606 200.094187 
L 95.370592 199.941545 
L 95.790548 198.735203 
L 96.07052 198.434771 
L 96.490476 198.38529 
L 97.610361 198.344542 
L 118.18824 196.148416 
L 118.888168 208.650402 
L 119.308125 213.646796 
L 119.588096 214.804492 
L 119.728082 214.857261 
L 120.008053 214.084517 
L 120.847966 211.283388 
L 121.827865 208.832702 
L 122.94775 206.612666 
L 124.20762 204.58837 
L 125.46749 202.952399 
L 126.867346 201.497932 
L 128.267202 200.347875 
L 129.807043 199.358612 
L 131.48687 198.534115 
L 133.446668 197.82407 
L 135.406466 197.32825 
L 136.946308 197.265687 
L 145.065471 197.268043 
L 169.982903 197.2627 
L 181.181749 197.245105 
L 186.641187 197.258464 
L 196.720148 197.262035 
L 211.278648 197.251426 
L 237.035994 197.721793 
L 251.314522 198.320157 
L 255.234118 198.522547 
L 255.794061 200.356835 
L 256.633974 202.249655 
L 257.893844 204.384163 
L 260.55357 208.302215 
L 265.453065 215.112444 
L 266.712935 216.893927 
L 271.192474 226.770985 
L 278.891681 241.614763 
L 279.031666 241.438659 
L 279.311637 240.291664 
L 279.591608 240.07532 
L 279.87158 239.833116 
L 280.711493 238.587199 
L 280.991464 235.770747 
L 281.271435 234.376961 
L 281.691392 232.456409 
L 281.971363 231.916332 
L 282.251334 231.712432 
L 282.531305 231.733902 
L 282.951262 232.022329 
L 283.511204 232.544707 
L 283.931161 232.216006 
L 284.771075 231.182613 
L 286.450902 229.104222 
L 288.4107 227.171151 
L 288.830656 227.074484 
L 289.250613 227.178392 
L 289.810555 227.584786 
L 290.650469 228.548147 
L 291.630368 229.650399 
L 292.19031 230.002652 
L 292.330296 229.953857 
L 292.890238 229.372225 
L 294.010123 228.652321 
L 296.109906 227.045523 
L 299.889517 224.174684 
L 300.169488 224.32493 
L 300.589445 224.865137 
L 301.149387 226.036076 
L 302.269272 228.594921 
L 302.549243 228.894325 
L 303.669127 227.380557 
L 306.188868 224.665742 
L 307.028781 224.12834 
L 307.728709 223.789033 
L 308.288651 223.339111 
L 308.708608 223.309547 
L 309.128565 223.563185 
L 309.688507 224.279019 
L 311.228348 226.609827 
L 311.368334 226.515903 
L 311.788291 225.903873 
L 312.488219 225.355852 
L 315.007959 223.303609 
L 315.987858 222.858913 
L 316.5478 222.613763 
L 317.107742 222.30521 
L 317.527699 222.304817 
L 317.947656 222.511444 
L 318.507598 223.050375 
L 319.907454 224.601375 
L 320.04744 224.617333 
L 320.887353 223.947216 
L 321.867252 223.216743 
L 322.147223 222.826491 
L 322.707165 222.426993 
L 323.82705 222.162534 
L 324.946935 221.861752 
L 325.366891 221.728559 
L 325.926834 221.51342 
L 326.486776 221.536559 
L 327.046718 221.798769 
L 328.166603 222.691354 
L 328.726545 223.045228 
L 329.006516 222.98315 
L 329.426473 222.710254 
L 330.686343 222.174222 
L 332.786127 221.343664 
L 335.025896 220.885014 
L 335.725824 221.047481 
L 336.705723 221.583695 
L 337.545636 221.992221 
L 337.825608 221.928935 
L 338.245564 221.744783 
L 340.065377 221.186282 
L 341.885189 220.728413 
L 344.124958 220.478766 
L 344.964872 220.728202 
L 346.504713 221.25776 
L 347.344627 221.023548 
L 350.984252 220.325046 
L 353.224021 220.227586 
L 354.623877 220.627715 
L 355.323804 220.748797 
L 356.303703 220.56036 
L 360.083314 220.072996 
L 362.323083 220.070472 
L 364.282881 220.371388 
L 365.402766 220.238595 
L 369.602333 219.882027 
L 370.862203 219.894198 
L 373.661915 220.095883 
L 379.261338 219.78969 
L 381.08115 219.962796 
L 382.201035 219.972068 
L 388.920342 219.786468 
L 391.300097 219.868699 
L 397.739434 219.746385 
L 400.539145 219.7966 
L 406.838496 219.732178 
L 409.778193 219.750544 
L 416.21753 219.730295 
L 419.297212 219.717524 
L 428.53626 219.70061 
L 441.974875 219.685071 
L 453.173721 219.690659 
L 496.429264 219.679399 
L 498.109091 219.678711 
L 498.109091 219.678711 
" style="fill:none;stroke:#008000;stroke-linecap:square;stroke-width:1.5;"/>
   </g>
   <g id="patch_3">
    <path d="M 72 384.48 
L 72 51.84 
" style="fill:none;stroke:#000000;stroke-linecap:square;stroke-linejoin:miter;stroke-width:0.8;"/>
   </g>
   <g id="patch_4">
    <path d="M 518.4 384.48 
L 518.4 51.84 
" style="fill:none;stroke:#000000;stroke-linecap:square;stroke-linejoin:miter;stroke-width:0.8;"/>
   </g>
   <g id="patch_5">
    <path d="M 72 384.48 
L 518.4 384.48 
" style="fill:none;stroke:#000000;stroke-linecap:square;stroke-linejoin:miter;stroke-width:0.8;"/>
   </g>
   <g id="patch_6">
    <path d="M 72 51.84 
L 518.4 51.84 
" style="fill:none;stroke:#000000;stroke-linecap:square;stroke-linejoin:miter;stroke-width:0.8;"/>
   </g>
   <g id="legend_1">
    <g id="patch_7">
     <path d="M 446.079046 119.69056 
L 511.4 119.69056 
Q 513.4 119.69056 513.4 117.69056 
L 513.4 58.84 
Q 513.4 56.84 511.4 56.84 
L 446.079046 56.84 
Q 444.079046 56.84 444.079046 58.84 
L 444.079046 117.69056 
Q 444.079046 119.69056 446.079046 119.69056 
z
" style="fill:#ffffff;opacity:0.8;stroke:#cccccc;stroke-linejoin:miter;"/>
    </g>
    <g id="line2d_37">
     <path d="M 448.079046 65.365462 
L 468.079046 65.365462 
" style="fill:none;stroke:#bf00bf;stroke-linecap:square;stroke-width:1.5;"/>
    </g>
    <g id="line2d_38"/>
    <g id="text_19">
     <!-- $\partial \mathcal{L}/ \partial \lambda_{1}$ -->
     <g transform="translate(476.079046 68.865462)scale(0.1 -0.1)">
      <use transform="translate(0 14.943915)scale(0.996264)" xlink:href="#CMMI12-64"/>
      <use transform="translate(56.915564 14.943915)scale(0.996264)" xlink:href="#CMSY10-76"/>
      <use transform="translate(125.630372 14.943915)scale(0.996264)" xlink:href="#CMMI12-61"/>
      <use transform="translate(174.405291 14.943915)scale(0.996264)" xlink:href="#CMMI12-64"/>
      <use transform="translate(231.320856 14.943915)scale(0.996264)" xlink:href="#CMMI12-21"/>
      <use transform="translate(288.224927 0)scale(0.697382)" xlink:href="#CMR17-49"/>
     </g>
    </g>
    <g id="line2d_39">
     <path d="M 448.079046 80.328102 
L 468.079046 80.328102 
" style="fill:none;stroke:#00bfbf;stroke-linecap:square;stroke-width:1.5;"/>
    </g>
    <g id="line2d_40"/>
    <g id="text_20">
     <!-- $\partial \mathcal{L}/ \partial \lambda_{2}$ -->
     <g transform="translate(476.079046 83.828102)scale(0.1 -0.1)">
      <use transform="translate(0 14.943915)scale(0.996264)" xlink:href="#CMMI12-64"/>
      <use transform="translate(56.915564 14.943915)scale(0.996264)" xlink:href="#CMSY10-76"/>
      <use transform="translate(125.630372 14.943915)scale(0.996264)" xlink:href="#CMMI12-61"/>
      <use transform="translate(174.405291 14.943915)scale(0.996264)" xlink:href="#CMMI12-64"/>
      <use transform="translate(231.320856 14.943915)scale(0.996264)" xlink:href="#CMMI12-21"/>
      <use transform="translate(288.224927 0)scale(0.697382)" xlink:href="#CMR17-50"/>
     </g>
    </g>
    <g id="line2d_41">
     <path d="M 448.079046 95.290742 
L 468.079046 95.290742 
" style="fill:none;stroke:#ff0000;stroke-linecap:square;stroke-width:1.5;"/>
    </g>
    <g id="line2d_42"/>
    <g id="text_21">
     <!-- $\partial \mathcal{L}/ \partial \lambda_{3}$ -->
     <g transform="translate(476.079046 98.790742)scale(0.1 -0.1)">
      <use transform="translate(0 14.943915)scale(0.996264)" xlink:href="#CMMI12-64"/>
      <use transform="translate(56.915564 14.943915)scale(0.996264)" xlink:href="#CMSY10-76"/>
      <use transform="translate(125.630372 14.943915)scale(0.996264)" xlink:href="#CMMI12-61"/>
      <use transform="translate(174.405291 14.943915)scale(0.996264)" xlink:href="#CMMI12-64"/>
      <use transform="translate(231.320856 14.943915)scale(0.996264)" xlink:href="#CMMI12-21"/>
      <use transform="translate(288.224927 0)scale(0.697382)" xlink:href="#CMR17-51"/>
     </g>
    </g>
    <g id="line2d_43">
     <path d="M 448.079046 110.253382 
L 468.079046 110.253382 
" style="fill:none;stroke:#008000;stroke-linecap:square;stroke-width:1.5;"/>
    </g>
    <g id="line2d_44"/>
    <g id="text_22">
     <!-- $\partial \mathcal{L}/ \partial \lambda_{4}$ -->
     <g transform="translate(476.079046 113.753382)scale(0.1 -0.1)">
      <use transform="translate(0 14.943915)scale(0.996264)" xlink:href="#CMMI12-64"/>
      <use transform="translate(56.915564 14.943915)scale(0.996264)" xlink:href="#CMSY10-76"/>
      <use transform="translate(125.630372 14.943915)scale(0.996264)" xlink:href="#CMMI12-61"/>
      <use transform="translate(174.405291 14.943915)scale(0.996264)" xlink:href="#CMMI12-64"/>
      <use transform="translate(231.320856 14.943915)scale(0.996264)" xlink:href="#CMMI12-21"/>
      <use transform="translate(288.224927 0)scale(0.697382)" xlink:href="#CMR17-52"/>
     </g>
    </g>
   </g>
  </g>
 </g>
 <defs>
  <clipPath id="p7c5cb2c79b">
   <rect height="332.64" width="446.4" x="72" y="51.84"/>
  </clipPath>
 </defs>
</svg>
