<?xml version="1.0" encoding="utf-8" standalone="no"?>
<!DOCTYPE svg PUBLIC "-//W3C//DTD SVG 1.1//EN"
  "http://www.w3.org/Graphics/SVG/1.1/DTD/svg11.dtd">
<!-- Created with matplotlib (http://matplotlib.org/) -->
<svg height="432pt" version="1.1" viewBox="0 0 576 432" width="576pt" xmlns="http://www.w3.org/2000/svg" xmlns:xlink="http://www.w3.org/1999/xlink">
 <defs>
  <style type="text/css">
*{stroke-linecap:butt;stroke-linejoin:round;}
  </style>
 </defs>
 <g id="figure_1">
  <g id="patch_1">
   <path d="M 0 432 
L 576 432 
L 576 0 
L 0 0 
z
" style="fill:#ffffff;"/>
  </g>
  <g id="axes_1">
   <g id="patch_2">
    <path d="M 72 384.48 
L 518.4 384.48 
L 518.4 51.84 
L 72 51.84 
z
" style="fill:#ffffff;"/>
   </g>
   <g id="matplotlib.axis_1">
    <g id="xtick_1">
     <g id="line2d_1">
      <path clip-path="url(#p456643e50c)" d="M 92.290909 384.48 
L 92.290909 51.84 
" style="fill:none;stroke:#b0b0b0;stroke-dasharray:5.12,1.28,0.8,1.28;stroke-dashoffset:0;stroke-width:0.8;"/>
     </g>
     <g id="line2d_2">
      <defs>
       <path d="M 0 0 
L 0 3.5 
" id="m196642d76b" style="stroke:#000000;stroke-width:0.8;"/>
      </defs>
      <g>
       <use style="stroke:#000000;stroke-width:0.8;" x="92.290909" xlink:href="#m196642d76b" y="384.48"/>
      </g>
     </g>
     <g id="text_1">
      <!-- $0$ -->
      <defs>
       <path d="M 42 31.640625 
C 42 37.75 41.90625 48.125 37.703125 56.109375 
C 34 63.109375 28.09375 65.59375 22.90625 65.59375 
C 18.09375 65.59375 12 63.40625 8.203125 56.203125 
C 4.203125 48.71875 3.796875 39.4375 3.796875 31.640625 
C 3.796875 25.953125 3.90625 17.28125 7 9.671875 
C 11.296875 -0.609375 19 -2 22.90625 -2 
C 27.5 -2 34.5 -0.109375 38.59375 9.375 
C 41.59375 16.28125 42 24.359375 42 31.640625 
z
M 22.90625 -0.40625 
C 16.5 -0.40625 12.703125 5.078125 11.296875 12.6875 
C 10.203125 18.5625 10.203125 27.15625 10.203125 32.75 
C 10.203125 40.4375 10.203125 46.828125 11.5 52.921875 
C 13.40625 61.390625 19 64 22.90625 64 
C 27 64 32.296875 61.296875 34.203125 53.125 
C 35.5 47.4375 35.59375 40.734375 35.59375 32.75 
C 35.59375 26.25 35.59375 18.265625 34.40625 12.375 
C 32.296875 1.484375 26.40625 -0.40625 22.90625 -0.40625 
z
" id="CMR17-48"/>
      </defs>
      <g transform="translate(89.800241 398.398498)scale(0.1 -0.1)">
       <use transform="scale(0.996264)" xlink:href="#CMR17-48"/>
      </g>
     </g>
    </g>
    <g id="xtick_2">
     <g id="line2d_3">
      <path clip-path="url(#p456643e50c)" d="M 162.283697 384.48 
L 162.283697 51.84 
" style="fill:none;stroke:#b0b0b0;stroke-dasharray:5.12,1.28,0.8,1.28;stroke-dashoffset:0;stroke-width:0.8;"/>
     </g>
     <g id="line2d_4">
      <g>
       <use style="stroke:#000000;stroke-width:0.8;" x="162.283697" xlink:href="#m196642d76b" y="384.48"/>
      </g>
     </g>
     <g id="text_2">
      <!-- $500$ -->
      <defs>
       <path d="M 11.40625 57.6875 
C 12.40625 57.28125 16.5 56 20.703125 56 
C 30 56 35.09375 61.109375 38 64.0625 
C 38 64.953125 38 65.5 37.40625 65.5 
C 37.296875 65.5 37.09375 65.5 36.296875 65.046875 
C 32.796875 63.40625 28.703125 62.078125 23.703125 62.078125 
C 20.703125 62.078125 16.203125 62.484375 11.296875 64.671875 
C 10.203125 65.171875 10 65.171875 9.90625 65.171875 
C 9.40625 65.171875 9.296875 65.0625 9.296875 63.078125 
L 9.296875 34.421875 
C 9.296875 32.640625 9.296875 32.140625 10.296875 32.140625 
C 10.796875 32.140625 11 32.34375 11.5 33.03125 
C 14.703125 37.515625 19.09375 39.40625 24.09375 39.40625 
C 27.59375 39.40625 35.09375 37.21875 35.09375 20.140625 
C 35.09375 16.953125 35.09375 11.171875 32.09375 6.578125 
C 29.59375 2.484375 25.703125 0.390625 21.40625 0.390625 
C 14.796875 0.390625 8.09375 5 6.296875 12.71875 
C 6.703125 12.609375 7.5 12.421875 7.90625 12.421875 
C 9.203125 12.421875 11.703125 13.125 11.703125 16.21875 
C 11.703125 18.90625 9.796875 20 7.90625 20 
C 5.59375 20 4.09375 18.59375 4.09375 15.796875 
C 4.09375 7.09375 11 -2 21.59375 -2 
C 31.90625 -2 41.703125 6.875 41.703125 19.75 
C 41.703125 31.71875 33.90625 41 24.203125 41 
C 19.09375 41 14.796875 39.109375 11.40625 35.53125 
z
" id="CMR17-53"/>
      </defs>
      <g transform="translate(154.811694 398.398498)scale(0.1 -0.1)">
       <use transform="scale(0.996264)" xlink:href="#CMR17-53"/>
       <use transform="translate(45.690477 0)scale(0.996264)" xlink:href="#CMR17-48"/>
       <use transform="translate(91.380954 0)scale(0.996264)" xlink:href="#CMR17-48"/>
      </g>
     </g>
    </g>
    <g id="xtick_3">
     <g id="line2d_5">
      <path clip-path="url(#p456643e50c)" d="M 232.276484 384.48 
L 232.276484 51.84 
" style="fill:none;stroke:#b0b0b0;stroke-dasharray:5.12,1.28,0.8,1.28;stroke-dashoffset:0;stroke-width:0.8;"/>
     </g>
     <g id="line2d_6">
      <g>
       <use style="stroke:#000000;stroke-width:0.8;" x="232.276484" xlink:href="#m196642d76b" y="384.48"/>
      </g>
     </g>
     <g id="text_3">
      <!-- $1000$ -->
      <defs>
       <path d="M 26.59375 63.40625 
C 26.59375 65.5 26.5 65.5 25.09375 65.5 
C 21.203125 61.1875 15.296875 59.796875 9.703125 59.796875 
C 9.40625 59.796875 8.90625 59.796875 8.796875 59.5 
C 8.703125 59.296875 8.703125 59.09375 8.703125 57 
C 11.796875 57 17 57.59375 21 59.984375 
L 21 7.203125 
C 21 3.6875 20.796875 2.5 12.203125 2.5 
L 9.203125 2.5 
L 9.203125 0 
C 14 0 19 0 23.796875 0 
C 28.59375 0 33.59375 0 38.40625 0 
L 38.40625 2.5 
L 35.40625 2.5 
C 26.796875 2.5 26.59375 3.59375 26.59375 7.15625 
z
" id="CMR17-49"/>
      </defs>
      <g transform="translate(222.313814 398.398498)scale(0.1 -0.1)">
       <use transform="scale(0.996264)" xlink:href="#CMR17-49"/>
       <use transform="translate(45.690477 0)scale(0.996264)" xlink:href="#CMR17-48"/>
       <use transform="translate(91.380954 0)scale(0.996264)" xlink:href="#CMR17-48"/>
       <use transform="translate(137.071431 0)scale(0.996264)" xlink:href="#CMR17-48"/>
      </g>
     </g>
    </g>
    <g id="xtick_4">
     <g id="line2d_7">
      <path clip-path="url(#p456643e50c)" d="M 302.269272 384.48 
L 302.269272 51.84 
" style="fill:none;stroke:#b0b0b0;stroke-dasharray:5.12,1.28,0.8,1.28;stroke-dashoffset:0;stroke-width:0.8;"/>
     </g>
     <g id="line2d_8">
      <g>
       <use style="stroke:#000000;stroke-width:0.8;" x="302.269272" xlink:href="#m196642d76b" y="384.48"/>
      </g>
     </g>
     <g id="text_4">
      <!-- $1500$ -->
      <g transform="translate(292.306601 398.398498)scale(0.1 -0.1)">
       <use transform="scale(0.996264)" xlink:href="#CMR17-49"/>
       <use transform="translate(45.690477 0)scale(0.996264)" xlink:href="#CMR17-53"/>
       <use transform="translate(91.380954 0)scale(0.996264)" xlink:href="#CMR17-48"/>
       <use transform="translate(137.071431 0)scale(0.996264)" xlink:href="#CMR17-48"/>
      </g>
     </g>
    </g>
    <g id="xtick_5">
     <g id="line2d_9">
      <path clip-path="url(#p456643e50c)" d="M 372.262059 384.48 
L 372.262059 51.84 
" style="fill:none;stroke:#b0b0b0;stroke-dasharray:5.12,1.28,0.8,1.28;stroke-dashoffset:0;stroke-width:0.8;"/>
     </g>
     <g id="line2d_10">
      <g>
       <use style="stroke:#000000;stroke-width:0.8;" x="372.262059" xlink:href="#m196642d76b" y="384.48"/>
      </g>
     </g>
     <g id="text_5">
      <!-- $2000$ -->
      <defs>
       <path d="M 41.703125 15.453125 
L 39.90625 15.453125 
C 38.90625 8.375 38.09375 7.171875 37.703125 6.5625 
C 37.203125 5.765625 30 5.765625 28.59375 5.765625 
L 9.40625 5.765625 
C 13 9.671875 20 16.75 28.5 24.953125 
C 34.59375 30.734375 41.703125 37.53125 41.703125 47.421875 
C 41.703125 59.21875 32.296875 66 21.796875 66 
C 10.796875 66 4.09375 56.3125 4.09375 47.34375 
C 4.09375 43.4375 7 42.9375 8.203125 42.9375 
C 9.203125 42.9375 12.203125 43.546875 12.203125 47.03125 
C 12.203125 50.109375 9.59375 51 8.203125 51 
C 7.59375 51 7 50.90625 6.59375 50.703125 
C 8.5 59.21875 14.296875 63.40625 20.40625 63.40625 
C 29.09375 63.40625 34.796875 56.515625 34.796875 47.421875 
C 34.796875 38.734375 29.703125 31.25 24 24.75 
L 4.09375 2.28125 
L 4.09375 0 
L 39.296875 0 
z
" id="CMR17-50"/>
      </defs>
      <g transform="translate(362.299389 398.398498)scale(0.1 -0.1)">
       <use transform="scale(0.996264)" xlink:href="#CMR17-50"/>
       <use transform="translate(45.690477 0)scale(0.996264)" xlink:href="#CMR17-48"/>
       <use transform="translate(91.380954 0)scale(0.996264)" xlink:href="#CMR17-48"/>
       <use transform="translate(137.071431 0)scale(0.996264)" xlink:href="#CMR17-48"/>
      </g>
     </g>
    </g>
    <g id="xtick_6">
     <g id="line2d_11">
      <path clip-path="url(#p456643e50c)" d="M 442.254846 384.48 
L 442.254846 51.84 
" style="fill:none;stroke:#b0b0b0;stroke-dasharray:5.12,1.28,0.8,1.28;stroke-dashoffset:0;stroke-width:0.8;"/>
     </g>
     <g id="line2d_12">
      <g>
       <use style="stroke:#000000;stroke-width:0.8;" x="442.254846" xlink:href="#m196642d76b" y="384.48"/>
      </g>
     </g>
     <g id="text_6">
      <!-- $2500$ -->
      <g transform="translate(432.292176 398.398498)scale(0.1 -0.1)">
       <use transform="scale(0.996264)" xlink:href="#CMR17-50"/>
       <use transform="translate(45.690477 0)scale(0.996264)" xlink:href="#CMR17-53"/>
       <use transform="translate(91.380954 0)scale(0.996264)" xlink:href="#CMR17-48"/>
       <use transform="translate(137.071431 0)scale(0.996264)" xlink:href="#CMR17-48"/>
      </g>
     </g>
    </g>
    <g id="xtick_7">
     <g id="line2d_13">
      <path clip-path="url(#p456643e50c)" d="M 512.247634 384.48 
L 512.247634 51.84 
" style="fill:none;stroke:#b0b0b0;stroke-dasharray:5.12,1.28,0.8,1.28;stroke-dashoffset:0;stroke-width:0.8;"/>
     </g>
     <g id="line2d_14">
      <g>
       <use style="stroke:#000000;stroke-width:0.8;" x="512.247634" xlink:href="#m196642d76b" y="384.48"/>
      </g>
     </g>
     <g id="text_7">
      <!-- $3000$ -->
      <defs>
       <path d="M 22.09375 33.703125 
C 31 33.703125 34.90625 25.96875 34.90625 17.03125 
C 34.90625 5 28.5 0.390625 22.703125 0.390625 
C 17.40625 0.390625 8.796875 3.03125 6.09375 10.828125 
C 6.59375 10.625 7.09375 10.625 7.59375 10.625 
C 10 10.625 11.796875 12.21875 11.796875 14.8125 
C 11.796875 17.703125 9.59375 19 7.59375 19 
C 5.90625 19 3.296875 18.203125 3.296875 14.46875 
C 3.296875 5.234375 12.296875 -2 22.90625 -2 
C 34 -2 42.5 6.71875 42.5 16.953125 
C 42.5 26.671875 34.5 33.703125 25 34.796875 
C 32.59375 36.375 39.90625 43.0625 39.90625 52.015625 
C 39.90625 59.6875 32 65.296875 23 65.296875 
C 13.90625 65.296875 5.90625 59.828125 5.90625 52.015625 
C 5.90625 48.59375 8.5 48 9.796875 48 
C 11.90625 48 13.703125 49.296875 13.703125 51.890625 
C 13.703125 54.46875 11.90625 55.765625 9.796875 55.765625 
C 9.40625 55.765625 8.90625 55.765625 8.5 55.578125 
C 11.40625 61.859375 19.296875 63 22.796875 63 
C 26.296875 63 32.90625 61.328125 32.90625 51.875 
C 32.90625 49.109375 32.5 44.1875 29.09375 39.84375 
C 26.09375 36 22.703125 36 19.40625 35.6875 
C 18.90625 35.6875 16.59375 35.453125 16.203125 35.453125 
C 15.5 35.359375 15.09375 35.265625 15.09375 34.5 
C 15.09375 33.796875 15.203125 33.703125 17.203125 33.703125 
z
" id="CMR17-51"/>
      </defs>
      <g transform="translate(502.284963 398.398498)scale(0.1 -0.1)">
       <use transform="scale(0.996264)" xlink:href="#CMR17-51"/>
       <use transform="translate(45.690477 0)scale(0.996264)" xlink:href="#CMR17-48"/>
       <use transform="translate(91.380954 0)scale(0.996264)" xlink:href="#CMR17-48"/>
       <use transform="translate(137.071431 0)scale(0.996264)" xlink:href="#CMR17-48"/>
      </g>
     </g>
    </g>
    <g id="text_8">
     <!-- Iteration -->
     <defs>
      <path d="M 17.09375 69 
L 8.703125 69 
L 8.703125 0 
L 17.09375 0 
z
" id="CMSS17-73"/>
      <path d="M 16.703125 37 
L 29.703125 37 
L 29.703125 42.765625 
L 16.703125 42.765625 
L 16.703125 55 
L 9.59375 55 
L 9.59375 42.765625 
L 1.703125 42.765625 
L 1.703125 37 
L 9.40625 37 
L 9.40625 11.703125 
C 9.40625 6 10.703125 -1 17.296875 -1 
C 22.296875 -1 26.90625 0.390625 31.296875 2.6875 
L 29.703125 8.5625 
C 27.296875 6.46875 24.40625 5.265625 21.296875 5.265625 
C 16.90625 5.265625 16.703125 10.875 16.703125 13.375 
z
" id="CMSS17-116"/>
      <path d="M 39.09375 21.515625 
C 39.09375 24.84375 38.90625 31.296875 35.703125 36.640625 
C 32.203125 42.390625 26.5 44 22.203125 44 
C 11.796875 44 3 34.1875 3 21.484375 
C 3 9.09375 12.09375 -1 23.59375 -1 
C 28.09375 -1 33.59375 0.296875 38.59375 3.875 
C 38.59375 4.28125 38.40625 6.46875 38.296875 6.5625 
C 38.296875 6.765625 38 9.84375 38 10.25 
C 33.203125 6.359375 27.703125 5.078125 23.703125 5.078125 
C 17.296875 5.078125 10.40625 10.421875 10.09375 21.515625 
z
M 10.90625 27 
C 12.203125 32.5625 16.59375 37.828125 22.203125 37.828125 
C 23.703125 37.828125 30.703125 37.828125 32.5 27 
z
" id="CMSS17-101"/>
      <path d="M 14.90625 21.296875 
C 14.90625 30.703125 21.796875 37 30.59375 37 
L 30.59375 43.578125 
C 24.203125 43.578125 18.203125 40.390625 14.59375 35.203125 
L 14.59375 43.09375 
L 7.5 43.09375 
L 7.5 0 
L 14.90625 0 
z
" id="CMSS17-114"/>
      <path d="M 37.59375 27.984375 
C 37.59375 37.375 30.90625 43.875 21.90625 43.875 
C 17.5 43.875 12.703125 43.078125 7.203125 39.890625 
L 7.796875 33.359375 
C 10.296875 35.125 14.59375 38 21.796875 38 
C 26.90625 38 30 34.0625 30 27.84375 
L 30 24 
C 14 24 4 19.34375 4 11.34375 
C 4 7.203125 6.5 -1 14.796875 -1 
C 16.296875 -1 24.40625 -1 30.203125 3.390625 
L 30.203125 -0.296875 
L 37.59375 -0.296875 
z
M 30 12.75 
C 30 10.953125 30 8.5625 27 6.78125 
C 24.40625 5.078125 21.09375 5.078125 19.703125 5.078125 
C 14.703125 5.078125 11.296875 7.984375 11.296875 11.625 
C 11.296875 18.921875 26.90625 18.921875 30 18.921875 
z
" id="CMSS17-97"/>
      <path d="M 15.296875 65.359375 
L 6.90625 65.359375 
L 6.90625 57 
L 15.296875 57 
z
M 14.796875 42.796875 
L 7.40625 42.796875 
L 7.40625 0 
L 14.796875 0 
z
" id="CMSS17-105"/>
      <path d="M 44.203125 21.1875 
C 44.203125 34 34.703125 44 23.5 44 
C 12 44 2.703125 33.703125 2.703125 21.1875 
C 2.703125 8.5 12.296875 -1 23.40625 -1 
C 34.796875 -1 44.203125 8.796875 44.203125 21.1875 
z
M 23.5 5.265625 
C 16.40625 5.265625 10.296875 11.078125 10.296875 22 
C 10.296875 33.609375 17.40625 37.921875 23.40625 37.921875 
C 29.90625 37.921875 36.59375 33.21875 36.59375 22 
C 36.59375 10.671875 30.09375 5.265625 23.5 5.265625 
z
" id="CMSS17-111"/>
      <path d="M 40.90625 29.328125 
C 40.90625 35.671875 39.40625 44 28.09375 44 
C 21.703125 44 17.5 40.71875 14.703125 37.328125 
L 14.703125 43.09375 
L 7.40625 43.09375 
L 7.40625 0 
L 15 0 
L 15 24.359375 
C 15 30.6875 17.40625 37.9375 24.203125 37.9375 
C 33 37.9375 33.296875 32 33.296875 28.578125 
L 33.296875 0 
L 40.90625 0 
z
" id="CMSS17-110"/>
     </defs>
     <g transform="translate(271.264003 414.021553)scale(0.14 -0.14)">
      <use transform="scale(0.996264)" xlink:href="#CMSS17-73"/>
      <use transform="translate(25.783926 0)scale(0.996264)" xlink:href="#CMSS17-116"/>
      <use transform="translate(59.615492 0)scale(0.996264)" xlink:href="#CMSS17-101"/>
      <use transform="translate(101.254314 0)scale(0.996264)" xlink:href="#CMSS17-114"/>
      <use transform="translate(133.164087 0)scale(0.996264)" xlink:href="#CMSS17-97"/>
      <use transform="translate(178.086007 0)scale(0.996264)" xlink:href="#CMSS17-116"/>
      <use transform="translate(211.917574 0)scale(0.996264)" xlink:href="#CMSS17-105"/>
      <use transform="translate(234.098297 0)scale(0.996264)" xlink:href="#CMSS17-111"/>
      <use transform="translate(280.941921 0)scale(0.996264)" xlink:href="#CMSS17-110"/>
     </g>
    </g>
   </g>
   <g id="matplotlib.axis_2">
    <g id="ytick_1">
     <g id="line2d_15">
      <path clip-path="url(#p456643e50c)" d="M 72 369.36 
L 518.4 369.36 
" style="fill:none;stroke:#b0b0b0;stroke-dasharray:5.12,1.28,0.8,1.28;stroke-dashoffset:0;stroke-width:0.8;"/>
     </g>
     <g id="line2d_16">
      <defs>
       <path d="M 0 0 
L -3.5 0 
" id="me92d29a088" style="stroke:#000000;stroke-width:0.8;"/>
      </defs>
      <g>
       <use style="stroke:#000000;stroke-width:0.8;" x="72" xlink:href="#me92d29a088" y="369.36"/>
      </g>
     </g>
     <g id="text_9">
      <!-- $0$ -->
      <g transform="translate(60.018665 372.819249)scale(0.1 -0.1)">
       <use transform="scale(0.996264)" xlink:href="#CMR17-48"/>
      </g>
     </g>
    </g>
    <g id="ytick_2">
     <g id="line2d_17">
      <path clip-path="url(#p456643e50c)" d="M 72 307.032359 
L 518.4 307.032359 
" style="fill:none;stroke:#b0b0b0;stroke-dasharray:5.12,1.28,0.8,1.28;stroke-dashoffset:0;stroke-width:0.8;"/>
     </g>
     <g id="line2d_18">
      <g>
       <use style="stroke:#000000;stroke-width:0.8;" x="72" xlink:href="#me92d29a088" y="307.032359"/>
      </g>
     </g>
     <g id="text_10">
      <!-- $5$ -->
      <g transform="translate(60.018665 310.491609)scale(0.1 -0.1)">
       <use transform="scale(0.996264)" xlink:href="#CMR17-53"/>
      </g>
     </g>
    </g>
    <g id="ytick_3">
     <g id="line2d_19">
      <path clip-path="url(#p456643e50c)" d="M 72 244.704719 
L 518.4 244.704719 
" style="fill:none;stroke:#b0b0b0;stroke-dasharray:5.12,1.28,0.8,1.28;stroke-dashoffset:0;stroke-width:0.8;"/>
     </g>
     <g id="line2d_20">
      <g>
       <use style="stroke:#000000;stroke-width:0.8;" x="72" xlink:href="#me92d29a088" y="244.704719"/>
      </g>
     </g>
     <g id="text_11">
      <!-- $10$ -->
      <g transform="translate(55.037329 248.163968)scale(0.1 -0.1)">
       <use transform="scale(0.996264)" xlink:href="#CMR17-49"/>
       <use transform="translate(45.690477 0)scale(0.996264)" xlink:href="#CMR17-48"/>
      </g>
     </g>
    </g>
    <g id="ytick_4">
     <g id="line2d_21">
      <path clip-path="url(#p456643e50c)" d="M 72 182.377078 
L 518.4 182.377078 
" style="fill:none;stroke:#b0b0b0;stroke-dasharray:5.12,1.28,0.8,1.28;stroke-dashoffset:0;stroke-width:0.8;"/>
     </g>
     <g id="line2d_22">
      <g>
       <use style="stroke:#000000;stroke-width:0.8;" x="72" xlink:href="#me92d29a088" y="182.377078"/>
      </g>
     </g>
     <g id="text_12">
      <!-- $15$ -->
      <g transform="translate(55.037329 185.836327)scale(0.1 -0.1)">
       <use transform="scale(0.996264)" xlink:href="#CMR17-49"/>
       <use transform="translate(45.690477 0)scale(0.996264)" xlink:href="#CMR17-53"/>
      </g>
     </g>
    </g>
    <g id="ytick_5">
     <g id="line2d_23">
      <path clip-path="url(#p456643e50c)" d="M 72 120.049438 
L 518.4 120.049438 
" style="fill:none;stroke:#b0b0b0;stroke-dasharray:5.12,1.28,0.8,1.28;stroke-dashoffset:0;stroke-width:0.8;"/>
     </g>
     <g id="line2d_24">
      <g>
       <use style="stroke:#000000;stroke-width:0.8;" x="72" xlink:href="#me92d29a088" y="120.049438"/>
      </g>
     </g>
     <g id="text_13">
      <!-- $20$ -->
      <g transform="translate(55.037329 123.508687)scale(0.1 -0.1)">
       <use transform="scale(0.996264)" xlink:href="#CMR17-50"/>
       <use transform="translate(45.690477 0)scale(0.996264)" xlink:href="#CMR17-48"/>
      </g>
     </g>
    </g>
    <g id="ytick_6">
     <g id="line2d_25">
      <path clip-path="url(#p456643e50c)" d="M 72 57.721797 
L 518.4 57.721797 
" style="fill:none;stroke:#b0b0b0;stroke-dasharray:5.12,1.28,0.8,1.28;stroke-dashoffset:0;stroke-width:0.8;"/>
     </g>
     <g id="line2d_26">
      <g>
       <use style="stroke:#000000;stroke-width:0.8;" x="72" xlink:href="#me92d29a088" y="57.721797"/>
      </g>
     </g>
     <g id="text_14">
      <!-- $25$ -->
      <g transform="translate(55.037329 61.181046)scale(0.1 -0.1)">
       <use transform="scale(0.996264)" xlink:href="#CMR17-50"/>
       <use transform="translate(45.690477 0)scale(0.996264)" xlink:href="#CMR17-53"/>
      </g>
     </g>
    </g>
    <g id="text_15">
     <!-- $\lambda_{m} [m.u/W]$ -->
     <defs>
      <path d="M 30.90625 61.953125 
C 28.40625 69 20.5 69 19.203125 69 
C 18.59375 69 17.5 69 17.5 68 
C 17.5 67.21875 18.09375 67.109375 18.59375 67.015625 
C 20.09375 66.8125 21.296875 66.609375 22.90625 63.75 
C 23.90625 61.859375 34.203125 32.171875 34.203125 31.96875 
C 34.203125 31.875 34.09375 31.765625 33.296875 30.96875 
L 7.296875 4.859375 
C 6.09375 3.65625 5.296875 2.859375 5.296875 1.59375 
C 5.296875 0.1875 6.5 -1 8.09375 -1 
C 8.5 -1 9.59375 -0.796875 10.203125 -0.203125 
C 11.796875 1.28125 26.09375 18.65625 35.203125 29.390625 
C 37.796875 21.609375 41 12.453125 44.09375 4.078125 
C 44.59375 2.59375 45.09375 1.1875 46.5 -0.09375 
C 47.5 -1 47.703125 -1 50.5 -1 
L 52.40625 -1 
C 52.796875 -1 53.5 -1 53.5 -0.203125 
C 53.5 0.203125 53.40625 0.296875 53 0.703125 
C 52.09375 1.796875 51.40625 3.578125 51 4.78125 
z
" id="CMMI12-21"/>
      <path d="M 20.59375 29.234375 
C 20.796875 29.84375 23.296875 34.828125 27 38.015625 
C 29.59375 40.40625 33 42.015625 36.90625 42.015625 
C 40.90625 42.015625 42.296875 39.015625 42.296875 35.03125 
C 42.296875 34.421875 42.296875 32.4375 41.09375 27.734375 
L 38.59375 17.46875 
C 37.796875 14.46875 35.90625 7.078125 35.703125 5.984375 
C 35.296875 4.484375 34.703125 1.890625 34.703125 1.5 
C 34.703125 0.09375 35.796875 -1 37.296875 -1 
C 40.296875 -1 40.796875 1.296875 41.703125 4.890625 
L 47.703125 28.734375 
C 47.90625 29.53125 53.09375 42.015625 64.09375 42.015625 
C 68.09375 42.015625 69.5 39.015625 69.5 35.03125 
C 69.5 29.4375 65.59375 18.5625 63.40625 12.578125 
C 62.5 10.171875 62 8.875 62 7.078125 
C 62 2.59375 65.09375 -1 69.90625 -1 
C 79.203125 -1 82.703125 13.671875 82.703125 14.265625 
C 82.703125 14.765625 82.296875 15.171875 81.703125 15.171875 
C 80.796875 15.171875 80.703125 14.875 80.203125 13.171875 
C 77.90625 5.1875 74.203125 1 70.203125 1 
C 69.203125 1 67.59375 1 67.59375 4.203125 
C 67.59375 6.8125 68.796875 10 69.203125 11.09375 
C 71 15.90625 75.5 27.703125 75.5 33.515625 
C 75.5 39.5 72 44 64.40625 44 
C 57.703125 44 52.296875 40.21875 48.296875 34.328125 
C 48 39.71875 44.703125 44 37.203125 44 
C 28.296875 44 23.59375 37.734375 21.796875 35.234375 
C 21.5 40.90625 17.40625 44 13 44 
C 10.09375 44 7.796875 42.609375 5.90625 38.8125 
C 4.09375 35.21875 2.703125 29.140625 2.703125 28.734375 
C 2.703125 28.34375 3.09375 27.84375 3.796875 27.84375 
C 4.59375 27.84375 4.703125 27.9375 5.296875 30.234375 
C 6.796875 36.125 8.703125 42.015625 12.703125 42.015625 
C 15 42.015625 15.796875 40.40625 15.796875 37.421875 
C 15.796875 35.21875 14.796875 31.328125 14.09375 28.234375 
L 11.296875 17.46875 
C 10.90625 15.5625 9.796875 11.078125 9.296875 9.28125 
C 8.59375 6.6875 7.5 2 7.5 1.5 
C 7.5 0.09375 8.59375 -1 10.09375 -1 
C 11.296875 -1 12.703125 -0.40625 13.5 1.09375 
C 13.703125 1.59375 14.59375 5.09375 15.09375 7.078125 
L 17.296875 16.0625 
z
" id="CMMI12-109"/>
      <path d="M 23.5 -25 
L 23.5 -21.515625 
L 14.09375 -21.515625 
L 14.09375 71 
L 23.5 71 
L 23.5 74.484375 
L 10.59375 74.484375 
L 10.59375 -25 
z
" id="CMR17-91"/>
      <path d="M 18.40625 4.796875 
C 18.40625 7.6875 16 9.671875 13.59375 9.671875 
C 10.703125 9.671875 8.703125 7.28125 8.703125 4.890625 
C 8.703125 2 11.09375 0 13.5 0 
C 16.40625 0 18.40625 2.390625 18.40625 4.796875 
z
" id="CMMI12-58"/>
      <path d="M 34.09375 5.78125 
C 35.40625 0.203125 40.203125 -1 42.59375 -1 
C 45.796875 -1 48.203125 1.09375 49.796875 4.484375 
C 51.5 8.078125 52.796875 13.96875 52.796875 14.265625 
C 52.796875 14.765625 52.40625 15.171875 51.796875 15.171875 
C 50.90625 15.171875 50.796875 14.671875 50.40625 13.171875 
C 48.59375 6.28125 46.796875 1 42.796875 1 
C 39.796875 1 39.796875 4.296875 39.796875 5.59375 
C 39.796875 7.890625 40.09375 8.875 41.09375 13.078125 
C 41.796875 15.765625 42.5 18.453125 43.09375 21.25 
L 47.203125 37.515625 
C 47.90625 40.015625 47.90625 40.21875 47.90625 40.515625 
C 47.90625 42.015625 46.703125 43.015625 45.203125 43.015625 
C 42.296875 43.015625 41.59375 40.515625 41 38.015625 
C 40 34.125 34.59375 12.671875 33.90625 9.1875 
C 33.796875 9.1875 29.90625 1 22.59375 1 
C 17.40625 1 16.40625 5.484375 16.40625 9.1875 
C 16.40625 14.875 19.203125 22.84375 21.796875 29.53125 
C 23 32.734375 23.5 34.03125 23.5 36.015625 
C 23.5 40.3125 20.40625 44 15.59375 44 
C 6.40625 44 2.703125 29.53125 2.703125 28.734375 
C 2.703125 28.34375 3.09375 27.84375 3.796875 27.84375 
C 4.703125 27.84375 4.796875 28.234375 5.203125 29.625 
C 7.59375 38.140625 11.5 41.90625 15.296875 41.90625 
C 16.296875 41.90625 17.90625 41.90625 17.90625 38.71875 
C 17.90625 36.125 16.796875 33.234375 15.296875 29.4375 
C 10.90625 17.5625 10.40625 13.765625 10.40625 10.78125 
C 10.40625 0.59375 18.09375 -1 22.203125 -1 
C 28.59375 -1 32.09375 3.390625 34.09375 5.78125 
z
" id="CMMI12-117"/>
      <path d="M 42.90625 71.28125 
C 42.90625 71.390625 43.5 72.90625 43.5 73.09375 
C 43.5 74.296875 42.5 75 41.703125 75 
C 41.203125 75 40.296875 75 39.5 72.796875 
L 6 -21.296875 
C 6 -21.40625 5.40625 -22.890625 5.40625 -23.09375 
C 5.40625 -24.296875 6.40625 -25 7.203125 -25 
C 7.796875 -25 8.703125 -24.890625 9.40625 -22.796875 
z
" id="CMMI12-61"/>
      <path d="M 90.296875 56.96875 
C 92.59375 60.84375 94.796875 64.515625 100.796875 65.125 
C 101.703125 65.21875 102.59375 65.3125 102.59375 66.90625 
C 102.59375 68 101.703125 68 101.40625 68 
C 101.203125 68 100.5 68 93.90625 68 
C 90.90625 68 87.796875 68 84.90625 68 
C 84.296875 68 83.09375 68 83.09375 66.03125 
C 83.09375 65.09375 83.90625 65 84.5 65 
C 86.5 65 89.703125 64.40625 89.703125 61.328125 
C 89.703125 60.03125 89.296875 59.328125 88.296875 57.65625 
L 61 10.125 
L 57.40625 61.921875 
C 57.40625 63.109375 58.5 65 64.09375 65 
C 65.40625 65 66.40625 65 66.40625 66.96875 
C 66.40625 68 65.40625 68 64.90625 68 
C 61.40625 68 57.703125 68 54.09375 68 
L 48.90625 68 
C 47.40625 68 45.59375 68 44.09375 68 
C 43.5 68 42.296875 68 42.296875 66.03125 
C 42.296875 65 43 65 44.703125 65 
C 49.296875 65 49.296875 64.890625 49.703125 58.9375 
L 50 55.359375 
L 24.09375 10.125 
L 20.40625 61.421875 
C 20.40625 62.53125 20.40625 65 27.203125 65 
C 28.296875 65 29.40625 65 29.40625 66.859375 
C 29.40625 68 28.5 68 27.90625 68 
C 24.40625 68 20.703125 68 17.09375 68 
L 11.90625 68 
C 10.40625 68 8.59375 68 7.09375 68 
C 6.5 68 5.296875 68 5.296875 66.03125 
C 5.296875 65 6.09375 65 7.5 65 
C 12.203125 65 12.296875 64.390625 12.5 61.21875 
L 16.90625 0.28125 
C 17 -1.40625 17.09375 -2 18.296875 -2 
C 19.296875 -2 19.5 -1.609375 20.40625 -0.109375 
L 50.203125 51.671875 
L 53.90625 0.28125 
C 54 -1.40625 54.09375 -2 55.296875 -2 
C 56.296875 -2 56.59375 -1.5 57.40625 -0.109375 
z
" id="CMMI12-87"/>
      <path d="M 14.296875 74.484375 
L 1.40625 74.484375 
L 1.40625 71 
L 10.796875 71 
L 10.796875 -21.515625 
L 1.40625 -21.515625 
L 1.40625 -25 
L 14.296875 -25 
z
" id="CMR17-93"/>
     </defs>
     <g transform="translate(48.325301 253.171658)rotate(-90)scale(0.14 -0.14)">
      <use transform="translate(0 14.943915)scale(0.996264)" xlink:href="#CMMI12-21"/>
      <use transform="translate(56.904072 0)scale(0.697382)" xlink:href="#CMMI12-109"/>
      <use transform="translate(117.130995 14.943915)scale(0.996264)" xlink:href="#CMR17-91"/>
      <use transform="translate(142.002053 14.943915)scale(0.996264)" xlink:href="#CMMI12-109"/>
      <use transform="translate(227.329278 14.943915)scale(0.996264)" xlink:href="#CMMI12-58"/>
      <use transform="translate(254.426455 14.943915)scale(0.996264)" xlink:href="#CMMI12-117"/>
      <use transform="translate(309.946785 14.943915)scale(0.996264)" xlink:href="#CMMI12-61"/>
      <use transform="translate(358.721703 14.943915)scale(0.996264)" xlink:href="#CMMI12-87"/>
      <use transform="translate(464.366201 14.943915)scale(0.996264)" xlink:href="#CMR17-93"/>
     </g>
    </g>
   </g>
   <g id="line2d_27">
    <path clip-path="url(#p456643e50c)" d="M 92.290909 369.36 
L 120.008053 369.25529 
L 121.68788 368.801544 
L 123.507692 368.081037 
L 125.747462 366.954153 
L 128.547173 365.292498 
L 132.326784 362.771968 
L 138.76612 358.108614 
L 151.224836 349.147146 
L 156.404302 345.371338 
L 168.583047 336.614304 
L 180.481821 328.003117 
L 187.201129 323.173972 
L 208.478936 307.774058 
L 218.837869 300.262331 
L 222.897451 297.092347 
L 227.237003 293.434961 
L 232.136498 288.968563 
L 236.896008 284.287757 
L 241.795503 279.119549 
L 246.834984 273.436515 
L 251.734479 267.560265 
L 256.354003 261.66781 
L 258.733758 258.197406 
L 261.113512 254.32312 
L 263.773238 249.547577 
L 268.392762 241.031128 
L 270.632532 237.237868 
L 272.172373 233.900846 
L 274.552128 228.16421 
L 277.351839 220.848191 
L 279.031666 215.987882 
L 279.87158 213.19311 
L 280.571507 211.601262 
L 280.851479 211.303336 
L 281.271435 211.1899 
L 281.691392 211.293364 
L 282.251334 211.677302 
L 282.951262 212.477589 
L 283.65119 213.623171 
L 284.351118 215.231224 
L 285.331017 218.08583 
L 287.290815 224.757381 
L 288.550685 228.559367 
L 289.390599 230.414237 
L 290.090527 231.412726 
L 290.650469 231.866471 
L 291.350397 232.109549 
L 292.470281 232.168137 
L 293.310195 232.236698 
L 294.010123 232.5072 
L 294.71005 232.997095 
L 295.549964 233.885887 
L 296.529863 235.308204 
L 297.649748 237.348811 
L 299.609546 241.039854 
L 300.169488 241.517283 
L 300.589445 241.619501 
L 301.009401 241.504818 
L 301.569344 241.082236 
L 302.829214 239.702302 
L 303.529142 239.11019 
L 304.089084 238.943152 
L 304.649026 239.057835 
L 305.208969 239.428061 
L 305.908896 240.179732 
L 308.428637 243.319799 
L 308.988579 243.552904 
L 309.548521 243.499302 
L 310.108464 243.191404 
L 311.228348 242.235298 
L 312.068262 241.519776 
L 312.76819 241.248028 
L 313.328132 241.262987 
L 314.02806 241.547201 
L 314.867973 242.185436 
L 317.107742 244.101387 
L 317.667685 244.267179 
L 318.227627 244.226043 
L 318.927555 243.914404 
L 321.447295 242.4335 
L 322.007238 242.419788 
L 322.847151 242.640427 
L 323.82705 243.134062 
L 325.926834 244.314548 
L 326.626762 244.425491 
L 327.326689 244.320781 
L 328.446574 243.847091 
L 330.266387 243.130323 
L 331.1063 243.126583 
L 332.086199 243.362181 
L 333.766026 244.077703 
L 334.745925 244.389341 
L 335.585838 244.452915 
L 336.425752 244.300836 
L 339.505434 243.479357 
L 340.625319 243.59778 
L 342.16516 244.036567 
L 343.565016 244.386848 
L 344.544915 244.415519 
L 345.6648 244.209837 
L 348.044555 243.716202 
L 349.304425 243.771051 
L 351.124237 244.137537 
L 352.524093 244.366903 
L 353.643978 244.348205 
L 355.46379 244.034073 
L 356.863646 243.863296 
L 358.403487 243.933103 
L 362.323083 244.325767 
L 364.422867 244.070223 
L 366.102694 243.96302 
L 367.922506 244.085182 
L 370.722218 244.309562 
L 372.682016 244.173687 
L 375.061771 244.03906 
L 377.441525 244.184906 
L 379.961266 244.279644 
L 386.540588 244.214824 
L 389.060328 244.260946 
L 394.37978 244.178674 
L 398.299376 244.244741 
L 402.9189 244.188646 
L 408.098366 244.221056 
L 412.297933 244.21607 
L 418.037342 244.209837 
L 429.096202 244.222303 
L 443.514717 244.239755 
L 498.109091 244.245987 
L 498.109091 244.245987 
" style="fill:none;stroke:#bf00bf;stroke-linecap:square;stroke-width:1.5;"/>
   </g>
   <g id="line2d_28">
    <path clip-path="url(#p456643e50c)" d="M 92.290909 369.36 
L 119.868067 369.257783 
L 121.407909 368.8539 
L 123.227721 368.149597 
L 125.46749 367.037672 
L 128.407187 365.296238 
L 132.046812 362.8692 
L 137.086293 359.236745 
L 147.165254 351.924466 
L 166.623249 337.853378 
L 172.9226 333.289748 
L 191.960638 319.522819 
L 198.259989 314.959189 
L 223.037436 296.740819 
L 227.516975 292.931354 
L 232.41647 288.421326 
L 236.616037 284.271552 
L 240.95559 279.709168 
L 245.855085 274.224336 
L 250.75458 268.391715 
L 255.794061 262.023077 
L 258.03383 258.839381 
L 260.55357 254.825481 
L 263.073311 250.382767 
L 265.733036 245.268161 
L 267.552849 241.385149 
L 271.892402 231.29555 
L 274.692113 224.473167 
L 277.63181 216.703403 
L 279.311637 212.382851 
L 280.291536 210.602774 
L 280.991464 209.721461 
L 281.551406 209.397357 
L 282.111349 209.381152 
L 282.671291 209.617997 
L 283.371219 210.216342 
L 284.071147 211.135052 
L 284.91106 212.677037 
L 285.890959 214.961969 
L 287.430801 219.218947 
L 289.250613 224.326073 
L 290.090527 225.988975 
L 290.790454 226.874027 
L 291.490382 227.356443 
L 294.150108 228.580558 
L 295.130007 229.377105 
L 296.109906 230.457867 
L 297.229791 232.040989 
L 298.489661 234.21373 
L 300.449459 237.733996 
L 300.869416 238.064332 
L 301.289373 238.145358 
L 301.709329 237.994525 
L 302.409257 237.393687 
L 303.389156 236.744233 
L 304.089084 236.516113 
L 304.649026 236.527332 
L 305.348954 236.799081 
L 306.048882 237.325126 
L 307.168767 238.52431 
L 309.128565 240.749407 
L 309.688507 240.961321 
L 310.108464 240.913952 
L 310.668406 240.608546 
L 312.068262 239.639975 
L 312.908175 239.337062 
L 313.608103 239.308392 
L 314.308031 239.487895 
L 315.147944 239.935408 
L 316.5478 241.003704 
L 317.667685 241.84762 
L 318.227627 242.043329 
L 318.787569 242.018398 
L 319.487497 241.69928 
L 320.887353 240.921431 
L 321.867252 240.644696 
L 322.707165 240.645943 
L 323.687065 240.894007 
L 325.08692 241.535982 
L 326.626762 242.283913 
L 327.326689 242.371172 
L 328.026617 242.225325 
L 330.546358 241.372683 
L 331.526257 241.341519 
L 332.646141 241.535982 
L 334.325968 242.094437 
L 335.585838 242.46217 
L 336.425752 242.459677 
L 337.405651 242.190422 
L 338.945492 241.799004 
L 340.205362 241.706759 
L 341.465233 241.84388 
L 343.565016 242.343748 
L 344.684901 242.504553 
L 345.6648 242.409815 
L 348.324526 241.933632 
L 349.724381 241.95233 
L 351.824165 242.265215 
L 353.503992 242.479622 
L 354.623877 242.384884 
L 357.143617 242.06078 
L 358.823444 242.091944 
L 363.582953 242.362446 
L 365.962708 242.145546 
L 368.062492 242.194161 
L 372.122073 242.386131 
L 375.341742 242.199148 
L 378.001468 242.306351 
L 380.661194 242.392363 
L 385.700674 242.275187 
L 390.460184 242.343748 
L 394.099809 242.291393 
L 401.239073 242.308844 
L 405.858597 242.376158 
L 409.498222 242.332529 
L 420.557082 242.343748 
L 435.395553 242.364939 
L 447.574298 242.366186 
L 461.012914 242.376158 
L 473.751601 242.373665 
L 498.109091 242.376158 
L 498.109091 242.376158 
" style="fill:none;stroke:#00bfbf;stroke-linecap:square;stroke-width:1.5;"/>
   </g>
   <g id="line2d_29">
    <path clip-path="url(#p456643e50c)" d="M 92.290909 369.36 
L 94.670664 369.300165 
L 95.230606 368.969829 
L 97.190404 367.906519 
L 101.669943 365.390976 
L 106.989394 362.13872 
L 111.88889 358.870258 
L 116.508414 355.52825 
L 118.608197 354.090975 
L 119.448111 353.891526 
L 120.42801 353.247058 
L 121.68788 352.162557 
L 123.227721 350.525834 
L 125.047534 348.250875 
L 127.287303 345.080891 
L 130.227 340.49607 
L 134.00661 334.171061 
L 153.32462 300.75098 
L 167.743134 275.808705 
L 187.4811 241.665623 
L 201.619643 217.21075 
L 221.917552 181.928319 
L 228.636859 169.742019 
L 236.19608 155.581179 
L 245.015171 138.538309 
L 254.114234 120.473266 
L 261.533469 105.788874 
L 265.31308 98.879231 
L 267.83282 94.252027 
L 269.372661 90.841459 
L 272.032387 84.1911 
L 275.532027 75.851661 
L 278.751695 68.738831 
L 279.311637 67.822615 
L 280.011565 67.158202 
L 280.571507 66.96 
L 280.991464 67.141997 
L 281.551406 67.655576 
L 282.671291 69.090359 
L 284.071147 71.19828 
L 285.610988 74.042913 
L 287.850757 78.121634 
L 288.970642 79.846863 
L 289.67057 80.612246 
L 290.370498 81.0448 
L 290.93044 81.150757 
L 291.630368 81.043554 
L 293.170209 80.67956 
L 294.010123 80.750614 
L 294.850036 81.01239 
L 295.969921 81.625694 
L 297.369776 82.69025 
L 299.329574 84.474067 
L 300.309473 85.340421 
L 300.869416 85.56854 
L 301.289373 85.549842 
L 301.849315 85.268121 
L 303.529142 84.091375 
L 304.22907 84.010349 
L 304.928997 84.179881 
L 305.768911 84.647338 
L 307.168767 85.754277 
L 309.26855 87.368563 
L 309.828493 87.509423 
L 310.388435 87.429644 
L 311.088363 87.075623 
L 311.788291 86.754012 
L 312.628204 86.614398 
L 313.468118 86.7403 
L 314.308031 87.089335 
L 315.707887 87.94821 
L 317.947656 89.324404 
L 318.647584 89.478977 
L 319.347512 89.384239 
L 321.167324 88.903069 
L 322.007238 88.974123 
L 323.267108 89.375513 
L 325.506877 90.387714 
L 326.906733 90.946169 
L 327.746646 91.027195 
L 328.726545 90.841459 
L 329.706444 90.680653 
L 330.826329 90.711817 
L 332.226185 91.032181 
L 336.285766 92.170284 
L 337.265665 92.086765 
L 338.665521 91.915987 
L 339.925391 91.974575 
L 341.605218 92.294939 
L 344.824886 92.963092 
L 345.944771 92.924449 
L 347.764583 92.774862 
L 349.44441 92.894531 
L 354.623877 93.48789 
L 357.283602 93.375701 
L 359.523372 93.578889 
L 362.883025 93.873075 
L 368.062492 93.880555 
L 372.122073 94.094962 
L 375.761698 94.043853 
L 381.921064 94.209644 
L 385.280717 94.228343 
L 390.740155 94.318095 
L 394.239794 94.33056 
L 400.119188 94.380422 
L 405.578626 94.44275 
L 411.038063 94.429038 
L 430.636044 94.492612 
L 498.109091 94.522529 
L 498.109091 94.522529 
" style="fill:none;stroke:#ff0000;stroke-linecap:square;stroke-width:1.5;"/>
   </g>
   <g id="line2d_30">
    <path clip-path="url(#p456643e50c)" d="M 92.290909 369.36 
L 94.810649 369.276481 
L 95.230606 369.114429 
L 97.750347 367.734495 
L 103.069798 364.721577 
L 108.38925 361.420705 
L 113.288745 358.104875 
L 117.768284 354.823948 
L 118.748183 354.165768 
L 119.868067 353.812993 
L 120.987952 353.042624 
L 122.387808 351.769893 
L 123.927649 350.065856 
L 125.887447 347.542833 
L 128.267202 344.097361 
L 131.48687 338.992727 
L 135.546452 332.1317 
L 151.224836 305.128873 
L 169.282975 274.036107 
L 210.438734 203.157114 
L 220.37771 185.948452 
L 226.677061 174.683354 
L 235.076196 159.125129 
L 243.47533 143.032132 
L 252.01445 126.213641 
L 258.313801 113.89022 
L 262.373383 106.591654 
L 266.152993 100.209303 
L 267.83282 97.29237 
L 269.372661 94.134851 
L 271.472445 89.213461 
L 275.11207 80.891474 
L 278.611709 73.445814 
L 279.311637 72.17807 
L 280.011565 71.436371 
L 280.571507 71.152157 
L 280.851479 71.160883 
L 281.411421 71.55604 
L 282.531305 72.806333 
L 284.071147 74.789598 
L 285.331017 76.88256 
L 288.4107 82.098137 
L 289.390599 83.38458 
L 290.090527 83.985418 
L 290.790454 84.269632 
L 291.490382 84.265893 
L 293.870137 83.878215 
L 294.850036 84.100101 
L 295.969921 84.626146 
L 297.369776 85.587239 
L 299.329574 87.227702 
L 300.449459 88.167603 
L 301.009401 88.38201 
L 301.569344 88.327162 
L 302.129286 88.008044 
L 303.389156 87.119252 
L 304.089084 86.934762 
L 304.789012 86.989611 
L 305.628925 87.331166 
L 306.74881 88.090317 
L 309.408536 90.029953 
L 309.968478 90.164581 
L 310.52842 90.094774 
L 311.368334 89.693384 
L 312.208247 89.402937 
L 313.048161 89.346842 
L 313.888074 89.530085 
L 314.867973 89.977598 
L 317.247728 91.417366 
L 318.227627 91.892303 
L 318.927555 91.99452 
L 319.627483 91.868618 
L 321.167324 91.473461 
L 322.007238 91.503378 
L 323.267108 91.84618 
L 325.366891 92.710041 
L 327.186704 93.38692 
L 328.026617 93.428056 
L 329.286488 93.186225 
L 330.546358 93.111431 
L 331.666242 93.267251 
L 333.346069 93.730968 
L 336.145781 94.486379 
L 337.12568 94.470174 
L 339.365449 94.270726 
L 340.90529 94.446489 
L 345.6648 95.24553 
L 349.164439 95.13334 
L 352.104136 95.557168 
L 354.063934 95.762849 
L 356.163718 95.633208 
L 358.123516 95.670604 
L 364.00291 96.049556 
L 366.242679 95.994708 
L 369.322362 96.185431 
L 372.122073 96.308839 
L 376.741597 96.293881 
L 381.921064 96.417289 
L 385.420703 96.428508 
L 390.88014 96.514521 
L 394.519765 96.528233 
L 400.259174 96.571862 
L 405.858597 96.631697 
L 419.99714 96.646655 
L 498.109091 96.705243 
L 498.109091 96.705243 
" style="fill:none;stroke:#008000;stroke-linecap:square;stroke-width:1.5;"/>
   </g>
   <g id="patch_3">
    <path d="M 72 384.48 
L 72 51.84 
" style="fill:none;stroke:#000000;stroke-linecap:square;stroke-linejoin:miter;stroke-width:0.8;"/>
   </g>
   <g id="patch_4">
    <path d="M 518.4 384.48 
L 518.4 51.84 
" style="fill:none;stroke:#000000;stroke-linecap:square;stroke-linejoin:miter;stroke-width:0.8;"/>
   </g>
   <g id="patch_5">
    <path d="M 72 384.48 
L 518.4 384.48 
" style="fill:none;stroke:#000000;stroke-linecap:square;stroke-linejoin:miter;stroke-width:0.8;"/>
   </g>
   <g id="patch_6">
    <path d="M 72 51.84 
L 518.4 51.84 
" style="fill:none;stroke:#000000;stroke-linecap:square;stroke-linejoin:miter;stroke-width:0.8;"/>
   </g>
   <g id="legend_1">
    <g id="patch_7">
     <path d="M 79 115.588713 
L 120.782803 115.588713 
Q 122.782803 115.588713 122.782803 113.588713 
L 122.782803 58.84 
Q 122.782803 56.84 120.782803 56.84 
L 79 56.84 
Q 77 56.84 77 58.84 
L 77 113.588713 
Q 77 115.588713 79 115.588713 
z
" style="fill:#ffffff;opacity:0.8;stroke:#cccccc;stroke-linejoin:miter;"/>
    </g>
    <g id="line2d_31">
     <path d="M 81 64.34 
L 101 64.34 
" style="fill:none;stroke:#bf00bf;stroke-linecap:square;stroke-width:1.5;"/>
    </g>
    <g id="line2d_32"/>
    <g id="text_16">
     <!-- $\lambda_{1}$ -->
     <g transform="translate(109 67.84)scale(0.1 -0.1)">
      <use transform="translate(0 14.943915)scale(0.996264)" xlink:href="#CMMI12-21"/>
      <use transform="translate(56.904072 0)scale(0.697382)" xlink:href="#CMR17-49"/>
     </g>
    </g>
    <g id="line2d_33">
     <path d="M 81 78.277178 
L 101 78.277178 
" style="fill:none;stroke:#00bfbf;stroke-linecap:square;stroke-width:1.5;"/>
    </g>
    <g id="line2d_34"/>
    <g id="text_17">
     <!-- $\lambda_{2}$ -->
     <g transform="translate(109 81.777178)scale(0.1 -0.1)">
      <use transform="translate(0 14.943915)scale(0.996264)" xlink:href="#CMMI12-21"/>
      <use transform="translate(56.904072 0)scale(0.697382)" xlink:href="#CMR17-50"/>
     </g>
    </g>
    <g id="line2d_35">
     <path d="M 81 92.214357 
L 101 92.214357 
" style="fill:none;stroke:#ff0000;stroke-linecap:square;stroke-width:1.5;"/>
    </g>
    <g id="line2d_36"/>
    <g id="text_18">
     <!-- $\lambda_{3}$ -->
     <g transform="translate(109 95.714357)scale(0.1 -0.1)">
      <use transform="translate(0 14.943915)scale(0.996264)" xlink:href="#CMMI12-21"/>
      <use transform="translate(56.904072 0)scale(0.697382)" xlink:href="#CMR17-51"/>
     </g>
    </g>
    <g id="line2d_37">
     <path d="M 81 106.151535 
L 101 106.151535 
" style="fill:none;stroke:#008000;stroke-linecap:square;stroke-width:1.5;"/>
    </g>
    <g id="line2d_38"/>
    <g id="text_19">
     <!-- $\lambda_{4}$ -->
     <defs>
      <path d="M 33.59375 64.40625 
C 33.59375 66.5 33.5 66.5 31.703125 66.5 
L 2 19.59375 
L 2 17 
L 27.796875 17 
L 27.796875 7.140625 
C 27.796875 3.5 27.59375 2.5 20.59375 2.5 
L 18.703125 2.5 
L 18.703125 0 
C 21.90625 0 27.296875 0 30.703125 0 
C 34.09375 0 39.5 0 42.703125 0 
L 42.703125 2.5 
L 40.796875 2.5 
C 33.796875 2.5 33.59375 3.5 33.59375 7.140625 
L 33.59375 17 
L 43.796875 17 
L 43.796875 19.59375 
L 33.59375 19.59375 
z
M 28.09375 57.859375 
L 28.09375 19.59375 
L 4 19.59375 
z
" id="CMR17-52"/>
     </defs>
     <g transform="translate(109 109.651535)scale(0.1 -0.1)">
      <use transform="translate(0 14.943915)scale(0.996264)" xlink:href="#CMMI12-21"/>
      <use transform="translate(56.904072 0)scale(0.697382)" xlink:href="#CMR17-52"/>
     </g>
    </g>
   </g>
  </g>
 </g>
 <defs>
  <clipPath id="p456643e50c">
   <rect height="332.64" width="446.4" x="72" y="51.84"/>
  </clipPath>
 </defs>
</svg>
