<?xml version="1.0" encoding="utf-8" standalone="no"?>
<!DOCTYPE svg PUBLIC "-//W3C//DTD SVG 1.1//EN"
  "http://www.w3.org/Graphics/SVG/1.1/DTD/svg11.dtd">
<!-- Created with matplotlib (http://matplotlib.org/) -->
<svg height="432pt" version="1.1" viewBox="0 0 576 432" width="576pt" xmlns="http://www.w3.org/2000/svg" xmlns:xlink="http://www.w3.org/1999/xlink">
 <defs>
  <style type="text/css">
*{stroke-linecap:butt;stroke-linejoin:round;}
  </style>
 </defs>
 <g id="figure_1">
  <g id="patch_1">
   <path d="M 0 432 
L 576 432 
L 576 0 
L 0 0 
z
" style="fill:#ffffff;"/>
  </g>
  <g id="axes_1">
   <g id="patch_2">
    <path d="M 72 384.48 
L 518.4 384.48 
L 518.4 51.84 
L 72 51.84 
z
" style="fill:#ffffff;"/>
   </g>
   <g id="matplotlib.axis_1">
    <g id="xtick_1">
     <g id="line2d_1">
      <path clip-path="url(#pe06e715487)" d="M 92.290909 384.48 
L 92.290909 51.84 
" style="fill:none;stroke:#b0b0b0;stroke-dasharray:5.12,1.28,0.8,1.28;stroke-dashoffset:0;stroke-width:0.8;"/>
     </g>
     <g id="line2d_2">
      <defs>
       <path d="M 0 0 
L 0 3.5 
" id="m2b60bfcd58" style="stroke:#000000;stroke-width:0.8;"/>
      </defs>
      <g>
       <use style="stroke:#000000;stroke-width:0.8;" x="92.290909" xlink:href="#m2b60bfcd58" y="384.48"/>
      </g>
     </g>
     <g id="text_1">
      <!-- $0$ -->
      <defs>
       <path d="M 42 31.640625 
C 42 37.75 41.90625 48.125 37.703125 56.109375 
C 34 63.109375 28.09375 65.59375 22.90625 65.59375 
C 18.09375 65.59375 12 63.40625 8.203125 56.203125 
C 4.203125 48.71875 3.796875 39.4375 3.796875 31.640625 
C 3.796875 25.953125 3.90625 17.28125 7 9.671875 
C 11.296875 -0.609375 19 -2 22.90625 -2 
C 27.5 -2 34.5 -0.109375 38.59375 9.375 
C 41.59375 16.28125 42 24.359375 42 31.640625 
z
M 22.90625 -0.40625 
C 16.5 -0.40625 12.703125 5.078125 11.296875 12.6875 
C 10.203125 18.5625 10.203125 27.15625 10.203125 32.75 
C 10.203125 40.4375 10.203125 46.828125 11.5 52.921875 
C 13.40625 61.390625 19 64 22.90625 64 
C 27 64 32.296875 61.296875 34.203125 53.125 
C 35.5 47.4375 35.59375 40.734375 35.59375 32.75 
C 35.59375 26.25 35.59375 18.265625 34.40625 12.375 
C 32.296875 1.484375 26.40625 -0.40625 22.90625 -0.40625 
z
" id="CMR17-48"/>
      </defs>
      <g transform="translate(89.800241 398.398498)scale(0.1 -0.1)">
       <use transform="scale(0.996264)" xlink:href="#CMR17-48"/>
      </g>
     </g>
    </g>
    <g id="xtick_2">
     <g id="line2d_3">
      <path clip-path="url(#pe06e715487)" d="M 162.332017 384.48 
L 162.332017 51.84 
" style="fill:none;stroke:#b0b0b0;stroke-dasharray:5.12,1.28,0.8,1.28;stroke-dashoffset:0;stroke-width:0.8;"/>
     </g>
     <g id="line2d_4">
      <g>
       <use style="stroke:#000000;stroke-width:0.8;" x="162.332017" xlink:href="#m2b60bfcd58" y="384.48"/>
      </g>
     </g>
     <g id="text_2">
      <!-- $500$ -->
      <defs>
       <path d="M 11.40625 57.6875 
C 12.40625 57.28125 16.5 56 20.703125 56 
C 30 56 35.09375 61.109375 38 64.0625 
C 38 64.953125 38 65.5 37.40625 65.5 
C 37.296875 65.5 37.09375 65.5 36.296875 65.046875 
C 32.796875 63.40625 28.703125 62.078125 23.703125 62.078125 
C 20.703125 62.078125 16.203125 62.484375 11.296875 64.671875 
C 10.203125 65.171875 10 65.171875 9.90625 65.171875 
C 9.40625 65.171875 9.296875 65.0625 9.296875 63.078125 
L 9.296875 34.421875 
C 9.296875 32.640625 9.296875 32.140625 10.296875 32.140625 
C 10.796875 32.140625 11 32.34375 11.5 33.03125 
C 14.703125 37.515625 19.09375 39.40625 24.09375 39.40625 
C 27.59375 39.40625 35.09375 37.21875 35.09375 20.140625 
C 35.09375 16.953125 35.09375 11.171875 32.09375 6.578125 
C 29.59375 2.484375 25.703125 0.390625 21.40625 0.390625 
C 14.796875 0.390625 8.09375 5 6.296875 12.71875 
C 6.703125 12.609375 7.5 12.421875 7.90625 12.421875 
C 9.203125 12.421875 11.703125 13.125 11.703125 16.21875 
C 11.703125 18.90625 9.796875 20 7.90625 20 
C 5.59375 20 4.09375 18.59375 4.09375 15.796875 
C 4.09375 7.09375 11 -2 21.59375 -2 
C 31.90625 -2 41.703125 6.875 41.703125 19.75 
C 41.703125 31.71875 33.90625 41 24.203125 41 
C 19.09375 41 14.796875 39.109375 11.40625 35.53125 
z
" id="CMR17-53"/>
      </defs>
      <g transform="translate(154.860015 398.398498)scale(0.1 -0.1)">
       <use transform="scale(0.996264)" xlink:href="#CMR17-53"/>
       <use transform="translate(45.690477 0)scale(0.996264)" xlink:href="#CMR17-48"/>
       <use transform="translate(91.380954 0)scale(0.996264)" xlink:href="#CMR17-48"/>
      </g>
     </g>
    </g>
    <g id="xtick_3">
     <g id="line2d_5">
      <path clip-path="url(#pe06e715487)" d="M 232.373126 384.48 
L 232.373126 51.84 
" style="fill:none;stroke:#b0b0b0;stroke-dasharray:5.12,1.28,0.8,1.28;stroke-dashoffset:0;stroke-width:0.8;"/>
     </g>
     <g id="line2d_6">
      <g>
       <use style="stroke:#000000;stroke-width:0.8;" x="232.373126" xlink:href="#m2b60bfcd58" y="384.48"/>
      </g>
     </g>
     <g id="text_3">
      <!-- $1000$ -->
      <defs>
       <path d="M 26.59375 63.40625 
C 26.59375 65.5 26.5 65.5 25.09375 65.5 
C 21.203125 61.1875 15.296875 59.796875 9.703125 59.796875 
C 9.40625 59.796875 8.90625 59.796875 8.796875 59.5 
C 8.703125 59.296875 8.703125 59.09375 8.703125 57 
C 11.796875 57 17 57.59375 21 59.984375 
L 21 7.203125 
C 21 3.6875 20.796875 2.5 12.203125 2.5 
L 9.203125 2.5 
L 9.203125 0 
C 14 0 19 0 23.796875 0 
C 28.59375 0 33.59375 0 38.40625 0 
L 38.40625 2.5 
L 35.40625 2.5 
C 26.796875 2.5 26.59375 3.59375 26.59375 7.15625 
z
" id="CMR17-49"/>
      </defs>
      <g transform="translate(222.410455 398.398498)scale(0.1 -0.1)">
       <use transform="scale(0.996264)" xlink:href="#CMR17-49"/>
       <use transform="translate(45.690477 0)scale(0.996264)" xlink:href="#CMR17-48"/>
       <use transform="translate(91.380954 0)scale(0.996264)" xlink:href="#CMR17-48"/>
       <use transform="translate(137.071431 0)scale(0.996264)" xlink:href="#CMR17-48"/>
      </g>
     </g>
    </g>
    <g id="xtick_4">
     <g id="line2d_7">
      <path clip-path="url(#pe06e715487)" d="M 302.414234 384.48 
L 302.414234 51.84 
" style="fill:none;stroke:#b0b0b0;stroke-dasharray:5.12,1.28,0.8,1.28;stroke-dashoffset:0;stroke-width:0.8;"/>
     </g>
     <g id="line2d_8">
      <g>
       <use style="stroke:#000000;stroke-width:0.8;" x="302.414234" xlink:href="#m2b60bfcd58" y="384.48"/>
      </g>
     </g>
     <g id="text_4">
      <!-- $1500$ -->
      <g transform="translate(292.451564 398.398498)scale(0.1 -0.1)">
       <use transform="scale(0.996264)" xlink:href="#CMR17-49"/>
       <use transform="translate(45.690477 0)scale(0.996264)" xlink:href="#CMR17-53"/>
       <use transform="translate(91.380954 0)scale(0.996264)" xlink:href="#CMR17-48"/>
       <use transform="translate(137.071431 0)scale(0.996264)" xlink:href="#CMR17-48"/>
      </g>
     </g>
    </g>
    <g id="xtick_5">
     <g id="line2d_9">
      <path clip-path="url(#pe06e715487)" d="M 372.455343 384.48 
L 372.455343 51.84 
" style="fill:none;stroke:#b0b0b0;stroke-dasharray:5.12,1.28,0.8,1.28;stroke-dashoffset:0;stroke-width:0.8;"/>
     </g>
     <g id="line2d_10">
      <g>
       <use style="stroke:#000000;stroke-width:0.8;" x="372.455343" xlink:href="#m2b60bfcd58" y="384.48"/>
      </g>
     </g>
     <g id="text_5">
      <!-- $2000$ -->
      <defs>
       <path d="M 41.703125 15.453125 
L 39.90625 15.453125 
C 38.90625 8.375 38.09375 7.171875 37.703125 6.5625 
C 37.203125 5.765625 30 5.765625 28.59375 5.765625 
L 9.40625 5.765625 
C 13 9.671875 20 16.75 28.5 24.953125 
C 34.59375 30.734375 41.703125 37.53125 41.703125 47.421875 
C 41.703125 59.21875 32.296875 66 21.796875 66 
C 10.796875 66 4.09375 56.3125 4.09375 47.34375 
C 4.09375 43.4375 7 42.9375 8.203125 42.9375 
C 9.203125 42.9375 12.203125 43.546875 12.203125 47.03125 
C 12.203125 50.109375 9.59375 51 8.203125 51 
C 7.59375 51 7 50.90625 6.59375 50.703125 
C 8.5 59.21875 14.296875 63.40625 20.40625 63.40625 
C 29.09375 63.40625 34.796875 56.515625 34.796875 47.421875 
C 34.796875 38.734375 29.703125 31.25 24 24.75 
L 4.09375 2.28125 
L 4.09375 0 
L 39.296875 0 
z
" id="CMR17-50"/>
      </defs>
      <g transform="translate(362.492672 398.398498)scale(0.1 -0.1)">
       <use transform="scale(0.996264)" xlink:href="#CMR17-50"/>
       <use transform="translate(45.690477 0)scale(0.996264)" xlink:href="#CMR17-48"/>
       <use transform="translate(91.380954 0)scale(0.996264)" xlink:href="#CMR17-48"/>
       <use transform="translate(137.071431 0)scale(0.996264)" xlink:href="#CMR17-48"/>
      </g>
     </g>
    </g>
    <g id="xtick_6">
     <g id="line2d_11">
      <path clip-path="url(#pe06e715487)" d="M 442.496451 384.48 
L 442.496451 51.84 
" style="fill:none;stroke:#b0b0b0;stroke-dasharray:5.12,1.28,0.8,1.28;stroke-dashoffset:0;stroke-width:0.8;"/>
     </g>
     <g id="line2d_12">
      <g>
       <use style="stroke:#000000;stroke-width:0.8;" x="442.496451" xlink:href="#m2b60bfcd58" y="384.48"/>
      </g>
     </g>
     <g id="text_6">
      <!-- $2500$ -->
      <g transform="translate(432.53378 398.398498)scale(0.1 -0.1)">
       <use transform="scale(0.996264)" xlink:href="#CMR17-50"/>
       <use transform="translate(45.690477 0)scale(0.996264)" xlink:href="#CMR17-53"/>
       <use transform="translate(91.380954 0)scale(0.996264)" xlink:href="#CMR17-48"/>
       <use transform="translate(137.071431 0)scale(0.996264)" xlink:href="#CMR17-48"/>
      </g>
     </g>
    </g>
    <g id="xtick_7">
     <g id="line2d_13">
      <path clip-path="url(#pe06e715487)" d="M 512.537559 384.48 
L 512.537559 51.84 
" style="fill:none;stroke:#b0b0b0;stroke-dasharray:5.12,1.28,0.8,1.28;stroke-dashoffset:0;stroke-width:0.8;"/>
     </g>
     <g id="line2d_14">
      <g>
       <use style="stroke:#000000;stroke-width:0.8;" x="512.537559" xlink:href="#m2b60bfcd58" y="384.48"/>
      </g>
     </g>
     <g id="text_7">
      <!-- $3000$ -->
      <defs>
       <path d="M 22.09375 33.703125 
C 31 33.703125 34.90625 25.96875 34.90625 17.03125 
C 34.90625 5 28.5 0.390625 22.703125 0.390625 
C 17.40625 0.390625 8.796875 3.03125 6.09375 10.828125 
C 6.59375 10.625 7.09375 10.625 7.59375 10.625 
C 10 10.625 11.796875 12.21875 11.796875 14.8125 
C 11.796875 17.703125 9.59375 19 7.59375 19 
C 5.90625 19 3.296875 18.203125 3.296875 14.46875 
C 3.296875 5.234375 12.296875 -2 22.90625 -2 
C 34 -2 42.5 6.71875 42.5 16.953125 
C 42.5 26.671875 34.5 33.703125 25 34.796875 
C 32.59375 36.375 39.90625 43.0625 39.90625 52.015625 
C 39.90625 59.6875 32 65.296875 23 65.296875 
C 13.90625 65.296875 5.90625 59.828125 5.90625 52.015625 
C 5.90625 48.59375 8.5 48 9.796875 48 
C 11.90625 48 13.703125 49.296875 13.703125 51.890625 
C 13.703125 54.46875 11.90625 55.765625 9.796875 55.765625 
C 9.40625 55.765625 8.90625 55.765625 8.5 55.578125 
C 11.40625 61.859375 19.296875 63 22.796875 63 
C 26.296875 63 32.90625 61.328125 32.90625 51.875 
C 32.90625 49.109375 32.5 44.1875 29.09375 39.84375 
C 26.09375 36 22.703125 36 19.40625 35.6875 
C 18.90625 35.6875 16.59375 35.453125 16.203125 35.453125 
C 15.5 35.359375 15.09375 35.265625 15.09375 34.5 
C 15.09375 33.796875 15.203125 33.703125 17.203125 33.703125 
z
" id="CMR17-51"/>
      </defs>
      <g transform="translate(502.574889 398.398498)scale(0.1 -0.1)">
       <use transform="scale(0.996264)" xlink:href="#CMR17-51"/>
       <use transform="translate(45.690477 0)scale(0.996264)" xlink:href="#CMR17-48"/>
       <use transform="translate(91.380954 0)scale(0.996264)" xlink:href="#CMR17-48"/>
       <use transform="translate(137.071431 0)scale(0.996264)" xlink:href="#CMR17-48"/>
      </g>
     </g>
    </g>
    <g id="text_8">
     <!-- Iteration -->
     <defs>
      <path d="M 17.09375 69 
L 8.703125 69 
L 8.703125 0 
L 17.09375 0 
z
" id="CMSS17-73"/>
      <path d="M 16.703125 37 
L 29.703125 37 
L 29.703125 42.765625 
L 16.703125 42.765625 
L 16.703125 55 
L 9.59375 55 
L 9.59375 42.765625 
L 1.703125 42.765625 
L 1.703125 37 
L 9.40625 37 
L 9.40625 11.703125 
C 9.40625 6 10.703125 -1 17.296875 -1 
C 22.296875 -1 26.90625 0.390625 31.296875 2.6875 
L 29.703125 8.5625 
C 27.296875 6.46875 24.40625 5.265625 21.296875 5.265625 
C 16.90625 5.265625 16.703125 10.875 16.703125 13.375 
z
" id="CMSS17-116"/>
      <path d="M 39.09375 21.515625 
C 39.09375 24.84375 38.90625 31.296875 35.703125 36.640625 
C 32.203125 42.390625 26.5 44 22.203125 44 
C 11.796875 44 3 34.1875 3 21.484375 
C 3 9.09375 12.09375 -1 23.59375 -1 
C 28.09375 -1 33.59375 0.296875 38.59375 3.875 
C 38.59375 4.28125 38.40625 6.46875 38.296875 6.5625 
C 38.296875 6.765625 38 9.84375 38 10.25 
C 33.203125 6.359375 27.703125 5.078125 23.703125 5.078125 
C 17.296875 5.078125 10.40625 10.421875 10.09375 21.515625 
z
M 10.90625 27 
C 12.203125 32.5625 16.59375 37.828125 22.203125 37.828125 
C 23.703125 37.828125 30.703125 37.828125 32.5 27 
z
" id="CMSS17-101"/>
      <path d="M 14.90625 21.296875 
C 14.90625 30.703125 21.796875 37 30.59375 37 
L 30.59375 43.578125 
C 24.203125 43.578125 18.203125 40.390625 14.59375 35.203125 
L 14.59375 43.09375 
L 7.5 43.09375 
L 7.5 0 
L 14.90625 0 
z
" id="CMSS17-114"/>
      <path d="M 37.59375 27.984375 
C 37.59375 37.375 30.90625 43.875 21.90625 43.875 
C 17.5 43.875 12.703125 43.078125 7.203125 39.890625 
L 7.796875 33.359375 
C 10.296875 35.125 14.59375 38 21.796875 38 
C 26.90625 38 30 34.0625 30 27.84375 
L 30 24 
C 14 24 4 19.34375 4 11.34375 
C 4 7.203125 6.5 -1 14.796875 -1 
C 16.296875 -1 24.40625 -1 30.203125 3.390625 
L 30.203125 -0.296875 
L 37.59375 -0.296875 
z
M 30 12.75 
C 30 10.953125 30 8.5625 27 6.78125 
C 24.40625 5.078125 21.09375 5.078125 19.703125 5.078125 
C 14.703125 5.078125 11.296875 7.984375 11.296875 11.625 
C 11.296875 18.921875 26.90625 18.921875 30 18.921875 
z
" id="CMSS17-97"/>
      <path d="M 15.296875 65.359375 
L 6.90625 65.359375 
L 6.90625 57 
L 15.296875 57 
z
M 14.796875 42.796875 
L 7.40625 42.796875 
L 7.40625 0 
L 14.796875 0 
z
" id="CMSS17-105"/>
      <path d="M 44.203125 21.1875 
C 44.203125 34 34.703125 44 23.5 44 
C 12 44 2.703125 33.703125 2.703125 21.1875 
C 2.703125 8.5 12.296875 -1 23.40625 -1 
C 34.796875 -1 44.203125 8.796875 44.203125 21.1875 
z
M 23.5 5.265625 
C 16.40625 5.265625 10.296875 11.078125 10.296875 22 
C 10.296875 33.609375 17.40625 37.921875 23.40625 37.921875 
C 29.90625 37.921875 36.59375 33.21875 36.59375 22 
C 36.59375 10.671875 30.09375 5.265625 23.5 5.265625 
z
" id="CMSS17-111"/>
      <path d="M 40.90625 29.328125 
C 40.90625 35.671875 39.40625 44 28.09375 44 
C 21.703125 44 17.5 40.71875 14.703125 37.328125 
L 14.703125 43.09375 
L 7.40625 43.09375 
L 7.40625 0 
L 15 0 
L 15 24.359375 
C 15 30.6875 17.40625 37.9375 24.203125 37.9375 
C 33 37.9375 33.296875 32 33.296875 28.578125 
L 33.296875 0 
L 40.90625 0 
z
" id="CMSS17-110"/>
     </defs>
     <g transform="translate(271.264003 414.021553)scale(0.14 -0.14)">
      <use transform="scale(0.996264)" xlink:href="#CMSS17-73"/>
      <use transform="translate(25.783926 0)scale(0.996264)" xlink:href="#CMSS17-116"/>
      <use transform="translate(59.615492 0)scale(0.996264)" xlink:href="#CMSS17-101"/>
      <use transform="translate(101.254314 0)scale(0.996264)" xlink:href="#CMSS17-114"/>
      <use transform="translate(133.164087 0)scale(0.996264)" xlink:href="#CMSS17-97"/>
      <use transform="translate(178.086007 0)scale(0.996264)" xlink:href="#CMSS17-116"/>
      <use transform="translate(211.917574 0)scale(0.996264)" xlink:href="#CMSS17-105"/>
      <use transform="translate(234.098297 0)scale(0.996264)" xlink:href="#CMSS17-111"/>
      <use transform="translate(280.941921 0)scale(0.996264)" xlink:href="#CMSS17-110"/>
     </g>
    </g>
   </g>
   <g id="matplotlib.axis_2">
    <g id="ytick_1">
     <g id="line2d_15">
      <path clip-path="url(#pe06e715487)" d="M 72 339.12 
L 518.4 339.12 
" style="fill:none;stroke:#b0b0b0;stroke-dasharray:5.12,1.28,0.8,1.28;stroke-dashoffset:0;stroke-width:0.8;"/>
     </g>
     <g id="line2d_16">
      <defs>
       <path d="M 0 0 
L -3.5 0 
" id="ma39d1cd776" style="stroke:#000000;stroke-width:0.8;"/>
      </defs>
      <g>
       <use style="stroke:#000000;stroke-width:0.8;" x="72" xlink:href="#ma39d1cd776" y="339.12"/>
      </g>
     </g>
     <g id="text_9">
      <!-- $330$ -->
      <g transform="translate(50.055994 342.579249)scale(0.1 -0.1)">
       <use transform="scale(0.996264)" xlink:href="#CMR17-51"/>
       <use transform="translate(45.690477 0)scale(0.996264)" xlink:href="#CMR17-51"/>
       <use transform="translate(91.380954 0)scale(0.996264)" xlink:href="#CMR17-48"/>
      </g>
     </g>
    </g>
    <g id="ytick_2">
     <g id="line2d_17">
      <path clip-path="url(#pe06e715487)" d="M 72 278.64 
L 518.4 278.64 
" style="fill:none;stroke:#b0b0b0;stroke-dasharray:5.12,1.28,0.8,1.28;stroke-dashoffset:0;stroke-width:0.8;"/>
     </g>
     <g id="line2d_18">
      <g>
       <use style="stroke:#000000;stroke-width:0.8;" x="72" xlink:href="#ma39d1cd776" y="278.64"/>
      </g>
     </g>
     <g id="text_10">
      <!-- $340$ -->
      <defs>
       <path d="M 33.59375 64.40625 
C 33.59375 66.5 33.5 66.5 31.703125 66.5 
L 2 19.59375 
L 2 17 
L 27.796875 17 
L 27.796875 7.140625 
C 27.796875 3.5 27.59375 2.5 20.59375 2.5 
L 18.703125 2.5 
L 18.703125 0 
C 21.90625 0 27.296875 0 30.703125 0 
C 34.09375 0 39.5 0 42.703125 0 
L 42.703125 2.5 
L 40.796875 2.5 
C 33.796875 2.5 33.59375 3.5 33.59375 7.140625 
L 33.59375 17 
L 43.796875 17 
L 43.796875 19.59375 
L 33.59375 19.59375 
z
M 28.09375 57.859375 
L 28.09375 19.59375 
L 4 19.59375 
z
" id="CMR17-52"/>
      </defs>
      <g transform="translate(50.055994 282.099249)scale(0.1 -0.1)">
       <use transform="scale(0.996264)" xlink:href="#CMR17-51"/>
       <use transform="translate(45.690477 0)scale(0.996264)" xlink:href="#CMR17-52"/>
       <use transform="translate(91.380954 0)scale(0.996264)" xlink:href="#CMR17-48"/>
      </g>
     </g>
    </g>
    <g id="ytick_3">
     <g id="line2d_19">
      <path clip-path="url(#pe06e715487)" d="M 72 218.16 
L 518.4 218.16 
" style="fill:none;stroke:#b0b0b0;stroke-dasharray:5.12,1.28,0.8,1.28;stroke-dashoffset:0;stroke-width:0.8;"/>
     </g>
     <g id="line2d_20">
      <g>
       <use style="stroke:#000000;stroke-width:0.8;" x="72" xlink:href="#ma39d1cd776" y="218.16"/>
      </g>
     </g>
     <g id="text_11">
      <!-- $350$ -->
      <g transform="translate(50.055994 221.619249)scale(0.1 -0.1)">
       <use transform="scale(0.996264)" xlink:href="#CMR17-51"/>
       <use transform="translate(45.690477 0)scale(0.996264)" xlink:href="#CMR17-53"/>
       <use transform="translate(91.380954 0)scale(0.996264)" xlink:href="#CMR17-48"/>
      </g>
     </g>
    </g>
    <g id="ytick_4">
     <g id="line2d_21">
      <path clip-path="url(#pe06e715487)" d="M 72 157.68 
L 518.4 157.68 
" style="fill:none;stroke:#b0b0b0;stroke-dasharray:5.12,1.28,0.8,1.28;stroke-dashoffset:0;stroke-width:0.8;"/>
     </g>
     <g id="line2d_22">
      <g>
       <use style="stroke:#000000;stroke-width:0.8;" x="72" xlink:href="#ma39d1cd776" y="157.68"/>
      </g>
     </g>
     <g id="text_12">
      <!-- $360$ -->
      <defs>
       <path d="M 10.59375 34 
C 10.59375 57.65625 21.796875 63 28.296875 63 
C 30.40625 63 35.5 62.640625 37.5 59 
C 35.90625 59 32.90625 59 32.90625 55.515625 
C 32.90625 52.828125 35.09375 51.921875 36.5 51.921875 
C 37.40625 51.921875 40.09375 52.3125 40.09375 55.625 
C 40.09375 61.78125 35.09375 65.296875 28.203125 65.296875 
C 16.296875 65.296875 3.796875 52.96875 3.796875 31 
C 3.796875 3.953125 15.09375 -2 23.09375 -2 
C 32.796875 -2 42 6.671875 42 20.046875 
C 42 32.515625 33.90625 41.59375 23.703125 41.59375 
C 17.59375 41.59375 13.09375 37.609375 10.59375 30.625 
z
M 23.09375 0.390625 
C 10.796875 0.390625 10.796875 18.75 10.796875 22.4375 
C 10.796875 29.625 14.203125 40 23.5 40 
C 25.203125 40 30.09375 40 33.40625 33.125 
C 35.203125 29.21875 35.203125 25.140625 35.203125 20.140625 
C 35.203125 14.75 35.203125 10.78125 33.09375 6.78125 
C 30.90625 2.671875 27.703125 0.390625 23.09375 0.390625 
z
" id="CMR17-54"/>
      </defs>
      <g transform="translate(50.055994 161.139249)scale(0.1 -0.1)">
       <use transform="scale(0.996264)" xlink:href="#CMR17-51"/>
       <use transform="translate(45.690477 0)scale(0.996264)" xlink:href="#CMR17-54"/>
       <use transform="translate(91.380954 0)scale(0.996264)" xlink:href="#CMR17-48"/>
      </g>
     </g>
    </g>
    <g id="ytick_5">
     <g id="line2d_23">
      <path clip-path="url(#pe06e715487)" d="M 72 97.2 
L 518.4 97.2 
" style="fill:none;stroke:#b0b0b0;stroke-dasharray:5.12,1.28,0.8,1.28;stroke-dashoffset:0;stroke-width:0.8;"/>
     </g>
     <g id="line2d_24">
      <g>
       <use style="stroke:#000000;stroke-width:0.8;" x="72" xlink:href="#ma39d1cd776" y="97.2"/>
      </g>
     </g>
     <g id="text_13">
      <!-- $370$ -->
      <defs>
       <path d="M 45.09375 61.578125 
L 45.09375 63.765625 
L 21.59375 63.765625 
C 9.90625 63.765625 9.703125 65.078125 9.296875 67 
L 7.5 67 
L 4.59375 48.34375 
L 6.40625 48.34375 
C 6.703125 50.234375 7.40625 55.3125 8.59375 57.203125 
C 9.203125 58 16.59375 58 18.296875 58 
L 40.296875 58 
L 29.203125 41.578125 
C 21.796875 30.53125 16.703125 15.609375 16.703125 2.578125 
C 16.703125 1.390625 16.703125 -2 20.296875 -2 
C 23.90625 -2 23.90625 1.390625 23.90625 2.671875 
L 23.90625 7.265625 
C 23.90625 23.5625 26.703125 34.3125 31.296875 41.1875 
z
" id="CMR17-55"/>
      </defs>
      <g transform="translate(50.055994 100.659249)scale(0.1 -0.1)">
       <use transform="scale(0.996264)" xlink:href="#CMR17-51"/>
       <use transform="translate(45.690477 0)scale(0.996264)" xlink:href="#CMR17-55"/>
       <use transform="translate(91.380954 0)scale(0.996264)" xlink:href="#CMR17-48"/>
      </g>
     </g>
    </g>
    <g id="text_14">
     <!-- $u_{m}$ -->
     <defs>
      <path d="M 34.09375 5.78125 
C 35.40625 0.203125 40.203125 -1 42.59375 -1 
C 45.796875 -1 48.203125 1.09375 49.796875 4.484375 
C 51.5 8.078125 52.796875 13.96875 52.796875 14.265625 
C 52.796875 14.765625 52.40625 15.171875 51.796875 15.171875 
C 50.90625 15.171875 50.796875 14.671875 50.40625 13.171875 
C 48.59375 6.28125 46.796875 1 42.796875 1 
C 39.796875 1 39.796875 4.296875 39.796875 5.59375 
C 39.796875 7.890625 40.09375 8.875 41.09375 13.078125 
C 41.796875 15.765625 42.5 18.453125 43.09375 21.25 
L 47.203125 37.515625 
C 47.90625 40.015625 47.90625 40.21875 47.90625 40.515625 
C 47.90625 42.015625 46.703125 43.015625 45.203125 43.015625 
C 42.296875 43.015625 41.59375 40.515625 41 38.015625 
C 40 34.125 34.59375 12.671875 33.90625 9.1875 
C 33.796875 9.1875 29.90625 1 22.59375 1 
C 17.40625 1 16.40625 5.484375 16.40625 9.1875 
C 16.40625 14.875 19.203125 22.84375 21.796875 29.53125 
C 23 32.734375 23.5 34.03125 23.5 36.015625 
C 23.5 40.3125 20.40625 44 15.59375 44 
C 6.40625 44 2.703125 29.53125 2.703125 28.734375 
C 2.703125 28.34375 3.09375 27.84375 3.796875 27.84375 
C 4.703125 27.84375 4.796875 28.234375 5.203125 29.625 
C 7.59375 38.140625 11.5 41.90625 15.296875 41.90625 
C 16.296875 41.90625 17.90625 41.90625 17.90625 38.71875 
C 17.90625 36.125 16.796875 33.234375 15.296875 29.4375 
C 10.90625 17.5625 10.40625 13.765625 10.40625 10.78125 
C 10.40625 0.59375 18.09375 -1 22.203125 -1 
C 28.59375 -1 32.09375 3.390625 34.09375 5.78125 
z
" id="CMMI12-117"/>
      <path d="M 20.59375 29.234375 
C 20.796875 29.84375 23.296875 34.828125 27 38.015625 
C 29.59375 40.40625 33 42.015625 36.90625 42.015625 
C 40.90625 42.015625 42.296875 39.015625 42.296875 35.03125 
C 42.296875 34.421875 42.296875 32.4375 41.09375 27.734375 
L 38.59375 17.46875 
C 37.796875 14.46875 35.90625 7.078125 35.703125 5.984375 
C 35.296875 4.484375 34.703125 1.890625 34.703125 1.5 
C 34.703125 0.09375 35.796875 -1 37.296875 -1 
C 40.296875 -1 40.796875 1.296875 41.703125 4.890625 
L 47.703125 28.734375 
C 47.90625 29.53125 53.09375 42.015625 64.09375 42.015625 
C 68.09375 42.015625 69.5 39.015625 69.5 35.03125 
C 69.5 29.4375 65.59375 18.5625 63.40625 12.578125 
C 62.5 10.171875 62 8.875 62 7.078125 
C 62 2.59375 65.09375 -1 69.90625 -1 
C 79.203125 -1 82.703125 13.671875 82.703125 14.265625 
C 82.703125 14.765625 82.296875 15.171875 81.703125 15.171875 
C 80.796875 15.171875 80.703125 14.875 80.203125 13.171875 
C 77.90625 5.1875 74.203125 1 70.203125 1 
C 69.203125 1 67.59375 1 67.59375 4.203125 
C 67.59375 6.8125 68.796875 10 69.203125 11.09375 
C 71 15.90625 75.5 27.703125 75.5 33.515625 
C 75.5 39.5 72 44 64.40625 44 
C 57.703125 44 52.296875 40.21875 48.296875 34.328125 
C 48 39.71875 44.703125 44 37.203125 44 
C 28.296875 44 23.59375 37.734375 21.796875 35.234375 
C 21.5 40.90625 17.40625 44 13 44 
C 10.09375 44 7.796875 42.609375 5.90625 38.8125 
C 4.09375 35.21875 2.703125 29.140625 2.703125 28.734375 
C 2.703125 28.34375 3.09375 27.84375 3.796875 27.84375 
C 4.59375 27.84375 4.703125 27.9375 5.296875 30.234375 
C 6.796875 36.125 8.703125 42.015625 12.703125 42.015625 
C 15 42.015625 15.796875 40.40625 15.796875 37.421875 
C 15.796875 35.21875 14.796875 31.328125 14.09375 28.234375 
L 11.296875 17.46875 
C 10.90625 15.5625 9.796875 11.078125 9.296875 9.28125 
C 8.59375 6.6875 7.5 2 7.5 1.5 
C 7.5 0.09375 8.59375 -1 10.09375 -1 
C 11.296875 -1 12.703125 -0.40625 13.5 1.09375 
C 13.703125 1.59375 14.59375 5.09375 15.09375 7.078125 
L 17.296875 16.0625 
z
" id="CMMI12-109"/>
     </defs>
     <g transform="translate(43.343966 226.466642)rotate(-90)scale(0.14 -0.14)">
      <use transform="translate(0 14.943915)scale(0.996264)" xlink:href="#CMMI12-117"/>
      <use transform="translate(55.52033 0)scale(0.697382)" xlink:href="#CMMI12-109"/>
     </g>
    </g>
   </g>
   <g id="line2d_25">
    <path clip-path="url(#pe06e715487)" d="M 92.290909 218.16 
L 92.571074 218.26705 
L 92.851238 218.821651 
L 94.952471 225.073469 
L 96.353293 231.469834 
L 101.956582 259.394659 
L 115.964804 330.239722 
L 118.486284 342.607882 
L 118.90653 343.302192 
L 119.326777 343.56407 
L 119.466859 343.607616 
L 120.307352 343.26288 
L 122.548668 342.791136 
L 125.630477 342.371405 
L 129.552779 342.073238 
L 134.875903 341.883936 
L 138.237876 341.686166 
L 140.199027 341.701891 
L 144.401494 341.859744 
L 148.884125 341.70552 
L 153.086591 341.85672 
L 157.569222 341.710358 
L 161.631606 341.85793 
L 166.25432 341.718826 
L 170.176622 341.856115 
L 174.939417 341.730317 
L 178.581555 341.859139 
L 183.484432 341.73576 
L 186.846405 341.863978 
L 192.449694 341.775072 
L 195.251338 341.862163 
L 200.574463 341.758138 
L 203.516189 341.862163 
L 209.399642 341.793821 
L 211.921122 341.85672 
L 219.34548 341.498074 
L 221.446713 341.043264 
L 223.547946 340.352582 
L 225.649179 339.426029 
L 227.750413 338.263603 
L 229.991728 336.763699 
L 232.233044 334.996474 
L 234.614441 332.827056 
L 237.135921 330.203434 
L 239.657401 327.245357 
L 242.318963 323.762918 
L 244.980525 319.913971 
L 247.78217 315.469901 
L 250.723896 310.375066 
L 253.805705 304.57201 
L 256.04702 299.935008 
L 257.167678 297.015638 
L 258.428418 293.105606 
L 259.82924 287.983555 
L 261.370145 281.423894 
L 263.051131 273.198614 
L 264.8722 263.079101 
L 266.413104 253.497254 
L 266.973433 247.852656 
L 267.954009 235.041782 
L 269.214749 215.556941 
L 271.736229 175.095216 
L 275.238284 123.672096 
L 278.180011 76.81703 
L 278.880422 66.96 
L 287.145273 67.037414 
L 287.425437 67.529117 
L 287.985766 69.119741 
L 288.966341 72.033062 
L 289.386588 72.809626 
L 289.806835 73.13017 
L 290.086999 73.063642 
L 290.367164 72.768499 
L 290.78741 71.915126 
L 291.347739 70.117056 
L 292.188232 66.96 
L 298.632014 66.96 
L 298.912179 67.793414 
L 299.472508 70.732742 
L 300.172919 74.253283 
L 300.593165 75.304426 
L 300.733248 75.398774 
L 300.87333 75.354019 
L 301.153494 74.833286 
L 301.433659 73.74767 
L 301.853905 71.174246 
L 302.414234 66.96 
L 307.317112 66.96 
L 307.457194 67.098499 
L 307.877441 68.38007 
L 308.998098 72.530208 
L 309.278263 73.012234 
L 309.558427 73.112026 
L 309.838592 72.796925 
L 310.118756 72.067536 
L 310.539003 70.268256 
L 311.239414 66.96 
L 316.142291 66.96 
L 316.422456 67.426301 
L 317.122867 69.437261 
L 317.683196 70.868218 
L 318.103442 71.399837 
L 318.383607 71.404675 
L 318.663771 71.105904 
L 319.084018 70.10617 
L 319.644347 67.937962 
L 319.924511 66.96 
L 324.967471 66.96 
L 325.247635 67.258166 
L 325.948047 68.615338 
L 326.508375 69.595114 
L 326.928622 69.96767 
L 327.208787 69.980371 
L 327.488951 69.788045 
L 327.909198 69.12337 
L 328.469526 67.665802 
L 328.749691 66.96 
L 333.932733 67.05072 
L 334.493062 67.74745 
L 334.633144 67.954896 
L 337.154624 67.715395 
L 337.574871 66.96 
L 342.757913 67.038019 
L 343.318241 67.549075 
L 344.158735 68.33471 
L 344.578981 68.506474 
L 344.999228 68.45567 
L 345.419475 68.168995 
L 345.979804 67.472266 
L 346.40005 66.96 
L 351.583092 67.02048 
L 352.283503 67.498877 
L 353.123997 68.009328 
L 353.684325 68.06497 
L 354.244654 67.82184 
L 354.945065 67.161398 
L 355.22523 66.96 
L 360.548354 67.057373 
L 362.229341 67.758336 
L 362.78967 67.691203 
L 363.349998 67.41481 
L 364.190492 66.96 
L 369.373534 67.027738 
L 371.194603 67.53456 
L 371.895014 67.403318 
L 373.295836 66.96 
L 378.338796 67.038019 
L 380.019782 67.370659 
L 380.860276 67.241837 
L 382.121015 66.96 
L 387.44414 67.06584 
L 388.844962 67.253328 
L 389.825537 67.133578 
L 390.946195 66.96 
L 396.409402 67.053139 
L 397.950306 67.162608 
L 399.070964 67.007174 
L 399.771375 66.96 
L 405.654828 67.065235 
L 407.195732 67.08096 
L 409.717212 66.96 
L 497.969009 66.96 
L 497.969009 66.96 
" style="fill:none;stroke:#bf00bf;stroke-linecap:square;stroke-width:1.5;"/>
   </g>
   <g id="line2d_26">
    <path clip-path="url(#pe06e715487)" d="M 92.290909 218.16 
L 92.430991 218.16 
L 92.851238 219.764534 
L 93.551649 222.308323 
L 94.25206 223.953984 
L 94.532225 224.43601 
L 94.812389 225.924422 
L 95.5128 229.224816 
L 98.734691 245.201818 
L 110.781762 305.891078 
L 118.346201 343.71648 
L 137.257301 343.611245 
L 139.778781 343.536854 
L 145.942398 343.612454 
L 148.60396 343.544717 
L 154.067167 343.646928 
L 157.289058 343.548346 
L 162.612182 343.649347 
L 165.974155 343.553789 
L 170.877033 343.665677 
L 174.51917 343.556208 
L 179.422048 343.662048 
L 182.924103 343.555603 
L 188.247228 343.638461 
L 191.329036 343.556813 
L 196.652161 343.637856 
L 199.733969 343.559232 
L 204.776929 343.649347 
L 208.138902 343.56407 
L 213.04178 343.650557 
L 216.403753 343.56528 
L 218.504986 343.472746 
L 220.60622 343.147968 
L 222.707453 342.587923 
L 224.808686 341.791402 
L 226.909919 340.759613 
L 229.151235 339.398813 
L 231.39255 337.770691 
L 233.773948 335.748845 
L 236.295428 333.280656 
L 238.816908 330.477408 
L 241.47847 327.157661 
L 244.140032 323.470195 
L 246.941676 319.194259 
L 249.883403 314.274211 
L 252.825129 308.918102 
L 255.626774 303.384787 
L 256.887514 300.318451 
L 258.148254 296.591069 
L 259.549076 291.662554 
L 260.949898 285.923002 
L 262.490802 278.70169 
L 264.171789 269.777866 
L 265.992858 258.930778 
L 267.39368 249.402758 
L 268.374255 240.956122 
L 269.494913 229.307674 
L 270.755653 213.597994 
L 273.137051 180.308592 
L 275.798613 139.988995 
L 278.74034 92.040451 
L 279.720915 77.319014 
L 280.421326 69.761434 
L 280.841573 66.96 
L 283.503135 67.00536 
L 283.923382 67.726282 
L 284.48371 69.278198 
L 285.184122 72.01008 
L 286.304779 77.443603 
L 288.826259 89.911555 
L 289.52667 92.387002 
L 289.946917 93.241584 
L 290.227081 93.494995 
L 290.507246 93.478666 
L 290.78741 93.19199 
L 291.207657 92.276323 
L 291.767986 90.269597 
L 293.729137 82.073952 
L 294.429548 80.318218 
L 294.989877 79.415856 
L 295.550206 78.943507 
L 295.970452 78.851578 
L 296.390699 78.96528 
L 296.951028 79.397712 
L 297.651439 80.306726 
L 298.632014 82.058832 
L 299.472508 84.089146 
L 300.453083 86.623258 
L 300.733248 86.975856 
L 301.013412 87.024845 
L 301.293576 86.717002 
L 301.573741 86.023901 
L 301.993988 84.263933 
L 302.554316 80.782704 
L 303.39481 75.583843 
L 304.095221 72.61367 
L 304.65555 71.171827 
L 305.075796 70.623274 
L 305.355961 70.491427 
L 305.636125 70.528925 
L 306.056372 70.859146 
L 306.616701 71.694374 
L 307.737358 73.998662 
L 309.558427 77.843981 
L 309.838592 77.909904 
L 310.118756 77.704272 
L 310.398921 77.21257 
L 310.819167 75.9564 
L 311.519578 72.830189 
L 312.219989 70.131571 
L 312.9204 68.29177 
L 313.480729 67.4892 
L 313.900976 67.264214 
L 314.321223 67.330138 
L 314.741469 67.645238 
L 315.301798 68.360112 
L 316.422456 70.281562 
L 318.383607 73.615824 
L 318.663771 73.670861 
L 318.943936 73.523894 
L 319.364182 72.913046 
L 319.924511 71.445802 
L 320.905087 68.57784 
L 321.605498 67.253933 
L 321.885662 66.96 
L 323.286484 67.02169 
L 323.846813 67.44263 
L 324.687307 68.390957 
L 327.208787 71.489347 
L 327.629033 71.525635 
L 328.04928 71.247427 
L 328.469526 70.661981 
L 330.290595 67.47287 
L 330.850924 67.018666 
L 331.271171 66.96 
L 332.111664 67.062211 
L 332.812075 67.498877 
L 334.072815 68.644368 
L 334.633144 69.210461 
L 337.294706 69.824333 
L 339.115775 67.613184 
L 339.816186 67.264214 
L 340.376515 67.209178 
L 341.076926 67.382755 
L 341.917419 67.844822 
L 343.87857 69.284851 
L 344.719064 69.783811 
L 345.279392 69.844896 
L 345.839721 69.618701 
L 346.40005 69.130022 
L 347.380626 68.189558 
L 348.221119 67.709952 
L 348.92153 67.562381 
L 349.621941 67.62528 
L 350.602517 67.977274 
L 352.70375 69.096758 
L 353.544243 69.457824 
L 354.104572 69.500765 
L 354.664901 69.336864 
L 355.365312 68.874192 
L 356.205805 68.312938 
L 357.046299 67.97304 
L 357.886792 67.869014 
L 358.867367 68.008118 
L 360.26819 68.483491 
L 362.649587 69.278803 
L 363.349998 69.201994 
L 364.190492 68.827018 
L 365.171067 68.372208 
L 366.151643 68.137546 
L 367.132218 68.128474 
L 368.392958 68.361926 
L 371.754931 69.118531 
L 372.595425 68.95463 
L 374.696658 68.332896 
L 375.817316 68.285117 
L 377.218138 68.459299 
L 380.720193 68.994547 
L 381.700769 68.814922 
L 383.241673 68.471395 
L 384.642495 68.402448 
L 386.323482 68.56151 
L 389.545373 68.908666 
L 390.806113 68.724202 
L 392.347017 68.510707 
L 394.028004 68.504659 
L 399.49121 68.734483 
L 401.452361 68.54639 
L 403.413512 68.579654 
L 407.896143 68.757466 
L 411.258117 68.575421 
L 419.242803 68.602637 
L 422.464694 68.666141 
L 426.106832 68.684285 
L 429.328723 68.620176 
L 443.05678 68.687309 
L 450.200973 68.674003 
L 456.504673 68.644973 
L 470.652976 68.656464 
L 483.960787 68.65223 
L 498.109091 68.651021 
L 498.109091 68.651021 
" style="fill:none;stroke:#00bfbf;stroke-linecap:square;stroke-width:1.5;"/>
   </g>
   <g id="line2d_27">
    <path clip-path="url(#pe06e715487)" d="M 92.290909 218.16 
L 92.711156 229.064544 
L 93.271485 238.155293 
L 93.971896 246.028579 
L 94.672307 251.567942 
L 95.372718 254.868336 
L 98.594609 270.845338 
L 110.641679 331.533994 
L 118.206119 369.36 
L 137.117218 369.25416 
L 139.778781 369.184608 
L 145.522151 369.274723 
L 148.463878 369.188237 
L 154.067167 369.281376 
L 157.008893 369.187632 
L 162.892346 369.265651 
L 165.834073 369.197309 
L 170.73695 369.309197 
L 174.379088 369.199728 
L 179.422048 369.297101 
L 182.784021 369.199123 
L 188.107145 369.281981 
L 191.188954 369.199728 
L 196.231914 369.297101 
L 199.733969 369.208195 
L 204.636847 369.292867 
L 207.99882 369.20759 
L 212.901698 369.294077 
L 216.263671 369.208195 
L 218.364904 369.116266 
L 220.466137 368.791488 
L 222.567371 368.230838 
L 224.668604 367.434922 
L 226.769837 366.402528 
L 228.87107 365.134867 
L 231.112386 363.52368 
L 233.353701 361.645776 
L 235.735099 359.358422 
L 238.256579 356.611421 
L 240.778059 353.53057 
L 243.439621 349.920518 
L 246.241265 345.725021 
L 249.04291 341.128541 
L 251.984636 335.875853 
L 255.066445 329.91071 
L 256.187103 327.403814 
L 257.447843 323.974598 
L 258.708583 319.872845 
L 260.109405 314.53609 
L 261.650309 307.743581 
L 263.331296 299.269123 
L 265.152365 288.887731 
L 266.973433 277.166707 
L 267.954009 269.177299 
L 269.074667 258.066518 
L 270.195324 244.773619 
L 272.156475 218.019082 
L 274.818037 178.697405 
L 277.759764 131.720774 
L 279.580833 102.962534 
L 280.281244 95.404954 
L 280.841573 91.252397 
L 281.121737 90.527242 
L 281.401902 90.307699 
L 281.682066 90.467366 
L 282.382477 91.343722 
L 283.783299 93.369802 
L 284.343628 94.921718 
L 285.044039 97.6536 
L 286.164697 103.086518 
L 288.686177 115.555075 
L 289.386588 118.030522 
L 289.806835 118.885104 
L 290.086999 119.13791 
L 290.367164 119.122186 
L 290.647328 118.83551 
L 291.067575 117.919843 
L 291.627903 115.913117 
L 293.589055 107.717472 
L 294.289466 105.961738 
L 294.849794 105.059376 
L 295.410123 104.586422 
L 295.83037 104.495098 
L 296.250617 104.6088 
L 296.810945 105.041232 
L 297.511357 105.950246 
L 298.491932 107.702352 
L 299.332425 109.732666 
L 300.313001 112.266778 
L 300.593165 112.619376 
L 300.87333 112.668365 
L 301.153494 112.360522 
L 301.433659 111.667421 
L 301.853905 109.907453 
L 302.414234 106.426224 
L 303.254727 101.227363 
L 303.955139 98.256586 
L 304.515467 96.815347 
L 304.935714 96.266794 
L 305.215878 96.134947 
L 305.496043 96.172445 
L 305.91629 96.502666 
L 306.476618 97.337894 
L 307.597276 99.641578 
L 309.418345 103.487501 
L 309.698509 103.553424 
L 309.978674 103.347792 
L 310.258838 102.85609 
L 310.679085 101.59992 
L 311.379496 98.473709 
L 312.079907 95.775091 
L 312.780318 93.93529 
L 313.340647 93.13272 
L 313.760894 92.90713 
L 314.18114 92.973658 
L 314.601387 93.288154 
L 315.161716 94.003632 
L 316.282374 95.925082 
L 318.243525 99.258739 
L 318.523689 99.314381 
L 318.803854 99.167414 
L 319.2241 98.556566 
L 319.784429 97.089322 
L 320.765005 94.22136 
L 321.465416 92.897453 
L 321.885662 92.439619 
L 322.305909 92.363414 
L 322.866238 92.539411 
L 323.566649 92.962166 
L 324.26706 93.690346 
L 325.807964 95.714611 
L 326.648458 96.822605 
L 327.068704 97.132262 
L 327.488951 97.169155 
L 327.909198 96.890947 
L 328.329444 96.305501 
L 330.150513 93.11639 
L 330.710842 92.662186 
L 331.131089 92.531549 
L 331.8315 92.64888 
L 332.531911 93.036557 
L 333.652568 94.022381 
L 334.493062 94.853981 
L 337.154624 95.467853 
L 338.975693 93.256704 
L 339.676104 92.907734 
L 340.236433 92.852698 
L 340.936844 93.026275 
L 341.777337 93.488342 
L 343.738488 94.928371 
L 344.578981 95.427331 
L 345.13931 95.487811 
L 345.699639 95.262221 
L 346.259968 94.773542 
L 347.240544 93.832474 
L 348.081037 93.353472 
L 348.781448 93.205901 
L 349.481859 93.2688 
L 350.462434 93.620189 
L 352.563668 94.740278 
L 353.404161 95.101344 
L 353.96449 95.144285 
L 354.524819 94.980384 
L 355.22523 94.517712 
L 356.065723 93.955853 
L 356.906216 93.61656 
L 357.74671 93.512534 
L 358.727285 93.651638 
L 360.26819 94.179024 
L 362.509505 94.922323 
L 363.209916 94.845514 
L 364.05041 94.469933 
L 365.030985 94.015728 
L 366.011561 93.781066 
L 366.992136 93.771389 
L 368.252876 94.005446 
L 371.614849 94.762051 
L 372.455343 94.59815 
L 374.556576 93.975811 
L 375.677234 93.928637 
L 377.078056 94.102819 
L 380.580111 94.637462 
L 381.560687 94.457837 
L 383.101591 94.114915 
L 384.502413 94.045363 
L 386.323482 94.224384 
L 389.405291 94.552186 
L 390.666031 94.367722 
L 392.206935 94.153622 
L 393.887922 94.148179 
L 399.351128 94.378003 
L 401.312279 94.189306 
L 403.413512 94.231642 
L 407.756061 94.400986 
L 411.118034 94.218941 
L 419.102721 94.246157 
L 422.044447 94.299379 
L 425.966749 94.327805 
L 429.18864 94.263696 
L 442.776615 94.332643 
L 450.060891 94.317523 
L 456.36459 94.288493 
L 470.372812 94.301194 
L 478.777745 94.302403 
L 498.109091 94.294541 
L 498.109091 94.294541 
" style="fill:none;stroke:#ff0000;stroke-linecap:square;stroke-width:1.5;"/>
   </g>
   <g id="line2d_28">
    <path clip-path="url(#pe06e715487)" d="M 92.290909 218.16 
L 92.430991 218.16 
L 92.711156 221.075741 
L 94.392142 244.492992 
L 94.952471 249.229786 
L 95.792965 252.979546 
L 99.154938 269.612755 
L 111.342091 330.68183 
L 118.486284 366.305155 
L 119.186695 368.173382 
L 119.466859 368.400787 
L 119.747024 368.353613 
L 121.42801 367.352064 
L 123.108997 366.695251 
L 125.21023 366.104966 
L 127.73171 365.623546 
L 130.953601 365.241917 
L 135.156067 364.972176 
L 140.899438 364.831258 
L 144.121329 364.947984 
L 149.8647 364.851821 
L 152.806427 364.944355 
L 158.549798 364.856659 
L 161.491524 364.940122 
L 166.814648 364.836701 
L 170.036539 364.938307 
L 175.499746 364.848192 
L 178.441472 364.939517 
L 184.044761 364.85303 
L 186.986488 364.934678 
L 192.449694 364.852426 
L 195.391421 364.932259 
L 200.714545 364.846982 
L 203.796354 364.92863 
L 209.119478 364.852426 
L 212.061204 364.928026 
L 219.485562 364.576637 
L 221.586795 364.133318 
L 223.688028 363.455942 
L 225.789262 362.544509 
L 227.890495 361.398413 
L 230.13181 359.918467 
L 232.373126 358.173014 
L 234.754523 356.028394 
L 237.135921 353.585606 
L 239.657401 350.677123 
L 242.318963 347.248512 
L 244.980525 343.455811 
L 247.78217 339.072826 
L 250.723896 334.043914 
L 253.805705 328.313434 
L 255.626774 324.563674 
L 256.607349 321.810019 
L 257.868089 317.556461 
L 259.268911 312.020122 
L 260.809816 305.00807 
L 262.490802 296.304998 
L 264.311871 285.689549 
L 266.273022 272.945203 
L 267.39368 264.629808 
L 268.374255 255.61345 
L 269.494913 243.258595 
L 270.755653 226.700381 
L 273.417215 187.759123 
L 276.358942 141.177427 
L 280.001079 82.978128 
L 280.701491 76.509187 
L 280.981655 74.892557 
L 281.401902 74.098454 
L 281.682066 74.175869 
L 282.102313 74.724422 
L 283.22297 76.820054 
L 283.923382 78.361085 
L 284.48371 80.267414 
L 285.324204 84.110918 
L 287.00519 93.327466 
L 288.966341 103.502621 
L 289.52667 105.498461 
L 289.946917 106.382074 
L 290.227081 106.632461 
L 290.507246 106.598592 
L 290.78741 106.281072 
L 291.207657 105.298877 
L 291.767986 103.185706 
L 293.589055 95.355965 
L 294.289466 93.549427 
L 294.849794 92.633155 
L 295.410123 92.169274 
L 295.83037 92.099722 
L 296.250617 92.246688 
L 296.810945 92.74081 
L 297.511357 93.752035 
L 298.491932 95.671066 
L 299.332425 97.81992 
L 300.453083 100.972742 
L 300.733248 101.325946 
L 301.013412 101.345904 
L 301.293576 100.98121 
L 301.573741 100.206461 
L 301.993988 98.289245 
L 302.694399 93.529469 
L 303.39481 89.269862 
L 304.095221 86.34505 
L 304.65555 84.999974 
L 305.075796 84.548189 
L 305.355961 84.489523 
L 305.636125 84.60383 
L 306.056372 85.052592 
L 306.616701 86.044464 
L 307.877441 88.960205 
L 309.278263 92.43841 
L 309.558427 92.743229 
L 309.838592 92.787379 
L 310.118756 92.540016 
L 310.398921 91.989648 
L 310.819167 90.622195 
L 312.640236 83.406931 
L 313.200565 82.372118 
L 313.620811 82.0044 
L 314.041058 81.962064 
L 314.461305 82.205798 
L 315.021634 82.885594 
L 315.862127 84.376426 
L 318.243525 88.938432 
L 318.523689 89.078746 
L 318.803854 89.009798 
L 319.084018 88.720704 
L 319.504265 87.883056 
L 320.064593 86.149699 
L 320.765005 84.033504 
L 321.465416 82.604966 
L 322.025745 81.989885 
L 322.445991 81.95904 
L 323.00632 82.202774 
L 323.706731 82.741651 
L 324.547224 83.771021 
L 327.208787 87.300029 
L 327.629033 87.316963 
L 328.04928 86.999443 
L 328.469526 86.360774 
L 330.150513 83.252707 
L 330.710842 82.756771 
L 331.131089 82.589846 
L 331.691417 82.667261 
L 332.391829 83.022883 
L 333.232322 83.760739 
L 334.633144 85.244918 
L 337.294706 85.841856 
L 338.975693 83.68393 
L 339.676104 83.300486 
L 340.236433 83.232749 
L 340.936844 83.40935 
L 341.777337 83.899843 
L 343.738488 85.448736 
L 344.578981 86.029344 
L 345.13931 86.14849 
L 345.559557 86.04265 
L 346.119886 85.640458 
L 347.800872 84.106685 
L 348.501283 83.842387 
L 349.201695 83.814566 
L 350.042188 84.042576 
L 351.302928 84.689712 
L 353.684325 85.92048 
L 354.244654 85.899312 
L 354.804983 85.659206 
L 356.906216 84.375216 
L 357.74671 84.254861 
L 358.587203 84.360096 
L 359.847943 84.788294 
L 362.509505 85.788029 
L 363.209916 85.743878 
L 363.910327 85.461437 
L 365.311149 84.788294 
L 366.291725 84.600202 
L 367.2723 84.643747 
L 368.673123 84.972758 
L 371.474767 85.696704 
L 372.31526 85.595702 
L 375.256987 84.829421 
L 376.517727 84.917117 
L 378.899124 85.397933 
L 380.299947 85.615661 
L 381.280522 85.516474 
L 383.802002 85.002394 
L 385.202824 85.038077 
L 387.724304 85.393094 
L 389.265209 85.551552 
L 390.385866 85.431197 
L 392.4871 85.117306 
L 394.168086 85.143312 
L 399.070964 85.434221 
L 401.732526 85.177181 
L 403.833759 85.257619 
L 407.615979 85.434221 
L 411.818445 85.244918 
L 417.281652 85.353178 
L 419.803132 85.259434 
L 437.033244 85.298141 
L 450.200973 85.350758 
L 456.36459 85.319914 
L 470.652976 85.332614 
L 483.820705 85.32959 
L 498.109091 85.328986 
L 498.109091 85.328986 
" style="fill:none;stroke:#008000;stroke-linecap:square;stroke-width:1.5;"/>
   </g>
   <g id="patch_3">
    <path d="M 72 384.48 
L 72 51.84 
" style="fill:none;stroke:#000000;stroke-linecap:square;stroke-linejoin:miter;stroke-width:0.8;"/>
   </g>
   <g id="patch_4">
    <path d="M 518.4 384.48 
L 518.4 51.84 
" style="fill:none;stroke:#000000;stroke-linecap:square;stroke-linejoin:miter;stroke-width:0.8;"/>
   </g>
   <g id="patch_5">
    <path d="M 72 384.48 
L 518.4 384.48 
" style="fill:none;stroke:#000000;stroke-linecap:square;stroke-linejoin:miter;stroke-width:0.8;"/>
   </g>
   <g id="patch_6">
    <path d="M 72 51.84 
L 518.4 51.84 
" style="fill:none;stroke:#000000;stroke-linecap:square;stroke-linejoin:miter;stroke-width:0.8;"/>
   </g>
   <g id="legend_1">
    <g id="patch_7">
     <path d="M 79 115.588713 
L 120.67443 115.588713 
Q 122.67443 115.588713 122.67443 113.588713 
L 122.67443 58.84 
Q 122.67443 56.84 120.67443 56.84 
L 79 56.84 
Q 77 56.84 77 58.84 
L 77 113.588713 
Q 77 115.588713 79 115.588713 
z
" style="fill:#ffffff;opacity:0.8;stroke:#cccccc;stroke-linejoin:miter;"/>
    </g>
    <g id="line2d_29">
     <path d="M 81 64.34 
L 101 64.34 
" style="fill:none;stroke:#bf00bf;stroke-linecap:square;stroke-width:1.5;"/>
    </g>
    <g id="line2d_30"/>
    <g id="text_15">
     <!-- $u_{1}$ -->
     <g transform="translate(109 67.84)scale(0.1 -0.1)">
      <use transform="translate(0 14.943915)scale(0.996264)" xlink:href="#CMMI12-117"/>
      <use transform="translate(55.52033 0)scale(0.697382)" xlink:href="#CMR17-49"/>
     </g>
    </g>
    <g id="line2d_31">
     <path d="M 81 78.277178 
L 101 78.277178 
" style="fill:none;stroke:#00bfbf;stroke-linecap:square;stroke-width:1.5;"/>
    </g>
    <g id="line2d_32"/>
    <g id="text_16">
     <!-- $u_{2}$ -->
     <g transform="translate(109 81.777178)scale(0.1 -0.1)">
      <use transform="translate(0 14.943915)scale(0.996264)" xlink:href="#CMMI12-117"/>
      <use transform="translate(55.52033 0)scale(0.697382)" xlink:href="#CMR17-50"/>
     </g>
    </g>
    <g id="line2d_33">
     <path d="M 81 92.214357 
L 101 92.214357 
" style="fill:none;stroke:#ff0000;stroke-linecap:square;stroke-width:1.5;"/>
    </g>
    <g id="line2d_34"/>
    <g id="text_17">
     <!-- $u_{3}$ -->
     <g transform="translate(109 95.714357)scale(0.1 -0.1)">
      <use transform="translate(0 14.943915)scale(0.996264)" xlink:href="#CMMI12-117"/>
      <use transform="translate(55.52033 0)scale(0.697382)" xlink:href="#CMR17-51"/>
     </g>
    </g>
    <g id="line2d_35">
     <path d="M 81 106.151535 
L 101 106.151535 
" style="fill:none;stroke:#008000;stroke-linecap:square;stroke-width:1.5;"/>
    </g>
    <g id="line2d_36"/>
    <g id="text_18">
     <!-- $u_{4}$ -->
     <g transform="translate(109 109.651535)scale(0.1 -0.1)">
      <use transform="translate(0 14.943915)scale(0.996264)" xlink:href="#CMMI12-117"/>
      <use transform="translate(55.52033 0)scale(0.697382)" xlink:href="#CMR17-52"/>
     </g>
    </g>
   </g>
  </g>
 </g>
 <defs>
  <clipPath id="pe06e715487">
   <rect height="332.64" width="446.4" x="72" y="51.84"/>
  </clipPath>
 </defs>
</svg>
